<svg version="1.1" xmlns="http://www.w3.org/2000/svg" xmlns:xlink="http://www.w3.org/1999/xlink" width="768.80614" height="627" viewBox="0,0,768.80614,627"><defs><linearGradient x1="146" y1="180" x2="574.00001" y2="180" gradientUnits="userSpaceOnUse" id="color-1"><stop offset="0" stop-color="#484c5e"/><stop offset="1" stop-color="#212d30"/></linearGradient><radialGradient cx="287.1884" cy="190.85102" r="35.73585" gradientUnits="userSpaceOnUse" id="color-2"><stop offset="0" stop-color="#ff0f0f" stop-opacity="0.50196"/><stop offset="1" stop-color="#ff0f0f" stop-opacity="0"/></radialGradient><radialGradient cx="257.64385" cy="191.30396" r="35.73585" gradientUnits="userSpaceOnUse" id="color-3"><stop offset="0" stop-color="#ff0f0f" stop-opacity="0.50196"/><stop offset="1" stop-color="#ff0f0f" stop-opacity="0"/></radialGradient><radialGradient cx="227.37511" cy="187.11563" r="35.73585" gradientUnits="userSpaceOnUse" id="color-4"><stop offset="0" stop-color="#ff0f0f" stop-opacity="0.50196"/><stop offset="1" stop-color="#ff0f0f" stop-opacity="0"/></radialGradient><linearGradient x1="398.3413" y1="180" x2="727.00001" y2="180" gradientUnits="userSpaceOnUse" id="color-5"><stop offset="0" stop-color="#331717"/><stop offset="1" stop-color="#000000"/></linearGradient><linearGradient x1="-7" y1="180" x2="727.00001" y2="180" gradientUnits="userSpaceOnUse" id="color-6"><stop offset="0" stop-color="#484c5e"/><stop offset="1" stop-color="#212d30"/></linearGradient><linearGradient x1="-7" y1="180" x2="354.70446" y2="180" gradientUnits="userSpaceOnUse" id="color-7"><stop offset="0" stop-color="#000000"/><stop offset="1" stop-color="#331717"/></linearGradient><linearGradient x1="-7" y1="180" x2="727.00001" y2="180" gradientUnits="userSpaceOnUse" id="color-8"><stop offset="0" stop-color="#484c5e"/><stop offset="1" stop-color="#212d30"/></linearGradient><linearGradient x1="-5.24205" y1="181.05806" x2="150.65901" y2="181.05806" gradientUnits="userSpaceOnUse" id="color-9"><stop offset="0" stop-color="#000000"/><stop offset="1" stop-color="#000000" stop-opacity="0"/></linearGradient><linearGradient x1="727.50754" y1="177.8148" x2="571.60646" y2="177.8148" gradientUnits="userSpaceOnUse" id="color-10"><stop offset="0" stop-color="#000000"/><stop offset="1" stop-color="#000000" stop-opacity="0"/></linearGradient><linearGradient x1="360.24745" y1="-17.14016" x2="360.24745" y2="110.48749" gradientUnits="userSpaceOnUse" id="color-11"><stop offset="0" stop-color="#000000"/><stop offset="1" stop-color="#000000" stop-opacity="0"/></linearGradient><linearGradient x1="359.27229" y1="377.38042" x2="359.27229" y2="249.75279" gradientUnits="userSpaceOnUse" id="color-12"><stop offset="0" stop-color="#000000"/><stop offset="1" stop-color="#000000" stop-opacity="0"/></linearGradient><radialGradient cx="272.20137" cy="180" r="313.5" gradientUnits="userSpaceOnUse" id="color-13"><stop offset="0" stop-color="#ff0000" stop-opacity="0.2"/><stop offset="1" stop-color="#ff0000" stop-opacity="0"/></radialGradient></defs><g transform="translate(41.29863,133.5)"><g stroke-miterlimit="10"><g stroke-width="0"><path d="M146,404v-448h428v448z" fill="#230000" stroke="url(#color-1)"/><path d="M94,274.5v-189h532v189z" fill="#650000" stroke="#000000"/></g><g stroke="none" stroke-width="0"><g><g><path d="M280.07084,216.6534l-4.76521,-39.17186l77.0602,-14.55889c0,0 4.91072,3.44389 5.66414,9.63722c0.34744,2.8561 2.18518,11.65752 1.94921,17.26529c-0.32631,7.75539 -2.84816,12.26934 -2.84816,12.26934z" fill="#111111"/><path d="M215.09813,224.84474l-65.57948,-18.74233l13.90736,-75.57544l65.57949,18.74238z" fill="#111111"/><path d="M298.43374,203.58234l-83.1852,8.76648l-2.78724,-41.07572l83.18518,-8.7665z" fill="#450404"/><path d="M330.41429,174.26099c0,0 -46.87329,10.88825 -71.67034,9.88912c-26.49804,-1.06765 -82.5538,-16.10306 -82.5538,-16.10306l5.0263,-38.75645c0,0 47.59797,14.86215 67.29133,17.23765c17.08131,2.06042 44.15153,-3.79504 44.15153,-3.79504z" fill="#000000"/><path d="M347.23097,224.08557c0,0 -46.30588,14.1657 -71.10868,14.91118c-26.50418,0.79664 -83.15119,-10.27456 -83.15119,-10.27456l3.2642,-39.04808c0,0 48.19487,11.49279 67.9644,12.48019c17.14734,0.85646 43.90947,-6.89248 43.90947,-6.89248z" fill="#000000"/></g><g><path d="M204.88456,143.1101c-20.2918,-2.97259 -66.77854,-8.63291 -81.60972,-13.99525c-21.87106,-7.9077 -7.70215,-16.40521 -6.91179,-24.78433c0.58936,-6.24807 -9.18033,-19.55404 4.57524,-22.03044c17.20123,-3.0967 60.8469,5.8024 88.74924,9.88988c50.21539,7.35615 60.8937,18.95854 59.56738,33.01971c-1.32629,14.06119 -14.155,25.25659 -64.37038,17.90044z" fill="#464646"/><path d="M264.6291,93.21827c5.87972,0.32841 33.02611,-0.71557 34.52981,9.5651c1.3592,9.29293 10.6783,29.69164 2.47326,40.43058c-7.64066,10.00028 -32.60589,10.70206 -37.55512,10.42562c-16.14383,-0.90169 -29.10736,-15.15848 -28.95488,-31.84335c0.03121,-3.41655 -2.57944,-18.17389 2.72694,-29.60265c5.78427,-12.45804 37.39009,-12.46333 39.6874,-9.84565c11.65539,13.28079 -22.14199,10.35458 -12.90742,10.87036z" fill="#090909"/></g><path d="M200.59165,146.87183l-16.30666,-1.43776l3.65342,-64.35222l16.30666,1.43779z" fill="#000000"/><path d="M227.77863,155.14166l-16.30666,-1.43779l3.65345,-64.35221l16.30666,1.43779z" fill="#000000"/></g><path d="M317.94391,213.52917c-10.05019,21.16809 -31.96721,28.1749 -48.95303,15.65009c-16.9858,-12.5248 -22.60821,-39.83832 -12.55801,-61.00642c10.05019,-21.16809 31.96721,-28.1749 48.95303,-15.65009c16.9858,12.5248 22.60821,39.83832 12.55801,61.00642z" fill="url(#color-2)"/><path d="M288.39937,213.98213c-10.05019,21.16809 -31.96721,28.1749 -48.95303,15.65009c-16.9858,-12.5248 -22.60821,-39.83832 -12.55801,-61.00642c10.05019,-21.16809 31.96721,-28.1749 48.95303,-15.65009c16.9858,12.5248 22.60821,39.83832 12.55801,61.00642z" fill="url(#color-3)"/><path d="M258.13063,209.7938c-10.05019,21.16809 -31.96721,28.1749 -48.95303,15.65009c-16.9858,-12.5248 -22.60821,-39.83832 -12.55801,-61.00642c10.05019,-21.16809 31.96721,-28.1749 48.95303,-15.65009c16.9858,12.5248 22.60821,39.83832 12.55801,61.00642z" fill="url(#color-4)"/></g><path d="M727.00001,-13.5v387h-328.65871c0.01919,-0.02539 0.03833,-0.05081 0.05742,-0.07627c2.14978,-2.86621 4.57424,-5.41616 5.44946,-8.91445c0.78075,-3.12068 3.62243,-6.05614 5.11075,-9.00134c0.98629,-1.98328 3.54109,-3.78121 5.11015,-5.35062c0.60758,-0.60772 1.29476,-1.63005 2.13692,-1.82544c3.42266,-0.86891 6.94816,-0.91609 10.23928,-2.01245c3.36259,-1.12017 6.57833,-2.12521 10.06942,-2.74901c0.63855,-0.1141 2.05048,-0.10213 2.56612,-0.48516c1.57662,-1.17114 2.79249,-5.44173 3.69575,-7.22065c1.55863,-3.07588 2.50599,-6.61714 3.70063,-9.85381c1.2258,-3.32108 2.50114,-6.44995 4.06973,-9.62877c1.54862,-3.13834 3.11227,-6.269 4.67734,-9.39917c1.10828,-2.21658 2.1039,-3.8926 3.81525,-5.68951c0.75327,-0.79093 2.09198,-1.73153 2.14966,-2.83879c0.01478,-0.62663 -0.19924,-1.84344 0.03929,-2.40788c0.65922,-1.55992 3.18067,-2.3466 3.85247,-3.92449c0.27329,-0.64189 0.07187,-1.8874 0.09219,-2.58965c0.08225,-2.84229 1.04971,-8.09643 -0.51231,-10.47959c-1.89417,-2.88991 -4.07355,-5.73857 -5.65103,-8.81217c-1.62494,-3.16609 -2.56216,-6.37369 -3.57447,-9.781c-0.90977,-3.00587 -0.18519,-7.26258 -0.18527,-10.40778c-0.00008,-3.45466 1.06911,-6.88031 1.8037,-10.25194c0.28319,-1.31413 -0.31976,-3.24406 0.17035,-4.44667c0.58665,-1.43949 2.9785,-3.14213 4.06148,-4.29348c2.38373,-2.53422 2.53326,-6.33717 3.37299,-9.75207c0.8302,-3.37618 0.5846,-7.02688 0.58616,-10.50109c0.00155,-3.5 0.00309,-7 0.00464,-10.5c0.00133,-3.01861 -3.57292,-6.45934 -4.72457,-9.31824c-1.32085,-3.27892 -3.078,-6.27084 -4.80806,-9.35067c-1.57994,-2.81258 -2.98265,-6.58345 -3.66061,-9.73745c-0.73553,-3.42184 -1.47107,-6.84368 -2.2066,-10.26552c-0.73611,-3.42453 -0.53934,-6.89506 -0.55452,-10.39264c-0.01519,-3.49953 -0.04312,-6.99928 -0.04344,-10.49884c-0.00032,-3.5 -0.00065,-7 -0.00097,-10.5c-0.00032,-3.49999 -0.00059,-6.99998 -0.00059,-10.49998c0,-3.57655 0.71017,-6.80113 1.45555,-10.29364c0.73875,-3.46143 0.53678,-6.9634 0.54427,-10.49683c0.00005,-3.50009 0.00011,-7.00018 0.00016,-10.50026c-0.02298,-3.18094 -2.53477,-6.86901 -3.34359,-9.9832c-0.87983,-3.38761 -1.75967,-6.77522 -2.6395,-10.16283c-0.87983,-3.38761 -1.75967,-6.77522 -2.6395,-10.16283c-0.88141,-3.39367 -1.67239,-6.77422 -2.36013,-10.21245c-0.68649,-3.43202 -1.37298,-6.86403 -2.05948,-10.29605c-0.60323,-3.01577 -0.67122,-7.69618 -2.2556,-10.31358c-1.83391,-2.98107 -3.66782,-5.96214 -5.50174,-8.9432c-1.8373,-2.98658 -3.75794,-5.90741 -5.69906,-8.82742c-2.01239,-3.01409 -4.55697,-4.93273 -6.24765,-8.26639c-0.95611,-1.88523 -1.35742,-3.52797 -1.73672,-5.60453c-0.10928,-0.59825 -0.11349,-2.12201 -0.50571,-2.57751c-0.31498,-0.36581 -1.53785,-0.56254 -2.00077,-0.72096c-2.3311,-0.79772 -3.78087,-2.43551 -5.90889,-3.56067c-0.98436,-0.52047 -2.31661,-0.54011 -3.13112,-1.32376c-0.3093,-0.2908 -0.63245,-0.63443 -0.96666,-0.99728z" fill="url(#color-5)" stroke="url(#color-6)" stroke-width="0"/><path d="M-7,373.5v-387h361.70445c-0.37296,0.47761 -0.72669,0.94145 -1.03926,1.38857c-2.00534,2.86855 -4.01068,5.73711 -6.01602,8.60566c-2.00534,2.86855 -4.01068,5.73711 -6.01602,8.60566c-2.0048,2.86778 -4.13674,5.63399 -6.25629,8.41775c-2.12026,2.78469 -4.24052,5.56938 -6.36078,8.35407c-2.10586,2.76578 -4.08295,5.69193 -6.54044,8.15279c-2.47318,2.47657 -4.94636,4.95313 -7.41954,7.4297c-2.47429,2.47767 -4.97451,4.9316 -7.39008,7.46663c-2.41445,2.53386 -4.8289,5.06771 -7.24335,7.60157c-2.41445,2.53386 -4.8289,5.06771 -7.24335,7.60157c-2.45097,2.57218 -4.85648,4.90312 -7.65322,7.09659c-3.05346,2.39482 -4.87697,4.39744 -8.84726,4.40051c-3.05759,0.00238 -6.0013,4.22882 -8.12532,6.35161c-2.47559,2.47416 -4.95118,4.94831 -7.42677,7.42247c-2.47807,2.47664 -4.95315,4.95026 -7.36742,7.48926c-2.41179,2.53639 -4.82358,5.07278 -7.23537,7.60917c-2.41179,2.53639 -4.82358,5.07278 -7.23537,7.60917c-1.91049,2.00919 -4.50948,6.67248 -7.0683,7.45235c-2.62222,2.41376 -5.18185,4.63028 -8.07036,6.72461c-2.92718,2.12236 -5.24677,4.49025 -7.71251,7.12857c-2.38983,2.55709 -4.77965,5.11419 -7.16948,7.67128c-0.68166,0.72937 -1.48579,2.00639 -2.33525,2.51309c-0.93318,0.55665 -3.22694,0.22951 -3.93242,1.06858c-0.422,0.50191 -0.2535,2.4664 -0.30927,3.12937c-0.29342,3.48768 -0.58684,6.97536 -0.88026,10.46304c-0.29342,3.48768 -0.58684,6.97536 -0.88026,10.46304c-0.29231,3.47446 -1.05106,6.90479 -1.66736,10.33583c-0.61878,3.44487 -1.23756,6.88974 -1.85633,10.3346c-0.61878,3.44487 -1.23756,6.88974 -1.85633,10.3346c-0.61878,3.44487 -1.23756,6.88974 -1.85633,10.3346c-0.61878,3.44487 -1.23756,6.88974 -1.85633,10.3346c-0.61878,3.44487 -1.23756,6.88974 -1.85633,10.3346c-0.61878,3.44487 -1.23756,6.88974 -1.85633,10.3346c-0.61878,3.44487 -1.23756,6.88974 -1.85633,10.3346c-0.61859,3.44384 -1.22033,6.89107 -1.87834,10.32761c-0.6582,3.43755 -1.31639,6.87511 -1.97459,10.31266c-0.6582,3.43755 -1.31639,6.87511 -1.97459,10.31266c-0.6582,3.43755 -1.31639,6.87511 -1.97459,10.31266c-0.6582,3.43755 -1.31639,6.87511 -1.97459,10.31266c-0.66868,3.49231 -0.82818,6.91566 -0.99908,10.46444c-0.16835,3.49595 -0.33671,6.9919 -0.50506,10.48785c-0.16889,3.50716 -0.21867,6.99556 -0.22138,10.50662c-0.0027,3.5 -0.00541,7 -0.00811,10.5c-0.0027,3.50003 -0.00541,7.00006 -0.00811,10.50009c-0.0001,1.53128 -0.36516,3.58173 0.00725,5.06113c0.4091,1.62513 1.83001,3.41996 2.62659,4.90166c1.65687,3.08192 3.2652,6.18931 4.88439,9.29117c0.48965,0.93802 0.97931,1.87605 1.46896,2.81407z" fill="url(#color-7)" stroke="url(#color-8)" stroke-width="0"/><g stroke="none"><g fill="none" stroke-width="1" font-family="sans-serif" font-weight="normal" font-size="12" text-anchor="start"/><g stroke-width="0"><path d="M-5.24205,376.25325v-390.39039h155.90105v390.39039z" fill="url(#color-9)"/><path d="M571.60646,373.00998v-390.39039h155.90105v390.39039z" fill="url(#color-10)"/><path d="M-6.53232,110.48749v-127.62762h733.55954v127.62763z" fill="url(#color-11)"/><path d="M726.05206,249.75279v127.62762h-733.55954v-127.62762z" fill="url(#color-12)"/></g></g><path d="M-41.29863,180c0,-173.14127 140.35873,-313.5 313.5,-313.5c173.14127,0 313.5,140.35873 313.5,313.5c0,173.14127 -140.35873,313.5 -313.5,313.5c-173.14127,0 -313.5,-140.35873 -313.5,-313.5z" fill="url(#color-13)" stroke="#000000" stroke-width="0"/></g></g></svg>