<svg version="1.1" xmlns="http://www.w3.org/2000/svg" xmlns:xlink="http://www.w3.org/1999/xlink" width="102.79368" height="102.39173" viewBox="0,0,102.79368,102.39173"><g transform="translate(-308.82907,-128.80413)"><g stroke-miterlimit="10"><g><path d="M314.25497,182.73789c0,-26.7626 21.69538,-48.45798 48.45798,-48.45798c26.7626,0 48.45798,21.69538 48.45798,48.45798c0,26.7626 -21.69538,48.45798 -48.45798,48.45798c-26.7626,0 -48.45798,-21.69538 -48.45798,-48.45798z" fill="#8ebdff" stroke="#000000" stroke-width="0" stroke-linecap="butt"/><path d="M310.70722,211.50188c0,0 -8.01601,-25.32795 9.07292,-56.98879c10.94818,-20.2838 33.29154,-25.70895 33.29154,-25.70895h18.86089c0,0 -14.51128,13.26087 -14.79854,33.36927c-0.29541,20.67859 14.79854,29.88726 14.79854,29.88726z" fill="#ffffff" stroke="#000000" stroke-width="0" stroke-linecap="butt"/><path d="M351.04051,132.57631h10.7362" fill="none" stroke="#000000" stroke-width="1" stroke-linecap="round"/><path d="M343.78632,138.0895h13.34771" fill="none" stroke="#000000" stroke-width="1" stroke-linecap="round"/><path d="M335.08129,144.47318h19.15106" fill="none" stroke="#000000" stroke-width="1" stroke-linecap="round"/><path d="M328.11727,152.01754h25.82491" fill="none" stroke="#000000" stroke-width="1" stroke-linecap="round"/><path d="M322.89426,161.59307h11.6067" fill="none" stroke="#000000" stroke-width="1" stroke-linecap="round"/><text transform="translate(336.07605,198.23466) scale(0.87327,0.87327)" font-size="40" xml:space="preserve" fill="#000000" stroke="none" stroke-width="1" stroke-linecap="butt" font-family="Scratch" font-weight="normal" text-anchor="start"><tspan x="0" dy="0">LIBIN</tspan></text><text transform="translate(350.46017,205.851) scale(0.23614,0.23614)" font-size="40" xml:space="preserve" fill="#000000" stroke="none" stroke-width="1" stroke-linecap="butt" font-family="Scratch" font-weight="normal" text-anchor="start"><tspan x="0" dy="0">MDT STUDIOS</tspan></text></g></g></g></svg>