<svg version="1.1" xmlns="http://www.w3.org/2000/svg" xmlns:xlink="http://www.w3.org/1999/xlink" width="394.66667" height="139.93262" viewBox="0,0,394.66667,139.93262"><g transform="translate(-162.66667,-199.18649)"><g stroke-miterlimit="10"><path d="M341.46068,236.27877c0,0 2.5889,-3.92048 3.94618,-4.70264c1.44655,-0.83361 4.48239,-0.15451 4.48239,-0.15451" fill="none" stroke-opacity="0.51765" stroke="#5ce57d" stroke-width="7.5" stroke-linecap="round"/><path d="M370.1249,231.27877c0,0 3.03583,-0.67911 4.48239,0.1545c1.35728,0.78216 3.94618,4.70264 3.94618,4.70264" fill="none" stroke-opacity="0.51765" stroke="#5ce57d" stroke-width="7.5" stroke-linecap="round"/><path d="M335.20018,237.00426c2.51425,-5.16937 12.18979,-2.90752 12.332,4.11807c0.05701,2.81651 0.02612,5.76205 0.02612,8.48745c0,9.52371 -15.625,9.52371 -15.625,0c0,-4.09988 1.36635,-8.69798 3.26688,-12.60552z" fill-opacity="0.51765" fill="#5ce57d" stroke="none" stroke-width="0" stroke-linecap="butt"/><path d="M342.85,218.47606c0,-9.71329 7.87417,-17.58747 17.58746,-17.58747c9.71329,0 17.58746,7.87418 17.58746,17.58747c0,4.70419 -9.01776,12.50229 -17.52706,12.64996c-9.06084,0.15724 -17.64786,-7.64086 -17.64786,-12.64996z" fill-opacity="0.51765" fill="#5ce57d" stroke="none" stroke-width="0" stroke-linecap="butt"/><path d="M388.0667,248.8627c0,9.52371 -15.625,9.52371 -15.625,0c0,-2.72539 -0.03089,-5.67094 0.02612,-8.48745c0.14222,-7.02559 9.81776,-9.28744 12.332,-4.11807c1.90053,3.90754 3.26688,8.50563 3.26688,12.60552z" fill-opacity="0.51765" fill="#5ce57d" stroke="none" stroke-width="0" stroke-linecap="butt"/><path d="M345.67495,238.41448c0,-10.43818 4.86182,-18.1 15.3,-18.1c10.43818,0 14.3,8.46182 14.3,18.9c0,6.87592 -3.17572,10.89424 -7.30309,14.20121c-2.13831,1.71327 -3.43464,4.6988 -6.99691,4.6988c-3.60776,0 -5.92436,-3.98143 -8.22931,-5.86043c-4.36386,-3.55744 -7.07069,-7.00914 -7.07069,-13.83957z" fill-opacity="0.51765" fill="#5ce57d" stroke="none" stroke-width="0" stroke-linecap="butt"/><path d="M342.14163,217.93948c0,-2.84471 -1.85278,-4.027 0.47984,-5.02915c0.38002,-0.16326 0.95203,-1.19414 1.6286,-1.3527c1.13541,-0.26609 3.06529,0.27623 4.37644,0.15094c1.49544,-0.1429 2.33643,-0.96624 2.90987,-1.55538c0.90357,-0.9283 2.8291,-2.49227 3.70204,-4.38311c0.53033,-1.14871 0.59341,-2.78151 0.78939,-3.8753c0.14895,-0.8313 0.42745,-1.19289 0.73922,-1.7149c1.0917,-1.82789 1.44805,-0.57373 3.70794,-0.57373c10.12522,0 18.33333,8.20811 18.33333,18.33334c0,4.90369 -9.4002,13.0325 -18.27037,13.18643c-9.4451,0.16391 -18.3963,-7.9649 -18.3963,-13.18643z" fill-opacity="0.51765" fill="#5ce57d" stroke="none" stroke-width="0" stroke-linecap="butt"/><g fill-opacity="0.51765" fill="#5ce57d" stroke="none" stroke-width="0" stroke-linecap="butt"><path d="M334.6196,263.59722c-2.45738,-7.21833 -0.63457,-14.92671 4.07137,-17.21713c4.70594,-2.29043 16.49249,-0.3627 18.94987,6.85564c2.45738,7.21833 -20.56386,17.57984 -23.02124,10.36149z"/><path d="M334.8336,263.59722c-2.93826,-7.21833 -0.75874,-14.9267 4.86808,-17.21713c5.62682,-2.29043 12.5702,1.70443 15.50846,8.92276c2.93826,7.21833 -17.43828,15.5127 -20.37654,8.29437z"/></g><g fill-opacity="0.51765" fill="#5ce57d" stroke="none" stroke-width="0" stroke-linecap="butt"><path d="M360.95915,253.23576c2.45738,-7.21834 14.24393,-9.14606 18.94986,-6.85564c4.70594,2.29042 6.52875,9.99881 4.07137,17.21714c-2.45738,7.21834 -25.47861,-3.14317 -23.02123,-10.3615z"/><path d="M363.38976,255.30289c2.93826,-7.21833 9.88164,-11.21319 15.50846,-8.92276c5.62682,2.29043 7.80634,9.9988 4.86808,17.21714c-2.93826,7.21834 -23.3148,-1.07604 -20.37654,-8.29438z"/></g><g stroke="none" stroke-linecap="butt"><g><g><path d="M344.40973,218.53689c0,-3.45178 2.79822,-6.25 6.25,-6.25c3.45178,0 6.25,2.79822 6.25,6.25c0,3.45178 -2.79822,6.25 -6.25,6.25c-3.45178,0 -6.25,-2.79822 -6.25,-6.25z" fill-opacity="0.51765" fill="#5ce57d" stroke-width="0"/><g fill="none" stroke-width="1" font-family="sans-serif" font-weight="normal" font-size="12" text-anchor="start"/></g><text transform="translate(346.46023,222.80925) scale(0.3703,0.3703)" font-size="40" xml:space="preserve" fill-opacity="0.51765" fill="#5ce57d" stroke-width="1" font-family="Handwriting" font-weight="normal" text-anchor="start"><tspan x="0" dy="0">x</tspan></text></g><g><g><path d="M370.21523,225.05353c-3.45178,0 -6.25,-2.79822 -6.25,-6.25c0,-3.45178 2.79822,-6.25 6.25,-6.25c3.45178,0 6.25,2.79822 6.25,6.25c0,3.45178 -2.79822,6.25 -6.25,6.25z" fill-opacity="0.51765" fill="#5ce57d" stroke-width="0"/><g fill="none" stroke-width="1" font-family="sans-serif" font-weight="normal" font-size="12" text-anchor="start"/></g><text transform="translate(374.41478,223.07589) rotate(-180) scale(0.3703,-0.3703)" font-size="40" xml:space="preserve" fill-opacity="0.51765" fill="#5ce57d" stroke-width="1" font-family="Handwriting" font-weight="normal" text-anchor="start"><tspan x="0" dy="0">x</tspan></text></g></g><path d="M375.37726,223.02575c0,0.49926 -2.42649,1.82572 -5.0081,3.35769c-1.27785,0.7583 -1.26164,1.73823 -2.75511,2.38348c-0.90217,0.38978 -2.20252,0.04143 -3.57099,0.23145c-1.35264,0.18783 -2.77184,0.91627 -3.93887,0.91627c-1.04008,0 -1.68641,2.45256 -2.65731,2.28812c-1.12863,-0.19116 -0.94198,-2.18694 -1.96805,-2.65711c-1.1962,-0.54814 -2.47194,0.02526 -3.58478,-0.59472c-0.92327,-0.51437 -1.79107,-1.7497 -2.5718,-2.3664c-1.11939,-0.88422 -1.96885,-0.92495 -2.63701,-1.52931c-0.69592,-0.62946 -1.18744,-1.80867 -1.18744,-2.02946c0,-0.53514 1.36725,-0.98857 4.16701,-0.50636c1.45216,0.25011 3.3913,1.5033 5.42465,1.92901c1.68856,0.35353 3.41389,-0.08931 5.23696,-0.08931c0.66614,0 1.50464,-0.74277 2.14905,-0.7707c3.28038,-0.14218 6.20638,0.35682 8.43919,0.133c2.76144,-0.27679 4.46261,-1.22589 4.46261,-0.69564z" fill-opacity="0.51765" fill="#5ce57d" stroke="#e2e2e2" stroke-width="0" stroke-linecap="butt"/><path d="M557.33334,339.11911h-394.66667l102.2212,-61.33333h182.21507z" fill-opacity="0.51765" fill="#5ce57d" stroke-opacity="0.2" stroke="#14ff53" stroke-width="0" stroke-linecap="butt"/><text transform="translate(438.2187,324.7793) rotate(-90) scale(1.39323,1.39323)" font-size="40" xml:space="preserve" fill-opacity="0.51765" fill="#13301a" stroke="none" stroke-width="1" stroke-linecap="butt" font-family="&quot;VCR_OSD_MONO_1&quot;, Curly" font-weight="normal" text-anchor="start"><tspan x="0" dy="0">&lt;</tspan></text><g fill-opacity="0.51765" fill="#13301a" stroke="none" stroke-width="0" stroke-linecap="butt"><path d="M340.96152,315.72594v-19.5386h38.36411v19.5386z"/><path d="M338.3944,298.11268v-3.85067h43.07049v3.85067z"/><path d="M338.96487,317.65128v-3.85067h43.07049v3.85067z"/><path d="M342.10246,317.65128c0,-2.75679 2.23482,-4.99161 4.99161,-4.99161c2.75679,0 4.99161,2.23482 4.99161,4.99161c0,2.75679 -2.23482,4.99161 -4.99161,4.99161c-2.75679,0 -4.99161,-2.23482 -4.99161,-4.99161z"/><path d="M367.77361,317.65128c0,-2.75679 2.23482,-4.99161 4.99161,-4.99161c2.75679,0 4.99161,2.23482 4.99161,4.99161c0,2.75679 -2.23482,4.99161 -4.99161,4.99161c-2.75679,0 -4.99161,-2.23482 -4.99161,-4.99161z"/><path d="M354.6528,317.65128c0,-2.75679 2.23482,-4.99161 4.99161,-4.99161c2.75679,0 4.99161,2.23482 4.99161,4.99161c0,2.75679 -2.23482,4.99161 -4.99161,4.99161c-2.75679,0 -4.99161,-2.23482 -4.99161,-4.99161z"/></g><text transform="translate(281.7813,324.7793) rotate(-90) scale(1.39323,-1.39322)" font-size="40" xml:space="preserve" fill-opacity="0.51765" fill="#13301a" stroke="none" stroke-width="1" stroke-linecap="butt" font-family="&quot;VCR_OSD_MONO_1&quot;, Curly" font-weight="normal" text-anchor="start"><tspan x="0" dy="0">&lt;</tspan></text></g></g></svg>