<svg version="1.1" xmlns="http://www.w3.org/2000/svg" xmlns:xlink="http://www.w3.org/1999/xlink" width="263.0253" height="72.67088" viewBox="0,0,263.0253,72.67088"><g transform="translate(-342.5,-159.83122)"><g stroke-miterlimit="10"><path d="M342.5,196.9259c0,0 2.6173,-10.50032 4.3105,-15.49808c1.14641,-3.38384 1.32762,-0.67076 2.0652,-4.19082c0.79034,-3.77185 -0.87954,-7.44763 -0.40965,-9.09223c0.66865,-2.34028 3.23396,-3.41887 3.23396,-3.41887c0,0 2.41727,1 4.8,1c5.63702,0 28.99086,-1.85846 37.59692,-2.10676c1.99964,-0.05769 3.20308,1.10676 3.20308,1.10676c0,0 -1,5.24098 -1,8c0,2.55929 1,8 1,8c0,0 -1.16806,1.40573 -3.07229,1.15989c-6.45142,-0.83292 -21.35279,-3.85793 -27.9098,-0.32662c-5.85694,3.15429 2.59942,14.77256 -1.44051,15.96685c-5.29046,1.56396 -22.37741,-0.60011 -22.37741,-0.60011z" fill-opacity="0.51765" fill="#5ce57d" stroke="none" stroke-width="0"/><path d="M375.1,180.85534c0,4.19736 -3.40264,7.6 -7.6,7.6c-1.9925,0 -3.80592,-0.76676 -5.16128,-2.02132c0.44511,0.06059 0.89954,0.09188 1.36128,0.09188c5.52285,0 10,-4.47716 10,-10c0,-0.02248 -0.00007,-0.04494 -0.00022,-0.06738c0.88178,1.24112 1.40022,2.75843 1.40022,4.39682z" fill-opacity="0.51765" fill="#5ce57d" stroke="#424242" stroke-width="0"/><path d="M435.68073,159.83122h169.84458v72.67088h-169.84458v-43.46003l-11.67791,-7.9296l11.67792,-8.9639z" fill-opacity="0.51765" fill="#5ce57d" stroke="none" stroke-width="0"/><text transform="translate(441.4716,175.89066) scale(0.35617,0.35617)" font-size="40" xml:space="preserve" fill-opacity="0.51765" fill="#13301a" stroke="none" stroke-width="1" font-family="&quot;VCR_OSD_MONO_1&quot;, Curly" font-weight="normal" text-anchor="start"><tspan x="0" dy="0">Gun Aquired !</tspan><tspan x="0" dy="46.15px">Status :</tspan><tspan x="0" dy="46.15px">AmountOfBullets:5</tspan><tspan x="0" dy="46.15px">CanRefillByScan:Yes</tspan></text></g></g></svg>