<svg version="1.1" xmlns="http://www.w3.org/2000/svg" xmlns:xlink="http://www.w3.org/1999/xlink" width="104.82368" height="183.48704" viewBox="0,0,104.82368,183.48704"><defs><radialGradient cx="127.60193" cy="199.36537" r="15.125" gradientUnits="userSpaceOnUse" id="color-1"><stop offset="0" stop-color="#ff0f0f" stop-opacity="0.50196"/><stop offset="1" stop-color="#ff0f0f" stop-opacity="0"/></radialGradient><radialGradient cx="134.10193" cy="188.68184" r="15.125" gradientUnits="userSpaceOnUse" id="color-2"><stop offset="0" stop-color="#ff0f0f" stop-opacity="0.50196"/><stop offset="1" stop-color="#ff0f0f" stop-opacity="0"/></radialGradient><radialGradient cx="139.40141" cy="176.93184" r="15.125" gradientUnits="userSpaceOnUse" id="color-3"><stop offset="0" stop-color="#ff0f0f" stop-opacity="0.50196"/><stop offset="1" stop-color="#ff0f0f" stop-opacity="0"/></radialGradient><radialGradient cx="167.84231" cy="79.72625" r="13.55381" gradientUnits="userSpaceOnUse" id="color-4"><stop offset="0" stop-color="#000000"/><stop offset="1" stop-color="#070707"/></radialGradient><radialGradient cx="154.64231" cy="82.32625" r="13.10822" gradientUnits="userSpaceOnUse" id="color-5"><stop offset="0" stop-color="#000000"/><stop offset="1" stop-color="#070707"/></radialGradient></defs><g transform="translate(-97.95998,-43.49706)"><g stroke-miterlimit="10"><g stroke="none" stroke-width="0"><g><g><path d="M115.81386,226.78708c0,0 -1.86291,0.13795 -4.20006,-1.08443c-1.68995,-0.88387 -3.86644,-3.07543 -4.62637,-3.69593c-1.64787,-1.34553 -1.5961,-3.7299 -1.5961,-3.7299l20.86387,-25.55201l10.42253,8.51027z" fill="#111111"/><path d="M127.98792,170.98047l8.65585,-27.12928l25.08735,8.00436l-8.65586,27.12927z" fill="#111111"/><path d="M117.4942,197.54434l20.4909,-28.78484l11.40531,8.11903l-20.4909,28.78485z" fill="#450404"/><path d="M112.35844,193.03656c0,0 7.54582,-8.84791 10.62504,-15.42626c3.55009,-7.58431 9.46461,-27.4926 9.46461,-27.4926l12.41143,4.87178c0,0 -7.68675,23.01908 -13.08569,32.85587c-5.05237,9.20534 -18.33729,24.39631 -18.33729,24.39631z" fill="#000000"/><path d="M124.38221,207.74876c0,0 8.03286,-8.40822 11.47822,-14.80241c3.97223,-7.37199 11.00023,-26.915 11.00023,-26.915l12.11689,5.56408c0,0 -8.97288,22.54887 -14.91806,32.06548c-5.56354,8.90572 -19.68414,23.32319 -19.68414,23.32319z" fill="#000000"/></g><g><path d="M131.38632,161.129c-8.67257,19.56359 -14.70979,22.3004 -19.10559,20.35173c-4.3958,-1.94866 -5.48561,-7.84488 3.18696,-27.40848c4.81894,-10.87058 11.62458,-28.30794 16.23702,-34.03809c3.6885,-4.58231 5.47209,1.27756 7.42536,2.14344c2.61948,1.16122 8.15698,-2.53035 5.75455,6.80396c-1.62914,6.32977 -9.99377,24.24189 -13.49831,32.14745z" fill="#464646"/><path d="M103.92695,174.26305c1.83953,-3.45298 -4.58937,9.36409 -5.95918,2.82169c-0.26999,-1.28953 6.54342,-12.80132 11.43144,-12.75376c4.48417,0.04363 8.23494,3.54676 9.24029,4.12626c4.90969,2.82999 6.28283,10.01769 3.06698,16.05416c-0.98589,1.85061 -6.57166,10.82305 -11.1414,11.87675c-4.90728,1.13154 -8.86112,-5.79084 -11.28441,-7.89309c-2.68086,-2.32571 3.47503,-12.03347 4.64627,-14.23201z" fill="#090909"/></g><path d="M113.81414,150.41737l3.09425,-6.1885l19.59693,9.79847l-3.09426,6.1885z" fill="#000000"/><path d="M110.37183,161.75069l3.09425,-6.1885l19.59693,9.79846l-3.09425,6.1885z" fill="#000000"/></g><path d="M112.47693,199.36537c0,-8.35331 6.7717,-15.125 15.125,-15.125c8.3533,0 15.125,6.77169 15.125,15.125c0,8.35331 -6.7717,15.125 -15.125,15.125c-8.3533,0 -15.125,-6.77169 -15.125,-15.125z" fill="url(#color-1)"/><path d="M118.97693,188.68184c0,-8.35331 6.7717,-15.125 15.125,-15.125c8.3533,0 15.125,6.77169 15.125,15.125c0,8.35331 -6.7717,15.125 -15.125,15.125c-8.3533,0 -15.125,-6.77169 -15.125,-15.125z" fill="url(#color-2)"/><path d="M124.27641,176.93184c0,-8.35331 6.7717,-15.125 15.125,-15.125c8.3533,0 15.125,6.77169 15.125,15.125c0,8.35331 -6.7717,15.125 -15.125,15.125c-8.3533,0 -15.125,-6.77169 -15.125,-15.125z" fill="url(#color-3)"/></g><g><path d="M185.38337,98.18555c0,3.77772 8.8279,14.78217 6.49499,18.66959c-3.03879,5.06366 -27.1988,2.58041 -30.24499,2.58041c-5.38477,0 4.25,-12.55151 4.25,-21.25c0,-8.69849 10.36523,-19.25 15.75,-19.25c5.38477,0 3.75,10.55151 3.75,19.25z" fill="#464646" stroke="none" stroke-width="0"/><path d="M167.25004,104.18555c-14.08326,0 -17.5,-10.91674 -17.5,-25c0,-14.08326 7.41674,-25.5 21.5,-25.5c14.08326,0 21.5,10.91674 21.5,25c0,14.08326 -11.41674,25.5 -25.5,25.5z" fill="#464646" stroke="none" stroke-width="0"/><g stroke="none" stroke-width="0"><path d="M166.44607,107.44905c-0.78083,0.0773 -11.26857,1.23198 -11.26857,1.23198l-12.44719,-11.89687c0,0 3.37409,-7.38108 2.74199,-13.76628c-1.46389,-14.78754 5.13704,-27.54615 19.92458,-29.01003c14.78754,-1.46388 23.70992,9.22785 25.17381,24.01539c1.46389,14.78754 -9.33707,27.96193 -24.12461,29.42582z" fill="#131313"/><g><path d="M142.58761,91.68489c1.35493,-1.19481 5.82773,1.66326 9.99028,6.38367c4.16255,4.7204 6.43857,9.51564 5.08364,10.71044c-1.35493,1.19481 -5.82773,-1.66326 -9.99028,-6.38367c-4.16255,-4.7204 -6.43857,-9.51564 -5.08364,-10.71044z" fill="#070707"/><path d="M153.68782,112.32025l-15.07392,-17.09411l3.95697,-3.48933l15.07392,17.09411z" fill="#070707"/><path d="M138.71369,95.33931c1.35493,-1.19481 5.80127,1.63325 9.93117,6.31664c4.12991,4.68339 6.37946,9.4486 5.02452,10.6434c-1.35493,1.19481 -5.80127,-1.63324 -9.93117,-6.31663c-4.12991,-4.68339 -6.37946,-9.44861 -5.02452,-10.64341z" fill="#0c0c0c"/></g><path d="M163.99626,79.92188c-0.73994,-7.47454 1.95721,-13.86023 6.02423,-14.26284c4.06703,-0.40261 7.96384,5.3303 8.70378,12.80485c0.73994,7.47454 -1.9572,13.86023 -6.02423,14.26284c-4.06703,0.40261 -7.96385,-5.33031 -8.70379,-12.80485z" fill="url(#color-4)"/><path d="M148.16682,76.85553c0.65827,-7.13231 2.89562,-11.91378 4.99725,-10.67971c2.10163,1.23407 3.2717,8.01637 2.61343,15.14868c-0.65827,7.13231 -2.89562,11.91378 -4.99725,10.6797c-2.10163,-1.23407 -3.2717,-8.01636 -2.61343,-15.14867z" fill="url(#color-5)"/></g><g stroke-width="0"><path d="M202.78366,59.70261c0,2.52473 -14.10303,4.57143 -31.5,4.57143c-17.39697,0 -31.5,-2.0467 -31.5,-4.57143c0,-2.52473 14.10303,-4.57143 31.5,-4.57143c17.39697,0 31.5,2.0467 31.5,4.57143z" fill="#04050a" stroke="#000000"/><path d="M193.54845,56.13117c0,6.54852 -44.30608,6.54852 -44.30608,0c0,-2.32907 -1.90242,-10.54406 5.32004,-11.2164c6.16428,-0.57383 22.82745,-2.62546 30.63263,-0.41615c8.76238,2.48025 8.35341,9.40094 8.35341,11.63256z" fill="#0c0d12" stroke="none"/></g><path d="M185.87088,89.69768v-19h7.85715v19z" fill="#070707" stroke="none" stroke-width="0"/><path d="M153.26242,72.70041c0.15679,-0.01883 0.17563,0.13796 0.17563,0.13796l0.02674,0.22258c0.14837,0.00944 0.14498,0.16101 0.14498,0.16101c-0.00246,0.11025 -0.00957,0.22158 -0.02085,0.33383c0.15824,0.41041 0.41294,0.79774 0.48214,1.3752c0.09109,2.14296 0.32175,4.38536 -0.17128,6.53135c-0.23699,1.9129 -0.63552,3.86564 -1.02433,5.75888l0.03762,0.31316c0.0104,0.0866 -0.05136,0.16522 -0.13795,0.17562c-0.08659,0.0104 -0.16523,-0.05136 -0.17563,-0.13796l-0.03767,-0.31358c-0.09201,-0.79518 -0.43824,-1.52967 -0.53716,-2.35309c-0.13878,-1.2853 -0.03307,-2.68556 -0.09915,-4.00511c-0.04235,-0.84579 -0.48855,-1.55506 -0.25505,-2.43197c0.41672,-1.49458 1.42329,-3.30806 1.59832,-4.88353c-0.05102,-0.13674 -0.09213,-0.28462 -0.11418,-0.45784l-0.03013,-0.25088c0,0 -0.01884,-0.1568 0.13795,-0.17563zM153.50394,74.10579c-0.30088,1.4759 -1.15769,3.06465 -1.52883,4.44579c-0.23188,0.82246 0.224,1.52937 0.2656,2.32855c0.06795,1.30532 -0.07403,2.7213 0.09753,3.98757c0.05372,0.44718 0.17705,0.86359 0.29482,1.27845c0.04501,-0.18234 0.0923,-0.35343 0.11734,-0.49139c0.25768,-1.41942 0.65665,-2.79521 0.83834,-4.24727c0.48021,-2.1025 0.29224,-4.35091 0.16762,-6.44977c-0.04341,-0.36042 -0.14435,-0.61831 -0.25241,-0.85193z" fill="#ff0000" stroke="none" stroke-width="0.5"/><path d="M171.02969,71.60659l-0.03013,0.25088c-0.02205,0.17321 -0.06316,0.32109 -0.11417,0.45784c0.17503,1.57547 1.1816,3.38895 1.59832,4.88353c0.2335,0.87691 -0.21271,1.58619 -0.25506,2.43198c-0.06607,1.31955 0.03963,2.71981 -0.09915,4.00511c-0.09891,0.82342 -0.44515,1.55791 -0.53716,2.35309l-0.03767,0.31359c-0.0104,0.0866 -0.08904,0.14835 -0.17563,0.13795c-0.08659,-0.0104 -0.14835,-0.08903 -0.13795,-0.17562l0.03762,-0.31315c-0.38881,-1.89324 -0.78735,-3.84598 -1.02434,-5.75889c-0.49304,-2.14599 -0.26237,-4.3884 -0.17128,-6.53135c0.06919,-0.57747 0.3239,-0.96479 0.48214,-1.3752c-0.01127,-0.11225 -0.01838,-0.22358 -0.02085,-0.33383c0,0 -0.00339,-0.15156 0.14499,-0.161l0.02674,-0.22259c0,0 0.01884,-0.15679 0.17563,-0.13796c0.15679,0.01883 0.13795,0.17563 0.13795,0.17563zM170.3978,73.68828c-0.12462,2.09886 -0.31259,4.34727 0.16762,6.44977c0.18169,1.45206 0.58066,2.82785 0.83834,4.24727c0.02504,0.13796 0.07234,0.30905 0.11734,0.49139c0.11777,-0.41486 0.2411,-0.83128 0.29482,-1.27845c0.17156,-1.26627 0.02958,-2.68225 0.09753,-3.98757c0.0416,-0.79918 0.49747,-1.50608 0.2656,-2.32855c-0.37115,-1.38114 -1.22795,-2.96989 -1.52883,-4.44579c-0.10807,0.23362 -0.20901,0.49151 -0.25242,0.85193z" fill="#ff0000" stroke="none" stroke-width="0.5"/><path d="M139.86112,98.44445c0,-0.69036 0.55964,-1.25 1.25,-1.25c0.69036,0 1.25,0.55964 1.25,1.25c0,0.69036 -0.55964,1.25 -1.25,1.25c-0.69036,0 -1.25,-0.55964 -1.25,-1.25z" fill="#000000" stroke="none" stroke-width="0.5"/></g></g></g></svg>