<svg version="1.1" xmlns="http://www.w3.org/2000/svg" xmlns:xlink="http://www.w3.org/1999/xlink" width="76.33333" height="101" viewBox="0,0,76.33333,101"><g transform="translate(-321.83333,-129.5)"><g data-paper-data="{&quot;isPaintingLayer&quot;:true}" fill-rule="nonzero" stroke-linecap="butt" stroke-linejoin="miter" stroke-miterlimit="10" stroke-dasharray="" stroke-dashoffset="0" style="mix-blend-mode: normal"><path d="M321.83333,230.5v-101h76.33333v101z" fill="#273042" stroke="none" stroke-width="0"/><path d="M329.75469,196.83333v-61.66667h60.49068v61.66667z" fill="#0b0e13" stroke="none" stroke-width="0"/><path d="M343.0834,227.33333v-17.33333h33.83333v17.33333z" fill="#0b0e13" stroke="#000000" stroke-width="0"/><path d="M342.99989,209.125v-11.25h34.25v11.25z" fill="#273042" stroke="#000000" stroke-width="0"/><text transform="translate(348.24453,223.17375) scale(0.37559,0.37559)" font-size="40" xml:space="preserve" fill="#43c749" fill-rule="nonzero" stroke="none" stroke-width="1" stroke-linecap="butt" stroke-linejoin="miter" stroke-miterlimit="10" stroke-dasharray="" stroke-dashoffset="0" font-family="&quot;Agency FB&quot;, Sans Serif" font-weight="normal" text-anchor="start" style="mix-blend-mode: normal"><tspan x="0" dy="0">EASY</tspan></text><g stroke="#000000" stroke-width="0"><path d="M358.64309,192.29671l-0.05626,-8.19833l1.94093,-0.01332l0.05627,8.19832z" fill="#2f323e"/><path d="M357.23201,183.70833c-0.96256,-1.49095 -1.12566,-6.94744 -1.12566,-6.94744l6.61097,-0.10658c0,0 -0.23634,5.29035 -0.87518,6.86219c-0.43077,1.05988 -1.58034,0.937 -2.42286,0.94277c-0.62781,0.0043 -1.77969,-0.11967 -2.18724,-0.75095z" fill="#2f323e"/><g><path d="M374.15164,171.00164c-0.4714,-1.6679 -1.22099,-2.53863 -1.59551,-3.81094c-0.3534,-1.20055 -0.3352,-2.82193 -0.66053,-3.74681c-0.80397,-2.28571 -1.52344,-3.84984 -1.52999,-5.33699c-0.00409,-0.92859 0.8322,-2.45521 1.06769,-3.2383c0.2577,-0.8569 2.89811,-0.97665 4.48922,-0.20234c1.38525,0.67413 1.64761,2.05187 3.01579,3.88086c0.61207,0.8182 2.32249,2.75885 2.8293,3.76856c0.84057,1.67464 0.57372,2.75857 0.85669,4.47702c0.23708,1.43981 1.49542,3.55828 1.81436,5.23368c0.14885,0.78191 -0.53899,1.17319 -0.48235,1.88834c0.06839,0.86333 1.04073,3.58948 1.06076,4.36691c0.05687,2.20762 -0.70213,2.89571 -1.05186,4.2704c-0.41507,1.63156 0.57296,5.10701 -0.04084,6.0687c-0.8967,1.40494 -3.5254,1.69171 -4.50043,1.76893c-0.95723,0.07582 -2.20492,1.00625 -3.17781,-0.0385c-0.75277,-0.80838 -1.44117,-2.82455 -1.9669,-5.01981c-0.31331,-1.30829 -0.75373,-1.32923 -0.95979,-2.91452c-0.12305,-0.94657 -0.0428,-3.30979 -0.13379,-4.45878c-0.15358,-1.93886 2.03805,-3.16317 0.96597,-6.95639z" fill="#a3a3a3"/><path d="M372.61947,156.35934c0.7716,-0.20872 1.80953,1.14674 2.31828,3.0275c0.50876,1.88076 0.29569,3.57462 -0.47589,3.78335c-0.7716,0.20872 -1.80954,-1.14673 -2.31829,-3.02749c-0.50876,-1.88076 -0.29569,-3.57463 0.4759,-3.78336z" fill="#0d0d0d"/></g><path d="M373.34547,158.13701c0.45507,0.17092 0.85397,0.86993 1.00441,1.34236c0.1079,0.33886 0.23342,1.00888 0.11081,1.31592c-0.74716,1.87118 -5.31435,2.61548 -5.97193,0.55038c-0.61503,-1.93152 2.9962,-3.90743 4.85669,-3.20867z" fill="#2f323e"/><g><path d="M346.80651,178.80676c-0.07523,1.15012 0.03745,3.51201 -0.07259,4.46017c-0.1843,1.58797 -0.62438,1.61496 -0.9197,2.92743c-0.49555,2.20227 -1.15619,4.22771 -1.89782,5.04634c-0.95847,1.05802 -2.21882,0.14479 -3.17699,0.08212c-0.97599,-0.06385 -3.60839,-0.31451 -4.52428,-1.70701c-0.62694,-0.95319 0.31331,-4.44186 -0.12412,-6.06756c-0.36856,-1.36975 -1.13693,-2.04737 -1.11037,-4.25556c0.00935,-0.77761 0.94419,-3.51687 1.00072,-4.38105c0.04683,-0.71585 -0.64632,-1.09766 -0.50821,-1.88154c0.29592,-1.67962 1.52505,-3.81516 1.74236,-5.25808c0.25935,-1.72218 -0.02233,-2.80234 0.79518,-4.48836c0.49291,-1.01658 2.17652,-2.9805 2.7773,-3.80703c1.34296,-1.84759 1.58637,-3.22881 2.96226,-3.9219c1.58035,-0.79608 4.22214,-0.71257 4.49157,0.14072c0.24623,0.77978 1.10339,2.29479 1.11204,3.22333c0.01387,1.48711 -0.68407,3.06095 -1.45661,5.35748c-0.31259,0.92926 -0.27215,2.55024 -0.60905,3.75553c-0.35703,1.27733 -1.09459,2.15826 -1.54305,3.83246c-1.01992,3.80757 1.18831,5.00171 1.06134,6.94249z" fill="#a3a3a3"/><path d="M347.60402,160.97878c-0.4829,1.88757 -1.50213,3.25714 -2.27652,3.05902c-0.77439,-0.19812 -1.01068,-1.88889 -0.52778,-3.77645c0.4829,-1.88757 1.50214,-3.25715 2.27653,-3.05902c0.77439,0.19812 1.01068,1.8889 0.52778,3.77646z" fill="#0d0d0d"/></g><path d="M351.27497,162.13151c-0.62916,2.07392 -5.20615,1.39236 -5.97892,-0.46838c-0.1268,-0.30533 -0.01049,-0.977 0.09275,-1.31731c0.14394,-0.47445 0.53322,-1.17887 0.98589,-1.35601c1.85073,-0.72424 5.48874,1.20194 4.90027,3.14171z" fill="#2f323e"/><path d="M373.58083,179.14246c0.00272,0.39514 -6.99165,3.24619 -13.99991,3.29397c-6.99754,0.04772 -14.00898,-2.70722 -14.01169,-3.10175c-0.00269,-0.39319 6.95856,1.96723 13.93217,1.91773c7.03191,-0.0499 14.0767,-2.50644 14.07941,-2.10995z" fill="#686e88"/><path d="M373.4774,178.9458c0.00751,1.09609 -1.35414,13.25842 -13.96011,13.34493c-12.60596,0.0865 -14.04815,-12.6686 -14.05568,-13.7647c-0.00751,-1.09609 1.42248,9.8819 14.02845,9.79539c12.60596,-0.0865 13.97982,-10.47171 13.98734,-9.37561z" fill="#dadada"/><path d="M358.03459,186.53935l-0.05343,-7.78711l2.92324,-0.02005l0.05344,7.78712z" fill="#24262f"/><path d="M344.30266,170.01107c-0.05739,-8.36372 6.67622,-15.19037 15.03993,-15.24778c8.36371,-0.0574 15.19038,6.67622 15.24777,15.03993c0.0574,8.36372 -30.2303,8.57155 -30.28769,0.20783z" fill="#dadada"/><path d="M347.25395,168.60347c-0.02469,-3.59745 2.87161,-6.53376 6.46904,-6.55844c3.59745,-0.02468 6.53376,2.8716 6.55843,6.46904c0.02469,3.59745 -2.87161,6.53376 -6.46905,6.55844c-3.59745,0.02468 -6.53375,-2.87161 -6.55843,-6.46904z" fill="#000000"/><path d="M357.85479,168.78494c-0.02469,-3.59745 2.8716,-6.53375 6.46904,-6.55843c3.59745,-0.02468 6.53375,2.8716 6.55843,6.46904c0.02469,3.59745 -2.8716,6.53375 -6.46904,6.55844c-3.59745,0.02468 -6.53375,-2.8716 -6.55843,-6.46904z" fill="#000000"/><path d="M376.73092,171.51869c-0.01327,2.15507 -4.73676,8.29613 -17.44529,8.38334c-12.70853,0.08721 -17.05804,-6.33592 -17.10201,-8.49059c-0.13628,-6.67717 4.33992,0.77363 17.04845,0.68642c12.70853,-0.08721 17.54163,-7.52896 17.49887,-0.57918z" fill="#ababab"/><path d="M354.54248,173.69293c-0.03908,-5.69507 2.80519,-18.92516 4.5287,-18.93699c1.7235,-0.01183 5.28372,11.99835 5.3228,17.69342c0.03908,5.69507 -9.81241,6.93864 -9.8515,1.24358z" fill="#ababab"/><path d="M364.75259,171.79509c0.00289,0.42117 -2.30356,5.41771 -5.26925,5.43807c-2.96569,0.02035 -5.46758,-4.94318 -5.47048,-5.36436c-0.00289,-0.42116 10.73683,-0.49487 10.73972,-0.07371z" fill="#1d1d1d"/><g><path d="M370.74647,141.62353c0.01299,1.89212 -5.1316,3.46136 -11.49076,3.505c-6.35915,0.04365 -11.52479,-1.45485 -11.53778,-3.34697c-0.00214,-0.31297 0.12366,-1.23894 1.17392,-1.45558c4.0573,-0.83697 15.4241,-0.8389 20.19763,0.04688c1.46111,0.27112 1.65443,0.8806 1.65697,1.25067z" fill="#101010"/><path d="M370.62721,141.90215c0.02791,4.0672 -0.43874,10.60168 -4.71482,13.35417c-3.03592,1.9542 -9.55205,0.81872 -12.192,0.83682c-6.3583,0.04364 -6.0709,-7.07817 -6.11864,-14.03299c-0.01719,-2.50368 1.86139,-0.20359 5.67611,-0.93087c3.19408,-0.60895 7.66316,0.72692 10.82251,0.03467c3.54886,-0.77761 6.51067,-1.61659 6.52683,0.7382z" fill="#0d0d0d"/></g><g><path d="M373.89336,154.16205c0.00304,0.4434 -6.51276,0.84755 -14.55344,0.90273c-8.04067,0.05517 -14.56141,-0.25952 -14.56445,-0.70292c-0.00304,-0.4434 6.51276,-0.84755 14.55344,-0.90273c8.04067,-0.05517 14.56141,0.25952 14.56445,0.70291z" fill="#101010"/><path d="M373.7406,154.22819c0.00654,0.95308 -0.62968,2.48796 -6.05573,3.16331c-3.85236,0.47949 -12.08318,0.25941 -15.42122,0.28232c-8.03962,0.05517 -7.62588,-1.61608 -7.63708,-3.24584c-0.00402,-0.58669 3.47705,0.35923 8.30545,0.16182c4.04284,-0.16531 9.19524,0.2492 13.19476,0.06462c4.4926,-0.20734 7.61,-0.97804 7.61381,-0.42623z" fill="#0d0d0d"/></g><path d="M369.91694,151.85838c0.00248,0.3596 0.28227,1.48111 -0.5984,1.78112c-0.7459,0.2541 -1.94045,0.20851 -3.35866,0.3399c-1.45392,0.13471 -3.14301,0.44289 -4.83185,0.41844c-0.85268,-0.01235 -1.50055,-0.41538 -2.35738,-0.40949c-1.29324,0.00887 -2.80661,0.29744 -4.28621,0.23874c-1.285,-0.05098 -2.54511,-0.44833 -3.60627,-0.46539c-1.31809,-0.0212 -2.10996,0.24176 -2.84826,0.05046c-1.24488,-0.32256 -0.43075,-1.36782 -0.43373,-1.8006c-0.00248,-0.36287 -0.44043,-1.68252 0.45524,-1.9845c0.82981,-0.27976 2.27986,-0.69822 3.97054,-0.60846c1.23217,0.06543 2.59359,0.60791 3.92886,0.6523c1.03543,0.03441 1.75899,-0.1822 2.79163,-0.18929c1.0345,-0.0071 2.04425,0.26181 3.16702,0.16411c1.3217,-0.11499 2.66667,-0.61488 3.89476,-0.78584c1.72471,-0.2401 3.21695,-0.11779 4.07335,0.12353c1.10223,0.31057 0.03654,2.06999 0.03932,2.47498z" fill="#801d1d"/></g><text transform="translate(340.91101,207.0298) scale(0.29415,0.29415)" font-size="40" xml:space="preserve" fill="#000000" fill-rule="nonzero" stroke="none" stroke-width="1" stroke-linecap="butt" stroke-linejoin="miter" stroke-miterlimit="10" stroke-dasharray="" stroke-dashoffset="0" font-family="&quot;GovtAgentBB&quot;, Serif" font-weight="normal" text-anchor="start" style="mix-blend-mode: normal"><tspan x="0" dy="0">Clutch</tspan></text></g></g></svg>