<svg version="1.1" xmlns="http://www.w3.org/2000/svg" xmlns:xlink="http://www.w3.org/1999/xlink" width="758.25826" height="394.76081" viewBox="0,0,758.25826,394.76081"><defs><radialGradient cx="359.99999" cy="82.0923" r="52.55255" gradientUnits="userSpaceOnUse" id="color-1"><stop offset="0" stop-color="#ffffff" stop-opacity="0.48627"/><stop offset="1" stop-color="#ffffff" stop-opacity="0"/></radialGradient><radialGradient cx="359.51663" cy="77.13711" r="246.02951" gradientUnits="userSpaceOnUse" id="color-2"><stop offset="0" stop-color="#ffffff" stop-opacity="0.48627"/><stop offset="1" stop-color="#ffffff" stop-opacity="0"/></radialGradient><linearGradient x1="-16.79205" y1="181.05807" x2="144.03904" y2="181.05807" gradientUnits="userSpaceOnUse" id="color-3"><stop offset="0" stop-color="#000000"/><stop offset="1" stop-color="#000000" stop-opacity="0"/></linearGradient><linearGradient x1="739.12913" y1="177.81482" x2="578.29805" y2="177.81482" gradientUnits="userSpaceOnUse" id="color-4"><stop offset="0" stop-color="#000000"/><stop offset="1" stop-color="#000000" stop-opacity="0"/></linearGradient><linearGradient x1="360.25526" y1="-17.14013" x2="360.25526" y2="110.4875" gradientUnits="userSpaceOnUse" id="color-5"><stop offset="0" stop-color="#000000"/><stop offset="1" stop-color="#000000" stop-opacity="0"/></linearGradient><linearGradient x1="359.24925" y1="377.38044" x2="359.24925" y2="249.75281" gradientUnits="userSpaceOnUse" id="color-6"><stop offset="0" stop-color="#000000"/><stop offset="1" stop-color="#000000" stop-opacity="0"/></linearGradient></defs><g transform="translate(19.12913,17.38038)"><g data-paper-data="{&quot;isPaintingLayer&quot;:true}" fill-rule="nonzero" stroke-linejoin="miter" stroke-miterlimit="10" stroke-dasharray="" stroke-dashoffset="0" style="mix-blend-mode: normal"><path d="M-13,153.00001v-160.3741h746v160.3741z" data-paper-data="{&quot;index&quot;:null}" fill="#323232" stroke="#000000" stroke-width="0" stroke-linecap="butt"/><path d="M-12.41291,360.00003v-160.3741h746v160.3741z" data-paper-data="{&quot;index&quot;:null}" fill="#323232" stroke="#000000" stroke-width="0" stroke-linecap="butt"/><path d="M296,244.00003v-128h128v128z" data-paper-data="{&quot;index&quot;:null}" fill="#212121" stroke="#000000" stroke-width="0" stroke-linecap="butt"/><path d="M0,360.00003v-360l296.5015,116l-0.5015,128.5z" data-paper-data="{&quot;index&quot;:null}" fill="#000000" stroke="none" stroke-width="0" stroke-linecap="butt"/><path d="M720,0.00003v360l-295,-116l-1,-128.5z" data-paper-data="{&quot;index&quot;:null}" fill="#505050" stroke="none" stroke-width="0" stroke-linecap="butt"/><path d="M325.25867,70.06298c0,-6.18292 15.55422,-11.19516 34.74133,-11.19516c19.18711,0 34.74133,5.01224 34.74133,11.19516c0,6.18292 -16.03674,16.69516 -35.22385,16.69516c-19.18711,0 -34.25881,-10.51224 -34.25881,-16.69516z" data-paper-data="{&quot;index&quot;:null}" fill="#181818" stroke="#000000" stroke-width="0" stroke-linecap="butt"/><path d="M331.45445,76.0534c0,-5.08025 12.78028,-9.19861 28.54555,-9.19861c15.76528,0 28.54555,4.11836 28.54555,9.19861c0,5.08025 -13.17675,13.71774 -28.94202,13.71774c-15.76528,0 -28.14908,-8.63749 -28.14908,-13.71774z" data-paper-data="{&quot;index&quot;:null}" fill="#ffffff" stroke="#000000" stroke-width="0" stroke-linecap="butt"/><g data-paper-data="{&quot;index&quot;:null}" fill="none" stroke="#6b6b6b" stroke-width="7.5" stroke-linecap="round"><path d="M-3.4009,306.9436l303.3033,-111.11111"/><path d="M273.79355,209.31298v44"/><path d="M174.79355,242.31298v50"/><path d="M63.79355,336.31298v-53"/></g><path d="M322,244.00003v-112.5h76v112.5z" data-paper-data="{&quot;index&quot;:null}" fill="#494949" stroke="none" stroke-width="0" stroke-linecap="butt"/><path d="M325.71556,238.50003v-101.5h68.56889v101.5z" data-paper-data="{&quot;index&quot;:null}" fill="#868686" stroke="none" stroke-width="0" stroke-linecap="butt"/><path d="M328.33333,170.6023v-19.66667h63.33333v19.66667z" data-paper-data="{&quot;index&quot;:null}" fill="#717171" stroke="none" stroke-width="0" stroke-linecap="butt"/><text transform="translate(329.91842,164.81676) scale(0.35084,0.35084)" font-size="40" xml:space="preserve" data-paper-data="{&quot;index&quot;:null}" fill="#000000" fill-rule="nonzero" stroke="#000000" stroke-width="2" stroke-linecap="butt" stroke-linejoin="miter" stroke-miterlimit="10" stroke-dasharray="" stroke-dashoffset="0" font-family="&quot;Agency FB&quot;, Handwriting" font-weight="normal" text-anchor="start" style="mix-blend-mode: normal"><tspan x="0" dy="0">Control Room</tspan></text><path d="M388.46021,197.31298c-4.51033,0 -8.16667,-0.85812 -8.16667,-1.91667c0,-1.05855 3.65634,-1.91667 8.16667,-1.91667c4.51033,0 4.51033,3.83333 0,3.83333z" data-paper-data="{&quot;index&quot;:null}" fill="#494949" stroke="none" stroke-width="0" stroke-linecap="butt"/><g data-paper-data="{&quot;index&quot;:null}" stroke="none" stroke-width="0" stroke-linecap="butt"><path d="M307.44744,82.0923c0,-29.02397 23.52858,-52.55255 52.55255,-52.55255c29.02398,0 52.55255,23.52858 52.55255,52.55255c0,29.02398 -23.52858,52.55256 -52.55255,52.55256c-29.02398,0 -52.55255,-23.52858 -52.55255,-52.55256z" fill="url(#color-1)"/><path d="M113.97049,314.08872c0,0 131.48164,-204.85145 219.57717,-241.80555c8.82848,-3.70335 17.72123,-4.74059 25.50226,-4.74059c8.52859,0 20.32101,-0.03323 30.13972,4.40776c88.52792,40.04108 216.83986,244.07182 216.83986,244.07182z" fill="url(#color-2)"/></g><g data-paper-data="{&quot;index&quot;:null}" stroke-linecap="butt"><g><path d="M273.89518,126.21132l-8.92919,-30.33115l10.11039,-2.97639l8.92919,30.33115z" fill="#0d0d0d" stroke="none" stroke-width="0"/><path d="M250.72174,91.29741c0,-3.61164 9.08571,-6.53944 20.2935,-6.53944c11.20779,0 20.2935,2.92781 20.2935,6.53944c0,3.61164 -9.36756,9.75216 -20.57535,9.75216c-11.20779,0 -20.01164,-6.14053 -20.01164,-9.75216z" fill="#181818" stroke="#000000" stroke-width="0"/><path d="M251.72038,141.7467l27.06817,-32.18918l10.72973,9.02272l-27.06817,32.18918z" fill="#181818" stroke="none" stroke-width="0"/><path d="M251.61831,158.68268v-25.70177l18.88691,-13.62973l-1.36297,39.3315z" fill="#0d0d0d" stroke="none" stroke-width="0"/><path d="M262.52209,133.17561c0,-1.61303 1.30762,-2.92066 2.92066,-2.92066c1.61303,0 2.92066,1.30762 2.92066,2.92066c0,1.61303 -1.30762,2.92066 -2.92066,2.92066c-1.61303,0 -2.92066,-1.30762 -2.92066,-2.92066z" fill="#000000" stroke="none" stroke-width="0.5"/><path d="M275.56769,120.13004c0,-1.61303 1.30762,-2.92066 2.92066,-2.92066c1.61303,0 2.92066,1.30762 2.92066,2.92066c0,1.61303 -1.30762,2.92066 -2.92066,2.92066c-1.61303,0 -2.92066,-1.30762 -2.92066,-2.92066z" fill="#000000" stroke="none" stroke-width="0.5"/><path d="M268.94754,97.34892c0,-1.61303 1.30762,-2.92066 2.92066,-2.92066c1.61303,0 2.92066,1.30762 2.92066,2.92066c0,1.61303 -1.30762,2.92066 -2.92066,2.92066c-1.61303,0 -2.92066,-1.30762 -2.92066,-2.92066z" fill="#000000" stroke="none" stroke-width="0.5"/></g><g stroke="#000000" stroke-width="0"><path d="M246.54491,127.63941c3.71338,-1.22607 9.80806,7.12168 13.61285,18.64522c3.80479,11.52354 3.87889,21.85913 0.1655,23.0852c-3.71338,1.22607 -13.20698,-6.32083 -17.01176,-17.84437c-3.80479,-11.52354 -0.47997,-22.65998 3.23341,-23.88605z" fill="#181818"/><path d="M244.17575,132.54842c3.05113,-1.00741 8.05889,5.8516 11.18513,15.32002c3.12624,9.46843 3.18712,17.96077 0.13599,18.96818c-3.05113,1.00741 -10.85164,-5.19357 -13.97788,-14.662c-3.12624,-9.46843 -0.39437,-18.61879 2.65676,-19.6262z" fill="#404040"/></g></g><g data-paper-data="{&quot;index&quot;:null}" stroke-linecap="butt"><g><path d="M198.81414,105.04287l-12.12395,-41.1833l13.72777,-4.04132l12.12395,41.1833z" fill="#0d0d0d" stroke="none" stroke-width="0"/><path d="M167.3495,57.63715c0,-4.90384 12.33647,-8.87918 27.55428,-8.87918c15.21781,0 27.55428,3.97534 27.55428,8.87918c0,4.90384 -12.71917,13.24138 -27.93698,13.24138c-15.21781,0 -27.17158,-8.33754 -27.17158,-13.24138z" fill="#181818" stroke="#000000" stroke-width="0"/><path d="M168.70543,126.13666l36.75286,-43.7061l14.56871,12.25096l-36.75287,43.7061z" fill="#181818" stroke="none" stroke-width="0"/><path d="M168.56685,149.13214v-34.89758l25.64444,-18.5063l-1.85063,53.40388z" fill="#0d0d0d" stroke="none" stroke-width="0"/><path d="M183.37188,114.49894c0,-2.19016 1.77547,-3.96563 3.96563,-3.96563c2.19016,0 3.96563,1.77547 3.96563,3.96563c0,2.19016 -1.77547,3.96563 -3.96563,3.96563c-2.19016,0 -3.96563,-1.77547 -3.96563,-3.96563z" fill="#000000" stroke="none" stroke-width="0.5"/><path d="M201.08505,96.78577c0,-2.19016 1.77548,-3.96564 3.96564,-3.96564c2.19016,0 3.96563,1.77548 3.96563,3.96564c0,2.19016 -1.77547,3.96563 -3.96563,3.96563c-2.19016,0 -3.96564,-1.77547 -3.96564,-3.96563z" fill="#000000" stroke="none" stroke-width="0.5"/><path d="M192.09628,65.85381c0,-2.19016 1.77547,-3.96563 3.96563,-3.96563c2.19016,0 3.96563,1.77547 3.96563,3.96563c0,2.19016 -1.77547,3.96563 -3.96563,3.96563c-2.19016,0 -3.96563,-1.77547 -3.96563,-3.96563z" fill="#000000" stroke="none" stroke-width="0.5"/></g><g stroke="#000000" stroke-width="0"><path d="M161.67823,106.98192c5.04199,-1.66474 13.31727,9.66973 18.48338,25.31626c5.1661,15.64653 5.26671,29.68008 0.22472,31.34483c-5.04199,1.66474 -17.93228,-8.58235 -23.09838,-24.22889c-5.1661,-15.64653 -0.6517,-30.76746 4.39029,-32.43221z" fill="#181818"/><path d="M158.46142,113.6473c4.1428,-1.36785 10.94227,7.94524 15.18704,20.80136c4.24477,12.85613 4.32744,24.38693 0.18465,25.75478c-4.1428,1.36785 -14.73424,-7.05178 -18.97901,-19.9079c-4.24477,-12.85613 -0.53548,-25.28039 3.60732,-26.64824z" fill="#404040"/></g></g><g data-paper-data="{&quot;index&quot;:null}" stroke-linecap="butt"><g><path d="M116.28367,85.98414l-16.39183,-55.6807l18.56023,-5.46394l16.39183,55.68069z" fill="#0d0d0d" stroke="none" stroke-width="0"/><path d="M73.74282,21.89061c0,-6.63009 16.67916,-12.00483 37.25396,-12.00483c20.5748,0 37.25397,5.37474 37.25397,12.00483c0,6.63009 -17.19659,17.90263 -37.77139,17.90263c-20.5748,0 -36.73654,-11.27254 -36.73654,-17.90263z" fill="#181818" stroke="#000000" stroke-width="0"/><path d="M75.57606,114.50339l49.69064,-59.09157l19.69719,16.56355l-49.69064,59.09157z" fill="#181818" stroke="none" stroke-width="0"/><path d="M75.3887,145.59376v-47.18227l34.67181,-25.02089l-2.50208,72.20317z" fill="#0d0d0d" stroke="none" stroke-width="0"/><path d="M95.40541,98.76894c0,-2.96115 2.40048,-5.36162 5.36162,-5.36162c2.96115,0 5.36161,2.40048 5.36161,5.36162c0,2.96115 -2.40047,5.36162 -5.36161,5.36162c-2.96115,0 -5.36162,-2.40048 -5.36162,-5.36162z" fill="#000000" stroke="none" stroke-width="0.5"/><path d="M119.35398,74.82037c0,-2.96115 2.40048,-5.36163 5.36163,-5.36163c2.96115,0 5.36162,2.40048 5.36162,5.36163c0,2.96115 -2.40048,5.36162 -5.36162,5.36162c-2.96115,0 -5.36163,-2.40048 -5.36163,-5.36162z" fill="#000000" stroke="none" stroke-width="0.5"/><path d="M107.20098,32.99972c0,-2.96115 2.40048,-5.36161 5.36162,-5.36161c2.96115,0 5.36161,2.40047 5.36161,5.36161c0,2.96115 -2.40047,5.36162 -5.36161,5.36162c-2.96115,0 -5.36162,-2.40048 -5.36162,-5.36162z" fill="#000000" stroke="none" stroke-width="0.5"/></g><g stroke="#000000" stroke-width="0"><path d="M66.07515,88.60578c6.81688,-2.25077 18.00523,13.07368 24.98991,34.22812c6.98468,21.15444 7.12071,40.1281 0.30383,42.37887c-6.81688,2.25077 -24.24482,-11.60352 -31.2295,-32.75796c-6.98468,-21.15444 -0.88112,-41.59826 5.93576,-43.84903z" fill="#181818"/><path d="M61.72595,97.61752c5.60115,-1.84936 14.79418,10.74213 20.5332,28.12387c5.73902,17.38176 5.8508,32.97163 0.24965,34.821c-5.60115,1.84936 -19.92099,-9.53415 -25.66002,-26.9159c-5.73902,-17.38176 -0.72398,-34.1796 4.87717,-36.02897z" fill="#404040"/></g></g><g data-paper-data="{&quot;index&quot;:null}" stroke="none" stroke-linecap="butt"><g fill="none" stroke-width="1" font-family="sans-serif" font-weight="normal" font-size="12" text-anchor="start"/><g stroke-width="0"><path d="M-16.79205,376.25326v-390.39039h160.83109v390.39039z" fill="url(#color-3)"/><path d="M578.29805,373.01001v-390.39039h160.83108v390.39039z" data-paper-data="{&quot;index&quot;:null}" fill="url(#color-4)"/><path d="M-18.12312,110.4875v-127.62762h756.75676v127.62763z" fill="url(#color-5)"/><path d="M737.62763,249.75281v127.62762h-756.75676v-127.62762z" data-paper-data="{&quot;index&quot;:null}" fill="url(#color-6)"/></g></g></g></g></svg>