<svg version="1.1" xmlns="http://www.w3.org/2000/svg" xmlns:xlink="http://www.w3.org/1999/xlink" width="777.77778" height="427.74842" viewBox="0,0,777.77778,427.74842"><defs><linearGradient x1="359.88662" y1="107.49966" x2="359.88662" y2="155.15699" gradientUnits="userSpaceOnUse" id="color-1"><stop offset="0" stop-color="#0c0626"/><stop offset="1" stop-color="#000000"/></linearGradient><linearGradient x1="360.1134" y1="204.84301" x2="360.1134" y2="252.50034" gradientUnits="userSpaceOnUse" id="color-2"><stop offset="0" stop-color="#000000"/><stop offset="1" stop-color="#0c0626"/></linearGradient><linearGradient x1="220.8247" y1="179.87911" x2="335.1645" y2="179.87911" gradientUnits="userSpaceOnUse" id="color-3"><stop offset="0" stop-color="#190d4f"/><stop offset="1" stop-color="#000000"/></linearGradient><linearGradient x1="384.60874" y1="179.87911" x2="498.94854" y2="179.87911" gradientUnits="userSpaceOnUse" id="color-4"><stop offset="0" stop-color="#000000"/><stop offset="1" stop-color="#190d4f"/></linearGradient><linearGradient x1="-26.49166" y1="181.14646" x2="138.47964" y2="181.14646" gradientUnits="userSpaceOnUse" id="color-5"><stop offset="0" stop-color="#000000"/><stop offset="1" stop-color="#000000" stop-opacity="0"/></linearGradient><linearGradient x1="748.88889" y1="177.63219" x2="583.9176" y2="177.63219" gradientUnits="userSpaceOnUse" id="color-6"><stop offset="0" stop-color="#000000"/><stop offset="1" stop-color="#000000" stop-opacity="0"/></linearGradient><linearGradient x1="360.26181" y1="-33.61388" x2="360.26181" y2="104.67877" gradientUnits="userSpaceOnUse" id="color-7"><stop offset="0" stop-color="#000000"/><stop offset="1" stop-color="#000000" stop-opacity="0"/></linearGradient><linearGradient x1="359.22991" y1="393.87422" x2="359.22991" y2="255.58157" gradientUnits="userSpaceOnUse" id="color-8"><stop offset="0" stop-color="#000000"/><stop offset="1" stop-color="#000000" stop-opacity="0"/></linearGradient></defs><g transform="translate(28.88889,33.87421)"><g stroke-miterlimit="10"><path d="M320.96097,217.53754v-75.07508h78.07808v75.07508z" fill="#000000" stroke="#000000" stroke-width="0"/><path d="M215.80302,155.15699v-47.65733h288.1672v47.65733z" fill="url(#color-1)" stroke="#000000" stroke-width="0"/><path d="M216.0298,252.50034v-47.65733h288.1672v47.65733z" fill="url(#color-2)" stroke="#000000" stroke-width="0"/><path d="M220.8247,249.41007v-139.06192l113.95352,44.80884l0.38628,49.63738z" fill="url(#color-3)" stroke="none" stroke-width="0"/><path d="M498.94854,110.34815v139.06192l-113.95352,-44.80884l-0.38628,-49.63738z" fill="url(#color-4)" stroke="none" stroke-width="0"/><path d="M-13.29353,115.68705v-123.3741h746v123.3741z" fill="#0c0626" stroke="#000000" stroke-width="0"/><path d="M-12.70644,367.68705v-123.3741h746v123.3741z" fill="#0c0626" stroke="#000000" stroke-width="0"/><path d="M-12.70644,244.31295v-128.6259h239.70645v128.6259z" fill="#190d4f" stroke="#424242" stroke-width="0"/><path d="M497.5,244.19206v-128.6259h239.70645v128.6259z" fill="#190d4f" stroke="#424242" stroke-width="0"/><g fill="#0c0c0c" stroke="#424242" stroke-width="0"><g><path d="M136.70645,87c0,7.45584 -20.37104,13.5 -45.5,13.5c-25.12896,0 -45.5,-6.04416 -45.5,-13.5c0,-7.45584 20.37104,-13.5 45.5,-13.5c25.12896,0 45.5,6.04416 45.5,13.5z"/><path d="M662.85322,87c0,7.45584 -20.37104,13.5 -45.5,13.5c-25.12896,0 -45.5,-6.04416 -45.5,-13.5c0,-7.45584 20.37104,-13.5 45.5,-13.5c25.12896,0 45.5,6.04416 45.5,13.5z"/></g><g><path d="M136.70645,276c0,7.45585 -20.37104,13.5 -45.5,13.5c-25.12896,0 -45.5,-6.04415 -45.5,-13.5c0,-7.45585 20.37104,-13.5 45.5,-13.5c25.12896,0 45.5,6.04415 45.5,13.5z"/><path d="M662.85322,276c0,7.45585 -20.37104,13.5 -45.5,13.5c-25.12896,0 -45.5,-6.04415 -45.5,-13.5c0,-7.45585 20.37104,-13.5 45.5,-13.5c25.12896,0 45.5,6.04415 45.5,13.5z"/></g><path d="M45.70645,276v-189h91v189z"/><path d="M571.85322,274.37911v-189h91v189z"/></g><path d="M233.27278,284.97375c0.22376,-0.0713 0.33526,0.07178 0.33526,0.07178l0.10817,0.13881c0.30446,0.3907 0.61778,1.53952 0.89023,1.75462c0.21039,0.16609 0.76749,-0.01616 0.97425,0.15178c0.06717,0.05456 0.0535,0.63667 0.05348,0.73842c-0.00024,0.34898 0.05402,0.814 0.10213,1.32038c0.73196,-1.00025 1.3888,-2.01668 1.39314,-2.99691c0.01018,-2.17976 -0.80762,-4.79449 1.578,-6.53903c2.08223,-1.46851 7.55691,-1.02344 10.36231,-1.04863c3.40015,-0.00415 7.23216,-0.31822 10.5148,0.25591c3.54899,0.62072 6.53897,1.00876 10.2225,1.01868c3.51844,0.00948 6.94424,0.05776 10.41856,-0.30776c3.58376,-0.37704 6.68168,-0.96579 10.35067,-0.96895c1.61238,-0.00139 5.25342,-0.11612 6.56156,0.6174c0.82121,0.46048 1.11875,1.66018 1.91084,2.24633c0.56611,0.43336 2.20693,1.78297 2.54799,2.33859c0.60378,0.98361 0.03759,2.83251 0.03759,3.89524c0,2.23818 0,4.47637 0,6.71455c0,1.29132 0.74073,3.67503 -0.01876,4.85687c-0.36828,0.57309 -1.58326,0.82356 -1.93439,1.43173c-0.23757,0.39686 -0.48017,1.25782 -0.95334,1.55076c-1.69546,1.04965 -5.74007,0.9703 -7.88179,0.9591c-3.01354,1.18911 -6.64785,1.32144 -8.61285,3.17118c-1.82751,1.72031 -5.9189,3.0014 -8.97566,3.3867c-1.04594,0.13184 -2.4078,0.1569 -3.38424,0.42306c-2.44261,0.66581 -3.33192,1.82134 -6.1783,1.9093c-3.51825,0.10872 -6.76367,0.69769 -10.3743,0.70486c-3.52842,0.00701 -6.87973,0.64138 -10.40944,0.64413c-3.44239,0.00268 -6.75661,1.10464 -10.18364,1.39098c-3.48318,0.29103 -6.94629,0.54728 -10.44853,0.72281c-3.45145,0.17299 -7.01361,0.17913 -10.36215,0.74848c-3.31507,0.56366 -6.80337,1.41823 -10.217,1.6264c-3.45564,0.21074 -7.00716,0.59707 -10.4773,0.60942c-3.50045,0.01135 -7.00066,0.018 -10.50116,0.01837c-3.50001,0.00037 -7.00003,0.00053 -10.50004,0.00054c-3.51738,0.00001 -7.03642,0.01991 -10.55359,-0.0037c-1.08826,-0.3121 -3.44453,-0.6862 -4.22132,-1.25616c-1.10093,-0.80779 -1.24103,-2.8231 -1.30104,-3.82703c-0.01437,-1.86838 -1.06115,-5.28201 1.23854,-6.49155c2.84636,-1.49706 5.63523,-2.57158 9.23081,-3.15606c3.5005,-0.56902 6.84704,-0.62526 10.32792,-1.04256c3.52798,-0.42295 6.88684,-0.52376 10.47679,-0.526c3.56485,-0.0022 6.87976,-0.14183 10.40318,-0.49053c1.7113,-0.16936 1.78581,-0.82443 3.19596,-1.25379c2.02442,-0.61639 4.21718,0.17535 6.14944,-0.85978c1.53458,-0.81359 3.29961,-2.649 5.10009,-3.12995c0.87766,-0.23444 2.63826,-0.02488 3.59629,-0.0249c3.5,-0.00007 7.00001,-0.00007 10.50001,-0.00007c0.84143,0 2.1307,0.1603 2.92792,0.00679c1.06283,-0.20466 1.8487,-1.00702 2.91078,-1.23438c0.94758,-0.20285 2.57758,-0.47985 2.70269,-1.32841c0.24036,-1.19034 1.12861,-0.89319 1.91497,-1.70198c0.38282,-0.39374 0.49652,-1.05191 0.50085,-1.7605c-0.26621,0.37631 -0.50995,0.74804 -0.70022,1.11306c0,0 -0.07906,0.15167 -0.31623,0.10111c-0.23717,-0.05056 -0.15811,-0.20222 -0.15811,-0.20222c0.29,-0.55636 0.71268,-1.13277 1.14911,-1.71845c-0.05141,-0.7349 -0.16237,-1.44906 -0.16205,-1.91357c0.00004,-0.30145 -0.61955,-0.45462 -0.91626,-0.68886c-0.34781,-0.27458 -0.62247,-1.39396 -0.94922,-1.81326l-0.10817,-0.13881c0,0 -0.1115,-0.14309 0.11225,-0.21439z" fill-opacity="0.50196" fill="#0d0d0d" stroke="none" stroke-width="0.5"/><path d="M437.96081,269.84017c0.91537,1.32192 1.63481,2.73806 2.77175,4.00077c1.29568,1.439 3.00554,4.83223 5.88712,5.23694c1.64452,0.27199 2.33298,1.65616 3.82489,2.03463c1.32673,0.33657 3.92972,0.07878 5.42,0.18433c3.48398,0.24675 6.9579,0.50279 10.42825,0.81895c3.25212,0.29628 6.82812,1.53799 9.29527,2.99291c2.78341,1.65613 2.46658,3.8571 4.99734,5.61286c2.0705,1.43644 6.43353,2.17005 9.21224,2.99708c2.46948,0.75948 7.57756,0.16197 10.34967,0.17807c3.49906,0.02032 6.99848,0.01206 10.49768,0.01238c3.81341,0.00035 7.08339,-0.47104 9.90675,1.32628c2.52313,1.6062 6.0356,1.64319 9.49035,2.08281c3.51062,0.44672 5.96635,2.30944 9.49224,2.32668c3.75803,0.0197 6.80672,0.39782 10.21493,1.42765c1.04641,0.31618 4.09154,0.64702 4.75174,1.19457c1.13103,0.93804 -3.09514,1.99387 -4.14158,2.1004c-3.44858,0.33736 -6.99151,0.43643 -10.4656,0.64376c-3.09737,0.18484 -7.45855,0.11116 -10.24049,0.99166c-3.24453,1.02691 -6.42798,1.68376 -9.93693,2.24524c-3.51106,0.04665 -7.02071,0.0476 -10.53238,0.04888c-3.50005,0.00127 -7.00009,0.00096 -10.50014,0.001c-3.5,0.00004 -7,0.00001 -10.5,0.00001c-3.5,0 -7,0 -10.5,0c-3.5,0 -7,0 -10.5,0c-3.34642,0 -7.20935,-0.29634 -10.46519,-0.77969c-1.30336,-0.19349 -3.89867,-0.13293 -4.9821,-0.50503c-1.21713,-0.41802 -2.51268,-2.15123 -3.35512,-2.87148c-2.07309,-1.77242 -4.6127,-3.37097 -6.87638,-5.05342c-2.27925,-1.69402 -4.73555,-3.2471 -7.1874,-4.83808c-3.08134,-0.9781 -6.48242,-1.85292 -9.23846,-3.16981c-0.99463,-0.47526 -3.04477,-1.11659 -3.59044,-1.84892c-0.74098,-0.99445 -0.34632,-2.81502 -0.34863,-3.89585c-0.00407,-1.91014 0.88533,-4.88082 -0.81426,-6.45384c-2.02282,-1.87218 -4.38113,-3.40678 -6.89013,-5.01757c-0.8612,-0.7929 -2.44124,-1.73387 -3.04106,-2.5842c-0.66602,-0.94418 -0.25912,-2.5599 -0.26002,-3.57557c-0.00078,-0.87644 -0.19766,-2.88922 0.95978,-3.55248c0.40577,-0.23252 1.62548,-0.01372 1.95204,-0.23002c0.47105,-0.31199 0.87748,-1.10446 1.55497,-1.54528c2.69367,-1.73376 6.47214,-1.7177 9.99892,-1.71927c2.74696,-0.00123 8.28276,-0.65006 10.44269,0.42595c0.56124,0.28092 1.82588,0.45902 2.22326,0.81355c0.36588,0.32643 0.06114,0.93468 0.31742,1.29154c0.19946,0.27774 0.80681,0.4427 0.98718,0.7327c0.47158,0.75823 0.06322,2.12133 0.06327,2.93614c0.00006,0.95116 0.57236,2.58276 -0.67345,2.98281z" fill-opacity="0.50196" fill="#0d0d0d" stroke="none" stroke-width="0.5"/><path d="M-14.62462,380.27027v-40.54054h749.24925v40.54054z" fill="#000000" stroke="#424242" stroke-width="0"/><path d="M-14.62462,20.27027v-40.54054h749.24925v40.54054z" fill="#000000" stroke="#424242" stroke-width="0"/><path d="M228.95645,377.15733l-21,-46.36929l280,-1.28804l-18,47.65733z" fill="#140a41" stroke="#424242" stroke-width="0"/><g stroke-width="0"><g fill-opacity="0.67843" fill="#000000" stroke="#000000"><path d="M-16.34512,373.95896v-403.48913h743.89439v403.48913z"/></g><g stroke="none"><path d="M-26.49166,392.65285v-423.0128h164.97129v423.0128z" fill="url(#color-5)"/><path d="M583.9176,389.13859v-423.0128h164.97129v423.0128z" fill="url(#color-6)"/><path d="M-27.857,104.67877v-138.29264h776.23763v138.29265z" fill="url(#color-7)"/><path d="M747.34873,255.58157v138.29264h-776.23762v-138.29264z" fill="url(#color-8)"/></g></g></g></g></svg>