<svg version="1.1" xmlns="http://www.w3.org/2000/svg" xmlns:xlink="http://www.w3.org/1999/xlink" width="238.75193" height="436.93298" viewBox="0,0,238.75193,436.93298"><defs><linearGradient x1="468.05555" y1="183.99006" x2="467.99936" y2="206.4837" gradientUnits="userSpaceOnUse" id="color-1"><stop offset="0" stop-color="#484c5e"/><stop offset="1" stop-color="#212d30"/></linearGradient><linearGradient x1="449.177" y1="179.22578" x2="435.64505" y2="206.52182" gradientUnits="userSpaceOnUse" id="color-2"><stop offset="0" stop-color="#484c5e"/><stop offset="1" stop-color="#212d30"/></linearGradient><linearGradient x1="435.31516" y1="165.80219" x2="411.65844" y2="184.99977" gradientUnits="userSpaceOnUse" id="color-3"><stop offset="0" stop-color="#484c5e"/><stop offset="1" stop-color="#212d30"/></linearGradient><linearGradient x1="427.56484" y1="148.7135" x2="397.44366" y2="153.28522" gradientUnits="userSpaceOnUse" id="color-4"><stop offset="0" stop-color="#484c5e"/><stop offset="1" stop-color="#212d30"/></linearGradient><linearGradient x1="433.07184" y1="131.06386" x2="407.95204" y2="113.82489" gradientUnits="userSpaceOnUse" id="color-5"><stop offset="0" stop-color="#484c5e"/><stop offset="1" stop-color="#212d30"/></linearGradient><linearGradient x1="447.26059" y1="117.01632" x2="429.03959" y2="92.59946" gradientUnits="userSpaceOnUse" id="color-6"><stop offset="0" stop-color="#484c5e"/><stop offset="1" stop-color="#212d30"/></linearGradient><linearGradient x1="461.75334" y1="103.71544" x2="436.63352" y2="86.47648" gradientUnits="userSpaceOnUse" id="color-7"><stop offset="0" stop-color="#484c5e"/><stop offset="1" stop-color="#212d30"/></linearGradient><linearGradient x1="474.21638" y1="88.62344" x2="449.09659" y2="71.38447" gradientUnits="userSpaceOnUse" id="color-8"><stop offset="0" stop-color="#484c5e"/><stop offset="1" stop-color="#212d30"/></linearGradient><linearGradient x1="575.69358" y1="184.99006" x2="575.74977" y2="207.4837" gradientUnits="userSpaceOnUse" id="color-9"><stop offset="0" stop-color="#484c5e"/><stop offset="1" stop-color="#212d30"/></linearGradient><linearGradient x1="594.57212" y1="180.22578" x2="608.10408" y2="207.52182" gradientUnits="userSpaceOnUse" id="color-10"><stop offset="0" stop-color="#484c5e"/><stop offset="1" stop-color="#212d30"/></linearGradient><linearGradient x1="608.43397" y1="166.80219" x2="632.09068" y2="185.99976" gradientUnits="userSpaceOnUse" id="color-11"><stop offset="0" stop-color="#484c5e"/><stop offset="1" stop-color="#212d30"/></linearGradient><linearGradient x1="616.18428" y1="149.7135" x2="646.30547" y2="154.28522" gradientUnits="userSpaceOnUse" id="color-12"><stop offset="0" stop-color="#484c5e"/><stop offset="1" stop-color="#212d30"/></linearGradient><linearGradient x1="610.67728" y1="132.06386" x2="635.79708" y2="114.82489" gradientUnits="userSpaceOnUse" id="color-13"><stop offset="0" stop-color="#484c5e"/><stop offset="1" stop-color="#212d30"/></linearGradient><linearGradient x1="596.48853" y1="118.01632" x2="614.70954" y2="93.59946" gradientUnits="userSpaceOnUse" id="color-14"><stop offset="0" stop-color="#484c5e"/><stop offset="1" stop-color="#212d30"/></linearGradient><linearGradient x1="581.99578" y1="104.71544" x2="607.1156" y2="87.47648" gradientUnits="userSpaceOnUse" id="color-15"><stop offset="0" stop-color="#484c5e"/><stop offset="1" stop-color="#212d30"/></linearGradient><linearGradient x1="569.53274" y1="89.62344" x2="594.65253" y2="72.38446" gradientUnits="userSpaceOnUse" id="color-16"><stop offset="0" stop-color="#484c5e"/><stop offset="1" stop-color="#212d30"/></linearGradient><linearGradient x1="510.17518" y1="298.27217" x2="487.68149" y2="298.27217" gradientUnits="userSpaceOnUse" id="color-17"><stop offset="0" stop-color="#484c5e"/><stop offset="1" stop-color="#212d30"/></linearGradient><linearGradient x1="510.17518" y1="309.2292" x2="479.70902" y2="309.2292" gradientUnits="userSpaceOnUse" id="color-18"><stop offset="0" stop-color="#484c5e"/><stop offset="1" stop-color="#212d30"/></linearGradient><linearGradient x1="510.17518" y1="321.40461" x2="479.70902" y2="321.40461" gradientUnits="userSpaceOnUse" id="color-19"><stop offset="0" stop-color="#484c5e"/><stop offset="1" stop-color="#212d30"/></linearGradient><linearGradient x1="510.17518" y1="332.22721" x2="479.70902" y2="332.22721" gradientUnits="userSpaceOnUse" id="color-20"><stop offset="0" stop-color="#484c5e"/><stop offset="1" stop-color="#212d30"/></linearGradient><linearGradient x1="510.17518" y1="344.85359" x2="479.70902" y2="344.85359" gradientUnits="userSpaceOnUse" id="color-21"><stop offset="0" stop-color="#484c5e"/><stop offset="1" stop-color="#212d30"/></linearGradient><linearGradient x1="510.17518" y1="355.67619" x2="479.70902" y2="355.67619" gradientUnits="userSpaceOnUse" id="color-22"><stop offset="0" stop-color="#484c5e"/><stop offset="1" stop-color="#212d30"/></linearGradient><linearGradient x1="510.17518" y1="367.8516" x2="479.70902" y2="367.8516" gradientUnits="userSpaceOnUse" id="color-23"><stop offset="0" stop-color="#484c5e"/><stop offset="1" stop-color="#212d30"/></linearGradient><linearGradient x1="510.17518" y1="378.67422" x2="479.70902" y2="378.67422" gradientUnits="userSpaceOnUse" id="color-24"><stop offset="0" stop-color="#484c5e"/><stop offset="1" stop-color="#212d30"/></linearGradient><linearGradient x1="534.91356" y1="298.7231" x2="557.40725" y2="298.7231" gradientUnits="userSpaceOnUse" id="color-25"><stop offset="0" stop-color="#484c5e"/><stop offset="1" stop-color="#212d30"/></linearGradient><linearGradient x1="534.91356" y1="309.68012" x2="565.37973" y2="309.68012" gradientUnits="userSpaceOnUse" id="color-26"><stop offset="0" stop-color="#484c5e"/><stop offset="1" stop-color="#212d30"/></linearGradient><linearGradient x1="534.91356" y1="321.85555" x2="565.37973" y2="321.85555" gradientUnits="userSpaceOnUse" id="color-27"><stop offset="0" stop-color="#484c5e"/><stop offset="1" stop-color="#212d30"/></linearGradient><linearGradient x1="534.91356" y1="332.67816" x2="565.37973" y2="332.67816" gradientUnits="userSpaceOnUse" id="color-28"><stop offset="0" stop-color="#484c5e"/><stop offset="1" stop-color="#212d30"/></linearGradient><linearGradient x1="534.91356" y1="345.30455" x2="565.37973" y2="345.30455" gradientUnits="userSpaceOnUse" id="color-29"><stop offset="0" stop-color="#484c5e"/><stop offset="1" stop-color="#212d30"/></linearGradient><linearGradient x1="534.91356" y1="356.12711" x2="565.37973" y2="356.12711" gradientUnits="userSpaceOnUse" id="color-30"><stop offset="0" stop-color="#484c5e"/><stop offset="1" stop-color="#212d30"/></linearGradient><linearGradient x1="534.91356" y1="368.30256" x2="565.37973" y2="368.30256" gradientUnits="userSpaceOnUse" id="color-31"><stop offset="0" stop-color="#484c5e"/><stop offset="1" stop-color="#212d30"/></linearGradient><linearGradient x1="534.91356" y1="379.12516" x2="565.37973" y2="379.12516" gradientUnits="userSpaceOnUse" id="color-32"><stop offset="0" stop-color="#484c5e"/><stop offset="1" stop-color="#212d30"/></linearGradient><linearGradient x1="470.97517" y1="185.2698" x2="571.00271" y2="185.2698" gradientUnits="userSpaceOnUse" id="color-33"><stop offset="0" stop-color="#484c5e"/><stop offset="1" stop-color="#212d30"/></linearGradient><linearGradient x1="461.37253" y1="56.77948" x2="580.60537" y2="56.77948" gradientUnits="userSpaceOnUse" id="color-34"><stop offset="0" stop-color="#484c5e"/><stop offset="1" stop-color="#212d30"/></linearGradient><linearGradient x1="529.89872" y1="77.32584" x2="515.92808" y2="77.32584" gradientUnits="userSpaceOnUse" id="color-35"><stop offset="0" stop-color="#484c5e"/><stop offset="1" stop-color="#212d30"/></linearGradient><linearGradient x1="529.89872" y1="94.70499" x2="510.97645" y2="94.70499" gradientUnits="userSpaceOnUse" id="color-36"><stop offset="0" stop-color="#484c5e"/><stop offset="1" stop-color="#212d30"/></linearGradient><linearGradient x1="529.89872" y1="114.01665" x2="510.97645" y2="114.01665" gradientUnits="userSpaceOnUse" id="color-37"><stop offset="0" stop-color="#484c5e"/><stop offset="1" stop-color="#212d30"/></linearGradient><linearGradient x1="529.89872" y1="131.18257" x2="510.97645" y2="131.18257" gradientUnits="userSpaceOnUse" id="color-38"><stop offset="0" stop-color="#484c5e"/><stop offset="1" stop-color="#212d30"/></linearGradient><linearGradient x1="529.89872" y1="151.20949" x2="510.97645" y2="151.20949" gradientUnits="userSpaceOnUse" id="color-39"><stop offset="0" stop-color="#484c5e"/><stop offset="1" stop-color="#212d30"/></linearGradient><linearGradient x1="529.89872" y1="168.3754" x2="510.97645" y2="168.3754" gradientUnits="userSpaceOnUse" id="color-40"><stop offset="0" stop-color="#484c5e"/><stop offset="1" stop-color="#212d30"/></linearGradient><linearGradient x1="529.89872" y1="187.68707" x2="510.97645" y2="187.68707" gradientUnits="userSpaceOnUse" id="color-41"><stop offset="0" stop-color="#484c5e"/><stop offset="1" stop-color="#212d30"/></linearGradient><linearGradient x1="529.89872" y1="204.85298" x2="510.97645" y2="204.85298" gradientUnits="userSpaceOnUse" id="color-42"><stop offset="0" stop-color="#484c5e"/><stop offset="1" stop-color="#212d30"/></linearGradient><linearGradient x1="494.19831" y1="115.20134" x2="548.63284" y2="115.20134" gradientUnits="userSpaceOnUse" id="color-43"><stop offset="0" stop-color="#484c5e"/><stop offset="1" stop-color="#212d30"/></linearGradient><linearGradient x1="572.76646" y1="93.80092" x2="539.524" y2="93.80092" gradientUnits="userSpaceOnUse" id="color-44"><stop offset="0" stop-color="#484c5e"/><stop offset="1" stop-color="#212d30"/></linearGradient><linearGradient x1="470.98269" y1="97.00703" x2="504.22515" y2="97.00703" gradientUnits="userSpaceOnUse" id="color-45"><stop offset="0" stop-color="#484c5e"/><stop offset="1" stop-color="#212d30"/></linearGradient><linearGradient x1="520.18508" y1="201.881" x2="520.18508" y2="276.09526" gradientUnits="userSpaceOnUse" id="color-46"><stop offset="0" stop-color="#484c5e"/><stop offset="1" stop-color="#212d30"/></linearGradient><linearGradient x1="493.54286" y1="205.42369" x2="493.54286" y2="222.91705" gradientUnits="userSpaceOnUse" id="color-47"><stop offset="0" stop-color="#484c5e"/><stop offset="1" stop-color="#212d30"/></linearGradient><linearGradient x1="549.52164" y1="205.42369" x2="549.52164" y2="222.91705" gradientUnits="userSpaceOnUse" id="color-48"><stop offset="0" stop-color="#484c5e"/><stop offset="1" stop-color="#212d30"/></linearGradient><linearGradient x1="533.99761" y1="392.0032" x2="596.01955" y2="392.0032" gradientUnits="userSpaceOnUse" id="color-49"><stop offset="0" stop-color="#484c5e"/><stop offset="1" stop-color="#212d30"/></linearGradient><linearGradient x1="511.73261" y1="392.26827" x2="449.71067" y2="392.26827" gradientUnits="userSpaceOnUse" id="color-50"><stop offset="0" stop-color="#484c5e"/><stop offset="1" stop-color="#212d30"/></linearGradient></defs><g transform="translate(-402.49859,32.33735)"><g stroke-miterlimit="10"><g><path d="M478.24287,205.88231c0,0 0.03288,-13.15614 0.04272,-17.09574c0.00521,-2.08119 -1.09419,-3.17038 -2.69907,-0.8481c-3.03373,4.38985 -7.84979,11.35873 -10.34601,14.97078c-2.98033,4.31258 -7.65901,4.8697 -7.47121,0.73938c0.25372,-5.58078 0.89485,-19.68203 0.89485,-19.68203" fill="none" stroke="url(#color-1)" stroke-width="3.25" stroke-linecap="round"/><path d="M458.5586,183.8767c0,0 -14.19782,7.91072 -20.06234,11.17833c-4.57938,2.55154 -9.0226,0.9837 -7.02885,-2.63842c2.6939,-4.89414 9.50071,-17.26037 9.50071,-17.26037" fill="none" stroke="url(#color-2)" stroke-width="3.25" stroke-linecap="round"/><path d="M441.91332,173.93296c0,0 -16.20159,1.29074 -22.8938,1.82391c-5.22566,0.41633 -8.61462,-2.85711 -5.29527,-5.32221c4.48502,-3.3308 15.81751,-11.7469 15.81751,-11.7469" fill="none" stroke="url(#color-3)" stroke-width="3.25" stroke-linecap="round"/><path d="M429.13613,159.0661c0,0 -14.62366,-7.09272 -20.66409,-10.02241c-4.7167,-2.28768 -5.98095,-6.82664 -1.87031,-7.27103c5.5542,-0.60047 19.58824,-2.11768 19.58824,-2.11768" fill="none" stroke="url(#color-4)" stroke-width="3.25" stroke-linecap="round"/><path d="M427.14684,139.69749c0,0 -5.83375,-15.16989 -8.24345,-21.43593c-1.88162,-4.89288 0.29597,-9.07121 3.60143,-6.58751c4.46627,3.3559 15.7514,11.83541 15.7514,11.83541" fill="none" stroke="url(#color-5)" stroke-width="3.25" stroke-linecap="round"/><path d="M438.86857,123.27885c0,0 -0.63172,-16.24066 -0.89267,-22.949c-0.20376,-5.23826 3.20461,-8.49149 5.53287,-5.07476c3.14593,4.61659 11.09485,16.28152 11.09485,16.28152" fill="none" stroke="url(#color-6)" stroke-width="3.25" stroke-linecap="round"/><path d="M455.82835,112.34905c0,0 -5.83375,-15.16987 -8.24344,-21.43591c-1.88162,-4.89289 0.29595,-9.07122 3.60141,-6.58752c4.46627,3.3559 15.7514,11.83541 15.7514,11.83541" fill="none" stroke="url(#color-7)" stroke-width="3.25" stroke-linecap="round"/><path d="M468.2914,97.25709c0,0 -5.83374,-15.16988 -8.24343,-21.43592c-1.88163,-4.8929 0.29595,-9.07124 3.60141,-6.58754c4.46627,3.3559 15.7514,11.8354 15.7514,11.8354" fill="none" stroke="url(#color-8)" stroke-width="3.25" stroke-linecap="round"/><path d="M513.20827,247.15314c-12.43432,12.2863 -27.34218,-10.84741 -32.70529,-16.55783c-4.06151,-4.32451 -27.80592,-1.73331 -25.56168,-8.68582c0.71923,-2.22809 24.62632,-14.50449 25.98458,-16.49355c2.07979,-3.04566 8.87809,-20.47651 11.51654,-21.73579c4.46159,-2.12939 4.95782,13.64731 8.32795,17.23567c1.5825,1.68496 14.84155,2.88844 13.9166,13.19536c-0.33233,3.70304 -2.19217,-2.36855 -6.58234,1.76075c-3.39596,3.19419 17.93916,18.59851 5.10365,31.28118z" fill="#0d0d0d" stroke="#000000" stroke-width="0" stroke-linecap="butt"/></g><g><path d="M585.08497,184.9666c0,0 0.64113,14.10124 0.89485,19.68203c0.18781,4.13032 -4.49087,3.57319 -7.47121,-0.73938c-2.49622,-3.61205 -7.31228,-10.58093 -10.34601,-14.97078c-1.60489,-2.32228 -2.70427,-1.23309 -2.69907,0.8481c0.00984,3.93961 0.04272,17.09574 0.04272,17.09574" fill="none" stroke="url(#color-9)" stroke-width="3.25" stroke-linecap="round"/><path d="M602.781,176.15624c0,0 6.80681,12.36624 9.50071,17.26038c1.99376,3.62212 -2.44947,5.18996 -7.02885,2.63842c-5.86452,-3.26761 -20.06234,-11.17834 -20.06234,-11.17834" fill="none" stroke="url(#color-10)" stroke-width="3.25" stroke-linecap="round"/><path d="M614.20736,159.68775c0,0 11.3325,8.4161 15.81751,11.7469c3.31935,2.4651 -0.06961,5.73854 -5.29527,5.32221c-6.69221,-0.53317 -22.8938,-1.82392 -22.8938,-1.82392" fill="none" stroke="url(#color-11)" stroke-width="3.25" stroke-linecap="round"/><path d="M617.55914,140.65498c0,0 14.03404,1.5172 19.58824,2.11768c4.11064,0.44438 2.84639,4.98334 -1.8703,7.27102c-6.04043,2.92969 -20.66409,10.02242 -20.66409,10.02242" fill="none" stroke="url(#color-12)" stroke-width="3.25" stroke-linecap="round"/><path d="M605.49291,124.50945c0,0 11.28513,-8.47951 15.7514,-11.83541c3.30546,-2.4837 5.48305,1.69464 3.60143,6.58752c-2.4097,6.26604 -8.24345,21.43593 -8.24345,21.43593" fill="none" stroke="url(#color-13)" stroke-width="3.25" stroke-linecap="round"/><path d="M589.14551,112.5366c0,0 7.94892,-11.66494 11.09484,-16.28152c2.32826,-3.41672 5.73663,-0.1635 5.53287,5.07476c-0.26095,6.70834 -0.89267,22.949 -0.89267,22.949" fill="none" stroke="url(#color-14)" stroke-width="3.25" stroke-linecap="round"/><path d="M576.81141,97.16103c0,0 11.28513,-8.47951 15.7514,-11.83541c3.30546,-2.4837 5.48304,1.69464 3.60141,6.58753c-2.4097,6.26604 -8.24344,21.43591 -8.24344,21.43591" fill="none" stroke="url(#color-15)" stroke-width="3.25" stroke-linecap="round"/><path d="M564.34835,82.06903c0,0 11.28512,-8.47951 15.75139,-11.83541c3.30546,-2.4837 5.48305,1.69464 3.60142,6.58755c-2.4097,6.26604 -8.24344,21.43591 -8.24344,21.43591" fill="none" stroke="url(#color-16)" stroke-width="3.25" stroke-linecap="round"/><path d="M530.54084,248.1531c-12.83551,-12.68266 8.4996,-28.08698 5.10364,-31.28117c-4.39017,-4.1293 -6.25002,1.94228 -6.58234,-1.76075c-0.92495,-10.30692 12.3341,-11.51041 13.9166,-13.19537c3.37012,-3.58835 3.86636,-19.36507 8.32795,-17.23567c2.63845,1.25928 9.43675,18.69014 11.51654,21.73579c1.35826,1.98906 25.26535,14.26546 25.98458,16.49355c2.24424,6.95251 -21.50018,4.3613 -25.56168,8.68582c-5.36311,5.71042 -20.27096,28.84413 -32.70528,16.55783z" fill="#0d0d0d" stroke="#000000" stroke-width="0" stroke-linecap="butt"/></g><g fill="none" stroke-width="3.25" stroke-linecap="round"><path d="M510.17518,303.7819c0,0 -14.10281,0.35547 -19.68421,0.49613c-4.13078,0.10412 -3.56197,-2.63992 0.75806,-4.3821c3.61829,-1.45918 10.59917,-4.27446 14.99657,-6.04783c2.32628,-0.93813 1.23983,-1.58471 -0.84134,-1.58471c-3.9396,0 -17.09578,0 -17.09578,0" stroke="url(#color-17)"/><path d="M510.17518,314.6045c0,0 -14.10281,0.35548 -19.68421,0.49614c-4.13078,0.10412 -3.56197,-2.63993 0.75806,-4.38211c5.53242,-2.23111 18.92615,-7.63256 18.92615,-7.63256" stroke="url(#color-18)"/><path d="M510.17518,326.77991c0,0 -14.10281,0.3555 -19.68421,0.49616c-4.13078,0.10412 -3.56197,-2.63995 0.75806,-4.38213c5.53242,-2.23111 18.92615,-7.63256 18.92615,-7.63256" stroke="url(#color-19)"/><path d="M510.17518,337.60251c0,0 -14.10281,0.35549 -19.68421,0.49615c-4.13078,0.10412 -3.56197,-2.63995 0.75806,-4.38213c5.53242,-2.23111 18.92615,-7.63256 18.92615,-7.63256" stroke="url(#color-20)"/><path d="M510.17518,350.2289c0,0 -14.10281,0.35547 -19.68421,0.49613c-4.13078,0.10412 -3.56197,-2.63995 0.75806,-4.38213c5.53242,-2.23111 18.92615,-7.63254 18.92615,-7.63254" stroke="url(#color-21)"/><path d="M510.17518,361.0515c0,0 -14.10281,0.35549 -19.68421,0.49615c-4.13078,0.10412 -3.56197,-2.63994 0.75806,-4.38212c5.53242,-2.23111 18.92615,-7.63254 18.92615,-7.63254" stroke="url(#color-22)"/><path d="M510.17518,373.22692c0,0 -14.10281,0.35549 -19.68421,0.49615c-4.13078,0.10412 -3.56197,-2.63994 0.75806,-4.38212c5.53242,-2.23111 18.92615,-7.63254 18.92615,-7.63254" stroke="url(#color-23)"/><path d="M510.17518,384.0495c0,0 -14.10281,0.35547 -19.68421,0.49613c-4.13078,0.10412 -3.56197,-2.63993 0.75806,-4.38211c5.53242,-2.23111 18.92615,-7.63256 18.92615,-7.63256" stroke="url(#color-24)"/></g><g fill="none" stroke-width="3.25" stroke-linecap="round"><path d="M556.78023,292.71432c0,0 -13.15617,0 -17.09578,0c-2.08117,0 -3.16762,0.6466 -0.84134,1.58474c4.39742,1.77339 11.37829,4.58863 14.99657,6.04783c4.32003,1.74218 4.88884,4.48623 0.75806,4.38213c-5.5814,-0.14066 -19.68421,-0.49616 -19.68421,-0.49616" stroke="url(#color-25)"/><path d="M534.91356,303.53692c0,0 13.39375,5.40145 18.92615,7.63257c4.32001,1.74218 4.88884,4.48622 0.75807,4.38212c-5.5814,-0.14066 -19.6842,-0.49615 -19.6842,-0.49615" stroke="url(#color-26)"/><path d="M534.91356,315.71235c0,0 13.39375,5.40145 18.92615,7.63256c4.32001,1.74218 4.88884,4.48623 0.75807,4.38213c-5.5814,-0.14066 -19.6842,-0.49615 -19.6842,-0.49615" stroke="url(#color-27)"/><path d="M534.91356,326.53495c0,0 13.39375,5.40145 18.92615,7.63256c4.32001,1.74218 4.88884,4.48623 0.75807,4.38213c-5.5814,-0.14066 -19.6842,-0.49615 -19.6842,-0.49615" stroke="url(#color-28)"/><path d="M534.91356,339.16131c0,0 13.39375,5.40145 18.92615,7.63257c4.32001,1.74218 4.88884,4.4862 0.75807,4.3821c-5.5814,-0.14066 -19.6842,-0.49613 -19.6842,-0.49613" stroke="url(#color-29)"/><path d="M534.91356,349.98391c0,0 13.39375,5.40145 18.92615,7.63257c4.32001,1.74218 4.88884,4.48621 0.75807,4.38211c-5.5814,-0.14066 -19.6842,-0.49613 -19.6842,-0.49613" stroke="url(#color-30)"/><path d="M534.91356,362.15934c0,0 13.39375,5.40145 18.92615,7.63257c4.32001,1.74218 4.88884,4.48621 0.75807,4.38211c-5.5814,-0.14066 -19.6842,-0.49614 -19.6842,-0.49614" stroke="url(#color-31)"/><path d="M534.91356,372.98194c0,0 13.39375,5.40145 18.92615,7.63257c4.32001,1.74218 4.88884,4.4862 0.75807,4.3821c-5.5814,-0.14066 -19.6842,-0.49613 -19.6842,-0.49613" stroke="url(#color-32)"/></g><path d="M571.00269,185.2698c0,1.28724 -14.59066,1.18051 -29.39053,-4.80579c-6.79562,-2.74872 -9.53058,-13.99937 -18.22257,-13.99937c-9.85148,0 -10.28615,10.93857 -18.09401,14.63156c-14.084,6.66149 -32.31986,7.78266 -32.31986,6.57427c0,-1.87829 20.39138,-64.41773 48.0132,-64.41773c27.62185,0 50.01377,60.13878 50.01377,62.01707z" fill="#4c1212" stroke="url(#color-33)" stroke-width="0" stroke-linecap="butt"/><path d="M580.60537,56.77948c0,1.3811 -23.89042,22.10609 -56.81564,22.10609c-32.92523,0 -59.81647,-17.72416 -59.81647,-19.10527c0,-0.68182 29.22574,2.2427 58.01058,1.49348c29.52189,-0.76841 58.62153,-5.19356 58.62153,-4.49431z" fill="#4c1212" stroke="url(#color-34)" stroke-width="0" stroke-linecap="butt"/><g fill="none" stroke-width="3.25" stroke-linecap="round"><path d="M529.89872,86.06495c0,0 -8.75914,0.56382 -12.22569,0.78695c-2.5656,0.16514 -2.2123,-4.18725 0.47082,-6.95054c2.24728,-2.31444 6.58305,-6.77976 9.31423,-9.59256c1.44483,-1.48802 0.77007,-2.51355 -0.52256,-2.51355c-2.44687,0 -10.61803,0 -10.61803,0" stroke="url(#color-35)"/><path d="M529.89872,103.23087c0,0 -8.75914,0.56381 -12.22569,0.78694c-2.5656,0.16513 -2.2123,-4.18725 0.47082,-6.95054c3.43613,-3.5388 11.75486,-12.10613 11.75486,-12.10613" stroke="url(#color-36)"/><path d="M529.89872,122.54254c0,0 -8.75914,0.56382 -12.22569,0.78695c-2.5656,0.16513 -2.2123,-4.18725 0.47082,-6.95054c3.43613,-3.5388 11.75486,-12.10613 11.75486,-12.10613" stroke="url(#color-37)"/><path d="M529.89872,139.70846c0,0 -8.75914,0.56381 -12.22569,0.78694c-2.5656,0.16512 -2.2123,-4.18725 0.47082,-6.95054c3.43613,-3.5388 11.75486,-12.10613 11.75486,-12.10613" stroke="url(#color-38)"/><path d="M529.89872,159.73535c0,0 -8.75914,0.56383 -12.22569,0.78696c-2.5656,0.16512 -2.2123,-4.18725 0.47082,-6.95054c3.43613,-3.5388 11.75486,-12.10613 11.75486,-12.10613" stroke="url(#color-39)"/><path d="M529.89872,176.90129c0,0 -8.75914,0.56381 -12.22569,0.78694c-2.5656,0.16512 -2.2123,-4.18725 0.47082,-6.95054c3.43613,-3.5388 11.75486,-12.10613 11.75486,-12.10613" stroke="url(#color-40)"/><path d="M529.89872,196.21295c0,0 -8.75914,0.56382 -12.22569,0.78695c-2.5656,0.16512 -2.2123,-4.18724 0.47082,-6.95054c3.43613,-3.5388 11.75486,-12.10613 11.75486,-12.10613" stroke="url(#color-41)"/><path d="M529.89872,213.37887c0,0 -8.75914,0.56381 -12.22569,0.78694c-2.5656,0.16512 -2.2123,-4.18724 0.47082,-6.95054c3.43613,-3.5388 11.75486,-12.10613 11.75486,-12.10613" stroke="url(#color-42)"/></g><path d="M491.82955,92.257c0,-6.46302 -14.08027,-19.28214 -12.41911,-22.28229c2.09382,-3.7815 20.36317,3.08996 24.42637,2.54913c4.95184,-0.6591 11.08882,0.15228 17.73495,0.15228c6.95168,0 13.70254,-0.6458 19.17745,0.46905c3.27041,0.66595 20.28947,-4.24155 22.42019,-1.80618c2.73077,3.12122 -9.86659,14.31856 -9.86659,22.26839c0,13.19826 0.6344,42.38384 -6.01445,56.80432c-5.71214,12.38887 -18.1259,11.12108 -25.7166,11.12108c-6.37948,0 -20.9684,-2.42679 -25.81181,-12.11876c-7.6276,-15.2634 -3.93041,-42.14945 -3.93041,-57.15702z" fill="#dadada" stroke="#000000" stroke-width="0" stroke-linecap="butt"/><path d="M494.19831,115.20134c0,-18.31015 12.18559,-33.15346 27.21726,-33.15346c15.03168,0 27.21727,14.84331 27.21727,33.15346c0,18.31015 -12.18559,33.15346 -27.21727,33.15346c-15.03168,0 -27.21726,-14.84331 -27.21726,-33.15346z" fill="#ababab" stroke="url(#color-43)" stroke-width="0" stroke-linecap="butt"/><path d="M545.26941,160.57822c-4.1418,-26.38943 3.86691,-86.44855 7.08649,-93.9018c5.3946,-12.48834 18.57781,-11.62672 29.1367,-10.68879c6.19494,0.55029 -7.81275,49.56532 -20.34644,81.12161c-5.96589,15.02044 11.62027,48.52401 11.62027,48.52401c0,0 -23.34886,1.37525 -27.49706,-25.05504z" fill="#801d1d" stroke="url(#color-44)" stroke-width="0" stroke-linecap="butt"/><path d="M470.98269,188.83933c0,0 17.58618,-33.50356 11.62027,-48.524c-12.53368,-31.5563 -26.54137,-80.57133 -20.34643,-81.12162c10.55892,-0.93792 23.74212,-1.79955 29.13669,10.68879c3.21958,7.45324 11.2283,67.51237 7.0865,93.9018c-4.1482,26.43027 -27.49705,25.05504 -27.49705,25.05504z" fill="#801d1d" stroke="url(#color-45)" stroke-width="0" stroke-linecap="butt"/><path d="M488.53908,204.71036c5.97998,-4.12478 61.70583,-7.24108 68.51266,0.83424c5.44245,6.45666 12.49312,79.35868 4.8009,94.84493c-6.15278,12.38699 -37.99382,-0.38729 -37.99382,-0.38729c0,0 0.65628,-56.77414 -2.77377,-56.77598c-3.35806,-0.00179 -3.42884,56.93897 -3.42884,56.93897c0,0 -35.35467,-3.71492 -39.47357,-3.47587c-8.33882,0.48401 0.6529,-85.28587 10.35641,-91.979z" fill="#0d0d0d" stroke="url(#color-46)" stroke-width="0" stroke-linecap="butt"/><path d="M484.79618,214.17037c0,-4.83067 3.91602,-8.74668 8.74669,-8.74668c4.83067,0 8.74668,3.91601 8.74668,8.74668c0,4.83067 -3.91601,8.74668 -8.74668,8.74668c-4.83067,0 -8.74669,-3.91602 -8.74669,-8.74668z" fill="#e1f194" stroke="url(#color-47)" stroke-width="0" stroke-linecap="butt"/><path d="M540.77496,214.17037c0,-4.83067 3.91602,-8.74668 8.74668,-8.74668c4.83066,0 8.74668,3.91601 8.74668,8.74668c0,4.83067 -3.91602,8.74668 -8.74668,8.74668c-4.83066,0 -8.74668,-3.91602 -8.74668,-8.74668z" fill="#e1f194" stroke="url(#color-48)" stroke-width="0" stroke-linecap="butt"/><path d="M529.22669,390.943c0,-7.21573 2.09171,-16.73912 2.09171,-16.73912c0,0 23.77901,-13.21163 33.69017,-13.21163c17.12688,0 31.01096,13.88409 31.01096,31.01095c0,17.12688 -66.79284,16.0667 -66.79284,-1.06021z" fill="#272727" stroke="url(#color-49)" stroke-width="0" stroke-linecap="butt"/><path d="M449.71067,392.26827c0,-17.12688 13.88409,-31.01095 31.01095,-31.01095c9.91114,0 33.69018,13.21164 33.69018,13.21164c0,0 2.09171,9.52339 2.09171,16.73912c0,17.12688 -66.79284,18.18708 -66.79284,1.06021z" fill="#272727" stroke="url(#color-50)" stroke-width="0" stroke-linecap="butt"/><g stroke="#000000" stroke-width="0" stroke-linecap="butt"><path d="M514.70558,78.04786l-2.03551,-17.01073l4.02725,-0.4819l2.03551,17.01073z" fill="#2f323e"/><path d="M509.7655,60.54422c-2.34769,-2.87069 -3.9634,-14.16298 -3.9634,-14.16298l13.7028,-1.76851c0,0 0.74738,11.0408 -0.21132,14.45423c-0.64645,2.30165 -3.06229,2.31554 -4.81047,2.52472c-1.30264,0.15586 -3.72356,0.16798 -4.71759,-1.04748z" fill="#2f323e"/><g><path d="M541.92547,30.19886c-1.36922,-3.35309 -3.12952,-4.98574 -4.20498,-7.54004c-1.01482,-2.41025 -1.35648,-5.78131 -2.24846,-7.62572c-2.20441,-4.55815 -4.06443,-7.6377 -4.42609,-10.72426c-0.2258,-1.92728 1.15346,-5.29303 1.45921,-6.97424c0.33457,-1.83968 5.78935,-2.70627 9.27453,-1.47078c3.03427,1.07562 3.9015,3.87515 7.17059,7.35286c1.46245,1.55576 5.46833,5.18523 6.75705,7.16329c2.13739,3.28069 1.83696,5.59392 2.82671,9.09609c0.82925,2.9343 3.93799,7.03882 4.99238,10.44316c0.49209,1.5888 -0.84464,2.56231 -0.55966,4.03404c0.34406,1.77671 3.00115,7.21006 3.22468,8.81968c0.63475,4.57083 -0.7803,6.17728 -1.1848,9.1137c-0.48006,3.48509 2.385,10.47065 1.33551,12.61127c-1.5332,3.12721 -6.92462,4.3379 -8.93119,4.72647c-1.96995,0.38146 -4.34305,2.60551 -6.60779,0.66376c-1.75235,-1.50243 -3.65364,-5.52796 -5.25908,-9.96338c-0.95679,-2.64334 -1.87618,-2.58376 -2.67511,-5.8274c-0.47704,-1.93675 -0.86347,-6.86278 -1.32133,-9.22737c-0.77266,-3.99012 3.49172,-7.04535 0.37779,-14.67111z" fill="#a3a3a3"/><path d="M535.3171,0.15255c1.55337,-0.614 4.02587,1.95771 5.52247,5.74406c1.49661,3.78636 1.45058,7.35355 -0.10277,7.96752c-1.55336,0.61399 -4.02588,-1.95771 -5.5225,-5.74407c-1.49662,-3.78636 -1.4506,-7.35355 0.10279,-7.96755z" fill="#0d0d0d"/></g><path d="M537.24069,3.67401c0.98494,0.24842 1.97685,1.60657 2.39982,2.55237c0.30334,0.67841 0.72083,2.04031 0.53809,2.70657c-1.11358,4.06038 -10.42319,6.67482 -12.27196,2.54053c-1.72917,-3.86686 5.30715,-8.81504 9.33403,-7.79946z" fill="#2f323e"/><g><path d="M486.96968,52.80598c0.11296,2.40586 0.89971,7.28395 0.8931,9.27859c-0.01107,3.34057 -0.91859,3.4996 -1.22466,6.29407c-0.51361,4.68902 -1.41141,9.04948 -2.7598,10.92292c-1.74265,2.42128 -4.57352,0.81992 -6.57785,0.91403c-2.04159,0.09584 -7.56647,0.19141 -9.79422,-2.48576c-1.52493,-1.8326 -0.38895,-9.29691 -1.67774,-12.57032c-1.08588,-2.75805 -2.84001,-3.98532 -3.30165,-8.57684c-0.16258,-1.61692 1.13758,-7.5238 1.05271,-9.33152c-0.07029,-1.49744 -1.59898,-2.12806 -1.49565,-3.78809c0.22139,-3.55702 2.27392,-8.27911 2.38745,-11.32623c0.1355,-3.63683 -0.70222,-5.81385 0.60077,-9.50623c0.78562,-2.22629 3.82205,-6.69843 4.87613,-8.55532c2.35628,-4.15085 2.53848,-7.07592 5.23332,-8.83712c3.09529,-2.02291 8.60055,-2.46779 9.35973,-0.759c0.6938,1.56161 2.82825,4.50692 3.06352,6.43303c0.37683,3.08475 -0.70412,6.5162 -1.77083,11.46578c-0.43163,2.00278 0.03172,5.35926 -0.38579,7.94092c-0.44243,2.73593 -1.7678,4.73784 -2.30724,8.31932c-1.22678,8.14514 3.63808,10.10798 3.82867,14.16774z" fill="#a3a3a3"/><path d="M484.45337,15.59934c-0.561,4.03258 -2.35693,7.11504 -4.01131,6.88488c-1.6544,-0.23017 -2.54077,-3.68576 -1.97977,-7.71832c0.561,-4.03258 2.35692,-7.11505 4.01131,-6.88488c1.65441,0.23018 2.54077,3.68576 1.97977,7.71832z" fill="#0d0d0d"/></g><path d="M492.34591,17.13386c-0.82109,4.45376 -10.48479,4.10968 -12.52493,0.42669c-0.33477,-0.60435 -0.25043,-2.0263 -0.11569,-2.75713c0.18786,-1.01888 0.83132,-2.57273 1.72985,-3.04651c3.67359,-1.93704 11.67872,1.21129 10.91076,5.37695z" fill="#2f323e"/><path d="M542.64542,47.23695c0.09811,0.81988 -13.75854,8.37703 -28.30007,10.11644c-14.51932,1.73674 -29.72338,-2.34299 -29.82133,-3.16162c-0.09762,-0.81584 14.90992,2.45644 29.37914,0.72161c14.59017,-1.74934 28.64381,-8.49909 28.74224,-7.67642z" fill="#686e88"/><path d="M542.38463,46.85281c0.27212,2.2743 0.29103,27.84817 -25.86516,30.97802c-26.15618,3.12985 -32.13603,-23.01873 -32.40818,-25.29304c-0.27212,-2.2743 5.26651,20.18695 31.42268,17.05711c26.15618,-3.12985 26.5785,-25.01638 26.85067,-22.74209z" fill="#dadada"/><path d="M512.0946,66.23505l-1.93342,-16.15752l6.06544,-0.72577l1.93341,16.15754z" fill="#24262f"/><path d="M479.71192,35.12761c-2.07658,-17.35393 10.30818,-33.10544 27.66209,-35.18202c17.3539,-2.07657 33.10544,10.30816 35.18202,27.66209c2.07657,17.3539 -60.76751,24.87384 -62.84408,7.51995z" fill="#dadada"/><path d="M485.51093,31.51402c-0.89319,-7.46435 4.4338,-14.23945 11.89814,-15.13266c7.46435,-0.89319 14.23948,4.43377 15.13265,11.89813c0.89319,7.46435 -4.43379,14.23944 -11.89815,15.13265c-7.46435,0.89319 -14.23946,-4.4338 -15.13266,-11.89814z" fill="#000000"/><path d="M507.5661,29.40989c-0.89319,-7.46435 4.43378,-14.23945 11.89812,-15.13263c7.46435,-0.8932 14.23945,4.43381 15.13266,11.89814c0.89319,7.46435 -4.43377,14.23945 -11.89814,15.13265c-7.46435,0.89319 -14.23944,-4.43378 -15.13266,-11.89814z" fill="#000000"/><path d="M547.4024,30.6689c0.47682,4.47814 -7.89437,18.33556 -34.26339,21.49086c-26.36899,3.15532 -36.90402,-9.16445 -37.49957,-13.62837c-1.8457,-13.83333 9.19296,0.5908 35.56194,-2.56455c26.36899,-3.15532 34.66335,-19.73931 36.20102,-5.29799z" fill="#ababab"/><path d="M501.83669,40.37657c-1.41399,-11.81674 1.39586,-39.95483 4.97196,-40.38274c3.57609,-0.42791 13.77973,23.67815 15.19374,35.49489c1.41399,11.81674 -18.7517,16.70459 -20.16569,4.88788z" fill="#ababab"/><path d="M522.59396,34.04619c0.10458,0.87385 -3.51543,11.78903 -9.66895,12.52537c-6.15353,0.73634 -12.51038,-8.98497 -12.61496,-9.85885c-0.10458,-0.87386 22.17936,-3.54037 22.2839,-2.66651z" fill="#1d1d1d"/><g><path d="M527.97912,-30.00816c0.46979,3.92598 -9.84574,8.38852 -23.04042,9.9674c-13.19464,1.57888 -24.27184,-0.32383 -24.74163,-4.24979c-0.07768,-0.64939 -0.03314,-2.6016 2.09702,-3.29728c8.22914,-2.68752 31.83198,-5.35174 41.95157,-4.62957c3.09746,0.22105 3.64154,1.44136 3.73342,2.20924z" fill="#101010"/><path d="M527.7967,-29.40169c1.00981,8.43905 1.57008,22.11719 -6.66506,28.8335c-5.84676,4.76843 -19.64333,3.93559 -25.12097,4.59104c-13.19286,1.57867 -14.26283,-13.27708 -15.9896,-27.70767c-0.62164,-5.1949 3.81756,-0.85839 11.56864,-3.26138c6.49003,-2.01202 16.08277,-0.28397 22.48118,-2.46086c7.18725,-2.44525 13.14113,-4.88058 13.7258,0.00538z" fill="#0d0d0d"/></g><g><path d="M537.44811,-4.70828c0.11008,0.92 -13.32544,3.28418 -30.0091,5.28053c-16.68365,1.99637 -30.29766,2.86895 -30.40774,1.94895c-0.11008,-0.92 13.32544,-3.28417 30.00909,-5.28054c16.68365,-1.99636 30.29766,-2.86896 30.40776,-1.94894z" fill="#101010"/><path d="M537.14639,-4.53518c0.23666,1.97754 -0.72529,5.31365 -11.83445,7.98589c-7.88725,1.89724 -25.03016,3.36654 -31.95626,4.19533c-16.68144,1.99611 -16.21343,-1.57111 -16.61808,-4.95269c-0.14566,-1.21733 7.30419,-0.0678 17.28424,-1.60775c8.35632,-1.28943 19.15232,-1.63451 27.41418,-2.95382c9.2804,-1.48196 15.57338,-3.81189 15.71038,-2.66696z" fill="#0d0d0d"/></g><path d="M528.65192,-8.56127c0.0893,0.74613 0.93279,3.00947 -0.82574,3.83856c-1.48943,0.7022 -3.98058,0.88712 -6.89474,1.49188c-2.98756,0.62 -6.42281,1.65524 -9.93544,1.99971c-1.77347,0.17391 -3.21312,-0.51139 -4.99095,-0.29864c-2.68333,0.32108 -5.75834,1.27449 -8.84451,1.49889c-2.68022,0.19486 -5.38987,-0.33533 -7.59736,-0.12239c-2.74198,0.26447 -4.32479,0.99582 -5.90264,0.77137c-2.66048,-0.37844 -1.21457,-2.73949 -1.32203,-3.63748c-0.0901,-0.75293 -1.30834,-3.39071 0.48087,-4.22739c1.65761,-0.77514 4.57075,-1.98341 8.10248,-2.19271c2.57393,-0.1525 5.5279,0.65535 8.311,0.43502c2.15813,-0.17086 3.60994,-0.79001 5.75254,-1.04641c2.14648,-0.25685 4.30619,0.06524 6.61476,-0.40039c2.71763,-0.5481 5.39346,-1.90091 7.90359,-2.54331c3.5252,-0.90219 6.65246,-0.99745 8.48728,-0.6968c2.3615,0.38695 0.56034,4.2898 0.66089,5.13013z" fill="#801d1d"/></g></g></g></svg>