<svg version="1.1" xmlns="http://www.w3.org/2000/svg" xmlns:xlink="http://www.w3.org/1999/xlink" width="978.22764" height="617.86789" viewBox="0,0,978.22764,617.86789"><defs><radialGradient cx="360" cy="227.29734" r="299.54955" gradientUnits="userSpaceOnUse" id="color-1"><stop offset="0" stop-color="#000000"/><stop offset="1" stop-color="#000000" stop-opacity="0"/></radialGradient><linearGradient x1="867.25226" y1="186.24628" x2="419.8048" y2="186.24628" gradientUnits="userSpaceOnUse" id="color-2"><stop offset="0" stop-color="#000000"/><stop offset="1" stop-color="#000000" stop-opacity="0"/></linearGradient><linearGradient x1="-110.97539" y1="187.25326" x2="336.47205" y2="187.25326" gradientUnits="userSpaceOnUse" id="color-3"><stop offset="0" stop-color="#000000"/><stop offset="1" stop-color="#000000" stop-opacity="0"/></linearGradient><radialGradient cx="360" cy="208.52855" r="299.54955" gradientUnits="userSpaceOnUse" id="color-4"><stop offset="0" stop-color="#000000"/><stop offset="1" stop-color="#000000" stop-opacity="0"/></radialGradient></defs><g transform="translate(110.97539,91.021)"><g data-paper-data="{&quot;isPaintingLayer&quot;:true}" fill-rule="nonzero" stroke="#000000" stroke-width="0" stroke-linecap="butt" stroke-linejoin="miter" stroke-miterlimit="10" stroke-dasharray="" stroke-dashoffset="0" style="mix-blend-mode: normal"><path d="M60.45045,227.29734c0,-165.43665 134.1129,-299.54955 299.54955,-299.54955c165.43665,0 299.54955,134.1129 299.54955,299.54955c0,165.43665 -134.1129,299.54955 -299.54955,299.54955c-165.43665,0 -299.54955,-134.1129 -299.54955,-299.54955z" fill="url(#color-1)"/><path d="M419.8048,433.99404v-495.4955h447.44745v495.4955z" fill="url(#color-2)"/><path d="M-110.97539,435.00102v-495.4955h447.44745v495.4955z" fill="url(#color-3)"/><path d="M60.45045,208.52855c0,-165.43665 134.1129,-299.54955 299.54955,-299.54955c165.43665,0 299.54955,134.1129 299.54955,299.54955c0,165.43665 -134.1129,299.54955 -299.54955,299.54955c-165.43665,0 -299.54955,-134.1129 -299.54955,-299.54955z" fill="url(#color-4)"/></g></g></svg>