<svg version="1.1" xmlns="http://www.w3.org/2000/svg" xmlns:xlink="http://www.w3.org/1999/xlink" width="720" height="368.8756" viewBox="0,0,720,368.8756"><g transform="translate(0,4.4378)"><g stroke-miterlimit="10"><g><g stroke-width="0" stroke-linecap="butt"><path d="M21.01315,257.03278v-155.90841h677.9737v155.90842z" fill="#090a17" stroke="#000000"/><path d="M101.90289,261.74524v-73.5h539.57076v73.5z" fill="#11132b" stroke="#424242"/></g><path d="M450.29357,143.21539v-51.5h148.85605v51.5z" fill="#000000" stroke="#424242" stroke-width="0" stroke-linecap="butt"/><path d="M120.93751,142.52834v-51.5h148.85605v51.5z" fill="#000000" stroke="#424242" stroke-width="0" stroke-linecap="butt"/><path d="M602.90285,187.74524h-481.96534" fill="none" stroke="#424242" stroke-width="2.5" stroke-linecap="round"/><path d="M316,250.43482v-138h88v138z" fill="#000000" stroke="#424242" stroke-width="0" stroke-linecap="butt"/><path d="M0,116.89726v-121.33506h719.43382v121.33506z" fill="#0c0626" stroke="#000000" stroke-width="0" stroke-linecap="butt"/><path d="M0.56618,364.4378v-143.85758h719.43382v143.85758z" fill="#0c0626" stroke="#000000" stroke-width="0" stroke-linecap="butt"/><path d="M0,361.4348v-360l184.26427,116l0.62463,128.5z" fill="#190d4f" stroke="none" stroke-width="0" stroke-linecap="butt"/><path d="M720,1.4348v360l-184.26427,-116l-0.62462,-128.5z" fill="#190d4f" stroke="none" stroke-width="0" stroke-linecap="butt"/><path d="M0,271.43479v-179.99998l184.26427,57.99999l0.62463,64.24999z" fill="#2b1689" stroke="none" stroke-width="0" stroke-linecap="butt"/><path d="M535.1111,213.6848l0.62463,-64.25l184.26427,-57.99999v179.99998z" fill="#2b1689" stroke="none" stroke-width="0" stroke-linecap="butt"/></g></g></g></svg>