<svg version="1.1" xmlns="http://www.w3.org/2000/svg" xmlns:xlink="http://www.w3.org/1999/xlink" width="1421.30706" height="1200.41037" viewBox="0,0,1421.30706,1200.41037"><defs><radialGradient cx="360" cy="177.81483" r="367.5075" gradientUnits="userSpaceOnUse" id="color-1"><stop offset="0" stop-color="#000000" stop-opacity="0.83922"/><stop offset="1" stop-color="#000000" stop-opacity="0"/></radialGradient><radialGradient cx="360" cy="177.81483" r="367.50751" gradientUnits="userSpaceOnUse" id="color-2"><stop offset="0" stop-color="#000000" stop-opacity="0"/><stop offset="1" stop-color="#000000"/></radialGradient><linearGradient x1="-5.24206" y1="181.0581" x2="150.659" y2="181.0581" gradientUnits="userSpaceOnUse" id="color-3"><stop offset="0" stop-color="#000000"/><stop offset="1" stop-color="#000000" stop-opacity="0"/></linearGradient><linearGradient x1="727.50752" y1="177.81485" x2="571.60646" y2="177.81485" gradientUnits="userSpaceOnUse" id="color-4"><stop offset="0" stop-color="#000000"/><stop offset="1" stop-color="#000000" stop-opacity="0"/></linearGradient><linearGradient x1="360.24743" y1="-17.14012" x2="360.24743" y2="110.48753" gradientUnits="userSpaceOnUse" id="color-5"><stop offset="0" stop-color="#000000"/><stop offset="1" stop-color="#000000" stop-opacity="0"/></linearGradient><linearGradient x1="359.27227" y1="377.38047" x2="359.27227" y2="249.75283" gradientUnits="userSpaceOnUse" id="color-6"><stop offset="0" stop-color="#000000"/><stop offset="1" stop-color="#000000" stop-opacity="0"/></linearGradient></defs><g transform="translate(614.89578,113.16379)"><g data-paper-data="{&quot;isPaintingLayer&quot;:true}" fill-rule="nonzero" stroke-linecap="butt" stroke-linejoin="miter" stroke-miterlimit="10" stroke-dasharray="" stroke-dashoffset="0" style="mix-blend-mode: normal"><path d="M-7.11712,370.42353v-384.38438h732.73273v384.38438z" fill="#07010e" stroke="none" stroke-width="0"/><g stroke="none"><g stroke-width="0"><g><g><g><path d="M-449.47533,974.91066c-0.15595,-14.89504 11.79248,-27.09629 26.68755,-27.2523c14.89504,-0.15595 27.09629,11.79248 27.2523,26.68755c0.15595,14.89504 -11.79248,27.09629 -26.68755,27.2523c-14.89504,0.15595 -27.09629,-11.79248 -27.2523,-26.68755z" fill="#6e2d2a"/><path d="M-422.61223,1083.69379c-39.72901,0.41595 -27.93976,-92.35332 -27.93976,-92.35332c0,0 5.08706,-12.04279 29.18006,-13.20552c18.83874,-0.90919 28.27757,12.60396 28.27757,12.60396c0,0 10.21118,92.53894 -29.51785,92.95489z" fill="#893834"/></g><path d="M-602.78114,977.65483l38.57301,-57.43711l124.95277,83.91449l-38.57301,57.43711z" fill="#6e2d2a"/><path d="M-435.75897,1010.71798c-24.91401,37.09817 -160.23196,-53.77721 -135.31795,-90.87545c24.91401,-37.09817 69.9244,-61.80873 132.60269,-19.71589c37.36704,25.09454 27.62927,73.49311 2.71523,110.59127z" fill="#893834"/><path d="M-454.65692,1035.45973c-37.19376,55.38334 -39.77805,62.56387 -77.10344,39.33043c-15.73054,-9.79159 -9.93029,-21.80408 -9.93029,-21.80408c0,0 -8.22867,17.54325 -61.24264,-28.5386c-31.23739,-27.15275 7.59899,-65.08966 16.10245,-77.75169c18.23416,-27.15159 -12.11789,11.03441 58.82624,57.16302c63.54948,41.32062 91.58183,4.44932 73.34764,31.60093z" fill="#893834"/></g><g><path d="M-339.79605,651.34993c19.58067,-26.46613 56.90906,-32.04785 83.37527,-12.46715c26.46613,19.58067 32.04785,56.90906 12.46711,83.37523c-19.58067,26.46613 -56.90906,32.04785 -83.37523,12.46718c-26.46613,-19.58075 -32.04785,-56.90906 -12.46718,-83.37523z" fill="#6e2d2a"/><path d="M-517.30597,866.6347l141.7379,-191.57914c0,0 19.037,-22.71544 78.08571,20.97124c56.16813,41.55545 41.32446,67.37328 41.32446,67.37328l-141.73786,191.57914c0,0 -20.79622,11.93173 -71.62698,-26.41493c-54.23873,-40.91755 -47.78322,-61.92949 -47.78322,-61.92949z" fill="#893834"/></g><g><path d="M-89.62016,462.63569c26.49023,-19.54804 63.8117,-13.92035 83.35977,12.56996c19.54804,26.49023 13.92035,63.8117 -12.56993,83.35971c-26.49023,19.54804 -63.8117,13.92035 -83.35977,-12.56996c-19.54804,-26.49023 -13.92035,-63.8117 12.56993,-83.35971z" fill="#6e2d2a"/><path d="M-322.53085,616.29111l191.75375,-141.50162c0,0 24.86895,-16.12251 68.48275,42.98008c41.4862,56.21934 19.7144,76.53885 19.7144,76.53885l-191.75369,141.50162c0,0 -23.38344,5.29765 -60.71005,-46.28684c-39.82919,-55.0429 -27.4871,-73.23217 -27.4871,-73.23217z" fill="#893834"/></g></g><g><g><g><path d="M613.73401,988.83332c-14.89054,-0.39979 -26.6376,-12.79498 -26.23775,-27.68551c0.39979,-14.89054 12.79498,-26.63754 27.68555,-26.23784c14.89054,0.39979 26.63754,12.79498 26.23781,27.68555c-0.39973,14.8905 -12.79495,26.63757 -27.68552,26.23778z" fill="#6e2d2a"/><path d="M584.78741,977.49838c0,0 9.65882,-13.35687 28.48014,-12.13936c24.07068,1.55707 28.95994,13.68158 28.95994,13.68158c0,0 10.26887,92.94986 -29.44798,91.88351c-39.71689,-1.06635 -27.99202,-93.42571 -27.99202,-93.42571z" fill="#893834"/></g><path d="M668.35019,1049.70665l-37.62746,-58.06094l126.30984,-81.85756l37.62746,58.06094z" fill="#6e2d2a"/><path d="M631.64461,887.64122c63.35902,-41.06105 107.95879,-15.61694 132.26215,21.88417c24.30333,37.50111 -112.48432,126.14896 -136.78757,88.64786c-24.30333,-37.50111 -33.2474,-86.05257 4.52546,-110.53203z" fill="#893834"/><path d="M719.46471,992.82523c71.68983,-44.96098 41.96705,-83.63879 59.75428,-56.19229c8.295,12.79958 46.50507,51.3672 14.82732,78.00493c-53.76129,45.20774 -61.70165,27.53215 -61.70165,27.53215c0,0 5.60279,12.10582 -10.2859,21.63855c-37.70078,22.61925 -40.16709,15.39741 -76.44918,-40.58742c-17.78723,-27.44646 9.6377,9.87872 73.85519,-30.39588z" fill="#893834"/></g><g><path d="M523.22164,720.44253c-26.78315,19.14477 -64.01511,12.95267 -83.15995,-13.83051c-19.14477,-26.78315 -12.95267,-64.01514 13.83054,-83.15992c26.78315,-19.14477 64.01514,-12.9527 83.16001,13.83051c19.14477,26.78312 12.95264,64.01518 -13.83054,83.15992z" fill="#6e2d2a"/><path d="M662.22328,916.58348c-51.45181,37.50925 -72.04991,25.23875 -72.04991,25.23875l-138.58244,-193.87396c0,0 -14.41907,-26.05732 42.42193,-66.68769c59.75604,-42.71402 78.41863,-19.68994 78.41863,-19.68994l138.58247,193.87396c0,0 6.11071,21.11487 -48.79062,61.13891z" fill="#893834"/></g><g><path d="M301.20302,528.05212c-19.97915,26.16668 -57.3877,31.18263 -83.55432,11.20349c-26.16668,-19.97908 -31.18263,-57.3877 -11.20355,-83.55444c19.97914,-26.16663 57.3877,-31.18263 83.55432,-11.20349c26.16668,19.97908 31.18263,57.3877 11.20355,83.55444z" fill="#6e2d2a"/><path d="M491.68109,674.71796c-38.16617,50.96644 -61.45969,45.28669 -61.45969,45.28669l-189.41136,-144.62205c0,0 -21.43616,-20.6732 20.96487,-76.20586c44.57561,-58.38059 69.17725,-41.85309 69.17725,-41.85309l189.41136,144.62201c0,0 12.04263,18.38888 -28.68234,72.77236z" fill="#893834"/></g></g><g><path d="M209.67968,838.17757c-3.4519,38.38007 -73.34618,79.94221 -154.2991,72.66129c-80.95288,-7.28092 -142.30922,-60.64785 -138.85731,-99.02789c3.4519,-38.38007 71.8755,-63.59086 152.82844,-56.30993c80.95288,7.28092 143.77986,44.29647 140.3279,82.67655z" fill="#893834"/><g><path d="M-81.43845,666.87955c0,0 -34.8756,-289.1101 183.78448,-265.76882c216.46182,23.1066 129.85846,288.10099 129.85846,288.10099c0,0 68.3105,195.96018 -167.29842,175.56761c-244.82939,-21.1906 -146.34445,-197.89977 -146.34445,-197.89977z" fill="#a3433e"/><g fill="#893834"><g><path d="M181.17125,569.55725c-45.48906,-4.09131 -80.76854,-25.16061 -78.79892,-47.05967c1.96961,-21.89903 40.44243,-36.33499 85.93149,-32.24371c22.57767,2.03064 -1.667,39.3826 -1.667,39.3826c0,0 17.44584,41.98139 -5.46552,39.92076z"/><path d="M111.8619,523.3511c0.32465,-3.60967 3.51419,-6.2728 7.12386,-5.94815c3.60967,0.32465 46.03553,10.72931 46.03553,10.72931c0,0 -43.60154,2.66734 -47.21124,2.34265c-3.60967,-0.32465 -6.27279,-3.5141 -5.94815,-7.12383z"/></g><g><path d="M-9.89371,511.96048c0,0 -17.19055,-41.07862 5.38711,-39.04801c45.48906,4.09131 80.76859,25.16061 78.799,47.05958c-1.96961,21.89903 -40.44243,36.33502 -85.93155,32.24371c-22.91139,-2.06064 1.74545,-40.25535 1.74545,-40.25535z"/><path d="M57.679,525.06671c-3.60967,-0.32465 -46.0355,-10.72931 -46.0355,-10.72931c0,0 43.60155,-2.66734 47.21124,-2.34265c3.60967,0.32465 6.27276,3.51407 5.94815,7.12386c-0.32465,3.60967 -3.51419,6.2728 -7.12386,5.94815z"/></g><path d="M50.42364,517.82529c1.88305,-20.93646 20.38185,-36.38223 41.31825,-34.49924c20.93646,1.88305 36.38223,20.38185 34.49918,41.31828c-1.88305,20.93646 -20.38182,36.38223 -41.31824,34.49921c-20.93646,-1.88305 -36.38223,-20.38185 -34.49924,-41.31825z"/></g><g><g><path d="M193.29498,561.02141c-50.80442,-4.56936 -90.20631,-28.10059 -88.00653,-52.55854c2.19975,-24.45788 45.16816,-40.58073 95.97256,-36.01137c25.21581,2.26792 -1.8618,43.9844 -1.8618,43.9844c0,0 19.48436,46.88688 -6.10424,44.58544z" fill="#2a2119"/><path d="M115.88687,509.41608c0.36259,-4.03156 3.92472,-7.00578 7.95627,-6.6432c4.03156,0.36259 51.41474,11.98304 51.41474,11.98304c0,0 -48.69629,2.97896 -52.72784,2.61636c-4.03156,-0.36259 -7.00575,-3.92472 -6.64317,-7.95627z" fill="#1e1812"/></g><g><path d="M-20.09571,496.69442c0,0 -19.19925,-45.87863 6.01663,-43.61074c50.80442,4.56936 90.20626,28.10059 88.00652,52.55847c-2.19975,24.45788 -45.16814,40.58071 -95.9725,36.01129c-25.58857,-2.30144 1.94939,-44.95915 1.94939,-44.95915z" fill="#2a2119"/><path d="M55.3727,511.3322c-4.03156,-0.36259 -51.41477,-11.98301 -51.41477,-11.98301c0,0 48.69638,-2.97902 52.72784,-2.61637c4.03156,0.36259 7.00575,3.92472 6.64317,7.95627c-0.36259,4.03156 -3.92472,7.00575 -7.95627,6.64317z" fill="#1e1812"/></g><path d="M47.26958,503.24461c2.10304,-23.38279 22.76347,-40.63345 46.14625,-38.53041c23.38279,2.10304 40.63345,22.76346 38.53038,46.14625c-2.10304,23.38279 -22.76346,40.63345 -46.14625,38.53041c-23.38279,-2.10304 -40.63348,-22.76346 -38.53041,-46.14625z" fill="#1e1812"/></g><g><path d="M65.54054,596.83741c0.89095,-9.90602 9.64363,-17.21422 19.54963,-16.32321c9.90602,0.89095 17.21419,9.64363 16.32321,19.54963c-0.89095,9.90602 -9.64368,17.21416 -19.54962,16.32321c-9.90602,-0.89095 -17.21422,-9.64363 -16.32321,-19.54962z" fill="#893834"/><path d="M66.1408,590.16337c0.89095,-9.90602 9.64363,-17.21422 19.54963,-16.32321c9.90602,0.89095 17.21419,9.64363 16.32321,19.54963c-0.89095,9.90602 -9.64368,17.21416 -19.54962,16.32321c-9.90602,-0.89095 -17.21422,-9.64363 -16.32321,-19.54962z" fill="#1e1812"/></g><g><path d="M60.73843,650.22953c0.89095,-9.90602 9.64363,-17.21419 19.54962,-16.32321c9.90602,0.89095 17.21419,9.64363 16.32321,19.54962c-0.89095,9.90602 -9.64368,17.21416 -19.54962,16.32321c-9.90602,-0.89095 -17.21419,-9.64363 -16.32321,-19.54962z" fill="#893834"/><path d="M61.33868,643.55555c0.89095,-9.90602 9.64363,-17.21422 19.54963,-16.32321c9.90602,0.89095 17.21419,9.64363 16.32321,19.54963c-0.89095,9.90602 -9.64368,17.21416 -19.54962,16.32321c-9.90602,-0.89095 -17.21422,-9.64363 -16.32321,-19.54962z" fill="#1e1812"/></g><path d="M175.15405,439.5471c-1.26908,14.11034 -37.59435,22.37439 -81.13477,18.45839c-43.54042,-3.91605 -77.80806,-18.52926 -76.53899,-32.63963c1.26908,-14.11034 37.59432,-22.37442 81.13476,-18.45836c43.54042,3.91605 77.80809,18.52926 76.53899,32.63963z" fill="#6e2d2a"/><path d="M125.37942,431.14571c-0.7252,8.06303 -14.168,13.44326 -30.02525,12.01701c-15.85731,-1.42619 -28.12427,-9.11875 -27.39907,-17.18181c0.7252,-8.06303 14.168,-13.44326 30.02525,-12.01701c15.85731,1.42619 28.1243,9.11878 27.39907,17.18184z" fill="#4d201d"/><path d="M125.02929,435.03884c-0.7252,8.06303 -14.168,13.44326 -30.02525,12.01701c-15.85731,-1.42619 -28.12427,-9.11875 -27.39907,-17.18181c0.7252,-8.06303 14.168,-13.44326 30.02525,-12.01701c15.85731,1.42619 28.12427,9.11875 27.39907,17.18181z" fill="#0b0404"/></g></g><g><path d="M250.30384,387.07294c1.00927,46.1338 -33.19182,89.53139 -184.22496,90.5353c-154.24582,1.02524 -188.46431,-36.22596 -189.47358,-82.35977c-1.00927,-46.1338 75.90538,-74.96991 185.97898,-77.37803c110.07357,-2.40809 186.71029,23.06869 187.71957,69.2025z" fill="#893834"/><path d="M233.05291,378.82887c0.76749,35.07997 -67.85562,58.34346 -167.8777,60.53167c-100.02201,2.18821 -170.92853,-18.02278 -171.69599,-53.10275c-0.76749,-35.07997 69.21169,-57.25828 169.23374,-59.44647c100.02207,-2.18821 169.5725,16.93757 170.33997,52.0175z" fill="#6e2d2a"/></g><g><path d="M-74.91651,26.48325l-34.8866,-99.07254l178.51812,-34.27383l3.26339,105.14392z" fill="#1e1812"/><path d="M104.12087,-5.77482c1.53238,7.98134 -44.09592,23.45018 -101.91353,34.55059c-57.81762,11.10047 -105.93033,13.62905 -107.46268,5.64771c-1.53238,-7.98134 44.09592,-23.45018 101.91356,-34.55059c57.81768,-11.10041 105.93027,-13.62899 107.46264,-5.64765z" fill="#2a2119"/><path d="M68.51907,-107.88325c1.53238,7.98134 -37.18813,22.12395 -86.48447,31.58839c-49.29643,9.46447 -90.50124,10.66679 -92.03356,2.68542c-1.53233,-7.98131 37.18813,-22.12395 86.48447,-31.58839c49.29643,-9.46447 90.50124,-10.66679 92.03356,-2.68542z" fill="#1e1812"/><path d="M58.59248,7.06478c0.63547,3.30993 -24.99635,11.01308 -57.25032,17.20555c-32.25397,6.19249 -58.91607,8.52923 -59.55154,5.21933c-0.63547,-3.30993 24.99635,-11.01308 57.25032,-17.20555c32.25397,-6.19249 58.91607,-8.52923 59.55154,-5.21933z" fill="#1e1812"/></g><path d="M-172.41655,378.6818c0,0 -32.67336,-170.18208 -45.37225,-236.32521c-6.93266,-36.1093 8.95891,-81.0769 58.44624,-92.07059c52.39253,-11.63913 222.34708,-42.68853 316.69972,-60.80343c54.8843,-10.53729 82.67935,18.60095 89.88448,56.12944c12.77097,66.51864 46.75412,243.52292 46.75412,243.52292c0,0 4.08939,32.93146 -89.88315,68.35839c-0.61774,-2.16788 -8.37368,-20.38317 -8.37368,-20.38317c0,0 -0.63087,20.03717 -0.17295,22.4223c0.06636,0.34555 0.17149,0.67384 0.31003,0.98125c-3.42866,1.22335 -6.97689,2.44862 -10.64894,3.6746c-0.68419,-2.06378 -6.10752,-8.68767 -6.10752,-8.68767c0,0 -2.84188,8.52081 -2.38397,10.90594c0.03324,0.17319 0.07622,0.34203 0.12826,0.50608c-7.80527,2.48128 -39.6926,13.63111 -39.6926,13.63111l-5.17587,-4.38686c0,0 -0.47871,3.17604 -1.05327,3.28637c-0.74799,0.14363 -1.41504,0.46883 -1.96431,0.92127c-17.11759,4.26635 -36.00863,8.47289 -56.85657,12.56512c-15.25435,2.99429 -43.92646,2.71322 -43.92646,2.71322c0,0 -0.68697,4.51173 -1.56455,4.68018c-0.76911,0.14766 -1.45263,0.48744 -2.01052,0.95996c-22.35671,3.43058 -42.18887,5.69617 -59.78,7.02879c0.25187,-0.71167 0.3236,-1.49765 0.171,-2.2926c-0.45792,-2.3851 -7.13875,-10.4044 -7.13875,-10.4044c0,0 -1.95649,9.67756 -1.49854,12.06269c0.0816,0.42499 0.22182,0.82389 0.41072,1.18985c-119.76945,7.42557 -129.20057,-30.18556 -129.20057,-30.18556z" fill="#a3433e"/><path d="M-177.42546,330.82388c-5.86138,-30.52949 14.1361,-60.03012 44.66552,-65.89144c30.52949,-5.86138 60.03006,14.13606 65.89144,44.66552c5.86138,30.52949 -14.13606,60.03006 -44.66552,65.89144c-30.52949,5.86138 -60.03006,-14.13603 -65.89144,-44.66552z" fill="#893834"/><path d="M-6.39814,193.86188c11.3165,58.94301 -20.41065,93.82965 -66.12537,102.60649c-45.71475,8.77679 -88.10569,-11.87987 -99.42225,-70.82289c-11.3165,-58.94301 21.3711,-88.82696 67.08588,-97.60382c45.71475,-8.77679 87.1452,6.87712 98.46173,65.82016z" fill="#6e2d2a"/><path d="M87.84831,171.64433c2.95102,15.37077 -19.79242,32.65707 -50.79892,38.60999c-31.00647,5.95298 -58.53451,-1.68167 -61.48556,-17.05245c-2.95102,-15.37077 19.79242,-32.65701 50.79892,-38.60999c31.00647,-5.95298 58.53451,1.68165 61.48558,17.05239z" fill="#893834"/><path d="M236.26045,308.71822c-30.52949,5.86138 -60.03012,-14.1361 -65.89144,-44.66552c-5.86135,-30.52947 14.13606,-60.03006 44.66552,-65.89144c30.52949,-5.86138 60.03009,14.13607 65.89144,44.66552c5.86135,30.52947 -14.13607,60.03009 -44.66552,65.89144z" fill="#893834"/><path d="M2.23915,192.20359c7.73312,40.27867 -4.63367,69.32384 -27.82857,86.48024c-3.38295,2.50223 -15.06659,8.38609 -15.06659,8.38609l-13.13344,11.08333c0,0 -6.02193,-4.12544 -10.09675,-3.34316c-45.71475,8.77679 -88.10572,-11.8799 -99.42222,-70.82292c-11.3165,-58.94301 21.3711,-88.82696 67.08588,-97.60382c21.53016,-4.13361 42.11006,-2.84817 59.04135,5.8263c2.18334,1.11858 9.61033,-6.13443 9.61033,-6.13443l2.24586,12.48243l14.14534,11.13729c0,0 3.87036,13.35055 5.02601,15.81379c3.60261,7.67886 6.44416,16.54503 8.39282,26.6948z" fill="#000000"/><path d="M138.42311,81.3337c45.71475,-8.77679 87.14523,6.87715 98.46173,65.82018c11.3165,58.94301 -20.41065,93.82965 -66.12537,102.60649c-45.71475,8.77679 -88.10572,-11.8799 -99.42222,-70.82292c-11.3165,-58.94301 21.3711,-88.82696 67.08588,-97.60382z" fill="#6e2d2a"/><path d="M129.78588,82.99197c45.71475,-8.77679 87.1452,6.87712 98.46173,65.82018c11.3165,58.94301 -20.41065,93.82965 -66.12534,102.60646c-45.71475,8.77679 -88.10569,-11.87987 -99.42225,-70.82289c-11.3165,-58.94301 21.3711,-88.82696 67.08588,-97.60382z" fill="#000000"/><path d="M89.64785,261.35271c2.49313,12.98564 -13.96158,27.05977 -36.75267,31.43548c-22.7911,4.37568 -43.28798,-2.60409 -45.78108,-15.58973c-2.49313,-12.98564 13.96158,-27.05977 36.7527,-31.43548c22.7911,-4.37568 43.28798,2.60409 45.78108,15.58976z" fill="#6e2d2a"/><g fill="#000000"><path d="M181.73703,160.3353c0.95694,4.98427 -14.28789,12.10065 -34.05027,15.89483c-19.76234,3.79419 -36.55872,2.8294 -37.51564,-2.15487c-0.95694,-4.98427 14.28786,-12.10068 34.05023,-15.89483c19.76234,-3.79419 36.55875,-2.82943 37.51567,2.15488z"/><path d="M171.4544,162.30946c5.14617,26.80416 -2.09906,50.72511 -16.18259,53.42903c-14.08353,2.70394 -29.67226,-16.83323 -34.8184,-43.6373c-5.14617,-26.80416 2.09906,-50.72511 16.18259,-53.42903c14.08353,-2.70394 29.67226,16.83323 34.8184,43.6373z"/></g><g fill="#000000"><path d="M-81.78671,201.57391c19.76234,-3.79419 36.55869,-2.82943 37.51561,2.15487c0.95694,4.98427 -14.28786,12.10065 -34.05023,15.89483c-19.76234,3.79419 -36.55869,2.82943 -37.51561,-2.15484c-0.95694,-4.98427 14.28786,-12.10068 34.05023,-15.89483z"/><path d="M-89.37195,162.06557c14.08353,-2.70394 29.67226,16.83323 34.8184,43.6373c5.14617,26.80416 -2.09903,50.72514 -16.18259,53.42903c-14.08353,2.70394 -29.67227,-16.83323 -34.81842,-43.63736c-5.14617,-26.80416 2.09906,-50.72511 16.18259,-53.42903z"/></g></g><path d="M-6.45411,144.09131c0.3791,-0.56077 0.93984,-0.18165 0.93984,-0.18165l0.44696,0.30215c4.45582,3.05615 0.33827,7.31243 4.13236,9.3959c-0.7083,-2.89528 -2.15683,-6.30733 -1.20014,-8.44678c-0.63322,-0.63415 -1.17223,-1.31689 -1.55141,-2.07228c-1.50745,-3.00282 2.10217,-4.18667 -0.14376,-7.30006c-2.86982,-3.97821 -0.01311,-4.17406 -0.20777,-7.30522c-0.15233,-2.45063 -5.68978,-5.65193 -5.13247,-8.06386c0.5468,-2.36632 3.35713,-0.43859 3.17693,-3.37588c-0.09365,-1.52727 -1.88268,-2.9767 -2.0765,-4.69841c-0.94163,-1.29087 -0.71021,-2.95841 -0.47116,-4.54305c-0.16335,-0.13021 -0.32687,-0.23455 -0.49184,-0.30453c0,0 -0.60998,-0.29338 -0.31655,-0.90338c0.29338,-0.60998 0.90338,-0.31655 0.90338,-0.31655c0.03211,0.01672 0.06465,0.03552 0.09764,0.05627c0.08474,-0.99471 0.00722,-1.88689 -0.58232,-2.53865l-0.10407,-0.13943c0,0 -0.4049,-0.54242 0.13749,-0.94732c0.54242,-0.4049 0.94732,0.13749 0.94732,0.13749l0.10407,0.13943c0.86602,1.30626 0.67542,2.78706 0.46928,4.27327c1.0831,1.23908 2.39773,3.08716 3.6452,2.9239c0.75265,-0.09853 1.30344,-2.96635 1.86448,-3.31347c3.17707,-1.96583 9.0652,0.55094 12.49777,-3.071c2.32448,-1.02847 5.4645,-1.65845 7.57647,-2.99429c1.6983,-1.07419 2.46582,-3.66501 3.57872,-5.30933c-0.98019,-1.56257 -2.14968,-3.05721 -3.16621,-4.61854c-0.12211,-0.01947 -0.20739,-0.06048 -0.20739,-0.06048c-6.09978,-2.93394 -12.19958,-5.86788 -18.29935,-8.80184l-1.21997,-0.58679c0,0 -0.60998,-0.29338 -0.31655,-0.90338c0.29338,-0.60998 0.90338,-0.31655 0.90338,-0.31655c5.58655,2.6871 12.19641,5.86636 17.95515,8.63625c-0.29496,-0.58692 -0.55183,-1.18969 -0.75501,-1.81442c-0.68884,-2.14849 -1.37767,-4.29704 -2.06652,-6.44552l-0.03469,-0.1082c0,0 -0.20666,-0.64457 0.4379,-0.8512c0.64457,-0.20666 0.8512,0.4379 0.8512,0.4379c0.68884,2.14849 1.41233,4.40518 2.10118,6.55372c0.90776,2.87839 3.10107,5.27692 4.76585,7.8402c0.07633,-0.05521 0.15471,-0.10552 0.23542,-0.15057c5.25108,-2.93099 5.48393,7.84787 7.97236,6.62112c1.99417,-0.73746 7.71371,-4.46863 9.52976,-2.56307c0.91932,0.96466 0.62009,4.52964 0.67682,5.79538c0.16922,3.77651 1.05162,9.10505 4.28035,11.66309c0.43458,0.35656 1.10974,0.9114 1.81757,1.55502c1.65088,-1.01885 3.35514,-1.94008 4.70775,-2.98167c1.35756,-1.04539 2.21234,-4.22633 2.94561,-5.74663l1.30286,-0.84825c0,0 0.59589,-0.32105 0.91692,0.27487c0.32105,0.59589 -0.27487,0.91692 -0.27487,0.91692l-0.72561,0.24459c-0.85622,1.7752 -1.7535,4.97514 -3.33039,6.2244c-1.22668,0.9718 -2.92387,1.84802 -4.58286,2.83176c0.99985,1.00944 1.87269,2.10033 1.9987,2.94669c0.42069,2.82616 -3.56613,5.71449 -2.98909,8.89774c0.80524,4.44201 5.3847,6.68513 3.31234,11.1919c-4.27645,9.2961 -8.53643,19.11972 -19.93787,14.42662c-0.8799,-1.3623 -2.99515,4.55596 -4.68872,6.54323c0.62188,0.74543 1.19213,1.48505 0.96844,2.81262c-0.62134,3.68695 -2.7788,4.43963 0.65738,7.65804c1.47022,1.38988 3.99605,2.95157 5.14856,4.50948c1.4344,1.93893 -0.28997,4.87713 -0.23664,7.02839c0.05726,2.30908 2.28916,5.05266 3.18021,7.16301l0.4319,1.17883c0,0 0.23244,0.63571 -0.40326,0.86815c-0.63571,0.23244 -0.86815,-0.40326 -0.86815,-0.40326l-0.40786,-1.11771c-0.99048,-2.35221 -3.17008,-5.05461 -3.28567,-7.64026c-0.06537,-1.46128 1.56492,-5.05442 0.52796,-6.23699c-1.33219,-1.51927 -3.49195,-2.92411 -5.017,-4.36585c-4.49064,-4.27996 0.45613,-6.21024 -1.06642,-9.88673c-0.13618,-0.32885 -0.29171,-0.63226 -0.45689,-0.91935c-5.03869,2.4157 -8.19742,-5.8734 -11.75528,-5.71926c-1.67523,0.07259 -1.83261,1.34188 -3.91944,0.81836c-4.36463,-1.27504 -2.28579,-5.23614 -4.95803,-7.74823c-1.51933,-1.42828 -3.72878,-2.69681 -5.54358,-4.20204c-0.26604,0.64008 -0.45272,1.21444 -0.43203,1.6191c0.20612,4.03604 3.82839,5.83732 1.94766,10.18056l-0.03373,0.07789c0,0 -0.26901,0.62113 -0.89012,0.35213c-0.62113,-0.26901 -0.35213,-0.89012 -0.35213,-0.89012l0.03373,-0.07789c0.27735,-0.64024 0.29704,-1.4377 0.17531,-2.32621c-0.26729,0.09305 -0.53769,-0.03698 -0.53769,-0.03698c-5.25025,-2.60333 -0.14068,-6.67481 -4.63454,-9.66101l-0.44696,-0.30215c0,0 -0.56077,-0.3791 -0.18165,-0.93984z" fill="#000000" stroke-width="0.5"/></g><path d="M-15.5,30v-60h751v60z" fill="#000000" stroke-opacity="0.50196" stroke="#0d0d0d" stroke-width="0"/><path d="M-15.5,390v-60h751v60z" fill="#000000" stroke-opacity="0.50196" stroke="#0d0d0d" stroke-width="0"/><g data-paper-data="{&quot;index&quot;:null}" stroke-width="0"><path d="M154.42183,219.94368c-23.03714,4.6192 -45.45701,-10.31149 -50.07616,-33.34861c-4.61915,-23.03712 10.31158,-45.45692 33.3487,-50.07606c23.03714,-4.6192 45.45692,10.31146 50.07607,33.34858c4.61915,23.03712 -10.31148,45.45697 -33.3486,50.07611z" fill="#262626" stroke="#ff4a00"/><path d="M183.41783,170.74026c4.13718,20.6333 -9.23547,40.71362 -29.86877,44.85078c-20.63324,4.13718 -40.71361,-9.23551 -44.85078,-29.86877c-4.1371,-20.63317 9.23556,-40.71353 29.86886,-44.85069c20.63315,-4.1371 40.71356,9.2355 44.85073,29.86874z" fill="#000000" stroke="#ff4a00"/><path d="M150.71274,201.44517c-12.82067,2.57067 -25.29784,-5.73857 -27.86851,-18.55925c-2.57064,-12.8206 5.73865,-25.2977 18.55932,-27.86837c12.8206,-2.57063 25.29774,5.73852 27.86842,18.5592c2.57067,12.82067 -5.73854,25.29773 -18.55921,27.86842z" fill="#262626" stroke="#ff4a00"/><path d="M136.53072,130.71554c3.16987,-0.63558 10.00506,20.1227 15.26693,46.36496c5.2618,26.24229 6.95767,48.03105 3.7878,48.66664c-3.16987,0.63558 -10.00506,-20.1227 -15.26693,-46.36497c-5.26187,-26.24226 -6.95767,-48.03105 -3.7878,-48.66663z" fill="#000000" stroke="none"/><path d="M150.93025,181.47603c-14.83537,22.27675 -29.04319,38.88293 -31.73409,37.09095c-2.69089,-1.79205 7.15425,-21.30358 21.98963,-43.58039c14.83544,-22.27677 29.04318,-38.88295 31.73412,-37.09089c2.6909,1.792 -7.15418,21.30362 -21.9896,43.58035z" fill="#000000" stroke="none"/><path d="M142.81334,183.10364c-22.27673,-14.83542 -38.88297,-29.04321 -37.09091,-31.73414c1.79205,-2.69089 21.30359,7.15424 43.58039,21.98963c22.2768,14.83539 38.88291,29.04324 37.09087,31.73413c-1.79199,2.6909 -21.3036,-7.1542 -43.58033,-21.98962z" data-paper-data="{&quot;index&quot;:null}" fill="#000000" stroke="none"/><path d="M147.20887,183.97089c-26.24232,5.26184 -48.03106,6.95771 -48.66665,3.78784c-0.63559,-3.16987 20.12273,-10.00511 46.36499,-15.26698c26.24232,-5.26184 48.03109,-6.95764 48.66668,-3.78777c0.63558,3.16987 -20.12275,10.00503 -46.36501,15.26692z" data-paper-data="{&quot;index&quot;:null}" fill="#000000" stroke="none"/><path d="M155.12598,176.41316c1.00416,5.00809 -2.24158,9.88193 -7.24967,10.88609c-5.00811,1.00416 -9.88203,-2.24162 -10.88619,-7.24972c-1.00422,-5.00811 2.24167,-9.8819 7.24978,-10.88606c5.00805,-1.00418 9.88186,2.24161 10.88605,7.24966z" fill="#262626" stroke="#ff4a00"/></g><g stroke-width="0"><g stroke="#000000"><path d="M-7.50751,364.00104v-372.37237h735.015v372.37237z" fill="url(#color-1)"/><path d="M-7.5075,364.00104v-372.37237h735.015v372.37237z" fill="url(#color-2)"/></g><g stroke="none"><path d="M-5.24206,376.25329v-390.39039h155.90105v390.39039z" fill="url(#color-3)"/><path d="M571.60646,373.01003v-390.39039h155.90105v390.39039z" fill="url(#color-4)"/><path d="M-6.53233,110.48753v-127.62762h733.55954v127.62763z" fill="url(#color-5)"/><path d="M726.05204,249.75283v127.62762h-733.55954v-127.62762z" fill="url(#color-6)"/></g></g></g></g></svg>