<svg version="1.1" xmlns="http://www.w3.org/2000/svg" xmlns:xlink="http://www.w3.org/1999/xlink" width="794.78979" height="395.13514" viewBox="0,0,794.78979,395.13514"><defs><linearGradient x1="389.4044" y1="-7.68705" x2="389.4044" y2="115.68705" gradientUnits="userSpaceOnUse" id="color-1"><stop offset="0" stop-color="#323232"/><stop offset="1" stop-color="#121212"/></linearGradient><linearGradient x1="389.9915" y1="244.31295" x2="389.9915" y2="367.68705" gradientUnits="userSpaceOnUse" id="color-2"><stop offset="0" stop-color="#121212"/><stop offset="1" stop-color="#323232"/></linearGradient><linearGradient x1="46.68938" y1="179.68705" x2="279.70646" y2="179.68705" gradientUnits="userSpaceOnUse" id="color-3"><stop offset="0" stop-color="#505050"/><stop offset="1" stop-color="#252525"/></linearGradient><linearGradient x1="426.70651" y1="179.68705" x2="719.70651" y2="179.68705" gradientUnits="userSpaceOnUse" id="color-4"><stop offset="0" stop-color="#252525"/><stop offset="1" stop-color="#505050"/></linearGradient><linearGradient x1="384.91671" y1="186.68705" x2="735.75003" y2="186.68705" gradientUnits="userSpaceOnUse" id="color-5"><stop offset="0" stop-color="#333333"/><stop offset="1" stop-color="#909090"/></linearGradient><linearGradient x1="46.68938" y1="186.68705" x2="335.08333" y2="186.68705" gradientUnits="userSpaceOnUse" id="color-6"><stop offset="0" stop-color="#909090"/><stop offset="1" stop-color="#333333"/></linearGradient><radialGradient cx="360.00004" cy="180" r="90" gradientUnits="userSpaceOnUse" id="color-7"><stop offset="0" stop-color="#000000"/><stop offset="1" stop-color="#000000" stop-opacity="0"/></radialGradient><linearGradient x1="383.58338" y1="179.95833" x2="396.83338" y2="179.95833" gradientUnits="userSpaceOnUse" id="color-8"><stop offset="0" stop-color="#000000"/><stop offset="1" stop-color="#000000" stop-opacity="0"/></linearGradient><linearGradient x1="336.58338" y1="179.95833" x2="323.33333" y2="179.95833" gradientUnits="userSpaceOnUse" id="color-9"><stop offset="0" stop-color="#000000"/><stop offset="1" stop-color="#000000" stop-opacity="0"/></linearGradient><linearGradient x1="360.20838" y1="204.375" x2="360.20838" y2="211.625" gradientUnits="userSpaceOnUse" id="color-10"><stop offset="0" stop-color="#000000"/><stop offset="1" stop-color="#000000" stop-opacity="0"/></linearGradient><linearGradient x1="361.12504" y1="155.45833" x2="361.12504" y2="148.20833" gradientUnits="userSpaceOnUse" id="color-11"><stop offset="0" stop-color="#000000"/><stop offset="1" stop-color="#000000" stop-opacity="0"/></linearGradient><radialGradient cx="360.00001" cy="179.99998" r="362.61261" gradientUnits="userSpaceOnUse" id="color-12"><stop offset="0" stop-color="#000000" stop-opacity="0.83922"/><stop offset="1" stop-color="#000000" stop-opacity="0"/></radialGradient><radialGradient cx="360.00001" cy="179.99998" r="362.61262" gradientUnits="userSpaceOnUse" id="color-13"><stop offset="0" stop-color="#000000" stop-opacity="0"/><stop offset="1" stop-color="#000000"/></radialGradient><radialGradient cx="359.08336" cy="101.41667" r="77.5" gradientUnits="userSpaceOnUse" id="color-14"><stop offset="0" stop-color="#ebff00" stop-opacity="0.18039"/><stop offset="1" stop-color="#ebff00" stop-opacity="0"/></radialGradient><linearGradient x1="-17.50451" y1="183.24325" x2="143.32658" y2="183.24325" gradientUnits="userSpaceOnUse" id="color-15"><stop offset="0" stop-color="#000000"/><stop offset="1" stop-color="#000000" stop-opacity="0"/></linearGradient><linearGradient x1="738.41667" y1="180" x2="577.58559" y2="180" gradientUnits="userSpaceOnUse" id="color-16"><stop offset="0" stop-color="#000000"/><stop offset="1" stop-color="#000000" stop-opacity="0"/></linearGradient><linearGradient x1="359.5428" y1="-14.95495" x2="359.5428" y2="112.67268" gradientUnits="userSpaceOnUse" id="color-17"><stop offset="0" stop-color="#000000"/><stop offset="1" stop-color="#000000" stop-opacity="0"/></linearGradient><linearGradient x1="358.53679" y1="379.56562" x2="358.53679" y2="251.93799" gradientUnits="userSpaceOnUse" id="color-18"><stop offset="0" stop-color="#000000"/><stop offset="1" stop-color="#000000" stop-opacity="0"/></linearGradient></defs><g transform="translate(56.37312,15.1952)"><g data-paper-data="{&quot;isPaintingLayer&quot;:true}" fill-rule="nonzero" stroke-linecap="butt" stroke-linejoin="miter" stroke-miterlimit="10" stroke-dasharray="" stroke-dashoffset="0" style="mix-blend-mode: normal"><path d="M320.96099,217.53754v-75.07508h78.07808v75.07508z" fill="#000000" stroke="#000000" stroke-width="0"/><g stroke-width="0"><path d="M215.80306,155.15699v-47.65733h288.1672v47.65733z" fill="#121212" stroke="#000000"/><path d="M216.02984,252.50034v-47.65733h288.1672v47.65733z" fill="#121212" stroke="#000000"/><path d="M220.82473,249.41007v-139.06192l113.95352,44.80884l0.38628,49.63738z" fill="#252525" stroke="none"/><path d="M498.94856,110.34815v139.06192l-113.95352,-44.80884l-0.38628,-49.63738z" fill="#252525" stroke="none"/></g><path d="M46.10229,115.68705v-123.3741h686.6042v123.3741z" fill="url(#color-1)" stroke="#000000" stroke-width="0"/><path d="M46.68938,367.68705v-123.3741h686.6042v123.3741z" fill="url(#color-2)" stroke="#000000" stroke-width="0"/><path d="M46.68938,359.68705v-360l233.01711,134.5l-4.16102,94z" fill="url(#color-3)" stroke="none" stroke-width="0"/><path d="M719.70651,-0.31295v360l-281.5,-133.5l-11.5,-87z" fill="url(#color-4)" stroke="none" stroke-width="0"/><path d="M384.91671,187.85372v-15l350.83334,-98.66666v225z" fill="url(#color-5)" stroke="#000000" stroke-width="0"/><g stroke="#000000" stroke-width="0"><path d="M324.00003,49.74349c0,-6.18292 16.11775,-11.19516 36,-11.19516c19.88225,0 36,5.01224 36,11.19516c0,6.18292 -16.61775,16.69516 -36.5,16.69516c-19.88225,0 -35.5,-10.51224 -35.5,-16.69516z" fill="#181818"/><path d="M330.42026,55.73392c0,-5.08025 13.24331,-9.19861 29.57975,-9.19861c16.33645,0 29.57975,4.11836 29.57975,9.19861c0,5.08025 -13.65414,13.71774 -29.99058,13.71774c-16.33645,0 -29.16892,-8.63749 -29.16892,-13.71774z" fill="#404040"/></g><path d="M-27.24998,366.68705v-372.37237h76v372.37237z" fill="#505050" stroke="#000000" stroke-width="0"/><path d="M46.68938,299.18705v-225l288.39398,98.66667v15z" fill="url(#color-6)" stroke="#000000" stroke-width="0"/><path d="M-38.91665,298.86391v-224.17686l86.43936,-0.5v225.17686z" fill="#909090" stroke="#000000" stroke-width="0"/><path d="M270.00003,270v-180h180v180z" fill="url(#color-7)" stroke="#000000" stroke-width="0"/><path d="M383.58338,204.45833v-49l18,-7l-0.25,62.25z" fill="url(#color-8)" stroke="#000000" stroke-width="0"/><path d="M318.83333,210.70833l-0.25,-62.25l18,7v49z" fill="url(#color-9)" stroke="#000000" stroke-width="0"/><path d="M309.58333,215.125l24.25,-10.75h52.75l22,8.75z" fill="url(#color-10)" stroke="#000000" stroke-width="0"/><path d="M409.50004,146.70833l-22,8.75h-52.75l-24.25,-10.75z" fill="url(#color-11)" stroke="#000000" stroke-width="0"/><g stroke="#000000" stroke-width="0"><path d="M341.70838,124.6614c0,-3.14155 8.18946,-5.68828 18.29167,-5.68828c10.10221,0 18.29166,2.54673 18.29166,5.68828c0,3.14155 -8.44351,8.48284 -18.54572,8.48284c-10.10221,0 -18.03761,-5.34129 -18.03761,-8.48284z" fill="#060606"/><path d="M344.97052,127.70514c0,-2.58128 6.72895,-4.67383 15.02952,-4.67383c8.30058,0 15.02952,2.09255 15.02952,4.67383c0,2.58128 -6.93769,6.97001 -15.23827,6.97001c-8.30058,0 -14.82078,-4.38872 -14.82078,-6.97001z" fill="#272727"/></g><g stroke="#000000" stroke-width="0"><path d="M-2.61261,366.18619v-372.37237h725.22523v372.37237z" fill="url(#color-12)"/><path d="M-2.61262,366.18619v-372.37237h725.22523v372.37237z" fill="url(#color-13)"/></g><g><g><path d="M295.08333,116.41667v-30h128v30z" fill="#000000" stroke="#171717" stroke-width="7.5"/><text transform="translate(327.30901,105.4009) scale(0.34533,0.34533)" font-size="40" xml:space="preserve" fill="#ebff00" fill-rule="nonzero" stroke="none" stroke-width="1" stroke-linecap="butt" stroke-linejoin="miter" stroke-miterlimit="10" stroke-dasharray="" stroke-dashoffset="0" font-family="&quot;Agency FB&quot;, Sans Serif" font-weight="normal" text-anchor="start" style="mix-blend-mode: normal"><tspan x="0" dy="0">VV Prisons VV</tspan></text></g><path d="M281.58333,101.41667c0,-42.80207 34.69793,-77.5 77.5,-77.5c42.80207,0 77.5,34.69793 77.5,77.5c0,42.80207 -34.69793,77.5 -77.5,77.5c-42.80207,0 -77.5,-34.69793 -77.5,-77.5z" fill="url(#color-14)" stroke="#171717" stroke-width="0"/></g><path d="M-56.37312,379.93994v-394.89489h39.03904v394.89489z" fill="#000000" stroke="none" stroke-width="0"/><g stroke="none" stroke-width="0"><path d="M-17.50451,378.43844v-390.39039h160.83109v390.39039z" fill="url(#color-15)"/><path d="M577.58559,375.19519v-390.39039h160.83108v390.39039z" data-paper-data="{&quot;index&quot;:null}" fill="url(#color-16)"/><path d="M-18.83558,112.67268v-127.62762h756.75676v127.62763z" fill="url(#color-17)"/><path d="M736.91517,251.93799v127.62762h-756.75676v-127.62762z" data-paper-data="{&quot;index&quot;:null}" fill="url(#color-18)"/></g></g></g></svg>