<svg version="1.1" xmlns="http://www.w3.org/2000/svg" xmlns:xlink="http://www.w3.org/1999/xlink" width="184.92702" height="208.2346" viewBox="0,0,184.92702,208.2346"><g transform="translate(-267.53649,-75.88269)"><g data-paper-data="{&quot;isPaintingLayer&quot;:true}" fill-rule="nonzero" stroke="none" stroke-width="0.5" stroke-linecap="butt" stroke-linejoin="miter" stroke-miterlimit="10" stroke-dasharray="" stroke-dashoffset="0" style="mix-blend-mode: normal"><path d="M410.74265,229.85218c0.98249,0.90008 1.93443,1.91397 3.11078,2.54693c2.73386,1.471 5.77493,1.59141 8.74984,2.09619c4.7927,-0.0146 9.26594,-1.07464 13.80481,-2.45491c2.34379,-0.71275 4.40214,-2.0694 6.96571,-1.79929c0.64334,0.06778 1.3447,0.03656 1.90802,0.3546c4.24097,2.39435 0.18025,5.9193 -2.45309,7.26437c-5.70644,2.77577 -11.38528,5.82845 -17.98771,6.385c-2.23589,0.18847 -7.08691,-0.31454 -8.60225,1.6057c0.32835,0.6348 1.60916,0.51831 2.16263,0.7198c2.32135,0.84508 7.66714,2.2701 6.2178,5.74531c-1.33192,3.19368 -5.22426,1.36522 -7.36035,0.91868c-0.35252,-0.07369 -3.24537,-0.21746 -3.32195,0.38602c-0.1486,1.17101 1.43354,3.45854 1.74953,4.52353c2.13679,6.43823 -0.73611,10.26768 -3.88456,15.54093c-1.42952,2.39426 -3.43746,6.85213 -6.89667,6.59635c-2.03716,-0.15063 -3.70583,-1.89537 -5.24578,-3.05599c-1.82311,-1.82311 -4.32301,-3.84947 -5.72999,-6.01189c-4.75497,-7.30799 6.36627,-13.33192 8.55462,-19.28408c-0.0675,-1.25289 -1.76973,-0.57766 -2.53102,-0.44454c-1.68629,0.29487 -7.04735,0.27706 -6.45698,-2.97129c0.15236,-0.83832 1.23099,-1.19784 1.9556,-1.64609c2.06582,-1.27794 6.5096,-2.22165 7.28023,-5.12054c0.07887,-0.29667 -2.29695,-1.03476 -2.3594,-1.05405c-0.93568,-0.28893 -1.28511,-0.20413 -2.29344,-0.20269c-3.54834,0.55547 -6.63101,-0.13776 -10.09913,-0.76904c-5.7671,-1.04975 -11.75355,-1.40742 -13.96233,-7.83908c0,0 -0.39528,-1.18585 0.79057,-1.58114c0.25313,-0.08438 0.47024,-0.09671 0.65517,-0.06391l0.98625,0.02404c2.554,0.52483 5.05231,0.70279 7.63569,1.23305c4.53611,-0.00559 8.49723,1.27939 13.05336,0.04015c2.27677,-0.61926 4.02249,-2.18767 6.29849,-2.76376c0.00485,-0.00123 0.00973,-0.00247 0.01464,-0.00372c1.87892,-1.45813 4.53649,-1.08866 6.45263,-2.23834l0.33367,0.09747v-0.14282h1.25124c0.69036,0 1.25,0.55964 1.25,1.25c0,0.41416 -0.20142,0.78127 -0.51164,1.00873l-0.98935,0.74201l-0.019,-0.02533c-0.03853,0.03922 -0.07803,0.07759 -0.1186,0.11504c-0.11,0.10154 -0.22973,0.19409 -0.35806,0.27861z" fill="#4b4b4b"/><path d="M406.31978,236.12315c-1.26979,0.99972 -3.0619,1.23314 -4.64985,-0.1812c-3.502,-3.11913 0.91875,-9.08109 4.82404,-6.19801c0.2342,0.1729 0.44982,0.39776 0.64137,0.65945c0.51207,0.63199 0.7751,1.32508 0.84101,2.01628c0.1929,1.04224 0.06865,2.12683 -0.51824,2.85389c-0.3673,0.45503 -0.74751,0.71565 -1.13832,0.84958z" fill="#656565"/><path d="M408.04994,237.1174c0,-0.86294 0.69956,-1.5625 1.5625,-1.5625c0.86294,0 1.5625,0.69956 1.5625,1.5625c0,0.86294 -0.69956,1.5625 -1.5625,1.5625c-0.86294,0 -1.5625,-0.69956 -1.5625,-1.5625z" fill="#656565"/><path d="M415.98825,230.90401c-0.06687,2.23297 -2.71464,6.56747 -5.46563,3.39806c-1.20679,-1.39034 0.42649,-2.68323 -0.17445,-4.03598c-0.0475,-0.10694 -0.09862,-0.20688 -0.15289,-0.30074c-0.04992,-0.04359 -0.09945,-0.08978 -0.14854,-0.13862c-0.11409,-0.1135 -0.18883,-0.24264 -0.23329,-0.3835c-0.75956,-0.83734 -1.81234,-1.11717 -2.44463,-2.26148c-0.54627,-0.52725 -0.79705,-1.36874 -0.56884,-2.57586c0.04195,-0.22187 1.61305,-2.2413 1.80345,-2.49058c0.38636,-0.29511 0.75788,-0.60141 1.11578,-0.91794c0.80574,-1.20386 1.8784,-2.37489 3.0493,-3.3116c3.72605,-4.8941 5.77183,-11.03935 8.91004,-16.30021c0,0 0.64312,-1.07187 1.71499,-0.42875c0.0081,0.00486 0.01611,0.00975 0.02402,0.01466c0.08546,-0.11135 0.17127,-0.2226 0.25742,-0.33377l0.94827,-1.89654c0.20043,-0.42281 0.63114,-0.7152 1.13014,-0.7152c0.19877,0 0.3867,0.04639 0.55356,0.12895l0.02676,-0.06689c0.01788,-0.0479 0.03862,-0.0944 0.06201,-0.13931l0.12938,-0.64691c0.10493,-0.58424 0.61583,-1.02756 1.23027,-1.02756c0.69036,0 1.25,0.55964 1.25,1.25c0,0.07684 -0.00693,0.15206 -0.02021,0.22508l-0.23267,1.42045l-0.04886,-0.008l0.02778,0.10992c-0.04071,0.11992 -0.08161,0.23977 -0.12268,0.35955l-0.11792,0.58961l-0.08013,-0.01603c-0.08776,0.25248 -0.17617,0.5047 -0.26508,0.75671c0.04688,1.347 -0.32554,2.87946 -0.83654,4.40068c0.12336,0.19374 0.19483,0.42375 0.19483,0.67045c0,0.20995 -0.05176,0.4078 -0.14321,0.58151l-0.7395,1.47899l-0.08028,-0.04014l-0.20555,0.36053c-0.28615,0.57327 -0.58173,1.24636 -0.89232,1.97565c0.13262,0.33745 0.16506,0.80974 -0.30723,1.28204c-0.11591,0.11591 -0.23182,0.20142 -0.34574,0.26251c-0.34042,0.80186 -0.70038,1.63153 -1.0858,2.44261l-0.00217,0.00761l-0.00127,-0.00036c-0.20414,0.42937 -0.41542,0.85349 -0.63472,1.26547c-0.4505,1.49102 -1.20432,2.86682 -2.26849,4.57495l-0.01582,0.01154l0.00574,0.00383l-0.99023,1.48535c-0.22257,0.34463 -0.61005,0.57276 -1.05082,0.57276c-0.00055,0 -0.0011,0 -0.00165,0l0.00066,0.0005l-0.29896,0.39861c0.17236,0.18488 0.29871,0.45595 0.29871,0.85336c0,1.25 -1.25,1.25 -1.25,1.25h-0.25025c-0.02478,0 -0.04956,-0.00011 -0.07432,-0.00033c-0.2133,1.07002 -0.9504,3.44692 -1.05834,3.81072l-0.19303,0.13896l0.07347,0.0551l-0.25919,0.34559l0.24194,1.45163l-0.03525,0.00588z" fill="#656565"/><path d="M427.51082,205.41834c-0.01714,0.08983 -0.04417,0.17391 -0.07603,0.25056c-0.13566,0.44045 -0.2847,0.89522 -0.40926,1.31756c-0.07573,0.46021 -0.14596,0.86028 -0.23624,1.262h0.2141v1.50148c0,0.27902 -0.09142,0.53668 -0.24593,0.74468c-0.04352,0.25023 -0.18433,0.51583 -0.50432,0.75582c-1,0.75 -1.75,-0.25 -1.75,-0.25c-1.33606,-1.81001 -2.00139,-3.83564 -0.89187,-6.01491c0.46844,-0.9201 2.54865,-3.57609 4.11378,-1.52862c0.22591,0.29553 0.04844,1.0804 -0.21423,1.96143z" fill="#8c8c8c"/><path d="M430.19245,176.59105l-0.02593,0.00864l0.04476,0.05311c0.50523,2.30106 0.75719,4.57923 0.6215,6.8133l0.02844,0.12653l0.13468,-0.01835l0.21792,1.59975c0.00939,0.06176 0.01425,0.12501 0.01425,0.18939c0,0.4995 -0.29298,0.93058 -0.71648,1.13075c-0.00308,0.16903 -0.00497,0.33658 -0.00475,0.50204v1.50148c0,0.46228 -0.25094,0.86594 -0.62403,1.08221c0.2028,1.28381 0.41304,2.55995 0.61977,3.81963c-0.01198,1.04166 -0.21256,2.09718 -0.58564,3.06981l-0.54306,1.09577c0,0 -0.37354,0.74709 -1.12063,0.71451c-0.34761,0.22672 -0.74814,0.22672 -0.74814,0.22672l-0.25535,-0.02427c-1.90363,0.18816 -1.15387,2.40966 -2.83189,3.33524c-5.4547,3.00876 -3.78431,-4.65041 -2.86563,-6.91913c1.02627,-5.25437 1.94795,-9.8721 1.45392,-15.30629c-0.27572,-3.03287 -2.17313,-5.6989 -2.25648,-8.61151c0,0 0,-1.24433 1.2415,-1.24998c0.28131,-0.68963 0.68676,-1.27874 1.20215,-1.63853c0.36047,-0.51638 0.8454,-0.84694 1.49468,-0.8623c1.88878,-0.04469 2.23139,1.52538 2.09082,3.08376c0.55405,0.76284 0.83194,1.92408 0.83985,3.13499c0.02901,0.06058 0.05711,0.12197 0.08435,0.18412c0.2222,-0.20281 0.51786,-0.32649 0.84241,-0.32649c0.64467,0 1.17536,0.48803 1.24277,1.11479l0.1842,1.51013z" fill="#8c8c8c"/><path d="M406.73583,158.48485c0,-0.38977 0.12154,-0.658 0.28882,-0.8426c-0.17197,-0.53252 0.13957,-1.05176 0.13957,-1.05176c1.94536,-3.15771 5.76767,-4.18401 9.28028,-2.77501c4.87265,1.95455 10.25059,8.70767 10.30865,13.92851c-0.01482,3.34872 -2.34031,5.53496 -5.78193,3.88574c-2.44576,-1.172 -3.45599,-3.64059 -5.15813,-5.55456c-2.32686,-2.61644 -5.07924,-4.54574 -7.8265,-6.59033l-0.00074,0.25c0,0 -1.25,0 -1.25,-1.25z" fill="#bebebe"/><path d="M409.98855,159.98535c-1,-0.75 -0.25,-1.75 -0.25,-1.75c1.7712,-2.03471 6.48509,-1.85327 5.70704,2.08849c-0.13091,0.66322 -0.96971,0.94216 -1.45456,1.41324l-1.88413,-0.36636c0,0 -0.31089,-0.31089 -0.37953,-0.74829c-0.14244,-0.06778 -0.38477,-0.20949 -0.55619,-0.44954c-0.30662,0.13156 -0.71759,0.16124 -1.18262,-0.18754z" fill="#e6e6e6"/><path d="M412.49028,151.97966c0,0 1.03717,0 1.222,0.94475c0.18717,0.12807 0.35565,0.3346 0.46435,0.6607c0.39528,1.18585 -0.79057,1.58114 -0.79057,1.58114l-0.90088,0.29012c-1.18628,0.2319 -2.30891,0.2146 -3.48864,0.4159c-0.47888,0.2914 -0.38264,1.06795 -0.70394,1.52731c-0.56358,0.80574 -2.23471,1.71909 -3.19545,1.82954c-2.09806,0.24119 -4.61983,-1.10342 -6.60685,-1.5188c-2.54451,-0.53192 -5.78998,1.35619 -8.03139,-0.48555c-2.13863,-1.75728 -1.18552,-3.58943 0.51085,-4.99511c0,0 0.58533,-0.439 1.19623,-0.19745c3.49697,-2.01469 8.97088,-1.98002 12.79198,-1.28331c0.35662,0.06502 0.91365,0.17177 1.51668,0.33848c0.24926,-0.11018 0.48266,-0.15036 0.68697,-0.09615c0.65727,0.17441 1.11157,0.4122 1.40929,0.68978c0.08005,0.00418 0.16019,0.00812 0.24041,0.01183c0.40598,-0.0779 0.7687,-0.09317 1.0528,0.03321c0.2074,0.00327 0.41545,0.00448 0.62419,0.00335h1.25124c0.28161,0 0.54147,0.09313 0.75047,0.25026z" fill="#e6e6e6"/><path d="M403.08682,263.11356c0.37715,0.15708 0.75429,0.31415 1.13144,0.47123c1.68569,0.11316 2.9255,-3.19 5.06055,-1.49096c1.30517,1.03863 0.24815,2.87277 -0.11925,3.8991c-0.94993,2.65361 -2.00276,8.80387 -6.18829,6.06764c-0.48909,-0.31974 -0.78166,-0.87835 -1.08009,-1.38073c-0.0412,-0.06935 -1.00833,-2.48816 -1.07188,-2.65064c-0.62818,-1.60617 -0.5899,-2.76138 -0.5899,-4.46819c0,0 0,-1.25 1.25,-1.25c0.67615,0 0.98656,0.36574 1.12906,0.70155l0.36732,0.07346l-0.00723,0.03615z" fill="#5a9fff"/><path d="M396.15578,163.56035c0.98413,-0.14543 1.84613,0.42923 1.84613,0.42923l0.61358,0.41368c2.71022,2.03755 7.93031,5.11966 9.26856,8.27561c2.91323,6.87015 -6.01315,11.08485 -11.03138,7.11565c-1.29044,-1.02068 -2.26546,-2.59928 -2.56507,-4.21707c-0.20357,-1.09918 0.93259,-2.04554 1.20444,-3.12985c0.54397,-2.16972 -2.52147,-5.2966 -4.04597,-6.37921c0,0 -2,-1.5 -0.5,-3.5c1.5,-2 3.5,-0.5 3.5,-0.5c0.57189,0.44452 1.14973,0.94484 1.70971,1.49196z" fill="#e6e6e6"/><path d="M375.31997,171.0457l0.11292,0.6944c-0.09487,4.26705 2.7271,7.59825 -0.33252,11.83921c-3.61949,5.01699 -12.0792,4.35699 -12.83549,-2.52434c-0.60476,-5.50268 5.77518,-9.6209 9.06702,-12.91718c0,0 1.76776,-1.76776 3.53553,0c1.1186,1.1186 0.82155,2.23721 0.45254,2.90791z" fill="#e6e6e6"/><path d="M390.10996,109.38761c0.16273,-1.38926 0.86999,-2.78756 2.0935,-3.93986c0.84742,-1.85299 2.34923,-3.29856 4.89565,-3.62184c4.3795,-0.55601 8.52422,3.8977 6.99007,8.31055c-0.46534,1.33851 -1.75248,2.25774 -2.849,3.15541c-0.04788,0.0392 -0.09618,0.07806 -0.14489,0.11655c-0.90223,2.63612 -2.72467,5.16587 -4.25756,6.30598c-1.20375,0.8953 -2.6335,2.03935 -4.11721,1.8176c-3.67288,-0.54892 -4.86,-3.01164 -4.70803,-5.81227c-0.02435,-0.47444 -0.02481,-0.97476 -0.00701,-1.49547c0.05966,-1.74533 1.0597,-3.37597 2.10448,-4.83664z" fill="#e6e6e6"/><path d="M383.55401,154.69448c-0.10672,-0.3296 -0.23615,-1.0876 0.62167,-1.51651c1.11804,-0.55901 1.67705,0.55902 1.67705,0.55902l0.13196,0.30902c0.53278,0.71038 1.06236,1.42317 1.5897,2.13759c1.28771,3.17479 2.33236,7.30706 4,10.25c0.98899,1.7453 2.39054,2.88808 2.4103,5.11241c0.03335,3.75508 -3.18185,5.2423 -6.5,5.25c-1.39071,0.00322 -2.62599,-0.00664 -3.99514,-0.27428c-1.74203,-0.34841 -4.68416,-0.5681 -5.62289,-2.41671c-0.79428,-1.56414 0.37345,-4.55534 0.95744,-6.02326c1.64569,-4.13657 3.5814,-8.41113 4.43487,-12.7809c0,0 0.06493,-0.32465 0.29504,-0.60638z" fill="#e6e6e6"/><path d="M387.08779,110.05026c1.43401,0.1238 3.17266,0.73317 3.6741,1.70629c1.67627,0.54493 3.3502,1.12412 4.95863,1.79237c0.79904,-0.04271 1.60064,0.05037 2.06354,0.53608c0.22084,0.23173 0.40221,0.45497 0.54713,0.67023c0.19556,0.10115 0.38944,0.20428 0.58152,0.30952c1.10899,0.25944 2.12007,0.68902 2.6749,1.27146c1.38648,0.40212 2.58076,1.90384 3.1379,3.44485c1.06813,0.62264 1.97784,1.73252 2.31416,2.95557c1.16573,1.53463 1.50002,4.02769 0.62986,5.63816c0.02689,0.19353 0.04884,0.3876 0.06202,0.5826c0.01277,0.18895 0.01814,0.37459 0.0162,0.55578c0.07288,0.19084 0.14258,0.37715 0.21439,0.54645c0.63567,1.49857 0.06389,6.87393 -1.98618,7.2135c0.3095,3.05297 -3.55783,7.99384 -5.70213,6.43609c-0.51424,0.42398 -1.07945,0.96093 -1.64916,0.85035c-0.13653,0.30257 -0.38997,0.54105 -0.70276,0.65784l-1.22296,0.48919l-0.0047,-0.01173l-0.0296,0.02486c-2.43183,0.80357 -4.64331,1.27759 -6.92994,0.96445v0.36183h-1.25c-0.54728,0 -1.01243,-0.35172 -1.18171,-0.84145l-0.06343,0.31717l-1.17753,-0.2355c-0.59713,0.33515 -1.3321,0.48714 -2.10935,0.53314c-0.20317,0.1428 -0.45078,0.22664 -0.71798,0.22664c-0.2779,0 -0.53461,-0.09069 -0.74217,-0.24408c-0.30811,-0.02143 -0.61371,-0.05169 -0.91122,-0.08625c-0.22267,0.20508 -0.52001,0.33034 -0.84661,0.33034c-0.41415,0 -0.78127,-0.20142 -1.00873,-0.51164l-0.13016,-0.17355l-0.00423,0.00705l-0.1189,-0.07134c-0.07818,-0.00034 -0.15749,-0.00052 -0.23798,-0.00052h-1.25c-0.13065,0 -0.25662,-0.02005 -0.375,-0.05723c-0.11838,0.03718 -0.24435,0.05723 -0.375,0.05723c-0.49478,0 -0.92241,-0.28746 -1.125,-0.70449c-0.20259,0.41702 -0.63022,0.70449 -1.125,0.70449c-0.41415,0 -0.78127,-0.20142 -1.00873,-0.51164l-0.74122,-0.9883c-0.22805,0.30357 -0.59112,0.49994 -1.00004,0.49994c-0.62742,0 -1.14687,-0.46225 -1.23637,-1.06477l-0.02896,-0.1738c-0.20623,0.15006 -0.46011,0.23857 -0.73467,0.23857c-0.53655,0 -0.99415,-0.33806 -1.17141,-0.8128l-0.38109,-0.95272c-0.06433,0.01021 -0.1303,0.01552 -0.1975,0.01552c-0.61444,0 -1.12533,-0.44333 -1.23026,-1.02756l-0.19493,-0.97464c-0.02475,0.00146 -0.04969,0.0022 -0.07481,0.0022c-0.69036,0 -1.25,-0.55964 -1.25,-1.25v-1.25h0.0417l-0.03855,-0.08861c0.01848,-0.12941 0.03175,-0.26735 0.04116,-0.41216c-0.0147,0.00051 -0.02947,0.00077 -0.0443,0.00077c-0.69036,0 -1.25,-0.55964 -1.25,-1.25c0,-0.0674 0.00534,-0.13356 0.0156,-0.19807l0.04516,-0.31616c-0.52774,-0.08014 -0.94708,-0.49026 -1.04103,-1.01333l-0.24546,-1.22729l0.26045,-0.05209c-0.00429,-0.01257 -0.00851,-0.02513 -0.01267,-0.03769c-0.45322,-0.18769 -0.77205,-0.6343 -0.77205,-1.15537c0,-0.09286 0.01013,-0.18337 0.02934,-0.27045l0.24494,-1.22469l0.21064,0.04213l0.10449,-0.26122l0.0419,0.01676c0.01494,-0.24099 0.04102,-0.48031 0.07973,-0.71657l-0.39689,-1.19066l0.42012,-0.14004c-0.95879,-2.94065 -0.4169,-6.07871 1.48192,-8.95789c0.39657,-0.60131 1.07475,-1.52168 1.88748,-2.24838c0.94491,-1.42036 2.08823,-2.74752 3.01245,-3.68286c0.65426,-0.65116 1.08609,-1.53333 1.83295,-2.07581c0.70447,-0.51167 1.52078,-0.85572 2.32258,-1.19516c1.34995,-0.57149 2.83168,-0.51543 3.88327,0.06364c0.12158,-0.02082 0.23772,-0.04029 0.34508,-0.05792v-0.35087h0.21461c-0.25735,-1.22108 -0.40344,-2.55554 -0.60417,-3.72579c-0.32252,-0.7138 -0.60906,-1.43867 -0.8142,-2.18739c-0.10395,-0.37938 -0.19395,-0.76067 -0.27263,-1.14347c-0.83366,-1.64501 -1.96907,-3.2253 -2.64342,-4.88789c-5.07587,-8.63759 0.23269,-24.49264 12.23221,-19.64516c9.26045,6.87197 1.88349,19.92813 -2.04909,27.74687c-0.662,0.88267 -1.21955,1.84374 -1.76191,2.81534c0.85329,0.3325 1.74024,0.64619 2.64932,0.95105c0.6524,0.00369 1.2907,0.0279 1.90238,0.0807zM373.29677,144.70549c-0.01932,0.03106 -0.03997,0.06121 -0.06187,0.09036l0.09034,-0.06776z" fill="#e6e6e6"/><path d="M296.37818,245.53497c0.23044,-0.59688 0.6205,-0.98692 0.6205,-0.98692l2.73613,-0.8768c6.32738,1.98596 7.85275,5.95808 9.88893,11.81202c1.6186,4.65341 3.4437,9.17383 3.8773,14.10958c-0.58127,1.50577 -0.64587,3.3342 -1.74381,4.51731c-1.40729,1.51644 -4.50303,1.40141 -6.37083,1.67813c-4.38536,0.64972 -14.9897,1.28744 -17.40895,-3.71722c-0.49773,-1.02963 0.29667,-5.70039 0.6258,-6.90837c1.7899,-6.56935 5.56673,-12.52705 7.51862,-19.06526c0,0 0.07473,-0.24908 0.2563,-0.56247z" fill="#e6e6e6"/><path d="M272.78031,218.05272c0.25687,-2.47231 2.73489,-2.2245 2.73489,-2.2245c3.24032,0.33204 6.55512,0.7524 9.2797,2.75926c0.67572,0.49772 0.96537,1.40819 1.63391,1.91551c2.13224,1.61806 6.85652,-1.47154 8.41232,0.85387c2.59796,3.88309 -0.46306,6.97307 -3.2263,8.45475c-5.30258,2.84329 -13.41738,1.80212 -17.60057,-2.46259c-1.45237,-1.48067 -4.05175,-4.90524 -3.12929,-7.29382c0.33773,-0.87451 1.07912,-1.46484 1.89535,-2.00247z" fill="#e6e6e6"/><path d="M297.97316,224.35454c-0.27064,-0.36067 -0.45673,-0.85665 -0.45673,-1.53872c0,-2.5 2.5,-2.5 2.5,-2.5l-0.42847,0.17881c5.08425,-2.02522 7.83064,-2.36737 12.37842,0.98811c3.14498,3.60944 5.65792,7.98547 2.98782,12.79291c-0.97525,1.75591 -3.24603,2.39137 -4.67,3.80794c-1.52992,1.52196 -2.09835,4.14482 -4.06106,5.04193c-1.0838,0.49538 -2.37846,0.20326 -3.57,0.18773c-3.02424,-0.03942 -8.184,-0.49058 -9.69641,-3.79072c-0.57639,-1.25771 0.11921,-2.77674 0.40234,-4.13097c0.83157,-3.97744 3.6351,-7.19713 4.61409,-11.03702z" fill="#e6e6e6"/><path d="M317.33265,165.99676c6.2858,-2.55059 16.62409,-0.16694 20.10298,6.07623c2.92222,5.24417 1.07136,11.61854 -1.44085,16.52128c-3.36991,2.8408 -6.46209,4.34134 -10.6997,1.4927c-1.90911,-1.28336 -2.57729,-3.79825 -4.30629,-4.57289c4.72719,5.18814 2.62112,16.62473 -1.98428,21.3487c-5.73269,5.88029 -15.83955,5.24461 -23.38852,5.17075c-4.90087,-1.58987 -10.91545,-2.47217 -14.30029,-6.90419c-4.36874,-5.72034 -2.56178,-17.17772 2.79623,-21.93772c2.47233,-2.19638 6.09558,-3.44667 9.77576,-4.03851c-0.10105,-0.34819 -0.11863,-0.68305 -0.11124,-0.92937c-2.15879,-6.49132 -3.04208,-13.61345 -3.98564,-20.30966c-0.38996,-2.76744 -0.93579,-6.8996 0.94934,-9.31256c4.22421,-5.40697 11.74944,-3.27167 13.67778,2.76942c1.05167,3.29467 -0.16669,6.64471 -1.26877,9.70159c-1.50561,5.53572 -2.71235,11.11898 -4.22082,16.65107l-0.01217,0.06263c0.11475,0.3143 0.23338,0.62672 0.35612,0.93707c0.94394,-0.00257 1.85188,0.03308 2.70175,0.10115c0,0 0.41694,0.03474 0.89548,0.24638c1.00582,0.0212 2.09483,0.10225 3.22818,0.24446c1.79646,-5.9221 5.19322,-10.86699 11.23493,-13.31853z" fill="#e6e6e6"/><path d="M297.40877,226.96459c0.56939,-1.02796 1.64168,-0.49182 1.64168,-0.49182c1.70114,0.85989 3.57647,0.70036 5.23627,1.53218c0.70089,0.35126 1.87417,0.4586 2.00353,1.23182c0.41938,2.50652 -2.20651,2.76792 -3.60978,2.80398c-2.06762,0.05312 -4.0378,-1.31725 -5.68241,-2.40989l-0.55662,-1.44006c0,0 0,-1.05363 0.96733,-1.22622z" fill="#84d186"/><path d="M283.89144,194.19081c0,-1.38071 1.11929,-2.5 2.5,-2.5c0.11033,0 0.21901,0.00715 0.32557,0.02101c0.26535,-0.99412 0.61647,-1.89395 1.0353,-2.63289c0.75239,-1.3274 1.53245,-2.89193 2.9211,-3.52419c3.66963,-1.67081 6.59212,0.31464 8.21623,3.45203c0.1915,0.36993 0.28249,0.77024 0.32482,1.18525c0.30941,0.51182 0.57067,1.07662 0.77398,1.68856c1.75502,5.2825 -1.44644,15.25496 -8.48486,13.51373c-3.68347,-0.91125 -5.20499,-4.7682 -5.33831,-8.7136c-1.27473,-0.11431 -2.27382,-1.18543 -2.27382,-2.4899z" fill="#191919"/><path d="M315.99144,191.69081c1.38071,0 2.5,1.11929 2.5,2.5c0,1.34994 -1.06996,2.44998 -2.40809,2.49834c-0.26299,4.28499 -2.10761,8.35905 -5.88754,9.12751c-6.87003,1.39668 -9.06546,-6.32824 -8.90253,-11.32179c0.05939,-1.82011 0.25101,-4.98803 1.52765,-6.44259c0.1952,-0.22241 0.39957,-0.43207 0.61196,-0.62798c0.32615,-0.76989 0.68187,-1.50969 1.36926,-1.91191c2.60124,-1.52205 6.16899,-0.60775 8.26365,1.22194c1.23541,1.07913 2.12333,2.88787 2.6123,4.97594c0.10265,-0.01283 0.20723,-0.01945 0.31336,-0.01945z" fill="#191919"/><path d="M315.96242,177.15963c-0.0966,0.02009 -0.20325,0.03118 -0.32098,0.03118c-1.25,0 -1.25,-1.25 -1.25,-1.25c0.20769,-7.19433 9.4459,-4.85416 11.85385,-0.2532c1.20752,2.30727 1.99349,8.53478 -2.46573,7.98786c-2.6144,-0.32065 -3.43608,-3.69635 -4.54883,-5.54511c-0.61749,-0.45633 -2.22292,-0.61354 -3.26831,-0.97073z" fill="#fec1ff"/><path d="M304.89093,205.23687c0.81328,0.40664 0.40664,1.21992 0.40664,1.21992l-0.09877,0.19402c-0.58884,1.29415 -1.45096,2.48041 -3.15259,2.09044c-0.415,-0.09511 -0.72357,-0.46064 -1.02729,-0.75902c-0.10926,-0.10734 -0.20248,0.0113 -0.35579,0.13059c-2.06412,1.60607 -3.85692,0.05215 -4.55812,-1.89637c0,0 -0.28754,-0.86261 0.57508,-1.15015c0.86262,-0.28754 1.15015,0.57507 1.15015,0.57507c0.78325,2.66941 1.3997,0.17357 2.77973,0.11311c0.397,-0.01739 0.72188,0.121 0.9991,0.30635c0.85321,0.57048 1.25492,1.58587 1.91823,-0.1264l0.14371,-0.29093c0,0 0.40664,-0.81328 1.21992,-0.40664z" fill="#191919"/><path d="M326.06052,181.19647c-0.00598,-3.10733 -0.48841,-6.44406 -3.53211,-8.1663c-3.01887,-1.70819 -6.84216,-0.47356 -7.53006,2.72849l0.51808,-0.19285c2.64026,0.03412 4.38322,-0.28496 6.79419,1.53391c0.99629,0.75162 1.55346,1.96621 2.16837,3.05222c0.34528,0.6098 0.7162,1.49695 1.13357,2.47537c0.31059,-0.26261 0.37909,-0.64166 0.44796,-1.43085zM323.75447,170.85145c3.89719,2.24169 4.80824,6.40187 4.80122,10.50036c-0.27038,1.85063 -0.6952,2.76304 -1.93852,3.50849c1.52945,3.11456 3.64376,5.79704 6.94932,2.62243c0.47522,-0.45639 0.97979,-0.90758 1.3182,-1.47293c0.39261,-0.6559 1.18272,-3.33487 1.40825,-4.05703c-0.07758,-8.33118 -5.62207,-15.31567 -14.40197,-14.89007c-1.96708,0.09536 -4.73365,0.16781 -6.35381,1.4874c-2.5467,2.07422 -4.21018,5.10807 -5.47345,8.15781c0.54636,0.1344 1.08629,0.27779 1.619,0.43198c0.3068,-0.24236 0.56838,-0.35862 0.56838,-0.35862l0.14654,-0.05454c0.23921,-5.71605 6.31974,-8.77265 11.35683,-5.87528zM312.49572,164.58152c2.14857,-1.62288 3.88094,-1.86535 6.42245,-2.24133c8.7823,-1.29921 17.3098,2.49987 20.90162,11.00375c1.26896,3.00433 1.43888,6.13604 1.42014,9.33491c-0.47094,1.61542 -1.19639,4.49663 -2.09175,5.94297c-0.58577,0.94623 -1.36232,1.77412 -2.1818,2.52707c-0.81857,0.75212 -1.66711,1.54604 -2.69958,1.95804c-1.24538,0.49697 -2.62447,0.80453 -3.96126,0.69996c-1.56329,-0.12229 -2.9533,-0.65882 -4.16019,-1.46782c0.15738,1.23251 0.18188,2.50633 0.03044,3.93109c-0.40014,3.76442 -1.42035,8.43206 -3.65623,11.58241c-3.10775,4.37882 -7.94373,6.4907 -12.98915,7.39939c-8.93835,1.60983 -17.3614,1.02004 -25.43512,-3.38735c-2.52029,-2.07404 -4.82943,-4.38209 -6.26223,-7.40162c-4.2585,-8.97448 0.35924,-21.87076 8.83405,-26.65186c4.07171,-2.29708 9.05939,-3.10398 13.65236,-2.61257l-0.00003,0.00001c0.62758,-0.16631 1.183,-0.07375 1.183,-0.07375l1.16915,0.19505c0.80984,0.12511 1.61413,0.25237 2.41073,0.38654c1.63,-4.12538 3.8605,-8.44128 7.4134,-11.12491zM301.56898,180.20475c-0.57304,0.13156 -1.05769,0.057 -1.05769,0.057c-5.04663,-0.81265 -11.46268,0.65093 -14.91155,4.74412c-5.76671,6.84406 -5.77284,16.98367 1.28787,22.71114c6.89317,3.75556 14.18621,3.95301 21.76488,2.61265c3.80775,-0.67344 7.41741,-2.08186 9.81084,-5.40061c1.75621,-2.43517 2.40461,-6.327 2.74376,-9.21759c0.29822,-2.5417 -0.21776,-4.33027 -1.00791,-6.72286c-3.68865,-6.76064 -11.24067,-7.64755 -18.28789,-8.72685z" fill="#191919"/><path d="M295.97476,165.85748c-1.25,0 -1.25,-1.40297 -1.25,-1.40297c0.00362,-3.04145 -1.28446,-7.55007 0.13546,-10.36252c1.37571,-2.72487 4.47429,-2.80609 5.02721,0.71022c0.3615,2.29896 -1.53109,6.03923 -2.03333,8.309l0.03732,0.78211c0,0 0,1.09848 -0.866,1.35146c-0.16825,0.31878 -0.47852,0.61271 -1.05066,0.61271z" fill="#fec1ff"/><path d="M300.26644,178.56581c-2.5,0 -2.5,-2.5 -2.5,-2.5l0.17881,-2.42848c3.02698,-7.56745 6.09232,-14.06414 5.3609,-22.37775c-1.22029,-5.57216 -9.754,-5.15597 -11.41041,0.07366c-2.65677,8.38795 3.60788,17.30683 4.36044,25.50623c0,0 0.22634,2.48974 -2.2634,2.71608c-2.48973,0.22634 -2.71607,-2.2634 -2.71607,-2.2634c-0.81557,-9.06556 -7.35827,-18.12526 -4.13956,-27.49377c2.68086,-7.80302 15.07653,-10.96614 19.99862,-3.05865c0.66807,1.07326 0.72731,2.42154 1.09097,3.63231c0.8736,9.37234 -2.22865,16.59613 -5.6391,25.12225l0.17881,0.57153c0,0 0,2.5 -2.5,2.5z" fill="#191919"/><path d="M298.03053,168.53401c0.07416,0.36683 0.08095,1.04151 -0.73003,1.38907c-1.14893,0.4924 -1.64133,-0.65653 -1.64133,-0.65653c-1.81144,-4.26099 -4.51039,-11.75941 -2.13163,-16.22629c1.33274,-2.50263 4.79011,-3.14048 6.75432,-0.88321c1.15537,1.32775 0.94333,3.28026 0.75499,4.84662c-0.89452,3.60206 -1.94863,7.13723 -2.8494,10.74032l-0.15362,0.77531c0,0 -0.00104,0.00515 -0.0033,0.01471zM296.48149,164.3699c0.69891,-2.60921 1.43682,-5.20059 2.09787,-7.82528c0.11287,-0.85676 0.33182,-2.04109 -0.24501,-2.82004c-1.18044,-1.59407 -2.78138,0.39534 -2.95905,1.58313c-0.42966,2.87244 0.16294,6.0951 1.10619,9.0622z" fill="#191919"/><path d="M300.68311,222.46179c-0.95664,3.69002 -2.1135,7.32368 -3.62011,10.84185c-0.63036,1.472 -2.8317,4.4702 -2.82399,6.14285c0.00471,1.02147 1.69427,1.18417 2.65588,1.52874c2.74718,0.9844 9.30004,1.92782 11.01411,-0.99156c0.30202,-2.62106 -2.33531,-5.48101 -3.42316,-7.89372c-1.45301,-3.22258 -2.68471,-6.38934 -3.80273,-9.62816zM298.99422,211.72174c0.31727,-0.3006 0.77117,-0.5383 1.41867,-0.6308c2.47487,-0.35356 2.82843,2.12132 2.82843,2.12132l0.16969,1.38518c1.31109,4.37031 2.39038,8.75823 4.36181,12.89192c0.77272,1.62025 1.37016,3.32407 2.20618,4.91259c0.83528,1.58712 2.67133,3.32649 2.98345,5.14708c0.23165,1.35126 -0.2257,2.73262 -0.33856,4.09893c-0.79008,1.14246 -1.2848,2.56063 -2.37023,3.42739c-0.93188,0.74415 -2.23188,0.8517 -3.38222,1.16616c-5.18453,1.41726 -16.22278,0.74059 -17.57757,-6.05636c-0.52531,-2.63544 2.18628,-6.5497 3.17601,-8.85715c2.43918,-5.68673 3.88589,-11.70633 5.09511,-17.75246c0,0 0.27285,-1.36428 1.42923,-1.85378z" fill="#191919"/><path d="M314.07223,239.54286c-0.26094,0.70123 -0.87251,1.52295 -2.30579,1.52295c-2.5,0 -2.5,-2.5 -2.5,-2.5l0.73224,-2.01777c1.43725,-1.43045 3.5062,-3.08811 3.78713,-5.29281c0.86543,-6.79179 -5.29023,-10.7179 -10.96658,-11.72975c0,0 -2.45968,-0.44721 -2.01246,-2.90689c0.44722,-2.45968 2.90689,-2.01246 2.90689,-2.01246c8.10772,1.49898 16.46139,7.83204 15.03342,17.27025c-0.49908,3.29865 -2.48694,5.46033 -4.67485,7.66647z" fill="#191919"/><path d="M292.96641,224.15901c-2.27301,0.5735 -4.73004,0.39264 -7.48744,-0.81864c-2.25324,-0.9898 -5.60573,-4.62517 -8.27348,-4.28171c-0.71296,0.09179 -1.32838,0.54987 -1.99389,0.82161c-0.691,0.28215 -1.45885,0.41969 -2.07561,0.84005c-1.39723,0.95229 -0.71846,2.49635 0.2116,3.39346c2.31826,2.23612 5.41919,3.08924 8.40466,3.9997c4.3677,0.43878 8.36971,-1.0892 11.21417,-3.95446zM297.21249,215.6161c0.27416,-0.64578 1.06673,-1.93654 2.91028,-1.47565c2.42536,0.60634 1.81902,3.0317 1.81902,3.0317l-0.53079,2.11203c-2.87954,9.28695 -11.00553,14.69347 -20.63036,13.73397c-3.86997,-1.1459 -8.28723,-2.34033 -11.09534,-5.5003c-5.35802,-6.02937 0.16293,-12.89681 7.14209,-13.44489c6.17936,-0.48528 10.40186,7.91639 16.56042,4.7621c1.70998,-0.87582 2.24188,-1.65509 3.61086,-3.03702c0,0 0.07659,-0.07659 0.21382,-0.18194z" fill="#191919"/><path d="M302.01644,242.81581c2.5,0 2.5,2.5 2.5,2.5l-0.01241,0.74876c-0.77378,7.63752 -0.48241,15.44799 -0.4907,23.12578c-0.23823,2.22073 -0.20648,4.76237 -1.90719,6.56824c-4.40656,4.67903 -16.87981,3.24815 -17.58562,-4.05003c-0.33217,-3.43462 2.74734,-8.08529 3.89846,-11.25263c2.02555,-5.57338 3.38702,-11.10227 4.93555,-16.7979c0,0 0.6578,-2.41191 3.06971,-1.75411c2.41191,0.65779 1.75411,3.0697 1.75411,3.0697c-1.59327,5.82248 -2.99066,11.50228 -5.06444,17.2021c-1.02273,2.81099 -3.34013,6.24878 -3.60154,9.24737c-0.19859,2.27792 4.55291,1.68566 5.62954,1.64585c3.36744,-0.12453 3.59495,-0.96389 3.87764,-4.12764c-0.00918,-7.76544 -0.25417,-15.64775 0.5093,-23.37422l-0.01241,-0.25124c0,0 0,-2.5 2.5,-2.5z" fill="#191919"/><path d="M298.74867,273.54805c1.47609,-1.47609 2.95217,-0.48711 3.39909,-0.12056c3.13317,0.36323 9.51313,1.05078 9.8938,-2.96523c0.27221,-2.87173 -2.18986,-6.7176 -3.11984,-9.27908c-1.92485,-5.30168 -3.81187,-10.98974 -4.39288,-16.61861c0,0 -0.24876,-2.48759 2.23883,-2.73635c2.48759,-0.24876 2.73636,2.23883 2.73636,2.23883c0.49849,5.18173 2.33375,10.51272 4.10712,15.38139c1.20467,3.30734 3.98671,8.0076 3.38016,11.72092c-0.61435,3.76105 -4.22027,6.61424 -7.7521,7.35134c-2.5332,0.52868 -5.90966,0.03585 -8.47153,-0.21729l-2.019,-1.21983c0,0 -1.76776,-1.76776 0,-3.53553z" fill="#191919"/><path d="M305.90411,227.89398c-0.30317,1.21268 -1.51585,0.90951 -1.51585,0.90951l-0.49683,-0.16268c-3.09961,-0.0238 -5.26264,-0.85482 -6.71803,-3.69099c0,0 -0.55902,-1.11803 0.55902,-1.67705c1.11804,-0.55901 1.67705,0.55902 1.67705,0.55902c0.94203,1.95261 2.35311,2.32998 4.48197,2.30901l1.10317,0.23732c0,0 1.21268,0.30317 0.90951,1.51585z" fill="#191919"/><path d="M306.50412,231.08764c0.30317,1.21268 -0.90951,1.51585 -0.90951,1.51585l-0.70788,0.17317c-3.7835,1.17124 -7.90702,-0.86447 -9.18114,-4.59057c0,0 -0.39529,-1.18586 0.79057,-1.58114c1.18586,-0.39529 1.58114,0.79057 1.58114,0.79057c0.75281,2.33656 3.61606,3.90273 6.01886,3.00943l0.89211,-0.22683c0,0 1.21268,-0.30317 1.51585,0.90951z" fill="#191919"/><path d="M381.37703,160.69478c0.56939,-1.02796 1.64168,-0.49182 1.64168,-0.49182c1.70114,0.85989 3.57647,0.70036 5.23627,1.53218c0.70089,0.35126 1.87417,0.4586 2.00353,1.23182c0.41938,2.50652 -2.20651,2.76792 -3.60978,2.80398c-2.06762,0.05312 -4.0378,-1.31725 -5.68241,-2.40989l-0.55662,-1.44006c0,0 0,-1.05363 0.96733,-1.22622z" fill="#84d186"/><path d="M410.11361,126.06927c0.15738,1.23251 0.18188,2.50633 0.03044,3.93109c-0.40014,3.76442 -1.42035,8.43206 -3.65623,11.58241c-3.10775,4.37882 -7.94373,6.4907 -12.98915,7.39939c-8.93835,1.60983 -17.3614,1.02004 -25.43512,-3.38735c-2.52029,-2.07404 -4.82943,-4.38209 -6.26223,-7.40162c-4.2585,-8.97448 0.35924,-21.87076 8.83405,-26.65186c4.07171,-2.29708 9.05939,-3.10398 13.65236,-2.61257l-0.00003,0.00001c0.62758,-0.16631 1.183,-0.07375 1.183,-0.07375l1.16915,0.19505c0.80984,0.12511 11.27408,0.59559 16.13844,4.9472c5.61059,5.01919 7.98176,12.5053 7.33533,12.07199zM385.53723,113.93494c-0.57304,0.13156 -1.05769,0.057 -1.05769,0.057c-5.04663,-0.81265 -11.46268,0.65093 -14.91155,4.74412c-5.76671,6.84406 -5.77284,16.98367 1.28787,22.71114c6.89317,3.75556 14.18621,3.95301 21.76488,2.61265c3.80775,-0.67344 7.41741,-2.08186 9.81084,-5.40061c1.75621,-2.43517 2.40461,-6.327 2.74376,-9.21759c0.29822,-2.5417 -0.21776,-4.33027 -1.00791,-6.72286c-3.68865,-6.76064 -11.24067,-7.64755 -18.28789,-8.72685z" fill="#191919"/><path d="M379.94303,99.58767c-1.25,0 -1.25,-1.40297 -1.25,-1.40297c0.00362,-3.04145 -1.28446,-7.55007 0.13546,-10.36252c1.37571,-2.72487 4.47429,-2.80609 5.02721,0.71022c0.3615,2.29896 -1.53109,6.03923 -2.03333,8.309l0.03732,0.78211c0,0 0,1.09848 -0.866,1.35146c-0.16825,0.31878 -0.47852,0.61271 -1.05066,0.61271z" fill="#fec1ff"/><path d="M384.23469,112.296c-2.5,0 -2.5,-2.5 -2.5,-2.5l0.17881,-2.42848c3.02698,-7.56745 6.09232,-14.06414 5.3609,-22.37775c-1.22029,-5.57216 -9.754,-5.15597 -11.41041,0.07366c-2.65677,8.38795 3.60789,17.30683 4.36044,25.50623c0,0 0.22634,2.48974 -2.2634,2.71608c-2.48973,0.22634 -2.71607,-2.2634 -2.71607,-2.2634c-0.81557,-9.06556 -7.35827,-18.12526 -4.13956,-27.49377c2.68086,-7.80302 15.07653,-10.96614 19.99862,-3.05865c0.66807,1.07326 0.72731,2.42154 1.09097,3.63231c0.8736,9.37234 -2.22865,16.59613 -5.6391,25.12225l0.17881,0.57153c0,0 0,2.5 -2.5,2.5z" fill="#191919"/><path d="M381.99879,102.2642c0.07416,0.36683 0.08095,1.04151 -0.73003,1.38907c-1.14893,0.4924 -1.64133,-0.65653 -1.64133,-0.65653c-1.81144,-4.26099 -4.51039,-11.75941 -2.13163,-16.22629c1.33274,-2.50263 4.79011,-3.14048 6.75432,-0.88321c1.15537,1.32775 0.94333,3.28026 0.75499,4.84662c-0.89452,3.60206 -1.94863,7.13723 -2.8494,10.74032l-0.15362,0.77531c0,0 -0.00104,0.00515 -0.0033,0.01471zM380.44974,98.10009c0.69891,-2.60921 1.43682,-5.20059 2.09787,-7.82528c0.11287,-0.85676 0.33182,-2.04109 -0.24501,-2.82004c-1.18044,-1.59407 -2.78138,0.39534 -2.95905,1.58313c-0.42966,2.87244 0.16294,6.0951 1.10619,9.0622z" fill="#191919"/><path d="M384.65136,156.19198c-0.95664,3.69002 -2.1135,7.32368 -3.62011,10.84185c-0.63036,1.472 -2.8317,4.4702 -2.82399,6.14285c0.00471,1.02147 1.69427,1.18417 2.65587,1.52874c2.74718,0.9844 9.30004,1.92782 11.01411,-0.99156c0.30202,-2.62106 -2.33531,-5.48101 -3.42316,-7.89372c-1.45301,-3.22258 -2.68471,-6.38934 -3.80273,-9.62816zM382.96247,145.45193c0.31727,-0.3006 0.77117,-0.5383 1.41867,-0.6308c2.47487,-0.35356 2.82843,2.12132 2.82843,2.12132l0.16969,1.38518c1.31109,4.37031 2.39038,8.75823 4.36181,12.89192c0.77272,1.62025 1.37016,3.32407 2.20618,4.91259c0.83528,1.58712 2.67133,3.32649 2.98345,5.14708c0.23165,1.35126 -0.2257,2.73262 -0.33856,4.09893c-0.79008,1.14246 -1.2848,2.56063 -2.37023,3.42739c-0.93188,0.74415 -2.23188,0.8517 -3.38222,1.16616c-5.18453,1.41726 -16.22278,0.74059 -17.57757,-6.05636c-0.52531,-2.63544 2.18629,-6.5497 3.17601,-8.85715c2.43917,-5.68673 3.88589,-11.70633 5.09511,-17.75246c0,0 0.27285,-1.36428 1.42923,-1.85378z" fill="#191919"/><path d="M389.87237,161.62417c-0.30317,1.21268 -1.51585,0.90951 -1.51585,0.90951l-0.49683,-0.16268c-3.09961,-0.0238 -5.26264,-0.85482 -6.71803,-3.69099c0,0 -0.55902,-1.11803 0.55902,-1.67705c1.11804,-0.55901 1.67705,0.55902 1.67705,0.55902c0.94203,1.95261 2.35311,2.32998 4.48197,2.30901l1.10317,0.23732c0,0 1.21268,0.30317 0.90951,1.51585z" fill="#191919"/><path d="M390.47237,164.81783c0.30317,1.21268 -0.90951,1.51585 -0.90951,1.51585l-0.70788,0.17317c-3.7835,1.17124 -7.90702,-0.86447 -9.18114,-4.59057c0,0 -0.39529,-1.18586 0.79057,-1.58114c1.18586,-0.39529 1.58114,0.79057 1.58114,0.79057c0.75281,2.33656 3.61606,3.90273 6.01886,3.00943l0.89211,-0.22683c0,0 1.21268,-0.30317 1.51585,0.90951z" fill="#191919"/><path d="M372.15812,140.27777c-0.97609,0.78087 -1.75696,-0.19522 -1.75696,-0.19522l-0.57446,-0.73032c-1.31322,-1.31551 -2.00451,-2.0979 -2.49546,-3.91404c0,0 -0.30317,-1.21268 0.90951,-1.51585c1.21268,-0.30317 1.51585,0.90951 1.51585,0.90951c0.30295,1.37893 0.83443,1.75107 1.83787,2.75262l0.75887,0.93635c0,0 0.78087,0.97609 -0.19522,1.75696z" fill="#191919"/><path d="M396.801,99.52413c0.37,-0.55744 0.87398,-1.1562 1.53212,-1.7983c0.96597,-0.94244 2.67689,-0.39638 4.02611,-0.42673c2.90853,-0.06542 6.4086,0.66754 8.69654,2.55223c3.43039,2.82579 4.13361,7.62884 3.92582,11.8192c-0.43415,8.75522 -5.02261,22.8698 -14.87236,24.12236c-5.94924,-0.04659 -13.57819,-4.16384 -9.22697,-11.34958c1.5934,-2.63139 4.59645,-2.80195 6.53631,-4.86536c1.47433,-1.56824 2.12919,-4.12266 2.64044,-6.13696c0.62872,-2.47711 0.44146,-3.76466 -0.21887,-6.17663c-0.24499,-0.89486 -0.54212,-1.70372 -0.92398,-2.17002c-0.30394,-0.12144 -0.59494,-0.25575 -0.86761,-0.40346c-0.37092,0.06724 -0.79869,0.40799 -1.29607,1.12288c0,0 -1.76777,1.76777 -3.53553,0c-1.76777,-1.76777 0,-3.53553 0,-3.53553c1.01444,-0.87499 1.75207,-2.26806 3.04331,-2.62496c0.18319,-0.05063 0.36344,-0.09359 0.54077,-0.12914z" fill="#e6e6e6"/><path d="M389.85923,138.75282c0.81328,0.40664 0.40664,1.21992 0.40664,1.21992l-0.09877,0.19402c-0.58884,1.29415 -1.45096,2.48041 -3.15259,2.09044c-0.415,-0.09511 -0.72357,-0.46064 -1.02729,-0.75902c-0.10926,-0.10734 -0.20248,0.0113 -0.35579,0.13059c-2.06412,1.60607 -3.85692,0.05215 -4.55812,-1.89637c0,0 -0.28754,-0.86261 0.57508,-1.15015c0.86262,-0.28754 1.15015,0.57507 1.15015,0.57507c0.78325,2.66941 1.3997,0.17357 2.77973,0.11311c0.397,-0.01739 0.72188,0.121 0.9991,0.30635c0.85321,0.57048 1.25492,1.58587 1.91823,-0.1264l0.14371,-0.29093c0,0 0.40664,-0.81328 1.21992,-0.40664z" fill="#191919"/><path d="M398.2032,108.67893c2.44792,-0.62009 3.0599,1.86028 3.0599,1.86028l0.31514,1.89718c-0.13734,1.07688 -0.27467,2.15375 -0.41201,3.23063c-1.77856,2.55367 -3.41079,5.05292 -5.74432,7.13926c-0.67753,0.60575 -2.94748,2.05109 -3.52419,2.95895c-3.87106,6.09387 6.07843,11.01599 10.65713,7.67261c0.53233,-0.38871 0.70605,-1.12357 1.11295,-1.64513c3.37687,-4.32835 5.50256,-8.77935 7.37736,-13.99283c1.1358,-4.22386 1.86016,-8.99534 -0.09996,-13.15854c-1.9009,-4.03741 -8.41002,-5.92669 -12.25458,-3.98316c-3.37351,1.7054 -5.83891,8.06244 -6.4849,11.51389c0,0 -0.49485,2.50706 -2.96911,2.00565c-2.47426,-0.50141 -1.9794,-3.00847 -1.9794,-3.00847c1.03866,-5.05985 4.29203,-12.60717 9.15927,-15.07586c6.39931,-3.24577 15.75927,-0.21753 19.03378,6.24367c2.67378,5.27582 1.86749,11.58044 0.40469,17.01061c-2.70522,7.55187 -6.33074,17.55986 -14.64365,20.11018c-8.77085,2.69082 -18.71998,-7.67472 -13.64609,-16.31468c1.28098,-2.18128 2.82532,-2.68513 4.55023,-4.19982c1.70954,-1.50119 2.91511,-3.38611 4.3487,-5.13294c0.03089,-0.6276 0.06176,-1.25519 0.09265,-1.88279l-0.18951,-0.14819c0,0 -0.61198,-2.48038 1.83594,-3.10047z" fill="#191919"/><path d="M406.96734,129.12237c-1.11803,-0.55902 -0.55902,-1.67705 -0.55902,-1.67705l0.4691,-0.93338c0.57259,-1.29572 0.46642,-5.78641 -2.25887,-4.66559c-1.38995,0.57164 -2.13729,3.04487 -3.562,3.62331c-3.45689,1.40352 -4.29327,-3.56459 -6.57669,-2.04668c0,0 -1.0853,0.62017 -1.70548,-0.46513c-0.62017,-1.0853 0.46513,-1.70548 0.46513,-1.70548c1.45428,-0.76132 1.89715,-1.37208 3.71968,-0.51155c0.43341,0.20464 2.03558,3.10505 3.03696,2.46487c1.36838,-0.87481 2.06523,-3.1326 3.77133,-3.71002c4.99063,-1.68907 6.84422,4.56912 5.4078,8.00107l-0.5309,1.06662c0,0 -0.55902,1.11803 -1.67705,0.55902z" fill="#191919"/><path d="M399.97581,114.28712c0.88388,-0.88388 1.76777,0 1.76777,0l0.24306,0.25032c3.46034,4.67337 -4.03919,9.53164 -5.83962,3.27007c0,0 -0.30317,-1.21268 0.90951,-1.51585c1.21268,-0.30317 1.51585,0.90951 1.51585,0.90951c0.50818,2.75358 2.75251,0.10516 1.49371,-1.06327l-0.09027,-0.08301c0,0 -0.88388,-0.88388 0,-1.76777z" fill="#191919"/><path d="M408.44479,126.6873c0.3379,0.58413 0.06383,1.28991 0.06383,1.28991l-0.48865,1.2584c-0.18473,0.50725 -0.63461,0.86536 -1.16028,0.86536c-0.03972,0 -0.079,-0.00204 -0.11777,-0.00605c-0.13724,0.3711 -0.30297,0.73275 -0.51023,1.09467l0.37998,0.23964l-0.65463,1.26436c-0.21221,0.42807 -0.62406,0.71837 -1.09734,0.71837c-0.02775,0 -0.05529,-0.00099 -0.08259,-0.00296l-0.48674,0.94009c-0.21221,0.42807 -0.62406,0.71837 -1.09734,0.71837c-0.22274,0 -0.43188,-0.0643 -0.61299,-0.17699l-0.83619,1.38431c-0.22257,0.38036 -0.61005,0.63213 -1.05082,0.63213c-0.20708,0 -0.4024,-0.05557 -0.57438,-0.15395l-0.12881,0.28432c-0.20043,0.46664 -0.63114,0.78934 -1.13014,0.78934c-0.69036,0 -1.25,-0.61765 -1.25,-1.37958v-1.14516l-0.29564,0.38066c-0.22929,0.29885 -0.57175,0.48858 -0.95436,0.48858c-0.49108,0 -0.91602,-0.31255 -1.12042,-0.76723c-0.22586,0.24688 -0.53658,0.39934 -0.87958,0.39934c-0.69036,0 -1.25,-0.61765 -1.25,-1.37958c0,-0.06539 0.00412,-0.12974 0.0121,-0.1927l0.03469,-0.30628c-0.09513,0.02557 -0.19452,0.03912 -0.29679,0.03912c-0.54984,0 -1.01676,-0.3918 -1.18406,-0.93625c-0.18924,0.1272 -0.4115,0.20047 -0.64928,0.20047c-0.69036,0 -1.25,-0.61765 -1.25,-1.37958c0,-0.12622 0.01536,-0.24847 0.04412,-0.36461l0.31742,-1.40129c0.00899,-0.0601 0.01748,-0.1198 0.02555,-0.17909c-0.2385,-0.25123 -0.38709,-0.60553 -0.38709,-0.99813c0,-0.11313 0.01234,-0.2231 0.03561,-0.32832l0.32748,-1.62645l0.04883,0.01197c0.02929,-0.08351 0.07577,-0.19678 0.14436,-0.31533c0.00829,-0.45573 0.05067,-0.90783 0.14014,-1.35216l0.32799,-1.62898c0.11471,-0.63129 0.61982,-1.10684 1.22557,-1.10684c0.23958,0 0.46342,0.07439 0.65359,0.20338c0.22711,-0.34612 0.59627,-0.57127 1.01308,-0.57127c0.40334,0 0.76205,0.21084 0.99062,0.53809l0.01577,-0.04062c0.18473,-0.50725 0.63461,-0.86536 1.16028,-0.86536c0.69036,0 1.25,0.61765 1.25,1.37958c0,0.05265 -0.00267,0.10462 -0.00788,0.15574l-0.02812,0.31033c0.03927,-0.00411 0.07908,-0.0062 0.11933,-0.0062c0.61444,0 1.12533,0.48929 1.23027,1.13409l0.07056,0.38935c0.19956,-0.14889 0.44017,-0.23583 0.69918,-0.23583c0.44968,0 0.8439,0.26206 1.06412,0.65537l0.2756,-0.70974c0.18473,-0.50725 0.63461,-0.86536 1.16028,-0.86536c0.18177,0 0.35447,0.04282 0.51028,0.11981l0.65164,-1.79799c0.17726,-0.52396 0.63486,-0.89706 1.17141,-0.89706c0.19193,0 0.37376,0.04775 0.53626,0.13305c0.22928,-0.30597 0.57588,-0.50095 0.96374,-0.50095c0.52567,0 0.97555,0.35812 1.16028,0.86536l0.03693,0.09511c0.09695,-0.02662 0.19837,-0.04075 0.30279,-0.04075c0.60575,0 1.11087,0.47555 1.22557,1.10684l0.32799,1.62898l-0.34182,0.08384c0.1548,0.6133 0.23783,1.23752 0.20668,1.86025z" fill="#191919"/><path d="M396.796,116.59737c0.06562,-0.92184 0.59747,-1.7517 1.8418,-1.98986c3.21075,-0.61451 4.33322,5.60647 0.01289,4.96255c-1.84403,-0.27484 -2.27499,-1.73694 -1.8547,-2.9727z" fill="#191919"/><path d="M381.43103,119.63748c4.30778,3.33168 1.71108,13.16531 -1.19295,17.00229c-5.12752,3.7679 -8.87263,-0.53299 -9.13592,-5.81759c-0.31507,-6.32377 2.7056,-11.09866 9.12823,-11.74738c0,0 0.82834,-0.08283 1.20064,0.56268z" fill="#c2d4ec"/><path d="M369.46604,131.63722c-2.98266,-2.29475 -2.73076,-5.22119 0.70068,-6.75043c1.27549,-3.74736 4.08109,-6.81232 8.08003,-6.99656c0.36806,-0.1723 0.7536,-0.12411 0.7536,-0.12411l1.30969,0.20481c6.90803,2.85544 6.49751,17.32209 -0.15107,20.66056c-1.42549,0.71579 -2.93425,0.84932 -4.48152,0.63733c-0.5225,-0.07159 -2.1889,-0.93121 -2.48545,-1.19988c-1.28084,-1.16043 -2.30663,-2.29925 -3.01236,-4.09449c-0.28233,-0.71818 -0.48684,-1.48213 -0.61659,-2.27204zM379.01001,120.27433c-0.27178,0.1072 -0.51487,0.1072 -0.51487,0.1072c-7.37288,-0.03581 -7.76392,10.53117 -4.27712,15.31166c0.25556,0.35038 1.69131,1.05265 2.08562,1.05127c4.60115,-0.01612 5.87472,-4.61191 6.07058,-8.92086c0.13682,-3.00989 0.14831,-6.29371 -3.09271,-7.53146z" fill="#191919"/><path d="M379.39386,175.87268c2.37171,0.79057 1.58114,3.16228 1.58114,3.16228l-0.4074,1.19488c-2.40011,5.55192 -5.21421,8.81912 -11.38292,9.68572c-6.48478,-0.46648 -12.67906,-5.08131 -8.54166,-12.16785c0.16483,-0.28233 3.52115,-3.8806 3.90335,-4.31742c2.36235,-2.69998 4.6492,-5.46845 6.99822,-8.16471c3.98127,-4.56978 6.57511,-10.05956 9.55784,-15.27934c0,0 1.24034,-2.1706 3.41096,-0.93026c2.17061,1.24034 0.93026,3.41096 0.93026,3.41096c-4.13214,7.23125 -8.34706,13.54227 -13.56719,20.00928c-1.73872,2.15403 -3.55304,4.26462 -5.4395,6.29005c-0.79832,0.85712 -2.00656,1.736 -2.18856,3.04223c-0.36507,2.62007 3.08425,3.03252 4.76099,3.11014c4.02344,-0.48764 5.45811,-3.11187 6.96249,-6.65839l0.2597,-0.80643c0,0 0.79057,-2.37171 3.16228,-1.58114z" fill="#191919"/><path d="M390.69196,175.81004c1.60046,-1.92056 3.52102,-0.32009 3.52102,-0.32009l0.82322,0.69895c1.18597,0.84051 2.50506,1.5276 3.88839,1.9741c2.04422,0.4161 4.37368,0.9444 6.37459,-0.03882c3.15491,-1.55027 -0.94746,-6.02854 -2.28063,-7.13313c-7.14852,-5.92293 -16.36064,-9.30904 -19.61558,-18.80712c0,0 -0.79058,-2.37171 1.58113,-3.16228c2.37171,-0.79057 3.16228,1.58114 3.16228,1.58114c2.26734,7.06003 10.00409,10.93502 15.72897,14.91241c2.26755,1.57539 5.31822,3.70556 6.50921,6.32738c0.50378,1.10902 0.67242,2.36328 0.73377,3.57981c0.41109,8.15057 -7.39166,8.77448 -13.47709,7.57311c-1.91887,-0.6534 -3.77483,-1.55586 -5.4511,-2.69564l-1.1781,-0.96881c0,0 -1.92055,-1.60046 -0.32009,-3.52102z" fill="#191919"/><path d="M384.33906,180.21974c-0.1427,-0.30937 -0.2305,-0.69008 -0.2305,-1.1586c0,-2.5 2.5,-2.5 2.5,-2.5l2.6619,2.34405c0.33617,5.37888 0.33605,10.70949 0.50398,16.08848c0.17799,5.70147 0.67446,11.03414 -0.57695,16.66678c-0.84445,1.00029 -1.45102,2.26448 -2.53334,3.00085c-4.16781,2.83561 -13.78781,1.48985 -15.88509,-3.64978c-1.4278,-3.49899 1.91844,-8.25522 3.1694,-11.36776c2.62905,-6.54143 3.63975,-13.6051 4.50901,-20.55915c0,0 0.31009,-2.48069 2.79078,-2.1706c2.4807,0.31008 2.17061,2.79078 2.17061,2.79078c-0.92407,7.39255 -2.0587,14.8427 -4.83048,21.80208c-0.00644,0.01617 -2.00135,4.67258 -2.02341,4.72299c-0.41939,0.95825 -1.60114,1.98062 -1.14469,2.92178c1.34135,2.76572 7.71431,2.29007 9.26647,0.35172c0.76157,-4.80462 0.24097,-9.53186 0.09015,-14.35366c-0.1562,-4.99352 -0.16339,-9.94226 -0.43782,-14.92995z" fill="#191919"/><path d="M385.70671,210.96485c1.11804,-2.23607 3.3541,-1.11803 3.3541,-1.11803l-0.29419,-0.04861c1.46501,0.30106 8.12782,1.49222 8.62084,-1.26256c0.57337,-3.20383 -3.21969,-8.35839 -4.2872,-11.26986c-2.1694,-5.91669 -3.46516,-12.13716 -4.30002,-18.37457c0,0 -0.33041,-2.47807 2.14766,-2.80848c2.47807,-0.33041 2.80848,2.14766 2.80848,2.14766c0.90236,6.79557 2.46941,13.37972 5.01319,19.74867c1.35657,3.39649 4.61453,8.07202 3.4108,11.98066c-1.84236,5.9823 -9.71136,5.65682 -14.39432,4.74139l-0.9613,-0.38216c0,0 -2.23607,-1.11804 -1.11803,-3.35411z" fill="#191919"/><path d="M412.64971,251.6563c0.49424,-0.24712 0.93385,-0.33038 1.31885,-0.31014c0.76534,-0.20882 1.48678,-0.0027 1.48678,-0.0027l1.09445,0.3332c2.36077,0.3704 4.80411,0.63834 7.1914,0.20918c0.20195,-0.0363 0.40084,-0.0854 0.598,-0.14175c-0.21472,-0.07302 -0.39683,-0.13405 -0.53056,-0.16572c-4.30882,-1.02058 -7.02873,-3.18849 -10.40166,-5.88683c0,0 -0.87063,-0.6965 -0.98391,-1.74064c-0.14562,-0.36172 -0.20873,-0.81029 -0.12939,-1.36572c0.35355,-2.47487 2.82843,-2.12132 2.82843,-2.12132l1.23929,0.1824c9.29676,0.71517 16.5075,0.02652 24.73577,-4.4507c1.76114,-1.15658 2.98434,-2.36544 4.23651,-3.85317c-1.84704,0.85577 -3.78528,1.53648 -5.76182,2.01844c-8.72713,2.12802 -17.53507,1.98401 -26.139,-0.64182c0,0 -1.9451,-0.59849 -1.78542,-2.47046c-0.39506,-1.1313 0.33566,-2.22738 0.33566,-2.22738l0.71334,-1.06767c1.1741,-1.6409 2.42458,-3.22932 3.73768,-4.76127c2.89812,-4.05948 6.36132,-8.45367 7.94331,-13.27505c1.21465,-3.70184 1.8264,-7.58096 2.98618,-11.29344c1.77238,-5.6734 2.61478,-12.68168 1.90452,-18.67654c-0.43619,-3.6816 -1.97465,-7.11792 -2.83863,-10.68899c-1.63304,-2.79272 -3.14016,-6.21426 -5.45594,-8.50997c-6.56928,-6.51234 -13.66204,-7.94586 -22.59766,-7.94586c-3.36458,0 -6.59988,0.09861 -9.69594,1.46673c0,0 -2.29786,0.9848 -3.28266,-1.31306c-0.9848,-2.29787 1.31306,-3.28266 1.31306,-3.28266c5.54911,-2.32262 11.28831,-1.89946 17.16125,-1.5324c8.19638,0.51227 14.72093,3.11674 20.63748,9.07173c2.78381,2.8019 4.64299,6.76795 6.55989,10.18132c1.02708,3.99645 2.68553,7.87153 3.16929,12.00758c0.78071,6.67496 -0.12342,14.3832 -2.10076,20.70868c-1.17127,3.74689 -1.76256,7.675 -3.02173,11.40312c-1.8123,5.36584 -5.50531,10.22819 -8.74534,14.76189c-0.94988,1.10819 -1.86953,2.24417 -2.74653,3.41145c6.87179,1.64081 13.83695,1.4693 20.77961,-0.18753c2.76216,-0.65918 4.80246,-1.97195 7.40103,-2.97064c1.5002,-0.57656 3.18772,-2.29427 4.58322,-1.49704c1.64776,0.94133 2.0664,3.4035 2.07572,5.30117c0.00684,1.39177 -1.26586,2.4856 -2.03177,3.6477c-1.80375,2.7368 -4.07234,4.69036 -6.74813,6.49419c-6.92929,3.78805 -13.31217,5.25184 -20.49127,5.39495c1.3209,0.52848 2.76917,0.96374 4.52106,1.39706c1.51563,0.37488 3.83805,-0.16237 4.51562,1.24424c2.54559,5.28462 -1.54776,6.37224 -4.51194,7.42456c-3.21949,1.14295 -6.45626,1.28265 -9.75159,0.95791c1.23811,2.5364 2.39715,5.20955 2.08533,7.92268c-0.38942,3.3884 -3.72669,7.54114 -5.8105,10.08802c-1.28229,2.32 -2.95028,4.37649 -4.81464,6.27588c-0.93714,0.95475 -1.70916,2.2924 -2.99063,2.67661c-1.54849,0.46427 -3.34146,0.28063 -4.83859,-0.32927c-1.92343,-0.78357 -2.85667,-3.02055 -4.17112,-4.6286c-2.92106,-3.57349 -7.59987,-8.74639 -7.57442,-13.61691c0.01929,-3.69401 3.1804,-7.5847 6.15557,-10.9149c-2.22847,-0.08275 -4.4559,-0.37049 -6.49905,-1.00555c-1.22256,-0.38 -2.8588,-0.39114 -3.54843,-1.46979c-1.05241,-1.64607 -1.94754,-4.01366 -1.07507,-5.76178c0.70834,-1.41926 3.04129,-0.90924 4.58549,-1.27187c1.15285,-0.27072 2.27065,-0.58438 3.35068,-0.96474c-4.34445,-0.27617 -8.43346,-1.2142 -12.83983,-3.05019c-3.68135,-1.55948 -11.04461,-5.62596 -11.45565,-10.24716c-0.16053,-1.80477 -0.57233,-4.2479 0.8514,-5.36858c1.08326,-0.85268 7.59463,2.25414 9.21251,2.6873c7.41805,1.98607 16.23917,2.11899 23.53672,-0.4712l0.33799,-0.32846c9.69729,-11.63675 19.23845,-25.63982 19.11316,-41.45626c0,-3.42667 0.05378,-6.83399 -1.16689,-10.11302c-4.3322,-11.63735 -16.9988,-16.22277 -28.399,-14.77568c0,0 -2.4807,0.31008 -2.79078,-2.17061c-0.31009,-2.48069 2.17061,-2.79078 2.17061,-2.79078c13.68428,-1.68695 28.48662,4.1558 33.68278,17.93408c1.45634,3.86168 1.50329,7.87077 1.50329,11.916c-0.10783,17.12988 -9.69686,31.96694 -20.27205,44.65718l-0.82033,0.83485c0,0 -0.28789,0.28789 -0.74749,0.51513c-0.38362,0.29093 -0.73633,0.4169 -0.73633,0.4169c-7.35573,2.59167 -16.41426,3.02947 -24.02087,1.28257c-1.84782,-0.42436 -2.94524,-0.63576 -4.5222,-1.15164c1.86223,1.7129 4.26213,3.12286 6.4462,4.01398c5.93374,2.47239 11.06046,3.07821 17.47505,2.61626l0.89243,-0.31048c0,0 2.39008,-0.68288 3.08468,1.69646c1.42475,1.79131 -0.32515,3.36622 -0.32515,3.36622c-2.43268,2.15676 -5.55284,4.19867 -8.73586,5.34562c0.67897,0.14662 1.31529,0.27149 1.84411,0.3109c1.37075,0.10215 2.75175,0.12378 4.12507,0.04794c0.67509,-0.3569 1.76856,-0.61619 2.86204,0.47728c0.70009,0.70009 0.84566,1.40017 0.76614,1.99046c0.10616,1.04394 -0.59901,1.90581 -0.59901,1.90581c-1.72818,2.11064 -3.26758,4.36076 -5.03284,6.43972c-1.22846,1.44678 -3.4335,3.05942 -3.40925,5.20726c0.03864,3.42263 4.391,7.90428 6.43666,10.40207c0.09951,0.1215 2.71224,3.93439 3.40009,3.44878c2.00184,-1.41327 4.2616,-4.93255 5.40517,-7.06016c1.5041,-1.83833 4.70909,-5.4421 4.99804,-7.92622c0.32337,-2.78008 -2.41156,-6.48958 -3.4305,-8.93126l-0.12853,-0.24382c0,0 -1.11804,-2.23607 1.11803,-3.35411z" fill="#191919"/><path d="M400.46816,263.34831c1.32693,2.89749 1.90674,6.45012 3.95814,8.9019c0.37689,0.45045 1.51236,-1.46535 1.55998,-1.52478c1.69582,-2.11639 3.01228,-4.96273 3.54523,-7.62571c-0.42886,-1.70274 -3.54561,1.29523 -4.04147,1.40599c-1.27706,0.28526 -3.96749,-1.60403 -5.02188,-1.1574zM397.91554,263.22433c-0.00934,-0.07689 -0.00935,-0.12469 -0.00935,-0.12469l0.27391,-0.98102c0.43882,-0.4607 0.71722,-1.16829 1.31646,-1.3821c1.96087,-0.69964 3.84965,1.83637 5.33527,1.35738c1.86484,-0.60125 3.56641,-3.30132 6.06394,-1.40942c0.61037,0.46236 0.73564,1.34319 1.10345,2.01477c-0.39272,3.41066 -1.91078,6.89663 -4.06078,9.5879c-1.31756,1.64925 -2.35905,3.35288 -4.84508,2.07806c-2.87439,-1.47395 -3.72729,-7.67919 -5.05521,-10.30624c0,0 -0.19804,-0.39609 -0.12262,-0.83464z" fill="#191919"/><path d="M388.84208,127.51366c0,-1.7496 1.41833,-3.16793 3.16793,-3.16793c1.7496,0 3.16793,1.41833 3.16793,3.16793c0,1.7496 -1.41833,3.16793 -3.16793,3.16793c-1.7496,0 -3.16793,-1.41833 -3.16793,-3.16793z" fill="#122033"/><path d="M402.68124,125.25888c0,-1.24301 1.00765,-2.25066 2.25066,-2.25066c1.24301,0 2.25066,1.00765 2.25066,2.25066c0,1.24301 -1.00765,2.25066 -2.25066,2.25066c-1.24301,0 -2.25066,-1.00765 -2.25066,-2.25066z" fill="#122033"/><path d="M397.50787,128.25756c0,-0.96668 0.78365,-1.75033 1.75033,-1.75033c0.96668,0 1.75033,0.78365 1.75033,1.75033c0,0.96668 -0.78365,1.75033 -1.75033,1.75033c-0.96668,0 -1.75033,-0.78365 -1.75033,-1.75033z" fill="#0e1827"/><path d="M400.67332,133.34095c0,-1.65749 1.34367,-3.00115 3.00116,-3.00115c1.65749,0 3.00115,1.34366 3.00115,3.00115c0,1.65749 -1.34366,3.00115 -3.00115,3.00115c-1.65749,0 -3.00116,-1.34366 -3.00116,-3.00115z" fill="#0e1827"/><path d="M394.33912,133.92796c0,-1.33511 1.08232,-2.41744 2.41744,-2.41744c1.33511,0 2.41744,1.08232 2.41744,2.41744c0,1.33511 -1.08232,2.41744 -2.41744,2.41744c-1.33511,0 -2.41744,-1.08232 -2.41744,-2.41744z" fill="#122033"/></g></g></svg>