<svg version="1.1" xmlns="http://www.w3.org/2000/svg" xmlns:xlink="http://www.w3.org/1999/xlink" width="62.70519" height="151.91864" viewBox="0,0,62.70519,151.91864"><g transform="translate(-328.64741,-104.29068)"><g data-paper-data="{&quot;isPaintingLayer&quot;:true}" fill-rule="nonzero" stroke="none" stroke-width="0" stroke-linecap="butt" stroke-linejoin="miter" stroke-miterlimit="10" stroke-dasharray="" stroke-dashoffset="0" style="mix-blend-mode: normal"><g><g data-paper-data="{&quot;index&quot;:null}" fill="#ffffff"><path d="M335.12604,160.64762c1.10892,-6.64482 3.60155,-2.71751 5.60423,-2.71751c1.49334,0 4.29284,-3.23905 5.35171,0.73369c1.3241,4.96789 0.73347,18.03754 0.73347,26.34848c0,14.95707 -2.36648,18.41587 -5.72723,18.41587c-3.36075,0 -6.44313,-3.45881 -6.44313,-18.41587c0,-6.04407 -0.27103,-19.85868 0.48095,-24.36466z"/><path d="M347.40799,211.59242c-2.14388,0.65687 -6.63105,3.96009 -9.44614,1.84706c-2.62146,-1.96769 -3.64909,-9.28299 -3.75485,-10.74473c-0.34496,-4.76801 2.56839,-8.97177 6.50714,-9.38935c0.80653,-0.08551 4.19543,-1.26147 7.07303,-0.01919c3.13677,1.35417 4.22955,10.63977 3.69176,11.38727c-2.72843,3.79238 -3.20579,-6.21833 -3.00847,-3.49094c0.12564,1.73656 1.30926,9.6832 -1.06248,10.40988z"/></g><path d="M342.62231,248.96293c-2.18416,-16.13512 -4.55698,-54.01295 3.95281,-57.50794c3.66442,-1.50499 20.14166,-0.73586 23.80472,1.23305c5.55432,2.98546 3.51551,38.54933 4.95549,51.37731c1.38139,12.30595 -10.86331,10.46766 -13.44279,7.67806c-3.32253,-3.5932 -4.0809,-42.59648 -4.0809,-42.59648c0,0 1.57955,39.81275 -1.2698,42.77883c-3.05241,3.17746 -13.11808,2.95778 -13.91953,-2.96281z" data-paper-data="{&quot;index&quot;:null}" fill="#2b1287"/><path d="M335.11467,250.77585c0,-7.24461 5.1368,-13.11751 11.47335,-13.11751c2.42224,0 8.10426,6.33012 8.10426,6.33012c0,0 2.71877,-3.98531 3.582,-2.15892c0.87562,1.85264 -0.2129,6.69272 -0.2129,8.94632c0,7.24461 -22.9467,7.24461 -22.9467,0z" fill="#111111"/><path d="M360.5093,250.77585c0,-2.25359 -1.08853,-7.09367 -0.2129,-8.94632c0.86322,-1.82638 3.58199,2.15892 3.58199,2.15892c0,0 5.68203,-6.33012 8.10426,-6.33012c6.33655,0 11.47335,5.87291 11.47335,13.11751c0,7.24461 -22.9467,7.24461 -22.9467,0z" data-paper-data="{&quot;index&quot;:null}" fill="#111111"/><path d="M362.92965,136.67566c0,2.3377 4.76798,9.14739 3.50797,11.55297c-1.64126,3.13345 -14.69018,1.59679 -16.33544,1.59679c-2.90834,0 2.29544,-7.76703 2.29544,-13.14976c0,-5.38273 5.5983,-11.91213 8.50664,-11.91213c2.90834,0 2.02539,6.5294 2.02539,11.91213z" fill="#d0d0d0"/><path d="M355.16593,144.89952c-11.42303,0 -14.59993,-8.38662 -14.59993,-19.85091c0,-11.46429 6.01577,-20.75793 17.4388,-20.75793c11.42303,0 17.4388,8.88662 17.4388,20.35091c0,11.46429 -8.85465,20.25793 -20.27768,20.25793z" data-paper-data="{&quot;index&quot;:null}" fill="#ffffff"/><path d="M328.64741,165.01746c0,-8.29337 5.19812,-15.01647 11.61033,-15.01647c6.41222,0 5.80517,8.48975 5.80517,16.78312c0,8.29337 -17.4155,6.52672 -17.4155,-1.76665z" data-paper-data="{&quot;index&quot;:null}" fill="#1643a6"/><path d="M358.39282,146.09497c17.51452,0 22.80518,-2.16638 22.80518,11.95562c0,3.79522 0.52647,39.60383 -6.1281,41.64918c-9.79723,3.01129 -19.8992,2.63773 -31.01503,1.28495c-9.42827,-1.1474 -6.2646,-33.39803 -5.85689,-38.12901c1,-11.60372 2.68032,-16.76074 20.19484,-16.76074z" fill="#184bb9"/><path d="M351.63334,126.95754c0,6.07513 -1.10845,11 -2.47577,11c-1.36733,0 -2.47577,-4.92487 -2.47577,-11c0,-6.07513 1.10844,-11 2.47577,-11c1.36733,0 2.47577,4.92487 2.47577,11z" fill="#000000"/><path d="M362.88571,126.48285c0,6.07513 -1.10845,11 -2.47577,11c-1.36733,0 -2.47577,-4.92487 -2.47577,-11c0,-6.07513 1.10845,-11 2.47577,-11c1.36733,0 2.47577,4.92487 2.47577,11z" fill="#000000"/><g data-paper-data="{&quot;index&quot;:null}" fill="#ffffff"><path d="M387.54716,159.98095c0.75198,4.50598 0.48095,18.32059 0.48095,24.36466c0,14.95707 -3.08238,18.41587 -6.44313,18.41587c-3.36075,0 -5.72723,-3.45881 -5.72723,-18.41587c0,-8.31094 -0.59064,-21.38059 0.73347,-26.34848c1.05887,-3.97274 3.85837,-0.73369 5.35172,-0.73369c2.00268,0 4.49531,-3.92732 5.60423,2.7175z"/><path d="M374.20273,200.51587c0.19732,-2.7274 -0.28003,7.28332 -3.00847,3.49094c-0.53778,-0.74749 0.555,-10.0331 3.69177,-11.38727c2.87761,-1.24228 6.2665,-0.06633 7.07303,0.01918c3.93874,0.41759 6.85209,4.62134 6.50714,9.38936c-0.10575,1.46174 -1.13339,8.77704 -3.75485,10.74473c-2.81509,2.11303 -7.30226,-1.19019 -9.44614,-1.84706c-2.37174,-0.72669 -1.18812,-8.67332 -1.06248,-10.40988z"/></g><path d="M373.9371,165.77988c0,-8.29337 -0.60704,-16.78312 5.80517,-16.78312c6.41222,0 11.61033,6.7231 11.61033,15.01648c0,8.29337 -17.4155,10.06002 -17.4155,1.76665z" data-paper-data="{&quot;index&quot;:null}" fill="#1643a6"/></g></g></g></svg>