<svg version="1.1" xmlns="http://www.w3.org/2000/svg" xmlns:xlink="http://www.w3.org/1999/xlink" width="130.98108" height="414.49929" viewBox="0,0,130.98108,414.49929"><defs><linearGradient x1="170.32417" y1="393.7046" x2="170.32417" y2="395.66054" gradientUnits="userSpaceOnUse" id="color-1"><stop offset="0" stop-color="#000000" stop-opacity="0"/><stop offset="1" stop-color="#000000"/></linearGradient><linearGradient x1="208.25208" y1="393.7046" x2="208.25208" y2="395.66054" gradientUnits="userSpaceOnUse" id="color-2"><stop offset="0" stop-color="#000000" stop-opacity="0"/><stop offset="1" stop-color="#000000"/></linearGradient><linearGradient x1="189.56682" y1="128.54486" x2="189.56682" y2="133.98101" gradientUnits="userSpaceOnUse" id="color-3"><stop offset="0" stop-color="#000000" stop-opacity="0"/><stop offset="1" stop-color="#000000"/></linearGradient><radialGradient cx="171.56386" cy="82.33441" r="9.5" gradientUnits="userSpaceOnUse" id="color-4"><stop offset="0" stop-color="#383838"/><stop offset="1" stop-color="#000000"/></radialGradient><radialGradient cx="208.85299" cy="83.93347" r="9.5" gradientUnits="userSpaceOnUse" id="color-5"><stop offset="0" stop-color="#383838"/><stop offset="1" stop-color="#000000"/></radialGradient><radialGradient cx="188.80031" cy="116.58487" r="7.53974" gradientUnits="userSpaceOnUse" id="color-6"><stop offset="0" stop-color="#383838"/><stop offset="1" stop-color="#000000"/></radialGradient><radialGradient cx="188.80031" cy="116.58487" r="7.53974" gradientUnits="userSpaceOnUse" id="color-7"><stop offset="0" stop-color="#383838"/><stop offset="1" stop-color="#000000"/></radialGradient><radialGradient cx="188.80031" cy="116.58487" r="7.53974" gradientUnits="userSpaceOnUse" id="color-8"><stop offset="0" stop-color="#383838"/><stop offset="1" stop-color="#000000"/></radialGradient><radialGradient cx="188.80031" cy="116.58487" r="7.53974" gradientUnits="userSpaceOnUse" id="color-9"><stop offset="0" stop-color="#383838"/><stop offset="1" stop-color="#000000"/></radialGradient><radialGradient cx="188.80031" cy="116.58487" r="7.53974" gradientUnits="userSpaceOnUse" id="color-10"><stop offset="0" stop-color="#383838"/><stop offset="1" stop-color="#000000"/></radialGradient><radialGradient cx="188.80031" cy="116.58487" r="7.53974" gradientUnits="userSpaceOnUse" id="color-11"><stop offset="0" stop-color="#383838"/><stop offset="1" stop-color="#000000"/></radialGradient><radialGradient cx="188.80031" cy="116.58487" r="7.53974" gradientUnits="userSpaceOnUse" id="color-12"><stop offset="0" stop-color="#383838"/><stop offset="1" stop-color="#000000"/></radialGradient><radialGradient cx="188.80031" cy="116.58487" r="7.53974" gradientUnits="userSpaceOnUse" id="color-13"><stop offset="0" stop-color="#383838"/><stop offset="1" stop-color="#000000"/></radialGradient><radialGradient cx="188.80031" cy="116.58487" r="7.53974" gradientUnits="userSpaceOnUse" id="color-14"><stop offset="0" stop-color="#383838"/><stop offset="1" stop-color="#000000"/></radialGradient><radialGradient cx="188.80031" cy="110.00761" r="7.53974" gradientUnits="userSpaceOnUse" id="color-15"><stop offset="0" stop-color="#383838"/><stop offset="1" stop-color="#000000"/></radialGradient><radialGradient cx="188.80031" cy="110.00761" r="7.53974" gradientUnits="userSpaceOnUse" id="color-16"><stop offset="0" stop-color="#383838"/><stop offset="1" stop-color="#000000"/></radialGradient><radialGradient cx="188.80031" cy="110.00761" r="7.53974" gradientUnits="userSpaceOnUse" id="color-17"><stop offset="0" stop-color="#383838"/><stop offset="1" stop-color="#000000"/></radialGradient><radialGradient cx="188.80031" cy="110.00761" r="7.53974" gradientUnits="userSpaceOnUse" id="color-18"><stop offset="0" stop-color="#383838"/><stop offset="1" stop-color="#000000"/></radialGradient><radialGradient cx="188.80031" cy="110.00761" r="7.53974" gradientUnits="userSpaceOnUse" id="color-19"><stop offset="0" stop-color="#383838"/><stop offset="1" stop-color="#000000"/></radialGradient><radialGradient cx="188.80031" cy="110.00761" r="7.53974" gradientUnits="userSpaceOnUse" id="color-20"><stop offset="0" stop-color="#383838"/><stop offset="1" stop-color="#000000"/></radialGradient><radialGradient cx="188.80031" cy="110.00761" r="7.53974" gradientUnits="userSpaceOnUse" id="color-21"><stop offset="0" stop-color="#383838"/><stop offset="1" stop-color="#000000"/></radialGradient><radialGradient cx="188.80031" cy="110.00761" r="7.53974" gradientUnits="userSpaceOnUse" id="color-22"><stop offset="0" stop-color="#383838"/><stop offset="1" stop-color="#000000"/></radialGradient><radialGradient cx="188.80031" cy="110.00761" r="7.53974" gradientUnits="userSpaceOnUse" id="color-23"><stop offset="0" stop-color="#383838"/><stop offset="1" stop-color="#000000"/></radialGradient></defs><g transform="translate(-125.83837,-8.9461)"><g stroke-miterlimit="10"><g stroke="#2b2b2b" stroke-width="0"><g><path d="M241.39239,280.8087c-3.60687,0 -6.5308,-2.92394 -6.5308,-6.5308c0,-3.60687 2.92394,-6.5308 6.5308,-6.5308c3.60686,0 6.53079,2.92394 6.53079,6.5308c0,3.60687 -2.92393,6.5308 -6.53079,6.5308z" fill="#4e4e4e"/><path d="M241.39239,223.97083c-3.60687,0 -6.5308,-2.92394 -6.5308,-6.5308c0,-3.60687 2.92394,-6.5308 6.5308,-6.5308c3.60686,0 6.53079,2.92394 6.53079,6.5308c0,3.60687 -2.92393,6.5308 -6.53079,6.5308z" fill="#4e4e4e"/><path d="M241.39238,159.14491c-3.60687,0 -6.5308,-2.92394 -6.5308,-6.5308c0,-3.60687 2.92394,-6.5308 6.5308,-6.5308c3.60687,0 6.5308,2.92394 6.5308,6.5308c0,3.60687 -2.92394,6.5308 -6.5308,6.5308z" fill="#4e4e4e"/><path d="M241.39241,151.61349c8.52013,0 15.42705,0.50129 15.42705,36.27234c0,35.77104 -6.90692,27.90485 -15.42705,27.90485c-8.52013,0 -15.42705,7.8662 -15.42705,-27.90485c0,-35.77105 6.90692,-36.27234 15.42705,-36.27234z" fill="#2b2b2b"/><path d="M241.39241,218.40861c7.8901,0 14.28628,-6.87902 14.28628,24.80618c0,31.6852 -6.39618,33.11134 -14.28628,33.11134c-7.8901,0 -14.28629,-1.42614 -14.28629,-33.11134c0,-31.68519 6.39619,-24.80618 14.28629,-24.80618z" fill="#2b2b2b"/></g><g><g><path d="M252.60263,324.1312c-0.95307,0 -1.7257,-0.77264 -1.7257,-1.72571c0,-0.95307 0.77263,-1.7257 1.7257,-1.7257c0.95307,0 1.7257,0.77263 1.7257,1.7257c0,0.95307 -0.77263,1.72571 -1.7257,1.72571z" fill="#4e4e4e"/><path d="M252.60263,313.79795c-0.95307,0 -1.7257,-0.77263 -1.7257,-1.7257c0,-0.95307 0.77263,-1.7257 1.7257,-1.7257c0.95307,0 1.7257,0.77263 1.7257,1.7257c0,0.95307 -0.77263,1.7257 -1.7257,1.7257z" fill="#4e4e4e"/><path d="M252.60262,299.5363c1.90076,0 3.44161,0.46731 3.44161,6.35058c0,5.88326 -1.54086,6.14572 -3.44161,6.14572c-1.90074,0 -3.44161,-0.26245 -3.44161,-6.14572c0,-5.88326 1.54086,-6.35058 3.44161,-6.35058z" fill="#262626"/><path d="M249.16101,316.83411c0,-5.88325 1.54087,-4.53247 3.44161,-4.53247c1.90074,0 3.44161,-1.3508 3.44161,4.53247c0,5.88326 -1.54087,6.35058 -3.44161,6.35058c-1.90074,0 -3.44161,-0.46731 -3.44161,-6.35058z" fill="#262626"/></g><g><path d="M245.55915,325.22778c-0.95307,0 -1.7257,-0.77263 -1.7257,-1.7257c0,-0.95307 0.77263,-1.7257 1.7257,-1.7257c0.95307,0 1.7257,0.77263 1.7257,1.7257c0,0.95307 -0.77263,1.7257 -1.7257,1.7257z" fill="#4e4e4e"/><path d="M245.55915,314.89453c-0.95307,0 -1.7257,-0.77263 -1.7257,-1.7257c0,-0.95307 0.77263,-1.7257 1.7257,-1.7257c0.95307,0 1.7257,0.77263 1.7257,1.7257c0,0.95307 -0.77263,1.7257 -1.7257,1.7257z" fill="#4e4e4e"/><path d="M245.55914,300.63289c1.90074,0 3.44161,0.46731 3.44161,6.35058c0,5.88327 -1.54087,6.14573 -3.44161,6.14573c-1.90074,0 -3.44161,-0.26246 -3.44161,-6.14573c0,-5.88326 1.54087,-6.35058 3.44161,-6.35058z" fill="#262626"/><path d="M242.11753,317.93071c0,-5.88327 1.54087,-4.53247 3.44161,-4.53247c1.90074,0 3.44161,-1.3508 3.44161,4.53247c0,5.88326 -1.54087,6.35058 -3.44161,6.35058c-1.90074,0 -3.44161,-0.46731 -3.44161,-6.35058z" fill="#262626"/></g><g><path d="M238.6,326.45089c-0.95307,0 -1.7257,-0.77263 -1.7257,-1.7257c0,-0.95307 0.77263,-1.7257 1.7257,-1.7257c0.95307,0 1.7257,0.77263 1.7257,1.7257c0,0.95307 -0.77263,1.7257 -1.7257,1.7257z" fill="#4e4e4e"/><path d="M238.6,316.11765c-0.95307,0 -1.7257,-0.77263 -1.7257,-1.7257c0,-0.95307 0.77263,-1.7257 1.7257,-1.7257c0.95307,0 1.7257,0.77263 1.7257,1.7257c0,0.95307 -0.77263,1.7257 -1.7257,1.7257z" fill="#4e4e4e"/><path d="M238.60003,301.856c1.90074,0 3.44161,0.46731 3.44161,6.35058c0,5.88326 -1.54087,6.14573 -3.44161,6.14573c-1.90074,0 -3.44161,-0.26246 -3.44161,-6.14573c0,-5.88326 1.54087,-6.35058 3.44161,-6.35058z" fill="#262626"/><path d="M235.15841,319.15382c0,-5.88325 1.54087,-4.53247 3.44161,-4.53247c1.90074,0 3.44161,-1.3508 3.44161,4.53247c0,5.88326 -1.54087,6.35058 -3.44161,6.35058c-1.90074,0 -3.44161,-0.46731 -3.44161,-6.35058z" fill="#262626"/></g><g><path d="M231.56458,324.11574c-0.95307,0 -1.7257,-0.77263 -1.7257,-1.7257c0,-0.95307 0.77263,-1.7257 1.7257,-1.7257c0.95307,0 1.7257,0.77263 1.7257,1.7257c0,0.95309 -0.77263,1.7257 -1.7257,1.7257z" fill="#4e4e4e"/><path d="M231.56458,313.78249c-0.95307,0 -1.7257,-0.77263 -1.7257,-1.7257c0,-0.95307 0.77263,-1.7257 1.7257,-1.7257c0.95307,0 1.7257,0.77263 1.7257,1.7257c0,0.95307 -0.77263,1.7257 -1.7257,1.7257z" fill="#4e4e4e"/><path d="M231.56458,299.52085c1.90074,0 3.44161,0.46731 3.44161,6.35058c0,5.88326 -1.54087,6.14573 -3.44161,6.14573c-1.90074,0 -3.44161,-0.26246 -3.44161,-6.14573c0,-5.88326 1.54087,-6.35058 3.44161,-6.35058z" fill="#262626"/><path d="M228.12296,316.81865c0,-5.88325 1.54087,-4.53247 3.44161,-4.53247c1.90074,0 3.44161,-1.3508 3.44161,4.53247c0,5.88327 -1.54087,6.35059 -3.44161,6.35059c-1.90074,0 -3.44161,-0.46732 -3.44161,-6.35059z" fill="#262626"/></g><g><path d="M227.85026,287.32711c-0.72048,-0.72048 -0.72048,-1.88864 0,-2.60912c0.72048,-0.72049 1.88864,-0.72049 2.60912,-0.00001c0.72048,0.72049 0.72048,1.88865 0,2.60913c-0.72049,0.72048 -1.88864,0.72048 -2.60912,0z" fill="#4e4e4e"/><path d="M217.51066,297.66669c-0.72048,-0.72048 -0.72048,-1.88864 0,-2.60912c0.72048,-0.72048 1.88864,-0.72048 2.60912,0c0.72048,0.72048 0.72048,1.88864 0,2.60912c-0.72049,0.72048 -1.88864,0.72048 -2.60912,0z" fill="#4e4e4e"/><path d="M229.57935,285.59802c1.43689,1.43689 2.17022,3.03322 -3.26225,8.46569c-5.43247,5.43248 -6.83966,4.51 -8.27655,3.07311c-1.43689,-1.43689 -2.35937,-2.84408 3.0731,-8.27655c5.43247,-5.43246 7.02881,-4.69914 8.4657,-3.26225z" fill="#262626"/></g><path d="M250.91513,278.17647c2.07186,1.70545 9.00469,23.80362 3.05874,27.77945c-7.63087,5.10248 -24.81633,3.07947 -25.69313,-3.80062c-1.09565,-8.59733 -1.10557,-21.51404 5.62669,-25.17819c1.6489,-0.89743 5.69607,0.04992 7.52523,0.04992c2.73941,0 7.19647,-0.73226 9.48247,1.14944z" fill="#2b2b2b"/></g></g><g stroke="#2b2b2b" stroke-width="0"><g><path d="M179.52537,417.04617c-1.33686,5.25263 -5.70192,4.10794 -11.32607,4.11679c-7.52389,0.01186 -17.04938,-0.4925 -22.17653,-5.61965c-6.20341,-6.20341 -10.60114,-4.14924 -9.95078,-5.22203c1.04669,-1.72653 0.39895,-1.91922 3.15524,-4.67552c6.42647,-6.42645 17.79142,-11.55123 27.61829,-12.9461c2.28108,-0.32378 4.26008,-0.37573 6.2944,-0.09254c1.42032,0.1977 2.97995,0.55878 4.21293,1.10471c6.81272,3.01661 5.57151,13.32422 3.22673,22.68089c-0.60326,2.40723 -0.23749,-2.55549 -1.05421,0.65344z" fill="#323232"/><path d="M171.00297,408.10149c5.68983,0 10.30234,2.6168 10.30234,8.54874c0,5.93194 -4.61251,6.79515 -10.30234,6.79515c-5.68983,0 -10.30234,-0.86321 -10.30234,-6.79515c0,-5.93194 4.61251,-8.54874 10.30234,-8.54874z" fill="#2b2b2b"/><path d="M156.97425,408.10149c5.68982,0 10.30234,2.6168 10.30234,8.54874c0,5.93194 -4.61252,6.79515 -10.30234,6.79515c-5.68983,0 -10.30234,-0.86321 -10.30234,-6.79515c0,-5.93194 4.61251,-8.54874 10.30234,-8.54874z" fill="#2b2b2b"/><path d="M142.79942,407.22469c5.68982,0 10.30234,2.6168 10.30234,8.54874c0,5.93194 -4.61252,6.79515 -10.30234,6.79515c-5.68983,0 -10.30234,-0.86321 -10.30234,-6.79515c0,-5.93194 4.61251,-8.54874 10.30234,-8.54874z" fill="#2b2b2b"/><path d="M163.51664,394.63648c0.06158,-0.93187 3.09375,-1.74127 6.75215,-1.49952c3.65841,0.24176 6.55771,1.44312 6.49613,2.37499c-0.06158,0.93187 -3.06071,1.24134 -6.71912,0.99958c-3.65841,-0.24176 -6.59074,-0.94319 -6.52916,-1.87504z" fill="#000000"/></g><g><path d="M179.65063,416.9209c-1.33686,5.25263 -5.70192,4.10794 -11.32607,4.11679c-7.52389,0.01186 -17.04938,-0.4925 -22.17653,-5.61965c-6.20341,-6.20341 -10.60114,-4.14924 -9.95078,-5.22203c1.04669,-1.72653 0.39895,-1.91922 3.15524,-4.67552c6.42647,-6.42645 17.79142,-11.55123 27.61829,-12.9461c2.28108,-0.32378 4.26008,-0.37573 6.2944,-0.09254c1.42032,0.1977 2.97995,0.55878 4.21293,1.10471c6.81272,3.01661 5.57151,13.32422 3.22673,22.68089c-0.60326,2.40723 -0.23749,-2.55549 -1.05421,0.65344z" fill="#2f2f2f"/><path d="M171.12823,407.97624c5.68983,0 10.30234,2.6168 10.30234,8.54874c0,5.93194 -4.61251,6.79515 -10.30234,6.79515c-5.68983,0 -10.30234,-0.86321 -10.30234,-6.79515c0,-5.93194 4.61251,-8.54874 10.30234,-8.54874z" fill="#2b2b2b"/><path d="M157.09953,407.97624c5.68982,0 10.30234,2.6168 10.30234,8.54874c0,5.93194 -4.61252,6.79515 -10.30234,6.79515c-5.68983,0 -10.30234,-0.86321 -10.30234,-6.79515c0,-5.93194 4.61251,-8.54874 10.30234,-8.54874z" fill="#2b2b2b"/><path d="M142.92467,407.09944c5.68982,0 10.30234,2.6168 10.30234,8.54874c0,5.93194 -4.61252,6.79515 -10.30234,6.79515c-5.68983,0 -10.30234,-0.86321 -10.30234,-6.79515c0,-5.93194 4.61251,-8.54874 10.30234,-8.54874z" fill="#2b2b2b"/><path d="M163.6419,394.51123c0.06158,-0.93187 3.09375,-1.74127 6.75216,-1.49952c3.65841,0.24176 6.55771,1.44312 6.49613,2.37499c-0.06158,0.93187 -3.06071,1.24134 -6.71912,0.99958c-3.65841,-0.24176 -6.59074,-0.94319 -6.52916,-1.87504z" fill="#000000"/></g><path d="M170.60673,386.11214c2.62108,0 4.74591,2.1248 4.74591,4.74589c0,2.62109 -2.12481,4.74589 -4.74591,4.74589c-2.62108,0 -4.74588,-2.1248 -4.74588,-4.74589c0,-2.62109 2.1248,-4.74589 4.74588,-4.74589z" fill="#4e4e4e"/><path d="M162.82338,378.8381c0,-4.29863 3.48472,-7.78336 7.78336,-7.78336c4.29863,0 7.78336,3.48472 7.78336,7.78336c0,4.29863 -3.48472,7.78336 -7.78336,7.78336c-4.29863,0 -7.78336,-3.48473 -7.78336,-7.78336z" fill="#4e4e4e"/><path d="M162.82338,322.00021c0,-4.29863 3.48472,-7.78336 7.78336,-7.78336c4.29863,0 7.78336,3.48473 7.78336,7.78336c0,4.29863 -3.48472,7.78336 -7.78336,7.78336c-4.29863,0 -7.78336,-3.48473 -7.78336,-7.78336z" fill="#4e4e4e"/><path d="M162.82338,256.5167c0,-4.29863 3.48472,-7.78336 7.78336,-7.78336c4.29863,0 7.78336,3.48472 7.78336,7.78336c0,4.29863 -3.48472,7.78336 -7.78336,7.78336c-4.29862,0 -7.78336,-3.48472 -7.78336,-7.78336z" fill="#4e4e4e"/><path d="M187.97524,293.38078c0,37.34139 -7.77614,29.12985 -17.36852,29.12985c-9.59238,0 -17.36852,8.21152 -17.36852,-29.12985c0,-37.34139 7.77614,-37.86469 17.36852,-37.86469c9.59238,0 17.36852,0.5233 17.36852,37.86469z" fill="#2b2b2b"/><path d="M186.69095,353.84279c0,36.78614 -7.20115,38.44187 -16.08419,38.44187c-8.88304,0 -16.08419,-1.65574 -16.08419,-38.44187c0,-36.78614 7.20114,-28.79967 16.08419,-28.79967c8.88304,0 16.08419,-7.98645 16.08419,28.79967z" fill="#2b2b2b"/><path d="M182.91994,323.71817c0,2.8297 -5.51281,9.0541 -12.31321,9.0541c-6.8004,0 -12.31321,-6.2244 -12.31321,-9.0541c0,-2.8297 5.51281,-7.22924 12.31321,-7.22924c6.8004,0 12.31321,4.39953 12.31321,7.22924z" fill="#262626"/><path d="M165.53553,395.66054v-1.95592h9.57728v1.95592z" fill="url(#color-1)"/></g><g stroke="#2b2b2b" stroke-width="0"><g><path d="M199.05093,417.04615c-0.81672,-3.20895 -0.45097,1.75379 -1.05421,-0.65344c-2.34478,-9.35665 -3.58597,-19.66428 3.22673,-22.68089c1.23297,-0.54594 2.79261,-0.90701 4.21293,-1.10471c2.03432,-0.28317 4.01333,-0.23124 6.2944,0.09254c9.82687,1.39486 21.19182,6.51965 27.61828,12.9461c2.75631,2.75631 2.10856,2.949 3.15524,4.67552c0.65037,1.07279 -3.74736,-0.98138 -9.95078,5.22203c-5.12716,5.12714 -14.65264,5.63151 -22.17653,5.61965c-5.62415,-0.00885 -9.98921,1.13584 -11.32607,-4.11679z" fill="#323232"/><path d="M217.87562,416.65025c0,5.93194 -4.61251,6.79515 -10.30234,6.79515c-5.68983,0 -10.30234,-0.86321 -10.30234,-6.79515c0,-5.93194 4.61251,-8.54874 10.30234,-8.54874c5.68983,0 10.30234,2.6168 10.30234,8.54874z" fill="#2b2b2b"/><path d="M231.90433,416.65025c0,5.93194 -4.61251,6.79515 -10.30234,6.79515c-5.68982,0 -10.30234,-0.86321 -10.30234,-6.79515c0,-5.93194 4.61252,-8.54874 10.30234,-8.54874c5.68983,0 10.30234,2.6168 10.30234,8.54874z" fill="#2b2b2b"/><path d="M246.07922,415.77345c0,5.93194 -4.61251,6.79515 -10.30234,6.79515c-5.68982,0 -10.30234,-0.86321 -10.30234,-6.79515c0,-5.93194 4.61252,-8.54874 10.30234,-8.54874c5.68983,0 10.30234,2.6168 10.30234,8.54874z" fill="#2b2b2b"/><path d="M208.53048,396.51153c-3.65841,0.24176 -6.65754,-0.06771 -6.71912,-0.99958c-0.06158,-0.93187 2.83771,-2.13323 6.49613,-2.37499c3.65841,-0.24176 6.69057,0.56766 6.75215,1.49952c0.06158,0.93187 -2.87075,1.6333 -6.52915,1.87504z" fill="#000000"/></g><g><path d="M198.92568,416.9209c-0.81672,-3.20895 -0.45097,1.75379 -1.05421,-0.65344c-2.34478,-9.35665 -3.58597,-19.66428 3.22673,-22.68089c1.23297,-0.54594 2.79261,-0.90701 4.21293,-1.10471c2.03432,-0.28317 4.01333,-0.23124 6.2944,0.09254c9.82687,1.39486 21.19182,6.51965 27.61828,12.9461c2.75631,2.75631 2.10856,2.949 3.15524,4.67552c0.65037,1.07279 -3.74736,-0.98138 -9.95078,5.22203c-5.12716,5.12714 -14.65264,5.63151 -22.17653,5.61965c-5.62415,-0.00885 -9.98921,1.13584 -11.32607,-4.11679z" fill="#2f2f2f"/><path d="M217.7504,416.52498c0,5.93194 -4.61251,6.79515 -10.30234,6.79515c-5.68983,0 -10.30234,-0.86321 -10.30234,-6.79515c0,-5.93194 4.61251,-8.54874 10.30234,-8.54874c5.68983,0 10.30234,2.6168 10.30234,8.54874z" fill="#2b2b2b"/><path d="M231.77912,416.52498c0,5.93194 -4.61251,6.79515 -10.30234,6.79515c-5.68982,0 -10.30234,-0.86321 -10.30234,-6.79515c0,-5.93194 4.61252,-8.54874 10.30234,-8.54874c5.68983,0 10.30234,2.6168 10.30234,8.54874z" fill="#2b2b2b"/><path d="M245.95392,415.64819c0,5.93194 -4.61251,6.79515 -10.30234,6.79515c-5.68982,0 -10.30234,-0.86321 -10.30234,-6.79515c0,-5.93194 4.61252,-8.54874 10.30234,-8.54874c5.68983,0 10.30234,2.6168 10.30234,8.54874z" fill="#2b2b2b"/><path d="M208.40525,396.38628c-3.65841,0.24176 -6.65754,-0.06771 -6.71912,-0.99958c-0.06158,-0.93187 2.83771,-2.13323 6.49613,-2.37499c3.65841,-0.24176 6.69057,0.56766 6.75215,1.49952c0.06158,0.93187 -2.87075,1.6333 -6.52915,1.87504z" fill="#000000"/></g><path d="M212.71543,390.85805c0,2.62109 -2.1248,4.74589 -4.74589,4.74589c-2.62109,0 -4.74589,-2.1248 -4.74589,-4.74589c0,-2.62109 2.12481,-4.74589 4.74589,-4.74589c2.62108,0 4.74589,2.1248 4.74589,4.74589z" fill="#4e4e4e"/><path d="M207.96953,386.62147c-4.29863,0 -7.78336,-3.48473 -7.78336,-7.78336c0,-4.29863 3.48472,-7.78336 7.78336,-7.78336c4.29863,0 7.78336,3.48472 7.78336,7.78336c0,4.29863 -3.48472,7.78336 -7.78336,7.78336z" fill="#4e4e4e"/><path d="M207.96953,329.78358c-4.29863,0 -7.78336,-3.48473 -7.78336,-7.78336c0,-4.29863 3.48472,-7.78336 7.78336,-7.78336c4.29863,0 7.78336,3.48473 7.78336,7.78336c0,4.29863 -3.48472,7.78336 -7.78336,7.78336z" fill="#4e4e4e"/><path d="M207.96953,264.30006c-4.29863,0 -7.78336,-3.48473 -7.78336,-7.78336c0,-4.29863 3.48473,-7.78336 7.78336,-7.78336c4.29863,0 7.78336,3.48473 7.78336,7.78336c0,4.29863 -3.48475,7.78336 -7.78336,7.78336z" fill="#4e4e4e"/><path d="M207.96953,255.5161c9.59238,0 17.36852,0.52328 17.36852,37.86469c0,37.34138 -7.77614,29.12985 -17.36852,29.12985c-9.59238,0 -17.36852,8.21154 -17.36852,-29.12985c0,-37.34139 7.77614,-37.86469 17.36852,-37.86469z" fill="#2b2b2b"/><path d="M207.96953,325.04312c8.88306,0 16.08419,-7.98646 16.08419,28.79967c0,36.78614 -7.20114,38.44187 -16.08419,38.44187c-8.88304,0 -16.08419,-1.65574 -16.08419,-38.44187c0,-36.78612 7.20115,-28.79967 16.08419,-28.79967z" fill="#2b2b2b"/><path d="M207.96953,316.48893c6.8004,0 12.31321,4.39954 12.31321,7.22924c0,2.8297 -5.51281,9.0541 -12.31321,9.0541c-6.80039,0 -12.31321,-6.2244 -12.31321,-9.0541c0,-2.82971 5.5128,-7.22924 12.31321,-7.22924z" fill="#262626"/><path d="M203.46347,395.66054v-1.95592h9.57728v1.95592z" fill="url(#color-2)"/></g><g fill="#262626" stroke="#2b2b2b" stroke-width="0"><g><path d="M191.14855,258.70052c-5.82441,0 -11.03065,-3.45971 -16.09202,-4.40632c-7.02715,-1.31427 -10.74743,1.54367 -13.89438,-3.39677c-1.97628,-3.10259 -2.81857,-17.33993 -2.81857,-20.17159c0,-10.58829 13.81566,-16.89215 32.80496,-16.89215c9.79083,0 9.1985,44.86682 0,44.86682z"/></g><g><path d="M187.42779,213.83369c18.98931,0 32.80496,6.30386 32.80496,16.89215c0,2.83166 -0.84229,17.06899 -2.81857,20.17159c-3.14695,4.94044 -6.86723,2.08251 -13.89438,3.39677c-5.06136,0.94661 -10.2676,4.40632 -16.09202,4.40632c-9.1985,0 -9.79083,-44.86682 0,-44.86682z"/></g></g><path d="M229.5032,152.0642c-2.18392,-2.87052 -1.62732,-6.96797 1.2432,-9.15189c2.87052,-2.18392 6.96797,-1.62732 9.15189,1.2432c2.18392,2.87052 1.62732,6.96797 -1.2432,9.15189c-2.87052,2.18392 -6.96797,1.62732 -9.15189,-1.2432z" fill="#4e4e4e" stroke="#2b2b2b" stroke-width="0"/><path d="M193.24427,136.99332l2.28555,-8.1617l43.34145,12.13709l-2.28555,8.1617z" fill="#4e4e4e" stroke="#2b2b2b" stroke-width="0"/><path d="M141.99058,149.13038l-2.28555,-8.1617l43.34146,-12.13707l2.28555,8.1617z" fill="#4e4e4e" stroke="#2b2b2b" stroke-width="0"/><g stroke="#2b2b2b" stroke-width="0"><path d="M134.73466,268.54987c0,-3.60686 2.92393,-6.5308 6.53079,-6.5308c3.60686,0 6.5308,2.92393 6.5308,6.5308c0,3.60686 -2.92393,6.5308 -6.5308,6.5308c-3.60686,0 -6.53079,-2.92393 -6.53079,-6.5308z" fill="#4e4e4e"/><path d="M134.73466,211.712c0,-3.60686 2.92393,-6.5308 6.53079,-6.5308c3.60686,0 6.5308,2.92393 6.5308,6.5308c0,3.60686 -2.92393,6.5308 -6.5308,6.5308c-3.60686,0 -6.53079,-2.92393 -6.53079,-6.5308z" fill="#4e4e4e"/><path d="M134.73466,146.88608c0,-3.60686 2.92393,-6.5308 6.5308,-6.5308c3.60686,0 6.5308,2.92393 6.5308,6.5308c0,3.60686 -2.92393,6.5308 -6.5308,6.5308c-3.60686,0 -6.5308,-2.92393 -6.5308,-6.5308z" fill="#4e4e4e"/><path d="M156.69248,182.1578c0,35.77105 -6.90692,27.90485 -15.42705,27.90485c-8.52013,0 -15.42705,7.86619 -15.42705,-27.90485c0,-35.77105 6.90692,-36.27234 15.42705,-36.27234c8.52013,0 15.42705,0.50129 15.42705,36.27234z" fill="#2b2b2b"/><path d="M155.55172,237.48676c0,31.6852 -6.39619,33.11134 -14.28629,33.11134c-7.8901,0 -14.28628,-1.42614 -14.28628,-33.11134c0,-31.6852 6.39618,-24.80618 14.28628,-24.80618c7.8901,0 14.28629,-6.87901 14.28629,24.80618z" fill="#2b2b2b"/></g><g fill="#2b2b2b" stroke="#2b2b2b" stroke-width="0"><g><path d="M189.04743,247.95218c-21.11227,0 -33.05156,0.99037 -33.05156,-33.51229c0,-10.41251 -10.42836,-33.76462 -8.57761,-42.34392c4.28186,-19.84885 26.88833,-19.89 41.62916,-19.89c5.38844,0 5.16877,95.7462 0,95.7462z"/></g><g><path d="M189.52889,152.20598c14.74083,0 37.3473,0.04115 41.62916,19.89c1.85075,8.57929 -8.57761,31.93139 -8.57761,42.34391c0,34.50266 -11.9393,33.51229 -33.05157,33.51229c-5.16877,0 -5.38844,-95.7462 0,-95.7462z"/></g></g><g fill="#2b2b2b" stroke="#2b2b2b" stroke-width="0"><path d="M187.77823,171.51135c0,21.24603 -5.97775,38.46936 -13.3517,38.46936c-7.37393,0 -31.53274,-29.93684 -31.53274,-51.18288c0,-21.24603 19.65724,-29.36419 26.21537,-30.98289c7.21179,-1.78003 18.66907,22.45036 18.66907,43.6964z"/><path d="M209.46709,127.81493c6.55811,1.61869 26.21537,9.73684 26.21537,30.98289c0,21.24603 -24.15879,51.18288 -31.53272,51.18288c-7.37393,0 -13.3517,-17.22333 -13.3517,-38.46936c0,-21.24603 11.4573,-45.47643 18.66907,-43.6964z"/><path d="M189.28815,166.11764c-15.08602,0 -27.31563,-28.442 -27.31563,-33.06246c0,-4.62046 12.22962,-8.36608 27.31563,-8.36608c15.08602,0 27.31565,3.74562 27.31565,8.36608c0,4.62046 -12.22963,33.06246 -27.31565,33.06246z"/><path d="M222.62828,179.94908c0,19.07906 -14.92692,34.5457 -33.3402,34.5457c-18.41328,0 -33.34019,-15.46663 -33.34019,-34.5457c0,-19.07906 14.92692,-34.5457 33.34019,-34.5457c18.41328,0 33.3402,15.46663 33.3402,34.5457z"/></g><g fill="#323232" stroke="#2b2b2b" stroke-width="0"><g><g><path d="M189.08394,245.32191c-17.9086,0 -28.03616,0.95046 -28.03616,-32.16151c0,-9.99282 -8.84592,-32.40366 -7.27601,-40.63713c3.63212,-19.04879 22.80818,-19.08829 35.31217,-19.08829c4.57079,0 4.38443,91.88694 0,91.88694z"/></g><g><path d="M189.49235,153.43498c12.504,0 31.68006,0.03949 35.31217,19.08829c1.56991,8.23348 -7.27601,30.64433 -7.27601,40.63713c0,33.11197 -10.12757,32.16151 -28.03616,32.16151c-4.38443,0 -4.57079,-91.88694 0,-91.88694z"/></g></g><g><path d="M188.00735,171.96219c0,20.38967 -5.07066,36.91876 -11.32565,36.91876c-6.25499,0 -26.74782,-28.73017 -26.74782,-49.11985c0,-20.38967 16.67436,-28.18059 22.23732,-29.73405c6.11743,-1.70829 15.83615,21.54545 15.83615,41.93513z"/><path d="M206.40506,130.02705c5.56296,1.55346 22.23732,9.34438 22.23732,29.73405c0,20.38967 -20.49282,49.11985 -26.74781,49.11985c-6.25499,0 -11.32565,-16.52909 -11.32565,-36.91876c0,-20.38967 9.71872,-43.6434 15.83613,-41.93513z"/><path d="M189.28815,166.7859c-12.79678,0 -23.17063,-27.29558 -23.17063,-31.7298c0,-4.43422 10.37385,-8.02887 23.17063,-8.02887c12.79678,0 23.17064,3.59464 23.17064,8.02887c0,4.43422 -10.37385,31.7298 -23.17064,31.7298z"/><path d="M217.56913,180.05982c0,18.31005 -12.66185,33.15326 -28.281,33.15326c-15.61917,0 -28.28099,-14.84322 -28.28099,-33.15326c0,-18.31005 12.66183,-33.15326 28.28099,-33.15326c15.61917,0 28.281,14.84322 28.281,33.15326z"/></g></g><path d="M205.18557,129.3288c0,2.31877 -7.11756,5.5474 -15.89752,5.5474c-8.77996,0 -15.89752,-3.22865 -15.89752,-5.5474c0,-2.31877 7.11756,-4.1985 15.89752,-4.1985c8.77996,0 15.89752,1.87973 15.89752,4.1985z" fill="#000000" stroke="#2b2b2b" stroke-width="0"/><path d="M205.28961,151.84067c0,-8.1605 3.23648,-15.3042 2.99063,-20.12928c-0.18124,-3.55711 -5.07892,-5.78 -4.39349,-5.78c8.4742,0 33.9904,9.03728 33.9904,25.17862c0,6.09339 -4.44094,24.46452 -7.87871,39.88113c-1.84411,8.26986 6.6123,35.87536 4.84706,44.16241c-2.18864,10.2747 -24.20548,12.40385 -25.75645,12.40385c-4.13201,0 0.32025,-45.09566 -1.37028,-57.98819c-1.77653,-13.54834 -2.42917,-29.45769 -2.42917,-37.72854z" fill="#770000" stroke="#2b2b2b" stroke-width="0"/><g stroke="#2b2b2b" stroke-width="0"><g><path d="M128.32951,316.67746c0,-0.95307 0.77263,-1.7257 1.7257,-1.7257c0.95307,0 1.7257,0.77263 1.7257,1.7257c0,0.95307 -0.77263,1.72571 -1.7257,1.72571c-0.95307,0 -1.7257,-0.77264 -1.7257,-1.72571z" fill="#4e4e4e"/><path d="M128.32951,306.34422c0,-0.95307 0.77263,-1.7257 1.7257,-1.7257c0.95307,0 1.7257,0.77263 1.7257,1.7257c0,0.95307 -0.77263,1.7257 -1.7257,1.7257c-0.95307,0 -1.7257,-0.77263 -1.7257,-1.7257z" fill="#4e4e4e"/><path d="M133.49683,300.15885c0,5.88327 -1.54087,6.14572 -3.44161,6.14572c-1.90075,0 -3.44161,-0.26246 -3.44161,-6.14572c0,-5.88327 1.54085,-6.35058 3.44161,-6.35058c1.90075,0 3.44161,0.46732 3.44161,6.35058z" fill="#262626"/><path d="M130.05522,317.45666c-1.90074,0 -3.44161,-0.46732 -3.44161,-6.35058c0,-5.88327 1.54087,-4.53247 3.44161,-4.53247c1.90074,0 3.44161,-1.35078 3.44161,4.53247c0,5.88327 -1.54087,6.35058 -3.44161,6.35058z" fill="#262626"/></g><g><path d="M135.37299,317.77405c0,-0.95307 0.77263,-1.7257 1.7257,-1.7257c0.95307,0 1.7257,0.77263 1.7257,1.7257c0,0.95307 -0.77263,1.7257 -1.7257,1.7257c-0.95307,0 -1.7257,-0.77263 -1.7257,-1.7257z" fill="#4e4e4e"/><path d="M135.37299,307.44079c0,-0.95307 0.77263,-1.7257 1.7257,-1.7257c0.95307,0 1.7257,0.77263 1.7257,1.7257c0,0.95307 -0.77263,1.7257 -1.7257,1.7257c-0.95307,0 -1.7257,-0.77263 -1.7257,-1.7257z" fill="#4e4e4e"/><path d="M140.5403,301.25543c0,5.88327 -1.54087,6.14573 -3.44161,6.14573c-1.90074,0 -3.44161,-0.26246 -3.44161,-6.14573c0,-5.88327 1.54087,-6.35058 3.44161,-6.35058c1.90074,0 3.44161,0.46732 3.44161,6.35058z" fill="#262626"/><path d="M137.0987,318.55325c-1.90074,0 -3.44161,-0.46732 -3.44161,-6.35058c0,-5.88327 1.54087,-4.53247 3.44161,-4.53247c1.90074,0 3.44161,-1.3508 3.44161,4.53247c0,5.88327 -1.54087,6.35058 -3.44161,6.35058z" fill="#262626"/></g><g><path d="M142.33214,318.99716c0,-0.95307 0.77263,-1.7257 1.7257,-1.7257c0.95307,0 1.7257,0.77263 1.7257,1.7257c0,0.95307 -0.77263,1.7257 -1.7257,1.7257c-0.95307,0 -1.7257,-0.77263 -1.7257,-1.7257z" fill="#4e4e4e"/><path d="M142.33214,308.66391c0,-0.95307 0.77263,-1.7257 1.7257,-1.7257c0.95307,0 1.7257,0.77263 1.7257,1.7257c0,0.95307 -0.77263,1.7257 -1.7257,1.7257c-0.95307,0 -1.7257,-0.77263 -1.7257,-1.7257z" fill="#4e4e4e"/><path d="M147.49942,302.47855c0,5.88327 -1.54087,6.14573 -3.44161,6.14573c-1.90074,0 -3.44161,-0.26247 -3.44161,-6.14573c0,-5.88327 1.54087,-6.35058 3.44161,-6.35058c1.90074,0 3.44161,0.46732 3.44161,6.35058z" fill="#262626"/><path d="M144.05782,319.77637c-1.90074,0 -3.44161,-0.46732 -3.44161,-6.35058c0,-5.88327 1.54087,-4.53247 3.44161,-4.53247c1.90074,0 3.44161,-1.35078 3.44161,4.53247c0,5.88327 -1.54087,6.35058 -3.44161,6.35058z" fill="#262626"/></g><g><path d="M149.36756,316.66201c0,-0.95307 0.77263,-1.7257 1.7257,-1.7257c0.95307,0 1.7257,0.77263 1.7257,1.7257c0,0.95307 -0.77263,1.7257 -1.7257,1.7257c-0.95307,0 -1.7257,-0.77261 -1.7257,-1.7257z" fill="#4e4e4e"/><path d="M149.36756,306.32876c0,-0.95307 0.77263,-1.7257 1.7257,-1.7257c0.95307,0 1.7257,0.77263 1.7257,1.7257c0,0.95307 -0.77263,1.7257 -1.7257,1.7257c-0.95307,0 -1.7257,-0.77263 -1.7257,-1.7257z" fill="#4e4e4e"/><path d="M154.53487,300.1434c0,5.88327 -1.54087,6.14573 -3.44161,6.14573c-1.90074,0 -3.44161,-0.26247 -3.44161,-6.14573c0,-5.88327 1.54087,-6.35058 3.44161,-6.35058c1.90074,0 3.44161,0.46732 3.44161,6.35058z" fill="#262626"/><path d="M151.09327,317.44121c-1.90074,0 -3.44161,-0.46732 -3.44161,-6.35059c0,-5.88327 1.54087,-4.53247 3.44161,-4.53247c1.90074,0 3.44161,-1.35078 3.44161,4.53247c0,5.88327 -1.54087,6.35059 -3.44161,6.35059z" fill="#262626"/></g><g><path d="M152.19846,281.59908c-0.72048,-0.72048 -0.72048,-1.88864 0,-2.60913c0.72048,-0.72048 1.88864,-0.72048 2.60912,0.00001c0.72048,0.72048 0.72048,1.88864 0,2.60912c-0.72048,0.72048 -1.88863,0.72048 -2.60912,0z" fill="#4e4e4e"/><path d="M162.53806,291.93866c-0.72048,-0.72048 -0.72048,-1.88864 0,-2.60912c0.72048,-0.72048 1.88864,-0.72048 2.60912,0c0.72048,0.72048 0.72048,1.88864 0,2.60912c-0.72048,0.72048 -1.88863,0.72048 -2.60912,0z" fill="#4e4e4e"/><path d="M161.54419,283.13223c5.43247,5.43247 4.50999,6.83966 3.0731,8.27655c-1.43689,1.43689 -2.84408,2.35937 -8.27655,-3.07311c-5.43247,-5.43247 -4.69914,-7.0288 -3.26225,-8.46569c1.43689,-1.43689 3.03323,-2.17021 8.4657,3.26225z" fill="#262626"/></g><path d="M141.22518,271.299c1.82916,0 5.87633,-0.94735 7.52523,-0.04992c6.73226,3.66415 6.72234,16.58086 5.62669,25.17819c-0.8768,6.88009 -18.06226,8.9031 -25.69313,3.80062c-5.94595,-3.97583 0.98688,-26.074 3.05874,-27.77945c2.286,-1.8817 6.74306,-1.14944 9.48247,-1.14944z" fill="#2b2b2b"/></g><g fill="#4e4e4e" stroke="#2b2b2b" stroke-width="0"><path d="M174.76768,126.13192l0.76498,-15.93723l27.14937,1.30318l-0.76499,15.93723z"/><path d="M201.91703,127.43509c-0.0879,1.83127 -6.29173,4.16933 -13.78883,3.80946c-7.49708,-0.35987 -13.44845,-3.28138 -13.36056,-5.11264c0.0879,-1.83128 6.23676,-3.02407 13.73385,-2.66421c7.49708,0.35986 13.50343,2.13613 13.41554,3.96739z"/><path d="M189.0406,112.23677c-7.49708,-0.35986 -13.54481,-1.27414 -13.50795,-2.04208c0.03686,-0.76796 6.14435,-1.09878 13.64144,-0.73892c7.49708,0.35986 13.5448,1.27414 13.50795,2.0421c-0.03686,0.76796 -6.14434,1.09876 -13.64144,0.73889z"/></g><g stroke="#000000" stroke-width="0"><path d="M143.56351,18.1338c0,0 12.20235,16.48107 26.69127,26.31854c10.728,7.28392 25.46624,15.79626 23.86404,20.57307c-3.76611,11.22822 -26.32198,33.14401 -38.77122,33.32277c-4.93695,0.07089 -16.79745,-8.97369 -20.02646,-21.12829c-4.91341,-18.49493 8.24239,-59.08609 8.24239,-59.08609z" fill="#262626"/><path d="M145.00542,22.16254c0,0 10.99712,14.85326 24.05499,23.71907c9.6684,6.5645 22.9704,15.04834 21.52646,19.35334c-3.39412,10.11921 -23.72216,29.87038 -34.9418,30.03149c-4.44934,0.06389 -15.13837,-8.08736 -18.04845,-19.04147c-4.4281,-16.66818 7.40883,-54.06244 7.40883,-54.06244z" fill="#202020"/></g><g stroke="#000000" stroke-width="0"><path d="M245.49154,82.50809c-4.37833,11.78945 -17.05059,19.65644 -21.95806,19.11303c-12.3749,-1.37032 -32.72798,-25.34575 -35.40132,-36.88305c-1.13731,-4.9083 14.34848,-11.96988 25.7248,-18.19279c15.36456,-8.40449 29.08935,-23.64105 29.08935,-23.64105c0,0 9.20748,41.6646 2.54524,59.60389z" fill="#262626"/><path d="M243.32186,81.29983c-3.9459,10.62501 -15.36649,17.71498 -19.78926,17.22524c-11.15261,-1.23498 -29.49545,-22.84235 -31.90475,-33.24013c-1.02498,-4.4235 13.02846,-11.59429 23.28114,-17.20256c13.847,-7.57438 26.21621,-21.30602 26.21621,-21.30602c0,0 8.2009,38.35607 2.19667,54.5235z" fill="#202020"/></g><g fill="#2b2b2b" stroke="#000000" stroke-width="0"><path d="M149.11524,80.20393c1.14941,-23.94598 19.98641,-40.0711 42.80966,-38.97557c22.82324,1.09552 40.5096,18.97378 39.36019,42.91976c-1.14941,23.94598 -20.58308,42.46992 -43.40633,41.37439c-18.81725,-0.90323 -42.24961,-20.90834 -41.08816,-39.69194c0.25824,-4.1765 2.1229,-1.4236 2.32464,-5.62663z"/><path d="M233.25014,89.98065c-0.64299,18.80849 -25.88369,36.47728 -44.70094,35.57405c-22.82323,-1.09552 -40.39335,-21.39566 -39.24393,-45.34162c1.14941,-23.94598 20.46683,-40.04804 43.29007,-38.95252c22.82323,1.09552 40.02918,18.95072 38.87977,42.89671c-0.20174,4.20305 1.91802,1.6414 1.77504,5.82341z"/></g><path d="M151.36526,80.65295c1.10628,-23.04732 19.26868,-37.63168 40.76009,-36.60009c21.49139,1.0316 38.17342,17.28849 37.06715,40.33582c-1.10628,23.04733 -19.26868,37.63168 -40.76009,36.60009c-21.49139,-1.03159 -38.17342,-17.28849 -37.06715,-40.33581z" fill="#323232" stroke="#000000" stroke-width="0"/><g fill="#2b2b2b" stroke="#000000" stroke-width="0"><path d="M156.59561,82.92606c0.47251,-9.84388 9.58385,-18.72479 18.48851,-18.29737c8.90466,0.42743 11.82574,10.35729 11.35323,20.20116c-0.47251,9.84388 -5.49461,17.0356 -14.39929,16.60817c-8.90466,-0.42743 -15.91496,-8.66808 -15.44246,-18.51196z"/><path d="M206.62386,103.09816c-8.90467,-0.42743 -13.21487,-8.0671 -12.74236,-17.91098c0.47251,-9.84388 4.33123,-19.44829 13.23591,-19.02088c8.90466,0.42743 17.12349,10.14019 16.65098,19.98407c-0.47251,9.84388 -8.23987,17.37521 -17.14453,16.94778z"/></g><path d="M156.63054,82.19863c0.45455,-9.46976 9.54892,-17.99737 18.45358,-17.56994c2.16687,0.10402 3.98046,0.74871 5.47787,1.80127c0.228,0.16027 2.65776,-1.44371 2.65776,-1.44371c0,0 -1.0561,2.81761 -0.64135,3.31518c3.10437,3.72449 4.18328,9.77172 3.89473,15.78311c-0.45455,9.46976 -5.46312,16.37964 -14.36779,15.95221c-2.6431,-0.12687 -5.1206,-0.91571 -7.28602,-2.21003c-0.513,-0.30661 -2.8497,1.31419 -2.8497,1.31419c0,0 0.77713,-2.77949 0.49501,-3.02563c-3.77595,-3.29409 -6.10175,-8.34033 -5.83409,-13.91668z" fill="#000000" stroke="#000000" stroke-width="0"/><path d="M206.69105,101.6969c-8.90466,-0.42743 -13.22839,-7.78528 -12.77384,-17.25503c0.45455,-9.46976 4.29545,-18.703 13.20012,-18.27556c8.90466,0.42743 17.14045,9.78688 16.6859,19.25665c-0.45455,9.46976 -8.20752,16.70139 -17.11219,16.27396z" fill="#000000" stroke="#000000" stroke-width="0"/><g fill="#000000" stroke="#000000" stroke-width="0"><path d="M188.78623,122.1371c-11.28229,-0.54156 -22.68773,-7.98649 -29.611,-14.16223c-5.08778,-4.53843 -5.19391,-13.78612 -5.19391,-13.78612c0,0 2.80434,7.51927 6.37404,9.07223c1.16467,0.50669 3.51975,1.89793 3.51975,1.89793c0,0 2.7267,-0.66114 4.21726,-0.59104c0.50755,0.02387 1.58459,1.64729 1.58459,1.64729c0,0 1.70817,-1.09818 2.5676,-1.09193c5.13177,0.03732 10.98274,0.62744 17.31364,0.93132c4.85722,0.23314 4.15699,16.31912 -0.77197,16.08253z"/><path d="M187.97019,122.09792c-4.92896,-0.23659 -4.08526,-16.31569 0.77197,-16.08253c6.33088,0.30388 12.21148,0.27688 17.32324,0.73126c0.8561,0.07609 2.45121,1.33282 2.45121,1.33282c0,0 1.2276,-1.5128 1.73507,-1.48794c1.49041,0.07299 4.14127,0.99225 4.14127,0.99225c0,0 2.4775,-1.15929 3.68536,-1.55209c3.70203,-1.20393 7.21367,-8.42001 7.21367,-8.42001c0,0 -0.99138,9.195 -6.49046,13.22525c-7.48297,5.48423 -19.54904,11.80254 -30.83132,11.26098z"/></g><path d="M174.70682,105.38306c0,0 -3.20665,2.64232 -4.45753,7.58457c-1.25086,4.94225 1.37835,7.70226 1.37835,7.70226c0,0 -6.07561,-3.9702 -9.41014,-8.84507c-2.54317,-3.71797 -2.57445,-8.56713 -2.51476,-9.01199c0.51972,0.4421 1.58725,1.23574 2.03045,1.03459c0,0 0.83785,0.83267 1.99755,1.13573c0.89393,0.23361 3.31275,-0.66982 4.28683,-0.31435c0.52848,0.19286 0.80636,0.52138 1.20877,0.82594c0.26191,0.19822 0.19492,0.65077 0.43757,0.70354c0.27608,0.06005 2.05282,-1.03879 2.35001,-0.99845c1.32184,0.17942 2.69286,0.18319 2.69286,0.18319z" fill="#ffffff" stroke="#ff0000" stroke-width="0"/><path d="M206.28753,106.84503c0.29969,-0.0117 1.96301,1.25226 2.24358,1.21893c0.24658,-0.02928 0.22326,-0.48617 0.50295,-0.6584c0.42971,-0.26462 0.73778,-0.565 1.28232,-0.70636c1.00364,-0.26054 3.32482,0.87042 4.23702,0.72349c1.18339,-0.1906 2.09714,-0.9392 2.09714,-0.9392c0.42192,0.24268 1.56052,-0.44506 2.1202,-0.83537c0.01682,0.44851 -0.47876,5.27239 -3.36635,8.72969c-3.7861,4.53309 -10.21406,7.90311 -10.21406,7.90311c0,0 2.88148,-2.49551 2.10974,-7.53484c-0.77174,-5.03933 -3.71058,-7.97662 -3.71058,-7.97662c0,0 1.36508,0.12755 2.69804,0.07556z" fill="#ffffff" stroke="#ff0000" stroke-width="0"/><g fill="none" stroke="#2b2b2b" stroke-width="0.5"><path d="M188.75887,122.13578l-0.00001,-0.00001c-11.28229,-0.54156 -22.68773,-7.98649 -29.611,-14.16223c-5.08778,-4.53843 -5.19391,-13.78611 -5.19391,-13.78611c0,0 2.80434,7.51927 6.37404,9.07223c1.16467,0.50669 3.51975,1.89793 3.51975,1.89793c0,0 2.7267,-0.66113 4.21726,-0.59104c0.50755,0.02387 1.58459,1.64728 1.58459,1.64728c0,0 1.70817,-1.09817 2.5676,-1.09193c5.13177,0.03732 10.98274,0.62745 17.31364,0.93133"/><path d="M188.71479,106.0141c6.33088,0.30388 12.21148,0.27688 17.32324,0.73126c0.8561,0.07609 2.45121,1.33282 2.45121,1.33282c0,0 1.2276,-1.5128 1.73507,-1.48794c1.49041,0.07299 4.14127,0.99225 4.14127,0.99225c0,0 2.47749,-1.15929 3.68535,-1.55209c3.70203,-1.20393 7.21367,-8.42001 7.21367,-8.42001c0,0 -0.99138,9.195 -6.49045,13.22525c-7.48297,5.48423 -19.54904,11.80254 -30.83132,11.26098l0,0.00001"/></g><path d="M170.24931,112.96764c-1.25086,4.94225 1.37835,7.70226 1.37835,7.70226c0,0 -6.07562,-3.9702 -9.41014,-8.84507c-0.83934,-1.22707 -1.40508,-2.57735 -1.78424,-3.85186c2.43063,0.55398 6.42517,1.10797 7.22998,1.21881c1.26449,0.17418 2.52985,0.35832 3.79415,0.5376c-0.47023,0.93544 -0.89894,2.01657 -1.20812,3.23824z" fill="#ffffff" stroke="#ff0000" stroke-width="0"/><path d="M206.40763,111.40702c1.27566,-0.05735 2.55285,-0.11946 3.8282,-0.17173c0.81173,-0.03326 4.84096,-0.20209 7.31348,-0.52074c-0.49949,1.23233 -1.19195,2.52222 -2.14497,3.66324c-3.7861,4.53309 -10.21406,7.90311 -10.21406,7.90311c0,0 2.88148,-2.49551 2.10974,-7.53484c-0.19075,-1.24567 -0.51395,-2.36289 -0.89243,-3.33906z" fill="#ffffff" stroke="#ff0000" stroke-width="0"/><g stroke-width="0"><g stroke="#000000"><path d="M214.74212,48.96457c-0.07224,1.50498 -5.03126,2.48979 -22.7952,1.63712c-17.76393,-0.85267 -22.87724,-2.32095 -22.80501,-3.82594c0.07224,-1.50498 5.3027,-2.47677 23.06661,-1.6241c17.76393,0.85267 22.60583,2.30794 22.53359,3.81291z" fill="#252525"/><path d="M191.93715,45.13863c17.76393,0.85267 22.87726,2.32097 22.80502,3.82594c-0.07224,1.50498 -5.3027,2.47677 -23.06662,1.6241c-17.76393,-0.85267 -22.60583,-2.30794 -22.53359,-3.81291c0.07224,-1.50498 5.03126,-2.48979 22.7952,-1.63713z" fill="#222222"/></g><path d="M169.14126,46.79123l0.26309,-5.481l45.60021,2.18883l-0.26309,5.481z" fill="#222222" stroke="#000000"/><g fill="#202020" stroke="#000000"><path d="M215.00447,43.49904c-0.07224,1.50498 -5.03126,2.48979 -22.7952,1.63712c-17.76393,-0.85267 -22.87724,-2.32095 -22.80501,-3.82594c0.07224,-1.50498 5.3027,-2.47677 23.06661,-1.6241c17.76393,0.85267 22.60583,2.30794 22.53359,3.81291z"/><path d="M192.1995,39.67311c17.76393,0.85267 22.87726,2.32095 22.80502,3.82594c-0.07224,1.50498 -5.3027,2.47677 -23.06662,1.62409c-17.76393,-0.85267 -22.60583,-2.30794 -22.53359,-3.81291c0.07224,-1.50498 5.03126,-2.48978 22.79519,-1.63711z"/></g><g fill="#222222" stroke="#000000"><path d="M208.0505,42.63123c-0.04672,0.97345 -7.16767,1.42258 -15.90508,1.00318c-8.7374,-0.4194 -15.78259,-1.54852 -15.73587,-2.52195c0.04672,-0.97345 7.16767,-1.42258 15.90508,-1.00318c8.7374,0.4194 15.7826,1.54851 15.73587,2.52195z"/><path d="M176.40955,41.11246c0,0 0.77266,-9.53242 0.15473,-14.38194c-0.60117,-4.71799 -3.81337,-14.33149 -3.81337,-14.33149l20.69692,0.99346l14.6027,29.23877z"/><path d="M176.40955,41.11246l17.33606,-27.7057l20.69691,0.99345c0,0 -4.11822,9.26163 -5.1685,13.90036c-1.07957,4.76805 -1.2235,14.33065 -1.2235,14.33065z"/></g><path d="M214.44245,14.40021c-0.11501,2.39615 -9.54125,3.89066 -21.05406,3.33803c-11.51281,-0.55262 -20.75256,-2.94307 -20.63754,-5.33924c0.11501,-2.39615 9.54124,-3.89064 21.05406,-3.33803c11.51281,0.55262 20.75256,2.94308 20.63754,5.33924z" fill="#202020" stroke="#000000"/><g fill="#770000"><g><g stroke="#000000"><path d="M208.3729,43.27834c-0.03002,0.6254 -7.29531,0.78484 -16.22749,0.35609c-8.93217,-0.42874 -16.14881,-1.28331 -16.11878,-1.90872c0.03002,-0.6254 7.29532,-0.78484 16.2275,-0.35609c8.93217,0.42874 16.1488,1.28331 16.11878,1.90872z"/><path d="M176.02664,41.72571c0,0 0.6158,-6.1186 -0.10356,-9.24977c-0.69986,-3.04624 32.44985,10.80241 32.44985,10.80241z"/><path d="M176.02664,41.72571c0,0 34.32371,-10.60991 33.33533,-7.6447c-1.01596,3.04788 -0.98905,9.19733 -0.98905,9.19733z"/></g><path d="M192.39598,38.41413c-9.24249,-0.44364 -15.56847,-5.90423 -15.55293,-6.22793c0.01554,-0.3237 6.53326,1.14226 15.77575,1.5859c9.24249,0.44364 9.01968,5.08566 -0.22282,4.64202z" stroke="#2b2b2b"/></g><g><g stroke="#000000"><path d="M192.25412,41.36959c8.93218,0.42875 16.1488,1.28331 16.11878,1.90872c-0.03002,0.6254 -7.29532,0.78485 -16.22749,0.35609c-8.93218,-0.42875 -16.14881,-1.28331 -16.11879,-1.90872c0.03002,-0.6254 7.29533,-0.78485 16.2275,-0.35609z"/><path d="M176.02664,41.72571c0,0 34.32372,-10.6099 33.33533,-7.6447c-1.01596,3.04788 -0.98903,9.19732 -0.98903,9.19732z"/><path d="M176.02666,41.7257c0,0 0.61581,-6.11861 -0.10357,-9.24978c-0.69986,-3.04624 32.44985,10.80241 32.44985,10.80241z"/></g><path d="M192.61881,33.77211c9.24249,0.44364 15.87066,-0.39131 15.85512,-0.06761c-0.01554,0.3237 -6.83545,5.15329 -16.07794,4.70965c-9.24249,-0.44364 -9.01967,-5.08566 0.22282,-4.64203z" stroke="#2b2b2b"/></g></g></g><path d="M174.92435,130.47383v-1.92894h29.28493v1.92894c0,0 -9.92728,3.50718 -14.75207,3.50718c-4.93439,0 -14.53287,-3.50718 -14.53287,-3.50718z" fill="url(#color-3)" stroke="#2b2b2b" stroke-width="0"/><path d="M173.28664,151.84066c0,8.27085 -0.65264,24.1802 -2.42917,37.72854c-1.69053,12.89253 2.76173,57.98819 -1.37028,57.98819c-1.55097,0 -23.56781,-2.12915 -25.75645,-12.40385c-1.76524,-8.28705 6.69117,-35.89256 4.84706,-44.16241c-3.43776,-15.41661 -7.87871,-33.78774 -7.87871,-39.88113c0,-16.14134 25.51619,-25.17862 33.9904,-25.17862c0.68543,0 -4.21225,2.22289 -4.39349,5.78c-0.24585,4.82507 2.99063,11.96878 2.99063,20.12928z" fill="#770000" stroke="#2b2b2b" stroke-width="0"/><g fill="#262626" stroke="#000000" stroke-width="0"><path d="M199.66128,98.11644c-0.13206,2.7511 -4.7645,4.76409 -10.34683,4.49614c-5.58234,-0.26796 -10.00068,-2.71538 -9.86863,-5.46649c0.13206,-2.7511 4.7645,-4.76411 10.34684,-4.49615c5.58234,0.26796 10.00069,2.71538 9.86863,5.4665z"/><path d="M196.62841,100.10454c-0.0872,1.81673 -3.46447,5.07903 -7.42825,4.88877c-3.96379,-0.19026 -7.01306,-3.76104 -6.92586,-5.57776c0.0872,-1.81673 3.37116,-3.13525 7.33495,-2.94498c3.96379,0.19026 7.10637,1.81725 7.01916,3.63398z"/></g><g stroke="#ab0000" stroke-width="0"><path d="M181.06386,82.33441c0,0 -4.2533,4 -9.5,4c-5.2467,0 -9.5,-4 -9.5,-4c0,0 4.2533,-4 9.5,-4c5.2467,0 9.5,4 9.5,4z" fill="url(#color-4)"/><path d="M166.6909,82.33441c0,-2.69125 2.18169,-4.87295 4.87295,-4.87295c2.69126,0 4.87295,2.1817 4.87295,4.87295c0,2.69125 -2.18169,4.87295 -4.87295,4.87295c-2.69126,0 -4.87295,-2.18169 -4.87295,-4.87295z" fill="#000000"/></g><g stroke="#ab0000" stroke-width="0"><path d="M218.35299,83.93347c0,0 -4.2533,4 -9.5,4c-5.2467,0 -9.5,-4 -9.5,-4c0,0 4.2533,-4 9.5,-4c5.2467,0 9.5,4 9.5,4z" fill="url(#color-5)"/><path d="M203.98004,83.93347c0,-2.69125 2.18169,-4.87295 4.87295,-4.87295c2.69126,0 4.87295,2.1817 4.87295,4.87295c0,2.69125 -2.18169,4.87295 -4.87295,4.87295c-2.69126,0 -4.87295,-2.1817 -4.87295,-4.87295z" fill="#000000"/></g><g stroke="#ab0000" stroke-width="0"><path d="M190.3439,119.05224c0.22146,-0.92349 0.41747,-1.85479 0.57597,-2.79969c0.82104,-0.03383 1.6183,-0.08726 2.35054,-0.1676c-0.01841,0.92861 -0.03193,1.85733 -0.03901,2.78628c-0.89264,0.09589 -1.88003,0.15173 -2.88751,0.18102z" fill="url(#color-6)"/><path d="M194.54401,115.90336c0.15835,-0.02898 0.28909,-0.06686 0.39549,-0.1121c0.20093,0.86951 0.41903,1.73286 0.69506,2.56018c-0.3165,0.16598 -0.70799,0.26371 -1.06615,0.32997c-0.26403,0.04884 -0.54388,0.09213 -0.83653,0.13041c0.00737,-0.92938 0.02117,-1.85853 0.03984,-2.78758c0.26927,-0.03591 0.52748,-0.07606 0.77229,-0.12087z" fill="url(#color-7)"/><path d="M196.23813,117.20735c0.07205,0.34945 -0.01043,0.61666 -0.18452,0.82299c-0.28807,-0.88658 -0.51087,-1.81441 -0.72005,-2.7446c-0.00228,-0.07888 -0.02192,-0.1614 -0.05498,-0.24574c-0.02393,-0.10746 -0.04775,-0.21491 -0.07152,-0.32229c0.39892,0.54913 0.79545,1.34688 1.03106,2.48964z" fill="url(#color-8)"/><path d="M193.92321,113.59651c0,0 0.25858,0.09693 0.61046,0.39127c0.01045,0.04591 0.02088,0.09187 0.03128,0.13786c-0.33024,-0.30763 -0.64174,-0.52913 -0.64174,-0.52913z" fill="url(#color-9)"/><path d="M187.74019,119.07743c0.21041,-0.91775 0.40496,-1.84103 0.57864,-2.77465c0.69151,-0.00077 1.39652,-0.00992 2.09082,-0.03175c-0.16095,0.94284 -0.35927,1.87219 -0.58275,2.79395c-0.70029,0.01427 -1.4041,0.01693 -2.08671,0.01245z" fill="url(#color-10)"/><path d="M184.95726,119.02589c0.23146,-0.92039 0.46839,-1.83915 0.71522,-2.75474c0.66834,0.01524 1.3915,0.02736 2.13789,0.03074c-0.17489,0.93228 -0.3706,1.85426 -0.58205,2.77086c-0.8119,-0.00944 -1.58356,-0.02771 -2.27105,-0.04686z" fill="url(#color-11)"/><path d="M184.01488,118.99811c0.13768,-0.91296 0.24394,-1.83133 0.2961,-2.76308c0.26654,0.00784 0.54999,0.01589 0.84715,0.02358c-0.24568,0.91493 -0.48172,1.83294 -0.71251,2.7525c-0.14891,-0.00443 -0.29266,-0.0088 -0.43073,-0.013z" fill="url(#color-12)"/><path d="M183.81117,116.22009c-0.05242,0.93166 -0.15974,1.84991 -0.29861,2.76283c-0.46535,-0.01377 -0.83844,-0.02338 -1.08919,-0.02338c-0.27996,0 -0.84087,-0.11261 -1.1007,-0.55082c0.56992,-0.61549 1.05042,-1.50637 1.5687,-2.2149c0.26115,0.00644 0.57091,0.01576 0.91981,0.02627z" fill="url(#color-13)"/><path d="M183.67741,113.70324c0,0 -2.25267,2.4814 -1.36077,2.4814c0.00798,0 0.01608,0.00001 0.02432,0.00003c-0.3731,0.55982 -0.76095,1.1899 -1.15619,1.66832c0.00085,-0.09504 0.0114,-0.19784 0.03324,-0.309c0.54683,-2.78338 2.45941,-3.84075 2.45941,-3.84075z" fill="url(#color-14)"/><path d="M194.56841,107.91108c0.49281,0.09116 1.04874,0.24192 1.38556,0.54806c-0.52661,0.57213 -1.32408,1.16001 -2.03846,1.67378c0.00236,-0.76504 -0.00701,-1.54484 -0.0105,-2.3288c0.23025,0.03228 0.4519,0.06784 0.6634,0.10697z" fill="url(#color-15)"/><path d="M196.23813,109.38513c-0.34168,1.6572 -1.02177,2.58885 -1.55681,3.08889l-0.01635,-0.06231c0,0 -0.00314,-0.01197 -0.01068,-0.02988c0.61546,-0.59835 1.20469,-1.45203 -0.11028,-1.69272c-0.14976,-0.02741 -0.30454,-0.05308 -0.46379,-0.0771c0.72485,-0.52984 1.5456,-1.12724 2.14254,-1.74701c0.04735,0.14942 0.05632,0.32148 0.01537,0.52012z" fill="url(#color-16)"/><path d="M193.92321,112.99597c0,0 0.13139,-0.09342 0.31396,-0.24319c0.00531,0.02065 0.0106,0.04132 0.01588,0.06201c-0.20037,0.13266 -0.32984,0.18119 -0.32984,0.18119z" fill="url(#color-17)"/><path d="M191.81462,110.38561c0.1393,-0.91769 0.27858,-1.83539 0.41788,-2.75307c0.40602,0.02935 0.79968,0.06511 1.17518,0.10833c0.00316,0.92869 0.01474,1.85185 0.00626,2.7526c-0.01207,0.00873 -0.02409,0.01744 -0.03605,0.02611c-0.49432,-0.05654 -1.01976,-0.10042 -1.56327,-0.13397z" fill="url(#color-18)"/><path d="M189.35493,110.29756c0.1584,-0.92333 0.31679,-1.84666 0.47519,-2.76999c0.64326,0.01314 1.28352,0.03608 1.90161,0.07229c-0.13953,0.9193 -0.27908,1.83861 -0.41861,2.75791c-0.64057,-0.03178 -1.30004,-0.05065 -1.95819,-0.0602z" fill="url(#color-19)"/><path d="M187.26629,110.29457c0.20247,-0.91431 0.36995,-1.83711 0.48018,-2.77956c0.51738,-0.00337 1.0469,-0.00262 1.57779,0.00418c-0.15856,0.92427 -0.31711,1.84852 -0.47566,2.77279c-0.53544,-0.00408 -1.06654,-0.00257 -1.5823,0.00259z" fill="url(#color-20)"/><path d="M184.44578,110.35351c-0.01234,-0.92769 -0.06212,-1.85216 -0.18281,-2.76667c0.84593,-0.02552 1.87585,-0.05458 2.97957,-0.06727c-0.11276,0.94296 -0.28347,1.86626 -0.48904,2.78133c-0.83871,0.01226 -1.6248,0.0328 -2.30773,0.05261z" fill="url(#color-21)"/><path d="M182.42336,107.63293c0.29412,0 0.75654,-0.01322 1.33871,-0.03087c0.12457,0.91344 0.17539,1.83804 0.1875,2.76616c-0.72491,0.0218 -1.29518,0.03962 -1.63294,0.03962c-0.8919,0 1.36077,2.4814 1.36077,2.4814c0,0 -1.07675,-0.59528 -1.84542,-2.06829c0.30552,-1.13648 0.52684,-2.25581 0.50189,-3.1846c0.03214,-0.00234 0.06215,-0.00342 0.08948,-0.00342z" fill="url(#color-22)"/><path d="M181.218,109.04849c-0.15114,-0.76934 0.23852,-1.13879 0.64062,-1.30172c0.01189,0.68689 -0.12738,1.51138 -0.33794,2.37563c-0.12183,-0.32506 -0.22576,-0.68241 -0.30268,-1.07391z" fill="url(#color-23)"/></g></g></g></svg>