<svg version="1.1" xmlns="http://www.w3.org/2000/svg" xmlns:xlink="http://www.w3.org/1999/xlink" width="438.11895" height="418.04745" viewBox="0,0,438.11895,418.04745"><defs><linearGradient x1="226.54523" y1="221.30051" x2="228.29547" y2="228.04248" gradientUnits="userSpaceOnUse" id="color-1"><stop offset="0" stop-color="#000000" stop-opacity="0"/><stop offset="1" stop-color="#000000"/></linearGradient></defs><g transform="translate(-120.48421,-69.47322)"><g stroke-miterlimit="10"><path d="M304.42128,234.3944c-0.35811,4.60765 -4.38367,8.05261 -8.9913,7.6945c-4.60766,-0.3581 -8.05261,-4.38367 -7.6945,-8.99131c0.35811,-4.60765 4.38367,-8.0526 8.99131,-7.69449c4.60766,0.3581 8.0526,4.38367 7.6945,8.9913z" fill="#4e4e4e" stroke="#2b2b2b" stroke-width="0"/><path d="M294.80015,233.64665c0.84591,-10.88422 2.17204,-19.65781 47.86848,-16.10632c45.69644,3.5515 34.96185,11.59389 34.11594,22.47809c-0.84591,10.88422 8.51716,20.48859 -37.17926,16.93709c-45.69644,-3.5515 -45.65106,-12.42464 -44.80514,-23.30886z" fill="#2b2b2b" stroke="#2b2b2b" stroke-width="0"/><path d="M387.23444,240.83059c-0.35811,4.60765 -4.38364,8.05259 -8.9913,7.6945c-4.60766,-0.3581 -8.0526,-4.38363 -7.6945,-8.9913c0.35811,-4.60765 4.38365,-8.0526 8.9913,-7.69449c4.60766,0.3581 8.0526,4.38364 7.6945,8.99132z" fill="#4e4e4e" stroke="#2b2b2b" stroke-width="0"/><path d="M294.80015,233.64665c0.84591,-10.88419 2.17204,-19.65781 47.86848,-16.10632c45.69644,3.5515 34.96185,11.59389 34.11594,22.47809c-0.84591,10.88419 8.51716,20.48859 -37.17926,16.93709c-45.69644,-3.5515 -45.65106,-12.42467 -44.80514,-23.30886z" fill="#2b2b2b" stroke="#2b2b2b" stroke-width="0"/><g fill="#262626" stroke="#2b2b2b" stroke-width="0"><g><path d="M270.41206,382.21193c-7.22351,1.87524 -14.79424,-0.73932 -21.37619,-0.28375c-9.13831,0.63251 -12.83208,5.37474 -18.32561,0.26075c-3.44992,-3.21159 -9.07843,-20.59772 -9.9901,-24.10957c-3.40902,-13.13174 11.69572,-25.39797 35.2465,-31.5118c12.14271,-3.15227 25.8535,52.68283 14.4454,55.64439z"/></g><g><path d="M251.35213,327.76547c23.55078,-6.11383 42.71472,-2.74382 46.12375,10.38791c0.91169,3.51185 4.45094,21.44036 2.99884,25.92453c-2.31225,7.1404 -7.84633,4.79373 -16.13835,8.68618c-5.97239,2.80357 -11.31534,8.77054 -18.53887,10.64579c-11.40809,2.96156 -26.5881,-52.49212 -14.44539,-55.64439z"/></g></g><path d="M233.82614,230.59439l0.2068,-10.85811l57.66028,1.09828l-0.20681,10.85812z" fill="#4e4e4e" stroke="#2b2b2b" stroke-width="0"/><path d="M174.16835,262.14866l-5.46232,-9.38639l49.84494,-29.00684l5.46232,9.38639z" fill="#4e4e4e" stroke="#2b2b2b" stroke-width="0"/><g stroke="#2b2b2b" stroke-width="0"><path d="M124.86789,415.55359c1.20419,-4.4619 5.79747,-7.10282 10.25938,-5.89863c4.46191,1.20419 7.10282,5.79747 5.89862,10.25939c-1.20419,4.4619 -5.79747,7.10283 -10.25939,5.89863c-4.46191,-1.20419 -7.10281,-5.79746 -5.8986,-10.25939z" fill="#4e4e4e"/><path d="M143.84387,345.24159c1.20419,-4.4619 5.79746,-7.10282 10.25936,-5.89863c4.46191,1.20419 7.10283,5.79748 5.89863,10.2594c-1.20419,4.4619 -5.79747,7.10282 -10.25939,5.89862c-4.46191,-1.20419 -7.10281,-5.79746 -5.8986,-10.25939z" fill="#4e4e4e"/><path d="M165.48674,265.0479c1.20419,-4.46191 5.79748,-7.10283 10.2594,-5.89863c4.46191,1.20419 7.10282,5.79747 5.89862,10.25939c-1.20419,4.4619 -5.79747,7.10282 -10.25939,5.89862c-4.46191,-1.20419 -7.10283,-5.79747 -5.89863,-10.25939z" fill="#4e4e4e"/><path d="M180.87408,316.01208c-11.94257,44.25102 -17.86064,32.21408 -28.40058,29.36954c-10.53994,-2.84454 -21.71044,4.58047 -9.76785,-39.67053c11.94257,-44.25101 20.65422,-42.56518 31.19415,-39.72064c10.53994,2.84454 18.91686,5.77062 6.97429,50.02164z" fill="#2b2b2b"/><path d="M160.99067,384.07661c-10.57847,39.19656 -18.96708,38.82534 -28.72763,36.19114c-9.76055,-2.6342 -17.19689,-6.53386 -6.61842,-45.73043c10.57847,-39.19656 16.1943,-28.55133 25.95484,-25.91714c9.76055,2.6342 19.96967,-3.74012 9.3912,35.45642z" fill="#2b2b2b"/></g><g fill="#2b2b2b" stroke="#2b2b2b" stroke-width="0"><g><path d="M264.34567,369.55818c-26.1837,6.79735 -40.6721,11.86961 -51.78063,-30.92102c-3.35243,-12.91374 -23.80429,-38.51777 -24.27118,-49.7538c-1.08016,-25.99539 26.94342,-33.32483 45.22519,-38.07082c6.68282,-1.73487 37.23699,117.08149 30.82662,118.74563z"/></g><g><path d="M234.11618,250.65753c18.28177,-4.74599 46.33184,-11.97337 58.03283,11.26482c5.05753,10.04427 -0.35736,42.36338 2.99506,55.27711c11.10854,42.79064 -4.01758,45.40636 -30.20129,52.2037c-6.41037,1.66415 -37.50943,-117.01076 -30.82661,-118.74563z"/></g></g><g fill="#2b2b2b" stroke="#2b2b2b" stroke-width="0"><path d="M238.16057,275.16391c6.84041,26.3496 4.97198,49.63479 -4.17329,52.00892c-9.14525,2.37413 -48.74581,-26.9757 -55.58622,-53.32532c-6.84041,-26.3496 14.92501,-42.74671 22.53732,-46.86571c8.37104,-4.52954 30.38178,21.8325 37.22219,48.1821z"/><path d="M250.99079,213.98811c8.65461,-0.10394 35.64751,3.63541 42.48793,29.98502c6.84041,26.3496 -13.4831,71.25586 -22.62835,73.62998c-9.14525,2.37413 -22.10419,-17.06185 -28.94461,-43.41144c-6.84041,-26.3496 -0.43219,-60.08925 9.08504,-60.20355z"/><path d="M238.29662,267.98845c-18.70987,4.85712 -43.03443,-26.47954 -44.52205,-32.2099c-1.48761,-5.73035 12.47377,-14.31319 31.18364,-19.1703c18.70987,-4.85713 35.08315,-4.14923 36.57076,1.58113c1.48761,5.73035 -4.52249,44.94196 -23.23236,49.79907z"/><path d="M284.09866,274.40812c6.14273,23.66209 -7.39016,47.64991 -30.22653,53.57829c-22.83638,5.92837 -46.32858,-8.44765 -52.47131,-32.10975c-6.14273,-23.66209 7.39016,-47.64991 30.22652,-53.57828c22.83638,-5.92837 46.3286,8.44764 52.47133,32.10974z"/></g><g fill="#323232" stroke="#2b2b2b" stroke-width="0"><g><g><path d="M263.54411,366.28433c-22.21047,5.76589 -34.46478,10.20534 -45.12557,-30.86054c-3.2173,-12.39321 -21.40355,-37.33938 -22.1074,-48.05608c-1.62839,-24.79395 22.14129,-31.0169 37.64889,-35.0427c5.66875,-1.47162 35.02171,112.54772 29.58409,113.95934z"/></g><g><path d="M234.46654,252.19352c15.50761,-4.02581 39.30273,-10.15079 49.9403,12.30437c4.59789,9.70582 0.8425,40.34806 4.05981,52.74127c10.66078,41.06588 -2.20556,43.14779 -24.41602,48.91367c-5.43763,1.41162 -35.25282,-112.48772 -29.58408,-113.95933z"/></g></g><g><path d="M238.58989,275.64931c6.5647,25.28753 5.59773,47.41966 -2.15978,49.43353c-7.75751,2.01386 -42.42299,-27.01974 -48.9877,-52.30727c-6.56469,-25.28753 11.60668,-40.31844 18.00578,-44.03612c7.0369,-4.08823 26.57699,21.6223 33.1417,46.90984z"/><path d="M247.90544,217.71748c7.39941,0.13555 30.58753,4.42945 37.15224,29.71698c6.5647,25.28753 -9.60073,67.51695 -17.35825,69.53082c-7.75752,2.01386 -19.36794,-16.85316 -25.93264,-42.14069c-6.56469,-25.28753 -1.99823,-57.25615 6.13866,-57.1071z"/><path d="M238.51178,268.81723c-15.87073,4.12008 -37.52465,-26.39225 -38.9523,-31.89164c-1.42765,-5.49938 10.28079,-13.29748 26.15152,-17.41756c15.87073,-4.12008 29.89385,-3.00193 31.3215,2.49744c1.42765,5.49938 -2.64999,42.69168 -18.52073,46.81176z"/><path d="M277.8599,276.17431c5.89514,22.70835 -5.0293,45.19372 -24.40038,50.2225c-19.37108,5.02878 -39.85339,-9.30335 -45.74852,-32.01168c-5.89514,-22.70835 5.02929,-45.19372 24.40037,-50.22249c19.37109,-5.02877 39.85341,9.30335 45.74854,32.01168z"/></g></g><path d="M246.16821,217.24413c0.74655,2.87576 -7.04123,9.17154 -17.93025,11.99835c-10.88902,2.82681 -20.75581,1.11418 -21.50236,-1.76157c-0.74655,-2.87576 7.47553,-7.49862 18.36455,-10.32542c10.88902,-2.82681 20.3215,-2.78711 21.06806,0.08864z" fill="#000000" stroke="#2b2b2b" stroke-width="0"/><path d="M253.54519,245.13011c-2.62737,-10.12075 -0.91345,-20.02249 -2.77184,-25.92745c-1.37002,-4.35322 -8.15989,-5.53321 -7.3098,-5.75389c10.50982,-2.72836 45.06497,0.26454 50.26187,20.28323c1.96184,7.5571 2.36893,31.77102 3.06892,51.99773c0.3755,10.85011 19.75116,42.36416 20.22999,53.21021c0.59368,13.44747 -26.02638,23.17665 -27.9499,23.676c-5.12458,1.33034 -14.12191,-56.03131 -20.36941,-71.4765c-6.56532,-16.23085 -12.49694,-35.75171 -15.15982,-46.00931z" fill="#770000" stroke="#2b2b2b" stroke-width="0"/><g stroke="#2b2b2b" stroke-width="0"><g><path d="M123.83762,479.90386c0.14878,-1.2121 1.25201,-2.07409 2.4641,-1.92532c1.2121,0.14878 2.07408,1.25199 1.9253,2.46409c-0.14878,1.2121 -1.252,2.07411 -2.46409,1.92533c-1.21209,-0.14878 -2.07409,-1.25201 -1.92531,-2.46411z" fill="#4e4e4e"/><path d="M125.4507,466.76227c0.14878,-1.2121 1.25199,-2.07408 2.46409,-1.9253c1.2121,0.14878 2.07409,1.25199 1.92531,2.46409c-0.14878,1.2121 -1.25199,2.07409 -2.46409,1.92532c-1.2121,-0.14878 -2.07409,-1.25201 -1.92531,-2.4641z" fill="#4e4e4e"/><path d="M132.98792,459.7025c-0.91841,7.4822 -2.91901,7.57544 -5.33634,7.27873c-2.41734,-0.29673 -4.33598,-0.87103 -3.41758,-8.35322c0.91841,-7.4822 2.95098,-7.83599 5.36831,-7.53927c2.41734,0.29673 4.30401,1.13158 3.38561,8.61377z" fill="#262626"/><path d="M125.9107,481.16422c-2.41732,-0.29672 -4.304,-1.13158 -3.3856,-8.61377c0.91841,-7.4822 2.66717,-5.52376 5.08449,-5.22704c2.41733,0.29672 4.58782,-1.18064 3.66942,6.30155c-0.91841,7.4822 -2.951,7.83598 -5.36831,7.53926z" fill="#262626"/></g><g><path d="M132.62418,482.398c0.14878,-1.2121 1.25199,-2.07409 2.46409,-1.92531c1.2121,0.14878 2.07409,1.252 1.92531,2.46409c-0.14878,1.2121 -1.252,2.07409 -2.4641,1.92531c-1.2121,-0.14878 -2.07408,-1.252 -1.9253,-2.46409z" fill="#4e4e4e"/><path d="M134.23725,469.25641c0.14878,-1.2121 1.25199,-2.07409 2.46409,-1.92532c1.2121,0.14878 2.07409,1.25201 1.92531,2.4641c-0.14878,1.2121 -1.25199,2.07408 -2.46409,1.9253c-1.2121,-0.14878 -2.07409,-1.25199 -1.92531,-2.46409z" fill="#4e4e4e"/><path d="M141.77449,462.19664c-0.91841,7.4822 -2.91901,7.57546 -5.33634,7.27875c-2.41733,-0.29672 -4.33599,-0.87104 -3.41758,-8.35324c0.91841,-7.4822 2.95101,-7.83599 5.36832,-7.53927c2.41733,0.29672 4.304,1.13158 3.3856,8.61377z" fill="#262626"/><path d="M134.69723,483.65837c-2.41733,-0.29672 -4.304,-1.13158 -3.3856,-8.61377c0.91841,-7.4822 2.66717,-5.52376 5.08449,-5.22704c2.41733,0.29672 4.58782,-1.18066 3.66941,6.30154c-0.91841,7.4822 -2.951,7.83599 -5.36831,7.53927z" fill="#262626"/></g><g><path d="M141.28373,485.03988c0.14878,-1.2121 1.25199,-2.07408 2.46409,-1.9253c1.2121,0.14878 2.07408,1.25199 1.9253,2.46409c-0.14878,1.2121 -1.25199,2.07409 -2.46409,1.92531c-1.2121,-0.14878 -2.07409,-1.25201 -1.92531,-2.4641z" fill="#4e4e4e"/><path d="M142.8968,471.89829c0.14878,-1.2121 1.252,-2.07409 2.46409,-1.92531c1.2121,0.14878 2.07409,1.25199 1.92531,2.46409c-0.14878,1.2121 -1.25199,2.07408 -2.46409,1.9253c-1.2121,-0.14878 -2.07409,-1.25199 -1.92531,-2.46409z" fill="#4e4e4e"/><path d="M150.43399,464.83853c-0.91841,7.4822 -2.91901,7.57546 -5.33634,7.27875c-2.41733,-0.29672 -4.33597,-0.87105 -3.41757,-8.35325c0.91841,-7.4822 2.95099,-7.83598 5.3683,-7.53927c2.41733,0.29672 4.304,1.13158 3.3856,8.61377z" fill="#262626"/><path d="M143.35675,486.30025c-2.41733,-0.29672 -4.304,-1.13158 -3.3856,-8.61377c0.91841,-7.4822 2.66717,-5.52377 5.08449,-5.22704c2.41733,0.29672 4.58782,-1.18065 3.66942,6.30154c-0.91841,7.4822 -2.951,7.83599 -5.36832,7.53927z" fill="#262626"/></g><g><path d="M150.59575,483.16835c0.14878,-1.2121 1.25199,-2.07409 2.46409,-1.92532c1.2121,0.14878 2.07409,1.252 1.92531,2.4641c-0.14878,1.2121 -1.252,2.07408 -2.4641,1.9253c-1.2121,-0.14878 -2.07408,-1.25198 -1.9253,-2.46409z" fill="#4e4e4e"/><path d="M152.20882,470.02676c0.14878,-1.2121 1.25199,-2.07409 2.46409,-1.92531c1.2121,0.14878 2.07409,1.252 1.92531,2.46409c-0.14878,1.2121 -1.25199,2.07409 -2.46409,1.92531c-1.2121,-0.14878 -2.07409,-1.25199 -1.92531,-2.46409z" fill="#4e4e4e"/><path d="M159.74606,462.967c-0.91841,7.4822 -2.91901,7.57546 -5.33634,7.27875c-2.41733,-0.29672 -4.33598,-0.87105 -3.41758,-8.35324c0.91841,-7.4822 2.951,-7.83599 5.36832,-7.53927c2.41733,0.29672 4.304,1.13158 3.3856,8.61377z" fill="#262626"/><path d="M152.66883,484.42872c-2.41733,-0.29672 -4.30401,-1.13158 -3.3856,-8.61379c0.91841,-7.4822 2.66717,-5.52376 5.08449,-5.22704c2.41733,0.29672 4.58782,-1.18066 3.66942,6.30154c-0.91841,7.4822 -2.951,7.836 -5.36831,7.53928z" fill="#262626"/></g><g><path d="M159.66952,439.01802c-0.80383,-1.02876 -0.62147,-2.5144 0.4073,-3.31824c1.02876,-0.80383 2.5144,-0.62147 3.31822,0.40731c0.80383,1.02876 0.62147,2.5144 -0.4073,3.31823c-1.02876,0.80383 -2.51438,0.62147 -3.31822,-0.4073z" fill="#4e4e4e"/><path d="M171.20512,453.78174c-0.80383,-1.02876 -0.62147,-2.51439 0.4073,-3.31822c1.02876,-0.80383 2.5144,-0.62147 3.31823,0.40729c0.80383,1.02876 0.62147,2.5144 -0.4073,3.31824c-1.02876,0.80383 -2.51439,0.62146 -3.31823,-0.4073z" fill="#4e4e4e"/><path d="M171.31588,442.42678c6.06087,7.75693 4.668,9.40256 2.61629,11.00566c-2.05171,1.60309 -3.98534,2.55661 -10.04621,-5.20032c-6.06087,-7.75693 -4.87902,-9.67264 -2.82731,-11.27573c2.05171,-1.60309 4.19637,-2.28653 10.25723,5.47039z" fill="#262626"/></g><path d="M147.32184,424.20564c2.32627,0.28554 7.62127,-0.28749 9.5782,1.11125c7.98995,5.71092 5.96097,22.13656 3.22547,32.89942c-2.1891,8.61307 -24.36098,8.50314 -33.26924,0.82271c-6.94127,-5.98457 5.32537,-33.00627 8.22655,-34.85178c3.20102,-2.03625 8.75511,-0.40922 12.23902,0.01842z" fill="#2b2b2b"/></g><g fill="#4e4e4e" stroke="#2b2b2b" stroke-width="0"><path d="M209.75986,226.40656l-5.13709,-19.78832l33.70975,-8.75113l5.13708,19.78832z"/><path d="M243.46957,217.65544c0.59028,2.27379 -6.10826,7.49803 -15.41694,9.91459c-9.30868,2.41656 -17.70255,1.11032 -18.29282,-1.16346c-0.59028,-2.27379 6.4774,-6.07604 15.78609,-8.49259c9.30868,-2.41656 17.3334,-2.5323 17.92368,-0.25853z"/><path d="M221.92584,203.96919c-9.30868,2.41656 -17.05555,3.60258 -17.30308,2.64907c-0.24754,-0.95353 7.09799,-3.68552 16.40667,-6.10207c9.30868,-2.41656 17.05555,-3.60258 17.30309,-2.64906c0.24754,0.95353 -7.09799,3.6855 -16.40668,6.10206z"/></g><g stroke="#000000" stroke-width="0"><path d="M159.01619,84.28152c0,0 16.66466,20.31496 35.83277,31.98234c14.19258,8.63883 33.59544,18.59451 31.84901,24.80955c-4.1051,14.60888 -31.5761,44.09081 -47.49653,45.11182c-6.31351,0.40489 -22.06746,-10.41505 -26.97324,-25.7643c-7.46487,-23.35603 6.78801,-76.1394 6.78801,-76.1394z" fill="#262626"/><path d="M161.11784,89.3455c0,0 15.01869,18.30848 32.29358,28.82346c12.7908,7.78557 30.35378,17.79619 28.77987,23.39737c-3.69962,13.16598 -28.45735,39.73597 -42.80532,40.65615c-5.68994,0.36491 -19.88785,-9.38635 -24.3091,-23.21958c-6.72756,-21.04917 6.04097,-69.6574 6.04097,-69.6574z" fill="#202020"/></g><g stroke="#000000" stroke-width="0"><path d="M293.55428,160.17746c-4.85288,15.36607 -20.56944,26.24022 -26.8843,25.85709c-15.92388,-0.96615 -43.49628,-30.35326 -47.65168,-44.94789c-1.76782,-6.20897 17.60061,-16.23146 31.76335,-24.91913c19.1278,-11.73333 35.72236,-32.10561 35.72236,-32.10561c0,0 14.43463,52.73395 7.05031,76.11558z" fill="#262626"/><path d="M290.70077,158.76926c-4.37358,13.84836 -18.53779,23.64848 -24.22896,23.30319c-14.35105,-0.87073 -39.20016,-27.35526 -42.94515,-40.5084c-1.59322,-5.59571 15.93522,-15.66679 28.6991,-23.49638c17.23857,-10.57443 32.19408,-28.93454 32.19408,-28.93454c0,0 12.93591,48.56394 6.28093,69.63616z" fill="#202020"/></g><g fill="#2b2b2b" stroke="#000000" stroke-width="0"><path d="M170.07096,163.36191c-0.05292,-30.71779 23.0274,-52.55251 52.30496,-52.60295c29.27756,-0.05044 53.04924,21.70359 53.10215,52.42138c0.05291,30.71779 -23.63832,55.66035 -52.91588,55.71079c-24.13868,0.04159 -55.39911,-24.06859 -55.10811,-48.18065c0.06469,-5.36126 2.62616,-1.95694 2.61687,-7.34856z"/><path d="M278.36398,170.51941c0.37407,24.11092 -30.80307,48.32865 -54.94177,48.37023c-29.27754,0.05043 -53.05459,-24.81036 -53.10751,-55.52814c-0.05292,-30.71779 23.64367,-52.55357 52.92123,-52.60401c29.27754,-0.05043 52.43296,21.70465 52.48587,52.42244c0.00929,5.39163 2.55902,1.9785 2.64219,7.3395z"/></g><path d="M172.97898,163.79334c-0.05093,-29.565 22.26413,-49.38502 49.83321,-49.43252c27.56905,-0.04749 49.9523,19.69552 50.00322,49.26053c0.05093,29.56501 -22.26412,49.38502 -49.83321,49.43252c-27.56905,0.04749 -49.9523,-19.69552 -50.00323,-49.26053z" fill="#323232" stroke="#000000" stroke-width="0"/><g fill="#2b2b2b" stroke="#000000" stroke-width="0"><path d="M179.81713,166.3695c-0.02175,-12.62769 11.07323,-24.57278 22.49609,-24.59245c11.42285,-0.01968 15.79301,12.50208 15.81475,25.12975c0.02175,12.62769 -5.94758,22.15082 -17.37044,22.1705c-11.42285,0.01968 -20.91864,-10.08011 -20.9404,-22.70779z"/><path d="M245.12403,189.00086c-11.42287,0.01968 -17.42498,-9.48283 -17.44673,-22.11051c-0.02175,-12.62769 4.30522,-25.16442 15.72809,-25.18409c11.42285,-0.01968 22.55893,11.88713 22.58067,24.51481c0.02175,12.62769 -9.43918,22.76013 -20.86203,22.7798z"/></g><path d="M179.81552,165.43633c-0.02093,-12.14778 11.07483,-23.63964 22.49769,-23.65931c2.77964,-0.0048 5.1416,0.70484 7.12488,1.95656c0.30199,0.19059 3.30938,-2.01671 3.30938,-2.01671c0,0 -1.17223,3.673 -0.6098,4.2834c4.20981,4.56883 5.97537,12.23904 5.98865,19.95042c0.02093,12.14778 -5.94904,21.30937 -17.3719,21.32905c-3.39057,0.00584 -6.6113,-0.84603 -9.46484,-2.3646c-0.67601,-0.35975 -3.56324,1.86317 -3.56324,1.86317c0,0 0.81764,-3.60649 0.44092,-3.90352c-5.04187,-3.97528 -8.33942,-10.28515 -8.35174,-17.43847z" fill="#000000" stroke="#000000" stroke-width="0"/><path d="M245.12084,187.20335c-11.42285,0.01968 -17.42436,-9.12131 -17.44528,-21.26907c-0.02093,-12.14778 4.30686,-24.20833 15.72973,-24.22802c11.42285,-0.01968 22.55815,11.43389 22.57908,23.58168c0.02093,12.14778 -9.44068,21.89575 -20.86354,21.91543z" fill="#000000" stroke="#000000" stroke-width="0"/><g fill="#000000" stroke="#000000" stroke-width="0"><path d="M223.50809,214.50091c-14.47287,0.02493 -29.54265,-8.77683 -38.79565,-16.23959c-6.79985,-5.48424 -7.52417,-17.31212 -7.52417,-17.31212c0,0 4.06733,9.44427 8.73444,11.20448c1.52273,0.57431 4.62515,2.20487 4.62515,2.20487c0,0 3.4474,-1.01961 5.35939,-1.02476c0.65105,-0.00175 2.13269,2.00727 2.13269,2.00727c0,0 2.11612,-1.51409 3.21637,-1.56079c6.5697,-0.27882 14.095,0.10405 22.21624,0.09005c6.23083,-0.01074 6.35838,20.6197 0.03554,20.63059z"/><path d="M222.46126,214.50272c-6.32284,0.01089 -6.26636,-20.61986 -0.03553,-20.6306c8.12122,-0.01399 15.64515,-0.42278 22.2158,-0.1666c1.10042,0.04291 3.22173,1.54968 3.22173,1.54968c0,0 1.47473,-2.01412 2.12576,-2.0146c1.91198,-0.00145 5.36288,1.00628 5.36288,1.00628c0,0 3.09678,-1.64124 4.61753,-2.22079c4.66104,-1.7763 8.69579,-11.2345 8.69579,-11.2345c0,0 -0.68356,11.83032 -7.46449,17.33794c-9.22725,7.4946 -24.26661,16.34823 -38.73947,16.37317z"/></g><path d="M204.4239,193.95608c0,0 -3.93553,3.58555 -5.22181,9.98996c-1.28627,6.40439 2.25409,9.76918 2.25409,9.76918c0,0 -8.02787,-4.69419 -12.60542,-10.72057c-3.4912,-4.59619 -3.83982,-10.79987 -3.79173,-11.37297c0.69324,0.53271 2.10991,1.48042 2.66429,1.1948c0,0 1.12523,1.01228 2.62861,1.32634c1.15887,0.24207 4.19684,-1.06801 5.46603,-0.67508c0.6886,0.21319 1.06512,0.6159 1.59947,0.98005c0.34779,0.23701 0.29086,0.82041 0.60476,0.87252c0.35714,0.05928 2.56096,-1.46001 2.94385,-1.4273c1.70304,0.14549 3.45783,0.06307 3.45783,0.06307z" fill="#ffffff" stroke="#ff0000" stroke-width="0"/><path d="M244.93205,193.81728c0.38278,-0.03405 2.59183,1.47766 2.94876,1.41715c0.3137,-0.05316 0.25478,-0.63639 0.60174,-0.87459c0.53309,-0.36599 0.90821,-0.77001 1.59608,-0.98556c1.26781,-0.39729 4.3103,0.90233 5.46833,0.65626c1.5023,-0.31923 2.62403,-1.33539 2.62403,-1.33539c0.55538,0.28371 1.96873,-0.66889 2.66016,-1.20399c0.05006,0.57291 -0.27716,6.77775 -3.75252,11.38598c-4.55676,6.04211 -12.56842,10.76394 -12.56842,10.76394c0,0 3.52875,-3.37697 2.22043,-9.7769c-1.30832,-6.39992 -5.2562,-9.97189 -5.2562,-9.97189c0,0 1.75505,0.07637 3.45759,-0.07499z" fill="#ffffff" stroke="#ff0000" stroke-width="0"/><g fill="none" stroke="#2b2b2b" stroke-width="0.5"><path d="M223.47298,214.50098v-0.00002c-14.47287,0.02493 -29.54266,-8.77684 -38.79566,-16.2396c-6.79985,-5.48424 -7.52417,-17.31212 -7.52417,-17.31212c0,0 4.06734,9.44426 8.73445,11.20447c1.52273,0.57431 4.62515,2.20487 4.62515,2.20487c0,0 3.4474,-1.0196 5.35939,-1.02475c0.65105,-0.00175 2.13269,2.00725 2.13269,2.00725c0,0 2.11613,-1.51407 3.21638,-1.56078c6.5697,-0.27882 14.095,0.10404 22.21624,0.09005"/><path d="M222.39062,193.8722c8.12122,-0.01399 15.64515,-0.42278 22.21579,-0.16659c1.10042,0.04291 3.22173,1.54968 3.22173,1.54968c0,0 1.47473,-2.01412 2.12576,-2.01461c1.91198,-0.00145 5.36288,1.00629 5.36288,1.00629c0,0 3.09679,-1.64124 4.61753,-2.22079c4.66104,-1.7763 8.69579,-11.23451 8.69579,-11.23451c0,0 -0.68356,11.83033 -7.46448,17.33795c-9.22725,7.4946 -24.26661,16.34823 -38.73947,16.37317l-0.00003,0.00001"/></g><path d="M199.20209,203.94604c-1.28627,6.40439 2.25409,9.76918 2.25409,9.76918c0,0 -8.02787,-4.69419 -12.60542,-10.72057c-1.15223,-1.51693 -1.96216,-3.20893 -2.52849,-4.81584c3.14584,0.55427 8.29306,1.00903 9.33007,1.09967c1.6293,0.14245 3.26035,0.29757 4.88974,0.44654c-0.54225,1.22704 -1.02206,2.63788 -1.34,4.22098z" fill="#ffffff" stroke="#ff0000" stroke-width="0"/><path d="M245.37607,199.64783c1.62886,-0.15457 3.25939,-0.31535 4.88818,-0.4634c1.0367,-0.09423 6.18233,-0.5667 9.32623,-1.1318c-0.56079,1.60884 -1.36488,3.30363 -2.51188,4.8245c-4.55676,6.04211 -12.56843,10.76394 -12.56843,10.76394c0,0 3.52874,-3.37698 2.22043,-9.77691c-0.32339,-1.58199 -0.80809,-2.99116 -1.35456,-4.21634z" fill="#ffffff" stroke="#ff0000" stroke-width="0"/><g stroke-width="0"><g stroke="#000000"><path d="M252.06836,119.20727c0.00333,1.93059 -6.28025,3.50647 -29.06775,3.54573c-22.7875,0.03925 -29.42464,-1.51436 -29.42797,-3.44495c-0.00333,-1.93059 6.62847,-3.50708 29.41593,-3.54633c22.7875,-0.03925 29.07647,1.51497 29.0798,3.44555z" fill="#252525"/><path d="M222.64044,115.76232c22.7875,-0.03925 29.42466,1.51436 29.42799,3.44495c0.00333,1.93059 -6.62848,3.50708 -29.41595,3.54634c-22.7875,0.03925 -29.07647,-1.51498 -29.0798,-3.44556c-0.00333,-1.93059 6.28026,-3.50646 29.06775,-3.54572z" fill="#222222"/></g><path d="M193.57277,119.3279l-0.01211,-7.03101l58.49575,-0.10077l0.01212,7.03101z" fill="#222222" stroke="#000000"/><g fill="#202020" stroke="#000000"><path d="M252.05628,112.19612c0.00333,1.93059 -6.28025,3.50647 -29.06775,3.54572c-22.7875,0.03925 -29.42465,-1.51436 -29.42798,-3.44495c-0.00333,-1.93059 6.62847,-3.50708 29.41593,-3.54633c22.7875,-0.03925 29.07648,1.51497 29.0798,3.44555z"/><path d="M222.62836,108.75119c22.78749,-0.03925 29.42466,1.51435 29.42799,3.44494c0.00333,1.93059 -6.62848,3.50707 -29.41595,3.54633c-22.7875,0.03925 -29.07648,-1.51497 -29.07981,-3.44555c-0.00333,-1.93059 6.28026,-3.50645 29.06776,-3.54571z"/></g><g fill="#222222" stroke="#000000"><path d="M243.10179,111.52809c0.00215,1.24873 -9.08224,2.27665 -20.29055,2.29596c-11.2083,0.01931 -20.29617,-0.97733 -20.29831,-2.22604c-0.00215,-1.24873 9.08222,-2.27667 20.29053,-2.29598c11.2083,-0.01931 20.2962,0.97733 20.29834,2.22606z"/><path d="M202.51293,111.59801c0,0 0.38218,-12.24819 -0.71723,-18.41501c-1.06958,-5.99954 -5.79215,-18.09792 -5.79215,-18.09792l26.54991,-0.04574l20.54837,36.48877z"/><path d="M202.51293,111.59801l20.42253,-36.55934l26.54991,-0.04574c0,0 -4.68087,12.11456 -5.72977,18.11776c-1.07814,6.17057 -0.65378,18.41739 -0.65378,18.41739z"/></g><path d="M249.48525,74.99293c0.0053,3.07377 -11.96273,5.58622 -26.73132,5.61166c-14.76859,0.02544 -26.7452,-2.44572 -26.75048,-5.51953c-0.0053,-3.07377 11.96273,-5.5862 26.73132,-5.61164c14.76859,-0.02544 26.7452,2.44571 26.75049,5.5195z" fill="#202020" stroke="#000000"/><g fill="#770000"><g><g stroke="#000000"><path d="M243.55555,112.33569c0.00138,0.80226 -9.28616,1.46864 -20.74432,1.48838c-11.45815,0.01974 -20.74796,-0.61462 -20.74934,-1.4169c-0.00137,-0.80226 9.28617,-1.46864 20.74433,-1.48838c11.45815,-0.01974 20.74795,0.61463 20.74932,1.4169z"/><path d="M202.06191,112.40716c0,0 0.39872,-7.8694 -0.72115,-11.83071c-1.08948,-3.85386 42.21483,11.75925 42.21483,11.75925z"/><path d="M202.06191,112.40716c0,0 43.25027,-15.76221 42.17409,-11.90462c-1.10621,3.96515 -0.68043,11.83315 -0.68043,11.83315z"/></g><path d="M222.7997,107.1275c-11.85622,0.02042 -20.29933,-6.56514 -20.30004,-6.98038c-0.00072,-0.41525 8.43357,1.04604 20.28979,1.02561c11.85622,-0.02042 11.86647,5.93434 0.01025,5.95476z" stroke="#2b2b2b"/></g><g><g stroke="#000000"><path d="M222.80623,110.91877c11.45816,-0.01974 20.74795,0.61463 20.74932,1.4169c0.00138,0.80226 -9.28618,1.46866 -20.74433,1.48838c-11.45816,0.01974 -20.74795,-0.61463 -20.74932,-1.4169c-0.00137,-0.80226 9.28618,-1.46866 20.74433,-1.48838z"/><path d="M202.06191,112.40716c0,0 43.25029,-15.76221 42.17409,-11.90462c-1.10621,3.96515 -0.68041,11.83313 -0.68041,11.83313z"/><path d="M202.06193,112.40717c0,0 0.39871,-7.86942 -0.72117,-11.83073c-1.08948,-3.85386 42.21483,11.75925 42.21483,11.75925z"/></g><path d="M222.78944,101.17273c11.85622,-0.02042 20.28544,-1.51076 20.28615,-1.09551c0.00072,0.41525 -8.41968,7.02987 -20.2759,7.05029c-11.85622,0.02042 -11.86647,-5.93434 -0.01025,-5.95476z" stroke="#2b2b2b"/></g></g></g><path d="M209.00652,228.40714l-0.62105,-2.3923l36.31953,-9.42862l0.62105,2.3923c0,0 -11.18275,7.54586 -17.16652,9.09925c-6.11969,1.58869 -19.15303,0.32937 -19.15303,0.32937z" fill="url(#color-1)" stroke="#2b2b2b" stroke-width="0"/><path d="M213.8547,255.43384c2.6629,10.2576 6.9757,30.19871 9.13447,47.5735c2.05428,16.53376 22.09511,71.02851 16.97054,72.35885c-1.92352,0.49935 -29.91459,4.94734 -35.93703,-7.09082c-4.85739,-9.70937 -3.25757,-46.6687 -8.20722,-56.33134c-9.22711,-18.01304 -20.64965,-39.36734 -22.61148,-46.92443c-5.19689,-20.0187 23.53895,-39.44207 34.04876,-42.17045c0.85008,-0.22068 -4.5084,4.11304 -3.58792,8.58296c1.24858,6.06327 7.56251,13.88097 10.18987,24.00171z" fill="#770000" stroke="#2b2b2b" stroke-width="0"/><path d="M244.74225,184.38328c-10.1946,0.01757 -15.55079,-8.14053 -15.56946,-18.98208c-0.01867,-10.84156 3.84377,-21.60531 14.03835,-21.62287c10.1946,-0.01757 20.13254,10.20446 20.15122,21.04601c0.01867,10.84156 -8.42553,19.54137 -18.62015,19.55893z" fill="#ffffff" stroke="#000000" stroke-width="0"/><path d="M201.1235,184.4584c-10.19462,0.01757 -18.66875,-8.6531 -18.68742,-19.49466c-0.01867,-10.84155 9.88399,-21.09774 20.07858,-21.1153c10.1946,-0.01757 14.0941,10.7328 14.11277,21.57438c0.01867,10.84155 -5.30937,19.01805 -15.50396,19.03561z" fill="#ffffff" stroke="#000000" stroke-width="0"/><g fill="#262626" stroke="#000000" stroke-width="0"><path d="M235.8967,183.06864c0.00608,3.5291 -5.79414,6.40001 -12.95513,6.41235c-7.161,0.01233 -12.97107,-2.83857 -12.97715,-6.36767c-0.00608,-3.5291 5.79414,-6.40002 12.95515,-6.41236c7.16101,-0.01233 12.97109,2.83857 12.97716,6.36768z"/><path d="M232.14194,185.80589c0.00402,2.3305 -4.1104,6.72031 -9.19513,6.72907c-5.08472,0.00876 -9.21424,-4.36687 -9.21826,-6.69734c-0.00402,-2.3305 4.1147,-4.22684 9.19942,-4.2356c5.08472,-0.00876 9.20995,1.87337 9.21396,4.20387z"/></g><path d="M475.68804,205.07703c1.83119,5.62265 -1.24236,11.66518 -6.86503,13.49638c-5.62264,1.83119 -11.66518,-1.24236 -13.49637,-6.86503c-1.83119,-5.62265 1.24237,-11.66519 6.86502,-13.49639c5.62264,-1.83119 11.66517,1.24237 13.49637,6.86503z" fill="#4e4e4e" stroke="#2b2b2b" stroke-width="0"/><path d="M466.75008,191.56868c1.6067,-4.09566 32.53519,-26.12224 41.75178,-18.87178c11.82832,9.30508 17.39972,37.12216 7.11965,41.98195c-12.84594,6.0728 -32.9764,12.64607 -42.10632,4.01159c-2.23616,-2.11479 -2.81406,-8.90481 -3.74271,-11.75624c-1.39079,-4.27039 -4.79514,-10.84663 -3.02238,-15.36554z" fill="#2b2b2b" stroke="#2b2b2b" stroke-width="0"/><path d="M475.68806,205.07704c1.83119,5.62265 -1.24238,11.66518 -6.86504,13.49639c-5.62264,1.83119 -11.66517,-1.24237 -13.49637,-6.86503c-1.83119,-5.62265 1.24237,-11.66517 6.86504,-13.49636c5.62264,-1.83119 11.66518,1.24238 13.49637,6.86502z" fill="#4e4e4e" stroke="#2b2b2b" stroke-width="0"/><path d="M378.41412,236.75742c-4.0058,-12.29968 -17.97666,-18.77805 31.41661,-34.86456c49.39328,-16.08651 54.86377,-6.83972 58.86957,5.45996c4.0058,12.29968 5.02994,22.99459 -44.36333,39.08111c-49.39324,16.08649 -41.91706,2.62316 -45.92285,-9.67651z" fill="#2b2b2b" stroke="#2b2b2b" stroke-width="0"/><path d="M381.34406,238.25813c-4.0058,-12.29968 -17.97667,-18.77808 31.41661,-34.86459c49.39328,-16.08651 54.86378,-6.83969 58.86956,5.45998c4.0058,12.29968 5.02994,22.99459 -44.36333,39.08111c-49.39328,16.08651 -41.91706,2.62318 -45.92284,-9.6765z" fill="#2b2b2b" stroke="#2b2b2b" stroke-width="0"/><g stroke="#2b2b2b" stroke-width="0"><path d="M470.87543,188.26139c-1.54201,-0.64245 -2.27126,-2.41328 -1.62884,-3.95531c0.64245,-1.54201 2.41328,-2.2713 3.95529,-1.62885c1.54201,0.64245 2.27127,2.41331 1.62881,3.95533c-0.64245,1.54201 -2.41329,2.27125 -3.9553,1.62881z" fill="#4e4e4e"/><path d="M461.65586,210.39059c-1.54201,-0.64245 -2.27128,-2.41327 -1.62885,-3.95531c0.64245,-1.54201 2.4133,-2.27128 3.95531,-1.62883c1.54201,0.64245 2.27126,2.41328 1.62881,3.95531c-0.64245,1.54201 -2.41327,2.27126 -3.95529,1.62883z" fill="#4e4e4e"/><path d="M472.41713,184.56076c3.07529,1.28124 5.18354,3.24342 0.33956,14.87018c-4.84399,11.62677 -7.55309,11.10683 -10.6284,9.82559c-3.07529,-1.28124 -5.35222,-2.83858 -0.50822,-14.46536c4.84399,-11.62677 7.72177,-11.51165 10.79708,-10.2304z" fill="#262626"/></g><g><g fill="#1c1c1c" stroke="#000000" stroke-width="0"><path d="M408.56783,337.71882c-4.71374,1.80032 -11.3662,-4.15311 -14.85872,-13.29743c-3.4925,-9.14425 -2.50247,-18.01669 2.21126,-19.817c4.71374,-1.80032 11.36621,4.15312 14.85873,13.29745c3.4925,9.14425 2.50246,18.01667 -2.2113,19.817z"/><g><path d="M395.35008,304.79446l91.78114,-43.87446l11.89772,31.15144l-94.72106,36.17693z"/><path d="M399.05822,314.50347l94.72108,-36.17696l11.8977,31.15146l-97.66098,28.47941z"/></g></g><g><path d="M469.54082,286.21114c4.45724,-1.70233 9.45053,0.53093 11.15285,4.98812c1.70235,4.45721 -0.5309,9.4505 -4.9881,11.15284c-4.45724,1.70233 -9.45049,-0.53092 -11.15284,-4.9881c-1.70235,-4.45721 0.5309,-9.45053 4.98809,-11.15287z" fill="#1a1a1a" stroke="#2b2b2b" stroke-width="0"/><path d="M469.9999,287.41314c3.79336,-1.44882 8.04302,0.45186 9.49183,4.24523c1.4488,3.79337 -0.45186,8.04302 -4.24521,9.49183c-3.79336,1.44882 -8.04301,-0.45187 -9.49182,-4.24525c-1.4488,-3.79337 0.45186,-8.04301 4.2452,-9.49182z" fill="#cba600" stroke="#2b2b2b" stroke-width="0"/><path d="M470.13106,287.75656c3.60369,-1.37638 7.64087,0.42927 9.01722,4.03299c1.37637,3.6037 -0.42927,7.64087 -4.03294,9.01724c-3.60369,1.37638 -7.64087,-0.42927 -9.01723,-4.03298c-1.37637,-3.6037 0.42927,-7.64088 4.03295,-9.01724z" fill="#ddb400" stroke="#2b2b2b" stroke-width="0"/><text transform="translate(466.7706,292.40078) rotate(69.09515) scale(0.32808,0.32808)" font-size="40" xml:space="preserve" fill="#cda800" stroke="none" stroke-width="1" font-family="&quot;I KNOW A GHOST&quot;, Handwriting" font-weight="normal" text-anchor="start"><tspan x="0" dy="0">T</tspan></text></g><g stroke="#000000" stroke-width="0"><path d="M477.67895,260.23758l11.79,-4.50298l21.40729,56.05008l-11.79001,4.50298z" fill="#212121"/><path d="M499.08623,316.28771c-2.52315,0.96367 -9.36082,-10.80234 -15.27225,-26.28011c-5.91145,-15.47783 -8.65818,-28.80626 -6.13503,-29.76996c2.52315,-0.96367 9.36082,10.80233 15.2723,26.28013c5.91145,15.47783 8.65816,28.80625 6.13501,29.76994z" fill="#212121"/><path d="M510.87626,311.78475c-2.52318,0.96367 -9.36081,-10.80236 -15.27224,-26.28013c-5.91145,-15.47783 -8.65819,-28.80626 -6.13505,-29.76997c2.52318,-0.96367 9.36081,10.80236 15.27227,26.28019c5.91145,15.47783 8.65817,28.80624 6.13501,29.76992z" fill="#1c1c1c"/></g><g stroke="#000000" stroke-width="0"><g><path d="M513.30931,243.01451c17.22005,-6.57685 36.51127,2.05116 43.08813,19.27119c6.57685,17.22005 -2.05112,36.51124 -19.27114,43.08811c-17.22005,6.57685 -33.13133,-3.342 -39.70819,-20.56205c-6.57685,-17.22005 -1.32878,-35.22039 15.89123,-41.79723z" fill="#727272"/><path d="M516.96024,248.01043c14.70005,-5.61442 31.16814,1.75098 36.78249,16.45097c5.6144,14.70003 -1.75099,31.16814 -16.451,36.78252c-14.70002,5.61442 -31.16814,-1.75098 -36.78249,-16.45099c-5.61438,-14.70001 1.75098,-31.16812 16.45098,-36.78251z" fill="#6c6c6c"/></g><g fill="#7e7e7e"><path d="M509.55139,243.5461l4.16291,-1.58995l24.41937,63.93652l-4.16291,1.58997z"/><path d="M533.97075,307.48262c-0.89089,0.34026 -7.07957,-13.69657 -13.8228,-31.35216c-6.74323,-17.65563 -11.48747,-32.24413 -10.59656,-32.58442c0.89089,-0.34026 7.07962,13.69654 13.82283,31.35216c6.74321,17.65562 11.48746,32.24412 10.59652,32.58439z"/><path d="M538.13363,305.89269c-0.89089,0.34026 -7.0796,-13.69654 -13.82282,-31.3522c-6.74323,-17.65563 -11.48747,-32.24411 -10.59656,-32.5844c0.89089,-0.34026 5.76011,14.20051 12.50334,31.85612c6.74323,17.65563 12.80696,31.74014 11.91602,32.0804z"/></g></g></g><g stroke="#2b2b2b" stroke-width="0"><path d="M512.45483,168.13034c1.4324,0.62429 2.08749,2.29158 1.46321,3.724c-0.62429,1.4324 -2.29158,2.0875 -3.72396,1.46322c-1.4324,-0.62429 -2.08751,-2.29157 -1.46323,-3.72396c0.62429,-1.4324 2.29157,-2.08753 3.72398,-1.46325z" fill="#4e4e4e"/><path d="M505.68629,183.66046c1.4324,0.62429 2.08749,2.29157 1.46321,3.72396c-0.62429,1.4324 -2.29158,2.08751 -3.72396,1.46323c-1.4324,-0.62429 -2.08749,-2.29157 -1.46321,-3.72396c0.62429,-1.4324 2.29155,-2.08752 3.72396,-1.46323z" fill="#4e4e4e"/><path d="M496.34457,205.09469c-2.85667,-1.24504 -4.86639,-2.95669 -1.0127,-11.79879c3.8537,-8.84212 6.34139,-8.22726 9.19809,-6.98223c2.85667,1.24504 5.00056,2.64881 1.14688,11.49092c-3.85369,8.84213 -6.47558,8.53513 -9.33227,7.29012z" fill="#262626"/><path d="M512.84762,181.35166c-3.85369,8.84213 -5.28469,5.80266 -8.14138,4.55764c-2.85669,-1.24502 -6.0573,-0.2242 -2.20362,-9.06631c3.8537,-8.84212 6.47561,-8.53515 9.33227,-7.29013c2.85668,1.24502 4.86639,2.95669 1.0127,11.7988z" fill="#262626"/></g><g stroke="#2b2b2b" stroke-width="0"><path d="M517.42565,180.37373c1.4324,0.62429 2.08749,2.29157 1.46321,3.72396c-0.62429,1.4324 -2.29158,2.0875 -3.72397,1.46322c-1.4324,-0.62429 -2.0875,-2.29157 -1.46322,-3.72396c0.62429,-1.4324 2.29156,-2.08753 3.72397,-1.46322z" fill="#4e4e4e"/><path d="M510.65711,195.90384c1.4324,0.62429 2.08751,2.29157 1.46323,3.72396c-0.62429,1.4324 -2.29158,2.0875 -3.72396,1.46322c-1.4324,-0.62429 -2.0875,-2.29157 -1.46322,-3.72395c0.62429,-1.4324 2.29157,-2.08751 3.72396,-1.46323z" fill="#4e4e4e"/><path d="M501.31538,217.33806c-2.85669,-1.24502 -4.86636,-2.95669 -1.01269,-11.79879c3.8537,-8.84212 6.3414,-8.22727 9.19808,-6.98224c2.85668,1.24502 5.00058,2.64879 1.14689,11.49092c-3.85369,8.84213 -6.47561,8.53515 -9.33228,7.29012z" fill="#262626"/><path d="M517.81839,193.59502c-3.85369,8.84213 -5.28468,5.80265 -8.14137,4.55763c-2.85669,-1.24502 -6.05729,-0.22419 -2.2036,-9.06632c3.8537,-8.84212 6.47558,-8.53513 9.33227,-7.29012c2.85668,1.24502 4.86639,2.95669 1.01269,11.79879z" fill="#262626"/></g><g stroke="#2b2b2b" stroke-width="0"><path d="M526.46384,193.33273c1.36866,0.75383 1.86707,2.47449 1.11325,3.84314c-0.75383,1.36866 -2.47448,1.86706 -3.84315,1.11323c-1.36866,-0.75383 -1.86705,-2.47447 -1.11322,-3.84313c0.75383,-1.36866 2.47446,-1.86709 3.84312,-1.11325z" fill="#4e4e4e"/><path d="M518.29072,208.17182c1.36866,0.75383 1.86707,2.47447 1.11325,3.84313c-0.75383,1.36866 -2.47447,1.86708 -3.84313,1.11325c-1.36866,-0.75383 -1.86706,-2.47446 -1.11324,-3.84312c0.75383,-1.36866 2.47448,-1.86708 3.84314,-1.11326z" fill="#4e4e4e"/><path d="M507.01045,228.65227c-2.72958,-1.50339 -4.57271,-3.39325 0.08067,-11.8419c4.65339,-8.44867 7.07373,-7.60682 9.8033,-6.10342c2.72957,1.50339 4.73472,3.09906 0.08135,11.54772c-4.6534,8.44868 -7.23576,7.90099 -9.96531,6.39762z" fill="#262626"/><path d="M525.63443,206.53381c-4.6534,8.44868 -5.79773,5.2901 -8.52729,3.78672c-2.72957,-1.50339 -6.01073,-0.78237 -1.35736,-9.23101c4.65338,-8.44867 7.23577,-7.90099 9.96534,-6.39761c2.72957,1.50339 4.57268,3.39326 -0.08069,11.8419z" fill="#262626"/></g><g stroke="#2b2b2b" stroke-width="0"><path d="M534.63749,200.79753c1.36866,0.75383 1.8671,2.47447 1.11326,3.84313c-0.75383,1.36866 -2.47447,1.86707 -3.84313,1.11325c-1.36866,-0.75383 -1.86707,-2.47447 -1.11325,-3.84313c0.75383,-1.36866 2.47447,-1.86707 3.84312,-1.11325z" fill="#4e4e4e"/><path d="M526.46439,215.63662c1.36866,0.75383 1.86707,2.47447 1.11324,3.84313c-0.75383,1.36866 -2.47447,1.86706 -3.84313,1.11324c-1.36866,-0.75383 -1.86706,-2.47447 -1.11323,-3.84313c0.75383,-1.36866 2.47447,-1.86706 3.84312,-1.11323z" fill="#4e4e4e"/><path d="M515.18413,236.11706c-2.72958,-1.50339 -4.57269,-3.39326 0.08068,-11.8419c4.65338,-8.44867 7.07374,-7.60683 9.80329,-6.10344c2.72957,1.50339 4.73472,3.09907 0.08135,11.54773c-4.6534,8.44868 -7.23576,7.90099 -9.96532,6.39762z" fill="#262626"/><path d="M533.80821,213.99868c-4.6534,8.44868 -5.79773,5.29009 -8.52729,3.78671c-2.72957,-1.50339 -6.01074,-0.78236 -1.35737,-9.231c4.65338,-8.44867 7.23577,-7.90103 9.96534,-6.39763c2.72957,1.50339 4.57269,3.39325 -0.08069,11.84193z" fill="#262626"/></g></g></g></svg>