<svg version="1.1" xmlns="http://www.w3.org/2000/svg" xmlns:xlink="http://www.w3.org/1999/xlink" width="55.25833" height="82.17316" viewBox="0,0,55.25833,82.17316"><g transform="translate(-513.82993,-239.04838)"><g stroke-miterlimit="10"><path d="M525.51743,281.97033c4.31473,0 3.9375,12.21201 3.9375,21.73572c0,9.52371 -15.625,9.52371 -15.625,0c0,-9.52371 7.37277,-21.7357 11.6875,-21.7357z" fill-opacity="0.51765" fill="#5ce57d" stroke="none" stroke-width="0"/><path d="M569.08826,303.70605c0,9.52371 -15.625,9.52371 -15.625,0c0,-9.52371 -0.37723,-21.7357 3.9375,-21.7357c4.31473,0 11.6875,12.21201 11.6875,21.73572z" fill-opacity="0.51765" fill="#5ce57d" stroke="none" stroke-width="0"/><path d="M526.6966,293.25783c0,-10.43818 4.86182,-18.1 15.3,-18.1c10.43818,0 14.3,8.46182 14.3,18.9c0,6.87592 -3.17572,10.89424 -7.30309,14.2012c-2.13831,1.71327 -3.43464,4.6988 -6.99691,4.6988c-3.60776,0 -5.92436,-3.98143 -8.22931,-5.86043c-4.36386,-3.55745 -7.07069,-7.00915 -7.07069,-13.83957z" fill-opacity="0.51765" fill="#5ce57d" stroke="none" stroke-width="0"/><g fill-opacity="0.51765" fill="#5ce57d" stroke="none" stroke-width="0"><path d="M515.64122,318.44059c-2.45738,-7.21833 -0.63457,-14.92671 4.07137,-17.21713c4.70594,-2.29042 16.49249,-0.36271 18.94987,6.85563c2.45738,7.21833 -20.56386,17.57984 -23.02124,10.36151z"/><path d="M515.85526,318.44059c-2.93826,-7.21833 -0.75874,-14.92671 4.86808,-17.21713c5.62682,-2.29042 12.5702,1.70443 15.50846,8.92276c2.93826,7.21833 -17.43828,15.51271 -20.37654,8.29438z"/></g><g fill-opacity="0.51765" fill="#5ce57d" stroke="none" stroke-width="0"><path d="M541.98076,308.07911c2.45738,-7.21833 14.24393,-9.14606 18.94986,-6.85563c4.70594,2.29042 6.52875,9.99881 4.07137,17.21714c-2.45738,7.21833 -25.47861,-3.14317 -23.02123,-10.36151z"/><path d="M544.41141,310.14625c2.93826,-7.21833 9.88164,-11.21319 15.50846,-8.92276c5.62682,2.29042 7.80634,9.9988 4.86808,17.21714c-2.93826,7.21833 -23.3148,-1.07604 -20.37654,-8.29438z"/></g><g fill-opacity="0.51765" fill="#5ce57d" stroke-width="0"><path d="M536.83822,287.83553c0,-2.25741 2.04197,-4.0874 4.56087,-4.0874c2.5189,0 4.56087,1.82999 4.56087,4.0874c0,2.25741 -2.04197,4.0874 -4.56087,4.0874c-2.5189,0 -4.56087,-1.82999 -4.56087,-4.0874z" stroke="#351a00"/><path d="M531.01711,281.43552c0,0 9.00171,2.86538 9.00171,6.4c0,3.53462 -9.00171,6.4 -9.00171,6.4z" stroke="none"/><path d="M551.90108,294.23552c0,0 -9.00171,-2.86538 -9.00171,-6.4c0,-3.53462 9.00171,-6.4 9.00171,-6.4z" stroke="none"/></g><path d="M523.16327,272.78283c0,-4.75725 -0.47376,-10.23415 2.49764,-13.4925c3.35287,-3.67665 10.46772,-4.84083 15.83569,-4.84083c5.58433,0 13.01408,1.3539 16.3767,5.292c2.73432,3.20227 1.95663,8.50043 1.95663,13.04133c0,4.90369 -9.4002,13.0325 -18.27037,13.18643c-9.4451,0.16391 -18.3963,-7.9649 -18.3963,-13.18643z" fill-opacity="0.51765" fill="#5ce57d" stroke="none" stroke-width="0"/><path d="M556.39883,276.9547c0,1.18168 -7.02208,7.80329 -15.27306,7.80329c-8.25099,0 -14.6064,-6.62161 -14.6064,-7.80329c0,-1.18168 6.57763,1.51031 14.82862,1.51031c8.25099,0 15.05084,-2.69199 15.05084,-1.51031z" fill-opacity="0.51765" fill="#5ce57d" stroke="#e2e2e2" stroke-width="0"/><path d="M550.8966,273.34233c0,1.82944 -4.22531,3.3125 -9.4375,3.3125c-5.21219,0 -9.4375,-1.48306 -9.4375,-3.3125c0,-1.82944 4.22531,-3.3125 9.4375,-3.3125c5.21219,0 9.4375,1.48306 9.4375,3.3125z" fill-opacity="0.51765" fill="#5ce57d" stroke="#351a00" stroke-width="0"/><g stroke="none"><g><g><path d="M525.43132,273.38024c0,-3.45178 2.79822,-6.25 6.25,-6.25c3.45178,0 6.25,2.79822 6.25,6.25c0,3.45178 -2.79822,6.25 -6.25,6.25c-3.45178,0 -6.25,-2.79822 -6.25,-6.25z" fill-opacity="0.51765" fill="#5ce57d" stroke-width="0"/><g fill="none" stroke-width="1" font-family="sans-serif" font-weight="normal" font-size="12" text-anchor="start"/></g><text transform="translate(527.48186,277.6526) scale(0.3703,0.3703)" font-size="40" xml:space="preserve" fill-opacity="0.51765" fill="#5ce57d" stroke-width="1" font-family="Handwriting" font-weight="normal" text-anchor="start"><tspan x="0" dy="0">x</tspan></text></g><g><g><path d="M551.23688,279.89688c-3.45178,0 -6.25,-2.79822 -6.25,-6.25c0,-3.45178 2.79822,-6.25 6.25,-6.25c3.45178,0 6.25,2.79822 6.25,6.25c0,3.45178 -2.79822,6.25 -6.25,6.25z" fill-opacity="0.51765" fill="#5ce57d" stroke-width="0"/><g fill="none" stroke-width="1" font-family="sans-serif" font-weight="normal" font-size="12" text-anchor="start"/></g><text transform="translate(555.43634,277.91924) rotate(-180) scale(0.3703,-0.3703)" font-size="40" xml:space="preserve" fill-opacity="0.51765" fill="#5ce57d" stroke-width="1" font-family="Handwriting" font-weight="normal" text-anchor="start"><tspan x="0" dy="0">x</tspan></text></g></g><path d="M538.57169,296.99117c0,-1.38071 1.11929,-2.5 2.5,-2.5c1.38071,0 2.5,1.11929 2.5,2.5c0,1.38071 -1.11929,2.5 -2.5,2.5c-1.38071,0 -2.5,-1.11929 -2.5,-2.5z" fill-opacity="0.51765" fill="#5ce57d" stroke="none" stroke-width="0.5"/><path d="M553.6173,254.78542c0,1.25005 0.1824,3.37152 -2.52009,4.13524c-2.27246,0.64219 -18.98391,0.55719 -21.22478,-0.04627c-2.83821,-0.76432 -2.08847,-2.80307 -2.08847,-4.08898c0,-2.30119 25.83334,-2.30119 25.83334,0z" fill-opacity="0.51765" fill="#5ce57d" stroke="#500000" stroke-width="0"/><path d="M549.37959,242.55138c0,2.53721 0.12276,6.84311 -1.69607,8.39322c-1.52941,1.30344 -12.77658,1.13094 -14.28473,-0.09389c-1.91018,-1.55131 -1.40558,-5.68932 -1.40558,-8.29933c0,-4.67067 17.38638,-4.67067 17.38638,0z" fill-opacity="0.51765" fill="#5ce57d" stroke="#500000" stroke-width="0"/><path d="M549.37959,250.88776c0,0.84131 0.12276,2.26909 -1.69607,2.78309c-1.52941,0.43221 -12.77658,0.37502 -14.28473,-0.03112c-1.91018,-0.5144 -1.40558,-1.88652 -1.40558,-2.75197c0,-1.54874 17.38638,-1.54874 17.38638,0z" fill-opacity="0.51765" fill="#5ce57d" stroke="#500000" stroke-width="0"/></g></g></svg>