<svg version="1.1" xmlns="http://www.w3.org/2000/svg" xmlns:xlink="http://www.w3.org/1999/xlink" width="82.73334" height="223.47645" viewBox="0,0,82.73334,223.47645"><g transform="translate(-318.63333,-68.26178)"><g data-paper-data="{&quot;isPaintingLayer&quot;:true}" fill-rule="nonzero" stroke="none" stroke-width="0" stroke-linecap="butt" stroke-linejoin="miter" stroke-miterlimit="10" stroke-dasharray="" stroke-dashoffset="0" style="mix-blend-mode: normal"><g><path d="M369.24909,112.76178c0,3.77772 8.8279,14.78217 6.49499,18.66959c-3.03879,5.06366 -27.1988,2.58041 -30.24499,2.58041c-5.38477,0 4.25,-12.55151 4.25,-21.25c0,-8.69849 10.36523,-19.25 15.75,-19.25c5.38477,0 3.75,10.55151 3.75,19.25z" fill="#d0d0d0"/><path d="M351.11575,118.76178c-14.08326,0 -17.5,-10.91674 -17.5,-25c0,-14.08326 7.41674,-25.5 21.5,-25.5c14.08326,0 21.5,10.91674 21.5,25c0,14.08326 -11.41674,25.5 -25.5,25.5z" data-paper-data="{&quot;index&quot;:null}" fill="#ffffff"/><g data-paper-data="{&quot;index&quot;:null}" fill="#ffffff"><path d="M323.28213,143.42918c1.58657,-9.50703 5.15288,-3.88805 8.01821,-3.88805c2.13659,0 6.14195,-4.63426 7.65692,1.04971c1.89445,7.10777 1.0494,25.80708 1.0494,37.69789c0,21.39971 -3.38582,26.34837 -8.19419,26.34837c-4.80836,0 -9.21846,-4.94866 -9.21846,-26.34837c0,-8.64751 -0.38777,-28.41266 0.68811,-34.85955z"/><path d="M340.85443,216.31806c-3.06734,0.93981 -9.48732,5.66587 -13.51499,2.64267c-3.75063,-2.81526 -5.22091,-13.28157 -5.37222,-15.37294c-0.49354,-6.8218 3.6747,-12.83629 9.31003,-13.43375c1.15394,-0.12234 6.00258,-1.80483 10.11969,-0.02745c4.48791,1.93747 6.05139,15.22277 5.28196,16.29224c-3.90368,5.42593 -4.58666,-8.89684 -4.30434,-4.99463c0.17976,2.48457 1.87323,13.85416 -1.52013,14.89386z"/></g><path d="M343.02585,279.25895c-2.755,-27.78698 -5.74796,-93.01802 4.9859,-99.03689c4.62214,-2.5918 25.40579,-1.26726 30.02621,2.12348c7.00597,5.14139 4.43431,66.38745 6.25064,88.47906c1.74242,21.1926 -13.7025,18.02681 -16.95613,13.22271c-4.19089,-6.188 -5.14747,-73.35724 -5.14747,-73.35724c0,0 1.99237,68.56324 -1.60167,73.67126c-3.85017,5.47204 -16.54656,5.09372 -17.55748,-5.10238z" data-paper-data="{&quot;index&quot;:null}" fill="#2b1287"/><path d="M318.63333,145.19658c0,-9.38884 5.88474,-17 13.14394,-17c7.2592,0 6.57197,9.61116 6.57197,19c0,9.38884 -19.71591,7.38884 -19.71591,-2z" data-paper-data="{&quot;index&quot;:null}" fill="#1643a6"/><path d="M328.5,141.76178c0,-20.5726 13.34697,-18.75 30.86149,-18.75c17.51452,0 32.13851,-5.8226 32.13851,14.75c0,5.52878 -8.80686,60.36063 -15.46143,63.34026c-9.79723,4.38678 -19.8992,3.84259 -31.01503,1.87189c-9.42827,-1.67151 -16.52355,-54.30811 -16.52355,-61.21215z" fill="#184bb9"/><g fill="#ffffff"><path d="M400.7002,178.28873c0,21.39971 -4.41009,26.34837 -9.21846,26.34837c-4.80836,0 -8.19419,-4.94866 -8.19419,-26.34837c0,-11.89082 -0.84505,-30.59013 1.0494,-37.69789c1.51497,-5.68397 5.52033,-1.04971 7.65692,-1.04971c2.86533,0 6.43164,-5.61898 8.01821,3.88805c1.07588,6.4469 0.68811,26.21204 0.68811,34.85956z"/><path d="M380.91965,201.4242c0.28232,-3.90221 -0.40065,10.42056 -4.30434,4.99463c-0.76943,-1.06947 0.79406,-14.35477 5.28196,-16.29224c4.1171,-1.77739 8.96575,-0.09489 10.11969,0.02745c5.63533,0.59745 9.80358,6.61195 9.31003,13.43375c-0.15131,2.09137 -1.6216,12.55769 -5.37222,15.37294c-4.02766,3.0232 -10.44765,-1.70287 -13.51499,-2.64267c-3.39337,-1.0397 -1.69989,-12.40929 -1.52013,-14.89386z"/></g><path d="M381.65075,145.19658c0,-9.38884 -0.68723,-19 6.57198,-19c7.2592,0 13.14394,7.61116 13.14394,17c0,9.38884 -19.71591,11.38884 -19.71591,2z" fill="#1643a6"/><path d="M346.33916,93.98647c0,6.07513 -1.10845,11 -2.47577,11c-1.36733,0 -2.47577,-4.92487 -2.47577,-11c0,-6.07513 1.10844,-11 2.47577,-11c1.36733,0 2.47577,4.92487 2.47577,11z" fill="#000000"/><path d="M357.59153,93.51178c0,6.07513 -1.10845,11 -2.47577,11c-1.36733,0 -2.47577,-4.92487 -2.47577,-11c0,-6.07513 1.10845,-11 2.47577,-11c1.36733,0 2.47577,4.92487 2.47577,11z" fill="#000000"/></g><path d="M333.55606,285.74374c0,-7.99265 6.47932,-14.47197 14.47197,-14.47197c3.0553,0 10.22235,6.98374 10.22235,6.98374c0,0 3.42934,-4.39682 4.51817,-2.38185c1.10447,2.04394 -0.26855,7.38379 -0.26855,9.87008c0,7.99265 -28.94394,7.99265 -28.94394,0z" fill="#111111"/><path d="M365.58771,285.74374c0,-2.48629 -1.37302,-7.82614 -0.26855,-9.87008c1.08882,-2.01497 4.51817,2.38185 4.51817,2.38185c0,0 7.16706,-6.98374 10.22235,-6.98374c7.99265,0 14.47197,6.47932 14.47197,14.47197c0,7.99265 -28.94394,7.99265 -28.94394,0z" data-paper-data="{&quot;index&quot;:null}" fill="#111111"/></g></g></svg>