<svg version="1.1" xmlns="http://www.w3.org/2000/svg" xmlns:xlink="http://www.w3.org/1999/xlink" width="735.01499" height="448" viewBox="0,0,735.01499,448"><defs><linearGradient x1="146" y1="180" x2="574.00001" y2="180" gradientUnits="userSpaceOnUse" id="color-1"><stop offset="0" stop-color="#484c5e"/><stop offset="1" stop-color="#212d30"/></linearGradient><radialGradient cx="248.56883" cy="141.0467" r="40.46761" gradientUnits="userSpaceOnUse" id="color-2"><stop offset="0" stop-color="#000000"/><stop offset="1" stop-color="#070707"/></radialGradient><radialGradient cx="260.33943" cy="179.4519" r="39.13721" gradientUnits="userSpaceOnUse" id="color-3"><stop offset="0" stop-color="#000000"/><stop offset="1" stop-color="#070707"/></radialGradient><linearGradient x1="398.34131" y1="180" x2="727.00001" y2="180" gradientUnits="userSpaceOnUse" id="color-4"><stop offset="0" stop-color="#331717"/><stop offset="1" stop-color="#000000"/></linearGradient><linearGradient x1="-7" y1="180" x2="727.00001" y2="180" gradientUnits="userSpaceOnUse" id="color-5"><stop offset="0" stop-color="#484c5e"/><stop offset="1" stop-color="#212d30"/></linearGradient><linearGradient x1="-7" y1="180" x2="354.70447" y2="180" gradientUnits="userSpaceOnUse" id="color-6"><stop offset="0" stop-color="#000000"/><stop offset="1" stop-color="#331717"/></linearGradient><linearGradient x1="-7" y1="180" x2="727.00001" y2="180" gradientUnits="userSpaceOnUse" id="color-7"><stop offset="0" stop-color="#484c5e"/><stop offset="1" stop-color="#212d30"/></linearGradient><linearGradient x1="-5.24208" y1="181.05806" x2="150.65899" y2="181.05806" gradientUnits="userSpaceOnUse" id="color-8"><stop offset="0" stop-color="#000000"/><stop offset="1" stop-color="#000000" stop-opacity="0"/></linearGradient><linearGradient x1="727.50754" y1="177.8148" x2="571.60645" y2="177.8148" gradientUnits="userSpaceOnUse" id="color-9"><stop offset="0" stop-color="#000000"/><stop offset="1" stop-color="#000000" stop-opacity="0"/></linearGradient><linearGradient x1="360.24745" y1="-17.14016" x2="360.24745" y2="110.48749" gradientUnits="userSpaceOnUse" id="color-10"><stop offset="0" stop-color="#000000"/><stop offset="1" stop-color="#000000" stop-opacity="0"/></linearGradient><linearGradient x1="359.27229" y1="377.38042" x2="359.27229" y2="249.75279" gradientUnits="userSpaceOnUse" id="color-11"><stop offset="0" stop-color="#000000"/><stop offset="1" stop-color="#000000" stop-opacity="0"/></linearGradient></defs><g transform="translate(7.50749,44)"><g stroke-miterlimit="10"><g stroke-width="0"><path d="M146,404v-448h428v448z" fill="#230000" stroke="url(#color-1)"/><path d="M94.00001,274.5v-189h532v189z" fill="#650000" stroke="#000000"/></g><g><path d="M231.20318,103.63724c7.59299,14.17132 -5.56,56.32845 -28.45217,68.59406c-22.89218,12.26562 -42.33866,55.32054 -49.93164,41.14921c-4.29539,-8.01678 -44.89833,-68.09808 -35.85704,-83.23559c6.94108,-11.6212 48.35004,-3.90568 58.29202,-9.23258c22.89218,-12.26562 48.35586,-31.44643 55.94883,-17.27511z" fill="#464646" stroke="none" stroke-width="0"/><path d="M216.18566,74.02852c37.06349,-19.85859 76.25177,-15.73319 96.11036,21.3303c19.85859,37.06349 0.27093,72.68101 -36.79256,92.53961c-37.06349,19.85859 -70.61143,26.26016 -90.47003,-10.80334c-19.85859,-37.06349 -5.91127,-83.20798 31.15223,-103.06657z" fill="#464646" stroke="none" stroke-width="0"/><g stroke="none" stroke-width="0"><path d="M177.57837,183.81274c-16.99911,-40.98119 2.4422,-87.98353 43.42339,-104.98265c40.98119,-16.99911 81.70037,-8.59397 98.6995,32.38721c16.99913,40.98117 -7.27035,76.34384 -48.25153,93.34295c-17.69551,7.34016 -32.36285,26.62783 -32.36285,26.62783l-48.86107,-15.98219c0,0 -11.74979,-29.22921 -12.64739,-31.39316z" fill="#131313"/><g><path d="M217.35259,226.09704c-18.29245,-4.29858 -32.12118,-12.0397 -30.88731,-17.29031c1.23384,-5.25059 17.06305,-6.02239 35.35547,-1.72381c18.29245,4.29858 32.12118,12.0397 30.88731,17.29031c-1.23384,5.25059 -17.06305,6.02239 -35.35547,1.72381z" fill="#070707"/><path d="M186.35225,208.924l66.24278,15.56651l-3.60335,15.33398l-66.24278,-15.56651z" fill="#070707"/><path d="M213.45744,241.50631c-18.14898,-4.26485 -31.8614,-11.97867 -30.62753,-17.22928c1.23382,-5.25062 16.94668,-6.04974 35.09568,-1.78487c18.14898,4.26485 31.86142,11.97866 30.62756,17.22927c-1.23382,5.25062 -16.94671,6.04975 -35.0957,1.78488z" fill="#0c0c0c"/></g><path d="M253.47726,151.44438c-20.71443,8.59241 -41.29684,6.42089 -45.97214,-4.85019c-4.67529,-11.27109 8.32699,-27.37363 29.04142,-35.96603c20.71446,-8.59242 41.29683,-6.42092 45.97213,4.85017c4.67528,11.27105 -8.327,27.37362 -29.04142,35.96603z" fill="url(#color-2)"/><path d="M240.3154,203.26258c-6.21126,-3.79079 3.21749,-16.4212 21.05966,-28.21076c17.84217,-11.78956 37.34133,-18.27386 43.55257,-14.48306c6.21124,3.7908 -3.21751,16.42121 -21.05968,28.21077c-17.84217,11.78956 -37.34131,18.27385 -43.55255,14.48305z" fill="url(#color-3)"/></g><g stroke-width="0"><path d="M308.4441,97.30881c24.53121,45.78433 39.03131,85.78587 32.38686,89.34596c-6.64444,3.56008 -31.9173,-30.66942 -56.4485,-76.45374c-24.53121,-45.78433 -39.0313,-85.78586 -32.38686,-89.34595c6.64444,-3.56008 31.9173,30.66941 56.44851,76.45374z" fill="#04050a" stroke="#000000"/><path d="M274.41711,40.12373c5.87305,-3.14677 23.50983,-13.98184 42.39291,5.58111c16.8203,17.4259 34.91743,64.17202 42.09941,81.20396c8.41487,19.9557 -15.88745,26.53286 -22.01695,29.81705c-17.23401,9.23397 -79.70936,-107.36816 -62.47535,-116.60213z" fill="#0c0d12" stroke="none"/></g><path d="M185.82554,86.98275l50.00308,-26.79163l11.07926,20.67799l-50.00309,26.79162z" fill="#070707" stroke="none" stroke-width="0"/><path d="M287.35022,170.12087l-0.70273,0.27447c-0.48697,0.18623 -0.93411,0.28656 -1.36592,0.34511c-3.89942,2.68218 -7.25269,7.88837 -10.59842,11.09256c-1.97854,1.85103 -4.47435,1.67688 -6.75996,2.75805c-3.56589,1.68677 -7.10195,3.93946 -10.68022,5.38661c-2.30652,0.90076 -4.72772,1.02527 -6.95017,1.90439l-0.87838,0.34304c-0.24258,0.09475 -0.51601,-0.02513 -0.61073,-0.26767c-0.09473,-0.24255 0.02509,-0.51594 0.26767,-0.61069l0.8772,-0.34258c4.43426,-3.69288 9.01141,-7.49523 13.71149,-10.81628c4.95248,-4.32355 11.17915,-6.87849 16.9473,-9.66053c1.6173,-0.63215 2.99581,-0.50802 4.29903,-0.67028c0.27951,-0.18797 0.56248,-0.36366 0.84916,-0.5256c0,0 0.39412,-0.22265 0.62818,0.15452l0.62348,-0.24349c0,0 0.4392,-0.17151 0.61073,0.26767c0.17154,0.43918 -0.26769,0.61071 -0.26769,0.61071zM283.57874,170.85622c-0.7672,0.04503 -1.58823,0.14304 -2.59798,0.53702c-5.69939,2.6316 -11.88167,5.30737 -16.73776,9.53586c-3.56525,2.52569 -6.6234,5.51565 -9.99559,8.19531c-0.32776,0.26044 -0.71135,0.62614 -1.12775,1.00171c1.25787,-0.27504 2.52766,-0.53765 3.78027,-1.02684c3.57441,-1.33404 7.10069,-3.70436 10.63178,-5.36614c2.16189,-1.01743 4.66513,-0.81448 6.50266,-2.58447c3.11147,-2.92427 6.08447,-7.41944 9.54439,-10.29243z" fill="#ff0000" stroke="none" stroke-width="0.5"/><path d="M265.44318,121.20894c0,0 0.38608,-0.27068 0.65673,0.11539c0.27065,0.38608 -0.11542,0.65675 -0.11542,0.65675l-0.54809,0.38424c0.18439,0.40381 -0.21926,0.60859 -0.21926,0.60859c-0.29363,0.14897 -0.59666,0.28724 -0.90796,0.41586c-0.85696,0.99515 -1.51713,2.21164 -2.93931,3.20802c-5.51124,3.26147 -11.08742,7.03052 -17.43034,8.759c-5.36846,2.07367 -11.06954,3.77835 -16.60032,5.42473l-0.77108,0.54057c-0.21322,0.14947 -0.50723,0.09781 -0.65671,-0.11541c-0.14947,-0.21322 -0.09785,-0.50725 0.1154,-0.65674l0.77217,-0.54132c1.96296,-1.36342 3.40772,-3.31033 5.43528,-4.73173c3.18689,-2.17761 7.02105,-3.87392 10.4006,-5.90848c2.16619,-1.30409 3.40362,-3.47855 6.04068,-4.10056c4.52096,-1.01078 10.71292,-0.91892 15.10595,-2.67983c0.28796,-0.32708 0.61918,-0.64379 1.04393,-0.94606l0.61776,-0.43305zM262.74187,123.94165c-4.30845,1.28931 -9.69779,1.2747 -13.85594,2.24546c-2.49149,0.54953 -3.70905,2.74606 -5.75362,3.98245c-3.33944,2.01944 -7.26615,3.64243 -10.35673,5.87949c-1.10109,0.77192 -2.02309,1.68368 -2.94883,2.57862c0.54333,-0.13868 1.06029,-0.25546 1.45867,-0.3841c4.09889,-1.32336 8.28221,-2.21335 12.35985,-3.78271c6.21038,-1.70091 11.86255,-5.36606 17.21048,-8.65359c0.88732,-0.62247 1.42368,-1.25176 1.88613,-1.8656z" fill="#ff0000" stroke="none" stroke-width="0.5"/><path d="M233.71096,239.55313c-0.97347,-1.81684 -0.28978,-4.07882 1.52707,-5.05228c1.81684,-0.97347 4.07882,-0.28977 5.05228,1.52707c0.97347,1.81684 0.28978,4.07882 -1.52706,5.05229c-1.81684,0.97347 -4.07882,0.28978 -5.05228,-1.52707z" fill="#000000" stroke="none" stroke-width="0.5"/></g><path d="M727.00001,-13.5v387h-328.65871c0.01919,-0.02539 0.03833,-0.05081 0.05742,-0.07627c2.14978,-2.86621 4.57424,-5.41616 5.44946,-8.91445c0.78075,-3.12068 3.62243,-6.05614 5.11075,-9.00134c0.98629,-1.98328 3.54109,-3.78121 5.11015,-5.35062c0.60758,-0.60772 1.29476,-1.63005 2.13692,-1.82544c3.42266,-0.86891 6.94816,-0.91609 10.23928,-2.01245c3.36259,-1.12017 6.57833,-2.12521 10.06942,-2.74901c0.63855,-0.1141 2.05048,-0.10213 2.56612,-0.48516c1.57662,-1.17114 2.79249,-5.44173 3.69575,-7.22065c1.55863,-3.07588 2.50599,-6.61714 3.70063,-9.85381c1.2258,-3.32108 2.50114,-6.44995 4.06973,-9.62877c1.54862,-3.13834 3.11227,-6.269 4.67734,-9.39917c1.10828,-2.21658 2.1039,-3.8926 3.81525,-5.68951c0.75327,-0.79093 2.09198,-1.73153 2.14966,-2.83879c0.01478,-0.62663 -0.19924,-1.84344 0.03929,-2.40788c0.65922,-1.55992 3.18067,-2.3466 3.85247,-3.92449c0.27329,-0.64189 0.07187,-1.8874 0.09219,-2.58965c0.08225,-2.84229 1.04971,-8.09643 -0.51231,-10.47959c-1.89417,-2.88991 -4.07355,-5.73857 -5.65103,-8.81217c-1.62494,-3.16609 -2.56216,-6.37369 -3.57447,-9.781c-0.90977,-3.00587 -0.18519,-7.26258 -0.18527,-10.40778c-0.00008,-3.45466 1.06911,-6.88031 1.8037,-10.25194c0.28319,-1.31413 -0.31976,-3.24406 0.17035,-4.44667c0.58665,-1.43949 2.9785,-3.14213 4.06148,-4.29348c2.38373,-2.53422 2.53326,-6.33717 3.37299,-9.75207c0.8302,-3.37618 0.5846,-7.02688 0.58616,-10.50109c0.00155,-3.5 0.00309,-7 0.00464,-10.5c0.00133,-3.01861 -3.57292,-6.45934 -4.72457,-9.31824c-1.32085,-3.27892 -3.078,-6.27084 -4.80806,-9.35067c-1.57994,-2.81258 -2.98265,-6.58345 -3.66061,-9.73745c-0.73553,-3.42184 -1.47107,-6.84368 -2.2066,-10.26552c-0.73611,-3.42453 -0.53934,-6.89506 -0.55452,-10.39264c-0.01519,-3.49953 -0.04312,-6.99928 -0.04344,-10.49884c-0.00032,-3.5 -0.00065,-7 -0.00097,-10.5c-0.00032,-3.49999 -0.00059,-6.99998 -0.00059,-10.49998c0,-3.57655 0.71017,-6.80113 1.45555,-10.29364c0.73875,-3.46143 0.53678,-6.9634 0.54427,-10.49683c0.00005,-3.50009 0.00011,-7.00018 0.00016,-10.50026c-0.02298,-3.18094 -2.53477,-6.86901 -3.34359,-9.9832c-0.87983,-3.38761 -1.75967,-6.77522 -2.6395,-10.16283c-0.87983,-3.38761 -1.75967,-6.77522 -2.6395,-10.16283c-0.88141,-3.39367 -1.67239,-6.77422 -2.36013,-10.21245c-0.68649,-3.43202 -1.37298,-6.86403 -2.05948,-10.29605c-0.60323,-3.01577 -0.67122,-7.69618 -2.2556,-10.31358c-1.83391,-2.98107 -3.66782,-5.96214 -5.50174,-8.9432c-1.8373,-2.98658 -3.75794,-5.90741 -5.69906,-8.82742c-2.01239,-3.01409 -4.55697,-4.93273 -6.24765,-8.26639c-0.95611,-1.88523 -1.35742,-3.52797 -1.73672,-5.60453c-0.10928,-0.59825 -0.11349,-2.12201 -0.50571,-2.57751c-0.31498,-0.36581 -1.53785,-0.56254 -2.00077,-0.72096c-2.3311,-0.79772 -3.78087,-2.43551 -5.90889,-3.56067c-0.98436,-0.52047 -2.31661,-0.54011 -3.13112,-1.32376c-0.3093,-0.2908 -0.63245,-0.63443 -0.96666,-0.99728z" fill="url(#color-4)" stroke="url(#color-5)" stroke-width="0"/><path d="M-7,373.5v-387h361.70445c-0.37296,0.47761 -0.72669,0.94145 -1.03926,1.38857c-2.00534,2.86855 -4.01068,5.73711 -6.01602,8.60566c-2.00534,2.86855 -4.01068,5.73711 -6.01602,8.60566c-2.0048,2.86778 -4.13674,5.63399 -6.25629,8.41775c-2.12026,2.78469 -4.24052,5.56938 -6.36078,8.35407c-2.10586,2.76578 -4.08295,5.69193 -6.54044,8.15279c-2.47318,2.47657 -4.94636,4.95313 -7.41954,7.4297c-2.47429,2.47767 -4.97451,4.9316 -7.39008,7.46663c-2.41445,2.53386 -4.8289,5.06771 -7.24335,7.60157c-2.41445,2.53386 -4.8289,5.06771 -7.24335,7.60157c-2.45097,2.57218 -4.85648,4.90312 -7.65322,7.09659c-3.05346,2.39482 -4.87697,4.39744 -8.84726,4.40051c-3.05759,0.00238 -6.0013,4.22882 -8.12532,6.35161c-2.47559,2.47416 -4.95118,4.94831 -7.42677,7.42247c-2.47807,2.47664 -4.95315,4.95026 -7.36742,7.48926c-2.41179,2.53639 -4.82358,5.07278 -7.23537,7.60917c-2.41179,2.53639 -4.82358,5.07278 -7.23537,7.60917c-1.91049,2.00919 -4.50948,6.67248 -7.0683,7.45235c-2.62222,2.41376 -5.18185,4.63028 -8.07036,6.72461c-2.92718,2.12236 -5.24677,4.49025 -7.71251,7.12857c-2.38983,2.55709 -4.77965,5.11419 -7.16948,7.67128c-0.68166,0.72937 -1.48579,2.00639 -2.33525,2.51309c-0.93318,0.55665 -3.22694,0.22951 -3.93242,1.06858c-0.422,0.50191 -0.2535,2.4664 -0.30927,3.12937c-0.29342,3.48768 -0.58684,6.97536 -0.88026,10.46304c-0.29342,3.48768 -0.58684,6.97536 -0.88026,10.46304c-0.29231,3.47446 -1.05106,6.90479 -1.66736,10.33583c-0.61878,3.44487 -1.23756,6.88974 -1.85633,10.3346c-0.61878,3.44487 -1.23756,6.88974 -1.85633,10.3346c-0.61878,3.44487 -1.23756,6.88974 -1.85633,10.3346c-0.61878,3.44487 -1.23756,6.88974 -1.85633,10.3346c-0.61878,3.44487 -1.23756,6.88974 -1.85633,10.3346c-0.61878,3.44487 -1.23756,6.88974 -1.85633,10.3346c-0.61878,3.44487 -1.23756,6.88974 -1.85633,10.3346c-0.61859,3.44384 -1.22033,6.89107 -1.87834,10.32761c-0.6582,3.43755 -1.31639,6.87511 -1.97459,10.31266c-0.6582,3.43755 -1.31639,6.87511 -1.97459,10.31266c-0.6582,3.43755 -1.31639,6.87511 -1.97459,10.31266c-0.6582,3.43755 -1.31639,6.87511 -1.97459,10.31266c-0.66868,3.49231 -0.82818,6.91566 -0.99908,10.46444c-0.16835,3.49595 -0.33671,6.9919 -0.50506,10.48785c-0.16889,3.50716 -0.21867,6.99556 -0.22138,10.50662c-0.0027,3.5 -0.00541,7 -0.00811,10.5c-0.0027,3.50003 -0.00541,7.00006 -0.00811,10.50009c-0.0001,1.53128 -0.36516,3.58173 0.00725,5.06113c0.4091,1.62513 1.83001,3.41996 2.62659,4.90166c1.65687,3.08192 3.2652,6.18931 4.88439,9.29117c0.48965,0.93802 0.97931,1.87605 1.46896,2.81407z" fill="url(#color-6)" stroke="url(#color-7)" stroke-width="0"/><g stroke="none"><g fill="none" stroke-width="1" font-family="sans-serif" font-weight="normal" font-size="12" text-anchor="start"/><g stroke-width="0"><path d="M-5.24208,376.25325v-390.39039h155.90105v390.39039z" fill="url(#color-8)"/><path d="M571.60645,373.00998v-390.39039h155.90105v390.39039z" fill="url(#color-9)"/><path d="M-6.53234,110.48749v-127.62762h733.55954v127.62763z" fill="url(#color-10)"/><path d="M726.05205,249.75279v127.62762h-733.55954v-127.62762z" fill="url(#color-11)"/></g></g></g></g></svg>