<svg version="1.1" xmlns="http://www.w3.org/2000/svg" xmlns:xlink="http://www.w3.org/1999/xlink" width="680.20605" height="702.82152" viewBox="0,0,680.20605,702.82152"><defs><linearGradient x1="55.33277" y1="410.51029" x2="106.15899" y2="411.15118" gradientUnits="userSpaceOnUse" id="color-1"><stop offset="0" stop-color="#484c5e"/><stop offset="1" stop-color="#212d30"/></linearGradient><linearGradient x1="55.82103" y1="364.5201" x2="124.66159" y2="365.3881" gradientUnits="userSpaceOnUse" id="color-2"><stop offset="0" stop-color="#484c5e"/><stop offset="1" stop-color="#212d30"/></linearGradient><linearGradient x1="56.36359" y1="313.41594" x2="125.20415" y2="314.28393" gradientUnits="userSpaceOnUse" id="color-3"><stop offset="0" stop-color="#484c5e"/><stop offset="1" stop-color="#212d30"/></linearGradient><linearGradient x1="56.84585" y1="267.98999" x2="125.68641" y2="268.85799" gradientUnits="userSpaceOnUse" id="color-4"><stop offset="0" stop-color="#484c5e"/><stop offset="1" stop-color="#212d30"/></linearGradient><linearGradient x1="57.40852" y1="214.99302" x2="126.24907" y2="215.8611" gradientUnits="userSpaceOnUse" id="color-5"><stop offset="0" stop-color="#484c5e"/><stop offset="1" stop-color="#212d30"/></linearGradient><linearGradient x1="57.89077" y1="169.56715" x2="126.73133" y2="170.43516" gradientUnits="userSpaceOnUse" id="color-6"><stop offset="0" stop-color="#484c5e"/><stop offset="1" stop-color="#212d30"/></linearGradient><linearGradient x1="58.43334" y1="118.46292" x2="127.27389" y2="119.33101" gradientUnits="userSpaceOnUse" id="color-7"><stop offset="0" stop-color="#484c5e"/><stop offset="1" stop-color="#212d30"/></linearGradient><linearGradient x1="58.91559" y1="73.03705" x2="127.75615" y2="73.90497" gradientUnits="userSpaceOnUse" id="color-8"><stop offset="0" stop-color="#484c5e"/><stop offset="1" stop-color="#212d30"/></linearGradient><linearGradient x1="666.21182" y1="408.90772" x2="615.38561" y2="409.58836" gradientUnits="userSpaceOnUse" id="color-9"><stop offset="0" stop-color="#484c5e"/><stop offset="1" stop-color="#212d30"/></linearGradient><linearGradient x1="665.72356" y1="360.06557" x2="596.883" y2="360.9874" gradientUnits="userSpaceOnUse" id="color-10"><stop offset="0" stop-color="#484c5e"/><stop offset="1" stop-color="#212d30"/></linearGradient><linearGradient x1="665.181" y1="305.79233" x2="596.34044" y2="306.71414" gradientUnits="userSpaceOnUse" id="color-11"><stop offset="0" stop-color="#484c5e"/><stop offset="1" stop-color="#212d30"/></linearGradient><linearGradient x1="664.69875" y1="257.5494" x2="595.85818" y2="258.47123" gradientUnits="userSpaceOnUse" id="color-12"><stop offset="0" stop-color="#484c5e"/><stop offset="1" stop-color="#212d30"/></linearGradient><linearGradient x1="664.13608" y1="201.26598" x2="595.29552" y2="202.18786" gradientUnits="userSpaceOnUse" id="color-13"><stop offset="0" stop-color="#484c5e"/><stop offset="1" stop-color="#212d30"/></linearGradient><linearGradient x1="663.65382" y1="153.02311" x2="594.81326" y2="153.94496" gradientUnits="userSpaceOnUse" id="color-14"><stop offset="0" stop-color="#484c5e"/><stop offset="1" stop-color="#212d30"/></linearGradient><linearGradient x1="663.11126" y1="98.74981" x2="594.2707" y2="99.67172" gradientUnits="userSpaceOnUse" id="color-15"><stop offset="0" stop-color="#484c5e"/><stop offset="1" stop-color="#212d30"/></linearGradient><linearGradient x1="662.62901" y1="50.50699" x2="593.78844" y2="51.42873" gradientUnits="userSpaceOnUse" id="color-16"><stop offset="0" stop-color="#484c5e"/><stop offset="1" stop-color="#212d30"/></linearGradient><linearGradient x1="240.12168" y1="416.31639" x2="412.35631" y2="453.18065" gradientUnits="userSpaceOnUse" id="color-17"><stop offset="0" stop-color="#484c5e"/><stop offset="1" stop-color="#212d30"/></linearGradient><linearGradient x1="270.94111" y1="191.53356" x2="476.24479" y2="235.47576" gradientUnits="userSpaceOnUse" id="color-18"><stop offset="0" stop-color="#484c5e"/><stop offset="1" stop-color="#212d30"/></linearGradient><linearGradient x1="367.69206" y1="198.49554" x2="391.7477" y2="203.6443" gradientUnits="userSpaceOnUse" id="color-19"><stop offset="0" stop-color="#484c5e"/><stop offset="1" stop-color="#212d30"/></linearGradient><linearGradient x1="359.96818" y1="234.58249" x2="392.54991" y2="241.55612" gradientUnits="userSpaceOnUse" id="color-20"><stop offset="0" stop-color="#484c5e"/><stop offset="1" stop-color="#212d30"/></linearGradient><linearGradient x1="351.38544" y1="274.68219" x2="383.96716" y2="281.65583" gradientUnits="userSpaceOnUse" id="color-21"><stop offset="0" stop-color="#484c5e"/><stop offset="1" stop-color="#212d30"/></linearGradient><linearGradient x1="343.75633" y1="310.32639" x2="376.33805" y2="317.30001" gradientUnits="userSpaceOnUse" id="color-22"><stop offset="0" stop-color="#484c5e"/><stop offset="1" stop-color="#212d30"/></linearGradient><linearGradient x1="334.8557" y1="351.9113" x2="367.43742" y2="358.88493" gradientUnits="userSpaceOnUse" id="color-23"><stop offset="0" stop-color="#484c5e"/><stop offset="1" stop-color="#212d30"/></linearGradient><linearGradient x1="327.22659" y1="387.55545" x2="359.80832" y2="394.52909" gradientUnits="userSpaceOnUse" id="color-24"><stop offset="0" stop-color="#484c5e"/><stop offset="1" stop-color="#212d30"/></linearGradient><linearGradient x1="318.64384" y1="427.6552" x2="351.22556" y2="434.62884" gradientUnits="userSpaceOnUse" id="color-25"><stop offset="0" stop-color="#484c5e"/><stop offset="1" stop-color="#212d30"/></linearGradient><linearGradient x1="311.01474" y1="463.29936" x2="343.59647" y2="470.27299" gradientUnits="userSpaceOnUse" id="color-26"><stop offset="0" stop-color="#484c5e"/><stop offset="1" stop-color="#212d30"/></linearGradient><linearGradient x1="473.7468" y1="277.81044" x2="434.29494" y2="274.29112" gradientUnits="userSpaceOnUse" id="color-27"><stop offset="0" stop-color="#484c5e"/><stop offset="1" stop-color="#212d30"/></linearGradient><linearGradient x1="470.82475" y1="310.56707" x2="417.38995" y2="305.80044" gradientUnits="userSpaceOnUse" id="color-28"><stop offset="0" stop-color="#484c5e"/><stop offset="1" stop-color="#212d30"/></linearGradient><linearGradient x1="467.57776" y1="346.96616" x2="414.14297" y2="342.19949" gradientUnits="userSpaceOnUse" id="color-29"><stop offset="0" stop-color="#484c5e"/><stop offset="1" stop-color="#212d30"/></linearGradient><linearGradient x1="464.69157" y1="379.32087" x2="411.25677" y2="374.55423" gradientUnits="userSpaceOnUse" id="color-30"><stop offset="0" stop-color="#484c5e"/><stop offset="1" stop-color="#212d30"/></linearGradient><linearGradient x1="461.32432" y1="417.06807" x2="407.88953" y2="412.3014" gradientUnits="userSpaceOnUse" id="color-31"><stop offset="0" stop-color="#484c5e"/><stop offset="1" stop-color="#212d30"/></linearGradient><linearGradient x1="458.43813" y1="449.42278" x2="405.00333" y2="444.65615" gradientUnits="userSpaceOnUse" id="color-32"><stop offset="0" stop-color="#484c5e"/><stop offset="1" stop-color="#212d30"/></linearGradient><linearGradient x1="455.19114" y1="485.82187" x2="401.75635" y2="481.0552" gradientUnits="userSpaceOnUse" id="color-33"><stop offset="0" stop-color="#484c5e"/><stop offset="1" stop-color="#212d30"/></linearGradient><linearGradient x1="452.30492" y1="518.17657" x2="398.87016" y2="513.40995" gradientUnits="userSpaceOnUse" id="color-34"><stop offset="0" stop-color="#484c5e"/><stop offset="1" stop-color="#212d30"/></linearGradient><linearGradient x1="252.75024" y1="230.50941" x2="290.1863" y2="243.44681" gradientUnits="userSpaceOnUse" id="color-35"><stop offset="0" stop-color="#484c5e"/><stop offset="1" stop-color="#212d30"/></linearGradient><linearGradient x1="242.00839" y1="261.59233" x2="292.71291" y2="279.11517" gradientUnits="userSpaceOnUse" id="color-36"><stop offset="0" stop-color="#484c5e"/><stop offset="1" stop-color="#212d30"/></linearGradient><linearGradient x1="230.07208" y1="296.13156" x2="280.7766" y2="313.6544" gradientUnits="userSpaceOnUse" id="color-37"><stop offset="0" stop-color="#484c5e"/><stop offset="1" stop-color="#212d30"/></linearGradient><linearGradient x1="219.46201" y1="326.83313" x2="270.16653" y2="344.35597" gradientUnits="userSpaceOnUse" id="color-38"><stop offset="0" stop-color="#484c5e"/><stop offset="1" stop-color="#212d30"/></linearGradient><linearGradient x1="207.08362" y1="362.65163" x2="257.78815" y2="380.17444" gradientUnits="userSpaceOnUse" id="color-39"><stop offset="0" stop-color="#484c5e"/><stop offset="1" stop-color="#212d30"/></linearGradient><linearGradient x1="196.47356" y1="393.35316" x2="247.17808" y2="410.876" gradientUnits="userSpaceOnUse" id="color-40"><stop offset="0" stop-color="#484c5e"/><stop offset="1" stop-color="#212d30"/></linearGradient><linearGradient x1="184.53725" y1="427.89243" x2="235.24178" y2="445.41523" gradientUnits="userSpaceOnUse" id="color-41"><stop offset="0" stop-color="#484c5e"/><stop offset="1" stop-color="#212d30"/></linearGradient><linearGradient x1="173.92719" y1="458.59396" x2="224.63171" y2="476.1168" gradientUnits="userSpaceOnUse" id="color-42"><stop offset="0" stop-color="#484c5e"/><stop offset="1" stop-color="#212d30"/></linearGradient><linearGradient x1="305.93206" y1="304.22616" x2="399.66136" y2="324.28753" gradientUnits="userSpaceOnUse" id="color-43"><stop offset="0" stop-color="#484c5e"/><stop offset="1" stop-color="#212d30"/></linearGradient><linearGradient x1="449.1033" y1="296.33299" x2="391.86404" y2="284.08177" gradientUnits="userSpaceOnUse" id="color-44"><stop offset="0" stop-color="#484c5e"/><stop offset="1" stop-color="#212d30"/></linearGradient><linearGradient x1="272.66309" y1="264.34198" x2="329.90235" y2="276.59319" gradientUnits="userSpaceOnUse" id="color-45"><stop offset="0" stop-color="#484c5e"/><stop offset="1" stop-color="#212d30"/></linearGradient><radialGradient cx="262.43075" cy="215.20519" r="112.37286" gradientUnits="userSpaceOnUse" id="color-46"><stop offset="0" stop-color="#ffffff" stop-opacity="0.43529"/><stop offset="1" stop-color="#ffffff" stop-opacity="0"/></radialGradient><linearGradient x1="162.76414" y1="267.11124" x2="362.09732" y2="163.29916" gradientUnits="userSpaceOnUse" id="color-47"><stop offset="0" stop-color="#484c5e"/><stop offset="1" stop-color="#212d30"/></linearGradient><linearGradient x1="246.4988" y1="223.0262" x2="278.72183" y2="206.24456" gradientUnits="userSpaceOnUse" id="color-48"><stop offset="0" stop-color="#484c5e"/><stop offset="1" stop-color="#212d30"/></linearGradient><radialGradient cx="384.94932" cy="155.74191" r="112.37286" gradientUnits="userSpaceOnUse" id="color-49"><stop offset="0" stop-color="#ffffff" stop-opacity="0.43529"/><stop offset="1" stop-color="#ffffff" stop-opacity="0"/></radialGradient><linearGradient x1="285.28275" y1="207.64792" x2="484.61591" y2="103.83589" gradientUnits="userSpaceOnUse" id="color-50"><stop offset="0" stop-color="#484c5e"/><stop offset="1" stop-color="#212d30"/></linearGradient><linearGradient x1="369.01737" y1="163.56291" x2="401.24041" y2="146.78126" gradientUnits="userSpaceOnUse" id="color-51"><stop offset="0" stop-color="#484c5e"/><stop offset="1" stop-color="#212d30"/></linearGradient></defs><g transform="translate(-20.66927,89.85191)"><g stroke-miterlimit="10"><g fill="none" stroke-width="3.25" stroke-linecap="round"><path d="M55.5783,387.38418c0,0 31.88218,-1.0902 44.50005,-1.52158c9.33843,-0.31933 7.93086,11.1821 -1.90819,18.37152c-8.2408,6.02151 -24.14006,17.63921 -34.15535,24.95737c-5.29823,3.87143 -2.87213,6.61629 1.83047,6.67554c8.90188,0.11228 38.62921,0.48711 38.62921,0.48711" stroke="url(#color-1)"/><path d="M56.06061,341.95816c0,0 31.88223,-1.0902 44.50004,-1.52167c9.33843,-0.31927 7.93086,11.18217 -1.90818,18.37152c-12.60031,9.20701 -43.10516,31.49703 -43.10516,31.49703" stroke="url(#color-2)"/><path d="M56.60312,290.854c0,0 31.88223,-1.0902 44.50005,-1.52158c9.33843,-0.31927 7.93085,11.18217 -1.90819,18.37152c-12.60031,9.20701 -43.10516,31.49703 -43.10516,31.49703" stroke="url(#color-3)"/><path d="M57.08543,245.42808c0,0 31.88223,-1.0902 44.50005,-1.52158c9.33843,-0.31927 7.93085,11.18217 -1.90819,18.37152c-12.60031,9.20701 -43.10516,31.49703 -43.10516,31.49703" stroke="url(#color-4)"/><path d="M57.64804,192.43117c0,0 31.88223,-1.0902 44.50004,-1.52167c9.33843,-0.31927 7.93086,11.18225 -1.90818,18.3716c-12.60031,9.20701 -43.10516,31.49703 -43.10516,31.49703" stroke="url(#color-5)"/><path d="M58.13035,147.00523c0,0 31.88223,-1.0902 44.50005,-1.52167c9.33843,-0.31927 7.93086,11.18217 -1.90818,18.37152c-12.60031,9.20701 -43.10517,31.49703 -43.10517,31.49703" stroke="url(#color-6)"/><path d="M58.67286,95.90107c0,0 31.88223,-1.0902 44.50005,-1.52158c9.33843,-0.31927 7.93085,11.18217 -1.90819,18.37152c-12.60031,9.20701 -43.10516,31.49709 -43.10516,31.49709" stroke="url(#color-7)"/><path d="M59.15517,50.47513c0,0 31.88223,-1.0902 44.50005,-1.52158c9.33843,-0.31927 7.93085,11.18217 -1.90819,18.37152c-12.60031,9.20701 -43.10516,31.49703 -43.10516,31.49703" stroke="url(#color-8)"/></g><path d="M38.49488,36.97775c-4.68434,-17.07174 -31.70144,-73.08674 6.64436,-82.56975c39.58293,-9.78893 44.12161,49.50232 54.2833,46.72217c13.13656,-3.59403 3.62524,-14.33841 11.15548,-10.61275c20.95938,10.36986 7.64552,37.34858 9.02771,42.38593c2.94357,10.72772 32.77133,30.28672 23.40582,36.3766c-5.53849,3.60136 -47.15613,-3.84634 -55.47953,-3.42824c-5.43594,0.27308 -57.29021,31.88384 -62.43334,30.64313c-16.04865,-3.87147 16.9437,-46.58851 13.39621,-59.51705z" fill="#0d0d0d" stroke="#000000" stroke-width="0" stroke-linecap="butt"/><g fill="none" stroke-width="3.25" stroke-linecap="round"><path d="M617.07011,436.35413c0,0 29.72733,-0.39807 38.6292,-0.51732c4.7026,-0.06299 7.12869,-2.97801 1.83047,-7.08951c-10.01528,-7.77199 -25.91455,-20.11011 -34.15535,-26.50505c-9.83905,-7.63526 -11.24662,-19.84993 -1.90819,-19.51078c12.61786,0.45816 44.50005,1.61594 44.50005,1.61594" stroke="url(#color-9)"/><path d="M665.99729,387.44958c0,0 -30.50486,-23.67226 -43.10517,-33.45023c-9.83904,-7.63518 -11.24661,-19.84985 -1.90818,-19.51078c12.61782,0.45816 44.50005,1.61603 44.50005,1.61603" stroke="url(#color-10)"/><path d="M665.45477,333.17634c0,0 -30.50486,-23.67218 -43.10516,-33.45023c-9.83904,-7.63518 -11.24661,-19.84985 -1.90819,-19.51078c12.61782,0.45816 44.50005,1.61594 44.50005,1.61594" stroke="url(#color-11)"/><path d="M664.97247,284.93343c0,0 -30.50486,-23.67218 -43.10516,-33.45023c-9.83904,-7.63518 -11.24661,-19.84985 -1.90819,-19.51078c12.61782,0.45816 44.50005,1.61594 44.50005,1.61594" stroke="url(#color-12)"/><path d="M664.40985,228.65006c0,0 -30.50485,-23.67218 -43.10516,-33.45023c-9.83904,-7.63518 -11.24661,-19.84993 -1.90819,-19.51086c12.61782,0.45816 44.50005,1.61603 44.50005,1.61603" stroke="url(#color-13)"/><path d="M663.92755,180.40706c0,0 -30.50486,-23.67226 -43.10517,-33.45023c-9.83904,-7.63518 -11.2466,-19.84985 -1.90818,-19.51078c12.61782,0.45816 44.50005,1.61603 44.50005,1.61603" stroke="url(#color-14)"/><path d="M663.38503,126.1339c0,0 -30.50486,-23.67226 -43.10516,-33.4503c-9.83904,-7.63518 -11.24661,-19.84985 -1.90819,-19.51078c12.61782,0.45816 44.50005,1.61594 44.50005,1.61594" stroke="url(#color-15)"/><path d="M662.90273,77.89092c0,0 -30.50486,-23.67218 -43.10516,-33.45023c-9.83904,-7.63518 -11.24661,-19.84985 -1.90819,-19.51078c12.61782,0.45816 44.50005,1.61594 44.50005,1.61594" stroke="url(#color-16)"/></g><path d="M683.04971,20.46129c-3.54749,12.92854 29.44486,55.64558 13.39621,59.51705c-5.14314,1.24072 -56.99741,-30.37005 -62.43335,-30.64312c-8.3234,-0.41809 -49.94104,7.0296 -55.47953,3.42824c-9.36551,-6.08987 20.46224,-25.64888 23.40582,-36.3766c1.38219,-5.03735 -11.93166,-32.01607 9.02771,-42.38593c7.53025,-3.72566 -1.98108,7.01872 11.15548,10.61275c10.16169,2.78015 14.70037,-56.51111 54.2833,-46.72217c38.34579,9.48301 11.3287,65.49801 6.64436,82.56975z" fill="#0d0d0d" stroke="#000000" stroke-width="0" stroke-linecap="butt"/><path d="M412.35627,453.18064c-0.4744,2.21645 -25.55831,-3.34457 -48.8356,-19.10658c-10.68819,-7.23741 -11.25108,-27.61753 -26.21758,-30.82088c-16.96299,-3.63067 -21.74275,15.04393 -36.5479,18.52527c-26.70588,6.2797 -58.51888,1.48954 -58.07354,-0.59114c0.69223,-3.23417 58.85193,-103.40402 106.41317,-93.22424c47.56129,10.17978 63.95368,121.9834 63.26146,125.21758z" fill="#4c1212" stroke="url(#color-17)" stroke-width="0" stroke-linecap="butt"/><path d="M476.24479,235.47576c-0.50899,2.37807 -49.28323,29.25926 -105.97626,17.12496c-56.69303,-12.1343 -96.46421,-52.56356 -95.95522,-54.94163c0.25128,-1.174 49.49646,14.63253 99.33636,23.95086c51.1161,9.55692 102.85279,12.66177 102.59509,13.86581z" fill="#4c1212" stroke="url(#color-18)" stroke-width="0" stroke-linecap="butt"/><g fill="none" stroke-width="3.25" stroke-linecap="round"><path d="M395.31292,183.71089c0,0 -14.0697,-3.01141 -18.28289,-3.91318c-2.22573,-0.47638 -3.84339,1.40445 -2.01689,5.02671c3.45264,6.84721 8.93375,17.71712 11.77466,23.35117c3.39189,6.7267 2.06588,15.89441 -2.27837,14.60598c-5.8698,-1.7409 -20.70132,-6.13972 -20.70132,-6.13972" stroke="url(#color-19)"/><path d="M364.29867,214.34988c0,0 10.51619,20.85541 14.86001,29.46993c3.39189,6.7267 2.06588,15.89438 -2.27836,14.60598c-5.8698,-1.7409 -20.70132,-6.13972 -20.70132,-6.13972" stroke="url(#color-20)"/><path d="M355.71593,254.44959c0,0 10.5162,20.85542 14.86001,29.46993c3.39189,6.7267 2.06588,15.89438 -2.27836,14.60598c-5.8698,-1.7409 -20.70132,-6.13972 -20.70132,-6.13972" stroke="url(#color-21)"/><path d="M348.08681,290.09379c0,0 10.5162,20.85541 14.86001,29.46993c3.39189,6.72669 2.06589,15.89438 -2.27836,14.60598c-5.8698,-1.7409 -20.70133,-6.13972 -20.70133,-6.13972" stroke="url(#color-22)"/><path d="M339.18619,331.67866c0,0 10.51619,20.85542 14.86001,29.46993c3.39189,6.7267 2.06588,15.89438 -2.27836,14.60598c-5.8698,-1.7409 -20.70132,-6.13972 -20.70132,-6.13972" stroke="url(#color-23)"/><path d="M331.55708,367.32285c0,0 10.5162,20.85542 14.86001,29.46993c3.39189,6.7267 2.06588,15.89438 -2.27837,14.60598c-5.8698,-1.7409 -20.70132,-6.13972 -20.70132,-6.13972" stroke="url(#color-24)"/><path d="M322.97434,407.42256c0,0 10.51619,20.85542 14.86001,29.46994c3.39189,6.7267 2.06589,15.89437 -2.27836,14.60598c-5.8698,-1.7409 -20.70132,-6.13972 -20.70132,-6.13972" stroke="url(#color-25)"/><path d="M315.34523,443.06675c0,0 10.51619,20.85542 14.86001,29.46994c3.39189,6.7267 2.06588,15.89438 -2.27836,14.60598c-5.8698,-1.7409 -20.70132,-6.13972 -20.70132,-6.13972" stroke="url(#color-26)"/></g><g><g fill="none" stroke-width="3.25" stroke-linecap="round"><path d="M472.27744,294.28211c0,0 -24.82979,-1.14382 -34.65657,-1.5965c-7.27276,-0.33502 -5.54332,-8.4495 2.49817,-12.98192c6.73526,-3.79619 19.72986,-11.12034 27.91546,-15.73395c4.33028,-2.44067 2.59719,-4.54363 -1.05302,-4.86925c-6.90973,-0.61638 -29.98442,-2.67474 -29.98442,-2.67474" stroke="url(#color-27)"/><path d="M469.39125,326.63682c0,0 -24.82981,-1.14378 -34.65658,-1.59647c-7.27276,-0.33502 -5.54331,-8.4495 2.49822,-12.98194c10.29832,-5.80443 35.23017,-19.85676 35.23017,-19.85676" stroke="url(#color-28)"/><path d="M466.14426,363.03591c0,0 -24.8298,-1.14382 -34.65658,-1.59651c-7.27276,-0.33502 -5.54331,-8.44949 2.49821,-12.98191c10.29832,-5.80442 35.23017,-19.85676 35.23017,-19.85676" stroke="url(#color-29)"/><path d="M463.25807,395.39062c0,0 -24.82981,-1.14378 -34.65658,-1.59647c-7.27276,-0.33502 -5.54331,-8.4495 2.49818,-12.98196c10.29832,-5.80442 35.23017,-19.85676 35.23017,-19.85676" stroke="url(#color-30)"/><path d="M459.89083,433.13779c0,0 -24.82981,-1.14378 -34.65658,-1.59647c-7.27276,-0.33502 -5.54331,-8.4495 2.49821,-12.98191c10.29832,-5.80442 35.23017,-19.85677 35.23017,-19.85677" stroke="url(#color-31)"/><path d="M457.00463,465.49254c0,0 -24.82981,-1.14378 -34.65658,-1.59647c-7.27276,-0.33502 -5.54331,-8.4495 2.49822,-12.98194c10.29832,-5.80442 35.23017,-19.85677 35.23017,-19.85677" stroke="url(#color-32)"/><path d="M453.75765,501.89163c0,0 -24.82981,-1.14378 -34.65658,-1.59647c-7.27276,-0.33502 -5.54331,-8.44949 2.49821,-12.98191c10.29832,-5.80443 35.23017,-19.85677 35.23017,-19.85677" stroke="url(#color-33)"/><path d="M450.87146,534.24634c0,0 -24.82981,-1.14378 -34.65658,-1.59647c-7.27276,-0.33502 -5.54331,-8.4495 2.49822,-12.98195c10.29832,-5.80442 35.23017,-19.85676 35.23017,-19.85676" stroke="url(#color-34)"/></g><path d="M459.57555,612.55927c-31.34211,5.22011 -31.29577,-41.11721 -39.35798,-39.56957c-10.42246,2.00075 -3.68044,10.92118 -9.30623,7.57297c-15.65868,-9.31933 -3.6895,-29.47707 -4.45982,-33.47391c-1.64051,-8.51178 -23.63548,-25.50455 -15.99237,-29.67151c4.51993,-2.4642 36.40422,5.82955 42.89592,6.00624c4.23964,0.11541 46.43032,-21.31886 50.35132,-20.04509c12.23505,3.97478 -15.97077,35.17412 -13.99371,45.43211c2.61068,13.54542 20.22544,58.69183 -10.13709,63.74877z" fill="#0d0d0d" stroke="#000000" stroke-width="0" stroke-linecap="butt"/></g><g><g fill="none" stroke-width="3.25" stroke-linecap="round"><path d="M295.03357,226.0405c0,0 -21.89567,-7.56687 -28.45234,-9.83278c-3.46371,-1.19701 -5.90573,0.01232 -2.95385,4.01164c5.57999,7.55995 14.43824,19.56135 19.02958,25.78184c5.4818,7.42692 3.73832,15.53839 -3.03441,12.86718c-9.15117,-3.60921 -32.27384,-12.72895 -32.27384,-12.72895" stroke="url(#color-35)"/><path d="M248.03097,244.16529c0,0 16.99571,23.02631 24.01595,32.53752c5.48181,7.42688 3.73833,15.53836 -3.03441,12.86718c-9.15112,-3.60924 -32.27384,-12.72895 -32.27384,-12.72895" stroke="url(#color-36)"/><path d="M236.09463,278.70452c0,0 16.99572,23.02631 24.01595,32.53751c5.48181,7.42688 3.73833,15.53836 -3.03441,12.86718c-9.15112,-3.60924 -32.27384,-12.72895 -32.27384,-12.72895" stroke="url(#color-37)"/><path d="M225.48459,309.40609c0,0 16.99571,23.02631 24.01595,32.53752c5.48181,7.42688 3.73834,15.53835 -3.0344,12.86718c-9.15112,-3.60924 -32.27384,-12.72895 -32.27384,-12.72895" stroke="url(#color-38)"/><path d="M213.10617,345.22455c0,0 16.99571,23.02631 24.01595,32.53751c5.48181,7.42688 3.73833,15.53836 -3.03441,12.86718c-9.15112,-3.60924 -32.27383,-12.72895 -32.27383,-12.72895" stroke="url(#color-39)"/><path d="M202.49614,375.92612c0,0 16.99571,23.02631 24.01595,32.53751c5.48181,7.42688 3.73834,15.53836 -3.0344,12.86719c-9.15113,-3.60924 -32.27384,-12.72895 -32.27384,-12.72895" stroke="url(#color-40)"/><path d="M190.5598,410.46535c0,0 16.99572,23.02631 24.01595,32.53752c5.48181,7.42688 3.73834,15.53836 -3.0344,12.86718c-9.15113,-3.60924 -32.27384,-12.72895 -32.27384,-12.72895" stroke="url(#color-41)"/><path d="M179.94977,441.16692c0,0 16.99571,23.02631 24.01594,32.53752c5.48181,7.42688 3.73834,15.53836 -3.0344,12.86719c-9.15113,-3.60924 -32.27384,-12.72896 -32.27384,-12.72896" stroke="url(#color-42)"/></g><path d="M145.50548,479.41879c6.00269,-8.55008 -6.96161,-48.56127 5.82849,-47.17976c4.09887,0.44272 33.8198,37.2686 37.73527,38.89872c5.99529,2.49597 38.48109,7.97967 41.59634,12.07807c5.26785,6.93036 -21.75559,13.43147 -26.73642,20.52608c-2.33882,3.33138 0.33081,26.62238 -17.77061,28.71582c-6.50344,0.75213 3.29925,-4.6272 -5.39117,-10.71873c-6.72241,-4.71208 -25.64687,37.58466 -52.10645,19.99296c-25.6326,-17.0419 8.91818,-51.02301 16.84454,-62.31313z" fill="#0d0d0d" stroke="#000000" stroke-width="0" stroke-linecap="butt"/></g><path d="M310.3093,263.84596c2.38189,-11.12849 -17.13818,-38.39056 -13.17217,-42.9442c4.99892,-5.73962 33.92399,12.82517 41.11961,13.3914c8.76934,0.69007 19.03739,4.34888 30.48119,6.79825c11.96991,2.56198 23.83201,3.93795 32.84826,7.87532c5.38581,2.35197 36.49905,0.1741 39.27034,5.15276c3.55173,6.38073 -22.26598,21.01849 -25.19583,34.70708c-4.8641,22.72571 -14.52783,73.21334 -31.29084,95.59318c-14.40139,19.22689 -35.30905,12.46893 -48.37927,9.67145c-10.98464,-2.3511 -35.21053,-11.90632 -39.97836,-30.37966c-7.50857,-29.09271 8.76614,-74.0245 14.29704,-99.8656z" fill="#dadada" stroke="#000000" stroke-width="0" stroke-linecap="butt"/><path d="M305.93206,304.22616c6.74804,-31.52772 33.20044,-52.59512 59.08307,-47.05533c25.88263,5.53979 41.39427,35.58898 34.64623,67.1167c-6.74804,31.52773 -33.20043,52.59513 -59.08306,47.05534c-25.88263,-5.53979 -41.39428,-35.58898 -34.64624,-67.1167z" fill="#ababab" stroke="url(#color-43)" stroke-width="0" stroke-linecap="butt"/><path d="M377.14672,401.18113c2.59393,-46.96564 38.51817,-147.42822 46.8087,-159.0752c13.89127,-19.51519 36.27353,-13.17306 54.10893,-7.66665c10.46408,3.23062 -31.7194,82.46582 -64.93059,132.18254c-15.80815,23.6646 2.12553,87.83466 2.12553,87.83466c0,0 -40.71057,-6.23701 -38.11259,-53.27535z" fill="#801d1d" stroke="url(#color-44)" stroke-width="0" stroke-linecap="butt"/><path d="M238.81912,422.46544c0,0 42.62859,-51.20762 37.89171,-79.26957c-9.9516,-58.95508 -16.00699,-148.51509 -5.1373,-147.17953c18.52676,2.27641 41.54411,5.65136 46.23041,29.14279c2.79688,14.02008 -5.54739,120.38574 -22.40465,164.29853c-16.88331,43.98075 -56.58021,33.00777 -56.58021,33.00777z" fill="#801d1d" stroke="url(#color-45)" stroke-width="0" stroke-linecap="butt"/><g stroke-width="0" stroke-linecap="butt"><g stroke="#000000"><path d="M421.32908,397.63424l-33.5939,-69.82457l16.53079,-7.95325l33.59392,69.82456z" fill="#2f323e"/><path d="M374.58319,329.94878c-14.24676,-8.85179 -37.67928,-54.81681 -37.67928,-54.81681l56.05796,-27.61258c0,0 19.34842,46.15883 20.2385,62.16992c0.60015,10.79613 -9.71891,14.38927 -16.89469,17.84164c-5.34697,2.57247 -15.69032,6.16557 -21.72236,2.41769z" fill="#2f323e"/><g><path d="M467.83288,153.03587c-10.76464,-12.3476 -20.68645,-16.76018 -29.02549,-26.11888c-7.86874,-8.83092 -14.26204,-22.75847 -20.77743,-29.34735c-16.10176,-16.28337 -28.56684,-26.74235 -34.62952,-39.42315c-3.78553,-7.91801 -2.80581,-24.34025 -3.95648,-31.98257c-1.2591,-8.36275 20.81858,-20.05058 37.54156,-19.86096c14.55933,0.16507 22.36582,10.8779 41.44388,20.97978c8.53468,4.5191 30.98787,14.19282 39.39665,20.77335c13.94628,10.91416 16.04424,21.25365 25.40293,34.79436c7.84124,11.34514 27.14973,24.36417 36.64194,37.3917c4.43007,6.07994 0.13309,12.20159 3.50556,18.08338c4.07134,7.10069 23.39072,26.46741 26.7019,33.02931c9.40259,18.6336 5.69635,27.57877 8.2604,40.73758c3.04324,15.61756 25.52313,41.32328 24.16269,52.01979c-1.98736,15.6264 -23.2905,28.69419 -31.30978,33.29224c-7.87293,4.51412 -14.77601,17.50379 -27.30888,12.5063c-9.69729,-3.86684 -23.72275,-18.31399 -37.08158,-34.94828c-7.96138,-9.91332 -11.80903,-8.31354 -19.97289,-21.02696c-4.87462,-7.59107 -13.7339,-28.10807 -19.15229,-37.5582c-9.14335,-15.94656 4.63821,-35.26001 -19.84319,-63.34163z" fill="#a3a3a3"/><path d="M395.60046,34.1109c5.74997,-4.8999 20.0935,2.48968 32.03705,16.50527c11.94364,14.01556 16.96458,29.3496 11.21465,34.24954c-5.74997,4.8999 -20.09348,-2.48967 -32.03712,-16.50526c-11.94364,-14.01556 -16.96456,-29.34961 -11.21465,-34.24961z" fill="#0d0d0d"/></g><path d="M408.98395,46.3682c4.57873,-0.37756 10.81049,3.98405 14.00412,7.41318c2.29064,2.45967 6.06946,7.67768 6.26195,10.79642c1.17347,19.00638 -34.84531,43.81316 -48.80502,28.82364c-13.05671,-14.01994 9.81925,-45.48938 28.5389,-47.03322z" fill="#2f323e"/><g><path d="M265.70331,330.17551c4.00255,10.13133 14.50509,29.85761 17.39444,38.40379c4.83904,14.31306 1.18768,16.32112 3.9654,28.72854c4.66075,20.81915 7.19654,40.79421 4.16613,50.7845c-3.91643,12.91157 -18.37429,10.19903 -26.81465,13.53359c-8.59736,3.39654 -32.10274,11.887 -45.55304,3.68789c-9.20697,-5.61248 -15.26367,-39.21966 -25.56755,-51.34392c-8.68167,-10.21548 -17.98408,-12.90201 -26.67605,-31.87743c-3.06093,-6.68224 -6.13686,-33.86408 -9.14431,-41.47652c-2.49121,-6.30582 -9.9561,-6.76865 -11.9421,-14.02443c-4.25553,-15.54703 -2.37838,-38.75892 -6.34965,-51.96593c-4.73988,-15.76299 -11.50952,-23.85474 -11.33403,-41.5632c0.10578,-10.67714 6.55935,-34.25839 8.35445,-43.74732c4.01264,-21.21127 0.51381,-33.99651 9.4709,-45.47589c10.28817,-13.18526 33.19861,-23.14201 38.94728,-16.93924c5.25351,5.66846 18.69681,15.15152 22.52109,23.05073c6.12489,12.65086 6.51811,28.9178 9.1928,51.66117c1.08229,9.20276 7.97502,22.89003 9.96454,34.54964c2.10846,12.35634 -0.6356,22.86275 2.29457,38.9796c6.66394,36.6538 30.35559,37.93822 37.10971,55.03431z" fill="#a3a3a3"/><path d="M200.51007,174.62034c3.4977,18.07909 0.32044,33.8983 -7.09666,35.33322c-7.41711,1.43489 -16.26519,-12.05777 -19.76289,-30.13676c-3.4977,-18.07909 -0.32043,-33.89831 7.09668,-35.33322c7.41711,-1.43489 16.26519,12.05782 19.7629,30.13676z" fill="#0d0d0d"/></g><path d="M236.53302,169.64297c3.00061,20.26209 -38.86092,32.92501 -52.97961,20.14685c-2.31675,-2.09677 -4.03571,-8.30574 -4.52812,-11.6306c-0.68638,-4.63538 -0.2054,-12.22673 2.94709,-15.56872c12.8887,-13.66353 51.75401,-11.89896 54.56055,7.05248z" fill="#2f323e"/><path d="M495.83647,224.9018c1.61918,3.3654 -46.62986,55.97704 -106.31995,84.69183c-59.59885,28.67093 -130.63635,33.4503 -132.25304,30.09009c-1.61118,-3.34877 67.40414,-11.29647 126.79139,-39.88595c59.88369,-28.82849 110.15692,-78.27269 111.78151,-74.89583z" fill="#686e88"/><path d="M494.15842,223.63925c4.49136,9.3354 68.08171,168.87603 -39.28255,220.53097c-107.36424,51.65491 -197.30668,-101.62602 -201.79815,-110.96139c-4.49136,-9.3354 78.16911,128.81 185.53335,77.15506c107.36424,-51.65491 51.05597,-196.06001 55.54742,-186.72467z" fill="#dadada"/><path d="M392.87544,350.89745l-31.90896,-66.3224l24.89706,-11.97839l31.90896,66.32239z" fill="#24262f"/><path d="M208.78279,265.1324c-34.27166,-71.2333 -4.30825,-156.7618 66.92493,-191.03353c71.23323,-34.27164 156.76186,-4.30837 191.03353,66.92493c34.27162,71.2332 -223.68677,195.34183 -257.9584,124.10857z" fill="#dadada"/><path d="M228.31532,241.18463c-14.74111,-30.63919 -1.85309,-67.42708 28.786,-82.16818c30.63919,-14.74111 67.42715,-1.85319 82.16818,28.786c14.74111,30.6392 1.85306,67.42708 -28.78613,82.16819c-30.6392,14.74111 -67.42705,1.85309 -82.16814,-28.78604z" fill="#000000"/><path d="M319.62864,199.91823c-14.74111,-30.63919 -1.85321,-67.42714 28.786,-82.16818c30.6392,-14.74111 67.42708,-1.85307 82.16818,28.78601c14.74111,30.6392 1.85317,67.42702 -28.78604,82.16814c-30.63919,14.74111 -67.42704,1.85318 -82.16818,-28.786z" fill="#000000"/><path d="M491.96037,147.03611c8.59107,18.46795 -6.96578,90.01949 -115.20365,142.09463c-108.23773,52.07523 -171.34595,14.7595 -180.42445,-3.47384c-28.13374,-56.50366 40.20789,-10.91861 148.44561,-62.99381c108.23773,-52.07523 119.47753,-135.18333 147.18241,-75.62709z" fill="#ababab"/><path d="M311.14957,255.23373c-23.33646,-48.50456 -52.46985,-173.03919 -37.79084,-180.10154c14.67905,-7.06234 93.60924,81.18077 116.94567,129.68534c23.33646,48.50456 -55.8184,98.92073 -79.1548,50.41627z" fill="#ababab"/><path d="M390.72608,197.77867c1.72582,3.58701 2.1991,55.59651 -23.05948,67.74891c-25.25858,12.15238 -66.68429,-20.1541 -68.41014,-23.74116c-1.72582,-3.58701 89.74385,-47.59475 91.46959,-44.00777z" fill="#1d1d1d"/><g><path d="M320.07804,-84.23634c7.75332,16.11509 -29.86721,50.30277 -84.02779,76.36044c-54.16053,26.05763 -104.35152,34.11767 -112.10482,18.00265c-1.28238,-2.66555 -3.94736,-11.08582 4.15166,-17.17902c31.28766,-23.53905 128.40521,-69.46634 172.77113,-81.178c13.57977,-3.58482 17.69331,0.84206 19.20972,3.99396z" fill="#101010"/><path d="M320.18449,-81.37395c16.666,34.64009 39.07146,92.35984 13.6512,133.15003c-18.0478,28.9601 -78.31219,45.57658 -100.79641,56.39413c-54.15323,26.05416 -80.46262,-35.96001 -108.96113,-95.19376c-10.25926,-21.32373 15.08256,-9.25775 44.74054,-30.87991c24.83271,-18.10427 68.41517,-24.74038 92.61469,-43.41619c27.18293,-20.97825 49.10192,-40.10992 58.7511,-20.05435z" fill="#0d0d0d"/></g><g><path d="M397.61043,10.19059c1.81694,3.77636 -52.22596,33.54726 -120.70791,66.4952c-68.48198,32.94795 -125.47041,56.59626 -127.28732,52.81992c-1.81695,-3.77635 52.22596,-33.54726 120.70791,-66.4952c68.48198,-32.94795 125.47041,-56.59626 127.28733,-52.81992z" fill="#101010"/><path d="M396.5724,11.37271c3.90546,8.11729 4.66847,23.80201 -38.96741,51.4885c-30.98043,19.65681 -102.19893,51.02084 -130.62868,64.69902c-68.47289,32.94356 -71.6879,16.99222 -78.3661,3.11173c-2.40409,-4.99685 31.16111,-10.97436 71.62079,-32.16329c33.87699,-17.74162 79.57663,-35.01037 113.00565,-52.74172c37.55025,-19.91736 61.07456,-39.09394 63.33573,-34.39423z" fill="#0d0d0d"/></g><path d="M354.32882,6.56731c1.47355,3.06263 8.39414,11.51537 2.08083,17.63595c-5.34724,5.18392 -15.73827,9.61913 -27.32564,16.47006c-11.8792,7.02345 -25.06696,16.47903 -39.59633,23.09138c-7.33571,3.33842 -14.4995,2.51142 -21.79706,6.02246c-11.01443,5.29923 -22.78008,13.87751 -35.65988,19.35215c-11.18574,4.75446 -23.55788,6.44894 -32.69398,10.58917c-11.34821,5.14269 -17.05244,10.58796 -24.13359,11.93535c-11.93983,2.27196 -9.20525,-9.94772 -10.97868,-13.63374c-1.48694,-3.09054 -10.55911,-12.59766 -4.1256,-18.79563c5.9604,-5.74207 16.66051,-15.1744 31.46941,-21.23616c10.79274,-4.41777 24.6167,-5.28121 36.20546,-10.29514c8.98638,-3.88806 14.29415,-8.66148 23.08901,-12.89286c8.81079,-4.23902 18.52483,-6.01972 27.72393,-11.3893c10.8291,-6.32098 20.30226,-16.0247 30.10532,-22.44574c13.7673,-9.01758 27.01198,-13.99976 35.30438,-15.39689c10.67268,-1.79817 8.673,17.5397 10.33249,20.98899z" fill="#801d1d"/></g><g><path d="M162.76414,267.11124c-28.66692,-55.04433 -7.28377,-122.90572 47.76056,-151.57259c55.04433,-28.66692 122.90571,-7.28377 151.57259,47.76056c28.66692,55.04433 7.28377,122.90572 -47.76056,151.57259c-55.04433,28.66692 -122.90571,7.28377 -151.57259,-47.76056z" fill="url(#color-46)" stroke="url(#color-47)"/><path d="M246.4988,223.0262c-4.63412,-8.89812 -1.17746,-19.86821 7.72066,-24.50232c8.89812,-4.63412 19.86822,-1.17745 24.50233,7.7207c4.63412,8.89812 1.17745,19.86822 -7.7207,24.50233c-8.89812,4.63412 -19.8682,1.17743 -24.50232,-7.72072zM268.54137,226.29884c6.22249,-3.24063 8.63972,-10.91202 5.39908,-17.1345c-3.24063,-6.22249 -10.91204,-8.63975 -17.13451,-5.39911c-6.22249,3.24063 -8.63972,10.91208 -5.39909,17.13453c3.24063,6.22249 10.91202,8.63972 17.13451,5.39908z" fill="#ffffff" stroke="url(#color-48)"/></g><g><path d="M285.28275,207.64792c-28.66692,-55.04433 -7.28377,-122.90571 47.76056,-151.57259c55.04433,-28.66692 122.90571,-7.28377 151.57259,47.76056c28.66692,55.04433 7.28377,122.90571 -47.76056,151.57259c-55.04433,28.66692 -122.90572,7.28377 -151.57259,-47.76056z" fill="url(#color-49)" stroke="url(#color-50)"/><path d="M369.01737,163.56291c-4.63412,-8.89812 -1.17747,-19.86821 7.72065,-24.50232c8.89812,-4.63412 19.86822,-1.17745 24.50234,7.7207c4.63412,8.89812 1.17745,19.86822 -7.7207,24.50233c-8.89812,4.63412 -19.8682,1.17743 -24.50232,-7.72072zM391.05996,166.83555c6.22249,-3.24063 8.63972,-10.91202 5.39908,-17.13449c-3.24063,-6.22249 -10.91204,-8.63975 -17.13451,-5.39911c-6.22249,3.24063 -8.63972,10.91208 -5.39909,17.13453c3.24063,6.22249 10.91203,8.63972 17.13452,5.39907z" fill="#ffffff" stroke="url(#color-51)"/></g></g></g></g></svg>