<svg version="1.1" xmlns="http://www.w3.org/2000/svg" xmlns:xlink="http://www.w3.org/1999/xlink" width="138.1186" height="99.61566" viewBox="0,0,138.1186,99.61566"><g transform="translate(-290.9407,-117.96842)"><g fill="#ffffff" stroke="none" stroke-width="0" stroke-miterlimit="10"><path d="M337.73928,123.18662c11.20925,0 -6.20628,5.43228 -6.20628,10.0642c0,4.63192 -9.08689,8.38683 -20.29614,8.38683c-11.20925,0 -20.29616,-3.75492 -20.29616,-8.38683c0,-4.63192 35.58932,-10.0642 46.79857,-10.0642z"/><path d="M429.05928,133.25082c0,4.63192 -9.08688,8.38685 -20.29614,8.38685c-11.20925,0 -20.29615,-3.75492 -20.29615,-8.38685c0,-4.63192 -17.41552,-10.0642 -6.20626,-10.0642c11.20925,0 46.79857,5.43228 46.79857,10.0642z"/><path d="M407.15484,173.42348c0,27.5081 -16.71366,44.1606 -47.26237,44.1606c-30.54874,0 -46.08318,-15.89396 -46.08318,-43.40206c0,-8.06634 5.21022,-19.89483 7.35341,-26.9265c5.16555,-16.94799 17.13902,-29.2871 38.72978,-29.2871c23.28539,0 36.4801,12.81668 41.43818,31.09372c1.54656,5.70111 5.82419,17.82096 5.82419,24.36135z"/><g><path d="M330.31353,146.5633c0,-7.55207 6.12213,-13.67423 13.67422,-13.67423c7.55207,0 13.67424,6.12216 13.67424,13.67423c0,7.55207 -6.12215,13.67422 -13.67424,13.67422c-7.55207,0 -13.67422,-6.12215 -13.67422,-13.67422z"/><g><g><path d="M334.05988,146.5633c0,-5.48301 4.44485,-9.92787 9.92785,-9.92787c5.483,0 9.92786,4.44486 9.92786,9.92788c0,5.48301 -4.44487,9.92784 -9.92786,9.92784c-5.483,0 -9.92785,-4.44485 -9.92785,-9.92784z"/><path d="M336.30766,146.5633c0,-4.24158 3.43849,-7.68007 7.68007,-7.68007c4.24158,0 7.68006,3.43849 7.68006,7.68007c0,4.24158 -3.43848,7.68006 -7.68006,7.68006c-4.24158,0 -7.68007,-3.43848 -7.68007,-7.68006z"/><path d="M341.83359,146.5633c0,-1.18971 0.96445,-2.15417 2.15416,-2.15417c1.18971,0 2.15416,0.96446 2.15416,2.15417c0,1.18971 -0.96445,2.15416 -2.15416,2.15416c-1.18971,0 -2.15416,-0.96445 -2.15416,-2.15416z"/></g><path d="M348.95335,143.9053c0,0.25465 -0.72251,0.46108 -1.61376,0.46108c-0.89125,0 -1.61377,-0.20643 -1.61377,-0.46108c0,-0.25465 0.72252,-0.46108 1.61377,-0.46108c0.89125,0 1.61376,0.20643 1.61376,0.46108z"/></g><path d="M354.16942,142.54825c0,1.81432 -4.42786,-0.28816 -10.31651,-0.28816c-5.88862,0 -9.97069,1.87196 -9.97069,0.05764c0,-1.81432 4.08209,-6.62792 9.97069,-6.62792c5.88862,0 10.31651,5.04413 10.31651,6.85845z"/></g><path d="M399.87309,156.56625c0,4.93207 -5.76018,0.85548 -7.59828,3.46876c-2.96087,4.20952 -4.24133,7.09868 -10.01408,7.09868c-5.60409,0 -9.5226,0.92626 -13.37874,-5.13387c-2.58202,-4.05776 -6.58193,-7.6498 -6.58193,-12.81399c0,-6.33564 -4.20231,-13.42293 -1.22236,-17.62518c1.05686,-1.49038 8.69404,-5.03493 11.41116,-5.52283c5.19251,-0.93238 6.65172,2.1809 9.77189,2.1809c5.56207,0 10.18278,9.63153 13.56002,17.15543c2.30394,5.13281 4.05237,5.97005 4.05237,11.19208z"/><g><path d="M365.28474,146.56245c0,-7.55207 6.12212,-13.67422 13.67422,-13.67422c7.55207,0 13.67422,6.12213 13.67422,13.67422c0,7.55207 -6.12215,13.67422 -13.67422,13.67422c-7.55207,0 -13.67422,-6.12213 -13.67422,-13.67422z"/><g><g><path d="M369.03109,146.56245c0,-5.48301 4.44487,-9.92785 9.92786,-9.92785c5.483,0 9.92787,4.44486 9.92787,9.92785c0,5.48301 -4.44485,9.92786 -9.92787,9.92786c-5.483,0 -9.92786,-4.44485 -9.92786,-9.92786z"/><path d="M371.27893,146.56245c0,-4.24158 3.43848,-7.68005 7.68006,-7.68005c4.24158,0 7.68006,3.43847 7.68006,7.68005c0,4.24158 -3.43848,7.68006 -7.68006,7.68006c-4.24158,0 -7.68006,-3.43848 -7.68006,-7.68006z"/><path d="M376.80479,146.56245c0,-1.18971 0.96445,-2.15416 2.15416,-2.15416c1.18971,0 2.15416,0.96446 2.15416,2.15416c0,1.18971 -0.96446,2.15416 -2.15416,2.15416c-1.18971,0 -2.15416,-0.96446 -2.15416,-2.15416z"/></g><path d="M383.92459,143.90449c0,0.25465 -0.72252,0.46108 -1.61377,0.46108c-0.89125,0 -1.61376,-0.20643 -1.61376,-0.46108c0,-0.25465 0.72251,-0.46104 1.61376,-0.46104c0.89125,0 1.61377,0.20641 1.61377,0.46104z"/></g><path d="M389.14065,142.54743c0,1.81432 -4.42785,-0.28815 -10.31651,-0.28815c-5.88862,0 -9.9707,1.87195 -9.9707,0.05763c0,-1.81432 4.0821,-6.62792 9.9707,-6.62792c5.88862,0 10.31651,5.04413 10.31651,6.85846z"/></g><path d="M394.50552,189.94589c0,9.63441 -15.32006,17.44463 -34.2183,17.44463c-18.89824,0 -34.21831,-7.81023 -34.21831,-17.44463c0,-2.37497 -2.0883,-14.70329 -0.4023,-16.7669c5.15353,-6.3077 20.38095,-0.67771 34.62062,-0.67771c10.99125,0 24.79781,-3.73212 31.05834,0.37399c4.50378,2.95391 3.15999,13.0396 3.15999,17.07063z"/><path d="M341.16521,176.52692c0,1.29693 -2.92883,0.67094 -6.54174,0.67094c-3.61291,0 -6.54174,0.626 -6.54174,-0.67094c0,-1.29693 2.92883,-4.69663 6.54174,-4.69663c3.61291,0 6.54174,3.3997 6.54174,4.69663z"/><path d="M390.14435,177.19789c0,1.29693 -2.92883,0.67097 -6.54174,0.67097c-3.61291,0 -6.54174,0.62598 -6.54174,-0.67097c0,-1.29693 2.92883,-4.69665 6.54174,-4.69665c3.61291,0 6.54174,3.39972 6.54174,4.69665z"/></g></g></svg>