<svg version="1.1" xmlns="http://www.w3.org/2000/svg" xmlns:xlink="http://www.w3.org/1999/xlink" width="188.62182" height="112.22703" viewBox="0,0,188.62182,112.22703"><g transform="translate(-282.62818,-123.88649)"><g stroke-miterlimit="10"><g><path d="M284.75,235.26903v-111h186.5v111z" fill="#2f2414" stroke="#000000" stroke-width="0"/><path d="M296,228.57332v-97.60858h164v97.60858z" fill="#36447b" stroke="#000000" stroke-width="0"/><path d="M350.92403,228.37964v-89h63.33333v89z" fill="#1b1b1b" stroke="#000000" stroke-width="0"/><path d="M313.19378,224.05299c-0.78607,4.92317 -1.93213,10.37619 -8.07275,6.1611c-3.0846,-2.11736 -0.13208,-14.47078 1.14612,-17.11828c0.19518,-0.40427 1.08023,-2.10413 1.94728,-3.39326l0.4837,-1.16089l-0.00369,-0.01605l0.02847,-0.04342l0.06608,-0.15859l0.02971,-0.03993c-0.48717,-0.10771 -0.97674,-0.25784 -1.46647,-0.45373c-0.20143,0.05234 -0.41274,0.0802 -0.63055,0.0802c-3.37489,0 -7.03405,-3.15926 -5.67055,-6.60046c0.16111,-0.40661 0.73063,-0.67307 1.41134,-0.85262c-0.03956,-0.06375 -0.07531,-0.12447 -0.10702,-0.18171c-1.19067,-2.14902 1.3812,-10.6 3.50644,-12.40066c1.20903,-1.02438 6.28381,0.3684 7.28952,2.49802c0.09195,-0.01815 0.18359,-0.03508 0.27487,-0.05074c1.33806,-2.70443 5.05821,-4.6804 7.65664,-4.65526c3.5965,0.03479 10.9424,14.09689 7.36475,17.07881c-0.46211,0.38516 -2.22665,0.91587 -4.20215,1.18209l2.36268,2.71708l0.01748,0.03434l0.0309,0.02301l2.24287,2.74128l1.86779,2.24135l0.03239,0.0671l0.0575,0.04739l2.125,2.875l0.0834,0.20201l0.14223,0.16593l1.12811,2.25621l0.00818,0.00414l0.00945,0.03111l0.10427,0.20854l0.11146,0.50157l0.14935,0.49162l0.01164,0.23286l0.00705,0.03174l-0.00508,0.00763l0.11139,2.22778l-0.02927,0.14816l0.02646,0.14869l-0.25,3.625l-0.07263,0.22379l-0.0024,0.23526l-0.75,2.875l-0.06832,0.125l-0.01736,0.14139l-0.625,1.625l-0.74039,1.0545l-0.59098,0.09051l-0.43328,0.41197l-1.28708,-0.05986l-1.0706,-0.32118l-1.22002,-0.17429l-7.0301,0.95323l-0.45289,-0.05012l-0.45561,0.00633l-1.84256,-0.43354h-0.08484l-0.36339,-0.09085l-0.1269,0.0423l-0.11921,-0.10383l-0.6405,-0.16013l-0.45246,-0.79181l-0.6877,-0.59897l-0.0314,-0.65947l-0.07843,-0.13725l0.06637,-0.11614l-0.01782,-0.37415l0.07645,-0.38226v-1.06796l-0.10673,-2.24127l-0.56825,-1.79945l-0.87,-1.49143c-0.36903,1.25846 -0.71622,2.26085 -0.73293,2.3655zM319.40876,210.83918l-0.07263,0.11684l0.1422,-0.06582z" fill="#000000" stroke="none" stroke-width="0.5"/><path d="M319.73572,169.34243c0.3317,-1.16395 1.57983,-1.632 1.57983,-1.632c2.9837,-1.1034 7.75379,-3.36731 10.99228,-1.88201c3.46738,1.59028 3.45085,7.10313 4.29717,9.89045c1.61622,5.32298 4.34397,9.36679 9.65741,11.72052c2.88369,1.2774 6.19396,1.1941 9.28478,1.82202c7.80271,1.58517 15.74534,1.7036 23.68361,1.9526c1.35037,0.04235 10.55572,0.23815 11.25991,0.70378c1.84235,1.21821 2.18377,3.83985 3.27566,5.75978c0.32511,1.68102 2.48141,8.34537 -0.14996,10.23135c-3.34657,2.39858 -12.06851,0.65925 -15.75734,0.06428c-0.52431,-0.08456 -4.45833,-0.83308 -5.09581,-0.56021c-4.73554,2.02704 -6.24339,8.47962 -7.95954,12.71209c-0.5496,1.35547 -0.27029,3.36848 -1.52939,4.11281c-1.94654,1.15071 -4.47818,0.80311 -6.73924,0.77524c-6.21017,-0.07655 -12.08495,-3.01963 -18.40904,-3.21277c-1.98839,-0.06072 -7.85206,0.3199 -8.57163,-1.20488c-0.03929,-0.08326 3.2538,-10.02 3.66202,-11.25644c1.47014,-4.41755 2.10002,-7.58149 1.88338,-12.26081c-0.03557,-0.76825 0.22561,-1.58886 -0.05047,-2.30667c-0.51913,-1.34975 -1.51805,-2.46195 -2.26085,-3.70274c-2.46014,-4.10948 -4.68023,-8.48177 -7.87674,-12.09603c-1.77999,-2.01262 -3.81777,-3.86739 -5.15004,-6.20063l-0.31839,-2.22089c0,0 0,-0.59785 0.29236,-1.20882zM334.38472,217.51448c-0.19856,0.15091 -0.38678,0.31153 -0.55243,0.49256c-0.25687,0.28072 0.08784,-0.08839 0.55243,-0.49256z" fill="#1a1448" stroke="none" stroke-width="0.5"/><path d="M391.00164,181.14035c-0.41892,-0.40751 -0.73056,-1.03413 -0.63455,-1.99429c0.24876,-2.48759 2.73635,-2.23883 2.73635,-2.23883c8.85673,0.88567 18.59523,2.5624 25.17039,9.33423c2.92156,3.00895 3.34862,6.23936 4.64997,9.90403c0.60937,1.71601 2.70282,3.39704 2.00835,5.08041c-0.66044,1.60089 -3.1984,1.34886 -4.86083,1.83396c-2.81633,0.82181 -10.10777,2.79765 -13.00287,1.43221c-1.41682,-0.66822 -6.02627,-6.39421 -7.50408,-7.62866c-2.45772,-2.05298 -5.3295,-3.55376 -7.93954,-5.40924c-0.4232,-1.46898 -1.19671,-2.87995 -1.2696,-4.40694c-0.06806,-1.42564 0.57266,-2.79649 0.85898,-4.19474l-0.24424,-0.9816c0,0 -0.03485,-0.31369 0.03166,-0.73054z" fill="#404310" stroke="none" stroke-width="0.5"/><path d="M379.01292,192.2161c0.19317,-0.61893 0.69581,-1.42418 2.00369,-1.42418c0.41593,0 0.75042,0.08145 1.01942,0.21243c0.58071,0 1.16141,0 1.74212,0c3.02202,0 6.39812,0.43232 9.36989,-0.1741c3.59762,-0.73414 6.58356,-2.04495 10.4106,-1.26474c5.05424,1.03039 9.63181,4.95567 12.68913,8.83269c2.86835,3.63738 4.84184,6.32731 3.25939,11.23233c-1.40412,4.35228 -5.33016,9.21873 -9.63738,10.95179c-1.13555,0.4569 -3.07979,1.20726 -4.78526,1.15847c-0.3066,2.41545 -1.0249,4.64 -2.68202,5.85059c-1.08211,0.79054 -5.65206,0.58724 -6.7285,0.58756c-3.89522,0.00115 -8.68276,0.44649 -12.51258,-0.30254c-1.8951,-0.37064 -4.17302,-0.39013 -5.51241,-1.7811c-0.66094,-0.6864 -0.65589,-1.7066 -0.57004,-2.74108c-0.7312,-0.16618 -1.49685,-0.47234 -2.15614,-0.63555c-1.26926,-0.3142 -4.94484,-2.61224 -5.70535,-3.55435c-5.03505,-6.23729 -0.74062,-14.12001 2.85435,-19.87975c0.70511,-1.1297 4.20884,-6.07327 5.49463,-6.80511c0.43427,-0.24717 0.93214,-0.28262 1.44644,-0.26335zM377.91249,211.98005c0.08441,-0.63177 0.17381,-1.25749 0.26677,-1.87443c0.12027,-0.75148 0.79615,-1.6302 0.36082,-2.25444c-0.33976,-0.48719 -0.51118,1.07626 -0.83539,1.57392c-0.3452,0.52988 -1.29431,0.87803 -1.16532,1.49714c0.11854,0.56896 0.84334,0.73347 1.37312,1.05781zM405.48008,209.84022c0.02004,0.23779 0.02886,0.47642 0.02962,0.71561c0.06356,-0.00539 0.11633,-0.03127 0.15193,-0.09187c0.1232,-0.20972 0.01361,-0.41687 -0.18155,-0.62374z" fill="#1d330b" stroke="none" stroke-width="0.5"/><g stroke="none" stroke-width="0.5"><path d="M379.35288,182.27436c-0.27573,-0.7785 -0.09153,-1.55215 -0.09153,-1.55215c0.07426,-0.30792 0.14853,-0.61584 0.22278,-0.92376c0.17255,-1.48431 0.49464,-2.93224 0.87301,-3.63066l0.08675,-3.66832c0.02526,-1.24289 0.95754,-2.26307 2.16193,-2.42562c0.70997,-1.02259 2.08754,-1.02259 2.08754,-1.02259l0.9409,0.0007c5.32768,-0.10573 11.29902,-2.68333 16.6684,-1.47475c2.02508,0.45583 4.49045,0.90906 5.64168,2.63632c0.04805,0.07209 -0.00588,0.49482 -0.1182,1.10855c0.72779,0.82006 0.60327,1.99309 0.60327,1.99309l-0.35548,3.29872c-0.37904,1.41878 -1.20146,2.7892 -1.13711,4.25632c0.05644,1.28701 1.2914,2.29568 1.48035,3.57c0.19362,1.30578 0.09103,2.7049 -0.36634,3.94319c-1.52442,4.12716 -3.73343,4.18467 -7.8242,5.31521c-4.79964,1.32645 -10.33402,1.36558 -15.22375,0.26313c-2.06394,-0.46535 -4.3905,-0.69647 -6.00051,-2.06915c-3.39929,-2.89822 -1.6028,-6.08704 0.42293,-8.66968c-0.04028,-0.27917 -0.06381,-0.60007 -0.07242,-0.94855z" fill="#b0947e"/><path d="M387.37508,172.70155c-0.42077,-0.04227 -0.84084,-0.07942 -1.25782,-0.07975c0.07414,0.03967 0.15325,0.07373 0.23781,0.10163c0.30266,0.09987 0.6486,0.08192 1.02002,-0.02187zM405.47986,164.51587c1.32351,0.79756 10.65088,6.85781 2.93796,10.17812c-2.45157,1.05537 -3.3465,0.22184 -3.93079,-0.99206l-0.10193,0.09197c-1.29638,0.07234 -2.61671,0.47539 -3.88914,0.21701c-1.27348,-0.2586 -2.22965,-1.4426 -3.49973,-1.71743c-2.20998,-0.47822 -3.45997,3.03382 -5.54636,3.90541c-2.15861,0.90176 -4.67366,1.8395 -6.91822,1.1802c-0.74176,-0.21788 -1.66417,-1.26452 -2.60456,-2.63399l-3.21091,1.972l-0.74703,-1.21634c-0.84348,0.20451 -1.68699,0.40898 -2.52385,0.63474l1.23772,-2.27352l-1.04296,-1.04296l2.92933,-2.92933l-0.51165,-0.44769c-0.52945,-0.4584 -0.86437,-1.13547 -0.86437,-1.89075c0,-1.38071 1.11929,-2.5 2.5,-2.5h2.31827c7.37505,-1.47603 16.43325,-4.77476 23.46823,-0.53539z" fill="#342b25"/><path d="M378.70729,159.93322c0.49673,-0.84183 1.38185,-1.55406 1.49019,-2.52549c0.08785,-0.78774 -0.91976,-1.38146 -0.96621,-2.17273c-0.13493,-2.2991 -0.71915,-4.90195 0.43398,-6.89553c0.85724,-1.48204 3.04519,-1.67675 4.72265,-2.01949c4.8374,-0.98838 11.6227,2.01391 16.27882,2.83472c1.77413,0.31276 3.68213,0.0972 5.34713,0.78502c2.09985,0.86747 4.55987,1.79226 5.67852,3.76976c3.48713,6.16442 -2.39513,4.62314 -2.50085,9.24582c-0.04139,1.80991 2.99117,3.61285 1.92734,5.07769c-1.48089,2.0391 -7.77486,1.15931 -10.19255,0.94882c-4.96407,-0.43218 -9.89628,-0.94245 -14.86971,-1.2492c-1.8236,-0.11247 -3.80297,0.38923 -5.46939,-0.35993c-0.14668,-0.06594 -0.29098,-0.13581 -0.43312,-0.20927l-0.02125,0.04464l-4.46411,-2.12577c-0.86977,-0.3913 -1.47536,-1.26546 -1.47536,-2.28105c0,-1.28062 0.96289,-2.33633 2.20416,-2.48268l2.29444,-0.30593z" fill="#1d330b"/></g><g stroke="none" stroke-width="0.5"><path d="M435.26638,186.18097c1.61356,-0.46255 3.17786,-0.87434 3.35676,-0.91384c1.63367,-0.36072 3.50623,-1.76283 4.93816,-0.89762c1.75829,1.06241 2.9068,3.48161 2.72491,5.52788c-0.14664,1.64964 -2.31171,2.37428 -3.52731,3.49906c-0.48595,0.44965 -0.98018,0.89241 -1.48038,1.33002c0.33934,0.3424 0.54894,0.81359 0.54894,1.33374c0,0.28553 -0.06316,0.5563 -0.17627,0.79912l-1.5057,3.43236c-0.84982,1.39525 -1.02864,3.68517 -2.39297,4.39442c0.97066,1.9529 1.88594,4.09485 1.17582,4.9756c-0.58659,0.72752 -4.9754,0.1774 -7.58266,-0.19912c0.12606,0.2452 0.2053,0.55344 0.2053,0.94091c0,1.89477 -1.89477,1.89477 -1.89477,1.89477l-0.75908,-0.08765c-1.16571,-0.37331 -2.48288,-0.43469 -3.49712,-1.11992c-0.0697,-0.04709 -0.1386,-0.09515 -0.20676,-0.14412l-0.01412,0.02193l-3.16003,-2.03434c-0.40551,-0.25222 -0.70877,-0.65337 -0.83329,-1.12698c-0.36935,-0.17539 -0.70351,-0.37869 -0.99094,-0.61549c-0.46553,-0.38352 -0.85546,-0.84134 -1.21612,-1.32769c-0.57977,0.64682 -1.16508,1.28848 -1.97586,1.40698c-7.82404,1.14358 -5.27414,-2.07269 -3.28981,-6.20553c0.27968,-0.58251 0.58817,-1.14939 0.9144,-1.70665c-1.21195,-2.27454 -2.08256,-4.66581 -2.68871,-7.35348c1.98428,-1.65133 4.01244,-3.30522 6.09561,-4.88369c0.42224,-0.91357 1.22601,-1.63378 2.6712,-1.95478c1.04834,-0.73809 2.11113,-1.44998 3.1897,-2.12637c1.09565,-0.68712 2.21532,-1.33802 3.35959,-1.94071c0.84666,-0.44593 1.65459,-1.29419 2.60705,-1.20191c3.54021,0.343 3.96759,3.11387 5.15765,5.71447c0.08632,0.18864 0.16857,0.37821 0.24679,0.56865zM436.2808,189.85033c0.03782,0.2471 0.07,0.49477 0.0967,0.74285c0.45912,0.39067 0.8466,0.84665 1.12059,1.34634c0.08835,0.16112 0.08465,0.45785 0.01285,0.84728c0.91138,-0.79137 1.83535,-1.56682 2.80372,-2.28624c0.71089,-0.52812 1.79402,-0.63914 2.26448,-1.38942c0.25088,-0.40008 -0.11256,-1.26071 -0.58383,-1.2908c-0.87017,-0.05556 -1.54902,0.81494 -2.37234,1.10204c-1.09166,0.38067 -2.2153,0.66698 -3.34217,0.92794zM417.83339,191.85048c-0.74228,0.47136 -1.50277,0.91886 -2.29177,1.32962c0.39152,0.53229 0.74953,1.08995 1.08697,1.66353c0.39805,-0.51202 0.87914,-0.94136 1.41815,-1.30772c-0.04442,-0.33762 -0.07539,-0.58321 -0.08798,-0.69752c-0.03428,-0.31115 -0.07932,-0.64303 -0.12537,-0.98791zM436.76264,199.91874c-0.24552,0.2276 -0.50286,0.44506 -0.77021,0.65308c0.03648,0.19928 0.07877,0.39756 0.12795,0.59466c0.08117,0.02875 0.17174,0.03256 0.2745,0.00486c0.46216,-0.12457 0.44136,-0.66582 0.36776,-1.25261zM421.2055,190.44115c0.58681,-0.02269 1.15097,0.20303 1.70355,0.5308c-0.36011,-0.65201 -0.23228,-1.6857 -0.78468,-2.11384c-0.25434,0.18448 -0.50838,0.36917 -0.7626,0.55349c-0.07887,0.26385 -0.12597,0.55146 -0.14169,0.75448c-0.00711,0.09181 -0.01191,0.1835 -0.01458,0.27507zM427.52302,199.0017c-0.18612,-0.07654 -0.37095,-0.15687 -0.55482,-0.24001c-0.379,0.33433 -0.75767,0.6692 -1.13632,1.0042c0.21267,0.61612 0.39008,1.24945 0.61423,1.85997c0.07965,0.03943 0.15845,0.07962 0.23624,0.12076c0.30072,-0.20395 0.60006,-0.40432 0.89844,-0.60117c0.0109,-0.04415 0.02178,-0.08831 0.03263,-0.13247c-0.02234,-0.41926 -0.04323,-0.83864 -0.07587,-1.25615c-0.01944,-0.24864 -0.02015,-0.50125 -0.01453,-0.75512zM431.87692,187.2682c-0.43572,-1.05575 -1.04425,-2.05921 -1.55356,-3.08103c-0.10449,-0.20965 -0.26281,-0.53829 -0.4939,-0.49992c-0.31992,0.05311 -0.40945,0.51744 -0.68086,0.69495c-1.03195,0.67494 -2.16021,1.19228 -3.20528,1.84672c-0.45542,0.28519 -0.90334,0.57931 -1.34605,0.87949c0.9309,1.06599 1.93436,2.33062 2.67466,3.28412c0.91329,-0.29542 2.1468,-0.68319 3.33102,-1.00133c0.19689,-0.71804 0.46447,-1.39514 0.94937,-1.94246c0.04075,-0.046 0.15431,-0.10747 0.32459,-0.18054zM432.87387,203.46862c-0.36147,0.25432 -0.74574,0.48332 -1.12468,0.71916c0.07788,0.50542 0.1794,1.02656 0.22218,1.52319c1.14476,0.16033 2.01083,0.28166 2.01134,0.28182c0.08954,0.02963 0.17457,0.06832 0.25617,0.11389c-0.01227,-0.01552 -0.02357,-0.03085 -0.03384,-0.04598c-0.54387,-0.80166 -0.99007,-1.67921 -1.33116,-2.59208zM434.96816,206.69811c0.29041,0.27496 0.58306,0.54465 0.95301,0.65764c0.45991,0.14047 -0.28895,-0.22367 -0.95301,-0.65764zM423.46915,204.32697c0.07185,0.07011 0.14538,0.13865 0.22075,0.20549l0.0267,-0.02253c-0.08251,-0.06097 -0.16499,-0.12195 -0.24746,-0.18296z" fill="#af784d"/><path d="M417.33788,178.85243c1.20788,-3.34663 1.93552,-7.46179 4.83154,-9.39335c1.37046,-0.91406 2.57755,-2.5839 4.22475,-2.56408c3.80525,0.04579 3.26271,3.75674 6.49672,4.23605c2.58299,0.38282 4.8694,-3.03721 7.42447,-2.49862c1.23298,0.25991 1.57063,1.9969 2.11431,3.13366c1.495,3.12582 2.2576,7.03243 3.26213,10.40886c0.04721,0.00009 0.09443,0.00016 0.14166,0.00021l2.91435,-0.36799c0,0 1.88013,-0.23502 2.11515,1.64512c0.23501,1.88013 -1.64512,2.11515 -1.64512,2.11515l-3.1489,0.38992c-7.60356,0.00789 -14.83704,-0.43888 -22.38349,-1.36294c-3.94182,-0.48267 -7.20512,-0.67723 -10.79262,-2.43349c0,0 -1.69473,-0.84737 -0.84736,-2.5421c0.84737,-1.69473 2.54209,-0.84736 2.54209,-0.84736c0.58717,0.30129 1.16859,0.54712 1.74876,0.75052c0.27391,-0.38544 0.67367,-0.57568 1.00155,-0.66957z" fill="#1b120c"/><path d="M454.44135,199.59177c-0.04976,-0.36419 -0.6907,-0.48815 -1.06791,-0.35451c0.4055,0.04735 0.7719,0.22274 1.05769,0.48466c0.01267,-0.0395 0.01673,-0.08259 0.01022,-0.13015zM445.95592,203.48298c-0.42014,-0.4391 -0.75437,-0.92621 -0.89015,-1.50434c-0.43605,-1.85659 0.15039,-3.34874 1.13738,-4.62598l-0.03687,-0.02211l1.93183,-3.21972c0.32729,-0.56762 0.94033,-0.94969 1.64261,-0.94969c1.04645,0 1.89477,0.84831 1.89477,1.89476c0,0.21242 -0.03495,0.41668 -0.09943,0.60734l-0.08269,0.26461c0.17759,-0.08508 0.36341,-0.15821 0.55723,-0.21805c2.03148,-0.62722 4.59816,0.71922 5.91391,2.38929c0.82177,1.04307 -0.5149,2.61894 -0.99192,3.85819c-1.66299,4.3203 -1.59945,5.45938 -6.56078,4.58794c-0.70465,-0.12377 -1.34303,-0.50661 -1.92555,-0.95306c-0.17529,0.04747 -0.37432,0.07443 -0.6003,0.07443c-1.89477,0 -1.89477,-1.89477 -1.89477,-1.89477c0.00071,-0.09629 0.0023,-0.19258 0.00473,-0.28884z" fill="#cfcfcf"/><path d="M404.85773,211.55146c0.13198,-0.65915 0.34328,-1.27559 0.77805,-1.77167c2.47827,-2.82776 6.58152,-2.7786 8.61469,0.63455c1.78172,2.99102 -0.30759,7.48257 -2.46296,9.4307c-0.49539,0.44777 -1.43493,-0.61776 -1.98836,-0.24409c-0.52649,0.35548 0.01879,1.3907 -0.40745,1.86174c-1.21763,1.3456 -2.49223,3.17467 -4.29944,3.33979c-1.47031,0.13434 -2.95588,-1.27841 -3.5708,-2.6207c-0.52146,-1.13827 0.39879,-2.47388 0.67773,-3.69445c0.68186,-2.98368 0.89945,-3.40091 1.80231,-5.88922c0,0 0.24722,-0.67986 0.85623,-1.04666z" fill="#cfcfcf"/></g><path d="M325.83673,168.37854c-1.19288,0.89383 -2.75788,1.53348 -4.0534,1.92109c-1.48154,0.44326 -2.91393,-1.09641 -4.22472,-1.91693c-2.52204,-1.57873 -6.33171,-4.92602 -3.8735,-8.82038c0.70801,-1.12165 9.94488,-1.68508 10.76995,-1.55829c1.21083,0.18607 2.16581,1.52155 3.31267,1.74144l2.96524,-2.76756c0.44718,-0.41964 1.04877,-0.67666 1.7104,-0.67666c1.38071,0 2.5,1.11929 2.5,2.5c0,0.34826 -0.07121,0.67989 -0.19986,0.98112l-0.97895,2.44736l-0.17586,-0.07035l-0.02276,0.46275c-2.08379,2.31562 -4.71044,4.16091 -7.45284,5.63859c0,0 -0.10302,0.05454 -0.27635,0.11782z" fill="#b07040" stroke="none" stroke-width="0.5"/><path d="M347.90747,189.11586c2.1854,1.2141 0.97129,3.3995 0.97129,3.3995l-1.18531,2.12543c-3.56849,8.59117 -6.95044,17.22353 -10.2374,25.92338c3.73543,0.69335 7.26119,1.8104 11.05304,2.3184c0.81601,-2.51156 2.96944,-5.29485 3.76667,-6.85851c4.30993,-8.45334 5.64796,-17.83125 10.52387,-26.00905c0,0 1.28625,-2.14373 3.42998,-0.85749c2.14373,1.28624 0.85749,3.42997 0.85749,3.42997c-3.40873,5.64167 -4.34349,11.35235 -6.56176,17.44227c-1.69758,4.66044 -4.65344,8.67363 -6.90582,13.00315c1.91636,-0.05251 3.90592,-0.10451 4.30902,0.06587c0.14956,0.06322 0.29661,0.13075 0.44142,0.2022l0.0253,-0.06143l4.19633,1.7279c0.93696,0.36084 1.60179,1.26968 1.60179,2.33379c0,1.38071 -1.11929,2.5 -2.5,2.5h-2.5v-0.1347l-0.30546,0.11597c-1.76855,-0.44214 -5.07343,-0.48891 -7.54952,-1.41468c-0.15609,0.55385 -0.46871,0.92549 -0.81798,1.17485c-0.69995,-0.08818 -1.40265,-0.16664 -2.10897,-0.23192c-5.77434,-0.53367 -11.64797,-0.02875 -17.48218,0.28422c-0.85261,-0.2908 -1.62932,-0.67209 -2.30021,-1.16712c-3.99256,-2.946 -4.78109,-6.01263 0.767,-8.49607c0.93077,-0.41664 1.96844,-0.33483 3.0159,-0.1597c3.45801,-9.16862 7.00226,-18.26727 10.78134,-27.3104l1.3147,-2.37457c0,0 1.2141,-2.18539 3.3995,-0.97128z" fill="#0b081e" stroke="none" stroke-width="0.5"/><g stroke="none" stroke-width="0.5"><path d="M368.43684,155.44757c2.48979,0.22575 2.26403,2.71553 2.26403,2.71553l-0.1889,1.14508c0.14986,1.13106 0.75744,2.29456 0.44957,3.39317c-2.48077,8.85245 -12.06473,10.52038 -19.99852,10.17352c-2.41559,-0.10561 -4.88341,0.08478 -6.93491,-1.65509c-2.53831,-2.15272 -2.68367,-6.75642 -3.70392,-9.69846c0,0 -0.81585,-2.36313 1.54728,-3.17899c2.36313,-0.81585 3.17899,1.54729 3.17899,1.54729c0.55945,1.62708 0.97187,6.47508 2.25123,7.55077c0.63401,0.53307 3.65123,0.42968 3.87548,0.43905c4.56509,0.19094 16.20958,-0.48783 14.40744,-7.72212l0.13669,-2.44574c0,0 0.22575,-2.48978 2.71554,-2.26403z" fill="#b09987"/><g><path d="M367.54116,166.19693c5.18487,5.60904 8.52335,11.05808 10.15449,18.54075l-0.11916,0.38733l0.10935,0.01147l-0.51263,4.89028c-0.08324,1.02387 -0.79717,1.93177 -1.84634,2.21247c-1.00124,0.26788 -2.02319,-0.11163 -2.6215,-0.88173l-3.11908,-3.83476c-0.6424,-0.62275 -1.21407,-1.25244 -1.63734,-1.85619c-0.0492,0.18833 -0.10282,0.3637 -0.16116,0.52448c-0.00572,0.01577 -0.01148,0.03149 -0.01729,0.04716c-0.04875,0.2491 -0.10955,0.48513 -0.18354,0.70619c-0.14659,0.43798 -0.43313,0.78209 -0.79378,1.07284c-1.51873,1.96241 -3.95722,2.73011 -6.38334,3.32297c-3.02515,1.26382 -6.70272,2.38446 -9.27555,2.35644c-0.75637,0.11179 -1.5034,0.16456 -2.23287,0.12763c-0.32479,0.44217 -0.79664,0.78093 -1.36787,0.93376l-3.13958,0.83997l-0.02783,-0.10402c-0.44608,0.10882 -0.90155,0.14417 -1.37062,0.07308c-1.94812,-0.29525 -2.90346,-2.69991 -4.06498,-4.29153c-1.86788,-2.55953 -3.43583,-7.99066 -1.11345,-10.8799c0.16158,-0.55178 0.37998,-1.1551 0.6616,-1.81504c0.53654,-1.25733 1.9386,-1.66205 3.41773,-1.99085c-0.08873,-0.33585 -0.10473,-0.67389 -0.05766,-0.99738l0.52844,-4.33152l0.23803,0.02903l-0.03755,-0.74927c1.39865,-1.60306 2.438,-3.611 4.19594,-4.80917c4.23298,-2.88509 6.72246,-1.93676 11.28622,-1.59248c1.75649,0.13251 3.6006,-0.17579 5.27039,0.38513c0.68509,0.23013 1.40578,0.49668 2.08056,0.83483c1.21792,-0.15548 2.14035,0.83802 2.14035,0.83802z" fill="#b07040"/><path d="M361.49621,175.23845c-6.53935,10.00441 -8.2214,0.60679 -9.01635,-2.68455c-0.7097,0.0985 -1.42356,0.21691 -2.13817,0.34917l-0.65775,3.08936l-0.49599,-0.10559l-0.0189,1.1737c-2.54111,0.87383 -4.99712,3.19046 -7.62336,2.62147c-1.69743,-0.36775 -1.44053,-3.16084 -2.1608,-4.74126c0,0 -0.16575,-0.61952 -0.01557,-1.31496c-0.12027,-0.22096 -0.21877,-0.48259 -0.28667,-0.79203c-0.5358,-2.44191 1.90611,-2.97771 1.90611,-2.97771c4.71889,-1.03424 9.97042,-2.47 14.82232,-2.59772c3.46071,-0.0911 6.50409,0.73623 9.99769,0.38937l2.93294,0.4885c0,0 2.44905,0.50213 1.94691,2.95118c-0.50214,2.44905 -2.95119,1.94692 -2.95119,1.94692l-1.44806,-0.40975c-1.69137,0.15929 -3.30341,0.06857 -4.90384,-0.06337c0.43501,0.95104 0.63955,1.86816 0.11067,2.67728z" fill="#000000"/></g></g><g stroke="none" stroke-width="0.5"><path d="M406.19669,165.39174c-0.22138,-0.24645 -0.41407,-0.57261 -0.55466,-1.00164c-0.77854,-2.37568 1.59714,-3.15423 1.59714,-3.15423c6.53194,-2.13743 12.31656,-3.98212 18.97612,-0.94632c1.29382,0.5898 2.88143,0.92829 3.73042,2.06892c3.85389,5.17776 4.05294,15.51939 -0.20182,20.46566c-3.35727,3.90291 -6.35274,3.41968 -10.83134,3.79235c-5.68264,0.47286 -10.39418,0.41148 -13.38391,-5.63509c-2.16409,-4.37676 -1.40084,-10.84484 0.66805,-15.58966z" fill="#131313"/><path d="M433.27962,174.17248c-0.31225,2.48042 -2.79268,2.16817 -2.79268,2.16817l-1.65632,-0.20882c-8.11426,-0.94057 -15.71416,1.19541 -23.65828,-1.87464c0,0 -2.329,-0.9087 -1.4203,-3.23771c0.9087,-2.329 3.23771,-1.4203 3.23771,-1.4203c7.35089,2.89982 14.78787,0.76488 22.38719,1.56258l1.73452,0.21804c0,0 2.48042,0.31225 2.16817,2.79268z" fill="#6b711b"/><path d="M432.40593,162.29511c0.67128,0.23597 1.39592,0.79025 1.52566,2.07328c0.25151,2.48732 -2.2358,2.73883 -2.2358,2.73883c-9.61083,0.96131 -17.87404,-0.32973 -27.05095,-3.19914l-1.04245,-0.36356c0,0 -2.3595,-0.8263 -1.53319,-3.1858c0.71171,-2.03228 2.56084,-1.70111 3.06004,-1.57017c1.5251,-3.84252 3.23681,-9.33358 7.19093,-11.07033c5.99808,-2.63451 15.25987,3.3988 18.56601,8.15786c0.96703,1.392 1.28995,3.13485 1.93492,4.70227z" fill="#6b711b"/></g><path d="M296,228.57332v-97.60858h164v97.60858z" fill-opacity="0.54902" fill="#6c5d45" stroke="#000000" stroke-width="0"/><path d="M330.05098,189.3873c0.50848,0.36341 0.14507,0.8719 0.14507,0.8719l-0.34253,0.47927c-0.13886,0.19429 -1.49051,2.10269 -1.60191,2.18126c-0.36815,0.25966 -2.43346,0.32404 -1.95226,0.635c0.36763,1.1029 1.93799,4.16974 1.51882,5.27133c-0.37304,0.98038 -3.74719,0.38622 -4.4862,0.70919c-0.97657,0.4268 0.21228,2.28676 -0.37663,3.17503c-0.18585,0.28032 -0.67453,0.1404 -0.95472,0.32645c-1.85536,1.23192 -3.50877,3.67872 -5.06285,5.29258c0,0 -0.20525,0.21314 -0.47995,0.20489c0.04521,0.30697 0.0876,0.61436 0.12669,0.92226c-2.32762,1.78239 -4.73348,3.05637 -7.34529,4.36228c-1.25529,0.62764 -3.29754,1.20658 -4.33061,2.13896c-0.36934,0.33334 -0.71891,0.7419 -1.05243,1.19912c3.15998,-1.69455 6.75489,-3.53999 10.0754,-4.38036c2.93596,-0.74305 6.51252,-0.6774 9.53808,-0.86645c2.86085,-2.13084 3.39334,-4.13135 4.6782,-7.47199c0.40565,-1.05469 1.0513,-4.20466 1.97091,-4.84681c1.7766,-1.24057 4.7404,0.11789 6.26631,0.93953l0.39882,0.21475c0,0 0.55029,0.29631 0.25398,0.84661c-0.29631,0.55029 -0.84661,0.25398 -0.84661,0.25398l-0.39882,-0.21475c-1.12197,-0.60414 -3.59182,-1.92645 -4.93605,-1.03097c-0.5754,0.38331 -1.25756,3.5472 -1.54186,4.28637c-1.4173,3.68499 -2.10851,5.91291 -5.40904,8.19483c-3.10658,0.35119 -6.64532,0.14189 -9.66724,0.90669c-3.74575,0.94799 -7.86242,3.2314 -11.25437,5.05783c0,0 -0.15988,0.08609 -0.35369,0.07928c-0.14545,0.26284 -0.28824,0.52905 -0.4288,0.79555c0.09675,0.1462 0.10953,0.31524 0.11026,0.38578c0.54192,-0.36972 1.10454,-0.69574 1.68907,-0.96619c2.95111,-1.36542 6.58097,-1.9474 9.70416,-2.86599c1.07801,-0.31706 2.65539,-1.07805 3.77091,-1.08351c0.96657,-0.00473 2.58962,1.21848 3.48582,1.03546c0.723,-0.14765 1.10357,-0.98076 1.67775,-1.44427c1.62107,-1.3086 3.24213,-2.61719 4.8632,-3.92579c0.27616,-0.22293 1.95326,-1.64809 2.27954,-1.57843c0.14292,0.03051 0.26283,0.10089 0.36796,0.19637c0.22935,-0.04039 0.43679,0.07275 0.43679,0.07275c1.46316,0.79809 2.92632,1.59617 4.38948,2.39426c0.61735,0.33674 1.08933,1.26075 1.78056,1.13147c0.29751,-0.05564 1.79602,-2.34308 2.05813,-2.65321c0.89656,-1.06084 2.97801,-4.58068 4.30753,-4.92665c0.96229,-0.2504 3.68149,1.09299 4.50574,1.63414l0.07898,-0.66344c0,0 0.23212,-0.5803 0.81242,-0.34818c0.5803,0.23212 0.34818,0.81242 0.34818,0.81242l-0.72102,1.33656c-0.84172,-0.19149 -3.98059,-1.74116 -4.69426,-1.56586c-0.67603,0.16605 -0.81292,1.13206 -1.26227,1.66374c-1.33918,1.58457 -2.62004,3.2561 -4.03432,4.77355c-0.37523,0.4026 -0.62835,1.06445 -1.16932,1.16563c-0.54097,0.10118 -1.01618,-0.42445 -1.51155,-0.66423c-1.31409,-0.63606 -2.59414,-1.36717 -3.8721,-2.09081c0.9666,1.37843 1.83752,2.85205 2.76482,4.24299c0.27942,0.41914 2.02053,3.66782 2.3051,3.70944c0.60113,0.08792 1.05182,-0.63727 1.63653,-0.80222c1.65347,-0.46644 3.43479,-0.69442 5.12362,-1.00504l1.25931,0.41364c0,0 0.59048,0.20484 0.38564,0.79532c-0.20484,0.59048 -0.79532,0.38564 -0.79532,0.38564l-0.93489,-0.34752c-1.54381,0.34131 -3.16178,0.52981 -4.68218,0.95613c-0.60578,0.16986 -1.85848,0.92214 -2.36347,0.79778c-0.94432,-0.23253 -2.43969,-3.40775 -2.9744,-4.20981c-0.9245,-1.38675 -1.849,-2.7735 -2.7735,-4.16025c-0.37877,-0.56816 -0.32667,-1.55683 -0.96125,-1.809c-0.19392,-0.07706 -0.18571,0.38217 -0.33269,0.53029c-0.58698,0.59153 -1.29685,1.04688 -1.94528,1.57032c-1.03948,0.83911 -2.71418,2.69447 -4.25893,3.85823c2.26965,0.99703 4.43578,0.38001 6.64651,1.23653c1.51043,0.5852 1.37403,3.0928 1.92387,1.63101l0.38651,-0.45093c0,0 0.40674,-0.47454 0.88128,-0.06779c0.47454,0.40674 0.06779,0.88128 0.06779,0.88128l-0.38651,0.45093c-0.4503,0.38805 -0.75761,1.12725 -1.3509,1.16416c-0.82527,0.05134 -1.11527,-2.16498 -1.95221,-2.435c-2.45043,-0.79059 -4.57956,-0.18537 -7.06443,-1.42781c0,0 -0.17521,-0.08761 -0.28041,-0.26282c-0.24983,0.1236 -0.48984,0.21303 -0.71594,0.2592c-1.1812,0.24122 -2.56176,-1.01592 -3.72981,-1.0102c-0.99447,0.00487 -2.46511,0.75061 -3.42433,1.03273c-3.05901,0.89971 -6.57887,1.47548 -9.48315,2.77734c-0.84102,0.37699 -1.635,0.88578 -2.38533,1.48227c-0.03096,1.01853 0.08694,2.12775 0.80519,2.48815c0.63516,0.3187 3.7785,-0.63583 4.58627,-0.74796c2.36449,-0.32825 6.56632,-1.77647 8.85956,-1.18384c0.98886,0.25555 2.4076,1.70287 3.24393,2.31404c0.57516,0.42031 0.94054,1.35104 1.6529,1.35467c0.71236,0.00363 1.08721,-0.92333 1.66662,-1.33775c1.21684,-0.87034 2.82069,-2.5211 4.23218,-2.99316c2.36737,-0.79176 5.65557,-0.04038 7.86948,0.75406l0.99086,0.84124c0,0 0.47301,0.40852 0.06448,0.88153c-0.40852,0.47301 -0.88153,0.06448 -0.88153,0.06448l-0.79971,-0.70524c-1.90448,-0.64545 -4.83464,-1.32368 -6.84711,-0.65061c-1.95984,0.65546 -4.18968,4.4062 -6.30164,4.39544c-0.25427,-0.0013 -2.07569,-1.37007 -2.38405,-1.59541c-0.69271,-0.50621 -1.99419,-1.897 -2.81151,-2.11108c-2.06032,-0.53967 -6.2229,0.90996 -8.38258,1.20977c-1.13473,0.15753 -4.30987,1.1333 -5.31875,0.62708c-0.94006,-0.47169 -1.29969,-1.4943 -1.41376,-2.57766c-1.79437,1.72648 -3.31713,3.86868 -4.62378,5.69799c0,0 -0.28414,0.39779 -0.70164,0.23847c-0.1364,0.05375 -0.31191,0.06033 -0.52136,-0.06159c-0.54015,-0.31442 -0.22574,-0.85457 -0.22574,-0.85457c1.37176,-2.35662 2.74352,-4.71323 4.11529,-7.06985c-1.1774,-1.25003 -3.6276,-3.44234 -3.79493,-4.7353c-0.23251,-1.79648 2.31659,-4.10948 2.64879,-5.86057c0.53854,-2.83877 -0.70497,-6.64057 -1.05066,-9.48422c0.38564,-1.11673 1.76586,-3.4511 1.69158,-4.59975c-0.07019,-1.08544 -1.61258,-2.14281 -1.69307,-3.28814c-0.13639,-1.94069 2.7745,-4.88494 1.50202,-6.50275l0.64164,-1.10402c0,0 0.55902,-0.27951 0.83853,0.27951c0.18732,0.37465 -0.00198,0.62376 -0.14723,0.74732c0.82268,2.32753 -1.74981,4.07226 -1.58862,6.48444c0.07304,1.09307 1.61956,2.14989 1.69412,3.30298c0.085,1.31446 -1.22418,3.56483 -1.69562,4.80913c0.47221,2.83001 1.576,6.7389 1.0354,9.58849c-0.28129,1.48272 -2.81556,4.08569 -2.63728,5.46672c0.1081,0.83734 2.05521,2.64674 3.20107,3.78682c0.2995,-0.51452 0.599,-1.02905 0.8985,-1.54357c0.60221,-1.03457 2.26029,-2.92374 2.39008,-4.10149c0.16886,-1.53234 -1.19294,-4.28285 -1.60099,-5.80495c-0.39024,-1.45568 -1.35521,-3.50847 -1.3158,-5.00773c0.04229,-1.60862 1.25833,-3.27434 1.55736,-4.85455c0.42725,-2.25777 -0.38967,-5.2858 0.46539,-7.41517c0.97781,-2.43505 3.85867,-4.98143 5.48153,-7.05718c0.89867,-1.14946 1.79733,-2.29892 2.696,-3.44837c-0.09042,-0.08231 -0.42089,-0.4303 -0.08479,-0.85899c0.38563,-0.49185 0.87748,-0.10623 0.87748,-0.10623l0.57568,1.24445c-1.02654,1.31301 -2.05307,2.62602 -3.07961,3.93904c-1.5439,1.97475 -4.35286,4.43242 -5.2971,6.72944c-0.81847,1.99107 -0.00078,5.06213 -0.40637,7.20543c-0.28193,1.48982 -1.49658,3.15566 -1.53599,4.65498c-0.03582,1.36249 0.91714,3.32157 1.2736,4.6512c0.36351,1.35595 1.32152,3.4534 1.58635,5.12275c0.83673,-1.92811 1.67346,-3.85623 2.51019,-5.78434c0.24362,-0.5614 1.51848,-2.54703 1.44624,-3.11196c-0.12891,-1.00807 -3.3083,-2.69729 -2.86566,-3.90782c0.4342,-1.18744 4.90081,-2.48957 6.03822,-3.00658c0.98115,-0.10794 -0.55766,-2.13267 -0.9519,-3l-0.44824,-0.98613c0,0 -0.25863,-0.56898 0.31035,-0.82761c0.56898,-0.25863 0.82761,0.31035 0.82761,0.31035l0.44824,0.98613c0.84354,1.85579 2.4006,3.37812 0.3312,4.65521c-1.3598,0.61809 -4.31492,1.28254 -5.34136,2.16596c-0.42891,0.36915 0.87478,0.73128 1.22344,1.177c0.21177,0.27072 1.64042,2.05928 1.668,2.27491c0.02758,0.21563 -0.90502,2.30615 -1.04184,2.62145c-1.1054,2.54722 -2.21079,5.09443 -3.31619,7.64165c1.14235,-0.6517 2.61567,-1.14052 3.65216,-1.65877c2.31471,-1.15736 4.46365,-2.55644 6.75081,-3.72584c-0.83866,-2.64415 -1.17582,-5.50657 -1.70454,-8.22967c-0.05475,-0.28196 -0.50585,-2.46637 -0.42406,-2.66899c0.14805,-0.36677 3.57192,-2.68144 3.5699,-2.69034c-0.6672,-2.93918 -6.15234,-5.66395 -3.49403,-8.59864c0.25141,-0.23345 1.91315,-1.80813 2.12508,-1.85399c1.4868,-0.32174 3.69781,1.48713 4.81103,2.22927l0.91987,0.61325c0,0 0.52003,0.34669 0.17334,0.86672c-0.34669,0.52003 -0.86672,0.17334 -0.86672,0.17334l-0.91987,-0.61325c-0.75801,-0.50534 -2.83883,-2.26713 -3.85327,-2.04761c-0.71119,0.1539 -1.00567,1.05313 -1.53889,1.54826c-1.75266,1.15466 3.98202,5.87723 3.87398,7.90249c-0.06912,1.29568 -3.19557,1.90221 -3.6301,2.90966c-0.18621,0.43171 0.61984,2.70752 0.71908,3.21866c0.35609,1.83403 0.74596,3.66394 1.05973,5.50564c1.37233,-1.42749 2.73473,-2.86569 4.1211,-4.27941c0.45956,-0.46863 1.28438,-0.53198 1.64716,-1.07897c0.44235,-0.66696 -0.36178,-2.6227 0.42337,-3.22497c0.26004,-0.19947 2.39177,-0.45687 2.83703,-0.51759c0.48782,-0.06652 1.68785,0.47157 1.47676,0.02678c-0.65041,-1.37051 -1.15491,-2.74987 -1.64346,-4.2155c-0.34989,-2.24287 1.08147,-1.10934 2.41764,-2.05177c0.62493,-0.44077 0.86074,-1.26444 1.30541,-1.88661l0.34253,-0.47927c0,0 0.36341,-0.50848 0.8719,-0.14507z" fill-opacity="0.10588" fill="#ffffff" stroke="none" stroke-width="0.5"/><path d="M294.19336,233.05126v-5.25h170.55664v5.25z" fill="#2f2414" stroke="#000000" stroke-width="0"/><path d="M287.68757,230.89579v-54.4h8.2v54.4z" fill="#2f2414" stroke="#000000" stroke-width="0"/><path d="M315.57098,235.94861l-32.33765,-36.181l0.04374,-19.16843l62.33765,55.51434z" fill-opacity="0.21961" fill="#ffef6e" stroke="#000000" stroke-width="0"/><path d="M282.79308,181.42735l36.181,-57.54086l19.16844,0.07784l-55.51434,110.92216z" fill-opacity="0.21961" fill="#ffef6e" stroke="#000000" stroke-width="0"/></g></g></g></svg>