<svg version="1.1" xmlns="http://www.w3.org/2000/svg" xmlns:xlink="http://www.w3.org/1999/xlink" width="76.33333" height="101" viewBox="0,0,76.33333,101"><g transform="translate(-321.83333,-129.5)"><g data-paper-data="{&quot;isPaintingLayer&quot;:true}" fill-rule="nonzero" stroke-linecap="butt" stroke-linejoin="miter" stroke-miterlimit="10" stroke-dasharray="" stroke-dashoffset="0" style="mix-blend-mode: normal"><path d="M321.83333,230.5v-101h76.33333v101z" fill="#273042" stroke="none" stroke-width="0"/><path d="M329.75471,196.83333v-61.66667h60.49068v61.66667z" fill="#0b0e13" stroke="none" stroke-width="0"/><path d="M343.08344,227.33333v-17.33333h33.83333v17.33333z" fill="#0b0e13" stroke="#000000" stroke-width="0"/><path d="M342.99992,209.125v-11.25h34.25v11.25z" fill="#273042" stroke="#000000" stroke-width="0"/><text transform="translate(340.91106,207.0298) scale(0.29415,0.29415)" font-size="40" xml:space="preserve" fill="#000000" fill-rule="nonzero" stroke="none" stroke-width="1" stroke-linecap="butt" stroke-linejoin="miter" stroke-miterlimit="10" stroke-dasharray="" stroke-dashoffset="0" font-family="&quot;GovtAgentBB&quot;, Serif" font-weight="normal" text-anchor="start" style="mix-blend-mode: normal"><tspan x="0" dy="0">Clutch</tspan></text><text transform="translate(351.55299,223.17375) scale(0.37559,0.37559)" font-size="40" xml:space="preserve" fill="#545454" fill-rule="nonzero" stroke="none" stroke-width="1" stroke-linecap="butt" stroke-linejoin="miter" stroke-miterlimit="10" stroke-dasharray="" stroke-dashoffset="0" font-family="&quot;Agency FB&quot;, Sans Serif" font-weight="normal" text-anchor="start" style="mix-blend-mode: normal"><tspan x="0" dy="0">OFF</tspan></text><g stroke="#000000" stroke-width="0"><path d="M355.50281,190.58625l2.00742,-7.94897l1.88189,0.47526l-2.00741,7.94896z" fill="#2f323e"/><path d="M356.29705,181.91902c-0.55665,-1.68511 0.6578,-7.00723 0.6578,-7.00723l6.42528,1.55949c0,0 -1.55926,5.06087 -2.57288,6.42152c-0.68348,0.91748 -1.76519,0.50943 -2.58209,0.30312c-0.6087,-0.15373 -1.6924,-0.56342 -1.92808,-1.2769z" fill="#2f323e"/><g><path d="M375.86856,173.87602c-0.03678,-1.73284 -0.54329,-2.76411 -0.58579,-4.08971c-0.04011,-1.25085 0.38529,-2.81553 0.30302,-3.7925c-0.20327,-2.41444 -0.50625,-4.10924 -0.13856,-5.55024c0.22958,-0.89978 1.42293,-2.167 1.8478,-2.86569c0.46492,-0.76455 3.05058,-0.21639 4.39581,0.9332c1.17119,1.00085 1.0786,2.40029 1.94283,4.51459c0.38662,0.94583 1.554,3.25428 1.79058,4.35899c0.39238,1.83221 -0.1385,2.81418 -0.29681,4.54857c-0.13266,1.45317 0.55245,3.82 0.43978,5.52177c-0.05258,0.79421 -0.81673,0.99992 -0.94176,1.70634c-0.15093,0.85277 0.10453,3.73586 -0.07161,4.49333c-0.50017,2.15097 -1.40782,2.62605 -2.09204,3.8686c-0.81205,1.47473 -0.72986,5.08695 -1.56579,5.86337c-1.22122,1.13427 -3.83755,0.7507 -4.80066,0.58022c-0.94553,-0.16736 -2.38712,0.41938 -3.06599,-0.83648c-0.52527,-0.97171 -0.68448,-3.09621 -0.64121,-5.35314c0.02579,-1.34504 -0.3952,-1.47607 -0.19595,-3.06223c0.11897,-0.94709 0.79098,-3.21417 0.99188,-4.3491c0.33898,-1.91516 2.76807,-2.54894 2.68444,-6.48986z" fill="#a3a3a3"/><path d="M378.06815,159.31901c0.79929,-0.00795 1.46296,1.56497 1.48235,3.51323c0.01939,1.94826 -0.61282,3.53409 -1.41211,3.54205c-0.79929,0.00795 -1.46297,-1.56496 -1.48237,-3.51322c-0.01939,-1.94826 0.61283,-3.53411 1.41211,-3.54207z" fill="#0d0d0d"/></g><path d="M378.32372,161.22214c0.39745,0.27987 0.60773,1.05675 0.63452,1.55182c0.01922,0.3551 -0.02781,1.03516 -0.2237,1.30149c-1.19374,1.62312 -5.80132,1.19486 -5.9184,-0.96924c-0.10949,-2.02411 3.8826,-3.0283 5.50756,-1.88408z" fill="#2f323e"/><g><path d="M347.43938,174.55301c-0.36206,1.09424 -0.84702,3.40854 -1.19198,4.29854c-0.57774,1.49058 -1.01047,1.40603 -1.62638,2.60203c-1.03348,2.00685 -2.18228,3.80104 -3.10596,4.40685c-1.19375,0.78296 -2.18392,-0.4179 -3.09552,-0.71954c-0.92857,-0.30725 -3.41331,-1.2119 -3.94955,-2.78999c-0.36707,-1.08022 1.42036,-4.22028 1.40585,-5.90375c-0.01222,-1.41841 -0.58548,-2.2675 -0.00442,-4.39803c0.20461,-0.75027 1.79834,-3.16637 2.07039,-3.98856c0.22535,-0.68107 -0.34949,-1.22493 -0.01868,-1.94887c0.70882,-1.55121 2.43554,-3.30897 3.00875,-4.65087c0.68414,-1.6016 0.68317,-2.71788 1.89843,-4.14411c0.73274,-0.85994 2.85615,-2.33731 3.64549,-2.98617c1.76446,-1.45044 2.34743,-2.72606 3.8534,-3.05084c1.72976,-0.37303 4.26565,0.37219 4.31181,1.26582c0.04221,0.81664 0.4908,2.49853 0.26563,3.3994c-0.36059,1.44279 -1.4319,2.79053 -2.75719,4.81894c-0.53625,0.82077 -0.90478,2.39982 -1.53399,3.48165c-0.66681,1.14648 -1.6022,1.8136 -2.45732,3.3212c-1.94473,3.42868 -0.10781,5.13981 -0.7188,6.98627z" fill="#a3a3a3"/><path d="M352.69496,157.49863c-0.9421,1.70546 -2.27302,2.77467 -2.97269,2.38816c-0.69968,-0.3865 -0.50314,-2.08236 0.43895,-3.78781c0.9421,-1.70546 2.27303,-2.77466 2.97269,-2.38815c0.69968,0.3865 0.50313,2.08237 -0.43895,3.78781z" fill="#0d0d0d"/></g><path d="M355.95802,159.53754c-1.13053,1.84903 -5.38899,0.03827 -5.66895,-1.95701c-0.04594,-0.3274 0.23556,-0.94823 0.42107,-1.25164c0.25864,-0.42301 0.81256,-1.00688 1.29525,-1.06448c1.97339,-0.23551 5.01002,2.54372 3.95263,4.27314z" fill="#2f323e"/><path d="M373.26869,181.61161c-0.09674,0.38313 -7.58334,1.38345 -14.37835,-0.33285c-6.78463,-1.71369 -12.87784,-6.14344 -12.78123,-6.52597c0.09627,-0.38123 6.24014,3.65406 13.00205,5.36002c6.81844,1.72022 14.25461,1.11439 14.15751,1.49881z" fill="#686e88"/><path d="M373.21804,181.39526c-0.2684,1.06275 -4.64508,12.4917 -16.86763,9.40505c-12.22254,-3.08666 -10.41048,-15.79449 -10.14209,-16.85725c0.2684,-1.06275 -1.10852,9.92202 11.11402,13.00868c12.22254,3.08666 16.1641,-6.61922 15.89571,-5.55647z" fill="#dadada"/><path d="M356.36183,184.86089l1.90673,-7.55025l2.83432,0.71578l-1.90672,7.55027z" fill="#24262f"/><path d="M347.22811,165.41032c2.04792,-8.10933 10.28198,-13.02305 18.39131,-10.97517c8.10932,2.04791 13.02307,10.28198 10.97516,18.39131c-2.04791,8.10933 -31.41436,0.69317 -29.36644,-7.41614z" fill="#dadada"/><path d="M350.43856,164.79021c0.88085,-3.48803 4.42254,-5.60154 7.91055,-4.72069c3.48803,0.88086 5.60155,4.42253 4.72068,7.91055c-0.88085,3.48803 -4.42254,5.60154 -7.91057,4.72068c-3.48803,-0.88086 -5.60153,-4.42254 -4.72067,-7.91055z" fill="#000000"/><path d="M360.65301,167.63193c0.88085,-3.48803 4.42252,-5.60154 7.91055,-4.72068c3.48803,0.88086 5.60153,4.42253 4.72067,7.91054c-0.88085,3.48803 -4.42252,5.60154 -7.91055,4.72068c-3.48803,-0.88086 -5.60154,-4.42253 -4.72067,-7.91054z" fill="#000000"/><path d="M378.23489,175.02514c-0.55484,2.08247 -6.67097,6.83819 -18.99296,3.72641c-12.32198,-3.11176 -14.91628,-10.42234 -14.41694,-12.51881c1.5474,-6.49683 4.00585,1.84024 16.32784,4.95201c12.32198,3.11176 18.87132,-2.87527 17.08207,3.84037z" fill="#ababab"/><path d="M356.21282,171.54913c1.39448,-5.52185 7.47467,-17.61136 9.14575,-17.18935c1.67109,0.42201 2.09633,12.94154 0.70185,18.46339c-1.39448,5.52185 -11.24207,4.24781 -9.84761,-1.27403z" fill="#ababab"/><path d="M366.57206,172.28011c-0.10312,0.40836 -3.59206,4.66424 -6.46754,3.93807c-2.87547,-0.72618 -4.04864,-6.15939 -3.94551,-6.56775c0.10313,-0.40835 10.51618,2.22134 10.41305,2.62969z" fill="#1d1d1d"/><g><path d="M379.96137,144.58579c-0.46329,1.83457 -5.83718,2.05952 -12.00292,0.50244c-6.16573,-1.55707 -10.78846,-4.30655 -10.32517,-6.14112c0.07663,-0.30345 0.43128,-1.16801 1.50226,-1.11356c4.13738,0.21034 15.13932,3.06721 19.53664,5.12504c1.34596,0.62987 1.37978,1.26838 1.28917,1.6272z" fill="#101010"/><path d="M379.77587,144.82547c-0.99588,3.94349 -3.09094,10.15058 -7.92183,11.73917c-3.42982,1.12786 -9.45093,-1.60992 -12.01057,-2.25635c-6.1649,-1.55687 -4.09563,-8.37749 -2.39269,-15.12077c0.61304,-2.42754 1.85277,0.2711 5.72778,0.52659c3.24456,0.21393 7.23402,2.63083 10.46593,2.7554c3.63036,0.13992 6.70798,0.07279 6.13139,2.35596z" fill="#0d0d0d"/></g><g><path d="M379.8537,157.51272c-0.10857,0.42992 -6.51659,-0.81764 -14.3127,-2.78645c-7.7961,-1.96882 -14.0281,-3.91335 -13.91953,-4.34327c0.10857,-0.42992 6.51658,0.81763 14.3127,2.78645c7.7961,1.96882 14.0281,3.91334 13.91954,4.34326z" fill="#101010"/><path d="M379.68923,157.53833c-0.23337,0.92409 -1.23516,2.24963 -6.65665,1.53864c-3.84912,-0.50479 -11.76004,-2.78783 -14.99655,-3.60517c-7.79509,-1.96855 -6.97433,-3.48203 -6.57529,-5.06222c0.14366,-0.56884 3.27494,1.22216 7.9978,2.24542c3.95447,0.85677 8.83701,2.55378 12.75441,3.38101c4.40034,0.9292 7.61137,0.9673 7.47628,1.50232z" fill="#0d0d0d"/></g><path d="M376.58447,154.28304c-0.08804,0.34867 -0.09929,1.5045 -1.02711,1.57338c-0.78584,0.05833 -1.93052,-0.28621 -3.33619,-0.51572c-1.44106,-0.23528 -3.15337,-0.3618 -4.78178,-0.81021c-0.82216,-0.2264 -1.34785,-0.77941 -2.17862,-0.98921c-1.25391,-0.31666 -2.79121,-0.41798 -4.20849,-0.84691c-1.23087,-0.37251 -2.35054,-1.07402 -3.3733,-1.3574c-1.27039,-0.35201 -2.10295,-0.29666 -2.7694,-0.66749c-1.12373,-0.62528 -0.07291,-1.43219 0.03306,-1.8518c0.08885,-0.35184 -0.00312,-1.73921 0.9397,-1.80622c0.87349,-0.06207 2.38218,-0.1024 3.99595,0.40969c1.17611,0.37322 2.35733,1.24066 3.63853,1.61943c0.99348,0.29372 1.74828,0.26604 2.74951,0.51888c1.00303,0.2533 1.9127,0.76752 3.02395,0.95534c1.30814,0.22111 2.7356,0.07555 3.96721,0.21895c1.72965,0.20138 3.14317,0.69506 3.91135,1.14401c0.9887,0.5778 -0.48523,2.01264 -0.58439,2.40531z" fill="#801d1d"/></g></g></g></svg>