<svg version="1.1" xmlns="http://www.w3.org/2000/svg" xmlns:xlink="http://www.w3.org/1999/xlink" width="758.25826" height="394.76081" viewBox="0,0,758.25826,394.76081"><defs><radialGradient cx="360" cy="180" r="362.61261" gradientUnits="userSpaceOnUse" id="color-1"><stop offset="0" stop-color="#000000" stop-opacity="0.83922"/><stop offset="1" stop-color="#000000" stop-opacity="0"/></radialGradient><radialGradient cx="360" cy="180" r="362.61262" gradientUnits="userSpaceOnUse" id="color-2"><stop offset="0" stop-color="#000000" stop-opacity="0"/><stop offset="1" stop-color="#000000"/></radialGradient><linearGradient x1="-12.50451" y1="188.24325" x2="148.32658" y2="188.24325" gradientUnits="userSpaceOnUse" id="color-3"><stop offset="0" stop-color="#000000"/><stop offset="1" stop-color="#000000" stop-opacity="0"/></linearGradient><linearGradient x1="743.41667" y1="185" x2="582.58559" y2="185" gradientUnits="userSpaceOnUse" id="color-4"><stop offset="0" stop-color="#000000"/><stop offset="1" stop-color="#000000" stop-opacity="0"/></linearGradient><linearGradient x1="364.5428" y1="-9.95495" x2="364.5428" y2="117.67268" gradientUnits="userSpaceOnUse" id="color-5"><stop offset="0" stop-color="#000000"/><stop offset="1" stop-color="#000000" stop-opacity="0"/></linearGradient><linearGradient x1="363.53679" y1="384.56562" x2="363.53679" y2="256.93799" gradientUnits="userSpaceOnUse" id="color-6"><stop offset="0" stop-color="#000000"/><stop offset="1" stop-color="#000000" stop-opacity="0"/></linearGradient></defs><g transform="translate(14.84159,10.1952)"><g stroke-miterlimit="10"><g><path d="M-13,153v-160.3741h746v160.3741z" fill="#323232" stroke="#000000" stroke-width="0"/><path d="M-12.41291,360.00001v-160.3741h746v160.3741z" fill="#323232" stroke="#000000" stroke-width="0"/><path d="M246.5,244.00002v-128h227v128z" fill="#383838" stroke="#000000" stroke-width="0"/><path d="M0,360.00001v-360l295,116l1,128.5z" fill="#505050" stroke="none" stroke-width="0"/><path d="M720,0.00001v360l-295,-116l-1,-128.5z" fill="#505050" stroke="none" stroke-width="0"/><path d="M320.83333,244.00002v-115.09353h78.33333v115.09353z" fill="#000000" stroke="#000000" stroke-width="0"/><text transform="translate(344.4571,125.99879) scale(0.24554,0.24554)" font-size="40" xml:space="preserve" fill="#000000" stroke="#000000" stroke-width="2" font-family="&quot;Agency FB&quot;, Sans Serif" font-weight="normal" text-anchor="start"><tspan x="0" dy="0">AOE Room</tspan></text><path d="M600.14393,314.73913l-97.03387,-38.15569l2.46128,-193.39409l97.20197,-37.92847z" fill="#000000" stroke="none" stroke-width="0"/><path d="M114.11006,45.26088l97.20197,37.92847l2.46128,193.39409l-97.03387,38.15569z" fill="#000000" stroke="none" stroke-width="0"/><text transform="translate(33.52047,72.22875) rotate(17.60703) scale(0.45116,0.80888) skewX(26.88808)" font-size="40" xml:space="preserve" fill="#000000" stroke="#000000" stroke-width="2" font-family="&quot;Agency FB&quot;, Sans Serif" font-weight="normal" text-anchor="start"><tspan x="0" dy="0">PowerRoom</tspan></text><text transform="translate(613.71239,85.53701) rotate(-27.96803) scale(0.62697,0.6459) skewX(-35.6261)" font-size="40" xml:space="preserve" fill="#000000" stroke="#000000" stroke-width="2" font-family="&quot;Agency FB&quot;, Sans Serif" font-weight="normal" text-anchor="start"><tspan x="0" dy="0">Supervision</tspan><tspan x="0" dy="46.150000000000006px">Room</tspan></text><g stroke="#000000" stroke-width="0"><path d="M-2.61261,366.1862v-372.37237h725.22523v372.37237z" fill="url(#color-1)"/><path d="M-2.61262,366.1862v-372.37237h725.22523v372.37237z" fill="url(#color-2)"/></g><g stroke="none" stroke-width="0"><path d="M-12.50451,383.43844v-390.39039h160.83109v390.39039z" fill="url(#color-3)"/><path d="M582.58559,380.19519v-390.39039h160.83108v390.39039z" fill="url(#color-4)"/><path d="M-13.83558,117.67268v-127.62762h756.75676v127.62763z" fill="url(#color-5)"/><path d="M741.91517,256.93799v127.62762h-756.75676v-127.62762z" fill="url(#color-6)"/></g></g></g></g></svg>