<svg version="1.1" xmlns="http://www.w3.org/2000/svg" xmlns:xlink="http://www.w3.org/1999/xlink" width="70.82007" height="91.45427" viewBox="0,0,70.82007,91.45427"><g transform="translate(-534.96107,-134.27287)"><g data-paper-data="{&quot;isPaintingLayer&quot;:true}" fill-opacity="0.51765" fill="#5de67e" fill-rule="nonzero" stroke="none" stroke-width="0" stroke-linejoin="miter" stroke-miterlimit="10" stroke-dasharray="" stroke-dashoffset="0" style="mix-blend-mode: normal"><g data-paper-data="{&quot;index&quot;:null}"><g><path d="M580.14099,201.1889c7.74398,-2.1234 15.03041,-0.16609 16.2747,4.37179c1.24428,4.53788 -4.02476,9.9379 -11.76874,12.06131c-7.74398,2.1234 -15.03041,0.16609 -16.27469,-4.37179c-1.24428,-4.53787 4.02476,-9.9379 11.76873,-12.06131z" stroke-linecap="butt"/><g><g><g><path d="M593.72198,215.48656c-0.35983,0.20459 -1.92844,-0.92624 -1.92844,-0.92624l-7.29561,-12.83174c0,0 -0.30677,-2.16762 0.05307,-2.37221c0.3197,-0.18178 1.99979,1.20502 1.99979,1.20502l7.29563,12.83175c0,0 0.19529,1.91164 -0.12443,2.09341z" stroke-linecap="butt"/><path d="M593.87323,213.5043l-1.93577,0.88769" stroke-linecap="round"/><path d="M586.46693,200.68226l-1.66864,0.94871" stroke-linecap="round"/><path d="M590.08043,207.03779l-2.53039,-0.15815" stroke-linecap="round"/><path d="M587.23174,203.86694c0.14551,-0.08274 0.31468,-0.05976 0.37783,0.05132c0.06317,0.11108 -0.00361,0.26819 -0.14912,0.35093c-0.14552,0.08273 -0.31466,0.05975 -0.37782,-0.05132c-0.06316,-0.11107 0.00361,-0.2682 0.14912,-0.35092z" stroke-linecap="butt"/><path d="M590.75738,210.27241c0.14551,-0.08274 0.31467,-0.05975 0.37782,0.05132c0.06317,0.11108 -0.0036,0.26819 -0.14912,0.35092c-0.14551,0.08274 -0.31466,0.05975 -0.37782,-0.05132c-0.06317,-0.11108 0.0036,-0.26819 0.14912,-0.35093z" stroke-linecap="butt"/></g><g><path d="M580.95259,210.30691l-0.46801,-1.70682c0,0 0.48364,-0.7301 1.79261,-1.08902c1.17722,-0.3228 1.7798,0.10945 1.7798,0.10945l0.46801,1.70683z" stroke-linecap="butt"/><g><path d="M583.62365,217.3917l-3.83145,-14.25482c0,0 0.22004,-2.16736 0.5752,-2.26283c0.39974,-0.10744 1.70533,1.64986 1.70533,1.64986l3.83146,14.25482c0,0 -0.32071,1.90695 -0.72044,2.01439c-0.35518,0.09547 -1.5601,-1.40141 -1.5601,-1.40141z" stroke-linecap="butt"/><path d="M585.68346,216.76021l-2.00078,0.72943" stroke-linecap="round"/><path d="M581.79047,202.66568l-1.8537,0.49824" stroke-linecap="round"/><path d="M583.52297,208.33304l-1.68848,1.89126" stroke-linecap="round"/><path d="M581.63158,205.96657c0.16165,-0.04344 0.31958,0.02136 0.35274,0.14476c0.03316,0.12339 -0.07099,0.25865 -0.23263,0.3021c-0.16164,0.04344 -0.31958,-0.02136 -0.35274,-0.14476c-0.03317,-0.12339 0.07098,-0.25867 0.23263,-0.30211z" stroke-linecap="butt"/><path d="M583.62685,213.00072c0.16165,-0.04344 0.31957,0.02136 0.35273,0.14476c0.03317,0.12339 -0.07098,0.25865 -0.23262,0.30209c-0.16165,0.04344 -0.31958,-0.02135 -0.35274,-0.14476c-0.03317,-0.12339 0.07099,-0.25866 0.23263,-0.3021z" stroke-linecap="butt"/></g><path d="M581.08503,209.54506l-0.52499,-1.13639c0,0 1.08536,-0.08423 1.84062,-0.29133c0.90753,-0.24884 1.53332,-0.63381 1.53332,-0.63381l0.12806,1.24523z" stroke-linecap="butt"/><path d="M584.96119,210.804c0,0 -0.94567,0.46882 -1.51471,0.62485c-0.62305,0.17084 -2.07625,0.35979 -2.07625,0.35979l-0.90729,-3.15325c0,0 0.9415,0.22294 2.12026,-0.10028c1.04535,-0.28663 1.51041,-0.89525 1.51041,-0.89525l0.86761,3.16413z" stroke-linecap="butt"/></g><g><path d="M575.87551,218.92902c-0.36771,0.00672 -1.17478,-1.73717 -1.17478,-1.73717l-0.26957,-14.75829c0,0 0.73776,-2.04978 1.10548,-2.05649c0.41386,-0.00756 1.2556,2.01337 1.2556,2.01337l0.26958,14.75829c0,0 -0.77245,1.77273 -1.18631,1.78029z" stroke-linecap="butt"/><path d="M576.85213,217.07735l-2.1178,0.2238" stroke-linecap="round"/><path d="M576.48407,202.4597l-1.91916,0.03505" stroke-linecap="round"/><path d="M576.79425,208.37783l-2.09583,1.42667" stroke-linecap="round"/><path d="M575.53146,205.62412c0.16735,-0.00305 0.30492,0.09803 0.30724,0.22579c0.00233,0.12775 -0.13144,0.2338 -0.2988,0.23686c-0.16736,0.00305 -0.30494,-0.09804 -0.30726,-0.2258c-0.00234,-0.12775 0.13144,-0.2338 0.2988,-0.23686z" stroke-linecap="butt"/><path d="M575.76597,212.932c0.16736,-0.00305 0.30493,0.09804 0.30725,0.22579c0.00233,0.12776 -0.13144,0.2338 -0.2988,0.23685c-0.16736,0.00305 -0.30493,-0.09803 -0.30726,-0.22578c-0.00234,-0.12775 0.13144,-0.2338 0.2988,-0.23685z" stroke-linecap="butt"/></g><path d="M572.80035,217.69713l-5.48551,-20.0055l21.84274,-5.98929l5.48552,20.0055z" stroke-linecap="butt"/><g><g><g><g><g stroke-linecap="butt"><path d="M561.81209,211.9687c-5.44495,-19.29725 33.83315,-33.64359 39.77478,-10.40505c0.72217,3.30702 0.70794,9.44597 -2.62548,14.70567c-1.31163,2.06958 -3.07101,3.95515 -5.33134,5.49748c-0.49725,0.3393 -1.69373,2.60296 -2.24004,2.90734c-0.4051,0.22571 -0.14888,-1.49963 -0.58151,-1.29474c-0.41555,0.19679 -2.06707,1.92622 -2.50842,2.10256c-0.89009,0.35562 -0.60991,-0.87419 -1.60746,-0.60931c-7.70278,2.04546 -13.52008,0.17665 -17.75734,-3.04439c-3.65849,-2.78107 -6.19105,-6.55595 -7.12321,-9.85959zM584.54098,215.9488c2.76219,-0.75739 11.56486,-5.4506 10.80746,-8.21279c-0.75739,-2.7622 -5.00308,-8.99886 -12.17122,-7.03335c-8.35896,2.29203 -14.92791,9.06145 -14.17052,11.82364c0.7895,2.87929 12.65499,4.21201 15.53427,3.42251z"/><path d="M564.99517,209.48552c-0.3271,-1.19294 2.15117,-5.50912 16.08398,-9.23212c11.91907,-3.46767 15.70326,-0.53334 16.27157,0.91491c1.06795,2.52763 1.72968,7.30381 -0.45801,11.65394c-1.67409,3.32889 -4.94275,6.38801 -11.4181,8.12071c-5.47645,1.4653 -9.26801,1.12598 -12.18274,-0.1202c-5.26061,-2.24916 -7.26179,-7.56294 -8.2967,-11.33724zM592.53084,206.33204c-1.16483,-4.42464 -5.94375,-4.99614 -10.98617,-3.64534c-5.04242,1.3508 -10.56637,4.22929 -9.29014,9.07708c1.27623,4.84778 7.87346,3.79842 12.37095,2.62545c4.49749,-1.17297 9.07019,-3.63255 7.90536,-8.05719z"/></g><g><path d="M596.44414,207.26571c0,0 -2.88609,8.66811 -11.61393,10.97275c-3.9576,1.04503 -8.01166,0.41842 -10.95765,-0.68908c-2.93067,-1.10173 -4.76357,-2.68167 -4.76357,-2.68167c0,0 0.39991,-0.23739 0.57765,-0.3429c0.27775,-0.16488 0.5205,-0.17179 0.79927,0.02026c0.81583,0.56206 2.90858,1.84956 5.73744,2.4622c2.53157,0.54826 5.53061,0.49916 8.16994,-0.13294c2.51903,-0.58073 5.6037,-2.47697 7.33584,-4.17089c1.98932,-1.94542 3.07113,-4.09613 3.49087,-4.94913c0.129,-0.26217 0.29042,-0.41161 0.57007,-0.3882c0.19683,0.01647 0.65408,-0.1004 0.65408,-0.1004z" stroke-linecap="butt"/><path d="M596.77612,208.10928c0,0 0.11856,2.8559 -2.35526,5.85291c-1.64745,1.99589 -4.80647,4.15359 -8.59325,5.20936c-5.21331,1.45349 -9.69351,1.26108 -12.47,0.09578c-2.96285,-1.24354 -4.04744,-3.51713 -4.04744,-3.51713c0,0 -0.06292,-0.22949 -0.18658,-0.68045c-0.11297,-0.41199 0.36639,-0.28739 0.6944,-0.03863c1.00939,0.7655 2.82921,1.91836 5.35144,2.61769c2.64094,0.73226 6.24817,0.8508 9.81763,-0.08716c3.09843,-1.02173 6.00389,-2.76707 7.77095,-4.63535c1.904,-2.01305 2.86483,-4.11297 3.299,-5.31235c0.1298,-0.35854 0.45628,-0.46329 0.56054,-0.08306c0.12216,0.44553 0.15859,0.57838 0.15859,0.57838z" stroke-linecap="butt"/><path d="M595.36319,210.35016l0.24921,1.0413" stroke-linecap="round"/><path d="M593.38852,213.11475l0.2492,1.04129" stroke-linecap="round"/><path d="M590.69185,215.33236l0.24921,1.04129" stroke-linecap="round"/><path d="M587.49511,217.1168l0.24921,1.04129" stroke-linecap="round"/><path d="M583.57038,218.33262l0.2492,1.04129" stroke-linecap="round"/><path d="M579.54518,219.77777l-0.2492,-1.04129" stroke-linecap="round"/><path d="M575.52779,218.43701l0.24922,1.04129" stroke-linecap="round"/><path d="M572.00456,218.0044l-0.2492,-1.04129" stroke-linecap="round"/></g></g><path d="M599.55273,200.47194c0.78919,-0.2164 1.67957,0.52214 1.98871,1.64956c0.30914,1.12742 -0.08002,2.2168 -0.86921,2.4332c-0.7892,0.2164 -1.67957,-0.52214 -1.9887,-1.64956c-0.30914,-1.12742 0.08002,-2.2168 0.86921,-2.4332z" stroke-linecap="butt"/><path d="M591.63,194.27097c0.94704,-0.25968 1.92088,0.28154 2.17514,1.20884c0.25427,0.9273 -0.30732,1.88953 -1.25436,2.14921c-0.94703,0.25967 -1.92088,-0.28154 -2.17515,-1.20884c-0.25426,-0.9273 0.30732,-1.88953 1.25437,-2.14921z" stroke-linecap="butt"/><path d="M596.19697,195.93786c0.73,-0.20016 1.51915,0.35731 1.76259,1.24516c0.24345,0.88785 -0.15098,1.76985 -0.88099,1.97002c-0.73,0.20016 -1.51914,-0.3573 -1.76259,-1.24515c-0.24345,-0.88785 0.15098,-1.76986 0.88099,-1.97003z" stroke-linecap="butt"/><path d="M599.01803,199.08215c0.39459,-0.1082 0.80658,0.13997 0.92019,0.55429c0.11361,0.41432 -0.11418,0.83792 -0.50878,0.94612c-0.39459,0.1082 -0.80658,-0.13997 -0.92019,-0.55429c-0.11361,-0.41432 0.11418,-0.83792 0.50878,-0.94612z" stroke-linecap="butt"/><path d="M598.50291,197.76382c0.15784,-0.04328 0.33842,0.11356 0.40334,0.35032c0.06492,0.23676 -0.01041,0.46377 -0.16824,0.50705c-0.15784,0.04328 -0.33842,-0.11356 -0.40334,-0.35032c-0.06492,-0.23676 0.01041,-0.46377 0.16825,-0.50705z" stroke-linecap="butt"/><path d="M592.87476,218.28164c0.45379,-0.12443 0.94445,0.22254 1.09593,0.77498c0.15148,0.55244 -0.09359,1.10114 -0.54738,1.22557c-0.45378,0.12443 -0.94445,-0.22254 -1.09593,-0.77497c-0.15148,-0.55244 0.09359,-1.10115 0.54738,-1.22557z" stroke-linecap="butt"/><path d="M593.62151,217.92321c0.65108,-0.17853 1.33239,0.23654 1.52174,0.92709c0.18935,0.69055 -0.18497,1.39507 -0.83605,1.5736c-0.65108,0.17853 -1.33239,-0.23654 -1.52175,-0.92709c-0.18935,-0.69055 0.18497,-1.39507 0.83606,-1.5736z" stroke-linecap="butt"/><path d="M594.83841,216.89818c0.35513,-0.09737 0.75267,0.22353 0.88792,0.71678c0.13525,0.49326 -0.04301,0.97205 -0.39814,1.06942c-0.35514,0.09738 -0.75267,-0.22354 -0.88792,-0.71679c-0.13525,-0.49326 0.04301,-0.97204 0.39814,-1.06942z" stroke-linecap="butt"/><path d="M591.68577,219.14538c0.55483,-0.15213 1.14494,0.23635 1.31806,0.86771c0.17312,0.63136 -0.13632,1.2665 -0.69115,1.41864c-0.55482,0.15213 -1.14494,-0.23634 -1.31806,-0.86771c-0.17312,-0.63136 0.13632,-1.26651 0.69115,-1.41864z" stroke-linecap="butt"/><path d="M595.3017,218.30755c0.31568,-0.08656 0.61544,0.00321 0.66953,0.20051c0.0541,0.19729 -0.15794,0.42741 -0.47362,0.51397c-0.31567,0.08656 -0.61544,-0.00321 -0.66953,-0.20051c-0.0541,-0.19729 0.15794,-0.42741 0.47362,-0.51397z" stroke-linecap="butt"/><path d="M595.85481,216.54264c0.1381,-0.03787 0.26761,-0.00459 0.28925,0.07433c0.02164,0.07892 -0.07278,0.1736 -0.21088,0.21147c-0.1381,0.03787 -0.26761,0.00459 -0.28925,-0.07433c-0.02164,-0.07892 0.07278,-0.1736 0.21089,-0.21147z" stroke-linecap="butt"/><path d="M590.72556,221.79011c0.11837,-0.03245 0.24504,0.05319 0.28291,0.1913c0.03787,0.1381 -0.0274,0.27638 -0.14577,0.30884c-0.11837,0.03245 -0.24504,-0.05319 -0.28291,-0.19129c-0.03787,-0.1381 0.02741,-0.27639 0.14577,-0.30884z" stroke-linecap="butt"/><path d="M563.47248,211.21018c0.67083,-0.18394 1.36373,0.21076 1.54767,0.88157c0.18394,0.67083 -0.21075,1.36373 -0.88157,1.54767c-0.67082,0.18394 -1.36373,-0.21076 -1.54767,-0.88157c-0.18394,-0.67083 0.21074,-1.36373 0.88157,-1.54767z" stroke-linecap="butt"/><path d="M564.7459,213.4729c0.65108,-0.17853 1.36309,0.3485 1.59031,1.17716c0.22722,0.82866 -0.1164,1.64514 -0.76749,1.82367c-0.65108,0.17853 -1.36308,-0.3485 -1.5903,-1.17716c-0.22722,-0.82866 0.1164,-1.64513 0.76748,-1.82366z" stroke-linecap="butt"/><path d="M564.36098,212.34932c0.5327,-0.14607 1.12243,0.31132 1.31719,1.02159c0.19476,0.71028 -0.0792,1.40448 -0.6119,1.55056c-0.5327,0.14606 -1.12243,-0.31132 -1.31719,-1.02159c-0.19476,-0.71027 0.0792,-1.40448 0.61191,-1.55055z" stroke-linecap="butt"/><path d="M566.11379,215.94016c0.3354,-0.09196 0.68186,0.10538 0.77383,0.44079c0.09197,0.3354 -0.10537,0.68186 -0.44078,0.77383c-0.3354,0.09196 -0.68187,-0.10538 -0.77384,-0.44079c-0.09196,-0.3354 0.10537,-0.68186 0.44079,-0.77383z" stroke-linecap="butt"/><path d="M565.99509,214.66677c0.17756,-0.04869 0.34784,0.00781 0.38029,0.12618c0.03246,0.11837 -0.08518,0.25381 -0.26275,0.3025c-0.17756,0.04869 -0.34782,-0.00781 -0.38028,-0.12618c-0.03246,-0.11837 0.08518,-0.25381 0.26274,-0.3025z" stroke-linecap="butt"/><path d="M564.91302,216.88398c0.09866,-0.02705 0.20056,0.03099 0.22761,0.12964c0.02705,0.09866 -0.031,0.20056 -0.12965,0.22761c-0.09866,0.02705 -0.20055,-0.031 -0.2276,-0.12965c-0.02705,-0.09866 0.03099,-0.20055 0.12964,-0.2276z" stroke-linecap="butt"/><path d="M575.6326,222.77896c0.15784,-0.04328 0.31649,0.0336 0.35436,0.1717c0.03787,0.1381 -0.05938,0.28515 -0.21722,0.32843c-0.15783,0.04328 -0.31649,-0.0336 -0.35436,-0.1717c-0.03787,-0.1381 0.05939,-0.28515 0.21722,-0.32843z" stroke-linecap="butt"/><path d="M574.45024,222.94952c0.11837,-0.03245 0.23627,0.02121 0.26333,0.11986c0.02705,0.09866 -0.047,0.20494 -0.16537,0.23739c-0.11837,0.03245 -0.23627,-0.0212 -0.26332,-0.11985c-0.02705,-0.09866 0.04699,-0.20494 0.16536,-0.2374z" stroke-linecap="butt"/></g><path d="M579.72846,224.11156l-0.51105,1.08254c0,0 -0.64607,-1.25748 -0.77328,-1.31435c-0.26938,-0.12041 -0.44669,0.99155 -0.44669,0.99155c0,0 -0.26899,-1.17393 -0.49912,-1.32091c-0.28963,-0.18499 -0.49125,0.39489 -0.49125,0.39489l-0.14719,-0.89165" stroke-linecap="round"/></g><path d="M600.65854,199.92444c0.40472,1.04503 0.68841,2.18052 0.86883,3.49435c0.22696,1.65275 0.11902,4.72309 -0.51036,7.40771c-0.57474,2.45154 -1.62996,4.59394 -2.3396,4.78852c-0.8504,0.23318 -1.63977,-0.55658 -1.42352,-2.52038c0.06987,-0.63437 0.54261,-1.41224 0.81348,-2.16147c0.33384,-0.92338 0.46448,-2.30439 0.54389,-3.22742c0.15031,-1.74722 -0.0098,-3.71784 -0.28437,-4.71918c-0.90165,-3.28832 -2.14082,-3.56915 -2.14082,-3.56915c0,0 3.24105,-2.67254 4.47248,0.50702z" stroke-linecap="butt"/><path d="M565.19996,207.32177c0,0 -0.44858,0.30906 -0.50514,1.50689c-0.02555,0.54109 -0.02542,1.31323 0.2593,2.35161c0.27864,1.01621 1.11887,2.83025 2.08817,4.29579c0.51207,0.77423 1.00558,1.83334 1.71314,2.48353c0.3347,0.30756 1.23738,1.21725 2.18458,1.90574c0.67755,0.4925 1.48355,0.80116 1.6352,1.01994c1.12578,1.6241 1.45455,2.68312 0.68783,2.89336c-0.63981,0.17543 -4.90279,-2.4994 -6.5421,-4.3779c-1.79518,-2.0571 -3.37863,-4.70882 -4.01218,-6.27553c-0.50363,-1.24544 -0.84086,-2.38426 -1.04094,-3.50257c-0.60878,-3.40251 3.53214,-2.30086 3.53214,-2.30086z" stroke-linecap="butt"/></g></g><g><path d="M567.35891,212.81584c-0.08853,-0.32286 0.28014,-0.63551 0.96172,-0.82239c0.68157,-0.18688 1.30587,-0.07667 1.39439,0.24618c0.08853,0.32286 -0.37443,0.80104 -1.056,0.98792c-0.68157,0.18688 -1.21159,-0.08885 -1.30011,-0.41171z" stroke-linecap="butt"/><g><path d="M566.32039,204.82455l-0.24409,-1.7529c0,0 0.31156,-0.62517 1.11633,-0.73722c0.72377,-0.10079 1.08003,0.43139 1.08003,0.43139l0.24409,1.75292z" stroke-linecap="butt"/><g><path d="M569.17848,212.05028c0,0 0.16636,0.54089 -0.65102,0.65271c-0.75063,0.1027 -0.75078,-0.46956 -0.75078,-0.46956l-1.99153,-14.62566l1.40181,-0.18315l1.99154,14.62566z" stroke-linecap="butt"/><path d="M569.04466,211.99195l-1.2344,0.34794" stroke-linecap="round"/><path d="M567.93093,203.3646l-1.07208,1.54" stroke-linecap="round"/><path d="M566.83672,200.7077c0.09935,-0.01298 0.19388,0.07913 0.21111,0.20574c0.01724,0.12661 -0.04932,0.23976 -0.14869,0.25275c-0.09936,0.01298 -0.1939,-0.07912 -0.21114,-0.20574c-0.01724,-0.12661 0.04933,-0.23978 0.1487,-0.25276z" stroke-linecap="butt"/><path d="M567.88308,207.94393c0.09936,-0.01298 0.19388,0.07913 0.21112,0.20574c0.01724,0.12661 -0.04931,0.23977 -0.14869,0.25275c-0.09936,0.01298 -0.19389,-0.07912 -0.21113,-0.20573c-0.01724,-0.1266 0.04933,-0.23976 0.1487,-0.25275z" stroke-linecap="butt"/></g><path d="M566.41913,204.10432l-0.29232,-1.20596c0,0 0.66222,0.11557 1.12657,0.05092c0.55796,-0.07769 0.94778,-0.33975 0.94778,-0.33975l0.04827,1.23995z" stroke-linecap="butt"/><path d="M568.74697,206.04094c0,0 -0.58641,0.28566 -0.93626,0.33437c-0.38306,0.05335 -1.27152,-0.02694 -1.27152,-0.02694l-0.47689,-3.24618c0,0 0.56739,0.38944 1.29211,0.28853c0.6427,-0.08949 0.94006,-0.59934 0.94006,-0.59934l0.45249,3.24957z" stroke-linecap="butt"/></g></g><g><path d="M595.82486,204.63743c0.68158,-0.18689 1.15816,-0.10601 1.24669,0.21685c0.08853,0.32286 -0.22672,0.83038 -0.90829,1.01726c-0.68157,0.18688 -1.32368,0.01172 -1.41221,-0.31114c-0.08853,-0.32286 0.39224,-0.73609 1.07381,-0.92297z" stroke-linecap="butt"/><g><path d="M591.84367,198.30811l-0.68412,-1.63225c0,0 0.035,-0.63946 0.70894,-0.92193c0.74938,-0.31408 1.33623,0.06473 1.33623,0.06473l0.68412,1.63225z" stroke-linecap="butt"/><g><path d="M596.00889,205.35324c-0.7601,0.32073 -0.8929,-0.22937 -0.8929,-0.22937l-5.74684,-13.59596l1.29917,-0.55746l5.74685,13.59595c0,0 0.29175,0.49228 -0.40629,0.78682z" stroke-linecap="butt"/><path d="M595.2013,205.00543l1.23923,-0.33033" stroke-linecap="round"/><path d="M591.75886,197.01662l1.70763,0.77781" stroke-linecap="round"/><path d="M591.34493,194.17318c0.09209,-0.03951 0.20707,0.02387 0.25681,0.14157c0.04976,0.1177 0.01543,0.24514 -0.07667,0.28465c-0.09209,0.03951 -0.20706,-0.02387 -0.25681,-0.14156c-0.04975,-0.11769 -0.01543,-0.24512 0.07666,-0.28463z" stroke-linecap="butt"/><path d="M594.13578,200.93109c0.0921,-0.03951 0.20708,0.02387 0.25682,0.14155c0.04975,0.1177 0.01544,0.24513 -0.07666,0.28464c-0.09209,0.03951 -0.20706,-0.02386 -0.25681,-0.14156c-0.04976,-0.1177 -0.01544,-0.24514 0.07666,-0.28465z" stroke-linecap="butt"/></g><path d="M591.73227,197.59613l-0.59092,-1.09115c0,0 0.46896,0.02658 0.98851,-0.19118c0.43239,-0.18123 0.94305,-0.61839 0.94305,-0.61839l0.36367,1.1864z" stroke-linecap="butt"/><path d="M593.39792,199.54495c-0.32577,0.13654 -0.97586,0.18992 -0.97586,0.18992l-1.26825,-3.02589c0,0 0.51583,0.28687 1.11429,0.03605c0.67484,-0.28284 0.96424,-0.90722 0.96424,-0.90722l1.24553,3.03542c0,0 -0.72326,0.52221 -1.07995,0.67172z" stroke-linecap="butt"/></g></g></g></g><g><g stroke-linecap="butt"><path d="M563.46423,181.59983c-1.50369,2.62884 -7.58821,-2.05601 -9.59959,-3.06032c-1.02434,-0.51147 -1.59061,-1.48575 -2.48315,-1.95622c-0.19386,-0.10218 -0.93619,3.45749 -4.15637,4.12943c-0.80832,0.16867 -3.11604,0.18124 -4.74284,-0.50231c-2.64893,-1.11301 -6.32771,-3.91757 -6.48436,-5.02526c-0.11669,-0.82517 1.92245,0.22984 4.21979,1.22312c0.22414,0.0969 1.76386,0.50903 1.52636,-0.25572c-0.31866,-1.02609 -1.26283,-2.54965 -0.95964,-2.43659c0.41511,0.15479 0.67674,0.59936 1.66395,1.80848c0.84974,1.04074 1.24335,2.10735 1.55007,2.15528c0.73849,0.11541 1.3655,0.07178 1.78381,-0.23041c1.26101,-0.91098 1.76342,-3.50744 1.61366,-3.62895c-1.48429,-1.20436 -2.93921,-2.61379 -4.23476,-4.26002c-5.65435,-7.18496 -7.56542,-14.38501 -8.14657,-18.50186c-0.13329,-0.94416 0.00055,-0.92694 0.20053,-1.09142c0.46677,-0.38387 1.10323,0.9489 2.21725,3.23393c0.08244,0.16907 0.5741,0.24393 0.8682,-0.13439c0.65088,-0.83723 1.4122,-2.6924 2.25576,-2.15688c0.47673,0.30265 -1.71656,5.10769 -1.42178,5.66087c0.99588,1.86877 2.09198,4.02747 3.65185,6.20463c1.83037,2.55471 6.55938,-0.12926 7.69615,-2.10817c1.18355,-2.06037 2.30891,-3.13645 2.48548,-5.49046c0.03593,-0.47915 0.24168,-0.14892 0.28695,0.32944c0.13063,1.3804 -0.66506,2.86366 -1.89541,5.69069c-1.68484,3.87134 -4.46657,5.03596 -3.70168,5.90469c1.34604,1.52876 2.98478,2.79873 4.48893,3.91521c0.22854,0.16964 0.61658,-3.50188 1.56317,-2.708c0.78359,0.65718 0.02331,3.62374 0.29846,3.99699c0.90738,1.23082 2.58325,2.50656 4.05883,3.50824c3.30027,2.24035 6.44473,3.95404 5.39688,5.78594z"/><path d="M547.95171,169.78649c0.0928,-0.16029 0.25309,-0.06748 0.25309,-0.06748l0.28336,0.16503c1.67489,1.50269 3.54188,3.00814 5.23086,4.62002c1.52202,1.32611 3.30593,1.82156 5.00276,2.7558c0,0 0.16094,0.09166 0.06926,0.2526c-0.09168,0.16094 -0.25261,0.06927 -0.25261,0.06927c-1.67696,-0.99855 -3.5228,-1.46476 -5.0688,-2.80376c-1.65793,-1.58139 -3.49525,-3.18413 -5.19671,-4.59246l-0.25373,-0.14595c0,0 -0.16029,-0.09279 -0.06748,-0.25308z"/><path d="M538.20832,158.5752c0.17863,-0.04898 0.22761,0.12965 0.22761,0.12965l0.05597,0.20413c0.2777,1.01278 0.74466,1.63876 1.40741,2.38871c0.01168,-0.00555 0.02472,-0.01039 0.03927,-0.01438c0.17863,-0.04898 0.2276,0.12965 0.2276,0.12965l0.05597,0.20413c0.13994,0.51035 0.27988,1.02069 0.41982,1.53104c0.61499,2.24285 3.27156,3.74215 4.66552,5.5274c1.07763,0.61232 1.70171,2.0182 2.42058,2.98022c0.68512,0.91685 1.73836,1.51852 2.3805,2.43017c1.58447,1.07299 2.64715,2.32054 4.59334,2.70379c0,0 0.18168,0.03607 0.14559,0.21774c-0.03608,0.18167 -0.21774,0.1456 -0.21774,0.1456c-2.02029,-0.4042 -3.14354,-1.67403 -4.78069,-2.80277c-0.66217,-0.92283 -1.7184,-1.5406 -2.41754,-2.47251c-0.71262,-0.94987 -1.31177,-2.30103 -2.36596,-2.9217c-1.46758,-1.81309 -4.14698,-3.3982 -4.78088,-5.70999c-0.11692,-0.42638 -0.2729,-0.99525 -0.40267,-1.46851c-0.06349,-0.014 -0.10644,-0.06189 -0.10644,-0.06189c-0.78012,-0.86948 -1.32769,-1.56627 -1.64096,-2.70874l-0.05597,-0.20413c0,0 -0.04898,-0.17863 0.12964,-0.22761z"/><path d="M541.53781,162.94033c0.15306,-0.10429 0.25735,0.04879 0.25735,0.04879l0.10342,0.15534c0.64595,0.51966 1.11579,1.2242 1.76633,1.7505c1.37965,0.79604 3.67433,2.28926 4.73144,3.39382c0,0 0.12369,0.13786 -0.01418,0.26155c-0.13787,0.12368 -0.26155,-0.01416 -0.26155,-0.01416c-0.49428,-0.61381 -1.49641,-0.93494 -2.18127,-1.3202c-0.9488,-0.53374 -1.56956,-1.48984 -2.48379,-2.0154c-0.6751,-0.54288 -1.16312,-1.26537 -1.82934,-1.80501l-0.13722,-0.19787c0,0 -0.10427,-0.15306 0.04879,-0.25735z"/><path d="M551.43494,161.28613c0.04898,0.17863 -0.12964,0.22761 -0.12964,0.22761l-0.08065,-0.05512c-0.09236,0.21587 -0.27454,0.39947 -0.47711,0.51818c-0.66098,0.88787 -3.92089,2.25495 -3.55831,3.43656c0,0 0.04898,0.17863 -0.12965,0.22761c-0.17863,0.04898 -0.2276,-0.12965 -0.2276,-0.12965c-0.40055,-1.5938 2.81808,-2.70635 3.67206,-3.81367c0.1557,-0.0836 0.31928,-0.20663 0.37567,-0.37411l0.32762,-0.16706c0,0 0.17862,-0.04899 0.2276,0.12964z"/><path d="M539.39934,153.08713c0.12369,0.13787 -0.01417,0.26155 -0.01417,0.26155l-0.18624,0.16646c-1.15814,0.76586 -2.67447,0.21994 -2.18296,2.01241c0.43511,1.58684 2.31297,3.18208 3.63987,4.20925c0,0 0.14636,0.11351 0.03284,0.25986c-0.11351,0.14635 -0.25986,0.03284 -0.25986,0.03284c-1.39391,-1.08301 -3.31079,-2.72896 -3.77008,-4.404c-0.578,-2.10792 1.04256,-1.54128 2.31298,-2.40293l0.16607,-0.14961c0,0 0.13786,-0.12368 0.26155,0.01416z"/><path d="M539.15248,154.2316c0.13983,0.12145 0.01838,0.26129 0.01838,0.26129l-0.00732,0.00844c-0.36672,0.4187 -0.86957,0.7865 -0.31731,1.3713c0,0 0.12369,0.13786 -0.01418,0.26156c-0.13787,0.12368 -0.26155,-0.01417 -0.26155,-0.01417c-0.66006,-0.76245 -0.18909,-1.27755 0.31336,-1.86159l0.00733,-0.00844c0,0 0.12146,-0.13983 0.26129,-0.01838z"/><path d="M538.85582,177.24602c-0.04898,-0.17863 0.12964,-0.2276 0.12964,-0.2276l0.12687,-0.03299c1.29504,-0.15499 2.82419,0.16476 4.12657,0.42338c0,0 0.18167,0.03608 0.14559,0.21774c-0.03609,0.18167 -0.21775,0.1456 -0.21775,0.1456c-1.02688,-0.20391 -2.26486,-0.482 -3.3547,-0.46827c1.15535,1.69683 3.40248,2.89425 5.20536,1.27238c0.96473,-1.27273 2.44176,-2.89139 3.64588,-3.97173c0,0 0.13786,-0.12369 0.26155,0.01416c0.12369,0.13787 -0.01417,0.26155 -0.01417,0.26155c-1.19422,1.07146 -2.66311,2.68353 -3.62073,3.94689c-1.96525,1.75985 -4.42694,0.6131 -5.74072,-1.25259c-0.0516,0.00579 -0.16389,0.0016 -0.20114,-0.13428c-0.01223,-0.04461 -0.01027,-0.08113 -0.00043,-0.11082c-0.06307,0.00645 -0.12541,0.01416 -0.18692,0.02323l-0.07728,0.02299c0,0 -0.17862,0.04898 -0.2276,-0.12965z"/><path d="M546.10235,179.18592c-0.12369,-0.13787 0.01418,-0.26155 0.01418,-0.26155l0.18624,-0.16647c1.29448,-0.86582 1.88931,-2.08908 2.82839,-3.17226c0,0 0.12146,-0.13983 0.26129,-0.01837c0.13984,0.12145 0.01839,0.26127 0.01839,0.26127c-0.94891,1.09062 -1.56812,2.34444 -2.88085,3.22191l-0.16606,0.14962c0,0 -0.13786,0.12369 -0.26156,-0.01416z"/><path d="M553.55075,170.00806c0.16094,0.09168 0.06926,0.25261 0.06926,0.25261l-0.07408,0.13005c-0.13153,0.20103 -0.15335,0.60525 0.02468,0.75923c0,0 0.12369,0.13787 -0.01416,0.26155c-0.13787,0.12369 -0.26156,-0.01416 -0.26156,-0.01416c-0.27639,-0.34877 -0.27623,-0.79515 -0.07083,-1.18995l0.07408,-0.13006c0,0 0.09167,-0.16094 0.25261,-0.06927z"/></g><g stroke-linecap="butt"><path d="M579.21992,162.08277c-2.13075,-3.09032 -3.16268,-6.63505 -3.40539,-8.67572c-0.08054,-0.67708 0.33483,-1.29429 0.60484,-0.64894c0.12437,0.29725 0.27672,0.65045 0.45715,1.05002c0.03838,0.085 0.44756,-0.08557 0.83435,-0.62541c0.48277,-0.6738 0.35184,-1.2323 0.61026,-1.05359c0.97957,0.67741 -0.8918,2.86093 -0.73742,3.17273c0.7971,1.60989 1.89734,3.60382 3.30423,5.6443c0.08127,0.11786 0.62081,0.24432 1.00193,-0.31111c0.68988,-1.00538 1.04135,-3.36109 1.3037,-3.09773c1.37465,1.37992 -1.24699,4.86534 -1.06248,5.10251c2.84708,3.6597 5.43093,5.66719 4.60024,6.31338c-0.33889,0.26361 -0.03226,1.81041 -0.98405,1.3602c-1.71886,-0.81306 -4.42221,-5.17749 -6.52734,-8.23065z"/><path d="M590.96865,168.36556c-1.21781,1.88975 -4.06187,9.02282 -6.69611,7.5286c-1.83566,-1.04125 -0.00503,-4.11909 1.69097,-7.72944c0.75831,-1.61423 1.54909,-3.56632 1.70179,-5.08781c0.0463,-0.4614 -2.12075,-2.62527 -1.78195,-3.59022c0.40928,-1.16567 2.61571,1.79445 2.72577,1.53196c0.72433,-1.72752 1.48613,-3.65573 1.86416,-5.65723c0.21482,-1.13736 -2.77188,-0.72028 -6.19567,-3.19083c-2.50023,-1.8041 -3.94115,-2.67409 -4.53287,-3.92806c-0.7869,-1.66761 1.69983,0.18055 3.75093,1.64636c0.09563,0.06833 0.76096,0.04766 0.98637,-0.40492c0.32757,-0.65769 0.25946,-1.83989 0.60081,-1.76203c0.80372,0.18332 -0.34945,3.03207 -0.11361,3.18156c2.65444,1.68246 7.2163,1.38304 7.48765,-1.74795c0.23124,-2.66829 0.073,-5.08414 -0.02357,-7.19951c-0.02859,-0.62616 -4.36597,-3.64051 -4.11028,-4.14398c0.45245,-0.89087 2.05351,0.31652 3.04039,0.70468c0.44592,0.1754 0.83065,-0.13976 0.81532,-0.32724c-0.20727,-2.53366 -0.33961,-4.00468 0.25767,-3.91255c0.2559,0.03947 0.36224,-0.0436 0.72918,0.8365c1.61818,3.88125 1.68616,7.56856 2.17895,10.94545c0.48816,3.34508 0.55423,6.03944 -0.88929,9.94676c-0.06683,0.1809 2.449,2.5259 3.99829,2.66629c0.51393,0.04657 1.0755,-0.23569 1.65185,-0.71165c0.23937,-0.19767 0.03391,-1.31585 0.23397,-2.64446c0.23244,-1.54355 0.23072,-2.0594 0.50883,-2.40427c0.20313,-0.25189 0.1681,1.54018 0.41737,2.58528c0.18578,0.77893 1.29995,-0.36088 1.44331,-0.55855c1.46943,-2.02613 2.68527,-3.97366 3.00577,-3.20437c0.43025,1.03267 -1.30357,5.32138 -3.01432,7.62981c-1.05064,1.41769 -2.93995,2.55595 -3.72126,2.82316c-3.11255,1.0645 -5.50123,-1.27999 -5.61586,-1.09322c-0.52774,0.85992 -1.77437,6.30947 -2.39458,7.27187z"/><path d="M593.13946,136.37975c0.17863,-0.04898 0.2276,0.12964 0.2276,0.12964l0.05598,0.20414c0.59126,2.1563 0.92909,4.36624 1.43676,6.48201c0.253,1.0996 1.27858,6.07536 -0.42025,6.15163c0,0 -0.18493,-0.01001 -0.17492,-0.19495c0.01002,-0.18494 0.19497,-0.17492 0.19497,-0.17492c0.47551,0.1282 0.44475,-0.99799 0.43651,-1.37743c-0.0334,-1.53857 -0.04286,-2.80869 -0.39713,-4.32058c-0.1267,-0.56149 -0.24501,-1.12615 -0.36138,-1.69286c0.02576,0.24358 0.03897,0.48844 0.05539,0.74962c0.6405,2.56051 -0.78418,4.58301 -0.94796,7.03175c-0.72073,2.19526 -1.05111,4.44939 -1.58186,6.6692c0.0603,0.83317 0.08985,1.69117 0.09467,2.55148c0.16557,-0.83535 0.55363,-1.95266 0.75509,-2.31317c0.37249,-1.8758 0.95606,-3.74102 1.16985,-5.65721c0,0 0.02087,-0.18404 0.2049,-0.16317c0.18403,0.02086 0.16316,0.2049 0.16316,0.2049c-0.22398,1.94745 -0.81196,3.8369 -1.19084,5.7449c-0.26975,0.46388 -0.93363,2.45621 -0.79172,3.00485l-0.0496,0.27224c0,0 -0.03607,0.18167 -0.21775,0.14559c-0.01992,-0.00396 -0.03721,-0.00967 -0.05223,-0.01669c-0.01222,0.60826 -0.03545,1.21233 -0.06751,1.80412c0,0 -0.01003,0.18493 -0.19497,0.17492c-0.18494,-0.01001 -0.17492,-0.19496 -0.17492,-0.19496c0.0987,-1.82163 0.11897,-3.76553 -0.01745,-5.58649c0.50823,-2.23793 0.84923,-4.51089 1.58752,-6.71101c0.13981,-2.41391 1.57683,-4.3856 0.94563,-6.90406c-0.03359,-0.50735 -0.04752,-0.9481 -0.17557,-1.44377l-0.08847,-0.3237c0,0 -0.04883,-0.17866 0.12984,-0.22749c0.17866,-0.04882 0.22749,0.12984 0.22749,0.12984l0.00428,0.01567c-0.25418,-1.24154 -0.51801,-2.48953 -0.85877,-3.73228l-0.05597,-0.20414c0,0 -0.04898,-0.17862 0.12964,-0.2276z"/><path d="M588.4121,170.39459c-0.17152,-0.0699 -0.10163,-0.24141 -0.10163,-0.24141l0.08824,-0.21429c0.17549,-0.89494 0.4866,-1.66204 0.84559,-2.49429c1.11067,-2.05558 2.04415,-4.22235 3.20117,-6.21236c0.35232,-1.88814 0.98893,-3.5614 1.09485,-5.51631c0,0 0.01002,-0.18494 0.19497,-0.17492c0.18494,0.01001 0.17492,0.19496 0.17492,0.19496c-0.10771,1.98803 -0.71906,3.7087 -1.11766,5.62569c-1.13348,2.02398 -2.0971,4.17499 -3.21488,6.24442c-0.35145,0.81699 -0.64801,1.56213 -0.82417,2.43927l-0.10001,0.24764c0,0 -0.06988,0.17152 -0.24141,0.10162z"/><path d="M586.65213,169.46949c-0.18146,-0.03709 -0.14437,-0.21855 -0.14437,-0.21855l0.05214,-0.25344c0.35598,-1.07562 0.68966,-2.4261 1.44074,-3.29115c0.86907,-1.48352 2.15927,-3.84653 2.2505,-5.57673c0,0 0.01002,-0.18494 0.19497,-0.17492c0.18494,0.01002 0.17492,0.19496 0.17492,0.19496c-0.09998,1.80059 -1.41473,4.23032 -2.31948,5.77273c-0.7234,0.83256 -1.03954,2.13609 -1.38377,3.17069l-0.04709,0.23202c0,0 -0.03709,0.18146 -0.21855,0.14437z"/><path d="M590.58055,138.96733c0.13786,-0.12368 0.26155,0.01416 0.26155,0.01416l0.15665,0.17461c0.60903,0.68707 1.69965,1.1856 2.40827,1.9754c0,0 0.12369,0.13786 -0.01417,0.26156c-0.13786,0.12368 -0.26155,-0.01417 -0.26155,-0.01417c-0.74013,-0.82492 -1.71832,-1.26799 -2.40547,-1.97233l-0.15945,-0.17769c0,0 -0.12369,-0.13787 0.01418,-0.26155z"/><path d="M593.59413,160.9459c-0.16094,-0.09168 -0.06927,-0.2526 -0.06927,-0.2526l0.11056,-0.17556c0.90126,-0.81551 1.0419,-2.22023 0.73932,-3.32372c0,0 -0.04898,-0.17863 0.12964,-0.22761c0.17862,-0.04898 0.2276,0.12965 0.2276,0.12965c0.33879,1.23553 0.15373,2.7851 -0.84764,3.696l-0.0376,0.08456c0,0 -0.09167,0.16094 -0.25261,0.06927z"/><path d="M604.8437,154.95584c0.16094,0.09168 0.06927,0.25261 0.06927,0.25261l-0.16493,0.28471c-0.95669,0.85911 -1.76487,1.90085 -2.7652,2.80256c-1.61127,1.4512 -3.25912,1.07071 -5.26474,0.96204c0,0 -0.18493,-0.01002 -0.17492,-0.19496c0.01001,-0.18494 0.19495,-0.17492 0.19495,-0.17492c1.89947,0.10291 3.4773,0.50624 4.99681,-0.86742c0.99064,-0.88815 1.77923,-1.91224 2.72476,-2.75984l0.13139,-0.23552c0,0 0.09168,-0.16095 0.25261,-0.06927z"/><path d="M601.05414,157.63967c-0.17863,0.04898 -0.2276,-0.12965 -0.2276,-0.12965l-0.03104,-0.18712c0.08362,-0.42112 0.1202,-0.84414 0.20249,-1.2627c0,0 0.03607,-0.18167 0.21774,-0.14559c0.18167,0.03609 0.14559,0.21775 0.14559,0.21775c-0.08379,0.41735 -0.11896,0.84207 -0.20249,1.2627l0.02494,0.01701c0,0 0.04898,0.17863 -0.12965,0.22761z"/><path d="M602.67094,155.84483l0.17615,-0.15804c0.6861,-0.61327 1.17182,-1.42175 1.8537,-2.04468c0,0 0.13786,-0.12368 0.26155,0.01417c0.12369,0.13786 -0.01417,0.26155 -0.01417,0.26155c-0.69001,0.60484 -1.17098,1.42959 -1.85369,2.04469l-0.17615,0.15803c0,0 -0.13785,0.12369 -0.26155,-0.01416c-0.12369,-0.13787 0.01416,-0.26156 0.01416,-0.26156z"/><path d="M601.23312,159.59341c0.04898,0.17863 -0.12964,0.22761 -0.12964,0.22761l0.00812,-0.03038c-0.13713,0.44841 -0.45232,0.48501 -0.90512,0.60044c-0.56678,0.53526 -2.97372,1.56415 -3.81452,1.36136c-0.60044,-0.14481 -0.66209,-1.21714 -0.79733,-1.71036c0,0 -0.04899,-0.17863 0.12964,-0.22761c0.17863,-0.04898 0.22761,0.12965 0.22761,0.12965c0.06628,0.24172 0.21743,1.41188 0.50655,1.44389c0.9037,0.10004 2.92621,-0.76425 3.57065,-1.32212c0.31645,-0.09147 0.68886,-0.06393 0.74169,-0.43157l0.23476,-0.17054c0,0 0.17863,-0.04898 0.22761,0.12965z"/><path d="M583.74224,151.43664c0.86799,0.22177 1.6192,0.63712 2.56517,0.78083c1.70404,-0.03664 3.85675,0.22656 4.35502,2.04372c0,0 0.04898,0.17862 -0.12964,0.2276c-0.17863,0.04898 -0.22761,-0.12964 -0.22761,-0.12964c-0.4465,-1.62837 -2.48616,-1.80854 -4.02109,-1.77199c-0.93902,-0.13865 -1.88507,-0.69386 -2.72768,-0.81493l-0.17052,-0.23476c0,0 -0.04899,-0.17863 0.12964,-0.22761c0.16512,-0.04528 0.21946,0.10396 0.22672,0.12676z"/><path d="M581.70664,148.81538l-0.05897,-0.00989c0.53613,0.31056 1.36971,0.98294 1.66827,1.4974c0,0 0.09084,0.16141 -0.07057,0.25225c-0.16141,0.09084 -0.25225,-0.07057 -0.25225,-0.07057c-0.24745,-0.45759 -1.0544,-1.09252 -1.52881,-1.35721l-0.11494,-0.21402c0,0 -0.04898,-0.17863 0.12965,-0.22761c0.17863,-0.04898 0.2276,0.12965 0.2276,0.12965z"/><path d="M579.63033,161.64987c0.09167,-0.16094 0.25261,-0.06927 0.25261,-0.06927l0.217,0.18605c0.22618,0.87224 1.24874,1.67606 1.74401,2.41136c0.75572,0.86787 3.15219,2.81674 2.94603,3.96078c0,0 -0.03608,0.18166 -0.21775,0.14559c-0.18167,-0.03608 -0.14559,-0.21775 -0.14559,-0.21775c0.18655,-0.82824 -2.25608,-2.99667 -2.87525,-3.66143c-0.53625,-0.80832 -1.53728,-1.58967 -1.80869,-2.54061l-0.0431,0.03787c0,0 -0.16094,-0.09166 -0.06926,-0.2526z"/><path d="M577.61858,156.21912c0.17863,-0.04898 0.2276,0.12965 0.2276,0.12965l0.02798,0.10207c0.4217,1.53793 0.94154,2.5388 1.80932,3.83288c0.95326,1.42566 2.11129,3.05915 3.26659,4.34681c0,0 0.12369,0.13787 -0.01418,0.26155c-0.13786,0.12369 -0.26154,-0.01416 -0.26154,-0.01416c-1.16967,-1.30369 -2.3373,-2.95029 -3.29881,-4.38829c-0.88451,-1.32701 -1.42756,-2.36871 -1.85863,-3.94082l-0.02799,-0.10207c0,0 -0.04898,-0.17863 0.12965,-0.22761z"/><path d="M582.99769,158.53167c0.16094,0.09167 0.06926,0.25261 0.06926,0.25261l-0.05335,0.07446c-0.13211,0.66533 -0.82868,2.22217 -0.65824,2.72844c0,0 0.04898,0.17862 -0.12965,0.2276c-0.17863,0.04898 -0.2276,-0.12965 -0.2276,-0.12965c-0.16507,-0.70074 0.49316,-2.09779 0.65215,-2.89854l0.09481,-0.18565c0,0 0.09167,-0.16093 0.25261,-0.06927z"/><path d="M576.56961,153.77303c0.18493,0.01001 0.17492,0.19496 0.17492,0.19496l-0.01889,0.30444c0.28563,1.00876 0.55683,2.02173 0.83407,3.03283c0,0 0.04898,0.17862 -0.12964,0.2276c-0.17863,0.04898 -0.22761,-0.12964 -0.22761,-0.12964c-0.28248,-1.0302 -0.56977,-2.0592 -0.84515,-3.09132l0.01732,-0.36395c0,0 0.01001,-0.18494 0.19496,-0.17492z"/></g><g stroke-linecap="butt"><path d="M598.09223,165.94347c0.15305,0.14614 1.06086,0.99721 1.13804,1.4137c0.04437,0.23946 -0.71555,-0.03373 -0.69769,0.27581c0.01699,0.29434 0.79195,1.55829 0.78404,1.90355c-0.00695,0.30352 -0.79386,-0.31674 -0.82071,0.01733c-0.21884,2.72436 -1.10911,6.32794 -2.83612,8.57856c-2.87367,3.74493 -5.87272,3.69857 -8.2288,1.89063c-2.35608,-1.80794 -3.17701,-4.6928 -0.30334,-8.43775c2.87366,-3.74495 9.59654,-6.94807 10.96458,-5.64185z"/><path d="M595.8729,168.8804c0,0 0.2902,5.55397 -1.59993,8.01717c-1.89013,2.4632 -3.86272,2.43271 -5.41242,1.24355c-1.5497,-1.18916 -2.08965,-3.08666 -0.19952,-5.54985c1.89012,-2.46319 7.21185,-3.71086 7.21185,-3.71086z"/></g><path d="M562.04155,201.1355c-2.15316,-7.8525 -3.84088,-20.28822 11.54566,-24.29136c16.39072,-4.26439 20.29668,6.50271 22.44984,14.35521c2.15315,7.85249 8.44153,12.4107 -13.33422,18.32889c-22.20533,6.03494 -18.50814,-0.54025 -20.6613,-8.39275z" stroke-linecap="butt"/><g><path d="M570.63221,201.02087c-0.36771,0.00672 -1.17478,-1.73717 -1.17478,-1.73717l-0.26957,-14.7583c0,0 0.73776,-2.04977 1.10547,-2.05648c0.41386,-0.00756 1.25561,2.01337 1.25561,2.01337l0.26958,14.75829c0,0 -0.77245,1.77273 -1.18631,1.78029z" stroke-linecap="butt"/><path d="M571.60881,199.16919l-2.1178,0.2238" stroke-linecap="round"/><path d="M571.24077,184.55155l-1.91917,0.03505" stroke-linecap="round"/><path d="M571.55095,190.46969l-2.09583,1.42667" stroke-linecap="round"/><path d="M570.28815,187.71598c0.16735,-0.00305 0.30493,0.09804 0.30725,0.22579c0.00233,0.12775 -0.13145,0.23379 -0.2988,0.23685c-0.16736,0.00305 -0.30494,-0.09804 -0.30726,-0.22579c-0.00234,-0.12775 0.13145,-0.2338 0.29881,-0.23685z" stroke-linecap="butt"/><path d="M570.52266,195.02385c0.16736,-0.00305 0.30493,0.09804 0.30726,0.2258c0.00232,0.12776 -0.13144,0.2338 -0.2988,0.23685c-0.16736,0.00305 -0.30493,-0.09803 -0.30725,-0.22579c-0.00233,-0.12775 0.13144,-0.2338 0.2988,-0.23685z" stroke-linecap="butt"/></g><g stroke-linecap="butt"><path d="M574.77046,191.13974c0.92751,3.3826 1.10807,6.18326 -2.46686,7.2004c-2.68879,0.76502 -5.56347,-0.08417 -6.56565,-4.14281c-1.01902,-3.90931 0.67804,-7.35679 3.54868,-8.20041c2.7708,-0.82101 4.55633,1.76022 5.48383,5.14282z"/><g><path d="M571.12898,189.74545c0.91842,-0.25183 1.98678,0.72502 2.38624,2.18182c0.39946,1.45682 -0.02125,2.84193 -0.93966,3.09376c-0.91843,0.25183 -1.98676,-0.72501 -2.38622,-2.1818c-0.39946,-1.45682 0.02123,-2.84194 0.93965,-3.09377z"/><path d="M572.32258,192.51901l1.18571,-1.50396l0.51196,1.8671z"/></g><path d="M573.53154,187.26824c0.22413,0.81738 -1.24789,-1.64409 -4.1648,-0.8974c-3.51551,0.89993 -3.74976,3.62632 -3.97389,2.80894c-0.22413,-0.81739 2.06431,-2.98952 3.89637,-3.49187c1.83206,-0.50235 4.0182,0.76295 4.24233,1.58032z"/><path d="M575.81318,194.96389c0.22412,0.81738 -1.42053,3.18796 -3.35402,3.71812c-1.93349,0.53017 -5.17645,-0.12528 -5.40057,-0.94266c-0.22412,-0.81738 1.58171,1.49594 5.2583,0.4238c3.05057,-0.88958 3.27217,-4.01665 3.49629,-3.19927z"/></g><g stroke-linecap="butt"><path d="M555.59797,189.50147c-0.45094,-0.18065 -0.51162,1.02139 -0.95994,0.75815c-0.44737,-0.26268 -0.94629,-1.69857 -1.37961,-2.02369c-0.24882,-0.18669 -0.3413,0.38595 -0.66192,0.11482c-0.35597,-0.30101 -0.94,-1.44817 -1.19561,-1.68678c-2.61595,-2.44196 -4.51613,-5.49254 -4.11217,-6.40607c0.58082,-1.31352 7.92687,-2.49517 12.30874,-0.73971c4.38188,1.75547 5.14721,4.65559 4.04278,7.41241c-1.10443,2.75681 -3.66039,4.32636 -8.04227,2.5709z"/><path d="M556.16102,187.73198c-2.88214,-1.15464 -5.46533,-6.07988 -5.46533,-6.07988c0,0 5.21382,-1.64118 8.09596,-0.48654c2.88213,1.15464 3.38553,3.06216 2.65909,4.87544c-0.72643,1.81328 -2.40759,2.84562 -5.28973,1.69098z"/></g><g><path d="M589.35537,195.65648c-0.35982,0.20459 -1.92844,-0.92623 -1.92844,-0.92623l-7.29562,-12.83175c0,0 -0.30675,-2.16762 0.05308,-2.37221c0.3197,-0.18177 1.99978,1.20504 1.99978,1.20504l7.29562,12.83174c0,0 0.19528,1.91163 -0.12443,2.09341z" stroke-linecap="butt"/><path d="M589.50666,193.67425l-1.93577,0.88769" stroke-linecap="round"/><path d="M582.10034,180.85222l-1.66863,0.94871" stroke-linecap="round"/><path d="M585.71387,187.20775l-2.5304,-0.15815" stroke-linecap="round"/><path d="M582.71607,184.38782c-0.06316,-0.11108 0.0036,-0.26819 0.14911,-0.35093c0.14551,-0.08274 0.31467,-0.05976 0.37783,0.05132c0.06315,0.11107 -0.00362,0.26819 -0.14913,0.35093c-0.14551,0.08274 -0.31467,0.05975 -0.37782,-0.05132z" stroke-linecap="butt"/><path d="M586.2417,190.79329c-0.06316,-0.11108 0.0036,-0.26819 0.14911,-0.35093c0.1455,-0.08273 0.31466,-0.05975 0.37782,0.05133c0.06315,0.11109 -0.00361,0.26818 -0.14912,0.35092c-0.14551,0.08274 -0.31467,0.05975 -0.37782,-0.05133z" stroke-linecap="butt"/></g><g stroke-linecap="butt"><path d="M582.72383,182.46607c2.89946,-0.73854 6.11756,1.36121 7.23502,5.24352c1.20811,4.00218 -0.8314,6.19884 -3.53436,6.91224c-3.59376,0.94851 -4.86693,-1.55255 -5.79444,-4.93515c-0.92751,-3.38261 -0.70827,-6.51355 2.09377,-7.22061z"/><g><path d="M582.82486,186.69208c0.91842,-0.25183 1.98678,0.72502 2.38623,2.18182c0.39946,1.45682 -0.02125,2.84194 -0.93966,3.09377c-0.91843,0.25183 -1.98676,-0.72501 -2.38622,-2.1818c-0.39946,-1.45682 0.02123,-2.84195 0.93965,-3.09378z"/><path d="M584.01845,189.46564l1.18571,-1.50396l0.51197,1.86711z"/></g><path d="M579.72099,185.72471c-0.22413,-0.81738 1.0109,-3.02076 2.84296,-3.52311c1.83206,-0.50235 4.90835,0.19879 5.13247,1.01617c0.22413,0.81738 -1.36796,-1.40823 -4.85082,-0.38921c-2.88981,0.84551 -2.90048,3.71354 -3.1246,2.89616z"/><path d="M586.46504,194.9952c-1.93349,0.53017 -4.55725,-0.67001 -4.78138,-1.48739c-0.22413,-0.81738 1.56146,1.75933 4.63911,0.96855c3.70925,-0.95306 4.08261,-3.86391 4.30673,-3.04654c0.22413,0.81739 -2.23096,3.03522 -4.16446,3.56539z"/></g><path d="M580.94554,198.2565l-4.65364,-16.97165l13.21792,-3.62436l4.65364,16.97165z" stroke-linecap="butt"/><path d="M565.44401,202.35798l-4.65363,-16.97165l13.21792,-3.62436l4.65364,16.97165z" stroke-linecap="butt"/><path d="M561.11127,203.61285c-2.54107,-10.86816 -5.88354,-23.52931 12.21793,-28.31669c13.34316,-3.51764 18.68615,2.24058 21.86167,9.73469c0.11233,0.2651 1.46847,1.34289 1.57564,1.612c0.20566,0.51644 -0.84423,0.22913 -0.65483,0.75675c0.18549,0.51668 1.52413,1.99984 1.69749,2.52276c0.12853,0.38771 -0.90587,-0.18571 -0.78237,0.2033c0.3569,1.12415 0.69575,2.25 1.0334,3.35579c0.22668,0.74235 1.40968,2.34081 2.11933,3.95852c0.70965,1.6177 1.37552,4.31241 1.37552,4.31241c0,0 -2.1716,2.39865 -6.43416,4.77117c-3.0606,1.70353 -7.1753,3.22752 -11.64076,4.39198c-5.56375,1.45084 -11.65043,2.13761 -15.87695,2.012c-3.5632,-0.1059 -5.64604,-0.95955 -5.64604,-0.95955c0,0 -0.68297,-2.18386 -0.80926,-3.93373c-0.12628,-1.74986 0.0861,-3.89656 -0.0366,-4.42137zM586.28933,195.84574c5.23938,-1.20025 6.09291,-5.39515 5.33552,-8.15733c-1.35849,-4.95436 -5.22955,-8.8819 -10.18391,-7.52341c-1.62578,0.44579 -2.55438,1.38792 -3.04163,2.53975c-0.86061,2.03445 0.83774,7.03286 1.32133,8.79652c0.75739,2.76218 1.86414,5.4222 6.56867,4.34448zM576.51577,196.05334c0.48784,-2.9998 -0.67854,-6.51672 -1.72199,-9.16266c-0.79264,-2.00995 -2.93685,-4.57405 -6.57285,-3.29585c-4.33692,1.51672 -5.43049,7.49786 -4.42088,11.1799c0.7574,2.76219 3.34717,6.07833 8.83723,4.46321c1.73278,-0.50976 3.62163,-1.60522 3.87848,-3.18461z" stroke-linecap="butt"/><path d="M571.21921,212.64992c0,0 -2.78806,-4.89243 -1.37882,-8.99314c1.17205,-3.41046 7.908,-5.31913 10.66409,-5.95255c2.66359,-0.61214 7.71175,-1.85313 10.41158,-0.11106c3.31778,2.14081 3.73622,9.12398 3.73622,9.12398c0,0 -2.20519,2.67907 -10.73524,4.94905c-6.47225,1.70851 -11.22818,1.3212 -12.69783,0.98372z" stroke-linecap="butt"/><path d="M587.60389,200.45971c1.00623,-0.2759 2.08068,0.44408 2.39986,1.60814c0.31919,1.16406 -0.23776,2.33139 -1.24399,2.60729c-1.00621,0.2759 -2.08069,-0.44408 -2.39987,-1.60814c-0.31918,-1.16406 0.23777,-2.33139 1.244,-2.60729z" stroke-linecap="butt"/><path d="M585.8672,199.16903c0.80892,-0.2218 1.5831,0.03022 1.72917,0.56293c0.14607,0.5327 -0.39129,1.14436 -1.20021,1.36616c-0.80892,0.2218 -1.5831,-0.03022 -1.72917,-0.56293c-0.14606,-0.5327 0.39129,-1.14436 1.20021,-1.36616z" stroke-linecap="butt"/><path d="M588.97751,200.00621c0.71028,-0.19476 1.43079,0.17517 1.60932,0.82626c0.17853,0.65108 -0.25253,1.33678 -0.96281,1.53154c-0.71028,0.19476 -1.4308,-0.17517 -1.60933,-0.82626c-0.17853,-0.65108 0.25254,-1.33677 0.96282,-1.53153z" stroke-linecap="butt"/><path d="M587.21894,199.33613c0.73,-0.20016 1.49284,0.26134 1.70382,1.0308c0.21099,0.76946 -0.20975,1.5555 -0.93976,1.75567c-0.73,0.20016 -1.49283,-0.26134 -1.70381,-1.0308c-0.21099,-0.76947 0.20974,-1.5555 0.93975,-1.75567z" stroke-linecap="butt"/><path d="M584.94991,203.10792c0.21703,-0.05951 0.44998,0.10017 0.52031,0.35666c0.07033,0.25649 -0.04859,0.51266 -0.26562,0.57217c-0.21704,0.05951 -0.44997,-0.10018 -0.52031,-0.35667c-0.07033,-0.25649 0.04858,-0.51265 0.26562,-0.57216z" stroke-linecap="butt"/><path d="M589.72889,203.02662c0.07893,-0.02164 0.15606,0.00881 0.17228,0.06799c0.01623,0.05919 -0.03459,0.12472 -0.11351,0.14635c-0.07893,0.02164 -0.15605,-0.0088 -0.17228,-0.06799c-0.01623,-0.05919 0.03459,-0.12472 0.11351,-0.14636z" stroke-linecap="butt"/><path d="M589.98011,199.03994c0.09866,-0.02705 0.19179,-0.00099 0.20802,0.05819c0.01623,0.05919 -0.05059,0.12911 -0.14924,0.15616c-0.09866,0.02705 -0.19178,0.00099 -0.20801,-0.0582c-0.01623,-0.05919 0.05058,-0.1291 0.14923,-0.15615z" stroke-linecap="butt"/><path d="M567.68585,201.08156c0.43406,-0.11902 0.84733,0.00842 0.92307,0.28464c0.07574,0.27622 -0.21474,0.59662 -0.64879,0.71564c-0.43407,0.11902 -0.84733,-0.00842 -0.92307,-0.28464c-0.07574,-0.27622 0.21474,-0.59662 0.64879,-0.71564z" stroke-linecap="butt"/><path d="M564.41308,204.97494c0.0592,-0.01623 0.12911,0.05059 0.15616,0.14924c0.02705,0.09866 0.00099,0.19178 -0.0582,0.20801c-0.05918,0.01623 -0.1291,-0.05059 -0.15615,-0.14924c-0.02705,-0.09866 -0.001,-0.19178 0.05819,-0.20801z" stroke-linecap="butt"/><path d="M564.05694,198.77334c0.11837,-0.03245 0.27574,0.16515 0.35148,0.44137c0.07574,0.27622 0.04116,0.52645 -0.07721,0.55891c-0.11837,0.03245 -0.27574,-0.16515 -0.35148,-0.44137c-0.07574,-0.27622 -0.04116,-0.52646 0.0772,-0.55891z" stroke-linecap="butt"/><path d="M575.43983,177.39031c0.96458,-0.26449 1.9268,0.17864 2.14921,0.98976c0.22241,0.81112 -0.37923,1.68306 -1.3438,1.94755c-0.96458,0.26449 -1.9268,-0.17865 -2.14921,-0.98976c-0.22241,-0.81112 0.37923,-1.68306 1.3438,-1.94754z" stroke-linecap="butt"/><path d="M577.50779,176.99399c0.63574,-0.17432 1.29729,0.21751 1.47762,0.87517c0.18033,0.65766 -0.18885,1.33211 -0.82459,1.50643c-0.63574,0.17432 -1.29729,-0.2175 -1.47762,-0.87516c-0.18033,-0.65766 0.18885,-1.33212 0.82459,-1.50644z" stroke-linecap="butt"/><path d="M579.01997,176.75005c0.78919,-0.2164 1.58002,0.1591 1.76636,0.83868c0.18634,0.67959 -0.30236,1.40593 -1.09155,1.62232c-0.7892,0.2164 -1.58002,-0.15909 -1.76637,-0.83868c-0.18634,-0.67959 0.30237,-1.40593 1.09156,-1.62232z" stroke-linecap="butt"/><path d="M576.31181,178.85833c0.46036,-0.12623 0.97,0.26902 1.13831,0.88285c0.16831,0.61382 -0.06845,1.21375 -0.52882,1.33998c-0.46037,0.12624 -0.97001,-0.26903 -1.13831,-0.88286c-0.16831,-0.61382 0.06845,-1.21374 0.52882,-1.33997z" stroke-linecap="butt"/><path d="M578.64738,178.8154c0.30691,-0.08416 0.63368,0.13198 0.72986,0.48273c0.09618,0.35076 -0.07466,0.70331 -0.38157,0.78746c-0.30691,0.08416 -0.63368,-0.13196 -0.72985,-0.48271c-0.09618,-0.35076 0.07466,-0.70333 0.38156,-0.78748z" stroke-linecap="butt"/><path d="M573.838,178.08559c0.30691,-0.08416 0.62392,0.09643 0.70808,0.40333c0.08416,0.30691 -0.09642,0.62393 -0.40333,0.70808c-0.30691,0.08416 -0.62393,-0.09643 -0.70808,-0.40333c-0.08416,-0.30691 0.09643,-0.62393 0.40333,-0.70808z" stroke-linecap="butt"/><path d="M577.12113,176.67323c0.26307,-0.07214 0.54942,0.13597 0.63959,0.4648c0.09016,0.32883 -0.05,0.65387 -0.31306,0.726c-0.26307,0.07213 -0.54942,-0.13596 -0.63958,-0.46479c-0.09017,-0.32883 0.04999,-0.65388 0.31306,-0.72601z" stroke-linecap="butt"/><path d="M574.67926,180.84236c0.17538,-0.04809 0.35164,0.03733 0.39373,0.19079c0.04207,0.15345 -0.06598,0.31683 -0.24135,0.36492c-0.17538,0.04809 -0.35166,-0.03733 -0.39374,-0.19078c-0.04208,-0.15345 0.06599,-0.31684 0.24136,-0.36493z" stroke-linecap="butt"/><path d="M572.45898,180.68297c0.1096,-0.03006 0.2277,0.05222 0.26376,0.18375c0.03607,0.13154 -0.02355,0.26253 -0.13315,0.29259c-0.1096,0.03006 -0.2277,-0.05222 -0.26377,-0.18375c-0.03607,-0.13154 0.02355,-0.26253 0.13316,-0.29259z" stroke-linecap="butt"/><path d="M582.68335,176.25768c0.1096,-0.03006 0.20821,-0.01887 0.22024,0.02497c0.01202,0.04384 -0.06709,0.10375 -0.1767,0.1338c-0.1096,0.03006 -0.20821,0.01887 -0.22023,-0.02497c-0.01202,-0.04384 0.06709,-0.10375 0.17669,-0.1338z" stroke-linecap="butt"/><path d="M593.90383,187.60613c0.59189,-0.1623 1.23253,0.2926 1.43089,1.01602c0.19836,0.72342 -0.12066,1.44145 -0.71255,1.60375c-0.59189,0.1623 -1.23253,-0.29259 -1.43089,-1.01602c-0.19837,-0.72342 0.12066,-1.44146 0.71255,-1.60376z" stroke-linecap="butt"/><path d="M593.56581,185.90636c0.56997,-0.15628 1.15385,0.1613 1.30412,0.70935c0.15028,0.54805 -0.18995,1.11902 -0.75993,1.27531c-0.56997,0.15629 -1.15385,-0.1613 -1.30412,-0.70935c-0.15027,-0.54805 0.18995,-1.11903 0.75993,-1.27532z" stroke-linecap="butt"/><path d="M594.78352,186.76742c0.46037,-0.12624 0.96026,0.2335 1.11655,0.80347c0.15629,0.56997 -0.09022,1.13436 -0.55057,1.26059c-0.46036,0.12623 -0.96027,-0.23349 -1.11655,-0.80346c-0.15629,-0.56997 0.09022,-1.13437 0.55058,-1.2606z" stroke-linecap="butt"/><path d="M595.28805,188.76298c0.48229,-0.13224 0.97558,0.13375 1.10181,0.59411c0.12623,0.46036 -0.16241,0.94076 -0.64469,1.073c-0.48229,0.13224 -0.97559,-0.13375 -1.10182,-0.59411c-0.12623,-0.46036 0.16241,-0.94076 0.64469,-1.073z" stroke-linecap="butt"/><path d="M594.66702,186.03118c0.15345,-0.04208 0.30222,0.01268 0.33228,0.12228c0.03005,0.1096 -0.06999,0.23257 -0.22344,0.27465c-0.15346,0.04208 -0.30221,-0.01267 -0.33227,-0.12228c-0.03006,-0.1096 0.06998,-0.23258 0.22343,-0.27465z" stroke-linecap="butt"/><path d="M592.78604,188.5101c0.1973,-0.0541 0.41571,0.1153 0.48785,0.37837c0.07213,0.26307 -0.02933,0.52017 -0.22663,0.57428c-0.1973,0.0541 -0.41573,-0.1153 -0.48786,-0.37837c-0.07213,-0.26307 0.02934,-0.52017 0.22664,-0.57428z" stroke-linecap="butt"/><path d="M599.60703,200.46744c0.65765,-0.18033 1.31263,0.11777 1.4629,0.66582c0.15027,0.54805 -0.26104,1.13853 -0.9187,1.31886c-0.65766,0.18033 -1.31262,-0.11778 -1.4629,-0.66583c-0.15027,-0.54805 0.26103,-1.13852 0.9187,-1.31885z" stroke-linecap="butt"/><path d="M599.28047,199.27664c0.3946,-0.1082 0.81682,0.17729 0.94305,0.63765c0.12623,0.46036 -0.09132,0.92127 -0.48592,1.02947c-0.39459,0.1082 -0.81682,-0.17729 -0.94304,-0.63765c-0.12623,-0.46036 0.09132,-0.92127 0.48592,-1.02947z" stroke-linecap="butt"/><path d="M585.78819,180.02685c0,0 0.19524,-0.04587 0.36845,-0.46694c0.17321,-0.42106 0.28862,-1.13037 0.28862,-1.13037c0,0 0.3058,0.82049 0.38326,1.18289c0.07745,0.36239 0.07188,0.94683 0.07188,0.94683z" stroke-linecap="butt"/><path d="M586.83254,180.5399c0,0 0.19822,-0.0305 0.40378,-0.43675c0.20556,-0.40625 0.37599,-1.10437 0.37599,-1.10437c0,0 0.24083,0.84187 0.28975,1.2092c0.0489,0.36733 -0.00227,0.94955 -0.00227,0.94955z" stroke-linecap="butt"/><path d="M587.87225,181.11136c0,0 0.2002,0.01207 0.48691,-0.34161c0.28671,-0.35367 0.60075,-1.00005 0.60075,-1.00005c0,0 0.05759,0.87374 0.02783,1.24311c-0.02976,0.36938 -0.20276,0.92766 -0.20276,0.92766z" stroke-linecap="butt"/><g stroke-linecap="butt"><path d="M564.60702,186.25105c0,0 -0.30288,-0.49985 -0.4211,-0.85107c-0.11821,-0.35121 -0.27368,-1.21294 -0.27368,-1.21294c0,0 0.46105,0.55124 0.8248,0.82506c0.36375,0.27382 0.55509,0.21371 0.55509,0.21371z"/><path d="M564.05255,187.27543c0,0 -0.341,-0.47469 -0.48627,-0.8156c-0.14529,-0.34091 -0.36754,-1.18788 -0.36754,-1.18788c0,0 0.50268,0.51354 0.8867,0.75814c0.38401,0.24459 0.57007,0.16972 0.57007,0.16972z"/><path d="M563.69046,188.40033c0,0 -0.43355,-0.39198 -0.64755,-0.69451c-0.214,-0.30254 -0.61012,-1.08345 -0.61012,-1.08345c0,0 0.5998,0.3958 1.02681,0.55378c0.427,0.15797 0.59305,0.04549 0.59305,0.04549z"/></g><path d="M595.70553,195.72946l0.67437,0.60161c0,0 -0.59773,-0.14009 -0.59651,0.20357c0.00097,0.27308 0.84857,1.12866 0.84857,1.12866c0,0 -1.03417,-0.44545 -1.07666,-0.15345c-0.02006,0.13789 0.69628,1.35672 0.69628,1.35672l-1.18795,-0.1478" stroke-linecap="round"/><path d="M573.1919,179.80435l-0.94642,0.73305c0,0 -0.00552,-1.41374 -0.0931,-1.52211c-0.18548,-0.22949 -0.8478,0.68115 -0.8478,0.68115c0,0 0.29266,-1.16827 0.15421,-1.40363c-0.17424,-0.29622 -0.61691,0.12916 -0.61691,0.12916l0.2732,-0.86144" stroke-linecap="round"/><path d="M581.03235,203.07075l2.04308,7.45102" stroke-linecap="round"/><g><path d="M571.91457,172.58916c8.29056,-2.27328 15.57014,-2.07844 16.25938,0.43519c0.68924,2.51363 -5.47288,6.39418 -13.76343,8.66746c-8.29057,2.27328 -15.57013,2.07844 -16.25937,-0.43519c-0.68924,-2.51362 5.47286,-6.39418 13.76342,-8.66746z" stroke-linecap="butt"/><path d="M588.17338,173.19623c0,0 -3.2695,4.36956 -13.40724,7.38685c-9.98427,2.97161 -16.39002,0.55464 -16.39002,0.55464" stroke-linecap="round"/><path d="M581.72799,172.01528c0,0 0.27446,1.34525 -0.02907,1.72534c-0.73968,0.92622 -2.66781,2.70401 -7.18403,3.98298c-5.54478,1.57024 -8.83508,1.15397 -10.25128,0.79362c-0.67873,-0.1727 -0.89772,-0.66316 -1.03214,-1.35049c-0.37652,-1.92536 -1.18812,-5.96318 -1.78655,-8.14562c-0.5611,-2.04633 -1.77475,-5.39894 -2.36297,-6.99093c-0.17927,-0.48519 -0.12209,-0.95095 0.37673,-1.08773c1.59726,-0.43797 5.47466,-2.11571 9.26195,-3.15419c3.60335,-0.98804 7.14,-1.34324 7.98518,-1.57498c0.47442,-0.13009 0.7895,0.18279 0.89291,0.66372c0.37942,1.76477 1.26667,5.82061 1.87523,8.03997c0.55291,2.01643 1.66872,5.36835 2.25401,7.0983z" stroke-linecap="butt"/></g><path d="M561.90875,194.7367l-1.15862,0.3011c0,0 0.55166,-1.30167 0.51382,-1.43577c-0.08012,-0.28399 -1.04753,0.29224 -1.04753,0.29224c0,0 0.72907,-0.95861 0.6945,-1.22947c-0.04351,-0.3409 -0.61793,-0.12422 -0.61793,-0.12422l0.59037,-0.68424" stroke-linecap="round"/><g stroke-linecap="butt"><path d="M579.14744,196.53819c2.13424,-0.47063 3.97409,-0.47123 4.58684,1.76346c0.30066,1.09648 -0.59576,1.20322 -1.06396,2.11513c-0.48602,0.9466 -0.56938,2.68322 -1.64291,2.97758c-1.07353,0.29436 -1.71374,-0.8813 -2.61461,-1.44762c-0.86784,-0.54557 -2.01058,-0.45571 -2.31124,-1.55219c-0.61275,-2.23469 0.79495,-3.35999 3.04588,-3.85635z"/><path d="M581.08847,197.3084c-0.12094,-0.44104 0.26845,-0.62 0.68192,-0.73337c0.41348,-0.11337 0.8467,0.15225 0.96764,0.5933c0.12094,0.44104 0.10159,0.83077 -0.31189,0.94414c-0.22526,0.06177 -0.3908,-0.31914 -0.57408,-0.44943c-0.15316,-0.10887 -0.70853,-0.15385 -0.76358,-0.35462z"/></g><path d="M573.90445,202.0454c0.1096,-0.03006 0.22771,0.05221 0.26377,0.18374c0.03607,0.13153 -0.02356,0.26252 -0.13316,0.29257c-0.10961,0.03006 -0.2277,-0.05221 -0.26376,-0.18374c-0.03607,-0.13153 0.02355,-0.26252 0.13315,-0.29257z" stroke-linecap="butt"/><path d="M571.87624,202.43083c0.10961,-0.03006 0.22771,0.05221 0.26377,0.18374c0.03607,0.13154 -0.02355,0.26252 -0.13316,0.29258c-0.1096,0.03006 -0.2277,-0.05221 -0.26377,-0.18374c-0.03607,-0.13154 0.02355,-0.26253 0.13315,-0.29258z" stroke-linecap="butt"/><path d="M573.0773,204.32074c0.1096,-0.03006 0.2277,0.05221 0.26376,0.18374c0.03607,0.13153 -0.02355,0.26252 -0.13316,0.29258c-0.1096,0.03006 -0.2277,-0.05221 -0.26376,-0.18374c-0.03607,-0.13153 0.02355,-0.26252 0.13316,-0.29257z" stroke-linecap="butt"/><g stroke-linecap="butt"><path d="M587.5666,198.53396c0.03607,0.13154 -0.02355,0.26252 -0.13315,0.29258c-0.1096,0.03006 -0.22771,-0.05221 -0.26378,-0.18374c-0.03607,-0.13154 0.02356,-0.26253 0.13316,-0.29259c0.10961,-0.03006 0.2277,0.05222 0.26377,0.18375z"/><path d="M589.50774,197.83098c0.03607,0.13153 -0.02355,0.26252 -0.13316,0.29257c-0.1096,0.03006 -0.2277,-0.05221 -0.26376,-0.18374c-0.03607,-0.13153 0.02355,-0.26253 0.13316,-0.29258c0.1096,-0.03006 0.2277,0.05222 0.26377,0.18375z"/><path d="M589.43861,200.0692c0.03607,0.13153 -0.02355,0.26251 -0.13316,0.29257c-0.10961,0.03006 -0.22771,-0.0522 -0.26377,-0.18373c-0.03607,-0.13154 0.02356,-0.26253 0.13316,-0.29259c0.1096,-0.03006 0.2277,0.05222 0.26376,0.18375z"/></g></g></g></g></g></svg>