<svg version="1.1" xmlns="http://www.w3.org/2000/svg" xmlns:xlink="http://www.w3.org/1999/xlink" width="751" height="420" viewBox="0,0,751,420"><defs><linearGradient x1="349.58541" y1="141.43742" x2="348.64355" y2="152.19709" gradientUnits="userSpaceOnUse" id="color-1"><stop offset="0" stop-color="#484c5e"/><stop offset="1" stop-color="#212d30"/></linearGradient><linearGradient x1="322.9586" y1="141.17504" x2="321.68289" y2="155.74826" gradientUnits="userSpaceOnUse" id="color-2"><stop offset="0" stop-color="#484c5e"/><stop offset="1" stop-color="#212d30"/></linearGradient><linearGradient x1="293.37099" y1="140.88348" x2="292.09528" y2="155.4567" gradientUnits="userSpaceOnUse" id="color-3"><stop offset="0" stop-color="#484c5e"/><stop offset="1" stop-color="#212d30"/></linearGradient><linearGradient x1="267.07087" y1="140.62432" x2="265.79516" y2="155.19753" gradientUnits="userSpaceOnUse" id="color-4"><stop offset="0" stop-color="#484c5e"/><stop offset="1" stop-color="#212d30"/></linearGradient><linearGradient x1="236.38739" y1="140.32197" x2="235.1117" y2="154.89518" gradientUnits="userSpaceOnUse" id="color-5"><stop offset="0" stop-color="#484c5e"/><stop offset="1" stop-color="#212d30"/></linearGradient><linearGradient x1="210.08729" y1="140.0628" x2="208.81158" y2="154.63601" gradientUnits="userSpaceOnUse" id="color-6"><stop offset="0" stop-color="#484c5e"/><stop offset="1" stop-color="#212d30"/></linearGradient><linearGradient x1="180.49965" y1="139.77125" x2="179.22397" y2="154.34446" gradientUnits="userSpaceOnUse" id="color-7"><stop offset="0" stop-color="#484c5e"/><stop offset="1" stop-color="#212d30"/></linearGradient><linearGradient x1="154.19956" y1="139.51208" x2="152.92384" y2="154.0853" gradientUnits="userSpaceOnUse" id="color-8"><stop offset="0" stop-color="#484c5e"/><stop offset="1" stop-color="#212d30"/></linearGradient><linearGradient x1="415.04032" y1="173.55109" x2="410.6027" y2="184.16237" gradientUnits="userSpaceOnUse" id="color-9"><stop offset="0" stop-color="#484c5e"/><stop offset="1" stop-color="#212d30"/></linearGradient><linearGradient x1="436.65811" y1="175.05274" x2="430.64768" y2="189.42498" gradientUnits="userSpaceOnUse" id="color-10"><stop offset="0" stop-color="#484c5e"/><stop offset="1" stop-color="#212d30"/></linearGradient><linearGradient x1="460.67974" y1="176.72138" x2="454.66928" y2="191.09362" gradientUnits="userSpaceOnUse" id="color-11"><stop offset="0" stop-color="#484c5e"/><stop offset="1" stop-color="#212d30"/></linearGradient><linearGradient x1="482.03227" y1="178.20461" x2="476.02184" y2="192.57685" gradientUnits="userSpaceOnUse" id="color-12"><stop offset="0" stop-color="#484c5e"/><stop offset="1" stop-color="#212d30"/></linearGradient><linearGradient x1="506.94359" y1="179.93505" x2="500.93314" y2="194.30729" gradientUnits="userSpaceOnUse" id="color-13"><stop offset="0" stop-color="#484c5e"/><stop offset="1" stop-color="#212d30"/></linearGradient><linearGradient x1="528.29612" y1="181.41827" x2="522.2857" y2="195.79052" gradientUnits="userSpaceOnUse" id="color-14"><stop offset="0" stop-color="#484c5e"/><stop offset="1" stop-color="#212d30"/></linearGradient><linearGradient x1="552.31776" y1="183.08691" x2="546.3073" y2="197.45915" gradientUnits="userSpaceOnUse" id="color-15"><stop offset="0" stop-color="#484c5e"/><stop offset="1" stop-color="#212d30"/></linearGradient><linearGradient x1="573.67029" y1="184.57015" x2="567.65986" y2="198.94238" gradientUnits="userSpaceOnUse" id="color-16"><stop offset="0" stop-color="#484c5e"/><stop offset="1" stop-color="#212d30"/></linearGradient><linearGradient x1="304.49174" y1="223.6422" x2="298.29198" y2="214.84259" gradientUnits="userSpaceOnUse" id="color-17"><stop offset="0" stop-color="#484c5e"/><stop offset="1" stop-color="#212d30"/></linearGradient><linearGradient x1="296.22448" y1="229.4669" x2="287.82733" y2="217.54844" gradientUnits="userSpaceOnUse" id="color-18"><stop offset="0" stop-color="#484c5e"/><stop offset="1" stop-color="#212d30"/></linearGradient><linearGradient x1="287.03792" y1="235.93928" x2="278.64078" y2="224.02081" gradientUnits="userSpaceOnUse" id="color-19"><stop offset="0" stop-color="#484c5e"/><stop offset="1" stop-color="#212d30"/></linearGradient><linearGradient x1="278.87209" y1="241.69251" x2="270.47495" y2="229.77405" gradientUnits="userSpaceOnUse" id="color-20"><stop offset="0" stop-color="#484c5e"/><stop offset="1" stop-color="#212d30"/></linearGradient><linearGradient x1="269.34528" y1="248.40462" x2="260.94813" y2="236.48616" gradientUnits="userSpaceOnUse" id="color-21"><stop offset="0" stop-color="#484c5e"/><stop offset="1" stop-color="#212d30"/></linearGradient><linearGradient x1="261.17945" y1="254.15786" x2="252.7823" y2="242.23939" gradientUnits="userSpaceOnUse" id="color-22"><stop offset="0" stop-color="#484c5e"/><stop offset="1" stop-color="#212d30"/></linearGradient><linearGradient x1="251.9929" y1="260.63023" x2="243.59575" y2="248.71177" gradientUnits="userSpaceOnUse" id="color-23"><stop offset="0" stop-color="#484c5e"/><stop offset="1" stop-color="#212d30"/></linearGradient><linearGradient x1="243.82707" y1="266.38347" x2="235.42992" y2="254.46501" gradientUnits="userSpaceOnUse" id="color-24"><stop offset="0" stop-color="#484c5e"/><stop offset="1" stop-color="#212d30"/></linearGradient><linearGradient x1="253.61208" y1="267.88705" x2="223.93165" y2="267.88705" gradientUnits="userSpaceOnUse" id="color-25"><stop offset="0" stop-color="#484c5e"/><stop offset="1" stop-color="#212d30"/></linearGradient><linearGradient x1="322.6717" y1="177.3953" x2="351.22608" y2="215.81384" gradientUnits="userSpaceOnUse" id="color-26"><stop offset="0" stop-color="#484c5e"/><stop offset="1" stop-color="#212d30"/></linearGradient><linearGradient x1="369.28099" y1="137.02761" x2="403.31781" y2="182.82251" gradientUnits="userSpaceOnUse" id="color-27"><stop offset="0" stop-color="#484c5e"/><stop offset="1" stop-color="#212d30"/></linearGradient><linearGradient x1="387.78658" y1="155.80217" x2="391.77471" y2="161.16801" gradientUnits="userSpaceOnUse" id="color-28"><stop offset="0" stop-color="#484c5e"/><stop offset="1" stop-color="#212d30"/></linearGradient><linearGradient x1="379.73705" y1="161.78494" x2="385.1387" y2="169.0526" gradientUnits="userSpaceOnUse" id="color-29"><stop offset="0" stop-color="#484c5e"/><stop offset="1" stop-color="#212d30"/></linearGradient><linearGradient x1="370.79244" y1="168.43298" x2="376.19409" y2="175.70064" gradientUnits="userSpaceOnUse" id="color-30"><stop offset="0" stop-color="#484c5e"/><stop offset="1" stop-color="#212d30"/></linearGradient><linearGradient x1="362.84167" y1="174.34235" x2="368.24332" y2="181.61001" gradientUnits="userSpaceOnUse" id="color-31"><stop offset="0" stop-color="#484c5e"/><stop offset="1" stop-color="#212d30"/></linearGradient><linearGradient x1="353.56577" y1="181.23661" x2="358.96742" y2="188.50427" gradientUnits="userSpaceOnUse" id="color-32"><stop offset="0" stop-color="#484c5e"/><stop offset="1" stop-color="#212d30"/></linearGradient><linearGradient x1="345.61501" y1="187.14598" x2="351.01665" y2="194.41363" gradientUnits="userSpaceOnUse" id="color-33"><stop offset="0" stop-color="#484c5e"/><stop offset="1" stop-color="#212d30"/></linearGradient><linearGradient x1="336.67038" y1="193.79402" x2="342.07203" y2="201.06168" gradientUnits="userSpaceOnUse" id="color-34"><stop offset="0" stop-color="#484c5e"/><stop offset="1" stop-color="#212d30"/></linearGradient><linearGradient x1="328.71962" y1="199.70338" x2="334.12127" y2="206.97104" gradientUnits="userSpaceOnUse" id="color-35"><stop offset="0" stop-color="#484c5e"/><stop offset="1" stop-color="#212d30"/></linearGradient><linearGradient x1="356.21296" y1="166.31273" x2="371.75213" y2="187.21992" gradientUnits="userSpaceOnUse" id="color-36"><stop offset="0" stop-color="#484c5e"/><stop offset="1" stop-color="#212d30"/></linearGradient><linearGradient x1="386.8609" y1="190.38008" x2="377.37133" y2="177.61233" gradientUnits="userSpaceOnUse" id="color-37"><stop offset="0" stop-color="#484c5e"/><stop offset="1" stop-color="#212d30"/></linearGradient><linearGradient x1="356.57378" y1="152.20224" x2="366.06334" y2="164.96999" gradientUnits="userSpaceOnUse" id="color-38"><stop offset="0" stop-color="#484c5e"/><stop offset="1" stop-color="#212d30"/></linearGradient><linearGradient x1="325.66451" y1="237.77514" x2="336.42881" y2="237.77514" gradientUnits="userSpaceOnUse" id="color-39"><stop offset="0" stop-color="#484c5e"/><stop offset="1" stop-color="#212d30"/></linearGradient><linearGradient x1="325.66451" y1="241.07085" x2="340.24401" y2="241.07085" gradientUnits="userSpaceOnUse" id="color-40"><stop offset="0" stop-color="#484c5e"/><stop offset="1" stop-color="#212d30"/></linearGradient><linearGradient x1="325.66451" y1="244.73304" x2="340.24401" y2="244.73304" gradientUnits="userSpaceOnUse" id="color-41"><stop offset="0" stop-color="#484c5e"/><stop offset="1" stop-color="#212d30"/></linearGradient><linearGradient x1="325.66451" y1="247.98831" x2="340.24401" y2="247.98831" gradientUnits="userSpaceOnUse" id="color-42"><stop offset="0" stop-color="#484c5e"/><stop offset="1" stop-color="#212d30"/></linearGradient><linearGradient x1="325.66451" y1="251.78614" x2="340.24401" y2="251.78614" gradientUnits="userSpaceOnUse" id="color-43"><stop offset="0" stop-color="#484c5e"/><stop offset="1" stop-color="#212d30"/></linearGradient><linearGradient x1="325.66451" y1="255.04141" x2="340.24401" y2="255.04141" gradientUnits="userSpaceOnUse" id="color-44"><stop offset="0" stop-color="#484c5e"/><stop offset="1" stop-color="#212d30"/></linearGradient><linearGradient x1="325.66451" y1="258.7036" x2="340.24401" y2="258.7036" gradientUnits="userSpaceOnUse" id="color-45"><stop offset="0" stop-color="#484c5e"/><stop offset="1" stop-color="#212d30"/></linearGradient><linearGradient x1="325.66451" y1="261.95888" x2="340.24401" y2="261.95888" gradientUnits="userSpaceOnUse" id="color-46"><stop offset="0" stop-color="#484c5e"/><stop offset="1" stop-color="#212d30"/></linearGradient><linearGradient x1="325.26694" y1="268.31654" x2="354.94737" y2="268.31654" gradientUnits="userSpaceOnUse" id="color-47"><stop offset="0" stop-color="#484c5e"/><stop offset="1" stop-color="#212d30"/></linearGradient><linearGradient x1="331.91476" y1="197.2564" x2="309.55436" y2="224.8486" gradientUnits="userSpaceOnUse" id="color-48"><stop offset="0" stop-color="#484c5e"/><stop offset="1" stop-color="#212d30"/></linearGradient><linearGradient x1="320.94203" y1="190.54636" x2="315.67136" y2="197.05024" gradientUnits="userSpaceOnUse" id="color-49"><stop offset="0" stop-color="#484c5e"/><stop offset="1" stop-color="#212d30"/></linearGradient><linearGradient x1="341.75444" y1="207.4125" x2="336.48378" y2="213.91638" gradientUnits="userSpaceOnUse" id="color-50"><stop offset="0" stop-color="#484c5e"/><stop offset="1" stop-color="#212d30"/></linearGradient><radialGradient cx="360" cy="177.81479" r="367.5075" gradientUnits="userSpaceOnUse" id="color-51"><stop offset="0" stop-color="#000000" stop-opacity="0.83922"/><stop offset="1" stop-color="#000000" stop-opacity="0"/></radialGradient><radialGradient cx="360" cy="177.81479" r="367.50751" gradientUnits="userSpaceOnUse" id="color-52"><stop offset="0" stop-color="#000000" stop-opacity="0"/><stop offset="1" stop-color="#000000"/></radialGradient><linearGradient x1="-5.24206" y1="181.05806" x2="150.659" y2="181.05806" gradientUnits="userSpaceOnUse" id="color-53"><stop offset="0" stop-color="#000000"/><stop offset="1" stop-color="#000000" stop-opacity="0"/></linearGradient><linearGradient x1="727.50752" y1="177.81481" x2="571.60646" y2="177.81481" gradientUnits="userSpaceOnUse" id="color-54"><stop offset="0" stop-color="#000000"/><stop offset="1" stop-color="#000000" stop-opacity="0"/></linearGradient><linearGradient x1="360.24743" y1="-17.14017" x2="360.24743" y2="110.48749" gradientUnits="userSpaceOnUse" id="color-55"><stop offset="0" stop-color="#000000"/><stop offset="1" stop-color="#000000" stop-opacity="0"/></linearGradient><linearGradient x1="359.27227" y1="377.38042" x2="359.27227" y2="249.75279" gradientUnits="userSpaceOnUse" id="color-56"><stop offset="0" stop-color="#000000"/><stop offset="1" stop-color="#000000" stop-opacity="0"/></linearGradient><radialGradient cx="423.57838" cy="181.4348" r="40.76877" gradientUnits="userSpaceOnUse" id="color-57"><stop offset="0" stop-color="#ffffff" stop-opacity="0.14902"/><stop offset="1" stop-color="#ffffff" stop-opacity="0"/></radialGradient><radialGradient cx="463.34715" cy="187.0348" r="50.39999" gradientUnits="userSpaceOnUse" id="color-58"><stop offset="0" stop-color="#ffffff" stop-opacity="0.14902"/><stop offset="1" stop-color="#ffffff" stop-opacity="0"/></radialGradient></defs><g transform="translate(15.5,30)"><g stroke-miterlimit="10"><g><g><g stroke-width="0" stroke-linecap="butt"><path d="M21.01315,257.03278v-155.90841h677.9737v155.90842z" fill="#090a17" stroke="#000000"/><path d="M101.90289,261.74524v-73.5h539.57076v73.5z" fill="#11132b" stroke="#424242"/></g><path d="M450.29357,143.21539v-51.5h148.85605v51.5z" fill="#000000" stroke="#424242" stroke-width="0" stroke-linecap="butt"/><path d="M120.93751,142.52834v-51.5h148.85605v51.5z" fill="#000000" stroke="#424242" stroke-width="0" stroke-linecap="butt"/><path d="M602.90285,187.74524h-481.96534" fill="none" stroke="#424242" stroke-width="2.5" stroke-linecap="round"/><path d="M316,250.43482v-138h88v138z" fill="#000000" stroke="#424242" stroke-width="0" stroke-linecap="butt"/></g><path d="M0,116.89726v-121.33506h719.43382v121.33506z" fill="#0c0626" stroke="#000000" stroke-width="0" stroke-linecap="butt"/><path d="M0.56618,364.4378v-143.85758h719.43382v143.85758z" fill="#0c0626" stroke="#000000" stroke-width="0" stroke-linecap="butt"/><g stroke="none" stroke-linecap="butt"><g fill="#8a856e" stroke-width="0"><path d="M521.63433,205.72478c1.823,-0.19408 2.98202,16.5269 -0.02689,20.8401c-2.07722,2.97765 -7.17263,9.8012 -8.43115,9.93519c-3.08151,0.32807 -4.33392,-9.58037 -2.963,-12.63086c1.05189,-2.3406 6.14797,-5.71418 7.69724,-8.68513c2.5754,-4.93869 1.79973,-9.25445 3.7238,-9.4593z"/><path d="M522.33668,223.13021c-1.93494,0 -1.62054,-4.37362 -4.70432,-9.0119c-1.8551,-2.79023 -7.27969,-5.60533 -8.57346,-7.82142c-1.68617,-2.88821 -0.48782,-6.61111 2.61111,-6.61111c1.26564,0 6.05284,-0.01668 8.43363,2.72432c3.44863,3.97041 4.06634,20.72012 2.23304,20.72012z"/></g><g fill="#b5af91" stroke-width="0"><g><g><g><path d="M484.08643,214.15169c3.06431,-0.0733 2.39479,1.84372 2.44667,4.01279c0.05188,2.16907 0.80553,3.76882 -2.25877,3.84212c-3.0643,0.0733 -2.89125,-1.69022 -2.94313,-3.85929c-0.05189,-2.16907 -0.30907,-3.92231 2.75523,-3.99561z"/><path d="M483.91966,213.28461c0.98786,-0.02363 0.81289,2.30294 0.87628,4.95281c0.06339,2.64988 0.34113,4.61961 -0.64673,4.64324c-0.98786,0.02363 -0.9699,-2.12617 -1.03329,-4.77604c-0.06339,-2.64987 -0.18412,-4.79637 0.80374,-4.82z"/></g><g><path d="M489.33643,214.15169c3.06431,-0.0733 2.39479,1.84372 2.44667,4.01279c0.05188,2.16907 0.80553,3.76882 -2.25877,3.84212c-3.0643,0.0733 -2.89125,-1.69022 -2.94313,-3.85929c-0.05189,-2.16907 -0.30907,-3.92231 2.75523,-3.99561z"/><path d="M490.04594,218.23743c0.06339,2.64988 0.34113,4.61961 -0.64673,4.64324c-0.98786,0.02363 -0.9699,-2.12617 -1.03329,-4.77604c-0.06339,-2.64988 -0.18412,-4.79638 0.80374,-4.82001c0.98786,-0.02364 0.81289,2.30294 0.87628,4.95281z"/></g></g><g><g><path d="M494.33643,214.15169c3.06431,-0.0733 2.39479,1.84372 2.44667,4.01279c0.05188,2.16907 0.80553,3.76882 -2.25877,3.84212c-3.0643,0.0733 -2.89125,-1.69022 -2.94313,-3.85929c-0.05189,-2.16907 -0.30907,-3.92231 2.75523,-3.99561z"/><path d="M495.04595,218.23743c0.06339,2.64988 0.34113,4.61961 -0.64673,4.64324c-0.98786,0.02363 -0.9699,-2.12617 -1.03329,-4.77604c-0.06339,-2.64988 -0.18412,-4.79638 0.80374,-4.82001c0.98786,-0.02364 0.81289,2.30294 0.87628,4.95281z"/></g><g><path d="M499.58643,214.15169c3.06431,-0.0733 2.39479,1.84372 2.44667,4.01279c0.05188,2.16907 0.80553,3.76882 -2.25877,3.84212c-3.0643,0.0733 -2.89125,-1.69022 -2.94313,-3.85929c-0.05189,-2.16907 -0.30907,-3.92231 2.75523,-3.99561z"/><path d="M500.29595,218.23743c0.06339,2.64988 0.34113,4.61961 -0.64673,4.64324c-0.98786,0.02363 -0.9699,-2.12617 -1.03329,-4.77604c-0.06339,-2.64988 -0.18412,-4.79638 0.80374,-4.82001c0.98786,-0.02364 0.81289,2.30294 0.87628,4.95281z"/></g></g></g><g><g><g><path d="M504.33643,214.15169c3.06431,-0.0733 2.39479,1.84372 2.44667,4.01279c0.05188,2.16907 0.80553,3.76882 -2.25877,3.84212c-3.0643,0.0733 -2.89125,-1.69022 -2.94313,-3.85929c-0.05189,-2.16907 -0.30907,-3.92231 2.75523,-3.99561z"/><path d="M505.04595,218.23743c0.06339,2.64988 0.34113,4.61961 -0.64673,4.64324c-0.98786,0.02363 -0.9699,-2.12617 -1.03329,-4.77604c-0.06339,-2.64988 -0.18412,-4.79638 0.80374,-4.82001c0.98786,-0.02364 0.81289,2.30294 0.87628,4.95281z"/></g><g><path d="M509.58643,214.15169c3.06431,-0.0733 2.39479,1.84372 2.44667,4.01279c0.05188,2.16907 0.80553,3.76882 -2.25877,3.84212c-3.0643,0.0733 -2.89125,-1.69022 -2.94313,-3.85929c-0.05189,-2.16907 -0.30907,-3.92231 2.75523,-3.99561z"/><path d="M510.29595,218.23743c0.06339,2.64988 0.34113,4.61961 -0.64673,4.64324c-0.98786,0.02363 -0.9699,-2.12617 -1.03329,-4.77604c-0.06339,-2.64988 -0.18412,-4.79638 0.80374,-4.82001c0.98786,-0.02364 0.81289,2.30294 0.87628,4.95281z"/></g></g><g><g><path d="M514.58643,214.15169c3.06431,-0.0733 2.39479,1.84372 2.44667,4.01279c0.05188,2.16907 0.80553,3.76882 -2.25877,3.84212c-3.0643,0.0733 -2.89125,-1.69022 -2.94313,-3.85929c-0.05189,-2.16907 -0.30907,-3.92231 2.75523,-3.99561z"/><path d="M515.29595,218.23743c0.06339,2.64988 0.34113,4.61961 -0.64673,4.64324c-0.98786,0.02363 -0.9699,-2.12617 -1.03329,-4.77604c-0.06339,-2.64988 -0.18412,-4.79638 0.80374,-4.82001c0.98786,-0.02364 0.81289,2.30294 0.87628,4.95281z"/></g><g><path d="M519.83643,214.15169c3.06431,-0.0733 2.39479,1.84372 2.44667,4.01279c0.05188,2.16907 0.80553,3.76882 -2.25877,3.84212c-3.0643,0.0733 -2.89125,-1.69022 -2.94313,-3.85929c-0.05189,-2.16907 -0.30907,-3.92231 2.75523,-3.99561z"/><path d="M520.71262,218.23743c0.06339,2.64988 0.34113,4.61961 -0.64673,4.64324c-0.98787,0.02363 -0.9699,-2.12617 -1.03329,-4.77604c-0.06338,-2.64988 -0.18412,-4.79638 0.80374,-4.82001c0.98786,-0.02364 0.81289,2.30294 0.87628,4.95281z"/></g></g></g></g><g fill="#a39f83" stroke-width="0"><path d="M564.14704,226.88805c0,1.72047 -50.32305,1.72047 -50.32305,0c0,-0.27477 -0.75663,-2.46377 1.40043,-2.65077c8.26656,-0.71666 35.20534,-0.99612 46.64439,0.14053c4.26612,0.42391 2.27823,2.11753 2.27823,2.51024z"/><path d="M564.37372,230.38805c0,0.87302 -11.99233,4.89436 -24.69971,4.98992c-12.37677,0.09307 -25.62335,-4.89247 -25.62335,-5.73992c0,-0.27477 -0.52994,-1.46377 1.62712,-1.65077c4.56199,-0.3955 13.77336,3.00361 23.96497,2.72628c8.22617,-0.22384 17.09977,-2.84512 22.22606,-2.33575c4.26611,0.42391 2.50491,1.61753 2.50491,2.01024z"/><path d="M610.83176,224.10705c4.26611,0.49724 1.59819,7.40487 1.59819,7.86551c0,1.02404 -23.16277,3.22507 -35.58869,2.92738c-12.42592,-0.29769 -13.37428,-3.16156 -13.37428,-4.10038c0,-0.3223 -1.43667,-5.23597 0.72039,-5.45532c4.562,-0.46391 1.30594,6.81533 11.49755,6.49003c4.50525,-0.1438 32.82809,-7.99748 35.14685,-7.72722z"/><path d="M609.80791,222.08946c4.13906,0.03096 2.48519,0.86864 2.50093,1.11266c0.03501,0.54249 -11.39115,3.69473 -23.66562,4.44649c-11.95512,0.7322 -24.95431,-1.64401 -24.98829,-2.17061c-0.01101,-0.17074 -0.57073,-0.88069 1.50599,-1.11443c4.3921,-0.49432 13.42872,1.11596 23.26507,0.38833c7.93942,-0.58731 16.40829,-2.69965 21.38191,-2.66244z"/></g><path d="M519.68349,207.46449c0.36281,-0.85614 14.06354,4.48584 26.47306,9.82643c-1.87675,0.59651 -4.48555,0.49448 -5.94604,0.58829c-0.99794,0.0641 -2.48947,0.1599 -3.48741,0.224c-0.05356,0.00231 -0.10512,0.02188 -0.14669,0.05547c-7.11024,-3.08747 -13.48222,-6.03482 -16.6378,-7.70709c-1.91311,-1.01384 -0.36234,-2.73411 -0.25513,-2.9871z" fill="#a39f83" stroke-width="0"/><path d="M520.14592,203.53705c0.18973,-0.44771 4.92644,-0.44815 11.07555,0.56125c-0.51634,0.29297 -2.16427,1.11558 -2.09748,1.57954c0.03952,0.27447 1.30059,0.64777 1.54884,0.7463c1.42031,0.56373 5.10185,0.77608 5.92695,2.0117c0.39003,0.55035 0.8281,1.05852 1.25886,1.57731l0.15935,0.19191c0,0 0.01855,0.02234 0.05061,0.04547c-7.2072,-2.23138 -13.90222,-2.88066 -17.06864,-4.55867c-1.91312,-1.01383 -0.96125,-1.90181 -0.85404,-2.1548z" fill="#a39f83" stroke-width="0"/><g fill="#b5af91" stroke-width="0"><path d="M613.94525,224.04363c6.12245,-4.18552 17.05309,10.79098 10.93063,14.9765c-0.44149,0.30181 -11.54679,-4.06509 -15.1914,-9.05872c-1.67974,-2.30147 1.30501,-2.77542 1.82451,-3.10715c0.60769,-0.38803 -0.86447,-0.55415 2.43625,-2.81063z"/><path d="M612.0699,220.28788c6.12244,-4.18551 7.91545,-0.55025 1.79299,3.63527c-3.30072,2.25649 -2.49312,1.45049 -3.08528,1.86124c-0.50623,0.35115 -2.60311,2.12385 -2.87864,1.56521c-0.59784,-1.21211 3.72944,-6.7599 4.17093,-7.06171z"/></g><g stroke-width="0.5"><path d="M503.42868,224.5618c-0.3687,-0.52303 -0.73309,-1.04112 -1.02882,-1.55912c-1.07626,-1.88517 -1.88153,-4.28446 -2.17284,-6.60007c1.25872,-1.1476 2.76148,-2.13918 4.13062,-3.34521c0.51563,-0.45419 1.47517,-1.0142 1.82753,-1.59462c0.51765,-0.85267 -0.26062,-1.22193 -0.42058,-2.00067c-0.31726,-1.54451 1.0208,-4.07698 1.98745,-5.10874c2.29729,0.073 4.92768,0.21197 7.25009,0.79184c-0.03525,-0.04543 -0.07322,-0.09022 -0.11424,-0.13429l-0.10228,-0.32608c0,0 -0.04877,-0.2452 0.19643,-0.29397c0.2452,-0.04876 0.29396,0.19644 0.29396,0.19644l-0.02061,0.08459c0.19132,0.20906 0.31846,0.4295 0.41464,0.65525c0.29857,0.08853 0.59065,0.18543 0.87477,0.29155c0,0 0.23421,0.08748 0.14673,0.32167c-0.08748,0.2342 -0.32167,0.14673 -0.32167,0.14673c-0.16547,-0.0618 -0.33186,-0.11788 -0.49907,-0.1689c0.12148,0.41476 0.23522,0.82964 0.53508,1.20896c0.58953,0.74575 1.53463,0.8235 2.2136,1.39153c1.61114,1.37428 -0.37148,2.91349 0.01032,4.69513c0.32568,1.51973 1.338,3.14077 1.94427,4.57752c1.06521,4.36121 0.12468,5.88456 -3.75528,8.21586c-2.89913,1.13556 -5.54569,2.34926 -8.17535,3.8281l-0.34422,0.33008c-0.09141,0.08983 -0.23794,0.09642 -0.33728,0.01168c-0.07593,-0.06478 -0.10352,-0.16517 -0.07914,-0.25552l0.11881,-0.48011c0.48193,-1.89055 -0.33491,-3.25329 -1.91468,-4.12292c-0.59053,-0.32508 -1.56942,-0.53652 -2.65824,-0.75671z" fill="#330707"/><path d="M508.01929,228.60986c-0.87144,0.69944 -3.30664,1.07375 -3.75137,1.10767c-3.4549,0.12137 -6.89703,0.35844 -10.34599,0.59229c-0.21646,0.00391 -0.43321,0.00914 -0.65022,0.01545c0.04556,0.06628 0.09049,0.13317 0.13483,0.2006c-2.28805,-0.12687 -4.71173,0.18569 -6.73306,0.84808c-0.42344,0.13876 -0.85816,0.31945 -1.29865,0.51161c0.17844,-0.41789 0.36381,-0.84259 0.56011,-1.25554c-0.77541,0.00852 -1.54843,-0.00115 -2.31728,-0.03919c-1.96279,-0.09711 -3.55615,-0.22195 -5.33531,-1.09288c-2.30658,-1.1291 -2.22223,-2.08949 0.34527,-2.33275c3.39147,-0.32133 6.69996,-0.52833 9.99452,-1.41028c3.09467,-0.82619 6.3487,-2.29833 9.19328,-3.75742c3.35434,-1.72056 5.32707,-3.66802 6.88456,-7.07544c1.24505,-1.72105 3.19726,-1.29512 3.44368,1.10839c0.14558,1.41989 -1.65481,3.72565 -0.83407,4.97896c1.85616,3.09749 1.81854,5.12552 1.01193,8.534c0,0 -0.05758,0.24328 -0.30086,0.18571c-0.24328,-0.05757 -0.1857,-0.30085 -0.1857,-0.30085c0.06694,-0.28287 0.12862,-0.55512 0.18432,-0.8184z" fill="#330707"/><path d="M517.66786,227.73654c-0.05838,0.1666 -0.25145,0.15296 -0.25145,0.15296l-0.09153,-0.01865c-0.59795,0.21717 -1.06435,0.28849 -1.24452,0.11669c0,0 -0.00237,-0.00272 -0.00621,-0.00781c-2.06559,-0.06948 -3.87957,-1.27397 -6.05877,-0.8901c-3.64611,1.07578 -6.14199,-0.96127 -9.62209,-1.49395c-1.28858,-0.19856 -2.84719,-0.24287 -3.96492,-0.99838c-2.0054,-1.35552 -2.61031,-3.48131 -0.30837,-4.43596c3.00915,-1.24793 6.66585,-0.72925 10.0054,-0.98541c3.64107,-0.27929 7.52682,-0.99329 9.02455,3.03328c0.60821,1.63511 4.43261,-0.10469 5.9569,-0.53111c0.32342,-0.09048 1.44915,-0.46302 1.73308,-0.20455c0.15445,0.1406 -0.2989,1.09571 -0.34508,1.30197c-0.13499,0.59478 -0.17912,1.50786 -0.48001,2.03608c-0.41934,0.73615 -2.71638,2.24428 -4.34697,2.92492z" fill="#401717"/></g><g stroke-width="0.5"><path d="M521.81114,225.97862c2.63549,0.00823 5.28893,0.04433 7.96906,0.00451c3.62101,-0.01064 6.73155,-0.67267 10.33526,-0.67275c3.51114,-0.00003 6.96823,0.32393 10.48093,0.33267c1.34263,0.00069 5.89005,-0.71464 6.48137,0.80871c0.33018,0.8506 -1.57229,2.83025 -2.08135,3.54383c-1.52277,2.65027 -6.88881,3.01004 -9.69391,3.71137c-3.36678,0.84176 -6.96342,1.78613 -10.44402,1.29432c-3.49602,-0.49399 -6.71706,-1.84877 -10.20477,-1.85595c-1.94078,-0.02049 -5.5193,-1.70526 -5.70524,-3.8593c-0.10964,-1.27017 0.81032,-2.01969 0.97632,-3.27916c0.07649,-2.25446 1.6524,-1.47221 1.88637,-0.02827z" fill="#330707"/><path d="M522.05788,227.77702l0.48634,-0.00071c2.09459,-0.01705 4.27398,-0.63486 6.27987,-1.1946c3.47658,0.00474 6.73236,1.39958 10.21285,0.48795c2.7997,-0.73077 6.12052,-0.29265 9.0213,-0.29265c0,0 0.25,0 0.25,0.25c0,0.25 -0.25,0.25 -0.25,0.25c-2.85385,0 -6.14246,-0.44364 -8.89489,0.2764c-3.51223,0.91574 -6.77136,-0.43639 -10.27178,-0.47628c-2.01378,0.58378 -4.23748,1.18195 -6.34495,1.19917l-0.48801,0.00071c0,0 -0.25,0.00037 -0.25036,-0.24963c-0.00037,-0.25 0.24963,-0.25036 0.24963,-0.25036z" fill="#331313"/><path d="M549.70825,228.62703c0,0.25 -0.25,0.25 -0.25,0.25h-0.5c-1.85269,0 -3.51538,0.30518 -5.33353,0.61099c-3.53159,0.59205 -6.50672,1.38901 -10.16647,1.38901c-2.29939,0 -7.01619,0.39626 -8.93868,-0.84199c0,0 -0.20802,-0.13868 -0.06934,-0.34669c0.13868,-0.20802 0.34669,-0.06934 0.34669,-0.06934c1.70142,1.18567 6.55604,0.75801 8.66132,0.75801c3.63576,0 6.5753,-0.79013 10.08353,-1.38208c1.84425,-0.3102 3.5367,-0.61792 5.41647,-0.61792h0.5c0,0 0.25,0 0.25,0.25z" fill="#331313"/><path d="M548.43501,230.25025c0.17678,0.17677 0,0.35355 0,0.35355l-0.29871,0.26072c-1.41582,0.46538 -3.21573,1.1977 -4.67207,1.21509c-3.09665,0.62705 -5.5993,1.39741 -8.80599,1.39741c0,0 -0.25,0 -0.25,-0.25c0,-0.25 0.25,-0.25 0.25,-0.25c3.19313,0 5.66659,-0.7841 8.75517,-1.39482c1.40857,-0.00014 3.19259,-0.74099 4.56677,-1.19268l0.10129,-0.13928c0,0 0.17677,-0.17678 0.35355,0z" fill="#331313"/></g><path d="M512.14172,223.6026c1.66181,-2.74947 9.85792,-7.76496 9.85792,-11.18661c0,-3.70259 -9.09574,-2.70356 -10.93939,-5.70389c-3.51888,-5.72662 -0.44083,-8.12945 3.60607,-8.12945c6.16718,0 9.5,5.89712 9.5,16.66667c0,10.76955 -3.33282,22.33333 -9.5,22.33333c-4.20778,0 -6.09332,-8.07563 -2.5246,-13.98005zM518.4441,202.76513c-1.38071,0 -2.5,1.11929 -2.5,2.5c0,1.38071 5.77778,3.82515 5.77778,2.44444c0,-1.38071 -1.89707,-4.94444 -3.27778,-4.94444zM522.11446,217.68579c0,-1.38071 -6.44445,4.7304 -6.44445,6.11111c0,1.38071 3.67484,1.83333 5.05555,1.83333c1.38071,0 1.38889,-6.56373 1.38889,-7.94444z" fill="#b5af91" stroke-width="0"/><path d="M537.90755,221.27443c-1.44044,-0.00012 -2.88089,-0.00026 -4.32134,-0.00038c0.36492,-0.07148 0.72984,-0.14296 1.09476,-0.21444c3.43407,-0.67265 6.87501,-1.30394 10.31687,-1.9354c2.94658,-0.5406 5.94807,-0.96297 8.85433,-1.68953c0,0 0.02081,-0.0052 0.04871,-0.01865c3.86003,0.12996 7.93388,0.28409 12.03561,0.4657c-0.7014,1.08734 -2.84431,2.71481 -3.32212,3.17365c-1.91653,1.84043 0.90388,2.26643 2.58389,2.97033c-0.98407,0.12053 -2.26118,1.13036 -0.92061,1.99026c1.60346,1.02853 4.47547,1.28584 6.31785,1.81062c0.88498,0.25207 1.3564,0.43946 1.52977,0.5809c-0.99437,0.04153 -1.93315,0.17364 -2.70762,0.47584l-0.02199,-0.07754l-0.47572,0.13493c-0.10762,0.0279 -0.18709,0.12568 -0.18709,0.24202c0,0.13807 0.11193,0.25 0.25,0.25c0.00475,0 0.00948,-0.00013 0.01417,-0.00039l0.49752,-0.0245c0.11492,-0.00566 0.30845,-0.00727 0.54819,-0.01185c1.72784,0.33854 4.4905,-0.04149 6.51434,-0.21219c-0.0438,0.0321 -0.08631,0.06487 -0.12734,0.09793l-0.38356,0.31767c-0.05618,0.04585 -0.09205,0.11563 -0.09205,0.1938c0,0.13503 0.10705,0.24506 0.24092,0.24984l0.49833,0.0206l0.00234,-0.05648c2.78754,0.32589 7.09081,-1.02746 9.18908,-2.29792c0.71285,-0.43162 1.84953,-1.11986 2.56238,-1.55147c0.07439,-0.04331 0.12439,-0.12392 0.12439,-0.2162c0,-0.13295 -0.10379,-0.24166 -0.23476,-0.24954l-0.49681,-0.03435l-0.01026,0.14832c-0.57484,-0.03967 -1.27507,-0.07829 -1.34601,-0.1372c-0.70216,-0.58316 0.74536,-1.12138 1.07494,-1.3071c1.60469,-0.90425 3.94749,-1.87999 3.31094,-4.01215c-0.13551,-0.4362 -0.09915,-0.70898 0.05323,-0.88333c7.62377,0.71409 13.33699,1.60591 14.97309,2.71398c5.02313,3.40198 8.33324,19.55104 -13.82555,17.72918c-8.70277,-0.71553 -23.21692,-0.77978 -38.21558,-0.97371c-0.08508,-0.21873 -0.2452,-0.45733 -0.48577,-0.7092c-0.67339,-0.70501 -3.99615,-2.32557 -5.82581,-2.60717c0.54444,-0.14755 1.09839,-0.29129 1.64913,-0.4485c1.57927,0.38621 3.17272,0.70922 4.68466,0.75946l-0.00529,0.02552l0.48446,0.10043c0.01796,0.0041 0.03667,0.00627 0.05588,0.00627c0.13807,0 0.25,-0.11193 0.25,-0.25c0,-0.06882 -0.02781,-0.13114 -0.0728,-0.17635c-0.00001,-0.00001 -0.00002,-0.00002 -0.00003,-0.00003l-0.35268,-0.35436c-0.48279,-0.48509 -1.10908,-0.95446 -1.82278,-1.38743c0.02685,-0.01575 0.05362,-0.03164 0.0803,-0.04768l0.01569,0.03508l0.45122,-0.20183c0.08996,-0.03785 0.15312,-0.12682 0.15312,-0.23054c0,-0.11567 -0.07856,-0.213 -0.18524,-0.24153c-0.30836,-0.09009 -1.09132,-0.31882 -1.39969,-0.40891l0.27913,-0.0255c0.12863,-0.01029 0.22981,-0.11793 0.22981,-0.2492c0,-0.10869 -0.06935,-0.20118 -0.16622,-0.23562l-0.46162,-0.17638c-2.36044,-0.90188 -5.09215,-2.46339 -7.61922,-2.54835c-2.33202,-0.07841 -4.66403,-0.15681 -6.99605,-0.23522c-0.05302,-0.00178 -0.10945,-0.00508 -0.16874,-0.00949c0.88035,-0.12754 1.7607,-0.25508 2.64105,-0.38262c2.81716,-0.40814 6.54248,-1.08571 9.20205,-2.43487l0.0079,0.02688l0.47438,-0.13934c0.10651,-0.02865 0.1849,-0.12589 0.1849,-0.24144c0,-0.12395 -0.09021,-0.22684 -0.20856,-0.24658c-2.62154,-0.48851 -5.73026,-1.06781 -8.3518,-1.55632c-1.5195,-0.28315 -2.96442,-0.50719 -4.44151,-0.63488c1.65232,-0.10981 3.30463,-0.21963 4.95695,-0.32944c2.96629,-0.19714 6.59227,-0.22204 9.38109,-1.52843l0.00858,0.03505l0.48065,-0.1176c0.11192,-0.02483 0.19561,-0.12468 0.19561,-0.24407c0,-0.13806 -0.11192,-0.24999 -0.24998,-0.25v0c-0.66667,-0.00005 -1.83333,-0.00015 -2.5,-0.0002c-3.5,-0.00028 -7,-0.00056 -10.5,-0.00084z" fill="#7a8db6" stroke-width="0"/><path d="M630.21895,239.24969c-6.51928,5.22868 -16.04289,4.18244 -21.27157,-2.33684c-1.99873,-2.49208 -0.99096,-12.90663 -0.99096,-12.90663c0,0 -5.82974,0.07917 -4.8985,-2.12711c0.94462,-2.23799 6.19834,-4.61133 8.2263,-6.23782c6.51928,-5.22868 25.45401,18.37972 18.93473,23.6084z" fill="#111111" stroke-width="0"/></g><g><g><g fill="none" stroke-width="3.25" stroke-linecap="round"><path d="M363.27178,152.04106c0,0 0.55089,-6.29313 0.71586,-8.17762c0.08715,-0.99552 -1.43861,-1.5307 -3.81582,-0.4404c-4.49367,2.06099 -11.62734,5.33282 -15.32481,7.02865c-4.41459,2.02472 -11.10674,2.2311 -10.68076,0.25768c0.57554,-2.66645 2.0299,-9.40389 2.0299,-9.40389" stroke="url(#color-1)"/><path d="M337.88727,141.32216c0,0 -13.68693,6.27743 -19.34042,8.87038c-4.41456,2.02472 -11.10672,2.2311 -10.68076,0.25768c0.57557,-2.66644 2.0299,-9.40388 2.0299,-9.40388" stroke="url(#color-2)"/><path d="M308.29965,141.03059c0,0 -13.68693,6.27743 -19.34042,8.87038c-4.41456,2.02472 -11.10672,2.2311 -10.68076,0.25768c0.57557,-2.66644 2.0299,-9.40389 2.0299,-9.40389" stroke="url(#color-3)"/><path d="M281.99953,140.77143c0,0 -13.68693,6.27743 -19.34042,8.87038c-4.41456,2.02472 -11.10672,2.2311 -10.68076,0.25768c0.57557,-2.66644 2.0299,-9.40389 2.0299,-9.40389" stroke="url(#color-4)"/><path d="M251.31608,140.46907c0,0 -13.68693,6.27743 -19.34042,8.87038c-4.41456,2.02472 -11.10672,2.2311 -10.68076,0.25768c0.57557,-2.66644 2.0299,-9.40389 2.0299,-9.40389" stroke="url(#color-5)"/><path d="M225.01596,140.20991c0,0 -13.68693,6.27743 -19.34042,8.87038c-4.41456,2.02472 -11.10672,2.2311 -10.68076,0.25768c0.57557,-2.66644 2.0299,-9.40389 2.0299,-9.40389" stroke="url(#color-6)"/><path d="M195.42834,139.91834c0,0 -13.68693,6.27743 -19.34042,8.87038c-4.41456,2.02472 -11.10672,2.23111 -10.68076,0.25768c0.57557,-2.66644 2.0299,-9.40389 2.0299,-9.40389" stroke="url(#color-7)"/><path d="M169.12822,139.65919c0,0 -13.68693,6.27743 -19.34042,8.87038c-4.41456,2.02472 -11.10672,2.2311 -10.68076,0.25768c0.57557,-2.66644 2.0299,-9.40389 2.0299,-9.40389" stroke="url(#color-8)"/></g><path d="M131.22414,133.83146c8.06186,0.86266 35.85383,-5.74818 37.88089,-2.31882c0.64963,1.09902 -20.62523,11.79719 -20.93785,12.94504c-0.47865,1.75756 3.1434,10.62819 0.72913,11.7689c-4.08252,1.92892 -15.64717,-4.55197 -22.33666,-5.26778c-3.14115,-0.33612 -20.49936,2.24724 -26.49785,-2.27752c-2.15513,-1.62564 4.37524,0.48001 6.98113,-2.26847c2.01578,-2.12607 -35.25949,-3.60023 -28.06368,-11.89095c6.97092,-8.0316 41.59942,-1.82951 52.24486,-0.69039z" fill="#0d0d0d" stroke="#000000" stroke-width="0" stroke-linecap="butt"/></g><g><g fill="none" stroke-width="3.25" stroke-linecap="round"><path d="M425.91083,174.3062c0,0 -2.08093,6.70163 -2.90449,9.35391c-0.60951,1.96294 -5.91118,1.31854 -8.49615,-0.95816c-2.16508,-1.90688 -6.34226,-5.58591 -8.97353,-7.90341c-1.39199,-1.22599 -2.882,-0.80207 -3.29258,0.17972c-0.77722,1.8585 -3.37269,8.06484 -3.37269,8.06484" stroke="url(#color-9)"/><path d="M447.26337,175.78942c0,0 -2.08091,6.70164 -2.90447,9.35392c-0.60951,1.96294 -5.91118,1.31853 -8.49617,-0.95818c-3.31043,-2.91565 -11.3249,-9.97434 -11.3249,-9.97434" stroke="url(#color-10)"/><path d="M471.285,177.45806c0,0 -2.08093,6.70164 -2.90449,9.35391c-0.60951,1.96294 -5.91118,1.31853 -8.49615,-0.95818c-3.31043,-2.91565 -11.3249,-9.97434 -11.3249,-9.97434" stroke="url(#color-11)"/><path d="M492.63753,178.94129c0,0 -2.08091,6.70164 -2.90447,9.35392c-0.60951,1.96294 -5.91118,1.31853 -8.49618,-0.95817c-3.31043,-2.91565 -11.3249,-9.97434 -11.3249,-9.97434" stroke="url(#color-12)"/><path d="M517.54883,180.67172c0,0 -2.0809,6.70164 -2.90447,9.35392c-0.60951,1.96294 -5.91118,1.31854 -8.49615,-0.95817c-3.31043,-2.91565 -11.3249,-9.97434 -11.3249,-9.97434" stroke="url(#color-13)"/><path d="M538.90139,182.15495c0,0 -2.08091,6.70164 -2.90447,9.35391c-0.60951,1.96294 -5.91119,1.31853 -8.49617,-0.95818c-3.31043,-2.91565 -11.3249,-9.97434 -11.3249,-9.97434" stroke="url(#color-14)"/><path d="M562.92302,183.82359c0,0 -2.0809,6.70164 -2.90447,9.35392c-0.60951,1.96294 -5.91118,1.31853 -8.49615,-0.95818c-3.31043,-2.91565 -11.3249,-9.97434 -11.3249,-9.97434" stroke="url(#color-15)"/><path d="M584.27555,185.30682c0,0 -2.0809,6.70164 -2.90447,9.35392c-0.60951,1.96294 -5.91119,1.31853 -8.49617,-0.95818c-3.31043,-2.91565 -11.3249,-9.97434 -11.3249,-9.97434" stroke="url(#color-16)"/></g><path d="M636.79279,184.64646c1.80277,8.60378 -28.995,7.58677 -28.39509,9.80438c0.77554,2.86683 7.06351,1.23378 4.53875,2.68524c-7.02737,4.03994 -19.78953,0.36051 -22.48719,0.48255c-5.745,0.25991 -18.20988,5.85002 -20.57313,3.68917c-1.39755,-1.27787 5.81114,-9.73559 6.27386,-11.49037c0.3022,-1.14602 -11.70104,-13.04017 -10.64582,-14.07476c3.29278,-3.22833 22.53066,5.08897 29.45425,4.77575c9.14244,-0.41361 40.08796,-4.20684 41.83438,4.12804z" fill="#0d0d0d" stroke="#000000" stroke-width="0" stroke-linecap="butt"/></g><g fill="none" stroke-width="3.25" stroke-linecap="round"><path d="M300.33456,226.57114c0,0 -4.15526,-5.3281 -5.79975,-7.43678c-1.21709,-1.56062 1.01012,-2.79683 3.51531,-2.03295c2.09825,0.63979 6.1465,1.87416 8.69657,2.65172c1.34902,0.41134 1.53743,-0.3574 0.96381,-1.17156c-1.08585,-1.54119 -4.71197,-6.68793 -4.71197,-6.68793" stroke="url(#color-17)"/><path d="M292.16872,232.32438c0,0 -4.15526,-5.3281 -5.79975,-7.43678c-1.21709,-1.56062 1.01012,-2.79683 3.51532,-2.03295c3.20826,0.97825 10.97535,3.34655 10.97535,3.34655" stroke="url(#color-18)"/><path d="M282.98218,238.79676c0,0 -4.15526,-5.3281 -5.79975,-7.43678c-1.21709,-1.56062 1.01012,-2.79682 3.51531,-2.03294c3.20826,0.97825 10.97535,3.34655 10.97535,3.34655" stroke="url(#color-19)"/><path d="M274.81634,244.54999c0,0 -4.15526,-5.32809 -5.79975,-7.43677c-1.21709,-1.56062 1.01012,-2.79683 3.51532,-2.03295c3.20826,0.97825 10.97536,3.34655 10.97536,3.34655" stroke="url(#color-20)"/><path d="M265.28953,251.2621c0,0 -4.15526,-5.32809 -5.79975,-7.43677c-1.21709,-1.56062 1.01012,-2.79683 3.51531,-2.03295c3.20826,0.97825 10.97536,3.34655 10.97536,3.34655" stroke="url(#color-21)"/><path d="M257.1237,257.01533c0,0 -4.15526,-5.3281 -5.79975,-7.43678c-1.2171,-1.56062 1.01013,-2.79683 3.51532,-2.03295c3.20826,0.97825 10.97535,3.34655 10.97535,3.34655" stroke="url(#color-22)"/><path d="M247.93713,263.48772c0,0 -4.15526,-5.3281 -5.79975,-7.43678c-1.2171,-1.56062 1.01012,-2.79683 3.51531,-2.03295c3.20827,0.97825 10.97535,3.34655 10.97535,3.34655" stroke="url(#color-23)"/><path d="M239.77131,269.24095c0,0 -4.15526,-5.3281 -5.79975,-7.43678c-1.2171,-1.56062 1.01012,-2.79683 3.51532,-2.03295c3.20827,0.97825 10.97535,3.34655 10.97535,3.34655" stroke="url(#color-24)"/></g><path d="M223.93165,267.88705c0,-8.19602 6.64419,-14.84021 14.84021,-14.84021c4.74295,0 16.12234,6.32239 16.12234,6.32239c0,0 1.00098,4.55739 1.00098,8.01046c0,8.19602 -31.96353,8.70338 -31.96353,0.50736z" fill="#272727" stroke="url(#color-25)" stroke-width="0" stroke-linecap="butt"/><g><path d="M351.22608,215.81383c-0.4944,0.36746 -4.61854,-5.26698 -6.54417,-12.66019c-0.88419,-3.39472 2.65623,-7.65684 0.17497,-10.99525c-2.81225,-3.78376 -7.13762,-0.82812 -10.78489,-2.77274c-6.57903,-3.50775 -12.21535,-10.19172 -11.75124,-10.53668c0.72141,-0.53618 30.56257,-10.55711 38.44763,0.05187c7.88507,10.60899 -8.82089,36.3768 -9.5423,36.91298z" fill="#4c1212" stroke="url(#color-26)" stroke-width="0" stroke-linecap="butt"/><path d="M403.31781,182.82251c-0.53045,0.39425 -15.31038,-2.8653 -24.70938,-15.51121c-9.399,-12.64591 -10.26803,-28.03392 -9.73758,-28.42817c0.26187,-0.19464 7.48155,11.86523 15.98638,22.70701c8.7226,11.1194 18.72914,21.03275 18.46057,21.23236z" fill="#4c1212" stroke="url(#color-27)" stroke-width="0" stroke-linecap="butt"/><g fill="none" stroke-width="3.25" stroke-linecap="round"><path d="M383.73888,158.81061c0,0 2.23929,3.5583 3.12552,4.96654c0.6559,1.04224 7.07096,-3.59176 7.5849,-5.57356c0.43046,-1.65989 3.26096,-8.36235 3.78411,-10.37965c0.27675,-1.06718 3.44438,-0.66106 3.81338,-0.16459c0.36682,0.49353 5.3516,14.76148 15.16656,37.4481c1.18034,2.72826 -6.56948,21.92643 -5.24906,24.54866c1.20165,2.38637 17.81353,2.23372 18.80701,4.51214c1.43641,3.29425 -11.14287,13.32853 -9.7647,15.98265c4.49638,8.65933 14.57127,5.08662 14.57127,5.08662" stroke="url(#color-28)"/><path d="M384.25013,158.43062c0,0 -1.59343,6.14436 -2.25162,8.68234c-0.51394,1.9818 -2.42898,3.6158 -3.08489,2.57356c-0.88623,-1.40824 -3.12552,-4.96654 -3.12552,-4.96654" stroke="url(#color-29)"/><path d="M375.30551,165.07866c0,0 -1.59343,6.14436 -2.25162,8.68234c-0.51394,1.9818 -2.42898,3.6158 -3.08489,2.57356c-0.88623,-1.40824 -3.12552,-4.96654 -3.12552,-4.96654" stroke="url(#color-30)"/><path d="M367.35474,170.98803c0,0 -1.59343,6.14436 -2.25162,8.68234c-0.51394,1.9818 -2.42898,3.61579 -3.08489,2.57355c-0.88623,-1.40824 -3.12552,-4.96654 -3.12552,-4.96654" stroke="url(#color-31)"/><path d="M358.07885,177.88229c0,0 -1.59343,6.14436 -2.25161,8.68234c-0.51394,1.9818 -2.42898,3.61579 -3.08489,2.57355c-0.88623,-1.40824 -3.12552,-4.96654 -3.12552,-4.96654" stroke="url(#color-32)"/><path d="M350.12808,183.79166c0,0 -1.59343,6.14435 -2.25161,8.68233c-0.51394,1.9818 -2.42899,3.61579 -3.0849,2.57356c-0.88623,-1.40824 -3.12552,-4.96654 -3.12552,-4.96654" stroke="url(#color-33)"/><path d="M341.18346,190.4397c0,0 -1.59343,6.14436 -2.25161,8.68234c-0.51394,1.9818 -2.42899,3.61579 -3.0849,2.57356c-0.88623,-1.40824 -3.12552,-4.96654 -3.12552,-4.96654" stroke="url(#color-34)"/><path d="M333.23269,196.34907c0,0 -1.59343,6.14436 -2.25161,8.68234c-0.51394,1.9818 -2.42899,3.61579 -3.0849,2.57356c-0.88623,-1.40824 -3.12552,-4.96654 -3.12552,-4.96654" stroke="url(#color-35)"/></g><path d="M364.34922,158.85313c2.48232,-1.84497 3.38645,-10.91233 5.01295,-11.13075c2.05011,-0.27529 4.62619,8.70315 5.99381,10.10936c1.66672,1.71375 3.10698,4.30245 5.00422,6.8551c1.98447,2.67 4.15964,5.0785 5.29435,7.49956c0.67781,1.4462 7.42103,6.58196 7.0939,8.09554c-0.41926,1.93983 -8.31604,0.2979 -11.36941,2.5673c-5.06918,3.76764 -16.09767,12.34277 -23.53429,13.90563c-6.38893,1.34268 -9.44569,-3.78711 -11.61257,-6.70255c-1.82112,-2.45022 -5.05367,-8.7463 -2.7138,-13.37327c3.68495,-7.28678 15.06676,-13.5418 20.83085,-17.82594z" fill="#dadada" stroke="#000000" stroke-width="0" stroke-linecap="butt"/><path d="M356.21296,166.31273c7.03256,-5.22691 16.21213,-4.78393 20.50315,0.98943c4.29102,5.77336 2.06857,14.69085 -4.96399,19.91776c-7.03256,5.22691 -16.21213,4.78392 -20.50315,-0.98944c-4.29102,-5.77336 -2.06857,-14.69084 4.96399,-19.91775z" fill="#ababab" stroke="url(#color-36)" stroke-width="0" stroke-linecap="butt"/><path d="M353.36365,198.88161c8.9533,-9.12404 34.30699,-23.19284 38.08871,-24.08391c6.33648,-1.49303 9.76891,3.81633 12.42286,8.13953c1.55708,2.53644 -21.26729,11.14846 -36.96535,15.34275c-7.4721,1.99643 -15.3199,18.31502 -15.3199,18.31502c0,0 -7.19349,-8.57523 1.77368,-17.71339z" fill="#801d1d" stroke="url(#color-37)" stroke-width="0" stroke-linecap="butt"/><path d="M321.30286,178.41716c0,0 17.88828,-2.80961 21.95426,-9.3888c8.5422,-13.82216 23.36917,-33.19431 25.34896,-30.97205c3.37444,3.78772 7.46872,8.60516 4.21217,14.24209c-1.94356,3.36422 -22.72483,23.58499 -34.04282,29.52747c-11.33549,5.95168 -17.47258,-3.40872 -17.47258,-3.40872z" fill="#801d1d" stroke="url(#color-38)" stroke-width="0" stroke-linecap="butt"/></g><g fill="none" stroke-width="3.25" stroke-linecap="round"><path d="M336.12875,235.96778c0,0 -6.29585,0 -8.18114,0c-0.99594,0 -1.51586,0.19448 -0.40262,0.47666c2.10437,0.53341 5.44505,1.3802 7.17657,1.8191c2.06734,0.52402 2.33954,1.34939 0.36277,1.31807c-2.67096,-0.04231 -9.41982,-0.14924 -9.41982,-0.14924" stroke="url(#color-39)"/><path d="M325.66451,239.22306c0,0 6.40954,1.62467 9.05706,2.29576c2.06733,0.52402 2.33954,1.34938 0.36277,1.31807c-2.67096,-0.04231 -9.41982,-0.14923 -9.41982,-0.14923" stroke="url(#color-40)"/><path d="M325.66451,242.88525c0,0 6.40954,1.62467 9.05706,2.29576c2.06733,0.52402 2.33954,1.34938 0.36277,1.31807c-2.67096,-0.04231 -9.41982,-0.14923 -9.41982,-0.14923" stroke="url(#color-41)"/><path d="M325.66451,246.14053c0,0 6.40954,1.62467 9.05706,2.29576c2.06733,0.52402 2.33954,1.34938 0.36277,1.31807c-2.67096,-0.04231 -9.41982,-0.14923 -9.41982,-0.14923" stroke="url(#color-42)"/><path d="M325.66451,249.93835c0,0 6.40954,1.62467 9.05706,2.29576c2.06733,0.52402 2.33954,1.34938 0.36277,1.31807c-2.67096,-0.04231 -9.41982,-0.14923 -9.41982,-0.14923" stroke="url(#color-43)"/><path d="M325.66451,253.19363c0,0 6.40954,1.62467 9.05706,2.29576c2.06733,0.52402 2.33954,1.34939 0.36277,1.31807c-2.67096,-0.04231 -9.41982,-0.14923 -9.41982,-0.14923" stroke="url(#color-44)"/><path d="M325.66451,256.85582c0,0 6.40954,1.62467 9.05706,2.29576c2.06733,0.52402 2.33954,1.34939 0.36277,1.31808c-2.67096,-0.04231 -9.41982,-0.14923 -9.41982,-0.14923" stroke="url(#color-45)"/><path d="M325.66451,260.11109c0,0 6.40954,1.62468 9.05706,2.29576c2.06733,0.52402 2.33954,1.34938 0.36277,1.31807c-2.67096,-0.04231 -9.41982,-0.14923 -9.41982,-0.14923" stroke="url(#color-46)"/></g><path d="M322.98383,267.80918c0,-3.45307 1.00098,-8.01046 1.00098,-8.01046c0,0 11.37938,-6.32239 16.12234,-6.32239c8.19602,0 14.84021,6.64419 14.84021,14.84021c0,8.19602 -31.96353,7.68867 -31.96353,-0.50736z" fill="#272727" stroke="url(#color-47)" stroke-width="0" stroke-linecap="butt"/><g stroke="#000000" stroke-width="0" stroke-linecap="butt"><path d="M430.12617,251.43879l3.59725,-22.28264l5.27537,0.85165l-3.59726,22.28264z" fill="#2f323e"/><path d="M430.22377,227.47747c-1.93121,-4.48792 0.12184,-19.37589 0.12184,-19.37589l17.99629,2.73456c0,0 -3.06147,14.25423 -5.51477,18.22926c-1.65425,2.68033 -4.71891,1.8209 -7.00887,1.4512c-1.70633,-0.27548 -4.77681,-1.13897 -5.59447,-3.03915z" fill="#2f323e"/><g><path d="M481.96953,200.72039c-0.51686,-4.74365 -2.15354,-7.45041 -2.58833,-11.07578c-0.41027,-3.42092 0.38074,-7.81433 -0.07939,-10.47403c-1.13714,-6.57304 -2.37489,-11.14843 -1.71245,-15.18878c0.41366,-2.52283 3.38231,-6.2848 4.37982,-8.303c1.09156,-2.20845 8.31453,-1.32579 12.27994,1.5041c3.45236,2.46375 3.5344,6.32411 6.41219,11.91528c1.2874,2.50125 5.04319,8.55209 5.95725,11.52507c1.51599,4.93082 0.29578,7.75142 0.27794,12.54613c-0.01495,4.01727 2.43219,10.34405 2.5317,15.03835c0.04646,2.19083 -1.99991,2.93847 -2.17323,4.90585c-0.20923,2.37507 1.18353,10.22083 0.8823,12.34055c-0.85539,6.01928 -3.23069,7.54016 -4.80894,11.1122c-1.87313,4.23952 -0.78048,14.12663 -2.88673,16.45669c-3.07698,3.40397 -10.34461,2.98011 -13.02695,2.7438c-2.63337,-0.232 -6.44622,1.72322 -8.60957,-1.5581c-1.67389,-2.53893 -2.62052,-8.32736 -3.04363,-14.52755c-0.25218,-3.69506 -1.4382,-3.95336 -1.27252,-8.3514c0.09891,-2.62603 1.39776,-9.005 1.67626,-12.16592c0.46992,-5.33389 6.97977,-7.65524 5.80435,-18.44349z" fill="#a3a3a3"/><path d="M484.50751,160.26844c2.1902,-0.2137 4.388,3.94085 4.9089,9.27948c0.52092,5.33864 -0.83231,9.83969 -3.0225,10.05339c-2.1902,0.2137 -4.38802,-3.94085 -4.90894,-9.27949c-0.52092,-5.33864 0.83233,-9.83969 3.02253,-10.05342z" fill="#0d0d0d"/></g><path d="M485.66534,165.42658c1.15724,0.67217 1.92044,2.75231 2.11277,4.10368c0.13792,0.9693 0.17225,2.84569 -0.30105,3.62315c-2.8843,4.73814 -15.62381,4.66971 -16.46443,-1.23741c-0.78622,-5.52502 9.9214,-9.23746 14.65268,-6.48943z" fill="#2f323e"/><g><path d="M404.16247,209.40191c-0.73032,3.08797 -1.50474,9.55158 -2.23719,12.07532c-1.2267,4.22674 -2.43377,4.09869 -3.83585,7.52673c-2.35266,5.75208 -5.07265,10.94859 -7.46046,12.83179c-3.086,2.43389 -6.08991,-0.62184 -8.6625,-1.23026c-2.62043,-0.61975 -9.65224,-2.50434 -11.50178,-6.70365c-1.26603,-2.8745 2.88232,-11.91553 2.43841,-16.52907c-0.37403,-3.88721 -2.15008,-6.07828 -1.06793,-12.06094c0.38108,-2.10681 4.17198,-9.11575 4.72073,-11.43599c0.45457,-1.92198 -1.25256,-3.27558 -0.51907,-5.34049c1.57164,-4.42452 5.88534,-9.65984 7.13528,-13.47773c1.49183,-4.55678 1.22118,-7.61802 4.21178,-11.82133c1.80315,-2.53434 7.27217,-7.09594 9.28124,-9.06501c4.49099,-4.4016 5.7836,-8.04001 9.8359,-9.29225c4.65449,-1.43833 11.78826,-0.00325 12.12942,2.43651c0.3118,2.22959 1.94586,6.73461 1.54459,9.2594c-0.64259,4.04356 -3.25725,7.99702 -6.405,13.87831c-1.27369,2.37978 -1.90533,6.7989 -3.37127,9.91696c-1.55353,3.30439 -3.95882,5.35863 -5.94212,9.69865c-4.51052,9.8703 0.9382,14.12222 -0.2942,19.33302z" fill="#a3a3a3"/><path d="M414.48225,161.36704c-2.17438,4.90351 -5.56786,8.15545 -7.57957,7.26337c-2.01171,-0.89208 -1.87981,-5.59029 0.29456,-10.49378c2.17438,-4.90351 5.56786,-8.15545 7.57957,-7.26337c2.01171,0.89208 1.87981,5.59029 -0.29456,10.49378z" fill="#0d0d0d"/></g><path d="M423.92094,166.17562c-2.65668,5.34251 -14.7706,1.39867 -16.01741,-4.00638c-0.20459,-0.88691 0.41842,-2.65717 0.85435,-3.53382c0.6078,-1.22219 1.98679,-2.95654 3.29675,-3.23039c5.35568,-1.11963 14.35111,5.77364 11.86629,10.77058z" fill="#2f323e"/><path d="M476.69621,222.56009c-0.17338,1.07398 -20.46588,5.61473 -39.51383,2.53884c-19.01884,-3.07121 -36.79345,-13.75744 -36.62034,-14.82976c0.17253,-1.06868 17.99134,8.52357 36.94606,11.57902c19.11316,3.08098 39.36206,-0.3657 39.18807,0.71193z" fill="#686e88"/><path d="M476.50536,221.97891c-0.48096,2.97913 -9.74076,35.37473 -44.00317,29.84347c-34.26241,-5.53125 -32.34337,-40.81863 -31.86244,-43.79777c0.48096,-2.97913 -0.6583,27.47815 33.60411,33.00941c34.26241,5.53125 42.74246,-22.03424 42.26153,-19.0551z" fill="#dadada"/><path d="M431.10764,235.5303l3.41683,-21.16501l7.94523,1.28267l-3.41684,21.16501z" fill="#24262f"/><path d="M401.38824,184.37796c3.66983,-22.73219 25.0729,-38.18525 47.80508,-34.51544c22.73217,3.66983 38.18527,25.0729 34.51544,47.80509c-3.66983,22.73217 -85.99032,9.44253 -82.32049,-13.28964z" fill="#dadada"/><path d="M410.04432,181.90656c1.57848,-9.77768 10.78445,-16.4244 20.56212,-14.84594c9.77768,1.57848 16.42444,10.78444 14.84594,20.56212c-1.57848,9.77768 -10.78447,16.42441 -20.56215,14.84593c-9.77768,-1.57848 -16.4244,-10.78447 -14.84593,-20.56213z" fill="#000000"/><path d="M441.56051,185.81707c1.57848,-9.77768 10.78445,-16.42445 20.56212,-14.84594c9.77768,1.57848 16.4244,10.78446 14.84593,20.56212c-1.57848,9.77768 -10.78444,16.42442 -20.56212,14.84594c-9.77768,-1.57848 -16.42442,-10.78444 -14.84593,-20.56212z" fill="#000000"/><path d="M488.73529,203.30389c-1.02177,5.84456 -16.65416,20.3558 -51.19535,14.77952c-34.54117,-5.57623 -43.41127,-25.00336 -42.54507,-30.873c2.68421,-18.18961 11.42821,4.0854 45.96938,9.66164c34.54117,5.57623 51.06606,-12.41599 47.77106,6.43181z" fill="#ababab"/><path d="M427.50332,199.0573c2.49888,-15.47893 16.27209,-50.09518 20.9565,-49.33893c4.68442,0.75625 8.85616,34.99013 6.35728,50.46906c-2.49888,15.47893 -29.81266,14.3488 -27.31379,-1.1301z" fill="#ababab"/><path d="M456.08993,198.57527c-0.18478,1.1447 -8.73184,13.65439 -16.79244,12.3531c-8.0606,-1.30129 -12.58242,-15.92075 -12.39763,-17.06548c0.18478,-1.1447 29.37487,3.56769 29.19007,4.71238z" fill="#1d1d1d"/><g><path d="M486.16295,119.40676c-0.83022,5.14271 -15.51459,7.0497 -32.7985,4.25943c-17.28387,-2.79027 -30.62218,-9.2212 -29.79197,-14.36388c0.13734,-0.85063 0.90245,-3.30693 3.8528,-3.41469c11.39763,-0.41635 42.25725,4.77768 54.81133,9.36588c3.84263,1.40437 4.08869,3.1474 3.92631,4.15324z" fill="#101010"/><path d="M485.71177,120.10862c-1.7846,11.05445 -6.04044,28.58089 -18.9082,34.09745c-9.13581,3.91664 -26.30652,-2.14655 -33.48175,-3.30491c-17.28156,-2.78989 -13.24374,-21.99279 -10.19211,-40.89566c1.09856,-6.8049 5.14643,0.29871 15.83535,0.06916c8.94987,-0.19219 20.47155,5.47867 29.36526,5.04444c9.99015,-0.48777 18.41469,-1.41071 17.38146,4.9895z" fill="#0d0d0d"/></g><g><path d="M488.97093,154.8859c-0.19454,1.20513 -18.0686,-0.67804 -39.92279,-4.20613c-21.85419,-3.52809 -39.41279,-7.3651 -39.21825,-8.57023c0.19454,-1.20513 18.0686,0.67805 39.92279,4.20614c21.85418,3.52809 39.41279,7.36509 39.21825,8.57022z" fill="#101010"/><path d="M488.83113,154.78164c-0.41818,2.59043 -2.84749,6.46631 -17.88709,5.81782c-10.67775,-0.4604 -32.92226,-4.82272 -41.99486,-6.28736c-21.85129,-3.52762 -19.96362,-7.87552 -19.24853,-12.30511c0.25743,-1.59461 9.27522,2.5657 22.47374,4.23829c11.05118,1.40045 24.84935,4.88253 35.79174,6.21085c12.2914,1.49206 21.10711,0.82572 20.865,2.32551z" fill="#0d0d0d"/></g><path d="M479.22944,146.81302c-0.15777,0.97737 0.08885,4.15003 -2.43925,4.56167c-2.14123,0.34864 -5.36332,-0.32151 -9.2736,-0.61348c-4.00875,-0.29934 -8.73524,-0.23526 -13.30896,-1.07414c-2.30921,-0.42355 -3.88373,-1.81407 -6.21256,-2.19001c-3.51495,-0.56745 -7.75545,-0.47626 -11.74547,-1.3124c-3.46519,-0.72618 -6.70442,-2.38128 -9.57746,-2.91298c-3.56867,-0.66045 -5.83875,-0.30879 -7.75558,-1.16583c-3.23206,-1.44509 -0.54375,-3.9104 -0.35386,-5.0867c0.15921,-0.98627 -0.4261,-4.7692 2.14362,-5.17933c2.38072,-0.37995 6.50876,-0.85269 11.05761,0.16433c3.3152,0.74122 6.76304,2.83671 10.36777,3.56797c2.79525,0.56705 4.8587,0.30994 7.66535,0.76303c2.81172,0.45392 5.43,1.64582 8.52278,1.89418c3.64078,0.29238 7.52076,-0.44953 10.93298,-0.35191c4.79208,0.1371 8.78729,1.15171 11.00191,2.19855c2.8503,1.34733 -0.84761,5.63634 -1.02532,6.73709z" fill="#801d1d"/></g><g stroke-width="0" stroke-linecap="butt"><path d="M319.29659,188.77354c3.46607,0.26818 25.12338,15.89951 25.22105,20.9527c0.07809,4.04031 5.23444,23.76897 -2.29139,27.20899c-6.0197,2.75156 -25.00908,0.90865 -25.00908,0.90865c0,0 3.84978,-23.91039 2.57507,-24.94453c-1.24795,-1.01244 -18.43025,20.13631 -18.43025,20.13631c0,0 -12.02526,-12.03338 -13.62866,-13.1855c-3.24613,-2.3325 25.93897,-31.51181 31.56326,-31.07664z" fill="#0d0d0d" stroke="url(#color-48)"/><path d="M315.05476,191.16297c1.45545,-1.796 4.09128,-2.07206 5.88727,-0.61661c1.796,1.45546 2.07206,4.09127 0.6166,5.88727c-1.45545,1.796 -4.09128,2.07206 -5.88727,0.6166c-1.796,-1.45546 -2.07206,-4.09127 -0.6166,-5.88727z" fill="#e1f194" stroke="url(#color-49)"/><path d="M335.86717,208.02911c1.45545,-1.796 4.09127,-2.07206 5.88727,-0.6166c1.796,1.45546 2.07206,4.09127 0.6166,5.88727c-1.45545,1.796 -4.09127,2.07206 -5.88727,0.6166c-1.796,-1.45546 -2.07206,-4.09127 -0.6166,-5.88727z" fill="#e1f194" stroke="url(#color-50)"/></g><path d="M423.15898,181.79883c-0.04068,-0.27313 0.14776,-0.52752 0.42088,-0.56821c0.27313,-0.04068 0.52752,0.14775 0.5682,0.42088c0.04068,0.27313 -0.14775,0.52752 -0.42088,0.56821c-0.27313,0.04068 -0.52753,-0.14775 -0.56821,-0.42088z" fill="#ffffff" stroke="none" stroke-width="0.5" stroke-linecap="butt"/><path d="M462.31578,186.75093c-0.04068,-0.27313 0.14776,-0.52753 0.42088,-0.56821c0.27313,-0.04068 0.52753,0.14775 0.56821,0.42088c0.04068,0.27313 -0.14776,0.52753 -0.42088,0.56821c-0.27313,0.04068 -0.52753,-0.14775 -0.56821,-0.42088z" fill="#ffffff" stroke="none" stroke-width="0.5" stroke-linecap="butt"/></g><path d="M0,361.4348v-360l184.26427,116l0.62463,128.5z" fill="#190d4f" stroke="none" stroke-width="0" stroke-linecap="butt"/><path d="M720,1.4348v360l-184.26427,-116l-0.62462,-128.5z" fill="#190d4f" stroke="none" stroke-width="0" stroke-linecap="butt"/><path d="M0,271.43479v-179.99998l184.26427,58l0.62463,64.24999z" fill="#2b1689" stroke="none" stroke-width="0" stroke-linecap="butt"/><path d="M535.1111,213.6848l0.62463,-64.24999l184.26427,-58v179.99998z" fill="#2b1689" stroke="none" stroke-width="0" stroke-linecap="butt"/><g stroke-width="0" stroke-linecap="butt"><g stroke="#000000"><path d="M-7.50751,364.001v-372.37237h735.015v372.37237z" fill="url(#color-51)"/><path d="M-7.5075,364.001v-372.37237h735.015v372.37237z" fill="url(#color-52)"/></g><g stroke="none"><path d="M-5.24206,376.25325v-390.39039h155.90105v390.39039z" fill="url(#color-53)"/><path d="M571.60646,373.00999v-390.39039h155.90105v390.39039z" fill="url(#color-54)"/><path d="M-6.53233,110.48749v-127.62762h733.55954v127.62763z" fill="url(#color-55)"/><path d="M726.05204,249.75279v127.62762h-733.55954v-127.62762z" fill="url(#color-56)"/></g></g><path d="M382.80961,181.4348c0,-22.51597 18.2528,-40.76877 40.76877,-40.76877c22.51597,0 40.76877,18.2528 40.76877,40.76877c0,22.51597 -18.2528,40.76877 -40.76877,40.76877c-22.51597,0 -40.76877,-18.2528 -40.76877,-40.76877z" fill="url(#color-57)" stroke="none" stroke-width="0" stroke-linecap="butt"/><path d="M412.94715,187.0348c0,-27.83515 22.56484,-50.39999 50.39999,-50.39999c27.83515,0 50.39999,22.56484 50.39999,50.39999c0,27.83515 -22.56484,50.39999 -50.39999,50.39999c-27.83515,0 -50.39999,-22.56484 -50.39999,-50.39999z" fill="url(#color-58)" stroke="none" stroke-width="0" stroke-linecap="butt"/></g><path d="M-15.5,30v-60h751v60z" fill="#000000" stroke-opacity="0.50196" stroke="#0d0d0d" stroke-width="0" stroke-linecap="butt"/><path d="M-15.5,390v-60h751v60z" fill="#000000" stroke-opacity="0.50196" stroke="#0d0d0d" stroke-width="0" stroke-linecap="butt"/><text transform="translate(210,350) scale(0.5,0.5)" font-size="40" xml:space="preserve" fill="#ff0000" stroke="none" stroke-width="1" stroke-linecap="butt" font-family="&quot;MS Gothic&quot;, Sans Serif" font-weight="normal" text-anchor="start"><tspan x="0" dy="0">CLUTCH : Either stay at safety</tspan></text></g></g></svg>