<svg version="1.1" xmlns="http://www.w3.org/2000/svg" xmlns:xlink="http://www.w3.org/1999/xlink" width="102.00001" height="119.84811" viewBox="0,0,102.00001,119.84811"><g transform="translate(-308.99999,-106.58768)"><g fill="#ffffff" stroke="none" stroke-width="0" stroke-miterlimit="10"><g><path d="M400.13895,207.84261c0,9.91045 -7.54741,19.06798 -39.98148,18.57407c-33.124,-0.50442 -40.2963,-8.66363 -40.2963,-18.57407c0,-9.91045 16.65033,-15.74074 40.2963,-15.74074c23.64597,0 39.98148,5.83029 39.98148,15.74074z"/><path d="M396.47361,205.99144c0,7.53586 -14.84381,12.20858 -36.33051,12.20858c-21.48669,0 -36.61658,-4.67272 -36.61658,-12.20858c0,-7.53586 15.12989,-11.9692 36.61658,-11.9692c21.4867,0 36.33051,4.43334 36.33051,11.9692z"/></g><g><path d="M343.82625,132.27987l-3.34631,-22.3087h39.04024l-3.5694,22.3087z"/><path d="M382.89437,132.72605c0,1.74545 -10.25013,3.1604 -22.8943,3.1604c-12.64417,0 -22.89432,-1.41495 -22.89432,-3.1604c0,-1.74545 10.25013,-3.1604 22.89432,-3.1604c12.64418,0 22.8943,1.41495 22.8943,3.1604z"/><path d="M379.52015,109.74808c0,1.74545 -8.73946,3.1604 -19.52012,3.1604c-10.78067,0 -19.52012,-1.41495 -19.52012,-3.1604c0,-1.74543 8.73946,-3.1604 19.52012,-3.1604c10.78067,0 19.52012,1.41495 19.52012,3.1604z"/><path d="M372.77178,133.5905c0,0.72385 -5.71809,1.31064 -12.77173,1.31064c-7.05364,0 -12.77173,-0.58679 -12.77173,-1.31064c0,-0.72385 5.71809,-1.31064 12.77173,-1.31064c7.05364,0 12.77173,0.58679 12.77173,1.31064z"/></g><path d="M309,202.61607c0,0 0,-37.21722 0,-51.6821c0,-7.89676 5.1727,-16.73765 16.05556,-17.05246c11.52174,-0.3333 48.62523,0 69.25926,0c12.00268,0 16.68519,7.27125 16.68519,15.47839c0,14.547 0,53.25618 0,53.25618c0,0 -0.471,7.11138 -21.72591,10.77816c-0.0425,-0.48226 -0.94075,-4.63823 -0.94075,-4.63823c0,0 -0.94444,4.20061 -0.94444,4.72222c0,0.07557 0.00888,0.14907 0.02565,0.21951c-0.77269,0.11919 -1.5707,0.23393 -2.39483,0.34382c-0.06073,-0.46299 -0.93637,-2.07969 -0.93637,-2.07969c0,0 -0.94444,1.68209 -0.94444,2.2037c0,0.03788 0.00223,0.07523 0.00656,0.11194c-1.74673,0.20727 -8.92379,1.26771 -8.92379,1.26771l-0.91403,-1.13484c0,0 -0.22958,0.6505 -0.35524,0.6505c-0.16358,0 -0.31745,0.04158 -0.45161,0.11477c-3.78314,0.20668 -7.9379,0.32894 -12.50078,0.34785c-3.33864,0.01383 -9.37467,-1.2065 -9.37467,-1.2065c0,0 -0.3276,0.92378 -0.51951,0.92378c-0.1682,0 -0.32612,0.04397 -0.46293,0.12105c-4.85431,-0.18175 -9.12897,-0.50698 -12.89319,-0.93824c0.08194,-0.1399 0.1289,-0.30278 0.1289,-0.47662c0,-0.52161 -1.08436,-2.48354 -1.08436,-2.48354c0,0 -0.80453,1.96193 -0.80453,2.48354c0,0.09295 0.01342,0.18276 0.03845,0.26759c-25.56201,-3.28377 -26.02816,-11.59847 -26.02816,-11.59847z"/><path d="M309.8815,192.31924c0,-6.67652 5.41238,-12.08889 12.08889,-12.08889c6.67652,0 12.08889,5.41237 12.08889,12.08889c0,6.67652 -5.41237,12.08889 -12.08889,12.08889c-6.67652,0 -12.08889,-5.41237 -12.08889,-12.08889z"/><path d="M351.50006,170.35731c0,12.89028 -8.10447,18.96369 -18.10185,18.96369c-9.99739,0 -18.10185,-6.07341 -18.10185,-18.96369c0,-12.89028 8.10447,-17.86964 18.10185,-17.86964c9.99739,0 18.10185,4.97935 18.10185,17.86964z"/><path d="M372.27784,169.48768c0,3.36144 -5.49696,6.08643 -12.27778,6.08643c-6.78082,0 -12.27778,-2.72499 -12.27778,-6.08643c0,-3.36144 5.49696,-6.08642 12.27778,-6.08642c6.78082,0 12.27778,2.72497 12.27778,6.08642z"/><path d="M398.02969,204.40857c-6.67652,0 -12.08889,-5.41238 -12.08889,-12.08889c0,-6.6765 5.41237,-12.08889 12.08889,-12.08889c6.67652,0 12.08889,5.41238 12.08889,12.08889c0,6.6765 -5.41238,12.08889 -12.08889,12.08889z"/><path d="M353.38895,170.35731c0,8.80857 -3.78451,14.43388 -9.37142,17.11319c-0.81484,0.39077 -3.51738,1.15866 -3.51738,1.15866l-3.21887,1.80583c0,0 -1.10307,-1.11398 -1.99419,-1.11398c-9.99739,0 -18.10185,-6.07341 -18.10185,-18.96369c0,-12.89028 8.10447,-17.86964 18.10185,-17.86964c4.70845,0 8.99703,1.10447 12.21684,3.61968c0.4152,0.32433 2.27538,-0.90469 2.27538,-0.90469l-0.03177,2.72369l2.53248,2.92183c0,0 0.2757,2.97257 0.4197,3.53891c0.4489,1.76548 0.68921,3.75057 0.68921,5.97022z"/><path d="M386.60191,152.48768c9.99739,0 18.10185,4.97935 18.10185,17.86964c0,12.89028 -8.10447,18.96369 -18.10185,18.96369c-9.99739,0 -18.10185,-6.07341 -18.10185,-18.96369c0,-12.89028 8.10447,-17.86964 18.10185,-17.86964z"/><path d="M384.71302,152.48768c9.99739,0 18.10185,4.97935 18.10185,17.86964c0,12.89028 -8.10447,18.96369 -18.10185,18.96369c-9.99739,0 -18.10185,-6.07341 -18.10185,-18.96369c0,-12.89028 8.10447,-17.86964 18.10185,-17.86964z"/><path d="M369.02474,188.4815c0,2.83984 -4.04048,5.14198 -9.02468,5.14198c-4.9842,0 -9.02468,-2.30214 -9.02468,-5.14198c0,-2.83984 4.04048,-5.14198 9.02468,-5.14198c4.9842,0 9.02468,2.30214 9.02468,5.14198z"/><g><path d="M392.53842,170.90434c0,1.09001 -3.50355,1.97365 -7.8254,1.97365c-4.32184,0 -7.82539,-0.88363 -7.82539,-1.97365c0,-1.09001 3.50355,-1.97365 7.82539,-1.97365c4.32184,0 7.8254,0.88363 7.8254,1.97365z"/><path d="M390.28971,170.90434c0,5.86181 -2.49678,10.61375 -5.57672,10.61375c-3.07993,0 -5.57672,-4.75194 -5.57672,-10.61375c0,-5.86181 2.49678,-10.61375 5.57672,-10.61375c3.07993,0 5.57672,4.75194 5.57672,10.61375z"/></g><g><path d="M335.2871,168.93112c4.32184,0 7.82539,0.88363 7.82539,1.97365c0,1.09001 -3.50355,1.97365 -7.82539,1.97365c-4.32184,0 -7.82539,-0.88363 -7.82539,-1.97365c0,-1.09001 3.50355,-1.97365 7.82539,-1.97365z"/><path d="M335.2871,160.29102c3.07993,0 5.57672,4.75194 5.57672,10.61375c0,5.86181 -2.49678,10.61375 -5.57672,10.61375c-3.07993,0 -5.57672,-4.75194 -5.57672,-10.61375c0,-5.86181 2.49678,-10.61375 5.57672,-10.61375z"/></g></g></g></svg>