<svg version="1.1" xmlns="http://www.w3.org/2000/svg" xmlns:xlink="http://www.w3.org/1999/xlink" width="758.25826" height="420" viewBox="0,0,758.25826,420"><defs><linearGradient x1="-16.79207" y1="181.05805" x2="144.03903" y2="181.05805" gradientUnits="userSpaceOnUse" id="color-1"><stop offset="0" stop-color="#000000"/><stop offset="1" stop-color="#000000" stop-opacity="0"/></linearGradient><linearGradient x1="739.12917" y1="177.8148" x2="578.29806" y2="177.8148" gradientUnits="userSpaceOnUse" id="color-2"><stop offset="0" stop-color="#000000"/><stop offset="1" stop-color="#000000" stop-opacity="0"/></linearGradient><linearGradient x1="360.25527" y1="-17.14015" x2="360.25527" y2="110.48748" gradientUnits="userSpaceOnUse" id="color-3"><stop offset="0" stop-color="#000000"/><stop offset="1" stop-color="#000000" stop-opacity="0"/></linearGradient><linearGradient x1="359.24927" y1="377.38042" x2="359.24927" y2="249.75279" gradientUnits="userSpaceOnUse" id="color-4"><stop offset="0" stop-color="#000000"/><stop offset="1" stop-color="#000000" stop-opacity="0"/></linearGradient><radialGradient cx="360.00003" cy="179.99999" r="362.61261" gradientUnits="userSpaceOnUse" id="color-5"><stop offset="0" stop-color="#000000" stop-opacity="0.83922"/><stop offset="1" stop-color="#000000" stop-opacity="0"/></radialGradient><radialGradient cx="360.00003" cy="179.99999" r="362.61262" gradientUnits="userSpaceOnUse" id="color-6"><stop offset="0" stop-color="#000000" stop-opacity="0"/><stop offset="1" stop-color="#000000"/></radialGradient></defs><g transform="translate(19.1291,30)"><g stroke-miterlimit="10"><path d="M-12.99999,375.22222v-382.59632h746v382.59632z" fill="#301f10" stroke="#401f00" stroke-width="7.5" stroke-linecap="butt"/><path d="M-12.4129,360v-160.3741h746v160.3741z" fill="#301f10" stroke="#401f00" stroke-width="7.5" stroke-linecap="butt"/><path d="M0.00001,360v-360l295,116l1,128.5z" fill="#966031" stroke="none" stroke-width="7.5" stroke-linecap="butt"/><path d="M720.00004,0v360l-295,-116l-1,-128.5z" fill="#966031" stroke="none" stroke-width="7.5" stroke-linecap="butt"/><path d="M296.00001,244v-128h128v128z" fill="#000000" stroke="none" stroke-width="5" stroke-linecap="butt"/><path d="M45.63334,304.5v-249l204.04167,80.23333l0.69167,88.87917z" fill="#482e18" stroke="#211000" stroke-width="7.5" stroke-linecap="butt"/><path d="M469.63336,224.6125l0.69167,-88.87916l204.04166,-80.23333v249z" fill="#482e18" stroke="#211000" stroke-width="7.5" stroke-linecap="butt"/><g stroke="#000000" stroke-width="0" stroke-linecap="butt"><path d="M319.3932,68.01173c0,-6.97411 18.18028,-12.62776 40.60679,-12.62776c22.42651,0 40.60677,5.65364 40.60677,12.62776c0,6.97411 -18.74426,18.83157 -41.17077,18.83157c-22.42651,0 -40.04279,-11.85746 -40.04279,-18.83157z" fill="#060606"/><path d="M326.63505,74.76874c0,-5.73034 14.93801,-10.37571 33.36494,-10.37571c18.42696,0 33.36494,4.64538 33.36494,10.37572c0,5.73034 -15.4014,15.47315 -33.82836,15.47315c-18.42696,0 -32.90154,-9.74279 -32.90154,-15.47315z" fill="#cfff66"/></g><g fill="none" stroke="#424242" stroke-width="4" stroke-linecap="round"><path d="M296.3932,243.50672c0,0 1.3102,-108.49593 2.13821,-124.89481c0.19055,-3.77386 0.3516,-3.39526 0.3516,0.72824c0,14.14184 0,95.12801 0,121.41952c0,5.18361 0.21524,3.70102 0.45188,-1.29028c0.69596,-14.67975 1.0226,-87.67646 2.36855,-116.06631c0.32994,-6.95939 0.53123,-6.76772 0.53123,-1.86529c0,18.14951 -0.28728,121.41952 -0.28728,121.41952"/><path d="M302.01896,243.50673c0,0 1.3102,-108.49592 2.13821,-124.89481c0.19055,-3.77385 0.3516,-3.39526 0.3516,0.72824c0,14.14184 0,95.12801 0,121.41952c0,5.18361 0.21524,3.70102 0.45188,-1.29028c0.69596,-14.67975 1.0226,-87.67645 2.36855,-116.0663c0.32994,-6.9594 0.53124,-6.76772 0.53124,-1.8653c0,18.14951 -0.28729,121.41952 -0.28729,121.41952"/><path d="M307.926,243.50672c0,0 1.3102,-108.49592 2.13821,-124.89481c0.19055,-3.77385 0.3516,-3.39526 0.3516,0.72824c0,14.14184 0,95.12801 0,121.41952c0,5.18361 0.21524,3.70102 0.45188,-1.29028c0.69596,-14.67975 1.0226,-87.67645 2.36855,-116.0663c0.32994,-6.9594 0.53124,-6.76772 0.53124,-1.8653c0,18.14951 -0.28729,121.41952 -0.28729,121.41952"/><path d="M313.55176,243.50673c0,0 1.3102,-108.49592 2.13821,-124.89481c0.19055,-3.77385 0.3516,-3.39526 0.3516,0.72824c0,14.14184 0,95.12801 0,121.41952c0,5.18361 0.21524,3.70102 0.45188,-1.29028c0.69596,-14.67975 1.0226,-87.67645 2.36855,-116.0663c0.32994,-6.9594 0.53124,-6.76772 0.53124,-1.8653c0,18.14951 -0.28729,121.41952 -0.28729,121.41952"/></g><path d="M-15.49997,30v-60h751v60z" fill="#000000" stroke-opacity="0.50196" stroke="#0d0d0d" stroke-width="0" stroke-linecap="butt"/><path d="M-15.49997,390v-60h751v60z" fill="#000000" stroke-opacity="0.50196" stroke="#0d0d0d" stroke-width="0" stroke-linecap="butt"/><g stroke="none" stroke-width="0" stroke-linecap="butt"><path d="M-16.79207,376.25324v-390.39039h160.83108v390.39039z" fill="url(#color-1)"/><path d="M578.29806,373.00999v-390.39039h160.83109v390.39039z" fill="url(#color-2)"/><path d="M-18.12315,110.48748v-127.62763h756.75676v127.62763z" fill="url(#color-3)"/><path d="M737.62766,249.75279v127.62762h-756.75676v-127.62762z" fill="url(#color-4)"/></g><g stroke="#000000" stroke-width="0" stroke-linecap="butt"><path d="M-2.61258,366.18619v-372.37237h725.22523v372.37237z" fill="url(#color-5)"/><path d="M-2.61259,366.18619v-372.37237h725.22523v372.37237z" fill="url(#color-6)"/></g></g></g></svg>