<svg version="1.1" xmlns="http://www.w3.org/2000/svg" xmlns:xlink="http://www.w3.org/1999/xlink" width="749.20401" height="499" viewBox="0,0,749.20401,499"><defs><linearGradient x1="146" y1="180" x2="574.00001" y2="180" gradientUnits="userSpaceOnUse" id="color-1"><stop offset="0" stop-color="#484c5e"/><stop offset="1" stop-color="#212d30"/></linearGradient><radialGradient cx="217.52512" cy="230.14383" r="44.53486" gradientUnits="userSpaceOnUse" id="color-2"><stop offset="0" stop-color="#ff0f0f" stop-opacity="0.50196"/><stop offset="1" stop-color="#ff0f0f" stop-opacity="0"/></radialGradient><radialGradient cx="187.05268" cy="209.47302" r="44.53486" gradientUnits="userSpaceOnUse" id="color-3"><stop offset="0" stop-color="#ff0f0f" stop-opacity="0.50196"/><stop offset="1" stop-color="#ff0f0f" stop-opacity="0"/></radialGradient><radialGradient cx="158.49218" cy="184.47781" r="44.53486" gradientUnits="userSpaceOnUse" id="color-4"><stop offset="0" stop-color="#ff0f0f" stop-opacity="0.50196"/><stop offset="1" stop-color="#ff0f0f" stop-opacity="0"/></radialGradient><linearGradient x1="398.3413" y1="180" x2="727.00001" y2="180" gradientUnits="userSpaceOnUse" id="color-5"><stop offset="0" stop-color="#331717"/><stop offset="1" stop-color="#000000"/></linearGradient><linearGradient x1="-7" y1="180" x2="727.00001" y2="180" gradientUnits="userSpaceOnUse" id="color-6"><stop offset="0" stop-color="#484c5e"/><stop offset="1" stop-color="#212d30"/></linearGradient><linearGradient x1="-7" y1="180" x2="354.70446" y2="180" gradientUnits="userSpaceOnUse" id="color-7"><stop offset="0" stop-color="#000000"/><stop offset="1" stop-color="#331717"/></linearGradient><linearGradient x1="-7" y1="180" x2="727.00001" y2="180" gradientUnits="userSpaceOnUse" id="color-8"><stop offset="0" stop-color="#484c5e"/><stop offset="1" stop-color="#212d30"/></linearGradient><linearGradient x1="-5.24205" y1="181.05806" x2="150.65901" y2="181.05806" gradientUnits="userSpaceOnUse" id="color-9"><stop offset="0" stop-color="#000000"/><stop offset="1" stop-color="#000000" stop-opacity="0"/></linearGradient><linearGradient x1="727.50754" y1="177.8148" x2="571.60646" y2="177.8148" gradientUnits="userSpaceOnUse" id="color-10"><stop offset="0" stop-color="#000000"/><stop offset="1" stop-color="#000000" stop-opacity="0"/></linearGradient><linearGradient x1="360.24745" y1="-17.14016" x2="360.24745" y2="110.48749" gradientUnits="userSpaceOnUse" id="color-11"><stop offset="0" stop-color="#000000"/><stop offset="1" stop-color="#000000" stop-opacity="0"/></linearGradient><linearGradient x1="359.27229" y1="377.38042" x2="359.27229" y2="249.75279" gradientUnits="userSpaceOnUse" id="color-12"><stop offset="0" stop-color="#000000"/><stop offset="1" stop-color="#000000" stop-opacity="0"/></linearGradient><radialGradient cx="211.8035" cy="221.5" r="233.5" gradientUnits="userSpaceOnUse" id="color-13"><stop offset="0" stop-color="#ff0000" stop-opacity="0.10196"/><stop offset="1" stop-color="#ff0000" stop-opacity="0"/></radialGradient></defs><g transform="translate(21.69651,44)"><g stroke-miterlimit="10"><g stroke-width="0"><path d="M146,404v-448h428v448z" fill="#230000" stroke="url(#color-1)"/><path d="M94,274.5v-189h532v189z" fill="#650000" stroke="#000000"/></g><g stroke="none" stroke-width="0"><g><g><path d="M195.50007,246.2478l17.514,-35.53816l87.12578,42.93759c0,0 3.0537,6.3236 0.28463,11.94242c-1.27699,2.59116 -4.42773,11.12246 -7.87394,15.5561c-4.76598,6.13163 -9.92471,8.03962 -9.92471,8.03962z" fill="#111111"/><path d="M124.37462,206.6941l-56.3531,-62.0875l57.41442,-52.1116l56.35308,62.08754z" fill="#111111"/><path d="M221.74904,248.60035l-90.07905,-52.05321l20.62484,-35.69168l90.07904,52.05318z" fill="#450404"/><path d="M271.21123,247.31688c0,0 -54.15747,-24.44969 -78.94505,-42.93076c-26.48791,-19.74879 -75.22016,-72.01133 -75.22016,-72.01133l27.28983,-28.22347c0,0 40.18195,46.09648 58.96364,62.07199c16.29056,13.85657 47.32024,28.33182 47.32024,28.33182z" fill="#000000"/><path d="M259.93347,300.18002c0,0 -55.45031,-21.3561 -81.24083,-38.40965c-27.55966,-18.22334 -79.16213,-67.65398 -79.16213,-67.65398l25.65449,-29.71781c0,0 42.71799,43.75673 62.37089,58.64743c17.04617,12.91565 48.84292,25.61768 48.84292,25.61768z" fill="#000000"/></g><g><path d="M160.64195,132.34866c-19.05244,-16.89171 -63.35693,-54.64576 -75.45934,-69.60927c-17.84699,-22.06623 1.49918,-18.94773 7.09618,-25.26068c4.17354,-4.70737 1.78712,-22.58445 17.26946,-14.81945c19.36055,9.71009 58.90864,48.09837 85.10679,71.3254c47.14839,41.8013 51.43764,58.92757 42.04519,69.52145c-9.39244,10.59392 -28.90994,10.64382 -76.05832,-31.15746z" fill="#464646"/><path d="M250.25308,133.95949c5.82518,4.45721 34.18294,22.93497 29.84518,32.44222c-3.92102,8.5938 -6.04896,31.97022 -20.57722,34.93866c-13.52894,2.76428 -39.46058,-14.44081 -44.3639,-18.19265c-15.99407,-12.23803 -21.10327,-33.17009 -11.41177,-46.75302c1.98451,-2.78138 7.74872,-16.75056 19.7069,-22.34958c13.03515,-6.10328 45.3597,16.40297 46.21301,20.18725c4.32922,19.19946 -28.56115,-7.27326 -19.41223,-0.27287z" fill="#090909"/></g><path d="M154.10195,132.37798l-15.85423,-12.79391l40.5141,-50.20503l15.85421,12.79392z" fill="#000000"/><path d="M177.17829,158.52752l-15.85421,-12.79392l40.51412,-50.20501l15.85421,12.79392z" fill="#000000"/></g><path d="M236.0163,270.65839c-22.37555,10.21239 -48.79335,0.3522 -59.00575,-22.02339c-10.2124,-22.37558 -0.35217,-48.79336 22.02339,-59.00575c22.37555,-10.21239 48.79335,-0.3522 59.00575,22.02339c10.2124,22.37558 0.35217,48.79336 -22.02339,59.00575z" fill="url(#color-2)"/><path d="M205.54386,249.98759c-22.37555,10.21239 -48.79335,0.3522 -59.00575,-22.02339c-10.2124,-22.37558 -0.35217,-48.79336 22.02339,-59.00575c22.37555,-10.21239 48.79335,-0.3522 59.00575,22.02339c10.2124,22.37558 0.35217,48.79336 -22.02339,59.00575z" fill="url(#color-3)"/><path d="M176.98336,224.99238c-22.37555,10.21239 -48.79335,0.3522 -59.00575,-22.02339c-10.2124,-22.37558 -0.35217,-48.79336 22.02339,-59.00575c22.37555,-10.21239 48.79335,-0.3522 59.00575,22.02339c10.2124,22.37558 0.35217,48.79336 -22.02339,59.00575z" fill="url(#color-4)"/></g><path d="M727.00001,-13.5v387h-328.65871c0.01919,-0.02539 0.03833,-0.05081 0.05742,-0.07627c2.14978,-2.86621 4.57424,-5.41616 5.44946,-8.91445c0.78075,-3.12068 3.62243,-6.05614 5.11075,-9.00134c0.98629,-1.98328 3.54109,-3.78121 5.11015,-5.35062c0.60758,-0.60772 1.29476,-1.63005 2.13692,-1.82544c3.42266,-0.86891 6.94816,-0.91609 10.23928,-2.01245c3.36259,-1.12017 6.57833,-2.12521 10.06942,-2.74901c0.63855,-0.1141 2.05048,-0.10213 2.56612,-0.48516c1.57662,-1.17114 2.79249,-5.44173 3.69575,-7.22065c1.55863,-3.07588 2.50599,-6.61714 3.70063,-9.85381c1.2258,-3.32108 2.50114,-6.44995 4.06973,-9.62877c1.54862,-3.13834 3.11227,-6.269 4.67734,-9.39917c1.10828,-2.21658 2.1039,-3.8926 3.81525,-5.68951c0.75327,-0.79093 2.09198,-1.73153 2.14966,-2.83879c0.01478,-0.62663 -0.19924,-1.84344 0.03929,-2.40788c0.65922,-1.55992 3.18067,-2.3466 3.85247,-3.92449c0.27329,-0.64189 0.07187,-1.8874 0.09219,-2.58965c0.08225,-2.84229 1.04971,-8.09643 -0.51231,-10.47959c-1.89417,-2.88991 -4.07355,-5.73857 -5.65103,-8.81217c-1.62494,-3.16609 -2.56216,-6.37369 -3.57447,-9.781c-0.90977,-3.00587 -0.18519,-7.26258 -0.18527,-10.40778c-0.00008,-3.45466 1.06911,-6.88031 1.8037,-10.25194c0.28319,-1.31413 -0.31976,-3.24406 0.17035,-4.44667c0.58665,-1.43949 2.9785,-3.14213 4.06148,-4.29348c2.38373,-2.53422 2.53326,-6.33717 3.37299,-9.75207c0.8302,-3.37618 0.5846,-7.02688 0.58616,-10.50109c0.00155,-3.5 0.00309,-7 0.00464,-10.5c0.00133,-3.01861 -3.57292,-6.45934 -4.72457,-9.31824c-1.32085,-3.27892 -3.078,-6.27084 -4.80806,-9.35067c-1.57994,-2.81258 -2.98265,-6.58345 -3.66061,-9.73745c-0.73553,-3.42184 -1.47107,-6.84368 -2.2066,-10.26552c-0.73611,-3.42453 -0.53934,-6.89506 -0.55452,-10.39264c-0.01519,-3.49953 -0.04312,-6.99928 -0.04344,-10.49884c-0.00032,-3.5 -0.00065,-7 -0.00097,-10.5c-0.00032,-3.49999 -0.00059,-6.99998 -0.00059,-10.49998c0,-3.57655 0.71017,-6.80113 1.45555,-10.29364c0.73875,-3.46143 0.53678,-6.9634 0.54427,-10.49683c0.00005,-3.50009 0.00011,-7.00018 0.00016,-10.50026c-0.02298,-3.18094 -2.53477,-6.86901 -3.34359,-9.9832c-0.87983,-3.38761 -1.75967,-6.77522 -2.6395,-10.16283c-0.87983,-3.38761 -1.75967,-6.77522 -2.6395,-10.16283c-0.88141,-3.39367 -1.67239,-6.77422 -2.36013,-10.21245c-0.68649,-3.43202 -1.37298,-6.86403 -2.05948,-10.29605c-0.60323,-3.01577 -0.67122,-7.69618 -2.2556,-10.31358c-1.83391,-2.98107 -3.66782,-5.96214 -5.50174,-8.9432c-1.8373,-2.98658 -3.75794,-5.90741 -5.69906,-8.82742c-2.01239,-3.01409 -4.55697,-4.93273 -6.24765,-8.26639c-0.95611,-1.88523 -1.35742,-3.52797 -1.73672,-5.60453c-0.10928,-0.59825 -0.11349,-2.12201 -0.50571,-2.57751c-0.31498,-0.36581 -1.53785,-0.56254 -2.00077,-0.72096c-2.3311,-0.79772 -3.78087,-2.43551 -5.90889,-3.56067c-0.98436,-0.52047 -2.31661,-0.54011 -3.13112,-1.32376c-0.3093,-0.2908 -0.63245,-0.63443 -0.96666,-0.99728z" fill="url(#color-5)" stroke="url(#color-6)" stroke-width="0"/><path d="M-7,373.5v-387h361.70445c-0.37296,0.47761 -0.72669,0.94145 -1.03926,1.38857c-2.00534,2.86855 -4.01068,5.73711 -6.01602,8.60566c-2.00534,2.86855 -4.01068,5.73711 -6.01602,8.60566c-2.0048,2.86778 -4.13674,5.63399 -6.25629,8.41775c-2.12026,2.78469 -4.24052,5.56938 -6.36078,8.35407c-2.10586,2.76578 -4.08295,5.69193 -6.54044,8.15279c-2.47318,2.47657 -4.94636,4.95313 -7.41954,7.4297c-2.47429,2.47767 -4.97451,4.9316 -7.39008,7.46663c-2.41445,2.53386 -4.8289,5.06771 -7.24335,7.60157c-2.41445,2.53386 -4.8289,5.06771 -7.24335,7.60157c-2.45097,2.57218 -4.85648,4.90312 -7.65322,7.09659c-3.05346,2.39482 -4.87697,4.39744 -8.84726,4.40051c-3.05759,0.00238 -6.0013,4.22882 -8.12532,6.35161c-2.47559,2.47416 -4.95118,4.94831 -7.42677,7.42247c-2.47807,2.47664 -4.95315,4.95026 -7.36742,7.48926c-2.41179,2.53639 -4.82358,5.07278 -7.23537,7.60917c-2.41179,2.53639 -4.82358,5.07278 -7.23537,7.60917c-1.91049,2.00919 -4.50948,6.67248 -7.0683,7.45235c-2.62222,2.41376 -5.18185,4.63028 -8.07036,6.72461c-2.92718,2.12236 -5.24677,4.49025 -7.71251,7.12857c-2.38983,2.55709 -4.77965,5.11419 -7.16948,7.67128c-0.68166,0.72937 -1.48579,2.00639 -2.33525,2.51309c-0.93318,0.55665 -3.22694,0.22951 -3.93242,1.06858c-0.422,0.50191 -0.2535,2.4664 -0.30927,3.12937c-0.29342,3.48768 -0.58684,6.97536 -0.88026,10.46304c-0.29342,3.48768 -0.58684,6.97536 -0.88026,10.46304c-0.29231,3.47446 -1.05106,6.90479 -1.66736,10.33583c-0.61878,3.44487 -1.23756,6.88974 -1.85633,10.3346c-0.61878,3.44487 -1.23756,6.88974 -1.85633,10.3346c-0.61878,3.44487 -1.23756,6.88974 -1.85633,10.3346c-0.61878,3.44487 -1.23756,6.88974 -1.85633,10.3346c-0.61878,3.44487 -1.23756,6.88974 -1.85633,10.3346c-0.61878,3.44487 -1.23756,6.88974 -1.85633,10.3346c-0.61878,3.44487 -1.23756,6.88974 -1.85633,10.3346c-0.61859,3.44384 -1.22033,6.89107 -1.87834,10.32761c-0.6582,3.43755 -1.31639,6.87511 -1.97459,10.31266c-0.6582,3.43755 -1.31639,6.87511 -1.97459,10.31266c-0.6582,3.43755 -1.31639,6.87511 -1.97459,10.31266c-0.6582,3.43755 -1.31639,6.87511 -1.97459,10.31266c-0.66868,3.49231 -0.82818,6.91566 -0.99908,10.46444c-0.16835,3.49595 -0.33671,6.9919 -0.50506,10.48785c-0.16889,3.50716 -0.21867,6.99556 -0.22138,10.50662c-0.0027,3.5 -0.00541,7 -0.00811,10.5c-0.0027,3.50003 -0.00541,7.00006 -0.00811,10.50009c-0.0001,1.53128 -0.36516,3.58173 0.00725,5.06113c0.4091,1.62513 1.83001,3.41996 2.62659,4.90166c1.65687,3.08192 3.2652,6.18931 4.88439,9.29117c0.48965,0.93802 0.97931,1.87605 1.46896,2.81407z" fill="url(#color-7)" stroke="url(#color-8)" stroke-width="0"/><g stroke="none"><g fill="none" stroke-width="1" font-family="sans-serif" font-weight="normal" font-size="12" text-anchor="start"/><g stroke-width="0"><path d="M-5.24205,376.25325v-390.39039h155.90105v390.39039z" fill="url(#color-9)"/><path d="M571.60646,373.00998v-390.39039h155.90105v390.39039z" fill="url(#color-10)"/><path d="M-6.53232,110.48749v-127.62762h733.55954v127.62763z" fill="url(#color-11)"/><path d="M726.05206,249.75279v127.62762h-733.55954v-127.62762z" fill="url(#color-12)"/></g></g><path d="M-21.6965,221.5c0,-128.95849 104.54151,-233.5 233.5,-233.5c128.95849,0 233.5,104.54151 233.5,233.5c0,128.95849 -104.54151,233.5 -233.5,233.5c-128.95849,0 -233.5,-104.54151 -233.5,-233.5z" fill="url(#color-13)" stroke="#000000" stroke-width="0"/></g></g></svg>