<svg version="1.1" xmlns="http://www.w3.org/2000/svg" xmlns:xlink="http://www.w3.org/1999/xlink" width="76.33333" height="101" viewBox="0,0,76.33333,101"><g transform="translate(-321.83333,-129.5)"><g stroke-miterlimit="10"><path d="M321.83333,230.5v-101h76.33333v101z" fill="#273042" stroke="none" stroke-width="0"/><path d="M329.75471,196.83333v-61.66667h60.49068v61.66667z" fill="#0b0e13" stroke="none" stroke-width="0"/><path d="M343.08348,227.33333v-17.33333h33.83333v17.33333z" fill="#0b0e13" stroke="#000000" stroke-width="0"/><path d="M342.99992,209.125v-11.25h34.25v11.25z" fill="#273042" stroke="#000000" stroke-width="0"/><text transform="translate(342.0759,207.0298) scale(0.29415,0.29415)" font-size="40" xml:space="preserve" fill="#000000" stroke="none" stroke-width="1" font-family="&quot;GovtAgentBB&quot;, Serif" font-weight="normal" text-anchor="start"><tspan x="0" dy="0">Turnip</tspan></text><text transform="translate(347.21025,223.17375) scale(0.37559,0.37559)" font-size="40" xml:space="preserve" fill="#c74444" stroke="none" stroke-width="1" font-family="&quot;Agency FB&quot;, Sans Serif" font-weight="normal" text-anchor="start"><tspan x="0" dy="0">HARD</tspan></text><g stroke="none" stroke-width="0.5"><path d="M357.21687,163.43111c0.12105,-1.03345 0.64717,-2.07362 1.55732,-2.9308c0.63038,-1.37841 1.74755,-2.45374 3.64179,-2.69423c3.25784,-0.41361 6.34103,2.89943 5.1998,6.18208c-0.34616,0.9957 -1.30364,1.6795 -2.11932,2.34726c-0.03562,0.02916 -0.07155,0.05807 -0.10778,0.0867c-0.67115,1.96097 -2.02684,3.84281 -3.16713,4.69091c-0.89545,0.666 -1.95902,1.51704 -3.06272,1.35208c-2.73219,-0.40833 -3.61527,-2.24031 -3.50223,-4.32365c-0.01811,-0.35293 -0.01846,-0.72511 -0.00521,-1.11246c0.04438,-1.29832 0.78829,-2.51133 1.56549,-3.5979z" fill="#e6e6e6"/><path d="M354.96873,163.92404c1.06674,0.09209 2.36009,0.54539 2.7331,1.26928c1.24695,0.40536 2.49216,0.83621 3.68864,1.33331c0.59439,-0.03177 1.19069,0.03747 1.53503,0.39878c0.16428,0.17238 0.2992,0.33844 0.407,0.49857c0.14547,0.07524 0.2897,0.15196 0.43258,0.23025c0.82496,0.19299 1.57709,0.51255 1.98981,0.94582c1.03138,0.29913 1.91978,1.41624 2.33423,2.56257c0.79456,0.46317 1.47128,1.28879 1.72147,2.1986c0.86717,1.14159 1.11584,2.99613 0.46854,4.19413c0.02,0.14396 0.03633,0.28833 0.04614,0.43339c0.0095,0.14056 0.01349,0.27865 0.01205,0.41344c0.05421,0.14196 0.10606,0.28056 0.15948,0.4065c0.47286,1.11476 0.04753,5.1134 -1.47749,5.366c0.23023,2.27105 -2.64661,5.94649 -4.24172,4.7877c-0.38253,0.31539 -0.80298,0.71482 -1.22678,0.63256c-0.10156,0.22508 -0.29009,0.40248 -0.52277,0.48936l-0.90974,0.3639l-0.0035,-0.00873l-0.02202,0.01849c-1.809,0.59776 -3.45408,0.95038 -5.15507,0.71744v0.26916h-0.92985c-0.40711,0 -0.75313,-0.26164 -0.87905,-0.62594l-0.04718,0.23594l-0.87595,-0.17518c-0.4442,0.24931 -0.99093,0.36238 -1.56911,0.39659c-0.15113,0.10623 -0.33533,0.16859 -0.53409,0.16859c-0.20673,0 -0.39769,-0.06746 -0.55209,-0.18157c-0.2292,-0.01594 -0.45653,-0.03845 -0.67784,-0.06416c-0.16564,0.15256 -0.38683,0.24573 -0.62978,0.24573c-0.30808,0 -0.58117,-0.14983 -0.75038,-0.3806l-0.09682,-0.1291l-0.00315,0.00524l-0.08845,-0.05307c-0.05816,-0.00025 -0.11715,-0.00039 -0.17703,-0.00039h-0.92985c-0.09719,0 -0.1909,-0.01491 -0.27896,-0.04257c-0.08806,0.02766 -0.18177,0.04257 -0.27896,0.04257c-0.36806,0 -0.68617,-0.21384 -0.83687,-0.52406c-0.1507,0.31021 -0.46881,0.52406 -0.83687,0.52406c-0.30808,0 -0.58117,-0.14983 -0.75038,-0.3806l-0.55138,-0.73518c-0.16964,0.22582 -0.43972,0.3719 -0.74391,0.3719c-0.46673,0 -0.85314,-0.34386 -0.91972,-0.79206l-0.02154,-0.12929c-0.15341,0.11163 -0.34227,0.17747 -0.54651,0.17747c-0.39913,0 -0.73953,-0.25148 -0.87139,-0.60463l-0.28349,-0.70871c-0.04785,0.0076 -0.09693,0.01155 -0.14692,0.01155c-0.45707,0 -0.83711,-0.32979 -0.91517,-0.76438l-0.14501,-0.72502c-0.01841,0.00109 -0.03696,0.00164 -0.05565,0.00164c-0.51355,0 -0.92985,-0.41631 -0.92985,-0.92985v-0.92985h0.03102l-0.02868,-0.06592c0.01375,-0.09627 0.02362,-0.19888 0.03062,-0.3066c-0.01094,0.00038 -0.02192,0.00057 -0.03295,0.00057c-0.51355,0 -0.92985,-0.41631 -0.92985,-0.92985c0,-0.05014 0.00397,-0.09935 0.0116,-0.14734l0.03359,-0.23519c-0.39258,-0.05961 -0.70452,-0.3647 -0.7744,-0.7538l-0.18259,-0.91296l0.19374,-0.03875c-0.00319,-0.00935 -0.00633,-0.01869 -0.00943,-0.02804c-0.33714,-0.13962 -0.57432,-0.47185 -0.57432,-0.85946c0,-0.06908 0.00754,-0.13641 0.02183,-0.20118l0.18221,-0.91103l0.15669,0.03134l0.07773,-0.19432l0.03117,0.01247c0.01111,-0.17927 0.03051,-0.35729 0.05931,-0.53304l-0.29524,-0.88571l0.31252,-0.10417c-0.71323,-2.1875 -0.31013,-4.52185 1.10238,-6.66363c0.295,-0.4473 0.79949,-1.13195 1.40407,-1.67253c0.7029,-1.05658 1.5534,-2.04383 2.24091,-2.73962c0.48669,-0.48439 0.80792,-1.14062 1.3635,-1.54416c0.52404,-0.38062 1.13128,-0.63656 1.72773,-0.88906c1.00421,-0.42512 2.10644,-0.38342 2.8887,0.04734c0.09044,-0.01549 0.17684,-0.02997 0.2567,-0.04309v-0.26101h0.15964c-0.19144,-0.90834 -0.30011,-1.90102 -0.44943,-2.77155c-0.23992,-0.53098 -0.45307,-1.0702 -0.60567,-1.62716c-0.07733,-0.28221 -0.14428,-0.56585 -0.2028,-0.85061c-0.62015,-1.2237 -1.46476,-2.39925 -1.9664,-3.63602c-3.77586,-6.42536 0.17309,-18.21967 9.09934,-14.61371c6.8887,5.11194 1.4011,14.82421 -1.52428,20.64044c-0.49245,0.6566 -0.9072,1.37153 -1.31066,2.09428c0.63475,0.24734 1.29454,0.48069 1.97079,0.70747c0.48531,0.00274 0.96013,0.02075 1.41515,0.06003zM344.70981,189.70349c-0.01437,0.02311 -0.02973,0.04553 -0.04602,0.06722l0.0672,-0.05041z" fill="#e6e6e6"/><path d="M372.09725,175.84032c0.11707,0.91684 0.1353,1.86442 0.02264,2.92427c-0.29766,2.80029 -1.05657,6.27247 -2.71981,8.61596c-2.3118,3.25733 -5.90921,4.82832 -9.66241,5.50428c-6.64909,1.19753 -12.91486,0.75879 -18.92077,-2.51979c-1.8748,-1.54284 -3.59253,-3.25976 -4.65837,-5.50594c-3.16783,-6.67597 0.26723,-16.2693 6.5715,-19.82588c3.02888,-1.70876 6.73913,-2.309 10.15576,-1.94345l-0.00002,0.00001c0.46685,-0.12372 0.88001,-0.05486 0.88001,-0.05486l0.86971,0.14509c0.60243,0.09307 8.3866,0.44305 12.00512,3.68014c4.17363,3.73369 5.9375,9.30249 5.45663,8.98015zM353.81529,166.81379c-0.42627,0.09787 -0.7868,0.0424 -0.7868,0.0424c-3.7541,-0.60452 -8.5269,0.48422 -11.09246,3.52907c-4.28976,5.09118 -4.29432,12.63387 0.95803,16.89444c5.12772,2.7937 10.55289,2.94058 16.19053,1.94351c2.83252,-0.50096 5.51769,-1.54866 7.29812,-4.01742c1.30642,-1.81148 1.78875,-4.70655 2.04104,-6.85681c0.22184,-1.89073 -0.16199,-3.22122 -0.74977,-5.00102c-2.74393,-5.02913 -8.36175,-5.68889 -13.60406,-6.49176z" fill="#191919"/><path d="M349.65386,156.14109c-0.92985,0 -0.92985,-1.04365 -0.92985,-1.04365c0.00269,-2.26248 -0.95549,-5.61637 0.10077,-7.70851c1.02337,-2.02699 3.32835,-2.0874 3.73966,0.52832c0.26891,1.71016 -1.13895,4.49248 -1.51256,6.18093l0.02776,0.5818c0,0 0,0.81714 -0.6442,1.00533c-0.12516,0.23714 -0.35596,0.45578 -0.78157,0.45578z" fill="#fec1ff"/><path d="M352.84635,165.59461c-1.85971,0 -1.85971,-1.85971 -1.85971,-1.85971l0.13301,-1.80651c2.25172,-5.6293 4.53198,-10.46208 3.98788,-16.64644c-0.90775,-4.14504 -7.25584,-3.83544 -8.48802,0.05479c-1.97633,6.23966 2.68385,12.87426 3.24366,18.97366c0,0 0.16837,1.85208 -1.68371,2.02045c-1.85207,0.16837 -2.02044,-1.68371 -2.02044,-1.68371c-0.60669,-6.74372 -5.4737,-13.48308 -3.07935,-20.45216c1.99425,-5.80454 11.21518,-8.15753 14.87664,-2.27528c0.49697,0.79838 0.54103,1.80134 0.81155,2.70202c0.64986,6.97193 -1.65786,12.34559 -4.19483,18.68803l0.13301,0.42515c0,0 0,1.85971 -1.85971,1.85971z" fill="#191919"/><path d="M351.1831,158.13212c0.05517,0.27288 0.06022,0.77476 -0.54306,1.03331c-0.85467,0.36629 -1.22096,-0.48838 -1.22096,-0.48838c-1.3475,-3.16968 -3.3552,-8.74763 -1.58568,-12.07047c0.9914,-1.86167 3.56328,-2.33615 5.02443,-0.65701c0.85946,0.98769 0.70173,2.44013 0.56162,3.60532c-0.66542,2.67951 -1.44955,5.30927 -2.11962,7.98955l-0.11428,0.57674c0,0 -0.00077,0.00383 -0.00245,0.01094zM350.03079,155.03451c0.51991,-1.94095 1.06883,-3.86863 1.56057,-5.8211c0.08396,-0.63733 0.24684,-1.51833 -0.18226,-2.09778c-0.87811,-1.1858 -2.06902,0.29409 -2.20119,1.17766c-0.31962,2.13676 0.12121,4.53404 0.82288,6.74122z" fill="#191919"/><path d="M343.86279,186.40979c-0.7261,0.58088 -1.30697,-0.14522 -1.30697,-0.14522l-0.42733,-0.54327c-0.97688,-0.97859 -1.49112,-1.56059 -1.85633,-2.91159c0,0 -0.22552,-0.90209 0.67657,-1.12762c0.90209,-0.22552 1.12762,0.67657 1.12762,0.67657c0.22536,1.02576 0.62072,1.30259 1.36716,2.04763l0.56451,0.69654c0,0 0.58088,0.7261 -0.14522,1.30697z" fill="#191919"/><path d="M362.19422,156.09383c0.27524,-0.41467 0.65014,-0.86008 1.13972,-1.33773c0.71857,-0.70107 1.99129,-0.29486 2.99496,-0.31744c2.16361,-0.04866 4.76725,0.49657 6.46921,1.89856c2.55181,2.10206 3.07492,5.67497 2.92035,8.79211c-0.32296,6.51286 -3.73624,17.01247 -11.0633,17.94422c-4.42554,-0.03466 -10.10059,-3.09741 -6.86379,-8.44276c1.1853,-1.95745 3.41922,-2.08432 4.86225,-3.61926c1.09673,-1.16659 1.58387,-3.06678 1.96418,-4.56518c0.46769,-1.84268 0.32839,-2.80047 -0.16281,-4.59469c-0.18224,-0.66567 -0.40327,-1.26737 -0.68733,-1.61424c-0.2261,-0.09034 -0.44257,-0.19025 -0.6454,-0.30013c-0.27592,0.05002 -0.59413,0.3035 -0.96413,0.83529c0,0 -1.31501,1.31501 -2.63002,0c-1.31501,-1.31501 0,-2.63002 0,-2.63002c0.75463,-0.65089 1.30334,-1.68717 2.26387,-1.95266c0.13627,-0.03766 0.27036,-0.06962 0.40227,-0.09607z" fill="#e6e6e6"/><path d="M357.03035,185.2754c0.60499,0.30249 0.30249,0.90748 0.30249,0.90748l-0.07347,0.14433c-0.43803,0.9627 -1.07935,1.84514 -2.34516,1.55504c-0.30871,-0.07075 -0.53825,-0.34266 -0.76418,-0.56462c-0.08128,-0.07985 -0.15062,0.00841 -0.26467,0.09714c-1.53546,1.19473 -2.8691,0.03879 -3.39071,-1.41068c0,0 -0.2139,-0.64168 0.42779,-0.85558c0.64169,-0.2139 0.85558,0.42779 0.85558,0.42779c0.58265,1.98573 1.04121,0.12912 2.0678,0.08414c0.29532,-0.01294 0.53699,0.09001 0.74321,0.22789c0.63469,0.42437 0.93351,1.1797 1.42694,-0.09403l0.1069,-0.21642c0,0 0.30249,-0.60499 0.90748,-0.30249z" fill="#191919"/><path d="M363.2373,162.90393c1.82097,-0.46127 2.27621,1.38383 2.27621,1.38383l0.23443,1.41128c-0.10216,0.80107 -0.20432,1.60214 -0.30649,2.40321c-1.32304,1.89963 -2.53723,3.75878 -4.2731,5.31078c-0.504,0.45061 -2.19258,1.52577 -2.62159,2.20111c-2.87962,4.53313 4.52164,8.19461 7.92766,5.70753c0.39599,-0.28915 0.52522,-0.83581 0.82791,-1.22378c2.512,-3.21979 4.09326,-6.53081 5.4879,-10.40903c0.8449,-3.14206 1.38374,-6.69148 -0.07436,-9.78842c-1.41405,-3.00336 -6.25607,-4.40877 -9.11598,-2.96301c-2.5095,1.26862 -4.34347,5.99752 -4.82401,8.56499c0,0 -0.36811,1.86496 -2.20867,1.49197c-1.84056,-0.37299 -1.47244,-2.23795 -1.47244,-2.23795c0.77264,-3.76394 3.19277,-9.37827 6.81343,-11.21468c4.76034,-2.41447 11.72306,-0.16182 14.15891,4.64456c1.98898,3.9246 1.38919,8.6145 0.30104,12.65391c-2.01237,5.61771 -4.70933,13.06249 -10.89317,14.95963c-6.52449,2.00166 -13.92548,-5.7091 -10.1511,-12.13622c0.9529,-1.62262 2.10171,-1.99742 3.38484,-3.12418c1.2717,-1.11671 2.1685,-2.51887 3.23493,-3.81831c0.02298,-0.46686 0.04594,-0.93372 0.06892,-1.40058l-0.14097,-0.11024c0,0 -0.45524,-1.84511 1.36573,-2.30639z" fill="#191919"/><path d="M369.75679,178.11147c-0.83168,-0.41585 -0.41585,-1.24753 -0.41585,-1.24753l0.34896,-0.69433c0.42594,-0.96386 0.34696,-4.30441 -1.68034,-3.47066c-1.03396,0.42523 -1.58989,2.26503 -2.64971,2.69532c-2.57152,1.04406 -3.19369,-2.65164 -4.89229,-1.52249c0,0 -0.80734,0.46133 -1.26868,-0.346c-0.46133,-0.80734 0.346,-1.26868 0.346,-1.26868c1.08181,-0.56633 1.41126,-1.02067 2.76701,-0.38053c0.32241,0.15223 1.51423,2.3098 2.25914,1.83358c1.01792,-0.65076 1.53629,-2.33029 2.80543,-2.75982c3.71245,-1.25647 5.0913,3.39889 4.02277,5.95186l-0.39493,0.79344c0,0 -0.41585,0.83168 -1.24753,0.41585z" fill="#191919"/><path d="M364.55591,167.07577c0.6575,-0.6575 1.31501,0 1.31501,0l0.18081,0.18621c2.57409,3.47644 -3.00469,7.09043 -4.344,2.43255c0,0 -0.22552,-0.90209 0.67657,-1.12762c0.90209,-0.22552 1.12762,0.67657 1.12762,0.67657c0.37803,2.04834 2.04755,0.07823 1.11115,-0.79095l-0.06715,-0.06175c0,0 -0.6575,-0.6575 0,-1.31501z" fill="#191919"/><path d="M370.85585,176.30006c0.25136,0.43452 0.04748,0.95954 0.04748,0.95954l-0.3635,0.9361c-0.13742,0.37733 -0.47208,0.64373 -0.86311,0.64373c-0.02955,0 -0.05877,-0.00152 -0.08761,-0.0045c-0.10209,0.27606 -0.22537,0.54508 -0.37955,0.81431l0.28266,0.17826l-0.48697,0.94054c-0.15786,0.31843 -0.46423,0.53438 -0.81629,0.53438c-0.02064,0 -0.04113,-0.00074 -0.06144,-0.0022l-0.36208,0.69932c-0.15786,0.31843 -0.46423,0.53438 -0.81629,0.53438c-0.16569,0 -0.32127,-0.04783 -0.45599,-0.13166l-0.62203,1.02977c-0.16557,0.28294 -0.45381,0.47023 -0.78169,0.47023c-0.15404,0 -0.29934,-0.04134 -0.42727,-0.11452l-0.09582,0.2115c-0.1491,0.34713 -0.46949,0.58718 -0.84069,0.58718c-0.51355,0 -0.92985,-0.45946 -0.92985,-1.02625v-0.85187l-0.21992,0.28317c-0.17057,0.22231 -0.42532,0.36345 -0.70993,0.36345c-0.36531,0 -0.68141,-0.2325 -0.83346,-0.57073c-0.16801,0.18365 -0.39915,0.29706 -0.65431,0.29706c-0.51355,0 -0.92985,-0.45946 -0.92985,-1.02625c0,-0.04864 0.00306,-0.09651 0.009,-0.14335l0.02581,-0.22784c-0.07077,0.01902 -0.1447,0.0291 -0.22078,0.0291c-0.40902,0 -0.75635,-0.29145 -0.8808,-0.69646c-0.14077,0.09462 -0.30611,0.14913 -0.48299,0.14913c-0.51355,0 -0.92985,-0.45946 -0.92985,-1.02625c0,-0.09389 0.01143,-0.18483 0.03282,-0.27123l0.23612,-1.0424c0.00669,-0.04471 0.013,-0.08912 0.01901,-0.13322c-0.17742,-0.18689 -0.28795,-0.45044 -0.28795,-0.74249c0,-0.08416 0.00918,-0.16596 0.02649,-0.24423l0.24361,-1.20989l0.03632,0.0089c0.02179,-0.06212 0.05636,-0.14638 0.10739,-0.23457c0.00617,-0.33901 0.03769,-0.67532 0.10425,-1.00585l0.24399,-1.21177c0.08533,-0.46961 0.46107,-0.82336 0.91168,-0.82336c0.17822,0 0.34473,0.05534 0.48619,0.15129c0.16894,-0.25747 0.44356,-0.42496 0.75361,-0.42496c0.30004,0 0.56688,0.15684 0.73691,0.40028l0.01173,-0.03022c0.13742,-0.37733 0.47208,-0.64373 0.86311,-0.64373c0.51355,0 0.92985,0.45946 0.92985,1.02625c0,0.03917 -0.00199,0.07783 -0.00586,0.11585l-0.02092,0.23085c0.02921,-0.00306 0.05883,-0.00461 0.08877,-0.00461c0.45707,0 0.83711,0.36397 0.91518,0.84363l0.05249,0.28963c0.14845,-0.11076 0.32744,-0.17543 0.52011,-0.17543c0.33451,0 0.62776,0.19494 0.79158,0.48752l0.20501,-0.52796c0.13742,-0.37733 0.47208,-0.64373 0.86311,-0.64373c0.13522,0 0.26368,0.03185 0.37959,0.08912l0.48474,-1.3375c0.13186,-0.38977 0.47226,-0.66731 0.87139,-0.66731c0.14277,0 0.27803,0.03552 0.39891,0.09897c0.17056,-0.22761 0.42839,-0.37265 0.71691,-0.37265c0.39104,0 0.7257,0.2664 0.86311,0.64373l0.02747,0.07075c0.07212,-0.0198 0.14756,-0.03031 0.22524,-0.03031c0.45061,0 0.82636,0.35375 0.91168,0.82336l0.24399,1.21177l-0.25427,0.06237c0.11515,0.45622 0.17692,0.92057 0.15375,1.38381z" fill="#191919"/><path d="M362.1905,168.79433c0.04881,-0.68574 0.44445,-1.30306 1.37008,-1.48022c2.38842,-0.45712 3.22341,4.17056 0.00959,3.69156c-1.37174,-0.20445 -1.69233,-1.29208 -1.37968,-2.21134z" fill="#191919"/><path d="M350.76076,171.05582c3.20449,2.47838 1.27284,9.79346 -0.88742,12.64772c-3.81428,2.80288 -6.6002,-0.39648 -6.79606,-4.32761c-0.23438,-4.70415 2.01265,-8.25611 6.79034,-8.73868c0,0 0.61619,-0.06162 0.89314,0.41857z" fill="#c2d4ec"/><path d="M341.8602,179.98222c-2.21875,-1.70703 -2.03137,-3.88396 0.52122,-5.02153c0.94882,-2.7876 3.03586,-5.06757 6.0106,-5.20463c0.27379,-0.12817 0.56059,-0.09232 0.56059,-0.09232l0.97426,0.15235c5.13877,2.12411 4.83339,12.88562 -0.11238,15.36905c-1.0604,0.53246 -2.18274,0.6318 -3.33373,0.4741c-0.38868,-0.05325 -1.62829,-0.69271 -1.84889,-0.89257c-0.9528,-0.86322 -1.71586,-1.71037 -2.24084,-3.04582c-0.21002,-0.53424 -0.36215,-1.10253 -0.45867,-1.69013zM348.9598,171.52956c-0.20217,0.07974 -0.383,0.07974 -0.383,0.07974c-5.48456,-0.02664 -5.77545,7.83396 -3.18168,11.39009c0.19011,0.26064 1.25814,0.78305 1.55146,0.78202c3.42272,-0.01199 4.37011,-3.43072 4.5158,-6.63608c0.10178,-2.23901 0.11033,-4.68179 -2.30062,-5.60253z" fill="#191919"/><path d="M356.27371,176.91478c0,-1.3015 1.05507,-2.35657 2.35657,-2.35657c1.3015,0 2.35657,1.05507 2.35657,2.35657c0,1.3015 -1.05507,2.35657 -2.35657,2.35657c-1.3015,0 -2.35657,-1.05507 -2.35657,-2.35657z" fill="#122033"/><path d="M366.56844,175.23748c0,-0.92465 0.74957,-1.67423 1.67423,-1.67423c0.92465,0 1.67423,0.74957 1.67423,1.67423c0,0.92465 -0.74957,1.67423 -1.67423,1.67423c-0.92465,0 -1.67423,-0.74957 -1.67423,-1.67423z" fill="#122033"/><path d="M362.72005,177.46815c0,-0.7191 0.58294,-1.30204 1.30204,-1.30204c0.7191,0 1.30204,0.58294 1.30204,1.30204c0,0.7191 -0.58294,1.30204 -1.30204,1.30204c-0.7191,0 -1.30204,-0.58294 -1.30204,-1.30204z" fill="#0e1827"/><path d="M365.07478,181.2496c0,-1.23298 0.99953,-2.23251 2.23251,-2.23251c1.23298,0 2.23251,0.99953 2.23251,2.23251c0,1.23298 -0.99953,2.23251 -2.23251,2.23251c-1.23298,0 -2.23251,-0.99953 -2.23251,-2.23251z" fill="#0e1827"/><path d="M360.36287,181.68627c0,-0.99317 0.80512,-1.79829 1.79829,-1.79829c0.99317,0 1.79829,0.80512 1.79829,1.79829c0,0.99317 -0.80512,1.79829 -1.79829,1.79829c-0.99317,0 -1.79829,-0.80512 -1.79829,-1.79829z" fill="#122033"/></g></g></g></svg>