<svg version="1.1" xmlns="http://www.w3.org/2000/svg" xmlns:xlink="http://www.w3.org/1999/xlink" width="622.14414" height="144.1442" viewBox="0,0,622.14414,144.1442"><defs><radialGradient cx="506.37388" cy="181.5" r="72.07207" gradientUnits="userSpaceOnUse" id="color-1"><stop offset="0" stop-color="#383838"/><stop offset="1" stop-color="#1f1f1f"/></radialGradient><radialGradient cx="430.5" cy="180.00006" r="19.5" gradientUnits="userSpaceOnUse" id="color-2"><stop offset="0" stop-color="#000000"/><stop offset="1" stop-color="#000000"/></radialGradient><radialGradient cx="662.87388" cy="181.50006" r="72.07207" gradientUnits="userSpaceOnUse" id="color-3"><stop offset="0" stop-color="#313800"/><stop offset="1" stop-color="#1c1f03"/></radialGradient><radialGradient cx="587" cy="180.00011" r="19.5" gradientUnits="userSpaceOnUse" id="color-4"><stop offset="0" stop-color="#000000"/><stop offset="1" stop-color="#000000"/></radialGradient></defs><g transform="translate(-69.92793,-107.92793)"><g data-paper-data="{&quot;isPaintingLayer&quot;:true}" fill-rule="nonzero" stroke-width="0" stroke-linecap="butt" stroke-linejoin="miter" stroke-miterlimit="10" stroke-dasharray="" stroke-dashoffset="0" style="mix-blend-mode: normal"><path d="M69.92793,252.07207v-144.14414h144.14414v144.14414z" fill="#593f2b" stroke="#212121"/><g stroke="#000000"><path d="M72.74775,197.71778v-58.13036h72.5045v58.13036z" fill="#411a00"/><path d="M72.74775,220.41269v-58.13034h72.5045v58.13034z" fill="#823400"/></g><path d="M89.5,199.50005v-39h39v39z" fill="#593010" stroke="#212121"/><path d="M231.92793,252.07207v-144.14414h144.14414v144.14414z" fill="#3b5ec7" stroke="#212121"/><g stroke="#000000"><path d="M234.74775,197.71779v-58.13036h72.5045v58.13036z" fill="#5a5a5a"/><path d="M234.74775,220.41269v-58.13034h72.5045v58.13034z" fill="#c7c7c7"/></g><path d="M251.5,199.50006v-39h39v39z" fill="#1d48c7" stroke="#212121"/><g><path d="M391.42793,252.07207v-144.14414h144.14414v144.14414z" fill="url(#color-1)" stroke="#212121"/><g stroke="#000000"><path d="M394.24775,197.71779v-58.13036h72.5045v58.13036z" fill="#1d0000"/><path d="M394.24775,220.41269v-58.13034h72.5045v58.13034z" fill="#4f0101"/></g><path d="M411,199.50006v-39h39v39z" fill="url(#color-2)" stroke="#212121"/></g><g><path d="M547.92793,252.07213v-144.14414h144.14414v144.14414z" fill="url(#color-3)" stroke="#212121"/><g stroke="#000000"><path d="M550.74775,197.71784v-58.13036h72.5045v58.13036z" fill="#2b2400"/><path d="M550.74775,220.41275v-58.13034c0,0 12.63383,0 21.25225,0c13.38386,0 51.25225,0 51.25225,0v58.13034z" fill="#4b3400"/></g><path d="M567.5,199.50011v-39h39v39z" fill="url(#color-4)" stroke="#212121"/></g></g></g></svg>