<svg version="1.1" xmlns="http://www.w3.org/2000/svg" xmlns:xlink="http://www.w3.org/1999/xlink" width="416.17126" height="418.04745" viewBox="0,0,416.17126,418.04745"><defs><linearGradient x1="226.54523" y1="221.30051" x2="228.29547" y2="228.04248" gradientUnits="userSpaceOnUse" id="color-1"><stop offset="0" stop-color="#000000" stop-opacity="0"/><stop offset="1" stop-color="#000000"/></linearGradient></defs><g transform="translate(-120.48421,-69.47323)"><g stroke-miterlimit="10"><path d="M304.42128,234.3944c-0.35811,4.60765 -4.38367,8.05261 -8.9913,7.6945c-4.60766,-0.3581 -8.05261,-4.38367 -7.6945,-8.99131c0.35811,-4.60765 4.38367,-8.0526 8.99131,-7.69449c4.60766,0.3581 8.0526,4.38367 7.6945,8.9913z" fill="#4e4e4e" stroke="#2b2b2b" stroke-width="0"/><path d="M294.80015,233.64665c0.84591,-10.88422 2.17204,-19.65781 47.86848,-16.10632c45.69644,3.5515 34.96185,11.59389 34.11594,22.47809c-0.84591,10.88422 8.51716,20.48859 -37.17926,16.93709c-45.69644,-3.5515 -45.65106,-12.42464 -44.80514,-23.30886z" fill="#2b2b2b" stroke="#2b2b2b" stroke-width="0"/><path d="M387.23444,240.83059c-0.35811,4.60765 -4.38364,8.05259 -8.9913,7.6945c-4.60766,-0.3581 -8.0526,-4.38363 -7.6945,-8.9913c0.35811,-4.60765 4.38365,-8.0526 8.9913,-7.69449c4.60766,0.3581 8.0526,4.38364 7.6945,8.99132z" fill="#4e4e4e" stroke="#2b2b2b" stroke-width="0"/><path d="M294.80015,233.64665c0.84591,-10.88419 2.17204,-19.65781 47.86848,-16.10632c45.69644,3.5515 34.96185,11.59389 34.11594,22.47809c-0.84591,10.88419 8.51716,20.48859 -37.17926,16.93709c-45.69644,-3.5515 -45.65106,-12.42467 -44.80514,-23.30886z" fill="#2b2b2b" stroke="#2b2b2b" stroke-width="0"/><g fill="#262626" stroke="#2b2b2b" stroke-width="0"><g><path d="M270.41206,382.21193c-7.22351,1.87524 -14.79424,-0.73932 -21.37619,-0.28375c-9.13831,0.63251 -12.83208,5.37474 -18.32561,0.26075c-3.44992,-3.21159 -9.07843,-20.59772 -9.9901,-24.10957c-3.40902,-13.13174 11.69572,-25.39797 35.2465,-31.5118c12.14271,-3.15227 25.8535,52.68283 14.4454,55.64439z"/></g><g><path d="M251.35213,327.76547c23.55078,-6.11383 42.71472,-2.74382 46.12375,10.38791c0.91169,3.51185 4.45094,21.44036 2.99884,25.92453c-2.31225,7.1404 -7.84633,4.79373 -16.13835,8.68618c-5.97239,2.80357 -11.31534,8.77054 -18.53887,10.64579c-11.40809,2.96156 -26.5881,-52.49212 -14.44539,-55.64439z"/></g></g><path d="M233.82614,230.59439l0.2068,-10.85811l57.66028,1.09828l-0.20681,10.85812z" fill="#4e4e4e" stroke="#2b2b2b" stroke-width="0"/><path d="M174.16835,262.14866l-5.46232,-9.38639l49.84494,-29.00684l5.46232,9.38639z" fill="#4e4e4e" stroke="#2b2b2b" stroke-width="0"/><g stroke="#2b2b2b" stroke-width="0"><path d="M124.86789,415.55359c1.20419,-4.4619 5.79747,-7.10282 10.25938,-5.89863c4.46191,1.20419 7.10282,5.79747 5.89862,10.25939c-1.20419,4.4619 -5.79747,7.10283 -10.25939,5.89863c-4.46191,-1.20419 -7.10281,-5.79746 -5.8986,-10.25939z" fill="#4e4e4e"/><path d="M143.84387,345.24159c1.20419,-4.4619 5.79746,-7.10282 10.25936,-5.89863c4.46191,1.20419 7.10283,5.79748 5.89863,10.2594c-1.20419,4.4619 -5.79747,7.10282 -10.25939,5.89862c-4.46191,-1.20419 -7.10281,-5.79746 -5.8986,-10.25939z" fill="#4e4e4e"/><path d="M165.48674,265.0479c1.20419,-4.46191 5.79748,-7.10283 10.2594,-5.89863c4.46191,1.20419 7.10282,5.79747 5.89862,10.25939c-1.20419,4.4619 -5.79747,7.10282 -10.25939,5.89862c-4.46191,-1.20419 -7.10283,-5.79747 -5.89863,-10.25939z" fill="#4e4e4e"/><path d="M180.87408,316.01208c-11.94257,44.25102 -17.86064,32.21408 -28.40058,29.36954c-10.53994,-2.84454 -21.71044,4.58047 -9.76785,-39.67053c11.94257,-44.25101 20.65422,-42.56518 31.19415,-39.72064c10.53994,2.84454 18.91686,5.77062 6.97429,50.02164z" fill="#2b2b2b"/><path d="M160.99067,384.07661c-10.57847,39.19656 -18.96708,38.82534 -28.72763,36.19114c-9.76055,-2.6342 -17.19689,-6.53386 -6.61842,-45.73043c10.57847,-39.19656 16.1943,-28.55133 25.95484,-25.91714c9.76055,2.6342 19.96967,-3.74012 9.3912,35.45642z" fill="#2b2b2b"/></g><g fill="#2b2b2b" stroke="#2b2b2b" stroke-width="0"><g><path d="M264.34567,369.55818c-26.1837,6.79735 -40.6721,11.86961 -51.78063,-30.92102c-3.35243,-12.91374 -23.80429,-38.51777 -24.27118,-49.7538c-1.08016,-25.99539 26.94342,-33.32483 45.22519,-38.07082c6.68282,-1.73487 37.23699,117.08149 30.82662,118.74563z"/></g><g><path d="M234.11618,250.65753c18.28177,-4.74599 46.33184,-11.97337 58.03283,11.26482c5.05753,10.04427 -0.35736,42.36338 2.99506,55.27711c11.10854,42.79064 -4.01758,45.40636 -30.20129,52.2037c-6.41037,1.66415 -37.50943,-117.01076 -30.82661,-118.74563z"/></g></g><g fill="#2b2b2b" stroke="#2b2b2b" stroke-width="0"><path d="M238.16057,275.16391c6.84041,26.3496 4.97198,49.63479 -4.17329,52.00892c-9.14525,2.37413 -48.74581,-26.9757 -55.58622,-53.32532c-6.84041,-26.3496 14.92501,-42.74671 22.53732,-46.86571c8.37104,-4.52954 30.38178,21.8325 37.22219,48.1821z"/><path d="M250.99079,213.98811c8.65461,-0.10394 35.64751,3.63541 42.48793,29.98502c6.84041,26.3496 -13.4831,71.25586 -22.62835,73.62998c-9.14525,2.37413 -22.10419,-17.06185 -28.94461,-43.41144c-6.84041,-26.3496 -0.43219,-60.08925 9.08504,-60.20355z"/><path d="M238.29662,267.98845c-18.70987,4.85712 -43.03443,-26.47954 -44.52205,-32.2099c-1.48761,-5.73035 12.47377,-14.31319 31.18364,-19.1703c18.70987,-4.85713 35.08315,-4.14923 36.57076,1.58113c1.48761,5.73035 -4.52249,44.94196 -23.23236,49.79907z"/><path d="M284.09866,274.40812c6.14273,23.66209 -7.39016,47.64991 -30.22653,53.57829c-22.83638,5.92837 -46.32858,-8.44765 -52.47131,-32.10975c-6.14273,-23.66209 7.39016,-47.64991 30.22652,-53.57828c22.83638,-5.92837 46.3286,8.44764 52.47133,32.10974z"/></g><g fill="#323232" stroke="#2b2b2b" stroke-width="0"><g><g><path d="M263.54411,366.28433c-22.21047,5.76589 -34.46478,10.20534 -45.12557,-30.86054c-3.2173,-12.39321 -21.40355,-37.33938 -22.1074,-48.05608c-1.62839,-24.79395 22.14129,-31.0169 37.64889,-35.0427c5.66875,-1.47162 35.02171,112.54772 29.58409,113.95934z"/></g><g><path d="M234.46654,252.19352c15.50761,-4.02581 39.30273,-10.15079 49.9403,12.30437c4.59789,9.70582 0.8425,40.34806 4.05981,52.74127c10.66078,41.06588 -2.20556,43.14779 -24.41602,48.91367c-5.43763,1.41162 -35.25282,-112.48772 -29.58408,-113.95933z"/></g></g><g><path d="M238.58989,275.64931c6.5647,25.28753 5.59773,47.41966 -2.15978,49.43353c-7.75751,2.01386 -42.42299,-27.01974 -48.9877,-52.30727c-6.56469,-25.28753 11.60668,-40.31844 18.00578,-44.03612c7.0369,-4.08823 26.57699,21.6223 33.1417,46.90984z"/><path d="M247.90544,217.71748c7.39941,0.13555 30.58753,4.42945 37.15224,29.71698c6.5647,25.28753 -9.60073,67.51695 -17.35825,69.53082c-7.75752,2.01386 -19.36794,-16.85316 -25.93264,-42.14069c-6.56469,-25.28753 -1.99823,-57.25615 6.13866,-57.1071z"/><path d="M238.51178,268.81723c-15.87073,4.12008 -37.52465,-26.39225 -38.9523,-31.89164c-1.42765,-5.49938 10.28079,-13.29748 26.15152,-17.41756c15.87073,-4.12008 29.89385,-3.00193 31.3215,2.49744c1.42765,5.49938 -2.64999,42.69168 -18.52073,46.81176z"/><path d="M277.8599,276.17431c5.89514,22.70835 -5.0293,45.19372 -24.40038,50.2225c-19.37108,5.02878 -39.85339,-9.30335 -45.74852,-32.01168c-5.89514,-22.70835 5.02929,-45.19372 24.40037,-50.22249c19.37109,-5.02877 39.85341,9.30335 45.74854,32.01168z"/></g></g><path d="M246.16821,217.24413c0.74655,2.87576 -7.04123,9.17154 -17.93025,11.99835c-10.88902,2.82681 -20.75581,1.11418 -21.50236,-1.76157c-0.74655,-2.87576 7.47553,-7.49862 18.36455,-10.32542c10.88902,-2.82681 20.3215,-2.78711 21.06806,0.08864z" fill="#000000" stroke="#2b2b2b" stroke-width="0"/><path d="M253.54519,245.13011c-2.62737,-10.12075 -0.91345,-20.02249 -2.77184,-25.92745c-1.37002,-4.35322 -8.15989,-5.53321 -7.3098,-5.75389c10.50982,-2.72836 45.06497,0.26454 50.26187,20.28323c1.96184,7.5571 2.36893,31.77102 3.06892,51.99773c0.3755,10.85011 19.75116,42.36416 20.22999,53.21021c0.59368,13.44747 -26.02638,23.17665 -27.9499,23.676c-5.12458,1.33034 -14.12191,-56.03131 -20.36941,-71.4765c-6.56532,-16.23085 -12.49694,-35.75171 -15.15982,-46.00931z" fill="#770000" stroke="#2b2b2b" stroke-width="0"/><g stroke="#2b2b2b" stroke-width="0"><g><path d="M123.83762,479.90386c0.14878,-1.2121 1.25201,-2.07409 2.4641,-1.92532c1.2121,0.14878 2.07408,1.25199 1.9253,2.46409c-0.14878,1.2121 -1.252,2.07411 -2.46409,1.92533c-1.21209,-0.14878 -2.07409,-1.25201 -1.92531,-2.46411z" fill="#4e4e4e"/><path d="M125.4507,466.76227c0.14878,-1.2121 1.25199,-2.07408 2.46409,-1.9253c1.2121,0.14878 2.07409,1.25199 1.92531,2.46409c-0.14878,1.2121 -1.25199,2.07409 -2.46409,1.92532c-1.2121,-0.14878 -2.07409,-1.25201 -1.92531,-2.4641z" fill="#4e4e4e"/><path d="M132.98792,459.7025c-0.91841,7.4822 -2.91901,7.57544 -5.33634,7.27873c-2.41734,-0.29673 -4.33598,-0.87103 -3.41758,-8.35322c0.91841,-7.4822 2.95098,-7.83599 5.36831,-7.53927c2.41734,0.29673 4.30401,1.13158 3.38561,8.61377z" fill="#262626"/><path d="M125.9107,481.16422c-2.41732,-0.29672 -4.304,-1.13158 -3.3856,-8.61377c0.91841,-7.4822 2.66717,-5.52376 5.08449,-5.22704c2.41733,0.29672 4.58782,-1.18064 3.66942,6.30155c-0.91841,7.4822 -2.951,7.83598 -5.36831,7.53926z" fill="#262626"/></g><g><path d="M132.62418,482.398c0.14878,-1.2121 1.25199,-2.07409 2.46409,-1.92531c1.2121,0.14878 2.07409,1.252 1.92531,2.46409c-0.14878,1.2121 -1.252,2.07409 -2.4641,1.92531c-1.2121,-0.14878 -2.07408,-1.252 -1.9253,-2.46409z" fill="#4e4e4e"/><path d="M134.23725,469.25641c0.14878,-1.2121 1.25199,-2.07409 2.46409,-1.92532c1.2121,0.14878 2.07409,1.25201 1.92531,2.4641c-0.14878,1.2121 -1.25199,2.07408 -2.46409,1.9253c-1.2121,-0.14878 -2.07409,-1.25199 -1.92531,-2.46409z" fill="#4e4e4e"/><path d="M141.77449,462.19664c-0.91841,7.4822 -2.91901,7.57546 -5.33634,7.27875c-2.41733,-0.29672 -4.33599,-0.87104 -3.41758,-8.35324c0.91841,-7.4822 2.95101,-7.83599 5.36832,-7.53927c2.41733,0.29672 4.304,1.13158 3.3856,8.61377z" fill="#262626"/><path d="M134.69723,483.65837c-2.41733,-0.29672 -4.304,-1.13158 -3.3856,-8.61377c0.91841,-7.4822 2.66717,-5.52376 5.08449,-5.22704c2.41733,0.29672 4.58782,-1.18066 3.66941,6.30154c-0.91841,7.4822 -2.951,7.83599 -5.36831,7.53927z" fill="#262626"/></g><g><path d="M141.28373,485.03988c0.14878,-1.2121 1.25199,-2.07408 2.46409,-1.9253c1.2121,0.14878 2.07408,1.25199 1.9253,2.46409c-0.14878,1.2121 -1.25199,2.07409 -2.46409,1.92531c-1.2121,-0.14878 -2.07409,-1.25201 -1.92531,-2.4641z" fill="#4e4e4e"/><path d="M142.8968,471.89829c0.14878,-1.2121 1.252,-2.07409 2.46409,-1.92531c1.2121,0.14878 2.07409,1.25199 1.92531,2.46409c-0.14878,1.2121 -1.25199,2.07408 -2.46409,1.9253c-1.2121,-0.14878 -2.07409,-1.25199 -1.92531,-2.46409z" fill="#4e4e4e"/><path d="M150.43399,464.83853c-0.91841,7.4822 -2.91901,7.57546 -5.33634,7.27875c-2.41733,-0.29672 -4.33597,-0.87105 -3.41757,-8.35325c0.91841,-7.4822 2.95099,-7.83598 5.3683,-7.53927c2.41733,0.29672 4.304,1.13158 3.3856,8.61377z" fill="#262626"/><path d="M143.35675,486.30025c-2.41733,-0.29672 -4.304,-1.13158 -3.3856,-8.61377c0.91841,-7.4822 2.66717,-5.52377 5.08449,-5.22704c2.41733,0.29672 4.58782,-1.18065 3.66942,6.30154c-0.91841,7.4822 -2.951,7.83599 -5.36832,7.53927z" fill="#262626"/></g><g><path d="M150.59575,483.16835c0.14878,-1.2121 1.25199,-2.07409 2.46409,-1.92532c1.2121,0.14878 2.07409,1.252 1.92531,2.4641c-0.14878,1.2121 -1.252,2.07408 -2.4641,1.9253c-1.2121,-0.14878 -2.07408,-1.25198 -1.9253,-2.46409z" fill="#4e4e4e"/><path d="M152.20882,470.02676c0.14878,-1.2121 1.25199,-2.07409 2.46409,-1.92531c1.2121,0.14878 2.07409,1.252 1.92531,2.46409c-0.14878,1.2121 -1.25199,2.07409 -2.46409,1.92531c-1.2121,-0.14878 -2.07409,-1.25199 -1.92531,-2.46409z" fill="#4e4e4e"/><path d="M159.74606,462.967c-0.91841,7.4822 -2.91901,7.57546 -5.33634,7.27875c-2.41733,-0.29672 -4.33598,-0.87105 -3.41758,-8.35324c0.91841,-7.4822 2.951,-7.83599 5.36832,-7.53927c2.41733,0.29672 4.304,1.13158 3.3856,8.61377z" fill="#262626"/><path d="M152.66883,484.42872c-2.41733,-0.29672 -4.30401,-1.13158 -3.3856,-8.61379c0.91841,-7.4822 2.66717,-5.52376 5.08449,-5.22704c2.41733,0.29672 4.58782,-1.18066 3.66942,6.30154c-0.91841,7.4822 -2.951,7.836 -5.36831,7.53928z" fill="#262626"/></g><g><path d="M159.66952,439.01802c-0.80383,-1.02876 -0.62147,-2.5144 0.4073,-3.31824c1.02876,-0.80383 2.5144,-0.62147 3.31822,0.40731c0.80383,1.02876 0.62147,2.5144 -0.4073,3.31823c-1.02876,0.80383 -2.51438,0.62147 -3.31822,-0.4073z" fill="#4e4e4e"/><path d="M171.20512,453.78174c-0.80383,-1.02876 -0.62147,-2.51439 0.4073,-3.31822c1.02876,-0.80383 2.5144,-0.62147 3.31823,0.40729c0.80383,1.02876 0.62147,2.5144 -0.4073,3.31824c-1.02876,0.80383 -2.51439,0.62146 -3.31823,-0.4073z" fill="#4e4e4e"/><path d="M171.31588,442.42678c6.06087,7.75693 4.668,9.40256 2.61629,11.00566c-2.05171,1.60309 -3.98534,2.55661 -10.04621,-5.20032c-6.06087,-7.75693 -4.87902,-9.67264 -2.82731,-11.27573c2.05171,-1.60309 4.19637,-2.28653 10.25723,5.47039z" fill="#262626"/></g><path d="M147.32184,424.20564c2.32627,0.28554 7.62127,-0.28749 9.5782,1.11125c7.98995,5.71092 5.96097,22.13656 3.22547,32.89942c-2.1891,8.61307 -24.36098,8.50314 -33.26924,0.82271c-6.94127,-5.98457 5.32537,-33.00627 8.22655,-34.85178c3.20102,-2.03625 8.75511,-0.40922 12.23902,0.01842z" fill="#2b2b2b"/></g><g fill="#4e4e4e" stroke="#2b2b2b" stroke-width="0"><path d="M209.75986,226.40656l-5.13709,-19.78832l33.70975,-8.75113l5.13708,19.78832z"/><path d="M243.46957,217.65544c0.59028,2.27379 -6.10826,7.49803 -15.41694,9.91459c-9.30868,2.41656 -17.70255,1.11032 -18.29282,-1.16346c-0.59028,-2.27379 6.4774,-6.07604 15.78609,-8.49259c9.30868,-2.41656 17.3334,-2.5323 17.92368,-0.25853z"/><path d="M221.92584,203.96919c-9.30868,2.41656 -17.05555,3.60258 -17.30308,2.64907c-0.24754,-0.95353 7.09799,-3.68552 16.40667,-6.10207c9.30868,-2.41656 17.05555,-3.60258 17.30309,-2.64906c0.24754,0.95353 -7.09799,3.6855 -16.40668,6.10206z"/></g><g stroke="#000000" stroke-width="0"><path d="M159.01619,84.28152c0,0 16.66466,20.31496 35.83277,31.98234c14.19258,8.63883 33.59544,18.59451 31.84901,24.80955c-4.1051,14.60888 -31.5761,44.09081 -47.49653,45.11182c-6.31351,0.40489 -22.06746,-10.41505 -26.97324,-25.7643c-7.46487,-23.35603 6.78801,-76.1394 6.78801,-76.1394z" fill="#262626"/><path d="M161.11784,89.3455c0,0 15.01869,18.30848 32.29358,28.82346c12.7908,7.78557 30.35378,17.79619 28.77987,23.39737c-3.69962,13.16598 -28.45735,39.73597 -42.80532,40.65615c-5.68994,0.36491 -19.88785,-9.38635 -24.3091,-23.21958c-6.72756,-21.04917 6.04097,-69.6574 6.04097,-69.6574z" fill="#202020"/></g><g stroke="#000000" stroke-width="0"><path d="M293.55428,160.17746c-4.85288,15.36607 -20.56944,26.24022 -26.8843,25.85709c-15.92388,-0.96615 -43.49628,-30.35326 -47.65168,-44.94789c-1.76782,-6.20897 17.60061,-16.23146 31.76335,-24.91913c19.1278,-11.73333 35.72236,-32.10561 35.72236,-32.10561c0,0 14.43463,52.73395 7.05031,76.11558z" fill="#262626"/><path d="M290.70077,158.76926c-4.37358,13.84836 -18.53779,23.64848 -24.22896,23.30319c-14.35105,-0.87073 -39.20016,-27.35526 -42.94515,-40.5084c-1.59322,-5.59571 15.93522,-15.66679 28.6991,-23.49638c17.23857,-10.57443 32.19408,-28.93454 32.19408,-28.93454c0,0 12.93591,48.56394 6.28093,69.63616z" fill="#202020"/></g><g fill="#2b2b2b" stroke="#000000" stroke-width="0"><path d="M170.07096,163.36191c-0.05292,-30.71779 23.0274,-52.55251 52.30496,-52.60295c29.27756,-0.05044 53.04924,21.70359 53.10215,52.42138c0.05291,30.71779 -23.63832,55.66035 -52.91588,55.71079c-24.13868,0.04159 -55.39911,-24.06859 -55.10811,-48.18065c0.06469,-5.36126 2.62616,-1.95694 2.61687,-7.34856z"/><path d="M278.36398,170.51941c0.37407,24.11092 -30.80307,48.32865 -54.94177,48.37023c-29.27754,0.05043 -53.05459,-24.81036 -53.10751,-55.52814c-0.05292,-30.71779 23.64367,-52.55357 52.92123,-52.60401c29.27754,-0.05043 52.43296,21.70465 52.48587,52.42244c0.00929,5.39163 2.55902,1.9785 2.64219,7.3395z"/></g><path d="M172.97898,163.79334c-0.05093,-29.565 22.26413,-49.38502 49.83321,-49.43252c27.56905,-0.04749 49.9523,19.69552 50.00322,49.26053c0.05093,29.56501 -22.26412,49.38502 -49.83321,49.43252c-27.56905,0.04749 -49.9523,-19.69552 -50.00323,-49.26053z" fill="#323232" stroke="#000000" stroke-width="0"/><g fill="#2b2b2b" stroke="#000000" stroke-width="0"><path d="M179.81713,166.3695c-0.02175,-12.62769 11.07323,-24.57278 22.49609,-24.59245c11.42285,-0.01968 15.79301,12.50208 15.81475,25.12975c0.02175,12.62769 -5.94758,22.15082 -17.37044,22.1705c-11.42285,0.01968 -20.91864,-10.08011 -20.9404,-22.70779z"/><path d="M245.12403,189.00086c-11.42287,0.01968 -17.42498,-9.48283 -17.44673,-22.11051c-0.02175,-12.62769 4.30522,-25.16442 15.72809,-25.18409c11.42285,-0.01968 22.55893,11.88713 22.58067,24.51481c0.02175,12.62769 -9.43918,22.76013 -20.86203,22.7798z"/></g><path d="M179.81552,165.43633c-0.02093,-12.14778 11.07483,-23.63964 22.49769,-23.65931c2.77964,-0.0048 5.1416,0.70484 7.12488,1.95656c0.30199,0.19059 3.30938,-2.01671 3.30938,-2.01671c0,0 -1.17223,3.673 -0.6098,4.2834c4.20981,4.56883 5.97537,12.23904 5.98865,19.95042c0.02093,12.14778 -5.94904,21.30937 -17.3719,21.32905c-3.39057,0.00584 -6.6113,-0.84603 -9.46484,-2.3646c-0.67601,-0.35975 -3.56324,1.86317 -3.56324,1.86317c0,0 0.81764,-3.60649 0.44092,-3.90352c-5.04187,-3.97528 -8.33942,-10.28515 -8.35174,-17.43847z" fill="#000000" stroke="#000000" stroke-width="0"/><path d="M245.12084,187.20335c-11.42285,0.01968 -17.42436,-9.12131 -17.44528,-21.26907c-0.02093,-12.14778 4.30686,-24.20833 15.72973,-24.22802c11.42285,-0.01968 22.55815,11.43389 22.57908,23.58168c0.02093,12.14778 -9.44068,21.89575 -20.86354,21.91543z" fill="#000000" stroke="#000000" stroke-width="0"/><g fill="#000000" stroke="#000000" stroke-width="0"><path d="M223.50809,214.50091c-14.47287,0.02493 -29.54265,-8.77683 -38.79565,-16.23959c-6.79985,-5.48424 -7.52417,-17.31212 -7.52417,-17.31212c0,0 4.06733,9.44427 8.73444,11.20448c1.52273,0.57431 4.62515,2.20487 4.62515,2.20487c0,0 3.4474,-1.01961 5.35939,-1.02476c0.65105,-0.00175 2.13269,2.00727 2.13269,2.00727c0,0 2.11612,-1.51409 3.21637,-1.56079c6.5697,-0.27882 14.095,0.10405 22.21624,0.09005c6.23083,-0.01074 6.35838,20.6197 0.03554,20.63059z"/><path d="M222.46126,214.50272c-6.32284,0.01089 -6.26636,-20.61986 -0.03553,-20.6306c8.12122,-0.01399 15.64515,-0.42278 22.2158,-0.1666c1.10042,0.04291 3.22173,1.54968 3.22173,1.54968c0,0 1.47473,-2.01412 2.12576,-2.0146c1.91198,-0.00145 5.36288,1.00628 5.36288,1.00628c0,0 3.09678,-1.64124 4.61753,-2.22079c4.66104,-1.7763 8.69579,-11.2345 8.69579,-11.2345c0,0 -0.68356,11.83032 -7.46449,17.33794c-9.22725,7.4946 -24.26661,16.34823 -38.73947,16.37317z"/></g><path d="M204.4239,193.95608c0,0 -3.93553,3.58555 -5.22181,9.98996c-1.28627,6.40439 2.25409,9.76918 2.25409,9.76918c0,0 -8.02787,-4.69419 -12.60542,-10.72057c-3.4912,-4.59619 -3.83982,-10.79987 -3.79173,-11.37297c0.69324,0.53271 2.10991,1.48042 2.66429,1.1948c0,0 1.12523,1.01228 2.62861,1.32634c1.15887,0.24207 4.19684,-1.06801 5.46603,-0.67508c0.6886,0.21319 1.06512,0.6159 1.59947,0.98005c0.34779,0.23701 0.29086,0.82041 0.60476,0.87252c0.35714,0.05928 2.56096,-1.46001 2.94385,-1.4273c1.70304,0.14549 3.45783,0.06307 3.45783,0.06307z" fill="#ffffff" stroke="#ff0000" stroke-width="0"/><path d="M244.93205,193.81728c0.38278,-0.03405 2.59183,1.47766 2.94876,1.41715c0.3137,-0.05316 0.25478,-0.63639 0.60174,-0.87459c0.53309,-0.36599 0.90821,-0.77001 1.59608,-0.98556c1.26781,-0.39729 4.3103,0.90233 5.46833,0.65626c1.5023,-0.31923 2.62403,-1.33539 2.62403,-1.33539c0.55538,0.28371 1.96873,-0.66889 2.66016,-1.20399c0.05006,0.57291 -0.27716,6.77775 -3.75252,11.38598c-4.55676,6.04211 -12.56842,10.76394 -12.56842,10.76394c0,0 3.52875,-3.37697 2.22043,-9.7769c-1.30832,-6.39992 -5.2562,-9.97189 -5.2562,-9.97189c0,0 1.75505,0.07637 3.45759,-0.07499z" fill="#ffffff" stroke="#ff0000" stroke-width="0"/><g fill="none" stroke="#2b2b2b" stroke-width="0.5"><path d="M223.47298,214.50098v-0.00002c-14.47287,0.02493 -29.54266,-8.77684 -38.79566,-16.2396c-6.79985,-5.48424 -7.52417,-17.31212 -7.52417,-17.31212c0,0 4.06734,9.44426 8.73445,11.20447c1.52273,0.57431 4.62515,2.20487 4.62515,2.20487c0,0 3.4474,-1.0196 5.35939,-1.02475c0.65105,-0.00175 2.13269,2.00725 2.13269,2.00725c0,0 2.11613,-1.51407 3.21638,-1.56078c6.5697,-0.27882 14.095,0.10404 22.21624,0.09005"/><path d="M222.39062,193.8722c8.12122,-0.01399 15.64515,-0.42278 22.21579,-0.16659c1.10042,0.04291 3.22173,1.54968 3.22173,1.54968c0,0 1.47473,-2.01412 2.12576,-2.01461c1.91198,-0.00145 5.36288,1.00629 5.36288,1.00629c0,0 3.09679,-1.64124 4.61753,-2.22079c4.66104,-1.7763 8.69579,-11.23451 8.69579,-11.23451c0,0 -0.68356,11.83033 -7.46448,17.33795c-9.22725,7.4946 -24.26661,16.34823 -38.73947,16.37317l-0.00003,0.00001"/></g><path d="M199.20209,203.94604c-1.28627,6.40439 2.25409,9.76918 2.25409,9.76918c0,0 -8.02787,-4.69419 -12.60542,-10.72057c-1.15223,-1.51693 -1.96216,-3.20893 -2.52849,-4.81584c3.14584,0.55427 8.29306,1.00903 9.33007,1.09967c1.6293,0.14245 3.26035,0.29757 4.88974,0.44654c-0.54225,1.22704 -1.02206,2.63788 -1.34,4.22098z" fill="#ffffff" stroke="#ff0000" stroke-width="0"/><path d="M245.37607,199.64783c1.62886,-0.15457 3.25939,-0.31535 4.88818,-0.4634c1.0367,-0.09423 6.18233,-0.5667 9.32623,-1.1318c-0.56079,1.60884 -1.36488,3.30363 -2.51188,4.8245c-4.55676,6.04211 -12.56843,10.76394 -12.56843,10.76394c0,0 3.52874,-3.37698 2.22043,-9.77691c-0.32339,-1.58199 -0.80809,-2.99116 -1.35456,-4.21634z" fill="#ffffff" stroke="#ff0000" stroke-width="0"/><g stroke-width="0"><g stroke="#000000"><path d="M252.06836,119.20727c0.00333,1.93059 -6.28025,3.50647 -29.06775,3.54573c-22.7875,0.03925 -29.42464,-1.51436 -29.42797,-3.44495c-0.00333,-1.93059 6.62847,-3.50708 29.41593,-3.54633c22.7875,-0.03925 29.07647,1.51497 29.0798,3.44555z" fill="#252525"/><path d="M222.64044,115.76232c22.7875,-0.03925 29.42466,1.51436 29.42799,3.44495c0.00333,1.93059 -6.62848,3.50708 -29.41595,3.54634c-22.7875,0.03925 -29.07647,-1.51498 -29.0798,-3.44556c-0.00333,-1.93059 6.28026,-3.50646 29.06775,-3.54572z" fill="#222222"/></g><path d="M193.57277,119.3279l-0.01211,-7.03101l58.49575,-0.10077l0.01212,7.03101z" fill="#222222" stroke="#000000"/><g fill="#202020" stroke="#000000"><path d="M252.05628,112.19612c0.00333,1.93059 -6.28025,3.50647 -29.06775,3.54572c-22.7875,0.03925 -29.42465,-1.51436 -29.42798,-3.44495c-0.00333,-1.93059 6.62847,-3.50708 29.41593,-3.54633c22.7875,-0.03925 29.07648,1.51497 29.0798,3.44555z"/><path d="M222.62836,108.75119c22.78749,-0.03925 29.42466,1.51435 29.42799,3.44494c0.00333,1.93059 -6.62848,3.50707 -29.41595,3.54633c-22.7875,0.03925 -29.07648,-1.51497 -29.07981,-3.44555c-0.00333,-1.93059 6.28026,-3.50645 29.06776,-3.54571z"/></g><g fill="#222222" stroke="#000000"><path d="M243.10179,111.52809c0.00215,1.24873 -9.08224,2.27665 -20.29055,2.29596c-11.2083,0.01931 -20.29617,-0.97733 -20.29831,-2.22604c-0.00215,-1.24873 9.08222,-2.27667 20.29053,-2.29598c11.2083,-0.01931 20.2962,0.97733 20.29834,2.22606z"/><path d="M202.51293,111.59801c0,0 0.38218,-12.24819 -0.71723,-18.41501c-1.06958,-5.99954 -5.79215,-18.09792 -5.79215,-18.09792l26.54991,-0.04574l20.54837,36.48877z"/><path d="M202.51293,111.59801l20.42253,-36.55934l26.54991,-0.04574c0,0 -4.68087,12.11456 -5.72977,18.11776c-1.07814,6.17057 -0.65378,18.41739 -0.65378,18.41739z"/></g><path d="M249.48525,74.99293c0.0053,3.07377 -11.96273,5.58622 -26.73132,5.61166c-14.76859,0.02544 -26.7452,-2.44572 -26.75048,-5.51953c-0.0053,-3.07377 11.96273,-5.5862 26.73132,-5.61164c14.76859,-0.02544 26.7452,2.44571 26.75049,5.5195z" fill="#202020" stroke="#000000"/><g fill="#770000"><g><g stroke="#000000"><path d="M243.55555,112.33569c0.00138,0.80226 -9.28616,1.46864 -20.74432,1.48838c-11.45815,0.01974 -20.74796,-0.61462 -20.74934,-1.4169c-0.00137,-0.80226 9.28617,-1.46864 20.74433,-1.48838c11.45815,-0.01974 20.74795,0.61463 20.74932,1.4169z"/><path d="M202.06191,112.40716c0,0 0.39872,-7.8694 -0.72115,-11.83071c-1.08948,-3.85386 42.21483,11.75925 42.21483,11.75925z"/><path d="M202.06191,112.40716c0,0 43.25027,-15.76221 42.17409,-11.90462c-1.10621,3.96515 -0.68043,11.83315 -0.68043,11.83315z"/></g><path d="M222.7997,107.1275c-11.85622,0.02042 -20.29933,-6.56514 -20.30004,-6.98038c-0.00072,-0.41525 8.43357,1.04604 20.28979,1.02561c11.85622,-0.02042 11.86647,5.93434 0.01025,5.95476z" stroke="#2b2b2b"/></g><g><g stroke="#000000"><path d="M222.80623,110.91877c11.45816,-0.01974 20.74795,0.61463 20.74932,1.4169c0.00138,0.80226 -9.28618,1.46866 -20.74433,1.48838c-11.45816,0.01974 -20.74795,-0.61463 -20.74932,-1.4169c-0.00137,-0.80226 9.28618,-1.46866 20.74433,-1.48838z"/><path d="M202.06191,112.40716c0,0 43.25029,-15.76221 42.17409,-11.90462c-1.10621,3.96515 -0.68041,11.83313 -0.68041,11.83313z"/><path d="M202.06193,112.40717c0,0 0.39871,-7.86942 -0.72117,-11.83073c-1.08948,-3.85386 42.21483,11.75925 42.21483,11.75925z"/></g><path d="M222.78944,101.17273c11.85622,-0.02042 20.28544,-1.51076 20.28615,-1.09551c0.00072,0.41525 -8.41968,7.02987 -20.2759,7.05029c-11.85622,0.02042 -11.86647,-5.93434 -0.01025,-5.95476z" stroke="#2b2b2b"/></g></g></g><path d="M209.00652,228.40714l-0.62105,-2.3923l36.31953,-9.42862l0.62105,2.3923c0,0 -11.18275,7.54586 -17.16652,9.09925c-6.11969,1.58869 -19.15303,0.32937 -19.15303,0.32937z" fill="url(#color-1)" stroke="#2b2b2b" stroke-width="0"/><path d="M213.8547,255.43384c2.6629,10.2576 6.9757,30.19871 9.13447,47.5735c2.05428,16.53376 22.09511,71.02851 16.97054,72.35885c-1.92352,0.49935 -29.91459,4.94734 -35.93703,-7.09082c-4.85739,-9.70937 -3.25757,-46.6687 -8.20722,-56.33134c-9.22711,-18.01304 -20.64965,-39.36734 -22.61148,-46.92443c-5.19689,-20.0187 23.53895,-39.44207 34.04876,-42.17045c0.85008,-0.22068 -4.5084,4.11304 -3.58792,8.58296c1.24858,6.06327 7.56251,13.88097 10.18987,24.00171z" fill="#770000" stroke="#2b2b2b" stroke-width="0"/><path d="M244.74225,184.38328c-10.1946,0.01757 -15.55079,-8.14053 -15.56946,-18.98208c-0.01867,-10.84156 3.84377,-21.60531 14.03835,-21.62287c10.1946,-0.01757 20.13254,10.20446 20.15122,21.04601c0.01867,10.84156 -8.42553,19.54137 -18.62015,19.55893z" fill="#ffffff" stroke="#000000" stroke-width="0"/><path d="M201.1235,184.4584c-10.19462,0.01757 -18.66875,-8.6531 -18.68742,-19.49466c-0.01867,-10.84155 9.88399,-21.09774 20.07858,-21.1153c10.1946,-0.01757 14.0941,10.7328 14.11277,21.57438c0.01867,10.84155 -5.30937,19.01805 -15.50396,19.03561z" fill="#ffffff" stroke="#000000" stroke-width="0"/><g fill="#262626" stroke="#000000" stroke-width="0"><path d="M235.8967,183.06864c0.00608,3.5291 -5.79414,6.40001 -12.95513,6.41235c-7.161,0.01233 -12.97107,-2.83857 -12.97715,-6.36767c-0.00608,-3.5291 5.79414,-6.40002 12.95515,-6.41236c7.16101,-0.01233 12.97109,2.83857 12.97716,6.36768z"/><path d="M232.14194,185.80589c0.00402,2.3305 -4.1104,6.72031 -9.19513,6.72907c-5.08472,0.00876 -9.21424,-4.36687 -9.21826,-6.69734c-0.00402,-2.3305 4.1147,-4.22684 9.19942,-4.2356c5.08472,-0.00876 9.20995,1.87337 9.21396,4.20387z"/></g><path d="M475.68804,205.07703c1.83119,5.62265 -1.24236,11.66518 -6.86503,13.49638c-5.62264,1.83119 -11.66518,-1.24236 -13.49637,-6.86503c-1.83119,-5.62265 1.24237,-11.66519 6.86502,-13.49639c5.62264,-1.83119 11.66517,1.24237 13.49637,6.86503z" fill="#4e4e4e" stroke="#2b2b2b" stroke-width="0"/><path d="M466.75008,191.56868c1.6067,-4.09566 32.53519,-26.12224 41.75178,-18.87178c11.82832,9.30508 17.39972,37.12216 7.11965,41.98195c-12.84594,6.0728 -32.9764,12.64607 -42.10632,4.01159c-2.23616,-2.11479 -2.81406,-8.90481 -3.74271,-11.75624c-1.39079,-4.27039 -4.79514,-10.84663 -3.02238,-15.36554z" fill="#2b2b2b" stroke="#2b2b2b" stroke-width="0"/><path d="M475.68806,205.07704c1.83119,5.62265 -1.24238,11.66518 -6.86504,13.49639c-5.62264,1.83119 -11.66517,-1.24237 -13.49637,-6.86503c-1.83119,-5.62265 1.24237,-11.66517 6.86504,-13.49636c5.62264,-1.83119 11.66518,1.24238 13.49637,6.86502z" fill="#4e4e4e" stroke="#2b2b2b" stroke-width="0"/><path d="M378.41412,236.75742c-4.0058,-12.29968 -17.97666,-18.77805 31.41661,-34.86456c49.39328,-16.08651 54.86377,-6.83972 58.86957,5.45996c4.0058,12.29968 5.02994,22.99459 -44.36333,39.08111c-49.39324,16.08649 -41.91706,2.62316 -45.92285,-9.67651z" fill="#2b2b2b" stroke="#2b2b2b" stroke-width="0"/><path d="M381.34406,238.25813c-4.0058,-12.29968 -17.97667,-18.77808 31.41661,-34.86459c49.39328,-16.08651 54.86378,-6.83969 58.86956,5.45998c4.0058,12.29968 5.02994,22.99459 -44.36333,39.08111c-49.39328,16.08651 -41.91706,2.62318 -45.92284,-9.6765z" fill="#2b2b2b" stroke="#2b2b2b" stroke-width="0"/><g stroke="#2b2b2b" stroke-width="0"><path d="M470.87543,188.26139c-1.54201,-0.64245 -2.27126,-2.41328 -1.62884,-3.95531c0.64245,-1.54201 2.41328,-2.2713 3.95529,-1.62885c1.54201,0.64245 2.27127,2.41331 1.62881,3.95533c-0.64245,1.54201 -2.41329,2.27125 -3.9553,1.62881z" fill="#4e4e4e"/><path d="M461.65586,210.39059c-1.54201,-0.64245 -2.27128,-2.41327 -1.62885,-3.95531c0.64245,-1.54201 2.4133,-2.27128 3.95531,-1.62883c1.54201,0.64245 2.27126,2.41328 1.62881,3.95531c-0.64245,1.54201 -2.41327,2.27126 -3.95529,1.62883z" fill="#4e4e4e"/><path d="M472.41713,184.56076c3.07529,1.28124 5.18354,3.24342 0.33956,14.87018c-4.84399,11.62677 -7.55309,11.10683 -10.6284,9.82559c-3.07529,-1.28124 -5.35222,-2.83858 -0.50822,-14.46536c4.84399,-11.62677 7.72177,-11.51165 10.79708,-10.2304z" fill="#262626"/></g><g stroke="#2b2b2b" stroke-width="0"><path d="M512.45483,168.13034c1.4324,0.62429 2.08749,2.29158 1.46321,3.724c-0.62429,1.4324 -2.29158,2.0875 -3.72396,1.46322c-1.4324,-0.62429 -2.08751,-2.29157 -1.46323,-3.72396c0.62429,-1.4324 2.29157,-2.08753 3.72398,-1.46325z" fill="#4e4e4e"/><path d="M505.68629,183.66046c1.4324,0.62429 2.08749,2.29157 1.46321,3.72396c-0.62429,1.4324 -2.29158,2.08751 -3.72396,1.46323c-1.4324,-0.62429 -2.08749,-2.29157 -1.46321,-3.72396c0.62429,-1.4324 2.29155,-2.08752 3.72396,-1.46323z" fill="#4e4e4e"/><path d="M496.34457,205.09469c-2.85667,-1.24504 -4.86639,-2.95669 -1.0127,-11.79879c3.8537,-8.84212 6.34139,-8.22726 9.19809,-6.98223c2.85667,1.24504 5.00056,2.64881 1.14688,11.49092c-3.85369,8.84213 -6.47558,8.53513 -9.33227,7.29012z" fill="#262626"/><path d="M512.84762,181.35166c-3.85369,8.84213 -5.28469,5.80266 -8.14138,4.55764c-2.85669,-1.24502 -6.0573,-0.2242 -2.20362,-9.06631c3.8537,-8.84212 6.47561,-8.53515 9.33227,-7.29013c2.85668,1.24502 4.86639,2.95669 1.0127,11.7988z" fill="#262626"/></g><g stroke="#2b2b2b" stroke-width="0"><path d="M517.42565,180.37373c1.4324,0.62429 2.08749,2.29157 1.46321,3.72396c-0.62429,1.4324 -2.29158,2.0875 -3.72397,1.46322c-1.4324,-0.62429 -2.0875,-2.29157 -1.46322,-3.72396c0.62429,-1.4324 2.29156,-2.08753 3.72397,-1.46322z" fill="#4e4e4e"/><path d="M510.65711,195.90384c1.4324,0.62429 2.08751,2.29157 1.46323,3.72396c-0.62429,1.4324 -2.29158,2.0875 -3.72396,1.46322c-1.4324,-0.62429 -2.0875,-2.29157 -1.46322,-3.72395c0.62429,-1.4324 2.29157,-2.08751 3.72396,-1.46323z" fill="#4e4e4e"/><path d="M501.31538,217.33806c-2.85669,-1.24502 -4.86636,-2.95669 -1.01269,-11.79879c3.8537,-8.84212 6.3414,-8.22727 9.19808,-6.98224c2.85668,1.24502 5.00058,2.64879 1.14689,11.49092c-3.85369,8.84213 -6.47561,8.53515 -9.33228,7.29012z" fill="#262626"/><path d="M517.81839,193.59502c-3.85369,8.84213 -5.28468,5.80265 -8.14137,4.55763c-2.85669,-1.24502 -6.05729,-0.22419 -2.2036,-9.06632c3.8537,-8.84212 6.47558,-8.53513 9.33227,-7.29012c2.85668,1.24502 4.86639,2.95669 1.01269,11.79879z" fill="#262626"/></g><g stroke="#2b2b2b" stroke-width="0"><path d="M526.46384,193.33273c1.36866,0.75383 1.86707,2.47449 1.11325,3.84314c-0.75383,1.36866 -2.47448,1.86706 -3.84315,1.11323c-1.36866,-0.75383 -1.86705,-2.47447 -1.11322,-3.84313c0.75383,-1.36866 2.47446,-1.86709 3.84312,-1.11325z" fill="#4e4e4e"/><path d="M518.29072,208.17182c1.36866,0.75383 1.86707,2.47447 1.11325,3.84313c-0.75383,1.36866 -2.47447,1.86708 -3.84313,1.11325c-1.36866,-0.75383 -1.86706,-2.47446 -1.11324,-3.84312c0.75383,-1.36866 2.47448,-1.86708 3.84314,-1.11326z" fill="#4e4e4e"/><path d="M507.01045,228.65227c-2.72958,-1.50339 -4.57271,-3.39325 0.08067,-11.8419c4.65339,-8.44867 7.07373,-7.60682 9.8033,-6.10342c2.72957,1.50339 4.73472,3.09906 0.08135,11.54772c-4.6534,8.44868 -7.23576,7.90099 -9.96531,6.39762z" fill="#262626"/><path d="M525.63443,206.53381c-4.6534,8.44868 -5.79773,5.2901 -8.52729,3.78672c-2.72957,-1.50339 -6.01073,-0.78237 -1.35736,-9.23101c4.65338,-8.44867 7.23577,-7.90099 9.96534,-6.39761c2.72957,1.50339 4.57268,3.39326 -0.08069,11.8419z" fill="#262626"/></g><g stroke="#2b2b2b" stroke-width="0"><path d="M534.63749,200.79753c1.36866,0.75383 1.8671,2.47447 1.11326,3.84313c-0.75383,1.36866 -2.47447,1.86707 -3.84313,1.11325c-1.36866,-0.75383 -1.86707,-2.47447 -1.11325,-3.84313c0.75383,-1.36866 2.47447,-1.86707 3.84312,-1.11325z" fill="#4e4e4e"/><path d="M526.46439,215.63662c1.36866,0.75383 1.86707,2.47447 1.11324,3.84313c-0.75383,1.36866 -2.47447,1.86706 -3.84313,1.11324c-1.36866,-0.75383 -1.86706,-2.47447 -1.11323,-3.84313c0.75383,-1.36866 2.47447,-1.86706 3.84312,-1.11323z" fill="#4e4e4e"/><path d="M515.18413,236.11706c-2.72958,-1.50339 -4.57269,-3.39326 0.08068,-11.8419c4.65338,-8.44867 7.07374,-7.60683 9.80329,-6.10344c2.72957,1.50339 4.73472,3.09907 0.08135,11.54773c-4.6534,8.44868 -7.23576,7.90099 -9.96532,6.39762z" fill="#262626"/><path d="M533.80821,213.99868c-4.6534,8.44868 -5.79773,5.29009 -8.52729,3.78671c-2.72957,-1.50339 -6.01074,-0.78236 -1.35737,-9.231c4.65338,-8.44867 7.23577,-7.90103 9.96534,-6.39763c2.72957,1.50339 4.57269,3.39325 -0.08069,11.84193z" fill="#262626"/></g><g><g fill="#1c1c1c" stroke="#000000" stroke-width="0"><path d="M404.08589,406.80962c-3.36231,5.78869 -16.10783,7.15697 -28.46799,3.05612c-12.36008,-4.10082 -19.65429,-12.11795 -16.29198,-17.90662c3.36231,-5.78869 16.10784,-7.15697 28.46802,-3.05611c12.36008,4.10082 19.65426,12.11794 16.29193,17.90666z"/><g><path d="M358.89301,392.63725l57.16005,-119.77389l42.10663,13.97019l-67.5646,116.32184z"/><path d="M372.01639,396.99139l67.56459,-116.32189l42.10662,13.97023l-77.96913,112.8698z"/></g></g><g><path d="M420.99868,309.33629c3.17937,-5.47367 10.64071,-8.29052 16.66535,-6.29163c6.0247,1.99888 8.33132,8.05655 5.15199,13.53019c-3.17937,5.47367 -10.64065,8.29049 -16.66532,6.29163c-6.0247,-1.99888 -8.33134,-8.05658 -5.15203,-13.53022z" fill="#1a1a1a" stroke="#2b2b2b" stroke-width="0"/><path d="M422.62339,309.87534c2.70579,-4.65844 9.05593,-7.05577 14.18335,-5.3546c5.1274,1.70119 7.09049,6.8567 4.3847,11.51513c-2.70579,4.65844 -9.05594,7.05575 -14.18336,5.35457c-5.1274,-1.70119 -7.09048,-6.8567 -4.3847,-11.51511z" fill="#cba600" stroke="#2b2b2b" stroke-width="0"/><path d="M423.08758,310.02935c2.57049,-4.42552 8.60315,-6.70298 13.47417,-5.08683c4.87104,1.61611 6.73596,6.51388 4.16548,10.93936c-2.57049,4.42552 -8.60315,6.70298 -13.47418,5.08685c-4.87104,-1.61611 -6.73597,-6.51388 -4.16547,-10.93937z" fill="#ddb400" stroke="#2b2b2b" stroke-width="0"/><text transform="translate(423.8559,316.84709) rotate(18.3535) scale(0.43648,0.42607) skewX(-11.5213)" font-size="40" xml:space="preserve" fill="#cda800" stroke="none" stroke-width="1" font-family="&quot;I KNOW A GHOST&quot;, Handwriting" font-weight="normal" text-anchor="start"><tspan x="0" dy="0">T</tspan></text></g><g stroke="#000000" stroke-width="0"><path d="M405.2678,281.03418l8.40981,-14.47867l75.7615,25.13626l-8.40982,14.47869z" fill="#212121"/><path d="M481.02933,306.1705c-1.79976,3.09854 -20.2186,-0.01645 -41.1395,-6.95764c-20.92098,-6.94121 -36.42171,-15.08005 -34.62198,-18.17862c1.79976,-3.09854 20.2186,0.01645 41.13957,6.95761c20.92098,6.94121 36.42168,15.08006 34.62193,18.17863z" fill="#212121"/><path d="M489.43919,291.69181c-1.7998,3.09857 -20.21861,-0.01648 -41.13951,-6.95767c-20.92098,-6.94121 -36.42172,-15.08004 -34.62201,-18.17861c1.7998,-3.09857 20.21861,0.01648 41.1396,6.95769c20.92098,6.94121 36.42168,15.08004 34.62191,18.17861z" fill="#1c1c1c"/></g><g stroke="#000000" stroke-width="0"><g><path d="M427.27842,234.38418c12.2831,-21.147 41.10936,-32.02969 64.38523,-24.30717c23.27588,7.72254 32.18734,31.12587 19.90429,52.27286c-12.2831,21.147 -38.69838,27.87903 -61.97427,20.15649c-23.27588,-7.72254 -34.59827,-26.97524 -22.3152,-48.12218z" fill="#727272"/><path d="M435.90138,235.01735c10.48554,-18.05235 35.09333,-27.34241 54.9629,-20.75001c19.86966,6.59239 27.47697,26.57091 16.99143,44.62319c-10.48551,18.05233 -35.09333,27.34241 -54.96291,20.75c-19.86962,-6.5924 -27.47696,-26.57089 -16.99144,-44.62317z" fill="#6c6c6c"/></g><g fill="#7e7e7e"><path d="M423.74677,238.27551l2.9694,-5.11224l86.42141,28.67302l-2.96938,5.11227z"/><path d="M510.16815,266.94854c-0.63547,1.09406 -20.49671,-4.4377 -44.36134,-12.35553c-23.86467,-7.91787 -42.69557,-15.22345 -42.06011,-16.31755c0.63547,-1.09406 20.49674,4.43763 44.36136,12.3555c23.86464,7.91788 42.69556,15.22345 42.06004,16.31756z"/><path d="M513.13754,261.83633c-0.63547,1.09406 -20.49671,-4.43765 -44.36139,-12.35555c-23.86467,-7.91787 -42.69555,-15.22344 -42.06009,-16.31753c0.63547,-1.09406 19.55553,6.05805 43.42018,13.9759c23.86467,7.91787 43.63673,13.60303 43.00121,14.69712z"/></g></g></g><path d="M407.34637,373.12569c-0.3621,0.2878 -0.7242,0.5756 -1.08629,0.86341c-0.79094,0.62869 -1.81929,1.69169 -2.89529,2.54781c5.58639,-1.62513 11.17278,-3.25026 16.75917,-4.8754c0.42467,-0.12354 0.93324,-0.3127 1.48431,-0.51782c0.90751,-1.0131 1.81502,-2.0262 2.72254,-3.0393c0.4411,-0.49242 1.74643,-0.62186 1.53988,-1.24986c-0.08066,-0.24524 -0.49939,0.17438 -0.75728,0.16243c-0.83244,-0.03858 -1.63183,-0.33899 -2.44774,-0.50849c-1.84817,-0.38393 -3.69634,-0.76786 -5.54451,-1.1518c-0.48037,0.38197 -0.96076,0.76391 -1.44117,1.14583c0.30685,0.7824 0.54475,1.5583 0.40242,1.89093c-0.12001,0.28046 -2.13059,1.28593 -2.50977,1.48376c-2.07542,1.08283 -4.15085,2.16566 -6.22627,3.24849zM396.10499,350.18855c-0.02978,1.14957 -0.05212,2.28287 -0.04635,3.38692c1.16696,-1.32662 2.31835,-2.61152 3.25561,-3.83223c0.20783,-0.27068 0.41565,-0.54136 0.62348,-0.81204c-0.37292,-0.60186 -0.78621,-1.18406 -1.05047,-1.8388c-0.09753,-0.24164 0.1348,-0.7536 -0.12515,-0.77164c-0.6652,-0.04618 -0.58856,1.20735 -0.99785,1.73376c-0.55309,0.71135 -1.10618,1.42269 -1.65927,2.13404zM409.32379,353.92067c0.31593,-0.07102 0.63211,-0.13928 0.94854,-0.20452c2.91384,-2.81733 5.82768,-5.63466 8.74153,-8.452c1.79022,-1.73093 3.48019,-3.65408 5.49089,-5.11081l-0.09905,-0.10244l0.89809,-0.86834c0.11251,-0.10907 0.26591,-0.17622 0.43499,-0.17622c0.34518,0 0.625,0.27982 0.625,0.625c0,0.1153 -0.03122,0.22331 -0.08567,0.31603c-0.81672,1.45284 -2.2405,3.98555 -3.05722,5.43839c-1.87051,3.32739 -3.74102,6.65478 -5.61154,9.98217c1.28958,-0.18045 2.58085,-0.3146 3.86527,-0.28772l-0.01994,-0.15254l1.22938,-0.16072c0.02973,-0.00434 0.06015,-0.00659 0.09109,-0.00659c0.34518,0 0.625,0.27982 0.625,0.625c0,0.28732 -0.19387,0.52935 -0.45793,0.60242l-1.18325,0.357c-1.8998,0.5732 -3.80255,1.20018 -5.71327,1.80467c-0.3658,0.6507 -0.73159,1.30141 -1.09739,1.95211c1.29248,0.00648 2.62156,0.0117 3.97407,0.02544c0.11337,-0.0814 0.22672,-0.16285 0.34003,-0.24434c2.29088,-1.80049 4.58176,-3.60097 6.87264,-5.40146c3.86865,-3.04051 7.87379,-5.78225 11.95647,-8.48809c0.46372,-0.35305 0.93835,-0.6791 1.40584,-0.92875c0.33146,-0.21838 0.66338,-0.43672 0.99573,-0.65517l1.03722,-0.68173c0.09998,-0.06788 0.22067,-0.10754 0.35063,-0.10754c0.34518,0 0.625,0.27982 0.625,0.625c0,0.21085 -0.10441,0.39731 -0.26434,0.51051l-1.00516,0.72955l-0.03368,-0.0464l-0.02311,0.01519c-0.15136,0.09949 -0.30264,0.19895 -0.45382,0.2984c-1.67577,1.5613 -3.6983,2.78767 -5.55913,4.13829c-3.93086,2.85306 -7.86173,5.70612 -11.79259,8.55918c1.01397,-0.71341 2.02831,-1.31066 3.18874,-1.5229l-0.01378,-0.38722l1.2457,-0.04434c0.00854,-0.00035 0.01712,-0.00052 0.02574,-0.00052c0.34518,0 0.625,0.27982 0.625,0.625c0,0.22038 -0.11406,0.41412 -0.28638,0.52541l-1.032,0.688c-0.33257,0.22171 -0.66513,0.44344 -0.99769,0.66517c2.10103,-0.60412 4.20206,-1.20824 6.30309,-1.81236c0.67586,-0.19433 3.60125,-1.36097 4.15882,-0.93018c0.30945,0.23909 0.19239,2.5333 0.18055,3.00933c-0.01927,0.77505 0.01606,1.558 0.01275,2.32605c0.53284,0.1111 1.06007,0.23069 1.58082,0.35943l0.00462,-0.04543l1.23663,0.12566c0.31884,0.02842 0.56878,0.29628 0.56878,0.62251c0,0.16434 -0.06343,0.31386 -0.16714,0.42543l-0.84697,0.91685c-1.00814,1.0751 -2.06868,1.67525 -3.30598,2.08688l0.04213,0.08425l-1.10679,0.55339c-0.08685,0.04573 -0.18578,0.07161 -0.29075,0.07161c-0.34518,0 -0.625,-0.27982 -0.625,-0.625c0,-0.1487 0.05193,-0.28528 0.13865,-0.39258l0.74255,-0.93558c0.40871,-0.48367 0.62134,-1.08453 0.72634,-1.73853c-1.65365,-0.17606 -3.38534,-0.57587 -4.70039,-0.70949c-2.89025,-0.29369 -5.7471,-0.56247 -8.6107,-0.75344c-0.7677,0.51169 -1.53546,1.02328 -2.30333,1.53471c-0.49133,0.39093 -0.9827,0.78182 -1.4741,1.17266c1.50863,0.3134 3.01726,0.62679 4.52589,0.94019c0.66101,0.13732 3.91806,0.51003 4.13821,1.1794c0.13873,0.42181 -1.46588,2.10563 -1.79624,2.47442c-0.41785,0.46647 -0.83571,0.93294 -1.25356,1.39941c0.53676,-0.14155 1.06171,-0.23993 1.54364,-0.25771c0.20704,-0.07037 0.40097,-0.13065 0.57826,-0.18012l1.18796,-0.33147c0.05753,-0.01747 0.11858,-0.02686 0.18182,-0.02686c0.34518,0 0.625,0.27982 0.625,0.625c0,0.28943 -0.19673,0.53291 -0.46377,0.60401l-1.18689,0.34528l-0.00383,-0.01315l-0.00435,0.00121c-2.87157,0.80125 -4.69885,2.91198 -7.09402,4.41172l0.11262,0.1354l-0.95783,0.7967c-0.10879,0.09181 -0.24936,0.14714 -0.40286,0.14714c-0.34518,0 -0.625,-0.27982 -0.625,-0.625c0,-0.16114 0.06099,-0.30804 0.16114,-0.41888c0.47601,-0.53139 1.78438,-1.99199 2.26039,-2.52338c-0.21677,0.0598 -0.43278,0.12068 -0.64774,0.18322c-5.20106,1.51304 -10.40212,3.02607 -15.60317,4.53911c-0.80016,0.23277 -1.60033,0.46555 -2.40049,0.69832l-1.08073,0.31439c-0.05947,0.01879 -0.12279,0.02892 -0.18848,0.02892c-0.34518,0 -0.625,-0.27982 -0.625,-0.625c0,-0.20029 0.09421,-0.37857 0.24074,-0.49295l0.97389,-0.77412l0.08328,0.10477c0.9744,-1.01554 2.07685,-1.91466 3.20389,-2.78499c-0.28897,-0.51553 -0.47236,-1.57788 -0.59869,-2.61483c-0.0468,0.1441 -0.09531,0.28748 -0.14573,0.43006c-0.04273,0.21575 -0.08429,0.43084 -0.12444,0.64523l-0.00429,0.02293l0.04686,0.01067l-0.27481,1.20663c-0.05854,0.28447 -0.31037,0.49837 -0.61217,0.49837c-0.34518,0 -0.625,-0.27982 -0.625,-0.625c0,-0.04364 0.00447,-0.08623 0.01298,-0.12734c0.06323,-0.33765 0.35425,-1.89165 0.41748,-2.22931c0.04174,-0.68339 0.2066,-1.43623 0.40765,-2.17683c0.33775,-1.80357 0.6755,-3.60713 1.01325,-5.4107c0.07733,-0.41291 0.13121,-0.85645 0.19238,-1.30509c-0.65659,-0.1364 -1.31319,-0.2728 -1.96978,-0.4092c-1.8739,1.38686 -3.80434,2.82062 -5.79589,3.7185c-0.32029,0.1444 -0.65124,0.27699 -0.9905,0.39988c-1.13779,1.6541 -2.27557,3.30821 -3.41336,4.96231l-0.70326,1.02239c-0.11207,0.16778 -0.30318,0.27829 -0.5201,0.27829c-0.06842,0 -0.13427,-0.01099 -0.19588,-0.03131c-0.11399,0.15228 -0.29582,0.25083 -0.50066,0.25083c-0.32113,0 -0.58569,-0.24219 -0.621,-0.55388c-0.13152,-1.02538 -0.421,-3.28222 -0.55252,-4.3076c-0.35858,0.08328 -0.7112,0.16957 -1.05543,0.26107c-0.5551,0.08906 -1.17789,0.54736 -1.66529,0.26717c-0.88371,-0.50802 -0.72117,-2.20531 -0.7236,-2.98595c-0.00316,-1.01924 -0.00412,-2.03851 -0.00402,-3.05778c-0.66115,4.25535 -1.8004,8.56134 -2.5257,12.628l-0.21759,1.21999c-0.04751,0.29806 -0.30574,0.52585 -0.61718,0.52585c-0.32286,0 -0.58854,-0.24481 -0.62155,-0.55893l-0.14705,-1.23328l0.14105,-0.01682c-0.63808,-2.39963 -0.73421,-4.9578 -1.02905,-7.43043c-0.23416,-1.96378 -0.46832,-3.92756 -0.70248,-5.89135l-0.55244,0.691c-0.11442,0.14567 -0.29218,0.23924 -0.49178,0.23924c-0.18545,0 -0.35203,-0.08077 -0.46649,-0.20905c-0.42594,0.59813 -0.85188,1.19625 -1.27782,1.79438c0.12405,1.26608 0.19311,2.52016 0.16795,3.74654c-0.08336,4.06312 -1.3159,8.41326 -1.94734,12.43273c-0.06466,0.41162 -0.12933,0.82324 -0.19399,1.23486l-0.19246,1.22512c-0.04245,0.30387 -0.30339,0.53774 -0.61896,0.53774c-0.32332,0 -0.58929,-0.2455 -0.62169,-0.56025l-0.14419,-1.23375l0.1372,-0.01603c-0.75615,-2.78388 -0.82061,-5.83145 -1.15292,-8.67481c-0.11449,-0.97963 -0.66656,-2.85083 -0.40189,-3.79835c0.28473,-1.01933 1.65064,-2.3899 2.27154,-3.26179c0.46962,-0.65946 0.93923,-1.31892 1.40885,-1.97838c-0.04724,-0.44117 -0.10079,-0.88368 -0.15892,-1.32682c-0.04153,-0.07803 -0.067,-0.16591 -0.072,-0.25922l-0.03021,-0.48945c-0.35536,-2.51207 -0.82695,-5.03196 -1.10371,-7.43232c-0.66815,-5.79494 -1.33631,-11.58988 -2.00446,-17.38482c-0.05052,-0.43817 -0.1505,-0.96728 -0.25948,-1.54018c-0.71198,3.8045 -1.88767,7.64328 -2.68719,11.30294c-0.69088,3.16238 -0.97275,6.97963 -2.54624,9.81086c-2.65558,4.72103 -5.31116,9.44207 -7.96675,14.1631c-1.15234,2.04861 -1.73941,4.53958 -4.24604,4.67646c0,0 -0.625,0 -0.625,-0.625c0,-0.625 0.625,-0.625 0.625,-0.625c1.60234,0.1466 2.38851,-2.67385 3.15657,-4.03929c2.65558,-4.72103 5.31116,-9.44207 7.96675,-14.1631c1.52476,-2.67331 1.75772,-6.45847 2.41452,-9.46483c1.11393,-5.09879 3.01092,-10.58919 3.2466,-15.79897l0.05862,-1.2451c0.01357,-0.33318 0.28796,-0.59913 0.62447,-0.59913c0.32362,0 0.58979,0.24596 0.62178,0.56113l0.14229,1.23405l-0.15293,0.01763c0.65172,2.39389 0.72665,4.95826 1.01198,7.43301c0.18307,1.58775 0.36613,3.1755 0.5492,4.76325c-0.19243,-2.67869 -0.49828,-5.41522 -0.07919,-8.04732l-0.15441,-0.00108l0.00873,-1.24942c0.00205,-0.34342 0.28108,-0.62119 0.62499,-0.62119c0.31831,0 0.58104,0.23795 0.62001,0.54568c0.11789,0.82495 0.41132,2.87823 0.52921,3.70319c0.62065,4.34302 1.24129,8.68604 1.86194,13.02906c0.14742,-0.80086 0.29484,-1.60173 0.44226,-2.40259l-0.00635,-0.05323c-0.00364,-0.02731 -0.00553,-0.05517 -0.00553,-0.08348c0,-0.12459 0.03645,-0.24066 0.09928,-0.33814c0.59952,-3.25693 1.19905,-6.51386 1.79857,-9.7708c0.60345,-3.27826 1.2069,-6.55651 1.81034,-9.83477l0.19363,-1.05192c0.04884,-0.29649 0.30634,-0.52266 0.61666,-0.52266c0.2651,0 0.49164,0.16504 0.58249,0.39798l0.4752,1.14048l-0.10169,0.04237c2.96048,5.16734 3.43917,11.97983 3.95109,18.21127c1.10056,-2.33869 2.20112,-4.67738 3.30168,-7.01606c1.06056,-2.2537 1.95355,-4.65668 3.32904,-6.72234l-0.13557,-0.0638l0.5263,-1.11838c0.09723,-0.21888 0.31652,-0.37152 0.57146,-0.37152c0.34518,0 0.625,0.27982 0.625,0.625c0,0.05428 -0.00692,0.10695 -0.01993,0.15716c-0.41888,1.77236 -1.10928,4.69353 -1.52816,6.46589c0.13057,-0.18335 0.26113,-0.3667 0.3917,-0.55004l0.72022,-1.01137c0.11283,-0.16273 0.30096,-0.26929 0.51397,-0.26929c0.34272,0 0.62102,0.27586 0.62496,0.61764l0.01681,1.24883l-0.0796,0.00107c0.53786,3.26535 0.49044,6.79524 0.39791,10.2511c0.20486,-0.26347 0.40971,-0.52694 0.61457,-0.79042c0.2972,-0.38223 1.66165,-2.24192 2.07123,-2.21349c0.40959,0.02844 1.50397,2.05882 1.7455,2.47846c0.05832,0.10133 0.11587,0.20097 0.17276,0.29901c0.53077,-0.69128 1.06153,-1.38257 1.5923,-2.07385l0.75714,-0.98612c0.11404,-0.15165 0.29549,-0.24972 0.49984,-0.24972c0.32584,0 0.59345,0.24935 0.6224,0.56765l0.12813,1.23626l-0.07438,0.00771c0.24431,1.00162 0.43557,2.03027 0.58993,3.07493c0.598,-0.86936 1.19599,-1.73873 1.79399,-2.60809c0.74633,-1.085 1.6534,-2.97014 2.74272,-4.22469c0.15587,-0.45636 0.30723,-0.90714 0.45242,-1.35146l0.22296,-0.07421l-0.04703,-0.08001l1.06846,-0.62814c0.09488,-0.05809 0.20646,-0.09157 0.32587,-0.09157c0.34518,0 0.625,0.27982 0.625,0.625c0,0.13438 -0.04241,0.25886 -0.11458,0.36078l-0.70389,1.02331l-0.1068,-0.07347c-0.20894,0.40978 -0.43416,0.81181 -0.67143,1.20794c-0.45287,1.69797 -0.95145,3.38684 -1.46111,5.07223l0.20182,0.29839l-0.04318,0.02921c1.23476,1.42208 1.42048,2.47495 0.27348,4.76895c-0.02676,0.05351 -0.06689,0.13575 -0.11719,0.23842zM407.67601,347.5929c-0.03323,0.04654 -0.06641,0.0931 -0.09953,0.13966c0.02205,-0.0197 0.04551,-0.03785 0.07021,-0.0543c0.00977,-0.02846 0.01954,-0.05692 0.02932,-0.08536zM406.99775,348.55827c-0.62595,0.91 -1.25189,1.81999 -1.87784,2.72999c0.07153,0.65068 0.13273,1.30494 0.18735,1.96024c0.16312,0.11784 0.33287,0.23632 0.50995,0.35592c0.37195,-1.43512 0.81388,-2.87787 1.28428,-4.30711c0.0014,-0.00616 0.00281,-0.01232 0.00421,-0.01848l0.27481,-1.20663c0.00792,-0.03848 0.01937,-0.07567 0.03401,-0.11122c-0.14034,0.19867 -0.27947,0.39768 -0.41677,0.59728zM404.36107,358.41598c-1.45015,0.14452 -2.90257,0.25504 -4.35842,0.31173c-0.36034,0.52386 -0.72068,1.04772 -1.08102,1.57158c0.80154,0.16651 1.60307,0.33302 2.40461,0.49952c0.74675,-0.55353 1.48398,-1.09243 2.21145,-1.57669l0.8484,-0.56476c-0.00834,-0.08046 -0.01668,-0.16092 -0.02502,-0.24138zM388.15978,366.63054c-0.20526,-1.60025 -0.41052,-3.20049 -0.61578,-4.80074l-0.8185,0.24993c-0.06177,0.02044 -0.12782,0.0315 -0.19644,0.0315c-0.15406,0 -0.2951,-0.05574 -0.40406,-0.14816c0,0.73453 0,1.46906 0,2.2036c0,0.25397 -0.22373,3.00875 0.06697,3.13576c0.25636,0.11201 0.50054,-0.25003 0.75081,-0.37504c0.39508,-0.10501 0.8021,-0.20279 1.21699,-0.29685zM386.125,357.53555c0.28935,-0.00038 0.57869,-0.00077 0.86804,-0.00115c-0.27455,-2.14045 -0.5491,-4.2809 -0.82365,-6.42135c-0.02616,-0.20397 -0.05149,-0.40879 -0.07606,-0.61437c-0.37096,0.7883 -0.74192,1.57659 -1.11289,2.36489c0.50758,0.45803 1.05298,0.96208 1.09004,1.04782c0.0696,0.161 0.05452,2.46432 0.05452,2.75529c0,0.28963 0,0.57925 0,0.86888zM384.92952,354.42196c-0.09798,-0.23152 -0.22426,-0.44939 -0.37359,-0.65629c-0.04511,0.09586 -0.09022,0.19173 -0.13534,0.28759c-0.4984,1.05911 -1.08112,2.03012 -1.71737,2.95902c0.29654,-0.20597 0.60301,-0.39624 0.92171,-0.56415l1.09528,-0.57706c0.07552,-0.04175 0.16061,-0.06833 0.25114,-0.07561c0.07487,-0.47507 0.13874,-0.94684 -0.04182,-1.37351zM380.24762,360.23771c0.33183,2.78292 0.66366,5.56584 0.9955,8.34877c0.08771,0.73555 0.31144,1.71464 0.4874,2.72811c0.52632,-2.951 1.05264,-5.90199 1.57895,-8.85299c0.19353,-1.0851 0.25773,-2.45779 0.54693,-3.67304c-0.30037,0.0004 -0.60075,0.00079 -0.90112,0.00119l-1.24986,0.00165c-0.00032,0 -0.00065,0 -0.00097,0c-0.09398,0 -0.18312,-0.02074 -0.26308,-0.0579c-0.38896,0.50281 -0.7887,1.00149 -1.19375,1.50422zM397.69823,358.77024c-0.4576,0.1548 -0.91777,0.31313 -1.38004,0.47234c0.19007,0.40415 0.47616,0.66869 0.90043,0.70294c0.12518,0.026 0.25035,0.05201 0.37553,0.07801c0.28816,-0.41892 0.57632,-0.83784 0.86447,-1.25677c-0.16773,0.00186 -0.33552,0.00292 -0.50335,0.00314c-0.08568,0.00011 -0.17136,0.00023 -0.25704,0.00034zM411.06811,358.31876c-0.08121,-0.23663 -0.15931,-0.47334 -0.23365,-0.70999c-1.07996,0.15074 -2.16022,0.29899 -3.24125,0.43651c-0.39669,0.38355 -0.79338,0.7671 -1.19007,1.15066l-0.35142,0.33978c-0.00015,0.00066 -0.0003,0.00132 -0.00045,0.00199c1.09731,-0.27821 2.21873,-0.48056 3.40413,-0.78584c0.53853,-0.13869 1.07605,-0.28347 1.61272,-0.4331zM414.27893,361.34812c-0.10255,0.20996 -0.20767,0.43221 -0.31587,0.66199c0.04677,0.13548 0.09357,0.27091 0.14042,0.40625c0.85585,-0.23497 1.72778,-0.45913 2.60887,-0.71049c0.14664,-0.10423 0.29323,-0.20853 0.43978,-0.31291c-0.83341,-0.0238 -1.66934,-0.03853 -2.50876,-0.04293c-0.12148,-0.00064 -0.24296,-0.00127 -0.36444,-0.00191zM436.68783,363.18215c-0.06088,0.43148 -0.1576,0.85232 -0.30896,1.25793c0.63652,-0.37712 1.33541,-0.7098 1.86435,-1.29275l0.00073,-0.00079l0.00751,-0.07392c-0.48287,0.09228 -1.01106,0.12187 -1.56362,0.10952zM409.96415,363.86991c-1.28811,-0.26759 -2.57622,-0.53517 -3.86433,-0.80276c0.06662,0.6428 0.13324,1.28559 0.19986,1.92839c0.06792,0.65531 -0.73825,1.72373 -0.12812,1.97231c0.61013,0.24858 0.78016,-1.07901 1.2867,-1.50027c0.79439,-0.66064 1.63289,-1.17559 2.50588,-1.59766zM388.25307,357.53273c0.18627,-0.00025 0.37254,-0.00049 0.55882,-0.00074c0.30558,-0.39302 0.61116,-0.78604 0.91675,-1.17906c-0.05619,-3.1826 -0.26309,-6.56372 0.43836,-9.56996c0.24172,-1.02275 0.48344,-2.0455 0.72516,-3.06826c-1.23706,1.73715 -2.47412,3.47429 -3.71117,5.21144c0.06869,0.68986 0.14348,1.36696 0.22826,2.02786c0.28128,2.19291 0.56256,4.38581 0.84383,6.57872zM389.14587,344.01204c0.83619,-1.17423 1.67238,-2.34845 2.50857,-3.52268c0.2648,-1.12042 0.5296,-2.24084 0.79441,-3.36126c-0.22293,0.39812 -0.42454,0.76726 -0.57681,1.09083c-0.90872,1.93104 -1.81745,3.86207 -2.72617,5.79311zM396.18315,364.28047c1.29025,-0.68636 2.55639,-1.57306 3.79737,-2.48452c-0.60909,-0.12653 -1.21818,-0.25306 -1.82727,-0.37959c-0.12161,0.17679 -0.24321,0.35358 -0.36482,0.53037c-0.53509,0.77791 -1.07019,1.55583 -1.60528,2.33374zM411.16679,354.59006c0.2373,0.5289 0.46387,1.06358 0.68216,1.60255c0.72257,-0.09965 1.44547,-0.19815 2.16901,-0.29274c0.67295,-0.08797 1.34857,-0.19271 2.02561,-0.29748c2.02923,-3.60972 4.05846,-7.21945 6.08769,-10.82917c0.23232,-0.41327 0.46464,-0.82653 0.69696,-1.2398c-0.75912,0.65651 -1.52684,1.25773 -2.04684,1.7605c-3.20486,3.09871 -6.40973,6.19743 -9.61459,9.29614zM414.3077,358.69026c-0.45303,0.13805 -0.90659,0.27356 -1.36075,0.40551c0.11871,0.33191 0.23597,0.66442 0.35233,0.99721c0.06759,0.00035 0.13518,0.00071 0.20277,0.00106c0.22571,-0.38463 0.44905,-0.76942 0.66617,-1.15563c0.0465,-0.08271 0.093,-0.16543 0.13949,-0.24814zM421.3032,359.95189c0.42326,-0.29393 0.8316,-0.59758 1.23384,-0.8947c-0.17382,0.12616 -0.34764,0.25232 -0.52146,0.37848c-0.23736,0.17227 -0.47482,0.34435 -0.71239,0.51622zM407.78437,369.04937c0.64785,-0.67024 1.35762,-1.2851 2.0943,-1.87393c-0.04997,-0.08983 -0.07843,-0.19327 -0.07843,-0.30336c0,-0.1153 0.03122,-0.22331 0.08567,-0.31603l0.60705,-1.07987l0.11179,0.06284c0.10046,-0.24988 0.20667,-0.49763 0.31776,-0.74355c-0.93631,0.41828 -1.83033,0.93905 -2.66498,1.63318c-0.38384,0.31921 -2.13143,1.87044 -2.55761,1.6968c-0.51156,-0.20843 -0.70282,-2.03548 -0.79589,-3.5505c-0.06269,0.27524 -0.12537,0.55049 -0.18806,0.82573c-0.20904,0.91784 -0.38819,1.85247 -0.58027,2.78412l0.11551,0.72777c0.2011,1.2671 0.08778,4.86152 0.98561,3.90384c0.47505,-0.24785 0.9501,-0.49571 1.42515,-0.74356c1.74235,-1.38498 3.4845,-2.7702 5.22674,-4.15531c-1.25098,0.7699 -2.47261,1.54064 -3.63729,2.32415l-1.0302,0.69304c-0.10098,0.07005 -0.22361,0.1111 -0.35582,0.1111c-0.34518,0 -0.625,-0.27982 -0.625,-0.625c0,-0.20162 0.09547,-0.38094 0.24367,-0.49523l0.97792,-0.76858l0.05614,0.07143c0.07689,-0.05173 0.18934,-0.12737 0.26623,-0.1791zM375.23665,365.69904c-0.18409,0.25852 -0.36819,0.51703 -0.55228,0.77555c-0.52815,0.74166 -1.8274,1.98333 -2.07899,2.84746c-0.61861,2.12475 0.63434,5.13055 1.27046,7.88553c0.61753,-3.10845 1.34281,-6.32472 1.40527,-9.36917c0.01445,-0.70453 -0.00295,-1.4187 -0.04446,-2.13936zM392.81463,341.01507c-0.47705,2.01847 -0.9541,4.03694 -1.43115,6.05541c-0.59848,2.49674 -0.72489,5.25758 -0.6975,8.05117c1.35659,-1.74475 2.71318,-3.4895 4.06976,-5.23425c-0.03128,-2.34852 -0.06217,-4.69704 -0.09378,-7.04555c-0.01644,-1.22122 -0.30271,-2.89095 -0.1119,-4.26377c-0.09611,0.13496 -0.19222,0.26993 -0.28833,0.40489c-0.48237,0.67737 -0.96474,1.35474 -1.44711,2.0321zM407.69896,356.20429c-0.12098,-0.04316 -0.27403,-0.11648 -0.44423,-0.20799c-0.12476,0.04287 -0.25014,0.08494 -0.37604,0.12628c-0.06457,0.25826 -0.13431,0.51569 -0.21203,0.76668c0.12397,-0.01531 0.24793,-0.03079 0.37188,-0.04641c0.09767,-0.09443 0.19534,-0.18887 0.293,-0.2833c0.12247,-0.11842 0.24495,-0.23684 0.36742,-0.35525zM407.27103,354.41952c0.2761,-0.0718 0.55239,-0.14188 0.82886,-0.21008c0.05598,-0.37194 0.07502,-0.79014 0.22305,-1.08621c0.32589,-0.65179 1.05675,-1.18693 1.05339,-1.91564c-0.00176,-0.38311 -0.41163,-0.82498 -0.76571,-1.31097c-0.39617,1.30024 -0.79359,2.59926 -1.17632,3.89965c-0.05712,0.19407 -0.11075,0.40338 -0.16327,0.62325zM396.83278,361.1304c-0.97873,-0.30515 -1.47309,-0.81183 -1.7233,-1.47282c-0.91164,0.31082 -1.82975,0.61618 -2.75079,0.8962c-0.12652,0.24263 -0.24365,0.48526 -0.35026,0.72775c-0.61387,1.39629 -0.86757,2.91439 -1.05572,4.46071c0.00529,0.09343 0.01081,0.18804 0.01642,0.28365c1.04446,-0.23048 2.08265,-0.48498 3.05629,-0.81417c0.91104,-1.32447 1.82208,-2.64893 2.73313,-3.9734c0.02474,-0.03597 0.04949,-0.07195 0.07423,-0.10792zM378.48621,358.98091c0.1007,-0.14141 0.2014,-0.28282 0.30211,-0.42424c-0.26509,-2.22322 -0.53019,-4.44643 -0.79528,-6.66965c-0.10871,0.59059 -0.21743,1.18119 -0.32614,1.77178c-0.02029,0.11023 -0.04018,0.22067 -0.05974,0.33129c0.01925,0.1347 0.0385,0.26939 0.05775,0.40409c0.18376,1.28588 0.6856,3.01695 0.82131,4.58673zM383.6751,351.6944c0.46589,-0.65422 0.93177,-1.30845 1.39766,-1.96267c0.25536,-0.54263 0.51071,-1.08527 0.76607,-1.6279c-0.49318,-5.16226 -0.73898,-10.64357 -2.03879,-15.50653c-0.31794,-1.18951 -1.1945,-2.39111 -1.591,-3.61388c-0.53345,2.89797 -1.06689,5.79594 -1.60034,8.6939c-0.59438,3.229 -1.18876,6.458 -1.78314,9.687l0.62948,0.5625l-0.07376,0.08254c1.52765,1.0988 2.8881,2.4088 4.2938,3.68505zM396.00963,355.50938c-0.03146,0.63842 -0.059,1.34997 -0.02618,2.01313c0.41147,-0.00054 0.82293,-0.00109 1.2344,-0.00163c0.90132,-0.29476 1.80429,-0.59299 2.709,-0.88862c0.90684,-1.31836 1.81368,-2.63672 2.72052,-3.95508c-0.74527,-0.73796 -1.36994,-1.55053 -2.01949,-2.5923c-0.10739,0.13987 -0.21478,0.27974 -0.32218,0.41961c-1.20492,1.56932 -2.79126,3.25805 -4.29608,5.0049zM426.04327,360.32366c3.22621,0.16693 6.4566,0.46992 9.52803,1.03049c-0.01483,-0.73301 -0.06531,-1.46448 -0.04901,-2.12018c0.01667,-0.67057 0.83561,-1.579 0.30481,-1.98912c-0.208,-0.16071 -0.40513,0.34742 -0.64649,0.45151c-0.7652,0.33002 -1.60177,0.46056 -2.40265,0.69085c-2.24489,0.64549 -4.48979,1.29097 -6.73468,1.93646zM379.86662,357.04246c1.09548,-1.53833 2.19095,-3.07666 3.28643,-4.61499c-1.42718,-1.05281 -3.25612,-1.92846 -4.22597,-3.26453c0.08135,0.68221 0.16269,1.36442 0.24404,2.04663c0.23184,1.9443 0.46367,3.88859 0.69551,5.83289zM387.25034,359.54035c-0.03233,-0.25205 -0.06466,-0.50411 -0.09699,-0.75616c-0.34278,0.00045 -0.68556,0.00091 -1.02835,0.00136c0,0.73404 0,1.46809 0,2.20213c0.14914,-0.19181 0.9762,-1.25552 1.12534,-1.44733zM414.69109,367.28862c-0.77753,0.61804 -1.5551,1.23603 -2.33269,1.85399c0.84803,-0.34723 2.44232,-0.96726 2.5592,-1.20271c0.01795,-0.03616 -0.07936,-0.29726 -0.22651,-0.65128zM415.21058,357.08417c0.01608,-0.0286 0.03216,-0.05721 0.04824,-0.08581c-0.97888,0.12878 -1.95747,0.2648 -2.93611,0.4019c0.0639,0.16783 0.12719,0.33597 0.18993,0.50436c0.90105,-0.26486 1.8001,-0.54031 2.69794,-0.82045zM405.50169,354.89687c-0.02591,-0.0174 -0.05003,-0.0336 -0.07218,-0.04846c0.00172,0.02432 0.00344,0.04863 0.00515,0.07295c0.02191,-0.00626 0.04381,-0.0125 0.06572,-0.01874c0.00044,-0.00192 0.00087,-0.00383 0.00131,-0.00575zM403.8775,353.75028c-0.09944,-0.07733 -0.19653,-0.15462 -0.29146,-0.23208c-0.56948,0.82791 -1.13897,1.65582 -1.70845,2.48373c0.72006,-0.22921 1.44127,-0.45406 2.16368,-0.67153c-0.05459,-0.52671 -0.10918,-1.05341 -0.16377,-1.58012zM391.94896,358.77785c-0.38855,0.00051 -0.77711,0.00103 -1.16566,0.00154c0.00709,0.19497 0.01425,0.38961 0.02138,0.58383c0.30855,-0.07645 0.61615,-0.14781 0.91582,-0.21664c0.07424,-0.123 0.15044,-0.24592 0.22846,-0.36873zM389.72519,358.78079c-0.1004,0.00013 -0.2008,0.00027 -0.3012,0.0004c-0.28922,0.37197 -0.57843,0.74394 -0.86765,1.11591c0.00755,0.05885 0.0151,0.11771 0.02265,0.17656c0.35023,-0.15349 0.72844,-0.28749 1.1193,-0.40766c0.01068,-0.29677 0.01984,-0.59194 0.02691,-0.88521zM390.74005,357.52944c0.68825,-0.00091 1.3765,-0.00182 2.06475,-0.00273c0.62186,-0.85284 1.31061,-1.69814 2.02001,-2.53065c-0.01429,-1.03555 -0.02835,-2.07111 -0.04228,-3.10666c-1.35185,1.73865 -2.70369,3.4773 -4.05554,5.21595c0.00416,0.14143 0.00853,0.28281 0.01305,0.42409zM389.62893,361.28912c-0.29021,0.06622 -0.58036,0.128 -0.87035,0.18472c0.20908,1.63006 0.41817,3.26011 0.62725,4.89017c0.02062,-0.00436 0.04124,-0.00872 0.06187,-0.01308c0.00884,-1.68718 0.1022,-3.39099 0.18123,-5.0618zM402.96928,361.14014c0.05556,0.01154 0.11112,0.02308 0.16669,0.03463c-0.03495,-0.02508 -0.0672,-0.05368 -0.09624,-0.08528c-0.02347,0.01685 -0.04696,0.03374 -0.07045,0.05065zM403.79386,361.31143c0.0014,-0.00607 0.00281,-0.01214 0.00422,-0.0182l-0.09419,-0.00049c0.02999,0.00623 0.05998,0.01246 0.08997,0.01869zM405.96459,361.76237c1.9562,0.40637 3.9124,0.81275 5.86861,1.21912c0.20104,-0.36886 0.40851,-0.73504 0.61919,-1.09962c-0.0747,-0.18104 -0.14953,-0.36256 -0.22417,-0.5445c-2.1037,-0.01102 -4.2074,-0.02203 -6.3111,-0.03305c0.01582,0.15268 0.03165,0.30536 0.04747,0.45804zM375.34929,350.07982c0.13342,2.16164 0.26685,4.32328 0.40027,6.48492c0.12183,-0.47082 0.24209,-0.9201 0.33786,-1.32469c-0.29859,-1.69438 -0.53457,-3.42308 -0.73813,-5.16023zM376.14759,362.26493c0.3918,-0.55018 0.7836,-1.10037 1.17539,-1.65055c-0.19031,-0.64271 -0.36501,-1.29565 -0.52609,-1.9571c-0.17001,0.7979 -0.37212,1.58503 -0.63195,2.35106l0.1442,0.02654l-0.18882,1.02577c0.00919,0.0681 0.01828,0.1362 0.02727,0.20428zM410.48567,356.38133c-0.07827,-0.31126 -0.14803,-0.62198 -0.20775,-0.93185c-0.38595,0.37317 -0.77191,0.74634 -1.15786,1.11951c0.45519,-0.06185 0.91037,-0.12464 1.36561,-0.18766zM394.35325,357.52466c0.16624,-0.00022 0.33248,-0.00044 0.49872,-0.00066c-0.00117,-0.20384 -0.00095,-0.4134 -0.00212,-0.62813c-0.16861,0.20905 -0.33439,0.41868 -0.4966,0.62879zM412.6452,364.57003c0.0527,-0.03677 0.10539,-0.07354 0.15807,-0.11033c-0.02687,-0.00558 -0.05374,-0.01116 -0.08061,-0.01674c-0.02565,0.04269 -0.05147,0.08505 -0.07747,0.12707zM403.17893,346.76233c-0.5743,0.74799 -1.1486,1.49597 -1.72291,2.24396c0.62052,1.00185 1.21033,1.82637 1.93523,2.58944c0.07568,-0.11002 0.15135,-0.22003 0.22703,-0.33005c-0.16395,-1.34702 -0.61601,-3.08805 -0.43935,-4.50335zM391.03454,367.28272c0.03129,0.8238 0.02848,1.65952 -0.08561,2.40159c0.652,-0.94787 1.304,-1.89575 1.956,-2.84362c-0.61564,0.16089 -1.24297,0.30478 -1.87039,0.44203zM402.6065,357.31446c0.54211,-0.04416 1.08371,-0.09429 1.62494,-0.14923c-0.00917,-0.0885 -0.01834,-0.177 -0.02752,-0.2655c-0.53412,0.14141 -1.06835,0.27812 -1.59742,0.41473zM411.49787,359.50291c-0.753,0.20375 -1.50783,0.39486 -2.26478,0.56877c0.83002,0.00435 1.66003,0.00869 2.49005,0.01304c-0.07621,-0.19367 -0.15142,-0.38763 -0.22527,-0.58181z" fill-opacity="0.50196" fill="#ff0000" stroke="none" stroke-width="0.5"/></g></g></svg>