<svg version="1.1" xmlns="http://www.w3.org/2000/svg" xmlns:xlink="http://www.w3.org/1999/xlink" width="777.77778" height="427.74842" viewBox="0,0,777.77778,427.74842"><defs><radialGradient cx="355.60208" cy="172.21438" r="371.94719" gradientUnits="userSpaceOnUse" id="color-1"><stop offset="0" stop-color="#000000" stop-opacity="0.83922"/><stop offset="1" stop-color="#000000" stop-opacity="0"/></radialGradient><radialGradient cx="355.60208" cy="172.21438" r="371.9472" gradientUnits="userSpaceOnUse" id="color-2"><stop offset="0" stop-color="#000000" stop-opacity="0"/><stop offset="1" stop-color="#000000"/></radialGradient><linearGradient x1="-26.49166" y1="181.14646" x2="138.47964" y2="181.14646" gradientUnits="userSpaceOnUse" id="color-3"><stop offset="0" stop-color="#000000"/><stop offset="1" stop-color="#000000" stop-opacity="0"/></linearGradient><linearGradient x1="748.88889" y1="177.63219" x2="583.9176" y2="177.63219" gradientUnits="userSpaceOnUse" id="color-4"><stop offset="0" stop-color="#000000"/><stop offset="1" stop-color="#000000" stop-opacity="0"/></linearGradient><linearGradient x1="360.26181" y1="-33.61388" x2="360.26181" y2="104.67877" gradientUnits="userSpaceOnUse" id="color-5"><stop offset="0" stop-color="#000000"/><stop offset="1" stop-color="#000000" stop-opacity="0"/></linearGradient><linearGradient x1="359.22991" y1="393.87422" x2="359.22991" y2="255.58157" gradientUnits="userSpaceOnUse" id="color-6"><stop offset="0" stop-color="#000000"/><stop offset="1" stop-color="#000000" stop-opacity="0"/></linearGradient></defs><g transform="translate(28.88889,33.87421)"><g stroke-miterlimit="10"><path d="M-13,244.62592v-252.00001h746v252.00001c0,0 -235.24176,0 -356.75,0c-126.92233,0 -389.25,0 -389.25,0z" fill="#000000" stroke="#000000" stroke-width="0" stroke-linecap="butt"/><g stroke="none" stroke-width="0" stroke-linecap="butt"><path d="M434.71672,71.43275l19.41738,-52.62608l52.62608,19.41738l-15.98265,43.31708c-0.15946,-0.02976 -0.32604,-0.06826 -0.50263,-0.11703c-1.54975,-0.42802 -2.33722,-1.70233 -3.29468,-2.90259c-1.04796,-1.31603 -1.7756,-2.2425 -1.15032,-3.95299c0.45022,-1.30765 -1.91037,-2.67874 -2.63551,-3.5882c-0.22159,-0.27791 -0.67238,-0.66309 -0.78783,-0.99719c-0.06688,-0.19356 0.07799,-0.47855 -0.01885,-0.66764c-0.31412,-0.61337 -0.87076,-0.05152 -1.27008,-0.2176c-0.24084,-0.10016 -0.59994,-0.77364 -0.77202,-0.98935c-0.9097,-1.13959 -1.69086,-2.25388 -3.12444,-2.62949l0.00563,-0.013l-0.19791,-0.08561c-0.03616,-0.0165 -0.08007,-0.01255 -0.11327,0.01393c-0.04473,0.03569 -0.0539,0.09942 -0.02242,0.14603l0.11928,0.18103c0.41209,0.62539 0.27879,1.03355 0.18596,1.77023c-0.10337,0.82036 -1.04762,0.83491 -1.38984,1.50344c-0.37653,0.73557 0.0679,1.73522 0.36699,2.39081c0.2712,0.59445 0.53684,1.19129 0.80253,1.78822c0.05145,0.11562 0.37238,0.62633 0.34809,0.72624c-0.05969,0.2455 -1.08597,0.85611 -1.30933,1.05555c-0.36359,0.32466 -1.10262,0.76239 -1.32452,1.19232c-0.34697,0.67226 1.05782,1.92296 1.45809,2.42471c0.9511,1.19224 1.89631,2.38602 2.81651,3.60232c0.05877,0.07767 0.51192,0.55778 0.50465,0.61578c-0.00727,0.058 -0.56496,0.41133 -0.64109,0.47209c-0.73822,0.58918 -1.47382,1.18143 -2.20792,1.77573c-0.33221,0.26894 -1.06497,0.76429 -1.52828,1.29194z" fill="#9f7d3f"/><path d="M445.00865,66.68866l13.86955,-37.59006l37.59006,13.86955l-11.10652,30.10153c-0.64808,-0.79005 -1.71955,-1.52773 -2.16735,-2.08935c-0.22159,-0.27791 -0.67238,-0.66309 -0.78783,-0.99719c-0.06688,-0.19356 0.07799,-0.47855 -0.01885,-0.66764c-0.31412,-0.61337 -0.87076,-0.05152 -1.27008,-0.2176c-0.24084,-0.10016 -0.59994,-0.77364 -0.77202,-0.98935c-0.9097,-1.13959 -1.69086,-2.25388 -3.12444,-2.62949l0.00563,-0.013l-0.19791,-0.08561c-0.03616,-0.0165 -0.08007,-0.01255 -0.11327,0.01393c-0.04473,0.03569 -0.0539,0.09942 -0.02242,0.14603l0.11928,0.18103c0.41209,0.62539 0.27879,1.03355 0.18596,1.77023c-0.10337,0.82036 -1.04762,0.83491 -1.38984,1.50344c-0.37653,0.73557 0.0679,1.73522 0.36699,2.39081c0.2712,0.59445 0.53684,1.19129 0.80253,1.78822c0.05145,0.11562 0.37238,0.62633 0.34809,0.72624c-0.05969,0.2455 -1.08597,0.85611 -1.30933,1.05555c-0.36359,0.32466 -1.10262,0.76239 -1.32452,1.19232c-0.24677,0.47811 0.39251,1.24878 0.92633,1.83455z" fill="#6b552b"/><path d="M453.16374,37.97207l0.79255,-2.148l41.88607,15.45464l-0.79255,2.148z" fill="#9f7d3f"/><path d="M449.39914,48.17508l0.79255,-2.148l41.88606,15.45465l-0.79255,2.148z" fill="#9f7d3f"/><path d="M446.09826,59.1593l0.79255,-2.148l29.99745,11.06812c-0.33577,0.30886 -0.84693,0.46105 -1.07967,0.9157c-0.16821,0.32861 -0.17258,0.70994 -0.09925,1.08974z" fill="#9f7d3f"/><path d="M488.77687,72.46594l-0.79255,2.148l-2.17464,-0.80237c-0.37622,-1.06047 -2.02946,-2.0965 -2.61529,-2.83124c-0.18673,-0.23419 -0.53624,-0.54457 -0.71066,-0.83635z" fill="#9f7d3f"/></g><g stroke="none" stroke-width="0" stroke-linecap="butt"><path d="M286.6233,70.53881l47.99783,-29.03011l29.03011,47.99783l-39.50752,23.89499c-0.10609,-0.12271 -0.21231,-0.25669 -0.31994,-0.40494c-0.94456,-1.30105 -0.76545,-2.78829 -0.76542,-4.32366c0.00149,-1.68231 0.01043,-2.86032 1.56593,-3.80752c1.16742,-0.74146 0.17714,-3.28539 0.17744,-4.44855c0.00009,-0.35543 -0.1121,-0.93767 0.00601,-1.27084c0.06842,-0.19302 0.3594,-0.32546 0.40162,-0.53367c0.13696,-0.67538 -0.64857,-0.58329 -0.85716,-0.96215c-0.12581,-0.22849 0.01348,-0.97891 0.01348,-1.25485c-0.00047,-1.45816 0.08378,-2.81637 -0.80265,-4.00401l0.0125,-0.00665l-0.10132,-0.19035c-0.01797,-0.03545 -0.05477,-0.05975 -0.09724,-0.05975c-0.05722,0 -0.10413,0.04411 -0.1086,0.10018l-0.01965,0.2159c-0.06787,0.74587 -0.4266,0.98181 -0.95858,1.49981c-0.5924,0.57684 -1.33962,-0.00065 -2.02406,0.30855c-0.75306,0.3402 -1.02904,1.39881 -1.20407,2.09782c-0.15871,0.63383 -0.32325,1.26605 -0.48782,1.89837c-0.03188,0.12247 -0.09949,0.72183 -0.18079,0.78479c-0.19976,0.1547 -1.38282,-0.008 -1.6818,0.00862c-0.48669,0.02705 -1.33739,-0.09163 -1.77897,0.10607c-0.69048,0.30915 -0.37227,2.1629 -0.37227,2.80476c0,1.52514 -0.00558,3.04779 -0.04475,4.57246c-0.0025,0.09737 0.05233,0.75528 0.01048,0.79608c-0.04185,0.0408 -0.69815,-0.03077 -0.79556,-0.03074c-0.94452,0.0002 -1.88889,0.00445 -2.83338,0.01122c-0.42741,0.00307 -1.30914,-0.06667 -2.00037,0.05688z" fill="#9f7d3f"/><path d="M297.62728,73.24849l34.28416,-20.7358l20.7358,34.28417l-27.45421,16.6049c-0.01392,-1.02176 -0.3915,-2.26661 -0.39132,-2.9849c0.00009,-0.35543 -0.1121,-0.93767 0.00601,-1.27084c0.06842,-0.19302 0.3594,-0.32546 0.40162,-0.53367c0.13696,-0.67538 -0.64857,-0.58329 -0.85716,-0.96215c-0.12581,-0.22849 0.01348,-0.97891 0.01348,-1.25485c-0.00047,-1.45816 0.08378,-2.81637 -0.80265,-4.00401l0.0125,-0.00665l-0.10132,-0.19035c-0.01797,-0.03545 -0.05477,-0.05975 -0.09724,-0.05975c-0.05722,0 -0.10413,0.04411 -0.1086,0.10018l-0.01965,0.2159c-0.06787,0.74587 -0.4266,0.98181 -0.95858,1.49981c-0.5924,0.57684 -1.33962,-0.00065 -2.02406,0.30855c-0.75306,0.3402 -1.02904,1.39881 -1.20407,2.09782c-0.15871,0.63383 -0.32325,1.26605 -0.48782,1.89837c-0.03188,0.12247 -0.09949,0.72183 -0.18079,0.78479c-0.19976,0.1547 -1.38282,-0.008 -1.6818,0.00862c-0.48669,0.02705 -1.33739,-0.09163 -1.77897,0.10607c-0.49106,0.21986 -0.47194,1.22099 -0.41993,2.0118z" fill="#6b552b"/><path d="M321.91062,55.88566l1.95909,-1.1849l23.1056,38.20235l-1.95909,1.1849z" fill="#9f7d3f"/><path d="M312.60492,61.51394l1.95909,-1.1849l23.10559,38.20235l-1.95909,1.1849z" fill="#9f7d3f"/><path d="M303.17454,68.04209l1.95909,-1.1849l16.54748,27.3593c-0.4551,0.03205 -0.94959,-0.16775 -1.41505,0.04252c-0.33643,0.15198 -0.57764,0.44735 -0.75717,0.78998z" fill="#9f7d3f"/><path d="M328.23922,105.05954l-1.95909,1.1849l-1.19959,-1.98339c0.36723,-1.06361 -0.27907,-2.90451 -0.27882,-3.84421c0.00007,-0.29953 -0.07959,-0.76011 -0.03397,-1.09698z" fill="#9f7d3f"/></g><path d="M512.1247,241.92243l-73.97775,-2.76303l2.69067,-167.03499c0.27284,0.01429 0.52883,0.01693 0.76318,0.00292c3.49502,-0.20905 6.98895,-0.37527 10.48552,-0.51102c3.79851,0.10305 6.74553,-0.86558 10.24791,-3.09616c3.22,-2.05074 6.5489,-3.61885 9.85628,-5.31286c3.45116,-0.81316 6.89753,-1.67891 10.35174,-2.46129c3.46061,-0.78385 6.94954,-1.43236 10.38872,-2.41022c3.41643,-0.97139 6.85951,-2.24016 10.314,-2.81704c3.50828,-0.58586 7.01565,-0.82839 10.38907,-2.43272c0.51534,-0.24509 1.02774,-0.40815 1.54085,-0.51727z" fill="#313131" stroke="none" stroke-width="0" stroke-linecap="butt"/><path d="M285.34308,132.05004c0,0 -32.15236,-23.8718 -20.07638,-32.76197c3.19335,-2.3509 10.21469,-6.57177 19.85055,-11.64111c0.06067,0.49228 0.12855,0.98646 0.19139,1.48364c1.07448,1.24252 3.79429,3.23483 3.81145,5.04857c0.00871,0.92066 -1.11878,2.69908 -1.42549,3.64685c-1.04309,3.22336 4.92335,5.81449 2.6456,8.86089c-1.20043,1.60553 -0.82398,4.95828 0.94699,6.21682c0.85542,0.6079 2.80654,0.82365 3.83895,1.02948c0.09026,0.28164 0.72816,1.39221 0.66546,1.60001c-0.03112,0.10314 -0.96487,0.69883 -1.10042,0.852c-1.53403,1.73348 -4.19108,3.50707 -2.75447,5.96791c0.98127,1.68087 2.19279,3.3889 2.9103,5.19852c0.04637,0.11694 0.16057,0.396 0.26223,0.70628z" fill="#3d3d3d" stroke="none" stroke-width="0" stroke-linecap="butt"/><path d="M318.24142,35.66741c0.25079,0.55045 0.48492,1.11065 0.69349,1.68515c1.19443,3.28988 2.38886,6.57977 3.58329,9.86965c0.17566,0.48384 0.35132,0.96768 0.52699,1.45152c-0.02195,0.00174 -0.04403,0.00643 -0.06573,0.01431c-0.12948,0.04701 -0.19648,0.18984 -0.15001,0.3194c0.00002,0.00004 0.00002,0.00008 0.00004,0.00012l0.16875,0.47053c0.11203,0.31235 0.22127,0.62571 0.32768,0.94001c0.77342,2.28431 3.65288,7.59151 2.62001,9.70698c-0.31959,0.65456 -0.71569,2.15543 -1.25401,2.61547c-1.11464,0.95256 -5.77912,-0.61812 -7.15965,-0.85291c-1.77276,-0.30151 -3.25037,0.09455 -4.99954,0.45333c-0.2851,0.05848 -1.49762,0.17462 -1.63732,0.42419c-0.32169,0.57469 1.11329,3.32782 1.34242,3.96815c1.27689,3.56831 2.12481,6.31429 -0.71477,9.31176c-2.53448,2.07816 -5.19548,5.05376 -8.27886,6.17332c-3.27854,1.19043 -6.68153,2.23485 -9.84028,3.7177c-0.27543,0.12929 -1.38095,0.499 -1.48543,0.77529c-0.19294,0.51019 0.74791,1.59338 1.01522,1.96265c1.30163,1.79818 3.06902,3.65132 3.82697,5.73898c1.19443,3.28988 2.38886,6.57976 3.58329,9.86965c0.5407,1.48928 1.08139,2.97855 1.62209,4.46783l-174.39964,-41.87704c0.87217,-0.46071 1.82194,-1.02853 2.24156,-1.58995c1.02783,-1.37516 0.42673,-5.05774 0.17838,-6.62756c-0.55228,-3.49094 -0.63816,-6.79821 -0.7718,-10.31932c0.54694,-0.59885 1.15477,-1.74746 1.83487,-2.16088c1.76434,-1.07252 5.20198,-1.1758 7.23731,-1.64098c3.23684,-0.7398 5.74907,-4.34878 8.05261,-6.65035c2.40455,-2.40248 2.80187,-6.46303 4.99613,-9.14471c1.05989,-1.29534 2.3467,-3.69915 3.74086,-4.59136c1.1519,-0.73718 3.03043,-0.59958 4.2963,-1.20564c1.58022,-0.76097 4.17749,-1.49718 5.44282,-2.70255c0.95756,-0.91218 1.59887,-2.82917 2.24884,-3.9889c1.74038,-3.45575 3.57744,-5.35724 6.48299,-7.89952c2.67909,-2.34414 5.68854,-3.79716 8.86327,-5.39224c0.33976,-0.1707 0.66364,-0.36109 0.97513,-0.56708z" fill="#313131" stroke="none" stroke-width="0" stroke-linecap="butt"/><path d="M442.33107,118.34585c-0.24072,0.51838 -0.44707,1.05753 -0.60224,1.63403c-0.90975,3.37998 -2.64454,6.39845 -4.18542,9.53672c-1.53725,3.13087 -2.68418,6.49548 -3.98142,9.73345c-1.29883,3.24195 -2.80685,6.41006 -4.22452,9.60191c-1.42362,3.20527 -2.80658,6.42975 -4.20017,9.6482c-0.8514,3.41 -1.76326,6.80232 -2.35628,10.26718c-0.63,3.68095 -1.6486,6.44091 -3.70623,9.55947c-1.80252,3.00437 -3.58546,6.018 -5.34574,9.04731c-0.11454,0.19712 -0.24623,0.40368 -0.39093,0.61814l-76.58452,-50.60626c-0.02692,-0.26908 -0.05846,-0.53833 -0.09541,-0.80788c-0.48219,-3.51778 -0.74495,-6.86407 -0.74583,-10.41516c-0.00088,-3.58906 -0.9987,-6.84956 -0.99869,-10.35796c0.00001,-2.41349 -1.01715,-8.36132 0.84512,-9.95327c0.86966,-0.75498 2.35701,-0.67068 3.18043,-1.42195c1.87449,-1.71025 1.97967,-4.2669 1.96243,-6.59497c-0.01312,-1.77131 -0.20256,-3.26559 -0.63187,-4.98413c-0.14118,-0.56516 -0.63339,-1.7162 -0.37469,-2.29227c0.43556,-0.9699 1.62276,-0.80771 2.43507,-1.0083c0.82685,-0.20666 4.01543,-0.44559 4.51494,-0.97246c0.71516,-0.75433 0.06858,-5.08791 0.0684,-6.17205c-0.00068,-4.04847 -0.72426,-6.41182 -2.42914,-10.06376c-1.04075,-2.22934 -2.22777,-6.66922 -4.25486,-8.42653c0,-0.67464 0,-1.34929 0,-2.02392c0,-3.5 0,-7 0,-10.5c0,-0.49226 -0.01875,-0.98156 -0.05107,-1.46854z" fill="#313131" stroke="none" stroke-width="0" stroke-linecap="butt"/><path d="M441.92308,89.94082c51.87814,22.10099 1.77717,37.91619 1.77717,37.91619l-26.7225,-4.28991c0.06804,-0.10883 0.13638,-0.21753 0.20512,-0.32607c0.06064,-0.03014 0.09744,-0.07722 0.09744,-0.07722l0.15228,-0.19484c2.14652,-2.74638 0.72165,-6.3147 1.87909,-9.56652c-0.13805,-0.99659 -1.26043,-1.61349 -0.85682,-2.47497c0.86355,-1.8432 4.32826,-4.38483 2.88696,-6.7334c-1.82768,-2.75305 -1.84232,-6.84457 -2.24621,-10.04419c-0.14619,-1.15813 -0.7405,-3.74815 0.00133,-4.7715c1.05076,-1.44953 3.20856,-2.15688 3.95928,-3.826c0.27705,-0.63361 0.80572,-1.45821 1.07084,-2.2068c6.1434,1.98191 12.11246,4.17395 17.79601,6.59525z" fill="#3d3d3d" stroke="none" stroke-width="0" stroke-linecap="butt"/><g fill="none" stroke="#424242" stroke-width="4" stroke-linecap="round"><path d=""/><path d=""/><path d=""/><path d=""/><path d=""/><path d=""/><path d=""/><path d=""/><path d=""/><path d=""/><path d=""/><path d=""/><path d=""/><path d=""/><path d=""/><path d=""/><path d=""/><path d=""/><path d=""/><path d=""/><path d=""/><path d=""/><path d=""/><path d=""/><path d=""/><path d=""/><path d=""/><path d=""/><path d=""/><path d=""/><path d=""/><path d=""/><path d=""/><path d=""/><path d=""/><path d=""/></g><path d="M-12.41291,360.00002v-115.3741h746v115.3741z" fill="#323232" stroke="#000000" stroke-width="0" stroke-linecap="butt"/><path d="M0,360.00002v-360l295,116l1,128.5z" fill="#505050" stroke="none" stroke-width="0" stroke-linecap="butt"/><path d="M720,0.00002v360l-295,-116l-1,-128.5z" fill="#505050" stroke="none" stroke-width="0" stroke-linecap="butt"/><g fill="none" stroke="#424242" stroke-width="4" stroke-linecap="round"><path d="M296.95481,243.60373c0,0 -1.2497,-25.98256 0.51125,-51.39175c1.47962,-21.3497 16.86418,-16.16118 18.23354,-22.12747c0.69017,-3.00711 -3.2265,-10.70544 -3.2265,-7.41972c0,5.98444 -12.68585,7.62973 -12.68585,29.15297c0,19.00453 6.18585,39.77321 6.18585,49.59708c0,4.13043 0.77965,2.94906 1.63676,-1.02814c1.39237,-6.46084 -6.90215,-27.09827 -5.47846,-48.09254c1.15387,-17.01535 19.37517,-4.76511 21.55757,-14.89193c1.1951,-5.54541 -2.07582,-7.39267 -2.07582,-3.4863c0,6.38087 -14.30688,-1.53438 -14.53327,18.36051c-0.28671,25.19604 9.99269,50.88954 9.99269,50.88954"/><path d="M317.33189,243.60373c0,0 -10.08913,-25.93698 -8.33039,-51.32369c1.48065,-21.37257 103.70437,7.77707 105.07518,1.80443c0.69017,-3.00709 -17.7265,-13.70542 -17.7265,-10.41972c0,5.85818 -80.16247,-13.79616 -80.16247,7.24533c0,19.43309 10.16247,40.44611 10.16247,50.50471c0,4.13043 0.77965,2.94908 1.63676,-1.02811c1.40018,-6.49706 -8.21667,-21.8842 -6.78001,-42.99976c1.14988,-16.90052 29.19181,-16.92794 31.35913,-26.9847c1.1951,-5.54541 -22.57582,2.60733 -22.57582,6.5137c0,6.42774 1.2249,-11.961 0.99651,8.08391c-0.28548,25.05477 6.46291,58.16612 6.46291,58.16612"/><path d="M338.7278,243.60373c0,0 -6.16232,-17.31455 -4.4482,-42.24047c1.50084,-21.82451 81.79293,38.82133 83.193,32.72124c0.69017,-3.00709 -21.2265,-3.20544 -21.2265,0.08028c0,6.44688 -57.33692,-69.61057 -57.33692,-46.43148c0,17.33587 8.83692,44.71738 8.83692,53.68152c0,4.13043 0.77965,2.94906 1.63676,-1.02814c1.42052,-6.59145 -8.62991,-13.86984 -7.15896,-35.29748c1.1394,-16.59787 63.1101,31.18725 65.23807,21.31302c1.1951,-5.54541 -15.57582,-0.89267 -15.57582,3.0137c0,6.67275 -37.96553,-66.10687 -38.20416,-45.30048c-0.27856,24.2877 5.16358,59.05052 5.16358,59.05052"/><path d="M359.10488,243.60373c0,0 -21.15246,-9.2864 -19.40899,-34.51702c1.48769,-21.52905 73.77295,-1.48591 75.15378,-7.50223c0.69017,-3.00709 2.2735,12.79458 2.2735,16.08028c0,6.61535 -66.67385,-52.75827 -66.67385,-29.02381c0,16.69478 17.67385,44.1229 17.67385,52.77384c0,4.13043 0.77965,2.94908 1.63676,-1.02811c1.36058,-6.31331 -14.4587,-16.63286 -13.0867,-37.12481c1.17002,-17.47513 0.92191,-6.94754 3.16581,-17.35965c1.1951,-5.54541 46.42418,-8.89267 46.42418,-4.9863c0,6.72077 -49.64258,-24.10972 -49.88317,-3.15882c-0.27712,24.13201 22.84258,65.40886 22.84258,65.40886"/></g><g stroke="none" stroke-linecap="butt"><path d="M300.72749,164.56857c0.01783,-0.08584 0.03296,-0.17076 0.04553,-0.25318c0.32604,-2.13646 0.19301,-4.36603 0.19546,-6.52576c0.00413,-3.63941 4.82326,-1.9121 6.61211,-3.57268c0.32564,-0.30229 0.32304,-1.80952 0.36953,-2.2372c-0.74582,-0.82786 -2.36449,-1.8841 -2.81305,-2.8794c-0.78088,-1.73269 0.46639,-4.50459 2.0616,-5.17758c3.97449,-1.67679 -0.19426,-6.81892 2.3312,-9.07119c0.7949,-0.70891 2.67187,-1.67599 3.17352,-2.55197c0.95546,-1.6684 -0.27241,-4.78114 -0.67609,-6.47592c0.22967,-0.4704 0.43886,-0.94111 0.64699,-1.40635c0.76933,0.03596 1.32264,-0.82146 4.67471,0.96676c2.27909,1.21582 5.22317,4.02584 7.91802,5.68061c3.44269,2.11398 6.47862,2.97459 7.20171,3.01926c3.60043,0.22243 6.15039,-2.34677 9.68189,-2.31513c7.86737,0.07049 9.7755,2.16734 17.98181,2.68771c14.34766,0.9098 35.60682,1.11417 53.15333,6.73558c-0.25423,0.7265 -0.77779,1.53368 -1.05163,2.15994c-0.68129,1.61481 -2.93483,2.31251 -3.9106,3.73933c-0.82436,1.20542 -0.25771,3.77627 -0.08795,5.1211c0.41497,3.28746 0.44765,7.42918 2.32571,10.25812c1.36979,1.84056 -2.26174,4.79536 -2.92437,6.2473c-0.5524,1.21041 0.628,1.55517 0.81339,2.63355c-1.24764,3.17367 -0.01332,6.29497 -2.10898,8.97627l0.16322,0.47615c-0.14367,0.22506 -0.2853,0.45099 -0.42594,0.6773z" fill="#3d3d3d" stroke-width="0"/><text transform="translate(319.8023,152.7288) rotate(8.52773) scale(0.43355,0.44156) skewX(0.00043)" font-size="40" xml:space="preserve" fill="#000000" stroke-width="1" font-family="&quot;GovtAgentBB&quot;, Serif" font-weight="normal" text-anchor="start"><tspan x="0" dy="0">Elevator</tspan></text></g><text transform="translate(175.32229,30.41508) rotate(16.42682) scale(0.33018,0.33018)" font-size="40" xml:space="preserve" fill="#000000" stroke="none" stroke-width="1" stroke-linecap="butt" font-family="&quot;GovtAgentBB&quot;, Serif" font-weight="normal" text-anchor="start"><tspan x="0" dy="0">Dilevery</tspan><tspan x="0" dy="46.150000000000006px">MILITARY SECTOR</tspan></text><g stroke-width="0" stroke-linecap="butt"><g stroke="#000000"><path d="M-16.34512,373.95896v-403.48913h743.89439v403.48913z" fill="url(#color-1)"/><path d="M-16.34512,373.95896v-403.48913h743.8944v403.48913z" fill="url(#color-2)"/></g><g stroke="none"><path d="M-26.49166,392.65285v-423.0128h164.97129v423.0128z" fill="url(#color-3)"/><path d="M583.9176,389.13859v-423.0128h164.97129v423.0128z" fill="url(#color-4)"/><path d="M-27.857,104.67877v-138.29264h776.23763v138.29265z" fill="url(#color-5)"/><path d="M747.34873,255.58157v138.29264h-776.23762v-138.29264z" fill="url(#color-6)"/></g></g><path d="M282.91969,103.79681c0.01709,-0.10903 0.05446,-0.19021 0.10234,-0.25055c-0.0322,-0.04409 -0.06262,-0.0893 -0.0911,-0.13562c-0.80471,-1.30889 -0.10018,-3.67873 -0.48644,-5.11375c-0.31739,-1.17915 -1.40257,-2.31602 -1.86357,-3.47504c-0.79229,-1.99193 -0.93624,-3.92316 -1.02468,-6.03409c-0.07855,-1.8751 -0.43789,-4.40805 0.33858,-6.18824c0.63581,-1.4577 2.19375,-2.59018 2.8485,-4.09668c1.14756,-2.64038 1.22914,-4.21733 3.95087,-5.73974l0.86488,-0.48377c0.07398,-0.04324 0.16007,-0.06803 0.25195,-0.06803c0.27614,0 0.5,0.22386 0.5,0.5c0,0.15587 -0.07133,0.29509 -0.18311,0.38678l-0.45691,0.38025c-1.14364,2.67644 -0.75653,5.94139 -0.75691,8.81069c-0.0001,0.7274 -0.4203,3.185 -0.06666,3.75121c1.05861,1.69496 2.00828,3.08223 2.82245,5.12292c0.58187,1.27267 0.19953,2.71983 0.68037,3.90104c0.6114,1.50191 2.8366,1.75877 3.80507,2.93086c1.24736,1.5096 0.758,4.32519 0.75829,6.17408c0.00005,0.31939 0.02847,2.1485 -0.11252,2.31615c-0.68361,0.81288 -3.42036,0.38894 -4.36705,0.38894c-2.32533,-0.02699 -4.82602,-1.06914 -6.69812,-2.50569l-0.39966,-0.00034c0,0 -0.49397,-0.0774 -0.41657,-0.57138z" fill="#000000" stroke="none" stroke-width="0.5" stroke-linecap="butt"/><path d="M265.45977,99.44205c0.0126,-0.08043 0.04018,-0.14033 0.0755,-0.18484c-0.02376,-0.03253 -0.0462,-0.06588 -0.06721,-0.10005c-0.59367,-0.96562 -0.0739,-2.71396 -0.35887,-3.77264c-0.23416,-0.86992 -1.03474,-1.70863 -1.37484,-2.56369c-0.58451,-1.46954 -0.69071,-2.89429 -0.75595,-4.45161c-0.05795,-1.38335 -0.32305,-3.25202 0.24979,-4.56534c0.46907,-1.07541 1.61843,-1.91089 2.10147,-3.0223c0.84661,-1.94793 0.90679,-3.11131 2.91473,-4.23446l0.63806,-0.3569c0.05458,-0.0319 0.11809,-0.05019 0.18587,-0.05019c0.20372,0 0.36887,0.16515 0.36887,0.36887c0,0.11499 -0.05262,0.2177 -0.13509,0.28534l-0.33708,0.28052c-0.84371,1.97453 -0.55812,4.38323 -0.55841,6.50004c-0.00007,0.53663 -0.31007,2.34972 -0.04918,2.76744c0.78098,1.25045 1.4816,2.2739 2.08225,3.77941c0.42927,0.9389 0.1472,2.00654 0.50194,2.87797c0.45105,1.10803 2.09269,1.29752 2.80717,2.16223c0.92023,1.1137 0.55921,3.19089 0.55942,4.55489c0.00004,0.23563 0.02101,1.58504 -0.08301,1.70872c-0.50433,0.59969 -2.52335,0.28693 -3.22177,0.28693c-1.7155,-0.01991 -3.56037,-0.78875 -4.9415,-1.84856l-0.29485,-0.00025c0,0 -0.36443,-0.0571 -0.30733,-0.42153z" fill="#000000" stroke="none" stroke-width="0.5" stroke-linecap="butt"/><path d="M439.88898,88.02454l-0.10236,-0.27651c-1.47257,-0.92858 -2.83279,-2.39298 -3.44563,-3.9954c-0.2419,-0.65519 -1.23459,-2.44092 -0.84669,-3.12174c0.08,-0.14041 1.35315,-0.58811 1.57421,-0.66968c1.27966,-0.47222 3.10323,-1.53033 4.46673,-1.05279c1.05865,0.37077 1.80499,1.84517 3.00066,1.88454c0.94036,0.03096 1.84422,-0.60343 2.87369,-0.52592c1.62036,0.04204 2.82312,0.34482 4.26667,0.64438c0.48222,0.10006 2.07573,-0.81871 2.57912,-1.00464c1.98569,-0.73343 4.34421,-1.29977 5.90431,-2.77514l0.14641,-0.41338c0.03489,-0.10079 0.11302,-0.18573 0.2209,-0.22556c0.19111,-0.07056 0.40324,0.02717 0.4738,0.21829c0.02348,0.06359 0.02832,0.1295 0.0173,0.19175l-0.11382,0.72218c-0.35819,2.27266 -1.42871,2.73206 -2.96286,4.20093c-0.87532,0.83808 -1.26101,2.20567 -2.10739,3.01817c-1.03363,0.99225 -2.87846,1.39078 -4.19626,1.81554c-1.48353,0.47818 -2.85688,0.87201 -4.43791,0.83266c-0.91993,-0.0229 -1.98402,-0.48345 -2.88119,-0.40181c-1.09185,0.09935 -2.55195,1.19248 -3.66343,0.97c-0.03934,-0.00787 -0.0784,-0.01737 -0.11714,-0.0284c-0.02952,0.04855 -0.07616,0.09516 -0.14725,0.13485c-0.32209,0.17978 -0.50188,-0.14231 -0.50188,-0.14231z" fill="#000000" stroke="none" stroke-width="0.5" stroke-linecap="butt"/></g></g></svg>