<svg version="1.1" xmlns="http://www.w3.org/2000/svg" xmlns:xlink="http://www.w3.org/1999/xlink" width="638.66056" height="474.21728" viewBox="0,0,638.66056,474.21728"><g transform="translate(-39.28324,38.54688)"><g stroke-width="0" stroke-miterlimit="10"><path d="M55.65412,184.97608c-4.97576,-4.85294 -16.37088,-20.97551 -16.37088,-20.97551c0,0 16.40226,10.98872 21.37802,15.84166c4.97576,4.85294 7.88852,9.93629 6.50584,11.35396c-1.38269,1.41768 -6.53722,-1.36716 -11.51297,-6.22011z" fill-opacity="0.41176" fill="#003645" stroke="#e6e6e6"/><path d="M154.61136,-17.57136c-4.97576,-4.85294 -16.37089,-20.97552 -16.37089,-20.97552c0,0 16.40226,10.98872 21.37802,15.84166c4.97576,4.85294 7.88853,9.93628 6.50585,11.35396c-1.38269,1.41768 -6.53722,-1.36716 -11.51297,-6.22011z" fill-opacity="0.41176" fill="#003645" stroke="#e6e6e6"/><path d="M255.35179,216.92676c-4.97576,-4.85294 -16.37089,-20.97552 -16.37089,-20.97552c0,0 16.40226,10.98872 21.37802,15.84166c4.97576,4.85294 7.88853,9.93628 6.50584,11.35396c-1.38269,1.41768 -6.53722,-1.36716 -11.51297,-6.22011z" fill-opacity="0.41176" fill="#00a0cc" stroke="#e6e6e6"/><path d="M354.30902,14.37932c-4.97576,-4.85294 -16.37089,-20.97551 -16.37089,-20.97551c0,0 16.40226,10.98872 21.37802,15.84166c4.97576,4.85294 7.88853,9.93628 6.50584,11.35396c-1.38268,1.41768 -6.53722,-1.36716 -11.51297,-6.22011z" fill-opacity="0.41176" fill="#007290" stroke="#e6e6e6"/><path d="M187.08707,131.24171c-4.97576,-4.85294 -16.37088,-20.97551 -16.37088,-20.97551c0,0 16.40226,10.98872 21.37802,15.84166c4.97576,4.85294 7.88852,9.93629 6.50584,11.35396c-1.38268,1.41768 -6.53722,-1.36716 -11.51297,-6.22011z" fill-opacity="0.41176" fill="#007290" stroke="#e6e6e6"/><path d="M399.67852,135.81081c-4.97576,-4.85294 -16.37088,-20.97552 -16.37088,-20.97552c0,0 16.40226,10.98872 21.37802,15.84166c4.97576,4.85294 7.88853,9.93628 6.50585,11.35396c-1.38268,1.41768 -6.53722,-1.36716 -11.51297,-6.22011z" fill-opacity="0.41176" fill="#003645" stroke="#e6e6e6"/><path d="M622.2049,92.47048c-1.44732,1.35162 -6.46631,-1.67068 -11.21024,-6.75048c-4.74392,-5.07981 -15.37443,-21.71646 -15.37443,-21.71646c0,0 15.87172,11.74201 20.61564,16.82182c4.74392,5.07981 7.41635,10.29351 5.96903,11.64513z" fill-opacity="0.41176" fill="#007290" stroke="#e6e6e6"/><path d="M417.55955,187.01297c-1.44732,1.35162 -6.46631,-1.67068 -11.21024,-6.75048c-4.74392,-5.07981 -15.37443,-21.71646 -15.37443,-21.71646c0,0 15.87172,11.74201 20.61564,16.82182c4.74392,5.07981 7.41635,10.29351 5.96903,11.64513z" fill-opacity="0.41176" fill="#007290" stroke="#e6e6e6"/><path d="M649.81836,292.81394c-1.44732,1.35162 -6.46631,-1.67068 -11.21024,-6.75048c-4.74392,-5.07981 -15.37443,-21.71646 -15.37443,-21.71646c0,0 15.87172,11.74201 20.61564,16.82182c4.74392,5.07981 7.41635,10.29351 5.96903,11.64513z" fill-opacity="0.41176" fill="#00a0cc" stroke="#e6e6e6"/><path d="M445.173,387.35641c-1.44732,1.35162 -6.46631,-1.67068 -11.21024,-6.75048c-4.74392,-5.07981 -15.37443,-21.71646 -15.37443,-21.71646c0,0 15.87172,11.74201 20.61564,16.82182c4.74392,5.07981 7.41635,10.29351 5.96903,11.64513z" fill-opacity="0.41176" fill="#00a0cc" stroke="#e6e6e6"/><path d="M565.63352,222.7075c-1.44732,1.35162 -6.46631,-1.67068 -11.21024,-6.75048c-4.74392,-5.07981 -15.37443,-21.71646 -15.37443,-21.71646c0,0 15.87172,11.74201 20.61564,16.82182c4.74392,5.07981 7.41635,10.29351 5.96903,11.64513z" fill-opacity="0.41176" fill="#007290" stroke="#e6e6e6"/><path d="M565.59229,435.34803c-1.44732,1.35162 -6.46631,-1.67068 -11.21024,-6.75048c-4.74392,-5.07981 -15.37443,-21.71646 -15.37443,-21.71646c0,0 15.87172,11.74201 20.61564,16.82182c4.74392,5.07981 7.41635,10.29351 5.96903,11.64513z" fill-opacity="0.41176" fill="#007290" stroke="#e6e6e6"/><path d="M72.35179,285.93454c-4.97576,-4.85294 -16.37089,-20.97552 -16.37089,-20.97552c0,0 16.40226,10.98872 21.37802,15.84166c4.97576,4.85294 7.88853,9.93628 6.50584,11.35396c-1.38269,1.41768 -6.53722,-1.36716 -11.51297,-6.22011z" fill-opacity="0.41176" fill="#00a0cc" stroke="#e6e6e6"/><path d="M666.08707,28.24171c-4.97576,-4.85294 -16.37088,-20.97551 -16.37088,-20.97551c0,0 16.40226,10.98872 21.37802,15.84166c4.97576,4.85294 7.88852,9.93629 6.50584,11.35396c-1.38268,1.41768 -6.53722,-1.36716 -11.51297,-6.22011z" fill-opacity="0.41176" fill="#007290" stroke="#e6e6e6"/><path d="M209.08707,311.24171c-4.97576,-4.85294 -16.37088,-20.97551 -16.37088,-20.97551c0,0 16.40226,10.98872 21.37802,15.84166c4.97576,4.85294 7.88852,9.93629 6.50584,11.35396c-1.38268,1.41768 -6.53722,-1.36716 -11.51297,-6.22011z" fill-opacity="0.41176" fill="#007290" stroke="#e6e6e6"/></g></g></svg>