<svg version="1.1" xmlns="http://www.w3.org/2000/svg" xmlns:xlink="http://www.w3.org/1999/xlink" width="777.77778" height="427.74842" viewBox="0,0,777.77778,427.74842"><defs><linearGradient x1="-26.49167" y1="181.14646" x2="138.47964" y2="181.14646" gradientUnits="userSpaceOnUse" id="color-1"><stop offset="0" stop-color="#000000"/><stop offset="1" stop-color="#000000" stop-opacity="0"/></linearGradient><linearGradient x1="748.88889" y1="177.63219" x2="583.9176" y2="177.63219" gradientUnits="userSpaceOnUse" id="color-2"><stop offset="0" stop-color="#000000"/><stop offset="1" stop-color="#000000" stop-opacity="0"/></linearGradient><linearGradient x1="360.26181" y1="-33.61388" x2="360.26181" y2="104.67877" gradientUnits="userSpaceOnUse" id="color-3"><stop offset="0" stop-color="#000000"/><stop offset="1" stop-color="#000000" stop-opacity="0"/></linearGradient><linearGradient x1="359.22991" y1="393.87422" x2="359.22991" y2="255.58157" gradientUnits="userSpaceOnUse" id="color-4"><stop offset="0" stop-color="#000000"/><stop offset="1" stop-color="#000000" stop-opacity="0"/></linearGradient></defs><g transform="translate(28.88889,33.87421)"><g stroke-miterlimit="10"><path d="M0,153v-160.3741h720v160.3741z" fill="#0c0626" stroke="#000000" stroke-width="0"/><path d="M0,360.00001v-160.3741h720v160.3741z" fill="#0c0626" stroke="#000000" stroke-width="0"/><path d="M155.93393,244.00001v-128h408.13213v128z" fill="#190d4f" stroke="#000000" stroke-width="0"/><path d="M0,360.00001v-360c0,0 103.57855,76.76523 153.74087,96.49007c48.08296,18.9072 141.25913,19.50993 141.25913,19.50993l1,128.5c0,0 -98.32945,-0.67062 -147.59512,18.55298c-49.40063,19.27626 -148.40488,96.94702 -148.40488,96.94702z" fill="#190d4f" stroke="none" stroke-width="0"/><path d="M720,0.00001v360c0,0 -96.65721,-74.04362 -145.48316,-93.24297c-49.4982,-19.4637 -149.51684,-22.75703 -149.51684,-22.75703l-1,-128.5c0,0 123.66866,-12.21981 176.81394,-32.95724c43.63341,-17.02587 119.18606,-82.54276 119.18606,-82.54276z" fill="#190d4f" stroke="none" stroke-width="0"/><path d="M244.25,232v-104h231.5v104z" fill="#1a1a1a" stroke="#424242" stroke-width="2.5"/><path d="M365.375,182.65737c0,-1.38071 1.11929,-2.5 2.5,-2.5c1.38071,0 2.5,1.11929 2.5,2.5c0,1.38071 -1.11929,2.5 -2.5,2.5c-1.38071,0 -2.5,-1.11929 -2.5,-2.5z" fill="#424242" stroke="none" stroke-width="0.5"/><path d="M344.04167,175.36571c0,-1.38071 1.11929,-2.5 2.5,-2.5c1.38071,0 2.5,1.11929 2.5,2.5c0,1.38071 -1.11929,2.5 -2.5,2.5c-1.38071,0 -2.5,-1.11929 -2.5,-2.5z" fill="#424242" stroke="none" stroke-width="0.5"/><path d="M257.04167,141.36571c0,-1.38071 1.11929,-2.5 2.5,-2.5c1.38071,0 2.5,1.11929 2.5,2.5c0,1.38071 -1.11929,2.5 -2.5,2.5c-1.38071,0 -2.5,-1.11929 -2.5,-2.5z" fill="#424242" stroke="none" stroke-width="0.5"/><path d="M277.04167,159.36571c0,-1.38071 1.11929,-2.5 2.5,-2.5c1.38071,0 2.5,1.11929 2.5,2.5c0,1.38071 -1.11929,2.5 -2.5,2.5c-1.38071,0 -2.5,-1.11929 -2.5,-2.5z" fill="#424242" stroke="none" stroke-width="0.5"/><path d="M259.04167,208.69904c0,-1.38071 1.11929,-2.5 2.5,-2.5c1.38071,0 2.5,1.11929 2.5,2.5c0,1.38071 -1.11929,2.5 -2.5,2.5c-1.38071,0 -2.5,-1.11929 -2.5,-2.5z" fill="#424242" stroke="none" stroke-width="0.5"/><path d="M297.375,209.03237c0,-1.38071 1.11929,-2.5 2.5,-2.5c1.38071,0 2.5,1.11929 2.5,2.5c0,1.38071 -1.11929,2.5 -2.5,2.5c-1.38071,0 -2.5,-1.11929 -2.5,-2.5z" fill="#424242" stroke="none" stroke-width="0.5"/><path d="M424.04167,147.36571c0,-1.38071 1.11929,-2.5 2.5,-2.5c1.38071,0 2.5,1.11929 2.5,2.5c0,1.38071 -1.11929,2.5 -2.5,2.5c-1.38071,0 -2.5,-1.11929 -2.5,-2.5z" fill="#424242" stroke="none" stroke-width="0.5"/><path d="M445.04167,146.69904c0,-1.38071 1.11929,-2.5 2.5,-2.5c1.38071,0 2.5,1.11929 2.5,2.5c0,1.38071 -1.11929,2.5 -2.5,2.5c-1.38071,0 -2.5,-1.11929 -2.5,-2.5z" fill="#424242" stroke="none" stroke-width="0.5"/><path d="M416.375,213.03237c0,-1.38071 1.11929,-2.5 2.5,-2.5c1.38071,0 2.5,1.11929 2.5,2.5c0,1.38071 -1.11929,2.5 -2.5,2.5c-1.38071,0 -2.5,-1.11929 -2.5,-2.5z" fill="#424242" stroke="none" stroke-width="0.5"/><path d="M441.375,216.03237c0,-1.38071 1.11929,-2.5 2.5,-2.5c1.38071,0 2.5,1.11929 2.5,2.5c0,1.38071 -1.11929,2.5 -2.5,2.5c-1.38071,0 -2.5,-1.11929 -2.5,-2.5z" fill="#424242" stroke="none" stroke-width="0.5"/><g><path d="M14.875,288.36571v-226l120,64v100z" fill="#1a1a1a" stroke="#424242" stroke-width="2.5"/><path d="M31.375,101.36571c0,-1.38071 1.11929,-2.5 2.5,-2.5c1.38071,0 2.5,1.11929 2.5,2.5c0,1.38071 -1.11929,2.5 -2.5,2.5c-1.38071,0 -2.5,-1.11929 -2.5,-2.5z" fill="#424242" stroke="none" stroke-width="0.5"/><path d="M44.375,124.36571c0,-1.38071 1.11929,-2.5 2.5,-2.5c1.38071,0 2.5,1.11929 2.5,2.5c0,1.38071 -1.11929,2.5 -2.5,2.5c-1.38071,0 -2.5,-1.11929 -2.5,-2.5z" fill="#424242" stroke="none" stroke-width="0.5"/><path d="M101.375,136.36571c0,-1.38071 1.11929,-2.5 2.5,-2.5c1.38071,0 2.5,1.11929 2.5,2.5c0,1.38071 -1.11929,2.5 -2.5,2.5c-1.38071,0 -2.5,-1.11929 -2.5,-2.5z" fill="#424242" stroke="none" stroke-width="0.5"/><path d="M117.375,140.36571c0,-1.38071 1.11929,-2.5 2.5,-2.5c1.38071,0 2.5,1.11929 2.5,2.5c0,1.38071 -1.11929,2.5 -2.5,2.5c-1.38071,0 -2.5,-1.11929 -2.5,-2.5z" fill="#424242" stroke="none" stroke-width="0.5"/><path d="M104.375,210.36571c0,-1.38071 1.11929,-2.5 2.5,-2.5c1.38071,0 2.5,1.11929 2.5,2.5c0,1.38071 -1.11929,2.5 -2.5,2.5c-1.38071,0 -2.5,-1.11929 -2.5,-2.5z" fill="#424242" stroke="none" stroke-width="0.5"/><path d="M117.375,206.36571c0,-1.38071 1.11929,-2.5 2.5,-2.5c1.38071,0 2.5,1.11929 2.5,2.5c0,1.38071 -1.11929,2.5 -2.5,2.5c-1.38071,0 -2.5,-1.11929 -2.5,-2.5z" fill="#424242" stroke="none" stroke-width="0.5"/><path d="M69.375,168.36571c0,-1.38071 1.11929,-2.5 2.5,-2.5c1.38071,0 2.5,1.11929 2.5,2.5c0,1.38071 -1.11929,2.5 -2.5,2.5c-1.38071,0 -2.5,-1.11929 -2.5,-2.5z" fill="#424242" stroke="none" stroke-width="0.5"/><path d="M79.375,178.36571c0,-1.38071 1.11929,-2.5 2.5,-2.5c1.38071,0 2.5,1.11929 2.5,2.5c0,1.38071 -1.11929,2.5 -2.5,2.5c-1.38071,0 -2.5,-1.11929 -2.5,-2.5z" fill="#424242" stroke="none" stroke-width="0.5"/><path d="M32.375,242.36571c0,-1.38071 1.11929,-2.5 2.5,-2.5c1.38071,0 2.5,1.11929 2.5,2.5c0,1.38071 -1.11929,2.5 -2.5,2.5c-1.38071,0 -2.5,-1.11929 -2.5,-2.5z" fill="#424242" stroke="none" stroke-width="0.5"/><path d="M55.375,232.36571c0,-1.38071 1.11929,-2.5 2.5,-2.5c1.38071,0 2.5,1.11929 2.5,2.5c0,1.38071 -1.11929,2.5 -2.5,2.5c-1.38071,0 -2.5,-1.11929 -2.5,-2.5z" fill="#424242" stroke="none" stroke-width="0.5"/></g><g><path d="M573.875,226.36571v-100l120,-64v226z" fill="#1a1a1a" stroke="#424242" stroke-width="2.5"/><path d="M674.875,103.86571c-1.38071,0 -2.5,-1.11929 -2.5,-2.5c0,-1.38071 1.11929,-2.5 2.5,-2.5c1.38071,0 2.5,1.11929 2.5,2.5c0,1.38071 -1.11929,2.5 -2.5,2.5z" fill="#424242" stroke="none" stroke-width="0.5"/><path d="M661.875,126.86571c-1.38071,0 -2.5,-1.11929 -2.5,-2.5c0,-1.38071 1.11929,-2.5 2.5,-2.5c1.38071,0 2.5,1.11929 2.5,2.5c0,1.38071 -1.11929,2.5 -2.5,2.5z" fill="#424242" stroke="none" stroke-width="0.5"/><path d="M604.875,138.86571c-1.38071,0 -2.5,-1.11929 -2.5,-2.5c0,-1.38071 1.11929,-2.5 2.5,-2.5c1.38071,0 2.5,1.11929 2.5,2.5c0,1.38071 -1.11929,2.5 -2.5,2.5z" fill="#424242" stroke="none" stroke-width="0.5"/><path d="M588.875,142.86571c-1.38071,0 -2.5,-1.11929 -2.5,-2.5c0,-1.38071 1.11929,-2.5 2.5,-2.5c1.38071,0 2.5,1.11929 2.5,2.5c0,1.38071 -1.11929,2.5 -2.5,2.5z" fill="#424242" stroke="none" stroke-width="0.5"/><path d="M601.875,212.86571c-1.38071,0 -2.5,-1.11929 -2.5,-2.5c0,-1.38071 1.11929,-2.5 2.5,-2.5c1.38071,0 2.5,1.11929 2.5,2.5c0,1.38071 -1.11929,2.5 -2.5,2.5z" fill="#424242" stroke="none" stroke-width="0.5"/><path d="M588.875,208.86571c-1.38071,0 -2.5,-1.11929 -2.5,-2.5c0,-1.38071 1.11929,-2.5 2.5,-2.5c1.38071,0 2.5,1.11929 2.5,2.5c0,1.38071 -1.11929,2.5 -2.5,2.5z" fill="#424242" stroke="none" stroke-width="0.5"/><path d="M636.875,170.86571c-1.38071,0 -2.5,-1.11929 -2.5,-2.5c0,-1.38071 1.11929,-2.5 2.5,-2.5c1.38071,0 2.5,1.11929 2.5,2.5c0,1.38071 -1.11929,2.5 -2.5,2.5z" fill="#424242" stroke="none" stroke-width="0.5"/><path d="M626.875,180.86571c-1.38071,0 -2.5,-1.11929 -2.5,-2.5c0,-1.38071 1.11929,-2.5 2.5,-2.5c1.38071,0 2.5,1.11929 2.5,2.5c0,1.38071 -1.11929,2.5 -2.5,2.5z" fill="#424242" stroke="none" stroke-width="0.5"/><path d="M673.875,244.86571c-1.38071,0 -2.5,-1.11929 -2.5,-2.5c0,-1.38071 1.11929,-2.5 2.5,-2.5c1.38071,0 2.5,1.11929 2.5,2.5c0,1.38071 -1.11929,2.5 -2.5,2.5z" fill="#424242" stroke="none" stroke-width="0.5"/><path d="M650.875,234.86571c-1.38071,0 -2.5,-1.11929 -2.5,-2.5c0,-1.38071 1.11929,-2.5 2.5,-2.5c1.38071,0 2.5,1.11929 2.5,2.5c0,1.38071 -1.11929,2.5 -2.5,2.5z" fill="#424242" stroke="none" stroke-width="0.5"/></g><g fill="#2b3e37" stroke-width="0"><path d="M427,141.36571c0,-5.17767 4.19733,-9.375 9.375,-9.375c5.17767,0 9.375,4.19733 9.375,9.375c0,5.17767 -4.19733,9.375 -9.375,9.375c-5.17767,0 -9.375,-4.19733 -9.375,-9.375zM436.75,137.375c0.69036,0 1.25,-0.55964 1.25,-1.25c0,-0.69036 -0.55964,-1.25 -1.25,-1.25c-0.69036,0 -1.25,0.55964 -1.25,1.25c0,0.69036 0.55964,1.25 1.25,1.25z" stroke="#000000"/><path d="M437,173.86571v-29h4.75v29z" stroke="#000000"/><path d="M429.04167,169.375c0,0 2,-2.1782 2,-3.25c0,-1.2376 -2,-3.75 -2,-3.75h9.95833v7z" stroke="none"/></g><g stroke-width="0"><g fill-opacity="0.67843" fill="#000000" stroke="#000000"><path d="M-16.34512,373.95896v-403.48913h743.89439v403.48913z"/></g><g stroke="none"><path d="M-26.49167,392.65285v-423.0128h164.97129v423.0128z" fill="url(#color-1)"/><path d="M583.9176,389.13859v-423.0128h164.97129v423.0128z" fill="url(#color-2)"/><path d="M-27.857,104.67877v-138.29264h776.23763v138.29265z" fill="url(#color-3)"/><path d="M747.34873,255.58157v138.29264h-776.23762v-138.29264z" fill="url(#color-4)"/></g></g></g></g></svg>