<svg version="1.1" xmlns="http://www.w3.org/2000/svg" xmlns:xlink="http://www.w3.org/1999/xlink" width="179.50814" height="70" viewBox="0,0,179.50814,70"><defs><radialGradient cx="534.6494" cy="194.75002" r="89.75407" gradientUnits="userSpaceOnUse" id="color-1"><stop offset="0" stop-color="#0c0c0c"/><stop offset="1" stop-color="#000000"/></radialGradient><linearGradient x1="534.6494" y1="204.41669" x2="534.6494" y2="229.75002" gradientUnits="userSpaceOnUse" id="color-2"><stop offset="0" stop-color="#232323"/><stop offset="1" stop-color="#000000"/></linearGradient><linearGradient x1="534.6494" y1="185.50002" x2="534.6494" y2="160.16668" gradientUnits="userSpaceOnUse" id="color-3"><stop offset="0" stop-color="#232323"/><stop offset="1" stop-color="#000000"/></linearGradient></defs><g transform="translate(-444.89533,-159.75002)"><g stroke-miterlimit="10"><path d="M444.89533,229.75002v-70h179.50814v70z" fill="url(#color-1)" stroke="none" stroke-width="0"/><g stroke-width="0"><path d="M520.15716,210.24132v-30.9826h32.00401v30.9826z" fill="#8c7b56" stroke="#dcdcdc"/><path d="M530.08075,209.12786c-0.86307,-8.70497 -1.80069,-29.14023 1.56196,-31.02579c1.448,-0.81195 7.959,-0.397 9.40646,0.66523c2.1948,1.61067 1.38916,20.79754 1.95817,27.71829c0.54586,6.63911 -4.29265,5.64735 -5.31193,4.14235c-1.3129,-1.93855 -1.61257,-22.981 -1.61257,-22.981c0,0 0.62416,21.47916 -0.50176,23.07937c-1.20616,1.71425 -5.18363,1.59574 -5.50032,-1.59845z" fill="#2e2e2e" stroke="none"/><path d="M521.09866,185.16543v-14.9806h29.9612v14.9806z" fill="#000000" stroke="#dcdcdc"/><path d="M521.9841,219.31521v-14.9806h29.9612v14.9806z" fill="#000000" stroke="#dcdcdc"/><path d="M512.58695,217.73162v-45.9632h9.87358v45.9632z" fill="#090909" stroke="#dcdcdc"/><path d="M546.83827,217.73162v-45.9632h9.87358v45.9632z" fill="#090909" stroke="#dcdcdc"/></g><path d="M444.89533,229.75002l77.58333,-25.33333l24.25814,-0.25l77.66667,25.58333z" fill="url(#color-2)" stroke="none" stroke-width="0"/><path d="M624.40347,160.16668l-77.66666,25.58334l-24.25814,-0.25l-77.58333,-25.33334z" fill="url(#color-3)" stroke="none" stroke-width="0"/><path d="M447.82441,165.75002c0,-1.38071 1.11929,-2.5 2.5,-2.5c1.38071,0 2.5,1.11929 2.5,2.5c0,1.38071 -1.11929,2.5 -2.5,2.5c-1.38071,0 -2.5,-1.11929 -2.5,-2.5z" fill="#ff0000" stroke="none" stroke-width="0.5"/></g></g></svg>