<svg version="1.1" xmlns="http://www.w3.org/2000/svg" xmlns:xlink="http://www.w3.org/1999/xlink" width="18.75" height="41.875" viewBox="0,0,18.75,41.875"><g transform="translate(-427,-131.99071)"><g fill-opacity="0.51765" fill="#5ce57d" stroke-width="0" stroke-miterlimit="10"><path d="M427,141.36571c0,-5.17767 4.19733,-9.375 9.375,-9.375c5.17767,0 9.375,4.19733 9.375,9.375c0,5.17767 -4.19733,9.375 -9.375,9.375c-5.17767,0 -9.375,-4.19733 -9.375,-9.375zM436.75,137.375c0.69036,0 1.25,-0.55964 1.25,-1.25c0,-0.69036 -0.55964,-1.25 -1.25,-1.25c-0.69036,0 -1.25,0.55964 -1.25,1.25c0,0.69036 0.55964,1.25 1.25,1.25z" stroke="#000000"/><path d="M437,173.86571v-29h4.75v29z" stroke="#000000"/><path d="M429.04167,169.375c0,0 2,-2.1782 2,-3.25c0,-1.2376 -2,-3.75 -2,-3.75h9.95833v7z" stroke="none"/></g></g></svg>