<svg version="1.1" xmlns="http://www.w3.org/2000/svg" xmlns:xlink="http://www.w3.org/1999/xlink" width="244.47397" height="89.4375" viewBox="0,0,244.47397,89.4375"><g transform="translate(-237.1216,-135.28125)"><g fill="none" stroke="#ffffff" stroke-width="6" stroke-linecap="round" stroke-miterlimit="10"><path d="M240.1216,220.38542c0,0 0,-59.56105 0,-71.13542c0,-3.78384 1.843,-5.68825 4.01563,-3.51562c7.86385,7.86385 55.1183,55.1183 70,70c2.82581,2.82581 1.81299,4.48437 -2.01563,4.48437c-7.53026,0 -21.03718,0 -26,0c-4.2518,0 -6.27235,-2.22765 -3.76562,-4.73437c7.60329,-7.60329 48.81166,-50.31166 65.25,-66.75c4.47748,-4.47748 5.26563,0.14321 5.26563,4.01562c0,8.96192 0,47.84621 0,63.08333c0,4.14986 2.74422,4.6412 4.56771,2.81771c4.27827,-4.27827 20.80729,-23.80729 20.80729,-23.80729v-27.125l29.4375,-29.4375c0,0 58.65848,0 69.27083,0c3.16637,0 3.83514,2.33153 1.64063,4.52604c-5.85272,5.85272 -32.19271,32.19271 -32.19271,32.19271v46.71875"/></g></g></svg>