<svg version="1.1" xmlns="http://www.w3.org/2000/svg" xmlns:xlink="http://www.w3.org/1999/xlink" width="777.77778" height="427.74842" viewBox="0,0,777.77778,427.74842"><defs><linearGradient x1="-26.49167" y1="181.14647" x2="138.47964" y2="181.14647" gradientUnits="userSpaceOnUse" id="color-1"><stop offset="0" stop-color="#000000"/><stop offset="1" stop-color="#000000" stop-opacity="0"/></linearGradient><linearGradient x1="748.88889" y1="177.6322" x2="583.9176" y2="177.6322" gradientUnits="userSpaceOnUse" id="color-2"><stop offset="0" stop-color="#000000"/><stop offset="1" stop-color="#000000" stop-opacity="0"/></linearGradient><linearGradient x1="360.26181" y1="-33.61387" x2="360.26181" y2="104.67878" gradientUnits="userSpaceOnUse" id="color-3"><stop offset="0" stop-color="#000000"/><stop offset="1" stop-color="#000000" stop-opacity="0"/></linearGradient><linearGradient x1="359.22991" y1="393.87423" x2="359.22991" y2="255.58158" gradientUnits="userSpaceOnUse" id="color-4"><stop offset="0" stop-color="#000000"/><stop offset="1" stop-color="#000000" stop-opacity="0"/></linearGradient></defs><g transform="translate(28.88889,33.8742)"><g stroke-miterlimit="10"><g><path d="M0,153v-160.3741h720v160.3741z" fill="#0c0626" stroke="#000000" stroke-width="0"/><path d="M0,360.00001v-160.3741h720v160.3741z" fill="#0c0626" stroke="#000000" stroke-width="0"/><path d="M155.93393,244.00001v-128h408.13213v128z" fill="#190d4f" stroke="#000000" stroke-width="0"/><path d="M0,360.00001v-360c0,0 103.57855,76.76523 153.74087,96.49007c48.08296,18.9072 141.25913,19.50993 141.25913,19.50993l1,128.5c0,0 -98.32945,-0.67062 -147.59512,18.55298c-49.40063,19.27626 -148.40488,96.94702 -148.40488,96.94702z" fill="#190d4f" stroke="none" stroke-width="0"/><path d="M720,0.00001v360c0,0 -96.65721,-74.04362 -145.48316,-93.24297c-49.4982,-19.4637 -149.51684,-22.75703 -149.51684,-22.75703l-1,-128.5c0,0 123.66866,-12.21981 176.81394,-32.95724c43.63341,-17.02587 119.18606,-82.54276 119.18606,-82.54276z" fill="#190d4f" stroke="none" stroke-width="0"/><path d="M244.25,232v-104h231.5v104z" fill="#1a1a1a" stroke="#424242" stroke-width="2.5"/><g fill="#000000" stroke-width="0"><path d="M342.5,196.9259c0,0 2.6173,-10.50031 4.3105,-15.49808c1.14641,-3.38383 1.32762,-0.67076 2.0652,-4.19083c0.79034,-3.77185 -0.87954,-7.44762 -0.40966,-9.09223c0.66865,-2.34028 3.23396,-3.41887 3.23396,-3.41887c0,0 2.41727,1 4.8,1c5.63702,0 28.99086,-1.85846 37.59692,-2.10676c1.99964,-0.05769 3.20308,1.10676 3.20308,1.10676c0,0 -1,5.24098 -1,8c0,2.5593 1,8 1,8c0,0 -1.16805,1.40574 -3.07229,1.15989c-6.45142,-0.83292 -21.35279,-3.85794 -27.9098,-0.32662c-5.85694,3.15429 2.59943,14.77256 -1.44051,15.96684c-5.29046,1.56397 -22.3774,-0.60011 -22.3774,-0.60011z" stroke="none"/><path d="M375.1,180.85534c0,4.19736 -3.40264,7.6 -7.6,7.6c-1.9925,0 -3.80592,-0.76676 -5.16128,-2.02132c0.44511,0.06058 0.89954,0.09188 1.36128,0.09188c5.52285,0 10,-4.47715 10,-10c0,-0.02248 -0.00007,-0.04494 -0.00022,-0.06738c0.88178,1.24112 1.40022,2.75842 1.40022,4.39682z" stroke="#424242"/></g><path d="M365.375,182.65737c0,-1.38071 1.11929,-2.5 2.5,-2.5c1.38071,0 2.5,1.11929 2.5,2.5c0,1.38071 -1.11929,2.5 -2.5,2.5c-1.38071,0 -2.5,-1.11929 -2.5,-2.5z" fill="#424242" stroke="none" stroke-width="0.5"/><path d="M344.04167,175.36571c0,-1.38071 1.11929,-2.5 2.5,-2.5c1.38071,0 2.5,1.11929 2.5,2.5c0,1.38071 -1.11929,2.5 -2.5,2.5c-1.38071,0 -2.5,-1.11929 -2.5,-2.5z" fill="#424242" stroke="none" stroke-width="0.5"/><path d="M257.04167,141.36571c0,-1.38071 1.11929,-2.5 2.5,-2.5c1.38071,0 2.5,1.11929 2.5,2.5c0,1.38071 -1.11929,2.5 -2.5,2.5c-1.38071,0 -2.5,-1.11929 -2.5,-2.5z" fill="#424242" stroke="none" stroke-width="0.5"/><path d="M277.04167,159.36571c0,-1.38071 1.11929,-2.5 2.5,-2.5c1.38071,0 2.5,1.11929 2.5,2.5c0,1.38071 -1.11929,2.5 -2.5,2.5c-1.38071,0 -2.5,-1.11929 -2.5,-2.5z" fill="#424242" stroke="none" stroke-width="0.5"/><path d="M259.04167,208.69904c0,-1.38071 1.11929,-2.5 2.5,-2.5c1.38071,0 2.5,1.11929 2.5,2.5c0,1.38071 -1.11929,2.5 -2.5,2.5c-1.38071,0 -2.5,-1.11929 -2.5,-2.5z" fill="#424242" stroke="none" stroke-width="0.5"/><path d="M297.375,209.03237c0,-1.38071 1.11929,-2.5 2.5,-2.5c1.38071,0 2.5,1.11929 2.5,2.5c0,1.38071 -1.11929,2.5 -2.5,2.5c-1.38071,0 -2.5,-1.11929 -2.5,-2.5z" fill="#424242" stroke="none" stroke-width="0.5"/><path d="M424.04167,147.36571c0,-1.38071 1.11929,-2.5 2.5,-2.5c1.38071,0 2.5,1.11929 2.5,2.5c0,1.38071 -1.11929,2.5 -2.5,2.5c-1.38071,0 -2.5,-1.11929 -2.5,-2.5z" fill="#424242" stroke="none" stroke-width="0.5"/><path d="M445.04167,146.69904c0,-1.38071 1.11929,-2.5 2.5,-2.5c1.38071,0 2.5,1.11929 2.5,2.5c0,1.38071 -1.11929,2.5 -2.5,2.5c-1.38071,0 -2.5,-1.11929 -2.5,-2.5z" fill="#424242" stroke="none" stroke-width="0.5"/><path d="M416.375,213.03237c0,-1.38071 1.11929,-2.5 2.5,-2.5c1.38071,0 2.5,1.11929 2.5,2.5c0,1.38071 -1.11929,2.5 -2.5,2.5c-1.38071,0 -2.5,-1.11929 -2.5,-2.5z" fill="#424242" stroke="none" stroke-width="0.5"/><path d="M441.375,216.03237c0,-1.38071 1.11929,-2.5 2.5,-2.5c1.38071,0 2.5,1.11929 2.5,2.5c0,1.38071 -1.11929,2.5 -2.5,2.5c-1.38071,0 -2.5,-1.11929 -2.5,-2.5z" fill="#424242" stroke="none" stroke-width="0.5"/><g><path d="M14.875,288.36571l0,-226l120,64v100z" fill="#1a1a1a" stroke="#424242" stroke-width="2.5"/><path d="M31.375,101.36571c0,-1.38071 1.11929,-2.5 2.5,-2.5c1.38071,0 2.5,1.11929 2.5,2.5c0,1.38071 -1.11929,2.5 -2.5,2.5c-1.38071,0 -2.5,-1.11929 -2.5,-2.5z" fill="#424242" stroke="none" stroke-width="0.5"/><path d="M44.375,124.36571c0,-1.38071 1.11929,-2.5 2.5,-2.5c1.38071,0 2.5,1.11929 2.5,2.5c0,1.38071 -1.11929,2.5 -2.5,2.5c-1.38071,0 -2.5,-1.11929 -2.5,-2.5z" fill="#424242" stroke="none" stroke-width="0.5"/><path d="M101.375,136.36571c0,-1.38071 1.11929,-2.5 2.5,-2.5c1.38071,0 2.5,1.11929 2.5,2.5c0,1.38071 -1.11929,2.5 -2.5,2.5c-1.38071,0 -2.5,-1.11929 -2.5,-2.5z" fill="#424242" stroke="none" stroke-width="0.5"/><path d="M117.375,140.36571c0,-1.38071 1.11929,-2.5 2.5,-2.5c1.38071,0 2.5,1.11929 2.5,2.5c0,1.38071 -1.11929,2.5 -2.5,2.5c-1.38071,0 -2.5,-1.11929 -2.5,-2.5z" fill="#424242" stroke="none" stroke-width="0.5"/><path d="M104.375,210.36571c0,-1.38071 1.11929,-2.5 2.5,-2.5c1.38071,0 2.5,1.11929 2.5,2.5c0,1.38071 -1.11929,2.5 -2.5,2.5c-1.38071,0 -2.5,-1.11929 -2.5,-2.5z" fill="#424242" stroke="none" stroke-width="0.5"/><path d="M117.375,206.36571c0,-1.38071 1.11929,-2.5 2.5,-2.5c1.38071,0 2.5,1.11929 2.5,2.5c0,1.38071 -1.11929,2.5 -2.5,2.5c-1.38071,0 -2.5,-1.11929 -2.5,-2.5z" fill="#424242" stroke="none" stroke-width="0.5"/><path d="M69.375,168.36571c0,-1.38071 1.11929,-2.5 2.5,-2.5c1.38071,0 2.5,1.11929 2.5,2.5c0,1.38071 -1.11929,2.5 -2.5,2.5c-1.38071,0 -2.5,-1.11929 -2.5,-2.5z" fill="#424242" stroke="none" stroke-width="0.5"/><path d="M79.375,178.36571c0,-1.38071 1.11929,-2.5 2.5,-2.5c1.38071,0 2.5,1.11929 2.5,2.5c0,1.38071 -1.11929,2.5 -2.5,2.5c-1.38071,0 -2.5,-1.11929 -2.5,-2.5z" fill="#424242" stroke="none" stroke-width="0.5"/><path d="M32.375,242.36571c0,-1.38071 1.11929,-2.5 2.5,-2.5c1.38071,0 2.5,1.11929 2.5,2.5c0,1.38071 -1.11929,2.5 -2.5,2.5c-1.38071,0 -2.5,-1.11929 -2.5,-2.5z" fill="#424242" stroke="none" stroke-width="0.5"/><path d="M55.375,232.36571c0,-1.38071 1.11929,-2.5 2.5,-2.5c1.38071,0 2.5,1.11929 2.5,2.5c0,1.38071 -1.11929,2.5 -2.5,2.5c-1.38071,0 -2.5,-1.11929 -2.5,-2.5z" fill="#424242" stroke="none" stroke-width="0.5"/></g><g><path d="M573.875,226.36571v-100l120,-64v226z" fill="#1a1a1a" stroke="#424242" stroke-width="2.5"/><path d="M674.875,103.86571c-1.38071,0 -2.5,-1.11929 -2.5,-2.5c0,-1.38071 1.11929,-2.5 2.5,-2.5c1.38071,0 2.5,1.11929 2.5,2.5c0,1.38071 -1.11929,2.5 -2.5,2.5z" fill="#424242" stroke="none" stroke-width="0.5"/><path d="M661.875,126.86571c-1.38071,0 -2.5,-1.11929 -2.5,-2.5c0,-1.38071 1.11929,-2.5 2.5,-2.5c1.38071,0 2.5,1.11929 2.5,2.5c0,1.38071 -1.11929,2.5 -2.5,2.5z" fill="#424242" stroke="none" stroke-width="0.5"/><path d="M604.875,138.86571c-1.38071,0 -2.5,-1.11929 -2.5,-2.5c0,-1.38071 1.11929,-2.5 2.5,-2.5c1.38071,0 2.5,1.11929 2.5,2.5c0,1.38071 -1.11929,2.5 -2.5,2.5z" fill="#424242" stroke="none" stroke-width="0.5"/><path d="M588.875,142.86571c-1.38071,0 -2.5,-1.11929 -2.5,-2.5c0,-1.38071 1.11929,-2.5 2.5,-2.5c1.38071,0 2.5,1.11929 2.5,2.5c0,1.38071 -1.11929,2.5 -2.5,2.5z" fill="#424242" stroke="none" stroke-width="0.5"/><path d="M601.875,212.86571c-1.38071,0 -2.5,-1.11929 -2.5,-2.5c0,-1.38071 1.11929,-2.5 2.5,-2.5c1.38071,0 2.5,1.11929 2.5,2.5c0,1.38071 -1.11929,2.5 -2.5,2.5z" fill="#424242" stroke="none" stroke-width="0.5"/><path d="M588.875,208.86571c-1.38071,0 -2.5,-1.11929 -2.5,-2.5c0,-1.38071 1.11929,-2.5 2.5,-2.5c1.38071,0 2.5,1.11929 2.5,2.5c0,1.38071 -1.11929,2.5 -2.5,2.5z" fill="#424242" stroke="none" stroke-width="0.5"/><path d="M636.875,170.86571c-1.38071,0 -2.5,-1.11929 -2.5,-2.5c0,-1.38071 1.11929,-2.5 2.5,-2.5c1.38071,0 2.5,1.11929 2.5,2.5c0,1.38071 -1.11929,2.5 -2.5,2.5z" fill="#424242" stroke="none" stroke-width="0.5"/><path d="M626.875,180.86571c-1.38071,0 -2.5,-1.11929 -2.5,-2.5c0,-1.38071 1.11929,-2.5 2.5,-2.5c1.38071,0 2.5,1.11929 2.5,2.5c0,1.38071 -1.11929,2.5 -2.5,2.5z" fill="#424242" stroke="none" stroke-width="0.5"/><path d="M673.875,244.86571c-1.38071,0 -2.5,-1.11929 -2.5,-2.5c0,-1.38071 1.11929,-2.5 2.5,-2.5c1.38071,0 2.5,1.11929 2.5,2.5c0,1.38071 -1.11929,2.5 -2.5,2.5z" fill="#424242" stroke="none" stroke-width="0.5"/><path d="M650.875,234.86571c-1.38071,0 -2.5,-1.11929 -2.5,-2.5c0,-1.38071 1.11929,-2.5 2.5,-2.5c1.38071,0 2.5,1.11929 2.5,2.5c0,1.38071 -1.11929,2.5 -2.5,2.5z" fill="#424242" stroke="none" stroke-width="0.5"/></g><g stroke-width="0"><g fill-opacity="0.67843" fill="#000000" stroke="#000000"><path d="M-16.34512,373.95897v-403.48913h743.89439v403.48913z"/></g><g stroke="none"><path d="M-26.49167,392.65286v-423.0128h164.97129v423.0128z" fill="url(#color-1)"/><path d="M583.9176,389.1386v-423.0128h164.97129v423.0128z" fill="url(#color-2)"/><path d="M-27.857,104.67878v-138.29264h776.23763v138.29265z" fill="url(#color-3)"/><path d="M747.34873,255.58158v138.29264h-776.23762v-138.29264z" fill="url(#color-4)"/></g></g></g></g></g></svg>