<svg version="1.1" xmlns="http://www.w3.org/2000/svg" xmlns:xlink="http://www.w3.org/1999/xlink" width="238.75193" height="436.78204" viewBox="0,0,238.75193,436.78204"><defs><linearGradient x1="468.05555" y1="183.99006" x2="467.99936" y2="206.4837" gradientUnits="userSpaceOnUse" id="color-1"><stop offset="0" stop-color="#484c5e"/><stop offset="1" stop-color="#212d30"/></linearGradient><linearGradient x1="449.177" y1="179.22578" x2="435.64505" y2="206.52182" gradientUnits="userSpaceOnUse" id="color-2"><stop offset="0" stop-color="#484c5e"/><stop offset="1" stop-color="#212d30"/></linearGradient><linearGradient x1="435.31516" y1="165.80219" x2="411.65844" y2="184.99977" gradientUnits="userSpaceOnUse" id="color-3"><stop offset="0" stop-color="#484c5e"/><stop offset="1" stop-color="#212d30"/></linearGradient><linearGradient x1="427.56484" y1="148.7135" x2="397.44366" y2="153.28522" gradientUnits="userSpaceOnUse" id="color-4"><stop offset="0" stop-color="#484c5e"/><stop offset="1" stop-color="#212d30"/></linearGradient><linearGradient x1="433.07184" y1="131.06386" x2="407.95204" y2="113.82489" gradientUnits="userSpaceOnUse" id="color-5"><stop offset="0" stop-color="#484c5e"/><stop offset="1" stop-color="#212d30"/></linearGradient><linearGradient x1="447.26059" y1="117.01632" x2="429.03959" y2="92.59946" gradientUnits="userSpaceOnUse" id="color-6"><stop offset="0" stop-color="#484c5e"/><stop offset="1" stop-color="#212d30"/></linearGradient><linearGradient x1="461.75334" y1="103.71544" x2="436.63352" y2="86.47648" gradientUnits="userSpaceOnUse" id="color-7"><stop offset="0" stop-color="#484c5e"/><stop offset="1" stop-color="#212d30"/></linearGradient><linearGradient x1="474.21638" y1="88.62344" x2="449.09659" y2="71.38447" gradientUnits="userSpaceOnUse" id="color-8"><stop offset="0" stop-color="#484c5e"/><stop offset="1" stop-color="#212d30"/></linearGradient><linearGradient x1="575.69358" y1="184.99006" x2="575.74977" y2="207.4837" gradientUnits="userSpaceOnUse" id="color-9"><stop offset="0" stop-color="#484c5e"/><stop offset="1" stop-color="#212d30"/></linearGradient><linearGradient x1="594.57212" y1="180.22578" x2="608.10408" y2="207.52182" gradientUnits="userSpaceOnUse" id="color-10"><stop offset="0" stop-color="#484c5e"/><stop offset="1" stop-color="#212d30"/></linearGradient><linearGradient x1="608.43397" y1="166.80219" x2="632.09068" y2="185.99976" gradientUnits="userSpaceOnUse" id="color-11"><stop offset="0" stop-color="#484c5e"/><stop offset="1" stop-color="#212d30"/></linearGradient><linearGradient x1="616.18428" y1="149.7135" x2="646.30547" y2="154.28522" gradientUnits="userSpaceOnUse" id="color-12"><stop offset="0" stop-color="#484c5e"/><stop offset="1" stop-color="#212d30"/></linearGradient><linearGradient x1="610.67728" y1="132.06386" x2="635.79708" y2="114.82489" gradientUnits="userSpaceOnUse" id="color-13"><stop offset="0" stop-color="#484c5e"/><stop offset="1" stop-color="#212d30"/></linearGradient><linearGradient x1="596.48853" y1="118.01632" x2="614.70954" y2="93.59946" gradientUnits="userSpaceOnUse" id="color-14"><stop offset="0" stop-color="#484c5e"/><stop offset="1" stop-color="#212d30"/></linearGradient><linearGradient x1="581.99578" y1="104.71544" x2="607.1156" y2="87.47648" gradientUnits="userSpaceOnUse" id="color-15"><stop offset="0" stop-color="#484c5e"/><stop offset="1" stop-color="#212d30"/></linearGradient><linearGradient x1="569.53274" y1="89.62344" x2="594.65253" y2="72.38446" gradientUnits="userSpaceOnUse" id="color-16"><stop offset="0" stop-color="#484c5e"/><stop offset="1" stop-color="#212d30"/></linearGradient><linearGradient x1="510.17518" y1="298.27217" x2="487.68149" y2="298.27217" gradientUnits="userSpaceOnUse" id="color-17"><stop offset="0" stop-color="#484c5e"/><stop offset="1" stop-color="#212d30"/></linearGradient><linearGradient x1="510.17518" y1="309.2292" x2="479.70902" y2="309.2292" gradientUnits="userSpaceOnUse" id="color-18"><stop offset="0" stop-color="#484c5e"/><stop offset="1" stop-color="#212d30"/></linearGradient><linearGradient x1="510.17518" y1="321.40461" x2="479.70902" y2="321.40461" gradientUnits="userSpaceOnUse" id="color-19"><stop offset="0" stop-color="#484c5e"/><stop offset="1" stop-color="#212d30"/></linearGradient><linearGradient x1="510.17518" y1="332.22721" x2="479.70902" y2="332.22721" gradientUnits="userSpaceOnUse" id="color-20"><stop offset="0" stop-color="#484c5e"/><stop offset="1" stop-color="#212d30"/></linearGradient><linearGradient x1="510.17518" y1="344.85359" x2="479.70902" y2="344.85359" gradientUnits="userSpaceOnUse" id="color-21"><stop offset="0" stop-color="#484c5e"/><stop offset="1" stop-color="#212d30"/></linearGradient><linearGradient x1="510.17518" y1="355.67619" x2="479.70902" y2="355.67619" gradientUnits="userSpaceOnUse" id="color-22"><stop offset="0" stop-color="#484c5e"/><stop offset="1" stop-color="#212d30"/></linearGradient><linearGradient x1="510.17518" y1="367.8516" x2="479.70902" y2="367.8516" gradientUnits="userSpaceOnUse" id="color-23"><stop offset="0" stop-color="#484c5e"/><stop offset="1" stop-color="#212d30"/></linearGradient><linearGradient x1="510.17518" y1="378.67422" x2="479.70902" y2="378.67422" gradientUnits="userSpaceOnUse" id="color-24"><stop offset="0" stop-color="#484c5e"/><stop offset="1" stop-color="#212d30"/></linearGradient><linearGradient x1="534.91356" y1="298.7231" x2="557.40725" y2="298.7231" gradientUnits="userSpaceOnUse" id="color-25"><stop offset="0" stop-color="#484c5e"/><stop offset="1" stop-color="#212d30"/></linearGradient><linearGradient x1="534.91356" y1="309.68012" x2="565.37973" y2="309.68012" gradientUnits="userSpaceOnUse" id="color-26"><stop offset="0" stop-color="#484c5e"/><stop offset="1" stop-color="#212d30"/></linearGradient><linearGradient x1="534.91356" y1="321.85555" x2="565.37973" y2="321.85555" gradientUnits="userSpaceOnUse" id="color-27"><stop offset="0" stop-color="#484c5e"/><stop offset="1" stop-color="#212d30"/></linearGradient><linearGradient x1="534.91356" y1="332.67816" x2="565.37973" y2="332.67816" gradientUnits="userSpaceOnUse" id="color-28"><stop offset="0" stop-color="#484c5e"/><stop offset="1" stop-color="#212d30"/></linearGradient><linearGradient x1="534.91356" y1="345.30455" x2="565.37973" y2="345.30455" gradientUnits="userSpaceOnUse" id="color-29"><stop offset="0" stop-color="#484c5e"/><stop offset="1" stop-color="#212d30"/></linearGradient><linearGradient x1="534.91356" y1="356.12711" x2="565.37973" y2="356.12711" gradientUnits="userSpaceOnUse" id="color-30"><stop offset="0" stop-color="#484c5e"/><stop offset="1" stop-color="#212d30"/></linearGradient><linearGradient x1="534.91356" y1="368.30256" x2="565.37973" y2="368.30256" gradientUnits="userSpaceOnUse" id="color-31"><stop offset="0" stop-color="#484c5e"/><stop offset="1" stop-color="#212d30"/></linearGradient><linearGradient x1="534.91356" y1="379.12516" x2="565.37973" y2="379.12516" gradientUnits="userSpaceOnUse" id="color-32"><stop offset="0" stop-color="#484c5e"/><stop offset="1" stop-color="#212d30"/></linearGradient><linearGradient x1="470.97517" y1="185.2698" x2="571.00271" y2="185.2698" gradientUnits="userSpaceOnUse" id="color-33"><stop offset="0" stop-color="#484c5e"/><stop offset="1" stop-color="#212d30"/></linearGradient><linearGradient x1="461.37253" y1="56.77948" x2="580.60537" y2="56.77948" gradientUnits="userSpaceOnUse" id="color-34"><stop offset="0" stop-color="#484c5e"/><stop offset="1" stop-color="#212d30"/></linearGradient><linearGradient x1="529.89872" y1="77.32584" x2="515.92808" y2="77.32584" gradientUnits="userSpaceOnUse" id="color-35"><stop offset="0" stop-color="#484c5e"/><stop offset="1" stop-color="#212d30"/></linearGradient><linearGradient x1="529.89872" y1="94.70499" x2="510.97645" y2="94.70499" gradientUnits="userSpaceOnUse" id="color-36"><stop offset="0" stop-color="#484c5e"/><stop offset="1" stop-color="#212d30"/></linearGradient><linearGradient x1="529.89872" y1="114.01665" x2="510.97645" y2="114.01665" gradientUnits="userSpaceOnUse" id="color-37"><stop offset="0" stop-color="#484c5e"/><stop offset="1" stop-color="#212d30"/></linearGradient><linearGradient x1="529.89872" y1="131.18257" x2="510.97645" y2="131.18257" gradientUnits="userSpaceOnUse" id="color-38"><stop offset="0" stop-color="#484c5e"/><stop offset="1" stop-color="#212d30"/></linearGradient><linearGradient x1="529.89872" y1="151.20949" x2="510.97645" y2="151.20949" gradientUnits="userSpaceOnUse" id="color-39"><stop offset="0" stop-color="#484c5e"/><stop offset="1" stop-color="#212d30"/></linearGradient><linearGradient x1="529.89872" y1="168.3754" x2="510.97645" y2="168.3754" gradientUnits="userSpaceOnUse" id="color-40"><stop offset="0" stop-color="#484c5e"/><stop offset="1" stop-color="#212d30"/></linearGradient><linearGradient x1="529.89872" y1="187.68707" x2="510.97645" y2="187.68707" gradientUnits="userSpaceOnUse" id="color-41"><stop offset="0" stop-color="#484c5e"/><stop offset="1" stop-color="#212d30"/></linearGradient><linearGradient x1="529.89872" y1="204.85298" x2="510.97645" y2="204.85298" gradientUnits="userSpaceOnUse" id="color-42"><stop offset="0" stop-color="#484c5e"/><stop offset="1" stop-color="#212d30"/></linearGradient><linearGradient x1="494.19831" y1="115.20134" x2="548.63284" y2="115.20134" gradientUnits="userSpaceOnUse" id="color-43"><stop offset="0" stop-color="#484c5e"/><stop offset="1" stop-color="#212d30"/></linearGradient><linearGradient x1="572.76646" y1="93.80092" x2="539.524" y2="93.80092" gradientUnits="userSpaceOnUse" id="color-44"><stop offset="0" stop-color="#484c5e"/><stop offset="1" stop-color="#212d30"/></linearGradient><linearGradient x1="470.98269" y1="97.00703" x2="504.22515" y2="97.00703" gradientUnits="userSpaceOnUse" id="color-45"><stop offset="0" stop-color="#484c5e"/><stop offset="1" stop-color="#212d30"/></linearGradient><linearGradient x1="520.18508" y1="201.881" x2="520.18508" y2="276.09526" gradientUnits="userSpaceOnUse" id="color-46"><stop offset="0" stop-color="#484c5e"/><stop offset="1" stop-color="#212d30"/></linearGradient><linearGradient x1="493.54286" y1="205.42369" x2="493.54286" y2="222.91705" gradientUnits="userSpaceOnUse" id="color-47"><stop offset="0" stop-color="#484c5e"/><stop offset="1" stop-color="#212d30"/></linearGradient><linearGradient x1="549.52164" y1="205.42369" x2="549.52164" y2="222.91705" gradientUnits="userSpaceOnUse" id="color-48"><stop offset="0" stop-color="#484c5e"/><stop offset="1" stop-color="#212d30"/></linearGradient><linearGradient x1="533.99761" y1="392.0032" x2="596.01955" y2="392.0032" gradientUnits="userSpaceOnUse" id="color-49"><stop offset="0" stop-color="#484c5e"/><stop offset="1" stop-color="#212d30"/></linearGradient><linearGradient x1="511.73261" y1="392.26827" x2="449.71067" y2="392.26827" gradientUnits="userSpaceOnUse" id="color-50"><stop offset="0" stop-color="#484c5e"/><stop offset="1" stop-color="#212d30"/></linearGradient></defs><g transform="translate(-402.49859,32.1864)"><g stroke-miterlimit="10"><g><path d="M478.24287,205.88231c0,0 0.03288,-13.15614 0.04272,-17.09574c0.00521,-2.08119 -1.09419,-3.17038 -2.69907,-0.8481c-3.03373,4.38985 -7.84979,11.35873 -10.34601,14.97078c-2.98033,4.31258 -7.65901,4.8697 -7.47121,0.73938c0.25372,-5.58078 0.89485,-19.68203 0.89485,-19.68203" fill="none" stroke="url(#color-1)" stroke-width="3.25" stroke-linecap="round"/><path d="M458.5586,183.8767c0,0 -14.19782,7.91072 -20.06234,11.17833c-4.57938,2.55154 -9.0226,0.9837 -7.02885,-2.63842c2.6939,-4.89414 9.50071,-17.26037 9.50071,-17.26037" fill="none" stroke="url(#color-2)" stroke-width="3.25" stroke-linecap="round"/><path d="M441.91332,173.93296c0,0 -16.20159,1.29074 -22.8938,1.82391c-5.22566,0.41633 -8.61462,-2.85711 -5.29527,-5.32221c4.48502,-3.3308 15.81751,-11.7469 15.81751,-11.7469" fill="none" stroke="url(#color-3)" stroke-width="3.25" stroke-linecap="round"/><path d="M429.13613,159.0661c0,0 -14.62366,-7.09272 -20.66409,-10.02241c-4.7167,-2.28768 -5.98095,-6.82664 -1.87031,-7.27103c5.5542,-0.60047 19.58824,-2.11768 19.58824,-2.11768" fill="none" stroke="url(#color-4)" stroke-width="3.25" stroke-linecap="round"/><path d="M427.14684,139.69749c0,0 -5.83375,-15.16989 -8.24345,-21.43593c-1.88162,-4.89288 0.29597,-9.07121 3.60143,-6.58751c4.46627,3.3559 15.7514,11.83541 15.7514,11.83541" fill="none" stroke="url(#color-5)" stroke-width="3.25" stroke-linecap="round"/><path d="M438.86857,123.27885c0,0 -0.63172,-16.24066 -0.89267,-22.949c-0.20376,-5.23826 3.20461,-8.49149 5.53287,-5.07476c3.14593,4.61659 11.09485,16.28152 11.09485,16.28152" fill="none" stroke="url(#color-6)" stroke-width="3.25" stroke-linecap="round"/><path d="M455.82835,112.34905c0,0 -5.83375,-15.16987 -8.24344,-21.43591c-1.88162,-4.89289 0.29595,-9.07122 3.60141,-6.58752c4.46627,3.3559 15.7514,11.83541 15.7514,11.83541" fill="none" stroke="url(#color-7)" stroke-width="3.25" stroke-linecap="round"/><path d="M468.2914,97.25709c0,0 -5.83374,-15.16988 -8.24343,-21.43592c-1.88163,-4.8929 0.29595,-9.07124 3.60141,-6.58754c4.46627,3.3559 15.7514,11.8354 15.7514,11.8354" fill="none" stroke="url(#color-8)" stroke-width="3.25" stroke-linecap="round"/><path d="M513.20827,247.15314c-12.43432,12.2863 -27.34218,-10.84741 -32.70529,-16.55783c-4.06151,-4.32451 -27.80592,-1.73331 -25.56168,-8.68582c0.71923,-2.22809 24.62632,-14.50449 25.98458,-16.49355c2.07979,-3.04566 8.87809,-20.47651 11.51654,-21.73579c4.46159,-2.12939 4.95782,13.64731 8.32795,17.23567c1.5825,1.68496 14.84155,2.88844 13.9166,13.19536c-0.33233,3.70304 -2.19217,-2.36855 -6.58234,1.76075c-3.39596,3.19419 17.93916,18.59851 5.10365,31.28118z" fill="#0d0d0d" stroke="#000000" stroke-width="0" stroke-linecap="butt"/></g><g><path d="M585.08497,184.9666c0,0 0.64113,14.10124 0.89485,19.68203c0.18781,4.13032 -4.49087,3.57319 -7.47121,-0.73938c-2.49622,-3.61205 -7.31228,-10.58093 -10.34601,-14.97078c-1.60489,-2.32228 -2.70427,-1.23309 -2.69907,0.8481c0.00984,3.93961 0.04272,17.09574 0.04272,17.09574" fill="none" stroke="url(#color-9)" stroke-width="3.25" stroke-linecap="round"/><path d="M602.781,176.15624c0,0 6.80681,12.36624 9.50071,17.26038c1.99376,3.62212 -2.44947,5.18996 -7.02885,2.63842c-5.86452,-3.26761 -20.06234,-11.17834 -20.06234,-11.17834" fill="none" stroke="url(#color-10)" stroke-width="3.25" stroke-linecap="round"/><path d="M614.20736,159.68775c0,0 11.3325,8.4161 15.81751,11.7469c3.31935,2.4651 -0.06961,5.73854 -5.29527,5.32221c-6.69221,-0.53317 -22.8938,-1.82392 -22.8938,-1.82392" fill="none" stroke="url(#color-11)" stroke-width="3.25" stroke-linecap="round"/><path d="M617.55914,140.65498c0,0 14.03404,1.5172 19.58824,2.11768c4.11064,0.44438 2.84639,4.98334 -1.8703,7.27102c-6.04043,2.92969 -20.66409,10.02242 -20.66409,10.02242" fill="none" stroke="url(#color-12)" stroke-width="3.25" stroke-linecap="round"/><path d="M605.49291,124.50945c0,0 11.28513,-8.47951 15.7514,-11.83541c3.30546,-2.4837 5.48305,1.69464 3.60143,6.58752c-2.4097,6.26604 -8.24345,21.43593 -8.24345,21.43593" fill="none" stroke="url(#color-13)" stroke-width="3.25" stroke-linecap="round"/><path d="M589.14551,112.5366c0,0 7.94892,-11.66494 11.09484,-16.28152c2.32826,-3.41672 5.73663,-0.1635 5.53287,5.07476c-0.26095,6.70834 -0.89267,22.949 -0.89267,22.949" fill="none" stroke="url(#color-14)" stroke-width="3.25" stroke-linecap="round"/><path d="M576.81141,97.16103c0,0 11.28513,-8.47951 15.7514,-11.83541c3.30546,-2.4837 5.48304,1.69464 3.60141,6.58753c-2.4097,6.26604 -8.24344,21.43591 -8.24344,21.43591" fill="none" stroke="url(#color-15)" stroke-width="3.25" stroke-linecap="round"/><path d="M564.34835,82.06903c0,0 11.28512,-8.47951 15.75139,-11.83541c3.30546,-2.4837 5.48305,1.69464 3.60142,6.58755c-2.4097,6.26604 -8.24344,21.43591 -8.24344,21.43591" fill="none" stroke="url(#color-16)" stroke-width="3.25" stroke-linecap="round"/><path d="M530.54084,248.1531c-12.83551,-12.68266 8.4996,-28.08698 5.10364,-31.28117c-4.39017,-4.1293 -6.25002,1.94228 -6.58234,-1.76075c-0.92495,-10.30692 12.3341,-11.51041 13.9166,-13.19537c3.37012,-3.58835 3.86636,-19.36507 8.32795,-17.23567c2.63845,1.25928 9.43675,18.69014 11.51654,21.73579c1.35826,1.98906 25.26535,14.26546 25.98458,16.49355c2.24424,6.95251 -21.50018,4.3613 -25.56168,8.68582c-5.36311,5.71042 -20.27096,28.84413 -32.70528,16.55783z" fill="#0d0d0d" stroke="#000000" stroke-width="0" stroke-linecap="butt"/></g><g fill="none" stroke-width="3.25" stroke-linecap="round"><path d="M510.17518,303.7819c0,0 -14.10281,0.35547 -19.68421,0.49613c-4.13078,0.10412 -3.56197,-2.63992 0.75806,-4.3821c3.61829,-1.45918 10.59917,-4.27446 14.99657,-6.04783c2.32628,-0.93813 1.23983,-1.58471 -0.84134,-1.58471c-3.9396,0 -17.09578,0 -17.09578,0" stroke="url(#color-17)"/><path d="M510.17518,314.6045c0,0 -14.10281,0.35548 -19.68421,0.49614c-4.13078,0.10412 -3.56197,-2.63993 0.75806,-4.38211c5.53242,-2.23111 18.92615,-7.63256 18.92615,-7.63256" stroke="url(#color-18)"/><path d="M510.17518,326.77991c0,0 -14.10281,0.3555 -19.68421,0.49616c-4.13078,0.10412 -3.56197,-2.63995 0.75806,-4.38213c5.53242,-2.23111 18.92615,-7.63256 18.92615,-7.63256" stroke="url(#color-19)"/><path d="M510.17518,337.60251c0,0 -14.10281,0.35549 -19.68421,0.49615c-4.13078,0.10412 -3.56197,-2.63995 0.75806,-4.38213c5.53242,-2.23111 18.92615,-7.63256 18.92615,-7.63256" stroke="url(#color-20)"/><path d="M510.17518,350.2289c0,0 -14.10281,0.35547 -19.68421,0.49613c-4.13078,0.10412 -3.56197,-2.63995 0.75806,-4.38213c5.53242,-2.23111 18.92615,-7.63254 18.92615,-7.63254" stroke="url(#color-21)"/><path d="M510.17518,361.0515c0,0 -14.10281,0.35549 -19.68421,0.49615c-4.13078,0.10412 -3.56197,-2.63994 0.75806,-4.38212c5.53242,-2.23111 18.92615,-7.63254 18.92615,-7.63254" stroke="url(#color-22)"/><path d="M510.17518,373.22692c0,0 -14.10281,0.35549 -19.68421,0.49615c-4.13078,0.10412 -3.56197,-2.63994 0.75806,-4.38212c5.53242,-2.23111 18.92615,-7.63254 18.92615,-7.63254" stroke="url(#color-23)"/><path d="M510.17518,384.0495c0,0 -14.10281,0.35547 -19.68421,0.49613c-4.13078,0.10412 -3.56197,-2.63993 0.75806,-4.38211c5.53242,-2.23111 18.92615,-7.63256 18.92615,-7.63256" stroke="url(#color-24)"/></g><g fill="none" stroke-width="3.25" stroke-linecap="round"><path d="M556.78023,292.71432c0,0 -13.15617,0 -17.09578,0c-2.08117,0 -3.16762,0.6466 -0.84134,1.58474c4.39742,1.77339 11.37829,4.58863 14.99657,6.04783c4.32003,1.74218 4.88884,4.48623 0.75806,4.38213c-5.5814,-0.14066 -19.68421,-0.49616 -19.68421,-0.49616" stroke="url(#color-25)"/><path d="M534.91356,303.53692c0,0 13.39375,5.40145 18.92615,7.63257c4.32001,1.74218 4.88884,4.48622 0.75807,4.38212c-5.5814,-0.14066 -19.6842,-0.49615 -19.6842,-0.49615" stroke="url(#color-26)"/><path d="M534.91356,315.71235c0,0 13.39375,5.40145 18.92615,7.63256c4.32001,1.74218 4.88884,4.48623 0.75807,4.38213c-5.5814,-0.14066 -19.6842,-0.49615 -19.6842,-0.49615" stroke="url(#color-27)"/><path d="M534.91356,326.53495c0,0 13.39375,5.40145 18.92615,7.63256c4.32001,1.74218 4.88884,4.48623 0.75807,4.38213c-5.5814,-0.14066 -19.6842,-0.49615 -19.6842,-0.49615" stroke="url(#color-28)"/><path d="M534.91356,339.16131c0,0 13.39375,5.40145 18.92615,7.63257c4.32001,1.74218 4.88884,4.4862 0.75807,4.3821c-5.5814,-0.14066 -19.6842,-0.49613 -19.6842,-0.49613" stroke="url(#color-29)"/><path d="M534.91356,349.98391c0,0 13.39375,5.40145 18.92615,7.63257c4.32001,1.74218 4.88884,4.48621 0.75807,4.38211c-5.5814,-0.14066 -19.6842,-0.49613 -19.6842,-0.49613" stroke="url(#color-30)"/><path d="M534.91356,362.15934c0,0 13.39375,5.40145 18.92615,7.63257c4.32001,1.74218 4.88884,4.48621 0.75807,4.38211c-5.5814,-0.14066 -19.6842,-0.49614 -19.6842,-0.49614" stroke="url(#color-31)"/><path d="M534.91356,372.98194c0,0 13.39375,5.40145 18.92615,7.63257c4.32001,1.74218 4.88884,4.4862 0.75807,4.3821c-5.5814,-0.14066 -19.6842,-0.49613 -19.6842,-0.49613" stroke="url(#color-32)"/></g><path d="M571.00269,185.2698c0,1.28724 -14.59066,1.18051 -29.39053,-4.80579c-6.79562,-2.74872 -9.53058,-13.99937 -18.22257,-13.99937c-9.85148,0 -10.28615,10.93857 -18.09401,14.63156c-14.084,6.66149 -32.31986,7.78266 -32.31986,6.57427c0,-1.87829 20.39138,-64.41773 48.0132,-64.41773c27.62185,0 50.01377,60.13878 50.01377,62.01707z" fill="#4c1212" stroke="url(#color-33)" stroke-width="0" stroke-linecap="butt"/><path d="M580.60537,56.77948c0,1.3811 -23.89042,22.10609 -56.81564,22.10609c-32.92523,0 -59.81647,-17.72416 -59.81647,-19.10527c0,-0.68182 29.22574,2.2427 58.01058,1.49348c29.52189,-0.76841 58.62153,-5.19356 58.62153,-4.49431z" fill="#4c1212" stroke="url(#color-34)" stroke-width="0" stroke-linecap="butt"/><g fill="none" stroke-width="3.25" stroke-linecap="round"><path d="M529.89872,86.06495c0,0 -8.75914,0.56382 -12.22569,0.78695c-2.5656,0.16514 -2.2123,-4.18725 0.47082,-6.95054c2.24728,-2.31444 6.58305,-6.77976 9.31423,-9.59256c1.44483,-1.48802 0.77007,-2.51355 -0.52256,-2.51355c-2.44687,0 -10.61803,0 -10.61803,0" stroke="url(#color-35)"/><path d="M529.89872,103.23087c0,0 -8.75914,0.56381 -12.22569,0.78694c-2.5656,0.16513 -2.2123,-4.18725 0.47082,-6.95054c3.43613,-3.5388 11.75486,-12.10613 11.75486,-12.10613" stroke="url(#color-36)"/><path d="M529.89872,122.54254c0,0 -8.75914,0.56382 -12.22569,0.78695c-2.5656,0.16513 -2.2123,-4.18725 0.47082,-6.95054c3.43613,-3.5388 11.75486,-12.10613 11.75486,-12.10613" stroke="url(#color-37)"/><path d="M529.89872,139.70846c0,0 -8.75914,0.56381 -12.22569,0.78694c-2.5656,0.16512 -2.2123,-4.18725 0.47082,-6.95054c3.43613,-3.5388 11.75486,-12.10613 11.75486,-12.10613" stroke="url(#color-38)"/><path d="M529.89872,159.73535c0,0 -8.75914,0.56383 -12.22569,0.78696c-2.5656,0.16512 -2.2123,-4.18725 0.47082,-6.95054c3.43613,-3.5388 11.75486,-12.10613 11.75486,-12.10613" stroke="url(#color-39)"/><path d="M529.89872,176.90129c0,0 -8.75914,0.56381 -12.22569,0.78694c-2.5656,0.16512 -2.2123,-4.18725 0.47082,-6.95054c3.43613,-3.5388 11.75486,-12.10613 11.75486,-12.10613" stroke="url(#color-40)"/><path d="M529.89872,196.21295c0,0 -8.75914,0.56382 -12.22569,0.78695c-2.5656,0.16512 -2.2123,-4.18724 0.47082,-6.95054c3.43613,-3.5388 11.75486,-12.10613 11.75486,-12.10613" stroke="url(#color-41)"/><path d="M529.89872,213.37887c0,0 -8.75914,0.56381 -12.22569,0.78694c-2.5656,0.16512 -2.2123,-4.18724 0.47082,-6.95054c3.43613,-3.5388 11.75486,-12.10613 11.75486,-12.10613" stroke="url(#color-42)"/></g><path d="M491.82955,92.257c0,-6.46302 -14.08027,-19.28214 -12.41911,-22.28229c2.09382,-3.7815 20.36317,3.08996 24.42637,2.54913c4.95184,-0.6591 11.08882,0.15228 17.73495,0.15228c6.95168,0 13.70254,-0.6458 19.17745,0.46905c3.27041,0.66595 20.28947,-4.24155 22.42019,-1.80618c2.73077,3.12122 -9.86659,14.31856 -9.86659,22.26839c0,13.19826 0.6344,42.38384 -6.01445,56.80432c-5.71214,12.38887 -18.1259,11.12108 -25.7166,11.12108c-6.37948,0 -20.9684,-2.42679 -25.81181,-12.11876c-7.6276,-15.2634 -3.93041,-42.14945 -3.93041,-57.15702z" fill="#dadada" stroke="#000000" stroke-width="0" stroke-linecap="butt"/><path d="M494.19831,115.20134c0,-18.31015 12.18559,-33.15346 27.21726,-33.15346c15.03168,0 27.21727,14.84331 27.21727,33.15346c0,18.31015 -12.18559,33.15346 -27.21727,33.15346c-15.03168,0 -27.21726,-14.84331 -27.21726,-33.15346z" fill="#ababab" stroke="url(#color-43)" stroke-width="0" stroke-linecap="butt"/><path d="M545.26941,160.57822c-4.1418,-26.38943 3.86691,-86.44855 7.08649,-93.9018c5.3946,-12.48834 18.57781,-11.62672 29.1367,-10.68879c6.19494,0.55029 -7.81275,49.56532 -20.34644,81.12161c-5.96589,15.02044 11.62027,48.52401 11.62027,48.52401c0,0 -23.34886,1.37525 -27.49706,-25.05504z" fill="#801d1d" stroke="url(#color-44)" stroke-width="0" stroke-linecap="butt"/><path d="M470.98269,188.83933c0,0 17.58618,-33.50356 11.62027,-48.524c-12.53368,-31.5563 -26.54137,-80.57133 -20.34643,-81.12162c10.55892,-0.93792 23.74212,-1.79955 29.13669,10.68879c3.21958,7.45324 11.2283,67.51237 7.0865,93.9018c-4.1482,26.43027 -27.49705,25.05504 -27.49705,25.05504z" fill="#801d1d" stroke="url(#color-45)" stroke-width="0" stroke-linecap="butt"/><path d="M488.53908,204.71036c5.97998,-4.12478 61.70583,-7.24108 68.51266,0.83424c5.44245,6.45666 12.49312,79.35868 4.8009,94.84493c-6.15278,12.38699 -37.99382,-0.38729 -37.99382,-0.38729c0,0 0.65628,-56.77414 -2.77377,-56.77598c-3.35806,-0.00179 -3.42884,56.93897 -3.42884,56.93897c0,0 -35.35467,-3.71492 -39.47357,-3.47587c-8.33882,0.48401 0.6529,-85.28587 10.35641,-91.979z" fill="#0d0d0d" stroke="url(#color-46)" stroke-width="0" stroke-linecap="butt"/><path d="M484.79618,214.17037c0,-4.83067 3.91602,-8.74668 8.74669,-8.74668c4.83067,0 8.74668,3.91601 8.74668,8.74668c0,4.83067 -3.91601,8.74668 -8.74668,8.74668c-4.83067,0 -8.74669,-3.91602 -8.74669,-8.74668z" fill="#e1f194" stroke="url(#color-47)" stroke-width="0" stroke-linecap="butt"/><path d="M540.77496,214.17037c0,-4.83067 3.91602,-8.74668 8.74668,-8.74668c4.83066,0 8.74668,3.91601 8.74668,8.74668c0,4.83067 -3.91602,8.74668 -8.74668,8.74668c-4.83066,0 -8.74668,-3.91602 -8.74668,-8.74668z" fill="#e1f194" stroke="url(#color-48)" stroke-width="0" stroke-linecap="butt"/><path d="M529.22669,390.943c0,-7.21573 2.09171,-16.73912 2.09171,-16.73912c0,0 23.77901,-13.21163 33.69017,-13.21163c17.12688,0 31.01096,13.88409 31.01096,31.01095c0,17.12688 -66.79284,16.0667 -66.79284,-1.06021z" fill="#272727" stroke="url(#color-49)" stroke-width="0" stroke-linecap="butt"/><path d="M449.71067,392.26827c0,-17.12688 13.88409,-31.01095 31.01095,-31.01095c9.91114,0 33.69018,13.21164 33.69018,13.21164c0,0 2.09171,9.52339 2.09171,16.73912c0,17.12688 -66.79284,18.18708 -66.79284,1.06021z" fill="#272727" stroke="url(#color-50)" stroke-width="0" stroke-linecap="butt"/><g stroke="#000000" stroke-width="0" stroke-linecap="butt"><path d="M515.23133,77.74134l0.22374,-17.13063l4.05563,0.05298l-0.22374,17.13062z" fill="#2f323e"/><path d="M512.64077,59.73938c-1.94896,-3.15501 -2.06259,-14.56174 -2.06259,-14.56174l13.81635,0.05252c0,0 -0.71398,11.04301 -2.1141,14.30035c-0.9441,2.1964 -3.34071,1.89183 -5.1012,1.86883c-1.31182,-0.01714 -3.71323,-0.32413 -4.53843,-1.65998z" fill="#2f323e"/><g><path d="M548.51891,33.89632c-0.91544,-3.50427 -2.44526,-5.35465 -3.17478,-8.02839c-0.68837,-2.52295 -0.58285,-5.90964 -1.22402,-7.85551c-1.58456,-4.80888 -3.02258,-8.10667 -2.97437,-11.21397c0.03012,-1.94023 1.84088,-5.09489 2.36548,-6.72114c0.57407,-1.77954 6.09547,-1.91981 9.38747,-0.23585c2.86608,1.46607 3.35685,4.35546 6.13918,8.23361c1.24469,1.7349 4.73739,5.86057 5.75423,7.9912c1.68646,3.53373 1.08383,5.78719 1.60347,9.38924c0.43537,3.01798 2.97615,7.49635 3.57276,11.00994c0.27845,1.63979 -1.17492,2.42866 -1.08634,3.92511c0.10694,1.80655 2.02492,7.54266 2.0344,9.1677c0.02693,4.61462 -1.58747,6.0206 -2.37537,8.87811c-0.93511,3.39144 0.98449,10.69361 -0.33792,12.67728c-1.93191,2.89791 -7.43584,3.38762 -9.47611,3.5084c-2.00304,0.11856 -4.64852,2.01051 -6.63764,-0.21274c-1.53909,-1.72024 -2.89337,-5.96119 -3.90035,-10.56949c-0.60014,-2.74637 -1.51936,-2.80845 -1.88392,-6.12909c-0.21767,-1.98272 0.04836,-6.91672 -0.09392,-9.32102c-0.24014,-4.05714 4.38963,-6.52382 2.30771,-14.49341z" fill="#a3a3a3"/><path d="M545.92735,3.24121c1.62073,-0.40395 3.73279,2.47113 4.71742,6.42166c0.98463,3.95055 0.46897,7.48057 -1.15175,7.88451c-1.62072,0.40395 -3.73281,-2.47113 -4.71745,-6.42167c-0.98464,-3.95055 -0.46899,-7.48057 1.15176,-7.88453z" fill="#0d0d0d"/></g><path d="M547.37015,6.98544c0.94362,0.37604 1.74792,1.85305 2.04256,2.84633c0.21131,0.71246 0.4457,2.1175 0.17677,2.75387c-1.6389,3.87825 -11.21184,5.24316 -12.49972,0.90131c-1.20457,-4.06099 6.42242,-8.03885 10.28037,-6.50151z" fill="#2f323e"/><g><path d="M491.06339,49.06482c-0.20505,2.39977 -0.06794,7.339 -0.33732,9.31536c-0.45116,3.30998 -1.37172,3.34805 -2.04335,6.07781c-1.127,4.58045 -2.59154,8.78459 -4.17504,10.46403c-2.04651,2.17053 -4.64168,0.21012 -6.64093,0.0393c-2.03642,-0.17401 -7.52571,-0.80729 -9.38127,-3.75467c-1.27015,-2.01757 0.83948,-9.2671 -0.00674,-12.68178c-0.71299,-2.87709 -2.29009,-4.3248 -2.14269,-8.93712c0.0519,-1.62423 2.11907,-7.3083 2.27313,-9.11143c0.12763,-1.49365 -1.30462,-2.3202 -0.98345,-3.95215c0.68816,-3.49683 3.34503,-7.9073 3.85908,-10.91288c0.61354,-3.58727 0.06999,-5.85568 1.84816,-9.34417c1.07213,-2.10336 4.67137,-6.13639 5.96094,-7.8382c2.88269,-3.80417 3.44873,-6.67973 6.35215,-8.07047c3.33486,-1.5974 8.85073,-1.31298 9.37813,0.48095c0.48197,1.63942 2.20972,4.8403 2.18914,6.78062c-0.03294,3.10751 -1.55662,6.3666 -3.26623,11.13247c-0.69177,1.92844 -0.67474,5.31671 -1.42879,7.82084c-0.79908,2.65377 -2.3767,4.46359 -3.38336,7.94275c-2.28936,7.91246 2.27444,10.49923 1.92842,14.54871z" fill="#a3a3a3"/><path d="M493.47171,11.85103c-1.08748,3.92349 -3.27392,6.74243 -4.88356,6.29628c-1.60965,-0.44616 -2.03294,-3.98841 -0.94547,-7.91189c1.08748,-3.92349 3.27391,-6.74244 4.88356,-6.29628c1.60965,0.44617 2.03294,3.98842 0.94547,7.9119z" fill="#0d0d0d"/></g><path d="M501.09323,14.41217c-1.4008,4.30674 -10.93489,2.69227 -12.47194,-1.22744c-0.25221,-0.64319 0.01877,-2.04163 0.24862,-2.74833c0.32047,-0.98524 1.16307,-2.44076 2.1162,-2.79201c3.89679,-1.43608 11.41728,2.73963 10.1071,6.76777z" fill="#2f323e"/><path d="M546.98748,50.88071c-0.01078,0.82567 -14.7424,6.49103 -29.38634,6.29915c-14.62156,-0.19161 -29.15547,-6.2392 -29.1447,-7.06359c0.01073,-0.82159 14.45623,4.3997 29.02789,4.58658c14.69345,0.18845 29.51397,-4.6506 29.50314,-3.82213z" fill="#686e88"/><path d="M546.77958,50.46556c-0.02994,2.29032 -3.38103,27.6437 -29.72158,27.29967c-26.34053,-0.34403 -28.82265,-27.05256 -28.79275,-29.3429c0.02994,-2.29032 2.56056,20.70489 28.90108,21.04892c26.34053,0.34403 29.64315,-21.29602 29.61325,-19.00569z" fill="#dadada"/><path d="M514.19969,65.68748l0.21251,-16.27139l6.10819,0.07979l-0.21252,16.27142z" fill="#24262f"/><path d="M486.19838,30.58425c0.22825,-17.47624 14.58058,-31.45846 32.0568,-31.23023c17.47621,0.22825 31.45848,14.58055 31.23023,32.0568c-0.22825,17.47621 -63.51526,16.64965 -63.28701,-0.82655z" fill="#dadada"/><path d="M492.42298,27.7663c0.09817,-7.51696 6.27146,-13.53104 13.78841,-13.43289c7.51696,0.09817 13.53108,6.27145 13.43289,13.7884c-0.09817,7.51696 -6.27145,13.53104 -13.78842,13.43288c-7.51696,-0.09817 -13.53106,-6.27146 -13.43289,-13.78841z" fill="#000000"/><path d="M514.5631,28.58671c0.09817,-7.51696 6.27144,-13.53105 13.7884,-13.43287c7.51696,0.09816 13.53104,6.27147 13.43289,13.78841c-0.09817,7.51696 -6.27143,13.53105 -13.78841,13.43288c-7.51696,-0.09817 -13.53104,-6.27144 -13.43289,-13.78841z" fill="#000000"/><path d="M553.88614,35.08394c-0.11743,4.50193 -10.24159,17.13544 -36.79645,16.78861c-26.55484,-0.34681 -35.37464,-13.94736 -35.3768,-18.45082c-0.00678,-13.95591 9.03495,1.79699 35.58979,2.14379c26.55484,0.34681 36.96215,-14.99961 36.58348,-0.4816z" fill="#ababab"/><path d="M507.43858,38.70281c0.15542,-11.90002 6.64851,-39.4225 10.24981,-39.37547c3.6013,0.04705 10.53952,25.28744 10.38411,37.18746c-0.15541,11.90003 -20.78935,14.08803 -20.63392,2.18804z" fill="#ababab"/><path d="M528.84899,35.1628c-0.01148,0.88002 -5.03821,11.22301 -11.23511,11.14208c-6.19689,-0.08093 -11.21735,-10.55511 -11.20586,-11.43516c0.01148,-0.88003 22.45248,-0.58694 22.44096,0.29308z" fill="#1d1d1d"/><g><path d="M542.6276,-27.62342c-0.05164,3.95366 -10.86523,7.01801 -24.15291,6.84447c-13.28763,-0.17354 -24.01752,-3.51929 -23.9659,-7.47291c0.00856,-0.65395 0.30996,-2.58328 2.51321,-2.99221c8.51151,-1.57973 32.25961,-1.1106 42.19581,0.93873c3.04133,0.62727 3.41986,1.90863 3.40976,2.68192z" fill="#101010"/><path d="M542.36686,-27.04627c-0.11101,8.49854 -1.35798,22.13123 -10.40631,27.70384c-6.42412,3.95642 -19.99065,1.31288 -25.50688,1.24083c-13.28585,-0.17352 -12.38894,-15.04071 -12.19915,-29.57301c0.06831,-5.23152 3.89738,-0.34788 11.89752,-1.70855c6.69856,-1.13929 15.97995,1.83773 22.60943,0.52293c7.44679,-1.47686 13.66966,-3.10642 13.60541,1.81398z" fill="#0d0d0d"/></g><g><path d="M548.68029,-1.29643c-0.01211,0.92649 -13.64201,1.49966 -30.44325,1.28022c-16.80124,-0.21943 -30.41152,-1.14837 -30.39941,-2.07485c0.01211,-0.92648 13.642,-1.49964 30.44323,-1.28022c16.80124,0.21944 30.41152,1.14837 30.39943,2.07487z" fill="#101010"/><path d="M548.35838,-1.1646c-0.02598,1.99149 -1.41914,5.17174 -12.78355,6.35684c-8.06848,0.8414 -25.25551,0.03898 -32.23043,-0.05211c-16.79901,-0.21941 -15.86503,-3.69384 -15.82056,-7.09926c0.01601,-1.2259 7.24944,0.89527 17.34537,0.68381c8.45336,-0.17708 19.20071,0.90344 27.56437,0.68429c9.39475,-0.24617 15.93987,-1.72656 15.92482,-0.57356z" fill="#0d0d0d"/></g><path d="M540.46849,-6.27488c-0.0098,0.75139 0.5281,3.10615 -1.32434,3.69629c-1.56897,0.49981 -4.06276,0.35486 -7.0312,0.57035c-3.0432,0.22092 -6.58492,0.79448 -10.11231,0.67309c-1.78093,-0.06129 -3.11771,-0.93031 -4.90809,-0.95368c-2.70224,-0.0353 -5.87607,0.50461 -8.96489,0.32038c-2.68253,-0.16001 -5.2987,-1.04262 -7.51499,-1.12242c-2.75293,-0.09914 -4.4183,0.41725 -5.95281,-0.01314c-2.58741,-0.7257 -0.84299,-2.87564 -0.83119,-3.77996c0.00989,-0.75823 -0.85014,-3.53354 1.03372,-4.12717c1.7453,-0.54996 4.79225,-1.36383 8.32077,-1.10592c2.57158,0.188 5.39335,1.37804 8.18121,1.52636c2.16182,0.115 3.68256,-0.30744 5.84026,-0.27928c2.16161,0.02824 4.26004,0.63209 6.60984,0.47472c2.76616,-0.18521 5.59691,-1.17365 8.1698,-1.47968c3.61334,-0.4298 6.72588,-0.11216 8.50509,0.42764c2.28992,0.69475 -0.00981,4.32623 -0.02087,5.17248z" fill="#801d1d"/></g></g></g></svg>