<svg version="1.1" xmlns="http://www.w3.org/2000/svg" xmlns:xlink="http://www.w3.org/1999/xlink" width="190.04747" height="478.65142" viewBox="0,0,190.04747,478.65142"><defs><linearGradient x1="411.87273" y1="404.0602" x2="409.97728" y2="424.64739" gradientUnits="userSpaceOnUse" id="color-1"><stop offset="0" stop-color="#000000" stop-opacity="0.2419"/><stop offset="1" stop-color="#e64e3d"/></linearGradient><radialGradient cx="395.06755" cy="426.27625" r="14.23101" gradientUnits="userSpaceOnUse" id="color-2"><stop offset="0" stop-color="#ffffff" stop-opacity="0.2903"/><stop offset="1" stop-color="#ffffff" stop-opacity="0"/></radialGradient><radialGradient cx="401.63399" cy="426.20511" r="5.15616" gradientUnits="userSpaceOnUse" id="color-3"><stop offset="0" stop-color="#ffffff" stop-opacity="0.2903"/><stop offset="1" stop-color="#ffffff" stop-opacity="0"/></radialGradient><linearGradient x1="396.89301" y1="236.39384" x2="414.51452" y2="328.86488" gradientUnits="userSpaceOnUse" id="color-4"><stop offset="0" stop-color="#000000" stop-opacity="0"/><stop offset="1" stop-color="#000000" stop-opacity="0.31124"/></linearGradient><linearGradient x1="412.41759" y1="395.52223" x2="410.39442" y2="417.49668" gradientUnits="userSpaceOnUse" id="color-5"><stop offset="0" stop-color="#000000" stop-opacity="0"/><stop offset="1" stop-color="#000000" stop-opacity="0.22249"/></linearGradient><linearGradient x1="360.93026" y1="231.97473" x2="360.93026" y2="389.16717" gradientUnits="userSpaceOnUse" id="color-6"><stop offset="0" stop-color="#000000" stop-opacity="0"/><stop offset="1" stop-color="#000000" stop-opacity="0.31124"/></linearGradient><radialGradient cx="357.73685" cy="195.95518" r="24.24947" gradientUnits="userSpaceOnUse" id="color-7"><stop offset="0" stop-color="#5a5a5a"/><stop offset="1" stop-color="#272727"/></radialGradient><linearGradient x1="357.73685" y1="185.85124" x2="357.73685" y2="213.09835" gradientUnits="userSpaceOnUse" id="color-8"><stop offset="0" stop-color="#000000"/><stop offset="1" stop-color="#000000" stop-opacity="0"/></linearGradient><linearGradient x1="297.27523" y1="404.41306" x2="298.96695" y2="425.018" gradientUnits="userSpaceOnUse" id="color-9"><stop offset="0" stop-color="#000000" stop-opacity="0.2419"/><stop offset="1" stop-color="#e64e3d"/></linearGradient><radialGradient cx="313.85985" cy="426.79427" r="14.23101" gradientUnits="userSpaceOnUse" id="color-10"><stop offset="0" stop-color="#ffffff" stop-opacity="0.2903"/><stop offset="1" stop-color="#ffffff" stop-opacity="0"/></radialGradient><radialGradient cx="307.29442" cy="426.65817" r="5.15616" gradientUnits="userSpaceOnUse" id="color-11"><stop offset="0" stop-color="#ffffff" stop-opacity="0.2903"/><stop offset="1" stop-color="#ffffff" stop-opacity="0"/></radialGradient><linearGradient x1="313.91276" y1="236.90311" x2="295.37741" y2="329.19529" gradientUnits="userSpaceOnUse" id="color-12"><stop offset="0" stop-color="#000000" stop-opacity="0"/><stop offset="1" stop-color="#000000" stop-opacity="0.31124"/></linearGradient><linearGradient x1="296.81488" y1="395.87014" x2="298.62058" y2="417.8635" gradientUnits="userSpaceOnUse" id="color-13"><stop offset="0" stop-color="#000000" stop-opacity="0"/><stop offset="1" stop-color="#000000" stop-opacity="0.22249"/></linearGradient><linearGradient x1="401.08853" y1="223.7556" x2="397.09784" y2="248.58642" gradientUnits="userSpaceOnUse" id="color-14"><stop offset="0" stop-color="#4a4323" stop-opacity="0"/><stop offset="1" stop-color="#4a4323" stop-opacity="0.56131"/></linearGradient><linearGradient x1="393.52885" y1="199.73817" x2="394.81924" y2="224.56257" gradientUnits="userSpaceOnUse" id="color-15"><stop offset="0" stop-color="#ffffff" stop-opacity="0.33869"/><stop offset="1" stop-color="#ffffff" stop-opacity="0"/></linearGradient><linearGradient x1="316.69934" y1="226.98732" x2="323.24831" y2="251.3725" gradientUnits="userSpaceOnUse" id="color-16"><stop offset="0" stop-color="#4a4323" stop-opacity="0"/><stop offset="1" stop-color="#4a4323" stop-opacity="0.56131"/></linearGradient><linearGradient x1="321.73448" y1="202.43734" x2="323.02486" y2="227.26175" gradientUnits="userSpaceOnUse" id="color-17"><stop offset="0" stop-color="#ffffff" stop-opacity="0.33869"/><stop offset="1" stop-color="#ffffff" stop-opacity="0"/></linearGradient><linearGradient x1="364.08656" y1="304.03926" x2="364.08656" y2="208.07355" gradientUnits="userSpaceOnUse" id="color-18"><stop offset="0" stop-color="#000000" stop-opacity="0"/><stop offset="1" stop-color="#000000" stop-opacity="0.20735"/></linearGradient><linearGradient x1="364.08656" y1="197.05046" x2="364.08656" y2="222.98715" gradientUnits="userSpaceOnUse" id="color-19"><stop offset="0" stop-color="#000000" stop-opacity="0"/><stop offset="1" stop-color="#000000" stop-opacity="0.52899"/></linearGradient><linearGradient x1="363.67525" y1="159.79308" x2="363.67525" y2="169.73193" gradientUnits="userSpaceOnUse" id="color-20"><stop offset="0" stop-color="#0b0403" stop-opacity="0.1902"/><stop offset="1" stop-color="#0b0403" stop-opacity="0"/></linearGradient><radialGradient cx="384.93138" cy="148.00231" r="21.92859" gradientUnits="userSpaceOnUse" id="color-21"><stop offset="0" stop-color="#4c0000" stop-opacity="0.33528"/><stop offset="1" stop-color="#4c0000" stop-opacity="0"/></radialGradient><radialGradient cx="367.84076" cy="147.78608" r="21.92859" gradientUnits="userSpaceOnUse" id="color-22"><stop offset="0" stop-color="#4c0000" stop-opacity="0.33528"/><stop offset="1" stop-color="#4c0000" stop-opacity="0"/></radialGradient><linearGradient x1="389.68152" y1="147.94484" x2="389.68152" y2="156.5119" gradientUnits="userSpaceOnUse" id="color-23"><stop offset="0" stop-color="#4a4323" stop-opacity="0"/><stop offset="1" stop-color="#4a4323" stop-opacity="0.56131"/></linearGradient><radialGradient cx="348.17338" cy="149.21319" r="21.92859" gradientUnits="userSpaceOnUse" id="color-24"><stop offset="0" stop-color="#4c0000" stop-opacity="0.33528"/><stop offset="1" stop-color="#4c0000" stop-opacity="0"/></radialGradient><linearGradient x1="345.26379" y1="147.94484" x2="345.26379" y2="156.5119" gradientUnits="userSpaceOnUse" id="color-25"><stop offset="0" stop-color="#4a4323" stop-opacity="0"/><stop offset="1" stop-color="#4a4323" stop-opacity="0.56131"/></linearGradient><radialGradient cx="396.47022" cy="105.98336" r="35.52826" gradientUnits="userSpaceOnUse" id="color-26"><stop offset="0" stop-color="#000000"/><stop offset="1" stop-color="#000000" stop-opacity="0"/></radialGradient><linearGradient x1="418.83266" y1="108.46212" x2="375.94386" y2="108.46212" gradientUnits="userSpaceOnUse" id="color-27"><stop offset="0" stop-color="#272727" stop-opacity="0.21436"/><stop offset="1" stop-color="#272727" stop-opacity="0"/></linearGradient><radialGradient cx="328.02034" cy="105.98336" r="35.52826" gradientUnits="userSpaceOnUse" id="color-28"><stop offset="0" stop-color="#000000"/><stop offset="1" stop-color="#000000" stop-opacity="0"/></radialGradient><linearGradient x1="305.65791" y1="108.46212" x2="348.54667" y2="108.46212" gradientUnits="userSpaceOnUse" id="color-29"><stop offset="0" stop-color="#272727" stop-opacity="0.21436"/><stop offset="1" stop-color="#272727" stop-opacity="0"/></linearGradient><radialGradient cx="358.3221" cy="119.54554" r="81.10301" gradientUnits="userSpaceOnUse" id="color-30"><stop offset="0" stop-color="#240c0a" stop-opacity="0"/><stop offset="1" stop-color="#240c0a" stop-opacity="0.2177"/></radialGradient><radialGradient cx="419.7796" cy="165.286" r="17.85314" gradientUnits="userSpaceOnUse" id="color-31"><stop offset="0" stop-color="#240c0a" stop-opacity="0.19023"/><stop offset="1" stop-color="#240c0a" stop-opacity="0"/></radialGradient><radialGradient cx="406.15971" cy="180.35474" r="13.70486" gradientUnits="userSpaceOnUse" id="color-32"><stop offset="0" stop-color="#240c0a" stop-opacity="0.19023"/><stop offset="1" stop-color="#240c0a" stop-opacity="0"/></radialGradient><radialGradient cx="291.3107" cy="89.80065" r="13.70486" gradientUnits="userSpaceOnUse" id="color-33"><stop offset="0" stop-color="#240c0a" stop-opacity="0.19023"/><stop offset="1" stop-color="#240c0a" stop-opacity="0"/></radialGradient><linearGradient x1="285.421" y1="88.71996" x2="285.421" y2="120.00897" gradientUnits="userSpaceOnUse" id="color-34"><stop offset="0" stop-color="#ffffff" stop-opacity="0.29832"/><stop offset="1" stop-color="#ffffff" stop-opacity="0"/></linearGradient><linearGradient x1="283.30152" y1="120.68557" x2="285.33183" y2="139.833" gradientUnits="userSpaceOnUse" id="color-35"><stop offset="0" stop-color="#ffffff" stop-opacity="0.16109"/><stop offset="1" stop-color="#ffffff" stop-opacity="0"/></linearGradient><radialGradient cx="396.08595" cy="48.96418" r="45.72304" gradientUnits="userSpaceOnUse" id="color-36"><stop offset="0" stop-color="#4c0000" stop-opacity="0.33528"/><stop offset="1" stop-color="#4c0000" stop-opacity="0"/></radialGradient><radialGradient cx="361.84834" cy="39.06487" r="45.72304" gradientUnits="userSpaceOnUse" id="color-37"><stop offset="0" stop-color="#4c0000" stop-opacity="0.33528"/><stop offset="1" stop-color="#4c0000" stop-opacity="0"/></radialGradient><linearGradient x1="405.68302" y1="51.41719" x2="399.7715" y2="73.15684" gradientUnits="userSpaceOnUse" id="color-38"><stop offset="0" stop-color="#4a4323" stop-opacity="0"/><stop offset="1" stop-color="#4a4323" stop-opacity="0.56131"/></linearGradient><linearGradient x1="398.61882" y1="29.96405" x2="398.61882" y2="51.89487" gradientUnits="userSpaceOnUse" id="color-39"><stop offset="0" stop-color="#ffffff" stop-opacity="0.33869"/><stop offset="1" stop-color="#ffffff" stop-opacity="0"/></linearGradient><linearGradient x1="314.43583" y1="50.39972" x2="320.16079" y2="72.18925" gradientUnits="userSpaceOnUse" id="color-40"><stop offset="0" stop-color="#4a4323" stop-opacity="0"/><stop offset="1" stop-color="#4a4323" stop-opacity="0.56131"/></linearGradient><linearGradient x1="330.51921" y1="29.96405" x2="330.51921" y2="51.89487" gradientUnits="userSpaceOnUse" id="color-41"><stop offset="0" stop-color="#ffffff" stop-opacity="0.33869"/><stop offset="1" stop-color="#ffffff" stop-opacity="0"/></linearGradient><linearGradient x1="353.85137" y1="20.03201" x2="355.15918" y2="52.33818" gradientUnits="userSpaceOnUse" id="color-42"><stop offset="0" stop-color="#000000"/><stop offset="1" stop-color="#000000" stop-opacity="0"/></linearGradient><linearGradient x1="352.83059" y1="-12.58424" x2="354.74665" y2="34.74774" gradientUnits="userSpaceOnUse" id="color-43"><stop offset="0" stop-color="#000000" stop-opacity="0"/><stop offset="1" stop-color="#000000" stop-opacity="0.25803"/></linearGradient></defs><g transform="translate(-264.97626,16.01527)"><g stroke-miterlimit="10"><g stroke="#000000" stroke-width="0"><g><path d="M428.396,432.34281c-2.46357,-12.80083 -0.45579,-13.66513 2.14047,-14.11024c2.59623,-0.44511 4.79783,-0.30246 7.26136,12.49836c2.46355,12.80083 0.64902,14.66925 -1.94725,15.11435c-2.59627,0.44511 -4.99108,-0.70165 -7.45463,-13.50247z" fill="#e64e3d"/><path d="M390.73173,427.56639c2.63018,0.24215 4.71551,0.94755 3.52389,13.89031c-1.19162,12.94277 -3.46416,14.27072 -6.09437,14.02859c-2.63021,-0.24219 -4.62206,-1.96278 -3.43044,-14.90553c1.19162,-12.94276 3.37071,-13.25551 6.00091,-13.01336z" fill="#e64e3d"/><path d="M395.97627,445.66952c1.19162,-12.94277 3.37071,-13.25551 6.00091,-13.01336c2.63021,0.24219 4.71553,0.94755 3.52391,13.89031c-1.19162,12.94276 -3.46416,14.27072 -6.09437,14.02859c-2.63021,-0.24215 -4.62206,-1.96278 -3.43044,-14.90553z" fill="#e64e3d"/><path d="M406.83326,447.34485c1.19162,-12.94277 3.37071,-13.25551 6.00091,-13.01336c2.63021,0.24219 4.71553,0.94755 3.52391,13.89031c-1.19162,12.94276 -3.46416,14.27072 -6.09437,14.02859c-2.63021,-0.24215 -4.62206,-1.96278 -3.43044,-14.90553z" fill="#e64e3d"/><path d="M418.7985,444.61732c1.19162,-12.94277 3.37071,-13.25551 6.00091,-13.01336c2.63021,0.24219 4.71553,0.94755 3.52391,13.89031c-1.19162,12.94276 -3.46416,14.27072 -6.09437,14.02859c-2.63021,-0.24215 -4.62206,-1.96278 -3.43044,-14.90553z" fill="#e64e3d"/><path d="M385.54511,424.10134c1.97333,-21.43323 12.91999,-21.27553 26.32763,-20.04109c13.40762,1.23444 24.19903,3.07813 22.2257,24.51134c-1.97333,21.43323 -13.07476,22.95677 -26.4824,21.72233c-13.40764,-1.23444 -24.04427,-4.75939 -22.07094,-26.1926z" fill="#e64e3d"/><path d="M385.72415,422.41443c2.38634,-19.73707 13.10243,-19.55536 26.1486,-18.35423c13.04617,1.20113 23.61527,2.97914 22.35769,22.82014c-7.2881,-3.43459 -15.32424,-5.68688 -23.86274,-6.47302c-8.53853,-0.78611 -16.8508,-0.039 -24.64355,2.00713z" fill="url(#color-1)"/></g><g><path d="M396.32198,412.6518c4.42643,0.40754 0.54548,5.52607 -0.1473,13.05064c-0.69276,7.52454 2.06496,14.60578 -2.36148,14.19822c-4.42644,-0.40754 -7.45316,-6.83778 -6.76039,-14.36234c0.69276,-7.52454 4.84271,-13.29405 9.26915,-12.88649z" fill="url(#color-2)"/><path d="M404.53792,426.47245c-0.30663,3.33054 -1.85535,5.9108 -3.45912,5.76313c-1.60382,-0.14765 -2.65535,-2.9673 -2.34871,-6.29782c0.30664,-3.33054 1.85537,-5.9108 3.45914,-5.76313c1.60378,0.14765 2.65534,2.9673 2.34869,6.29782z" fill="url(#color-3)"/></g></g><g stroke="#000000" stroke-width="0"><path d="M431.87867,321.19013c-1.04407,7.34116 -35.39067,11.09589 -37.35033,7.3224c-2.61544,-5.03631 -22.13812,-83.97871 -21.61043,-87.68902c1.15253,-8.1039 45.29146,-13.85271 48.42278,-7.82306c0.75178,1.44761 11.40462,82.09602 10.53798,88.18966z" fill="#603f3f"/><path d="M431.87865,321.1901c-1.04407,7.34116 -35.39067,11.09589 -37.35033,7.3224c-2.61544,-5.03631 -22.13812,-83.97871 -21.61043,-87.68902c0.01789,-0.12579 0.04612,-0.25099 0.08441,-0.37561c5.1867,15.74913 16.91724,37.52414 26.34701,39.72524c2.57309,0.6006 5.88995,-1.20037 8.03467,-2.59293c2.95712,-1.92004 5.49901,-4.12847 7.84176,-7.49613c4.07171,-5.853 7.95481,-20.39521 6.8726,-32.7789c2.58873,17.00296 10.5334,78.59002 9.78035,83.88497z" fill="url(#color-4)"/></g><g stroke="#000000" stroke-width="0"><path d="M393.88452,319.00852c1.37772,-3.98231 35.9642,-4.54046 38.09499,2.60205c1.76869,5.92875 3.26112,87.15032 2.73258,88.67805c-2.20143,6.3633 -46.78654,6.1656 -49.13872,-1.71899c-1.07693,-3.60991 6.47239,-84.24612 8.31118,-89.56113z" fill="#3b2727"/><g><path d="M414.32407,392.28375c17.88152,-7.8298 24.46527,-14.86133 24.46527,-14.86133c0,0 4.59704,24.48774 -3.99128,37.07178c-2.39571,3.51031 -48.51316,4.5119 -50.86535,-3.37269c-0.12896,-0.43222 -0.74914,-17.44322 0.46906,-16.64933c2.38444,1.55393 23.72988,0.52306 29.92231,-2.18843z" fill="#cbcbcb"/><path d="M439.77087,398.04064c-0.50856,5.89646 -1.89274,11.94051 -4.97278,16.45358c-2.39571,3.51031 -48.51316,4.5119 -50.86535,-3.37269c-0.03816,-0.12791 -0.11935,-1.70782 -0.18318,-3.84851c3.53154,0.88519 7.18057,1.5122 10.92624,1.85705c16.60678,1.52895 32.35766,-2.74193 45.09507,-11.08944z" fill="url(#color-5)"/></g></g><path d="M413.22213,383.00241c-3.25676,6.76126 -95.30262,10.1756 -101.71611,-1.62106c-5.32359,-9.79201 -17.70345,-145.56945 -16.45406,-148.16327c5.20393,-10.80377 123.95449,-13.67077 131.03429,-0.64844c3.24145,5.96217 -8.51744,141.4088 -12.86408,150.43274z" fill="#3b2727" stroke="#000000" stroke-width="0"/><path d="M413.22215,383.00241c-3.25676,6.76126 -95.30262,10.1756 -101.71611,-1.62106c-4.62585,-8.5086 -14.57948,-112.14169 -16.28952,-140.86316c3.35418,20.69416 20.82315,43.55525 34.44037,52.05545c7.83498,4.89079 15.6128,7.81704 24.33651,10.15247c6.32699,1.69381 15.93548,3.73263 22.38992,2.02464c23.6541,-6.25936 43.55602,-45.39324 49.29342,-72.77602c0.16286,0.19451 0.29962,0.39282 0.40952,0.59493c3.24145,5.96217 -8.51744,141.4088 -12.86408,150.43274z" fill="url(#color-6)" stroke="#000000" stroke-width="0"/><path d="M381.98632,206.0591c0,0 -4.23806,6.13012 -24.61688,6.9809c-19.27553,0.80471 -23.88205,-6.9809 -23.88205,-6.9809v-20.2079h48.49895v20.2079z" fill="url(#color-7)" stroke="#000000" stroke-width="0"/><path d="M381.98632,206.0591c0,0 -4.23806,6.13012 -24.61688,6.9809c-19.27553,0.80471 -23.88205,-6.9809 -23.88205,-6.9809v-20.2079h48.49895v20.2079z" fill="url(#color-8)" stroke="#000000" stroke-width="0"/><g stroke="#000000" stroke-width="0"><g><path d="M280.47305,432.53086c-2.59005,12.77583 -4.99609,13.89885 -7.58781,13.42807c-2.59172,-0.47076 -4.38769,-2.35704 -1.79762,-15.13289c2.59004,-12.77585 4.7929,-12.89672 7.38463,-12.42594c2.59172,0.47078 4.59087,1.35491 2.0008,14.13074z" fill="#e64e3d"/><path d="M318.18273,428.12726c2.63246,-0.21614 4.80833,0.11818 5.87188,13.07207c1.06355,12.95392 -0.94525,14.65472 -3.57773,14.87086c-2.63251,0.21612 -4.89179,-1.1343 -5.95532,-14.0882c-1.06355,-12.95392 1.02869,-13.63862 3.66115,-13.85476z" fill="#e64e3d"/><path d="M306.88744,433.10554c2.63246,-0.21614 4.80833,0.11818 5.87188,13.07207c1.06353,12.95392 -0.94525,14.65472 -3.57773,14.87086c-2.63246,0.21612 -4.89177,-1.1343 -5.9553,-14.0882c-1.06355,-12.95392 1.02869,-13.63862 3.66115,-13.85476z" fill="#e64e3d"/><path d="M296.0144,434.67338c2.63246,-0.21614 4.80833,0.11818 5.87188,13.07207c1.06353,12.95392 -0.94525,14.65472 -3.57773,14.87086c-2.63246,0.21612 -4.89177,-1.1343 -5.9553,-14.0882c-1.06355,-12.95392 1.02869,-13.63862 3.66115,-13.85476z" fill="#e64e3d"/><path d="M284.07674,431.82763c2.63246,-0.21614 4.80833,0.11818 5.87188,13.07207c1.06353,12.95392 -0.94525,14.65472 -3.57773,14.87086c-2.63246,0.21612 -4.89177,-1.1343 -5.9553,-14.0882c-1.06355,-12.95392 1.02869,-13.63862 3.66115,-13.85476z" fill="#e64e3d"/><path d="M297.27522,404.41304c13.4192,-1.10172 24.36685,-1.15113 26.1281,20.30057c1.76121,21.45167 -8.90978,24.87124 -22.32895,25.97298c-13.41917,1.10174 -24.505,-0.53153 -26.26623,-21.98322c-1.76119,-21.45167 9.04793,-23.18856 22.46711,-24.29032z" fill="#e64e3d"/><path d="M297.27522,404.41306c13.0574,-1.07204 23.77478,-1.14773 25.96576,18.612c-7.77211,-2.12313 -16.07657,-2.95243 -24.62245,-2.2508c-8.54587,0.70165 -16.60387,2.87433 -23.92561,6.23668c-1.06125,-19.85246 9.52492,-21.52586 22.58232,-22.59788z" fill="url(#color-9)"/></g><g><path d="M312.75842,426.20957c-0.61831,-7.53105 -4.44843,-12.6877 -0.01817,-13.05145c4.43026,-0.36375 8.52295,5.44651 9.14126,12.97756c0.61831,7.53103 -2.47188,13.93101 -6.90214,14.29474c-4.43026,0.36375 -1.60261,-6.68983 -2.22092,-14.22089z" fill="url(#color-10)"/><path d="M304.38804,426.89677c-0.2737,-3.33343 0.80568,-6.14253 2.41086,-6.27431c1.60517,-0.13177 3.12829,2.46367 3.40197,5.79708c0.27367,3.33343 -0.80572,6.14253 -2.41089,6.27431c-1.60517,0.13177 -3.12829,-2.46367 -3.40197,-5.79708z" fill="url(#color-11)"/></g></g><g stroke="#000000" stroke-width="0"><path d="M278.09003,321.34914c-0.80633,-6.10191 10.64375,-86.641 11.40981,-88.08113c3.19079,-5.9984 47.27069,0.18676 48.34303,8.30165c0.49096,3.71532 -19.81164,82.46078 -22.47678,87.47097c-1.99687,3.75395 -36.30466,-0.34034 -37.27606,-7.69148z" fill="#603f3f"/><path d="M315.36607,329.04063c-1.99687,3.75395 -36.30466,-0.34034 -37.27606,-7.69148c-0.70062,-5.30215 7.85284,-66.80764 10.60964,-83.78412c-1.20465,12.37237 2.53439,26.95228 6.548,32.84527c2.30933,3.39068 4.82924,5.62412 7.76724,7.57336c2.13084,1.4137 5.42971,3.2474 8.00862,2.67229c9.45108,-2.10773 21.39645,-23.76566 26.73867,-39.46268c0.03705,0.125 0.06404,0.25046 0.08068,0.37642c0.49096,3.71532 -19.81164,82.46078 -22.47678,87.47097z" fill="url(#color-12)"/></g><g stroke="#000000" stroke-width="0"><path d="M277.98498,321.76859c2.20134,-7.1211 36.78057,-6.22088 38.11886,-2.2251c1.78614,5.33291 8.53746,86.03988 7.42488,89.63896c-2.43005,7.86094 -47.01493,7.61756 -49.15334,1.23282c-0.5134,-1.53289 1.78237,-82.7357 3.60963,-88.64668z" fill="#3b2727"/><g><path d="M270.62342,377.51035c0,0 6.51389,7.09629 24.31708,15.10259c6.16531,2.77262 27.49951,4.01457 29.8992,2.4843c1.22598,-0.78181 0.43757,16.22222 0.30435,16.65315c-2.43007,7.86094 -48.53538,6.40323 -50.89623,2.86939c-8.4634,-12.66838 -3.62438,-37.10945 -3.62438,-37.10945z" fill="#cbcbcb"/><path d="M274.24783,414.61978c-3.03528,-4.5433 -4.35961,-10.60074 -4.80982,-16.50197c12.65424,8.47313 28.36213,12.89961 44.98319,11.53497c3.7489,-0.30778 7.40392,-0.89867 10.94407,-1.74889c-0.08501,2.13998 -0.18181,3.71898 -0.22124,3.84653c-2.43007,7.86094 -48.53538,6.40323 -50.89623,2.86939z" fill="url(#color-13)"/></g></g><g stroke="#000000" stroke-width="0"><g><path d="M356.28316,210.4683c2.36558,-14.71915 42.57605,-22.85977 55.2472,-3.59785c14.54669,22.11303 34.3714,30.96294 34.3714,30.96294c0,0 -6.4141,19.12172 -61.07213,6.98962c-18.41986,-4.08855 -30.91208,-19.63558 -28.54648,-34.35473z" fill="#408841"/><path d="M391.85757,235.6398c39.68108,12.86903 54.04416,2.1936 54.04416,2.1936c0,0 -6.4141,19.12172 -61.07213,6.98962c-18.41986,-4.08855 -30.91208,-19.63558 -28.54648,-34.35473c0.15302,-0.95196 -6.4341,11.54769 35.57445,25.17151z" fill="url(#color-14)"/></g><path d="M412.30214,215.58818c-0.60172,6.48931 -9.20574,10.2108 -19.2176,8.31214c-10.01188,-1.89863 -17.64033,-8.69844 -17.03861,-15.18775c0.60172,-6.48931 9.20574,-10.21074 19.2176,-8.31212c10.01188,1.89867 17.64031,8.69839 17.03859,15.1877z" fill="url(#color-15)"/></g><g stroke="#000000" stroke-width="0"><g><path d="M304.02906,210.64961c9.28731,-20.93145 52.01876,-15.12705 55.90084,-0.67206c3.88208,14.45499 -6.94259,30.98792 -24.85757,36.6128c-53.15978,16.69093 -61.52931,-1.80571 -61.52931,-1.80571c0,0 22.03587,-15.09027 30.48605,-34.13503z" fill="#4ca04e"/><path d="M327.12261,238.04041c40.41104,-17.10875 32.5562,-28.99775 32.80728,-28.06287c3.88208,14.45499 -6.94259,30.98792 -24.85757,36.6128c-53.15978,16.69093 -61.52931,-1.80571 -61.52931,-1.80571c0,0 15.4075,9.41668 53.57958,-6.7442z" fill="url(#color-16)"/></g><path d="M304.68768,219.80194c-1.27221,-6.41007 5.61738,-13.8237 15.3884,-16.55883c9.77102,-2.73514 18.72333,0.24399 19.99556,6.65407c1.27225,6.41007 -5.6174,13.82373 -15.38842,16.55884c-9.771,2.73511 -18.7233,-0.24404 -19.99553,-6.6541z" fill="url(#color-17)"/></g><g stroke="#000000" stroke-width="0"><g><path d="M351.80592,279.17322c-1.56093,-8.84858 -2.47084,-19.47948 -2.47084,-30.91399c0,-30.80652 6.60446,-40.18566 14.75148,-40.18566c8.14705,0 14.75149,9.37915 14.75149,40.18566c0,11.43452 -0.9099,22.06543 -2.47084,30.91399c-2.6445,14.99092 -21.91685,14.99092 -24.56133,0z" fill="#e64e3d"/><path d="M349.33506,248.25923c0,-30.80652 6.60446,-40.18566 14.75148,-40.18566c8.14705,0 14.75149,9.37915 14.75149,40.18566c0,10.0531 -0.70331,19.48503 -1.93405,27.63064c-2.87608,-20.46713 -7.54574,-33.77714 -12.81744,-33.77714c-5.27169,0 -9.94136,13.31001 -12.81744,33.77716c-1.23072,-8.14563 -1.93405,-17.57757 -1.93405,-27.63065z" fill="url(#color-18)"/></g><g><path d="M364.08656,197.05044c11.37001,0 20.58724,6.74962 20.58724,15.0757c0,8.3261 -9.2172,10.86098 -20.58724,10.86098c-11.37003,0 -20.58724,-2.53488 -20.58724,-10.86098c0,-8.32608 9.2172,-15.0757 20.58724,-15.0757z" fill="#e64e3d"/><path d="M346.19849,204.6584c4.01385,5.53165 10.53084,9.12897 17.88806,9.12897c7.35719,0 13.8742,-3.59732 17.88806,-9.12897c1.71762,2.20151 2.69918,4.75068 2.69918,7.46775c0,8.3261 -9.2172,10.86098 -20.58724,10.86098c-11.37003,0 -20.58724,-2.53488 -20.58724,-10.86098c0,-2.71704 0.98156,-5.26622 2.69918,-7.46775z" fill="url(#color-19)"/></g></g><path d="M431.78196,169.41885c-9.54905,50.30888 -72.05673,22.88744 -72.05673,22.88744c0,0 -61.35386,28.96789 -72.05673,-21.05645c-19.87772,-92.90676 -11.99357,-130.54693 72.05673,-132.74714c76.85388,-2.01182 88.06934,46.55401 72.05673,130.91613z" fill="#e64e3d" stroke="#000000" stroke-width="0"/><path d="M363.67525,159.79308c44.65246,0 49.73111,2.2249 49.73111,4.96944c0,2.74454 -5.07865,4.96944 -49.73111,4.96944c-44.65249,0 -49.73111,-2.2249 -49.73111,-4.96944c0,-2.74454 5.07865,-4.96944 49.73111,-4.96944z" fill="url(#color-20)" stroke="#000000" stroke-width="0"/><path d="M405.45678,165.14841c-31.76945,1.04047 -69.95898,0.30608 -81.43071,0c-1.70652,-0.04551 -4.59008,-2.10246 -1.34875,-2.20863c13.92191,-0.45596 30.65678,0.35075 44.33988,0.22671c17.86666,-0.16195 31.59985,-1.13228 37.93378,-0.66844c1.5067,0.11035 2.77404,2.57608 0.5058,2.65037z" fill="#0b0403" stroke="#000000" stroke-width="0"/><path d="M384.93138,166.03586c-12.11082,0 -21.92859,-8.07392 -21.92859,-18.03356c0,-9.95966 9.81775,-18.03356 21.92859,-18.03356c12.11082,0 21.92859,8.07392 21.92859,18.03356c0,9.95966 -9.81775,18.03356 -21.92859,18.03356z" fill="url(#color-21)" stroke="#000000" stroke-width="0"/><path d="M367.84076,165.81964c-12.11082,0 -21.92859,-8.07392 -21.92859,-18.03356c0,-9.95963 9.81775,-18.03351 21.92859,-18.03351c12.11081,0 21.92859,8.07388 21.92859,18.03351c0,9.95966 -9.81775,18.03356 -21.92859,18.03356z" fill="url(#color-22)" stroke="#000000" stroke-width="0"/><path d="M378.25947,140.80929c17.99337,7.03825 36.02836,7.37883 36.02836,7.37883c0,0 -1.74629,6.92475 -31.33502,8.287c-9.97144,0.45908 -17.80712,-3.43568 -17.80712,-8.51403c0,-5.07834 4.09492,-10.67956 13.11378,-7.15177z" fill="#558856" stroke="#000000" stroke-width="0"/><path d="M365.14568,147.96107c0,-0.32846 -2.393,4.43285 20.70919,4.80153c21.82222,0.34827 28.43297,-4.57447 28.43297,-4.57447c0,0 -1.74629,6.92475 -31.33502,8.287c-9.97144,0.45908 -17.80712,-3.43568 -17.80712,-8.51403z" fill="url(#color-23)" stroke="#000000" stroke-width="0"/><path d="M326.2448,149.21318c0,-9.95966 9.81775,-18.03356 21.92859,-18.03356c12.11082,0 21.92859,8.07392 21.92859,18.03356c0,9.95966 -9.81775,18.03356 -21.92859,18.03356c-12.11082,0 -21.92859,-8.07392 -21.92859,-18.03356z" fill="url(#color-24)" stroke="#000000" stroke-width="0"/><path d="M369.7996,147.96105c0,5.07835 -7.83566,8.9731 -17.80712,8.51403c-29.58872,-1.36224 -31.33502,-8.287 -31.33502,-8.287c0,0 18.03498,-0.34057 36.02836,-7.37883c9.01886,-3.52781 13.11378,2.07342 13.11378,7.15177z" fill="#558856" stroke="#000000" stroke-width="0"/><path d="M369.79957,147.96107c0,5.07835 -7.83566,8.9731 -17.80712,8.51403c-29.58872,-1.36224 -31.33502,-8.287 -31.33502,-8.287c0,0 6.61076,4.92274 28.43298,4.57447c23.10215,-0.36866 20.70915,-5.12996 20.70915,-4.80153z" fill="url(#color-25)" stroke="#000000" stroke-width="0"/><path d="M365.27324,105.32861c0,-19.70865 13.96735,-31.75695 31.19697,-31.75695c17.22962,0 31.19697,12.0483 31.19697,31.75693c0,19.70861 -13.96735,33.06649 -31.19697,33.06649c-17.22962,0 -31.19697,-13.35786 -31.19697,-33.06649z" fill="url(#color-26)" stroke="#000000" stroke-width="0"/><path d="M396.47022,78.65148c13.57023,0 24.57108,10.15999 24.57108,26.77971c0,16.61973 -11.00084,27.88402 -24.57108,27.88402c-13.57023,0 -24.57108,-11.26431 -24.57108,-27.88402c0,-16.61973 11.00084,-26.77971 24.57108,-26.77971z" fill="#000000" stroke="#000000" stroke-width="0"/><g><g fill="none" stroke="none" stroke-width="1" font-family="sans-serif" font-weight="normal" font-size="12" text-anchor="start"/><path d="M396.47022,127.24142c-9.19194,0 -17.08861,-4.853 -20.52635,-12.66431c3.9896,3.94453 9.47437,6.38 15.52797,6.38c12.19793,0 22.08635,-9.88842 22.08635,-22.08635c0,-3.27859 -0.7144,-6.39031 -1.99596,-9.18803c4.4682,3.60006 7.27043,9.0325 7.27043,15.87114c0,12.92647 -10.012,21.68758 -22.36243,21.68758z" fill="url(#color-27)" stroke="#000000" stroke-width="0"/></g><path d="M359.2173,105.32859c0,19.70863 -13.96737,33.06649 -31.19697,33.06649c-17.22962,0 -31.19697,-13.35788 -31.19697,-33.06649c0,-19.70863 13.96735,-31.75693 31.19697,-31.75693c17.2296,0 31.19697,12.0483 31.19697,31.75695z" fill="url(#color-28)" stroke="#000000" stroke-width="0"/><path d="M352.5914,105.43121c0,16.6197 -11.00084,27.88402 -24.57108,27.88402c-13.57023,0 -24.57108,-11.26429 -24.57108,-27.88402c0,-16.6197 11.00084,-26.77971 24.57108,-26.77971c13.57023,0 24.57108,10.15997 24.57108,26.77971z" fill="#000000" stroke="#000000" stroke-width="0"/><g><g fill="none" stroke="none" stroke-width="1" font-family="sans-serif" font-weight="normal" font-size="12" text-anchor="start"/><path d="M328.02034,127.24147c-12.35042,0 -22.36243,-8.76111 -22.36243,-21.68758c0,-6.83864 2.80223,-12.27108 7.27041,-15.87114c-1.28158,2.79773 -1.99595,5.90944 -1.99595,9.18803c0,12.19793 9.88842,22.08635 22.08635,22.08635c6.0536,0 11.53837,-2.43547 15.52797,-6.38c-3.43775,7.81131 -11.33441,12.66431 -20.52635,12.66431z" fill="url(#color-29)" stroke="#000000" stroke-width="0"/></g><g stroke="#000000" stroke-width="0"><path d="M431.78196,169.41885c-9.54905,50.30888 -72.05673,22.88744 -72.05673,22.88744c0,0 -61.35386,28.96789 -72.05673,-21.05645c-19.87772,-92.90676 -11.99357,-130.54693 72.05673,-132.74714c76.85388,-2.01182 88.06934,46.55401 72.05673,130.91613zM389.77231,70.00099c-0.43952,-0.20145 -0.8577,-0.4101 -1.25949,-0.62349c-2.09879,-1.80155 -4.53968,-3.21585 -7.21189,-4.13201c-1.7722,-0.75053 -3.85959,-1.27435 -6.69294,-1.35545c-10.37165,-0.29691 -19.19616,4.84378 -28.92281,6.05654c-14.72176,1.83558 -37.74857,5.13521 -45.5116,19.77391c-7.09221,13.37377 -5.68102,31.29131 -2.40549,45.75382c3.33586,14.72885 8.30809,26.21675 20.10779,34.84208c11.53267,8.43015 25.12007,-1.5105 36.85381,-1.33287c20.31631,0.3076 31.6216,12.17878 51.72664,-2.34153c32.05316,-23.14953 12.36955,-77.12631 -15.59198,-95.76733z" fill="url(#color-30)"/><path d="M411.63893,162.96005c2.70876,-9.48063 8.54933,-16.12487 13.04532,-14.8403c4.49597,1.28457 5.94481,10.01152 3.23605,19.49213c-2.70876,9.48066 -8.54933,16.12487 -13.04532,14.8403c-4.49597,-1.28457 -5.94481,-10.01148 -3.23605,-19.49211z" fill="url(#color-31)"/><path d="M409.92475,167.17716c3.45134,0.98609 4.5635,7.68526 2.48415,14.96302c-2.07937,7.27776 -6.56287,12.37817 -10.01418,11.39208c-3.45134,-0.98609 -4.5635,-7.68526 -2.48415,-14.96302c2.0794,-7.27776 6.56287,-12.37817 10.01418,-11.39208z" fill="url(#color-32)"/><path d="M285.06154,88.01522c2.07937,-7.27776 6.56285,-12.37817 10.01414,-11.39208c3.45134,0.98609 4.5635,7.68526 2.48415,14.96302c-2.07937,7.27776 -6.56289,12.37817 -10.01418,11.39208c-3.45131,-0.98609 -4.56349,-7.68526 -2.48413,-14.96302z" fill="url(#color-33)"/></g><path d="M285.421,88.71998c2.6429,0 4.78539,7.00429 4.78539,15.64448c0,8.64021 -2.14249,15.64448 -4.78539,15.64448c-2.6429,0 -4.78539,-7.00429 -4.78539,-15.64448c0,-8.64021 2.14249,-15.64448 4.78539,-15.64448z" fill="url(#color-34)" stroke="#000000" stroke-width="0"/><path d="M281.38824,130.5698c-0.56066,-5.2874 0.29594,-9.71277 1.91327,-9.88424c1.61733,-0.17148 3.38294,3.97579 3.94359,9.2632c0.56064,5.28742 -0.29594,9.71277 -1.91327,9.88424c-1.61731,0.17148 -3.38294,-3.97577 -3.94359,-9.26319z" fill="url(#color-35)" stroke="#000000" stroke-width="0"/><g stroke="#000000" stroke-width="0"><g><g><path d="M440.20688,60.96167c-6.87244,25.27348 -32.19728,40.39026 -56.56462,33.76422c-24.36733,-6.62604 -38.54969,-32.48575 -31.67724,-57.75925c6.87247,-25.2735 32.19726,-40.39026 56.56461,-33.76422c24.36731,6.62604 38.54973,32.48573 31.67726,57.75923z" fill="url(#color-36)"/><path d="M405.96927,51.06239c-6.87244,25.27348 -32.19728,40.39026 -56.56462,33.76422c-24.36731,-6.62604 -38.54973,-32.48575 -31.67726,-57.75925c6.87247,-25.2735 32.19726,-40.39026 56.56461,-33.76422c24.36733,6.62604 38.54976,32.48573 31.67729,57.75923z" fill="url(#color-37)"/><path d="M408.64482,29.72479c23.8092,7.72593 46.37891,35.77223 46.37891,35.77223c0,0 -8.2919,16.61676 -68.76518,3.88508c-20.37963,-4.29059 -33.4577,-18.46094 -29.95349,-31.34769c3.50419,-12.88674 28.53058,-16.03554 52.33976,-8.30961z" fill="#4ca04e"/><path d="M394.6593,61.54902c43.66658,12.82306 60.36443,3.948 60.36443,3.948c0,0 -8.2919,16.61676 -68.76518,3.88508c-20.37963,-4.29059 -33.4577,-18.46094 -29.95349,-31.34769c0.22664,-0.83349 -7.87359,9.93946 38.35424,23.5146z" fill="url(#color-38)"/></g><path d="M418.70971,44.63558c-1.05107,5.69788 -10.89814,8.6577 -21.99404,6.61086c-11.09593,-2.04683 -19.23886,-8.32517 -18.18779,-14.02307c1.05107,-5.69788 10.89814,-8.65767 21.99404,-6.61084c11.09593,2.04684 19.23886,8.32515 18.18779,14.02305z" fill="url(#color-39)"/></g><g><g><path d="M363.92673,37.44072c3.39361,12.91633 -9.80544,26.97402 -30.2211,31.08977c-60.58022,12.21283 -68.72937,-4.4744 -68.72937,-4.4744c0,0 12.86816,-24.88925 44.64126,-34.45611c31.7731,-9.56686 50.9156,-5.07563 54.30921,7.84072z" fill="#4ca04e"/><path d="M363.92673,37.4407c3.39361,12.91633 -9.80544,26.97402 -30.2211,31.08977c-60.58022,12.21283 -68.72937,-4.4744 -68.72937,-4.4744c0,0 16.62115,9.0179 60.39608,-3.43036c46.34252,-13.17838 38.33491,-24.02038 38.5544,-23.18501z" fill="url(#color-40)"/></g><path d="M328.61608,30.61251c11.09591,-2.04683 20.94296,0.91296 21.99404,6.61084c1.05107,5.6979 -7.09189,11.97624 -18.18779,14.02307c-11.09591,2.04683 -20.94296,-0.91299 -21.99404,-6.61086c-1.05107,-5.69792 7.09188,-11.97623 18.18779,-14.02305z" fill="url(#color-41)"/></g></g><g stroke="#000000" stroke-width="0"><path d="M288.608,38.85274c-0.36114,-8.92111 28.8493,-17.34741 65.24334,-18.8207c36.39406,-1.47328 66.19003,4.56438 66.55115,13.48549c0.36114,8.92111 -28.8493,17.3474 -65.24334,18.82068c-36.39406,1.47327 -66.19003,-4.56438 -66.55115,-13.48549z" fill="url(#color-42)"/><g><g><g><path d="M416.84314,26.50196c-5.04728,2.18504 -31.71403,-2.08794 -60.68292,0.24471c-29.1606,2.34808 -60.61652,11.29173 -63.31089,10.42043c-1.24142,-0.40145 -6.77055,-50.86613 -4.01193,-52.06039c9.73216,-4.21325 63.61623,5.42446 63.61623,5.42446c0,0 57.33397,-8.031 62.67824,-6.30276c3.71315,1.20082 4.74191,40.96149 1.71127,42.27353z" fill="#533737"/><path d="M416.84316,26.50196c-5.04728,2.18504 -31.71403,-2.08794 -60.68292,0.24471c-29.1606,2.34808 -60.61652,11.29173 -63.31089,10.42043c-1.24142,-0.40145 -6.77055,-50.86613 -4.01193,-52.06039c9.73215,-4.21325 69.37559,11.4425 69.37559,11.4425c0,0 51.57458,-14.04904 56.91886,-12.3208c3.71315,1.20082 4.74191,40.96149 1.71127,42.27353z" fill="#3b2727"/></g><path d="M416.84314,26.50196c-5.04728,2.18504 -31.71403,-2.08794 -60.68292,0.24471c-29.1606,2.34808 -60.61652,11.29173 -63.31089,10.42043c-1.01597,-0.32855 -4.90376,-34.18847 -4.77017,-47.13012c10.91146,10.76447 29.16464,22.21933 45.24358,22.38648c26.61035,6.31201 59.2199,3.13698 77.74859,-14.58655c2.4006,-2.29631 4.51034,-4.52069 6.3127,-6.73511c1.7216,11.73541 1.73557,34.4146 -0.5409,35.40014z" fill="url(#color-43)"/></g><path d="M427.04032,33.98424c-5.91911,0.75566 -38.78697,-0.3621 -72.3891,1.30035c-33.82447,1.67346 -68.37497,6.12426 -71.46079,5.99374c-1.42179,-0.06015 -5.98763,-13.08112 -2.75255,-13.49413c11.41319,-1.45706 46.16691,-4.35581 76.64017,-5.23358c33.87365,-0.97571 63.39575,0.16126 69.51643,0.42011c4.25261,0.17986 3.99994,10.55975 0.44583,11.01348z" fill="#4f3434"/></g></g><path d="M326.9914,106.48335c0,-0.5702 0.46224,-1.03244 1.03244,-1.03244c0.5702,0 1.03244,0.46224 1.03244,1.03244c0,0.5702 -0.46224,1.03244 -1.03244,1.03244c-0.5702,0 -1.03244,-0.46224 -1.03244,-1.03244z" fill="#ffffff" stroke="none" stroke-width="0.5"/><path d="M396.60738,106.95532c0,-0.5702 0.46224,-1.03244 1.03244,-1.03244c0.5702,0 1.03244,0.46224 1.03244,1.03244c0,0.5702 -0.46224,1.03244 -1.03244,1.03244c-0.5702,0 -1.03244,-0.46224 -1.03244,-1.03244z" fill="#ffffff" stroke="none" stroke-width="0.5"/></g></g></svg>