<svg version="1.1" xmlns="http://www.w3.org/2000/svg" xmlns:xlink="http://www.w3.org/1999/xlink" width="151.5" height="147" viewBox="0,0,151.5,147"><defs><linearGradient x1="360" y1="106.5" x2="360" y2="253.5" gradientUnits="userSpaceOnUse" id="color-1"><stop offset="0" stop-color="#000000"/><stop offset="1" stop-color="#272727"/></linearGradient><linearGradient x1="360" y1="106.5" x2="360" y2="253.5" gradientUnits="userSpaceOnUse" id="color-2"><stop offset="0" stop-color="#000000" stop-opacity="0"/><stop offset="1" stop-color="#000000"/></linearGradient></defs><g transform="translate(-284.25,-106.5)"><g data-paper-data="{&quot;isPaintingLayer&quot;:true}" fill-rule="nonzero" stroke-linejoin="miter" stroke-miterlimit="10" stroke-dasharray="" stroke-dashoffset="0" style="mix-blend-mode: normal"><path d="M284.25,253.5v-147h151.5v147z" fill="url(#color-1)" stroke="none" stroke-width="NaN" stroke-linecap="butt"/><g><g fill="#ffffff" stroke="none" stroke-width="0" stroke-linecap="butt"><path d="M313.41856,187.88497c-4.65049,-24.27327 11.25692,-47.7206 35.53019,-52.37108c24.27327,-4.65049 47.7206,11.25692 52.37109,35.53018c4.65049,24.27327 -11.25692,47.72061 -35.53019,52.37109c-24.27327,4.65049 -47.7206,-11.25692 -52.37109,-35.53019z"/><path d="M407.14726,197.64594c1.35098,7.05145 -2.29712,21.31295 -28.06204,26.24922c-25.76492,4.93627 -48.66688,-4.23854 -50.01786,-11.28999c-1.35098,-7.05145 12.79773,-22.30656 38.56265,-27.24283c25.76492,-4.93627 38.16627,5.23215 39.51725,12.28359z"/></g><path d="M380.2038,167.61638c9.08154,-1.50101 17.83074,5.6749 19.5419,16.02785c1.71116,10.35295 -31.176,15.7886 -32.88715,5.43565c-1.71116,-10.35295 4.26372,-19.96249 13.34526,-21.4635z" data-paper-data="{&quot;index&quot;:null}" fill="#000000" stroke="none" stroke-width="0" stroke-linecap="butt"/><path d="M380.16806,182.16667c0,-3.09279 0.67157,-5.6 1.5,-5.6c0.82843,0 1.5,2.5072 1.5,5.6c0,3.09279 -0.67157,5.6 -1.5,5.6c-0.82843,0 -1.5,-2.5072 -1.5,-5.6z" fill="#000000" stroke="#00aaff" stroke-width="1.5" stroke-linecap="butt"/><path d="M357.50139,199.67371l7.2,-9.6l7,9.4l-5.49376,0.07738l-1.25506,-2.73408l-1.12299,2.76758z" fill="#000000" stroke="none" stroke-width="0" stroke-linecap="butt"/><path d="M338.86858,172.31855c9.08154,-1.50101 17.78511,5.39883 19.43998,15.41122c1.65487,10.01239 -31.23228,15.44804 -32.88715,5.43565c-1.65487,-10.01239 4.36564,-19.34585 13.44717,-20.84687z" data-paper-data="{&quot;index&quot;:null}" fill="#000000" stroke="none" stroke-width="0" stroke-linecap="butt"/><g stroke="#000000" stroke-width="2.5"><path d="M363.42768,220.57766c-0.52752,0.00251 -1.04957,-0.00207 -1.56616,-0.01348c-0.01407,-2.85911 -0.08305,-5.74592 0.37386,-8.55683c0.52074,-3.20359 1.1001,-6.40249 1.49512,-9.62413c5.08253,-0.11191 10.14454,-0.42004 14.82377,-0.77672c0.38202,1.35666 0.56183,2.77662 0.81586,4.41939c0.51631,3.33893 1.03263,6.67786 1.54894,10.01679c0.10128,0.65496 0.20256,1.30993 0.30384,1.96489c-4.81053,1.53913 -10.68038,2.53626 -17.79524,2.57008z" fill="#ffffff" stroke-linecap="butt"/><path d="M400.95442,200.54731c0,2.49879 -4.5851,12.43596 -19.26653,17.30873c-0.09727,-0.62904 -0.19454,-1.25808 -0.29181,-1.88712c-0.51631,-3.33893 -1.03263,-6.67786 -1.54894,-10.01679c-0.25048,-1.61982 -0.43615,-3.03373 -0.80577,-4.38304c12.34968,-0.95534 21.91306,-2.21666 21.91306,-1.02179z" fill="#ffffff" stroke-linecap="butt"/><path d="M342.94405,216.61675c0.17536,-0.50269 0.35071,-1.00537 0.52607,-1.50806c1.10608,-3.17077 0.79658,-6.74905 0.89819,-10.0965c0.03124,-1.02938 0.06249,-2.05876 0.09373,-3.08814c5.47914,0.31886 11.66886,0.57618 17.87509,0.48482c0.30192,-0.00444 0.60389,-0.00963 0.90583,-0.01552c-0.394,3.1921 -0.96797,6.36202 -1.48399,9.53656c-0.4605,2.83302 -0.39328,5.74069 -0.37987,8.62159c-7.23594,-0.22054 -13.38466,-1.78114 -18.43505,-3.93476z" fill="#ffffff" stroke-linecap="butt"/><path d="M325.65962,201.51263c0,-1.06457 7.78861,-0.24111 18.3204,0.38311c-0.03138,1.03394 -0.06277,2.06787 -0.09415,3.10181c-0.09999,3.29428 0.21652,6.83323 -0.87148,9.95217c-0.1715,0.49163 -0.343,0.98326 -0.51449,1.47488c-11.18504,-4.90865 -16.84028,-12.69114 -16.84028,-14.91197z" fill="#ffffff" stroke-linecap="butt"/><path d="M321.33946,201.45319c0,0 2.3876,0.20893 3.12915,-0.68874c0.78445,-0.9496 0.97345,-4.13785 0.97345,-4.13785" fill="none" stroke-linecap="round"/><path d="M401.9435,195.41996c0,0 -0.5532,3.47691 0.17791,4.16954c0.79237,0.75067 2.71804,0.65705 2.71804,0.65705" fill="none" stroke-linecap="round"/></g></g><path d="M284.25,253.5v-147h151.5v147z" fill="url(#color-2)" stroke="none" stroke-width="NaN" stroke-linecap="butt"/></g></g></svg>