<svg version="1.1" xmlns="http://www.w3.org/2000/svg" xmlns:xlink="http://www.w3.org/1999/xlink" width="902.66008" height="546.96899" viewBox="0,0,902.66008,546.96899"><defs><radialGradient cx="363.01172" cy="175.46622" r="374.62462" gradientUnits="userSpaceOnUse" id="color-1"><stop offset="0" stop-color="#000000" stop-opacity="0"/><stop offset="1" stop-color="#000000" stop-opacity="0.58039"/></radialGradient></defs><g transform="translate(20,31.5)"><g stroke-width="0" stroke-miterlimit="10"><path d="M-12,368v-376h744v376z" fill="#aac8f3" stroke="#414141"/><path d="M676.06324,83.16269c-25.16817,10.23529 -105.68714,26.66398 -140.76071,34.53984c-86.79543,19.49014 -134.90737,-25.4213 -113.76114,-46.42511c-2.43229,-10.83171 7.74789,-18.92747 32.15132,-16.64337c19.53462,1.82839 48.1832,14.62296 86.77198,5.95775c48.22813,-10.82976 102.2803,-44.80144 132.83423,-43.59122c24.43349,0.96782 9.28526,21.43396 11.2312,30.09979c2.60965,11.62154 28.64784,20.96862 -8.46688,36.0623z" fill="#ffffff" stroke="none"/><path d="M435.937,33.21016c16.04328,2.66768 -49.10572,20.85486 -25.14743,6.78153c8.72226,-41.77391 65.23878,-17.71516 71.53408,1.60518c5.77512,17.72405 -3.05163,37.14682 -4.00132,41.87613c-4.6379,23.09581 -31.13394,38.03808 -59.18064,33.37452c-8.59832,-1.42974 -51.35485,-11.53627 -61.56668,-28.14214c-10.96609,-17.83246 11.06203,-42.58995 16.13042,-54.92501c5.60708,-13.64612 52.01667,-2.26876 62.23156,-0.57021z" fill="#ffffff" stroke="none"/><path d="M648.36923,15.43233c24.67706,-30.237 63.63373,-39.28183 87.01217,-20.20217c23.37844,19.07966 17.4408,61.8703 -7.23627,92.10729c-24.67706,30.237 -104.45297,-41.66813 -79.77591,-71.90512z" fill="#1b1b1b" stroke="none"/><path d="M-20,404.5v-436h241l159,435z" fill="#2e2e2e" stroke="none"/><path d="M-9,377.77369v-394c0,0 103.45891,75.03128 145.74621,173.04342c51.98674,120.49321 82.25379,220.95658 82.25379,220.95658z" fill="#000000" stroke="#414141"/><path d="M120.47395,442.22609c11.70607,-21.90825 58.69573,-80.52964 78.74342,-106.57056c49.61137,-64.44263 74.36442,-69.12089 88.84421,-57.97358c14.47982,11.14733 13.20323,33.89904 -36.40813,98.34166c-27.56669,35.80774 -68.3729,94.07753 -90.55589,111.08978c-17.73941,13.6044 -19.05737,-9.63681 -25.49145,-14.59011c-8.62859,-6.64275 -32.3947,2.01028 -15.13213,-30.29717z" fill="#ffffff" stroke="none"/><path d="M314.03734,234.83909c11.8753,6.39527 -2.88046,47.5134 -5.39569,56.64019c-3.95035,14.33433 23.46141,3.62682 33.98116,26.74911c2.07349,4.55749 -27.84949,10.7443 -46.0154,14.63239c-16.66499,3.5668 -33.48691,-6.30504 -37.69692,-7.61802c-20.55984,-6.41207 -31.62852,-31.92447 -24.72261,-56.9836c2.11717,-7.68241 15.37022,-45.59967 31.44012,-53.30696c17.25689,-8.27656 37.67497,14.10605 48.40934,19.88689z" fill="#ffffff" stroke="none"/><path d="M193.51272,471.33821c-24.5144,27.33493 -46.94677,57.11285 -75.071,38.14463c-28.12424,-18.96822 -31.05057,-56.50433 -6.53616,-83.83925c24.5144,-27.33493 106.12157,18.3597 81.60717,45.69462z" fill="#0e0e22" stroke="none"/><path d="M795.12934,-6.87982c-0.8928,2.92211 -33.44317,93.37515 -55.31942,178.79075c-8.58526,33.52106 -10.93525,67.29736 -14.95166,92.25497c-3.90406,24.25929 -9.59447,40.17553 -9.59447,40.17553c0,0 -144.71372,18.74867 -156.14531,-69.82469c-5.91828,-45.85546 124.9397,-154.24668 135.00291,-206.8116c10.07913,-52.64793 42.74922,-59.41953 55.05638,-55.71396c45.0533,13.56512 48.8487,11.64679 45.95156,21.12901z" fill="#353535" stroke="#000000"/><path d="M627.09477,456.34216c-13.11417,-77.01513 54.301,-268.69039 83.08393,-287.5846c12.39431,-8.13608 70.65973,-8.49702 84.21724,0.06441c20.55733,12.98171 25.3373,184.42055 34.71972,245.72326c9.00062,58.80802 -34.72397,52.98775 -44.74273,40.21481c-12.90483,-16.45239 -28.68847,-203.73389 -28.68847,-203.73389c0,0 -69.55724,201.17073 -78.59088,216.12882c-9.67742,16.02406 -45.1867,17.44697 -49.99881,-10.81281z" fill="#464646" stroke="none"/><path d="M801.75983,-0.06452c47.81243,10.73246 91.30204,3.79872 78.69565,59.95933c-3.3879,15.09287 -61.02913,159.3803 -81.02111,163.43656c-29.43332,5.97185 -56.67696,-1.70396 -85.81418,-13.89522c-8.17127,-3.41892 -30.89554,-21.77938 -32.51798,-45.65808c-3.28458,-48.34158 49.4146,-125.72247 52.24642,-138.33807c0,0 3.36016,-21.69706 18.62858,-29.8426c10.95791,-5.84594 29.80556,-0.14617 49.78261,4.33808z" fill="#2c2c2c" stroke="none"/><path d="M-11.6129,366.15691v-381.38138h749.24925v381.38138z" fill="url(#color-1)" stroke="#414141"/></g></g></svg>