<svg version="1.1" xmlns="http://www.w3.org/2000/svg" xmlns:xlink="http://www.w3.org/1999/xlink" width="758.25826" height="394.76081" viewBox="0,0,758.25826,394.76081"><defs><radialGradient cx="360.58709" cy="179.99998" r="362.61261" gradientUnits="userSpaceOnUse" id="color-1"><stop offset="0" stop-color="#000000" stop-opacity="0.83922"/><stop offset="1" stop-color="#000000" stop-opacity="0"/></radialGradient><radialGradient cx="360.58709" cy="179.99998" r="362.61262" gradientUnits="userSpaceOnUse" id="color-2"><stop offset="0" stop-color="#000000" stop-opacity="0"/><stop offset="1" stop-color="#000000"/></radialGradient><linearGradient x1="-12.50451" y1="188.24325" x2="148.32658" y2="188.24325" gradientUnits="userSpaceOnUse" id="color-3"><stop offset="0" stop-color="#000000"/><stop offset="1" stop-color="#000000" stop-opacity="0"/></linearGradient><linearGradient x1="743.41667" y1="185" x2="582.58559" y2="185" gradientUnits="userSpaceOnUse" id="color-4"><stop offset="0" stop-color="#000000"/><stop offset="1" stop-color="#000000" stop-opacity="0"/></linearGradient><linearGradient x1="364.5428" y1="-9.95495" x2="364.5428" y2="117.67268" gradientUnits="userSpaceOnUse" id="color-5"><stop offset="0" stop-color="#000000"/><stop offset="1" stop-color="#000000" stop-opacity="0"/></linearGradient><linearGradient x1="363.53679" y1="384.56562" x2="363.53679" y2="256.93799" gradientUnits="userSpaceOnUse" id="color-6"><stop offset="0" stop-color="#000000"/><stop offset="1" stop-color="#000000" stop-opacity="0"/></linearGradient></defs><g transform="translate(14.84159,10.1952)"><g stroke-width="0" stroke-miterlimit="10"><path d="M-12.41291,360v-360h746v360z" fill="#323232" stroke="#000000"/><path d="M0,360.55856v-360l295,-4.12012l1,248.62012z" fill="#505050" stroke="none"/><path d="M720,0v360l-295,-116l-1,-244.11562z" fill="#505050" stroke="none"/><path d="M147.93844,299.43607l26.95041,-54.84255c0,0 24.27389,-49.39598 37.79906,-76.91893c15.77519,-32.10162 31.87186,-64.85741 45.00939,-91.59153c11.90623,-24.22849 21.38201,-43.51118 25.98544,-52.87889c5.89371,-11.99337 11.40286,-23.20416 11.40286,-23.20416h130.52327l150.15015,299.43607z" fill="#1a1a1a" stroke="none"/><g fill="#a7a7a7" stroke="none"><path d="M266.09051,245.72823l11.83159,-24.07662c0,0 10.65657,-21.6855 16.59429,-33.76845c6.92552,-14.09304 13.99217,-28.47327 19.75973,-40.20991c5.22699,-10.63664 9.38699,-19.10199 11.40796,-23.21454c2.58742,-5.26525 5.00601,-10.18694 5.00601,-10.18694h57.30147l65.91794,131.45646z"/><path d="M297.19702,133.61112l62.70166,-71.41292l62.9043,71.41292z"/></g><g stroke="none"><path d="M125.62794,286.78887l19.23541,-145.89854l10.46806,1.38012l-19.23541,145.89854z" fill="#0d2e8b"/><path d="M147.87257,289.72163l19.23541,-145.89854l10.46806,1.38012l-19.23541,145.89854z" fill="#09205f"/><g><path d="M188.11717,312.54609c-55.80697,1.52205 -31.35524,-6.31472 -29.23532,-22.3941c2.11992,-16.07938 16.87336,-27.39575 32.95274,-25.27583c16.07938,2.11992 27.39575,16.87336 25.27583,32.95274c-2.11992,16.07938 22.72292,13.30671 -28.99325,14.71718z" fill="#11111c"/><path d="M176.87911,314.88605c-37.21238,0.47088 -27.39575,-9.6143 -25.27583,-25.69367c2.11992,-16.07938 16.87336,-27.39575 32.95274,-25.27583c16.07938,2.11992 27.39575,16.87336 25.27583,32.95274c-2.11992,16.07938 7.67449,17.50266 -32.95274,18.01676z" fill="#0a0a10"/></g><path d="M144.64148,298.63788c0,0 -17.54281,-0.26354 -22.38783,-4.55269c-4.8729,-4.31383 -6.76642,-21.25669 -6.76642,-21.25669l173.37719,22.85822c0,0 -6.1377,14.17455 -9.97396,17.68216c-2.8923,2.64452 -11.02222,1.51533 -11.02222,1.51533z" fill="#0f37a6"/><g><path d="M141.24707,157.68735l2.92079,-22.15389l33.90902,4.4706l-2.92079,22.15389z" fill="#0d2e8b"/><path d="M132.3087,145.23942c0.80655,-6.11763 6.41971,-10.42311 12.53734,-9.61655c6.11763,0.80655 10.42311,6.41972 9.61655,12.53734c-0.80655,6.11763 -6.41972,10.4231 -12.53734,9.61655c-6.11763,-0.80655 -10.4231,-6.41971 -9.61655,-12.53734z" fill="#0f37a6"/><path d="M165.53954,149.62061c0.80655,-6.11763 6.41972,-10.42311 12.53734,-9.61655c6.11763,0.80655 10.4231,6.41972 9.61655,12.53734c-0.80655,6.11763 -6.41971,10.4231 -12.53734,9.61655c-6.11763,-0.80655 -10.42311,-6.41971 -9.61655,-12.53734z" fill="#0d2e8b"/></g><g><path d="M126.36846,286.22088c2.0961,-15.89871 16.68378,-27.08793 32.58248,-24.99183c15.89871,2.0961 27.08793,16.68378 24.99183,32.58248c-2.0961,15.89871 -16.68378,27.08793 -32.58248,24.99183c-15.89871,-2.0961 -27.08793,-16.68378 -24.99183,-32.58248z" fill="#0a0a10"/><path d="M119.08541,285.9263c2.0961,-15.89871 16.68378,-27.08793 32.58248,-24.99183c15.89871,2.0961 27.08793,16.68378 24.99183,32.58248c-2.0961,15.89871 -16.68378,27.08793 -32.58248,24.99183c-15.89871,-2.0961 -27.08793,-16.68378 -24.99183,-32.58248z" fill="#11111c"/><path d="M135.11462,288.03961c0.92895,-7.04602 7.39394,-12.00488 14.43996,-11.07592c7.04602,0.92895 12.00488,7.39394 11.07592,14.43996c-0.92895,7.04602 -7.39394,12.00488 -14.43996,11.07592c-7.04602,-0.92895 -12.00488,-7.39394 -11.07592,-14.43996z" fill="#37373f"/></g></g><g stroke="none"><path d="M257.12014,154.29949l121.17442,43.41471l-43.41471,121.17442l-121.17442,-43.41471z" fill="#9f7d3f"/><path d="M268.22867,177.81222l86.55316,31.0105l-31.0105,86.55316l-86.55316,-31.0105z" fill="#6b552b"/><path d="M334.29733,195.9027l4.94589,1.77203l-34.55456,96.44494l-4.94589,-1.77203z" fill="#9f7d3f"/><path d="M310.80433,187.48556l4.94589,1.77203l-34.55456,96.44494l-4.94589,-1.77203z" fill="#9f7d3f"/><path d="M285.52886,180.14935l4.94589,1.77203l-34.55456,96.44494l-4.94589,-1.77203z" fill="#9f7d3f"/></g><g stroke="#000000"><path d="M-2.02552,366.18619v-372.37237h725.22523v372.37237z" fill="url(#color-1)"/><path d="M-2.02553,366.18619v-372.37237h725.22523v372.37237z" fill="url(#color-2)"/></g><g stroke="none"><path d="M-12.50451,383.43844v-390.39039h160.83109v390.39039z" fill="url(#color-3)"/><path d="M582.58559,380.19519v-390.39039h160.83108v390.39039z" fill="url(#color-4)"/><path d="M-13.83558,117.67268v-127.62762h756.75676v127.62763z" fill="url(#color-5)"/><path d="M741.91517,256.93799v127.62762h-756.75676v-127.62762z" fill="url(#color-6)"/></g></g></g></svg>