<svg version="1.1" xmlns="http://www.w3.org/2000/svg" xmlns:xlink="http://www.w3.org/1999/xlink" width="86.04748" height="293.21148" viewBox="0,0,86.04748,293.21148"><defs><linearGradient x1="336.51367" y1="223.59113" x2="337.37187" y2="232.91236" gradientUnits="userSpaceOnUse" id="color-1"><stop offset="0" stop-color="#000000" stop-opacity="0.2419"/><stop offset="1" stop-color="#e64e3d"/></linearGradient><radialGradient cx="344.12252" cy="233.64986" r="6.44335" gradientUnits="userSpaceOnUse" id="color-2"><stop offset="0" stop-color="#ffffff" stop-opacity="0.2903"/><stop offset="1" stop-color="#ffffff" stop-opacity="0"/></radialGradient><radialGradient cx="341.14944" cy="233.61764" r="2.33455" gradientUnits="userSpaceOnUse" id="color-3"><stop offset="0" stop-color="#ffffff" stop-opacity="0.2903"/><stop offset="1" stop-color="#ffffff" stop-opacity="0"/></radialGradient><linearGradient x1="343.29601" y1="147.67712" x2="335.31755" y2="189.54507" gradientUnits="userSpaceOnUse" id="color-4"><stop offset="0" stop-color="#000000" stop-opacity="0"/><stop offset="1" stop-color="#000000" stop-opacity="0.31124"/></linearGradient><linearGradient x1="336.26697" y1="219.72541" x2="337.183" y2="229.67474" gradientUnits="userSpaceOnUse" id="color-5"><stop offset="0" stop-color="#000000" stop-opacity="0"/><stop offset="1" stop-color="#000000" stop-opacity="0.22249"/></linearGradient><linearGradient x1="349.22868" y1="204.16695" x2="349.04313" y2="262.86287" gradientUnits="userSpaceOnUse" id="color-6"><stop offset="0" stop-color="#000000" stop-opacity="0"/><stop offset="1" stop-color="#000000" stop-opacity="0.31124"/></linearGradient><linearGradient x1="369.89534" y1="204.83362" x2="369.7098" y2="263.52955" gradientUnits="userSpaceOnUse" id="color-7"><stop offset="0" stop-color="#000000" stop-opacity="0"/><stop offset="1" stop-color="#000000" stop-opacity="0.31124"/></linearGradient><linearGradient x1="359.5788" y1="145.67628" x2="359.5788" y2="216.84804" gradientUnits="userSpaceOnUse" id="color-8"><stop offset="0" stop-color="#000000" stop-opacity="0"/><stop offset="1" stop-color="#000000" stop-opacity="0.31124"/></linearGradient><radialGradient cx="361.02468" cy="129.36777" r="10.97939" gradientUnits="userSpaceOnUse" id="color-9"><stop offset="0" stop-color="#5a5a5a"/><stop offset="1" stop-color="#272727"/></radialGradient><linearGradient x1="361.02468" y1="124.79303" x2="361.02468" y2="137.12966" gradientUnits="userSpaceOnUse" id="color-10"><stop offset="0" stop-color="#000000"/><stop offset="1" stop-color="#000000" stop-opacity="0"/></linearGradient><linearGradient x1="388.39978" y1="223.7509" x2="387.63383" y2="233.08016" gradientUnits="userSpaceOnUse" id="color-11"><stop offset="0" stop-color="#000000" stop-opacity="0.2419"/><stop offset="1" stop-color="#e64e3d"/></linearGradient><radialGradient cx="380.8908" cy="233.8844" r="6.44335" gradientUnits="userSpaceOnUse" id="color-12"><stop offset="0" stop-color="#ffffff" stop-opacity="0.2903"/><stop offset="1" stop-color="#ffffff" stop-opacity="0"/></radialGradient><radialGradient cx="383.86341" cy="233.82277" r="2.33455" gradientUnits="userSpaceOnUse" id="color-13"><stop offset="0" stop-color="#ffffff" stop-opacity="0.2903"/><stop offset="1" stop-color="#ffffff" stop-opacity="0"/></radialGradient><linearGradient x1="380.86684" y1="147.90769" x2="389.25906" y2="189.69467" gradientUnits="userSpaceOnUse" id="color-14"><stop offset="0" stop-color="#000000" stop-opacity="0"/><stop offset="1" stop-color="#000000" stop-opacity="0.31124"/></linearGradient><linearGradient x1="388.60822" y1="219.88293" x2="387.79066" y2="229.84083" gradientUnits="userSpaceOnUse" id="color-15"><stop offset="0" stop-color="#000000" stop-opacity="0"/><stop offset="1" stop-color="#000000" stop-opacity="0.22249"/></linearGradient><linearGradient x1="341.39641" y1="141.95492" x2="343.20327" y2="153.19753" gradientUnits="userSpaceOnUse" id="color-16"><stop offset="0" stop-color="#4a4323" stop-opacity="0"/><stop offset="1" stop-color="#4a4323" stop-opacity="0.56131"/></linearGradient><linearGradient x1="344.81919" y1="131.08059" x2="344.23495" y2="142.32029" gradientUnits="userSpaceOnUse" id="color-17"><stop offset="0" stop-color="#ffffff" stop-opacity="0.33869"/><stop offset="1" stop-color="#ffffff" stop-opacity="0"/></linearGradient><linearGradient x1="379.60516" y1="143.41814" x2="376.64" y2="154.45898" gradientUnits="userSpaceOnUse" id="color-18"><stop offset="0" stop-color="#4a4323" stop-opacity="0"/><stop offset="1" stop-color="#4a4323" stop-opacity="0.56131"/></linearGradient><linearGradient x1="377.32541" y1="132.30269" x2="376.74117" y2="143.54239" gradientUnits="userSpaceOnUse" id="color-19"><stop offset="0" stop-color="#ffffff" stop-opacity="0.33869"/><stop offset="1" stop-color="#ffffff" stop-opacity="0"/></linearGradient><linearGradient x1="358.14973" y1="178.30482" x2="358.14973" y2="134.85458" gradientUnits="userSpaceOnUse" id="color-20"><stop offset="0" stop-color="#000000" stop-opacity="0"/><stop offset="1" stop-color="#000000" stop-opacity="0.20735"/></linearGradient><linearGradient x1="358.14973" y1="129.86368" x2="358.14973" y2="141.60699" gradientUnits="userSpaceOnUse" id="color-21"><stop offset="0" stop-color="#000000" stop-opacity="0"/><stop offset="1" stop-color="#000000" stop-opacity="0.52899"/></linearGradient><linearGradient x1="358.33596" y1="112.99472" x2="358.33596" y2="117.49472" gradientUnits="userSpaceOnUse" id="color-22"><stop offset="0" stop-color="#0b0403" stop-opacity="0.1902"/><stop offset="1" stop-color="#0b0403" stop-opacity="0"/></linearGradient><radialGradient cx="348.71186" cy="107.65623" r="9.92857" gradientUnits="userSpaceOnUse" id="color-23"><stop offset="0" stop-color="#4c0000" stop-opacity="0.33528"/><stop offset="1" stop-color="#4c0000" stop-opacity="0"/></radialGradient><radialGradient cx="356.44995" cy="107.55833" r="9.92857" gradientUnits="userSpaceOnUse" id="color-24"><stop offset="0" stop-color="#4c0000" stop-opacity="0.33528"/><stop offset="1" stop-color="#4c0000" stop-opacity="0"/></radialGradient><linearGradient x1="346.56114" y1="107.63021" x2="346.56114" y2="111.5091" gradientUnits="userSpaceOnUse" id="color-25"><stop offset="0" stop-color="#4a4323" stop-opacity="0"/><stop offset="1" stop-color="#4a4323" stop-opacity="0.56131"/></linearGradient><radialGradient cx="365.35471" cy="108.20448" r="9.92857" gradientUnits="userSpaceOnUse" id="color-26"><stop offset="0" stop-color="#4c0000" stop-opacity="0.33528"/><stop offset="1" stop-color="#4c0000" stop-opacity="0"/></radialGradient><linearGradient x1="366.67209" y1="107.63021" x2="366.67209" y2="111.5091" gradientUnits="userSpaceOnUse" id="color-27"><stop offset="0" stop-color="#4a4323" stop-opacity="0"/><stop offset="1" stop-color="#4a4323" stop-opacity="0.56131"/></linearGradient><radialGradient cx="343.47937" cy="88.63138" r="16.08607" gradientUnits="userSpaceOnUse" id="color-28"><stop offset="0" stop-color="#000000"/><stop offset="1" stop-color="#000000" stop-opacity="0"/></radialGradient><radialGradient cx="343.47937" cy="88.63138" r="10.125" gradientUnits="userSpaceOnUse" id="color-29"><stop offset="0" stop-color="#e8e8e8"/><stop offset="1" stop-color="#acacac"/></radialGradient><linearGradient x1="345.27937" y1="82.00638" x2="345.27937" y2="95.25638" gradientUnits="userSpaceOnUse" id="color-30"><stop offset="0" stop-color="#9abce8"/><stop offset="1" stop-color="#609092"/></linearGradient><linearGradient x1="333.35436" y1="89.75369" x2="352.77305" y2="89.75369" gradientUnits="userSpaceOnUse" id="color-31"><stop offset="0" stop-color="#272727" stop-opacity="0.21436"/><stop offset="1" stop-color="#272727" stop-opacity="0"/></linearGradient><linearGradient x1="345.64248" y1="79.61104" x2="345.64248" y2="87.81104" gradientUnits="userSpaceOnUse" id="color-32"><stop offset="0" stop-color="#ffffff"/><stop offset="1" stop-color="#ffffff" stop-opacity="0"/></linearGradient><linearGradient x1="343.48744" y1="76.25638" x2="343.48744" y2="85.16988" gradientUnits="userSpaceOnUse" id="color-33"><stop offset="0" stop-color="#38130f"/><stop offset="1" stop-color="#000000"/></linearGradient><radialGradient cx="374.47937" cy="88.63138" r="16.08607" gradientUnits="userSpaceOnUse" id="color-34"><stop offset="0" stop-color="#000000"/><stop offset="1" stop-color="#000000" stop-opacity="0"/></radialGradient><radialGradient cx="374.47937" cy="88.63138" r="10.125" gradientUnits="userSpaceOnUse" id="color-35"><stop offset="0" stop-color="#e8e8e8"/><stop offset="1" stop-color="#acacac"/></radialGradient><linearGradient x1="376.27937" y1="82.00638" x2="376.27937" y2="95.25638" gradientUnits="userSpaceOnUse" id="color-36"><stop offset="0" stop-color="#9abce8"/><stop offset="1" stop-color="#609092"/></linearGradient><linearGradient x1="364.35437" y1="89.75369" x2="383.77305" y2="89.75369" gradientUnits="userSpaceOnUse" id="color-37"><stop offset="0" stop-color="#272727" stop-opacity="0.21436"/><stop offset="1" stop-color="#272727" stop-opacity="0"/></linearGradient><linearGradient x1="376.64248" y1="79.61104" x2="376.64248" y2="87.81104" gradientUnits="userSpaceOnUse" id="color-38"><stop offset="0" stop-color="#ffffff"/><stop offset="1" stop-color="#ffffff" stop-opacity="0"/></linearGradient><linearGradient x1="374.42937" y1="76.25638" x2="374.42937" y2="85.16988" gradientUnits="userSpaceOnUse" id="color-39"><stop offset="0" stop-color="#38130f"/><stop offset="1" stop-color="#000000"/></linearGradient><radialGradient cx="360.7597" cy="94.77191" r="36.72087" gradientUnits="userSpaceOnUse" id="color-40"><stop offset="0" stop-color="#240c0a" stop-opacity="0"/><stop offset="1" stop-color="#240c0a" stop-opacity="0.2177"/></radialGradient><radialGradient cx="332.93368" cy="115.48173" r="8.08333" gradientUnits="userSpaceOnUse" id="color-41"><stop offset="0" stop-color="#240c0a" stop-opacity="0.19023"/><stop offset="1" stop-color="#240c0a" stop-opacity="0"/></radialGradient><radialGradient cx="339.10034" cy="122.30438" r="6.20513" gradientUnits="userSpaceOnUse" id="color-42"><stop offset="0" stop-color="#240c0a" stop-opacity="0.19023"/><stop offset="1" stop-color="#240c0a" stop-opacity="0"/></radialGradient><radialGradient cx="391.10034" cy="81.30437" r="6.20513" gradientUnits="userSpaceOnUse" id="color-43"><stop offset="0" stop-color="#240c0a" stop-opacity="0.19023"/><stop offset="1" stop-color="#240c0a" stop-opacity="0"/></radialGradient><linearGradient x1="393.76701" y1="80.81506" x2="393.76701" y2="94.98173" gradientUnits="userSpaceOnUse" id="color-44"><stop offset="0" stop-color="#ffffff" stop-opacity="0.29832"/><stop offset="1" stop-color="#ffffff" stop-opacity="0"/></linearGradient><linearGradient x1="394.72664" y1="95.28808" x2="393.80738" y2="103.95743" gradientUnits="userSpaceOnUse" id="color-45"><stop offset="0" stop-color="#ffffff" stop-opacity="0.16109"/><stop offset="1" stop-color="#ffffff" stop-opacity="0"/></linearGradient><radialGradient cx="343.66142" cy="62.8149" r="20.70195" gradientUnits="userSpaceOnUse" id="color-46"><stop offset="0" stop-color="#4c0000" stop-opacity="0.33528"/><stop offset="1" stop-color="#4c0000" stop-opacity="0"/></radialGradient><radialGradient cx="359.16313" cy="58.33281" r="20.70195" gradientUnits="userSpaceOnUse" id="color-47"><stop offset="0" stop-color="#4c0000" stop-opacity="0.33528"/><stop offset="1" stop-color="#4c0000" stop-opacity="0"/></radialGradient><linearGradient x1="339.31617" y1="63.92555" x2="341.99272" y2="73.76858" gradientUnits="userSpaceOnUse" id="color-48"><stop offset="0" stop-color="#4a4323" stop-opacity="0"/><stop offset="1" stop-color="#4a4323" stop-opacity="0.56131"/></linearGradient><linearGradient x1="342.51462" y1="54.21225" x2="342.51462" y2="64.14183" gradientUnits="userSpaceOnUse" id="color-49"><stop offset="0" stop-color="#ffffff" stop-opacity="0.33869"/><stop offset="1" stop-color="#ffffff" stop-opacity="0"/></linearGradient><radialGradient cx="377.58956" cy="64.22748" r="20.70194" gradientUnits="userSpaceOnUse" id="color-50"><stop offset="0" stop-color="#4c0000" stop-opacity="0.33528"/><stop offset="1" stop-color="#4c0000" stop-opacity="0"/></radialGradient><linearGradient x1="380.63001" y1="63.46487" x2="378.03793" y2="73.33048" gradientUnits="userSpaceOnUse" id="color-51"><stop offset="0" stop-color="#4a4323" stop-opacity="0"/><stop offset="1" stop-color="#4a4323" stop-opacity="0.56131"/></linearGradient><linearGradient x1="373.34796" y1="54.21225" x2="373.34796" y2="64.14183" gradientUnits="userSpaceOnUse" id="color-52"><stop offset="0" stop-color="#ffffff" stop-opacity="0.33869"/><stop offset="1" stop-color="#ffffff" stop-opacity="0"/></linearGradient><linearGradient x1="362.7839" y1="49.71533" x2="362.19177" y2="64.34254" gradientUnits="userSpaceOnUse" id="color-53"><stop offset="0" stop-color="#000000"/><stop offset="1" stop-color="#000000" stop-opacity="0"/></linearGradient><linearGradient x1="363.24608" y1="34.94773" x2="362.37855" y2="56.37815" gradientUnits="userSpaceOnUse" id="color-54"><stop offset="0" stop-color="#000000" stop-opacity="0"/><stop offset="1" stop-color="#000000" stop-opacity="0.25803"/></linearGradient></defs><g transform="translate(-316.97625,-33.39425)"><g data-paper-data="{&quot;isPaintingLayer&quot;:true}" fill-rule="nonzero" stroke="#000000" stroke-width="0" stroke-linecap="butt" stroke-linejoin="miter" stroke-miterlimit="10" stroke-dasharray="" stroke-dashoffset="0" style="mix-blend-mode: normal"><g data-paper-data="{&quot;index&quot;:null}"><g><g><path d="M329.03247,236.3966c-1.11542,5.79581 -2.19972,6.31502 -3.37522,6.11349c-1.1755,-0.20153 -1.99707,-1.04749 -0.88165,-6.8433c1.11542,-5.79581 2.11222,-5.86039 3.28772,-5.65886c1.1755,0.20153 2.08456,0.59286 0.96914,6.38867z" fill="#e64e3d"/><path d="M348.80267,240.12603c0.53953,5.86007 -0.36232,6.6391 -1.55319,6.74875c-1.19087,0.10964 -2.21981,-0.49162 -2.75934,-6.3517c-0.53953,-5.86007 0.40464,-6.17945 1.59551,-6.28909c1.19087,-0.10964 2.17749,0.03197 2.71702,5.89204z" fill="#e64e3d"/><path d="M343.71107,242.43051c0.53953,5.86007 -0.36232,6.63911 -1.55319,6.74875c-1.19087,0.10964 -2.21981,-0.49163 -2.75934,-6.3517c-0.53953,-5.86007 0.40464,-6.17944 1.59552,-6.28909c1.19087,-0.10964 2.17749,0.03196 2.71702,5.89204z" fill="#e64e3d"/><path d="M338.79537,243.18904c0.53953,5.86007 -0.36232,6.63911 -1.55319,6.74875c-1.19087,0.10964 -2.21981,-0.49163 -2.75934,-6.3517c-0.53953,-5.86007 0.40464,-6.17944 1.59552,-6.28909c1.19087,-0.10964 2.17749,0.03196 2.71702,5.89204z" fill="#e64e3d"/><path d="M333.37789,241.95411c0.53953,5.86007 -0.36232,6.63911 -1.55319,6.74875c-1.19087,0.10964 -2.21981,-0.49163 -2.75934,-6.3517c-0.53953,-5.86007 0.40464,-6.17944 1.59552,-6.28909c1.19087,-0.10964 2.17749,0.03196 2.71702,5.89204z" fill="#e64e3d"/><path d="M348.43398,232.66511c0.89346,9.70428 -3.92247,11.30027 -9.99302,11.85918c-6.07055,0.55891 -11.09693,-0.1309 -11.99039,-9.83519c-0.89346,-9.70428 3.99255,-10.53905 10.0631,-11.09796c6.07055,-0.55891 11.02685,-0.63031 11.92031,9.07397z" fill="#e64e3d"/><path d="M348.35292,231.90135c-3.52831,-0.92642 -7.29184,-1.26469 -11.15781,-0.90876c-3.86596,0.35594 -7.50446,1.3757 -10.80429,2.93078c-0.56939,-8.98338 4.21596,-9.7884 10.12285,-10.33224c5.90689,-0.54384 10.75879,-0.62611 11.83925,8.31021z" fill="url(#color-1)"/></g><g><path d="M343.55457,227.48115c2.00415,-0.18452 3.88312,2.42772 4.19678,5.8346c0.31367,3.40688 -1.05674,6.31829 -3.06089,6.50281c-2.00415,0.18452 -0.75554,-3.02163 -1.0692,-6.42851c-0.31367,-3.40688 -2.07084,-5.72439 -0.06669,-5.90891z" fill="url(#color-2)"/><path d="M340.89805,230.88723c0.72614,-0.06686 1.42735,1.1014 1.56619,2.60936c0.13884,1.50796 -0.33727,2.78461 -1.06342,2.85146c-0.72614,0.06686 -1.42735,-1.1014 -1.56618,-2.60936c-0.13884,-1.50796 0.33727,-2.78461 1.06341,-2.85146z" fill="url(#color-3)"/></g></g><g><path d="M327.45561,186.07018c-0.39239,-2.75901 4.43088,-39.27405 4.77126,-39.92949c1.41776,-2.73003 21.40247,-0.12715 21.9243,3.54203c0.23892,1.67991 -8.60033,37.42253 -9.78452,39.70281c-0.88727,1.70852 -16.43832,0.0085 -16.91105,-3.31535z" fill="#603f3f"/><path d="M327.45561,186.07018c-0.34096,-2.39739 3.25613,-30.28206 4.42823,-37.98046c-0.48999,5.60694 1.26815,12.1912 3.11169,14.84125c1.06072,1.52477 2.21161,2.52467 3.5505,3.39401c0.97106,0.63051 2.47283,1.44593 3.63784,1.174c4.2695,-0.99659 9.58072,-10.85562 11.92909,-17.98633c0.01734,0.05642 0.03012,0.11311 0.03822,0.17006c0.23892,1.67991 -8.60033,37.42253 -9.78452,39.70281c-0.88727,1.70852 -16.43832,0.0085 -16.91105,-3.31535z" fill="url(#color-4)"/></g><g><path d="M344.65815,185.08242c0.83254,2.40647 4.25064,38.91599 3.76304,40.55044c-1.065,3.5699 -21.25172,3.6594 -22.24846,0.7783c-0.23931,-0.69171 0.43641,-37.46626 1.23722,-40.15061c0.96475,-3.2339 16.62441,-2.98119 17.2482,-1.17813z" fill="#3b2727"/><g><path d="M335.40377,218.25913c2.80374,1.22768 12.46827,1.69442 13.54787,0.99085c0.55156,-0.35945 0.27077,7.34259 0.21238,7.53829c-1.065,3.5699 -21.94552,3.11641 -23.03022,1.52705c-3.88852,-5.69766 -1.80713,-16.78493 -1.80713,-16.78493c0,0 2.98092,3.18366 11.0771,6.72874z" fill="#cbcbcb"/><path d="M323.88228,220.86566c5.7671,3.77949 12.8986,5.71321 20.41762,5.02095c1.69592,-0.15614 3.34808,-0.44003 4.94706,-0.84082c-0.0289,0.96924 -0.06566,1.68457 -0.08294,1.74249c-1.065,3.5699 -21.94552,3.11641 -23.03022,1.52705c-1.39455,-2.04337 -2.02126,-4.77993 -2.25152,-7.44966z" fill="url(#color-5)"/></g></g></g><g><g><path d="M339.46436,260.14495c-1.02118,-3.63597 -3.26253,-54.28807 -3.01709,-55.2614c1.02228,-4.05408 24.06247,-5.57948 25.42053,-0.74404c0.62178,2.21387 -1.81924,52.83492 -2.67311,56.22113c-0.63977,2.53714 -18.50008,4.16465 -19.73033,-0.21569z" fill="#191f26"/><path d="M339.46436,260.14495c-0.88734,-3.15941 -2.69596,-41.81805 -2.99379,-52.53615c0.62626,7.71439 3.98814,16.18385 6.61975,19.30568c1.51416,1.79622 3.01955,2.8591 4.70913,3.69773c1.22539,0.60823 3.08697,1.33272 4.34111,0.67024c4.59613,-2.42785 8.50316,-17.11675 9.6485,-27.36351c0.03136,0.072 0.05766,0.14552 0.07874,0.22057c0.62178,2.21387 -1.81924,52.83492 -2.67311,56.22113c-0.63977,2.53714 -18.50008,4.16465 -19.73033,-0.21569z" fill="url(#color-6)"/></g><path d="M358.4666,257.44068c0.85501,3.35263 3.28511,53.76724 2.66088,55.99293c-1.36344,4.86127 -24.46565,3.99948 -25.4893,-0.0144c-0.24576,-0.96367 2.01923,-51.54329 3.04444,-55.19867c1.2351,-4.40373 19.14336,-3.29184 19.78399,-0.77986z" fill="#101318"/><path d="M361.73513,312.16489c1.07045,8.13139 -1.49516,9.70832 -11.4687,11.6078c-9.97354,1.89948 -23.57823,3.40222 -24.64868,-4.72917c-1.07045,-8.13139 -1.3478,-14.44363 8.62574,-16.34311c9.97354,-1.89948 26.42119,1.33309 27.49164,9.46448z" fill="#14120d"/></g><g><g><path d="M360.13102,260.81162c-1.02118,-3.63597 -3.26252,-54.28808 -3.01709,-55.2614c1.02228,-4.05408 24.06247,-5.57948 25.42053,-0.74404c0.62178,2.21387 -1.81925,52.83492 -2.67312,56.22113c-0.63977,2.53714 -18.50008,4.16465 -19.73033,-0.21569z" fill="#262f3a"/><path d="M360.13102,260.81162c-0.88734,-3.15941 -2.69595,-41.81805 -2.99379,-52.53615c0.62625,7.71439 3.98814,16.18385 6.61975,19.30568c1.51416,1.79622 3.01955,2.85909 4.70914,3.69773c1.2254,0.60824 3.08697,1.33272 4.34111,0.67024c4.59613,-2.42785 8.50315,-17.11675 9.64849,-27.36351c0.03137,0.072 0.05766,0.14552 0.07874,0.22057c0.62178,2.21387 -1.81925,52.83492 -2.67312,56.22113c-0.63977,2.53714 -18.50008,4.16465 -19.73033,-0.21569z" fill="url(#color-7)"/></g><path d="M379.13326,258.10736c0.85501,3.35262 3.28512,53.76724 2.66088,55.99293c-1.36344,4.86127 -24.46565,3.99947 -25.4893,-0.0144c-0.24577,-0.96367 2.01923,-51.54329 3.04444,-55.19867c1.23511,-4.40373 19.14336,-3.29184 19.78399,-0.77986z" fill="#191e26"/><path d="M388.06847,313.49822c1.07045,8.13139 -1.49516,9.70833 -11.4687,11.6078c-9.97354,1.89948 -23.57823,3.40222 -24.64868,-4.72917c-1.07046,-8.13139 -1.34781,-14.44363 8.62573,-16.34311c9.97354,-1.89948 26.42119,1.33309 27.49165,9.46448z" fill="#262219"/></g><g><path d="M335.90268,214.05682c-1.96802,-4.08575 -7.29208,-65.4117 -5.82445,-68.11118c3.20551,-5.8961 56.972,-4.59801 59.32817,0.29359c0.56568,1.1744 -5.03953,62.65012 -7.44988,67.08363c-2.90382,5.34116 -44.57927,3.79525 -46.05383,0.73396z" fill="#3b2727"/><path d="M335.90268,214.05682c-1.96802,-4.08575 -7.29208,-65.4117 -5.82445,-68.11118c0.04976,-0.09151 0.11168,-0.1813 0.18542,-0.26936c2.59771,12.39806 11.60867,30.11664 22.3185,32.95068c2.92237,0.77332 7.27278,-0.14979 10.13745,-0.91669c3.94982,-1.05741 7.47136,-2.38232 11.0188,-4.59672c6.16544,-3.84862 14.07484,-14.1994 15.5935,-23.56906c-0.77425,13.00417 -5.28094,59.92595 -7.37538,63.77837c-2.90382,5.34116 -44.57927,3.79525 -46.05383,0.73396z" fill="url(#color-8)"/></g><g><path d="M350.04528,133.94251v-9.1495h21.95879v9.1495c0,0 -2.08569,3.52508 -10.81304,3.16073c-9.22689,-0.38521 -11.14575,-3.16073 -11.14575,-3.16073z" fill="url(#color-9)"/><path d="M350.04528,133.94251v-9.1495h21.95879v9.1495c0,0 -2.08569,3.52508 -10.81304,3.16073c-9.22689,-0.38521 -11.14575,-3.16073 -11.14575,-3.16073z" fill="url(#color-10)"/></g><g><g><g><path d="M396.91318,230.08379c1.17345,-0.21315 2.17084,-0.15843 3.34353,5.62607c1.1727,5.78449 0.35954,6.63854 -0.81391,6.85169c-1.17345,0.21315 -2.26283,-0.29531 -3.43552,-6.0798c-1.1727,-5.78449 -0.26755,-6.1848 0.9059,-6.39795z" fill="#e64e3d"/><path d="M378.93354,234.48792c1.1919,0.09786 2.13919,0.40787 1.65765,6.273c-0.48154,5.86512 -1.50447,6.47654 -2.69638,6.37869c-1.1919,-0.09786 -2.10142,-0.86793 -1.61988,-6.73306c0.48154,-5.86512 1.4667,-6.01648 2.6586,-5.91862z" fill="#e64e3d"/><path d="M384.04768,236.74193c1.1919,0.09786 2.13919,0.40787 1.65765,6.273c-0.48154,5.86512 -1.50448,6.47654 -2.69637,6.37869c-1.1919,-0.09786 -2.10141,-0.86793 -1.61988,-6.73306c0.48154,-5.86512 1.4667,-6.01648 2.6586,-5.91862z" fill="#e64e3d"/><path d="M388.97065,237.4518c1.1919,0.09786 2.13919,0.40787 1.65765,6.273c-0.48154,5.86512 -1.50448,6.47654 -2.69637,6.37869c-1.1919,-0.09786 -2.10141,-0.86793 -1.61988,-6.73306c0.48154,-5.86512 1.4667,-6.01648 2.6586,-5.91862z" fill="#e64e3d"/><path d="M394.37564,236.16333c1.1919,0.09786 2.13919,0.40787 1.65765,6.273c-0.48154,5.86512 -1.50448,6.47654 -2.69637,6.37869c-1.1919,-0.09786 -2.10141,-0.86793 -1.61988,-6.73306c0.48154,-5.86512 1.4667,-6.01648 2.6586,-5.91862z" fill="#e64e3d"/><path d="M388.39978,223.7509c6.07578,0.49883 10.96981,1.28524 10.17239,10.99788c-0.79743,9.71265 -5.81674,10.45214 -11.89252,9.95331c-6.07578,-0.49883 -10.90726,-2.0471 -10.10984,-11.75974c0.79743,-9.71265 5.75419,-9.69028 11.82997,-9.19145z" fill="#e64e3d"/><path d="M388.39978,223.7509c5.91198,0.48538 10.70506,1.24304 10.22456,10.2316c-3.31505,-1.52237 -6.96346,-2.50609 -10.83276,-2.82377c-3.8693,-0.31768 -7.6293,0.0578 -11.14827,1.01909c0.99201,-8.94657 5.84449,-8.91231 11.75647,-8.42692z" fill="url(#color-11)"/></g><g><path d="M381.38947,233.61965c-0.27995,3.40982 1.00032,6.60346 -1.00556,6.43877c-2.00588,-0.16469 -3.40502,-3.0624 -3.12507,-6.47221c0.27995,-3.40982 2.13299,-6.04052 4.13887,-5.87583c2.00588,0.16469 0.27172,2.49946 -0.00823,5.90928z" fill="url(#color-12)"/><path d="M385.17935,233.93081c-0.12391,1.50926 -0.81353,2.68439 -1.5403,2.62473c-0.72677,-0.05967 -1.21548,-1.33154 -1.09157,-2.84081c0.12391,-1.50926 0.81353,-2.68439 1.5403,-2.62473c0.72677,0.05967 1.21548,1.33154 1.09156,2.84081z" fill="url(#color-13)"/></g></g><g><path d="M380.20882,189.62465c-1.20669,-2.26846 -10.39906,-37.9219 -10.17677,-39.60408c0.48551,-3.67416 20.4435,-6.4746 21.88819,-3.75872c0.34685,0.65204 5.53108,37.11759 5.166,39.88034c-0.43982,3.32836 -15.9733,5.18213 -16.87742,3.48246z" fill="#603f3f"/><path d="M380.20882,189.62465c-1.20669,-2.26846 -10.39906,-37.9219 -10.17677,-39.60408c0.00754,-0.05703 0.01976,-0.11384 0.03653,-0.17043c2.41879,7.10712 7.82727,16.91314 12.10642,17.86745c1.16764,0.2604 2.66127,-0.56984 3.62605,-1.20992c1.33023,-0.88255 2.47117,-1.89378 3.51676,-3.42897c1.81724,-2.66816 3.51016,-9.26948 2.96473,-14.8713c1.24819,7.68642 5.12093,35.53415 4.80371,37.9348c-0.43982,3.32836 -15.9733,5.18213 -16.87742,3.48246z" fill="url(#color-14)"/></g><g><path d="M397.13379,186.33209c0.82732,2.6763 1.86677,39.44236 1.63432,40.13641c-0.9682,2.89082 -21.15482,3.00101 -22.25507,-0.55818c-0.50374,-1.62955 2.55305,-38.1711 3.36175,-40.58568c0.60593,-1.80915 16.26231,-2.21675 17.25901,1.00746z" fill="#3b2727"/><g><path d="M400.46688,211.5702c0,0 2.19096,11.06614 -1.64101,16.80198c-1.06892,1.60001 -21.94394,2.26002 -23.0442,-1.29917c-0.06032,-0.19511 -0.41729,-7.894 0.1378,-7.54002c1.0865,0.69286 10.74595,0.13054 13.53741,-1.12481c8.06072,-3.625 11.01,-6.83798 11.01,-6.83798z" fill="#cbcbcb"/><path d="M398.82587,228.37218c-1.06892,1.60001 -21.94394,2.26002 -23.0442,-1.29917c-0.01785,-0.05774 -0.06168,-0.77267 -0.10017,-1.74158c1.60287,0.38495 3.25775,0.65249 4.95513,0.79184c7.52549,0.61786 14.63752,-1.38631 20.36696,-5.22267c-0.20384,2.67189 -0.80346,5.41451 -2.17773,7.47157z" fill="url(#color-15)"/></g></g></g><g><g><g><path d="M361.68288,135.93884c1.07107,6.66436 -4.58501,13.70357 -12.92494,15.55473c-24.74742,5.49303 -27.65152,-3.16468 -27.65152,-3.16468c0,0 8.97599,-4.00696 15.56228,-14.01904c5.7371,-8.72119 23.94312,-5.03537 25.01418,1.62899z" fill="#408841"/><path d="M361.68288,135.93884c1.07107,6.66436 -4.58501,13.70357 -12.92494,15.55473c-24.74742,5.49303 -27.65152,-3.16468 -27.65152,-3.16468c0,0 6.50315,4.83349 24.46948,-0.99319c19.02014,-6.16843 16.0377,-11.82788 16.10698,-11.39686z" fill="url(#color-16)"/></g><path d="M336.31925,138.25696c-0.27244,-2.93815 3.18147,-6.01686 7.71453,-6.87651c4.53306,-0.85964 8.42868,0.82531 8.70112,3.76346c0.27244,2.93815 -3.18148,6.01688 -7.71454,6.87653c-4.53306,0.85965 -8.42868,-0.82532 -8.70112,-3.76347z" fill="url(#color-17)"/></g><g data-paper-data="{&quot;index&quot;:null}"><g><path d="M385.34186,136.02095c3.82598,8.62287 13.80312,15.45526 13.80312,15.45526c0,0 -3.78945,8.37469 -27.85852,0.81757c-8.11133,-2.54677 -13.0124,-10.03236 -11.25472,-16.57712c1.75768,-6.54476 21.10513,-9.17281 25.31013,0.30429z" fill="#4ca04e"/><path d="M374.88584,148.42264c17.28312,7.31713 24.25914,3.05356 24.25914,3.05356c0,0 -3.78945,8.37469 -27.85852,0.81757c-8.11133,-2.54677 -13.0124,-10.03236 -11.25472,-16.57712c0.11368,-0.42328 -3.44274,4.95969 14.8541,12.70598z" fill="url(#color-18)"/></g><path d="M385.04365,140.16482c-0.57603,2.90228 -4.62934,4.25114 -9.05334,3.01277c-4.42401,-1.23837 -7.54342,-4.59504 -6.96739,-7.49732c0.57603,-2.90228 4.62935,-4.25113 9.05336,-3.01275c4.42401,1.23837 7.5434,4.59503 6.96738,7.49731z" fill="url(#color-19)"/></g><g><g><path d="M363.71003,167.04626c-1.19734,6.78741 -9.92325,6.78741 -11.12059,0c-0.70674,-4.00635 -1.11871,-8.81969 -1.11871,-13.99688c0,-13.94821 2.99029,-18.19479 6.67901,-18.19479c3.68871,0 6.679,4.24658 6.679,18.19479c0,5.17719 -0.41197,9.99053 -1.11871,13.99688z" fill="#e64e3d"/><path d="M364.82875,153.04938c0,4.55172 -0.31845,8.8222 -0.87568,12.51029c-1.3022,-9.26688 -3.41647,-15.29323 -5.80333,-15.29323c-2.38686,0 -4.50113,6.02635 -5.80333,15.29322c-0.55724,-3.68808 -0.87568,-7.95856 -0.87568,-12.51028c0,-13.94821 2.99029,-18.19479 6.67901,-18.19479c3.68871,0 6.679,4.24658 6.679,18.19479z" fill="url(#color-20)"/></g><g><path d="M367.47098,136.68947c0,3.76979 -4.17326,4.91751 -9.32125,4.91751c-5.14799,0 -9.32125,-1.14772 -9.32125,-4.91751c0,-3.76979 4.17327,-6.8258 9.32125,-6.8258c5.14799,0 9.32125,3.05602 9.32125,6.8258z" fill="#e64e3d"/><path d="M367.47098,136.68947c0,3.76979 -4.17326,4.91751 -9.32125,4.91751c-5.14799,0 -9.32125,-1.14772 -9.32125,-4.91751c0,-1.2302 0.44442,-2.38439 1.2221,-3.38116c1.81735,2.50456 4.76804,4.13331 8.09915,4.13331c3.33111,0 6.2818,-1.62875 8.09915,-4.13331c0.77768,0.99678 1.2221,2.15097 1.2221,3.38116z" fill="url(#color-21)"/></g></g></g><path d="M327.4994,117.35295c-7.25,-38.1965 -2.172,-60.18557 32.625,-59.27468c38.05531,0.99618 41.625,18.03846 32.625,60.1037c-4.84592,22.64944 -32.625,9.53369 -32.625,9.53369c0,0 -28.3015,12.41556 -32.625,-10.36271z" fill="#e64e3d"/><g><path d="M380.85263,115.24472c0,1.24264 -2.29944,2.25 -22.51667,2.25c-20.21722,0 -22.51667,-1.00736 -22.51667,-2.25c0,-1.24264 2.29945,-2.25 22.51667,-2.25c20.21722,0 22.51667,1.00736 22.51667,2.25z" fill="url(#color-22)"/><path d="M339.4186,115.41944c-1.02699,-0.03364 -0.45318,-1.15004 0.22901,-1.2c2.86781,-0.21001 9.08576,0.22932 17.17522,0.30265c6.19528,0.05616 13.7723,-0.30909 20.0757,-0.10265c1.46758,0.04807 0.16199,0.97939 -0.61067,1c-5.19403,0.13858 -22.48504,0.47109 -36.86925,0z" fill="#0b0403"/></g><g><path d="M338.78329,107.65623c0,-4.50941 4.44517,-8.16502 9.92857,-8.16502c5.4834,0 9.92857,3.65561 9.92857,8.16502c0,4.50941 -4.44517,8.16502 -9.92857,8.16502c-5.4834,0 -9.92857,-3.65561 -9.92857,-8.16502z" fill="url(#color-23)"/><path d="M346.52138,107.55833c0,-4.50941 4.44518,-8.16501 9.92857,-8.16501c5.4834,0 9.92857,3.6556 9.92857,8.16501c0,4.50941 -4.44517,8.16502 -9.92857,8.16502c-5.4834,0 -9.92857,-3.65561 -9.92857,-8.16502z" fill="url(#color-24)"/><path d="M357.67019,107.63756c0,2.29932 -3.54774,4.06274 -8.0625,3.85489c-13.39683,-0.61678 -14.1875,-3.75209 -14.1875,-3.75209c0,0 8.16567,-0.1542 16.3125,-3.3409c4.08345,-1.59727 5.9375,0.93879 5.9375,3.2381z" fill="#558856"/><path d="M357.67019,107.63756c0,2.29932 -3.54774,4.06274 -8.0625,3.85489c-13.39683,-0.61678 -14.1875,-3.75209 -14.1875,-3.75209c0,0 2.99313,2.22886 12.87354,2.07118c10.45994,-0.16692 9.37646,-2.32269 9.37646,-2.17398z" fill="url(#color-25)"/></g><g data-paper-data="{&quot;index&quot;:null}"><path d="M365.35471,116.3695c-5.4834,0 -9.92857,-3.65561 -9.92857,-8.16502c0,-4.50941 4.44517,-8.16502 9.92857,-8.16502c5.4834,0 9.92857,3.65561 9.92857,8.16502c0,4.50941 -4.44517,8.16502 -9.92857,8.16502z" fill="url(#color-26)"/><path d="M361.50055,104.39945c8.14683,3.1867 16.3125,3.3409 16.3125,3.3409c0,0 -0.79067,3.13531 -14.1875,3.75209c-4.51476,0.20785 -8.0625,-1.55557 -8.0625,-3.85489c0,-2.29932 1.85405,-4.83538 5.9375,-3.2381z" fill="#558856"/><path d="M364.9395,109.81154c9.88041,0.15768 12.87355,-2.07118 12.87355,-2.07118c0,0 -0.79067,3.13531 -14.1875,3.75209c-4.51476,0.20785 -8.0625,-1.55557 -8.0625,-3.85489c0,-0.14871 -1.08348,2.00706 9.37645,2.17398z" fill="url(#color-27)"/></g><g><g><path d="M357.60437,88.33492c0,8.92344 -6.32397,14.97146 -14.125,14.97146c-7.80103,0 -14.125,-6.04802 -14.125,-14.97146c0,-8.92344 6.32397,-14.37853 14.125,-14.37853c7.80103,0 14.125,5.45509 14.125,14.37854z" fill="url(#color-28)"/><path d="M354.60437,88.38138c0,7.52488 -4.98083,12.625 -11.125,12.625c-6.14417,0 -11.125,-5.10012 -11.125,-12.625c0,-7.52488 4.98083,-12.125 11.125,-12.125c6.14417,0 11.125,4.60012 11.125,12.125z" fill="#000000"/><g><path d="M353.60437,88.43694c0,5.85269 -4.53312,9.81945 -10.125,9.81945c-5.59188,0 -10.125,-3.96676 -10.125,-9.81945c0,-5.85269 4.53312,-9.43055 10.125,-9.43055c5.59188,0 10.125,3.57787 10.125,9.43055z" fill="url(#color-29)"/><g><path d="M349.80437,88.49754c0,4.02847 -2.02591,6.75884 -4.525,6.75884c-2.49909,0 -4.525,-2.73037 -4.525,-6.75884c0,-4.02847 2.02591,-6.49116 4.525,-6.49116c2.49909,0 4.525,2.46269 4.525,6.49116z" fill="url(#color-30)"/><path d="M346.50437,88.56434c0,2.01781 -0.54845,3.38541 -1.225,3.38541c-0.67655,0 -1.225,-1.3676 -1.225,-3.38541c0,-2.01781 0.54845,-3.25133 1.225,-3.25133c0.67655,0 1.225,1.23353 1.225,3.25133z" fill="#0a0d10"/></g><path d="M343.47937,98.25638c-5.59188,0 -10.125,-3.96676 -10.125,-9.81945c0,-3.09632 1.26876,-5.55595 3.29182,-7.18595c-0.58026,1.26672 -0.90371,2.67561 -0.90371,4.16005c0,5.52284 4.47716,10 10,10c2.74088,0 5.22421,-1.1027 7.03057,-2.88866c-1.55651,3.53671 -5.13186,5.734 -9.29368,5.734z" fill="url(#color-31)"/><path d="M350.34248,83.71104c0,2.26436 -2.10426,4.1 -4.7,4.1c-2.59574,0 -4.7,-1.83563 -4.7,-4.1c0,-2.26436 2.10426,-4.1 4.7,-4.1c2.59574,0 4.7,1.83563 4.7,4.1z" fill="url(#color-32)"/></g></g><path d="M332.78924,84.71759c1.33918,-5.32669 5.61831,-8.46121 10.69013,-8.46121c5.09261,0 9.38601,3.16027 10.70645,8.52682c0.1296,0.52675 -21.54513,0.52527 -21.39658,-0.06561z" fill="url(#color-33)"/></g><g><g><path d="M388.60437,88.33492c0,8.92344 -6.32398,14.97146 -14.125,14.97146c-7.80103,0 -14.125,-6.04802 -14.125,-14.97146c0,-8.92344 6.32397,-14.37853 14.125,-14.37853c7.80102,0 14.125,5.45509 14.125,14.37854z" fill="url(#color-34)"/><path d="M385.60437,88.38138c0,7.52488 -4.98083,12.625 -11.125,12.625c-6.14417,0 -11.125,-5.10012 -11.125,-12.625c0,-7.52488 4.98083,-12.125 11.125,-12.125c6.14417,0 11.125,4.60012 11.125,12.125z" fill="#000000"/><g><path d="M384.60437,88.43694c0,5.85269 -4.53312,9.81945 -10.125,9.81945c-5.59188,0 -10.125,-3.96676 -10.125,-9.81945c0,-5.85269 4.53312,-9.43055 10.125,-9.43055c5.59188,0 10.125,3.57787 10.125,9.43055z" fill="url(#color-35)"/><g><path d="M380.80437,88.49754c0,4.02847 -2.02591,6.75884 -4.525,6.75884c-2.49909,0 -4.525,-2.73037 -4.525,-6.75884c0,-4.02847 2.02591,-6.49116 4.525,-6.49116c2.49909,0 4.525,2.46269 4.525,6.49116z" fill="url(#color-36)"/><path d="M377.50437,88.56434c0,2.01781 -0.54845,3.38541 -1.225,3.38541c-0.67655,0 -1.225,-1.3676 -1.225,-3.38541c0,-2.01781 0.54845,-3.25133 1.225,-3.25133c0.67655,0 1.225,1.23353 1.225,3.25133z" fill="#0a0d10"/></g><path d="M374.47937,98.25638c-5.59188,0 -10.125,-3.96676 -10.125,-9.81945c0,-3.09632 1.26876,-5.55595 3.29181,-7.18595c-0.58026,1.26672 -0.9037,2.67561 -0.9037,4.16005c0,5.52284 4.47716,10 10,10c2.74088,0 5.22421,-1.1027 7.03057,-2.88866c-1.55651,3.53671 -5.13186,5.734 -9.29368,5.734z" fill="url(#color-37)"/><path d="M381.34248,83.71104c0,2.26436 -2.10426,4.1 -4.7,4.1c-2.59574,0 -4.7,-1.83563 -4.7,-4.1c0,-2.26436 2.10426,-4.1 4.7,-4.1c2.59574,0 4.7,1.83563 4.7,4.1z" fill="url(#color-38)"/></g></g><path d="M363.73117,84.71759c1.33918,-5.32669 5.61831,-8.46121 10.69013,-8.46121c5.09261,0 9.38601,3.16027 10.70645,8.52682c0.12961,0.52675 -21.54513,0.52527 -21.39658,-0.06561z" fill="url(#color-39)"/></g><g><g><path d="M327.4994,117.35295c-7.25,-38.1965 -2.172,-60.18557 32.625,-59.27468c38.05531,0.99618 41.625,18.03846 32.625,60.1037c-4.84592,22.64944 -32.625,9.53369 -32.625,9.53369c0,0 -28.3015,12.41556 -32.625,-10.36271zM346.02559,72.73528c-12.66009,8.44006 -21.57221,32.87904 -7.05955,43.36041c9.10293,6.57434 14.22161,1.19944 23.42019,1.06017c5.31266,-0.08043 11.4646,4.42039 16.68624,0.60348c5.34253,-3.90527 7.5938,-9.10663 9.10417,-15.77539c1.48305,-6.54817 2.122,-14.66066 -1.08913,-20.71588c-3.51485,-6.62794 -13.94066,-8.12191 -20.60621,-8.953c-4.40392,-0.5491 -8.39938,-2.87665 -13.09533,-2.74221c-1.28285,0.03673 -2.22796,0.27389 -3.03035,0.61371c-1.20989,0.41481 -2.31505,1.05515 -3.26531,1.87084c-0.18192,0.09662 -0.37126,0.19109 -0.57026,0.2823z" fill="url(#color-40)"/><path d="M336.61952,114.42863c1.22644,4.29253 0.57046,8.2438 -1.46518,8.82541c-2.03564,0.58161 -4.68007,-2.42668 -5.90651,-6.71922c-1.22644,-4.29253 -0.57046,-8.24381 1.46518,-8.82542c2.03564,-0.58161 4.68007,2.42669 5.90651,6.71922z" fill="url(#color-41)"/><path d="M341.92976,121.49598c0.94147,3.29514 0.43791,6.32831 -1.12474,6.77478c-1.56265,0.44647 -3.59263,-1.86283 -4.5341,-5.15797c-0.94147,-3.29514 -0.43791,-6.32831 1.12474,-6.77478c1.56265,-0.44647 3.59262,1.86283 4.5341,5.15797z" fill="url(#color-42)"/><path d="M393.92976,80.49598c0.94147,3.29514 0.43791,6.32831 -1.12473,6.77478c-1.56264,0.44647 -3.59263,-1.86283 -4.5341,-5.15797c-0.94147,-3.29514 -0.43791,-6.32831 1.12474,-6.77478c1.56264,-0.44647 3.59262,1.86283 4.53409,5.15797z" fill="url(#color-43)"/></g><path d="M395.93368,87.8984c0,3.91201 -0.97005,7.08333 -2.16667,7.08333c-1.19662,0 -2.16667,-3.17132 -2.16667,-7.08333c0,-3.91201 0.97005,-7.08333 2.16667,-7.08333c1.19662,0 2.16667,3.17132 2.16667,7.08333z" fill="url(#color-44)"/><path d="M395.59291,99.76335c-0.25385,2.39398 -1.05326,4.27172 -1.78553,4.19408c-0.73228,-0.07764 -1.12011,-2.08129 -0.86627,-4.47527c0.25385,-2.39398 1.05325,-4.27173 1.78553,-4.19409c0.73228,0.07764 1.12012,2.0813 0.86627,4.47527z" fill="url(#color-45)"/></g><g><g><g><g><path d="M323.68486,68.24698c-3.11163,-11.44304 3.30971,-23.15149 14.34246,-26.15155c11.03276,-3.00006 22.49903,3.84433 25.61066,15.28737c3.11163,11.44304 -3.3097,23.1515 -14.34245,26.15156c-11.03276,3.00006 -22.49904,-3.84434 -25.61067,-15.28737z" fill="url(#color-46)"/><path d="M339.18656,63.7649c-3.11163,-11.44304 3.30972,-23.15149 14.34248,-26.15155c11.03276,-3.00006 22.49903,3.84433 25.61066,15.28737c3.11163,11.44304 -3.30971,23.1515 -14.34246,26.15156c-11.03276,3.00006 -22.49904,-3.84434 -25.61067,-15.28737z" fill="url(#color-47)"/><path d="M361.67295,57.86625c1.58659,5.83471 -4.33474,12.2506 -13.56199,14.19324c-27.38039,5.7645 -31.1347,-1.75904 -31.1347,-1.75904c0,0 10.21885,-12.69848 20.9989,-16.19653c10.78005,-3.49805 22.1112,-2.07238 23.69779,3.76233z" fill="#4ca04e"/><path d="M361.67295,57.86625c1.58659,5.83471 -4.33474,12.2506 -13.56199,14.19324c-27.38039,5.7645 -31.1347,-1.75904 -31.1347,-1.75904c0,0 7.56026,4.01834 27.33111,-1.78753c20.9305,-6.1464 17.26297,-11.02404 17.36558,-10.64667z" fill="url(#color-48)"/></g><path d="M341.65295,54.50585c5.02387,-0.92674 9.48231,0.41336 9.9582,2.99318c0.47589,2.57983 -3.21097,5.42246 -8.23485,6.3492c-5.02387,0.92674 -9.48231,-0.41337 -9.9582,-2.99319c-0.47589,-2.57983 3.21097,-5.42245 8.23485,-6.34919z" fill="url(#color-49)"/></g><g><g data-paper-data="{&quot;index&quot;:null}"><path d="M372.13327,84.99448c-11.05806,-2.90537 -17.57952,-14.55835 -14.5661,-26.02764c3.01342,-11.46929 14.42061,-18.41173 25.47867,-15.50636c11.05807,2.90537 17.57953,14.55836 14.56611,26.02765c-3.01342,11.46929 -14.42061,18.41172 -25.47868,15.50635z" fill="url(#color-50)"/><path d="M382.81159,54.04742c14.38585,4.33157 20.21215,15.60063 20.21215,15.60063c0,0 -3.68968,7.55545 -31.11848,2.02587c-9.24357,-1.86348 -15.21968,-8.22836 -13.68316,-14.07647c1.53652,-5.84811 10.20364,-7.8816 24.58949,-3.55003z" fill="#4ca04e"/><path d="M375.67831,68.09488c19.8199,5.63618 27.34543,1.55316 27.34543,1.55316c0,0 -3.68968,7.55545 -31.11848,2.02587c-9.24357,-1.86348 -15.21968,-8.22836 -13.68316,-14.07647c0.09938,-0.37823 -3.52621,4.53069 17.45621,10.49744z" fill="url(#color-51)"/></g><path d="M382.44449,60.85504c-0.47589,2.57982 -4.93433,3.91993 -9.9582,2.99319c-5.02387,-0.92674 -8.71074,-3.76937 -8.23485,-6.3492c0.47589,-2.57982 4.93433,-3.91992 9.9582,-2.99318c5.02388,0.92674 8.71074,3.76936 8.23485,6.34919z" data-paper-data="{&quot;index&quot;:null}" fill="url(#color-52)"/></g></g><g><path d="M392.32403,58.23675c-0.16351,4.0392 -13.65418,6.77285 -30.13225,6.1058c-16.47807,-0.66706 -29.70363,-4.48221 -29.54012,-8.52141c0.16351,-4.0392 13.65418,-6.77286 30.13225,-6.1058c16.47807,0.66706 29.70363,4.48222 29.54012,8.52142z" fill="url(#color-53)"/><g><g><g><path d="M334.26322,52.64471c-1.37217,-0.59405 -0.90639,-18.59643 0.77481,-19.14012c2.41972,-0.78249 28.37872,2.85369 28.37872,2.85369c0,0 24.397,-4.36365 28.80341,-2.45602c1.24901,0.54072 -1.2544,23.38953 -1.81648,23.5713c-1.21992,0.3945 -15.46217,-3.6549 -28.66516,-4.71804c-13.11619,-1.05615 -25.19005,0.87852 -27.4753,-0.1108z" fill="#533737"/><path d="M334.26322,52.64471c-1.37217,-0.59405 -0.90639,-18.59643 0.77481,-19.14012c2.41972,-0.78249 25.77106,5.57847 25.77106,5.57847c0,0 27.00466,-7.08843 31.41107,-5.1808c1.24901,0.54072 -1.2544,23.38953 -1.81648,23.5713c-1.21992,0.3945 -15.46217,-3.6549 -28.66516,-4.71804c-13.11619,-1.05615 -25.19005,0.87852 -27.4753,-0.1108z" fill="#3b2727"/></g><path d="M334.26322,52.64471c-1.03071,-0.44622 -1.02439,-10.71464 -0.2449,-16.02806c0.81605,1.00262 1.77128,2.00975 2.85819,3.04944c8.3892,8.02465 23.15377,9.46221 35.2021,6.60433c7.28004,-0.07568 15.5445,-5.26207 20.48486,-10.13589c0.06049,5.85957 -1.69978,21.19026 -2.15978,21.33902c-1.21992,0.3945 -15.46217,-3.6549 -28.66516,-4.71804c-13.11619,-1.05615 -25.19005,0.87852 -27.4753,-0.1108z" fill="url(#color-54)"/></g><path d="M329.64626,56.03245c-1.60918,-0.20543 -1.72359,-4.90512 0.20186,-4.98655c2.77126,-0.1172 16.13793,-0.63198 31.47484,-0.19021c13.79733,0.39742 29.53271,1.70989 34.70024,2.3696c1.46474,0.18699 -0.60253,6.08248 -1.24627,6.10971c-1.39716,0.05909 -17.04053,-1.95609 -32.35518,-2.71378c-15.21397,-0.75271 -30.09551,-0.24662 -32.77549,-0.58876z" fill="#4f3434"/></g></g></g></g></g></svg>