<svg version="1.1" xmlns="http://www.w3.org/2000/svg" xmlns:xlink="http://www.w3.org/1999/xlink" width="758.91667" height="420" viewBox="0,0,758.91667,420"><defs><linearGradient x1="-12.50451" y1="188.24325" x2="148.32658" y2="188.24325" gradientUnits="userSpaceOnUse" id="color-1"><stop offset="0" stop-color="#000000"/><stop offset="1" stop-color="#000000" stop-opacity="0"/></linearGradient><linearGradient x1="743.41667" y1="185" x2="582.58559" y2="185" gradientUnits="userSpaceOnUse" id="color-2"><stop offset="0" stop-color="#000000"/><stop offset="1" stop-color="#000000" stop-opacity="0"/></linearGradient><linearGradient x1="364.5428" y1="-9.95495" x2="364.5428" y2="117.67268" gradientUnits="userSpaceOnUse" id="color-3"><stop offset="0" stop-color="#000000"/><stop offset="1" stop-color="#000000" stop-opacity="0"/></linearGradient><linearGradient x1="363.53679" y1="384.56562" x2="363.53679" y2="256.93799" gradientUnits="userSpaceOnUse" id="color-4"><stop offset="0" stop-color="#000000"/><stop offset="1" stop-color="#000000" stop-opacity="0"/></linearGradient><linearGradient x1="354.59372" y1="233.34716" x2="345.43922" y2="226.36843" gradientUnits="userSpaceOnUse" id="color-5"><stop offset="0" stop-color="#484c5e"/><stop offset="1" stop-color="#212d30"/></linearGradient><linearGradient x1="353.6032" y1="242.23206" x2="341.20407" y2="232.77984" gradientUnits="userSpaceOnUse" id="color-6"><stop offset="0" stop-color="#484c5e"/><stop offset="1" stop-color="#212d30"/></linearGradient><linearGradient x1="348.46144" y1="253.10565" x2="343.39411" y2="238.36098" gradientUnits="userSpaceOnUse" id="color-7"><stop offset="0" stop-color="#484c5e"/><stop offset="1" stop-color="#212d30"/></linearGradient><linearGradient x1="338.16317" y1="261.09729" x2="340.66248" y2="245.7078" gradientUnits="userSpaceOnUse" id="color-8"><stop offset="0" stop-color="#484c5e"/><stop offset="1" stop-color="#212d30"/></linearGradient><linearGradient x1="328.5935" y1="264.91203" x2="331.09281" y2="249.52253" gradientUnits="userSpaceOnUse" id="color-9"><stop offset="0" stop-color="#484c5e"/><stop offset="1" stop-color="#212d30"/></linearGradient><linearGradient x1="320.39094" y1="268.1818" x2="322.89024" y2="252.79231" gradientUnits="userSpaceOnUse" id="color-10"><stop offset="0" stop-color="#484c5e"/><stop offset="1" stop-color="#212d30"/></linearGradient><linearGradient x1="311.16304" y1="271.86029" x2="313.66235" y2="256.47079" gradientUnits="userSpaceOnUse" id="color-11"><stop offset="0" stop-color="#484c5e"/><stop offset="1" stop-color="#212d30"/></linearGradient><linearGradient x1="302.96047" y1="275.13006" x2="305.45977" y2="259.74057" gradientUnits="userSpaceOnUse" id="color-12"><stop offset="0" stop-color="#484c5e"/><stop offset="1" stop-color="#212d30"/></linearGradient><linearGradient x1="309.06606" y1="279.67478" x2="283.95574" y2="279.70597" gradientUnits="userSpaceOnUse" id="color-13"><stop offset="0" stop-color="#484c5e"/><stop offset="1" stop-color="#212d30"/></linearGradient><linearGradient x1="335.36282" y1="137.86508" x2="336.37539" y2="146.94849" gradientUnits="userSpaceOnUse" id="color-14"><stop offset="0" stop-color="#484c5e"/><stop offset="1" stop-color="#212d30"/></linearGradient><linearGradient x1="323.67135" y1="138.40742" x2="325.0428" y2="150.71025" gradientUnits="userSpaceOnUse" id="color-15"><stop offset="0" stop-color="#484c5e"/><stop offset="1" stop-color="#212d30"/></linearGradient><linearGradient x1="310.67982" y1="139.01007" x2="312.05129" y2="151.3129" gradientUnits="userSpaceOnUse" id="color-16"><stop offset="0" stop-color="#484c5e"/><stop offset="1" stop-color="#212d30"/></linearGradient><linearGradient x1="299.13181" y1="139.54575" x2="300.50327" y2="151.84858" gradientUnits="userSpaceOnUse" id="color-17"><stop offset="0" stop-color="#484c5e"/><stop offset="1" stop-color="#212d30"/></linearGradient><linearGradient x1="285.65912" y1="140.17072" x2="287.03059" y2="152.47355" gradientUnits="userSpaceOnUse" id="color-18"><stop offset="0" stop-color="#484c5e"/><stop offset="1" stop-color="#212d30"/></linearGradient><linearGradient x1="274.1111" y1="140.7064" x2="275.48256" y2="153.00924" gradientUnits="userSpaceOnUse" id="color-19"><stop offset="0" stop-color="#484c5e"/><stop offset="1" stop-color="#212d30"/></linearGradient><linearGradient x1="261.11958" y1="141.30904" x2="262.49105" y2="153.61188" gradientUnits="userSpaceOnUse" id="color-20"><stop offset="0" stop-color="#484c5e"/><stop offset="1" stop-color="#212d30"/></linearGradient><linearGradient x1="249.57157" y1="141.84473" x2="250.94303" y2="154.14756" gradientUnits="userSpaceOnUse" id="color-21"><stop offset="0" stop-color="#484c5e"/><stop offset="1" stop-color="#212d30"/></linearGradient><linearGradient x1="384.63718" y1="137.86508" x2="383.62461" y2="146.94849" gradientUnits="userSpaceOnUse" id="color-22"><stop offset="0" stop-color="#484c5e"/><stop offset="1" stop-color="#212d30"/></linearGradient><linearGradient x1="396.32865" y1="138.40742" x2="394.9572" y2="150.71025" gradientUnits="userSpaceOnUse" id="color-23"><stop offset="0" stop-color="#484c5e"/><stop offset="1" stop-color="#212d30"/></linearGradient><linearGradient x1="409.32018" y1="139.01007" x2="407.94871" y2="151.3129" gradientUnits="userSpaceOnUse" id="color-24"><stop offset="0" stop-color="#484c5e"/><stop offset="1" stop-color="#212d30"/></linearGradient><linearGradient x1="420.86819" y1="139.54575" x2="419.49673" y2="151.84858" gradientUnits="userSpaceOnUse" id="color-25"><stop offset="0" stop-color="#484c5e"/><stop offset="1" stop-color="#212d30"/></linearGradient><linearGradient x1="434.34088" y1="140.17072" x2="432.96941" y2="152.47355" gradientUnits="userSpaceOnUse" id="color-26"><stop offset="0" stop-color="#484c5e"/><stop offset="1" stop-color="#212d30"/></linearGradient><linearGradient x1="445.8889" y1="140.7064" x2="444.51744" y2="153.00924" gradientUnits="userSpaceOnUse" id="color-27"><stop offset="0" stop-color="#484c5e"/><stop offset="1" stop-color="#212d30"/></linearGradient><linearGradient x1="458.88042" y1="141.30904" x2="457.50895" y2="153.61188" gradientUnits="userSpaceOnUse" id="color-28"><stop offset="0" stop-color="#484c5e"/><stop offset="1" stop-color="#212d30"/></linearGradient><linearGradient x1="470.42843" y1="141.84473" x2="469.05697" y2="154.14756" gradientUnits="userSpaceOnUse" id="color-29"><stop offset="0" stop-color="#484c5e"/><stop offset="1" stop-color="#212d30"/></linearGradient><linearGradient x1="366.99489" y1="237.31056" x2="376.14939" y2="230.33183" gradientUnits="userSpaceOnUse" id="color-30"><stop offset="0" stop-color="#484c5e"/><stop offset="1" stop-color="#212d30"/></linearGradient><linearGradient x1="367.9854" y1="246.19546" x2="380.38454" y2="236.74324" gradientUnits="userSpaceOnUse" id="color-31"><stop offset="0" stop-color="#484c5e"/><stop offset="1" stop-color="#212d30"/></linearGradient><linearGradient x1="373.12717" y1="257.06904" x2="378.1945" y2="242.32438" gradientUnits="userSpaceOnUse" id="color-32"><stop offset="0" stop-color="#484c5e"/><stop offset="1" stop-color="#212d30"/></linearGradient><linearGradient x1="383.42543" y1="265.06069" x2="380.92613" y2="249.6712" gradientUnits="userSpaceOnUse" id="color-33"><stop offset="0" stop-color="#484c5e"/><stop offset="1" stop-color="#212d30"/></linearGradient><linearGradient x1="392.99511" y1="268.87542" x2="390.4958" y2="253.48593" gradientUnits="userSpaceOnUse" id="color-34"><stop offset="0" stop-color="#484c5e"/><stop offset="1" stop-color="#212d30"/></linearGradient><linearGradient x1="401.19766" y1="272.1452" x2="398.69837" y2="256.75571" gradientUnits="userSpaceOnUse" id="color-35"><stop offset="0" stop-color="#484c5e"/><stop offset="1" stop-color="#212d30"/></linearGradient><linearGradient x1="410.42556" y1="275.82369" x2="407.92626" y2="260.4342" gradientUnits="userSpaceOnUse" id="color-36"><stop offset="0" stop-color="#484c5e"/><stop offset="1" stop-color="#212d30"/></linearGradient><linearGradient x1="418.62814" y1="279.09346" x2="416.12883" y2="263.70397" gradientUnits="userSpaceOnUse" id="color-37"><stop offset="0" stop-color="#484c5e"/><stop offset="1" stop-color="#212d30"/></linearGradient><linearGradient x1="340.84118" y1="183.824" x2="381.33856" y2="183.824" gradientUnits="userSpaceOnUse" id="color-38"><stop offset="0" stop-color="#484c5e"/><stop offset="1" stop-color="#212d30"/></linearGradient><linearGradient x1="336.95343" y1="131.80312" x2="385.22631" y2="131.80312" gradientUnits="userSpaceOnUse" id="color-39"><stop offset="0" stop-color="#484c5e"/><stop offset="1" stop-color="#212d30"/></linearGradient><linearGradient x1="359.04091" y1="103.96541" x2="364.6971" y2="103.96541" gradientUnits="userSpaceOnUse" id="color-40"><stop offset="0" stop-color="#484c5e"/><stop offset="1" stop-color="#212d30"/></linearGradient><linearGradient x1="359.04091" y1="115.59338" x2="366.70183" y2="115.59338" gradientUnits="userSpaceOnUse" id="color-41"><stop offset="0" stop-color="#484c5e"/><stop offset="1" stop-color="#212d30"/></linearGradient><linearGradient x1="359.04091" y1="128.51434" x2="366.70183" y2="128.51434" gradientUnits="userSpaceOnUse" id="color-42"><stop offset="0" stop-color="#484c5e"/><stop offset="1" stop-color="#212d30"/></linearGradient><linearGradient x1="359.04091" y1="139.99963" x2="366.70183" y2="139.99963" gradientUnits="userSpaceOnUse" id="color-43"><stop offset="0" stop-color="#484c5e"/><stop offset="1" stop-color="#212d30"/></linearGradient><linearGradient x1="359.04091" y1="153.39916" x2="366.70183" y2="153.39916" gradientUnits="userSpaceOnUse" id="color-44"><stop offset="0" stop-color="#484c5e"/><stop offset="1" stop-color="#212d30"/></linearGradient><linearGradient x1="359.04091" y1="164.88445" x2="366.70183" y2="164.88445" gradientUnits="userSpaceOnUse" id="color-45"><stop offset="0" stop-color="#484c5e"/><stop offset="1" stop-color="#212d30"/></linearGradient><linearGradient x1="359.04091" y1="177.80543" x2="366.70183" y2="177.80543" gradientUnits="userSpaceOnUse" id="color-46"><stop offset="0" stop-color="#484c5e"/><stop offset="1" stop-color="#212d30"/></linearGradient><linearGradient x1="359.04091" y1="189.29071" x2="366.70183" y2="189.29071" gradientUnits="userSpaceOnUse" id="color-47"><stop offset="0" stop-color="#484c5e"/><stop offset="1" stop-color="#212d30"/></linearGradient><linearGradient x1="350.24335" y1="155.45593" x2="372.28184" y2="155.45593" gradientUnits="userSpaceOnUse" id="color-48"><stop offset="0" stop-color="#484c5e"/><stop offset="1" stop-color="#212d30"/></linearGradient><linearGradient x1="382.05264" y1="146.79171" x2="368.59402" y2="146.79171" gradientUnits="userSpaceOnUse" id="color-49"><stop offset="0" stop-color="#484c5e"/><stop offset="1" stop-color="#212d30"/></linearGradient><linearGradient x1="340.84422" y1="148.08974" x2="354.30284" y2="148.08974" gradientUnits="userSpaceOnUse" id="color-50"><stop offset="0" stop-color="#484c5e"/><stop offset="1" stop-color="#212d30"/></linearGradient><linearGradient x1="360.76441" y1="190.54925" x2="360.76441" y2="220.59581" gradientUnits="userSpaceOnUse" id="color-51"><stop offset="0" stop-color="#484c5e"/><stop offset="1" stop-color="#212d30"/></linearGradient><linearGradient x1="349.97799" y1="191.98355" x2="349.97799" y2="199.06595" gradientUnits="userSpaceOnUse" id="color-52"><stop offset="0" stop-color="#484c5e"/><stop offset="1" stop-color="#212d30"/></linearGradient><linearGradient x1="372.64168" y1="191.98355" x2="372.64168" y2="199.06595" gradientUnits="userSpaceOnUse" id="color-53"><stop offset="0" stop-color="#484c5e"/><stop offset="1" stop-color="#212d30"/></linearGradient><linearGradient x1="412.52255" y1="283.63818" x2="437.63287" y2="283.66937" gradientUnits="userSpaceOnUse" id="color-54"><stop offset="0" stop-color="#484c5e"/><stop offset="1" stop-color="#212d30"/></linearGradient><radialGradient cx="360" cy="179.99998" r="362.61261" gradientUnits="userSpaceOnUse" id="color-55"><stop offset="0" stop-color="#000000" stop-opacity="0.83922"/><stop offset="1" stop-color="#000000" stop-opacity="0"/></radialGradient><radialGradient cx="360" cy="179.99998" r="362.61262" gradientUnits="userSpaceOnUse" id="color-56"><stop offset="0" stop-color="#000000" stop-opacity="0"/><stop offset="1" stop-color="#000000"/></radialGradient></defs><g transform="translate(15.5,30)"><g stroke-miterlimit="10"><g stroke-linecap="butt"><path d="M0.04123,153v-160.3741h719.91754v160.3741z" fill="#323232" stroke="#000000" stroke-width="0"/><path d="M226.82491,244.00002v-128h248.01449v128z" fill="#3f3f3f" stroke="#000000" stroke-width="0"/><path d="M282.79705,217.81297v-89h153.44087v89z" fill="#686868" stroke="#000000" stroke-width="0"/><path d="M0.6078,360.00001v-128h719.91754v128z" fill="#323232" stroke="#000000" stroke-width="0"/><path d="M12.58671,360.00001v-360l284.68589,116l0.96504,128.5z" fill="#505050" stroke="none" stroke-width="0"/><path d="M707.41329,0.00001v360l-284.68589,-116l-0.96504,-128.5z" fill="#505050" stroke="none" stroke-width="0"/><path d="M-2.61262,295.50001v-225l300.609,83v42z" fill="#909090" stroke="#000000" stroke-width="0"/><path d="M422.00362,195.50002v-42l300.609,-83v225z" fill="#909090" stroke="#000000" stroke-width="0"/><text transform="translate(322.72372,166.34742) scale(0.80247,0.83154)" font-size="40" xml:space="preserve" fill="#000000" stroke="#000000" stroke-width="3" font-family="&quot;Agency FB&quot;, Sans Serif" font-weight="normal" text-anchor="start"><tspan x="0" dy="0">A . S . C</tspan></text><text transform="translate(325.74612,171.3863) rotate(90) scale(0.217,0.20941)" font-size="40" xml:space="preserve" fill="#000000" stroke="#000000" stroke-width="2" font-family="&quot;Agency FB&quot;, Sans Serif" font-weight="normal" text-anchor="start"><tspan x="0" dy="0">NIMATRONIC</tspan></text><text transform="translate(357.10143,172.05296) rotate(90) scale(0.217,0.20941)" font-size="40" xml:space="preserve" fill="#000000" stroke="#000000" stroke-width="2" font-family="&quot;Agency FB&quot;, Sans Serif" font-weight="normal" text-anchor="start"><tspan x="0" dy="0">ECURITY</tspan></text><text transform="translate(389.59101,172.05296) rotate(90) scale(0.217,0.20941)" font-size="40" xml:space="preserve" fill="#000000" stroke="#000000" stroke-width="2" font-family="&quot;Agency FB&quot;, Sans Serif" font-weight="normal" text-anchor="start"><tspan x="0" dy="0">ENTER</tspan></text><path d="M325.25867,70.06296c0,-6.18292 15.55422,-11.19516 34.74133,-11.19516c19.18711,0 34.74133,5.01224 34.74133,11.19516c0,6.18292 -16.03674,16.69516 -35.22385,16.69516c-19.18711,0 -34.25881,-10.51224 -34.25881,-16.69516z" fill="#181818" stroke="#000000" stroke-width="0"/><path d="M331.45445,76.05339c0,-5.08025 12.78028,-9.19861 28.54555,-9.19861c15.76528,0 28.54555,4.11836 28.54555,9.19861c0,5.08025 -13.17675,13.71774 -28.94202,13.71774c-15.76528,0 -28.14908,-8.63749 -28.14908,-13.71774z" fill="#404040" stroke="#000000" stroke-width="0"/></g><path d="M-15.5,30v-60h751v60z" fill="#000000" stroke-opacity="0.50196" stroke="#0d0d0d" stroke-width="0" stroke-linecap="butt"/><path d="M-15.5,390v-60h751v60z" fill="#000000" stroke-opacity="0.50196" stroke="#0d0d0d" stroke-width="0" stroke-linecap="butt"/><g stroke="none" stroke-width="0" stroke-linecap="butt"><path d="M-12.50451,383.43844v-390.39039h160.83109v390.39039z" fill="url(#color-1)"/><path d="M582.58559,380.19519v-390.39039h160.83108v390.39039z" fill="url(#color-2)"/><path d="M-13.83558,117.67268v-127.62762h756.75676v127.62763z" fill="url(#color-3)"/><path d="M741.91517,256.93799v127.62762h-756.75676v-127.62762z" fill="url(#color-4)"/></g><g fill="none" stroke-width="3.25" stroke-linecap="round"><path d="M354.09564,237.81493c0,0 -5.7717,-4.08719 -8.05594,-5.70476c-1.69056,-1.19715 -1.211,-3.2458 0.70466,-3.31821c1.60448,-0.06064 4.70006,-0.17766 6.65004,-0.25137c1.03156,-0.039 0.64785,-0.90037 -0.19915,-1.54607c-1.60334,-1.22227 -6.95765,-5.30401 -6.95765,-5.30401" stroke="url(#color-5)"/><path d="M353.11727,246.59082c0,0 -5.7717,-4.08718 -8.05594,-5.70476c-1.69056,-1.19717 -1.21098,-3.2458 0.70466,-3.31821c2.45328,-0.09273 8.39256,-0.31724 8.39256,-0.31724" stroke="url(#color-6)"/><path d="M345.63788,256.46162c0,0 -2.53239,-6.60337 -3.53462,-9.21677c-0.74174,-1.93417 0.79427,-3.37207 2.42793,-2.36901c2.09214,1.28456 8.42618,1.57435 8.42618,1.57435" stroke="url(#color-7)"/><path d="M334.08916,262.72129c0,0 0.88751,-7.0164 1.23877,-9.79326c0.25997,-2.05514 2.29304,-2.59685 3.25906,-0.94102c1.23713,2.12053 6.91126,4.57519 6.91126,4.57519" stroke="url(#color-8)"/><path d="M324.5195,266.53603c0,0 0.88751,-7.0164 1.23876,-9.79326c0.25997,-2.05514 2.29304,-2.59686 3.25907,-0.94103c1.23713,2.12053 4.23219,7.25426 4.23219,7.25426" stroke="url(#color-9)"/><path d="M316.31693,269.8058c0,0 0.88751,-7.0164 1.23877,-9.79326c0.25997,-2.05514 2.29305,-2.59685 3.25907,-0.94102c1.23713,2.12053 4.23218,7.25426 4.23218,7.25426" stroke="url(#color-10)"/><path d="M307.08903,273.48429c0,0 0.88751,-7.0164 1.23877,-9.79326c0.25997,-2.05514 2.29304,-2.59685 3.25907,-0.94102c1.23713,2.12053 4.23218,7.25426 4.23218,7.25426" stroke="url(#color-11)"/><path d="M298.88645,276.75407c0,0 0.88751,-7.01641 1.23876,-9.79326c0.25997,-2.05514 2.29304,-2.59685 3.25907,-0.94102c1.23713,2.12053 4.23219,7.25426 4.23219,7.25426" stroke="url(#color-12)"/></g><path d="M283.95574,279.70597c-0.00862,-6.93402 5.60554,-12.56214 12.53956,-12.57075c4.01266,-0.00498 13.64652,5.33195 13.64652,5.33195c0,0 0.85164,3.8546 0.85527,6.77598c0.00862,6.93403 -27.03273,7.39685 -27.04135,0.46283z" fill="#272727" stroke="url(#color-13)" stroke-width="0" stroke-linecap="butt"/><g><g fill="none" stroke-width="3.25" stroke-linecap="round"><path d="M342.75867,146.39788c0,0 -0.59224,-5.31272 -0.76958,-6.90361c-0.09369,-0.84043 -0.83251,-1.24715 -1.72882,-0.26131c-1.69429,1.86354 -4.384,4.82191 -5.7781,6.35526c-1.66448,1.83073 -4.56685,2.19625 -4.64171,0.52301c-0.10115,-2.26084 -0.35671,-7.97343 -0.35671,-7.97343" stroke="url(#color-14)"/><path d="M330.22632,138.10335c0,0 -5.16056,5.67601 -7.29217,8.02054c-1.66449,1.83075 -4.56686,2.19626 -4.64171,0.52302c-0.10115,-2.26084 -0.3567,-7.97343 -0.3567,-7.97343" stroke="url(#color-15)"/><path d="M317.23479,138.706c0,0 -5.16056,5.67601 -7.29216,8.02054c-1.66448,1.83074 -4.56685,2.19626 -4.6417,0.52302c-0.10115,-2.26084 -0.35671,-7.97343 -0.35671,-7.97343" stroke="url(#color-16)"/><path d="M305.68679,139.24169c0,0 -5.16056,5.67601 -7.29217,8.02054c-1.66449,1.83074 -4.56686,2.19625 -4.64171,0.52301c-0.10115,-2.26084 -0.3567,-7.97343 -0.3567,-7.97343" stroke="url(#color-17)"/><path d="M292.21409,139.86664c0,0 -5.16057,5.67601 -7.29217,8.02054c-1.66448,1.83074 -4.56684,2.19626 -4.6417,0.52302c-0.10115,-2.26084 -0.3567,-7.97342 -0.3567,-7.97342" stroke="url(#color-18)"/><path d="M280.66607,140.40232c0,0 -5.16056,5.67601 -7.29216,8.02054c-1.66449,1.83075 -4.56686,2.19626 -4.64171,0.52302c-0.10115,-2.26084 -0.3567,-7.97342 -0.3567,-7.97342" stroke="url(#color-19)"/><path d="M267.67454,141.00498c0,0 -5.16056,5.676 -7.29217,8.02053c-1.66448,1.83074 -4.56684,2.19626 -4.6417,0.52302c-0.10115,-2.26084 -0.3567,-7.97343 -0.3567,-7.97343" stroke="url(#color-20)"/><path d="M256.12654,141.54065c0,0 -5.16056,5.67601 -7.29216,8.02054c-1.66449,1.83075 -4.56686,2.19626 -4.64171,0.52302c-0.10115,-2.26084 -0.3567,-7.97343 -0.3567,-7.97343" stroke="url(#color-21)"/></g><path d="M232.14848,130.14127c4.42127,-5.52618 11.50559,3.07396 13.93115,5.11757c1.83689,1.54762 11.26277,-0.61279 10.68782,2.28862c-0.18427,0.92982 -9.21934,6.99243 -9.67182,7.85624c-0.69285,1.32266 -2.60547,8.65206 -3.60711,9.28271c-1.69376,1.06642 -2.63645,-5.25422 -4.16064,-6.5384c-0.71571,-0.603 -6.10404,-0.46238 -6.2176,-4.6505c-0.0408,-1.50469 0.99308,0.84916 2.56391,-1.01808c1.2151,-1.44439 -8.08962,-6.63369 -3.52571,-12.33815z" fill="#0d0d0d" stroke="#000000" stroke-width="0" stroke-linecap="butt"/></g><g><g fill="none" stroke-width="3.25" stroke-linecap="round"><path d="M390.51624,138.1378c0,0 -0.25556,5.71259 -0.35671,7.97343c-0.07485,1.67324 -2.97722,1.30772 -4.64171,-0.52301c-1.39411,-1.53336 -4.08381,-4.49172 -5.7781,-6.35526c-0.89631,-0.98584 -1.63513,-0.57912 -1.72882,0.26131c-0.17734,1.5909 -0.76958,6.90361 -0.76958,6.90361" stroke="url(#color-22)"/><path d="M402.06425,138.67348c0,0 -0.25555,5.71259 -0.3567,7.97343c-0.07485,1.67324 -2.97722,1.30772 -4.64171,-0.52302c-2.1316,-2.34453 -7.29217,-8.02054 -7.29217,-8.02054" stroke="url(#color-23)"/><path d="M415.05578,139.27613c0,0 -0.25556,5.71259 -0.35671,7.97343c-0.07485,1.67324 -2.97722,1.30772 -4.6417,-0.52302c-2.1316,-2.34453 -7.29216,-8.02054 -7.29216,-8.02054" stroke="url(#color-24)"/><path d="M426.60379,139.81181c0,0 -0.25555,5.71259 -0.3567,7.97343c-0.07485,1.67324 -2.97722,1.30772 -4.64171,-0.52301c-2.1316,-2.34453 -7.29217,-8.02054 -7.29217,-8.02054" stroke="url(#color-25)"/><path d="M440.07647,140.43678c0,0 -0.25555,5.71258 -0.3567,7.97342c-0.07485,1.67324 -2.97722,1.30772 -4.6417,-0.52302c-2.1316,-2.34453 -7.29217,-8.02054 -7.29217,-8.02054" stroke="url(#color-26)"/><path d="M451.62449,140.97246c0,0 -0.25555,5.71258 -0.3567,7.97342c-0.07485,1.67324 -2.97722,1.30772 -4.64171,-0.52302c-2.1316,-2.34453 -7.29216,-8.02054 -7.29216,-8.02054" stroke="url(#color-27)"/><path d="M464.61602,141.5751c0,0 -0.25555,5.71259 -0.3567,7.97343c-0.07485,1.67324 -2.97722,1.30772 -4.6417,-0.52302c-2.1316,-2.34453 -7.29217,-8.02053 -7.29217,-8.02053" stroke="url(#color-28)"/><path d="M476.16403,142.11078c0,0 -0.25555,5.71259 -0.3567,7.97343c-0.07485,1.67324 -2.97722,1.30772 -4.64171,-0.52302c-2.1316,-2.34453 -7.29216,-8.02054 -7.29216,-8.02054" stroke="url(#color-29)"/></g><path d="M487.85152,130.14128c4.56391,5.70446 -4.7408,10.89376 -3.52571,12.33815c1.57083,1.86724 2.60471,-0.48661 2.56391,1.01808c-0.11356,4.18812 -5.50189,4.0475 -6.2176,4.6505c-1.52419,1.28418 -2.46688,7.60483 -4.16064,6.5384c-1.00164,-0.63066 -2.91426,-7.96006 -3.60711,-9.28271c-0.45248,-0.86381 -9.48756,-6.92642 -9.67182,-7.85624c-0.57495,-2.90141 8.85093,-0.741 10.68782,-2.28862c2.42556,-2.04361 9.50988,-10.64375 13.93115,-5.11757z" fill="#0d0d0d" stroke="#000000" stroke-width="0" stroke-linecap="butt"/></g><g fill="none" stroke-width="3.25" stroke-linecap="round"><path d="M375.35101,225.65391c0,0 -5.35431,4.08174 -6.95765,5.30401c-0.847,0.64569 -1.23071,1.50707 -0.19915,1.54607c1.94997,0.07371 5.04556,0.19073 6.65004,0.25137c1.91566,0.0724 2.39521,2.12105 0.70466,3.3182c-2.28423,1.61758 -8.05594,5.70476 -8.05594,5.70476" stroke="url(#color-30)"/><path d="M367.43006,241.21402c0,0 5.93928,0.2245 8.39256,0.31724c1.91565,0.07241 2.39521,2.12104 0.70466,3.31821c-2.28423,1.61758 -8.05594,5.70476 -8.05594,5.70476" stroke="url(#color-31)"/><path d="M368.63124,250.41358c0,0 6.33404,-0.28978 8.42618,-1.57435c1.63366,-1.00306 3.16967,0.43485 2.42793,2.36902c-1.00223,2.6134 -3.53462,9.21677 -3.53462,9.21677" stroke="url(#color-32)"/><path d="M376.09036,260.5256c0,0 5.67413,-2.45465 6.91126,-4.57519c0.96602,-1.65583 2.99909,-1.11412 3.25906,0.94102c0.35125,2.77685 1.23876,9.79326 1.23876,9.79326" stroke="url(#color-33)"/><path d="M388.33908,267.01941c0,0 2.99505,-5.13373 4.23219,-7.25426c0.96602,-1.65583 2.9991,-1.11412 3.25907,0.94102c0.35125,2.77685 1.23876,9.79326 1.23876,9.79326" stroke="url(#color-34)"/><path d="M396.54166,270.28918c0,0 2.99505,-5.13372 4.23218,-7.25426c0.96602,-1.65583 2.9991,-1.11412 3.25907,0.94102c0.35125,2.77685 1.23876,9.79326 1.23876,9.79326" stroke="url(#color-35)"/><path d="M405.76957,273.96768c0,0 2.99505,-5.13373 4.23218,-7.25426c0.96602,-1.65583 2.9991,-1.11413 3.25907,0.94102c0.35125,2.77685 1.23877,9.79326 1.23877,9.79326" stroke="url(#color-36)"/><path d="M413.97213,277.23745c0,0 2.99505,-5.13373 4.23219,-7.25426c0.96602,-1.65583 2.9991,-1.11412 3.25907,0.94102c0.35125,2.77685 1.23876,9.79326 1.23876,9.79326" stroke="url(#color-37)"/></g><path d="M381.33855,183.824c0,0.52115 -5.90721,0.47794 -11.89912,-1.94568c-2.75129,-1.11285 -3.85857,-5.66782 -7.37763,-5.66782c-3.98849,0 -4.16448,4.42862 -7.32558,5.92377c-5.70208,2.69699 -13.08509,3.1509 -13.08509,2.66167c0,-0.76045 8.25571,-26.08031 19.43874,-26.08031c11.18304,0 20.24868,24.34793 20.24868,25.10837z" fill="#4c1212" stroke="url(#color-38)" stroke-width="0" stroke-linecap="butt"/><path d="M385.22631,131.80312c0,0.55915 -9.67232,8.94992 -23.0025,8.94992c-13.33019,0 -24.21744,-7.17585 -24.21744,-7.735c0,-0.27604 11.8324,0.90799 23.48629,0.60465c11.9523,-0.3111 23.73365,-2.10268 23.73365,-1.81958z" fill="#4c1212" stroke="url(#color-39)" stroke-width="0" stroke-linecap="butt"/><g fill="none" stroke-width="3.25" stroke-linecap="round"><path d="M387.38208,107.40257c0,0 -3.3082,0 -4.29884,0c-0.52333,0 -0.79652,0.68617 -0.21157,1.68176c1.10575,1.88198 -12.53649,-1.89858 -11.62665,-0.35004c1.08629,1.84885 5.62865,6.45298 4.58994,6.34249c-1.40348,-0.14929 -9.85665,-1.71096 -9.85665,-1.71096" stroke="url(#color-40)"/><path d="M365.97831,113.81174c0,0 3.36794,5.73219 4.7591,8.09992c1.08629,1.84885 -3.6776,1.71523 -4.71632,1.60476c-1.40348,-0.14929 -5.28813,0.65791 -5.28813,0.65791" stroke="url(#color-41)"/><path d="M360.73296,124.87146c0,0 1.67589,2.8557 3.06705,5.22343c1.08629,1.84885 1.22933,4.76091 0.19062,4.65044c-1.40348,-0.14929 -4.94972,-0.52652 -4.94972,-0.52652" stroke="url(#color-42)"/><path d="M359.04091,133.48027c0,0 3.36794,5.73219 4.7591,8.09992c1.08629,1.84885 1.22933,4.76092 0.19062,4.65044c-1.40348,-0.14929 -4.94972,-0.52653 -4.94972,-0.52653" stroke="url(#color-43)"/><path d="M359.04091,146.87978c0,0 3.36794,5.73219 4.7591,8.09992c1.08629,1.84885 1.22933,4.76091 0.19062,4.65044c-1.40348,-0.14929 -4.94972,-0.52652 -4.94972,-0.52652" stroke="url(#color-44)"/><path d="M359.04091,158.36508c0,0 3.36794,5.73218 4.7591,8.09991c1.08629,1.84885 1.22933,4.76092 0.19062,4.65044c-1.40348,-0.14929 -4.94972,-0.52652 -4.94972,-0.52652" stroke="url(#color-45)"/><path d="M359.04091,171.28604c0,0 3.36794,5.73219 4.7591,8.09992c1.08629,1.84885 1.22933,4.76092 0.19062,4.65044c-1.40348,-0.14929 -4.94972,-0.52653 -4.94972,-0.52653" stroke="url(#color-46)"/><path d="M359.04091,182.77134c0,0 3.36794,5.73219 4.7591,8.09992c1.08629,1.84885 1.22933,4.76092 0.19062,4.65044c-1.40348,-0.14929 -4.94972,-0.52653 -4.94972,-0.52653" stroke="url(#color-47)"/></g><path d="M349.28433,146.16663c0,-2.61663 -5.70058,-7.80662 -5.02803,-9.02126c0.84771,-1.53099 8.24428,1.25101 9.88931,1.03205c2.00481,-0.26684 4.48945,0.06165 7.18022,0.06165c2.81447,0 5.54763,-0.26147 7.76422,0.1899c1.32407,0.26962 8.21445,-1.71725 9.07709,-0.73125c1.10558,1.26366 -3.99461,5.79705 -3.99461,9.01563c0,5.34348 0.25684,17.15961 -2.43503,22.99792c-2.31263,5.01579 -7.33849,4.5025 -10.41168,4.5025c-2.58281,0 -8.48932,-0.98251 -10.45023,-4.90643c-3.08813,-6.17958 -1.59128,-17.06473 -1.59128,-23.14072z" fill="#dadada" stroke="#000000" stroke-width="0" stroke-linecap="butt"/><path d="M350.24335,155.45593c0,-7.41308 4.93348,-13.42259 11.01924,-13.42259c6.08576,0 11.01925,6.0095 11.01925,13.42259c0,7.41308 -4.93349,13.42259 -11.01925,13.42259c-6.08576,0 -11.01924,-6.0095 -11.01924,-13.42259z" fill="#ababab" stroke="url(#color-48)" stroke-width="0" stroke-linecap="butt"/><path d="M370.92011,173.82731c-1.67686,-10.68409 1.56557,-34.99976 2.86906,-38.01729c2.18407,-5.05605 7.52146,-4.70722 11.79635,-4.32749c2.50809,0.2228 -3.16309,20.06713 -8.23751,32.84308c-2.41536,6.08121 4.70461,19.64554 4.70461,19.64554c0,0 -9.45307,0.55678 -11.13252,-10.14384z" fill="#801d1d" stroke="url(#color-49)" stroke-width="0" stroke-linecap="butt"/><path d="M340.84422,185.26917c0,0 7.11998,-13.56433 4.70461,-19.64554c-5.07442,-12.77595 -10.7456,-32.62029 -8.2375,-32.84308c4.27491,-0.37973 9.61229,-0.72857 11.79635,4.32748c1.30348,3.01754 4.54592,27.33321 2.86906,38.0173c-1.67945,10.70061 -11.13252,10.14384 -11.13252,10.14384z" fill="#801d1d" stroke="url(#color-50)" stroke-width="0" stroke-linecap="butt"/><path d="M347.95214,191.69475c2.42106,-1.66997 24.98237,-2.93164 27.7382,0.33775c2.20344,2.61406 5.058,32.12933 1.9437,38.39913c-2.49103,5.01503 -15.38226,-0.1568 -15.38226,-0.1568c0,0 0.2657,-22.98571 -1.12299,-22.98645c-1.35955,-0.00073 -1.38821,23.05244 -1.38821,23.05244c0,0 -14.31377,-1.50404 -15.98136,-1.40725c-3.37607,0.19596 0.26433,-34.52903 4.19292,-37.23883z" fill="#0d0d0d" stroke="url(#color-51)" stroke-width="0" stroke-linecap="butt"/><path d="M346.43679,195.52475c0,-1.95575 1.58545,-3.5412 3.54121,-3.5412c1.95575,0 3.5412,1.58544 3.5412,3.5412c0,1.95575 -1.58545,3.5412 -3.5412,3.5412c-1.95575,0 -3.54121,-1.58545 -3.54121,-3.5412z" fill="#e1f194" stroke="url(#color-52)" stroke-width="0" stroke-linecap="butt"/><path d="M369.10048,195.52475c0,-1.95575 1.58545,-3.5412 3.5412,-3.5412c1.95575,0 3.54121,1.58544 3.54121,3.5412c0,1.95575 -1.58545,3.5412 -3.54121,3.5412c-1.95575,0 -3.5412,-1.58545 -3.5412,-3.5412z" fill="#e1f194" stroke="url(#color-53)" stroke-width="0" stroke-linecap="butt"/><path d="M410.59152,283.20654c0.00363,-2.92138 0.85527,-6.77598 0.85527,-6.77598c0,0 9.63386,-5.33693 13.64651,-5.33194c6.93402,0.00862 12.54817,5.63673 12.53956,12.57075c-0.00862,6.93402 -27.04996,6.47119 -27.04134,-0.46283z" fill="#272727" stroke="url(#color-54)" stroke-width="0" stroke-linecap="butt"/><g stroke="#000000" stroke-width="0" stroke-linecap="butt"><path d="M363.06533,174.17465l3.19554,-13.76644l3.25916,0.75655l-3.19553,13.76643z" fill="#2f323e"/><path d="M364.14615,159.21063c-1.01538,-2.88572 0.90078,-12.09856 0.90078,-12.09856l11.12555,2.4742c0,0 -2.51913,8.77404 -4.22085,11.15273c-1.14746,1.60395 -3.0253,0.93663 -4.44006,0.60822c-1.05419,-0.24471 -2.9355,-0.9148 -3.36541,-2.13662z" fill="#2f323e"/><g><path d="M397.60955,144.6984c-0.12097,-2.98526 -1.02818,-4.74578 -1.14548,-7.02899c-0.11068,-2.15445 0.57045,-4.86526 0.39622,-6.5463c-0.43058,-4.15445 -1.00905,-7.0653 -0.42327,-9.56102c0.36577,-1.55836 2.38034,-3.78203 3.08938,-5.00031c0.77586,-1.33311 5.25036,-0.4743 7.60703,1.46225c2.05176,1.686 1.93869,4.10097 3.49843,7.71616c0.69776,1.61727 2.7864,5.55696 3.23085,7.45303c0.73714,3.14471 -0.14515,4.85474 -0.36037,7.84915c-0.18032,2.50888 1.07907,6.56525 0.94144,9.50192c-0.06422,1.37054 -1.37436,1.75049 -1.56637,2.9721c-0.2318,1.47475 0.3043,6.43512 0.02591,7.74645c-0.79053,3.72373 -2.33907,4.57268 -3.477,6.7369c-1.35055,2.56862 -1.08882,8.79141 -2.50372,10.15731c-2.06701,1.99544 -6.58892,1.42133 -8.25446,1.15954c-1.63514,-0.25701 -4.10017,0.80209 -5.31191,-1.33976c-0.93759,-1.65726 -1.28255,-5.31346 -1.28297,-9.2046c-0.00025,-2.31896 -0.73014,-2.5308 -0.43947,-5.27112c0.17356,-1.63622 1.25642,-5.56578 1.56493,-7.52848c0.52057,-3.31197 4.68595,-4.485 4.41086,-11.27425z" fill="#a3a3a3"/><path d="M400.9167,119.53688c1.37727,-0.04028 2.57337,2.64854 2.67154,6.00565c0.09818,3.35711 -0.93874,6.11124 -2.31601,6.15151c-1.37727,0.04028 -2.57337,-2.64854 -2.67155,-6.00565c-0.09818,-3.35711 0.93873,-6.11124 2.316,-6.15153z" fill="#0d0d0d"/></g><path d="M401.42044,122.80835c0.69429,0.46914 1.08252,1.80103 1.14514,2.65341c0.04491,0.61137 -0.01353,1.78499 -0.34227,2.2505c-2.00343,2.83706 -9.95864,2.25209 -10.23234,-1.47374c-0.25597,-3.48484 6.59088,-5.34818 9.42945,-3.43017z" fill="#2f323e"/><g><path d="M348.63549,146.80996c-0.58764,1.89791 -1.34653,5.90264 -1.91149,7.448c-0.94621,2.58815 -1.69478,2.4568 -2.71654,4.53856c-1.71448,3.49308 -3.63477,6.62347 -5.20654,7.69824c-2.03135,1.38905 -3.77779,-0.64766 -5.35894,-1.13722c-1.61056,-0.49867 -5.92298,-1.97523 -6.89961,-4.67718c-0.66852,-1.84953 2.30768,-7.32071 2.22674,-10.2216c-0.0682,-2.44418 -1.0844,-3.88849 -0.15378,-7.57969c0.32772,-1.29987 2.99414,-5.51688 3.43569,-6.94292c0.36575,-1.18127 -0.64303,-2.09951 -0.09695,-3.35819c1.1701,-2.69701 4.08761,-5.78384 5.03091,-8.11559c1.12587,-2.78303 1.08708,-4.70685 3.13415,-7.20529c1.23426,-1.50642 4.8448,-4.12318 6.18363,-5.26771c2.99277,-2.55844 3.95511,-4.77628 6.53979,-5.38605c2.96878,-0.7004 7.36404,0.4997 7.47332,2.03829c0.09988,1.40605 0.92889,4.28981 0.57078,5.84991c-0.57351,2.49859 -2.37511,4.85694 -4.59176,8.3969c-0.89694,1.4324 -1.47959,4.16606 -2.52805,6.05146c-1.1111,1.99807 -2.70107,3.17893 -4.12472,5.80564c-3.23773,5.97381 -0.015,8.86181 -1.00663,12.06444z" fill="#a3a3a3"/><path d="M357.12652,117.24273c-1.567,2.97058 -3.82525,4.85757 -5.04395,4.21468c-1.2187,-0.64289 -0.93636,-3.57215 0.63064,-6.54273c1.567,-2.97058 3.82525,-4.85757 5.04395,-4.21468c1.2187,0.64289 0.93636,3.57215 -0.63064,6.54273z" fill="#0d0d0d"/></g><path d="M362.81802,120.64829c-1.88698,3.22429 -9.28643,0.24506 -9.83524,-3.18444c-0.09006,-0.56274 0.37447,-1.64208 0.68409,-2.17116c0.4317,-0.73761 1.36696,-1.76233 2.19691,-1.87765c3.39325,-0.47146 8.71913,4.21751 6.95422,7.23322z" fill="#2f323e"/><path d="M393.38587,158.11679c-0.15402,0.66352 -13.0236,2.63636 -24.79158,-0.09583c-11.74998,-2.728 -22.39861,-10.16001 -22.24482,-10.8225c0.15326,-0.66024 10.87606,6.09025 22.58666,8.80567c11.80849,2.73812 24.6043,1.44689 24.44974,2.11265z" fill="#686e88"/><path d="M393.2914,157.74562c-0.42725,1.84052 -7.59049,21.68333 -28.75814,16.76978c-21.16765,-4.91355 -18.46696,-26.87522 -18.03972,-28.71575c0.42725,-1.84052 -1.58076,17.13705 19.58689,22.0506c21.16765,4.91355 27.63821,-11.94515 27.21099,-10.10461z" fill="#dadada"/><path d="M364.35554,164.27869l3.03527,-13.07594l4.90863,1.13943l-3.03527,13.07594z" fill="#24262f"/><path d="M347.96755,131.0599c3.26001,-14.04417 17.2878,-22.78643 31.33196,-19.52645c14.04416,3.26 22.78645,17.28779 19.52644,31.33195c-3.26,14.04416 -54.11839,2.23865 -50.85839,-11.80551z" fill="#dadada"/><path d="M353.48002,129.88449c1.40221,-6.04075 7.4359,-9.801 13.47663,-8.39881c6.04075,1.40221 9.80102,7.43589 8.39881,13.47663c-1.40221,6.04075 -7.4359,9.801 -13.47665,8.3988c-6.04075,-1.40221 -9.801,-7.4359 -8.39881,-13.47663z" fill="#000000"/><path d="M371.17867,134.44262c1.40221,-6.04075 7.43589,-9.80102 13.47663,-8.39881c6.04075,1.40221 9.80101,7.4359 8.3988,13.47663c-1.40221,6.04075 -7.43588,9.80101 -13.47663,8.3988c-6.04075,-1.40221 -9.80101,-7.43588 -8.39881,-13.47663z" fill="#000000"/><path d="M401.72604,146.60022c-0.88704,3.6075 -11.26991,12.00706 -32.60979,7.05352c-21.33987,-4.95352 -26.05399,-17.46679 -25.26307,-21.09658c2.45097,-11.24845 6.96509,3.03848 28.30496,7.99198c21.33987,4.95352 32.42843,-5.58256 29.5679,6.05105z" fill="#ababab"/><path d="M363.65636,141.34131c2.21982,-9.56303 12.29701,-30.6009 15.19109,-29.92912c2.89408,0.67178 4.04302,22.23458 1.8232,31.79761c-2.21982,9.56303 -19.23412,7.69453 -17.0143,-1.86848z" fill="#ababab"/><path d="M381.53438,142.25689c-0.16415,0.70721 -6.03577,8.15798 -11.01568,7.00202c-4.97992,-1.15596 -7.18238,-10.48091 -7.01822,-11.18813c0.16415,-0.70721 18.19807,3.47891 18.03391,4.18611z" fill="#1d1d1d"/><g><path d="M403.68998,94.08184c-0.73751,3.17722 -9.99172,3.74347 -20.66988,1.26481c-10.67814,-2.47866 -18.73662,-7.06365 -17.99912,-10.24085c0.122,-0.52553 0.70448,-2.02736 2.5521,-1.9691c7.1376,0.22501 26.19394,4.78308 33.84095,8.18357c2.34065,1.04084 2.42018,2.14014 2.27592,2.76156z" fill="#101010"/><path d="M403.37825,94.50106c-1.58531,6.82954 -4.9898,17.59684 -13.26284,20.49525c-5.87367,2.0578 -16.34181,-2.46055 -20.77474,-3.48957c-10.67671,-2.47832 -7.33705,-14.30216 -4.62621,-25.98053c0.97587,-4.20413 3.20216,0.40564 9.88909,0.71718c5.599,0.26087 12.55501,4.29373 18.12922,4.401c6.26142,0.1205 11.56334,-0.09746 10.6455,3.85664z" fill="#0d0d0d"/></g><g><path d="M403.934,116.36447c-0.17282,0.74454 -11.25825,-1.1926 -24.75997,-4.32669c-13.50172,-3.13408 -24.30692,-6.27831 -24.13411,-7.02285c0.17282,-0.74454 11.25825,1.1926 24.75997,4.32667c13.50172,3.13408 24.30693,6.27832 24.13411,7.02286z" fill="#101010"/><path d="M403.65139,116.41406c-0.37148,1.60039 -2.054,3.91819 -11.42135,2.87298c-6.65059,-0.74207 -20.36063,-4.4139 -25.96577,-5.71498c-13.49994,-3.13367 -12.13569,-5.76938 -11.50046,-8.50603c0.22868,-0.98517 5.68485,1.99751 13.85852,3.60411c6.84385,1.34519 15.31511,4.10766 22.09407,5.40318c7.61469,1.45521 13.15006,1.41416 12.93499,2.34075z" fill="#0d0d0d"/></g><path d="M398.19229,110.90688c-0.14015,0.60383 -0.12112,2.59622 -1.7179,2.74577c-1.35242,0.12665 -3.33669,-0.42911 -5.76693,-0.77793c-2.49144,-0.35761 -5.44673,-0.51876 -8.26813,-1.23745c-1.42449,-0.36287 -2.34888,-1.29851 -3.78765,-1.63247c-2.17157,-0.50408 -4.82441,-0.6276 -7.28131,-1.31974c-2.13373,-0.60112 -4.08677,-1.7729 -5.85887,-2.22732c-2.20117,-0.56445 -3.63422,-0.4414 -4.79514,-1.05837c-1.9575,-1.04029 -0.17324,-2.4659 -0.00456,-3.19262c0.14144,-0.60933 -0.06319,-2.99736 1.55952,-3.14419c1.50337,-0.13601 4.10219,-0.25564 6.90049,0.57329c2.03939,0.60413 4.104,2.05988 6.32468,2.67011c1.72201,0.4732 3.02195,0.40041 4.75593,0.8029c1.7371,0.40323 3.32197,1.25923 5.24339,1.54601c2.26188,0.33761 4.71721,0.03928 6.8446,0.2455c2.98768,0.2896 5.44023,1.09346 6.7791,1.84165c1.72318,0.96297 -0.76938,3.48483 -0.92724,4.16489z" fill="#801d1d"/></g><g stroke="#000000" stroke-width="0" stroke-linecap="butt"><path d="M-2.61261,366.18619v-372.37237h725.22523v372.37237z" fill="url(#color-55)"/><path d="M-2.61262,366.18619v-372.37237h725.22523v372.37237z" fill="url(#color-56)"/></g><path d="M340,353.5v-19h40v19z" fill="#000000" stroke="#484c5e" stroke-width="0" stroke-linecap="butt"/><text transform="translate(120,350) scale(0.5,0.5)" font-size="40" xml:space="preserve" fill="#ca0d0d" stroke="none" stroke-width="1" stroke-linecap="butt" font-family="&quot;MS Gothic&quot;, Sans Serif" font-weight="normal" text-anchor="start"><tspan x="0" dy="0">CLUTCH : Dont Answer This Question... Just Go...</tspan></text></g></g></svg>