<svg version="1.1" xmlns="http://www.w3.org/2000/svg" xmlns:xlink="http://www.w3.org/1999/xlink" width="184.78304" height="184.72977" viewBox="0,0,184.78304,184.72977"><defs><linearGradient x1="360" y1="106.5" x2="360" y2="253.5" gradientUnits="userSpaceOnUse" id="color-1"><stop offset="0" stop-color="#000000"/><stop offset="1" stop-color="#272727"/></linearGradient><radialGradient cx="368.24643" cy="162.42254" r="10.1688" gradientUnits="userSpaceOnUse" id="color-2"><stop offset="0" stop-color="#b9b9b9"/><stop offset="1" stop-color="#000000"/></radialGradient><linearGradient x1="369.54146" y1="156.86007" x2="366.95141" y2="167.985" gradientUnits="userSpaceOnUse" id="color-3"><stop offset="0" stop-color="#ffd133"/><stop offset="1" stop-color="#d1c32a"/></linearGradient><radialGradient cx="393.57539" cy="168.31885" r="10.16878" gradientUnits="userSpaceOnUse" id="color-4"><stop offset="0" stop-color="#b9b9b9"/><stop offset="1" stop-color="#000000"/></radialGradient><linearGradient x1="394.87041" y1="162.75639" x2="392.28036" y2="173.88133" gradientUnits="userSpaceOnUse" id="color-5"><stop offset="0" stop-color="#ffd133"/><stop offset="1" stop-color="#d1c32a"/></linearGradient><linearGradient x1="283.06108" y1="260.99689" x2="380.47593" y2="158.69134" gradientUnits="userSpaceOnUse" id="color-6"><stop offset="0" stop-color="#ffffff"/><stop offset="1" stop-color="#ffffff" stop-opacity="0"/></linearGradient><linearGradient x1="360" y1="106.5" x2="360" y2="253.5" gradientUnits="userSpaceOnUse" id="color-7"><stop offset="0" stop-color="#000000" stop-opacity="0"/><stop offset="1" stop-color="#000000"/></linearGradient></defs><g transform="translate(-250.96696,-106.5)"><g data-paper-data="{&quot;isPaintingLayer&quot;:true}" fill-rule="nonzero" stroke="none" stroke-linecap="butt" stroke-linejoin="miter" stroke-miterlimit="10" stroke-dasharray="" stroke-dashoffset="0" style="mix-blend-mode: normal"><path d="M284.25,253.5v-147h151.5v147z" fill="url(#color-1)" stroke-width="NaN"/><path d="M369.96691,152.55582c2.46149,7.964 -5.22241,-3.21657 -8.51332,-2.19943c-3.29091,1.01714 -7.95414,-4.61439 -10.41562,-12.57839c-2.46149,-7.964 -1.78911,-15.24466 1.50179,-16.2618c3.29091,-1.01714 14.96566,23.07561 17.42715,31.03961z" data-paper-data="{&quot;index&quot;:null}" fill="#d4ac87" stroke-width="0"/><path d="M427.47823,144.83988c1.84439,2.90911 -2.36752,8.88572 -9.40756,13.34913c-7.04004,4.46341 -14.24228,5.72342 -16.08667,2.81431c-1.84439,-2.90911 -14.94539,0.6138 -7.90535,-3.84961c7.04004,-4.46341 31.5552,-15.22295 33.39959,-12.31384z" fill="#d5d5d5" stroke-width="0"/><path d="M409.46764,192.52811c-4.63847,19.92346 -19.55176,29.16619 -41.67747,24.015c-22.12573,-5.15119 -30.69688,-19.28227 -26.0584,-39.20573c1.36016,-5.84225 7.12834,-13.5308 9.8663,-18.26228c6.59909,-11.40401 17.35183,-18.32193 32.98951,-14.68125c16.86505,3.92643 24.26051,15.43417 24.76961,29.50784c0.1588,4.38996 1.21331,13.88939 0.11046,18.62643z" fill="#e6e6e6" stroke-width="0"/><path d="M358.34251,160.11677c1.27345,-5.46979 6.7399,-8.87158 12.20969,-7.59814c5.46979,1.27345 8.8716,6.7399 7.59815,12.20969c-1.27345,5.46979 -6.73991,8.87158 -12.2097,7.59813c-5.46979,-1.27345 -8.87159,-6.7399 -7.59814,-12.20969z" fill="url(#color-2)" stroke-width="0"/><path d="M361.05591,160.74848c0.92456,-3.97122 4.89336,-6.44102 8.86456,-5.51646c3.97121,0.92455 6.44102,4.89336 5.51646,8.86458c-0.92456,3.97122 -4.89337,6.441 -8.86457,5.51645c-3.97121,-0.92455 -6.441,-4.89335 -5.51645,-8.86456z" fill="#ffffff" stroke-width="0"/><path d="M362.68393,161.12751c0.71522,-3.07208 3.78544,-4.98268 6.85752,-4.26746c3.07208,0.71522 4.98268,3.78544 4.26746,6.85752c-0.71522,3.07208 -3.78544,4.98268 -6.85752,4.26746c-3.07208,-0.71522 -4.98268,-3.78544 -4.26746,-6.85752z" fill="url(#color-3)" stroke-width="0"/><path d="M366.67491,162.58783c0.14667,-0.62997 0.77626,-1.02177 1.40623,-0.87511c0.62997,0.14667 1.02177,0.77626 0.87511,1.40623c-0.14667,0.62997 -0.77626,1.02177 -1.40623,0.87511c-0.62997,-0.14667 -1.02177,-0.77626 -0.87511,-1.40623z" fill="#000000" stroke-width="0"/><path d="M372.29109,161.33473c-0.04294,0.18444 -0.60105,0.21212 -1.24656,0.06183c-0.64551,-0.15028 -1.134,-0.42163 -1.09106,-0.60606c0.04294,-0.18444 0.60104,-0.21212 1.24655,-0.06183c0.64551,0.15028 1.134,0.42163 1.09106,0.60607z" fill="#ffffff" stroke-width="0"/><path d="M407.03614,179.09095c-0.83166,3.57218 -4.31622,-0.35168 -6.08816,1.2311c-2.8543,2.54959 -4.26889,4.42622 -8.44996,3.4528c-4.05891,-0.94497 -7.05318,-0.93485 -8.82422,-5.97429c-1.18587,-3.37432 -3.47721,-6.65042 -2.60642,-10.39072c1.06833,-4.58876 -0.78024,-10.43051 2.08667,-12.97162c1.01677,-0.90123 7.14589,-2.18068 9.1961,-2.07589c3.91803,0.20027 4.44994,2.7012 6.7098,3.22733c4.02848,0.93789 5.75106,8.69294 6.92841,14.7118c0.80318,4.10607 1.92835,5.00728 1.0478,8.78947z" fill="#d4ac87" stroke-width="0"/><path d="M383.67148,166.01307c1.27345,-5.46979 6.73989,-8.87159 12.20969,-7.59814c5.46979,1.27345 8.87159,6.73989 7.59814,12.20969c-1.27345,5.46979 -6.7399,8.87158 -12.20969,7.59814c-5.46979,-1.27345 -8.87159,-6.73989 -7.59814,-12.20969z" fill="url(#color-4)" stroke-width="0"/><path d="M386.38487,166.64479c0.92456,-3.97122 4.89337,-6.441 8.86457,-5.51645c3.97121,0.92455 6.44102,4.89336 5.51646,8.86456c-0.92456,3.97122 -4.89336,6.44102 -8.86458,5.51646c-3.97121,-0.92455 -6.44102,-4.89336 -5.51646,-8.86458z" fill="#ffffff" stroke-width="0"/><path d="M388.01293,167.02382c0.71522,-3.07208 3.78544,-4.98267 6.85751,-4.26745c3.07208,0.71522 4.98268,3.78542 4.26746,6.8575c-0.71522,3.07208 -3.78544,4.98269 -6.85751,4.26746c-3.07208,-0.71522 -4.98268,-3.78544 -4.26746,-6.85752z" fill="url(#color-5)" stroke-width="0"/><path d="M392.00386,168.48414c0.14667,-0.62997 0.77626,-1.02177 1.40623,-0.87511c0.62997,0.14667 1.02177,0.77626 0.87511,1.40623c-0.14667,0.62997 -0.77626,1.02177 -1.40623,0.87511c-0.62997,-0.14667 -1.02177,-0.77626 -0.87511,-1.40623z" fill="#000000" stroke-width="0"/><path d="M397.62007,167.23107c-0.04294,0.18444 -0.60105,0.21212 -1.24656,0.06183c-0.64551,-0.15028 -1.134,-0.42163 -1.09106,-0.60606c0.04294,-0.18444 0.60104,-0.21209 1.24655,-0.06181c0.64551,0.15028 1.13401,0.42162 1.09107,0.60604z" fill="#ffffff" stroke-width="0"/><path d="M397.51999,202.36194c-1.62457,6.97798 -14.03751,10.05143 -27.72506,6.86477c-13.68755,-3.18666 -23.46653,-11.42673 -21.84196,-18.40469c0.40047,-1.72013 0.96679,-11.00138 2.53589,-12.2117c4.7962,-3.69952 14.87572,2.94583 25.18918,5.34695c7.9607,1.85337 18.58978,1.47838 22.43175,5.508c2.76389,2.89889 0.08994,9.97712 -0.58978,12.8967z" fill="#d4b9ab" stroke-width="0"/><path d="M361.14961,183.64854c-0.21869,0.93933 -2.23442,-0.00791 -4.85116,-0.61713c-2.61674,-0.60922 -4.84358,-0.64969 -4.62489,-1.58903c0.21869,-0.93933 2.91323,-2.90779 5.52998,-2.29858c2.61674,0.60922 4.16476,3.56541 3.94607,4.50474z" fill="#000000" stroke-width="0"/><path d="M396.51089,192.39348c-0.21869,0.93933 -2.23442,-0.0079 -4.85116,-0.61712c-2.61674,-0.60922 -4.84358,-0.6497 -4.62489,-1.58905c0.21869,-0.93933 2.91324,-2.90781 5.52999,-2.29859c2.61674,0.60922 4.16475,3.56542 3.94606,4.50475z" fill="#000000" stroke-width="0"/><path d="M314.8118,291.22977l-63.84484,-63.43371l77.78417,-118.35683l101.30601,100.75543z" fill="url(#color-6)" stroke-width="0"/><path d="M284.25,253.5v-147h151.5v147z" fill="url(#color-7)" stroke-width="NaN"/></g></g></svg>