<svg version="1.1" xmlns="http://www.w3.org/2000/svg" xmlns:xlink="http://www.w3.org/1999/xlink" width="735.01502" height="394.76081" viewBox="0,0,735.01502,394.76081"><defs><radialGradient cx="392.28724" cy="180.00002" r="93.96101" gradientUnits="userSpaceOnUse" id="color-1"><stop offset="0" stop-color="#000000"/><stop offset="1" stop-color="#000000" stop-opacity="0"/></radialGradient><linearGradient x1="367.66596" y1="179.95835" x2="353.83281" y2="179.95835" gradientUnits="userSpaceOnUse" id="color-2"><stop offset="0" stop-color="#000000"/><stop offset="1" stop-color="#000000" stop-opacity="0"/></linearGradient><linearGradient x1="416.73449" y1="179.95835" x2="430.56765" y2="179.95835" gradientUnits="userSpaceOnUse" id="color-3"><stop offset="0" stop-color="#000000"/><stop offset="1" stop-color="#000000" stop-opacity="0"/></linearGradient><linearGradient x1="392.06972" y1="204.37502" x2="392.06972" y2="211.62502" gradientUnits="userSpaceOnUse" id="color-4"><stop offset="0" stop-color="#000000"/><stop offset="1" stop-color="#000000" stop-opacity="0"/></linearGradient><linearGradient x1="391.11272" y1="155.45835" x2="391.11272" y2="148.20835" gradientUnits="userSpaceOnUse" id="color-5"><stop offset="0" stop-color="#000000"/><stop offset="1" stop-color="#000000" stop-opacity="0"/></linearGradient><radialGradient cx="360" cy="177.81481" r="367.5075" gradientUnits="userSpaceOnUse" id="color-6"><stop offset="0" stop-color="#000000" stop-opacity="0.83922"/><stop offset="1" stop-color="#000000" stop-opacity="0"/></radialGradient><radialGradient cx="360" cy="177.81481" r="367.50751" gradientUnits="userSpaceOnUse" id="color-7"><stop offset="0" stop-color="#000000" stop-opacity="0"/><stop offset="1" stop-color="#000000"/></radialGradient><linearGradient x1="-5.24206" y1="181.05808" x2="150.659" y2="181.05808" gradientUnits="userSpaceOnUse" id="color-8"><stop offset="0" stop-color="#000000"/><stop offset="1" stop-color="#000000" stop-opacity="0"/></linearGradient><linearGradient x1="727.50752" y1="177.81482" x2="571.60646" y2="177.81482" gradientUnits="userSpaceOnUse" id="color-9"><stop offset="0" stop-color="#000000"/><stop offset="1" stop-color="#000000" stop-opacity="0"/></linearGradient><linearGradient x1="360.24743" y1="-17.14013" x2="360.24743" y2="110.48751" gradientUnits="userSpaceOnUse" id="color-10"><stop offset="0" stop-color="#000000"/><stop offset="1" stop-color="#000000" stop-opacity="0"/></linearGradient><linearGradient x1="359.27227" y1="377.38045" x2="359.27227" y2="249.75281" gradientUnits="userSpaceOnUse" id="color-11"><stop offset="0" stop-color="#000000"/><stop offset="1" stop-color="#000000" stop-opacity="0"/></linearGradient></defs><g transform="translate(7.50751,17.38039)"><g stroke-miterlimit="10"><path d="M351.53003,217.53756v-75.07508h81.5144v75.07508z" fill="#000000" stroke="#000000" stroke-width="0" stroke-linecap="butt"/><g stroke-width="0" stroke-linecap="butt"><path d="M241.9807,155.15701v-47.65733h300.8498v47.65733z" fill="#0c0626" stroke="#000000"/><path d="M241.74395,252.50036v-47.65733h300.8498v47.65733z" fill="#0c0626" stroke="#000000"/><path d="M418.21578,204.79439l0.40328,-49.63738l118.96876,-44.80884v139.06192z" fill="#190d4f" stroke="none"/><path d="M366.59544,154.96387l-0.40328,49.63738l-118.96876,44.80884v-139.06192z" fill="#190d4f" stroke="none"/></g><path d="M3.17748,115.68707v-123.3741h716.82252v123.3741z" fill="#0c0626" stroke="#000000" stroke-width="0" stroke-linecap="butt"/><path d="M2.56455,367.68707v-123.3741h716.82252v123.3741z" fill="#0c0626" stroke="#000000" stroke-width="0" stroke-linecap="butt"/><path d="M480.45874,228.18707l-4.34415,-94l243.27249,-134.5v360z" fill="#190d4f" stroke="none" stroke-width="0" stroke-linecap="butt"/><g fill="none" stroke="#424242" stroke-width="2" stroke-linecap="round"><path d="M367.66596,204.1865c0,0 2.49041,-41.46296 4.06426,-47.72998c0.36219,-1.44222 0.66831,-1.29754 0.66831,0.27831c0,5.40447 0,36.35426 0,46.40186c0,1.98098 0.40913,1.41439 0.85892,-0.4931c1.32286,-5.61003 1.94374,-33.50656 4.50209,-44.35607c0.62714,-2.65961 1.00976,-2.58636 1.00976,-0.71284c0,6.93604 -0.54607,46.40186 -0.54607,46.40186"/><path d="M378.35928,204.1865c0,0 2.49041,-41.46296 4.06426,-47.72998c0.36219,-1.44222 0.66831,-1.29754 0.66831,0.27831c0,5.40447 0,36.35426 0,46.40186c0,1.98098 0.40913,1.41439 0.85892,-0.4931c1.32286,-5.61003 1.94374,-33.50656 4.50209,-44.35607c0.62714,-2.65961 1.00976,-2.58636 1.00976,-0.71285c0,6.93604 -0.54607,46.40186 -0.54607,46.40186"/><path d="M389.58727,204.1865c0,0 2.49041,-41.46296 4.06426,-47.72998c0.36219,-1.44222 0.66831,-1.29754 0.66831,0.27831c0,5.40447 0,36.35426 0,46.40186c0,1.98098 0.40913,1.41439 0.85892,-0.4931c1.32286,-5.61003 1.94374,-33.50656 4.50209,-44.35607c0.62714,-2.65961 1.00976,-2.58636 1.00976,-0.71285c0,6.93604 -0.54607,46.40186 -0.54607,46.40186"/><path d="M400.28059,204.1865c0,0 2.49041,-41.46296 4.06426,-47.72998c0.36219,-1.44222 0.66831,-1.29754 0.66831,0.27831c0,5.40447 0,36.35426 0,46.40186c0,1.98098 0.40913,1.41439 0.85892,-0.4931c1.32286,-5.61003 1.94374,-33.50656 4.50209,-44.35607c0.62714,-2.65961 1.00976,-2.58636 1.00976,-0.71285c0,6.93604 -0.54607,46.40186 -0.54607,46.40186"/></g><path d="M322.64493,139.18705l-12.56288,87l-307.51749,133.5v-360z" fill="#190d4f" stroke="none" stroke-width="0" stroke-linecap="butt"/><path d="M0,299.18708v-225l366.27396,98.66666v15z" fill="#2b1689" stroke="#000000" stroke-width="0" stroke-linecap="butt"/><g stroke="#000000" stroke-width="0" stroke-linecap="butt"><path d="M392.80924,66.43864c-20.75729,0 -38.10641,-10.51224 -38.10641,-16.69516c0,-6.18292 16.82711,-11.19516 37.58441,-11.19516c20.75729,0 37.58441,5.01224 37.58441,11.19516c0,6.18292 -16.30511,16.69516 -37.0624,16.69516z" fill="#181818"/><path d="M392.71615,69.45167c-17.05543,0 -31.3105,-8.63749 -31.3105,-13.71774c0,-5.08025 13.82615,-9.19861 30.88159,-9.19861c17.05543,0 30.88159,4.11836 30.88159,9.19861c0,5.08025 -13.39724,13.71774 -30.45268,13.71774z" fill="#404040"/></g><path d="M418.30051,187.85374v-15l301.08656,-98.66667v225z" fill="#2b1689" stroke="#000000" stroke-width="0" stroke-linecap="butt"/><path d="M298.32622,270.00002v-180h187.92203v180z" fill="url(#color-1)" stroke="#000000" stroke-width="0" stroke-linecap="butt"/><path d="M349.13476,210.70835l-0.261,-62.25l18.7922,7v49z" fill="url(#color-2)" stroke="#000000" stroke-width="0" stroke-linecap="butt"/><path d="M416.7345,204.45835v-49l18.7922,-7l-0.261,62.25z" fill="url(#color-3)" stroke="#000000" stroke-width="0" stroke-linecap="butt"/><path d="M341.56569,213.12502l22.96825,-8.75h55.07159l25.31727,10.75z" fill="url(#color-4)" stroke="#000000" stroke-width="0" stroke-linecap="butt"/><path d="M443.96579,144.70835l-25.31727,10.75h-55.07159l-22.96825,-8.75z" fill="url(#color-5)" stroke="#000000" stroke-width="0" stroke-linecap="butt"/><g stroke="#000000" stroke-width="0" stroke-linecap="butt"><path d="M392.55246,133.14425c-10.54682,0 -19.36194,-5.34129 -19.36194,-8.48284c0,-3.14155 8.54988,-5.68828 19.0967,-5.68828c10.54682,0 19.09671,2.54673 19.09671,5.68828c0,3.14155 -8.28465,8.48284 -18.83147,8.48284z" fill="#060606"/><path d="M407.97824,127.70516c0,2.58129 -6.80716,6.97001 -15.47306,6.97001c-8.6659,0 -15.90893,-4.38873 -15.90893,-6.97001c0,-2.58128 7.02509,-4.67383 15.69099,-4.67383c8.66589,0 15.69099,2.09255 15.69099,4.67383z" fill="#272727"/></g><path d="M163.75614,297.11714v-184.68468l67.40613,24.02402v129.12913z" fill="#000000" stroke="none" stroke-width="NaN" stroke-linecap="butt"/><path d="M474.51597,230.03371v-73.83457l38.19341,-13.73666v105.6006z" fill="#000000" stroke="none" stroke-width="NaN" stroke-linecap="butt"/><g stroke-linecap="butt"><path d="M326.71204,113.49067v-30h133.63344v30z" fill="#000000" stroke="#171717" stroke-width="7.5"/><text transform="translate(345.67073,102.63463) scale(0.36053,0.34533)" font-size="40" xml:space="preserve" fill="#17002e" stroke="none" stroke-width="1" font-family="&quot;Agency FB&quot;, Sans Serif" font-weight="normal" text-anchor="start"><tspan x="0" dy="0">VV Security Office VV</tspan></text></g><g stroke-width="0" stroke-linecap="butt"><g stroke="#000000"><path d="M-7.50751,364.00102v-372.37237h735.015v372.37237z" fill="url(#color-6)"/><path d="M-7.5075,364.00102v-372.37237h735.015v372.37237z" fill="url(#color-7)"/></g><g stroke="none"><path d="M-5.24206,376.25327v-390.39039h155.90105v390.39039z" fill="url(#color-8)"/><path d="M571.60646,373.01001v-390.39039h155.90105v390.39039z" fill="url(#color-9)"/><path d="M-6.53233,110.48751v-127.62762h733.55954v127.62763z" fill="url(#color-10)"/><path d="M726.05204,249.75281v127.62762h-733.55954v-127.62762z" fill="url(#color-11)"/></g></g></g></g></svg>