<svg version="1.1" xmlns="http://www.w3.org/2000/svg" xmlns:xlink="http://www.w3.org/1999/xlink" width="151.5" height="147" viewBox="0,0,151.5,147"><defs><linearGradient x1="360" y1="106.5" x2="360" y2="253.5" gradientUnits="userSpaceOnUse" id="color-1"><stop offset="0" stop-color="#000000"/><stop offset="1" stop-color="#272727"/></linearGradient><radialGradient cx="352.27369" cy="124.43783" r="58.49829" gradientUnits="userSpaceOnUse" id="color-2"><stop offset="0" stop-color="#0c0c0c"/><stop offset="1" stop-color="#121212"/></radialGradient><linearGradient x1="361.39756" y1="119.4635" x2="361.39756" y2="242.81552" gradientUnits="userSpaceOnUse" id="color-3"><stop offset="0" stop-color="#a30000"/><stop offset="1" stop-color="#450000"/></linearGradient><linearGradient x1="360" y1="106.5" x2="360" y2="253.5" gradientUnits="userSpaceOnUse" id="color-4"><stop offset="0" stop-color="#000000" stop-opacity="0"/><stop offset="1" stop-color="#000000"/></linearGradient></defs><g transform="translate(-284.25,-106.5)"><g data-paper-data="{&quot;isPaintingLayer&quot;:true}" fill-rule="nonzero" stroke-linejoin="miter" stroke-miterlimit="10" stroke-dasharray="" stroke-dashoffset="0" style="mix-blend-mode: normal"><path d="M284.25,253.5v-147h151.5v147z" fill="url(#color-1)" stroke="none" stroke-width="NaN" stroke-linecap="butt"/><path d="M409.92841,182.24373c0,34.06271 -21.72801,55.32059 -48.53085,55.32059c-26.80284,0 -48.29329,-21.25787 -48.29329,-55.32058c0,-11.95595 2.43933,-23.11735 7.07298,-32.56897c2.13224,-4.3493 6.4121,-6.60326 9.30286,-10.1393c2.72156,-3.32908 4.01489,-7.99152 7.28803,-10.44629c7.21989,-5.41473 15.63918,-8.04632 24.62942,-8.04632c26.80285,0 48.53086,27.13819 48.53086,61.2009z" fill="url(#color-2)" stroke="#0a0a0a" stroke-width="1.5" stroke-linecap="butt"/><path d="M413.10469,179.8948c0,6.19409 -0.97915,12.17914 -2.34971,17.83286c-0.45767,1.88796 -3.37321,3.73897 -3.91451,5.5485c-0.66198,2.21291 1.01948,4.36374 0.09738,6.44419c-0.43888,0.9902 -0.70684,18.63077 -1.243,19.64386c-0.62938,1.18923 -1.53624,-14.25384 -2.15539,-13.17784c-9.34951,16.24825 -24.60426,26.62916 -42.1419,26.62916c-28.55705,0 -51.70712,-28.17056 -51.70712,-62.92072c0,-4.57095 1.45095,-8.07493 3.52348,-11.08326c1.32215,0.66222 2.81449,1.03489 4.39387,1.03489c5.42603,0 9.82471,-4.39868 9.82471,-9.82471c0,-2.14963 -0.69037,-4.138 -1.86149,-5.75551c0.26362,-0.3882 0.55344,-0.81609 0.85396,-1.26104c4.80853,-0.6388 8.51848,-4.75548 8.51848,-9.73864c0,-0.37985 -0.02156,-0.75466 -0.06352,-1.12329c0.20463,-0.5368 0.36355,-1.09617 0.47201,-1.67334c3.18669,-1.62431 5.36916,-4.93662 5.36916,-8.75866c0,-1.23663 -0.22848,-2.41993 -0.64552,-3.50993c1.70552,-0.26627 3.67028,-0.21666 5.74506,-1.41234c0.09842,-0.05672 0.19426,-0.11458 0.28768,-0.17352c1.33158,0.67423 2.83748,1.05413 4.43211,1.05413c4.86717,0 8.90771,-3.53924 9.68841,-8.1845c0.38931,-0.01433 0.77894,-0.02156 1.16872,-0.02156c28.55706,0 51.70713,25.68114 51.70713,60.43129z" fill="url(#color-3)" stroke="#4f0000" stroke-width="2" stroke-linecap="butt"/><path d="M367.37911,122.88967l2.10989,-5.86083l4.45423,-0.70331" fill="none" stroke="#000000" stroke-width="1" stroke-linecap="round"/><path d="M312.28729,194.39181l-3.98537,2.34434l-1.4066,-3.98537" fill="none" stroke="#000000" stroke-width="1" stroke-linecap="round"/><path d="M354.54481,175.76001c0,12.37717 -2.14244,22.30299 -4.68525,28.54265c-1.62761,3.99391 -3.13394,6.76291 -5.28239,6.76291c-2.47716,0 -4.74325,-3.03851 -6.48666,-8.23056c-0.61987,-1.84605 -1.75143,12.24726 -2.22513,9.89651c-0.3014,-1.49567 0.00741,-19.29701 -0.22555,-20.97065c-0.65957,-4.73881 -1.0303,-10.14994 -1.0303,-16.00084c0,-10.38295 1.81027,-17.6675 3.6876,-24.35165c1.79302,-6.38397 3.59077,-12.40402 6.28003,-12.40402c5.50497,0 9.96764,16.45607 9.96764,36.75567z" fill="#000000" stroke="none" stroke-width="0" stroke-linecap="butt"/><path d="M389.8427,177.00598c0,3.3333 -0.12034,6.56296 -0.34584,9.63313c-0.07331,0.99815 0.81417,3.59931 0.71914,4.56182c-0.22534,2.28231 -1.48219,2.83919 -1.81975,4.88478c-1.7489,10.59805 -4.91089,17.67591 -8.52119,17.67591c-5.50497,0 -9.96764,-16.45607 -9.96764,-36.75566c0,-14.19188 1.53327,-27.80106 4.72694,-33.9259c1.37445,-2.63593 3.58436,-2.82977 5.2407,-2.82977c5.50497,0 9.96764,16.45607 9.96764,36.75567z" fill="#000000" stroke="#000000" stroke-width="0" stroke-linecap="butt"/><text transform="translate(340.48371,183.18769) scale(0.5,0.5)" font-size="40" xml:space="preserve" fill="#ffffff" fill-rule="nonzero" stroke="none" stroke-width="1" stroke-linecap="butt" stroke-linejoin="miter" stroke-miterlimit="10" stroke-dasharray="" stroke-dashoffset="0" font-family="&quot;GovtAgentBB&quot;, Serif" font-weight="normal" text-anchor="start" style="mix-blend-mode: normal"><tspan x="0" dy="0">X     X</tspan></text><path d="M337.57379,201.51857c0,0 1.33781,-6.53301 12.78176,7.79667c1.66986,2.09093 11.29402,-4.87703 12.96028,-3.28205c3.51893,3.36838 7.91657,0.94127 7.91657,0.94127c0,0 5.95886,3.84285 8.02269,3.25928c3.63798,-1.02868 10.26876,-5.86908 10.26876,-5.86908c0,0 0.73798,12.25458 2.10121,7.57421c3.73205,-12.81317 4.92253,17.40068 5.67004,9.6829c0.34409,-3.55263 3.16261,16.91787 3.16261,16.91787l-3.93304,7.42153c0,0 -7.86613,-12.4539 -9.02067,-10.86061c-1.94628,2.68592 -4.04219,5.26532 -5.1037,5.56547c-5.34449,1.51122 -15.19689,-11.01685 -15.19689,-11.01685c0,0 -1.17623,6.10904 -2.92921,5.53106c-1.80171,-0.59406 -4.66726,-7.59091 -4.66726,-7.59091l-6.60604,7.77271c0,0 -0.04477,-2.09466 -1.04653,-4.00288c-1.03367,-1.96899 -3.03258,-3.76367 -3.51714,-4.44849c-1.29649,-1.83233 -12.20403,-2.79761 -12.98332,-4.45249c-1.0297,-2.18663 -11.08931,13.37397 -12.33051,10.04644c-1.10962,-2.97475 1.84132,-12.76887 0.82393,-15.72624c-2.1654,-6.29442 3.15739,-13.05603 3.15739,-13.05603z" fill="#000000" stroke="none" stroke-width="0" stroke-linecap="butt"/><path d="M284.25,253.5v-147h151.5v147z" fill="url(#color-4)" stroke="none" stroke-width="NaN" stroke-linecap="butt"/></g></g></svg>