<svg version="1.1" xmlns="http://www.w3.org/2000/svg" xmlns:xlink="http://www.w3.org/1999/xlink" width="777.77778" height="427.74842" viewBox="0,0,777.77778,427.74842"><defs><linearGradient x1="-26.49166" y1="181.14646" x2="138.47964" y2="181.14646" gradientUnits="userSpaceOnUse" id="color-1"><stop offset="0" stop-color="#000000"/><stop offset="1" stop-color="#000000" stop-opacity="0"/></linearGradient><linearGradient x1="748.88889" y1="177.63219" x2="583.9176" y2="177.63219" gradientUnits="userSpaceOnUse" id="color-2"><stop offset="0" stop-color="#000000"/><stop offset="1" stop-color="#000000" stop-opacity="0"/></linearGradient><linearGradient x1="360.26181" y1="-33.61388" x2="360.26181" y2="104.67877" gradientUnits="userSpaceOnUse" id="color-3"><stop offset="0" stop-color="#000000"/><stop offset="1" stop-color="#000000" stop-opacity="0"/></linearGradient><linearGradient x1="359.22991" y1="393.87422" x2="359.22991" y2="255.58157" gradientUnits="userSpaceOnUse" id="color-4"><stop offset="0" stop-color="#000000"/><stop offset="1" stop-color="#000000" stop-opacity="0"/></linearGradient></defs><g transform="translate(28.88889,33.87421)"><g stroke-miterlimit="10"><g><g><path d="M-13,153.00001v-160.3741h746v160.3741z" fill="#323232" stroke="#000000" stroke-width="0" stroke-linecap="butt"/><path d="M-12.41291,360.00001v-160.3741h746v160.3741z" fill="#323232" stroke="#000000" stroke-width="0" stroke-linecap="butt"/><path d="M155.93393,244.00001v-128h408.13213v128z" fill="#505050" stroke="#000000" stroke-width="0" stroke-linecap="butt"/><path d="M0,360.00001v-360c0,0 103.57855,76.76523 153.74087,96.49007c48.08296,18.9072 141.25913,19.50993 141.25913,19.50993l1,128.5c0,0 -98.32945,-0.67062 -147.59512,18.55298c-49.40063,19.27626 -148.40488,96.94702 -148.40488,96.94702z" fill="#505050" stroke="none" stroke-width="0" stroke-linecap="butt"/><path d="M720,0.00001v360c0,0 -96.65721,-74.04362 -145.48316,-93.24297c-49.4982,-19.4637 -149.51684,-22.75703 -149.51684,-22.75703l-1,-128.5c0,0 123.66866,-12.21981 176.81394,-32.95724c43.63341,-17.02587 119.18606,-82.54276 119.18606,-82.54276z" fill="#505050" stroke="none" stroke-width="0" stroke-linecap="butt"/><g stroke="#525252" stroke-width="0" stroke-linecap="butt"><path d="M360.04354,63.49909c-71.24473,0 -129,-6.49187 -129,-14.5c0,-8.00813 57.75527,-14.5 129,-14.5c71.24473,0 129,6.49187 129,14.5c0,8.00813 -57.75527,14.5 -129,14.5z" fill="#0e0e0e"/><path d="M488.95645,48.74909v24.5h-258v-24.5z" fill="#0e0e0e"/><path d="M360.04354,88.87135c-71.24473,0 -129,-6.49187 -129,-14.5c0,-8.00813 57.75527,-14.5 129,-14.5c71.24473,0 129,6.49187 129,14.5c0,8.00813 -57.75527,14.5 -129,14.5z" fill="#131313"/></g><g stroke="#525252" stroke-width="0" stroke-linecap="butt"><path d="M489.04354,313.18521c0,8.00813 -57.75527,14.5 -129,14.5c-71.24473,0 -129,-6.49187 -129,-14.5c0,-8.00813 57.75527,-14.5 129,-14.5c71.24473,0 129,6.49187 129,14.5z" fill="#0e0e0e"/><path d="M230.95645,313.43521v-24.5h258v24.5z" fill="#0e0e0e"/><path d="M489.04354,287.81296c0,8.00813 -57.75527,14.5 -129,14.5c-71.24473,0 -129,-6.49187 -129,-14.5c0,-8.00813 57.75527,-14.5 129,-14.5c71.24473,0 129,6.49187 129,14.5z" fill="#131313"/></g><path d="M251.5,287.50001v-215c0,0 71.08678,-5.5 107,-5.5c36.4132,0 110,5.5 110,5.5v215c0,0 -73.28619,6 -109.83333,6c-35.76946,0 -107.16667,-6 -107.16667,-6z" fill-opacity="0.50196" fill="#3c3c3c" stroke="#525252" stroke-width="0" stroke-linecap="butt"/><path d="M247.5,198.75001v-37.5h225v37.5z" fill="#131313" stroke="none" stroke-width="0" stroke-linecap="butt"/><path d="M313.5,213.25001v-66h93v66z" fill="#0d0d0d" stroke="#525252" stroke-width="0" stroke-linecap="butt"/><path d="M317.50001,194.40649v-43h61v43z" fill="#070707" stroke="#525252" stroke-width="0" stroke-linecap="butt"/><path d="M385.25001,155.12591h15.25" fill="none" stroke="#525252" stroke-width="2.5" stroke-linecap="round"/><path d="M385.25001,161.12591h15.25" fill="none" stroke="#525252" stroke-width="2.5" stroke-linecap="round"/><g stroke="#525252" stroke-width="2.5"><path d="M388.04887,197.69688c1.06537,-3.35576 4.64941,-5.21248 8.00517,-4.14711c3.35576,1.06537 5.21248,4.64941 4.14711,8.00517c-1.06537,3.35576 -4.64941,5.21248 -8.00516,4.14711c-3.35576,-1.06537 -5.21249,-4.64941 -4.14712,-8.00517z" fill="#070707" stroke-linecap="butt"/><path d="M397.26441,189.73729l-6.2788,19.77724" fill="none" stroke-linecap="round"/></g><path d="M319.25001,203.40649h60.75" fill="none" stroke="#181818" stroke-width="2.5" stroke-linecap="round"/><path d="M340.68174,168.68656l-0.13869,-0.06934c-0.02278,2.07703 -0.82206,6.36821 -2.40888,7.75668c-0.76656,0.66899 -2.71058,2.52098 -3.71762,4.14137c2.32599,0.01129 5.71835,-0.02637 7.34305,-1.67121c0.6307,-0.79449 0.04994,-1.55004 0.39805,-2.36385c0.5508,-1.28765 1.15634,-2.30512 1.49337,-3.67789l0.1,-0.4c0,0 0.05923,-0.23692 0.29476,-0.1839c-1.17021,-0.96951 -1.70647,-1.71671 -2.27529,-3.02936c-0.1734,-0.40014 -0.46499,-0.51209 -0.79303,-0.55304c-0.11778,0.13951 -0.29571,0.05054 -0.29571,0.05054zM337.13887,167.18543c-0.45516,-0.46664 -0.35467,-1.50613 -0.56928,-2.02285c-1.31926,1.06465 -2.82601,1.17318 -3.70461,2.92369c-0.486,0.9683 0.13292,3.41084 -0.94257,3.54144c-1.29697,0.67396 -2.39306,2.66147 -2.37887,4.11383v0.35715c0,0 0,0.25 -0.25,0.25c-0.25,0 -0.25,-0.25 -0.25,-0.25v-0.35715c0.0138,-1.70466 1.22539,-3.84705 2.76399,-4.60045c0.298,0.06412 0.27903,-2.61366 0.61023,-3.27842c0.97267,-1.95229 2.61306,-1.90028 3.92398,-3.14434c0.00774,-0.04113 0.029,-0.08504 0.07196,-0.12902c1.16123,-2.47834 0.41379,-4.5182 0.10245,-7.2043c-0.3101,-0.43795 -0.2241,-1.00683 -0.60224,-1.91153c-0.30482,-0.7293 -0.74522,-0.17267 -1.30009,-0.43518c-1.06456,-0.50364 -0.71313,-2.30383 -0.71313,-3.22532c0,0 0,-0.25 0.25,-0.25c0.25,0 0.25,0.25 0.25,0.25c0,0.64649 -0.33483,2.41753 0.42973,2.77467c0.68404,0.31952 1.08248,-0.30148 1.54032,0.68259c0.39012,0.83851 0.6134,2.05607 1.4943,2.33767c0.68331,0.21843 2.26138,0.38616 2.74607,0.88339c0.76756,0.78743 0.89175,2.15801 0.68421,3.49897c0.07209,-0.00329 0.16264,0.02108 0.22183,0.13948c0.11181,0.2236 -0.1118,0.33541 -0.1118,0.33541c-0.16292,0.04467 -0.34925,1.58319 -0.20047,1.7654c0.20712,0.25365 1.45918,0.40223 1.81018,0.61026c1.22726,0.72737 1.97087,2.12947 1.95037,3.48615c0.20018,0.37605 1.18097,0.97579 1.53358,0.95827l0.3349,0.16128c0,0 0.22361,0.11181 0.11181,0.33541c-0.11181,0.2236 -0.33541,0.11181 -0.33541,0.11181l-0.23653,-0.12443c-0.62601,-0.06492 -1.60333,-0.71731 -1.89498,-1.32745c-0.01494,-1.24536 -0.56099,-2.48843 -1.71822,-3.17063c-0.42762,-0.25208 -1.66558,-0.36131 -1.94981,-0.73296c-0.07005,-0.0916 -0.11717,-0.22246 -0.14484,-0.37715c-0.2054,0.46607 -0.43796,0.86389 -0.67419,1.14729c-1.77328,2.33012 0.80056,2.22172 1.83212,3.25278c1.03238,1.03189 1.30338,2.25543 2.57986,3.30455c0.79858,0.60366 2.7717,1.84667 3.12078,2.70871c0.59166,1.46112 -1.91775,3.90216 -0.59134,4.55527c1.82187,0.9777 3.04801,2.45358 2.07357,4.64463l-0.40386,0.368c0,0 -0.18651,0.16647 -0.35299,-0.02003c-0.16648,-0.18651 0.02003,-0.35298 0.02003,-0.35298l0.33285,-0.28961c0.83989,-1.89165 -0.35255,-3.10542 -1.90305,-3.90785c-1.97,-1.09303 0.87276,-3.05789 0.36285,-4.80607c-0.17471,-0.59896 -2.093,-1.87201 -2.83964,-2.41257c0.035,0.08299 0.01315,0.17039 0.01315,0.17039l-0.1,0.4c-0.35444,1.38877 -0.87694,2.4359 -1.50663,3.72212c-0.40112,0.81934 0.18572,1.63661 -0.49484,2.52905c-1.86858,1.85027 -5.46506,1.8282 -7.99982,1.83763c-0.43859,0.86545 -0.51957,1.6138 0.12036,2.00202c1.66046,0.57344 0.99792,2.60037 2.5984,3.15732l0.33105,0.3216c0,0 0.17678,0.17678 0,0.35356c-0.17678,0.17677 -0.35355,0 -0.35355,0l-0.24037,-0.24983c-1.69049,-0.53182 -1.00701,-2.63687 -2.54446,-3.12839c-2.86942,-1.70552 0.75565,-3.5527 1.89902,-4.94101c0.67422,-0.81865 0.98783,-1.76533 1.85967,-2.53005c1.50307,-1.31519 2.23682,-5.55986 2.23863,-7.46332c-0.05777,-0.01667 -0.11433,-0.03739 -0.16922,-0.06336c-0.1418,-0.06709 -0.2644,-0.14879 -0.36943,-0.24233c-0.85493,-0.25074 -1.79864,-0.46146 -2.36602,-1.04316zM337.49544,166.83491c0.38757,0.3899 0.98454,0.6014 1.59939,0.77904c-0.30626,-0.84224 0.02083,-1.9801 0.50586,-2.61712c0.96766,-1.16148 1.98602,-4.73789 0.66101,-6.14791c-0.37729,-0.4015 -1.97301,-0.58067 -2.5489,-0.76477c-0.25928,-0.08289 -0.46834,-0.16613 -0.63816,-0.25234c0.3343,2.5215 0.91026,4.53955 -0.18968,6.91286c0.34061,0.59357 0.05167,1.52808 0.61048,2.09024z" fill-opacity="0.50196" fill="#e3e3e3" stroke="none" stroke-width="0.5" stroke-linecap="butt"/><path d="M340.99157,168.58806c0.32804,0.04095 0.62686,0.15565 0.80025,0.55579c0.56883,1.31266 1.12868,2.08315 2.29889,3.05266c-0.23554,-0.05302 -0.29461,0.18422 -0.29461,0.18422l-0.09866,0.40306c-0.33703,1.37276 -0.94716,2.43613 -1.49796,3.72378c-0.34811,0.81381 0.21624,1.58505 -0.41445,2.37953c-1.6247,1.64484 -5.07395,1.67833 -7.39995,1.66703c1.00704,-1.62039 3.00846,-3.55399 3.77502,-4.22298c1.58682,-1.38846 2.34939,-5.58808 2.37217,-7.66511l0.16144,-0.02803c0,0 0.18008,0.08955 0.29786,-0.04996z" fill="#061406" stroke="none" stroke-width="0.5" stroke-linecap="butt"/><path d="M336.84975,164.78018c1.09994,-2.37331 0.54179,-4.47374 0.20749,-6.99524c0.16982,0.08621 0.38398,0.16787 0.64326,0.25075c0.57589,0.1841 2.2006,0.3646 2.57789,0.7661c1.325,1.41002 0.30487,5.08129 -0.66279,6.24277c-0.48503,0.63702 -0.82495,1.77712 -0.51868,2.61936c-0.61485,-0.17764 -1.22997,-0.39175 -1.61754,-0.78165c-0.55881,-0.56216 -0.28902,-1.50851 -0.62963,-2.10208z" fill="#061406" stroke="none" stroke-width="0.5" stroke-linecap="butt"/><path d="M338.69354,166.96296v-7.6" fill="none" stroke="#020602" stroke-width="0.5" stroke-linecap="round"/><path d="M341.19354,169.96296v8.5" fill="none" stroke="#020602" stroke-width="0.5" stroke-linecap="round"/><path d="M338.99354,175.56296v4" fill="none" stroke="#020602" stroke-width="0.5" stroke-linecap="round"/></g><g stroke-width="0" stroke-linecap="butt"><g fill-opacity="0.83922" fill="#000000" stroke="#000000"><path d="M-16.34512,373.95896v-403.48913h743.89439v403.48913z"/></g><g stroke="none"><path d="M-26.49166,392.65285v-423.0128h164.97129v423.0128z" fill="url(#color-1)"/><path d="M583.9176,389.13859v-423.0128h164.97129v423.0128z" fill="url(#color-2)"/><path d="M-27.857,104.67877v-138.29264h776.23763v138.29265z" fill="url(#color-3)"/><path d="M747.34873,255.58157v138.29264h-776.23762v-138.29264z" fill="url(#color-4)"/></g></g></g></g></g></svg>