<svg version="1.1" xmlns="http://www.w3.org/2000/svg" xmlns:xlink="http://www.w3.org/1999/xlink" width="76.33333" height="101" viewBox="0,0,76.33333,101"><defs><linearGradient x1="353.84953" y1="175.66035" x2="350.23566" y2="187.07043" gradientUnits="userSpaceOnUse" id="color-1"><stop offset="0" stop-color="#000000" stop-opacity="0"/><stop offset="1" stop-color="#000000"/></linearGradient><radialGradient cx="341.06077" cy="179.67321" r="1.2213" gradientUnits="userSpaceOnUse" id="color-2"><stop offset="0" stop-color="#613a2f"/><stop offset="1" stop-color="#613a2f" stop-opacity="0"/></radialGradient><radialGradient cx="345.83381" cy="176.07021" r="1.02589" gradientUnits="userSpaceOnUse" id="color-3"><stop offset="0" stop-color="#613a2f"/><stop offset="1" stop-color="#613a2f" stop-opacity="0"/></radialGradient><radialGradient cx="343.17614" cy="176.88746" r="0.96177" gradientUnits="userSpaceOnUse" id="color-4"><stop offset="0" stop-color="#613a2f"/><stop offset="1" stop-color="#613a2f" stop-opacity="0"/></radialGradient><radialGradient cx="341.63364" cy="178.14759" r="0.44883" gradientUnits="userSpaceOnUse" id="color-5"><stop offset="0" stop-color="#613a2f"/><stop offset="1" stop-color="#613a2f" stop-opacity="0"/></radialGradient><radialGradient cx="342.01845" cy="177.21578" r="0.25647" gradientUnits="userSpaceOnUse" id="color-6"><stop offset="0" stop-color="#613a2f"/><stop offset="1" stop-color="#613a2f" stop-opacity="0"/></radialGradient><radialGradient cx="344.69715" cy="189.49794" r="0.59843" gradientUnits="userSpaceOnUse" id="color-7"><stop offset="0" stop-color="#613a2f"/><stop offset="1" stop-color="#613a2f" stop-opacity="0"/></radialGradient><radialGradient cx="344.22954" cy="189.41707" r="0.74805" gradientUnits="userSpaceOnUse" id="color-8"><stop offset="0" stop-color="#613a2f"/><stop offset="1" stop-color="#613a2f" stop-opacity="0"/></radialGradient><radialGradient cx="343.6156" cy="188.5949" r="0.53432" gradientUnits="userSpaceOnUse" id="color-9"><stop offset="0" stop-color="#613a2f"/><stop offset="1" stop-color="#613a2f" stop-opacity="0"/></radialGradient><radialGradient cx="345.33733" cy="190.10423" r="0.68393" gradientUnits="userSpaceOnUse" id="color-10"><stop offset="0" stop-color="#613a2f"/><stop offset="1" stop-color="#613a2f" stop-opacity="0"/></radialGradient><radialGradient cx="343.41351" cy="189.09138" r="0.34196" gradientUnits="userSpaceOnUse" id="color-11"><stop offset="0" stop-color="#613a2f"/><stop offset="1" stop-color="#613a2f" stop-opacity="0"/></radialGradient><radialGradient cx="343.17315" cy="187.93911" r="0.14961" gradientUnits="userSpaceOnUse" id="color-12"><stop offset="0" stop-color="#613a2f"/><stop offset="1" stop-color="#613a2f" stop-opacity="0"/></radialGradient><radialGradient cx="345.99259" cy="191.14128" r="0.14961" gradientUnits="userSpaceOnUse" id="color-13"><stop offset="0" stop-color="#613a2f"/><stop offset="1" stop-color="#613a2f" stop-opacity="0"/></radialGradient><radialGradient cx="361.76931" cy="186.20654" r="0.72667" gradientUnits="userSpaceOnUse" id="color-14"><stop offset="0" stop-color="#613a2f"/><stop offset="1" stop-color="#613a2f" stop-opacity="0"/></radialGradient><radialGradient cx="360.93249" cy="187.64535" r="0.89765" gradientUnits="userSpaceOnUse" id="color-15"><stop offset="0" stop-color="#613a2f"/><stop offset="1" stop-color="#613a2f" stop-opacity="0"/></radialGradient><radialGradient cx="361.21846" cy="186.884" r="0.76942" gradientUnits="userSpaceOnUse" id="color-16"><stop offset="0" stop-color="#613a2f"/><stop offset="1" stop-color="#613a2f" stop-opacity="0"/></radialGradient><radialGradient cx="360.24951" cy="188.52756" r="0.36333" gradientUnits="userSpaceOnUse" id="color-17"><stop offset="0" stop-color="#613a2f"/><stop offset="1" stop-color="#613a2f" stop-opacity="0"/></radialGradient><radialGradient cx="360.41767" cy="187.57196" r="0.19235" gradientUnits="userSpaceOnUse" id="color-18"><stop offset="0" stop-color="#613a2f"/><stop offset="1" stop-color="#613a2f" stop-opacity="0"/></radialGradient><radialGradient cx="360.99796" cy="188.8543" r="0.10687" gradientUnits="userSpaceOnUse" id="color-19"><stop offset="0" stop-color="#613a2f"/><stop offset="1" stop-color="#613a2f" stop-opacity="0"/></radialGradient><radialGradient cx="354.67188" cy="192.05187" r="0.17098" gradientUnits="userSpaceOnUse" id="color-20"><stop offset="0" stop-color="#613a2f"/><stop offset="1" stop-color="#613a2f" stop-opacity="0"/></radialGradient><radialGradient cx="355.3626" cy="192.13613" r="0.12823" gradientUnits="userSpaceOnUse" id="color-21"><stop offset="0" stop-color="#613a2f"/><stop offset="1" stop-color="#613a2f" stop-opacity="0"/></radialGradient><linearGradient x1="339.67761" y1="181.59416" x2="343.62234" y2="182.84357" gradientUnits="userSpaceOnUse" id="color-22"><stop offset="0" stop-color="#603b2f" stop-opacity="0"/><stop offset="1" stop-color="#603b2f"/></linearGradient><linearGradient x1="358.4376" y1="187.01247" x2="361.99412" y2="188.13891" gradientUnits="userSpaceOnUse" id="color-23"><stop offset="0" stop-color="#603b2f"/><stop offset="1" stop-color="#603b2f" stop-opacity="0"/></linearGradient><radialGradient cx="359.07035" cy="186.18941" r="0.73833" gradientUnits="userSpaceOnUse" id="color-24"><stop offset="0" stop-color="#000000" stop-opacity="0"/><stop offset="1" stop-color="#000000"/></radialGradient><radialGradient cx="343.37921" cy="181.32796" r="0.73833" gradientUnits="userSpaceOnUse" id="color-25"><stop offset="0" stop-color="#000000" stop-opacity="0"/><stop offset="1" stop-color="#000000"/></radialGradient><linearGradient x1="376.61851" y1="147.64735" x2="369.91966" y2="168.79757" gradientUnits="userSpaceOnUse" id="color-26"><stop offset="0" stop-color="#2f1c17"/><stop offset="1" stop-color="#35201a"/></linearGradient><linearGradient x1="350.72751" y1="139.44698" x2="344.02867" y2="160.59719" gradientUnits="userSpaceOnUse" id="color-27"><stop offset="0" stop-color="#2f1c17"/><stop offset="1" stop-color="#35201a"/></linearGradient><radialGradient cx="347.07787" cy="161.46979" r="2.7039" gradientUnits="userSpaceOnUse" id="color-28"><stop offset="0" stop-color="#d27e67"/><stop offset="1" stop-color="#bf735e"/></radialGradient><radialGradient cx="367.09244" cy="168.03312" r="2.7039" gradientUnits="userSpaceOnUse" id="color-29"><stop offset="0" stop-color="#d27e67"/><stop offset="1" stop-color="#bf735e"/></radialGradient><radialGradient cx="350.60826" cy="169.6046" r="5.14597" gradientUnits="userSpaceOnUse" id="color-30"><stop offset="0" stop-color="#000000" stop-opacity="0"/><stop offset="1" stop-color="#000000"/></radialGradient><radialGradient cx="359.45289" cy="172.31893" r="5.14597" gradientUnits="userSpaceOnUse" id="color-31"><stop offset="0" stop-color="#000000" stop-opacity="0"/><stop offset="1" stop-color="#000000"/></radialGradient><radialGradient cx="352.20709" cy="179.4626" r="7.3593" gradientUnits="userSpaceOnUse" id="color-32"><stop offset="0" stop-color="#724538"/><stop offset="1" stop-color="#683f33"/></radialGradient><radialGradient cx="348.57556" cy="177.96049" r="1.26099" gradientUnits="userSpaceOnUse" id="color-33"><stop offset="0" stop-color="#613a2f"/><stop offset="1" stop-color="#613a2f" stop-opacity="0"/></radialGradient><radialGradient cx="349.81242" cy="176.60353" r="0.87628" gradientUnits="userSpaceOnUse" id="color-34"><stop offset="0" stop-color="#613a2f"/><stop offset="1" stop-color="#613a2f" stop-opacity="0"/></radialGradient><radialGradient cx="347.96162" cy="177.13829" r="0.76942" gradientUnits="userSpaceOnUse" id="color-35"><stop offset="0" stop-color="#613a2f"/><stop offset="1" stop-color="#613a2f" stop-opacity="0"/></radialGradient><radialGradient cx="348.95189" cy="176.91388" r="0.83353" gradientUnits="userSpaceOnUse" id="color-36"><stop offset="0" stop-color="#613a2f"/><stop offset="1" stop-color="#613a2f" stop-opacity="0"/></radialGradient><radialGradient cx="350.34275" cy="178.60988" r="0.27785" gradientUnits="userSpaceOnUse" id="color-37"><stop offset="0" stop-color="#613a2f"/><stop offset="1" stop-color="#613a2f" stop-opacity="0"/></radialGradient><radialGradient cx="347.65389" cy="178.25145" r="0.08549" gradientUnits="userSpaceOnUse" id="color-38"><stop offset="0" stop-color="#613a2f"/><stop offset="1" stop-color="#613a2f" stop-opacity="0"/></radialGradient><radialGradient cx="347.599" cy="175.94733" r="0.10687" gradientUnits="userSpaceOnUse" id="color-39"><stop offset="0" stop-color="#613a2f"/><stop offset="1" stop-color="#613a2f" stop-opacity="0"/></radialGradient><radialGradient cx="360.33533" cy="177.85145" r="0.4702" gradientUnits="userSpaceOnUse" id="color-40"><stop offset="0" stop-color="#613a2f"/><stop offset="1" stop-color="#613a2f" stop-opacity="0"/></radialGradient><radialGradient cx="362.19244" cy="179.98657" r="0.10687" gradientUnits="userSpaceOnUse" id="color-41"><stop offset="0" stop-color="#613a2f"/><stop offset="1" stop-color="#613a2f" stop-opacity="0"/></radialGradient><radialGradient cx="362.47958" cy="176.60255" r="0.29922" gradientUnits="userSpaceOnUse" id="color-42"><stop offset="0" stop-color="#613a2f"/><stop offset="1" stop-color="#613a2f" stop-opacity="0"/></radialGradient><radialGradient cx="356.22439" cy="164.57014" r="1.04489" gradientUnits="userSpaceOnUse" id="color-43"><stop offset="0" stop-color="#3c3148"/><stop offset="1" stop-color="#3c3148" stop-opacity="0"/></radialGradient><radialGradient cx="355.09126" cy="164.13652" r="0.71242" gradientUnits="userSpaceOnUse" id="color-44"><stop offset="0" stop-color="#613a2f"/><stop offset="1" stop-color="#613a2f" stop-opacity="0"/></radialGradient><radialGradient cx="354.21777" cy="163.98441" r="0.85491" gradientUnits="userSpaceOnUse" id="color-45"><stop offset="0" stop-color="#413347"/><stop offset="1" stop-color="#413347" stop-opacity="0"/></radialGradient><radialGradient cx="355.75303" cy="165.19306" r="0.66493" gradientUnits="userSpaceOnUse" id="color-46"><stop offset="0" stop-color="#3b3148"/><stop offset="1" stop-color="#3b3148" stop-opacity="0"/></radialGradient><radialGradient cx="354.49354" cy="164.84397" r="0.37996" gradientUnits="userSpaceOnUse" id="color-47"><stop offset="0" stop-color="#3b3149"/><stop offset="1" stop-color="#3b3149" stop-opacity="0"/></radialGradient><radialGradient cx="357.29713" cy="164.48643" r="0.33246" gradientUnits="userSpaceOnUse" id="color-48"><stop offset="0" stop-color="#613a2f"/><stop offset="1" stop-color="#613a2f" stop-opacity="0"/></radialGradient><radialGradient cx="355.42899" cy="163.62074" r="0.35621" gradientUnits="userSpaceOnUse" id="color-49"><stop offset="0" stop-color="#433346"/><stop offset="1" stop-color="#433346" stop-opacity="0"/></radialGradient><radialGradient cx="356.80012" cy="165.89835" r="0.18998" gradientUnits="userSpaceOnUse" id="color-50"><stop offset="0" stop-color="#613a2f"/><stop offset="1" stop-color="#613a2f" stop-opacity="0"/></radialGradient><radialGradient cx="358.09094" cy="165.8339" r="0.14248" gradientUnits="userSpaceOnUse" id="color-51"><stop offset="0" stop-color="#613a2f"/><stop offset="1" stop-color="#613a2f" stop-opacity="0"/></radialGradient><radialGradient cx="352.32479" cy="162.96138" r="0.11874" gradientUnits="userSpaceOnUse" id="color-52"><stop offset="0" stop-color="#613a2f"/><stop offset="1" stop-color="#613a2f" stop-opacity="0"/></radialGradient><radialGradient cx="345.37751" cy="169.95281" r="0.78366" gradientUnits="userSpaceOnUse" id="color-53"><stop offset="0" stop-color="#613a2f"/><stop offset="1" stop-color="#613a2f" stop-opacity="0"/></radialGradient><radialGradient cx="345.66808" cy="168.79935" r="0.61743" gradientUnits="userSpaceOnUse" id="color-54"><stop offset="0" stop-color="#613a2f"/><stop offset="1" stop-color="#613a2f" stop-opacity="0"/></radialGradient><radialGradient cx="344.93946" cy="169.29096" r="0.61743" gradientUnits="userSpaceOnUse" id="color-55"><stop offset="0" stop-color="#613a2f"/><stop offset="1" stop-color="#613a2f" stop-opacity="0"/></radialGradient><radialGradient cx="344.63942" cy="170.31688" r="0.52244" gradientUnits="userSpaceOnUse" id="color-56"><stop offset="0" stop-color="#613a2f"/><stop offset="1" stop-color="#613a2f" stop-opacity="0"/></radialGradient><radialGradient cx="345.17382" cy="168.3937" r="0.16623" gradientUnits="userSpaceOnUse" id="color-57"><stop offset="0" stop-color="#613a2f"/><stop offset="1" stop-color="#613a2f" stop-opacity="0"/></radialGradient><radialGradient cx="346.15214" cy="170.02378" r="0.28497" gradientUnits="userSpaceOnUse" id="color-58"><stop offset="0" stop-color="#613a2f"/><stop offset="1" stop-color="#613a2f" stop-opacity="0"/></radialGradient><radialGradient cx="341.85668" cy="177.05802" r="0.71242" gradientUnits="userSpaceOnUse" id="color-59"><stop offset="0" stop-color="#613a2f"/><stop offset="1" stop-color="#613a2f" stop-opacity="0"/></radialGradient><radialGradient cx="342.10047" cy="176.28828" r="0.49869" gradientUnits="userSpaceOnUse" id="color-60"><stop offset="0" stop-color="#613a2f"/><stop offset="1" stop-color="#613a2f" stop-opacity="0"/></radialGradient><linearGradient x1="361.1497" y1="153.05051" x2="357.63641" y2="164.14298" gradientUnits="userSpaceOnUse" id="color-61"><stop offset="0" stop-color="#0a0a0a"/><stop offset="1" stop-color="#090909"/></linearGradient><radialGradient cx="352.26285" cy="175.10576" r="0.47777" gradientUnits="userSpaceOnUse" id="color-62"><stop offset="0" stop-color="#ffffff"/><stop offset="1" stop-color="#ffffff" stop-opacity="0"/></radialGradient><radialGradient cx="350.58534" cy="169.61869" r="2.51382" gradientUnits="userSpaceOnUse" id="color-63"><stop offset="0" stop-color="#000000" stop-opacity="0"/><stop offset="1" stop-color="#000000"/></radialGradient><radialGradient cx="359.24204" cy="172.3605" r="2.51382" gradientUnits="userSpaceOnUse" id="color-64"><stop offset="0" stop-color="#000000" stop-opacity="0"/><stop offset="1" stop-color="#000000"/></radialGradient><radialGradient cx="350.58534" cy="169.61869" r="2.51383" gradientUnits="userSpaceOnUse" id="color-65"><stop offset="0" stop-color="#000000" stop-opacity="0"/><stop offset="1" stop-color="#000000"/></radialGradient><radialGradient cx="359.24204" cy="172.3605" r="2.51382" gradientUnits="userSpaceOnUse" id="color-66"><stop offset="0" stop-color="#000000" stop-opacity="0"/><stop offset="1" stop-color="#000000"/></radialGradient></defs><g transform="translate(-321.83333,-129.5)"><g data-paper-data="{&quot;isPaintingLayer&quot;:true}" fill-rule="nonzero" stroke-linejoin="miter" stroke-miterlimit="10" stroke-dasharray="" stroke-dashoffset="0" style="mix-blend-mode: normal"><path d="M321.83333,230.5v-101h76.33333v101z" fill="#273042" stroke="none" stroke-width="0" stroke-linecap="butt"/><path d="M329.75471,196.83333v-61.66667h60.49068v61.66667z" fill="#0b0e13" stroke="none" stroke-width="0" stroke-linecap="butt"/><path d="M343.08354,227.33333v-17.33333h33.83333v17.33333z" fill="#0b0e13" stroke="#000000" stroke-width="0" stroke-linecap="butt"/><path d="M343,209.125v-11.25h34.25v11.25z" fill="#273042" stroke="#000000" stroke-width="0" stroke-linecap="butt"/><text transform="translate(347.21033,223.17375) scale(0.37559,0.37559)" font-size="40" xml:space="preserve" fill="#c74444" fill-rule="nonzero" stroke="none" stroke-width="1" stroke-linecap="butt" stroke-linejoin="miter" stroke-miterlimit="10" stroke-dasharray="" stroke-dashoffset="0" font-family="&quot;Agency FB&quot;, Sans Serif" font-weight="normal" text-anchor="start" style="mix-blend-mode: normal"><tspan x="0" dy="0">HARD</tspan></text><g><g><path d="M359.11784,186.57939c-0.81974,2.58816 -5.06476,3.55225 -9.48151,2.15334c-4.41676,-1.39891 -7.33271,-4.63106 -6.51297,-7.21922c0.81974,-2.58816 5.06476,-3.55225 9.48151,-2.15334c4.41676,1.39891 7.33271,4.63106 6.51297,7.21922z" fill="#40261f" stroke="#291814" stroke-width="1" stroke-linecap="butt"/><g><g><g stroke="#292929" stroke-width="0.5"><path d="M344.45244,187.29686c-0.18023,-0.11201 -0.02452,-1.20973 -0.02452,-1.20973l4.49564,-7.23334c0,0 0.99991,-0.76164 1.18012,-0.64962c0.20284,0.12607 -0.02292,1.36885 -0.02292,1.36885l-4.49563,7.23334c0,0 -0.92986,0.61657 -1.1327,0.4905z" fill="#686868" stroke-linecap="butt"/><path d="M344.40996,186.15062l1.09601,0.55545" fill="none" stroke-linecap="round"/><path d="M349.9098,179.50998l-0.94062,-0.58461" fill="none" stroke-linecap="round"/><path d="M346.74251,182.50802l1.46242,-0.0341" fill="none" stroke-linecap="round"/><path d="M348.4564,180.74419c0.08202,0.05098 0.11697,0.14307 0.07805,0.20568c-0.03892,0.06261 -0.13695,0.07204 -0.21898,0.02107c-0.08203,-0.05098 -0.11698,-0.14307 -0.07806,-0.20569c0.03891,-0.06261 0.13696,-0.07205 0.21899,-0.02107z" fill="#686868" stroke-linecap="butt"/><path d="M346.27926,184.35761c0.08203,0.05098 0.11698,0.14307 0.07805,0.20569c-0.03892,0.06261 -0.13696,0.07205 -0.21898,0.02107c-0.08203,-0.05098 -0.11698,-0.14306 -0.07806,-0.20568c0.03891,-0.06261 0.13696,-0.07205 0.21898,-0.02107z" fill="#686868" stroke-linecap="butt"/></g><g stroke="#292929"><path d="M349.89374,183.95335l0.30833,-0.97348c0,0 0.35716,-0.23561 1.02858,-0.02296c0.74657,0.23646 1.00893,0.66829 1.00893,0.66829l-0.30833,0.97348z" fill="#484848" stroke-width="0.5" stroke-linecap="butt"/><g stroke-width="0.5"><path d="M349.30042,189.39581c-0.22803,-0.07096 -0.36992,-1.17761 -0.36992,-1.17761l2.53053,-8.13193c0,0 0.79236,-0.98369 1.0204,-0.91273c0.20261,0.06305 0.28058,1.31757 0.28058,1.31757l-2.53053,8.13193c0,0 -0.72845,0.83582 -0.93106,0.77277z" fill="#686868" stroke-linecap="butt"/><path d="M349.05817,188.2125l1.13706,0.46568" fill="none" stroke-linecap="round"/><path d="M351.62057,180.17437l1.05747,0.32907" fill="none" stroke-linecap="round"/><path d="M351.42468,184.53117l-0.9308,-1.12846" fill="none" stroke-linecap="round"/><path d="M351.63771,182.08102c0.09221,0.02869 0.14921,0.10903 0.1273,0.17942c-0.0219,0.0704 -0.11442,0.1042 -0.20664,0.0755c-0.09221,-0.0287 -0.1492,-0.10902 -0.1273,-0.17941c0.0219,-0.0704 0.11441,-0.1042 0.20663,-0.0755z" fill="#686868" stroke-linecap="butt"/><path d="M350.32869,186.09143c0.09221,0.02869 0.14921,0.10903 0.12731,0.17942c-0.0219,0.0704 -0.11442,0.1042 -0.20663,0.0755c-0.09221,-0.02869 -0.14921,-0.10902 -0.1273,-0.17941c0.0219,-0.0704 0.11442,-0.1042 0.20663,-0.0755z" fill="#686868" stroke-linecap="butt"/></g><path d="M350.17416,183.61869l0.10192,-0.71502c0,0 0.3521,0.23607 0.86971,0.40001c0.43076,0.13643 1.05461,0.20948 1.05461,0.20948l-0.32831,0.64332z" fill="#575757" stroke-width="0.25" stroke-linecap="butt"/><path d="M349.60894,184.79485l0.57158,-1.80465c0,0 0.25439,0.36138 0.85061,0.55021c0.6723,0.21294 1.22014,0.10565 1.22014,0.10565l-0.59422,1.79748c0,0 -0.83355,-0.14172 -1.18891,-0.25427c-0.32455,-0.10279 -0.85918,-0.39441 -0.85918,-0.39441z" fill="#4c4c4c" stroke-width="0.5" stroke-linecap="butt"/></g><g stroke="#292929" stroke-width="0.5"><path d="M354.66385,189.68415c-0.23843,-0.01369 -0.64378,-1.05316 -0.64378,-1.05316l0.48835,-8.50255c0,0 0.53088,-1.14614 0.76931,-1.13245c0.21185,0.01217 0.59095,1.21057 0.59095,1.21057l-0.48834,8.50255c0,0 -0.50464,0.9872 -0.71649,0.97503z" fill="#686868" stroke-linecap="butt"/><path d="M355.35851,188.77137l-1.21593,-0.1768" fill="none" stroke-linecap="round"/><path d="M354.68453,180.17532l1.10567,0.06351" fill="none" stroke-linecap="round"/><path d="M355.54832,184.45012l-1.17613,-0.8698" fill="none" stroke-linecap="round"/><path d="M355.16236,182.0212c0.09642,0.00554 0.17116,0.06969 0.16693,0.1433c-0.00422,0.0736 -0.08582,0.12878 -0.18224,0.12324c-0.09642,-0.00554 -0.17115,-0.0697 -0.16693,-0.14329c0.00422,-0.0736 0.08582,-0.12878 0.18223,-0.12324z" fill="#686868" stroke-linecap="butt"/><path d="M354.86229,186.22915c0.09642,0.00554 0.17115,0.0697 0.16693,0.14329c-0.00422,0.0736 -0.08582,0.12878 -0.18224,0.12324c-0.09642,-0.00554 -0.17115,-0.06969 -0.16693,-0.14329c0.00422,-0.0736 0.08582,-0.12878 0.18224,-0.12325z" fill="#686868" stroke-linecap="butt"/></g><path d="M344.00663,185.09753l3.61388,-11.41008l12.45794,3.94576l-3.61388,11.41008z" fill="url(#color-1)" stroke="none" stroke-width="0" stroke-linecap="butt"/><g><g><g><g><g stroke="#291814" stroke-width="1" stroke-linecap="butt"><path d="M362.9289,185.98854c-0.61195,1.88363 -2.15721,4.00284 -4.32918,5.52368c-2.51558,1.76145 -5.9116,2.70764 -10.30637,1.3546c-0.56915,-0.17522 -0.43535,0.54013 -0.9405,0.31503c-0.25047,-0.11162 -1.16361,-1.14595 -1.39875,-1.26878c-0.2448,-0.12789 -0.136,0.8726 -0.36447,0.73334c-0.3081,-0.18781 -0.94684,-1.51987 -1.22587,-1.72671c-1.26836,-0.94019 -2.24016,-2.06697 -2.94968,-3.28974c-1.80317,-3.10759 -1.67289,-6.64721 -1.18193,-8.53752c3.94978,-13.26374 26.27125,-4.10655 22.69674,6.89611zM349.73516,187.77047c1.64219,0.52013 8.51309,0.01944 9.03322,-1.62275c0.49897,-1.5754 -3.13553,-5.62638 -7.90304,-7.13638c-4.08833,-1.29488 -6.6768,2.20498 -7.17577,3.78039c-0.49897,1.5754 4.47018,4.47977 6.04559,4.97874z" fill="#724538"/><path d="M361.14976,184.48511c-0.6818,2.15266 -1.95542,5.17108 -5.03907,6.34912c-1.70855,0.65271 -3.90217,0.76281 -7.02646,-0.20553c-3.69416,-1.14503 -5.50964,-2.98245 -6.39971,-4.93943c-1.16314,-2.55735 -0.67389,-5.29604 -0.00116,-6.72921c0.36032,-0.82214 2.60823,-2.42851 9.40173,-0.16041c7.94873,2.46074 9.28017,5.00506 9.06467,5.68545zM349.72162,186.86943c2.56649,0.77771 6.34634,1.53153 7.19148,-1.23459c0.84515,-2.76612 -2.27466,-4.55028 -5.1513,-5.4428c-2.87665,-0.89253 -5.64474,-0.67085 -6.41612,1.85382c-0.77138,2.52467 1.80945,4.04585 4.37594,4.82357z" fill="#4d2e26"/></g><g><path d="M343.06847,182.49587c0,0 0.26098,0.07769 0.37483,0.07264c0.16175,-0.00718 0.25145,0.08261 0.31991,0.23667c0.22275,0.50126 0.79793,1.76561 1.90095,2.93209c0.96043,1.01568 2.69606,2.17851 4.13526,2.57014c1.5074,0.42396 3.23534,0.51993 4.70724,0.26094c1.64475,-0.28939 2.88033,-0.98446 3.36336,-1.2901c0.16505,-0.10443 0.30485,-0.09498 0.46126,0.00635c0.10009,0.06484 0.3253,0.21073 0.3253,0.21073c0,0 -1.09237,0.86954 -2.80685,1.43861c-1.72344,0.57205 -4.07488,0.84185 -6.33299,0.15008c-4.9799,-1.52559 -6.44828,-6.58814 -6.44828,-6.58814z" fill="#a5a5a5" stroke="#585858" stroke-width="0.5" stroke-linecap="butt"/><path d="M342.85803,182.97473c0,0 0.024,-0.07578 0.10448,-0.32988c0.06869,-0.21686 0.25455,-0.14911 0.3213,0.06053c0.22326,0.70127 0.72984,1.93362 1.78214,3.13716c0.97662,1.11698 2.61235,2.18877 4.37564,2.84773c2.03675,0.62129 4.11911,0.63432 5.65822,0.27173c1.46993,-0.34629 2.54511,-0.9699 3.14433,-1.38847c0.19472,-0.13602 0.4739,-0.19704 0.39947,0.03794c-0.08146,0.25721 -0.12292,0.3881 -0.12292,0.3881c0,0 -0.67659,1.28633 -2.41282,1.93644c-1.62703,0.6092 -4.21435,0.61906 -7.1872,-0.33653c-2.15938,-0.69411 -3.93199,-2.00936 -4.83677,-3.19722c-1.35862,-1.78368 -1.22585,-3.42753 -1.22585,-3.42753z" fill="#e8e8e8" stroke="#585858" stroke-width="0.5" stroke-linecap="butt"/><path d="M343.62211,184.29854l-0.16717,0.59472" fill="none" stroke="#a3a3a3" stroke-width="0.35" stroke-linecap="round"/><path d="M344.6982,185.93696l-0.16716,0.59472" fill="none" stroke="#a3a3a3" stroke-width="0.35" stroke-linecap="round"/><path d="M346.20289,187.27632l-0.16716,0.59472" fill="none" stroke="#a3a3a3" stroke-width="0.35" stroke-linecap="round"/><path d="M348.00566,188.37722l-0.16716,0.59472" fill="none" stroke="#a3a3a3" stroke-width="0.35" stroke-linecap="round"/><path d="M350.0738,189.76144l0.16716,-0.59472" fill="none" stroke="#a3a3a3" stroke-width="0.35" stroke-linecap="round"/><path d="M352.69619,189.49598l-0.16716,0.59472" fill="none" stroke="#a3a3a3" stroke-width="0.35" stroke-linecap="round"/><path d="M354.87543,189.40833l-0.16717,0.59472" fill="none" stroke="#a3a3a3" stroke-width="0.35" stroke-linecap="round"/><path d="M357.08361,188.64368l-0.16716,0.59472" fill="none" stroke="#a3a3a3" stroke-width="0.35" stroke-linecap="round"/></g></g><path d="M341.87577,179.93134c-0.20366,0.64302 -0.73365,1.04872 -1.18377,0.90616c-0.45012,-0.14256 -0.6499,-0.77941 -0.44624,-1.42243c0.20366,-0.64302 0.73365,-1.04872 1.18377,-0.90616c0.45012,0.14256 0.6499,0.77941 0.44624,1.42243z" fill="url(#color-2)" stroke="none" stroke-width="0" stroke-linecap="butt"/><path d="M346.81183,176.37997c-0.16751,0.52888 -0.74118,0.81894 -1.28131,0.64787c-0.54014,-0.17108 -0.84221,-0.73851 -0.6747,-1.26739c0.16751,-0.52888 0.74117,-0.81895 1.28131,-0.64787c0.54014,0.17108 0.84221,0.73851 0.6747,1.26739z" fill="url(#color-3)" stroke="none" stroke-width="0" stroke-linecap="butt"/><path d="M343.92999,177.12623c-0.16038,0.50638 -0.62793,0.80998 -1.04428,0.67811c-0.41636,-0.13187 -0.62386,-0.64927 -0.46348,-1.15566c0.16038,-0.50638 0.62793,-0.80998 1.04428,-0.67811c0.41636,0.13187 0.62386,0.64927 0.46348,1.15566z" fill="url(#color-4)" stroke="none" stroke-width="0" stroke-linecap="butt"/><path d="M342.04114,178.27666c-0.07485,0.23631 -0.31797,0.37009 -0.54302,0.29881c-0.22506,-0.07128 -0.34683,-0.32063 -0.27198,-0.55694c0.07485,-0.23631 0.31797,-0.37009 0.54302,-0.29881c0.22506,0.07128 0.34683,0.32063 0.27198,0.55694z" fill="url(#color-5)" stroke="none" stroke-width="0" stroke-linecap="butt"/><path d="M342.18144,177.26741c-0.04277,0.13504 -0.15042,0.22139 -0.24044,0.19288c-0.09002,-0.02851 -0.12833,-0.16109 -0.08556,-0.29613c0.04277,-0.13504 0.15042,-0.22139 0.24044,-0.19288c0.09002,0.02851 0.12833,0.16109 0.08556,0.29613z" fill="url(#color-6)" stroke="none" stroke-width="0" stroke-linecap="butt"/><path d="M345.16577,189.64636c-0.09979,0.31508 -0.39051,0.50405 -0.64932,0.42208c-0.25882,-0.08197 -0.38773,-0.40385 -0.28794,-0.71893c0.09979,-0.31508 0.39051,-0.50405 0.64932,-0.42208c0.25882,0.08197 0.38773,0.40385 0.28794,0.71893z" fill="url(#color-7)" stroke="none" stroke-width="0" stroke-linecap="butt"/><path d="M344.90191,189.63003c-0.12474,0.39385 -0.5269,0.61779 -0.89825,0.50017c-0.37135,-0.11762 -0.57126,-0.53224 -0.44651,-0.92609c0.12474,-0.39385 0.5269,-0.61779 0.89825,-0.50017c0.37135,0.11762 0.57126,0.53224 0.44651,0.92609z" fill="url(#color-8)" stroke="none" stroke-width="0" stroke-linecap="butt"/><path d="M343.98236,188.71106c-0.0891,0.28132 -0.32553,0.45737 -0.52809,0.39322c-0.20255,-0.06415 -0.29452,-0.34421 -0.20542,-0.62554c0.0891,-0.28132 0.32554,-0.45737 0.52809,-0.39322c0.20255,0.06415 0.29452,0.34421 0.20542,0.62554z" fill="url(#color-9)" stroke="none" stroke-width="0" stroke-linecap="butt"/><path d="M345.91031,190.28571c-0.11405,0.3601 -0.46304,0.57075 -0.77948,0.47053c-0.31644,-0.10023 -0.48052,-0.47338 -0.36646,-0.83348c0.11405,-0.3601 0.46304,-0.57076 0.77948,-0.47053c0.31644,0.10023 0.48052,0.47339 0.36646,0.83348z" fill="url(#color-10)" stroke="none" stroke-width="0" stroke-linecap="butt"/><path d="M343.73951,189.19463c-0.03564,0.11253 -0.21049,0.15752 -0.39053,0.1005c-0.18005,-0.05703 -0.29711,-0.19448 -0.26147,-0.307c0.03564,-0.11253 0.21049,-0.15752 0.39053,-0.1005c0.18005,0.05703 0.29711,0.19448 0.26147,0.307z" fill="url(#color-11)" stroke="none" stroke-width="0" stroke-linecap="butt"/><path d="M343.31578,187.98429c-0.01426,0.04501 -0.08967,0.06128 -0.16844,0.03633c-0.07877,-0.02495 -0.13107,-0.08166 -0.11681,-0.12668c0.01426,-0.04501 0.08967,-0.06128 0.16844,-0.03633c0.07877,0.02495 0.13107,0.08166 0.11681,0.12668z" fill="url(#color-12)" stroke="none" stroke-width="0" stroke-linecap="butt"/><path d="M346.11485,191.18001c-0.02495,0.07877 -0.09991,0.12529 -0.16742,0.1039c-0.06751,-0.02138 -0.10202,-0.10258 -0.07708,-0.18134c0.02495,-0.07877 0.09991,-0.12529 0.16742,-0.1039c0.06751,0.02138 0.10202,0.10258 0.07708,0.18134z" fill="url(#color-13)" stroke="none" stroke-width="0" stroke-linecap="butt"/><path d="M362.46207,186.42595c-0.12118,0.3826 -0.52957,0.59452 -0.91217,0.47334c-0.3826,-0.12118 -0.59452,-0.52957 -0.47334,-0.91217c0.12118,-0.3826 0.52957,-0.59452 0.91217,-0.47334c0.3826,0.12118 0.59452,0.52957 0.47334,0.91217z" fill="url(#color-14)" stroke="none" stroke-width="0" stroke-linecap="butt"/><path d="M361.60486,187.85831c-0.14969,0.47262 -0.57207,0.76041 -0.94342,0.6428c-0.37135,-0.11762 -0.55103,-0.5961 -0.40134,-1.06872c0.14969,-0.47262 0.57207,-0.76041 0.94342,-0.6428c0.37135,0.11762 0.55103,0.5961 0.40134,1.06872z" fill="url(#color-15)" stroke="none" stroke-width="0" stroke-linecap="butt"/><path d="M361.76859,187.05824c-0.12831,0.4051 -0.47862,0.6555 -0.78245,0.55927c-0.30383,-0.09623 -0.44611,-0.50264 -0.31781,-0.90775c0.12831,-0.4051 0.47862,-0.6555 0.78245,-0.55927c0.30383,0.09623 0.44611,0.50264 0.31781,0.90775z" fill="url(#color-16)" stroke="none" stroke-width="0" stroke-linecap="butt"/><path d="M360.5959,188.63727c-0.06059,0.1913 -0.26479,0.29726 -0.45608,0.23667c-0.1913,-0.06059 -0.29726,-0.26479 -0.23667,-0.45608c0.06059,-0.1913 0.26479,-0.29726 0.45608,-0.23667c0.1913,0.06059 0.29726,0.26479 0.23667,0.45608z" fill="url(#color-17)" stroke="none" stroke-width="0" stroke-linecap="butt"/><path d="M360.60105,187.63004c-0.02138,0.06751 -0.12082,0.09625 -0.2221,0.06417c-0.10127,-0.03208 -0.16604,-0.11282 -0.14466,-0.18033c0.02138,-0.06751 0.12082,-0.09625 0.2221,-0.06417c0.10127,0.03208 0.16604,0.11282 0.14466,0.18033z" fill="url(#color-18)" stroke="none" stroke-width="0" stroke-linecap="butt"/><path d="M361.09983,188.88656c-0.01782,0.05626 -0.07788,0.08743 -0.13415,0.06961c-0.05626,-0.01782 -0.08743,-0.07788 -0.06961,-0.13415c0.01782,-0.05626 0.07788,-0.08743 0.13415,-0.06961c0.05626,0.01782 0.08743,0.07788 0.06961,0.13415z" fill="url(#color-19)" stroke="none" stroke-width="0" stroke-linecap="butt"/><path d="M354.83488,192.1035c-0.02495,0.07877 -0.11815,0.11951 -0.20817,0.091c-0.09002,-0.02851 -0.14278,-0.11548 -0.11783,-0.19425c0.02495,-0.07877 0.11815,-0.11951 0.20817,-0.091c0.09002,0.02851 0.14278,0.11548 0.11783,0.19425z" fill="url(#color-20)" stroke="none" stroke-width="0" stroke-linecap="butt"/><path d="M355.48485,192.17485c-0.01782,0.05626 -0.087,0.08454 -0.15452,0.06316c-0.06751,-0.02138 -0.1078,-0.08433 -0.08998,-0.1406c0.01782,-0.05626 0.087,-0.08454 0.15452,-0.06316c0.06751,0.02138 0.1078,0.08433 0.08998,0.1406z" fill="url(#color-21)" stroke="none" stroke-width="0" stroke-linecap="butt"/></g><path d="M354.00328,192.03991l-0.10497,0.51075c0,0 -0.10316,-0.33886 -0.27431,-0.23875c-0.136,0.07955 -0.31756,0.75029 -0.31756,0.75029c0,0 -0.07714,-0.64509 -0.23517,-0.58174c-0.07462,0.02992 -0.47547,0.74032 -0.47547,0.74032l-0.27021,-0.63565" fill="none" stroke="#543129" stroke-width="0.5" stroke-linecap="round"/></g><path d="M340.80434,178.16832c0.78168,-1.80534 2.58996,-0.19142 2.58996,-0.19142c0,0 -0.72075,0.13396 -1.31476,2.00944c-0.18089,0.57111 -0.31765,1.70363 -0.27041,2.71434c0.02495,0.53395 0.06913,1.33309 0.24076,1.87298c0.13927,0.43807 0.39427,0.8972 0.42024,1.26451c0.08038,1.13707 -0.39254,1.57458 -0.87756,1.42097c-0.40474,-0.12819 -0.96478,-1.38716 -1.24083,-2.81352c-0.3023,-1.56197 -0.29527,-3.33456 -0.12713,-4.2823c0.13366,-0.75339 0.32283,-1.40164 0.57974,-1.99501z" fill="url(#color-22)" stroke="none" stroke-width="0" stroke-linecap="butt"/><path d="M363.06499,184.63922c-0.14058,0.64023 -0.36069,1.28919 -0.67915,1.99586c-0.4006,0.88897 -1.37333,2.38205 -2.45472,3.52754c-0.98749,1.04604 -3.50558,2.492 -3.8705,2.37642c-0.43729,-0.1385 -0.22386,-0.74165 0.46183,-1.6526c0.09237,-0.12271 0.56402,-0.28248 0.96576,-0.55114c0.56162,-0.37557 1.10257,-0.87967 1.30247,-1.04944c0.42259,-0.3589 0.73102,-0.95837 1.04371,-1.39319c0.5919,-0.82307 1.11723,-1.84997 1.3008,-2.42956c0.18758,-0.59224 0.20507,-1.0374 0.20255,-1.34993c-0.00559,-0.69186 -0.25724,-0.88017 -0.25724,-0.88017c0,0 2.41222,-0.54173 1.98449,1.4062z" fill="url(#color-23)" stroke="none" stroke-width="0" stroke-linecap="butt"/></g></g><g><path d="M359.71186,186.35183c-0.05832,0.18414 -0.37011,0.33116 -0.75884,0.20804c-0.38873,-0.12312 -0.64485,-0.40925 -0.58653,-0.59339c0.05832,-0.18414 0.42073,-0.2336 0.80947,-0.11048c0.38873,0.12312 0.59423,0.31169 0.53591,0.49583z" fill="url(#color-24)" stroke="#291814" stroke-width="0.5" stroke-linecap="butt"/><g stroke="#292929"><path d="M359.2315,181.54215l0.18027,-1.0051c0,0 0.2174,-0.29878 0.63241,-0.22434c0.46145,0.08276 0.62697,0.45022 0.62697,0.45022l-0.18027,1.0051z" fill="#484848" stroke-width="0.5" stroke-linecap="butt"/><g stroke-width="0.5"><path d="M358.68008,185.86941l1.47812,-8.38724l0.80406,0.13722l-1.47812,8.38724c0,0 -0.01299,0.32992 -0.44344,0.25377c-0.46872,-0.08291 -0.36062,-0.391 -0.36062,-0.391z" fill="#686868" stroke-linecap="butt"/><path d="M359.46237,186.06725l-0.70382,-0.22845" fill="none" stroke-linecap="round"/><path d="M359.59528,180.88997l0.58335,0.91205" fill="none" stroke-linecap="round"/><path d="M360.28607,179.38286c0.057,0.00973 0.09282,0.07647 0.08003,0.14908c-0.01279,0.07261 -0.06938,0.12358 -0.12637,0.11385c-0.05699,-0.00973 -0.09282,-0.07647 -0.08002,-0.14907c0.01279,-0.0726 0.06937,-0.12358 0.12636,-0.11385z" fill="#686868" stroke-linecap="butt"/><path d="M359.51956,183.53119c0.057,0.00973 0.09282,0.07647 0.08003,0.14907c-0.01279,0.07261 -0.06937,0.12358 -0.12636,0.11385c-0.057,-0.00973 -0.09281,-0.07646 -0.08002,-0.14907c0.01279,-0.07261 0.06937,-0.12358 0.12636,-0.11385z" fill="#686868" stroke-linecap="butt"/></g><path d="M359.40072,181.16234l0.0558,-0.71378c0,0 0.21883,0.15988 0.53876,0.21726c0.26625,0.04775 0.65065,-0.00394 0.65065,-0.00394l-0.19573,0.68869z" fill="#575757" stroke-width="0.25" stroke-linecap="butt"/><path d="M359.06443,182.41457l0.33418,-1.86328c0,0 0.15994,0.30066 0.52846,0.36675c0.41555,0.07453 0.75146,-0.1372 0.75146,-0.1372l-0.34817,1.86077c0,0 -0.51403,0.02625 -0.73368,-0.01315c-0.2006,-0.03598 -0.53223,-0.2139 -0.53223,-0.2139z" fill="#4c4c4c" stroke-width="0.5" stroke-linecap="butt"/></g></g><g><path d="M343.48481,180.99455c0.38873,0.12312 0.65659,0.3722 0.59827,0.55635c-0.05832,0.18414 -0.43247,0.27065 -0.8212,0.14752c-0.38873,-0.12312 -0.55903,-0.42283 -0.50071,-0.60697c0.05832,-0.18414 0.33491,-0.22002 0.72365,-0.09689z" fill="url(#color-25)" stroke="#291814" stroke-width="0.5" stroke-linecap="butt"/><g stroke="#292929"><path d="M344.7631,176.89496l0.43124,-0.92561c0,0 0.34688,-0.20516 0.77184,-0.00718c0.38218,0.17806 0.38793,0.54751 0.38793,0.54751l-0.43124,0.92561z" fill="#484848" stroke-width="0.5" stroke-linecap="butt"/><g stroke-width="0.5"><path d="M343.36256,181.40308c-0.3958,-0.18556 -0.21649,-0.46279 -0.21649,-0.46279l3.61996,-7.70887l0.73644,0.3507l-3.61995,7.70887c0,0 -0.08897,0.31415 -0.51996,0.11209z" fill="#686868" stroke-linecap="butt"/><path d="M343.129,181.00238l0.70701,0.2184" fill="none" stroke-linecap="round"/><path d="M346.0009,176.69263l-1.00205,0.40991" fill="none" stroke-linecap="round"/><path d="M346.30369,175.06264c0.0522,0.02486 0.06911,0.0991 0.03778,0.16583c-0.03134,0.06673 -0.09905,0.10068 -0.15125,0.07582c-0.0522,-0.02486 -0.06912,-0.09911 -0.03778,-0.16584c0.03134,-0.06673 0.09905,-0.10068 0.15126,-0.07582z" fill="#686868" stroke-linecap="butt"/><path d="M344.54223,178.89582c0.0522,0.02486 0.06911,0.09911 0.03777,0.16584c-0.03134,0.06673 -0.09905,0.10068 -0.15125,0.07582c-0.0522,-0.02486 -0.06911,-0.0991 -0.03778,-0.16584c0.03133,-0.06673 0.09905,-0.10067 0.15126,-0.07582z" fill="#686868" stroke-linecap="butt"/></g><path d="M345.03669,176.57705l0.23643,-0.67579c0,0 0.28455,0.26356 0.52975,0.3778c0.29462,0.13727 0.5656,0.13252 0.5656,0.13252l-0.3653,0.61575z" fill="#575757" stroke-width="0.25" stroke-linecap="butt"/><path d="M344.99889,178.11332c-0.20227,-0.09424 -0.60747,-0.41163 -0.60747,-0.41163l0.78656,-1.72192c0,0 0.15276,0.3665 0.53545,0.54479c0.33937,0.15811 0.64324,0.00436 0.64324,0.00436l-0.79945,1.71592c0,0 -0.37359,-0.04544 -0.55833,-0.13151z" fill="#4c4c4c" stroke-width="0.5" stroke-linecap="butt"/></g></g></g></g><g><g stroke-width="0.5" stroke-linecap="butt"><path d="M363.29907,166.42957c-0.56279,-1.07979 1.28875,-1.99685 3.24201,-3.21403c0.87332,-0.54422 1.86829,-1.24192 2.41919,-1.93106c0.16706,-0.20898 -0.20435,-1.93645 0.26224,-2.29766c0.56365,-0.43635 0.70453,1.68916 0.84013,1.59651c0.89238,-0.60975 1.86582,-1.30496 2.67634,-2.15598c0.46058,-0.48359 -1.1169,-1.21779 -2.00094,-3.48775c-0.64557,-1.65763 -1.07084,-2.53072 -0.96439,-3.32363c0.03689,-0.27477 0.16296,-0.46052 0.17286,-0.18346c0.0487,1.36115 0.67323,2.00693 1.3091,3.2215c0.61074,1.16655 3.27663,2.82062 4.38953,1.38904c0.94843,-1.22002 1.62906,-2.43985 2.24537,-3.49479c0.18243,-0.31227 -0.97368,-3.13202 -0.692,-3.29575c0.49842,-0.28971 0.8955,0.79703 1.25186,1.2944c0.16102,0.22474 0.44617,0.19268 0.49751,0.09706c0.69381,-1.29226 1.09082,-2.04629 1.35127,-1.81445c0.11158,0.09934 0.18914,0.09243 0.09099,0.63377c-0.42792,2.36039 -1.69214,6.46834 -5.11414,10.48315c-0.78406,0.91988 -1.65467,1.69964 -2.53758,2.36051c-0.08908,0.06668 0.142,1.57495 0.84847,2.12861c0.23435,0.18366 0.59485,0.22296 1.02322,0.17308c0.17791,-0.02071 0.4289,-0.62676 0.94228,-1.20762c0.59644,-0.67482 0.7573,-0.92524 1.00012,-1.00511c0.17735,-0.05834 -0.40136,0.79874 -0.60823,1.38312c-0.15417,0.43555 0.74282,0.23268 0.87423,0.18187c1.3469,-0.52083 2.54634,-1.08308 2.46044,-0.60997c-0.1153,0.63508 -2.29951,2.16902 -3.85181,2.75095c-0.95332,0.35739 -2.28351,0.29808 -2.74573,0.1826c-1.84138,-0.46004 -2.18906,-2.52905 -2.30313,-2.47451c-0.52519,0.25111 -0.87364,0.80003 -1.47575,1.07181c-1.18228,0.53364 -4.79589,3.09735 -5.60351,1.54782z" fill="url(#color-26)" stroke="#150c0a"/><path d="M372.50902,159.96874c0.04989,0.0945 -0.04461,0.14439 -0.04461,0.14439l-0.14958,0.07842c-1.01272,0.77357 -2.10815,1.65615 -3.09967,2.53047c-0.92152,0.7371 -1.99622,0.96425 -2.98557,1.50212c0,0 -0.09486,0.04922 -0.14408,-0.04563c-0.04922,-0.09486 0.04563,-0.14407 0.04563,-0.14407c0.99935,-0.50034 2.03901,-0.74575 2.94642,-1.47595c1.01011,-0.8912 2.12046,-1.71702 3.11998,-2.54559l0.16709,-0.08875c0,0 0.0945,-0.04989 0.14439,0.04461z" fill="#2d1b16" stroke="none"/><path d="M378.37932,153.72487c0.10188,0.03227 0.06961,0.13415 0.06961,0.13415l-0.03688,0.11643c-0.20638,0.6516 -0.5378,1.04098 -1.00717,1.52466c0,0 -0.02584,0.02663 -0.06276,0.03328c-0.08549,0.26993 -0.18826,0.59438 -0.26528,0.83756c-0.41761,1.31852 -1.99813,2.17195 -2.88514,3.18415c-0.62178,0.33405 -0.99769,1.09953 -1.42996,1.63108c-0.4241,0.5215 -1.04699,0.85384 -1.44957,1.37095c-0.96933,0.61383 -1.64557,1.32058 -2.81945,1.50804c0,0 -0.10555,0.0167 -0.12225,-0.08885c-0.0167,-0.10555 0.08885,-0.12225 0.08885,-0.12225c1.13069,-0.17705 1.7715,-0.87233 2.70921,-1.4552c0.39079,-0.51111 1.01158,-0.83423 1.42726,-1.34737c0.43616,-0.53842 0.82767,-1.33487 1.46278,-1.66359c0.84394,-0.99781 2.40936,-1.80228 2.81452,-3.08148c0.09219,-0.29108 0.18438,-0.58215 0.27657,-0.87322l0.03688,-0.11643c0,0 0.03227,-0.10188 0.13415,-0.06961c0.0083,0.00263 0.01571,0.00572 0.02232,0.00918c0.39901,-0.41742 0.68235,-0.76779 0.86531,-1.34542l0.03688,-0.11643c0,0 0.03227,-0.10188 0.13415,-0.06961z" fill="#2d1b16" stroke="none"/><path d="M376.36129,156.1664c0.08589,0.06358 0.02232,0.14947 0.02232,0.14947l-0.08358,0.11099c-0.39627,0.29609 -0.69393,0.70162 -1.09539,0.99938c-0.53894,0.28238 -0.9184,0.8196 -1.47745,1.10591c-0.40353,0.20667 -0.98854,0.3692 -1.28735,0.71193c0,0 -0.07442,0.07669 -0.15111,0.00227c-0.07669,-0.07442 -0.00227,-0.15111 -0.00227,-0.15111c0.63438,-0.61296 1.99102,-1.42209 2.80439,-1.84991c0.38693,-0.28875 0.6737,-0.68434 1.05784,-0.96937l0.06313,-0.08723c0,0 0.06358,-0.0859 0.14947,-0.02232z" fill="#2d1b16" stroke="none"/><path d="M370.69259,154.98943c0.03227,-0.10188 0.13415,-0.06961 0.13415,-0.06961l0.18512,0.10371c0.02873,0.09783 0.12026,0.17245 0.20814,0.22416c0.46737,0.65767 2.29792,1.3717 2.03104,2.28154c0,0 -0.03227,0.10188 -0.13415,0.06961c-0.10188,-0.03227 -0.06961,-0.13415 -0.06961,-0.13415c0.2357,-0.67305 -1.61292,-1.53477 -1.97396,-2.06156c-0.11411,-0.07301 -0.21499,-0.18298 -0.26337,-0.30951l-0.04774,0.02995c0,0 -0.10188,-0.03227 -0.06961,-0.13415z" fill="#2d1b16" stroke="none"/><path d="M377.81645,150.53395c0.07442,-0.07668 0.15111,-0.00227 0.15111,-0.00227l0.09237,0.09c0.713,0.52543 1.66009,0.2353 1.27931,1.43755c-0.30259,0.95535 -1.44485,1.86106 -2.27292,2.454c0,0 -0.08694,0.06214 -0.14908,-0.0248c-0.06214,-0.08694 0.0248,-0.14908 0.0248,-0.14908c0.78817,-0.56227 1.9068,-1.43961 2.19346,-2.34466c0.3238,-1.02233 -0.56272,-0.74179 -1.21315,-1.20946l-0.10362,-0.10017c0,0 -0.07669,-0.07442 -0.00227,-0.15111z" fill="#2d1b16" stroke="none"/><path d="M377.93297,151.19935c0.08336,-0.06687 0.15023,0.01649 0.15023,0.01649l0.00403,0.00503c0.2765,0.34805 0.53641,0.65564 0.13867,1.08033c0,0 -0.07442,0.07669 -0.15111,0.00227c-0.07669,-0.07442 -0.00227,-0.15111 -0.00227,-0.15111c0.33159,-0.32469 0.04998,-0.54809 -0.152,-0.79776l-0.00403,-0.00503c0,0 -0.06687,-0.08336 0.01649,-0.15023z" fill="#2d1b16" stroke="none"/><path d="M377.5848,164.47459c-0.03227,0.10188 -0.13415,0.06961 -0.13415,0.06961l-0.04403,-0.01499c-0.03527,-0.00662 -0.07103,-0.01247 -0.10725,-0.01761c0.005,0.01734 0.00531,0.03844 -0.00275,0.06388c-0.02455,0.0775 -0.08938,0.07737 -0.11899,0.07287c-0.79953,1.04599 -2.24464,1.6516 -3.33797,0.59266c-0.5236,-0.74997 -1.3341,-1.71251 -1.99843,-2.35719c0,0 -0.07669,-0.07442 -0.00227,-0.15111c0.07442,-0.07669 0.15111,-0.00227 0.15111,-0.00227c0.66984,0.65001 1.48489,1.61655 2.01237,2.37208c1.00283,0.97573 2.32539,0.33608 3.02976,-0.61614c-0.62802,-0.0325 -1.34803,0.0999 -1.94466,0.19429c0,0 -0.10555,0.0167 -0.12226,-0.08885c-0.0167,-0.10555 0.08885,-0.12225 0.08885,-0.12225c0.7567,-0.11972 1.64551,-0.26958 2.38865,-0.151l0.0724,0.02189c0,0 0.10188,0.03227 0.06961,0.13415z" fill="#2d1b16" stroke="none"/><path d="M373.36319,165.42953c-0.07442,0.07669 -0.15111,0.00227 -0.15111,0.00227l-0.09237,-0.09c-0.73704,-0.53551 -1.06575,-1.27234 -1.58822,-1.92253c0,0 -0.06687,-0.08336 0.01649,-0.15022c0.08336,-0.06687 0.15022,0.01649 0.15022,0.01649c0.51697,0.64567 0.83232,1.36434 1.5591,1.89271l0.10362,0.10017c0,0 0.07669,0.07442 0.00227,0.15111z" fill="#2d1b16" stroke="none"/><path d="M369.27599,159.97018c0.09486,-0.04922 0.14407,0.04563 0.14407,0.04563l0.03978,0.07666c0.10952,0.23225 0.09954,0.48961 -0.06767,0.68445c0,0 -0.07442,0.07669 -0.15112,0.00227c-0.07669,-0.07442 -0.00227,-0.15111 -0.00227,-0.15111c0.10611,-0.08476 0.10265,-0.3183 0.03135,-0.43717l-0.03978,-0.07665c0,0 -0.04922,-0.09486 0.04563,-0.14408z" fill="#2d1b16" stroke="none"/></g><g stroke-width="0.5" stroke-linecap="butt"><path d="M354.65565,154.82191c-1.28255,1.71276 -2.93958,4.16801 -3.94889,4.59799c-0.55889,0.23809 -0.34722,-0.64677 -0.53665,-0.8064c-0.46434,-0.39129 1.07062,-1.49038 2.79461,-3.53609c0.11172,-0.13257 -1.32111,-2.20118 -0.49745,-2.96573c0.1572,-0.14592 0.30669,1.22015 0.68175,1.81535c0.2072,0.32882 0.52111,0.26808 0.57062,0.20196c0.85715,-1.14467 1.53645,-2.26941 2.03232,-3.17958c0.09604,-0.17628 -0.93361,-1.47736 -0.35357,-1.84582c0.15302,-0.0972 0.06493,0.22184 0.32806,0.6212c0.21082,0.31997 0.44288,0.42753 0.46692,0.37939c0.11304,-0.22629 0.20884,-0.42649 0.28725,-0.59506c0.17023,-0.36598 0.39578,-0.00076 0.33407,0.38778c-0.18597,1.17104 -0.86088,3.19141 -2.15903,4.92502z" fill="#35201a" stroke="#150c0a"/><path d="M347.74042,158.17912c-0.33586,-0.56885 -0.93165,-3.73882 -1.21651,-4.24649c-0.06187,-0.11026 -1.49192,1.18752 -3.26239,0.50359c-0.44442,-0.17168 -1.50799,-0.87054 -2.08174,-1.71159c-0.93423,-1.36948 -1.83708,-3.88117 -1.56574,-4.46683c0.20213,-0.43628 0.85918,0.71395 1.66064,1.91523c0.07819,0.1172 0.69483,0.79947 0.81952,0.35458c0.16728,-0.59692 0.18752,-1.63089 0.29895,-1.48109c0.15256,0.2051 0.13993,0.50246 0.23912,1.39762c0.08537,0.7705 -0.05831,1.41053 0.07524,1.5299c0.32155,0.2874 0.63895,0.46281 0.93629,0.44755c0.89639,-0.04599 2.39974,-1.34121 2.36529,-1.44701c-0.74409,-2.28526 -0.64522,-3.83716 -0.28832,-5.75469c0.36029,-1.93577 0.48266,-4.06009 1.50315,-6.26125c0.2314,-0.49913 0.29084,-0.44884 0.43926,-0.46582c0.34643,-0.03964 0.23695,0.80546 0.0603,2.26153c-0.01307,0.10774 0.20163,0.29812 0.46268,0.20705c0.57773,-0.20152 1.52803,-0.8615 1.76878,-0.33768c0.13606,0.29603 -2.43258,1.93606 -2.46319,2.29642c-0.10339,1.2174 -0.24913,2.60665 -0.176,4.15022c0.08581,1.81124 2.70911,2.08678 4.27744,1.17666c0.13934,-0.08086 -0.46123,-1.74927 0.00627,-1.83684c0.19856,-0.03719 0.13262,0.64285 0.30664,1.02942c0.11975,0.26601 0.50287,0.29294 0.55954,0.2557c1.21559,-0.79882 2.69096,-1.80825 2.19967,-0.86456c-0.36944,0.70961 -1.2198,1.17868 -2.70196,2.1624c-2.02966,1.34712 -3.74218,1.03928 -3.64399,1.69985c0.1728,1.16246 0.5685,2.29132 0.94713,3.30363c0.05753,0.15382 1.39639,-1.50302 1.60605,-0.82174c0.17356,0.56397 -1.12463,1.76262 -1.10834,2.02968c0.05371,0.88064 0.46559,2.02392 0.86636,2.97168c0.89636,2.11974 1.88234,3.93551 0.80053,4.49442c-1.55243,0.80204 -3.03121,-3.37457 -3.69069,-4.49154z" fill="url(#color-27)" stroke="#150c0a"/><path d="M347.21041,139.6893c0.10188,0.03227 0.06961,0.13415 0.06961,0.13415l-0.03688,0.11643c-0.22449,0.7088 -0.40476,1.42235 -0.5793,2.13241l0.00282,-0.00893c0,0 0.03218,-0.10191 0.13408,-0.06973c0.10191,0.03218 0.06973,0.13408 0.06973,0.13408l-0.05831,0.18463c-0.085,0.28288 -0.10298,0.53667 -0.13379,0.82842c-0.42072,1.43774 0.36329,2.6069 0.38944,4.00175c0.37602,1.2851 0.52135,2.60322 0.76387,3.90493c-0.11973,1.04676 -0.1519,2.16794 -0.13609,3.2204c0,0 0.0016,0.10686 -0.10525,0.10846c-0.10685,0.0016 -0.10846,-0.10525 -0.10846,-0.10525c-0.00513,-0.34191 -0.0049,-0.69069 0.00178,-1.04165c-0.00882,0.00371 -0.01892,0.00661 -0.03049,0.00844c-0.10555,0.0167 -0.12225,-0.08885 -0.12225,-0.08885l-0.02245,-0.15807c0.09419,-0.31311 -0.24362,-1.47673 -0.38867,-1.75026c-0.17539,-1.10857 -0.47176,-2.21117 -0.55696,-3.33899c0,0 -0.00788,-0.10657 0.09869,-0.11445c0.10657,-0.00788 0.11445,0.09869 0.11445,0.09869c0.08003,1.10957 0.3744,2.19809 0.54684,3.28796c0.10801,0.21239 0.30654,0.86531 0.38316,1.35065c0.02219,-0.49589 0.05858,-0.98989 0.11214,-1.46888c-0.25591,-1.29176 -0.39555,-2.5988 -0.76155,-3.88069c-0.03918,-1.41547 -0.81493,-2.61365 -0.3879,-4.07541c0.01536,-0.15021 0.0285,-0.29108 0.04885,-0.43093c-0.07988,0.3241 -0.16083,0.64698 -0.24654,0.96784c-0.23835,0.86366 -0.27246,1.59571 -0.32643,2.48199c-0.01331,0.21857 -0.05645,0.86716 0.22059,0.80398c0,0 0.10685,-0.0016 0.10846,0.10525c0.0016,0.10685 -0.10525,0.10845 -0.10525,0.10845c-0.97771,-0.0823 -0.27419,-2.92785 -0.10352,-3.5561c0.34042,-1.20836 0.58505,-2.47484 0.97457,-3.70468l0.03688,-0.11643c0,0 0.03227,-0.10188 0.13415,-0.06961z" fill="#2d1b16" stroke="none"/><path d="M349.16857,159.4066c-0.10046,0.03643 -0.13689,-0.06404 -0.13689,-0.06404l-0.05207,-0.14503c-0.08177,-0.50968 -0.23594,-0.94595 -0.42014,-1.42491c-0.59775,-1.21831 -1.10478,-2.48017 -1.71261,-3.67263c-0.18656,-1.1142 -0.50021,-2.12001 -0.51746,-3.26861c0,0 -0.0016,-0.10686 0.10525,-0.10846c0.10685,-0.0016 0.10846,0.10525 0.10846,0.10525c0.01697,1.12946 0.34625,2.10851 0.50678,3.20503c0.62217,1.17341 1.11147,2.44368 1.70543,3.65384c0.18819,0.48792 0.35026,0.93719 0.43125,1.45711l0.04604,0.12554c0,0 0.03643,0.10046 -0.06404,0.13689z" fill="#2d1b16" stroke="none"/><path d="M350.20412,158.91294c-0.10546,0.01729 -0.12275,-0.08816 -0.12275,-0.08816l-0.02191,-0.13483c-0.17512,-0.60425 -0.32798,-1.36291 -0.72626,-1.85923c-0.48683,-0.90966 -1.19001,-2.34014 -1.20703,-3.38049c0,0 -0.0016,-0.10685 0.10525,-0.10846c0.10685,-0.0016 0.10846,0.10525 0.10846,0.10525c0.01356,0.99958 0.7041,2.39103 1.17168,3.26593c0.41351,0.51568 0.57542,1.3018 0.75639,1.92996l0.02434,0.14729c0,0 0.01729,0.10546 -0.08817,0.12274z" fill="#2d1b16" stroke="none"/><path d="M348.62733,141.23884c0.07669,0.07442 0.00227,0.15111 0.00227,0.15111l-0.09593,0.09885c-0.41205,0.39058 -0.98601,0.62395 -1.43133,1.08285c0,0 -0.07442,0.07669 -0.15111,0.00227c-0.07669,-0.07442 -0.00227,-0.15112 -0.00227,-0.15112c0.42636,-0.43936 1.06638,-0.70218 1.43301,-1.08456l0.09425,-0.09713c0,0 0.07442,-0.07668 0.15111,-0.00227z" fill="#2d1b16" stroke="none"/><path d="M346.3941,153.84221c-0.09486,0.04922 -0.14407,-0.04563 -0.14407,-0.04563l-0.01977,-0.0496c-0.55678,-0.54775 -0.62851,-1.44531 -0.40532,-2.14999c0,0 0.03227,-0.10188 0.13415,-0.06961c0.10188,0.03227 0.06961,0.13415 0.06961,0.13415c-0.19934,0.62937 -0.14994,1.44242 0.35126,1.93291l0.05978,0.10371c0,0 0.04922,0.09485 -0.04563,0.14407z" fill="#2d1b16" stroke="none"/><path d="M340.04348,150.13497c0.09486,-0.04922 0.14408,0.04563 0.14408,0.04563l0.07044,0.13875c0.52601,0.51 0.95755,1.11821 1.50866,1.65261c0.84506,0.82624 1.76383,0.6293 2.86126,0.61282c0,0 0.10685,-0.0016 0.10845,0.10525c0.0016,0.10685 -0.10525,0.10846 -0.10525,0.10846c-1.15876,0.01741 -2.11738,0.1996 -3.01359,-0.67342c-0.55638,-0.54244 -0.99882,-1.16126 -1.53101,-1.67815l-0.08866,-0.16786c0,0 -0.04922,-0.09486 0.04563,-0.14408z" fill="#2d1b16" stroke="none"/><path d="M342.16776,151.76779c-0.10188,-0.03227 -0.06961,-0.13415 -0.06961,-0.13415l0.01476,-0.00925c-0.03867,-0.24439 -0.04937,-0.49005 -0.08826,-0.73255c0,0 -0.0167,-0.10554 0.08885,-0.12225c0.10555,-0.0167 0.12225,0.08885 0.12225,0.08885c0.03801,0.24317 0.04954,0.48788 0.08826,0.73255l-0.02211,0.10718c0,0 -0.03227,0.10188 -0.13415,0.06961z" fill="#2d1b16" stroke="none"/><path d="M341.27837,150.84765c-0.07442,0.07669 -0.15111,0.00227 -0.15111,0.00227l-0.09799,-0.09509c-0.37973,-0.37003 -0.63842,-0.85637 -1.02259,-1.22064c0,0 -0.07669,-0.07442 -0.00227,-0.15111c0.07442,-0.07668 0.15111,-0.00227 0.15111,-0.00227c0.37907,0.37452 0.64087,0.8516 1.02259,1.22064l0.09799,0.09509c0,0 0.07669,0.07442 0.00227,0.15112z" fill="#2d1b16" stroke="none"/><path d="M342.02049,152.89015c0.03227,-0.10188 0.13415,-0.06961 0.13415,-0.06961l0.1315,0.10361c0.02216,0.21314 0.23749,0.20567 0.41788,0.26555c0.35896,0.33617 1.5055,0.88009 2.02877,0.8428c0.16741,-0.01193 0.28095,-0.68316 0.32462,-0.82103c0,0 0.03227,-0.10188 0.13415,-0.06961c0.10188,0.03227 0.06961,0.13415 0.06961,0.13415c-0.0891,0.28131 -0.14883,0.89814 -0.49827,0.96809c-0.48933,0.09795 -1.85379,-0.54954 -2.16849,-0.87092c-0.25845,-0.07676 -0.43934,-0.10497 -0.50829,-0.36659l0.004,0.0177c0,0 -0.10188,-0.03227 -0.06961,-0.13415z" fill="#2d1b16" stroke="none"/><path d="M352.28857,148.58206c0.0047,-0.01298 0.03939,-0.0978 0.13357,-0.06797c0.10188,0.03227 0.06961,0.13415 0.06961,0.13415l-0.10361,0.1315c-0.48852,0.05079 -1.04648,0.34955 -1.59098,0.4083c-0.88411,-0.0557 -2.06411,0.00217 -2.35826,0.9309c0,0 -0.03227,0.10188 -0.13415,0.06961c-0.10188,-0.03227 -0.06961,-0.13415 -0.06961,-0.13415c0.32826,-1.03641 1.57531,-1.1396 2.55692,-1.08003c0.54863,-0.06151 0.99108,-0.28403 1.49651,-0.39231z" fill="#2d1b16" stroke="none"/><path d="M353.65543,147.04714c0.10188,0.03227 0.06961,0.13415 0.06961,0.13415l-0.07109,0.1208c-0.27948,0.1419 -0.75904,0.48975 -0.91202,0.74799c0,0 -0.05602,0.09101 -0.14702,0.035c-0.09101,-0.05601 -0.035,-0.14702 -0.035,-0.14702c0.18374,-0.28987 0.67949,-0.65871 0.99559,-0.82567l-0.03422,0.00437c0,0 0.03227,-0.10188 0.13415,-0.06961z" fill="#2d1b16" stroke="none"/><path d="M354.42882,154.56309c0.04922,0.09486 -0.04563,0.14407 -0.04563,0.14407l-0.024,-0.02281c-0.17793,0.54212 -0.77268,0.97002 -1.10008,1.42394c-0.37197,0.36929 -1.82914,1.56436 -1.74027,2.04607c0,0 0.0167,0.10555 -0.08885,0.12225c-0.10555,0.0167 -0.12225,-0.08885 -0.12225,-0.08885c-0.09305,-0.66423 1.33255,-1.73376 1.78783,-2.21706c0.30212,-0.41275 0.9098,-0.85311 1.05987,-1.35089l0.12931,-0.10236c0,0 0.09486,-0.04922 0.14407,0.04563z" fill="#2d1b16" stroke="none"/><path d="M355.71117,151.47747c0.10188,0.03227 0.06961,0.13415 0.06961,0.13415l-0.01844,0.05822c-0.28399,0.89665 -0.62058,1.48498 -1.16046,2.23008c-0.58679,0.80736 -1.2971,1.73034 -2.00086,2.45557c0,0 -0.07442,0.07669 -0.15111,0.00227c-0.07669,-0.07442 -0.00227,-0.15111 -0.00227,-0.15111c0.69512,-0.71632 1.39961,-1.63195 1.98135,-2.43238c0.5295,-0.7265 0.85178,-1.29181 1.1296,-2.16896l0.01844,-0.05822c0,0 0.03227,-0.10188 0.13415,-0.06961z" fill="#2d1b16" stroke="none"/><path d="M352.55776,152.68938c0.09485,-0.04922 0.14408,0.04563 0.14408,0.04563l0.05047,0.10917c0.07361,0.46524 0.42157,1.28554 0.3106,1.68581c0,0 -0.03227,0.10188 -0.13415,0.06961c-0.10188,-0.03227 -0.06961,-0.13415 -0.06961,-0.13415c0.10968,-0.28804 -0.25679,-1.20132 -0.31795,-1.58788l-0.02908,-0.04413c0,0 -0.04922,-0.09486 0.04563,-0.14407z" fill="#2d1b16" stroke="none"/><path d="M356.37112,150.09088c0.10685,-0.0016 0.10846,0.10525 0.10846,0.10525l0.00178,0.21022c-0.18205,0.58884 -0.3709,1.17561 -0.557,1.76318c0,0 -0.03227,0.10188 -0.13415,0.06961c-0.10188,-0.03227 -0.06961,-0.13415 -0.06961,-0.13415c0.18265,-0.57668 0.36186,-1.15457 0.54929,-1.72971l-0.00402,-0.17595c0,0 -0.0016,-0.10685 0.10525,-0.10845z" fill="#2d1b16" stroke="none"/></g><g stroke-linecap="butt"><path d="M343.68807,156.62201c0.81819,-0.72221 4.62189,1.27615 6.19417,3.50006c1.57228,2.22391 1.03391,3.86861 -0.36523,4.8578c-1.39914,0.98919 -3.12924,0.94826 -4.70152,-1.27564c-0.94491,-1.33652 -1.37688,-3.43418 -1.44159,-5.0098c-0.00794,-0.19321 -0.47562,0.14664 -0.47278,-0.02851c0.00323,-0.19924 0.47853,-0.91046 0.49497,-1.07977c0.01728,-0.17806 -0.427,-0.03769 -0.39602,-0.17475c0.0539,-0.23838 0.59647,-0.70857 0.68801,-0.78937z" fill="#724538" stroke="#291814" stroke-width="1"/><path d="M344.90133,158.36532c0,0 3.04,0.83937 4.07415,2.30212c1.03415,1.46275 0.68005,2.54454 -0.24023,3.19517c-0.92028,0.65063 -2.05823,0.62371 -3.09238,-0.83904c-1.03415,-1.46275 -0.74155,-4.65825 -0.74155,-4.65825z" fill="url(#color-28)" stroke="#b76e59" stroke-width="0.5"/></g><path d="M363.67858,177.72462c-1.41851,4.47865 0.56471,8.35286 -12.10124,4.3726c-12.42092,-3.90326 -8.69264,-6.38936 -7.27413,-10.868c1.41851,-4.47865 3.91332,-10.59812 13.2669,-7.7698c8.78054,2.65504 7.52698,9.78657 6.10847,14.26521z" fill="#3c231d" stroke="#291814" stroke-width="1" stroke-linecap="butt"/><g stroke="#292929" stroke-width="0.5"><path d="M358.72836,177.46475c-0.23843,-0.01369 -0.64378,-1.05316 -0.64378,-1.05316l0.48835,-8.50255c0,0 0.53088,-1.14614 0.76931,-1.13245c0.21185,0.01217 0.59095,1.21057 0.59095,1.21057l-0.48834,8.50255c0,0 -0.50464,0.9872 -0.71649,0.97503z" fill="#686868" stroke-linecap="butt"/><path d="M358.2071,176.37515l1.21593,0.1768" fill="none" stroke-linecap="round"/><path d="M358.74904,167.95591l1.10567,0.06351" fill="none" stroke-linecap="round"/><path d="M359.61283,172.23072l-1.17613,-0.8698" fill="none" stroke-linecap="round"/><path d="M359.22687,169.8018c0.09642,0.00554 0.17116,0.06969 0.16693,0.1433c-0.00422,0.0736 -0.08582,0.12878 -0.18224,0.12324c-0.09642,-0.00554 -0.17115,-0.0697 -0.16693,-0.14329c0.00422,-0.0736 0.08582,-0.12878 0.18223,-0.12324z" fill="#686868" stroke-linecap="butt"/><path d="M358.92681,174.00974c0.09642,0.00554 0.17115,0.0697 0.16693,0.14329c-0.00422,0.0736 -0.08582,0.12878 -0.18224,0.12324c-0.09642,-0.00554 -0.17115,-0.06969 -0.16693,-0.14329c0.00422,-0.0736 0.08582,-0.12878 0.18224,-0.12325z" fill="#686868" stroke-linecap="butt"/></g><g stroke-linecap="butt"><path d="M359.84306,168.83329c1.63599,0.55114 2.53663,2.577 1.86094,4.80786c-0.66935,2.31734 -2.34585,2.74207 -3.87877,2.24035c-2.03812,-0.66707 -1.87084,-2.27766 -1.25979,-4.20692c0.61105,-1.92926 1.69868,-3.37715 3.27762,-2.8413z" fill="#e4e4e4" stroke="#575757" stroke-width="0.5"/><g stroke="none" stroke-width="0"><path d="M359.16826,172.75775c-0.26316,0.83088 -0.90113,1.36996 -1.42495,1.20405c-0.52382,-0.16591 -0.73512,-0.97396 -0.47196,-1.80485c0.26316,-0.83088 0.90114,-1.36997 1.42496,-1.20406c0.52382,0.16591 0.73511,0.97397 0.47195,1.80486z" fill="#000000"/><path d="M356.95865,172.69607l0.33728,-1.06489l0.64967,0.89383z" fill="#e4e4e4"/></g><path d="M357.36704,169.47049c0.14766,-0.46619 1.43658,-1.14636 2.48149,-0.81541c1.04491,0.33095 2.31527,1.63488 2.16761,2.10108c-0.14766,0.46619 -0.2212,-1.11095 -2.22771,-1.70909c-1.66485,-0.4963 -2.56905,0.88962 -2.42139,0.42343z" fill="#523128" stroke="#291814" stroke-width="0.5"/><path d="M355.87801,173.85581c0.14766,-0.46619 0.20487,1.34167 1.94355,1.92336c2.09549,0.70106 3.1888,-0.5919 3.04114,-0.12571c-0.14766,0.46619 -2.03211,0.77092 -3.13487,0.42164c-1.10276,-0.34927 -1.99748,-1.75309 -1.84983,-2.21928z" fill="#523128" stroke="#291814" stroke-width="0.5"/></g><g stroke-linecap="butt"><path d="M367.65596,171.1626c-2.56589,0.91323 -4.00408,-0.04933 -4.57863,-1.66363c-0.57455,-1.61431 -0.06789,-3.26905 2.49801,-4.18229c2.56589,-0.91323 6.77448,-0.06625 7.07971,0.70414c0.21228,0.53579 -0.95204,2.25169 -2.51531,3.60054c-0.15275,0.1318 -0.51534,0.78 -0.72736,0.94551c-0.19097,0.14908 -0.23137,-0.18315 -0.37903,-0.08113c-0.25716,0.17767 -0.57719,0.99425 -0.84104,1.1356c-0.26441,0.14166 -0.27228,-0.55273 -0.53634,-0.45875z" fill="#724538" stroke="#291814" stroke-width="1"/><path d="M367.37125,170.12971c-1.68769,0.60067 -2.63365,-0.03244 -3.01155,-1.09424c-0.3779,-1.0618 -0.04465,-2.15019 1.64304,-2.75086c1.68769,-0.60067 4.65661,0.46314 4.65661,0.46314c0,0 -1.6004,2.78129 -3.2881,3.38196z" fill="url(#color-29)" stroke="#b76e59" stroke-width="0.5"/></g><g stroke="#292929" stroke-width="0.5"><path d="M348.03036,172.73989l4.49563,-7.23334c0,0 0.99991,-0.76164 1.18013,-0.64963c0.20284,0.12607 -0.02292,1.36885 -0.02292,1.36885l-4.49563,7.23334c0,0 -0.92987,0.61657 -1.1327,0.4905c-0.18022,-0.11201 -0.02451,-1.20973 -0.02451,-1.20973z" fill="#686868" stroke-linecap="butt"/><path d="M349.10837,173.35884l-1.09601,-0.55545" fill="none" stroke-linecap="round"/><path d="M352.57159,165.57815l0.94062,0.58461" fill="none" stroke-linecap="round"/><path d="M351.80733,169.1267l-1.46242,0.0341" fill="none" stroke-linecap="round"/><path d="M352.13685,167.60264c-0.03891,0.06261 -0.13696,0.07205 -0.21898,0.02107c-0.08203,-0.05098 -0.11698,-0.14307 -0.07806,-0.20568c0.03891,-0.06261 0.13696,-0.07205 0.21899,-0.02107c0.08203,0.05098 0.11697,0.14307 0.07805,0.20569z" fill="#686868" stroke-linecap="butt"/><path d="M349.95971,171.21607c-0.03891,0.06261 -0.13696,0.07205 -0.21898,0.02107c-0.08203,-0.05098 -0.11697,-0.14306 -0.07806,-0.20568c0.03891,-0.06261 0.13696,-0.07205 0.21898,-0.02107c0.08203,0.05098 0.11697,0.14307 0.07805,0.20569z" fill="#686868" stroke-linecap="butt"/></g><g stroke-linecap="butt"><path d="M353.21996,170.70467c-0.61105,1.92926 -1.40148,3.34248 -3.45201,2.71456c-1.54225,-0.47228 -2.66854,-1.78473 -1.88174,-4.06486c0.73183,-2.21307 2.63454,-3.35105 4.28951,-2.85985c1.59952,0.47085 1.65529,2.28089 1.04424,4.21015z" fill="#e4e4e4" stroke="#575757" stroke-width="0.5"/><g stroke="none" stroke-width="0"><path d="M352.49409,170.73353c-0.26316,0.83088 -0.90113,1.36996 -1.42495,1.20405c-0.52382,-0.16591 -0.73512,-0.97396 -0.47196,-1.80485c0.26316,-0.83088 0.90114,-1.36997 1.42496,-1.20406c0.52382,0.16591 0.73511,0.97397 0.47195,1.80486z" fill="#000000"/><path d="M350.28448,170.67186l0.33728,-1.06489l0.64967,0.89383z" fill="#e4e4e4"/></g><path d="M353.83344,168.44098c-0.14766,0.46619 -0.08911,-1.18756 -1.7361,-1.74022c-1.98499,-0.66607 -2.95309,0.58115 -2.80543,0.11496c0.14766,-0.46619 1.93705,-0.80102 2.98196,-0.47007c1.04491,0.33095 1.70724,1.62914 1.55959,2.09533z" fill="#523128" stroke="#291814" stroke-width="0.5"/><path d="M349.73615,173.63358c-1.10276,-0.34927 -2.46817,-1.68331 -2.32052,-2.14951c0.14766,-0.46619 0.29724,1.22044 2.41424,1.85358c1.75653,0.52534 2.8441,-0.91994 2.69645,-0.45375c-0.14766,0.46619 -1.68741,1.09894 -2.79017,0.74967z" fill="#523128" stroke="#291814" stroke-width="0.5"/></g><path d="M345.30596,173.2506l3.06583,-9.67973l7.5388,2.38774l-3.06583,9.67973z" fill="url(#color-30)" stroke="none" stroke-width="NaN" stroke-linecap="butt"/><path d="M354.15057,175.96492l3.06583,-9.67973l7.5388,2.38774l-3.06583,9.67973z" fill="url(#color-31)" stroke="none" stroke-width="NaN" stroke-linecap="butt"/><path d="M364.15902,179.1739c-0.08258,0.2998 -0.00856,1.54223 -0.12084,2.54824c-0.11229,1.006 -0.55531,2.24966 -0.55531,2.24966c0,0 -1.22009,0.44518 -3.27677,0.42585c-2.43956,-0.02292 -5.93324,-0.55617 -9.10819,-1.51814c-2.54821,-0.77208 -4.88609,-1.74354 -6.61219,-2.79472c-2.40399,-1.464 -3.60187,-2.89588 -3.60187,-2.89588c0,0 0.44468,-1.53856 0.89032,-2.45521c0.44563,-0.91665 1.16373,-1.81153 1.31116,-2.23441c0.21961,-0.62991 0.44037,-1.27135 0.67149,-1.91141c0.07998,-0.22149 -0.52933,0.08577 -0.44648,-0.13486c0.11174,-0.29757 0.91697,-1.12246 1.03557,-1.41616c0.1211,-0.29992 -0.49068,-0.15796 -0.36046,-0.45107c0.06786,-0.15273 0.87403,-0.74352 0.94477,-0.89383c1.99985,-4.24896 5.21016,-7.44823 12.82357,-5.1192c10.32809,3.16843 8.11543,10.3926 6.40524,16.60112zM349.81827,174.12791c2.688,0.72747 3.38608,-0.78115 3.88505,-2.35655c0.3186,-1.0059 1.41051,-3.84933 0.96023,-5.04167c-0.25493,-0.67506 -0.76905,-1.23917 -1.6963,-1.53286c-2.8257,-0.89498 -5.1461,1.28205 -6.04107,4.10775c-0.49897,1.5754 -0.10151,4.01315 2.89209,4.82333zM357.61259,176.39159c3.12876,1.05502 4.69666,-0.79842 5.19563,-2.37383c0.66514,-2.10004 0.16959,-5.57303 -2.29657,-6.54531c-2.06744,-0.81895 -3.36148,0.61096 -3.86381,1.75189c-0.66128,1.50193 -1.41307,3.50323 -1.19948,5.24372c0.11245,0.91636 1.17672,1.59054 2.16423,1.92352z" fill="#724538" stroke="#291814" stroke-width="1" stroke-linecap="butt"/><path d="M355.42846,174.47979c-0.21359,-1.74049 0.54171,-3.76977 1.20299,-5.27171c0.50233,-1.14092 1.81764,-2.57714 3.88508,-1.75819c2.46616,0.97227 2.9767,4.47958 2.31156,6.57962c-0.49897,1.57541 -2.09605,3.43822 -5.22482,2.3832c-0.98751,-0.33299 -2.06236,-1.01657 -2.17481,-1.93293z" data-paper-data="{&quot;noHover&quot;:false,&quot;origItem&quot;:[&quot;Path&quot;,{&quot;applyMatrix&quot;:true,&quot;segments&quot;:[[[525.17652,197.46008],[-2.25668,-0.04174],[7.14993,0.13225]],[[534.35166,189.16111],[0,3.57907],[0,-4.77096]],[[525.32958,177.14876],[5.72774,0.39472],[-4.80422,-0.3389]],[[518.49756,183.29265],[0.29106,-2.68418],[-0.38316,3.53351]],[[519.45011,194.90385],[-1.57919,-3.45394],[0.83144,1.81849]]],&quot;closed&quot;:true,&quot;fillColor&quot;:[0,0,0,1]}]}" fill="#000000" stroke="none" stroke-width="0.5" stroke-linecap="butt"/><path d="M349.81413,174.15062c-2.9936,-0.81018 -3.40999,-3.27146 -2.91102,-4.84686c0.89498,-2.82571 3.24943,-5.02222 6.07513,-4.12724c0.92726,0.29369 1.44949,0.86514 1.70442,1.5402c0.45028,1.19234 -0.64245,4.06282 -0.96104,5.06872c-0.49897,1.5754 -1.21948,3.09265 -3.90748,2.36518z" data-paper-data="{&quot;noHover&quot;:false,&quot;origItem&quot;:[&quot;Path&quot;,{&quot;applyMatrix&quot;:true,&quot;segments&quot;:[[[507.60313,197.88331],[0,0],[6.02569,-0.2558]],[[514.08359,190.47706],[0,3.57906],[0,-2.28524]],[[512.76919,179.4395],[1.70942,2.16738],[-0.96781,-1.22709]],[[508.26439,177.38388],[2.10658,0],[-6.41954,0]],[[498.47756,189.81579],[0,-6.41955],[0,3.57906]],[[507.60312,197.88331],[-6.71075,0.28488],[0,0]]],&quot;closed&quot;:true,&quot;fillColor&quot;:[0,0,0,1]}]}" fill="#000000" stroke="none" stroke-width="0.5" stroke-linecap="butt"/><path d="M358.1276,184.15602c-0.85491,0.16142 -3.6056,0.27742 -7.29852,-0.8536c-4.86665,-1.50114 -6.07757,-3.09546 -6.07757,-3.09546c0,0 0.39878,-4.01658 2.35988,-5.17598c1.59584,-0.94346 4.47827,-0.11411 6.00011,0.2989c1.57469,0.42736 5.41513,1.67972 6.01391,3.67241c0.71997,2.39599 -0.99781,5.15374 -0.99781,5.15374z" fill="url(#color-32)" stroke="#291814" stroke-width="1" stroke-linecap="butt"/><path d="M349.61468,178.2896c-0.21028,0.66392 -0.84599,1.05478 -1.41988,0.87301c-0.5739,-0.18177 -0.86867,-0.86733 -0.65838,-1.53125c0.21028,-0.66392 0.84598,-1.05478 1.41988,-0.87301c0.5739,0.18177 0.86867,0.86733 0.65838,1.53125z" fill="url(#color-33)" stroke="none" stroke-width="0" stroke-linecap="butt"/><path d="M350.64781,176.86812c-0.09623,0.30383 -0.54825,0.43167 -1.00962,0.28554c-0.46137,-0.14613 -0.75737,-0.51089 -0.66114,-0.81471c0.09623,-0.30383 0.54825,-0.43167 1.00962,-0.28554c0.46137,0.14613 0.75737,0.51089 0.66114,0.81471z" fill="url(#color-34)" stroke="none" stroke-width="0" stroke-linecap="butt"/><path d="M348.69514,177.37061c-0.11762,0.37135 -0.54136,0.56837 -0.94647,0.44006c-0.40511,-0.12831 -0.63816,-0.53335 -0.52055,-0.9047c0.11762,-0.37135 0.54136,-0.56837 0.94647,-0.44006c0.40511,0.12831 0.63816,0.53335 0.52055,0.9047z" fill="url(#color-35)" stroke="none" stroke-width="0" stroke-linecap="butt"/><path d="M349.70577,177.15266c-0.139,0.43886 -0.58921,0.68772 -1.00556,0.55586c-0.41636,-0.13187 -0.6412,-0.59454 -0.5022,-1.0334c0.139,-0.43886 0.58921,-0.68772 1.00556,-0.55586c0.41636,0.13187 0.6412,0.59454 0.5022,1.0334z" fill="url(#color-36)" stroke="none" stroke-width="0" stroke-linecap="butt"/><path d="M350.56689,178.68087c-0.04633,0.14629 -0.18424,0.2331 -0.30802,0.19389c-0.12379,-0.03921 -0.18657,-0.18958 -0.14023,-0.33586c0.04633,-0.14629 0.18424,-0.2331 0.30802,-0.19389c0.12379,0.03921 0.18657,0.18958 0.14023,0.33586z" fill="url(#color-37)" stroke="none" stroke-width="0" stroke-linecap="butt"/><path d="M347.7354,178.27727c-0.01069,0.03376 -0.05585,0.04957 -0.10086,0.03531c-0.04501,-0.01426 -0.07283,-0.05318 -0.06214,-0.08694c0.01069,-0.03376 0.05585,-0.04957 0.10086,-0.03531c0.04501,0.01426 0.07283,0.05318 0.06214,0.08694z" fill="url(#color-38)" stroke="none" stroke-width="0" stroke-linecap="butt"/><path d="M347.70088,175.9796c-0.01069,0.03376 -0.06497,0.04668 -0.12124,0.02886c-0.05626,-0.01782 -0.09321,-0.05964 -0.08252,-0.09339c0.01069,-0.03376 0.06497,-0.04668 0.12124,-0.02886c0.05626,0.01782 0.09321,0.05964 0.08252,0.09339z" fill="url(#color-39)" stroke="none" stroke-width="0" stroke-linecap="butt"/><path d="M360.78357,177.99342c-0.0499,0.15754 -0.29104,0.22169 -0.5386,0.14328c-0.24756,-0.07841 -0.4078,-0.26969 -0.35791,-0.42723c0.0499,-0.15754 0.29104,-0.22169 0.5386,-0.14328c0.24756,0.07841 0.4078,0.26969 0.35791,0.42723z" fill="url(#color-40)" stroke="none" stroke-width="0" stroke-linecap="butt"/><path d="M362.25356,180.00593c-0.01782,0.05626 -0.05964,0.09321 -0.09339,0.08252c-0.03376,-0.01069 -0.04668,-0.06497 -0.02886,-0.12124c0.01782,-0.05626 0.05963,-0.09321 0.09339,-0.08252c0.03376,0.01069 0.04668,0.06497 0.02886,0.12124z" fill="url(#color-41)" stroke="none" stroke-width="0" stroke-linecap="butt"/><path d="M362.60182,176.64127c-0.0499,0.15754 -0.14508,0.26792 -0.2126,0.24653c-0.06751,-0.02138 -0.0818,-0.16643 -0.0319,-0.32397c0.0499,-0.15754 0.14508,-0.26792 0.2126,-0.24653c0.06751,0.02138 0.0818,0.16643 0.0319,0.32397z" fill="url(#color-42)" stroke="none" stroke-width="0" stroke-linecap="butt"/><path d="M357.2205,164.88564c-0.14652,0.46262 -0.71128,0.69639 -1.26142,0.52215c-0.55014,-0.17424 -0.87734,-0.69052 -0.73081,-1.15314c0.14652,-0.46262 0.71128,-0.69639 1.26142,-0.52215c0.55014,0.17424 0.87734,0.69052 0.73081,1.15314z" fill="url(#color-43)" stroke="none" stroke-width="0" stroke-linecap="butt"/><path d="M355.7478,164.34447c-0.1188,0.37509 -0.50905,0.58607 -0.87164,0.47123c-0.36259,-0.11484 -0.56022,-0.51202 -0.44142,-0.88711c0.1188,-0.37509 0.50905,-0.58607 0.87164,-0.47123c0.36259,0.11484 0.56022,0.51202 0.44142,0.88711z" fill="url(#color-44)" stroke="none" stroke-width="0" stroke-linecap="butt"/><path d="M355.03279,164.24255c-0.12276,0.3876 -0.58717,0.58624 -1.03729,0.44368c-0.45012,-0.14256 -0.71549,-0.57235 -0.59272,-0.95995c0.12276,-0.3876 0.58717,-0.58624 1.03729,-0.44368c0.45012,0.14256 0.71549,0.57234 0.59272,0.95994z" fill="url(#color-45)" stroke="none" stroke-width="0" stroke-linecap="butt"/><path d="M356.2285,165.34366c-0.11088,0.35009 -0.41362,0.56648 -0.67619,0.48331c-0.26257,-0.08316 -0.38553,-0.43438 -0.27465,-0.78447c0.11088,-0.35009 0.41362,-0.56648 0.67619,-0.48331c0.26257,0.08316 0.38553,0.43438 0.27465,0.78447z" fill="url(#color-46)" stroke="none" stroke-width="0" stroke-linecap="butt"/><path d="M354.81051,164.94436c-0.06336,0.20005 -0.25663,0.31728 -0.43167,0.26184c-0.17504,-0.05544 -0.26558,-0.26255 -0.20222,-0.46261c0.06336,-0.20005 0.25663,-0.31728 0.43167,-0.26184c0.17504,0.05544 0.26558,0.26256 0.20222,0.46261z" fill="url(#color-47)" stroke="none" stroke-width="0" stroke-linecap="butt"/><path d="M357.61408,164.58682c-0.05544,0.17504 -0.24229,0.272 -0.41733,0.21656c-0.17504,-0.05544 -0.272,-0.24229 -0.21656,-0.41733c0.05544,-0.17504 0.24229,-0.272 0.41733,-0.21656c0.17504,0.05544 0.272,0.24229 0.21656,0.41733z" fill="url(#color-48)" stroke="none" stroke-width="0" stroke-linecap="butt"/><path d="M355.70065,163.70678c-0.0594,0.18754 -0.22918,0.30106 -0.37922,0.25354c-0.15004,-0.04752 -0.22352,-0.23808 -0.16411,-0.42563c0.0594,-0.18754 0.22919,-0.30107 0.37923,-0.25354c0.15004,0.04752 0.22351,0.23808 0.16411,0.42563z" fill="url(#color-49)" stroke="none" stroke-width="0" stroke-linecap="butt"/><path d="M356.98123,165.95571c-0.02772,0.08752 -0.13128,0.13279 -0.23131,0.10111c-0.10002,-0.03168 -0.15864,-0.12832 -0.13092,-0.21584c0.02772,-0.08752 0.13128,-0.13279 0.2313,-0.10111c0.10002,0.03168 0.15864,0.12832 0.13092,0.21584z" fill="url(#color-50)" stroke="none" stroke-width="0" stroke-linecap="butt"/><path d="M358.20414,165.86976c-0.02376,0.07502 -0.0937,0.11978 -0.15622,0.09999c-0.06251,-0.0198 -0.09393,-0.09667 -0.07017,-0.17169c0.02376,-0.07502 0.0937,-0.11978 0.15622,-0.09999c0.06251,0.0198 0.09393,0.09667 0.07017,0.17169z" fill="url(#color-51)" stroke="none" stroke-width="0" stroke-linecap="butt"/><path d="M352.43797,162.99723c-0.00792,0.02501 -0.06502,0.02922 -0.12753,0.00942c-0.06251,-0.0198 -0.10677,-0.05613 -0.09885,-0.08113c0.00792,-0.02501 0.06502,-0.02922 0.12753,-0.00942c0.06251,0.0198 0.10677,0.05613 0.09885,0.08113z" fill="url(#color-52)" stroke="none" stroke-width="0" stroke-linecap="butt"/><path d="M345.98877,170.14641c-0.13068,0.4126 -0.5103,0.66041 -0.84788,0.55349c-0.33759,-0.10692 -0.50531,-0.52809 -0.37463,-0.94069c0.13068,-0.4126 0.51029,-0.66041 0.84788,-0.55349c0.33759,0.10692 0.50531,0.52808 0.37463,0.94069z" fill="url(#color-53)" stroke="none" stroke-width="0" stroke-linecap="butt"/><path d="M346.25671,168.98579c-0.099,0.31258 -0.44279,0.48251 -0.76787,0.37954c-0.32508,-0.10296 -0.50835,-0.43983 -0.40935,-0.7524c0.099,-0.31258 0.44279,-0.48251 0.76787,-0.37955c0.32508,0.10296 0.50836,0.43983 0.40936,0.75241z" fill="url(#color-54)" stroke="none" stroke-width="0" stroke-linecap="butt"/><path d="M345.41488,169.44153c-0.10296,0.32508 -0.39928,0.5212 -0.66185,0.43804c-0.26257,-0.08316 -0.39195,-0.41411 -0.28899,-0.73919c0.10296,-0.32508 0.39928,-0.5212 0.66185,-0.43804c0.26257,0.08316 0.39195,0.41411 0.28899,0.73919z" fill="url(#color-55)" stroke="none" stroke-width="0" stroke-linecap="butt"/><path d="M345.13748,170.47463c-0.08316,0.26257 -0.37357,0.40479 -0.64864,0.31767c-0.27507,-0.08712 -0.43064,-0.3706 -0.34748,-0.63317c0.08316,-0.26257 0.37357,-0.40479 0.64864,-0.31767c0.27507,0.08712 0.43064,0.3706 0.34748,0.63317z" fill="url(#color-56)" stroke="none" stroke-width="0" stroke-linecap="butt"/><path d="M345.33228,168.44389c-0.0198,0.06251 -0.1068,0.09072 -0.19433,0.063c-0.08752,-0.02772 -0.14242,-0.10087 -0.12262,-0.16338c0.0198,-0.06251 0.10681,-0.09072 0.19433,-0.063c0.08752,0.02772 0.14242,0.10087 0.12262,0.16339z" fill="url(#color-57)" stroke="none" stroke-width="0" stroke-linecap="butt"/><path d="M346.3559,170.08831c-0.04752,0.15004 -0.17727,0.24278 -0.2898,0.20714c-0.11253,-0.03564 -0.16523,-0.18617 -0.11771,-0.3362c0.04752,-0.15004 0.17727,-0.24277 0.28979,-0.20713c0.11253,0.03564 0.16523,0.18616 0.11771,0.3362z" fill="url(#color-58)" stroke="none" stroke-width="0" stroke-linecap="butt"/><path d="M342.53583,177.27312c-0.099,0.31258 -0.48334,0.46967 -0.85843,0.35087c-0.3751,-0.1188 -0.59891,-0.46851 -0.49991,-0.78109c0.099,-0.31258 0.48334,-0.46967 0.85843,-0.35087c0.3751,0.1188 0.59891,0.46851 0.49991,0.78109z" fill="url(#color-59)" stroke="none" stroke-width="0" stroke-linecap="butt"/><path d="M342.50798,176.41735c-0.08316,0.26257 -0.33302,0.41763 -0.55808,0.34635c-0.22506,-0.07128 -0.34009,-0.34192 -0.25693,-0.60448c0.08316,-0.26257 0.33302,-0.41763 0.55808,-0.34635c0.22506,0.07128 0.34009,0.34192 0.25693,0.60448z" fill="url(#color-60)" stroke="none" stroke-width="0" stroke-linecap="butt"/><path d="M349.8108,165.30097c0,0 0.00997,-0.33707 0.0628,-0.54425c0.05283,-0.20719 0.24765,-0.67333 0.24765,-0.67333c0,0 0.05054,0.41154 0.1409,0.6582c0.09036,0.24666 0.20189,0.27751 0.20189,0.27751z" fill="#000000" stroke="none" stroke-width="0" stroke-linecap="butt"/><path d="M349.22113,165.62335c0,0 -0.01637,-0.33682 0.02011,-0.5475c0.03649,-0.21067 0.19432,-0.69061 0.19432,-0.69061c0,0 0.08252,0.40634 0.19186,0.64519c0.10934,0.23885 0.22294,0.26091 0.22294,0.26091z" fill="#000000" stroke="none" stroke-width="0" stroke-linecap="butt"/><path d="M348.69313,166.05476c0,0 -0.08714,-0.32577 -0.09596,-0.5394c-0.00883,-0.21363 0.04409,-0.71607 0.04409,-0.71607c0,0 0.16647,0.37975 0.32379,0.59012c0.15732,0.21037 0.27301,0.20793 0.27301,0.20793z" fill="#000000" stroke="none" stroke-width="0" stroke-linecap="butt"/><g fill="#000000" stroke="none" stroke-width="0" stroke-linecap="butt"><path d="M362.16341,168.47884c0,0 0.10896,0.03897 0.32485,-0.11069c0.21589,-0.14966 0.49414,-0.45707 0.49414,-0.45707c0,0 -0.10906,0.49331 -0.18514,0.69312c-0.07608,0.19982 -0.26198,0.48117 -0.26198,0.48117z"/><path d="M362.50847,169.05474c0,0 0.10558,0.04736 0.33249,-0.08498c0.22691,-0.13235 0.52831,-0.41709 0.52831,-0.41709c0,0 -0.14724,0.48328 -0.23869,0.67656c-0.09145,0.19326 -0.29875,0.45925 -0.29875,0.45925z"/><path d="M362.83298,169.65746c0,0 0.0932,0.06859 0.34294,-0.01285c0.24975,-0.08144 0.60448,-0.29611 0.60448,-0.29611c0,0 -0.24599,0.44129 -0.3762,0.61088c-0.1302,0.16959 -0.389,0.3858 -0.389,0.3858z"/></g><path d="M344.69479,175.58636l-0.68822,0.05841c0,0 0.44048,-0.68654 0.43203,-0.76649c-0.01791,-0.1693 -0.62418,0.06419 -0.62418,0.06419c0,0 0.50797,-0.47415 0.51469,-0.63157c0.00846,-0.1981 -0.33932,-0.13082 -0.33932,-0.13082l0.40237,-0.33163" fill="none" stroke="#543129" stroke-width="0.5" stroke-linecap="round"/><path d="M358.97922,163.92819l0.13808,0.50281c0,0 -0.24562,-0.25523 -0.35276,-0.08838c-0.08513,0.13258 0.05724,0.81272 0.05724,0.81272c0,0 -0.36131,-0.53995 -0.47342,-0.41183c-0.05294,0.0605 -0.08802,0.87544 -0.08802,0.87544l-0.52911,-0.44397" fill="none" stroke="#291814" stroke-width="0.5" stroke-linecap="round"/><path d="M352.6861,178.41195l-1.34599,4.24967" fill="none" stroke="#4c2c25" stroke-width="1" stroke-linecap="round"/><g stroke="#000000" stroke-width="0.75"><path d="M366.36995,166.35156c-0.45407,1.43364 -4.65537,1.38176 -9.38387,-0.11589c-4.72849,-1.49764 -8.19361,-3.87392 -7.73954,-5.30756c0.45407,-1.43364 4.65538,-1.38176 9.38388,0.11589c4.72849,1.49764 8.1936,3.87392 7.73953,5.30756z" fill="#090909" stroke-linecap="butt"/><path d="M366.24294,166.27794c0,0 -3.74765,1.24896 -9.43687,-0.6895c-5.77667,-1.96826 -7.56307,-4.56121 -7.56307,-4.56121" fill="none" stroke-linecap="round"/><path d="M352.98562,160.49175c0.37646,-0.98417 1.09539,-2.89149 1.45964,-4.04155c0.40092,-1.26581 1.00394,-3.58411 1.2625,-4.593c0.07046,-0.27494 0.25918,-0.44822 0.52976,-0.36252c0.48204,0.15268 2.51303,0.43724 4.56819,1.08817c2.16007,0.68415 4.35766,1.73889 5.26866,2.02743c0.28451,0.09011 0.30696,0.35993 0.19266,0.63561c-0.37504,0.90456 -1.15038,2.81007 -1.52003,3.97719c-0.39425,1.24475 -0.95325,3.55437 -1.21375,4.65591c-0.093,0.39324 -0.23032,0.67107 -0.62553,0.75532c-0.82461,0.1758 -2.73096,0.34157 -5.89229,-0.6888c-2.57489,-0.83925 -3.64642,-1.90769 -4.05198,-2.45838c-0.16642,-0.22598 0.02216,-0.99537 0.02216,-0.99537z" fill="url(#color-61)" stroke-linecap="butt"/></g><path d="M364.55563,172.40101l0.32493,0.4078c0,0 -0.32628,-0.13788 -0.35906,0.05768c-0.02604,0.15538 0.37266,0.72449 0.37266,0.72449c0,0 -0.54474,-0.35404 -0.59734,-0.19212c-0.02484,0.07646 0.26385,0.83936 0.26385,0.83936l-0.66119,-0.19973" fill="none" stroke="#543129" stroke-width="0.5" stroke-linecap="round"/><g stroke-linecap="butt"><path d="M355.58924,176.98026c-0.19807,0.62538 -0.85487,0.5478 -1.36752,0.84275c-0.53215,0.30618 -0.92778,0.96954 -1.54006,0.77561c-0.61228,-0.19393 -0.62117,-1.19702 -0.88002,-1.75373c-0.24937,-0.53631 -0.76376,-0.61807 -0.56569,-1.24344c0.40368,-1.27454 1.4644,-1.2327 2.68424,-0.91322c1.28654,0.33695 2.07274,1.01748 1.66906,2.29202z" fill="#040404" stroke="#000000" stroke-width="0.75"/><path d="M352.78373,175.0885c-0.03627,0.11451 -0.35747,0.12792 -0.44823,0.18723c-0.10861,0.07098 -0.21264,0.28685 -0.34112,0.24616c-0.23583,-0.07469 -0.23819,-0.29982 -0.15852,-0.55137c0.07967,-0.25155 0.33543,-0.39492 0.57126,-0.32022c0.23583,0.07469 0.45628,0.18665 0.37661,0.4382z" fill="url(#color-62)" stroke="none" stroke-width="0"/></g><path d="M356.88887,178.15328c-0.02376,0.07502 -0.0937,0.11978 -0.15621,0.09998c-0.06251,-0.0198 -0.09393,-0.09667 -0.07017,-0.17168c0.02376,-0.07502 0.0937,-0.11978 0.15622,-0.09998c0.06251,0.0198 0.09393,0.09666 0.07017,0.17168z" fill="none" stroke="#4c2c25" stroke-width="1" stroke-linecap="butt"/><path d="M358.0495,178.42125c-0.02376,0.07502 -0.0937,0.11978 -0.15621,0.09998c-0.06251,-0.0198 -0.09393,-0.09666 -0.07017,-0.17168c0.02376,-0.07502 0.0937,-0.11978 0.15622,-0.09999c0.06251,0.0198 0.09393,0.09666 0.07017,0.17169z" fill="none" stroke="#4c2c25" stroke-width="1" stroke-linecap="butt"/><path d="M357.31442,179.48375c-0.02376,0.07502 -0.0937,0.11978 -0.15621,0.09998c-0.06251,-0.0198 -0.09393,-0.09667 -0.07017,-0.17168c0.02376,-0.07502 0.0937,-0.11978 0.15622,-0.09998c0.06251,0.0198 0.09393,0.09666 0.07017,0.17168z" fill="none" stroke="#4c2c25" stroke-width="1" stroke-linecap="butt"/><g fill="none" stroke="#4c2c25" stroke-width="1" stroke-linecap="butt"><path d="M349.17745,175.54895c0.06251,0.0198 0.09393,0.09667 0.07017,0.17169c-0.02376,0.07502 -0.0937,0.11978 -0.15622,0.09998c-0.06251,-0.0198 -0.09393,-0.09666 -0.07017,-0.17168c0.02376,-0.07502 0.0937,-0.11979 0.15621,-0.09999z"/><path d="M348.07418,175.09987c0.06251,0.0198 0.09393,0.09667 0.07017,0.17168c-0.02376,0.07502 -0.0937,0.11978 -0.15622,0.09998c-0.06251,-0.0198 -0.09393,-0.09666 -0.07017,-0.17168c0.02376,-0.07502 0.0937,-0.11978 0.15621,-0.09998z"/><path d="M348.06354,176.39183c0.06251,0.0198 0.09393,0.09667 0.07017,0.17169c-0.02376,0.07502 -0.0937,0.11978 -0.15622,0.09998c-0.06251,-0.0198 -0.09393,-0.09666 -0.07017,-0.17168c0.02376,-0.07502 0.0937,-0.11979 0.15621,-0.09999z"/></g></g><g stroke="none" stroke-linecap="butt"><path d="M352.61851,170.26265c0,0 -1.28343,0.87352 -2.41211,0.51603c-1.12868,-0.35748 -1.6752,-1.81059 -1.6752,-1.81059c0,0 1.28343,-0.87352 2.41211,-0.51603c1.12868,0.35748 1.6752,1.81059 1.6752,1.81059z" fill="#ffffff" stroke-width="NaN"/><path d="M361.29619,173.0111c0,0 -1.28343,0.87351 -2.41211,0.51603c-1.12868,-0.35748 -1.67521,-1.81059 -1.67521,-1.81059c0,0 1.28342,-0.87352 2.41211,-0.51603c1.12868,0.35748 1.6752,1.81059 1.6752,1.81059z" fill="#ffffff" stroke-width="NaN"/><path d="M351.40629,169.8787c-0.37215,1.17499 -1.04608,2.0096 -1.50527,1.86416c-0.45919,-0.14544 -0.52975,-1.21585 -0.1576,-2.39083c0.37215,-1.17499 1.04608,-2.0096 1.50527,-1.86416c0.45919,0.14544 0.52975,1.21585 0.1576,2.39083z" fill="#000000" stroke-width="0"/><path d="M360.08397,172.62716c-0.37215,1.17499 -1.04608,2.0096 -1.50527,1.86416c-0.45919,-0.14544 -0.52975,-1.21585 -0.1576,-2.39083c0.37215,-1.17499 1.04609,-2.0096 1.50527,-1.86416c0.45919,0.14544 0.52975,1.21585 0.1576,2.39084z" fill="#000000" stroke-width="0"/></g><g stroke="none" stroke-width="0" stroke-linecap="butt"><path d="M348.18885,168.85965c0.4192,-1.32354 1.83198,-2.05666 3.15552,-1.63746c1.32354,0.4192 2.05666,1.83198 1.63746,3.15552c-0.4192,1.32354 -1.83198,2.05666 -3.15552,1.63746c-1.32354,-0.4192 -2.05666,-1.83198 -1.63746,-3.15552z" fill="url(#color-63)"/><path d="M356.84556,171.60147c0.4192,-1.32355 1.83198,-2.05666 3.15553,-1.63746c1.32355,0.4192 2.05666,1.83198 1.63746,3.15553c-0.4192,1.32355 -1.83198,2.05666 -3.15552,1.63746c-1.32355,-0.4192 -2.05666,-1.83198 -1.63746,-3.15553z" fill="url(#color-64)"/></g><g stroke="none" stroke-width="0" stroke-linecap="butt"><path d="M348.18885,168.85965c0.4192,-1.32355 1.83198,-2.05666 3.15552,-1.63746c1.32354,0.4192 2.05666,1.83198 1.63746,3.15553c-0.4192,1.32355 -1.83198,2.05666 -3.15553,1.63746c-1.32355,-0.4192 -2.05666,-1.83198 -1.63746,-3.15553z" fill="url(#color-65)"/><path d="M356.84556,171.60147c0.4192,-1.32355 1.83198,-2.05666 3.15552,-1.63746c1.32355,0.4192 2.05666,1.83198 1.63746,3.15553c-0.4192,1.32355 -1.83198,2.05666 -3.15552,1.63746c-1.32355,-0.4192 -2.05666,-1.83198 -1.63746,-3.15553z" fill="url(#color-66)"/></g></g><text transform="translate(345.74086,206.87788) scale(0.28149,0.28149)" font-size="40" xml:space="preserve" fill="#000000" fill-rule="nonzero" stroke="none" stroke-width="1" stroke-linecap="butt" stroke-linejoin="miter" stroke-miterlimit="10" stroke-dasharray="" stroke-dashoffset="0" font-family="&quot;GovtAgentBB&quot;, Serif" font-weight="normal" text-anchor="start" style="mix-blend-mode: normal"><tspan x="0" dy="0">Siena</tspan></text></g></g></svg>