<svg version="1.1" xmlns="http://www.w3.org/2000/svg" xmlns:xlink="http://www.w3.org/1999/xlink" width="120.38344" height="126.53863" viewBox="0,0,120.38344,126.53863"><g transform="translate(-299.80828,-91.57065)"><g fill="#ffffff" stroke="#000000" stroke-width="0" stroke-miterlimit="10"><path d="M358.43865,218.05447l0.23154,-19.72397l4.6696,0.05481l-0.23154,19.72397z"/><path d="M366.60393,197.46271c-0.98794,1.51401 -3.76079,1.79881 -5.27118,1.78109c-2.02701,-0.02379 -4.79425,0.25838 -5.8182,-2.29667c-1.51856,-3.78924 -2.02511,-16.52027 -2.02511,-16.52027l15.90433,0.33399c0,0 -0.45643,13.12604 -2.78979,16.70187z"/><g><path d="M326.04551,166.69273c-2.62384,9.11366 2.6347,12.08503 2.24244,16.74799c-0.23243,2.76332 -0.06706,8.45 -0.37421,10.72593c-0.51441,3.81169 -1.57422,3.85692 -2.34339,7.00089c-1.2906,5.27547 -2.97048,10.1182 -4.7911,12.05428c-2.35298,2.50219 -5.34395,0.24901 -7.64609,0.05536c-2.34493,-0.19725 -8.66608,-0.91804 -10.80698,-4.30874c-1.46549,-2.32098 0.95245,-10.67107 -0.02704,-14.60137c-0.8253,-3.31151 -2.64337,-4.97592 -2.48063,-10.28664c0.05731,-1.87019 2.4287,-8.41774 2.60336,-10.49406c0.14468,-1.71991 -1.50564,-2.66939 -1.13833,-4.54887c0.787,-4.02717 3.83932,-9.10928 4.42661,-12.5706c0.70095,-4.13117 0.07167,-6.74216 2.11367,-10.76137c1.23121,-2.42334 5.36913,-7.07233 6.85133,-9.0337c3.31323,-4.38436 3.9606,-7.69607 7.30135,-9.30173c3.83721,-1.84427 10.18844,-1.52519 10.79839,0.53948c0.5574,1.88681 2.55154,5.56957 2.53081,7.80366c-0.03321,3.57793 -1.78254,7.33267 -3.74366,12.82252c-0.79354,2.22141 -0.7688,6.12254 -1.63314,9.00684c-0.916,3.05669 -2.72966,5.14283 -3.88339,9.15015z"/><path d="M329.90361,131.48229c1.85396,0.51124 2.34672,4.58906 1.1006,9.10809c-1.24612,4.51902 -3.75923,7.76797 -5.61318,7.25675c-1.85395,-0.51121 -2.34672,-4.58903 -1.1006,-9.10806c1.24609,-4.51903 3.75921,-7.76797 5.61316,-7.25676z"/></g><path d="M328.13605,135.75077c4.48443,-1.65936 13.14964,3.13695 11.64724,7.77682c-1.60631,4.96076 -12.58594,3.11643 -14.36162,-1.39426c-0.29139,-0.74016 0.0185,-2.3507 0.28207,-3.16471c0.3675,-1.13489 1.33542,-2.81197 2.43229,-3.21785z"/><g><path d="M391.74459,185.79216c-0.28268,-4.67089 5.04418,-7.51801 2.63498,-16.69072c-1.05934,-4.03328 -2.82354,-6.16144 -3.66754,-9.23879c-0.79642,-2.90382 -0.68011,-6.8033 -1.42128,-9.0427c-1.83173,-5.53437 -3.49245,-9.32913 -3.44166,-12.90686c0.03169,-2.23393 2.11173,-5.86887 2.7133,-7.74209c0.65826,-2.04979 7.01521,-2.2197 10.80809,-0.28585c3.30216,1.68365 3.8716,5.00963 7.081,9.47057c1.43574,1.99562 5.46337,6.74046 6.63735,9.19204c1.9471,4.06606 1.25671,6.66153 1.86049,10.80803c0.50588,3.47414 3.43807,8.6265 4.13032,12.67105c0.32309,1.88758 -1.34906,2.79806 -1.2448,4.5209c0.12587,2.07983 2.34292,8.68126 2.35629,10.55226c0.03799,5.31306 -1.81862,6.93435 -2.72141,10.22557c-1.07148,3.9062 1.14977,12.31074 -0.36979,14.5967c-2.21991,3.33952 -8.55623,3.91172 -10.90515,4.05388c-2.30602,0.13954 -5.34909,2.32191 -7.64268,-0.23483c-1.77468,-1.97827 -3.34039,-6.8591 -4.50681,-12.16343c-0.69513,-3.16119 -1.75361,-3.23126 -2.17841,-7.05398c-0.25364,-2.2825 0.04519,-7.96371 -0.12232,-10.73173z"/><path d="M390.03496,142.88985c-1.13968,-4.54702 -0.55135,-8.61214 1.31411,-9.07972c1.86545,-0.46758 4.3016,2.83948 5.44128,7.38652c1.13968,4.54701 0.55135,8.61213 -1.31411,9.07971c-1.86545,0.46757 -4.3016,-2.83948 -5.44128,-7.38652z"/></g><path d="M381.18939,145.62017c-1.39305,-4.67386 7.38234,-9.26544 11.8266,-7.50125c1.08704,0.43151 2.01532,2.13088 2.35607,3.27406c0.24439,0.81997 0.51638,2.43734 0.20771,3.17045c-1.88108,4.46776 -12.90101,6.05384 -14.3904,1.05675z"/><path d="M327.32338,186.28577c0.01117,-0.95389 16.93165,5.03902 33.84939,5.24158c16.7775,0.20089 33.55352,-5.39647 33.54242,-4.45051c-0.01114,0.94919 -16.91253,7.49513 -33.7476,7.29824c-16.86085,-0.19719 -33.6554,-7.13868 -33.64424,-8.08934z"/><path d="M327.57447,185.81382c0.03097,-2.63704 3.21453,22.36521 33.54267,22.72122c30.32813,0.35601 33.89739,-26.03954 33.86645,-23.4025c-0.03096,2.63705 -3.65041,33.30809 -33.97853,32.95208c-30.32813,-0.35601 -33.46149,-29.63375 -33.43056,-32.27079z"/><path d="M357.60694,204.18205l0.21992,-18.73467l7.03289,0.08254l-0.21992,18.73468z"/><path d="M397.87183,164.6597c-0.2362,20.12188 -73.104,19.26651 -72.86779,-0.85536c0.2362,-20.12191 16.73971,-36.24244 36.86159,-36.00624c20.12187,0.23623 36.24243,16.73968 36.00623,36.86159z"/><path d="M390.78774,161.23848c-0.1016,8.6549 -7.20014,15.58875 -15.85507,15.48715c-8.65492,-0.10161 -15.58877,-7.20014 -15.48717,-15.85506c0.10159,-8.65492 7.20014,-15.58875 15.85507,-15.48715c8.6549,0.10161 15.58875,7.20014 15.48715,15.85507z"/><path d="M349.42563,177.03785c-8.65492,-0.1016 -15.58875,-7.20014 -15.48715,-15.85507c0.1016,-8.6549 7.20014,-15.58875 15.85507,-15.48715c8.65492,0.10159 15.58875,7.20014 15.48715,15.85507c-0.1016,8.65493 -7.20014,15.58875 -15.85507,15.48715z"/><path d="M319.83386,167.90649c-0.02137,-16.72124 11.51946,1.23981 42.09434,1.59872c30.57488,0.35892 41.43175,-17.51473 41.02553,-1.45149c-0.13106,5.18348 -10.67105,20.58611 -41.24593,20.2272c-30.5749,-0.35888 -41.8673,-15.18929 -41.87393,-20.37441z"/><path d="M373.19231,173.39788c-0.16084,13.70149 -23.84831,10.59399 -23.68747,-3.10752c0.16084,-13.70151 8.86738,-42.55547 13.01389,-42.5068c4.14652,0.04867 10.83441,31.9128 10.67357,45.61431z"/><path d="M348.64973,168.71205c0.01188,-1.01325 25.85013,-0.70995 25.83822,0.30331c-0.01191,1.01328 -6.08954,12.92588 -13.22456,12.84212c-7.13502,-0.08376 -12.62559,-12.13217 -12.61368,-13.14543z"/><g><path d="M334.58282,96.05088c0.01045,-0.89034 0.48272,-2.35441 4.00124,-2.98958c11.49521,-2.07514 38.84297,-1.93715 48.59474,0.12413c2.52431,0.53357 2.81615,2.76286 2.80732,3.51583c-0.05345,4.55215 -12.49923,8.09683 -27.79842,7.91723c-15.29922,-0.17959 -27.65836,-4.01542 -27.60491,-8.5676z"/><path d="M334.86641,96.72261c0.06652,-5.66527 7.18261,-3.61199 15.71179,-1.69949c7.59309,1.7026 18.36108,-1.45901 26.03869,0.04357c9.16945,1.79454 13.71614,-3.71731 13.64542,2.3062c-0.19641,16.7323 0.4115,33.87026 -14.88565,33.69069c-6.35132,-0.07454 -22.04205,2.58092 -29.32333,-2.15637c-10.25568,-6.67246 -11.30178,-22.39947 -11.18691,-32.18457z"/></g><g><path d="M326.86448,126.18083c0.01253,-1.06674 15.70467,-1.74741 35.04938,-1.52032c19.34472,0.22708 35.01657,1.2759 35.00405,2.34265c-0.01253,1.06674 -15.70467,1.74741 -35.04938,1.52032c-19.34471,-0.22708 -35.01656,-1.2759 -35.00404,-2.34265z"/><path d="M327.23122,126.34176c0.0156,-1.32757 7.50685,0.56324 18.31332,1.11479c9.62044,0.49101 22.02161,-0.44585 31.74649,-0.00069c11.61451,0.53163 20.00086,-1.70338 19.98429,-0.29188c-0.04603,3.92095 0.92977,7.94674 -18.41237,7.71968c-8.03082,-0.09429 -27.83625,0.33863 -37.09916,-0.86016c-13.04678,-1.6885 -14.5595,-5.38877 -14.53257,-7.68175z"/></g><path d="M336.45851,120.68501c0.01144,-0.97436 -2.5319,-5.21988 0.12365,-5.95417c2.0633,-0.57054 5.65497,-0.84729 9.80168,-0.24942c2.95269,0.42572 6.18272,1.6442 9.36131,1.93637c2.70016,0.24821 5.1327,-0.38692 7.62156,-0.35771c2.48436,0.02917 4.22269,0.55884 6.71426,0.48818c3.21311,-0.09112 6.49497,-1.38035 9.46026,-1.52329c4.06875,-0.19613 7.55257,0.82765 9.54575,1.51048c2.1514,0.73705 1.08225,3.90692 1.072,4.77993c-0.01223,1.04122 1.93424,3.5656 -1.06463,4.32705c-1.77854,0.4516 -3.68067,-0.19035 -6.85215,-0.15482c-2.55327,0.0286 -5.58969,0.9698 -8.6819,1.07739c-3.56053,0.12387 -7.19821,-0.58818 -10.30955,-0.6247c-2.06142,-0.02422 -3.6249,0.93787 -5.67653,0.95758c-4.06354,0.03901 -8.12372,-0.72227 -11.62019,-1.06343c-3.41057,-0.33277 -6.28508,-0.23712 -8.07671,-0.8572c-2.11533,-0.73214 -1.429,-3.42713 -1.41883,-4.29227z"/></g></g></svg>