<svg version="1.1" xmlns="http://www.w3.org/2000/svg" xmlns:xlink="http://www.w3.org/1999/xlink" width="115.04747" height="392.03055" viewBox="0,0,115.04747,392.03055"><defs><linearGradient x1="102.40177" y1="273.13525" x2="101.25434" y2="285.59795" gradientUnits="userSpaceOnUse" id="color-1"><stop offset="0" stop-color="#000000" stop-opacity="0.2419"/><stop offset="1" stop-color="#e64e3d"/></linearGradient><radialGradient cx="92.22856" cy="286.584" r="8.61491" gradientUnits="userSpaceOnUse" id="color-2"><stop offset="0" stop-color="#ffffff" stop-opacity="0.2903"/><stop offset="1" stop-color="#ffffff" stop-opacity="0"/></radialGradient><radialGradient cx="96.20363" cy="286.54093" r="3.12134" gradientUnits="userSpaceOnUse" id="color-3"><stop offset="0" stop-color="#ffffff" stop-opacity="0.2903"/><stop offset="1" stop-color="#ffffff" stop-opacity="0"/></radialGradient><linearGradient x1="93.33362" y1="171.63645" x2="104.00101" y2="227.61488" gradientUnits="userSpaceOnUse" id="color-4"><stop offset="0" stop-color="#000000" stop-opacity="0"/><stop offset="1" stop-color="#000000" stop-opacity="0.31124"/></linearGradient><linearGradient x1="102.73161" y1="267.96669" x2="101.50686" y2="281.26918" gradientUnits="userSpaceOnUse" id="color-5"><stop offset="0" stop-color="#000000" stop-opacity="0"/><stop offset="1" stop-color="#000000" stop-opacity="0.22249"/></linearGradient><linearGradient x1="85.4015" y1="247.16467" x2="85.64959" y2="325.64248" gradientUnits="userSpaceOnUse" id="color-6"><stop offset="0" stop-color="#000000" stop-opacity="0"/><stop offset="1" stop-color="#000000" stop-opacity="0.31124"/></linearGradient><linearGradient x1="57.7697" y1="248.05603" x2="58.01777" y2="326.53385" gradientUnits="userSpaceOnUse" id="color-7"><stop offset="0" stop-color="#000000" stop-opacity="0"/><stop offset="1" stop-color="#000000" stop-opacity="0.31124"/></linearGradient><linearGradient x1="71.56315" y1="168.96129" x2="71.56315" y2="264.11958" gradientUnits="userSpaceOnUse" id="color-8"><stop offset="0" stop-color="#000000" stop-opacity="0"/><stop offset="1" stop-color="#000000" stop-opacity="0.31124"/></linearGradient><radialGradient cx="69.62998" cy="147.15643" r="14.6797" gradientUnits="userSpaceOnUse" id="color-9"><stop offset="0" stop-color="#5a5a5a"/><stop offset="1" stop-color="#272727"/></radialGradient><linearGradient x1="69.62998" y1="141.03989" x2="69.62998" y2="157.53425" gradientUnits="userSpaceOnUse" id="color-10"><stop offset="0" stop-color="#000000"/><stop offset="1" stop-color="#000000" stop-opacity="0"/></linearGradient><linearGradient x1="33.02883" y1="273.34886" x2="34.05293" y2="285.8223" gradientUnits="userSpaceOnUse" id="color-11"><stop offset="0" stop-color="#000000" stop-opacity="0.2419"/><stop offset="1" stop-color="#e64e3d"/></linearGradient><radialGradient cx="43.06852" cy="286.89759" r="8.61491" gradientUnits="userSpaceOnUse" id="color-12"><stop offset="0" stop-color="#ffffff" stop-opacity="0.2903"/><stop offset="1" stop-color="#ffffff" stop-opacity="0"/></radialGradient><radialGradient cx="39.09406" cy="286.8152" r="3.12134" gradientUnits="userSpaceOnUse" id="color-13"><stop offset="0" stop-color="#ffffff" stop-opacity="0.2903"/><stop offset="1" stop-color="#ffffff" stop-opacity="0"/></radialGradient><linearGradient x1="43.10055" y1="171.94474" x2="31.87996" y2="227.8149" gradientUnits="userSpaceOnUse" id="color-14"><stop offset="0" stop-color="#000000" stop-opacity="0"/><stop offset="1" stop-color="#000000" stop-opacity="0.31124"/></linearGradient><linearGradient x1="32.75015" y1="268.1773" x2="33.84325" y2="281.49124" gradientUnits="userSpaceOnUse" id="color-15"><stop offset="0" stop-color="#000000" stop-opacity="0"/><stop offset="1" stop-color="#000000" stop-opacity="0.22249"/></linearGradient><linearGradient x1="95.87343" y1="163.98574" x2="93.45762" y2="179.01737" gradientUnits="userSpaceOnUse" id="color-16"><stop offset="0" stop-color="#4a4323" stop-opacity="0"/><stop offset="1" stop-color="#4a4323" stop-opacity="0.56131"/></linearGradient><linearGradient x1="91.29709" y1="149.44651" x2="92.07824" y2="164.47425" gradientUnits="userSpaceOnUse" id="color-17"><stop offset="0" stop-color="#ffffff" stop-opacity="0.33869"/><stop offset="1" stop-color="#ffffff" stop-opacity="0"/></linearGradient><linearGradient x1="44.78744" y1="165.9421" x2="48.75194" y2="180.70396" gradientUnits="userSpaceOnUse" id="color-18"><stop offset="0" stop-color="#4a4323" stop-opacity="0"/><stop offset="1" stop-color="#4a4323" stop-opacity="0.56131"/></linearGradient><linearGradient x1="47.83552" y1="151.08048" x2="48.61667" y2="166.10823" gradientUnits="userSpaceOnUse" id="color-19"><stop offset="0" stop-color="#ffffff" stop-opacity="0.33869"/><stop offset="1" stop-color="#ffffff" stop-opacity="0"/></linearGradient><linearGradient x1="73.47385" y1="212.5864" x2="73.47385" y2="154.49243" gradientUnits="userSpaceOnUse" id="color-20"><stop offset="0" stop-color="#000000" stop-opacity="0"/><stop offset="1" stop-color="#000000" stop-opacity="0.20735"/></linearGradient><linearGradient x1="73.47385" y1="147.81947" x2="73.47385" y2="163.52055" gradientUnits="userSpaceOnUse" id="color-21"><stop offset="0" stop-color="#000000" stop-opacity="0"/><stop offset="1" stop-color="#000000" stop-opacity="0.52899"/></linearGradient><linearGradient x1="73.22486" y1="125.26528" x2="73.22486" y2="131.28188" gradientUnits="userSpaceOnUse" id="color-22"><stop offset="0" stop-color="#0b0403" stop-opacity="0.1902"/><stop offset="1" stop-color="#0b0403" stop-opacity="0"/></linearGradient><radialGradient cx="86.09251" cy="118.1276" r="13.27473" gradientUnits="userSpaceOnUse" id="color-23"><stop offset="0" stop-color="#4c0000" stop-opacity="0.33528"/><stop offset="1" stop-color="#4c0000" stop-opacity="0"/></radialGradient><radialGradient cx="75.7465" cy="117.9967" r="13.27473" gradientUnits="userSpaceOnUse" id="color-24"><stop offset="0" stop-color="#4c0000" stop-opacity="0.33528"/><stop offset="1" stop-color="#4c0000" stop-opacity="0"/></radialGradient><linearGradient x1="88.96806" y1="118.09281" x2="88.96806" y2="123.27898" gradientUnits="userSpaceOnUse" id="color-25"><stop offset="0" stop-color="#4a4323" stop-opacity="0"/><stop offset="1" stop-color="#4a4323" stop-opacity="0.56131"/></linearGradient><radialGradient cx="63.84062" cy="118.86062" r="13.27473" gradientUnits="userSpaceOnUse" id="color-26"><stop offset="0" stop-color="#4c0000" stop-opacity="0.33528"/><stop offset="1" stop-color="#4c0000" stop-opacity="0"/></radialGradient><linearGradient x1="62.07927" y1="118.09281" x2="62.07927" y2="123.27898" gradientUnits="userSpaceOnUse" id="color-27"><stop offset="0" stop-color="#4a4323" stop-opacity="0"/><stop offset="1" stop-color="#4a4323" stop-opacity="0.56131"/></linearGradient><radialGradient cx="93.07768" cy="92.69093" r="21.50745" gradientUnits="userSpaceOnUse" id="color-28"><stop offset="0" stop-color="#000000"/><stop offset="1" stop-color="#000000" stop-opacity="0"/></radialGradient><radialGradient cx="93.07768" cy="92.69093" r="13.53736" gradientUnits="userSpaceOnUse" id="color-29"><stop offset="0" stop-color="#e8e8e8"/><stop offset="1" stop-color="#acacac"/></radialGradient><linearGradient x1="106.61505" y1="94.19148" x2="80.65181" y2="94.19148" gradientUnits="userSpaceOnUse" id="color-30"><stop offset="0" stop-color="#272727" stop-opacity="0.21436"/><stop offset="1" stop-color="#272727" stop-opacity="0"/></linearGradient><linearGradient x1="90.18555" y1="80.63052" x2="90.18555" y2="91.59412" gradientUnits="userSpaceOnUse" id="color-31"><stop offset="0" stop-color="#ffffff"/><stop offset="1" stop-color="#ffffff" stop-opacity="0"/></linearGradient><radialGradient cx="51.64074" cy="92.69093" r="21.50745" gradientUnits="userSpaceOnUse" id="color-32"><stop offset="0" stop-color="#000000"/><stop offset="1" stop-color="#000000" stop-opacity="0"/></radialGradient><radialGradient cx="51.64074" cy="92.69093" r="13.53736" gradientUnits="userSpaceOnUse" id="color-33"><stop offset="0" stop-color="#e8e8e8"/><stop offset="1" stop-color="#acacac"/></radialGradient><linearGradient x1="38.10338" y1="94.19148" x2="64.0666" y2="94.19148" gradientUnits="userSpaceOnUse" id="color-34"><stop offset="0" stop-color="#272727" stop-opacity="0.21436"/><stop offset="1" stop-color="#272727" stop-opacity="0"/></linearGradient><linearGradient x1="54.53287" y1="80.63052" x2="54.53287" y2="91.59412" gradientUnits="userSpaceOnUse" id="color-35"><stop offset="0" stop-color="#ffffff"/><stop offset="1" stop-color="#ffffff" stop-opacity="0"/></linearGradient><radialGradient cx="69.98427" cy="100.90096" r="49.09666" gradientUnits="userSpaceOnUse" id="color-36"><stop offset="0" stop-color="#240c0a" stop-opacity="0"/><stop offset="1" stop-color="#240c0a" stop-opacity="0.2177"/></radialGradient><radialGradient cx="107.18829" cy="128.59048" r="10.80761" gradientUnits="userSpaceOnUse" id="color-37"><stop offset="0" stop-color="#240c0a" stop-opacity="0.19023"/><stop offset="1" stop-color="#240c0a" stop-opacity="0"/></radialGradient><radialGradient cx="98.94333" cy="137.71252" r="8.2964" gradientUnits="userSpaceOnUse" id="color-38"><stop offset="0" stop-color="#240c0a" stop-opacity="0.19023"/><stop offset="1" stop-color="#240c0a" stop-opacity="0"/></radialGradient><radialGradient cx="29.41813" cy="82.89454" r="8.2964" gradientUnits="userSpaceOnUse" id="color-39"><stop offset="0" stop-color="#240c0a" stop-opacity="0.19023"/><stop offset="1" stop-color="#240c0a" stop-opacity="0"/></radialGradient><linearGradient x1="25.85273" y1="82.24033" x2="25.85273" y2="101.1815" gradientUnits="userSpaceOnUse" id="color-40"><stop offset="0" stop-color="#ffffff" stop-opacity="0.29832"/><stop offset="1" stop-color="#ffffff" stop-opacity="0"/></linearGradient><linearGradient x1="24.56968" y1="101.59109" x2="25.79875" y2="113.18221" gradientUnits="userSpaceOnUse" id="color-41"><stop offset="0" stop-color="#ffffff" stop-opacity="0.16109"/><stop offset="1" stop-color="#ffffff" stop-opacity="0"/></linearGradient><radialGradient cx="92.84506" cy="58.1737" r="27.67898" gradientUnits="userSpaceOnUse" id="color-42"><stop offset="0" stop-color="#4c0000" stop-opacity="0.33528"/><stop offset="1" stop-color="#4c0000" stop-opacity="0"/></radialGradient><radialGradient cx="72.11892" cy="52.18104" r="27.67898" gradientUnits="userSpaceOnUse" id="color-43"><stop offset="0" stop-color="#4c0000" stop-opacity="0.33528"/><stop offset="1" stop-color="#4c0000" stop-opacity="0"/></radialGradient><linearGradient x1="98.65476" y1="59.65866" x2="95.07615" y2="72.81901" gradientUnits="userSpaceOnUse" id="color-44"><stop offset="0" stop-color="#4a4323" stop-opacity="0"/><stop offset="1" stop-color="#4a4323" stop-opacity="0.56131"/></linearGradient><linearGradient x1="94.37836" y1="46.67175" x2="94.37836" y2="59.94783" gradientUnits="userSpaceOnUse" id="color-45"><stop offset="0" stop-color="#ffffff" stop-opacity="0.33869"/><stop offset="1" stop-color="#ffffff" stop-opacity="0"/></linearGradient><radialGradient cx="47.48235" cy="60.06234" r="27.67897" gradientUnits="userSpaceOnUse" id="color-46"><stop offset="0" stop-color="#4c0000" stop-opacity="0.33528"/><stop offset="1" stop-color="#4c0000" stop-opacity="0"/></radialGradient><linearGradient x1="43.4172" y1="59.04272" x2="46.88287" y2="72.23327" gradientUnits="userSpaceOnUse" id="color-47"><stop offset="0" stop-color="#4a4323" stop-opacity="0"/><stop offset="1" stop-color="#4a4323" stop-opacity="0.56131"/></linearGradient><linearGradient x1="53.15346" y1="46.67175" x2="53.15346" y2="59.94783" gradientUnits="userSpaceOnUse" id="color-48"><stop offset="0" stop-color="#ffffff" stop-opacity="0.33869"/><stop offset="1" stop-color="#ffffff" stop-opacity="0"/></linearGradient><linearGradient x1="67.27786" y1="40.65927" x2="68.06956" y2="60.21619" gradientUnits="userSpaceOnUse" id="color-49"><stop offset="0" stop-color="#000000"/><stop offset="1" stop-color="#000000" stop-opacity="0"/></linearGradient><linearGradient x1="66.65992" y1="20.91464" x2="67.81983" y2="49.56761" gradientUnits="userSpaceOnUse" id="color-50"><stop offset="0" stop-color="#000000" stop-opacity="0"/><stop offset="1" stop-color="#000000" stop-opacity="0.25803"/></linearGradient></defs><g transform="translate(-13.47627,-18.83762)"><g stroke-miterlimit="10"><g stroke="#000000" stroke-width="0"><g><g><path d="M112.40433,290.25646c-1.49135,-7.74913 -0.27592,-8.27235 1.29576,-8.5418c1.57166,-0.26945 2.90442,-0.1831 4.39575,7.56603c1.49134,7.74913 0.39289,8.8802 -1.17879,9.14965c-1.57168,0.26945 -3.02141,-0.42475 -4.51275,-8.17388z" fill="#e64e3d"/><path d="M89.60382,287.365c1.59221,0.14659 2.85459,0.57361 2.13323,8.40866c-0.72136,7.83506 -2.09707,8.63895 -3.6893,8.49237c-1.59223,-0.14661 -2.79802,-1.18819 -2.07666,-9.02324c0.72136,-7.83505 2.0405,-8.02438 3.63272,-7.87779z" fill="#e64e3d"/><path d="M92.77866,298.32394c0.72136,-7.83506 2.0405,-8.02438 3.63272,-7.87779c1.59223,0.14661 2.8546,0.57361 2.13324,8.40866c-0.72136,7.83505 -2.09707,8.63895 -3.6893,8.49237c-1.59223,-0.14659 -2.79802,-1.18819 -2.07666,-9.02324z" fill="#e64e3d"/><path d="M99.35107,299.33812c0.72136,-7.83506 2.0405,-8.02438 3.63272,-7.87779c1.59223,0.14661 2.8546,0.57361 2.13324,8.40866c-0.72136,7.83505 -2.09707,8.63895 -3.6893,8.49237c-1.59223,-0.14659 -2.79802,-1.18819 -2.07666,-9.02324z" fill="#e64e3d"/><path d="M106.59437,297.68698c0.72136,-7.83506 2.0405,-8.02438 3.63272,-7.87779c1.59223,0.14661 2.8546,0.57361 2.13324,8.40866c-0.72136,7.83505 -2.09707,8.63895 -3.6893,8.49237c-1.59223,-0.14659 -2.79802,-1.18819 -2.07666,-9.02324z" fill="#e64e3d"/><path d="M86.46404,285.26739c1.19458,-12.97486 7.82127,-12.87939 15.93774,-12.13211c8.11646,0.74728 14.64917,1.86338 13.45459,14.83823c-1.19458,12.97486 -7.91496,13.89715 -16.03143,13.14987c-8.11647,-0.74728 -14.55548,-2.88115 -13.3609,-15.856z" fill="#e64e3d"/><path d="M86.57242,284.2462c1.4446,-11.94807 7.93171,-11.83807 15.82936,-11.11095c7.89765,0.72712 14.29578,1.80346 13.53449,13.81444c-4.41194,-2.07917 -9.27671,-3.44262 -14.44559,-3.91852c-5.1689,-0.47588 -10.20083,-0.02361 -14.91826,1.21504z" fill="url(#color-1)"/></g><g><path d="M92.98794,278.33628c2.67959,0.24671 0.33021,3.34527 -0.08917,7.90036c-0.41937,4.55507 1.25005,8.84178 -1.42955,8.59506c-2.6796,-0.24671 -4.51186,-4.13933 -4.09248,-8.69441c0.41937,-4.55507 2.93159,-8.04771 5.61119,-7.80099z" fill="url(#color-2)"/><path d="M97.96156,286.70277c-0.18562,2.01618 -1.12316,3.57817 -2.09402,3.48878c-0.97089,-0.08938 -1.60745,-1.79629 -1.42182,-3.81246c0.18563,-2.01618 1.12317,-3.57817 2.09403,-3.48878c0.97087,0.08938 1.60744,1.79629 1.42181,3.81246z" fill="url(#color-3)"/></g></g><g><path d="M114.5126,222.96888c-0.63204,4.44406 -21.42416,6.71703 -22.61046,4.4327c-1.58329,-3.04879 -13.40157,-50.8375 -13.08213,-53.08358c0.6977,-4.90579 27.41772,-8.3859 29.3133,-4.73578c0.4551,0.87633 6.90392,49.69779 6.37929,53.38665z" fill="#603f3f"/><path d="M114.51259,222.96886c-0.63204,4.44406 -21.42416,6.71703 -22.61046,4.4327c-1.58329,-3.04879 -13.40157,-50.8375 -13.08213,-53.08358c0.01083,-0.07615 0.02792,-0.15194 0.0511,-0.22738c3.13983,9.53392 10.24105,22.71568 15.94947,24.04814c1.55765,0.36358 3.56555,-0.72666 4.86388,-1.56966c1.79013,-1.16232 3.32889,-2.49922 4.7471,-4.53787c2.46486,-3.54318 4.81554,-12.34648 4.16041,-19.84309c1.56712,10.29294 6.37652,47.57539 5.92065,50.78075z" fill="url(#color-4)"/></g><g><path d="M91.5124,221.64822c0.83402,-2.41074 21.77135,-2.74862 23.06125,1.57518c1.0707,3.58904 1.97416,52.75747 1.6542,53.6823c-1.33266,3.8521 -28.32278,3.73242 -29.7467,-1.04061c-0.65193,-2.1853 3.91814,-50.99938 5.03127,-54.21688z" fill="#3b2727"/><g><path d="M103.88572,266.00624c10.82479,-4.73986 14.81034,-8.99648 14.81034,-8.99648c0,0 2.78287,14.82394 -2.41617,22.44184c-1.45027,2.12501 -29.36801,2.73133 -30.79194,-2.0417c-0.07807,-0.26165 -0.4535,-10.55946 0.28395,-10.07887c1.44345,0.94069 14.36516,0.31664 18.11382,-1.32479z" fill="#cbcbcb"/><path d="M119.29024,269.49124c-0.30786,3.56949 -1.14579,7.22833 -3.01033,9.96037c-1.45027,2.12501 -29.36801,2.73133 -30.79194,-2.0417c-0.0231,-0.07743 -0.07225,-1.03385 -0.11089,-2.32974c2.13786,0.53586 4.34684,0.91543 6.61433,1.12419c10.05311,0.92557 19.58809,-1.65986 27.29883,-6.71312z" fill="url(#color-5)"/></g></g></g><g stroke="#000000" stroke-width="0"><g><path d="M72.07671,322.29694c-1.14165,-4.52744 -4.40534,-72.20896 -3.57401,-75.16896c1.81576,-6.4651 32.62103,-4.42561 33.98784,0.9948c0.32815,1.30137 -2.66859,69.0244 -4.03392,73.88578c-1.64487,5.85661 -25.52452,3.6806 -26.37991,0.28838z" fill="#191f26"/><path d="M98.45661,322.00856c-1.64487,5.85661 -25.52452,3.6806 -26.37991,0.28838c-1.14165,-4.52744 -4.40534,-72.20896 -3.57401,-75.16896c0.02819,-0.10034 0.06335,-0.19864 0.10528,-0.29491c1.53135,13.70016 6.75513,33.33955 12.90027,36.58565c1.67681,0.88575 4.16579,-0.08291 5.80416,-0.89613c2.25901,-1.12127 4.27176,-2.54237 6.29622,-4.94395c3.51853,-4.17395 8.01344,-15.49782 8.85076,-25.81214c-0.3982,14.33035 -2.81637,66.01785 -4.00276,70.24206z" fill="url(#color-6)"/></g><path d="M73.05018,318.39288c0.85653,-3.35857 24.80029,-4.8452 26.45165,1.04269c1.37072,4.88732 4.39907,72.51345 4.07048,73.8019c-1.36864,5.36665 -32.25683,6.51889 -34.07978,0.01925c-0.83461,-2.9758 2.41449,-70.3813 3.55766,-74.86385z" fill="#101318"/><path d="M105.43706,378.9062c13.33485,2.53965 12.96403,10.97926 11.53282,21.85112c-1.43122,10.87185 -19.62101,8.86266 -32.95586,6.32301c-13.33485,-2.53965 -16.76513,-4.64805 -15.33392,-15.5199c1.43122,-10.87185 23.42211,-15.19388 36.75696,-12.65423z" fill="#14120d"/></g><g stroke="#000000" stroke-width="0"><g><path d="M70.82483,322.89992c-1.64487,5.85661 -25.52452,3.6806 -26.37991,0.28838c-1.14163,-4.52744 -4.40535,-72.20896 -3.57402,-75.16896c1.81576,-6.4651 32.62103,-4.42561 33.98784,0.9948c0.32814,1.30135 -2.66859,69.0244 -4.03392,73.88578z" fill="#262f3a"/><path d="M44.44491,323.1883c-1.14163,-4.52744 -4.40535,-72.20896 -3.57402,-75.16896c0.02819,-0.10034 0.06334,-0.19864 0.10528,-0.29491c1.53135,13.70016 6.75512,33.33955 12.90026,36.58565c1.67681,0.88575 4.16578,-0.0829 5.80416,-0.89613c2.25902,-1.12129 4.27177,-2.54237 6.29623,-4.94395c3.51853,-4.17395 8.01345,-15.49782 8.85076,-25.81214c-0.39822,14.33035 -2.81637,66.01785 -4.00276,70.24206c-1.64487,5.85661 -25.52452,3.6806 -26.37991,0.28838z" fill="url(#color-7)"/></g><path d="M45.41837,319.28425c0.85653,-3.35857 24.80028,-4.8452 26.45165,1.04269c1.37072,4.88732 4.39908,72.51345 4.07048,73.8019c-1.36864,5.36664 -32.25683,6.51889 -34.07978,0.01925c-0.83462,-2.9758 2.41449,-70.38131 3.55766,-74.86385z" fill="#191e26"/><path d="M70.22878,380.68889c13.33485,2.53965 12.96404,10.97926 11.5328,21.85112c-1.43122,10.87185 -19.62101,8.86266 -32.95586,6.32301c-13.33485,-2.53964 -16.76513,-4.64805 -15.33392,-15.5199c1.43124,-10.87185 23.42212,-15.19388 36.75698,-12.65423z" fill="#262219"/></g><g stroke="#000000" stroke-width="0"><path d="M103.21865,260.38767c-1.97152,4.09301 -57.69256,6.15992 -61.57504,-0.98133c-3.2227,-5.92771 -10.71699,-88.12218 -9.96066,-89.69238c3.15026,-6.54019 75.03731,-8.27576 79.32315,-0.39254c1.96225,3.60927 -5.15613,85.60348 -7.78742,91.06623z" fill="#3b2727"/><path d="M103.21866,260.38767c-1.97152,4.09301 -57.69256,6.15992 -61.57504,-0.98133c-2.80031,-5.15078 -8.82586,-67.88629 -9.86105,-85.27317c2.03049,12.52745 12.60554,26.36668 20.84888,31.51238c4.743,2.9607 9.45139,4.73214 14.73239,6.14592c3.83012,1.02537 9.64673,2.25959 13.554,1.22564c14.31929,-3.78918 26.36715,-27.47933 29.84035,-44.05582c0.09859,0.11775 0.18138,0.2378 0.24791,0.36015c1.96225,3.60927 -5.15613,85.60348 -7.78742,91.06623z" fill="url(#color-8)"/></g><g stroke="#000000" stroke-width="0"><path d="M84.30968,153.27296c0,0 -2.56556,3.71094 -14.90212,4.22597c-11.66867,0.48714 -14.45728,-4.22597 -14.45728,-4.22597v-12.23309h29.35941v12.23309z" fill="url(#color-9)"/><path d="M84.30968,153.27296c0,0 -2.56556,3.71094 -14.90212,4.22597c-11.66867,0.48714 -14.45728,-4.22597 -14.45728,-4.22597v-12.23309h29.35941v12.23309z" fill="url(#color-10)"/></g><g stroke="#000000" stroke-width="0"><g><g><path d="M22.85743,290.3703c-1.56792,7.734 -3.02444,8.41383 -4.59337,8.12884c-1.56893,-0.28498 -2.65614,-1.42686 -1.08821,-9.16087c1.56791,-7.73401 2.90144,-7.80718 4.47037,-7.52219c1.56893,0.28499 2.77914,0.82021 1.21121,8.55421z" fill="#e64e3d"/><path d="M45.68543,287.70453c1.59359,-0.13084 2.91078,0.07154 3.55461,7.91333c0.64383,7.84181 -0.57222,8.87141 -2.16582,9.00225c-1.59362,0.13083 -2.9613,-0.68666 -3.60512,-8.52846c-0.64383,-7.84181 0.62273,-8.2563 2.21632,-8.38714z" fill="#e64e3d"/><path d="M38.84769,290.71819c1.59359,-0.13084 2.91078,0.07154 3.55461,7.91333c0.64382,7.84181 -0.57222,8.87141 -2.16582,9.00225c-1.59359,0.13083 -2.96129,-0.68666 -3.60511,-8.52846c-0.64383,-7.84181 0.62273,-8.2563 2.21632,-8.38714z" fill="#e64e3d"/><path d="M32.26557,291.6673c1.59359,-0.13084 2.91078,0.07154 3.55461,7.91333c0.64382,7.84181 -0.57222,8.87141 -2.16582,9.00225c-1.59359,0.13083 -2.96129,-0.68666 -3.60511,-8.52846c-0.64383,-7.84181 0.62273,-8.2563 2.21632,-8.38714z" fill="#e64e3d"/><path d="M25.03897,289.94459c1.59359,-0.13084 2.91078,0.07154 3.55461,7.91333c0.64382,7.84181 -0.57222,8.87141 -2.16582,9.00225c-1.59359,0.13083 -2.96129,-0.68666 -3.60511,-8.52846c-0.64383,-7.84181 0.62273,-8.2563 2.21632,-8.38714z" fill="#e64e3d"/><path d="M33.02882,273.34885c8.12347,-0.66694 14.75076,-0.69685 15.81695,12.28919c1.06617,12.98602 -5.39364,15.0561 -13.51709,15.72305c-8.12345,0.66695 -14.83439,-0.32177 -15.90057,-13.3078c-1.06616,-12.98602 5.47727,-14.03747 13.60073,-14.70443z" fill="#e64e3d"/><path d="M33.02882,273.34886c7.90445,-0.64897 14.39234,-0.69479 15.71868,11.26699c-4.70494,-1.28526 -9.73214,-1.78729 -14.90549,-1.36255c-5.17334,0.42475 -10.05135,1.74001 -14.48365,3.77545c-0.64244,-12.01792 5.76602,-13.03093 13.67047,-13.67989z" fill="url(#color-11)"/></g><g><path d="M42.40176,286.54363c-0.3743,-4.55901 -2.69291,-7.68065 -0.011,-7.90085c2.68191,-0.2202 5.15947,3.29711 5.53377,7.85612c0.3743,4.559 -1.49638,8.4333 -4.17829,8.65349c-2.68191,0.2202 -0.97016,-4.04977 -1.34446,-8.60878z" fill="url(#color-12)"/><path d="M37.33465,286.95964c-0.16569,-2.01793 0.48773,-3.71845 1.45944,-3.79823c0.97171,-0.07977 1.89375,1.49141 2.05942,3.50933c0.16567,2.01793 -0.48775,3.71845 -1.45946,3.79823c-0.97171,0.07977 -1.89375,-1.49141 -2.05942,-3.50933z" fill="url(#color-13)"/></g></g><g><path d="M21.41484,223.06514c-0.48812,-3.69386 6.44332,-52.44915 6.90706,-53.32095c1.93158,-3.6312 28.61587,0.11306 29.26502,5.0255c0.29721,2.24911 -11.99321,49.9186 -13.60658,52.95158c-1.20883,2.2725 -21.97745,-0.20603 -22.5655,-4.65613z" fill="#603f3f"/><path d="M43.98033,227.72127c-1.20883,2.2725 -21.97745,-0.20603 -22.5655,-4.65613c-0.42413,-3.20972 4.75381,-40.44279 6.42267,-50.7197c-0.72925,7.48976 1.53422,16.31588 3.96391,19.88327c1.39798,2.05259 2.92344,3.40463 4.70199,4.58462c1.28993,0.8558 3.28694,1.96585 4.84811,1.6177c5.72132,-1.27594 12.95259,-14.38682 16.18657,-23.8892c0.02243,0.07567 0.03877,0.15162 0.04884,0.22787c0.29721,2.24911 -11.99321,49.9186 -13.60658,52.95158z" fill="url(#color-14)"/></g><g><path d="M21.35125,223.31906c1.33261,-4.31084 22.26555,-3.76588 23.0757,-1.34699c1.08126,3.22834 5.16825,52.08525 4.49474,54.264c-1.47106,4.75871 -28.46104,4.61138 -29.75555,0.7463c-0.31079,-0.92795 1.07898,-50.08503 2.18513,-53.66331z" fill="#3b2727"/><g><path d="M16.89484,257.06299c0,0 3.94326,4.29582 14.72063,9.14253c3.73224,1.67844 16.64715,2.43027 18.09983,1.5039c0.74216,-0.47328 0.26489,9.82031 0.18424,10.08118c-1.47107,4.75871 -29.38146,3.87627 -30.81063,1.73702c-5.12342,-7.66895 -2.19406,-22.46464 -2.19406,-22.46464z" fill="#cbcbcb"/><path d="M19.08892,279.52762c-1.83744,-2.75034 -2.63914,-6.41728 -2.91168,-9.98966c7.66039,5.12931 17.16935,7.80893 27.2311,6.98283c2.26944,-0.18632 4.48205,-0.54402 6.62512,-1.05871c-0.05146,1.29546 -0.11006,2.25133 -0.13393,2.32854c-1.47107,4.75871 -29.38146,3.87627 -30.81063,1.73702z" fill="url(#color-15)"/></g></g></g><g stroke="#000000" stroke-width="0"><g><g><path d="M68.74997,155.94212c1.43203,-8.91041 25.77391,-13.83843 33.44454,-2.178c8.80601,13.38638 20.80713,18.74378 20.80713,18.74378c0,0 -3.88285,11.57556 -36.97073,4.23125c-11.15068,-2.47505 -18.71299,-11.88663 -17.28095,-20.79704z" fill="#408841"/><path d="M90.28536,171.17998c24.02141,7.79042 32.71627,1.32792 32.71627,1.32792c0,0 -3.88285,11.57556 -36.97073,4.23125c-11.15068,-2.47505 -18.71299,-11.88663 -17.28095,-20.79704c0.09263,-0.57628 -3.89496,6.99053 21.53541,15.23787z" fill="url(#color-16)"/></g><path d="M102.66172,159.0415c-0.36426,3.92838 -5.5728,6.18123 -11.6336,5.03185c-6.06081,-1.14936 -10.67878,-5.2657 -10.31452,-9.19408c0.36426,-3.92838 5.5728,-6.18119 11.6336,-5.03184c6.06081,1.14938 10.67877,5.26567 10.31451,9.19405z" fill="url(#color-17)"/></g><g><g><path d="M37.11734,156.05188c5.62218,-12.6711 31.49017,-9.15734 33.84023,-0.40684c2.35006,8.7505 -4.20278,18.7589 -15.04782,22.16399c-32.1809,10.10405 -37.24749,-1.09311 -37.24749,-1.09311c0,0 13.33967,-9.13507 18.45509,-20.66404z" fill="#4ca04e"/><path d="M51.09729,172.63322c24.4633,-10.35698 19.70828,-17.55413 19.86027,-16.98819c2.35006,8.7505 -4.20278,18.7589 -15.04782,22.16399c-32.1809,10.10405 -37.24749,-1.09311 -37.24749,-1.09311c0,0 9.32711,5.7005 32.43503,-4.08268z" fill="url(#color-18)"/></g><path d="M37.51604,161.59235c-0.77015,-3.88041 3.40055,-8.36834 9.31555,-10.02408c5.915,-1.65575 11.33439,0.1477 12.10455,4.02812c0.77017,3.88041 -3.40056,8.36836 -9.31556,10.02409c-5.91499,1.65573 -11.33437,-0.14773 -12.10453,-4.02814z" fill="url(#color-19)"/></g><g><g><path d="M66.03962,197.53345c-0.94493,-5.35659 -1.49575,-11.79213 -1.49575,-18.71415c0,-18.64909 3.99809,-24.32686 8.92998,-24.32686c4.93191,0 8.92999,5.67778 8.92999,24.32686c0,6.92202 -0.55082,13.35757 -1.49575,18.71415c-1.60088,9.07493 -13.26762,9.07493 -14.86849,0z" fill="#e64e3d"/><path d="M64.54386,178.8193c0,-18.64909 3.99809,-24.32686 8.92998,-24.32686c4.93191,0 8.92999,5.67778 8.92999,24.32686c0,6.08576 -0.42576,11.79549 -1.1708,16.72653c-1.74107,-12.39002 -4.5679,-20.44739 -7.75919,-20.44739c-3.19128,0 -6.01812,8.05737 -7.75919,20.4474c-0.74503,-4.93105 -1.1708,-10.64079 -1.1708,-16.72654z" fill="url(#color-20)"/></g><g><path d="M73.47385,147.81946c6.88297,0 12.46273,4.08596 12.46273,9.12625c0,5.0403 -5.57974,6.57482 -12.46273,6.57482c-6.88298,0 -12.46273,-1.53452 -12.46273,-6.57482c0,-5.04029 5.57974,-9.12625 12.46273,-9.12625z" fill="#e64e3d"/><path d="M62.6451,152.42503c2.42983,3.34865 6.37497,5.52633 10.82875,5.52633c4.45376,0 8.39891,-2.17768 10.82875,-5.52633c1.03978,1.33271 1.63398,2.87588 1.63398,4.52069c0,5.0403 -5.57974,6.57482 -12.46273,6.57482c-6.88298,0 -12.46273,-1.53452 -12.46273,-6.57482c0,-1.64479 0.5942,-3.18797 1.63398,-4.52069z" fill="url(#color-21)"/></g></g></g><path d="M114.45406,131.09235c-5.78063,30.45507 -43.62039,13.85518 -43.62039,13.85518c0,0 -37.14128,17.53605 -43.62039,-12.74677c-12.03321,-56.2422 -7.26045,-79.02812 43.62039,-80.36004c46.5244,-1.21788 53.31381,28.18202 43.62039,79.25162z" fill="#e64e3d" stroke="#000000" stroke-width="0"/><g stroke="#000000" stroke-width="0"><path d="M73.22486,125.26528c27.03089,0 30.10531,1.34687 30.10531,3.00831c0,1.66144 -3.07442,3.00831 -30.10531,3.00831c-27.03091,0 -30.10531,-1.34687 -30.10531,-3.00831c0,-1.66144 3.07442,-3.00831 30.10531,-3.00831z" fill="url(#color-22)"/><path d="M98.5178,128.50719c-19.23201,0.62986 -42.35049,0.18529 -49.29504,0c-1.03306,-0.02755 -2.77866,-1.27275 -0.81648,-1.33702c8.42779,-0.27602 18.55844,0.21233 26.84167,0.13724c10.81579,-0.09804 19.12934,-0.68544 22.96366,-0.40465c0.9121,0.0668 1.6793,1.55946 0.30619,1.60443z" fill="#0b0403"/></g><g stroke="#000000" stroke-width="0"><path d="M86.09251,129.04442c-7.33143,0 -13.27473,-4.88764 -13.27473,-10.91683c0,-6.0292 5.94329,-10.91683 13.27473,-10.91683c7.33143,0 13.27473,4.88764 13.27473,10.91683c0,6.0292 -5.94329,10.91683 -13.27473,10.91683z" fill="url(#color-23)"/><path d="M75.7465,128.91353c-7.33143,0 -13.27473,-4.88764 -13.27473,-10.91683c0,-6.02918 5.94329,-10.9168 13.27473,-10.9168c7.33142,0 13.27473,4.88762 13.27473,10.9168c0,6.0292 -5.94329,10.91683 -13.27473,10.91683z" fill="url(#color-24)"/><path d="M82.05359,113.77322c10.8925,4.26069 21.81019,4.46686 21.81019,4.46686c0,0 -1.05714,4.19198 -18.96902,5.01663c-6.03633,0.27791 -10.77975,-2.07983 -10.77975,-5.15407c0,-3.07423 2.47891,-6.465 7.93858,-4.32941z" fill="#558856"/><path d="M74.115,118.10263c0,-0.19884 -1.44863,2.68348 12.53655,2.90666c13.21034,0.21083 17.21223,-2.76921 17.21223,-2.76921c0,0 -1.05714,4.19198 -18.96902,5.01663c-6.03633,0.27791 -10.77975,-2.07983 -10.77975,-5.15407z" fill="url(#color-25)"/></g><g stroke="#000000" stroke-width="0"><path d="M50.5659,118.86061c0,-6.0292 5.94329,-10.91683 13.27473,-10.91683c7.33143,0 13.27473,4.88764 13.27473,10.91683c0,6.0292 -5.94329,10.91683 -13.27473,10.91683c-7.33143,0 -13.27473,-4.88764 -13.27473,-10.91683z" fill="url(#color-26)"/><path d="M76.93231,118.10262c0,3.07424 -4.74341,5.43197 -10.77975,5.15407c-17.91188,-0.82465 -18.96902,-5.01663 -18.96902,-5.01663c0,0 10.91769,-0.20617 21.81019,-4.46686c5.45967,-2.1356 7.93858,1.25517 7.93858,4.32941z" fill="#558856"/><path d="M76.93229,118.10263c0,3.07424 -4.74341,5.43197 -10.77975,5.15407c-17.91188,-0.82465 -18.96902,-5.01663 -18.96902,-5.01663c0,0 4.0019,2.98004 17.21224,2.76921c13.98516,-0.22317 12.53653,-3.10548 12.53653,-2.90666z" fill="url(#color-27)"/></g><g><path d="M74.19222,92.29457c0,-11.93086 8.4553,-19.22444 18.88545,-19.22444c10.43015,0 18.88545,7.29358 18.88545,19.22443c0,11.93084 -8.4553,20.01719 -18.88545,20.01719c-10.43015,0 -18.88545,-8.08634 -18.88545,-20.01719z" fill="url(#color-28)" stroke="#000000" stroke-width="0"/><path d="M93.07768,76.14526c8.2149,0 14.87439,6.15047 14.87439,16.21141c0,10.06095 -6.65949,16.87992 -14.87439,16.87992c-8.2149,0 -14.87439,-6.81898 -14.87439,-16.87992c0,-10.06095 6.65949,-16.21141 14.87439,-16.21141z" fill="#000000" stroke="#000000" stroke-width="0"/><g><path d="M93.07767,79.82209c7.47647,0 13.53736,4.78369 13.53736,12.60887c0,7.82519 -6.06088,13.12883 -13.53736,13.12883c-7.47647,0 -13.53736,-5.30366 -13.53736,-13.12883c0,-7.82518 6.06088,-12.60887 13.53736,-12.60887z" fill="url(#color-29)" stroke="#000000" stroke-width="0"/><g fill="none" stroke="none" stroke-width="1" font-family="sans-serif" font-weight="normal" font-size="12" text-anchor="start"/><path d="M93.07768,105.55975c-5.56445,0 -10.34479,-2.93782 -12.42587,-7.66649c2.41515,2.38787 5.73542,3.86221 9.40004,3.86221c7.38416,0 13.37023,-5.98607 13.37023,-13.37023c0,-1.98473 -0.43247,-3.86845 -1.20828,-5.56208c2.70488,2.17934 4.40124,5.46793 4.40124,9.60778c0,7.82519 -6.06088,13.12883 -13.53736,13.12883z" fill="url(#color-30)" stroke="#000000" stroke-width="0"/><path d="M90.18555,80.63052c3.47057,0 6.28401,2.45429 6.28401,5.48179c0,3.02751 -2.81344,5.48179 -6.28401,5.48179c-3.47057,0 -6.28401,-2.45429 -6.28401,-5.48179c0,-3.02751 2.81344,-5.48179 6.28401,-5.48179z" fill="url(#color-31)" stroke="#000000" stroke-width="0"/></g></g><g><path d="M70.52619,92.29456c0,11.93085 -8.45531,20.01719 -18.88545,20.01719c-10.43015,0 -18.88545,-8.08635 -18.88545,-20.01719c0,-11.93085 8.4553,-19.22443 18.88545,-19.22443c10.43014,0 18.88545,7.29358 18.88545,19.22444z" fill="url(#color-32)" stroke="#000000" stroke-width="0"/><path d="M66.51512,92.35668c0,10.06093 -6.65949,16.87992 -14.87439,16.87992c-8.2149,0 -14.87439,-6.81897 -14.87439,-16.87992c0,-10.06093 6.65949,-16.21141 14.87439,-16.21141c8.2149,0 14.87439,6.15046 14.87439,16.21141z" fill="#000000" stroke="#000000" stroke-width="0"/><g><path d="M65.1781,92.43095c0,7.82518 -6.06088,13.12883 -13.53736,13.12883c-7.47647,0 -13.53736,-5.30364 -13.53736,-13.12883c0,-7.82518 6.06088,-12.60887 13.53736,-12.60887c7.47647,0 13.53736,4.78369 13.53736,12.60887z" fill="url(#color-33)" stroke="#000000" stroke-width="0"/><g fill="none" stroke="none" stroke-width="1" font-family="sans-serif" font-weight="normal" font-size="12" text-anchor="start"/><path d="M51.64074,105.55978c-7.47647,0 -13.53736,-5.30364 -13.53736,-13.12883c0,-4.13985 1.69636,-7.42844 4.40123,-9.60778c-0.77582,1.69364 -1.20827,3.57735 -1.20827,5.56208c0,7.38416 5.98607,13.37023 13.37023,13.37023c3.66462,0 6.98489,-1.47434 9.40004,-3.86221c-2.08108,4.72867 -6.86142,7.66649 -12.42587,7.66649z" fill="url(#color-34)" stroke="#000000" stroke-width="0"/><path d="M60.81688,86.11232c0,3.0275 -2.81344,5.48179 -6.28401,5.48179c-3.47057,0 -6.28401,-2.45428 -6.28401,-5.48179c0,-3.0275 2.81344,-5.48179 6.28401,-5.48179c3.47057,0 6.28401,2.45428 6.28401,5.48179z" fill="url(#color-35)" stroke="#000000" stroke-width="0"/></g></g><g stroke="#000000" stroke-width="0"><g><path d="M114.45406,131.09235c-5.78063,30.45507 -43.62039,13.85518 -43.62039,13.85518c0,0 -37.14128,17.53605 -43.62039,-12.74677c-12.03321,-56.2422 -7.26045,-79.02812 43.62039,-80.36004c46.5244,-1.21788 53.31381,28.18202 43.62039,79.25162zM89.02302,70.90858c-0.26607,-0.12195 -0.51922,-0.24826 -0.76245,-0.37744c-1.27053,-1.09059 -2.74815,-1.94675 -4.3658,-2.50136c-1.07282,-0.45434 -2.33645,-0.77144 -4.05165,-0.82054c-6.2786,-0.17974 -11.62062,2.93224 -17.50876,3.6664c-8.91199,1.11119 -22.85154,3.10866 -27.55098,11.97037c-4.29335,8.09597 -3.43907,18.94256 -1.45619,27.69761c2.0194,8.91628 5.0294,15.87062 12.17249,21.09206c6.98144,5.10329 15.20673,-0.9144 22.30989,-0.80687c12.29872,0.18621 19.14251,7.37257 31.31333,-1.41747c19.40376,-14.01384 7.48805,-46.68932 -9.43879,-57.97388z" fill="url(#color-36)"/><path d="M102.26024,127.18244c1.63978,-5.73921 5.17544,-9.76138 7.89714,-8.98375c2.72169,0.77763 3.59876,6.06059 1.95898,11.79979c-1.63978,5.73923 -5.17544,9.76138 -7.89714,8.98375c-2.72169,-0.77763 -3.59876,-6.06057 -1.95898,-11.79978z" fill="url(#color-37)"/><path d="M101.22254,129.73532c2.08931,0.59694 2.76257,4.65236 1.50381,9.05804c-1.25877,4.40568 -3.97291,7.49327 -6.0622,6.89633c-2.08931,-0.59694 -2.76257,-4.65236 -1.50381,-9.05804c1.25879,-4.40568 3.97291,-7.49327 6.0622,-6.89633z" fill="url(#color-38)"/><path d="M25.63513,81.81371c1.25877,-4.40568 3.9729,-7.49327 6.06218,-6.89633c2.08931,0.59694 2.76257,4.65236 1.50381,9.05804c-1.25877,4.40568 -3.97292,7.49327 -6.0622,6.89633c-2.08929,-0.59694 -2.76256,-4.65236 -1.5038,-9.05804z" fill="url(#color-39)"/></g><path d="M25.85273,82.24034c1.59991,0 2.89689,4.24013 2.89689,9.47057c0,5.23045 -1.29698,9.47057 -2.89689,9.47057c-1.59991,0 -2.89689,-4.24013 -2.89689,-9.47057c0,-5.23045 1.29698,-9.47057 2.89689,-9.47057z" fill="url(#color-40)"/><path d="M23.41145,107.57462c-0.3394,-3.20079 0.17915,-5.87974 1.15822,-5.98354c0.97907,-0.10381 2.0479,2.40679 2.3873,5.60759c0.33939,3.2008 -0.17915,5.87974 -1.15822,5.98354c-0.97906,0.10381 -2.0479,-2.40678 -2.3873,-5.60758z" fill="url(#color-41)"/></g><g stroke="#000000" stroke-width="0"><g><g><g><path d="M119.55418,65.43652c-4.16031,15.2996 -19.491,24.45072 -34.24206,20.43957c-14.75105,-4.01115 -23.33651,-19.66563 -19.17619,-34.96524c4.16033,-15.29961 19.49099,-24.45072 34.24205,-20.43957c14.75104,4.01115 23.33653,19.66562 19.1762,34.96523z" fill="url(#color-42)"/><path d="M98.82804,59.44388c-4.16031,15.2996 -19.491,24.45072 -34.24206,20.43957c-14.75104,-4.01115 -23.33653,-19.66563 -19.1762,-34.96524c4.16033,-15.29961 19.49099,-24.45072 34.24205,-20.43957c14.75105,4.01115 23.33655,19.66562 19.17622,34.96523z" fill="url(#color-43)"/><path d="M100.44772,46.52691c14.41318,4.67698 28.07602,21.65514 28.07602,21.65514c0,0 -5.0196,10.05915 -41.62781,2.35188c-12.33705,-2.59736 -20.25401,-11.17555 -18.1327,-18.97669c2.1213,-7.80114 17.27132,-9.7073 31.68449,-5.03032z" fill="#4ca04e"/><path d="M91.98142,65.79208c26.43408,7.76259 36.54232,2.38997 36.54232,2.38997c0,0 -5.0196,10.05915 -41.62781,2.35188c-12.33705,-2.59736 -20.25401,-11.17555 -18.1327,-18.97669c0.1372,-0.50456 -4.76637,6.01697 23.21819,14.23484z" fill="url(#color-44)"/></g><path d="M106.54062,55.55333c-0.63628,3.44928 -6.59732,5.24104 -13.31435,4.00196c-6.71705,-1.23907 -11.64647,-5.03974 -11.01019,-8.48903c0.63628,-3.44928 6.59732,-5.24102 13.31435,-4.00195c6.71705,1.23908 11.64647,5.03973 11.01019,8.48902z" fill="url(#color-45)"/></g><g><g><path d="M54.77754,87.8283c-14.7849,3.88455 -30.03657,-5.39764 -34.06558,-20.73235c-4.02902,-15.3347 4.69033,-30.91503 19.47523,-34.79957c14.78489,-3.88455 30.03656,5.39767 34.06557,20.73237c4.02901,15.3347 -4.69033,30.91501 -19.47522,34.79956z" fill="url(#color-46)"/><path d="M73.3771,51.19784c2.05436,7.81905 -5.93584,16.32904 -18.2947,18.82056c-36.67295,7.39318 -41.60613,-2.70863 -41.60613,-2.70863c0,0 7.78989,-15.067 27.02411,-20.85841c19.23422,-5.79141 30.82236,-3.07259 32.87672,4.74647z" fill="#4ca04e"/><path d="M73.3771,51.19783c2.05436,7.81905 -5.93584,16.32904 -18.2947,18.82056c-36.67295,7.39318 -41.60613,-2.70863 -41.60613,-2.70863c0,0 10.06181,5.45909 36.56148,-2.07661c28.05399,-7.97769 23.20649,-14.54102 23.33936,-14.03532z" fill="url(#color-47)"/></g><path d="M52.00138,47.0643c6.71704,-1.23907 12.67807,0.55267 13.31435,4.00195c0.63628,3.44929 -4.29316,7.24996 -11.01019,8.48903c-6.71704,1.23907 -12.67807,-0.55269 -13.31435,-4.00196c-0.63628,-3.4493 4.29315,-7.24995 11.01019,-8.48902z" fill="url(#color-48)"/></g></g><g><path d="M27.78202,52.05262c-0.21862,-5.4005 17.46426,-10.50146 39.49582,-11.39333c22.03157,-0.89187 40.06891,2.7631 40.28752,8.1636c0.21862,5.4005 -17.46426,10.50145 -39.49582,11.39332c-22.03157,0.89186 -40.06891,-2.7631 -40.28752,-8.1636z" fill="url(#color-49)"/><g><g><g><path d="M105.41067,44.57593c-3.05543,1.32274 -19.19846,-1.26396 -36.73512,0.14814c-17.65271,1.42144 -36.69492,6.83558 -38.32599,6.30813c-0.75151,-0.24302 -4.09863,-30.79241 -2.42867,-31.51537c5.89148,-2.55054 38.51083,3.28376 38.51083,3.28376c0,0 34.70779,-4.86166 37.94301,-3.81545c2.2478,0.72693 2.87057,24.79652 1.03594,25.59078z" fill="#533737"/><path d="M105.41068,44.57593c-3.05543,1.32274 -19.19846,-1.26396 -36.73512,0.14814c-17.65271,1.42144 -36.69492,6.83558 -38.32599,6.30813c-0.75151,-0.24302 -4.09863,-30.79241 -2.42867,-31.51537c5.89147,-2.55054 41.99733,6.92685 41.99733,6.92685c0,0 31.22128,-8.50475 34.4565,-7.45854c2.2478,0.72693 2.87057,24.79652 1.03594,25.59078z" fill="#3b2727"/></g><path d="M105.41067,44.57593c-3.05543,1.32274 -19.19846,-1.26396 -36.73512,0.14814c-17.65271,1.42144 -36.69492,6.83558 -38.32599,6.30813c-0.61503,-0.19889 -2.96855,-20.69639 -2.88768,-28.53077c6.60538,6.5164 17.65516,13.45073 27.38873,13.55192c16.10889,3.82105 35.84946,1.89901 47.06602,-8.83014c1.45323,-1.3901 2.73039,-2.73665 3.82147,-4.07718c1.04219,7.10417 1.05065,20.83328 -0.32744,21.42989z" fill="url(#color-50)"/></g><path d="M111.58365,49.10542c-3.5832,0.45745 -23.48015,-0.2192 -43.82159,0.78718c-20.47604,1.01305 -41.39159,3.70739 -43.25963,3.62838c-0.8607,-0.03641 -3.62468,-7.91881 -1.66629,-8.16883c6.90911,-0.88205 27.94768,-2.63684 46.39503,-3.16821c20.50581,-0.59066 38.37736,0.09762 42.08259,0.25432c2.57437,0.10888 2.42141,6.39247 0.26989,6.66714z" fill="#4f3434"/></g></g></g></g></g></svg>