<svg version="1.1" xmlns="http://www.w3.org/2000/svg" xmlns:xlink="http://www.w3.org/1999/xlink" width="803.04805" height="418.16817" viewBox="0,0,803.04805,418.16817"><defs><linearGradient x1="538.5732" y1="246.72281" x2="538.5732" y2="292.72281" gradientUnits="userSpaceOnUse" id="color-1"><stop offset="0" stop-color="#000000" stop-opacity="0.48235"/><stop offset="1" stop-color="#000000" stop-opacity="0"/></linearGradient><linearGradient x1="403.48987" y1="250.32191" x2="403.48987" y2="282.57192" gradientUnits="userSpaceOnUse" id="color-2"><stop offset="0" stop-color="#412b15"/><stop offset="1" stop-color="#2c1d0e"/></linearGradient><linearGradient x1="674.82321" y1="250.32191" x2="674.82321" y2="282.57192" gradientUnits="userSpaceOnUse" id="color-3"><stop offset="0" stop-color="#412b15"/><stop offset="1" stop-color="#2c1d0e"/></linearGradient><linearGradient x1="538.71547" y1="77.7228" x2="538.71547" y2="243.40095" gradientUnits="userSpaceOnUse" id="color-4"><stop offset="0" stop-color="#000000" stop-opacity="0.48235"/><stop offset="1" stop-color="#000000" stop-opacity="0"/></linearGradient><linearGradient x1="403.0488" y1="77.82191" x2="403.0488" y2="243.50005" gradientUnits="userSpaceOnUse" id="color-5"><stop offset="0" stop-color="#412b15"/><stop offset="1" stop-color="#2c1d0e"/></linearGradient><linearGradient x1="674.38214" y1="77.82191" x2="674.38214" y2="243.50005" gradientUnits="userSpaceOnUse" id="color-6"><stop offset="0" stop-color="#412b15"/><stop offset="1" stop-color="#2c1d0e"/></linearGradient><linearGradient x1="-40.86111" y1="179.24932" x2="-1.11111" y2="179.24932" gradientUnits="userSpaceOnUse" id="color-7"><stop offset="0" stop-color="#000000"/><stop offset="1" stop-color="#000000" stop-opacity="0"/></linearGradient><linearGradient x1="762.14715" y1="180.00007" x2="722.39715" y2="180.00007" gradientUnits="userSpaceOnUse" id="color-8"><stop offset="0" stop-color="#000000"/><stop offset="1" stop-color="#000000" stop-opacity="0"/></linearGradient><linearGradient x1="357.78145" y1="387.95803" x2="357.78145" y2="367.2953" gradientUnits="userSpaceOnUse" id="color-9"><stop offset="0" stop-color="#000000"/><stop offset="1" stop-color="#000000" stop-opacity="0"/></linearGradient><linearGradient x1="359.21556" y1="-29.45939" x2="359.21556" y2="-8.79666" gradientUnits="userSpaceOnUse" id="color-10"><stop offset="0" stop-color="#000000"/><stop offset="1" stop-color="#000000" stop-opacity="0"/></linearGradient></defs><g transform="translate(40.9009,29.45939)"><g stroke-miterlimit="10"><path d="M-39.39939,386.45648v-412.91291h798.7988v412.91291z" fill="#3b5ec7" stroke="#2b2b2b" stroke-width="0"/><path d="M-40.90089,265.33484v-136.63664h798.7988v136.63664z" fill="#1d48c7" stroke="#2b2b2b" stroke-width="0"/><g fill="#000000" stroke="none" stroke-width="0.5"><g><g><path d="M58.58692,85.58047c-2.48368,1.23537 -5.06524,-1.92425 -6.45322,-3.38566c-1.15,-2.36737 -2.14289,-5.004 -1.67282,-7.69507c0.41261,-2.36208 2.03363,-4.73718 2.96164,-6.95421c1.02128,-2.43984 1.28948,-4.18963 3.65834,-5.70424c2.71659,-2.17754 5.39944,-3.15425 8.73445,-3.968c0.52378,-0.1278 0.94856,-0.52572 1.46033,-0.69532c2.59857,-0.86117 5.56962,-1.14742 8.29694,-1.09302c1.83208,0.03655 4.69971,0.33239 6.20932,1.58855c2.48052,2.06408 0.95252,5.68464 -0.89808,7.49079c-0.08387,0.45557 -0.32529,0.99528 -0.39326,1.22889c-0.50817,1.7468 -0.64835,3.00557 -1.75482,4.50555c-4.64616,0.25671 -9.51966,0.50481 -13.97193,1.99864c-1.10467,0.37064 -2.77705,0.6909 -3.62113,1.60579c-0.25818,0.27984 -0.04359,0.76045 -0.05002,1.14114c0,0 -0.00718,0.36033 -0.28693,0.52266c0.55266,0.21123 0.35213,0.77504 0.35213,0.77504l-0.09451,0.17195c-0.02938,1.47253 -0.25725,3.11673 -0.09593,4.57898c0.33643,3.04954 3.20575,5.18431 5.82978,6.22259c3.40049,0.74516 7.71904,0.89013 11.02469,-0.14807c1.90599,-0.59861 3.41174,-1.41254 3.80778,-3.55522c0.03969,-2.44559 0.13429,-4.89741 -0.21275,-7.31156c-0.25468,-1.7716 -1.65651,-3.09258 -1.62806,-4.9266c0,0 0.01221,-0.61235 0.62457,-0.60013c0.61235,0.01221 0.60014,0.62457 0.60014,0.62457c-0.04187,1.65185 1.36383,3.03126 1.61058,4.69455c0.37387,2.5201 0.28299,5.09221 0.22404,7.64455c-1.05407,5.57735 -7.80519,5.30716 -12.23146,5.21887c-1.49201,-0.02976 -2.72366,-0.14612 -4.17708,-0.46935c-2.69117,-1.05485 -5.43502,-3.06388 -6.38603,-5.90207c-0.28864,0.97018 -0.75805,2.04294 -1.46669,2.39541zM81.0423,58.64998c-1.31982,-1.10219 -3.88134,-1.30815 -5.49415,-1.34032c-2.58637,-0.05159 -5.40652,0.21267 -7.87032,1.02536c-0.54332,0.17921 -1.00199,0.58164 -1.55604,0.72427c-3.19378,0.82218 -5.70683,1.68464 -8.32777,3.77795c-2.15956,1.37574 -2.30338,2.93487 -3.24135,5.18081c-0.87893,2.10456 -2.49019,4.41823 -2.87923,6.65558c-0.41603,2.39258 0.48933,4.706 1.4681,6.82491c1.03806,1.06642 3.05586,3.75671 4.93689,2.96752c0.55499,-0.23285 0.97052,-2.20449 1.06483,-2.72258l0.13674,-0.61957c0,0 0.08132,-0.36822 0.40527,-0.463c-0.0067,-1.18714 0.13061,-2.4297 0.15339,-3.57138l0.16508,-0.55798c0,0 0.07106,-0.19983 0.24714,-0.32248c-0.39202,-0.13241 -0.38291,-0.58919 -0.38291,-0.58919c0.01002,-0.4432 -0.02142,-1.43584 0.25356,-1.79328c0.93156,-1.21092 2.91302,-1.64296 4.25338,-2.09081c3.10252,-1.03664 6.76365,-1.74744 10.24613,-1.9286c-0.05451,-0.13894 -0.05199,-0.2651 -0.05199,-0.2651c0.01954,-0.97977 0.03908,-1.95953 0.05862,-2.9393l0.01466,-0.73483c0,0 0.01222,-0.61236 0.62457,-0.60014c0.61235,0.01221 0.60014,0.62457 0.60014,0.62457c-0.01954,0.97977 -0.05374,2.69436 -0.07329,3.67413c0,0 -0.00179,0.09012 -0.03858,0.20052c0.81883,-0.01502 1.62294,0.00134 2.40232,0.05182c0.50612,-0.88854 0.6639,-1.74433 0.90675,-2.74121c0.08405,-0.34502 0.15362,-0.69389 0.25258,-1.03493c0.07137,-0.24593 0.12694,-0.50356 0.25777,-0.72369c0.04087,-0.06876 0.30381,-0.08778 0.22382,-0.0866c-5.47041,0.08021 -10.8637,-0.50056 -16.21639,1.22781c0.14063,0.18151 0.13597,0.41501 0.13597,0.41501c-0.02931,1.46965 -0.06107,3.06178 -0.09039,4.53143c0,0 -0.01222,0.61235 -0.62457,0.60014c-0.61235,-0.01221 -0.60014,-0.62457 -0.60014,-0.62457c0.02931,-1.46965 0.05863,-2.9393 0.08794,-4.40895l0.00244,-0.12247c0,0 0.00011,-0.00575 0.00088,-0.01611c-1.21028,0.43465 -2.98771,1.14578 -3.59783,1.91262c-0.22189,0.27889 -0.1438,1.35056 -0.14558,1.4594c-0.01857,1.13286 -0.06871,2.22818 0.05086,3.35558l0.00077,0.19852c0,0 -0.01222,0.61236 -0.62457,0.60014c-0.61235,-0.01221 -0.60014,-0.62457 -0.60014,-0.62457l0.00566,-0.04642c-0.154,-1.4861 -0.58862,-4.42905 0.3603,-5.71263c0.84049,-1.1369 3.5109,-2.07789 4.79556,-2.52656c4.26049,-1.47908 8.67355,-1.63658 13.15662,-1.64051c1.17079,-0.00103 2.20858,0.01305 3.32547,0.32528c0.26454,0.07395 0.56777,0.07456 0.85246,0.10713c1.281,-1.28112 2.79323,-4.06891 0.96857,-5.5927z"/><path d="M78.70894,76.97585c0.61235,0.01221 0.60014,0.62457 0.60014,0.62457c-0.02362,1.18389 -0.04967,2.49024 -0.07329,3.67413c0,0 -0.01221,0.61236 -0.62457,0.60014c-0.61235,-0.01221 -0.60014,-0.62457 -0.60014,-0.62457c0.02362,-1.18389 0.04723,-2.36777 0.07085,-3.55165l0.00245,-0.12247c0,0 0.01222,-0.61236 0.62457,-0.60014z"/><path d="M78.53793,85.54882c-0.01222,0.61236 -0.62457,0.60014 -0.62457,0.60014l-0.1255,-0.01422c-1.897,0.3373 -3.79443,0.77433 -5.73569,0.50071c-3.12331,-0.44022 -6.65388,-2.02328 -9.07391,-4.04041c-0.0887,0.15542 -0.16652,0.3214 -0.22794,0.50471c0,0 -0.20523,0.57707 -0.7823,0.37184c-0.57707,-0.20523 -0.37184,-0.7823 -0.37184,-0.7823c0.34337,-0.92588 0.96651,-1.43215 1.43515,-2.27398l0.11818,-0.22568c0,0 0.28478,-0.54224 0.82702,-0.25746c0.54224,0.28478 0.25747,0.82703 0.25747,0.82703l-0.13653,0.25932c-0.12148,0.21196 -0.25768,0.40182 -0.39709,0.58356c0.69338,0.594 1.41592,1.10894 2.16276,1.54961c-0.04499,-0.19554 0.01952,-0.3769 0.01952,-0.3769c0.51173,-1.41635 0.45133,-2.87006 0.80471,-4.33382l-0.01479,0.01008c0,0 0.01222,-0.61236 0.62457,-0.60014c0.61235,0.01221 0.60014,0.62457 0.60014,0.62457l-0.01967,0.25502c-0.36998,1.50861 -0.32315,2.97881 -0.84083,4.45477c0,0 -0.11003,0.30937 -0.39548,0.39451c3.34541,1.71094 7.1259,2.02569 10.9321,1.34893l0.36437,-0.00445c0,0 0.61236,0.01221 0.60014,0.62457z"/><path d="M69.481,77.35304c-0.20523,0.57707 -0.7823,0.37184 -0.7823,0.37184l-0.81347,-0.29653c-0.82521,-0.60704 -1.65457,-1.20726 -2.48506,-1.80707c0,0 -0.49653,-0.3586 -0.13792,-0.85512c0.3586,-0.49652 0.85512,-0.13792 0.85512,-0.13792c0.78677,0.56823 1.57121,1.13471 2.34537,1.71984l0.64641,0.22267c0,0 0.57707,0.20523 0.37184,0.7823z"/><path d="M76.94469,74.27298c0.32951,0.51628 -0.18678,0.84579 -0.18678,0.84579l-0.23127,0.1134c-0.48507,0.57918 -0.86255,1.05079 -1.01624,1.80002c0,0 -0.13207,0.59807 -0.73014,0.466c-0.59807,-0.13207 -0.466,-0.73014 -0.466,-0.73014c0.21855,-0.94068 0.65983,-1.58286 1.2713,-2.32003l0.51333,-0.36182c0,0 0.51629,-0.32951 0.8458,0.18677z"/></g><path d="M105.64589,95.19046c-0.09416,-2.12265 -0.49309,-4.48748 0.70896,-6.25917c-0.01425,-0.02411 -0.02835,-0.04882 -0.0423,-0.07416c-1.00935,-1.83267 0.75765,-1.24302 0.94291,-2.28701c0.13828,-0.77927 -1.21628,-1.46898 -1.9888,-1.29695c-0.74192,0.16522 -0.47758,1.44816 -0.81131,2.13106c-0.78558,1.76797 -2.08007,6.87255 -4.00713,7.77033c-0.91729,0.42735 -3.84408,-0.41458 -4.87719,-0.55868c-3.73726,-0.52127 -7.60631,-1.60649 -11.40271,-1.89226c0.36446,1.53856 -0.07952,4.58945 -0.07952,5.67983c0,4.83334 0,9.66666 0,14.5c0,1.21842 0.29073,4.50968 -0.97814,5.2751c-1.5757,0.95052 -6.06091,0.19278 -8.05203,0.47302c-2.7955,0.00339 -5.591,0.00189 -8.3865,0.00189c-0.70353,0 -3.43085,0.24381 -4.02056,-0.08874c-1.66839,-0.94086 -1.05587,-3.26877 -0.91718,-4.72561c0.05081,-0.53372 0.12569,-1.05718 0.21873,-1.57283c-0.15143,0.05385 -0.28099,0.05385 -0.28099,0.05385l-0.51524,-0.0224c-0.58564,-0.20611 -1.35721,-0.14327 -1.75691,-0.61834c-0.87494,-1.03992 0.91745,-3.08443 0.40849,-3.91227c-0.39541,-0.64314 -1.50663,0.30874 -2.25514,0.2102c-0.83363,-0.10975 -1.63726,-0.40565 -2.4732,-0.49613c-0.67992,-0.16895 -1.61091,0.04716 -2.03975,-0.50684c-0.79366,-1.02527 1.56593,-3.55105 2.06368,-4.22994c1.74797,-2.38407 3.74642,-4.6412 5.18399,-7.22728c0.42669,-0.76759 1.74073,-3.28393 2.63532,-3.5603c0.48804,-0.15077 0.90261,-0.18779 1.25439,-0.1367c4.83146,0 9.66291,0 14.49437,0c0.4686,0 1.76074,-0.14418 2.94938,-0.1659c0.14435,-0.50077 0.7173,-0.50077 0.7173,-0.50077c4.45642,0.00804 9.02032,1.36043 13.43945,1.97682c0.66065,0.09215 3.49107,0.93872 4.03652,0.68461c0.5484,-0.25549 0.59054,-1.05654 0.862,-1.59722c0.88759,-1.76775 1.61547,-3.63955 2.41912,-5.44738c0.1821,-0.37278 1.3,-2.7912 1.64836,-2.9032c1.19628,-0.38462 3.92642,1.43379 4.0112,2.70305c0.04261,0.63802 -1.34282,1.14479 -1.10453,1.63985c0.0718,0.03697 0.145,0.08996 0.21819,0.16315c0.04673,0.04673 0.08522,0.09346 0.11657,0.13983c0.85249,0.42879 2.38545,-0.42846 3.22815,0.53849c1.4437,1.65655 0.4731,3.55707 0.20103,5.28937c-0.08822,0.56175 0.22127,1.27467 -0.15771,1.69861c-1.56162,1.74686 -6.7955,0.94737 -8.91836,0.94737h-0.66667c0,0 -0.75,0 -0.75,-0.75c0,-0.75 0.75,-0.75 0.75,-0.75h0.66667c1.19846,0 2.37239,0.00624 3.54223,-0.03828zM107.03171,94.61643l0.50409,0.42335c0,0 0.11384,0.11384 0.1833,0.28879c0.44072,-0.04264 0.88238,-0.0967 1.32606,-0.16521c0.34386,-0.05309 0.81538,0.20152 1.04194,-0.06255c0.21289,-0.24814 -0.17744,-0.64171 -0.15772,-0.96806c0.08472,-1.40234 1.13055,-2.62132 0.20103,-4.04395c-0.47884,-0.73286 -1.58522,-0.09771 -2.58666,-0.27747c-0.9094,1.30159 -0.38665,3.23915 -0.51203,4.8051zM62.37167,106.15344c0.10016,-0.17263 0.28662,-0.33333 0.63379,-0.33333c0.32061,0 0.50417,0.13706 0.60925,0.29399c0.3571,-1.23885 0.67507,-2.493 0.86041,-3.80165c0.3197,-2.20099 0.09691,-4.51957 0.11367,-6.74234c0.00185,-0.2446 0.08392,-1.85036 -0.45403,-2.25c-0.15422,0 -0.30842,0 -0.46264,0c0,0 -0.047,-0.00001 -0.11747,-0.01177c-0.03011,0.01413 -0.06108,0.03027 -0.09295,0.04854c-0.589,0.33763 -1.57331,2.36798 -1.86243,2.8887c-0.99441,1.79102 -2.25901,3.35928 -3.48833,4.9948c-0.89829,1.1951 -1.79127,2.39034 -2.66445,3.60387c-0.34013,0.47271 -1.71941,1.24126 -1.14262,1.32165c0.31632,0.04408 0.62793,-0.11704 0.9419,-0.17555c0.54166,0.06158 3.03033,0.1847 4.51648,0.40735c0.22152,-0.24425 0.57654,-0.24425 0.57654,-0.24425c0.67762,0 1.35525,0 2.03288,0zM63.00546,107.65344c-0.58787,0 -1.17575,0 -1.76362,0c0.10195,1.47346 -1.45645,3.09689 0.27886,3.18906l0.15143,-0.02239c0,0 0.31786,0 0.53972,0.20692c0.30002,-1.27689 0.6856,-2.51676 1.06098,-3.75978zM65.76137,93.32011c0.25079,0.70821 0.32274,1.54739 0.32743,2.25c0.00668,0.99998 0,2 0,3c0,1.32781 0.05652,2.63817 -0.12874,3.95448c-0.57078,3.96362 -2.34685,7.40968 -2.73242,11.45672c-0.03995,0.41926 -0.62266,2.98592 0.13173,3.26088c0.54115,0.19724 2.81698,-0.08875 3.31277,-0.08875c2.76005,0 5.52012,-0.00171 8.28017,0.00189c1.9201,-0.2789 5.6862,0.46501 7.2813,-0.19366c0.53244,-0.21986 0.3552,-3.56522 0.3552,-4.05823c0,-4.83334 0,-9.66666 0,-14.5c0,-1.14737 0.61162,-4.38845 0.21967,-5.303c-0.21679,-0.50584 -1.086,0.21967 -1.63634,0.21967c-0.83334,0 -1.66666,0 -2.5,0c-4.30358,0 -8.60717,0 -12.91075,0z"/><path d="M149.38046,87.15344c-0.75,0 -0.75,-0.75 -0.75,-0.75l0.07918,-0.16459c-0.34824,-1.08679 -0.71106,-0.58541 -2.07918,-0.58541c-1.89745,0 -5.73236,-0.732 -7.50365,0.06226c-0.36126,0.16199 -0.00071,0.79185 0.00365,1.18774c0,0 0,0.75 -0.75,0.75c-0.75,0 -0.75,-0.75 -0.75,-0.75c0.0054,-0.62497 -0.12403,-1.84108 0.50365,-2.31225c1.67612,-1.25817 6.5267,-0.43775 8.49635,-0.43775c0.0259,0 2.42606,-0.04871 2.6443,0.11201c0.40703,0.29976 0.51768,0.86838 0.77652,1.30258l0.07918,0.83541c0,0 0,0.75 -0.75,0.75z"/><path d="M125.10661,50.4658c0.01388,0.0537 0.02275,0.10445 0.0273,0.1524c3.78948,-1.44737 9.00367,-1.81924 12.22055,0.16652c0.04887,-0.11929 0.10945,-0.23395 0.18485,-0.34284c0.69801,-1.00802 3.60195,-0.53844 4.59115,-0.53844c3.72726,0 7.30801,0.0979 11.00989,0.57641c2.15797,0.3685 6.19167,0.18025 7.32996,2.43622c0.04917,-0.0082 0.10244,-0.01264 0.16014,-0.01264c0.75,0 0.75,0.75 0.75,0.75c-0.1476,8.69272 12.30548,9.75997 18.75,9.75c0.3407,0.02728 0.90769,0.25477 1.05709,-0.28701c0.13311,-0.4827 -0.26731,-1.2366 0.16258,-1.49332c0.70691,-0.42215 1.75101,-0.48135 2.46886,-0.0781c0.71411,0.40115 -0.01926,1.87994 0.63403,2.374c1.71638,1.29804 5.33137,-1.67692 6.62035,1.19742c0.99103,2.20993 -1.92126,2.52189 -3.19291,2.53701c-2.90179,0.0345 -5.03352,0.307 -7.21234,-1.89281l-0.32515,-0.33413c0,0 -0.21778,-0.22379 -0.22789,-0.52309c-7.05311,-0.01195 -18.40819,-1.29771 -20.03815,-9.34521c-0.61239,1.42194 -1.51464,3.04118 -1.72508,3.80045c-0.91848,3.31385 -0.4128,7.43441 -0.72446,10.86269c0,0 -0.02311,0.25424 -0.1907,0.45258c0.70058,0.57954 1.20508,1.32248 1.37847,2.28768c0.44974,-0.23439 0.84563,0.16151 0.84563,0.16151l-0.28033,0.03033c1.85771,0.02822 4.57208,1.08012 5.44291,2.96299c0.52874,1.14322 0.05709,3.48218 0.05709,4.78701c0,0 0,0.75 -0.75,0.75c-0.75,0 -0.75,-0.75 -0.75,-0.75c0,-3.10014 0.16101,-6.33435 -4,-6.25l-0.72836,-0.43839c-0.11109,0.10807 -0.2762,0.18839 -0.52164,0.18839c-0.75,0 -0.75,-0.75 -0.75,-0.75c0.0632,-2.84032 -4.69618,-3.34424 -6.84532,-3.67897l-1.44259,-0.07198c0,0 -0.74904,-0.0379 -0.71114,-0.78694c0.0379,-0.74904 0.78695,-0.71114 0.78695,-0.71114l1.52028,0.07794c1.63207,0.25407 3.77759,0.5749 5.46355,1.38672c0.28549,-3.5 -0.14713,-7.54778 0.75689,-10.92084c0.30362,-1.13288 0.78122,-2.70538 1.26255,-3.7773c0.26007,-0.57917 1.18992,-1.04368 0.96988,-1.63921c-0.4974,-1.34619 -4.97066,-1.35423 -6.2236,-1.56845c-3.62843,-0.46825 -7.13379,-0.55983 -10.78746,-0.55983c-0.16034,0 -3.39157,-0.09358 -3.40885,-0.03844c-1.31865,4.20921 -2.984,9.49884 -3.08578,14.05547c-0.0018,0.32903 -0.00359,0.65805 -0.00539,0.98708l0.17083,0.16048c0,0 0.33541,0.67082 -0.33541,1.00623c-0.67082,0.33541 -1.00623,-0.33541 -1.00623,-0.33541l-0.32917,-0.83952c0.00184,-0.33325 0.00367,-0.6665 0.00551,-0.99975c0.09545,-4.25864 1.59179,-7.77686 2.83652,-11.78304c0.11321,-0.36437 0.14036,-0.75869 0.15566,-1.15532c-3.67915,-3.03609 -10.50921,-1.13469 -14.3899,1.0404c-0.92136,0.51641 -1.59738,1.04472 -2.21716,1.51757l0.75249,0.49837c1.19253,2.06359 1.81401,4.7362 -1.45179,4.88357c-1.38611,0.06255 -1.56529,-1.58052 -2.09386,-1.86487c-0.59993,-0.32274 -2.2836,2.39293 -2.52936,2.54636c-0.9538,0.5955 -5.16753,-0.02684 -5.53175,-0.94848c-0.24578,-0.62195 0.54874,-1.22529 0.91049,-1.78775c1.31632,-2.04662 3.2097,-3.19297 5.55314,-3.19297c2.73008,0 4.17687,-1.78361 6.43588,-3.24409c-0.67471,0.18003 -1.35435,0.3423 -2.03879,0.47952c0,0 -0.73544,0.14709 -0.88252,-0.58835c-0.14709,-0.73544 0.58835,-0.88252 0.58835,-0.88252c0.8896,-0.17746 1.77039,-0.40082 2.64252,-0.65035l1.31693,-0.34036c0,0 0.72615,-0.18764 0.91379,0.53851zM181.6137,64.58152l0.12942,0.13299c1.35283,1.42032 6.29796,2.64093 7.96653,1.10353c0.25495,-0.2349 -4.27033,-0.34153 -4.65308,-0.41824c-0.59551,-0.11935 -1.29089,-0.11276 -1.74866,-0.51192c-0.59786,-0.52132 -0.60448,-2.94137 -0.89711,-2.2041c-0.37352,0.9411 -0.29065,1.55609 -0.79709,1.89774zM119.38203,55.82238c-0.82756,0.50145 -1.76377,0.83106 -3.25157,0.83106c-2.19123,0 -2.81692,1.13844 -4.36742,2.6117c-0.18929,0.17986 -0.77801,0.17034 -0.66895,0.40759c0.21552,0.46888 1.03198,-0.0242 1.548,-0.01919c0.25505,0.00247 1.75905,0.19558 1.92025,0.07072c0.81946,-0.63474 0.78711,-1.83479 1.82536,-2.31355c0.65076,-0.30009 1.46326,-0.36004 2.14529,-0.14008c0.56911,0.18354 0.50242,1.15117 0.99177,1.49484c0.68415,0.48048 1.17272,0.40521 1.10574,-0.36964c-0.02993,-0.34622 0.12865,-0.70981 0.02718,-1.04217c-0.12243,-0.401 -0.44689,-0.70955 -0.67033,-1.06433l-0.19229,0.03495c0,0 -0.33459,-0.16729 -0.41301,-0.50188z"/><path d="M154.88046,89.90344c0,-0.41421 0.33579,-0.75 0.75,-0.75c0.41421,0 0.75,0.33579 0.75,0.75c0,0.11017 -0.02375,0.21479 -0.06642,0.30903c0.50568,0.05216 0.91096,0.14061 1.15183,0.27015c1.74236,0.93708 1.11428,2.96904 1.6261,4.43365l-0.1449,0.14877c3.75787,-0.08819 7.60654,-0.0836 11.10509,0.98413c1.37324,0.41911 4.1873,1.72758 4.54612,3.38693c0.08467,0.39153 -0.43936,0.87552 -0.18749,1.187c0.36335,0.44936 1.14179,-0.21967 1.71967,-0.21967c2.91917,0 5.00843,-0.48705 4.75,3.25c-0.0479,0.69258 0.27151,1.61832 -0.2586,2.06659c-0.54279,0.45898 -1.42505,0.02889 -2.13202,-0.04506c-1.62073,-0.16954 -3.26376,-0.42127 -4.93706,-0.29159c-1.42878,0.11073 0.77013,1.51168 -1.39818,2.21816c-1.2273,0.39988 -3.64005,-1.29236 -3.99196,-2.48077c-0.62377,-2.1065 0.67231,-3.1689 2.3419,-3.87689l0.88473,-0.3006c0,0 0.71016,-0.2412 0.95136,0.46896c0.2412,0.71016 -0.46896,0.95136 -0.46896,0.95136l-0.86055,0.29216c-2.06043,0.63599 -1.67241,3.488 0.59522,3.54958c0.48402,0.01314 -0.17993,-1.07939 0.13615,-1.4462c0.36711,-0.42603 0.9231,-0.68769 1.46568,-0.83564c1.02626,-0.27985 3.45987,-0.13431 4.52561,-0.01292c0.66959,0.07627 1.41837,1.14216 1.9053,0.67626c0.23327,-0.2232 -0.22393,-0.61242 -0.2586,-0.93341c-0.06835,-0.63273 0.61834,-1.64666 0.03844,-1.90884c-0.37604,-0.17002 -2.92825,0.15884 -3.28844,0.15884c-0.6926,0 -2.51131,0.02689 -2.78033,-0.21967c-0.44789,-0.4105 -0.05237,-1.22065 -0.18749,-1.81299c-0.25361,-1.11182 -2.63909,-2.11673 -3.54346,-2.38546c-4.47012,-1.32828 -9.50865,-0.90669 -14.17405,-0.84001c1.24853,1.88035 1.64463,4.38552 2.08736,6.51058c0.70734,3.42642 0.2845,6.96089 0.59517,10.43276c0.1301,1.454 0.78038,3.1244 -0.73528,4.26901c-0.18021,0.13609 -2.94595,0.45361 -3.31815,0.49959c-4.08576,0.50475 -8.31454,0.04618 -12.44377,0.04619c-1.91666,0 -3.83334,0 -5.75,0c-0.22998,0 -2.76657,0.05943 -2.98478,-0.17773c-1.15678,-1.25729 -0.51118,-4.89709 -0.29555,-6.41326c0.73913,-5.19714 1.17253,-10.32384 2.03714,-15.5119c0.0822,-0.4932 0.16439,-0.9864 0.24659,-1.47959l0.24848,-0.37977c-0.00188,-0.02391 -0.00188,-0.03774 -0.00188,-0.03774c0,-0.72691 -0.2438,-3.07007 0.19391,-3.50325c0.47683,-0.47191 1.31201,-0.28355 1.97402,-0.39228c0.28296,-0.04648 0.74785,-0.11324 1.30499,-0.17707c-1.92522,-0.20734 -3.82716,-0.59697 -5.79803,-1.3674c-0.30862,-0.12064 -2.90589,-1.11808 -3.04547,-1.2546c-3.38646,-3.31228 0.47843,-7.5493 4.11921,-7.79484c-0.00035,-0.21183 0.00136,-0.39431 0.00136,-0.51056c0,0 0,-0.20988 0.11103,-0.4076c-3.75262,-0.78919 -5.69711,-4.38255 -3.24902,-8.2367c2.12332,-3.34285 7.60011,-4.3094 11.20185,-2.80762c-0.00098,-0.99424 0.80643,-1.67001 2.2188,-2.0159c0.54956,-0.13459 1.60475,0.74727 1.68701,0.18748c0.48603,-3.30736 3.90995,-0.87996 4.03033,1.53033c0,0 0,0.75 -0.75,0.75c-0.75,0 -0.75,-0.75 -0.75,-0.75c0.07029,-0.8119 -1.28466,-1.90645 -1.33874,-1.64611c-0.08025,0.38632 0.14957,0.89895 -0.13093,1.17644c-0.86034,0.85111 -4.61751,-0.42951 -3.15629,1.55364l0.21137,-0.0048c0,0 0.67082,0.33541 0.33541,1.00623c-0.33541,0.67082 -1.00623,0.33541 -1.00623,0.33541l-0.34799,-0.22275c-0.36091,0.17377 -0.73262,-0.07404 -0.73262,-0.07404c-2.71084,-1.86347 -8.34216,-1.17412 -10.19599,1.77026c-2.12796,3.3798 -0.16369,6.06235 3.37651,6.10584l0.4855,-0.00014c0,0 0.75,0 0.75,0.75c0,0.75 -0.75,0.75 -0.75,0.75l-0.5145,-0.00014c-0.00976,-0.00025 -0.0195,-0.00051 -0.02925,-0.00079c0.04375,0.13812 0.04375,0.25093 0.04375,0.25093c0,0.42978 -0.52465,1.04056 -0.16675,1.2785c0.0856,0.05691 0.18081,0.10875 0.28449,0.15592c-0.07062,-0.10556 -0.11774,-0.24643 -0.11774,-0.43442c0,-0.75 0.75,-0.75 0.75,-0.75c0.33334,0 0.66666,0 1,0h0.5c0,0 0.75,0 0.75,0.75c0,0.75 -0.75,0.75 -0.75,0.75c-0.2067,0 -0.60567,0 -0.95845,0c1.67077,0.25265 3.98774,0.0446 5.17812,-0.03033l0.05272,-0.65157c0,0 0.1819,-0.7276 0.90951,-0.5457c0.31939,0.07985 0.46353,0.26483 0.52473,0.44728c0.17544,-0.16094 0.39628,-0.20511 0.39628,-0.20511c0.90524,-0.1785 3.37929,-0.79708 4.17741,-0.0449c0.44549,0.41985 -0.12818,1.37819 0.3047,1.81104c0.56964,0.5696 1.62738,0.43453 2.2906,0.46236c0.51913,0.02178 1.26973,0.16151 2.05443,0.26696c-0.06684,-0.08059 -0.12247,-0.18733 -0.15767,-0.32812c-0.1819,-0.7276 0.5457,-0.90951 0.5457,-0.90951c0.33334,-0.08334 0.66666,-0.16666 1,-0.25l0.6819,-0.0224c0,0 0.75,0 0.75,0.75c0,0.75 -0.75,0.75 -0.75,0.75l-0.3181,-0.02239c-0.19397,0.0485 -0.38795,0.09699 -0.58192,0.14548c1.27577,0.05609 2.37594,-0.18959 2.40217,-1.42991l-0.00215,-0.19318c0,0 0,-0.75 0.75,-0.75c0.75,0 0.75,0.75 0.75,0.75l-0.00215,0.30682c-0.1344,1.245 0.00998,1.72892 -1.43914,2.62671c-0.17177,0.10642 -2.73062,-0.04807 -2.75786,-0.04937c-1.88887,-0.09001 -4.94882,0.37828 -6.38587,-1.16486c-0.38623,-0.41474 -0.16061,-1.12329 -0.1953,-1.68896c-0.05833,-0.95122 -1.88865,0.26536 -2.82259,0.4551c0,0 -0.5794,0.11588 -0.81251,-0.37234l-0.30425,0.91724c-2.01221,0.64563 -7.19795,1.09717 -8.86358,-0.55882c-0.03489,-0.03468 -0.06263,-0.11304 -0.08466,-0.22104c-2.45874,0.0717 -5.4853,2.95218 -3.15382,5.2326c0.64517,0.63105 1.7022,0.6013 2.54274,0.92988c4.10643,1.60524 7.89426,1.45221 12.29493,1.56222c4.19126,0.109 7.36901,-0.60006 11.10172,-2.26462l0.3273,-0.14571c0,0 0.2733,-0.12167 0.55152,-0.03872c0.36135,-0.13274 0.70351,0.12389 0.70351,0.12389c0.75045,0.5638 1.866,1.63677 2.76734,1.88218c1.05644,0.28764 4.00473,0.9053 3.60776,0.11675l-0.54586,-0.18196c-0.30647,-0.09425 -0.52923,-0.3796 -0.52923,-0.71698c0,-0.33738 0.22277,-0.62273 0.52923,-0.71698l0.7336,-0.24453l0.01099,0.03296c0.43899,-0.27037 0.91559,-0.48758 1.37338,-0.51297c-0.28672,-0.15748 -0.54086,-0.35054 -0.59674,-0.53803c-0.21275,-0.71381 0.44691,-1.42174 0.70618,-2.12c0.18705,-0.50378 -0.71194,-0.80658 -1.09762,-1.18078l-0.18934,-0.18934c0,0 -0.53033,-0.53033 0,-1.06066c0.53033,-0.53033 1.06066,0 1.06066,0l0.18934,0.18934c0.67532,0.69172 1.6295,1.28991 1.5237,2.44054c-0.0486,0.52845 -1.01943,0.89968 -0.79382,1.38001c0.32504,0.69201 1.77466,0.99019 1.52533,1.71295c-0.14277,0.41386 -1.61974,1.09677 -2.61608,1.14043c1.00021,1.99428 -0.68502,2.3653 -2.9327,2.16341c-2.26031,-0.20302 -3.65764,-0.94025 -5.45902,-2.27202l-0.23934,0.10656c-3.93407,1.74842 -7.35037,2.49968 -11.74929,2.39381c-0.58834,-0.01471 -1.16645,-0.0255 -1.73632,-0.03671c0.51237,0.477 0.81496,1.95263 0.98548,2.63012l0.02239,0.6819c0,0 0,0.28186 -0.17279,0.5c1.39093,0 2.78186,0 4.17279,0c0.11927,0 0.25817,-0.00556 0.41164,-0.01448c-0.16164,-0.21592 -0.16164,-0.48551 -0.16164,-0.48551c0,-0.31949 -0.04502,-2.50655 0.15885,-2.71156c0.60555,-0.60895 3.42298,-1.02517 5.63424,-1.03728c-0.0279,-0.07852 -0.04309,-0.16307 -0.04309,-0.25117zM143.38046,93.90344l0.02239,-0.3181c-0.14965,-0.60312 0.06499,-1.45276 -0.44286,-1.81085c-0.43173,-0.30441 -1.05127,0.12895 -1.57953,0.12895c-0.7465,0 -4.35616,-0.46639 -4.94391,0.00325c-0.65213,0.52109 0.19391,1.66199 0.19391,2.49675c0,0 0,0.02578 -0.00478,0.06779c0.09361,0.36535 -0.18303,0.67864 -0.18303,0.67864l-0.0792,-0.08232c-0.0822,0.4932 -0.1644,0.9864 -0.2466,1.47959c-0.86291,5.17704 -1.28753,10.2916 -2.0318,15.47744c-0.14577,1.01569 -0.7806,4.16697 -0.21982,5.05659c0.3596,0.57046 1.34088,-0.17773 2.01522,-0.17773c1.91666,0 3.83334,0 5.75,0c4.06632,0.00001 8.23781,0.462 12.25986,-0.03488c0.87572,-0.10819 1.88545,0.22697 2.63658,-0.23605c0.74888,-0.46163 0.14465,-2.48219 0.10636,-2.91427c-0.30175,-3.40501 0.13673,-6.90108 -0.56924,-10.25642c-0.55041,-2.64197 -0.87802,-6.22303 -3.69735,-7.6063c-0.62536,-0.30683 -2.82261,0.04792 -3.48621,0.04792c-3.75,0 -7.5,0 -11.25,0c0,0 -0.75,0 -0.75,-0.75c0,-0.75 0.75,-0.75 0.75,-0.75c1.97426,0 3.94853,0 5.92279,0c-0.17279,-0.21814 -0.17279,-0.5 -0.17279,-0.5zM157.55744,94.64384c-0.08356,-1.02558 -0.10578,-2.54196 -0.76239,-2.81958c-0.76603,-0.32388 -5.75836,-0.13971 -6.32344,0.29074c-0.4761,0.36267 0.15885,1.18995 0.15885,1.78844c0,0 0,0.20251 -0.10523,0.39707c0.89496,-0.05874 1.85119,-0.08081 2.36902,0.15086c0.4613,0.20637 0.87052,0.45772 1.23494,0.74593c0.13827,-0.04386 0.25126,-0.04386 0.25126,-0.04386c0.98311,0 1.98645,-0.02278 3.00109,-0.04872c0.00953,-0.21048 0.0808,-0.35778 0.1759,-0.46088z"/><path d="M116.88046,101.40344h-0.25c-1.66674,-0.00661 -4.80666,-0.26105 -4.25969,1.37986c0.00718,0.64532 -0.16188,1.28693 -0.13188,1.93161c0.0191,0.41048 0.80039,-0.18676 1.19907,-0.28634c1.27464,-0.31839 1.32849,-1.32332 2.92047,-1.5248c2.10938,-0.26696 1.85147,1.91073 2.99565,2.53379c0.47014,0.25601 1.54175,0.22962 1.57684,-0.30456c0.06297,-0.9586 -1.83772,-2.64235 -2.50046,-3.12956c0,0 -0.6,-0.45 -0.15,-1.05c0.02043,-0.02723 0.04115,-0.0523 0.06212,-0.07534c-0.19317,0.06821 -0.45226,0.07627 -0.71368,-0.16657c-0.03768,0.69192 -0.74845,0.69192 -0.74845,0.69192zM119.33046,100.80344c1.041,0.79355 3.62606,3.23955 2.99954,4.87045c-0.26922,0.70082 -2.74515,1.52452 -3.42316,1.19544c-0.99595,-0.48341 -1.18449,-2.62715 -2.50435,-2.46621c-1.19443,0.14566 -4.05544,3.46672 -5.38046,1.18886c-0.185,-0.31803 -0.14241,-1.88377 -0.13188,-2.56839c-1.04691,-3.14074 3.48062,-3.1122 5.74031,-3.12014h0.25c0,0 0.27524,0 0.49225,0.16675c0.04179,-0.26144 0.22742,-0.44708 0.22742,-0.44708l0.68157,-0.67131c0.76299,-1.39788 1.17162,-2.75733 2.89856,-3.27114c3.3037,-0.98292 8.6026,-0.08464 12.0181,0.22586c0,0 0.74692,0.0679 0.67902,0.81482c-0.0679,0.74692 -0.81482,0.67902 -0.81482,0.67902c-3.39826,-0.30893 -8.15624,-1.05845 -11.4819,-0.27413c-1.19737,0.28239 -1.57751,1.7993 -2.10144,2.72886l-0.7971,0.80709c0.34023,-0.08982 0.64834,0.14127 0.64834,0.14127z"/><path d="M131.13046,102.90344c0.75,0 0.75,0.75 0.75,0.75v0.25c0,1.83822 0.06351,3.59768 0.24628,5.42537c0,0 0.07463,0.74628 -0.67165,0.82091c-0.74628,0.07463 -0.82091,-0.67165 -0.82091,-0.67165c-0.18762,-1.87618 -0.25372,-3.68779 -0.25372,-5.57463v-0.25c0,0 0,-0.75 0.75,-0.75z"/><path d="M128.88046,105.40344c0.75,0 0.75,0.75 0.75,0.75l-0.02239,0.3181c0.08333,0.33333 0.16667,0.66667 0.25,1c0,0 0.1819,0.72761 -0.54571,0.90951c-0.72761,0.1819 -0.90951,-0.54571 -0.90951,-0.54571c-0.08333,-0.33333 -0.16667,-0.66667 -0.25,-1l-0.02239,-0.6819c0,0 0,-0.75 0.75,-0.75z"/><path d="M159.88046,105.65344c-0.75,0 -0.75,-0.75 -0.75,-0.75v-0.25c0.00225,-1.64195 0.07499,-3.98889 -0.87404,-5.33397c0,0 -0.41603,-0.62404 0.20801,-1.04006c0.62404,-0.41603 1.04006,0.20801 1.04006,0.20801c1.09545,1.70935 1.12341,4.14975 1.12596,6.16603v0.25c0,0 0,0.75 -0.75,0.75z"/><path d="M161.88046,103.90344c-0.75,0 -0.75,-0.75 -0.75,-0.75c0,-0.83333 0,-1.91667 0,-2.75c0,0 0,-0.75 0.75,-0.75c0.75,0 0.75,0.75 0.75,0.75c0,0.83333 0,1.66667 0,2.5v0.25c0,0 0,0.75 -0.75,0.75z"/><path d="M156.9718,43.98513c-2.20941,0.2984 -2.88834,-0.06532 -3.31423,2.0654c0,0 -0.00831,0.04155 -0.03085,0.10291c0.70958,0 1.41917,0 2.12875,0c0.61903,0 1.48191,0.6765 1.84855,0.17774c0.25075,-0.34111 0.35814,-1.29249 0.39997,-2.34453zM152.18669,45.75635c0.58125,-2.90447 1.9271,-2.90442 4.68577,-3.26793l1.15512,-0.00156c-0.00207,-0.80205 -0.02155,-1.52027 -0.02212,-1.91675c0,-5.1664 -0.58938,-9.07386 -2.29,-13.91542c-0.25386,-0.72272 -0.02494,-2.37393 -0.30264,-2.92635c-0.19001,-0.37798 -1.5241,-0.57187 -1.61083,-0.58458c-2.2929,-0.33604 -4.93012,-0.35214 -7.18151,0.14439c-2.94687,0.6402 -5.72036,1.22989 -8.51412,2.3723c-0.62414,0.25522 -2.45472,0.79429 -2.75107,1.35987c-0.54709,1.04415 -0.42289,2.9279 -0.55067,4.06963c-0.0857,0.76571 -0.15834,1.57429 -0.21055,2.40688c1.08621,0.05225 3.18119,0.26835 3.83169,-0.32231c0.8625,-0.78317 -1.14582,-2.96831 -0.6563,-3.47393c1.69862,-1.75449 4.77677,1.22651 6.80608,0.64142c1.85009,-0.53342 3.52657,-2.06177 5.33179,-2.78422c0.31004,1.09205 0.38919,4.63894 1.73724,5.23207c0.90044,0.39619 2.48006,0.26708 3.48019,0.36445l0.96402,-0.00086c0,0 0.75,0 0.75,0.75c0,0.75 -0.75,0.75 -0.75,0.75l-1.03598,-0.00086c-3.48892,-0.33257 -7.07641,-1.30543 -5.78257,-5.73681c-0.94049,2.69177 -6.74007,3.86092 -9.4258,2.18904c0.06948,0.2207 0.11231,0.453 0.15133,0.6785c0.12805,0.73998 -0.05227,1.97327 -0.5773,2.51573c-0.94402,0.97536 -3.51322,0.72792 -4.89395,0.69174c-0.06192,2.06851 0.0213,4.21266 0.35407,6.16502c0.02745,-0.00235 0.04353,-0.00235 0.04353,-0.00235c3.08226,0 7.70782,-0.40323 7.75,3.75v0.66667c0,0 0,0.36236 -0.25187,0.58333c3.26263,0 6.52527,0 9.7879,0c-0.05958,-0.20652 -0.02147,-0.39709 -0.02147,-0.39709zM141.17213,45.57011v-0.66667c0.03787,-2.78906 -3.83718,-2.29951 -5.97763,-2.25322c0.02231,0.0868 0.04524,0.17302 0.0688,0.25862c1.06477,1.43822 1.23786,1.83674 3.00739,2.26699l0.48684,0.22345c0,0 0.59205,0.29602 0.38564,0.88807c0.2078,-0.13391 0.44562,-0.13391 0.44562,-0.13391c0.61173,0 1.22347,0 1.8352,0c-0.25187,-0.22098 -0.25187,-0.58333 -0.25187,-0.58333zM138.86044,46.69729c-0.34362,0.2587 -0.77373,0.04364 -0.77373,0.04364l-0.17982,-0.10988c-2.17793,-0.55723 -2.7189,-1.28851 -3.99261,-3.06634c-1.10824,-3.82958 -1.03913,-8.69098 -0.60042,-12.64096c0.15939,-1.43506 0.07717,-3.5293 0.84175,-4.80385c0.52291,-0.87169 2.48592,-1.47959 3.38204,-1.84746c2.87415,-1.17989 5.73345,-1.79163 8.76438,-2.4501c2.3696,-0.5078 8.965,-1.34538 10.46273,1.25621c0.39178,0.68052 0.06304,2.24698 0.36402,3.07365c1.80451,4.9562 2.37667,9.12127 2.37667,14.41791c-0.00198,1.48708 0.17082,5.86136 -0.93189,6.9056c-0.77438,0.73331 -4.43523,0.17774 -5.48478,0.17774c-4.5,0 -9,0 -13.5,0c0,0 -0.75,0 -0.75,-0.75c0,-0.0762 0.00774,-0.14465 0.02165,-0.20615z"/><path d="M135.67213,39.40344c0,-0.41421 0.33579,-0.75 0.75,-0.75c0.41421,0 0.75,0.33579 0.75,0.75c0,0.41421 -0.33579,0.75 -0.75,0.75c-0.41421,0 -0.75,-0.33579 -0.75,-0.75z"/><path d="M155.66905,38.63801c-0.0679,0.74692 -0.81482,0.67902 -0.81482,0.67902l-0.67899,-0.06173c-0.01667,-0.00152 -0.03333,-0.00302 -0.04998,-0.00451c0.22704,0.12892 0.38021,0.3729 0.38021,0.65265c0,0.41421 -0.33579,0.75 -0.75,0.75c-0.41421,0 -0.75,-0.33579 -0.75,-0.75c0,-0.32374 0.20512,-0.59957 0.49249,-0.70462c-2.82003,-0.22114 -5.36226,-0.33573 -5.82003,-3.70235c0,0 -0.09303,-0.74421 0.65118,-0.83723c0.74421,-0.09303 0.83723,0.65118 0.83723,0.65118c0.29579,2.65982 2.87494,2.2447 5.14471,2.45105l0.67899,0.06173c0,0 0.74692,0.0679 0.67902,0.81482z"/><path d="M140.75546,34.65344c0.75,0 0.75,0.75 0.75,0.75v0.16667c-0.27921,2.69717 -1.95307,2.08333 -4.25,2.08333c0,0 -0.75,0 -0.75,-0.75c0,-0.75 0.75,-0.75 0.75,-0.75c1.10408,0 3.05801,0.669 2.75,-0.58333v-0.16667c0,0 0,-0.75 0.75,-0.75z"/><path d="M150.50546,41.57011c0,0.75 -0.75,0.75 -0.75,0.75l-0.96715,-0.01203c-2.91166,-1.07064 -5.7517,-1.82231 -8.86618,-1.8213c0,0 -0.75,0 -0.75,-0.75c0,-0.75 0.75,-0.75 0.75,-0.75c3.18873,0.001 6.16694,0.70868 9.13382,1.84537l0.69951,-0.01203c0,0 0.75,0 0.75,0.75z"/><path d="M168.13046,63.90344c0,0.75 -0.75,0.75 -0.75,0.75l-1.0739,-0.00365c-1.05936,-0.2083 -2.09298,-0.5022 -3.1761,-0.49635c0,0 -0.75,0 -0.75,-0.75c0,-0.75 0.75,-0.75 0.75,-0.75c1.13971,0.00505 2.21124,0.27678 3.3239,0.50365l0.9261,-0.00365c0,0 0.75,0 0.75,0.75z"/><path d="M166.62292,66.00951c-0.10607,0.74246 -0.84853,0.6364 -0.84853,0.6364c-0.49497,-0.07071 -1.25503,-0.17929 -1.75,-0.25c0,0 -0.74246,-0.10607 -0.6364,-0.84853c0.10607,-0.74246 0.84853,-0.6364 0.84853,-0.6364c0.49497,0.07071 0.98995,0.14142 1.48492,0.21213l0.26508,0.03787c0,0 0.74246,0.10607 0.6364,0.84853z"/><path d="M123.13046,48.40344c0,0.75 -0.75,0.75 -0.75,0.75c-0.5,0 -1.25,0 -1.75,0c0,0 -0.75,0 -0.75,-0.75c0,-0.75 0.75,-0.75 0.75,-0.75c0.5,0 1,0 1.5,0h0.25c0,0 0.75,0 0.75,0.75z"/></g><path d="M151.00954,78.69038c-0.21551,0.71837 -0.93388,0.50286 -0.93388,0.50286l-1.4204,-0.42612c-1.34049,-0.404 -2.41479,-0.87874 -3.68125,-1.46975c0,0 -0.31578,-0.14737 -0.4164,-0.45645c-0.11543,0.11493 -0.23499,0.17073 -0.23499,0.17073l-0.78358,0.36567c-2.11786,0.98368 -4.38383,1.51752 -6.67221,1.97584c0,0 -0.73544,0.14709 -0.88252,-0.58835c-0.14709,-0.73544 0.58835,-0.88252 0.58835,-0.88252c2.16641,-0.43265 4.33034,-0.92531 6.33205,-1.86424l0.78358,-0.36567c0,0 0.67964,-0.31716 0.9968,0.36247c0.01584,0.03394 0.02919,0.06698 0.04027,0.09912c0.34189,-0.42838 0.88297,-0.17588 0.88297,-0.17588c1.20961,0.56448 2.19975,1.01073 3.47794,1.39229l1.4204,0.42612c0,0 0.71837,0.21551 0.50286,0.93388z"/><path d="M156.54538,80.21379c-0.31035,0.68277 -0.99313,0.37242 -0.99313,0.37242c-0.45518,-0.2069 -1.11625,-0.50738 -1.57143,-0.71429c0,0 -0.68277,-0.31035 -0.37242,-0.99313c0.31035,-0.68277 0.99313,-0.37242 0.99313,-0.37242c0.45518,0.2069 0.91037,0.4138 1.36555,0.6207l0.20588,0.09358c0,0 0.68277,0.31035 0.37242,0.99313z"/><path d="M157.52835,85.04353c-0.71151,0.23717 -0.94868,-0.47434 -0.94868,-0.47434l-0.15249,-0.4597c-0.09524,-0.33333 -0.19048,-0.66667 -0.28571,-1c0,0 -0.20604,-0.72114 0.5151,-0.92718c0.72114,-0.20604 0.92718,0.5151 0.92718,0.5151c0.09524,0.33333 0.19048,0.66667 0.28571,1l0.13323,0.39744c0,0 0.23717,0.71151 -0.47434,0.94868z"/><path d="M141.96867,71.73241c0.74246,0.10607 0.6364,0.84853 0.6364,0.84853l-0.40343,1.46863c-1.62402,0.11945 -3.16789,0.08618 -4.79259,0.03203c0,0 -0.74958,-0.02499 -0.7246,-0.77457c0.02499,-0.74958 0.77457,-0.7246 0.77457,-0.7246c1.2787,0.04262 2.54221,-0.02734 3.77883,0.31774l-0.11771,-0.53137c0,0 0.10607,-0.74246 0.84853,-0.6364z"/><path d="M155.03745,75.69236c-0.07463,0.74628 -0.82091,0.67165 -0.82091,0.67165l-1.36459,-0.13646c-1.75425,-0.17604 -6.12772,0.51765 -7.48143,-0.47239c-0.26023,-0.19032 -0.62878,-2.72909 -0.67629,-3.01413c0,0 -0.1233,-0.7398 0.6165,-0.86309c0.7398,-0.1233 0.86309,0.6165 0.86309,0.6165c0.11707,0.70244 -0.44984,1.79803 0.18085,2.12872c1.1958,0.62699 5.0975,-0.04254 6.64654,0.11184l1.36459,0.13646c0,0 0.74628,0.07463 0.67165,0.82091z"/></g><g><g><g><path d="M32.1637,243.50005v-126h268v126z" fill-opacity="0.96863" fill="#ffffff" stroke="#000000" stroke-width="0"/><path d="M32.1637,142.50005v-26h268v26z" fill="#757fff" stroke="#9e9e9e" stroke-width="0"/><path d="M68.16368,129.50005c0,-2.76142 2.23858,-5 5,-5c2.76142,0 5,2.23858 5,5c0,2.76142 -2.23858,5 -5,5c-2.76142,0 -5,-2.23858 -5,-5z" fill-opacity="0.96863" fill="#5a5a5a" stroke="none" stroke-width="0.5"/><path d="M255.1637,129.50005c0,-2.76142 2.23858,-5 5,-5c2.76142,0 5,2.23858 5,5c0,2.76142 -2.23858,5 -5,5c-2.76142,0 -5,-2.23858 -5,-5z" fill-opacity="0.96863" fill="#5a5a5a" stroke="none" stroke-width="0.5"/></g><text transform="translate(95.47797,135.05295) scale(0.42045,0.42045)" font-size="40" xml:space="preserve" fill="#ffffff" stroke="none" stroke-width="1" font-family="&quot;GovtAgentBB&quot;, Serif" font-weight="normal" text-anchor="start"><tspan x="0" dy="0">A.S.C Tools Bench</tspan></text></g><text transform="translate(41.43375,177.17874) scale(0.5,0.5)" font-size="40" xml:space="preserve" fill="#000000" stroke="none" stroke-width="1" font-family="&quot;GovtAgentBB&quot;, Serif" font-weight="normal" text-anchor="start"><tspan x="0" dy="0">   Allow You To Change The</tspan><tspan x="0" dy="46.150000000000006px">Tool's Function To Another</tspan><tspan x="0" dy="46.150000000000006px">                             Job</tspan></text></g><g stroke-width="0"><path d="M389.0732,292.72281l-19,-46h337l-20,46z" fill="url(#color-1)" stroke="#2b2b2b"/><path d="M396.36487,282.57192l-13,-32.25h40.25l-9.75,32z" fill="url(#color-2)" stroke="#2b2b2b"/><path d="M664.44821,282.32192l-9.75,-32h40.25l-13,32.25z" fill="url(#color-3)" stroke="#2b2b2b"/><path d="M389.21547,243.40095l-19,-165.67813h337l-20,165.67813z" fill="url(#color-4)" stroke="#2b2b2b"/><path d="M395.9238,243.50005l-13,-165.67813h40.25l-9.75,164.3938z" fill="url(#color-5)" stroke="#2b2b2b"/><path d="M664.00714,242.21572l-9.75,-164.3938h40.25l-13,165.67813z" fill="url(#color-6)" stroke="#2b2b2b"/><path d="M370.46547,257.44692v-19.5h336.5v19.5z" fill="#52361a" stroke="#2b2b2b"/><path d="M370.0732,89.00004v-21c0,0 114.21367,-12 171.67605,-12c54.73863,0 165.32395,12 165.32395,12v21z" fill="#52361a" stroke="none"/></g><path d="M495.14433,82.33337v-19h87v19z" fill="#2e558c" stroke="none" stroke-width="0"/><text transform="translate(511.82101,76.802) scale(0.34398,0.34398)" font-size="40" xml:space="preserve" fill="#ffffff" stroke="none" stroke-width="1" font-family="&quot;GovtAgentBB&quot;, Serif" font-weight="normal" text-anchor="start"><tspan x="0" dy="0">SCAN ME</tspan></text><path d="M426.55697,83.15328l-1.03365,-0.5761c-0.21869,-0.47939 -0.32136,-1.02188 -0.32311,-1.55974c-0.29058,-0.11525 -0.62957,-0.3548 -1.02712,-0.7552c-0.83139,-0.83735 0.20097,-3.73617 0.82675,-4.25846c0.43663,-0.36442 1.3031,-0.40392 2.24157,-0.31179c0.00023,-2.76674 0.00264,-5.53349 0.00272,-8.30022c-2.9479,0 -5.8958,0 -8.8437,0c0.3437,0.2042 0.3437,0.65 0.3437,0.65c-0.00239,4.66863 0.30603,9.44316 0.56187,14.11294l0.22797,1.36403c0,0 0.08955,0.53846 -0.34352,0.77303c6.41791,0 12.83581,0 19.25372,0c0.00052,-0.90265 0.00565,-1.80368 0.01396,-2.70357c-0.1523,0.31097 -0.29679,0.59533 -0.39269,0.78799l-0.44728,0.68161c0,0 -0.41602,0.62404 -1.04006,0.20801c-0.62404,-0.41603 -0.20801,-1.04006 -0.20801,-1.04006l0.35272,-0.51839c2.34683,-4.70705 -1.70031,-5.07485 -5.57547,-5.31705c0,0 -0.12652,-0.00791 -0.27228,-0.06924c0.02712,0.06587 0.04359,0.12946 0.05359,0.1824c0.14887,0.13218 0.26874,0.34622 0.20091,0.68539c-0.03708,0.18539 -0.11154,0.3147 -0.20218,0.40442c-0.0595,1.6469 -0.27857,3.12061 -0.67443,4.80691l-0.72848,0.77191c0,0 -0.25266,0.25265 -0.58358,0.2348c0.0079,0.21178 -0.04376,0.65913 -0.59967,0.77031c-0.73543,0.14709 -0.88252,-0.58835 -0.88252,-0.58835l-0.12012,-0.61121c-0.30299,0.33518 -0.78161,0.17564 -0.78161,0.17564zM426.72958,80.58885c-0.10907,0.4278 -0.08624,0.93568 0.13538,1.3175l0.16635,-0.1761c0,0 0.10149,0.03383 0.21504,0.11427c-0.00194,-0.97648 -0.00319,-1.95297 -0.00395,-2.92946l-0.25396,-0.03531c-0.08809,0.39015 -0.19164,0.81033 -0.33322,1.17917c0.13049,0.24925 0.07435,0.52993 0.07435,0.52993zM425.78844,77.27975c-0.41495,0.38538 -0.21009,1.11987 -0.2443,1.56201c-0.01858,0.24015 -0.0964,0.9585 -0.06556,0.71962c0.08903,-0.68969 0.36043,-1.36313 0.72126,-1.9576l1.04179,-0.07319c-0.00004,-0.11594 -0.00008,-0.23188 -0.0001,-0.34782c-0.67936,-0.08437 -1.25397,-0.08794 -1.45309,0.09699zM435.3043,75.01427c-0.11089,0.10253 -0.27304,0.1775 -0.51016,0.1775c-0.75,0 -0.75,-0.75 -0.75,-0.75c0.00147,-0.2856 -0.0259,-0.73596 0.01243,-1.18051l-0.28053,0.10812c0,0 -0.40157,0.1004 -0.68264,-0.14631c-0.0861,-0.0176 -0.16556,-0.05139 -0.23467,-0.11048c-2.91137,-2.48873 1.35667,-2.98911 2.11541,-1.94631c0.16748,0.23018 0.17208,0.51392 0.13392,0.81172c0.78344,0.14714 2.39409,0.71492 3.47662,1.22486c0.00152,-0.09633 0.00302,-0.19266 0.00451,-0.289c-0.06891,-0.08784 -0.12095,-0.20344 -0.13857,-0.35559c-0.44677,-0.46943 -0.92521,-1.04801 -0.78643,-1.28882c0.2217,-0.38467 0.56971,-0.66727 0.95835,-0.83048c0.00092,-0.08289 0.00181,-0.16578 0.00268,-0.24868c-2.10654,-0.03548 -5.60493,-0.68921 -7.41679,0.48174c-0.38644,0.24975 0.15932,0.90908 0.17816,1.36882c0.07639,1.864 -0.45943,2.55995 1.42563,2.0733c0,0 0.72761,-0.1819 0.90951,0.5457c0.04237,0.16948 0.0354,0.30936 -0.00023,0.42422c0.59313,0.06773 1.18932,0.16088 1.75851,0.29772c0.03001,-0.09844 0.07678,-0.1771 0.13236,-0.23997zM440.36015,72.65582c0.0014,0.15852 -0.0568,0.3374 -0.23567,0.51627c-0.0133,0.0133 -0.0266,0.02593 -0.03989,0.03792c-0.00973,0.61723 -0.02008,1.23427 -0.03057,1.85129c0.80741,-0.02961 1.54746,-0.16757 2.06258,-0.54113c-0.1261,-1.49844 -0.01418,-3.30386 -1.28831,-4.42369c-0.19407,-0.17057 -0.43678,-0.19748 -0.70041,-0.16539c-0.00164,0.16615 -0.00338,0.33225 -0.00521,0.49833c0.40565,0.19198 0.72187,0.56968 0.81959,1.15917c0.06677,0.40278 -0.30668,0.72616 -0.58211,1.06723zM429.97985,69.81149c1.81115,-1.93479 6.2634,-1.1556 8.65817,-1.1209c0.00277,-0.43265 0.00467,-0.86557 0.00556,-1.29882c-3.29981,0 -6.59962,0 -9.89943,0c0.0001,2.84334 0.00305,5.68671 0.0032,8.53007c0.31834,0.06184 0.62231,0.12716 0.89676,0.18779c0.11072,-0.12262 0.28275,-0.21787 0.55004,-0.21787c0.11572,0 0.21359,0.01785 0.29636,0.04806c-0.03534,-0.09407 -0.05347,-0.20767 -0.0449,-0.34484c0.00119,-0.01903 0.00283,-0.03755 0.00491,-0.05557c-0.52517,-0.78405 -1.13646,-5.01667 -0.47066,-5.72792zM428.74172,81.85913l0.1936,-0.17578c0.2676,-1.43453 0.43778,-2.69927 0.49093,-4.08962c-0.20824,-0.04693 -0.43841,-0.09785 -0.67913,-0.14823c-0.00053,1.47122 -0.00207,2.94243 -0.00541,4.41363zM441.56,68.78705c2.089,1.46858 1.9889,4.19759 1.9117,6.37631c-1.08436,0.89988 -2.22638,1.19862 -3.44118,1.27675c-0.00628,0.37121 -0.0125,0.74246 -0.01854,1.11377c1.82206,1.04735 3.52972,2.20657 5.37199,3.21633c2.12257,1.16742 4.25893,2.63228 6.488,3.57491c4.65672,1.96923 10.67843,1.94911 15.72351,1.94676c0.44434,-1.09848 1.69689,-3.18772 3.08456,-3.98225c-1.12858,-1.0143 -2.25717,-2.0286 -3.38576,-3.0429c0.07508,1.26677 0.15532,2.53406 0.24002,3.80262l0.00818,0.12246c0,0 0.04996,0.74833 -0.69837,0.7983c-0.74833,0.04997 -0.7983,-0.69837 -0.7983,-0.69837l-0.00817,-0.12246c-0.11867,-1.7773 -0.22863,-3.55221 -0.3279,-5.32662c-0.41226,-0.37051 -0.82452,-0.74103 -1.23678,-1.11154c-0.07678,2.10495 -0.12909,4.20928 -0.12882,6.31065v0.2c0,0 0,0.75 -0.75,0.75c-0.75,0 -0.75,-0.75 -0.75,-0.75v-0.2c0.00032,-2.53504 0.07616,-5.07425 0.17903,-7.61362c-0.59568,-0.53535 -1.19135,-1.07071 -1.78703,-1.60606c-0.1146,3.42052 -0.07837,6.84465 0.61552,9.92126l0.07461,0.33572c0,0 0.16269,0.73214 -0.56945,0.89484c-0.73214,0.1627 -0.89484,-0.56945 -0.89484,-0.56945l-0.0746,-0.33572c-0.78712,-3.58999 -0.73895,-7.59197 -0.58333,-11.53371c-0.42102,-0.37838 -0.84204,-0.75677 -1.26305,-1.13515c-0.17424,3.31326 -0.39731,6.62567 -0.39688,9.94188v0.3c0,0 0,0.75 -0.75,0.75c-0.75,0 -0.75,-0.75 -0.75,-0.75v-0.3c0.00047,-3.74633 0.28551,-7.48776 0.4625,-11.23101c-0.33794,-0.30372 -0.67589,-0.60744 -1.01383,-0.91116c0,0 -0.55782,-0.50133 -0.05649,-1.05916c0.50133,-0.55782 1.05916,-0.05649 1.05916,-0.05649c0.03045,0.02737 0.0609,0.05473 0.09134,0.08209c0.03553,-1.04115 0.05746,-2.08252 0.05732,-3.12427c0,0 0,-0.75 0.75,-0.75c0.75,0 0.75,0.75 0.75,0.75c-0.00018,1.47592 -0.04454,2.95107 -0.10906,4.42588c0.41715,0.37491 0.83431,0.74982 1.25146,1.12473c0.08017,-1.82995 0.1576,-3.62964 0.1576,-5.35061c0,0 0,-0.75 0.75,-0.75c0.75,0 0.75,0.75 0.75,0.75c0,2.10985 -0.12711,4.35611 -0.22983,6.63379c0.59733,0.53684 1.19467,1.07369 1.79201,1.61054c0.11442,-2.55961 0.24375,-5.11834 0.33833,-7.67209c0,0 0.02776,-0.74948 0.77724,-0.72172c0.74948,0.02776 0.72172,0.77724 0.72172,0.77724c-0.10988,2.9667 -0.26745,5.94031 -0.39347,8.91419c0.34875,0.31343 0.6975,0.62687 1.04626,0.94031c-0.15379,-3.01713 -0.27438,-6.03502 -0.35202,-9.06303c0,0 -0.01923,-0.74975 0.73053,-0.76898c0.74975,-0.01923 0.76898,0.73053 0.76898,0.73053c0.09013,3.51507 0.23839,7.01631 0.42937,10.51866c1.84707,1.66003 3.69414,3.32005 5.5412,4.98007l0.28188,-0.00174c0,0 0.72222,0.20222 0.52002,0.92444c-0.0124,0.04428 -0.02675,0.08509 -0.04277,0.12268c1.15731,1.77213 -1.47568,1.56647 -0.96164,2.85777c0.24507,0.61562 1.0017,1.18482 0.80497,1.81754c-0.53342,1.71559 -2.91053,1.15239 -4.21443,1.14418l-0.89026,-0.21677c0,0 -0.7276,-0.18191 -0.5457,-0.90951c0.00591,-0.02364 0.01239,-0.04631 0.01941,-0.06807c-5.25673,0.00042 -11.49661,-0.00848 -16.36962,-2.05338c-2.28826,-0.96024 -4.47947,-2.4572 -6.65524,-3.65387c-1.60847,-0.88749 -3.10838,-1.87726 -4.67545,-2.80971c-0.0236,1.66867 -0.04048,3.33991 -0.04145,5.01694c0.78332,0 1.56664,0 2.34996,0h0.7c0,0 0.75,0 0.75,0.75c0,0.75 -0.75,0.75 -0.75,0.75c-8.36667,0 -17.43333,0 -25.8,0c0,0 -0.75,0 -0.75,-0.75c0,-0.75 0.75,-0.75 0.75,-0.75c0.39769,0 0.79537,0 1.19306,0c-0.27503,-0.17897 -0.3329,-0.52697 -0.3329,-0.52697l-0.23921,-1.44521c-0.26586,-4.72354 -0.56866,-9.55438 -0.57095,-14.27782c0,0 0,-0.4458 0.3437,-0.65c-1.46456,0 -2.92914,0 -4.3937,0c0,0 -0.75,0 -0.75,-0.75c0,-0.75 0.75,-0.75 0.75,-0.75c8.6,0 17.2,0 25.8,0c0.01344,0 0.02689,0 0.04033,0c0.10113,-0.02351 0.19711,-0.01914 0.28357,0c1.39203,0 2.78406,0 4.17609,0h0.9c0,0 0.75,0 0.75,0.75c0,0.75 -0.75,0.75 -0.75,0.75c-1.15679,0 -2.84884,0 -4.25057,0c-0.00089,0.43297 -0.00279,0.86559 -0.00556,1.29793c0.65738,0.00733 1.32793,0.03124 1.42198,0.09735zM438.36365,76.91172c0.05402,-0.01515 0.10771,-0.02253 0.15933,-0.02448c0.00243,-0.14503 0.00487,-0.29006 0.00732,-0.43509c-0.22269,-0.00658 -0.44777,-0.01523 -0.67534,-0.0239c0.18588,0.1456 0.35639,0.30618 0.50868,0.48347zM468.74416,87.35756l0.54163,0.13983c0.28705,-0.00227 2.5671,0.12572 2.58558,-0.05582c0.04266,-0.41912 -0.71646,-0.56857 -0.79503,-0.98246c-0.17978,-0.94693 1.61905,-2.04306 0.94556,-2.73256c-1.10122,-1.12738 -2.97273,2.8377 -3.1066,3.32126c0,0 -0.04613,0.16146 -0.17113,0.30975z" fill="#000000" stroke="none" stroke-width="0.5"/><g stroke="#000000" stroke-width="0"><path d="M-40.86111,387.95803v-417.41742h39.75v417.41742z" fill="url(#color-7)"/><path d="M722.39715,388.70878v-417.41742h39.75v417.41742z" fill="url(#color-8)"/><path d="M756.46379,387.95803h-797.36469v-20.66273h797.36469z" fill="url(#color-9)"/><path d="M757.8979,-8.79666h-797.36469v-20.66273h797.36469z" fill="url(#color-10)"/></g></g></g></svg>