<svg version="1.1" xmlns="http://www.w3.org/2000/svg" xmlns:xlink="http://www.w3.org/1999/xlink" width="774.66666" height="420" viewBox="0,0,774.66666,420"><defs><linearGradient x1="383.01775" y1="107.49966" x2="383.01775" y2="155.15699" gradientUnits="userSpaceOnUse" id="color-1"><stop offset="0" stop-color="#15181c"/><stop offset="1" stop-color="#000000"/></linearGradient><linearGradient x1="382.79098" y1="204.84301" x2="382.79098" y2="252.50034" gradientUnits="userSpaceOnUse" id="color-2"><stop offset="0" stop-color="#000000"/><stop offset="1" stop-color="#15181c"/></linearGradient><linearGradient x1="407.73987" y1="179.87911" x2="522.07967" y2="179.87911" gradientUnits="userSpaceOnUse" id="color-3"><stop offset="0" stop-color="#000000"/><stop offset="1" stop-color="#323a43"/></linearGradient><linearGradient x1="243.95584" y1="179.87911" x2="358.29564" y2="179.87911" gradientUnits="userSpaceOnUse" id="color-4"><stop offset="0" stop-color="#323a43"/><stop offset="1" stop-color="#000000"/></linearGradient><linearGradient x1="360.28774" y1="-7.68705" x2="360.28774" y2="115.68705" gradientUnits="userSpaceOnUse" id="color-5"><stop offset="0" stop-color="#15181c"/><stop offset="1" stop-color="#111417"/></linearGradient><linearGradient x1="359.71226" y1="244.31295" x2="359.71226" y2="367.68705" gradientUnits="userSpaceOnUse" id="color-6"><stop offset="0" stop-color="#111417"/><stop offset="1" stop-color="#15181c"/></linearGradient><linearGradient x1="463.1979" y1="179.68705" x2="696.21501" y2="179.68705" gradientUnits="userSpaceOnUse" id="color-7"><stop offset="0" stop-color="#121418"/><stop offset="1" stop-color="#323a43"/></linearGradient><linearGradient x1="23.1979" y1="179.68705" x2="316.1979" y2="179.68705" gradientUnits="userSpaceOnUse" id="color-8"><stop offset="0" stop-color="#323a43"/><stop offset="1" stop-color="#121418"/></linearGradient><radialGradient cx="394.48771" cy="180" r="90" gradientUnits="userSpaceOnUse" id="color-9"><stop offset="0" stop-color="#000000"/><stop offset="1" stop-color="#000000" stop-opacity="0"/></radialGradient><linearGradient x1="359.32103" y1="179.95833" x2="346.07103" y2="179.95833" gradientUnits="userSpaceOnUse" id="color-10"><stop offset="0" stop-color="#000000"/><stop offset="1" stop-color="#000000" stop-opacity="0"/></linearGradient><linearGradient x1="406.32103" y1="179.95833" x2="419.57104" y2="179.95833" gradientUnits="userSpaceOnUse" id="color-11"><stop offset="0" stop-color="#000000"/><stop offset="1" stop-color="#000000" stop-opacity="0"/></linearGradient><linearGradient x1="382.69603" y1="204.375" x2="382.69603" y2="211.625" gradientUnits="userSpaceOnUse" id="color-12"><stop offset="0" stop-color="#000000"/><stop offset="1" stop-color="#000000" stop-opacity="0"/></linearGradient><linearGradient x1="381.77937" y1="155.45833" x2="381.77937" y2="148.20833" gradientUnits="userSpaceOnUse" id="color-13"><stop offset="0" stop-color="#000000"/><stop offset="1" stop-color="#000000" stop-opacity="0"/></linearGradient><radialGradient cx="230.52965" cy="216.47829" r="45" gradientUnits="userSpaceOnUse" id="color-14"><stop offset="0" stop-color="#000000"/><stop offset="1" stop-color="#000000" stop-opacity="0"/></radialGradient><radialGradient cx="238.70738" cy="172.47829" r="45" gradientUnits="userSpaceOnUse" id="color-15"><stop offset="0" stop-color="#000000"/><stop offset="1" stop-color="#000000" stop-opacity="0"/></radialGradient><radialGradient cx="359.99999" cy="182.18519" r="362.61261" gradientUnits="userSpaceOnUse" id="color-16"><stop offset="0" stop-color="#000000" stop-opacity="0.83922"/><stop offset="1" stop-color="#000000" stop-opacity="0"/></radialGradient><radialGradient cx="359.99999" cy="182.18519" r="362.61262" gradientUnits="userSpaceOnUse" id="color-17"><stop offset="0" stop-color="#000000" stop-opacity="0"/><stop offset="1" stop-color="#000000"/></radialGradient><linearGradient x1="-24.94567" y1="181.05805" x2="139.36574" y2="181.05805" gradientUnits="userSpaceOnUse" id="color-18"><stop offset="0" stop-color="#000000"/><stop offset="1" stop-color="#000000" stop-opacity="0"/></linearGradient><linearGradient x1="747.33334" y1="177.8148" x2="583.02193" y2="177.8148" gradientUnits="userSpaceOnUse" id="color-19"><stop offset="0" stop-color="#000000"/><stop offset="1" stop-color="#000000" stop-opacity="0"/></linearGradient><linearGradient x1="360.26078" y1="-17.14015" x2="360.26078" y2="110.48748" gradientUnits="userSpaceOnUse" id="color-20"><stop offset="0" stop-color="#000000"/><stop offset="1" stop-color="#000000" stop-opacity="0"/></linearGradient><linearGradient x1="359.23301" y1="377.38042" x2="359.23301" y2="249.75279" gradientUnits="userSpaceOnUse" id="color-21"><stop offset="0" stop-color="#000000"/><stop offset="1" stop-color="#000000" stop-opacity="0"/></linearGradient><radialGradient cx="198.13865" cy="82.81202" r="38" gradientUnits="userSpaceOnUse" id="color-22"><stop offset="0" stop-color="#ffffff" stop-opacity="0.11373"/><stop offset="1" stop-color="#ffffff" stop-opacity="0"/></radialGradient><radialGradient cx="455.33974" cy="128.2507" r="30" gradientUnits="userSpaceOnUse" id="color-23"><stop offset="0" stop-color="#ffffff" stop-opacity="0.11373"/><stop offset="1" stop-color="#ffffff" stop-opacity="0"/></radialGradient></defs><g transform="translate(27.33333,30)"><g stroke-miterlimit="10"><path d="M343.86532,217.53754v-75.07508h78.07808v75.07508z" fill="#000000" stroke="#000000" stroke-width="0"/><g stroke-width="0"><path d="M238.93415,155.15699v-47.65733h288.1672v47.65733z" fill="url(#color-1)" stroke="#000000"/><path d="M238.70738,252.50034v-47.65733h288.1672v47.65733z" fill="url(#color-2)" stroke="#000000"/><path d="M407.73987,204.79437l0.38628,-49.63738l113.95352,-44.80884v139.06192z" fill="url(#color-3)" stroke="none"/><path d="M358.29564,154.96385l-0.38628,49.63738l-113.95352,44.80884v-139.06192z" fill="url(#color-4)" stroke="none"/></g><path d="M23.77338,115.68705v-123.3741h673.02872v123.3741z" fill="url(#color-5)" stroke="#000000" stroke-width="0"/><path d="M23.1979,367.68705v-123.3741h673.02872v123.3741z" fill="url(#color-6)" stroke="#000000" stroke-width="0"/><path d="M467.35892,228.18705l-4.16102,-94l233.01711,-134.5v360z" fill="url(#color-7)" stroke="none" stroke-width="0"/><path d="M316.1979,139.18705l-11.5,87l-281.5,133.5v-360z" fill="url(#color-8)" stroke="none" stroke-width="0"/><path d="M304.4877,270v-180h180v180z" fill="url(#color-9)" stroke="#000000" stroke-width="0"/><path d="M341.57103,210.70833l-0.25,-62.25l18,7v49z" fill="url(#color-10)" stroke="#000000" stroke-width="0"/><path d="M406.32104,204.45833v-49l18,-7l-0.25,62.25z" fill="url(#color-11)" stroke="#000000" stroke-width="0"/><path d="M334.32104,213.125l22,-8.75h52.75l24.25,10.75z" fill="url(#color-12)" stroke="#000000" stroke-width="0"/><path d="M432.40437,144.70833l-24.25,10.75h-52.75l-22,-8.75z" fill="url(#color-13)" stroke="#000000" stroke-width="0"/><g stroke="#000000" stroke-width="0"><path d="M383.15842,133.14424c-10.10221,0 -18.54572,-5.34129 -18.54572,-8.48284c0,-3.14155 8.18945,-5.68828 18.29166,-5.68828c10.10221,0 18.29167,2.54673 18.29167,5.68828c0,3.14155 -7.9354,8.48284 -18.03761,8.48284z" fill="#060606"/><path d="M397.93391,127.70514c0,2.58129 -6.5202,6.97001 -14.82078,6.97001c-8.30058,0 -15.23827,-4.38873 -15.23827,-6.97001c0,-2.58128 6.72894,-4.67383 15.02952,-4.67383c8.30057,0 15.02952,2.09255 15.02952,4.67383z" fill="#272727"/></g><path d="M240.85623,112.48981c0.25,0.0001 0.2499,0.2501 0.2499,0.2501l-0.00004,0.09157c-0.00027,0.69251 -0.03175,1.23332 -0.11394,1.69201c0.11397,0.06823 0.11397,0.21631 0.11397,0.21631c0,2.00922 0,4.01843 0,6.02765c0.14957,0.09637 0.30756,0.19212 0.47404,0.28836c0.46593,0.26937 1.65769,0.25058 1.97802,0.69583c0.5402,0.75088 -0.16177,2.86961 -0.35686,3.66136c-0.84905,3.4412 -2.84141,6.36094 -1.0939,9.64777c1.40245,2.63782 0.49874,7.50585 0.49889,10.50025c0.00199,3.50326 0.08824,6.98296 0.25914,10.4819c0.16862,3.45221 5.53913,4.52186 4.46272,8.84353c-0.88403,3.54928 -1.79652,6.55088 -0.81531,10.08696c0.95214,3.43897 1.09327,6.92825 1.09327,10.46589c0,3.23328 -0.6478,7.29273 0.16769,10.4215c0.90628,3.52689 2.46146,6.2244 4.77732,9.05771c1.06096,1.29802 2.51073,2.14397 3.66208,3.35142c0.22964,0.24082 0.99187,1.21812 0.72029,1.6129c-0.34105,0.49577 -3.58311,0.14363 -4.20314,0.15012c-3.13331,0.00653 -6.80513,2.64422 -9.28064,4.3323c-0.66749,0.45517 -3.25524,1.69224 -2.73698,2.84046c0.12985,0.28768 0.65278,0.17125 0.84965,0.41795c0.19737,0.24733 -0.02848,0.72906 0.22148,0.92309c0.3409,0.26463 1.85008,0.1983 2.85147,0.2524l0.0129,-0.12342l0.49444,0.05167c0.12723,0.01167 0.22687,0.11867 0.22687,0.24894c0,0.06904 -0.02799,0.13154 -0.07323,0.17678l-0.35357,0.35354v0l-0.00002,0.00002c-0.23577,0.23565 -0.47154,0.47129 -0.70731,0.70694c-2.52744,2.52611 -4.87485,4.79364 -7.11983,7.61555c-2.29841,2.8889 -4.34856,5.29033 -7.30989,7.5162c-0.655,0.49233 -1.42504,4.47222 -0.62471,5.21193c0.34064,0.31484 3.56299,0.43944 4.17671,0.44253c0.66753,0.01341 1.56844,-0.23331 1.19427,0.87459c-0.71234,2.10917 -5.19802,4.2523 -6.71518,6.02435c-2.51007,2.93177 -3.95283,5.70971 -8.33648,5.56237c-2.66051,-0.08949 -3.10979,-1.55519 -5.28057,-2.49351c-0.53457,-0.23107 -1.56984,0.23246 -2.05251,-0.14355c-0.26697,-0.20797 -0.06057,-0.73947 -0.31184,-0.96616c-0.27137,-0.24482 -0.94751,-0.18056 -1.32823,-0.49684c-0.42732,-0.2079 -1.36837,-1.2247 -1.23283,-1.8179c0.11006,-0.48167 1.30565,-0.9911 1.64501,-1.34266c1.43708,-1.48876 2.54168,-3.54613 3.7581,-5.22464c1.33836,-3.22185 2.69688,-6.43547 4.04654,-9.6526c0.40289,-1.08699 2.4078,-4.91533 1.76851,-6.00605c-0.11837,-0.20196 -1.16151,-0.27729 -1.36541,-0.48936c-0.69241,-0.72014 -0.31484,-1.30805 -1.28082,-1.91299c-2.77852,-1.74002 -6.67318,-3.19283 -9.06586,-5.34104c-0.91134,-0.82524 -3.02202,-1.33251 -3.64659,-2.383c-0.69853,-1.17489 1.58618,-4.32858 1.79981,-5.69809c0.49806,-3.19284 0.42461,-7.22747 -1.09614,-10.11017c-0.51653,-0.97912 -2.27971,-3.15285 -1.65853,-4.31203c0.72523,-1.35334 3.99151,-2.0184 5.23707,-3.01309c2.73949,-2.18773 5.50904,-4.32058 8.3147,-6.42274c2.93594,-2.19978 5.02176,-4.44252 6.9973,-7.55175c1.69089,-2.66122 3.35796,-6.49662 3.35925,-9.58071c0.00165,-3.92607 0.06909,-6.61752 2.46025,-9.89273c-0.79964,-1.74486 -1.16417,-3.79222 -2.09547,-5.46405c-0.93977,-1.68704 -1.9635,-2.02341 -1.69011,-4.12526c2.94137,-2.08208 5.63496,-4.03954 8.31031,-6.47534c2.31125,-2.1043 4.97906,-5.4695 5.26635,-8.34237c0.34793,-3.47928 0.24752,-6.96731 0.24752,-10.46272c0,-0.90138 0,-1.80275 0,-2.70413c-1.29721,-0.8964 -1.99795,-1.94394 -1.98098,-3.66883c1.5355,-1.86189 1.97997,-2.02261 1.98095,-4.53556l0.00004,-0.09157c0,0 0.0001,-0.25 0.2501,-0.2499z" fill="#000000" stroke="none" stroke-width="0.5"/><g stroke="#000000" stroke-width="0"><path d="M185.52965,306.47829v-180h90v180z" fill="url(#color-14)"/><path d="M193.70738,262.47829v-180h90v180z" fill="url(#color-15)"/></g><path d="M413.27989,202.40827c0.2482,0.02989 0.21832,0.27809 0.21832,0.27809l-0.01457,0.12101c-0.14675,1.21876 -2.56651,3.86664 -4.16451,4.58671c2.07304,-0.024 4.14608,-0.04798 6.21912,-0.07198c1.85599,-0.02148 3.6789,-0.54671 5.4692,-1.21085c0.0106,-0.02641 0.02211,-0.05144 0.03456,-0.075c0.81232,-1.53638 4.90236,-3.19324 6.39249,-4.15225c1.63305,-1.01537 5.13643,-0.46906 7.05187,-0.47511l0.0009,-0.00001v-0.00182l0.49999,0.00024h0.00001c0.13801,0.00007 0.24989,0.11197 0.24989,0.25c0,0.13781 -0.1115,0.24957 -0.24921,0.25h-0.00007c-0.00001,0 -0.00002,0 -0.00002,0l-0.4999,0.00158c-0.06525,0.0002 -0.13322,-0.00041 -0.20368,-0.00174c-0.62366,0.22111 -1.60392,0.31409 -2.11748,0.50386c-2.18869,0.80875 -4.37738,1.61751 -6.56607,2.42627c-1.37768,0.50907 -2.7721,1.11649 -4.18636,1.65013c-0.12721,0.67685 0.16269,2.10453 0.17721,2.65813c0.0437,1.6661 0.0874,3.33218 0.13109,4.99828c0.00305,0.11631 -0.07316,1.29177 -0.03842,1.32477c0.29748,0.28253 3.27551,-0.15603 3.82024,-0.16982c3.78251,-0.09571 5.92976,-2.19926 8.98549,-4.35924c2.85807,-2.02026 5.71614,-4.04051 8.57421,-6.06078c0.43928,-0.31051 1.72886,-0.89928 1.96368,-1.35367c0.82168,-1.58993 -0.03704,-6.0351 -0.03979,-7.88484c-0.00397,-2.67226 -4.32631,-6.15202 -6.28661,-7.80173c-0.9886,-0.83196 -4.05234,-2.78861 -3.22514,-4.4947c0.41611,-0.85823 3.78442,-1.77122 4.67971,-2.17516c0.89284,-0.40285 1.95709,-0.74642 2.90999,-1.1876c-0.01106,-0.7243 -0.02213,-1.44861 -0.03319,-2.17291c-0.0148,-0.96884 -0.41739,-2.11042 0.70982,-2.27192c1.33428,-0.04942 2.67165,-0.12958 4.00685,-0.12972l0.5,-0.00001h0.00001c0.13807,0 0.25,0.11193 0.25,0.25c0,0.06903 -0.02798,0.13152 -0.07321,0.17676v0l-0.35354,0.35358l-0.01603,-0.01603c-1.23771,1.6721 -2.77644,2.86276 -4.49003,3.85114c0.02942,1.92587 0.05885,3.85175 0.08827,5.77763c0.01065,0.69685 0.31831,3.62363 1.68607,3.3101c0.42512,-0.09745 0.29486,-0.82271 0.48507,-1.21518c0.65778,-1.35727 1.29177,-2.65575 1.73917,-4.09733c1.03742,-3.34271 2.07484,-6.68544 3.11226,-10.02815c0.32666,-1.05255 0.80876,-2.17384 1.11136,-3.27865c-0.00008,-0.68663 0.02731,-1.39003 0.06323,-2.08058c-0.06459,-0.51068 -0.12918,-1.02135 -0.19377,-1.53203c-0.47646,-3.76717 -0.32555,-6.71473 0.34172,-10.45011c0.61548,-3.44546 1.23097,-6.89092 1.84646,-10.33638c0.22695,-1.2705 0.45392,-2.54099 0.68087,-3.81149c-2.55863,-0.57263 -5.02749,-1.27679 -7.57088,-2.12444c-3.41712,-1.13885 -6.65562,-1.36563 -10.23909,-1.65176c-0.21168,-0.01691 -0.42284,-0.03335 -0.63348,-0.04955c-0.74653,0.53878 -1.52843,1.05891 -2.36419,1.5664c-3.03906,1.84537 -5.90144,3.56538 -8.5479,5.94616c-2.60204,2.34081 -5.20407,4.68162 -7.80611,7.02244c-2.44339,2.19809 -6.79663,2.17618 -9.67466,3.90205c-3.00166,1.80001 -6.00332,3.60002 -9.00498,5.40002c-3.00166,1.80001 -6.00333,3.60001 -9.00499,5.40002c-3.0012,1.79973 -5.99348,3.61045 -8.96915,5.4521c-2.97612,1.84193 -5.95224,3.68386 -8.92836,5.52579c-2.84594,1.76137 -5.90073,4.30865 -9.0854,5.33053c-3.33264,1.06935 -6.66528,2.13871 -9.99792,3.20806c-3.3338,1.06973 -6.64836,2.29541 -10.07609,3.01398c-3.42554,0.71811 -6.85108,1.43621 -10.27662,2.15432c-3.42554,0.71811 -6.85108,1.43621 -10.27662,2.15432c-3.41977,0.71689 -6.80085,1.63913 -10.19089,2.48536c-3.3958,0.84767 -6.7916,1.69534 -10.1874,2.54301c-3.3958,0.84767 -6.7916,1.69534 -10.1874,2.54301c-3.49293,0.87192 -6.87908,0.75005 -10.47015,0.76478c-3.50025,0.01436 -7.00063,0.03869 -10.50091,0.03909c-3.46738,0.00039 -7.09547,0.30723 -10.52068,-0.2378c-1.37406,-0.21865 -3.21909,-0.19271 -4.50041,-0.72306c-1.70193,-0.70444 -3.41279,-2.46458 -4.90958,-3.54922c-2.84482,-2.06146 -5.77963,-3.87851 -8.78732,-5.69267c-3.28134,-1.97922 -5.42516,-3.90775 -7.90521,-6.82498c-2.26973,-2.66984 -4.54091,-5.33846 -6.80895,-8.00973c-1.98826,-2.88557 -3.97313,-5.77348 -5.95957,-8.66031c-1.98543,-2.88538 -4.05116,-5.72778 -5.85849,-8.72833c-1.80587,-2.99814 -3.61172,-5.99628 -5.41759,-8.99443c-1.8192,-3.02028 -3.47673,-6.06309 -5.06211,-9.21223c-1.58569,-3.14977 -3.31885,-6.19893 -4.32851,-9.5821c-1.0009,-3.35383 -2.00182,-6.70766 -3.00272,-10.06149c-1.00088,-3.35372 -2.00446,-6.70661 -3.01009,-10.05891c-0.88334,-2.94464 -1.11771,-7.50417 -2.65172,-10.06709c-0.7922,-1.34654 -2.07373,-2.8779 -2.55754,-4.35863c-0.21006,-0.64292 0.1887,-1.8145 -0.51889,-2.02285l-0.45831,-0.18483c-0.09459,-0.03563 -0.16189,-0.12698 -0.16189,-0.23404c0,-0.1372 0.11052,-0.24859 0.2474,-0.24998l0.49959,-0.00595l0.00037,0.03124c2.95029,-0.5944 6.56412,-0.06918 9.50224,-0.071c1.82948,0.03451 3.03794,2.29346 4.70432,2.83476c0.58017,0.18846 1.30736,0.23132 2.06168,0.22213c-0.08418,-0.27396 -0.13027,-0.54384 -0.13027,-0.80744c0,0 0,-0.25 0.25,-0.25c0.25,0 0.25,0.25 0.25,0.25c0,0.25581 0.05195,0.52163 0.14608,0.79425c0.83673,-0.03079 1.6734,-0.09892 2.35034,-0.07979c1.11963,0.03165 2.24029,0.04631 3.36135,0.05169c-0.17549,-0.19828 -0.31049,-0.4147 -0.34678,-0.67095l-0.00852,-0.06016c0,0 -0.03505,-0.24753 0.21248,-0.28258c0.24753,-0.03505 0.28259,0.21247 0.28259,0.21247l0.00852,0.06016c0.03232,0.22819 0.11611,0.47783 0.2419,0.74256c2.2473,0.00669 4.49598,-0.02029 6.74117,-0.01882c3.43893,0.00226 6.95029,-0.88417 10.34435,-1.43335c3.45506,-0.55904 6.91013,-1.11809 10.36519,-1.67713c3.45506,-0.55904 6.91013,-1.11809 10.3652,-1.67714c3.45506,-0.55904 6.91013,-1.11809 10.36519,-1.67713c3.50471,-0.56708 6.5737,-1.95091 9.85765,-3.28272c3.24343,-1.31538 6.48685,-2.63074 9.73027,-3.94612c3.25529,-1.32018 6.42519,-2.68784 9.56817,-4.25766c3.13116,-1.56392 6.26232,-3.12785 9.39348,-4.69177c3.09309,-1.54304 6.00468,-3.6341 8.95194,-5.44231c3.1385,-1.92554 5.98856,-3.31658 9.48309,-4.48147c3.32466,-1.10826 6.64864,-2.21855 9.97409,-3.32444c3.42444,-0.74482 6.84988,-1.4851 10.27486,-2.22747c3.42289,-0.74191 6.7948,-1.61591 10.17903,-2.51698c3.36102,-0.89489 6.81615,-1.63509 10.08643,-2.82008c2.35045,-0.85169 4.7009,-1.70338 7.05136,-2.55507c0.67282,-0.24379 2.18097,-0.4646 2.33918,-1.16728c0.0477,-0.15969 0.0954,-0.31939 0.1431,-0.47908l0.04875,-0.1632c0,0 0.07155,-0.23954 0.31109,-0.16799c0.23954,0.07155 0.16799,0.31109 0.16799,0.31109c-0.0477,0.15969 -0.14414,0.48259 -0.19185,0.64229c-0.34281,0.98844 -1.70159,1.15136 -2.64793,1.49427c-2.35045,0.85169 -4.7009,1.70339 -7.05136,2.55508c-3.28413,1.19002 -6.75288,1.93449 -10.12813,2.83316c-3.39174,0.90306 -6.77127,1.7789 -10.20176,2.52246c-3.41616,0.74046 -6.83185,1.48314 -10.24856,2.22102c-3.31527,1.10791 -6.63209,2.21116 -9.94818,3.31658c-3.46208,1.15407 -6.2701,2.52548 -9.37974,4.43331c-2.96055,1.81637 -5.88436,3.91046 -8.99,5.46344c-3.13116,1.56392 -6.26231,3.12784 -9.39347,4.69176c-3.15449,1.57558 -6.33651,2.9487 -9.60368,4.2737c-3.24343,1.31538 -6.48685,2.63074 -9.73027,3.94612c-3.31899,1.34602 -6.42241,2.73964 -9.9657,3.31296c-3.45506,0.55904 -6.91013,1.11808 -10.36519,1.67713c-3.45506,0.55904 -6.91013,1.11809 -10.36519,1.67714c-3.45506,0.55904 -6.91013,1.11809 -10.36519,1.67713c-3.42138,0.5536 -6.95771,1.44204 -10.42454,1.43977c-2.15339,-0.00141 -4.30996,0.02326 -6.46546,0.01942c0.09051,0.14643 0.19085,0.29591 0.2997,0.44756c-0.05296,-0.05885 -0.10629,-0.1172 -0.16004,-0.17499c-0.08644,-0.09294 -0.18248,-0.18304 -0.28126,-0.27286c-1.30054,-0.00309 -2.60067,-0.01699 -3.89944,-0.05371c-0.62482,-0.01766 -1.37067,0.03317 -2.12998,0.06414c0.97835,1.95173 3.73613,4.14409 4.95038,5.48615c2.3482,2.59538 4.69639,5.19075 7.04459,7.78612c2.34383,2.59054 4.63341,5.24711 7.06351,7.75682c2.43467,2.51443 4.86934,5.02886 7.30402,7.5433c2.43467,2.51443 4.86935,5.02886 7.30402,7.54329c2.43467,2.51443 4.86935,5.02886 7.30402,7.5433c2.43467,2.51443 4.86934,5.02887 7.30401,7.5433c2.32828,2.40455 5.87807,3.87772 8.76996,5.55915c3.02573,1.75923 6.05147,3.51847 9.07721,5.27771c3.01394,1.75238 6.03935,3.48659 9.04077,5.2603c3.41949,0.67946 6.83052,1.40436 10.24512,2.10807c3.28183,0.67634 6.90633,1.93265 10.25114,2.02877c3.49836,0.10734 6.9967,0.21468 10.49506,0.32202c3.49836,0.10734 6.99671,0.21467 10.49507,0.32201c3.49836,0.10734 6.99671,0.21468 10.49506,0.32202c3.43919,0.10553 6.87356,-1.05911 10.22282,-1.82327c3.41231,-0.77855 6.82462,-1.55709 10.23693,-2.33563c3.41438,-0.77901 6.81268,-1.51114 10.15247,-2.56808c3.33688,-1.05603 6.67378,-2.11205 10.01066,-3.16808c3.30694,-1.04655 6.76141,-1.90788 9.98081,-3.19665c3.24977,-1.29961 6.49954,-2.59924 9.74931,-3.89885c3.24489,-1.29767 6.48866,-2.5982 9.73488,-3.89255c3.05054,-1.69575 6.06848,-3.50543 9.18724,-5.07163c3.07686,-1.54476 6.44104,-2.8478 9.07573,-5.07136c1.43552,-1.21151 2.7922,-2.41161 4.22666,-3.49799c-3.10438,-0.92977 -6.20223,-1.84748 -9.34667,-2.63903c-3.34565,-0.8422 -6.75266,-1.98795 -10.18456,-2.34682c-3.46634,-0.36247 -6.94365,-0.8721 -10.42963,-0.89687c-3.4994,-0.02488 -6.99867,-0.02389 -10.49815,-0.02391c-1.78903,-0.00001 -3.1684,-0.74828 -4.89107,-0.99971c-1.73605,-0.25338 -3.70656,-0.00029 -5.4639,-0.00029c-3.5,0 -7,0 -10.5,0c-3.61127,0 -6.80397,0.36538 -10.34441,1.07278c-3.45169,0.68966 -6.7677,1.58458 -10.14047,2.58966c-3.39706,1.01233 -6.75317,1.73997 -10.2374,2.38724c-3.44112,0.63926 -6.88225,1.27852 -10.32337,1.91778c-3.44112,0.63926 -6.88225,1.27853 -10.32337,1.91779c-3.31441,0.6089 -7.1626,0.10344 -10.53695,0.10747c-3.5001,0.00418 -7.00019,0.00718 -10.50029,0.0072c-3.5,0.00002 -7,0.00006 -10.5,0.00008c-3.24379,0.00002 -7.0152,-1.97461 -10.09862,-2.99363c-3.37965,-1.11692 -6.35909,-2.83604 -9.48562,-4.52737c-3.10976,-1.68226 -6.05314,-3.47861 -8.99703,-5.43633c-2.9144,-1.9381 -5.8288,-3.87621 -8.74321,-5.81431c-2.91972,-1.94164 -5.85649,-3.79273 -8.88236,-5.56459c-3.02072,-1.76884 -6.08549,-3.47984 -9.04031,-5.35676c-2.95436,-1.87663 -5.90873,-3.75325 -8.86309,-5.62989c-1.63529,-1.03875 -2.73491,-2.5144 -3.83956,-3.91086c1.31077,1.40837 3.00531,2.7886 4.10765,3.4888c2.95436,1.87663 5.90873,3.75326 8.86309,5.62989c2.94973,1.87368 6.00937,3.58156 9.02488,5.34735c3.03402,1.77663 5.97898,3.63283 8.90658,5.57971c2.9144,1.9381 5.82881,3.87621 8.74321,5.81431c2.93151,1.94949 5.86137,3.73772 8.95805,5.4129c3.10048,1.67723 6.05368,3.38498 9.40462,4.4924c3.02564,0.99991 6.76141,2.96839 9.94172,2.96837c3.5,-0.00002 7,-0.00006 10.5,-0.00008c3.49991,-0.00002 6.9998,-0.00302 10.4997,-0.0072c3.33459,-0.00398 7.17413,0.51618 10.44622,-0.09906c3.44112,-0.63926 6.88225,-1.27852 10.32337,-1.91778c3.44112,-0.63926 6.88225,-1.27852 10.32338,-1.91778c3.46727,-0.64412 6.80549,-1.36746 10.18592,-2.37483c3.38727,-1.0094 6.71871,-1.90815 10.18531,-2.60079c3.56991,-0.71328 6.80083,-1.08247 10.44238,-1.08247c3.5,0 7,0 10.5,0c1.78269,0 3.7743,-0.2516 5.53611,0.00554c1.69885,0.24794 3.06062,0.99446 4.81887,0.99447c3.50067,0.00001 7.00112,-0.00096 10.5017,0.02392c3.50237,0.02489 6.9955,0.53541 10.47808,0.89957c3.45623,0.36141 6.88538,1.5111 10.25462,2.35923c3.27222,0.82371 6.49416,1.78363 9.72531,2.75196c1.17188,-0.85299 2.40599,-1.62449 3.78425,-2.26102c3.1775,-1.46748 6.355,-2.93495 9.5325,-4.40243c2.62363,-1.20942 5.52931,-2.00842 8.32636,-2.88216c0.4143,-0.41196 0.82861,-0.82391 1.24291,-1.23587c1.17611,-1.16573 2.76885,-2.46348 4.4199,-3.60083c-1.053,-1.53903 -2.10601,-3.07806 -3.15901,-4.61709c-1.98307,-2.89839 -3.61174,-6.00248 -5.3229,-9.068c-1.6957,-3.0378 -3.87713,-5.79449 -5.89947,-8.6239c-2.32356,-2.61159 -4.64367,-5.22626 -6.96537,-7.83951c-2.32219,-2.61379 -4.35841,-5.50154 -6.48687,-8.27515c-2.1517,-2.80389 -4.31705,-5.51197 -6.07824,-8.57931c-1.80286,-3.1399 -3.70872,-5.69997 -6.11321,-8.40572c-2.32977,-2.62168 -4.63677,-5.24653 -6.86401,-7.95607c-0.83477,-1.01554 -1.84131,-2.01093 -2.55658,-3.11265c-0.22385,-0.34479 -0.49537,-1.51405 -0.81617,-1.71232c-0.45799,-0.28305 -2.28549,0.03733 -2.86856,0.03733c0,0 -0.25,0 -0.25,-0.25c0,-0.25 0.25,-0.25 0.25,-0.25c0.70724,0 2.53757,-0.3297 3.13144,0.03733c0.45261,0.27972 0.68275,1.41883 0.97267,1.86539c0.70465,1.08537 1.70088,2.06672 2.52346,3.06742c2.22318,2.70459 4.52597,5.32455 6.8515,7.94143c2.42512,2.72897 4.35462,5.32182 6.17307,8.48888c1.74996,3.04777 3.90318,5.73768 6.0413,8.52388c2.12112,2.76405 4.14981,5.64269 6.46399,8.24746c2.32752,2.61979 4.65655,5.23825 6.98231,7.85961c2.04186,2.84839 4.2366,5.63102 5.94534,8.69218c1.70374,3.05221 3.32455,6.14362 5.29897,9.02936c1.05336,1.53955 2.10672,3.07909 3.16008,4.61865c0.97788,-0.65373 1.96565,-1.24321 2.88985,-1.70847l-0.00966,-0.01355l0.40474,-0.28857c0.04135,-0.03027 0.09234,-0.04814 0.14751,-0.04814c0.13807,0 0.25,0.11193 0.25,0.25c0,0.00719 -0.0003,0.01431 -0.0009,0.02135c-0.0249,0.3324 -0.08696,1.16073 -0.11186,1.49313c-0.12245,1.63442 -0.68437,2.63918 -1.51116,3.30291c0.23684,0.34615 0.47368,0.69231 0.71051,1.03846c2.01549,2.94578 3.94229,5.63464 6.45047,8.17852c1.74517,1.77002 3.99764,3.40934 4.68714,5.82157c0.27924,0.97691 1.18434,2.4939 -0.02828,2.76721c-1.22793,0.11302 -2.53928,0.25433 -3.87121,0.35713c0.33826,0.90622 0.5205,1.94915 0.55582,3.2878c0.09244,3.50313 0.13388,7.00029 0.13724,10.50461c0.0034,3.55719 -0.16664,6.96209 -0.58633,10.49481c-0.06853,0.57691 -0.07843,3.90838 -0.51333,4.1643c-0.24226,0.14256 -1.33284,-0.54633 -1.57782,-0.67046c-0.11462,-0.05808 -0.22136,-0.11766 -0.32082,-0.17879c0.00002,0.03536 0.00004,0.0707 0.00006,0.10606c0.00198,3.56193 -0.05828,6.96605 -0.54526,10.49679c-0.48225,3.49641 -0.83961,7.03939 -1.47737,10.51054c-0.58115,0.34276 -3.70721,2.49399 -4.29425,2.18958c-0.24966,-0.12947 -0.28625,-1.40274 -0.32115,-1.67871c-0.18822,-1.48815 -0.37644,-2.97629 -0.56465,-4.46444c-0.43917,-3.47233 -0.87835,-6.94468 -1.31752,-10.41701c-0.09337,-0.73829 -0.18676,-1.47658 -0.28013,-2.21488c-0.0795,-0.16162 -0.15944,-0.32089 -0.24,-0.4774c-0.39445,-0.78871 -0.57371,-1.83442 -0.63763,-2.98102c-0.19099,0.74176 -0.41499,1.49648 -0.66305,2.29576c-1.03742,3.34271 -2.07484,6.68544 -3.11226,10.02815c-0.4549,1.46573 -1.09814,2.78757 -1.76675,4.16719c-0.12491,0.25774 -0.54681,1.4211 -0.82329,1.48448c-1.76686,0.40502 -2.28312,-2.83302 -2.29773,-3.78982c-0.02805,-1.83576 -0.05608,-3.67151 -0.08413,-5.50727c-0.868,0.47346 -1.77626,0.90351 -2.70924,1.32447c-0.74205,0.3348 -4.12826,1.30399 -4.43543,1.93754c-0.65343,1.34769 2.33224,3.25027 3.09718,3.89401c2.089,1.75801 6.4604,5.31442 6.46467,8.18354c0.00291,1.95961 0.86848,6.40364 -0.01602,8.11514c-0.29026,0.56165 -1.59767,1.16372 -2.11927,1.53242c-2.85807,2.02026 -5.71613,4.04051 -8.5742,6.06078c-3.13686,2.21733 -5.36032,4.35207 -9.26145,4.45078c-0.72982,0.01846 -3.66177,0.52207 -4.17721,0.03253c-0.21278,-0.20209 -0.10916,-1.37246 -0.11707,-1.6742c-0.0437,-1.6661 -0.0874,-3.33218 -0.1311,-4.99828c-0.01458,-0.55589 -0.22948,-1.68554 -0.18742,-2.4826c-1.75394,0.63461 -3.53876,1.12496 -5.36031,1.14604c-2.16652,0.02507 -4.33305,0.05015 -6.49957,0.07522l-0.49948,0.00578c-0.00113,0.00001 -0.00225,0.00002 -0.00338,0.00002c-0.13807,0 -0.25,-0.11193 -0.25,-0.25c0,-0.07699 0.03481,-0.14585 0.08954,-0.19171l0.37987,-0.32245l0.04126,0.0486c1.44398,-1.40688 3.96298,-2.59649 4.18495,-4.43994l0.01458,-0.12101c0,0 0.02988,-0.24821 0.27809,-0.21832zM454.72583,141.16914c0.04982,-0.2789 0.14447,-1.5262 0.39578,-1.6551c0.56687,-0.29077 3.37659,1.50552 3.93242,1.81241c0.03404,0.40718 0.06307,0.81524 0.08795,1.22398c1.2751,0.08175 2.60698,0.04414 3.92959,-0.044c-0.61456,-1.25392 -1.59941,-2.27426 -2.99834,-3.67319c0,0 -0.17678,-0.17677 0,-0.35355c0.17678,-0.17677 0.35355,0 0.35355,0c1.49265,1.49265 2.5382,2.60086 3.17473,3.98883c1.38736,-0.10564 2.75469,-0.25698 4.02514,-0.37392c0.21424,0.04216 -0.40248,-2.84541 -0.7944,-3.51682c-0.89258,-1.5291 -2.92388,-2.95444 -4.17467,-4.22303c-2.52863,-2.56463 -4.47551,-5.27797 -6.50707,-8.24722c-0.23542,-0.34408 -0.47084,-0.68816 -0.70626,-1.03225c-1.56889,0.97657 -3.85035,1.06571 -5.93666,1.76769c-0.50203,0.16892 -1.01056,0.33199 -1.52308,0.49228c-2.03904,2.0275 -4.07808,4.055 -6.11712,6.0825c-1.72609,1.71632 -3.35361,3.2127 -5.16895,4.58267c0.0196,0.00156 0.0392,0.00312 0.05881,0.00468c3.62245,0.28925 6.90149,0.52406 10.35739,1.67583c2.52114,0.84024 4.96621,1.53812 7.50079,2.10616c0.03679,-0.20598 0.0736,-0.41197 0.11039,-0.61795zM459.35716,151.95282c0.01812,0.72316 0.02978,1.44161 0.03447,2.15719c0.36722,-0.88077 1.0168,-1.51789 2.01062,-0.6392c0.21499,0.19009 0.08508,1.39449 0.08524,1.68715c0.00093,1.66666 0.00185,3.33334 0.00278,5c0.00182,3.26193 0.00363,6.52387 0.00545,9.78581c0.15422,0.1199 0.33496,0.23339 0.54716,0.34091c0.38495,0.19506 0.72631,0.90442 1.09823,0.68555c0.07036,-0.0414 0.22389,-3.40077 0.27041,-3.79237c0.41742,-3.51361 0.58623,-6.89737 0.58283,-10.43535c-0.00335,-3.50009 -0.04474,-6.993 -0.13706,-10.4919c-0.03564,-1.35044 -0.22225,-2.37657 -0.57307,-3.26323c-1.38117,0.09482 -2.77564,0.1393 -4.11401,0.05967c0.15648,2.9597 0.11294,5.95145 0.18697,8.90576zM452.38553,168.64222c0.26445,2.09084 0.52889,4.18168 0.79333,6.27252c0.97505,1.89424 1.95011,3.78848 2.92516,5.68272c0.22823,0.44339 0.67451,1.06454 0.92458,1.65324c0.09692,-3.1167 0.4981,-6.2569 0.74389,-9.36141c0.27623,-3.48908 0.55246,-6.97816 0.82869,-10.46725c0.27846,-3.51725 0.34452,-6.92979 0.25614,-10.45669c-0.07372,-2.94202 -0.3749,-5.99694 -0.29314,-8.96344c-0.49002,-0.04421 -0.97085,-0.10707 -1.43894,-0.19235c-0.71251,-0.13137 -1.41447,-0.27205 -2.1091,-0.42228c-0.22579,1.26396 -0.45158,2.52792 -0.67737,3.79188c-0.61548,3.44546 -1.23097,6.89092 -1.84646,10.33637c-0.56806,3.17994 -0.75761,5.7563 -0.49894,8.78769c0.0058,-0.11767 0.01416,-0.23503 0.02559,-0.352c0.00113,-0.13815 0.00061,-0.27205 -0.00186,-0.40121l-0.00009,-0.00502l-0.0102,-0.00001l0.00066,-0.49996c0,-0.00001 0,-0.00003 0,-0.00004c0.00018,-0.13792 0.11204,-0.24967 0.25,-0.24967c0.13667,0 0.24773,0.10967 0.24997,0.2458l0.00957,0.49931c0.00185,0.09662 0.00242,0.1967 0.00187,0.29995c0.10525,0.53484 -0.01409,1.22794 -0.01473,1.70526c-0.00098,0.73556 -0.04252,1.42732 -0.11861,2.09659zM458.63439,141.59832c-0.42921,-0.15507 -3.08195,-1.74333 -3.28458,-1.63939c-0.387,0.19851 -0.05529,0.86998 -0.13178,1.29814c-0.03797,0.21257 -0.07595,0.42513 -0.11392,0.6377c0.69534,0.15056 1.39814,0.29151 2.11178,0.42308c0.44386,0.0829 0.90019,0.14453 1.36565,0.1884c0.01299,-0.30377 0.03038,-0.60648 0.05284,-0.90793zM453.38536,176.5474c0.02886,0.22819 0.05773,0.45639 0.08659,0.68458c0.43917,3.47233 0.87835,6.94468 1.31752,10.41702c0.18822,1.48815 0.37643,2.97629 0.56465,4.46443c0.05432,0.4295 -0.32905,1.09829 0.05527,1.29757c0.19462,0.10092 3.21061,-1.83537 3.6542,-2.03205c0.22731,-3.42987 0.92217,-6.88653 1.39194,-10.29251c0.48389,-3.5083 0.54254,-6.88859 0.54057,-10.42819c-0.00009,-0.15981 -0.00018,-0.31961 -0.00027,-0.47942c-1.00412,-0.92088 -0.85384,-2.14836 -1.03597,-3.80068c-0.22775,-2.06617 -0.51049,-4.13659 -0.70731,-6.21084c-0.04128,0.76132 -0.09206,1.5253 -0.15294,2.29418c-0.27623,3.48908 -0.55246,6.97817 -0.82869,10.46725c-0.26136,3.30128 -0.70155,6.64424 -0.75761,9.95485l-0.00858,0.49939c-0.00201,0.13634 -0.11316,0.24625 -0.24998,0.24625c-0.09872,0 -0.18407,-0.05722 -0.22471,-0.14031l-0.2264,-0.43984l0.02508,-0.01291c-1.41089,-1.83708 -2.43285,-4.26843 -3.44337,-6.48879zM460.99541,169.40914c-0.00171,-3.08363 -0.00344,-6.16725 -0.00516,-9.25088c-0.00093,-1.66666 -0.00185,-3.33334 -0.00278,-5c-0.00005,-0.09357 0.08632,-1.31041 0.08356,-1.31285c-1.37462,-1.21538 -1.56047,1.46806 -1.55674,2.05498c0.02221,3.48469 0.56085,6.96015 0.94255,10.42299c0.14382,1.30478 0.02974,2.30665 0.53855,3.08576zM443.56235,179.73548c0.23083,-0.12274 0.45114,-0.25366 0.65621,-0.39535c1.14951,-0.7943 2.11738,-2.77646 3.40467,-3.43341c-1.28704,0.00474 -2.57603,0.08152 -3.86205,0.12915c-0.52362,-0.09467 -0.22969,1.67921 -0.22075,2.26456c0.00731,0.47835 0.01461,0.9567 0.02193,1.43505zM421.8534,205.78758c1.20623,-0.47362 2.39752,-0.98457 3.57403,-1.41931c1.72394,-0.63702 4.17926,-1.97976 6.44716,-2.58973c-1.58574,-0.07717 -3.2914,-0.06474 -4.16949,0.52591c-1.23284,0.79342 -4.59264,2.19781 -5.8517,3.48312zM426.31571,137.03544c-0.04937,-0.0148 -0.09874,-0.02959 -0.14811,-0.04439c-1.53721,1.1373 -2.97179,2.41411 -4.498,3.70215c-2.6669,2.25073 -6.06007,3.57279 -9.17388,5.1361c-3.12282,1.56741 -6.13953,3.38473 -9.19707,5.07645c-3.25338,1.30469 -6.5091,2.60359 -9.76373,3.90515c-3.24977,1.29961 -6.49953,2.59923 -9.7493,3.89884c-3.23239,1.2914 -6.69629,2.15864 -10.01561,3.2091c-3.33688,1.05603 -6.67377,2.11205 -10.01066,3.16808c-3.35293,1.0611 -6.76436,1.7968 -10.19211,2.57887c-3.41231,0.77855 -6.82462,1.55708 -10.23693,2.33563c-3.3932,0.77418 -6.86413,1.9425 -10.34938,1.83556c-3.49836,-0.10734 -6.99671,-0.21468 -10.49506,-0.32202c-3.49836,-0.10734 -6.9967,-0.21468 -10.49506,-0.32202c-3.49836,-0.10734 -6.99671,-0.21467 -10.49507,-0.32201c-3.38173,-0.10979 -7.01892,-1.35506 -10.33673,-2.03883c-3.44094,-0.70914 -6.88605,-1.40081 -10.32265,-2.13071c-3.0478,-1.74753 -6.07645,-3.52922 -9.11365,-5.29512c-3.02573,-1.75923 -6.05147,-3.51848 -9.07721,-5.27771c-2.93488,-1.70641 -6.51416,-3.20247 -8.87784,-5.64359c-2.43467,-2.51443 -4.86935,-5.02886 -7.30402,-7.54329c-2.43467,-2.51443 -4.86935,-5.02887 -7.30402,-7.5433c-2.43467,-2.51443 -4.86934,-5.02886 -7.30402,-7.54329c-2.43467,-2.51443 -4.86935,-5.02886 -7.30402,-7.54329c-2.43403,-2.51377 -4.72746,-5.17444 -7.07507,-7.76918c-2.3482,-2.59538 -4.69639,-5.19075 -7.04459,-7.78612c-1.32608,-1.46566 -4.1646,-3.71335 -5.11469,-5.80424c-0.87042,0.01924 -1.72538,-0.01477 -2.40312,-0.23492c-1.52288,-0.49469 -2.92042,-2.85409 -4.54954,-2.8103c-2.33206,0.00145 -4.66526,-0.01779 -6.99714,0.00997c-0.51673,0.00616 -1.32897,0.14128 -1.98503,0.08007c0.41651,0.5119 0.09568,1.22403 0.34663,1.99208c0.47078,1.44084 1.74114,2.94804 2.51322,4.26038c1.54474,2.66454 1.792,7.15119 2.69968,10.17696c1.0057,3.35253 2.00935,6.70565 3.0103,10.0596c1.0009,3.35383 2.00182,6.70767 3.00272,10.0615c1.00094,3.35394 2.7238,6.37731 4.29599,9.50025c1.57978,3.13802 3.23104,6.16947 5.04381,9.17908c1.80587,2.99814 3.61173,5.99629 5.4176,8.99443c1.80209,2.99186 3.86239,5.82585 5.84208,8.70288c1.98163,2.87984 3.9649,5.75855 5.9446,8.63971c2.26601,2.66187 4.52872,5.32654 6.79296,7.9899c2.45194,2.88417 4.53914,4.76438 7.78252,6.7207c3.01961,1.82135 5.96632,3.64627 8.82246,5.71594c3.23202,2.34205 5.24105,3.55417 9.19517,4.18337c3.39823,0.54074 7.00177,0.23198 10.44205,0.23159c3.49962,-0.00039 6.99934,-0.02473 10.49892,-0.03909c3.55059,-0.01457 6.89894,0.11184 10.3511,-0.7499c3.3958,-0.84767 6.7916,-1.69534 10.1874,-2.54301c3.3958,-0.84767 6.7916,-1.69534 10.1874,-2.54301c3.39619,-0.84777 6.78341,-1.77141 10.20939,-2.48961c3.42554,-0.71811 6.85108,-1.43621 10.27662,-2.15431c3.42554,-0.71811 6.85108,-1.43622 10.27662,-2.15432c3.41053,-0.71496 6.70878,-1.93633 10.02592,-3.00071c3.33264,-1.06935 6.66528,-2.1387 9.99792,-3.20805c3.1415,-1.00802 6.1667,-3.54151 8.97504,-5.27959c2.97612,-1.84193 5.95224,-3.68387 8.92836,-5.5258c2.97766,-1.84288 5.97194,-3.65482 8.97514,-5.45575c3.00166,-1.80001 6.00332,-3.60002 9.00498,-5.40002c3.00166,-1.80001 6.00333,-3.60002 9.00499,-5.40002c2.83038,-1.6973 7.20965,-1.69692 9.5974,-3.84496c2.60204,-2.34081 5.20407,-4.68162 7.80611,-7.02244c2.6698,-2.40177 5.55761,-4.14059 8.62279,-6.00182c0.64438,-0.39128 1.25584,-0.78978 1.8433,-1.19849c-3.05592,-0.23225 -6.01428,-0.46772 -8.98788,-1.35907zM212.32303,99.3723c0.37259,0.41405 0.72691,0.85318 1.0807,1.30043c-0.40697,-0.43727 -0.77694,-0.87725 -1.0807,-1.30043zM448.76074,126.56342c0.19664,-0.06404 0.39249,-0.12875 0.5874,-0.19433c2.04065,-0.68661 4.31632,-0.7064 5.82842,-1.68504c-0.39112,-0.57165 -0.78224,-1.14328 -1.17336,-1.71492c-1.69094,1.02898 -3.60056,1.95793 -4.69016,3.04512c-0.1841,0.18306 -0.3682,0.36612 -0.5523,0.54918zM456.8652,121.44646c0.02416,-0.32242 0.04831,-0.64485 0.07246,-0.96728c-0.53043,0.83665 -1.45727,1.55608 -2.50941,2.22571c0.38315,0.56001 0.76631,1.12001 1.14947,1.68001c0.70512,-0.60647 1.18052,-1.51067 1.28749,-2.93845zM441.51484,133.06321c1.81378,-1.80352 3.62756,-3.60703 5.44134,-5.41054c-2.49212,0.76183 -5.03789,1.5066 -7.35532,2.57897c-3.1775,1.46748 -6.35501,2.93496 -9.53251,4.40243c-1.22602,0.56622 -2.33604,1.24167 -3.38966,1.98701c3.05771,0.88347 6.10336,1.07979 9.26066,1.32045c1.98499,-1.44799 3.71909,-3.03244 5.57547,-4.87832z" fill="#040404" stroke="#000000" stroke-width="1.5"/><g stroke="#000000" stroke-width="0"><path d="M383.40437,66.43864c-19.88225,0 -36.5,-10.51224 -36.5,-16.69516c0,-6.18292 16.11775,-11.19516 36,-11.19516c19.88225,0 36,5.01224 36,11.19516c0,6.18292 -15.61775,16.69516 -35.5,16.69516z" fill="#181818"/><path d="M383.31521,69.45166c-16.33644,0 -29.99058,-8.63749 -29.99058,-13.71774c0,-5.08025 13.2433,-9.19861 29.57975,-9.19861c16.33644,0 29.57975,4.11836 29.57975,9.19861c0,5.08025 -12.83247,13.71774 -29.16892,13.71774z" fill="#404040"/></g><g stroke="#000000" stroke-width="0"><path d="M168.88809,106.47329l0.91273,-6.26103l33.29393,4.85359l-0.91273,6.26103z" fill="#2f2f2f"/><path d="M176.40515,107.56913l0.91273,-6.26103l33.29393,4.85359l-0.91273,6.26103z" fill="#454545"/></g><g stroke="#000000" stroke-width="0"><path d="M160.5166,112.09902l1.22095,-8.37523l44.53651,6.49254l-1.22094,8.37523z" fill="#454545"/><path d="M170.57201,113.5649l1.22094,-8.37523l44.53652,6.49253l-1.22095,8.37523z" fill="#5a5a5a"/></g><g stroke="#000000" stroke-width="0"><path d="M162.15485,100.86124l6.65054,-45.62036l44.53651,6.49253l-6.65054,45.62037z" fill="#454545"/><path d="M172.21025,102.32711l6.65054,-45.62037l44.53651,6.49254l-6.65054,45.62036z" fill="#5a5a5a"/></g><path d="M171.98803,111.5414l0.16775,-1.15075l40.81748,5.95038l-0.16775,1.15074z" fill="#000000" stroke="#000000" stroke-width="0"/><path d="M184.68644,110.73961l0.25657,-1.75996l16.17807,2.35844l-0.25656,1.75996z" fill="#000000" stroke="none" stroke-width="0"/><g stroke="#000000" stroke-width="0"><path d="M452.64671,147.24259l-0.60791,-4.17006l22.17489,-3.23266l0.60792,4.17006z" fill="#2f2f2f"/><path d="M447.64009,147.97246l-0.60791,-4.17006l22.1749,-3.23266l0.60791,4.17006z" fill="#454545"/></g><g stroke="#000000" stroke-width="0"><path d="M450.73446,152.08111l-0.81319,-5.57819l29.66285,-4.32425l0.81319,5.57819z" fill="#454545"/><path d="M444.03722,153.05744l-0.8132,-5.57819l29.66285,-4.32425l0.81319,5.57819z" fill="#5a5a5a"/></g><g stroke="#000000" stroke-width="0"><path d="M449.64333,144.59635l-4.42948,-30.38473l29.66284,-4.32425l4.42949,30.38473z" fill="#454545"/><path d="M442.94609,145.57269l-4.42949,-30.38473l29.66285,-4.32426l4.42949,30.38473z" fill="#5a5a5a"/></g><path d="M445.5711,151.34862l-0.11173,-0.76644l27.18584,-3.96316l0.11173,0.76644z" fill="#000000" stroke="#000000" stroke-width="0"/><path d="M453.52422,148.42225l-0.17088,-1.1722l10.77515,-1.5708l0.17088,1.17219z" fill="#000000" stroke="none" stroke-width="0"/><g stroke-width="0"><g stroke="#000000"><path d="M-2.61263,368.3714v-372.37237h725.22523v372.37237z" fill="url(#color-16)"/><path d="M-2.61262,368.3714v-372.37237h725.22523v372.37237z" fill="url(#color-17)"/></g><g stroke="none"><path d="M-24.94567,376.25324v-390.39039h164.3114v390.39039z" fill="url(#color-18)"/><path d="M583.02193,373.00999v-390.39039h164.3114v390.39039z" fill="url(#color-19)"/><path d="M-26.30555,110.48748v-127.62762h773.13267v127.62763z" fill="url(#color-20)"/><path d="M745.79934,249.75279v127.62762h-773.13267v-127.62762z" fill="url(#color-21)"/></g></g><path d="M-15.5,30v-60h751v60z" fill="#000000" stroke-opacity="0.50196" stroke="#0d0d0d" stroke-width="0"/><path d="M-15.5,390v-60h751v60z" fill="#000000" stroke-opacity="0.50196" stroke="#0d0d0d" stroke-width="0"/><path d="M340,353.5v-19h40v19z" fill="#000000" stroke="#484c5e" stroke-width="0"/><path d="M177.23164,98.39893l5.32009,-36.49392l36.49392,5.32009l-5.32009,36.49392z" fill="#101010" stroke="#000000" stroke-width="0"/><path d="M444.95832,142.17549l-3.54336,-24.3062l24.3062,-3.54337l3.54336,24.3062z" fill="#101010" stroke="#000000" stroke-width="0"/><path d="M160.13865,82.81202c0,-20.98682 17.01318,-38 38,-38c20.98682,0 38,17.01318 38,38c0,20.98682 -17.01318,38 -38,38c-20.98682,0 -38,-17.01318 -38,-38z" fill="url(#color-22)" stroke="#000000" stroke-width="0"/><path d="M425.33974,128.2507c0,-16.56854 13.43146,-30 30,-30c16.56854,0 30,13.43146 30,30c0,16.56854 -13.43146,30 -30,30c-16.56854,0 -30,-13.43146 -30,-30z" fill="url(#color-23)" stroke="#000000" stroke-width="0"/><text transform="translate(94.766,348.6806) scale(0.39005,0.39005)" font-size="40" xml:space="preserve" fill="#ad2dff" stroke="none" stroke-width="1" font-family="&quot;MS Gothic&quot;, Sans Serif" font-weight="normal" text-anchor="start"><tspan x="0" dy="0">?????? : And Your Back To get The AOE Documents if i am not WRONG...</tspan></text><g fill="#ffffff" stroke="none" stroke-width="0.5"><path d="M203.28103,89.87886c-0.0616,-0.0856 -0.12118,-0.17492 -0.17902,-0.26783c-0.11419,0.13497 -0.22249,0.2422 -0.31377,0.29829c-0.14629,0.32774 -0.29908,0.6449 -0.48843,0.87456c0.35258,-0.22647 0.67852,-0.53969 0.98122,-0.90502zM202.85405,89.17217c-0.01485,-0.0288 -0.02961,-0.05787 -0.04426,-0.0872c-0.01423,0.0731 -0.02821,0.14609 -0.04191,0.21892c0.02866,-0.04455 0.05741,-0.08851 0.08618,-0.13172zM205.27084,81.59456c0.32159,-0.34817 0.64349,-0.71055 0.98001,-1.02956c-0.12491,-0.84231 -0.40318,-1.97016 -0.58942,-1.50257c-0.36994,0.72557 -1.001,2.33962 -1.652,3.36494c0.00034,0.10319 -0.00039,0.2085 -0.00242,0.31388c0.31377,-0.19814 0.6126,-0.46935 0.90729,-0.77002c0.08946,-0.21135 0.19949,-0.44585 0.25814,-0.44741c0.03968,-0.00105 0.07206,0.02462 0.09839,0.07073zM211.92871,84.80348c-0.11449,0.36705 -0.27618,0.71466 -0.51002,1.03162c-0.10066,0.38138 -0.25543,0.76095 -0.44597,1.13114c0.1221,0.40685 0.21052,0.80392 0.22998,1.15585c0.15149,-0.54577 0.30015,-1.09115 0.46982,-1.62898c0.06315,-0.20017 0.16295,-0.69511 0.32711,-0.79117c0.12737,-0.07453 0.5989,0.13771 0.74906,0.1569c0.47908,0.06122 1.53121,-0.17761 2.04772,0.05854c-0.70219,-0.65013 -1.37208,-1.33174 -2.02952,-2.0581c-0.19862,-0.14435 -0.3929,-0.30665 -0.58352,-0.47824c-0.0005,0.0055 -0.001,0.01101 -0.00151,0.01651c0.12607,0.3491 0.25144,0.69815 0.38057,1.04164c0.07938,0.21116 0.45993,0.87133 0.10437,1.08923c-0.08884,0.05444 -0.427,-0.37341 -0.4984,-0.44705c-0.08314,-0.08575 -0.16285,-0.17885 -0.23969,-0.2779zM207.83582,79.43873c0.31179,-0.19067 0.6188,-0.36863 0.92799,-0.53131c-0.0283,-0.25784 -0.0566,-0.51569 -0.0849,-0.77354c-0.01965,-0.17905 0.01082,-0.64683 -0.09586,-0.52077c-0.25377,0.29984 -0.47014,1.55888 -0.81854,1.73632c0.02378,0.02936 0.04762,0.05916 0.07131,0.0893zM207.33316,77.77577l0.06928,-0.24941c0.01913,-0.06887 0.07277,-0.10932 0.11981,-0.09034c0.04704,0.01898 0.06966,0.09019 0.05053,0.15906l-0.06928,0.24941c-0.01074,0.03865 -0.02139,0.07767 -0.03198,0.11701c-0.01761,0.17187 -0.07564,0.36761 -0.14203,0.55704c-0.01264,0.05162 -0.02525,0.10355 -0.03788,0.15574l0.06844,0.02761l-0.0258,0.09287c0.25017,0.11856 0.58739,0.29936 0.61502,0.2824c0.2379,-0.14603 0.27321,-1.56614 0.58296,-1.70258c0.28912,-0.12735 0.38416,0.79672 0.42942,1.43105c0.00297,-0.00149 0.00595,-0.00299 0.00892,-0.00448c0.42355,-0.95272 0.97472,-1.88152 1.34798,-2.67074c0.14129,-0.29873 0.2825,-0.59752 0.42403,-0.89604l0.08288,-0.23393c0.02147,-0.0623 0.07194,-0.09762 0.11648,-0.07965c0.04661,0.01881 0.06925,0.0889 0.05104,0.15719l-0.06628,0.25028l-0.0154,-0.00579c-0.11546,0.95407 -0.46847,2.01163 -0.78106,2.98608c0.11714,-0.04032 0.23581,-0.07825 0.35632,-0.11367c0.20943,-0.29764 0.42243,-0.58784 0.61205,-0.87544l0.00685,-0.00537l-0.00099,-0.00182l0.14945,-0.17068c0.02484,-0.02917 0.05809,-0.04183 0.08857,-0.02953c0.03968,0.01601 0.06198,0.06918 0.05651,0.12676l-0.02021,0.25585l-0.00649,0.00006c0.00412,0.13606 0.00605,0.27356 0.00605,0.41226c0.15675,-0.04659 0.30922,-0.07698 0.44201,-0.06458c0.13838,0.01292 0.26136,0.10264 0.36763,0.24339c0.03947,-0.00131 0.07921,-0.00221 0.11915,-0.00274c-0.02374,-0.29576 -0.03516,-0.58694 -0.03073,-0.86853c-0.00199,-0.0114 -0.00397,-0.0228 -0.00597,-0.03421l-0.00069,-0.00393l-0.00598,0.00268l-0.03616,-0.24413c-0.0038,-0.02381 -0.00255,-0.05024 0.0047,-0.07635c0.01913,-0.06887 0.07277,-0.10932 0.11981,-0.09034c0.02902,0.01171 0.04874,0.04329 0.05511,0.08195l0.04214,0.24136c0.01131,0.0648 0.02267,0.12987 0.03405,0.19523c0.03254,0.1173 0.0536,0.25717 0.06906,0.40028c0.02248,0.13197 0.04476,0.2649 0.06658,0.39869c0.02284,0.00064 0.04569,0.00138 0.06854,0.0022c0.10424,-0.41376 0.23621,-0.84229 0.39024,-1.01595c0.6169,-0.69554 2.5327,1.35889 1.35289,1.3928c-0.39764,0.0084 -0.79464,0.0162 -1.19118,0.01919c-0.07032,0.4176 -0.21163,0.8877 -0.38496,1.37003c0.01139,0.12192 0.02157,0.24411 0.03034,0.3665c0.08229,0.47348 0.17827,0.94103 0.29873,1.40756c0.00763,0.00857 0.12657,0.14225 0.13419,0.15083c0.02854,0.03039 0.03954,0.08635 0.02441,0.14083c-0.011,0.03959 -0.0334,0.06979 -0.0594,0.08471c0.17818,0.67438 0.41756,1.58036 0.59574,2.25474c0.00739,0.02753 0.0075,0.06001 -0.00138,0.09199c-0.01913,0.06887 -0.07277,0.10932 -0.11981,0.09034c-0.00398,-0.00161 -0.0078,-0.00359 -0.01142,-0.00592l-0.15931,-0.09797l0.00559,-0.01491c-0.03868,-0.01472 -0.07718,-0.03042 -0.1155,-0.04706c0.50179,0.52356 1.0133,1.02467 1.53719,1.52097l0.00576,0.01738l0.00305,-0.0034l0.1025,0.19401c0.01731,0.03168 0.02212,0.0766 0.0099,0.12057c-0.016,0.0576 -0.05613,0.09531 -0.09635,0.09502l-0.15668,0.00395l0.00119,-0.01691c-0.64348,0.12919 -1.38693,0.00952 -1.99234,-0.06772c-0.1657,-0.02114 -0.71465,-0.26256 -0.84125,-0.19863c-0.06868,0.03468 -0.1844,0.55045 -0.21047,0.63307c-0.17164,0.54407 -0.32154,1.09598 -0.4749,1.6481l-0.06928,0.2494c-0.01913,0.06887 -0.07277,0.10932 -0.11981,0.09034c-0.02163,-0.00873 -0.03809,-0.02849 -0.04771,-0.054l-0.08237,-0.21543l0.01113,-0.00965c-0.13065,-0.25871 -0.24339,-0.54589 -0.34548,-0.84853c-0.08339,0.13821 -0.17088,0.27456 -0.26145,0.40863c0.08263,0.59948 0.10852,1.20587 -0.02594,1.71923l0.03446,0.0139l-0.06928,0.24941c-0.01913,0.06887 -0.07277,0.10932 -0.11981,0.09034c-0.0303,-0.01222 -0.05047,-0.04612 -0.05587,-0.0871l-0.03043,-0.21194c-0.01186,-0.08267 -0.02373,-0.16534 -0.0356,-0.24801c-0.03342,-0.27362 -0.08571,-0.58208 -0.14387,-0.91145c-0.24483,0.31547 -0.49875,0.61241 -0.74551,0.88409l0.09897,0.03993c0.04704,0.01898 0.06966,0.09019 0.05053,0.15906c-0.01383,0.04978 -0.04568,0.08471 -0.08004,0.09309l-0.13811,0.03772c-0.42715,0.65128 -1.0165,1.15274 -1.55242,1.59709c-0.15628,0.07122 -0.88094,0.52732 -1.00081,0.38265c-0.05419,-0.0654 -0.06143,-0.18328 -0.03558,-0.33081c-0.02185,-0.00885 -0.0437,-0.01771 -0.06554,-0.02659c-0.00511,0.21974 -0.02738,0.45473 -0.06686,0.68721c0.37779,-0.15312 0.7548,-0.26548 1.03704,-0.52357c0.29652,-0.27116 0.8014,-0.00995 1.081,-0.42415c0,0 0.06907,-0.09617 0.12975,-0.00967c0.06068,0.0865 -0.00838,0.18267 -0.00838,0.18267c-0.28656,0.38207 -0.89074,0.1887 -1.10478,0.45282c-0.28957,0.35732 -0.75657,0.48022 -1.20236,0.64898c-0.07407,0.30021 -0.17849,0.58117 -0.31334,0.80135l0.03398,0.04644l-0.12918,0.18598c-0.02538,0.03798 -0.06354,0.05615 -0.09812,0.04219c-0.04598,-0.01855 -0.06862,-0.08701 -0.05176,-0.1544l0.05754,-0.23392c-0.00191,-0.08899 -0.00412,-0.18891 -0.00583,-0.29708c-0.04974,0.14727 -0.09318,0.28053 -0.12391,0.39119c-0.05056,0.18199 -0.15908,0.80122 -0.35954,0.80518c-0.15547,0.00307 -0.58004,-1.33291 -0.67073,-1.54001c-0.01376,-0.03142 -0.02723,-0.06336 -0.04045,-0.09569c-0.36021,-0.15267 -0.73014,-0.35243 -1.03555,-0.59421c-0.00312,0.00925 -0.00627,0.01861 -0.00942,0.02807l-0.01653,0.01528l0.00397,0.00565l-0.13664,0.19026c-0.02537,0.03667 -0.06282,0.054 -0.09682,0.04028c-0.04536,-0.0183 -0.06801,-0.08517 -0.05242,-0.15168l0.05757,-0.25244l0.01677,0.00499c0.00366,-0.02542 0.00754,-0.05061 0.01161,-0.07556c-0.2403,-0.23659 -0.41296,-0.50613 -0.46399,-0.80493l0.0086,-0.17413c-0.27368,0.29355 -0.56794,0.52816 -0.96281,0.71338l-0.17852,0.08374c-0.01784,0.00873 -0.0371,0.01032 -0.05536,0.00295c-0.04704,-0.01898 -0.06966,-0.09019 -0.05053,-0.15906c0.00475,-0.0171 0.01163,-0.03245 0.02,-0.04558l0.12003,-0.19602l0.01057,0.01231c0.16073,-0.34935 0.39152,-0.79175 0.64405,-1.21784c-0.00574,-0.2215 0.04663,-0.55993 0.12238,-0.92495c-0.11492,-0.25516 -0.22475,-0.52708 -0.33277,-0.81415c-0.19161,-0.51457 -0.2933,-1.12222 -0.39241,-1.73508c-0.04342,-0.02201 -0.06365,-0.09043 -0.04525,-0.15666c0.00359,-0.01293 0.0084,-0.02486 0.01415,-0.03558c-0.01754,-0.10803 -0.03528,-0.21594 -0.05371,-0.32325c-0.02149,-0.00085 -0.04167,0.00164 -0.06041,0.0079c-0.00366,0.00122 0.00903,0.60427 0.00932,0.63155c0.0013,0.12248 0.00558,0.24508 0.00889,0.36766c0.13124,0.90877 0.07392,2.11606 0.61724,2.66181c0,0 0.06984,0.07204 0.01005,0.17947c-0.05979,0.10744 -0.12964,0.03541 -0.12964,0.03541c-0.32424,-0.34166 -0.50365,-1.01252 -0.63,-1.66877c-0.02523,0.04262 -0.06584,0.06385 -0.10245,0.04908c-0.03157,-0.01273 -0.05214,-0.049 -0.05647,-0.09229l-0.02797,-0.24693l0.00968,-0.0037c-0.36471,-1.39077 -0.40941,-3.20075 -0.57544,-4.66601c-0.00843,-0.02708 -0.01604,-0.0542 -0.02264,-0.08129c-0.0193,-0.05005 -0.0386,-0.10009 -0.0579,-0.15014l-0.08188,-0.21577c-0.01157,-0.03009 -0.01355,-0.06832 -0.00312,-0.10586c0.01913,-0.06887 0.07277,-0.10932 0.1198,-0.09034c0.02093,0.00845 0.03703,0.02723 0.04676,0.05155l0.08629,0.21169l-0.00442,0.00402l0.00109,0.00288c0.00475,0.0127 0.0095,0.02539 0.01425,0.03808c0.1473,0.21637 0.27721,0.45368 0.39925,0.7007c0.05434,-0.02181 0.11417,0.01765 0.19287,0.16413c0.05611,-0.00486 0.11166,-0.01063 0.16675,-0.01727c-0.09667,-0.19627 -0.22599,-0.47807 -0.18734,-0.57184c0.12537,-0.30423 0.68771,0.00239 0.81754,0.06516c0.16484,0.07969 0.32608,0.16386 0.48482,0.25209c0.001,-0.00032 0.002,-0.00064 0.003,-0.00097c-0.35894,-0.80336 0.58624,-4.89005 0.94434,-2.65061c0.03911,0.24459 0.07822,0.48919 0.11733,0.73378c0.01802,0.11267 0.03918,0.41288 0.04891,0.78147c0.59539,-1.01339 1.18988,-2.51067 1.51215,-3.14274c0.46044,-0.79447 0.79092,0.42783 0.92177,1.42948c0.25429,-0.88328 0.52929,-1.77215 0.87402,-2.50912c0.00762,-0.02565 0.01467,-0.05009 0.0211,-0.07323zM203.76835,90.43386c-0.1373,-0.12564 -0.2651,-0.2656 -0.38524,-0.41896c-0.0818,0.10607 -0.16192,0.20641 -0.24252,0.30128c0.03516,0.03456 0.03142,0.10527 0.03142,0.10527l-0.01127,0.19798c0.01949,0.21431 0.17964,0.3665 0.35806,0.48607c0.06425,-0.242 0.14916,-0.46277 0.24955,-0.67164zM203.58868,82.24139l0.00198,-0.02896l-0.05108,-0.02303l0.07402,-0.24689c0.01987,-0.06696 0.07259,-0.1059 0.1189,-0.08721c0.03924,0.01583 0.06149,0.06801 0.05668,0.12487l-0.01747,0.25574c-0.00419,0.06133 -0.00737,0.13498 -0.00993,0.21876c0.01414,-0.02051 0.0283,-0.04141 0.04248,-0.06267c0.02514,-0.33077 0.02771,-0.66492 -0.02872,-1.01784c-0.03557,-0.22246 -0.22002,-1.43005 -0.27421,-1.33844c-0.29275,0.49494 -0.52978,3.08342 -0.44956,3.04589c0.14763,-0.01448 0.30783,-0.1321 0.47407,-0.32046c0.0145,-0.10525 0.03041,-0.20747 0.04694,-0.3033c0.00567,-0.07261 0.01099,-0.14479 0.01589,-0.21645zM201.92226,83.44241c0.21176,-0.03185 0.41783,-0.07652 0.62375,-0.13211c-0.0719,-0.03716 -0.14442,-0.07346 -0.21768,-0.10888c-0.0532,-0.02572 -0.56161,-0.25536 -0.58371,-0.20173c-0.07229,0.17542 0.04972,0.30761 0.17764,0.44271zM201.80424,85.46235c-0.05438,-0.29362 -0.11663,-0.57996 -0.19685,-0.84884c-0.01252,-0.04195 -0.02344,-0.1004 -0.0339,-0.16836c-0.11713,-0.22553 -0.22388,-0.4566 -0.31826,-0.68637l-0.01357,0.00071c-0.00984,0.00084 -0.01977,-0.00056 -0.02941,-0.00445c-0.00255,-0.00103 -0.00503,-0.00221 -0.00743,-0.00353c0.08077,0.66627 0.16053,1.33294 0.24175,1.99904c0.00598,0.00485 0.00938,0.00875 0.00938,0.00875l0.04316,0.04954c0.03207,0.03958 0.06107,0.0833 0.08739,0.13071c0.0173,-0.23433 0.05729,-0.41434 0.14113,-0.47141c0.01675,-0.0114 0.0429,-0.0128 0.07661,-0.00577zM205.9489,91.16551c-0.16826,0.00788 -0.32909,0.00653 -0.47774,-0.00326l-0.00176,0.00638c0,0 -0.03441,0.12479 -0.11967,0.09076c-0.05158,-0.02059 -0.05936,-0.0744 -0.05746,-0.1137c-0.09557,-0.01158 -0.18433,-0.02708 -0.26469,-0.04623c-0.3022,-0.07233 -0.57121,-0.18354 -0.81362,-0.33042c0.20087,0.18994 0.38263,0.68842 0.56477,1.14304c0.30833,0.18612 0.6306,0.34154 1.00896,0.42577c0.03673,-0.1375 0.07261,-0.27648 0.10905,-0.41565c0.00763,-0.249 0.02319,-0.50731 0.05214,-0.75669zM204.10377,90.69859c-0.08639,-0.05817 -0.16931,-0.12112 -0.24908,-0.18869c-0.01647,0.03327 -0.03196,0.06657 -0.04635,0.09988c-0.05751,0.13308 -0.08277,0.28595 -0.10577,0.43939c0.14455,-0.29905 0.2769,-0.39097 0.4012,-0.35057zM205.7235,92.57988c-0.20943,-0.03855 -0.47808,-0.11218 -0.7653,-0.21812c0.13329,0.38812 0.38983,1.23019 0.47752,1.27427c0.23436,0.11781 0.20288,-0.66089 0.28778,-1.05615zM209.82298,78.1739l0.00723,0.01257c0.0263,0.04569 0.0524,0.0915 0.07833,0.13741c0.19103,-0.68781 0.38205,-1.37562 0.57308,-2.06343c0.00666,-0.02399 0.01323,-0.04926 0.01975,-0.07557c-0.01112,0.02352 -0.02225,0.04703 -0.03337,0.07055c-0.26738,0.56534 -0.53476,1.13068 -0.80214,1.69602c0.17516,-0.01832 0.1958,0.08594 0.15711,0.22244zM212.87916,83.60869c0.20721,0.15634 0.54473,0.23852 0.74379,0.45332c-0.18907,-0.7156 -0.37814,-1.43119 -0.56721,-2.14679l-0.0042,-0.00241l0.00205,-0.00574c-0.00284,-0.01074 -0.00567,-0.02147 -0.00851,-0.03221c-0.04719,-0.01813 -0.09351,-0.03908 -0.13902,-0.06259c-0.00087,0.01605 -0.00177,0.03209 -0.00271,0.04813l0.00772,-0.00191l0.01079,0.25202c0.00113,0.01921 -0.0009,0.03958 -0.0065,0.05976c-0.01913,0.06887 -0.07277,0.10932 -0.1198,0.09034c-0.00821,-0.00331 -0.01567,-0.00821 -0.0223,-0.01441l-0.14529,-0.12873l0.00282,-0.00571l-0.01549,-0.0083c-0.12238,-0.25384 -0.21081,-0.49476 -0.27055,-0.7311c-0.06474,0.48521 -0.08884,0.99154 -0.12226,1.49652c0.14011,0.1753 0.27789,0.34278 0.41358,0.4958c0.0546,0.06158 0.1093,0.12275 0.1641,0.18355c0.02626,0.02038 0.05258,0.04053 0.07898,0.06045zM212.66277,81.40151c0.0029,0.00264 0.00583,0.00523 0.00877,0.00777c-0.00013,-0.00258 -0.00026,-0.00516 -0.00039,-0.00775c-0.05991,-0.06758 -0.11749,-0.13678 -0.17317,-0.2075c0.00451,0.01941 0.00922,0.03887 0.01416,0.05839c0.04946,0.05279 0.09964,0.10268 0.15063,0.14909zM213.09136,78.10965l0.0811,-0.18123c0.0235,-0.0547 0.07024,-0.08436 0.11182,-0.06759c0.04224,0.01704 0.0648,0.07621 0.0551,0.13798l-0.0184,0.12823c0.46172,0.03757 0.87445,0.08442 1.12856,0.07906c0.83469,-0.01209 -0.97984,-1.29432 -1.27457,-0.93198c-0.11494,0.14131 -0.21903,0.47759 -0.30567,0.82189c0.07449,0.00393 0.14865,0.00856 0.22207,0.01364zM210.85869,78.08667c0.06728,-0.02271 0.13726,-0.04824 0.20847,-0.07404c0.03261,-0.17194 0.07201,-0.32995 0.11958,-0.46975c-0.10324,0.16078 -0.21292,0.34809 -0.32805,0.54379zM212.66207,80.37596c-0.00015,-0.00352 -0.0003,-0.00704 -0.00046,-0.01055c-0.05912,0.15038 -0.11999,0.30059 -0.18146,0.44941c0.06155,0.07792 0.12294,0.15299 0.18351,0.22469c-0.00002,-0.24173 0.00635,-0.47822 -0.00159,-0.66354zM212.1291,83.8658c-0.03128,0.22776 -0.07161,0.45206 -0.1259,0.67069c0.09105,0.11749 0.18581,0.22794 0.28478,0.33001c0.06906,0.07123 0.27227,0.39416 0.33971,0.41733c0.12369,0.0425 -0.0902,-0.33148 -0.14856,-0.48671c-0.1087,-0.28914 -0.21739,-0.57828 -0.32609,-0.86742c-0.008,-0.02128 -0.01598,-0.04258 -0.02394,-0.0639zM208.91513,89.70789c-0.06087,0.06344 -0.12077,0.125 -0.1794,0.18456c-0.02893,0.04649 -0.06,0.09155 -0.09305,0.1352c0.09361,-0.10337 0.18522,-0.21019 0.27434,-0.32102c-0.00063,0.00042 -0.00126,0.00084 -0.00189,0.00126zM208.32364,90.36043c-0.13318,0.11191 -0.28123,0.21093 -0.43942,0.29785c-0.01461,0.0526 -0.02863,0.10306 -0.04118,0.14827c0.16251,-0.14276 0.32342,-0.29071 0.4806,-0.44612zM207.66412,90.76871c-0.22914,0.10487 -0.47344,0.18745 -0.72053,0.24976c-0.01615,0.04389 -0.03472,0.09173 -0.05375,0.13963l0.01115,0.00674c0.03471,0.02012 0.05344,0.0708 0.04757,0.12496c0.19639,-0.12802 0.47923,-0.18874 0.62929,-0.25547c0.01247,-0.0105 0.02494,-0.02103 0.03741,-0.03158c-0.00364,-0.02359 -0.00233,-0.04972 0.00483,-0.07552zM206.815,91.40677l-0.02235,-0.00902c-0.03627,0.08959 -0.05229,0.1331 -0.01553,0.06561c0.01084,-0.01989 0.02355,-0.03873 0.03789,-0.0566zM206.96499,79.99059c0.20991,-0.13623 0.41523,-0.26816 0.61779,-0.39511c-0.12723,-0.19415 -0.25066,-0.39059 -0.37582,-0.5693c-0.07693,0.32006 -0.15589,0.64531 -0.24198,0.96441zM203.75341,82.88296c0.00046,-0.00022 0.00092,-0.00044 0.00138,-0.00067c0.00401,-0.03446 0.00797,-0.06887 0.01185,-0.10326c-0.00398,0.00523 -0.00797,0.01043 -0.01195,0.0156c-0.00044,0.02888 -0.00086,0.05834 -0.00128,0.08832zM206.08983,92.43887c-0.00399,0.00194 -0.00798,0.00388 -0.01196,0.00584c-0.00005,0.01424 -0.00009,0.02845 -0.00012,0.04262c0.00396,-0.01619 0.00799,-0.03234 0.01208,-0.04847zM206.08096,92.16096c0.03241,-0.01795 0.06508,-0.03508 0.09792,-0.05152c0.08002,-0.2895 0.15601,-0.57829 0.16761,-0.89281c-0.00166,-0.00068 -0.00332,-0.00136 -0.00499,-0.00204c-0.05517,0.28659 -0.15583,0.61532 -0.26022,0.92986c-0.00011,0.00551 -0.00022,0.01102 -0.00032,0.01652zM212.7205,78.74317c0.0071,0.04924 0.01408,0.09858 0.02093,0.14799c0.06061,-0.1353 0.12122,-0.2706 0.1818,-0.40592c-0.04852,0.00002 -0.09703,-0.00006 -0.14553,-0.00023c-0.02077,0.09279 -0.03989,0.18032 -0.0572,0.25816zM212.6958,81.68223c-0.02037,-0.01468 -0.04058,-0.02986 -0.06064,-0.0455c0.02802,0.07274 0.0591,0.14672 0.0934,0.22223c-0.01346,-0.05496 -0.02421,-0.11426 -0.03277,-0.17673zM204.50871,91.74058c-0.21809,-0.63117 -0.38935,-1.12989 -0.69682,-0.46108c0.03551,0.02039 0.06861,0.03999 0.09797,0.05911c0.20659,0.13454 0.4024,0.27218 0.59885,0.40196zM206.88892,86.19457c0.33274,-1.19791 0.00441,-2.9582 -0.10637,-4.20349c-0.13614,0.96452 -0.84239,2.03945 -0.78937,2.9015c0.03008,0.48913 0.02676,0.98998 -0.11507,1.52098c0.04496,0.72343 0.05303,1.47141 0.00437,2.22226c0.32562,-0.79472 0.74748,-1.50894 1.00644,-2.44125z"/><path d="M197.16034,90.07828c-0.17433,-0.29022 -0.26415,-0.64943 -0.34087,-1.01619c-0.1051,-0.08811 -0.21413,-0.23123 -0.32063,-0.40291c-0.11615,0.06597 -0.23332,0.12788 -0.35186,0.18549c0.2794,0.46224 0.61116,0.88396 1.01336,1.2336zM197.08123,88.49576c0.00906,-0.07431 0.01781,-0.14888 0.02624,-0.22364c-0.03166,0.02221 -0.06335,0.04413 -0.09509,0.06576c0.02328,0.05198 0.04624,0.10466 0.06885,0.15788zM196.7431,80.19818c0.08084,0.02392 0.14317,0.28838 0.18587,0.52302c0.29322,0.39786 0.60354,0.76936 0.96279,1.0773c0.03781,-0.1007 0.07742,-0.20085 0.11769,-0.29857c-0.50846,-1.22134 -0.76218,-2.99334 -0.99601,-3.82291c-0.07825,-0.51466 -0.89961,0.4484 -1.3979,1.19935c0.34422,0.43126 0.65142,0.89804 0.96365,1.35123c0.05434,-0.03366 0.10921,-0.04561 0.1639,-0.02943zM185.65721,80.89521c-0.12754,0.04251 -0.76208,0.31887 -0.86444,0.23325c-0.40967,-0.34265 0.37333,-0.82309 0.565,-0.99296c0.31177,-0.27632 0.62047,-0.55935 0.93016,-0.84216c0.00142,-0.00541 0.00285,-0.01082 0.00428,-0.01623c-0.33085,0.08978 -0.6632,0.16937 -0.99465,0.23026c-1.19299,0.43726 -2.386,0.82734 -3.61174,1.17519c0.80824,-0.02633 2.17701,0.60266 2.86582,0.7279c0.2159,0.03925 0.95248,0.01838 1.10058,0.13779c0.19088,0.15389 0.13857,0.66142 0.14905,0.87539c0.02815,0.57492 0.02424,1.14897 0.02408,1.72447c0.16275,-0.32628 0.43865,-0.66898 0.7651,-1.00808c-0.12178,-0.42394 -0.19029,-0.84309 -0.18297,-1.24325c-0.20244,-0.39003 -0.29288,-0.78152 -0.31028,-1.17339c-0.14489,0.06452 -0.29148,0.12232 -0.43999,0.17182zM193.98266,77.14458c-0.41532,-0.30155 -0.23016,-1.57824 -0.46687,-1.95966c-0.09951,-0.16035 -0.23762,0.29489 -0.33396,0.45716c-0.13874,0.23368 -0.27748,0.46736 -0.41621,0.70105c0.36657,0.27256 0.72422,0.55877 1.08359,0.85886c0.04452,-0.01952 0.08911,-0.03866 0.13345,-0.0574zM195.18955,75.89485c0.19442,0.83074 0.23345,1.77884 0.24586,2.71372c0.568,-0.89978 1.49827,-1.93242 1.83119,-1.00289c0.20369,0.72267 0.45168,2.36994 0.88753,3.5587c0.15567,-0.34581 0.30083,-0.62239 0.3693,-0.72234c0.14864,-0.21698 0.29728,-0.43396 0.44592,-0.65094c1.36091,-1.98662 1.09715,2.25031 0.28893,2.87479c0.00126,0.00069 0.00252,0.00138 0.00379,0.00206c0.25443,-0.02294 0.51077,-0.04106 0.77039,-0.05357c0.20447,-0.00985 1.10354,-0.08548 1.16028,0.25099c0.01749,0.1037 -0.27075,0.32146 -0.48067,0.47059c0.07393,0.02737 0.14885,0.0541 0.22487,0.08017c0.16576,-0.10879 0.26405,-0.12332 0.3311,-0.08185c0.26472,-0.18756 0.53663,-0.36289 0.8246,-0.51171c0.01149,-0.01022 0.02298,-0.02044 0.03447,-0.03066l0.00263,-0.00231l-0.00458,-0.0055l0.20146,-0.16773c0.0229,-0.01934 0.05249,-0.031 0.08481,-0.031c0.07263,0 0.13151,0.05888 0.13151,0.13151c0,0.03958 -0.01749,0.07508 -0.04516,0.09919l-0.1969,0.17329c-0.0461,0.04007 -0.0922,0.08015 -0.13829,0.12022c-0.01961,0.02316 -0.04065,0.04597 -0.06279,0.06842c-0.79564,1.32595 -1.55578,3.02521 -2.59856,4.20452l0.01201,0.00721l-0.13408,0.22346c-0.02272,0.0394 -0.06526,0.06591 -0.114,0.06591c-0.05653,0 -0.10473,-0.03567 -0.12332,-0.08573c-0.42854,0.57397 -0.93638,1.14149 -1.51836,1.34143c0,0 -0.12476,0.04158 -0.16634,-0.08317c-0.04158,-0.12476 0.08317,-0.16634 0.08317,-0.16634c0.96488,-0.30965 1.35091,-1.47643 1.88363,-2.28799c0.05187,-0.11497 0.1051,-0.22959 0.15414,-0.34524c0.01092,-0.02576 0.26113,-0.59275 0.25652,-0.59531c-0.02361,-0.0131 -0.05067,-0.02319 -0.08083,-0.0306c-0.06697,0.09471 -0.13323,0.19025 -0.19925,0.28599c0.00385,0.01237 0.00593,0.02552 0.00593,0.03915c0,0.06985 -0.05446,0.12699 -0.12324,0.13125c-0.37398,0.54324 -0.74953,1.08055 -1.21404,1.49521c-0.26071,0.2309 -0.51808,0.44673 -0.77605,0.64473c-0.0356,0.37512 -0.09341,0.71608 -0.18681,0.92393c0.1863,0.50066 0.33612,1.00848 0.42456,1.40125l0.01942,-0.00763l0.09106,0.2318c0.00657,0.01565 0.0102,0.03284 0.0102,0.05087c0,0.07263 -0.05888,0.13151 -0.13151,0.13151c-0.02819,0 -0.05432,-0.00887 -0.07573,-0.02398l-0.21557,-0.1477c-0.47685,-0.32672 -0.79493,-0.66176 -1.06172,-1.04483l-0.05521,0.16842c-0.1861,0.26383 -0.52978,0.45337 -0.95469,0.58579c-0.00396,0.02523 -0.0083,0.05059 -0.01302,0.0761l0.02522,0.00168l-0.01742,0.26141c-0.004,0.06903 -0.06125,0.12378 -0.13128,0.12378c-0.0525,0 -0.09781,-0.03076 -0.1189,-0.07524l-0.11635,-0.2327l0.00769,-0.00385l-0.01706,-0.02082c-0.00073,-0.01018 -0.00148,-0.02025 -0.00225,-0.03022c-0.5173,0.11244 -1.10799,0.16033 -1.66702,0.1673c-0.03083,0.0256 -0.06186,0.05074 -0.09308,0.07527c-0.2058,0.1617 -1.31057,1.26614 -1.52525,1.20375c-0.27681,-0.08045 -0.18867,-0.70916 -0.18868,-0.90108c-0.00001,-0.11669 -0.00891,-0.25968 -0.02118,-0.41836c-0.0441,0.10192 -0.0857,0.19582 -0.12268,0.27949l-0.01032,0.24383c-0.00257,0.07036 -0.06042,0.12662 -0.13142,0.12662c-0.0534,0 -0.09937,-0.03183 -0.11996,-0.07755l-0.10764,-0.22578l0.06509,-0.03103c-0.10232,-0.26038 -0.13895,-0.56676 -0.12601,-0.87978c-0.55389,-0.33058 -1.15492,-0.62579 -1.41917,-1.07541c-0.19533,-0.33234 -1.10881,-0.38013 -1.35934,-0.85207c0,0 -0.05881,-0.11762 0.05881,-0.17643c0.11762,-0.05881 0.17643,0.05881 0.17643,0.05881c0.22847,0.49973 1.03023,0.4452 1.33737,0.81577c0.29235,0.35273 0.77249,0.6035 1.23799,0.89324c0.03486,-0.23556 0.09456,-0.46691 0.17221,-0.67724c-0.03375,0.00006 -0.0675,0.00011 -0.10125,0.00014c-0.021,0.14979 -0.07652,0.25881 -0.17698,0.30009c-0.22225,0.09132 -1.05251,-0.61842 -1.24204,-0.74575c-0.57275,-0.6264 -1.19766,-1.32739 -1.53957,-2.10841l-0.17722,-0.08861c-0.04448,-0.02109 -0.07524,-0.0664 -0.07524,-0.1189c0,-0.07263 0.05888,-0.13151 0.13151,-0.13151h0.15282c-0.23785,-0.35204 -0.47589,-0.73076 -0.69416,-1.12358c-0.20778,0.29008 -0.39934,0.56258 -0.55128,0.80926c-0.04836,0.07386 -0.09672,0.14771 -0.14508,0.22156l-0.12399,0.18933c-0.02331,0.0368 -0.06439,0.06122 -0.11117,0.06122c-0.07263,0 -0.13151,-0.05888 -0.13151,-0.13151v-0.26301h0.0532c0.01129,-0.53826 0.28112,-1.10337 0.62705,-1.64023c-0.07403,-0.16179 -0.14293,-0.32456 -0.20541,-0.48752c-0.25848,0.24793 -0.52578,0.47712 -0.80696,0.67247l0.01173,0.01341l-0.19745,0.17277c-0.02319,0.02051 -0.05368,0.03296 -0.08708,0.03296c-0.07263,0 -0.13151,-0.05888 -0.13151,-0.13151v-0.26301c0,-0.58224 0.00472,-1.16295 -0.02377,-1.74455c-0.00432,-0.08831 0.03392,-0.62168 -0.04807,-0.68084c-0.15113,-0.10905 -1.00645,-0.09014 -1.24468,-0.13349c-0.8704,-0.15837 -1.94882,-0.32932 -2.79246,-0.69801l-0.00486,0.01649l-0.21602,-0.06369c-0.05596,-0.01511 -0.09714,-0.06623 -0.09714,-0.12697c0,-0.04637 0.024,-0.08713 0.06026,-0.11055l0.21714,-0.14476l0.00293,0.00439l0.0147,-0.01428c0.91883,-0.2702 1.82232,-0.5497 2.72098,-0.85421c-0.05963,0.00112 -0.11915,0.00128 -0.17852,0.00044l0.00201,0.01628l-0.25899,0.03195c-0.00593,0.00082 -0.01199,0.00124 -0.01814,0.00124c-0.07263,0 -0.13151,-0.05888 -0.13151,-0.13151c0,-0.03372 0.01269,-0.06448 0.03356,-0.08776c0.50749,-0.57133 1.18928,-1.33887 1.69678,-1.91021c-0.03034,-0.02409 -0.0498,-0.0613 -0.0498,-0.10305c0,-0.05746 0.03685,-0.10631 0.08821,-0.12421c0.0139,-0.00521 0.2306,-0.08648 0.2445,-0.09169c0.34719,-0.39632 0.66077,-0.80296 0.95764,-1.22047c0.05939,-0.1127 0.12063,-0.22468 0.18348,-0.33593c-0.05465,-0.5237 -0.06955,-1.02355 -0.00613,-1.44645c-0.54945,-0.15454 -1.09766,-0.31383 -1.64654,-0.47392c-1.62508,-0.48353 1.82734,-1.69875 2.41564,-0.80317c0.14688,0.2236 0.16485,0.68045 0.15001,1.11269c0.03204,0.00797 0.06405,0.01601 0.09601,0.02414c0.08189,-0.11852 0.1641,-0.23605 0.24621,-0.3526c0.07666,-0.12979 0.15984,-0.25437 0.25026,-0.35315c0.04101,-0.05762 0.08189,-0.11499 0.12258,-0.17211l0.1516,-0.21276c0.02374,-0.03422 0.06331,-0.05663 0.10812,-0.05663c0.07263,0 0.13151,0.05888 0.13151,0.13151c0,0.02753 -0.00846,0.05308 -0.02292,0.0742l-0.14437,0.21767l-0.00728,-0.00483l-0.00247,0.00347c-0.00717,0.01006 -0.01433,0.02011 -0.02148,0.03016c-0.10245,0.26871 -0.23062,0.54046 -0.37764,0.81184c0.05525,0.01578 0.11008,0.03184 0.16439,0.04818c0.20184,-0.09281 0.4072,-0.13084 0.60432,-0.09015c0.18917,0.03905 0.38915,0.12619 0.58883,0.23035c0.0535,-0.13153 0.10919,-0.26118 0.1674,-0.38862l-0.00898,-0.00254l0.07062,-0.25035c0.01461,-0.0567 0.06609,-0.09859 0.12735,-0.09859c0.04706,0 0.08835,0.02472 0.11159,0.06189l0.14168,0.21903l-0.00208,0.00135l0.00744,0.00771c0.15236,0.34527 0.33617,0.70195 0.51218,1.06431c0.15367,0.0797 0.30382,0.16106 0.45091,0.24411c-0.0582,-1.04364 -0.14047,-2.18155 0.06718,-3.13045l-0.02362,-0.00041l0.0045,-0.26269c0.00105,-0.07172 0.05952,-0.12953 0.13149,-0.12953c0.06879,0 0.12523,0.05281 0.13102,0.1201l0.02485,0.25354c0.08137,0.33723 0.16222,0.67459 0.24318,1.01192c0.21389,0.89119 0.62096,1.98282 0.84161,3.0483c0.00355,0.00255 0.00711,0.00511 0.01066,0.00766c0.30749,-0.58421 0.79584,-1.42412 1.14817,-1.19274c0.37747,0.24789 -0.12121,1.60805 0.15279,1.83755c0.03182,0.02665 0.56978,-0.01578 0.96286,-0.0325v-0.09794h0.10568c0.0026,-0.05432 0.00511,-0.10839 0.00747,-0.16218c-0.01912,-0.20502 -0.0242,-0.41284 0.01763,-0.58256c0.00047,-0.04136 0.00072,-0.08243 0.00072,-0.12319v-0.26301c0,-0.07263 0.05888,-0.13151 0.13151,-0.13151c0.07263,0 0.13151,0.05888 0.13151,0.13151v0.26301c0,0.0244 0.00036,0.05027 0.00105,0.07752zM195.34374,89.9169c0.29385,-0.04512 0.57492,-0.12817 0.68463,-0.32394l0.0607,-0.19205c0,0 0.02208,-0.06848 0.08423,-0.0878c-0.07532,-0.12081 -0.14787,-0.24661 -0.22054,-0.37848c-0.22597,0.09947 -0.45739,0.18329 -0.69648,0.24991c0.05884,0.23647 0.09159,0.4783 0.08746,0.73237zM198.60398,81.69587c-0.01401,0.0972 -0.03135,0.20022 -0.0518,0.30558c0.15818,0.24221 0.33525,0.41505 0.53465,0.48526c0.09692,0.06628 0.76611,-2.479 0.55052,-3.06034c-0.0399,-0.10759 -0.76175,0.96696 -0.89694,1.16431c-0.21446,0.31307 -0.33977,0.63092 -0.43244,0.9542c0.01149,0.02558 0.02309,0.05082 0.03481,0.07568c0.02877,-0.08042 0.05275,-0.15148 0.07059,-0.21124l0.07437,-0.2492c0.01525,-0.05575 0.06627,-0.09672 0.12686,-0.09672c0.07152,0 0.1297,0.05709 0.13146,0.12819l0.00755,0.26244l-0.0798,0.0023l-0.00842,0.02822c-0.02084,0.06983 -0.04129,0.14031 -0.06142,0.21134zM200.9334,82.90911c-0.01,-0.05931 -0.8045,-0.03606 -0.88828,-0.03202c-0.11537,0.00556 -0.23007,0.01224 -0.34423,0.01997c0.26448,0.13149 0.53337,0.25269 0.81511,0.36391c0.22972,-0.07918 0.45012,-0.15785 0.4174,-0.35185zM200.00497,85.25637c0.0944,0.0862 0.0805,0.27219 0.01414,0.50102c0.05482,-0.03489 0.11196,-0.06525 0.17175,-0.09051l0.07903,-0.03046c0,0 0.00622,-0.0024 0.01639,-0.00471c0.36968,-0.60057 0.73754,-1.20224 1.10665,-1.80315c-0.00385,0.00034 -0.00774,0.00051 -0.01168,0.00051c-0.01489,0 -0.0292,-0.00247 -0.04255,-0.00703l-0.01857,-0.00587c-0.21966,0.18178 -0.457,0.36006 -0.70662,0.52911c-0.04074,0.06045 -0.07845,0.11169 -0.11201,0.14669c-0.21508,0.22428 -0.41194,0.472 -0.6007,0.72963c0.04952,0.00623 0.08529,0.01756 0.10415,0.03478zM191.72698,89.7816c-0.00307,0.14591 -0.00686,0.29143 -0.00889,0.43587c0.55784,0.06488 1.06525,0.04079 1.56515,-0.01774c0.42824,-0.36142 0.87285,-0.76459 1.22502,-0.86785c-0.39322,0.04654 -0.80963,0.04908 -1.25713,0.00205c-0.11896,-0.01258 -0.24817,-0.03184 -0.38534,-0.05742c-0.01251,0.03799 -0.04407,0.08605 -0.12363,0.08584c-0.13151,-0.00035 -0.13115,-0.13185 -0.13115,-0.13185l0.00002,-0.00672c-0.21018,-0.04758 -0.43401,-0.10783 -0.6646,-0.17968c-0.05598,0.24756 -0.134,0.49846 -0.21944,0.7375zM195.11031,89.79318c0.02725,-0.1543 0.05113,-0.30893 0.02261,-0.45713c-0.00714,-0.03709 -0.01581,-0.0746 -0.02584,-0.11244c-0.13682,0.03356 -0.27623,0.06153 -0.41862,0.08364c0.18817,0.00924 0.33649,0.14705 0.42185,0.48593zM191.70616,91.58317c0.13875,-0.00825 0.81972,-0.70862 1.15448,-1.02567c-0.43966,-0.00942 -0.84107,-0.04238 -1.14673,-0.08595c-0.03456,0.40729 -0.3786,1.13368 -0.00775,1.11162zM191.8818,75.09149c-0.15321,-0.63839 -0.30643,-1.27678 -0.45964,-1.91517c-0.00637,-0.02656 -0.01275,-0.05311 -0.01912,-0.07967c-0.00108,0.02745 -0.00172,0.05392 -0.00172,0.07921c-0.00003,0.72532 -0.00007,1.45063 -0.0001,2.17595c0.05371,-0.03362 0.10762,-0.06707 0.16176,-0.10034l0.01489,-0.00915c-0.00108,-0.14424 0.06779,-0.23522 0.30393,-0.15083zM185.37128,79.19968c0.09954,-0.03669 0.19909,-0.07377 0.29864,-0.11128c0.24741,-0.0932 0.50331,-0.19931 0.76547,-0.31193c0.14836,-0.49165 0.31017,-0.98101 0.40742,-1.46589c-0.17409,0.20126 -0.38979,0.39589 -0.65761,0.58978l-0.02471,0.00195l0.00172,0.00649l-0.25137,0.06648c-0.01159,0.00335 -0.02384,0.00514 -0.03652,0.00514c-0.07263,0 -0.13151,-0.05888 -0.13151,-0.13151c0,-0.02127 0.00505,-0.04137 0.01402,-0.05915l0.11218,-0.23485l0.00999,0.00477c0.00488,-0.01557 0.00982,-0.03113 0.0148,-0.04667c-0.07226,0.00489 -0.14466,0.00702 -0.21717,0.00616c-0.00808,0.00909 -0.01616,0.01819 -0.02424,0.02729l0.00062,0.00623l-0.00676,0.00068c-0.53851,0.60625 -1.07702,1.21249 -1.61553,1.81874c0.35924,-0.12753 0.85957,-0.07634 1.20758,-0.14532c0.04434,-0.00879 0.08866,-0.01783 0.13298,-0.02711zM186.65668,77.13281c0.01438,-0.01662 0.02844,-0.03327 0.04218,-0.04995c-0.10458,0.04576 -0.21123,0.08936 -0.32047,0.13052c-0.00118,0.0024 -0.00235,0.0048 -0.00353,0.0072c0.00506,-0.00128 0.01012,-0.00262 0.01517,-0.00401c0.08869,-0.0245 0.17761,-0.05261 0.26665,-0.08375zM187.37813,74.00301c0.01249,-0.35963 -0.00234,-0.71834 -0.10744,-0.89632c-0.26949,-0.45636 -3.28348,0.06535 -2.12918,0.39615c0.35075,0.1023 0.9419,0.21577 1.59748,0.35679l0.0239,-0.12863c0.01036,-0.06228 0.06449,-0.10976 0.12972,-0.10976c0.06421,0 0.11767,0.04602 0.1292,0.10687l0.04271,0.20288c0.1039,0.02326 0.20865,0.04725 0.3136,0.07202zM189.92767,74.12219c0.01212,0.15077 0.00589,0.31569 -0.01514,0.49121c0.08892,0.05171 0.17624,0.10269 0.26091,0.14997c-0.08437,-0.22963 -0.16442,-0.44921 -0.24576,-0.64117zM186.5284,76.87293c0.11175,-0.04482 0.22594,-0.09252 0.34146,-0.14286c-0.02796,-0.16464 -0.05455,-0.33036 -0.07863,-0.49558c-0.00157,0.00328 -0.00314,0.00655 -0.0047,0.00983c-0.08249,0.1727 -0.16486,0.39939 -0.25812,0.62861zM186.1227,79.80899c-0.26244,0.2326 -0.52488,0.4652 -0.78732,0.69779c-0.14089,0.12487 -0.58212,0.39768 -0.39398,0.4047c0.10257,0.00383 0.50927,-0.22466 0.63264,-0.26578c0.17678,-0.05893 0.35096,-0.12742 0.5227,-0.20399c0.00894,-0.22809 0.03945,-0.45621 0.08386,-0.68416c-0.01928,0.01717 -0.03858,0.03432 -0.05789,0.05144zM188.38788,86.52515c0.08098,0.13919 0.16699,0.27554 0.2571,0.40938c-0.02905,-0.05404 -0.05481,-0.10865 -0.07705,-0.16381c-0.05844,-0.07891 -0.11786,-0.1602 -0.17792,-0.24365c-0.00071,-0.00064 -0.00142,-0.00128 -0.00213,-0.00192zM189.45488,87.97905c0,-0.04767 0,-0.10088 0,-0.15635c-0.18612,-0.14294 -0.35349,-0.29348 -0.49525,-0.45055c0.15831,0.2075 0.32466,0.40936 0.49525,0.60691zM189.71789,88.17881c0,0.02721 -0.00826,0.05248 -0.02241,0.07346c0.01324,0.01478 0.0265,0.02953 0.03976,0.04426c0.18261,0.12069 0.55192,0.28648 0.77523,0.483c0.01273,-0.0536 0.05827,-0.0945 0.11424,-0.1003l0.01809,-0.00213c-0.00796,-0.05271 -0.01529,-0.10518 -0.02079,-0.15298c-0.31904,-0.15362 -0.62641,-0.32539 -0.90412,-0.5125zM190.68158,89.0097c0.02501,0.07805 0.01955,0.03067 0.00374,-0.06816h-0.03451c0.01301,0.02242 0.0234,0.04515 0.03077,0.06816zM194.88147,77.05135c-0.2427,0.12158 -0.48984,0.26065 -0.74138,0.39607c0.2323,0.19789 0.46649,0.40154 0.70542,0.61103c0.00354,-0.33553 0.01934,-0.67416 0.03597,-1.0071zM198.22152,81.94566c-0.00353,-0.00643 -0.00706,-0.01288 -0.01057,-0.01937c-0.00789,0.03409 -0.01565,0.06824 -0.02337,0.10245c0.00055,0.00039 0.0011,0.00077 0.00166,0.00116c0.01098,-0.02859 0.02176,-0.05668 0.03229,-0.08424zM191.25772,90.24827c0.00543,-0.01345 0.01085,-0.02694 0.01627,-0.04046c-0.00477,-0.00338 -0.00956,-0.00675 -0.01435,-0.01012c-0.00054,0.01685 -0.00118,0.03371 -0.00192,0.05058zM191.38506,89.92175c-0.02363,-0.33821 -0.03661,-0.68844 -0.00269,-0.98132c-0.00257,0.00001 -0.00514,0.00002 -0.00771,0.00003c-0.1052,0.30269 -0.11106,0.60562 -0.11161,0.91076c0.03926,0.02816 0.078,0.0569 0.11609,0.08632c0.00198,-0.00526 0.00395,-0.01052 0.00592,-0.01579zM187.35526,74.40693c-0.06741,-0.01839 -0.1348,-0.03688 -0.20216,-0.05546c0.03193,0.1515 0.0639,0.30299 0.09588,0.45447c0.02857,-0.04423 0.05729,-0.08834 0.08614,-0.13232c0.00598,-0.08044 0.0132,-0.17076 0.02014,-0.26669zM186.12224,77.62517c0.07676,-0.05848 0.14844,-0.11674 0.21539,-0.175c-0.03388,0.00716 -0.06779,0.01381 -0.10174,0.01994c-0.03598,0.05597 -0.07377,0.10809 -0.11366,0.15506zM194.71085,89.98834c0.04815,-0.0069 0.10166,-0.01282 0.15883,-0.01857c-0.16897,-0.75185 -0.59911,-0.34445 -1.14535,0.17064c0.32281,-0.04792 0.64778,-0.10352 0.98652,-0.15207zM193.0143,86.67067c0.22202,-0.73064 0.52171,-1.43684 0.86314,-2.10565c0.00787,-0.55779 0.19642,-1.03401 0.42684,-1.48633c0.40609,-0.79718 -0.15996,-2.0867 0.02301,-3.05342c-0.63409,1.1385 -1.76888,2.68213 -1.76888,3.94538c0,0.98316 0.31028,1.82183 0.4559,2.70002z"/></g></g></g></svg>