<svg version="1.1" xmlns="http://www.w3.org/2000/svg" xmlns:xlink="http://www.w3.org/1999/xlink" width="758.91667" height="420" viewBox="0,0,758.91667,420"><defs><linearGradient x1="-12.50451" y1="188.24325" x2="148.32658" y2="188.24325" gradientUnits="userSpaceOnUse" id="color-1"><stop offset="0" stop-color="#000000"/><stop offset="1" stop-color="#000000" stop-opacity="0"/></linearGradient><linearGradient x1="743.41667" y1="185" x2="582.58559" y2="185" gradientUnits="userSpaceOnUse" id="color-2"><stop offset="0" stop-color="#000000"/><stop offset="1" stop-color="#000000" stop-opacity="0"/></linearGradient><linearGradient x1="364.5428" y1="-9.95495" x2="364.5428" y2="117.67268" gradientUnits="userSpaceOnUse" id="color-3"><stop offset="0" stop-color="#000000"/><stop offset="1" stop-color="#000000" stop-opacity="0"/></linearGradient><linearGradient x1="363.53679" y1="384.56562" x2="363.53679" y2="256.93799" gradientUnits="userSpaceOnUse" id="color-4"><stop offset="0" stop-color="#000000"/><stop offset="1" stop-color="#000000" stop-opacity="0"/></linearGradient><linearGradient x1="354.59372" y1="233.34716" x2="345.43922" y2="226.36843" gradientUnits="userSpaceOnUse" id="color-5"><stop offset="0" stop-color="#484c5e"/><stop offset="1" stop-color="#212d30"/></linearGradient><linearGradient x1="353.6032" y1="242.23206" x2="341.20407" y2="232.77984" gradientUnits="userSpaceOnUse" id="color-6"><stop offset="0" stop-color="#484c5e"/><stop offset="1" stop-color="#212d30"/></linearGradient><linearGradient x1="348.46144" y1="253.10565" x2="343.39411" y2="238.36098" gradientUnits="userSpaceOnUse" id="color-7"><stop offset="0" stop-color="#484c5e"/><stop offset="1" stop-color="#212d30"/></linearGradient><linearGradient x1="338.16317" y1="261.09729" x2="340.66248" y2="245.7078" gradientUnits="userSpaceOnUse" id="color-8"><stop offset="0" stop-color="#484c5e"/><stop offset="1" stop-color="#212d30"/></linearGradient><linearGradient x1="328.5935" y1="264.91203" x2="331.09281" y2="249.52253" gradientUnits="userSpaceOnUse" id="color-9"><stop offset="0" stop-color="#484c5e"/><stop offset="1" stop-color="#212d30"/></linearGradient><linearGradient x1="320.39094" y1="268.1818" x2="322.89024" y2="252.79231" gradientUnits="userSpaceOnUse" id="color-10"><stop offset="0" stop-color="#484c5e"/><stop offset="1" stop-color="#212d30"/></linearGradient><linearGradient x1="311.16304" y1="271.86029" x2="313.66235" y2="256.47079" gradientUnits="userSpaceOnUse" id="color-11"><stop offset="0" stop-color="#484c5e"/><stop offset="1" stop-color="#212d30"/></linearGradient><linearGradient x1="302.96047" y1="275.13006" x2="305.45977" y2="259.74057" gradientUnits="userSpaceOnUse" id="color-12"><stop offset="0" stop-color="#484c5e"/><stop offset="1" stop-color="#212d30"/></linearGradient><linearGradient x1="309.06606" y1="279.67478" x2="283.95574" y2="279.70597" gradientUnits="userSpaceOnUse" id="color-13"><stop offset="0" stop-color="#484c5e"/><stop offset="1" stop-color="#212d30"/></linearGradient><linearGradient x1="335.36282" y1="137.86508" x2="336.37539" y2="146.94849" gradientUnits="userSpaceOnUse" id="color-14"><stop offset="0" stop-color="#484c5e"/><stop offset="1" stop-color="#212d30"/></linearGradient><linearGradient x1="323.67135" y1="138.40742" x2="325.0428" y2="150.71025" gradientUnits="userSpaceOnUse" id="color-15"><stop offset="0" stop-color="#484c5e"/><stop offset="1" stop-color="#212d30"/></linearGradient><linearGradient x1="310.67982" y1="139.01007" x2="312.05129" y2="151.3129" gradientUnits="userSpaceOnUse" id="color-16"><stop offset="0" stop-color="#484c5e"/><stop offset="1" stop-color="#212d30"/></linearGradient><linearGradient x1="299.13181" y1="139.54575" x2="300.50327" y2="151.84858" gradientUnits="userSpaceOnUse" id="color-17"><stop offset="0" stop-color="#484c5e"/><stop offset="1" stop-color="#212d30"/></linearGradient><linearGradient x1="285.65912" y1="140.17072" x2="287.03059" y2="152.47355" gradientUnits="userSpaceOnUse" id="color-18"><stop offset="0" stop-color="#484c5e"/><stop offset="1" stop-color="#212d30"/></linearGradient><linearGradient x1="274.1111" y1="140.7064" x2="275.48256" y2="153.00924" gradientUnits="userSpaceOnUse" id="color-19"><stop offset="0" stop-color="#484c5e"/><stop offset="1" stop-color="#212d30"/></linearGradient><linearGradient x1="261.11958" y1="141.30904" x2="262.49105" y2="153.61188" gradientUnits="userSpaceOnUse" id="color-20"><stop offset="0" stop-color="#484c5e"/><stop offset="1" stop-color="#212d30"/></linearGradient><linearGradient x1="249.57157" y1="141.84473" x2="250.94303" y2="154.14756" gradientUnits="userSpaceOnUse" id="color-21"><stop offset="0" stop-color="#484c5e"/><stop offset="1" stop-color="#212d30"/></linearGradient><linearGradient x1="384.63718" y1="137.86508" x2="383.62461" y2="146.94849" gradientUnits="userSpaceOnUse" id="color-22"><stop offset="0" stop-color="#484c5e"/><stop offset="1" stop-color="#212d30"/></linearGradient><linearGradient x1="396.32865" y1="138.40742" x2="394.9572" y2="150.71025" gradientUnits="userSpaceOnUse" id="color-23"><stop offset="0" stop-color="#484c5e"/><stop offset="1" stop-color="#212d30"/></linearGradient><linearGradient x1="409.32018" y1="139.01007" x2="407.94871" y2="151.3129" gradientUnits="userSpaceOnUse" id="color-24"><stop offset="0" stop-color="#484c5e"/><stop offset="1" stop-color="#212d30"/></linearGradient><linearGradient x1="420.86819" y1="139.54575" x2="419.49673" y2="151.84858" gradientUnits="userSpaceOnUse" id="color-25"><stop offset="0" stop-color="#484c5e"/><stop offset="1" stop-color="#212d30"/></linearGradient><linearGradient x1="434.34088" y1="140.17072" x2="432.96941" y2="152.47355" gradientUnits="userSpaceOnUse" id="color-26"><stop offset="0" stop-color="#484c5e"/><stop offset="1" stop-color="#212d30"/></linearGradient><linearGradient x1="445.8889" y1="140.7064" x2="444.51744" y2="153.00924" gradientUnits="userSpaceOnUse" id="color-27"><stop offset="0" stop-color="#484c5e"/><stop offset="1" stop-color="#212d30"/></linearGradient><linearGradient x1="458.88042" y1="141.30904" x2="457.50895" y2="153.61188" gradientUnits="userSpaceOnUse" id="color-28"><stop offset="0" stop-color="#484c5e"/><stop offset="1" stop-color="#212d30"/></linearGradient><linearGradient x1="470.42843" y1="141.84473" x2="469.05697" y2="154.14756" gradientUnits="userSpaceOnUse" id="color-29"><stop offset="0" stop-color="#484c5e"/><stop offset="1" stop-color="#212d30"/></linearGradient><linearGradient x1="366.99489" y1="237.31056" x2="376.14939" y2="230.33183" gradientUnits="userSpaceOnUse" id="color-30"><stop offset="0" stop-color="#484c5e"/><stop offset="1" stop-color="#212d30"/></linearGradient><linearGradient x1="367.9854" y1="246.19546" x2="380.38454" y2="236.74324" gradientUnits="userSpaceOnUse" id="color-31"><stop offset="0" stop-color="#484c5e"/><stop offset="1" stop-color="#212d30"/></linearGradient><linearGradient x1="373.12717" y1="257.06904" x2="378.1945" y2="242.32438" gradientUnits="userSpaceOnUse" id="color-32"><stop offset="0" stop-color="#484c5e"/><stop offset="1" stop-color="#212d30"/></linearGradient><linearGradient x1="383.42543" y1="265.06069" x2="380.92613" y2="249.6712" gradientUnits="userSpaceOnUse" id="color-33"><stop offset="0" stop-color="#484c5e"/><stop offset="1" stop-color="#212d30"/></linearGradient><linearGradient x1="392.99511" y1="268.87542" x2="390.4958" y2="253.48593" gradientUnits="userSpaceOnUse" id="color-34"><stop offset="0" stop-color="#484c5e"/><stop offset="1" stop-color="#212d30"/></linearGradient><linearGradient x1="401.19766" y1="272.1452" x2="398.69837" y2="256.75571" gradientUnits="userSpaceOnUse" id="color-35"><stop offset="0" stop-color="#484c5e"/><stop offset="1" stop-color="#212d30"/></linearGradient><linearGradient x1="410.42556" y1="275.82369" x2="407.92626" y2="260.4342" gradientUnits="userSpaceOnUse" id="color-36"><stop offset="0" stop-color="#484c5e"/><stop offset="1" stop-color="#212d30"/></linearGradient><linearGradient x1="418.62814" y1="279.09346" x2="416.12883" y2="263.70397" gradientUnits="userSpaceOnUse" id="color-37"><stop offset="0" stop-color="#484c5e"/><stop offset="1" stop-color="#212d30"/></linearGradient><linearGradient x1="340.84118" y1="183.824" x2="381.33856" y2="183.824" gradientUnits="userSpaceOnUse" id="color-38"><stop offset="0" stop-color="#484c5e"/><stop offset="1" stop-color="#212d30"/></linearGradient><linearGradient x1="336.95343" y1="131.80312" x2="385.22631" y2="131.80312" gradientUnits="userSpaceOnUse" id="color-39"><stop offset="0" stop-color="#484c5e"/><stop offset="1" stop-color="#212d30"/></linearGradient><linearGradient x1="359.04091" y1="103.96541" x2="364.6971" y2="103.96541" gradientUnits="userSpaceOnUse" id="color-40"><stop offset="0" stop-color="#484c5e"/><stop offset="1" stop-color="#212d30"/></linearGradient><linearGradient x1="359.04091" y1="115.59338" x2="366.70183" y2="115.59338" gradientUnits="userSpaceOnUse" id="color-41"><stop offset="0" stop-color="#484c5e"/><stop offset="1" stop-color="#212d30"/></linearGradient><linearGradient x1="359.04091" y1="128.51434" x2="366.70183" y2="128.51434" gradientUnits="userSpaceOnUse" id="color-42"><stop offset="0" stop-color="#484c5e"/><stop offset="1" stop-color="#212d30"/></linearGradient><linearGradient x1="359.04091" y1="139.99963" x2="366.70183" y2="139.99963" gradientUnits="userSpaceOnUse" id="color-43"><stop offset="0" stop-color="#484c5e"/><stop offset="1" stop-color="#212d30"/></linearGradient><linearGradient x1="359.04091" y1="153.39916" x2="366.70183" y2="153.39916" gradientUnits="userSpaceOnUse" id="color-44"><stop offset="0" stop-color="#484c5e"/><stop offset="1" stop-color="#212d30"/></linearGradient><linearGradient x1="359.04091" y1="164.88445" x2="366.70183" y2="164.88445" gradientUnits="userSpaceOnUse" id="color-45"><stop offset="0" stop-color="#484c5e"/><stop offset="1" stop-color="#212d30"/></linearGradient><linearGradient x1="359.04091" y1="177.80543" x2="366.70183" y2="177.80543" gradientUnits="userSpaceOnUse" id="color-46"><stop offset="0" stop-color="#484c5e"/><stop offset="1" stop-color="#212d30"/></linearGradient><linearGradient x1="359.04091" y1="189.29071" x2="366.70183" y2="189.29071" gradientUnits="userSpaceOnUse" id="color-47"><stop offset="0" stop-color="#484c5e"/><stop offset="1" stop-color="#212d30"/></linearGradient><linearGradient x1="350.24335" y1="155.45593" x2="372.28184" y2="155.45593" gradientUnits="userSpaceOnUse" id="color-48"><stop offset="0" stop-color="#484c5e"/><stop offset="1" stop-color="#212d30"/></linearGradient><linearGradient x1="382.05264" y1="146.79171" x2="368.59402" y2="146.79171" gradientUnits="userSpaceOnUse" id="color-49"><stop offset="0" stop-color="#484c5e"/><stop offset="1" stop-color="#212d30"/></linearGradient><linearGradient x1="340.84422" y1="148.08974" x2="354.30284" y2="148.08974" gradientUnits="userSpaceOnUse" id="color-50"><stop offset="0" stop-color="#484c5e"/><stop offset="1" stop-color="#212d30"/></linearGradient><linearGradient x1="360.76441" y1="190.54925" x2="360.76441" y2="220.59581" gradientUnits="userSpaceOnUse" id="color-51"><stop offset="0" stop-color="#484c5e"/><stop offset="1" stop-color="#212d30"/></linearGradient><linearGradient x1="349.97799" y1="191.98355" x2="349.97799" y2="199.06595" gradientUnits="userSpaceOnUse" id="color-52"><stop offset="0" stop-color="#484c5e"/><stop offset="1" stop-color="#212d30"/></linearGradient><linearGradient x1="372.64168" y1="191.98355" x2="372.64168" y2="199.06595" gradientUnits="userSpaceOnUse" id="color-53"><stop offset="0" stop-color="#484c5e"/><stop offset="1" stop-color="#212d30"/></linearGradient><linearGradient x1="412.52255" y1="283.63818" x2="437.63287" y2="283.66937" gradientUnits="userSpaceOnUse" id="color-54"><stop offset="0" stop-color="#484c5e"/><stop offset="1" stop-color="#212d30"/></linearGradient><radialGradient cx="360" cy="179.99997" r="362.61261" gradientUnits="userSpaceOnUse" id="color-55"><stop offset="0" stop-color="#000000" stop-opacity="0.83922"/><stop offset="1" stop-color="#000000" stop-opacity="0"/></radialGradient><radialGradient cx="360" cy="179.99997" r="362.61262" gradientUnits="userSpaceOnUse" id="color-56"><stop offset="0" stop-color="#000000" stop-opacity="0"/><stop offset="1" stop-color="#000000"/></radialGradient></defs><g transform="translate(15.5,30)"><g stroke-miterlimit="10"><g stroke-linecap="butt"><path d="M0.04123,153v-160.3741h719.91754v160.3741z" fill="#323232" stroke="#000000" stroke-width="0"/><path d="M226.82491,244.00002v-128h248.01449v128z" fill="#3f3f3f" stroke="#000000" stroke-width="0"/><path d="M282.79705,217.81297v-89h153.44087v89z" fill="#686868" stroke="#000000" stroke-width="0"/><path d="M0.6078,360.00001v-128h719.91754v128z" fill="#323232" stroke="#000000" stroke-width="0"/><path d="M12.58671,360.00001v-360l284.68589,116l0.96504,128.5z" fill="#505050" stroke="none" stroke-width="0"/><path d="M707.41329,0.00001v360l-284.68589,-116l-0.96504,-128.5z" fill="#505050" stroke="none" stroke-width="0"/><path d="M-2.61262,295.50001v-225l300.609,83v42z" fill="#909090" stroke="#000000" stroke-width="0"/><path d="M422.00362,195.50002v-42l300.609,-83v225z" fill="#909090" stroke="#000000" stroke-width="0"/><text transform="translate(322.72372,166.34742) scale(0.80247,0.83154)" font-size="40" xml:space="preserve" fill="#000000" stroke="#000000" stroke-width="3" font-family="&quot;Agency FB&quot;, Sans Serif" font-weight="normal" text-anchor="start"><tspan x="0" dy="0">A . S . C</tspan></text><text transform="translate(325.74612,171.3863) rotate(90) scale(0.217,0.20941)" font-size="40" xml:space="preserve" fill="#000000" stroke="#000000" stroke-width="2" font-family="&quot;Agency FB&quot;, Sans Serif" font-weight="normal" text-anchor="start"><tspan x="0" dy="0">NIMATRONIC</tspan></text><text transform="translate(357.10143,172.05296) rotate(90) scale(0.217,0.20941)" font-size="40" xml:space="preserve" fill="#000000" stroke="#000000" stroke-width="2" font-family="&quot;Agency FB&quot;, Sans Serif" font-weight="normal" text-anchor="start"><tspan x="0" dy="0">ECURITY</tspan></text><text transform="translate(389.59101,172.05296) rotate(90) scale(0.217,0.20941)" font-size="40" xml:space="preserve" fill="#000000" stroke="#000000" stroke-width="2" font-family="&quot;Agency FB&quot;, Sans Serif" font-weight="normal" text-anchor="start"><tspan x="0" dy="0">ENTER</tspan></text><path d="M325.25867,70.06296c0,-6.18292 15.55422,-11.19516 34.74133,-11.19516c19.18711,0 34.74133,5.01224 34.74133,11.19516c0,6.18292 -16.03674,16.69516 -35.22385,16.69516c-19.18711,0 -34.25881,-10.51224 -34.25881,-16.69516z" fill="#181818" stroke="#000000" stroke-width="0"/><path d="M331.45445,76.05339c0,-5.08025 12.78028,-9.19861 28.54555,-9.19861c15.76528,0 28.54555,4.11836 28.54555,9.19861c0,5.08025 -13.17675,13.71774 -28.94202,13.71774c-15.76528,0 -28.14908,-8.63749 -28.14908,-13.71774z" fill="#404040" stroke="#000000" stroke-width="0"/></g><path d="M-15.5,30v-60h751v60z" fill="#000000" stroke-opacity="0.50196" stroke="#0d0d0d" stroke-width="0" stroke-linecap="butt"/><path d="M-15.5,390v-60h751v60z" fill="#000000" stroke-opacity="0.50196" stroke="#0d0d0d" stroke-width="0" stroke-linecap="butt"/><g stroke="none" stroke-width="0" stroke-linecap="butt"><path d="M-12.50451,383.43844v-390.39039h160.83109v390.39039z" fill="url(#color-1)"/><path d="M582.58559,380.19519v-390.39039h160.83108v390.39039z" fill="url(#color-2)"/><path d="M-13.83558,117.67268v-127.62762h756.75676v127.62763z" fill="url(#color-3)"/><path d="M741.91517,256.93799v127.62762h-756.75676v-127.62762z" fill="url(#color-4)"/></g><g fill="none" stroke-width="3.25" stroke-linecap="round"><path d="M354.09564,237.81493c0,0 -5.7717,-4.08719 -8.05594,-5.70476c-1.69056,-1.19715 -1.211,-3.2458 0.70466,-3.31821c1.60448,-0.06064 4.70006,-0.17766 6.65004,-0.25137c1.03156,-0.039 0.64785,-0.90037 -0.19915,-1.54607c-1.60334,-1.22227 -6.95765,-5.30401 -6.95765,-5.30401" stroke="url(#color-5)"/><path d="M353.11727,246.59082c0,0 -5.7717,-4.08718 -8.05594,-5.70476c-1.69056,-1.19717 -1.21098,-3.2458 0.70466,-3.31821c2.45328,-0.09273 8.39256,-0.31724 8.39256,-0.31724" stroke="url(#color-6)"/><path d="M345.63788,256.46162c0,0 -2.53239,-6.60337 -3.53462,-9.21677c-0.74174,-1.93417 0.79427,-3.37207 2.42793,-2.36901c2.09214,1.28456 8.42618,1.57435 8.42618,1.57435" stroke="url(#color-7)"/><path d="M334.08916,262.72129c0,0 0.88751,-7.0164 1.23877,-9.79326c0.25997,-2.05514 2.29304,-2.59685 3.25906,-0.94102c1.23713,2.12053 6.91126,4.57519 6.91126,4.57519" stroke="url(#color-8)"/><path d="M324.5195,266.53603c0,0 0.88751,-7.0164 1.23876,-9.79326c0.25997,-2.05514 2.29304,-2.59686 3.25907,-0.94103c1.23713,2.12053 4.23219,7.25426 4.23219,7.25426" stroke="url(#color-9)"/><path d="M316.31693,269.8058c0,0 0.88751,-7.0164 1.23877,-9.79326c0.25997,-2.05514 2.29305,-2.59685 3.25907,-0.94102c1.23713,2.12053 4.23218,7.25426 4.23218,7.25426" stroke="url(#color-10)"/><path d="M307.08903,273.48429c0,0 0.88751,-7.0164 1.23877,-9.79326c0.25997,-2.05514 2.29304,-2.59685 3.25907,-0.94102c1.23713,2.12053 4.23218,7.25426 4.23218,7.25426" stroke="url(#color-11)"/><path d="M298.88645,276.75407c0,0 0.88751,-7.01641 1.23876,-9.79326c0.25997,-2.05514 2.29304,-2.59685 3.25907,-0.94102c1.23713,2.12053 4.23219,7.25426 4.23219,7.25426" stroke="url(#color-12)"/></g><path d="M283.95574,279.70597c-0.00862,-6.93402 5.60554,-12.56214 12.53956,-12.57075c4.01266,-0.00498 13.64652,5.33195 13.64652,5.33195c0,0 0.85164,3.8546 0.85527,6.77598c0.00862,6.93403 -27.03273,7.39685 -27.04135,0.46283z" fill="#272727" stroke="url(#color-13)" stroke-width="0" stroke-linecap="butt"/><g><g fill="none" stroke-width="3.25" stroke-linecap="round"><path d="M342.75867,146.39788c0,0 -0.59224,-5.31272 -0.76958,-6.90361c-0.09369,-0.84043 -0.83251,-1.24715 -1.72882,-0.26131c-1.69429,1.86354 -4.384,4.82191 -5.7781,6.35526c-1.66448,1.83073 -4.56685,2.19625 -4.64171,0.52301c-0.10115,-2.26084 -0.35671,-7.97343 -0.35671,-7.97343" stroke="url(#color-14)"/><path d="M330.22632,138.10335c0,0 -5.16056,5.67601 -7.29217,8.02054c-1.66449,1.83075 -4.56686,2.19626 -4.64171,0.52302c-0.10115,-2.26084 -0.3567,-7.97343 -0.3567,-7.97343" stroke="url(#color-15)"/><path d="M317.23479,138.706c0,0 -5.16056,5.67601 -7.29216,8.02054c-1.66448,1.83074 -4.56685,2.19626 -4.6417,0.52302c-0.10115,-2.26084 -0.35671,-7.97343 -0.35671,-7.97343" stroke="url(#color-16)"/><path d="M305.68679,139.24169c0,0 -5.16056,5.67601 -7.29217,8.02054c-1.66449,1.83074 -4.56686,2.19625 -4.64171,0.52301c-0.10115,-2.26084 -0.3567,-7.97343 -0.3567,-7.97343" stroke="url(#color-17)"/><path d="M292.21409,139.86664c0,0 -5.16057,5.67601 -7.29217,8.02054c-1.66448,1.83074 -4.56684,2.19626 -4.6417,0.52302c-0.10115,-2.26084 -0.3567,-7.97342 -0.3567,-7.97342" stroke="url(#color-18)"/><path d="M280.66607,140.40232c0,0 -5.16056,5.67601 -7.29216,8.02054c-1.66449,1.83075 -4.56686,2.19626 -4.64171,0.52302c-0.10115,-2.26084 -0.3567,-7.97342 -0.3567,-7.97342" stroke="url(#color-19)"/><path d="M267.67454,141.00498c0,0 -5.16056,5.676 -7.29217,8.02053c-1.66448,1.83074 -4.56684,2.19626 -4.6417,0.52302c-0.10115,-2.26084 -0.3567,-7.97343 -0.3567,-7.97343" stroke="url(#color-20)"/><path d="M256.12654,141.54065c0,0 -5.16056,5.67601 -7.29216,8.02054c-1.66449,1.83075 -4.56686,2.19626 -4.64171,0.52302c-0.10115,-2.26084 -0.3567,-7.97343 -0.3567,-7.97343" stroke="url(#color-21)"/></g><path d="M232.14848,130.14127c4.42127,-5.52618 11.50559,3.07396 13.93115,5.11757c1.83689,1.54762 11.26277,-0.61279 10.68782,2.28862c-0.18427,0.92982 -9.21934,6.99243 -9.67182,7.85624c-0.69285,1.32266 -2.60547,8.65206 -3.60711,9.28271c-1.69376,1.06642 -2.63645,-5.25422 -4.16064,-6.5384c-0.71571,-0.603 -6.10404,-0.46238 -6.2176,-4.6505c-0.0408,-1.50469 0.99308,0.84916 2.56391,-1.01808c1.2151,-1.44439 -8.08962,-6.63369 -3.52571,-12.33815z" fill="#0d0d0d" stroke="#000000" stroke-width="0" stroke-linecap="butt"/></g><g><g fill="none" stroke-width="3.25" stroke-linecap="round"><path d="M390.51624,138.1378c0,0 -0.25556,5.71259 -0.35671,7.97343c-0.07485,1.67324 -2.97722,1.30772 -4.64171,-0.52301c-1.39411,-1.53336 -4.08381,-4.49172 -5.7781,-6.35526c-0.89631,-0.98584 -1.63513,-0.57912 -1.72882,0.26131c-0.17734,1.5909 -0.76958,6.90361 -0.76958,6.90361" stroke="url(#color-22)"/><path d="M402.06425,138.67348c0,0 -0.25555,5.71259 -0.3567,7.97343c-0.07485,1.67324 -2.97722,1.30772 -4.64171,-0.52302c-2.1316,-2.34453 -7.29217,-8.02054 -7.29217,-8.02054" stroke="url(#color-23)"/><path d="M415.05578,139.27613c0,0 -0.25556,5.71259 -0.35671,7.97343c-0.07485,1.67324 -2.97722,1.30772 -4.6417,-0.52302c-2.1316,-2.34453 -7.29216,-8.02054 -7.29216,-8.02054" stroke="url(#color-24)"/><path d="M426.60379,139.81181c0,0 -0.25555,5.71259 -0.3567,7.97343c-0.07485,1.67324 -2.97722,1.30772 -4.64171,-0.52301c-2.1316,-2.34453 -7.29217,-8.02054 -7.29217,-8.02054" stroke="url(#color-25)"/><path d="M440.07647,140.43678c0,0 -0.25555,5.71258 -0.3567,7.97342c-0.07485,1.67324 -2.97722,1.30772 -4.6417,-0.52302c-2.1316,-2.34453 -7.29217,-8.02054 -7.29217,-8.02054" stroke="url(#color-26)"/><path d="M451.62449,140.97246c0,0 -0.25555,5.71258 -0.3567,7.97342c-0.07485,1.67324 -2.97722,1.30772 -4.64171,-0.52302c-2.1316,-2.34453 -7.29216,-8.02054 -7.29216,-8.02054" stroke="url(#color-27)"/><path d="M464.61602,141.5751c0,0 -0.25555,5.71259 -0.3567,7.97343c-0.07485,1.67324 -2.97722,1.30772 -4.6417,-0.52302c-2.1316,-2.34453 -7.29217,-8.02053 -7.29217,-8.02053" stroke="url(#color-28)"/><path d="M476.16403,142.11078c0,0 -0.25555,5.71259 -0.3567,7.97343c-0.07485,1.67324 -2.97722,1.30772 -4.64171,-0.52302c-2.1316,-2.34453 -7.29216,-8.02054 -7.29216,-8.02054" stroke="url(#color-29)"/></g><path d="M487.85152,130.14128c4.56391,5.70446 -4.7408,10.89376 -3.52571,12.33815c1.57083,1.86724 2.60471,-0.48661 2.56391,1.01808c-0.11356,4.18812 -5.50189,4.0475 -6.2176,4.6505c-1.52419,1.28418 -2.46688,7.60483 -4.16064,6.5384c-1.00164,-0.63066 -2.91426,-7.96006 -3.60711,-9.28271c-0.45248,-0.86381 -9.48756,-6.92642 -9.67182,-7.85624c-0.57495,-2.90141 8.85093,-0.741 10.68782,-2.28862c2.42556,-2.04361 9.50988,-10.64375 13.93115,-5.11757z" fill="#0d0d0d" stroke="#000000" stroke-width="0" stroke-linecap="butt"/></g><g fill="none" stroke-width="3.25" stroke-linecap="round"><path d="M375.35101,225.65391c0,0 -5.35431,4.08174 -6.95765,5.30401c-0.847,0.64569 -1.23071,1.50707 -0.19915,1.54607c1.94997,0.07371 5.04556,0.19073 6.65004,0.25137c1.91566,0.0724 2.39521,2.12105 0.70466,3.3182c-2.28423,1.61758 -8.05594,5.70476 -8.05594,5.70476" stroke="url(#color-30)"/><path d="M367.43006,241.21402c0,0 5.93928,0.2245 8.39256,0.31724c1.91565,0.07241 2.39521,2.12104 0.70466,3.31821c-2.28423,1.61758 -8.05594,5.70476 -8.05594,5.70476" stroke="url(#color-31)"/><path d="M368.63124,250.41358c0,0 6.33404,-0.28978 8.42618,-1.57435c1.63366,-1.00306 3.16967,0.43485 2.42793,2.36902c-1.00223,2.6134 -3.53462,9.21677 -3.53462,9.21677" stroke="url(#color-32)"/><path d="M376.09036,260.5256c0,0 5.67413,-2.45465 6.91126,-4.57519c0.96602,-1.65583 2.99909,-1.11412 3.25906,0.94102c0.35125,2.77685 1.23876,9.79326 1.23876,9.79326" stroke="url(#color-33)"/><path d="M388.33908,267.01941c0,0 2.99505,-5.13373 4.23219,-7.25426c0.96602,-1.65583 2.9991,-1.11412 3.25907,0.94102c0.35125,2.77685 1.23876,9.79326 1.23876,9.79326" stroke="url(#color-34)"/><path d="M396.54166,270.28918c0,0 2.99505,-5.13372 4.23218,-7.25426c0.96602,-1.65583 2.9991,-1.11412 3.25907,0.94102c0.35125,2.77685 1.23876,9.79326 1.23876,9.79326" stroke="url(#color-35)"/><path d="M405.76957,273.96768c0,0 2.99505,-5.13373 4.23218,-7.25426c0.96602,-1.65583 2.9991,-1.11413 3.25907,0.94102c0.35125,2.77685 1.23877,9.79326 1.23877,9.79326" stroke="url(#color-36)"/><path d="M413.97213,277.23745c0,0 2.99505,-5.13373 4.23219,-7.25426c0.96602,-1.65583 2.9991,-1.11412 3.25907,0.94102c0.35125,2.77685 1.23876,9.79326 1.23876,9.79326" stroke="url(#color-37)"/></g><path d="M381.33855,183.824c0,0.52115 -5.90721,0.47794 -11.89912,-1.94568c-2.75129,-1.11285 -3.85857,-5.66782 -7.37763,-5.66782c-3.98849,0 -4.16448,4.42862 -7.32558,5.92377c-5.70208,2.69699 -13.08509,3.1509 -13.08509,2.66167c0,-0.76045 8.25571,-26.08031 19.43874,-26.08031c11.18304,0 20.24868,24.34793 20.24868,25.10837z" fill="#4c1212" stroke="url(#color-38)" stroke-width="0" stroke-linecap="butt"/><path d="M385.22631,131.80312c0,0.55915 -9.67232,8.94992 -23.0025,8.94992c-13.33019,0 -24.21744,-7.17585 -24.21744,-7.735c0,-0.27604 11.8324,0.90799 23.48629,0.60465c11.9523,-0.3111 23.73365,-2.10268 23.73365,-1.81958z" fill="#4c1212" stroke="url(#color-39)" stroke-width="0" stroke-linecap="butt"/><g fill="none" stroke-width="3.25" stroke-linecap="round"><path d="M387.38208,107.40257c0,0 -3.3082,0 -4.29884,0c-0.52333,0 -0.79652,0.68617 -0.21157,1.68176c1.10575,1.88198 -12.53649,-1.89858 -11.62665,-0.35004c1.08629,1.84885 5.62865,6.45298 4.58994,6.34249c-1.40348,-0.14929 -9.85665,-1.71096 -9.85665,-1.71096" stroke="url(#color-40)"/><path d="M365.97831,113.81174c0,0 3.36794,5.73219 4.7591,8.09992c1.08629,1.84885 -3.6776,1.71523 -4.71632,1.60476c-1.40348,-0.14929 -5.28813,0.65791 -5.28813,0.65791" stroke="url(#color-41)"/><path d="M360.73296,124.87146c0,0 1.67589,2.8557 3.06705,5.22343c1.08629,1.84885 1.22933,4.76091 0.19062,4.65044c-1.40348,-0.14929 -4.94972,-0.52652 -4.94972,-0.52652" stroke="url(#color-42)"/><path d="M359.04091,133.48027c0,0 3.36794,5.73219 4.7591,8.09992c1.08629,1.84885 1.22933,4.76092 0.19062,4.65044c-1.40348,-0.14929 -4.94972,-0.52653 -4.94972,-0.52653" stroke="url(#color-43)"/><path d="M359.04091,146.87978c0,0 3.36794,5.73219 4.7591,8.09992c1.08629,1.84885 1.22933,4.76091 0.19062,4.65044c-1.40348,-0.14929 -4.94972,-0.52652 -4.94972,-0.52652" stroke="url(#color-44)"/><path d="M359.04091,158.36508c0,0 3.36794,5.73218 4.7591,8.09991c1.08629,1.84885 1.22933,4.76092 0.19062,4.65044c-1.40348,-0.14929 -4.94972,-0.52652 -4.94972,-0.52652" stroke="url(#color-45)"/><path d="M359.04091,171.28604c0,0 3.36794,5.73219 4.7591,8.09992c1.08629,1.84885 1.22933,4.76092 0.19062,4.65044c-1.40348,-0.14929 -4.94972,-0.52653 -4.94972,-0.52653" stroke="url(#color-46)"/><path d="M359.04091,182.77134c0,0 3.36794,5.73219 4.7591,8.09992c1.08629,1.84885 1.22933,4.76092 0.19062,4.65044c-1.40348,-0.14929 -4.94972,-0.52653 -4.94972,-0.52653" stroke="url(#color-47)"/></g><path d="M349.28433,146.16663c0,-2.61663 -5.70058,-7.80662 -5.02803,-9.02126c0.84771,-1.53099 8.24428,1.25101 9.88931,1.03205c2.00481,-0.26684 4.48945,0.06165 7.18022,0.06165c2.81447,0 5.54763,-0.26147 7.76422,0.1899c1.32407,0.26962 8.21445,-1.71725 9.07709,-0.73125c1.10558,1.26366 -3.99461,5.79705 -3.99461,9.01563c0,5.34348 0.25684,17.15961 -2.43503,22.99792c-2.31263,5.01579 -7.33849,4.5025 -10.41168,4.5025c-2.58281,0 -8.48932,-0.98251 -10.45023,-4.90643c-3.08813,-6.17958 -1.59128,-17.06473 -1.59128,-23.14072z" fill="#dadada" stroke="#000000" stroke-width="0" stroke-linecap="butt"/><path d="M350.24335,155.45593c0,-7.41308 4.93348,-13.42259 11.01924,-13.42259c6.08576,0 11.01925,6.0095 11.01925,13.42259c0,7.41308 -4.93349,13.42259 -11.01925,13.42259c-6.08576,0 -11.01924,-6.0095 -11.01924,-13.42259z" fill="#ababab" stroke="url(#color-48)" stroke-width="0" stroke-linecap="butt"/><path d="M370.92011,173.82731c-1.67686,-10.68409 1.56557,-34.99976 2.86906,-38.01729c2.18407,-5.05605 7.52146,-4.70722 11.79635,-4.32749c2.50809,0.2228 -3.16309,20.06713 -8.23751,32.84308c-2.41536,6.08121 4.70461,19.64554 4.70461,19.64554c0,0 -9.45307,0.55678 -11.13252,-10.14384z" fill="#801d1d" stroke="url(#color-49)" stroke-width="0" stroke-linecap="butt"/><path d="M340.84422,185.26917c0,0 7.11998,-13.56433 4.70461,-19.64554c-5.07442,-12.77595 -10.7456,-32.62029 -8.2375,-32.84308c4.27491,-0.37973 9.61229,-0.72857 11.79635,4.32748c1.30348,3.01754 4.54592,27.33321 2.86906,38.0173c-1.67945,10.70061 -11.13252,10.14384 -11.13252,10.14384z" fill="#801d1d" stroke="url(#color-50)" stroke-width="0" stroke-linecap="butt"/><path d="M347.95214,191.69475c2.42106,-1.66997 24.98237,-2.93164 27.7382,0.33775c2.20344,2.61406 5.058,32.12933 1.9437,38.39913c-2.49103,5.01503 -15.38226,-0.1568 -15.38226,-0.1568c0,0 0.2657,-22.98571 -1.12299,-22.98645c-1.35955,-0.00073 -1.38821,23.05244 -1.38821,23.05244c0,0 -14.31377,-1.50404 -15.98136,-1.40725c-3.37607,0.19596 0.26433,-34.52903 4.19292,-37.23883z" fill="#0d0d0d" stroke="url(#color-51)" stroke-width="0" stroke-linecap="butt"/><path d="M346.43679,195.52475c0,-1.95575 1.58545,-3.5412 3.54121,-3.5412c1.95575,0 3.5412,1.58544 3.5412,3.5412c0,1.95575 -1.58545,3.5412 -3.5412,3.5412c-1.95575,0 -3.54121,-1.58545 -3.54121,-3.5412z" fill="#e1f194" stroke="url(#color-52)" stroke-width="0" stroke-linecap="butt"/><path d="M369.10048,195.52475c0,-1.95575 1.58545,-3.5412 3.5412,-3.5412c1.95575,0 3.54121,1.58544 3.54121,3.5412c0,1.95575 -1.58545,3.5412 -3.54121,3.5412c-1.95575,0 -3.5412,-1.58545 -3.5412,-3.5412z" fill="#e1f194" stroke="url(#color-53)" stroke-width="0" stroke-linecap="butt"/><path d="M410.59152,283.20654c0.00363,-2.92138 0.85527,-6.77598 0.85527,-6.77598c0,0 9.63386,-5.33693 13.64651,-5.33194c6.93402,0.00862 12.54817,5.63673 12.53956,12.57075c-0.00862,6.93402 -27.04996,6.47119 -27.04134,-0.46283z" fill="#272727" stroke="url(#color-54)" stroke-width="0" stroke-linecap="butt"/><g stroke="#000000" stroke-width="0" stroke-linecap="butt"><path d="M370.03442,154.6172l-6.66061,-12.46445l2.95093,-1.57687l6.66061,12.46444z" fill="#2f323e"/><path d="M360.99372,142.64409c-2.66444,-1.50304 -7.28923,-9.69813 -7.28923,-9.69813l10.002,-5.4644c0,0 3.88205,8.26192 4.16782,11.17266c0.19269,1.9627 -1.65995,2.69709 -2.94091,3.38158c-0.95449,0.51004 -2.81157,1.24463 -3.93969,0.60825z" fill="#2f323e"/><g><path d="M376.6205,109.68642c-2.05689,-2.16694 -3.89895,-2.89443 -5.49077,-4.53545c-1.50204,-1.54847 -2.77457,-4.03707 -4.01268,-5.18743c-3.05982,-2.84294 -5.412,-4.65261 -6.61465,-6.91656c-0.75094,-1.41364 -0.69918,-4.41372 -0.96784,-5.79747c-0.29399,-1.51417 3.6389,-3.8144 6.6877,-3.90893c2.65434,-0.08229 4.15956,1.80958 7.71403,3.50313c1.59012,0.75761 5.75631,2.34708 7.33939,3.48131c2.6256,1.88117 3.08771,3.74909 4.89761,6.1443c1.51644,2.00683 5.13541,4.23018 6.96568,6.53084c0.8542,1.07371 0.11844,2.2224 0.77839,3.26818c0.79671,1.26248 4.46666,4.64246 5.12068,5.81264c1.85722,3.32293 1.2509,4.98156 1.8197,7.35962c0.67511,2.82241 4.9699,7.3331 4.80457,9.29278c-0.24152,2.86286 -4.02261,5.40856 -5.44844,6.30835c-1.3998,0.88335 -2.55744,3.30366 -4.87981,2.48974c-1.79695,-0.62978 -4.46422,-3.15414 -7.02692,-6.08219c-1.52727,-1.745 -2.21606,-1.42378 -3.80185,-3.67746c-0.94686,-1.34565 -2.71963,-5.01598 -3.77994,-6.6962c-1.78923,-2.83527 0.57302,-6.46104 -4.10485,-11.38923z" fill="#a3a3a3"/><path d="M362.54,88.57294c1.00996,-0.93727 3.68073,0.29859 5.96534,2.76037c2.28461,2.46179 3.31791,5.21728 2.30794,6.15455c-1.00996,0.93727 -3.68074,-0.29858 -5.96535,-2.76037c-2.28461,-2.46179 -3.31791,-5.21727 -2.30796,-6.15456z" fill="#0d0d0d"/></g><path d="M365.07343,90.70321c0.83144,-0.10415 2.00068,0.64253 2.60912,1.24276c0.4364,0.43052 1.16527,1.35223 1.22442,1.91904c0.36054,3.45437 -6.01148,8.25279 -8.67098,5.62911c-2.48746,-2.454 1.43819,-8.36507 4.83744,-8.7909z" fill="#2f323e"/><g><path d="M341.15488,143.52584c0.80758,1.81527 2.87365,5.32883 3.46613,6.86385c0.99227,2.57085 0.34242,2.96494 0.94436,5.20444c1.01,3.75779 1.62629,7.37815 1.15118,9.22202c-0.614,2.38303 -3.26953,2.00034 -4.78183,2.67313c-1.54043,0.6853 -5.75815,2.41391 -8.27241,1.02364c-1.72105,-0.95167 -3.08415,-7.02896 -5.05535,-9.15876c-1.66086,-1.79449 -3.37673,-2.21224 -5.1071,-5.60294c-0.60935,-1.19405 -1.37969,-6.1235 -1.98647,-7.48746c-0.50264,-1.12984 -1.86649,-1.15657 -2.2844,-2.46341c-0.89546,-2.80021 -0.73257,-7.04447 -1.55819,-9.42045c-0.98539,-2.83582 -2.28145,-4.25807 -2.38617,-7.48634c-0.06314,-1.94645 0.93083,-6.29336 1.18469,-8.03633c0.56747,-3.89618 -0.1688,-6.19897 1.3748,-8.35993c1.77297,-2.48209 5.87098,-4.4733 6.9664,-3.38738c1.00108,0.99236 3.52397,2.61666 4.28183,4.02657c1.21376,2.25802 1.41097,5.21922 2.07392,9.34297c0.26825,1.66862 1.62994,4.10957 2.08248,6.21889c0.47959,2.23535 0.06065,4.17106 0.719,7.08532c1.49727,6.62779 5.82438,6.67896 7.1871,9.74216z" fill="#a3a3a3"/><path d="M328.07435,115.6831c0.77692,3.26745 0.32006,6.17464 -1.02045,6.49336c-1.34051,0.31873 -3.05699,-2.07166 -3.83392,-5.33911c-0.77692,-3.26745 -0.32006,-6.17464 1.02045,-6.49336c1.34051,-0.31873 3.05699,2.07166 3.83392,5.33911z" fill="#0d0d0d"/></g><path d="M334.60019,114.49805c0.70319,3.6691 -6.82726,6.29971 -9.49867,4.0802c-0.43835,-0.3642 -0.79953,-1.48237 -0.91493,-2.08442c-0.16084,-0.83938 -0.1318,-2.22644 0.41685,-2.85975c2.24317,-2.58932 9.33901,-2.56776 9.99671,0.86398z" fill="#2f323e"/><path d="M382.27818,122.56599c0.32104,0.60076 -8.065,10.56032 -18.72036,16.2536c-10.63905,5.68458 -23.54694,7.10385 -23.86748,6.50401c-0.31945,-0.5978 12.19548,-2.57879 22.79661,-8.24691c10.68975,-5.71549 19.46912,-15.11351 19.79122,-14.51071z" fill="#686e88"/><path d="M381.96265,122.34887c0.89049,1.66646 8.56655,21.31658 -10.59913,31.55811c-19.16568,10.24154 -31.59541,-8.06449 -32.48591,-9.73096c-0.89049,-1.66646 10.09544,13.93769 29.26113,3.69616c19.16568,-10.24154 12.93342,-27.18977 13.82394,-25.52332z" fill="#dadada"/><path d="M364.48872,146.32023l-6.32652,-11.83927l4.44439,-2.37493l6.32652,11.83927z" fill="#24262f"/><path d="M330.2805,132.11276c-6.79498,-12.71591 -1.99512,-28.5326 10.72078,-35.3276c12.7159,-6.79498 28.5326,-1.99514 35.32759,10.72078c6.79498,12.7159 -39.25336,37.32271 -46.04836,24.6068z" fill="#dadada"/><path d="M333.65496,127.59813c-2.9227,-5.46943 -0.85815,-12.27256 4.61125,-15.19525c5.46943,-2.9227 12.27258,-0.85818 15.19525,4.61125c2.9227,5.46943 0.85815,12.27256 -4.61128,15.19526c-5.46943,2.9227 -12.27256,0.85815 -15.19525,-4.61125z" fill="#000000"/><path d="M349.97594,119.37352c-2.9227,-5.46943 -0.85818,-12.27258 4.61125,-15.19525c5.46943,-2.9227 12.27257,-0.85815 15.19525,4.61126c2.9227,5.46943 0.85817,12.27256 -4.61127,15.19524c-5.46943,2.9227 -12.27256,0.85817 -15.19525,-4.61125z" fill="#000000"/><path d="M380.9708,108.40688c1.70805,3.299 -0.57445,16.45753 -19.89608,26.78238c-19.32161,10.32487 -31.10951,4.01216 -32.90458,0.75967c-5.56281,-10.07919 7.24257,-2.3 26.56418,-12.62487c19.32161,-10.32487 20.72826,-25.55596 26.23648,-14.91722z" fill="#ababab"/><path d="M348.85783,129.51881c-4.62688,-8.65859 -10.89698,-31.12696 -8.27662,-32.52721c2.62036,-1.40025 17.68453,14.07054 22.3114,22.72913c4.62688,8.65859 -9.40792,18.45665 -14.03478,9.79808z" fill="#ababab"/><path d="M362.91512,118.43483c0.34218,0.64032 0.82988,10.11408 -3.67904,12.52351c-4.50893,2.40944 -12.30708,-3.15783 -12.64925,-3.79816c-0.34218,-0.64032 15.98614,-9.36567 16.32831,-8.72535z" fill="#1d1d1d"/><g><path d="M347.86445,67.59013c1.53723,2.87672 -5.05426,9.39693 -14.72251,14.56336c-9.66823,5.16641 -18.75206,7.02256 -20.28928,4.14586c-0.25426,-0.47583 -0.80489,-1.98964 0.62394,-3.16248c5.51967,-4.53091 22.86237,-13.64963 30.85653,-16.12624c2.44689,-0.75807 3.23066,0.01687 3.53132,0.57951z" fill="#101010"/><path d="M347.90593,68.1109c3.30434,6.18363 7.8327,16.52863 3.51537,24.15782c-3.06521,5.41655 -13.91859,8.90967 -17.93227,11.05444c-9.66694,5.16573 -14.93985,-5.93171 -20.5902,-16.50557c-2.03409,-3.80651 2.67695,-1.80341 7.91445,-5.97243c4.38539,-3.49072 12.27596,-5.0364 16.54154,-8.62639c4.79147,-4.03258 8.63798,-7.68802 10.5511,-4.10789z" fill="#0d0d0d"/></g><g><path d="M362.72163,84.19855c0.36023,0.67412 -9.2579,6.51626 -21.48268,13.04881c-12.22476,6.53254 -22.4269,11.28174 -22.78715,10.60763c-0.36023,-0.67412 9.2579,-6.51627 21.48266,-13.04881c12.22476,-6.53254 22.42692,-11.28174 22.78715,-10.60762z" fill="#101010"/><path d="M362.5416,84.42197c0.77432,1.44903 1.03444,4.30129 -6.70338,9.68328c-5.49366,3.82109 -18.22931,10.08611 -23.30433,12.79806c-12.22315,6.53168 -12.93213,3.64975 -14.25622,1.17194c-0.47666,-0.89199 5.59362,-2.24033 12.8028,-6.41377c6.03627,-3.49446 14.23057,-6.99401 20.1853,-10.48312c6.68883,-3.91928 10.82751,-7.59531 11.27584,-6.75638z" fill="#0d0d0d"/></g><path d="M354.8067,83.8724c0.29216,0.54671 1.61851,2.03358 0.51531,3.19764c-0.93439,0.9859 -2.79365,1.87434 -4.85227,3.21219c-2.11046,1.37153 -4.44062,3.19637 -7.03719,4.51346c-1.31098,0.66497 -2.62277,0.56957 -3.92546,1.2657c-1.96619,1.05066 -4.04396,2.70465 -6.34873,3.80169c-2.00162,0.95272 -4.24304,1.357 -5.87591,2.18197c-2.02822,1.02473 -3.02565,2.06102 -4.30561,2.3612c-2.15819,0.50617 -1.75422,-1.74167 -2.10583,-2.39965c-0.29481,-0.5517 -2.02137,-2.21409 -0.89686,-3.39318c1.04182,-1.09235 2.91883,-2.89375 5.57058,-4.11266c1.9326,-0.88834 4.44499,-1.15237 6.51804,-2.15549c1.60753,-0.77787 2.53789,-1.68868 4.10787,-2.52763c1.57282,-0.84045 3.32922,-1.23993 4.96407,-2.28941c1.92453,-1.23542 3.57587,-3.07681 5.31266,-4.32254c2.43913,-1.74949 4.81418,-2.7596 6.31447,-3.0782c1.93094,-0.41005 1.71582,3.12921 2.04485,3.74495z" fill="#801d1d"/></g><g stroke="#000000" stroke-width="0" stroke-linecap="butt"><path d="M-2.61261,366.18619v-372.37237h725.22523v372.37237z" fill="url(#color-55)"/><path d="M-2.61262,366.18619v-372.37237h725.22523v372.37237z" fill="url(#color-56)"/></g><path d="M340,353.5v-19h40v19z" fill="#000000" stroke="#484c5e" stroke-width="0" stroke-linecap="butt"/><path d="M340,353.5v-19h40v19z" fill="#000000" stroke="#484c5e" stroke-width="0" stroke-linecap="butt"/><text transform="translate(240,350) scale(0.5,0.5)" font-size="40" xml:space="preserve" fill="#ca0d0d" stroke="none" stroke-width="1" stroke-linecap="butt" font-family="&quot;MS Gothic&quot;, Sans Serif" font-weight="normal" text-anchor="start"><tspan x="0" dy="0">CLUTCH : You Know What ?</tspan></text></g></g></svg>