<svg version="1.1" xmlns="http://www.w3.org/2000/svg" xmlns:xlink="http://www.w3.org/1999/xlink" width="617.94037" height="235.87219" viewBox="0,0,617.94037,235.87219"><g transform="translate(-48.36306,-47.73424)"><g data-paper-data="{&quot;isPaintingLayer&quot;:true}" fill-rule="nonzero" stroke-linejoin="miter" stroke-miterlimit="10" stroke-dasharray="" stroke-dashoffset="0" style="mix-blend-mode: normal"><g stroke="none" stroke-width="0" stroke-linecap="butt"><path d="M81.2934,136.09021c0,2.45776 5.74338,9.6172 4.22561,12.14634c-1.97702,3.29439 -17.69539,1.6788 -19.67723,1.6788c-3.5033,0 2.76503,-8.16595 2.76503,-13.82514c0,-5.65919 6.74356,-12.52395 10.24687,-12.52395c3.5033,0 2.43973,6.86476 2.43973,12.52395z" fill="#d0d0d0"/><path d="M69.49595,139.99378c-9.16249,0 -11.38541,-7.10237 -11.38541,-16.26487c0,-9.16249 4.82529,-16.59016 13.98778,-16.59016c9.16249,0 13.98778,7.10237 13.98778,16.26487c0,9.16249 -7.42767,16.59016 -16.59016,16.59016z" data-paper-data="{&quot;index&quot;:null}" fill="#ffffff"/><g data-paper-data="{&quot;index&quot;:null}" fill="#ffffff"><path d="M51.38754,156.04225c1.03221,-6.18522 3.35244,-2.52954 5.2166,-2.52954c1.39005,0 3.99592,-3.01502 4.98155,0.68294c1.23252,4.62428 0.68273,16.78995 0.68273,24.52604c0,13.92254 -2.2028,17.14211 -5.3311,17.14211c-3.12829,0 -5.99748,-3.21957 -5.99748,-17.14211c0,-5.62602 -0.25228,-18.48512 0.44768,-22.67944z"/><path d="M62.81999,203.46337c-1.99559,0.61144 -6.1724,3.68618 -8.79278,1.71931c-2.44014,-1.83159 -3.3967,-8.64092 -3.49514,-10.00155c-0.32109,-4.43823 2.39074,-8.35122 6.05706,-8.73993c0.75075,-0.07959 3.90525,-1.17421 6.58382,-0.01786c2.91981,1.26051 3.937,9.90385 3.43641,10.59964c-2.53971,3.53008 -2.98406,-5.78824 -2.80038,-3.24948c0.11695,1.61645 1.21871,9.01344 -0.98899,9.68987z"/></g><path d="M64.2327,244.41237c-1.79239,-18.07806 -3.73959,-60.51702 3.2438,-64.43287c3.00714,-1.68621 16.52887,-0.82447 19.53489,1.38152c4.55805,3.34496 2.88494,43.19132 4.06663,57.564c1.13361,13.78779 -8.91477,11.72815 -11.03157,8.60262c-2.72657,-4.02588 -3.34892,-47.72583 -3.34892,-47.72583c0,0 1.29623,44.60688 -1.04204,47.93013c-2.5049,3.56008 -10.7651,3.31395 -11.4228,-3.31958z" data-paper-data="{&quot;index&quot;:null}" fill="#2b1287"/><path d="M48.36306,157.19211c0,-6.10833 3.82858,-11.06011 8.55138,-11.06011c4.7228,0 4.27569,6.25297 4.27569,12.3613c0,6.10833 -12.82707,4.80714 -12.82707,-1.30119z" data-paper-data="{&quot;index&quot;:null}" fill="#1643a6"/><path d="M54.78226,154.95745c0,-13.38442 8.68347,-12.19865 20.07832,-12.19865c11.39485,0 20.90914,-3.78815 20.90914,9.59627c0,3.59699 -5.7297,39.2703 -10.05912,41.20883c-6.37403,2.85402 -12.94631,2.49997 -20.17821,1.21784c-6.13398,-1.08748 -10.75013,-35.33256 -10.75013,-39.8243z" fill="#184bb9"/><g fill="#ffffff"><path d="M101.75532,178.72169c0,13.92254 -2.86918,17.14211 -5.99748,17.14211c-3.12829,0 -5.3311,-3.21957 -5.3311,-17.14211c0,-7.7361 -0.54978,-19.90177 0.68273,-24.52604c0.98563,-3.69796 3.5915,-0.68294 4.98155,-0.68294c1.86417,0 4.18439,-3.65568 5.2166,2.52954c0.69996,4.19432 0.44768,17.05341 0.44768,22.67944z"/><path d="M88.88621,193.7735c0.18368,-2.53876 -0.26066,6.77956 -2.80038,3.24948c-0.50059,-0.69579 0.51661,-9.33914 3.43641,-10.59964c2.67856,-1.15636 5.83307,-0.06173 6.58382,0.01786c3.66632,0.3887 6.37816,4.3017 6.05706,8.73993c-0.09844,1.36063 -1.055,8.16997 -3.49514,10.00155c-2.62037,1.96688 -6.79719,-1.10788 -8.79278,-1.71931c-2.20771,-0.67642 -1.10594,-8.07342 -0.98899,-9.68987z"/></g><path d="M89.36185,157.19211c0,-6.10833 -0.44711,-12.3613 4.27569,-12.3613c4.7228,0 8.55138,4.95178 8.55138,11.06011c0,6.10833 -12.82707,7.40952 -12.82707,1.30119z" fill="#1643a6"/><path d="M66.38832,123.87509c0,3.95245 -0.72115,7.15654 -1.61072,7.15654c-0.88958,0 -1.61072,-3.20409 -1.61072,-7.15654c0,-3.95245 0.72115,-7.15654 1.61072,-7.15654c0.88958,0 1.61072,3.20409 1.61072,7.15654z" fill="#000000"/><path d="M73.70906,123.56626c0,3.95245 -0.72115,7.15654 -1.61072,7.15654c-0.88958,0 -1.61072,-3.20409 -1.61072,-7.15654c0,-3.95245 0.72115,-7.15654 1.61072,-7.15654c0.88958,0 1.61072,3.20409 1.61072,7.15654z" fill="#000000"/></g><path d="M58.07171,248.63134c0,-5.19998 4.21541,-9.41539 9.41539,-9.41539c1.98776,0 6.65061,4.54358 6.65061,4.54358c0,0 2.23111,-2.86055 2.9395,-1.54962c0.71856,1.32978 -0.17472,4.80385 -0.17472,6.42142c0,5.19998 -18.83077,5.19998 -18.83077,0z" fill="#111111" stroke="none" stroke-width="0" stroke-linecap="butt"/><path d="M78.91133,248.63134c0,-1.61757 -0.89328,-5.09164 -0.17472,-6.42142c0.70838,-1.31093 2.9395,1.54962 2.9395,1.54962c0,0 4.66285,-4.54358 6.65061,-4.54358c5.19998,0 9.41539,4.21541 9.41539,9.41539c0,5.19998 -18.83077,5.19998 -18.83077,0z" data-paper-data="{&quot;index&quot;:null}" fill="#111111" stroke="none" stroke-width="0" stroke-linecap="butt"/><g data-paper-data="{&quot;index&quot;:null}" fill="#ffffff" stroke="none" stroke-width="0" stroke-linecap="butt"><path d="M111.84404,190.68933c0.72146,-4.32308 2.34315,-1.768 3.64608,-1.768c0.97156,0 2.7929,-2.10731 3.48179,0.47733c0.86145,3.23208 0.47719,11.73513 0.47719,17.14218c0,9.73099 -1.53962,11.98127 -3.72611,11.98127c-2.18649,0 -4.19187,-2.25028 -4.19187,-11.98127c0,-3.93224 -0.17633,-12.91995 0.3129,-15.85152z"/><path d="M119.83461,223.83375c-1.3948,0.42736 -4.31413,2.57641 -6.14561,1.20169c-1.70551,-1.28017 -2.37408,-6.03946 -2.44289,-6.99046c-0.22443,-3.10204 1.67098,-5.83699 4.23351,-6.10866c0.52472,-0.05563 2.72952,-0.82071 4.60168,-0.01248c2.04077,0.88102 2.75172,6.92218 2.40184,7.4085c-1.7751,2.4673 -2.08567,-4.04561 -1.95729,-2.27119c0.08174,1.1298 0.8518,6.29984 -0.69124,6.77261z"/></g><path d="M116.72108,248.1468c-1.421,-10.49742 -2.96475,-35.14054 2.57168,-37.41436c2.38405,-0.97914 13.10406,-0.47875 15.48722,0.80222c3.61361,1.94232 2.28717,25.07999 3.22402,33.4258c0.89872,8.00619 -7.06761,6.8102 -8.74581,4.9953c-2.16162,-2.33772 -2.65501,-27.71304 -2.65501,-27.71304c0,0 1.02765,25.90196 -0.82613,27.83168c-1.98588,2.06724 -8.53455,1.92432 -9.05597,-1.92759z" data-paper-data="{&quot;index&quot;:null}" fill="#2b1287" stroke="none" stroke-width="0" stroke-linecap="butt"/><path d="M111.83665,249.32627c0,-4.7133 3.34197,-8.53418 7.4645,-8.53418c1.5759,0 5.27259,4.11834 5.27259,4.11834c0,0 1.76882,-2.59282 2.33043,-1.40458c0.56967,1.20532 -0.13851,4.35425 -0.13851,5.82043c0,4.7133 -14.929,4.7133 -14.929,0z" fill="#111111" stroke="none" stroke-width="0" stroke-linecap="butt"/><path d="M128.35826,249.32627c0,-1.46617 -0.70819,-4.6151 -0.13851,-5.82043c0.56161,-1.18823 2.33042,1.40458 2.33042,1.40458c0,0 3.6967,-4.11834 5.27259,-4.11834c4.12253,0 7.4645,3.82088 7.4645,8.53418c0,4.7133 -14.929,4.7133 -14.929,0z" data-paper-data="{&quot;index&quot;:null}" fill="#111111" stroke="none" stroke-width="0" stroke-linecap="butt"/><path d="M129.93292,175.0933c0,1.5209 3.10202,5.95124 2.28227,7.5163c-1.06779,2.03861 -9.55735,1.03886 -10.62775,1.03886c-1.89215,0 1.4934,-5.05319 1.4934,-8.55516c0,-3.50198 3.64222,-7.74997 5.53437,-7.74997c1.89215,0 1.31771,4.24799 1.31771,7.74997z" fill="#d0d0d0" stroke="none" stroke-width="0" stroke-linecap="butt"/><path d="M124.88189,180.4437c-7.43176,0 -9.49864,-5.45629 -9.49864,-12.9149c0,-7.45861 3.91383,-13.505 11.34559,-13.505c7.43176,0 11.34559,5.78159 11.34559,13.24019c0,7.45861 -5.76079,13.1797 -13.19255,13.1797z" data-paper-data="{&quot;index&quot;:null}" fill="#ffffff" stroke="none" stroke-width="0" stroke-linecap="butt"/><path d="M107.62908,193.53233c0,-5.39562 3.38187,-9.76963 7.55362,-9.76963c4.17176,0 3.77681,5.52339 3.77681,10.91901c0,5.39562 -11.33043,4.24625 -11.33043,-1.14937z" data-paper-data="{&quot;index&quot;:null}" fill="#1643a6" stroke="none" stroke-width="0" stroke-linecap="butt"/><path d="M126.98129,181.22146c11.39485,0 14.83693,-1.40944 14.83693,7.77826c0,2.46915 0.34252,25.76604 -3.98691,27.09673c-6.37403,1.95913 -12.94631,1.71609 -20.17821,0.83598c-6.13398,-0.74649 -4.07572,-21.72858 -3.81046,-24.80653c0.65059,-7.54932 1.7438,-10.90445 13.13865,-10.90445z" fill="#184bb9" stroke="none" stroke-width="0" stroke-linecap="butt"/><path d="M122.5836,168.77075c0,3.95245 -0.72115,7.15654 -1.61072,7.15654c-0.88958,0 -1.61072,-3.20409 -1.61072,-7.15654c0,-3.95245 0.72115,-7.15654 1.61072,-7.15654c0.88958,0 1.61072,3.20409 1.61072,7.15654z" fill="#000000" stroke="none" stroke-width="0" stroke-linecap="butt"/><path d="M129.90434,168.46192c0,3.95245 -0.72115,7.15654 -1.61072,7.15654c-0.88958,0 -1.61072,-3.20409 -1.61072,-7.15654c0,-3.95245 0.72115,-7.15654 1.61072,-7.15654c0.88958,0 1.61072,3.20409 1.61072,7.15654z" fill="#000000" stroke="none" stroke-width="0" stroke-linecap="butt"/><g data-paper-data="{&quot;index&quot;:null}" fill="#ffffff" stroke="none" stroke-width="0" stroke-linecap="butt"><path d="M145.94894,190.2556c0.48923,2.93157 0.3129,11.91928 0.3129,15.85152c0,9.73099 -2.00538,11.98127 -4.19187,11.98127c-2.18649,0 -3.72611,-2.25028 -3.72611,-11.98127c0,-5.40705 -0.38427,-13.9101 0.47719,-17.14218c0.6889,-2.58464 2.51023,-0.47733 3.4818,-0.47733c1.30293,0 2.92462,-2.55509 3.64608,1.76799z"/><path d="M137.26713,216.6274c0.12838,-1.77443 -0.18219,4.73849 -1.95729,2.27119c-0.34988,-0.48631 0.36108,-6.52748 2.40185,-7.4085c1.87216,-0.80822 4.07695,-0.04315 4.60168,0.01248c2.56252,0.27168 4.45793,3.00662 4.23351,6.10867c-0.0688,0.951 -0.73738,5.7103 -2.44289,6.99046c-1.83148,1.37473 -4.75081,-0.77433 -6.14561,-1.20169c-1.54304,-0.47278 -0.77298,-5.64282 -0.69124,-6.77261z"/></g><path d="M137.09431,194.02835c0,-5.39562 -0.39494,-10.91901 3.77681,-10.91901c4.17176,0 7.55362,4.37401 7.55362,9.76964c0,5.39562 -11.33043,6.545 -11.33043,1.14937z" data-paper-data="{&quot;index&quot;:null}" fill="#1643a6" stroke="none" stroke-width="0" stroke-linecap="butt"/><path d="M181.97776,135.06238c0,2.45776 4.87482,9.6172 3.58657,12.14634c-1.67804,3.29439 -15.01934,1.6788 -16.70146,1.6788c-2.9735,0 2.34688,-8.16595 2.34688,-13.82514c0,-5.65919 5.72374,-12.52395 8.69724,-12.52395c2.9735,0 2.07077,6.86476 2.07077,12.52395z" fill="#d0d0d0" stroke="none" stroke-width="0" stroke-linecap="butt"/><path d="M173.90248,141.30636c-9.16249,0 -13.46731,-6.08051 -13.46731,-14.42832c0,-8.34781 4.82529,-15.11506 13.98778,-15.11506c9.16249,0 13.98778,6.47087 13.98778,14.81868c0,8.34781 -5.34577,14.7247 -14.50826,14.7247z" data-paper-data="{&quot;index&quot;:null}" fill="#ffffff" stroke="none" stroke-width="0" stroke-linecap="butt"/><g data-paper-data="{&quot;index&quot;:null}" fill="#ffffff" stroke="none" stroke-width="0" stroke-linecap="butt"><path d="M161.19353,156.1505c0.90036,-5.39511 2.9242,-2.20642 4.55023,-2.20642c1.21249,0 3.48548,-2.62988 4.3452,0.5957c1.07508,4.03357 0.59552,14.64518 0.59552,21.39306c0,12.14406 -1.92141,14.95236 -4.65009,14.95236c-2.72868,0 -5.23135,-2.8083 -5.23135,-14.95236c0,-4.90735 -0.22006,-16.12381 0.39049,-19.78234z"/><path d="M171.16559,197.51399c-1.74067,0.53333 -5.38393,3.21531 -7.66958,1.49968c-2.12843,-1.59763 -2.96279,-7.53712 -3.04867,-8.72394c-0.28007,-3.87129 2.08534,-7.28443 5.28332,-7.62348c0.65484,-0.06942 3.40638,-1.02422 5.74279,-0.01558c2.54683,1.09949 3.43409,8.63873 2.99745,9.24563c-2.21529,3.07915 -2.60287,-5.04884 -2.44266,-2.83439c0.10201,1.40996 1.06303,7.86205 -0.86266,8.45207z"/></g><path d="M165.69694,243.38454c-0.68592,-6.91819 -4.91792,-3.22563 -4.04097,-27.70248c-0.05464,-16.60527 4.01476,-26.99389 8.32572,-29.4112c3.00714,-1.68621 12.36506,-1.57266 15.37109,0.63334c3.03001,2.2236 7.85235,15.80669 8.58404,31.19805c1.27982,15.82929 -1.7907,14.97664 -1.39455,19.79495c1.13361,13.78779 -8.91477,11.72815 -11.03157,8.60262c-2.72657,-4.02588 -5.17058,-48.37642 -5.17058,-48.37642c0,0 3.11789,45.25747 0.77963,48.58072c-2.5049,3.56008 -10.7651,3.31395 -11.4228,-3.31958z" data-paper-data="{&quot;index&quot;:null}" fill="#2b1287" stroke="none" stroke-width="0" stroke-linecap="butt"/><path d="M158.28163,157.77147c0,-6.10833 3.82858,-11.06011 8.55138,-11.06011c4.7228,0 4.27569,6.25297 4.27569,12.3613c0,6.10833 -12.82707,4.80714 -12.82707,-1.30119z" data-paper-data="{&quot;index&quot;:null}" fill="#1643a6" stroke="none" stroke-width="0" stroke-linecap="butt"/><path d="M174.24292,143.2924c3.63419,0 8.58276,-1.67384 10.62457,-1.39275c4.36022,0.60025 5.55233,2.99491 5.55233,12.11061c0,3.59699 1.21457,36.58729 -3.11486,38.52582c-6.37403,2.85402 -22.87604,1.31723 -23.03217,-0.67514c-0.16205,-2.06784 1.14214,-21.26679 0.1037,-24.21052c-1.1406,-3.23333 -4.82976,-4.85017 -4.85359,-9.40662c-0.02264,-4.32859 1.60961,-6.45798 5.68981,-9.85304c0.92306,-0.76806 1.50844,-5.15037 2.7525,-5.61855c2.04861,-0.77097 3.62255,0.52019 6.27771,0.52019z" fill="#184bb9" stroke="none" stroke-width="0" stroke-linecap="butt"/><path d="M168.71294,127.03869c0,3.95245 -0.72115,7.15654 -1.61072,7.15654c-0.73723,0 -1.35878,-2.20063 -1.55005,-5.20409c-0.03952,-0.62065 -1.40605,-1.39257 -1.40605,-2.06944c0,-0.87774 1.38095,-1.60159 1.44602,-2.37863c0.22796,-2.72192 3.1208,-1.45683 3.1208,2.49562z" fill="#000000" stroke="none" stroke-width="0" stroke-linecap="butt"/><path d="M159.66607,247.60351c0,-5.19998 4.21541,-9.41539 9.41539,-9.41539c1.98776,0 6.65061,4.54358 6.65061,4.54358c0,0 2.23111,-2.86055 2.9395,-1.54962c0.71856,1.32978 -0.17472,4.80385 -0.17472,6.42142c0,5.19998 -18.83077,5.19998 -18.83077,0z" fill="#111111" stroke="none" stroke-width="0" stroke-linecap="butt"/><path d="M180.50569,247.60351c0,-1.61757 -0.89328,-5.09164 -0.17472,-6.42142c0.70838,-1.31093 2.9395,1.54962 2.9395,1.54962c0,0 4.66285,-4.54358 6.65061,-4.54358c5.19998,0 9.41539,4.21541 9.41539,9.41539c0,5.19998 -18.83077,5.19998 -18.83077,0z" data-paper-data="{&quot;index&quot;:null}" fill="#111111" stroke="none" stroke-width="0" stroke-linecap="butt"/><path d="M175.26034,124.23424c0.06508,0.77703 1.44602,1.50088 1.44602,2.37863c0,0.67688 -1.36653,1.4488 -1.40605,2.06944c-0.19127,3.00346 -0.81282,5.20409 -1.55005,5.20409c-0.88957,0 -1.61072,-3.20409 -1.61072,-7.15654c0,-3.95245 2.89284,-5.21753 3.1208,-2.49561z" data-paper-data="{&quot;index&quot;:null}" fill="#000000" stroke="none" stroke-width="0" stroke-linecap="butt"/><g stroke="none" stroke-width="0" stroke-linecap="butt"><g fill="#ffffff"><path d="M196.75666,176.55001c0,12.14406 -2.50267,14.95236 -5.23135,14.95236c-2.72868,0 -4.65009,-2.8083 -4.65009,-14.95236c0,-6.74788 -0.47955,-17.3595 0.59552,-21.39306c0.85973,-3.22558 3.13272,-0.5957 4.3452,-0.5957c1.62604,0 3.64987,-3.1887 4.55023,2.20642c0.61055,3.65853 0.39049,14.87499 0.39049,19.78234z"/><path d="M185.53146,189.67909c0.16022,-2.21445 -0.22736,5.91353 -2.44266,2.83439c-0.43664,-0.60691 0.45062,-8.14615 2.99745,-9.24563c2.3364,-1.00864 5.08794,-0.05385 5.74279,0.01558c3.19798,0.33904 5.5634,3.75219 5.28332,7.62348c-0.08587,1.18683 -0.92023,7.12633 -3.04867,8.72394c-2.28564,1.71562 -5.92891,-0.96635 -7.66958,-1.49968c-1.9257,-0.59002 -0.96466,-7.04211 -0.86266,-8.45207z"/></g><path d="M185.34411,158.38865c0,-6.10833 -0.44711,-12.3613 4.27569,-12.3613c4.7228,0 8.55138,4.95178 8.55138,11.06011c0,6.10833 -12.82707,7.40952 -12.82707,1.30119z" fill="#1643a6"/></g><path d="M195.19335,150.43453c0.18205,0.88824 -10.30895,-7.67071 -11.12524,-18.9345c-0.29257,-4.03702 1.37395,-7.56318 1.37395,-7.56318c0,0 -4.91574,1.1458 -10.13289,0.24038c-7.84175,-1.36091 -6.11461,-7.08168 -7.36616,-7.08168c-7.09439,0 -8.83492,8.58637 -9.42996,5.56887c-0.94444,-4.78932 -1.13505,-15.7689 23.92598,-14.37684c4.79523,0.26636 7.13758,2.20675 7.93776,3.86685c5.40126,11.20584 -1.42057,7.84877 4.81656,38.2801z" fill="#873512" stroke="none" stroke-width="0" stroke-linecap="butt"/><g stroke="none" stroke-linecap="butt"><path d="M646.20749,121.52482c0,2.84532 5.64351,11.1337 4.15213,14.06165c-1.94264,3.81387 -17.38769,1.94352 -19.33505,1.94352c-3.44238,0 2.71695,-9.4536 2.71695,-16.00517c0,-6.55157 6.6263,-14.4988 10.06868,-14.4988c3.44238,0 2.3973,7.94723 2.3973,14.4988z" fill="#d0d0d0" stroke-width="0"/><path d="M636.85886,128.75339c-10.60729,0 -15.59092,-7.03932 -15.59092,-16.70347c0,-9.66415 5.58617,-17.49849 16.19347,-17.49849c10.60729,0 16.19347,7.49123 16.19347,17.15538c0,9.66415 -6.18872,17.04658 -16.79601,17.04658z" data-paper-data="{&quot;index&quot;:null}" fill="#ffffff" stroke-width="0"/><g data-paper-data="{&quot;index&quot;:null}" fill="#ffffff" stroke-width="0"><path d="M622.14589,145.93825c1.04233,-6.24585 3.3853,-2.55434 5.26773,-2.55434c1.40368,0 4.03509,-3.04458 5.03038,0.68963c1.2446,4.66961 0.68943,16.95452 0.68943,24.76645c0,14.05901 -2.22439,17.31014 -5.38335,17.31014c-3.15895,0 -6.05627,-3.25113 -6.05627,-17.31014c0,-5.68117 -0.25476,-18.66631 0.45207,-22.90174z"/><path d="M633.6904,193.82419c-2.01515,0.61743 -6.2329,3.72232 -8.87897,1.73616c-2.46406,-1.84955 -3.42999,-8.72562 -3.5294,-10.09959c-0.32424,-4.48173 2.41417,-8.43308 6.11643,-8.8256c0.7581,-0.08037 3.94352,-1.18572 6.64835,-0.01803c2.94843,1.27287 3.97559,10.00093 3.4701,10.70354c-2.56461,3.56469 -3.0133,-5.84498 -2.82783,-3.28133c0.1181,1.63229 1.23066,9.10179 -0.99868,9.78485z"/></g><path d="M627.35942,246.9279c-0.79408,-8.00909 -5.69341,-3.73427 -4.67817,-32.07078c-0.06326,-19.22369 4.64783,-31.25045 9.63857,-34.04894c3.48132,-1.9521 14.31487,-1.82064 17.79489,0.73321c3.5078,2.57423 9.09056,18.29919 9.93762,36.11755c1.48163,18.32535 -2.07306,17.33825 -1.61445,22.91634c1.31236,15.96194 -10.32051,13.57751 -12.77109,9.95914c-3.15651,-4.66071 -5.98591,-56.00472 -5.98591,-56.00472c0,0 3.60954,52.39395 0.90256,56.24123c-2.89989,4.12146 -12.46261,3.83651 -13.22402,-3.84303z" data-paper-data="{&quot;index&quot;:null}" fill="#06082a" stroke-width="0"/><path d="M618.77481,147.81482c0,-7.07153 4.43229,-12.80414 9.89981,-12.80414c5.46752,0 4.94991,7.23898 4.94991,14.31051c0,7.07153 -14.84972,5.56516 -14.84972,-1.50637z" data-paper-data="{&quot;index&quot;:null}" fill="#1b0b55" stroke-width="0"/><path d="M637.25298,131.0526c4.20725,0 9.93614,-1.93778 12.29992,-1.61237c5.04777,0.6949 6.42786,3.46717 6.42786,14.02029c0,4.16419 1.40609,42.3566 -3.60603,44.60081c-7.37912,3.30405 -13.76384,4.68299 -22.13611,3.19869c-2.01451,-0.35715 -2.4642,-1.29716 -2.64495,-3.6037c-0.1876,-2.39391 -0.56072,-24.99687 -1.7629,-28.40478c-1.32046,-3.74318 -5.59135,-5.61498 -5.61894,-10.88991c-0.02621,-5.01115 1.86342,-7.47632 6.58701,-11.40673c1.06862,-0.88917 1.7463,-5.96251 3.18654,-6.50452c2.37165,-0.89254 4.19378,0.60222 7.26762,0.60222z" fill="#2b1289" stroke-width="0"/><path d="M625.88799,191.4988l1.31807,-5.55474c0,0 1.65809,1.78881 6.54329,1.78881c5.6191,0 22.26602,-1.69467 22.26602,-1.69467l0.65904,6.40207c0,0 -17.22297,0.56489 -22.8309,0.56489c-4.90499,0 -7.95551,-1.50637 -7.95551,-1.50637z" fill="#1d1d1d" stroke-width="0"/><path d="M630.851,112.2359c0,4.57569 -0.83487,8.28503 -1.86471,8.28503c-0.85349,0 -1.57304,-2.54764 -1.79447,-6.0247c-0.04576,-0.71852 -1.62777,-1.61215 -1.62777,-2.39577c0,-1.01615 1.5987,-1.85414 1.67404,-2.7537c0.26391,-3.15113 3.61291,-1.68655 3.61291,2.88914z" fill="#000000" stroke-width="0"/><path d="M620.37756,251.81214c0,-6.01994 4.88012,-10.90006 10.90006,-10.90006c2.3012,0 7.69932,5.26004 7.69932,5.26004c0,0 2.58293,-3.31162 3.40302,-1.79397c0.83187,1.53946 -0.20227,5.56136 -0.20227,7.43399c0,6.01994 -21.80013,6.01994 -21.80013,0z" fill="#111111" stroke-width="0"/><path d="M644.5033,251.81214c0,-1.87264 -1.03414,-5.89453 -0.20227,-7.43399c0.82008,-1.51764 3.40302,1.79397 3.40302,1.79397c0,0 5.39812,-5.26004 7.69932,-5.26004c6.01994,0 10.90006,4.88012 10.90006,10.90006c0,6.01994 -21.80013,6.01994 -21.80013,0z" data-paper-data="{&quot;index&quot;:null}" fill="#111111" stroke-width="0"/><path d="M638.43083,108.98923c0.07534,0.89956 1.67404,1.73754 1.67404,2.7537c0,0.78361 -1.58202,1.67725 -1.62777,2.39577c-0.22143,3.47706 -0.94099,6.0247 -1.79447,6.0247c-1.02984,0 -1.86471,-3.70934 -1.86471,-8.28503c0,-4.57569 3.349,-6.04026 3.61291,-2.88913z" data-paper-data="{&quot;index&quot;:null}" fill="#000000" stroke-width="0"/><path d="M647.1965,155.3835c-0.1667,1.03635 2.37598,-25.45033 1.43097,-38.49027c-0.3387,-4.6736 -4.10028,-7.42931 -10.14012,-8.4775c-9.07828,-1.57551 -7.0788,-8.19836 -8.52771,-8.19836c-8.21308,0 -9.09829,11.82328 -9.78716,8.32996c-0.27603,-1.39976 -4.71096,3.21407 -4.52706,1.06714c0.20914,-2.44155 5.17679,-11.69383 7.34258,-13.97846c3.47337,-3.66396 10.39486,-6.35755 23.75348,-5.61552c5.55138,0.30836 8.26308,2.55472 9.18944,4.4766c4.75493,9.86492 7.91767,12.74262 2.96374,37.70301c-0.92203,4.64567 -7.40255,-3.52139 -11.69818,23.1834z" fill="#290606" stroke-width="0"/><g stroke-width="0"><g fill="#ffffff"><path d="M663.31683,169.55447c0,14.05901 -2.8973,17.31014 -6.05627,17.31014c-3.15895,0 -5.38335,-3.25113 -5.38335,-17.31014c0,-7.81193 -0.55517,-20.09685 0.68943,-24.76645c0.9953,-3.73421 3.6267,-0.68963 5.03038,-0.68963c1.88244,0 4.2254,-3.69152 5.26773,2.55434c0.70683,4.23543 0.45207,17.22057 0.45207,22.90175z"/><path d="M650.32157,184.75383c0.18548,-2.56364 -0.26322,6.84602 -2.82783,3.28133c-0.50549,-0.70261 0.52168,-9.43068 3.4701,-10.70354c2.70482,-1.16769 5.89024,-0.06234 6.64835,0.01803c3.70226,0.39251 6.44068,4.34386 6.11643,8.8256c-0.09941,1.37397 -1.06534,8.25005 -3.5294,10.09959c-2.64606,1.98615 -6.86382,-1.11874 -8.87897,-1.73616c-2.22935,-0.68306 -1.11678,-8.15255 -0.99868,-9.78485z"/></g><path d="M650.10468,148.52931c0,-7.07153 -0.51761,-14.31051 4.94991,-14.31051c5.46752,0 9.89981,5.73261 9.89981,12.80414c0,7.07153 -14.84972,8.5779 -14.84972,1.50637z" fill="#3516a6"/></g><path d="M566.96658,123.31864c0,2.84532 6.64904,11.1337 4.89193,14.06165c-2.28877,3.81387 -20.48571,1.94352 -22.78006,1.94352c-4.05573,0 3.20103,-9.4536 3.20103,-16.00517c0,-6.55157 7.80693,-14.4988 11.86266,-14.4988c4.05573,0 2.82444,7.94723 2.82444,14.4988z" fill="#d0d0d0" stroke-width="0"/><path d="M553.30883,127.83775c-10.60729,0 -13.18073,-8.22232 -13.18073,-18.82961c0,-10.60729 5.58617,-19.2062 16.19347,-19.2062c10.60729,0 16.19347,8.22232 16.19347,18.82961c0,10.60729 -8.59891,19.2062 -19.2062,19.2062z" fill="#ffffff" stroke-width="0"/><g fill="#ffffff" stroke-width="0"><path d="M532.34498,146.41684c1.19498,-7.16055 3.88107,-2.92842 6.03919,-2.92842c1.60925,0 4.62602,-3.49045 5.76707,0.79063c1.42687,5.35346 0.79039,19.43749 0.79039,28.39347c0,16.11793 -2.55015,19.84518 -6.17174,19.84518c-3.62158,0 -6.9432,-3.72725 -6.9432,-19.84518c0,-6.51317 -0.29206,-21.39997 0.51827,-26.25567z"/><path d="M545.58016,201.31562c-2.31027,0.70785 -7.1457,4.26745 -10.17928,1.99042c-2.82492,-2.12041 -3.93231,-10.00347 -4.04627,-11.57866c-0.37173,-5.13807 2.76773,-9.66809 7.01217,-10.11809c0.86913,-0.09214 4.52105,-1.35937 7.62199,-0.02067c3.38022,1.45927 4.55781,11.46555 3.97829,12.27106c-2.94019,4.08673 -3.4546,-6.70096 -3.24196,-3.76188c0.13539,1.87134 1.41089,10.43474 -1.14494,11.21782z"/></g><path d="M547.21564,248.72173c-2.07502,-20.92872 -4.32927,-70.05973 3.7553,-74.59305c3.48132,-1.9521 19.13525,-0.95448 22.61528,1.59937c5.27679,3.87242 3.33985,50.002 4.70788,66.64105c1.31236,15.96194 -10.32051,13.57751 -12.77109,9.95914c-3.15651,-4.66071 -3.87699,-55.25153 -3.87699,-55.25153c0,0 1.50062,51.64077 -1.20635,55.48805c-2.89989,4.12146 -12.46261,3.83651 -13.22402,-3.84303z" fill="#2e2e2e" stroke-width="0"/><path d="M528.84356,147.74803c0,-7.07153 4.43229,-12.80414 9.89981,-12.80414c5.46752,0 4.94991,7.23898 4.94991,14.31051c0,7.07153 -14.84972,5.56516 -14.84972,-1.50637z" fill="#0e0e22" stroke-width="0"/><path d="M536.27499,145.16099c0,-15.49496 10.05273,-14.12221 23.2444,-14.12221c13.19166,0 24.20623,-4.38549 24.20623,11.10947c0,4.16419 -6.63319,45.46269 -11.64531,47.7069c-7.37912,3.30405 -14.98777,2.89418 -23.36004,1.40988c-7.10123,-1.25896 -12.44528,-40.90403 -12.44528,-46.10404z" fill="#131430" stroke-width="0"/><path d="M548.22237,110.23095c0,3.34142 -0.83487,6.05017 -1.86471,6.05017c-1.02985,0 -2.60767,-2.70875 -2.60767,-6.05017c0,-3.34142 1.57782,-6.05017 2.60767,-6.05017c1.02985,0 1.86471,2.70875 1.86471,6.05017z" fill="#000000" stroke-width="0"/><path d="M540.08313,253.60597c0,-6.01994 4.88012,-10.90006 10.90006,-10.90006c2.3012,0 7.69932,5.26004 7.69932,5.26004c0,0 2.58293,-3.31162 3.40302,-1.79397c0.83187,1.53946 -0.20227,5.56136 -0.20227,7.43399c0,6.01994 -21.80013,6.01994 -21.80013,0z" fill="#000000" stroke-width="0"/><path d="M564.20888,253.60597c0,-1.87264 -1.03414,-5.89453 -0.20227,-7.43399c0.82008,-1.51764 3.40302,1.79397 3.40302,1.79397c0,0 5.39812,-5.26004 7.69932,-5.26004c6.01994,0 10.90006,4.88012 10.90006,10.90006c0,6.01994 -21.80013,6.01994 -21.80013,0z" fill="#000000" stroke-width="0"/><path d="M543.49479,92.42652c3.74153,-4.26337 11.80169,-5.15297 19.19645,-3.62991c3.44705,0.70997 4.87311,3.46698 6.16222,4.18421c6.99058,3.88937 3.66155,8.93727 3.66155,15.65074c0,5.63115 5.59418,11.49576 -3.51034,8.51625c-1.32557,-0.4338 -3.75336,-11.47457 -6.97792,-14.96904c-4.42818,-4.79884 -10.04459,-2.28292 -13.51021,-1.49505c-3.11299,0.70771 -6.4437,3.1125 -8.46789,3.23768c-4.04116,0.2499 -5.97439,-6.00465 3.44613,-11.49486z" fill="#2d0b02" stroke-width="0"/><path d="M550.23525,131.9521c-8.29343,0.31903 -12.54399,-8.31342 -9.45114,-12.46053c0.37334,-0.5006 0.1536,-1.49713 0.76901,-0.57248c7.22724,10.85888 18.21512,3.04438 21.67639,0.67204c6.88492,-4.7189 8.62458,-16.69941 9.43371,-13.77517c4.0011,14.4602 -11.82851,25.72841 -22.42797,26.13614z" fill="#2d0b02" stroke-width="0"/><path d="M556.4008,109.85947c0,3.34142 -1.20635,6.42165 -2.23619,6.42165c-1.02985,0 -1.86471,-2.70875 -1.86471,-6.05017c0,-3.34142 0.83486,-6.05017 1.86471,-6.05017c1.02985,0 2.23619,2.33727 2.23619,5.67869z" fill="#000000" stroke-width="0"/><path d="M559.31684,148.1125c0,-3.7613 3.04914,-6.81043 6.81044,-6.81043c3.7613,0 6.81043,3.04913 6.81043,6.81043c0,3.7613 -3.04913,6.81043 -6.81043,6.81043c-3.7613,0 -6.81044,-3.04913 -6.81044,-6.81043z" fill="#212251" stroke-width="0"/><text transform="translate(560.99011,151.1164) scale(0.2067,0.2067)" font-size="40" xml:space="preserve" fill="#090915" fill-rule="nonzero" stroke="none" stroke-width="1" stroke-linecap="butt" stroke-linejoin="miter" stroke-miterlimit="10" stroke-dasharray="" stroke-dashoffset="0" font-family="&quot;Agency FB&quot;, Sans Serif" font-weight="normal" text-anchor="start" style="mix-blend-mode: normal"><tspan x="0" dy="0">ASC</tspan></text><path d="M576.77631,189.05365c0,1.0942 -8.18287,4.45774 -16.90225,4.45774c-8.71938,0 -15.16869,-2.24911 -15.16869,-3.3433c0,-0.40835 -1.98532,-3.97895 -0.29794,-4.29425c2.83398,-0.52956 10.7443,1.44626 16.20958,1.44626c6.2,0 12.49607,-2.15325 15.18748,-1.57306c1.09365,0.23576 0.97182,2.99047 0.97182,3.30662z" fill="#141414" stroke-width="0"/><g fill="#ffffff" stroke-width="0"><path d="M590.65506,172.67252c0,16.11793 -3.32161,19.84518 -6.9432,19.84518c-3.62158,0 -6.17174,-3.72725 -6.17174,-19.84518c0,-8.95598 -0.63648,-23.04001 0.79039,-28.39347c1.14105,-4.28108 4.15783,-0.79063 5.76707,-0.79063c2.15812,0 4.84421,-4.23213 6.03919,2.92842c0.81034,4.8557 0.51827,19.7425 0.51827,26.25568z"/><path d="M575.75666,190.0978c0.21264,-2.93908 -0.30176,7.8486 -3.24196,3.76188c-0.57952,-0.80551 0.59807,-10.81179 3.97829,-12.27106c3.10094,-1.3387 6.75286,-0.07147 7.62199,0.02067c4.24444,0.44999 7.3839,4.98002 7.01217,10.11809c-0.11396,1.57519 -1.22136,9.45826 -4.04627,11.57866c-3.03357,2.27703 -7.86901,-1.28258 -10.17928,-1.99042c-2.55583,-0.78309 -1.28033,-9.34648 -1.14494,-11.21782z"/></g><path d="M570.54967,189.29351c0.15131,0.96573 0.56874,2.86391 0.01421,3.64647c-0.67582,0.95373 -2.46603,0.7126 -3.79843,0.92136c-1.2773,0.20013 -3.07442,0.59314 -3.99744,-0.05c-0.82985,-0.57823 -0.84357,-2.12712 -1.0025,-3.14152c-0.18534,-1.18291 -0.74166,-2.86153 0.0919,-3.72121c0.67632,-0.69752 2.60578,-0.67638 3.69232,-0.84662c1.16884,-0.18314 2.72989,-0.54381 3.61986,-0.00944c0.957,0.5746 1.20614,2.09073 1.38009,3.20095z" fill="#4c4c4c" stroke-width="0"/><path d="M540.29066,123.51405c0,-4.04087 4.51957,-7.31665 10.09474,-7.31665c5.57517,0 10.09474,3.27577 10.09474,7.31665c0,4.04087 -4.51957,7.31665 -10.09474,7.31665c-5.57517,0 -10.09474,-3.27577 -10.09474,-7.31665zM556.63786,122.65327c0,-2.07986 -2.11645,-4.30391 -7.53184,-4.08871c-2.07822,0.08259 -4.51911,1.57846 -4.51911,3.65832c0,1.01548 2.22715,2.82133 5.16743,2.95022c3.08187,0.13509 6.88352,-1.45545 6.88352,-2.51982z" fill="#2d0b02" stroke-width="0"/><path d="M576.30731,147.74803c0,-7.07153 -0.51761,-14.31051 4.94991,-14.31051c5.46752,0 9.89981,5.73261 9.89981,12.80414c0,7.07153 -14.84972,8.5779 -14.84972,1.50637z" fill="#13132d" stroke-width="0"/></g><g><g fill="#ffffff" stroke="none" stroke-width="0" stroke-linecap="butt"><path d="M323.28214,133.42917c1.58657,-9.50703 5.15288,-3.88805 8.01821,-3.88805c2.13659,0 6.14195,-4.63426 7.65692,1.04971c1.89445,7.10777 1.0494,25.80708 1.0494,37.69789c0,21.39971 -3.38582,26.34837 -8.19419,26.34837c-4.80836,0 -9.21846,-4.94866 -9.21846,-26.34837c0,-8.64751 -0.38777,-28.41266 0.68811,-34.85955z"/><path d="M340.85444,206.31807c-3.06734,0.93981 -9.48732,5.66587 -13.51499,2.64267c-3.75063,-2.81526 -5.22091,-13.28157 -5.37222,-15.37294c-0.49354,-6.8218 3.6747,-12.83629 9.31003,-13.43375c1.15394,-0.12234 6.00258,-1.80483 10.11969,-0.02745c4.48791,1.93747 6.05139,15.22277 5.28196,16.29224c-3.90368,5.42593 -4.58666,-8.89684 -4.30434,-4.99463c0.17976,2.48457 1.87323,13.85416 -1.52013,14.89386z"/></g><path d="M318.63333,135.19659c0,-9.38884 5.88474,-17 13.14394,-17c7.2592,0 6.57197,9.61116 6.57197,19c0,9.38884 -19.71591,7.38884 -19.71591,-2z" fill="#1b1b1b" stroke="none" stroke-width="0" stroke-linecap="butt"/><path d="M354.96637,115.16765c0,1.09209 -1.67973,35.41066 -0.23689,66.89252c0.56624,12.35495 3.2905,24.14594 4.52413,33.09653c1.1991,8.70015 0.91625,14.73501 0.91625,14.73501c0,0 -10.69401,0.43447 -23.85208,-28.64817c-6.81209,-15.05642 -3.4254,-43.25614 -5.47535,-62.2751c-2.05318,-19.049 1.616,-26.2054 6.20989,-26.22409c16.81704,-0.06841 17.91405,-1.12053 17.91405,2.4233z" fill="#353535" stroke="#000000" stroke-width="0" stroke-linecap="butt"/><path d="M369.2491,102.76179c0,3.77772 8.8279,14.78217 6.49499,18.66959c-3.03879,5.06366 -27.1988,2.58041 -30.24499,2.58041c-5.38477,0 4.25,-12.55151 4.25,-21.25c0,-8.69849 10.36523,-19.25 15.75,-19.25c5.38477,0 3.75,10.55151 3.75,19.25z" fill="#d0d0d0" stroke="none" stroke-width="0" stroke-linecap="butt"/><path d="M351.11576,108.76179c-14.08326,0 -17.5,-10.91674 -17.5,-25c0,-14.08326 7.41674,-25.5 21.5,-25.5c14.08326,0 21.5,10.91674 21.5,25c0,14.08326 -11.41674,25.5 -25.5,25.5z" fill="#ffffff" stroke="none" stroke-width="0" stroke-linecap="butt"/><path d="M343.02586,269.25896c-2.755,-27.78698 -5.74796,-93.01802 4.9859,-99.03689c4.62214,-2.5918 25.40579,-1.26726 30.02621,2.12348c7.00597,5.14139 4.43431,66.38745 6.25064,88.47906c1.74242,21.1926 -13.7025,18.02681 -16.95613,13.22271c-4.19089,-6.188 -5.14747,-73.35724 -5.14747,-73.35724c0,0 1.99237,68.56324 -1.60167,73.67126c-3.85017,5.47204 -16.54656,5.09372 -17.55748,-5.10238z" fill="#464646" stroke="none" stroke-width="0" stroke-linecap="butt"/><path d="M359.3615,113.01179c17.51452,0 32.13851,-5.8226 32.13851,14.75c0,5.52878 -8.80686,60.36063 -15.46143,63.34026c-9.79723,4.38678 -26.56586,4.50925 -37.68169,2.53856c-3.11733,-0.55266 -7.81295,-8.84352 -10.24806,-17.04409c-3.41272,-11.49279 4.40009,-24.16814 8.30091,-35.08125c1.73406,-4.85127 1.09028,-12.83132 1.09028,-14.25347c0,0 -0.52667,-7.82979 4.16046,-11.86576c3.36388,-2.89656 10.3831,-2.38424 17.70104,-2.38424z" fill="#2c2c2c" stroke="none" stroke-width="0" stroke-linecap="butt"/><path d="M346.33917,83.98648c0,6.07513 -1.10845,11 -2.47577,11c-1.36733,0 -2.47577,-4.92487 -2.47577,-11c0,-6.07513 4.95154,-6.07513 4.95154,0z" fill="#000000" stroke="none" stroke-width="0" stroke-linecap="butt"/><path d="M357.59154,83.51179c0,6.07513 -1.10845,11 -2.47577,11c-1.36733,0 -2.47577,-4.92487 -2.47577,-11c0,-6.07513 4.95154,-6.07513 4.95154,0z" fill="#000000" stroke="none" stroke-width="0" stroke-linecap="butt"/><path d="M333.55606,275.74375c0,-7.99265 6.47932,-14.47197 14.47197,-14.47197c3.0553,0 10.22235,6.98374 10.22235,6.98374c0,0 3.42934,-4.39682 4.51817,-2.38185c1.10447,2.04394 -0.26855,7.38379 -0.26855,9.87008c0,7.99265 -28.94394,7.99265 -28.94394,0z" fill="#111111" stroke="none" stroke-width="0" stroke-linecap="butt"/><path d="M365.58772,275.74375c0,-2.48629 -1.37302,-7.82614 -0.26855,-9.87008c1.08882,-2.01497 4.51817,2.38185 4.51817,2.38185c0,0 7.16706,-6.98374 10.22235,-6.98374c7.99265,0 14.47197,6.47932 14.47197,14.47197c0,7.99265 -28.94394,7.99265 -28.94394,0z" fill="#111111" stroke="none" stroke-width="0" stroke-linecap="butt"/><path d="M330.90146,70.0475c0,-14.08326 10.13102,-11.78571 24.21428,-11.78571c14.08326,0 21.5,10.91674 21.5,25c0,7.47646 0.83068,-6.88317 -11.25735,-10.83905c-6.3478,-2.07735 -17.89067,0.95143 -25.74887,1.43738c-5.36543,0.33179 -8.70806,-1.13193 -8.70806,-3.81261z" fill="#8a8a8a" stroke="none" stroke-width="0" stroke-linecap="butt"/><g stroke-width="0" stroke-linecap="butt"><path d="M385.04939,63.93979c0,2.52473 -14.10303,4.57143 -31.5,4.57143c-17.39697,0 -31.5,-2.0467 -31.5,-4.57143c0,-2.52473 14.10303,-4.57143 31.5,-4.57143c17.39697,0 31.5,2.0467 31.5,4.57143z" fill="#353535" stroke="#000000"/><path d="M375.81418,60.36835c0,6.54852 -44.30608,6.54852 -44.30608,0c0,-2.32907 -1.90242,-10.54406 5.32004,-11.2164c6.16428,-0.57383 22.82745,-2.62546 30.63263,-0.41615c8.76238,2.48025 8.35341,9.40094 8.35341,11.63256z" fill="#2c2c2c" stroke="none"/></g><path d="M394.24752,115.16765c0,1.09209 -1.67973,35.41066 -0.23689,66.89252c0.56624,12.35495 3.2905,24.14594 4.52413,33.09652c1.19911,8.70015 0.91625,14.73501 0.91625,14.73501c0,0 -10.69401,0.43447 -23.85208,-28.64817c-2.79109,-6.16902 -1.60453,-13.56565 -1.61014,-22.57696c-0.00448,-7.20649 -1.37218,-15.80611 -1.70903,-22.97389c-0.26997,-5.74461 -3.56785,-10.62973 -4.10618,-15.62425c-2.05318,-19.049 -4.984,-32.2054 -0.39011,-32.22408c16.81704,-0.06841 26.46405,3.77946 26.46405,7.3233z" fill="#535353" stroke="#000000" stroke-width="0" stroke-linecap="butt"/><g fill="#ffffff" stroke="none" stroke-width="0" stroke-linecap="butt"><path d="M400.70021,168.28874c0,21.39971 -4.41009,26.34837 -9.21846,26.34837c-4.80836,0 -8.19419,-4.94866 -8.19419,-26.34837c0,-11.89082 -0.84505,-30.59013 1.0494,-37.69789c1.51497,-5.68397 5.52033,-1.04971 7.65692,-1.04971c2.86533,0 6.43164,-5.61898 8.01821,3.88805c1.07588,6.4469 0.68811,26.21204 0.68811,34.85956z"/><path d="M380.91966,191.42421c0.28232,-3.90221 -0.40065,10.42056 -4.30434,4.99463c-0.76943,-1.06947 0.79406,-14.35477 5.28196,-16.29224c4.1171,-1.77739 8.96575,-0.09489 10.11969,0.02745c5.63533,0.59745 9.80358,6.61195 9.31003,13.43375c-0.15131,2.09137 -1.6216,12.55769 -5.37222,15.37294c-4.02766,3.0232 -10.44765,-1.70287 -13.51499,-2.64267c-3.39337,-1.0397 -1.69989,-12.40929 -1.52013,-14.89386z"/></g><path d="M381.65076,135.19659c0,-9.38884 -0.68723,-19 6.57198,-19c7.2592,0 13.14394,7.61116 13.14394,17c0,9.38884 -19.71591,11.38884 -19.71591,2z" fill="#262626" stroke="none" stroke-width="0" stroke-linecap="butt"/><path d="M336.31778,201.24354c-3.63908,-8.04328 -14.90243,-5.94469 -12.08522,-42.20334c-0.81333,-10.47066 6.81472,-13.4629 5.85987,-22.32176c-2.05318,-19.049 -0.634,-25.1554 3.95989,-25.17409c1.55366,-0.00632 10.06386,-2.12953 10.09171,0.20163c0.11003,9.21009 -1.70318,25.98072 -8.5414,41.91993c-3.28201,7.65005 -3.16024,20.54381 -1.3064,26.69633c6.53671,21.69389 7.99389,34.08169 2.02154,20.8813z" fill="#535353" stroke="#000000" stroke-width="0" stroke-linecap="butt"/><path d="M376.84674,87.88461c0,0 -14.02813,0 -15.81866,0c-0.42048,0 -0.7345,3.95706 -2.37399,5.86093c-1.63949,1.90387 -4.31931,2.05575 -6.1202,0.35335c-1.80089,-1.70241 -0.78342,-6.21429 -1.48062,-6.21429c-2.31005,0 -0.23872,0 -2.4427,0c-0.48357,0 0.22318,4.23972 -1.57793,6c-1.80111,1.76029 -5.86963,1.37278 -6.75848,0.14564c-1.06174,-1.46583 -1.47125,-6.14564 -1.95013,-6.14564c-2.21681,0 -4.13068,0 -4.13068,0" fill-opacity="0.50196" fill="#009cff" stroke="#1f1f1f" stroke-width="2.5" stroke-linecap="round"/></g><path d="M280.19861,106.24995c0,3.77772 8.8279,14.78217 6.49499,18.66959c-3.03879,5.06366 -27.1988,2.58041 -30.24499,2.58041c-5.38477,0 4.25,-12.55151 4.25,-21.25c0,-8.69849 10.36523,-19.25 15.75,-19.25c5.38477,0 3.75,10.55151 3.75,19.25z" fill="#d0d0d0" stroke="none" stroke-width="0" stroke-linecap="butt"/><path d="M262.06527,112.24995c-14.08326,0 -17.5,-10.91674 -17.5,-25c0,-14.08326 7.41674,-25.5 21.5,-25.5c14.08326,0 21.5,10.91674 21.5,25c0,14.08326 -11.41674,25.5 -25.5,25.5z" data-paper-data="{&quot;index&quot;:null}" fill="#ffffff" stroke="none" stroke-width="0" stroke-linecap="butt"/><g data-paper-data="{&quot;index&quot;:null}" stroke="none" stroke-width="0" stroke-linecap="butt"><path d="M234.23165,136.91735c1.58657,-9.50703 5.15288,-3.88805 8.01821,-3.88805c2.13659,0 6.14195,-4.63426 7.65692,1.04971c1.89445,7.10777 1.0494,25.80708 1.0494,37.69789c0,21.39971 -3.38582,26.34837 -8.19419,26.34837c-4.80836,0 -9.21846,-4.94866 -9.21846,-26.34837c0,-8.64751 -0.38777,-28.41266 0.68811,-34.85955z" fill="#1a1833"/><path d="M251.80395,209.80623c-3.06734,0.93981 -9.48732,5.66587 -13.51499,2.64267c-3.75063,-2.81526 -5.22091,-13.28157 -5.37222,-15.37294c-0.49354,-6.8218 3.6747,-12.83629 9.31003,-13.43375c1.15394,-0.12234 6.00258,-1.80483 10.11969,-0.02745c4.48791,1.93747 6.05139,15.22277 5.28196,16.29224c-3.90368,5.42593 -4.58666,-8.89684 -4.30434,-4.99463c0.17976,2.48457 1.87323,13.85416 -1.52013,14.89386z" fill="#04000e"/></g><path d="M253.97537,272.74712c-2.755,-27.78698 -5.74796,-93.01802 4.9859,-99.03689c4.62214,-2.5918 25.40579,-1.26726 30.02621,2.12348c7.00597,5.14139 4.43431,66.38745 6.25064,88.47906c1.74242,21.1926 -13.7025,18.02681 -16.95613,13.22271c-4.19089,-6.188 -5.14747,-73.35724 -5.14747,-73.35724c0,0 1.99237,68.56324 -1.60167,73.67126c-3.85017,5.47204 -16.54656,5.09372 -17.55748,-5.10238z" data-paper-data="{&quot;index&quot;:null}" fill="#1a1833" stroke="none" stroke-width="0" stroke-linecap="butt"/><path d="M229.58285,138.68475c0,-4.34236 -11.31802,-12.30618 -9.24664,-15.31089c2.40725,-3.49193 18.48878,-1.68911 22.39058,-1.68911c7.2592,0 6.57197,9.61116 6.57197,19c0,9.38884 -19.71591,7.38884 -19.71591,-2z" data-paper-data="{&quot;index&quot;:null}" fill="#07001b" stroke="none" stroke-width="0" stroke-linecap="butt"/><path d="M239.44952,135.24995c0,-20.5726 13.34697,-18.75 30.86149,-18.75c17.51452,0 32.13851,-5.8226 32.13851,14.75c0,5.52878 -8.80686,60.36063 -15.46143,63.34026c-9.79723,4.38678 -19.8992,3.84259 -31.01503,1.87189c-9.42827,-1.67151 -16.52355,-54.30811 -16.52355,-61.21215z" fill="#0d0033" stroke="none" stroke-width="0" stroke-linecap="butt"/><path d="M257.28868,87.47464c0,6.07513 -1.10845,11 -2.47577,11c-1.36733,0 -2.47577,-4.92487 -2.47577,-11c0,-6.07513 1.10844,-11 2.47577,-11c1.36733,0 2.47577,4.92487 2.47577,11z" fill="#000000" stroke="none" stroke-width="0" stroke-linecap="butt"/><path d="M268.54105,86.99995c0,6.07513 -1.10845,11 -2.47577,11c-1.36733,0 -2.47577,-4.92487 -2.47577,-11c0,-6.07513 1.10845,-11 2.47577,-11c1.36733,0 2.47577,4.92487 2.47577,11z" fill="#000000" stroke="none" stroke-width="0" stroke-linecap="butt"/><path d="M244.50558,277.61195c0,-7.99265 6.47932,-14.47197 14.47197,-14.47197c3.0553,0 10.22235,6.98374 10.22235,6.98374c0,0 3.42934,-4.39682 4.51817,-2.38185c1.10447,2.04394 -0.26855,7.38379 -0.26855,9.87008c0,7.99265 -28.94394,7.99265 -28.94394,0z" fill="#111111" stroke="none" stroke-width="0" stroke-linecap="butt"/><path d="M276.53723,277.61195c0,-2.48629 -1.37302,-7.82614 -0.26855,-9.87008c1.08882,-2.01497 4.51817,2.38185 4.51817,2.38185c0,0 7.16706,-6.98374 10.22235,-6.98374c7.99265,0 14.47197,6.47932 14.47197,14.47197c0,7.99265 -28.94394,7.99265 -28.94394,0z" data-paper-data="{&quot;index&quot;:null}" fill="#111111" stroke="none" stroke-width="0" stroke-linecap="butt"/><path d="M239.34326,135.24995c0,-14.42701 6.56382,-17.84042 16.52572,-18.59234c4.24355,-0.3203 1.08425,31.28438 1.08425,31.28438l28.25801,1.06459c0,0 0.73775,-33.30836 3.21176,-33.2584c8.36427,0.16889 13.92026,2.82126 13.92026,15.50177c0,2.87821 1.61495,19.11812 -1.61239,34.44821c-2.97208,14.11758 -56.55341,16.39731 -59.50474,2.19267c-2.96139,-14.25303 -1.88288,-29.18299 -1.88288,-32.64088z" data-paper-data="{&quot;index&quot;:null}" fill="#353535" stroke="none" stroke-width="0" stroke-linecap="butt"/><g stroke="none" stroke-width="0" stroke-linecap="butt"><path d="M311.64972,171.7769c0,21.39971 -4.41009,26.34837 -9.21846,26.34837c-4.80836,0 -8.19419,-4.94866 -8.19419,-26.34837c0,-11.89082 -0.84505,-30.59013 1.0494,-37.69789c1.51497,-5.68397 5.52033,-1.04971 7.65692,-1.04971c2.86533,0 6.43164,-5.61898 8.01821,3.88805c1.07588,6.4469 0.68811,26.21204 0.68811,34.85956z" fill="#1a1833"/><path d="M291.86917,194.91237c0.28232,-3.90221 -0.40065,10.42056 -4.30434,4.99463c-0.76943,-1.06947 0.79406,-14.35477 5.28196,-16.29224c4.1171,-1.77739 8.96575,-0.09489 10.11969,0.02745c5.63533,0.59745 9.80358,6.61195 9.31003,13.43375c-0.15131,2.09137 -1.6216,12.55769 -5.37222,15.37294c-4.02766,3.0232 -10.44765,-1.70287 -13.51499,-2.64267c-3.39337,-1.0397 -1.69989,-12.40929 -1.52013,-14.89386z" fill="#04000e"/></g><path d="M292.60027,138.68475c0,-9.38884 -0.68723,-19 6.57198,-19c2.86319,0 22.09109,0.04071 24.24988,2.05089c3.31451,3.08634 -11.10594,9.26343 -11.10594,14.94911c0,9.38884 -19.71591,11.38884 -19.71591,2z" fill="#07001b" stroke="none" stroke-width="0" stroke-linecap="butt"/><g stroke-linecap="butt"><path d="M254.48112,132.06242c1.58893,4.05626 -2.8986,13.71428 -5.63389,13.94093c-2.59864,0.21531 -6.67994,-8.98253 -5.94309,-13.35199c0.31589,-1.87321 11.00922,-2.03834 11.57699,-0.58894z" fill="#b0a700" stroke="#3e3e3e" stroke-width="0"/><text transform="translate(244.95402,138.32162) scale(0.11287,0.12231)" font-size="40" xml:space="preserve" fill="#000000" fill-rule="nonzero" stroke="none" stroke-width="1" stroke-linecap="butt" stroke-linejoin="miter" stroke-miterlimit="10" stroke-dasharray="" stroke-dashoffset="0" font-family="&quot;GovtAgentBB&quot;, Serif" font-weight="normal" text-anchor="start" style="mix-blend-mode: normal"><tspan x="0" dy="0">ASC</tspan></text></g><g stroke="none" stroke-width="0" stroke-linecap="butt"><path d="M284.45588,73.81968c0,5.56835 -43.89568,7.91309 -43.89568,2.34474c0,-2.39993 2.12921,-2.77782 4.35588,-8.00803c1.29775,-3.04828 1.69964,-11.46067 4.17416,-13.1152c3.13078,-2.09332 18.18268,1.66186 18.18268,1.66186c0,0 12.84547,-7.00597 15.94901,-3.46194c3.15261,3.60008 1.23396,17.77254 1.23396,20.57856z" fill="#000044"/><path d="M286.81863,73.74048c0,3.68542 -28.07173,6.97637 -43.68194,6.97637c-15.61021,0 -10.50289,-10.72795 -10.50289,-10.72795c0,0 6.19859,1.93167 21.8088,1.93167c15.61021,0 32.37602,-1.8655 32.37602,1.81992z" fill="#000000"/></g><path d="M464.12599,94.33055c0,3.95567 9.24376,15.47853 6.80096,19.54908c-3.18195,5.3022 -28.48008,2.70197 -31.66977,2.70197c-5.63844,0 4.45021,-13.14279 4.45021,-22.25105c0,-9.10825 10.85351,-20.15682 16.49195,-20.15682c5.63844,0 3.92666,11.04858 3.92666,20.15682z" fill="#d0d0d0" stroke="none" stroke-width="0" stroke-linecap="butt"/><path d="M445.13843,100.6132c-14.74669,0 -18.32439,-11.43101 -18.32439,-26.1777c0,-14.7467 7.76613,-26.70126 22.51283,-26.70126c14.74669,0 22.51282,11.43101 22.51282,26.1777c0,14.7467 -11.95457,26.70126 -26.70126,26.70126z" data-paper-data="{&quot;index&quot;:null}" fill="#ffffff" stroke="none" stroke-width="0" stroke-linecap="butt"/><g data-paper-data="{&quot;index&quot;:null}" stroke="none" stroke-width="0" stroke-linecap="butt"><path d="M415.99362,126.44263c1.66131,-9.95489 5.39562,-4.0712 8.39593,-4.0712c2.23724,0 6.43129,-4.85258 8.01762,1.09916c1.9837,7.4426 1.09884,27.02281 1.09884,39.47377c0,22.40781 -3.54532,27.58959 -8.5802,27.58959c-5.03487,0 -9.65272,-5.18178 -9.65272,-27.58958c0,-9.05488 -0.40604,-29.75113 0.72053,-36.50173z" fill="#ffffff"/><path d="M434.39371,202.76517c-3.21184,0.98408 -9.93426,5.93277 -14.15165,2.76716c-3.9273,-2.94788 -5.46686,-13.90723 -5.6253,-16.09713c-0.5168,-7.14316 3.84781,-13.44098 9.74861,-14.06658c1.2083,-0.1281 6.28535,-1.88986 10.59641,-0.02874c4.69932,2.02874 6.33646,15.93988 5.53079,17.05972c-4.08758,5.68154 -4.80273,-9.31594 -4.50711,-5.22991c0.18822,2.60161 1.96148,14.50681 -1.59175,15.59548z" fill="#3c5285"/></g><path d="M436.66743,268.67107c-2.88479,-29.09597 -6.01873,-97.39991 5.22078,-103.70231c4.83988,-2.7139 26.60261,-1.32695 31.44068,2.22351c7.33601,5.38359 4.6432,69.51484 6.5451,92.64712c1.8245,22.19094 -14.348,18.87603 -17.75491,13.84561c-4.38831,-6.47949 -5.38996,-76.81296 -5.38996,-76.81296c0,0 2.08623,71.79311 -1.67712,77.14176c-4.03155,5.72981 -17.32604,5.33367 -18.38458,-5.34275z" data-paper-data="{&quot;index&quot;:null}" fill="#7a8db6" stroke="none" stroke-width="0" stroke-linecap="butt"/><path d="M411.12583,128.29329c0,-9.83113 6.16195,-17.80084 13.76312,-17.80084c7.60116,0 6.88157,10.06392 6.88157,19.89505c0,9.83113 -20.64469,7.73692 -20.64469,-2.09421z" data-paper-data="{&quot;index&quot;:null}" fill="#6389db" stroke="none" stroke-width="0" stroke-linecap="butt"/><path d="M421.45729,124.69669c0,-21.54174 13.97572,-19.63327 32.31531,-19.63327c18.33959,0 33.65249,-6.0969 33.65249,15.44484c0,5.78924 -9.22173,63.20409 -16.18978,66.3241c-10.25875,4.59343 -20.83661,4.0236 -32.47608,1.96007c-9.87242,-1.75026 -17.30194,-56.86645 -17.30194,-64.09573z" fill="#3c5285" stroke="none" stroke-width="0" stroke-linecap="butt"/><path d="M440.13681,74.67078c0,6.36132 -1.16066,11.51819 -2.59241,11.51819c-1.43174,0 -2.5924,-5.15687 -2.5924,-11.51819c0,-6.36132 1.16066,-11.51819 2.5924,-11.51819c1.43174,0 2.59241,5.15687 2.59241,11.51819z" fill="#000000" stroke="none" stroke-width="0" stroke-linecap="butt"/><path d="M451.91926,74.17373c0,6.36132 -1.16066,11.51819 -2.59241,11.51819c-1.43174,0 -2.59241,-5.15687 -2.59241,-11.51819c0,-6.36132 1.16066,-11.51819 2.59241,-11.51819c1.43174,0 2.59241,5.15687 2.59241,11.51819z" fill="#000000" stroke="none" stroke-width="0" stroke-linecap="butt"/><path d="M426.75153,275.46135c0,-8.36917 6.78455,-15.15371 15.15371,-15.15371c3.19923,0 10.70391,7.31273 10.70391,7.31273c0,0 3.59089,-4.60395 4.731,-2.49405c1.1565,2.14022 -0.2812,7.73163 -0.2812,10.33504c0,8.36917 -30.30743,8.36917 -30.30743,0z" fill="#111111" stroke="none" stroke-width="0" stroke-linecap="butt"/><path d="M460.29213,275.46135c0,-2.60341 -1.4377,-8.19482 -0.2812,-10.33504c1.14011,-2.10989 4.73101,2.49405 4.73101,2.49405c0,0 7.50468,-7.31273 10.70391,-7.31273c8.36917,0 15.15372,6.78454 15.15372,15.15371c0,8.36917 -30.30743,8.36917 -30.30743,0z" data-paper-data="{&quot;index&quot;:null}" fill="#111111" stroke="none" stroke-width="0" stroke-linecap="butt"/><path d="M421.45729,124.69668c0,-13.22766 5.26961,-17.6133 13.5834,-19.02822c5.22553,-0.88933 17.84564,29.97102 17.84564,29.97102c0,0 16.00916,-31.68966 21.78232,-31.28347c7.73531,0.54424 12.75644,3.81688 12.75644,16.15224c0,5.78924 -9.22173,63.2041 -16.18978,66.3241c-10.25875,4.59343 -20.83661,4.0236 -32.47608,1.96007c-9.87242,-1.75026 -17.30194,-56.86645 -17.30194,-64.09573z" fill="#92a9db" stroke="none" stroke-width="0" stroke-linecap="butt"/><g stroke="none" stroke-width="0" stroke-linecap="butt"><path d="M497.0587,162.94436c0,22.40781 -4.61784,27.58959 -9.65272,27.58959c-5.03487,0 -8.5802,-5.18178 -8.5802,-27.58958c0,-12.45096 -0.88486,-32.03117 1.09884,-39.47377c1.58633,-5.95173 5.78038,-1.09916 8.01762,-1.09916c3.00031,0 6.73462,-5.88368 8.39592,4.0712c1.12657,6.75059 0.72053,27.44685 0.72053,36.50173z" fill="#ffffff"/><path d="M476.34632,187.16969c0.29562,-4.08604 -0.41952,10.91145 -4.5071,5.22991c-0.80568,-1.11984 0.83146,-15.03099 5.53078,-17.05973c4.31106,-1.86112 9.3881,-0.09936 10.59641,0.02874c5.9008,0.62561 10.26541,6.92342 9.74861,14.06658c-0.15843,2.1899 -1.69798,13.14926 -5.62529,16.09713c-4.2174,3.16562 -10.93982,-1.78308 -14.15166,-2.76716c-3.55322,-1.08867 -1.77997,-12.99387 -1.59175,-15.59548z" fill="#3c5285"/></g><path d="M477.11187,128.29329c0,-9.83113 -0.7196,-19.89505 6.88156,-19.89505c7.60116,0 13.76313,7.9697 13.76313,17.80083c0,9.83113 -20.6447,11.92535 -20.6447,2.09422z" fill="#6389db" stroke="none" stroke-width="0" stroke-linecap="butt"/><g stroke-linecap="butt"><path d="M440.734,120.10332c1.7847,5.81508 -3.25575,8.73037 -6.32808,9.05529c-2.91881,0.30868 -7.50302,-1.94687 -6.67539,-8.21098c0.18203,-1.37772 12.6929,-1.85618 13.00345,-0.84431z" fill="#006fb0" stroke="#3e3e3e" stroke-width="0"/><text transform="translate(429.81944,126.12235) scale(0.12678,0.17535)" font-size="40" xml:space="preserve" fill="#000000" fill-rule="nonzero" stroke="none" stroke-width="1" stroke-linecap="butt" stroke-linejoin="miter" stroke-miterlimit="10" stroke-dasharray="" stroke-dashoffset="0" font-family="&quot;GovtAgentBB&quot;, Serif" font-weight="normal" text-anchor="start" style="mix-blend-mode: normal"><tspan x="0" dy="0">ASC</tspan></text></g></g></g></svg>