<svg version="1.1" xmlns="http://www.w3.org/2000/svg" xmlns:xlink="http://www.w3.org/1999/xlink" width="680.20605" height="154.33324" viewBox="0,0,680.20605,154.33324"><defs><linearGradient x1="55.33277" y1="432.77291" x2="106.15899" y2="432.86172" gradientUnits="userSpaceOnUse" id="color-1"><stop offset="0" stop-color="#484c5e"/><stop offset="1" stop-color="#212d30"/></linearGradient><linearGradient x1="55.82103" y1="426.39998" x2="124.66159" y2="426.52026" gradientUnits="userSpaceOnUse" id="color-2"><stop offset="0" stop-color="#484c5e"/><stop offset="1" stop-color="#212d30"/></linearGradient><linearGradient x1="56.36359" y1="419.3184" x2="125.20415" y2="419.43868" gradientUnits="userSpaceOnUse" id="color-3"><stop offset="0" stop-color="#484c5e"/><stop offset="1" stop-color="#212d30"/></linearGradient><linearGradient x1="56.84585" y1="413.02366" x2="125.68641" y2="413.14394" gradientUnits="userSpaceOnUse" id="color-4"><stop offset="0" stop-color="#484c5e"/><stop offset="1" stop-color="#212d30"/></linearGradient><linearGradient x1="57.40852" y1="405.67979" x2="126.24907" y2="405.80008" gradientUnits="userSpaceOnUse" id="color-5"><stop offset="0" stop-color="#484c5e"/><stop offset="1" stop-color="#212d30"/></linearGradient><linearGradient x1="57.89077" y1="399.38506" x2="126.73133" y2="399.50534" gradientUnits="userSpaceOnUse" id="color-6"><stop offset="0" stop-color="#484c5e"/><stop offset="1" stop-color="#212d30"/></linearGradient><linearGradient x1="58.43334" y1="392.30347" x2="127.27389" y2="392.42376" gradientUnits="userSpaceOnUse" id="color-7"><stop offset="0" stop-color="#484c5e"/><stop offset="1" stop-color="#212d30"/></linearGradient><linearGradient x1="58.91559" y1="386.00874" x2="127.75615" y2="386.12901" gradientUnits="userSpaceOnUse" id="color-8"><stop offset="0" stop-color="#484c5e"/><stop offset="1" stop-color="#212d30"/></linearGradient><linearGradient x1="666.21182" y1="432.77291" x2="615.38561" y2="432.86172" gradientUnits="userSpaceOnUse" id="color-9"><stop offset="0" stop-color="#484c5e"/><stop offset="1" stop-color="#212d30"/></linearGradient><linearGradient x1="665.72356" y1="426.39998" x2="596.883" y2="426.52026" gradientUnits="userSpaceOnUse" id="color-10"><stop offset="0" stop-color="#484c5e"/><stop offset="1" stop-color="#212d30"/></linearGradient><linearGradient x1="665.181" y1="419.3184" x2="596.34044" y2="419.43868" gradientUnits="userSpaceOnUse" id="color-11"><stop offset="0" stop-color="#484c5e"/><stop offset="1" stop-color="#212d30"/></linearGradient><linearGradient x1="664.69875" y1="413.02366" x2="595.85818" y2="413.14394" gradientUnits="userSpaceOnUse" id="color-12"><stop offset="0" stop-color="#484c5e"/><stop offset="1" stop-color="#212d30"/></linearGradient><linearGradient x1="664.13608" y1="405.67979" x2="595.29552" y2="405.80008" gradientUnits="userSpaceOnUse" id="color-13"><stop offset="0" stop-color="#484c5e"/><stop offset="1" stop-color="#212d30"/></linearGradient><linearGradient x1="663.65382" y1="399.38506" x2="594.81326" y2="399.50534" gradientUnits="userSpaceOnUse" id="color-14"><stop offset="0" stop-color="#484c5e"/><stop offset="1" stop-color="#212d30"/></linearGradient><linearGradient x1="663.11126" y1="392.30347" x2="594.2707" y2="392.42376" gradientUnits="userSpaceOnUse" id="color-15"><stop offset="0" stop-color="#484c5e"/><stop offset="1" stop-color="#212d30"/></linearGradient><linearGradient x1="662.62901" y1="386.00874" x2="593.78844" y2="386.12901" gradientUnits="userSpaceOnUse" id="color-16"><stop offset="0" stop-color="#484c5e"/><stop offset="1" stop-color="#212d30"/></linearGradient></defs><g transform="translate(-20.66927,-283.64588)"><g stroke-miterlimit="10"><g fill="none" stroke-width="3.25" stroke-linecap="round"><path d="M55.5783,429.56829c0,0 31.88218,-0.15107 44.50005,-0.21085c9.33843,-0.04425 7.93086,1.54952 -1.90819,2.54577c-8.2408,0.83441 -24.14006,2.44429 -34.15535,3.45838c-5.29823,0.53647 -2.87213,0.91683 1.83047,0.92504c8.90188,0.01556 38.62921,0.0675 38.62921,0.0675" stroke="url(#color-1)"/><path d="M56.06061,423.27354c0,0 31.88223,-0.15107 44.50004,-0.21086c9.33843,-0.04424 7.93086,1.54953 -1.90818,2.54577c-12.60031,1.27583 -43.10516,4.36459 -43.10516,4.36459" stroke="url(#color-2)"/><path d="M56.60312,416.19196c0,0 31.88223,-0.15107 44.50005,-0.21085c9.33843,-0.04424 7.93085,1.54953 -1.90819,2.54577c-12.60031,1.27583 -43.10516,4.36459 -43.10516,4.36459" stroke="url(#color-3)"/><path d="M57.08543,409.89722c0,0 31.88223,-0.15107 44.50005,-0.21085c9.33843,-0.04424 7.93085,1.54953 -1.90819,2.54577c-12.60031,1.27583 -43.10516,4.36459 -43.10516,4.36459" stroke="url(#color-4)"/><path d="M57.64804,402.55336c0,0 31.88223,-0.15107 44.50004,-0.21086c9.33843,-0.04424 7.93086,1.54954 -1.90818,2.54578c-12.60031,1.27583 -43.10516,4.36459 -43.10516,4.36459" stroke="url(#color-5)"/><path d="M58.13035,396.25862c0,0 31.88223,-0.15107 44.50005,-0.21086c9.33843,-0.04424 7.93086,1.54953 -1.90818,2.54577c-12.60031,1.27583 -43.10517,4.36459 -43.10517,4.36459" stroke="url(#color-6)"/><path d="M58.67286,389.17704c0,0 31.88223,-0.15107 44.50005,-0.21085c9.33843,-0.04424 7.93085,1.54953 -1.90819,2.54577c-12.60031,1.27583 -43.10516,4.3646 -43.10516,4.3646" stroke="url(#color-7)"/><path d="M59.15517,382.8823c0,0 31.88223,-0.15107 44.50005,-0.21085c9.33843,-0.04424 7.93085,1.54953 -1.90819,2.54577c-12.60031,1.27583 -43.10516,4.36459 -43.10516,4.36459" stroke="url(#color-8)"/></g><path d="M38.49489,367.30808c-4.68434,-17.07174 -31.70144,-73.08674 6.64436,-82.56975c39.58293,-9.78893 44.12161,49.50232 54.2833,46.72217c13.13656,-3.59403 3.62524,-14.33841 11.15548,-10.61275c20.95938,10.36986 7.64552,37.34858 9.02771,42.38593c2.94357,10.72772 32.77133,30.28672 23.40582,36.3766c-5.53849,3.60136 -47.15613,-3.84634 -55.47953,-3.42824c-5.43594,0.27308 -57.29021,31.88384 -62.43334,30.64313c-16.04865,-3.87147 16.9437,-46.58851 13.39621,-59.51705z" fill="#0d0d0d" stroke="#000000" stroke-width="0" stroke-linecap="butt"/><g fill="none" stroke-width="3.25" stroke-linecap="round"><path d="M617.07011,436.35412c0,0 29.72733,-0.05194 38.6292,-0.0675c4.7026,-0.00822 7.12869,-0.38857 1.83047,-0.92504c-10.01528,-1.01409 -25.91455,-2.62397 -34.15535,-3.45838c-9.83905,-0.99625 -11.24662,-2.59002 -1.90819,-2.54577c12.61786,0.05978 44.50005,0.21085 44.50005,0.21085" stroke="url(#color-9)"/><path d="M665.99729,429.97305c0,0 -30.50486,-3.08876 -43.10517,-4.36459c-9.83904,-0.99624 -11.24661,-2.59001 -1.90818,-2.54577c12.61782,0.05978 44.50005,0.21086 44.50005,0.21086" stroke="url(#color-10)"/><path d="M665.45477,422.89147c0,0 -30.50486,-3.08875 -43.10516,-4.36459c-9.83904,-0.99624 -11.24661,-2.59001 -1.90819,-2.54577c12.61782,0.05978 44.50005,0.21085 44.50005,0.21085" stroke="url(#color-11)"/><path d="M664.97247,416.59673c0,0 -30.50486,-3.08875 -43.10516,-4.36459c-9.83904,-0.99624 -11.24661,-2.59001 -1.90819,-2.54577c12.61782,0.05978 44.50005,0.21085 44.50005,0.21085" stroke="url(#color-12)"/><path d="M664.40985,409.25287c0,0 -30.50485,-3.08875 -43.10516,-4.36459c-9.83904,-0.99624 -11.24661,-2.59002 -1.90819,-2.54578c12.61782,0.05978 44.50005,0.21086 44.50005,0.21086" stroke="url(#color-13)"/><path d="M663.92755,402.95812c0,0 -30.50486,-3.08876 -43.10517,-4.36459c-9.83904,-0.99624 -11.2466,-2.59001 -1.90818,-2.54577c12.61782,0.05978 44.50005,0.21086 44.50005,0.21086" stroke="url(#color-14)"/><path d="M663.38503,395.87655c0,0 -30.50486,-3.08876 -43.10516,-4.3646c-9.83904,-0.99624 -11.24661,-2.59001 -1.90819,-2.54577c12.61782,0.05978 44.50005,0.21085 44.50005,0.21085" stroke="url(#color-15)"/><path d="M662.90273,389.5818c0,0 -30.50486,-3.08875 -43.10516,-4.36459c-9.83904,-0.99624 -11.24661,-2.59001 -1.90819,-2.54577c12.61782,0.05978 44.50005,0.21085 44.50005,0.21085" stroke="url(#color-16)"/></g><path d="M683.04971,367.30813c-3.54749,12.92854 29.44486,55.64558 13.39621,59.51705c-5.14314,1.24072 -56.99741,-30.37005 -62.43335,-30.64312c-8.3234,-0.41809 -49.94104,7.0296 -55.47953,3.42824c-9.36551,-6.08987 20.46224,-25.64888 23.40582,-36.3766c1.38219,-5.03735 -11.93166,-32.01607 9.02771,-42.38593c7.53025,-3.72566 -1.98108,7.01872 11.15548,10.61275c10.16169,2.78015 14.70037,-56.51111 54.2833,-46.72217c38.34579,9.48301 11.3287,65.49801 6.64436,82.56975z" fill="#0d0d0d" stroke="#000000" stroke-width="0" stroke-linecap="butt"/></g></g></svg>