<svg version="1.1" xmlns="http://www.w3.org/2000/svg" xmlns:xlink="http://www.w3.org/1999/xlink" width="97.55951" height="243.59453" viewBox="0,0,97.55951,243.59453"><defs><radialGradient cx="380.03059" cy="249.12402" r="7.17648" gradientUnits="userSpaceOnUse" id="color-1"><stop offset="0" stop-color="#9f9f9f"/><stop offset="1" stop-color="#6e6e6e"/></radialGradient><radialGradient cx="377.24569" cy="204.39885" r="7.17648" gradientUnits="userSpaceOnUse" id="color-2"><stop offset="0" stop-color="#9f9f9f"/><stop offset="1" stop-color="#6e6e6e"/></radialGradient><radialGradient cx="337.99817" cy="247.61048" r="7.17648" gradientUnits="userSpaceOnUse" id="color-3"><stop offset="0" stop-color="#9f9f9f"/><stop offset="1" stop-color="#6e6e6e"/></radialGradient><radialGradient cx="340.78309" cy="202.88532" r="7.17648" gradientUnits="userSpaceOnUse" id="color-4"><stop offset="0" stop-color="#9f9f9f"/><stop offset="1" stop-color="#6e6e6e"/></radialGradient><radialGradient cx="322.20224" cy="162.52112" r="7.49634" gradientUnits="userSpaceOnUse" id="color-5"><stop offset="0" stop-color="#9f9f9f"/><stop offset="1" stop-color="#6e6e6e"/></radialGradient><radialGradient cx="337.19492" cy="128.08433" r="7.49634" gradientUnits="userSpaceOnUse" id="color-6"><stop offset="0" stop-color="#9f9f9f"/><stop offset="1" stop-color="#6e6e6e"/></radialGradient><radialGradient cx="397.91492" cy="163.09125" r="7.41638" gradientUnits="userSpaceOnUse" id="color-7"><stop offset="0" stop-color="#9f9f9f"/><stop offset="1" stop-color="#6e6e6e"/></radialGradient><radialGradient cx="383.08217" cy="128.6545" r="7.41638" gradientUnits="userSpaceOnUse" id="color-8"><stop offset="0" stop-color="#9f9f9f"/><stop offset="1" stop-color="#6e6e6e"/></radialGradient><radialGradient cx="352.40713" cy="73.41925" r="7.27663" gradientUnits="userSpaceOnUse" id="color-9"><stop offset="0" stop-color="#b9b9b9"/><stop offset="1" stop-color="#000000"/></radialGradient><linearGradient x1="352.40713" y1="69.33238" x2="352.40713" y2="77.50611" gradientUnits="userSpaceOnUse" id="color-10"><stop offset="0" stop-color="#ffd133"/><stop offset="1" stop-color="#d1c32a"/></linearGradient><radialGradient cx="371.01676" cy="73.4188" r="7.27662" gradientUnits="userSpaceOnUse" id="color-11"><stop offset="0" stop-color="#b9b9b9"/><stop offset="1" stop-color="#000000"/></radialGradient><linearGradient x1="371.01676" y1="69.33194" x2="371.01676" y2="77.50569" gradientUnits="userSpaceOnUse" id="color-12"><stop offset="0" stop-color="#ffd133"/><stop offset="1" stop-color="#d1c32a"/></linearGradient></defs><g transform="translate(-311.22024,-58.20273)"><g stroke="none" stroke-miterlimit="10"><path d="M349.08206,60.97955c5.96491,0 -3.30262,2.89074 -3.30262,5.35558c0,2.46484 -4.83551,4.46298 -10.80042,4.46298c-5.96491,0 -10.80043,-1.99815 -10.80043,-4.46298c0,-2.46484 18.93855,-5.35558 24.90346,-5.35558z" fill="#d4ac87" stroke-width="0"/><path d="M397.67723,66.33513c0,2.46484 -4.83551,4.46299 -10.80042,4.46299c-5.96491,0 -10.80042,-1.99815 -10.80042,-4.46299c0,-2.46484 -9.26752,-5.35558 -3.30261,-5.35558c5.96491,0 24.90346,2.89074 24.90346,5.35558z" fill="#d5d5d5" stroke-width="0"/><g stroke-width="0"><g fill="#828282"><path d="M355.79262,109.63877v-1.56139h9.20777v1.56139z"/><path d="M355.86809,111.69324v-1.5614h9.20777v1.5614z"/><path d="M355.94356,113.74769v-1.56139h9.20777v1.56139z"/><path d="M355.94356,115.80214v-1.5614h9.20777v1.5614z"/><path d="M355.86809,117.85662v-1.56139h9.20777v1.56139z"/><path d="M355.94356,119.91108v-1.5614h9.20777v1.5614z"/></g><path d="M354.33032,120.21927v-14.17578h2.16987v14.17578z" fill="#606060"/><path d="M364.4249,120.21927v-14.17578h2.16986v14.17578z" fill="#606060"/></g><g stroke-width="0"><path d="M380.03059,256.72961c-3.96346,0 -7.17648,-3.40512 -7.17648,-7.60555c0,-4.20044 3.21302,-7.60555 7.17648,-7.60555c3.96346,0 7.17648,3.40512 7.17648,7.60555c0,4.20044 -3.21302,7.60555 -7.17648,7.60555z" fill="url(#color-1)"/><path d="M377.24569,212.00442c-3.96346,0 -7.17648,-3.40512 -7.17648,-7.60555c0,-4.20044 3.21302,-7.60555 7.17648,-7.60555c3.96346,0 7.17648,3.40512 7.17648,7.60555c0,4.20044 -3.21302,7.60555 -7.17648,7.60555z" fill="url(#color-2)"/><path d="M368.61084,212.15391c2.43652,-4.09073 5.99241,-4.60591 9.75464,-7.18598c6.10299,-4.18533 12.47422,-8.86585 13.44167,-6.22142c1.30426,3.56508 1.39819,20.79844 1.39819,25.51762c0,5.11333 -0.3773,17.33024 -2.83201,21.20174c-2.01519,3.1783 -14.30998,6.18482 -20.60034,0.01266c-4.0535,-3.97732 -3.34838,-15.7488 -3.34838,-20.45763c0,-2.69831 0.33608,-9.76071 2.18625,-12.86698z" fill="#605a8d"/><path d="M369.45319,252.64129c2.27907,-4.62911 7.60421,-2.11723 11.39859,-2.11723c3.91911,0 8.2713,-3.67782 10.54856,1.21697c1.71008,3.67569 1.87639,14.24761 1.87639,19.32937c0,11.84897 -5.56283,21.45447 -12.42495,21.45447c-6.86212,0 -12.42495,-9.6055 -12.42495,-21.45447c0,-5.29713 -0.81624,-14.6865 1.02637,-18.42911z" fill="#605a8d"/></g><g stroke-width="0"><path d="M330.8217,247.61048c0,-4.20044 3.21302,-7.60555 7.17648,-7.60555c3.96346,0 7.17648,3.40512 7.17648,7.60555c0,4.20044 -3.21302,7.60555 -7.17648,7.60555c-3.96346,0 -7.17648,-3.40512 -7.17648,-7.60555z" fill="url(#color-3)"/><path d="M333.6066,202.88532c0,-4.20044 3.21302,-7.60555 7.17648,-7.60555c3.96346,0 7.17648,3.40512 7.17648,7.60555c0,4.20044 -3.21302,7.60555 -7.17648,7.60555c-3.96346,0 -7.17648,-3.40512 -7.17648,-7.60555z" fill="url(#color-4)"/><path d="M351.60417,223.50735c0,4.70883 0.70513,16.4803 -3.34838,20.45763c-6.29037,6.17216 -18.58515,3.16564 -20.60034,-0.01266c-2.45471,-3.8715 -2.83201,-16.08841 -2.83201,-21.20174c0,-4.71917 0.09394,-21.95254 1.39819,-25.51762c0.96744,-2.64443 7.33867,2.03608 13.44167,6.22141c3.76223,2.58008 7.3181,3.09526 9.75463,7.18599c1.85016,3.10627 2.18625,10.16867 2.18625,12.86698z" fill="#605a8d"/><path d="M349.60194,269.55686c0,11.84897 -5.56284,21.45447 -12.42495,21.45447c-6.86211,0 -12.42495,-9.6055 -12.42495,-21.45447c0,-5.08176 0.16631,-15.65368 1.87639,-19.32937c2.27726,-4.89479 6.62945,-1.21697 10.54856,-1.21697c3.79438,0 9.11952,-2.51188 11.39858,2.11723c1.84261,3.7426 1.02638,13.13199 1.02638,18.42911z" fill="#605a8d"/></g><g stroke-width="0"><path d="M322.20224,170.16108c-4.14011,0 -7.49634,-3.42051 -7.49634,-7.63994c0,-4.21943 3.35623,-7.63994 7.49634,-7.63994c4.14011,0 7.49634,3.42051 7.49634,7.63994c0,4.21943 -3.35623,7.63994 -7.49634,7.63994z" fill="url(#color-5)"/><path d="M312.13339,163.90867c2.29374,-3.60473 8.26395,1.57244 11.13691,1.3829c5.85804,-0.38648 8.47741,8.1378 9.156,18.82144c0.6786,10.68364 -0.84053,19.48096 -6.69858,19.86744c-5.85804,0.38648 -13.59894,-7.57137 -14.27754,-18.25501c-0.14637,-2.30428 -0.69132,-19.65665 0.68319,-21.81676z" fill="#d5d5d5"/><path d="M337.19492,135.72428c-4.14011,0 -7.49634,-3.42051 -7.49634,-7.63994c0,-4.21943 3.35623,-7.63994 7.49634,-7.63994c4.14011,0 7.49634,3.42051 7.49634,7.63994c0,4.21943 -3.35623,7.63994 -7.49634,7.63994z" fill="url(#color-6)"/><path d="M331.11142,126.63523c5.70313,1.41766 5.69978,10.35017 3.21061,20.75127c-2.48917,10.4011 -6.52156,18.3321 -12.22469,16.91444c-5.70313,-1.41766 -10.75295,-11.37151 -8.26378,-21.77261c2.48917,-10.4011 11.57474,-17.31075 17.27786,-15.89309z" fill="#d5d5d5"/></g><g stroke-width="0"><path d="M390.49854,163.09125c0,-4.21943 3.32042,-7.63994 7.41638,-7.63994c4.09595,0 7.41638,3.42051 7.41638,7.63994c0,4.21943 -3.32042,7.63994 -7.41638,7.63994c-4.09595,0 -7.41638,-3.42051 -7.41638,-7.63994z" fill="url(#color-7)"/><path d="M408.55226,186.2956c-0.67135,10.68364 -8.32968,18.64149 -14.12523,18.25501c-5.79556,-0.38648 -7.29848,-9.1838 -6.62713,-19.86744c0.67135,-10.68364 3.26278,-19.20792 9.05834,-18.82144c2.8423,0.18953 8.74884,-4.98762 11.01812,-1.3829c1.35986,2.16011 0.8207,19.51248 0.67591,21.81676z" fill="#d5d5d5"/><path d="M375.66579,128.6545c0,-4.21943 3.32042,-7.63994 7.41638,-7.63994c4.09595,0 7.41638,3.42051 7.41638,7.63994c0,4.21943 -3.32042,7.63994 -7.41638,7.63994c-4.09595,0 -7.41638,-3.42051 -7.41638,-7.63994z" fill="url(#color-8)"/><path d="M406.19433,143.09847c2.46262,10.4011 -2.53334,20.35496 -8.17563,21.77261c-5.64229,1.41766 -9.63166,-6.51334 -12.09428,-16.91444c-2.46262,-10.4011 -2.46594,-19.33361 3.17635,-20.75127c5.64229,-1.41766 14.63094,5.492 17.09355,15.89309z" fill="#d5d5d5"/></g><g><path d="M391.1064,171.75091c0,29.72596 -13.89484,34.00795 -31.035,34.00795c-17.14016,0 -31.035,-4.28199 -31.035,-34.00795c0,-14.56538 3.336,-35.27729 8.75518,-44.96733c5.64063,-10.08602 13.53815,-8.85628 22.27983,-8.85628c8.70717,0 16.57686,-1.27912 22.21294,8.73705c5.45859,9.70075 8.82206,30.46135 8.82206,45.08657z" fill="#e6e6e6" stroke-width="NaN"/><g fill="none" stroke-width="1" font-family="sans-serif" font-weight="normal" font-size="12" text-anchor="start"/><g fill="none" stroke-width="1" font-family="sans-serif" font-weight="normal" font-size="12" text-anchor="start"/></g><path d="M386.02096,87.71267c0,14.6382 -8.89403,23.49969 -25.15027,23.49969c-16.25625,0 -24.52277,-8.45784 -24.52277,-23.09604c0,-4.29243 2.77257,-10.58687 3.91305,-14.32871c2.7488,-9.01873 9.12038,-15.58488 20.60972,-15.58488c12.39112,0 19.41258,6.82029 22.05098,16.54626c0.82299,3.0338 3.09929,9.48327 3.09929,12.96368z" fill="#e6e6e6" stroke-width="0"/><g stroke-width="0"><path d="M345.13051,73.41925c0,-4.01877 3.25784,-7.27662 7.27662,-7.27662c4.01877,0 7.27663,3.25785 7.27663,7.27662c0,4.01877 -3.25785,7.27662 -7.27663,7.27662c-4.01877,0 -7.27662,-3.25785 -7.27662,-7.27662z" fill="url(#color-9)"/><g><g><path d="M347.1241,73.41925c0,-2.91774 2.36529,-5.28303 5.28302,-5.28303c2.91773,0 5.28303,2.36529 5.28303,5.28303c0,2.91774 -2.3653,5.28302 -5.28303,5.28302c-2.91773,0 -5.28302,-2.36529 -5.28302,-5.28302z" fill="#ffffff"/><path d="M348.32024,73.41925c0,-2.25712 1.82976,-4.08688 4.08688,-4.08688c2.25712,0 4.08688,1.82976 4.08688,4.08688c0,2.25712 -1.82976,4.08688 -4.08688,4.08688c-2.25712,0 -4.08688,-1.82976 -4.08688,-4.08688z" fill="url(#color-10)"/><path d="M351.26081,73.41925c0,-0.63309 0.51323,-1.14632 1.14632,-1.14632c0.63309,0 1.14632,0.51323 1.14632,1.14632c0,0.63309 -0.51323,1.14632 -1.14632,1.14632c-0.63309,0 -1.14632,-0.51323 -1.14632,-1.14632z" fill="#000000"/></g><path d="M355.04953,72.00483c0,0.13551 -0.38448,0.24536 -0.85875,0.24536c-0.47427,0 -0.85875,-0.10985 -0.85875,-0.24536c0,-0.13551 0.38448,-0.24536 0.85875,-0.24536c0.47427,0 0.85875,0.10985 0.85875,0.24536z" fill="#ffffff"/></g><path d="M357.82522,71.28269c0,0.96548 -2.35625,-0.15334 -5.48984,-0.15334c-3.13358,0 -5.30582,0.99615 -5.30582,0.03067c0,-0.96548 2.17225,-3.52699 5.30582,-3.52699c3.13358,0 5.48984,2.68419 5.48984,3.64967z" fill="#d3d3d3"/></g><path d="M382.14604,78.74225c0,2.62456 -3.06523,0.45524 -4.04336,1.84587c-1.5756,2.24006 -2.25699,3.7775 -5.32891,3.7775c-2.98217,0 -5.06737,0.4929 -7.11938,-2.73195c-1.374,-2.1593 -3.50252,-4.07077 -3.50252,-6.81885c0,-3.37146 -2.23623,-7.1429 -0.65047,-9.37909c0.5624,-0.79309 4.62646,-2.6793 6.07235,-2.93893c2.76315,-0.49616 3.53966,1.16055 5.20003,1.16055c2.95981,0 5.41868,5.12534 7.21585,9.12912c1.22602,2.73138 2.15643,3.17691 2.15643,5.95577z" fill="#d4ac87" stroke-width="0"/><g stroke-width="0"><path d="M363.74014,73.4188c0,-4.01877 3.25784,-7.27662 7.27662,-7.27662c4.01877,0 7.27662,3.25784 7.27662,7.27662c0,4.01877 -3.25785,7.27662 -7.27662,7.27662c-4.01877,0 -7.27662,-3.25784 -7.27662,-7.27662z" fill="url(#color-11)"/><g><g><path d="M365.73373,73.4188c0,-2.91774 2.3653,-5.28302 5.28303,-5.28302c2.91773,0 5.28303,2.36529 5.28303,5.28302c0,2.91774 -2.36529,5.28303 -5.28303,5.28303c-2.91773,0 -5.28303,-2.36529 -5.28303,-5.28303z" fill="#ffffff"/><path d="M366.9299,73.4188c0,-2.25712 1.82976,-4.08687 4.08688,-4.08687c2.25712,0 4.08688,1.82975 4.08688,4.08687c0,2.25712 -1.82976,4.08688 -4.08688,4.08688c-2.25712,0 -4.08688,-1.82976 -4.08688,-4.08688z" fill="url(#color-12)"/><path d="M369.87044,73.4188c0,-0.63309 0.51323,-1.14632 1.14632,-1.14632c0.63309,0 1.14632,0.51323 1.14632,1.14632c0,0.63309 -0.51323,1.14632 -1.14632,1.14632c-0.63309,0 -1.14632,-0.51323 -1.14632,-1.14632z" fill="#000000"/></g><path d="M373.65918,72.00439c0,0.13551 -0.38448,0.24536 -0.85875,0.24536c-0.47427,0 -0.85875,-0.10985 -0.85875,-0.24536c0,-0.13551 0.38448,-0.24534 0.85875,-0.24534c0.47427,0 0.85875,0.10984 0.85875,0.24534z" fill="#ffffff"/></g><path d="M376.43486,71.28224c0,0.96548 -2.35624,-0.15334 -5.48984,-0.15334c-3.13358,0 -5.30582,0.99615 -5.30582,0.03067c0,-0.96548 2.17225,-3.52699 5.30582,-3.52699c3.13358,0 5.48984,2.68419 5.48984,3.64967z" fill="#d3d3d3"/></g><path d="M379.28973,96.50494c0,5.12687 -8.15244,9.28301 -18.20898,9.28301c-10.05654,0 -18.20898,-4.15615 -18.20898,-9.28301c0,-1.26382 -1.11127,-7.82423 -0.21408,-8.92236c2.74241,-3.35659 10.84555,-0.36064 18.42307,-0.36064c5.8489,0 13.19594,-1.98601 16.52743,0.19902c2.39665,1.5719 1.68156,6.93891 1.68156,9.08399z" fill="#d4b9ab" stroke-width="0"/><path d="M350.90514,89.36415c0,0.69015 -1.55855,0.35704 -3.48113,0.35704c-1.92258,0 -3.48113,0.33312 -3.48113,-0.35704c0,-0.69015 1.55855,-2.49927 3.48113,-2.49927c1.92258,0 3.48113,1.80912 3.48113,2.49927z" fill="#000000" stroke-width="0"/><path d="M376.96897,89.7212c0,0.69015 -1.55855,0.35705 -3.48113,0.35705c-1.92258,0 -3.48113,0.33311 -3.48113,-0.35705c0,-0.69015 1.55855,-2.49928 3.48113,-2.49928c1.92258,0 3.48113,1.80913 3.48113,2.49928z" fill="#000000" stroke-width="0"/><path d="M380.60651,301.79726c-4.75018,0 -13.00088,-1.69521 -13.00088,-1.69521l2.56315,-19.07116c0,0 7.90488,1.69521 11.14688,1.69521c4.02178,0 11.15256,-1.69521 11.15256,-1.69521l2.56316,19.07116c0,0 -10.06698,1.69521 -14.42487,1.69521z" fill="#483500" stroke-width="0"/><path d="M323.53294,298.85631l2.56315,-19.07116c0,0 7.13079,1.69521 11.15256,1.69521c3.24199,0 11.14688,-1.69521 11.14688,-1.69521l2.56315,19.07116c0,0 -8.25072,1.69521 -13.00088,1.69521c-4.35789,0 -14.42486,-1.69521 -14.42486,-1.69521z" fill="#483500" stroke-width="0"/><path d="M392.72917,210.03896c-3.91112,-0.89714 -10.38429,-3.85116 -10.38429,-3.85116l5.71223,-15.21842c0,0 6.18843,2.88872 8.85777,3.501c3.31138,0.75956 9.50278,0.71051 9.50278,0.71051l-1.4914,16.18659c0,0 -8.60895,-0.5055 -12.19707,-1.32854z" fill="#483500" stroke-width="0"/><path d="M314.74926,210.56417l-1.49141,-16.18659c0,0 6.1914,0.04904 9.50278,-0.71051c2.66934,-0.61228 8.85777,-3.501 8.85777,-3.501l5.71223,15.21842c0,0 -6.47318,2.95402 -10.38429,3.85116c-3.58813,0.82304 -12.19707,1.32854 -12.19707,1.32854z" fill="#483500" stroke-width="0"/><path d="M340.77416,153.36337c0,-4.50659 8.87221,-4.40772 11.2247,-7.87601c2.52494,-3.72253 -4.19492,-9.21725 -2.12251,-12.06349c1.12924,-1.55088 9.95233,-1.75061 12.58792,-1.75061c3.89236,0 9.95528,-5.13365 13.11338,-3.33842c6.56125,3.72974 8.57673,16.94179 8.57673,25.02854c0,5.9193 -5.31669,9.94589 -9.16093,13.85958c-3.93552,4.00661 -6.46935,7.83054 -12.52917,7.83054c-7.92856,0 -15.93465,8.06379 -19.71805,1.71369c-1.93287,-3.24416 -1.97207,-19.35324 -1.97207,-23.4038z" fill="#d4ac87" stroke-width="0"/><path d="M384.72733,185.65135c-0.86931,0.47238 -9.7447,6.12478 -12.73529,6.21334c-7.96171,0.23577 -13.94614,-6.2406 -15.20376,-8.55492c-1.18023,-2.17191 7.99863,-0.66221 14.87162,-2.69504c3.20156,-0.94692 5.79083,-5.94256 6.80255,-6.49233c0.53467,-0.29054 6.44747,-3.06973 7.01277,-3.20049c2.80081,-0.64783 0.44467,3.18355 1.88414,5.83252c1.73,3.18363 0.55159,7.16692 -2.63203,8.89692z" fill="#d4ac87" stroke-width="0"/><path d="M316.13848,141.71497c0,-4.06699 1.69026,4.15058 5.75725,4.15058c4.06699,0 7.09615,-1.52309 7.09615,2.5439c0,4.06699 -3.29694,7.36393 -7.36393,7.36393c-4.06699,0 -5.48947,-9.99142 -5.48947,-14.05841z" fill="#bd9a79" stroke-width="0"/><g stroke-width="0"><path d="M346.08512,159.16527c0,0 -0.83,-23.17989 -0.35705,-38.91724c0.09686,-3.22286 6.60521,-3.21335 6.60521,-3.21335v42.13059z" fill="#4c476f"/><path d="M367.89732,159.34377v-42.13059c0,0 6.50836,-0.00951 6.60521,3.21335c0.47295,15.73735 -0.35705,38.91724 -0.35705,38.91724z" fill="#4c476f"/><path d="M390.66142,183.33681c0,3.23758 -1.50808,13.01049 -8.12,18.28608c-5.46922,4.36384 -15.30998,4.6358 -22.83527,4.6358c-8.10721,0 -17.88358,-2.13799 -23.13869,-6.55119c-5.51988,-4.63555 -6.74546,-12.48333 -6.74546,-15.51382c0,-2.29339 6.46545,2.51022 10.10494,-2.33416c3.34567,-4.45327 0.93833,-17.08931 4.9745,-22.84506c2.89848,-4.13335 13.22822,-2.02715 17.48251,-2.02715c5.32166,0 11.13244,-2.66038 14.35533,1.68038c4.2359,5.70511 3.87188,18.86175 6.45486,23.58677c1.5905,2.90951 7.46729,-0.45037 7.46729,1.08233z" fill="#605a8d"/></g><path d="M345.34948,180.85329c0,0 1.6623,-4.80339 2.09555,-7.81459c0.40364,-2.8053 1.42377,-9.89518 1.42377,-9.89518l1.52234,0.21904c0,0 -1.04081,7.23364 -1.44919,10.07188c-0.42955,2.98541 -2.07014,7.63789 -2.07014,7.63789z" fill="#4c476f" stroke-width="0"/><path d="M374.04005,181.42938c0,0 -1.64059,-4.65248 -2.07014,-7.63789c-0.40838,-2.83825 -1.44919,-10.07188 -1.44919,-10.07188l1.52235,-0.21904c0,0 1.02012,7.08988 1.42376,9.89518c0.43327,3.01119 2.09555,7.81459 2.09555,7.81459z" fill="#4c476f" stroke-width="0"/><path d="M331.98133,191.64293v-1.63114c0,0 4.8985,-1.369 6.57501,-3.01345c1.89879,-1.86247 4.23412,-7.58894 4.23412,-7.58894v1.63114c0,0 -1.67899,5.08266 -3.4633,6.83285c-1.81811,1.78333 -7.34585,3.76954 -7.34585,3.76954z" fill="#4c476f" stroke-width="0"/><path d="M380.71376,187.99617c-1.76502,-1.73127 -3.42587,-6.75901 -3.42587,-6.75901v-1.61352c0,0 2.31011,5.6646 4.18838,7.50694c1.6584,1.62668 6.50397,2.98089 6.50397,2.98089v1.61351c0,0 -5.46801,-1.96474 -7.26648,-3.7288z" fill="#4c476f" stroke-width="0"/></g></g></svg>