<svg version="1.1" xmlns="http://www.w3.org/2000/svg" xmlns:xlink="http://www.w3.org/1999/xlink" width="741" height="434" viewBox="0,0,741,434"><defs><radialGradient cx="72.31439" cy="181.8394" r="84.31438" gradientUnits="userSpaceOnUse" id="color-1"><stop offset="0" stop-color="#343434"/><stop offset="1" stop-color="#313131"/></radialGradient></defs><g transform="translate(12,38.5)"><g stroke-miterlimit="10"><g><path d="M-12,368.5v-380h741v380z" fill="#131313" stroke="#000000" stroke-width="0" stroke-linecap="butt"/><g fill="#818181" stroke="#000000" stroke-width="0" stroke-linecap="butt"><path d="M118.85434,395.5v-428h89v428z"/><path d="M255.14566,389.5v-428h89v428z"/></g><g fill="#818181" stroke="#000000" stroke-width="0" stroke-linecap="butt"><path d="M372.85434,395.5v-428h89v428z"/><path d="M509.14566,389.5v-428h89v428z"/></g><path d="M75.35736,346.29123v-332.58246h569.28529v332.58246z" fill="#818181" stroke="none" stroke-width="0" stroke-linecap="butt"/><path d="M161.64935,301.37228v-239.0658h396.97943v239.0658z" fill="#000000" stroke="none" stroke-width="0" stroke-linecap="butt"/><g fill="url(#color-1)" stroke="none" stroke-width="0" stroke-linecap="butt"><path d="M-12,301.37228v-239.0658h168.62878v239.0658z"/></g><path d="M158.86093,120v-40v28" fill="none" stroke="#484848" stroke-width="10" stroke-linecap="round"/><path d="M158.86093,221v46" fill="none" stroke="#484848" stroke-width="10" stroke-linecap="round"/><path d="M246.86093,311.5c-2.5,0 -2.5,-2.5 -2.5,-2.5v-5c0,-19.64565 -0.29081,-39.3164 0.19485,-58.95589c0.24862,-1.94941 -0.04418,-4.04883 0.74587,-5.84822c0.70008,-1.59447 2.64188,-2.35724 3.51771,-3.86236c1.5202,-2.6125 2.12915,-5.706 2.56808,-8.69656c0.44759,-3.04964 0.47381,-6.20062 0.00411,-9.24694c-0.49381,-3.20274 -2.41113,-6.05987 -3.0057,-9.24544c-0.43501,-2.3307 -0.20163,-7.62832 -0.57135,-10.06868c-0.42347,-2.79515 -2.09595,-7.01771 -2.43483,-9.77045c-0.60307,-4.89883 -0.01873,-10.36441 -0.01873,-15.30546c0,-9.33333 0,-18.66667 0,-28c0,-14.12812 -0.41432,-28.32954 0.11995,-42.44887c0.20395,-5.38994 2.205,-9.67698 2.90217,-14.88296c0.42776,-3.19422 -0.02212,-6.44544 -0.02212,-9.66817c0,-6.33333 0,-12.66667 0,-19c0,0 0,-2.5 2.5,-2.5c2.5,0 2.5,2.5 2.5,2.5c0,6.33333 0,12.66667 0,19c0,0.41774 0.00691,10.11502 -0.02212,10.33183c-0.50409,3.76419 -2.04959,6.01698 -2.64027,9.70963c-0.7485,4.67928 -0.32997,9.87853 -0.33391,14.6008c-0.00899,10.78591 -0.0037,21.57183 -0.0037,32.35774c0,9.33333 0,18.66667 0,28c0,4.7357 -0.59693,9.9978 -0.01873,14.69454c0.40446,3.28544 1.92003,6.3595 2.41588,9.6324c0.49507,3.26776 -0.06351,6.65132 0.54288,9.90026c0.67584,3.621 2.45743,5.68684 3.02935,9.38277c0.03781,0.24432 0.04243,10.49197 0.00411,10.75306c-0.05877,0.40045 -3.03972,10.21448 -3.17888,10.45996c-0.78522,1.38512 -2.61785,2.0123 -3.30509,3.44855c-0.59101,1.23513 -0.20345,2.73093 -0.30517,4.09639c-0.46698,19.53219 -0.18435,39.09408 -0.18435,58.63206v5c0,0 0,2.5 -2.5,2.5z" fill="#ab1d1d" stroke="none" stroke-width="0.5" stroke-linecap="butt"/><path d="M371.86093,313.5c-2.5,0 -2.5,-2.5 -2.5,-2.5l1.11325,-4.08013c0.73922,-0.38763 1.76927,-0.45887 2.21767,-1.16289c0.37744,-0.59261 -0.20542,-1.40402 -0.13737,-2.10332c0.48689,-5.0034 0.80646,-9.59041 0.80646,-14.65367c0,-9.97422 0.64894,-20.29395 -1.11045,-30.15818c-1.16819,-6.54961 -4.05809,-12.93445 -4.87082,-19.53637c-0.03752,-0.30476 -0.0104,-9.48064 -0.00919,-10.08724c-0.74698,-4.16817 -0.88278,-9.18486 -2.29665,-13.15159c-1.62567,-4.56094 -6.37381,-8.53836 -7.60006,-13.15626c-0.10711,-0.40335 0.25394,-10.83393 0.39048,-11.31754c1.78545,-6.32407 7.63373,-11.43812 9.85601,-17.60203c1.05841,-2.9357 1.37052,-6.10725 1.65078,-9.21531c0.2815,-3.12192 0.40061,-6.29264 0.01769,-9.40375c-0.54371,-4.41749 -3.35838,-8.58055 -4,-13c-0.62972,-4.3375 0.07331,-6.03849 0.94709,-10.03313c1.7846,-7.91263 1.02512,-16.24146 1.02512,-24.33861c0,-12.10021 -0.10671,-23.77976 -1.48577,-35.80202c-0.56869,-4.95764 -1.22437,-10.06104 -1.26385,-15.05827c-0.00927,-1.1732 1.04888,-2.62764 0.27448,-3.509c-0.7744,-0.88136 -2.34343,-0.11951 -3.51515,-0.17926c0,0 -2.45145,-0.49029 -1.96116,-2.94174c0.49029,-2.45145 2.94174,-1.96116 2.94174,-1.96116c2.09689,0.59397 4.85215,0.1447 6.29066,1.7819c1.43851,1.6372 0.71212,4.30213 0.95774,6.46764c0.55893,4.92789 0.67622,9.89512 1.24293,14.82976c1.40221,12.20985 1.51839,24.08519 1.51839,36.37215c0,8.501 0.6802,17.10234 -1.14418,25.42326c-0.70629,3.12248 -1.40181,4.89898 -0.88361,8.205c0.6922,4.41603 3.4335,8.55522 4,13c0.02446,0.1919 0.04326,10.31269 0.01769,10.59625c-0.02738,0.30367 -1.86291,10.2845 -1.92693,10.46209c-1.63336,4.53042 -5.1272,9.26252 -7.52406,13.45237c-0.73051,1.27698 -1.82397,2.39655 -2.22369,3.81238c-0.39972,1.41582 -0.03531,2.94259 -0.09838,4.41241c-0.06094,1.42012 -0.64363,2.88309 -0.27358,4.25551c0.37553,1.39272 1.64524,2.37199 2.39316,3.6054c0.20994,0.34622 5.02205,8.98314 5.08624,9.16324c1.54774,4.34229 1.77302,9.83294 2.5678,14.39387c0.00604,3.30425 -0.41291,6.63326 -0.00919,9.91276c0.80005,6.49888 3.67946,12.81531 4.8306,19.26933c1.81312,10.16549 1.18813,20.75724 1.18813,31.03612c0,5.23903 -0.07932,10.02889 -0.83753,15.21027c-0.19609,1.34 0.22222,2.88297 -0.49338,4.03274c-0.83279,1.33805 -2.52156,1.89141 -3.78233,2.83711l1.11325,-0.08013c0,0 0,2.5 -2.5,2.5z" fill="#791515" stroke="none" stroke-width="0.5" stroke-linecap="butt"/><path d="M490.86093,318.5c-2.5,0 -2.5,-2.5 -2.5,-2.5v-4c0.01076,-1.53318 0.22596,-3.07861 0.03228,-4.59954c-0.13315,-1.04565 -0.85438,-1.95602 -1,-3c-0.43333,-3.10658 -0.04227,-6.27328 -0.03226,-9.40993c0.01477,-4.63277 -0.39314,-9.60262 0.64623,-14.15327c0.73272,-3.20802 2.6897,-6.05609 3.39166,-9.27098c0.83412,-3.82017 -0.03791,-8.95492 -0.03822,-12.85752c-0.00051,-6.46687 0.61019,-13.31486 -0.04508,-19.74665c-0.62852,-6.16934 -2.80849,-12.00738 -3.10883,-18.24635c-0.22397,-5.23362 -2.01877,-9.23905 -2.87545,-14.33011c-0.82256,-4.8883 -0.15692,-10.0177 -0.92473,-14.91032c-0.6593,-4.2012 -3.26975,-8.13583 -4.08535,-12.31983c-0.95564,-4.90244 -0.34389,-10.16752 -0.99705,-15.11989c-0.65559,-4.97081 -2.34065,-9.81119 -2.95104,-14.78926c-1.10123,-8.98121 -0.00284,-18.83446 0.25604,-27.87265c0.3572,-1.85098 0.39857,-3.79206 1.0716,-5.55295c0.09866,-0.25813 5.17523,-8.45951 5.46301,-8.91876c0.98512,-1.57209 1.67422,-3.38329 2.98129,-4.69992c1.30707,-1.31663 3.1125,-2.02001 4.67807,-3.01546c2.68683,-1.70838 5.21,-3.67581 7.63988,-5.73331c1.01295,-0.85771 2.57362,-1.26662 3.11736,-2.47744c0.54374,-1.21082 -0.18697,-2.64895 -0.2194,-3.97586c-0.04073,-1.66617 -0.00351,-3.33334 0,-5c0.01678,-7.97489 -2.89924,-15.66619 -4.88184,-23.37027c-0.74437,-2.89252 -0.76981,-7.7551 -4.61816,-7.12973c0,0 -2.5,0 -2.5,-2.5c0,-2.5 2.5,-2.5 2.5,-2.5c1.39321,0.0986 3.03534,-0.50502 4.17964,0.29581c4.70239,3.29095 5.23461,10.41103 6.53976,15.40811c1.21517,4.6526 3.1694,9.70753 3.76023,14.4776c0.01929,0.15574 0.02738,9.96603 0.02037,10.31848c-0.03998,2.00898 0.60375,4.19111 -0.2194,6.02414c-0.82315,1.83304 -2.88023,2.80329 -4.35674,4.1662c-2.54232,2.34672 -5.3615,4.40663 -8.30183,6.23007c-1.25639,0.77915 -2.74799,1.25511 -3.78954,2.30428c-1.04155,1.04917 -1.50794,2.5434 -2.2766,3.80623c-2.68053,4.40384 -4.90569,7.26893 -5.81566,12.37088c-0.22211,8.69585 -1.33759,18.22114 -0.2524,26.85185c0.61861,4.91993 2.2838,9.71001 2.93245,14.62816c0.6383,4.83968 0.01475,10.03144 0.94761,14.81702c0.81825,4.19766 3.39983,8.09789 4.08651,12.32584c0.80102,4.93191 0.1184,10.10936 0.94662,15.03126c0.88361,5.25108 2.67282,9.50363 2.93946,14.92932c0.26951,6.13676 2.46925,11.89276 3.0884,17.97006c0.67264,6.60238 0.0703,13.61536 0.07082,20.25303c0.00033,4.23174 0.83608,9.56885 -0.0376,13.72538c-0.69446,3.30385 -2.67978,6.23629 -3.4432,9.52488c-0.96613,4.16179 -0.5054,8.81089 -0.5189,13.05086c-0.00912,2.86336 -0.44769,5.75699 -0.03226,8.59007c0.15293,1.04294 0.87144,1.95378 1,3c0.21956,1.78674 0.02152,3.6003 0.03228,5.40046v4c0,0 0,2.5 -2.5,2.5z" fill="#ab1d1d" stroke="none" stroke-width="0.5" stroke-linecap="butt"/><path d="M215.73497,306.49682c-2.49682,-0.12596 -2.37086,-2.62279 -2.37086,-2.62279l0.09982,-1.79121c0.25765,-1.78355 0.24423,-3.6279 0.77296,-5.35065c0.47256,-1.53973 1.81026,-2.74158 2.19093,-4.30655c0.89143,-3.66475 -0.06688,-9.6616 -0.06688,-13.42562c0,-6.82068 -0.44092,-13.92007 0.60398,-20.68045c0.50526,-3.26895 1.99309,-6.34423 2.41475,-9.62501c0.2375,-1.84786 -0.42006,-3.81232 0.1461,-5.58728c0.42344,-1.32752 1.75294,-2.16711 2.6637,-3.22169c1.10031,-1.27406 5.23222,-5.81658 6.44019,-7.14876c1.23699,-2.76696 3.14631,-5.30387 3.78794,-8.26606c0.66833,-3.08542 -0.05666,-6.31378 -0.05666,-9.47075c0,-6.33333 0,-12.66667 0,-19c0,-13 0,-26 0,-39c0,-7.74875 0.4692,-15.64718 -0.38133,-23.35184c-0.90563,-8.28398 -1.81126,-16.56795 -2.7169,-24.85193c-0.34699,-3.17402 -0.12856,-6.45572 -1.00544,-9.52589c-1.69391,-5.9308 -5.82879,-12.0607 -8.50455,-17.63521c-5.04853,-10.51777 -10.09706,-21.03554 -15.14559,-31.55331c0,0 -1.08183,-2.25381 1.17198,-3.33564c2.25381,-1.08183 3.33564,1.17198 3.33564,1.17198c5.04853,10.51777 10.09706,21.03554 15.14559,31.55331c2.80138,5.83621 7.02986,12.2116 8.80469,18.42571c0.07617,0.26671 1.11132,9.83645 1.16808,10.35566c0.90563,8.28398 1.81126,16.56795 2.7169,24.85193c0.85516,7.89391 0.41094,15.958 0.41094,23.89522c0,13 0,26 0,39c0,6.33333 0,12.66667 0,19c0,0.6443 0.01708,10.18881 -0.05666,10.52925c-0.11144,0.51449 -4.23684,9.39622 -4.48812,9.94127c-0.76368,0.86204 -6.00344,6.7912 -6.90186,7.75056c-0.5462,0.58325 -1.51829,0.89799 -1.71819,1.67166c-0.36817,1.42492 0.31765,2.95104 0.1461,4.41272c-0.23807,2.02851 -2.10464,7.63423 -2.43596,9.77784c-1.00509,6.50275 -0.54531,13.35518 -0.54531,19.9167c0,4.24563 0.87797,10.46512 -0.06688,14.57438c-0.38605,1.67899 -1.76662,2.99357 -2.28121,4.63772c-0.4574,1.46144 -0.39733,3.0368 -0.596,4.5552l-0.05909,1.35866c0,0 -0.12596,2.49682 -2.62279,2.37086z" fill="#250606" stroke="none" stroke-width="0.5" stroke-linecap="butt"/><path d="M301.07037,317.37171c-2.37171,-0.79057 -1.58114,-3.16228 -1.58114,-3.16228l1,-3c1.74667,-5.2073 5.33185,-9.75147 6.97407,-14.91749c1.66479,-5.23702 0.89764,-11.87143 0.89764,-17.29194c0,-5 -0.00013,-10 0,-15c0.00001,-0.28855 0.03916,-8.24111 -0.09458,-9.02336c-0.55795,-3.26342 -2.21279,-6.26457 -2.8617,-9.51112c-0.61041,-3.05397 -0.53077,-6.2061 -0.78941,-9.30971c-0.95426,-11.45117 -1.87301,-22.94738 -0.99973,-34.44826c0.37675,-4.96171 1.45855,-9.88729 1.74969,-14.85384c1.04408,-17.8105 -0.00428,-36.00789 -0.00428,-53.8537c0.03849,-6.43949 1.91859,-12.79705 4.15529,-18.86737c1.013,-2.74924 2.96554,-5.0926 3.95045,-7.85202c0.29783,-0.83442 0.01845,-1.80502 0.31794,-2.63885c0.11782,-0.32802 4.33608,-8.8255 4.60472,-9.35194c0.65124,-1.27619 1.75104,-2.39298 2.00189,-3.8036c0.25085,-1.41062 -0.39649,-2.83811 -0.56783,-4.26057c-0.3756,-3.11821 0.0964,-6.41493 -0.9579,-9.37344c-1.0543,-2.95851 -3.47613,-5.23215 -5.18586,-7.86676c-1.69549,-2.61268 -2.69046,-5.80981 -5.01262,-7.88546c-1.07966,-0.96505 -2.61607,-1.24262 -3.92411,-1.86393c0,0 -2.23607,-1.11803 -1.11803,-3.3541c1.11803,-2.23607 3.3541,-1.11803 3.3541,-1.11803c1.67339,0.8694 3.6142,1.35149 5.02017,2.60821c0.32254,0.2883 5.4488,8.23513 5.87473,8.89148c0.3799,0.58542 5.57377,8.55177 5.7015,8.91018c0.11748,0.32965 1.15159,9.83984 1.21834,10.5078c0.18906,1.89185 0.85317,3.80814 0.52029,5.68005c-0.84277,4.73917 -5.13164,9.18437 -6.73896,13.71258c-0.29709,0.83698 -0.01818,1.80982 -0.31983,2.64516c-1.03012,2.85264 -3.00787,5.29954 -4.04955,8.14798c-2.00315,5.47756 -3.88547,11.32505 -3.84471,17.13263c0,17.9442 1.04558,36.23711 -0.00428,54.1463c-0.29293,4.997 -1.37475,9.94956 -1.75554,14.94068c-0.85714,11.23479 0.06476,22.46822 0.99687,33.65359c0.24424,2.93093 0.13927,5.91057 0.71923,8.79391c0.55907,2.77946 2.42326,6.90584 2.88526,9.6454c1.32498,7.85684 0.15847,16.8586 0.15847,24.82011c0,5.92801 0.69793,12.97137 -1.10236,18.70806c-1.64809,5.25171 -5.28108,9.81097 -7.02593,15.08251l-1,3c0,0 -0.79057,2.37171 -3.16228,1.58114z" fill="#13380a" stroke="none" stroke-width="0.5" stroke-linecap="butt"/><path d="M427.90368,301.44125c-1.44125,2.04275 -3.48399,0.6015 -3.48399,0.6015l-3.3568,-2.48582c-1.46763,-3.31039 -3.43588,-6.41411 -4.58761,-9.84721c-1.86407,-5.55647 -1.11435,-11.94474 -1.11435,-17.70972c0,-12.33333 0,-24.66667 0,-37c0,-7.57628 -0.05619,-15.15498 0.03116,-22.73077c0.0189,-1.63905 0.02252,-9.16779 0.39896,-10.60155c1.19925,-4.56763 4.77012,-9.65831 6.88955,-13.89717c4.31496,-8.62992 8.54273,-17.22087 13.45106,-25.52929c2.24432,-3.79901 5.98334,-8.29578 7.41859,-12.45807c1.03225,-2.99358 0.77396,-6.28571 1.18604,-9.42534c0.66488,-5.06571 1.84542,-9.84998 2.72674,-14.81991c2.14936,-12.12061 0.5659,-24.52386 -1.26344,-36.51113c-0.48018,-3.14651 -0.35965,-6.43749 -1.39992,-9.44563c-1.04027,-3.00814 -3.16808,-5.52161 -4.73427,-8.29255c-2.46029,-4.35281 -4.92057,-8.70563 -7.38086,-13.05844c0,0 -1.23014,-2.17641 0.94626,-3.40655c2.17641,-1.23014 3.40655,0.94626 3.40655,0.94626c2.46029,4.35281 4.92057,8.70563 7.38086,13.05844c0.27391,0.48461 5.00979,8.83795 5.10688,9.1187c0.09709,0.28075 1.5333,9.77517 1.61728,10.32547c1.9143,12.54398 3.45621,25.45305 1.24514,38.13121c-0.85602,4.90838 -2.03743,9.60443 -2.69373,14.60481c-0.07967,0.60702 -1.30927,10.0932 -1.41665,10.40459c-1.54518,4.48112 -5.42156,9.27666 -7.84056,13.37134c-4.84883,8.2077 -9.02101,16.69652 -13.28383,25.22216c-1.96617,3.93235 -5.40344,8.69547 -6.52686,12.93565c-0.18266,0.68944 -0.22939,8.97066 -0.23411,9.38435c-0.08621,7.5567 -0.03083,15.11625 -0.03083,22.67343c0,12.33333 0,24.66667 0,37c0,5.07081 -0.84877,11.21642 0.84681,16.09609c0.99871,2.87415 2.62293,5.49614 3.7481,8.32318l2.34633,1.53799c0,0 2.04275,1.44125 0.6015,3.48399z" fill="#39ab1d" stroke="none" stroke-width="0.5" stroke-linecap="butt"/><path d="M190.51585,310.10731c-2.10731,-1.34508 -0.76222,-3.45239 -0.76222,-3.45239l1.82704,-2.78279c1.45261,-7.63697 3.98665,-15.3534 4.78878,-23.07833c0.27367,-2.63554 -0.13022,-5.30245 -0.00369,-7.94914c0.35335,-7.39114 2.4779,-14.65491 3.00146,-22.02188c0.56158,-7.90201 -0.00622,-16.06141 -0.0058,-23.98885c0.00356,-8.50584 -0.42023,-16.97167 1.14541,-25.36179c0.3378,-1.81022 0.36128,-3.71439 1.04285,-5.42508c0.12427,-0.3119 5.42036,-7.98222 5.58586,-8.22296c3.35226,-4.87602 6.47944,-10.33537 10.26956,-14.88933c1.04359,-1.25391 2.43197,-2.19296 3.46906,-3.45225c2.50636,-3.04335 4.08868,-7.40621 5.67789,-10.95702c0.62152,-1.38869 1.5195,-2.68022 1.88383,-4.15738c1.28866,-5.22482 0.9276,-11.98058 0.92505,-17.36811c0,-13 0,-26 0,-39c0,-7.4299 0.82253,-15.37076 0.01317,-22.74371c-0.86738,-7.90149 -3.33826,-15.95908 -4.96062,-23.74641c0,0 -0.50989,-2.44745 1.93757,-2.95734c2.44745,-0.50989 2.95734,1.93757 2.95734,1.93757c1.65751,7.95604 4.15912,16.17837 5.03938,24.25359c0.64687,5.93422 0.01317,12.28256 0.01317,18.25629c0,14.66667 0,29.33333 0,44c-0.00259,5.77822 0.31258,12.95769 -1.07052,18.56544c-0.43391,1.75928 -1.4385,3.3263 -2.16694,4.98544c-1.72433,3.92743 -3.54409,8.5915 -6.27577,11.9666c-1.07075,1.32295 -2.51116,2.31239 -3.60201,3.61882c-3.69672,4.42732 -6.72715,9.77456 -9.98994,14.52044c-1.67929,2.44261 -3.99489,4.53919 -5.08356,7.2962c-0.548,1.3878 -0.48692,2.94421 -0.74601,4.41362c-1.43039,8.11229 -1.06132,16.24884 -1.06476,24.46855c-0.00043,8.0462 0.56326,16.32108 -0.00678,24.34211c-0.52247,7.35176 -2.65459,14.60469 -2.99854,21.97812c-0.12505,2.6807 0.27246,5.38148 -0.00369,8.05086c-0.84754,8.19285 -3.45466,16.4683 -5.13354,24.53329l-2.25063,3.6056c0,0 -1.34508,2.10731 -3.45239,0.76222z" fill="#256f13" stroke="none" stroke-width="0.5" stroke-linecap="butt"/><path d="M515.86093,307.5c-2.5,0 -2.5,-2.5 -2.5,-2.5c0,-7.66667 0,-16.33333 0,-24c0,-0.14732 -0.08007,-8.22594 0.1903,-8.95671c0.34606,-0.93535 1.68299,-1.23999 2.0721,-2.15826c0.47332,-1.117 0.2261,-2.41611 0.37636,-3.61991c0.40597,-3.25251 1.13231,-6.46827 1.36944,-9.73743c0.38289,-5.27875 0.04082,-9.96055 1.07919,-15.21217c0.07801,-0.39004 1.96045,-9.82395 2.02512,-10.05705c1.38635,-4.99676 4.25381,-9.26431 4.90623,-14.56393c0.86019,-6.98742 -0.01873,-14.65851 -0.01873,-21.69454c0,-16.33333 0,-32.66667 0,-49c0,-29.66667 0,-59.33333 0,-89c0,0 0,-2.5 2.5,-2.5c2.5,0 2.5,2.5 2.5,2.5c0,29.66667 0,59.33333 0,89c0,16.33333 0,32.66667 0,49c0,7.23984 0.86664,15.11349 -0.01873,22.30546c-0.69409,5.63815 -3.64621,10.12662 -5.09377,15.43607c-0.85409,3.13269 -1.26041,6.37059 -1.8972,9.55457c-1.02156,5.04454 -0.62608,9.50455 -0.99519,14.59331c-0.31474,4.3392 -0.65025,11.1807 -2.2575,15.22556c-0.32819,0.82593 -1.56504,1.03044 -1.9279,1.84174c-0.27928,0.62443 0.17183,1.3595 0.1903,2.04329c0.04501,1.66606 0,3.33333 0,5c0,7.66667 0,15.33333 0,23v1c0,0 0,2.5 -2.5,2.5z" fill="#39ab1d" stroke="none" stroke-width="0.5" stroke-linecap="butt"/><path d="M263.97022,314.49761c-2.49761,0.10929 -2.6069,-2.38832 -2.6069,-2.38832l-0.16677,-3.9167c-0.18618,-1.34955 0.05532,-2.83245 -0.55854,-4.04864c-0.64917,-1.28616 -2.43277,-1.76734 -3.0371,-3.07517c-0.67706,-1.46521 -0.24592,-3.23056 -0.60396,-4.80442c-0.61642,-2.70963 -1.32636,-5.461 -2.65092,-7.90387c-1.59761,-2.94646 -4.2168,-5.27188 -5.73089,-8.26212c-0.34767,-0.68663 0.16908,-1.81069 -0.45284,-2.26407c-1.06814,-0.77869 -2.86508,-0.02046 -3.86569,-0.8842c-1.35402,-1.1688 -1.6805,-3.1598 -2.59796,-4.69529c-1.94369,-3.25302 -3.22714,-6.89258 -5.05217,-10.09455c-2.76403,-4.84942 -7.62946,-8.25345 -10.81366,-12.69849c-1.8221,-2.5436 -3.08927,-5.46264 -4.97189,-7.96178c-1.48922,-1.98699 -3.85127,-4.92849 -5.08047,-7.24431c-1.52876,-2.88019 -2.22389,-6.20028 -4.03721,-8.91035c-1.93272,-2.88851 -4.79901,-5.20454 -6.19201,-8.38863c-1.14388,-2.61465 -1.4579,-5.53183 -2.50056,-8.18848c-2.49793,-6.36464 -4.51401,-12.5 -6.57176,-19.00928c-4.47988,-14.17122 -8.81211,-28.33824 -12.90098,-42.64929c-1.36734,-4.78571 -2.64003,-9.61429 -4.10533,-14.3708c-0.2695,-0.87483 -2.96912,-8.80567 -3.06355,-9.25069c-1.64873,-7.7701 -1.04812,-16.59151 -1.04812,-24.48817c0,-13.33333 0,-26.66667 0,-40c0,0 0,-2.5 2.5,-2.5c2.5,0 2.5,2.5 2.5,2.5c0,13.33333 0,26.66667 0,40c0,7.55592 -0.63918,16.08239 0.95188,23.51183c0.6442,3.0081 2.03068,5.80936 2.93645,8.74931c1.47608,4.79106 2.75901,9.6544 4.1363,14.47492c5.88853,20.60984 11.53269,41.27839 19.32414,61.21736c1.02588,2.62531 1.36213,5.49424 2.46094,8.08987c1.23047,2.90664 3.99576,4.90072 5.73635,7.53377c0.40755,0.61652 3.79034,8.3868 4.26368,9.28568c1.03235,1.96042 3.52954,5.09072 4.69027,6.63726c1.89137,2.53201 3.19505,5.46369 5.02811,8.03822c3.32451,4.6693 8.26942,8.20784 11.18634,13.30151c0.56082,0.97933 0.65218,2.16564 1.09525,3.20356c1.01166,2.36987 2.62892,4.4342 3.85258,6.70189c0.56824,1.05308 0.46694,2.55808 1.40204,3.30471c1.11546,0.89064 3.04883,0.18885 4.13431,1.1158c1.02499,0.8753 0.90174,2.55263 1.54716,3.73593c1.58676,2.90912 4.11261,5.23925 5.67913,8.15931c0.27554,0.51362 3.09527,9.13355 3.10134,9.16153c0.26225,1.21062 -0.30398,2.59285 0.23376,3.70875c0.60246,1.25019 2.37962,1.66558 2.9629,2.92483c0.82878,1.78929 0.72364,3.87687 1.08545,5.8153l0.18924,4.21937c0,0 0.10929,2.49761 -2.38832,2.6069z" fill="#1d72ab" stroke="none" stroke-width="0.5" stroke-linecap="butt"/><path d="M413.36093,55c0,1.05056 -0.44147,1.65965 -0.95338,2.01279c0.15336,3.74767 0.5947,7.93953 -0.08673,11.43327c-0.08689,0.44548 -3.03055,8.1451 -3.03247,8.15199c-0.72881,2.61221 -0.29763,5.45757 -1.01885,8.07188c-3.473,12.58914 -13.29918,22.83812 -18.54496,34.60661c-3.10397,6.96352 -5.7905,14.32047 -8.48099,21.4805c-1.05753,4.02604 -2.16912,8.82159 -4.21065,12.48092c-6.92619,12.41477 -21.43184,13.32499 -33.23655,18.08044c-4.14618,1.67026 -8.19553,3.56356 -12.06702,5.78794c-3.06939,1.76353 -5.86832,4.10963 -9.20107,5.30295c-0.94953,0.33998 -2.04764,-0.23931 -3.02566,0.00696c-4.23687,1.06687 -8.51479,5.64828 -11.71577,8.41182c-0.85561,0.99982 -2.08545,1.77472 -2.56683,2.99945c-0.38722,0.98517 0.1204,2.11414 0.14093,3.17248c0.06052,3.12052 -0.26911,7.92136 0.74579,10.90162c0.49723,1.46014 2.27996,2.07972 3.46521,3.06685c2.14991,1.79053 4.39927,3.46118 6.67343,5.091c2.42447,1.73754 4.78501,3.62146 6.78416,5.83517c2.08315,2.30673 3.6984,5.10575 6.16817,6.99275c1.96788,1.50354 4.82218,1.17906 7.14326,2.04265c4.69561,1.74709 8.98509,4.55278 13.62408,6.36851c3.78942,1.48321 8.01607,2.54478 11.86095,3.95022c4.30185,1.29518 9.12688,3.21266 11.42573,7.65576c0.77726,1.50226 0.20986,3.43868 0.85711,5.00136c0.38715,0.9347 1.51219,1.36418 2.11578,2.17612c1.03903,1.39769 1.85952,2.94528 2.78717,4.41925c1.82482,2.8995 4.031,5.58424 5.52002,8.66968c0.68724,1.42405 0.72037,3.11493 1.45578,4.51471c0.40095,0.76317 1.34161,1.10813 1.86014,1.79684c1.66571,2.2124 2.71759,4.82693 4.13986,7.20316c0.72676,1.21421 1.87767,2.22913 2.2661,3.58987c0.1451,0.50832 0.10727,9.37308 0.10727,9.72446c0,5 0,10 0,15c0,0 0,2.5 -2.5,2.5c-2.5,0 -2.5,-2.5 -2.5,-2.5c0,-5 0,-10 0,-15c0,-2.75874 0.86608,-5.62321 0.10727,-8.27554c-0.27222,-0.9515 -1.21001,-1.57049 -1.7339,-2.41013c-1.37922,-2.21052 -2.28622,-4.72045 -3.86014,-6.79684c-0.61843,-0.81587 -1.65618,-1.30085 -2.13986,-2.20316c-0.82787,-1.54437 -0.94625,-3.39336 -1.7065,-4.97213c-1.40594,-2.91964 -3.52981,-5.43581 -5.25035,-8.18184c-0.84514,-1.34886 -1.59174,-2.76424 -2.53097,-4.04935c-0.78765,-1.07771 -2.10191,-1.79244 -2.63343,-3.01692c-0.65379,-1.50617 -0.07717,-3.38194 -0.78688,-4.86258c-1.50077,-3.13101 -5.69776,-4.46765 -8.54552,-5.22751c-3.92284,-1.43107 -8.2738,-2.53501 -12.13905,-4.04978c-4.6134,-1.80796 -8.87652,-4.60132 -13.54422,-6.33802c-2.64064,-0.9825 -5.78993,-0.85286 -8.0732,-2.5036c-4.99465,-3.61099 -8.05542,-9.33325 -13.18501,-12.98446c-3.1812,-2.26436 -6.41453,-4.55373 -9.19663,-7.31234c-0.87841,-0.87099 -2.06849,-1.56867 -2.5274,-2.71742c-1.36338,-3.41286 -1.31057,-9.37857 -1.25421,-13.09838c0.02439,-1.60967 -0.45245,-3.33101 0.14093,-4.82752c0.74403,-1.87646 2.45341,-3.20616 3.68012,-4.80924c4.03142,-3.50968 8.72456,-8.28078 14.03728,-9.77949c0.95421,-0.26918 2.03768,0.33198 2.97434,0.00696c2.95387,-1.02499 5.33426,-3.26496 8.04642,-4.82065c4.07318,-2.33637 8.32534,-4.33191 12.6855,-6.08847c10.38199,-4.18254 24.74383,-4.90438 30.76345,-15.91956c1.84464,-3.37547 2.81905,-7.81487 3.78935,-11.51908c3.33348,-8.90653 6.58104,-18.3293 11.2716,-26.56805c3.2984,-5.7935 6.6085,-11.58042 9.91579,-17.36885c2.08799,-3.6544 4.66355,-7.89939 5.78666,-11.97598c0.70728,-2.56722 0.27619,-5.36026 0.98115,-7.92812c0.74041,-2.69699 2.42044,-5.10527 2.96753,-7.84801c0.75639,-3.79207 -0.04012,-8.69218 -0.04012,-12.55394l3.5,-2.5c0,0 2.5,0 2.5,2.5z" fill="#104161" stroke="none" stroke-width="0.5" stroke-linecap="butt"/><path d="M478.86093,310.5c-2.5,0 -2.5,-2.5 -2.5,-2.5v-1c0,-2.40352 1.01772,-4.97653 0.12829,-7.20943c-0.61675,-1.54835 -2.44121,-2.4298 -3,-4c-0.15424,-0.4334 -0.12881,-6.54653 -0.12829,-7.79057c0.00161,-3.86198 -0.14941,-7.6175 -0.93312,-11.42562c-0.85415,-4.15038 -3.28072,-7.99754 -4.0346,-12.17393c-0.6237,-3.45525 0.7173,-7.99908 -0.34969,-11.37921c-0.50843,-1.61065 -2.15186,-2.72324 -2.59188,-4.35391c-0.84307,-3.12439 -0.15026,-6.47274 -0.3714,-9.70132c-0.21111,-3.23704 -1.16945,-6.382 -1.68994,-9.58389c-0.23572,-1.45004 0.11885,-2.95662 -0.12395,-4.40549c-0.55287,-3.29913 -2.39317,-6.30392 -2.87892,-9.6136c-0.03473,-0.23666 -0.0265,-9.90845 -0.0265,-10.36303c0,-0.40974 -0.00588,-10.08061 0.01873,-10.30546c0.14957,-1.36621 0.82614,-2.63667 1,-4c1.17856,-9.24155 -1.06338,-18.96491 0.33831,-28.22441c1.2193,-8.05468 4.628,-16.35082 6.86923,-24.19124c0.91422,-6.45415 2.19728,-12.96536 2.78002,-19.45611c0.61222,-6.81919 -0.00629,-13.97116 -0.00629,-20.82278c0,-13 0,-26 0,-39c0,0 0,-2.5 2.5,-2.5c2.5,0 2.5,2.5 2.5,2.5c0,13 0,26 0,39c0,6.97437 0.60606,14.23332 -0.00629,21.17722c-0.59246,6.71829 -1.91554,13.46558 -2.87684,20.14187c-2.19415,7.74281 -5.61327,15.95314 -6.81615,23.8994c-1.39321,9.20351 0.81001,18.87875 -0.31945,28.08696c-0.16732,1.36415 -0.84587,2.6343 -1,4c-0.36241,3.21113 0.01873,6.46302 0.01873,9.69454c0,3.21233 -0.49297,6.45868 -0.0265,9.63697c0.48233,3.28632 2.30593,6.2693 2.86803,9.54292c0.25045,1.45861 -0.10832,2.97719 0.12909,4.43798c0.54315,3.3421 1.49807,6.63071 1.73712,10.00822c0.19638,2.89632 -0.59466,5.91493 0.20154,8.70658c0.451,1.5813 2.08154,2.64572 2.55308,4.22102c1.16496,3.89185 -0.20047,8.15117 0.50535,12.04586c0.73283,4.04376 3.12607,7.79181 3.9654,11.82607c0.87214,4.19193 1.06517,8.3213 1.06688,12.57438c0.00083,2.07025 -0.89439,4.28614 -0.12829,6.20943c0.61675,1.54835 2.44121,2.4298 3,4c0.16399,0.4608 0.12829,7.91959 0.12829,8.79057v1c0,0 0,2.5 -2.5,2.5z" fill="#092234" stroke="none" stroke-width="0.5" stroke-linecap="butt"/><path d="M288.35123,310.45145c-2.45145,0.49029 -2.94174,-1.96116 -2.94174,-1.96116l-0.01942,-0.0971c-1.85245,-9.37524 -0.55484,-18.82387 -1.03095,-28.3176c-0.16697,-3.32938 -0.82892,-6.62164 -0.99507,-9.95106c-0.30341,-6.07981 0.24466,-11.7144 -0.97397,-17.73134c-1.54118,-7.79994 -0.76711,-15.57265 -1.20257,-23.48105c-0.73733,-13.3907 -0.82871,-26.7032 -0.83903,-40.11264c-0.00626,-8.14051 0.63619,-16.64198 -0.19818,-24.74516c-0.50513,-4.9057 -1.53577,-9.86997 -2.14988,-14.78287c-2.45523,-19.67006 -1.63947,-39.58507 -1.63951,-59.36859c-0.00002,-9.69357 0.97537,-19.90168 -0.95142,-29.4126c0,0 -0.49029,-2.45145 1.96116,-2.94174c2.45145,-0.49029 2.94174,1.96116 2.94174,1.96116c1.95241,9.87793 1.0485,20.33616 1.04852,30.39317c0.00004,19.57183 -0.83506,39.28951 1.6009,58.74842c0.61838,4.94707 1.65876,9.95283 2.16246,14.89351c0.67657,6.63635 0.21523,13.58524 0.22036,20.25085c0.01153,14.98265 0.01495,29.8804 0.83535,44.84216c0.41931,7.64707 -0.41229,15.24854 1.113,22.77479c1.24177,6.28107 0.74938,12.13362 1.06486,18.46285c0.32029,6.42554 1.00132,12.66579 1.0031,19.12385c0.00172,6.24738 -0.31169,12.27642 0.93203,18.4133l0.01942,0.0971c0,0 0.49029,2.45145 -1.96116,2.94174z" fill="#030a10" stroke="none" stroke-width="0.5" stroke-linecap="butt"/><g stroke-width="0" stroke-linecap="butt"><g><path d="M435.00287,74.05648v-24h58v24z" fill="#3c3c3c" stroke="#484848"/><path d="M318.78845,74.55648v-24h58v24z" fill="#3c3c3c" stroke="#484848"/><path d="M195.28845,74.30648v-24h58v24z" fill="#3c3c3c" stroke="#484848"/></g><g fill="#3c3c3c" stroke="#484848"><path d="M435.00287,311.05648v-24h58v24z"/><path d="M318.78845,311.55648v-24h58v24z"/><path d="M195.28845,311.30648v-24h58v24z"/></g></g><path d="M126.86093,62.30648v-23h452v23z" fill="#818181" stroke="#484848" stroke-width="0" stroke-linecap="butt"/><path d="M118.14566,324.30648v-23h452v23z" fill="#818181" stroke="#484848" stroke-width="0" stroke-linecap="butt"/></g></g></g></svg>