<svg version="1.1" xmlns="http://www.w3.org/2000/svg" xmlns:xlink="http://www.w3.org/1999/xlink" width="199.85701" height="242.34702" viewBox="0,0,199.85701,242.34702"><defs><radialGradient cx="134.33318" cy="284.59711" r="96.82864" gradientUnits="userSpaceOnUse" id="color-1"><stop offset="0" stop-color="#000000"/><stop offset="1" stop-color="#121212"/></radialGradient><radialGradient cx="64.7847" cy="197.97517" r="35.38781" gradientUnits="userSpaceOnUse" id="color-2"><stop offset="0" stop-color="#0e0e0e"/><stop offset="1" stop-color="#1f1f1f"/></radialGradient><radialGradient cx="142.21141" cy="283.63489" r="96.82864" gradientUnits="userSpaceOnUse" id="color-3"><stop offset="0" stop-color="#000000"/><stop offset="1" stop-color="#1f1f1f"/></radialGradient><radialGradient cx="152.05171" cy="372.38525" r="69.24835" gradientUnits="userSpaceOnUse" id="color-4"><stop offset="0" stop-color="#383027"/><stop offset="1" stop-color="#4e4337"/></radialGradient></defs><g transform="translate(-38.98151,-157.14447)"><g data-paper-data="{&quot;isPaintingLayer&quot;:true}" fill-rule="nonzero" stroke-linejoin="miter" stroke-miterlimit="10" stroke-dasharray="" stroke-dashoffset="0" style="mix-blend-mode: normal"><path d="M61.18445,391.07953c0,0 -19.19,-157.1178 -22.11923,-181.10079c-0.72611,-5.945 3.35282,-11.70351 9.07951,-12.40295c17.82693,-2.17734 113.48758,-13.86111 148.11071,-18.08989c7.9807,-0.97474 11.93281,4.41193 12.68185,10.54465c2.96638,24.28723 22.023,180.31297 22.023,180.31297z" fill="url(#color-1)" stroke="#c7c7c7" stroke-width="0" stroke-linecap="butt"/><path d="M59.29454,228.63676c0,0 -6.07196,-49.71411 -7.86224,-64.37199c-0.92869,-7.6036 16.75956,-10.07788 17.66828,-2.63771c1.78271,14.59592 7.91998,64.84468 7.91998,64.84468z" fill="url(#color-2)" stroke="#c7c7c7" stroke-width="0" stroke-linecap="butt"/><path d="M69.06268,390.1173c0,0 -19.19,-157.11781 -22.11923,-181.10079c-0.72611,-5.945 3.35282,-11.70351 9.07951,-12.40295c17.82693,-2.17734 113.48758,-13.86111 148.11071,-18.08989c7.9807,-0.97474 11.93281,4.41193 12.68185,10.54465c2.96638,24.28723 22.023,180.31297 22.023,180.31297z" fill="url(#color-3)" stroke="#c7c7c7" stroke-width="0" stroke-linecap="butt"/><path d="M81.88133,347.77332l-16.40599,-134.32381l134.32381,-16.40599l16.40599,134.32381z" fill="#000000" stroke="#000000" stroke-width="0" stroke-linecap="butt"/><path d="M85.59945,399.49149l-4.57059,-37.42159c0,0 45.05606,-9.50092 67.66557,-12.26239c23.20028,-2.83363 69.80953,-4.5285 69.80953,-4.5285l4.57059,37.42159z" fill="url(#color-4)" stroke="#c7c7c7" stroke-width="0" stroke-linecap="butt"/><text transform="translate(108.07771,230.45525) rotate(-7.73129) scale(0.48031,0.48031)" font-size="40" xml:space="preserve" fill="#dcdcdc" fill-rule="nonzero" stroke="none" stroke-width="1" stroke-linecap="butt" stroke-linejoin="miter" stroke-miterlimit="10" stroke-dasharray="" stroke-dashoffset="0" font-family="&quot;Century Gothic&quot;, Sans Serif" font-weight="normal" text-anchor="start" style="mix-blend-mode: normal"><tspan x="0" dy="0">HAND</tspan></text><text transform="translate(132.27743,338.59457) rotate(-7.42296) scale(0.52499,0.52499)" font-size="40" xml:space="preserve" fill="#dcdcdc" fill-rule="nonzero" stroke="none" stroke-width="1" stroke-linecap="butt" stroke-linejoin="miter" stroke-miterlimit="10" stroke-dasharray="" stroke-dashoffset="0" font-family="&quot;Century Gothic&quot;, Sans Serif" font-weight="normal" text-anchor="start" style="mix-blend-mode: normal"><tspan x="0" dy="0">□■□</tspan></text><text transform="translate(172.51439,216.33192) rotate(-7.73145) scale(0.19055,0.19055)" font-size="40" xml:space="preserve" fill="#5f5f5f" fill-rule="nonzero" stroke="none" stroke-width="1" stroke-linecap="butt" stroke-linejoin="miter" stroke-miterlimit="10" stroke-dasharray="" stroke-dashoffset="0" font-family="&quot;Century Gothic&quot;, Sans Serif" font-weight="normal" text-anchor="start" style="mix-blend-mode: normal"><tspan x="0" dy="0">SCAN</tspan></text><text transform="translate(76.10523,230.05852) rotate(-7.73145) scale(0.19055,0.19055)" font-size="40" xml:space="preserve" fill="#5f5f5f" fill-rule="nonzero" stroke="none" stroke-width="1" stroke-linecap="butt" stroke-linejoin="miter" stroke-miterlimit="10" stroke-dasharray="" stroke-dashoffset="0" font-family="&quot;Century Gothic&quot;, Sans Serif" font-weight="normal" text-anchor="start" style="mix-blend-mode: normal"><tspan x="0" dy="0">FLASH</tspan></text><path d="M129.86386,283.60001v-22.38319h21.95275v22.3832z" fill="#000000" stroke="#dcdcdc" stroke-width="0" stroke-linecap="butt"/><g stroke-width="1"><text transform="translate(100.93709,252.03987) rotate(-7.73094) scale(0.2371,0.2371)" font-size="40" xml:space="preserve" fill="#dcdcdc" fill-rule="nonzero" stroke="none" stroke-width="1" stroke-linecap="butt" stroke-linejoin="miter" stroke-miterlimit="10" stroke-dasharray="" stroke-dashoffset="0" font-family="&quot;VCR OSD Mono&quot;, Pixel" font-weight="normal" text-anchor="start" style="mix-blend-mode: normal"><tspan x="0" dy="0">[ Noise Maker ]</tspan></text><g fill="none" stroke="#dcdcdc"><g><path d="M143.92698,260.44432c2.63666,-0.44725 8.03699,-1.23436 8.03699,-1.23436l1.12055,2.56129l-17.39395,2.9197l0.38257,-2.78545c0,0 5.19375,-1.00995 7.85384,-1.46117z" data-paper-data="{&quot;index&quot;:null}" stroke-linecap="butt"/><path d="M139.87661,260.91069c-0.08269,-0.48748 -0.2538,-2.41878 -2.47961,-3.49848c-2.85283,-1.38386 -7.90267,-1.90437 -7.90267,-1.90437" stroke-linecap="round"/><path d="M147.61252,259.87668c-0.09899,-0.58359 -0.51771,-2.48159 1.07738,-4.22292c1.57384,-1.71812 5.16112,-3.28371 5.16112,-3.28371" stroke-linecap="round"/></g><path d="M141.18124,310.45791c0,0 -7.93078,-35.99077 -8.93251,-41.89619c-0.26459,-1.55983 1.23948,-3.45596 1.23948,-3.45596l22.28171,-3.77962c0,0 1.72336,1.78837 2.04924,3.70953c1.08599,6.40217 5.64379,41.64262 5.64379,41.64262c0,0 -7.34172,2.46251 -11.03876,3.08963c-3.72991,0.6327 -11.24295,0.68998 -11.24295,0.68998z" stroke-linecap="butt"/><path d="M138.32238,288.22286c-0.94211,-5.55396 2.79654,-10.82008 8.3505,-11.76219c5.55396,-0.94211 10.82008,2.79653 11.76219,8.3505c0.94211,5.55396 -2.79653,10.82008 -8.3505,11.76219c-5.55396,0.94211 -10.82008,-2.79654 -11.76219,-8.3505z" stroke-linecap="butt"/></g></g><path d="M129.51323,255.17259c0,0 0.81607,-1.30616 5.01946,-1.84945c1.59107,-0.20565 10.56472,-2.1262 14.14472,-2.35602c5.30131,-0.34032 5.33582,1.0388 5.33582,1.0388" fill="none" stroke="#dcdcdc" stroke-width="1" stroke-linecap="round"/></g></g></svg>