<svg version="1.1" xmlns="http://www.w3.org/2000/svg" xmlns:xlink="http://www.w3.org/1999/xlink" width="76.33333" height="101" viewBox="0,0,76.33333,101"><g transform="translate(-321.83333,-129.5)"><g stroke-miterlimit="10"><path d="M321.83333,230.5v-101h76.33333v101z" fill="#273042" stroke="none" stroke-width="0"/><path d="M329.75469,196.83333v-61.66667h60.49068v61.66667z" fill="#0b0e13" stroke="none" stroke-width="0"/><path d="M343.08342,227.33333v-17.33333h33.83333v17.33333z" fill="#0b0e13" stroke="#000000" stroke-width="0"/><path d="M342.9999,209.125v-11.25h34.25v11.25z" fill="#273042" stroke="#000000" stroke-width="0"/><text transform="translate(342.07586,207.0298) scale(0.29415,0.29415)" font-size="40" xml:space="preserve" fill="#000000" stroke="none" stroke-width="1" font-family="&quot;GovtAgentBB&quot;, Serif" font-weight="normal" text-anchor="start"><tspan x="0" dy="0">Turnip</tspan></text><text transform="translate(348.24454,223.17375) scale(0.37559,0.37559)" font-size="40" xml:space="preserve" fill="#43c749" stroke="none" stroke-width="1" font-family="&quot;Agency FB&quot;, Sans Serif" font-weight="normal" text-anchor="start"><tspan x="0" dy="0">EASY</tspan></text><g stroke="none" stroke-width="0.5"><path d="M366.14572,156.62896c4.49172,-1.82261 11.87928,-0.11929 14.36523,4.34197c2.08817,3.74739 0.76557,8.3024 -1.02961,11.80581c-2.40808,2.02998 -4.61769,3.10224 -7.64581,1.06666c-1.36422,-0.91707 -1.84169,-2.71416 -3.0772,-3.26771c3.37797,3.70735 1.87301,11.87973 -1.41793,15.2554c-4.09648,4.20195 -11.31866,3.7477 -16.71302,3.69493c-3.50207,-1.13609 -7.79999,-1.76657 -10.21873,-4.93361c-3.12182,-4.08765 -1.8306,-12.27489 1.99814,-15.6763c1.76668,-1.56949 4.35579,-2.46293 6.98558,-2.88585c-0.07221,-0.24881 -0.08477,-0.4881 -0.07949,-0.66411c-1.54263,-4.63858 -2.17382,-9.72793 -2.84807,-14.51292c-0.27866,-1.97756 -0.6687,-4.93033 0.67838,-6.65459c3.01854,-3.86372 8.39594,-2.33788 9.7739,1.97898c0.7515,2.35431 -0.11911,4.74819 -0.90664,6.93258c-1.07588,3.95573 -1.9382,7.94542 -3.01612,11.89856l-0.0087,0.04475c0.082,0.22459 0.16677,0.44784 0.25448,0.66961c0.67452,-0.00184 1.32332,0.02364 1.93062,0.07228c0,0 0.29794,0.02482 0.63989,0.17606c0.71874,0.01515 1.49693,0.07307 2.3068,0.17469c1.28372,-4.23183 3.71098,-7.76536 8.02828,-9.51718z" fill="#e6e6e6"/><path d="M342.24923,176.77593c0,-0.98663 0.79982,-1.78646 1.78646,-1.78646c0.07884,0 0.1565,0.00511 0.23265,0.01501c0.18961,-0.71038 0.44052,-1.35338 0.73981,-1.88142c0.53764,-0.94854 1.09506,-2.06652 2.08737,-2.51832c2.62225,-1.19393 4.71061,0.22484 5.87117,2.46676c0.13684,0.26435 0.20186,0.5504 0.23211,0.84696c0.2211,0.36574 0.40779,0.76933 0.55307,1.20661c1.25411,3.77478 -1.0336,10.90092 -6.06313,9.65667c-2.63214,-0.65116 -3.71939,-3.40727 -3.81466,-6.22658c-0.9109,-0.08168 -1.62483,-0.84709 -1.62483,-1.77924z" fill="#191919"/><path d="M365.18732,174.98947c0.98663,0 1.78646,0.79982 1.78646,1.78646c0,0.96464 -0.76457,1.75071 -1.72078,1.78527c-0.18793,3.06198 -1.50606,5.97323 -4.20713,6.52236c-4.9092,0.99804 -6.47802,-4.52205 -6.36159,-8.09035c0.04244,-1.30062 0.17937,-3.56436 1.09163,-4.60376c0.13949,-0.15893 0.28553,-0.30875 0.4373,-0.44874c0.23306,-0.55015 0.48725,-1.0788 0.97845,-1.36622c1.8588,-1.08763 4.40825,-0.43429 5.90506,0.87318c0.8828,0.77113 1.51729,2.06362 1.8667,3.55572c0.07335,-0.00917 0.14808,-0.0139 0.22392,-0.0139z" fill="#191919"/><path d="M365.16658,164.60575c-0.06903,0.01436 -0.14524,0.02228 -0.22937,0.02228c-0.89323,0 -0.89323,-0.89323 -0.89323,-0.89323c0.14841,-5.14094 6.74987,-3.4687 8.47055,-0.18093c0.86287,1.64873 1.42451,6.0988 -1.76197,5.70798c-1.8682,-0.22913 -2.45536,-2.64135 -3.25051,-3.96244c-0.44125,-0.32609 -1.58846,-0.43842 -2.33548,-0.69367z" fill="#fec1ff"/><path d="M357.25509,184.66924c0.58116,0.29058 0.29058,0.87173 0.29058,0.87173l-0.07058,0.13864c-0.42077,0.92478 -1.03683,1.77246 -2.25278,1.49379c-0.29655,-0.06796 -0.51705,-0.32917 -0.73408,-0.54238c-0.07808,-0.0767 -0.14469,0.00807 -0.25424,0.09332c-1.47498,1.14767 -2.75609,0.03727 -3.25715,-1.35511c0,0 -0.20547,-0.61641 0.41094,-0.82188c0.61641,-0.20547 0.82188,0.41093 0.82188,0.41093c0.5597,1.90751 1.0002,0.12403 1.98635,0.08083c0.28369,-0.01243 0.51584,0.08646 0.71394,0.21891c0.60969,0.40765 0.89674,1.13323 1.37073,-0.09032l0.10269,-0.20789c0,0 0.29058,-0.58116 0.87173,-0.29058z" fill="#191919"/><path d="M372.3825,167.4904c-0.00427,-2.22044 -0.34901,-4.60481 -2.52398,-5.83549c-2.15723,-1.22064 -4.88929,-0.3384 -5.38085,1.94973l0.37021,-0.13781c1.88668,0.02438 3.13217,-0.20363 4.85501,1.0961c0.71193,0.53709 1.11007,1.40502 1.54948,2.18106c0.24673,0.43575 0.51178,1.06969 0.81003,1.76886c0.22194,-0.18766 0.27089,-0.45852 0.3201,-1.02246zM370.73464,160.09804c2.78486,1.60187 3.43588,4.57466 3.43087,7.50337c-0.19321,1.32243 -0.49678,1.97442 -1.38523,2.5071c1.09292,2.22561 2.60377,4.14246 4.96586,1.87394c0.33958,-0.32613 0.70014,-0.64854 0.94196,-1.05253c0.28055,-0.46869 0.84515,-2.38304 1.00631,-2.89908c-0.05544,-5.95331 -4.01743,-10.9443 -10.29139,-10.64018c-1.40564,0.06814 -3.38258,0.11991 -4.54032,1.06287c-1.81983,1.4822 -3.00852,3.65014 -3.91123,5.82943c0.39042,0.09604 0.77624,0.1985 1.15691,0.30869c0.21923,-0.17319 0.40615,-0.25626 0.40615,-0.25626l0.10471,-0.03897c0.17094,-4.08459 4.51597,-6.26878 8.11539,-4.19837zM362.68934,155.61766c1.53533,-1.15968 2.77325,-1.33295 4.58937,-1.60161c6.27567,-0.92839 12.36927,1.78636 14.93592,7.86308c0.90678,2.14684 1.0282,4.3847 1.01481,6.67056c-0.33653,1.15435 -0.85492,3.21321 -1.49473,4.24674c-0.41858,0.67616 -0.97349,1.26775 -1.55908,1.8058c-0.58494,0.53745 -1.19129,1.10477 -1.92907,1.39918c-0.88993,0.35513 -1.8754,0.5749 -2.83065,0.50018c-1.1171,-0.08739 -2.11038,-0.47078 -2.9728,-1.04888c0.11246,0.88073 0.12997,1.79098 0.02175,2.80909c-0.28593,2.68999 -1.01496,6.0254 -2.61268,8.27658c-2.22074,3.12903 -5.67645,4.63814 -9.28181,5.28747c-6.38719,1.15036 -12.40615,0.7289 -18.17548,-2.42054c-1.80095,-1.48207 -3.45102,-3.13136 -4.47488,-5.28907c-3.04305,-6.413 0.25671,-15.62845 6.31265,-19.04494c2.90957,-1.64145 6.47368,-2.21805 9.75573,-1.8669l-0.00002,0.00001c0.44846,-0.11884 0.84535,-0.0527 0.84535,-0.0527l0.83545,0.13938c0.5787,0.0894 1.15343,0.18034 1.72266,0.27621c1.16477,-2.94792 2.75864,-6.03199 5.29748,-7.94966zM354.88129,166.78174c-0.40948,0.09401 -0.75581,0.04073 -0.75581,0.04073c-3.60623,-0.58071 -8.19103,0.46514 -10.65553,3.39006c-4.12079,4.89064 -4.12517,12.13623 0.92029,16.22897c4.92574,2.68366 10.13721,2.82475 15.55279,1.86695c2.72095,-0.48123 5.30035,-1.48766 7.01065,-3.85918c1.25496,-1.74013 1.71829,-4.52116 1.96064,-6.58672c0.2131,-1.81625 -0.15561,-3.09433 -0.72023,-4.80404c-2.63584,-4.83103 -8.03238,-5.4648 -13.0682,-6.23605z" fill="#191919"/><path d="M350.88376,156.52944c-0.89323,0 -0.89323,-1.00254 -0.89323,-1.00254c0.00259,-2.17337 -0.91785,-5.39515 0.0968,-7.40487c0.98306,-1.94714 3.19725,-2.00518 3.59235,0.50751c0.25832,1.6428 -1.09409,4.31553 -1.45298,5.93746l0.02667,0.55888c0,0 0,0.78495 -0.61883,0.96573c-0.12023,0.22779 -0.34194,0.43783 -0.75078,0.43783z" fill="#fec1ff"/><path d="M353.95051,165.61058c-1.78646,0 -1.78646,-1.78646 -1.78646,-1.78646l0.12777,-1.73535c2.16303,-5.40756 4.35346,-10.04998 3.8308,-15.99074c-0.872,-3.98177 -6.97003,-3.68436 -8.15367,0.05264c-1.89848,5.99388 2.57813,12.36715 3.11589,18.2263c0,0 0.16174,1.77912 -1.61739,1.94086c-1.77912,0.16174 -1.94086,-1.61739 -1.94086,-1.61739c-0.58279,-6.47809 -5.25809,-12.95199 -2.95806,-19.64656c1.91569,-5.5759 10.77342,-7.83621 14.29066,-2.18566c0.47739,0.76693 0.51972,1.73039 0.77959,2.59558c0.62426,6.69731 -1.59255,11.8593 -4.0296,17.95191l0.12777,0.40841c0,0 0,1.78646 -1.78646,1.78646z" fill="#191919"/><path d="M352.35277,158.44204c0.05299,0.26213 0.05785,0.74424 -0.52167,0.9926c-0.821,0.35186 -1.17287,-0.46914 -1.17287,-0.46914c-1.29442,-3.04483 -3.22304,-8.40306 -1.52322,-11.59502c0.95235,-1.78833 3.42293,-2.24413 4.82652,-0.63113c0.82561,0.94879 0.67409,2.34402 0.5395,3.46331c-0.63921,2.57397 -1.39246,5.10014 -2.03613,7.67484l-0.10977,0.55402c0,0 -0.00074,0.00368 -0.00236,0.01051zM351.24586,155.46644c0.49943,-1.86449 1.02673,-3.71625 1.4991,-5.59181c0.08065,-0.61223 0.23711,-1.45853 -0.17508,-2.01515c-0.84352,-1.13909 -1.98752,0.2825 -2.11448,1.13128c-0.30703,2.05259 0.11643,4.35545 0.79046,6.47569z" fill="#191919"/></g></g></g></svg>