<svg version="1.1" xmlns="http://www.w3.org/2000/svg" xmlns:xlink="http://www.w3.org/1999/xlink" width="76.33333" height="101" viewBox="0,0,76.33333,101"><defs><radialGradient cx="356.09852" cy="143.52734" r="23.76826" gradientUnits="userSpaceOnUse" id="color-1"><stop offset="0" stop-color="#0c0c0c"/><stop offset="1" stop-color="#121212"/></radialGradient><linearGradient x1="359.77623" y1="141.45325" x2="360.49534" y2="191.56689" gradientUnits="userSpaceOnUse" id="color-2"><stop offset="0" stop-color="#a30000"/><stop offset="1" stop-color="#450000"/></linearGradient></defs><g transform="translate(-321.83333,-129.5)"><g data-paper-data="{&quot;isPaintingLayer&quot;:true}" fill-rule="nonzero" stroke-linejoin="miter" stroke-miterlimit="10" stroke-dasharray="" stroke-dashoffset="0" style="mix-blend-mode: normal"><path d="M321.83333,230.5v-101h76.33333v101z" fill="#273042" stroke="none" stroke-width="0" stroke-linecap="butt"/><path d="M329.75471,196.83333v-61.66667h60.49068v61.66667z" fill="#0b0e13" stroke="none" stroke-width="0" stroke-linecap="butt"/><path d="M343.08349,227.33333v-17.33333h33.83333v17.33333z" fill="#0b0e13" stroke="#000000" stroke-width="0" stroke-linecap="butt"/><path d="M342.99995,209.125v-11.25h34.25v11.25z" fill="#273042" stroke="#000000" stroke-width="0" stroke-linecap="butt"/><text transform="translate(346.71759,207.0298) scale(0.29415,0.29415)" font-size="40" xml:space="preserve" fill="#000000" fill-rule="nonzero" stroke="none" stroke-width="1" stroke-linecap="butt" stroke-linejoin="miter" stroke-miterlimit="10" stroke-dasharray="" stroke-dashoffset="0" font-family="&quot;GovtAgentBB&quot;, Serif" font-weight="normal" text-anchor="start" style="mix-blend-mode: normal"><tspan x="0" dy="0">Gary</tspan></text><path d="" fill="#f2aa58" stroke="none" stroke-width="0.5" stroke-linecap="butt"/><path d="M340.26125,172.18032l-1.60544,0.97565l-0.59469,-1.61092" fill="none" stroke="#000000" stroke-width="1" stroke-linecap="round"/><g><path d="M378.55094,179.55962l3.38806,1.5354l-0.0649,2.37695" fill="none" stroke="#000000" stroke-width="1" stroke-linecap="round"/><path d="M379.85862,166.67576c0.19858,13.83849 -8.50483,22.6015 -19.39389,22.75775c-10.88906,0.15625 -19.74381,-8.3548 -19.94239,-22.19329c-0.0697,-4.85728 0.85625,-9.40599 2.68364,-13.27287c0.8409,-1.77939 2.56651,-2.72005 3.72031,-4.17347c1.08627,-1.36836 1.58453,-3.27009 2.89998,-4.28646c2.90163,-2.24191 6.30674,-3.36011 9.95916,-3.41252c10.88907,-0.15625 19.8746,10.74238 20.07318,24.58087z" fill="url(#color-1)" stroke="#0a0a0a" stroke-width="1.5" stroke-linecap="butt"/><path d="M381.13534,165.70295c0.03611,2.51644 -0.3268,4.95366 -0.85064,7.25857c-0.17493,0.76968 -1.34863,1.53868 -1.55799,2.27698c-0.25604,0.90288 0.43962,1.76689 0.07713,2.61748c-0.17253,0.40484 -0.17856,7.57316 -0.39047,7.98787c-0.24876,0.48681 -0.70722,-5.78188 -0.95249,-5.34113c-3.70366,6.65561 -9.8406,10.96194 -16.96554,11.06418c-11.60173,0.16647 -21.17103,-11.14328 -21.37361,-25.26106c-0.02665,-1.85701 0.54239,-3.28902 1.36685,-4.52328c0.541,0.26133 1.14946,0.40403 1.79111,0.39482c2.20441,-0.03163 3.9658,-1.84431 3.93417,-4.04872c-0.01253,-0.87332 -0.3046,-1.6771 -0.78982,-2.3274c0.10483,-0.15924 0.22009,-0.33478 0.33958,-0.5173c1.94981,-0.28755 3.43304,-1.98164 3.404,-4.00612c-0.00221,-0.15432 -0.01315,-0.30647 -0.03235,-0.45598c0.08001,-0.21928 0.1413,-0.44746 0.18201,-0.68257c1.28517,-0.67848 2.15252,-2.03688 2.13024,-3.58964c-0.00721,-0.5024 -0.10692,-0.9818 -0.28271,-1.4222c0.69135,-0.11812 1.48984,-0.10941 2.32578,-0.60728c0.03965,-0.02362 0.07826,-0.04767 0.11587,-0.07217c0.5449,0.26615 1.15891,0.41171 1.80674,0.40241c1.97736,-0.02838 3.59826,-1.4898 3.88835,-3.38155c0.15807,-0.00809 0.31633,-0.0133 0.47469,-0.01557c11.60174,-0.16647 21.15652,10.13192 21.35911,24.2497z" fill="url(#color-2)" stroke="#4f0000" stroke-width="2" stroke-linecap="butt"/><path d="M362.2263,142.81032l0.82301,-2.39335l1.8055,-0.3117" fill="none" stroke="#000000" stroke-width="1" stroke-linecap="round"/><path d="M341.81208,162.17881c0,0 3.55255,8.30248 8.11965,15.35621c0.66641,1.02925 1.59567,1.95479 2.30192,2.78266c1.49151,1.74837 4.31077,1.32977 4.31077,1.32977c0,0 2.74854,3.89125 3.83823,3.87958c1.92086,-0.02059 6.13464,-5.50285 6.13464,-5.50285c0,0 4.31564,-0.89505 5.39615,-2.64327c4.3197,-6.98908 6.75059,-15.59695 6.75059,-15.59695l-1.1101,6.9762c0,0 0.21639,1.48037 -0.09895,3.02223c-0.22151,1.08309 -0.9432,2.19909 -1.16003,2.84263c-0.84308,2.50215 -4.00335,8.64191 -4.00335,8.64191c0,0 -0.435,3.3108 -1.27945,4.75523c-1.18995,2.03543 -4.56047,0.05592 -4.56047,0.05592l-0.37959,2.00175c0,0 -1.61955,-0.40459 -2.33555,0.11532c-1.207,0.87645 -2.48051,1.69345 -3.04099,1.69946c-2.82189,0.03024 -6.73776,-6.12002 -6.73776,-6.12002c0,0 -1.1062,2.34756 -1.9416,1.92237c-0.85862,-0.43701 -1.71592,-3.58463 -1.71592,-3.58463l-2.32646,-0.55255c0,0 0.15335,-0.85374 -0.19152,-1.73617c-0.35586,-0.91054 -1.21308,-1.85557 -1.3999,-2.18588c-0.49986,-0.88378 -1.43444,-3.69581 -1.68841,-4.45135c-0.33558,-0.9983 -1.62417,-1.89283 -1.97057,-3.37652c-0.30968,-1.32639 0.32036,-3.22009 0.05573,-4.52939c-0.56324,-2.78671 -0.96706,-5.10167 -0.96706,-5.10167z" fill="#000000" stroke="none" stroke-width="0" stroke-linecap="butt"/><g fill="#000000" stroke="none" stroke-width="0" stroke-linecap="butt"><path d="M357.32039,164.36451c0.07216,5.02841 -0.74039,9.07342 -1.73706,11.6232c-0.63795,1.63208 -1.23378,2.76581 -2.10662,2.77833c-1.00639,0.01444 -1.94473,-1.20679 -2.68329,-3.30598c-0.26259,-0.74637 -0.64015,4.98585 -0.8463,4.03358c-0.13117,-0.60588 -0.10948,-7.83974 -0.21388,-8.51833c-0.29559,-1.92137 -0.47775,-4.11756 -0.51186,-6.49457c-0.06052,-4.21822 0.63245,-7.18824 1.35618,-9.91473c0.69122,-2.60404 1.38649,-5.06025 2.47904,-5.07593c2.23648,-0.03209 4.14544,6.62742 4.26378,14.87444z"/></g><g fill="#000000" stroke="#000000" stroke-width="0" stroke-linecap="butt"><path d="M371.66797,164.66493c0.01943,1.35421 -0.01064,2.66701 -0.08435,3.91563c-0.02396,0.40594 0.35177,1.45752 0.31876,1.84911c-0.07824,0.92854 -0.58561,1.1621 -0.71083,1.99513c-0.64873,4.31581 -1.89208,7.20973 -3.35882,7.23078c-2.23648,0.03209 -4.14544,-6.62742 -4.26378,-14.87443c-0.08273,-5.76567 0.46085,-11.30354 1.72262,-13.81047c0.54302,-1.07889 1.4397,-1.17053 2.11261,-1.18019c2.23648,-0.03209 4.14544,6.62742 4.26378,14.87444z"/></g></g><text transform="translate(348.24462,223.17375) scale(0.37559,0.37559)" font-size="40" xml:space="preserve" fill="#43c749" fill-rule="nonzero" stroke="none" stroke-width="1" stroke-linecap="butt" stroke-linejoin="miter" stroke-miterlimit="10" stroke-dasharray="" stroke-dashoffset="0" font-family="&quot;Agency FB&quot;, Sans Serif" font-weight="normal" text-anchor="start" style="mix-blend-mode: normal"><tspan x="0" dy="0">EASY</tspan></text></g></g></svg>