<svg version="1.1" xmlns="http://www.w3.org/2000/svg" xmlns:xlink="http://www.w3.org/1999/xlink" width="122.24724" height="104.08743" viewBox="0,0,122.24724,104.08743"><g transform="translate(-242.95634,-162.9563)"><g stroke-miterlimit="10"><g stroke="none" stroke-width="0"><path d="M242.95635,174.70594l92.33779,-11.74964l11.74964,92.33779l-92.33779,11.74964z" fill="#796a2f"/><path d="M257.82597,186.21853l65.95556,-8.3926l8.39261,65.95556l-65.95557,8.39261z" fill="#c9b14f"/><path d="M306.34191,176.21514l3.76889,-0.47958l9.35175,73.49334l-3.76889,0.47958z" fill="#796a2f"/><path d="M288.43971,178.49313l3.76888,-0.47957l9.35175,73.49334l-3.76889,0.47958z" fill="#796a2f"/><path d="M269.74305,182.05229l3.76889,-0.47958l9.35175,73.49334l-3.76889,0.47958z" fill="#796a2f"/></g><text transform="translate(268.90738,224.57871) rotate(-7.69214) scale(0.5,0.5)" font-size="40" xml:space="preserve" fill="#000000" stroke="none" stroke-width="1" font-family="&quot;GovtAgentBB&quot;, Serif" font-weight="normal" text-anchor="start"><tspan x="0" dy="0">Tools</tspan></text><g><path d="M352.54202,225.81253c1.54826,-3.67386 5.96483,-11.62189 7.46722,-13.96591c0.86676,-1.35231 -0.5506,2.53209 0.5222,1.91149c1.09542,-0.63369 4.67215,-5.75811 4.67215,-5.75811c0,0 -1.35246,5.10617 -4.69987,10.32878c-0.49013,0.76469 2.58588,-0.15652 2.07964,0.52366c-2.95121,3.96521 -9.5018,8.06028 -9.5018,8.06028c0,0 -1.24832,0.58164 -0.53955,-1.1002z" fill="#4f2100" stroke="none" stroke-width="0"/><path d="M341.00594,227.08292c0,0 -6.55059,-4.09507 -9.5018,-8.06028c-0.50624,-0.68018 2.56977,0.24103 2.07964,-0.52366c-3.3474,-5.2226 -4.69987,-10.32878 -4.69987,-10.32878c0,0 3.57672,5.12442 4.67214,5.75811c1.0728,0.62061 -0.34455,-3.2638 0.5222,-1.91149c1.50239,2.34402 5.91896,10.29205 7.46723,13.96591c0.70877,1.68184 -0.53955,1.1002 -0.53955,1.1002z" fill="#4f2100" stroke="none" stroke-width="0"/><path d="M357.83174,224.99119c1.93777,1.65674 1.7023,5.11252 1.7023,5.11252c0,0 -3.3772,0.76967 -5.31496,-0.88707c-0.99234,-0.84843 -1.42358,-3.00469 -0.47506,-4.06545c0.90367,-1.01061 3.1423,-0.96832 4.08772,-0.16001z" fill="#361b0e" stroke="#0a0a0a" stroke-width="0"/><path d="M341.00512,225.1512c0.94851,1.06076 0.51727,3.21701 -0.47507,4.06544c-1.93777,1.65674 -5.31496,0.88707 -5.31496,0.88707c0,0 -0.23546,-3.45578 1.7023,-5.11252c0.94542,-0.80832 3.18406,-0.8506 4.08773,0.16001z" fill="#361b0e" stroke="#0a0a0a" stroke-width="0"/><path d="M330.66766,251.14691c0,-5.67269 4.3915,-12.94663 6.96152,-12.94663c2.57002,0 2.34533,7.27394 2.34533,12.94662c0,5.67269 -9.30685,5.67269 -9.30685,0z" fill="#27130a" stroke="none" stroke-width="0"/><path d="M331.20649,247.38558c1.25125,-4.68281 4.40071,-9.1853 6.4227,-9.1853c2.00831,0 2.31004,4.44181 2.346,9.09033c0.01006,1.30015 -9.10784,1.36419 -8.7687,0.09497z" fill="#670000" stroke="none" stroke-width="0"/><g stroke="none" stroke-width="0"><path d="M334.13749,239.60853c0.09557,-0.98225 8.39531,-0.17469 8.29974,0.80755c-0.09557,0.98225 -0.07857,1.98755 -2.37049,1.76455c-2.29191,-0.223 -6.02483,-1.58985 -5.92926,-2.5721z" fill="#bfff00"/><path d="M333.04272,238.41725c0.09557,-0.98225 8.39531,-0.17469 8.29974,0.80755c-0.09557,0.98225 -0.07857,1.98754 -2.37049,1.76454c-2.29191,-0.223 -6.02483,-1.58985 -5.92926,-2.5721z" fill="#636363"/></g><path d="M363.68249,251.03236c0,5.67269 -9.30685,5.67269 -9.30685,0c0,-5.67269 -0.22469,-12.94662 2.34533,-12.94662c2.57002,0 6.96152,7.27394 6.96152,12.94663z" fill="#27130a" stroke="none" stroke-width="0"/><path d="M354.37497,247.17607c0.03596,-4.64852 0.33769,-9.09033 2.346,-9.09033c2.02199,0 5.17145,4.5025 6.4227,9.1853c0.33914,1.26922 -8.77876,1.20518 -8.7687,-0.09497z" fill="#670000" stroke="none" stroke-width="0"/><g stroke="none" stroke-width="0"><path d="M360.21266,239.49399c0.09557,0.98224 -3.63735,2.3491 -5.92926,2.5721c-2.29191,0.223 -2.27492,-0.7823 -2.37049,-1.76455c-0.09557,-0.98225 8.20417,-1.7898 8.29974,-0.80755z" fill="#bfff00"/><path d="M361.30745,238.30271c0.09557,0.98224 -3.63735,2.3491 -5.92926,2.5721c-2.29191,0.223 -2.27492,-0.78229 -2.37049,-1.76454c-0.09558,-0.98225 8.20417,-1.7898 8.29974,-0.80755z" fill="#636363"/></g><g stroke="none" stroke-width="0"><path d="M338.43238,244.809c0,-6.21738 2.89589,-10.78105 9.11327,-10.78105c6.21738,0 8.51763,5.04018 8.51763,11.25756c0,4.09556 -1.89158,6.48903 -4.35,8.45878c-1.27366,1.02049 -2.0458,2.79879 -4.16763,2.79879c-2.14892,0 -3.52878,-2.37149 -4.90169,-3.4907c-2.59928,-2.11895 -4.21157,-4.17492 -4.21157,-8.24338z" fill="#a30000"/><path d="M344.9621,244.809c0,-3.36206 -1.7659,-7.03473 -1.30933,-8.96953c0.38776,-1.64318 2.93193,-1.81152 3.67228,-1.81152c0.81271,0 3.15421,0.18899 3.50437,2.25601c0.34441,2.03308 -1.29585,5.91859 -1.29585,9.00155c0,4.09556 -0.49046,6.48903 -1.1279,8.45878c-0.33025,1.02049 -0.53045,2.79879 -1.08061,2.79879c-0.55719,0 -0.91497,-2.37149 -1.27095,-3.4907c-0.67396,-2.11895 -1.09201,-4.17492 -1.09201,-8.24338z" fill="#d2d2d2"/></g><path d="M354.63154,250.56788c-0.77261,1.28439 -1.82325,2.32898 -3.00482,3.27569c-1.27366,1.02049 -2.0458,2.79879 -4.16763,2.79879c-2.14892,0 -3.52878,-2.37149 -4.90169,-3.4907c-1.17842,-0.96066 -2.15397,-1.90837 -2.8684,-3.03652c-0.86141,-1.36027 15.77745,-0.93521 14.94253,0.45274z" fill="#000000" stroke="none" stroke-width="0"/><path d="M336.3278,232.61331c0,-6.03097 4.88906,-10.92003 10.92003,-10.92003c6.03097,0 10.92003,4.88906 10.92003,10.92003c0,2.92083 -5.59912,7.76266 -10.88253,7.85434c-5.62586,0.09763 -10.95754,-4.7442 -10.95754,-7.85434z" fill="#4d2714" stroke="none" stroke-width="0"/><path d="M331.84737,259.80883c-1.46371,-4.29951 -0.37797,-8.89093 2.42506,-10.25519c2.80304,-1.36426 9.82356,-0.21604 11.28727,4.08347c1.46371,4.29951 -12.24862,10.47123 -13.71233,6.17171z" fill="#0c0c0c" stroke="none" stroke-width="0"/><path d="M331.53731,259.74994c-1.81235,-4.45235 -0.468,-9.20696 3.00269,-10.61972c3.47069,-1.41275 7.75344,1.05131 9.56579,5.50366c1.81235,4.45235 -10.75613,9.56842 -12.56848,5.11607z" fill="#4d2714" stroke="none" stroke-width="0"/><path d="M356.12416,235.64288c0,0.62138 -4.18262,4.10329 -9.09722,4.10329c-4.91461,0 -8.70013,-3.48191 -8.70013,-4.10329c0,-0.62138 3.91789,0.79418 8.83249,0.79418c4.91461,0 8.96486,-1.41556 8.96486,-0.79418z" fill="#000000" stroke="#e2e2e2" stroke-width="0"/><g stroke="none"><g><g><path d="M336.81837,232.43968c0,0 2.5271,-3.19328 4.58311,-3.19328c2.05601,0 3.72274,1.66673 3.72274,3.72274c0,2.05601 -1.66673,3.72274 -3.72274,3.72274c-2.05601,0 -4.58311,-4.2522 -4.58311,-4.2522z" fill="#000000" stroke-width="0"/><g fill="none" stroke-width="1" font-family="sans-serif" font-weight="normal" font-size="12" text-anchor="start"/></g><text transform="translate(339.2972,235.31538) scale(0.22056,0.22056)" font-size="40" xml:space="preserve" fill="#d2d2d2" stroke-width="1" font-family="Handwriting" font-weight="normal" text-anchor="start"><tspan x="0" dy="0">x</tspan></text></g><g><g><path d="M353.04951,236.85071c-2.05601,0 -3.72274,-1.66673 -3.72274,-3.72274c0,-2.05601 1.66673,-3.72274 3.72274,-3.72274c2.05601,0 4.45074,2.59764 4.45074,2.59764c0,0 -2.39473,4.84783 -4.45074,4.84783z" fill="#000000" stroke-width="0"/><g fill="none" stroke-width="1" font-family="sans-serif" font-weight="normal" font-size="12" text-anchor="start"/></g><text transform="translate(354.82287,235.27565) rotate(-180) scale(0.22056,-0.22056)" font-size="40" xml:space="preserve" fill="#d2d2d2" stroke-width="1" font-family="Handwriting" font-weight="normal" text-anchor="start"><tspan x="0" dy="0">x</tspan></text></g></g><path d="M345.33931,234.57742c0,-1.04171 3.77238,-1.04171 3.77238,0c0,1.04171 -0.92389,1.44938 -1.96561,1.44938c-1.04171,0 -1.80677,-0.40768 -1.80677,-1.44938z" fill="#101010" stroke="#e2e2e2" stroke-width="0"/><path d="M348.70335,253.53784c1.46371,-4.29951 8.48423,-5.44774 11.28727,-4.08348c2.80304,1.36426 3.88877,5.95567 2.42506,10.25518c-1.46371,4.29951 -15.17604,-1.87219 -13.71233,-6.17171z" fill="#0c0c0c" stroke="none" stroke-width="0"/><path d="M362.72573,259.65067c-1.81235,4.45235 -14.38084,-0.66372 -12.56848,-5.11607c1.81235,-4.45235 6.09511,-6.91641 9.56579,-5.50366c3.47069,1.41275 4.81504,6.16736 3.00269,10.61971z" fill="#4d2714" stroke="none" stroke-width="0"/><path d="M354.87889,222.64694c0,0.74458 0.10864,2.00821 -1.50106,2.46311c-1.35356,0.38251 -11.30754,0.33188 -12.64229,-0.02756c-1.69055,-0.45526 -1.24397,-1.66962 -1.24397,-2.43555c0,-1.37068 15.38733,-1.37068 15.38733,0z" fill="#000000" stroke="#500000" stroke-width="0"/><path d="M352.35475,215.35987c0,1.51126 0.07312,4.07602 -1.01024,4.99932c-0.91098,0.77638 -7.61022,0.67363 -8.50853,-0.05592c-1.13778,-0.92402 -0.83722,-3.38878 -0.83722,-4.9434c0,-2.78203 10.35599,-2.78203 10.35599,0z" fill="#000000" stroke="#500000" stroke-width="0"/><path d="M352.35475,220.32534c0,0.50112 0.07312,1.35156 -1.01024,1.65772c-0.91098,0.25744 -7.61022,0.22337 -8.50853,-0.01854c-1.13778,-0.3064 -0.83722,-1.12368 -0.83722,-1.63918c0,-0.92249 10.35599,-0.92249 10.35599,0z" fill="#d2d2d2" stroke="#500000" stroke-width="0"/></g></g></g></svg>