<svg version="1.1" xmlns="http://www.w3.org/2000/svg" xmlns:xlink="http://www.w3.org/1999/xlink" width="136.32324" height="337.47748" viewBox="0,0,136.32324,337.47748"><defs><linearGradient x1="328.2613" y1="324.38834" x2="328.2613" y2="325.98977" gradientUnits="userSpaceOnUse" id="color-1"><stop offset="0" stop-color="#000000" stop-opacity="0"/><stop offset="1" stop-color="#000000"/></linearGradient><linearGradient x1="359.31494" y1="324.38834" x2="359.31494" y2="325.98977" gradientUnits="userSpaceOnUse" id="color-2"><stop offset="0" stop-color="#000000" stop-opacity="0"/><stop offset="1" stop-color="#000000"/></linearGradient><linearGradient x1="344.0163" y1="107.2877" x2="344.0163" y2="111.73856" gradientUnits="userSpaceOnUse" id="color-3"><stop offset="0" stop-color="#000000" stop-opacity="0"/><stop offset="1" stop-color="#000000"/></linearGradient></defs><g transform="translate(-291.83838,-11.26126)"><g data-paper-data="{&quot;isPaintingLayer&quot;:true}" fill-rule="nonzero" stroke-linecap="butt" stroke-linejoin="miter" stroke-miterlimit="10" stroke-dasharray="" stroke-dashoffset="0" style="mix-blend-mode: normal"><path d="" data-paper-data="{&quot;index&quot;:null}" fill="#000000" stroke="#000000" stroke-width="0"/><g stroke="#2b2b2b" stroke-width="0"><g data-paper-data="{&quot;index&quot;:null}"><path d="M335.79482,343.49934c-1.09456,4.30061 -4.66847,3.36339 -9.27327,3.37064c-6.16022,0.00971 -13.95925,-0.40324 -18.15713,-4.60111c-5.07907,-5.07907 -8.67973,-3.39721 -8.14724,-4.27556c0.85698,-1.4136 0.32664,-1.57137 2.58337,-3.8281c5.2617,-5.26168 14.5668,-9.45762 22.61259,-10.59967c1.86764,-0.2651 3.48796,-0.30763 5.15357,-0.07577c1.16289,0.16187 2.43985,0.4575 3.44935,0.90449c5.57794,2.46986 4.5617,10.90926 2.6419,18.57007c-0.49392,1.97093 -0.19445,-2.09232 -0.86314,0.53501z" fill="#323232"/><path d="M328.81707,336.17585c4.65857,0 8.43508,2.14252 8.43508,6.99932c0,4.8568 -3.77651,5.56356 -8.43508,5.56356c-4.65857,0 -8.43508,-0.70676 -8.43508,-5.56356c0,-4.8568 3.77651,-6.99932 8.43508,-6.99932z" fill="#2b2b2b"/><path d="M317.331,336.17585c4.65856,0 8.43508,2.14252 8.43508,6.99932c0,4.8568 -3.77652,5.56356 -8.43508,5.56356c-4.65857,0 -8.43508,-0.70676 -8.43508,-5.56356c0,-4.8568 3.77651,-6.99932 8.43508,-6.99932z" fill="#2b2b2b"/><path d="M305.7253,335.45797c4.65856,0 8.43508,2.14252 8.43508,6.99932c0,4.8568 -3.77652,5.56356 -8.43508,5.56356c-4.65857,0 -8.43508,-0.70676 -8.43508,-5.56356c0,-4.8568 3.77651,-6.99932 8.43508,-6.99932z" fill="#2b2b2b"/><path d="M322.68761,325.15132c0.05042,-0.76297 2.53302,-1.42567 5.52835,-1.22774c2.99534,0.19794 5.36915,1.18156 5.31873,1.94453c-0.05042,0.76297 -2.50597,1.01635 -5.50131,0.81841c-2.99534,-0.19794 -5.3962,-0.77224 -5.34578,-1.5352z" data-paper-data="{&quot;index&quot;:null}" fill="#000000"/></g><g data-paper-data="{&quot;index&quot;:null}"><path d="M335.89738,343.39678c-1.09456,4.30061 -4.66847,3.36339 -9.27327,3.37064c-6.16022,0.00971 -13.95925,-0.40324 -18.15713,-4.60111c-5.07907,-5.07907 -8.67973,-3.39721 -8.14724,-4.27556c0.85698,-1.4136 0.32664,-1.57137 2.58337,-3.8281c5.2617,-5.26168 14.5668,-9.45762 22.61259,-10.59967c1.86764,-0.2651 3.48796,-0.30763 5.15357,-0.07577c1.16289,0.16187 2.43985,0.4575 3.44935,0.90449c5.57794,2.46986 4.5617,10.90926 2.6419,18.57007c-0.49392,1.97093 -0.19445,-2.09232 -0.86314,0.53501z" fill="#2f2f2f"/><path d="M328.91963,336.0733c4.65857,0 8.43508,2.14252 8.43508,6.99932c0,4.8568 -3.77651,5.56356 -8.43508,5.56356c-4.65857,0 -8.43508,-0.70676 -8.43508,-5.56356c0,-4.8568 3.77651,-6.99932 8.43508,-6.99932z" fill="#2b2b2b"/><path d="M317.43357,336.0733c4.65856,0 8.43508,2.14252 8.43508,6.99932c0,4.8568 -3.77652,5.56356 -8.43508,5.56356c-4.65857,0 -8.43508,-0.70676 -8.43508,-5.56356c0,-4.8568 3.77651,-6.99932 8.43508,-6.99932z" fill="#2b2b2b"/><path d="M305.82785,335.35542c4.65856,0 8.43508,2.14252 8.43508,6.99932c0,4.8568 -3.77652,5.56356 -8.43508,5.56356c-4.65857,0 -8.43508,-0.70676 -8.43508,-5.56356c0,-4.8568 3.77651,-6.99932 8.43508,-6.99932z" fill="#2b2b2b"/><path d="M322.79017,325.04877c0.05042,-0.76297 2.53302,-1.42567 5.52836,-1.22774c2.99534,0.19794 5.36915,1.18156 5.31873,1.94453c-0.05042,0.76297 -2.50597,1.01635 -5.50131,0.81841c-2.99534,-0.19794 -5.3962,-0.77224 -5.34578,-1.5352z" data-paper-data="{&quot;index&quot;:null}" fill="#000000"/></g><path d="M328.49265,318.17198c2.14602,0 3.88573,1.73969 3.88573,3.88572c0,2.14603 -1.7397,3.88572 -3.88573,3.88572c-2.14602,0 -3.88571,-1.73969 -3.88571,-3.88572c0,-2.14603 1.73969,-3.88572 3.88571,-3.88572z" data-paper-data="{&quot;index&quot;:null}" fill="#4e4e4e"/><path d="M322.12,312.21633c0,-3.51952 2.85313,-6.37266 6.37266,-6.37266c3.51952,0 6.37266,2.85313 6.37266,6.37266c0,3.51952 -2.85313,6.37266 -6.37266,6.37266c-3.51952,0 -6.37266,-2.85314 -6.37266,-6.37266z" fill="#4e4e4e"/><path d="M322.12,265.68007c0,-3.51952 2.85313,-6.37266 6.37266,-6.37266c3.51952,0 6.37266,2.85314 6.37266,6.37266c0,3.51952 -2.85313,6.37266 -6.37266,6.37266c-3.51952,0 -6.37266,-2.85314 -6.37266,-6.37266z" fill="#4e4e4e"/><path d="M322.12,212.06517c0,-3.51952 2.85313,-6.37266 6.37266,-6.37266c3.51952,0 6.37266,2.85313 6.37266,6.37266c0,3.51952 -2.85313,6.37266 -6.37266,6.37266c-3.51951,0 -6.37266,-2.85313 -6.37266,-6.37266z" fill="#4e4e4e"/><path d="M342.71319,242.24779c0,30.57342 -6.36675,23.85019 -14.22055,23.85019c-7.8538,0 -14.22055,6.72322 -14.22055,-23.85019c0,-30.57342 6.36675,-31.00187 14.22055,-31.00187c7.8538,0 14.22055,0.42845 14.22055,31.00187z" fill="#2b2b2b"/><path d="M341.66167,291.75131c0,30.11881 -5.89597,31.47444 -13.169,31.47444c-7.27303,0 -13.169,-1.35564 -13.169,-31.47444c0,-30.11881 5.89596,-23.57985 13.169,-23.57985c7.27303,0 13.169,-6.53894 13.169,23.57985z" fill="#2b2b2b"/><path d="M338.57414,267.08666c0,2.31683 -4.51364,7.41308 -10.08149,7.41308c-5.56786,0 -10.08149,-5.09625 -10.08149,-7.41308c0,-2.31683 4.51364,-5.91897 10.08149,-5.91897c5.56786,0 10.08149,3.60213 10.08149,5.91897z" fill="#262626"/><path d="M324.34058,325.98977v-1.60142h7.84144v1.60142z" fill="url(#color-1)"/></g><g data-paper-data="{&quot;index&quot;:null}" stroke="#2b2b2b" stroke-width="0"><g data-paper-data="{&quot;index&quot;:null}"><path d="M351.78146,343.49933c-0.66869,-2.62734 -0.36923,1.43592 -0.86314,-0.53501c-1.9198,-7.6608 -2.93603,-16.10021 2.6419,-18.57007c1.0095,-0.44699 2.28646,-0.74262 3.44935,-0.90449c1.66561,-0.23185 3.28593,-0.18933 5.15357,0.07577c8.04579,1.14205 17.35089,5.33799 22.61258,10.59967c2.25674,2.25674 1.72639,2.41451 2.58337,3.8281c0.53249,0.87835 -3.06817,-0.80351 -8.14724,4.27556c-4.19788,4.19787 -11.99691,4.61082 -18.15713,4.60111c-4.6048,-0.00725 -8.17871,0.92997 -9.27327,-3.37064z" fill="#323232"/><path d="M367.19425,343.17518c0,4.8568 -3.77651,5.56356 -8.43508,5.56356c-4.65857,0 -8.43508,-0.70676 -8.43508,-5.56356c0,-4.8568 3.77651,-6.99932 8.43508,-6.99932c4.65857,0 8.43508,2.14252 8.43508,6.99932z" fill="#2b2b2b"/><path d="M378.68032,343.17518c0,4.8568 -3.77651,5.56356 -8.43508,5.56356c-4.65856,0 -8.43508,-0.70676 -8.43508,-5.56356c0,-4.8568 3.77652,-6.99932 8.43508,-6.99932c4.65857,0 8.43508,2.14252 8.43508,6.99932z" fill="#2b2b2b"/><path d="M390.28607,342.4573c0,4.8568 -3.77651,5.56356 -8.43508,5.56356c-4.65856,0 -8.43508,-0.70676 -8.43508,-5.56356c0,-4.8568 3.77652,-6.99932 8.43508,-6.99932c4.65857,0 8.43508,2.14252 8.43508,6.99932z" fill="#2b2b2b"/><path d="M359.54288,326.68652c-2.99534,0.19794 -5.45089,-0.05544 -5.50131,-0.81841c-0.05042,-0.76297 2.32339,-1.74659 5.31873,-1.94453c2.99534,-0.19794 5.47793,0.46477 5.52835,1.22774c0.05042,0.76297 -2.35044,1.33727 -5.34577,1.5352z" data-paper-data="{&quot;index&quot;:null}" fill="#000000"/></g><g data-paper-data="{&quot;index&quot;:null}"><path d="M351.67891,343.39678c-0.66869,-2.62734 -0.36923,1.43592 -0.86314,-0.53501c-1.9198,-7.6608 -2.93603,-16.10021 2.6419,-18.57007c1.0095,-0.44699 2.28646,-0.74262 3.44935,-0.90449c1.66561,-0.23185 3.28593,-0.18933 5.15357,0.07577c8.04579,1.14205 17.35089,5.33799 22.61258,10.59967c2.25674,2.25674 1.72639,2.41451 2.58337,3.8281c0.53249,0.87835 -3.06817,-0.80351 -8.14724,4.27556c-4.19788,4.19787 -11.99691,4.61082 -18.15713,4.60111c-4.6048,-0.00725 -8.17871,0.92997 -9.27327,-3.37064z" fill="#2f2f2f"/><path d="M367.09173,343.07262c0,4.8568 -3.77651,5.56356 -8.43508,5.56356c-4.65857,0 -8.43508,-0.70676 -8.43508,-5.56356c0,-4.8568 3.77651,-6.99932 8.43508,-6.99932c4.65857,0 8.43508,2.14252 8.43508,6.99932z" fill="#2b2b2b"/><path d="M378.5778,343.07262c0,4.8568 -3.77651,5.56356 -8.43508,5.56356c-4.65856,0 -8.43508,-0.70676 -8.43508,-5.56356c0,-4.8568 3.77652,-6.99932 8.43508,-6.99932c4.65857,0 8.43508,2.14252 8.43508,6.99932z" fill="#2b2b2b"/><path d="M390.18348,342.35474c0,4.8568 -3.77651,5.56356 -8.43508,5.56356c-4.65856,0 -8.43508,-0.70676 -8.43508,-5.56356c0,-4.8568 3.77652,-6.99932 8.43508,-6.99932c4.65857,0 8.43508,2.14252 8.43508,6.99932z" fill="#2b2b2b"/><path d="M359.44035,326.58397c-2.99534,0.19794 -5.45089,-0.05544 -5.50131,-0.81841c-0.05042,-0.76297 2.32339,-1.74659 5.31873,-1.94453c2.99534,-0.19794 5.47793,0.46477 5.52835,1.22774c0.05042,0.76297 -2.35044,1.33727 -5.34577,1.5352z" data-paper-data="{&quot;index&quot;:null}" fill="#000000"/></g><path d="M362.96932,322.05771c0,2.14603 -1.73969,3.88572 -3.88572,3.88572c-2.14603,0 -3.88572,-1.73969 -3.88572,-3.88572c0,-2.14603 1.7397,-3.88572 3.88572,-3.88572c2.14602,0 3.88572,1.73969 3.88572,3.88572z" data-paper-data="{&quot;index&quot;:null}" fill="#4e4e4e"/><path d="M359.0836,318.58899c-3.51952,0 -6.37266,-2.85314 -6.37266,-6.37266c0,-3.51952 2.85313,-6.37266 6.37266,-6.37266c3.51952,0 6.37266,2.85313 6.37266,6.37266c0,3.51952 -2.85313,6.37266 -6.37266,6.37266z" fill="#4e4e4e"/><path d="M359.0836,272.05273c-3.51952,0 -6.37266,-2.85314 -6.37266,-6.37266c0,-3.51952 2.85313,-6.37266 6.37266,-6.37266c3.51952,0 6.37266,2.85314 6.37266,6.37266c0,3.51952 -2.85313,6.37266 -6.37266,6.37266z" fill="#4e4e4e"/><path d="M359.0836,218.43783c-3.51952,0 -6.37266,-2.85314 -6.37266,-6.37266c0,-3.51952 2.85314,-6.37266 6.37266,-6.37266c3.51952,0 6.37266,2.85314 6.37266,6.37266c0,3.51952 -2.85315,6.37266 -6.37266,6.37266z" fill="#4e4e4e"/><path d="M359.0836,211.24592c7.8538,0 14.22055,0.42844 14.22055,31.00187c0,30.57341 -6.36675,23.85019 -14.22055,23.85019c-7.8538,0 -14.22055,6.72323 -14.22055,-23.85019c0,-30.57342 6.36675,-31.00187 14.22055,-31.00187z" fill="#2b2b2b"/><path d="M359.0836,268.17146c7.27304,0 13.169,-6.53895 13.169,23.57985c0,30.11881 -5.89596,31.47444 -13.169,31.47444c-7.27303,0 -13.169,-1.35564 -13.169,-31.47444c0,-30.11879 5.89597,-23.57985 13.169,-23.57985z" fill="#2b2b2b"/><path d="M359.0836,261.16768c5.56786,0 10.08149,3.60214 10.08149,5.91897c0,2.31683 -4.51364,7.41308 -10.08149,7.41308c-5.56785,0 -10.08149,-5.09625 -10.08149,-7.41308c0,-2.31684 4.51363,-5.91897 10.08149,-5.91897z" fill="#262626"/><path d="M355.39424,325.98977v-1.60142h7.84144v1.60142z" fill="url(#color-2)"/></g><g fill="#262626" stroke="#2b2b2b" stroke-width="0"><g><path d="M345.31135,213.85318c-4.76876,0 -9.03139,-2.83265 -13.17541,-3.60769c-5.75351,-1.07606 -8.7995,1.26389 -11.37608,-2.78112c-1.61809,-2.54026 -2.30772,-14.19714 -2.30772,-16.51557c0,-8.66921 11.31163,-13.83052 26.8592,-13.83052c8.01628,0 7.53131,36.7349 0,36.7349z"/></g><g data-paper-data="{&quot;index&quot;:null}"><path d="M342.26496,177.11828c15.54758,0 26.8592,5.16131 26.8592,13.83052c0,2.31843 -0.68963,13.97531 -2.30772,16.51557c-2.57658,4.04501 -5.62257,1.70506 -11.37608,2.78112c-4.14401,0.77504 -8.40664,3.60769 -13.17541,3.60769c-7.53131,0 -8.01628,-36.7349 0,-36.7349z"/></g></g><g data-paper-data="{&quot;index&quot;:null}" stroke="#2b2b2b" stroke-width="0"><path d="M383.1069,227.2645c-2.95313,0 -5.34712,-2.39398 -5.34712,-5.34712c0,-2.95313 2.39398,-5.34712 5.34712,-5.34712c2.95313,0 5.34711,2.39398 5.34711,5.34712c0,2.95313 -2.39398,5.34712 -5.34711,5.34712z" fill="#4e4e4e"/><path d="M383.1069,180.72824c-2.95313,0 -5.34712,-2.39398 -5.34712,-5.34712c0,-2.95313 2.39398,-5.34712 5.34712,-5.34712c2.95313,0 5.34711,2.39398 5.34711,5.34712c0,2.95313 -2.39398,5.34712 -5.34711,5.34712z" fill="#4e4e4e"/><path d="M383.1069,127.65175c-2.95313,0 -5.34712,-2.39399 -5.34712,-5.34712c0,-2.95313 2.39399,-5.34712 5.34712,-5.34712c2.95313,0 5.34712,2.39399 5.34712,5.34712c0,2.95313 -2.39399,5.34712 -5.34712,5.34712z" fill="#4e4e4e"/><path d="M383.1069,121.48538c6.97589,0 12.63096,0.41043 12.63096,29.69813c0,29.2877 -5.65507,22.84721 -12.63096,22.84721c-6.97589,0 -12.63096,6.44048 -12.63096,-22.84721c0,-29.2877 5.65507,-29.69813 12.63096,-29.69813z" fill="#2b2b2b"/><path d="M383.1069,176.17417c6.46005,0 11.69695,-5.63223 11.69695,20.31016c0,25.94239 -5.2369,27.11005 -11.69695,27.11005c-6.46005,0 -11.69696,-1.16766 -11.69696,-27.11005c0,-25.94238 5.23691,-20.31016 11.69696,-20.31016z" fill="#2b2b2b"/></g><path d="M347.02723,114.2049l1.8713,-6.68243l35.48599,9.93729l-1.8713,6.68243z" data-paper-data="{&quot;index&quot;:null}" fill="#4e4e4e" stroke="#2b2b2b" stroke-width="0"/><g data-paper-data="{&quot;index&quot;:null}" stroke="#2b2b2b" stroke-width="0"><path d="M383.1069,227.26449c-2.95313,0 -5.34712,-2.39398 -5.34712,-5.34712c0,-2.95313 2.39398,-5.34712 5.34712,-5.34712c2.95313,0 5.34712,2.39398 5.34712,5.34712c0,2.95313 -2.39398,5.34712 -5.34712,5.34712z" fill="#4e4e4e"/><path d="M383.1069,180.72824c-2.95313,0 -5.34712,-2.39398 -5.34712,-5.34712c0,-2.95313 2.39398,-5.34712 5.34712,-5.34712c2.95313,0 5.34712,2.39399 5.34712,5.34712c0,2.95313 -2.39398,5.34712 -5.34712,5.34712z" fill="#4e4e4e"/><path d="M383.1069,127.65175c-2.95313,0 -5.34712,-2.39399 -5.34712,-5.34712c0,-2.95313 2.39398,-5.34712 5.34712,-5.34712c2.95313,0 5.34712,2.39398 5.34712,5.34712c0,2.95313 -2.39398,5.34712 -5.34712,5.34712z" fill="#4e4e4e"/><path d="M383.1069,121.48538c6.97588,0 12.63096,0.41043 12.63096,29.69813c0,29.2877 -5.65507,22.84721 -12.63096,22.84721c-6.97588,0 -12.63096,6.44048 -12.63096,-22.84721c0,-29.2877 5.65508,-29.69813 12.63096,-29.69813z" fill="#2b2b2b"/><path d="M383.1069,176.17417c6.46005,0 11.69696,-5.63223 11.69696,20.31016c0,25.94239 -5.23691,27.11005 -11.69696,27.11005c-6.46005,0 -11.69696,-1.16766 -11.69696,-27.11005c0,-25.94239 5.23691,-20.31016 11.69696,-20.31016z" fill="#2b2b2b"/></g><path d="M305.06306,124.14218l-1.8713,-6.68243l35.486,-9.93728l1.8713,6.68243z" data-paper-data="{&quot;index&quot;:null}" fill="#4e4e4e" stroke="#2b2b2b" stroke-width="0"/><g data-paper-data="{&quot;index&quot;:null}" stroke="#2b2b2b" stroke-width="0"><path d="M299.12224,221.91738c0,-2.95313 2.39398,-5.34712 5.34711,-5.34712c2.95313,0 5.34712,2.39398 5.34712,5.34712c0,2.95313 -2.39398,5.34712 -5.34712,5.34712c-2.95313,0 -5.34711,-2.39398 -5.34711,-5.34712z" fill="#4e4e4e"/><path d="M299.12224,175.38113c0,-2.95313 2.39398,-5.34712 5.34711,-5.34712c2.95313,0 5.34712,2.39398 5.34712,5.34712c0,2.95313 -2.39398,5.34712 -5.34712,5.34712c-2.95313,0 -5.34711,-2.39398 -5.34711,-5.34712z" fill="#4e4e4e"/><path d="M299.12224,122.30464c0,-2.95313 2.39398,-5.34712 5.34712,-5.34712c2.95313,0 5.34712,2.39398 5.34712,5.34712c0,2.95313 -2.39398,5.34712 -5.34712,5.34712c-2.95313,0 -5.34712,-2.39398 -5.34712,-5.34712z" fill="#4e4e4e"/><path d="M317.1003,151.18351c0,29.2877 -5.65507,22.84721 -12.63096,22.84721c-6.97589,0 -12.63096,6.44048 -12.63096,-22.84721c0,-29.2877 5.65507,-29.69813 12.63096,-29.69813c6.97589,0 12.63096,0.41043 12.63096,29.69813z" fill="#2b2b2b"/><path d="M316.1663,196.48433c0,25.94239 -5.23691,27.11005 -11.69696,27.11005c-6.46005,0 -11.69695,-1.16766 -11.69695,-27.11005c0,-25.94239 5.2369,-20.31016 11.69695,-20.31016c6.46005,0 11.69696,-5.63222 11.69696,20.31016z" fill="#2b2b2b"/></g><g fill="#2b2b2b" stroke="#2b2b2b" stroke-width="0"><g data-paper-data="{&quot;index&quot;:null}"><path d="M343.59105,205.05293c-17.28576,0 -27.0611,0.81087 -27.0611,-27.43833c0,-8.52529 -8.53826,-27.64492 -7.02295,-34.66926c3.50579,-16.25133 22.01493,-16.28502 34.08405,-16.28502c4.41181,0 4.23195,78.3926 0,78.3926z"/></g><g data-paper-data="{&quot;index&quot;:null}"><path d="M343.98525,126.66033c12.06912,0 30.57826,0.03369 34.08405,16.28502c1.51531,7.02433 -7.02295,26.14396 -7.02295,34.66925c0,28.2492 -9.77535,27.43833 -27.06111,27.43833c-4.23195,0 -4.41181,-78.3926 0,-78.3926z"/></g></g><g fill="#2b2b2b" stroke="#2b2b2b" stroke-width="0"><path d="M342.55189,142.46668c0,17.39528 -4.89431,31.49695 -10.93176,31.49695c-6.03744,0 -25.81756,-24.51091 -25.81756,-41.9062c0,-17.39528 16.09445,-24.04205 21.46394,-25.36737c5.90468,-1.45741 15.28538,18.38133 15.28538,35.77661z" data-paper-data="{&quot;index&quot;:null}"/><path d="M360.30973,106.69006c5.36948,1.32531 21.46394,7.97208 21.46394,25.36737c0,17.39528 -19.78011,41.9062 -25.81755,41.9062c-6.03744,0 -10.93176,-14.10167 -10.93176,-31.49695c0,-17.39528 9.38071,-37.23402 15.28538,-35.77661z" data-paper-data="{&quot;index&quot;:null}"/><path d="M343.78814,138.05056c-12.35174,0 -22.36479,-23.28701 -22.36479,-27.07003c0,-3.78302 10.01305,-6.84976 22.36479,-6.84976c12.35174,0 22.3648,3.06674 22.3648,6.84976c0,3.78302 -10.01306,27.07003 -22.3648,27.07003z" data-paper-data="{&quot;index&quot;:null}"/><path d="M371.08551,149.37511c0,15.62106 -12.22148,28.28444 -27.29743,28.28444c-15.07595,0 -27.29742,-12.66337 -27.29742,-28.28444c0,-15.62106 12.22148,-28.28444 27.29742,-28.28444c15.07595,0 27.29743,12.66337 27.29743,28.28444z"/></g><g fill="#323232" stroke="#2b2b2b" stroke-width="0"><g><g data-paper-data="{&quot;index&quot;:null}"><path d="M343.62094,202.89939c-14.66274,0 -22.95472,0.77819 -22.95472,-26.33237c0,-8.18166 -7.24263,-26.53063 -5.95726,-33.27182c2.97381,-15.59628 18.67429,-15.62862 28.91199,-15.62862c3.74235,0 3.58977,75.23282 0,75.23282z"/></g><g data-paper-data="{&quot;index&quot;:null}"><path d="M343.95533,127.66658c10.2377,0 25.93818,0.03233 28.91199,15.62862c1.28537,6.7412 -5.95726,25.09017 -5.95726,33.27182c0,27.11056 -8.29199,26.33237 -22.95472,26.33237c-3.58977,0 -3.74235,-75.23282 0,-75.23282z"/></g></g><g><path d="M342.73948,142.83581c0,16.69413 -4.15162,30.22739 -9.27292,30.22739c-5.1213,0 -21.89989,-23.52295 -21.89989,-40.21708c0,-16.69413 13.6522,-23.07298 18.2069,-24.34488c5.00867,-1.39867 12.96591,17.64043 12.96591,34.33456z" data-paper-data="{&quot;index&quot;:null}"/><path d="M357.80268,108.50125c4.5547,1.2719 18.2069,7.65075 18.2069,24.34488c0,16.69413 -16.77858,40.21708 -21.89988,40.21708c-5.1213,0 -9.27292,-13.53326 -9.27292,-30.22739c0,-16.69413 7.95724,-35.73322 12.9659,-34.33456z" data-paper-data="{&quot;index&quot;:null}"/><path d="M343.78814,138.5977c-10.47742,0 -18.97105,-22.34837 -18.97105,-25.97891c0,-3.63054 8.49363,-6.57367 18.97105,-6.57367c10.47742,0 18.97106,2.94313 18.97106,6.57367c0,3.63054 -8.49363,25.97891 -18.97106,25.97891z" data-paper-data="{&quot;index&quot;:null}"/><path d="M366.94331,149.46578c0,14.99143 -10.36694,27.14437 -23.15519,27.14437c-12.78826,0 -23.15518,-12.15295 -23.15518,-27.14437c0,-14.99143 10.36693,-27.14437 23.15518,-27.14437c12.78826,0 23.15519,12.15295 23.15519,27.14437z"/></g></g><path d="M356.80422,107.92955c0,1.8985 -5.82753,4.54196 -13.01616,4.54196c-7.18863,0 -13.01616,-2.64347 -13.01616,-4.54196c0,-1.8985 5.82753,-3.43754 13.01616,-3.43754c7.18863,0 13.01616,1.53904 13.01616,3.43754z" fill="#000000" stroke="#2b2b2b" stroke-width="0"/><path d="M356.8894,126.36123c0,-6.68144 2.64988,-12.53038 2.44859,-16.48093c-0.14839,-2.9124 -4.15839,-4.7324 -3.59719,-4.7324c6.93829,0 27.82978,7.39931 27.82978,20.6151c0,4.98899 -3.63604,20.03043 -6.45073,32.65284c-1.50987,6.77098 5.41385,29.3731 3.96855,36.15816c-1.79196,8.41245 -19.81834,10.1557 -21.0882,10.1557c-3.3831,0 0.26221,-36.92226 -1.12192,-47.47807c-1.45454,-11.09276 -1.98889,-24.11861 -1.98889,-30.8904z" data-paper-data="{&quot;index&quot;:null}" fill="#770000" stroke="#2b2b2b" stroke-width="0"/><g stroke="#2b2b2b" stroke-width="0"><g data-paper-data="{&quot;index&quot;:null}"><path d="M392.28532,262.73497c-0.78033,0 -1.41292,-0.6326 -1.41292,-1.41293c0,-0.78033 0.63259,-1.41292 1.41292,-1.41292c0.78033,0 1.41292,0.63259 1.41292,1.41292c0,0.78033 -0.63258,1.41293 -1.41292,1.41293z" fill="#4e4e4e"/><path d="M392.28532,254.27457c-0.78033,0 -1.41292,-0.63259 -1.41292,-1.41292c0,-0.78033 0.63259,-1.41292 1.41292,-1.41292c0.78033,0 1.41292,0.63259 1.41292,1.41292c0,0.78033 -0.63258,1.41292 -1.41292,1.41292z" fill="#4e4e4e"/><path d="M392.28532,242.59779c1.55625,0 2.81783,0.38262 2.81783,5.19956c0,4.81695 -1.26158,5.03183 -2.81783,5.03183c-1.55625,0 -2.81783,-0.21489 -2.81783,-5.03183c0,-4.81695 1.26159,-5.19956 2.81783,-5.19956z" fill="#262626"/><path d="M389.46746,256.76046c0,-4.81695 1.26159,-3.71098 2.81783,-3.71098c1.55624,0 2.81783,-1.10596 2.81783,3.71098c0,4.81695 -1.26159,5.19956 -2.81783,5.19956c-1.55624,0 -2.81783,-0.38262 -2.81783,-5.19956z" data-paper-data="{&quot;index&quot;:null}" fill="#262626"/></g><g data-paper-data="{&quot;index&quot;:null}"><path d="M386.51843,263.6328c-0.78033,0 -1.41292,-0.63259 -1.41292,-1.41292c0,-0.78033 0.63259,-1.41292 1.41292,-1.41292c0.78033,0 1.41292,0.63259 1.41292,1.41292c0,0.78033 -0.63258,1.41292 -1.41292,1.41292z" fill="#4e4e4e"/><path d="M386.51843,255.17241c-0.78033,0 -1.41292,-0.63259 -1.41292,-1.41292c0,-0.78033 0.63259,-1.41292 1.41292,-1.41292c0.78033,0 1.41292,0.63259 1.41292,1.41292c0,0.78033 -0.63259,1.41292 -1.41292,1.41292z" fill="#4e4e4e"/><path d="M386.51843,243.49563c1.55624,0 2.81783,0.38262 2.81783,5.19956c0,4.81695 -1.26159,5.03184 -2.81783,5.03184c-1.55624,0 -2.81783,-0.21489 -2.81783,-5.03184c0,-4.81695 1.26159,-5.19956 2.81783,-5.19956z" fill="#262626"/><path d="M383.70059,257.6583c0,-4.81695 1.26159,-3.71098 2.81783,-3.71098c1.55624,0 2.81783,-1.10597 2.81783,3.71098c0,4.81695 -1.26159,5.19956 -2.81783,5.19956c-1.55624,0 -2.81783,-0.38262 -2.81783,-5.19956z" data-paper-data="{&quot;index&quot;:null}" fill="#262626"/></g><g data-paper-data="{&quot;index&quot;:null}"><path d="M380.82059,264.63424c-0.78033,0 -1.41292,-0.63259 -1.41292,-1.41292c0,-0.78033 0.63259,-1.41292 1.41292,-1.41292c0.78033,0 1.41292,0.63259 1.41292,1.41292c0,0.78033 -0.63258,1.41292 -1.41292,1.41292z" fill="#4e4e4e"/><path d="M380.82059,256.17384c-0.78033,0 -1.41292,-0.63259 -1.41292,-1.41292c0,-0.78033 0.63259,-1.41292 1.41292,-1.41292c0.78033,0 1.41292,0.63259 1.41292,1.41292c0,0.78033 -0.63259,1.41292 -1.41292,1.41292z" fill="#4e4e4e"/><path d="M380.82059,244.49707c1.55624,0 2.81783,0.38262 2.81783,5.19956c0,4.81695 -1.26159,5.03184 -2.81783,5.03184c-1.55624,0 -2.81783,-0.2149 -2.81783,-5.03184c0,-4.81695 1.26159,-5.19956 2.81783,-5.19956z" fill="#262626"/><path d="M378.00281,258.65973c0,-4.81695 1.26159,-3.71098 2.81783,-3.71098c1.55624,0 2.81783,-1.10596 2.81783,3.71098c0,4.81695 -1.26159,5.19956 -2.81783,5.19956c-1.55624,0 -2.81783,-0.38262 -2.81783,-5.19956z" data-paper-data="{&quot;index&quot;:null}" fill="#262626"/></g><g data-paper-data="{&quot;index&quot;:null}"><path d="M375.06033,262.72232c-0.78033,0 -1.41292,-0.63258 -1.41292,-1.41292c0,-0.78033 0.63259,-1.41292 1.41292,-1.41292c0.78033,0 1.41292,0.63259 1.41292,1.41292c0,0.78033 -0.63259,1.41292 -1.41292,1.41292z" fill="#4e4e4e"/><path d="M375.06033,254.26192c-0.78033,0 -1.41292,-0.63259 -1.41292,-1.41292c0,-0.78033 0.63259,-1.41292 1.41292,-1.41292c0.78033,0 1.41292,0.63259 1.41292,1.41292c0,0.78033 -0.63259,1.41292 -1.41292,1.41292z" fill="#4e4e4e"/><path d="M375.06033,242.58515c1.55624,0 2.81783,0.38262 2.81783,5.19956c0,4.81695 -1.26159,5.03184 -2.81783,5.03184c-1.55624,0 -2.81783,-0.2149 -2.81783,-5.03184c0,-4.81695 1.26159,-5.19956 2.81783,-5.19956z" fill="#262626"/><path d="M372.24248,256.7478c0,-4.81695 1.26159,-3.71098 2.81783,-3.71098c1.55624,0 2.81783,-1.10596 2.81783,3.71098c0,4.81695 -1.26159,5.19957 -2.81783,5.19957c-1.55624,0 -2.81783,-0.38262 -2.81783,-5.19957z" data-paper-data="{&quot;index&quot;:null}" fill="#262626"/></g><g data-paper-data="{&quot;index&quot;:null}"><path d="M372.01923,232.60146c-0.5899,-0.5899 -0.58991,-1.54632 -0.00001,-2.13623c0.5899,-0.5899 1.54633,-0.58991 2.13623,-0.00001c0.5899,0.5899 0.5899,1.54633 -0.00001,2.13623c-0.5899,0.5899 -1.54632,0.5899 -2.13622,0z" fill="#4e4e4e"/><path d="M363.55362,241.06705c-0.5899,-0.5899 -0.58991,-1.54632 -0.00001,-2.13623c0.5899,-0.5899 1.54633,-0.5899 2.13623,0c0.5899,0.5899 0.5899,1.54632 -0.00001,2.13623c-0.5899,0.5899 -1.54632,0.5899 -2.13622,0z" fill="#4e4e4e"/><path d="M373.43488,231.18576c1.17646,1.17646 1.77687,2.48347 -2.67098,6.93132c-4.44786,4.44786 -5.59999,3.69258 -6.77646,2.51612c-1.17646,-1.17646 -1.93175,-2.3286 2.51611,-6.77646c4.44786,-4.44786 5.75487,-3.84744 6.93133,-2.67098z" fill="#262626"/></g><path d="M390.90367,225.10935c1.69636,1.39635 7.37263,19.48931 2.50436,22.74455c-6.24782,4.17768 -20.31849,2.52133 -21.03636,-3.11177c-0.89705,-7.03911 -0.90519,-17.61471 4.60688,-20.61475c1.35004,-0.73479 4.66368,0.04087 6.16131,0.04087c2.2429,0 5.89215,-0.59954 7.76381,0.94112z" data-paper-data="{&quot;index&quot;:null}" fill="#2b2b2b"/></g><g data-paper-data="{&quot;index&quot;:null}" stroke="#2b2b2b" stroke-width="0"><g data-paper-data="{&quot;index&quot;:null}"><path d="M293.878,261.32204c0,-0.78033 0.63259,-1.41292 1.41292,-1.41292c0.78033,0 1.41292,0.63259 1.41292,1.41292c0,0.78033 -0.63259,1.41293 -1.41292,1.41293c-0.78033,0 -1.41292,-0.6326 -1.41292,-1.41293z" fill="#4e4e4e"/><path d="M293.878,252.86166c0,-0.78033 0.63259,-1.41292 1.41292,-1.41292c0.78033,0 1.41292,0.63259 1.41292,1.41292c0,0.78033 -0.63259,1.41292 -1.41292,1.41292c-0.78033,0 -1.41292,-0.63259 -1.41292,-1.41292z" fill="#4e4e4e"/><path d="M298.10876,247.79736c0,4.81695 -1.26159,5.03183 -2.81783,5.03183c-1.55625,0 -2.81783,-0.21489 -2.81783,-5.03183c0,-4.81695 1.26158,-5.19956 2.81783,-5.19956c1.55625,0 2.81783,0.38262 2.81783,5.19956z" fill="#262626"/><path d="M295.29093,261.96002c-1.55624,0 -2.81783,-0.38262 -2.81783,-5.19956c0,-4.81695 1.26159,-3.71098 2.81783,-3.71098c1.55624,0 2.81783,-1.10596 2.81783,3.71098c0,4.81695 -1.26159,5.19956 -2.81783,5.19956z" data-paper-data="{&quot;index&quot;:null}" fill="#262626"/></g><g data-paper-data="{&quot;index&quot;:null}"><path d="M299.64488,262.21988c0,-0.78033 0.63259,-1.41292 1.41292,-1.41292c0.78033,0 1.41292,0.63259 1.41292,1.41292c0,0.78033 -0.63259,1.41292 -1.41292,1.41292c-0.78033,0 -1.41292,-0.63259 -1.41292,-1.41292z" fill="#4e4e4e"/><path d="M299.64488,253.75949c0,-0.78033 0.63259,-1.41292 1.41292,-1.41292c0.78033,0 1.41292,0.63259 1.41292,1.41292c0,0.78033 -0.63259,1.41292 -1.41292,1.41292c-0.78033,0 -1.41292,-0.63259 -1.41292,-1.41292z" fill="#4e4e4e"/><path d="M303.87564,248.6952c0,4.81695 -1.26159,5.03184 -2.81783,5.03184c-1.55624,0 -2.81783,-0.21489 -2.81783,-5.03184c0,-4.81695 1.26159,-5.19956 2.81783,-5.19956c1.55624,0 2.81783,0.38262 2.81783,5.19956z" fill="#262626"/><path d="M301.05781,262.85786c-1.55624,0 -2.81783,-0.38262 -2.81783,-5.19956c0,-4.81695 1.26159,-3.71098 2.81783,-3.71098c1.55624,0 2.81783,-1.10597 2.81783,3.71098c0,4.81695 -1.26159,5.19956 -2.81783,5.19956z" data-paper-data="{&quot;index&quot;:null}" fill="#262626"/></g><g data-paper-data="{&quot;index&quot;:null}"><path d="M305.34271,263.22131c0,-0.78033 0.63259,-1.41292 1.41292,-1.41292c0.78033,0 1.41292,0.63259 1.41292,1.41292c0,0.78033 -0.63259,1.41292 -1.41292,1.41292c-0.78033,0 -1.41292,-0.63259 -1.41292,-1.41292z" fill="#4e4e4e"/><path d="M305.34271,254.76092c0,-0.78033 0.63259,-1.41292 1.41292,-1.41292c0.78033,0 1.41292,0.63259 1.41292,1.41292c0,0.78033 -0.63259,1.41292 -1.41292,1.41292c-0.78033,0 -1.41292,-0.63259 -1.41292,-1.41292z" fill="#4e4e4e"/><path d="M309.57344,249.69663c0,4.81695 -1.26159,5.03184 -2.81783,5.03184c-1.55624,0 -2.81783,-0.2149 -2.81783,-5.03184c0,-4.81695 1.26159,-5.19956 2.81783,-5.19956c1.55624,0 2.81783,0.38262 2.81783,5.19956z" fill="#262626"/><path d="M306.75562,263.85929c-1.55624,0 -2.81783,-0.38262 -2.81783,-5.19956c0,-4.81695 1.26159,-3.71098 2.81783,-3.71098c1.55624,0 2.81783,-1.10596 2.81783,3.71098c0,4.81695 -1.26159,5.19956 -2.81783,5.19956z" data-paper-data="{&quot;index&quot;:null}" fill="#262626"/></g><g data-paper-data="{&quot;index&quot;:null}"><path d="M311.10299,261.30939c0,-0.78033 0.63259,-1.41292 1.41292,-1.41292c0.78033,0 1.41292,0.63259 1.41292,1.41292c0,0.78033 -0.63259,1.41292 -1.41292,1.41292c-0.78033,0 -1.41292,-0.63258 -1.41292,-1.41292z" fill="#4e4e4e"/><path d="M311.10299,252.849c0,-0.78033 0.63259,-1.41292 1.41292,-1.41292c0.78033,0 1.41292,0.63259 1.41292,1.41292c0,0.78033 -0.63259,1.41292 -1.41292,1.41292c-0.78033,0 -1.41292,-0.63259 -1.41292,-1.41292z" fill="#4e4e4e"/><path d="M315.33375,247.78471c0,4.81695 -1.26159,5.03184 -2.81783,5.03184c-1.55624,0 -2.81783,-0.2149 -2.81783,-5.03184c0,-4.81695 1.26159,-5.19956 2.81783,-5.19956c1.55624,0 2.81783,0.38262 2.81783,5.19956z" fill="#262626"/><path d="M312.51592,261.94737c-1.55624,0 -2.81783,-0.38262 -2.81783,-5.19957c0,-4.81695 1.26159,-3.71098 2.81783,-3.71098c1.55624,0 2.81783,-1.10596 2.81783,3.71098c0,4.81695 -1.26159,5.19957 -2.81783,5.19957z" data-paper-data="{&quot;index&quot;:null}" fill="#262626"/></g><g data-paper-data="{&quot;index&quot;:null}"><path d="M313.4208,232.60147c-0.5899,-0.5899 -0.5899,-1.54633 0,-2.13624c0.5899,-0.5899 1.54633,-0.5899 2.13623,0.00001c0.5899,0.5899 0.5899,1.54633 0,2.13623c-0.5899,0.5899 -1.54632,0.5899 -2.13623,0z" fill="#4e4e4e"/><path d="M321.88639,241.06705c-0.5899,-0.5899 -0.5899,-1.54633 0,-2.13623c0.5899,-0.5899 1.54633,-0.5899 2.13623,0c0.5899,0.5899 0.5899,1.54633 0,2.13623c-0.5899,0.5899 -1.54632,0.5899 -2.13623,0z" fill="#4e4e4e"/><path d="M321.07266,233.85675c4.44786,4.44786 3.69257,5.6 2.51611,6.77646c-1.17646,1.17646 -2.3286,1.93174 -6.77646,-2.51612c-4.44786,-4.44786 -3.84744,-5.75486 -2.67098,-6.93132c1.17646,-1.17646 2.48347,-1.77687 6.93133,2.67098z" fill="#262626"/></g><path d="M304.43638,224.16824c1.49763,0 4.81127,-0.77565 6.16131,-0.04087c5.51207,3.00004 5.50394,13.57565 4.60688,20.61475c-0.71788,5.6331 -14.78855,7.28945 -21.03636,3.11177c-4.86827,-3.25523 0.80801,-21.3482 2.50436,-22.74454c1.87167,-1.54065 5.52091,-0.94111 7.76381,-0.94111z" data-paper-data="{&quot;index&quot;:null}" fill="#2b2b2b"/></g><g fill="#4e4e4e" stroke="#2b2b2b" stroke-width="0"><path d="M332.81487,107.75065v-13.0637h22.25425v13.0637z"/><path d="M355.0691,107.75065c0,1.50109 -4.98179,3.65671 -11.12713,3.65671c-6.14534,0 -11.12713,-2.15563 -11.12713,-3.65671c0,-1.50109 4.98179,-2.71795 11.12713,-2.71795c6.14534,0 11.12713,1.21687 11.12713,2.71795z"/><path d="M343.94199,95.82674c-6.14534,0 -11.12713,-0.5103 -11.12713,-1.13978c0,-0.62949 4.98179,-1.13979 11.12713,-1.13979c6.14534,0 11.12713,0.5103 11.12713,1.13979c0,0.62949 -4.98179,1.13978 -11.12713,1.13978z" data-paper-data="{&quot;index&quot;:null}"/></g><g stroke="#000000" stroke-width="0"><path d="M303.05622,20.65336c0,0 10.6262,12.99942 22.8616,20.47586c9.05942,5.53575 21.4467,11.9187 20.32391,15.88813c-2.6392,9.33042 -20.22537,28.13886 -30.3995,28.77375c-4.03472,0.25177 -14.08943,-6.67941 -17.20729,-16.49284c-4.74427,-14.93251 4.42129,-48.6449 4.42129,-48.6449z" data-paper-data="{&quot;index&quot;:null}" fill="#262626"/><path d="M304.39358,23.89151c0,0 9.57665,11.71548 20.60357,18.45347c8.16463,4.98899 19.3762,11.40502 18.36432,14.98238c-2.37852,8.40886 -18.22772,25.35959 -27.39695,25.93178c-3.63622,0.22691 -12.69782,-6.01968 -15.50773,-14.86385c-4.27567,-13.45763 3.9368,-44.50378 3.9368,-44.50378z" data-paper-data="{&quot;index&quot;:null}" fill="#202020"/></g><g data-paper-data="{&quot;index&quot;:null}" stroke="#000000" stroke-width="0"><path d="M388.94127,69.29826c-3.11786,9.81343 -13.17257,16.74461 -17.20729,16.49284c-10.17414,-0.63489 -27.76031,-19.44333 -30.3995,-28.77374c-1.12278,-3.96942 11.26449,-10.35237 20.32391,-15.88812c12.23541,-7.47643 22.8616,-20.47586 22.8616,-20.47586c0,0 9.16555,33.71239 4.42129,48.6449z" data-paper-data="{&quot;index&quot;:null}" fill="#262626"/><path d="M387.11945,68.3953c-2.80992,8.84416 -11.87151,15.09075 -15.50773,14.86385c-9.16923,-0.57218 -25.01843,-17.52291 -27.39696,-25.93177c-1.01189,-3.57736 10.1997,-9.99339 18.36432,-14.98238c11.02692,-6.73799 20.60357,-18.45346 20.60357,-18.45346c0,0 8.21247,31.04615 3.9368,44.50378z" data-paper-data="{&quot;index&quot;:null}" fill="#202020"/></g><g fill="#2b2b2b" stroke="#000000" stroke-width="0"><path d="M310.03307,71.19716c0,-19.62844 14.77214,-33.55522 33.48028,-33.55522c18.70814,0 33.87408,13.92679 33.87408,33.55523c0,19.62844 -15.16594,35.54043 -33.87408,35.54043c-15.42444,0 -35.37302,-15.44059 -35.16053,-30.84765c0.04724,-3.42573 1.68025,-1.24757 1.68025,-4.69278z"/><path d="M379.22343,75.88995c0.21249,15.40706 -19.73608,30.84765 -35.16053,30.84765c-18.70813,0 -33.87408,-15.91199 -33.87408,-35.54042c0,-19.62844 15.16594,-33.55522 33.87408,-33.55522c18.70813,0 33.48028,13.92679 33.48028,33.55523c0,3.44522 1.63301,1.26706 1.68025,4.69278z" data-paper-data="{&quot;index&quot;:null}"/></g><path d="M311.89079,71.47605c0,-18.89182 14.28093,-31.53206 31.89737,-31.53206c17.61642,0 31.89737,12.64024 31.89737,31.53206c0,18.89182 -14.28093,31.53206 -31.89737,31.53206c-17.61642,0 -31.89737,-12.64024 -31.89737,-31.53206z" fill="#323232" stroke="#000000" stroke-width="0"/><g fill="#2b2b2b" stroke="#000000" stroke-width="0"><path d="M316.25747,73.12971c0,-8.069 7.10274,-15.68959 14.40186,-15.68959c7.29912,0 10.07782,8.0061 10.07782,16.07509c0,8.069 -3.82483,14.14762 -11.12396,14.14762c-7.29912,0 -13.35572,-6.46412 -13.35572,-14.53312z"/><path d="M357.96306,87.66283c-7.29913,0 -11.12396,-6.07862 -11.12396,-14.14762c0,-8.069 2.77869,-16.07509 10.07782,-16.07509c7.29912,0 14.40186,7.62059 14.40186,15.68959c0,8.069 -6.0566,14.53312 -13.35572,14.53312z" data-paper-data="{&quot;index&quot;:null}"/></g><path d="M316.25747,72.53343c0,-7.76234 7.10274,-15.09332 14.40186,-15.09332c1.77617,0 3.28466,0.45605 4.55058,1.25807c0.19276,0.12212 2.11688,-1.28502 2.11688,-1.28502c0,0 -0.75309,2.34573 -0.39437,2.73638c2.685,2.92407 3.80473,7.82721 3.80473,12.75473c0,7.76234 -3.82483,13.60994 -11.12396,13.60994c-2.16655,0 -4.22363,-0.54787 -6.04535,-1.52137c-0.43157,-0.23062 -2.27893,1.18663 -2.27893,1.18663c0,0 0.52644,-2.30361 0.28605,-2.49383c-3.21733,-2.54572 -5.31749,-6.5813 -5.31749,-11.15222z" fill="#000000" stroke="#000000" stroke-width="0"/><path d="M357.963,86.51423c-7.29912,0 -11.12396,-5.84761 -11.12396,-13.60994c0,-7.76234 2.77869,-15.46416 10.07782,-15.46416c7.29912,0 14.40186,7.33098 14.40186,15.09332c0,7.76234 -6.0566,13.98079 -13.35573,13.98079z" data-paper-data="{&quot;index&quot;:null}" fill="#000000" stroke="#000000" stroke-width="0"/><g fill="#000000" stroke="#000000" stroke-width="0"><path d="M344.1226,103.93334c-9.24806,0 -18.86782,-5.64084 -24.77219,-10.41966c-4.33901,-3.51186 -4.78882,-11.07057 -4.78882,-11.07057c0,0 2.58859,6.03927 5.5689,7.16917c0.97238,0.36865 2.953,1.41398 2.953,1.41398c0,0 2.20398,-0.64772 3.42573,-0.64891c0.41602,-0.0004 1.36056,1.28498 1.36056,1.28498c0,0 1.35385,-0.96516 2.05695,-0.99379c4.19829,-0.17093 9.00646,0.082 14.19587,0.082c3.98145,0 4.04025,13.1828 0,13.1828z"/><path d="M343.45369,103.93334c-4.04025,0 -3.98145,-13.1828 0,-13.1828c5.1894,0 9.99757,-0.25293 14.19587,-0.082c0.70311,0.02863 2.05695,0.99378 2.05695,0.99378c0,0 0.94456,-1.28538 1.36056,-1.28497c1.22174,0.00118 3.42573,0.64891 3.42573,0.64891c0,0 1.98062,-1.04533 2.953,-1.41398c2.98031,-1.12991 5.5689,-7.16917 5.5689,-7.16917c0,0 -0.44981,7.55871 -4.78882,11.07057c-5.90438,4.77882 -15.52414,10.41966 -24.77219,10.41966z" data-paper-data="{&quot;index&quot;:null}"/></g><path d="M331.9506,90.78437c0,0 -2.51871,2.2868 -3.34768,6.37774c-0.82896,4.09093 1.42959,6.2449 1.42959,6.2449c0,0 -5.12457,-3.00838 -8.04295,-6.86422c-2.22579,-2.94077 -2.44172,-6.90525 -2.41036,-7.2714c0.44239,0.34116 1.34658,0.9483 1.70114,0.7664c0,0 0.71789,0.64808 1.6782,0.85041c0.74024,0.15596 2.68292,-0.67783 3.49348,-0.42536c0.43977,0.13698 0.67992,0.39473 1.02097,0.62801c0.22198,0.15183 0.18495,0.52455 0.38547,0.55819c0.22814,0.03827 1.63804,-0.93012 1.88267,-0.90879c1.08807,0.09484 2.20945,0.04411 2.20945,0.04411z" fill="#ffffff" stroke="#ff0000" stroke-width="0"/><path d="M357.83509,90.74027c0.24463,-0.02133 1.65453,0.94706 1.88267,0.90879c0.20051,-0.03363 0.1635,-0.40636 0.38547,-0.55819c0.34104,-0.23328 0.58119,-0.49103 1.02097,-0.62801c0.81056,-0.25247 2.75325,0.58132 3.49349,0.42536c0.96031,-0.20233 1.6782,-0.85041 1.6782,-0.85041c0.35457,0.1819 1.25874,-0.42524 1.70114,-0.76641c0.03136,0.36614 -0.18457,4.33062 -2.41036,7.2714c-2.91838,3.85584 -8.04295,6.86422 -8.04295,6.86422c0,0 2.25855,-2.15397 1.42959,-6.24491c-0.82896,-4.09093 -3.34768,-6.37773 -3.34768,-6.37773c0,0 1.12138,0.05073 2.20945,-0.04411z" data-paper-data="{&quot;index&quot;:null}" fill="#ffffff" stroke="#ff0000" stroke-width="0"/><g fill="none" stroke="#2b2b2b" stroke-width="0.5"><path d="M344.10017,103.93334v-0.00001c-9.24806,0 -18.86782,-5.64084 -24.77219,-10.41966c-4.33901,-3.51186 -4.78882,-11.07057 -4.78882,-11.07057c0,0 2.58859,6.03927 5.5689,7.16917c0.97238,0.36865 2.953,1.41398 2.953,1.41398c0,0 2.20398,-0.64772 3.42573,-0.64891c0.41602,-0.0004 1.36056,1.28497 1.36056,1.28497c0,0 1.35385,-0.96515 2.05695,-0.99378c4.19829,-0.17093 9.00646,0.082 14.19587,0.082"/><path d="M343.43126,90.75055c5.1894,0 9.99757,-0.25293 14.19587,-0.082c0.70311,0.02863 2.05695,0.99378 2.05695,0.99378c0,0 0.94456,-1.28538 1.36056,-1.28497c1.22174,0.00118 3.42573,0.64891 3.42573,0.64891c0,0 1.98062,-1.04533 2.953,-1.41398c2.98031,-1.12991 5.5689,-7.16917 5.5689,-7.16917c0,0 -0.44981,7.55871 -4.78882,11.07057c-5.90438,4.77882 -15.52414,10.41966 -24.77219,10.41966l-0.00001,0.00001" data-paper-data="{&quot;index&quot;:null}"/></g><path d="M328.60292,97.16211c-0.82896,4.09093 1.42959,6.2449 1.42959,6.2449c0,0 -5.12457,-3.00838 -8.04295,-6.86422c-0.73459,-0.97057 -1.25027,-2.05264 -1.61038,-3.08006c2.00955,0.35764 5.29808,0.65389 5.96062,0.71295c1.04095,0.09281 2.08301,0.19374 3.12401,0.29072c-0.34784,0.78347 -0.656,1.68446 -0.8609,2.69569z" fill="#ffffff" stroke="#ff0000" stroke-width="0"/><path d="M358.11239,94.46642c1.041,-0.09698 2.08306,-0.19791 3.12401,-0.29072c0.66254,-0.05907 3.95107,-0.35531 5.96062,-0.71295c-0.36011,1.02742 -0.87578,2.10949 -1.61038,3.08005c-2.91838,3.85584 -8.04295,6.86422 -8.04295,6.86422c0,0 2.25855,-2.15397 1.42959,-6.24491c-0.2049,-1.01123 -0.51307,-1.91222 -0.86091,-2.69569z" data-paper-data="{&quot;index&quot;:null}" fill="#ffffff" stroke="#ff0000" stroke-width="0"/><g stroke-width="0"><g stroke="#000000"><path d="M362.47725,43.07302c0,1.23363 -4.01689,2.23369 -18.57793,2.23369c-14.56104,0 -18.80041,-1.00006 -18.80041,-2.23369c0,-1.23363 4.23939,-2.23369 18.80041,-2.23369c14.56104,0 18.57793,1.00006 18.57793,2.23369z" fill="#252525"/><path d="M343.67687,40.83933c14.56104,0 18.80042,1.00006 18.80042,2.23369c0,1.23363 -4.23939,2.23369 -18.80042,2.23369c-14.56104,0 -18.57793,-1.00006 -18.57793,-2.23369c0,-1.23363 4.01689,-2.23369 18.57793,-2.23369z" data-paper-data="{&quot;index&quot;:null}" fill="#222222"/></g><path d="M325.09898,43.08571v-4.49276h37.37835v4.49276z" fill="#222222" stroke="#000000"/><g fill="#202020" stroke="#000000"><path d="M362.47725,38.59295c0,1.23363 -4.01689,2.23369 -18.57793,2.23369c-14.56104,0 -18.80041,-1.00006 -18.80041,-2.23369c0,-1.23363 4.23939,-2.23369 18.80041,-2.23369c14.56104,0 18.57793,1.00006 18.57793,2.23369z"/><path d="M343.67687,36.35927c14.56104,0 18.80042,1.00005 18.80042,2.23368c0,1.23363 -4.23939,2.23369 -18.80042,2.23369c-14.56104,0 -18.57793,-1.00006 -18.57793,-2.23369c0,-1.23363 4.01689,-2.23368 18.57793,-2.23368z" data-paper-data="{&quot;index&quot;:null}"/></g><g fill="#222222" stroke="#000000"><path d="M356.75615,38.15622c0,0.79793 -5.80597,1.44477 -12.968,1.44477c-7.16202,0 -12.96799,-0.64685 -12.96799,-1.44477c0,-0.79793 5.80596,-1.44477 12.96799,-1.44477c7.16202,0 12.968,0.64684 12.968,1.44477z"/><path d="M330.82016,38.15622c0,0 0.25769,-7.82606 -0.43803,-11.76781c-0.67685,-3.83483 -3.68121,-11.57078 -3.68121,-11.57078h16.9652l13.09005,23.3386z"/><path d="M330.82016,38.15622l13.09005,-23.3386h16.9652c0,0 -3.00437,7.73594 -3.68121,11.57078c-0.69572,3.94175 -0.43804,11.76782 -0.43804,11.76782z" data-paper-data="{&quot;index&quot;:null}"/></g><path d="M360.87534,14.81762c0,1.96412 -7.65022,3.55637 -17.08724,3.55637c-9.43702,0 -17.08724,-1.59223 -17.08724,-3.55637c0,-1.96412 7.65022,-3.55636 17.08724,-3.55636c9.43702,0 17.08724,1.59223 17.08724,3.55636z" fill="#202020" stroke="#000000"/><g fill="#770000"><g><g stroke="#000000"><path d="M357.04521,38.67277c0,0.51264 -5.93539,0.92823 -13.25707,0.92823c-7.32167,0 -13.25707,-0.41558 -13.25707,-0.92823c0,-0.51264 5.93539,-0.92823 13.25707,-0.92823c7.32167,0 13.25707,0.41558 13.25707,0.92823z"/><path d="M330.53108,38.67277c0,0 0.26343,-5.02804 -0.44779,-7.56051c-0.69193,-2.46378 26.96194,7.56052 26.96194,7.56052z"/><path d="M330.53108,38.67277c0,0 27.65387,-10.0243 26.96195,-7.56052c-0.71122,2.53248 -0.44781,7.56052 -0.44781,7.56052z" data-paper-data="{&quot;index&quot;:null}"/></g><path d="M343.78814,35.32194c-7.57604,0 -12.96386,-4.21741 -12.96386,-4.48275c0,-0.26534 5.38782,0.67769 12.96386,0.67769c7.57604,0 7.57604,3.80505 0,3.80505z" stroke="#2b2b2b"/></g><g data-paper-data="{&quot;index&quot;:null}"><g stroke="#000000"><path d="M343.78814,37.74453c7.32168,0 13.25707,0.41558 13.25707,0.92823c0,0.51264 -5.9354,0.92823 -13.25707,0.92823c-7.32168,0 -13.25707,-0.41558 -13.25707,-0.92823c0,-0.51264 5.9354,-0.92823 13.25707,-0.92823z"/><path d="M330.53108,38.67277c0,0 27.65388,-10.0243 26.96195,-7.56052c-0.71122,2.53248 -0.4478,7.56051 -0.4478,7.56051z"/><path d="M330.53109,38.67277c0,0 0.26343,-5.02805 -0.4478,-7.56052c-0.69193,-2.46378 26.96194,7.56052 26.96194,7.56052z" data-paper-data="{&quot;index&quot;:null}"/></g><path d="M343.78814,31.51689c7.57604,0 12.96387,-0.94303 12.96387,-0.67769c0,0.26534 -5.38783,4.48275 -12.96387,4.48275c-7.57604,0 -7.57604,-3.80505 0,-3.80505z" stroke="#2b2b2b"/></g></g></g><path d="M332.02772,108.86704v-1.57933h23.97716v1.57933c0,0 -8.128,2.87152 -12.07832,2.87152c-4.04005,0 -11.89885,-2.87152 -11.89885,-2.87152z" fill="url(#color-3)" stroke="#2b2b2b" stroke-width="0"/><path d="M330.68684,126.36122c0,6.77179 -0.53435,19.79764 -1.98889,30.8904c-1.38413,10.55581 2.26118,47.47807 -1.12192,47.47807c-1.26986,0 -19.29624,-1.74325 -21.0882,-10.1557c-1.4453,-6.78506 5.47842,-29.38718 3.96855,-36.15816c-2.81468,-12.62241 -6.45073,-27.66385 -6.45073,-32.65284c0,-13.21579 20.89149,-20.6151 27.82978,-20.6151c0.5612,0 -3.4488,1.82 -3.59719,4.7324c-0.20129,3.95055 2.44859,9.79949 2.44859,16.48093z" data-paper-data="{&quot;index&quot;:null}" fill="#770000" stroke="#2b2b2b" stroke-width="0"/><g><g fill="#1c1c1c" stroke="#000000" stroke-width="0"><path d="M423.11726,179.71429c0,1.54291 -2.4264,2.79368 -5.41953,2.79368c-2.99311,0 -5.41953,-1.25078 -5.41953,-2.79368c0,-1.54291 2.4264,-2.79369 5.41953,-2.79369c2.99311,0 5.41953,1.25078 5.41953,2.79369z"/><g><path d="M412.27028,179.89794l-2.51957,-31.0042h10.19653v31.0042z"/><path d="M415.44824,179.89794v-31.0042h10.19653l-2.51957,31.0042z" data-paper-data="{&quot;index&quot;:null}"/></g></g><g><path d="M415.05609,156.67773c0,-1.45894 1.18271,-2.64164 2.64164,-2.64164c1.45894,0 2.64164,1.18271 2.64164,2.64164c0,1.45894 -1.18271,2.64164 -2.64164,2.64164c-1.45894,0 -2.64164,-1.18271 -2.64164,-2.64164z" fill="#1a1a1a" stroke="#2b2b2b" stroke-width="0"/><path d="M415.44953,156.67773c0,-1.24165 1.00656,-2.24821 2.24821,-2.24821c1.24165,0 2.24821,1.00656 2.24821,2.24821c0,1.24165 -1.00656,2.24821 -2.24821,2.24821c-1.24165,0 -2.24821,-1.00656 -2.24821,-2.24821z" fill="#cba600" stroke="#2b2b2b" stroke-width="0"/><path d="M415.56194,156.67773c0,-1.17957 0.95623,-2.1358 2.1358,-2.1358c1.17957,0 2.1358,0.95623 2.1358,2.1358c0,1.17957 -0.95623,2.1358 -2.1358,2.1358c-1.17957,0 -2.1358,-0.95624 -2.1358,-2.1358z" fill="#ddb400" stroke="#2b2b2b" stroke-width="0"/><text transform="translate(416.52195,158.14434) scale(0.10032,0.10032)" font-size="40" xml:space="preserve" fill="#cda800" fill-rule="nonzero" stroke="none" stroke-width="1" stroke-linecap="butt" stroke-linejoin="miter" stroke-miterlimit="10" stroke-dasharray="" stroke-dashoffset="0" font-family="&quot;I KNOW A GHOST&quot;, Handwriting" font-weight="normal" text-anchor="start" style="mix-blend-mode: normal"><tspan x="0" dy="0">T</tspan></text></g><g stroke="#000000" stroke-width="0"><path d="M408.52454,151.51935v-3.85912h18.34637v3.85912z" fill="#212121"/><path d="M426.87093,151.51935c0,0.82588 -4.10697,1.49541 -9.17318,1.49541c-5.06622,0 -9.17319,-0.66952 -9.17319,-1.49541c0,-0.82588 4.10697,-1.49541 9.17319,-1.49541c5.06622,0 9.17318,0.66952 9.17318,1.49541z" fill="#212121"/><path d="M426.87093,147.66023c0,0.82589 -4.10697,1.49541 -9.17318,1.49541c-5.06622,0 -9.17319,-0.66952 -9.17319,-1.49541c0,-0.82589 4.10697,-1.49541 9.17319,-1.49541c5.06622,0 9.17318,0.66952 9.17318,1.49541z" fill="#1c1c1c"/></g><g stroke="#000000" stroke-width="0"><g><path d="M407.49199,139.46242c0,-5.63648 4.56927,-10.20575 10.20575,-10.20575c5.63648,0 10.20575,4.56927 10.20575,10.20575c0,5.63648 -4.56927,9.09943 -10.20575,9.09943c-5.63648,0 -10.20575,-3.46296 -10.20575,-9.09943z" fill="#727272"/><path d="M409.3174,138.96457c0,-4.81163 3.9006,-8.71222 8.71222,-8.71222c4.81163,0 8.71222,3.9006 8.71222,8.71222c0,4.81163 -3.9006,8.71222 -8.71222,8.71222c-4.81163,0 -8.71222,-3.9006 -8.71222,-8.71222z" fill="#6c6c6c"/></g><g fill="#7e7e7e"><path d="M407.23385,140.59387v-1.36261h20.92777v1.36261z"/><path d="M428.16162,140.59387c0,0.29161 -4.68484,0.52801 -10.46389,0.52801c-5.77905,0 -10.46389,-0.2364 -10.46389,-0.52801c0,-0.29161 4.68484,-0.52802 10.46389,-0.52802c5.77905,0 10.46389,0.2364 10.46389,0.52802z"/><path d="M428.16162,139.23127c0,0.29161 -4.68484,0.52801 -10.46389,0.52801c-5.77905,0 -10.46389,-0.2364 -10.46389,-0.52801c0,-0.29161 4.68484,-0.09612 10.46389,-0.09612c5.77905,0 10.46389,-0.1955 10.46389,0.09612z"/></g></g></g><path d="M357.72419,84.71182c-6.51427,0 -9.92784,-5.21884 -9.92784,-12.14651c0,-6.92768 2.47991,-13.80136 8.99418,-13.80136c6.51427,0 12.85327,6.54271 12.85327,13.47038c0,6.92768 -5.40535,12.47748 -11.91963,12.47748z" data-paper-data="{&quot;index&quot;:null}" fill="#ffffff" stroke="#000000" stroke-width="0"/><path d="M329.85214,84.71181c-6.51428,0 -11.91963,-5.5498 -11.91963,-12.47748c0,-6.92767 6.339,-13.47038 12.85327,-13.47038c6.51427,0 8.99418,6.87367 8.99418,13.80136c0,6.92767 -3.41357,12.14651 -9.92784,12.14651z" data-paper-data="{&quot;index&quot;:null}" fill="#ffffff" stroke="#000000" stroke-width="0"/><g fill="#262626" stroke="#000000" stroke-width="0"><path d="M352.07341,83.86204c0,2.25507 -3.70945,4.08317 -8.28527,4.08317c-4.57583,0 -8.28527,-1.8281 -8.28527,-4.08317c0,-2.25507 3.70945,-4.08318 8.28528,-4.08318c4.57583,0 8.28528,1.8281 8.28528,4.08318z"/><path d="M349.67114,85.60699c0,1.48917 -2.63391,4.28969 -5.88301,4.28969c-3.2491,0 -5.88301,-2.80053 -5.88301,-4.28969c0,-1.48917 2.63391,-2.69638 5.88301,-2.69638c3.2491,0 5.88301,1.20721 5.88301,2.69638z"/></g></g></g></svg>