<svg version="1.1" xmlns="http://www.w3.org/2000/svg" xmlns:xlink="http://www.w3.org/1999/xlink" width="76.33333" height="101" viewBox="0,0,76.33333,101"><defs><radialGradient cx="358.68957" cy="180.85864" r="13.53399" gradientUnits="userSpaceOnUse" id="color-1"><stop offset="0" stop-color="#451f05"/><stop offset="1" stop-color="#311d03"/></radialGradient><linearGradient x1="365.89102" y1="177.21063" x2="367.39932" y2="176.67324" gradientUnits="userSpaceOnUse" id="color-2"><stop offset="0" stop-color="#7f7a5a"/><stop offset="1" stop-color="#b0a385"/></linearGradient><linearGradient x1="365.85203" y1="178.22986" x2="367.43766" y2="178.00724" gradientUnits="userSpaceOnUse" id="color-3"><stop offset="0" stop-color="#7f7a5a"/><stop offset="1" stop-color="#b0a385"/></linearGradient><linearGradient x1="365.64495" y1="179.26524" x2="367.23058" y2="179.04263" gradientUnits="userSpaceOnUse" id="color-4"><stop offset="0" stop-color="#7f7a5a"/><stop offset="1" stop-color="#b0a385"/></linearGradient><linearGradient x1="365.14205" y1="180.21188" x2="366.72767" y2="179.98927" gradientUnits="userSpaceOnUse" id="color-5"><stop offset="0" stop-color="#7f7a5a"/><stop offset="1" stop-color="#b0a385"/></linearGradient><linearGradient x1="363.95694" y1="180.72505" x2="365.63019" y2="180.51667" gradientUnits="userSpaceOnUse" id="color-6"><stop offset="0" stop-color="#7f7a5a"/><stop offset="1" stop-color="#b0a385"/></linearGradient><linearGradient x1="362.50072" y1="180.94147" x2="364.42289" y2="180.89001" gradientUnits="userSpaceOnUse" id="color-7"><stop offset="0" stop-color="#7f7a5a"/><stop offset="1" stop-color="#b0a385"/></linearGradient><linearGradient x1="360.84375" y1="181.24115" x2="362.91453" y2="181.24115" gradientUnits="userSpaceOnUse" id="color-8"><stop offset="0" stop-color="#7f7a5a"/><stop offset="1" stop-color="#b0a385"/></linearGradient><linearGradient x1="353.79088" y1="177.24021" x2="352.28258" y2="176.70282" gradientUnits="userSpaceOnUse" id="color-9"><stop offset="0" stop-color="#7f7a5a"/><stop offset="1" stop-color="#b0a385"/></linearGradient><linearGradient x1="353.82987" y1="178.25943" x2="352.24423" y2="178.03683" gradientUnits="userSpaceOnUse" id="color-10"><stop offset="0" stop-color="#7f7a5a"/><stop offset="1" stop-color="#b0a385"/></linearGradient><linearGradient x1="354.03694" y1="179.29482" x2="352.45132" y2="179.07221" gradientUnits="userSpaceOnUse" id="color-11"><stop offset="0" stop-color="#7f7a5a"/><stop offset="1" stop-color="#b0a385"/></linearGradient><linearGradient x1="354.53984" y1="180.24146" x2="352.95422" y2="180.01885" gradientUnits="userSpaceOnUse" id="color-12"><stop offset="0" stop-color="#7f7a5a"/><stop offset="1" stop-color="#b0a385"/></linearGradient><linearGradient x1="355.72496" y1="180.75463" x2="354.05171" y2="180.54626" gradientUnits="userSpaceOnUse" id="color-13"><stop offset="0" stop-color="#7f7a5a"/><stop offset="1" stop-color="#b0a385"/></linearGradient><linearGradient x1="357.18118" y1="180.97105" x2="355.25901" y2="180.91959" gradientUnits="userSpaceOnUse" id="color-14"><stop offset="0" stop-color="#7f7a5a"/><stop offset="1" stop-color="#b0a385"/></linearGradient><linearGradient x1="358.83815" y1="181.27072" x2="356.76737" y2="181.27072" gradientUnits="userSpaceOnUse" id="color-15"><stop offset="0" stop-color="#7f7a5a"/><stop offset="1" stop-color="#b0a385"/></linearGradient><linearGradient x1="359.77878" y1="179.43749" x2="359.77878" y2="182.30698" gradientUnits="userSpaceOnUse" id="color-16"><stop offset="0" stop-color="#b0a385"/><stop offset="1" stop-color="#7f7a5a"/></linearGradient><linearGradient x1="373.54563" y1="167.99195" x2="373.54563" y2="181.69851" gradientUnits="userSpaceOnUse" id="color-17"><stop offset="0" stop-color="#1e1d1d"/><stop offset="1" stop-color="#000000"/></linearGradient><linearGradient x1="346.13253" y1="167.89335" x2="346.13253" y2="181.5999" gradientUnits="userSpaceOnUse" id="color-18"><stop offset="0" stop-color="#1e1d1d"/><stop offset="1" stop-color="#000000"/></linearGradient><radialGradient cx="359.46611" cy="180.58131" r="13.75585" gradientUnits="userSpaceOnUse" id="color-19"><stop offset="0" stop-color="#9f580b"/><stop offset="1" stop-color="#753e04"/></radialGradient><radialGradient cx="364.29598" cy="184.54405" r="3.06013" gradientUnits="userSpaceOnUse" id="color-20"><stop offset="0" stop-color="#bfbfbf"/><stop offset="1" stop-color="#e2d9b5"/></radialGradient><radialGradient cx="355.25181" cy="184.44014" r="3.06013" gradientUnits="userSpaceOnUse" id="color-21"><stop offset="0" stop-color="#bfbfbf"/><stop offset="1" stop-color="#e2d9b5"/></radialGradient><radialGradient cx="359.85761" cy="184.85693" r="3.06014" gradientUnits="userSpaceOnUse" id="color-22"><stop offset="0" stop-color="#bfbfbf"/><stop offset="1" stop-color="#e2d9b5"/></radialGradient><radialGradient cx="347.10382" cy="181.0337" r="3.06014" gradientUnits="userSpaceOnUse" id="color-23"><stop offset="0" stop-color="#bfbfbf"/><stop offset="1" stop-color="#e2d9b5"/></radialGradient><radialGradient cx="350.81595" cy="183.29263" r="3.06013" gradientUnits="userSpaceOnUse" id="color-24"><stop offset="0" stop-color="#bfbfbf"/><stop offset="1" stop-color="#e2d9b5"/></radialGradient><radialGradient cx="369.24045" cy="183.66804" r="3.06013" gradientUnits="userSpaceOnUse" id="color-25"><stop offset="0" stop-color="#bfbfbf"/><stop offset="1" stop-color="#e2d9b5"/></radialGradient><radialGradient cx="373.17649" cy="181.44629" r="3.06013" gradientUnits="userSpaceOnUse" id="color-26"><stop offset="0" stop-color="#bfbfbf"/><stop offset="1" stop-color="#e2d9b5"/></radialGradient><radialGradient cx="359.57705" cy="182.79999" r="14.97614" gradientUnits="userSpaceOnUse" id="color-27"><stop offset="0" stop-color="#ce720f"/><stop offset="1" stop-color="#7f4304"/></radialGradient><linearGradient x1="359.75153" y1="173.3725" x2="359.75153" y2="189.09578" gradientUnits="userSpaceOnUse" id="color-28"><stop offset="0" stop-color="#601111" stop-opacity="0.76471"/><stop offset="1" stop-color="#601111" stop-opacity="0"/></linearGradient><radialGradient cx="360.18534" cy="186.98602" r="16.34136" gradientUnits="userSpaceOnUse" id="color-29"><stop offset="0" stop-color="#611111" stop-opacity="0.57255"/><stop offset="1" stop-color="#611111" stop-opacity="0"/></radialGradient><linearGradient x1="365.15245" y1="173.17243" x2="365.15245" y2="175.45533" gradientUnits="userSpaceOnUse" id="color-30"><stop offset="0" stop-color="#897f68"/><stop offset="1" stop-color="#625e46"/></linearGradient><linearGradient x1="363.62543" y1="173.15324" x2="363.62543" y2="175.43614" gradientUnits="userSpaceOnUse" id="color-31"><stop offset="0" stop-color="#9a8f75"/><stop offset="1" stop-color="#736e52"/></linearGradient><linearGradient x1="353.08821" y1="173.19352" x2="353.08821" y2="175.47641" gradientUnits="userSpaceOnUse" id="color-32"><stop offset="0" stop-color="#897f68"/><stop offset="1" stop-color="#625e46"/></linearGradient><linearGradient x1="354.81577" y1="173.06165" x2="354.81577" y2="175.34455" gradientUnits="userSpaceOnUse" id="color-33"><stop offset="0" stop-color="#9a8f75"/><stop offset="1" stop-color="#736e52"/></linearGradient><linearGradient x1="356.79093" y1="173.37582" x2="356.79093" y2="176.25425" gradientUnits="userSpaceOnUse" id="color-34"><stop offset="0" stop-color="#9a8f75"/><stop offset="1" stop-color="#736e52"/></linearGradient><linearGradient x1="361.74581" y1="173.33752" x2="361.74581" y2="176.21595" gradientUnits="userSpaceOnUse" id="color-35"><stop offset="0" stop-color="#9a8f75"/><stop offset="1" stop-color="#736e52"/></linearGradient><linearGradient x1="359.23858" y1="172.71018" x2="359.23858" y2="175.41208" gradientUnits="userSpaceOnUse" id="color-36"><stop offset="0" stop-color="#b0a385"/><stop offset="1" stop-color="#7f7a5a"/></linearGradient><linearGradient x1="359.38549" y1="152.10882" x2="359.38549" y2="167.34227" gradientUnits="userSpaceOnUse" id="color-37"><stop offset="0" stop-color="#262626"/><stop offset="1" stop-color="#0a0a0a"/></linearGradient><radialGradient cx="363.22361" cy="169.44235" r="3.06014" gradientUnits="userSpaceOnUse" id="color-38"><stop offset="0" stop-color="#bfbfbf"/><stop offset="1" stop-color="#e2d9b5"/></radialGradient><radialGradient cx="355.08883" cy="169.29908" r="3.06013" gradientUnits="userSpaceOnUse" id="color-39"><stop offset="0" stop-color="#bfbfbf"/><stop offset="1" stop-color="#e2d9b5"/></radialGradient><radialGradient cx="359.41916" cy="169.25625" r="3.06013" gradientUnits="userSpaceOnUse" id="color-40"><stop offset="0" stop-color="#bfbfbf"/><stop offset="1" stop-color="#e2d9b5"/></radialGradient><radialGradient cx="351.03858" cy="169.21552" r="3.06013" gradientUnits="userSpaceOnUse" id="color-41"><stop offset="0" stop-color="#bfbfbf"/><stop offset="1" stop-color="#e2d9b5"/></radialGradient><radialGradient cx="367.42642" cy="169.59899" r="3.06013" gradientUnits="userSpaceOnUse" id="color-42"><stop offset="0" stop-color="#bfbfbf"/><stop offset="1" stop-color="#e2d9b5"/></radialGradient><radialGradient cx="346.11181" cy="145.94843" r="4.50077" gradientUnits="userSpaceOnUse" id="color-43"><stop offset="0" stop-color="#ce720f"/><stop offset="1" stop-color="#7f4304"/></radialGradient><radialGradient cx="345.89446" cy="145.52558" r="3.687" gradientUnits="userSpaceOnUse" id="color-44"><stop offset="0" stop-color="#632d07"/><stop offset="1" stop-color="#4a2b05"/></radialGradient><radialGradient cx="373.66943" cy="145.9107" r="4.50077" gradientUnits="userSpaceOnUse" id="color-45"><stop offset="0" stop-color="#ce720f"/><stop offset="1" stop-color="#7f4304"/></radialGradient><radialGradient cx="373.95468" cy="145.53035" r="3.68701" gradientUnits="userSpaceOnUse" id="color-46"><stop offset="0" stop-color="#632d07"/><stop offset="1" stop-color="#4a2b05"/></radialGradient><radialGradient cx="352.65783" cy="156.80556" r="14.14204" gradientUnits="userSpaceOnUse" id="color-47"><stop offset="0" stop-color="#ce720f"/><stop offset="1" stop-color="#7f4304"/></radialGradient><radialGradient cx="350.85119" cy="166.50439" r="6.81454" gradientUnits="userSpaceOnUse" id="color-48"><stop offset="0" stop-color="#ce720f"/><stop offset="1" stop-color="#7f4304"/></radialGradient><radialGradient cx="372.11888" cy="166.18745" r="5.31334" gradientUnits="userSpaceOnUse" id="color-49"><stop offset="0" stop-color="#ce720f"/><stop offset="1" stop-color="#7f4304"/></radialGradient><linearGradient x1="355.83312" y1="144.42105" x2="363.32735" y2="144.42105" gradientUnits="userSpaceOnUse" id="color-50"><stop offset="0" stop-color="#1f0965"/><stop offset="1" stop-color="#460583"/></linearGradient><linearGradient x1="353.07209" y1="148.71051" x2="364.70787" y2="148.71051" gradientUnits="userSpaceOnUse" id="color-51"><stop offset="0" stop-color="#2f0e9b"/><stop offset="1" stop-color="#53069c"/></linearGradient><linearGradient x1="346.41399" y1="167.02402" x2="346.41399" y2="169.97859" gradientUnits="userSpaceOnUse" id="color-52"><stop offset="0" stop-color="#601111" stop-opacity="0"/><stop offset="1" stop-color="#601111" stop-opacity="0.76471"/></linearGradient><linearGradient x1="371.41463" y1="167.40243" x2="371.41463" y2="170.01194" gradientUnits="userSpaceOnUse" id="color-53"><stop offset="0" stop-color="#601111" stop-opacity="0"/><stop offset="1" stop-color="#601111" stop-opacity="0.76471"/></linearGradient><radialGradient cx="358.26794" cy="165.49014" r="10.11087" gradientUnits="userSpaceOnUse" id="color-54"><stop offset="0" stop-color="#ce720f"/><stop offset="1" stop-color="#7f4304"/></radialGradient><radialGradient cx="358.59352" cy="164.32521" r="7.52111" gradientUnits="userSpaceOnUse" id="color-55"><stop offset="0" stop-color="#632d07"/><stop offset="1" stop-color="#4a2b05"/></radialGradient><radialGradient cx="359.93683" cy="161.87452" r="2.73152" gradientUnits="userSpaceOnUse" id="color-56"><stop offset="0" stop-color="#212121"/><stop offset="1" stop-color="#0f0000"/></radialGradient><linearGradient x1="359.06901" y1="167.29085" x2="359.06901" y2="169.82282" gradientUnits="userSpaceOnUse" id="color-57"><stop offset="0" stop-color="#601111" stop-opacity="0"/><stop offset="1" stop-color="#601111" stop-opacity="0.76471"/></linearGradient></defs><g transform="translate(-321.83333,-129.5)"><g data-paper-data="{&quot;isPaintingLayer&quot;:true}" fill-rule="nonzero" stroke-linecap="butt" stroke-linejoin="miter" stroke-miterlimit="10" stroke-dasharray="" stroke-dashoffset="0" style="mix-blend-mode: normal"><path d="M321.83333,230.5v-101h76.33333v101z" fill="#273042" stroke="none" stroke-width="0"/><path d="M329.75471,196.83333v-61.66667h60.49068v61.66667z" fill="#0b0e13" stroke="none" stroke-width="0"/><path d="M343.08352,227.33333v-17.33333h33.83333v17.33333z" fill="#0b0e13" stroke="#000000" stroke-width="0"/><path d="M342.99996,209.125v-11.25h34.25v11.25z" fill="#273042" stroke="#000000" stroke-width="0"/><text transform="translate(339.02184,206.3125) scale(0.23437,0.23437)" font-size="40" xml:space="preserve" fill="#000000" fill-rule="nonzero" stroke="none" stroke-width="1" stroke-linecap="butt" stroke-linejoin="miter" stroke-miterlimit="10" stroke-dasharray="" stroke-dashoffset="0" font-family="&quot;GovtAgentBB&quot;, Serif" font-weight="normal" text-anchor="start" style="mix-blend-mode: normal"><tspan x="0" dy="0">FredBear</tspan></text><text transform="translate(351.55307,223.17375) scale(0.37559,0.37559)" font-size="40" xml:space="preserve" fill="#545454" fill-rule="nonzero" stroke="none" stroke-width="1" stroke-linecap="butt" stroke-linejoin="miter" stroke-miterlimit="10" stroke-dasharray="" stroke-dashoffset="0" font-family="&quot;Agency FB&quot;, Sans Serif" font-weight="normal" text-anchor="start" style="mix-blend-mode: normal"><tspan x="0" dy="0">OFF</tspan></text><g stroke="none"><g><path d="M375.55159,176.53221c0.11093,8.82869 -9.38741,10.87156 -16.86202,10.87156c-7.47461,0 -14.08866,-4.81623 -14.19959,-11.75903c-0.05775,-3.61431 6.72498,-1.33122 14.19959,-1.33122c7.47461,0 16.8166,-1.3958 16.86202,2.21869z" fill="url(#color-1)" stroke-width="0"/><g stroke-width="0"><path d="M358.52137,179.36693c0,0 0.24773,-0.14611 0.30131,-0.23987c0.05399,-0.09448 0.02141,-0.32489 0.02141,-0.32489h1.85563c0,0 0.04366,0.2434 0.09253,0.34812c0.04493,0.09627 0.18985,0.25698 0.18985,0.25698z" fill="#000000"/><path d="M362.33348,177.20876c0,0.28174 -0.95651,0.66137 -1.36996,1.07115c-0.26626,0.26389 -0.1041,0.44771 -0.30907,0.57482c-0.1563,0.09692 -0.66957,0.08864 -0.90272,0.08864c-0.23953,0 -0.63882,0.01868 -0.89607,-0.16538c-0.16498,-0.11805 -0.09987,-0.386 -0.30241,-0.464c-0.86764,-0.33416 -1.60514,-0.71681 -1.60514,-1.08505c0,-0.60154 1.78992,-0.4034 2.80361,-0.4034c1.01369,0 2.58175,-0.2183 2.58175,0.38323z" fill="#262626"/><path d="M360.74006,177.29952c0,0.30785 -0.17734,0.85235 -0.4932,1.08567c-0.11273,0.08327 -0.40153,0.0741 -0.48503,0.0741c-0.10422,0 -0.26342,0.02307 -0.40319,-0.09622c-0.286,-0.24409 -0.55488,-0.76278 -0.55488,-1.04338c0,-0.41773 0.64059,-0.37315 0.95807,-0.37315c0.31748,0 0.97824,-0.06475 0.97824,0.35298z" fill="#000000"/><path d="M353.43856,177.85419v-1.97664c0,0 3.81019,-0.22187 5.86944,-0.22187c2.37365,0 7.5637,0.22187 7.5637,0.22187l-0.18153,1.99681c0,0 -0.2732,-0.2166 -1.04805,-0.29052c-1.56612,-0.1494 -4.39448,-0.21373 -5.97107,-0.21373c-1.47147,0 -3.94277,-0.00178 -5.28674,0.14021c-0.56374,0.05956 -0.94574,0.34386 -0.94574,0.34386z" fill="#0b0b0b"/></g><g stroke-width="0"><path d="M366.2798,178.70944c0,1.13198 -3.46733,3.35972 -6.57154,3.35972c-3.10422,0 -6.19119,-1.38253 -6.19119,-2.51451c0,-0.56223 -0.62705,-1.23581 0.46213,-1.17585c0.46787,0.02576 0.95015,0.75452 1.81041,0.9283c0.05101,0.0103 2.99437,-0.00602 3.85526,-0.00602c1.2052,0 2.43678,0.13009 3.57014,-0.10986c1.09953,-0.23279 1.90126,-1.00441 2.43629,-1.10915c0.33395,-0.06537 0.62849,0.36123 0.62849,0.62736z" fill="#111111"/><g><path d="M367.74331,177.58126c0,0.34816 0.88387,3.26928 -0.68528,5.56086c-1.27517,1.86225 -6.62604,2.26564 -7.45541,2.26564c-0.64819,0 -3.05516,-0.1087 -5.00914,-0.84796c-1.10083,-0.41648 -1.99715,-1.15722 -2.60303,-1.92146c-0.74248,-1.19125 -0.21733,-5.10329 -0.10357,-5.54289c0.01021,-0.03945 0.15108,2.35403 0.15108,2.33243c0,-0.3597 0.34999,1.35548 2.01442,2.27323c1.73758,0.95809 4.80897,1.12875 5.61363,1.12875c0.86879,0 3.60437,-0.08965 5.44765,-0.95666c1.4993,-0.70522 2.62966,-4.6217 2.62966,-4.29193z" fill="#303030"/><path d="M367.61279,177.21359c0.27826,0.87916 -0.33587,0.63655 -0.64528,0.74679c-0.30941,0.11024 -0.59368,0.86709 -0.87194,-0.01207c-0.27826,-0.87916 -0.36654,-1.43759 -0.05713,-1.54783c0.30941,-0.11024 1.29609,-0.06605 1.57435,0.81312z" fill="url(#color-2)"/><path d="M367.53793,178.57952c0.09549,0.91718 -0.45719,0.55586 -0.78246,0.60153c-0.32527,0.04567 -0.75615,0.72974 -0.85163,-0.18744c-0.09549,-0.91718 -0.19963,-1.46913 0.12564,-1.51479c0.32527,-0.04567 1.41296,0.18353 1.50845,1.10071z" fill="url(#color-3)"/><path d="M367.33085,179.61491c0.09549,0.91718 -0.4572,0.55586 -0.78246,0.60152c-0.32527,0.04567 -0.75615,0.72975 -0.85164,-0.18743c-0.09549,-0.91718 -0.14046,-1.58746 0.18481,-1.63313c0.32527,-0.04567 1.3538,0.30186 1.44929,1.21904z" fill="url(#color-4)"/><path d="M366.82795,180.56155c0.02442,0.23453 -0.24435,0.17324 -0.29005,0.26875c-0.13303,0.27803 -0.25031,0.29878 -0.49241,0.33277c-0.32527,0.04567 -0.75615,0.4635 -0.85164,-0.45368c-0.09549,-0.91718 -0.02213,-1.46913 0.30314,-1.5148c0.32527,-0.04567 1.23547,0.44977 1.33096,1.36695z" fill="url(#color-5)"/><path d="M365.67357,180.88621c0.10077,0.85852 -0.42002,0.68646 -0.76327,0.7292c-0.34325,0.04274 -0.79793,0.43386 -0.89871,-0.42467c-0.10077,-0.85852 0.19518,-1.56901 0.53841,-1.61175c0.34325,-0.04274 1.02278,0.44869 1.12356,1.30721z" fill="url(#color-6)"/><path d="M364.43285,181.26198c0.02314,0.86418 -0.54994,0.6443 -0.94424,0.65485c-0.3943,0.01056 -0.9522,0.35758 -0.97534,-0.50661c-0.02314,-0.86418 0.38846,-1.54397 0.78276,-1.55453c0.3943,-0.01056 1.11368,0.5421 1.13682,1.40628z" fill="url(#color-7)"/><path d="M362.91453,181.61325c0,0.8645 -0.6106,0.62935 -1.03539,0.62935c-0.42478,0 -1.03539,0.33196 -1.03539,-0.53252c0,-0.8645 0.46269,-1.53302 0.88747,-1.53302c0.42478,0 1.18329,0.5717 1.18329,1.4362z" fill="url(#color-8)"/><path d="M353.64346,176.43006c0.30941,0.11024 0.22112,0.66866 -0.05713,1.54782c-0.27826,0.87916 -0.56253,0.12232 -0.87194,0.01208c-0.30941,-0.11024 -0.92354,0.13237 -0.64529,-0.74679c0.27826,-0.87916 1.26495,-0.92335 1.57435,-0.81311z" fill="url(#color-9)"/><path d="M353.65243,177.5084c0.32527,0.04567 0.22114,0.59761 0.12565,1.51479c-0.09549,0.91718 -0.52638,0.23311 -0.85164,0.18744c-0.32527,-0.04567 -0.87795,0.31565 -0.78246,-0.60153c0.09549,-0.91718 1.18319,-1.14637 1.50845,-1.10071z" fill="url(#color-10)"/><path d="M353.80034,178.42545c0.32527,0.04567 0.28029,0.71595 0.1848,1.63313c-0.09549,0.91718 -0.52637,0.2331 -0.85163,0.18743c-0.32527,-0.04567 -0.87795,0.31565 -0.78246,-0.60153c0.09549,-0.91718 1.12402,-1.2647 1.44929,-1.21903z" fill="url(#color-11)"/><path d="M354.18491,179.22418c0.32527,0.04567 0.39863,0.59762 0.30314,1.5148c-0.09549,0.91718 -0.52637,0.49935 -0.85164,0.45368c-0.32527,-0.04567 -0.87795,0.31566 -0.78246,-0.60153c0.09549,-0.91718 1.00569,-1.41262 1.33096,-1.36695z" fill="url(#color-12)"/><path d="M355.13189,179.60857c0.34325,0.04274 0.63918,0.75323 0.53841,1.61175c-0.10077,0.85852 -0.55546,0.46741 -0.8987,0.42466c-0.34325,-0.04274 -0.86404,0.12932 -0.76327,-0.7292c0.10077,-0.85852 0.78031,-1.34996 1.12356,-1.30722z" fill="url(#color-13)"/><path d="M356.38587,179.88528c0.3943,0.01056 0.8059,0.69035 0.78276,1.55453c-0.02314,0.86418 -0.58104,0.51716 -0.97534,0.5066c-0.3943,-0.01056 -0.96738,0.20933 -0.94424,-0.65485c0.02314,-0.86418 0.74252,-1.41683 1.13682,-1.40628z" fill="url(#color-14)"/><path d="M357.95067,180.20663c0.42478,0 0.88747,0.66853 0.88747,1.53303c0,0.8645 -0.6106,0.53252 -1.03539,0.53252c-0.42478,0 -1.03539,0.23514 -1.03539,-0.62935c0,-0.8645 0.75852,-1.4362 1.18331,-1.4362z" fill="url(#color-15)"/><path d="M360.90292,181.75971c0,0.79239 -0.69935,0.54727 -1.12414,0.54727c-0.42478,0 -1.06497,0.30428 -1.06497,-0.48811c0,-0.79239 0.69935,-1.37559 1.12413,-1.37559c0.42478,0 1.06497,0.52403 1.06497,1.31643z" fill="url(#color-16)"/><path d="M367.74202,177.54304c0,0.07799 -0.20879,1.92261 -0.32857,2.31997c-0.24885,0.82554 -0.92474,1.6579 -2.33792,2.26297c-1.57072,0.67253 -4.68324,0.95744 -5.95892,0.95744c-0.897,0 -1.9236,-0.06023 -2.98337,-0.2323c-0.78159,-0.12691 -1.62941,-0.28575 -2.20871,-0.67487c-0.84489,-0.56752 -1.55115,-1.25441 -1.75948,-1.89523c-0.03515,-0.10815 -0.23042,-0.63738 -0.26582,-0.9598c-0.0337,-0.30695 -0.13522,-1.42754 -0.06091,-1.97876c0.06453,-0.47868 0.30436,-0.41413 0.30436,-0.43313c0,-0.00433 -0.08724,0.61615 -0.04343,0.7026c0.10129,0.19988 0.18744,0.17785 0.24048,0.44602c0.01968,0.09949 -0.16649,0.34866 -0.11706,0.54639c0.06021,0.24087 0.22296,0.38487 0.25628,0.61755c0.04089,0.28543 -0.02051,0.49053 -0.00425,0.50959c0.12571,0.14738 0.34799,0.17279 0.42816,0.39383c0.03166,0.08729 0.09251,0.47045 0.36082,0.63625c0.23561,0.1456 0.58332,0.07502 0.64488,0.15256c0.25986,0.32731 0.40315,0.54985 0.67874,0.68992c0.06513,0.03311 0.41949,-0.1386 0.60236,-0.05325c0.23044,0.10756 0.44839,0.28296 0.73553,0.33094c0.31472,0.05259 0.6682,-0.09923 0.77522,-0.08622c0.4536,0.05515 0.67093,0.30563 1.05119,0.31978c0.33083,0.01232 0.58108,-0.15263 0.87532,-0.1269c0.19164,0.01676 0.30731,0.18092 0.50807,0.18092c0.13344,0 0.45288,0.00689 0.63664,-0.00963c0.31608,-0.02842 0.726,-0.14622 1.08649,-0.15694c0.38296,-0.01139 0.7537,0.0639 1.033,0.02493c0.54227,-0.07565 0.51337,-0.24855 1.04088,-0.34964c0.3218,-0.06168 0.60339,0.07568 0.9203,0.03189c0.25126,-0.03472 0.41769,-0.17527 0.64252,-0.25686c0.17107,-0.06208 0.40033,-0.07377 0.58409,-0.07363c0.17237,0.00013 0.30525,-0.31878 0.45852,-0.38231c0.062,-0.0257 0.05948,-0.14279 0.14026,-0.16316c0.23986,-0.06049 0.61106,-0.02238 0.78929,-0.20525c0.12708,-0.13039 0.04344,-0.46213 0.17631,-0.59671c0.07808,-0.07908 0.20837,-0.01848 0.31169,-0.07657c0.0938,-0.05274 0.16196,-0.22365 0.21267,-0.30133c0.05455,-0.08356 -0.03096,-0.29651 0.01747,-0.48002c0.0548,-0.20762 0.23962,-0.3941 0.22706,-0.61917c-0.01269,-0.22735 -0.2456,-0.45809 -0.20893,-0.63521c0.03587,-0.17321 0.21844,-0.13527 0.3131,-0.18509c0.12324,-0.06488 0.22568,-0.20821 0.22568,-0.19155z" fill="#0e0808"/></g></g><path d="M372.68281,181.69851v-13.70655h1.72564v13.70655z" fill="url(#color-17)" stroke-width="0"/><path d="M345.2697,181.5999v-13.70655h1.72564v13.70655z" fill="url(#color-18)" stroke-width="0"/><g stroke-width="0"><path d="M375.55159,175.58926c-0.22187,7.87251 -8.48833,11.8145 -16.08548,11.8145c-7.59715,0 -16.08548,-5.05133 -14.75427,-12.48011c0.34161,-1.90634 0.2072,3.14574 2.64494,6.0266c2.30498,2.72396 7.08588,3.23641 10.77812,3.23641c2.88464,0 9.10023,0.10335 11.97967,-1.90187c4.70398,-3.27584 5.50286,-9.03186 5.43703,-6.69554z" fill="url(#color-19)"/><path d="M364.41889,185.57239c-1.68513,0.12904 -1.80452,0.367 -1.89086,-0.76047c-0.08634,-1.12747 -0.07351,-2.18027 1.61162,-2.30931c1.68513,-0.12904 2.09127,0.49424 2.17761,1.6217c0.08634,1.12747 -0.21323,1.31904 -1.89836,1.44808z" fill="url(#color-20)"/><path d="M353.21346,184.11319c0.03474,-1.13023 0.41197,-1.77142 2.10125,-1.71951c1.68927,0.05192 1.75018,1.10304 1.71544,2.23327c-0.03474,1.13023 -0.16487,0.89799 -1.85415,0.84607c-1.68927,-0.05192 -1.99728,-0.2296 -1.96255,-1.35984z" fill="url(#color-21)"/><path d="M357.79667,184.73764c-0.07966,-1.12795 0.23086,-1.80399 1.91672,-1.92305c1.68587,-0.11905 1.85269,0.92054 1.93234,2.04849c0.07966,1.12796 -0.07328,0.91005 -1.75915,1.0291c-1.68587,0.11905 -2.01027,-0.02659 -2.08992,-1.15455z" fill="url(#color-22)"/><path d="M345.81694,179.41949c0.7867,-0.81223 1.49735,-1.03229 2.71133,0.14353c1.21398,1.17583 0.55126,1.99398 -0.23544,2.80622c-0.7867,0.81223 -0.72654,0.55291 -1.94052,-0.62293c-1.21398,-1.17583 -1.32207,-1.5146 -0.53537,-2.32683z" fill="url(#color-23)"/><path d="M348.93626,182.43911c0.33191,-1.08095 0.86505,-1.5998 2.48067,-1.10372c1.61561,0.49607 1.39685,1.52599 1.06495,2.60694c-0.33191,1.08095 -0.39611,0.8226 -2.01173,0.32652c-1.61561,-0.49607 -1.86579,-0.74878 -1.53388,-1.82973z" fill="url(#color-24)"/><path d="M367.18763,183.8864c-0.26252,-1.09986 -0.06639,-1.81749 1.57749,-2.20985c1.64389,-0.39236 1.97799,0.6061 2.24051,1.70597c0.26252,1.09986 0.0761,0.90983 -1.56779,1.30219c-1.64389,0.39236 -1.9877,0.30156 -2.25022,-0.79832z" fill="url(#color-25)"/><path d="M371.37562,182.45554c-0.67451,-0.90757 -0.77688,-1.64442 0.57958,-2.65255c1.35646,-1.00813 2.05683,-0.22197 2.73134,0.68559c0.67451,0.90757 0.4283,0.80631 -0.92817,1.81444c-1.35646,1.00813 -1.70825,1.06008 -2.38275,0.15252z" fill="url(#color-26)"/><path d="M375.68832,174.53789c0.71201,2.62328 1.1277,9.02032 0.00122,10.47109c-3.25105,4.18694 -11.2405,7.05403 -16.66715,7.05403c-5.60296,0 -12.55855,-3.33151 -15.38946,-7.85388c-1.34808,-2.15355 -0.71452,-6.59902 0.08052,-7.95426c3.19067,-5.4389 0.79377,-2.16351 1.23003,0.47956c0.26768,1.62171 1.34877,4.0612 2.31968,5.1008c2.49147,2.66774 7.4525,3.12798 11.53735,3.12798c4.5919,0 10.69944,-0.43864 14.2375,-3.05489c2.83483,-2.09624 2.28523,-8.71549 2.65031,-7.37043z" fill="url(#color-27)"/></g><path d="M375.79925,174.75976c0.57016,2.10066 0.21075,5.43792 -0.23886,7.90071c-0.3465,0.73196 -0.39391,2.21434 -0.98317,2.7128c-0.55807,0.47208 -1.68709,-0.19057 -2.28235,0.23367c-0.28292,0.20164 -0.87134,1.05003 -1.27906,1.02557c-0.68322,-0.04099 -0.88464,0.94126 -1.59049,0.80903c-1.78197,-0.33381 -4.18383,0.52983 -6.00204,0.94419c-0.77997,0.17775 -2.80914,0.63643 -3.78429,0.70381c-1.35026,0.09331 -2.10001,-0.89148 -3.44961,-0.78903c-0.75763,0.05751 -1.31574,-0.77664 -2.02873,-1.03921c-2.83052,-1.04234 -3.42235,-0.52062 -6.26808,-1.30794c-0.7497,-0.20741 -0.9797,-1.64869 -1.41759,-2.22486c-0.21152,-0.27832 -1.2773,-1.04147 -1.3608,-1.22996c-0.12394,-0.50553 -0.33451,-0.97703 -0.61507,-1.39789c-0.34002,-0.6911 -0.38773,-1.44455 -1.08893,-1.80496c0.14097,-1.26998 0.15224,-1.50679 0.48816,-2.07941c2.4511,-6.91803 0.71981,-2.90308 1.15607,-0.26c0.26768,1.62171 1.34877,4.0612 2.31968,5.1008c2.49147,2.66774 7.45251,2.98007 11.53736,2.98007c4.5919,0 10.32965,-0.29072 13.86772,-2.90698c0.12358,-0.09138 0.53655,-0.48718 0.64762,-0.59472c2.43685,-2.35931 2.0233,-8.06213 2.37246,-6.77571z" fill="url(#color-28)" stroke-width="0"/><path d="M375.65134,174.84428c0.57016,2.10066 0.21075,5.43792 -0.23886,7.9007c-0.3465,0.73196 -0.39392,2.21435 -0.98317,2.71281c-0.55807,0.47208 -1.68709,-0.19058 -2.28234,0.23366c-0.28292,0.20164 -0.87134,1.05003 -1.27906,1.02557c-0.68322,-0.04099 -0.88464,0.94126 -1.5905,0.80903c-1.78197,-0.33381 -4.18383,0.52983 -6.00204,0.9442c-0.77997,0.17775 -2.80914,0.63643 -3.78429,0.70381c-1.35026,0.09331 -2.10001,-0.89148 -3.44961,-0.78903c-0.75763,0.05751 -1.31574,-0.77664 -2.02874,-1.03921c-2.83052,-1.04234 -3.42236,-0.52062 -6.26808,-1.30794c-0.7497,-0.20741 -0.9797,-1.64869 -1.41759,-2.22486c-0.21152,-0.27832 -1.2773,-1.04147 -1.3608,-1.22996c-0.12394,-0.50553 -0.3345,-0.97703 -0.61506,-1.39789c-0.34002,-0.6911 -0.38773,-1.44455 -1.08893,-1.80496c0.14097,-1.26998 0.15223,-1.50679 0.48815,-2.0794c2.4511,-6.91803 0.71981,-2.90308 1.15608,-0.26001c0.26768,1.62171 1.34877,4.0612 2.31968,5.1008c2.49147,2.66774 7.4525,2.98007 11.53735,2.98007c4.5919,0 10.32966,-0.29072 13.86773,-2.90697c0.12358,-0.09138 0.53655,-0.48719 0.64762,-0.59473c2.43685,-2.35931 2.0233,-8.06212 2.37246,-6.7757z" fill="url(#color-29)" stroke-width="0"/><path d="M346.33686,179.00797c0.5826,-0.54423 1.10428,-0.21568 1.37551,-0.14578c0.48726,0.30981 1.18328,0.90631 1.458,1.44472c0.32267,0.63237 -0.21411,1.67335 -0.81131,1.79436c-0.03337,0.00677 -0.1675,-0.72626 -0.52424,-0.90262c-0.27762,-0.13724 -0.6804,0.26096 -0.67691,0.10574c0.03623,-1.61437 0.03468,-0.98318 -0.4946,-0.73637c-0.13495,0.06293 0.04773,-0.11736 0.18143,-0.30417c0.15866,-0.2217 0.28131,-0.46907 0.18623,-0.56205c-0.36296,-0.35496 -0.58431,0.75579 -0.79189,0.4342c-0.18919,-0.29309 0.0199,-0.48589 0.08745,-0.6938c0.0553,-0.17022 -0.05075,-0.37716 0.01033,-0.43423z" fill-opacity="0.8" fill="#611111" stroke-width="0.5"/><path d="M349.56088,182.05773c-0.19433,0.08094 -0.62765,0.23825 -0.62765,0.23825c0,0 0.12945,-0.38518 0.22722,-0.54561c0.08891,-0.14589 0.33532,-0.37752 0.33532,-0.37752c0.36686,-0.24586 0.82338,-0.28805 1.38448,-0.19433c0.82414,0.13765 1.62484,0.59845 1.64146,0.65304l0.04874,-0.02025l0.15359,0.79876c0.15357,0.35349 0.02383,0.77438 -0.31624,0.9763c-0.29543,0.17541 -0.75892,-0.59805 -1.0048,-0.81172l-0.90094,0.489c-0.29618,-0.16834 -0.02579,-0.8726 -0.36132,-0.81793c0,0 -0.5705,0.5056 -0.78153,0.41883z" fill-opacity="0.8" fill="#611111" stroke-width="0.5"/><path d="M353.77794,183.3887c-0.17213,0.12117 -0.53899,0.21452 -0.53899,0.21452l0.14754,-0.81318c0.29164,-0.19272 0.82,-0.47738 1.38806,-0.50768c0.83438,-0.04449 1.90558,0.28048 1.90558,0.28048l0.20495,0.7168c0.22663,0.31173 -0.47278,1.12092 -0.75917,0.96571l-0.63886,-0.28308c-0.32566,-0.10005 -0.70452,0.45639 -1.02018,0.58259c0,0 0.05874,-0.73669 -0.1139,-0.85054c-0.15161,-0.09998 -0.52905,0.42253 -0.63417,0.40435z" fill-opacity="0.8" fill="#611111" stroke-width="0.5"/><path d="M358.44228,184.70073c-0.15315,0.14443 -0.65353,-0.30881 -0.65353,-0.30881l0.08957,-0.76673c0.26128,-0.23223 0.62546,-0.67789 1.18344,-0.78865c0.81957,-0.16268 1.74559,0.11254 1.74559,0.11254c0,0 0.08162,0.0401 0.14277,0.0923c0.05048,0.04309 0.51589,0.40707 0.6445,0.748c0.03771,0.09995 -0.11088,0.2271 -0.18002,0.41511c-0.08315,0.22613 -0.10092,0.50726 -0.19879,0.49667c-0.14725,-0.01594 -0.17663,-0.76526 -0.2879,-0.62584c-0.21431,0.26854 -0.6812,-0.20923 -0.21761,0.6245c0,0 -0.99145,-0.71571 -0.62148,0.01787c0.0228,0.04521 -0.84512,-0.40473 -1.02497,0.13276c0,0 -0.3935,-0.14316 -0.62159,-0.1497z" fill-opacity="0.8" fill="#611111" stroke-width="0.5"/><path d="M362.46649,184.08501l0.08957,-0.85547c0.26128,-0.23223 0.59587,-0.55956 1.15385,-0.67032c0.28372,-0.05632 0.60856,-0.09682 0.91206,-0.08704c0.05729,0.00185 1.0702,0.14041 1.0702,0.14041l0.42613,0.54492c0.00241,0.18759 0.32571,0.71592 0.07902,1.02505c-0.09064,0.11358 -0.58759,-0.51615 -0.7785,-0.53817c-0.26048,-0.03005 -0.20202,0.56962 -0.37835,0.50446l-0.88781,-0.15497c-0.33658,-0.05273 0.17929,0.52776 -0.11522,0.69756c0,0 -0.86683,-0.73481 -1.09491,-0.74134z" fill-opacity="0.8" fill="#611111" stroke-width="0.5"/><path d="M367.4506,184.04646c-0.12084,0.17237 -0.35217,-0.42423 -0.35217,-0.42423l-0.0186,-0.81503c0.09937,-0.1332 0.15612,-0.33368 0.30671,-0.50007c0.16616,-0.18362 0.43372,-0.33218 0.70867,-0.44817c0.76986,-0.32476 1.73687,-0.28122 1.73687,-0.28122c0,0 0.23804,0.06674 0.33691,0.13633c0.11326,0.07971 0.30534,0.31573 0.30534,0.31573c0.3189,0.21643 -0.44809,0.62282 -0.77015,0.5739l-0.06449,0.67381c-0.3403,0.0163 -1.16191,-0.21728 -1.41608,0.00848c0,0 -0.5483,0.72084 -0.773,0.76048z" fill-opacity="0.8" fill="#611111" stroke-width="0.5"/><path d="M372.02347,182.14552c-0.03111,0.20819 -0.76939,0.17455 -0.76939,0.17455c0,0 -0.41267,-0.49144 -0.38383,-1.08845c0.01469,-0.30395 0.36297,-0.78867 0.48784,-0.9344c0.54367,-0.63449 1.38549,-0.91308 1.38549,-0.91308l0.70038,-0.06269c0.382,0.05115 0.91568,0.51653 0.91284,0.91201c-0.00246,0.34357 -1.46896,-0.06546 -1.77894,0.03466l0.41513,0.7504c-0.29716,0.16661 -0.92589,0.33897 -1.05243,0.65451c0,0 0.26623,0.33664 0.08291,0.47249z" fill-opacity="0.8" fill="#611111" stroke-width="0.5"/><path d="M343.67007,181.06898c0,-0.08319 0.06239,-0.104 0.0936,-0.1092c0.01882,-0.09411 0.03764,-0.18823 0.05647,-0.28234c0,0 0.02175,-0.10878 0.13054,-0.08703c0.10878,0.02176 0.08702,0.13054 0.08702,0.13054c-0.02465,0.12326 -0.04931,0.24652 -0.07396,0.36978l-0.18273,0.08918c0,0 -0.11093,0 -0.11093,-0.11093z" fill-opacity="0.8" fill="#611111" stroke-width="0.5"/><path d="M344.77942,183.28766c0,-0.06126 0.04967,-0.11093 0.11093,-0.11093c0.06126,0 0.11093,0.04967 0.11093,0.11093c0,0.06126 -0.04967,0.11094 -0.11093,0.11094c-0.06126,0 -0.11093,-0.04967 -0.11093,-0.11094z" fill-opacity="0.8" fill="#611111" stroke-width="0.5"/><path d="M345.7654,184.85909c-0.0923,0.06153 -0.15384,-0.03077 -0.15384,-0.03077c-0.04102,-0.06153 -0.10689,-0.16034 -0.14791,-0.22187c0,0 -0.06153,-0.09231 0.03077,-0.15384c0.0923,-0.06153 0.15384,0.03077 0.15384,0.03077c0.04102,0.06153 0.08204,0.12308 0.12307,0.18461l0.02484,0.03726c0,0 0.06153,0.09231 -0.03077,0.15384z" fill-opacity="0.8" fill="#611111" stroke-width="0.5"/><path d="M344.22474,182.95486c-0.11093,0 -0.11093,-0.11094 -0.11093,-0.11094c0,-0.14792 0,-0.36978 0,-0.5177c0,0 0,-0.11093 0.11093,-0.11093c0.11093,0 0.11093,0.11093 0.11093,0.11093c0,0.14792 0,0.29583 0,0.44374v0.07395c0,0 0,0.11094 -0.11093,0.11094z" fill-opacity="0.8" fill="#611111" stroke-width="0.5"/><path d="M345.36099,183.76506c-0.10762,0.02691 -0.13453,-0.08071 -0.13453,-0.08071c-0.01794,-0.07175 -0.05602,-0.22408 -0.07395,-0.29583c0,0 -0.0269,-0.10762 0.08072,-0.13453c0.10762,-0.02691 0.13452,0.08072 0.13452,0.08072c0.01794,0.07175 0.03587,0.14349 0.05381,0.21524l0.02015,0.08058c0,0 0.0269,0.10762 -0.08071,0.13453z" fill-opacity="0.8" fill="#611111" stroke-width="0.5"/><path d="M345.99969,184.80376c-0.11093,0 -0.11093,-0.11094 -0.11093,-0.11094c0,-0.07396 0,-0.22187 0,-0.29583c0,0 0,-0.11093 0.11093,-0.11093c0.11093,0 0.11094,0.11093 0.11094,0.11093c0,0.07396 0,0.14791 0,0.22187v0.07396c0,0 0,0.11094 -0.11094,0.11094z" fill-opacity="0.8" fill="#611111" stroke-width="0.5"/><path d="M348.27546,186.78477c-0.09512,0.05707 -0.1522,-0.03805 -0.1522,-0.03805c-0.03805,-0.06342 -0.18382,-0.30636 -0.22187,-0.36979c0,0 -0.05707,-0.09512 0.03805,-0.1522c0.09512,-0.05707 0.1522,0.03805 0.1522,0.03805c0.03805,0.06342 0.0761,0.12683 0.11415,0.19025l0.10772,0.17953c0,0 0.05707,0.09512 -0.03805,0.1522z" fill-opacity="0.8" fill="#611111" stroke-width="0.5"/><path d="M349.31084,187.52433c-0.09512,0.05707 -0.1522,-0.03805 -0.1522,-0.03805c-0.03805,-0.06342 -0.18382,-0.30636 -0.22187,-0.36979c0,0 -0.05707,-0.09512 0.03805,-0.1522c0.09512,-0.05707 0.1522,0.03805 0.1522,0.03805c0.03805,0.06342 0.0761,0.12683 0.11415,0.19025l0.10771,0.17953c0,0 0.05707,0.09512 -0.03805,0.1522z" fill-opacity="0.8" fill="#611111" stroke-width="0.5"/><path d="M349.43866,187.65108c0,-0.06126 0.04967,-0.11093 0.11094,-0.11093c0.06126,0 0.11093,0.04967 0.11093,0.11093c0,0.06126 -0.04967,0.11094 -0.11093,0.11094c-0.06126,0 -0.11094,-0.04967 -0.11094,-0.11094z" fill-opacity="0.8" fill="#611111" stroke-width="0.5"/><path d="M350.40009,187.2813c0,-0.06126 0.04967,-0.11094 0.11093,-0.11094c0.06126,0 0.11094,0.04967 0.11094,0.11094c0,0.06126 -0.04967,0.11094 -0.11094,0.11094c-0.06126,0 -0.11093,-0.04967 -0.11093,-0.11094z" fill-opacity="0.8" fill="#611111" stroke-width="0.5"/><path d="M351.05562,189.08991c-0.10762,0.02691 -0.13453,-0.08071 -0.13453,-0.08071c-0.03587,-0.1435 -0.11204,-0.44815 -0.14792,-0.59165c0,0 -0.0269,-0.10762 0.08071,-0.13453c0.10762,-0.02691 0.13453,0.08071 0.13453,0.08071c0.03587,0.1435 0.07175,0.287 0.10762,0.43049l0.04029,0.16116c0,0 0.0269,0.10762 -0.08072,0.13452z" fill-opacity="0.8" fill="#611111" stroke-width="0.5"/><path d="M353.21042,187.35525c0,-0.06126 0.04967,-0.11094 0.11093,-0.11094c0.06126,0 0.11094,0.04967 0.11094,0.11094c0,0.06126 -0.04967,0.11093 -0.11094,0.11093c-0.06126,0 -0.11093,-0.04967 -0.11093,-0.11093z" fill-opacity="0.8" fill="#611111" stroke-width="0.5"/><path d="M353.13647,188.98229c0,-0.06126 0.04967,-0.11093 0.11093,-0.11093c0.06126,0 0.11093,0.04967 0.11093,0.11093c0,0.06126 -0.04967,0.11094 -0.11093,0.11094c-0.06126,0 -0.11093,-0.04967 -0.11093,-0.11094z" fill-opacity="0.8" fill="#611111" stroke-width="0.5"/><path d="M353.50625,189.94372c0,-0.06126 0.04967,-0.11094 0.11093,-0.11094c0.06126,0 0.11093,0.04967 0.11093,0.11094c0,0.06126 -0.04967,0.11093 -0.11093,0.11093c-0.06126,0 -0.11093,-0.04967 -0.11093,-0.11093z" fill-opacity="0.8" fill="#611111" stroke-width="0.5"/><path d="M356.31659,189.20416c0,-0.06126 0.04967,-0.11093 0.11093,-0.11093c0.06126,0 0.11093,0.04967 0.11093,0.11093c0,0.06126 -0.04967,0.11094 -0.11093,0.11094c-0.06126,0 -0.11093,-0.04967 -0.11093,-0.11094z" fill-opacity="0.8" fill="#611111" stroke-width="0.5"/><path d="M359.26312,190.06729c-0.04962,0.09922 -0.14883,0.04961 -0.14883,0.04961l-0.14791,-0.07395c0,0 -0.09922,-0.04961 -0.04962,-0.14883c0.04962,-0.09922 0.14883,-0.04961 0.14883,-0.04961l0.14792,0.07395c0,0 0.09922,0.04961 0.04961,0.14884z" fill-opacity="0.8" fill="#611111" stroke-width="0.5"/><path d="M360.97583,190.16559c0,-0.06126 0.04967,-0.11094 0.11094,-0.11094c0.06126,0 0.11093,0.04967 0.11093,0.11094c0,0.06126 -0.04967,0.11093 -0.11093,0.11093c-0.06126,0 -0.11094,-0.04967 -0.11094,-0.11093z" fill-opacity="0.8" fill="#611111" stroke-width="0.5"/><path d="M362.60286,190.46141c0,-0.06126 0.04967,-0.11094 0.11093,-0.11094c0.06126,0 0.11093,0.04967 0.11093,0.11094c0,0.06126 -0.04967,0.11094 -0.11093,0.11094c-0.06126,0 -0.11093,-0.04967 -0.11093,-0.11094z" fill-opacity="0.8" fill="#611111" stroke-width="0.5"/><path d="M363.49034,189.35207c0,-0.06126 0.04967,-0.11094 0.11093,-0.11094c0.06126,0 0.11093,0.04967 0.11093,0.11094c0,0.06126 -0.04967,0.11093 -0.11093,0.11093c-0.06126,0 -0.11093,-0.04967 -0.11093,-0.11093z" fill-opacity="0.8" fill="#611111" stroke-width="0.5"/><path d="M364.88654,189.46973c-0.0437,0.10197 -0.14566,0.05826 -0.14566,0.05826c-0.13595,-0.05827 -0.38175,-0.1636 -0.5177,-0.22187c0,0 -0.10197,-0.0437 -0.05827,-0.14566c0.0437,-0.10197 0.14566,-0.05827 0.14566,-0.05827c0.13595,0.05827 0.27192,0.11653 0.40787,0.17479l0.10983,0.04708c0,0 0.10197,0.0437 0.05827,0.14567z" fill-opacity="0.8" fill="#611111" stroke-width="0.5"/><path d="M366.3734,190.00122c0.01646,0.10971 -0.09325,0.12616 -0.09325,0.12616c-0.43883,0.06582 -1.0403,0.15605 -1.47913,0.22187c0,0 -0.1097,0.01646 -0.12616,-0.09325c-0.01248,-0.08318 0.04758,-0.11275 0.07734,-0.1222c0.01367,-0.04578 0.05609,-0.07915 0.10631,-0.07915c0.03787,0 0.0713,0.01897 0.09132,0.04792c0.37825,-0.05674 0.75651,-0.11347 1.13475,-0.17021l0.16264,-0.0244c0,0 0.10971,-0.01646 0.12616,0.09325z" fill-opacity="0.8" fill="#611111" stroke-width="0.5"/><path d="M367.41002,188.90833c0,-0.06126 0.04967,-0.11094 0.11094,-0.11094c0.06126,0 0.11093,0.04967 0.11093,0.11094c0,0.06126 -0.04967,0.11093 -0.11093,0.11093c-0.06126,0 -0.11094,-0.04967 -0.11094,-0.11093z" fill-opacity="0.8" fill="#611111" stroke-width="0.5"/><path d="M368.29749,188.68646c0,0.11094 -0.11093,0.11093 -0.11093,0.11093c-0.07396,0 -0.36978,0 -0.44374,0c0,0 -0.11093,0 -0.11093,-0.11093c0,-0.11094 0.11093,-0.11094 0.11093,-0.11094c0.07396,0 0.1479,0 0.22186,0h0.22187c0,0 0.11093,0 0.11093,0.11094z" fill-opacity="0.8" fill="#611111" stroke-width="0.5"/><path d="M369.70266,187.79899c0,-0.06126 0.04967,-0.11093 0.11094,-0.11093c0.06126,0 0.11093,0.04967 0.11093,0.11093c0,0.06126 -0.04967,0.11094 -0.11093,0.11094c-0.06126,0 -0.11094,-0.04967 -0.11094,-0.11094z" fill-opacity="0.8" fill="#611111" stroke-width="0.5"/><path d="M370.81201,187.2813c0,-0.06126 0.04967,-0.11094 0.11093,-0.11094c0.06126,0 0.11093,0.04967 0.11093,0.11094c0,0.06126 -0.04967,0.11094 -0.11093,0.11094c-0.06126,0 -0.11093,-0.04967 -0.11093,-0.11094z" fill-opacity="0.8" fill="#611111" stroke-width="0.5"/><path d="M371.18178,186.7636c0,-0.06126 0.04967,-0.11093 0.11093,-0.11093c0.06126,0 0.11094,0.04967 0.11094,0.11093c0,0.06126 -0.04967,0.11094 -0.11094,0.11094c-0.06126,0 -0.11093,-0.04967 -0.11093,-0.11094z" fill-opacity="0.8" fill="#611111" stroke-width="0.5"/><path d="M372.58695,186.17195c0,0.11094 -0.11093,0.11093 -0.11093,0.11093h-0.14792c0,0 -0.02268,0 -0.04753,-0.01026c0.00033,0.00072 0.00066,0.00145 0.00099,0.00218c0.04505,0.10137 -0.05631,0.14643 -0.05631,0.14643c-0.20275,0.09011 -0.46286,0.20571 -0.66561,0.29582c0,0 -0.10137,0.04505 -0.14642,-0.05632c-0.04505,-0.10137 0.05631,-0.14643 0.05631,-0.14643c0.20275,-0.09011 0.40549,-0.18022 0.60824,-0.27033l0.05737,-0.0255c0,0 0.04543,-0.02019 0.08899,-0.00313c-0.00437,-0.01216 -0.00696,-0.0265 -0.00696,-0.04342c0,-0.11094 0.11093,-0.11093 0.11093,-0.11093h0.14791c0,0 0.11093,-0.00001 0.11093,0.11093z" fill-opacity="0.8" fill="#611111" stroke-width="0.5"/><path d="M372.80882,186.39382c0,-0.06126 0.04967,-0.11094 0.11093,-0.11094c0.06126,0 0.11093,0.04967 0.11093,0.11094c0,0.06126 -0.04967,0.11093 -0.11093,0.11093c-0.06126,0 -0.11093,-0.04967 -0.11093,-0.11093z" fill-opacity="0.8" fill="#611111" stroke-width="0.5"/><path d="M373.77025,185.65426c0,-0.06126 0.04967,-0.11094 0.11094,-0.11094c0.06126,0 0.11093,0.04967 0.11093,0.11094c0,0.06126 -0.04967,0.11093 -0.11093,0.11093c-0.06126,0 -0.11094,-0.04967 -0.11094,-0.11093z" fill-opacity="0.8" fill="#611111" stroke-width="0.5"/><path d="M375.76707,183.50953c0,-0.06126 0.04967,-0.11094 0.11093,-0.11094c0.06126,0 0.11094,0.04967 0.11094,0.11094c0,0.06126 -0.04967,0.11093 -0.11094,0.11093c-0.06126,0 -0.11093,-0.04967 -0.11093,-0.11093z" fill-opacity="0.8" fill="#611111" stroke-width="0.5"/><path d="M347.99475,187.14365c-0.08423,0.07219 -0.15642,-0.01203 -0.15642,-0.01203c-0.14439,-0.16845 -0.29935,-0.34924 -0.44374,-0.5177c0,0 -0.0722,-0.08423 0.01203,-0.15642c0.08423,-0.07219 0.15643,0.01203 0.15643,0.01203c0.14439,0.16845 0.28878,0.33691 0.43317,0.50537l0.01056,0.01233c0,0 0.0722,0.08423 -0.01203,0.15642z" fill-opacity="0.8" fill="#611111" stroke-width="0.5"/><path d="M362.68848,181.19716c-0.07079,0 -0.09641,-0.04517 -0.10568,-0.07787c-0.33455,0.06313 -0.99221,-0.0412 -1.01337,-0.02805c-0.20931,0.13001 -0.37314,0.4578 -0.61491,0.41025l-0.05344,-0.06451c-0.03107,0.01109 -0.09122,0.02075 -0.13197,-0.04716c-0.02233,-0.03721 -0.02137,-0.06858 -0.01192,-0.093c-0.03544,0.03823 -0.08636,0.06792 -0.14899,0.09051c0.00214,0.13019 -0.17761,0.29064 -0.33937,0.40059l0.02101,0.02802l-0.09771,0.07328c-0.01869,0.01433 -0.04208,0.02286 -0.06745,0.02286c-0.06126,0 -0.11093,-0.04967 -0.11093,-0.11093v-0.06597c-0.17776,0.08437 -0.59982,-0.15045 -0.75521,-0.36297c-0.13434,-0.01981 -0.25101,-0.03943 -0.33539,-0.05329l-0.00641,0.00151c0,0 -0.04987,0 -0.08274,-0.03345c-0.07612,0.02427 -0.14751,0.02091 -0.21332,-0.02472c-0.01533,0.0252 -0.03683,0.03954 -0.03683,0.03954l-0.05705,0.03545c-0.34004,0.33918 -1.47106,0.18536 -1.31565,-0.13577c-0.14202,-0.06254 -0.25435,-0.13649 -0.31174,-0.21479c-0.07096,0.02763 -0.16341,0.03581 -0.26565,0.03307c-0.00155,0.04794 -0.00958,0.10343 -0.0253,0.16735l-0.03305,0.07201c0,0 -0.04961,0.09922 -0.14883,0.04961c-0.09922,-0.04961 -0.04962,-0.14884 -0.04962,-0.14884l0.01625,-0.02659c0.01633,-0.06411 0.02236,-0.10605 0.01894,-0.13205c-0.04035,-0.00505 -0.08092,-0.01078 -0.12114,-0.01678c-0.05606,0.01871 -0.13,0.04605 -0.21882,0.06018c-0.03507,0.0762 -0.12597,0.1238 -0.23012,0.0525c-0.04738,-0.00764 -0.08472,-0.04529 -0.09188,-0.09282c-0.03323,-0.04511 -0.06657,-0.10386 -0.09877,-0.17889c-0.08479,-0.06543 -0.18427,-0.1573 -0.2804,-0.25991c-0.01063,0.00618 -0.02146,0.01219 -0.03249,0.01801l-0.08452,0.11491c-0.34461,0.11437 -0.99262,0.23463 -1.15105,-0.14412c0,0 -0.03416,-0.10247 0.06605,-0.13889c-0.0288,-0.06495 -0.05057,-0.13867 -0.06654,-0.2155c-0.08432,0.02607 -0.18211,0.04206 -0.29428,0.04496l0.00268,0.01335l-0.12101,0.0242c-0.00773,0.0017 -0.01576,0.00261 -0.024,0.00261c-0.06126,0 -0.11093,-0.04967 -0.11093,-0.11094c0,-0.02537 0.00852,-0.04877 0.02286,-0.06746l0.01262,-0.01682c-0.01242,-0.00351 -0.02552,-0.0074 -0.03908,-0.01163l-0.01522,0.01141c-0.01869,0.01433 -0.04209,0.02286 -0.06746,0.02286c-0.01639,0 -0.03195,-0.00356 -0.04595,-0.00994l-0.17031,-0.07299l0.0062,-0.01447l-0.0419,-0.01001c-0.00178,-0.00666 0.00081,-0.04717 0.00718,-0.11121c-0.00718,-0.01797 -0.00614,-0.03618 0.00571,-0.05423c0.00031,-0.00279 0.00062,-0.00562 0.00094,-0.00848c-0.00453,-0.00401 -0.009,-0.00798 -0.01342,-0.01189l0.01959,-0.0418c0.00056,-0.0047 0.00113,-0.00945 0.0017,-0.01426l-0.02644,-0.00529l0.02425,-0.12124c0.00361,-0.02009 0.01262,-0.03831 0.02549,-0.05308c0.01045,-0.07545 0.02251,-0.15669 0.03597,-0.23994c-0.1591,-0.03884 -0.29714,-0.1112 -0.36735,-0.21918c-0.05141,-0.00967 -0.09031,-0.0548 -0.09031,-0.10902c0,-0.02537 0.00852,-0.04877 0.02286,-0.06745l0.03346,-0.04461c0.02872,-0.12327 0.11212,-0.28175 0.2177,-0.44796c-0.04456,-0.0144 -0.0768,-0.05623 -0.0768,-0.10558v-0.09503c-0.21925,-0.26672 -0.16237,-0.50523 0.08305,-0.651l-0.02172,-0.04344l0.14592,-0.07296c0.01542,-0.00812 0.03297,-0.01271 0.0516,-0.01271c0.0378,0 0.07119,0.0189 0.09122,0.04778v-0.26718c0,-0.013 0.00223,-0.02548 0.00635,-0.03708c-0.05175,-0.06442 -0.08768,-0.17234 -0.10958,-0.28654c-0.00271,-0.0029 -0.00528,-0.00595 -0.00767,-0.00913c-0.08347,-0.00756 -0.18787,-0.06265 -0.27746,-0.07606c-0.02,0.01957 -0.04737,0.03163 -0.07756,0.03163c-0.06126,0 -0.11093,-0.04967 -0.11093,-0.11093v-0.0941c-0.02988,0.00944 -0.05803,0.01772 -0.08403,0.02423c0,0 -0.10762,0.02691 -0.13452,-0.08072c-0.0269,-0.10763 0.08071,-0.13452 0.08071,-0.13452c0.19374,-0.04834 0.35839,-0.08244 0.49674,-0.10101l0.00403,-0.01007l0.01803,0.00721c0.00269,-0.00034 0.00537,-0.00066 0.00804,-0.00098l0.01475,-0.05689c0.0784,0.00385 0.13824,0.01692 0.18381,0.0378c0.04376,-0.00266 0.08259,0.00175 0.11294,0.0156c0.02181,0.00351 0.04216,0.00806 0.06112,0.01367l0.09382,-0.0467c0.17966,0.11758 0.16425,0.2651 0.14261,0.38122c0.02613,0.07017 0.04561,0.1465 0.05656,0.22378c0.01106,0.02021 0.01819,0.04695 0.00808,0.0778c0.01108,0.16996 -0.022,0.33614 -0.11895,0.44336l-0.01132,0.01132c0.04174,0.01072 0.07399,0.04512 0.08156,0.08804c0.03067,0.01973 0.051,0.05418 0.051,0.09337v0.12326c-0.00628,0.12445 -0.00813,0.25381 -0.02645,0.37833l0.04999,0.00714l-0.02443,0.17095c-0.00376,0.02971 -0.01927,0.05574 -0.04172,0.07332c0.00115,0.00176 0.00226,0.00356 0.0033,0.00539c0.02131,0.007 0.04181,0.0155 0.06144,0.02538c0.01227,-0.00467 0.02558,-0.00723 0.03949,-0.00723c0.06126,0 0.11094,0.04967 0.11094,0.11093c0,0.00565 -0.00043,0.01121 -0.00124,0.01663c0.12545,0.15279 0.16542,0.38866 0.0739,0.61938c0.31662,0.0364 0.48121,0.36963 0.38612,0.6533c0.21242,-0.22508 0.50959,-0.39614 0.70043,-0.29647c0.06027,0.03148 0.14128,0.12755 0.21944,0.23311c0.04406,0.01469 0.07582,0.05627 0.07582,0.10527c0,0.00023 0,0.00045 0,0.00068c0.05547,0.07965 0.10491,0.15434 0.13826,0.20056c0.01131,0.0597 0.00973,0.11571 -0.00259,0.16782c0.09157,-0.09859 0.18863,-0.18439 0.23168,-0.2131c0.6166,-0.45945 1.20585,0.24484 1.19975,0.67843c0.46404,-0.33831 0.91363,-0.88011 1.44294,-0.18604c0.17158,0.23039 0.23313,0.40646 0.21777,0.53745c0.00268,0.00301 0.0041,0.00489 0.0041,0.00489c0.07645,0.12293 0.58268,-0.47978 0.79368,-0.59714c0.38443,-0.21383 0.84528,-0.03421 1.10348,0.29994c0.17638,0.22113 0.2133,0.37477 0.1585,0.4791c0.00961,-0.00869 0.0172,-0.01324 0.0172,-0.01324c0.02078,-0.01219 0.04156,-0.02437 0.06234,-0.03656c0.01566,-0.07893 0.06946,-0.18676 0.13032,-0.28585v-0.10016h0.03312c-0.04126,-0.32539 0.12428,-0.49629 0.35906,-0.54945c-0.01406,-0.01859 -0.02239,-0.04174 -0.02239,-0.06685c0,-0.06126 0.04967,-0.11094 0.11093,-0.11094h0.12325v0.01251l0.02549,-0.00954c0.00629,0.00306 0.01253,0.0061 0.01873,0.00914c0.08999,-0.08047 0.2482,0.01779 0.3979,0.14088c0.01981,-0.01845 0.04637,-0.02973 0.07557,-0.02973c0.02537,0 0.04877,0.00853 0.06746,0.02286l0.09771,0.07328l-0.0188,0.02507l0.01633,0.02178l-0.01283,0.00962c0.00657,0.00506 0.01294,0.01005 0.01911,0.01498l0.00696,-0.00168c0.00052,0.00287 0.00106,0.00573 0.00159,0.00855c0.08146,0.06599 0.12895,0.12096 0.16395,0.1895l0.0109,0.00654l0.00752,-0.00565l0.01386,0.01848l0.00203,0.00122c0.00618,0.00357 0.01199,0.00771 0.01734,0.01236c0.01373,0.00295 0.02653,0.00843 0.03786,0.01594c0.15123,-0.76677 0.97504,-1.107 1.5478,-0.48898c0.02505,-0.16837 0.11148,-0.40475 0.30742,-0.47627l-0.04892,-0.02936c-0.03323,-0.01916 -0.05561,-0.05506 -0.05561,-0.09617c0,-0.06126 0.04967,-0.11093 0.11093,-0.11093c0.00824,0 0.01628,0.0009 0.024,0.0026l0.12101,0.0242l-0.00083,0.00417l0.01069,-0.00172c0.04845,0.01999 0.09411,0.04126 0.13677,0.06418c0.1407,0.00587 0.31318,0.07249 0.40243,0.15405c0.03121,-0.16631 0.10765,-0.39299 0.19642,-0.46834c0.2776,-0.23568 0.05282,-0.49542 0.40347,-0.72168c0.36344,-0.22379 -0.31572,-2.82941 0.9325,-2.1478c0.11833,0.07312 0.20529,0.08376 0.34117,0.11117l0.00594,0.00395l0.00066,-0.00198l0.14549,0.04849c0.04533,0.01394 0.07828,0.05615 0.07828,0.10605c0,0.04762 -0.03,0.08823 -0.07214,0.10396l-0.08696,0.03478c-0.57875,0.59515 -0.09273,1.17665 -0.64895,1.71404c-0.24734,-0.04331 0.24448,0.05662 0.26481,0.22867c0.05022,0.42508 -0.43695,1.26388 -0.75087,1.39061c0.05314,0.09681 -0.30192,0.19561 -0.36543,0.25488c-0.23757,0.22167 -0.05692,0.54348 -0.50011,0.46996c-0.00536,0.11625 -0.19017,0.24154 -0.29549,0.22482c-0.0457,-0.00725 -0.19267,-0.35429 -0.30838,-0.26029c-0.36921,0.29994 -1.06328,0.77224 -1.46083,0.11114c-0.02839,-0.14988 -0.14074,0.0485 -0.19313,0.12298l0.00476,0.09112c0,0 0,0.11093 -0.11093,0.11093zM357.39651,181.30433c0.03602,0.00277 0.08592,0.006 0.14442,0.00841c-0.03959,-0.01003 -0.07853,-0.02094 -0.11651,-0.03262c-0.01265,0.01428 -0.02537,0.02262 -0.0279,0.02421zM357.38504,181.30343c-0.07233,-0.0077 -0.0611,-0.00491 0,0zM354.31754,180.09333c-0.00659,0.00491 -0.01333,0.00973 -0.02024,0.01446c0.00116,0.00627 0.00234,0.01251 0.00355,0.01871c0.0052,-0.01098 0.01078,-0.02205 0.01669,-0.03316zM353.82918,179.81591c0.02618,-0.02269 0.02181,-0.0196 -0.00237,-0.00177zM353.73696,177.15023c0.00787,-0.01508 0.01409,-0.02992 0.01877,-0.04449c-0.00555,-0.00074 -0.01086,-0.00189 -0.01586,-0.00328c-0.00028,0.01657 -0.00122,0.03254 -0.0029,0.04776zM353.16538,176.76457v-0.03914c-0.00368,-0.00098 -0.00728,-0.00214 -0.0108,-0.00347c0.00444,0.01471 0.00803,0.02925 0.0108,0.04261z" fill-opacity="0.45882" fill="#611111" stroke-width="0.5"/></g><g><g><path d="M365.15245,173.17243c0.50021,0 1.38098,0.01574 1.38098,0.64614c0,0.6304 -1.22817,1.81045 -1.72838,1.81045c-0.50021,0 -0.63276,-1.15621 -0.63276,-1.78661c0,-0.6304 0.47994,-0.66998 0.98016,-0.66998z" fill="url(#color-30)" stroke-width="0"/><path d="M363.62543,173.15324c0.50021,0 1.20348,0.16365 1.20348,0.79405c0,0.6304 -1.05067,1.66254 -1.55088,1.66254c-0.50021,0 -0.63276,-1.15621 -0.63276,-1.78661c0,-0.6304 0.47994,-0.66998 0.98016,-0.66998z" fill="url(#color-31)" stroke-width="0"/><path d="M354.06836,173.8635c0,0.6304 -0.13255,1.78662 -0.63276,1.78662c-0.50021,0 -1.55088,-1.03214 -1.55088,-1.66254c0,-0.6304 0.70328,-0.79406 1.20349,-0.79406c0.50021,0 0.98015,0.03958 0.98015,0.66998z" fill="url(#color-32)" stroke-width="0"/><path d="M355.79593,173.73163c0,0.6304 -0.13256,1.78661 -0.63277,1.78661c-0.50021,0 -1.55088,-1.03213 -1.55088,-1.66254c0,-0.6304 0.70327,-0.79405 1.20348,-0.79405c0.50021,0 0.98016,0.03958 0.98016,0.66998z" fill="url(#color-33)" stroke-width="0"/><path d="M356.79093,173.37582c0.53605,0 1.33074,-0.49709 1.33074,0.29777c0,0.79486 -0.43478,1.88587 -0.97082,1.88587c-0.53605,0 -1.56021,-0.91732 -1.56021,-1.71217c0,-0.79486 0.66425,-0.47146 1.2003,-0.47146z" fill="url(#color-34)" stroke-width="0"/><path d="M362.9461,173.80898c0,0.79486 -1.02416,1.71218 -1.56021,1.71218c-0.53605,0 -0.97082,-1.09101 -0.97082,-1.88587c0,-0.79486 0.79468,-0.29776 1.33073,-0.29776c0.53605,0 1.2003,-0.3234 1.2003,0.47146z" fill="url(#color-35)" stroke-width="0"/><path d="M360.73231,173.59983c0,0.74611 -0.73644,1.87534 -1.39156,1.87534c-0.65512,0 -1.4641,-1.10726 -1.4641,-1.85337c0,-0.74611 0.70681,-0.91161 1.36193,-0.91161c0.65512,0 1.49373,0.14354 1.49373,0.88965z" fill="url(#color-36)" stroke-width="0"/><path d="M368.30374,173.14131c0,0.66721 -0.75698,0.84489 -1.33286,0.32921c-0.36775,-0.32931 -0.68673,0.40677 -0.68673,-0.26045c0,-0.66721 -0.28017,-1.32394 0.2551,-1.32394c0.53526,0 1.7645,0.58797 1.7645,1.25518z" fill="#303030" stroke-width="0"/><path d="M351.86107,171.95876c0.47946,0 0.2285,0.69477 0.2285,1.40064c0,0.70586 -0.28572,-0.07285 -0.61512,0.27554c-0.51583,0.54556 -1.19388,0.35759 -1.19388,-0.34828c0,-0.70586 1.10106,-1.3279 1.58051,-1.3279z" fill="#303030" stroke-width="0"/><path d="M366.62598,171.88921c0,0.13119 0.43266,1.40485 0.02459,1.5472c-0.70101,0.24453 -4.19482,0.27037 -7.64685,0.09952c-0.09332,-0.00462 -6.8328,0.28124 -7.36149,0.06269c-0.37456,-0.15484 0.25975,-1.45231 0.25975,-1.58839c0,-0.55698 2.93005,-0.44374 6.49469,-0.44374c3.56464,0 8.22932,-0.23426 8.22932,0.32271z" fill="#111111" stroke-width="0"/><path d="M368.05417,170.05608c0.24204,2.00354 -0.79305,1.91076 -1.5723,1.91076c-0.77925,0 -0.90859,-0.14926 -0.90859,-0.78125c0,-0.63199 -0.03202,-0.90228 0.74723,-0.90228c0.77925,0 1.65786,-0.85466 1.73366,-0.22724z" fill="#303030" stroke-width="0"/><path d="M351.76606,170.19825c0.77925,0 0.70689,0.06859 0.70689,0.70058c0,0.63199 -0.25036,1.14432 -1.02961,1.14432c-0.77925,0 -1.37061,-0.47199 -1.1689,-1.87043c0.09022,-0.62552 0.71238,0.02554 1.49162,0.02554z" fill="#303030" stroke-width="0"/><path d="M366.9369,168.18858c0.64384,0.0704 1.10934,0.98205 1.10934,1.48969c0,0.50764 0.29904,1.01425 -0.34865,1.01425c-0.64769,0 -1.4263,-0.22135 -1.4263,-0.72899c0,-0.50764 -0.20394,-1.87004 0.66561,-1.77495z" fill="#111111" stroke-width="0"/><path d="M351.86113,171.92564l0.04034,-1.68416c0,0 4.74227,-0.28238 7.12047,-0.28238c2.33466,0 7.22223,0.28238 7.22223,0.28238l0.08068,1.68416z" fill="#262626" stroke-width="0"/><path d="M352.36786,170.02692c0,0.50764 -0.55674,0.34865 -1.20443,0.34865c-0.64769,0 -0.91917,0.00052 -0.91917,-0.50713c0,-0.50764 0.81415,-1.54606 1.45799,-1.61647c0.86955,-0.09509 0.6656,1.2673 0.6656,1.77495z" fill="#111111" stroke-width="0"/><g><path d="M367.19248,167.26006c-1.18833,0.84212 -1.11342,-0.78911 -1.79451,-1.2049c-1.50031,-0.7474 0.16479,-1.85551 1.00497,-0.6295c0.11723,0.23369 0.13166,0.98963 0.28159,1.13044c0.39598,0.3719 1.04284,-0.29229 0.78823,0.72709c0,0 -0.02691,0.10763 -0.13453,0.08072c-0.06857,-0.01714 -0.08253,-0.06705 -0.08363,-0.10101z" fill="#262626" stroke-width="0.5"/><path d="M351.27991,167.43356c-0.0011,0.03396 -0.01506,0.08387 -0.08363,0.10101c-0.10762,0.02691 -0.13453,-0.08071 -0.13453,-0.08071c-0.25461,-1.0194 0.39225,-0.3552 0.78823,-0.7271c0.14992,-0.14081 0.16435,-0.89675 0.28159,-1.13044c0.84018,-1.22601 2.50529,-0.1179 1.00498,0.6295c-0.68109,0.4158 -0.60618,2.04702 -1.79451,1.2049z" fill="#262626" stroke-width="0.5"/><g stroke-width="0"><path d="M357.21103,168.92883v-2.62829h3.82297v2.62829z" fill="#0c0c0c"/><g><path d="M368.13485,167.96883c0,0.45951 -0.6317,0.832 -1.41094,0.832c-0.77925,0 -1.02961,-0.3725 -1.02961,-0.832c0,-0.45951 0.25036,-0.83201 1.02961,-0.83201c0.77925,0 1.41094,0.3725 1.41094,0.83201z" fill="#303030"/><path d="M351.68538,167.19228c0.77925,0 1.02961,0.3725 1.02961,0.83201c0,0.45951 -0.25036,0.832 -1.02961,0.832c-0.77925,0 -1.41095,-0.3725 -1.41095,-0.832c0,-0.45951 0.6317,-0.83201 1.41095,-0.83201z" fill="#303030"/><path d="M358.15077,167.88562c0,0.93433 -0.5215,1.69175 -1.16481,1.69175c-0.64331,0 -1.16481,-0.75742 -1.16481,-1.69175c0,-0.36253 -0.08789,-1.08668 0.04579,-1.36203c0.21085,-0.4343 0.72532,-0.32972 1.11902,-0.32972c0.64331,0 1.16481,0.75742 1.16481,1.69174z" fill="#161616"/><path d="M361.45044,166.13841c0.3937,0 0.90818,-0.10459 1.11902,0.32971c0.13367,0.27535 0.04579,0.99951 0.04579,1.36203c0,0.93433 -0.5215,1.69175 -1.16481,1.69175c-0.64331,0 -1.16481,-0.75742 -1.16481,-1.69175c0,-0.93433 0.5215,-1.69175 1.16481,-1.69175z" fill="#161616"/><path d="M352.12334,168.77086v-1.42982h14.01999v1.42982z" fill="#262626"/></g></g></g><path d="M366.90002,160.90013c0,2.74478 -3.40384,4.96986 -7.6027,4.96986c-4.19885,0 -7.6027,-2.22509 -7.6027,-4.96986c0,-2.70095 2.70438,-8.50774 6.81055,-8.57722c0.06662,-0.00113 2.35214,-0.06086 2.41918,-0.06086c4.19885,0 5.97566,5.89331 5.97566,8.63809z" fill="#000000" stroke-width="0"/><path d="M367.62089,159.72554c0,4.2066 -3.68712,7.61673 -8.23542,7.61673c-4.5483,0 -8.23541,-3.41013 -8.23541,-7.61673c0,-1.54869 0.4276,-3.3059 1.28609,-4.50827c0.32488,-0.45502 0.52429,-0.89568 0.94975,-1.25136c1.50403,-1.25735 3.75946,-1.8571 5.99958,-1.8571c2.14498,0 4.36547,0.58115 5.87395,1.79875c0.32011,0.25838 0.47035,0.64615 0.73456,0.95085c1.13083,1.30417 1.62691,3.06533 1.62691,4.86712zM357.1378,164.93814c0.09281,0 0.40877,0.23419 0.94849,0.21515c0.30788,-0.01086 0.7285,-0.28374 1.12167,-0.27778c0.19892,0.00302 0.82046,0.30299 1.03405,0.30598c1.22747,0.01721 2.24545,-0.29932 3.45132,-0.79002c2.24171,-0.91221 3.42856,-3.35307 3.42856,-3.63925c0,-0.21677 -0.82929,-1.8874 -2.46343,-2.38848c-0.81826,-0.2509 -2.28751,-0.78232 -3.1977,-0.46961c-0.64783,0.22257 0.35177,-3.48312 -0.50411,-5.22154c-0.4695,-0.95362 -2.88294,-0.40533 -3.20016,-0.41491c-0.56559,-0.01708 0.5829,6.59442 0.14738,6.19296c-0.53132,-0.48978 -1.23595,-0.84895 -1.32813,-0.84895c-0.33526,0 -2.08328,0.28374 -3.24929,1.01614c-0.96486,0.60605 -1.40995,1.64989 -1.40995,1.92731c0,0.29933 0.27172,1.5914 1.46837,2.59266c1.2527,1.04817 3.43959,1.80034 3.75294,1.80034z" fill="url(#color-37)" stroke-width="0"/><g><path d="M367.162,161.60004c0.27769,0.16746 0.39981,0.76131 0.26196,1.46588c-0.18417,0.94124 -1.26177,1.838 -1.61378,2.42175c-0.6155,1.02071 -1.11591,1.7731 -1.76459,1.38194c-0.64868,-0.39116 0.29258,-1.29368 0.90809,-2.31438c0.6155,-1.0207 1.55964,-3.34635 2.20832,-2.95518z" fill="#161616" stroke-width="0"/><path d="M353.68733,164.59557c0.6155,1.02071 1.55677,1.92321 0.90809,2.31438c-0.64868,0.39116 -1.14907,-0.36123 -1.76458,-1.38193c-0.35201,-0.58374 -1.42961,-1.48051 -1.61378,-2.42175c-0.13786,-0.70457 -0.01574,-1.29842 0.26195,-1.46588c0.64868,-0.39117 1.59281,1.93448 2.20832,2.95519z" fill="#161616" stroke-width="0"/><g fill="#747474"><g stroke-width="0"><path d="M350.68834,160.69511c-0.1468,-0.34252 -0.08252,-1.18128 0.4183,-1.44321c0.50533,-0.26429 1.44882,0.04798 1.65797,-0.35618c0.17338,-0.33502 0.21362,-2.33471 0.13572,-3.32745c-0.01117,-0.14228 0.07747,-0.39395 -0.04469,-0.49492c-0.13624,-0.11262 -0.36779,-0.10384 -0.32039,-0.147c0.23906,-0.36606 0.28424,-0.5337 0.63358,-0.80805c0.03175,-0.02493 0.55478,0.13017 0.71817,0.77585c0.3007,1.18825 0.31324,3.23227 0.36957,3.18443c0.34037,-0.2891 1.62442,-0.23014 1.67028,-1.41083c0.04756,-1.22436 1.00712,-0.64161 0.92658,-1.43575c-0.11406,-1.12458 -1.09627,-2.9771 -0.7353,-3.08513c0.09868,-0.02954 1.08242,-0.1586 1.51351,-0.22759c0.5884,-0.09418 1.66193,0.08005 1.6737,0.08008c-0.00038,0.00193 -0.03325,0.45399 -0.03325,0.45399c0,0 -1.09605,-0.10937 -1.32412,0.16777c-0.05861,0.07121 0.05622,0.55974 0.17482,1.17983c0.25327,1.32419 0.08424,3.27394 0.10727,4.76411c0.00197,0.12733 0.24347,0.13401 0.26434,0.24521c0.03537,0.18834 0.8777,0.07428 0.92918,0.23909c0.8676,-0.01215 -0.16389,1.62446 -0.16402,2.45296c-0.33531,0.36221 -0.24774,0.50301 -0.46341,0.99092c-0.08725,0.19737 -0.27002,0.19436 -0.35388,0.37704c-0.09755,0.21254 -0.23529,0.68501 -0.19198,0.9254c0.03284,0.18228 -0.04494,0.96142 0.00389,1.07719c0.07018,0.16639 0.29196,0.08707 0.55256,-0.06622c0.15787,-0.09287 0.32999,-0.27139 0.49126,-0.27139c0.02536,0 0.0102,0.40364 0.00752,0.48689c-0.35701,-0.01221 -1.06835,0.4549 -1.42029,0.41125c-3.37978,-0.41923 -6.16158,-2.32255 -7.19691,-4.73825zM356.72762,164.15822c0.21082,0 0.76963,0.03538 1.07244,-0.37974c0.23204,-0.3181 0.25751,-0.68514 0.40402,-1.12493c0.06399,-0.19209 -0.08949,-0.64217 0.12313,-0.77234c0.07912,-0.04844 0.21603,-0.08491 0.26602,-0.19902c0.15829,-0.36129 0.11272,-1.00034 0.11272,-1.12935c0,-0.17211 -0.16323,-0.30391 -0.41156,-0.61716c-0.16314,-0.20579 -0.07941,-0.72637 -0.24186,-0.99035c-0.24072,-0.39117 -0.67913,-0.54693 -0.98559,-0.7733c-0.29251,-0.21607 -0.80802,-0.11521 -0.96794,-0.11521c-0.33384,0 -1.35301,-0.18271 -3.03261,0.90674c-0.98795,0.64082 -0.90556,1.69872 -0.90556,1.97755c0,0.29579 0.5149,1.53655 1.53722,2.24363c1.0952,0.75749 2.7127,0.97347 3.02958,0.97347z"/><path d="M360.64936,165.43091c-0.35194,0.04366 -1.06328,-0.42346 -1.42029,-0.41125c-0.00268,-0.08325 -0.01784,-0.48689 0.00752,-0.48689c0.16127,0 0.33339,0.17853 0.49127,0.2714c0.2606,0.15329 0.48238,0.23261 0.55256,0.06622c0.04883,-0.11577 -0.02895,-0.8949 0.00389,-1.07718c0.04331,-0.24039 -0.09442,-0.71286 -0.19198,-0.92539c-0.08386,-0.18268 -0.26664,-0.17968 -0.35388,-0.37705c-0.21567,-0.48791 -0.21263,-0.64983 -0.54793,-1.01205c-0.00014,-0.82849 -0.5375,-2.66584 0.0229,-2.41476c0.05149,-0.16482 0.79142,-0.0678 0.82678,-0.25615c0.02088,-0.1112 0.26238,-0.11788 0.26434,-0.24521c0.02303,-1.49016 -0.14601,-3.43992 0.10727,-4.76411c0.1186,-0.62008 0.23343,-1.10861 0.17482,-1.17982c-0.22807,-0.27715 -1.32412,-0.16777 -1.32412,-0.16777c0,0 -0.03287,-0.45207 -0.03325,-0.45399c0.01177,-0.00003 1.0853,-0.17426 1.6737,-0.08009c0.43109,0.06899 1.41483,0.19806 1.51351,0.2276c0.36097,0.10803 -0.62124,1.96055 -0.7353,3.08513c-0.08054,0.79414 0.87901,0.2114 0.92657,1.43575c0.04586,1.18069 1.32991,1.12174 1.67029,1.41083c0.05633,0.04783 0.06887,-1.99618 0.36957,-3.18444c0.16339,-0.64568 0.68643,-0.80078 0.71817,-0.77585c0.34934,0.27435 0.39452,0.44199 0.63358,0.80805c0.0474,0.04316 -0.18415,0.03438 -0.32039,0.147c-0.12216,0.10098 -0.03353,0.35264 -0.04469,0.49492c-0.07789,0.99274 -0.03765,2.99243 0.13572,3.32745c0.20916,0.40416 1.15264,0.0919 1.65796,0.35619c0.50081,0.26193 0.5651,1.10067 0.4183,1.4432c-1.03534,2.41571 -3.81714,4.31902 -7.19692,4.73826zM364.83658,163.18231c1.02232,-0.70708 1.53721,-1.94783 1.53721,-2.24363c0,-0.27883 0.0824,-1.33672 -0.90555,-1.97755c-1.6796,-1.08945 -2.69878,-0.90675 -3.03261,-0.90675c-0.15992,0 -0.67543,-0.10086 -0.96794,0.11521c-0.30646,0.22637 -0.74487,0.38214 -0.98559,0.7733c-0.16246,0.26398 -0.07873,0.78456 -0.24187,0.99035c-0.24833,0.31325 -0.41156,0.44504 -0.41156,0.61715c0,0.129 -0.04556,0.76805 0.11272,1.12934c0.05,0.11411 0.1869,0.15059 0.26602,0.19902c0.21263,0.13017 0.05914,0.58024 0.12313,0.77235c0.1465,0.43979 0.17198,0.80683 0.40402,1.12493c0.3028,0.41511 0.86162,0.37974 1.07244,0.37974c0.31687,0 1.93438,-0.21599 3.02958,-0.97347z"/></g><path d="M360.50546,156.98735c-0.0269,0.10762 -0.13453,0.08071 -0.13453,0.08071l-0.11833,-0.02958c-0.66469,-0.16617 -1.37592,-0.23229 -2.04655,-0.05917c0,0 -0.10762,0.0269 -0.13452,-0.08071c-0.0269,-0.10762 0.08072,-0.13453 0.08072,-0.13453c0.71099,-0.17312 1.44983,-0.11691 2.15417,0.05917l0.11833,0.02958c0,0 0.10763,0.02691 0.08073,0.13453z" stroke-width="0.5"/><path d="M360.53835,155.36299c0,0.11094 -0.11093,0.11093 -0.11093,0.11093c-0.74942,0 -1.61718,0 -2.3666,0c0,0 -0.11093,0 -0.11093,-0.11093c0,-0.11094 0.11093,-0.11094 0.11093,-0.11094c0.74942,0 1.49885,0 2.24827,0h0.11833c0,0 0.11093,0 0.11093,0.11094z" stroke-width="0.5"/><path d="M360.65669,154.03178c0,0.11094 -0.11093,0.11093 -0.11093,0.11093c-0.82831,0 -1.77495,0 -2.60325,0c0,0 -0.11093,0 -0.11093,-0.11093c0,-0.11094 0.11093,-0.11094 0.11093,-0.11094c0.82831,0 1.65662,0 2.48493,0h0.11832c0,0 0.11093,0 0.11093,0.11094z" stroke-width="0.5"/><path d="M360.71585,153.46971c0,0.11094 -0.11093,0.11093 -0.11093,0.11093c-0.9072,0 -1.90314,0 -2.81034,0c0,0 -0.11093,0 -0.11093,-0.11093c0,-0.11094 0.11093,-0.11094 0.11093,-0.11094c0.9072,0 1.81439,0 2.72159,0h0.08875c0,0 0.11093,0 0.11093,0.11094z" stroke-width="0.5"/><path d="M361.15744,153.13647c-0.02175,0.10878 -0.13054,0.08703 -0.13054,0.08703l-0.13709,-0.02797c-1.04089,0.00523 -2.06565,-0.23413 -3.10658,-0.06013c0,0 -0.10942,0.01823 -0.12766,-0.09119c-0.01824,-0.10942 0.09118,-0.12766 0.09118,-0.12766c1.05927,-0.176 2.10552,0.05377 3.16492,0.0582l0.15873,0.03119c0,0 0.10878,0.02175 0.08703,0.13053z" stroke-width="0.5"/></g></g></g><path d="M370.18271,161.23638c0,2.4752 -4.29123,4.48174 -9.58473,4.48174c-5.2935,0 -10.91593,-2.71652 -10.91593,-5.19172c0,-2.4752 5.62243,-3.77177 10.91593,-3.77177c5.2935,0 9.58473,2.00655 9.58473,4.48175z" fill="#000000" stroke-width="0"/><g stroke-width="0"><path d="M368.77996,149.51876l0.4507,-0.47947l1.54116,1.44869l-0.4507,0.47947z" fill="#686868"/><path d="M369.34472,148.95401l0.4507,-0.47947l1.54115,1.44868l-0.4507,0.47947z" fill="#686868"/><path d="M370.88493,143.17107l0.59825,-0.59977l5.65501,5.64069l-0.59826,0.59977z" fill="#686868"/><path d="M369.79576,144.13922l0.59825,-0.59977l5.655,5.64069l-0.59825,0.59977z" fill="#686868"/><path d="M369.35202,146.27722l0.35622,-1.08385l4.4448,4.79356l-1.28403,-0.00532z" fill="#686868"/><path d="M371.81275,141.96087l0.59825,-0.59977l5.655,5.64069l-0.59825,0.59978z" fill="#686868"/><path d="M372.90193,141.39612l0.96131,-0.23672l4.68685,4.8339l0.00684,0.92249z" fill="#686868"/><path d="M368.42181,152.7311l2.85614,-2.82545c0,0 0.71024,-0.46288 1.03521,-0.44599c1.02437,0.05324 2.48703,-0.20817 3.88734,-0.94324c1.33152,-0.69896 1.44405,-3.06886 1.842,-3.84438c0.1126,-0.21944 0.56197,-0.24456 0.59129,-0.21847c0.07535,0.06704 0.68889,3.63629 -2.13097,5.11332c-1.23257,0.80648 -3.98906,0.63566 -3.98906,0.63566c0,0 -0.37696,0.19916 -0.61127,0.41842c-0.59338,0.55526 -3.02309,2.98251 -3.02309,2.98251z" fill="#747474"/><path d="M366.33919,150.7572l3.09573,-3.11385c0,0 -0.13882,-3.42407 0.76385,-4.58802c1.56292,-2.01528 4.55566,-2.25178 4.61645,-2.1713c0.02366,0.03132 0.31477,0.62695 0.08702,0.7216c-0.80491,0.3345 -2.91091,0.48038 -3.71436,1.75159c-0.84496,1.33688 -0.6843,3.62659 -0.71334,4.65194c-0.00921,0.32528 -0.3681,0.5233 -0.3681,0.5233l-2.93439,2.75079z" fill="#747474"/></g><g stroke-width="0"><path d="M348.91688,151.63924l-0.38596,-0.53297l1.71311,-1.2406l0.38596,0.53297z" fill="#686868"/><path d="M348.42865,151.00716l-0.38596,-0.53297l1.71311,-1.2406l0.38596,0.53297z" fill="#686868"/><path d="M343.02325,148.70908l-0.517,-0.67108l6.32735,-4.87453l0.517,0.67108z" fill="#686868"/><path d="M343.98025,149.80807l-0.517,-0.67108l6.32736,-4.87454l0.517,0.67108z" fill="#686868"/><path d="M346.51528,150.33694l-1.27425,-0.15826l5.01913,-4.18843l0.21528,1.12039z" fill="#686868"/><path d="M342.25712,147.39058l-0.517,-0.67108l6.32735,-4.87454l0.517,0.67108z" fill="#686868"/><path d="M341.26416,146.57167l0.12428,-0.91411l5.26432,-4.19761l0.92334,0.35722z" fill="#686868"/><path d="M350.01114,154.4374c0,0 -2.10079,-2.71693 -2.61862,-3.34324c-0.20448,-0.24731 -0.553,-0.49287 -0.553,-0.49287c0,0 -2.75581,-0.18164 -3.87562,-1.13853c-2.60878,-1.82413 -1.54565,-5.28619 -1.46237,-5.34308c0.0324,-0.02214 0.4749,0.06002 0.55864,0.29201c0.29593,0.81988 0.10572,3.18482 1.33738,4.04766c1.29529,0.90743 2.71276,1.35299 3.73556,1.43066c0.32447,0.02463 0.96997,0.5742 0.96997,0.5742l2.47303,3.16621z" fill="#747474"/><path d="M352.00007,152.35353l-2.56014,-3.10211c0,0 -0.33075,-0.24213 -0.29846,-0.56593c0.10177,-1.02069 0.55274,-3.27129 -0.11506,-4.7049c-0.635,-1.36318 -2.70526,-1.77609 -3.46103,-2.21039c-0.21384,-0.12288 0.15077,-0.67659 0.17822,-0.70464c0.07054,-0.07208 3.0088,0.54365 4.30232,2.74158c0.74709,1.26943 0.1733,4.64795 0.1733,4.64795l2.67395,3.48277z" fill="#747474"/></g><path d="M365.24489,169.8621c-0.08634,1.12746 -0.49248,1.75075 -2.17761,1.6217c-1.68513,-0.12904 -1.69796,-1.18185 -1.61162,-2.30931c0.08634,-1.12747 0.20573,-0.88952 1.89086,-0.76048c1.68513,0.12904 1.98471,0.32062 1.89837,1.44809z" fill="url(#color-38)" stroke-width="0"/><path d="M353.03763,169.53222c0.01713,-1.13064 0.33297,-1.29402 2.02284,-1.26842c1.68987,0.02561 1.83053,-0.20043 1.8134,0.93021c-0.01713,1.13064 -0.12618,2.17786 -1.81605,2.15226c-1.68987,-0.02561 -2.03731,-0.68341 -2.02018,-1.81405z" fill="url(#color-39)" stroke-width="0"/><path d="M357.35821,169.37555c0.07966,-1.12795 0.40404,-1.2736 2.08992,-1.15455c1.68587,0.11905 1.83881,-0.09885 1.75915,1.02911c-0.07965,1.12796 -0.24647,2.16753 -1.93234,2.04848c-1.68586,-0.11906 -1.99638,-0.79509 -1.91672,-1.92305z" fill="url(#color-40)" stroke-width="0"/><path d="M351.00332,168.18047c1.69,0.01432 1.82914,-0.21265 1.81957,0.91808c-0.00958,1.13073 -0.11165,2.17865 -1.80165,2.16433c-1.69,-0.01432 -2.04183,-0.6698 -2.03224,-1.80053c0.00957,-1.13072 0.32432,-1.2962 2.01432,-1.28188z" fill="url(#color-41)" stroke-width="0"/><path d="M365.3822,169.88693c-0.01313,-1.13069 0.29825,-1.30245 1.98819,-1.32207c1.68995,-0.01962 1.8245,-0.24932 1.83763,0.88136c0.01312,1.13069 -0.06789,2.18045 -1.75783,2.20007c-1.68995,0.01962 -2.05486,-0.62867 -2.06798,-1.75936z" fill="url(#color-42)" stroke-width="0"/><g fill="none" stroke-width="1" font-family="sans-serif" font-weight="normal" font-size="12" text-anchor="start"/><path d="M342.51511,140.89706c1.80137,-1.17938 5.82328,-2.00202 7.76792,2.10627c1.32103,2.79084 0.72332,5.14959 -1.52907,6.80503c-2.19837,1.61575 -5.21769,1.2577 -6.86659,-0.60237c0,0 -1.22001,-2.16805 -1.25938,-4.23555c-0.03459,-1.81656 1.04462,-3.52179 1.88712,-4.07338z" fill="url(#color-43)" stroke-width="0"/><path d="M343.67914,148.31139c-2.21881,-2.50296 -1.29517,-5.01827 0.03557,-5.88953c1.33074,-0.87125 3.59183,-1.08548 5.02841,1.94947c0.97591,2.0617 0.8509,2.70065 -0.81302,3.92359c-1.62402,1.19361 -3.03284,1.39057 -4.25095,0.01647z" fill="url(#color-44)" stroke-width="0"/><path d="M370.4167,149.27221c-1.94246,-2.01011 -2.13566,-4.43573 -0.3648,-6.96515c2.60681,-3.72346 6.4335,-2.23722 8.01128,-0.77214c1.57779,1.46508 2.30977,5.46061 -1.21997,8.29638c0,0 -0.93804,1.03001 -2.13907,1.16176c-1.43848,0.15779 -3.25422,-0.65163 -4.28744,-1.72084z" fill="url(#color-45)" stroke-width="0"/><path d="M375.67083,148.64855c-1.43153,1.15008 -2.78728,0.71938 -4.18784,-0.72996c-1.43497,-1.48495 -1.45092,-2.13581 -0.14271,-4.00439c1.92575,-2.75066 4.11876,-2.15985 5.28433,-1.07754c1.16557,1.08231 1.65377,3.71701 -0.95378,5.81189z" fill="url(#color-46)" stroke-width="0"/><path d="M373.31538,161.23234c0.01438,0.50466 0.20075,1.33401 -0.46677,1.97321c-0.04744,0.04542 0.88873,1.19932 0.04421,1.57654c-2.95177,1.31845 -9.67829,1.37099 -14.30794,1.37099c-4.72197,0 -10.34214,0.42635 -12.66592,-1.54988c-0.28764,-0.24462 0.16322,-0.63225 0.0346,-1.22209c-0.16026,-0.73502 -1.25025,-0.82649 -0.95813,-2.30723c-0.2688,-1.80749 1.5864,-7.88503 4.40735,-10.52509c2.51545,-2.35416 7.26882,-2.48991 9.99034,-2.39876c5.67735,0.19017 6.87862,0.17503 9.64299,2.41505c3.41897,2.77047 4.21588,8.44297 4.27927,10.66728zM361.20276,160.75162c0,1.26349 0.34425,1.86644 1.66753,2.19225c1.38982,0.00195 2.44822,0.832 3.4051,-0.64827c0.71542,-0.53338 0.82864,-2.70236 0.19455,-3.33646c-1.20761,-0.80507 -2.16069,-0.81594 -3.56028,-0.46044c-0.47763,0.28658 -1.49652,0.6052 -1.668,1.23089c-0.02436,0.08887 -0.0205,0.19264 -0.00492,0.30165c-0.00245,0.2441 -0.03305,0.47774 -0.03397,0.72037zM353.46201,163.28035c1.16942,0.03879 1.90049,-0.53869 2.88972,-1.0333c1.08963,-0.72383 1.32094,-1.0264 1.00769,-2.3074c-0.25486,-0.99187 -1.52119,-1.42092 -2.48343,-1.41441c-1.01229,-0.25307 -1.60752,0.05801 -2.49808,0.27555c0,0 -0.10763,0.0269 -0.08072,0.13452c0.00096,0.00384 0.00202,0.0075 0.00318,0.011c-0.11633,0.12212 -0.20425,0.41194 -0.26361,0.65795c-0.35764,0.71982 -0.24301,2.13051 0.10865,2.6134c0.11048,0.14477 0.25257,0.24401 0.39403,0.3451c0.06475,0.06467 0.13493,0.12742 0.20975,0.1895c0.07526,0.09253 0.1588,0.16089 0.2518,0.19604c0.1438,0.10659 0.29881,0.21515 0.46103,0.33205z" fill="url(#color-47)" stroke-width="0"/><path d="M353.92565,166.25083c0,0.80491 0.06313,2.09092 -1.97586,2.7563c-1.35799,0.44314 -3.55126,-0.34036 -4.97781,0.06993c-1.48575,0.42732 -2.86888,1.34264 -3.62678,1.19974c-0.55836,-0.10528 0.03407,-3.60859 0.14257,-3.78285c1.43014,-2.29689 3.39362,-3.11727 6.0322,-3.1591c10.17759,-0.16136 4.40567,0.60533 4.40567,2.91598z" fill="url(#color-48)" stroke-width="0"/><path d="M370.08211,164.28571c2.62691,0.25138 4.09492,0.03814 5.52507,2.33503c0.1085,0.17425 0.70093,3.67757 0.14257,3.78285c-0.7579,0.1429 -2.14103,-0.77241 -3.62678,-1.19974c-1.42656,-0.41029 -3.42965,0.81695 -4.78764,0.37381c-2.03899,-0.66538 -1.97586,-2.01477 -1.97586,-2.81968c0,-2.31065 -1.17893,-3.037 4.72264,-2.47225z" fill="url(#color-49)" stroke-width="0"/><g stroke-width="0"><path d="M355.63591,147.74908c0,0 0.09402,-0.89995 0.02572,-1.72369c-0.12007,-1.44795 -0.43258,-3.27865 -0.42735,-3.99564c0.0034,-0.46508 0.45094,-1.03533 0.45094,-1.03533h7.64215c0,0 0.29582,0.61091 0.29582,1.13399c0,0.66478 -0.29196,2.5567 -0.37421,3.94553c-0.06309,1.06531 0.07839,1.77376 0.07839,1.77376z" fill="url(#color-50)"/><path d="M355.76419,149.07011v-1.95244h7.45479v1.95244z" fill="#000000"/><path d="M365.54604,149.10494c-0.18297,1.14272 -3.44293,1.701 -6.65606,1.701c-3.21313,0 -5.83157,-0.24844 -5.86719,-1.40516c-0.02632,-0.8546 0.09074,-1.63989 2.13011,-1.84456c1.13086,-0.11349 2.3377,-0.05366 3.83569,-0.05366c1.76571,0 2.98684,-0.16612 4.3756,0.08367c2.46783,0.44389 2.31512,0.68645 2.18186,1.51871z" fill="url(#color-51)"/></g><path d="M348.78867,167.55444c0.09488,0.28465 0.04312,0.49599 -0.05615,0.64815c0.10635,0.13288 0.37475,0.47212 0.37475,0.65555c0,0.27382 -1.61342,0.05361 -1.61342,0.05361l-1.57714,0.52732c-0.06887,-0.01563 -0.83653,0.32354 -0.85661,0.38075c0,0 -0.21074,0.35323 -0.9053,0.00594c-0.69456,-0.34728 -0.34728,-1.04184 -0.34728,-1.04184c0.29265,-0.49886 0.40293,-1.16664 0.87796,-1.49659c0.3965,-0.27541 0.96242,-0.07731 1.44364,-0.11597h1.35311l0.32418,-0.10806c0,0 0.73669,-0.24556 0.98226,0.49113z" fill="url(#color-52)" stroke-width="0.5"/><path d="M374.52858,169.97447c-0.16059,0.22214 -2.11972,-0.61087 -2.33657,-0.73484c-1.2002,-0.15773 -1.57553,0.08035 -2.09305,0.09329c0,0 -0.45152,0.06938 -0.89772,0.17347c-0.48003,0.11199 -1.05789,0.15639 -1.12077,0.14157c-0.23134,-0.05452 1.09897,-0.35789 1.08625,-0.86713c-0.00127,-0.05074 0.00086,-0.09825 0.00595,-0.14272c-0.00408,-0.03227 -0.00619,-0.06517 -0.00619,-0.09856c0,-0.37313 0.26317,-0.6848 0.61403,-0.75951l1.2419,-0.29221l0.0062,0.02634c0.0451,-0.01671 0.09076,-0.03215 0.13704,-0.04621c0.63256,-0.19219 1.24321,0.06402 1.78395,0.43476l0.10518,0.02337c0.27684,0.05552 0.50047,0.25825 0.58577,0.52306c0.12852,0.11166 0.25008,0.22048 0.36371,0.3195l0.25796,0.1404c0,0 0.7213,0.43609 0.26635,1.0654z" fill="url(#color-53)" stroke-width="0.5"/><path d="M348.96435,169.9327c0.14884,-0.29767 0.59442,-0.50382 0.59442,-0.50382c0.36428,0.18357 0.46019,0.63112 0.73627,0.86524c0.22567,0.19137 0.51043,-0.11273 0.835,-0.08048c0.04136,0.00411 0.2182,0.02403 0.2746,0.12353c0.04737,0.08357 -0.02509,0.24941 0.00786,0.25264c0.15313,-0.00736 0.30639,-0.01417 0.46036,-0.01146l0.022,-0.011l0.17749,-0.61154c0.18381,0 0.45113,0.56316 0.45113,0.74696c0,0.13286 -0.76744,0.56249 -0.87,0.5596c-0.55647,0.17851 -1.85877,-0.13026 -2.15227,-0.2765c0,0 -0.68571,-0.75549 -0.53687,-1.05317z" fill-opacity="0.8" fill="#611111" stroke-width="0.5"/><path d="M356.80739,170.2877c-0.0192,0.10299 -0.05945,0.21218 -0.12158,0.32026c-0.26282,0.45716 -0.91718,0.89434 -2.02645,0.75781c-0.56155,-0.06912 -0.97347,-0.1792 -1.22031,-0.39596c-0.34614,-0.30396 -0.39624,-0.73192 -0.32998,-0.79818c0.23532,-0.23532 0.97356,0.5029 0.97356,0.5029c0.54849,0.56327 0.66789,-0.43084 1.3612,-0.80191l0.73956,0.56207c0,0 0.68501,-0.47416 0.624,-0.147z" fill-opacity="0.8" fill="#611111" stroke-width="0.5"/><path d="M357.96877,170.15511c0.09746,-0.08095 0.22715,-0.08096 0.22715,-0.08096l0.56299,-0.37902c0.44285,0.23702 2.23362,0.05576 2.2534,0.80026c-0.33191,1.07614 -2.26429,0.92252 -2.855,0.63319c-0.02516,-0.01068 -0.0912,-0.05548 -0.17223,-0.11439c-0.16941,-0.12317 -0.40434,-0.30802 -0.46823,-0.37191c0,0 -0.23532,-0.23533 0,-0.47066c0.19587,-0.19587 0.39174,-0.06568 0.45192,-0.01652z" fill-opacity="0.8" fill="#611111" stroke-width="0.5"/><path d="M361.56093,170.61402c0,-0.15427 0.07151,-0.23702 0.14823,-0.28142c0.14716,-0.23024 0.38145,-0.67237 0.38145,-0.67237l0.34805,1.0403c0.70955,0.01895 0.21776,-0.83347 0.93419,-0.83347l0.70997,0.82831c0.11458,0 0.86646,-0.9479 0.92632,-0.85976c0.02093,0.01422 0.04015,0.71114 0.0573,0.72964c0.05507,0.05937 0.08875,0.13888 0.08875,0.22626c0,0.02826 -0.6515,0.88508 -1.9744,0.73718c-1.44176,-0.16118 -1.61988,-0.82715 -1.61988,-0.91467z" fill-opacity="0.8" fill="#611111" stroke-width="0.5"/><path d="M367.03655,171.64964c-0.44901,-0.00974 -0.88621,-0.1146 -1.26619,-0.38613l-0.01961,-0.04412l-0.0113,0.00848c0,0 -0.50423,-0.95695 -0.272,-1.05838c0.24196,-0.10568 0.40006,0.723 0.84247,0.70408c0.30601,-0.01308 -0.17207,-0.79744 0.17468,-0.88703c0.27511,-0.07109 0.64463,0.52268 1.01875,0.56446c0.37014,0.04133 0.95186,-0.92175 1.24408,-0.98696c0.27735,-0.06189 0.27336,0.77305 0.32784,0.83872c0.28762,0.34662 -0.1306,0.84218 -0.71152,1.08401c-0.55309,0.23024 -1.26195,0.21666 -1.32721,0.16288z" fill-opacity="0.8" fill="#611111" stroke-width="0.5"/><g><path d="M368.88594,168.34273c-0.05428,1.72644 -4.59019,1.43494 -10.17426,1.43494c-5.58408,0 -9.55342,-0.38942 -10.08206,-0.95663c-2.03769,-2.18641 5.63394,-6.93576 9.85731,-6.82318c5.48708,0.54161 10.51545,2.64176 10.39901,6.34487z" fill="url(#color-54)" stroke-width="0"/><path d="M358.88226,161.9656c2.32216,0.0619 5.73296,0.81538 7.87357,2.57122c0.61739,0.50641 -0.65278,0.83669 -0.87849,1.06678c-0.22571,0.23009 -0.96339,0.4334 -1.58006,0.53835c-0.61667,0.10495 -1.94846,0.06903 -2.35651,0.20505c-0.95548,-0.00492 -1.42545,-0.05098 -2.19975,-0.82528c-0.40528,-0.14159 -0.75338,-0.15129 -1.15699,-0.06351c-0.47981,0.10436 -0.00269,0.97512 -1.86412,0.6686c-1.08891,-0.08885 -3.01368,0.08553 -3.91997,-0.52599c-0.75347,-0.36999 -1.26649,-0.65431 -1.08635,-1.44831c0.14932,-0.65814 5.16181,-2.24041 7.16867,-2.18691z" fill="url(#color-55)" stroke-width="0"/><path d="M361.78574,162.61408c0,0.15994 0.10962,0.50398 -0.18715,0.58319c-0.44103,0.11772 -1.30307,0.04766 -1.6522,0.28052c-0.37786,0.25204 -0.45522,0.59896 -0.58943,0.88416c-0.21234,0.45127 -0.34459,0.80362 -0.34459,0.80362c0,0 -0.08001,-0.2534 -0.18806,-0.6548c-0.0997,-0.37041 -0.20681,-0.87782 -0.67669,-1.17525c-0.38095,-0.24114 -1.1779,-0.12833 -1.61178,-0.17592c-0.35557,-0.03901 -0.11194,-0.30524 -0.11194,-0.50854c0,-0.85774 1.13352,-1.36819 2.44056,-1.36819c1.30703,0 2.92127,0.47347 2.92127,1.33121z" fill="url(#color-56)" stroke-width="0"/><path d="M360.34142,169.78202c-1.74072,0.07676 -8.46487,-0.255 -8.46487,-0.255l-0.68971,-0.16399c-0.04537,-0.0293 -0.4971,0.07333 -0.53532,0.03548c-0.40044,-0.02415 -0.86913,-0.32136 -1.26956,-0.34551c0,0 -1.16577,-0.08088 -1.11903,-0.85601c0.04674,-0.77514 1.75866,-0.72839 1.75866,-0.72839c1.6788,0.10124 3.35759,0.20247 5.03639,0.30371c0.3743,0.0023 0.74867,0.00496 1.12313,0.00794c0.13373,-0.23016 0.92847,-0.48773 1.21344,-0.48938l1.0745,0.87691c2.6298,-0.01789 5.14415,-0.98942 7.69824,-0.64979l-0.00128,-0.18811l1.55216,-0.01056c0.00206,-0.00001 0.00411,-0.00002 0.00617,-0.00002c0.42887,0 1.22028,0.38181 1.22028,0.81068c0,0.367 -0.52765,0.91347 -0.86985,0.99456l-1.62862,0.54332c-0.1469,0.03827 -4.89465,0.23998 -6.10472,0.11417z" fill="url(#color-57)" stroke-width="0.5"/></g><path d="M353.72555,175.66941l-0.10904,0.03034c-0.27469,-0.00079 -0.49035,-0.02342 -0.71026,-0.19687c0,0 -0.02745,-0.02196 -0.03909,-0.05661c-0.44907,-0.20199 -0.8432,-0.54201 -0.79408,-0.90044c-0.01931,-0.02581 -0.03696,-0.0521 -0.0525,-0.07864c-0.03296,0.00341 -0.07738,-0.00476 -0.10567,-0.06135c-0.04962,-0.09922 0.04961,-0.14883 0.04961,-0.14883l-0.00986,0.05282c0.05054,-0.23065 0.10326,-0.29602 0.34158,-0.31051c0.56707,0.11342 0.7052,0.0197 0.99194,-0.04957c0.11187,-0.02703 0.66881,0.53297 0.76024,0.38546c0.04295,-0.06929 -0.10807,-0.3077 -0.02175,-0.39784c0.1112,-0.11611 0.55205,0.01497 0.68368,0.03714c0.10623,0.03844 0.17296,-0.3038 0.46008,-0.24393c0.16158,0.03369 0.36889,0.21231 0.46156,0.34273c0.0313,0.04405 0.0616,0.15228 0.08241,0.22394c0.00921,0.00152 0.01862,0.00387 0.02826,0.00699c0.03315,-0.73548 1.02524,-0.23821 1.45222,-0.15382c0.10186,0.10065 0.02519,-0.2574 0.30779,-0.29918c0.21086,-0.03117 0.40723,0.20104 0.54858,0.31933c0.03251,-0.02051 0.06524,-0.02954 0.09825,-0.02415c0.0888,-0.10722 0.2573,-0.32899 0.32713,-0.34284c0.35217,-0.06982 0.74014,0.13579 1.07702,0.01164c0.43827,-0.33464 0.90939,0.03451 1.07692,0.57243c0.04309,0.13837 0.18621,-0.25303 0.32728,-0.28622c0.16532,-0.0389 0.34404,0.08941 0.39153,0.24422c0.24777,-0.30056 0.90948,-0.39451 1.17186,-0.2585c0.0167,0.00866 0.1877,0.30757 0.22222,0.30623c0.21368,-0.00826 0.55154,-0.7876 0.74563,-0.07271c-0.0319,0.24154 0.61737,-0.28919 0.74554,-0.27113c0.12479,0.01758 0.28608,0.23627 0.36023,0.39483c0.07554,-0.08627 0.21656,-0.1728 0.30572,-0.17291c0.16358,-0.00021 0.11653,0.38028 0.39601,0.37232c1.76902,-1.1481 -0.62979,2.40782 -0.96552,0.42947c0.00169,-0.0498 -0.6954,0.51523 -0.937,0.55151c-0.29675,0.04457 -0.73686,-0.33475 -0.7994,-0.68612c-0.00016,0.00038 -0.00031,0.00077 -0.00046,0.00115c-0.16557,0.40624 -0.88008,0.79517 -1.32876,0.60364c-0.07946,-0.03392 -0.1532,-0.10347 -0.22168,-0.1901l-0.00415,-0.00083l0.00071,-0.00355c-0.00687,-0.00878 -0.0137,-0.01771 -0.02046,-0.0268c-0.25755,-0.03519 -0.37752,-0.22083 -0.48282,-0.5364l-0.0057,-0.13368c0,0 0,-0.02126 0.00931,-0.04517c-0.03352,-0.00994 -0.06443,0.00849 -0.093,0.06597c-0.43923,1.10047 -2.03157,1.07197 -2.27831,-0.16174c-0.03154,-0.07798 -0.27051,0.49482 -0.62243,0.82109c-0.30669,0.4142 -0.84886,0.54773 -1.14435,-0.07881c-0.02886,-0.00643 -0.05349,-0.0241 -0.06904,-0.04818l-0.04523,-0.06784c-0.16182,-0.1177 -0.29976,-0.25872 -0.38719,-0.43201l-0.04193,0.02096l-0.07296,-0.14592c-0.0027,-0.00511 -0.005,-0.01046 -0.00687,-0.01601c-0.0115,0.00295 -0.02386,0.00247 -0.03696,-0.00098c-0.01229,0.06243 -0.01852,0.16559 -0.01872,0.32144c-0.10221,0.52159 -0.28406,0.86526 -0.88157,0.68705c-0.16279,-0.04855 -0.5926,-0.42006 -0.80665,-0.68733c-0.02228,0.23709 -0.07272,0.47282 -0.13649,0.70124c-0.03278,0.01564 -0.07006,0.02737 -0.11105,0.03546c-0.02247,0.03483 -0.06241,0.04815 -0.06241,0.04815z" fill-opacity="0.45882" fill="#611111" stroke-width="0.5"/></g></g></g></g></svg>