<svg version="1.1" xmlns="http://www.w3.org/2000/svg" xmlns:xlink="http://www.w3.org/1999/xlink" width="238.75193" height="437.79386" viewBox="0,0,238.75193,437.79386"><defs><linearGradient x1="468.05555" y1="183.99006" x2="467.99936" y2="206.4837" gradientUnits="userSpaceOnUse" id="color-1"><stop offset="0" stop-color="#484c5e"/><stop offset="1" stop-color="#212d30"/></linearGradient><linearGradient x1="449.177" y1="179.22578" x2="435.64505" y2="206.52182" gradientUnits="userSpaceOnUse" id="color-2"><stop offset="0" stop-color="#484c5e"/><stop offset="1" stop-color="#212d30"/></linearGradient><linearGradient x1="435.31516" y1="165.80219" x2="411.65844" y2="184.99977" gradientUnits="userSpaceOnUse" id="color-3"><stop offset="0" stop-color="#484c5e"/><stop offset="1" stop-color="#212d30"/></linearGradient><linearGradient x1="427.56484" y1="148.7135" x2="397.44366" y2="153.28522" gradientUnits="userSpaceOnUse" id="color-4"><stop offset="0" stop-color="#484c5e"/><stop offset="1" stop-color="#212d30"/></linearGradient><linearGradient x1="433.07184" y1="131.06386" x2="407.95204" y2="113.82489" gradientUnits="userSpaceOnUse" id="color-5"><stop offset="0" stop-color="#484c5e"/><stop offset="1" stop-color="#212d30"/></linearGradient><linearGradient x1="447.26059" y1="117.01632" x2="429.03959" y2="92.59946" gradientUnits="userSpaceOnUse" id="color-6"><stop offset="0" stop-color="#484c5e"/><stop offset="1" stop-color="#212d30"/></linearGradient><linearGradient x1="461.75334" y1="103.71544" x2="436.63352" y2="86.47648" gradientUnits="userSpaceOnUse" id="color-7"><stop offset="0" stop-color="#484c5e"/><stop offset="1" stop-color="#212d30"/></linearGradient><linearGradient x1="474.21638" y1="88.62344" x2="449.09659" y2="71.38447" gradientUnits="userSpaceOnUse" id="color-8"><stop offset="0" stop-color="#484c5e"/><stop offset="1" stop-color="#212d30"/></linearGradient><linearGradient x1="575.69358" y1="184.99006" x2="575.74977" y2="207.4837" gradientUnits="userSpaceOnUse" id="color-9"><stop offset="0" stop-color="#484c5e"/><stop offset="1" stop-color="#212d30"/></linearGradient><linearGradient x1="594.57212" y1="180.22578" x2="608.10408" y2="207.52182" gradientUnits="userSpaceOnUse" id="color-10"><stop offset="0" stop-color="#484c5e"/><stop offset="1" stop-color="#212d30"/></linearGradient><linearGradient x1="608.43397" y1="166.80219" x2="632.09068" y2="185.99976" gradientUnits="userSpaceOnUse" id="color-11"><stop offset="0" stop-color="#484c5e"/><stop offset="1" stop-color="#212d30"/></linearGradient><linearGradient x1="616.18428" y1="149.7135" x2="646.30547" y2="154.28522" gradientUnits="userSpaceOnUse" id="color-12"><stop offset="0" stop-color="#484c5e"/><stop offset="1" stop-color="#212d30"/></linearGradient><linearGradient x1="610.67728" y1="132.06386" x2="635.79708" y2="114.82489" gradientUnits="userSpaceOnUse" id="color-13"><stop offset="0" stop-color="#484c5e"/><stop offset="1" stop-color="#212d30"/></linearGradient><linearGradient x1="596.48853" y1="118.01632" x2="614.70954" y2="93.59946" gradientUnits="userSpaceOnUse" id="color-14"><stop offset="0" stop-color="#484c5e"/><stop offset="1" stop-color="#212d30"/></linearGradient><linearGradient x1="581.99578" y1="104.71544" x2="607.1156" y2="87.47648" gradientUnits="userSpaceOnUse" id="color-15"><stop offset="0" stop-color="#484c5e"/><stop offset="1" stop-color="#212d30"/></linearGradient><linearGradient x1="569.53274" y1="89.62344" x2="594.65253" y2="72.38446" gradientUnits="userSpaceOnUse" id="color-16"><stop offset="0" stop-color="#484c5e"/><stop offset="1" stop-color="#212d30"/></linearGradient><linearGradient x1="510.17518" y1="298.27217" x2="487.68149" y2="298.27217" gradientUnits="userSpaceOnUse" id="color-17"><stop offset="0" stop-color="#484c5e"/><stop offset="1" stop-color="#212d30"/></linearGradient><linearGradient x1="510.17518" y1="309.2292" x2="479.70902" y2="309.2292" gradientUnits="userSpaceOnUse" id="color-18"><stop offset="0" stop-color="#484c5e"/><stop offset="1" stop-color="#212d30"/></linearGradient><linearGradient x1="510.17518" y1="321.40461" x2="479.70902" y2="321.40461" gradientUnits="userSpaceOnUse" id="color-19"><stop offset="0" stop-color="#484c5e"/><stop offset="1" stop-color="#212d30"/></linearGradient><linearGradient x1="510.17518" y1="332.22721" x2="479.70902" y2="332.22721" gradientUnits="userSpaceOnUse" id="color-20"><stop offset="0" stop-color="#484c5e"/><stop offset="1" stop-color="#212d30"/></linearGradient><linearGradient x1="510.17518" y1="344.85359" x2="479.70902" y2="344.85359" gradientUnits="userSpaceOnUse" id="color-21"><stop offset="0" stop-color="#484c5e"/><stop offset="1" stop-color="#212d30"/></linearGradient><linearGradient x1="510.17518" y1="355.67619" x2="479.70902" y2="355.67619" gradientUnits="userSpaceOnUse" id="color-22"><stop offset="0" stop-color="#484c5e"/><stop offset="1" stop-color="#212d30"/></linearGradient><linearGradient x1="510.17518" y1="367.8516" x2="479.70902" y2="367.8516" gradientUnits="userSpaceOnUse" id="color-23"><stop offset="0" stop-color="#484c5e"/><stop offset="1" stop-color="#212d30"/></linearGradient><linearGradient x1="510.17518" y1="378.67422" x2="479.70902" y2="378.67422" gradientUnits="userSpaceOnUse" id="color-24"><stop offset="0" stop-color="#484c5e"/><stop offset="1" stop-color="#212d30"/></linearGradient><linearGradient x1="534.91356" y1="298.7231" x2="557.40725" y2="298.7231" gradientUnits="userSpaceOnUse" id="color-25"><stop offset="0" stop-color="#484c5e"/><stop offset="1" stop-color="#212d30"/></linearGradient><linearGradient x1="534.91356" y1="309.68012" x2="565.37973" y2="309.68012" gradientUnits="userSpaceOnUse" id="color-26"><stop offset="0" stop-color="#484c5e"/><stop offset="1" stop-color="#212d30"/></linearGradient><linearGradient x1="534.91356" y1="321.85555" x2="565.37973" y2="321.85555" gradientUnits="userSpaceOnUse" id="color-27"><stop offset="0" stop-color="#484c5e"/><stop offset="1" stop-color="#212d30"/></linearGradient><linearGradient x1="534.91356" y1="332.67816" x2="565.37973" y2="332.67816" gradientUnits="userSpaceOnUse" id="color-28"><stop offset="0" stop-color="#484c5e"/><stop offset="1" stop-color="#212d30"/></linearGradient><linearGradient x1="534.91356" y1="345.30455" x2="565.37973" y2="345.30455" gradientUnits="userSpaceOnUse" id="color-29"><stop offset="0" stop-color="#484c5e"/><stop offset="1" stop-color="#212d30"/></linearGradient><linearGradient x1="534.91356" y1="356.12711" x2="565.37973" y2="356.12711" gradientUnits="userSpaceOnUse" id="color-30"><stop offset="0" stop-color="#484c5e"/><stop offset="1" stop-color="#212d30"/></linearGradient><linearGradient x1="534.91356" y1="368.30256" x2="565.37973" y2="368.30256" gradientUnits="userSpaceOnUse" id="color-31"><stop offset="0" stop-color="#484c5e"/><stop offset="1" stop-color="#212d30"/></linearGradient><linearGradient x1="534.91356" y1="379.12516" x2="565.37973" y2="379.12516" gradientUnits="userSpaceOnUse" id="color-32"><stop offset="0" stop-color="#484c5e"/><stop offset="1" stop-color="#212d30"/></linearGradient><linearGradient x1="470.97517" y1="185.2698" x2="571.00271" y2="185.2698" gradientUnits="userSpaceOnUse" id="color-33"><stop offset="0" stop-color="#484c5e"/><stop offset="1" stop-color="#212d30"/></linearGradient><linearGradient x1="461.37253" y1="56.77948" x2="580.60537" y2="56.77948" gradientUnits="userSpaceOnUse" id="color-34"><stop offset="0" stop-color="#484c5e"/><stop offset="1" stop-color="#212d30"/></linearGradient><linearGradient x1="529.89872" y1="77.32584" x2="515.92808" y2="77.32584" gradientUnits="userSpaceOnUse" id="color-35"><stop offset="0" stop-color="#484c5e"/><stop offset="1" stop-color="#212d30"/></linearGradient><linearGradient x1="529.89872" y1="94.70499" x2="510.97645" y2="94.70499" gradientUnits="userSpaceOnUse" id="color-36"><stop offset="0" stop-color="#484c5e"/><stop offset="1" stop-color="#212d30"/></linearGradient><linearGradient x1="529.89872" y1="114.01665" x2="510.97645" y2="114.01665" gradientUnits="userSpaceOnUse" id="color-37"><stop offset="0" stop-color="#484c5e"/><stop offset="1" stop-color="#212d30"/></linearGradient><linearGradient x1="529.89872" y1="131.18257" x2="510.97645" y2="131.18257" gradientUnits="userSpaceOnUse" id="color-38"><stop offset="0" stop-color="#484c5e"/><stop offset="1" stop-color="#212d30"/></linearGradient><linearGradient x1="529.89872" y1="151.20949" x2="510.97645" y2="151.20949" gradientUnits="userSpaceOnUse" id="color-39"><stop offset="0" stop-color="#484c5e"/><stop offset="1" stop-color="#212d30"/></linearGradient><linearGradient x1="529.89872" y1="168.3754" x2="510.97645" y2="168.3754" gradientUnits="userSpaceOnUse" id="color-40"><stop offset="0" stop-color="#484c5e"/><stop offset="1" stop-color="#212d30"/></linearGradient><linearGradient x1="529.89872" y1="187.68707" x2="510.97645" y2="187.68707" gradientUnits="userSpaceOnUse" id="color-41"><stop offset="0" stop-color="#484c5e"/><stop offset="1" stop-color="#212d30"/></linearGradient><linearGradient x1="529.89872" y1="204.85298" x2="510.97645" y2="204.85298" gradientUnits="userSpaceOnUse" id="color-42"><stop offset="0" stop-color="#484c5e"/><stop offset="1" stop-color="#212d30"/></linearGradient><linearGradient x1="494.19831" y1="115.20134" x2="548.63284" y2="115.20134" gradientUnits="userSpaceOnUse" id="color-43"><stop offset="0" stop-color="#484c5e"/><stop offset="1" stop-color="#212d30"/></linearGradient><linearGradient x1="572.76646" y1="93.80092" x2="539.524" y2="93.80092" gradientUnits="userSpaceOnUse" id="color-44"><stop offset="0" stop-color="#484c5e"/><stop offset="1" stop-color="#212d30"/></linearGradient><linearGradient x1="470.98269" y1="97.00703" x2="504.22515" y2="97.00703" gradientUnits="userSpaceOnUse" id="color-45"><stop offset="0" stop-color="#484c5e"/><stop offset="1" stop-color="#212d30"/></linearGradient><linearGradient x1="520.18508" y1="201.881" x2="520.18508" y2="276.09526" gradientUnits="userSpaceOnUse" id="color-46"><stop offset="0" stop-color="#484c5e"/><stop offset="1" stop-color="#212d30"/></linearGradient><linearGradient x1="493.54286" y1="205.42369" x2="493.54286" y2="222.91705" gradientUnits="userSpaceOnUse" id="color-47"><stop offset="0" stop-color="#484c5e"/><stop offset="1" stop-color="#212d30"/></linearGradient><linearGradient x1="549.52164" y1="205.42369" x2="549.52164" y2="222.91705" gradientUnits="userSpaceOnUse" id="color-48"><stop offset="0" stop-color="#484c5e"/><stop offset="1" stop-color="#212d30"/></linearGradient><linearGradient x1="533.99761" y1="392.0032" x2="596.01955" y2="392.0032" gradientUnits="userSpaceOnUse" id="color-49"><stop offset="0" stop-color="#484c5e"/><stop offset="1" stop-color="#212d30"/></linearGradient><linearGradient x1="511.73261" y1="392.26827" x2="449.71067" y2="392.26827" gradientUnits="userSpaceOnUse" id="color-50"><stop offset="0" stop-color="#484c5e"/><stop offset="1" stop-color="#212d30"/></linearGradient></defs><g transform="translate(-402.49859,33.19822)"><g stroke-miterlimit="10"><g><path d="M478.24287,205.88231c0,0 0.03288,-13.15614 0.04272,-17.09574c0.00521,-2.08119 -1.09419,-3.17038 -2.69907,-0.8481c-3.03373,4.38985 -7.84979,11.35873 -10.34601,14.97078c-2.98033,4.31258 -7.65901,4.8697 -7.47121,0.73938c0.25372,-5.58078 0.89485,-19.68203 0.89485,-19.68203" fill="none" stroke="url(#color-1)" stroke-width="3.25" stroke-linecap="round"/><path d="M458.5586,183.8767c0,0 -14.19782,7.91072 -20.06234,11.17833c-4.57938,2.55154 -9.0226,0.9837 -7.02885,-2.63842c2.6939,-4.89414 9.50071,-17.26037 9.50071,-17.26037" fill="none" stroke="url(#color-2)" stroke-width="3.25" stroke-linecap="round"/><path d="M441.91332,173.93296c0,0 -16.20159,1.29074 -22.8938,1.82391c-5.22566,0.41633 -8.61462,-2.85711 -5.29527,-5.32221c4.48502,-3.3308 15.81751,-11.7469 15.81751,-11.7469" fill="none" stroke="url(#color-3)" stroke-width="3.25" stroke-linecap="round"/><path d="M429.13613,159.0661c0,0 -14.62366,-7.09272 -20.66409,-10.02241c-4.7167,-2.28768 -5.98095,-6.82664 -1.87031,-7.27103c5.5542,-0.60047 19.58824,-2.11768 19.58824,-2.11768" fill="none" stroke="url(#color-4)" stroke-width="3.25" stroke-linecap="round"/><path d="M427.14684,139.69749c0,0 -5.83375,-15.16989 -8.24345,-21.43593c-1.88162,-4.89288 0.29597,-9.07121 3.60143,-6.58751c4.46627,3.3559 15.7514,11.83541 15.7514,11.83541" fill="none" stroke="url(#color-5)" stroke-width="3.25" stroke-linecap="round"/><path d="M438.86857,123.27885c0,0 -0.63172,-16.24066 -0.89267,-22.949c-0.20376,-5.23826 3.20461,-8.49149 5.53287,-5.07476c3.14593,4.61659 11.09485,16.28152 11.09485,16.28152" fill="none" stroke="url(#color-6)" stroke-width="3.25" stroke-linecap="round"/><path d="M455.82835,112.34905c0,0 -5.83375,-15.16987 -8.24344,-21.43591c-1.88162,-4.89289 0.29595,-9.07122 3.60141,-6.58752c4.46627,3.3559 15.7514,11.83541 15.7514,11.83541" fill="none" stroke="url(#color-7)" stroke-width="3.25" stroke-linecap="round"/><path d="M468.2914,97.25709c0,0 -5.83374,-15.16988 -8.24343,-21.43592c-1.88163,-4.8929 0.29595,-9.07124 3.60141,-6.58754c4.46627,3.3559 15.7514,11.8354 15.7514,11.8354" fill="none" stroke="url(#color-8)" stroke-width="3.25" stroke-linecap="round"/><path d="M513.20827,247.15314c-12.43432,12.2863 -27.34218,-10.84741 -32.70529,-16.55783c-4.06151,-4.32451 -27.80592,-1.73331 -25.56168,-8.68582c0.71923,-2.22809 24.62632,-14.50449 25.98458,-16.49355c2.07979,-3.04566 8.87809,-20.47651 11.51654,-21.73579c4.46159,-2.12939 4.95782,13.64731 8.32795,17.23567c1.5825,1.68496 14.84155,2.88844 13.9166,13.19536c-0.33233,3.70304 -2.19217,-2.36855 -6.58234,1.76075c-3.39596,3.19419 17.93916,18.59851 5.10365,31.28118z" fill="#0d0d0d" stroke="#000000" stroke-width="0" stroke-linecap="butt"/></g><g><path d="M585.08497,184.9666c0,0 0.64113,14.10124 0.89485,19.68203c0.18781,4.13032 -4.49087,3.57319 -7.47121,-0.73938c-2.49622,-3.61205 -7.31228,-10.58093 -10.34601,-14.97078c-1.60489,-2.32228 -2.70427,-1.23309 -2.69907,0.8481c0.00984,3.93961 0.04272,17.09574 0.04272,17.09574" fill="none" stroke="url(#color-9)" stroke-width="3.25" stroke-linecap="round"/><path d="M602.781,176.15624c0,0 6.80681,12.36624 9.50071,17.26038c1.99376,3.62212 -2.44947,5.18996 -7.02885,2.63842c-5.86452,-3.26761 -20.06234,-11.17834 -20.06234,-11.17834" fill="none" stroke="url(#color-10)" stroke-width="3.25" stroke-linecap="round"/><path d="M614.20736,159.68775c0,0 11.3325,8.4161 15.81751,11.7469c3.31935,2.4651 -0.06961,5.73854 -5.29527,5.32221c-6.69221,-0.53317 -22.8938,-1.82392 -22.8938,-1.82392" fill="none" stroke="url(#color-11)" stroke-width="3.25" stroke-linecap="round"/><path d="M617.55914,140.65498c0,0 14.03404,1.5172 19.58824,2.11768c4.11064,0.44438 2.84639,4.98334 -1.8703,7.27102c-6.04043,2.92969 -20.66409,10.02242 -20.66409,10.02242" fill="none" stroke="url(#color-12)" stroke-width="3.25" stroke-linecap="round"/><path d="M605.49291,124.50945c0,0 11.28513,-8.47951 15.7514,-11.83541c3.30546,-2.4837 5.48305,1.69464 3.60143,6.58752c-2.4097,6.26604 -8.24345,21.43593 -8.24345,21.43593" fill="none" stroke="url(#color-13)" stroke-width="3.25" stroke-linecap="round"/><path d="M589.14551,112.5366c0,0 7.94892,-11.66494 11.09484,-16.28152c2.32826,-3.41672 5.73663,-0.1635 5.53287,5.07476c-0.26095,6.70834 -0.89267,22.949 -0.89267,22.949" fill="none" stroke="url(#color-14)" stroke-width="3.25" stroke-linecap="round"/><path d="M576.81141,97.16103c0,0 11.28513,-8.47951 15.7514,-11.83541c3.30546,-2.4837 5.48304,1.69464 3.60141,6.58753c-2.4097,6.26604 -8.24344,21.43591 -8.24344,21.43591" fill="none" stroke="url(#color-15)" stroke-width="3.25" stroke-linecap="round"/><path d="M564.34835,82.06903c0,0 11.28512,-8.47951 15.75139,-11.83541c3.30546,-2.4837 5.48305,1.69464 3.60142,6.58755c-2.4097,6.26604 -8.24344,21.43591 -8.24344,21.43591" fill="none" stroke="url(#color-16)" stroke-width="3.25" stroke-linecap="round"/><path d="M530.54084,248.1531c-12.83551,-12.68266 8.4996,-28.08698 5.10364,-31.28117c-4.39017,-4.1293 -6.25002,1.94228 -6.58234,-1.76075c-0.92495,-10.30692 12.3341,-11.51041 13.9166,-13.19537c3.37012,-3.58835 3.86636,-19.36507 8.32795,-17.23567c2.63845,1.25928 9.43675,18.69014 11.51654,21.73579c1.35826,1.98906 25.26535,14.26546 25.98458,16.49355c2.24424,6.95251 -21.50018,4.3613 -25.56168,8.68582c-5.36311,5.71042 -20.27096,28.84413 -32.70528,16.55783z" fill="#0d0d0d" stroke="#000000" stroke-width="0" stroke-linecap="butt"/></g><g fill="none" stroke-width="3.25" stroke-linecap="round"><path d="M510.17518,303.7819c0,0 -14.10281,0.35547 -19.68421,0.49613c-4.13078,0.10412 -3.56197,-2.63992 0.75806,-4.3821c3.61829,-1.45918 10.59917,-4.27446 14.99657,-6.04783c2.32628,-0.93813 1.23983,-1.58471 -0.84134,-1.58471c-3.9396,0 -17.09578,0 -17.09578,0" stroke="url(#color-17)"/><path d="M510.17518,314.6045c0,0 -14.10281,0.35548 -19.68421,0.49614c-4.13078,0.10412 -3.56197,-2.63993 0.75806,-4.38211c5.53242,-2.23111 18.92615,-7.63256 18.92615,-7.63256" stroke="url(#color-18)"/><path d="M510.17518,326.77991c0,0 -14.10281,0.3555 -19.68421,0.49616c-4.13078,0.10412 -3.56197,-2.63995 0.75806,-4.38213c5.53242,-2.23111 18.92615,-7.63256 18.92615,-7.63256" stroke="url(#color-19)"/><path d="M510.17518,337.60251c0,0 -14.10281,0.35549 -19.68421,0.49615c-4.13078,0.10412 -3.56197,-2.63995 0.75806,-4.38213c5.53242,-2.23111 18.92615,-7.63256 18.92615,-7.63256" stroke="url(#color-20)"/><path d="M510.17518,350.2289c0,0 -14.10281,0.35547 -19.68421,0.49613c-4.13078,0.10412 -3.56197,-2.63995 0.75806,-4.38213c5.53242,-2.23111 18.92615,-7.63254 18.92615,-7.63254" stroke="url(#color-21)"/><path d="M510.17518,361.0515c0,0 -14.10281,0.35549 -19.68421,0.49615c-4.13078,0.10412 -3.56197,-2.63994 0.75806,-4.38212c5.53242,-2.23111 18.92615,-7.63254 18.92615,-7.63254" stroke="url(#color-22)"/><path d="M510.17518,373.22692c0,0 -14.10281,0.35549 -19.68421,0.49615c-4.13078,0.10412 -3.56197,-2.63994 0.75806,-4.38212c5.53242,-2.23111 18.92615,-7.63254 18.92615,-7.63254" stroke="url(#color-23)"/><path d="M510.17518,384.0495c0,0 -14.10281,0.35547 -19.68421,0.49613c-4.13078,0.10412 -3.56197,-2.63993 0.75806,-4.38211c5.53242,-2.23111 18.92615,-7.63256 18.92615,-7.63256" stroke="url(#color-24)"/></g><g fill="none" stroke-width="3.25" stroke-linecap="round"><path d="M556.78023,292.71432c0,0 -13.15617,0 -17.09578,0c-2.08117,0 -3.16762,0.6466 -0.84134,1.58474c4.39742,1.77339 11.37829,4.58863 14.99657,6.04783c4.32003,1.74218 4.88884,4.48623 0.75806,4.38213c-5.5814,-0.14066 -19.68421,-0.49616 -19.68421,-0.49616" stroke="url(#color-25)"/><path d="M534.91356,303.53692c0,0 13.39375,5.40145 18.92615,7.63257c4.32001,1.74218 4.88884,4.48622 0.75807,4.38212c-5.5814,-0.14066 -19.6842,-0.49615 -19.6842,-0.49615" stroke="url(#color-26)"/><path d="M534.91356,315.71235c0,0 13.39375,5.40145 18.92615,7.63256c4.32001,1.74218 4.88884,4.48623 0.75807,4.38213c-5.5814,-0.14066 -19.6842,-0.49615 -19.6842,-0.49615" stroke="url(#color-27)"/><path d="M534.91356,326.53495c0,0 13.39375,5.40145 18.92615,7.63256c4.32001,1.74218 4.88884,4.48623 0.75807,4.38213c-5.5814,-0.14066 -19.6842,-0.49615 -19.6842,-0.49615" stroke="url(#color-28)"/><path d="M534.91356,339.16131c0,0 13.39375,5.40145 18.92615,7.63257c4.32001,1.74218 4.88884,4.4862 0.75807,4.3821c-5.5814,-0.14066 -19.6842,-0.49613 -19.6842,-0.49613" stroke="url(#color-29)"/><path d="M534.91356,349.98391c0,0 13.39375,5.40145 18.92615,7.63257c4.32001,1.74218 4.88884,4.48621 0.75807,4.38211c-5.5814,-0.14066 -19.6842,-0.49613 -19.6842,-0.49613" stroke="url(#color-30)"/><path d="M534.91356,362.15934c0,0 13.39375,5.40145 18.92615,7.63257c4.32001,1.74218 4.88884,4.48621 0.75807,4.38211c-5.5814,-0.14066 -19.6842,-0.49614 -19.6842,-0.49614" stroke="url(#color-31)"/><path d="M534.91356,372.98194c0,0 13.39375,5.40145 18.92615,7.63257c4.32001,1.74218 4.88884,4.4862 0.75807,4.3821c-5.5814,-0.14066 -19.6842,-0.49613 -19.6842,-0.49613" stroke="url(#color-32)"/></g><path d="M571.00269,185.2698c0,1.28724 -14.59066,1.18051 -29.39053,-4.80579c-6.79562,-2.74872 -9.53058,-13.99937 -18.22257,-13.99937c-9.85148,0 -10.28615,10.93857 -18.09401,14.63156c-14.084,6.66149 -32.31986,7.78266 -32.31986,6.57427c0,-1.87829 20.39138,-64.41773 48.0132,-64.41773c27.62185,0 50.01377,60.13878 50.01377,62.01707z" fill="#4c1212" stroke="url(#color-33)" stroke-width="0" stroke-linecap="butt"/><path d="M580.60537,56.77948c0,1.3811 -23.89042,22.10609 -56.81564,22.10609c-32.92523,0 -59.81647,-17.72416 -59.81647,-19.10527c0,-0.68182 29.22574,2.2427 58.01058,1.49348c29.52189,-0.76841 58.62153,-5.19356 58.62153,-4.49431z" fill="#4c1212" stroke="url(#color-34)" stroke-width="0" stroke-linecap="butt"/><g fill="none" stroke-width="3.25" stroke-linecap="round"><path d="M529.89872,86.06495c0,0 -8.75914,0.56382 -12.22569,0.78695c-2.5656,0.16514 -2.2123,-4.18725 0.47082,-6.95054c2.24728,-2.31444 6.58305,-6.77976 9.31423,-9.59256c1.44483,-1.48802 0.77007,-2.51355 -0.52256,-2.51355c-2.44687,0 -10.61803,0 -10.61803,0" stroke="url(#color-35)"/><path d="M529.89872,103.23087c0,0 -8.75914,0.56381 -12.22569,0.78694c-2.5656,0.16513 -2.2123,-4.18725 0.47082,-6.95054c3.43613,-3.5388 11.75486,-12.10613 11.75486,-12.10613" stroke="url(#color-36)"/><path d="M529.89872,122.54254c0,0 -8.75914,0.56382 -12.22569,0.78695c-2.5656,0.16513 -2.2123,-4.18725 0.47082,-6.95054c3.43613,-3.5388 11.75486,-12.10613 11.75486,-12.10613" stroke="url(#color-37)"/><path d="M529.89872,139.70846c0,0 -8.75914,0.56381 -12.22569,0.78694c-2.5656,0.16512 -2.2123,-4.18725 0.47082,-6.95054c3.43613,-3.5388 11.75486,-12.10613 11.75486,-12.10613" stroke="url(#color-38)"/><path d="M529.89872,159.73535c0,0 -8.75914,0.56383 -12.22569,0.78696c-2.5656,0.16512 -2.2123,-4.18725 0.47082,-6.95054c3.43613,-3.5388 11.75486,-12.10613 11.75486,-12.10613" stroke="url(#color-39)"/><path d="M529.89872,176.90129c0,0 -8.75914,0.56381 -12.22569,0.78694c-2.5656,0.16512 -2.2123,-4.18725 0.47082,-6.95054c3.43613,-3.5388 11.75486,-12.10613 11.75486,-12.10613" stroke="url(#color-40)"/><path d="M529.89872,196.21295c0,0 -8.75914,0.56382 -12.22569,0.78695c-2.5656,0.16512 -2.2123,-4.18724 0.47082,-6.95054c3.43613,-3.5388 11.75486,-12.10613 11.75486,-12.10613" stroke="url(#color-41)"/><path d="M529.89872,213.37887c0,0 -8.75914,0.56381 -12.22569,0.78694c-2.5656,0.16512 -2.2123,-4.18724 0.47082,-6.95054c3.43613,-3.5388 11.75486,-12.10613 11.75486,-12.10613" stroke="url(#color-42)"/></g><path d="M491.82955,92.257c0,-6.46302 -14.08027,-19.28214 -12.41911,-22.28229c2.09382,-3.7815 20.36317,3.08996 24.42637,2.54913c4.95184,-0.6591 11.08882,0.15228 17.73495,0.15228c6.95168,0 13.70254,-0.6458 19.17745,0.46905c3.27041,0.66595 20.28947,-4.24155 22.42019,-1.80618c2.73077,3.12122 -9.86659,14.31856 -9.86659,22.26839c0,13.19826 0.6344,42.38384 -6.01445,56.80432c-5.71214,12.38887 -18.1259,11.12108 -25.7166,11.12108c-6.37948,0 -20.9684,-2.42679 -25.81181,-12.11876c-7.6276,-15.2634 -3.93041,-42.14945 -3.93041,-57.15702z" fill="#dadada" stroke="#000000" stroke-width="0" stroke-linecap="butt"/><path d="M494.19831,115.20134c0,-18.31015 12.18559,-33.15346 27.21726,-33.15346c15.03168,0 27.21727,14.84331 27.21727,33.15346c0,18.31015 -12.18559,33.15346 -27.21727,33.15346c-15.03168,0 -27.21726,-14.84331 -27.21726,-33.15346z" fill="#ababab" stroke="url(#color-43)" stroke-width="0" stroke-linecap="butt"/><path d="M545.26941,160.57822c-4.1418,-26.38943 3.86691,-86.44855 7.08649,-93.9018c5.3946,-12.48834 18.57781,-11.62672 29.1367,-10.68879c6.19494,0.55029 -7.81275,49.56532 -20.34644,81.12161c-5.96589,15.02044 11.62027,48.52401 11.62027,48.52401c0,0 -23.34886,1.37525 -27.49706,-25.05504z" fill="#801d1d" stroke="url(#color-44)" stroke-width="0" stroke-linecap="butt"/><path d="M470.98269,188.83933c0,0 17.58618,-33.50356 11.62027,-48.524c-12.53368,-31.5563 -26.54137,-80.57133 -20.34643,-81.12162c10.55892,-0.93792 23.74212,-1.79955 29.13669,10.68879c3.21958,7.45324 11.2283,67.51237 7.0865,93.9018c-4.1482,26.43027 -27.49705,25.05504 -27.49705,25.05504z" fill="#801d1d" stroke="url(#color-45)" stroke-width="0" stroke-linecap="butt"/><path d="M488.53908,204.71036c5.97998,-4.12478 61.70583,-7.24108 68.51266,0.83424c5.44245,6.45666 12.49312,79.35868 4.8009,94.84493c-6.15278,12.38699 -37.99382,-0.38729 -37.99382,-0.38729c0,0 0.65628,-56.77414 -2.77377,-56.77598c-3.35806,-0.00179 -3.42884,56.93897 -3.42884,56.93897c0,0 -35.35467,-3.71492 -39.47357,-3.47587c-8.33882,0.48401 0.6529,-85.28587 10.35641,-91.979z" fill="#0d0d0d" stroke="url(#color-46)" stroke-width="0" stroke-linecap="butt"/><path d="M484.79618,214.17037c0,-4.83067 3.91602,-8.74668 8.74669,-8.74668c4.83067,0 8.74668,3.91601 8.74668,8.74668c0,4.83067 -3.91601,8.74668 -8.74668,8.74668c-4.83067,0 -8.74669,-3.91602 -8.74669,-8.74668z" fill="#e1f194" stroke="url(#color-47)" stroke-width="0" stroke-linecap="butt"/><path d="M540.77496,214.17037c0,-4.83067 3.91602,-8.74668 8.74668,-8.74668c4.83066,0 8.74668,3.91601 8.74668,8.74668c0,4.83067 -3.91602,8.74668 -8.74668,8.74668c-4.83066,0 -8.74668,-3.91602 -8.74668,-8.74668z" fill="#e1f194" stroke="url(#color-48)" stroke-width="0" stroke-linecap="butt"/><path d="M529.22669,390.943c0,-7.21573 2.09171,-16.73912 2.09171,-16.73912c0,0 23.77901,-13.21163 33.69017,-13.21163c17.12688,0 31.01096,13.88409 31.01096,31.01095c0,17.12688 -66.79284,16.0667 -66.79284,-1.06021z" fill="#272727" stroke="url(#color-49)" stroke-width="0" stroke-linecap="butt"/><path d="M449.71067,392.26827c0,-17.12688 13.88409,-31.01095 31.01095,-31.01095c9.91114,0 33.69018,13.21164 33.69018,13.21164c0,0 2.09171,9.52339 2.09171,16.73912c0,17.12688 -66.79284,18.18708 -66.79284,1.06021z" fill="#272727" stroke="url(#color-50)" stroke-width="0" stroke-linecap="butt"/><g stroke="#000000" stroke-width="0" stroke-linecap="butt"><path d="M512.23612,77.52511l-3.82294,-16.7001l3.95371,-0.90507l3.82294,16.7001z" fill="#2f323e"/><path d="M505.47277,60.64202c-2.6381,-2.60633 -5.43888,-13.66445 -5.43888,-13.66445l13.43895,-3.20763c0,0 1.91073,10.89986 1.31837,14.39553c-0.39943,2.35711 -2.80026,2.62639 -4.51651,3.01926c-1.27885,0.29274 -3.68492,0.5608 -4.80191,-0.54273z" fill="#2f323e"/><g><path d="M534.24346,27.06596c-1.71612,-3.1895 -3.6392,-4.62685 -4.97875,-7.0531c-1.26401,-2.28942 -1.96023,-5.60545 -3.04226,-7.34519c-2.67406,-4.29948 -4.84931,-7.16507 -5.53534,-10.19608c-0.42834,-1.8926 0.58727,-5.38533 0.71352,-7.08944c0.13815,-1.86474 5.47071,-3.30331 9.067,-2.44329c3.131,0.74872 4.28941,3.44085 7.90793,6.55336c1.61877,1.39239 5.98599,4.57789 7.47666,6.40858c2.47233,3.03627 2.4182,5.3683 3.77275,8.74617c1.1349,2.83016 4.66025,6.58292 6.06873,9.85667c0.65734,1.52785 -0.56895,2.63726 -0.12993,4.0706c0.53001,1.73036 3.74677,6.85227 4.13926,8.42923c1.11455,4.47808 -0.12269,6.22516 -0.2144,9.18789c-0.10883,3.51631 3.47887,10.15973 2.66163,12.39933c-1.19391,3.27181 -6.42707,5.04584 -8.3813,5.64442c-1.91857,0.58764 -4.04317,3.05017 -6.50055,1.3588c-1.9014,-1.3087 -4.21772,-5.1106 -6.2832,-9.35138c-1.23095,-2.52734 -2.13889,-2.37087 -3.27635,-5.51184c-0.67917,-1.87544 -1.58435,-6.73299 -2.28969,-9.0359c-1.19027,-3.88604 2.72711,-7.37509 -1.17576,-14.6288z" fill="#a3a3a3"/><path d="M524.49482,-2.11306c1.47973,-0.77482 4.21032,1.52101 6.09893,5.12786c1.88862,3.60687 2.22007,7.15892 0.74035,7.93371c-1.47972,0.77481 -4.21033,-1.52101 -6.09896,-5.12787c-1.88863,-3.60687 -2.22009,-7.15892 -0.74034,-7.93375z" fill="#0d0d0d"/></g><path d="M526.78001,1.18524c1.00569,0.14287 2.13566,1.38851 2.65627,2.28428c0.37338,0.64253 0.93255,1.95264 0.82129,2.63449c-0.67796,4.15537 -9.6589,7.73962 -11.9345,3.82402c-2.12839,-3.66232 4.34522,-9.32683 8.45692,-8.74278z" fill="#2f323e"/><g><path d="M481.98646,55.35777c0.36674,2.38043 1.66493,7.14797 1.86928,9.13212c0.34225,3.32301 -0.54336,3.57712 -0.55221,6.38828c-0.01488,4.71704 -0.44653,9.14799 -1.58925,11.15352c-1.47683,2.59198 -4.46117,1.29896 -6.44431,1.6045c-2.02001,0.3112 -7.5038,0.99047 -10.00217,-1.43611c-1.71017,-1.66107 -1.3699,-9.20365 -2.99762,-12.32242c-1.37145,-2.62776 -3.24552,-3.66265 -4.19012,-8.17961c-0.33265,-1.59066 0.33558,-7.60191 0.06002,-9.39052c-0.22825,-1.48161 -1.81505,-1.94704 -1.88785,-3.60869c-0.156,-3.56049 1.38567,-8.47315 1.17634,-11.51519c-0.24985,-3.63077 -1.31308,-5.70699 -0.40786,-9.51646c0.54579,-2.29688 3.09228,-7.06505 3.94408,-9.02299c1.90413,-4.37675 1.77598,-7.30468 4.26947,-9.34098c2.86402,-2.33889 8.29136,-3.36344 9.22699,-1.74451c0.85505,1.47949 3.28899,4.18257 3.72662,6.073c0.70092,3.02761 -0.0111,6.55412 -0.54842,11.58875c-0.21742,2.03719 0.59827,5.32586 0.45611,7.93719c-0.15063,2.76738 -1.25687,4.89822 -1.41455,8.51666c-0.35857,8.2292 4.68658,9.66659 5.30541,13.68343z" fill="#a3a3a3"/><path d="M475.54974,18.62584c-0.13142,4.06929 -1.59131,7.32439 -3.26076,7.27046c-1.66946,-0.05393 -2.91628,-3.39641 -2.78486,-7.46569c0.13142,-4.06929 1.5913,-7.32439 3.26076,-7.27046c1.66947,0.05394 2.91628,3.39641 2.78486,7.46569z" fill="#0d0d0d"/></g><path d="M483.5603,19.31714c-0.34551,4.51562 -9.99141,5.19538 -12.40958,1.74878c-0.3968,-0.56556 -0.4633,-1.98846 -0.4066,-2.72944c0.07906,-1.03303 0.5546,-2.64622 1.39799,-3.21236c3.44815,-2.31465 11.74133,-0.0305 11.41818,4.19301z" fill="#2f323e"/><path d="M536.76111,43.93238c0.18426,0.80491 -12.79554,9.78499 -27.0716,13.05238c-14.25425,3.26239 -29.80449,0.81333 -29.98846,0.00965c-0.18335,-0.80094 15.08608,0.86598 29.29072,-2.38921c14.32337,-3.28241 27.58444,-11.48045 27.76932,-10.6728z" fill="#686e88"/><path d="M536.46116,43.57798c0.5111,2.23277 3.23428,27.66125 -22.44428,33.53951c-25.67855,5.87826 -34.39002,-19.49135 -34.90115,-21.72413c-0.5111,-2.23277 7.3717,19.51684 33.05024,13.63859c25.67855,-5.87826 23.78405,-27.68673 24.29519,-25.45397z" fill="#dadada"/><path d="M508.3906,66.05464l-3.6312,-15.86247l5.95468,-1.36311l3.63119,15.86249z" fill="#24262f"/><path d="M472.89995,38.54602c-3.90007,-17.03703 6.74956,-34.00988 23.78657,-37.90996c17.037,-3.90006 34.00988,6.74954 37.90996,23.78657c3.90006,17.037 -57.79643,31.1604 -61.6965,14.1234z" fill="#dadada"/><path d="M478.28431,34.33946c-1.67752,-7.32804 2.90315,-14.62847 10.23118,-16.30601c7.32804,-1.67752 14.6285,2.90312 16.306,10.23117c1.67752,7.32804 -2.90314,14.62846 -10.23119,16.306c-7.32804,1.67752 -14.62848,-2.90315 -16.30601,-10.23118z" fill="#000000"/><path d="M499.99331,29.91484c-1.67752,-7.32804 2.90313,-14.62847 10.23117,-16.30598c7.32804,-1.67753 14.62847,2.90316 16.30601,10.23118c1.67752,7.32804 -2.90312,14.62847 -10.23118,16.306c-7.32804,1.67752 -14.62846,-2.90313 -16.30601,-10.23118z" fill="#000000"/><path d="M539.73939,26.95419c0.9477,4.40261 -5.91116,19.06756 -31.79866,24.99364c-25.88747,5.92609 -37.66622,-5.21055 -38.73048,-9.58646c-3.29819,-13.56059 9.20389,-0.38465 35.09135,-6.31076c25.88747,-5.92609 32.38161,-23.2942 35.43779,-9.09646z" fill="#ababab"/><path d="M495.45573,41.4259c-2.65566,-11.60096 -2.8371,-39.87841 0.6737,-40.68209c3.51079,-0.80367 16.20638,22.08821 18.86205,33.68917c2.65566,11.60096 -16.88009,18.59388 -19.53574,6.99295z" fill="#ababab"/><path d="M515.42719,32.93598c0.1964,0.85789 -2.24906,12.09468 -8.29021,13.47761c-6.04116,1.38293 -13.39037,-7.61165 -13.58678,-8.46957c-0.1964,-0.8579 21.68061,-5.86594 21.87698,-5.00803z" fill="#1d1d1d"/><g><path d="M514.00855,-31.32868c0.88232,3.85429 -8.90347,9.38265 -21.8572,12.34798c-12.95369,2.96533 -24.16999,2.24468 -25.05231,-1.60959c-0.14592,-0.63753 -0.30807,-2.58351 1.73658,-3.50055c7.8988,-3.54266 31.08756,-8.68789 41.22678,-9.03989c3.10347,-0.10774 3.77354,1.04819 3.94611,1.80205z" fill="#101010"/><path d="M513.89129,-30.70632c1.89656,8.28495 3.90012,21.82715 -3.57861,29.37665c-5.30973,5.35998 -19.11701,5.99076 -24.49462,7.22178c-12.95195,2.96493 -15.58688,-11.69437 -18.82997,-25.86145c-1.1675,-5.10004 3.70538,-1.25728 11.15889,-4.46645c6.24087,-2.68704 15.96256,-1.98309 22.0949,-4.8244c6.88837,-3.19157 12.55134,-6.24286 13.64941,-1.44612z" fill="#0d0d0d"/></g><g><path d="M526.09986,-7.17199c0.20675,0.9032 -12.90343,4.6749 -29.28243,8.42432c-16.37899,3.74943 -29.8244,6.05677 -30.03115,5.15357c-0.20675,-0.9032 12.90343,-4.67489 29.28242,-8.42432c16.37899,-3.74942 29.8244,-6.05678 30.03117,-5.15356z" fill="#101010"/><path d="M525.81813,-6.96795c0.44445,1.94143 -0.15932,5.36055 -10.9236,9.19258c-7.6424,2.72066 -24.53381,5.99455 -31.33343,7.55111c-16.37682,3.74894 -16.28866,0.15223 -17.04864,-3.1676c-0.27357,-1.1951 7.25607,-0.83982 17.01731,-3.4265c8.17311,-2.16586 18.87209,-3.65066 26.94811,-5.83625c9.07165,-2.45503 15.08296,-5.43737 15.34027,-4.31334z" fill="#0d0d0d"/></g><path d="M516.94554,-10.07319c0.1677,0.7325 1.2458,2.89396 -0.41519,3.90436c-1.40682,0.85577 -3.86445,1.30308 -6.69832,2.21262c-2.90525,0.93245 -6.21176,2.32516 -9.66827,3.03915c-1.74514,0.36048 -3.24918,-0.16874 -4.99455,0.23082c-2.63433,0.60304 -5.59128,1.87628 -8.63641,2.42577c-2.64459,0.4772 -5.39511,0.23652 -7.5677,0.6817c-2.69864,0.55295 -4.19524,1.44757 -5.78797,1.39124c-2.68558,-0.09498 -1.49745,-2.59569 -1.69927,-3.47728c-0.16922,-0.73918 -1.65956,-3.23334 0.03114,-4.25454c1.56635,-0.94608 4.33538,-2.45564 7.82518,-3.03723c2.54337,-0.42383 5.56621,0.06711 8.3104,-0.44629c2.12796,-0.39812 3.50616,-1.16732 5.60963,-1.64886c2.10728,-0.48239 4.28894,-0.3905 6.53533,-1.09764c2.64443,-0.83241 5.1622,-2.4606 7.59032,-3.36484c3.41003,-1.26991 6.50968,-1.69534 8.36601,-1.5904c2.38918,0.13506 1.01083,4.20649 1.19968,5.03148z" fill="#801d1d"/></g></g></g></svg>