<svg version="1.1" xmlns="http://www.w3.org/2000/svg" xmlns:xlink="http://www.w3.org/1999/xlink" width="777.77778" height="530.76767" viewBox="0,0,777.77778,530.76767"><defs><radialGradient cx="518.4781" cy="143.86783" r="99.46892" gradientUnits="userSpaceOnUse" id="color-1"><stop offset="0" stop-color="#343434"/><stop offset="1" stop-color="#313131"/></radialGradient><linearGradient x1="491.25987" y1="190.89958" x2="507.59785" y2="190.89958" gradientUnits="userSpaceOnUse" id="color-2"><stop offset="0" stop-color="#505050"/><stop offset="1" stop-color="#5f5f5f"/></linearGradient><linearGradient x1="488.51557" y1="172.6313" x2="510.34214" y2="172.6313" gradientUnits="userSpaceOnUse" id="color-3"><stop offset="0" stop-color="#3d3d3d"/><stop offset="1" stop-color="#565656"/></linearGradient><linearGradient x1="491.25987" y1="94.99253" x2="507.59785" y2="94.99253" gradientUnits="userSpaceOnUse" id="color-4"><stop offset="0" stop-color="#505050"/><stop offset="1" stop-color="#5f5f5f"/></linearGradient><linearGradient x1="488.51557" y1="113.26081" x2="510.34214" y2="113.26081" gradientUnits="userSpaceOnUse" id="color-5"><stop offset="0" stop-color="#3d3d3d"/><stop offset="1" stop-color="#565656"/></linearGradient><linearGradient x1="453.71788" y1="190.89958" x2="470.05586" y2="190.89958" gradientUnits="userSpaceOnUse" id="color-6"><stop offset="0" stop-color="#505050"/><stop offset="1" stop-color="#5f5f5f"/></linearGradient><linearGradient x1="450.97359" y1="172.6313" x2="472.80016" y2="172.6313" gradientUnits="userSpaceOnUse" id="color-7"><stop offset="0" stop-color="#3d3d3d"/><stop offset="1" stop-color="#565656"/></linearGradient><linearGradient x1="453.71788" y1="94.99253" x2="470.05586" y2="94.99253" gradientUnits="userSpaceOnUse" id="color-8"><stop offset="0" stop-color="#505050"/><stop offset="1" stop-color="#5f5f5f"/></linearGradient><linearGradient x1="450.97359" y1="113.26081" x2="472.80016" y2="113.26081" gradientUnits="userSpaceOnUse" id="color-9"><stop offset="0" stop-color="#3d3d3d"/><stop offset="1" stop-color="#565656"/></linearGradient><linearGradient x1="566.76097" y1="190.89958" x2="583.09895" y2="190.89958" gradientUnits="userSpaceOnUse" id="color-10"><stop offset="0" stop-color="#505050"/><stop offset="1" stop-color="#5f5f5f"/></linearGradient><linearGradient x1="564.01667" y1="172.6313" x2="585.84324" y2="172.6313" gradientUnits="userSpaceOnUse" id="color-11"><stop offset="0" stop-color="#3d3d3d"/><stop offset="1" stop-color="#565656"/></linearGradient><linearGradient x1="566.76097" y1="94.99253" x2="583.09895" y2="94.99253" gradientUnits="userSpaceOnUse" id="color-12"><stop offset="0" stop-color="#505050"/><stop offset="1" stop-color="#5f5f5f"/></linearGradient><linearGradient x1="564.01667" y1="113.26081" x2="585.84324" y2="113.26081" gradientUnits="userSpaceOnUse" id="color-13"><stop offset="0" stop-color="#3d3d3d"/><stop offset="1" stop-color="#565656"/></linearGradient><linearGradient x1="529.21898" y1="190.89958" x2="545.55696" y2="190.89958" gradientUnits="userSpaceOnUse" id="color-14"><stop offset="0" stop-color="#505050"/><stop offset="1" stop-color="#5f5f5f"/></linearGradient><linearGradient x1="526.47469" y1="172.6313" x2="548.30126" y2="172.6313" gradientUnits="userSpaceOnUse" id="color-15"><stop offset="0" stop-color="#3d3d3d"/><stop offset="1" stop-color="#565656"/></linearGradient><linearGradient x1="529.21898" y1="94.99253" x2="545.55696" y2="94.99253" gradientUnits="userSpaceOnUse" id="color-16"><stop offset="0" stop-color="#505050"/><stop offset="1" stop-color="#5f5f5f"/></linearGradient><linearGradient x1="526.47469" y1="113.26081" x2="548.30126" y2="113.26081" gradientUnits="userSpaceOnUse" id="color-17"><stop offset="0" stop-color="#3d3d3d"/><stop offset="1" stop-color="#565656"/></linearGradient><linearGradient x1="-26.49166" y1="181.14646" x2="138.47964" y2="181.14646" gradientUnits="userSpaceOnUse" id="color-18"><stop offset="0" stop-color="#000000"/><stop offset="1" stop-color="#000000" stop-opacity="0"/></linearGradient><linearGradient x1="748.88889" y1="177.63219" x2="583.9176" y2="177.63219" gradientUnits="userSpaceOnUse" id="color-19"><stop offset="0" stop-color="#000000"/><stop offset="1" stop-color="#000000" stop-opacity="0"/></linearGradient><linearGradient x1="360.26181" y1="-33.61388" x2="360.26181" y2="104.67877" gradientUnits="userSpaceOnUse" id="color-20"><stop offset="0" stop-color="#000000"/><stop offset="1" stop-color="#000000" stop-opacity="0"/></linearGradient><linearGradient x1="359.22991" y1="393.87422" x2="359.22991" y2="255.58157" gradientUnits="userSpaceOnUse" id="color-21"><stop offset="0" stop-color="#000000"/><stop offset="1" stop-color="#000000" stop-opacity="0"/></linearGradient></defs><g transform="translate(28.88889,33.87421)"><g stroke-miterlimit="10"><path d="M-13,153v-160.3741h746v160.3741z" fill="#323232" stroke="#000000" stroke-width="0"/><path d="M-12.41291,360v-160.3741h746v160.3741z" fill="#323232" stroke="#000000" stroke-width="0"/><path d="M140.91891,267.84577v-175.69155h589.81381v175.69155z" fill="#505050" stroke="#000000" stroke-width="0"/><path d="M0,360v-360c0,0 125.97391,52.74121 186.98214,72.46605c58.47928,18.9072 171.80164,21.01143 171.80164,21.01143l-0.28529,173.54505c0,0 -118.08837,8.33839 -178.00608,27.56199c-60.08185,19.27626 -180.49242,65.41549 -180.49242,65.41549z" fill="#505050" stroke="none" stroke-width="0"/><path d="M375.76577,226.27939v-166.66667h285.28529v166.66667z" fill="#818181" stroke="none" stroke-width="0"/><path d="M410.3003,280.33344v-287.70755h27.02703v287.70755z" fill="#818181" stroke="none" stroke-width="0"/><path d="M464.3003,280.33344v-287.70755h27.02702v287.70755z" fill="#818181" stroke="none" stroke-width="0"/><path d="M546.3003,280.33344v-287.70755h27.02702v287.70755z" fill="#818181" stroke="none" stroke-width="0"/><path d="M604.3003,280.33344v-287.70755h27.02702v287.70755z" fill="#818181" stroke="none" stroke-width="0"/><path d="M437.34084,280.73983c0,2.34721 -6.05021,4.25 -13.51351,4.25c-7.46331,0 -13.51351,-1.90279 -13.51351,-4.25c0,-2.34721 6.05021,-4.25 13.51351,-4.25c7.46331,0 13.51351,1.90279 13.51351,4.25z" fill="#818181" stroke="none" stroke-width="0"/><path d="M490.84084,280.33344c0,2.34721 -6.05021,4.25 -13.51352,4.25c-7.4633,0 -13.51351,-1.90279 -13.51351,-4.25c0,-2.34721 6.05021,-4.25 13.51351,-4.25c7.4633,0 13.51352,1.90279 13.51352,4.25z" fill="#818181" stroke="none" stroke-width="0"/><path d="M573.34084,280.33344c0,2.34721 -6.05021,4.25 -13.51352,4.25c-7.4633,0 -13.51351,-1.90279 -13.51351,-4.25c0,-2.34721 6.05021,-4.25 13.51351,-4.25c7.4633,0 13.51352,1.90279 13.51352,4.25z" fill="#818181" stroke="none" stroke-width="0"/><path d="M631.34084,280.33344c0,2.34721 -6.05021,4.25 -13.51351,4.25c-7.4633,0 -13.51351,-1.90279 -13.51351,-4.25c0,-2.34721 6.05021,-4.25 13.51351,-4.25c7.4633,0 13.51351,1.90279 13.51351,4.25z" fill="#818181" stroke="none" stroke-width="0"/><g stroke="none" stroke-width="0"><path d="M106.72898,272.86379v-30.71712c0,0 69.2238,-27.79138 108.79142,-33.56612c39.35718,-5.74402 127.98636,-0.99064 127.98636,-0.99064v29.43724z" fill="#606060"/><path d="M106.72898,272.86379v-30.71712l236.77778,-34.55676v29.43724z" fill="#7a7a7a"/></g><g stroke="none" stroke-width="0"><path d="M418.73041,199.87731l199.07724,1.81657l18.98966,11.47089l-236.31801,0.23179z" fill="#4b4b4b"/><path d="M618.54618,86.1927l-199.07724,-1.81658l-18.98966,-11.47088l236.31801,-0.23179z" fill="#4b4b4b"/><path d="M419.00918,203.76921v-119.80277h198.93785v119.80277z" fill="url(#color-1)"/><path d="M400.01953,213.19173l0.45976,-140.69617l18.98966,11.47088v119.80277z" fill="#5d5d5d"/><path d="M617.02751,203.76921v-119.80277l18.98965,-11.47088l0.45976,140.69617z" fill="#5d5d5d"/></g><g stroke="none" stroke-width="0"><g><g><path d="M491.25987,208.2496v-34.70004h16.33798v34.70004c0,0 -5.80629,1.01491 -8.5968,1.01491c-2.64801,0 -7.74118,-1.01491 -7.74118,-1.01491z" fill="url(#color-2)"/><path d="M510.34214,173.212c0,1.44029 -4.88604,2.60787 -10.91329,2.60787c-6.02724,0 -10.91329,-1.16758 -10.91329,-2.60787c0,-1.44029 4.88604,-2.60787 10.91329,-2.60787c6.02724,0 10.91329,1.16758 10.91329,2.60787z" fill="#373737"/><path d="M510.34214,172.6313c0,1.18672 -4.88604,2.14874 -10.91329,2.14874c-6.02724,0 -10.91329,-0.96202 -10.91329,-2.14874c0,-1.18672 4.88604,-2.14874 10.91329,-2.14874c6.02724,0 10.91329,0.96202 10.91329,2.14874z" fill="url(#color-3)"/></g><g><path d="M499.00104,76.6276c2.79051,0 8.5968,1.01491 8.5968,1.01491v34.70004h-16.33798v-34.70004c0,0 5.09317,-1.01491 7.74118,-1.01491z" fill="url(#color-4)"/><path d="M499.42886,115.28799c-6.02724,0 -10.91329,-1.16758 -10.91329,-2.60787c0,-1.44029 4.88604,-2.60787 10.91329,-2.60787c6.02724,0 10.91329,1.16758 10.91329,2.60787c0,1.44029 -4.88604,2.60787 -10.91329,2.60787z" fill="#373737"/><path d="M499.42886,115.40955c-6.02724,0 -10.91329,-0.96202 -10.91329,-2.14874c0,-1.18672 4.88604,-2.14874 10.91329,-2.14874c6.02724,0 10.91329,0.96202 10.91329,2.14874c0,1.18672 -4.88604,2.14874 -10.91329,2.14874z" fill="url(#color-5)"/></g></g><g><g><path d="M453.71788,208.2496v-34.70004h16.33798v34.70004c0,0 -5.80629,1.01491 -8.5968,1.01491c-2.64801,0 -7.74118,-1.01491 -7.74118,-1.01491z" fill="url(#color-6)"/><path d="M472.80016,173.212c0,1.44029 -4.88604,2.60787 -10.91329,2.60787c-6.02724,0 -10.91329,-1.16758 -10.91329,-2.60787c0,-1.44029 4.88604,-2.60787 10.91329,-2.60787c6.02724,0 10.91329,1.16758 10.91329,2.60787z" fill="#373737"/><path d="M472.80016,172.6313c0,1.18672 -4.88604,2.14874 -10.91329,2.14874c-6.02724,0 -10.91329,-0.96202 -10.91329,-2.14874c0,-1.18672 4.88604,-2.14874 10.91329,-2.14874c6.02724,0 10.91329,0.96202 10.91329,2.14874z" fill="url(#color-7)"/></g><g><path d="M461.45906,76.6276c2.79051,0 8.5968,1.01491 8.5968,1.01491v34.70004h-16.33798v-34.70004c0,0 5.09317,-1.01491 7.74118,-1.01491z" fill="url(#color-8)"/><path d="M461.88687,115.28799c-6.02724,0 -10.91329,-1.16758 -10.91329,-2.60787c0,-1.44029 4.88604,-2.60787 10.91329,-2.60787c6.02724,0 10.91329,1.16758 10.91329,2.60787c0,1.44029 -4.88604,2.60787 -10.91329,2.60787z" fill="#373737"/><path d="M461.88687,115.40955c-6.02724,0 -10.91329,-0.96202 -10.91329,-2.14874c0,-1.18672 4.88604,-2.14874 10.91329,-2.14874c6.02724,0 10.91329,0.96202 10.91329,2.14874c0,1.18672 -4.88604,2.14874 -10.91329,2.14874z" fill="url(#color-9)"/></g></g></g><g stroke="none" stroke-width="0"><g><g><path d="M566.76097,208.2496v-34.70004h16.33798v34.70004c0,0 -5.80629,1.01491 -8.5968,1.01491c-2.64801,0 -7.74118,-1.01491 -7.74118,-1.01491z" fill="url(#color-10)"/><path d="M585.84324,173.212c0,1.44029 -4.88604,2.60787 -10.91329,2.60787c-6.02724,0 -10.91329,-1.16758 -10.91329,-2.60787c0,-1.44029 4.88604,-2.60787 10.91329,-2.60787c6.02724,0 10.91329,1.16758 10.91329,2.60787z" fill="#373737"/><path d="M585.84324,172.6313c0,1.18672 -4.88604,2.14874 -10.91329,2.14874c-6.02724,0 -10.91329,-0.96202 -10.91329,-2.14874c0,-1.18672 4.88604,-2.14874 10.91329,-2.14874c6.02724,0 10.91329,0.96202 10.91329,2.14874z" fill="url(#color-11)"/></g><g><path d="M574.50215,76.6276c2.79051,0 8.5968,1.01491 8.5968,1.01491v34.70004h-16.33798v-34.70004c0,0 5.09317,-1.01491 7.74118,-1.01491z" fill="url(#color-12)"/><path d="M574.92996,115.28799c-6.02724,0 -10.91329,-1.16758 -10.91329,-2.60787c0,-1.44029 4.88604,-2.60787 10.91329,-2.60787c6.02724,0 10.91329,1.16758 10.91329,2.60787c0,1.44029 -4.88604,2.60787 -10.91329,2.60787z" fill="#373737"/><path d="M574.92996,115.40955c-6.02724,0 -10.91329,-0.96202 -10.91329,-2.14874c0,-1.18672 4.88604,-2.14874 10.91329,-2.14874c6.02724,0 10.91329,0.96202 10.91329,2.14874c0,1.18672 -4.88604,2.14874 -10.91329,2.14874z" fill="url(#color-13)"/></g></g><g><g><path d="M529.21898,208.2496v-34.70004h16.33798v34.70004c0,0 -5.80629,1.01491 -8.5968,1.01491c-2.64801,0 -7.74118,-1.01491 -7.74118,-1.01491z" fill="url(#color-14)"/><path d="M548.30126,173.212c0,1.44029 -4.88604,2.60787 -10.91329,2.60787c-6.02724,0 -10.91329,-1.16758 -10.91329,-2.60787c0,-1.44029 4.88604,-2.60787 10.91329,-2.60787c6.02724,0 10.91329,1.16758 10.91329,2.60787z" fill="#373737"/><path d="M548.30126,172.6313c0,1.18672 -4.88604,2.14874 -10.91329,2.14874c-6.02724,0 -10.91329,-0.96202 -10.91329,-2.14874c0,-1.18672 4.88604,-2.14874 10.91329,-2.14874c6.02724,0 10.91329,0.96202 10.91329,2.14874z" fill="url(#color-15)"/></g><g><path d="M536.96016,76.6276c2.79051,0 8.5968,1.01491 8.5968,1.01491v34.70004h-16.33798v-34.70004c0,0 5.09317,-1.01491 7.74118,-1.01491z" fill="url(#color-16)"/><path d="M537.38797,115.28799c-6.02724,0 -10.91329,-1.16758 -10.91329,-2.60787c0,-1.44029 4.88604,-2.60787 10.91329,-2.60787c6.02724,0 10.91329,1.16758 10.91329,2.60787c0,1.44029 -4.88604,2.60787 -10.91329,2.60787z" fill="#373737"/><path d="M537.38797,115.40955c-6.02724,0 -10.91329,-0.96202 -10.91329,-2.14874c0,-1.18672 4.88604,-2.14874 10.91329,-2.14874c6.02724,0 10.91329,0.96202 10.91329,2.14874c0,1.18672 -4.88604,2.14874 -10.91329,2.14874z" fill="url(#color-17)"/></g></g></g><g stroke-width="0"><g fill-opacity="0.83922" fill="#000000" stroke="#000000"><path d="M-16.34512,373.95896v-403.48913h743.89439v403.48913z"/></g><g stroke="none"><path d="M-26.49166,392.65285v-423.0128h164.97129v423.0128z" fill="url(#color-18)"/><path d="M583.9176,389.13859v-423.0128h164.97129v423.0128z" fill="url(#color-19)"/><path d="M-27.857,104.67877v-138.29264h776.23763v138.29265z" fill="url(#color-20)"/><path d="M747.34873,255.58157v138.29264h-776.23762v-138.29264z" fill="url(#color-21)"/></g></g><g stroke="#000000" stroke-width="0"><path d="M226.85751,271.01193c-10.51473,1.23487 -20.08043,-6.35393 -21.3656,-16.95005c-1.28517,-10.59613 6.19687,-20.18704 16.7116,-21.42191c10.51473,-1.23487 20.08043,6.35393 21.3656,16.95005c1.28517,10.59613 -6.19687,20.18704 -16.7116,21.42191z" fill="#646464"/><path d="M256.71622,427.79337c-6.3412,0.74472 -12.11007,-3.83191 -12.88512,-10.2222c-0.77506,-6.39029 3.73718,-12.17435 10.07838,-12.91907c6.3412,-0.74472 12.11007,3.83191 12.88512,10.2222c0.77506,6.39029 -3.73718,12.17435 -10.07838,12.91907z" fill="#646464"/><path d="M244.51344,336.97996c-7.53826,0.88531 -14.39613,-4.55529 -15.3175,-12.15189c-0.92137,-7.5966 4.44269,-14.47257 11.98094,-15.35788c7.53826,-0.88531 14.39614,4.55529 15.31751,12.15189c0.92137,7.5966 -4.4427,14.47257 -11.98095,15.35788z" fill="#646464"/><path d="M223.52261,372.59728c-5.0328,-41.49502 5.62687,-40.55938 19.68491,-42.21039c14.05804,-1.65101 25.19276,-5.14619 30.22554,36.3488c5.0328,41.49502 -6.21441,44.06273 -20.27245,45.71374c-14.05804,1.65101 -24.6052,1.64287 -29.638,-39.85215z" fill="#363636"/><path d="M213.36672,288.86268c-5.0328,-41.49502 5.62687,-40.55937 19.68491,-42.21038c14.05804,-1.65101 25.19276,-5.14619 30.22554,36.3488c5.0328,41.49502 -6.21442,44.06272 -20.27246,45.71373c-14.05804,1.65101 -24.60519,1.64287 -29.63799,-39.85215z" fill="#363636"/><path d="M244.10627,465.96462c-0.83732,-12.21412 2.04049,-11.73235 5.87237,-11.93925c3.83189,-0.20694 6.8947,-1.00954 7.732,11.20457c0.83732,12.21412 -2.24423,12.74372 -6.07613,12.95064c-3.83189,0.20694 -6.69093,-0.00189 -7.52824,-12.21601z" fill="#3a3a3a"/><path d="M245.30315,483.3163c-0.8373,-12.21411 2.04046,-11.73235 5.87234,-11.93925c3.83189,-0.20694 6.89471,-1.00954 7.73201,11.20457c0.8373,12.21411 -2.24424,12.74373 -6.07612,12.95064c-3.83189,0.20694 -6.69094,-0.00188 -7.52825,-12.216z" fill="#3a3a3a"/><path d="M258.91272,467.28777c-0.83732,-12.21412 2.04048,-11.73234 5.87236,-11.93926c3.83189,-0.20694 6.8947,-1.00955 7.732,11.20456c0.83732,12.21412 -2.24424,12.74373 -6.07612,12.95064c-3.83189,0.20694 -6.69095,-0.00186 -7.52825,-12.21597z" fill="#3a3a3a"/><path d="M260.10954,484.63945c-0.8373,-12.21411 2.04046,-11.73234 5.87236,-11.93925c3.83189,-0.20694 6.8947,-1.00954 7.732,11.20457c0.8373,12.21411 -2.24422,12.74372 -6.07612,12.95064c-3.83189,0.20694 -6.69094,-0.00188 -7.52825,-12.216z" fill="#3a3a3a"/><path d="M273.78085,465.28645c-0.83732,-12.21412 2.04049,-11.73232 5.87237,-11.93924c3.83189,-0.20694 6.89468,-1.00956 7.732,11.20456c0.83732,12.21412 -2.24422,12.74374 -6.07612,12.95066c-3.83189,0.20694 -6.69094,-0.00188 -7.52825,-12.216z" fill="#3a3a3a"/><path d="M274.97766,482.63813c-0.8373,-12.21411 2.04046,-11.73234 5.87236,-11.93925c3.83189,-0.20694 6.8947,-1.00954 7.732,11.20457c0.8373,12.21411 -2.24422,12.74373 -6.0761,12.95066c-3.83189,0.20694 -6.69094,-0.00188 -7.52825,-12.216z" fill="#3a3a3a"/><path d="M224.72458,461.23663c-0.8373,-12.21411 2.04046,-11.73236 5.87234,-11.93926c3.83189,-0.20694 6.8947,-1.00953 7.732,11.20458c0.8373,12.21411 -2.24424,12.74372 -6.07612,12.95063c-3.83189,0.20694 -6.69095,-0.00187 -7.52823,-12.21599z" fill="#3a3a3a"/><path d="M232.66188,437.22418c-2.53178,0.29734 -4.85745,-1.7144 -5.19451,-4.49337c-0.33705,-2.77895 1.44214,-5.2728 3.97393,-5.57014c2.53178,-0.29734 4.85744,1.71441 5.1945,4.49338c0.33705,2.77895 -1.44213,5.27279 -3.97392,5.57013z" fill="#646464"/><path d="M224.18484,443.55261c-0.83732,-12.21412 2.0405,-11.73233 5.87238,-11.93925c3.83189,-0.20694 6.89468,-1.00955 7.73199,11.20457c0.83732,12.21412 -2.24424,12.74375 -6.07612,12.95066c-3.83189,0.20694 -6.69094,-0.00188 -7.52825,-12.216z" fill="#3a3a3a"/><path d="M254.24192,413.16726c16.63457,-1.18047 27.89328,-5.05549 31.84816,27.55209c1.69201,13.95046 0.91858,17.66563 -1.63685,21.13864c-3.41759,4.64476 -34.10482,7.66963 -39.7611,-0.78993c-1.76374,-2.63783 -5.68194,-10.09558 -6.15609,-14.00496c-1.67071,-13.77484 -13.41732,-19.88025 -10.22593,-25.11738c4.36325,-7.16014 15.13711,-8.0124 25.93185,-8.77844z" fill="#363636"/></g><path d="M154.00068,440.33286c-8.53708,-1.90237 -13.92942,-10.4278 -12.04409,-19.04209c1.88533,-8.61427 10.33439,-14.05534 18.87147,-12.15297c8.53708,1.90237 13.92941,10.42781 12.04408,19.04208c-1.88533,8.61427 -10.33438,14.05535 -18.87146,12.15298z" fill="#646464" stroke="#000000" stroke-width="0"/><path d="M85.77024,409.075c1.88533,-8.61427 10.33438,-14.05534 18.87146,-12.15297c8.53708,1.90237 13.92941,10.42781 12.04408,19.04208c-1.88533,8.61427 -10.33438,14.05535 -18.87146,12.15298c-8.53708,-1.90237 -13.92941,-10.4278 -12.04408,-19.04209z" fill="#646464" stroke="#000000" stroke-width="0"/><g fill="#3e3e3e" stroke="#000000" stroke-width="0"><path d="M114.18559,432.55724l-3.27572,-35.45693l62.63499,13.95736c0,0 -27.62241,28.5717 -36.81066,26.52422c-8.02443,-1.78814 -22.54859,-5.02465 -22.54859,-5.02465z"/><path d="M114.68669,432.6689c-9.18824,-2.04747 -22.31678,-39.69998 -22.31678,-39.69998l62.63499,13.95736l-17.7696,30.76726c0,0 -14.5242,-3.23652 -22.54859,-5.02465z"/></g><path d="M80.83869,225.66574c2.28206,-10.42698 12.50902,-17.013 22.84256,-14.71031c10.33354,2.30269 16.86057,12.62212 14.57851,23.0491c-2.28206,10.42698 -12.50902,17.013 -22.84256,14.71031c-10.33354,-2.30269 -16.86057,-12.62212 -14.57851,-23.0491z" fill="#646464" stroke="#000000" stroke-width="0"/><path d="M42.08259,387.98732c1.37626,-6.28827 7.54392,-10.26015 13.77583,-8.87146c6.23193,1.3887 10.16822,7.61212 8.79196,13.90039c-1.37626,6.28827 -7.5439,10.26016 -13.77583,8.87146c-6.23193,-1.3887 -10.16822,-7.61212 -8.79196,-13.90039z" fill="#646464" stroke="#000000" stroke-width="0"/><path d="M61.26894,295.63279c1.63606,-7.47533 8.968,-12.19702 16.37637,-10.54617c7.40835,1.65085 12.08773,9.04911 10.45167,16.52444c-1.63606,7.47533 -8.96802,12.19702 -16.37637,10.54617c-7.40835,-1.65085 -12.08774,-9.04909 -10.45167,-16.52444z" fill="#646464" stroke="#000000" stroke-width="0"/><path d="M55.97012,386.47355c-13.81579,-3.07866 -24.75096,-6.78409 -15.81429,-47.6167c8.93666,-40.83261 19.67208,-36.21448 33.48787,-33.13582c13.81579,3.07866 24.49918,3.23345 15.56252,44.06604c-8.93666,40.83261 -19.42031,39.76514 -33.2361,36.68648z" fill="#363636" stroke="#000000" stroke-width="0"/><path d="M74.00381,304.07566c-13.81579,-3.07866 -24.75097,-6.7841 -15.8143,-47.61671c8.93666,-40.83261 19.67208,-36.21447 33.48787,-33.13581c13.81579,3.07866 24.49919,3.23345 15.56253,44.06604c-8.93666,40.83261 -19.42031,39.76514 -33.2361,36.68648z" fill="#363636" stroke="#000000" stroke-width="0"/><g fill="#343434" stroke="#000000" stroke-width="0"><path d="M181.77924,426.34343c-1.04091,4.756 -25.01951,3.45624 -53.55768,-2.90311c-28.53818,-6.35935 -50.82912,-15.37014 -49.78821,-20.12614c1.04091,-4.756 25.0195,-3.45622 53.55767,2.90313c28.53818,6.35935 50.82913,15.37012 49.78822,20.12613z"/><g><g><path d="M78.42994,403.312l11.0621,-88.97589c0,0 -1.41419,-12.42857 -0.59295,-22.5206c0.71812,-8.82514 13.32795,-76.06021 29.66615,-75.06593c0.29134,0.01775 28.27025,7.64724 57.761,15.70624c33.05222,9.03226 -9.05906,191.58431 -29.0281,186.92501c-21.89827,-5.10945 -68.86819,-16.0688 -68.86819,-16.0688z"/></g><g><path d="M112.60148,411.64912c-20.05648,-4.25983 17.93997,-187.72883 51.68795,-181.87554c30.11155,5.22257 58.67259,10.19223 58.94423,10.29996c15.23366,6.04107 -1.39099,72.38152 -4.42297,80.69104c-3.46723,9.50242 -9.93718,20.17411 -9.93718,20.17411l-27.10229,85.40155c0,0 -47.17557,-10.0197 -69.16971,-14.6911z"/></g></g><path d="M226.41973,244.76284c-1.42435,6.50799 -27.80811,6.16178 -58.92975,-0.77326c-31.12166,-6.93504 -55.19609,-17.83278 -53.77174,-24.34076c1.42435,-6.50799 27.80809,-6.16178 58.92975,0.77326c31.12166,6.93504 55.19609,17.83278 53.77174,24.34076z"/></g><path d="M194.85649,231.82205c-0.65194,2.97875 -11.72626,3.04354 -24.73522,0.14467c-13.00895,-2.89887 -23.02628,-7.66363 -22.37434,-10.6424c0.65194,-2.97875 11.72627,-3.04351 24.73521,-0.14465c13.00895,2.89887 23.02629,7.66363 22.37435,10.64238z" fill="#000000" stroke="#000000" stroke-width="0"/><g fill="#810000" stroke="#000000" stroke-width="0"><path d="M74.41833,405.70748c0,0 -3.34484,-3.71302 8.4296,-55.82043c10.13063,-44.83268 12.4991,-100.31848 17.97685,-118.64606c2.35179,-7.86865 11.17657,-18.16111 22.72031,-19.8683c16.02071,-2.36928 35.62116,5.74338 35.62116,5.74338c0,0 -11.99725,-1.31844 -13.98268,8.6421c-6.08784,30.54147 -27.09868,197.45503 -27.09868,197.45503c0,0 -14.7396,-1.67913 -21.32668,-4.31987c-7.77164,-3.11562 -22.33986,-13.18586 -22.33986,-13.18586z"/><path d="M158.74468,432.70622c-7.07662,-0.40404 -21.14617,-5.14463 -21.14617,-5.14463c0,0 50.60744,-160.31835 57.83281,-190.60633c2.35641,-9.87787 -9.07532,-13.78027 -9.07532,-13.78027c0,0 21.16347,0.97103 34.70532,9.92793c9.7576,6.45391 13.46593,19.53917 12.31485,27.67541c-2.68102,18.95079 -23.69076,70.28266 -33.214,115.25066c-11.06853,52.26471 -15.652,54.21102 -15.652,54.21102c0,0 -17.41626,2.94294 -25.76548,2.46625z"/></g><g fill="#810000" stroke="#000000" stroke-width="0"><path d="M72.50979,405.28219c0,0 -3.48228,-3.74365 8.3044,-55.84833c10.14115,-44.83033 12.18645,-100.38816 17.71269,-118.70493c2.37261,-7.86402 11.41465,-18.10806 23.32768,-19.73295c16.53319,-2.25508 36.8403,6.01506 36.8403,6.01506c0,0 -12.40341,-1.40894 -14.38241,8.55303c-6.0681,30.54587 -26.56589,197.57375 -26.56589,197.57375c0,0 -15.23903,-1.79043 -22.06299,-4.48395c-8.05112,-3.1779 -23.17378,-13.37169 -23.17378,-13.37169z"/><path d="M159.81925,432.94568c-7.31348,-0.45682 -21.88247,-5.30871 -21.88247,-5.30871c0,0 51.12053,-160.20402 58.36559,-190.48761c2.36285,-9.87644 -9.47505,-13.86934 -9.47505,-13.86934c0,0 21.87014,1.12851 35.92447,10.1996c10.12689,6.5362 14.05246,19.66987 12.92222,27.81075c-2.63254,18.96159 -23.96546,70.22145 -33.47818,115.1918c-11.05627,52.26745 -15.77719,54.18312 -15.77719,54.18312c0,0 -17.97076,2.81938 -26.59942,2.28041z"/></g><g fill="#646464" stroke="#000000" stroke-width="0"><path d="M153.50087,221.73687l2.85692,-13.05362l35.96473,8.01426l-2.85693,13.05362z"/><path d="M189.46558,229.75113c-0.46815,2.13902 -8.89865,2.07899 -18.83003,-0.13409c-9.93138,-2.21308 -17.60285,-5.74115 -17.13469,-7.88017c0.46815,-2.13902 8.89865,-2.079 18.83001,0.13408c9.93138,2.21308 17.60286,5.74116 17.13471,7.88018z"/><path d="M192.32251,216.69751c-0.46815,2.13902 -8.89865,2.07899 -18.83003,-0.13409c-9.93138,-2.21308 -17.60285,-5.74115 -17.13469,-7.88017c0.46815,-2.13902 8.89865,-2.079 18.83001,0.13408c9.93138,2.21308 17.60286,5.74116 17.13471,7.88018z"/></g><path d="M51.1475,452.61195c-3.78889,-0.59695 -6.80143,-1.43889 -4.8111,-13.5237c1.99034,-12.08483 4.95838,-10.97278 8.74727,-10.37581c3.78889,0.59695 6.69481,0.41035 4.70449,12.49518c-1.99034,12.08483 -4.85179,12.00133 -8.64068,11.40437z" fill="#3a3a3a" stroke="#000000" stroke-width="0"/><path d="M48.31268,469.77921c-3.78889,-0.59695 -6.80144,-1.43889 -4.81111,-13.5237c1.99033,-12.08481 4.95839,-10.97277 8.74728,-10.3758c3.78889,0.59695 6.69479,0.41034 4.70447,12.49517c-1.99033,12.08481 -4.85179,12.00133 -8.64068,11.40437z" fill="#3a3a3a" stroke="#000000" stroke-width="0"/><path d="M36.30592,452.42048c-3.78889,-0.59695 -6.80143,-1.43889 -4.8111,-13.5237c1.99034,-12.08483 4.95838,-10.97277 8.74727,-10.3758c3.78889,0.59695 6.69482,0.41035 4.70448,12.4952c-1.99034,12.08483 -4.85178,12.00132 -8.64067,11.40435z" fill="#3a3a3a" stroke="#000000" stroke-width="0"/><path d="M33.47113,469.58771c-3.78889,-0.59695 -6.80144,-1.43889 -4.81111,-13.5237c1.99033,-12.08481 4.95839,-10.97278 8.74728,-10.37581c3.78889,0.59695 6.6948,0.41035 4.70448,12.49518c-1.99033,12.08481 -4.85178,12.00133 -8.64067,11.40437z" fill="#3a3a3a" stroke="#000000" stroke-width="0"/><path d="M21.71819,448.91015c-3.78889,-0.59695 -6.80144,-1.43889 -4.8111,-13.52372c1.99034,-12.08483 4.95838,-10.97275 8.74727,-10.3758c3.78889,0.59695 6.69481,0.41035 4.70449,12.49518c-1.99034,12.08483 -4.85178,12.00132 -8.64067,11.40436z" fill="#3a3a3a" stroke="#000000" stroke-width="0"/><path d="M18.88336,466.07739c-3.78889,-0.59695 -6.80144,-1.43889 -4.8111,-13.52372c1.99033,-12.08481 4.95839,-10.97278 8.74728,-10.37581c3.78889,0.59695 6.69478,0.41034 4.70446,12.49517c-1.99033,12.08481 -4.85178,12.00133 -8.64067,11.40437z" fill="#3a3a3a" stroke="#000000" stroke-width="0"/><path d="M70.85939,449.87745c-3.78889,-0.59695 -6.80144,-1.43889 -4.81111,-13.5237c1.99033,-12.08481 4.95839,-10.97278 8.74728,-10.37581c3.78889,0.59695 6.69479,0.41035 4.70447,12.49518c-1.99033,12.08481 -4.85177,12.00133 -8.64066,11.40437z" fill="#3a3a3a" stroke="#000000" stroke-width="0"/><path d="M70.46651,407.78223c0.5985,-2.73459 3.10073,-4.50195 5.58889,-3.9475c2.48816,0.55445 4.02003,3.22074 3.42154,5.95535c-0.5985,2.73459 -3.10072,4.50196 -5.58888,3.94751c-2.48816,-0.55445 -4.02004,-3.22075 -3.42155,-5.95536z" fill="#646464" stroke="#000000" stroke-width="0"/><path d="M73.07256,432.31205c-3.78889,-0.59695 -6.80144,-1.43889 -4.8111,-13.52372c1.99034,-12.08483 4.95839,-10.97275 8.74728,-10.3758c3.78889,0.59695 6.6948,0.41035 4.70448,12.49518c-1.99034,12.08483 -4.85178,12.00132 -8.64067,11.40436z" fill="#3a3a3a" stroke="#000000" stroke-width="0"/><path d="M79.66198,398.95783c2.67538,5.54375 -9.57858,10.42935 -12.54522,23.98426c-0.84196,3.847 -5.4434,10.87835 -7.44651,13.32683c-6.42392,7.85231 -36.63727,1.70895 -39.59362,-3.26762c-2.21055,-3.72115 -2.62699,-7.50181 0.37748,-21.22957c7.0226,-32.08704 17.84525,-27.07782 34.26649,-24.20526c10.65629,1.86411 21.28364,3.81197 24.94139,11.39132z" fill="#363636" stroke="#000000" stroke-width="0"/><path d="M259.37775,206.55517c-21.44522,12.1167 -49.80905,6.86452 -56.18462,-0.68284c-16.07689,-19.0317 -14.63356,-83.69239 -3.67566,-105.06762c4.66178,-9.09364 24.14439,12.44115 48.52982,18.44561c32.93431,8.10945 72.27585,3.48357 72.27585,3.48357c0,0 -28.3135,65.38406 -60.94537,83.82128z" fill="#2f2f2f" stroke="#000000" stroke-width="0"/><path d="M257.80164,201.73169c-19.32708,10.91992 -44.88943,6.18646 -50.63528,-0.61543c-14.48895,-17.15196 -13.18821,-75.42611 -3.31261,-94.6901c4.20136,-8.19544 21.75963,11.21232 43.73654,16.62373c29.68138,7.3085 65.1372,3.13951 65.1372,3.13951c0,0 -25.51699,58.92609 -54.92582,75.54229z" fill="#252525" stroke="#000000" stroke-width="0"/><path d="M129.12373,45.60826c0,0 26.6035,31.22668 56.32118,48.38964c22.00376,12.70792 49.98605,10.31942 47.82736,20.42276c-5.07418,23.74861 -44.17982,73.21712 -68.05453,76.13325c-9.46793,1.15643 -33.98515,-14.92245 -42.52339,-39.13379c-12.99211,-36.84093 6.42939,-105.81183 6.42939,-105.81183z" fill="#2f2f2f" stroke="#000000" stroke-width="0"/><path d="M132.66751,53.55719c0,0 23.97588,28.14242 50.75837,43.6102c19.83045,11.45277 45.04892,9.30019 43.10346,18.40561c-4.57299,21.40297 -39.81618,65.98551 -61.33279,68.61359c-8.53278,1.04222 -30.62846,-13.44855 -38.32338,-35.26853c-11.70887,-33.20219 5.79437,-95.36084 5.79437,-95.36084z" fill="#252525" stroke="#000000" stroke-width="0"/><g fill="#343434" stroke="#000000" stroke-width="0"><path d="M138.91841,139.21874c13.40098,-37.71842 51.21283,-57.42491 84.45512,-44.01571c33.2423,13.40921 49.32685,54.85632 35.92587,92.57474c-13.40098,37.71842 -51.21281,57.42492 -84.4551,44.01572c-24.02205,-9.68996 -58.18938,-41.64573 -49.93514,-67.51721c4.4866,-14.06247 10.29229,-14.59579 14.00926,-25.05756z"/><path d="M249.72796,214.62547c-9.89446,25.20986 -55.35669,25.04482 -79.37875,15.35485c-33.2423,-13.40921 -49.32686,-54.85633 -35.92588,-92.57475c13.40098,-37.71842 51.21283,-57.4249 84.45512,-44.0157c33.2423,13.40921 49.32684,54.85631 35.92586,92.57473c-3.71697,10.46176 0.30177,14.95807 -5.07637,28.66089z"/></g><g fill="#2f2f2f" stroke="#000000" stroke-width="0"><path d="M142.05149,141.57304c11.85268,-33.36058 46.86403,-50.15774 78.20004,-37.51749c31.336,12.64025 47.13036,49.93132 35.27768,83.2919c-11.85268,33.36058 -46.86402,50.15774 -78.20003,37.5175c-22.64451,-9.1343 -55.18109,-38.33258 -47.92823,-61.23424c3.94229,-12.44822 9.36306,-12.80458 12.65058,-22.05765z"/><path d="M247.06195,211.09259c-8.79901,22.27798 -51.32557,21.19743 -73.97007,12.06314c-31.336,-12.64025 -47.13037,-49.9313 -35.27768,-83.2919c11.85268,-33.36058 46.86404,-50.15774 78.20005,-37.51749c31.336,12.64025 47.13037,49.93133 35.27768,83.29191c-3.28752,9.25307 0.55273,13.34515 -4.22996,25.45434z"/></g><path d="M142.58852,146.77458c6.26237,-17.62608 18.59717,-19.2567 31.28053,-14.14052c12.68335,5.11618 20.91233,15.04182 14.64996,32.66787c-6.26237,17.62608 -18.45972,18.86984 -31.14307,13.75365c-12.68335,-5.11618 -21.04977,-14.65497 -14.78741,-32.28101z" fill="#282828" stroke="#000000" stroke-width="0"/><path d="M158.23619,149.85967c4.55213,-12.81243 12.69179,-14.33114 20.89177,-11.02346c8.19998,3.30769 13.35511,10.18924 8.80299,23.00167c-4.55213,12.81243 -12.59189,14.04997 -20.79187,10.74228c-8.19998,-3.30769 -13.45502,-9.90805 -8.90289,-22.72049z" fill="#ffffff" stroke="#000000" stroke-width="0"/><path d="M159.74725,150.45287c4.09039,-11.51283 11.40442,-12.87747 18.77266,-9.90529c7.36823,2.97218 12.00047,9.15569 7.91008,20.66851c-4.09039,11.51283 -11.31463,12.6248 -18.68287,9.65261c-7.36823,-2.97218 -12.09025,-8.90303 -7.99987,-20.41584z" fill="#000000" stroke="#000000" stroke-width="0"/><path d="M161.34133,151.0787c3.60331,-10.14188 10.04639,-11.34403 16.53722,-8.72578c6.49083,2.61826 10.57146,8.06547 6.96815,18.20734c-3.60331,10.14188 -9.96731,11.12146 -16.45814,8.5032c-6.49083,-2.61826 -10.65055,-7.84287 -7.04724,-17.98476z" fill="#ffffff" stroke="#000000" stroke-width="0"/><g fill="#000000" stroke="#000000" stroke-width="0"><path d="M175.4242,226.30506c-0.23606,0.62177 -0.55711,1.17065 -1.61061,1.08616c-0.78321,-0.0628 -2.71566,-2.21546 -3.5196,-2.6887c-1.11179,-0.65447 -2.58296,-1.03204 -3.78318,-1.51618c-1.75322,-0.70722 -3.84113,-1.25972 -5.47256,-2.21739c-3.3612,-1.97303 -6.44583,-5.49322 -9.55526,-7.96037c-1.96215,-1.55879 -4.54989,-2.85189 -6.26461,-4.60382c-3.05788,-3.12426 -4.87829,-7.5543 -6.79313,-11.29447c-2.30968,-4.55091 -4.69235,-9.19362 -5.44613,-14.12187c-0.32519,-2.12608 -1.3495,-4.24853 -0.61319,-6.32093c-0.10865,-4.70294 0.73177,-9.92814 2.26434,-14.24172c0,0 0.23754,-0.66856 0.96824,-0.37381c0.34459,0.139 0.47383,0.36111 0.51424,0.55706c0.1788,0.22733 0.18096,0.50084 0.18096,0.50084c-0.0135,5.94679 2.66968,10.39164 6.52069,15.34842c1.33918,2.36302 2.43824,5.57578 4.1654,7.66295c2.95859,3.57533 8.97595,4.27092 13.05383,5.91585c3.896,1.57156 5.58282,4.4094 8.67158,6.84299c2.39551,1.88739 6.06544,2.92345 8.89584,4.06518c0.56647,0.2285 1.01442,0.4407 1.51542,0.57333l0.2691,-0.06907c1.25098,0.11106 1.78091,0.18359 2.97619,0.796c0.0587,0.45796 0.09057,0.90752 0.09872,1.34956"/><path d="M180.77758,205.15008c0.32143,-0.38789 0.67328,-0.76069 1.06025,-1.11598c1.27623,0.38452 1.7184,0.70417 2.72477,1.50364l0.1587,0.24164c0.45781,0.25414 0.9254,0.41122 1.49184,0.63971c2.83038,1.14171 6.22415,2.95503 9.19217,3.23113c3.82691,0.35602 6.85457,-0.58009 10.75057,0.99147c4.07786,1.64492 9.01898,5.36973 13.45796,4.77842c2.59134,-0.34519 5.41161,-1.97696 7.88371,-2.8026c5.9662,-0.99675 10.73922,-2.43392 14.4251,-6.89935c0,0 0.1716,-0.20342 0.44686,-0.24759c0.15204,-0.11832 0.38695,-0.19352 0.73154,-0.05452c0.7307,0.29475 0.49317,0.96331 0.49317,0.96331c-1.53257,4.31359 -4.15034,8.82183 -7.15467,12.26907c-0.73631,2.07242 -2.82296,2.93998 -4.38799,4.30357c-3.62777,3.16085 -8.29857,4.95835 -12.85763,6.73857c-3.75933,1.45134 -7.87668,3.4862 -12.10967,3.66947c-2.37367,0.10277 -5.11636,-0.75429 -7.55536,-0.97082c-3.86324,-0.34545 -8.36241,0.11559 -12.10715,-0.77776c-1.81761,-0.43359 -3.72549,-1.49291 -5.47871,-2.20012c-1.2002,-0.48414 -2.53722,-1.23934 -3.77704,-1.53344c-0.89652,-0.21267 -3.68239,0.0367 -4.30827,-0.4689c-0.73132,-0.59073 -0.75149,-1.14961 -0.60682,-1.70076"/></g><path d="M141.72801,227.75401c0,0 -3.86191,-7.64269 -5.71084,-16.01697c-0.38996,-1.7663 -1.78704,-9.67562 -1.1374,-15.72315c1.23082,-11.45721 2.9981,-24.15527 2.9981,-24.15527c0,0 8.5447,15.07854 11.45344,16.25186c2.85904,1.15327 13.61241,5.85444 13.61241,5.85444c0,0 -13.34446,6.03745 -16.96394,12.08615c-3.79019,6.33401 -4.2518,21.70296 -4.2518,21.70296z" fill="#ffffff" stroke="#000000" stroke-width="0"/><g fill="#ffffff" stroke="#000000" stroke-width="0"><g><path d="M174.18368,201.32461l-1.07989,3.03944c0,0 -1.64721,-0.66445 -2.22771,-0.89861c-0.3725,-0.15026 -0.69678,-0.99072 -0.5558,-1.38754c0.19874,-0.55938 0.71837,-2.02192 0.71837,-2.02192z"/><path d="M175.26817,201.76206c0,0 -0.51963,1.46255 -0.71837,2.02193c-0.14099,0.39683 -0.90632,0.79775 -1.27882,0.64749c-0.58051,-0.23416 -2.22773,-0.89861 -2.22773,-0.89861l1.07988,-3.03944z"/></g><g><path d="M178.70909,203.15006l-1.07989,3.03944c0,0 -1.64721,-0.66445 -2.22771,-0.89861c-0.3725,-0.15026 -0.69678,-0.99071 -0.5558,-1.38753c0.19874,-0.55938 0.71837,-2.02192 0.71837,-2.02192z"/><path d="M179.79356,203.58752c0,0 -0.51963,1.46254 -0.71837,2.02192c-0.14099,0.39683 -0.90632,0.79776 -1.27882,0.6475c-0.58051,-0.23416 -2.22771,-0.89861 -2.22771,-0.89861l1.07988,-3.03944z"/></g><g><path d="M183.08653,204.91582l-1.07989,3.03944c0,0 -1.64721,-0.66445 -2.22771,-0.89861c-0.3725,-0.15026 -0.69678,-0.99071 -0.5558,-1.38753c0.19874,-0.55938 0.71837,-2.02193 0.71837,-2.02193z"/><path d="M184.17103,205.35329c0,0 -0.51963,1.46254 -0.71837,2.02192c-0.14099,0.39683 -0.90632,0.79776 -1.27882,0.6475c-0.58051,-0.23416 -2.22772,-0.89861 -2.22772,-0.89861l1.07989,-3.03944z"/></g><g><path d="M187.464,206.68159l-1.07988,3.03944c0,0 -1.64722,-0.66445 -2.22772,-0.89861c-0.3725,-0.15026 -0.69677,-0.99071 -0.55579,-1.38753c0.19874,-0.55938 0.71836,-2.02193 0.71836,-2.02193z"/><path d="M188.54845,207.11904c0,0 -0.51963,1.46254 -0.71837,2.02192c-0.14099,0.39683 -0.90632,0.79776 -1.27882,0.6475c-0.58051,-0.23416 -2.22772,-0.89861 -2.22772,-0.89861l1.07989,-3.03944z"/></g><g><path d="M191.84141,208.44735l-1.07988,3.03944c0,0 -1.64722,-0.66445 -2.22772,-0.89861c-0.3725,-0.15026 -0.69677,-0.99071 -0.55579,-1.38753c0.19874,-0.55938 0.71837,-2.02193 0.71837,-2.02193z"/><path d="M192.92595,208.88482c0,0 -0.51962,1.46255 -0.71836,2.02193c-0.14099,0.39683 -0.90632,0.79775 -1.27882,0.64749c-0.58051,-0.23416 -2.22772,-0.89861 -2.22772,-0.89861l1.07989,-3.03944z"/></g></g><g fill="#ffffff" stroke="#000000" stroke-width="0"><g><path d="M163.139,222.2904c0,0 0.51963,-1.46254 0.71837,-2.02192c0.14099,-0.39683 0.90632,-0.79776 1.27882,-0.6475c0.58051,0.23416 2.22771,0.89861 2.22771,0.89861l-1.07988,3.03944z"/><path d="M164.22351,222.72787l1.07988,-3.03944c0,0 1.64722,0.66445 2.22772,0.89861c0.3725,0.15026 0.69677,0.99071 0.55579,1.38753c-0.19874,0.55938 -0.71837,2.02193 -0.71837,2.02193z"/></g><g><path d="M167.66441,224.11584c0,0 0.51963,-1.46254 0.71837,-2.02192c0.14099,-0.39683 0.90631,-0.79776 1.27881,-0.6475c0.58051,0.23416 2.22772,0.89861 2.22772,0.89861l-1.07989,3.03944z"/><path d="M168.74887,224.55329l1.07988,-3.03944c0,0 1.64722,0.66446 2.22772,0.89862c0.3725,0.15026 0.69677,0.99071 0.55579,1.38753c-0.19874,0.55938 -0.71836,2.02192 -0.71836,2.02192z"/></g><g><path d="M172.04182,225.88159c0,0 0.51963,-1.46254 0.71837,-2.02192c0.14099,-0.39683 0.90631,-0.79776 1.27881,-0.6475c0.58051,0.23416 2.22772,0.89861 2.22772,0.89861l-1.07989,3.03944z"/><path d="M173.12636,226.31907l1.07988,-3.03944c0,0 1.64722,0.66445 2.22772,0.89861c0.3725,0.15026 0.69678,0.99072 0.5558,1.38754c-0.19874,0.55938 -0.71837,2.02192 -0.71837,2.02192z"/></g><g><path d="M176.41931,227.64738c0,0 0.51963,-1.46254 0.71837,-2.02192c0.14099,-0.39683 0.90632,-0.79776 1.27882,-0.6475c0.58051,0.23416 2.22771,0.89861 2.22771,0.89861l-1.07989,3.03944z"/><path d="M177.50377,228.08483l1.07989,-3.03944c0,0 1.64721,0.66445 2.22771,0.89861c0.3725,0.15026 0.69678,0.99072 0.5558,1.38754c-0.19874,0.55938 -0.71837,2.02192 -0.71837,2.02192z"/></g><g><path d="M180.79673,229.41313c0,0 0.51963,-1.46254 0.71837,-2.02192c0.14099,-0.39683 0.90632,-0.79776 1.27882,-0.6475c0.58051,0.23416 2.22771,0.89861 2.22771,0.89861l-1.07988,3.03944z"/><path d="M181.88124,229.85061l1.07989,-3.03944c0,0 1.64721,0.66445 2.22771,0.89861c0.3725,0.15026 0.69678,0.99071 0.5558,1.38753c-0.19874,0.55938 -0.71837,2.02192 -0.71837,2.02192z"/></g></g><path d="M207.97645,231.05914c1.04726,-7.08624 -5.19941,-21.02634 -5.19941,-21.02634c0,0 10.97931,4.06532 13.83833,5.21858c2.90875,1.17332 18.68269,-4.09561 18.68269,-4.09561c0,0 -6.56773,10.76169 -12.76623,20.21503c-3.27178,4.98981 -9.23433,9.93043 -10.62431,10.97874c-6.59008,4.97018 -14.2338,7.97174 -14.2338,7.97174c0,0 9.20607,-11.84164 10.30272,-19.26214z" fill="#ffffff" stroke="#000000" stroke-width="0"/><g fill="none" stroke="#000000" stroke-width="1.5"><path d="M175.4242,226.30506c-0.23606,0.62177 -0.55711,1.17065 -1.61061,1.08616c-0.78321,-0.0628 -2.71566,-2.21546 -3.5196,-2.6887c-1.11179,-0.65447 -2.58296,-1.03204 -3.78318,-1.51618c-1.75322,-0.70722 -3.84113,-1.25972 -5.47256,-2.21739c-3.3612,-1.97303 -6.44583,-5.49322 -9.55526,-7.96037c-1.96215,-1.55879 -4.54989,-2.85189 -6.26461,-4.60382c-3.05788,-3.12426 -4.87829,-7.5543 -6.79313,-11.29447c-2.30968,-4.55091 -4.69235,-9.19362 -5.44613,-14.12187c-0.32519,-2.12608 -1.3495,-4.24853 -0.61319,-6.32093c-0.10865,-4.70294 0.73177,-9.92814 2.26434,-14.24172c0,0 0.23754,-0.66856 0.96824,-0.37381c0.34459,0.139 0.47383,0.36111 0.51424,0.55706c0.1788,0.22733 0.18096,0.50084 0.18096,0.50084c-0.0135,5.94679 2.66968,10.39164 6.52069,15.34842c1.33918,2.36302 2.43824,5.57578 4.1654,7.66295c2.95859,3.57533 8.97595,4.27092 13.05383,5.91585c3.896,1.57156 5.58282,4.4094 8.67158,6.84299c2.39551,1.88739 6.06544,2.92345 8.89584,4.06518c0.56647,0.2285 1.01442,0.4407 1.51542,0.57333l0.2691,-0.06907c1.25098,0.11106 1.78091,0.18359 2.97619,0.796c0.0587,0.45796 0.09057,0.90752 0.09872,1.34956"/><path d="M180.77758,205.15008c0.32143,-0.38789 0.67328,-0.76069 1.06025,-1.11598c1.27623,0.38452 1.7184,0.70417 2.72477,1.50364l0.1587,0.24164c0.45781,0.25414 0.9254,0.41122 1.49184,0.63971c2.83038,1.14171 6.22415,2.95503 9.19217,3.23113c3.82691,0.35602 6.85457,-0.58009 10.75057,0.99147c4.07786,1.64492 9.01898,5.36973 13.45796,4.77842c2.59134,-0.34519 5.41161,-1.97696 7.88371,-2.8026c5.9662,-0.99675 10.73922,-2.43392 14.4251,-6.89935c0,0 0.1716,-0.20342 0.44686,-0.24759c0.15204,-0.11832 0.38695,-0.19352 0.73154,-0.05452c0.7307,0.29475 0.49317,0.96331 0.49317,0.96331c-1.53257,4.31359 -4.15034,8.82183 -7.15467,12.26907c-0.73631,2.07242 -2.82296,2.93998 -4.38799,4.30357c-3.62777,3.16085 -8.29857,4.95835 -12.85763,6.73857c-3.75933,1.45134 -7.87668,3.4862 -12.10967,3.66947c-2.37367,0.10277 -5.11636,-0.75429 -7.55536,-0.97082c-3.86324,-0.34545 -8.36241,0.11559 -12.10715,-0.77776c-1.81761,-0.43359 -3.72549,-1.49291 -5.47871,-2.20012c-1.2002,-0.48414 -2.53722,-1.23934 -3.77704,-1.53344c-0.89652,-0.21267 -3.68239,0.0367 -4.30827,-0.4689c-0.73132,-0.59073 -0.75149,-1.14961 -0.60682,-1.70076"/></g><path d="M141.72801,227.75401c0,0 -3.86191,-7.64269 -5.71084,-16.01697c-0.38996,-1.7663 -1.78704,-9.67562 -1.1374,-15.72315c0.25862,-2.40745 0.54095,-4.86972 0.82556,-7.25741c1.22403,0.84727 2.44492,1.66661 3.57159,2.48403c4.35149,3.15706 8.80391,5.9632 13.3612,8.53286c-2.76422,1.90061 -5.34827,4.08843 -6.6583,6.27772c-3.79019,6.33401 -4.2518,21.70295 -4.2518,21.70295z" fill="#ffffff" stroke="#000000" stroke-width="0"/><path d="M207.97645,231.05914c0.43485,-2.94251 -0.38794,-7.06684 -1.4989,-10.88409c6.9425,2.31507 14.00514,3.61917 21.20508,3.19728c-1.64387,2.59146 -3.41184,5.34646 -5.15075,7.99849c-3.27178,4.98981 -9.23434,9.93043 -10.62432,10.97874c-6.59008,4.97018 -14.23379,7.97175 -14.23379,7.97175c0,0 9.20606,-11.84165 10.30271,-19.26215z" fill="#ffffff" stroke="#000000" stroke-width="0"/><path d="M216.51364,202.91044c-12.68335,-5.11618 -21.04977,-14.65497 -14.78741,-32.28101c6.26237,-17.62608 18.59717,-19.25671 31.28053,-14.14053c12.68335,5.11618 20.91233,15.04182 14.64997,32.66787c-6.26237,17.62608 -18.45973,18.86984 -31.14308,13.75366z" fill="#282828" stroke="#000000" stroke-width="0"/><path d="M217.43076,200.32911c-12.81407,-5.16891 -21.02611,-15.48329 -13.91253,-35.5052c7.1136,-20.02193 16.67112,-29.87018 29.48519,-24.70127c12.81407,5.16891 24.03231,23.39767 16.91872,43.41958c-7.11359,20.02191 -19.6773,21.95581 -32.49139,16.78689z" fill="#000000" stroke="#000000" stroke-width="0"/><path d="M209.77755,186.00149c-8.19998,-3.30769 -13.45502,-9.90805 -8.90289,-22.72048c4.55213,-12.81243 12.69181,-14.33114 20.89177,-11.02346c8.19998,3.30769 13.35511,10.18924 8.80299,23.00167c-4.55214,12.81244 -12.59188,14.04997 -20.79187,10.74227z" fill="#ffffff" stroke="#000000" stroke-width="0"/><path d="M210.38558,184.2901c-7.36823,-2.97218 -12.09024,-8.90303 -7.99986,-20.41584c4.09039,-11.51283 11.40441,-12.87747 18.77265,-9.90529c7.36823,2.97218 12.00048,9.15569 7.91009,20.66851c-4.09039,11.51283 -11.31464,12.6248 -18.68288,9.65261z" fill="#000000" stroke="#000000" stroke-width="0"/><path d="M211.02699,182.48478c-6.49083,-2.61826 -10.65055,-7.84287 -7.04724,-17.98476c3.60331,-10.14188 10.04639,-11.34403 16.53724,-8.72577c6.49083,2.61826 10.57146,8.06546 6.96815,18.20733c-3.60331,10.14188 -9.96731,11.12146 -16.45814,8.5032z" fill="#ffffff" stroke="#000000" stroke-width="0"/><path d="M144.38062,140.96909c7.11359,-20.02191 26.8487,-25.76476 39.66277,-20.59585c12.81407,5.16891 13.85474,19.29223 6.74115,39.31417c-7.11359,20.02191 -19.67732,21.9558 -32.49139,16.78689c-12.81407,-5.16891 -21.02611,-15.48329 -13.91253,-35.5052z" fill="#000000" stroke="#000000" stroke-width="0"/><g fill="#252525" stroke="#000000" stroke-width="0"><path d="M202.61774,193.40251c-1.80135,5.07009 -9.73568,6.56873 -17.72182,3.34729c-7.98615,-3.22144 -12.99991,-9.94303 -11.19855,-15.01313c1.80135,-5.07009 9.73569,-6.56872 17.72182,-3.34729c7.98615,3.22144 12.99991,9.94303 11.19855,15.01313z"/><path d="M198.00367,195.03992c-1.80135,5.07009 -8.15666,7.20567 -14.19497,4.76995c-6.03831,-2.43572 -9.47304,-8.52037 -7.67168,-13.59048c1.80135,-5.07009 8.15665,-7.20566 14.19496,-4.76994c6.03831,2.43572 9.47305,8.52036 7.67169,13.59047z"/></g><g stroke="#000000" stroke-width="0"><g fill="#252525"><path d="M255.55798,127.2262c-1.01603,2.85973 -10.57867,1.65287 -42.25715,-11.12553c-31.67846,-12.77839 -40.07786,-18.81702 -39.06183,-21.67675c1.01603,-2.85973 11.06274,-1.4576 42.7412,11.32079c31.67846,12.77839 39.59382,18.62175 38.57778,21.48149z"/><path d="M216.49615,105.54946c31.67846,12.77839 40.07786,18.81701 39.06183,21.67674c-1.01603,2.85973 -11.06274,1.45761 -42.7412,-11.32078c-31.67846,-12.77839 -39.59383,-18.62176 -38.57779,-21.4815c1.01603,-2.85973 10.57868,-1.65286 42.25716,11.12554z"/></g><path d="M174.22856,94.45332l3.70026,-10.41475l81.31896,32.80227l-3.70026,10.41476z" fill="#252525"/><g fill="#202020"><path d="M259.24779,116.84086c-1.01603,2.85973 -10.57867,1.65287 -42.25715,-11.12553c-31.67846,-12.77839 -40.07786,-18.81702 -39.06183,-21.67675c1.01603,-2.85973 11.06274,-1.4576 42.7412,11.32079c31.67846,12.77839 39.59382,18.62176 38.57778,21.48149z"/><path d="M220.18596,95.16414c31.67846,12.77839 40.07786,18.817 39.06183,21.67672c-1.01603,2.85973 -11.06274,1.45761 -42.7412,-11.32078c-31.67846,-12.77839 -39.59383,-18.62177 -38.57779,-21.4815c1.01603,-2.85973 10.57868,-1.65284 42.25716,11.12556z"/></g><g fill="#252525"><path d="M247.16072,110.80767c-0.65718,1.8497 -13.82119,-1.74599 -29.40265,-8.03121c-15.58144,-6.28521 -27.67997,-12.87987 -27.02279,-14.72956c0.65718,-1.8497 13.82118,1.74601 29.40264,8.03123c15.58144,6.28521 27.67998,12.87985 27.0228,14.72954z"/><path d="M190.73528,88.0469c0,0 7.0062,-17.91563 8.73906,-27.66363c1.68586,-9.48361 1.52105,-30.05301 1.52105,-30.05301l36.90887,14.88822l9.25642,65.5892z"/><path d="M190.73528,88.0469l47.70003,-42.61422l36.90887,14.88822c0,0 -12.90755,15.29629 -17.53847,23.59193c-4.76002,8.52689 -10.64502,26.89482 -10.64502,26.89482z"/></g><path d="M275.34418,60.32092c-1.61766,4.55307 -19.57256,1.53044 -40.10342,-6.75125c-20.53084,-8.28168 -35.863,-18.68633 -34.24534,-23.2394c1.61766,-4.55307 19.57256,-1.53045 40.10342,6.75124c20.53084,8.28168 35.863,18.68633 34.24534,23.23941z" fill="#202020"/></g><g stroke="#000000" stroke-width="0"><path d="M160.24494,147.85365c4.55213,-12.81243 12.69178,-14.33115 20.89177,-11.02346c8.19998,3.30769 13.35511,10.18924 8.80299,23.00167c-4.55213,12.81243 -12.59189,14.04997 -20.79187,10.74228c-8.19998,-3.30769 -13.45502,-9.90805 -8.90289,-22.72049z" fill="#ffffff"/><path d="M161.75605,148.44686c4.09039,-11.51283 11.40441,-12.87747 18.77265,-9.90529c7.36823,2.97218 12.00048,9.15569 7.91009,20.66851c-4.09039,11.51283 -11.31464,12.6248 -18.68288,9.65261c-7.36823,-2.97218 -12.09024,-8.90303 -7.99986,-20.41584z" fill="#000000"/><path d="M170.38856,167.06345c-6.49083,-2.61826 -10.65055,-7.84287 -7.04724,-17.98475c3.60331,-10.14188 10.04639,-11.34403 16.53722,-8.72578c6.49083,2.61826 10.57148,8.06547 6.96817,18.20734c-3.60331,10.14188 -9.96731,11.12146 -16.45814,8.5032z" fill="#ffffff"/></g><path d="M192.21401,174.92725l4.6756,-24.85452l15.50331,-2.95301c0,0 -6.61157,10.33357 -8.37218,14.85408c-2.19116,5.62595 -2.9477,18.61339 -2.9477,18.61339z" fill="#2f2f2f" stroke="#000000" stroke-width="0"/><path d="M218.25071,200.59435c-12.68335,-5.11618 -22.78684,-12.33888 -16.52448,-29.96492c3.41282,-9.60571 -4.09069,9.02522 2.58016,20.03986c6.58707,10.8763 19.5873,12.20131 13.94432,9.92506z" fill="#282828" stroke="#000000" stroke-width="0"/><text transform="translate(342.68895,205.61014) scale(1.96832,1.96832)" font-size="40" xml:space="preserve" fill="#ffffff" stroke="none" stroke-width="1" font-family="&quot;Help Me&quot;, Sans Serif" font-weight="normal" text-anchor="start"><tspan x="0" dy="0">10 DAYS</tspan></text><text transform="translate(454.59459,234.08838) scale(0.5,0.5)" font-size="40" xml:space="preserve" fill="#ffffff" stroke="none" stroke-width="1" font-family="&quot;Help Me&quot;, Sans Serif" font-weight="normal" text-anchor="start"><tspan x="0" dy="0">REMAINING</tspan></text></g></g></svg>