<svg version="1.1" xmlns="http://www.w3.org/2000/svg" xmlns:xlink="http://www.w3.org/1999/xlink" width="751" height="586.16413" viewBox="0,0,751,586.16413"><defs><radialGradient cx="360" cy="177.81483" r="367.5075" gradientUnits="userSpaceOnUse" id="color-1"><stop offset="0" stop-color="#000000" stop-opacity="0.83922"/><stop offset="1" stop-color="#000000" stop-opacity="0"/></radialGradient><radialGradient cx="360" cy="177.81483" r="367.50751" gradientUnits="userSpaceOnUse" id="color-2"><stop offset="0" stop-color="#000000" stop-opacity="0"/><stop offset="1" stop-color="#000000"/></radialGradient><linearGradient x1="-5.24206" y1="181.0581" x2="150.659" y2="181.0581" gradientUnits="userSpaceOnUse" id="color-3"><stop offset="0" stop-color="#000000"/><stop offset="1" stop-color="#000000" stop-opacity="0"/></linearGradient><linearGradient x1="727.50752" y1="177.81485" x2="571.60646" y2="177.81485" gradientUnits="userSpaceOnUse" id="color-4"><stop offset="0" stop-color="#000000"/><stop offset="1" stop-color="#000000" stop-opacity="0"/></linearGradient><linearGradient x1="360.24743" y1="-17.14012" x2="360.24743" y2="110.48753" gradientUnits="userSpaceOnUse" id="color-5"><stop offset="0" stop-color="#000000"/><stop offset="1" stop-color="#000000" stop-opacity="0"/></linearGradient><linearGradient x1="359.27227" y1="377.38047" x2="359.27227" y2="249.75283" gradientUnits="userSpaceOnUse" id="color-6"><stop offset="0" stop-color="#000000"/><stop offset="1" stop-color="#000000" stop-opacity="0"/></linearGradient></defs><g transform="translate(15.5,30)"><g data-paper-data="{&quot;isPaintingLayer&quot;:true}" fill-rule="nonzero" stroke-linecap="butt" stroke-linejoin="miter" stroke-miterlimit="10" stroke-dasharray="" stroke-dashoffset="0" style="mix-blend-mode: normal"><path d="M-7.11712,370.42353v-384.38438h732.73273v384.38438z" fill="#07010e" stroke="none" stroke-width="0"/><g stroke="none"><g stroke-width="0"><g><g><g><path d="M193.5208,512.31228c-0.80899,-5.44193 2.94675,-10.50931 8.38869,-11.31832c5.44193,-0.80899 10.50931,2.94675 11.31832,8.38869c0.80899,5.44193 -2.94675,10.50931 -8.38869,11.31832c-5.44193,0.80899 -10.50931,-2.94675 -11.31832,-8.38869z" fill="#6e2d2a"/><path d="M208.84109,550.75776c-14.51506,2.15779 -14.8848,-32.37979 -14.8848,-32.37979c0,0 1.25331,-4.66302 10.00976,-6.30471c6.84682,-1.28368 10.98248,3.18403 10.98248,3.18403c0,0 8.40763,33.34269 -6.10743,35.50048z" fill="#893834"/></g><path d="M137.56778,521.05552l11.21355,-22.96235l49.95393,24.39477l-11.21355,22.96235z" fill="#6e2d2a"/><path d="M200.34698,524.72103c-7.24275,14.8312 -61.34049,-11.58716 -54.09775,-26.41838c7.24275,-14.8312 22.46372,-26.14452 47.5214,-13.90772c14.93869,7.29523 13.81909,25.49489 6.57634,40.32609z" fill="#893834"/><path d="M194.68161,534.72756c-10.81259,22.14129 -11.39564,24.89896 -26.22514,18.28257c-6.2498,-2.78844 -4.73402,-7.47638 -4.73402,-7.47638c0,0 -2.12509,6.83413 -23.84816,-7.35005c-12.79987,-8.35772 -0.50555,-24.19863 1.96649,-29.26069c5.30085,-10.85473 -3.87666,4.64901 24.40907,17.94515c25.33745,11.91028 33.73259,-2.99533 28.43174,7.85941z" fill="#893834"/></g><g><path d="M217.31624,388.39096c5.82811,-10.67191 19.20406,-14.59857 29.87599,-8.77045c10.67191,5.82811 14.59857,19.20406 8.77043,29.87598c-5.82811,10.67191 -19.20406,14.59857 -29.87597,8.77046c-10.67191,-5.82814 -14.59857,-19.20406 -8.77046,-29.87597z" fill="#6e2d2a"/><path d="M163.23691,476.12048l42.18777,-77.25025c0,0 5.81854,-9.27216 29.62869,3.73102c22.64862,12.36883 18.52095,22.5644 18.52095,22.5644l-42.18775,77.25025c0,0 -7.00659,5.41542 -27.54038,-6.04881c-21.91048,-12.23283 -20.60927,-20.24658 -20.60927,-20.24658z" fill="#893834"/></g><g><path d="M299.32394,306.71473c8.70542,-8.48953 22.64471,-8.31453 31.13425,0.39092c8.48953,8.70542 8.31453,22.64471 -0.39091,31.13423c-8.70542,8.48953 -22.64471,8.31453 -31.13425,-0.39092c-8.48953,-8.70542 -8.31453,-22.64471 0.39091,-31.13423z" fill="#6e2d2a"/><path d="M221.86339,374.69204l63.01559,-61.45279c0,0 8.28516,-7.15434 27.22621,12.2684c18.01705,18.47523 11.07695,27.00883 11.07695,27.00883l-63.01557,61.45279c0,0 -8.2881,3.11875 -24.54927,-13.87066c-17.3514,-18.12845 -13.7539,-25.40659 -13.7539,-25.40659z" fill="#893834"/></g></g><g><g><g><path d="M583.23091,463.73319c-5.46834,0.60543 -10.39209,-3.33671 -10.9975,-8.80504c-0.60543,-5.46834 3.33671,-10.39207 8.80505,-10.99753c5.46834,-0.60543 10.39207,3.33671 10.99752,8.80505c0.60545,5.46832 -3.3367,10.39208 -8.80505,10.99751z" fill="#6e2d2a"/><path d="M572.06772,461.04724c0,0 2.85969,-5.37461 9.8075,-5.87929c8.88559,-0.64544 11.28654,3.54386 11.28654,3.54386c0,0 8.44949,33.49012 -6.13596,35.10496c-14.58545,1.61484 -14.95806,-32.76952 -14.95806,-32.76952z" fill="#893834"/></g><path d="M606.28691,483.24839l-16.69819,-19.34383l42.08193,-36.32646l16.69819,19.34383z" fill="#6e2d2a"/><path d="M584.67566,425.80483c21.10896,-18.22192 38.71161,-11.16392 49.49686,1.33011c10.78525,12.49403 -34.78751,51.83386 -45.57273,39.33983c-10.78525,-12.49403 -16.50869,-29.80653 -3.92412,-40.66994z" fill="#893834"/><path d="M622.11721,459.85623c23.96016,-20.06939 11.13265,-32.72037 19.0262,-23.57617c3.68113,4.26436 19.60841,16.44656 9.36288,27.79194c-17.38801,19.25461 -21.18553,13.1883 -21.18553,13.1883c0,0 2.66108,4.14644 -2.67105,8.43637c-12.6521,10.17915 -13.91905,7.66133 -30.02018,-10.99082c-7.89355,-9.14418 4.02494,3.1279 25.4877,-14.84962z" fill="#893834"/></g><g><path d="M536.56528,370.10356c-8.83296,8.35676 -22.76798,7.97074 -31.12477,-0.86222c-8.35676,-8.83296 -7.97075,-22.76799 0.86223,-31.12477c8.83296,-8.35676 22.76799,-7.97076 31.12479,0.86221c8.35676,8.83295 7.97074,22.76801 -0.86223,31.12477z" fill="#6e2d2a"/><path d="M597.32485,434.85056c-16.93165,16.32129 -25.08753,12.87159 -25.08753,12.87159l-60.49175,-63.9387c0,0 -6.59108,-8.80595 12.15481,-26.54126c19.70726,-18.64483 27.69783,-11.1629 27.69783,-11.1629l60.49176,63.9387c0,0 3.30171,7.41703 -14.7651,24.83258z" fill="#893834"/></g><g><path d="M445.62078,310.9197c-5.98903,10.58246 -19.42286,14.30616 -30.0053,8.31714c-10.58246,-5.989 -14.30616,-19.42286 -8.31716,-30.00533c5.98902,-10.58244 19.42286,-14.30616 30.0053,-8.31714c10.58246,5.989 14.30616,19.42286 8.31716,30.00533z" fill="#6e2d2a"/><path d="M522.71694,354.96609c-11.39135,20.57432 -20.20072,19.67213 -20.20072,19.67213l-76.60271,-43.35245c0,0 -8.8867,-6.48177 3.82359,-28.94057c13.36215,-23.61057 23.19775,-18.80544 23.19775,-18.80544l76.6027,43.35243c0,0 5.33447,6.12019 -6.8206,28.07391z" fill="#893834"/></g></g><g><path d="M427.79,429.00877c0.67452,14.21677 -22.80026,32.95195 -52.78689,34.37468c-29.98662,1.42273 -55.12976,-15.00577 -55.80428,-29.22253c-0.67452,-14.21677 23.08762,-26.89507 53.07426,-28.3178c29.98662,-1.42273 54.84239,8.94888 55.5169,23.16566z" fill="#893834"/><g><path d="M312.62814,381.03049c0,0 -27.3552,-104.01907 53.82652,-106.51739c80.36557,-2.47321 62.05661,98.85491 62.05661,98.85491c0,0 34.88596,68.24949 -52.34815,72.6823c-90.64798,4.6063 -63.53495,-65.01982 -63.53495,-65.01982z" fill="#a3433e"/><g fill="#893834"><g><path d="M403.79879,332.16507c-16.85008,0.79946 -30.82177,-5.1284 -31.20664,-13.24026c-0.38487,-8.11185 12.96282,-15.33588 29.8129,-16.13534c8.36323,-0.3968 1.3782,14.49347 1.3782,14.49347c0,0 8.5024,14.47946 0.01556,14.88213z"/><path d="M376.10729,318.75805c-0.06344,-1.3371 0.9691,-2.4725 2.3062,-2.53594c1.3371,-0.06344 17.38513,1.60167 17.38513,1.60167c0,0 -15.81829,3.17702 -17.15539,3.24045c-1.3371,0.06344 -2.47249,-0.96908 -2.53594,-2.30619z"/></g><g><path d="M330.98429,320.73693c0,0 -8.36342,-14.16204 -0.00019,-14.55884c16.85008,-0.79946 30.82179,5.12839 31.20667,13.24023c0.38487,8.11185 -12.96282,15.33589 -29.81292,16.13535c-8.48685,0.40267 -1.39355,-14.81675 -1.39355,-14.81675z"/><path d="M356.36944,322.12102c-1.3371,0.06344 -17.38512,-1.60167 -17.38512,-1.60167c0,0 15.81829,-3.17703 17.15539,-3.24045c1.3371,-0.06344 2.47248,0.96907 2.53594,2.3062c0.06344,1.3371 -0.9691,2.4725 -2.3062,2.53594z"/></g><path d="M353.34929,319.8378c-0.36795,-7.7553 5.62066,-14.34046 13.37594,-14.70842c7.7553,-0.36795 14.34046,5.62066 14.70841,13.37595c0.36795,7.7553 -5.62065,14.34046 -13.37593,14.70841c-7.7553,0.36795 -14.34046,-5.62066 -14.70842,-13.37594z"/></g><g><g><path d="M407.80372,328.42994c-18.819,0.89288 -34.42328,-5.72764 -34.85312,-14.78737c-0.42984,-9.0597 14.47753,-17.12788 33.29653,-18.02075c9.34046,-0.44316 1.53923,16.18701 1.53923,16.18701c0,0 9.49589,16.17137 0.01735,16.62108z" fill="#2a2119"/><path d="M376.87648,313.45631c-0.07086,-1.49337 1.08231,-2.7614 2.57568,-2.83226c1.49337,-0.07086 19.41657,1.78883 19.41657,1.78883c0,0 -17.66662,3.54824 -19.15999,3.61909c-1.49337,0.07086 -2.76139,-1.08231 -2.83225,-2.57568z" fill="#1e1812"/></g><g><path d="M326.48092,315.6664c0,0 -9.34067,-15.81687 -0.0002,-16.26004c18.819,-0.89288 34.42326,5.72764 34.85311,14.78734c0.42984,9.0597 -14.47753,17.12786 -33.29651,18.02072c-9.47854,0.44971 -1.55639,-16.54807 -1.55639,-16.54807z" fill="#2a2119"/><path d="M354.83227,317.21226c-1.49337,0.07086 -19.41657,-1.78882 -19.41657,-1.78882c0,0 17.66665,-3.54826 19.15999,-3.6191c1.49337,-0.07086 2.76139,1.08231 2.83225,2.57568c0.07086,1.49337 -1.08231,2.76139 -2.57568,2.83225z" fill="#1e1812"/></g><path d="M351.45922,314.66224c-0.41095,-8.66147 6.27744,-16.01613 14.9389,-16.42708c8.66147,-0.41095 16.01612,6.27743 16.42707,14.9389c0.41095,8.66147 -6.27743,16.01612 -14.9389,16.42708c-8.66147,0.41095 -16.01613,-6.27743 -16.42708,-14.9389z" fill="#1e1812"/></g><g><path d="M362.86896,347.98363c-0.1741,-3.66939 2.6594,-6.78517 6.3288,-6.95925c3.66939,-0.1741 6.78516,2.6594 6.95925,6.3288c0.1741,3.66939 -2.65942,6.78516 -6.32879,6.95925c-3.66939,0.1741 -6.78517,-2.6594 -6.95925,-6.32879z" fill="#893834"/><path d="M362.75167,345.51143c-0.1741,-3.66939 2.6594,-6.78517 6.3288,-6.95925c3.66939,-0.1741 6.78516,2.6594 6.95925,6.3288c0.1741,3.66939 -2.65942,6.78516 -6.32879,6.95925c-3.66939,0.1741 -6.78517,-2.6594 -6.95925,-6.32879z" fill="#1e1812"/></g><g><path d="M363.80732,367.76117c-0.1741,-3.66939 2.6594,-6.78516 6.32879,-6.95925c3.66939,-0.1741 6.78516,2.6594 6.95925,6.32879c0.1741,3.66939 -2.65942,6.78516 -6.32879,6.95925c-3.66939,0.1741 -6.78516,-2.6594 -6.95925,-6.32879z" fill="#893834"/><path d="M363.69002,365.28899c-0.1741,-3.66939 2.6594,-6.78517 6.3288,-6.95925c3.66939,-0.1741 6.78516,2.6594 6.95925,6.3288c0.1741,3.66939 -2.65942,6.78516 -6.32879,6.95925c-3.66939,0.1741 -6.78517,-2.6594 -6.95925,-6.32879z" fill="#1e1812"/></g><path d="M395.03402,284.90069c0.24799,5.22676 -12.62552,10.08419 -28.75379,10.84942c-16.12827,0.76521 -29.40383,-2.85157 -29.65182,-8.07834c-0.24799,-5.22676 12.62551,-10.0842 28.75378,-10.84941c16.12827,-0.76521 29.40384,2.85157 29.65182,8.07834z" fill="#6e2d2a"/><path d="M376.39835,284.33953c0.1417,2.98671 -4.50515,5.63385 -10.379,5.91253c-5.87387,0.27869 -10.75045,-1.9166 -10.89215,-4.90332c-0.1417,-2.98671 4.50515,-5.63385 10.379,-5.91253c5.87387,-0.27869 10.75046,1.91661 10.89216,4.90333z" fill="#4d201d"/><path d="M376.46678,285.78162c0.1417,2.98671 -4.50515,5.63385 -10.379,5.91253c-5.87387,0.27869 -10.75045,-1.9166 -10.89215,-4.90332c-0.1417,-2.98671 4.50515,-5.63385 10.379,-5.91253c5.87387,-0.27869 10.75045,1.9166 10.89215,4.90332z" fill="#0b0404"/></g></g><g><path d="M419.88084,261.90772c2.69821,16.82849 -7.62449,34.43336 -62.83385,42.42515c-56.38374,8.16178 -70.78413,-3.74028 -73.48234,-20.56878c-2.69821,-16.82849 23.98763,-31.26188 64.13982,-37.69971c40.15218,-6.43783 69.47816,-0.98516 72.17637,15.84334z" fill="#893834"/><path d="M413.15289,259.76223c2.05172,12.79632 -21.88172,24.77222 -58.36736,30.62218c-36.48561,5.84995 -63.4492,2.03466 -65.50091,-10.76166c-2.05172,-12.79632 22.43267,-24.44363 58.91829,-30.29357c36.48563,-5.84996 62.89827,-2.36327 64.94998,10.43305z" fill="#6e2d2a"/></g><g><path d="M282.68579,146.3929l-17.76571,-34.48753l63.58603,-21.5521l6.5019,38.30534z" fill="#1e1812"/><path d="M346.56357,125.55212c0.96358,2.84286 -14.95001,10.80601 -35.54396,17.7862c-20.59395,6.9802 -38.06979,10.33419 -39.03336,7.49133c-0.96358,-2.84286 14.95001,-10.80601 35.54397,-17.7862c20.59397,-6.98019 38.06977,-10.33417 39.03335,-7.49131z" fill="#2a2119"/><path d="M328.38292,89.98993c0.96358,2.84286 -12.48953,9.97205 -30.04831,15.92349c-17.5588,5.95145 -32.57413,8.47147 -33.5377,5.6286c-0.96356,-2.84285 12.48953,-9.97205 30.04831,-15.92349c17.5588,-5.95145 32.57413,-8.47147 33.5377,-5.6286z" fill="#1e1812"/><path d="M330.55381,132.54825c0.3996,1.17896 -8.5897,5.29134 -20.07818,9.18529c-11.48848,3.89396 -21.12565,6.09489 -21.52525,4.91594c-0.3996,-1.17896 8.5897,-5.29134 20.07818,-9.18529c11.48848,-3.89396 21.12565,-6.09489 21.52525,-4.91594z" fill="#1e1812"/></g><path d="M264.7922,280.1774c0,0 -20.5457,-60.61683 -28.53102,-84.17623c-4.3594,-12.8617 -0.81505,-30.1167 16.7364,-36.6373c18.58182,-6.90341 79.19739,-26.84346 112.80467,-38.23446c19.54913,-6.62606 31.18975,2.63188 35.72049,15.99909c8.03065,23.69315 29.39998,86.73997 29.39998,86.73997c0,0 3.15868,11.84253 -29.43559,29.54848c-0.33546,-0.762 -4.09275,-7.03508 -4.09275,-7.03508c0,0 0.7807,7.36305 1.06865,8.21261c0.04172,0.12308 0.09676,0.23789 0.16297,0.34337c-1.19272,0.62069 -2.4291,1.24811 -3.71074,1.88205c-0.35451,-0.72056 -2.67319,-2.87033 -2.67319,-2.87033c0,0 -0.60964,3.26106 -0.32169,4.11062c0.02091,0.06169 0.04515,0.1213 0.07247,0.17869c-2.73053,1.30188 -13.83461,6.99112 -13.83461,6.99112l-2.11521,-1.34377c0,0 -0.01482,1.18622 -0.21947,1.25559c-0.26643,0.09031 -0.49407,0.24297 -0.67219,0.43624c-6.04761,2.4251 -12.74712,4.91786 -20.16838,7.46757c-5.43011,1.86562 -15.93485,3.21022 -15.93485,3.21022c0,0 -0.02359,1.68543 -0.33617,1.79137c-0.27395,0.09285 -0.50688,0.25167 -0.68715,0.45273c-8.00669,2.38379 -15.14852,4.2139 -21.51749,5.58952c0.05623,-0.2731 0.04279,-0.56429 -0.05317,-0.84745c-0.28795,-0.84955 -3.13716,-3.44639 -3.13716,-3.44639c0,0 -0.22729,3.63959 0.06067,4.48915c0.05131,0.15138 0.12275,0.29025 0.21034,0.41461c-43.44642,8.76309 -48.79577,-4.52198 -48.79577,-4.52198z" fill="#a3433e"/><path d="M260.54358,262.92c-3.68576,-10.87424 2.14167,-22.67745 13.01589,-26.36319c10.87424,-3.68576 22.67743,2.14165 26.36319,13.01589c3.68576,10.87424 -2.14165,22.67743 -13.01589,26.36319c-10.87424,3.68576 -22.67743,-2.14164 -26.36319,-13.01589z" fill="#893834"/><path d="M316.20495,204.17448c7.11606,20.9948 -2.73113,35.36079 -19.01417,40.87984c-16.28305,5.51904 -32.83585,0.10115 -39.95192,-20.89364c-7.11606,-20.9948 3.33509,-33.57889 19.61814,-39.09794c16.28305,-5.51904 32.23188,-1.88308 39.34795,19.11173z" fill="#6e2d2a"/><path d="M349.56627,191.28775c1.85567,5.47489 -5.59306,12.94774 -16.6372,16.69107c-11.04414,3.74335 -21.50151,2.33966 -23.35719,-3.13523c-1.85567,-5.47489 5.59306,-12.94772 16.6372,-16.69107c11.04414,-3.74335 21.50151,-2.33967 23.3572,3.13521z" fill="#893834"/><path d="M410.78712,233.94821c-10.87424,3.68576 -22.67745,-2.14167 -26.36319,-13.01589c-3.68575,-10.87423 2.14165,-22.67743 13.01589,-26.36319c10.87424,-3.68576 22.67744,2.14166 26.36319,13.01589c3.68575,10.87423 -2.14166,22.67744 -13.01589,26.36319z" fill="#893834"/><path d="M319.28145,203.13172c4.86275,14.34678 1.80425,25.59814 -5.81621,33.04626c-1.11144,1.0863 -5.08922,3.8289 -5.08922,3.8289l-4.24576,4.71818c0,0 -2.41157,-1.20542 -3.86297,-0.71349c-16.28305,5.51904 -32.83586,0.10115 -39.95192,-20.89365c-7.11606,-20.9948 3.33509,-33.57889 19.61814,-39.09794c7.66879,-2.59929 15.26346,-3.1679 21.89618,-0.84881c0.85531,0.29904 3.20655,-2.72962 3.20655,-2.72962l1.45186,4.4537l5.73773,3.36083c0,0 2.09005,4.68932 2.63723,5.53223c1.70577,2.62768 3.19302,5.72819 4.41838,9.34341z" fill="#000000"/><path d="M363.51151,155.69175c16.28305,-5.51904 32.23189,-1.88307 39.34795,19.11174c7.11606,20.9948 -2.73113,35.36079 -19.01417,40.87984c-16.28305,5.51904 -32.83586,0.10115 -39.95192,-20.89365c-7.11606,-20.9948 3.33509,-33.57889 19.61814,-39.09794z" fill="#6e2d2a"/><path d="M360.43503,156.73451c16.28305,-5.51904 32.23188,-1.88308 39.34795,19.11174c7.11606,20.9948 -2.73113,35.36079 -19.01416,40.87983c-16.28305,5.51904 -32.83585,0.10115 -39.95192,-20.89364c-7.11606,-20.9948 3.33509,-33.57889 19.61814,-39.09794z" fill="#000000"/><path d="M354.75336,224.01943c1.56773,4.62533 -3.74223,10.60545 -11.86015,13.35697c-8.11792,2.75152 -15.96967,1.23249 -17.5374,-3.39284c-1.56773,-4.62533 3.74223,-10.60545 11.86016,-13.35697c8.11792,-2.75152 15.96967,-1.23249 17.5374,3.39285z" fill="#6e2d2a"/><g fill="#000000"><path d="M383.34739,182.4103c0.60174,1.77534 -4.61679,5.14867 -11.65592,7.53454c-7.03911,2.38586 -13.23327,2.88079 -13.83501,1.10545c-0.60174,-1.77534 4.61678,-5.14868 11.6559,-7.53453c7.03911,-2.38586 13.23328,-2.8808 13.83503,-1.10544z"/><path d="M379.68484,183.65169c3.23601,9.54732 1.79271,18.66528 -3.22367,20.36556c-5.01638,1.70028 -11.70627,-4.66102 -14.94227,-14.20832c-3.23601,-9.54732 -1.79271,-18.66528 3.22367,-20.36556c5.01638,-1.70028 11.70627,4.66102 14.94227,14.20832z"/></g><g fill="#000000"><path d="M289.01108,210.80194c7.03911,-2.38586 13.23326,-2.88079 13.835,-1.10545c0.60174,1.77534 -4.61678,5.14867 -11.6559,7.53453c-7.03911,2.38586 -13.23326,2.88079 -13.835,1.10546c-0.60174,-1.77534 4.61678,-5.14868 11.6559,-7.53453z"/><path d="M284.24133,196.72954c5.01638,-1.70028 11.70627,4.66102 14.94227,14.20832c3.23601,9.54732 1.79272,18.66529 -3.22367,20.36556c-5.01638,1.70028 -11.70628,-4.66102 -14.94228,-14.20833c-3.23601,-9.54732 -1.79271,-18.66528 3.22367,-20.36556z"/></g></g><path d="M313.67195,185.96724c0.1104,-0.22431 0.3347,-0.11391 0.3347,-0.11391l0.17878,0.08799c1.78458,0.89325 0.49292,2.6584 1.98627,3.22916c-0.40532,-1.02357 -1.10755,-2.19885 -0.86552,-3.02993c-0.2637,-0.20005 -0.49538,-0.42265 -0.67225,-0.67989c-0.70313,-1.02257 0.55779,-1.63794 -0.42112,-2.66369c-1.25084,-1.31068 -0.21551,-1.52654 -0.4448,-2.66235c-0.17945,-0.88895 -2.3671,-1.7807 -2.28495,-2.69131c0.08061,-0.89339 1.20616,-0.32994 0.99196,-1.39555c-0.11137,-0.55407 -0.8391,-0.99407 -0.99694,-1.61423c-0.40969,-0.42477 -0.4092,-1.04657 -0.40173,-1.63843c-0.06634,-0.03939 -0.13144,-0.06932 -0.19533,-0.0866c0,0 -0.23799,-0.07655 -0.16143,-0.31455c0.07655,-0.23799 0.31455,-0.16143 0.31455,-0.16143c0.01259,0.0045 0.02545,0.00973 0.03856,0.01566c-0.01921,-0.36822 -0.09261,-0.69074 -0.34122,-0.89944l-0.04512,-0.04576c0,0 -0.17553,-0.17802 0.00248,-0.35355c0.17802,-0.17553 0.35355,0.00248 0.35355,0.00248l0.04512,0.04576c0.3828,0.43421 0.38782,0.98563 0.38743,1.53982c0.45884,0.39868 1.03313,1.00849 1.48131,0.88578c0.27041,-0.07404 0.32715,-1.15113 0.51491,-1.30646c1.06319,-0.87964 3.34459,-0.25605 4.41766,-1.75453c0.79856,-0.49364 1.91563,-0.88265 2.62092,-1.47803c0.56715,-0.47876 0.71717,-1.46544 1.04136,-2.12324c-0.43751,-0.52223 -0.94086,-1.01005 -1.39161,-1.52999c-0.04566,-0.00096 -0.07893,-0.01166 -0.07893,-0.01166c-2.3799,-0.76554 -4.75981,-1.53108 -7.13971,-2.29663l-0.47598,-0.15311c0,0 -0.23799,-0.07655 -0.16143,-0.31455c0.07655,-0.23799 0.31455,-0.16143 0.31455,-0.16143c2.17966,0.70113 4.75857,1.53068 7.00541,2.25342c-0.13755,-0.19986 -0.26197,-0.40743 -0.36784,-0.62575c-0.36049,-0.75132 -0.72099,-1.50266 -1.08148,-2.25397l-0.01815,-0.03783c0,0 -0.10815,-0.2254 0.11725,-0.33355c0.2254,-0.10815 0.33355,0.11725 0.33355,0.11725c0.36049,0.75132 0.73913,1.54047 1.09962,2.2918c0.47744,1.00732 1.40101,1.77417 2.13952,2.62798c0.02514,-0.02405 0.05128,-0.04641 0.07853,-0.06697c1.77331,-1.33748 2.40264,2.59454 3.25118,2.02008c0.6924,-0.37049 2.59671,-2.02439 3.35736,-1.41886c0.38506,0.30654 0.45555,1.62601 0.5402,2.08624c0.25256,1.37321 0.84441,3.27827 2.15487,4.05121c0.177,0.10852 0.45204,0.27744 0.74351,0.4772c0.55259,-0.45612 1.12964,-0.87921 1.57195,-1.32859c0.44393,-0.45102 0.5961,-1.65801 0.78764,-2.25128l0.43387,-0.37613c0,0 0.20182,-0.14755 0.34936,0.05428c0.14755,0.20182 -0.05428,0.34936 -0.05428,0.34936l-0.25314,0.12612c-0.22366,0.69273 -0.39042,1.90883 -0.9043,2.44551c-0.39976,0.41749 -0.97649,0.82376 -1.53382,1.26744c0.41678,0.31886 0.79121,0.67393 0.88004,0.97724c0.29659,1.0128 -1.0163,2.27085 -0.64447,3.4064c0.51886,1.58459 2.30764,2.17413 1.77691,3.92768c-1.09538,3.61714 -2.15811,7.42647 -6.56658,6.28492c-0.39071,-0.45402 -0.86587,1.81814 -1.38519,2.63074c0.26516,0.24134 0.51115,0.48317 0.49632,0.98019c-0.04121,1.38035 -0.79259,1.76465 0.62712,2.76874c0.60809,0.43431 1.61108,0.87819 2.1114,1.39002c0.6227,0.63701 0.14011,1.79908 0.26823,2.58349c0.13752,0.84196 1.09262,1.73311 1.52518,2.46026l0.21753,0.40951c0,0 0.11714,0.22086 -0.10372,0.338c-0.22086,0.11714 -0.338,-0.10372 -0.338,-0.10372l-0.20565,-0.38836c-0.48114,-0.81063 -1.41504,-1.68935 -1.58786,-2.62955c-0.09768,-0.53136 0.31742,-1.92831 -0.12169,-2.30864c-0.56412,-0.48862 -1.42525,-0.89359 -2.05602,-1.34411c-1.8591,-1.33926 -0.14662,-2.29523 -0.88929,-3.56352c-0.06643,-0.11344 -0.13865,-0.2166 -0.21358,-0.31331c-1.72161,1.13822 -3.29578,-1.73514 -4.58974,-1.49913c-0.60927,0.11113 -0.60278,0.58348 -1.39273,0.49728c-1.6613,-0.24617 -1.10066,-1.80041 -2.20519,-2.58463c-0.628,-0.44588 -1.50043,-0.79848 -2.24041,-1.25759c-0.06503,0.24762 -0.10433,0.46719 -0.07634,0.61421c0.27916,1.46631 1.69541,1.94249 1.22655,3.62654l-0.00841,0.0302c0,0 -0.06707,0.24084 -0.3079,0.17377c-0.24084,-0.06707 -0.17377,-0.3079 -0.17377,-0.3079l0.00841,-0.0302c0.06916,-0.24825 0.0361,-0.54102 -0.05329,-0.85997c-0.0931,0.04754 -0.19859,0.01361 -0.19859,0.01361c-2.05238,-0.68746 -0.38843,-2.43508 -2.18339,-3.30081l-0.17878,-0.08799c0,0 -0.22431,-0.1104 -0.11391,-0.3347z" fill="#000000" stroke-width="0.5"/></g><path d="M-15.5,30v-60h751v60z" fill="#000000" stroke-opacity="0.50196" stroke="#0d0d0d" stroke-width="0"/><path d="M-15.5,390v-60h751v60z" fill="#000000" stroke-opacity="0.50196" stroke="#0d0d0d" stroke-width="0"/><g stroke-width="0"><g stroke="#000000"><path d="M-7.50751,364.00104v-372.37237h735.015v372.37237z" fill="url(#color-1)"/><path d="M-7.5075,364.00104v-372.37237h735.015v372.37237z" fill="url(#color-2)"/></g><g stroke="none"><path d="M-5.24206,376.25329v-390.39039h155.90105v390.39039z" fill="url(#color-3)"/><path d="M571.60646,373.01003v-390.39039h155.90105v390.39039z" fill="url(#color-4)"/><path d="M-6.53233,110.48753v-127.62762h733.55954v127.62763z" fill="url(#color-5)"/><path d="M726.05204,249.75283v127.62762h-733.55954v-127.62762z" fill="url(#color-6)"/></g></g></g></g></svg>