<svg version="1.1" xmlns="http://www.w3.org/2000/svg" xmlns:xlink="http://www.w3.org/1999/xlink" width="827.82282" height="395.13514" viewBox="0,0,827.82282,395.13514"><defs><linearGradient x1="400.9877" y1="-7.68705" x2="400.9877" y2="115.68705" gradientUnits="userSpaceOnUse" id="color-1"><stop offset="0" stop-color="#330f00"/><stop offset="1" stop-color="#0e0400"/></linearGradient><linearGradient x1="401.57479" y1="244.31295" x2="401.57479" y2="367.68705" gradientUnits="userSpaceOnUse" id="color-2"><stop offset="0" stop-color="#0e0400"/><stop offset="1" stop-color="#330f00"/></linearGradient><linearGradient x1="291.2898" y1="179.68705" x2="58.27269" y2="179.68705" gradientUnits="userSpaceOnUse" id="color-3"><stop offset="0" stop-color="#120700"/><stop offset="1" stop-color="#4f2600"/></linearGradient><linearGradient x1="731.2898" y1="179.68705" x2="438.2898" y2="179.68705" gradientUnits="userSpaceOnUse" id="color-4"><stop offset="0" stop-color="#4f2600"/><stop offset="1" stop-color="#120700"/></linearGradient><radialGradient cx="359.99999" cy="180.00001" r="90" gradientUnits="userSpaceOnUse" id="color-5"><stop offset="0" stop-color="#000000"/><stop offset="1" stop-color="#000000" stop-opacity="0"/></radialGradient><linearGradient x1="383.58333" y1="179.95834" x2="396.83333" y2="179.95834" gradientUnits="userSpaceOnUse" id="color-6"><stop offset="0" stop-color="#000000"/><stop offset="1" stop-color="#000000" stop-opacity="0"/></linearGradient><linearGradient x1="336.58333" y1="179.95834" x2="323.33332" y2="179.95834" gradientUnits="userSpaceOnUse" id="color-7"><stop offset="0" stop-color="#000000"/><stop offset="1" stop-color="#000000" stop-opacity="0"/></linearGradient><linearGradient x1="360.20833" y1="204.37501" x2="360.20833" y2="211.62501" gradientUnits="userSpaceOnUse" id="color-8"><stop offset="0" stop-color="#000000"/><stop offset="1" stop-color="#000000" stop-opacity="0"/></linearGradient><linearGradient x1="361.12499" y1="155.45834" x2="361.12499" y2="148.20834" gradientUnits="userSpaceOnUse" id="color-9"><stop offset="0" stop-color="#000000"/><stop offset="1" stop-color="#000000" stop-opacity="0"/></linearGradient><radialGradient cx="360.54129" cy="177.62761" r="362.61261" gradientUnits="userSpaceOnUse" id="color-10"><stop offset="0" stop-color="#000000" stop-opacity="0.83922"/><stop offset="1" stop-color="#000000" stop-opacity="0"/></radialGradient><linearGradient x1="745.48697" y1="180.87088" x2="581.17556" y2="180.87088" gradientUnits="userSpaceOnUse" id="color-11"><stop offset="0" stop-color="#000000"/><stop offset="1" stop-color="#000000" stop-opacity="0"/></linearGradient><linearGradient x1="-26.79204" y1="177.62763" x2="137.51937" y2="177.62763" gradientUnits="userSpaceOnUse" id="color-12"><stop offset="0" stop-color="#000000"/><stop offset="1" stop-color="#000000" stop-opacity="0"/></linearGradient><linearGradient x1="360.28052" y1="-17.32732" x2="360.28052" y2="110.30031" gradientUnits="userSpaceOnUse" id="color-13"><stop offset="0" stop-color="#000000"/><stop offset="1" stop-color="#000000" stop-opacity="0"/></linearGradient><linearGradient x1="361.30829" y1="377.19325" x2="361.30829" y2="249.56562" gradientUnits="userSpaceOnUse" id="color-14"><stop offset="0" stop-color="#000000"/><stop offset="1" stop-color="#000000" stop-opacity="0"/></linearGradient></defs><g transform="translate(53.91141,17.56757)"><g data-paper-data="{&quot;isPaintingLayer&quot;:true}" fill-rule="nonzero" stroke-width="0" stroke-linecap="butt" stroke-linejoin="miter" stroke-miterlimit="10" stroke-dasharray="" stroke-dashoffset="0" style="mix-blend-mode: normal"><path d="M332.5443,217.53754v-75.07508h78.07808v75.07508z" data-paper-data="{&quot;index&quot;:null}" fill="#000000" stroke="#000000"/><g data-paper-data="{&quot;index&quot;:null}"><path d="M227.38635,155.15699v-47.65733h288.1672v47.65733z" fill="#0e0400" stroke="#000000"/><path d="M227.61312,252.50034v-47.65733h288.1672v47.65733z" fill="#0e0400" stroke="#000000"/><path d="M232.40803,249.41007v-139.06192l113.95352,44.80884l0.38628,49.63738z" fill="#120700" stroke="none"/><path d="M510.53186,110.34815v139.06192l-113.95352,-44.80884l-0.38628,-49.63738z" fill="#120700" stroke="none"/></g><path d="M57.6856,115.68705v-123.3741h686.6042v123.3741z" data-paper-data="{&quot;index&quot;:null}" fill="url(#color-1)" stroke="#000000"/><path d="M58.27269,367.68705v-123.3741h686.6042v123.3741z" data-paper-data="{&quot;index&quot;:null}" fill="url(#color-2)" stroke="#000000"/><path d="M58.27269,359.68705v-360l233.01711,134.5l-4.16102,94z" data-paper-data="{&quot;index&quot;:null}" fill="url(#color-3)" stroke="none"/><path d="M731.2898,-0.31295v360l-281.5,-133.5l-11.5,-87z" data-paper-data="{&quot;index&quot;:null}" fill="url(#color-4)" stroke="none"/><g data-paper-data="{&quot;index&quot;:null}" stroke="#000000"><path d="M335.58333,49.74349c0,-6.18292 16.11775,-11.19516 36,-11.19516c19.88225,0 36,5.01224 36,11.19516c0,6.18292 -16.61775,16.69516 -36.5,16.69516c-19.88225,0 -35.5,-10.51224 -35.5,-16.69516z" fill="#0f0700"/><path d="M342.00357,55.73392c0,-5.08025 13.24331,-9.19861 29.57975,-9.19861c16.33645,0 29.57975,4.11836 29.57975,9.19861c0,5.08025 -13.65414,13.71774 -29.99058,13.71774c-16.33645,0 -29.16892,-8.63749 -29.16892,-13.71774z" fill="#404040"/></g><path d="M-15.66667,366.68705v-372.37237h76v372.37237z" data-paper-data="{&quot;index&quot;:null}" fill="#4f2600" stroke="#000000"/><g data-paper-data="{&quot;index&quot;:null}" stroke="#000000"><path d="M353.29167,124.6614c0,-3.14155 8.18946,-5.68828 18.29167,-5.68828c10.10221,0 18.29166,2.54673 18.29166,5.68828c0,3.14155 -8.44351,8.48284 -18.54572,8.48284c-10.10221,0 -18.03761,-5.34129 -18.03761,-8.48284z" fill="#0f0700"/><path d="M356.5538,127.70514c0,-2.58128 6.72895,-4.67383 15.02952,-4.67383c8.30058,0 15.02952,2.09255 15.02952,4.67383c0,2.58128 -6.93769,6.97001 -15.23827,6.97001c-8.30058,0 -14.82078,-4.38872 -14.82078,-6.97001z" fill="#272727"/></g><g data-paper-data="{&quot;index&quot;:null}" stroke="#000000"><path d="M270,270v-180h180v180z" fill="url(#color-5)"/><path d="M383.58333,204.45834v-49l18,-7l-0.25,62.25z" fill="url(#color-6)"/><path d="M318.83332,210.70834l-0.25,-62.25l18,7v49z" fill="url(#color-7)"/><path d="M309.58332,215.12501l24.25,-10.75h52.75l22,8.75z" fill="url(#color-8)"/><path d="M409.49999,146.70834l-22,8.75h-52.75l-24.25,-10.75z" fill="url(#color-9)"/></g><g data-paper-data="{&quot;index&quot;:null}"><path d="M745.38288,377.56757v-394.89489h28.52853v394.89489z" fill="#000000" stroke="none"/><g><g fill="url(#color-10)" stroke="#000000"><path d="M-2.07132,363.81382v-372.37237h725.22523v372.37237z"/></g><g stroke="none"><path d="M581.17557,376.06607v-390.39039h164.3114v390.39039z" fill="url(#color-11)"/><path d="M-26.79203,372.82282v-390.39039h164.3114v390.39039z" data-paper-data="{&quot;index&quot;:null}" fill="url(#color-12)"/><path d="M-26.28582,110.30032v-127.62763h773.13267v127.62762z" fill="url(#color-13)"/><path d="M747.87463,249.56562v127.62762h-773.13267v-127.62762z" data-paper-data="{&quot;index&quot;:null}" fill="url(#color-14)"/></g><path d="M-53.91141,377.34605v-394.89489h28.52853v394.89489z" fill="#000000" stroke="none"/></g></g></g></g></svg>