<svg version="1.1" xmlns="http://www.w3.org/2000/svg" xmlns:xlink="http://www.w3.org/1999/xlink" width="76.33333" height="101" viewBox="0,0,76.33333,101"><defs><radialGradient cx="354.13908" cy="170.87489" r="29.60907" gradientUnits="userSpaceOnUse" id="color-1"><stop offset="0" stop-color="#e3ffe5" stop-opacity="0.24314"/><stop offset="1" stop-color="#e3ffe5" stop-opacity="0"/></radialGradient><radialGradient cx="354.13909" cy="170.87489" r="10.96632" gradientUnits="userSpaceOnUse" id="color-2"><stop offset="0" stop-color="#e3ffe5" stop-opacity="0.24314"/><stop offset="1" stop-color="#e3ffe5" stop-opacity="0"/></radialGradient><radialGradient cx="354.13909" cy="170.87489" r="5.36131" gradientUnits="userSpaceOnUse" id="color-3"><stop offset="0" stop-color="#e3ffe5" stop-opacity="0.08235"/><stop offset="1" stop-color="#e3ffe5" stop-opacity="0"/></radialGradient><radialGradient cx="365.8609" cy="171.79176" r="29.60906" gradientUnits="userSpaceOnUse" id="color-4"><stop offset="0" stop-color="#e3ffe5" stop-opacity="0.24314"/><stop offset="1" stop-color="#e3ffe5" stop-opacity="0"/></radialGradient><radialGradient cx="365.8609" cy="171.79176" r="10.96632" gradientUnits="userSpaceOnUse" id="color-5"><stop offset="0" stop-color="#e3ffe5" stop-opacity="0.24314"/><stop offset="1" stop-color="#e3ffe5" stop-opacity="0"/></radialGradient><radialGradient cx="365.8609" cy="171.79176" r="5.36131" gradientUnits="userSpaceOnUse" id="color-6"><stop offset="0" stop-color="#e3ffe5" stop-opacity="0.08235"/><stop offset="1" stop-color="#e3ffe5" stop-opacity="0"/></radialGradient></defs><g transform="translate(-321.83333,-129.5)"><g stroke-miterlimit="10"><path d="M321.83333,230.5v-101h76.33333v101z" fill="#273042" stroke="none" stroke-width="0"/><path d="M329.75471,196.83333v-61.66667h60.49068v61.66667z" fill="#0b0e13" stroke="none" stroke-width="0"/><path d="M343.08347,227.33333v-17.33333h33.83333v17.33333z" fill="#0b0e13" stroke="#000000" stroke-width="0"/><path d="M342.99994,209.125v-11.25h34.25v11.25z" fill="#273042" stroke="#000000" stroke-width="0"/><text transform="translate(343.67021,207.0298) scale(0.29415,0.29415)" font-size="40" xml:space="preserve" fill="#000000" stroke="none" stroke-width="1" font-family="&quot;GovtAgentBB&quot;, Serif" font-weight="normal" text-anchor="start"><tspan x="0" dy="0">Apple</tspan></text><text transform="translate(347.21025,223.17375) scale(0.37559,0.37559)" font-size="40" xml:space="preserve" fill="#c74444" stroke="none" stroke-width="1" font-family="&quot;Agency FB&quot;, Sans Serif" font-weight="normal" text-anchor="start"><tspan x="0" dy="0">HARD</tspan></text><g stroke="none"><path d="M338.01064,158.50255c-0.07775,-0.86601 -0.09892,-1.70377 -0.04454,-2.48477c0.02522,0.82745 0.06368,1.65451 0.04454,2.48477z" fill="#478c4a" stroke-width="0"/><g><path d="M358.75671,172.35753c0.17602,-6.74914 3.89555,-12.07839 8.30781,-11.90319c4.41226,0.17519 7.8464,5.78848 7.67039,12.53762c-0.17602,6.74914 -3.89555,12.07839 -8.3078,11.90319c-4.41226,-0.17519 -7.84641,-5.78848 -7.67039,-12.53763z" fill="#0a0808" stroke-width="0"/><path d="M344.15974,172.27139c0.17602,-6.74914 3.89555,-12.07839 8.30781,-11.90319c4.41226,0.17519 7.84641,5.78848 7.67039,12.53762c-0.17602,6.74914 -3.89555,12.07839 -8.30781,11.90319c-4.41226,-0.17519 -7.8464,-5.78848 -7.67039,-12.53763z" fill="#0a0808" stroke-width="0"/><g stroke-width="0"><path d="M378.53414,172.04127c-5.92415,22.07687 -18.43708,14.7929 -18.43708,14.7929c0,0 -14.91867,6.53169 -17.62813,-16.22492c-1.75553,-14.74454 8.49816,-15.96379 18.4573,-15.56834c9.95913,0.39544 21.57272,2.22517 17.60791,17.00036zM348.67864,170.59715l0.00634,0.19584c0.10823,0.93175 0.421,1.80013 0.39401,2.83498c-0.03825,1.46654 -0.18727,2.975 -0.04125,4.43876c0.86604,1.02803 0.21712,2.70484 0.74208,3.8424l-0.03049,0.01051l0.07423,0.19527c0.01427,0.04037 0.05304,0.07024 0.09937,0.07208c0.05784,0.0023 0.10621,-0.03996 0.11041,-0.09529l0.01556,-0.18639c0.15801,-0.24515 0.26061,-0.46979 0.35512,-0.74523c0.05693,-0.16592 0.00998,-0.5183 0.18931,-0.49118c0.23211,0.03511 0.40434,-0.08969 0.48019,-0.31927c0.20091,0.61184 0.90124,-1.1363 0.92119,-1.15227c0.05093,-0.04077 0.295,0.6141 0.35735,0.63822c0.26726,0.1034 0.49545,-0.20949 0.60943,-0.48125c0.0021,0.10916 0.01119,0.20107 0.03186,0.29648l-0.02211,0.00225l0.02562,0.20684c0.00553,0.05167 0.04979,0.09317 0.10466,0.09535c0.04648,0.00184 0.08683,-0.02507 0.10308,-0.06442l0.0835,-0.18929c0.21668,-0.49122 1.00742,-1.99355 1.59917,-1.98562c0.31901,-0.28293 0.43135,-1.27032 0.7621,-1.4413c0.09311,-0.04813 0.05244,0.20089 0.08942,0.29803c0.06459,0.16965 0.30108,1.02822 0.54217,1.02965c0.22132,0.00131 0.58886,-0.99075 0.66536,-1.16435c0.11226,-0.25473 0.41288,-0.81688 0.71817,-0.90123c0.14239,-0.03934 0.30751,0.14448 0.43955,0.08018c0.2009,-0.09782 0.47183,-1.25841 0.55254,-1.93272c0.07507,0.44335 0.15045,0.88665 0.22869,1.32954l0.0333,0.18853c0.00771,0.04937 0.05089,0.08835 0.10402,0.09046c0.05961,0.00237 0.10915,-0.04258 0.11066,-0.10039l0.00546,-0.20936l-0.02703,-0.00107c0.09156,-0.5587 -0.09802,-1.03869 -0.28909,-1.60649c-0.0044,-0.026 -0.0088,-0.05201 -0.01321,-0.07801l-0.00551,-0.1546c-0.00078,-0.02847 -0.01332,-0.0544 -0.03316,-0.07319c-0.24629,-1.43485 -0.61199,-2.84412 -0.80699,-4.28706c-0.15137,-1.12011 -0.17054,-2.88664 -0.80336,-3.93543l0.0256,-0.01126l-0.08997,-0.18758c-0.01638,-0.03609 -0.05294,-0.06206 -0.09602,-0.06377c-0.05846,-0.00232 -0.10725,0.04087 -0.11052,0.09707l-0.01156,0.18216c-0.39114,0.67331 -0.59494,-0.31299 -0.75661,-0.76095c-0.22817,-0.62915 -0.44659,-1.95711 -1.17669,-2.29655c-0.68223,-0.31717 -0.53851,1.23884 -1.40856,0.93359c-0.09227,0.21375 -0.18412,0.42765 -0.2739,0.64243c-0.03934,0.0941 -0.04065,0.37235 -0.10188,0.28838c-0.09763,-0.1339 -0.11033,-0.61047 -0.515,-0.34897c-0.01522,0.00984 -0.50243,1.53655 -0.69934,1.36574c-0.21677,-0.18803 -0.13519,-1.01854 -0.51805,-0.14314c-0.21936,0.97933 -0.45525,1.85256 -1.01893,2.65127c-0.09415,0.13341 -0.00003,0.42507 -0.22452,0.46915c-0.04274,0.00839 -0.15044,-0.07013 -0.25506,-0.15598l0.0327,-0.03319l-0.15687,-0.14574c-0.0187,-0.01752 -0.04379,-0.02874 -0.07161,-0.02984c-0.05905,-0.00235 -0.10822,0.04174 -0.11061,0.09877l-0.00911,0.20513c-0.15473,1.05747 -0.61079,2.17404 -0.65345,3.23275c-0.01652,0.00874 -0.03339,0.01682 -0.05058,0.02414c0,0 -0.00189,0.00083 -0.00502,0.00252c-0.00168,-0.02639 -0.00309,-0.05271 -0.00419,-0.07898l-0.00609,-0.19036c0,0 -0.00337,-0.10475 -0.11129,-0.10312c-0.10791,0.00163 -0.10455,0.10639 -0.10455,0.10639zM361.29453,172.64666c-0.316,0.33846 -0.34447,1.50906 -0.22172,1.93419c0.25592,0.88631 0.90473,0.74053 1.37134,0.16944c0.05635,-0.16654 0.09409,-0.67199 0.15328,-0.50462c0.17227,0.48713 0.14315,1.0544 0.27855,1.5578c0.1744,0.64837 0.73602,1.25111 0.80518,1.91351c0.13717,1.21982 -0.0642,2.74333 0.25332,3.94792l-0.01495,0.0013l0.02238,0.20728c0.00484,0.05235 0.04942,0.09461 0.1048,0.09681c0.04277,0.0017 0.08035,-0.02096 0.09873,-0.05524l0.10078,-0.17873c0.07161,-0.11145 0.14277,-0.22319 0.21335,-0.33527c0.11292,-0.08597 0.66776,-1.37713 0.78659,-1.33936c0.31435,0.09993 -0.05273,0.64463 0.01356,0.95859c0.09276,0.43935 0.91204,1.08505 1.37887,1.0515c0.82459,-0.11652 0.69787,-2.25659 1.57579,-2.32911c0.09524,-0.00786 0.16828,0.51778 0.21171,0.87279l-0.04416,-0.00053l0.00069,0.20915c-0.00004,0.05666 0.04653,0.10402 0.10524,0.10635c0.04426,0.00176 0.08298,-0.02257 0.10059,-0.05888l0.09462,-0.18427l-0.00232,-0.00115l0.00593,-0.00667c0.08523,-0.26964 0.1807,-0.51791 0.29994,-0.77466c0.05381,-0.11586 0.65291,-1.38564 0.83694,-1.22655c0.10985,0.09496 0.28106,0.51187 0.53633,0.04504c0.29592,-0.54115 0.39717,-1.3978 0.61845,-1.99931c0.53507,-1.4545 1.08729,-2.753 0.45724,-4.18799c-0.58954,-1.33613 -0.58921,-2.89559 -0.95126,-4.29037c-0.06223,-0.23972 -0.23327,-1.17683 -0.55077,-1.24295c-0.16602,-0.03457 -0.90823,1.05802 -0.977,0.97255c-0.20976,-0.26073 -0.19769,-1.2412 -0.18905,-1.57289c0.04575,-1.75484 0.22719,-2.81715 -1.28972,-3.99865c-1.6951,-0.90481 -1.63381,1.8976 -1.96792,3.05293c-0.0385,0.13313 -0.07364,0.26725 -0.11545,0.39938c-0.27213,0.85985 -0.02481,-0.76199 -0.45454,-0.82929c-0.3864,-0.06052 -0.94309,1.78969 -1.20837,2.02517c-0.28671,0.26384 -0.78875,1.21134 -0.88926,1.94553c-0.017,-0.07588 -0.03732,-0.14497 -0.06349,-0.21476l0.01867,-0.00399l-0.04903,-0.20248c-0.01014,-0.04648 -0.05195,-0.0824 -0.10289,-0.08442c-0.05311,-0.00211 -0.09823,0.03335 -0.10851,0.08199l-0.0469,0.20181c-0.01608,0.06933 -0.03217,0.13866 -0.04825,0.20799c-0.17259,1.20797 -0.59848,2.30619 -0.66528,3.53006c-0.12718,0.02021 -0.34568,-0.013 -0.48204,0.13304z" fill="#692e2e"/><path d="M352.05951,177.80155c-0.91802,-0.66599 -1.73921,-1.42437 -2.34305,-1.98715c-0.01024,-0.79325 -0.1865,-1.6035 -0.03071,-2.37975c0.13609,-0.67805 1.4886,-3.0814 1.84797,-3.74395c1.33994,-2.47037 2.92144,-4.64699 5.03793,-6.54042c1.25921,-1.12651 2.51302,-2.74163 4.71669,-1.95015c0.30917,0.11104 0.59596,1.44954 0.77752,2.49895c0.64958,-0.0687 1.30823,0.04259 1.94117,0.48712c0.93194,0.65452 0.98857,1.83894 0.9177,2.88102c2.42379,-0.46601 3.00883,1.11672 3.58854,2.68268c0.71962,1.9439 0.55991,3.89579 -0.14482,5.66817c-0.05883,0.20358 -0.13875,0.39208 -0.2434,0.56013c-0.54733,1.16023 -1.32325,2.23094 -2.22725,3.15575c-0.24369,0.04908 -0.4873,0.13746 -0.73092,0.22078c-0.11036,0.49644 -0.25401,0.98411 -0.43636,1.45612c-0.20048,0.51892 -0.22179,1.20801 -0.69273,1.51946c-0.77594,0.51315 -1.77577,0.73962 -2.7216,0.73853c-0.64095,-0.00073 -1.20629,-0.42617 -1.79505,-0.69529c-1.29338,-0.14675 -2.49709,-0.71657 -3.08699,-1.70768c-0.08259,-0.13877 -0.15148,-0.28635 -0.20751,-0.44126c-0.77482,-0.3059 -1.50516,-0.70534 -2.12907,-1.23167c-0.19341,0.22946 -0.49213,0.3705 -0.82366,0.35734c-0.4608,-0.0183 -0.84284,-0.32886 -0.96098,-0.73993l-0.25343,-0.80881z" fill-opacity="0.06667" fill="#210a0a"/></g><path d="M368.94947,161.18915l0.08957,0.10809l0.09897,0.0281l0.03031,0.05509l0.06374,0.00598l0.27735,0.33471l0.08895,0.06209l0.20887,0.23774l0.11646,0.04263l0.0843,0.18587l0.13604,0.15485l-0.01164,0.11944l0.12943,0.28538l0.06643,0.37179l0.05909,0.18857l0.00327,0.06158l0.02846,0.05551l0.01485,0.06473l0.08819,0.12165l0.11701,0.2917l0.14381,0.28053l0.04175,0.18205l0.00178,0.00442l-0.00051,0.00107l0.0677,0.29521l0.05862,0.01845l0.11031,0.2152l0.16093,0.18318l-0.01071,0.10987l0.1135,0.2214l0.02499,0.10894l0.40341,0.62667l0.06758,0.2004l0.11148,0.18155l0.05492,0.17527l0.01572,0.03276l0.24468,0.42306l0.08076,0.28417l0.1136,0.27384l0.08127,0.56135l-0.0142,0.13039l0.0295,0.12862l-0.00969,0.3717l-0.03614,0.12602l0.00738,0.13125l-0.11035,0.55374l-0.10204,0.21127l-0.05844,0.22689l-0.10066,0.18205l-0.07873,0.0835l-0.00473,0.0098l-0.00711,0.02481l-0.0045,0.05385l-0.01407,0.0109l-0.08581,0.29923c0.18656,0.46248 0.3428,0.93353 0.42937,1.4236c0.18028,1.02055 0.18078,2.31904 -0.02148,3.60816l0.00557,0.02427l-0.01268,0.48632l0.06436,0.95478l-0.01338,0.07128l0.01632,0.07115l-0.03878,1.48679l-0.03614,0.12602l0.00738,0.13125l-0.07934,0.39811l0.00364,0.00759l-0.01026,0.02564l-0.02439,0.1224l-0.14343,0.29698l-0.12244,0.30595l-0.07417,0.10112l-0.01202,0.02489l-0.00811,0.00256l-0.30349,0.41376l-0.1165,0.09589l-0.01945,0.08307l-0.26322,0.1496l-0.23243,0.1913l-0.0877,-0.00936l-0.13193,0.07498l-0.24435,0.06871l-0.07005,0.02415l-0.04764,0.03921l-0.04351,0.04349l-0.04828,0.10829l-0.01007,0.01269l0.00327,0.03201l-0.25821,0.28896l-0.24064,0.30299l-0.0329,0.00313l-0.01081,0.0121l-0.29673,0.20026l-0.07455,0.06763l-0.00053,0.00311l-0.01017,0.0066l-0.12604,0.11434l-0.28363,0.15149l-0.26896,0.17453l-0.16305,0.05621l-0.01072,0.00573l-0.00312,-0.00095l-0.30702,0.10585l-0.14892,0.01374l-0.13698,0.05681l-0.26781,0.0411l-0.48414,0.21286l-0.00942,0.01495l-0.0454,0.00915l-0.04086,0.01796l-0.36518,0.06385l-0.36318,0.07318l-0.04511,-0.00179l-0.04565,0.00798l-0.00944,-0.00659l-0.08321,0.03921l-0.38568,0.07771l-0.19931,-0.00791l-0.19458,0.0392l-0.95813,-0.03804l-0.19213,-0.05456l-0.19931,-0.00791l-0.38083,-0.10814l-0.1552,-0.08762l-0.17307,-0.04442l-0.1892,-0.10053l-0.1829,-0.16284l-0.02594,-0.01464l-0.00287,-0.01101l-0.11359,-0.10113l-0.12058,-0.03795l-0.06545,-0.12768l-0.10846,-0.09656l-0.00381,-0.12245l-0.19632,-0.38295l-0.02499,-0.10894l-0.0347,-0.05391l-0.09831,-0.29152l-0.12748,-0.28107l-0.07247,-0.4056l-0.15825,-0.59626l-0.00181,-0.21919l-0.04923,-0.21465l0.06205,-2.37901l-0.00649,-0.04483l-0.01527,-0.01582l-0.1096,-0.09758l-0.27105,-0.2152l-0.06488,-0.08389l-0.02577,-0.02295l-0.00034,-0.01081l-0.1034,-0.13369c-0.0837,0.01662 -0.17094,0.02374 -0.26046,0.02018c-0.35723,-0.01419 -0.66954,-0.19508 -0.85922,-0.4622l-0.16815,0.13028l0.00201,0.04476l-0.2123,0.21215l-0.17141,0.2447l-0.08679,0.01332l-0.10641,0.10634l-0.00159,0.00095l-0.02448,0.04427l-0.08856,0.09392l-0.00652,0.07804l-0.24895,0.19289l-0.21502,0.22803l-0.08076,0.00114l-0.10254,0.07945l-0.07594,0.03339l-0.16159,0.18084l-0.03677,0.02482l-0.03115,0.03304l-0.01819,0.00026l-0.30441,0.20544l-0.02965,0.01082l-0.01528,0.06524l-0.17833,0.10135l-0.13938,0.14781l-0.12378,0.00175l-0.1277,0.07258l-0.00644,0.02015l-0.2839,0.13377l-0.14924,0.15827l-0.13955,0.21112l-0.49118,0.4456l-0.22656,0.121l-0.20188,0.15642l-0.29681,0.13049l-0.207,0.12354l-0.0619,0.01881l-0.02842,0.04511l-0.35604,0.07174l-0.34654,0.10532l-0.04844,-0.02574l-0.0636,0.01282l-0.30454,-0.01209l-0.01373,0.01456l-0.02002,0.05816l-0.29956,0.45321l-0.09763,0.08857l-0.01083,0.03778l-0.00379,0.00643l-0.04214,0.14694l-0.08988,0.34899l-0.0212,0.03833l-0.01242,0.0433l-0.01602,0.00812l-0.04098,0.07412l0.00108,0.02408l-0.28957,0.28937l-0.28061,0.29758l-0.02482,0.00035l-0.2742,0.16364l-0.20549,0.06245l-0.18537,0.10535l-0.28986,0.08151l-0.03994,0.00139l-0.03116,0.02952l-0.38143,-0.01515l-0.38105,0.01327l-0.03195,-0.02967l-0.03999,-0.00159l-0.18869,-0.05358l-0.17412,-0.00691l-0.01539,0.00918l-0.04514,-0.01159l-0.04511,-0.00179l-0.35861,-0.10183l-0.3611,-0.09268l-0.03984,-0.02117l-0.04483,-0.01273l-0.00797,-0.01449l-0.1361,-0.04982l-0.52177,-0.14817l-0.03031,-0.05509l-0.06374,-0.00598l-0.527,-0.636l-0.03152,-0.06571l-0.06432,-0.07321l-0.10884,-0.03425l-0.11031,-0.2152l-0.16093,-0.18318l0.01071,-0.10987l-0.1135,-0.2214l-0.04738,-0.20657l-0.01551,-0.03233l-0.07151,-0.3554l-0.08109,-0.3536l0.00114,-0.04375l-0.00894,-0.04443l0.01047,-0.01427l0.02643,-1.01367l-0.11062,-0.23063l-0.04157,-0.20659l-0.08763,-0.19321l-0.0837,-0.46843l0.01174,-0.15591l-0.03515,-0.15328l0.00063,-0.02397l-0.01177,-0.03755l-0.0134,-0.25246l-0.05673,-0.24738l0.03878,-1.48679l-0.06984,-0.30452l-0.11397,-0.33796l0.02577,-0.04661l-0.0142,-0.06192l0.10179,-3.90283l0.06951,-0.24237l0.02652,-0.25087l0.0137,-0.03654l0.00547,-0.20981l0.06951,-0.24237l0.02652,-0.25087l0.10308,-0.27497l0.17829,-0.25453l0.00999,-0.11961l0.16137,-0.12503l0.11612,-0.16578l0.01115,-0.00171l0.03604,-0.12566l0.03591,-1.37689l-0.0097,-0.01507l0.01124,-0.04363l0.00114,-0.04375l0.09935,-0.34643l0.08988,-0.34899l0.0212,-0.03833l0.01242,-0.0433l0.01602,-0.00812l0.32137,-0.5812l0.17715,-0.39737l0.01007,-0.01269l-0.00327,-0.03201l0.25821,-0.28897l0.24064,-0.30299l0.0329,-0.00314l0.01081,-0.0121l0.20199,-0.13632l0.10188,-0.12353l0.25478,-0.38546l0.02899,-0.0263l0.00354,-0.04239l0.29588,-0.22925l0.25423,-0.23064l0.0373,-0.05085l0.002,-0.02398l0.25696,-0.1991l0.04332,-0.07835l0.214,-0.22694l0.02735,-0.11677l0.17833,-0.10135l0.13938,-0.14781l0.12378,-0.00175l0.2738,-0.15561l0.53421,-0.15022l0.43929,-0.15144l0.02989,-0.00275l0.01893,-0.06598l0.05631,-0.02856l0.00516,-0.06177l0.19293,-0.14948l-0.00201,-0.04476l0.2123,-0.21215l0.17141,-0.2447l0.08679,-0.01332l0.10641,-0.10634l0.15665,-0.09349l0.08025,-0.0728c0.19059,-0.17291 0.42504,-0.30039 0.68516,-0.36595l0.0412,-0.022l0.02329,0.00714c0.13054,-0.02732 0.26699,-0.03919 0.40715,-0.03363c0.45509,0.01807 0.86157,0.2165 1.14805,0.52135l0.22855,-0.05103l0.70464,0.44477l0.18678,0.19346l0.12826,0.22176l0.16437,0.19837l0.01344,0.02802l0.02795,0.01485l0.10931,0.09732l0.13418,0.06077l0.29308,0.22916l0.01813,0.0017l0.02937,0.03545l0.0354,0.02768l0.22728,0.28933l0.23495,0.28354l0.01915,0.03993l0.02841,0.03616l-0.00128,0.0082l0.1758,0.24249l0.05367,0.13381l0.09294,0.11217l0.22805,0.47545l0.01556,0.00938l0.01014,0.0442l0.01915,0.03993l0.07151,0.3554l0.0811,0.3536l-0.00114,0.04375l0.00894,0.04442l-0.01047,0.01427l-0.01731,0.66379l0.16079,0.42299l0.03374,0.2963l0.06684,0.29146l-0.07251,2.78029l0.00393,0.01712l0.01551,0.03233l0.03427,0.17034l0.07993,0.15591l0.01485,0.06473l0.03952,0.05452l0.01926,0.00774l0.01826,0.044l0.01116,0.01539l0.1399,0.34875l0.14403,0.34721l0.00268,0.01854l0.01773,0.0442l-0.00871,0.01812l0.03562,0.24601l0.05217,0.10876l0.18324,0.31684l0.16729,-0.3512l0.03044,-0.03642l0.01176,-0.04567l0.08694,-0.15723l0.06426,-0.32244l0.0438,-0.09069l-0.01681,-0.06663l0.18192,-0.27523l0.14315,-0.29639l0.06667,-0.02105l0.05566,-0.08421l0.03842,-0.03485l0.01658,-0.03161l0.001,-0.03829l0.10551,-0.3679l0.00453,-0.0077l-0.00706,-0.02797l0.2156,-0.3262l0.07028,-0.11934l0.01862,-0.06492l0.13657,-0.23193l0.09978,-0.24936l0.00085,-0.00116l0.13354,-0.46565l0.05631,-0.02856l0.00516,-0.06177l0.36884,-0.28578l0.07595,-0.43549l0.07783,-0.17154l0.03111,-0.1856l0.14505,-0.32535l0.07509,-0.32061l0.04614,-0.08793l0.01043,-0.09861l0.20616,-0.54994l0.09953,-0.14209l0.05623,-0.16337l0.20427,-0.30904l0.1457,-0.38865l0.12071,-0.17233l0.07788,-0.19462l0.59669,-0.81349l0.06659,-0.05481l0.04025,-0.07532l0.31251,-0.34094l0.20392,-0.48649l0.02478,-0.03266l-0.00443,-0.04336l0.24709,-0.27653l0.22366,-0.29484l0.04443,-0.00519l0.02737,-0.03063l0.37719,-0.25456c0.2151,-0.14859 0.46991,-0.24631 0.7457,-0.27614l0.04485,-0.01636l0.02253,0.01046c0.04041,-0.00272 0.08123,-0.00398 0.1224,-0.00373l0.41736,-0.33795l0.83034,0.0951l0.28502,0.10434l0.26513,0.17701zM367.12832,165.23701l-0.42207,0.57542l-0.1324,0.35317l-0.09953,0.14209l-0.05623,0.16337l-0.20427,0.30904l-0.11141,0.29718l-0.08566,0.36574l-0.06754,0.12874l-0.02399,0.14313l-0.12711,0.28511l-0.08047,0.46142l-0.05897,0.12997l-0.015,0.14186l-0.20617,0.54994l-0.17829,0.25453l-0.00999,0.11961l-0.16137,0.12503l-0.11612,0.16578l-0.03852,0.00591l-0.01788,0.06236l-0.04831,0.0245l-0.02346,0.05863l-0.03744,0.05104l-0.03061,0.10673l-0.00453,0.0077l0.00706,0.02796l-0.2156,0.3262l-0.07028,0.11934l-0.00833,0.02904l-0.09942,0.42448l-0.02937,0.05599l0.01309,0.0519l-0.19554,0.29584l-0.16445,0.31345l-0.05248,0.01476l-0.03493,0.05284l-0.0168,0.01524l-0.01211,0.06078l-0.10204,0.21127l-0.05844,0.22689l-0.17897,0.32366l-0.07014,0.14726c0.13046,0.12506 0.22881,0.28121 0.28216,0.45511l0.52592,1.57926l-0.01233,0.0037c0.01133,0.02258 0.02246,0.04527 0.03338,0.06807c0.19796,0.41307 0.23642,0.87283 0.27785,1.33144l0.00706,0.00284l0.0107,0.02579l0.06875,0.1068l0.10624,0.31503l0.12766,0.30774l0.01796,0.12408l0.0089,0.0264l-0.00403,0.00728l0.05843,0.40358l-0.0142,0.13039l0.0295,0.12862l-0.02568,0.98471c0.03202,0.21189 0.06127,0.41438 0.08467,0.59138c0.48448,-0.02402 1.2885,0.70157 1.61265,0.90001c0.00853,0.00522 0.01691,0.01178 0.02514,0.01937l0.13759,-0.05706l0.33269,-0.05106c0.12333,-0.27837 0.1918,-0.59611 0.40849,-0.80689c0.45069,-0.43839 1.16569,-0.65691 1.55643,-1.12444l0.02514,-0.96382l-0.06436,-0.95478l0.01338,-0.07128l-0.01632,-0.07115l0.01115,-0.42759l-0.04066,-0.28085l-0.21657,-0.60984l-0.01399,-0.15318l-0.05942,-0.14323l-0.08127,-0.56135l0.0142,-0.13039l-0.0295,-0.12862l0.00957,-0.36687l-0.06645,-0.6497l0.01488,-0.09801l-0.0223,-0.09724l0.05332,-2.04434l0.05323,-0.18561l0.00504,-0.1933l0.15778,-0.55018l0.00223,-0.08547l0.08565,-0.29866c-0.16987,-0.39646 -0.32116,-0.79682 -0.42722,-1.20658l-0.02842,-0.36986c0,0 0.00654,-0.25075 0.13976,-0.50179l-0.19499,-0.30289l-0.08298,-0.24605l-0.03463,-0.00813l-0.1583,-0.25779l-0.2008,-0.22856l0.00828,-0.08496l-0.07935,-0.12922l-0.08854,-0.28258l-0.00327,-0.06158l-0.02846,-0.05551l-0.10097,-0.44023l-0.08819,-0.12165l-0.0988,-0.2463zM355.04067,164.65803l-0.15665,0.09349l-0.17848,0.16192l-0.27804,0.1485l-0.06414,0.10181l-0.20309,0.04092l-0.18109,0.09672l-0.11861,-0.03634l-0.24647,0.04966l-0.23249,0.08015l-0.04459,0.00411l-0.21398,0.16579l-0.21502,0.22803l-0.02677,0.00038l-0.03457,0.02846l-0.08646,0.13081l-0.19647,0.17824l-0.12335,0.06588l-0.11889,0.17987l-0.06162,0.0559l-0.03496,0.07466l-0.29713,0.36029l-0.18232,0.13368l-0.14967,0.1675l-0.02044,0.01379l-0.02447,0.05489l-0.04163,0.05242l-0.0166,0.06445l-0.22307,0.40343l-0.03395,1.30197l-0.05323,0.18561l-0.00504,0.1933l-0.13816,0.48175c0.0093,0.01309 0.0183,0.02638 0.02699,0.03988l1.00659,1.51572l-0.01156,0.00712c0.02787,0.03788 0.05508,0.07627 0.08158,0.11522c1.07364,1.57793 0.81053,3.63651 0.80954,5.43954c0.03965,0.04107 0.07598,0.08514 0.1086,0.1318c0.03931,-0.10812 0.07861,-0.21624 0.11792,-0.32435l0.45637,0.65388c-0.02293,-0.06861 -0.02582,-0.13779 0.00319,-0.20787c0.1811,-0.43747 0.83954,-0.50891 1.13605,-0.88111c0.35704,-0.44819 0.30567,-1.19371 0.78,-1.52411c0.48941,-0.34092 1.35253,0.11805 1.88067,-0.06105l0.01777,-0.68139l0.04306,-0.15017l-0.00359,-0.15652l0.10793,-0.46082l0.0387,-0.07376l-0.02283,-0.07287l-0.18774,-0.3246l-0.01695,-0.05963l-0.04009,-0.04839l-0.01558,-0.03247c-0.34155,-0.31121 -0.7501,-0.56119 -1.04162,-0.72003l-0.52693,-0.48165c0,0 -0.7439,-0.7705 0.03861,-1.48039c0.20327,-0.18441 0.40394,-0.26892 0.58964,-0.29299l0.06877,-2.63709l-0.07103,-0.18687l-0.00536,-0.04704l-0.0251,-0.04087l-0.08854,-0.28258l-0.0134,-0.25246l-0.05673,-0.24738l0.01699,-0.6515l-0.04864,-0.1014l-0.19311,-0.26637l-0.02245,-0.05597l-0.01431,-0.01119l-0.24948,-0.13256l-0.07599,-0.06766l-0.09547,-0.0372l-0.28259,-0.19726l-0.06263,-0.07129zM350.3237,174.60446l0.06984,0.30452l0.11397,0.33796l-0.02577,0.04661l0.0142,0.06192l-0.04425,1.69661l0.01177,0.03755l0.0134,0.25246l0.05673,0.24738l-0.00321,0.12329l0.01909,0.10684l0.13599,0.28352l0.01556,0.00938l0.01014,0.0442l0.01915,0.03993l0.05075,0.25223l0.03394,-0.09762c0.01252,-0.22228 0.00516,-0.44709 -0.00802,-0.66291c-0.08077,-1.32224 0.15869,-2.25622 -0.07883,-3.59688c-0.06074,-0.34284 -0.15721,-0.6883 -0.24062,-1.03395l-0.05886,0.13708c-0.02019,0.05031 -0.0443,0.09864 -0.07197,0.14464z" fill-opacity="0.12157" fill="#0a0303" stroke-width="0.5"/><path d="M350.60357,167.92761c0.4038,0.24334 0.96625,0.34373 1.27438,0.67327c0.04699,0.05026 0.08807,0.10585 0.12177,0.16808c0.0219,0.04045 0.04007,0.08714 0.05486,0.13923c0.0873,0.20127 0.13307,0.42277 0.12704,0.6539c-0.00545,0.20896 -0.05274,0.40671 -0.13389,0.58603c-0.13051,0.95252 -0.42736,1.99342 -0.41337,2.00988c0.27889,0.32847 0.38272,0.57549 0.45032,1.12107c0.09036,0.72927 -0.65195,1.7624 -0.12614,2.33606c0.1471,0.16048 0.23394,0.55239 0.44023,0.48236c0.97119,-0.32974 1.75263,-1.46465 2.68201,-1.68678c0.55249,-0.13206 0.81107,0.09137 1.24297,0.00485c0.10836,-0.0217 0.36914,-0.66487 0.37307,-0.8114c0.01453,-0.54187 -0.541,-1.05224 -0.68427,-1.59554c-0.37595,-1.42568 -3.70737,-8.12554 1.11931,-6.3586c1.09525,0.40095 0.74682,2.29536 1.00329,3.06681c0.4799,1.4435 2.62038,4.46255 2.24595,5.66743c-0.13207,0.42498 -2.1282,3.07792 -2.79742,3.37215c-0.86768,0.38149 -2.04069,0.01074 -2.8084,0.61206c-0.50105,0.39246 -0.29053,1.30345 -0.57985,1.82668c-0.63052,1.1403 -0.9412,0.45201 -1.80251,0.70993c-0.29825,0.08931 -0.2631,1.46225 -0.61731,1.64189c-0.24572,0.12462 -1.29895,0.63589 -1.54474,0.48777c-0.68575,-0.41325 -1.31419,-0.79327 -1.31244,-1.60254c0.00281,-1.30526 0.43497,-2.7652 0.39316,-4.04227c-0.00782,-0.23892 -0.59747,-0.53069 -0.67002,-0.84703c-0.11608,-0.50614 -0.24172,-4.66949 -0.16809,-5.04765c0.07918,-0.4067 0.34006,-2.65979 0.71465,-2.84977z" fill-opacity="0.4" fill="#0a0303" stroke-width="0.5"/><path d="M362.94162,169.2547c0.4038,0.24334 0.96625,0.34373 1.27438,0.67327c0.04699,0.05026 0.08807,0.10585 0.12177,0.16808c0.04439,0.08198 0.07905,0.17432 0.10591,0.2736c0.05234,0.15965 0.07928,0.32971 0.07629,0.50547c0.02613,0.41295 -0.01193,0.84722 -0.01943,1.1347c-0.00469,0.17997 -0.56773,1.56413 -0.52617,1.60975c1.68799,1.85317 0.78283,3.13923 2.06015,5.14383c0.09459,0.14844 0.23601,-0.25737 0.36665,-0.37357c0.22975,-0.20435 0.60224,-0.1698 0.91166,-0.21761c0.28345,-0.04379 1.82159,-1.70914 1.88687,-2.09773c0.07977,-0.47484 0.00566,-1.08029 -0.10267,-1.55119c-0.1384,-0.60164 -0.74951,-1.22888 -0.92735,-1.87864c-0.44736,-1.63445 -0.46496,-6.57919 2.64801,-4.40619c1.00585,0.70213 0.09918,2.87661 0.49513,3.64751c0.99814,1.94339 1.72976,4.18657 0.55354,6.33601c-0.3955,0.72274 -1.06507,0.81977 -1.4362,1.36765c-0.7707,1.13776 -0.82936,2.06622 -2.48343,2.16957c-0.03391,0.00212 -0.83942,1.34492 -2.48405,1.15757c-1.98738,-0.2264 -2.89122,-3.00659 -3.29269,-4.55701c-0.13833,-0.53421 0.06617,-1.60017 -0.25482,-1.97351c-0.31096,-0.36169 -0.86883,-0.47576 -1.1624,-0.85079c-0.37404,-0.47782 -0.20553,-1.24681 -0.12498,-1.7682c0.0977,-0.63244 0.24593,-1.14468 0.51521,-1.72698c0.22771,-0.49239 -0.14363,-1.80054 0.38318,-2.06772z" fill-opacity="0.4" fill="#0a0303" stroke-width="0.5"/><path d="M341.29798,168.38577c0.01096,-0.42038 0.19125,-0.79541 0.47599,-1.06623l0.16999,-0.91452l0.00428,-0.00915l-0.00057,-0.0101l0.2207,-1.10749l0.01131,-0.02342l-0.0006,-0.02601l0.10793,-0.46082l0.37627,-0.71718l0.27867,-0.07836l0.15092,-0.23955l0.70261,-0.14156l-0.00422,-0.09398l0.14383,-0.14373l0.09381,-0.1788l0.11844,-0.03331l0.1248,-0.12472l0.01071,-0.01528l0.00999,-0.11961l0.16137,-0.12503l0.11612,-0.16578l0.12201,-0.01873l0.24777,-0.19197l0.19405,-0.08531l0.81912,-0.14321l0.05156,0.03599l0.01214,-0.04234l0.08788,-0.14925l0.04308,-0.16727l0.10066,-0.18205l0.16497,-0.17495l0.01469,-0.02494l0.0113,-0.00262l0.36809,-0.39036l0.06392,-0.0009l0.03312,-0.05257l0.81462,-0.16413l0.28744,0.01141l0.65414,0.18575l0.0715,-0.00194l0.03375,0.03183l0.045,0.01278l0.03393,0.06165l0.26508,0.24999l0.0297,-0.0742l0.33976,-0.46321l0.25462,-0.46049l0.03082,-0.03269l0.01357,-0.04245l0.40022,-0.63526l0.10207,-0.0967l0.06576,-0.12306l0.49361,-0.53852l0.17885,-0.11749l0.03928,-0.09502l0.24803,-0.09371l0.21999,-0.14451l0.10193,0.02168l0.32116,-0.50977l0.04626,-0.04382l0.00443,-0.053l0.28289,-0.21918l0.25899,-0.24535l0.05485,0.00218l0.05053,-0.03915l0.09837,-0.04325l0.00942,-0.01495l0.0454,-0.00915l0.04086,-0.01796l0.36518,-0.06385l0.36318,-0.07317l0.04511,0.00179l0.04565,-0.00798l0.01488,0.01038l0.27762,0.01102l0.19213,0.05456l0.19931,0.00791l0.38083,0.10814l0.00801,0.00452l0.02872,-0.00641l0.33957,0.21434l0.35002,0.19761l0.00728,0.02792l0.00777,0.00491l0.05152,0.05336l0.03621,-0.03285l0.12109,-0.1651l0.03717,-0.15872l0.23551,-0.44887l0.00935,-0.11182l0.08311,-0.0644l0.04831,-0.09209l0.11073,-0.03114l0.40512,-0.31388l0.09837,-0.04325l0.00942,-0.01495l0.0454,-0.00915l0.04086,-0.01796l0.36518,-0.06385l0.36318,-0.07317l0.04511,0.00179l0.04564,-0.00798l0.01488,0.01038l0.56505,0.02243l0.13045,0.03704l0.13516,-0.00511l0.57245,0.11575l0.02431,0.01134l0.0268,-0.00017l0.47664,0.11195l0.09135,0.04614l0.10181,0.01166l0.18565,0.06796l0.01766,-0.00394l0.03927,0.02479l0.04243,0.01553l0.30879,0.20616l0.31415,0.19829l0.00475,0.00492l0.95821,0.03805l0.13044,0.03704l0.13516,-0.00511l0.57245,0.11575l0.21935,0.10233l0.23476,0.06026l1.32442,0.70373l0.07599,0.06766l0.09547,0.0372l0.56518,0.39453l0.10545,0.12003l0.13618,0.08595l0.16762,0.17361l0.15303,0.01753l0.18565,0.06796l0.01767,-0.00394l0.03927,0.02478l0.04243,0.01553l0.30879,0.20616l0.31415,0.19829l0.00175,0.00181l0.07308,0.04126l0.17307,0.04442l0.03784,0.0201l0.0069,0.00177l1.53021,0.06076l0.00887,0.00252l0.02615,-0.013l0.38172,0.12882l0.38764,0.11008l0.01402,0.02547l0.00874,0.00295l0.41929,0.26465l0.13429,0.07136l0.09819,0.08742l0.08054,0.00755l0.20269,0.24461l0.23838,0.21223l0.0013,0.04191l0.01995,0.01776l0.30011,0.07703l0.03984,0.02117l0.04483,0.01273l0.00862,0.01567l0.09591,0.05097l0.10931,0.09732l0.13419,0.06077l0.37598,0.29399l0.14063,0.17902l0.17498,0.14787l0.27774,0.38311l0.01678,0.04183l0.03325,0.03136l0.36871,0.57276l0.0209,0.06197l0.04445,0.04918l0.31937,0.59742l0.1445,0.02922l0.11648,0.05434l0.12779,0.01464l0.47521,0.17396l0.3783,0.08885l0.19309,0.09754l0.20991,0.05388l0.23009,0.12225l0.00106,0.00004l0.35861,0.10183l0.3611,0.09268l0.03984,0.02117l0.04483,0.01273l0.00862,0.01567l0.09592,0.05096l0.07599,0.06766l0.09547,0.0372l0.2651,0.18505l0.02474,0.00232l0.26452,0.31923l0.08544,0.09725l0.37129,0.33056l0.00193,0.06205l0.05471,0.03296l0.07455,0.32508l0.03766,0.0585l0.06758,0.2004l0.11148,0.18155l0.08854,0.28258l0.00527,0.09924l0.04146,0.09141l0.02078,0.11632l0.06484,0.08943l0.05368,0.13381l0.09294,0.11217l0.18193,0.3793l0.03428,0.17034l0.07993,0.15591l0.0336,0.14651l0.111,0.19192l0.04704,0.02969l0.01194,-0.00032l0.02521,0.02377l0.00599,0.00378l0.02016,0.02088l0.25142,0.23711l0.3111,0.27698l0.00075,0.02409l0.17295,0.26866l0.02036,0.06036l0.04694,0.02829l0.02238,0.09759l0.10534,0.09378l0.00193,0.06205l0.0547,0.03296l0.1819,0.79313l-0.02908,1.11509l-0.22285,0.77706l-0.05631,0.02856l-0.00516,0.06177l-0.37951,0.29405l0.04288,1.37727l-1.38046,0.82386l-0.80997,-0.2079l-0.3784,-0.20107l-0.3253,-0.28962l-0.12059,-0.03795l-0.06546,-0.12768l-0.10846,-0.09656l-0.00382,-0.12245l-0.19631,-0.38295l-0.02499,-0.10894l-0.0347,-0.0539l-0.05596,-0.16595l-0.04308,-0.04903l-0.10884,-0.03425l-0.11031,-0.2152l-0.16093,-0.18318l0.00396,-0.04065l-0.0635,-0.03033l-0.09029,-0.2663l-0.14169,-0.24498l0.02803,-0.09021l-0.0191,-0.05634l-0.1153,-0.02331l-0.53621,-0.09593l-0.17238,-0.00685l-0.65414,-0.18575l-0.0715,0.00194l-0.03375,-0.03183l-0.045,-0.01278l-0.03393,-0.06165l-0.49055,-0.46263l-0.18436,-0.28638l-0.00832,-0.02467l-0.19185,-0.15232l-0.06488,-0.08389l-0.02578,-0.02295l-0.00034,-0.01081l-0.2259,-0.29206l-0.01449,-0.01501l-0.15145,-0.10572l-0.10545,-0.12003l-0.13618,-0.08596l-0.18678,-0.19346l-0.06668,-0.1153l-0.10079,-0.08919l-0.89195,-1.29227l-0.02105,-0.00944l-0.14748,-0.40159l-0.14992,-0.40077l0.01017,-0.01992l-0.0433,-0.42332l-0.06418,-0.13382l-0.00046,-0.00226l-0.00184,-0.00144l-0.06011,-0.07652l-0.45246,-0.12849l-2.61647,-0.55956l-0.02309,-0.01109l-0.0256,-0.00009l-1.78897,-0.43864l-0.96358,-0.20914l-0.8111,-0.11115l-1.45226,-0.05766l-0.13045,-0.03704l-0.13516,0.00511l-0.57245,-0.11575l-0.11648,-0.05434l-0.12779,-0.01464l-0.32289,-0.1182l-3.69031,-0.14653l-0.28286,0.07955l-0.43929,0.15144l-0.14892,0.01374l-0.13698,0.05681l-0.33499,0.05142l-0.82842,0.2856l-0.17464,0.01611l-0.16285,0.06153l-0.30041,0.03648l-0.59095,0.29086l-0.01248,0.01981l-0.41812,0.08425l-0.41647,0.09121l-0.02029,-0.01292l-0.63043,-0.02503l-0.25089,-0.07124l-0.25898,-0.02966l-0.03787,-0.01386l-0.75027,-0.02979l-0.2807,0.20254l-0.10152,0.04062l-0.08003,0.07261l-0.4528,0.24184l-0.51395,0.30673l-0.16535,0.11159l-0.00707,0.00857l0.05836,0.76079l-0.00233,0.01313l0.0041,0.01281l0.06673,1.1189l-0.01279,0.06532l0.01498,0.0653l-0.03774,1.44713l0.00811,0.02406l-0.00917,0.01659l-0.0024,0.09193l-0.22285,0.77706l-0.35473,0.17991l-0.17743,0.32088l-0.481,0.01305l-0.42393,0.21501l-0.32314,-0.19474l-0.40249,0.01092l-0.43683,-0.41196l-0.04247,0.07213l-0.00679,0.00157l-0.00469,0.0071l-0.14687,0.51213l-1.4371,0.72885l-1.39615,-0.84135l-0.1819,-0.79313l0.00759,-0.29129l-0.01168,-0.02163l0.01325,-0.03849l0.00538,-0.20614l0.11738,-0.40929l-0.11295,-0.04135c-0.26727,-0.09104 -0.50287,-0.24722 -0.68702,-0.44809l-0.04073,-0.0272l-0.00429,-0.02402c-0.24077,-0.28572 -0.38155,-0.65239 -0.37126,-1.04712zM358.61975,159.50075l-0.22247,-0.05225l-0.0338,-0.00683l-0.10202,0.13908l0.51758,0.02055zM362.05743,160.52147l-0.05709,-0.03034l0.01909,0.01553zM362.32851,160.66551l-0.10128,-0.05381l0.04538,0.03168z" fill-opacity="0.21961" fill="#171c12" stroke-width="0.5"/><g stroke-width="0"><g><path d="M364.22954,144.82434l-2.97273,8.85122l-1.73649,0.6522l-1.92417,-8.1893z" fill="#543e31"/><path d="M364.22954,144.82434l-0.91583,2.72686l-5.71755,-1.41274z" fill="#654a3a"/></g><path d="M336.82015,154.9217c1.30113,-6.45074 7.48755,-9.16737 15.41175,-7.34427c7.80238,1.79507 11.00928,3.5761 9.86399,9.78821c-0.45195,0.20485 -0.91356,0.38506 -1.29052,0.44725c-0.63133,0.10415 -1.03602,0.03379 -1.64971,0.25085c-0.52026,0.00906 -1.98023,-0.37941 -2.35577,-0.15107c-0.75303,0.45786 -0.42573,1.11032 -1.48334,1.18734c-0.64723,0.24494 -1.28849,0.04689 -1.91023,0.23593c-0.90418,0.27491 -0.93042,1.1514 -2.11695,1.12229c-1.1605,0.00139 -0.86556,0.87773 -1.35445,1.62103c-0.40833,0.62081 -1.12624,0.73997 -1.76717,1.0512c-0.1748,1.52136 -0.45645,-0.54956 -0.97071,-0.32887c-0.4675,0.20062 -0.339,1.33797 -0.65669,1.54795c-0.20207,0.13356 -0.32042,0.08621 -0.48287,0.3777c-0.71834,1.28848 -2.17203,2.15639 -2.56054,3.46848c-0.34671,1.17092 -0.03779,-0.48826 -0.63301,-0.46215c-0.10893,0.00478 -0.94992,1.30844 -1.16089,1.42982c-0.12391,0.0713 -0.19776,0.20634 -0.21919,0.34384c-0.57963,-0.92313 -0.56929,1.68447 -1.18751,0.63202c-0.16855,-0.28676 -0.54098,-1.168 -0.86029,-1.29753c-0.16116,-0.06538 -0.28063,-0.07311 -0.37033,-0.04006c-1.39658,-4.00489 -3.04192,-9.93198 -2.2456,-13.87997z" fill="#313e28"/><path d="M383.93054,156.79227c0.58434,3.97163 -1.3314,9.69676 -2.92646,13.58143c-0.01349,0.00163 -0.02483,0.0001 -0.03369,-0.00501c-0.62216,-0.92428 -1.01664,0.63858 -1.26317,0.88904c-0.1925,0.19557 -0.07966,-0.73489 -0.36051,-0.74453c-0.19106,-0.00656 -0.29902,0.50315 -0.4276,0.36403c-0.17705,-0.19157 -0.25122,-0.64497 -0.52143,-0.90787c-0.31765,0.02619 -0.78509,-1.9133 -1.24963,-2.24044c-0.43279,-0.30478 -1.06086,0.36846 -1.57449,0.35017c-0.02676,-0.37749 -0.26289,-1.73885 -0.54158,-2.00399c-0.60822,-0.57865 -1.54667,-0.35258 -1.73173,-1.18344c-0.44517,-0.63913 -1.43606,-1.44036 -2.05993,-1.87241c-0.52249,-0.36184 -1.08853,0.17554 -1.59799,-0.26908c-0.83434,-1.62165 -2.03188,-1.9623 -3.74138,-2.03042c-0.23304,-0.00934 -0.67538,0.04895 -0.936,-0.02699c-0.05878,-0.03038 -0.11741,-0.0608 -0.17587,-0.09123c-0.42609,-0.31734 -0.44459,-1.02516 -1.04932,-1.21307c-0.31494,-0.09786 -0.79619,-0.10617 -1.22248,-0.08373c-1.36606,-0.88939 -3.79011,-1.0601 -3.89611,-1.78056c-0.96232,-6.54061 2.30943,-8.09289 10.31223,-9.28358c8.0028,-1.19069 14.03486,2.01109 14.99719,8.5517z" fill="#415235"/></g></g><g stroke-width="0"><g><g><path d="M324.55333,169.70015c0.41329,-15.84719 13.99433,-28.16792 30.33409,-27.51913c16.33976,0.64879 29.25071,14.02143 28.83742,29.86861c-0.41329,15.84719 -13.99433,28.16792 -30.33409,27.51913c-16.33976,-0.64879 -29.25071,-14.02142 -28.83741,-29.86861z" fill="url(#color-1)"/><path d="M343.1814,170.4398c0.15307,-5.86933 5.18309,-10.43256 11.23485,-10.19227c6.05176,0.2403 10.8336,5.19312 10.68053,11.06245c-0.15307,5.86933 -5.18309,10.43257 -11.23485,10.19227c-6.05176,-0.24029 -10.8336,-5.19312 -10.68053,-11.06245z" fill="url(#color-2)"/><path d="M348.782,170.66218c0.07483,-2.86945 2.53395,-5.10037 5.49259,-4.98289c2.95864,0.11748 5.29643,2.53886 5.22159,5.40831c-0.07483,2.86945 -2.53395,5.10037 -5.49259,4.98289c-2.95864,-0.11748 -5.29643,-2.53886 -5.22159,-5.40831z" fill="url(#color-3)"/></g><g><path d="M354.7029,171.60865c0,0 -0.54809,8.12018 -0.69618,8.1143c-0.14723,-0.00584 -0.27194,-8.15274 -0.27194,-8.15274c0,0 0.61666,-8.11746 0.69619,-8.1143c0.08277,0.00329 0.27194,8.15274 0.27194,8.15274z" fill-opacity="0.20392" fill="#e3ffe5"/><path d="M354.40036,171.59663c0,0 -0.32709,7.706 -0.38263,7.7038c-0.05521,-0.00219 0.01958,-7.71821 0.01958,-7.71821c0,0 0.3528,-7.70498 0.38263,-7.7038c0.03104,0.00123 -0.01958,7.71821 -0.01958,7.71821z" fill="#e2ffe4"/></g></g><g><g><path d="M336.27514,170.61702c0.41329,-15.84719 13.99433,-28.16792 30.33409,-27.51913c16.33976,0.64879 29.25071,14.02143 28.83741,29.86862c-0.41329,15.84719 -13.99433,28.16792 -30.33409,27.51913c-16.33976,-0.64879 -29.25071,-14.02142 -28.83742,-29.86861z" fill="url(#color-4)"/><path d="M354.90321,171.35667c0.15307,-5.86933 5.18308,-10.43257 11.23485,-10.19227c6.05176,0.2403 10.8336,5.19312 10.68053,11.06245c-0.15307,5.86933 -5.18308,10.43257 -11.23485,10.19227c-6.05176,-0.24029 -10.8336,-5.19312 -10.68053,-11.06245z" fill="url(#color-5)"/><path d="M360.50381,171.57905c0.07483,-2.86945 2.53395,-5.10036 5.49259,-4.98289c2.95864,0.11748 5.29643,2.53886 5.22159,5.40831c-0.07483,2.86945 -2.53396,5.10037 -5.49259,4.98289c-2.95864,-0.11748 -5.29643,-2.53886 -5.22159,-5.40831z" fill="url(#color-6)"/></g><g><path d="M366.42471,172.52552c0,0 -0.54809,8.12018 -0.69618,8.1143c-0.14723,-0.00584 -0.27194,-8.15274 -0.27194,-8.15274c0,0 0.61665,-8.11746 0.69619,-8.1143c0.08277,0.00329 0.27194,8.15274 0.27194,8.15274z" fill-opacity="0.20392" fill="#e3ffe5"/><path d="M366.12218,172.51351c0,0 -0.32709,7.706 -0.38263,7.7038c-0.05521,-0.00219 0.01958,-7.71821 0.01958,-7.71821c0,0 0.3528,-7.70498 0.38263,-7.70379c0.03104,0.00123 -0.01958,7.71821 -0.01958,7.71821z" fill="#e2ffe4"/></g></g></g></g></g></g></svg>