<svg version="1.1" xmlns="http://www.w3.org/2000/svg" xmlns:xlink="http://www.w3.org/1999/xlink" width="789.5093" height="869.92595" viewBox="0,0,789.5093,869.92595"><defs><radialGradient cx="334.62323" cy="200.83042" r="259.05263" gradientUnits="userSpaceOnUse" id="color-1"><stop offset="0" stop-color="#000000"/><stop offset="1" stop-color="#121212"/></radialGradient><radialGradient cx="148.55518" cy="-30.91552" r="94.67556" gradientUnits="userSpaceOnUse" id="color-2"><stop offset="0" stop-color="#0e0e0e"/><stop offset="1" stop-color="#1f1f1f"/></radialGradient><radialGradient cx="355.70043" cy="198.25612" r="259.05263" gradientUnits="userSpaceOnUse" id="color-3"><stop offset="0" stop-color="#000000"/><stop offset="1" stop-color="#1f1f1f"/></radialGradient><radialGradient cx="382.02689" cy="435.69632" r="185.2651" gradientUnits="userSpaceOnUse" id="color-4"><stop offset="0" stop-color="#383027"/><stop offset="1" stop-color="#4e4337"/></radialGradient><radialGradient cx="360.00002" cy="177.81483" r="367.5075" gradientUnits="userSpaceOnUse" id="color-5"><stop offset="0" stop-color="#000000" stop-opacity="0.83922"/><stop offset="1" stop-color="#000000" stop-opacity="0"/></radialGradient><radialGradient cx="360.00002" cy="177.81483" r="367.50751" gradientUnits="userSpaceOnUse" id="color-6"><stop offset="0" stop-color="#000000" stop-opacity="0"/><stop offset="1" stop-color="#000000"/></radialGradient><linearGradient x1="-5.24204" y1="181.0581" x2="150.65902" y2="181.0581" gradientUnits="userSpaceOnUse" id="color-7"><stop offset="0" stop-color="#000000"/><stop offset="1" stop-color="#000000" stop-opacity="0"/></linearGradient><linearGradient x1="727.50754" y1="177.81485" x2="571.60646" y2="177.81485" gradientUnits="userSpaceOnUse" id="color-8"><stop offset="0" stop-color="#000000"/><stop offset="1" stop-color="#000000" stop-opacity="0"/></linearGradient><linearGradient x1="360.24745" y1="-17.14012" x2="360.24745" y2="110.48753" gradientUnits="userSpaceOnUse" id="color-9"><stop offset="0" stop-color="#000000"/><stop offset="1" stop-color="#000000" stop-opacity="0"/></linearGradient><linearGradient x1="359.27229" y1="377.38047" x2="359.27229" y2="249.75283" gradientUnits="userSpaceOnUse" id="color-10"><stop offset="0" stop-color="#000000"/><stop offset="1" stop-color="#000000" stop-opacity="0"/></linearGradient></defs><g transform="translate(34.75465,140.15283)"><g data-paper-data="{&quot;isPaintingLayer&quot;:true}" fill-rule="nonzero" stroke-linecap="butt" stroke-linejoin="miter" stroke-miterlimit="10" stroke-dasharray="" stroke-dashoffset="0" style="mix-blend-mode: normal"><path d="M-34.75465,30v-60h789.5093v60z" data-paper-data="{&quot;index&quot;:null}" fill="#000000" stroke-opacity="0.50196" stroke="#0d0d0d" stroke-width="0"/><path d="M-34.75465,390v-60h789.5093v60z" data-paper-data="{&quot;index&quot;:null}" fill="#000000" stroke-opacity="0.50196" stroke="#0d0d0d" stroke-width="0"/><path d="M-13.82132,376.6967v-387.38739h744.74474v387.38739z" fill="#00082f" stroke="none" stroke-width="NaN"/><path d="M138.92317,485.71047c0,0 -51.34039,-420.34856 -59.17717,-484.51198c-1.94261,-15.90509 8.97004,-31.31124 24.29107,-33.1825c47.69367,-5.82519 303.62149,-37.08363 396.25124,-48.39718c21.35134,-2.60779 31.92471,11.80355 33.92867,28.21086c7.93617,64.97737 58.91972,482.40427 58.91972,482.40427z" fill="url(#color-1)" stroke="#c7c7c7" stroke-width="0"/><path d="M133.86696,51.11564c0,0 -16.24475,-133.00374 -21.03442,-172.21902c-2.48459,-20.34246 44.83806,-26.96208 47.26922,-7.05686c4.76941,39.04952 21.18889,173.48364 21.18889,173.48364z" fill="url(#color-2)" stroke="#c7c7c7" stroke-width="0"/><path d="M160.00036,483.13615c0,0 -51.34039,-420.34859 -59.17717,-484.51198c-1.94261,-15.90509 8.97004,-31.31124 24.29107,-33.1825c47.69367,-5.82519 303.62149,-37.08363 396.25124,-48.39718c21.35134,-2.60779 31.92471,11.80355 33.92867,28.21086c7.93617,64.97737 58.91972,482.40427 58.91972,482.40427z" fill="url(#color-3)" stroke="#c7c7c7" stroke-width="0"/><path d="M194.29502,369.85025l-43.89213,-359.36616l359.36616,-43.89213l43.89213,359.36616z" fill="#000000" stroke="#000000" stroke-width="0"/><path d="M204.24238,508.2156l-12.22803,-100.11667c0,0 120.54172,-25.4185 181.03057,-32.80645c62.06938,-7.58101 186.76646,-12.11542 186.76646,-12.11542l12.22803,100.11667z" fill="url(#color-4)" stroke="#c7c7c7" stroke-width="0"/><text transform="translate(264.38008,55.98078) rotate(-7.73129) scale(1.28501,1.28501)" font-size="40" xml:space="preserve" fill="#dcdcdc" fill-rule="nonzero" stroke="none" stroke-width="1" stroke-linecap="butt" stroke-linejoin="miter" stroke-miterlimit="10" stroke-dasharray="" stroke-dashoffset="0" font-family="&quot;Century Gothic&quot;, Sans Serif" font-weight="normal" text-anchor="start" style="mix-blend-mode: normal"><tspan x="0" dy="0">HAND</tspan></text><text transform="translate(329.12334,345.29368) rotate(-7.42296) scale(1.40454,1.40454)" font-size="40" xml:space="preserve" fill="#dcdcdc" fill-rule="nonzero" stroke="none" stroke-width="1" stroke-linecap="butt" stroke-linejoin="miter" stroke-miterlimit="10" stroke-dasharray="" stroke-dashoffset="0" font-family="&quot;Century Gothic&quot;, Sans Serif" font-weight="normal" text-anchor="start" style="mix-blend-mode: normal"><tspan x="0" dy="0">□■□</tspan></text><text transform="translate(436.77217,18.19561) rotate(-7.73145) scale(0.5098,0.5098)" font-size="40" xml:space="preserve" fill="#5f5f5f" fill-rule="nonzero" stroke="none" stroke-width="1" stroke-linecap="butt" stroke-linejoin="miter" stroke-miterlimit="10" stroke-dasharray="" stroke-dashoffset="0" font-family="&quot;Century Gothic&quot;, Sans Serif" font-weight="normal" text-anchor="start" style="mix-blend-mode: normal"><tspan x="0" dy="0">SCAN</tspan></text><text transform="translate(178.84181,54.91938) rotate(-7.73145) scale(0.5098,0.5098)" font-size="40" xml:space="preserve" fill="#5f5f5f" fill-rule="nonzero" stroke="none" stroke-width="1" stroke-linecap="butt" stroke-linejoin="miter" stroke-miterlimit="10" stroke-dasharray="" stroke-dashoffset="0" font-family="&quot;Century Gothic&quot;, Sans Serif" font-weight="normal" text-anchor="start" style="mix-blend-mode: normal"><tspan x="0" dy="0">FLASH</tspan></text><path d="M322.66614,198.16278v-59.88336h58.73177v59.88339z" fill="#000000" stroke="#dcdcdc" stroke-width="0"/><g stroke-width="1"><text transform="translate(278.30411,90.368) rotate(-7.73094) scale(0.63433,0.63433)" font-size="40" xml:space="preserve" fill="#dcdcdc" fill-rule="nonzero" stroke="none" stroke-width="1" stroke-linecap="butt" stroke-linejoin="miter" stroke-miterlimit="10" stroke-dasharray="" stroke-dashoffset="0" font-family="&quot;VCR OSD Mono&quot;, Pixel" font-weight="normal" text-anchor="start" style="mix-blend-mode: normal"><tspan x="0" dy="0">[ GUN ]</tspan></text><g fill="none" stroke="#dcdcdc"><path d="M312.98169,282.70218c0,0 -12.80176,-33.28503 -17.6875,-49.97397c-3.30802,-11.29957 2.31347,-4.3215 -2.3554,-15.21524c-5.00287,-11.67297 -16.46253,-18.43254 -18.3058,-23.7592c-2.62301,-7.57986 2.25871,-15.34329 2.25871,-15.34329c0,0 8.41442,-1.87455 14.84393,-6.38213c15.21072,-10.66395 74.71214,-59.85885 97.46471,-76.80956c5.28662,-3.93852 10.7368,-3.07304 10.7368,-3.07304c0,0 7.21636,16.03385 12.4358,23.47869c4.84159,6.90588 17.83253,19.69515 17.83253,19.69515c0,0 -0.49254,6.00287 -6.09592,8.94187c-18.98398,9.95707 -64.91595,29.9845 -75.92872,51.9176c-9.83697,19.59143 34.96048,34.94424 26.3186,45.80948c-11.31693,14.22846 -61.51769,40.7136 -61.51769,40.7136z"/><path d="M374.59955,179.09c7.94042,11.326 5.19589,26.94458 -6.13011,34.885c-3.16788,2.22093 -6.67155,3.60597 -10.24911,4.20111c-2.49428,0.41495 -2.58872,-2.98978 -2.07812,-3.39449c10.65775,-8.44741 14.78852,-22.35602 11.19191,-34.89477c-0.98261,-3.42563 2.21189,-6.5526 4.99179,-3.5938c0.81222,0.86449 1.57282,1.79726 2.27364,2.79691z"/></g></g><path d="M393.27034,311.44946c79.70046,9.43007 -26.38676,-152.76141 53.32198,-178.45531c43.2423,-13.93904 141.76486,115.26501 177.2757,209.04098c32.57661,86.028 -6.42976,183.81492 -10.01456,207.34721c-17.50671,114.92123 -144.64898,194.71918 -283.98044,178.23381c-42.71506,-5.05404 -255.81757,-44.95885 -310.00474,-124.44635c-58.18951,-85.35883 44.65341,-212.5029 66.77699,-274.48107c24.47504,-68.56568 255.87911,-23.24357 306.62506,-17.23927z" fill="#ffffff" stroke="none" stroke-width="0"/><g stroke-width="0"><path d="M-34.75465,30v-60h789.5093v60z" data-paper-data="{&quot;index&quot;:null}" fill="#000000" stroke-opacity="0.50196" stroke="#0d0d0d"/><path d="M-34.75465,390v-60h789.5093v60z" data-paper-data="{&quot;index&quot;:null}" fill="#000000" stroke-opacity="0.50196" stroke="#0d0d0d"/><g><g stroke="#000000"><path d="M-7.50749,364.00104v-372.37237h735.015v372.37237z" fill="url(#color-5)"/><path d="M-7.50748,364.00104v-372.37237h735.015v372.37237z" fill="url(#color-6)"/></g><g stroke="none"><path d="M-5.24204,376.25329v-390.39039h155.90105v390.39039z" fill="url(#color-7)"/><path d="M571.60646,373.01003v-390.39039h155.90105v390.39039z" fill="url(#color-8)"/><path d="M-6.53231,110.48753v-127.62762h733.55954v127.62763z" fill="url(#color-9)"/><path d="M726.05206,249.75283v127.62762h-733.55954v-127.62762z" fill="url(#color-10)"/></g></g></g></g></g></svg>