<svg version="1.1" xmlns="http://www.w3.org/2000/svg" xmlns:xlink="http://www.w3.org/1999/xlink" width="751" height="707.57093" viewBox="0,0,751,707.57093"><defs><radialGradient cx="360" cy="177.81483" r="367.5075" gradientUnits="userSpaceOnUse" id="color-1"><stop offset="0" stop-color="#000000" stop-opacity="0.83922"/><stop offset="1" stop-color="#000000" stop-opacity="0"/></radialGradient><radialGradient cx="360" cy="177.81483" r="367.50751" gradientUnits="userSpaceOnUse" id="color-2"><stop offset="0" stop-color="#000000" stop-opacity="0"/><stop offset="1" stop-color="#000000"/></radialGradient><linearGradient x1="-5.24206" y1="181.0581" x2="150.659" y2="181.0581" gradientUnits="userSpaceOnUse" id="color-3"><stop offset="0" stop-color="#000000"/><stop offset="1" stop-color="#000000" stop-opacity="0"/></linearGradient><linearGradient x1="727.50752" y1="177.81485" x2="571.60646" y2="177.81485" gradientUnits="userSpaceOnUse" id="color-4"><stop offset="0" stop-color="#000000"/><stop offset="1" stop-color="#000000" stop-opacity="0"/></linearGradient><linearGradient x1="360.24743" y1="-17.14012" x2="360.24743" y2="110.48753" gradientUnits="userSpaceOnUse" id="color-5"><stop offset="0" stop-color="#000000"/><stop offset="1" stop-color="#000000" stop-opacity="0"/></linearGradient><linearGradient x1="359.27227" y1="377.38047" x2="359.27227" y2="249.75283" gradientUnits="userSpaceOnUse" id="color-6"><stop offset="0" stop-color="#000000"/><stop offset="1" stop-color="#000000" stop-opacity="0"/></linearGradient></defs><g transform="translate(15.5,30)"><g data-paper-data="{&quot;isPaintingLayer&quot;:true}" fill-rule="nonzero" stroke-linecap="butt" stroke-linejoin="miter" stroke-miterlimit="10" stroke-dasharray="" stroke-dashoffset="0" style="mix-blend-mode: normal"><path d="M-7.11712,370.42353v-384.38438h732.73273v384.38438z" fill="#07010e" stroke="none" stroke-width="0"/><g stroke="none"><g stroke-width="0"><g><g><g><path d="M254.89496,630.72748c-2.43653,-4.93278 -0.41293,-10.90681 4.51985,-13.34336c4.93278,-2.43653 10.90681,-0.41293 13.34336,4.51985c2.43653,4.93278 0.41293,10.90681 -4.51985,13.34336c-4.93278,2.43653 -10.90681,0.41293 -13.34336,-4.51985z" fill="#6e2d2a"/><path d="M281.25195,662.63478c-13.15703,6.49889 -24.085,-26.26635 -24.085,-26.26635c0,0 -0.23479,-4.8228 7.5983,-9.067c6.12483,-3.31863 11.4299,-0.33194 11.4299,-0.33194c0,0 18.21383,29.16641 5.0568,35.6653z" fill="#893834"/></g><path d="M204.30715,656.18446l3.64342,-25.29306l55.02432,7.92616l-3.64342,25.29306z" fill="#6e2d2a"/><path d="M265.19299,640.44984c-2.35326,16.33659 -61.94199,7.75295 -59.58874,-8.58365c2.35326,-16.33659 13.37871,-31.76735 40.97978,-27.79147c16.45498,2.37031 20.96221,20.03852 18.60895,36.37511z" fill="#893834"/><path d="M262.86394,651.71051c-3.51314,24.38866 -3.22374,27.19239 -19.3669,25.43488c-6.80344,-0.7407 -6.796,-5.66759 -6.796,-5.66759c0,0 0.06972,7.15657 -24.95325,0.30574c-14.74426,-4.0367 -7.89129,-22.88137 -7.08809,-28.45724c1.72231,-11.9565 -2.26683,5.61277 28.73161,9.60863c27.76741,3.57937 31.19492,-13.18092 29.47261,-1.22441z" fill="#893834"/></g><g><path d="M239.60053,505.47255c2.28022,-11.94392 13.8112,-19.77789 25.75514,-17.49766c11.94392,2.28022 19.77789,13.8112 17.49764,25.75514c-2.28022,11.94392 -13.8112,19.77789 -25.75512,17.49767c-11.94392,-2.28025 -19.77789,-13.8112 -17.49767,-25.75512z" fill="#6e2d2a"/><path d="M214.98332,605.54771l16.50583,-86.45789c0,0 2.69974,-10.60848 29.34788,-5.52102c25.34817,4.83927 24.54083,15.80902 24.54083,15.80902l-16.50581,86.45789c0,0 -5.01171,7.3008 -28.06964,2.67509c-24.60383,-4.93583 -25.81908,-12.96307 -25.81908,-12.96307z" fill="#893834"/></g><g><path d="M292.6581,402.60777c5.68759,-10.74745 19.01085,-14.8493 29.75832,-9.16169c10.74745,5.68759 14.8493,19.01085 9.16169,29.7583c-5.68759,10.74745 -19.01085,14.8493 -29.75832,9.16169c-10.74745,-5.68759 -14.8493,-19.01085 -9.16169,-29.7583z" fill="#6e2d2a"/><path d="M239.73441,491.03929l41.17056,-77.79713c0,0 5.69637,-9.34771 29.6751,3.34192c22.80897,12.07059 18.8154,22.31943 18.8154,22.31943l-41.17054,77.79713c0,0 -6.93494,5.50688 -27.61739,-5.68694c-22.0691,-11.9443 -20.87312,-19.97443 -20.87312,-19.97443z" fill="#893834"/></g></g><g><g><g><path d="M611.00838,465.14628c-5.02026,2.25085 -10.91462,0.00581 -13.16545,-5.01444c-2.25085,-5.02026 -0.0058,-10.91462 5.01444,-13.16548c5.02026,-2.25085 10.91462,-0.0058 13.16547,5.01445c2.25086,5.02024 0.00581,10.91461 -5.01445,13.16546z" fill="#6e2d2a"/><path d="M599.55896,466.00771c0,0 1.07652,-5.99211 7.53603,-8.60008c8.2611,-3.33535 11.82954,-0.08251 11.82954,-0.08251c0,0 18.29883,29.29394 4.90853,35.29752c-13.3903,6.00358 -24.27408,-26.61492 -24.27408,-26.61492z" fill="#893834"/></g><path d="M638.93269,476.66387l-21.81945,-13.30132l28.93662,-47.46759l21.81945,13.30132z" fill="#6e2d2a"/><path d="M600.76942,428.59752c14.51507,-23.81049 33.4334,-22.48177 47.52642,-13.89055c14.09302,8.59122 -17.24398,59.99637 -31.33699,51.40515c-14.09302,-8.59122 -24.8429,-23.31945 -16.18943,-37.5146z" fill="#893834"/><path d="M646.83946,449.54792c16.66357,-26.4423 0.57833,-34.55754 10.89279,-28.26976c4.81011,2.93228 23.70267,9.65208 17.42347,23.58979c-10.65664,23.65415 -16.12934,19.04212 -16.12934,19.04212c0,0 3.80295,3.13238 0.04062,8.84902c-8.92729,13.56444 -10.90438,11.55554 -31.94364,-1.27016c-10.31446,-6.28778 4.78941,1.74514 19.71612,-21.94103z" fill="#893834"/></g><g><path d="M537.91351,390.30424c-5.84966,10.66012 -19.23347,14.55978 -29.89362,8.71013c-10.66012,-5.84966 -14.55979,-19.23348 -8.71012,-29.89362c5.84966,-10.66012 19.23348,-14.5598 29.89363,-8.71014c10.66012,5.84965 14.55978,19.2335 8.71012,29.89362z" fill="#6e2d2a"/><path d="M615.58092,433.33532c-11.12043,20.722 -19.94088,19.93549 -19.94088,19.93549l-77.16493,-42.34362c0,0 -8.97099,-6.36463 3.44354,-28.98827c13.0512,-23.78386 22.94901,-19.1082 22.94901,-19.1082l77.16494,42.34362c0,0 5.41432,6.04969 -6.45166,28.16099z" fill="#893834"/></g><g><path d="M433.21474,361.8122c-2.46081,11.90804 -14.10904,19.56653 -26.01706,17.10573c-11.90803,-2.46078 -19.56653,-14.10904 -17.10575,-26.01707c2.4608,-11.90802 14.10904,-19.56653 26.01706,-17.10573c11.90803,2.46078 19.56653,14.10904 17.10575,26.01707z" fill="#6e2d2a"/><path d="M520.09508,380.13454c-4.54392,23.07419 -13.20638,24.91291 -13.20638,24.91291l-86.1981,-17.81285c0,0 -10.44463,-3.44914 -5.22218,-28.72116c5.4903,-26.56807 16.32483,-25.0056 16.32483,-25.0056l86.19809,17.81283c0,0 6.95232,4.19269 2.10375,28.81387z" fill="#893834"/></g></g><g><path d="M452.40136,479.68857c4.99553,13.32727 -11.61454,38.35082 -39.725,48.88761c-28.11046,10.53679 -57.07644,2.59674 -62.07197,-10.73053c-4.99553,-13.32727 13.74282,-32.6729 41.85328,-43.20969c28.11046,-10.53679 54.94816,-8.27466 59.94369,5.05262z" fill="#893834"/><g><path d="M328.07992,469.27957c0,0 -57.89349,-90.64556 18.62339,-117.88307c75.74762,-26.96368 89.34656,75.10333 89.34656,75.10333c0,0 54.10923,54.28824 -27.57691,85.22065c-84.88289,32.14295 -80.39301,-42.44092 -80.39301,-42.44092z" fill="#a3433e"/><g fill="#893834"><g><path d="M399.90749,394.84357c-15.79583,5.92083 -30.91155,4.5561 -33.76192,-3.04822c-2.85036,-7.60432 7.644,-18.56861 23.43983,-24.48944c7.83997,-2.9387 5.75013,13.37521 5.75013,13.37521c0,0 12.52781,11.18031 4.57196,14.16245z"/><path d="M369.44078,390.5602c-0.46983,-1.25344 0.16542,-2.65048 1.41887,-3.12031c1.25344,-0.46983 17.04044,-3.79889 17.04044,-3.79889c0,0 -14.08555,7.86822 -15.33899,8.33806c-1.25344,0.46983 -2.65047,-0.1654 -3.12031,-1.41886z"/></g><g><path d="M327.09138,406.26143c0,0 -12.29831,-10.9207 -4.45834,-13.8594c15.79583,-5.92083 30.91156,-4.55612 33.76193,3.04819c2.85036,7.60432 -7.644,18.56862 -23.43985,24.48945c-7.95586,2.98214 -5.86374,-13.67825 -5.86374,-13.67825z"/><path d="M351.6809,399.80569c-1.25344,0.46983 -17.04043,3.79889 -17.04043,3.79889c0,0 14.08555,-7.86823 15.33899,-8.33806c1.25344,-0.46983 2.65046,0.16541 3.12031,1.41887c0.46983,1.25344 -0.16542,2.65048 -1.41887,3.12031z"/></g><path d="M348.10667,398.55697c-2.72508,-7.27007 0.95936,-15.37271 8.22942,-18.09779c7.27007,-2.72508 15.37271,0.95936 18.09779,8.22943c2.72508,7.27007 -0.95935,15.37271 -8.22942,18.09778c-7.27007,2.72508 -15.37271,-0.95936 -18.09779,-8.22942z"/></g><g><g><path d="M402.57626,390.0615c-17.64155,6.61268 -34.52355,5.08849 -37.70698,-3.4044c-3.18342,-8.49287 8.53722,-20.73835 26.17877,-27.35102c8.75606,-3.28208 6.42203,14.93808 6.42203,14.93808c0,0 13.99167,12.48672 5.10617,15.81732z" fill="#2a2119"/><path d="M368.54954,385.27761c-0.52475,-1.39993 0.18473,-2.96017 1.58466,-3.48492c1.39993,-0.52475 19.0316,-4.24278 19.0316,-4.24278c0,0 -15.73142,8.78761 -17.13135,9.31235c-1.39993,0.52475 -2.96016,-0.18473 -3.48491,-1.58466z" fill="#1e1812"/></g><g><path d="M321.25166,402.8135c0,0 -13.73535,-12.19679 -4.97929,-15.47887c17.64155,-6.61268 34.52353,-5.08848 37.70696,3.40438c3.18342,8.49287 -8.53722,20.73833 -26.17876,27.35099c-8.8855,3.33059 -6.54892,-15.27654 -6.54892,-15.27654z" fill="#2a2119"/><path d="M348.71443,395.60343c-1.39993,0.52475 -19.0316,4.24279 -19.0316,4.24279c0,0 15.73144,-8.78763 17.13135,-9.31236c1.39993,-0.52475 2.96016,0.18473 3.48491,1.58466c0.52475,1.39993 -0.18473,2.96016 -1.58466,3.48491z" fill="#1e1812"/></g><path d="M344.72256,394.2088c-3.04349,-8.11955 1.07148,-17.169 9.19102,-20.21249c8.11955,-3.04349 17.16899,1.07147 20.21248,9.19102c3.04349,8.11955 -1.07147,17.16899 -9.19102,20.21249c-8.11955,3.04349 -17.169,-1.07147 -20.21249,-9.19102z" fill="#1e1812"/></g><g><path d="M365.78776,422.43564c-1.28936,-3.4398 0.45391,-7.27357 3.89374,-8.56293c3.4398,-1.28936 7.27356,0.45391 8.56293,3.89374c1.28936,3.4398 -0.45393,7.27357 -3.89373,8.56293c-3.4398,1.28936 -7.27357,-0.45391 -8.56293,-3.89373z" fill="#893834"/><path d="M364.91907,420.11811c-1.28936,-3.4398 0.45391,-7.27357 3.89374,-8.56293c3.4398,-1.28936 7.27356,0.45391 8.56293,3.89374c1.28936,3.4398 -0.45393,7.27357 -3.89373,8.56293c-3.4398,1.28936 -7.27357,-0.45391 -8.56293,-3.89373z" fill="#1e1812"/></g><g><path d="M372.73725,440.97576c-1.28936,-3.4398 0.45391,-7.27356 3.89373,-8.56293c3.4398,-1.28936 7.27356,0.45391 8.56293,3.89373c1.28936,3.4398 -0.45393,7.27357 -3.89373,8.56293c-3.4398,1.28936 -7.27356,-0.45391 -8.56293,-3.89373z" fill="#893834"/><path d="M371.86857,438.65826c-1.28936,-3.4398 0.45391,-7.27357 3.89374,-8.56293c3.4398,-1.28936 7.27356,0.45391 8.56293,3.89374c1.28936,3.4398 -0.45393,7.27357 -3.89373,8.56293c-3.4398,1.28936 -7.27357,-0.45391 -8.56293,-3.89373z" fill="#1e1812"/></g><path d="M377.09061,352.53361c1.8366,4.89974 -8.93106,13.46591 -24.05024,19.13312c-15.11918,5.6672 -28.86452,6.28936 -30.70112,1.38962c-1.8366,-4.89974 8.93105,-13.46591 24.05023,-19.13311c15.11918,-5.6672 28.86453,-6.28936 30.70112,-1.38962z" fill="#6e2d2a"/><path d="M359.17834,357.70595c1.04948,2.79984 -2.56355,6.74276 -8.06989,8.80673c-5.50636,2.06398 -10.82091,1.46743 -11.87039,-1.33241c-1.04948,-2.79984 2.56355,-6.74276 8.06989,-8.80673c5.50636,-2.06398 10.82092,-1.46743 11.8704,1.33242z" fill="#4d201d"/><path d="M359.68507,359.05782c1.04948,2.79984 -2.56355,6.74276 -8.06989,8.80673c-5.50636,2.06398 -10.82091,1.46743 -11.87039,-1.33241c-1.04948,-2.79984 2.56355,-6.74276 8.06989,-8.80673c5.50636,-2.06398 10.82091,-1.46743 11.87039,1.33241z" fill="#0b0404"/></g></g><g><path d="M393.703,323.03666c7.72176,15.19385 3.28585,35.11399 -46.82413,59.6279c-51.1759,25.03535 -68.52913,18.11468 -76.25089,2.92083c-7.72176,-15.19385 13.2624,-37.10553 49.51438,-55.52937c36.25197,-18.42384 65.83888,-22.21321 73.56064,-7.01936z" fill="#893834"/><path d="M386.64127,323.05446c5.8716,11.55334 -13.24489,30.28276 -46.18647,47.02421c-32.94156,16.74143 -59.77817,21.36613 -65.64977,9.81279c-5.8716,-11.55334 13.87,-30.13866 46.81156,-46.88009c32.94158,-16.74145 59.15308,-21.51025 65.02468,-9.95691z" fill="#6e2d2a"/></g><g><path d="M227.72599,255.08239l-27.47294,-27.39066l53.93186,-39.98788l17.91929,34.47423z" fill="#1e1812"/><path d="M282.15339,215.68232c1.78782,2.41123 -10.92286,14.86485 -28.39006,27.81594c-17.4672,12.95109 -33.07649,21.49536 -34.8643,19.08413c-1.78782,-2.41123 10.92286,-14.86485 28.39007,-27.81595c17.46722,-12.9511 33.07647,-21.49534 34.86429,-19.08411z" fill="#2a2119"/><path d="M253.95637,187.39569c1.78782,2.41123 -8.83595,13.31751 -23.72881,24.35985c-14.89288,11.04235 -28.41523,18.03926 -30.20304,15.62802c-1.7878,-2.41122 8.83595,-13.31751 23.72881,-24.35985c14.89288,-11.04235 28.41523,-18.03926 30.20304,-15.62802z" fill="#1e1812"/><path d="M269.05504,227.24482c0.74142,0.99996 -6.55677,7.66746 -16.30097,14.89232c-9.7442,7.22486 -18.24446,12.27113 -18.98587,11.27118c-0.74142,-0.99996 6.55677,-7.66746 16.30097,-14.89232c9.7442,-7.22486 18.24446,-12.27113 18.98587,-11.27118z" fill="#1e1812"/></g><path d="M251.65902,387.91944c0,0 -38.12061,-51.41347 -52.93661,-71.39588c-8.08845,-10.90893 -9.99813,-28.42036 4.71345,-40.00228c15.57524,-12.26185 67.17297,-49.80552 95.67771,-70.94042c16.58102,-12.29403 30.49738,-7.04537 38.90373,4.29231c14.90011,20.09585 54.54889,73.57037 54.54889,73.57037c0,0 6.63333,10.3064 -18.97332,37.14269c-0.55268,-0.62268 -6.05041,-5.44386 -6.05041,-5.44386c0,0 2.99788,6.77028 3.53215,7.49085c0.0774,0.10439 0.16496,0.19684 0.26028,0.27697c-0.94535,0.9561 -1.93022,1.93199 -2.95617,2.92793c-0.55813,-0.57739 -3.42372,-1.91387 -3.42372,-1.91387c0,0 0.41823,3.29109 0.9525,4.01166c0.0388,0.05233 0.08013,0.10165 0.12371,0.14792c-2.2007,2.07547 -11.02922,10.89167 -11.02922,10.89167l-2.42508,-0.6315c0,0 0.34914,1.13377 0.17555,1.26248c-0.22597,0.16755 -0.39594,0.38259 -0.50632,0.62112c-5.01449,4.16049 -10.62884,8.585 -16.91283,13.28474c-4.59797,3.43878 -14.18635,7.93552 -14.18635,7.93552c0,0 0.49365,1.61169 0.22853,1.80826c-0.23236,0.17228 -0.40547,0.39479 -0.51551,0.6414c-6.89211,4.72106 -13.13044,8.6502 -18.77222,11.91003c-0.0301,-0.2772 -0.13206,-0.55029 -0.31012,-0.79045c-0.53427,-0.72057 -4.0418,-2.32018 -4.0418,-2.32018c0,0 0.89814,3.53435 1.43241,4.25492c0.0952,0.1284 0.20573,0.23872 0.3272,0.33028c-38.67593,21.64614 -47.83642,10.63733 -47.83642,10.63733z" fill="#a3433e"/><path d="M242.33,372.79206c-6.83858,-9.22322 -4.90543,-22.24388 4.31778,-29.08244c9.22322,-6.83858 22.24386,-4.90544 29.08244,4.31778c6.83858,9.22322 4.90544,22.24386 -4.31778,29.08244c-9.22322,6.83858 -22.24386,4.90545 -29.08244,-4.31778z" fill="#893834"/><path d="M277.32864,299.82412c13.20317,17.80719 8.22814,34.49844 -5.58267,44.7385c-13.81082,10.24006 -31.2275,10.15118 -44.43068,-7.656c-13.20317,-17.80719 -7.10754,-32.98708 6.70327,-43.22714c13.81082,-10.24006 30.10689,-11.66256 43.31008,6.14464z" fill="#6e2d2a"/><path d="M305.14121,277.34065c3.44303,4.64364 -1.35957,14.03844 -10.72689,20.98385c-9.36732,6.94542 -19.75218,8.81139 -23.19521,4.16775c-3.44303,-4.64364 1.35957,-14.03842 10.72689,-20.98384c9.36732,-6.94542 19.75217,-8.8114 23.19521,-4.16777z" fill="#893834"/><path d="M376.48447,299.20493c-9.22322,6.83858 -22.24388,4.90543 -29.08244,-4.31778c-6.83857,-9.22321 -4.90544,-22.24386 4.31778,-29.08244c9.22322,-6.83858 22.24387,-4.90543 29.08244,4.31778c6.83857,9.22321 4.90543,22.24387 -4.31778,29.08244z" fill="#893834"/><path d="M279.93803,297.88938c9.02238,12.16853 9.55615,23.81596 4.58251,33.2398c-0.7254,1.37445 -3.67227,5.20337 -3.67227,5.20337l-2.59702,5.79165c0,0 -2.66485,-0.40905 -3.89588,0.50369c-13.81082,10.24006 -31.22751,10.15118 -44.43068,-7.65601c-13.20317,-17.80719 -7.10754,-32.98708 6.70327,-43.22714c6.50445,-4.82274 13.56017,-7.68965 20.58441,-7.51301c0.90579,0.02277 2.21666,-3.58039 2.21666,-3.58039l2.74591,3.79517l6.49124,1.44239c0,0 3.42559,3.82404 4.2046,4.45891c2.42847,1.97912 4.7937,4.47526 7.06724,7.54159z" fill="#000000"/><path d="M307.51645,239.18435c13.81082,-10.24006 30.1069,-11.66255 43.31008,6.14465c13.20317,17.80719 8.22814,34.49844 -5.58267,44.7385c-13.81082,10.24006 -31.22751,10.15118 -44.43068,-7.65601c-13.20317,-17.80719 -7.10754,-32.98708 6.70327,-43.22714z" fill="#6e2d2a"/><path d="M304.90706,241.11909c13.81082,-10.24006 30.10689,-11.66256 43.31008,6.14465c13.20317,17.80719 8.22814,34.49844 -5.58267,44.73849c-13.81082,10.24006 -31.2275,10.15118 -44.43068,-7.656c-13.20317,-17.80719 -7.10754,-32.98708 6.70327,-43.22714z" fill="#000000"/><path d="M320.10211,306.91159c2.90877,3.92308 -0.3149,11.24192 -7.20028,16.3471c-6.88539,5.10518 -14.82511,6.06347 -17.73388,2.14039c-2.90877,-3.92308 0.3149,-11.24192 7.20029,-16.3471c6.88539,-5.10518 14.82511,-6.06347 17.73388,-2.14038z" fill="#6e2d2a"/><g fill="#000000"><path d="M334.58111,258.54531c1.11647,1.50579 -2.8184,6.31508 -8.78879,10.74183c-5.97038,4.42675 -11.71542,6.79465 -12.83189,5.28885c-1.11647,-1.50579 2.81839,-6.31508 8.78877,-10.74182c5.97038,-4.42675 11.71543,-6.79466 12.83191,-5.28886z"/><path d="M331.47464,260.8486c6.0041,8.09776 7.42222,17.21968 3.16747,20.37438c-4.25475,3.1547 -12.5712,-0.85245 -18.5753,-8.95021c-6.0041,-8.09776 -7.42222,-17.21968 -3.16747,-20.37438c4.25475,-3.1547 12.5712,0.85245 18.5753,8.95021z"/></g><g fill="#000000"><path d="M253.47055,314.46043c5.97038,-4.42675 11.71541,-6.79465 12.83188,-5.28885c1.11647,1.50579 -2.81839,6.31507 -8.78877,10.74182c-5.97038,4.42675 -11.71541,6.79465 -12.83188,5.28886c-1.11647,-1.50579 2.81839,-6.31508 8.78877,-10.74182z"/><path d="M244.62072,302.52462c4.25475,-3.1547 12.5712,0.85245 18.5753,8.95021c6.0041,8.09776 7.42223,17.21969 3.16747,20.37438c-4.25475,3.1547 -12.57121,-0.85245 -18.57531,-8.95021c-6.0041,-8.09776 -7.42222,-17.21968 -3.16747,-20.37438z"/></g></g><path d="M269.34195,283.26717c0.03641,-0.24734 0.28374,-0.21093 0.28374,-0.21093l0.19713,0.02902c1.97238,0.30387 1.28329,2.37976 2.87967,2.46581c-0.69928,-0.85028 -1.72767,-1.75407 -1.75176,-2.61934c-0.31229,-0.10969 -0.601,-0.25065 -0.84816,-0.44138c-0.98248,-0.75813 0.02943,-1.73006 -1.21656,-2.40677c-1.5921,-0.86469 -0.67261,-1.38721 -1.23868,-2.39825c-0.44304,-0.7913 -2.79867,-0.97031 -2.99931,-1.86233c-0.19684,-0.87516 1.04719,-0.68343 0.51696,-1.63227c-0.27569,-0.49335 -1.10319,-0.68937 -1.44335,-1.2314c-0.52008,-0.27891 -0.71002,-0.87099 -0.88415,-1.4367c-0.07522,-0.01719 -0.14635,-0.02574 -0.21247,-0.02263c0,0 -0.25,0 -0.25,-0.25c0,-0.25 0.25,-0.25 0.25,-0.25c0.01336,0.00043 0.02721,0.00147 0.04151,0.0031c-0.13104,-0.34465 -0.29968,-0.6292 -0.60025,-0.75175l-0.05696,-0.02974c0,0 -0.22161,-0.11571 -0.10591,-0.33732c0.11571,-0.22161 0.33732,-0.10591 0.33732,-0.10591l0.05696,0.02974c0.49737,0.29614 0.67101,0.81953 0.84034,1.34721c0.55888,0.23902 1.29232,0.64368 1.68139,0.38963c0.23475,-0.15328 -0.04106,-1.19601 0.09011,-1.40138c0.74276,-1.16295 3.10552,-1.26792 3.66818,-3.023c0.60904,-0.71446 1.55332,-1.42685 2.04242,-2.2096c0.3933,-0.62943 0.23397,-1.61466 0.34117,-2.34013c-0.5764,-0.36317 -1.20495,-0.67342 -1.79327,-1.03036c-0.04376,0.01307 -0.07871,0.01307 -0.07871,0.01307c-2.5,0 -5,0 -7.5,0h-0.5c0,0 -0.25,0 -0.25,-0.25c0,-0.25 0.25,-0.25 0.25,-0.25c2.28965,0 4.9987,0 7.35892,0c-0.19215,-0.14814 -0.37415,-0.30764 -0.54179,-0.48305c-0.57324,-0.60484 -1.14649,-1.20969 -1.71973,-1.81453l-0.02886,-0.03045c0,0 -0.17197,-0.18145 0.00948,-0.35343c0.18145,-0.17197 0.35343,0.00948 0.35343,0.00948c0.57324,0.60484 1.17534,1.24014 1.74859,1.84498c0.76296,0.81273 1.87698,1.25993 2.84147,1.84658c0.01657,-0.03059 0.0346,-0.05989 0.05425,-0.0878c1.27856,-1.81625 3.08171,1.73418 3.71358,0.92747c0.54569,-0.56472 1.85206,-2.7223 2.7616,-2.37878c0.46043,0.1739 0.93158,1.4084 1.15309,1.8206c0.66093,1.2299 1.80771,2.86222 3.2919,3.19674c0.20172,0.04911 0.51529,0.12569 0.85392,0.2266c0.38637,-0.60342 0.80614,-1.18289 1.0896,-1.74612c0.2845,-0.56529 0.05976,-1.7609 0.06043,-2.38433l0.29785,-0.49092c0,0 0.14694,-0.20226 0.3492,-0.05531c0.20226,0.14694 0.05531,0.3492 0.05531,0.3492l-0.20236,0.19758c-0.00079,0.72794 0.21285,1.93669 -0.112,2.60494c-0.25271,0.51985 -0.67733,1.08321 -1.07203,1.67624c0.4944,0.17591 0.95958,0.39928 1.13701,0.66082c0.59248,0.87333 -0.2721,2.47297 0.42958,3.44011c0.97916,1.34959 2.86254,1.36305 2.89428,3.19488c0.06487,3.7788 0.21967,7.73057 -4.32658,7.9938c-0.51097,-0.31257 -0.26753,1.99594 -0.51307,2.92853c0.32632,0.14855 0.63456,0.30344 0.77263,0.78112c0.38345,1.32666 -0.21415,1.92258 1.44483,2.4437c0.71187,0.22724 1.8026,0.34266 2.43562,0.6767c0.78785,0.41573 0.68429,1.66975 1.04646,2.37725c0.38874,0.7594 1.57084,1.31527 2.20528,1.87503l0.33248,0.32323c0,0 0.17914,0.17438 0.00476,0.35352c-0.17438,0.17914 -0.35352,0.00476 -0.35352,0.00476l-0.31469,-0.30674c-0.70626,-0.62436 -1.86437,-1.17489 -2.3168,-2.017c-0.2557,-0.47593 -0.28831,-1.93288 -0.82279,-2.16048c-0.68664,-0.2924 -1.63042,-0.41423 -2.36884,-0.64995c-2.1799,-0.70564 -0.84242,-2.14007 -1.93778,-3.12002c-0.09798,-0.08765 -0.19832,-0.16374 -0.29926,-0.23286c-1.29036,1.61073 -3.66879,-0.64257 -4.82831,-0.02166c-0.54597,0.29236 -0.39516,0.74003 -1.17355,0.89986c-1.65687,0.27437 -1.5991,-1.37688 -2.89071,-1.7852c-0.73437,-0.23216 -1.67286,-0.30067 -2.51788,-0.51113c0.01392,0.25563 0.04375,0.47669 0.11541,0.60808c0.71476,1.31039 2.20879,1.33002 2.27814,3.07673l0.00124,0.03133c0,0 0.0099,0.2498 -0.2399,0.2597c-0.2498,0.0099 -0.2597,-0.2399 -0.2597,-0.2399l-0.00124,-0.03133c-0.01018,-0.25751 -0.1313,-0.52609 -0.31407,-0.80234c-0.07407,0.07377 -0.18488,0.07377 -0.18488,0.07377c-2.1643,-0.02597 -1.11543,-2.19916 -3.08927,-2.47365l-0.19713,-0.02902c0,0 -0.24734,-0.03641 -0.21093,-0.28374z" fill="#000000" stroke-width="0.5"/></g><path d="M-15.5,30v-60h751v60z" fill="#000000" stroke-opacity="0.50196" stroke="#0d0d0d" stroke-width="0"/><path d="M-15.5,390v-60h751v60z" fill="#000000" stroke-opacity="0.50196" stroke="#0d0d0d" stroke-width="0"/><g stroke-width="0"><g stroke="#000000"><path d="M-7.50751,364.00104v-372.37237h735.015v372.37237z" fill="url(#color-1)"/><path d="M-7.5075,364.00104v-372.37237h735.015v372.37237z" fill="url(#color-2)"/></g><g stroke="none"><path d="M-5.24206,376.25329v-390.39039h155.90105v390.39039z" fill="url(#color-3)"/><path d="M571.60646,373.01003v-390.39039h155.90105v390.39039z" fill="url(#color-4)"/><path d="M-6.53233,110.48753v-127.62762h733.55954v127.62763z" fill="url(#color-5)"/><path d="M726.05204,249.75283v127.62762h-733.55954v-127.62762z" fill="url(#color-6)"/></g></g></g></g></svg>