<svg version="1.1" xmlns="http://www.w3.org/2000/svg" xmlns:xlink="http://www.w3.org/1999/xlink" width="199.85701" height="242.34702" viewBox="0,0,199.85701,242.34702"><defs><radialGradient cx="134.33318" cy="284.59711" r="96.82864" gradientUnits="userSpaceOnUse" id="color-1"><stop offset="0" stop-color="#000000"/><stop offset="1" stop-color="#121212"/></radialGradient><radialGradient cx="64.7847" cy="197.97516" r="35.38781" gradientUnits="userSpaceOnUse" id="color-2"><stop offset="0" stop-color="#0e0e0e"/><stop offset="1" stop-color="#1f1f1f"/></radialGradient><radialGradient cx="142.21141" cy="283.63489" r="96.82864" gradientUnits="userSpaceOnUse" id="color-3"><stop offset="0" stop-color="#000000"/><stop offset="1" stop-color="#1f1f1f"/></radialGradient><radialGradient cx="152.05171" cy="372.38524" r="69.24835" gradientUnits="userSpaceOnUse" id="color-4"><stop offset="0" stop-color="#383027"/><stop offset="1" stop-color="#4e4337"/></radialGradient></defs><g transform="translate(-38.98151,-157.14446)"><g stroke-miterlimit="10"><path d="M61.18445,391.07952c0,0 -19.19,-157.1178 -22.11923,-181.10079c-0.72611,-5.945 3.35282,-11.70351 9.07951,-12.40295c17.82693,-2.17734 113.48758,-13.86111 148.11071,-18.08989c7.9807,-0.97474 11.93281,4.41193 12.68185,10.54465c2.96638,24.28723 22.023,180.31297 22.023,180.31297z" fill="url(#color-1)" stroke="#c7c7c7" stroke-width="0"/><path d="M59.29454,228.63675c0,0 -6.07196,-49.71411 -7.86224,-64.37199c-0.92869,-7.6036 16.75956,-10.07788 17.66828,-2.63771c1.78271,14.59592 7.91998,64.84468 7.91998,64.84468z" fill="url(#color-2)" stroke="#c7c7c7" stroke-width="0"/><path d="M69.06268,390.11729c0,0 -19.19,-157.11781 -22.11923,-181.10079c-0.72611,-5.945 3.35282,-11.70351 9.07951,-12.40295c17.82693,-2.17734 113.48758,-13.86111 148.11071,-18.08989c7.9807,-0.97474 11.93281,4.41193 12.68185,10.54465c2.96638,24.28723 22.023,180.31297 22.023,180.31297z" fill="url(#color-3)" stroke="#c7c7c7" stroke-width="0"/><path d="M81.88133,347.77331l-16.40599,-134.32381l134.32381,-16.40599l16.40599,134.32381z" fill="#000000" stroke="#000000" stroke-width="0"/><path d="M85.59945,399.49148l-4.57059,-37.42159c0,0 45.05606,-9.50092 67.66557,-12.26239c23.20028,-2.83363 69.80953,-4.5285 69.80953,-4.5285l4.57059,37.42159z" fill="url(#color-4)" stroke="#c7c7c7" stroke-width="0"/><text transform="translate(108.07771,230.45524) rotate(-7.73129) scale(0.48031,0.48031)" font-size="40" xml:space="preserve" fill="#dcdcdc" stroke="none" stroke-width="1" font-family="&quot;Century Gothic&quot;, Sans Serif" font-weight="normal" text-anchor="start"><tspan x="0" dy="0">HAND</tspan></text><text transform="translate(132.27743,338.59456) rotate(-7.42296) scale(0.52499,0.52499)" font-size="40" xml:space="preserve" fill="#dcdcdc" stroke="none" stroke-width="1" font-family="&quot;Century Gothic&quot;, Sans Serif" font-weight="normal" text-anchor="start"><tspan x="0" dy="0">□■□</tspan></text><text transform="translate(172.51439,216.33191) rotate(-7.73145) scale(0.19055,0.19055)" font-size="40" xml:space="preserve" fill="#5f5f5f" stroke="none" stroke-width="1" font-family="&quot;Century Gothic&quot;, Sans Serif" font-weight="normal" text-anchor="start"><tspan x="0" dy="0">SCAN</tspan></text><text transform="translate(76.10523,230.05851) rotate(-7.73145) scale(0.19055,0.19055)" font-size="40" xml:space="preserve" fill="#5f5f5f" stroke="none" stroke-width="1" font-family="&quot;Century Gothic&quot;, Sans Serif" font-weight="normal" text-anchor="start"><tspan x="0" dy="0">FLASH</tspan></text><path d="M129.86386,283.6v-22.38319h21.95275v22.3832z" fill="#000000" stroke="#dcdcdc" stroke-width="0"/><g stroke-width="1"><text transform="translate(113.28223,243.30849) rotate(-7.73094) scale(0.2371,0.2371)" font-size="40" xml:space="preserve" fill="#dcdcdc" stroke="none" font-family="&quot;VCR OSD Mono&quot;, Pixel" font-weight="normal" text-anchor="start"><tspan x="0" dy="0">[ GUN ]</tspan></text><g fill="none" stroke="#dcdcdc"><path d="M126.24401,315.19912c0,0 -4.78504,-12.44127 -6.61123,-18.67926c-1.23647,-4.22355 0.86473,-1.61529 -0.8804,-5.68715c-1.86997,-4.36312 -6.15336,-6.88971 -6.84234,-8.88071c-0.98043,-2.8332 0.84426,-5.73501 0.84426,-5.73501c0,0 3.14514,-0.70067 5.54836,-2.38551c5.68546,-3.98597 27.92589,-22.37403 36.43034,-28.70986c1.97603,-1.47214 4.0132,-1.14864 4.0132,-1.14864c0,0 2.69733,5.99313 4.64825,8.77586c1.80969,2.58128 6.66544,7.36165 6.66544,7.36165c0,0 -0.1841,2.24375 -2.27853,3.34229c-7.09583,3.72175 -24.26427,11.2076 -28.38062,19.40575c-3.67686,7.32288 13.06752,13.06145 9.83736,17.12266c-4.23004,5.31831 -22.99407,15.21792 -22.99407,15.21792z"/><path d="M149.27552,276.47098c2.96797,4.23343 1.94212,10.07134 -2.29131,13.03931c-1.18409,0.83014 -2.49369,1.34784 -3.83091,1.57029c-0.93231,0.1551 -0.96761,-1.11752 -0.77676,-1.26879c3.98365,-3.15747 5.52765,-8.35623 4.18331,-13.04296c-0.36728,-1.28043 0.82676,-2.44923 1.86583,-1.34329c0.30359,0.32313 0.58789,0.67178 0.84984,1.04543z"/></g></g></g></g></svg>