<svg version="1.1" xmlns="http://www.w3.org/2000/svg" xmlns:xlink="http://www.w3.org/1999/xlink" width="1467.65996" height="439.19527" viewBox="0,0,1467.65996,439.19527"><g transform="translate(414.23723,58.85979)"><g stroke-miterlimit="10"><g><path d="M-15.03859,379.8561v-399.71219h750.07719v399.71219z" fill="#26465b" stroke="#ffffff" stroke-width="0" stroke-linecap="butt"/><path d="M-11.47196,380.33548v-150.01544h746.12942v150.01544z" fill="#1f3717" stroke="#ffffff" stroke-width="0" stroke-linecap="butt"/><g fill="#2b2510" stroke-opacity="0.50196" stroke="#0d0d0d" stroke-width="0" stroke-linecap="butt"><path d="M627.34305,268.7397v-100c0,0 4.94679,-12.33334 7.66667,-12.33334c2.60882,0 8.33333,12.33334 8.33333,12.33334v100z"/><path d="M619.34305,261.07303v-100c0,0 4.94679,-12.33333 7.66667,-12.33333c2.60882,0 8.33333,12.33333 8.33333,12.33333v100z"/><path d="M611.34305,254.7397v-100c0,0 4.94679,-12.33334 7.66667,-12.33334c2.60882,0 8.33333,12.33334 8.33333,12.33334v100z"/><path d="M602.67639,247.7397v-100c0,0 4.94679,-12.33334 7.66667,-12.33334c2.60882,0 8.33333,12.33334 8.33333,12.33334v100z"/><path d="M594.67639,240.07303v-100c0,0 4.94679,-12.33333 7.66667,-12.33333c2.60882,0 8.33333,12.33333 8.33333,12.33333v100z"/><path d="M586.67639,233.7397v-100c0,0 4.94679,-12.33334 7.66667,-12.33334c2.60882,0 8.33333,12.33334 8.33333,12.33334v100z"/><path d="M571.34305,233.7397v-100c0,0 4.94679,-12.33334 7.66667,-12.33334c2.60882,0 8.33333,12.33334 8.33333,12.33334v100z"/><path d="M558.00972,233.7397v-100c0,0 4.94679,-12.33334 7.66667,-12.33334c2.60882,0 8.33333,12.33334 8.33333,12.33334v100z"/><path d="M545.34305,233.7397v-100c0,0 4.94679,-12.33334 7.66667,-12.33334c2.60882,0 8.33333,12.33334 8.33333,12.33334v100z"/><path d="M532.67638,233.7397v-100c0,0 4.94679,-12.33334 7.66667,-12.33334c2.60882,0 8.33333,12.33334 8.33333,12.33334v100z"/><path d="M519.67638,233.7397v-100c0,0 4.94679,-12.33334 7.66667,-12.33334c2.60882,0 8.33333,12.33334 8.33333,12.33334v100z"/><path d="M506.34305,233.7397v-100c0,0 4.94679,-12.33334 7.66667,-12.33334c2.60882,0 8.33333,12.33334 8.33333,12.33334v100z"/><path d="M493.67638,233.7397v-100c0,0 4.94679,-12.33334 7.66667,-12.33334c2.60882,0 8.33333,12.33334 8.33333,12.33334v100z"/><path d="M480.34305,233.7397v-100c0,0 4.94679,-12.33334 7.66667,-12.33334c2.60882,0 8.33333,12.33334 8.33333,12.33334v100z"/></g><g fill="#2b2510" stroke-opacity="0.50196" stroke="#0d0d0d" stroke-width="0" stroke-linecap="butt"><path d="M124.34305,268.7397v-100c0,0 5.72451,-12.33334 8.33333,-12.33334c2.71988,0 7.66667,12.33334 7.66667,12.33334v100z"/><path d="M132.34304,261.07303v-100c0,0 5.72451,-12.33333 8.33333,-12.33333c2.71988,0 7.66667,12.33333 7.66667,12.33333v100z"/><path d="M140.34304,254.7397v-100c0,0 5.72451,-12.33334 8.33333,-12.33334c2.71988,0 7.66667,12.33334 7.66667,12.33334v100z"/><path d="M149.00971,247.7397v-100c0,0 5.72451,-12.33334 8.33333,-12.33334c2.71988,0 7.66667,12.33334 7.66667,12.33334v100z"/><path d="M157.00971,240.07303v-100c0,0 5.72451,-12.33333 8.33333,-12.33333c2.71988,0 7.66667,12.33333 7.66667,12.33333v100z"/><path d="M165.00971,233.7397v-100c0,0 5.72451,-12.33334 8.33333,-12.33334c2.71988,0 7.66667,12.33334 7.66667,12.33334v100z"/><path d="M180.34305,233.7397v-100c0,0 5.72451,-12.33334 8.33333,-12.33334c2.71988,0 7.66667,12.33334 7.66667,12.33334v100z"/><path d="M193.67638,233.7397v-100c0,0 5.72451,-12.33334 8.33333,-12.33334c2.71988,0 7.66667,12.33334 7.66667,12.33334v100z"/><path d="M206.34305,233.7397v-100c0,0 5.72451,-12.33334 8.33333,-12.33334c2.71988,0 7.66667,12.33334 7.66667,12.33334v100z"/><path d="M219.00972,233.7397v-100c0,0 5.72451,-12.33334 8.33333,-12.33334c2.71988,0 7.66667,12.33334 7.66667,12.33334v100z"/><path d="M232.00972,233.7397v-100c0,0 5.72451,-12.33334 8.33333,-12.33334c2.71988,0 7.66667,12.33334 7.66667,12.33334v100z"/><path d="M245.34305,233.7397v-100c0,0 5.72451,-12.33334 8.33333,-12.33334c2.71988,0 7.66667,12.33334 7.66667,12.33334v100z"/><path d="M258.00972,233.7397v-100c0,0 5.72451,-12.33334 8.33333,-12.33334c2.71988,0 7.66667,12.33334 7.66667,12.33334v100z"/><path d="M271.34305,233.7397v-100c0,0 5.72451,-12.33334 8.33333,-12.33334c2.71988,0 7.66667,12.33334 7.66667,12.33334v100z"/></g><path d="M-22.60387,328.77472v-25.66054h762.90746v25.66054z" fill="#5c5c5c" stroke-opacity="0.50196" stroke="#0d0d0d" stroke-width="0" stroke-linecap="butt"/><path d="M-22.1893,339.19032v-15.39815h746.12942v15.39815z" fill="#3b3b3b" stroke="none" stroke-width="0" stroke-linecap="butt"/><path d="M-34.04734,376.18564v-42.04204h800.3003v42.04204z" fill="#090909" stroke="none" stroke-width="0" stroke-linecap="butt"/><g><path d="M703.93234,268.82493v-229.17639h292.13533v229.17639z" fill="#2c3538" stroke="#ffffff" stroke-width="0" stroke-linecap="butt"/><path d="M757.79802,227.66784v-208.25488h238.26965v208.25488z" fill="#2c2a23" stroke="#ffffff" stroke-width="0" stroke-linecap="butt"/><path d="M783.75091,232.83905v-139.14135h70.68829v139.14135z" fill="#41403b" stroke="#ffffff" stroke-width="0" stroke-linecap="butt"/><path d="M649.76277,51.08919l198.33003,-106.94898l205.32993,106.94898z" fill="#211c1a" stroke="none" stroke-width="0" stroke-linecap="butt"/><path d="M753.32759,233.4349v-189.67213h7.45072v189.67213z" fill="#4f4c3e" stroke="#ffffff" stroke-width="0" stroke-linecap="butt"/><path d="M753.32759,234.71647v-11.53412h242.89338v11.53412z" fill="#4f4c3e" stroke="none" stroke-width="0" stroke-linecap="butt"/><path d="M756.8046,191.14314v-12.81569h244.38352v12.81569z" fill="#4f4c3e" stroke="none" stroke-width="0" stroke-linecap="butt"/><path d="M773.69289,227.02706v-43.57333h5.96057v43.57333z" fill="#4f4c3e" stroke="none" stroke-width="0" stroke-linecap="butt"/><path d="M794.58775,227.02706v-43.57333h5.96057v43.57333z" fill="#4f4c3e" stroke="none" stroke-width="0" stroke-linecap="butt"/><path d="M815.44976,227.02706v-43.57333h5.96058v43.57333z" fill="#4f4c3e" stroke="none" stroke-width="0" stroke-linecap="butt"/><path d="M836.34462,227.02706v-43.57333h5.96058v43.57333z" fill="#4f4c3e" stroke="none" stroke-width="0" stroke-linecap="butt"/><path d="M857.67049,227.02706v-43.57333h5.96058v43.57333z" fill="#4f4c3e" stroke="none" stroke-width="0" stroke-linecap="butt"/><path d="M878.56535,227.02706v-43.57333h5.96058v43.57333z" fill="#4f4c3e" stroke="none" stroke-width="0" stroke-linecap="butt"/><path d="M899.42736,227.02706v-43.57333h5.96057v43.57333z" fill="#4f4c3e" stroke="none" stroke-width="0" stroke-linecap="butt"/><path d="M920.32222,227.02706v-43.57333h5.96057v43.57333z" fill="#4f4c3e" stroke="none" stroke-width="0" stroke-linecap="butt"/><path d="M941.18423,227.02706v-43.57333h5.96058v43.57333z" fill="#4f4c3e" stroke="none" stroke-width="0" stroke-linecap="butt"/><path d="M962.04624,227.02706v-43.57333h5.96057v43.57333z" fill="#4f4c3e" stroke="none" stroke-width="0" stroke-linecap="butt"/><path d="M982.9411,227.02706v-43.57333h5.96057v43.57333z" fill="#4f4c3e" stroke="none" stroke-width="0" stroke-linecap="butt"/><path d="M790.05517,153.63551v-50.94714h56.74976v50.94714z" fill="#040403" stroke="#161616" stroke-width="1" stroke-linecap="butt"/><path d="M790.2066,113.58046l8.17836,-10.55046" fill="none" stroke="#161616" stroke-width="1" stroke-linecap="round"/><path d="M840.27413,153.209l6.18364,-7.97717" fill="none" stroke="#161616" stroke-width="1" stroke-linecap="round"/><path d="M790.2066,153.209l38.89709,-50.17901" fill="none" stroke="#161616" stroke-width="1" stroke-linecap="round"/><path d="M846.45777,102.77267l-39.29603,50.69366" fill="none" stroke="#161616" stroke-width="1" stroke-linecap="round"/><path d="M790.00713,132.10809l22.54037,-29.07809" fill="none" stroke="#161616" stroke-width="1" stroke-linecap="round"/><path d="M846.45777,127.47618l-19.94723,25.73282" fill="none" stroke="#161616" stroke-width="1" stroke-linecap="round"/><path d="M709.38025,67.49215h36.62886" fill="none" stroke-opacity="0.50196" stroke="#0d0d0d" stroke-width="1" stroke-linecap="round"/><path d="M709.38025,97.08665h36.62886" fill="none" stroke-opacity="0.50196" stroke="#0d0d0d" stroke-width="1" stroke-linecap="round"/><path d="M709.38025,127.62423h36.62886" fill="none" stroke-opacity="0.50196" stroke="#0d0d0d" stroke-width="1" stroke-linecap="round"/><path d="M709.38025,157.21873h36.62886" fill="none" stroke-opacity="0.50196" stroke="#0d0d0d" stroke-width="1" stroke-linecap="round"/><path d="M709.38025,187.43486h36.62886" fill="none" stroke-opacity="0.50196" stroke="#0d0d0d" stroke-width="1" stroke-linecap="round"/><path d="M709.38025,217.97244h36.62886" fill="none" stroke-opacity="0.50196" stroke="#0d0d0d" stroke-width="1" stroke-linecap="round"/><path d="M709.38025,247.56694h275.05181" fill="none" stroke-opacity="0.50196" stroke="#0d0d0d" stroke-width="1" stroke-linecap="round"/></g><g><path d="M-340.24659,265.82493v-229.17639h376.86784v229.17639z" fill="#382d2c" stroke="#ffffff" stroke-width="0" stroke-linecap="butt"/><path d="M-340.24659,224.66784v-208.25488h307.37866v208.25488z" fill="#2c2a23" stroke="#ffffff" stroke-width="0" stroke-linecap="butt"/><path d="M-157.53943,229.83905v-139.14135h91.1911v139.14135z" fill="#41403b" stroke="#ffffff" stroke-width="0" stroke-linecap="butt"/><path d="M-414.23723,48.08919l264.88493,-106.94898l255.85475,106.94898z" fill="#1e1a21" stroke="none" stroke-width="0" stroke-linecap="butt"/><path d="M-36.71264,230.4349v-189.67213h9.61177v189.67213z" fill="#4f4c3e" stroke="#ffffff" stroke-width="0" stroke-linecap="butt"/><path d="M-340.44436,231.71647v-11.53412h313.34349v11.53412z" fill="#4f4c3e" stroke="none" stroke-width="0" stroke-linecap="butt"/><path d="M-346.8522,188.14314v-12.81569h315.26583v12.81569z" fill="#4f4c3e" stroke="none" stroke-width="0" stroke-linecap="butt"/><path d="M-61.06244,224.02706v-43.57333h7.68941v43.57333z" fill="#4f4c3e" stroke="none" stroke-width="0" stroke-linecap="butt"/><path d="M-88.01776,224.02706v-43.57333h7.68941v43.57333z" fill="#4f4c3e" stroke="none" stroke-width="0" stroke-linecap="butt"/><path d="M-114.9307,224.02706v-43.57333h7.68941v43.57333z" fill="#4f4c3e" stroke="none" stroke-width="0" stroke-linecap="butt"/><path d="M-141.88602,224.02706v-43.57333h7.68941v43.57333z" fill="#4f4c3e" stroke="none" stroke-width="0" stroke-linecap="butt"/><path d="M-169.39736,224.02706v-43.57333h7.68941v43.57333z" fill="#4f4c3e" stroke="none" stroke-width="0" stroke-linecap="butt"/><path d="M-196.35268,224.02706v-43.57333h7.68941v43.57333z" fill="#4f4c3e" stroke="none" stroke-width="0" stroke-linecap="butt"/><path d="M-223.26561,224.02706v-43.57333h7.68941v43.57333z" fill="#4f4c3e" stroke="none" stroke-width="0" stroke-linecap="butt"/><path d="M-250.22094,224.02706v-43.57333h7.68941v43.57333z" fill="#4f4c3e" stroke="none" stroke-width="0" stroke-linecap="butt"/><path d="M-277.13388,224.02706v-43.57333h7.68941v43.57333z" fill="#4f4c3e" stroke="none" stroke-width="0" stroke-linecap="butt"/><path d="M-304.04681,224.02706v-43.57333h7.68941v43.57333z" fill="#4f4c3e" stroke="none" stroke-width="0" stroke-linecap="butt"/><path d="M-331.00214,224.02706v-43.57333h7.68941v43.57333z" fill="#4f4c3e" stroke="none" stroke-width="0" stroke-linecap="butt"/><path d="M-147.69087,150.63551v-50.94714h73.20976v50.94714z" fill="#040403" stroke="#161616" stroke-width="1" stroke-linecap="butt"/><path d="M-74.67647,110.58046l-10.55046,-10.55046" fill="none" stroke="#161616" stroke-width="1" stroke-linecap="round"/><path d="M-147.24303,142.23183l7.97718,7.97717" fill="none" stroke="#161616" stroke-width="1" stroke-linecap="round"/><path d="M-74.67647,150.209l-50.17901,-50.17901" fill="none" stroke="#161616" stroke-width="1" stroke-linecap="round"/><path d="M-147.24303,99.77267l50.69366,50.69366" fill="none" stroke="#161616" stroke-width="1" stroke-linecap="round"/><path d="M-103.49723,100.03l29.07809,29.07809" fill="none" stroke="#161616" stroke-width="1" stroke-linecap="round"/><path d="M-121.51021,150.209l-25.73283,-25.73282" fill="none" stroke="#161616" stroke-width="1" stroke-linecap="round"/><path d="M29.5932,64.49215h-47.25289" fill="none" stroke-opacity="0.50196" stroke="#0d0d0d" stroke-width="1" stroke-linecap="round"/><path d="M29.5932,94.08665h-47.25289" fill="none" stroke-opacity="0.50196" stroke="#0d0d0d" stroke-width="1" stroke-linecap="round"/><path d="M29.5932,124.62423h-47.25289" fill="none" stroke-opacity="0.50196" stroke="#0d0d0d" stroke-width="1" stroke-linecap="round"/><path d="M29.5932,154.21873h-47.25289" fill="none" stroke-opacity="0.50196" stroke="#0d0d0d" stroke-width="1" stroke-linecap="round"/><path d="M-17.65969,184.43486h47.25289" fill="none" stroke-opacity="0.50196" stroke="#0d0d0d" stroke-width="1" stroke-linecap="round"/><path d="M29.5932,214.97244h-47.25289" fill="none" stroke-opacity="0.50196" stroke="#0d0d0d" stroke-width="1" stroke-linecap="round"/><path d="M29.5932,244.56694h-354.82932" fill="none" stroke-opacity="0.50196" stroke="#0d0d0d" stroke-width="1" stroke-linecap="round"/></g><g><path d="M241.93234,268.82493v-177.64986h292.13533v177.64986z" fill="#38362c" stroke="#ffffff" stroke-width="0" stroke-linecap="butt"/><path d="M295.79802,236.92134v-161.43221h238.26965v161.43221z" fill="#2c2a23" stroke="#ffffff" stroke-width="0" stroke-linecap="butt"/><path d="M321.75091,240.92988v-107.85771h70.68829v107.85771z" fill="#41403b" stroke="#ffffff" stroke-width="0" stroke-linecap="butt"/><path d="M187.76277,100.04348l198.33004,-82.90327l205.32993,82.90327z" fill="#1a1e21" stroke="none" stroke-width="0" stroke-linecap="butt"/><path d="M291.32759,241.39177v-147.02749h7.45072v147.02749z" fill="#4f4c3e" stroke="#ffffff" stroke-width="0" stroke-linecap="butt"/><path d="M291.32759,242.3852v-8.94087h242.89338v8.94087z" fill="#4f4c3e" stroke="none" stroke-width="0" stroke-linecap="butt"/><path d="M294.8046,208.60861v-9.93429h244.38352v9.93429z" fill="#4f4c3e" stroke="none" stroke-width="0" stroke-linecap="butt"/><path d="M311.69289,236.42462v-33.77659h5.96058v33.77659z" fill="#4f4c3e" stroke="none" stroke-width="0" stroke-linecap="butt"/><path d="M332.58775,236.42462v-33.77659h5.96057v33.77659z" fill="#4f4c3e" stroke="none" stroke-width="0" stroke-linecap="butt"/><path d="M353.44976,236.42462v-33.77659h5.96058v33.77659z" fill="#4f4c3e" stroke="none" stroke-width="0" stroke-linecap="butt"/><path d="M374.34462,236.42462v-33.77659h5.96058v33.77659z" fill="#4f4c3e" stroke="none" stroke-width="0" stroke-linecap="butt"/><path d="M395.67049,236.42462v-33.77659h5.96058v33.77659z" fill="#4f4c3e" stroke="none" stroke-width="0" stroke-linecap="butt"/><path d="M416.56535,236.42462v-33.77659h5.96057v33.77659z" fill="#4f4c3e" stroke="none" stroke-width="0" stroke-linecap="butt"/><path d="M437.42736,236.42462v-33.77659h5.96058v33.77659z" fill="#4f4c3e" stroke="none" stroke-width="0" stroke-linecap="butt"/><path d="M458.32222,236.42462v-33.77659h5.96058v33.77659z" fill="#4f4c3e" stroke="none" stroke-width="0" stroke-linecap="butt"/><path d="M479.18423,236.42462v-33.77659h5.96058v33.77659z" fill="#4f4c3e" stroke="none" stroke-width="0" stroke-linecap="butt"/><path d="M500.04624,236.42462v-33.77659h5.96057v33.77659z" fill="#4f4c3e" stroke="none" stroke-width="0" stroke-linecap="butt"/><path d="M520.9411,236.42462v-33.77659h5.96057v33.77659z" fill="#4f4c3e" stroke="none" stroke-width="0" stroke-linecap="butt"/><path d="M328.05517,179.53395v-39.49252h56.74975v39.49252z" fill="#040403" stroke="#161616" stroke-width="1" stroke-linecap="butt"/><path d="M328.2066,148.48462l8.17836,-8.17836" fill="none" stroke="#161616" stroke-width="1" stroke-linecap="round"/><path d="M378.27413,179.20334l6.18364,-6.18364" fill="none" stroke="#161616" stroke-width="1" stroke-linecap="round"/><path d="M328.2066,179.20334l38.89709,-38.89709" fill="none" stroke="#161616" stroke-width="1" stroke-linecap="round"/><path d="M384.45777,140.10678l-39.29603,39.29603" fill="none" stroke="#161616" stroke-width="1" stroke-linecap="round"/><path d="M328.00712,162.84662l22.54037,-22.54037" fill="none" stroke="#161616" stroke-width="1" stroke-linecap="round"/><path d="M384.45777,159.25612l-19.94723,19.94722" fill="none" stroke="#161616" stroke-width="1" stroke-linecap="round"/><path d="M247.38025,112.7585h36.62886" fill="none" stroke-opacity="0.50196" stroke="#0d0d0d" stroke-width="1" stroke-linecap="round"/><path d="M247.38025,135.69917h36.62886" fill="none" stroke-opacity="0.50196" stroke="#0d0d0d" stroke-width="1" stroke-linecap="round"/><path d="M247.38025,159.37088h36.62886" fill="none" stroke-opacity="0.50196" stroke="#0d0d0d" stroke-width="1" stroke-linecap="round"/><path d="M247.38025,182.31154h36.62886" fill="none" stroke-opacity="0.50196" stroke="#0d0d0d" stroke-width="1" stroke-linecap="round"/><path d="M247.38025,205.73408h36.62886" fill="none" stroke-opacity="0.50196" stroke="#0d0d0d" stroke-width="1" stroke-linecap="round"/><path d="M247.38025,229.40579h36.62886" fill="none" stroke-opacity="0.50196" stroke="#0d0d0d" stroke-width="1" stroke-linecap="round"/><path d="M247.38025,252.34645h275.05181" fill="none" stroke-opacity="0.50196" stroke="#0d0d0d" stroke-width="1" stroke-linecap="round"/></g></g></g></g></svg>