<svg version="1.1" xmlns="http://www.w3.org/2000/svg" xmlns:xlink="http://www.w3.org/1999/xlink" width="238.75193" height="437.45563" viewBox="0,0,238.75193,437.45563"><defs><linearGradient x1="468.05555" y1="183.99006" x2="467.99936" y2="206.4837" gradientUnits="userSpaceOnUse" id="color-1"><stop offset="0" stop-color="#484c5e"/><stop offset="1" stop-color="#212d30"/></linearGradient><linearGradient x1="449.177" y1="179.22578" x2="435.64505" y2="206.52182" gradientUnits="userSpaceOnUse" id="color-2"><stop offset="0" stop-color="#484c5e"/><stop offset="1" stop-color="#212d30"/></linearGradient><linearGradient x1="435.31516" y1="165.80219" x2="411.65844" y2="184.99977" gradientUnits="userSpaceOnUse" id="color-3"><stop offset="0" stop-color="#484c5e"/><stop offset="1" stop-color="#212d30"/></linearGradient><linearGradient x1="427.56484" y1="148.7135" x2="397.44366" y2="153.28522" gradientUnits="userSpaceOnUse" id="color-4"><stop offset="0" stop-color="#484c5e"/><stop offset="1" stop-color="#212d30"/></linearGradient><linearGradient x1="433.07184" y1="131.06386" x2="407.95204" y2="113.82489" gradientUnits="userSpaceOnUse" id="color-5"><stop offset="0" stop-color="#484c5e"/><stop offset="1" stop-color="#212d30"/></linearGradient><linearGradient x1="447.26059" y1="117.01632" x2="429.03959" y2="92.59946" gradientUnits="userSpaceOnUse" id="color-6"><stop offset="0" stop-color="#484c5e"/><stop offset="1" stop-color="#212d30"/></linearGradient><linearGradient x1="461.75334" y1="103.71544" x2="436.63352" y2="86.47648" gradientUnits="userSpaceOnUse" id="color-7"><stop offset="0" stop-color="#484c5e"/><stop offset="1" stop-color="#212d30"/></linearGradient><linearGradient x1="474.21638" y1="88.62344" x2="449.09659" y2="71.38447" gradientUnits="userSpaceOnUse" id="color-8"><stop offset="0" stop-color="#484c5e"/><stop offset="1" stop-color="#212d30"/></linearGradient><linearGradient x1="575.69358" y1="184.99006" x2="575.74977" y2="207.4837" gradientUnits="userSpaceOnUse" id="color-9"><stop offset="0" stop-color="#484c5e"/><stop offset="1" stop-color="#212d30"/></linearGradient><linearGradient x1="594.57212" y1="180.22578" x2="608.10408" y2="207.52182" gradientUnits="userSpaceOnUse" id="color-10"><stop offset="0" stop-color="#484c5e"/><stop offset="1" stop-color="#212d30"/></linearGradient><linearGradient x1="608.43397" y1="166.80219" x2="632.09068" y2="185.99976" gradientUnits="userSpaceOnUse" id="color-11"><stop offset="0" stop-color="#484c5e"/><stop offset="1" stop-color="#212d30"/></linearGradient><linearGradient x1="616.18428" y1="149.7135" x2="646.30547" y2="154.28522" gradientUnits="userSpaceOnUse" id="color-12"><stop offset="0" stop-color="#484c5e"/><stop offset="1" stop-color="#212d30"/></linearGradient><linearGradient x1="610.67728" y1="132.06386" x2="635.79708" y2="114.82489" gradientUnits="userSpaceOnUse" id="color-13"><stop offset="0" stop-color="#484c5e"/><stop offset="1" stop-color="#212d30"/></linearGradient><linearGradient x1="596.48853" y1="118.01632" x2="614.70954" y2="93.59946" gradientUnits="userSpaceOnUse" id="color-14"><stop offset="0" stop-color="#484c5e"/><stop offset="1" stop-color="#212d30"/></linearGradient><linearGradient x1="581.99578" y1="104.71544" x2="607.1156" y2="87.47648" gradientUnits="userSpaceOnUse" id="color-15"><stop offset="0" stop-color="#484c5e"/><stop offset="1" stop-color="#212d30"/></linearGradient><linearGradient x1="569.53274" y1="89.62344" x2="594.65253" y2="72.38446" gradientUnits="userSpaceOnUse" id="color-16"><stop offset="0" stop-color="#484c5e"/><stop offset="1" stop-color="#212d30"/></linearGradient><linearGradient x1="510.17518" y1="298.27217" x2="487.68149" y2="298.27217" gradientUnits="userSpaceOnUse" id="color-17"><stop offset="0" stop-color="#484c5e"/><stop offset="1" stop-color="#212d30"/></linearGradient><linearGradient x1="510.17518" y1="309.2292" x2="479.70902" y2="309.2292" gradientUnits="userSpaceOnUse" id="color-18"><stop offset="0" stop-color="#484c5e"/><stop offset="1" stop-color="#212d30"/></linearGradient><linearGradient x1="510.17518" y1="321.40461" x2="479.70902" y2="321.40461" gradientUnits="userSpaceOnUse" id="color-19"><stop offset="0" stop-color="#484c5e"/><stop offset="1" stop-color="#212d30"/></linearGradient><linearGradient x1="510.17518" y1="332.22721" x2="479.70902" y2="332.22721" gradientUnits="userSpaceOnUse" id="color-20"><stop offset="0" stop-color="#484c5e"/><stop offset="1" stop-color="#212d30"/></linearGradient><linearGradient x1="510.17518" y1="344.85359" x2="479.70902" y2="344.85359" gradientUnits="userSpaceOnUse" id="color-21"><stop offset="0" stop-color="#484c5e"/><stop offset="1" stop-color="#212d30"/></linearGradient><linearGradient x1="510.17518" y1="355.67619" x2="479.70902" y2="355.67619" gradientUnits="userSpaceOnUse" id="color-22"><stop offset="0" stop-color="#484c5e"/><stop offset="1" stop-color="#212d30"/></linearGradient><linearGradient x1="510.17518" y1="367.8516" x2="479.70902" y2="367.8516" gradientUnits="userSpaceOnUse" id="color-23"><stop offset="0" stop-color="#484c5e"/><stop offset="1" stop-color="#212d30"/></linearGradient><linearGradient x1="510.17518" y1="378.67422" x2="479.70902" y2="378.67422" gradientUnits="userSpaceOnUse" id="color-24"><stop offset="0" stop-color="#484c5e"/><stop offset="1" stop-color="#212d30"/></linearGradient><linearGradient x1="534.91356" y1="298.7231" x2="557.40725" y2="298.7231" gradientUnits="userSpaceOnUse" id="color-25"><stop offset="0" stop-color="#484c5e"/><stop offset="1" stop-color="#212d30"/></linearGradient><linearGradient x1="534.91356" y1="309.68012" x2="565.37973" y2="309.68012" gradientUnits="userSpaceOnUse" id="color-26"><stop offset="0" stop-color="#484c5e"/><stop offset="1" stop-color="#212d30"/></linearGradient><linearGradient x1="534.91356" y1="321.85555" x2="565.37973" y2="321.85555" gradientUnits="userSpaceOnUse" id="color-27"><stop offset="0" stop-color="#484c5e"/><stop offset="1" stop-color="#212d30"/></linearGradient><linearGradient x1="534.91356" y1="332.67816" x2="565.37973" y2="332.67816" gradientUnits="userSpaceOnUse" id="color-28"><stop offset="0" stop-color="#484c5e"/><stop offset="1" stop-color="#212d30"/></linearGradient><linearGradient x1="534.91356" y1="345.30455" x2="565.37973" y2="345.30455" gradientUnits="userSpaceOnUse" id="color-29"><stop offset="0" stop-color="#484c5e"/><stop offset="1" stop-color="#212d30"/></linearGradient><linearGradient x1="534.91356" y1="356.12711" x2="565.37973" y2="356.12711" gradientUnits="userSpaceOnUse" id="color-30"><stop offset="0" stop-color="#484c5e"/><stop offset="1" stop-color="#212d30"/></linearGradient><linearGradient x1="534.91356" y1="368.30256" x2="565.37973" y2="368.30256" gradientUnits="userSpaceOnUse" id="color-31"><stop offset="0" stop-color="#484c5e"/><stop offset="1" stop-color="#212d30"/></linearGradient><linearGradient x1="534.91356" y1="379.12516" x2="565.37973" y2="379.12516" gradientUnits="userSpaceOnUse" id="color-32"><stop offset="0" stop-color="#484c5e"/><stop offset="1" stop-color="#212d30"/></linearGradient><linearGradient x1="470.97517" y1="185.2698" x2="571.00271" y2="185.2698" gradientUnits="userSpaceOnUse" id="color-33"><stop offset="0" stop-color="#484c5e"/><stop offset="1" stop-color="#212d30"/></linearGradient><linearGradient x1="461.37253" y1="56.77948" x2="580.60537" y2="56.77948" gradientUnits="userSpaceOnUse" id="color-34"><stop offset="0" stop-color="#484c5e"/><stop offset="1" stop-color="#212d30"/></linearGradient><linearGradient x1="529.89872" y1="77.32584" x2="515.92808" y2="77.32584" gradientUnits="userSpaceOnUse" id="color-35"><stop offset="0" stop-color="#484c5e"/><stop offset="1" stop-color="#212d30"/></linearGradient><linearGradient x1="529.89872" y1="94.70499" x2="510.97645" y2="94.70499" gradientUnits="userSpaceOnUse" id="color-36"><stop offset="0" stop-color="#484c5e"/><stop offset="1" stop-color="#212d30"/></linearGradient><linearGradient x1="529.89872" y1="114.01665" x2="510.97645" y2="114.01665" gradientUnits="userSpaceOnUse" id="color-37"><stop offset="0" stop-color="#484c5e"/><stop offset="1" stop-color="#212d30"/></linearGradient><linearGradient x1="529.89872" y1="131.18257" x2="510.97645" y2="131.18257" gradientUnits="userSpaceOnUse" id="color-38"><stop offset="0" stop-color="#484c5e"/><stop offset="1" stop-color="#212d30"/></linearGradient><linearGradient x1="529.89872" y1="151.20949" x2="510.97645" y2="151.20949" gradientUnits="userSpaceOnUse" id="color-39"><stop offset="0" stop-color="#484c5e"/><stop offset="1" stop-color="#212d30"/></linearGradient><linearGradient x1="529.89872" y1="168.3754" x2="510.97645" y2="168.3754" gradientUnits="userSpaceOnUse" id="color-40"><stop offset="0" stop-color="#484c5e"/><stop offset="1" stop-color="#212d30"/></linearGradient><linearGradient x1="529.89872" y1="187.68707" x2="510.97645" y2="187.68707" gradientUnits="userSpaceOnUse" id="color-41"><stop offset="0" stop-color="#484c5e"/><stop offset="1" stop-color="#212d30"/></linearGradient><linearGradient x1="529.89872" y1="204.85298" x2="510.97645" y2="204.85298" gradientUnits="userSpaceOnUse" id="color-42"><stop offset="0" stop-color="#484c5e"/><stop offset="1" stop-color="#212d30"/></linearGradient><linearGradient x1="494.19831" y1="115.20134" x2="548.63284" y2="115.20134" gradientUnits="userSpaceOnUse" id="color-43"><stop offset="0" stop-color="#484c5e"/><stop offset="1" stop-color="#212d30"/></linearGradient><linearGradient x1="572.76646" y1="93.80092" x2="539.524" y2="93.80092" gradientUnits="userSpaceOnUse" id="color-44"><stop offset="0" stop-color="#484c5e"/><stop offset="1" stop-color="#212d30"/></linearGradient><linearGradient x1="470.98269" y1="97.00703" x2="504.22515" y2="97.00703" gradientUnits="userSpaceOnUse" id="color-45"><stop offset="0" stop-color="#484c5e"/><stop offset="1" stop-color="#212d30"/></linearGradient><linearGradient x1="520.18508" y1="201.881" x2="520.18508" y2="276.09526" gradientUnits="userSpaceOnUse" id="color-46"><stop offset="0" stop-color="#484c5e"/><stop offset="1" stop-color="#212d30"/></linearGradient><linearGradient x1="493.54286" y1="205.42369" x2="493.54286" y2="222.91705" gradientUnits="userSpaceOnUse" id="color-47"><stop offset="0" stop-color="#484c5e"/><stop offset="1" stop-color="#212d30"/></linearGradient><linearGradient x1="549.52164" y1="205.42369" x2="549.52164" y2="222.91705" gradientUnits="userSpaceOnUse" id="color-48"><stop offset="0" stop-color="#484c5e"/><stop offset="1" stop-color="#212d30"/></linearGradient><linearGradient x1="533.99761" y1="392.0032" x2="596.01955" y2="392.0032" gradientUnits="userSpaceOnUse" id="color-49"><stop offset="0" stop-color="#484c5e"/><stop offset="1" stop-color="#212d30"/></linearGradient><linearGradient x1="511.73261" y1="392.26827" x2="449.71067" y2="392.26827" gradientUnits="userSpaceOnUse" id="color-50"><stop offset="0" stop-color="#484c5e"/><stop offset="1" stop-color="#212d30"/></linearGradient></defs><g transform="translate(-402.49859,32.86001)"><g stroke-miterlimit="10"><g><path d="M478.24287,205.88231c0,0 0.03288,-13.15614 0.04272,-17.09574c0.00521,-2.08119 -1.09419,-3.17038 -2.69907,-0.8481c-3.03373,4.38985 -7.84979,11.35873 -10.34601,14.97078c-2.98033,4.31258 -7.65901,4.8697 -7.47121,0.73938c0.25372,-5.58078 0.89485,-19.68203 0.89485,-19.68203" fill="none" stroke="url(#color-1)" stroke-width="3.25" stroke-linecap="round"/><path d="M458.5586,183.8767c0,0 -14.19782,7.91072 -20.06234,11.17833c-4.57938,2.55154 -9.0226,0.9837 -7.02885,-2.63842c2.6939,-4.89414 9.50071,-17.26037 9.50071,-17.26037" fill="none" stroke="url(#color-2)" stroke-width="3.25" stroke-linecap="round"/><path d="M441.91332,173.93296c0,0 -16.20159,1.29074 -22.8938,1.82391c-5.22566,0.41633 -8.61462,-2.85711 -5.29527,-5.32221c4.48502,-3.3308 15.81751,-11.7469 15.81751,-11.7469" fill="none" stroke="url(#color-3)" stroke-width="3.25" stroke-linecap="round"/><path d="M429.13613,159.0661c0,0 -14.62366,-7.09272 -20.66409,-10.02241c-4.7167,-2.28768 -5.98095,-6.82664 -1.87031,-7.27103c5.5542,-0.60047 19.58824,-2.11768 19.58824,-2.11768" fill="none" stroke="url(#color-4)" stroke-width="3.25" stroke-linecap="round"/><path d="M427.14684,139.69749c0,0 -5.83375,-15.16989 -8.24345,-21.43593c-1.88162,-4.89288 0.29597,-9.07121 3.60143,-6.58751c4.46627,3.3559 15.7514,11.83541 15.7514,11.83541" fill="none" stroke="url(#color-5)" stroke-width="3.25" stroke-linecap="round"/><path d="M438.86857,123.27885c0,0 -0.63172,-16.24066 -0.89267,-22.949c-0.20376,-5.23826 3.20461,-8.49149 5.53287,-5.07476c3.14593,4.61659 11.09485,16.28152 11.09485,16.28152" fill="none" stroke="url(#color-6)" stroke-width="3.25" stroke-linecap="round"/><path d="M455.82835,112.34905c0,0 -5.83375,-15.16987 -8.24344,-21.43591c-1.88162,-4.89289 0.29595,-9.07122 3.60141,-6.58752c4.46627,3.3559 15.7514,11.83541 15.7514,11.83541" fill="none" stroke="url(#color-7)" stroke-width="3.25" stroke-linecap="round"/><path d="M468.2914,97.25709c0,0 -5.83374,-15.16988 -8.24343,-21.43592c-1.88163,-4.8929 0.29595,-9.07124 3.60141,-6.58754c4.46627,3.3559 15.7514,11.8354 15.7514,11.8354" fill="none" stroke="url(#color-8)" stroke-width="3.25" stroke-linecap="round"/><path d="M513.20827,247.15314c-12.43432,12.2863 -27.34218,-10.84741 -32.70529,-16.55783c-4.06151,-4.32451 -27.80592,-1.73331 -25.56168,-8.68582c0.71923,-2.22809 24.62632,-14.50449 25.98458,-16.49355c2.07979,-3.04566 8.87809,-20.47651 11.51654,-21.73579c4.46159,-2.12939 4.95782,13.64731 8.32795,17.23567c1.5825,1.68496 14.84155,2.88844 13.9166,13.19536c-0.33233,3.70304 -2.19217,-2.36855 -6.58234,1.76075c-3.39596,3.19419 17.93916,18.59851 5.10365,31.28118z" fill="#0d0d0d" stroke="#000000" stroke-width="0" stroke-linecap="butt"/></g><g><path d="M585.08497,184.9666c0,0 0.64113,14.10124 0.89485,19.68203c0.18781,4.13032 -4.49087,3.57319 -7.47121,-0.73938c-2.49622,-3.61205 -7.31228,-10.58093 -10.34601,-14.97078c-1.60489,-2.32228 -2.70427,-1.23309 -2.69907,0.8481c0.00984,3.93961 0.04272,17.09574 0.04272,17.09574" fill="none" stroke="url(#color-9)" stroke-width="3.25" stroke-linecap="round"/><path d="M602.781,176.15624c0,0 6.80681,12.36624 9.50071,17.26038c1.99376,3.62212 -2.44947,5.18996 -7.02885,2.63842c-5.86452,-3.26761 -20.06234,-11.17834 -20.06234,-11.17834" fill="none" stroke="url(#color-10)" stroke-width="3.25" stroke-linecap="round"/><path d="M614.20736,159.68775c0,0 11.3325,8.4161 15.81751,11.7469c3.31935,2.4651 -0.06961,5.73854 -5.29527,5.32221c-6.69221,-0.53317 -22.8938,-1.82392 -22.8938,-1.82392" fill="none" stroke="url(#color-11)" stroke-width="3.25" stroke-linecap="round"/><path d="M617.55914,140.65498c0,0 14.03404,1.5172 19.58824,2.11768c4.11064,0.44438 2.84639,4.98334 -1.8703,7.27102c-6.04043,2.92969 -20.66409,10.02242 -20.66409,10.02242" fill="none" stroke="url(#color-12)" stroke-width="3.25" stroke-linecap="round"/><path d="M605.49291,124.50945c0,0 11.28513,-8.47951 15.7514,-11.83541c3.30546,-2.4837 5.48305,1.69464 3.60143,6.58752c-2.4097,6.26604 -8.24345,21.43593 -8.24345,21.43593" fill="none" stroke="url(#color-13)" stroke-width="3.25" stroke-linecap="round"/><path d="M589.14551,112.5366c0,0 7.94892,-11.66494 11.09484,-16.28152c2.32826,-3.41672 5.73663,-0.1635 5.53287,5.07476c-0.26095,6.70834 -0.89267,22.949 -0.89267,22.949" fill="none" stroke="url(#color-14)" stroke-width="3.25" stroke-linecap="round"/><path d="M576.81141,97.16103c0,0 11.28513,-8.47951 15.7514,-11.83541c3.30546,-2.4837 5.48304,1.69464 3.60141,6.58753c-2.4097,6.26604 -8.24344,21.43591 -8.24344,21.43591" fill="none" stroke="url(#color-15)" stroke-width="3.25" stroke-linecap="round"/><path d="M564.34835,82.06903c0,0 11.28512,-8.47951 15.75139,-11.83541c3.30546,-2.4837 5.48305,1.69464 3.60142,6.58755c-2.4097,6.26604 -8.24344,21.43591 -8.24344,21.43591" fill="none" stroke="url(#color-16)" stroke-width="3.25" stroke-linecap="round"/><path d="M530.54084,248.1531c-12.83551,-12.68266 8.4996,-28.08698 5.10364,-31.28117c-4.39017,-4.1293 -6.25002,1.94228 -6.58234,-1.76075c-0.92495,-10.30692 12.3341,-11.51041 13.9166,-13.19537c3.37012,-3.58835 3.86636,-19.36507 8.32795,-17.23567c2.63845,1.25928 9.43675,18.69014 11.51654,21.73579c1.35826,1.98906 25.26535,14.26546 25.98458,16.49355c2.24424,6.95251 -21.50018,4.3613 -25.56168,8.68582c-5.36311,5.71042 -20.27096,28.84413 -32.70528,16.55783z" fill="#0d0d0d" stroke="#000000" stroke-width="0" stroke-linecap="butt"/></g><g fill="none" stroke-width="3.25" stroke-linecap="round"><path d="M510.17518,303.7819c0,0 -14.10281,0.35547 -19.68421,0.49613c-4.13078,0.10412 -3.56197,-2.63992 0.75806,-4.3821c3.61829,-1.45918 10.59917,-4.27446 14.99657,-6.04783c2.32628,-0.93813 1.23983,-1.58471 -0.84134,-1.58471c-3.9396,0 -17.09578,0 -17.09578,0" stroke="url(#color-17)"/><path d="M510.17518,314.6045c0,0 -14.10281,0.35548 -19.68421,0.49614c-4.13078,0.10412 -3.56197,-2.63993 0.75806,-4.38211c5.53242,-2.23111 18.92615,-7.63256 18.92615,-7.63256" stroke="url(#color-18)"/><path d="M510.17518,326.77991c0,0 -14.10281,0.3555 -19.68421,0.49616c-4.13078,0.10412 -3.56197,-2.63995 0.75806,-4.38213c5.53242,-2.23111 18.92615,-7.63256 18.92615,-7.63256" stroke="url(#color-19)"/><path d="M510.17518,337.60251c0,0 -14.10281,0.35549 -19.68421,0.49615c-4.13078,0.10412 -3.56197,-2.63995 0.75806,-4.38213c5.53242,-2.23111 18.92615,-7.63256 18.92615,-7.63256" stroke="url(#color-20)"/><path d="M510.17518,350.2289c0,0 -14.10281,0.35547 -19.68421,0.49613c-4.13078,0.10412 -3.56197,-2.63995 0.75806,-4.38213c5.53242,-2.23111 18.92615,-7.63254 18.92615,-7.63254" stroke="url(#color-21)"/><path d="M510.17518,361.0515c0,0 -14.10281,0.35549 -19.68421,0.49615c-4.13078,0.10412 -3.56197,-2.63994 0.75806,-4.38212c5.53242,-2.23111 18.92615,-7.63254 18.92615,-7.63254" stroke="url(#color-22)"/><path d="M510.17518,373.22692c0,0 -14.10281,0.35549 -19.68421,0.49615c-4.13078,0.10412 -3.56197,-2.63994 0.75806,-4.38212c5.53242,-2.23111 18.92615,-7.63254 18.92615,-7.63254" stroke="url(#color-23)"/><path d="M510.17518,384.0495c0,0 -14.10281,0.35547 -19.68421,0.49613c-4.13078,0.10412 -3.56197,-2.63993 0.75806,-4.38211c5.53242,-2.23111 18.92615,-7.63256 18.92615,-7.63256" stroke="url(#color-24)"/></g><g fill="none" stroke-width="3.25" stroke-linecap="round"><path d="M556.78023,292.71432c0,0 -13.15617,0 -17.09578,0c-2.08117,0 -3.16762,0.6466 -0.84134,1.58474c4.39742,1.77339 11.37829,4.58863 14.99657,6.04783c4.32003,1.74218 4.88884,4.48623 0.75806,4.38213c-5.5814,-0.14066 -19.68421,-0.49616 -19.68421,-0.49616" stroke="url(#color-25)"/><path d="M534.91356,303.53692c0,0 13.39375,5.40145 18.92615,7.63257c4.32001,1.74218 4.88884,4.48622 0.75807,4.38212c-5.5814,-0.14066 -19.6842,-0.49615 -19.6842,-0.49615" stroke="url(#color-26)"/><path d="M534.91356,315.71235c0,0 13.39375,5.40145 18.92615,7.63256c4.32001,1.74218 4.88884,4.48623 0.75807,4.38213c-5.5814,-0.14066 -19.6842,-0.49615 -19.6842,-0.49615" stroke="url(#color-27)"/><path d="M534.91356,326.53495c0,0 13.39375,5.40145 18.92615,7.63256c4.32001,1.74218 4.88884,4.48623 0.75807,4.38213c-5.5814,-0.14066 -19.6842,-0.49615 -19.6842,-0.49615" stroke="url(#color-28)"/><path d="M534.91356,339.16131c0,0 13.39375,5.40145 18.92615,7.63257c4.32001,1.74218 4.88884,4.4862 0.75807,4.3821c-5.5814,-0.14066 -19.6842,-0.49613 -19.6842,-0.49613" stroke="url(#color-29)"/><path d="M534.91356,349.98391c0,0 13.39375,5.40145 18.92615,7.63257c4.32001,1.74218 4.88884,4.48621 0.75807,4.38211c-5.5814,-0.14066 -19.6842,-0.49613 -19.6842,-0.49613" stroke="url(#color-30)"/><path d="M534.91356,362.15934c0,0 13.39375,5.40145 18.92615,7.63257c4.32001,1.74218 4.88884,4.48621 0.75807,4.38211c-5.5814,-0.14066 -19.6842,-0.49614 -19.6842,-0.49614" stroke="url(#color-31)"/><path d="M534.91356,372.98194c0,0 13.39375,5.40145 18.92615,7.63257c4.32001,1.74218 4.88884,4.4862 0.75807,4.3821c-5.5814,-0.14066 -19.6842,-0.49613 -19.6842,-0.49613" stroke="url(#color-32)"/></g><path d="M571.00269,185.2698c0,1.28724 -14.59066,1.18051 -29.39053,-4.80579c-6.79562,-2.74872 -9.53058,-13.99937 -18.22257,-13.99937c-9.85148,0 -10.28615,10.93857 -18.09401,14.63156c-14.084,6.66149 -32.31986,7.78266 -32.31986,6.57427c0,-1.87829 20.39138,-64.41773 48.0132,-64.41773c27.62185,0 50.01377,60.13878 50.01377,62.01707z" fill="#4c1212" stroke="url(#color-33)" stroke-width="0" stroke-linecap="butt"/><path d="M580.60537,56.77948c0,1.3811 -23.89042,22.10609 -56.81564,22.10609c-32.92523,0 -59.81647,-17.72416 -59.81647,-19.10527c0,-0.68182 29.22574,2.2427 58.01058,1.49348c29.52189,-0.76841 58.62153,-5.19356 58.62153,-4.49431z" fill="#4c1212" stroke="url(#color-34)" stroke-width="0" stroke-linecap="butt"/><g fill="none" stroke-width="3.25" stroke-linecap="round"><path d="M529.89872,86.06495c0,0 -8.75914,0.56382 -12.22569,0.78695c-2.5656,0.16514 -2.2123,-4.18725 0.47082,-6.95054c2.24728,-2.31444 6.58305,-6.77976 9.31423,-9.59256c1.44483,-1.48802 0.77007,-2.51355 -0.52256,-2.51355c-2.44687,0 -10.61803,0 -10.61803,0" stroke="url(#color-35)"/><path d="M529.89872,103.23087c0,0 -8.75914,0.56381 -12.22569,0.78694c-2.5656,0.16513 -2.2123,-4.18725 0.47082,-6.95054c3.43613,-3.5388 11.75486,-12.10613 11.75486,-12.10613" stroke="url(#color-36)"/><path d="M529.89872,122.54254c0,0 -8.75914,0.56382 -12.22569,0.78695c-2.5656,0.16513 -2.2123,-4.18725 0.47082,-6.95054c3.43613,-3.5388 11.75486,-12.10613 11.75486,-12.10613" stroke="url(#color-37)"/><path d="M529.89872,139.70846c0,0 -8.75914,0.56381 -12.22569,0.78694c-2.5656,0.16512 -2.2123,-4.18725 0.47082,-6.95054c3.43613,-3.5388 11.75486,-12.10613 11.75486,-12.10613" stroke="url(#color-38)"/><path d="M529.89872,159.73535c0,0 -8.75914,0.56383 -12.22569,0.78696c-2.5656,0.16512 -2.2123,-4.18725 0.47082,-6.95054c3.43613,-3.5388 11.75486,-12.10613 11.75486,-12.10613" stroke="url(#color-39)"/><path d="M529.89872,176.90129c0,0 -8.75914,0.56381 -12.22569,0.78694c-2.5656,0.16512 -2.2123,-4.18725 0.47082,-6.95054c3.43613,-3.5388 11.75486,-12.10613 11.75486,-12.10613" stroke="url(#color-40)"/><path d="M529.89872,196.21295c0,0 -8.75914,0.56382 -12.22569,0.78695c-2.5656,0.16512 -2.2123,-4.18724 0.47082,-6.95054c3.43613,-3.5388 11.75486,-12.10613 11.75486,-12.10613" stroke="url(#color-41)"/><path d="M529.89872,213.37887c0,0 -8.75914,0.56381 -12.22569,0.78694c-2.5656,0.16512 -2.2123,-4.18724 0.47082,-6.95054c3.43613,-3.5388 11.75486,-12.10613 11.75486,-12.10613" stroke="url(#color-42)"/></g><path d="M491.82955,92.257c0,-6.46302 -14.08027,-19.28214 -12.41911,-22.28229c2.09382,-3.7815 20.36317,3.08996 24.42637,2.54913c4.95184,-0.6591 11.08882,0.15228 17.73495,0.15228c6.95168,0 13.70254,-0.6458 19.17745,0.46905c3.27041,0.66595 20.28947,-4.24155 22.42019,-1.80618c2.73077,3.12122 -9.86659,14.31856 -9.86659,22.26839c0,13.19826 0.6344,42.38384 -6.01445,56.80432c-5.71214,12.38887 -18.1259,11.12108 -25.7166,11.12108c-6.37948,0 -20.9684,-2.42679 -25.81181,-12.11876c-7.6276,-15.2634 -3.93041,-42.14945 -3.93041,-57.15702z" fill="#dadada" stroke="#000000" stroke-width="0" stroke-linecap="butt"/><path d="M494.19831,115.20134c0,-18.31015 12.18559,-33.15346 27.21726,-33.15346c15.03168,0 27.21727,14.84331 27.21727,33.15346c0,18.31015 -12.18559,33.15346 -27.21727,33.15346c-15.03168,0 -27.21726,-14.84331 -27.21726,-33.15346z" fill="#ababab" stroke="url(#color-43)" stroke-width="0" stroke-linecap="butt"/><path d="M545.26941,160.57822c-4.1418,-26.38943 3.86691,-86.44855 7.08649,-93.9018c5.3946,-12.48834 18.57781,-11.62672 29.1367,-10.68879c6.19494,0.55029 -7.81275,49.56532 -20.34644,81.12161c-5.96589,15.02044 11.62027,48.52401 11.62027,48.52401c0,0 -23.34886,1.37525 -27.49706,-25.05504z" fill="#801d1d" stroke="url(#color-44)" stroke-width="0" stroke-linecap="butt"/><path d="M470.98269,188.83933c0,0 17.58618,-33.50356 11.62027,-48.524c-12.53368,-31.5563 -26.54137,-80.57133 -20.34643,-81.12162c10.55892,-0.93792 23.74212,-1.79955 29.13669,10.68879c3.21958,7.45324 11.2283,67.51237 7.0865,93.9018c-4.1482,26.43027 -27.49705,25.05504 -27.49705,25.05504z" fill="#801d1d" stroke="url(#color-45)" stroke-width="0" stroke-linecap="butt"/><g stroke="#000000" stroke-width="0" stroke-linecap="butt"><path d="M508.39138,75.91646l-6.74392,-15.7489l3.72851,-1.5966l6.74392,15.7489z" fill="#2f323e"/><path d="M498.72164,60.51264c-3.06115,-2.0933 -7.79175,-12.47347 -7.79175,-12.47347l12.65006,-5.5561c0,0 3.82659,10.3834 3.86804,13.92866c0.02794,2.39055 -2.2862,3.08426 -3.9047,3.77731c-1.20601,0.51642 -3.52553,1.20987 -4.82164,0.32356z" fill="#2f323e"/><g><path d="M521.03354,22.33826c-2.25814,-2.83174 -4.40699,-3.90255 -6.15831,-6.05057c-1.65255,-2.02688 -2.92978,-5.16526 -4.30512,-6.6838c-3.39891,-3.75281 -6.05095,-6.18386 -7.26725,-9.04362c-0.75945,-1.78568 -0.38393,-5.40364 -0.56404,-7.10289c-0.19709,-1.85943 4.79283,-4.2272 8.4849,-4.02327c3.21438,0.17753 4.83495,2.6195 8.95116,5.03574c1.84141,1.08091 6.70732,3.43527 8.50096,4.97031c2.97483,2.54593 3.33803,4.85014 5.27406,7.9318c1.62209,2.58198 5.76096,5.64482 7.73145,8.61441c0.91963,1.3859 -0.08883,2.69647 0.59912,4.02836c0.83051,1.60789 4.91027,6.07298 5.57808,7.5545c1.89636,4.20704 0.99102,6.147 1.42989,9.07847c0.52089,3.47922 5.23735,9.37511 4.83321,11.72466c-0.59041,3.43243 -5.42262,6.11252 -7.23853,7.05048c-1.78278,0.92083 -3.43345,3.7232 -6.15338,2.49787c-2.10455,-0.9481 -5.06261,-4.2752 -7.85223,-8.07895c-1.66252,-2.26688 -2.52791,-1.95078 -4.20803,-4.83812c-1.00318,-1.724 -2.76131,-6.34181 -3.86658,-8.48173c-1.86514,-3.611 1.36617,-7.74356 -3.76938,-14.18365z" fill="#a3a3a3"/><path d="M506.2306,-4.63069c1.31757,-1.02662 4.41427,0.74465 6.91665,3.95624c2.5024,3.2116 3.46288,6.64735 2.14531,7.67396c-1.31756,1.02662 -4.41428,-0.74464 -6.91668,-3.95623c-2.50241,-3.2116 -3.4629,-6.64735 -2.14531,-7.67399z" fill="#0d0d0d"/></g><path d="M509.06809,-1.79353c1.01504,-0.03903 2.3493,0.98478 3.02151,1.77318c0.48213,0.56551 1.26628,1.75471 1.27858,2.44547c0.07504,4.20965 -8.12142,9.34016 -11.05972,5.8939c-2.74822,-3.22334 2.60971,-9.9529 6.75961,-10.11254z" fill="#2f323e"/><g><path d="M474.6692,59.50771c0.78596,2.27667 2.9147,6.73573 3.47011,8.65148c0.9302,3.20847 0.1042,3.61665 0.59753,6.3842c0.82777,4.64386 1.19437,9.08067 0.42818,11.25804c-0.9902,2.81405 -4.15748,2.07479 -6.05416,2.72958c-1.93196,0.66694 -7.20628,2.31464 -10.09785,0.37324c-1.97933,-1.32895 -2.99154,-8.81105 -5.15007,-11.58898c-1.81869,-2.34059 -3.84745,-3.02416 -5.58353,-7.29981c-0.61137,-1.50568 -1.02743,-7.53963 -1.61798,-9.25027c-0.48918,-1.41703 -2.13359,-1.59159 -2.50197,-3.21353c-0.78936,-3.47539 -0.14981,-8.5844 -0.89904,-11.54015c-0.89425,-3.52778 -2.31117,-5.38074 -2.10083,-9.29063c0.12682,-2.35743 1.78083,-7.50371 2.26928,-9.5823c1.09188,-4.64644 0.4429,-7.50442 2.53265,-9.95329c2.40028,-2.81277 7.5574,-4.79011 8.76711,-3.36429c1.10552,1.303 3.98307,3.52795 4.75128,5.30984c1.23034,2.85376 1.15956,6.45074 1.53001,11.50039c0.1499,2.04327 1.53979,5.13339 1.86627,7.72814c0.34601,2.74979 -0.36191,5.04394 0.12916,8.63236c1.11683,8.16094 6.33757,8.67422 7.66382,12.51597z" fill="#a3a3a3"/><path d="M461.77607,24.51581c0.59742,4.02734 -0.25768,7.49083 -1.90993,7.73592c-1.65226,0.24509 -3.47595,-2.821 -4.07337,-6.84833c-0.59742,-4.02734 0.25767,-7.49083 1.90993,-7.73592c1.65226,-0.24508 3.47595,2.821 4.07337,6.84833z" fill="#0d0d0d"/></g><path d="M469.78132,23.76541c0.46648,4.50473 -8.90295,6.8962 -11.89777,3.93686c-0.49142,-0.4856 -0.81096,-1.87375 -0.88751,-2.61294c-0.1067,-1.03054 0.0731,-2.70272 0.80182,-3.41038c2.97935,-2.89323 11.54713,-2.12687 11.98344,2.08646z" fill="#2f323e"/><path d="M526.52285,38.48392c0.32505,0.75906 -10.84236,11.91281 -24.3054,17.67721c-13.44247,5.75558 -29.1801,6.12297 -29.50464,5.36507c-0.32344,-0.75532 14.99821,-1.84213 28.39316,-7.58177c13.50691,-5.78762 25.09072,-16.22214 25.41687,-15.46048z" fill="#686e88"/><path d="M526.16443,38.18878c0.90163,2.1056 8.12225,26.63896 -16.09371,37.0086c-24.21595,10.36964 -37.31808,-13.03637 -38.21974,-15.14197c-0.90163,-2.1056 10.73866,17.8866 34.95461,7.51696c24.21595,-10.36964 18.45719,-31.48918 19.35885,-29.3836z" fill="#dadada"/><path d="M502.55919,65.31716l-6.40566,-14.95898l5.61552,-2.40464l6.40566,14.959z" fill="#24262f"/><path d="M462.72638,44.58897c-6.87998,-16.06664 0.5673,-34.66852 16.63392,-41.54851c16.06661,-6.87997 34.66852,0.56728 41.54851,16.63392c6.87997,16.06661 -51.30243,40.9812 -58.1824,24.91459z" fill="#dadada"/><path d="M467.27294,39.48846c-2.95925,-6.91065 0.24401,-14.91177 7.15465,-17.87103c6.91065,-2.95925 14.91179,0.24398 17.87103,7.15464c2.95925,6.91065 -0.24401,14.91176 -7.15466,17.87103c-6.91065,2.95925 -14.91178,-0.24401 -17.87103,-7.15465z" fill="#000000"/><path d="M487.84277,31.25799c-2.95925,-6.91065 0.24399,-14.91177 7.15465,-17.87101c6.91065,-2.95926 14.91177,0.24402 17.87103,7.15465c2.95925,6.91065 -0.24398,14.91176 -7.15465,17.87102c-6.91065,2.95925 -14.91176,-0.24399 -17.87103,-7.15465z" fill="#000000"/><path d="M526.42115,21.24678c1.71871,4.16259 -2.41089,19.81669 -26.8239,30.2707c-24.41297,10.45401 -37.99124,1.59994 -39.81988,-2.51555c-5.66692,-12.75357 8.98723,-2.02217 33.4002,-12.4762c24.41297,-10.45401 27.70099,-28.70268 33.24358,-15.27898z" fill="#ababab"/><path d="M485.43387,43.39436c-4.68476,-10.94019 -9.91329,-38.73065 -6.60246,-40.1484c3.31083,-1.41774 19.89054,18.83886 24.5753,29.77905c4.68476,10.94019 -13.28809,21.30954 -17.97283,10.36937z" fill="#ababab"/><path d="M503.56806,31.47427c0.34645,0.80903 -0.05294,12.3019 -5.75,14.74147c-5.69706,2.43957 -14.53446,-5.09792 -14.88092,-5.90698c-0.34645,-0.80904 20.28449,-9.64353 20.63092,-8.83448z" fill="#1d1d1d"/><g><path d="M490.69535,-31.50392c1.55646,3.63476 -7.08471,10.82187 -19.30062,16.0529c-12.21587,5.23103 -23.38055,6.52506 -24.93702,2.89033c-0.25743,-0.60122 -0.7645,-2.48696 1.08351,-3.7544c7.13914,-4.89633 29.03624,-14.10009 38.94961,-16.25717c3.03434,-0.66025 3.90007,0.35743 4.2045,1.06835z" fill="#101010"/><path d="M490.69112,-30.87062c3.34566,7.81306 7.73549,20.77974 1.72523,29.54348c-4.26715,6.22206 -17.73981,9.30851 -22.81112,11.48012c-12.21424,5.23033 -17.42478,-8.72275 -23.1458,-22.0829c-2.05953,-4.80955 3.42127,-1.8988 10.18185,-6.38749c5.66067,-3.75839 15.35179,-4.80193 20.87813,-8.69272c6.20766,-4.37044 11.23467,-8.38402 13.17172,-3.86049z" fill="#0d0d0d"/></g><g><path d="M506.90637,-9.89493c0.36473,0.85176 -11.86112,6.90414 -27.30721,13.51838c-15.44608,6.61425 -28.26327,11.28568 -28.628,10.43392c-0.36473,-0.85176 11.86112,-6.90413 27.30719,-13.51838c15.44608,-6.61424 28.26328,-11.28568 28.62802,-10.43392z" fill="#101010"/><path d="M506.66561,-9.64386c0.78402,1.83085 0.80057,5.30282 -9.10631,10.99562c-7.03366,4.04176 -23.06885,10.27962 -29.48118,13.02549c-15.44403,6.61337 -15.99962,3.05874 -17.34026,-0.072c-0.48261,-1.12703 6.98944,-2.12216 16.13181,-6.4105c7.65492,-3.59066 17.91674,-6.9623 25.4726,-10.55503c8.48737,-4.03565 13.86943,-8.04359 14.32335,-6.98359z" fill="#0d0d0d"/></g><path d="M497.38109,-11.11464c0.29582,0.69078 1.7426,2.62495 0.28876,3.91574c-1.23137,1.09325 -3.56961,1.97227 -6.19549,3.37328c-2.69202,1.4363 -5.69666,3.39713 -8.97009,4.71693c-1.65271,0.66635 -3.22708,0.41424 -4.87304,1.11908c-2.48428,1.06381 -5.16631,2.84466 -8.06436,3.92914c-2.51686,0.94182 -5.26614,1.19622 -7.3243,2.02224c-2.55651,1.026 -3.86928,2.17352 -5.44647,2.40254c-2.65936,0.38616 -1.93694,-2.28654 -2.29296,-3.11791c-0.2985,-0.69707 -2.21031,-2.88498 -0.72917,-4.1917c1.37221,-1.2106 3.82713,-3.1904 7.15697,-4.38588c2.42679,-0.87124 5.48871,-0.92803 8.0971,-1.92325c2.02265,-0.77175 3.24132,-1.77471 5.22499,-2.62416c1.98726,-0.85097 4.15025,-1.15018 6.23424,-2.24713c2.45326,-1.29129 4.63978,-3.34295 6.86738,-4.66628c3.12842,-1.85848 6.10226,-2.83063 7.94749,-3.0589c2.37489,-0.29379 1.74581,3.95834 2.07895,4.73634z" fill="#801d1d"/></g><path d="M488.53908,204.71036c5.97998,-4.12478 61.70583,-7.24108 68.51266,0.83424c5.44245,6.45666 12.49312,79.35868 4.8009,94.84493c-6.15278,12.38699 -37.99382,-0.38729 -37.99382,-0.38729c0,0 0.65628,-56.77414 -2.77377,-56.77598c-3.35806,-0.00179 -3.42884,56.93897 -3.42884,56.93897c0,0 -35.35467,-3.71492 -39.47357,-3.47587c-8.33882,0.48401 0.6529,-85.28587 10.35641,-91.979z" fill="#0d0d0d" stroke="url(#color-46)" stroke-width="0" stroke-linecap="butt"/><path d="M484.79618,214.17037c0,-4.83067 3.91602,-8.74668 8.74669,-8.74668c4.83067,0 8.74668,3.91601 8.74668,8.74668c0,4.83067 -3.91601,8.74668 -8.74668,8.74668c-4.83067,0 -8.74669,-3.91602 -8.74669,-8.74668z" fill="#e1f194" stroke="url(#color-47)" stroke-width="0" stroke-linecap="butt"/><path d="M540.77496,214.17037c0,-4.83067 3.91602,-8.74668 8.74668,-8.74668c4.83066,0 8.74668,3.91601 8.74668,8.74668c0,4.83067 -3.91602,8.74668 -8.74668,8.74668c-4.83066,0 -8.74668,-3.91602 -8.74668,-8.74668z" fill="#e1f194" stroke="url(#color-48)" stroke-width="0" stroke-linecap="butt"/><path d="M529.22669,390.943c0,-7.21573 2.09171,-16.73912 2.09171,-16.73912c0,0 23.77901,-13.21163 33.69017,-13.21163c17.12688,0 31.01096,13.88409 31.01096,31.01095c0,17.12688 -66.79284,16.0667 -66.79284,-1.06021z" fill="#272727" stroke="url(#color-49)" stroke-width="0" stroke-linecap="butt"/><path d="M449.71067,392.26827c0,-17.12688 13.88409,-31.01095 31.01095,-31.01095c9.91114,0 33.69018,13.21164 33.69018,13.21164c0,0 2.09171,9.52339 2.09171,16.73912c0,17.12688 -66.79284,18.18708 -66.79284,1.06021z" fill="#272727" stroke="url(#color-50)" stroke-width="0" stroke-linecap="butt"/></g></g></svg>