<svg version="1.1" xmlns="http://www.w3.org/2000/svg" xmlns:xlink="http://www.w3.org/1999/xlink" width="372.95993" height="81.33975" viewBox="0,0,372.95993,81.33975"><defs><radialGradient cx="265.61582" cy="180.0003" r="55.93405" gradientUnits="userSpaceOnUse" id="color-1"><stop offset="0" stop-color="#42b4ff"/><stop offset="1" stop-color="#4262ff"/></radialGradient></defs><g transform="translate(-201.33192,-139.33014)"><g stroke-miterlimit="10"><path d="M201.33192,220.66989v-81.33975h372.95993v81.33975z" fill-opacity="0.50196" fill="#000000" stroke="none" stroke-width="0"/><text transform="translate(326.7391,164.95991) scale(0.34041,0.34041)" font-size="40" xml:space="preserve" fill="#ffffff" stroke="none" stroke-width="1" font-family="&quot;VCR OSD Mono&quot;, Pixel" font-weight="normal" text-anchor="start"><tspan x="0" dy="0">[ GIVE US A HAND OF HELP ! ]</tspan></text><text transform="translate(330.78082,175.91505) scale(0.19059,0.19059)" font-size="40" xml:space="preserve" fill="#ffffff" stroke="none" stroke-width="1" font-family="&quot;VCR OSD Mono&quot;, Pixel" font-weight="normal" text-anchor="start"><tspan x="0" dy="0">Be One Of The Core Helpers Of The game</tspan><tspan x="0" dy="46.15px">Donating the game's creators !</tspan><tspan x="0" dy="46.15px"> </tspan><tspan x="0" dy="46.15px">Open In New tab &gt;&gt;</tspan></text><path d="M209.68178,210.9975v-61.9944h111.8681v61.9944z" fill="url(#color-1)" stroke="#000000" stroke-width="0"/><g><g><path d="M262.1697,166.64663c3.9362,-6.40938 12.32294,-8.41428 18.73231,-4.47808c6.40938,3.9362 8.41429,12.32294 4.47809,18.73232c-3.9362,6.40938 -12.32295,8.41428 -18.73232,4.47808c-6.40938,-3.9362 -8.41428,-12.32294 -4.47808,-18.73231z" fill="#bfd41f" stroke="#000000" stroke-width="0"/><text transform="translate(267.21929,176.5175) rotate(31.5554) scale(0.5,0.5)" font-size="40" xml:space="preserve" fill="#000000" stroke="none" stroke-width="1" font-family="&quot;Agency FB&quot;, Sans Serif" font-weight="normal" text-anchor="start"><tspan x="0" dy="0">$</tspan></text></g><path d="M244.11765,186.19404c2.38168,-9.01208 12.20972,-2.5515 12.20972,-2.5515c0,0 -0.29115,-12.15871 10.36445,-8.91841c10.69661,3.25276 -1.87009,25.12363 -1.87009,25.12363c0,0 -23.82458,-1.84599 -20.70408,-13.65371z" fill="#e01919" stroke="#000000" stroke-width="0"/></g></g></g></svg>