<svg version="1.1" xmlns="http://www.w3.org/2000/svg" xmlns:xlink="http://www.w3.org/1999/xlink" width="259.64804" height="292.82687" viewBox="0,0,259.64804,292.82687"><g transform="translate(-331.32979,-15.10607)"><g data-paper-data="{&quot;isPaintingLayer&quot;:true}" fill-rule="nonzero" stroke-linecap="butt" stroke-linejoin="miter" stroke-miterlimit="10" stroke-dasharray="" stroke-dashoffset="0" style="mix-blend-mode: normal"><g stroke="none" stroke-width="0"><path d="M414.5087,261.91409c0,0 4.36235,-17.24297 2.40525,-43.54184c-1.62029,-21.77293 -9.56286,-52.05409 -10.04985,-63.26591c-0.55992,-12.89091 1.6575,-31.03231 1.6575,-31.03231l42.92286,-3.55501c0,0 5.53491,19.79628 6.13511,33.61473c0.50254,11.57001 -8.39478,37.27111 -8.53307,58.80142c-0.1611,25.08097 8.38506,45.42391 8.38506,45.42391z" fill="#0c0c0c"/><path d="M419.66856,261.48674c0,0 3.18356,-17.14535 1.41438,-43.45978c-1.46471,-21.78582 -7.87887,-52.19355 -8.36586,-63.40538c-0.55992,-12.89091 0.96438,-30.9749 0.96438,-30.9749l32.9882,-2.73219c0,0 4.45673,19.88558 5.05694,33.70404c0.50254,11.57002 -6.08539,37.07983 -5.97611,58.58964c0.12729,25.05708 6.90629,45.54639 6.90629,45.54639z" fill="#080808"/><path d="M425.41866,261.0105c0,0 1.87681,-17.03712 0.31594,-43.36881c-1.29225,-21.8001 -6.01208,-52.34817 -6.49907,-63.55999c-0.55992,-12.89091 0.19603,-30.91127 0.19603,-30.91127l21.9751,-1.82005c0,0 3.2615,19.98457 3.86171,33.80302c0.50254,11.57002 -3.5253,36.8678 -3.14159,58.35488c0.447,25.0306 5.26698,45.68216 5.26698,45.68216z" fill="#131313"/><path d="M429.37059,260.68318c0,0 0.6755,-16.93762 -0.69387,-43.28517c-1.13371,-21.81324 -4.29591,-52.49031 -4.78289,-63.70213c-0.55992,-12.89091 -0.51033,-30.85276 -0.51033,-30.85276l11.85057,-0.9815c0,0 2.16272,20.07557 2.76292,33.89402c0.50254,11.57002 -1.17178,36.67287 -0.53577,58.13906c0.7409,25.00626 3.75994,45.80697 3.75994,45.80697z" fill="#181818"/></g><g data-paper-data="{&quot;index&quot;:null}" stroke="none" stroke-width="0"><g><g><path d="M377.21956,192.81965c-0.86736,-2.38787 0.36524,-5.02674 2.75311,-5.8941c2.38786,-0.86735 5.02673,0.36525 5.89409,2.75312c0.86737,2.38786 -0.36524,5.02673 -2.75311,5.89409c-2.38787,0.86736 -5.02675,-0.36525 -5.8941,-2.75311z" fill="#3d100e"/><path d="M387.18647,192.17832c0,0 6.87578,14.31251 0.50673,16.62598c-6.36905,2.31347 -9.7179,-13.28015 -9.7179,-13.28015c0,0 0.13756,-2.2254 3.94847,-3.77487c2.97982,-1.21156 5.2627,0.42904 5.2627,0.42904z" fill="#3e1a18"/></g><path d="M352.70713,201.9301l2.9587,-11.42305l24.85052,6.43656l-2.9587,11.42305z" fill="#3d100e"/><path d="M381.45129,197.80556c-1.911,7.37806 -28.82294,0.40758 -26.91194,-6.97049c1.911,-7.37806 7.75607,-13.89928 20.22148,-10.6706c7.43153,1.92485 8.60145,10.26302 6.69046,17.64108z" fill="#3e1a18"/><path d="M366.22069,201.91806c12.56193,3.05515 14.98751,-4.46272 13.58888,0.93717c-2.8529,11.0146 -2.86269,12.3161 -10.18228,10.68837c-3.08479,-0.68601 -2.83076,-2.94685 -2.83076,-2.94685c0,0 -0.33202,3.28809 -11.46797,-1.12892c-6.56162,-2.60263 -2.45789,-10.9029 -1.80565,-13.42113c1.39863,-5.39989 -1.32585,2.46071 12.69778,5.87136z" fill="#3e1a18"/></g><g><path d="M383.2918,147.26579c-5.36574,-1.65405 -8.37466,-7.34472 -6.72061,-12.71046c1.65406,-5.36575 7.34473,-8.37465 12.71046,-6.72061c5.36575,1.65405 8.37466,7.34472 6.72061,12.71046c-1.65406,5.36575 -7.34472,8.37465 -12.71046,6.72061z" fill="#3d100e"/><path d="M371.37307,186.49593c-11.04099,-3.51679 -11.19041,-7.26275 -11.19041,-7.26275l11.9731,-38.84071c0,0 1.77865,-4.73149 13.75018,-1.04113c11.38753,3.51034 10.45901,8.50389 10.45901,8.50389l-11.9731,38.84071c0,0 -2.67152,3.09581 -13.01878,-0.20002z" fill="#3e1a18"/></g><g><path d="M406.1544,90.04379c3.15702,-4.6433 9.48043,-5.84817 14.12373,-2.69115c4.6433,3.15703 5.84817,9.48044 2.69115,14.12374c-3.15702,4.6433 -9.48043,5.84817 -14.12373,2.69115c-4.6433,-3.15703 -5.84817,-9.48044 -2.69114,-14.12374z" fill="#3d100e"/><path d="M377.36674,127.93791l22.85257,-33.61124c0,0 3.08985,-4.00044 13.44955,3.04321c9.85432,6.70004 7.50014,11.20065 7.50014,11.20065l-22.85256,33.61125c0,0 -3.46293,2.17466 -12.38587,-4.01481c-9.52118,-6.60443 -8.56383,-10.22907 -8.56383,-10.22907z" fill="#3e1a18"/></g></g><g data-paper-data="{&quot;index&quot;:null}" stroke="none" stroke-width="0"><g><g><path d="M490.52078,226.75804c-2.25407,-1.17193 -3.1313,-3.94923 -1.95937,-6.20329c1.17193,-2.25407 3.94923,-3.1313 6.20329,-1.95938c2.25407,1.17193 3.1313,3.94923 1.95937,6.2033c-1.17192,2.25406 -3.94923,3.1313 -6.2033,1.95937z" fill="#3d100e"/><path d="M486.92642,222.86053c0,0 2.47767,-1.32825 5.27364,0.26228c3.57578,2.03413 3.42138,4.25843 3.42138,4.25843c0,0 -5.35765,15.02237 -11.36981,11.89653c-6.01216,-3.12583 2.67479,-16.41723 2.67479,-16.41723z" fill="#3e1a18"/></g><path d="M494.35747,240.16821l-1.44076,-11.71171l25.47849,-3.13434l1.44076,11.71171z" fill="#3d100e"/><path d="M500.81529,212.57326c12.78042,-1.57223 17.7233,5.65681 18.65387,13.22131c0.93057,7.5645 -26.66143,10.95884 -27.592,3.39433c-0.93057,-7.5645 1.31881,-15.67833 8.93813,-16.61565z" fill="#3e1a18"/><path d="M506.43982,235.25623c14.34905,-1.54904 12.67502,-9.69824 13.35609,-4.1619c0.31762,2.58186 3.30163,11.34718 -3.54381,13.07013c-11.61762,2.92409 -11.51716,-0.37919 -11.51716,-0.37919c0,0 -0.04356,2.27465 -3.19154,2.55171c-7.46952,0.65738 -7.30917,-0.63424 -8.69841,-11.92718c-0.68107,-5.53634 0.74141,2.23401 13.59484,0.84642z" fill="#3e1a18"/></g><g><path d="M496.65609,178.84193c-5.53586,0.93876 -10.78458,-2.78791 -11.72336,-8.32378c-0.93876,-5.53586 2.78791,-10.78459 8.32378,-11.72336c5.53586,-0.93876 10.78459,2.78791 11.72336,8.32378c0.93877,5.53586 -2.78792,10.78459 -8.32378,11.72336z" fill="#3d100e"/><path d="M503.34673,219.29307c-10.6892,1.91557 -12.93331,-1.50277 -12.93331,-1.50277l-6.79542,-40.07216c0,0 -0.26808,-5.07206 11.48049,-7.06438c12.35109,-2.09449 13.49626,2.82884 13.49626,2.82884l6.79542,40.07216c0,0 -0.6376,3.69432 -12.04345,5.73832z" fill="#3e1a18"/></g><g><path d="M476.95277,132.77424c-5.016,2.52324 -11.12777,0.50247 -13.65101,-4.51353c-2.52325,-5.01599 -0.50247,-11.12777 4.51352,-13.65102c5.01599,-2.52324 11.12776,-0.50247 13.65101,4.51353c2.52325,5.01599 0.50248,11.12777 -4.51352,13.65102z" fill="#3d100e"/><path d="M495.22883,169.47635c-9.65518,4.97051 -12.80427,2.36202 -12.80427,2.36202l-18.2649,-36.30908c0,0 -1.74593,-4.76963 8.89935,-10.12464c11.19123,-5.62963 13.73188,-1.25976 13.73188,-1.25976l18.26491,36.30907c0,0 0.47554,3.71865 -9.82697,9.0224z" fill="#3e1a18"/></g></g><g stroke="none" stroke-width="0"><path d="M405.83544,122.38302c0,0 11.76462,-48.25205 45.27789,-31.41585c33.17635,16.66693 3.46144,53.78546 3.46144,53.78546c0,0 -0.00469,0.19718 -0.02851,0.55486c-0.0683,0.02207 -0.13657,0.04484 -0.20481,0.06835c-1.71124,-0.34479 -3.66393,-0.41754 -5.31249,-0.97942c-1.80843,-0.61637 -2.58724,-1.78627 -4.60496,-1.7457c-0.79368,0.01609 -4.31384,0.79032 -4.82907,0.38676c-0.55487,-0.43461 -0.04036,-2.75607 -0.54825,-3.40576c-0.32775,-0.41925 -1.49976,-0.60736 -1.99114,-0.77598c-2.11593,-0.72611 -3.80835,-1.72566 -5.7005,-2.91365c-0.30828,-0.19355 -1.45497,-0.66544 -1.60289,-0.96302c-0.22431,-0.45126 0.18844,-1.34271 -0.06635,-1.94137c-0.12518,-0.28301 -0.46043,-1.37916 -0.73492,-1.49962c-0.4567,-0.20042 -1.5477,0.55781 -2.02851,0.62427c-2.1523,0.29749 -4.76629,-0.2555 -6.94294,-0.37012c-0.77571,-0.04085 -2.1998,0.16808 -2.89866,-0.13244c-0.4841,-0.20817 -0.27433,-1.36651 -0.47975,-1.74977c-0.7804,-1.45605 -2.83257,-2.29841 -3.86105,-3.78774c-1.69098,-2.44869 -3.49657,-1.79571 -6.15395,-2.04266c-0.44821,-0.04165 -1.63032,-0.01102 -2.31663,-0.18125c0.93102,-0.97706 1.56605,-1.51535 1.56605,-1.51535z" fill="#331514"/><g><g><path d="M453.60015,122.58822c-7.01778,-3.38046 -11.38755,-8.85964 -9.76016,-12.23809c1.6274,-3.37845 8.6357,-3.37682 15.65348,0.00364c3.48315,1.67783 -2.62728,6.18814 -2.62728,6.18814c0,0 0.26859,7.74895 -3.26604,6.04632z" fill="#270a09"/><path d="M445.304,111.05534c0.26825,-0.55688 0.93717,-0.79087 1.49405,-0.52262c0.55688,0.26825 6.70706,4.47309 6.70706,4.47309c0,0 -7.12161,-2.18817 -7.67849,-2.45642c-0.55688,-0.26825 -0.79087,-0.93716 -0.52262,-1.49405z" fill="#893834"/></g><g data-paper-data="{&quot;index&quot;:null}"><path d="M426.54664,101.937c0,0 -0.28195,-7.5895 3.20119,-5.91167c7.01778,3.38046 11.38757,8.85963 9.76017,12.23808c-1.6274,3.37845 -8.6357,3.37682 -15.65349,-0.00364c-3.53464,-1.70263 2.69213,-6.32277 2.69213,-6.32277z" fill="#270a09"/><path d="M436.54995,108.08083c-0.55688,-0.26825 -6.70706,-4.47309 -6.70706,-4.47309c0,0 7.12161,2.18817 7.67849,2.45642c0.55688,0.26825 0.79087,0.93716 0.52262,1.49405c-0.26825,0.55688 -0.93717,0.79087 -1.49405,0.52262z" fill="#893834"/></g><path d="M435.82566,106.48963c1.55586,-3.22995 5.43552,-4.58706 8.66548,-3.0312c3.22995,1.55586 4.58706,5.43552 3.0312,8.66548c-1.55586,3.22995 -5.43552,4.58706 -8.66548,3.0312c-3.22995,-1.55586 -4.58706,-5.43552 -3.0312,-8.66548z" fill="#270a09"/></g><g><g><path d="M456.04766,121.95219c-7.8378,-3.77546 -12.71819,-9.89488 -10.90063,-13.6681c1.81756,-3.77322 9.64478,-3.7714 17.48258,0.00406c3.89015,1.87388 -2.93427,6.91121 -2.93427,6.91121c0,0 0.29998,8.65441 -3.64768,6.75283z" fill="#272727"/><path d="M446.7821,109.0717c0.2996,-0.62196 1.04666,-0.88329 1.66862,-0.58369c0.62196,0.2996 7.49078,4.99577 7.49078,4.99577c0,0 -7.95376,-2.44385 -8.57572,-2.74345c-0.62196,-0.2996 -0.88329,-1.04666 -0.58369,-1.66862z" fill="#141414"/></g><g data-paper-data="{&quot;index&quot;:null}"><path d="M425.83297,98.88788c0,0 -0.3149,-8.47633 3.57525,-6.60245c7.8378,3.77546 12.71818,9.89487 10.90062,13.66809c-1.81756,3.77322 -9.64477,3.77139 -17.48257,-0.00407c-3.94766,-1.90158 3.0067,-7.06159 3.0067,-7.06159z" fill="#272727"/><path d="M437.00515,105.74962c-0.62196,-0.2996 -7.49078,-4.99577 -7.49078,-4.99577c0,0 7.95377,2.44386 8.57572,2.74345c0.62196,0.2996 0.88329,1.04666 0.58369,1.66862c-0.2996,0.62196 -1.04666,0.88329 -1.66862,0.58369z" fill="#141414"/></g><path d="M436.19623,103.9725c1.73766,-3.60736 6.07067,-5.12305 9.67802,-3.38539c3.60736,1.73766 5.12305,6.07067 3.38539,9.67802c-1.73766,3.60736 -6.07067,5.12305 -9.67802,3.38539c-3.60736,-1.73766 -5.12305,-6.07067 -3.38539,-9.67802z" fill="#1f1f1f"/></g><g><path d="M433.50229,120.01151c0.73615,-1.52824 2.5718,-2.17036 4.10005,-1.43421c1.52824,0.73615 2.17036,2.5718 1.43421,4.10005c-0.73615,1.52824 -2.57181,2.17036 -4.10005,1.43421c-1.52824,-0.73615 -2.17036,-2.5718 -1.43421,-4.10005z" fill="#270a09"/><path d="M433.99826,118.98188c0.73615,-1.52824 2.5718,-2.17036 4.10005,-1.43421c1.52824,0.73615 2.17036,2.5718 1.43421,4.10005c-0.73615,1.52824 -2.57181,2.17036 -4.10005,1.43421c-1.52824,-0.73615 -2.17036,-2.5718 -1.43421,-4.10005z" fill="#1f1f1f"/></g><g><path d="M429.53453,128.24853c0.73615,-1.52824 2.5718,-2.17036 4.10005,-1.43421c1.52824,0.73615 2.17036,2.5718 1.43421,4.10005c-0.73615,1.52824 -2.57181,2.17036 -4.10005,1.43421c-1.52824,-0.73615 -2.17036,-2.5718 -1.43421,-4.10005z" fill="#270a09"/><path d="M430.03049,127.21891c0.73615,-1.52824 2.5718,-2.17036 4.10005,-1.43421c1.52824,0.73615 2.17036,2.5718 1.43421,4.10005c-0.73615,1.52824 -2.57181,2.17036 -4.10005,1.43421c-1.52824,-0.73615 -2.17036,-2.5718 -1.43421,-4.10005z" fill="#1f1f1f"/></g><path d="M460.43394,101.46923c-1.04859,2.17686 -7.34397,1.31854 -14.06113,-1.91711c-6.71716,-3.23565 -11.31244,-7.62335 -10.26385,-9.80021c1.04859,-2.17686 7.34397,-1.31854 14.06113,1.91711c6.71716,3.23565 11.31244,7.62335 10.26385,9.80021z" fill="#3d100e"/><path d="M452.9903,97.14366c-0.59919,1.24392 -3.06812,1.29702 -5.51448,0.11861c-2.44637,-1.17842 -3.9438,-3.1421 -3.34461,-4.38602c0.59919,-1.24392 3.06812,-1.29702 5.51448,-0.11861c2.44637,1.17842 3.9438,3.1421 3.34461,4.38602z" fill="#3d100e"/><path d="M452.70099,97.74428c-0.59919,1.24392 -3.06812,1.29702 -5.51448,0.11861c-2.44637,-1.17842 -3.9438,-3.1421 -3.34461,-4.38602c0.59919,-1.24392 3.06812,-1.29702 5.51448,-0.11861c2.44637,1.17842 3.9438,3.1421 3.34461,4.38602z" fill="#0b0404"/></g><g stroke="none" stroke-width="0"><path d="M476.81955,116.0096c-4.03584,6.75646 -12.91054,9.92609 -34.82139,-3.61881c-22.37693,-13.83302 -23.94397,-22.31637 -19.90812,-29.07283c4.03584,-6.75646 17.76152,-3.95074 33.88219,5.67864c16.12068,9.62938 24.88317,20.25653 20.84732,27.01299z" fill="#3e1a18"/><path d="M475.07454,113.25491c-3.06884,5.13759 -15.09151,2.27836 -29.7401,-6.4717c-14.64859,-8.75006 -23.06054,-18.09706 -19.9917,-23.23464c3.06884,-5.13759 15.18906,-1.99865 29.83765,6.7514c14.6486,8.75006 22.96299,17.81736 19.89416,22.95495z" fill="#000000"/></g><g stroke="none" stroke-width="0"><path d="M474.84071,32.11875l6.80346,-16.57171l26.61575,15.89841l-11.51825,13.75542z" fill="#141414"/><path d="M501.29378,48.3327c-0.7108,1.18996 -8.27506,-2.01957 -16.89524,-7.16867c-8.62018,-5.1491 -15.03202,-10.28793 -14.32122,-11.47789c0.7108,-1.18996 8.27506,2.01957 16.89525,7.16867c8.62019,5.14911 15.03202,10.28793 14.32122,11.47789z" fill="#212121"/><path d="M508.35076,31.29335c-0.7108,1.18996 -7.24516,-1.40437 -14.59489,-5.79459c-7.34974,-4.39023 -12.73166,-8.91385 -12.02086,-10.10381c0.7108,-1.18995 7.24515,1.40437 14.59488,5.7946c7.34974,4.39023 12.73166,8.91385 12.02086,10.10381z" fill="#212121"/><path d="M494.04066,44.79982c-0.29477,0.49348 -4.43205,-1.43506 -9.24088,-4.30752c-4.80883,-2.87247 -8.4682,-5.6011 -8.17342,-6.09458c0.29477,-0.49348 4.43205,1.43505 9.24089,4.30752c4.80883,2.87247 8.46819,5.6011 8.17342,6.09458z" fill="#141414"/></g><path d="M422.45478,65.88825c0,0 15.15602,-25.3729 21.04658,-35.23436c3.21581,-5.38363 10.34259,-9.30444 17.8902,-5.08722c7.9907,4.46479 33.15033,19.80172 47.21762,28.20455c8.18285,4.88787 8.41407,11.75193 5.07187,17.34715c-5.92399,9.91744 -21.68759,36.30749 -21.68759,36.30749c0,0 -3.21708,4.65639 -19.20089,-1.49944c0.16742,-0.34609 1.24747,-3.54523 1.24747,-3.54523c0,0 -2.3545,2.47917 -2.56691,2.83477c-0.03077,0.05152 -0.05466,0.10525 -0.0719,0.1601c-0.57532,-0.23341 -1.16609,-0.48016 -1.7727,-0.74086c0.14714,-0.34038 0.20854,-1.79915 0.20854,-1.79915c0,0 -1.32888,0.76216 -1.54129,1.11777c-0.01543,0.02582 -0.02912,0.0522 -0.04111,0.07898c-1.27524,-0.57001 -6.60006,-2.76979 -6.60006,-2.76979l-0.161,-1.1459c0,0 -0.42142,0.34999 -0.50709,0.29881c-0.11152,-0.06662 -0.23335,-0.10093 -0.35462,-0.10567c-2.66333,-1.39971 -5.54564,-3.0083 -8.66408,-4.85356c-2.28175,-1.35017 -5.89987,-4.64019 -5.89987,-4.64019c0,0 -0.59953,0.49638 -0.73037,0.41823c-0.11467,-0.0685 -0.24024,-0.10283 -0.3649,-0.10599c-3.23542,-2.10074 -6.01724,-4.06324 -8.40788,-5.89016c0.11284,-0.06201 0.21118,-0.15393 0.28197,-0.27244c0.21242,-0.35561 0.27211,-2.13474 0.27211,-2.13474c0,0 -1.34745,1.00992 -1.55986,1.36553c-0.03785,0.06337 -0.06527,0.13006 -0.08276,0.19809c-16.08969,-12.64837 -13.02148,-18.50676 -13.02148,-18.50676z" fill="#3e1a18" stroke="none" stroke-width="0"/><path d="M427.24893,59.22735c2.71889,-4.55173 8.61288,-6.03753 13.1646,-3.31865c4.55173,2.71889 6.03754,8.61287 3.31865,13.1646c-2.71889,4.55173 -8.61287,6.03754 -13.1646,3.31865c-4.55173,-2.71889 -6.03754,-8.61287 -3.31865,-13.1646z" fill="#270a09" stroke="none" stroke-width="0"/><path d="M464.56601,61.20313c-5.24933,8.78797 -13.24784,9.62814 -20.06358,5.55689c-6.81573,-4.07125 -9.86769,-11.5122 -4.61836,-20.30017c5.24933,-8.78797 12.80231,-8.88227 19.61805,-4.81102c6.81573,4.07125 10.31322,10.76632 5.06389,19.5543z" fill="#270a09" stroke="none" stroke-width="0"/><path d="M479.08544,69.07162c-1.36888,2.29167 -6.22614,1.91089 -10.84898,-0.85047c-4.62284,-2.76136 -7.2607,-6.85766 -5.89181,-9.14933c1.36888,-2.29167 6.22614,-1.91089 10.84898,0.85047c4.62284,2.76136 7.2607,6.85765 5.89182,9.14932z" fill="#270a09" stroke="none" stroke-width="0"/><path d="M482.42093,103.36597c-4.55173,-2.71889 -6.03753,-8.61288 -3.31865,-13.1646c2.71888,-4.55172 8.61287,-6.03754 13.1646,-3.31865c4.55173,2.71889 6.03753,8.61288 3.31865,13.1646c-2.71888,4.55172 -8.61287,6.03753 -13.16459,3.31864z" data-paper-data="{&quot;index&quot;:null}" fill="#270a09" stroke="none" stroke-width="0"/><path d="M444.43984,66.25688c0.42925,0.25641 0.17284,0.68566 0.17284,0.68566l-0.16047,0.23954c-0.15743,0.13834 -0.33962,0.24168 -0.53048,0.33279c0.75965,1.34401 1.64832,2.7785 1.87022,2.41193c0.96744,-0.83219 1.8903,-1.6071 2.5374,-2.71344c0.10974,-0.18762 0.22731,-0.38094 0.34723,-0.57922c0.02235,-0.1578 0.03913,-0.29467 0.04736,-0.40363c0.01222,-0.16178 0.02353,-0.32387 0.03399,-0.48625c-1.1483,-0.32529 -2.29451,-0.69684 -3.39606,-1.08569c-0.60469,-0.19826 -1.1976,-0.41417 -1.77202,-0.65327c-0.26868,-0.10315 -0.53281,-0.20641 -0.79165,-0.30925c-1.88362,1.35987 -4.07663,2.84153 -5.98432,2.62571c0.18379,-1.58547 0.85553,-3.03561 1.8054,-4.40241c-0.3333,-0.20589 -0.58578,-0.42034 -0.68308,-0.63408c-0.14928,-0.32789 0.08842,-0.86459 0.34837,-1.31767l-0.23679,0.02497l-0.01504,-0.14257c-1.27158,0.18586 -2.37665,-0.08699 -3.83148,-0.24983l-0.98308,-0.11039c-0.07246,-0.00651 -0.14464,-0.02902 -0.21128,-0.06882c-0.23707,-0.14161 -0.31445,-0.44859 -0.17285,-0.68566c0.02199,-0.03681 0.04796,-0.06977 0.07704,-0.09866l0.46359,-0.48052l0.14309,0.13807c1.25725,-1.06459 2.88444,-0.56418 4.66847,-0.20413c1.02702,0.20727 2.15705,0.36042 3.27426,0.54721c0.13576,-0.13529 0.27269,-0.27014 0.41053,-0.40458c-2.16715,-0.97784 -4.19498,-2.16772 -5.38904,-3.79474c-0.76847,-1.04713 -0.75739,-3.80517 0.83599,-4.28072c0.13568,-0.04049 0.29057,-0.05704 0.45689,-0.05698c-0.08816,-0.22234 -0.14005,-0.45947 -0.14838,-0.71236c2.11248,-1.31216 4.8538,-2.87145 7.27235,-3.45146c1.08189,-0.25946 1.95203,0.09527 2.59876,-1.02723c0.25522,-0.44296 -0.93435,-1.37874 -1.09541,-1.53576c-0.87132,-0.84944 -1.46499,-1.50644 -1.94804,-2.38802l-0.09173,0.05862l-0.5327,-0.83348c-0.10408,-0.15555 -0.11613,-0.36344 -0.01378,-0.5348c0.12616,-0.21121 0.38358,-0.29568 0.60588,-0.21145l0.83074,0.29625l-0.00066,0.00183l0.00787,0.0008c1.11051,0.43488 2.43036,0.94433 3.74553,1.55412c0.16707,-1.82951 0.42067,-3.64753 0.80344,-5.44903l0.11081,-0.50332c0.01078,-0.05511 0.03111,-0.10933 0.06156,-0.16031c0.14161,-0.23707 0.44859,-0.31445 0.68566,-0.17284c0.13931,0.08322 0.22348,0.22354 0.24047,0.37323l0.12165,0.98738l-0.03394,0.00418c0.58509,1.58969 1.10114,3.29617 1.55771,5.05474c0.50108,-1.34777 0.97991,-2.87897 1.79799,-3.89115l-0.20275,-0.20196l0.47758,-0.47946c0.15756,-0.16524 0.41376,-0.20583 0.61804,-0.08381c0.1931,0.11534 0.28025,0.34039 0.22943,0.54801l-0.12248,0.55629c-0.28173,1.27953 -0.589,2.5528 -0.89153,3.82756c-0.21435,0.90318 -0.42593,1.8101 -0.63315,2.71985c0.04541,0.04693 0.09007,0.09419 0.13395,0.14181c0.97143,-1.49447 1.91825,-3.00557 2.83366,-4.53808l0.34188,-0.57234c0.14161,-0.23707 0.44858,-0.31445 0.68565,-0.17284c0.18206,0.10875 0.26996,0.31505 0.23679,0.51231l-0.14151,0.97823l-0.06842,-0.0099c0.09187,2.69996 -0.39126,5.50941 -1.19059,8.25209c0.30446,0.49112 0.62966,1.00541 0.81086,1.23109c1.14939,-1.49177 2.21522,-3.06895 3.24631,-4.82561c0.63093,-1.07489 1.07286,-3.21523 2.06475,-4.06074c0.00674,-0.02479 0.01341,-0.04964 0.02001,-0.07452l-0.11526,-0.06884l0.51281,-0.8585c0.14161,-0.23707 0.44859,-0.31445 0.68566,-0.17285c0.23707,0.14161 0.31445,0.44859 0.17285,0.68566l-0.22488,0.37648c-0.53422,2.56284 -1.85946,4.61165 -2.9737,6.88583c0.81714,-0.622 1.58761,-1.2845 2.22454,-1.98509c0.48609,-0.53468 0.7904,-1.19284 1.20441,-1.7471c0.13145,-0.30015 0.26291,-0.60032 0.39435,-0.90047l0.01129,-0.01047l-0.00493,-0.00251l0.32588,-0.64078c0.00573,-0.01153 0.01196,-0.02293 0.01867,-0.03417c0.14161,-0.23707 0.44859,-0.31445 0.68566,-0.17285c0.20428,0.12202 0.29,0.36684 0.2192,0.58391l-0.28626,0.94723l-0.15171,-0.04585c-0.10164,0.23221 -0.20327,0.46441 -0.3049,0.69661c-0.73257,1.87256 -1.30618,3.68335 -1.79175,5.63447c-0.13703,0.55059 -0.23447,1.11302 -0.28572,1.67821c1.47783,-1.79408 3.12744,-3.52842 4.72889,-4.54319l0.06611,-0.00438l-0.00618,-0.01924l0.55398,-0.17797c0.13267,-0.04335 0.28268,-0.03124 0.41192,0.04596c0.21099,0.12603 0.29551,0.38308 0.21169,0.60523l-0.26471,0.7458c0.29716,0.30362 0.01626,0.65074 0.01626,0.65074c-0.42493,0.5206 -0.89766,1.00437 -1.4088,1.45718c-0.80318,0.90055 -1.85362,1.61594 -3.03588,2.29814c-0.51483,0.29707 -0.95782,1.014 -1.51241,1.02541c1.4041,0.71566 2.73494,1.69456 3.86581,2.81256c1.42644,-0.29947 2.89105,-0.51553 3.27824,-0.13669c0.532,0.52052 -0.7844,2.92258 -0.26521,3.73348c0.48659,0.75999 2.74039,0.63731 2.97598,1.52553c0.17584,0.66292 -0.84539,1.09276 -1.25376,1.30357c-0.86038,0.44415 -1.60759,0.81972 -2.38521,0.85453c-0.4623,0.66905 -1.21955,1.15261 -2.30175,1.3067c-1.9129,0.51147 -4.37793,0.70199 -6.13623,1.63867c-0.5999,0.31959 -0.64404,1.509 -1.31019,1.69155c-0.48712,0.13349 -2.22262,-0.96355 -2.61034,-1.19452c-0.57702,-0.34374 -1.15381,-0.68782 -1.73049,-1.03212c-0.07494,0.25513 -0.15731,0.50976 -0.24759,0.76384l-0.0405,0.0332l0.01733,0.01035l-0.34187,0.57233c-0.14161,0.23707 -0.44859,0.31445 -0.68566,0.17284c-0.20428,-0.12202 -0.29,-0.36683 -0.2192,-0.5839l0.2732,-0.90401c-0.03347,-0.00902 -0.067,-0.01801 -0.1006,-0.02697c-0.93152,-0.11293 -1.90899,-0.29367 -2.90384,-0.5228c-0.29601,1.66045 -0.70507,3.27275 -1.58893,4.76202l-0.34187,0.57232c-0.14161,0.23707 -0.44859,0.31445 -0.68566,0.17285c-0.23707,-0.14161 -0.31445,-0.44859 -0.17284,-0.68566l0.34187,-0.57233c0.01633,-0.02712 0.03246,-0.0543 0.04842,-0.08151c-0.08563,-0.39708 -0.06152,-0.98269 0.00458,-1.60038c-0.67699,0.74393 -1.36749,1.38653 -1.91569,1.85847c-1.39569,0.96092 -2.59539,-0.78894 -3.47911,-2.56817c-0.12436,0.03163 -0.2608,0.01567 -0.37966,-0.05532c-0.11989,-0.07161 -0.19893,-0.18551 -0.22947,-0.31128l-0.17525,-0.71966l0.0117,-0.00285l-0.01987,-0.03798c-0.01477,-0.19926 -0.01983,-0.40839 -0.00447,-0.61511c-0.12826,-0.2915 -0.24268,-0.54826 -0.34232,-0.7498l0.10495,-0.16817l-0.08603,-0.02601l0.19556,-0.64707c0.01172,-0.04204 0.02916,-0.08322 0.05261,-0.12249c0.14161,-0.23707 0.44858,-0.31446 0.68565,-0.17285c0.14764,0.08819 0.23335,0.24051 0.2428,0.40013l0.0717,0.99041l-0.07019,0.00508c0.11763,0.21398 0.26723,0.49014 0.43595,0.79797c0.1139,-0.05548 0.21929,-0.11819 0.28491,-0.20522l0.01047,-0.04662c0,0 0.25641,-0.42925 0.68566,-0.17285zM443.66084,60.98741c0.11265,-0.30663 0.2534,-0.57981 0.31506,-0.73247c0.00494,-0.01222 0.00988,-0.02443 0.01482,-0.03663c-0.43462,-0.13965 -0.89919,-0.27561 -1.38364,-0.40564c-0.436,0.39833 -0.84392,0.76188 -1.14588,1.07917c0.48907,-0.03417 1.9269,0.08213 2.16682,0.09399c0.01075,0.00054 0.02169,0.00105 0.03283,0.00158zM444.66395,52.03379c-0.95029,-0.09362 -1.89534,-0.20695 -2.84223,-0.32941c0.5176,0.16299 0.96431,0.28447 1.21791,0.34848l0.49776,0.10958c0.05511,0.01078 0.10932,0.03111 0.16029,0.06156c0.16471,0.09839 0.25234,0.27659 0.24299,0.45572c0.19336,-0.26873 0.43952,-0.48347 0.72326,-0.64594zM441.20798,54.527c0.30181,0.05655 0.5569,0.11235 0.62945,0.11796c0.40981,0.0317 0.94387,-0.02986 1.46623,-0.04235c-0.03585,-0.07928 -0.05073,-0.1672 -0.04233,-0.25457l0.05489,-0.73247l0.22135,0.01659c0.03947,-0.19912 0.09787,-0.38268 0.17295,-0.55095l-0.34259,0.29481l-0.05336,-0.062c-0.57614,0.61827 -1.22642,0.99249 -2.1066,1.21296zM438.68973,50.2094c0.38899,0.07515 0.76987,0.1685 1.06803,0.20919c1.83869,0.25099 4.68583,0.13935 6.98536,0.4961c0.68021,-0.86592 1.33388,-1.73126 1.95736,-2.6132c0.01171,-1.32279 0.04009,-2.64297 0.10074,-3.95869c-0.14086,-0.0655 -0.28005,-0.13485 -0.41761,-0.20865c0.16032,0.35519 0.20815,0.72476 0.06099,1.09631c-0.63534,1.60419 -1.94371,1.37176 -3.28407,1.67115c-2.27881,0.50902 -4.49016,2.11591 -6.66359,2.97854c0.02639,0.11012 0.09339,0.22025 0.1928,0.32926zM447.4539,42.24148c0.43741,0.25824 0.88343,0.50708 1.33176,0.75398c0.0292,0.00867 0.05852,0.01748 0.08795,0.02644c0.00961,-0.15015 0.01971,-0.30024 0.03032,-0.45026c-1.09734,-0.59542 -2.2011,-1.13458 -3.38311,-1.62519c0.27882,0.32103 0.52689,0.68231 0.8659,1.01288c0.02064,0.02013 0.04211,0.04067 0.06435,0.06161c0.09561,-0.0285 0.19946,-0.0285 0.29764,0.00352l0.64779,0.19576l-0.00704,0.0233zM449.84019,43.09344c-0.00512,0.08289 -0.01008,0.16579 -0.01488,0.24872c0.40769,0.14753 0.82284,0.30801 1.2298,0.46657c-0.04824,-0.03068 -0.09579,-0.06013 -0.1426,-0.08809c-0.36051,-0.21534 -0.71716,-0.42433 -1.07232,-0.62722zM453.87864,47.4771c0.26973,1.44378 0.50792,2.87427 0.71955,4.25773c0.32336,-0.91974 0.61872,-1.84903 0.88421,-2.78661c-0.08317,-0.12854 -0.17196,-0.24775 -0.2694,-0.35297c-0.36965,-0.39917 -0.84597,-0.76577 -1.33435,-1.11816zM463.15805,47.43141c-0.93876,0.86922 -2.02596,1.63421 -3.04433,2.3721c-0.44586,1.05305 -0.8698,2.0977 -1.27174,3.14224c0.64818,0.15385 1.24463,0.32282 1.46948,0.32156c0.34626,0.08554 0.69267,0.1904 1.03747,0.3129c0.23238,-0.11111 0.46346,-0.22386 0.69282,-0.33852c-0.02554,-0.41121 0.05385,-0.84582 0.07026,-1.08885c0.10818,-1.60161 0.52305,-3.1814 1.04605,-4.72143zM461.08537,54.76956c-0.49674,0.23061 -0.9967,0.45539 -1.49599,0.67681c0.22932,0.1406 0.46258,0.27708 0.69491,0.4142c0.0323,-0.04321 0.06198,-0.08315 0.08834,-0.11939c0.22541,-0.31 0.46355,-0.63559 0.71273,-0.9716zM459.70322,56.69028c-0.41157,-0.2418 -0.81499,-0.48879 -1.16249,-0.78199c-0.30622,0.1344 -0.61114,0.26819 -0.91384,0.40193c-0.67367,2.00136 -1.26767,4.0344 -1.78146,6.15592c-0.1713,0.70734 -0.25874,1.70117 -0.45771,2.63097c-0.0375,0.21204 -0.07931,0.4238 -0.12572,0.63526c0.3753,0.22417 0.75059,0.44835 1.12588,0.67253c0.44168,0.26383 2.30734,1.64734 2.7116,1.59617c0.62087,-0.07858 0.48647,-1.2565 1.02723,-1.57151c1.79608,-1.04627 4.47502,-1.23993 6.46612,-1.76935c0.56997,-0.07588 1.01381,-0.2678 1.34259,-0.5419c-0.18113,-0.07657 -0.36689,-0.17506 -0.55871,-0.2982c-1.99962,-1.3099 -3.47713,-3.1452 -5.01334,-4.91786c-1.03891,0.12197 -2.19921,0.18239 -2.68399,-0.13585c-0.74294,-0.48772 -0.41782,-1.35783 0.02384,-2.07612zM463.55126,58.73918c1.32369,1.54639 2.62661,3.1181 4.37058,4.24258c0.22106,0.14601 0.41533,0.24781 0.59787,0.31125c0.34732,-0.9145 0.10114,-2.13292 -0.59203,-3.20618c-0.39654,-0.61399 -0.86702,-1.2185 -1.39432,-1.7942c-0.8404,0.14844 -1.6805,0.27361 -2.53552,0.38323c-0.1217,0.01552 -0.2733,0.03771 -0.44656,0.06333zM467.68582,58.07408c0.33596,0.39866 0.64524,0.80883 0.92309,1.22585c0.02754,-0.46262 0.11093,-0.92363 0.24854,-1.36259c0.05477,-0.17467 0.5455,-0.29765 0.38716,-0.38951c-0.45206,-0.26224 -0.97035,0.4058 -1.48234,0.51065c-0.02549,0.00522 -0.05097,0.01042 -0.07645,0.01559zM471.36954,62.51781c-0.59768,0.07799 -1.25039,-0.29225 -1.77114,-0.8015c0.08184,0.54114 0.06898,1.07112 -0.04507,1.55878c0.18391,-0.05919 0.38353,-0.14266 0.61187,-0.24532c0.26545,-0.11936 0.80582,-0.34967 1.20434,-0.51198zM462.76026,57.82872c0.38592,-0.04773 0.76183,-0.09978 1.11039,-0.14475c0.31297,-0.04013 0.94203,-0.19287 1.68521,-0.36565c-1.02197,-0.93105 -2.18559,-1.74086 -3.40097,-2.32769c-0.37423,0.43703 -0.73276,0.89682 -1.05831,1.36682c0.45499,0.29587 0.88261,0.61782 1.24211,1.00613c0.14205,0.15343 0.2824,0.30865 0.42157,0.46513zM454.68253,61.71703c-0.00212,-1.29775 -0.11483,-2.60182 -0.26632,-3.9014c-0.1979,0.10201 -0.3929,0.20509 -0.58462,0.30948c-0.38802,0.20068 -0.78549,0.39117 -1.18937,0.57476c-0.2769,0.4638 -0.55384,0.92757 -0.83084,1.39131c-0.08266,0.45534 -0.165,0.90655 -0.24568,1.35258c0.58372,0.33229 1.16478,0.66775 1.74855,0.98976l0.00612,0.00658l0.00132,-0.00222l0.8585,0.51281c0.07645,0.04567 0.1363,0.10852 0.17754,0.18069c0.09826,-0.47129 0.20694,-0.94294 0.3248,-1.41436zM442.77945,57.36173c0.48586,-0.45962 0.97604,-0.91621 1.45991,-1.3724c0.10526,-0.19816 0.12701,-0.35032 -0.05923,-0.3711c-0.74301,-0.08293 -5.44631,0.50198 -5.26486,-1.12266c0.04183,-0.37462 2.40871,-1.22685 3.50057,-1.57194c-1.22231,-0.32854 -2.81215,-0.86152 -3.81733,-1.72783c-0.35375,-0.07395 -0.70388,-0.12622 -0.98962,-0.0818c-2.20581,0.34293 0.7294,3.51847 1.15889,3.85107c1.22395,0.94786 2.59043,1.71483 4.01168,2.39667zM445.04938,55.21814c0.73668,-0.71047 1.44362,-1.42355 2.0808,-2.14915c-0.20992,-0.09196 -0.4194,-0.18105 -0.62543,-0.25796c-0.08423,0.10257 -0.16895,0.20518 -0.25416,0.30786c-0.53799,0.43156 -1.08347,0.85402 -1.63705,1.26538l-0.38438,0.28558c0.3512,0.07944 0.64536,0.24046 0.8202,0.54827zM450.97223,64.93248c0.49119,0.11048 1.13121,0.2494 1.70444,0.42152c-0.53969,-0.32265 -1.07935,-0.64532 -1.61906,-0.96793c-0.01657,0.10407 -0.03285,0.20767 -0.04882,0.31078c-0.01218,0.0786 -0.02435,0.15714 -0.03656,0.23563zM441.62353,63.21802c-0.15286,-0.06193 -0.36007,-0.13907 -0.59899,-0.22858l-0.06505,-0.02341c-0.01596,-0.00539 -0.03177,-0.01165 -0.04736,-0.01876c-0.37296,-0.14016 -0.80966,-0.30731 -1.23324,-0.49187c-0.39076,0.71174 -0.73337,1.61365 -1.18081,2.31595c0.96461,-0.59303 2.42614,-1.10678 2.96598,-1.45196c0.05311,-0.03396 0.10625,-0.06775 0.15946,-0.10136zM450.29534,38.69338c-0.15482,1.01878 -0.27127,2.04443 -0.35849,3.07484c0.47342,0.23975 0.9395,0.49361 1.38793,0.76282c-0.09421,-0.39087 -0.18652,-0.78191 -0.27617,-1.17324c-0.16416,-0.71656 -0.52334,-1.69484 -0.75326,-2.6644zM445.72245,58.66267c0.59244,0.24848 1.18407,0.49363 1.769,0.74188c0.44245,-0.26931 0.88951,-0.54 1.33334,-0.817c-0.03717,-1.55067 -0.0872,-3.09899 -0.11055,-4.62695c-0.05852,0.08121 -0.11707,0.16239 -0.17566,0.24356c-1.0237,1.4183 -2.02854,2.88908 -2.81614,4.45849zM456.51171,42.43623c-0.56867,0.91724 -1.14777,1.82738 -1.7358,2.73151c0.10063,0.15491 0.11117,0.35985 0.01005,0.52915c-0.10858,0.18177 -0.31438,0.26967 -0.51135,0.23694c-0.0903,0.13716 -0.1808,0.27421 -0.27147,0.41111c0.6258,0.44897 1.28681,0.91147 1.79736,1.41949c0.11698,-0.46007 0.2267,-0.92197 0.32892,-1.38557c0.22398,-1.01583 0.18552,-2.58611 0.38229,-3.94263zM444.55358,53.17877c0.26458,-0.20088 0.52754,-0.40388 0.78872,-0.60915c-0.14873,0.00657 -0.29116,0.03387 -0.42558,0.0871c-0.14382,0.05695 -0.24856,0.27582 -0.36313,0.52204zM449.70968,53.64418c0.01785,1.42404 0.06076,2.86625 0.09738,4.31258c0.20414,-0.13574 0.40631,-0.27367 0.60568,-0.41429c0.00511,-2.35091 0.38111,-4.8098 0.89879,-7.24221c-0.45771,0.65656 -0.91878,1.31093 -1.38262,1.96349c0.38085,0.42439 0.58547,0.95778 -0.15235,1.34803c-0.02202,0.01165 -0.04431,0.02244 -0.06689,0.0324zM447.91557,60.6759c-0.15374,0.06693 -0.30675,0.13464 -0.4589,0.2033c0.22783,0.14937 0.45448,0.30179 0.67956,0.45461c0.25257,0.04613 0.49868,0.09919 0.73355,0.16035c-0.00045,-0.12513 -0.00116,-0.25032 -0.00208,-0.37555c-0.28679,-0.14187 -0.57586,-0.27779 -0.8678,-0.40584c-0.02797,-0.01229 -0.05608,-0.02458 -0.08432,-0.03688zM443.5426,62.08238c0.00492,-0.00274 0.00984,-0.00546 0.01476,-0.00819c-0.0062,-0.0156 -0.01185,-0.03143 -0.01697,-0.0475c-1.28191,-0.15551 -2.42431,-0.40818 -2.84489,-0.91402c-0.13517,0.15297 -0.26894,0.30779 -0.40115,0.46469c0.37138,0.13025 0.71092,0.24369 0.87334,0.31997c0.07308,0.03433 0.14634,0.06818 0.2198,0.1016l0.74443,0.0194c0.47085,0.01227 0.941,0.03458 1.41071,0.06405zM439.19658,61.13976c0.47506,-0.60531 0.99888,-1.19558 1.55197,-1.77565c-0.24512,-0.053 -0.49193,-0.10406 -0.73934,-0.15293c0.00465,0.09507 -0.01777,0.1925 -0.07024,0.28034c-0.03045,0.05098 -0.06855,0.09458 -0.11195,0.1302l-0.34535,0.29719c-0.21408,0.33445 -0.85582,0.67707 -0.62058,0.98623c0.05662,0.07441 0.17713,0.15383 0.33548,0.23461zM435.48005,58.60517c-0.17146,-0.00912 -0.33872,0.01667 -0.50245,0.05523c0.92594,0.06031 2.16315,0.11752 2.92434,0.40628c0.01014,-0.05896 0.03112,-0.11709 0.06363,-0.17153c0.00641,-0.01073 0.01316,-0.02113 0.02023,-0.0312c-0.88315,-0.12772 -1.73556,-0.21782 -2.50575,-0.25877zM449.84733,63.66284c-0.0047,0.1955 -0.01027,0.39072 -0.01682,0.58563c0.04772,-0.17598 0.08433,-0.3533 0.10722,-0.53163c-0.02406,-0.01437 -0.04811,-0.02874 -0.07216,-0.04311c-0.00608,-0.00363 -0.01215,-0.00725 -0.01823,-0.0109zM457.78469,52.73726c0.23838,-0.57706 0.47847,-1.14768 0.71755,-1.71065c-0.12659,0.07544 -0.25425,0.14244 -0.38152,0.1968c-0.98224,1.2016 -2.02901,2.35445 -3.10005,3.46739c0.07007,0.5382 0.14185,1.07726 0.21084,1.61678c0.45075,-0.21007 0.91331,-0.41753 1.38365,-0.62463c0.13426,-0.35527 0.27077,-0.70896 0.40894,-1.06084c-0.42186,-0.47913 -0.66644,-1.04061 -0.34944,-1.69285c0.11927,-0.24538 0.56544,-0.26524 1.11001,-0.19202zM461.51961,57.95224c-0.28135,-0.28835 -0.6148,-0.53056 -0.96756,-0.75475c-0.19934,0.29085 -0.55575,0.74252 -0.28088,0.76282c0.38938,0.02877 0.81367,0.02069 1.24844,-0.00809zM450.40783,61.93616c-0.17956,-0.10035 -0.35961,-0.19975 -0.54028,-0.29766c0.00016,0.06839 0.00025,0.13677 0.00025,0.20513c0.19099,0.09064 0.36264,0.19151 0.50989,0.30385c0.01008,-0.07045 0.02013,-0.14088 0.03014,-0.21132zM445.2213,60.71055c-0.12846,-0.06346 -0.25681,-0.12348 -0.38491,-0.17953c-0.08381,0.17556 -0.16411,0.34245 -0.23512,0.48787c0.03305,0.00109 0.06652,0.00222 0.10041,0.00338c0.15265,-0.10623 0.3355,-0.21256 0.51963,-0.31172zM444.38567,59.29503c0.00237,-0.00526 0.00474,-0.01053 0.00711,-0.01579c-0.28613,-0.11174 -0.57447,-0.22565 -0.86343,-0.34227c-0.03079,0.03105 -0.06172,0.06197 -0.09276,0.09275c0.32524,0.07946 0.64271,0.16704 0.94908,0.2653zM444.85906,58.29738c0.52983,-1.06162 1.12252,-2.08161 1.76996,-3.07788c-0.50533,0.52893 -1.02603,1.04089 -1.55315,1.54684c-0.15676,0.44206 -0.42862,0.87675 -0.76055,1.296c0.18094,0.07908 0.36225,0.15736 0.54375,0.23503zM449.75908,44.72639c-0.02683,0.69836 -0.04436,1.39796 -0.05543,2.09817c0.34094,-0.52409 0.67109,-1.05693 0.98972,-1.60182c-0.24269,-0.14652 -0.48831,-0.28919 -0.73568,-0.42958c-0.06655,-0.02178 -0.13275,-0.04403 -0.19862,-0.06677zM449.68783,48.59426c-0.00072,0.23694 -0.00097,0.47388 -0.00085,0.71081c0.65481,-1.16237 1.27156,-2.34138 1.84539,-3.54889c-0.00943,-0.00636 -0.01887,-0.0127 -0.02831,-0.01902c-0.57493,0.97854 -1.1791,1.92642 -1.81622,2.85711zM455.35838,52.81487c0.49974,-0.56317 0.98194,-1.1311 1.44963,-1.70961c-0.22453,-0.19176 -0.4049,-0.44807 -0.56649,-0.72996c-0.2716,0.82361 -0.56838,1.63845 -0.88314,2.43958zM459.89319,54.25159c-0.48907,-0.02631 -0.97821,-0.11509 -1.44699,-0.25782c-0.06058,0.16357 -0.12063,0.3272 -0.18013,0.49093c0.12019,0.11087 0.24577,0.21631 0.37557,0.31749c0.41649,-0.18101 0.83453,-0.36406 1.25156,-0.5506zM457.4842,53.47077c-0.02616,-0.0094 -0.03379,-0.00013 -0.01493,0.03678c0.00498,-0.01227 0.00995,-0.02452 0.01493,-0.03678zM451.80505,63.66743c0.74036,0.44224 1.48072,0.88448 2.22108,1.32672c0.05922,-0.40559 0.12745,-0.81198 0.20392,-1.21882c-0.12944,0.1002 -0.30255,0.13184 -0.4609,0.08019l-0.64779,-0.19576l0.00144,-0.00476c-0.44065,0.01447 -0.87977,0.01785 -1.31774,0.01242zM446.42081,60.0643c-0.37364,-0.1464 -0.75927,-0.29461 -1.15252,-0.44607c-0.00195,0.00413 -0.00391,0.00829 -0.00587,0.01245c0.33948,0.15244 0.67926,0.3293 1.01799,0.52228c0.04665,-0.02959 0.09345,-0.05914 0.14039,-0.08866zM448.82739,64.3588c0.01023,-0.2783 0.01842,-0.55727 0.02478,-0.83679c-1.47116,-0.11392 -2.93908,-0.27013 -4.41863,-0.3807c1.44812,0.45407 2.92864,0.82521 4.39385,1.21749zM450.51224,59.60409c-0.22083,0.08969 -0.44199,0.17903 -0.66306,0.26848c0.00362,0.21021 0.00683,0.42037 0.00951,0.63045c0.20309,0.1062 0.40525,0.21466 0.60669,0.32469c-0.04861,-0.10264 -0.06169,-0.2205 -0.03409,-0.33321l0.11084,-0.50346l0.015,0.0033c-0.01643,-0.12958 -0.0314,-0.25967 -0.0449,-0.39027zM448.48255,51.33217c0.07294,-0.10894 0.14374,-0.2183 0.2123,-0.32812c-0.00096,-0.33556 -0.00153,-0.67102 -0.00145,-1.00638c-0.27888,0.38076 -0.56376,0.75973 -0.85491,1.13788c0.22483,0.05807 0.44017,0.12325 0.64407,0.19662zM453.02258,43.36559c0.07459,-0.29178 0.14778,-0.58089 0.2191,-0.86708c-0.09474,0.19409 -0.19034,0.38667 -0.2868,0.57781c0.02274,0.09633 0.0453,0.19276 0.06771,0.28926zM454.28617,56.76206c-0.04702,-0.36451 -0.09557,-0.72843 -0.14405,-1.09153c-0.24008,0.52492 -0.48455,1.04047 -0.73101,1.54503c0.28375,-0.15368 0.57588,-0.30461 0.87506,-0.45351zM451.81275,47.45952c-0.25702,0.50723 -0.52195,1.00988 -0.79402,1.50896c0.25619,-0.37069 0.51125,-0.74214 0.76505,-1.11442c0.00786,-0.13242 0.01737,-0.26419 0.02897,-0.39455zM455.35972,57.34661c0.05765,0.48952 0.11065,0.97922 0.15566,1.46876c0.19725,-0.61453 0.40586,-1.22671 0.62295,-1.83528c-0.26278,0.1213 -0.52253,0.24333 -0.77862,0.36652zM451.72135,62.6832c-0.11413,-0.06527 -0.22829,-0.13066 -0.34252,-0.19605c-0.01296,0.07333 -0.02585,0.14651 -0.03865,0.2195c0.1241,-0.00705 0.2522,-0.0157 0.38117,-0.02345zM453.3202,54.99348c0.18867,-0.43554 0.37123,-0.87372 0.54748,-1.31437c-0.19339,-1.23834 -0.43871,-2.46953 -0.7127,-3.69653c-0.07662,1.89554 -0.3087,3.84729 -0.6045,5.78338c0.26126,-0.25845 0.51774,-0.51576 0.76971,-0.77248zM447.97503,62.48508c-0.61299,-0.15635 -1.7675,-0.21992 -2.98788,-0.3181c-0.01209,0.00749 -0.02417,0.015 -0.03623,0.02252c1.00816,0.08805 2.01539,0.19602 3.02412,0.29558zM467.37002,49.19c-0.73235,0.62074 -1.37855,1.3511 -2.0057,2.10788c0.49319,-0.34822 0.96125,-0.71606 1.39715,-1.1074c0.21195,-0.32911 0.4001,-0.67768 0.60854,-1.00047z" fill="#4d201d" stroke="none" stroke-width="0.5"/><path d="M465.85377,61.97234c-3.58713,6.00526 -8.45803,8.29915 -13.35801,7.85061c-0.71465,-0.06542 -2.86982,-0.64247 -2.86982,-0.64247l-2.92986,-0.0797c0,0 -0.29837,-1.20866 -0.90589,-1.57156c-6.81573,-4.07125 -9.86769,-11.5122 -4.61836,-20.30017c5.24933,-8.78797 12.80232,-8.88227 19.61805,-4.81102c3.20999,1.91743 5.68396,4.41685 6.85481,7.4428c0.15099,0.3902 1.91966,0.30984 1.91966,0.30984l-1.13083,1.84394l0.53666,3.02327c0,0 -1.02256,2.13883 -1.15502,2.58357c-0.41292,1.38643 -1.05748,2.83762 -1.9614,4.35088z" fill="#0b0404" stroke="none" stroke-width="0"/><path d="M495.77384,63.31506c6.81573,4.07125 10.31322,10.76632 5.06388,19.55431c-5.24933,8.78797 -13.24784,9.62813 -20.06358,5.55688c-6.81573,-4.07125 -9.86769,-11.5122 -4.61836,-20.30017c5.24933,-8.78797 12.80232,-8.88227 19.61805,-4.81102z" data-paper-data="{&quot;index&quot;:null}" fill="#270a09" stroke="none" stroke-width="0"/><path d="M472.78805,75.88796c0.02993,0.4991 -0.46918,0.52903 -0.46918,0.52903l-0.28831,0.00233c-0.20297,-0.05216 -0.391,-0.14449 -0.57377,-0.25086c-0.68262,1.38472 -1.36733,2.92702 -0.93946,2.90389c1.23255,0.33062 2.39266,0.65666 3.67128,0.56816c0.21684,-0.015 0.4428,-0.02675 0.67419,-0.03935c0.14296,-0.07042 0.26551,-0.13364 0.36017,-0.18823c0.14055,-0.08103 0.28085,-0.16299 0.42091,-0.24581c-0.37804,-1.13203 -0.71666,-2.28839 -1.01584,-3.41759c-0.17678,-0.61131 -0.33237,-1.22284 -0.45836,-1.83215c-0.06611,-0.28012 -0.12956,-0.55651 -0.19039,-0.82831c-2.18461,-0.7904 -4.64413,-1.76784 -5.54037,-3.46567c1.41355,-0.7412 2.99013,-1.00297 4.65451,-0.98802c-0.01762,-0.39136 0.01737,-0.72077 0.13915,-0.92157c0.18684,-0.30803 0.76419,-0.41393 1.28498,-0.45435l-0.15401,-0.18159l0.10933,-0.09272c-0.86982,-0.94598 -1.26683,-2.01276 -1.95174,-3.30655l-0.46254,-0.87448c-0.03544,-0.06355 -0.05749,-0.13586 -0.06214,-0.21334c-0.01653,-0.27565 0.19353,-0.51249 0.46918,-0.52903c0.04279,-0.00257 0.08466,0.00032 0.12491,0.00808l0.65816,0.11238l-0.03347,0.19601c1.58782,0.43917 2.09088,2.06554 2.7983,3.74242c0.40724,0.96536 0.91721,1.98533 1.39216,3.01364c0.18826,0.03596 0.3768,0.07315 0.56555,0.11132c-0.41273,-2.34144 -0.57181,-4.68719 0.09997,-6.59027c0.43234,-1.22478 2.71748,-2.76917 4.00792,-1.72046c0.10989,0.0893 0.21079,0.20795 0.30444,0.34541c0.13406,-0.19808 0.30076,-0.37452 0.50502,-0.52386c2.2741,1.00637 5.10662,2.39314 6.94816,4.06481c0.82379,0.7478 1.02081,1.66657 2.31259,1.56866c0.50975,-0.03864 0.61292,-1.54864 0.65194,-1.77016c0.21107,-1.19841 0.41953,-2.05901 0.87587,-2.95471l-0.10011,-0.04277l0.38862,-0.90963c0.06991,-0.17362 0.23488,-0.30068 0.43413,-0.31262c0.24558,-0.01473 0.46036,0.1504 0.51598,0.38152l0.22316,0.85328l-0.00189,0.0005l0.00377,0.00696c0.26619,1.16255 0.5887,2.54005 0.82565,3.97021c1.60577,-0.89247 3.25079,-1.70698 4.95492,-2.40545l0.47829,-0.19195c0.05161,-0.02212 0.10786,-0.03588 0.16713,-0.03942c0.27564,-0.01653 0.51249,0.19354 0.52903,0.46918c0.00972,0.16198 -0.05882,0.31057 -0.17293,0.40892l-0.74732,0.65669l-0.02257,-0.02569c-0.98394,1.37887 -2.10328,2.76649 -3.29915,4.13431c1.39587,-0.34514 2.93077,-0.81199 4.22791,-0.70615l0.05266,-0.28128l0.66517,0.12455c0.22529,0.03711 0.40312,0.22593 0.41736,0.46346c0.01346,0.22452 -0.12339,0.4233 -0.32358,0.49826l-0.52863,0.21215c-1.21592,0.48794 -2.44108,0.95125 -3.66477,1.41932c-0.867,0.33163 -1.73554,0.66766 -2.60395,1.00888c-0.01319,0.06396 -0.02709,0.12747 -0.04173,0.19056c1.78203,-0.03913 3.5639,-0.10799 5.3458,-0.21482l0.66547,-0.0399c0.27564,-0.01653 0.5125,0.19354 0.52903,0.46918c0.01269,0.21169 -0.10825,0.40051 -0.28992,0.48421l-0.88799,0.43409l-0.03036,-0.06212c-2.17916,1.59673 -4.77264,2.78003 -7.48908,3.66445c-0.23431,0.5282 -0.47607,1.0866 -0.56048,1.36344c1.88002,0.10943 3.78357,0.1017 5.81583,-0.03582c1.24354,-0.08415 3.26097,-0.92459 4.5183,-0.58128c0.02429,-0.0084 0.04856,-0.01688 0.07284,-0.02544l-0.00803,-0.134l0.99821,-0.05986c0.27564,-0.01653 0.5125,0.19354 0.52903,0.46918c0.01653,0.27564 -0.19353,0.5125 -0.46918,0.52903l-0.43774,0.02625c-2.4185,1.00217 -4.85785,1.06122 -7.36456,1.42154c0.97421,0.32483 1.95559,0.58827 2.89324,0.71992c0.71559,0.10047 1.43083,-0.01882 2.12199,0.01107c0.32206,-0.06046 0.64411,-0.12091 0.96617,-0.18137l0.01501,0.00344l-0.0007,-0.00549l0.71301,-0.09167c0.01276,-0.00176 0.02568,-0.00303 0.03874,-0.00381c0.27564,-0.01653 0.5125,0.19353 0.52903,0.46918c0.01424,0.23752 -0.13975,0.44625 -0.35899,0.51001l-0.94392,0.29702l-0.04757,-0.15118c-0.24911,0.04683 -0.49822,0.09364 -0.74733,0.14046c-1.95989,0.44947 -3.77918,0.99549 -5.66483,1.69328c-0.53211,0.19691 -1.05173,0.43322 -1.54759,0.70921c2.31482,0.21052 4.67703,0.59664 6.41756,1.34828l0.04085,0.05217l0.01241,-0.01594l0.45909,0.35748c0.11055,0.0852 0.18504,0.21598 0.19405,0.36625c0.01471,0.24533 -0.15008,0.45994 -0.38084,0.51583l-0.76533,0.20137c-0.0835,0.41655 -0.52854,0.37998 -0.52854,0.37998c-0.6695,-0.05785 -1.3355,-0.17597 -1.99757,-0.34325c-1.1965,-0.15638 -2.3793,-0.62137 -3.60892,-1.21397c-0.53545,-0.25806 -1.37735,-0.22026 -1.69917,-0.67206c0.19957,1.56327 0.14035,3.21429 -0.14642,4.77844c1.05092,1.00994 2.05442,2.09841 1.95949,2.63172c-0.13043,0.73278 -2.85667,0.99809 -3.23424,1.88384c-0.35388,0.83014 1.017,2.62327 0.4158,3.31824c-0.44871,0.51869 -1.3791,-0.08299 -1.7833,-0.30166c-0.85161,-0.46073 -1.58283,-0.86658 -2.0496,-1.48948c-0.81322,-0.00513 -1.6393,-0.35846 -2.3762,-1.16585c-1.5001,-1.29247 -3.04601,-3.22194 -4.81037,-4.14716c-0.60197,-0.31567 -1.60962,0.31785 -2.13568,-0.12975c-0.38468,-0.3273 -0.4558,-2.37924 -0.48334,-2.8297c-0.041,-0.67039 -0.08159,-1.34079 -0.12194,-2.01121c-0.25302,0.08179 -0.50981,0.15716 -0.7706,0.22568l-0.05024,-0.01476l0.0012,0.02014l-0.66547,0.03991c-0.27564,0.01654 -0.5125,-0.19353 -0.52903,-0.46918c-0.01424,-0.23752 0.13976,-0.44626 0.359,-0.51002l0.90085,-0.28348c-0.01141,-0.03274 -0.02286,-0.06551 -0.03437,-0.09832c-0.43138,-0.8333 -0.83263,-1.74276 -1.20369,-2.69383c-1.53872,0.6907 -3.10132,1.26088 -4.82972,1.36944l-0.66547,0.03989c-0.27565,0.01653 -0.51249,-0.19353 -0.52903,-0.46918c-0.01653,-0.27565 0.19353,-0.51249 0.46918,-0.52903l0.66547,-0.03991c0.0316,-0.00179 0.06314,-0.00376 0.09463,-0.0059c0.27986,-0.29441 0.77732,-0.60436 1.32493,-0.89767c-0.99601,-0.14034 -1.91593,-0.34891 -2.61466,-0.53604c-1.58013,-0.61196 -0.81005,-2.58888 0.16232,-4.32127c-0.09618,-0.08494 -0.15985,-0.20666 -0.16814,-0.34486c-0.00836,-0.1394 0.04123,-0.26887 0.12795,-0.36494l0.49591,-0.55017l0.00894,0.00806l0.0202,-0.03781c0.15633,-0.12443 0.32628,-0.24641 0.50573,-0.35017c0.16861,-0.27018 0.31631,-0.50934 0.42672,-0.70518l0.19807,-0.00801l-0.02698,-0.08572l0.64481,-0.2029c0.04132,-0.014 0.08518,-0.02279 0.13085,-0.02553c0.27565,-0.01653 0.5125,0.19353 0.52903,0.46918c0.01029,0.17166 -0.06728,0.32827 -0.19386,0.426l-0.77796,0.61713l-0.04373,-0.05514c-0.11055,0.21773 -0.25448,0.49688 -0.41379,0.80969c0.11,0.06285 0.22117,0.11462 0.33006,0.11982l0.04442,-0.01761c0,0 0.49909,-0.02993 0.52903,0.46918zM476.70326,72.27614c0.31681,-0.07964 0.62181,-0.11723 0.78269,-0.15226c0.01287,-0.00281 0.02574,-0.0056 0.03861,-0.00839c-0.12942,-0.43779 -0.27876,-0.89822 -0.44419,-1.37175c-0.57471,-0.13588 -1.10487,-0.26815 -1.53714,-0.33893c0.30371,0.38486 1.0175,1.63841 1.14284,1.84331c0.00561,0.00917 0.01135,0.01851 0.0172,0.02801zM484.66639,68.06162c-0.45791,-0.83791 -0.8966,-1.68263 -1.32877,-2.53399c0.15687,0.51948 0.30812,0.95701 0.39808,1.20261l0.18982,0.47301c0.02212,0.05161 0.03588,0.10785 0.03943,0.16713c0.01149,0.19151 -0.08641,0.36429 -0.23967,0.45747c0.33096,0.0084 0.64704,0.09084 0.94112,0.23377zM480.65968,66.61042c0.12328,0.28122 0.22087,0.52343 0.25709,0.58655c0.20464,0.35647 0.55633,0.76306 0.86087,1.18764c0.04533,-0.07428 0.10958,-0.13608 0.1865,-0.17837l0.63614,-0.36723l0.11097,0.19224c0.18676,-0.07954 0.37134,-0.13469 0.55266,-0.16742l-0.43657,-0.11701l0.02118,-0.07899c-0.83538,-0.12779 -1.51088,-0.45431 -2.18883,-1.05739zM482.80873,62.09768c0.15702,0.36374 0.29441,0.73102 0.42874,1.0003c0.8283,1.66064 2.52427,3.95025 3.52477,6.05123c1.09863,0.07429 2.18182,0.12696 3.26173,0.14534c1.09958,-0.73542 2.20639,-1.45558 3.32769,-2.1466c-0.02522,-0.15328 -0.04631,-0.30735 -0.06282,-0.46259c-0.20318,0.33253 -0.48162,0.58023 -0.87149,0.66792c-1.68336,0.37863 -2.22828,-0.83335 -3.23065,-1.77221c-1.70418,-1.5962 -4.2775,-2.51823 -6.21451,-3.82817c-0.07614,0.08384 -0.12937,0.20122 -0.16346,0.34476zM494.329,64.8511c0.03301,0.50687 0.07864,1.01558 0.12716,1.52509c0.00928,0.029 0.01852,0.0582 0.02769,0.08757c0.12948,-0.07664 0.25918,-0.15283 0.38912,-0.22858c-0.12612,-1.24208 -0.30237,-2.45778 -0.56278,-3.71079c-0.1082,0.41121 -0.26699,0.81968 -0.34918,1.28599c-0.00501,0.02839 -0.00988,0.05769 -0.01465,0.08787c0.07741,0.06294 0.1359,0.14877 0.16474,0.24793l0.20312,0.64551l-0.02322,0.0073zM494.96919,67.30272c-0.07137,0.04246 -0.14267,0.08506 -0.2139,0.12781c0.10774,0.41997 0.20898,0.85337 0.3072,1.27895c-0.00183,-0.05714 -0.00428,-0.11302 -0.00754,-0.16744c-0.02514,-0.41918 -0.05334,-0.83157 -0.08576,-1.23932zM493.62185,73.10876c-1.04102,1.03612 -2.08883,2.03869 -3.11274,2.99281c0.94209,-0.25088 1.87631,-0.53028 2.80055,-0.83903c0.05936,-0.14113 0.10785,-0.28163 0.13991,-0.42141c0.1216,-0.53027 0.15622,-1.13034 0.17228,-1.73237zM498.88647,80.75032c-1.24698,-0.28606 -2.49147,-0.75348 -3.6748,-1.17929c-1.12125,0.22474 -2.22321,0.46288 -3.31268,0.71914c0.23797,0.62223 0.43431,1.21023 0.56202,1.39532c0.12437,0.33429 0.23284,0.67958 0.32584,1.03348c0.2227,0.12941 0.44605,0.25685 0.66997,0.38178c0.32538,-0.25273 0.72921,-0.43195 0.93926,-0.55527c1.3843,-0.81276 2.92331,-1.35983 4.49038,-1.79516zM491.65569,83.17112c-0.47034,-0.28054 -0.9377,-0.56703 -1.40188,-0.85487c0.01299,0.26868 0.03162,0.53828 0.04919,0.8075c0.05389,0.00234 0.10361,0.00438 0.14841,0.00575c0.38312,0.01163 0.78627,0.02501 1.20428,0.04163zM489.29011,83.111c-0.03204,-0.47627 -0.05519,-0.94873 -0.00867,-1.401c-0.28354,-0.17731 -0.56586,-0.35391 -0.84685,-0.52869c-2.03314,0.57069 -4.04754,1.22505 -6.08989,1.99552c-0.68094,0.25689 -1.55136,0.74444 -2.4317,1.10377c-0.19633,0.08845 -0.39485,0.17318 -0.59572,0.25396c0.02617,0.43637 0.05233,0.87274 0.07849,1.3091c0.03079,0.51355 -0.06148,2.83439 0.20851,3.13961c0.41465,0.46873 1.31221,-0.30582 1.8771,-0.03644c1.8762,0.89471 3.54519,2.99916 5.10417,4.34614c0.38376,0.4282 0.79234,0.68683 1.204,0.8041c-0.03877,-0.19279 -0.06201,-0.40176 -0.0683,-0.62962c-0.04401,-2.39006 0.64019,-4.64465 1.23959,-6.91247c-0.68598,-0.78972 -1.38947,-1.7144 -1.39958,-2.29422c-0.0155,-0.88858 0.88659,-1.11007 1.72887,-1.14973zM489.76468,87.44459c-0.53214,1.96477 -1.09688,3.92665 -1.04368,6.00102c0.00387,0.26491 0.0292,0.48274 0.07958,0.6693c0.95126,-0.22813 1.81933,-1.11784 2.31569,-2.29513c0.28396,-0.6735 0.51845,-1.40274 0.69711,-2.16272c-0.59603,-0.6108 -1.17265,-1.23444 -1.74484,-1.87917c-0.08137,-0.09182 -0.18511,-0.20457 -0.30386,-0.33331zM492.64313,90.48623c-0.14016,0.50215 -0.30487,0.98875 -0.49294,1.45321c0.39776,-0.23782 0.82566,-0.42861 1.26586,-0.56215c0.17517,-0.05315 0.55321,0.28306 0.53992,0.10049c-0.03795,-0.52123 -0.88187,-0.5732 -1.2569,-0.93718c-0.01867,-0.01812 -0.03732,-0.03624 -0.05594,-0.05439zM491.04635,96.03302c-0.4011,-0.4499 -0.46283,-1.19777 -0.33539,-1.9149c-0.40103,0.37243 -0.84617,0.66032 -1.31337,0.84078c0.15248,0.11861 0.33391,0.23655 0.54735,0.36739c0.24814,0.1521 0.74282,0.46886 1.1014,0.70673zM490.07143,86.27819c0.25682,0.292 0.51157,0.57327 0.74505,0.83594c0.20945,0.236 0.68999,0.66974 1.25135,1.18648c0.19364,-1.36886 0.20733,-2.78647 0.00763,-4.12126c-0.57189,-0.06304 -1.15376,-0.10029 -1.72548,-0.10454c0.01182,0.54261 -0.01333,1.07728 -0.13169,1.59305c-0.04677,0.2038 -0.09596,0.40719 -0.14687,0.61032zM482.30866,81.794c1.07111,-0.73275 2.08513,-1.56042 3.07361,-2.41761c-0.19576,-0.10606 -0.39078,-0.20911 -0.58502,-0.30873c-0.38437,-0.20757 -0.76566,-0.42868 -1.14485,-0.65898c-0.5392,0.03246 -1.07839,0.06484 -1.61759,0.09718c-0.42279,0.18818 -0.84198,0.3743 -1.25597,0.55887c0.05424,0.66948 0.10434,1.33855 0.16709,2.00228l-0.00198,0.00875l0.00258,-0.00015l0.05986,0.99821c0.00533,0.08889 -0.01289,0.17374 -0.0493,0.24848c0.44477,-0.18429 0.89568,-0.36014 1.35159,-0.52829zM479.20261,69.50561c0.65346,0.14256 1.30682,0.2904 1.9563,0.43325c0.22303,-0.02465 0.361,-0.09239 0.27327,-0.25798c-0.34999,-0.66064 -3.48254,-4.21736 -2.03795,-4.98256c0.3331,-0.17644 2.37048,1.29919 3.27063,2.00697c-0.41704,-1.19501 -0.87217,-2.80885 -0.72255,-4.12738c-0.13816,-0.33395 -0.29217,-0.6527 -0.48984,-0.86378c-1.52584,-1.62944 -2.49635,2.58456 -2.52925,3.12677c-0.09376,1.54522 0.04222,3.10631 0.27939,4.66471zM482.25237,70.17375c1.002,0.20851 1.98939,0.39096 2.94783,0.50874c-0.04225,-0.22526 -0.08664,-0.44851 -0.13915,-0.66207c-0.13219,-0.01182 -0.2647,-0.02402 -0.39754,-0.03659c-0.65963,-0.20144 -1.31594,-0.41419 -1.96766,-0.63988l-0.45248,-0.15673c0.13218,0.33493 0.16483,0.66868 0.00898,0.98654zM477.5619,80.53947c0.18539,0.46808 0.43112,1.07516 0.61179,1.64576c-0.0374,-0.62766 -0.07476,-1.25533 -0.11221,-1.883c-0.09532,0.04492 -0.19008,0.08983 -0.28428,0.13472c-0.0718,0.03421 -0.14356,0.0684 -0.21529,0.10251zM473.71262,71.84921c-0.03493,-0.16119 -0.0879,-0.37586 -0.14852,-0.62369l-0.01731,-0.06693c-0.00453,-0.01623 -0.00827,-0.03281 -0.01118,-0.04969c-0.09426,-0.38712 -0.20214,-0.84211 -0.28824,-1.29605c-0.80819,0.07803 -1.7464,0.30297 -2.57872,0.32885c1.03334,0.46299 2.28109,1.38122 2.87037,1.63285c0.05797,0.02475 0.11582,0.04964 0.17358,0.07467zM498.86119,65.20035c-0.929,0.44593 -1.84205,0.92744 -2.74256,1.43576c0.06856,0.52622 0.12134,1.05432 0.15149,1.57649c0.2699,-0.298 0.54102,-0.59455 0.81385,-0.88905c0.4996,-0.53925 1.1056,-1.38708 1.77721,-2.12319zM479.78539,72.67011c0.12839,0.62947 0.25909,1.2564 0.38343,1.87955c0.47174,0.21389 0.94722,0.4308 1.4261,0.64151c1.26033,-0.90417 2.51148,-1.81763 3.76083,-2.69758c-0.10006,-0.0026 -0.20012,-0.00526 -0.30019,-0.00795c-1.74852,-0.04695 -3.5298,-0.04878 -5.27018,0.18447zM499.27013,72.44501c-1.0782,0.04678 -2.15643,0.08096 -3.23469,0.10435c-0.07131,0.1704 -0.23471,0.29457 -0.43155,0.30637c-0.21135,0.01267 -0.39992,-0.10787 -0.48382,-0.28906c-0.1642,0.00266 -0.3284,0.00507 -0.49259,0.00726c-0.01847,0.76998 -0.02829,1.57666 -0.16048,2.28467c0.44604,-0.16249 0.88949,-0.33201 1.33013,-0.50869c0.96551,-0.38712 2.24133,-1.3034 3.47301,-1.90491zM483.65817,68.61536c0.315,0.10546 0.63087,0.2084 0.94758,0.30858c-0.0892,-0.1192 -0.19199,-0.22149 -0.31169,-0.30259c-0.12808,-0.08677 -0.36791,-0.05 -0.6359,-0.00599zM486.17792,73.13785c-1.1666,0.81686 -2.33407,1.6647 -3.50849,2.50963c0.22715,0.09222 0.45498,0.18158 0.68348,0.26709c1.94535,-1.31998 4.18886,-2.39434 6.49029,-3.33671c-0.80031,-0.00836 -1.6007,-0.02075 -2.40116,-0.03642c-0.13615,0.55374 -0.46161,1.02325 -1.19966,0.63343c-0.02202,-0.01163 -0.0435,-0.02398 -0.06444,-0.03702zM479.35725,75.61622c-0.1419,-0.08933 -0.28405,-0.17763 -0.42648,-0.26466c0.0049,0.27238 0.00665,0.54552 0.00715,0.81757c0.10415,0.23468 0.19893,0.46793 0.28069,0.69644c0.10312,-0.07085 0.20617,-0.14196 0.30913,-0.21327c-0.04433,-0.31688 -0.09483,-0.63229 -0.15347,-0.94564c-0.0056,-0.03003 -0.01128,-0.06019 -0.01703,-0.09044zM475.73192,72.7952c0.00503,0.00252 0.01006,0.00506 0.01508,0.00758c0.00939,-0.01391 0.01931,-0.0275 0.02967,-0.04078c-0.59357,-1.1468 -1.02828,-2.23306 -0.84722,-2.8655c-0.20253,-0.02552 -0.40581,-0.04886 -0.60991,-0.06971c0.10157,0.38022 0.19909,0.72466 0.22755,0.90186c0.0128,0.07971 0.02609,0.15932 0.03986,0.23885l0.40328,0.62603c0.25508,0.39596 0.50147,0.79699 0.74169,1.20169zM474.0628,68.67327c0.76774,0.05157 1.55051,0.15191 2.34134,0.28217c-0.09428,-0.2324 -0.19111,-0.46508 -0.29009,-0.69703c-0.07594,0.05739 -0.16906,0.09375 -0.2712,0.09988c-0.05927,0.00356 -0.11677,-0.00337 -0.17065,-0.01917l-0.44007,-0.11795c-0.39693,0.01151 -1.0415,-0.32577 -1.16445,0.04275c-0.02959,0.08869 -0.02733,0.233 -0.00488,0.40935zM474.06361,64.17475c-0.08904,-0.1468 -0.20456,-0.27049 -0.32864,-0.38406c0.47171,0.79904 1.12135,1.85355 1.31151,2.64514c0.05443,-0.02483 0.11427,-0.04024 0.17756,-0.04403c0.01248,-0.00075 0.02488,-0.00103 0.03718,-0.00087c-0.39191,-0.80166 -0.79763,-1.55671 -1.19761,-2.21618zM477.97734,78.89484c-0.16418,0.10623 -0.32863,0.2116 -0.49337,0.31598c0.17229,-0.05969 0.33942,-0.12933 0.49966,-0.21087c-0.00167,-0.02797 -0.00335,-0.05594 -0.00503,-0.08391c-0.00043,-0.00706 -0.00084,-0.01412 -0.00125,-0.0212zM491.47573,79.29914c0.61107,-0.12808 1.2178,-0.2511 1.81763,-0.37066c-0.13364,-0.06211 -0.26091,-0.12986 -0.3775,-0.20439c-1.54611,-0.13476 -3.08831,-0.3503 -4.61118,-0.60838c-0.40523,0.36105 -0.81022,0.724 -1.21713,1.0849c0.42748,0.25411 0.85945,0.51944 1.29548,0.79143c0.36918,-0.08918 0.73832,-0.17561 1.10688,-0.25965c0.15827,-0.61845 0.48443,-1.13681 1.20192,-1.24228c0.26993,-0.03967 0.53766,0.31781 0.7839,0.80902zM489.27054,85.32266c0.07978,-0.3949 0.09208,-0.80683 0.07862,-1.22459c-0.3526,-0.00088 -0.92656,-0.04097 -0.7885,0.1976c0.19555,0.33794 0.44122,0.68396 0.70988,1.027zM479.71976,78.38538c-0.01822,-0.2049 -0.03751,-0.40965 -0.05838,-0.61409c-0.05642,0.03865 -0.11289,0.07724 -0.16935,0.11575c0.03269,0.20887 0.04604,0.40752 0.03616,0.59246c0.06388,-0.03135 0.12773,-0.06272 0.19157,-0.09413zM477.811,73.40954c-0.01993,-0.14189 -0.04263,-0.28175 -0.06848,-0.41917c-0.19228,0.02964 -0.3754,0.05729 -0.53556,0.08053c0.01771,0.02791 0.03565,0.05621 0.05376,0.08486c0.17376,0.0663 0.36461,0.1575 0.55026,0.25378zM478.50991,71.92176c0.00568,-0.00101 0.01136,-0.002 0.01705,-0.00301c-0.06884,-0.29935 -0.13713,-0.60178 -0.20355,-0.90623c-0.04301,-0.00795 -0.08597,-0.0161 -0.12889,-0.0244c0.11756,0.31349 0.22399,0.62514 0.31538,0.93363zM479.60089,71.75096c1.17562,-0.1602 2.35226,-0.24502 3.54012,-0.27124c-0.72169,-0.11961 -1.43798,-0.26147 -2.15296,-0.41202c-0.45356,0.11947 -0.96588,0.13968 -1.49925,0.10158c0.03659,0.19405 0.07403,0.38795 0.11208,0.58168zM493.57425,68.15549c-0.59213,0.3712 -1.18008,0.75078 -1.76488,1.13605c0.62509,-0.0135 1.2513,-0.04084 1.88101,-0.08448c-0.01564,-0.28306 -0.03611,-0.56637 -0.05945,-0.84984c-0.01949,-0.06726 -0.03839,-0.13449 -0.0567,-0.20172zM490.33819,70.27529c-0.19618,0.13287 -0.39209,0.26613 -0.5878,0.39968c1.32927,-0.11368 2.65086,-0.2682 3.9718,-0.47422c-0.00006,-0.01138 -0.00014,-0.02275 -0.00022,-0.03412c-1.13238,0.07615 -2.2559,0.11085 -3.38378,0.10866zM490.04492,77.33806c0.74682,0.0957 1.48769,0.17423 2.22914,0.23481c0.03198,-0.29354 0.14216,-0.58693 0.28406,-0.87924c-0.83351,0.23951 -1.67396,0.45326 -2.51319,0.64443zM491.41214,81.89431c-0.25374,-0.41892 -0.45591,-0.87309 -0.60201,-1.34083c-0.16928,0.04207 -0.33831,0.08462 -0.50712,0.12769c-0.0239,0.16176 -0.04029,0.32492 -0.05078,0.48916c0.38416,0.24217 0.77087,0.48447 1.15991,0.72398zM490.70038,79.46401c-0.00697,-0.02691 -0.01892,-0.02799 -0.03879,0.00838c0.01293,-0.00279 0.02586,-0.00559 0.03879,-0.00838zM479.07627,80.51502c0.05162,0.86084 0.10323,1.7217 0.15485,2.58254c0.36848,-0.17953 0.74271,-0.35206 1.12193,-0.51805c-0.1557,-0.05051 -0.27936,-0.17573 -0.32588,-0.33566l-0.20313,-0.64552l0.00475,-0.00149c-0.26017,-0.35595 -0.51031,-0.71688 -0.75252,-1.08182zM479.02064,74.03665c-0.0895,-0.39118 -0.18425,-0.79331 -0.28061,-1.20356c-0.00452,0.00072 -0.00904,0.00145 -0.01359,0.00218c0.06527,0.36637 0.11052,0.74672 0.14186,1.13532c0.05073,0.02189 0.10151,0.04391 0.15234,0.06606zM476.82779,78.44412c0.23572,-0.1483 0.47082,-0.29868 0.70536,-0.45087c-0.73453,-1.27974 -1.4323,-2.58063 -2.17433,-3.86542c0.4405,1.45231 0.96779,2.88466 1.46897,4.31629zM481.70548,77.15805c-0.19851,-0.13194 -0.39689,-0.26436 -0.59531,-0.39664c-0.17164,0.1214 -0.3435,0.24242 -0.51558,0.36298c0.02664,0.22762 0.0509,0.45575 0.07346,0.68419c0.05743,-0.09798 0.14743,-0.17517 0.25611,-0.21586l0.47842,-0.192l0.00573,0.01425c0.09781,-0.08657 0.19689,-0.17221 0.29717,-0.25692zM487.39705,70.8216c0.13109,-0.0011 0.26134,-0.0042 0.3907,-0.00941c0.27671,-0.1898 0.55358,-0.37923 0.83073,-0.56807c-0.4717,-0.01596 -0.94529,-0.03788 -1.42174,-0.06544c0.07866,0.21847 0.14611,0.43312 0.20033,0.64293zM496.53688,70.08551c0.2831,-0.10272 0.56321,-0.20508 0.83985,-0.30737c-0.21373,0.03104 -0.4267,0.06053 -0.63897,0.08849c-0.06679,0.07305 -0.13375,0.146 -0.20086,0.21888zM486.17953,78.67549c0.2747,-0.24418 0.54805,-0.48928 0.82075,-0.73386c-0.56897,0.0973 -1.13264,0.18572 -1.68838,0.26627c0.28682,0.14789 0.57607,0.30425 0.86761,0.46758zM492.47272,71.3919c-0.56388,0.07335 -1.12844,0.13757 -1.69406,0.19388c0.4506,0.00289 0.90118,0.00441 1.35174,0.00441c0.11385,-0.06809 0.22808,-0.13447 0.34231,-0.1983zM486.30124,79.89179c-0.372,0.32337 -0.74677,0.64299 -1.12591,0.95593c0.61888,-0.18316 1.2422,-0.35563 1.86732,-0.51903c-0.24824,-0.1488 -0.49538,-0.2947 -0.74141,-0.4369zM479.84239,79.89148c-0.01036,-0.13107 -0.02063,-0.26223 -0.03094,-0.39345c-0.0679,0.0306 -0.13562,0.06117 -0.20313,0.09171c0.07573,0.09857 0.15502,0.19953 0.23407,0.30174zM487.09675,76.88113c0.46614,-0.08944 0.93103,-0.1854 1.3944,-0.28798c0.91426,-0.85732 1.79339,-1.75353 2.65289,-2.67105c-1.60939,1.00441 -3.35277,1.91201 -5.11913,2.75815c0.36071,0.0703 0.71778,0.13729 1.07183,0.20089zM477.89586,76.68442c-0.21609,-0.59456 -0.81387,-1.58431 -1.42016,-2.64798c-0.013,-0.00577 -0.026,-0.01152 -0.03901,-0.01725c0.49513,0.88261 0.97325,1.77567 1.45917,2.66523zM499.8059,85.22111c-0.92542,-0.25547 -1.89288,-0.378 -2.87143,-0.46992c0.56552,0.21137 1.1331,0.39091 1.702,0.53065c0.39132,-0.01025 0.78531,-0.05113 1.16943,-0.06073z" fill="#4d201d" stroke="none" stroke-width="0.5"/><path d="M494.48608,62.54584c6.81573,4.07125 10.31322,10.76632 5.06389,19.5543c-5.24933,8.78797 -13.24784,9.62814 -20.06358,5.55689c-6.81573,-4.07125 -9.86769,-11.5122 -4.61836,-20.30017c5.24933,-8.78797 12.80231,-8.88227 19.61805,-4.81102z" data-paper-data="{&quot;index&quot;:null}" fill="#0b0404" stroke="none" stroke-width="0"/><path d="M469.13277,80.69594c-1.15647,1.93607 -4.84858,1.86015 -8.24657,-0.16958c-3.39799,-2.02973 -5.21509,-5.24462 -4.05862,-7.18069c1.15647,-1.93607 4.84858,-1.86015 8.24657,0.16958c3.39799,2.02973 5.21509,5.24462 4.05862,7.18069z" fill="#270a09" stroke="none" stroke-width="0"/><g data-paper-data="{&quot;index&quot;:null}" stroke-width="0"><path d="M446.23551,51.27498c2.25243,-3.77083 7.13524,-5.00172 10.90606,-2.74929c3.77083,2.25243 5.00174,7.13524 2.74931,10.90607c-2.25243,3.77083 -7.13525,5.00173 -10.90608,2.74929c-3.77083,-2.25243 -5.00172,-7.13525 -2.74929,-10.90607z" fill="#262626" stroke="#ff4a00"/><path d="M446.94796,51.70056c2.0174,-3.37735 6.3907,-4.4798 9.76804,-2.46241c3.37736,2.0174 4.47981,6.3907 2.46243,9.76804c-2.0174,3.37735 -6.3907,4.47981 -9.76805,2.46241c-3.37736,-2.0174 -4.47981,-6.39069 -2.46241,-9.76804z" fill="#080603" stroke="#ff4a00"/><path d="M449.26344,53.08366c1.25353,-2.09855 3.97092,-2.78356 6.06946,-1.53004c2.09855,1.25353 2.78358,3.97093 1.53005,6.06947c-1.25353,2.09855 -3.97093,2.78357 -6.06948,1.53004c-2.09855,-1.25353 -2.78356,-3.97092 -1.53003,-6.06946z" fill="#ffffff" stroke="#ff4a00"/><path d="M454.00268,55.91456c-2.56582,4.29546 -5.06643,7.52637 -5.58529,7.21643c-0.51886,-0.30993 1.14052,-4.04333 3.70633,-8.3388c2.56582,-4.29546 5.06643,-7.52637 5.58529,-7.21644c0.51886,0.30993 -1.14051,4.04334 -3.70633,8.3388z" fill="#080603" stroke="none"/><path d="M452.00208,55.62086c-1.22305,-4.85165 -1.73945,-8.90445 -1.15339,-9.05218c0.58606,-0.14774 2.0526,3.66553 3.27565,8.51719c1.22304,4.85166 1.73945,8.90445 1.15339,9.05219c-0.58605,0.14773 -2.0526,-3.66555 -3.27564,-8.5172z" fill="#080603" stroke="none"/><path d="M444.2785,57.56791c-0.14774,-0.58605 3.66553,-2.05261 8.51719,-3.27565c4.85166,-1.22304 8.90446,-1.73944 9.05219,-1.15338c0.14774,0.58606 -3.66555,2.0526 -8.5172,3.27564c-4.85165,1.22305 -8.90446,1.73944 -9.05219,1.15339z" data-paper-data="{&quot;index&quot;:null}" fill="#080603" stroke="none"/><path d="M445.28558,50.70756c0.30993,-0.51886 4.04334,1.14051 8.33881,3.70633c4.29546,2.56582 7.52638,5.06643 7.21644,5.5853c-0.30993,0.51886 -4.04333,-1.14052 -8.3388,-3.70634c-4.29546,-2.56582 -7.52638,-5.06643 -7.21645,-5.58529z" data-paper-data="{&quot;index&quot;:null}" fill="#080603" stroke="none"/><path d="M451.57892,54.46677c0.48966,-0.81974 1.55113,-1.08733 2.37087,-0.59767c0.81975,0.48966 1.08735,1.55114 0.59769,2.37089c-0.48966,0.81975 -1.55115,1.08733 -2.3709,0.59767c-0.81975,-0.48966 -1.08733,-1.55114 -0.59766,-2.37089z" fill="#ffffff" stroke="#ff4a00"/></g><g data-paper-data="{&quot;index&quot;:null}" stroke-width="0"><path d="M480.15855,71.02304c2.25243,-3.77083 7.13523,-5.00173 10.90606,-2.74929c3.77083,2.25243 5.00174,7.13524 2.74931,10.90607c-2.25243,3.77083 -7.13525,5.00173 -10.90608,2.74929c-3.77083,-2.25243 -5.00172,-7.13524 -2.74929,-10.90607z" fill="#ffffff" stroke="#ff4a00"/><path d="M480.871,71.44861c2.0174,-3.37735 6.3907,-4.47979 9.76804,-2.46241c3.37736,2.0174 4.47981,6.3907 2.46243,9.76804c-2.0174,3.37735 -6.3907,4.47981 -9.76805,2.46241c-3.37736,-2.0174 -4.47981,-6.39069 -2.46241,-9.76805z" fill="#080603" stroke="#ff4a00"/><path d="M483.18647,72.83172c1.25353,-2.09855 3.97092,-2.78356 6.06946,-1.53004c2.09855,1.25353 2.78358,3.97092 1.53006,6.06946c-1.25353,2.09855 -3.97093,2.78357 -6.06948,1.53004c-2.09855,-1.25353 -2.78357,-3.97091 -1.53004,-6.06946z" fill="#262626" stroke="#ff4a00"/><path d="M487.92571,75.66261c-2.56582,4.29546 -5.06643,7.52637 -5.58529,7.21644c-0.51886,-0.30993 1.14052,-4.04333 3.70633,-8.3388c2.56582,-4.29546 5.06643,-7.52637 5.58529,-7.21644c0.51886,0.30993 -1.14051,4.04334 -3.70633,8.3388z" fill="#080603" stroke="none"/><path d="M485.92511,75.36893c-1.22305,-4.85165 -1.73944,-8.90446 -1.15339,-9.05219c0.58606,-0.14774 2.0526,3.66553 3.27565,8.51719c1.22304,4.85166 1.73944,8.90446 1.15339,9.0522c-0.58605,0.14773 -2.0526,-3.66555 -3.27564,-8.5172z" fill="#080603" stroke="none"/><path d="M478.20154,77.31596c-0.14774,-0.58605 3.66553,-2.05261 8.51719,-3.27565c4.85166,-1.22304 8.90446,-1.73944 9.0522,-1.15339c0.14774,0.58606 -3.66555,2.0526 -8.5172,3.27565c-4.85165,1.22305 -8.90446,1.73944 -9.05219,1.15339z" data-paper-data="{&quot;index&quot;:null}" fill="#080603" stroke="none"/><path d="M479.20861,70.45562c0.30993,-0.51886 4.04334,1.14051 8.33881,3.70633c4.29546,2.56582 7.52637,5.06644 7.21644,5.5853c-0.30993,0.51886 -4.04333,-1.14052 -8.3388,-3.70634c-4.29546,-2.56582 -7.52638,-5.06643 -7.21645,-5.58529z" data-paper-data="{&quot;index&quot;:null}" fill="#080603" stroke="none"/><path d="M485.50196,74.21483c0.48966,-0.81974 1.55113,-1.08733 2.37087,-0.59767c0.81975,0.48966 1.08736,1.55113 0.59769,2.37088c-0.48966,0.81975 -1.55115,1.08733 -2.3709,0.59767c-0.81975,-0.48966 -1.08733,-1.55113 -0.59767,-2.37088z" fill="#ffffff" stroke="#ff4a00"/></g><g stroke="none" stroke-width="0"><path d="M447.61611,268.56334c6.13984,-0.48267 11.50844,4.10338 11.9911,10.24322c0.48266,6.13985 -4.10338,11.50844 -10.24322,11.9911c-6.13984,0.48265 -11.50845,-4.10339 -11.99111,-10.24323c-0.48267,-6.13985 4.10338,-11.50845 10.24322,-11.99111z" data-paper-data="{&quot;index&quot;:null}" fill="#270a09"/><g><path d="M449.69018,276.57018c-2.3321,6.14451 -15.72257,9.7558 -28.68284,4.83684c-12.96026,-4.91897 -20.58253,-16.50547 -18.25043,-22.64998c2.3321,-6.14451 14.72901,-7.13801 27.68928,-2.21904c12.96026,4.91897 21.57609,13.88768 19.24399,20.03219z" fill="#3d100e"/><path d="M424.69012,274.28064c-32.35844,-12.15709 -21.49926,-30.94722 -16.69916,-37.15993c0.75421,0.249 1.90929,0.04843 2.65694,0.05329c2.56902,0.01671 4.14269,-0.8328 5.92469,1.32403c0.49126,0.59459 1.01631,1.51859 1.63814,1.97032c0.75059,0.54525 1.93384,0.55641 2.50123,1.42591c0.38994,0.59757 0.0238,1.53877 0.86602,1.89475c0.72096,0.30472 2.307,-0.05722 3.09733,-0.08374c2.21283,-0.07425 4.88921,0.24875 7.04309,-0.24081c0.29191,-0.06635 1.48847,-0.88099 1.69567,-0.81063c0.07567,0.0257 0.51866,1.07965 0.58384,1.19821c0.3462,0.60378 -0.08323,1.41043 0.2444,1.94788c0.24693,0.40506 1.45038,0.78624 1.87829,1.00602c2.01923,1.03714 3.83083,1.90237 6.03752,2.45272c0.37002,0.09229 1.55173,0.17693 1.80384,0.45547c0.61547,0.67996 0.11498,2.89142 0.93365,3.42581c0.78265,0.51088 4.13528,-0.61918 5.10421,-0.72236c1.90582,-0.20327 2.77132,0.88779 4.56508,1.33119c1.7372,0.42942 3.78779,0.3814 5.57307,0.52746c0.04228,-0.01723 0.0846,-0.03421 0.12695,-0.05093c-0.00432,5.83156 -1.80964,32.74094 -35.57479,20.05535z" fill="#331514"/></g><g data-paper-data="{&quot;index&quot;:null}" fill="#141414"><path d="M368.57906,282.69184c5.84682,2.65397 6.92822,7.11764 7.35484,9.98276c0.97276,6.533 -4.67351,12.92011 -12.65218,13.97523c-30.2182,3.99615 -15.20211,-3.14986 -16.17489,-9.68285c-0.97276,-6.53299 -2.44246,-16.82229 5.59154,-16.34534c6.05906,0.35971 11.15283,-0.07585 15.88069,2.0702z"/><path d="M362.27051,297.00949c-2.21959,8.02432 -10.8275,12.64604 -19.2263,10.32286c-8.3988,-2.32317 -13.40805,-10.71149 -11.18846,-18.73583c2.21959,-8.02434 10.82751,-12.64604 19.22631,-10.32287c8.3988,2.32318 13.40804,10.7115 11.18845,18.73583z"/></g><path d="M427.9608,277.26027c1.55529,5.95917 -2.01475,12.05084 -7.97393,13.60613c-5.95917,1.55529 -12.05083,-2.01476 -13.60614,-7.97392c-1.55529,-5.95917 2.01474,-12.05083 7.97392,-13.60613c5.95917,-1.55529 12.05084,2.01475 13.60613,7.97392z" fill="#270a09"/><path d="M399.37203,227.36132l26.69167,41.86114c0,0 2.69453,4.84561 -8.88836,12.23809c-11.01784,7.03187 -14.5349,2.71125 -14.5349,2.71125l-26.69168,-41.86113c0,0 -0.69293,-4.43138 9.40719,-10.74554c10.77729,-6.73747 14.01605,-4.2038 14.01605,-4.2038z" fill="#3e1a18"/><g><path d="M380.68341,230.51783c2.6381,-5.56516 9.28817,-7.93802 14.85333,-5.29992c5.56516,2.6381 7.938,9.28816 5.29991,14.85333c-2.6381,5.56516 -9.28815,7.93801 -14.85331,5.29991c-5.56516,-2.6381 -7.93802,-9.28815 -5.29992,-14.85332z" fill="#3d100e"/><path d="M353.68838,281.01355l21.28523,-44.8524c0,0 2.67377,-4.85708 15.09024,1.02879c11.81076,5.59874 10.01873,10.87378 10.01873,10.87378l-21.28522,44.85242c0,0 -3.3862,2.94126 -14.10136,-2.26129c-11.43356,-5.55134 -11.0076,-9.6413 -11.0076,-9.6413z" fill="#3e1a18"/></g><g data-paper-data="{&quot;index&quot;:null}" fill="#141414"><path d="M562.72161,280.90724c1.47413,-7.91199 11.10555,-4.00488 17.21128,-1.4857c6.10573,2.5192 16.66133,-10.331 5.49741,18.03228c-2.94766,7.48891 -10.50768,11.42867 -16.61342,8.90949c-2.67774,-1.10482 -6.749,-3.23052 -7.915,-9.54473c-0.94285,-5.1058 0.70798,-9.94429 1.81973,-15.91134z"/><path d="M576.31815,294.14813c-8.32276,0.21943 -15.25589,-6.66447 -15.48557,-15.37563c-0.22967,-8.71115 6.33107,-15.95084 14.65384,-16.17027c8.32277,-0.21943 15.25589,6.66449 15.48556,15.37564c0.22968,8.71116 -6.33108,15.95083 -14.65383,16.17026z"/></g><g data-paper-data="{&quot;index&quot;:null}"><path d="M505.41986,281.96503c6.15808,0.09339 11.07447,5.16121 10.98108,11.31928c-0.09339,6.15807 -5.16119,11.07447 -11.31926,10.98108c-6.15808,-0.0934 -11.07448,-5.1612 -10.9811,-11.31927c0.09339,-6.15807 5.16121,-11.07448 11.31928,-10.98109z" fill="#3d100e"/><path d="M562.64708,280.06921c0,0 3.85703,1.42567 3.78303,14.13544c-0.06934,11.91119 -4.20439,13.64862 -4.20439,13.64862l-49.64136,-0.73162c0,0 -5.52387,-0.72409 -5.32566,-13.79316c0.20837,-13.73931 5.74705,-13.9909 5.74705,-13.9909l49.64135,0.7316z" fill="#3e1a18"/></g><path d="M502.62864,279.29924c0,0 3.45484,2.23006 0.61962,14.61977c-2.65709,11.61124 -7.07095,12.4082 -7.07095,12.4082l-48.29511,-11.50575c0,0 -5.23436,-1.90762 -2.19979,-14.62105c3.19019,-13.36543 8.65111,-12.40694 8.65111,-12.40694l48.29512,11.50574z" data-paper-data="{&quot;index&quot;:null}" fill="#3e1a18"/></g></g></g></svg>