<svg version="1.1" xmlns="http://www.w3.org/2000/svg" xmlns:xlink="http://www.w3.org/1999/xlink" width="773.27328" height="444.26494" viewBox="0,0,773.27328,444.26494"><defs><linearGradient x1="361.04434" y1="-43.79368" x2="361.04434" y2="25.89696" gradientUnits="userSpaceOnUse" id="color-1"><stop offset="0" stop-color="#000000"/><stop offset="1" stop-color="#000000" stop-opacity="0"/></linearGradient><linearGradient x1="355.81573" y1="-46.31635" x2="355.81573" y2="-3.49578" gradientUnits="userSpaceOnUse" id="color-2"><stop offset="0" stop-color="#212121"/><stop offset="1" stop-color="#323232"/></linearGradient><linearGradient x1="363.13945" y1="29.26706" x2="363.13945" y2="222.96076" gradientUnits="userSpaceOnUse" id="color-3"><stop offset="0" stop-color="#323232"/><stop offset="1" stop-color="#000000"/></linearGradient><linearGradient x1="602.13271" y1="9.82479" x2="602.13271" y2="203.51849" gradientUnits="userSpaceOnUse" id="color-4"><stop offset="0" stop-color="#323232"/><stop offset="1" stop-color="#000000"/></linearGradient><linearGradient x1="120.52734" y1="10.04796" x2="120.52734" y2="203.74166" gradientUnits="userSpaceOnUse" id="color-5"><stop offset="0" stop-color="#323232"/><stop offset="1" stop-color="#000000"/></linearGradient><radialGradient cx="355.92113" cy="142.315" r="369.79306" gradientUnits="userSpaceOnUse" id="color-6"><stop offset="0" stop-color="#000000" stop-opacity="0.83922"/><stop offset="1" stop-color="#000000" stop-opacity="0"/></radialGradient><radialGradient cx="355.92113" cy="142.315" r="369.79307" gradientUnits="userSpaceOnUse" id="color-7"><stop offset="0" stop-color="#000000" stop-opacity="0"/><stop offset="1" stop-color="#000000"/></radialGradient><linearGradient x1="-23.95971" y1="151.59198" x2="140.05616" y2="151.59198" gradientUnits="userSpaceOnUse" id="color-8"><stop offset="0" stop-color="#000000"/><stop offset="1" stop-color="#000000" stop-opacity="0"/></linearGradient><linearGradient x1="746.93022" y1="147.94202" x2="582.91436" y2="147.94202" gradientUnits="userSpaceOnUse" id="color-9"><stop offset="0" stop-color="#000000"/><stop offset="1" stop-color="#000000" stop-opacity="0"/></linearGradient><linearGradient x1="360.55388" y1="-71.46084" x2="360.55388" y2="72.17167" gradientUnits="userSpaceOnUse" id="color-10"><stop offset="0" stop-color="#000000"/><stop offset="1" stop-color="#000000" stop-opacity="0"/></linearGradient><linearGradient x1="359.52795" y1="372.53373" x2="359.52795" y2="228.90124" gradientUnits="userSpaceOnUse" id="color-11"><stop offset="0" stop-color="#000000"/><stop offset="1" stop-color="#000000" stop-opacity="0"/></linearGradient></defs><g transform="translate(26.34306,71.73121)"><g data-paper-data="{&quot;isPaintingLayer&quot;:true}" fill-rule="nonzero" stroke-linejoin="miter" stroke-miterlimit="10" stroke-dasharray="" stroke-dashoffset="0" style="mix-blend-mode: normal"><g><g stroke="none" stroke-width="0" stroke-linecap="butt"><g><path d="M0.11342,157.15517v-181.68168h720v181.68168z" fill="#000000"/><path d="M656.46198,-18.03151c0,26.98079 -132.26298,48.85303 -295.41764,48.85303c-163.15465,0 -295.41764,-21.87225 -295.41764,-48.85303c0,-26.98079 132.26298,-48.85303 295.41764,-48.85303c163.15465,0 295.41764,21.87225 295.41764,48.85303z" fill="#323232"/><path d="M615.94008,-8.94836c0,19.24454 -114.12071,34.84532 -254.89575,34.84532c-140.77503,0 -254.89575,-15.60079 -254.89575,-34.84532c0,-19.24454 114.12071,-34.84532 254.89575,-34.84532c140.77503,0 254.89575,15.60078 254.89575,34.84532z" fill="url(#color-1)"/><path d="M312.02592,-3.49578v-42.82057h87.57956v42.82057z" fill="url(#color-2)"/><path d="M399.60549,-2.84698c0,6.89767 -19.60535,12.48933 -43.78978,12.48933c-24.18443,0 -43.78978,-5.59166 -43.78978,-12.48933c0,-6.89767 19.60535,-12.48933 43.78978,-12.48933c24.18443,0 43.78978,5.59166 43.78978,12.48933z" fill="#1d1d1d"/><path d="M406.03757,-45.88454c0,3.86599 -23.78119,2.5 -52.5,2.5c-28.71881,0 -52.5,2.36599 -52.5,-1.5c0,-3.86599 23.78119,-8.5 52.5,-8.5c28.71881,0 52.5,3.63401 52.5,7.5z" fill="#323232"/><path d="M160.81392,3.86028l-17.41134,-13.41451h424.82625l-17.41134,13.41451z" fill="#3c3c3c"/><path d="M374.3312,-2.84698c0,4.54972 -8.28966,8.23799 -18.51548,8.23799c-10.22582,0 -18.51548,-3.68827 -18.51548,-8.23799c0,-4.54972 8.28966,-8.23799 18.51548,-8.23799c10.22582,0 18.51548,3.68827 18.51548,8.23799z" fill="#6d6d6d"/></g><path d="M282.21549,224.46226c0,0 25.30883,-54.36224 34.70263,-87.70274c8.91325,-31.63496 20.29423,-107.49245 20.29423,-107.49245h51.85418c0,0 7.94661,65.48809 15.64753,95.52958c9.02398,35.20283 35.15909,102.66861 35.15909,102.66861z" fill="url(#color-3)"/><path d="M525.39901,208.02299c0,0 26.13511,-67.46578 35.15909,-102.66861c7.70091,-30.04149 -3.872,-89.52357 -3.872,-89.52357l45.84817,-6.006c0,0 36.90651,75.85749 45.81976,107.49245c9.39379,33.3405 4.6726,87.70274 4.6726,87.70274z" data-paper-data="{&quot;index&quot;:null}" fill="url(#color-4)"/><path d="M69.63343,205.24316c0,0 -4.7212,-54.36224 4.67259,-87.70274c8.91325,-31.63496 45.81976,-107.49245 45.81976,-107.49245l45.84817,6.00601c0,0 -11.5729,59.48208 -3.87199,89.52357c9.02398,35.20283 35.15909,102.66861 35.15909,102.66861z" fill="url(#color-5)"/></g><path d="M314.49778,210.75872v-55.05706c0,0 3.88454,-15.52467 45.96247,-15.33333c45.15715,0.20534 47.13062,15.33333 47.13062,15.33333v55.05706z" fill="#3d3d3d" stroke="none" stroke-width="0" stroke-linecap="butt"/><path d="M335.46025,205.40125v-49.66667h51.66667v49.66667z" fill="#000000" stroke="none" stroke-width="0" stroke-linecap="butt"/><g stroke-width="0" stroke-linecap="butt"><path d="M216.96074,253.30629v-47.65733h288.1672v47.65733z" fill="#323232" stroke="#000000"/><path d="M221.75562,250.21601v-139.06192l113.95352,44.80884l0.38628,49.63738z" fill="#505050" stroke="none"/><path d="M501.38098,111.15409v139.06192l-113.95352,-44.80884l-0.38628,-49.63738z" fill="#505050" stroke="none"/></g><path d="M66.75002,252.80076v-142.15219h157.65766v142.15219z" fill="#3d3d3d" stroke="none" stroke-width="0" stroke-linecap="butt"/><path d="M499.67796,251.07609v-142.15219h157.65766v142.15219z" fill="#3d3d3d" stroke="none" stroke-width="0" stroke-linecap="butt"/><g stroke-width="0" stroke-linecap="butt"><path d="M-12.70642,367.68705v-123.3741h746v123.3741z" fill="#323232" stroke="#000000"/><path d="M-0.29352,359.68705v-360l116.17413,55.80507l-1.84438,249.52453z" fill="#505050" stroke="none"/><path d="M719.7065,-0.31295v360l-138.98896,-65.91483l3.15675,-229.41419z" fill="#505050" stroke="none"/></g><g fill="none" stroke="#424242" stroke-width="2" stroke-linecap="round"><path d="M337.49814,205.20984c0,0 2.71103,-42.09868 4.42431,-48.46179c0.39428,-1.46434 0.72751,-1.31743 0.72751,0.28257c0,5.48733 0,36.91165 0,47.1133c0,2.01135 0.44538,1.43607 0.93501,-0.50066c1.44005,-5.69605 2.11593,-34.02029 4.90092,-45.03615c0.6827,-2.70039 1.09921,-2.62602 1.09921,-0.72377c0,7.04239 -0.59444,47.1133 -0.59444,47.1133"/><path d="M349.13876,205.20985c0,0 2.71103,-42.09868 4.42431,-48.46179c0.39428,-1.46433 0.72751,-1.31743 0.72751,0.28257c0,5.48733 0,36.91165 0,47.1133c0,2.01135 0.44538,1.43607 0.93501,-0.50066c1.44005,-5.69605 2.11593,-34.02029 4.90092,-45.03614c0.6827,-2.70039 1.09922,-2.62602 1.09922,-0.72378c0,7.04239 -0.59444,47.1133 -0.59444,47.1133"/><path d="M361.36142,205.20984c0,0 2.71103,-42.09868 4.42431,-48.46179c0.39428,-1.46433 0.72751,-1.31743 0.72751,0.28257c0,5.48733 0,36.91165 0,47.1133c0,2.01135 0.44538,1.43607 0.93501,-0.50066c1.44005,-5.69605 2.11593,-34.02029 4.90092,-45.03614c0.6827,-2.70039 1.09922,-2.62602 1.09922,-0.72378c0,7.04239 -0.59444,47.1133 -0.59444,47.1133"/><path d="M373.00205,205.20985c0,0 2.71103,-42.09868 4.42431,-48.46179c0.39428,-1.46433 0.72751,-1.31743 0.72751,0.28257c0,5.48733 0,36.91165 0,47.1133c0,2.01135 0.44538,1.43607 0.93501,-0.50066c1.44005,-5.69605 2.11593,-34.02029 4.90092,-45.03614c0.6827,-2.70039 1.09922,-2.62602 1.09922,-0.72378c0,7.04239 -0.59444,47.1133 -0.59444,47.1133"/></g><text transform="translate(337.35809,151.55773) scale(0.21831,0.21831)" font-size="40" xml:space="preserve" fill="#000000" fill-rule="nonzero" stroke="none" stroke-width="1" stroke-linecap="butt" stroke-linejoin="miter" stroke-miterlimit="10" stroke-dasharray="" stroke-dashoffset="0" font-family="&quot;GovtAgentBB&quot;, Serif" font-weight="normal" text-anchor="start" style="mix-blend-mode: normal"><tspan x="0" dy="0">Power Room</tspan></text></g><g stroke-width="0" stroke-linecap="butt"><g stroke="#000000"><path d="M-13.87193,351.84948v-419.06893h739.58612v419.06893z" fill="url(#color-6)"/><path d="M-13.87193,351.84948v-419.06893h739.58613v419.06893z" fill="url(#color-7)"/></g><g stroke="none"><path d="M-23.95971,371.2652v-439.34646h164.01586v439.34646z" fill="url(#color-8)"/><path d="M582.91436,367.61524v-439.34646h164.01586v439.34646z" data-paper-data="{&quot;index&quot;:null}" fill="url(#color-9)"/><path d="M-25.31714,72.17167v-143.63249h771.74205v143.6325z" fill="url(#color-10)"/><path d="M745.39898,228.90124v143.63249h-771.74204v-143.63249z" data-paper-data="{&quot;index&quot;:null}" fill="url(#color-11)"/></g></g></g></g></svg>