<svg version="1.1" xmlns="http://www.w3.org/2000/svg" xmlns:xlink="http://www.w3.org/1999/xlink" width="76.33333" height="101" viewBox="0,0,76.33333,101"><defs><linearGradient x1="374.3674" y1="171.76562" x2="376.09204" y2="171.83274" gradientUnits="userSpaceOnUse" id="color-1"><stop offset="0" stop-color="#1e1d1d"/><stop offset="1" stop-color="#000000"/></linearGradient><linearGradient x1="347.88277" y1="178.39229" x2="349.60741" y2="178.45941" gradientUnits="userSpaceOnUse" id="color-2"><stop offset="0" stop-color="#1e1d1d"/><stop offset="1" stop-color="#000000"/></linearGradient><linearGradient x1="342.18849" y1="180.55427" x2="376.86115" y2="181.9036" gradientUnits="userSpaceOnUse" id="color-3"><stop offset="0" stop-color="#9a550b"/><stop offset="1" stop-color="#713c03"/></linearGradient><radialGradient cx="368.25397" cy="185.47338" r="2.81799" gradientUnits="userSpaceOnUse" id="color-4"><stop offset="0" stop-color="#bfbfbf"/><stop offset="1" stop-color="#e2d9b5"/></radialGradient><radialGradient cx="364.6513" cy="185.43635" r="2.81799" gradientUnits="userSpaceOnUse" id="color-5"><stop offset="0" stop-color="#bfbfbf"/><stop offset="1" stop-color="#e2d9b5"/></radialGradient><radialGradient cx="360.77286" cy="184.57901" r="2.81799" gradientUnits="userSpaceOnUse" id="color-6"><stop offset="0" stop-color="#bfbfbf"/><stop offset="1" stop-color="#e2d9b5"/></radialGradient><radialGradient cx="357.36133" cy="182.93084" r="2.81799" gradientUnits="userSpaceOnUse" id="color-7"><stop offset="0" stop-color="#bfbfbf"/><stop offset="1" stop-color="#e2d9b5"/></radialGradient><radialGradient cx="353.77977" cy="181.42345" r="2.818" gradientUnits="userSpaceOnUse" id="color-8"><stop offset="0" stop-color="#bfbfbf"/><stop offset="1" stop-color="#e2d9b5"/></radialGradient><radialGradient cx="354.0645" cy="150.42359" r="3.4608" gradientUnits="userSpaceOnUse" id="color-9"><stop offset="0" stop-color="#91a9ac"/><stop offset="1" stop-color="#8d8989"/></radialGradient><radialGradient cx="351.23957" cy="151.51148" r="3.41213" gradientUnits="userSpaceOnUse" id="color-10"><stop offset="0" stop-color="#91a9ac"/><stop offset="1" stop-color="#8d8989"/></radialGradient><radialGradient cx="352.65351" cy="150.87695" r="2.25694" gradientUnits="userSpaceOnUse" id="color-11"><stop offset="0" stop-color="#91a9ac"/><stop offset="1" stop-color="#8d8989"/></radialGradient><radialGradient cx="347.69058" cy="142.02018" r="3.64296" gradientUnits="userSpaceOnUse" id="color-12"><stop offset="0" stop-color="#91a9ac"/><stop offset="1" stop-color="#8d8989"/></radialGradient><radialGradient cx="348.39817" cy="143.55214" r="3.18759" gradientUnits="userSpaceOnUse" id="color-13"><stop offset="0" stop-color="#91a9ac"/><stop offset="1" stop-color="#8d8989"/></radialGradient><radialGradient cx="348.87861" cy="145.29291" r="3.68849" gradientUnits="userSpaceOnUse" id="color-14"><stop offset="0" stop-color="#91a9ac"/><stop offset="1" stop-color="#8d8989"/></radialGradient><radialGradient cx="349.82985" cy="146.85237" r="4.33219" gradientUnits="userSpaceOnUse" id="color-15"><stop offset="0" stop-color="#91a9ac"/><stop offset="1" stop-color="#8d8989"/></radialGradient><radialGradient cx="350.5389" cy="148.29374" r="4.66524" gradientUnits="userSpaceOnUse" id="color-16"><stop offset="0" stop-color="#91a9ac"/><stop offset="1" stop-color="#8d8989"/></radialGradient><radialGradient cx="345.52596" cy="146.30611" r="6.14748" gradientUnits="userSpaceOnUse" id="color-17"><stop offset="0" stop-color="#91a9ac"/><stop offset="1" stop-color="#8d8989"/></radialGradient><radialGradient cx="351.88162" cy="142.95739" r="6.14749" gradientUnits="userSpaceOnUse" id="color-18"><stop offset="0" stop-color="#91a9ac"/><stop offset="1" stop-color="#8d8989"/></radialGradient><radialGradient cx="349.21232" cy="146.24481" r="5.50006" gradientUnits="userSpaceOnUse" id="color-19"><stop offset="0" stop-color="#ce720f"/><stop offset="1" stop-color="#7f4304"/></radialGradient><radialGradient cx="349.88863" cy="145.69893" r="4.50563" gradientUnits="userSpaceOnUse" id="color-20"><stop offset="0" stop-color="#632d07"/><stop offset="1" stop-color="#4a2b05"/></radialGradient><radialGradient cx="370.5895" cy="151.13529" r="3.13469" gradientUnits="userSpaceOnUse" id="color-21"><stop offset="0" stop-color="#91a9ac"/><stop offset="1" stop-color="#8d8989"/></radialGradient><radialGradient cx="372.79059" cy="152.75934" r="3.09061" gradientUnits="userSpaceOnUse" id="color-22"><stop offset="0" stop-color="#91a9ac"/><stop offset="1" stop-color="#8d8989"/></radialGradient><radialGradient cx="371.71085" cy="151.86787" r="2.04427" gradientUnits="userSpaceOnUse" id="color-23"><stop offset="0" stop-color="#91a9ac"/><stop offset="1" stop-color="#8d8989"/></radialGradient><radialGradient cx="378.20307" cy="145.32" r="3.29968" gradientUnits="userSpaceOnUse" id="color-24"><stop offset="0" stop-color="#91a9ac"/><stop offset="1" stop-color="#8d8989"/></radialGradient><radialGradient cx="377.21181" cy="146.48859" r="2.88721" gradientUnits="userSpaceOnUse" id="color-25"><stop offset="0" stop-color="#91a9ac"/><stop offset="1" stop-color="#8d8989"/></radialGradient><radialGradient cx="376.36795" cy="147.89371" r="3.34092" gradientUnits="userSpaceOnUse" id="color-26"><stop offset="0" stop-color="#91a9ac"/><stop offset="1" stop-color="#8d8989"/></radialGradient><radialGradient cx="375.15726" cy="149.02816" r="3.92396" gradientUnits="userSpaceOnUse" id="color-27"><stop offset="0" stop-color="#91a9ac"/><stop offset="1" stop-color="#8d8989"/></radialGradient><radialGradient cx="374.18679" cy="150.11731" r="4.22562" gradientUnits="userSpaceOnUse" id="color-28"><stop offset="0" stop-color="#91a9ac"/><stop offset="1" stop-color="#8d8989"/></radialGradient><radialGradient cx="379.04797" cy="149.57852" r="5.5682" gradientUnits="userSpaceOnUse" id="color-29"><stop offset="0" stop-color="#91a9ac"/><stop offset="1" stop-color="#8d8989"/></radialGradient><radialGradient cx="374.31554" cy="145.13789" r="5.5682" gradientUnits="userSpaceOnUse" id="color-30"><stop offset="0" stop-color="#91a9ac"/><stop offset="1" stop-color="#8d8989"/></radialGradient><radialGradient cx="375.84452" cy="148.64512" r="4.98179" gradientUnits="userSpaceOnUse" id="color-31"><stop offset="0" stop-color="#ce720f"/><stop offset="1" stop-color="#7f4304"/></radialGradient><radialGradient cx="376.64118" cy="148.40766" r="4.08106" gradientUnits="userSpaceOnUse" id="color-32"><stop offset="0" stop-color="#632d07"/><stop offset="1" stop-color="#4a2b05"/></radialGradient><radialGradient cx="357.44546" cy="174.91344" r="2.33699" gradientUnits="userSpaceOnUse" id="color-33"><stop offset="0" stop-color="#bfbfbf"/><stop offset="1" stop-color="#e2d9b5"/></radialGradient><radialGradient cx="360.3448" cy="176.27479" r="2.75083" gradientUnits="userSpaceOnUse" id="color-34"><stop offset="0" stop-color="#bfbfbf"/><stop offset="1" stop-color="#e2d9b5"/></radialGradient><radialGradient cx="364.43995" cy="176.67465" r="2.95623" gradientUnits="userSpaceOnUse" id="color-35"><stop offset="0" stop-color="#bfbfbf"/><stop offset="1" stop-color="#e2d9b5"/></radialGradient><radialGradient cx="374.179" cy="176.16193" r="1.24073" gradientUnits="userSpaceOnUse" id="color-36"><stop offset="0" stop-color="#bfbfbf"/><stop offset="1" stop-color="#e2d9b5"/></radialGradient><radialGradient cx="368.96773" cy="176.86607" r="2.70773" gradientUnits="userSpaceOnUse" id="color-37"><stop offset="0" stop-color="#bfbfbf"/><stop offset="1" stop-color="#e2d9b5"/></radialGradient><radialGradient cx="371.87277" cy="176.8971" r="2.00202" gradientUnits="userSpaceOnUse" id="color-38"><stop offset="0" stop-color="#bfbfbf"/><stop offset="1" stop-color="#e2d9b5"/></radialGradient><radialGradient cx="361.30954" cy="159.85671" r="3.57208" gradientUnits="userSpaceOnUse" id="color-39"><stop offset="0" stop-color="#632d07"/><stop offset="1" stop-color="#4a2b05"/></radialGradient><radialGradient cx="370.79489" cy="160.62699" r="3.07561" gradientUnits="userSpaceOnUse" id="color-40"><stop offset="0" stop-color="#632d07"/><stop offset="1" stop-color="#4a2b05"/></radialGradient><radialGradient cx="355.12931" cy="154.41204" r="14.45256" gradientUnits="userSpaceOnUse" id="color-41"><stop offset="0" stop-color="#99540b"/><stop offset="1" stop-color="#673703"/></radialGradient><radialGradient cx="372.5671" cy="170.01231" r="3.87536" gradientUnits="userSpaceOnUse" id="color-42"><stop offset="0" stop-color="#99540b"/><stop offset="1" stop-color="#673703"/></radialGradient><radialGradient cx="366.42542" cy="172.99588" r="11.56735" gradientUnits="userSpaceOnUse" id="color-43"><stop offset="0" stop-color="#99540b"/><stop offset="1" stop-color="#673703"/></radialGradient><radialGradient cx="347.45433" cy="166.12232" r="6.61723" gradientUnits="userSpaceOnUse" id="color-44"><stop offset="0" stop-color="#99540b"/><stop offset="1" stop-color="#673703"/></radialGradient><radialGradient cx="364.4922" cy="168.08436" r="4.60045" gradientUnits="userSpaceOnUse" id="color-45"><stop offset="0" stop-color="#632d07"/><stop offset="1" stop-color="#4a2b05"/></radialGradient><radialGradient cx="368.95729" cy="166.96544" r="2.12281" gradientUnits="userSpaceOnUse" id="color-46"><stop offset="0" stop-color="#212121"/><stop offset="1" stop-color="#0f0000"/></radialGradient><linearGradient x1="355.48562" y1="148.3265" x2="369.5816" y2="150.13598" gradientUnits="userSpaceOnUse" id="color-47"><stop offset="0" stop-color="#2f0e9b"/><stop offset="1" stop-color="#53069c"/></linearGradient><linearGradient x1="359.05909" y1="145.16396" x2="366.90955" y2="146.12252" gradientUnits="userSpaceOnUse" id="color-48"><stop offset="0" stop-color="#1f0965"/><stop offset="1" stop-color="#460583"/></linearGradient></defs><g transform="translate(-321.83333,-129.5)"><g data-paper-data="{&quot;isPaintingLayer&quot;:true}" fill-rule="nonzero" stroke-linecap="butt" stroke-linejoin="miter" stroke-miterlimit="10" stroke-dasharray="" stroke-dashoffset="0" style="mix-blend-mode: normal"><path d="M321.83333,230.5v-101h76.33333v101z" fill="#273042" stroke="none" stroke-width="0"/><path d="M329.75471,196.83333v-61.66667h60.49068v61.66667z" fill="#0b0e13" stroke="none" stroke-width="0"/><path d="M343.0835,227.33333v-17.33333h33.83333v17.33333z" fill="#0b0e13" stroke="#000000" stroke-width="0"/><path d="M342.99996,209.125v-11.25h34.25v11.25z" fill="#273042" stroke="#000000" stroke-width="0"/><text transform="translate(345.44341,222.26211) scale(0.29962,0.29962)" font-size="40" xml:space="preserve" fill="#c79e44" fill-rule="nonzero" stroke="none" stroke-width="1" stroke-linecap="butt" stroke-linejoin="miter" stroke-miterlimit="10" stroke-dasharray="" stroke-dashoffset="0" font-family="&quot;Agency FB&quot;, Sans Serif" font-weight="normal" text-anchor="start" style="mix-blend-mode: normal"><tspan x="0" dy="0">MEDIUM</tspan></text><path d="" fill="#f2aa58" stroke="none" stroke-width="0.5"/><g stroke="none"><g><path d="M376.49779,175.80237c-0.08721,2.03523 -1.60494,5.71797 -4.71489,8.01247c-3.06027,2.25783 -7.68151,3.14527 -11.64976,2.99084c-5.45415,-0.21226 -11.76734,-3.82428 -14.37526,-7.80646c-1.21776,-1.85947 -0.64036,-4.32174 -0.58528,-5.60707c0.17303,-4.03794 6.64445,-0.70858 14.64539,-0.39721c8.00094,0.31137 16.85284,-1.2305 16.67981,2.80744z" fill="#221202" stroke-width="0"/><g stroke-width="0"><path d="M361.53669,188.08355l0.12768,-10.28087l4.60431,0.08097l-0.12769,10.28087z" fill="#0b0b0b"/><path d="M368.41461,179.1389c-0.02762,-0.53641 -0.12483,-1.37576 -0.30774,-2.12687c-0.08715,-0.35789 -0.36749,-0.71068 -0.34462,-0.97325c0.05146,-0.5906 1.58868,-0.58521 1.71963,-0.58878c0.13934,-0.0038 -0.13057,0.38486 0.02709,1.02222c0.19465,0.78681 0.04336,1.84704 0.08224,2.60221c0.07038,1.36689 -0.72229,2.962 -1.03365,2.97049c-0.31136,0.00848 -0.07257,-1.53913 -0.14296,-2.90601z" fill="#0b0b0b"/><path d="M370.23614,181.5094c-0.32547,2.95976 -2.03395,4.24795 -6.88758,3.83093c-2.56479,-0.22036 -5.75632,-2.05102 -7.38045,-4.52902c-1.358,-2.07196 -0.94723,-7.42965 -0.93755,-7.51767c0.1836,-1.66958 1.61722,2.15118 3.81108,5.25469c1.69533,2.39827 4.03395,3.63838 6.14968,3.82016c0.8483,0.07289 3.30279,0.31057 4.00412,-1.05846c1.17257,-2.28894 -0.07597,-6.52329 0.47799,-5.78938c1.01045,1.33868 0.9362,4.41116 0.76272,5.98874z" fill="#303030"/><path d="M367.40162,176.33698c-0.07442,0.67676 0.19221,1.81244 -0.29036,2.39665c-0.68745,0.83224 -2.29005,0.98814 -3.38408,0.89414c-0.97588,-0.08384 -2.53878,-0.33409 -3.2885,-1.32546c-0.68077,-0.90019 -0.60058,-2.51027 -0.51471,-3.29115c0.18044,-1.64085 2.59461,-1.48542 4.45662,-1.32543c1.86201,0.15998 3.20146,1.01039 3.02102,2.65125z" fill="#0b0b0b"/></g><path d="M374.09173,178.1991l0.55135,-12.86696l1.72464,0.06712l-0.55135,12.86697z" fill="url(#color-1)" stroke-width="0"/><path d="M361.79406,173.61625l0.02611,0.03117c0.05349,0.42505 0.23163,0.9897 0.36986,1.4152c-0.00976,0.26958 -0.14866,0.76431 -0.04166,1.01554c0.2711,0.63651 1.13594,0.9629 1.75832,0.4578c0.90152,-0.69425 1.45551,-1.57946 2.19039,-2.41432c0.17145,-0.00736 0.46529,-0.14449 0.60752,0.00791c0.08607,0.09222 -0.00394,0.5153 -0.00936,0.63519c-0.0304,0.67388 -0.22898,1.31564 -0.25923,2.02173c-0.03008,0.70624 0.77556,1.03078 0.59912,1.77541c-0.13332,0.56264 -0.76287,0.62164 -1.12954,0.17374c-0.13839,-0.3217 -0.22701,-0.79011 -0.57976,-1.01069c-0.65904,-0.41212 -1.2831,0.39644 -1.31667,0.85163c-0.096,0.14478 -0.62755,0.98763 -0.74468,1.02263c-0.55088,0.16461 -1.55946,-0.75067 -1.98663,-0.98788c-0.31864,-0.8978 -1.05299,-2.07225 -0.48813,-3.0418c0.01618,-0.47978 0.24954,-1.51058 0.78158,-1.97052c-0.0111,-0.02058 -0.01892,-0.05455 0.0229,-0.0849c0.04037,-0.0293 0.07721,-0.0191 0.09954,-0.00698c0.14223,-0.09122 0.30299,-0.14268 0.48352,-0.1375c0,0 0.08623,0.00335 0.08308,0.07702c-0.00316,0.07367 -0.08939,0.07031 -0.08939,0.07031c-0.13915,-0.00722 -0.26447,0.02989 -0.37688,0.09931z" fill-opacity="0.45882" fill="#611111" stroke-width="0.5"/><path d="M347.78724,180.62167l0.47571,-11.10174l1.72465,0.06712c0,0 -0.37615,8.77823 -0.51635,12.04995c-0.00517,0.12057 -1.68401,-1.01531 -1.68401,-1.01531z" fill="url(#color-2)" stroke-width="0"/><path d="M376.41744,175.60915c-0.00372,0.08682 0.41644,0.84277 0.18256,1.75442c-0.75978,2.96155 -3.11245,8.83013 -4.79398,9.33996c-4.14656,1.25721 -11.55434,1.29738 -16.5979,-0.29581c-3.6407,-1.15005 -5.64301,-3.94817 -6.22686,-3.97088c-1.82165,-0.07089 -4.15572,-1.28605 -4.0886,-2.85241c0.03274,-0.76418 -0.76392,-2.79487 -0.88795,-4.72269c-0.13019,-2.02365 0.43215,-3.92832 1.36506,-3.89201c0.28203,0.01098 0.61739,0.10556 1.20578,0.76315c0.03992,0.0446 -0.47911,0.71228 -0.65163,1.65309c-0.33904,1.84888 -0.32709,4.71416 0.98218,5.70908c0.44927,0.34141 1.42179,0.95356 2.59243,1.39018c2.29665,0.85658 5.236,1.53739 5.64351,1.67312c2.25199,0.75008 4.11138,2.0855 5.8908,2.70225c0.14333,0.04968 3.49887,0.93353 6.22475,0.75248c2.2177,-0.1473 3.91738,-1.36264 3.95164,-1.36333c0.73521,-0.01493 0.33431,-2.03964 1.01888,-3.80856c0.39677,-1.02525 0.68398,-2.40574 2.94514,-3.4388c0.37324,-0.17053 0.87144,-2.69932 0.98681,-2.66752c0.14614,0.04028 0.26044,1.20314 0.2574,1.2743z" fill="#6b3b08" stroke-width="0"/><path d="M373.78833,185.61545c-0.04729,1.1037 -0.58578,2.99589 -1.80129,3.99017c-1.49528,1.22312 -4.23978,1.8623 -6.86676,1.76007c-0.92373,-0.03595 -5.03524,0.14494 -7.15396,-0.6212c-1.7029,-0.61577 -1.63951,-1.81687 -3.58467,-2.58323c-3.4543,-1.36094 -6.69211,-2.47668 -9.16738,-4.56236c-1.81763,-1.53155 -3.31429,-4.79708 -2.75678,-7.6769c0.30068,-1.55317 1.089,-3.16116 1.85968,-4.1839c0.4244,-0.56322 1.08267,-0.91394 1.08904,-1.06255c0.00037,-0.00867 -1.08337,2.10684 -0.94748,4.41278c0.1271,2.15671 1.43449,4.48442 2.51456,5.27289c1.84616,1.34773 4.72924,1.37389 7.59366,2.39635c2.42883,0.86697 3.93336,2.42823 6.02319,3.2373c1.89207,0.73251 4.43919,0.75548 5.37416,0.79187c1.96386,0.07643 4.01482,-0.335 5.29107,-0.86324c0.34837,-0.14419 1.68951,-0.58565 2.01845,-1.9227c0.2019,-0.82068 -0.16212,-1.77748 0.30511,-2.68034c0.68494,-1.32358 2.1847,-2.84286 2.58649,-4.05049c0.55756,-1.67583 -0.22633,-3.22794 -0.13855,-3.14153c0.03349,0.03297 1.32026,1.89632 0.9811,3.52968c-0.35138,1.69218 -1.68227,3.72344 -2.35202,5.12497c-0.66244,1.38623 -0.86183,2.69708 -0.86763,2.83234z" fill="url(#color-3)" stroke-width="0"/><path d="M343.85467,173.41156c-0.0761,-0.03534 -0.03542,-0.10006 -0.03542,-0.10006l0.04281,-0.0681c0.09488,-0.14753 0.15019,-0.40645 0.19998,-0.70262c0.016,-0.36821 0.14096,-0.32742 0.28852,-0.65328c0.12272,-0.41145 0.27003,-0.718 0.64713,-0.68371c0.00411,-0.0017 0.08918,-0.33201 0.31608,-0.30768c0.45168,0.04845 1.21618,0.49317 1.27857,0.66915c0.07769,0.21917 -0.0631,0.14902 -0.15715,0.29909c-0.09576,0.1528 -0.8132,2.18431 -0.78508,3.93142c0.02349,1.45963 0.77779,2.68032 0.85409,2.82457c0.3053,0.28781 1.05399,1.06692 2.117,1.5544c1.51692,0.69564 3.4658,1.09522 3.90318,1.16834c0.713,0.34679 1.56881,0.28715 2.32508,0.5982c0.41944,0.17251 0.49928,0.43534 0.98166,0.45412c0.92815,0.03612 2.07603,0.14311 2.6808,0.8253c0.23325,0.26311 -0.23858,0.33288 -0.0444,0.46789c0.40903,0.10988 0.76153,0.41163 1.18451,0.53075c0.37674,0.1061 0.84435,-0.04897 1.21028,0.15787c0.28022,0.1584 0.36657,0.49369 0.73886,0.5517c0.38787,0.19359 0.91813,0.14728 1.36512,0.25017c0.71214,0.16392 1.3335,0.25724 2.03664,0.48305c0.52507,0.1716 0.94415,-0.06745 1.42589,-0.04227c0.57899,0.03026 1.21383,0.27388 1.77045,-0.16972c0.56588,-0.43732 1.19033,-0.49482 1.78911,-0.74956c0.11035,-0.04695 0.03474,-0.17664 0.0786,-0.23919c0.18042,-0.25728 0.67694,-0.46455 0.96869,-0.58566c0.41085,-0.59441 0.37931,-0.94759 0.49804,-1.61307c0.07732,-0.43338 0.37432,-0.80874 0.3935,-1.2559c0.00975,-0.22627 0.26763,-0.59273 0.43062,-0.78033c0.1618,-0.18622 0.10111,-0.33271 0.1744,-0.62781c0.14649,-0.58987 1.40416,-1.85767 1.48683,-1.93201c0.03301,-0.02968 0.95844,-0.30408 1.13268,-0.8906c0.07297,-0.12492 0.44457,-0.34698 0.55233,-0.76867c0.14001,-0.54794 0.03311,-1.30908 0.28776,-1.3591c0.41169,-0.08087 0.70258,1.0195 0.81575,1.27471c-0.03546,1.11303 -0.31622,2.01345 -0.95891,2.95228c-1.05239,0.34007 -1.29442,1.63641 -1.35293,2.54294c-0.04988,0.4816 -0.64359,0.61705 -0.853,1.13041c-0.19653,0.48176 0.06572,1.1248 0.04553,1.57413c-0.04993,0.40276 -0.15116,1.09176 -0.41652,1.42752c-0.31439,0.39781 -0.70509,0.85623 -0.73758,1.37383c-0.0603,0.87193 -1.34792,1.11752 -2.08319,1.41767c-0.24996,0.10204 -0.39025,0.33397 -0.69787,0.41816c-0.46279,0.12336 -0.7409,0.46402 -1.15822,0.58727c-0.62456,0.18447 -1.63622,0.06965 -2.27713,-0.03363c-1.15782,-0.20063 -2.32533,-0.15663 -3.55196,-0.204c-1.36287,-0.05233 -2.25019,-0.03982 -3.53967,-0.52436c-0.37033,-0.33723 -0.637,-1.26382 -1.11652,-1.43234c-0.5114,-0.17972 -1.058,0.07293 -1.46664,-0.39676c-0.28015,-0.33163 -0.94361,-1.12542 -1.34427,-1.29127c-0.16559,-0.06855 -0.36494,-0.00462 -0.51885,-0.12617c-0.2583,-0.204 -0.33353,-0.47673 -0.59999,-0.68155c-0.38307,-0.2995 -0.87414,-0.48169 -1.25121,-0.78604c-0.18123,-0.14627 -0.16564,-0.52827 -0.3913,-0.56499c-0.39207,-0.0638 -0.75396,0.25395 -1.12839,0.24516c-0.54242,-0.02179 -0.83467,-0.2729 -1.27771,-0.34388c-0.34441,-0.05518 -0.54008,0.39127 -0.79357,0.45012c-0.35651,0.08277 -0.87611,-0.4627 -0.99511,-0.68499c-0.52934,-0.96587 -1.29614,-1.55598 -2.63529,-1.61116c-0.26503,-0.0114 -0.87103,0.04632 -1.0819,-0.11406c-0.53371,-0.40591 -1.03673,-1.41377 -1.11279,-1.98426c-0.40335,-0.89452 0.36326,-2.10051 0.40314,-3.03145c0.02986,-0.6973 -0.1466,-1.36336 -0.01661,-2.04791c0.06748,-0.35533 0.29179,-0.57619 0.15676,-0.94198c-0.01296,0.02427 -0.0268,0.04842 -0.04159,0.07241l-0.04281,0.0681c0,0 -0.04068,0.06472 -0.11677,0.02938z" fill-opacity="0.57255" fill="#611111" stroke-width="0.5"/><g><path d="M368.40193,186.27916c-1.54545,0.1385 -1.64718,0.3282 -1.76485,-0.55631c-0.11768,-0.88452 -0.14161,-1.71251 1.40384,-1.851c1.54545,-0.1385 1.94013,0.3426 2.05781,1.2271c0.11768,0.88452 -0.15135,1.04172 -1.69678,1.18021z" fill="url(#color-4)" stroke-width="0"/><path d="M366.55579,185.1527l0.05334,-0.67454c0.23241,-0.18832 0.52904,-0.45302 1.03845,-0.55237c0.25903,-0.05052 0.55641,-0.0895 0.83587,-0.08848c0.05275,0.00019 0.98903,0.08686 0.98903,0.08686l0.41041,0.41905c0.00859,0.14743 0.32386,0.55569 0.10747,0.80415c-0.07951,0.09129 -0.55792,-0.39288 -0.73426,-0.406c-0.24058,-0.01789 -0.16647,0.45227 -0.33085,0.40492l-0.82178,-0.10232c-0.31134,-0.03405 0.18281,0.41099 -0.0823,0.55096c0,0 -0.82216,-0.55865 -1.03216,-0.55877z" fill-opacity="0.8" fill="#611111" stroke-width="0.5"/></g><g><path d="M362.784,185.1225c0.05956,-0.8874 0.42228,-1.38086 1.97515,-1.29294c1.55287,0.08793 1.58325,0.91581 1.52369,1.80322c-0.05956,0.8874 -0.17361,0.70124 -1.72648,0.61331c-1.55287,-0.08793 -1.83192,-0.23618 -1.77236,-1.12358z" fill="url(#color-5)" stroke-width="0"/><path d="M363.37767,185.16295c-0.15673,0.09611 -0.56035,-0.31065 -0.56035,-0.31065l0.17167,-0.5878c0.26573,-0.15294 0.65044,-0.46115 1.17276,-0.48765c0.7672,-0.03891 1.58023,0.27477 1.58023,0.27477c0,0 0.06981,0.03999 0.11949,0.08722c0.04102,0.03899 0.42319,0.37247 0.50061,0.65189c0.0227,0.08193 -0.12785,0.16507 -0.21301,0.30414c-0.10242,0.16728 -0.15161,0.38442 -0.2397,0.36568c-0.13254,-0.0282 -0.07149,-0.61519 -0.18941,-0.51849c-0.22712,0.18628 -0.59728,-0.23604 -0.27188,0.46326c0,0 -0.8211,-0.66392 -0.5694,-0.05268c0.01552,0.03766 -0.72398,-0.40592 -0.95119,-0.00642c0,0 -0.34242,-0.15372 -0.54985,-0.18326z" fill-opacity="0.8" fill="#611111" stroke-width="0.5"/></g><g><path d="M359.11703,183.77021c0.39005,-0.82151 0.92003,-1.18788 2.36208,-0.67868c1.44203,0.50919 1.15978,1.2992 0.76973,2.12071c-0.39005,0.82151 -0.42844,0.61443 -1.87047,0.10524c-1.44203,-0.50919 -1.65138,-0.72575 -1.26134,-1.54727z" fill="url(#color-6)" stroke-width="0"/><path d="M359.83521,183.3948c-0.18723,0.04113 -0.53373,0.00748 -0.53373,0.00748l0.38644,-0.55689c0.31321,-0.06041 0.8601,-0.12244 1.36025,0.01368c0.7346,0.19993 1.55599,0.7376 1.55599,0.7376l-0.05139,0.5843c0.09638,0.29245 -0.7653,0.69253 -0.96314,0.49852l-0.46143,-0.38631c-0.24931,-0.16438 -0.7537,0.1392 -1.06645,0.14399c0,0 0.2854,-0.5254 0.1726,-0.65727c-0.09906,-0.11579 -0.5914,0.16323 -0.67638,0.12055z" fill-opacity="0.8" fill="#611111" stroke-width="0.5"/></g><g><path d="M355.72516,182.09306c0.40995,-0.81428 0.9488,-1.17111 2.37846,-0.6366c1.42965,0.53451 1.12826,1.31921 0.7183,2.13349c-0.40995,0.81428 -0.4433,0.6066 -1.87296,0.07208c-1.42965,-0.53451 -1.63375,-0.7547 -1.2238,-1.56897z" fill="url(#color-7)" stroke-width="0"/><path d="M356.3342,181.85194c-0.18578,0.04554 -0.59776,0.12903 -0.59776,0.12903c0,0 0.15631,-0.28914 0.26154,-0.40557c0.0957,-0.10589 0.34394,-0.26443 0.34394,-0.26443c0.35986,-0.15869 0.78177,-0.15013 1.28599,-0.02588c0.74062,0.1825 1.42803,0.61533 1.43787,0.6595l0.04659,-0.01139l0.06205,0.63799c0.1058,0.29012 -0.0543,0.60713 -0.38533,0.73394c-0.28758,0.11016 -0.63569,-0.53624 -0.8397,-0.72554l-0.87249,0.30006c-0.25449,-0.15846 0.06216,-0.68405 -0.25025,-0.67185c0,0 -0.57174,0.34309 -0.75633,0.25611z" fill-opacity="0.8" fill="#611111" stroke-width="0.5"/></g><g><path d="M352.03881,180.76003c0.29125,-0.85155 0.77508,-1.26185 2.26833,-0.87845c1.49326,0.38341 1.30545,1.19434 1.0142,2.04589c-0.29125,0.85155 -0.35372,0.64863 -1.84699,0.26522c-1.49326,-0.38341 -1.72681,-0.58112 -1.43554,-1.43267z" fill="url(#color-8)" stroke-width="0"/><path d="M352.28513,180.28478c0.2403,-0.5906 0.80605,-0.54933 1.05684,-0.5984c0.52969,0.04059 1.35248,0.20616 1.80741,0.48321c0.53434,0.3254 0.54477,1.24658 0.11074,1.54672c-0.02426,0.01677 -0.4484,-0.44703 -0.81451,-0.44148c-0.2849,0.00432 -0.44161,0.42796 -0.50548,0.31824c-0.6642,-1.14116 -0.39424,-0.69954 -0.71896,-0.33601c-0.08279,0.09269 -0.01158,-0.09924 0.01696,-0.27805c0.03387,-0.2122 0.02739,-0.42931 -0.08994,-0.45997c-0.44793,-0.11701 -0.15078,0.73904 -0.45792,0.58926c-0.27992,-0.13652 -0.1926,-0.34671 -0.22696,-0.51638c-0.02813,-0.13891 -0.20338,-0.24523 -0.17818,-0.30716z" fill-opacity="0.8" fill="#611111" stroke-width="0.5"/></g><path d="M351.41742,185.2693c-0.02479,-0.00774 -0.05645,-0.02647 -0.05451,-0.07163c0.00204,-0.04751 0.03863,-0.06299 0.06436,-0.06799c0.00794,-0.02149 0.029,-0.05136 0.08462,-0.0492c0.05578,0.00217 0.07416,0.03375 0.08018,0.0558c1.08526,0.10001 -0.1701,0.79943 -0.17588,0.16184z" fill-opacity="0.57255" fill="#611111" stroke-width="0.5"/><path d="M354.14647,186.75718c-0.08623,-0.00336 -0.08307,-0.07702 -0.08307,-0.07702l0.0021,-0.04911c0.01854,-0.26002 -0.08147,-0.59848 -0.37237,-0.68238c0,0 -0.08081,-0.02648 -0.05055,-0.0953c0.03027,-0.06883 0.11107,-0.04235 0.11107,-0.04235c0.3713,0.13205 0.49199,0.48983 0.48431,0.82674l-0.00211,0.04911c0,0 -0.00316,0.07367 -0.08939,0.07031z" fill-opacity="0.57255" fill="#611111" stroke-width="0.5"/><path d="M353.16919,186.71914c-0.08623,-0.00336 -0.08307,-0.07702 -0.08307,-0.07702c0.00421,-0.09822 0.01052,-0.24555 0.01473,-0.34377c0,0 0.00316,-0.07367 0.08939,-0.07031c0.08623,0.00336 0.08308,0.07702 0.08308,0.07702c-0.00421,0.09822 -0.00842,0.19644 -0.01263,0.29466l-0.00211,0.04911c0,0 -0.00316,0.07367 -0.08939,0.07031z" fill-opacity="0.57255" fill="#611111" stroke-width="0.5"/><path d="M352.41141,184.48799c0.07393,-0.03745 0.11842,0.02608 0.11842,0.02608l0.01297,0.01853c0.11279,0.1621 0.28517,0.23625 0.37721,0.39752c0,0 0.03575,0.06739 -0.0428,0.09733c-0.07854,0.02994 -0.11428,-0.03745 -0.11428,-0.03745c-0.06618,-0.14073 -0.26558,-0.23708 -0.368,-0.38251l-0.01298,-0.01853c0,0 -0.04448,-0.06353 0.02946,-0.10098z" fill-opacity="0.57255" fill="#611111" stroke-width="0.5"/><path d="M351.00258,184.19963c0.00335,-0.07366 0.08957,-0.07014 0.08957,-0.07014l0.00469,0.00019c0.32791,0.01339 0.77253,0.19478 1.02358,0.1874c0,0 0.08623,0.00336 0.08308,0.07702c-0.00316,0.07367 -0.08939,0.07031 -0.08939,0.07031c-0.31662,-0.02436 -0.6461,-0.17199 -1.02397,-0.18742l-0.00469,-0.00019c0,0 -0.08623,-0.00352 -0.08288,-0.07718z" fill-opacity="0.57255" fill="#611111" stroke-width="0.5"/><path d="M349.57096,184.22628c-0.03574,-0.06739 0.0428,-0.09733 0.0428,-0.09733l0.11708,-0.04463c0,0 0.07854,-0.02994 0.11428,0.03745c0.03574,0.06739 -0.0428,0.09733 -0.0428,0.09733l-0.11708,0.04464c0,0 -0.07854,0.02994 -0.11428,-0.03745z" fill-opacity="0.57255" fill="#611111" stroke-width="0.5"/><path d="M349.062,184.62668c-0.06788,-0.04604 -0.01461,-0.10364 -0.01461,-0.10364l0.10529,-0.11252c0.05058,-0.02996 0.10116,-0.05992 0.15175,-0.08988c0,0 0.07088,-0.04152 0.1201,0.01943c0.04922,0.06095 -0.02166,0.10246 -0.02166,0.10246c-0.04392,0.0254 -0.08784,0.05079 -0.13177,0.07618l-0.08793,0.09641c0,0 -0.05328,0.0576 -0.12115,0.01156z" fill-opacity="0.57255" fill="#611111" stroke-width="0.5"/><path d="M346.55395,182.52631c0.08623,0.00336 0.08308,0.07702 0.08308,0.07702l-0.00632,0.14733c-0.01151,0.26863 0.09253,0.48569 -0.28079,0.5056c0,0 -0.01284,-0.0005 -0.02843,-0.00535c-0.00914,0.00239 -0.01893,0.0035 -0.02906,0.00311c-0.04762,-0.00186 -0.08482,-0.03634 -0.08307,-0.07702c0.00174,-0.04068 0.04176,-0.07217 0.08939,-0.07031c0.01013,0.00039 0.01979,0.00227 0.0287,0.00536c0.01595,-0.00362 0.02879,-0.00312 0.02879,-0.00312c0.18689,0.04381 0.09566,-0.21675 0.10201,-0.36497l0.00632,-0.14733c0,0 0.00316,-0.07367 0.08939,-0.07031z" fill-opacity="0.57255" fill="#611111" stroke-width="0.5"/><path d="M346.41339,182.44704c0.00174,-0.04068 0.04177,-0.07216 0.08939,-0.07031c0.04762,0.00186 0.08482,0.03634 0.08308,0.07702c-0.00174,0.04068 -0.04177,0.07217 -0.08939,0.07031c-0.04762,-0.00186 -0.08482,-0.03634 -0.08308,-0.07702z" fill-opacity="0.57255" fill="#611111" stroke-width="0.5"/><path d="M347.32334,184.05662c-0.00316,0.07367 -0.08939,0.07031 -0.08939,0.07031l-0.11043,-0.0203c-0.30756,-0.2339 0.01237,-0.81632 -0.29023,-0.93774c0,0 -0.07572,-0.03595 -0.03433,-0.10034c0.04139,-0.06439 0.1171,-0.02844 0.1171,-0.02844c0.44036,0.22937 -0.03464,0.70381 0.31965,0.95531l0.00455,-0.01582c0,0 0.08623,0.00336 0.08308,0.07702z" fill-opacity="0.57255" fill="#611111" stroke-width="0.5"/><path d="M352.1663,186.60633c-0.00316,0.07367 -0.08939,0.07031 -0.08939,0.07031l-0.11498,-0.00448c-0.09791,-0.00381 -0.42674,0.02583 -0.50477,-0.03067c-0.09323,-0.06749 0.03042,-0.23789 -0.06005,-0.30808c-0.38563,-0.2992 -0.88965,0.01389 -0.86009,-0.67595c0,0 0.00316,-0.07367 0.08939,-0.07031c0.08623,0.00336 0.08307,0.07702 0.08307,0.07702c-0.0266,0.62093 0.48463,0.24208 0.81404,0.56981c0.07317,0.07279 -0.07502,0.25141 0.02967,0.28571c0.08839,0.02896 0.31555,0.00126 0.41504,0.00513l0.11498,0.00448c0,0 0.08623,0.00335 0.08307,0.07702z" fill-opacity="0.57255" fill="#611111" stroke-width="0.5"/><path d="M356.32689,187.57613c-0.0828,0.02011 -0.10708,-0.05084 -0.10708,-0.05084l-0.00263,-0.00767c-0.02691,-0.07902 -0.05761,-0.15755 -0.09756,-0.23252c0,0 -0.03575,-0.06739 0.0428,-0.09733c0.07854,-0.02994 0.11428,0.03745 0.11428,0.03745c0.04302,0.08146 0.07666,0.16651 0.1061,0.25218l0.00262,0.00767c0,0 0.02428,0.07095 -0.05852,0.09106z" fill-opacity="0.57255" fill="#611111" stroke-width="0.5"/><path d="M356.26899,188.75084c-0.07614,-0.03526 -0.03556,-0.10003 -0.03556,-0.10003l0.05762,-0.0903c0.04051,-0.1739 0.06703,-0.33432 0.07464,-0.51175c0,0 0.00316,-0.07367 0.08939,-0.07031c0.08623,0.00336 0.08308,0.07702 0.08308,0.07702c-0.00828,0.19317 -0.03829,0.36724 -0.08473,0.55625l-0.06769,0.10962c0,0 -0.04059,0.06476 -0.11674,0.02949z" fill-opacity="0.57255" fill="#611111" stroke-width="0.5"/><path d="M357.06929,189.04265c0.01719,0.07239 -0.06738,0.08644 -0.06738,0.08644l-0.06873,0.01141c-0.20937,0.03364 -0.34326,0.01619 -0.54732,-0.03553c0,0 -0.08289,-0.02112 -0.05891,-0.09177c0.02398,-0.07065 0.10687,-0.04953 0.10687,-0.04953c0.17873,0.04581 0.28218,0.06357 0.46498,0.03205l0.06873,-0.01141c0,0 0.08456,-0.01405 0.10175,0.05835z" fill-opacity="0.57255" fill="#611111" stroke-width="0.5"/><path d="M358.06721,188.53379c-0.0325,0.06806 -0.11244,0.03967 -0.11244,0.03967l-0.07205,-0.02559c-0.05184,-0.01841 -0.10205,-0.0377 -0.15095,-0.05782c0.307,0.20101 0.44276,0.40088 0.69383,0.67092l0.10861,0.10062c0,0 0.05875,0.05446 -0.00446,0.10418c-0.06321,0.04972 -0.12195,-0.00475 -0.12195,-0.00475l-0.11292,-0.10478c-0.25419,-0.27437 -0.37289,-0.46402 -0.69248,-0.66575l-0.00351,0.03117c-0.02057,0.032 -0.04113,0.06398 -0.0617,0.09598c0,0 -0.04139,0.06439 -0.11711,0.02844c-0.07572,-0.03595 -0.03433,-0.10034 -0.03433,-0.10034c0.02056,-0.032 0.04113,-0.06398 0.06169,-0.09598l-0.00631,-0.06563c0,0 0.00316,-0.07367 0.08939,-0.07031c0.01024,0.0004 0.01922,0.00179 0.0271,0.00393c0.00249,-0.00067 0.00498,-0.0012 0.00745,-0.00162c-0.20282,-0.09635 -0.3886,-0.20785 -0.58662,-0.33135c0,0 -0.07,-0.04366 -0.01954,-0.10309c0.05046,-0.05943 0.12046,-0.01577 0.12046,-0.01577c0.28538,0.17798 0.5417,0.3298 0.86836,0.44581l0.07205,0.02559c0,0 0.07993,0.02839 0.04743,0.09645z" fill-opacity="0.57255" fill="#611111" stroke-width="0.5"/><path d="M358.30545,189.9185c-0.02428,-0.07095 0.05853,-0.09106 0.05853,-0.09106l0.00896,-0.00217c0.09223,-0.02229 0.18385,-0.04783 0.27123,-0.0813c0,0 0.07854,-0.02994 0.11428,0.03745c0.03574,0.06739 -0.0428,0.09733 -0.0428,0.09733c-0.09495,0.03604 -0.19417,0.06402 -0.29415,0.08842l-0.00896,0.00217c0,0 -0.0828,0.02011 -0.10707,-0.05084z" fill-opacity="0.57255" fill="#611111" stroke-width="0.5"/><path d="M357.47561,189.61393c0.06321,-0.04972 0.12195,0.00475 0.12195,0.00475l0.04866,0.04512c0.14404,0.13661 0.29757,0.19454 0.51313,0.2011c0,0 0.08623,0.00336 0.08307,0.07702c-0.00316,0.07367 -0.08939,0.07031 -0.08939,0.07031c-0.26535,-0.0122 -0.45152,-0.0836 -0.63323,-0.24899l-0.04867,-0.04512c0,0 -0.05874,-0.05447 0.00446,-0.10418z" fill-opacity="0.57255" fill="#611111" stroke-width="0.5"/><path d="M356.7488,187.89151c0.08613,0.00511 0.08092,0.07867 0.08092,0.07867l-0.00921,0.11653c-0.06559,0.14875 -0.06454,0.26134 -0.07133,0.4197c0,0 -0.00316,0.07367 -0.08939,0.07031c-0.08623,-0.00336 -0.08307,-0.07702 -0.08307,-0.07702c0.00702,-0.16381 0.00741,-0.29083 0.07498,-0.44493l0.00576,-0.0948c0,0 0.00521,-0.07357 0.09134,-0.06846z" fill-opacity="0.57255" fill="#611111" stroke-width="0.5"/><path d="M360.57406,190.03563c-0.06321,0.04972 -0.12194,-0.00475 -0.12194,-0.00475l-0.09792,-0.09292c-0.38717,-0.14733 -0.73918,-0.22362 -1.02869,-0.49204c0,0 -0.05874,-0.05447 0.00446,-0.10418c0.06321,-0.04972 0.12195,0.00475 0.12195,0.00475c0.27654,0.25638 0.63278,0.32281 1.003,0.47249l0.12361,0.11247c0,0 0.05875,0.05446 -0.00446,0.10418z" fill-opacity="0.57255" fill="#611111" stroke-width="0.5"/><path d="M362.49311,190.084c0.02428,0.07095 -0.05852,0.09106 -0.05852,0.09106l-0.00896,0.00218c-0.36707,0.08884 -0.73642,0.12019 -1.11707,0.10537c0,0 -0.08623,-0.00336 -0.08307,-0.07702c0.00316,-0.07367 0.08939,-0.07031 0.08939,-0.07031c0.36183,0.01408 0.71319,-0.01484 1.0622,-0.09993l0.00896,-0.00217c0,0 0.0828,-0.02011 0.10708,0.05084z" fill-opacity="0.57255" fill="#611111" stroke-width="0.5"/><path d="M361.42118,189.6707c0.00477,-0.07359 0.09093,-0.06886 0.09093,-0.06886l0.06068,0.00333c0.71303,0.03915 1.38483,0.15524 2.0273,0.42862c0,0 0.07752,0.03299 0.03961,0.09894c-0.03791,0.06595 -0.11542,0.03296 -0.11542,0.03296c-0.62157,-0.26449 -1.271,-0.37546 -1.96102,-0.41335l-0.06068,-0.00333c0,0 -0.08616,-0.00473 -0.08139,-0.07832z" fill-opacity="0.57255" fill="#611111" stroke-width="0.5"/><path d="M366.65455,189.829c0.00028,-0.07374 0.08657,-0.07284 0.08657,-0.07284l0.00095,0.00001c0.97986,0.01022 1.95668,0.02694 2.93591,0.06505c0,0 0.08623,0.00335 0.08308,0.07702c-0.00316,0.07367 -0.08939,0.07031 -0.08939,0.07031c-0.41252,-0.01606 -0.82462,-0.0283 -1.2367,-0.03786c0.01141,0.04678 -0.04138,0.07412 -0.04138,0.07412l-0.02967,0.01537c-0.1287,0.06651 -0.25372,0.11745 -0.39063,0.16965c0,0 -0.07854,0.02994 -0.11428,-0.03745c-0.03574,-0.06739 0.0428,-0.09733 0.0428,-0.09733c0.10783,-0.04111 0.20752,-0.08087 0.30802,-0.12932c-0.48914,-0.01023 -0.97835,-0.01697 -1.46832,-0.02208l-0.00095,-0.00001c0,0 -0.08629,-0.00089 -0.08601,-0.07463z" fill-opacity="0.57255" fill="#611111" stroke-width="0.5"/><path d="M370.40975,189.26803l0.0822,-0.03349c0.04976,-0.01801 0.09521,-0.04996 0.12854,-0.08859c-0.0324,-0.03112 -0.01337,-0.07438 -0.01337,-0.07438c0.08076,-0.18018 0.04589,-0.26589 0.2091,-0.41231l-0.02312,0.00015c0,0 0.00316,-0.07367 0.08939,-0.07031c0.08623,0.00336 0.08308,0.07702 0.08308,0.07702l-0.02732,0.09837c-0.11007,0.08573 -0.11051,0.16888 -0.14045,0.27668c0.05263,0.03058 0.02843,0.0856 0.02843,0.0856c-0.04855,0.10101 -0.14531,0.1911 -0.25888,0.24103l-0.08219,0.03348c0,0 -0.00563,0.00229 -0.01459,0.00434c-0.01676,0.05226 -0.08585,0.04957 -0.08585,0.04957l-0.15257,-0.00791c-0.03269,0.01319 -0.06538,0.02638 -0.09808,0.03956c0,0 -0.07854,0.02994 -0.11428,-0.03745c-0.03574,-0.06739 0.0428,-0.09733 0.0428,-0.09733c0.04536,-0.01657 0.09071,-0.03315 0.13608,-0.04972l0.16662,0.00477c0.0132,-0.02634 0.04448,-0.03909 0.04448,-0.03909z" fill-opacity="0.57255" fill="#611111" stroke-width="0.5"/><path d="M371.20456,188.7633c-0.04253,-0.06448 0.03255,-0.10026 0.03255,-0.10026l0.1036,-0.04935c0.11799,-0.05615 0.20142,-0.09456 0.27859,-0.14535c-0.10944,0.03038 -0.23312,0.06472 -0.30181,0.08379c0,0 -0.08185,0.02273 -0.10917,-0.04743c-0.02733,-0.07015 0.05453,-0.09288 0.05453,-0.09288c0.10913,-0.0303 0.21826,-0.0606 0.3274,-0.09089l0.13882,-0.03854c0,0 0.05376,-0.01493 0.08868,0.01675c0.02016,-0.01379 0.06088,-0.03189 0.10789,0.00095c0.06709,0.04688 0.01282,0.1038 0.01282,0.1038c-0.16239,0.17034 -0.28883,0.23199 -0.51269,0.33876l-0.10359,0.04935c0,0 -0.07508,0.03577 -0.11761,-0.02871z" fill-opacity="0.57255" fill="#611111" stroke-width="0.5"/><path d="M362.34922,190.87837c0.01532,-0.07245 0.10024,-0.05871 0.10024,-0.05871l0.06064,0.00981c0.2119,0.03429 0.42029,0.07188 0.6297,0.11613c0,0 0.08394,0.01774 0.06393,0.08932c-0.02001,0.07158 -0.10395,0.05384 -0.10395,0.05384c-0.20632,-0.0436 -0.41155,-0.0806 -0.62033,-0.11439l-0.06064,-0.00981c0,0 -0.08492,-0.01374 -0.0696,-0.08619z" fill-opacity="0.57255" fill="#611111" stroke-width="0.5"/><path d="M364.47838,190.13838c-0.05874,-0.05447 0.00446,-0.10418 0.00446,-0.10418l0.11918,-0.09375c0,0 0.06321,-0.04971 0.12195,0.00475c0.05874,0.05447 -0.00446,0.10418 -0.00446,0.10418l-0.03031,0.02384c0.00134,-0.00033 0.00209,-0.00049 0.00209,-0.00049l0.0715,-0.01452c0.27406,-0.05565 0.4809,-0.1144 0.76346,-0.10341c0,0 0.08623,0.00336 0.08307,0.07702c-0.00096,0.02258 -0.00974,0.03792 -0.02144,0.04834c0.00915,0.01007 0.01579,0.02385 0.01713,0.04272c0.00522,0.07365 -0.08091,0.07745 -0.08091,0.07745l-0.06126,0.00074c-0.08714,0.02139 -0.17488,0.03925 -0.26314,0.05382c0.44545,-0.01942 0.8909,-0.03885 1.33634,-0.05827l0.06574,-0.00286c0,0 0.08614,-0.00376 0.0913,0.06989c0.00516,0.07365 -0.08098,0.07741 -0.08098,0.07741c-0.57423,0.02504 -1.21421,0.05294 -1.78844,0.07798c0,0 -0.00151,0.00007 -0.00416,0.00001c-0.00264,0.00007 -0.00416,0.00001 -0.00416,0.00001l-0.04615,-0.00243c-0.33333,0.02427 -0.65507,0.07331 -0.99285,0.06038c-0.79311,-0.03087 -1.51049,-0.06049 -2.20864,0.15781c0.06028,0.03928 0.11947,0.08047 0.17752,0.12367c0,0 0.06536,0.04864 0.00903,0.10406c-0.05633,0.05543 -0.1217,0.00679 -0.1217,0.00679c-0.08158,-0.06071 -0.16552,-0.11724 -0.25161,-0.16988c-0.11253,0.04283 -0.22469,0.09274 -0.33671,0.15076c0,0 -0.0735,0.03806 -0.11871,-0.02508c-0.04521,-0.06315 0.02829,-0.10123 0.02829,-0.10123c0.0863,-0.0447 0.17269,-0.08482 0.25926,-0.12079c-0.46085,-0.24795 -0.97676,-0.39577 -1.52189,-0.48258l-0.10306,-0.0033c0,0 -0.08623,-0.00336 -0.08308,-0.07702c0.00316,-0.07367 0.08939,-0.07031 0.08939,-0.07031l0.12689,0.00565c0.6048,0.09631 1.17523,0.26625 1.67852,0.55634c0.7534,-0.26214 1.526,-0.23558 2.38279,-0.20223c0.10712,0.00424 0.21263,0.00197 0.31743,-0.00386c-0.00024,-0.00276 -0.00032,-0.00556 -0.00019,-0.00839c0.00174,-0.04068 0.04177,-0.07216 0.08939,-0.07031c0.0434,0.00169 0.07815,0.03048 0.08264,0.06636c0.03613,-0.00307 0.07223,-0.00637 0.10834,-0.00979c-0.00688,-0.00024 -0.01374,-0.00049 -0.02063,-0.00075c0,0 -0.08623,-0.00336 -0.08308,-0.07702c0.00316,-0.07367 0.08939,-0.07031 0.08939,-0.07031c0.04858,0.00189 0.09714,0.00307 0.14562,0.00348c-0.01093,-0.00389 -0.02215,-0.01046 -0.03321,-0.02071zM364.60032,190.14313c0,0 -0.01267,0.00996 -0.03194,0.01609c0.01967,-0.00008 0.03933,-0.0003 0.05897,-0.00065c-0.00368,-0.01454 -0.00301,-0.02675 0.00036,-0.03698z" fill-opacity="0.57255" fill="#611111" stroke-width="0.5"/><path d="M358.63433,190.20312c0.00174,-0.04068 0.04177,-0.07216 0.08939,-0.07031c0.04762,0.00186 0.08482,0.03634 0.08307,0.07702c-0.00174,0.04068 -0.04177,0.07217 -0.08939,0.07031c-0.04762,-0.00186 -0.08482,-0.03634 -0.08307,-0.07702z" fill-opacity="0.57255" fill="#611111" stroke-width="0.5"/><path d="M367.81758,190.56876c0.04521,0.06315 -0.0283,0.10123 -0.0283,0.10123l-0.02967,0.01537c-0.38585,0.19944 -0.84449,0.13743 -1.28678,0.14243c0,0 -0.08627,0.00097 -0.08818,-0.07276c-0.00191,-0.07373 0.08435,-0.07471 0.08435,-0.07471c0.34848,-0.00394 0.72436,0.04429 1.04659,-0.05803c-0.08191,-0.05355 -0.15872,-0.11326 -0.22873,-0.17784c0,0 -0.04673,-0.04333 -0.01198,-0.08797c-0.11743,-0.04536 -0.23485,-0.09072 -0.35228,-0.13608l-0.05687,-0.02197c0,0 -0.07889,-0.03048 -0.04393,-0.09763c0.03496,-0.06715 0.11385,-0.03667 0.11385,-0.03667c0.73633,0.28443 1.52952,0.59083 2.26585,0.87526c0,0 0.07889,0.03047 0.04393,0.09762c-0.03496,0.06715 -0.11385,0.03668 -0.11385,0.03668c-0.43894,-0.16955 -0.87787,-0.33911 -1.31681,-0.50866c0.00094,0.00121 0.00188,0.00245 0.0028,0.00374zM367.69887,190.54368c0,0 0.01427,-0.00739 0.03409,-0.01026c-0.056,-0.02163 -0.112,-0.04326 -0.168,-0.06489c0.03023,0.02149 0.06139,0.04199 0.09335,0.06141l0.02055,0.01256c0,0 0.00388,0.00237 0.00919,0.00678z" fill-opacity="0.57255" fill="#611111" stroke-width="0.5"/><path d="M369.65874,189.59911c-0.00316,0.07367 -0.08939,0.07031 -0.08939,0.07031l-0.116,-0.00452c-0.10641,-0.00694 -0.21135,-0.0328 -0.31142,-0.06509c0,0 -0.08081,-0.02648 -0.05054,-0.09531c0.03026,-0.06882 0.11107,-0.04235 0.11107,-0.04235c0.08307,0.02771 0.17047,0.05089 0.25926,0.05551l0.11395,0.00443c0,0 0.08623,0.00336 0.08308,0.07702z" fill-opacity="0.57255" fill="#611111" stroke-width="0.5"/><path d="M370.0657,190.18066c-0.08623,-0.00336 -0.08308,-0.07702 -0.08308,-0.07702l0.00632,-0.14733c0.0067,-0.15653 0.05867,-0.2321 -0.07511,-0.34429c0,0 -0.05874,-0.05446 0.00446,-0.10418c0.06321,-0.04972 0.12195,0.00475 0.12195,0.00475c0.16386,0.16244 0.12998,0.24473 0.12117,0.45043l-0.00631,0.14733c0,0 -0.00316,0.07367 -0.08939,0.07031z" fill-opacity="0.57255" fill="#611111" stroke-width="0.5"/><path d="M371.17645,189.54713c0.07057,0.04297 0.02091,0.1029 0.02091,0.1029l-0.02524,0.03046c-0.23483,0.28074 -0.28726,0.4791 -0.6655,0.6544c0,0 -0.07557,0.03502 -0.11723,-0.02987c-0.04166,-0.0649 0.0339,-0.09992 0.0339,-0.09992c0.35201,-0.16314 0.38753,-0.34274 0.60768,-0.61056l0.02524,-0.03046c0,0 0.04966,-0.05992 0.12023,-0.01694z" fill-opacity="0.57255" fill="#611111" stroke-width="0.5"/><path d="M371.77178,188.77709c0.07822,0.03173 0.04179,0.0983 0.04179,0.0983l-0.02769,0.05058c-0.13153,0.24007 -0.16857,0.50637 -0.43721,0.65273c0,0 -0.0735,0.03807 -0.11871,-0.02508c-0.04521,-0.06315 0.02829,-0.10123 0.02829,-0.10123c0.22332,-0.10766 0.26382,-0.39357 0.37118,-0.58989l0.02769,-0.05058c0,0 0.03643,-0.06656 0.11466,-0.03483z" fill-opacity="0.57255" fill="#611111" stroke-width="0.5"/><path d="M373.26797,186.2301c0.07572,0.03595 0.03433,0.10034 0.03433,0.10034l-0.05448,0.08476l-0.00932,0.06034c-0.17151,0.26388 -0.31298,0.60082 -0.37571,0.89747c0,0 -0.01208,0.05716 -0.07428,0.06031c0.02827,0.00631 0.04722,0.02448 0.04722,0.02448l0.0534,0.05116c0.15852,0.15532 0.18699,0.24792 0.17968,0.45194c0,0 -0.0028,0.06536 -0.0752,0.07014c0.01624,0.00277 0.03345,0.01075 0.04957,0.02779c0.05448,0.0576 -0.01244,0.10365 -0.01244,0.10365l-0.10283,0.07059c-0.24358,0.13149 -0.48733,0.26274 -0.73104,0.39407c0,0 -0.0727,0.03917 -0.11918,-0.02331c-0.04649,-0.06248 0.02621,-0.10165 0.02621,-0.10165c0.24093,-0.12983 0.48181,-0.25973 0.72288,-0.38938l0.095,-0.06553c0,0 0.0201,-0.01383 0.04724,-0.01685c-0.07558,-0.00863 -0.07268,-0.07624 -0.07268,-0.07624c0.00854,-0.1672 -0.0019,-0.22307 -0.13555,-0.34762l-0.05339,-0.05117c0,0 -0.05769,-0.05527 0.00648,-0.10409c0.01665,-0.01267 0.03287,-0.01833 0.04776,-0.01976c-0.08388,-0.01412 -0.06868,-0.08603 -0.06868,-0.08603c0.06516,-0.30816 0.21301,-0.65482 0.38809,-0.93237c-0.00556,-0.01599 -0.00282,-0.03169 0.00091,-0.0428c0.00246,-0.00796 0.00674,-0.01767 0.01417,-0.02664l0.05474,-0.08517c0,0 0.04139,-0.06439 0.11711,-0.02844z" fill-opacity="0.57255" fill="#611111" stroke-width="0.5"/><path d="M373.5596,185.91391c0.00174,-0.04068 0.04177,-0.07216 0.08939,-0.07031c0.04762,0.00186 0.08482,0.03634 0.08308,0.07702c-0.00174,0.04068 -0.04177,0.07217 -0.08939,0.07031c-0.04762,-0.00186 -0.08482,-0.03634 -0.08307,-0.07702z" fill-opacity="0.57255" fill="#611111" stroke-width="0.5"/><path d="M347.32967,182.79467c-0.07854,0.02994 -0.11428,-0.03744 -0.11428,-0.03744l-0.03508,-0.06614c-0.10598,-0.20633 -0.1412,-0.45334 -0.32255,-0.61729c0,0 -0.05874,-0.05447 0.00446,-0.10418c0.06321,-0.04972 0.12195,0.00475 0.12195,0.00475c0.28465,0.27253 0.18071,0.34416 0.35321,0.65685l0.03507,0.06614c0,0 0.03574,0.06739 -0.0428,0.09733z" fill-opacity="0.57255" fill="#611111" stroke-width="0.5"/><path d="M347.51087,184.38367c-0.08623,-0.00336 -0.08308,-0.07702 -0.08308,-0.07702l0.00421,-0.09822c0.02348,-0.3293 0.0546,-0.72667 -0.01014,-1.06816c0,0 -0.01382,-0.07289 0.07136,-0.08405c0.08518,-0.01116 0.09899,0.06173 0.09899,0.06173c0.06854,0.36161 0.02026,0.74539 0.01224,1.09719l-0.00421,0.09822c0,0 -0.00316,0.07367 -0.08939,0.07031z" fill-opacity="0.57255" fill="#611111" stroke-width="0.5"/><path d="M347.99005,184.62368c-0.00316,0.07367 -0.08939,0.07031 -0.08939,0.07031l-0.1209,-0.02949c-0.06341,-0.0664 -0.11857,-0.13847 -0.17098,-0.2115c0,0 -0.04521,-0.06316 0.02829,-0.10123c0.0735,-0.03807 0.11871,0.02508 0.11871,0.02508c0.04805,0.06731 0.0985,0.13388 0.15711,0.19481l-0.00592,-0.02501c0,0 0.08623,0.00336 0.08308,0.07702z" fill-opacity="0.57255" fill="#611111" stroke-width="0.5"/><path d="M348.5204,185.01326c-0.08623,-0.00336 -0.08308,-0.07702 -0.08308,-0.07702l0.0098,-0.01581c-0.01776,-0.03349 -0.03552,-0.06698 -0.05328,-0.10046c0,0 -0.03574,-0.06739 0.0428,-0.09733c0.07854,-0.02994 0.11428,0.03745 0.11428,0.03745c0.01776,0.03349 0.03552,0.06697 0.05329,0.10046l0.00559,0.08241c0,0 -0.00316,0.07367 -0.08939,0.07031z" fill-opacity="0.57255" fill="#611111" stroke-width="0.5"/><path d="M344.9846,182.19467c0.00174,-0.04068 0.04177,-0.07217 0.08939,-0.07031c0.04762,0.00186 0.08482,0.03634 0.08308,0.07702c-0.00174,0.04068 -0.04177,0.07216 -0.08939,0.07031c-0.04762,-0.00186 -0.08482,-0.03634 -0.08308,-0.07702z" fill-opacity="0.57255" fill="#611111" stroke-width="0.5"/><path d="M344.61809,181.93147c0.06321,-0.04972 0.12195,0.00475 0.12195,0.00475l0.11077,0.1027c0,0 0.05874,0.05446 -0.00446,0.10418c-0.06321,0.04972 -0.12194,-0.00475 -0.12194,-0.00475l-0.11077,-0.1027c0,0 -0.05875,-0.05446 0.00446,-0.10418z" fill-opacity="0.57255" fill="#611111" stroke-width="0.5"/><path d="M344.06426,181.41799c0.06321,-0.04972 0.12195,0.00475 0.12195,0.00475l0.12844,0.12733c-0.00506,0.05679 0.00434,0.14177 0.06707,0.16162c0,0 0.07571,0.03595 0.03433,0.10034c-0.04139,0.06439 -0.1171,0.02844 -0.1171,0.02844c-0.08834,-0.04951 -0.1463,-0.15031 -0.14604,-0.24022l-0.0931,-0.07807c0,0 -0.05874,-0.05446 0.00446,-0.10418z" fill-opacity="0.57255" fill="#611111" stroke-width="0.5"/><path d="M343.08806,175.06956c0.02821,-0.05332 0.05663,-0.10556 0.08495,-0.15655c0,0 0.03687,-0.06638 0.11488,-0.03429c0.07801,0.03211 0.04115,0.09849 0.04115,0.09849c-0.03883,0.06993 -0.07835,0.14286 -0.11753,0.21826l-0.00185,0.04318c-0.02723,0.63546 0.12584,1.37753 -0.26483,1.9486l0.01876,0.0089l-0.08188,0.12739c-0.01489,0.02438 -0.04535,0.04046 -0.07977,0.03912c-0.03473,-0.00135 -0.06391,-0.02006 -0.07649,-0.04585l-0.05514,-0.10665l0.0013,-0.00048l-0.00344,-0.00405c-0.22109,-0.65787 0.05117,-1.41701 0.37205,-2.04413l0.00119,-0.02777c0,0 0.00201,-0.04693 0.04666,-0.06417z" fill-opacity="0.57255" fill="#611111" stroke-width="0.5"/><g stroke-width="0.5"><path d="M372.68116,181.8973l-0.04445,0.04754c-0.40334,0.0869 -0.40516,-0.41692 -0.33276,-0.73885l-0.01797,-0.0007l0.00421,-0.09822c0.00174,-0.04068 0.04177,-0.07216 0.08939,-0.07031c0.0304,0.00118 0.05656,0.01566 0.07105,0.03657l0.05288,0.07387c0.43969,-0.04402 0.23761,-0.32173 0.51401,-0.53914c0.78515,0.0008 0.42584,1.15028 -0.33635,1.28923z" fill="#a9a9a9"/><path d="M372.28641,181.25527c-0.10046,-0.05423 -0.13751,-0.09059 -0.09927,-0.13122c-0.19173,-0.22993 0.36748,-0.7364 0.7378,-0.62986c0.1821,0.05239 0.13329,0.2775 0.19647,0.35343c0.1451,0.22078 -0.03381,0.40365 -0.59211,0.38741c0.00302,0.00431 0.00456,0.00889 0.00436,0.01358c-0.00095,0.02212 -0.04032,0.03855 -0.08794,0.03669c-0.01024,-0.0004 -0.02003,-0.00161 -0.02907,-0.00348l-0.11232,-0.0219l0.00244,-0.00312z" fill="#888888"/></g><g stroke-width="0.5"><path d="M372.03106,183.74661l-0.08367,0.0061c-0.76256,0.08666 -0.12638,-1.37949 -0.00417,-1.65873c0.20886,-0.13521 0.52978,0.25155 0.54026,0.52178c0.01248,0.32147 -0.22591,0.81887 -0.28414,1.16626c0,0 -0.01296,0.0728 -0.09827,0.06108c-0.08531,-0.01172 -0.07236,-0.08453 -0.07236,-0.08453c0.00076,-0.00397 0.00154,-0.00796 0.00234,-0.01196z" fill="#a9a9a9"/><path d="M372.14916,182.30968c-0.02926,0.01609 -0.05302,0.04467 -0.09037,0.08135l0.02684,0.01399l-0.09377,0.09511c-0.01728,0.0184 -0.04918,0.02838 -0.08323,0.0237c-0.04712,-0.00648 -0.08054,-0.03857 -0.07464,-0.07167l0.02134,-0.1199c0.01475,-0.08207 0.04428,-0.1617 0.08628,-0.22116c-0.0055,-0.01451 -0.00331,-0.02676 -0.00331,-0.02676c0.01581,-0.08882 0.03161,-0.17763 0.04743,-0.26645c0.03045,-0.17106 0.28208,-0.5179 0.50476,-0.18129c0.12113,0.18311 0.01984,0.79075 -0.13731,0.77885c-0.01156,0.00207 -0.02408,0.00239 -0.03693,0.00062c-0.02356,-0.00324 -0.04369,-0.01288 -0.0572,-0.02585l-0.05023,-0.04823c-0.02062,-0.01077 -0.04037,-0.02133 -0.05964,-0.03231zM372.11009,182.12933c-0.00323,-0.00135 -0.00631,-0.00231 -0.00924,-0.0029c-0.00679,0.01044 -0.01899,0.02246 -0.0405,0.028c-0.0036,0.0081 -0.00662,0.01764 -0.00925,0.02822z" fill="#888888"/></g><g stroke-width="0.5"><path d="M371.87464,183.18978c-0.00113,0.02644 -0.01297,0.04295 -0.02768,0.05327c0.05927,0.09692 0.09007,0.25626 0.07986,0.49445c0.13155,0.38447 -0.53207,1.85762 -1.10725,1.71128c0,0 -0.08081,-0.02648 -0.05054,-0.0953c0.00116,-0.00265 0.0024,-0.00516 0.00371,-0.00753c-0.00823,-0.01483 -0.00813,-0.03007 -0.00557,-0.04231c0.00173,-0.01071 0.00616,-0.02065 0.01264,-0.0293l0.03107,-0.04499c0.09806,-0.28854 0.09821,-0.5604 0.11119,-0.86325c0.00822,-0.19191 -0.19404,-0.56801 -0.10703,-0.67206c0.168,-0.20091 0.36206,-0.3797 0.54066,-0.48217c-0.0097,-0.05967 0.06209,-0.0771 0.06209,-0.0771c0.08366,-0.01969 0.17184,-0.02925 0.25879,-0.02651l0.11497,0.00447c0,0 0.08623,0.00336 0.08308,0.07702z" fill="#bfbfbf"/><path d="M370.82508,183.66715c0.0065,-0.00085 0.01362,-0.00117 0.02141,-0.00086c0.08623,0.00336 0.08308,0.07702 0.08308,0.07702l-0.00281,0.06548c-0.02167,0.50574 0.38972,1.7958 -0.54618,1.71635c-0.22327,-0.29083 -0.09774,-1.85139 0.42758,-1.86034c0,0 0.00699,0.00027 0.01691,0.00235z" fill="#888888"/></g><path d="M370.28117,184.6619c-0.00945,-0.00264 -0.01538,-0.00546 -0.01538,-0.00546l-0.1201,-0.10347c0.01057,-0.24657 0.23111,-0.59005 0.36917,-0.85768c0.28347,-0.08409 1.09926,-0.92761 1.41755,-0.66632c0.18625,0.15289 -0.00581,0.70003 -0.01366,0.88334c-0.19102,0.4376 -1.29588,1.46644 -1.63757,0.7496z" fill-opacity="0.8" fill="#611111" stroke-width="0.5"/><path d="M371.72287,182.7881c-0.01253,0.01569 -0.03443,0.02938 -0.07272,0.02789c-0.08623,-0.00336 -0.08307,-0.07702 -0.08307,-0.07702l0.00823,-0.08861c0.13797,-0.31377 0.24079,-1.06804 0.65577,-1.1718c0.63934,0.02489 0.44604,1.59133 -0.5082,1.30954z" fill-opacity="0.8" fill="#611111" stroke-width="0.5"/><path d="M372.16536,181.31928c0.001,-0.02337 0.01036,-0.03898 0.02268,-0.04941c-0.11001,-0.10198 -0.23298,-0.28054 -0.18969,-0.37886c0.22893,-0.51991 1.38595,-0.69328 1.35418,0.04814c-0.03284,0.61968 -0.39223,0.489 -0.96021,0.46286l-0.10696,0.02853c0,0 -0.08623,-0.00335 -0.08308,-0.07702c0.00104,-0.02435 0.01117,-0.04028 0.02424,-0.0507c-0.01244,-0.00971 -0.02537,-0.02079 -0.03849,-0.03294c0.02651,-0.02246 0.06672,-0.02089 0.06672,-0.02089l0.09801,0.00381c0.03426,0.04089 0.07891,0.08228 0.13535,0.12367l-0.09579,0.02555c-0.00957,-0.00044 -0.01921,-0.00085 -0.0289,-0.00123l-0.11498,-0.00447c0,0 -0.08623,-0.00336 -0.08307,-0.07702z" fill-opacity="0.8" fill="#611111" stroke-width="0.5"/></g><g><path d="M374.36578,163.77224c-0.43905,3.38527 -5.49464,5.5263 -11.29197,4.7821c-5.79733,-0.7442 -10.14108,-4.0918 -9.70203,-7.47707c0.28191,-2.17369 -4.35565,-5.29254 -4.04755,-7.90463c0.17173,-1.45595 3.93025,-3.5779 6.00511,-3.31155c5.79733,0.7442 19.47549,10.52587 19.03644,13.91115z" fill="#000000" stroke-width="0"/><path d="M351.80632,151.19807c-1.13055,0.71365 -1.57309,2.23288 -2.20613,2.15162c-0.3238,-0.04157 -0.73491,-0.13478 -0.69285,-0.45485c0.14682,-1.11737 2.43812,-3.54356 3.5685,-3.39846c1.45417,0.18667 3.158,-1.2673 3.00925,-0.1204c-0.08399,0.64763 -2.21231,0.89638 -3.67878,1.82209z" fill="#834707" stroke-width="0"/><g stroke-width="0"><g><path d="M355.68354,153.27247l-4.42535,-4.84565l1.1873,-0.85211l4.42533,4.84566z" fill="url(#color-9)"/><path d="M351.8163,154.61051l-2.65269,-5.61843l1.49925,-0.57963l2.65269,5.61843z" fill="url(#color-10)"/><path d="M351.06816,152.15916l-0.87515,-0.89805l4.04587,-1.66639l0.87515,0.89805z" fill="url(#color-11)"/><path d="M344.10744,142.64183l6.73076,-1.76494l0.43555,0.52167l-6.81735,2.08795z" fill="url(#color-12)"/><path d="M345.19715,143.9479l5.9497,-1.86401l0.45235,1.07248l-5.94971,1.86401z" fill="url(#color-13)"/><path d="M345.18276,145.82866l6.79557,-2.35831l0.59614,1.28683l-6.79557,2.35832z" fill="url(#color-14)"/><path d="M345.81963,147.94533l6.97747,-3.01066l1.04298,0.82475l-6.97747,3.01067z" fill="url(#color-15)"/><path d="M347.03748,149.0976l5.91913,-1.87998l1.08373,0.27225l-5.91914,1.87998z" fill="url(#color-16)"/><path d="M349.21342,148.98033c0.52646,0.48718 0.05617,1.02417 -0.16452,1.06967c-0.48603,0.10019 -3.71452,-0.51319 -4.56738,-3.46001c-0.85287,-2.94681 -0.14838,-4.4719 0.33766,-4.57209c0.48603,-0.10019 0.73396,1.15998 1.58683,4.1068c0.46562,1.60876 2.17447,2.26993 2.80742,2.85565z" fill="url(#color-17)"/><path d="M352.68992,142.31157c2.46468,2.13802 1.43176,4.88975 1.08698,5.20647c-0.15655,0.1438 -0.92276,0.22726 -1.13489,-0.41762c-0.25506,-0.77535 -0.03911,-2.40237 -1.38464,-3.56957c-2.46467,-2.13801 -3.57786,-2.96402 -3.23308,-3.28072c0.34478,-0.31671 2.20096,-0.07657 4.66563,2.06145z" fill="url(#color-18)"/></g><path d="M345.14378,140.45354c2.26832,-1.12327 7.22023,-1.66714 9.33435,2.95794c1.43617,3.14191 0.56117,5.64883 -2.2863,7.24943c-2.77922,1.56222 -6.43602,0.91218 -8.32957,-1.24845c0,0 -1.35181,-2.45756 -1.27123,-4.70375c0.0708,-1.97357 1.49186,-3.72983 2.55276,-4.25517z" fill="url(#color-19)"/><path d="M347.01602,148.52894c-2.54802,-2.90741 -1.26617,-5.55593 0.40953,-6.38574c1.6757,-0.82979 4.44418,-0.86625 6.00596,2.55047c0.5483,1.1995 0.5879,1.69127 0.37601,2.31065c-0.19812,0.57912 -0.5942,1.30375 -1.61064,1.87511c-2.0531,1.15407 -3.78202,1.24565 -5.18086,-0.3505z" fill="url(#color-20)"/></g><g stroke-width="0"><g><path d="M367.65261,152.20874l5.04494,-3.17426l0.82883,1.02734l-5.04495,3.17424z" fill="url(#color-21)"/><path d="M370.36392,154.46341l3.68573,-4.27204l1.16761,0.86389l-3.68573,4.27204z" fill="url(#color-22)"/><path d="M369.65635,150.94518l0.983,-0.57516l3.126,2.42054l-0.983,0.57516z" fill="url(#color-23)"/><path d="M380.6692,147.37213l-5.44288,-3.4501l0.50744,-0.35149l5.44603,3.14744z" fill="url(#color-24)"/><path d="M379.25359,148.42652l-4.73998,-3.0475l0.6564,-0.82836l4.73998,3.04749z" fill="url(#color-25)"/><path d="M378.62981,150.22479l-5.35794,-3.68096l0.8342,-0.98118l5.35794,3.68095z" fill="url(#color-26)"/><path d="M377.28029,151.41067l-5.35771,-4.29391l1.11165,-0.4711l5.35771,4.2939z" fill="url(#color-27)"/><path d="M376.03523,151.63389l-4.70939,-3.05415l1.01253,0.02099l4.70939,3.05415z" fill="url(#color-28)"/><path d="M375.17663,151.03312c0.69541,-0.36029 2.34851,-0.52965 3.14725,-1.82304c1.46304,-2.36917 1.98672,-3.41019 2.38663,-3.20671c0.39991,0.20349 0.64315,1.70312 -0.81989,4.07229c-1.46303,2.36916 -4.43122,2.13409 -4.83113,1.93061c-0.18159,-0.0924 -0.46125,-0.67347 0.11715,-0.97315z" fill="url(#color-29)"/><path d="M373.76731,144.38113c2.67305,-1.27832 4.35215,-1.04493 4.57595,-0.68613c0.2238,0.35878 -0.94945,0.81424 -3.6225,2.09256c-1.45929,0.69787 -1.66743,2.1699 -2.07915,2.78594c-0.34243,0.51239 -0.99103,0.25664 -1.09265,0.09372c-0.2238,-0.35881 -0.45471,-3.00777 2.21834,-4.28609z" fill="url(#color-30)"/></g><path d="M380.80852,144.56012c0.79814,0.71188 1.61063,2.58438 1.19128,4.32432c-0.47727,1.98027 -2.25663,3.80321 -2.25663,3.80321c-2.17994,1.43439 -5.53101,1.12908 -7.57656,-0.89819c-2.09577,-2.07707 -2.24851,-4.47461 -0.22865,-6.87486c2.97335,-3.53334 7.16404,-1.87656 8.87055,-0.35447z" fill="url(#color-31)"/><path d="M378.45917,151.56407c-1.61041,1.05964 -3.09752,0.56702 -4.60863,-0.93059c-1.54824,-1.53442 -1.54956,-2.17593 -0.05741,-3.94909c2.19653,-2.61021 4.60468,-1.91758 5.86535,-0.79316c1.26067,1.12443 1.73409,3.7427 -1.19931,5.67285z" fill="url(#color-32)"/></g><g><path d="M357.80979,174.15565c1.10919,0.61388 1.28594,0.50016 0.8562,1.31081c-0.42973,0.81065 -0.88945,1.52865 -1.99863,0.91477c-1.10919,-0.61389 -1.08394,-1.62438 -0.65421,-2.43503c0.42973,-0.81064 0.68745,-0.40444 1.79663,0.20945z" fill="url(#color-33)" stroke-width="0"/><path d="M355.80895,174.68898c0.20962,-0.16115 0.58068,-0.15044 0.58068,-0.15044c0.1715,0.26226 0.06716,0.61874 0.16156,0.88588c0.07717,0.21837 0.37885,0.10114 0.58082,0.24027c0.02574,0.01773 0.1349,0.09523 0.13484,0.18701c-0.00006,0.07708 -0.10994,0.1706 -0.08942,0.1847c0.10375,0.04939 0.20737,0.09922 0.3079,0.15616l0.01863,-0.00006l0.34605,-0.37688c0.12122,0.06565 0.08664,0.56656 0.01781,0.69889c-0.04975,0.09564 -0.71675,0.13088 -0.7833,0.09218c-0.43384,-0.07022 -1.17707,-0.75763 -1.31588,-0.96774c0,0 -0.16931,-0.78881 0.0403,-0.94997z" fill-opacity="0.8" fill="#611111" stroke-width="0.5"/></g><path d="M374.836,176.85887c-0.06199,0.47798 -0.79793,0.52025 -1.49544,0.63356c-0.28436,0.0462 -0.57154,0.28808 -0.8982,0.24615c-1.12792,-0.14479 -1.77817,-0.73119 -1.69091,-1.40404c0.08727,-0.67285 1.07236,-1.10093 2.20028,-0.95614c1.12792,0.14479 1.97153,0.80762 1.88427,1.48047z" fill="#686868" stroke-width="0"/><g><path d="M360.51818,175.44525c1.48778,0.30106 1.65534,0.14433 1.4235,1.0423c-0.23184,0.89797 -0.52891,1.7142 -2.01668,1.41314c-1.48778,-0.30107 -1.79059,-1.28558 -1.55875,-2.18355c0.23184,-0.89796 0.66415,-0.57295 2.15193,-0.27188z" fill="url(#color-34)" stroke-width="0"/><path d="M358.37359,176.48985c0.19008,-0.21131 0.62383,-0.29895 0.62383,-0.29895c0.28502,0.20849 0.2812,0.581 0.47845,0.81458c0.16124,0.19094 0.47248,-0.0022 0.75239,0.07909c0.03567,0.01036 0.18771,0.05652 0.2178,0.14535c0.02527,0.07461 -0.0714,0.19413 -0.04298,0.20235c0.13652,0.02039 0.27304,0.04124 0.4083,0.06979l0.02158,-0.00498l0.27738,-0.45611c0.16212,0.03151 0.28665,0.52538 0.25033,0.6716c-0.02625,0.1057 -0.78803,0.31597 -0.87791,0.2961c-0.52609,0.04665 -1.61374,-0.42224 -1.84372,-0.58889c0,0 -0.45553,-0.71861 -0.26545,-0.92993z" fill-opacity="0.8" fill="#611111" stroke-width="0.5"/></g><g><path d="M362.45327,176.69204c0.08014,-0.92291 0.39322,-1.02981 2.01768,-0.86618c1.62446,0.16363 1.77251,-0.00928 1.69236,0.91362c-0.08013,0.92291 -0.24403,1.76985 -1.86847,1.60623c-1.62446,-0.16363 -1.9217,-0.73076 -1.84157,-1.65368z" fill="url(#color-35)" stroke-width="0"/><path d="M366.03779,177.62802c-0.02428,0.08258 -0.06915,0.16845 -0.13502,0.25156c-0.27861,0.35156 -0.93281,0.65372 -1.99239,0.44843c-0.53641,-0.10393 -0.92654,-0.22871 -1.15182,-0.42676c-0.31592,-0.27774 -0.34003,-0.63185 -0.27255,-0.68042c0.23967,-0.17252 0.90839,0.49337 0.90839,0.49337c0.49601,0.50682 0.66688,-0.29583 1.35482,-0.54066l0.67992,0.52197c0,0 0.68577,-0.3298 0.60866,-0.06748z" fill-opacity="0.8" fill="#611111" stroke-width="0.5"/></g><g><path d="M373.31846,176.41312c0.12137,-0.91399 0.26677,-1.05566 0.95369,-1.08673c0.68692,-0.03108 0.76717,-0.21799 0.64581,0.69599c-0.12136,0.91399 -0.2718,1.7634 -0.95872,1.79447c-0.68692,0.03107 -0.76214,-0.48975 -0.64078,-1.40373z" fill="url(#color-36)" stroke-width="0"/><path d="M373.79128,177.8233c-0.18084,-0.00384 -0.34623,-0.08467 -0.46976,-0.30077l-0.003,-0.03549l-0.00553,0.00695c0,0 -0.09709,-0.76912 0.00838,-0.8532c0.10987,-0.08762 0.08109,0.5809 0.26246,0.56162c0.12545,-0.01333 0.01963,-0.64313 0.17016,-0.7187c0.11943,-0.05995 0.20262,0.41676 0.34953,0.44717c0.14534,0.03008 0.48894,-0.75375 0.61465,-0.8091c0.11931,-0.05254 0.02414,0.62251 0.03886,0.67511c0.0777,0.27764 -0.14727,0.68203 -0.40974,0.88278c-0.24989,0.19112 -0.53559,0.18653 -0.556,0.14364z" fill-opacity="0.8" fill="#611111" stroke-width="0.5"/></g><g><path d="M367.14282,176.81658c0.14178,-0.91517 0.43707,-1.01095 1.91611,-0.79361c1.47903,0.21734 1.62772,0.05035 1.48594,0.96552c-0.14178,0.91517 -0.35482,1.75198 -1.83386,1.53463c-1.47903,-0.21735 -1.70996,-0.79138 -1.56818,-1.70654z" fill="url(#color-37)" stroke-width="0"/><path d="M367.63177,177.49652c0.09108,-0.05915 0.20543,-0.0499 0.20543,-0.0499l0.52047,-0.26931c0.37547,0.22507 1.96607,0.20471 1.93627,0.81392c-0.36093,0.85489 -2.05515,0.59176 -2.55768,0.31345c-0.02151,-0.01051 -0.0769,-0.05179 -0.14462,-0.10566c-0.14158,-0.11262 -0.337,-0.28029 -0.38928,-0.33699c0,0 -0.19258,-0.20889 0.02986,-0.38423c0.18514,-0.14595 0.3496,-0.0257 0.39955,0.01872z" fill-opacity="0.8" fill="#611111" stroke-width="0.5"/></g><g><path d="M373.18638,177.08599c-0.03363,0.92122 -0.2837,1.45738 -1.3745,1.47912c-1.09082,0.02175 -1.11976,-0.83146 -1.08612,-1.75269c0.03364,-0.92123 0.11541,-0.73713 1.20622,-0.75887c1.09081,-0.02175 1.28804,0.1112 1.2544,1.03243z" fill="url(#color-38)" stroke-width="0"/><path d="M370.82199,177.97247c-0.00303,-0.12516 0.04153,-0.19767 0.09021,-0.23944c0.09053,-0.19784 0.23315,-0.57414 0.23315,-0.57414l0.2452,0.81791c0.45861,-0.03787 0.12427,-0.69257 0.58696,-0.74632l0.47476,0.61876c0.074,-0.0086 0.54097,-0.83408 0.58136,-0.76705c0.0138,0.00996 0.03988,0.57396 0.05132,0.58768c0.03673,0.04404 0.06004,0.10602 0.06175,0.17691c0.00056,0.02292 -0.40338,0.76697 -1.26063,0.74624c-0.93427,-0.02259 -1.06237,-0.54954 -1.06408,-0.62056z" fill-opacity="0.8" fill="#611111" stroke-width="0.5"/></g><g fill="#ffffff" stroke-width="0.5"><path d="M360.75034,163.24811c-0.13962,0.02605 -0.27976,-0.05441 -0.313,-0.17975c-0.03324,-0.12533 0.05299,-0.24806 0.19262,-0.27412c0.13962,-0.02605 0.27976,0.05441 0.313,0.17975c0.03324,0.12533 -0.05299,0.24806 -0.19262,0.27412z"/></g><path d="M364.40417,160.64805c-0.08508,0.65603 -0.80683,0.87886 -2.76357,0.62767c-1.95675,-0.25118 -4.26605,-0.55345 -4.18096,-1.20948c0.08508,-0.65603 2.04723,-1.64856 4.00397,-1.39738c1.95674,0.25118 3.02566,1.32317 2.94057,1.9792z" fill="url(#color-39)" stroke-width="0"/><path d="M373.45241,161.36224c-0.08508,0.65603 -0.71211,0.89101 -2.39688,0.67474c-1.68478,-0.21627 -3.67301,-0.47733 -3.58793,-1.13335c0.08508,-0.65603 1.79657,-1.68074 3.48135,-1.46447c1.68478,0.21627 2.58855,1.26705 2.50347,1.92308z" fill="url(#color-40)" stroke-width="0"/><path d="M375.0885,162.08611c-0.07617,0.58735 -0.19046,1.37243 -0.34774,2.14097c-0.14944,0.73026 -0.18042,1.42153 -0.58415,1.91596c-0.61933,0.75846 -0.65643,2.04235 -1.5763,2.59068c-2.8197,1.68083 -7.5135,1.73132 -10.69691,1.32266c-5.61141,-0.72033 -16.30459,-2.67625 -15.70464,-7.30209c0.04621,-0.35635 0.17157,-0.79671 0.14993,-1.33354c-0.02978,-0.73896 -0.11999,-1.54424 0.02635,-2.51148c0.29376,-1.94163 1.40754,-4.55002 2.68916,-6.29342c0.00121,0.00147 0.00243,0.00294 0.00367,0.0044c0.13271,0.20336 0.38063,-0.01042 0.65949,0.02537c0.31114,0.03994 0.24935,1.43043 0.42806,1.22924c0.68897,-0.34123 1.71541,-1.89759 2.43425,-2.17077c0.46285,-0.1759 1.1188,-0.52591 1.57972,-0.71361c0.72153,-0.29383 1.43732,-1.12124 0.75458,-1.69279c2.63265,-0.43758 5.36872,-0.10593 7.21543,0.13113c2.5117,0.32242 6.78749,0.6628 9.29525,2.78883c3.09486,2.62377 4.00526,7.31315 3.67385,9.86844zM357.34599,164.66271c0.11613,0.01491 0.77156,0.47402 1.5226,0.64346c0.91859,0.20725 2.57791,0.1674 3.39691,-0.01473c1.24019,-0.27579 1.42279,-1.74356 1.44757,-1.93469c0.01554,-0.11985 0.21893,-0.53322 0.19016,-1.02254c-0.02882,-0.49017 -0.29016,-1.05649 -0.71526,-1.41725c-0.63954,-0.54274 -2.47551,-0.4668 -2.67877,-0.49289c-0.11559,-0.01484 -1.27892,-0.00159 -2.07571,0.5924c-0.90852,0.67729 -1.4558,1.96207 -1.45296,2.23248c0.00683,0.649 0.09989,1.37967 0.36545,1.41376zM371.82164,165.97242c0.26246,0.03369 1.38145,-0.70282 1.4324,-2.12465c0.02855,-0.79649 0.00653,-1.14271 -0.00281,-1.88163c-0.00405,-0.32045 -1.10263,-0.5875 -1.09528,-0.64416c0.02714,-0.20931 -1.44372,-0.72688 -2.4368,-0.38885c-0.42835,0.14581 -1.37328,0.32062 -1.7947,0.85713c-0.56452,0.71871 -0.52936,1.65678 -0.55613,1.8632c0,0 0.44219,1.34696 1.43536,1.86844c1.19105,0.62538 2.97239,0.44467 3.01795,0.45052z" fill="url(#color-41)" stroke-width="0"/><path d="M377.85238,169.56278c-0.17609,1.35772 -0.69633,3.25038 -2.23778,3.0525c-1.54145,-0.19788 -4.14366,-1.82783 -3.96757,-3.18554c0.12275,-0.94642 0.40287,-2.29576 1.19634,-3.13252c0.34484,-0.36364 0.93782,-0.86223 1.40476,-0.80228c0.56596,0.07265 0.98045,0.91833 1.59614,1.45285c1.0612,0.92129 2.11953,1.75577 2.0081,2.61499z" fill="url(#color-42)" stroke-width="0"/><path d="M375.78824,175.11474c-0.43699,2.21795 -11.92519,1.52141 -15.88698,1.01284c-2.82971,-0.36324 -3.48623,-1.7455 -4.96034,-2.99986c-0.58974,-0.50183 -2.19179,-0.00468 -2.09116,-0.78061c0.00529,-0.04086 1.33085,-4.11446 1.33756,-4.15489c0.4395,-2.64681 6.64616,-2.58906 10.54835,-2.08815c1.81907,0.23351 5.85625,0.98036 8.59876,2.53427c3.23046,1.8304 2.74024,5.02262 2.45381,6.4764z" fill="url(#color-43)" stroke-width="0"/><path d="M353.36962,172.80089c-1.20527,-0.15472 -2.8289,-0.82191 -4.75246,-1.20965c-0.87339,-0.17605 -2.14341,0.15415 -2.87653,-0.17137c-1.74149,-0.77326 -2.6774,-2.39573 -2.57635,-3.17478c0.04772,-0.36795 -0.43072,-1.82675 0.31266,-3.20359c0.34681,-0.64235 1.3097,-1.17696 2.01263,-1.5985c0.5349,-0.32077 0.67346,-0.87245 1.02541,-0.83734c2.43239,0.24266 7.19571,1.84194 9.55313,3.79321c0.3096,0.25627 0.29671,3.46192 -1.07154,4.72962c-0.25135,0.23287 -1.34344,1.7088 -1.62692,1.67241z" fill="url(#color-44)" stroke-width="0"/><path d="M369.22831,169.35032c-0.19089,1.47186 -2.56168,1.72257 -5.08175,1.39907c-2.52007,-0.3235 -4.5879,-2.07292 -4.39701,-3.54479c0.19089,-1.47186 4.01347,-1.4975 6.53354,-1.174c0.99856,0.12819 4.65388,0.36023 6.51464,1.04317c1.75638,0.64462 2.78539,1.82323 2.73755,2.34557c-0.00631,0.06897 0.05806,0.6122 -0.3124,1.03042c-0.37806,0.4268 -1.19894,0.72953 -2.00044,0.87864c-0.70407,0.13098 -2.6117,-0.23674 -3.5602,-0.86539c-0.45777,-0.3034 -0.43056,-1.13872 -0.43394,-1.11271z" fill="url(#color-45)" stroke-width="0"/><path d="M372.1477,168.08275c-0.03482,0.26849 -1.15747,0.33646 -1.71558,0.68372c-0.59081,0.3676 -0.63349,1.00531 -1.23146,0.92855c-0.47188,-0.06058 -0.41939,-0.97607 -1.06281,-1.24595c-0.94214,-0.39518 -2.07427,-0.28263 -2.03167,-0.61105c0.02238,-0.17259 -0.37458,-1.36281 -0.03299,-1.64696c0.75233,-0.62582 2.21416,-0.32904 3.0139,-0.22638c0.67161,0.08621 1.99454,0.33442 2.65564,0.85539c0.48355,0.38105 0.43526,1.02919 0.40498,1.26267z" fill="url(#color-46)" stroke-width="0"/><path d="M368.9469,176.60552c-0.08569,-0.011 -0.07582,-0.08714 -0.07582,-0.08714c0.07242,-0.55839 0.14766,-1.13853 0.22008,-1.69693c0.12339,-0.95145 0.14942,-1.82545 0.01219,-2.7758c0.0911,-0.72501 -0.43886,-1.78283 0.02496,-2.42957c0,0 0.04715,-0.06319 0.11938,-0.0193c0.07223,0.04389 0.02508,0.10708 0.02508,0.10708c-0.44678,0.56593 0.09142,1.68715 0.0031,2.34502c0.14201,0.95449 0.11057,1.83931 -0.01332,2.79457c-0.07242,0.55839 -0.14484,1.11678 -0.21726,1.67517l-0.00282,0.02175c0,0 -0.00988,0.07614 -0.09557,0.06514z" fill-opacity="0.57255" fill="#542d03" stroke-width="0.5"/><path d="M350.81269,168.74103c0.33254,0.16562 0.8397,0.29886 1.07375,0.58434c0.55688,0.67924 0.47052,0.89238 1.54063,0.84771c0.41588,-0.12698 0.37756,-0.60035 0.78563,-0.72316c0.50117,-0.15083 1.13263,0.58421 1.02469,0.98808c0.1725,0.09332 0.1776,0.36334 0.41268,0.4312c0.71498,0.20639 1.37683,0.66625 2.0285,1.10913c0.70648,0.48187 1.78946,1.60871 2.83025,1.27535c0.67755,-0.19579 1.34831,-0.54979 2.12044,-0.55795c0.41672,-0.0044 0.62273,0.12705 1.06551,-0.00218c1.01894,0.01846 2.21002,-0.29043 3.20829,-0.52088c0.35175,0.02534 0.76119,0.36489 1.16849,0.44408c0.62299,0.12112 1.34243,-0.12811 1.92654,-0.31678c0.70829,-0.2579 1.22194,-0.13534 1.94543,-0.1656c0.42309,-0.0177 0.78835,-0.3571 1.1972,-0.30989c0.55156,-0.16377 1.20655,0.04811 1.78986,-0.17167c0.45844,-0.17273 0.02206,-0.58488 0.4091,-0.65123c-0.01744,-0.743 0.5203,-0.77489 0.74552,-1.32316c0.16328,-0.39748 -0.09237,-0.87386 0.16651,-1.23305c0.12801,-0.15692 0.93677,-0.34821 1.09726,-0.12327c0.11593,0.16249 0.38136,0.52534 0.46445,0.8778c0.043,0.18239 0.07295,0.8113 -0.07854,1.39765c-0.1407,0.54456 -0.4581,1.0498 -0.55799,1.19186c-0.20708,0.29453 -0.47471,0.51252 -0.60594,0.56173c-0.03409,0.02324 -0.1923,0.18235 -0.3337,0.22295c-0.12101,0.03475 -0.22442,-0.05805 -0.28615,0.05764c-0.11674,0.21878 0.04911,0.7049 0.05352,0.74963c0.03558,0.3616 -0.03192,0.72694 -0.07963,1.0948c-0.02793,0.21534 -0.07579,0.60934 -0.25975,0.87796c-0.17573,0.2566 -0.4787,0.38873 -0.87967,0.56208c-1.3265,0.57347 -3.51643,0.73557 -4.2095,0.72376c-0.47088,-0.01302 -2.0691,0.02361 -3.77068,-0.02863c-2.51665,-0.07725 -5.47629,-0.27168 -7.1133,-0.48067c-0.54914,-0.07011 -1.34553,-0.26702 -2.03127,-0.63852c-0.3497,-0.18946 -0.64208,-0.50247 -0.91706,-0.70611c-0.11661,-0.08636 -0.44021,-0.32209 -0.78077,-0.65858c-0.35489,-0.35063 -0.73524,-0.80589 -1.27521,-1.07268c-0.43986,-0.21733 -0.91429,-0.20766 -1.35784,-0.2627c-0.48803,-0.06057 -4.53851,-1.25651 -4.89984,-1.29614c-0.05092,-0.00653 -1.3415,0.15219 -2.44886,0.01003c-0.24938,-0.03396 -1.41038,-0.6793 -2.06997,-1.51236c-0.25294,-0.31948 -0.62591,-0.79822 -0.75381,-1.43116c-0.03734,-0.1848 -0.33415,-1.51685 -0.0302,-2.06524c0.11313,-0.20412 0.25931,0.16763 0.50764,0.19331c0.2728,0.0282 0.64879,-0.27576 0.76762,-0.21173c0.25192,0.13574 0.40643,0.53377 0.75487,0.73769c0.29162,0.17067 1.08707,-0.07846 1.32612,0.19555c0.56673,0.6496 0.85899,0.67988 1.38307,0.85015c0.32348,0.1051 0.35768,0.39778 0.65229,0.36148c0.55319,-0.06818 1.10804,0.29575 1.53581,0.33603c0.40368,0.03801 0.69437,-0.25032 0.758,-0.21864z" fill-opacity="0.57255" fill="#611111" stroke-width="0.5"/><g stroke-width="0"><path d="M368.87546,149.87116c-0.05727,0.44156 -4.57991,0.34102 -7.12364,0.01449c-2.54373,-0.32653 -5.71128,-1.13577 -5.65401,-1.57733c0.05727,-0.44156 3.33088,-0.1143 5.87461,0.21223c2.54373,0.32653 6.96031,0.90905 6.90305,1.3506z" fill="#110539"/><path d="M368.94562,150.67363c-0.09135,0.70439 -2.68491,0.33269 -6.57741,-0.16698c-3.8925,-0.49967 -6.51076,-0.6809 -6.41941,-1.38529c0.01682,-0.12973 -0.04467,-0.78054 0.10484,-0.83842c0.33782,-0.13077 0.81103,0.21271 1.84917,0.47518c0.99706,0.25208 2.53377,0.4168 4.08951,0.61651c1.70202,0.21849 3.38739,0.42871 4.75851,0.47425c0.98234,0.03263 1.83624,-0.10925 2.26753,0.02253c0.34345,0.10494 -0.04995,0.62649 -0.07274,0.80221z" fill="url(#color-47)"/><path d="M358.41524,148.67613c0,0 0.21672,-0.94454 0.25341,-1.82885c0.06447,-1.55439 -0.02239,-3.54024 0.0773,-4.30167c0.06466,-0.4939 0.6084,-1.04279 0.6084,-1.04279l8.00541,0.97748c0,0 0.22962,0.68719 0.16089,1.24318c-0.08734,0.70661 -0.64175,2.6802 -0.91039,4.14588c-0.20605,1.12426 -0.15094,1.89536 -0.15094,1.89536z" fill="url(#color-48)"/><path d="M358.48769,148.31782l0.11581,-0.99187c0,0 3.09313,0.69785 4.47742,0.87148c1.24327,0.15593 3.45081,0.1229 3.45081,0.1229l-0.11581,0.99187c0,0 -2.17211,-0.11741 -3.40038,-0.27147c-1.39355,-0.17478 -4.52784,-0.72291 -4.52784,-0.72291z" fill="#000000"/></g></g></g><path d="M369.57685,163.4c0,-0.13807 0.11193,-0.25 0.25,-0.25c0.13807,0 0.25,0.11193 0.25,0.25c0,0.13807 -0.11193,0.25 -0.25,0.25c-0.13807,0 -0.25,-0.11193 -0.25,-0.25z" fill="#ffffff" stroke="none" stroke-width="0.5"/><text transform="translate(339.02138,206.31256) scale(0.23438,0.23438)" font-size="40" xml:space="preserve" fill="#000000" fill-rule="nonzero" stroke="none" stroke-width="1" stroke-linecap="butt" stroke-linejoin="miter" stroke-miterlimit="10" stroke-dasharray="" stroke-dashoffset="0" font-family="&quot;GovtAgentBB&quot;, Serif" font-weight="normal" text-anchor="start" style="mix-blend-mode: normal"><tspan x="0" dy="0">FredBear</tspan></text></g></g></svg>