<svg version="1.1" xmlns="http://www.w3.org/2000/svg" xmlns:xlink="http://www.w3.org/1999/xlink" width="1136.77929" height="420" viewBox="0,0,1136.77929,420"><defs><linearGradient x1="8.88328" y1="170.64455" x2="2.1912" y2="181.25583" gradientUnits="userSpaceOnUse" id="color-1"><stop offset="0" stop-color="#484c5e"/><stop offset="1" stop-color="#212d30"/></linearGradient><linearGradient x1="41.48362" y1="172.1462" x2="32.4197" y2="186.51844" gradientUnits="userSpaceOnUse" id="color-2"><stop offset="0" stop-color="#484c5e"/><stop offset="1" stop-color="#212d30"/></linearGradient><linearGradient x1="77.70903" y1="173.81484" x2="68.64506" y2="188.18708" gradientUnits="userSpaceOnUse" id="color-3"><stop offset="0" stop-color="#484c5e"/><stop offset="1" stop-color="#212d30"/></linearGradient><linearGradient x1="109.90935" y1="175.29807" x2="100.84543" y2="189.67031" gradientUnits="userSpaceOnUse" id="color-4"><stop offset="0" stop-color="#484c5e"/><stop offset="1" stop-color="#212d30"/></linearGradient><linearGradient x1="147.47645" y1="177.02851" x2="138.41249" y2="191.40075" gradientUnits="userSpaceOnUse" id="color-5"><stop offset="0" stop-color="#484c5e"/><stop offset="1" stop-color="#212d30"/></linearGradient><linearGradient x1="179.67677" y1="178.51173" x2="170.61286" y2="192.88398" gradientUnits="userSpaceOnUse" id="color-6"><stop offset="0" stop-color="#484c5e"/><stop offset="1" stop-color="#212d30"/></linearGradient><linearGradient x1="215.9022" y1="180.18037" x2="206.83822" y2="194.55261" gradientUnits="userSpaceOnUse" id="color-7"><stop offset="0" stop-color="#484c5e"/><stop offset="1" stop-color="#212d30"/></linearGradient><linearGradient x1="248.10252" y1="181.66361" x2="239.03859" y2="196.03584" gradientUnits="userSpaceOnUse" id="color-8"><stop offset="0" stop-color="#484c5e"/><stop offset="1" stop-color="#212d30"/></linearGradient><radialGradient cx="360" cy="177.81484" r="367.5075" gradientUnits="userSpaceOnUse" id="color-9"><stop offset="0" stop-color="#000000" stop-opacity="0.83922"/><stop offset="1" stop-color="#000000" stop-opacity="0"/></radialGradient><radialGradient cx="360" cy="177.81484" r="367.50751" gradientUnits="userSpaceOnUse" id="color-10"><stop offset="0" stop-color="#000000" stop-opacity="0"/><stop offset="1" stop-color="#000000"/></radialGradient><linearGradient x1="-5.24206" y1="181.05811" x2="150.659" y2="181.05811" gradientUnits="userSpaceOnUse" id="color-11"><stop offset="0" stop-color="#000000"/><stop offset="1" stop-color="#000000" stop-opacity="0"/></linearGradient><linearGradient x1="727.50752" y1="177.81486" x2="571.60646" y2="177.81486" gradientUnits="userSpaceOnUse" id="color-12"><stop offset="0" stop-color="#000000"/><stop offset="1" stop-color="#000000" stop-opacity="0"/></linearGradient><linearGradient x1="360.24743" y1="-17.14012" x2="360.24743" y2="110.48754" gradientUnits="userSpaceOnUse" id="color-13"><stop offset="0" stop-color="#000000"/><stop offset="1" stop-color="#000000" stop-opacity="0"/></linearGradient><linearGradient x1="359.27227" y1="377.38048" x2="359.27227" y2="249.75284" gradientUnits="userSpaceOnUse" id="color-14"><stop offset="0" stop-color="#000000"/><stop offset="1" stop-color="#000000" stop-opacity="0"/></linearGradient></defs><g transform="translate(176.53904,30)"><g stroke-miterlimit="10"><g stroke-width="0" stroke-linecap="butt"><path d="M-176.53904,260.61578v-155.90841h621.84685v155.90842z" fill="#090a17" stroke="#000000"/><path d="M-102.34585,265.32824v-73.5h494.90176v73.5z" fill="#11132b" stroke="#424242"/></g><path d="M317.19069,191.32824h-441.69069" fill="none" stroke="#424242" stroke-width="2.5" stroke-linecap="round"/><path d="M90.58708,146.85881v-51.5h149.41292v51.5z" fill="#000000" stroke="#424242" stroke-width="0" stroke-linecap="butt"/><path d="M-43.70649,254.07824v-138h88v138z" fill="#000000" stroke="#424242" stroke-width="0" stroke-linecap="butt"/><path d="M3.17748,115.6871v-123.3741h716.82252v123.3741z" fill="#0c0626" stroke="#000000" stroke-width="0" stroke-linecap="butt"/><path d="M2.56455,367.68709v-123.3741h716.82252v123.3741z" fill="#0c0626" stroke="#000000" stroke-width="0" stroke-linecap="butt"/><g stroke="none" stroke-linecap="butt"><g fill="#8a856e" stroke-width="0"><path d="M205.35446,221.76489c2.13777,-0.50693 6.05998,19.82215 3.1391,25.55415c-2.01645,3.95713 -7.03591,13.0747 -8.51173,13.42467c-3.61358,0.8569 -6.61021,-11.10616 -5.44454,-15.04837c0.89441,-3.02481 6.43962,-7.91279 7.82943,-11.7838c2.31032,-6.43489 0.73145,-11.61161 2.98774,-12.14665z"/><path d="M208.83791,243.0005c-2.30038,0.2855 -2.5921,-5.12299 -6.96406,-10.35456c-2.63003,-3.14713 -9.50748,-5.79806 -11.3828,-8.32412c-2.4441,-3.29218 -1.58592,-8.03331 2.09829,-8.49057c1.50467,-0.18675 7.19347,-0.91356 10.44098,2.09565c4.7041,4.35891 7.98714,24.80309 5.80759,25.0736z"/></g><g fill="#b5af91" stroke-width="0"><g><g><g><path d="M161.99736,237.63662c3.6319,-0.54201 3.12762,1.90707 3.51935,4.55871c0.39173,2.65165 1.53114,4.50176 -2.10075,5.04376c-3.63188,0.54201 -3.69449,-1.64562 -4.08621,-4.29726c-0.39174,-2.65165 -0.96427,-4.76319 2.66761,-5.3052z"/><path d="M161.66716,236.59818c1.17084,-0.17473 1.31683,2.70349 1.79541,5.94291c0.47857,3.23943 1.10849,5.61335 -0.06235,5.78808c-1.17084,0.17473 -1.4766,-2.4636 -1.95517,-5.70301c-0.47857,-3.23942 -0.94872,-5.85323 0.22211,-6.02796z"/></g><g><path d="M168.2389,236.86198c3.6319,-0.54201 3.12762,1.90707 3.51935,4.55871c0.39173,2.65165 1.53114,4.50176 -2.10075,5.04376c-3.63188,0.54201 -3.69449,-1.64562 -4.08622,-4.29726c-0.39174,-2.65165 -0.96427,-4.76319 2.66762,-5.3052z"/><path d="M169.70411,241.76645c0.47857,3.23943 1.10849,5.61336 -0.06235,5.78809c-1.17084,0.17473 -1.4766,-2.4636 -1.95518,-5.70302c-0.47857,-3.23943 -0.94872,-5.85324 0.22212,-6.02797c1.17084,-0.17474 1.31683,2.70348 1.79541,5.9429z"/></g></g><g><g><path d="M174.18322,236.12422c3.6319,-0.54201 3.12763,1.90707 3.51936,4.55871c0.39173,2.65165 1.53113,4.50176 -2.10075,5.04377c-3.63188,0.54201 -3.69449,-1.64562 -4.08621,-4.29726c-0.39174,-2.65165 -0.96427,-4.76319 2.66761,-5.3052z"/><path d="M175.64844,241.02869c0.47857,3.23943 1.10849,5.61336 -0.06235,5.78809c-1.17084,0.17473 -1.4766,-2.4636 -1.95517,-5.70302c-0.47857,-3.23943 -0.94872,-5.85324 0.22211,-6.02797c1.17084,-0.17474 1.31683,2.70348 1.79541,5.9429z"/></g><g><path d="M180.42476,235.34957c3.6319,-0.54201 3.12762,1.90707 3.51935,4.55871c0.39173,2.65165 1.53114,4.50176 -2.10075,5.04376c-3.63188,0.54201 -3.69449,-1.64562 -4.08622,-4.29726c-0.39174,-2.65165 -0.96427,-4.76319 2.66762,-5.3052z"/><path d="M181.88998,240.25405c0.47857,3.23943 1.10849,5.61336 -0.06235,5.78809c-1.17084,0.17473 -1.4766,-2.4636 -1.95518,-5.70302c-0.47857,-3.23943 -0.94872,-5.85324 0.22212,-6.02797c1.17084,-0.17474 1.31683,2.70348 1.79541,5.9429z"/></g></g></g><g><g><g><path d="M186.07186,234.64871c3.6319,-0.54201 3.12763,1.90707 3.51936,4.55871c0.39173,2.65165 1.53114,4.50176 -2.10075,5.04376c-3.63188,0.54201 -3.69449,-1.64562 -4.08622,-4.29726c-0.39174,-2.65165 -0.96427,-4.76319 2.66761,-5.3052z"/><path d="M187.53708,239.55318c0.47857,3.23943 1.10849,5.61336 -0.06235,5.78809c-1.17084,0.17473 -1.4766,-2.4636 -1.95517,-5.70302c-0.47857,-3.23943 -0.94872,-5.85324 0.22211,-6.02797c1.17084,-0.17474 1.31683,2.70348 1.79541,5.9429z"/></g><g><path d="M192.3134,233.87406c3.6319,-0.54201 3.12762,1.90707 3.51935,4.55871c0.39173,2.65165 1.53114,4.50176 -2.10075,5.04376c-3.63188,0.54201 -3.69449,-1.64562 -4.08621,-4.29726c-0.39174,-2.65165 -0.96427,-4.76319 2.66761,-5.3052z"/><path d="M193.77862,238.77853c0.47857,3.23943 1.10849,5.61336 -0.06235,5.78809c-1.17084,0.17473 -1.4766,-2.4636 -1.95517,-5.70302c-0.47857,-3.23943 -0.94872,-5.85324 0.22211,-6.02797c1.17084,-0.17474 1.31683,2.70348 1.79541,5.9429z"/></g></g><g><g><path d="M198.25773,233.1363c3.6319,-0.54201 3.12762,1.90707 3.51935,4.55871c0.39173,2.65165 1.53114,4.50176 -2.10075,5.04376c-3.63188,0.54201 -3.69449,-1.64562 -4.08622,-4.29726c-0.39174,-2.65165 -0.96427,-4.76319 2.66762,-5.3052z"/><path d="M199.72294,238.04077c0.47857,3.23943 1.10849,5.61336 -0.06234,5.78809c-1.17084,0.17473 -1.4766,-2.4636 -1.95518,-5.70302c-0.47857,-3.23943 -0.94872,-5.85324 0.22212,-6.02797c1.17084,-0.17474 1.31683,2.70349 1.7954,5.9429z"/></g><g><path d="M204.49926,232.36166c3.6319,-0.54201 3.12763,1.90707 3.51936,4.55871c0.39173,2.65165 1.53113,4.50176 -2.10075,5.04377c-3.63188,0.54201 -3.69449,-1.64562 -4.08621,-4.29726c-0.39174,-2.65165 -0.96427,-4.76319 2.66761,-5.3052z"/><path d="M206.16263,237.24153c0.47857,3.23943 1.10849,5.61336 -0.06235,5.78809c-1.17084,0.17473 -1.4766,-2.4636 -1.95518,-5.70302c-0.47856,-3.23943 -0.94872,-5.85324 0.22212,-6.02797c1.17084,-0.17474 1.31683,2.70348 1.79541,5.9429z"/></g></g></g></g><g fill="#a39f83" stroke-width="0"><path d="M259.11655,241.43847c0.26179,2.10932 -59.56548,9.53456 -59.82727,7.42524c-0.04181,-0.33687 -1.27442,-2.90897 1.26157,-3.45651c9.71877,-2.09838 41.7028,-6.41585 55.47523,-6.71016c5.13634,-0.10976 3.03071,2.25996 3.09047,2.74143z"/><path d="M259.91861,245.69606c0.13284,1.07033 -13.51252,7.77003 -28.60533,9.76218c-14.70013,1.94032 -31.20713,-2.21745 -31.33608,-3.25644c-0.04181,-0.33687 -0.85275,-1.7164 1.68324,-2.26395c5.36341,-1.15801 16.83169,1.65018 28.90593,-0.19362c9.74574,-1.48821 19.89639,-6.01125 26.06835,-6.14314c5.13633,-0.10975 3.22413,1.6135 3.28388,2.09497z"/><path d="M314.19518,231.14053c5.14749,-0.01985 3.02677,8.84264 3.09686,9.40738c0.15582,1.25548 -27.04666,7.37167 -41.86469,8.84017c-14.81803,1.46849 -16.38127,-1.90271 -16.52412,-3.05371c-0.04904,-0.39514 -2.50472,-6.20737 0.02636,-6.79458c5.35301,-1.24189 2.58961,8.16297 14.65656,6.26036c5.33425,-0.84106 37.81123,-14.64883 40.60904,-14.65962z"/><path d="M312.67096,228.81802c4.92549,-0.57277 3.08672,0.69827 3.14257,0.99511c0.12417,0.65993 -12.98033,6.21056 -27.45862,8.94334c-14.1016,2.66168 -29.91744,1.66648 -30.03797,1.02587c-0.03907,-0.2077 -0.81253,-0.99553 1.62084,-1.58852c5.1464,-1.2541 16.13473,-0.61325 27.7181,-2.9567c9.34953,-1.89152 19.09644,-5.73086 25.01507,-6.41911z"/></g><path d="M203.2999,224.18564c0.30106,-1.10317 17.40221,3.42459 32.96808,8.14117c-2.14043,1.00825 -5.25747,1.26809 -6.97952,1.5986c-1.17666,0.22583 -2.93531,0.56336 -4.11197,0.7892c-0.06333,0.01074 -0.12165,0.04234 -0.16596,0.08965c-8.92291,-2.73615 -16.94679,-5.40943 -20.95281,-6.99404c-2.4287,-0.9607 -0.8468,-3.29858 -0.75784,-3.62457z" fill="#a39f83" stroke-width="0"/><path d="M203.25206,219.30233c0.15744,-0.57689 5.78868,-1.27634 13.25273,-0.94611c-0.56928,0.43537 -2.40327,1.68705 -2.25327,2.24602c0.08875,0.33067 1.64479,0.60227 1.95492,0.68644c1.77434,0.48157 6.1835,0.1987 7.35244,1.59184c0.54744,0.61718 1.14556,1.17557 1.73662,1.74805l0.21865,0.21177c0,0 0.02546,0.02465 0.06709,0.04828c-8.90791,-1.67226 -16.96618,-1.48043 -20.98595,-3.07047c-2.42871,-0.96068 -1.43218,-2.1898 -1.34321,-2.51579z" fill="#a39f83" stroke-width="0"/><g fill="#b5af91" stroke-width="0"><path d="M317.88704,230.60338c6.64189,-6.03487 21.91579,10.71364 15.27389,16.74851c-0.47894,0.43516 -14.34612,-3.2801 -19.4389,-8.86457c-2.34718,-2.57378 1.12916,-3.59525 1.6963,-4.07861c0.66341,-0.5654 -1.11206,-0.55184 2.4687,-3.80533z"/><path d="M315.08603,226.2755c6.64188,-6.03486 9.32667,-1.84255 2.68477,4.19232c-3.58076,3.25351 -2.74327,2.14618 -3.38477,2.73714c-0.54841,0.50521 -2.77158,2.98796 -3.18415,2.34371c-0.89519,-1.39785 3.4052,-8.83799 3.88415,-9.27316z"/></g><g stroke-width="0.5"><path d="M186.57669,247.54555c-0.51792,-0.58684 -1.02996,-1.16826 -1.46036,-1.7597c-1.56638,-2.15243 -2.88881,-4.97517 -3.58749,-7.77115c1.32183,-1.5927 2.95752,-3.03011 4.40173,-4.71074c0.5439,-0.63292 1.59945,-1.46109 1.93005,-2.22468c0.48567,-1.12176 -0.49577,-1.45964 -0.80444,-2.39078c-0.61219,-1.84677 0.59323,-5.14904 1.58545,-6.55662c2.74227,-0.24947 5.8906,-0.46721 8.73986,-0.09896c-0.04882,-0.0505 -0.10078,-0.09981 -0.15625,-0.14779l-0.17121,-0.38469c0,0 -0.09529,-0.29342 0.1888,-0.38939c0.28409,-0.09596 0.37937,0.19746 0.37937,0.19746l-0.01163,0.10675c0.25927,0.22808 0.44396,0.47958 0.59265,0.74216c0.36843,0.06448 0.73042,0.14019 1.08435,0.22837c0,0 0.29176,0.0727 0.22339,0.37272c-0.06837,0.30004 -0.3601,0.22735 -0.3601,0.22735c-0.20612,-0.05135 -0.41247,-0.09555 -0.61903,-0.13343c0.20753,0.49057 0.40589,0.98244 0.8201,1.40325c0.81435,0.82731 1.94977,0.78318 2.84341,1.37941c2.12454,1.44716 0.00168,3.62678 0.72669,5.75475c0.61843,1.81515 2.0686,3.6532 3.00799,5.32521c1.93,5.18972 1.04363,7.19613 -3.21438,10.62683c-3.27389,1.81998 -6.2356,3.69849 -9.13689,5.89958l-0.359,0.45547c-0.09501,0.12362 -0.26821,0.15332 -0.3992,0.06409c-0.10013,-0.06822 -0.14821,-0.18722 -0.13297,-0.30159l0.0682,-0.60616c0.28528,-2.38895 -0.89319,-3.93915 -2.90365,-4.77223c-0.75153,-0.31142 -1.94747,-0.42621 -3.27543,-0.5355z" fill="#330707"/><path d="M192.65027,251.83116c-0.92959,0.9861 -3.76776,1.80433 -4.29132,1.91154c-4.08894,0.65858 -8.14509,1.45712 -12.20985,2.25272c-0.25674,0.03673 -0.51364,0.07513 -0.77067,0.11489c0.06425,0.07454 0.12784,0.14992 0.19082,0.22604c-2.73948,0.18206 -5.57335,0.92288 -7.87565,2.03323c-0.4823,0.2326 -0.97163,0.51827 -1.46607,0.81886c0.14856,-0.53867 0.30431,-1.08671 0.47485,-1.62195c-0.92056,0.12486 -1.84105,0.22706 -2.7609,0.29387c-2.34826,0.17056 -4.26155,0.2526 -6.50925,-0.55265c-2.91402,-1.04395 -2.95986,-2.23384 0.05553,-2.91092c3.9831,-0.89437 7.88495,-1.63633 11.66753,-3.20373c3.55343,-1.46954 7.19802,-3.75454 10.35783,-5.96312c3.72605,-2.60436 5.77503,-5.28305 7.10819,-9.69039c1.21832,-2.29373 3.60404,-2.05959 4.26273,0.85078c0.38913,1.71932 -1.40044,4.81185 -0.23399,6.22732c2.67804,3.52367 2.94191,6.01561 2.5016,10.31346c0,0 -0.03144,0.30676 -0.32942,0.27208c-0.29799,-0.03469 -0.26655,-0.34144 -0.26655,-0.34144c0.03654,-0.35668 0.06844,-0.69956 0.0946,-1.03056z" fill="#330707"/><path d="M203.98822,249.3368c-0.04405,0.21287 -0.27566,0.22463 -0.27566,0.22463l-0.11166,-0.00936c-0.67784,0.35448 -1.22147,0.51074 -1.46181,0.32669c0,0 -0.00323,-0.00298 -0.00857,-0.00866c-2.46628,0.2196 -4.80613,-0.98946 -7.33849,-0.19729c-4.17104,1.8569 -7.44826,-0.27227 -11.66668,-0.41185c-1.56216,-0.0533 -3.42188,0.12235 -4.86567,-0.63899c-2.5904,-1.36598 -3.63302,-3.88297 -1.04159,-5.39303c3.38758,-1.97398 7.81382,-1.87762 11.74512,-2.68443c4.28624,-0.87966 8.79723,-2.32838 11.19051,2.38725c0.97188,1.91492 5.25384,-0.78239 7.00113,-1.5301c0.37073,-0.15865 1.65239,-0.78149 2.02928,-0.50649c0.20502,0.14959 -0.18863,1.38746 -0.21214,1.64714c-0.06998,0.74912 0.01649,1.87508 -0.26086,2.56708c-0.38653,0.9644 -2.88792,3.15232 -4.7229,4.22738z" fill="#401717"/></g><g stroke-width="0.5"><path d="M208.64653,246.57023c3.13449,-0.37878 6.29457,-0.72604 9.47482,-1.17032c4.30327,-0.54733 7.90054,-1.81795 12.18486,-2.34978c4.17426,-0.51811 8.33357,-0.63104 12.51102,-1.13862c1.59631,-0.19726 6.89373,-1.74524 7.82852,0.03515c0.52197,0.99413 -1.43858,3.70191 -1.93521,4.65188c-1.40709,3.47395 -7.73185,4.7068 -10.96002,5.98053c-3.87456,1.52878 -8.00678,3.21728 -12.21957,3.12788c-4.23146,-0.0898 -8.26699,-1.2755 -12.41449,-0.76968c-2.31044,0.26124 -6.82117,-1.27628 -7.36999,-3.88973c-0.32362,-1.54106 0.65604,-2.59573 0.66175,-4.16434c-0.25211,-2.77528 1.74046,-2.04876 2.23833,-0.313z" fill="#330707"/><path d="M209.21352,248.73868l0.57808,-0.07263c2.48759,-0.32996 4.98458,-1.40898 7.28414,-2.3912c4.1339,-0.50716 8.21682,0.72253 12.21594,-0.90869c3.21727,-1.30903 7.23193,-1.26188 10.68057,-1.6899c0,0 0.29722,-0.03689 0.33526,0.26962c0.03804,0.3065 -0.25918,0.34339 -0.25918,0.34339c-3.39284,0.42109 -7.37006,0.36242 -10.53276,1.65132c-4.03622,1.64094 -8.11663,0.4641 -12.28422,0.93169c-2.30529,1.01286 -4.85794,2.07433 -7.36082,2.4064l-0.58007,0.07288c0,0 -0.29717,0.03734 -0.33563,-0.26911c-0.03848,-0.30645 0.25868,-0.34378 0.25868,-0.34378z" fill="#331313"/><path d="M242.2154,245.70094c0.03804,0.3065 -0.25918,0.34339 -0.25918,0.34339l-0.59443,0.07378c-2.2026,0.27337 -4.13287,0.89285 -6.24788,1.53605c-4.10849,1.24695 -7.52425,2.66302 -11.8752,3.20302c-2.73366,0.33928 -8.281,1.52107 -10.755,0.28663c0,0 -0.26841,-0.13933 -0.13519,-0.41482c0.13322,-0.2755 0.40162,-0.13617 0.40162,-0.13617c2.20317,1.20259 7.90958,-0.03802 10.41247,-0.34866c4.32243,-0.53646 7.69691,-1.9389 11.77765,-3.18229c2.14536,-0.65243 4.11063,-1.27942 6.34543,-1.55679l0.59443,-0.07378c0,0 0.29722,-0.03689 0.33526,0.26962z" fill="#331313"/><path d="M240.94868,247.87889c0.23706,0.19064 0.0538,0.43346 0.0538,0.43346l-0.31546,0.36372c-1.61241,0.77947 -3.64083,1.94288 -5.36957,2.17909c-3.58608,1.22569 -6.44417,2.53943 -10.25649,3.01258c0,0 -0.29722,0.03689 -0.33526,-0.26962c-0.03804,-0.3065 0.25918,-0.34339 0.25918,-0.34339c3.7962,-0.47115 6.61749,-1.79743 10.19647,-3.0019c1.67457,-0.20801 3.6828,-1.37953 5.24779,-2.13607l0.09923,-0.18571c0,0 0.18326,-0.24282 0.42032,-0.05217z" fill="#331313"/></g><path d="M196.78936,245.08394c1.5573,-3.61608 10.5382,-10.97447 10.01755,-15.16945c-0.56339,-4.53942 -11.22497,-1.9725 -13.87336,-5.37891c-5.05484,-6.50168 -1.76108,-9.90175 3.05014,-10.49887c7.33194,-0.90998 12.19153,5.82819 13.83024,19.03178c1.63871,13.20358 -0.56398,27.87266 -7.89593,28.78264c-5.00248,0.62086 -8.47294,-9.00173 -5.12864,-16.76718zM201.11137,218.60706c-1.64148,0.20373 -2.80185,1.74114 -2.59176,3.4339c0.21009,1.69277 7.45104,3.83716 7.24095,2.14439c-0.21009,-1.69277 -3.00772,-5.78202 -4.64919,-5.57829zM207.74528,236.35838c-0.21009,-1.69277 -6.94179,6.75041 -6.7317,8.44318c0.21009,1.69277 4.64785,1.70545 6.28932,1.50173c1.64148,-0.20373 0.65245,-8.25213 0.44236,-9.9449z" fill="#b5af91" stroke-width="0"/><path d="M227.06718,238.42779c-1.71251,0.21239 -3.42502,0.42476 -5.13754,0.63715c0.42296,-0.14148 0.84592,-0.28295 1.26889,-0.42444c3.98029,-1.33138 7.97504,-2.61306 11.97086,-3.89509c3.42083,-1.09755 6.92492,-2.05826 10.26952,-3.37785c0,0 0.02395,-0.00945 0.05508,-0.03005c4.60883,-0.41022 9.47553,-0.82236 14.37957,-1.20492c-0.66842,1.43658 -2.96841,3.74807 -3.46664,4.38112c-1.99845,2.53917 1.41946,2.6453 3.52386,3.2604c-1.15159,0.29297 -2.51624,1.71947 -0.79164,2.57592c2.0628,1.0244 5.51638,0.91609 7.78658,1.28763c1.09048,0.17846 1.67944,0.33865 1.90708,0.48647c-1.17585,0.19764 -2.27183,0.49812 -3.14659,0.9829l-0.03794,-0.09182l-0.54503,0.23562c-0.1237,0.05009 -0.2033,0.18169 -0.1856,0.32432c0.02101,0.16928 0.17111,0.28999 0.33526,0.26962c0.00565,-0.0007 0.01124,-0.00156 0.01678,-0.00257l0.58776,-0.10345c0.13576,-0.02389 0.3656,-0.05442 0.64992,-0.09541c2.10568,0.16011 5.33228,-0.71344 7.71238,-1.22135c-0.04719,0.04582 -0.09274,0.09226 -0.13649,0.13885l-0.40766,0.44606c-0.05981,0.0645 -0.09184,0.15534 -0.07995,0.25118c0.02055,0.16555 0.16456,0.28465 0.32444,0.27076l0.59558,-0.04827l-0.00581,-0.06959c3.3636,-0.01176 8.27367,-2.30594 10.57491,-4.17314c0.78181,-0.63435 2.02844,-1.64586 2.81025,-2.2802c0.08185,-0.06407 0.12903,-0.17028 0.11498,-0.28342c-0.02023,-0.163 -0.16017,-0.28097 -0.31707,-0.2713l-0.59586,0.03119l0.01037,0.18335c-0.68944,0.03618 -1.5278,0.09216 -1.6211,0.0304c-0.92351,-0.61135 0.7155,-1.48481 1.07907,-1.76113c1.77017,-1.34539 4.40697,-2.88735 3.32576,-5.40747c-0.22748,-0.51479 -0.22576,-0.85459 -0.07113,-1.09083c9.17228,-0.24942 16.10023,0.00097 18.21394,1.11806c6.48947,3.42969 12.88201,22.7402 -13.739,23.77615c-10.45529,0.40686 -27.72042,2.46967 -45.58129,4.44499c-0.13443,-0.25561 -0.3611,-0.52451 -0.68543,-0.79781c-0.90785,-0.76499 -5.10474,-2.26153 -7.32281,-2.33681c0.62481,-0.26123 1.26151,-0.51919 1.89234,-0.7932c1.9363,0.24047 3.87985,0.40137 5.68499,0.23988l-0.0024,0.03207l0.59124,0.05164c0.02198,0.00238 0.04455,0.00228 0.06739,-0.00056c0.16415,-0.02037 0.28019,-0.17411 0.25918,-0.34339c-0.01047,-0.08437 -0.05302,-0.15668 -0.11339,-0.20547c-0.00001,-0.00001 -0.00002,-0.00002 -0.00004,-0.00003l-0.47321,-0.38241c-0.64779,-0.52349 -1.46377,-1.00653 -2.37815,-1.43205c0.02952,-0.02327 0.05893,-0.0467 0.08821,-0.0703l0.02399,0.04069l0.50573,-0.31402c0.10119,-0.05968 0.16274,-0.17808 0.14696,-0.30524c-0.0176,-0.14181 -0.12581,-0.24955 -0.25698,-0.26879c-0.38031,-0.06495 -1.34595,-0.22985 -1.72626,-0.2948l0.32797,-0.07245c0.15136,-0.03159 0.25527,-0.17849 0.23529,-0.33943c-0.01654,-0.13325 -0.11306,-0.23642 -0.23347,-0.26435l-0.57564,-0.14813c-2.94348,-0.75743 -6.42871,-2.26879 -9.44598,-2.00008c-2.78439,0.24796 -5.56875,0.49593 -8.35314,0.7439c-0.06331,0.00564 -0.13089,0.00992 -0.20205,0.01326c1.02721,-0.28626 2.05442,-0.57252 3.08163,-0.85879c3.28712,-0.91606 7.61292,-2.29645 10.5695,-4.34295l0.01348,0.03179l0.54277,-0.24083c0.12227,-0.05084 0.20066,-0.18163 0.18308,-0.32329c-0.01886,-0.15196 -0.14176,-0.2648 -0.28547,-0.27154c-3.19098,-0.21211 -6.97498,-0.46363 -10.16597,-0.67574c-1.84957,-0.12294 -3.60147,-0.18442 -5.37696,-0.12302c1.94768,-0.37843 3.89534,-0.75687 5.84301,-1.1353c3.49652,-0.67938 7.80352,-1.24493 10.92027,-3.25807l0.01554,0.04171l0.55353,-0.2151c0.12928,-0.04696 0.21358,-0.18172 0.19541,-0.3281c-0.02101,-0.16926 -0.17109,-0.28998 -0.33523,-0.26962v0c-0.79259,0.09831 -2.1796,0.27033 -2.97219,0.36864c-4.16107,0.51609 -8.32213,1.03217 -12.4832,1.54826z" fill="#7a8db6" stroke-width="0"/><path d="M339.54805,246.84496c-6.95493,7.37235 -18.43641,7.49487 -25.64458,0.27366c-2.75542,-2.7604 -3.14202,-15.67745 -3.14202,-15.67745c0,0 -6.91873,0.95725 -6.14732,-1.88508c0.78249,-2.88318 6.66732,-6.56811 8.8308,-8.86144c6.95493,-7.37235 33.05805,18.77795 26.10312,26.1503z" fill="#111111" stroke-width="0"/></g><g><g fill="none" stroke-width="3.25" stroke-linecap="round"><path d="M25.27637,171.39966c0,0 -3.13811,6.70163 -4.38007,9.35391c-0.91916,1.96294 -8.91425,1.31854 -12.81247,-0.95816c-3.26501,-1.90688 -9.56434,-5.58591 -13.53238,-7.90341c-2.09917,-1.22599 -4.34615,-0.80207 -4.96532,0.17972c-1.17207,1.8585 -5.08613,8.06484 -5.08613,8.06484" stroke="url(#color-1)"/><path d="M57.4767,172.88288c0,0 -3.13808,6.70164 -4.38004,9.35392c-0.91916,1.96294 -8.91425,1.31853 -12.81251,-0.95818c-4.99224,-2.91565 -17.07832,-9.97434 -17.07832,-9.97434" stroke="url(#color-2)"/><path d="M93.70212,174.55152c0,0 -3.13811,6.70164 -4.38007,9.35391c-0.91916,1.96294 -8.91425,1.31853 -12.81247,-0.95818c-4.99224,-2.91565 -17.07832,-9.97434 -17.07832,-9.97434" stroke="url(#color-3)"/><path d="M125.90244,176.03475c0,0 -3.13808,6.70164 -4.38004,9.35392c-0.91916,1.96294 -8.91425,1.31853 -12.81252,-0.95817c-4.99224,-2.91565 -17.07832,-9.97434 -17.07832,-9.97434" stroke="url(#color-4)"/><path d="M163.4695,177.76518c0,0 -3.13807,6.70164 -4.38004,9.35392c-0.91916,1.96294 -8.91425,1.31854 -12.81247,-0.95817c-4.99224,-2.91565 -17.07832,-9.97434 -17.07832,-9.97434" stroke="url(#color-5)"/><path d="M195.66987,179.24841c0,0 -3.13808,6.70164 -4.38004,9.35391c-0.91916,1.96294 -8.91427,1.31853 -12.81251,-0.95818c-4.99224,-2.91565 -17.07832,-9.97434 -17.07832,-9.97434" stroke="url(#color-6)"/><path d="M231.89528,180.91705c0,0 -3.13807,6.70164 -4.38004,9.35392c-0.91916,1.96294 -8.91425,1.31853 -12.81247,-0.95818c-4.99224,-2.91565 -17.07832,-9.97434 -17.07832,-9.97434" stroke="url(#color-7)"/><path d="M264.0956,182.40028c0,0 -3.13807,6.70164 -4.38004,9.35392c-0.91916,1.96294 -8.91427,1.31853 -12.81251,-0.95818c-4.99224,-2.91565 -17.07832,-9.97434 -17.07832,-9.97434" stroke="url(#color-8)"/></g><path d="M343.29333,181.73992c2.71864,8.60378 -43.72542,7.58677 -42.82073,9.80438c1.16954,2.86683 10.65201,1.23378 6.84458,2.68524c-10.59751,4.03994 -29.84327,0.36051 -33.91143,0.48255c-8.66365,0.25991 -27.4611,5.85002 -31.02496,3.68917c-2.10755,-1.27787 8.76339,-9.73559 9.46119,-11.49037c0.45573,-1.14602 -17.64555,-13.04017 -16.05425,-14.07476c4.96562,-3.22833 33.97698,5.08897 44.41798,4.77575c13.7871,-0.41361 60.45397,-4.20684 63.08763,4.12804z" fill="#0d0d0d" stroke="#000000" stroke-width="0" stroke-linecap="butt"/></g><path d="M951.86777,0.00005v360l-704.87628,-93.73102c0.05037,-3.34988 0.10075,-6.69976 0.15112,-10.04965c0.05263,-3.4996 0.10525,-6.99921 0.15788,-10.49881c0.05263,-3.4996 0.10525,-6.99921 0.15788,-10.49881c0.05263,-3.4996 0.10525,-6.99921 0.15788,-10.49881c0.05263,-3.4996 0.10525,-6.99921 0.15788,-10.49881c0.05263,-3.4996 0.10525,-6.99921 0.15788,-10.49881c0.05263,-3.4996 0.10525,-6.99921 0.15788,-10.49881c0.05263,-3.4996 0.10525,-6.99921 0.15788,-10.49881c0.05263,-3.4996 0.10525,-6.99921 0.15788,-10.49881c0.05263,-3.4996 0.10525,-6.99921 0.15788,-10.49881c0.05263,-3.4996 0.10525,-6.99921 0.15788,-10.49881c0.05263,-3.4996 0.10525,-6.99921 0.15788,-10.49881c0.05263,-3.4996 0.10525,-6.99921 0.15788,-10.49881c0.05263,-3.4996 0.10525,-6.99921 0.15788,-10.49881c0.05263,-3.4996 0.10525,-6.99921 0.15788,-10.49881c0.05263,-3.4996 0.10525,-6.99921 0.15788,-10.49881c0.02498,-1.66134 0.04996,-3.32267 0.07495,-4.98401z" fill="#190d4f" stroke="none" stroke-width="0" stroke-linecap="butt"/><path d="M960.24025,74.50009v225l-712.60677,-75.92331c0.04688,-3.11755 0.09376,-6.2351 0.14064,-9.35265c0.05263,-3.4996 0.10525,-6.99921 0.15788,-10.49881c0.05263,-3.4996 0.10525,-6.99921 0.15788,-10.49881c0.05263,-3.4996 0.10525,-6.99921 0.15788,-10.49881c0.05263,-3.4996 0.10525,-6.99921 0.15788,-10.49881c0.05263,-3.4996 0.10525,-6.99921 0.15788,-10.49881c0.05263,-3.4996 0.10525,-6.99921 0.15788,-10.49881c0.04793,-3.18738 0.09586,-6.37476 0.14379,-9.56213z" fill="#2b1689" stroke="#000000" stroke-width="0" stroke-linecap="butt"/><path d="M-15.5,30v-60h751v60z" fill="#000000" stroke-opacity="0.50196" stroke="#0d0d0d" stroke-width="0" stroke-linecap="butt"/><path d="M-15.5,390v-60h751v60z" fill="#000000" stroke-opacity="0.50196" stroke="#0d0d0d" stroke-width="0" stroke-linecap="butt"/><path d="M340,353.5v-19h40v19z" fill="#000000" stroke="#484c5e" stroke-width="0" stroke-linecap="butt"/><g stroke-width="0" stroke-linecap="butt"><g stroke="#000000"><path d="M-7.50751,364.00105v-372.37237h735.015v372.37237z" fill="url(#color-9)"/><path d="M-7.5075,364.00105v-372.37237h735.015v372.37237z" fill="url(#color-10)"/></g><g stroke="none"><path d="M-5.24206,376.2533v-390.39039h155.90105v390.39039z" fill="url(#color-11)"/><path d="M571.60646,373.01004v-390.39039h155.90105v390.39039z" fill="url(#color-12)"/><path d="M-6.53233,110.48754v-127.62762h733.55954v127.62763z" fill="url(#color-13)"/><path d="M726.05204,249.75284v127.62762h-733.55954v-127.62762z" fill="url(#color-14)"/></g></g></g></g></svg>