<svg version="1.1" xmlns="http://www.w3.org/2000/svg" xmlns:xlink="http://www.w3.org/1999/xlink" width="680.20605" height="676.17056" viewBox="0,0,680.20605,676.17056"><defs><linearGradient x1="55.33277" y1="410.51028" x2="106.15899" y2="411.15117" gradientUnits="userSpaceOnUse" id="color-1"><stop offset="0" stop-color="#484c5e"/><stop offset="1" stop-color="#212d30"/></linearGradient><linearGradient x1="55.82103" y1="364.52009" x2="124.66159" y2="365.38809" gradientUnits="userSpaceOnUse" id="color-2"><stop offset="0" stop-color="#484c5e"/><stop offset="1" stop-color="#212d30"/></linearGradient><linearGradient x1="56.36359" y1="313.41593" x2="125.20415" y2="314.28392" gradientUnits="userSpaceOnUse" id="color-3"><stop offset="0" stop-color="#484c5e"/><stop offset="1" stop-color="#212d30"/></linearGradient><linearGradient x1="56.84585" y1="267.98998" x2="125.68641" y2="268.85798" gradientUnits="userSpaceOnUse" id="color-4"><stop offset="0" stop-color="#484c5e"/><stop offset="1" stop-color="#212d30"/></linearGradient><linearGradient x1="57.40852" y1="214.99301" x2="126.24907" y2="215.86109" gradientUnits="userSpaceOnUse" id="color-5"><stop offset="0" stop-color="#484c5e"/><stop offset="1" stop-color="#212d30"/></linearGradient><linearGradient x1="57.89077" y1="169.56714" x2="126.73133" y2="170.43515" gradientUnits="userSpaceOnUse" id="color-6"><stop offset="0" stop-color="#484c5e"/><stop offset="1" stop-color="#212d30"/></linearGradient><linearGradient x1="58.43334" y1="118.46291" x2="127.27389" y2="119.331" gradientUnits="userSpaceOnUse" id="color-7"><stop offset="0" stop-color="#484c5e"/><stop offset="1" stop-color="#212d30"/></linearGradient><linearGradient x1="58.91559" y1="73.03705" x2="127.75615" y2="73.90497" gradientUnits="userSpaceOnUse" id="color-8"><stop offset="0" stop-color="#484c5e"/><stop offset="1" stop-color="#212d30"/></linearGradient><linearGradient x1="666.21182" y1="408.90771" x2="615.38561" y2="409.58835" gradientUnits="userSpaceOnUse" id="color-9"><stop offset="0" stop-color="#484c5e"/><stop offset="1" stop-color="#212d30"/></linearGradient><linearGradient x1="665.72356" y1="360.06556" x2="596.883" y2="360.98739" gradientUnits="userSpaceOnUse" id="color-10"><stop offset="0" stop-color="#484c5e"/><stop offset="1" stop-color="#212d30"/></linearGradient><linearGradient x1="665.181" y1="305.79232" x2="596.34044" y2="306.71413" gradientUnits="userSpaceOnUse" id="color-11"><stop offset="0" stop-color="#484c5e"/><stop offset="1" stop-color="#212d30"/></linearGradient><linearGradient x1="664.69875" y1="257.5494" x2="595.85818" y2="258.47123" gradientUnits="userSpaceOnUse" id="color-12"><stop offset="0" stop-color="#484c5e"/><stop offset="1" stop-color="#212d30"/></linearGradient><linearGradient x1="664.13608" y1="201.26597" x2="595.29552" y2="202.18785" gradientUnits="userSpaceOnUse" id="color-13"><stop offset="0" stop-color="#484c5e"/><stop offset="1" stop-color="#212d30"/></linearGradient><linearGradient x1="663.65382" y1="153.02311" x2="594.81326" y2="153.94495" gradientUnits="userSpaceOnUse" id="color-14"><stop offset="0" stop-color="#484c5e"/><stop offset="1" stop-color="#212d30"/></linearGradient><linearGradient x1="663.11126" y1="98.7498" x2="594.2707" y2="99.67171" gradientUnits="userSpaceOnUse" id="color-15"><stop offset="0" stop-color="#484c5e"/><stop offset="1" stop-color="#212d30"/></linearGradient><linearGradient x1="662.62901" y1="50.50698" x2="593.78844" y2="51.42872" gradientUnits="userSpaceOnUse" id="color-16"><stop offset="0" stop-color="#484c5e"/><stop offset="1" stop-color="#212d30"/></linearGradient><linearGradient x1="240.12168" y1="416.31638" x2="412.35631" y2="453.18064" gradientUnits="userSpaceOnUse" id="color-17"><stop offset="0" stop-color="#484c5e"/><stop offset="1" stop-color="#212d30"/></linearGradient><linearGradient x1="270.94111" y1="191.53355" x2="476.24479" y2="235.47575" gradientUnits="userSpaceOnUse" id="color-18"><stop offset="0" stop-color="#484c5e"/><stop offset="1" stop-color="#212d30"/></linearGradient><linearGradient x1="367.69206" y1="198.49553" x2="391.7477" y2="203.64429" gradientUnits="userSpaceOnUse" id="color-19"><stop offset="0" stop-color="#484c5e"/><stop offset="1" stop-color="#212d30"/></linearGradient><linearGradient x1="359.96818" y1="234.58248" x2="392.54991" y2="241.55611" gradientUnits="userSpaceOnUse" id="color-20"><stop offset="0" stop-color="#484c5e"/><stop offset="1" stop-color="#212d30"/></linearGradient><linearGradient x1="351.38544" y1="274.68219" x2="383.96716" y2="281.65582" gradientUnits="userSpaceOnUse" id="color-21"><stop offset="0" stop-color="#484c5e"/><stop offset="1" stop-color="#212d30"/></linearGradient><linearGradient x1="343.75633" y1="310.32638" x2="376.33805" y2="317.30001" gradientUnits="userSpaceOnUse" id="color-22"><stop offset="0" stop-color="#484c5e"/><stop offset="1" stop-color="#212d30"/></linearGradient><linearGradient x1="334.8557" y1="351.91129" x2="367.43742" y2="358.88492" gradientUnits="userSpaceOnUse" id="color-23"><stop offset="0" stop-color="#484c5e"/><stop offset="1" stop-color="#212d30"/></linearGradient><linearGradient x1="327.22659" y1="387.55544" x2="359.80832" y2="394.52908" gradientUnits="userSpaceOnUse" id="color-24"><stop offset="0" stop-color="#484c5e"/><stop offset="1" stop-color="#212d30"/></linearGradient><linearGradient x1="318.64384" y1="427.65519" x2="351.22556" y2="434.62883" gradientUnits="userSpaceOnUse" id="color-25"><stop offset="0" stop-color="#484c5e"/><stop offset="1" stop-color="#212d30"/></linearGradient><linearGradient x1="311.01474" y1="463.29935" x2="343.59647" y2="470.27298" gradientUnits="userSpaceOnUse" id="color-26"><stop offset="0" stop-color="#484c5e"/><stop offset="1" stop-color="#212d30"/></linearGradient><linearGradient x1="473.7468" y1="277.81043" x2="434.29494" y2="274.29111" gradientUnits="userSpaceOnUse" id="color-27"><stop offset="0" stop-color="#484c5e"/><stop offset="1" stop-color="#212d30"/></linearGradient><linearGradient x1="470.82475" y1="310.56706" x2="417.38995" y2="305.80043" gradientUnits="userSpaceOnUse" id="color-28"><stop offset="0" stop-color="#484c5e"/><stop offset="1" stop-color="#212d30"/></linearGradient><linearGradient x1="467.57776" y1="346.96615" x2="414.14297" y2="342.19948" gradientUnits="userSpaceOnUse" id="color-29"><stop offset="0" stop-color="#484c5e"/><stop offset="1" stop-color="#212d30"/></linearGradient><linearGradient x1="464.69157" y1="379.32086" x2="411.25677" y2="374.55422" gradientUnits="userSpaceOnUse" id="color-30"><stop offset="0" stop-color="#484c5e"/><stop offset="1" stop-color="#212d30"/></linearGradient><linearGradient x1="461.32432" y1="417.06806" x2="407.88953" y2="412.30139" gradientUnits="userSpaceOnUse" id="color-31"><stop offset="0" stop-color="#484c5e"/><stop offset="1" stop-color="#212d30"/></linearGradient><linearGradient x1="458.43813" y1="449.42277" x2="405.00333" y2="444.65614" gradientUnits="userSpaceOnUse" id="color-32"><stop offset="0" stop-color="#484c5e"/><stop offset="1" stop-color="#212d30"/></linearGradient><linearGradient x1="455.19114" y1="485.82186" x2="401.75635" y2="481.05519" gradientUnits="userSpaceOnUse" id="color-33"><stop offset="0" stop-color="#484c5e"/><stop offset="1" stop-color="#212d30"/></linearGradient><linearGradient x1="452.30492" y1="518.17656" x2="398.87016" y2="513.40994" gradientUnits="userSpaceOnUse" id="color-34"><stop offset="0" stop-color="#484c5e"/><stop offset="1" stop-color="#212d30"/></linearGradient><linearGradient x1="252.75024" y1="230.5094" x2="290.1863" y2="243.4468" gradientUnits="userSpaceOnUse" id="color-35"><stop offset="0" stop-color="#484c5e"/><stop offset="1" stop-color="#212d30"/></linearGradient><linearGradient x1="242.00839" y1="261.59232" x2="292.71291" y2="279.11516" gradientUnits="userSpaceOnUse" id="color-36"><stop offset="0" stop-color="#484c5e"/><stop offset="1" stop-color="#212d30"/></linearGradient><linearGradient x1="230.07208" y1="296.13155" x2="280.7766" y2="313.65439" gradientUnits="userSpaceOnUse" id="color-37"><stop offset="0" stop-color="#484c5e"/><stop offset="1" stop-color="#212d30"/></linearGradient><linearGradient x1="219.46201" y1="326.83312" x2="270.16653" y2="344.35596" gradientUnits="userSpaceOnUse" id="color-38"><stop offset="0" stop-color="#484c5e"/><stop offset="1" stop-color="#212d30"/></linearGradient><linearGradient x1="207.08362" y1="362.65162" x2="257.78815" y2="380.17443" gradientUnits="userSpaceOnUse" id="color-39"><stop offset="0" stop-color="#484c5e"/><stop offset="1" stop-color="#212d30"/></linearGradient><linearGradient x1="196.47356" y1="393.35315" x2="247.17808" y2="410.87599" gradientUnits="userSpaceOnUse" id="color-40"><stop offset="0" stop-color="#484c5e"/><stop offset="1" stop-color="#212d30"/></linearGradient><linearGradient x1="184.53725" y1="427.89242" x2="235.24178" y2="445.41522" gradientUnits="userSpaceOnUse" id="color-41"><stop offset="0" stop-color="#484c5e"/><stop offset="1" stop-color="#212d30"/></linearGradient><linearGradient x1="173.92719" y1="458.59395" x2="224.63171" y2="476.11679" gradientUnits="userSpaceOnUse" id="color-42"><stop offset="0" stop-color="#484c5e"/><stop offset="1" stop-color="#212d30"/></linearGradient><linearGradient x1="305.93206" y1="304.22615" x2="399.66136" y2="324.28752" gradientUnits="userSpaceOnUse" id="color-43"><stop offset="0" stop-color="#484c5e"/><stop offset="1" stop-color="#212d30"/></linearGradient><linearGradient x1="449.1033" y1="296.33298" x2="391.86404" y2="284.08176" gradientUnits="userSpaceOnUse" id="color-44"><stop offset="0" stop-color="#484c5e"/><stop offset="1" stop-color="#212d30"/></linearGradient><linearGradient x1="272.66309" y1="264.34197" x2="329.90235" y2="276.59318" gradientUnits="userSpaceOnUse" id="color-45"><stop offset="0" stop-color="#484c5e"/><stop offset="1" stop-color="#212d30"/></linearGradient><radialGradient cx="324.54353" cy="163.70801" r="80.51019" gradientUnits="userSpaceOnUse" id="color-46"><stop offset="0" stop-color="#ffffff" stop-opacity="0.43529"/><stop offset="1" stop-color="#ffffff" stop-opacity="0"/></radialGradient><linearGradient x1="253.13681" y1="200.8964" x2="395.95022" y2="126.51964" gradientUnits="userSpaceOnUse" id="color-47"><stop offset="0" stop-color="#484c5e"/><stop offset="1" stop-color="#212d30"/></linearGradient><linearGradient x1="313.12899" y1="169.31142" x2="336.21537" y2="157.28811" gradientUnits="userSpaceOnUse" id="color-48"><stop offset="0" stop-color="#484c5e"/><stop offset="1" stop-color="#212d30"/></linearGradient><radialGradient cx="412.32267" cy="121.1052" r="80.51019" gradientUnits="userSpaceOnUse" id="color-49"><stop offset="0" stop-color="#ffffff" stop-opacity="0.43529"/><stop offset="1" stop-color="#ffffff" stop-opacity="0"/></radialGradient><linearGradient x1="340.91598" y1="158.29356" x2="483.72937" y2="83.91683" gradientUnits="userSpaceOnUse" id="color-50"><stop offset="0" stop-color="#484c5e"/><stop offset="1" stop-color="#212d30"/></linearGradient><linearGradient x1="400.90813" y1="126.7086" x2="423.99451" y2="114.68529" gradientUnits="userSpaceOnUse" id="color-51"><stop offset="0" stop-color="#484c5e"/><stop offset="1" stop-color="#212d30"/></linearGradient></defs><g transform="translate(-20.66928,63.20096)"><g stroke-miterlimit="10"><g fill="none" stroke-width="3.25" stroke-linecap="round"><path d="M55.5783,387.38417c0,0 31.88218,-1.0902 44.50005,-1.52158c9.33843,-0.31933 7.93086,11.1821 -1.90819,18.37152c-8.2408,6.02151 -24.14006,17.63921 -34.15535,24.95737c-5.29823,3.87143 -2.87213,6.61629 1.83047,6.67554c8.90188,0.11228 38.62921,0.48711 38.62921,0.48711" stroke="url(#color-1)"/><path d="M56.06061,341.95815c0,0 31.88223,-1.0902 44.50004,-1.52167c9.33843,-0.31927 7.93086,11.18217 -1.90818,18.37152c-12.60031,9.20701 -43.10516,31.49703 -43.10516,31.49703" stroke="url(#color-2)"/><path d="M56.60312,290.85399c0,0 31.88223,-1.0902 44.50005,-1.52158c9.33843,-0.31927 7.93085,11.18217 -1.90819,18.37152c-12.60031,9.20701 -43.10516,31.49703 -43.10516,31.49703" stroke="url(#color-3)"/><path d="M57.08543,245.42807c0,0 31.88223,-1.0902 44.50005,-1.52158c9.33843,-0.31927 7.93085,11.18217 -1.90819,18.37152c-12.60031,9.20701 -43.10516,31.49703 -43.10516,31.49703" stroke="url(#color-4)"/><path d="M57.64804,192.43116c0,0 31.88223,-1.0902 44.50004,-1.52167c9.33843,-0.31927 7.93086,11.18225 -1.90818,18.3716c-12.60031,9.20701 -43.10516,31.49703 -43.10516,31.49703" stroke="url(#color-5)"/><path d="M58.13035,147.00522c0,0 31.88223,-1.0902 44.50005,-1.52167c9.33843,-0.31927 7.93086,11.18217 -1.90818,18.37152c-12.60031,9.20701 -43.10517,31.49703 -43.10517,31.49703" stroke="url(#color-6)"/><path d="M58.67286,95.90106c0,0 31.88223,-1.0902 44.50005,-1.52158c9.33843,-0.31927 7.93085,11.18217 -1.90819,18.37152c-12.60031,9.20701 -43.10516,31.49709 -43.10516,31.49709" stroke="url(#color-7)"/><path d="M59.15517,50.47512c0,0 31.88223,-1.0902 44.50005,-1.52158c9.33843,-0.31927 7.93085,11.18217 -1.90819,18.37152c-12.60031,9.20701 -43.10516,31.49703 -43.10516,31.49703" stroke="url(#color-8)"/></g><path d="M38.49488,36.97774c-4.68434,-17.07174 -31.70144,-73.08674 6.64436,-82.56975c39.58293,-9.78893 44.12161,49.50232 54.2833,46.72217c13.13656,-3.59403 3.62524,-14.33841 11.15548,-10.61275c20.95938,10.36986 7.64552,37.34858 9.02771,42.38593c2.94357,10.72772 32.77133,30.28672 23.40582,36.3766c-5.53849,3.60136 -47.15613,-3.84634 -55.47953,-3.42824c-5.43594,0.27308 -57.29021,31.88384 -62.43334,30.64313c-16.04865,-3.87147 16.9437,-46.58851 13.39621,-59.51705z" fill="#0d0d0d" stroke="#000000" stroke-width="0" stroke-linecap="butt"/><g fill="none" stroke-width="3.25" stroke-linecap="round"><path d="M617.07011,436.35412c0,0 29.72733,-0.39807 38.6292,-0.51732c4.7026,-0.06299 7.12869,-2.97801 1.83047,-7.08951c-10.01528,-7.77199 -25.91455,-20.11011 -34.15535,-26.50505c-9.83905,-7.63526 -11.24662,-19.84993 -1.90819,-19.51078c12.61786,0.45816 44.50005,1.61594 44.50005,1.61594" stroke="url(#color-9)"/><path d="M665.99729,387.44957c0,0 -30.50486,-23.67226 -43.10517,-33.45023c-9.83904,-7.63518 -11.24661,-19.84985 -1.90818,-19.51078c12.61782,0.45816 44.50005,1.61603 44.50005,1.61603" stroke="url(#color-10)"/><path d="M665.45477,333.17633c0,0 -30.50486,-23.67218 -43.10516,-33.45023c-9.83904,-7.63518 -11.24661,-19.84985 -1.90819,-19.51078c12.61782,0.45816 44.50005,1.61594 44.50005,1.61594" stroke="url(#color-11)"/><path d="M664.97247,284.93343c0,0 -30.50486,-23.67218 -43.10516,-33.45023c-9.83904,-7.63518 -11.24661,-19.84985 -1.90819,-19.51078c12.61782,0.45816 44.50005,1.61594 44.50005,1.61594" stroke="url(#color-12)"/><path d="M664.40985,228.65005c0,0 -30.50485,-23.67218 -43.10516,-33.45023c-9.83904,-7.63518 -11.24661,-19.84993 -1.90819,-19.51086c12.61782,0.45816 44.50005,1.61603 44.50005,1.61603" stroke="url(#color-13)"/><path d="M663.92755,180.40705c0,0 -30.50486,-23.67226 -43.10517,-33.45023c-9.83904,-7.63518 -11.2466,-19.84985 -1.90818,-19.51078c12.61782,0.45816 44.50005,1.61603 44.50005,1.61603" stroke="url(#color-14)"/><path d="M663.38503,126.13389c0,0 -30.50486,-23.67226 -43.10516,-33.4503c-9.83904,-7.63518 -11.24661,-19.84985 -1.90819,-19.51078c12.61782,0.45816 44.50005,1.61594 44.50005,1.61594" stroke="url(#color-15)"/><path d="M662.90273,77.89091c0,0 -30.50486,-23.67218 -43.10516,-33.45023c-9.83904,-7.63518 -11.24661,-19.84985 -1.90819,-19.51078c12.61782,0.45816 44.50005,1.61594 44.50005,1.61594" stroke="url(#color-16)"/></g><path d="M683.04971,20.46128c-3.54749,12.92854 29.44486,55.64558 13.39621,59.51705c-5.14314,1.24072 -56.99741,-30.37005 -62.43335,-30.64312c-8.3234,-0.41809 -49.94104,7.0296 -55.47953,3.42824c-9.36551,-6.08987 20.46224,-25.64888 23.40582,-36.3766c1.38219,-5.03735 -11.93166,-32.01607 9.02771,-42.38593c7.53025,-3.72566 -1.98108,7.01872 11.15548,10.61275c10.16169,2.78015 14.70037,-56.51111 54.2833,-46.72217c38.34579,9.48301 11.3287,65.49801 6.64436,82.56975z" fill="#0d0d0d" stroke="#000000" stroke-width="0" stroke-linecap="butt"/><path d="M412.35627,453.18063c-0.4744,2.21645 -25.55831,-3.34457 -48.8356,-19.10658c-10.68819,-7.23741 -11.25108,-27.61753 -26.21758,-30.82088c-16.96299,-3.63067 -21.74275,15.04393 -36.5479,18.52527c-26.70588,6.2797 -58.51888,1.48954 -58.07354,-0.59114c0.69223,-3.23417 58.85193,-103.40402 106.41317,-93.22424c47.56129,10.17978 63.95368,121.9834 63.26146,125.21758z" fill="#4c1212" stroke="url(#color-17)" stroke-width="0" stroke-linecap="butt"/><path d="M476.24479,235.47575c-0.50899,2.37807 -49.28323,29.25926 -105.97626,17.12496c-56.69303,-12.1343 -96.46421,-52.56356 -95.95522,-54.94163c0.25128,-1.174 49.49646,14.63253 99.33636,23.95086c51.1161,9.55692 102.85279,12.66177 102.59509,13.86581z" fill="#4c1212" stroke="url(#color-18)" stroke-width="0" stroke-linecap="butt"/><g fill="none" stroke-width="3.25" stroke-linecap="round"><path d="M395.31292,183.71088c0,0 -14.0697,-3.01141 -18.28289,-3.91318c-2.22573,-0.47638 -3.84339,1.40445 -2.01689,5.02671c3.45264,6.84721 8.93375,17.71712 11.77466,23.35117c3.39189,6.7267 2.06588,15.89441 -2.27837,14.60598c-5.8698,-1.7409 -20.70132,-6.13972 -20.70132,-6.13972" stroke="url(#color-19)"/><path d="M364.29867,214.34987c0,0 10.51619,20.85541 14.86001,29.46993c3.39189,6.7267 2.06588,15.89438 -2.27836,14.60598c-5.8698,-1.7409 -20.70132,-6.13972 -20.70132,-6.13972" stroke="url(#color-20)"/><path d="M355.71593,254.44958c0,0 10.5162,20.85542 14.86001,29.46993c3.39189,6.7267 2.06588,15.89438 -2.27836,14.60598c-5.8698,-1.7409 -20.70132,-6.13972 -20.70132,-6.13972" stroke="url(#color-21)"/><path d="M348.08681,290.09378c0,0 10.5162,20.85541 14.86001,29.46993c3.39189,6.72669 2.06589,15.89438 -2.27836,14.60598c-5.8698,-1.7409 -20.70133,-6.13972 -20.70133,-6.13972" stroke="url(#color-22)"/><path d="M339.18619,331.67865c0,0 10.51619,20.85542 14.86001,29.46993c3.39189,6.7267 2.06588,15.89438 -2.27836,14.60598c-5.8698,-1.7409 -20.70132,-6.13972 -20.70132,-6.13972" stroke="url(#color-23)"/><path d="M331.55708,367.32284c0,0 10.5162,20.85542 14.86001,29.46993c3.39189,6.7267 2.06588,15.89438 -2.27837,14.60598c-5.8698,-1.7409 -20.70132,-6.13972 -20.70132,-6.13972" stroke="url(#color-24)"/><path d="M322.97434,407.42255c0,0 10.51619,20.85542 14.86001,29.46994c3.39189,6.7267 2.06589,15.89437 -2.27836,14.60598c-5.8698,-1.7409 -20.70132,-6.13972 -20.70132,-6.13972" stroke="url(#color-25)"/><path d="M315.34523,443.06674c0,0 10.51619,20.85542 14.86001,29.46994c3.39189,6.7267 2.06588,15.89438 -2.27836,14.60598c-5.8698,-1.7409 -20.70132,-6.13972 -20.70132,-6.13972" stroke="url(#color-26)"/></g><g><g fill="none" stroke-width="3.25" stroke-linecap="round"><path d="M472.27744,294.2821c0,0 -24.82979,-1.14382 -34.65657,-1.5965c-7.27276,-0.33502 -5.54332,-8.4495 2.49817,-12.98192c6.73526,-3.79619 19.72986,-11.12034 27.91546,-15.73395c4.33028,-2.44067 2.59719,-4.54363 -1.05302,-4.86925c-6.90973,-0.61638 -29.98442,-2.67474 -29.98442,-2.67474" stroke="url(#color-27)"/><path d="M469.39125,326.63681c0,0 -24.82981,-1.14378 -34.65658,-1.59647c-7.27276,-0.33502 -5.54331,-8.4495 2.49822,-12.98194c10.29832,-5.80443 35.23017,-19.85676 35.23017,-19.85676" stroke="url(#color-28)"/><path d="M466.14426,363.0359c0,0 -24.8298,-1.14382 -34.65658,-1.59651c-7.27276,-0.33502 -5.54331,-8.44949 2.49821,-12.98191c10.29832,-5.80442 35.23017,-19.85676 35.23017,-19.85676" stroke="url(#color-29)"/><path d="M463.25807,395.39061c0,0 -24.82981,-1.14378 -34.65658,-1.59647c-7.27276,-0.33502 -5.54331,-8.4495 2.49818,-12.98196c10.29832,-5.80442 35.23017,-19.85676 35.23017,-19.85676" stroke="url(#color-30)"/><path d="M459.89083,433.13778c0,0 -24.82981,-1.14378 -34.65658,-1.59647c-7.27276,-0.33502 -5.54331,-8.4495 2.49821,-12.98191c10.29832,-5.80442 35.23017,-19.85677 35.23017,-19.85677" stroke="url(#color-31)"/><path d="M457.00463,465.49253c0,0 -24.82981,-1.14378 -34.65658,-1.59647c-7.27276,-0.33502 -5.54331,-8.4495 2.49822,-12.98194c10.29832,-5.80442 35.23017,-19.85677 35.23017,-19.85677" stroke="url(#color-32)"/><path d="M453.75765,501.89162c0,0 -24.82981,-1.14378 -34.65658,-1.59647c-7.27276,-0.33502 -5.54331,-8.44949 2.49821,-12.98191c10.29832,-5.80443 35.23017,-19.85677 35.23017,-19.85677" stroke="url(#color-33)"/><path d="M450.87146,534.24633c0,0 -24.82981,-1.14378 -34.65658,-1.59647c-7.27276,-0.33502 -5.54331,-8.4495 2.49822,-12.98195c10.29832,-5.80442 35.23017,-19.85676 35.23017,-19.85676" stroke="url(#color-34)"/></g><path d="M459.57555,612.55926c-31.34211,5.22011 -31.29577,-41.11721 -39.35798,-39.56957c-10.42246,2.00075 -3.68044,10.92118 -9.30623,7.57297c-15.65868,-9.31933 -3.6895,-29.47707 -4.45982,-33.47391c-1.64051,-8.51178 -23.63548,-25.50455 -15.99237,-29.67151c4.51993,-2.4642 36.40422,5.82955 42.89592,6.00624c4.23964,0.11541 46.43032,-21.31886 50.35132,-20.04509c12.23505,3.97478 -15.97077,35.17412 -13.99371,45.43211c2.61068,13.54542 20.22544,58.69183 -10.13709,63.74877z" fill="#0d0d0d" stroke="#000000" stroke-width="0" stroke-linecap="butt"/></g><g><g fill="none" stroke-width="3.25" stroke-linecap="round"><path d="M295.03357,226.04049c0,0 -21.89567,-7.56687 -28.45234,-9.83278c-3.46371,-1.19701 -5.90573,0.01232 -2.95385,4.01164c5.57999,7.55995 14.43824,19.56135 19.02958,25.78184c5.4818,7.42692 3.73832,15.53839 -3.03441,12.86718c-9.15117,-3.60921 -32.27384,-12.72895 -32.27384,-12.72895" stroke="url(#color-35)"/><path d="M248.03097,244.16528c0,0 16.99571,23.02631 24.01595,32.53752c5.48181,7.42688 3.73833,15.53836 -3.03441,12.86718c-9.15112,-3.60924 -32.27384,-12.72895 -32.27384,-12.72895" stroke="url(#color-36)"/><path d="M236.09463,278.70451c0,0 16.99572,23.02631 24.01595,32.53751c5.48181,7.42688 3.73833,15.53836 -3.03441,12.86718c-9.15112,-3.60924 -32.27384,-12.72895 -32.27384,-12.72895" stroke="url(#color-37)"/><path d="M225.48459,309.40608c0,0 16.99571,23.02631 24.01595,32.53752c5.48181,7.42688 3.73834,15.53835 -3.0344,12.86718c-9.15112,-3.60924 -32.27384,-12.72895 -32.27384,-12.72895" stroke="url(#color-38)"/><path d="M213.10617,345.22454c0,0 16.99571,23.02631 24.01595,32.53751c5.48181,7.42688 3.73833,15.53836 -3.03441,12.86718c-9.15112,-3.60924 -32.27383,-12.72895 -32.27383,-12.72895" stroke="url(#color-39)"/><path d="M202.49614,375.92611c0,0 16.99571,23.02631 24.01595,32.53751c5.48181,7.42688 3.73834,15.53836 -3.0344,12.86719c-9.15113,-3.60924 -32.27384,-12.72895 -32.27384,-12.72895" stroke="url(#color-40)"/><path d="M190.5598,410.46534c0,0 16.99572,23.02631 24.01595,32.53752c5.48181,7.42688 3.73834,15.53836 -3.0344,12.86718c-9.15113,-3.60924 -32.27384,-12.72895 -32.27384,-12.72895" stroke="url(#color-41)"/><path d="M179.94977,441.16691c0,0 16.99571,23.02631 24.01594,32.53752c5.48181,7.42688 3.73834,15.53836 -3.0344,12.86719c-9.15113,-3.60924 -32.27384,-12.72896 -32.27384,-12.72896" stroke="url(#color-42)"/></g><path d="M145.50548,479.41878c6.00269,-8.55008 -6.96161,-48.56127 5.82849,-47.17976c4.09887,0.44272 33.8198,37.2686 37.73527,38.89872c5.99529,2.49597 38.48109,7.97967 41.59634,12.07807c5.26785,6.93036 -21.75559,13.43147 -26.73642,20.52608c-2.33882,3.33138 0.33081,26.62238 -17.77061,28.71582c-6.50344,0.75213 3.29925,-4.6272 -5.39117,-10.71873c-6.72241,-4.71208 -25.64687,37.58466 -52.10645,19.99296c-25.6326,-17.0419 8.91818,-51.02301 16.84454,-62.31313z" fill="#0d0d0d" stroke="#000000" stroke-width="0" stroke-linecap="butt"/></g><path d="M310.3093,263.84596c2.38189,-11.12849 -17.13818,-38.39056 -13.17217,-42.9442c4.99892,-5.73962 33.92399,12.82517 41.11961,13.3914c8.76934,0.69007 19.03739,4.34888 30.48119,6.79825c11.96991,2.56198 23.83201,3.93795 32.84826,7.87532c5.38581,2.35197 36.49905,0.1741 39.27034,5.15276c3.55173,6.38073 -22.26598,21.01849 -25.19583,34.70708c-4.8641,22.72571 -14.52783,73.21334 -31.29084,95.59318c-14.40139,19.22689 -35.30905,12.46893 -48.37927,9.67145c-10.98464,-2.3511 -35.21053,-11.90632 -39.97836,-30.37966c-7.50857,-29.09271 8.76614,-74.0245 14.29704,-99.8656z" fill="#dadada" stroke="#000000" stroke-width="0" stroke-linecap="butt"/><path d="M305.93206,304.22615c6.74804,-31.52772 33.20044,-52.59512 59.08307,-47.05533c25.88263,5.53979 41.39427,35.58898 34.64623,67.1167c-6.74804,31.52773 -33.20043,52.59513 -59.08306,47.05534c-25.88263,-5.53979 -41.39428,-35.58898 -34.64624,-67.1167z" fill="#ababab" stroke="url(#color-43)" stroke-width="0" stroke-linecap="butt"/><path d="M377.14672,401.18112c2.59393,-46.96564 38.51817,-147.42822 46.8087,-159.0752c13.89127,-19.51519 36.27353,-13.17306 54.10893,-7.66665c10.46408,3.23062 -31.7194,82.46582 -64.93059,132.18254c-15.80815,23.6646 2.12553,87.83466 2.12553,87.83466c0,0 -40.71057,-6.23701 -38.11259,-53.27535z" fill="#801d1d" stroke="url(#color-44)" stroke-width="0" stroke-linecap="butt"/><path d="M238.81912,422.46543c0,0 42.62859,-51.20762 37.89171,-79.26957c-9.9516,-58.95508 -16.00699,-148.51509 -5.1373,-147.17953c18.52676,2.27641 41.54411,5.65136 46.23041,29.14279c2.79688,14.02008 -5.54739,120.38574 -22.40465,164.29853c-16.88331,43.98075 -56.58021,33.00777 -56.58021,33.00777z" fill="#801d1d" stroke="url(#color-45)" stroke-width="0" stroke-linecap="butt"/><g stroke-width="0" stroke-linecap="butt"><g stroke="#000000"><path d="M438.38716,294.41036l-24.06855,-50.02622l11.84358,-5.69815l24.06856,50.02621z" fill="#2f323e"/><path d="M404.89579,245.91672c-10.20717,-6.34192 -26.99554,-39.27382 -26.99554,-39.27382l40.16305,-19.78319c0,0 13.86229,33.07076 14.49999,44.542c0.42998,7.73495 -6.96317,10.30928 -12.1043,12.78275c-3.83087,1.84306 -11.24142,4.41736 -15.56311,1.73217z" fill="#2f323e"/><g><path d="M471.70507,119.16644c-7.71239,-8.84651 -14.82093,-12.00792 -20.79548,-18.71302c-5.6376,-6.32696 -10.21812,-16.30544 -14.88611,-21.02608c-11.5362,-11.66631 -20.46688,-19.15971 -24.81052,-28.24494c-2.71217,-5.6729 -2.01024,-17.43871 -2.83464,-22.9141c-0.90209,-5.99154 14.91559,-14.36535 26.89687,-14.2295c10.43112,0.11827 16.02412,7.79353 29.69271,15.03108c6.11472,3.23774 22.20144,10.16853 28.22596,14.88319c9.99189,7.81951 11.49499,15.2273 18.20008,24.92862c5.6179,8.12829 19.45158,17.45585 26.25233,26.7895c3.17395,4.35601 0.09535,8.7419 2.51158,12.95594c2.91694,5.08733 16.75842,18.96273 19.13073,23.66404c6.73654,13.35015 4.08118,19.75897 5.91821,29.18668c2.18035,11.18929 18.28619,29.6063 17.3115,37.26988c-1.42386,11.19563 -16.68661,20.55812 -22.43207,23.85242c-5.64061,3.23417 -10.58636,12.54069 -19.56561,8.96021c-6.94768,-2.77042 -16.9963,-13.12116 -26.56731,-25.0389c-5.70398,-7.10246 -8.46064,-5.95628 -14.30969,-15.06489c-3.49245,-5.43867 -9.83973,-20.13819 -13.72177,-26.90879c-6.55081,-11.42501 3.32307,-25.26224 -14.21677,-45.38148z" fill="#a3a3a3"/><path d="M419.95374,33.96196c4.1196,-3.51056 14.3961,1.78374 22.95313,11.82529c8.55709,10.04153 12.15437,21.02769 8.0348,24.53828c-4.1196,3.51056 -14.39609,-1.78374 -22.95318,-11.82529c-8.55709,-10.04153 -12.15436,-21.0277 -8.0348,-24.53833z" fill="#0d0d0d"/></g><path d="M429.54242,42.74377c3.28046,-0.27051 7.74523,2.85439 10.03333,5.31121c1.64114,1.76224 4.3485,5.50072 4.48641,7.73516c0.84074,13.61723 -24.96512,31.39019 -34.96664,20.65086c-9.35456,-10.04467 7.03506,-32.59113 20.44686,-33.69722z" fill="#2f323e"/><g><path d="M326.88817,246.07916c2.86765,7.25865 10.39226,21.39166 12.46235,27.51462c3.46696,10.25468 0.85092,11.69336 2.84103,20.58273c3.33922,14.916 5.156,29.22725 2.98485,36.38485c-2.80595,9.25057 -13.16437,7.30715 -19.21151,9.69622c-6.15963,2.43347 -23.0002,8.51651 -32.63674,2.64221c-6.59639,-4.02109 -10.93575,-28.09915 -18.31802,-36.78565c-6.22003,-7.31894 -12.8848,-9.24372 -19.11221,-22.83877c-2.19302,-4.78753 -4.39679,-24.26211 -6.55149,-29.71609c-1.78484,-4.51784 -7.1331,-4.84944 -8.55599,-10.04789c-3.0489,-11.13876 -1.704,-27.76905 -4.54924,-37.23129c-3.39591,-11.29349 -8.24606,-17.09087 -8.12033,-29.7782c0.07579,-7.6497 4.69948,-24.54462 5.98559,-31.34302c2.87488,-15.19694 0.36812,-24.35699 6.78548,-32.58146c7.37102,-9.44666 23.78534,-16.58023 27.90401,-12.13622c3.76391,4.0612 13.39544,10.8554 16.13536,16.51483c4.38821,9.06378 4.66994,20.71832 6.58624,37.01294c0.77541,6.59337 5.71375,16.39969 7.13915,24.75329c1.51062,8.85277 -0.45538,16.38015 1.64396,27.92716c4.77442,26.26083 21.74844,27.18106 26.58746,39.42965z" fill="#a3a3a3"/><path d="M280.1801,134.63076c2.50595,12.95287 0.22958,24.28663 -5.08444,25.31469c-5.31403,1.02803 -11.65329,-8.63886 -14.15924,-21.59166c-2.50595,-12.95287 -0.22957,-24.28664 5.08446,-25.31469c5.31403,-1.02803 11.65329,8.63889 14.15924,21.59166z" fill="#0d0d0d"/></g><path d="M305.98895,131.06469c2.1498,14.51689 -27.84213,23.58931 -37.95755,14.43433c-1.65985,-1.50224 -2.89141,-5.9507 -3.2442,-8.33281c-0.49176,-3.32104 -0.14716,-8.75991 2.11146,-11.1543c9.23418,-9.78932 37.07946,-8.52508 39.09022,5.05279z" fill="#2f323e"/><path d="M491.76841,170.6552c1.16007,2.41116 -33.40823,40.10507 -76.17354,60.67795c-42.69994,20.54145 -93.59517,23.96566 -94.75346,21.55822c-1.15434,-2.39925 48.29209,-8.09342 90.84043,-28.57652c42.90402,-20.65434 78.92256,-56.07892 80.08651,-53.65955z" fill="#686e88"/><path d="M490.56616,169.75064c3.21786,6.6884 48.77753,120.99221 -28.14421,158.00069c-76.92173,37.00846 -141.36151,-72.81055 -144.57945,-79.49893c-3.21786,-6.6884 56.00471,92.28667 132.92644,55.27819c76.92173,-37.00846 36.57934,-140.46833 39.79727,-133.77997z" fill="#dadada"/><path d="M418.00138,260.92551l-22.86136,-47.51707l17.83764,-8.58199l22.86136,47.51706z" fill="#24262f"/><path d="M286.10714,199.47865c-24.55413,-51.03551 -3.08667,-112.3129 47.94875,-136.86708c51.03546,-24.55412 112.31294,-3.08676 136.86708,47.94875c24.5541,51.03544 -160.26168,139.95378 -184.81579,88.9183z" fill="#dadada"/><path d="M300.10133,182.32113c-10.56135,-21.95163 -1.32766,-48.30852 20.6239,-58.86987c21.95163,-10.56135 48.30857,-1.32773 58.86987,20.6239c10.56135,21.95163 1.32764,48.30852 -20.62399,58.86987c-21.95163,10.56135 -48.3085,1.32766 -58.86984,-20.62392z" fill="#000000"/><path d="M365.52329,152.75558c-10.56135,-21.95163 -1.32774,-48.30857 20.6239,-58.86987c21.95163,-10.56135 48.30852,-1.32764 58.86987,20.6239c10.56135,21.95163 1.32772,48.30848 -20.62392,58.86984c-21.95163,10.56135 -48.30849,1.32772 -58.86987,-20.6239z" fill="#000000"/><path d="M488.99135,114.86788c6.15512,13.23147 -4.99067,64.49498 -82.53832,101.80452c-77.54755,37.3096 -122.7618,10.57453 -129.26614,-2.48885c-20.15658,-40.48237 28.80717,-7.8227 106.35471,-45.13228c77.54755,-37.3096 85.60037,-96.85288 105.44969,-54.18347z" fill="#ababab"/><path d="M359.44841,192.38669c-16.71954,-34.75137 -37.59233,-123.97493 -27.07547,-129.03479c10.51689,-5.05985 67.06688,58.16243 83.7864,92.91381c16.71954,34.75137 -39.99141,70.87233 -56.71091,36.12103z" fill="#ababab"/><path d="M416.46146,151.22268c1.23647,2.56993 1.57556,39.83244 -16.5211,48.5391c-18.09666,8.70664 -47.77635,-14.43952 -49.01284,-17.00949c-1.23647,-2.56993 64.2975,-34.09953 65.53392,-31.52962z" fill="#1d1d1d"/><g><path d="M365.84526,-50.82861c5.55491,11.54575 -21.39854,36.03971 -60.2022,54.70888c-38.80362,18.66914 -74.76325,24.4438 -80.31815,12.8981c-0.91877,-1.90975 -2.82811,-7.9425 2.97448,-12.30801c22.41622,-16.86469 91.99665,-49.76956 123.78287,-58.16045c9.7293,-2.56837 12.67648,0.6033 13.76292,2.8615z" fill="#101010"/><path d="M365.92153,-48.77783c11.94045,24.81809 27.99297,66.17174 9.78048,95.39611c-12.93045,20.74863 -56.10722,32.6536 -72.21617,40.4039c-38.7984,18.66665 -57.64791,-25.76376 -78.06583,-68.20212c-7.35031,-15.27751 10.80599,-6.63277 32.05462,-22.12409c17.79154,-12.97091 49.01644,-17.72539 66.35433,-31.10578c19.47537,-15.02999 35.17935,-28.73699 42.09256,-14.36806z" fill="#0d0d0d"/></g><g><path d="M421.39379,16.82411c1.30176,2.70559 -37.41759,24.03513 -86.48188,47.64087c-49.06431,23.60575 -89.894,40.54872 -91.19574,37.84314c-1.30176,-2.70559 37.41759,-24.03513 86.48188,-47.64087c49.06431,-23.60575 89.894,-40.54872 91.19574,-37.84314z" fill="#101010"/><path d="M420.65009,17.67105c2.79809,5.81568 3.34475,17.05309 -27.91843,36.88923c-22.19611,14.08323 -73.22102,36.55418 -93.58967,46.35399c-49.0578,23.6026 -51.36121,12.17417 -56.14585,2.22941c-1.72242,-3.58002 22.32556,-7.86264 51.31313,-23.04357c24.27137,-12.71109 57.01313,-25.08338 80.96355,-37.78711c26.90309,-14.26991 43.75722,-28.00908 45.37725,-24.64195z" fill="#0d0d0d"/></g><path d="M390.38443,14.22819c1.05573,2.19424 6.01403,8.25026 1.49082,12.63538c-3.83106,3.71405 -11.27577,6.89168 -19.57761,11.80007c-8.51092,5.03199 -17.95937,11.80649 -28.36902,16.54395c-5.25571,2.39183 -10.38825,1.79932 -15.61663,4.31483c-7.89135,3.79666 -16.32092,9.94262 -25.54873,13.86496c-8.01409,3.40636 -16.87818,4.62038 -23.42379,7.58667c-8.13049,3.68451 -12.21732,7.58581 -17.29065,8.55115c-8.55436,1.62776 -6.59516,-7.1271 -7.86574,-9.76797c-1.06533,-2.21423 -7.56514,-9.02567 -2.95581,-13.46624c4.27036,-4.11394 11.93652,-10.87179 22.54644,-15.21477c7.73252,-3.16514 17.63678,-3.78375 25.93961,-7.37601c6.43834,-2.78562 10.24112,-6.20557 16.54225,-9.23717c6.31254,-3.03707 13.27222,-4.31286 19.86297,-8.15993c7.75857,-4.5287 14.54567,-11.48099 21.56913,-16.08138c9.86366,-6.4607 19.35289,-10.03021 25.29403,-11.03119c7.6465,-1.28831 6.21382,12.56642 7.40277,15.03768z" fill="#801d1d"/></g><g><path d="M253.13681,200.8964c-20.53858,-39.43683 -5.2185,-88.05651 34.21833,-108.59506c39.43683,-20.53858 88.05651,-5.2185 108.59506,34.21833c20.53858,39.43683 5.2185,88.05651 -34.21833,108.59506c-39.43683,20.53858 -88.05651,5.2185 -108.59506,-34.21833z" fill="url(#color-46)" stroke="url(#color-47)"/><path d="M313.12899,169.31142c-3.32014,-6.37511 -0.8436,-14.2347 5.53151,-17.55483c6.37511,-3.32014 14.2347,-0.84359 17.55484,5.53154c3.32014,6.37511 0.84359,14.2347 -5.53154,17.55484c-6.37511,3.32014 -14.23469,0.84358 -17.55483,-5.53155zM328.92152,171.65612c4.45814,-2.32177 6.18998,-7.81798 3.8682,-12.27611c-2.32177,-4.45814 -7.81799,-6.19 -12.27612,-3.86822c-4.45814,2.32177 -6.18998,7.81802 -3.86821,12.27613c2.32177,4.45814 7.81798,6.18998 12.27612,3.8682z" fill="#ffffff" stroke="url(#color-48)"/></g><g><path d="M340.91598,158.29356c-20.53858,-39.43683 -5.2185,-88.05651 34.21833,-108.59506c39.43683,-20.53858 88.05651,-5.2185 108.59506,34.21833c20.53858,39.43683 5.2185,88.05651 -34.21833,108.59506c-39.43683,20.53858 -88.05651,5.2185 -108.59506,-34.21833z" fill="url(#color-49)" stroke="url(#color-50)"/><path d="M400.90813,126.7086c-3.32014,-6.37511 -0.8436,-14.2347 5.53151,-17.55483c6.37511,-3.32014 14.2347,-0.84359 17.55484,5.53154c3.32014,6.37511 0.84359,14.2347 -5.53154,17.55484c-6.37511,3.32014 -14.23469,0.84358 -17.55483,-5.53155zM416.70067,129.0533c4.45814,-2.32177 6.18998,-7.81798 3.8682,-12.27611c-2.32177,-4.45814 -7.81799,-6.19 -12.27612,-3.86822c-4.45814,2.32177 -6.18998,7.81802 -3.86821,12.27613c2.32177,4.45814 7.81798,6.18998 12.27612,3.8682z" fill="#ffffff" stroke="url(#color-51)"/></g></g></g></g></svg>