<svg version="1.1" xmlns="http://www.w3.org/2000/svg" xmlns:xlink="http://www.w3.org/1999/xlink" width="773.27326" height="449.12725" viewBox="0,0,773.27326,449.12725"><defs><radialGradient cx="355.92117" cy="175.50278" r="369.79306" gradientUnits="userSpaceOnUse" id="color-1"><stop offset="0" stop-color="#000000" stop-opacity="0.83922"/><stop offset="1" stop-color="#000000" stop-opacity="0"/></radialGradient><radialGradient cx="355.92117" cy="175.50278" r="369.79307" gradientUnits="userSpaceOnUse" id="color-2"><stop offset="0" stop-color="#000000" stop-opacity="0"/><stop offset="1" stop-color="#000000"/></radialGradient><linearGradient x1="-23.95967" y1="183.44241" x2="140.0562" y2="183.44241" gradientUnits="userSpaceOnUse" id="color-3"><stop offset="0" stop-color="#000000"/><stop offset="1" stop-color="#000000" stop-opacity="0"/></linearGradient><linearGradient x1="746.93026" y1="180.31862" x2="582.91437" y2="180.31862" gradientUnits="userSpaceOnUse" id="color-4"><stop offset="0" stop-color="#000000"/><stop offset="1" stop-color="#000000" stop-opacity="0"/></linearGradient><linearGradient x1="360.55392" y1="-7.45566" x2="360.55392" y2="115.47114" gradientUnits="userSpaceOnUse" id="color-5"><stop offset="0" stop-color="#000000"/><stop offset="1" stop-color="#000000" stop-opacity="0"/></linearGradient><linearGradient x1="359.52799" y1="372.53373" x2="359.52799" y2="249.60695" gradientUnits="userSpaceOnUse" id="color-6"><stop offset="0" stop-color="#000000"/><stop offset="1" stop-color="#000000" stop-opacity="0"/></linearGradient></defs><g transform="translate(26.34303,76.59353)"><g stroke-miterlimit="10"><g><path d="M-13,153v-160.3741h746v160.3741z" fill="#090a17" stroke="#000000" stroke-width="0" stroke-linecap="butt"/><path d="M-12.41291,360.00001v-160.3741h746v160.3741z" fill="#090a17" stroke="#000000" stroke-width="0" stroke-linecap="butt"/><path d="M274,244.00001v-128h164v128z" fill="#020203" stroke="#000000" stroke-width="0" stroke-linecap="butt"/><path d="M0,360.00001v-360l295,116l1,128.5z" fill="#11132b" stroke="none" stroke-width="0" stroke-linecap="butt"/><path d="M720,0.00001v360l-295,-116l-1,-128.5z" fill="#11132b" stroke="none" stroke-width="0" stroke-linecap="butt"/><path d="M22,277.22281v-194.44563l251.14865,62.6547l0.85135,69.40629z" fill="#000000" stroke="none" stroke-width="0" stroke-linecap="butt"/><path d="M698,82.77719v194.44563l-259.12162,-62.6547l-0.87838,-69.40629z" fill="#000000" stroke="none" stroke-width="0" stroke-linecap="butt"/><g fill="none" stroke="#424242" stroke-width="5" stroke-linecap="round"><g><path d="M85.58709,-50.18704l232,157"/><path d="M635.58709,-50.18704l-232,157"/></g><path d="M274.83709,77.81296v191"/><path d="M165.83709,4.81295v323"/><path d="M436.83709,86.00001v187"/><path d="M545.83709,13.00001v316"/></g><g fill="#b8b8b8" stroke="none" stroke-width="0.5" stroke-linecap="butt"><path d="M281.38362,300.28197c1.55367,0.12306 4.38023,0.53361 5.23494,0.00537c0.58629,-0.36235 1.39601,-1.32871 2.12575,-1.86982c2.82082,-2.09167 5.23187,-5.17475 8.43338,-5.16424c1.8906,-0.63073 3.28245,-2.33842 5.20419,-2.84182c1.59189,-0.417 2.73307,-0.00034 4.24601,-0.8491c1.66504,-0.93409 4.44073,-3.39322 6.4454,-2.79772c0.94932,0.282 1.98703,1.73333 2.69349,2.40616c1.63083,1.62016 1.81002,4.17827 3.97737,5.47879c1.08905,0.65348 2.05394,0.68569 3.08713,1.58956c2.06224,2.02596 5.02984,5.86871 7.68079,6.75161c0.6926,0.24583 0.64513,0.58453 1.15598,0.99856c0.48931,0.39658 1.37435,0.3721 1.82921,0.72322c2.36025,1.822 -3.4546,4.42987 -3.97484,5.16091c-0.78049,1.0101 -2.27123,0.83147 -3.44931,0.8639c-2.51292,0.06918 -4.45578,-0.22538 -6.6949,0.96894c-2.28225,0.06185 -6.39212,-0.79738 -8.47163,0.02615c-0.57179,0.22644 -1.01185,0.78368 -1.68264,1.01784c-3.23444,1.12907 -7.08166,1.47037 -10.47071,0.80132c-1.49377,-0.29489 -2.18641,-1.33317 -3.51819,-1.77035c-1.22736,-0.4029 -2.50498,-0.42261 -3.73294,-0.99295c-0.75651,-0.35137 -1.07867,-1.24272 -1.95141,-1.32408c-2.50418,-0.29549 -4.66209,-1.90813 -6.61639,-3.43735c-0.82064,-0.64214 -2.11987,-0.82784 -2.33752,-1.89462c-0.00617,-0.84746 -0.47755,0.10647 -1.00806,-0.45856c-1.02549,-1.09221 -0.03561,-2.45356 0.9226,-3.08916c-0.0072,-0.0244 -0.01132,-0.0524 -0.01132,-0.08452c0,-0.25 0.25,-0.25 0.25,-0.25c0.11705,0 0.25574,0.00584 0.41178,0.0159l0.00882,-0.00295c0,0 0.11611,-0.03889 0.21302,0.01902z"/><path d="M365.52038,260.40115c0.09886,-0.22962 0.32848,-0.13076 0.32848,-0.13076c0.15308,0.06591 0.42909,0.18474 0.58218,0.25064c0.06523,0.02808 0.12653,0.05731 0.18412,0.08761c0.34881,-0.63918 1.32514,-0.1637 2.14873,-0.02643c2.09982,0.34997 4.31772,0.16771 6.44529,0.16778c3.5,0.00012 6.99999,0.00002 10.49999,0.00002c3.53656,0 6.55868,1.98751 10.18741,1.99578c1.91211,0.00436 2.98196,1.03114 4.7504,1.43937c1.78326,0.41165 4.08611,0.15278 4.68935,2.49251c0.342,1.43932 0.80563,4.45298 1.99564,5.46275c0.61895,0.52521 1.85781,0.15139 2.34626,0.99876c0.26587,0.46124 0.21124,1.4812 0.27221,2.01554c0.95464,1.35944 1.23798,3.08126 2.22402,4.25817c0.25856,0.30862 1.13646,1.08008 0.72883,1.58674c-0.41625,0.51737 -3.7894,-0.24478 -4.22693,-0.54252c-2.26824,-1.59515 -7.41595,-0.70704 -10.17068,-0.70707c-3.52252,-0.00004 -7.05016,0.05464 -10.57203,-0.01063c-2.6122,-1.66464 -3.06562,-7.2911 -6.45102,-7.84894c-1.65558,-0.30915 -4.51508,-0.37682 -5.78952,-1.17343c-1.11153,-0.69477 -2.01195,-2.17382 -3.21554,-2.88325c-0.97918,-0.59051 -1.84138,-1.52781 -2.79339,-2.06206c-0.53582,-0.3007 -1.50632,-0.13732 -1.97435,-0.55058c-1.2924,-1.14118 -0.09001,-3.11332 -1.09327,-4.0033c-0.02187,-0.01267 -0.03963,-0.02824 -0.05406,-0.0452c-0.09214,-0.07262 -0.2009,-0.13714 -0.32918,-0.19237c-0.15308,-0.06591 -0.30616,-0.13181 -0.45925,-0.19772l-0.12293,-0.05292c0,0 -0.22962,-0.09886 -0.13076,-0.32848z"/><path d="M302.72688,250.74835c-0.06193,-0.00716 -0.22688,-0.04528 -0.22688,-0.24835c0,-0.25 0.25,-0.25 0.25,-0.25c3,0 6,0 9,0c3.5,0 7,0 10.5,0c3.5352,0 6.98623,0.04738 10.50502,0.39926c1.81119,0.18112 0.32337,3.02271 -0.83113,4.02149c-1.16802,1.01047 -3.75184,1.467 -5.20298,2.02833c-2.96541,1.14708 -7.29036,1.51028 -9.74177,3.51925c-2.82335,2.31379 -5.2464,4.56065 -8.68133,5.84635c-1.29705,0.48549 -2.9023,1.43116 -4.27301,1.59165c-1.83286,0.2146 -4.11421,-0.37898 -6.00706,-0.39009c-3.50072,-0.02053 -6.95441,-1.40594 -10.25635,-2.05115c-0.09169,-0.28533 -0.54369,-0.31043 -0.69698,-0.56796c-1.09514,-1.83983 3.10375,-4.55159 3.72639,-5.95181c0.42659,-0.95934 -0.06228,-1.62579 1.01394,-2.27032c2.16178,-1.25824 4.47607,-2.20934 6.60595,-3.09668c1.06672,-0.44441 -0.08498,-1.9423 1.7195,-2.04833c0.61391,-0.02992 2.34233,0.25549 2.37299,-0.32147l0.00246,-0.01138c0,0 0.04156,-0.19202 0.22122,-0.19877z"/></g><g stroke="none" stroke-width="0" stroke-linecap="butt"><path d="M194.08986,187.62591l119.91645,2.99935l-2.99935,119.91645l-119.91645,-2.99935z" fill="#9f7d3f"/><path d="M210.7923,205.1853l85.65461,2.14239l-2.14239,85.65461l-85.65461,-2.14239z" fill="#6b552b"/><path d="M274.54385,201.88224l4.89454,0.12243l-2.38724,95.44369l-4.89454,-0.12243z" fill="#9f7d3f"/><path d="M251.29475,201.30074l4.89454,0.12243l-2.38724,95.44369l-4.89454,-0.12243z" fill="#9f7d3f"/><path d="M226.78428,202.19673l4.89454,0.12242l-2.38724,95.44369l-4.89454,-0.12242z" fill="#9f7d3f"/></g><g stroke="none" stroke-width="0" stroke-linecap="butt"><path d="M440.0743,236.5354l82.93201,2.0743l-2.0743,82.93201l-82.93201,-2.0743z" fill="#9f7d3f"/><path d="M451.6254,248.67915l59.23715,1.48164l-1.48163,59.23715l-59.23715,-1.48164z" fill="#6b552b"/><path d="M495.7148,246.39482l3.38498,0.08467l-1.65097,66.0071l-3.38498,-0.08467z" fill="#9f7d3f"/><path d="M479.63615,245.99266l3.38498,0.08467l-1.65097,66.0071l-3.38498,-0.08467z" fill="#9f7d3f"/><path d="M462.68516,246.61232l3.38498,0.08466l-1.65097,66.0071l-3.38498,-0.08466z" fill="#9f7d3f"/></g><g stroke="none" stroke-width="0" stroke-linecap="butt"><path d="M243.73177,129.89927l62.08945,1.55298l-1.55298,62.08945l-62.08945,-1.55298z" fill="#9f7d3f"/><path d="M252.37983,138.99104l44.34961,1.10927l-1.10927,44.34961l-44.34961,-1.10927z" fill="#6b552b"/><path d="M285.38864,137.2808l2.53426,0.06339l-1.23605,49.41813l-2.53426,-0.06339z" fill="#9f7d3f"/><path d="M273.35089,136.97972l2.53426,0.06339l-1.23605,49.41813l-2.53426,-0.06339z" fill="#9f7d3f"/><path d="M260.66004,137.44365l2.53426,0.06338l-1.23605,49.41813l-2.53426,-0.06339z" fill="#9f7d3f"/></g><g stroke-width="0" stroke-linecap="butt"><g stroke="#000000"><path d="M-13.87189,354.83127v-358.65695h739.58612v358.65695z" fill="url(#color-1)"/><path d="M-13.87189,354.83127v-358.65695h739.58613v358.65695z" fill="url(#color-2)"/></g><g stroke="none"><path d="M-23.95967,371.44806v-376.01132h164.01586v376.01132z" fill="url(#color-3)"/><path d="M582.91437,368.32427v-376.01132h164.01586v376.01132z" fill="url(#color-4)"/><path d="M-25.3171,115.47114v-122.92677h771.74205v122.92678z" fill="url(#color-5)"/><path d="M745.39902,249.60695v122.92677h-771.74204v-122.92677z" fill="url(#color-6)"/></g></g><path d="M54.25,2v-78.59353h614v78.59353z" fill="#000000" stroke="#424242" stroke-width="0" stroke-linecap="butt"/></g></g></g></svg>