<svg version="1.1" xmlns="http://www.w3.org/2000/svg" xmlns:xlink="http://www.w3.org/1999/xlink" width="932.6067" height="512.50512" viewBox="0,0,932.6067,512.50512"><g transform="translate(42.88429,69.75256)"><g stroke-width="0" stroke-miterlimit="10"><path d="M-12,368v-376h744v376z" fill="#aac8f3" stroke="#414141"/><path d="M-20,404.5v-436h241l159,435z" fill="#2e2e2e" stroke="none"/><path d="M-9,377.77369v-394c0,0 103.45891,75.03128 145.74621,173.04342c51.98674,120.49321 82.25379,220.95658 82.25379,220.95658z" fill="#000000" stroke="#414141"/><path d="M22.80021,363.93297c-36.15255,5.89579 -20.28351,-13.79878 -23.78141,-24.11108c-2.60828,-7.68957 -24.17654,-16.44749 -5.5694,-28.83864c23.26813,-15.49502 91.59839,-35.28115 134.39332,-49.79702c77.01737,-26.12401 98.96085,-19.97961 104.83073,-2.67434c5.86987,17.30525 -6.55662,39.21831 -83.57399,65.34232c-31.12231,10.55658 -101.78355,36.08074 -126.29924,40.0788z" fill="#ffffff" stroke="none"/><path d="M281.61192,247.77508c2.00172,12.02655 16.58502,38.58227 3.17578,52.23855c-12.48692,12.71694 -52.65256,13.00547 -60.60695,12.52638c-25.94628,-1.56279 -46.51281,-20.2822 -45.93667,-41.81101c0.11798,-4.40842 -3.78797,-23.51794 4.97294,-38.1361c9.55,-15.93471 25.07481,-42.25279 28.71769,-38.81775c18.48205,17.42754 -0.50937,39.90822 14.33244,40.80214c9.4499,0.56916 53.13028,-0.10705 55.34477,13.19777z" fill="#ffffff" stroke="none"/><path d="M35.724,377.40048c-33.79035,14.36545 -68.36674,-0.5341 -77.22851,-33.2791c-8.86177,-32.745 26.56766,-44.35064 60.35801,-58.71609c33.79035,-14.36545 50.66086,77.62974 16.8705,91.99518z" fill="#0e0e22" stroke="none"/><path d="M610.52855,-8.14191c39.54864,-6.42081 22.17561,15.10901 25.99364,26.39144c2.84699,8.41296 26.4318,18.00922 6.06948,31.54835c-25.46297,16.93056 -100.21875,38.51979 -147.03959,54.36419c-84.26275,28.51492 -108.26,21.77708 -114.66711,2.84381c-6.4071,-18.93323 7.20215,-42.89233 91.46491,-71.40725c34.05013,-11.52273 111.36001,-39.38649 138.17866,-43.74057z" fill="#ffffff" stroke="none"/><path d="M322.09294,108.65021c0.62768,-13.32096 -8.85412,-45.07419 8.62793,-56.59069c16.27959,-10.72433 59.2959,-1.78787 67.69142,0.55531c27.38516,7.64323 45.06866,32.39409 39.49726,55.28266c-1.14085,4.68687 -1.36262,26.02009 -14.09552,39.63505c-13.87972,14.84115 -49.05704,39.31293 -52.16179,34.80129c-15.7519,-22.88966 22.24908,-42.46011 6.5842,-46.83217c-9.97397,-2.78371 -56.8379,-12.11463 -56.14349,-26.85145z" fill="#ffffff" stroke="none"/><path d="M597.37476,-24.09185c36.96917,-12.51055 74.77997,0.51919 84.45279,29.10277c9.67282,28.58358 -18.08748,61.68435 -55.05665,74.1949c-36.96917,12.51055 -66.36532,-90.78712 -29.39614,-103.29767z" fill="#1b1b1b" stroke="none"/><path d="M696.45484,-63.11643c0.21658,3.04777 2.33486,99.156 12.60493,186.72837c4.03046,34.36748 13.9716,66.73311 19.18944,91.46746c5.07181,24.04228 5.47927,40.94026 5.47927,40.94026c0,0 -128.31709,69.48593 -170.80582,-9.06743c-21.99692,-40.66798 61.18505,-188.83421 51.6923,-241.50514c-9.50771,-52.75412 18.5486,-70.81049 31.36537,-71.7737c46.91886,-3.52605 49.77171,-6.67983 50.47451,3.21017z" fill="#353535" stroke="#000000"/><path d="M706.05243,429.54786c-39.90664,-67.16228 -45.85213,-270.26044 -25.77856,-298.23364c8.64395,-12.04561 62.8899,-33.31452 78.61803,-30.19524c23.84865,4.72976 89.89953,163.00612 120.6788,216.84558c29.52674,51.64848 -13.36976,61.925 -27.30839,53.60406c-17.95388,-10.71792 -99.96536,-179.82617 -99.96536,-179.82617c0,0 7.35771,212.72926 4.30091,229.93411c-3.27466,18.43095 -35.90215,32.51569 -50.54543,7.87131z" fill="#464646" stroke="none"/><path d="M705.09109,-59.13815c48.47615,-7.16082 86.57142,-29.25546 94.98253,27.68475c2.26045,15.30238 0.30313,170.665 -16.89697,181.63266c-25.32294,16.1472 -53.50536,18.7712 -85.07713,17.86147c-8.85401,-0.25511 -36.65728,-9.22605 -46.74991,-30.92774c-20.43219,-43.93429 0.94943,-135.08161 -0.94,-147.87233c0,0 -4.65891,-21.45571 6.66387,-34.54269c8.12618,-9.39233 27.76323,-10.84417 48.0176,-13.83612z" fill="#2c2c2c" stroke="none"/></g></g></svg>