<svg version="1.1" xmlns="http://www.w3.org/2000/svg" xmlns:xlink="http://www.w3.org/1999/xlink" width="777.77778" height="427.74842" viewBox="0,0,777.77778,427.74842"><defs><linearGradient x1="-0.58709" y1="177.6721" x2="719.41291" y2="177.6721" gradientUnits="userSpaceOnUse" id="color-1"><stop offset="0" stop-color="#4f271b"/><stop offset="1" stop-color="#36190d"/></linearGradient><linearGradient x1="-26.49166" y1="181.14646" x2="138.47964" y2="181.14646" gradientUnits="userSpaceOnUse" id="color-2"><stop offset="0" stop-color="#000000"/><stop offset="1" stop-color="#000000" stop-opacity="0"/></linearGradient><linearGradient x1="748.88889" y1="177.63219" x2="583.9176" y2="177.63219" gradientUnits="userSpaceOnUse" id="color-3"><stop offset="0" stop-color="#000000"/><stop offset="1" stop-color="#000000" stop-opacity="0"/></linearGradient><linearGradient x1="360.26181" y1="-33.61388" x2="360.26181" y2="104.67877" gradientUnits="userSpaceOnUse" id="color-4"><stop offset="0" stop-color="#000000"/><stop offset="1" stop-color="#000000" stop-opacity="0"/></linearGradient><linearGradient x1="359.22991" y1="393.87422" x2="359.22991" y2="255.58157" gradientUnits="userSpaceOnUse" id="color-5"><stop offset="0" stop-color="#000000"/><stop offset="1" stop-color="#000000" stop-opacity="0"/></linearGradient></defs><g transform="translate(28.88889,33.87421)"><g stroke-miterlimit="10"><path d="M0,357.6721v-360h720v360z" fill="#301810" stroke="#000000" stroke-width="0" stroke-linecap="butt"/><path d="M-0.58709,357.6721v-360l717.56757,1l2.43243,243.5c0,0 -100.88474,-53.16936 -308.23078,-38.00881c-267.38364,19.55033 -411.76922,153.50881 -411.76922,153.50881z" fill="url(#color-1)" stroke="none" stroke-width="0" stroke-linecap="butt"/><path d="M335.08089,209.01476l206.99945,-22.50184c0,0 39.75721,25.76085 61.21062,39.66168c23.78095,15.40897 75.21296,48.73456 75.21296,48.73456c0,0 -17.31468,33.51467 -29.87097,43.47522c-13.87649,11.00783 -49.82398,19.74457 -49.82398,19.74457z" fill="#331911" stroke="#dcdcdc" stroke-width="0" stroke-linecap="butt"/><path d="M146.18527,246.73096l198.44804,-63.03554l306.14659,120.73817c0,0 -9.66176,22.78051 -30.00163,29.14277c-22.57273,7.0607 -99.43517,11.34475 -99.43517,11.34475z" fill="#331911" stroke="#dcdcdc" stroke-width="0" stroke-linecap="butt"/><path d="M58.35795,312.35114l72.84168,-87.71495l505.26823,83.98276l-5.84168,59.71495z" fill="#361b12" stroke="#dcdcdc" stroke-width="0" stroke-linecap="butt"/><path d="M-4.08709,357.6721l46.39104,-55.18705l620.60896,7.12091v48.06614z" fill="#402016" stroke="#dcdcdc" stroke-width="0" stroke-linecap="butt"/><g fill="none" stroke="#424242" stroke-width="8" stroke-linecap="round"><path d="M577.60678,368.47818c0,0 -2.46453,-299.04878 -2.46453,-351.60604c0,-14.19643 1.72683,-14.75147 4.55729,5.4015c11.54646,82.21119 14.34862,293.5947 20.31903,336.10424c2.03001,14.45378 3.87653,18.74706 3.87653,3.73639c0,-76.13482 0,-310.65417 0,-351.60604c0,-11.94081 1.38158,-13.03716 3.01624,-2.10883c7.10319,47.4878 18.34303,361.66977 18.34303,361.66977"/><path d="M528.21892,369.17061c0,0 -2.46454,-299.04878 -2.46454,-351.60604c0,-14.1964 1.72685,-14.75147 4.55731,5.40153c11.54646,82.21119 14.34862,293.59467 20.31903,336.10422c2.03001,14.45378 3.87653,18.74706 3.87653,3.73639c0,-76.13482 0,-310.65417 0,-351.60604c0,-11.94081 1.38158,-13.03713 3.01624,-2.10883c7.10319,47.48782 18.34303,361.66977 18.34303,361.66977"/></g><path d="M619.91291,357.6721v-360h99.5v360z" fill="#454545" stroke="#dcdcdc" stroke-width="0" stroke-linecap="butt"/><g stroke-width="0" stroke-linecap="butt"><g fill-opacity="0.67843" fill="#000000" stroke="#000000"><path d="M-16.34512,373.95896v-403.48913h743.89439v403.48913z"/></g><g stroke="none"><path d="M-26.49166,392.65285v-423.0128h164.97129v423.0128z" fill="url(#color-2)"/><path d="M583.9176,389.13859v-423.0128h164.97129v423.0128z" fill="url(#color-3)"/><path d="M-27.857,104.67877v-138.29264h776.23763v138.29265z" fill="url(#color-4)"/><path d="M747.34873,255.58157v138.29264h-776.23762v-138.29264z" fill="url(#color-5)"/></g></g></g></g></svg>