<svg version="1.1" xmlns="http://www.w3.org/2000/svg" xmlns:xlink="http://www.w3.org/1999/xlink" width="727.55178" height="380.22077" viewBox="0,0,727.55178,380.22077"><defs><radialGradient cx="352.1102" cy="173.07945" r="347.92823" gradientUnits="userSpaceOnUse" id="color-1"><stop offset="0" stop-color="#000000" stop-opacity="0.83922"/><stop offset="1" stop-color="#000000" stop-opacity="0"/></radialGradient><radialGradient cx="352.1102" cy="173.07945" r="347.92824" gradientUnits="userSpaceOnUse" id="color-2"><stop offset="0" stop-color="#000000" stop-opacity="0"/><stop offset="1" stop-color="#000000"/></radialGradient><linearGradient x1="-5.30935" y1="181.01908" x2="149.00872" y2="181.01908" gradientUnits="userSpaceOnUse" id="color-3"><stop offset="0" stop-color="#000000"/><stop offset="1" stop-color="#000000" stop-opacity="0"/></linearGradient><linearGradient x1="720.00002" y1="177.89529" x2="565.68195" y2="177.89529" gradientUnits="userSpaceOnUse" id="color-4"><stop offset="0" stop-color="#000000"/><stop offset="1" stop-color="#000000" stop-opacity="0"/></linearGradient><linearGradient x1="356.46902" y1="-9.87898" x2="356.46902" y2="113.04782" gradientUnits="userSpaceOnUse" id="color-5"><stop offset="0" stop-color="#000000"/><stop offset="1" stop-color="#000000" stop-opacity="0"/></linearGradient><linearGradient x1="355.50375" y1="370.1104" x2="355.50375" y2="247.18362" gradientUnits="userSpaceOnUse" id="color-6"><stop offset="0" stop-color="#000000"/><stop offset="1" stop-color="#000000" stop-opacity="0"/></linearGradient></defs><g transform="translate(7.55178,10.11038)"><g stroke-miterlimit="10"><g><g stroke-width="0" stroke-linecap="butt"><path d="M183.16745,255.53756v-155.90841h353.07808v155.90842z" fill="#090a17" stroke="#000000"/><path d="M225.29356,260.25001v-73.5h281v73.5z" fill="#11132b" stroke="#424242"/></g><path d="M193.79356,141.09353v-51.5h76v51.5z" fill="#000000" stroke="#424242" stroke-width="0" stroke-linecap="butt"/><path d="M450.29357,141.78058v-51.5h76v51.5z" fill="#000000" stroke="#424242" stroke-width="0" stroke-linecap="butt"/><path d="M486.20649,186.25002h-251" fill="none" stroke="#424242" stroke-width="2.5" stroke-linecap="round"/><path d="M316,249.00002v-138h88v138z" fill="#000000" stroke="#424242" stroke-width="0" stroke-linecap="butt"/></g><g fill="#112d14" stroke="#424242" stroke-width="0" stroke-linecap="butt"><path d="M235.20649,247.81297v-7h251v7z"/><path d="M235.20649,119.18705v-7h251v7z"/></g><path d="M5.78607,115.68705v-123.3741h705.80792v123.3741z" fill="#0c1f0d" stroke="#000000" stroke-width="0" stroke-linecap="butt"/><path d="M6.34153,367.68706v-123.3741h705.80792v123.3741z" fill="#0c1f0d" stroke="#000000" stroke-width="0" stroke-linecap="butt"/><path d="M-0.29352,359.68706v-360l240.03462,116l0.81367,128.5z" fill="#143517" stroke="none" stroke-width="0" stroke-linecap="butt"/><path d="M720.00001,0v360l-240.03461,-116l-0.81368,-128.5z" fill="#143517" stroke="none" stroke-width="0" stroke-linecap="butt"/><g stroke="none" stroke-width="0" stroke-linecap="butt"><path d="M182.10883,270.41932l14.68665,-111.39665l7.99259,1.05375l-14.68665,111.39665z" fill="#0d2e8b"/><path d="M199.09308,272.65853l14.68665,-111.39665l7.99259,1.05375l-14.68665,111.39665z" fill="#09205f"/><g><path d="M229.82069,290.08549c-42.60981,1.16212 -23.9404,-4.82142 -22.32179,-17.09837c1.6186,-12.27695 12.88317,-20.91724 25.16012,-19.29864c12.27695,1.6186 20.91724,12.88317 19.29864,25.16012c-1.6186,12.27695 17.34944,10.15996 -22.13697,11.23688z" fill="#11111c"/><path d="M221.24019,291.8721c-28.41245,0.35953 -20.91724,-7.34072 -19.29864,-19.61767c1.6186,-12.27695 12.88317,-20.91724 25.16012,-19.29864c12.27695,1.6186 20.91724,12.88317 19.29864,25.16012c-1.6186,12.27695 5.85964,13.36365 -25.16012,13.75618z" fill="#0a0a10"/></g><path d="M196.62607,279.46628c0,0 -13.39431,-0.20122 -17.09359,-3.47608c-3.72056,-3.2937 -5.16631,-16.22994 -5.16631,-16.22994l132.37719,17.45274c0,0 -4.68627,10.82257 -7.61533,13.50071c-2.20833,2.01915 -8.4157,1.15699 -8.4157,1.15699z" fill="#0f37a6"/><g><path d="M194.03437,171.84755l2.23009,-16.91497l25.89026,3.4134l-2.23009,16.91497z" fill="#0d2e8b"/><path d="M187.20973,162.34327c0.61582,-4.67094 4.90159,-7.95827 9.57253,-7.34244c4.67094,0.61582 7.95827,4.90159 7.34244,9.57253c-0.61582,4.67094 -4.90159,7.95826 -9.57253,7.34244c-4.67094,-0.61582 -7.95826,-4.90159 -7.34244,-9.57253z" fill="#0f37a6"/><path d="M212.58219,165.68843c0.61582,-4.67094 4.90159,-7.95827 9.57253,-7.34244c4.67094,0.61582 7.95826,4.90159 7.34244,9.57253c-0.61582,4.67094 -4.90159,7.95826 -9.57253,7.34244c-4.67094,-0.61582 -7.95827,-4.90159 -7.34244,-9.57253z" fill="#0d2e8b"/></g><g><path d="M182.67423,269.98564c1.60042,-12.139 12.73842,-20.68221 24.87742,-19.0818c12.139,1.60042 20.68221,12.73842 19.0818,24.87742c-1.60042,12.139 -12.73842,20.68221 -24.87742,19.0818c-12.139,-1.60042 -20.68221,-12.73842 -19.0818,-24.87742z" fill="#0a0a10"/><path d="M177.11347,269.76072c1.60042,-12.139 12.73842,-20.68221 24.87742,-19.0818c12.139,1.60042 20.68221,12.73842 19.0818,24.87742c-1.60042,12.139 -12.73842,20.68221 -24.87742,19.0818c-12.139,-1.60042 -20.68221,-12.73842 -19.0818,-24.87742z" fill="#11111c"/><path d="M189.35211,271.37429c0.70927,-5.37979 5.64543,-9.16598 11.02522,-8.4567c5.37979,0.70927 9.16598,5.64543 8.4567,11.02522c-0.70927,5.37979 -5.64543,9.16598 -11.02522,8.4567c-5.37979,-0.70927 -9.16598,-5.64543 -8.4567,-11.02522z" fill="#37373f"/></g></g><g stroke="none" stroke-width="0" stroke-linecap="butt"><path d="M125.62794,286.78887l19.23541,-145.89854l10.46806,1.38012l-19.23541,145.89854z" fill="#0d2e8b"/><path d="M147.87257,289.72164l19.23541,-145.89854l10.46806,1.38012l-19.23541,145.89854z" fill="#09205f"/><g><path d="M188.11717,312.54609c-55.80697,1.52205 -31.35524,-6.31472 -29.23532,-22.3941c2.11992,-16.07938 16.87336,-27.39575 32.95274,-25.27583c16.07938,2.11992 27.39575,16.87336 25.27583,32.95274c-2.11992,16.07938 22.72292,13.30671 -28.99325,14.71718z" fill="#11111c"/><path d="M176.87911,314.88606c-37.21238,0.47088 -27.39575,-9.6143 -25.27583,-25.69367c2.11992,-16.07938 16.87336,-27.39575 32.95274,-25.27583c16.07938,2.11992 27.39575,16.87336 25.27583,32.95274c-2.11992,16.07938 7.67449,17.50266 -32.95274,18.01676z" fill="#0a0a10"/></g><path d="M144.64148,298.6379c0,0 -17.54281,-0.26354 -22.38783,-4.55269c-4.8729,-4.31383 -6.76642,-21.25669 -6.76642,-21.25669l173.37719,22.85822c0,0 -6.1377,14.17455 -9.97396,17.68216c-2.8923,2.64452 -11.02222,1.51533 -11.02222,1.51533z" fill="#0f37a6"/><g><path d="M141.24707,157.68737l2.92079,-22.15389l33.90902,4.4706l-2.92079,22.15389z" fill="#0d2e8b"/><path d="M132.3087,145.23942c0.80655,-6.11763 6.41971,-10.42311 12.53734,-9.61655c6.11763,0.80655 10.42311,6.41972 9.61655,12.53734c-0.80655,6.11763 -6.41972,10.4231 -12.53734,9.61655c-6.11763,-0.80655 -10.4231,-6.41971 -9.61655,-12.53734z" fill="#0f37a6"/><path d="M165.53954,149.62061c0.80655,-6.11763 6.41972,-10.42311 12.53734,-9.61655c6.11763,0.80655 10.4231,6.41972 9.61655,12.53734c-0.80655,6.11763 -6.41971,10.4231 -12.53734,9.61655c-6.11763,-0.80655 -10.42311,-6.41971 -9.61655,-12.53734z" fill="#0d2e8b"/></g><g><path d="M126.36846,286.2209c2.0961,-15.89871 16.68378,-27.08793 32.58248,-24.99183c15.89871,2.0961 27.08793,16.68378 24.99183,32.58248c-2.0961,15.89871 -16.68378,27.08793 -32.58248,24.99183c-15.89871,-2.0961 -27.08793,-16.68378 -24.99183,-32.58248z" fill="#0a0a10"/><path d="M119.08541,285.92632c2.0961,-15.89871 16.68378,-27.08793 32.58248,-24.99183c15.89871,2.0961 27.08793,16.68378 24.99183,32.58248c-2.0961,15.89871 -16.68378,27.08793 -32.58248,24.99183c-15.89871,-2.0961 -27.08793,-16.68378 -24.99183,-32.58248z" fill="#11111c"/><path d="M135.11461,288.03961c0.92895,-7.04602 7.39394,-12.00488 14.43996,-11.07592c7.04602,0.92895 12.00488,7.39394 11.07592,14.43996c-0.92895,7.04602 -7.39394,12.00488 -14.43996,11.07592c-7.04602,-0.92895 -12.00488,-7.39394 -11.07592,-14.43996z" fill="#37373f"/></g></g><path d="M300.70649,260.87501l15,-21h88.5l13.5,21.5z" fill="#1f5122" stroke="#424242" stroke-width="0" stroke-linecap="butt"/><g stroke-width="0" stroke-linecap="butt"><g stroke="#000000"><path d="M4.18197,352.40794v-358.65695h695.85646v358.65695z" fill="url(#color-1)"/><path d="M4.18197,352.40794v-358.65695h695.85647v358.65695z" fill="url(#color-2)"/></g><g stroke="none"><path d="M-5.30935,369.02474v-376.01132h154.31806v376.01133z" fill="url(#color-3)"/><path d="M565.68195,365.90095v-376.01132h154.31806v376.01133z" fill="url(#color-4)"/><path d="M-6.58651,113.04782v-122.92677h726.11109v122.92678z" fill="url(#color-5)"/><path d="M718.55931,247.18362v122.92678h-726.11108v-122.92677z" fill="url(#color-6)"/></g></g></g></g></svg>