<svg version="1.1" xmlns="http://www.w3.org/2000/svg" xmlns:xlink="http://www.w3.org/1999/xlink" width="827.82282" height="456.80014" viewBox="0,0,827.82282,456.80014"><defs><linearGradient x1="359.70651" y1="-7.68705" x2="359.70651" y2="115.68705" gradientUnits="userSpaceOnUse" id="color-1"><stop offset="0" stop-color="#323232"/><stop offset="1" stop-color="#232323"/></linearGradient><linearGradient x1="360.2936" y1="244.31295" x2="360.2936" y2="367.68705" gradientUnits="userSpaceOnUse" id="color-2"><stop offset="0" stop-color="#232323"/><stop offset="1" stop-color="#323232"/></linearGradient><linearGradient x1="-0.29351" y1="179.68705" x2="279.7065" y2="179.68705" gradientUnits="userSpaceOnUse" id="color-3"><stop offset="0" stop-color="#505050"/><stop offset="1" stop-color="#2e2e2e"/></linearGradient><linearGradient x1="426.70652" y1="179.68705" x2="719.70652" y2="179.68705" gradientUnits="userSpaceOnUse" id="color-4"><stop offset="0" stop-color="#2e2e2e"/><stop offset="1" stop-color="#505050"/></linearGradient><linearGradient x1="380.27632" y1="289.02551" x2="380.27632" y2="412.35556" gradientUnits="userSpaceOnUse" id="color-5"><stop offset="0" stop-color="#505050"/><stop offset="1" stop-color="#343434"/></linearGradient><linearGradient x1="381.28907" y1="286.99873" x2="379.3887" y2="382.33216" gradientUnits="userSpaceOnUse" id="color-6"><stop offset="0" stop-color="#000000" stop-opacity="0"/><stop offset="1" stop-color="#000000"/></linearGradient><radialGradient cx="360.54129" cy="177.62761" r="362.61261" gradientUnits="userSpaceOnUse" id="color-7"><stop offset="0" stop-color="#000000" stop-opacity="0.83922"/><stop offset="1" stop-color="#000000" stop-opacity="0"/></radialGradient><linearGradient x1="745.48697" y1="180.87088" x2="581.17556" y2="180.87088" gradientUnits="userSpaceOnUse" id="color-8"><stop offset="0" stop-color="#000000"/><stop offset="1" stop-color="#000000" stop-opacity="0"/></linearGradient><linearGradient x1="-26.79204" y1="177.62763" x2="137.51937" y2="177.62763" gradientUnits="userSpaceOnUse" id="color-9"><stop offset="0" stop-color="#000000"/><stop offset="1" stop-color="#000000" stop-opacity="0"/></linearGradient><linearGradient x1="360.28052" y1="-17.32732" x2="360.28052" y2="110.30031" gradientUnits="userSpaceOnUse" id="color-10"><stop offset="0" stop-color="#000000"/><stop offset="1" stop-color="#000000" stop-opacity="0"/></linearGradient><linearGradient x1="361.30829" y1="377.19325" x2="361.30829" y2="249.56562" gradientUnits="userSpaceOnUse" id="color-11"><stop offset="0" stop-color="#000000"/><stop offset="1" stop-color="#000000" stop-opacity="0"/></linearGradient><radialGradient cx="360.00008" cy="112.99966" r="47.67618" gradientUnits="userSpaceOnUse" id="color-12"><stop offset="0" stop-color="#ff7a00" stop-opacity="0.18039"/><stop offset="1" stop-color="#ff7a00" stop-opacity="0"/></radialGradient></defs><g transform="translate(53.91141,17.56757)"><g stroke-miterlimit="10"><path d="M320.96101,217.53754v-75.07508h78.07808v75.07508z" fill="#000000" stroke="#000000" stroke-width="0" stroke-linecap="butt"/><g fill="none" stroke="#424242" stroke-width="1" stroke-linecap="round"><g><path d="M333.28336,207.66709c0,0 3.04385,-47.26692 4.96746,-54.41119c0.44268,-1.64411 0.81682,-1.47917 0.81682,0.31726c0,6.16098 0,41.4431 0,52.89716c0,2.25827 0.50005,1.61237 1.0498,-0.56212c1.61684,-6.39532 2.37569,-38.19679 5.50258,-50.565c0.76652,-3.0319 1.23416,-2.9484 1.23416,-0.81263c0,7.90695 -0.66742,52.89716 -0.66742,52.89716"/><path d="M346.35304,207.6671c0,0 3.04385,-47.26691 4.96746,-54.41119c0.44268,-1.6441 0.81682,-1.47917 0.81682,0.31726c0,6.16098 0,41.4431 0,52.89716c0,2.25827 0.50005,1.61237 1.0498,-0.56212c1.61684,-6.39532 2.37569,-38.19678 5.50258,-50.565c0.76652,-3.03191 1.23416,-2.9484 1.23416,-0.81263c0,7.90695 -0.66742,52.89716 -0.66742,52.89716"/><path d="M360.07621,207.66709c0,0 3.04385,-47.26691 4.96746,-54.41119c0.44268,-1.6441 0.81682,-1.47917 0.81682,0.31726c0,6.16098 0,41.4431 0,52.89716c0,2.25827 0.50005,1.61237 1.0498,-0.56212c1.61684,-6.39532 2.37569,-38.19678 5.50258,-50.565c0.76652,-3.03191 1.23416,-2.9484 1.23416,-0.81263c0,7.90695 -0.66742,52.89716 -0.66742,52.89716"/><path d="M373.1459,207.6671c0,0 3.04385,-47.26691 4.96746,-54.41119c0.44268,-1.6441 0.81682,-1.47917 0.81682,0.31726c0,6.16098 0,41.4431 0,52.89716c0,2.25827 0.50005,1.61237 1.0498,-0.56212c1.61684,-6.39532 2.37569,-38.19678 5.50258,-50.565c0.76652,-3.03191 1.23416,-2.9484 1.23416,-0.81263c0,7.90695 -0.66742,52.89716 -0.66742,52.89716"/></g><g><path d="M373.81333,207.42774c0,0 -0.66741,-44.99022 -0.66741,-52.89716c0,-2.13577 0.46764,-2.21927 1.23416,0.81263c3.12689,12.36821 3.88574,44.16967 5.50258,50.565c0.54974,2.17449 1.0498,2.82039 1.0498,0.56212c0,-11.45406 0,-46.73618 0,-52.89716c0,-1.79643 0.37415,-1.96137 0.81683,-0.31726c1.92361,7.14427 4.96746,54.41119 4.96746,54.41119"/><path d="M360.74366,207.42774c0,0 -0.66743,-44.99021 -0.66743,-52.89715c0,-2.13577 0.46765,-2.21928 1.23417,0.81263c3.12689,12.36821 3.88574,44.16967 5.50258,50.565c0.54974,2.17449 1.0498,2.82039 1.0498,0.56212c0,-11.45406 0,-46.73617 0,-52.89715c0,-1.79643 0.37414,-1.96137 0.81682,-0.31726c1.92361,7.14427 4.96746,54.41119 4.96746,54.41119"/><path d="M347.02048,207.42774c0,0 -0.66742,-44.99022 -0.66742,-52.89716c0,-2.13577 0.46764,-2.21927 1.23416,0.81263c3.12689,12.36821 3.88574,44.16967 5.50258,50.565c0.54974,2.17449 1.0498,2.82039 1.0498,0.56212c0,-11.45406 0,-46.73618 0,-52.89716c0,-1.79643 0.37414,-1.96137 0.81682,-0.31726c1.92361,7.14427 4.96746,54.41119 4.96746,54.41119"/><path d="M333.95079,207.42774c0,0 -0.66742,-44.99021 -0.66742,-52.89715c0,-2.13577 0.46764,-2.21928 1.23416,0.81263c3.12689,12.36821 3.88574,44.16967 5.50259,50.565c0.54974,2.17449 1.0498,2.82039 1.0498,0.56212c0,-11.45406 0,-46.73617 0,-52.89715c0,-1.79643 0.37414,-1.96137 0.81682,-0.31726c1.92361,7.14427 4.96746,54.41119 4.96746,54.41119"/></g></g><g stroke-width="0" stroke-linecap="butt"><path d="M215.80307,155.15699v-47.65733h288.1672v47.65733z" fill="#232323" stroke="#000000"/><path d="M216.02985,252.50034v-47.65733h288.1672v47.65733z" fill="#232323" stroke="#000000"/><path d="M220.82475,249.41007v-139.06192l113.95352,44.80884l0.38628,49.63738z" fill="#2e2e2e" stroke="none"/><path d="M498.94859,110.34815v139.06192l-113.95352,-44.80884l-0.38628,-49.63738z" fill="#2e2e2e" stroke="none"/></g><g stroke-width="0" stroke-linecap="butt"><path d="M-13.29349,115.68705v-123.3741h746v123.3741z" fill="url(#color-1)" stroke="#000000"/><path d="M-12.7064,367.68705v-123.3741h746v123.3741z" fill="url(#color-2)" stroke="#000000"/><path d="M-0.29351,359.68705v-360l280,134.5l-5,94z" fill="url(#color-3)" stroke="none"/><path d="M719.70652,-0.31295v360l-281.5,-133.5l-11.5,-87z" fill="url(#color-4)" stroke="none"/></g><path d="M553.19071,284.5142v-170.98438l98.06457,-46.51781v262.76277z" fill="#000000" stroke="none" stroke-width="0" stroke-linecap="butt"/><path d="M450.61186,233.16268v-76.02339l43.60165,-20.68283v116.83006z" fill="#000000" stroke="none" stroke-width="0" stroke-linecap="butt"/><path d="M403.0593,211.03948v-36.28662l20.81144,-9.8721v55.76399z" fill="#000000" stroke="none" stroke-width="0" stroke-linecap="butt"/><path d="M59.71095,329.77478v-262.76277l98.06457,46.51781v170.98438z" fill="#000000" stroke="none" stroke-width="0" stroke-linecap="butt"/><path d="M216.75277,256.80843v-116.83006l43.60165,20.68283v76.02339z" fill="#000000" stroke="none" stroke-width="0" stroke-linecap="butt"/><path d="M291.60004,221.77089v-55.76399l20.81144,9.8721v36.28662z" fill="#000000" stroke="none" stroke-width="0" stroke-linecap="butt"/><g stroke="#000000" stroke-width="0" stroke-linecap="butt"><path d="M325.2587,70.06296c0,-6.18292 15.55422,-11.19516 34.74133,-11.19516c19.18711,0 34.74133,5.01224 34.74133,11.19516c0,6.18292 -16.03674,16.69516 -35.22385,16.69516c-19.18711,0 -34.25881,-10.51224 -34.25881,-16.69516z" fill="#181818"/><path d="M331.45448,76.05338c0,-5.08025 12.78028,-9.19861 28.54555,-9.19861c15.76528,0 28.54555,4.11836 28.54555,9.19861c0,5.08025 -13.17675,13.71774 -28.94202,13.71774c-15.76528,0 -28.14908,-8.63749 -28.14908,-13.71774z" fill="#404040"/></g><g stroke="#000000" stroke-width="0" stroke-linecap="butt"><path d="M350.93504,137.61881c0,-1.85191 4.6588,-3.35317 10.40572,-3.35317c5.74692,0 10.40572,1.50126 10.40572,3.35317c0,1.85191 -4.80333,5.00053 -10.55025,5.00053c-5.74692,0 -10.26119,-3.14862 -10.26119,-5.00053z" fill="#181818"/><path d="M352.7908,139.41306c0,-1.52164 3.82795,-2.75517 8.54996,-2.75517c4.72201,0 8.54996,1.23353 8.54996,2.75517c0,1.52164 -3.9467,4.10874 -8.66871,4.10874c-4.72201,0 -8.43121,-2.5871 -8.43121,-4.10874z" fill="#404040"/></g><g stroke="none" stroke-linecap="butt"><g><g stroke-width="0"><g><path d="M74.35899,352.90773l-63.49978,-254.97461l106.39957,21.44056l41.32044,165.91649z" fill="#838383"/><path d="M74.35899,352.90773l-63.49978,-254.97461l12.10509,2.4393l61.64793,244.30334z" fill="#656565"/><path d="M85.63971,314.78205l-46.50222,-186.72326l77.91864,15.70137l30.25982,121.50412z" fill="#a9a9a9"/></g><path d="M132.15101,204.6466c0.81004,3.78018 0.37226,7.07914 -0.9778,7.36844c-1.35007,0.2893 -3.10117,-2.54062 -3.91121,-6.3208c-0.81004,-3.78018 -0.37227,-7.07914 0.9778,-7.36844c1.35007,-0.2893 3.10117,2.54062 3.91121,6.3208z" fill="#000000"/></g><path d="M128.83149,218.67042c-0.5,0 -0.5,-0.5 -0.5,-0.5l0.06389,-0.75545c-1.92199,-0.91678 -1.03181,-2.22162 0.08256,-3.34811c0,0 0.35356,-0.35356 0.70711,0c0.35356,0.35356 0,0.70711 0,0.70711c-1.09886,1.08511 -1.19646,1.24849 0.08255,2.15189l0.06389,1.24455c0,0 0,0.5 -0.5,0.5z" fill="#000000" stroke-width="0.5"/><path d="M125.08151,190.92042c0.5,0 0.5,0.5 0.5,0.5v0.25c-0.00029,0.94738 0.05348,1.72298 0.24029,2.65194c0,0 0.09806,0.49029 -0.39223,0.58835c-0.49029,0.09806 -0.58835,-0.39223 -0.58835,-0.39223c-0.19683,-0.98921 -0.25941,-1.84025 -0.25971,-2.84806v-0.25c0,0 0,-0.5 0.5,-0.5z" fill="#000000" stroke-width="0.5"/><path d="M134.08149,203.98292c0.125,0.0625 0.25,0.1875 0.25,0.4375c0,0.5 -0.5,0.5 -0.5,0.5l-0.75,-0.5c0,-0.83334 0,-1.66666 0,-2.5c0,0 0,-0.5 0.5,-0.5c0.5,0 0.5,0.5 0.5,0.5c0,0.6875 0,1.375 0,2.0625z" fill="#000000" stroke-width="0.5"/><path d="M116.83151,205.42042c-0.5,0 -0.5,-0.5 -0.5,-0.5c0,-0.33334 0,-1.16666 0,-1.5c0,0 0,-0.5 0.5,-0.5c0.5,0 0.5,0.5 0.5,0.5c0,0.33334 0,0.66666 0,1v0.5c0,0 0,0.5 -0.5,0.5z" fill="#000000" stroke-width="0.5"/><path d="M122.47795,209.52398c-0.35356,-0.35356 0,-0.70711 0,-0.70711l0.46689,-0.46345c0.32265,-0.48738 0.64642,-0.97402 0.97065,-1.46035c0,0 0.27735,-0.41603 0.69337,-0.13868c0.41603,0.27735 0.13868,0.69338 0.13868,0.69338c-0.34244,0.51367 -0.68545,1.02696 -1.02935,1.53965l-0.53312,0.53656c0,0 -0.35356,0.35356 -0.70711,0z" fill="#000000" stroke-width="0.5"/><path d="M163.07609,191.597c0.07342,0.49458 -0.42115,0.568 -0.42115,0.568l-0.20539,0.00542c-0.57996,0.28134 -1.22351,0.49003 -1.86803,0.5c0,0 -0.5,0 -0.5,-0.5c0,-0.5 0.5,-0.5 0.5,-0.5c0.49141,0.01035 0.98457,-0.168 1.42082,-0.39443l0.50575,-0.10016c0,0 0.49458,-0.07342 0.568,0.42116z" fill="#000000" stroke-width="0.5"/><path d="M162.02872,201.64403c-0.2236,0.44721 -0.67082,0.22361 -0.67082,0.22361l-0.66115,-0.37789c-0.32103,-0.96966 -0.60919,-1.79399 -0.61524,-2.81932c0,0 0,-0.5 0.5,-0.5c0.5,0 0.5,0.5 0.5,0.5c-0.00552,0.77747 0.22394,1.42618 0.38475,2.18068l0.33885,0.12211c0,0 0.44721,0.2236 0.22361,0.67082z" fill="#000000" stroke-width="0.5"/><path d="M162.08149,211.42042c0,0.5 -0.5,0.5 -0.5,0.5h-0.75c-0.59744,-0.06464 -1.39838,-0.40773 -1.5,-1c0,0 0,-0.5 0.5,-0.5c0.5,0 0.5,0.5 0.5,0.5c-0.30267,0.30267 -0.21377,0.1617 0.5,0h0.75c0,0 0.5,0 0.5,0.5z" fill="#000000" stroke-width="0.5"/><path d="M165.83149,181.92042c0,0.5 -0.5,0.5 -0.5,0.5l-0.47768,-0.08067c-0.56952,1.84082 -1.72247,2.43109 -3.2356,3.49028c0,0 -0.40961,0.28673 -0.69634,-0.12288c-0.28673,-0.40962 0.12288,-0.69635 0.12288,-0.69635c1.6526,-1.15682 2.32794,-1.73213 3.2644,-3.50971l1.02233,-0.08067c0,0 0.5,0 0.5,0.5z" fill="#000000" stroke-width="0.5"/><path d="M136.08149,208.17042c0,0.5 -0.5,0.5 -0.5,0.5l-0.83009,-0.00646c-0.63391,-0.26593 -1.00292,-0.94099 -1.52346,-1.38999c0,0 -0.35356,-0.35355 0,-0.70711c0.35356,-0.35356 0.70711,0 0.70711,0c0.51182,0.5571 0.42009,1.04602 0.97653,1.11001l0.66991,-0.00645c0,0 0.5,0 0.5,0.5z" fill="#000000" stroke-width="0.5"/></g><text transform="translate(56.32396,180.58579) rotate(-0.30193) scale(0.22203,0.41089) skewX(33.88936)" font-size="40" xml:space="preserve" fill="#000000" stroke-width="1" font-family="&quot;GovtAgentBB&quot;, Serif" font-weight="normal" text-anchor="start"><tspan x="0" dy="0">Interview Room</tspan></text></g><g stroke="none" stroke-linecap="butt"><g><path d="M149.03171,312.60328c1.14946,-0.34168 2.47191,-1.58776 3.48128,-2.24599c5.75517,-3.7596 12.53867,-6.43066 18.67957,-9.52864c3.62668,-2.38946 7.25044,-4.78647 10.87513,-7.17895c1.02094,-0.67387 2.73225,-2.25438 4.09201,-2.00156c0.63926,0.11886 1.86776,1.23764 2.42143,1.6008c5.85323,3.83923 11.70692,7.67685 17.56015,11.51608c0.76743,0.50337 1.65876,1.38079 2.52273,1.67465c1.46174,0.49718 3.66814,-0.05327 5.18408,-0.15361c4.32387,-0.2862 8.6481,-0.57365 12.97197,-0.85985c4.47556,-0.29624 10.45824,-1.31929 14.84847,-0.32932c1.77428,0.40009 3.73534,1.79625 5.39161,2.57108c6.74633,0.78048 14.23863,-1.73995 20.90269,-2.99236c6.92946,-1.30229 13.85663,-2.39532 20.70691,-4.08167c5.71148,-3.72776 12.0681,-7.22316 17.32042,-11.56843c1.76702,1.34654 3.91807,2.17208 5.66925,3.52606c2.04681,1.58255 3.91393,3.79752 5.77146,5.60242c1.43404,1.3934 2.80334,3.4741 4.84403,3.58817c7.10582,0.19118 13.94493,0.13839 21.02508,-0.51865c2.6457,-0.24552 5.28371,-0.54463 7.94101,-0.58877c0.53326,-0.00886 2.31187,-0.34407 2.76052,-0.10823c0.6162,0.32392 1.00335,1.95902 1.56957,2.43811c1.59763,1.35179 4.59571,2.06969 6.51519,2.92667c2.43626,1.08617 5.06531,1.81577 7.59092,2.67356c0.63805,0.21671 2.17589,0.43403 2.67653,0.8684c0.50064,0.43437 0.93383,1.92319 1.23836,2.52429c1.0382,2.04928 2.07429,4.20664 3.13927,6.24214c0.18427,3.47514 -4.57463,6.66111 -7.23365,7.8828l-0.89676,0.41201c-0.1774,0.07681 -0.30072,0.25305 -0.30072,0.45866c0,0.21741 0.09387,0.31305 0.28765,0.38191l0.92449,0.35198l0.01895,-0.04948c5.8471,3.20339 12.06637,2.94094 18.67194,2.95006c6.80667,0.00939 14.37452,0.94022 21.09017,-0.13162c6.88357,-1.10948 14.13108,-1.60923 20.60282,-4.23041c3.70745,-1.50159 7.41519,-3.0026 11.12265,-4.50419c0.95416,-0.38645 3.14404,-0.82494 3.80821,-1.59571c0.82841,-0.96137 0.97972,-3.82129 1.28012,-5.06762c0.89769,-3.7244 3.5896,-7.09587 5.55751,-10.37634c0.43907,-0.73193 1.29435,-2.88252 1.98137,-3.32082c0.88972,-0.56763 3.65905,-0.33277 4.75661,-0.44877c6.43863,-0.68048 13.88837,2.83088 20.10974,4.60149c0.93683,0.26662 4.09616,0.45582 4.68494,0.92945c0.41607,0.3347 0.08493,1.06594 0.09373,1.59985c0.02344,1.42201 -0.65819,6.25723 0.24856,7.31762c0.90851,1.06244 5.78487,1.1348 7.18805,1.3816c2.80542,0.49345 5.25941,-0.46444 7.98839,-1.17647c4.19296,-1.094 8.38597,-2.18785 12.57893,-3.28185c4.113,-1.07314 10.12709,-3.78101 14.42341,-2.68013c1.6323,0.41826 3.57284,2.13186 5.03814,2.99631c2.18055,1.28641 3.57799,0.83936 6.0058,0.45574c4.8603,-0.76797 9.54949,-3.04711 14.17533,-4.72062c1.77844,-0.46162 3.95962,-1.40028 5.78661,-1.51325c4.76902,-0.29487 10.01894,1.25514 14.88897,1.28871c3.33396,0.00246 6.66803,0.00634 10.00199,0.0065c0.85555,0.00004 3.04566,-0.41564 3.77752,-0.0519c1.39418,0.69292 3.02037,4.18229 3.74932,5.53731c0.50067,0.92545 1.62621,2.92683 2.61127,3.40394c2.44743,1.18539 6.69535,-1.15215 8.9824,0.06412c0.51981,0.27644 0.60938,1.0085 0.93857,1.49662c1.11828,1.65814 2.23672,3.31747 3.355,4.97562c3.90368,5.78822 6.84047,12.58819 12.31664,16.97865c1.15222,0.92378 2.66278,2.68391 4.03628,3.20562c1.9092,0.7252 5.09294,0.28055 7.14362,0.38347c0.57739,0.02898 1.24641,-0.35202 1.73385,-0.0412c0.44198,0.28183 0.14574,1.03987 0.17284,1.56336c0.08596,1.66023 0.111,3.30967 0.11505,4.97214c0.0071,2.9134 -0.41587,6.20158 0.02776,9.07681c0.60877,3.94556 2.9757,7.41685 2.99377,11.47047c0.01783,3.99914 0.00442,8.00091 0.00442,12.00009c0,0.66557 0.41284,3.23562 0.08538,3.72113c-0.43864,0.65035 -3.59249,1.35991 -4.40869,1.68973c-6.6708,2.69559 -12.85899,4.64958 -19.91394,6.06916c-6.86225,1.38081 -13.72357,2.7702 -20.5874,4.14314c-6.86403,1.37298 -13.72861,2.74811 -20.59264,4.12109c-6.79881,1.35994 -13.65082,3.23735 -20.58588,3.44976c-6.99672,0.21429 -13.99422,0.43076 -20.99094,0.64506c-6.99672,0.21429 -13.99458,0.43132 -20.9913,0.64561c-6.99436,0.21422 -13.99498,0.30772 -20.9913,0.44294c-6.99869,0.13527 -14.00011,0.27493 -20.9988,0.4102c-6.99869,0.13527 -14.00193,0.27616 -21.00062,0.41143c-6.99417,0.13518 -13.9994,0.3528 -20.9949,0.35571c-7,0.00291 -14.01245,0.01222 -21.01244,0.01513c-7.07455,0.00294 -13.97579,0.28433 -21.01951,0.94897c-6.96137,0.65688 -13.93904,1.30765 -20.90005,1.96834c-6.99229,0.00742 -13.99647,0.01589 -20.98875,0.02714c-6.99999,0.01126 -14.00745,0.01618 -21.00744,0.02744c-6.99974,0.01126 -14.00394,0.01716 -21.00369,0.01729c-7,0.00013 -14.00277,-0.00398 -21.00277,-0.00385c-6.93974,0.00013 -14.01589,0.46167 -20.87507,-0.62033c-6.9145,-1.09072 -13.83051,-2.18491 -20.74502,-3.27563c-6.9145,-1.09072 -13.83001,-2.18428 -20.74452,-3.275c-6.91667,-1.09106 -13.834,-2.18472 -20.75072,-3.27548c-6.94303,-0.90835 -13.8866,-1.81796 -20.82967,-2.72601c-4.46525,-0.58399 -9.47564,-0.62913 -13.81628,-1.80344c-2.15851,-0.58396 -4.32439,-1.82571 -6.38861,-2.6945c-6.3371,-2.66719 -13.45275,-4.31046 -18.90175,-8.52598c-1.10273,-0.85311 -3.99466,-2.30586 -4.60637,-3.50405c-0.70683,-1.38451 0.32255,-4.18598 0.66234,-5.56558c0.75188,-3.05281 0.74675,-5.89603 0.76312,-9.03159c0.03656,-7.00085 0.0326,-14.00575 0.03264,-21.00669c0.00004,-6.63638 -1.10736,-14.37979 0.87149,-20.71883c1.34966,-4.3235 8.16776,-4.75772 10.66397,-8.60689c0.00885,0.00002 0.01771,0.00003 0.02656,0.00003c3.66971,0 6.87773,-1.97669 8.61742,-4.92341c0.12958,-0.02978 0.2577,-0.06333 0.38422,-0.10094z" fill="url(#color-5)" stroke-width="0.5"/><path d="M145.0227,339.48033c1.14946,-0.34168 2.47191,-1.58776 3.48128,-2.24599c5.75518,-3.75961 12.53867,-6.43066 18.67958,-9.52864c3.62668,-2.38946 7.25044,-4.78647 10.87513,-7.17894c1.02094,-0.67387 2.73225,-2.25438 4.09202,-2.00155c0.63925,0.11886 1.86775,1.23763 2.42142,1.6008c5.85324,3.83922 11.70691,7.67686 17.56015,11.51609c0.76743,0.50336 1.65876,1.38079 2.52273,1.67465c1.46174,0.49719 3.66814,-0.05327 5.18408,-0.15362c4.32387,-0.2862 8.6481,-0.57365 12.97197,-0.85985c4.47556,-0.29624 10.45824,-1.31929 14.84847,-0.32932c1.77428,0.40009 3.73533,1.79625 5.3916,2.57108c6.74633,0.78048 14.23863,-1.73995 20.90269,-2.99236c6.92946,-1.30228 13.85663,-2.39532 20.70691,-4.08166c5.71148,-3.72776 12.06811,-7.22316 17.32042,-11.56844c1.76702,1.34654 3.91807,2.17208 5.66925,3.52606c2.04681,1.58255 3.91393,3.79753 5.77146,5.60242c1.43403,1.3934 2.80334,3.47409 4.84402,3.58817c7.10582,0.19118 13.94493,0.13838 21.02508,-0.51866c2.6457,-0.24552 5.28371,-0.54463 7.94101,-0.58877c0.53325,-0.00886 2.31187,-0.34407 2.76052,-0.10823c0.6162,0.32392 1.00335,1.95902 1.56957,2.43811c1.59763,1.35179 4.59571,2.06969 6.5152,2.92667c2.43626,1.08616 5.06531,1.81576 7.59091,2.67356c0.63805,0.2167 2.17589,0.43403 2.67652,0.8684c0.50063,0.43437 0.93383,1.92318 1.23836,2.52429c1.0382,2.04928 2.0743,4.20664 3.13927,6.24214c0.18427,3.47514 -4.57463,6.66111 -7.23365,7.8828l-0.89675,0.41201c-0.17739,0.07681 -0.30072,0.25304 -0.30072,0.45866c0,0.21741 0.09387,0.31306 0.28766,0.38191l0.92449,0.35198l0.01895,-0.04948c5.8471,3.20339 12.06638,2.94094 18.67194,2.95006c6.80667,0.00939 14.37452,0.94022 21.09017,-0.13162c6.88356,-1.10948 14.13108,-1.60923 20.60282,-4.23041c3.70745,-1.50159 7.41519,-3.0026 11.12265,-4.50419c0.95416,-0.38645 3.14404,-0.82494 3.80821,-1.59571c0.82841,-0.96137 0.97972,-3.82128 1.28013,-5.06762c0.89769,-3.7244 3.5896,-7.09587 5.55751,-10.37635c0.43908,-0.73193 1.29435,-2.88252 1.98136,-3.32082c0.88972,-0.56763 3.65906,-0.33278 4.75661,-0.44877c6.43863,-0.68048 13.88837,2.83088 20.10974,4.60149c0.93683,0.26662 4.09616,0.45582 4.68495,0.92945c0.41607,0.3347 0.08493,1.06594 0.09373,1.59985c0.02344,1.42201 -0.65819,6.25723 0.24856,7.31762c0.90851,1.06245 5.78486,1.13479 7.18804,1.3816c2.80543,0.49345 5.25942,-0.46445 7.9884,-1.17647c4.19297,-1.094 8.38597,-2.18785 12.57894,-3.28185c4.113,-1.07313 10.12709,-3.78102 14.42342,-2.68013c1.63229,0.41825 3.57284,2.13186 5.03814,2.99631c2.18056,1.28641 3.57799,0.83936 6.0058,0.45574c4.86029,-0.76797 9.54949,-3.04711 14.17534,-4.72062c1.77844,-0.46163 3.95962,-1.40029 5.78661,-1.51325c4.76902,-0.29487 10.01893,1.25514 14.88897,1.28871c3.33396,0.00246 6.66803,0.00634 10.002,0.00649c0.85555,0.00004 3.04566,-0.41564 3.77752,-0.0519c1.39418,0.69292 3.02037,4.18229 3.74932,5.53731c0.50067,0.92545 1.62622,2.92684 2.61127,3.40394c2.44743,1.18539 6.69535,-1.15216 8.98239,0.06411c0.51981,0.27644 0.60938,1.00851 0.93857,1.49662c1.11828,1.65814 2.23672,3.31748 3.355,4.97562c3.90368,5.78822 6.84047,12.5882 12.31664,16.97865c1.15223,0.92378 2.66278,2.68391 4.03627,3.20562c1.9092,0.72519 5.09295,0.28055 7.14363,0.38347c0.57739,0.02898 1.2464,-0.35203 1.73385,-0.0412c0.44198,0.28184 0.14574,1.03987 0.17284,1.56336c0.08596,1.66023 0.111,3.30966 0.11505,4.97215c0.0071,2.91341 -0.41587,6.20157 0.02775,9.07681c0.60877,3.94556 2.97571,7.41686 2.99378,11.47047c0.01783,3.99914 0.00441,8.00091 0.00441,12.00009c0,0.66557 0.41284,3.23561 0.08538,3.72112c-0.43864,0.65035 -3.59249,1.35992 -4.40869,1.68973c-6.6708,2.69559 -12.85899,4.64958 -19.91394,6.06916c-6.86226,1.38081 -13.72357,2.7702 -20.5874,4.14314c-6.86403,1.37298 -13.72861,2.74811 -20.59264,4.12109c-6.79881,1.35994 -13.65081,3.23735 -20.58588,3.44976c-6.99672,0.21429 -13.99422,0.43077 -20.99094,0.64506c-6.99672,0.21429 -13.99458,0.43131 -20.9913,0.64561c-6.99435,0.21422 -13.99498,0.30772 -20.9913,0.44294c-6.99869,0.13527 -14.00011,0.27493 -20.99881,0.41019c-6.99869,0.13527 -14.00193,0.27616 -21.00062,0.41143c-6.99417,0.13518 -13.9994,0.3528 -20.9949,0.35571c-7,0.00291 -14.01245,0.01222 -21.01245,0.01513c-7.07455,0.00295 -13.97579,0.28433 -21.01951,0.94898c-6.96137,0.65688 -13.93905,1.30765 -20.90006,1.96833c-6.99229,0.00742 -13.99647,0.0159 -20.98875,0.02714c-6.99999,0.01126 -14.00745,0.01617 -21.00744,0.02743c-6.99973,0.01126 -14.00394,0.01716 -21.00369,0.01729c-7,0.00013 -14.00277,-0.00399 -21.00277,-0.00385c-6.93974,0.00013 -14.01589,0.46167 -20.87507,-0.62032c-6.9145,-1.09072 -13.83051,-2.18492 -20.74501,-3.27564c-6.9145,-1.09072 -13.83002,-2.18428 -20.74452,-3.275c-6.91667,-1.09107 -13.834,-2.18472 -20.75072,-3.27549c-6.94304,-0.90835 -13.88659,-1.81796 -20.82967,-2.72601c-4.46526,-0.58399 -9.47565,-0.62913 -13.81628,-1.80343c-2.1585,-0.58396 -4.32439,-1.8257 -6.38861,-2.6945c-6.3371,-2.66719 -13.45275,-4.31046 -18.90176,-8.52598c-1.10273,-0.85311 -3.99466,-2.30586 -4.60636,-3.50405c-0.70683,-1.38451 0.32255,-4.18598 0.66234,-5.56558c0.75188,-3.05281 0.74674,-5.89603 0.76312,-9.03159c0.03655,-7.00086 0.0326,-14.00575 0.03264,-21.00669c0.00003,-6.63639 -1.10736,-14.37978 0.87149,-20.71882c1.34966,-4.3235 8.16776,-4.75772 10.66396,-8.60689c0.00885,0.00002 0.01771,0.00004 0.02657,0.00004c3.66971,0 6.87774,-1.97669 8.61742,-4.92341c0.12958,-0.02979 0.25769,-0.06333 0.38422,-0.10094z" fill="#000000" stroke-width="0.5"/><g stroke-width="0"><path d="M214.64456,337.96085c-7.39098,8.93793 -18.18001,0.01623 -10.78903,-8.9217c7.39098,-8.93793 12.02186,-17.30874 18.77707,-11.7227c6.75521,5.58604 -4.1132,15.95856 -7.98803,20.6444z" fill="#6b6b6b"/><path d="M203.85553,329.03915c1.86832,-2.25936 3.56026,-4.48248 5.15474,-6.45308c4.7132,-5.82501 16.20215,0.06269 14.77742,3.21174c-0.76766,1.69674 -4.18975,8.54981 -8.4621,10.07905c-7.30479,2.61467 -16.13352,-1.19817 -11.47005,-6.83771z" fill="#505050"/><path d="M214.64456,337.96085c-7.39098,8.93793 -18.18001,0.01623 -10.78903,-8.9217c7.39098,-8.93793 20.00037,-2.23423 16.16951,2.61926c-1.95849,2.48129 -4.06966,4.71726 -5.38048,6.30244z" fill="#383838"/></g><g stroke-width="0"><path d="M344.23592,335.12334c-0.64328,11.58013 -14.62173,10.80362 -13.97845,-0.77651c0.64328,-11.58013 -0.59817,-21.0656 8.15399,-20.57942c8.75216,0.48619 6.16171,15.28488 5.82446,21.35593z" fill="#6b6b6b"/><path d="M330.25747,334.34683c0.16261,-2.92726 0.20479,-5.72068 0.3184,-8.25302c0.33583,-7.48547 13.07677,-9.56616 13.79923,-6.18616c0.38926,1.82118 1.70272,9.36771 -0.82802,13.13426c-4.32702,6.43998 -13.69549,8.61159 -13.2896,1.30491z" fill="#505050"/><path d="M344.23592,335.12334c-0.64328,11.58013 -14.62173,10.80362 -13.97845,-0.77651c0.64328,-11.58013 14.77029,-13.66914 14.56793,-7.48925c-0.10345,3.1594 -0.4754,6.21198 -0.58949,8.26576z" fill="#383838"/></g><g stroke-width="0"><path d="M468.40048,314.52876c8.316,2.77143 3.66828,11.1329 0.00135,22.13594c-3.66693,11.00304 -16.94877,6.57666 -13.28183,-4.42637c1.92244,-5.7685 4.96448,-20.481 13.28048,-17.70956z" fill="#6b6b6b"/><path d="M456.52701,330.55692c-0.96561,-4.43386 3.03492,-10.96617 4.06756,-12.51596c1.91654,-2.87633 12.99554,3.75063 10.55085,10.8336c-0.82704,2.39617 -1.81665,5.00876 -2.74359,7.79014c-2.31371,6.94255 -10.22383,1.47316 -11.87482,-6.10778z" fill="#505050"/><path d="M457.61624,324.33649c2.08794,-5.82 14.45252,1.32517 10.78558,12.32821c-3.66693,11.00304 -16.94877,6.57666 -13.28183,-4.42637c0.65035,-1.95143 1.42881,-4.92643 2.49625,-7.90184z" fill="#383838"/></g></g><path d="M149.72704,300.61552c1.15449,-0.24121 2.49588,-1.17806 3.5152,-1.66675c5.81196,-2.79145 12.63527,-4.72097 18.82269,-6.9933c3.66278,-1.77476 7.32276,-3.55541 10.98359,-5.33255c1.03112,-0.50055 2.76644,-1.68817 4.12204,-1.46564c0.63729,0.10462 1.84831,0.99391 2.39628,1.28567c5.79291,3.08436 11.5863,6.16749 17.37922,9.25185c0.75951,0.40439 1.63716,1.1004 2.49642,1.34477c1.45379,0.41345 3.66822,0.03193 5.18541,-0.01542c4.32742,-0.13505 8.65522,-0.27108 12.98264,-0.40613c4.47923,-0.13979 10.47649,-0.81136 14.8506,0.04138c1.76777,0.34463 3.70691,1.46294 5.35091,2.09488c6.73296,0.73777 14.26261,-1.06119 20.94465,-1.89649c6.94815,-0.86856 13.89079,-1.5754 20.76569,-2.74241c5.76779,-2.76771 12.17701,-5.34296 17.49524,-8.59715c1.74592,1.07608 3.88381,1.75709 5.61379,2.83861c2.02202,1.26409 3.85464,3.01347 5.68399,4.44567c1.41228,1.10568 2.74924,2.74132 4.78777,2.87017c7.10147,0.2894 13.94003,0.38489 21.0289,0.01811c2.64896,-0.13706 5.29105,-0.31569 7.9485,-0.29685c0.53328,0.00378 2.31672,-0.2199 2.76164,-0.02864c0.61109,0.26267 0.97296,1.53431 1.53169,1.91593c1.57648,1.07677 4.56291,1.69145 6.4688,2.39215c2.41904,0.88815 5.03632,1.50452 7.54821,2.21793c0.63459,0.18023 2.16878,0.37887 2.66262,0.72461c0.49384,0.34574 0.90401,1.50522 1.19921,1.97594c1.00642,1.60478 2.00907,3.29306 3.04247,4.88771c0.13069,2.68993 -4.67636,5.05783 -7.35369,5.9492l-0.90292,0.30061c-0.17854,0.05584 -0.30455,0.18961 -0.30772,0.34855c-0.00335,0.16805 0.08902,0.24386 0.28171,0.30095l0.91888,0.2905l0.0197,-0.03787c5.79658,2.59273 12.01866,2.51382 18.62277,2.65251c6.80518,0.14292 14.35718,1.01326 21.08801,0.31858c6.89929,-0.72043 14.15308,-0.96229 20.66392,-2.85947c3.72985,-1.08683 7.45999,-2.17321 11.18984,-3.26004c0.95992,-0.27971 3.15613,-0.57502 3.83204,-1.15758c0.84306,-0.72663 1.03841,-2.93431 1.35796,-3.89173c0.9549,-2.86105 3.69823,-5.41353 5.71629,-7.9101c0.45027,-0.55703 1.33852,-2.20238 2.03215,-2.52749c0.8983,-0.42104 3.66345,-0.1843 4.76258,-0.25209c6.44784,-0.39769 13.84199,2.46505 20.03484,3.95771c0.93253,0.22476 4.08832,0.43399 4.66969,0.81183c0.41084,0.26702 0.06849,0.82565 0.06906,1.23854c0.00153,1.09968 -0.75448,4.82368 0.13575,5.66143c0.89196,0.83937 5.76623,0.99249 7.16533,1.21123c2.79726,0.43734 5.26552,-0.2542 8.00493,-0.7502c4.20899,-0.76209 8.41802,-1.52407 12.62701,-2.28616c4.12872,-0.74755 10.18334,-2.72087 14.46185,-1.78427c1.62553,0.35584 3.53928,1.71912 4.99097,2.41654c2.1603,1.03785 3.56435,0.72013 5.99758,0.47199c4.87117,-0.49678 9.59455,-2.16508 14.24526,-3.36651c1.7852,-0.32139 3.98041,-1.00349 5.80878,-1.0544c4.77261,-0.13288 9.9976,1.16989 14.86616,1.2929c3.33326,0.06835 6.66661,0.13779 9.99991,0.20436c0.85538,0.01708 3.05146,-0.26059 3.77758,0.03517c1.38323,0.56341 2.95532,3.29309 3.66325,4.35503c0.48631,0.72535 1.58079,2.29483 2.55831,2.68327c2.42868,0.96508 6.71177,-0.75717 8.97962,0.22858c0.51544,0.22404 0.59372,0.79172 0.91533,1.17559c1.09251,1.30403 2.18516,2.60896 3.27767,3.91299c3.81372,4.55206 6.64515,9.86693 12.05257,13.36987c1.13776,0.73704 2.6209,2.12772 3.98608,2.55838c1.89765,0.59863 5.08761,0.31836 7.1363,0.43878c0.57682,0.03391 1.25158,-0.24727 1.73414,0.00271c0.43755,0.22667 0.12968,0.80672 0.14872,1.21192c0.06035,1.28506 0.05998,2.56056 0.03841,3.84573c-0.03779,2.25219 8.48865,5.78549 8.88788,8.01688c0.54786,3.06203 4.86083,5.79249 4.81644,8.92628c-0.0438,3.09166 -0.11886,5.18475 -0.18049,8.27609c-0.01026,0.51449 -3.6371,6.50934 -3.97198,6.87811c-0.44858,0.49397 -10.61274,-3.02039 -11.43385,-2.78171c-6.71101,1.95072 -12.92807,3.33782 -20.0035,4.29454c-6.88217,0.9306 -13.76354,1.86784 -20.64716,2.79232c-6.88383,0.92451 -13.76823,1.85066 -20.65205,2.77517c-6.81842,0.91572 -13.69799,2.23039 -20.63495,2.25636c-6.99863,0.02621 -13.99808,0.05407 -20.99671,0.08028c-6.99863,0.02621 -13.99844,0.05449 -20.99707,0.0807c-6.99626,0.02619 -13.99694,-0.04106 -20.99396,-0.07597c-6.99939,-0.03492 -14.00156,-0.0665 -21.00095,-0.10142c-6.99939,-0.03492 -14.0034,-0.06558 -21.00279,-0.10051c-6.99486,-0.0349 -14.00206,-0.0063 -20.99621,-0.14347c-6.99865,-0.13725 -14.00985,-0.26983 -21.00851,-0.40708c-7.07319,-0.13872 -13.9774,-0.05875 -21.02996,0.31464c-6.97011,0.36902 -13.95642,0.733 -20.92623,1.10497c-6.99102,-0.13362 -13.99393,-0.26666 -20.985,-0.39733c-6.99878,-0.13081 -14.00491,-0.26666 -21.00369,-0.39747c-6.99852,-0.1308 -14.00143,-0.26583 -20.99978,-0.40524c-6.99861,-0.13941 -13.99993,-0.28215 -20.99854,-0.42156c-6.93836,-0.13822 -14.02022,0.07752 -20.86137,-0.89555c-6.89632,-0.98093 -13.7941,-1.96456 -20.69042,-2.94549c-6.89632,-0.98093 -13.79361,-1.96407 -20.68993,-2.945c-6.89849,-0.98124 -13.79759,-1.96448 -20.69613,-2.94549c-6.92766,-0.84053 -13.85582,-1.68204 -20.78353,-2.52233c-4.45537,-0.54041 -9.46407,-0.67516 -13.78574,-1.6694c-2.14908,-0.49442 -4.2954,-1.49745 -6.34582,-2.21017c-6.29475,-2.18802 -20.38367,8.39993 -25.76663,5.03276c-1.08937,-0.68142 -9.95834,-2.86203 -10.55146,-3.80042c-0.68535,-1.0843 -5.61301,-11.22932 -5.25203,-12.28897c0.79878,-2.34482 13.83745,-7.54271 13.90214,-9.96616c0.14442,-5.41089 -2.7516,-8.82572 -2.64368,-14.23741c0.10229,-5.12989 8.11443,-13.13756 10.19056,-17.99817c1.41601,-3.31514 8.23945,-3.51491 10.79447,-6.44055c0.00885,0.0002 0.0177,0.00038 0.02656,0.00056c3.66898,0.07313 6.90682,-1.3909 8.69157,-3.63403c0.13001,-0.02044 0.25862,-0.04382 0.3857,-0.07037z" fill="url(#color-6)" stroke-width="0.5"/></g><g stroke-width="0" stroke-linecap="butt"><path d="M745.38288,377.56757v-394.89489h28.52853v394.89489z" fill="#000000" stroke="none"/><g><g fill="url(#color-7)" stroke="#000000"><path d="M-2.07132,363.81382v-372.37237h725.22523v372.37237z"/></g><g stroke="none"><path d="M581.17557,376.06607v-390.39039h164.3114v390.39039z" fill="url(#color-8)"/><path d="M-26.79203,372.82282v-390.39039h164.3114v390.39039z" fill="url(#color-9)"/><path d="M-26.28582,110.30032v-127.62763h773.13267v127.62762z" fill="url(#color-10)"/><path d="M747.87463,249.56562v127.62762h-773.13267v-127.62762z" fill="url(#color-11)"/></g><path d="M-53.91141,377.34605v-394.89489h28.52853v394.89489z" fill="#000000" stroke="none"/></g></g><g stroke-linecap="butt"><g><path d="M320.62876,122.22731v-18.4553h78.74259v18.4553z" fill="#000000" stroke="#171717" stroke-width="5"/><text transform="translate(325.01817,115.54893) scale(0.21244,0.21244)" font-size="40" xml:space="preserve" fill="#ff7a00" stroke="none" stroke-width="1" font-family="&quot;Agency FB&quot;, Sans Serif" font-weight="normal" text-anchor="start"><tspan x="0" dy="0">VV Behavior Simulation VV</tspan></text></g><path d="M312.32388,112.99966c0,-26.33083 21.34535,-47.67618 47.67618,-47.67618c26.33083,0 47.67618,21.34535 47.67618,47.67618c0,26.33083 -21.34535,47.67618 -47.67618,47.67618c-26.33083,0 -47.67618,-21.34535 -47.67618,-47.67618z" fill="url(#color-12)" stroke="#171717" stroke-width="0"/></g></g></g></svg>