<svg version="1.1" xmlns="http://www.w3.org/2000/svg" xmlns:xlink="http://www.w3.org/1999/xlink" width="329.29274" height="216.1885" viewBox="0,0,329.29274,216.1885"><g transform="translate(-197.83768,-59.4374)"><g stroke-miterlimit="10"><g fill-opacity="0.51765" fill="#5ce57d" stroke="#000000" stroke-width="0"><g><g><path d="M263,141.1874v-78h32v78z"/><path d="M295,63.1874c0,2.07107 -7.16345,3.75 -16,3.75c-8.83655,0 -16,-1.67893 -16,-3.75c0,-2.07107 7.16345,-3.75 16,-3.75c8.83655,0 16,1.67893 16,3.75z"/></g><path d="M300.5,141.1874v-78h12.75v78z"/><path d="M313.27308,63.23548c0,1.03554 -2.85418,1.875 -6.375,1.875c-3.52082,0 -6.375,-0.83946 -6.375,-1.875c0,-1.03554 2.85418,-1.875 6.375,-1.875c3.52082,0 6.375,0.83946 6.375,1.875z"/></g><g><g><path d="M338.02308,141.1874v-78h32v78z"/><path d="M354.02308,59.4374c8.83655,0 16,1.67893 16,3.75c0,2.07107 -7.16345,3.75 -16,3.75c-8.83655,0 -16,-1.67893 -16,-3.75c0,-2.07107 7.16345,-3.75 16,-3.75z"/></g><path d="M319.77308,141.1874v-78h12.75v78z"/><path d="M326.125,61.36048c3.52082,0 6.375,0.83946 6.375,1.875c0,1.03554 -2.85418,1.875 -6.375,1.875c-3.52082,0 -6.375,-0.83946 -6.375,-1.875c0,-1.03554 2.85418,-1.875 6.375,-1.875z"/></g></g><path d="M494.11735,207.20267c-0.411,-2.46598 2.05498,-2.87698 2.05498,-2.87698l2.80837,-0.4603c3.15684,-1.04632 5.83297,-2.7448 9.04668,-3.33976c1.06146,-0.89726 2.15123,-1.76659 3.21851,-2.65841c-0.38271,-1.09825 -0.76684,-2.23075 -1.08811,-3.46997c-1.32793,-5.12204 0.03713,-10.96454 -1.24815,-15.99266c-0.63078,-2.46764 -2.23255,-4.63036 -2.77691,-7.11849c-0.25543,-1.16751 -0.10947,-2.40342 -0.11944,-3.60746c-0.28964,-0.05999 -0.5834,-0.11929 -0.88184,-0.17815c-5.2056,-1.02647 -10.50123,-0.93345 -15.47658,-2.88762c0,0 -2.32119,-0.92848 -1.39272,-3.24967c0.92847,-2.32119 3.24967,-1.39272 3.24967,-1.39272c3.89467,1.59343 8.06348,2.21698 12.2646,2.76534c-0.41681,-0.97983 -0.71294,-2.02853 -1.37219,-2.85401c-1.81707,-2.27522 -5.13778,-3.0573 -6.86529,-5.40124c-1.71247,-2.32352 -1.65654,-5.70654 -3.51839,-7.91217c-0.97449,-1.15442 -2.35099,-1.89794 -3.52648,-2.84691c0,0 -1.92982,-1.58926 -0.34055,-3.51909c1.58927,-1.92982 3.51909,-0.34056 3.51909,-0.34056c2.79152,2.33702 5.43651,5.11417 6.95004,8.42529c0.48012,1.05034 0.32885,2.37945 1.00509,3.31564c1.63322,2.26102 4.87261,2.93667 6.63472,5.09876c1.02099,1.25275 1.41233,2.91031 2.21876,4.31083c0.53422,0.92776 1.40792,1.67589 1.84141,2.64377c1.30865,0.22352 2.60809,0.48547 3.89086,0.81352c-0.18353,-2.47457 -0.55754,-4.90274 -1.40084,-7.13206c-1.4293,-3.77848 -5.97457,-4.6311 -8.75002,-6.56162c-0.8692,-0.60458 -1.33219,-1.64626 -1.97928,-2.4843c-3.11147,-4.02962 -3.78559,-10.94929 -9.38014,-11.52907c0,0 -2.47093,-0.38014 -2.09078,-2.85107c0.38015,-2.47093 2.85107,-2.09079 2.85107,-2.09079c1.3333,0.24697 2.79863,0.11191 3.9999,0.7409c4.51887,2.36613 5.8307,8.85033 8.61996,12.73002c0.35557,0.49457 0.50523,1.19121 1.02071,1.51571c1.08033,0.68008 2.51624,0.66153 3.57374,1.37659c1.03252,0.69817 5.96156,5.33169 6.67624,7.06179c1.39235,3.37062 1.7572,7.18002 1.91673,10.96908c1.07024,0.48538 2.12007,1.04961 3.14449,1.71117c6.4662,4.17585 5.13888,11.3543 2.73501,17.47241c-1.02568,2.61049 -1.83747,5.34444 -3.16951,7.80557c0.32773,1.96965 0.74864,3.92102 0.84948,5.96315c0.21078,4.26844 0.00311,8.60137 0.00311,12.87454c0,0.1608 0.04676,6.58946 -0.12255,7.02311c-1.35513,3.4709 -4.16731,5.02455 -7.10533,6.95999c-4.555,3.00063 -10.60258,5.15994 -15.83532,6.67071l-1.6868,0.09619c0,0 -2.5,0 -2.5,-2.5c0,-2.5 2.5,-2.5 2.5,-2.5l0.3132,0.09619c4.78507,-1.35089 10.32345,-3.34749 14.495,-6.06245c0.89737,-0.58404 4.43908,-2.57848 5.06434,-4.30685c0.62121,-1.71717 -0.12254,-3.6508 -0.12254,-5.47689c0,-1.46232 0.0236,-2.93092 0.04625,-4.40124c-1.73565,8.93824 -13.89166,10.38369 -21.0543,14.32094l-2.45571,1.47404c0,0 -2.14373,1.28624 -3.42998,-0.8575c-1.28624,-2.14373 0.8575,-3.42997 0.8575,-3.42997l2.54429,-1.52596c4.14493,-2.24617 8.65893,-4.02357 13.01011,-5.87944c3.11458,-1.32843 5.92186,-2.14607 5.7321,-5.91425c-0.02484,-1.00102 -0.13498,-1.92624 -0.30286,-2.80675c-0.87653,0.68521 -1.76209,1.3593 -2.64146,2.03618c-3.50227,0.74645 -6.48684,2.49936 -9.95331,3.66023l-3.19164,0.53971c0,0 -2.46598,0.411 -2.87698,-2.05499zM522.13188,175.53196c-0.2569,-1.82115 -1.32963,-2.75715 -2.66096,-3.43872c0.02721,0.58193 0.0602,1.1572 0.10231,1.72392c0.23572,3.17255 0.56817,6.3439 1.02486,9.50273c1.37329,-3.35371 2.05224,-4.1127 1.53379,-7.78793zM511.03396,170.29724c0.51997,2.41148 2.13508,4.48571 2.72308,6.88151c1.24998,5.093 -0.10578,10.88268 1.25185,16.00734c0.07637,0.28827 0.17824,0.56736 0.29538,0.841c0.52495,-0.59844 1.02004,-1.22657 1.47571,-1.8939c-0.11119,-0.8527 -0.18446,-1.71469 -0.18446,-2.59518c-1.02698,-5.04224 -1.62514,-10.16845 -2.00207,-15.27183c-0.10105,-1.36813 -0.13926,-2.79058 -0.17132,-4.23637c-1.20637,-0.44171 -2.37786,-0.82462 -3.56717,-1.16823c0.02934,0.49827 0.08118,0.98193 0.17901,1.43565zM517.90487,201.64605c-0.01288,-0.74463 -0.03462,-1.48811 -0.06844,-2.22985c-0.01115,-0.24461 -0.02722,-0.48789 -0.04745,-0.73005c-0.14279,0.14363 -0.28692,0.28595 -0.43225,0.42706c0.30038,1.05329 0.45881,1.79979 0.54814,2.53285z" fill-opacity="0.51765" fill="#5ce57d" stroke="none" stroke-width="0.5"/><path d="M431.33334,131.30427c-2.5,0 -2.5,-2.5 -2.5,-2.5l0.07464,-0.727c-0.74275,-2.971 -0.60292,-6.0423 -3.48166,-7.43573c0,0 -2.1706,-1.24034 -0.93026,-3.41095c1.24034,-2.17061 3.41096,-0.93026 3.41096,-0.93026c0.98627,0.61333 2.18885,0.97047 2.9588,1.83999c1.86903,2.1107 2.2348,6.09199 2.89288,8.72428l0.07464,1.93967c0,0 0,2.5 -2.5,2.5z" fill-opacity="0.51765" fill="#5ce57d" stroke="none" stroke-width="0.5"/><path d="M262.2307,200.50744c-3.86941,39.75682 -21.24884,71.35871 -38.81804,70.58481c-17.56921,-0.7739 -28.67509,-33.63054 -24.80568,-73.38736c3.86941,-39.75682 21.24884,-71.35871 38.81805,-70.58481c17.56921,0.7739 28.67509,33.63054 24.80568,73.38736z" fill-opacity="0.51765" fill="#5ce57d" stroke="#000000" stroke-width="0"/><path d="M232,267.6259c0,0 -9.76515,-1.64488 -10.84924,-15.68183c-2.63397,-34.10482 1.84924,-102.13679 1.84924,-112.75666c0,-13.06659 9,-15.5615 9,-15.5615h260c0,0 7,6.82686 7,16.5615c0,17.77384 3.66821,83.60341 1.97021,112.9404c-0.58063,10.0318 -8.97021,14.4981 -8.97021,14.4981z" fill-opacity="0.51765" fill="#5ce57d" stroke="#000000" stroke-width="0"/><path d="M431.76777,122.93444c-1.76776,1.76776 -3.53553,0 -3.53553,0l-2.32289,-2.37962c-1.49109,-0.68754 -3.12969,-1.26869 -4.77109,-1.22531c-3.1042,0.01305 -2.68725,0.95661 -2.63825,3.83715c0.07511,4.41608 0.38252,9.11979 -0.00728,13.52396c-0.70925,8.01359 -4.55122,15.40701 -6.03017,23.24047c-0.95193,5.04206 -0.69619,10.26832 -0.96638,15.37382c-0.19485,3.68183 -1.37441,7.04806 -1.67147,10.73602c0,0 -0.20762,2.49137 -2.69898,2.28376c-2.49136,-0.20762 -2.28375,-2.69898 -2.28375,-2.69898c0.31115,-3.62559 1.49393,-6.9966 1.66186,-10.59731c0.24711,-5.29855 0.04571,-10.7288 1.03362,-15.95951c1.44447,-7.64804 5.30457,-14.94851 5.96983,-22.75953c0.3678,-4.31842 -0.0682,-8.80971 -0.00728,-13.14271c0.05187,-3.68876 -0.55284,-5.69042 3.26002,-8.17081c1.16076,-0.75512 2.73448,-0.43913 4.10173,-0.65869c2.7237,0.04317 5.41198,0.98901 7.89557,2.10802l3.01045,2.95372c0,0 1.76776,1.76777 0,3.53553z" fill-opacity="0.51765" fill="#5ce57d" stroke="none" stroke-width="0.5"/><path d="M225.16783,275.6259c0,0 -10.28285,-1.10374 -11.42442,-10.52272c-2.77361,-22.88478 1.94727,-68.53514 1.94727,-75.66121c0,-8.76785 9.47715,-10.44197 9.47715,-10.44197h273.78414c0,0 7.37111,4.58092 7.37111,11.11299c0,11.92648 3.86268,56.09899 2.07467,75.78449c-0.61142,6.73147 -9.44578,9.72842 -9.44578,9.72842z" fill-opacity="0.51765" fill="#5ce57d" stroke="#000000" stroke-width="0"/><path d="M248,210.5v-56h96v56z" fill-opacity="0.51765" fill="#5ce57d" stroke="#000000" stroke-width="0"/><text transform="translate(251.79359,191.83698) scale(1.02596,1.02596)" font-size="40" xml:space="preserve" fill-opacity="0.51765" fill="#13301a" stroke="none" stroke-width="1" font-family="&quot;VCR OSD Mono&quot;, Pixel" font-weight="normal" text-anchor="start"><tspan x="0" dy="0">ACTIVATED</tspan></text><g fill-opacity="0.51765" fill="#5ce57d" stroke-width="0"><g><path d="M456.4263,115.50554c0.76612,-3.53253 4.36471,-5.69128 8.03767,-4.82169c3.67296,0.86959 6.02944,4.43821 5.26333,7.97075c-0.76612,3.53253 -4.36471,5.69128 -8.03767,4.8217c-3.67296,-0.86959 -6.02944,-4.43822 -5.26332,-7.97075z" stroke="#424242"/><path d="M465.63965,119.36775l0.69349,-3.19763l16.90335,4.00193l-0.69348,3.19763z" stroke="#424242"/><path d="M477.60783,119.93081l1.04019,-4.79629l2.53458,-0.49248l2.14521,2.27725l-3.30446,0.26281l1.75285,2.55898l-1.81297,0.74737z" stroke="none"/></g></g></g></g></svg>