<svg version="1.1" xmlns="http://www.w3.org/2000/svg" xmlns:xlink="http://www.w3.org/1999/xlink" width="758.25826" height="394.76081" viewBox="0,0,758.25826,394.76081"><defs><radialGradient cx="360" cy="180" r="362.61261" gradientUnits="userSpaceOnUse" id="color-1"><stop offset="0" stop-color="#000000" stop-opacity="0.83922"/><stop offset="1" stop-color="#000000" stop-opacity="0"/></radialGradient><radialGradient cx="360" cy="180" r="362.61262" gradientUnits="userSpaceOnUse" id="color-2"><stop offset="0" stop-color="#000000" stop-opacity="0.55686"/><stop offset="1" stop-color="#000000"/></radialGradient><linearGradient x1="-12.50451" y1="188.24325" x2="148.32658" y2="188.24325" gradientUnits="userSpaceOnUse" id="color-3"><stop offset="0" stop-color="#000000"/><stop offset="1" stop-color="#000000" stop-opacity="0"/></linearGradient><linearGradient x1="743.41667" y1="185" x2="582.58559" y2="185" gradientUnits="userSpaceOnUse" id="color-4"><stop offset="0" stop-color="#000000"/><stop offset="1" stop-color="#000000" stop-opacity="0"/></linearGradient><linearGradient x1="364.5428" y1="-9.95495" x2="364.5428" y2="117.67268" gradientUnits="userSpaceOnUse" id="color-5"><stop offset="0" stop-color="#000000"/><stop offset="1" stop-color="#000000" stop-opacity="0"/></linearGradient><linearGradient x1="363.53679" y1="384.56562" x2="363.53679" y2="256.93799" gradientUnits="userSpaceOnUse" id="color-6"><stop offset="0" stop-color="#000000"/><stop offset="1" stop-color="#000000" stop-opacity="0"/></linearGradient></defs><g transform="translate(14.84159,10.1952)"><g stroke-miterlimit="10"><g><path d="M0.04123,153v-160.3741h719.91754v160.3741z" fill="#323232" stroke="#000000" stroke-width="0"/><path d="M226.82491,244.00002v-128h248.01449v128z" fill="#3f3f3f" stroke="#000000" stroke-width="0"/><path d="M282.79705,217.81297v-89h153.44087v89z" fill="#686868" stroke="#000000" stroke-width="0"/><path d="M0.6078,360.00001v-128h719.91754v128z" fill="#323232" stroke="#000000" stroke-width="0"/><path d="M12.58671,360.00001v-360l284.68589,116l0.96504,128.5z" fill="#505050" stroke="none" stroke-width="0"/><path d="M707.41329,0.00001v360l-284.68589,-116l-0.96504,-128.5z" fill="#505050" stroke="none" stroke-width="0"/><path d="M-2.61262,295.50001v-225l300.609,83v42z" fill="#909090" stroke="#000000" stroke-width="0"/><path d="M422.00362,195.50002v-42l300.609,-83v225z" fill="#909090" stroke="#000000" stroke-width="0"/><text transform="translate(322.72372,166.34742) scale(0.80247,0.83154)" font-size="40" xml:space="preserve" fill="#000000" stroke="#000000" stroke-width="3" font-family="&quot;Agency FB&quot;, Sans Serif" font-weight="normal" text-anchor="start"><tspan x="0" dy="0">A . S . C</tspan></text><text transform="translate(325.74612,171.3863) rotate(90) scale(0.217,0.20941)" font-size="40" xml:space="preserve" fill="#000000" stroke="#000000" stroke-width="2" font-family="&quot;Agency FB&quot;, Sans Serif" font-weight="normal" text-anchor="start"><tspan x="0" dy="0">NIMATRONIC</tspan></text><text transform="translate(357.10143,172.05296) rotate(90) scale(0.217,0.20941)" font-size="40" xml:space="preserve" fill="#000000" stroke="#000000" stroke-width="2" font-family="&quot;Agency FB&quot;, Sans Serif" font-weight="normal" text-anchor="start"><tspan x="0" dy="0">ECURITY</tspan></text><text transform="translate(389.59101,172.05296) rotate(90) scale(0.217,0.20941)" font-size="40" xml:space="preserve" fill="#000000" stroke="#000000" stroke-width="2" font-family="&quot;Agency FB&quot;, Sans Serif" font-weight="normal" text-anchor="start"><tspan x="0" dy="0">ENTER</tspan></text><path d="M325.25867,70.06296c0,-6.18292 15.55422,-11.19516 34.74133,-11.19516c19.18711,0 34.74133,5.01224 34.74133,11.19516c0,6.18292 -16.03674,16.69516 -35.22385,16.69516c-19.18711,0 -34.25881,-10.51224 -34.25881,-16.69516z" fill="#181818" stroke="#000000" stroke-width="0"/><path d="M331.45445,76.05339c0,-5.08025 12.78028,-9.19861 28.54555,-9.19861c15.76528,0 28.54555,4.11836 28.54555,9.19861c0,5.08025 -13.17675,13.71774 -28.94202,13.71774c-15.76528,0 -28.14908,-8.63749 -28.14908,-13.71774z" fill="#404040" stroke="#000000" stroke-width="0"/></g><g stroke="#000000" stroke-width="0"><path d="M-2.61261,366.1862v-372.37237h725.22523v372.37237z" fill="url(#color-1)"/><path d="M-2.61262,366.1862v-372.37237h725.22523v372.37237z" fill="url(#color-2)"/></g><g stroke="none" stroke-width="0"><path d="M-12.50451,383.43844v-390.39039h160.83109v390.39039z" fill="url(#color-3)"/><path d="M582.58559,380.19519v-390.39039h160.83108v390.39039z" fill="url(#color-4)"/><path d="M-13.83558,117.67268v-127.62762h756.75676v127.62763z" fill="url(#color-5)"/><path d="M741.91517,256.93799v127.62762h-756.75676v-127.62762z" fill="url(#color-6)"/></g><g fill="#ababab" stroke="none" stroke-width="1" font-family="&quot;Century Gothic&quot;, Sans Serif" font-weight="normal" font-size="40" text-anchor="start"><text transform="translate(617.23904,302.47037) scale(0.28185,0.28185)" font-size="40" xml:space="preserve" fill="#ababab"><tspan x="0" dy="0">TALE ENGINE 5.36</tspan></text><text transform="translate(471.4576,314.26771) scale(0.28185,0.28185)" font-size="40" xml:space="preserve" fill="#ababab"><tspan x="0" dy="0">Moon/MSDLC+/JItterBrick By MDT STUDIOS™</tspan></text><text transform="translate(428.48158,326.90771) scale(0.28185,0.28185)" font-size="40" xml:space="preserve" fill="#ababab"><tspan x="0" dy="0">GAME IS OWNED BY THE FNAF FANGAME COMMITEE</tspan></text><text transform="translate(429.8165,339.54772) scale(0.28185,0.28185)" font-size="40" xml:space="preserve" fill="#ababab"><tspan x="0" dy="0">GAME BY NOT STUDIOS | FFCU DEMO 9.3.0 PATCH 3</tspan></text></g></g></g></svg>