<svg version="1.1" xmlns="http://www.w3.org/2000/svg" xmlns:xlink="http://www.w3.org/1999/xlink" width="151.5" height="147" viewBox="0,0,151.5,147"><defs><linearGradient x1="360" y1="106.5" x2="360" y2="253.5" gradientUnits="userSpaceOnUse" id="color-1"><stop offset="0" stop-color="#000000"/><stop offset="1" stop-color="#272727"/></linearGradient><linearGradient x1="348.9666" y1="155.53235" x2="369.84708" y2="155.25786" gradientUnits="userSpaceOnUse" id="color-2"><stop offset="0" stop-color="#7c7c7c"/><stop offset="1" stop-color="#ffffff"/></linearGradient><linearGradient x1="329.00424" y1="196.75403" x2="392.138" y2="199.39001" gradientUnits="userSpaceOnUse" id="color-3"><stop offset="0" stop-color="#7c7c7c"/><stop offset="1" stop-color="#ffffff"/></linearGradient><linearGradient x1="425.29398" y1="179.35493" x2="394.77837" y2="192.55135" gradientUnits="userSpaceOnUse" id="color-4"><stop offset="0" stop-color="#7c7c7c"/><stop offset="1" stop-color="#ffffff"/></linearGradient><linearGradient x1="294.05558" y1="179.98267" x2="324.90753" y2="192.37241" gradientUnits="userSpaceOnUse" id="color-5"><stop offset="0" stop-color="#7c7c7c"/><stop offset="1" stop-color="#ffffff"/></linearGradient><linearGradient x1="323.75126" y1="195.22512" x2="396.0682" y2="194.27451" gradientUnits="userSpaceOnUse" id="color-6"><stop offset="0" stop-color="#7c7c7c"/><stop offset="1" stop-color="#ffffff"/></linearGradient><linearGradient x1="325.03923" y1="201.97757" x2="397.3562" y2="201.02695" gradientUnits="userSpaceOnUse" id="color-7"><stop offset="0" stop-color="#646464"/><stop offset="1" stop-color="#b2b2b2"/></linearGradient><linearGradient x1="358.72066" y1="118.8908" x2="359.26855" y2="160.57088" gradientUnits="userSpaceOnUse" id="color-8"><stop offset="0" stop-color="#000000"/><stop offset="1" stop-color="#222222"/></linearGradient><linearGradient x1="337.61049" y1="142.53983" x2="381.65134" y2="143.47367" gradientUnits="userSpaceOnUse" id="color-9"><stop offset="0" stop-color="#7c7c7c"/><stop offset="1" stop-color="#ffffff"/></linearGradient><linearGradient x1="360.09343" y1="146.51685" x2="360.30482" y2="162.59921" gradientUnits="userSpaceOnUse" id="color-10"><stop offset="0" stop-color="#000000"/><stop offset="1" stop-color="#222222"/></linearGradient><linearGradient x1="360" y1="106.5" x2="360" y2="253.5" gradientUnits="userSpaceOnUse" id="color-11"><stop offset="0" stop-color="#000000" stop-opacity="0"/><stop offset="1" stop-color="#000000"/></linearGradient><radialGradient cx="340.71521" cy="189.37905" r="5.15893" gradientUnits="userSpaceOnUse" id="color-12"><stop offset="0" stop-color="#ff0000" stop-opacity="0.52157"/><stop offset="1" stop-color="#ff0000" stop-opacity="0"/></radialGradient><radialGradient cx="340.66531" cy="189.43028" r="2.63004" gradientUnits="userSpaceOnUse" id="color-13"><stop offset="0" stop-color="#ff0000"/><stop offset="1" stop-color="#ff0000" stop-opacity="0"/></radialGradient><radialGradient cx="376.46203" cy="189.75774" r="5.15893" gradientUnits="userSpaceOnUse" id="color-14"><stop offset="0" stop-color="#ff0000" stop-opacity="0.52157"/><stop offset="1" stop-color="#ff0000" stop-opacity="0"/></radialGradient><radialGradient cx="376.41212" cy="189.80897" r="2.63004" gradientUnits="userSpaceOnUse" id="color-15"><stop offset="0" stop-color="#ff0000"/><stop offset="1" stop-color="#ff0000" stop-opacity="0"/></radialGradient></defs><g transform="translate(-284.25,-106.5)"><g data-paper-data="{&quot;isPaintingLayer&quot;:true}" fill-rule="nonzero" stroke="none" stroke-linecap="butt" stroke-linejoin="miter" stroke-miterlimit="10" stroke-dasharray="" stroke-dashoffset="0" style="mix-blend-mode: normal"><path d="M284.25,253.5v-147h151.5v147z" fill="url(#color-1)" stroke-width="NaN"/><path d="M348.9666,155.53235c-0.01751,-1.33226 0.55984,-7.5742 3.00637,-11.37544c2.46802,-3.83464 6.80382,-5.21767 6.42214,-3.9852c-2.01746,6.51435 -0.8646,8.22992 0.91952,8.20647c2.07827,-0.02732 14.08442,-2.7474 11.6811,-0.5192c-5.18233,4.80469 -1.18119,4.92037 -1.14862,7.39889c0.05094,3.87535 -20.82955,4.14982 -20.88049,0.27448z" fill="url(#color-2)" stroke-width="0"/><g data-paper-data="{&quot;index&quot;:null}" stroke-width="0"><path d="M393.86221,194.65654c-0.39844,9.5431 -0.37132,19.07228 -5.8498,26.59007c-1.31435,1.8036 -5.54539,6.10023 -7.18169,7.24961c-5.27108,3.70256 -15.01757,4.63426 -21.71171,4.35475c-6.24632,-0.2608 -15.37115,0.23917 -20.12781,-3.41422c-0.08098,-0.06219 -3.42951,-2.42429 -3.50992,-2.48856c-8.38167,-6.69629 -10.5175,-22.21737 -10.00776,-34.42623c0.80197,-19.20789 69.19065,-17.07334 68.38866,2.13456z" data-paper-data="{&quot;index&quot;:null}" fill="url(#color-3)"/><path d="M389.44123,193.00014c-0.34814,8.33824 -0.32444,16.66435 -5.11123,23.23301c-1.14842,1.57591 -4.84527,5.33006 -6.27499,6.33433c-4.60559,3.23511 -13.12156,4.04916 -18.97055,3.80496c-5.4577,-0.22786 -13.43052,0.20898 -17.58662,-2.98318c-0.07075,-0.05433 -2.99651,-2.11822 -3.06677,-2.17437c-7.32345,-5.85086 -9.18964,-19.41238 -8.74426,-30.07982c0.70072,-16.78284 60.45515,-14.91778 59.75443,1.86506z" data-paper-data="{&quot;index&quot;:null}" fill="#000000"/></g><path d="M330.97922,210.50778l7.40988,-1.74914c0,0 13.99241,4.08135 20.70241,4.06162c6.7781,-0.01992 19.76393,-4.18063 19.76393,-4.18063l3.11278,1.19789c0,0 -6.23637,14.27052 -8.48754,14.27626c-2.00311,0.00511 -3.05214,-2.65952 -5.19152,-2.5342c-6.36017,0.37262 -15.45505,-0.20978 -19.41015,-0.15779c-2.62569,0.03451 -1.97964,2.09071 -4.51439,2.12403c-2.26904,0.02983 -13.3854,-13.03805 -13.3854,-13.03805z" fill="#ffffff" stroke-width="0"/><path d="M388.00029,166.2731c-6.27554,-11.60036 3.09861,-12.24465 7.42166,-14.11413c8.42666,-3.64409 21.80083,8.53195 29.87204,27.19596c8.07121,18.66401 7.78306,36.74828 -0.6436,40.39239c-5.65053,2.44356 -17.06458,9.78241 -26.69656,-8.83053c-2.95727,-5.71467 9.88057,-7.9803 -9.95354,-44.64367z" data-paper-data="{&quot;index&quot;:null}" fill="url(#color-4)" stroke-width="0"/><path d="M322.21591,210.81495c-9.13939,18.8597 -20.74241,11.8234 -26.45521,9.52922c-8.51953,-3.42134 -9.28295,-21.49179 -1.70513,-40.36152c7.57782,-18.86971 20.62731,-31.39311 29.14685,-27.97177c4.37071,1.75522 13.75855,2.15288 7.79011,13.91417c-18.86351,37.17205 -5.97058,39.09944 -8.77661,44.88989z" fill="url(#color-5)" stroke-width="0"/><path d="M319.57338,199.95148c-0.18383,-13.9847 2.76748,-31.67234 12.5759,-39.05934c0.09409,-0.07088 4.00238,-2.66382 4.09707,-2.73233c5.56156,-4.02422 15.98484,-3.15371 23.13971,-3.24777c7.66784,-0.1008 18.78823,1.28395 24.6977,5.69244c1.83447,1.36852 6.53461,6.42264 7.97936,8.52912c6.02195,8.78023 5.67922,19.68162 5.8229,30.61279c0.28922,22.00179 -78.02342,22.20685 -78.31265,0.20505z" fill="url(#color-6)" stroke-width="0"/><path d="M357.53953,189.1579c0.13189,10.03287 -7.2937,18.26514 -16.58551,18.38727c-9.2918,0.12215 -16.93122,-7.91209 -17.06311,-17.94496c-0.13189,-10.03287 7.2937,-18.26514 16.58551,-18.38727c9.2918,-0.12215 16.93122,7.91209 17.06311,17.94496z" fill="#000000" stroke-width="0"/><path d="M393.28634,189.53659c0.13189,10.03287 -7.2937,18.26514 -16.58551,18.38727c-9.2918,0.12215 -16.93122,-7.91209 -17.06311,-17.94496c-0.13189,-10.03287 7.2937,-18.26514 16.58551,-18.38728c9.2918,-0.12215 16.93122,7.9121 17.06311,17.94496z" fill="#000000" stroke-width="0"/><g><path d="M318.04024,201.24821c0.70204,-7.09133 -0.97997,-8.15163 3.19965,-8.29564c10.92126,-0.37632 6.56833,6.19322 9.81369,7.49603c7.04878,2.82967 15.93012,6.3641 18.30373,1.45931c4.11497,-8.5031 2.43033,-46.44677 9.58521,-46.54082c7.66784,-0.1008 2.86705,44.36058 8.7765,48.76907c3.98653,2.97397 13.65749,-1.13238 21.0298,-4.29387c3.55613,-1.52499 -1.29103,-6.03022 8.79808,-6.94596c1.93981,-0.17607 2.18247,3.57504 2.46488,8.69483c0.25276,4.58203 -7.47944,9.77297 -12.56026,11.90871c-7.29141,3.06495 -16.32098,5.86091 -23.86392,6.04111c-1.98179,0.04735 -5.00357,-3.18155 -6.8992,-3.19041c-2.43413,-0.01136 -3.7526,3.15679 -6.49085,2.79414c-4.85601,-0.64313 -9.46803,-1.17368 -13.40733,-2.26363c-13.21969,-3.65772 -19.53341,-7.71948 -18.74998,-15.63287z" fill="url(#color-7)" stroke-width="0"/><g data-paper-data="{&quot;index&quot;:null}" fill="#1e1e1e" stroke-width="0.5"><path d="M320.98116,204.71067c-0.01507,-1.14637 0.90203,-2.08791 2.0484,-2.10298c1.14637,-0.01507 2.08791,0.90203 2.10298,2.0484c0.01507,1.14637 -0.90203,2.08791 -2.0484,2.10298c-1.14637,0.01507 -2.08791,-0.90203 -2.10298,-2.0484z"/><path d="M327.1633,203.80354c-0.01507,-1.14637 0.90203,-2.08791 2.0484,-2.10298c1.14637,-0.01507 2.08791,0.90203 2.10298,2.0484c0.01507,1.14637 -0.90203,2.08791 -2.0484,2.10298c-1.14637,0.01507 -2.08791,-0.90203 -2.10298,-2.0484z"/><path d="M328.89345,209.76839c-0.01507,-1.14637 0.90203,-2.08791 2.0484,-2.10298c1.14637,-0.01507 2.08791,0.90203 2.10298,2.0484c0.01507,1.14637 -0.90203,2.08791 -2.0484,2.10298c-1.14637,0.01507 -2.08791,-0.90203 -2.10298,-2.0484z"/></g><g data-paper-data="{&quot;index&quot;:null}" fill="#1e1e1e" stroke-width="0.5"><path d="M395.36419,206.24461c-1.14637,0.01507 -2.08791,-0.90203 -2.10298,-2.0484c-0.01507,-1.14637 0.90203,-2.08791 2.0484,-2.10298c1.14637,-0.01507 2.08791,0.90203 2.10298,2.0484c0.01507,1.14637 -0.90203,2.08791 -2.0484,2.10298z"/><path d="M389.16033,205.50028c-1.14637,0.01507 -2.08791,-0.90203 -2.10298,-2.0484c-0.01507,-1.14637 0.90203,-2.08791 2.0484,-2.10298c1.14637,-0.01507 2.08791,0.90203 2.10298,2.0484c0.01507,1.14637 -0.90203,2.08791 -2.0484,2.10298z"/><path d="M387.58758,211.50856c-1.14637,0.01507 -2.08791,-0.90203 -2.10298,-2.0484c-0.01507,-1.14637 0.90203,-2.08791 2.0484,-2.10298c1.14637,-0.01507 2.08791,0.90203 2.10298,2.0484c0.01507,1.14637 -0.90203,2.08791 -2.0484,2.10298z"/></g><path d="M348.74775,211.43647c-0.06544,-4.9773 17.95902,-5.21424 18.02445,-0.23693c0.06544,4.9773 -3.91645,9.06525 -8.89375,9.13069c-4.9773,0.06544 -9.06525,-3.91645 -9.13069,-8.89375z" fill="#1e1e1e" stroke-width="0"/></g><g stroke-width="0"><path d="M378.1762,150.75664c0.17672,13.44413 -38.11134,12.87723 -38.28807,-0.56689c-0.0644,-4.89838 -4.46432,-24.38454 -2.411,-28.23068c3.58225,-6.71004 14.08453,0.51971 21.30506,0.4248c6.23086,-0.08191 17.03366,-2.29514 20.87355,2.83505c3.16049,4.2225 -1.55932,19.46809 -1.47954,25.53776z" fill="url(#color-8)"/><path d="M381.8218,148.81471c-4.06578,1.21579 -15.64965,0.44964 -22.32057,0.30819c-7.73048,-0.16391 -18.91007,1.45071 -22.80358,-0.30639c-2.23175,-1.00716 2.30804,-5.82271 2.33413,-7.05343c0.07164,-3.37786 41.05446,-2.77782 40.98285,0.60003c-0.03233,1.525 5.15358,5.45092 1.80717,6.45159z" data-paper-data="{&quot;index&quot;:null}" fill="url(#color-9)"/><path d="M387.55174,158.55009c0.06819,5.18745 -54.82529,5.4961 -54.89348,0.30865c-0.02484,-1.89004 -6.06545,-9.35175 -3.06821,-10.86478c5.22902,-2.63965 20.18865,0.00658 30.54347,-0.12954c8.93556,-0.11746 24.45621,-1.12067 29.89154,0.80686c4.47365,1.58647 -2.50411,7.53681 -2.47333,9.87881z" fill="url(#color-10)"/></g><path d="M346.98031,165.25688c0.06693,1.33938 -1.52175,1.54756 -6.24482,1.78358c-4.72307,0.23602 -6.21824,0.18193 -6.28517,-1.15744c-0.06693,-1.33938 1.37286,-2.39319 6.09593,-2.62921c4.72307,-0.23602 6.36712,0.66368 6.43404,2.00307z" fill="#1e1e1e" stroke-width="0"/><path d="M377.28823,169.5911c4.66009,0.80414 5.96223,2.02395 5.73418,3.34548c-0.22805,1.32153 -1.71881,1.19482 -6.3789,0.39068c-4.66009,-0.80414 -6.21206,-1.2025 -5.98401,-2.52402c0.22805,-1.32153 1.96864,-2.01629 6.62873,-1.21214z" data-paper-data="{&quot;index&quot;:null}" fill="#1e1e1e" stroke-width="0"/><path d="M284.25,253.5v-147h151.5v147z" fill="url(#color-11)" stroke-width="NaN"/><g stroke-width="0"><path d="M335.55673,189.44686c-0.03744,-2.84896 2.24172,-5.18885 5.09068,-5.2263c2.84895,-0.03744 5.18885,2.24172 5.2263,5.09068c0.03744,2.84896 -2.24173,5.18885 -5.09068,5.2263c-2.84895,0.03744 -5.18885,-2.24172 -5.22629,-5.09068z" fill="url(#color-12)"/><path d="M338.03549,189.46486c-0.01909,-1.4524 1.14284,-2.64529 2.59525,-2.66439c1.45241,-0.01909 2.6453,1.14284 2.66439,2.59524c0.01909,1.4524 -1.14284,2.6453 -2.59525,2.66439c-1.45241,0.01909 -2.6453,-1.14284 -2.66439,-2.59525z" fill="url(#color-13)"/><path d="M341.01898,189.40035c0.00864,0.65638 -0.18816,1.19115 -0.43954,1.19447c-0.25138,0.0033 -0.46215,-0.52612 -0.47079,-1.1825c-0.00864,-0.65638 0.18816,-1.19115 0.43954,-1.19446c0.25138,-0.0033 0.46215,0.52612 0.47079,1.18249z" fill="#ffd9d9"/></g><g stroke-width="0"><path d="M371.30355,189.82555c-0.03744,-2.84896 2.24172,-5.18885 5.09068,-5.2263c2.84895,-0.03744 5.18886,2.24172 5.22631,5.09068c0.03744,2.84896 -2.24173,5.18885 -5.09068,5.2263c-2.84895,0.03744 -5.18885,-2.24172 -5.22629,-5.09068z" fill="url(#color-14)"/><path d="M373.7823,189.84355c-0.01909,-1.4524 1.14284,-2.64529 2.59525,-2.66439c1.45241,-0.01909 2.6453,1.14284 2.66439,2.59524c0.01909,1.4524 -1.14284,2.6453 -2.59525,2.66439c-1.45241,0.01909 -2.6453,-1.14284 -2.66439,-2.59525z" fill="url(#color-15)"/><path d="M376.76579,189.77903c0.00864,0.65638 -0.18816,1.19115 -0.43954,1.19446c-0.25138,0.0033 -0.46215,-0.52612 -0.47078,-1.1825c-0.00864,-0.65638 0.18816,-1.19115 0.43954,-1.19446c0.25138,-0.0033 0.46215,0.52612 0.47079,1.1825z" fill="#ffd9d9"/></g></g></g></svg>