<svg version="1.1" xmlns="http://www.w3.org/2000/svg" xmlns:xlink="http://www.w3.org/1999/xlink" width="273.6818" height="328.46847" viewBox="0,0,273.6818,328.46847"><g transform="translate(-304.64134,-15.76577)"><g stroke="#000000" stroke-miterlimit="10"><path d="" fill="#ffffff" stroke-width="0"/><path d="" fill="#ffffff" stroke-width="0"/><path d="" fill="#ffffff" stroke-width="0"/><path d="" fill="#000000" stroke-width="0"/><path d="M336.12941,307.12165c0,-4.4811 3.63266,-8.11376 8.11376,-8.11376c4.4811,0 8.11376,3.63266 8.11376,8.11376c0,4.4811 -3.63266,8.11376 -8.11376,8.11376c-4.4811,0 -8.11376,-3.63266 -8.11376,-8.11376z" fill="#646464" stroke-width="0"/><path d="M375.51507,273.67816c-4.4811,0 -8.11376,-3.63266 -8.11376,-8.11376c0,-4.4811 3.63266,-8.11376 8.11376,-8.11376c4.4811,0 8.11376,3.63266 8.11376,8.11376c0,4.4811 -3.63266,8.11376 -8.11376,8.11376z" fill="#646464" stroke-width="0"/><path d="M375.51507,315.23542c-4.4811,0 -8.11376,-3.63266 -8.11376,-8.11376c0,-4.4811 3.63266,-8.11376 8.11376,-8.11376c4.4811,0 8.11376,3.63266 8.11376,8.11376c0,4.4811 -3.63266,8.11376 -8.11376,8.11376z" fill="#646464" stroke-width="0"/><path d="M361.35755,286.95446c0,-21.24091 5.89901,-20.13687 13.87439,-20.13687c7.97537,0 14.4407,-1.10404 14.4407,20.13687c0,21.24091 -6.46532,21.87019 -14.4407,21.87019c-7.97537,0 -13.87439,-0.62927 -13.87439,-21.87019z" fill="#343434" stroke-width="0"/><path d="M336.12941,265.56441c0,-4.4811 3.63266,-8.11376 8.11376,-8.11376c4.4811,0 8.11376,3.63266 8.11376,8.11376c0,4.4811 -3.63266,8.11376 -8.11376,8.11376c-4.4811,0 -8.11376,-3.63266 -8.11376,-8.11376z" fill="#646464" stroke-width="0"/><path d="M374.60851,230.41483c-4.4811,0 -8.11376,-3.63265 -8.11376,-8.11376c0,-4.4811 3.63266,-8.11376 8.11376,-8.11376c4.4811,0 8.11376,3.63266 8.11376,8.11376c0,4.4811 -3.63266,8.11376 -8.11376,8.11376z" fill="#646464" stroke-width="0"/><path d="M361.35755,244.79283c0,-21.24092 5.89901,-20.13687 13.87439,-20.13687c7.97537,0 14.4407,-1.10404 14.4407,20.13687c0,21.24091 -6.46532,21.87018 -14.4407,21.87018c-7.97537,0 -13.87439,-0.62927 -13.87439,-21.87018z" fill="#343434" stroke-width="0"/><path d="M337.03598,222.45216c0,-4.4811 3.63266,-8.11376 8.11376,-8.11376c4.4811,0 8.11376,3.63266 8.11376,8.11376c0,4.4811 -3.63266,8.11376 -8.11376,8.11376c-4.4811,0 -8.11376,-3.63265 -8.11376,-8.11376z" fill="#646464" stroke-width="0"/><path d="M344.52633,266.66301c-7.97537,0 -14.4407,-0.62927 -14.4407,-21.87018c0,-21.24092 6.46532,-20.13687 14.4407,-20.13687c7.97537,0 13.87439,-1.10404 13.87439,20.13687c0,21.24091 -5.89902,21.87018 -13.87439,21.87018z" fill="#343434" stroke-width="0"/><g fill="#3e3e3e" stroke-width="0"><path d="M353.82975,230.95877l-5.52333,-17.22475h32.87701c0,0 -10.69505,17.22475 -15.51795,17.22475c-4.21201,0 -11.83572,0 -11.83572,0z"/><path d="M354.09278,230.95877c-4.82289,0 -15.51795,-17.22475 -15.51795,-17.22475h32.87701l-5.52333,17.22475c0,0 -7.62373,0 -11.83572,0z"/></g><path d="M395.40686,141.84648c-5.42406,0 -9.82113,-4.39707 -9.82113,-9.82113c0,-5.42406 4.39707,-9.82113 9.82113,-9.82113c5.42406,0 9.82113,4.39707 9.82113,9.82113c0,5.42406 -4.39707,9.82113 -9.82113,9.82113z" fill="#646464" stroke-width="0"/><path d="M400.9218,222.74417c-3.27113,0 -5.9229,-2.65177 -5.9229,-5.9229c0,-3.27113 2.65177,-5.9229 5.9229,-5.9229c3.27113,0 5.9229,2.65177 5.9229,5.9229c0,3.27113 -2.65177,5.9229 -5.9229,5.9229z" fill="#646464" stroke-width="0"/><path d="M400.31742,176.18718c-3.88864,0 -7.041,-3.15237 -7.041,-7.041c0,-3.88863 3.15237,-7.041 7.041,-7.041c3.88864,0 7.041,3.15237 7.041,7.041c0,3.88863 -3.15237,7.041 -7.041,7.041z" fill="#646464" stroke-width="0"/><path d="M387.44415,192.91911c0,-21.24092 5.36388,-20.13687 12.61577,-20.13687c7.25189,0 13.13071,-1.10404 13.13071,20.13687c0,21.24092 -5.87882,21.87019 -13.13071,21.87019c-7.25189,0 -12.61577,-0.62927 -12.61577,-21.87019z" fill="#363636" stroke-width="0"/><path d="M387.44415,150.05614c0,-21.24092 5.36388,-20.13687 12.61577,-20.13687c7.25189,0 13.13071,-1.10404 13.13071,20.13687c0,21.24092 -5.87882,21.87019 -13.13071,21.87019c-7.25189,0 -12.61577,-0.62927 -12.61577,-21.87019z" fill="#363636" stroke-width="0"/><path d="M314.47758,132.02535c0,-5.42406 4.39707,-9.82113 9.82113,-9.82113c5.42406,0 9.82113,4.39707 9.82113,9.82113c0,5.42406 -4.39707,9.82113 -9.82113,9.82113c-5.42406,0 -9.82113,-4.39707 -9.82113,-9.82113z" fill="#646464" stroke-width="0"/><path d="M312.86088,216.82128c0,-3.27113 2.65178,-5.9229 5.9229,-5.9229c3.27113,0 5.9229,2.65177 5.9229,5.9229c0,3.27113 -2.65177,5.9229 -5.9229,5.9229c-3.27113,0 -5.9229,-2.65177 -5.9229,-5.9229z" fill="#646464" stroke-width="0"/><path d="M312.34715,168.89236c0,-3.88863 3.15236,-7.041 7.041,-7.041c3.88863,0 7.041,3.15237 7.041,7.041c0,3.88863 -3.15237,7.041 -7.041,7.041c-3.88863,0 -7.041,-3.15236 -7.041,-7.041z" fill="#646464" stroke-width="0"/><path d="M319.64563,214.53548c-7.25189,0 -13.13071,-0.62927 -13.13071,-21.87019c0,-21.24092 5.87882,-20.13687 13.13071,-20.13687c7.25189,0 12.61577,-1.10404 12.61577,20.13687c0,21.24092 -5.36388,21.87019 -12.61577,21.87019z" fill="#363636" stroke-width="0"/><path d="M319.64563,171.6725c-7.25189,0 -13.13071,-0.62927 -13.13071,-21.87019c0,-21.24092 5.87882,-20.13687 13.13071,-20.13687c7.25189,0 12.61577,-1.10404 12.61577,20.13687c0,21.24092 -5.36388,21.87019 -12.61577,21.87019z" fill="#363636" stroke-width="0"/><g fill="#343434" stroke-width="0"><path d="M386.97902,220.4057c0,2.47405 -12.14341,4.47967 -27.12305,4.47967c-14.97965,0 -27.12305,-2.00562 -27.12305,-4.47967c0,-2.47405 12.14341,-4.47966 27.12305,-4.47966c14.97965,0 27.12305,2.00561 27.12305,4.47966z"/><g><g><path d="M332.73097,220.40499l-4.20974,-45.35514c0,0 -2.06918,-6.00832 -2.76362,-11.10479c-0.60727,-4.45668 -1.66096,-39.19934 6.62505,-40.512c0.14776,-0.0234 14.98662,0.66841 30.6292,1.40616c17.53166,0.82685 16.45172,96.02802 5.94706,95.92412c-11.51953,-0.11394 -36.22794,-0.35834 -36.22794,-0.35834z"/></g><g><path d="M350.7467,220.76333c-10.50467,0.10391 -11.5846,-95.09727 5.94706,-95.92411c15.64258,-0.73775 30.48145,-1.42957 30.6292,-1.40616c8.28601,1.31265 7.23232,36.05533 6.62505,40.51201c-0.69444,5.09647 -2.76363,11.10479 -2.76363,11.10479l-4.20973,45.35514c0,0 -24.70841,0.24441 -36.22794,0.35834z"/></g></g><path d="M389.43121,125.40683c0,3.38542 -13.24272,6.12985 -29.57842,6.12985c-16.33571,0 -29.57842,-2.74443 -29.57842,-6.12985c0,-3.38542 13.24271,-6.12985 29.57842,-6.12985c16.33571,0 29.57842,2.74443 29.57842,6.12985z"/></g><path d="M372.21664,122.47676c0,1.54953 -5.53549,2.80569 -12.36387,2.80569c-6.82838,0 -12.36387,-1.25615 -12.36387,-2.80569c0,-1.54953 5.5355,-2.80568 12.36387,-2.80568c6.82838,0 12.36387,1.25615 12.36387,2.80568z" fill="#000000" stroke-width="0"/><g fill="#810000" stroke-width="0"><path d="M330.9856,222.03656c0,0 -2.08077,-1.47198 -1.89551,-28.61891c0.15941,-23.35694 -4.73298,-51.13995 -3.99898,-60.83596c0.31513,-4.16283 3.60443,-10.24332 9.19495,-12.366c7.75867,-2.94591 18.45713,-1.08839 18.45713,-1.08839c0,0 -6.14892,0.67208 -6.05155,5.832c0.29854,15.82159 8.06615,100.9338 8.06615,100.9338c0,0 -7.56094,0.79628 -11.14697,0.21452c-4.2309,-0.68638 -12.62521,-4.07107 -12.62521,-4.07107z"/><path d="M376.14743,226.10764c-3.58603,0.58176 -11.14697,-0.21452 -11.14697,-0.21452c0,0 7.7676,-85.11221 8.06615,-100.9338c0.09736,-5.15992 -6.05156,-5.832 -6.05156,-5.832c0,0 10.69846,-1.85752 18.45713,1.08839c5.59052,2.12268 8.87983,8.20316 9.19495,12.366c0.734,9.69601 -4.15839,37.47903 -3.99898,60.83596c0.18527,27.14693 -1.89551,28.61891 -1.89551,28.61891c0,0 -8.3943,3.3847 -12.62521,4.07108z"/></g><g fill="#810000" stroke-width="0"><path d="M329.98381,222.03656c0,0 -2.15292,-1.47198 -1.96123,-28.61891c0.16493,-23.35694 -4.89709,-51.13995 -4.13764,-60.83596c0.32606,-4.16283 3.7294,-10.24332 9.51376,-12.366c8.02767,-2.94591 19.09706,-1.08839 19.09706,-1.08839c0,0 -6.36211,0.67208 -6.26137,5.832c0.3089,15.82159 8.34581,100.9338 8.34581,100.9338c0,0 -7.82309,0.79628 -11.53345,0.21452c-4.3776,-0.68638 -13.06294,-4.07107 -13.06294,-4.07107z"/><path d="M376.71147,226.10764c-3.71036,0.58176 -11.53345,-0.21452 -11.53345,-0.21452c0,0 8.03692,-85.11221 8.34581,-100.9338c0.10074,-5.15992 -6.26138,-5.832 -6.26138,-5.832c0,0 11.06939,-1.85752 19.09706,1.08839c5.78436,2.12268 9.1877,8.20316 9.51376,12.366c0.75945,9.69601 -4.30257,37.47903 -4.13764,60.83596c0.1917,27.14693 -1.96123,28.61891 -1.96123,28.61891c0,0 -8.68535,3.3847 -13.06294,4.07108z"/></g><g fill="#646464" stroke-width="0"><path d="M350.41388,122.04542v-6.79043h18.87783v6.79043z"/><path d="M369.2917,122.04542c0,1.11271 -4.22595,2.01474 -9.43892,2.01474c-5.21297,0 -9.43891,-0.90203 -9.43891,-2.01474c0,-1.11271 4.22595,-2.01474 9.43891,-2.01474c5.21297,0 9.43892,0.90203 9.43892,2.01474z"/><path d="M369.2917,115.25499c0,1.11271 -4.22595,2.01474 -9.43892,2.01474c-5.21297,0 -9.43891,-0.90203 -9.43891,-2.01474c0,-1.11271 4.22595,-2.01474 9.43891,-2.01474c5.21297,0 9.43892,0.90203 9.43892,2.01474z"/></g><path d="M324.4766,247.87348c-1.96169,0.12269 -3.56166,0.03805 -3.88926,-6.17606c-0.3276,-6.21412 1.27969,-5.99059 3.24138,-6.11327c1.96169,-0.12269 3.39563,-0.53643 3.72324,5.67769c0.3276,6.21412 -1.11367,6.48897 -3.07536,6.61166z" fill="#3a3a3a" stroke-width="0"/><path d="M324.93826,256.70185c-1.96169,0.12269 -3.56166,0.03805 -3.88926,-6.17606c-0.3276,-6.21411 1.27969,-5.99059 3.24138,-6.11327c1.96169,-0.12269 3.39562,-0.53643 3.72323,5.67769c0.3276,6.21411 -1.11367,6.48897 -3.07536,6.61166z" fill="#3a3a3a" stroke-width="0"/><path d="M317.02757,249.41892c-1.96169,0.12269 -3.56166,0.03805 -3.88926,-6.17606c-0.3276,-6.21412 1.27969,-5.99059 3.24138,-6.11327c1.96169,-0.12269 3.39564,-0.53643 3.72324,5.6777c0.3276,6.21412 -1.11367,6.48897 -3.07536,6.61165z" fill="#3a3a3a" stroke-width="0"/><path d="M317.48924,258.24727c-1.96169,0.12269 -3.56166,0.03805 -3.88926,-6.17606c-0.3276,-6.21411 1.27969,-5.99059 3.24138,-6.11327c1.96169,-0.12269 3.39563,-0.53643 3.72324,5.67769c0.3276,6.21411 -1.11367,6.48897 -3.07536,6.61166z" fill="#3a3a3a" stroke-width="0"/><path d="M309.34205,249.29013c-1.96169,0.12269 -3.56166,0.03805 -3.88926,-6.17607c-0.3276,-6.21412 1.27969,-5.99058 3.24138,-6.11327c1.96169,-0.12269 3.39563,-0.53643 3.72324,5.67769c0.3276,6.21412 -1.11367,6.48897 -3.07536,6.61166z" fill="#3a3a3a" stroke-width="0"/><path d="M309.80371,258.11849c-1.96169,0.12269 -3.56166,0.03805 -3.88926,-6.17607c-0.3276,-6.21411 1.27969,-5.99059 3.24138,-6.11327c1.96169,-0.12269 3.39562,-0.53643 3.72323,5.67769c0.3276,6.21411 -1.11367,6.48897 -3.07536,6.61166z" fill="#3a3a3a" stroke-width="0"/><path d="M334.04266,244.33844c-1.96169,0.12269 -3.56166,0.03805 -3.88926,-6.17606c-0.3276,-6.21411 1.27969,-5.99059 3.24138,-6.11327c1.96169,-0.12269 3.39562,-0.53643 3.72323,5.67769c0.3276,6.21411 -1.11366,6.48897 -3.07535,6.61166z" fill="#3a3a3a" stroke-width="0"/><path d="M329.23502,223.50243c0,-1.42252 1.05875,-2.57571 2.36478,-2.57571c1.30603,0 2.36478,1.15318 2.36478,2.57571c0,1.42252 -1.05875,2.57571 -2.36478,2.57571c-1.30603,0 -2.36478,-1.15318 -2.36478,-2.57571z" fill="#646464" stroke-width="0"/><path d="M333.22626,235.3813c-1.96169,0.12269 -3.56166,0.03805 -3.88926,-6.17607c-0.3276,-6.21412 1.27969,-5.99058 3.24138,-6.11327c1.96169,-0.12269 3.39563,-0.53643 3.72324,5.67769c0.3276,6.21412 -1.11367,6.48897 -3.07536,6.61166z" fill="#3a3a3a" stroke-width="0"/><path d="M332.87065,218.10913c1.94625,2.45402 -3.65157,6.23171 -3.65157,13.28291c0,2.00119 -1.53277,5.99736 -2.26711,7.43322c-2.35498,4.60481 -18.14938,4.89709 -20.17412,2.75545c-1.51396,-1.60138 -2.13651,-3.43058 -2.13651,-10.57169c0,-16.69152 5.96532,-15.40313 14.49863,-15.79333c5.53755,-0.25321 11.06979,-0.46168 13.73068,2.89343z" fill="#363636" stroke-width="0"/><path d="M392.15358,241.26183c0.32759,-6.21412 1.76155,-5.80039 3.72324,-5.67769c1.9617,0.12269 3.56898,-0.10084 3.24138,6.11327c-0.32759,6.21412 -1.92756,6.29876 -3.88926,6.17606c-1.9617,-0.12269 -3.40296,-0.39754 -3.07536,-6.61166z" fill="#3a3a3a" stroke-width="0"/><path d="M391.69194,250.0902c0.3276,-6.21411 1.76154,-5.80039 3.72323,-5.67769c1.9617,0.12269 3.56898,-0.10084 3.24138,6.11327c-0.3276,6.21411 -1.92757,6.29876 -3.88926,6.17606c-1.9617,-0.12269 -3.40296,-0.39754 -3.07536,-6.61166z" fill="#3a3a3a" stroke-width="0"/><path d="M399.60265,242.80726c0.32759,-6.21412 1.76155,-5.80039 3.72324,-5.6777c1.9617,0.12269 3.56898,-0.10084 3.24138,6.11327c-0.32759,6.21412 -1.92757,6.29876 -3.88926,6.17606c-1.9617,-0.12269 -3.40296,-0.39754 -3.07536,-6.61165z" fill="#3a3a3a" stroke-width="0"/><path d="M399.14098,251.63562c0.3276,-6.21411 1.76154,-5.80039 3.72324,-5.67769c1.9617,0.12269 3.56898,-0.10084 3.24138,6.11327c-0.3276,6.21411 -1.92756,6.29876 -3.88926,6.17606c-1.9617,-0.12269 -3.40296,-0.39754 -3.07536,-6.61166z" fill="#3a3a3a" stroke-width="0"/><path d="M407.28817,242.67847c0.32759,-6.21412 1.76155,-5.80038 3.72324,-5.67769c1.9617,0.12269 3.56897,-0.10085 3.24138,6.11327c-0.32759,6.21412 -1.92756,6.29877 -3.88926,6.17607c-1.9617,-0.12269 -3.40296,-0.39754 -3.07536,-6.61166z" fill="#3a3a3a" stroke-width="0"/><path d="M406.82649,251.50683c0.3276,-6.21411 1.76154,-5.80039 3.72324,-5.67769c1.9617,0.12269 3.56898,-0.10084 3.24138,6.11327c-0.3276,6.21411 -1.92756,6.29876 -3.88925,6.17607c-1.9617,-0.12269 -3.40296,-0.39754 -3.07536,-6.61166z" fill="#3a3a3a" stroke-width="0"/><path d="M382.58754,237.72679c0.3276,-6.21411 1.76154,-5.80039 3.72323,-5.67769c1.9617,0.12269 3.56898,-0.10084 3.24138,6.11327c-0.3276,6.21411 -1.92757,6.29876 -3.88926,6.17606c-1.9617,-0.12269 -3.40296,-0.39754 -3.07535,-6.61166z" fill="#3a3a3a" stroke-width="0"/><path d="M388.10579,226.07814c-1.30603,0 -2.36478,-1.15318 -2.36478,-2.57571c0,-1.42252 1.05875,-2.57571 2.36478,-2.57571c1.30603,0 2.36478,1.15318 2.36478,2.57571c0,1.42252 -1.05875,2.57571 -2.36478,2.57571z" fill="#646464" stroke-width="0"/><path d="M383.40391,228.76965c0.32759,-6.21412 1.76155,-5.80038 3.72324,-5.67769c1.9617,0.12269 3.56898,-0.10085 3.24138,6.11327c-0.32759,6.21412 -1.92757,6.29877 -3.88926,6.17607c-1.9617,-0.12269 -3.40296,-0.39754 -3.07536,-6.61166z" fill="#3a3a3a" stroke-width="0"/><path d="M400.5656,215.21569c8.53331,0.3902 14.49863,-0.89819 14.49863,15.79333c0,7.14111 -0.62255,8.97032 -2.13651,10.57169c-2.02474,2.14165 -17.81913,1.84937 -20.17411,-2.75545c-0.73433,-1.43586 -2.26711,-5.43204 -2.26711,-7.43322c0,-7.05121 -5.59781,-10.82888 -3.65157,-13.28291c2.66088,-3.35511 8.19313,-3.14665 13.73068,-2.89343z" fill="#363636" stroke-width="0"/><path d="M344.52633,308.82464c-7.97537,0 -14.4407,-0.62927 -14.4407,-21.87019c0,-21.24091 6.46532,-20.13687 14.4407,-20.13687c7.97537,0 13.87439,-1.10404 13.87439,20.13687c0,21.24091 -5.89902,21.87019 -13.87439,21.87019z" fill="#343434" stroke-width="0"/><path d="M333.62837,265.56441c0,-5.18891 4.75241,-7.2134 10.61481,-7.2134c5.8624,0 10.61481,2.02449 10.61481,7.2134c0,5.18891 -4.75241,7.21339 -10.61481,7.21339c-5.8624,0 -10.61481,-2.02448 -10.61481,-7.21339z" fill="#3a3a3a" stroke-width="0"/><path d="M361.35755,286.95446c0,-21.24091 5.89901,-20.13687 13.87439,-20.13687c7.97537,0 14.4407,-1.10404 14.4407,20.13687c0,21.24091 -6.46532,21.87019 -14.4407,21.87019c-7.97537,0 -13.87439,-0.62927 -13.87439,-21.87019z" fill="#343434" stroke-width="0"/><path d="M375.51507,272.7778c-5.8624,0 -10.61481,-2.02448 -10.61481,-7.21339c0,-5.18891 4.75241,-7.2134 10.61481,-7.2134c5.8624,0 10.61481,2.02448 10.61481,7.2134c0,5.18891 -4.75242,7.21339 -10.61481,7.21339z" fill="#3a3a3a" stroke-width="0"/><path d="M378.14883,308.99075c8.19892,0 14.84546,0.69577 14.84546,8.74905c0,8.05328 -6.64654,8.16578 -14.84546,8.16578c-8.19892,0 -14.84546,-0.1125 -14.84546,-8.16578c0,-8.05328 6.64653,-8.74905 14.84546,-8.74905z" fill="#343434" stroke-width="0"/><path d="M399.51898,319.20099c5.7975,5.7975 10.04198,10.95267 4.77151,16.22314c-5.27047,5.27047 -10.04391,0.64427 -15.84141,-5.15323c-5.7975,-5.7975 -10.4237,-10.57095 -5.15323,-15.84141c5.27047,-5.27047 10.42563,-1.026 16.22314,4.77152z" fill="#343434" stroke-width="0"/><path d="M399.51898,319.20099c5.7975,5.7975 10.04198,10.95267 4.77151,16.22314c-5.27047,5.27047 -10.04391,0.64427 -15.84141,-5.15323c-5.7975,-5.7975 -10.4237,-10.57095 -5.15323,-15.84141c5.27047,-5.27047 10.42563,-1.026 16.22314,4.77152z" fill="#343434" stroke-width="0"/><path d="M391.00963,326.4555c3.5361,7.39718 5.82169,13.67151 -0.90302,16.88615c-6.72472,3.21464 -9.68523,-2.73706 -13.22133,-10.13424c-3.5361,-7.39718 -6.30874,-13.43869 0.41598,-16.65332c6.72472,-3.21464 10.17228,2.50423 13.70838,9.90142z" fill="#343434" stroke-width="0"/><path d="M378.9766,327.9266c0.91768,8.1474 1.02171,14.82426 -6.38503,15.65851c-7.40673,0.83426 -8.25413,-5.75887 -9.17182,-13.90628c-0.91768,-8.1474 -1.55814,-14.76383 5.84858,-15.59808c7.40674,-0.83426 8.79057,5.69845 9.70825,13.84585z" fill="#343434" stroke-width="0"/><path d="M356.45485,317.73981c0,8.05328 -6.64653,8.16578 -14.84546,8.16578c-8.19892,0 -14.84546,-0.1125 -14.84546,-8.16578c0,-8.05328 6.64654,-8.74905 14.84546,-8.74905c8.19892,0 14.84546,0.69577 14.84546,8.74905z" fill="#343434" stroke-width="0"/><path d="M336.46243,314.42948c5.27047,5.27047 0.64428,10.04391 -5.15323,15.84141c-5.7975,5.7975 -10.57095,10.42371 -15.84141,5.15323c-5.27047,-5.27047 -1.026,-10.42563 4.77151,-16.22314c5.7975,-5.7975 10.95267,-10.04198 16.22314,-4.77152z" fill="#343434" stroke-width="0"/><path d="M336.46243,314.42948c5.27047,5.27047 0.64428,10.04391 -5.15323,15.84141c-5.7975,5.7975 -10.57095,10.42371 -15.84141,5.15323c-5.27047,-5.27047 -1.026,-10.42563 4.77151,-16.22314c5.7975,-5.7975 10.95267,-10.04198 16.22314,-4.77152z" fill="#343434" stroke-width="0"/><path d="M342.45702,316.55408c6.72472,3.21464 3.95208,9.25614 0.41598,16.65332c-3.5361,7.39718 -6.49662,13.34889 -13.22133,10.13424c-6.72472,-3.21464 -4.43912,-9.48898 -0.90301,-16.88615c3.5361,-7.39718 6.98367,-13.11605 13.70838,-9.90141z" fill="#343434" stroke-width="0"/><path d="M350.48992,314.08074c7.40674,0.83426 6.76627,7.45069 5.84858,15.59808c-0.91768,8.1474 -1.76508,14.74052 -9.17182,13.90628c-7.40673,-0.83426 -7.30271,-7.51111 -6.38503,-15.65851c0.91768,-8.1474 2.30152,-14.6801 9.70825,-13.84584z" fill="#343434" stroke-width="0"/><g><path d="M399.58371,92.77218c-8.67611,9.86555 -23.97796,12.80574 -28.56249,10.44206c-11.56054,-5.96033 -22.45864,-36.95422 -20.7561,-49.20843c0.7243,-5.21329 14.45891,1.28352 27.88225,-0.53693c18.1292,-2.45865 37.21129,-12.19507 37.21129,-12.19507c0,0 -2.57303,36.48656 -15.77494,51.49836z" fill="#2f2f2f" stroke-width="0"/><path d="M397.91845,90.78279c-7.81918,8.89113 -21.60968,11.5409 -25.74139,9.41069c-10.4187,-5.37164 -20.24041,-33.30426 -18.70602,-44.34812c0.65277,-4.69837 13.0308,1.15674 25.12833,-0.4839c16.33858,-2.2158 33.53595,-10.99056 33.53595,-10.99056c0,0 -2.31889,32.8828 -14.21685,46.41189z" fill="#252525" stroke-width="0"/><path d="M304.70639,41.27381c0,0 19.08209,9.73643 37.21129,12.19507c13.42334,1.82045 27.15794,-4.67636 27.88225,0.53693c1.70253,12.25422 -9.19557,43.24809 -20.7561,49.20843c-4.58453,2.36367 -19.88638,-0.57652 -28.5625,-10.44206c-13.20192,-15.0118 -15.77494,-51.49836 -15.77494,-51.49836z" fill="#2f2f2f" stroke-width="0"/><path d="M307.92974,44.3709c0,0 17.19736,8.77476 33.53595,10.99056c12.09752,1.64065 24.47555,-4.21447 25.12833,0.4839c1.53438,11.04387 -8.28732,38.9765 -18.70602,44.34813c-4.13171,2.13021 -17.92221,-0.51957 -25.74139,-9.41069c-11.89797,-13.5291 -14.21685,-46.41189 -14.21685,-46.41189z" fill="#252525" stroke-width="0"/><g fill="#343434" stroke-width="0"><path d="M326.49936,83.86692c0,-20.48626 15.59566,-37.09365 34.83387,-37.09365c19.23822,0 34.83386,16.60739 34.83386,37.09365c0,20.48626 -15.59565,37.09365 -34.83386,37.09365c-13.90221,0 -36.9441,-8.63335 -37.41872,-22.50543c-0.25798,-7.54018 2.58485,-8.90606 2.58485,-14.58823z"/><path d="M396.15053,98.45516c-0.47462,13.87208 -23.5165,22.50543 -37.41872,22.50543c-19.23822,0 -34.83387,-16.60739 -34.83387,-37.09365c0,-20.48626 15.59566,-37.09365 34.83387,-37.09365c19.23822,0 34.83386,16.60739 34.83386,37.09365c0,5.68217 2.84283,7.04806 2.58485,14.58823z"/></g><g fill="#2f2f2f" stroke-width="0"><path d="M328.50867,84.38496c0,-18.11936 14.70132,-32.80801 32.83631,-32.80801c18.13499,0 32.83631,14.68865 32.83631,32.80801c0,18.11936 -14.70131,32.80801 -32.8363,32.80801c-13.10499,0 -34.82552,-7.63589 -35.27292,-19.90525c-0.24319,-6.66902 2.43662,-7.87708 2.43662,-12.90276z"/><path d="M394.16568,97.28773c-0.4474,12.26936 -22.16794,19.90525 -35.27292,19.90525c-18.13499,0 -32.83631,-14.68864 -32.83631,-32.80801c0,-18.11936 14.70132,-32.80801 32.83631,-32.80801c18.13499,0 32.83632,14.68865 32.83632,32.80801c0,5.02568 2.6798,6.23375 2.43662,12.90276z"/></g><path d="M329.71596,86.75306c0,-9.57337 5.95041,-12.71168 13.29061,-12.71168c7.3402,0 13.29061,3.13832 13.29061,12.71168c0,9.57337 -5.95041,12.50156 -13.29061,12.50156c-7.3402,0 -13.29061,-2.92821 -13.29061,-12.50156z" fill="#282828" stroke-width="0"/><path d="M338.19137,85.22014c0,-6.9589 3.84703,-9.24015 8.59258,-9.24015c4.74555,0 8.59258,2.28125 8.59258,9.24015c0,6.9589 -3.84703,9.08743 -8.59258,9.08743c-4.74555,0 -8.59258,-2.12852 -8.59258,-9.08743z" fill="#ffffff" stroke-width="0"/><path d="M339.06293,85.21238c0,-6.25304 3.45681,-8.30288 7.72101,-8.30288c4.26419,0 7.72101,2.04984 7.72101,8.30288c0,6.25304 -3.45681,8.16564 -7.72101,8.16564c-4.26419,0 -7.72101,-1.91261 -7.72101,-8.16564z" fill="#000000" stroke-width="0"/><path d="M339.98237,85.20422c0,-5.50843 3.04518,-7.31418 6.8016,-7.31418c3.75642,0 6.8016,1.80576 6.8016,7.31418c0,5.50843 -3.04518,7.19329 -6.8016,7.19329c-3.75642,0 -6.8016,-1.68486 -6.8016,-7.19329z" fill="#ffffff" stroke-width="0"/><g fill="#000000" stroke-width="0"><path d="M360.63972,118.24214c-0.00767,0.34061 -0.07147,0.66288 -0.61993,0.82462c-0.40774,0.12025 -1.77305,-0.53207 -2.2651,-0.60283c-0.68047,-0.09786 -1.49305,0.00469 -2.18765,0.00469c-1.01464,0 -2.17087,0.13763 -3.1689,-0.00469c-2.05621,-0.2932 -4.25068,-1.37439 -6.26831,-1.95057c-1.27354,-0.36451 -2.81597,-0.48292 -3.999,-0.9866c-2.10972,-0.89822 -3.82788,-2.65389 -5.46978,-4.06374c-1.98756,-1.71933 -4.02858,-3.46829 -5.29644,-5.66503c-0.54696,-0.94769 -1.44716,-1.75968 -1.44716,-2.88528c-0.90078,-2.21333 -1.41508,-4.85663 -1.41508,-7.19949c0,0 0,-0.36312 0.42288,-0.36312c0.19942,0 0.30479,0.08075 0.36048,0.16609c0.13139,0.07373 0.18167,0.20325 0.18167,0.20325c1.06265,2.82763 3.2202,4.42501 6.06095,6.04179c1.10284,0.86594 2.23695,2.18156 3.48657,2.84211c2.14058,1.13153 5.31156,0.30889 7.67154,0.30889c2.25472,0 3.61892,1.02489 5.62006,1.58909c1.552,0.43757 3.59598,0.2265 5.23401,0.2265c0.32783,0 0.59274,0.01497 0.87019,-0.01803l0.12379,-0.08438c0.6532,-0.18696 0.93448,-0.25405 1.64965,-0.19217c0.11207,0.20631 0.20906,0.41376 0.29268,0.62219"/><path d="M359.54496,107.16654c0.09294,-0.24586 0.204,-0.49038 0.33598,-0.73332c0.71516,-0.06189 0.99646,0.00522 1.64965,0.19217l0.12379,0.08438c0.27744,0.033 0.54237,0.01802 0.87019,0.01802c1.63802,0 3.682,0.21109 5.23401,-0.2265c2.00114,-0.56421 3.36534,-1.58909 5.62006,-1.58909c2.35997,0 5.53096,0.82264 7.67155,-0.30889c1.24961,-0.66055 2.38372,-1.97617 3.48657,-2.84211c2.84073,-1.61679 4.99829,-3.21416 6.06095,-6.04179c0,0 0.05027,-0.12952 0.18166,-0.20325c0.05568,-0.08534 0.16107,-0.16608 0.36049,-0.16608c0.42288,0 0.42288,0.36312 0.42288,0.36312c0,2.34287 -0.5143,4.98616 -1.41508,7.19949c0,1.12561 -0.9002,1.9376 -1.44716,2.88528c-1.26786,2.19675 -3.30888,3.94571 -5.29644,5.66504c-1.6419,1.40985 -3.36007,3.16551 -5.46978,4.06373c-1.18303,0.50368 -2.72547,0.6221 -3.99899,0.98661c-2.01763,0.57619 -4.21212,1.65737 -6.26831,1.95057c-0.99802,0.14232 -2.15426,0.00469 -3.1689,0.00469c-0.69459,0 -1.50718,-0.10256 -2.18765,-0.00469c-0.49205,0.07077 -1.85736,0.72308 -2.2651,0.60283c-0.47642,-0.14049 -0.58714,-0.40212 -0.61303,-0.69167"/></g><path d="M343.84387,125.38755c0,0 -3.32931,-2.89065 -5.77125,-6.51458c-0.51505,-0.76436 -2.64465,-4.254 -3.40341,-7.25139c-1.43747,-5.67865 -2.82654,-12.04957 -2.82654,-12.04957c0,0 7.03693,5.52573 8.7203,5.52573c1.6546,0 7.94324,0.17268 7.94324,0.17268c0,0 -5.66895,5.42527 -6.41326,8.99231c-0.77941,3.7353 1.75091,11.12483 1.75091,11.12483z" fill="#ffffff" stroke-width="0"/><g fill="#ffffff" stroke-width="0"><g><path d="M355.51926,106.6128v1.65083c0,0 -0.95329,0 -1.28924,0c-0.21558,0 -0.53087,-0.33712 -0.53087,-0.55265c0,-0.30382 0,-1.09818 0,-1.09818z"/><path d="M356.14688,106.6128c0,0 0,0.79436 0,1.09818c0,0.21553 -0.31529,0.55265 -0.53087,0.55265c-0.33596,0 -1.28925,0 -1.28925,0v-1.65083z"/></g><g><path d="M358.13824,106.6128v1.65083c0,0 -0.95329,0 -1.28924,0c-0.21558,0 -0.53087,-0.33712 -0.53087,-0.55265c0,-0.30382 0,-1.09818 0,-1.09818z"/><path d="M358.76585,106.6128c0,0 0,0.79436 0,1.09818c0,0.21553 -0.31529,0.55265 -0.53087,0.55265c-0.33596,0 -1.28924,0 -1.28924,0v-1.65083z"/></g><g><path d="M360.67158,106.6128v1.65083c0,0 -0.95329,0 -1.28924,0c-0.21558,0 -0.53087,-0.33712 -0.53087,-0.55265c0,-0.30382 0,-1.09818 0,-1.09818z"/><path d="M361.29921,106.6128c0,0 0,0.79436 0,1.09818c0,0.21553 -0.31529,0.55265 -0.53087,0.55265c-0.33596,0 -1.28924,0 -1.28924,0v-1.65083z"/></g><g><path d="M363.20494,106.6128v1.65083c0,0 -0.95329,0 -1.28924,0c-0.21558,0 -0.53087,-0.33712 -0.53087,-0.55265c0,-0.30382 0,-1.09818 0,-1.09818z"/><path d="M363.83254,106.6128c0,0 0,0.79436 0,1.09818c0,0.21553 -0.31529,0.55265 -0.53087,0.55265c-0.33596,0 -1.28924,0 -1.28924,0v-1.65083z"/></g><g><path d="M365.73827,106.6128v1.65083c0,0 -0.95329,0 -1.28924,0c-0.21558,0 -0.53087,-0.33712 -0.53087,-0.55265c0,-0.30382 0,-1.09818 0,-1.09818z"/><path d="M366.36592,106.6128c0,0 0,0.79436 0,1.09818c0,0.21553 -0.31529,0.55265 -0.53087,0.55265c-0.33596,0 -1.28924,0 -1.28924,0v-1.65083z"/></g></g><g fill="#ffffff" stroke-width="0"><g><path d="M353.69916,118.68913c0,0 0,-0.79436 0,-1.09818c0,-0.21553 0.31529,-0.55265 0.53087,-0.55265c0.33596,0 1.28924,0 1.28924,0v1.65083z"/><path d="M354.32679,118.68913v-1.65083c0,0 0.95329,0 1.28924,0c0.21558,0 0.53087,0.33712 0.53087,0.55265c0,0.30382 0,1.09818 0,1.09818z"/></g><g><path d="M356.31813,118.68913c0,0 0,-0.79436 0,-1.09818c0,-0.21553 0.31529,-0.55265 0.53087,-0.55265c0.33596,0 1.28924,0 1.28924,0v1.65083z"/><path d="M356.94574,118.68913v-1.65083c0,0 0.95329,0 1.28924,0c0.21558,0 0.53087,0.33712 0.53087,0.55265c0,0.30382 0,1.09818 0,1.09818z"/></g><g><path d="M358.85146,118.68913c0,0 0,-0.79436 0,-1.09818c0,-0.21553 0.31529,-0.55265 0.53087,-0.55265c0.33596,0 1.28924,0 1.28924,0v1.65083z"/><path d="M359.47911,118.68913v-1.65083c0,0 0.95329,0 1.28924,0c0.21558,0 0.53087,0.33712 0.53087,0.55265c0,0.30382 0,1.09818 0,1.09818z"/></g><g><path d="M361.38483,118.68913c0,0 0,-0.79436 0,-1.09818c0,-0.21553 0.31529,-0.55265 0.53087,-0.55265c0.33596,0 1.28924,0 1.28924,0v1.65083z"/><path d="M362.01244,118.68913v-1.65083c0,0 0.95329,0 1.28924,0c0.21558,0 0.53087,0.33712 0.53087,0.55265c0,0.30382 0,1.09818 0,1.09818z"/></g><g><path d="M363.91816,118.68913c0,0 0,-0.79436 0,-1.09818c0,-0.21553 0.31529,-0.55265 0.53087,-0.55265c0.33596,0 1.28924,0 1.28924,0v1.65083z"/><path d="M364.5458,118.68913v-1.65083c0,0 0.95329,0 1.28924,0c0.21558,0 0.53087,0.33712 0.53087,0.55265c0,0.30382 0,1.09818 0,1.09818z"/></g></g><path d="M377.97209,114.26272c-0.7443,-3.56703 -6.41326,-8.9923 -6.41326,-8.9923c0,0 6.28865,-0.17268 7.94324,-0.17268c1.68337,0 8.7203,-5.52573 8.7203,-5.52573c0,0 -1.38907,6.37093 -2.82654,12.04957c-0.75874,2.99739 -2.88836,6.48703 -3.40341,7.25139c-2.44194,3.62394 -5.77125,6.51458 -5.77125,6.51458c0,0 2.53033,-7.38954 1.75092,-11.12483z" fill="#ffffff" stroke-width="0"/><g fill="none" stroke-width="1.5"><path d="M360.63972,118.24214c-0.00767,0.34061 -0.07147,0.66288 -0.61993,0.82462c-0.40774,0.12025 -1.77305,-0.53207 -2.2651,-0.60283c-0.68047,-0.09786 -1.49305,0.00469 -2.18765,0.00469c-1.01464,0 -2.17087,0.13763 -3.1689,-0.00469c-2.05621,-0.2932 -4.25068,-1.37439 -6.26831,-1.95057c-1.27354,-0.36451 -2.81597,-0.48292 -3.999,-0.9866c-2.10972,-0.89822 -3.82788,-2.65389 -5.46978,-4.06374c-1.98756,-1.71933 -4.02858,-3.46829 -5.29644,-5.66503c-0.54696,-0.94769 -1.44716,-1.75968 -1.44716,-2.88528c-0.90078,-2.21333 -1.41508,-4.85663 -1.41508,-7.19949c0,0 0,-0.36312 0.42288,-0.36312c0.19942,0 0.30479,0.08075 0.36048,0.16609c0.13139,0.07373 0.18167,0.20325 0.18167,0.20325c1.06265,2.82763 3.2202,4.42501 6.06095,6.04179c1.10284,0.86594 2.23695,2.18156 3.48657,2.84211c2.14058,1.13153 5.31156,0.30889 7.67154,0.30889c2.25472,0 3.61892,1.02489 5.62006,1.58909c1.552,0.43757 3.59598,0.2265 5.23401,0.2265c0.32783,0 0.59274,0.01497 0.87019,-0.01803l0.12379,-0.08438c0.6532,-0.18696 0.93448,-0.25405 1.64965,-0.19217c0.11207,0.20631 0.20906,0.41376 0.29268,0.62219"/><path d="M359.54496,107.16654c0.09294,-0.24586 0.204,-0.49038 0.33598,-0.73332c0.71516,-0.06189 0.99646,0.00522 1.64965,0.19217l0.12379,0.08438c0.27744,0.033 0.54237,0.01802 0.87019,0.01802c1.63802,0 3.682,0.21109 5.23401,-0.2265c2.00114,-0.56421 3.36534,-1.58909 5.62006,-1.58909c2.35997,0 5.53096,0.82264 7.67155,-0.30889c1.24961,-0.66055 2.38372,-1.97617 3.48657,-2.84211c2.84073,-1.61679 4.99829,-3.21416 6.06095,-6.04179c0,0 0.05027,-0.12952 0.18166,-0.20325c0.05568,-0.08534 0.16107,-0.16608 0.36049,-0.16608c0.42288,0 0.42288,0.36312 0.42288,0.36312c0,2.34287 -0.5143,4.98616 -1.41508,7.19949c0,1.12561 -0.9002,1.9376 -1.44716,2.88528c-1.26786,2.19675 -3.30888,3.94571 -5.29644,5.66504c-1.6419,1.40985 -3.36007,3.16551 -5.46978,4.06373c-1.18303,0.50368 -2.72547,0.6221 -3.99899,0.98661c-2.01763,0.57619 -4.21212,1.65737 -6.26831,1.95057c-0.99802,0.14232 -2.15426,0.00469 -3.1689,0.00469c-0.69459,0 -1.50718,-0.10256 -2.18765,-0.00469c-0.49205,0.07077 -1.85736,0.72308 -2.2651,0.60283c-0.47642,-0.14049 -0.58714,-0.40212 -0.61303,-0.69167"/></g><path d="M343.84387,125.38755c0,0 -3.32931,-2.89065 -5.77125,-6.51458c-0.51505,-0.76436 -2.64465,-4.254 -3.40341,-7.25139c-0.30205,-1.19323 -0.60196,-2.41704 -0.8873,-3.60586c0.77196,0.16794 1.5373,0.32322 2.25461,0.49564c2.77042,0.66591 5.52882,1.14578 8.29777,1.49321c-1.05739,1.43259 -1.97193,2.96709 -2.24132,4.25816c-0.77941,3.7353 1.75091,11.12483 1.75091,11.12483z" fill="#ffffff" stroke-width="0"/><path d="M377.97209,114.26272c-0.30907,-1.48118 -1.46728,-3.28279 -2.71613,-4.8833c3.93052,-0.23058 7.74004,-0.96445 11.30865,-2.54457c-0.36605,1.54609 -0.7655,3.19365 -1.16876,4.78673c-0.75874,2.99739 -2.88836,6.48703 -3.40341,7.25139c-2.44194,3.62394 -5.77125,6.51458 -5.77125,6.51458c0,0 2.53033,-7.38954 1.75092,-11.12483z" fill="#ffffff" stroke-width="0"/><path d="M377.23116,99.25462c-7.3402,0 -13.29061,-2.92821 -13.29061,-12.50156c0,-9.57337 5.95041,-12.71168 13.29061,-12.71168c7.3402,0 13.29061,3.13832 13.29061,12.71168c0,9.57337 -5.95041,12.50156 -13.29061,12.50156z" fill="#282828" stroke-width="0"/><path d="M377.23116,97.85261c-7.41585,0 -13.4276,-3.32624 -13.4276,-14.20088c0,-10.87465 3.06673,-17.38457 10.48258,-17.38457c7.41585,0 16.37262,6.50993 16.37262,17.38457c0,10.87464 -6.01174,14.20088 -13.4276,14.20088z" fill="#000000" stroke-width="0"/><path d="M373.4538,94.30756c-4.74555,0 -8.59258,-2.12853 -8.59258,-9.08743c0,-6.9589 3.84704,-9.24015 8.59258,-9.24015c4.74555,0 8.59258,2.28125 8.59258,9.24015c0,6.95891 -3.84702,9.08743 -8.59258,9.08743z" fill="#ffffff" stroke-width="0"/><path d="M373.4538,93.37804c-4.26419,0 -7.72101,-1.91261 -7.72101,-8.16564c0,-6.25304 3.45681,-8.30288 7.72101,-8.30288c4.26419,0 7.72101,2.04984 7.72101,8.30288c0,6.25304 -3.45681,8.16564 -7.72101,8.16564z" fill="#000000" stroke-width="0"/><path d="M373.4538,92.3975c-3.75642,0 -6.8016,-1.68486 -6.8016,-7.19329c0,-5.50843 3.04518,-7.31418 6.80161,-7.31418c3.75642,0 6.8016,1.80576 6.8016,7.31418c0,5.50843 -3.04518,7.19329 -6.8016,7.19329z" fill="#ffffff" stroke-width="0"/><path d="M329.57902,83.65173c0,-10.87464 8.95677,-17.38457 16.37262,-17.38457c7.41585,0 10.48258,6.50992 10.48258,17.38457c0,10.87464 -6.01175,14.20088 -13.4276,14.20088c-7.41585,0 -13.4276,-3.32624 -13.4276,-14.20088z" fill="#000000" stroke-width="0"/><path d="M338.19137,85.22014c0,-6.9589 3.84702,-9.24015 8.59258,-9.24015c4.74555,0 8.59258,2.28125 8.59258,9.24015c0,6.9589 -3.84703,9.08743 -8.59258,9.08743c-4.74555,0 -8.59258,-2.12852 -8.59258,-9.08743z" fill="#ffffff" stroke-width="0"/><path d="M339.06295,85.21238c0,-6.25304 3.45681,-8.30288 7.72101,-8.30288c4.26419,0 7.72101,2.04984 7.72101,8.30288c0,6.25304 -3.45681,8.16564 -7.72101,8.16564c-4.26419,0 -7.72101,-1.91261 -7.72101,-8.16564z" fill="#000000" stroke-width="0"/><path d="M346.78394,92.3975c-3.75642,0 -6.8016,-1.68486 -6.8016,-7.19329c0,-5.50843 3.04518,-7.31418 6.8016,-7.31418c3.75642,0 6.80161,1.80576 6.80161,7.31418c0,5.50843 -3.04518,7.19329 -6.8016,7.19329z" fill="#ffffff" stroke-width="0"/><g fill="#252525" stroke-width="0"><path d="M368.48737,97.40066c0,2.75375 -3.7467,4.98611 -8.3685,4.98611c-4.6218,0 -8.3685,-2.23235 -8.3685,-4.98611c0,-2.75375 3.74671,-4.98611 8.3685,-4.98611c4.6218,0 8.3685,2.23235 8.3685,4.98611z"/><path d="M366.44628,99.0627c0,2.75375 -2.83288,4.98611 -6.32741,4.98611c-3.49453,0 -6.32741,-2.23235 -6.32741,-4.98611c0,-2.75375 2.83288,-4.98611 6.32741,-4.98611c3.49453,0 6.32741,2.23235 6.32741,4.98611z"/></g><g stroke-width="0"><g fill="#252525"><path d="M383.38355,55.81861c0,1.55322 -5.05749,2.81235 -23.39068,2.81235c-18.33318,0 -23.67081,-1.25912 -23.67081,-2.81235c0,-1.55322 5.33763,-2.81235 23.67081,-2.81235c18.33318,0 23.39068,1.25912 23.39068,2.81235z"/><path d="M359.71274,53.00626c18.33318,0 23.67081,1.25912 23.67081,2.81235c0,1.55322 -5.33763,2.81235 -23.67081,2.81235c-18.33318,0 -23.39069,-1.25912 -23.39069,-2.81235c0,-1.55322 5.0575,-2.81235 23.39069,-2.81235z"/></g><path d="M336.32206,55.83458v-5.65664h47.06148v5.65664z" fill="#252525"/><g fill="#202020"><path d="M383.38355,50.17795c0,1.55322 -5.05749,2.81235 -23.39068,2.81235c-18.33318,0 -23.67081,-1.25912 -23.67081,-2.81235c0,-1.55322 5.33763,-2.81235 23.67081,-2.81235c18.33318,0 23.39068,1.25913 23.39068,2.81235z"/><path d="M359.71274,47.36561c18.33318,0 23.67081,1.25912 23.67081,2.81234c0,1.55322 -5.33763,2.81235 -23.67081,2.81235c-18.33318,0 -23.39069,-1.25913 -23.39069,-2.81235c0,-1.55322 5.0575,-2.81234 23.39069,-2.81234z"/></g><g fill="#252525"><path d="M376.18026,49.62806c0,1.00464 -7.31005,1.81906 -16.32746,1.81906c-9.0174,0 -16.32746,-0.81442 -16.32746,-1.81906c0,-1.00464 7.31005,-1.81905 16.32746,-1.81905c9.0174,0 16.32746,0.81441 16.32746,1.81905z"/><path d="M343.52534,49.62806c0,0 0.32444,-9.85346 -0.55151,-14.81635c-0.85219,-4.82828 -4.63486,-14.56827 -4.63486,-14.56827h21.36016l16.48112,29.38463z"/><path d="M343.52534,49.62806l16.48112,-29.38463h21.36016c0,0 -3.78267,9.73999 -4.63486,14.56827c-0.87595,4.96288 -0.55151,14.81635 -0.55151,14.81635z"/></g><path d="M381.36662,20.24344c0,2.47294 -9.63206,4.47766 -21.51382,4.47766c-11.88175,0 -21.51382,-2.00472 -21.51382,-4.47766c0,-2.47294 9.63206,-4.47766 21.51382,-4.47766c11.88175,0 21.51382,2.00472 21.51382,4.47766z" fill="#202020"/></g></g><path d="" fill="#ffffff" stroke-width="0"/><path d="" fill="#ffffff" stroke-width="0"/><path d="" fill="#ffffff" stroke-width="0"/><path d="" fill="#000000" stroke-width="0"/><g><g stroke-width="0"><path d="M530.84672,146.54283c-5.34102,0.62726 -10.19998,-3.22751 -10.85279,-8.60988c-0.65281,-5.38237 3.14773,-10.25413 8.48876,-10.88139c5.34102,-0.62726 10.19998,3.22751 10.85279,8.60988c0.65281,5.38237 -3.14773,10.25413 -8.48876,10.88139z" fill="#646464"/><path d="M546.01363,226.18089c-3.22105,0.37829 -6.15138,-1.94644 -6.54507,-5.19242c-0.39369,-3.24598 1.89833,-6.18403 5.11938,-6.56232c3.22105,-0.37829 6.15138,1.94644 6.54507,5.19242c0.39369,3.24598 -1.89833,6.18403 -5.11938,6.56232z" fill="#646464"/><path d="M539.81516,180.05168c-3.82911,0.4497 -7.3126,-2.31389 -7.78062,-6.17263c-0.46801,-3.85874 2.25669,-7.35143 6.08579,-7.80112c3.82911,-0.4497 7.31261,2.31389 7.78062,6.17263c0.46801,3.85874 -2.2567,7.35143 -6.08579,7.80113z" fill="#646464"/><path d="M529.15274,198.14371c-2.55644,-21.07764 2.8582,-20.60238 9.99906,-21.44102c7.14087,-0.83864 12.79681,-2.61404 15.35324,18.46359c2.55644,21.07764 -3.15664,22.38192 -10.29751,23.22056c-7.14087,0.83864 -12.49836,0.83451 -15.0548,-20.24313z" fill="#363636"/><path d="M523.99399,155.61022c-2.55644,-21.07764 2.8582,-20.60238 9.99907,-21.44102c7.14087,-0.83864 12.79681,-2.61404 15.35324,18.46359c2.55644,21.07764 -3.15664,22.38192 -10.29751,23.22056c-7.14087,0.83864 -12.49836,0.8345 -15.0548,-20.24314z" fill="#363636"/><path d="M539.60833,245.5702c-0.42532,-6.20423 1.03648,-5.95951 2.9829,-6.06461c1.94643,-0.10511 3.50221,-0.5128 3.92752,5.69143c0.42532,6.20423 -1.13997,6.47325 -3.0864,6.57836c-1.94643,0.10511 -3.39871,-0.00095 -3.82402,-6.20519z" fill="#3a3a3a"/><path d="M540.21629,254.38409c-0.42531,-6.20423 1.03647,-5.95951 2.98289,-6.06462c1.94643,-0.10511 3.50221,-0.51279 3.92752,5.69143c0.42531,6.20423 -1.13998,6.47325 -3.0864,6.57836c-1.94643,0.10511 -3.39871,-0.00095 -3.82402,-6.20519z" fill="#3a3a3a"/><path d="M547.12936,246.24231c-0.42532,-6.20423 1.03648,-5.95951 2.9829,-6.06462c1.94643,-0.10511 3.50221,-0.5128 3.92752,5.69143c0.42532,6.20423 -1.13998,6.47325 -3.0864,6.57836c-1.94643,0.10511 -3.39871,-0.00095 -3.82402,-6.20518z" fill="#3a3a3a"/><path d="M547.73728,255.0562c-0.42531,-6.20423 1.03647,-5.95951 2.9829,-6.06461c1.94643,-0.10511 3.50221,-0.5128 3.92752,5.69143c0.42531,6.20423 -1.13997,6.47325 -3.0864,6.57836c-1.94643,0.10511 -3.39871,-0.00095 -3.82402,-6.20519z" fill="#3a3a3a"/><path d="M554.68171,245.22573c-0.42532,-6.20423 1.03648,-5.9595 2.9829,-6.06461c1.94643,-0.10511 3.50219,-0.5128 3.92752,5.69143c0.42532,6.20423 -1.13996,6.47326 -3.0864,6.57836c-1.94643,0.10511 -3.39871,-0.00095 -3.82402,-6.20519z" fill="#3a3a3a"/><path d="M555.28963,254.03962c-0.42531,-6.20423 1.03647,-5.95951 2.9829,-6.06461c1.94643,-0.10511 3.50221,-0.5128 3.92752,5.69143c0.42531,6.20423 -1.13997,6.47325 -3.08639,6.57836c-1.94643,0.10511 -3.39871,-0.00095 -3.82402,-6.20519z" fill="#3a3a3a"/><path d="M529.76329,243.16859c-0.42531,-6.20423 1.03647,-5.95951 2.98289,-6.06462c1.94643,-0.10511 3.5022,-0.5128 3.92751,5.69143c0.42531,6.20423 -1.13997,6.47325 -3.0864,6.57835c-1.94643,0.10511 -3.39871,-0.00095 -3.82401,-6.20519z" fill="#3a3a3a"/><path d="M533.79509,230.97133c-1.28604,0.15104 -2.46737,-0.87084 -2.63858,-2.28244c-0.17121,-1.41158 0.73254,-2.67835 2.01858,-2.82939c1.28604,-0.15104 2.46736,0.87085 2.63857,2.28244c0.17121,1.41158 -0.73254,2.67835 -2.01857,2.82938z" fill="#646464"/><path d="M529.48912,234.1859c-0.42532,-6.20423 1.03649,-5.95951 2.98291,-6.06462c1.94643,-0.10511 3.5022,-0.51281 3.92751,5.69143c0.42532,6.20423 -1.13997,6.47326 -3.0864,6.57836c-1.94643,0.10511 -3.39871,-0.00095 -3.82402,-6.20519z" fill="#3a3a3a"/><path d="M544.75679,218.75148c8.44963,-0.59963 14.16856,-2.56796 16.17746,13.99525c0.85946,7.08622 0.4666,8.97336 -0.83145,10.7375c-1.73598,2.35934 -17.32375,3.89583 -20.19688,-0.40125c-0.8959,-1.3399 -2.88617,-5.12811 -3.12702,-7.1139c-0.84865,-6.99701 -6.81541,-10.09829 -5.19432,-12.75852c2.21634,-3.63704 7.68898,-4.06995 13.17223,-4.45906z" fill="#363636"/></g><path d="M493.83866,232.5504c-4.33646,-0.96632 -7.07553,-5.29686 -6.11786,-9.67254c0.95767,-4.37567 5.24941,-7.1395 9.58587,-6.17318c4.33646,0.96632 7.07553,5.29687 6.11786,9.67254c-0.95767,4.37567 -5.24941,7.1395 -9.58587,6.17318z" fill="#646464" stroke-width="0"/><path d="M459.1806,216.67279c0.95767,-4.37567 5.24941,-7.1395 9.58587,-6.17318c4.33646,0.96632 7.07552,5.29687 6.11786,9.67254c-0.95767,4.37567 -5.24941,7.1395 -9.58587,6.17318c-4.33646,-0.96632 -7.07552,-5.29686 -6.11786,-9.67254z" fill="#646464" stroke-width="0"/><g fill="#3e3e3e" stroke-width="0"><path d="M473.61435,228.60073l-1.66392,-18.01056l31.81581,7.08972c0,0 -14.03096,14.51317 -18.69819,13.47314c-4.07605,-0.9083 -11.45369,-2.5523 -11.45369,-2.5523z"/><path d="M473.86889,228.65745c-4.66722,-1.04002 -11.33594,-20.16584 -11.33594,-20.16584l31.81582,7.08972l-9.02618,15.62842c0,0 -7.37766,-1.64401 -11.45369,-2.5523z"/></g><path d="M456.67559,123.50896c1.15918,-5.29645 6.35403,-8.64185 11.60302,-7.47219c5.24899,1.16966 8.56442,6.41148 7.40524,11.70793c-1.15918,5.29645 -6.35403,8.64185 -11.60302,7.47219c-5.24899,-1.16967 -8.56442,-6.41148 -7.40524,-11.70792z" fill="#646464" stroke-width="0"/><path d="M436.9892,205.96118c0.69908,-3.19416 3.83198,-5.2117 6.99752,-4.50631c3.16555,0.7054 5.16501,3.86662 4.46593,7.06078c-0.69908,3.19416 -3.83197,5.21171 -6.99752,4.50631c-3.16555,-0.7054 -5.16501,-3.86662 -4.46593,-7.06079z" fill="#646464" stroke-width="0"/><path d="M446.73502,159.04914c0.83105,-3.79714 4.55535,-6.19555 8.31847,-5.35699c3.76312,0.83856 6.14004,4.59655 5.30899,8.39369c-0.83105,3.79714 -4.55536,6.19555 -8.31847,5.35699c-3.76312,-0.83856 -6.14004,-4.59654 -5.30899,-8.39369z" fill="#646464" stroke-width="0"/><path d="M444.04346,205.19225c-7.01781,-1.56383 -12.57239,-3.44602 -8.03296,-24.18719c4.53943,-20.74116 9.99255,-18.39536 17.01036,-16.83153c7.01781,1.56383 12.4445,1.64245 7.90508,22.3836c-4.53943,20.74116 -9.86466,20.19894 -16.88247,18.63512z" fill="#363636" stroke-width="0"/><path d="M453.20378,163.33775c-7.01781,-1.56383 -12.5724,-3.44603 -8.03297,-24.18719c4.53943,-20.74116 9.99255,-18.39535 17.01037,-16.83153c7.01781,1.56382 12.44451,1.64245 7.90508,22.38361c-4.53943,20.74116 -9.86466,20.19894 -16.88247,18.63512z" fill="#363636" stroke-width="0"/><g fill="#343434" stroke-width="0"><path d="M507.94895,225.44439c-0.52873,2.41584 -12.70881,1.75562 -27.20494,-1.47465c-14.49614,-3.23027 -25.81896,-7.80736 -25.29022,-10.2232c0.52873,-2.41584 12.70881,-1.75561 27.20494,1.47466c14.49614,3.23027 25.81896,7.80734 25.29022,10.22319z"/><g><g><path d="M455.45205,213.74544l5.61906,-45.19583c0,0 -0.71834,-6.31316 -0.30119,-11.43947c0.36478,-4.48278 6.77001,-38.63524 15.06909,-38.13019c0.14799,0.00902 14.36004,3.88446 29.34005,7.97808c16.78907,4.58799 -4.60161,97.31639 -14.745,94.94967c-11.12336,-2.59537 -34.98201,-8.16225 -34.98201,-8.16225z"/></g><g><path d="M472.80969,217.98033c-10.18781,-2.1638 9.11271,-95.35797 26.2552,-92.38476c15.29534,2.65284 29.80309,5.1772 29.94107,5.23192c7.73803,3.06859 -0.70656,36.76663 -2.24667,40.98749c-1.7612,4.82681 -5.04765,10.24756 -5.04765,10.24756l-13.76677,43.38023c0,0 -23.96311,-5.08957 -35.13516,-7.46243z"/></g></g><path d="M530.62434,133.20944c-0.72351,3.30577 -14.12529,3.12992 -29.93371,-0.39278c-15.80843,-3.52269 -28.03718,-9.05827 -27.31367,-12.36404c0.7235,-3.30577 14.12529,-3.12991 29.93372,0.39278c15.80843,3.52269 28.03718,9.05826 27.31367,12.36403z"/></g><path d="M514.59161,126.6361c-0.33115,1.51307 -5.95642,1.54598 -12.5644,0.07348c-6.60798,-1.4725 -11.69634,-3.89278 -11.36518,-5.40587c0.33116,-1.51308 5.95643,-1.54597 12.56439,-0.07348c6.60797,1.4725 11.69634,3.89279 11.36518,5.40586z" fill="#000000" stroke-width="0"/><g fill="#810000" stroke-width="0"><path d="M453.41433,214.96224c0,0 -1.69903,-1.88605 4.28186,-28.35432c5.14592,-22.77302 6.34899,-50.95737 9.13145,-60.26697c1.19461,-3.99693 5.6772,-9.22505 11.54091,-10.09222c8.13781,-1.20349 18.09398,2.91739 18.09398,2.91739c0,0 -6.09407,-0.66971 -7.10258,4.3898c-3.09235,15.51372 -13.76494,100.29845 -13.76494,100.29845c0,0 -7.48706,-0.85292 -10.83301,-2.1943c-3.94765,-1.5826 -11.34767,-6.69783 -11.34767,-6.69783z"/><path d="M496.2484,228.67641c-3.59461,-0.20523 -10.74133,-2.61324 -10.74133,-2.61324c0,0 25.70635,-81.43466 29.37652,-96.81962c1.19695,-5.01753 -4.60987,-6.99977 -4.60987,-6.99977c0,0 10.75011,0.49324 17.62878,5.04295c4.95643,3.2783 6.8401,9.92504 6.2554,14.05789c-1.36184,9.62617 -12.03386,35.70049 -16.87125,58.54226c-5.62233,26.54817 -7.95052,27.53681 -7.95052,27.53681c0,0 -8.8467,1.49489 -13.08773,1.25275z"/></g><g fill="#810000" stroke-width="0"><path d="M452.44488,214.74621c0,0 -1.76885,-1.90161 4.21827,-28.36849c5.15125,-22.77184 6.19018,-50.99276 8.99727,-60.29687c1.20518,-3.99457 5.79814,-9.19809 11.84943,-10.02347c8.39813,-1.14548 18.71325,3.05539 18.71325,3.05539c0,0 -6.30039,-0.71568 -7.30563,4.34456c-3.08233,15.51595 -13.4943,100.35876 -13.4943,100.35876c0,0 -7.74075,-0.90946 -11.20702,-2.27765c-4.08961,-1.61424 -11.77126,-6.79223 -11.77126,-6.79223z"/><path d="M496.79424,228.79804c-3.71492,-0.23204 -11.11533,-2.69659 -11.11533,-2.69659c0,0 25.96698,-81.37658 29.64715,-96.75931c1.20023,-5.0168 -4.81291,-7.04502 -4.81291,-7.04502c0,0 11.10907,0.57323 18.24805,5.18095c5.14401,3.3201 7.13803,9.99142 6.56392,14.12663c-1.33722,9.63165 -12.1734,35.66941 -17.00544,58.51236c-5.6161,26.54956 -8.01412,27.52264 -8.01412,27.52264c0,0 -9.12836,1.43212 -13.51134,1.15835z"/></g><g fill="#646464" stroke-width="0"><path d="M493.58478,121.51327l1.45119,-6.63067l18.2685,4.07089l-1.45119,6.63066z"/><path d="M511.85327,125.58416c-0.2378,1.08653 -4.52012,1.05604 -9.56482,-0.06811c-5.04471,-1.12414 -8.94147,-2.91625 -8.70367,-4.00278c0.2378,-1.08653 4.52012,-1.05604 9.56482,0.0681c5.04471,1.12414 8.94148,2.91626 8.70368,4.00279z"/><path d="M513.30446,118.9535c-0.2378,1.08653 -4.52012,1.05603 -9.56482,-0.06811c-5.04471,-1.12414 -8.94147,-2.91625 -8.70367,-4.00278c0.2378,-1.08653 4.52012,-1.05604 9.56482,0.06811c5.04471,1.12414 8.94148,2.91626 8.70368,4.00279z"/></g><path d="M441.59378,238.78764c-1.92459,-0.30322 -3.45483,-0.7309 -2.44383,-6.86945c1.01101,-6.13856 2.51864,-5.57369 4.44323,-5.27045c1.92459,0.30322 3.40067,0.20844 2.38967,6.347c-1.01101,6.13856 -2.46449,6.09614 -4.38908,5.79292z" fill="#3a3a3a" stroke-width="0"/><path d="M440.15381,247.50785c-1.92459,-0.30322 -3.45483,-0.73089 -2.44383,-6.86944c1.011,-6.13855 2.51864,-5.57369 4.44324,-5.27045c1.92459,0.30322 3.40066,0.20843 2.38967,6.34699c-1.011,6.13855 -2.46449,6.09615 -4.38909,5.79292z" fill="#3a3a3a" stroke-width="0"/><path d="M434.05491,238.69038c-1.92459,-0.30322 -3.45483,-0.7309 -2.44383,-6.86945c1.01101,-6.13856 2.51864,-5.57368 4.44323,-5.27045c1.92459,0.30322 3.40068,0.20844 2.38967,6.34701c-1.01101,6.13856 -2.46449,6.09614 -4.38908,5.79291z" fill="#3a3a3a" stroke-width="0"/><path d="M432.61496,247.41058c-1.92459,-0.30322 -3.45483,-0.73089 -2.44383,-6.86944c1.011,-6.13855 2.51864,-5.57369 4.44323,-5.27045c1.92459,0.30322 3.40067,0.20844 2.38967,6.347c-1.011,6.13855 -2.46449,6.09615 -4.38908,5.79292z" fill="#3a3a3a" stroke-width="0"/><path d="M426.64498,236.90729c-1.92459,-0.30322 -3.45483,-0.73089 -2.44382,-6.86945c1.01101,-6.13856 2.51864,-5.57368 4.44323,-5.27045c1.92459,0.30322 3.40067,0.20844 2.38968,6.347c-1.01101,6.13856 -2.46449,6.09614 -4.38908,5.79291z" fill="#3a3a3a" stroke-width="0"/><path d="M425.20502,245.62749c-1.92459,-0.30322 -3.45483,-0.73089 -2.44383,-6.86945c1.011,-6.13855 2.51864,-5.57369 4.44324,-5.27045c1.92459,0.30322 3.40065,0.20843 2.38966,6.34699c-1.011,6.13855 -2.46449,6.09615 -4.38908,5.79292z" fill="#3a3a3a" stroke-width="0"/><path d="M451.60655,237.39864c-1.92459,-0.30322 -3.45483,-0.7309 -2.44383,-6.86945c1.011,-6.13855 2.51864,-5.57369 4.44324,-5.27045c1.92459,0.30322 3.40066,0.20844 2.38966,6.347c-1.011,6.13855 -2.46448,6.09614 -4.38907,5.79292z" fill="#3a3a3a" stroke-width="0"/><path d="M451.40698,216.01612c0.30401,-1.38905 1.57504,-2.28679 2.83891,-2.00516c1.26387,0.28163 2.042,1.63599 1.73799,3.02505c-0.30401,1.38905 -1.57503,2.2868 -2.83891,2.00516c-1.26387,-0.28163 -2.04201,-1.636 -1.738,-3.02506z" fill="#646464" stroke-width="0"/><path d="M452.73074,228.47619c-1.92459,-0.30322 -3.45483,-0.73089 -2.44383,-6.86945c1.01101,-6.13856 2.51864,-5.57368 4.44323,-5.27045c1.92459,0.30322 3.40067,0.20844 2.38967,6.347c-1.01101,6.13856 -2.46449,6.09614 -4.38908,5.79291z" fill="#3a3a3a" stroke-width="0"/><path d="M456.07788,211.53371c1.35897,2.81598 -4.8655,5.29765 -6.37242,12.18295c-0.42768,1.9541 -2.765,5.52573 -3.7825,6.76945c-3.26307,3.98863 -18.61012,0.86807 -20.11181,-1.65981c-1.12286,-1.89018 -1.3344,-3.81059 0.19174,-10.78368c3.56717,-16.29881 9.0646,-13.75434 17.40587,-12.29521c5.41292,0.94689 10.81115,1.93632 12.66913,5.78629z" fill="#363636" stroke-width="0"/><path d="M547.36557,113.80164c-10.89323,6.15475 -25.3008,3.48687 -28.53931,-0.34686c-8.16635,-9.66726 -7.4332,-42.51204 -1.86707,-53.36972c2.36798,-4.61917 12.26428,6.31956 24.65101,9.36956c16.72918,4.11925 36.71295,1.7695 36.71295,1.7695c0,0 -14.38201,33.21222 -30.95756,42.57752z" fill="#2f2f2f" stroke-width="0"/><path d="M546.56498,111.35152c-9.81731,5.54684 -22.80186,3.14245 -25.72049,-0.31261c-7.35975,-8.71244 -6.69903,-38.31314 -1.68266,-48.0984c2.1341,-4.16293 11.05293,5.69536 22.21623,8.44413c15.07683,3.7124 33.08683,1.59474 33.08683,1.59474c0,0 -12.9615,29.93186 -27.8999,38.37215z" fill="#252525" stroke-width="0"/><path d="M481.20227,32.04769c0,0 13.5134,15.86178 28.60868,24.57981c11.17694,6.45506 25.39071,5.24181 24.29419,10.37386c-2.57746,12.06325 -22.4414,37.19107 -34.56871,38.67233c-4.80929,0.58741 -17.26296,-7.57994 -21.60001,-19.87824c-6.59942,-18.71357 3.26585,-53.74775 3.26585,-53.74775z" fill="#2f2f2f" stroke-width="0"/><path d="M483.00235,36.0854c0,0 12.17869,14.29511 25.78302,22.15206c10.073,5.8175 22.88286,4.72408 21.89466,9.34924c-2.32287,10.87176 -20.22487,33.51773 -31.15436,34.85268c-4.33427,0.5294 -15.55791,-6.83127 -19.46659,-17.91486c-5.94759,-16.86525 2.94329,-48.4391 2.94329,-48.4391z" fill="#252525" stroke-width="0"/><g fill="#343434" stroke-width="0"><path d="M486.17753,79.5977c6.8071,-19.15929 26.01386,-29.16932 42.89948,-22.35804c16.88563,6.81129 25.05587,27.86459 18.24876,47.02389c-6.8071,19.1593 -26.01385,29.16933 -42.89947,22.35805c-12.20214,-4.92208 -29.55764,-21.15419 -25.36485,-34.29577c2.279,-7.14311 5.22803,-7.41402 7.11608,-12.72813z"/><path d="M542.4639,117.90099c-5.02595,12.8055 -28.11876,12.72167 -40.32091,7.79959c-16.88563,-6.81129 -25.05587,-27.8646 -18.24876,-47.02389c6.8071,-19.15929 26.01386,-29.16932 42.89948,-22.35804c16.88563,6.81129 25.05586,27.86459 18.24875,47.02389c-1.88806,5.31412 0.15328,7.59804 -2.57857,14.55847z"/></g><g fill="#2f2f2f" stroke-width="0"><path d="M487.769,80.79358c6.02064,-16.94571 23.80487,-25.47792 39.72217,-19.05723c15.91731,6.42069 23.94014,25.36291 17.9195,42.30862c-6.02064,16.94571 -23.80486,25.47793 -39.72217,19.05723c-11.50241,-4.63982 -28.02957,-19.47126 -24.34543,-31.10429c2.00251,-6.32314 4.75602,-6.50417 6.42593,-11.20432z"/><path d="M541.10969,116.10645c-4.46951,11.31623 -26.07113,10.76736 -37.57353,6.12755c-15.91731,-6.42069 -23.94015,-25.3629 -17.91951,-42.30861c6.02064,-16.94571 23.80487,-25.47792 39.72218,-19.05723c15.91731,6.42069 23.94015,25.36292 17.91951,42.30862c-1.66991,4.70015 0.28076,6.77875 -2.14864,12.92968z"/></g><path d="M488.04179,83.43573c3.18101,-8.95327 9.44655,-9.78155 15.88913,-7.18276c6.44259,2.59879 10.62254,7.64058 7.44153,16.59384c-3.18101,8.95327 -9.37673,9.58504 -15.81931,6.98625c-6.44259,-2.59879 -10.69235,-7.44408 -7.51135,-16.39733z" fill="#282828" stroke-width="0"/><path d="M495.99011,85.00282c2.31228,-6.50815 6.44687,-7.27959 10.6121,-5.59943c4.16523,1.68016 6.78381,5.17569 4.47153,11.68384c-2.31228,6.50815 -6.39612,7.13676 -10.56135,5.4566c-4.16523,-1.68016 -6.83456,-5.03285 -4.52227,-11.54101z" fill="#ffffff" stroke-width="0"/><path d="M496.75767,85.30414c2.07774,-5.84801 5.79294,-6.54119 9.53569,-5.03145c3.74273,1.50974 6.09571,4.65068 4.01797,10.49869c-2.07774,5.84801 -5.74734,6.41284 -9.49008,4.9031c-3.74273,-1.50974 -6.14132,-4.52235 -4.06358,-10.37034z" fill="#000000" stroke-width="0"/><path d="M497.56739,85.62203c1.83033,-5.15163 5.10312,-5.76227 8.40018,-4.43231c3.29706,1.32996 5.36983,4.09691 3.53951,9.24853c-1.83033,5.15163 -5.06295,5.64921 -8.36001,4.31925c-3.29705,-1.32996 -5.41001,-3.98384 -3.57968,-9.13547z" fill="#ffffff" stroke-width="0"/><g fill="#000000" stroke-width="0"><path d="M504.72087,123.83371c-0.11991,0.31583 -0.28298,0.59464 -0.81812,0.55172c-0.39783,-0.0319 -1.37944,-1.12535 -1.7878,-1.36574c-0.56474,-0.33244 -1.31203,-0.52423 -1.92169,-0.77016c-0.89056,-0.35923 -1.95113,-0.63988 -2.77982,-1.12633c-1.70734,-1.00221 -3.2742,-2.79031 -4.85365,-4.04351c-0.99669,-0.79179 -2.31115,-1.44863 -3.18214,-2.33854c-1.55327,-1.58698 -2.47796,-3.83725 -3.45061,-5.73709c-1.17322,-2.31166 -2.38351,-4.66996 -2.76639,-7.17329c-0.16518,-1.07995 -0.68549,-2.15806 -0.31148,-3.21075c-0.05519,-2.38889 0.37171,-5.04306 1.15019,-7.23417c0,0 0.12066,-0.3396 0.49183,-0.18988c0.17503,0.07061 0.24068,0.18343 0.26121,0.28296c0.09082,0.11548 0.09192,0.25441 0.09192,0.25441c-0.00685,3.02071 1.35608,5.27849 3.31223,7.79632c0.68025,1.20031 1.23852,2.83225 2.11584,3.89244c1.50284,1.81611 4.55939,2.16944 6.63077,3.00499c1.97899,0.79829 2.83582,2.23978 4.40478,3.47594c1.21681,0.95871 3.08098,1.48499 4.5187,2.06493c0.28774,0.11607 0.51528,0.22386 0.76977,0.29122l0.13669,-0.03508c0.63545,0.05642 0.90463,0.09325 1.51178,0.40434c0.02981,0.23262 0.046,0.46098 0.05014,0.68551"/><path d="M507.44015,113.08791c0.16327,-0.19703 0.34199,-0.38639 0.53856,-0.56687c0.64827,0.19532 0.87287,0.35769 1.38407,0.76378l0.08061,0.12274c0.23255,0.12909 0.47006,0.20888 0.75779,0.32494c1.43771,0.57994 3.1616,1.50102 4.66922,1.64127c1.9439,0.18084 3.48182,-0.29466 5.46081,0.50362c2.07137,0.83554 4.58124,2.72759 6.83605,2.42723c1.31628,-0.17534 2.74886,-1.00421 4.00458,-1.4236c3.03057,-0.5063 5.45505,-1.23632 7.32731,-3.50456c0,0 0.08717,-0.10333 0.22699,-0.12577c0.07723,-0.0601 0.19655,-0.0983 0.37159,-0.02769c0.37117,0.14972 0.25051,0.48932 0.25051,0.48932c-0.77848,2.19111 -2.10819,4.4811 -3.63425,6.23215c-0.37401,1.0527 -1.43394,1.49338 -2.22891,2.18603c-1.84275,1.60558 -4.21531,2.51863 -6.53111,3.42289c-1.90958,0.73722 -4.00101,1.77084 -6.15118,1.86393c-1.20572,0.05221 -2.59888,-0.38315 -3.83779,-0.49314c-1.96236,-0.17548 -4.24773,0.05872 -6.1499,-0.39507c-0.92327,-0.22025 -1.89238,-0.75833 -2.78294,-1.11756c-0.60965,-0.24592 -1.28879,-0.62953 -1.91857,-0.77892c-0.4554,-0.10802 -1.87049,0.01864 -2.18841,-0.23818c-0.37148,-0.30007 -0.38173,-0.58395 -0.30824,-0.86391"/></g><path d="M487.60469,124.56971c0,0 -1.96168,-3.88215 -2.90086,-8.13591c-0.19808,-0.8972 -0.90774,-4.91479 -0.57775,-7.98667c0.6252,-5.81976 1.5229,-12.26981 1.5229,-12.26981c0,0 4.34033,7.65923 5.81785,8.25523c1.45227,0.58581 6.9145,2.9738 6.9145,2.9738c0,0 -6.7784,3.06676 -8.61693,6.13923c-1.92525,3.2174 -2.15973,11.02415 -2.15973,11.02415z" fill="#ffffff" stroke-width="0"/><g fill="#ffffff" stroke-width="0"><g><path d="M504.09074,111.14474l-0.54854,1.5439c0,0 -0.83671,-0.33751 -1.13158,-0.45646c-0.18921,-0.07632 -0.35393,-0.50324 -0.28232,-0.70481c0.10095,-0.28414 0.3649,-1.02705 0.3649,-1.02705z"/><path d="M504.64161,111.36695c0,0 -0.26395,0.74291 -0.3649,1.02705c-0.07162,0.20157 -0.46037,0.40522 -0.64959,0.3289c-0.29487,-0.11894 -1.13159,-0.45646 -1.13159,-0.45646l0.54853,-1.5439z"/></g><g><path d="M506.38945,112.07199l-0.54854,1.5439c0,0 -0.83671,-0.33751 -1.13158,-0.45646c-0.18921,-0.07632 -0.35394,-0.50324 -0.28232,-0.70481c0.10095,-0.28414 0.3649,-1.02704 0.3649,-1.02704z"/><path d="M506.94031,112.2942c0,0 -0.26395,0.74291 -0.3649,1.02705c-0.07162,0.20157 -0.46037,0.40522 -0.64959,0.3289c-0.29487,-0.11894 -1.13158,-0.45645 -1.13158,-0.45645l0.54853,-1.5439z"/></g><g><path d="M508.61299,112.96892l-0.54854,1.5439c0,0 -0.83671,-0.33751 -1.13158,-0.45646c-0.18921,-0.07632 -0.35394,-0.50323 -0.28232,-0.7048c0.10095,-0.28414 0.3649,-1.02705 0.3649,-1.02705z"/><path d="M509.16387,113.19113c0,0 -0.26395,0.74291 -0.3649,1.02705c-0.07162,0.20157 -0.46037,0.40523 -0.64959,0.3289c-0.29487,-0.11894 -1.13158,-0.45646 -1.13158,-0.45646l0.54853,-1.5439z"/></g><g><path d="M510.83655,113.86585l-0.54853,1.5439c0,0 -0.83672,-0.33751 -1.13159,-0.45646c-0.18921,-0.07632 -0.35393,-0.50323 -0.28231,-0.7048c0.10095,-0.28414 0.36489,-1.02705 0.36489,-1.02705z"/><path d="M511.38741,114.08806c0,0 -0.26395,0.74291 -0.3649,1.02705c-0.07162,0.20157 -0.46037,0.40523 -0.64959,0.3289c-0.29487,-0.11894 -1.13159,-0.45646 -1.13159,-0.45646l0.54854,-1.5439z"/></g><g><path d="M513.06008,114.76278l-0.54853,1.5439c0,0 -0.83672,-0.33751 -1.13159,-0.45646c-0.18921,-0.07632 -0.35393,-0.50323 -0.28232,-0.7048c0.10095,-0.28414 0.3649,-1.02705 0.3649,-1.02705z"/><path d="M513.61098,114.985c0,0 -0.26395,0.74291 -0.3649,1.02705c-0.07161,0.20157 -0.46037,0.40522 -0.64959,0.3289c-0.29488,-0.11894 -1.13158,-0.45646 -1.13158,-0.45646l0.54854,-1.5439z"/></g></g><g fill="#ffffff" stroke-width="0"><g><path d="M498.48053,121.79444c0,0 0.26395,-0.7429 0.3649,-1.02704c0.07162,-0.20157 0.46037,-0.40523 0.64959,-0.3289c0.29487,0.11894 1.13158,0.45646 1.13158,0.45646l-0.54853,1.5439z"/><path d="M499.03141,122.01665l0.54853,-1.5439c0,0 0.83672,0.33751 1.13159,0.45645c0.18921,0.07632 0.35393,0.50324 0.28231,0.70481c-0.10095,0.28414 -0.3649,1.02705 -0.3649,1.02705z"/></g><g><path d="M500.77923,122.72168c0,0 0.26395,-0.74291 0.3649,-1.02705c0.07162,-0.20157 0.46036,-0.40523 0.64958,-0.3289c0.29487,0.11894 1.13159,0.45646 1.13159,0.45646l-0.54854,1.5439z"/><path d="M501.33009,122.94389l0.54853,-1.5439c0,0 0.83671,0.33751 1.13158,0.45646c0.18921,0.07632 0.35393,0.50324 0.28232,0.70481c-0.10095,0.28414 -0.3649,1.02705 -0.3649,1.02705z"/></g><g><path d="M503.00277,123.61861c0,0 0.26395,-0.74291 0.3649,-1.02705c0.07162,-0.20157 0.46037,-0.40523 0.64958,-0.3289c0.29487,0.11894 1.13158,0.45646 1.13158,0.45646l-0.54853,1.5439z"/><path d="M503.55366,123.84083l0.54853,-1.5439c0,0 0.83671,0.33751 1.13158,0.45646c0.18921,0.07632 0.35394,0.50324 0.28232,0.70481c-0.10095,0.28414 -0.3649,1.02705 -0.3649,1.02705z"/></g><g><path d="M505.22634,124.51555c0,0 0.26395,-0.74291 0.3649,-1.02705c0.07162,-0.20157 0.46037,-0.40523 0.64959,-0.3289c0.29487,0.11894 1.13158,0.45646 1.13158,0.45646l-0.54854,1.5439z"/><path d="M505.7772,124.73775l0.54854,-1.5439c0,0 0.83671,0.33751 1.13158,0.45646c0.18921,0.07632 0.35393,0.50324 0.28232,0.70481c-0.10095,0.28414 -0.3649,1.02705 -0.3649,1.02705z"/></g><g><path d="M507.44987,125.41247c0,0 0.26395,-0.74291 0.3649,-1.02705c0.07162,-0.20157 0.46037,-0.40523 0.64959,-0.3289c0.29487,0.11894 1.13158,0.45646 1.13158,0.45646l-0.54853,1.5439z"/><path d="M508.00076,125.63469l0.54853,-1.5439c0,0 0.83671,0.33751 1.13158,0.45646c0.18921,0.07632 0.35393,0.50323 0.28232,0.7048c-0.10095,0.28414 -0.3649,1.02705 -0.3649,1.02705z"/></g></g><path d="M521.25598,126.24857c0.53196,-3.5995 -2.64107,-10.68045 -2.64107,-10.68045c0,0 5.577,2.065 7.02926,2.65081c1.47752,0.596 9.48998,-2.08039 9.48998,-2.08039c0,0 -3.33612,5.46647 -6.48468,10.26834c-1.66192,2.5346 -4.69063,5.04422 -5.39668,5.57672c-3.34747,2.52463 -7.23014,4.0493 -7.23014,4.0493c0,0 4.67628,-6.01503 5.23333,-9.78432z" fill="#ffffff" stroke-width="0"/><g fill="none" stroke-width="1.5"><path d="M504.72087,123.83371c-0.11991,0.31583 -0.28298,0.59464 -0.81812,0.55172c-0.39783,-0.0319 -1.37944,-1.12535 -1.7878,-1.36574c-0.56474,-0.33244 -1.31203,-0.52423 -1.92169,-0.77016c-0.89056,-0.35923 -1.95113,-0.63988 -2.77982,-1.12633c-1.70734,-1.00221 -3.2742,-2.79031 -4.85365,-4.04351c-0.99669,-0.79179 -2.31115,-1.44863 -3.18214,-2.33854c-1.55327,-1.58698 -2.47796,-3.83725 -3.45061,-5.73709c-1.17322,-2.31166 -2.38351,-4.66996 -2.76639,-7.17329c-0.16518,-1.07995 -0.68549,-2.15806 -0.31148,-3.21075c-0.05519,-2.38889 0.37171,-5.04306 1.15019,-7.23417c0,0 0.12066,-0.3396 0.49183,-0.18988c0.17503,0.07061 0.24068,0.18343 0.26121,0.28296c0.09082,0.11548 0.09192,0.25441 0.09192,0.25441c-0.00685,3.02071 1.35608,5.27849 3.31223,7.79632c0.68025,1.20031 1.23852,2.83225 2.11584,3.89244c1.50284,1.81611 4.55939,2.16944 6.63077,3.00499c1.97899,0.79829 2.83582,2.23978 4.40478,3.47594c1.21681,0.95871 3.08098,1.48499 4.5187,2.06493c0.28774,0.11607 0.51528,0.22386 0.76977,0.29122l0.13669,-0.03508c0.63545,0.05642 0.90463,0.09325 1.51178,0.40434c0.02981,0.23262 0.046,0.46098 0.05014,0.68551"/><path d="M507.44015,113.08791c0.16327,-0.19703 0.34199,-0.38639 0.53856,-0.56687c0.64827,0.19532 0.87287,0.35769 1.38407,0.76378l0.08061,0.12274c0.23255,0.12909 0.47006,0.20888 0.75779,0.32494c1.43771,0.57994 3.1616,1.50102 4.66922,1.64127c1.9439,0.18084 3.48182,-0.29466 5.46081,0.50362c2.07137,0.83554 4.58124,2.72759 6.83605,2.42723c1.31628,-0.17534 2.74886,-1.00421 4.00458,-1.4236c3.03057,-0.5063 5.45505,-1.23632 7.32731,-3.50456c0,0 0.08717,-0.10333 0.22699,-0.12577c0.07723,-0.0601 0.19655,-0.0983 0.37159,-0.02769c0.37117,0.14972 0.25051,0.48932 0.25051,0.48932c-0.77848,2.19111 -2.10819,4.4811 -3.63425,6.23215c-0.37401,1.0527 -1.43394,1.49338 -2.22891,2.18603c-1.84275,1.60558 -4.21531,2.51863 -6.53111,3.42289c-1.90958,0.73722 -4.00101,1.77084 -6.15118,1.86393c-1.20572,0.05221 -2.59888,-0.38315 -3.83779,-0.49314c-1.96236,-0.17548 -4.24773,0.05872 -6.1499,-0.39507c-0.92327,-0.22025 -1.89238,-0.75833 -2.78294,-1.11756c-0.60965,-0.24592 -1.28879,-0.62953 -1.91857,-0.77892c-0.4554,-0.10802 -1.87049,0.01864 -2.18841,-0.23818c-0.37148,-0.30007 -0.38173,-0.58395 -0.30824,-0.86391"/></g><path d="M487.60469,124.56971c0,0 -1.96168,-3.88215 -2.90086,-8.13591c-0.19808,-0.8972 -0.90774,-4.91479 -0.57775,-7.98667c0.13137,-1.22288 0.27478,-2.47361 0.41935,-3.68645c0.62176,0.43037 1.24191,0.84656 1.81421,1.26178c2.21037,1.60365 4.472,3.02905 6.7869,4.33432c-1.4041,0.96542 -2.71669,2.07674 -3.38213,3.18881c-1.92525,3.2174 -2.15972,11.02415 -2.15972,11.02415z" fill="#ffffff" stroke-width="0"/><path d="M521.25598,126.24857c0.22088,-1.49466 -0.19706,-3.58964 -0.76138,-5.52864c3.52648,1.17596 7.114,1.83838 10.77125,1.62407c-0.83501,1.31634 -1.73307,2.71577 -2.61635,4.06288c-1.66192,2.53461 -4.69064,5.04422 -5.39669,5.57671c-3.34747,2.52463 -7.23014,4.0493 -7.23014,4.0493c0,0 4.67628,-6.01504 5.23333,-9.78433z" fill="#ffffff" stroke-width="0"/><path d="M525.59249,111.95027c-6.44259,-2.59879 -10.69236,-7.44408 -7.51135,-16.39733c3.18101,-8.95327 9.44655,-9.78156 15.88913,-7.18277c6.44259,2.59879 10.62254,7.64058 7.44154,16.59384c-3.18101,8.95327 -9.37673,9.58505 -15.81931,6.98626z" fill="#282828" stroke-width="0"/><path d="M526.05835,110.63907c-6.50899,-2.62558 -10.68034,-7.86483 -7.06695,-18.03508c3.61339,-10.17026 8.46819,-15.17273 14.97718,-12.54715c6.50899,2.62558 12.20736,11.88499 8.59397,22.05523c-3.61339,10.17025 -9.9952,11.15259 -16.50419,8.527z" fill="#000000" stroke-width="0"/><path d="M522.17085,103.36127c-4.16523,-1.68016 -6.83455,-5.03285 -4.52227,-11.541c2.31228,-6.50815 6.44688,-7.27959 10.6121,-5.59943c4.16523,1.68016 6.78381,5.17569 4.47153,11.68384c-2.31228,6.50816 -6.39612,7.13677 -10.56136,5.4566z" fill="#ffffff" stroke-width="0"/><path d="M522.47971,102.49196c-3.74274,-1.50974 -6.14131,-4.52235 -4.06358,-10.37034c2.07774,-5.84801 5.79294,-6.54119 9.53568,-5.03145c3.74274,1.50974 6.09571,4.65068 4.01797,10.49869c-2.07774,5.84801 -5.74734,6.41284 -9.49008,4.9031z" fill="#000000" stroke-width="0"/><path d="M522.80552,101.57494c-3.29705,-1.32996 -5.41001,-3.98383 -3.57969,-9.13546c1.83033,-5.15163 5.10313,-5.76227 8.40019,-4.4323c3.29706,1.32996 5.36983,4.0969 3.53951,9.24852c-1.83033,5.15163 -5.06295,5.64921 -8.36001,4.31925z" fill="#ffffff" stroke-width="0"/><path d="M488.95209,80.4868c3.61339,-10.17025 13.63796,-13.08737 20.14694,-10.46179c6.50898,2.62558 7.0376,9.79961 3.4242,19.96986c-3.61339,10.17025 -9.99521,11.15258 -16.50419,8.527c-6.50898,-2.62558 -10.68034,-7.86483 -7.06695,-18.03508z" fill="#000000" stroke-width="0"/><g fill="#252525" stroke-width="0"><path d="M518.53399,107.12066c-0.915,2.57538 -4.94529,3.33662 -9.00191,1.70028c-4.05661,-1.63635 -6.60338,-5.05062 -5.68837,-7.62601c0.91501,-2.57538 4.9453,-3.33662 9.0019,-1.70028c4.05661,1.63635 6.60338,5.05062 5.68837,7.62601z"/><path d="M516.19024,107.9524c-0.915,2.57538 -4.14323,3.66017 -7.21042,2.42293c-3.0672,-1.23724 -4.81189,-4.32798 -3.89688,-6.90337c0.91501,-2.57538 4.14322,-3.66016 7.21042,-2.42292c3.06719,1.23724 4.81189,4.32797 3.89688,6.90336z"/></g><g stroke-width="0"><g fill="#252525"><path d="M545.4253,73.50601c-0.5161,1.45261 -5.3735,0.83958 -21.46477,-5.65128c-16.09126,-6.49086 -20.35779,-9.55821 -19.84169,-11.01083c0.5161,-1.45262 5.61939,-0.74039 21.71065,5.75046c16.09126,6.49086 20.11192,9.45903 19.59582,10.91165z"/><path d="M525.58361,62.49518c16.09126,6.49086 20.35779,9.55821 19.84169,11.01083c-0.5161,1.45261 -5.61938,0.7404 -21.71064,-5.75046c-16.09126,-6.49086 -20.11192,-9.45903 -19.59582,-10.91165c0.5161,-1.45262 5.37351,-0.83958 21.46478,5.65128z"/></g><path d="M504.11353,56.85883l1.87957,-5.29023l41.30645,16.66211l-1.87957,5.29024z" fill="#252525"/><g fill="#202020"><path d="M547.29956,68.23072c-0.5161,1.45261 -5.3735,0.83958 -21.46477,-5.65128c-16.09126,-6.49086 -20.35779,-9.55821 -19.84169,-11.01083c0.5161,-1.45262 5.61939,-0.74039 21.71065,5.75046c16.09126,6.49086 20.11192,9.45904 19.59582,10.91165z"/><path d="M527.45787,57.2199c16.09126,6.49086 20.35779,9.55821 19.84169,11.01082c-0.5161,1.45261 -5.61938,0.7404 -21.71064,-5.75046c-16.09126,-6.49086 -20.11192,-9.45904 -19.59582,-10.91165c0.5161,-1.45262 5.3735,-0.83957 21.46477,5.65129z"/></g><g fill="#252525"><path d="M541.15986,65.16612c-0.33382,0.93957 -7.02055,-0.88689 -14.93525,-4.0795c-7.91468,-3.19261 -14.0602,-6.54241 -13.72639,-7.48197c0.33382,-0.93957 7.02055,0.8869 14.93525,4.07951c7.91468,3.19261 14.06021,6.5424 13.72639,7.48196z"/><path d="M512.49822,53.60465c0,0 3.55884,-9.10035 4.43906,-14.0519c0.85635,-4.81726 0.77263,-15.2656 0.77263,-15.2656l18.74808,7.56256l4.70186,33.31642z"/><path d="M512.49822,53.60465l24.22952,-21.64614l18.74808,7.56256c0,0 -6.55647,7.76984 -8.90877,11.98366c-2.41788,4.33129 -5.4072,13.66139 -5.4072,13.66139z"/></g><path d="M555.47581,39.52108c-0.8217,2.31276 -9.942,0.77739 -20.37077,-3.42934c-10.42876,-4.20673 -18.21682,-9.49183 -17.39513,-11.80459c0.8217,-2.31276 9.942,-0.7774 20.37077,3.42934c10.42876,4.20673 18.21682,9.49184 17.39513,11.8046z" fill="#202020"/></g><g stroke-width="0"><path d="M495.06009,84.59976c2.31228,-6.50815 6.44687,-7.27959 10.6121,-5.59943c4.16523,1.68016 6.78381,5.17568 4.47153,11.68383c-2.31228,6.50815 -6.39612,7.13677 -10.56135,5.45661c-4.16523,-1.68016 -6.83456,-5.03285 -4.52227,-11.54101z" fill="#ffffff"/><path d="M495.82766,84.90109c2.07774,-5.84801 5.79294,-6.54119 9.53568,-5.03145c3.74273,1.50974 6.09571,4.65068 4.01797,10.49869c-2.07774,5.84801 -5.74734,6.41284 -9.49008,4.9031c-3.74273,-1.50974 -6.14131,-4.52235 -4.06358,-10.37034z" fill="#000000"/><path d="M500.2126,94.35749c-3.29705,-1.32996 -5.41001,-3.98383 -3.57969,-9.13546c1.83033,-5.15163 5.10313,-5.76227 8.40018,-4.43231c3.29706,1.32996 5.36984,4.09691 3.53952,9.24853c-1.83033,5.15163 -5.06295,5.64921 -8.36001,4.31925z" fill="#ffffff"/></g><path d="M513.24935,97.73605l2.375,-12.625l7.875,-1.5c0,0 -3.35838,5.249 -4.2527,7.54522c-1.11301,2.85774 -1.4973,9.45478 -1.4973,9.45478z" fill="#2f2f2f" stroke-width="0"/><path d="M526.47484,110.7738c-6.44259,-2.59879 -11.57471,-6.26761 -8.39371,-15.22086c1.73356,-4.87928 -2.07789,4.58441 1.31061,10.17936c3.34594,5.52468 9.94948,6.19773 7.0831,5.0415z" fill="#282828" stroke-width="0"/></g></g></g></svg>