<svg version="1.1" xmlns="http://www.w3.org/2000/svg" xmlns:xlink="http://www.w3.org/1999/xlink" width="416.17126" height="418.04745" viewBox="0,0,416.17126,418.04745"><defs><linearGradient x1="226.54523" y1="221.30051" x2="228.29547" y2="228.04248" gradientUnits="userSpaceOnUse" id="color-1"><stop offset="0" stop-color="#000000" stop-opacity="0"/><stop offset="1" stop-color="#000000"/></linearGradient></defs><g transform="translate(-120.48422,-69.47322)"><g stroke-miterlimit="10"><path d="M304.42128,234.3944c-0.35811,4.60765 -4.38367,8.05261 -8.9913,7.6945c-4.60766,-0.3581 -8.05261,-4.38367 -7.6945,-8.99131c0.35811,-4.60765 4.38367,-8.0526 8.99131,-7.69449c4.60766,0.3581 8.0526,4.38367 7.6945,8.9913z" fill="#4e4e4e" stroke="#2b2b2b" stroke-width="0"/><path d="M294.80015,233.64665c0.84591,-10.88422 2.17204,-19.65781 47.86848,-16.10632c45.69644,3.5515 34.96185,11.59389 34.11594,22.47809c-0.84591,10.88422 8.51716,20.48859 -37.17926,16.93709c-45.69644,-3.5515 -45.65106,-12.42464 -44.80514,-23.30886z" fill="#2b2b2b" stroke="#2b2b2b" stroke-width="0"/><path d="M387.23444,240.83059c-0.35811,4.60765 -4.38364,8.05259 -8.9913,7.6945c-4.60766,-0.3581 -8.0526,-4.38363 -7.6945,-8.9913c0.35811,-4.60765 4.38365,-8.0526 8.9913,-7.69449c4.60766,0.3581 8.0526,4.38364 7.6945,8.99132z" fill="#4e4e4e" stroke="#2b2b2b" stroke-width="0"/><path d="M294.80015,233.64665c0.84591,-10.88419 2.17204,-19.65781 47.86848,-16.10632c45.69644,3.5515 34.96185,11.59389 34.11594,22.47809c-0.84591,10.88419 8.51716,20.48859 -37.17926,16.93709c-45.69644,-3.5515 -45.65106,-12.42467 -44.80514,-23.30886z" fill="#2b2b2b" stroke="#2b2b2b" stroke-width="0"/><g fill="#262626" stroke="#2b2b2b" stroke-width="0"><g><path d="M270.41206,382.21193c-7.22351,1.87524 -14.79424,-0.73932 -21.37619,-0.28375c-9.13831,0.63251 -12.83208,5.37474 -18.32561,0.26075c-3.44992,-3.21159 -9.07843,-20.59772 -9.9901,-24.10957c-3.40902,-13.13174 11.69572,-25.39797 35.2465,-31.5118c12.14271,-3.15227 25.8535,52.68283 14.4454,55.64439z"/></g><g><path d="M251.35213,327.76547c23.55078,-6.11383 42.71472,-2.74382 46.12375,10.38791c0.91169,3.51185 4.45094,21.44036 2.99884,25.92453c-2.31225,7.1404 -7.84633,4.79373 -16.13835,8.68618c-5.97239,2.80357 -11.31534,8.77054 -18.53887,10.64579c-11.40809,2.96156 -26.5881,-52.49212 -14.44539,-55.64439z"/></g></g><path d="M233.82614,230.59439l0.2068,-10.85811l57.66028,1.09828l-0.20681,10.85812z" fill="#4e4e4e" stroke="#2b2b2b" stroke-width="0"/><path d="M174.16835,262.14866l-5.46232,-9.38639l49.84494,-29.00684l5.46232,9.38639z" fill="#4e4e4e" stroke="#2b2b2b" stroke-width="0"/><g stroke="#2b2b2b" stroke-width="0"><path d="M124.86789,415.55359c1.20419,-4.4619 5.79747,-7.10282 10.25938,-5.89863c4.46191,1.20419 7.10282,5.79747 5.89862,10.25939c-1.20419,4.4619 -5.79747,7.10283 -10.25939,5.89863c-4.46191,-1.20419 -7.10281,-5.79746 -5.8986,-10.25939z" fill="#4e4e4e"/><path d="M143.84387,345.24159c1.20419,-4.4619 5.79746,-7.10282 10.25936,-5.89863c4.46191,1.20419 7.10283,5.79748 5.89863,10.2594c-1.20419,4.4619 -5.79747,7.10282 -10.25939,5.89862c-4.46191,-1.20419 -7.10281,-5.79746 -5.8986,-10.25939z" fill="#4e4e4e"/><path d="M165.48674,265.0479c1.20419,-4.46191 5.79748,-7.10283 10.2594,-5.89863c4.46191,1.20419 7.10282,5.79747 5.89862,10.25939c-1.20419,4.4619 -5.79747,7.10282 -10.25939,5.89862c-4.46191,-1.20419 -7.10283,-5.79747 -5.89863,-10.25939z" fill="#4e4e4e"/><path d="M180.87408,316.01208c-11.94257,44.25102 -17.86064,32.21408 -28.40058,29.36954c-10.53994,-2.84454 -21.71044,4.58047 -9.76785,-39.67053c11.94257,-44.25101 20.65422,-42.56518 31.19415,-39.72064c10.53994,2.84454 18.91686,5.77062 6.97429,50.02164z" fill="#2b2b2b"/><path d="M160.99067,384.07661c-10.57847,39.19656 -18.96708,38.82534 -28.72763,36.19114c-9.76055,-2.6342 -17.19689,-6.53386 -6.61842,-45.73043c10.57847,-39.19656 16.1943,-28.55133 25.95484,-25.91714c9.76055,2.6342 19.96967,-3.74012 9.3912,35.45642z" fill="#2b2b2b"/></g><g fill="#2b2b2b" stroke="#2b2b2b" stroke-width="0"><g><path d="M264.34567,369.55818c-26.1837,6.79735 -40.6721,11.86961 -51.78063,-30.92102c-3.35243,-12.91374 -23.80429,-38.51777 -24.27118,-49.7538c-1.08016,-25.99539 26.94342,-33.32483 45.22519,-38.07082c6.68282,-1.73487 37.23699,117.08149 30.82662,118.74563z"/></g><g><path d="M234.11618,250.65753c18.28177,-4.74599 46.33184,-11.97337 58.03283,11.26482c5.05753,10.04427 -0.35736,42.36338 2.99506,55.27711c11.10854,42.79064 -4.01758,45.40636 -30.20129,52.2037c-6.41037,1.66415 -37.50943,-117.01076 -30.82661,-118.74563z"/></g></g><g fill="#2b2b2b" stroke="#2b2b2b" stroke-width="0"><path d="M238.16057,275.16391c6.84041,26.3496 4.97198,49.63479 -4.17329,52.00892c-9.14525,2.37413 -48.74581,-26.9757 -55.58622,-53.32532c-6.84041,-26.3496 14.92501,-42.74671 22.53732,-46.86571c8.37104,-4.52954 30.38178,21.8325 37.22219,48.1821z"/><path d="M250.99079,213.98811c8.65461,-0.10394 35.64751,3.63541 42.48793,29.98502c6.84041,26.3496 -13.4831,71.25586 -22.62835,73.62998c-9.14525,2.37413 -22.10419,-17.06185 -28.94461,-43.41144c-6.84041,-26.3496 -0.43219,-60.08925 9.08504,-60.20355z"/><path d="M238.29662,267.98845c-18.70987,4.85712 -43.03443,-26.47954 -44.52205,-32.2099c-1.48761,-5.73035 12.47377,-14.31319 31.18364,-19.1703c18.70987,-4.85713 35.08315,-4.14923 36.57076,1.58113c1.48761,5.73035 -4.52249,44.94196 -23.23236,49.79907z"/><path d="M284.09866,274.40812c6.14273,23.66209 -7.39016,47.64991 -30.22653,53.57829c-22.83638,5.92837 -46.32858,-8.44765 -52.47131,-32.10975c-6.14273,-23.66209 7.39016,-47.64991 30.22652,-53.57828c22.83638,-5.92837 46.3286,8.44764 52.47133,32.10974z"/></g><g fill="#323232" stroke="#2b2b2b" stroke-width="0"><g><g><path d="M263.54411,366.28433c-22.21047,5.76589 -34.46478,10.20534 -45.12557,-30.86054c-3.2173,-12.39321 -21.40355,-37.33938 -22.1074,-48.05608c-1.62839,-24.79395 22.14129,-31.0169 37.64889,-35.0427c5.66875,-1.47162 35.02171,112.54772 29.58409,113.95934z"/></g><g><path d="M234.46654,252.19352c15.50761,-4.02581 39.30273,-10.15079 49.9403,12.30437c4.59789,9.70582 0.8425,40.34806 4.05981,52.74127c10.66078,41.06588 -2.20556,43.14779 -24.41602,48.91367c-5.43763,1.41162 -35.25282,-112.48772 -29.58408,-113.95933z"/></g></g><g><path d="M238.58989,275.64931c6.5647,25.28753 5.59773,47.41966 -2.15978,49.43353c-7.75751,2.01386 -42.42299,-27.01974 -48.9877,-52.30727c-6.56469,-25.28753 11.60668,-40.31844 18.00578,-44.03612c7.0369,-4.08823 26.57699,21.6223 33.1417,46.90984z"/><path d="M247.90544,217.71748c7.39941,0.13555 30.58753,4.42945 37.15224,29.71698c6.5647,25.28753 -9.60073,67.51695 -17.35825,69.53082c-7.75752,2.01386 -19.36794,-16.85316 -25.93264,-42.14069c-6.56469,-25.28753 -1.99823,-57.25615 6.13866,-57.1071z"/><path d="M238.51178,268.81723c-15.87073,4.12008 -37.52465,-26.39225 -38.9523,-31.89164c-1.42765,-5.49938 10.28079,-13.29748 26.15152,-17.41756c15.87073,-4.12008 29.89385,-3.00193 31.3215,2.49744c1.42765,5.49938 -2.64999,42.69168 -18.52073,46.81176z"/><path d="M277.8599,276.17431c5.89514,22.70835 -5.0293,45.19372 -24.40038,50.2225c-19.37108,5.02878 -39.85339,-9.30335 -45.74852,-32.01168c-5.89514,-22.70835 5.02929,-45.19372 24.40037,-50.22249c19.37109,-5.02877 39.85341,9.30335 45.74854,32.01168z"/></g></g><path d="M246.16821,217.24413c0.74655,2.87576 -7.04123,9.17154 -17.93025,11.99835c-10.88902,2.82681 -20.75581,1.11418 -21.50236,-1.76157c-0.74655,-2.87576 7.47553,-7.49862 18.36455,-10.32542c10.88902,-2.82681 20.3215,-2.78711 21.06806,0.08864z" fill="#000000" stroke="#2b2b2b" stroke-width="0"/><path d="M253.54519,245.13011c-2.62737,-10.12075 -0.91345,-20.02249 -2.77184,-25.92745c-1.37002,-4.35322 -8.15989,-5.53321 -7.3098,-5.75389c10.50982,-2.72836 45.06497,0.26454 50.26187,20.28323c1.96184,7.5571 2.36893,31.77102 3.06892,51.99773c0.3755,10.85011 19.75116,42.36416 20.22999,53.21021c0.59368,13.44747 -26.02638,23.17665 -27.9499,23.676c-5.12458,1.33034 -14.12191,-56.03131 -20.36941,-71.4765c-6.56532,-16.23085 -12.49694,-35.75171 -15.15982,-46.00931z" fill="#770000" stroke="#2b2b2b" stroke-width="0"/><g stroke="#2b2b2b" stroke-width="0"><g><path d="M123.83762,479.90386c0.14878,-1.2121 1.25201,-2.07409 2.4641,-1.92532c1.2121,0.14878 2.07408,1.25199 1.9253,2.46409c-0.14878,1.2121 -1.252,2.07411 -2.46409,1.92533c-1.21209,-0.14878 -2.07409,-1.25201 -1.92531,-2.46411z" fill="#4e4e4e"/><path d="M125.4507,466.76227c0.14878,-1.2121 1.25199,-2.07408 2.46409,-1.9253c1.2121,0.14878 2.07409,1.25199 1.92531,2.46409c-0.14878,1.2121 -1.25199,2.07409 -2.46409,1.92532c-1.2121,-0.14878 -2.07409,-1.25201 -1.92531,-2.4641z" fill="#4e4e4e"/><path d="M132.98792,459.7025c-0.91841,7.4822 -2.91901,7.57544 -5.33634,7.27873c-2.41734,-0.29673 -4.33598,-0.87103 -3.41758,-8.35322c0.91841,-7.4822 2.95098,-7.83599 5.36831,-7.53927c2.41734,0.29673 4.30401,1.13158 3.38561,8.61377z" fill="#262626"/><path d="M125.9107,481.16422c-2.41732,-0.29672 -4.304,-1.13158 -3.3856,-8.61377c0.91841,-7.4822 2.66717,-5.52376 5.08449,-5.22704c2.41733,0.29672 4.58782,-1.18064 3.66942,6.30155c-0.91841,7.4822 -2.951,7.83598 -5.36831,7.53926z" fill="#262626"/></g><g><path d="M132.62418,482.398c0.14878,-1.2121 1.25199,-2.07409 2.46409,-1.92531c1.2121,0.14878 2.07409,1.252 1.92531,2.46409c-0.14878,1.2121 -1.252,2.07409 -2.4641,1.92531c-1.2121,-0.14878 -2.07408,-1.252 -1.9253,-2.46409z" fill="#4e4e4e"/><path d="M134.23725,469.25641c0.14878,-1.2121 1.25199,-2.07409 2.46409,-1.92532c1.2121,0.14878 2.07409,1.25201 1.92531,2.4641c-0.14878,1.2121 -1.25199,2.07408 -2.46409,1.9253c-1.2121,-0.14878 -2.07409,-1.25199 -1.92531,-2.46409z" fill="#4e4e4e"/><path d="M141.77449,462.19664c-0.91841,7.4822 -2.91901,7.57546 -5.33634,7.27875c-2.41733,-0.29672 -4.33599,-0.87104 -3.41758,-8.35324c0.91841,-7.4822 2.95101,-7.83599 5.36832,-7.53927c2.41733,0.29672 4.304,1.13158 3.3856,8.61377z" fill="#262626"/><path d="M134.69723,483.65837c-2.41733,-0.29672 -4.304,-1.13158 -3.3856,-8.61377c0.91841,-7.4822 2.66717,-5.52376 5.08449,-5.22704c2.41733,0.29672 4.58782,-1.18066 3.66941,6.30154c-0.91841,7.4822 -2.951,7.83599 -5.36831,7.53927z" fill="#262626"/></g><g><path d="M141.28373,485.03988c0.14878,-1.2121 1.25199,-2.07408 2.46409,-1.9253c1.2121,0.14878 2.07408,1.25199 1.9253,2.46409c-0.14878,1.2121 -1.25199,2.07409 -2.46409,1.92531c-1.2121,-0.14878 -2.07409,-1.25201 -1.92531,-2.4641z" fill="#4e4e4e"/><path d="M142.8968,471.89829c0.14878,-1.2121 1.252,-2.07409 2.46409,-1.92531c1.2121,0.14878 2.07409,1.25199 1.92531,2.46409c-0.14878,1.2121 -1.25199,2.07408 -2.46409,1.9253c-1.2121,-0.14878 -2.07409,-1.25199 -1.92531,-2.46409z" fill="#4e4e4e"/><path d="M150.43399,464.83853c-0.91841,7.4822 -2.91901,7.57546 -5.33634,7.27875c-2.41733,-0.29672 -4.33597,-0.87105 -3.41757,-8.35325c0.91841,-7.4822 2.95099,-7.83598 5.3683,-7.53927c2.41733,0.29672 4.304,1.13158 3.3856,8.61377z" fill="#262626"/><path d="M143.35675,486.30025c-2.41733,-0.29672 -4.304,-1.13158 -3.3856,-8.61377c0.91841,-7.4822 2.66717,-5.52377 5.08449,-5.22704c2.41733,0.29672 4.58782,-1.18065 3.66942,6.30154c-0.91841,7.4822 -2.951,7.83599 -5.36832,7.53927z" fill="#262626"/></g><g><path d="M150.59575,483.16835c0.14878,-1.2121 1.25199,-2.07409 2.46409,-1.92532c1.2121,0.14878 2.07409,1.252 1.92531,2.4641c-0.14878,1.2121 -1.252,2.07408 -2.4641,1.9253c-1.2121,-0.14878 -2.07408,-1.25198 -1.9253,-2.46409z" fill="#4e4e4e"/><path d="M152.20882,470.02676c0.14878,-1.2121 1.25199,-2.07409 2.46409,-1.92531c1.2121,0.14878 2.07409,1.252 1.92531,2.46409c-0.14878,1.2121 -1.25199,2.07409 -2.46409,1.92531c-1.2121,-0.14878 -2.07409,-1.25199 -1.92531,-2.46409z" fill="#4e4e4e"/><path d="M159.74606,462.967c-0.91841,7.4822 -2.91901,7.57546 -5.33634,7.27875c-2.41733,-0.29672 -4.33598,-0.87105 -3.41758,-8.35324c0.91841,-7.4822 2.951,-7.83599 5.36832,-7.53927c2.41733,0.29672 4.304,1.13158 3.3856,8.61377z" fill="#262626"/><path d="M152.66883,484.42872c-2.41733,-0.29672 -4.30401,-1.13158 -3.3856,-8.61379c0.91841,-7.4822 2.66717,-5.52376 5.08449,-5.22704c2.41733,0.29672 4.58782,-1.18066 3.66942,6.30154c-0.91841,7.4822 -2.951,7.836 -5.36831,7.53928z" fill="#262626"/></g><g><path d="M159.66952,439.01802c-0.80383,-1.02876 -0.62147,-2.5144 0.4073,-3.31824c1.02876,-0.80383 2.5144,-0.62147 3.31822,0.40731c0.80383,1.02876 0.62147,2.5144 -0.4073,3.31823c-1.02876,0.80383 -2.51438,0.62147 -3.31822,-0.4073z" fill="#4e4e4e"/><path d="M171.20512,453.78174c-0.80383,-1.02876 -0.62147,-2.51439 0.4073,-3.31822c1.02876,-0.80383 2.5144,-0.62147 3.31823,0.40729c0.80383,1.02876 0.62147,2.5144 -0.4073,3.31824c-1.02876,0.80383 -2.51439,0.62146 -3.31823,-0.4073z" fill="#4e4e4e"/><path d="M171.31588,442.42678c6.06087,7.75693 4.668,9.40256 2.61629,11.00566c-2.05171,1.60309 -3.98534,2.55661 -10.04621,-5.20032c-6.06087,-7.75693 -4.87902,-9.67264 -2.82731,-11.27573c2.05171,-1.60309 4.19637,-2.28653 10.25723,5.47039z" fill="#262626"/></g><path d="M147.32184,424.20564c2.32627,0.28554 7.62127,-0.28749 9.5782,1.11125c7.98995,5.71092 5.96097,22.13656 3.22547,32.89942c-2.1891,8.61307 -24.36098,8.50314 -33.26924,0.82271c-6.94127,-5.98457 5.32537,-33.00627 8.22655,-34.85178c3.20102,-2.03625 8.75511,-0.40922 12.23902,0.01842z" fill="#2b2b2b"/></g><g fill="#4e4e4e" stroke="#2b2b2b" stroke-width="0"><path d="M209.75986,226.40656l-5.13709,-19.78832l33.70975,-8.75113l5.13708,19.78832z"/><path d="M243.46957,217.65544c0.59028,2.27379 -6.10826,7.49803 -15.41694,9.91459c-9.30868,2.41656 -17.70255,1.11032 -18.29282,-1.16346c-0.59028,-2.27379 6.4774,-6.07604 15.78609,-8.49259c9.30868,-2.41656 17.3334,-2.5323 17.92368,-0.25853z"/><path d="M221.92584,203.96919c-9.30868,2.41656 -17.05555,3.60258 -17.30308,2.64907c-0.24754,-0.95353 7.09799,-3.68552 16.40667,-6.10207c9.30868,-2.41656 17.05555,-3.60258 17.30309,-2.64906c0.24754,0.95353 -7.09799,3.6855 -16.40668,6.10206z"/></g><g stroke="#000000" stroke-width="0"><path d="M159.01619,84.28152c0,0 16.66466,20.31496 35.83277,31.98234c14.19258,8.63883 33.59544,18.59451 31.84901,24.80955c-4.1051,14.60888 -31.5761,44.09081 -47.49653,45.11182c-6.31351,0.40489 -22.06746,-10.41505 -26.97324,-25.7643c-7.46487,-23.35603 6.78801,-76.1394 6.78801,-76.1394z" fill="#262626"/><path d="M161.11784,89.3455c0,0 15.01869,18.30848 32.29358,28.82346c12.7908,7.78557 30.35378,17.79619 28.77987,23.39737c-3.69962,13.16598 -28.45735,39.73597 -42.80532,40.65615c-5.68994,0.36491 -19.88785,-9.38635 -24.3091,-23.21958c-6.72756,-21.04917 6.04097,-69.6574 6.04097,-69.6574z" fill="#202020"/></g><g stroke="#000000" stroke-width="0"><path d="M293.55428,160.17746c-4.85288,15.36607 -20.56944,26.24022 -26.8843,25.85709c-15.92388,-0.96615 -43.49628,-30.35326 -47.65168,-44.94789c-1.76782,-6.20897 17.60061,-16.23146 31.76335,-24.91913c19.1278,-11.73333 35.72236,-32.10561 35.72236,-32.10561c0,0 14.43463,52.73395 7.05031,76.11558z" fill="#262626"/><path d="M290.70077,158.76926c-4.37358,13.84836 -18.53779,23.64848 -24.22896,23.30319c-14.35105,-0.87073 -39.20016,-27.35526 -42.94515,-40.5084c-1.59322,-5.59571 15.93522,-15.66679 28.6991,-23.49638c17.23857,-10.57443 32.19408,-28.93454 32.19408,-28.93454c0,0 12.93591,48.56394 6.28093,69.63616z" fill="#202020"/></g><g fill="#2b2b2b" stroke="#000000" stroke-width="0"><path d="M170.07096,163.36191c-0.05292,-30.71779 23.0274,-52.55251 52.30496,-52.60295c29.27756,-0.05044 53.04924,21.70359 53.10215,52.42138c0.05291,30.71779 -23.63832,55.66035 -52.91588,55.71079c-24.13868,0.04159 -55.39911,-24.06859 -55.10811,-48.18065c0.06469,-5.36126 2.62616,-1.95694 2.61687,-7.34856z"/><path d="M278.36398,170.51941c0.37407,24.11092 -30.80307,48.32865 -54.94177,48.37023c-29.27754,0.05043 -53.05459,-24.81036 -53.10751,-55.52814c-0.05292,-30.71779 23.64367,-52.55357 52.92123,-52.60401c29.27754,-0.05043 52.43296,21.70465 52.48587,52.42244c0.00929,5.39163 2.55902,1.9785 2.64219,7.3395z"/></g><path d="M172.97898,163.79334c-0.05093,-29.565 22.26413,-49.38502 49.83321,-49.43252c27.56905,-0.04749 49.9523,19.69552 50.00322,49.26053c0.05093,29.56501 -22.26412,49.38502 -49.83321,49.43252c-27.56905,0.04749 -49.9523,-19.69552 -50.00323,-49.26053z" fill="#323232" stroke="#000000" stroke-width="0"/><g fill="#2b2b2b" stroke="#000000" stroke-width="0"><path d="M179.81713,166.3695c-0.02175,-12.62769 11.07323,-24.57278 22.49609,-24.59245c11.42285,-0.01968 15.79301,12.50208 15.81475,25.12975c0.02175,12.62769 -5.94758,22.15082 -17.37044,22.1705c-11.42285,0.01968 -20.91864,-10.08011 -20.9404,-22.70779z"/><path d="M245.12403,189.00086c-11.42287,0.01968 -17.42498,-9.48283 -17.44673,-22.11051c-0.02175,-12.62769 4.30522,-25.16442 15.72809,-25.18409c11.42285,-0.01968 22.55893,11.88713 22.58067,24.51481c0.02175,12.62769 -9.43918,22.76013 -20.86203,22.7798z"/></g><path d="M179.81552,165.43633c-0.02093,-12.14778 11.07483,-23.63964 22.49769,-23.65931c2.77964,-0.0048 5.1416,0.70484 7.12488,1.95656c0.30199,0.19059 3.30938,-2.01671 3.30938,-2.01671c0,0 -1.17223,3.673 -0.6098,4.2834c4.20981,4.56883 5.97537,12.23904 5.98865,19.95042c0.02093,12.14778 -5.94904,21.30937 -17.3719,21.32905c-3.39057,0.00584 -6.6113,-0.84603 -9.46484,-2.3646c-0.67601,-0.35975 -3.56324,1.86317 -3.56324,1.86317c0,0 0.81764,-3.60649 0.44092,-3.90352c-5.04187,-3.97528 -8.33942,-10.28515 -8.35174,-17.43847z" fill="#000000" stroke="#000000" stroke-width="0"/><path d="M245.12084,187.20335c-11.42285,0.01968 -17.42436,-9.12131 -17.44528,-21.26907c-0.02093,-12.14778 4.30686,-24.20833 15.72973,-24.22802c11.42285,-0.01968 22.55815,11.43389 22.57908,23.58168c0.02093,12.14778 -9.44068,21.89575 -20.86354,21.91543z" fill="#000000" stroke="#000000" stroke-width="0"/><g fill="#000000" stroke="#000000" stroke-width="0"><path d="M223.50809,214.50091c-14.47287,0.02493 -29.54265,-8.77683 -38.79565,-16.23959c-6.79985,-5.48424 -7.52417,-17.31212 -7.52417,-17.31212c0,0 4.06733,9.44427 8.73444,11.20448c1.52273,0.57431 4.62515,2.20487 4.62515,2.20487c0,0 3.4474,-1.01961 5.35939,-1.02476c0.65105,-0.00175 2.13269,2.00727 2.13269,2.00727c0,0 2.11612,-1.51409 3.21637,-1.56079c6.5697,-0.27882 14.095,0.10405 22.21624,0.09005c6.23083,-0.01074 6.35838,20.6197 0.03554,20.63059z"/><path d="M222.46126,214.50272c-6.32284,0.01089 -6.26636,-20.61986 -0.03553,-20.6306c8.12122,-0.01399 15.64515,-0.42278 22.2158,-0.1666c1.10042,0.04291 3.22173,1.54968 3.22173,1.54968c0,0 1.47473,-2.01412 2.12576,-2.0146c1.91198,-0.00145 5.36288,1.00628 5.36288,1.00628c0,0 3.09678,-1.64124 4.61753,-2.22079c4.66104,-1.7763 8.69579,-11.2345 8.69579,-11.2345c0,0 -0.68356,11.83032 -7.46449,17.33794c-9.22725,7.4946 -24.26661,16.34823 -38.73947,16.37317z"/></g><path d="M204.4239,193.95608c0,0 -3.93553,3.58555 -5.22181,9.98996c-1.28627,6.40439 2.25409,9.76918 2.25409,9.76918c0,0 -8.02787,-4.69419 -12.60542,-10.72057c-3.4912,-4.59619 -3.83982,-10.79987 -3.79173,-11.37297c0.69324,0.53271 2.10991,1.48042 2.66429,1.1948c0,0 1.12523,1.01228 2.62861,1.32634c1.15887,0.24207 4.19684,-1.06801 5.46603,-0.67508c0.6886,0.21319 1.06512,0.6159 1.59947,0.98005c0.34779,0.23701 0.29086,0.82041 0.60476,0.87252c0.35714,0.05928 2.56096,-1.46001 2.94385,-1.4273c1.70304,0.14549 3.45783,0.06307 3.45783,0.06307z" fill="#ffffff" stroke="#ff0000" stroke-width="0"/><path d="M244.93205,193.81728c0.38278,-0.03405 2.59183,1.47766 2.94876,1.41715c0.3137,-0.05316 0.25478,-0.63639 0.60174,-0.87459c0.53309,-0.36599 0.90821,-0.77001 1.59608,-0.98556c1.26781,-0.39729 4.3103,0.90233 5.46833,0.65626c1.5023,-0.31923 2.62403,-1.33539 2.62403,-1.33539c0.55538,0.28371 1.96873,-0.66889 2.66016,-1.20399c0.05006,0.57291 -0.27716,6.77775 -3.75252,11.38598c-4.55676,6.04211 -12.56842,10.76394 -12.56842,10.76394c0,0 3.52875,-3.37697 2.22043,-9.7769c-1.30832,-6.39992 -5.2562,-9.97189 -5.2562,-9.97189c0,0 1.75505,0.07637 3.45759,-0.07499z" fill="#ffffff" stroke="#ff0000" stroke-width="0"/><g fill="none" stroke="#2b2b2b" stroke-width="0.5"><path d="M223.47298,214.50098v-0.00002c-14.47287,0.02493 -29.54266,-8.77684 -38.79566,-16.2396c-6.79985,-5.48424 -7.52417,-17.31212 -7.52417,-17.31212c0,0 4.06734,9.44426 8.73445,11.20447c1.52273,0.57431 4.62515,2.20487 4.62515,2.20487c0,0 3.4474,-1.0196 5.35939,-1.02475c0.65105,-0.00175 2.13269,2.00725 2.13269,2.00725c0,0 2.11613,-1.51407 3.21638,-1.56078c6.5697,-0.27882 14.095,0.10404 22.21624,0.09005"/><path d="M222.39062,193.8722c8.12122,-0.01399 15.64515,-0.42278 22.21579,-0.16659c1.10042,0.04291 3.22173,1.54968 3.22173,1.54968c0,0 1.47473,-2.01412 2.12576,-2.01461c1.91198,-0.00145 5.36288,1.00629 5.36288,1.00629c0,0 3.09679,-1.64124 4.61753,-2.22079c4.66104,-1.7763 8.69579,-11.23451 8.69579,-11.23451c0,0 -0.68356,11.83033 -7.46448,17.33795c-9.22725,7.4946 -24.26661,16.34823 -38.73947,16.37317l-0.00003,0.00001"/></g><path d="M199.20209,203.94604c-1.28627,6.40439 2.25409,9.76918 2.25409,9.76918c0,0 -8.02787,-4.69419 -12.60542,-10.72057c-1.15223,-1.51693 -1.96216,-3.20893 -2.52849,-4.81584c3.14584,0.55427 8.29306,1.00903 9.33007,1.09967c1.6293,0.14245 3.26035,0.29757 4.88974,0.44654c-0.54225,1.22704 -1.02206,2.63788 -1.34,4.22098z" fill="#ffffff" stroke="#ff0000" stroke-width="0"/><path d="M245.37607,199.64783c1.62886,-0.15457 3.25939,-0.31535 4.88818,-0.4634c1.0367,-0.09423 6.18233,-0.5667 9.32623,-1.1318c-0.56079,1.60884 -1.36488,3.30363 -2.51188,4.8245c-4.55676,6.04211 -12.56843,10.76394 -12.56843,10.76394c0,0 3.52874,-3.37698 2.22043,-9.77691c-0.32339,-1.58199 -0.80809,-2.99116 -1.35456,-4.21634z" fill="#ffffff" stroke="#ff0000" stroke-width="0"/><g stroke-width="0"><g stroke="#000000"><path d="M252.06836,119.20727c0.00333,1.93059 -6.28025,3.50647 -29.06775,3.54573c-22.7875,0.03925 -29.42464,-1.51436 -29.42797,-3.44495c-0.00333,-1.93059 6.62847,-3.50708 29.41593,-3.54633c22.7875,-0.03925 29.07647,1.51497 29.0798,3.44555z" fill="#252525"/><path d="M222.64044,115.76232c22.7875,-0.03925 29.42466,1.51436 29.42799,3.44495c0.00333,1.93059 -6.62848,3.50708 -29.41595,3.54634c-22.7875,0.03925 -29.07647,-1.51498 -29.0798,-3.44556c-0.00333,-1.93059 6.28026,-3.50646 29.06775,-3.54572z" fill="#222222"/></g><path d="M193.57277,119.3279l-0.01211,-7.03101l58.49575,-0.10077l0.01212,7.03101z" fill="#222222" stroke="#000000"/><g fill="#202020" stroke="#000000"><path d="M252.05628,112.19612c0.00333,1.93059 -6.28025,3.50647 -29.06775,3.54572c-22.7875,0.03925 -29.42465,-1.51436 -29.42798,-3.44495c-0.00333,-1.93059 6.62847,-3.50708 29.41593,-3.54633c22.7875,-0.03925 29.07648,1.51497 29.0798,3.44555z"/><path d="M222.62836,108.75119c22.78749,-0.03925 29.42466,1.51435 29.42799,3.44494c0.00333,1.93059 -6.62848,3.50707 -29.41595,3.54633c-22.7875,0.03925 -29.07648,-1.51497 -29.07981,-3.44555c-0.00333,-1.93059 6.28026,-3.50645 29.06776,-3.54571z"/></g><g fill="#222222" stroke="#000000"><path d="M243.10179,111.52809c0.00215,1.24873 -9.08224,2.27665 -20.29055,2.29596c-11.2083,0.01931 -20.29617,-0.97733 -20.29831,-2.22604c-0.00215,-1.24873 9.08222,-2.27667 20.29053,-2.29598c11.2083,-0.01931 20.2962,0.97733 20.29834,2.22606z"/><path d="M202.51293,111.59801c0,0 0.38218,-12.24819 -0.71723,-18.41501c-1.06958,-5.99954 -5.79215,-18.09792 -5.79215,-18.09792l26.54991,-0.04574l20.54837,36.48877z"/><path d="M202.51293,111.59801l20.42253,-36.55934l26.54991,-0.04574c0,0 -4.68087,12.11456 -5.72977,18.11776c-1.07814,6.17057 -0.65378,18.41739 -0.65378,18.41739z"/></g><path d="M249.48525,74.99293c0.0053,3.07377 -11.96273,5.58622 -26.73132,5.61166c-14.76859,0.02544 -26.7452,-2.44572 -26.75048,-5.51953c-0.0053,-3.07377 11.96273,-5.5862 26.73132,-5.61164c14.76859,-0.02544 26.7452,2.44571 26.75049,5.5195z" fill="#202020" stroke="#000000"/><g fill="#770000"><g><g stroke="#000000"><path d="M243.55555,112.33569c0.00138,0.80226 -9.28616,1.46864 -20.74432,1.48838c-11.45815,0.01974 -20.74796,-0.61462 -20.74934,-1.4169c-0.00137,-0.80226 9.28617,-1.46864 20.74433,-1.48838c11.45815,-0.01974 20.74795,0.61463 20.74932,1.4169z"/><path d="M202.06191,112.40716c0,0 0.39872,-7.8694 -0.72115,-11.83071c-1.08948,-3.85386 42.21483,11.75925 42.21483,11.75925z"/><path d="M202.06191,112.40716c0,0 43.25027,-15.76221 42.17409,-11.90462c-1.10621,3.96515 -0.68043,11.83315 -0.68043,11.83315z"/></g><path d="M222.7997,107.1275c-11.85622,0.02042 -20.29933,-6.56514 -20.30004,-6.98038c-0.00072,-0.41525 8.43357,1.04604 20.28979,1.02561c11.85622,-0.02042 11.86647,5.93434 0.01025,5.95476z" stroke="#2b2b2b"/></g><g><g stroke="#000000"><path d="M222.80623,110.91877c11.45816,-0.01974 20.74795,0.61463 20.74932,1.4169c0.00138,0.80226 -9.28618,1.46866 -20.74433,1.48838c-11.45816,0.01974 -20.74795,-0.61463 -20.74932,-1.4169c-0.00137,-0.80226 9.28618,-1.46866 20.74433,-1.48838z"/><path d="M202.06191,112.40716c0,0 43.25029,-15.76221 42.17409,-11.90462c-1.10621,3.96515 -0.68041,11.83313 -0.68041,11.83313z"/><path d="M202.06193,112.40717c0,0 0.39871,-7.86942 -0.72117,-11.83073c-1.08948,-3.85386 42.21483,11.75925 42.21483,11.75925z"/></g><path d="M222.78944,101.17273c11.85622,-0.02042 20.28544,-1.51076 20.28615,-1.09551c0.00072,0.41525 -8.41968,7.02987 -20.2759,7.05029c-11.85622,0.02042 -11.86647,-5.93434 -0.01025,-5.95476z" stroke="#2b2b2b"/></g></g></g><path d="M209.00652,228.40714l-0.62105,-2.3923l36.31953,-9.42862l0.62105,2.3923c0,0 -11.18275,7.54586 -17.16652,9.09925c-6.11969,1.58869 -19.15303,0.32937 -19.15303,0.32937z" fill="url(#color-1)" stroke="#2b2b2b" stroke-width="0"/><path d="M213.8547,255.43384c2.6629,10.2576 6.9757,30.19871 9.13447,47.5735c2.05428,16.53376 22.09511,71.02851 16.97054,72.35885c-1.92352,0.49935 -29.91459,4.94734 -35.93703,-7.09082c-4.85739,-9.70937 -3.25757,-46.6687 -8.20722,-56.33134c-9.22711,-18.01304 -20.64965,-39.36734 -22.61148,-46.92443c-5.19689,-20.0187 23.53895,-39.44207 34.04876,-42.17045c0.85008,-0.22068 -4.5084,4.11304 -3.58792,8.58296c1.24858,6.06327 7.56251,13.88097 10.18987,24.00171z" fill="#770000" stroke="#2b2b2b" stroke-width="0"/><path d="M244.74225,184.38328c-10.1946,0.01757 -15.55079,-8.14053 -15.56946,-18.98208c-0.01867,-10.84156 3.84377,-21.60531 14.03835,-21.62287c10.1946,-0.01757 20.13254,10.20446 20.15122,21.04601c0.01867,10.84156 -8.42553,19.54137 -18.62015,19.55893z" fill="#ffffff" stroke="#000000" stroke-width="0"/><path d="M201.1235,184.4584c-10.19462,0.01757 -18.66875,-8.6531 -18.68742,-19.49466c-0.01867,-10.84155 9.88399,-21.09774 20.07858,-21.1153c10.1946,-0.01757 14.0941,10.7328 14.11277,21.57438c0.01867,10.84155 -5.30937,19.01805 -15.50396,19.03561z" fill="#ffffff" stroke="#000000" stroke-width="0"/><g fill="#262626" stroke="#000000" stroke-width="0"><path d="M235.8967,183.06864c0.00608,3.5291 -5.79414,6.40001 -12.95513,6.41235c-7.161,0.01233 -12.97107,-2.83857 -12.97715,-6.36767c-0.00608,-3.5291 5.79414,-6.40002 12.95515,-6.41236c7.16101,-0.01233 12.97109,2.83857 12.97716,6.36768z"/><path d="M232.14194,185.80589c0.00402,2.3305 -4.1104,6.72031 -9.19513,6.72907c-5.08472,0.00876 -9.21424,-4.36687 -9.21826,-6.69734c-0.00402,-2.3305 4.1147,-4.22684 9.19942,-4.2356c5.08472,-0.00876 9.20995,1.87337 9.21396,4.20387z"/></g><path d="M475.68804,205.07703c1.83119,5.62265 -1.24236,11.66518 -6.86503,13.49638c-5.62264,1.83119 -11.66518,-1.24236 -13.49637,-6.86503c-1.83119,-5.62265 1.24237,-11.66519 6.86502,-13.49639c5.62264,-1.83119 11.66517,1.24237 13.49637,6.86503z" fill="#4e4e4e" stroke="#2b2b2b" stroke-width="0"/><path d="M466.75008,191.56868c1.6067,-4.09566 32.53519,-26.12224 41.75178,-18.87178c11.82832,9.30508 17.39972,37.12216 7.11965,41.98195c-12.84594,6.0728 -32.9764,12.64607 -42.10632,4.01159c-2.23616,-2.11479 -2.81406,-8.90481 -3.74271,-11.75624c-1.39079,-4.27039 -4.79514,-10.84663 -3.02238,-15.36554z" fill="#2b2b2b" stroke="#2b2b2b" stroke-width="0"/><path d="M475.68806,205.07704c1.83119,5.62265 -1.24238,11.66518 -6.86504,13.49639c-5.62264,1.83119 -11.66517,-1.24237 -13.49637,-6.86503c-1.83119,-5.62265 1.24237,-11.66517 6.86504,-13.49636c5.62264,-1.83119 11.66518,1.24238 13.49637,6.86502z" fill="#4e4e4e" stroke="#2b2b2b" stroke-width="0"/><path d="M378.41412,236.75742c-4.0058,-12.29968 -17.97666,-18.77805 31.41661,-34.86456c49.39328,-16.08651 54.86377,-6.83972 58.86957,5.45996c4.0058,12.29968 5.02994,22.99459 -44.36333,39.08111c-49.39324,16.08649 -41.91706,2.62316 -45.92285,-9.67651z" fill="#2b2b2b" stroke="#2b2b2b" stroke-width="0"/><path d="M381.34406,238.25813c-4.0058,-12.29968 -17.97667,-18.77808 31.41661,-34.86459c49.39328,-16.08651 54.86378,-6.83969 58.86956,5.45998c4.0058,12.29968 5.02994,22.99459 -44.36333,39.08111c-49.39328,16.08651 -41.91706,2.62318 -45.92284,-9.6765z" fill="#2b2b2b" stroke="#2b2b2b" stroke-width="0"/><g stroke="#2b2b2b" stroke-width="0"><path d="M470.87543,188.26139c-1.54201,-0.64245 -2.27126,-2.41328 -1.62884,-3.95531c0.64245,-1.54201 2.41328,-2.2713 3.95529,-1.62885c1.54201,0.64245 2.27127,2.41331 1.62881,3.95533c-0.64245,1.54201 -2.41329,2.27125 -3.9553,1.62881z" fill="#4e4e4e"/><path d="M461.65586,210.39059c-1.54201,-0.64245 -2.27128,-2.41327 -1.62885,-3.95531c0.64245,-1.54201 2.4133,-2.27128 3.95531,-1.62883c1.54201,0.64245 2.27126,2.41328 1.62881,3.95531c-0.64245,1.54201 -2.41327,2.27126 -3.95529,1.62883z" fill="#4e4e4e"/><path d="M472.41713,184.56076c3.07529,1.28124 5.18354,3.24342 0.33956,14.87018c-4.84399,11.62677 -7.55309,11.10683 -10.6284,9.82559c-3.07529,-1.28124 -5.35222,-2.83858 -0.50822,-14.46536c4.84399,-11.62677 7.72177,-11.51165 10.79708,-10.2304z" fill="#262626"/></g><g stroke="#2b2b2b" stroke-width="0"><path d="M512.45483,168.13034c1.4324,0.62429 2.08749,2.29158 1.46321,3.724c-0.62429,1.4324 -2.29158,2.0875 -3.72396,1.46322c-1.4324,-0.62429 -2.08751,-2.29157 -1.46323,-3.72396c0.62429,-1.4324 2.29157,-2.08753 3.72398,-1.46325z" fill="#4e4e4e"/><path d="M505.68629,183.66046c1.4324,0.62429 2.08749,2.29157 1.46321,3.72396c-0.62429,1.4324 -2.29158,2.08751 -3.72396,1.46323c-1.4324,-0.62429 -2.08749,-2.29157 -1.46321,-3.72396c0.62429,-1.4324 2.29155,-2.08752 3.72396,-1.46323z" fill="#4e4e4e"/><path d="M496.34457,205.09469c-2.85667,-1.24504 -4.86639,-2.95669 -1.0127,-11.79879c3.8537,-8.84212 6.34139,-8.22726 9.19809,-6.98223c2.85667,1.24504 5.00056,2.64881 1.14688,11.49092c-3.85369,8.84213 -6.47558,8.53513 -9.33227,7.29012z" fill="#262626"/><path d="M512.84762,181.35166c-3.85369,8.84213 -5.28469,5.80266 -8.14138,4.55764c-2.85669,-1.24502 -6.0573,-0.2242 -2.20362,-9.06631c3.8537,-8.84212 6.47561,-8.53515 9.33227,-7.29013c2.85668,1.24502 4.86639,2.95669 1.0127,11.7988z" fill="#262626"/></g><g stroke="#2b2b2b" stroke-width="0"><path d="M517.42565,180.37373c1.4324,0.62429 2.08749,2.29157 1.46321,3.72396c-0.62429,1.4324 -2.29158,2.0875 -3.72397,1.46322c-1.4324,-0.62429 -2.0875,-2.29157 -1.46322,-3.72396c0.62429,-1.4324 2.29156,-2.08753 3.72397,-1.46322z" fill="#4e4e4e"/><path d="M510.65711,195.90384c1.4324,0.62429 2.08751,2.29157 1.46323,3.72396c-0.62429,1.4324 -2.29158,2.0875 -3.72396,1.46322c-1.4324,-0.62429 -2.0875,-2.29157 -1.46322,-3.72395c0.62429,-1.4324 2.29157,-2.08751 3.72396,-1.46323z" fill="#4e4e4e"/><path d="M501.31538,217.33806c-2.85669,-1.24502 -4.86636,-2.95669 -1.01269,-11.79879c3.8537,-8.84212 6.3414,-8.22727 9.19808,-6.98224c2.85668,1.24502 5.00058,2.64879 1.14689,11.49092c-3.85369,8.84213 -6.47561,8.53515 -9.33228,7.29012z" fill="#262626"/><path d="M517.81839,193.59502c-3.85369,8.84213 -5.28468,5.80265 -8.14137,4.55763c-2.85669,-1.24502 -6.05729,-0.22419 -2.2036,-9.06632c3.8537,-8.84212 6.47558,-8.53513 9.33227,-7.29012c2.85668,1.24502 4.86639,2.95669 1.01269,11.79879z" fill="#262626"/></g><g stroke="#2b2b2b" stroke-width="0"><path d="M526.46384,193.33273c1.36866,0.75383 1.86707,2.47449 1.11325,3.84314c-0.75383,1.36866 -2.47448,1.86706 -3.84315,1.11323c-1.36866,-0.75383 -1.86705,-2.47447 -1.11322,-3.84313c0.75383,-1.36866 2.47446,-1.86709 3.84312,-1.11325z" fill="#4e4e4e"/><path d="M518.29072,208.17182c1.36866,0.75383 1.86707,2.47447 1.11325,3.84313c-0.75383,1.36866 -2.47447,1.86708 -3.84313,1.11325c-1.36866,-0.75383 -1.86706,-2.47446 -1.11324,-3.84312c0.75383,-1.36866 2.47448,-1.86708 3.84314,-1.11326z" fill="#4e4e4e"/><path d="M507.01045,228.65227c-2.72958,-1.50339 -4.57271,-3.39325 0.08067,-11.8419c4.65339,-8.44867 7.07373,-7.60682 9.8033,-6.10342c2.72957,1.50339 4.73472,3.09906 0.08135,11.54772c-4.6534,8.44868 -7.23576,7.90099 -9.96531,6.39762z" fill="#262626"/><path d="M525.63443,206.53381c-4.6534,8.44868 -5.79773,5.2901 -8.52729,3.78672c-2.72957,-1.50339 -6.01073,-0.78237 -1.35736,-9.23101c4.65338,-8.44867 7.23577,-7.90099 9.96534,-6.39761c2.72957,1.50339 4.57268,3.39326 -0.08069,11.8419z" fill="#262626"/></g><g stroke="#2b2b2b" stroke-width="0"><path d="M534.63749,200.79753c1.36866,0.75383 1.8671,2.47447 1.11326,3.84313c-0.75383,1.36866 -2.47447,1.86707 -3.84313,1.11325c-1.36866,-0.75383 -1.86707,-2.47447 -1.11325,-3.84313c0.75383,-1.36866 2.47447,-1.86707 3.84312,-1.11325z" fill="#4e4e4e"/><path d="M526.46439,215.63662c1.36866,0.75383 1.86707,2.47447 1.11324,3.84313c-0.75383,1.36866 -2.47447,1.86706 -3.84313,1.11324c-1.36866,-0.75383 -1.86706,-2.47447 -1.11323,-3.84313c0.75383,-1.36866 2.47447,-1.86706 3.84312,-1.11323z" fill="#4e4e4e"/><path d="M515.18413,236.11706c-2.72958,-1.50339 -4.57269,-3.39326 0.08068,-11.8419c4.65338,-8.44867 7.07374,-7.60683 9.80329,-6.10344c2.72957,1.50339 4.73472,3.09907 0.08135,11.54773c-4.6534,8.44868 -7.23576,7.90099 -9.96532,6.39762z" fill="#262626"/><path d="M533.80821,213.99868c-4.6534,8.44868 -5.79773,5.29009 -8.52729,3.78671c-2.72957,-1.50339 -6.01074,-0.78236 -1.35737,-9.231c4.65338,-8.44867 7.23577,-7.90103 9.96534,-6.39763c2.72957,1.50339 4.57269,3.39325 -0.08069,11.84193z" fill="#262626"/></g><g><g fill="#1c1c1c" stroke="#000000" stroke-width="0"><path d="M404.08589,406.80962c-3.36231,5.78869 -16.10783,7.15697 -28.46799,3.05612c-12.36008,-4.10082 -19.65429,-12.11795 -16.29198,-17.90662c3.36231,-5.78869 16.10784,-7.15697 28.46802,-3.05611c12.36008,4.10082 19.65426,12.11794 16.29193,17.90666z"/><g><path d="M358.89301,392.63725l57.16005,-119.77389l42.10663,13.97019l-67.5646,116.32184z"/><path d="M372.01639,396.99139l67.56459,-116.32189l42.10662,13.97023l-77.96913,112.8698z"/></g></g><g><path d="M420.99868,309.33629c3.17937,-5.47367 10.64071,-8.29052 16.66535,-6.29163c6.0247,1.99888 8.33132,8.05655 5.15199,13.53019c-3.17937,5.47367 -10.64065,8.29049 -16.66532,6.29163c-6.0247,-1.99888 -8.33134,-8.05658 -5.15203,-13.53022z" fill="#1a1a1a" stroke="#2b2b2b" stroke-width="0"/><path d="M422.62339,309.87534c2.70579,-4.65844 9.05593,-7.05577 14.18335,-5.3546c5.1274,1.70119 7.09049,6.8567 4.3847,11.51513c-2.70579,4.65844 -9.05594,7.05575 -14.18336,5.35457c-5.1274,-1.70119 -7.09048,-6.8567 -4.3847,-11.51511z" fill="#cba600" stroke="#2b2b2b" stroke-width="0"/><path d="M423.08758,310.02935c2.57049,-4.42552 8.60315,-6.70298 13.47417,-5.08683c4.87104,1.61611 6.73596,6.51388 4.16548,10.93936c-2.57049,4.42552 -8.60315,6.70298 -13.47418,5.08685c-4.87104,-1.61611 -6.73597,-6.51388 -4.16547,-10.93937z" fill="#ddb400" stroke="#2b2b2b" stroke-width="0"/><text transform="translate(423.8559,316.84709) rotate(18.3535) scale(0.43648,0.42607) skewX(-11.5213)" font-size="40" xml:space="preserve" fill="#cda800" stroke="none" stroke-width="1" font-family="&quot;I KNOW A GHOST&quot;, Handwriting" font-weight="normal" text-anchor="start"><tspan x="0" dy="0">T</tspan></text></g><g stroke="#000000" stroke-width="0"><path d="M405.2678,281.03418l8.40981,-14.47867l75.7615,25.13626l-8.40982,14.47869z" fill="#212121"/><path d="M481.02933,306.1705c-1.79976,3.09854 -20.2186,-0.01645 -41.1395,-6.95764c-20.92098,-6.94121 -36.42171,-15.08005 -34.62198,-18.17862c1.79976,-3.09854 20.2186,0.01645 41.13957,6.95761c20.92098,6.94121 36.42168,15.08006 34.62193,18.17863z" fill="#212121"/><path d="M489.43919,291.69181c-1.7998,3.09857 -20.21861,-0.01648 -41.13951,-6.95767c-20.92098,-6.94121 -36.42172,-15.08004 -34.62201,-18.17861c1.7998,-3.09857 20.21861,0.01648 41.1396,6.95769c20.92098,6.94121 36.42168,15.08004 34.62191,18.17861z" fill="#1c1c1c"/></g><g stroke="#000000" stroke-width="0"><g><path d="M427.27842,234.38418c12.2831,-21.147 41.10936,-32.02969 64.38523,-24.30717c23.27588,7.72254 32.18734,31.12587 19.90429,52.27286c-12.2831,21.147 -38.69838,27.87903 -61.97427,20.15649c-23.27588,-7.72254 -34.59827,-26.97524 -22.3152,-48.12218z" fill="#727272"/><path d="M435.90138,235.01735c10.48554,-18.05235 35.09333,-27.34241 54.9629,-20.75001c19.86966,6.59239 27.47697,26.57091 16.99143,44.62319c-10.48551,18.05233 -35.09333,27.34241 -54.96291,20.75c-19.86962,-6.5924 -27.47696,-26.57089 -16.99144,-44.62317z" fill="#6c6c6c"/></g><g fill="#7e7e7e"><path d="M423.74677,238.27551l2.9694,-5.11224l86.42141,28.67302l-2.96938,5.11227z"/><path d="M510.16815,266.94854c-0.63547,1.09406 -20.49671,-4.4377 -44.36134,-12.35553c-23.86467,-7.91787 -42.69557,-15.22345 -42.06011,-16.31755c0.63547,-1.09406 20.49674,4.43763 44.36136,12.3555c23.86464,7.91788 42.69556,15.22345 42.06004,16.31756z"/><path d="M513.13754,261.83633c-0.63547,1.09406 -20.49671,-4.43765 -44.36139,-12.35555c-23.86467,-7.91787 -42.69555,-15.22344 -42.06009,-16.31753c0.63547,-1.09406 19.55553,6.05805 43.42018,13.9759c23.86467,7.91787 43.63673,13.60303 43.00121,14.69712z"/></g></g></g><path d="M407.84376,365.47256c0.60054,-1.80726 1.54574,-3.46997 2.42564,-5.20729c0.00528,-0.99997 0.02173,-2.02984 0.11169,-3.0117c-0.06713,-0.0623 -0.12953,-0.12065 -0.18578,-0.17339c-0.16741,0.25817 -0.33483,0.51635 -0.50224,0.77452c-0.47027,1.48277 -0.99696,2.93311 -1.69757,4.27916c-0.06212,0.20133 -0.12645,0.40207 -0.19314,0.60215l-0.00396,0.01189l0.02398,0.00854l-0.41459,1.16381c-0.08223,0.24915 -0.31694,0.42897 -0.59364,0.42897c-0.34518,0 -0.625,-0.27982 -0.625,-0.625c0,-0.07423 0.01294,-0.14543 0.03669,-0.21148l0.17436,-0.52308c-0.97164,1.57934 -1.94668,3.16991 -3.16388,4.53529l0.13098,0.08493l-0.67455,1.04024c-0.11051,0.17629 -0.30654,0.29351 -0.52994,0.29351c-0.34518,0 -0.625,-0.27982 -0.625,-0.625c0,-0.09938 0.02319,-0.19334 0.06446,-0.27677c0.5876,-1.25615 1.69925,-3.6326 2.28685,-4.88875c-0.28035,0.4772 -0.5607,0.95439 -0.84106,1.43159c-1.26131,2.14691 -2.37626,4.45033 -3.91989,6.39563l0.12078,0.07096l-0.62723,1.06763c-0.10718,0.19014 -0.31101,0.31855 -0.54484,0.31855c-0.34518,0 -0.625,-0.27982 -0.625,-0.625c0,-0.05014 0.0059,-0.0989 0.01706,-0.14563c0.08838,-0.40718 0.43908,-2.02287 0.52747,-2.43005c0.31485,-1.45054 0.62971,-2.90108 0.94456,-4.35162c-0.42511,0.63606 -0.85021,1.27211 -1.27456,1.90863l-0.688,1.032c-0.11128,0.17231 -0.30503,0.28638 -0.52541,0.28638c-0.34518,0 -0.625,-0.27982 -0.625,-0.625c0,-0.07371 0.01276,-0.14444 0.03619,-0.21009l0.3879,-1.17293l0.1371,0.04534c0.11433,-0.64201 0.26767,-1.27804 0.4458,-1.90978c-0.14125,0.16958 -0.28251,0.33916 -0.42376,0.50874c-0.28569,0.34298 -1.70741,2.12435 -2.0423,2.14474c-0.57105,0.03476 -0.93487,-0.66147 -1.37674,-1.02488c-0.11531,-0.09484 -0.2283,-0.18926 -0.33901,-0.28352l-0.63158,0.92631c-0.11186,0.16906 -0.30371,0.28057 -0.52161,0.28057c-0.34518,0 -0.625,-0.27982 -0.625,-0.625c0,-0.11926 0.0334,-0.23072 0.09137,-0.32554c0.048,-0.08177 0.63912,-1.08876 0.68712,-1.17053c-1.02469,-1.01945 -1.80288,-2.11274 -2.37493,-3.5848l-0.84597,-0.28269c-0.90805,1.23357 -1.81609,2.46714 -2.72414,3.70071c-0.27355,0.37162 -0.67437,0.82248 -1.11129,1.31085c-0.52779,1.98937 -1.05558,3.97874 -1.58338,5.96811l-0.3171,1.19523c-0.06622,0.2741 -0.3131,0.4777 -0.60754,0.4777c-0.31485,0 -0.57532,-0.23281 -0.61866,-0.53567l-0.19685,-1.22426l0.03512,-0.00565c-0.21327,-0.57665 -0.39381,-1.18586 -0.45487,-1.74205l-0.04637,0.16321c-0.06983,0.26891 -0.31422,0.46747 -0.60498,0.46747c-0.34518,0 -0.625,-0.27982 -0.625,-0.625c0,-0.02099 0.00104,-0.04175 0.00306,-0.06221l0.10859,-1.23764l0.14496,0.01272c-0.13333,-1.97225 0.09015,-4.00481 0.32438,-6.00627c-1.03475,1.45622 -2.15806,2.8628 -3.22515,4.27202l0.08346,0.02632l-0.37171,1.17853c-0.07549,0.2603 -0.3157,0.45058 -0.60034,0.45058c-0.34518,0 -0.625,-0.27982 -0.625,-0.625c0,-0.05071 0.00604,-0.1 0.01744,-0.14721l0.26532,-1.20778l0.05028,0.01104l-0.00906,-0.13501c0.08127,-0.1126 0.16309,-0.225 0.24538,-0.33723c0.05847,-1.75446 1.26725,-4.10312 1.71555,-5.52447c0.33102,-1.04953 0.66587,-2.08492 1.00833,-3.10933c-0.21521,0.47057 -0.4299,0.94139 -0.64403,1.41247c0,0 -0.25863,0.56898 -0.82761,0.31035c-0.56898,-0.25863 -0.31035,-0.82761 -0.31035,-0.82761c0.64334,-1.41534 1.29174,-2.82826 1.94398,-4.23935c0,-0.00068 0,-0.00135 0,-0.00203c0,-0.00537 0.00007,-0.01072 0.0002,-0.01606l0.0179,-0.80979c-0.83977,1.19172 -1.74471,2.33649 -2.76531,3.32767c-0.00707,0.01178 -0.01414,0.02356 -0.02121,0.03534l-0.02939,0.04898l0.09927,0.07418l-0.74389,0.99539c-0.11368,0.15564 -0.29755,0.25675 -0.50504,0.25675c-0.34518,0 -0.625,-0.27982 -0.625,-0.625c0,-0.12129 0.03455,-0.23452 0.09435,-0.33037l0.63783,-1.06306c2.65633,-4.42722 5.6245,-8.65472 8.55562,-12.90517c1.75879,-4.05876 3.51759,-8.11751 5.27638,-12.17627c0.82835,-1.91157 1.6567,-3.82315 2.48505,-5.73472l0.4913,-1.13376c0.09295,-0.22855 0.31725,-0.38968 0.57918,-0.38968c0.33903,0 0.61501,0.26995 0.62474,0.60663l0.04178,1.24674l-0.20979,0.00703c0.12907,1.81232 -0.33443,3.48531 -0.87865,5.25964c3.59035,-5.4673 7.23435,-10.89914 10.86129,-16.34265l0.68772,-1.03217c0.11127,-0.1724 0.30506,-0.28652 0.5255,-0.28652c0.34518,0 0.625,0.27982 0.625,0.625c0,0.08542 -0.01713,0.16683 -0.04815,0.24099l-0.45022,1.1508l-0.13894,-0.05436c-0.5557,2.41882 -1.68611,4.71934 -2.59357,7.03887c-0.64456,1.64755 -1.27675,3.28207 -1.92818,4.90087c-0.69152,2.20555 -1.7213,4.36046 -2.53274,6.47511c-1.16263,3.02987 -2.15678,6.31951 -3.40943,9.42701c0.59326,-0.67357 1.16414,-1.33846 1.6855,-1.99499c1.55471,-1.95778 3.10941,-3.91555 4.66412,-5.87333l0.69475,-0.87487c0.49674,-1.48312 1.01651,-2.96066 1.73467,-4.32441c0.01962,-0.07232 0.03924,-0.14463 0.05887,-0.21695l0.01217,-0.04485l-0.09322,-0.03357l0.4186,-1.16236c0.08283,-0.2481 0.31701,-0.42693 0.59296,-0.42693c0.34518,0 0.625,0.27982 0.625,0.625c0,0.06165 -0.00893,0.12121 -0.02555,0.17747c-0.32733,1.20638 -0.97824,3.60534 -1.30557,4.81172c-0.40513,1.49313 -0.84242,2.99036 -1.28679,4.49128c-0.01198,0.12819 -0.02467,0.25658 -0.03805,0.38515c0.28635,-0.35616 0.58213,-0.70224 0.88974,-1.03501l-0.11026,-0.07559l0.70164,-1.02342c0.11199,-0.16827 0.30338,-0.27915 0.52067,-0.27915c0.34518,0 0.625,0.27982 0.625,0.625c0,0.06462 -0.00981,0.12695 -0.02801,0.18558l-0.33389,1.16863c0.8635,-1.17305 1.72699,-2.3461 2.59049,-3.51915l0.73646,-1.00048c0.11344,-0.15786 0.29866,-0.26068 0.50789,-0.26068c0.34518,0 0.625,0.27982 0.625,0.625c0,0.07066 -0.01172,0.13857 -0.03333,0.20191l-0.37163,1.1782l-0.06738,-0.02125l-0.16405,0.79122l-0.05509,-0.01142c-0.0371,0.17248 -0.07655,0.3446 -0.11807,0.51641c-0.07325,0.70932 -0.18515,1.4167 -0.31866,2.12232c0.16269,-0.23131 0.32962,-0.45921 0.50153,-0.68303l-0.10465,-0.06143l0.62684,-1.06784c0.10715,-0.19025 0.31105,-0.31875 0.54495,-0.31875c0.3447,0 0.62423,0.27905 0.625,0.62358c0,0.00006 0,0.00012 0,0.00018c0.00099,0.43583 0.00483,2.12148 0.00582,2.55731c1.0145,-0.81159 2.029,-1.62318 3.0435,-2.43476l0.9722,-0.77775c0.10756,-0.08757 0.24481,-0.14006 0.39432,-0.14006c0.34518,0 0.625,0.27982 0.625,0.625c0,0.04392 -0.00453,0.08678 -0.01315,0.12814l-0.22929,1.21602l-0.05628,-0.01061c-0.00316,0.11892 -0.00696,0.23801 -0.01139,0.35727c0.22028,-0.28971 0.44787,-0.57239 0.68395,-0.84683l0.00087,-0.00191l-0.11754,-0.06993l0.63318,-1.06432c0.10765,-0.18841 0.31052,-0.3154 0.54306,-0.3154c0.34518,0 0.625,0.27982 0.625,0.625c0,0.09659 -0.02191,0.18806 -0.06103,0.26972c-0.7637,1.68936 -2.03678,4.50548 -2.80048,6.19485c-0.25734,1.56034 -0.60503,3.1223 -1.02962,4.66167c1.27227,-2.47971 2.68147,-4.89773 4.23891,-7.41782c1.31429,-2.12665 2.62858,-4.2533 3.94286,-6.37996l0.65136,-1.05397c0.10899,-0.1831 0.30889,-0.30579 0.53745,-0.30579c0.34518,0 0.625,0.27982 0.625,0.625c0,0.08153 -0.01561,0.15941 -0.044,0.23082l-0.42955,1.15849l-0.14126,-0.05238c-0.50947,2.42872 -1.6002,4.74907 -2.46616,7.08454c-0.17593,0.47448 -0.35186,0.94896 -0.52779,1.42344c0.20534,-0.21674 0.41538,-0.42837 0.63101,-0.63385l-0.11518,-0.09028l0.76724,-0.97889c0.11426,-0.1486 0.29383,-0.24438 0.49577,-0.24438c0.34518,0 0.625,0.27982 0.625,0.625c0,0.09517 -0.02127,0.18538 -0.05932,0.26612l-0.47305,1.06504c-0.35622,0.802 -0.66266,1.60891 -0.93061,2.42108c0.16026,-0.19993 0.32178,-0.40043 0.48457,-0.60161c0.5242,-0.64781 1.0484,-1.29562 1.57259,-1.94344l0.78284,-0.96744c0.1145,-0.14389 0.29114,-0.23612 0.48932,-0.23612c0.34518,0 0.625,0.27982 0.625,0.625c0,0.02004 -0.00094,0.03987 -0.00279,0.05943l-0.10363,1.23834l-0.12055,-0.01009c0.03878,1.39545 -0.10236,2.76692 -0.33052,4.13459c0.41165,-0.72875 0.82329,-1.4575 1.23494,-2.18626l0.60874,-1.07768c0.10564,-0.19549 0.31242,-0.3283 0.55022,-0.3283c0.34518,0 0.625,0.27982 0.625,0.625c0,0.09205 -0.0199,0.17944 -0.05563,0.25813l-0.48536,1.13689l-0.11915,-0.05087c-0.66526,2.92914 -2.13089,5.72994 -3.80491,8.4088c-0.32684,1.47425 -0.65367,2.9485 -0.98051,4.42274c1.33199,-2.07902 2.80308,-4.08546 4.25112,-6.03845c1.00169,-1.88168 2.00338,-3.76336 3.00507,-5.64503c0.48273,-1.24632 1.0255,-2.45636 1.68674,-3.59348l-0.10923,-0.04228l0.44598,-1.15211c0.08683,-0.24082 0.31737,-0.41298 0.58812,-0.41298c0.34518,0 0.625,0.27982 0.625,0.625c0,0.0077 -0.00014,0.01538 -0.00042,0.02301l-0.0337,1.06033l-0.05543,-0.00176l0.03466,0.14287c-0.26762,0.51722 -0.53768,1.03299 -0.80921,1.54797c-0.00817,0.02848 -0.01652,0.05701 -0.02504,0.0856c0.99956,-1.38968 1.99912,-2.77936 2.99868,-4.16904l0.72512,-1.00812c0.11303,-0.16126 0.30028,-0.2667 0.51216,-0.2667c0.34518,0 0.625,0.27982 0.625,0.625c0,0.04789 -0.00539,0.09451 -0.01558,0.13931l-0.25033,1.21131l-0.09116,-0.01884c-0.05513,1.54563 -0.26817,3.11817 -0.58301,4.69468c0.12553,0.11431 0.20432,0.27907 0.20432,0.46223c0,0.10497 -0.02588,0.2039 -0.07161,0.29075l-0.54247,1.08494c-0.22934,0.93774 -0.487,1.87374 -0.76115,2.80315c2.4235,-4.10941 4.847,-8.21882 7.27049,-12.32823l0.62904,-1.06663c0.10732,-0.18962 0.31087,-0.31759 0.5443,-0.31759c0.34518,0 0.625,0.27982 0.625,0.625c0,0.09133 -0.01959,0.17809 -0.0548,0.2563l-0.4816,1.13843l-0.1442,-0.061c-0.57324,2.27312 -1.67708,4.42416 -2.61595,6.59039l0.56762,-0.70316c0.11449,-0.14424 0.29135,-0.23674 0.48981,-0.23674c0.34518,0 0.625,0.27982 0.625,0.625c0,0.06116 -0.00878,0.12026 -0.02516,0.17612c0.21773,-0.31333 0.43547,-0.62666 0.6532,-0.93999l0.70824,-1.01919c0.11231,-0.1663 0.30255,-0.27565 0.51832,-0.27565c0.31307,0 0.57237,0.23018 0.61791,0.53054l0.20311,1.19494l-0.01412,0.0024c0.009,0.06715 0.01413,0.13498 0.0147,0.20362c0.00688,0.83509 -1.43523,2.73706 -1.84432,3.49678c-1.38279,2.56804 -2.76558,5.13608 -4.14837,7.70412c-0.33378,0.61989 -0.83043,1.172 -1.01801,1.85059c-0.14256,0.51572 0.24898,1.33483 -0.2214,1.58984c-0.5775,0.31308 -1.51833,0.08993 -1.92396,-0.42679c-0.35134,-0.44757 0.15075,-1.12889 0.26524,-1.68624c0.09852,-0.47957 0.21585,-0.95808 0.34353,-1.43554c-2.06788,3.26906 -3.9946,6.62688 -5.97413,9.95462c-1.12563,1.89227 -2.12324,3.92297 -3.43872,5.68013c-0.13814,0.2457 -0.27628,0.4914 -0.41442,0.7371l-0.00731,0.013l0.02612,0.01554l-0.63313,1.06434c-0.10764,0.18842 -0.31052,0.31543 -0.54307,0.31543c-0.34518,0 -0.625,-0.27982 -0.625,-0.625c0,-0.11531 0.03123,-0.22333 0.08569,-0.31606c0.13403,-0.2384 0.87517,-1.55663 1.0092,-1.79503c0.32053,-0.91754 0.95728,-1.90566 1.57845,-2.80753c0.84645,-1.50555 1.69291,-3.01111 2.53936,-4.51666c-0.09831,0.11066 -0.19806,0.21913 -0.29943,0.32504c-0.4223,0.44121 -0.77038,1.38194 -1.36105,1.22663c-0.65832,-0.17309 -0.61046,-1.21684 -0.91569,-1.82526c1.34727,-3.49451 2.75341,-6.9907 4.27572,-10.42767c-3.28133,4.74374 -6.56265,9.48749 -9.84398,14.23123c-0.45735,0.66118 -1.52534,2.83732 -2.27784,3.12883c-0.23758,0.09204 -0.58317,0.12158 -0.98843,0.10922l-0.32251,0.50654c-0.10995,0.1789 -0.30747,0.2982 -0.53286,0.2982c-0.34518,0 -0.625,-0.27982 -0.625,-0.625c0,-0.0827 0.01606,-0.16164 0.04523,-0.23388l0.03637,-0.0965c-1.12533,-0.18201 -2.3039,-0.4786 -2.90115,-0.6197c-0.57971,-0.13696 -1.44678,0.01494 -1.70981,-0.51951c-0.3104,-0.6307 1.51954,-3.24412 1.86092,-3.84848c0.89135,-1.578 1.78271,-3.156 2.67406,-4.734l0.10399,-0.61728l0.08262,0.01392c-0.04249,-2.8658 0.36521,-6.08874 1.05081,-9.22197c-0.81574,1.16868 -1.59488,2.35411 -2.34273,3.58087c-0.19406,0.52338 -0.38812,1.04677 -0.58219,1.57015c-0.55234,1.48964 -1.19148,2.85542 -1.90119,4.17792c-0.12724,1.11889 -0.25956,2.21626 -0.33222,3.25649c-0.06417,0.91859 0.19132,3.83988 -1.2852,4.05002c-0.58161,0.08278 -0.93784,-0.70779 -1.40677,-1.06168l-0.48108,-0.48108c-0.11024,0.17758 -0.307,0.29583 -0.53139,0.29583c-0.34518,0 -0.625,-0.27982 -0.625,-0.625c0,-0.10453 0.02566,-0.20307 0.07103,-0.28965l0.55107,-1.10789l0.11867,0.05903l0.03277,-0.05111c0.01118,-0.01744 0.02235,-0.03487 0.03351,-0.05228zM403.49442,344.27061c0.36961,-1.11545 0.73158,-2.23896 1.08921,-3.3728c0.24038,-0.76211 0.45274,-1.84261 0.73838,-2.91355c-0.36793,0.45934 -0.7383,0.91858 -1.10745,1.37918c-0.53275,0.72374 -1.06551,1.44748 -1.59826,2.17123c-0.4245,1.48574 -0.84899,2.97147 -1.27349,4.45721c0.03191,-0.02553 0.06382,-0.05105 0.09573,-0.07658c0.6853,-0.54823 1.37059,-1.09646 2.05589,-1.64468zM389.53754,355.23986c0.52185,-0.71003 1.04389,-1.41983 1.5651,-2.13019c-0.15499,-0.84317 -0.30591,-1.68711 -0.45555,-2.53137c-0.05846,0.29658 -0.11344,0.58695 -0.15077,0.86493c-0.17473,1.30122 -0.5169,2.56211 -0.95878,3.79662zM391.72195,356.33454c-0.78693,1.06904 -1.57387,2.13809 -2.3608,3.20713h0.38886v0.2104c0.46431,-0.01956 0.92586,0.01563 1.36883,0.13278c0.64121,0.16958 1.34322,1.25173 1.82409,0.79492c0.18773,-0.17833 -0.34947,-0.39738 -0.4406,-0.63974c-0.29329,-0.78002 -0.34626,-1.6303 -0.5194,-2.44545c-0.08913,-0.41964 -0.176,-0.83967 -0.26098,-1.26004zM413.70134,367.32507c-0.40985,0.72558 -0.72479,1.51367 -1.22956,2.17674c-0.15806,0.20763 -0.71343,0.27086 -0.5982,0.50499c0.29476,0.5989 1.3417,-0.08358 2.0025,0.01082c0.38615,0.05516 1.23904,0.30431 2.01098,0.46797c0.46623,-2.62636 1.43295,-5.12489 2.6804,-7.52151c0.36982,-1.66814 0.73964,-3.33629 1.10947,-5.00443c-0.92609,1.3721 -1.8485,2.71062 -2.67905,4.01649l-0.66518,1.04586c-0.07972,0.12987 -0.20558,0.22836 -0.35475,0.27268c-0.75887,1.34346 -1.51775,2.68693 -2.27662,4.03039zM421.04719,351.77886c0.1253,-0.56518 0.2506,-1.13036 0.37589,-1.69553c0.30559,-1.37841 0.25392,-3.53323 0.6539,-5.1645c-0.31956,0.39492 -0.63912,0.78984 -0.95869,1.18476c-0.80237,0.99158 -1.57266,1.96508 -2.31398,2.93492c-0.56537,2.47802 -0.91367,5.00739 -1.35004,7.59765c-0.09156,0.54348 -0.14271,1.20376 -0.21554,1.88496c0.50734,-0.89817 1.01468,-1.79633 1.52202,-2.6945c0.76214,-1.34925 1.52428,-2.6985 2.28642,-4.04775zM429.36432,359.03617c-0.02767,0.06662 -0.05536,0.13323 -0.08306,0.19983l0.01818,0.00354l0.01968,-0.06166c0.01508,-0.04725 0.03015,-0.09449 0.04519,-0.14171zM427.12972,364.23287c0.53091,-1.04736 1.44717,-2.10013 2.29486,-3.05877c-0.29278,-0.05192 -0.51513,-0.30768 -0.51513,-0.61537c0,-0.04525 0.00481,-0.08939 0.01395,-0.13191l0.12123,-0.62289c-0.61953,1.48364 -1.24927,2.96341 -1.91491,4.42894zM430.69022,359.68825c0.47228,-0.61457 0.97433,-1.22904 1.484,-1.84825c1.8084,-3.46928 3.4267,-6.97322 4.98629,-10.58472c-1.36074,2.30735 -2.72149,4.61469 -4.08223,6.92204c-0.66639,1.12997 -1.40841,3.06872 -2.26767,4.45021c-0.1021,0.31264 -0.20251,0.62286 -0.30067,0.93042l-0.18683,0.58534c0.13082,-0.15606 0.25405,-0.30793 0.36711,-0.45505zM411.37709,342.66303c0.12724,-0.23183 0.25565,-0.46267 0.38563,-0.6921c0.16378,-1.20739 0.39262,-2.41924 0.809,-3.36127c-0.52991,0.42392 -1.05981,0.84784 -1.58972,1.27176c0.03932,-0.00775 0.07995,-0.01181 0.12154,-0.01181c0.34518,0 0.625,0.27982 0.625,0.625c0,0.03707 -0.00323,0.07338 -0.00941,0.10867l-0.19302,1.22345l-0.09878,-0.01558c-0.01139,0.28371 -0.0284,0.5677 -0.05024,0.85189zM407.89148,343.90424c-0.67376,0.58951 -1.29645,1.22416 -1.79166,1.95882c-0.33454,0.49065 -0.66907,0.9813 -1.00361,1.47195c-0.46883,2.28302 -0.93648,4.56642 -1.41201,6.84806c1.3099,-1.49515 2.60894,-3.00761 3.73685,-4.60233c0.16327,-0.23085 0.32271,-0.46581 0.47889,-0.70431c0.0015,-0.13858 0.00223,-0.27874 0.00191,-0.42055c-0.00345,-1.51722 -0.00691,-3.03444 -0.01036,-4.55166zM418.51149,340.45902c0.10399,-0.28045 0.20657,-0.608 0.31231,-0.96407c-0.39574,0.64035 -0.79148,1.2807 -1.18722,1.92105c-1.70741,2.76277 -3.82026,5.52393 -5.22546,8.4487c-0.45958,0.95655 -0.84146,1.96166 -1.18632,2.99043c0.01582,-0.0012 0.03181,-0.00181 0.04794,-0.00181c0.00129,0 0.00258,0 0.00387,0.00001c0.29651,-0.37016 0.5932,-0.74007 0.88963,-1.11002c1.02469,-1.58021 2.04938,-3.16041 3.07407,-4.74062c0.2267,-0.3496 0.4534,-0.6992 0.68009,-1.0488l0.67455,-1.04024c0.08237,-0.1314 0.21225,-0.22998 0.36557,-0.27167c0.51699,-1.39432 1.03398,-2.78864 1.55098,-4.18296zM405.03778,358.73025c0.7493,-2.38395 1.72655,-4.7646 2.80799,-7.12734c-0.00245,-0.33867 0.00406,-0.68631 0.01341,-1.04443c-1.48559,2.05509 -3.04418,4.05084 -4.68597,6.05928c-0.19682,0.9305 -0.39549,1.86059 -0.59663,2.79011c-0.57647,0.88059 -1.15698,1.75854 -1.73959,2.63513c-0.4157,1.91514 -0.8314,3.83028 -1.2471,5.74542c0.40419,-0.60613 0.81971,-1.18041 1.11403,-1.68137c1.44462,-2.45893 2.88924,-4.91787 4.33386,-7.3768zM386.26469,359.52934c0.23155,-0.3914 0.45862,-0.76551 0.6467,-1.10856c0.80922,-1.57228 1.56751,-3.16815 2.03293,-4.7585c0.27108,-0.9263 0.40842,-1.84783 0.52013,-2.76568c-0.54006,0.92582 -1.08013,1.85164 -1.62019,2.77747c-0.11899,0.39383 -0.23607,0.79133 -0.34287,1.19389c-0.41223,1.5538 -0.82446,3.10759 -1.2367,4.66139zM381.47682,367.75532c0.52149,-0.82994 1.28003,-1.70257 1.97462,-2.49674c0.16128,-0.60792 0.32257,-1.21584 0.48385,-1.82375c-0.03866,-0.08126 -0.06029,-0.17219 -0.06029,-0.26817c0,-0.06584 0.01018,-0.1293 0.02905,-0.1889l0.34595,-1.1861l0.09908,0.0289c0.11163,-1.01887 0.29308,-2.11728 0.52902,-3.23203c-0.09052,0.051 -0.19503,0.08009 -0.30633,0.08009c-0.18041,0 -0.34297,-0.07644 -0.45706,-0.19871c-0.8793,3.09513 -1.7586,6.19027 -2.6379,9.2854zM391.38926,347.59691c0.24411,1.37217 0.48811,2.74325 0.73846,4.11283c1.55118,-2.12364 3.08875,-4.25679 4.58501,-6.42022c0.89829,-2.49431 1.79657,-4.98863 2.69486,-7.48294c-1.0482,1.31996 -2.09641,2.63992 -3.14461,3.95988c-1.32115,1.66367 -2.98067,3.38806 -4.50206,5.17179c-0.11451,0.20977 -0.23142,0.41751 -0.35089,0.62306c-0.00692,0.01187 -0.01384,0.02373 -0.02077,0.0356zM400.76027,320.5616c0.14597,-0.37312 0.29087,-0.83035 0.44484,-1.32716c-3.49408,5.23535 -6.98774,10.47071 -10.41786,15.74813c-0.6025,2.12081 -1.205,4.24161 -1.8075,6.36242c3.2839,-5.53078 6.5678,-11.06155 9.85169,-16.59233l0.63225,-1.06484c0.03842,-0.06739 0.08901,-0.12693 0.14879,-0.17564c0.38146,-0.98029 0.7619,-1.96423 1.14779,-2.95058zM386.48812,345.54142c0.6604,-2.3246 1.3208,-4.6492 1.98119,-6.9738c-0.53376,0.82739 -1.06752,1.65479 -1.60129,2.48218c0.00741,0.03847 0.01128,0.0782 0.01128,0.11884c0,0.0942 -0.02084,0.18354 -0.05817,0.26365l-0.49678,1.13214l-0.04723,-0.02072c-0.10428,0.21307 -0.21955,0.44857 -0.32383,0.66163c-0.49942,1.52518 -1.26136,3.0087 -2.12455,4.44705c-1.61821,3.57611 -2.97128,7.12926 -4.17998,10.96153c-0.44599,1.41406 -0.82778,2.90339 -1.27352,4.36828c0.73366,-0.98398 1.44422,-1.98288 2.07673,-3.02202c0.00067,-0.00759 0.00134,-0.01518 0.002,-0.02277c0.13227,-1.50747 -0.03153,-3.53095 0.45111,-4.96239c1.00289,-2.97443 3.55624,-6.02007 5.16287,-8.72598c0.14005,-0.23587 0.2801,-0.47174 0.42014,-0.70761zM386.93292,348.54986c2.28199,-4.02602 4.56397,-8.05203 6.84596,-12.07805c0.95793,-1.69004 1.81437,-3.41103 2.60907,-5.15538c-2.91396,4.90773 -5.82793,9.81546 -8.74189,14.72318c-0.23119,0.8138 -0.46239,1.6276 -0.69358,2.44139c-0.00652,0.02295 -0.01304,0.0459 -0.01956,0.06885zM381.40273,360.79857c-0.02309,0.97635 -0.02843,1.94702 -0.06095,2.85796c0.51403,-1.80939 1.02806,-3.61878 1.5421,-5.42818c-0.32053,0.5655 -0.64107,1.13101 -0.9616,1.69651c-0.16703,0.2941 -0.34055,0.58521 -0.51954,0.8737zM389.63636,334.45961c0.29868,-1.05135 0.59736,-2.10271 0.89604,-3.15406c0.16741,-0.58929 0.30438,-1.30768 0.44754,-2.05916c-0.3221,0.7433 -0.64419,1.48659 -0.96629,2.22989c-0.44635,1.03003 -0.8927,2.06007 -1.33905,3.0901c0.2602,0.07556 0.45039,0.31571 0.45039,0.60028c0,0.03106 -0.00227,0.06159 -0.00664,0.09144c0.1725,-0.26628 0.34517,-0.53244 0.518,-0.79849zM381.55623,358.03573c0.92382,-1.62986 1.84764,-3.25971 2.77146,-4.88957c0.32823,-1.15539 0.65647,-2.31077 0.9847,-3.46616c-1.26301,1.84996 -2.57115,3.78481 -3.2175,5.67831c-0.27507,0.80583 -0.43858,1.7176 -0.53866,2.67741zM382.12552,370.2563c0.18768,-0.70741 0.37536,-1.41482 0.56304,-2.12223c-0.27985,0.41838 -0.49067,0.81945 -0.58111,1.17968c-0.08706,0.34677 -0.0502,0.65075 0.01807,0.94255zM398.93991,356.36426c-0.14518,0.21293 -0.29036,0.42586 -0.43553,0.63878c-0.00942,0.13723 -0.01835,0.27586 -0.02723,0.41525c0.02831,-0.0639 0.05662,-0.1278 0.08493,-0.19171c0.12738,-0.28749 0.2533,-0.57492 0.37783,-0.86233zM397.01695,360.73425c-0.06157,-0.47352 -0.09271,-0.94156 -0.09805,-1.40578c-1.19238,1.75314 -2.27885,3.63653 -3.62757,5.26645c0.27821,0.49993 0.50517,1.08079 1.00167,1.05057c0.68353,-0.0416 0.71951,-1.1709 1.15779,-1.69707c0.47676,-0.57237 0.95352,-1.14474 1.43028,-1.7171c-0.00319,-0.02555 -0.00483,-0.05157 -0.00484,-0.07798l-0.00031,-1.25l0.11142,-0.00003l0.00469,-0.0516l0.04133,0.00376c-0.00404,-0.02871 -0.00797,-0.0574 -0.01179,-0.08607l-0.01208,-0.01805c0.00248,-0.0057 0.00497,-0.0114 0.00745,-0.0171zM396.2122,356.41423c-0.10269,-1.48325 -0.03112,-3.01716 0.16419,-4.57731c-0.39972,0.64017 -0.82584,1.25861 -1.29262,1.84318l0.12602,0.07154l-0.61107,1.07643c-0.10584,0.19482 -0.31225,0.32707 -0.54956,0.32707c-0.34518,0 -0.625,-0.27982 -0.625,-0.625c0,-0.07947 0.01483,-0.15548 0.04188,-0.22541l0.2078,-0.57702c-0.02675,0.0214 -0.0535,0.0428 -0.08025,0.0642c-0.28561,0.388 -0.57123,0.776 -0.85684,1.16401c0.23254,1.20207 0.47394,2.40272 0.72859,3.60168c0.0707,0.33287 0.3558,1.51635 0.42036,2.31033c0.47352,-0.80666 0.94704,-1.61332 1.42056,-2.41998c0.23424,-0.39903 0.46847,-0.79806 0.70271,-1.19709l0.09123,-0.75031l0.09252,0.01125c0.00362,-0.01817 0.01583,-0.07939 0.01946,-0.09757zM398.64457,363.06477c0.3413,-0.51328 0.68297,-1.02631 1.02552,-1.53874c0.06751,-0.31104 0.13503,-0.62208 0.20254,-0.93312c-0.26609,0.31945 -0.53219,0.63891 -0.79828,0.95836c-0.02185,0.06607 -0.0437,0.13215 -0.06556,0.19822c-0.12712,0.38437 -0.2421,0.83737 -0.36423,1.31528zM413.78626,351.77309c-0.30881,0.39928 -0.61754,0.7987 -0.92641,1.19804c-0.28286,0.43621 -0.56573,0.87242 -0.84859,1.30864l0.04765,0.35399l-0.19557,0.02633c0.1138,0.73729 0.16098,1.49945 0.16344,2.27444c0.01736,-0.03074 0.03475,-0.06144 0.05214,-0.09212c-0.00632,-0.05158 -0.00674,-0.10008 0.00309,-0.14257c0.18778,-0.8119 0.59453,-1.55702 0.8918,-2.33553c0.2462,-0.64478 0.50976,-1.57532 0.81245,-2.59122zM425.2366,355.38402c-1.11502,2.09456 -2.23003,4.18912 -3.34505,6.28367c0.79482,-1.18632 1.55786,-2.38945 2.18453,-3.62882c0.43261,-0.85557 0.81184,-1.74528 1.16051,-2.65485zM428.06554,351.17726c-1.77794,4.48139 -3.73454,8.46396 -6.16026,12.52214c2.11302,-3.05475 4.22604,-6.1095 6.33907,-9.16425c1.29872,-1.87753 2.47601,-3.9059 3.97568,-5.61875c0.1307,-0.56862 0.25583,-1.14048 0.37484,-1.7164c0.1716,-0.83036 0.25821,-1.93784 0.47115,-2.96933c-1.55195,2.15767 -3.10391,4.31534 -4.65586,6.47301c-0.11351,0.15781 -0.22844,0.31566 -0.34462,0.47357zM436.86252,353.87628c-0.03764,0.13983 -0.0759,0.28147 -0.11506,0.42506c-0.21451,0.78653 -0.42902,1.57306 -0.64352,2.35959c0.17255,-0.28851 0.34854,-0.58144 0.51214,-0.88527c1.24095,-2.30463 2.47514,-4.6129 3.72777,-6.91094c-1.08065,1.55511 -2.1613,3.11022 -3.24195,4.66533c-0.08008,0.11523 -0.15987,0.23065 -0.23938,0.34623zM426.80413,365.0387c0.03834,-0.13156 0.08475,-0.26361 0.1383,-0.39596c-0.03223,0.07011 -0.06456,0.14019 -0.09697,0.21023c-0.01037,0.04505 -0.02527,0.1125 -0.04133,0.18574zM393.94956,338.70562c-1.65417,2.91839 -3.30834,5.83677 -4.96251,8.75516l0.09848,0.83463c0.22362,-0.30276 0.45548,-0.60383 0.69356,-0.90324l0.14262,-1.06212c0.03682,-0.31006 0.30064,-0.55051 0.62061,-0.55051c0.1364,0 0.2626,0.0437 0.36536,0.11785c1.19634,-2.24509 2.15738,-4.70183 3.04189,-7.19177zM388.81725,348.66518c0.00932,-0.01309 0.01866,-0.02617 0.02801,-0.03926l-0.03003,0.00354c0.0007,0.01191 0.00138,0.02381 0.00202,0.03571zM410.1529,364.15102c-0.40946,0.66718 -0.83457,1.33743 -1.27313,2.02162c0.03977,0.02968 0.06217,0.05208 0.06217,0.05208l0.61612,0.61612c0.12033,0.23536 0.11504,0.60924 0.361,0.70609c0.51317,0.20207 0.07835,-1.10026 0.11301,-1.65069c0.03665,-0.58198 0.07887,-1.16359 0.12083,-1.74522zM407.88208,339.77759c-0.27826,0.60496 -0.65333,1.22287 -1.04554,1.81937c0.34926,-0.2794 0.69852,-0.55881 1.04778,-0.83821c-0.00074,-0.32705 -0.00149,-0.65411 -0.00223,-0.98116zM409.15273,348.8445c0.00307,-0.00629 0.00614,-0.01259 0.0092,-0.01888c0.0071,-0.04808 0.01422,-0.09614 0.02138,-0.14418c-0.01028,0.01495 -0.02056,0.02989 -0.03085,0.04483c0.00009,0.03941 0.00018,0.07882 0.00027,0.11823zM416.07691,350.62055c0.41307,-0.57658 0.8352,-1.15039 1.26699,-1.72423c0.23375,-0.81957 0.48356,-1.6209 0.74597,-2.39499c-0.27966,0.31699 -0.56086,0.62392 -0.82483,0.91485c-0.39604,1.06813 -0.79209,2.13625 -1.18813,3.20438zM405.77302,344.04853c-0.01899,0.0918 -0.03797,0.18361 -0.05694,0.27541c0.32966,-0.37991 0.68557,-0.73552 1.05771,-1.07601c-0.33359,0.26687 -0.66718,0.53373 -1.00077,0.8006zM400.49159,344.42105c-0.04365,0.05929 -0.08729,0.11858 -0.13094,0.17788c-0.02664,0.04297 -0.05316,0.08603 -0.07957,0.1292c-0.16651,0.75595 -0.34292,1.51198 -0.52463,2.26589c0.24504,-0.85765 0.49009,-1.71531 0.73513,-2.57296zM401.47622,340.97488c0.01726,-0.06039 0.03451,-0.12079 0.05177,-0.18118c-0.20563,0.2759 -0.41754,0.54726 -0.62612,0.81041c-0.01146,0.06606 -0.02305,0.13214 -0.03476,0.19825c0.20304,-0.27582 0.40608,-0.55165 0.60911,-0.82747zM401.97573,347.08632c-0.4086,0.32687 -0.8172,0.65375 -1.22579,0.98062c-0.20551,0.71928 -0.41102,1.43855 -0.61652,2.15783c0.61411,-1.04615 1.22821,-2.0923 1.84232,-3.13845zM400.44598,357.95152c0.11532,-0.53127 0.23063,-1.06253 0.34595,-1.5938c-0.21545,0.65148 -0.43091,1.30297 -0.64636,1.95445c0.10014,-0.12022 0.20027,-0.24044 0.30041,-0.36065zM409.49505,346.17529c0.1211,-1.38582 0.25034,-2.96231 0.72365,-4.14171c-0.35444,0.2848 -0.7177,0.56549 -1.07955,0.8494c0.00297,1.30641 0.00595,2.61282 0.00892,3.91923c0.11666,-0.20781 0.23221,-0.41689 0.34697,-0.62693zM390.58556,361.06468c0.506,0.94441 0.99017,1.64857 1.75073,2.44274c0.34417,-0.58631 0.68834,-1.17261 1.03251,-1.75892c-0.67308,0.06737 -1.8322,-0.28405 -2.78325,-0.68382z" fill-opacity="0.50196" fill="#ff0000" stroke="none" stroke-width="0.5"/></g></g></svg>