<svg version="1.1" xmlns="http://www.w3.org/2000/svg" xmlns:xlink="http://www.w3.org/1999/xlink" width="76.33333" height="101" viewBox="0,0,76.33333,101"><defs><radialGradient cx="351.25009" cy="158.77778" r="16.66667" gradientUnits="userSpaceOnUse" id="color-1"><stop offset="0" stop-color="#000000"/><stop offset="1" stop-color="#000000" stop-opacity="0"/></radialGradient><radialGradient cx="369.91676" cy="161.11111" r="16.66667" gradientUnits="userSpaceOnUse" id="color-2"><stop offset="0" stop-color="#000000"/><stop offset="1" stop-color="#000000" stop-opacity="0"/></radialGradient><radialGradient cx="360.12493" cy="159.61112" r="16.66666" gradientUnits="userSpaceOnUse" id="color-3"><stop offset="0" stop-color="#000000"/><stop offset="1" stop-color="#000000" stop-opacity="0"/></radialGradient></defs><g transform="translate(-321.83333,-129.5)"><g data-paper-data="{&quot;isPaintingLayer&quot;:true}" fill-rule="nonzero" stroke-linejoin="miter" stroke-miterlimit="10" stroke-dasharray="" stroke-dashoffset="0" style="mix-blend-mode: normal"><path d="M321.83333,230.5v-101h76.33333v101z" fill="#273042" stroke="none" stroke-width="0" stroke-linecap="butt"/><path d="M329.75469,196.83333v-61.66667h60.49068v61.66667z" fill="#0b0e13" stroke="none" stroke-width="0" stroke-linecap="butt"/><path d="M343.08348,227.33333v-17.33333h33.83333v17.33333z" fill="#0b0e13" stroke="#000000" stroke-width="0" stroke-linecap="butt"/><path d="M342.99992,209.125v-11.25h34.25v11.25z" fill="#273042" stroke="#000000" stroke-width="0" stroke-linecap="butt"/><text transform="translate(349.40023,207.0298) scale(0.29415,0.29415)" font-size="40" xml:space="preserve" fill="#000000" fill-rule="nonzero" stroke="none" stroke-width="1" stroke-linecap="butt" stroke-linejoin="miter" stroke-miterlimit="10" stroke-dasharray="" stroke-dashoffset="0" font-family="&quot;GovtAgentBB&quot;, Serif" font-weight="normal" text-anchor="start" style="mix-blend-mode: normal"><tspan x="0" dy="0">RED</tspan></text><text transform="translate(345.44341,222.26211) scale(0.29962,0.29962)" font-size="40" xml:space="preserve" fill="#c79e44" fill-rule="nonzero" stroke="none" stroke-width="1" stroke-linecap="butt" stroke-linejoin="miter" stroke-miterlimit="10" stroke-dasharray="" stroke-dashoffset="0" font-family="&quot;Agency FB&quot;, Sans Serif" font-weight="normal" text-anchor="start" style="mix-blend-mode: normal"><tspan x="0" dy="0">MEDIUM</tspan></text><g><g stroke="none" stroke-width="0" stroke-linecap="butt"><g><path d="M335.17553,183.32424c1.01473,-7.56504 5.0345,-37.53344 5.51384,-41.10706c0.09192,-0.68527 0.69208,-1.1287 1.39576,-1.03431c3.66787,0.49198 34.38965,4.61281 41.3867,5.55135c0.90621,0.12155 1.34543,0.7044 1.25351,1.38967c-0.48765,3.63556 -4.6395,34.58862 -5.56386,41.47992c-0.11665,0.86966 -0.66602,1.29119 -1.31673,1.20391c-3.57479,-0.4795 -35.01028,-4.69606 -41.66634,-5.58886c-0.79348,-0.10643 -1.15075,-0.79228 -1.00289,-1.89461z" fill="#db7474"/><g fill="#e57979"><path d="M380.35516,148.59751c-0.07712,0.57499 -2.07582,0.7814 -4.46422,0.46104c-2.38839,-0.32036 -4.26205,-1.04619 -4.18493,-1.62118c0.07712,-0.57499 2.07583,-0.78139 4.46422,-0.46102c2.38839,0.32036 4.26205,1.04618 4.18492,1.62117z"/><path d="M382.89541,150.32417c-0.04746,0.35384 -0.7134,0.55651 -1.48742,0.45269c-0.77402,-0.10382 -1.363,-0.47483 -1.31554,-0.82866c0.04746,-0.35384 0.7134,-0.55651 1.48741,-0.45269c0.77402,0.10382 1.36301,0.47482 1.31555,0.82866z"/></g></g><g><path d="M372.26032,172.3095c0.34181,-2.54827 2.68469,-4.33697 5.23296,-3.99516c2.54827,0.34181 4.33697,2.68469 3.99516,5.23296c-0.34181,2.54827 -2.68469,4.33697 -5.23296,3.99516c-2.54827,-0.34181 -4.33697,-2.68469 -3.99516,-5.23296z" fill="#e88ad9"/><path d="M376.61747,170.18094c0.06215,-0.46333 0.86373,-0.73816 1.79037,-0.61387c0.92664,0.12429 1.62745,0.60065 1.56531,1.06398c-0.06215,0.46333 -0.86372,0.73816 -1.79036,0.61386c-0.92664,-0.12429 -1.62746,-0.60065 -1.56531,-1.06397z" fill="#f498e5"/><path d="M378.42325,172.21741c0.04143,-0.30888 0.57581,-0.4921 1.19358,-0.40924c0.61776,0.08286 1.08498,0.40043 1.04354,0.70931c-0.04143,0.30888 -0.57582,0.4921 -1.19358,0.40924c-0.61776,-0.08286 -1.08497,-0.40043 -1.04354,-0.70931z" fill="#f498e5"/></g><g><path d="M337.49691,167.54302c0.34181,-2.54827 2.68469,-4.33697 5.23296,-3.99516c2.54827,0.34181 4.33697,2.68469 3.99516,5.23296c-0.34181,2.54827 -2.68469,4.33697 -5.23296,3.99516c-2.54827,-0.34181 -4.33697,-2.68469 -3.99516,-5.23296z" fill="#e88ad9"/><path d="M341.85405,165.41446c0.06215,-0.46333 0.86372,-0.73816 1.79037,-0.61386c0.92665,0.12429 1.62746,0.60065 1.56531,1.06397c-0.06215,0.46333 -0.86372,0.73816 -1.79037,0.61386c-0.92665,-0.12429 -1.62746,-0.60065 -1.56532,-1.06397z" fill="#f498e5"/><path d="M343.65984,167.45092c0.04143,-0.30888 0.57582,-0.4921 1.19358,-0.40924c0.61776,0.08286 1.08497,0.40043 1.04354,0.70931c-0.04143,0.30888 -0.57581,0.49211 -1.19358,0.40924c-0.61776,-0.08286 -1.08497,-0.40043 -1.04354,-0.70932z" fill="#f498e5"/></g></g><g><g><g stroke="none" stroke-width="0" stroke-linecap="butt"><path d="M379.02152,171.59497c-0.15995,1.19246 -7.7941,15.76263 -21.86123,14.00505c-15.03731,-1.8788 -17.94549,-18.13056 -17.78554,-19.32301c0.15995,-1.19246 6.68525,5.01301 19.43803,7.00326c13.04165,2.03533 20.36869,-2.87775 20.20874,-1.68529z" fill="#1d1d1d"/><path d="M378.08068,172.778c-0.13512,1.00737 -7.23608,13.22862 -20.76102,11.52369c-14.45772,-1.82251 -17.49834,-15.63007 -17.36321,-16.63744c0.13512,-1.00737 6.49187,4.34816 18.75922,6.22989c12.54523,1.92435 19.50014,-2.12352 19.36502,-1.11614z" fill="#f5f5f5"/></g><path d="M374.52535,176.64617c0,0 -7.80039,3.36828 -16.59533,2.04407c-8.29953,-1.24961 -15.93611,-6.40764 -15.93611,-6.40764" fill="none" stroke="#c3ced4" stroke-width="1.5" stroke-linecap="round"/></g><g stroke="none" stroke-linecap="butt"><g stroke-width="0"><path d="M358.68652,159.54458c-0.76134,5.67599 -4.73804,9.82666 -8.8822,9.27079c-4.14416,-0.55587 -6.88648,-5.60779 -6.12514,-11.28378c0.76134,-5.67599 4.73804,-9.82666 8.8822,-9.27079c4.14416,0.55587 6.88648,5.60779 6.12514,11.28378z" fill="#1d1d1d"/><path d="M357.3921,159.35534c-0.71814,5.35395 -4.07557,9.32193 -7.499,8.86273c-3.42344,-0.4592 -5.61651,-5.17169 -4.89836,-10.52563c0.71814,-5.35395 4.07556,-9.32193 7.499,-8.86273c3.42344,0.4592 5.61651,5.17169 4.89837,10.52563z" fill="#f5f5f5"/></g><g fill="none" stroke-width="1" font-family="sans-serif" font-weight="normal" font-size="12" text-anchor="start"/></g><g stroke="none" stroke-linecap="butt"><g stroke-width="0"><path d="M377.27864,161.6502c-0.76134,5.67599 -4.73804,9.82666 -8.8822,9.27079c-4.14416,-0.55587 -6.88648,-5.60779 -6.12514,-11.28378c0.76134,-5.67599 4.73804,-9.82667 8.8822,-9.2708c4.14416,0.55587 6.88648,5.6078 6.12514,11.28379z" fill="#1d1d1d"/><path d="M375.98419,161.46097c-0.71814,5.35395 -4.07556,9.32193 -7.499,8.86273c-3.42344,-0.4592 -5.61651,-5.17169 -4.89836,-10.52563c0.71814,-5.35395 4.07556,-9.32193 7.499,-8.86273c3.42344,0.4592 5.61651,5.17169 4.89836,10.52563z" fill="#f5f5f5"/></g><g fill="none" stroke-width="1" font-family="sans-serif" font-weight="normal" font-size="12" text-anchor="start"/></g></g></g><g stroke="none" stroke-width="0" stroke-linecap="butt"><path d="M334.58342,158.77778c0,-9.20475 7.46192,-16.66667 16.66667,-16.66667c9.20475,0 16.66667,7.46192 16.66667,16.66667c0,9.20475 -7.46192,16.66667 -16.66667,16.66667c-9.20475,0 -16.66667,-7.46192 -16.66667,-16.66667z" fill="url(#color-1)"/><path d="M353.25009,161.11111c0,-9.20475 7.46193,-16.66667 16.66667,-16.66667c9.20475,0 16.66667,7.46193 16.66667,16.66667c0,9.20475 -7.46192,16.66666 -16.66667,16.66666c-9.20475,0 -16.66667,-7.46192 -16.66667,-16.66666z" fill="url(#color-2)"/><path d="M343.45826,159.61112c0,-9.20475 7.46193,-16.66667 16.66667,-16.66667c9.20475,0 16.66666,7.46193 16.66666,16.66667c0,9.20475 -7.46192,16.66666 -16.66666,16.66666c-9.20475,0 -16.66667,-7.46192 -16.66667,-16.66666z" fill="url(#color-3)"/></g></g></g></svg>