<svg version="1.1" xmlns="http://www.w3.org/2000/svg" xmlns:xlink="http://www.w3.org/1999/xlink" width="115.93572" height="326.07062" viewBox="0,0,115.93572,326.07062"><g transform="translate(-302.03214,-16.96469)"><g stroke="none" stroke-width="0" stroke-miterlimit="10"><g><g fill="#1e1812"><path d="M374.49877,309.25902c5.18839,0.19687 9.54858,2.86612 15.12792,5.25623c7.3979,3.16916 1.47857,11.71265 -2.31522,17.11944c-3.7938,5.40679 6.43617,18.5177 -18.79811,1.41975c-6.66274,-4.51446 -8.85335,-12.7532 -5.05956,-18.16c1.66381,-2.37121 4.62861,-5.87888 11.04496,-5.63542z"/><path d="M392.12296,313.13895c8.55043,1.68144 14.17962,9.66696 12.57315,17.83616c-1.60647,8.1692 -9.84026,13.42857 -18.39069,11.74713c-8.55043,-1.68143 -14.17962,-9.66696 -12.57315,-17.83615c1.60647,-8.1692 9.84026,-13.42857 18.39069,-11.74714z"/></g><g><path d="M362.74068,252.88534c-0.02581,-6.15873 4.94591,-11.17229 11.10464,-11.1981c6.15873,-0.02581 11.17228,4.94591 11.1981,11.10464c0.02581,6.15873 -4.9459,11.17228 -11.10463,11.19809c-6.15873,0.02581 -11.17229,-4.9459 -11.1981,-11.10463z" fill="#6e2d2a"/><path d="M360.21698,310.08831l-0.18682,-49.64639c0,0 0.31235,-5.53559 14.05312,-5.59317c13.07046,-0.05478 13.73389,5.47671 13.73389,5.47671l0.18683,49.6464c0,0 -1.78271,4.11573 -13.69394,4.05436c-12.70981,-0.06548 -14.09307,-3.93791 -14.09307,-3.93791z" fill="#893834"/></g><g><path d="M362.74068,189.88534c-0.02581,-6.15873 4.94591,-11.17229 11.10464,-11.1981c6.15873,-0.02581 11.17228,4.94591 11.1981,11.10464c0.02581,6.15873 -4.9459,11.17228 -11.10463,11.19809c-6.15873,0.02581 -11.17229,-4.9459 -11.1981,-11.10463z" fill="#6e2d2a"/><path d="M360.21698,247.08831l-0.18682,-49.6464c0,0 0.31235,-5.53559 14.05312,-5.59317c13.07046,-0.05478 13.73389,5.47671 13.73389,5.47671l0.18683,49.6464c0,0 -1.78271,4.11573 -13.69394,4.05437c-12.70981,-0.06548 -14.09307,-3.93792 -14.09307,-3.93792z" fill="#893834"/></g></g><g><g fill="#1e1812"><path d="M355.54618,314.89444c3.79379,5.4068 1.60318,13.64553 -5.05956,18.15999c-25.23428,17.09794 -15.00431,3.98705 -18.7981,-1.41975c-3.79379,-5.4068 -9.71312,-13.95029 -2.31522,-17.11944c5.57935,-2.39011 9.93953,-5.05936 15.12792,-5.25623c6.41635,-0.24346 9.38115,3.26422 11.04496,5.63543z"/><path d="M345.26773,324.88608c1.60647,8.1692 -4.02272,16.15472 -12.57315,17.83616c-8.55043,1.68144 -16.78422,-3.57793 -18.39069,-11.74714c-1.60647,-8.1692 4.02272,-16.15472 12.57315,-17.83616c8.55043,-1.68144 16.78422,3.57793 18.39069,11.74714z"/></g><g><path d="M345.06122,263.98997c-6.15873,-0.02581 -11.13044,-5.03937 -11.10463,-11.1981c0.02581,-6.15873 5.03937,-11.13045 11.1981,-11.10464c6.15873,0.02581 11.13045,5.03937 11.10464,11.1981c-0.02581,6.15873 -5.03938,11.13044 -11.1981,11.10463z" fill="#6e2d2a"/><path d="M344.68994,314.02623c-11.91123,0.06137 -13.69395,-4.05436 -13.69395,-4.05436l0.18684,-49.6464c0,0 0.66343,-5.53149 13.73389,-5.47671c13.74077,0.05758 14.05312,5.59317 14.05312,5.59317l-0.18682,49.6464c0,0 -1.38325,3.87243 -14.09307,3.93791z" fill="#893834"/></g><g><path d="M345.06122,200.98997c-6.15873,-0.02581 -11.13044,-5.03937 -11.10463,-11.1981c0.02581,-6.15873 5.03937,-11.13045 11.1981,-11.10464c6.15873,0.02581 11.13045,5.03937 11.10464,11.1981c-0.02581,6.15873 -5.03937,11.13044 -11.1981,11.10463z" fill="#6e2d2a"/><path d="M344.68994,251.02622c-11.91123,0.06136 -13.69395,-4.05436 -13.69395,-4.05436l0.18683,-49.6464c0,0 0.66342,-5.53149 13.73389,-5.47672c13.74077,0.05758 14.05312,5.59317 14.05312,5.59317l-0.18683,49.6464c0,0 -1.38326,3.87244 -14.09307,3.93792z" fill="#893834"/></g></g><g><g><g><path d="M324.48536,227.5785c-1.43837,-2.0941 -0.9068,-4.95774 1.1873,-6.39612c2.0941,-1.43837 4.95774,-0.9068 6.39612,1.1873c1.43837,2.0941 0.9068,4.95774 -1.1873,6.39612c-2.0941,1.43837 -4.95774,0.9068 -6.39612,-1.1873z" fill="#6e2d2a"/><path d="M338.63243,240.42639c-5.58552,3.83652 -12.73728,-10.41929 -12.73728,-10.41929c0,0 -0.42483,-2.18879 2.87584,-4.6443c2.58085,-1.92001 5.20215,-0.90422 5.20215,-0.90422c0,0 10.24481,12.13129 4.65929,15.96781z" fill="#893834"/></g><path d="M303.04034,242.54409v-11.8h25.67056v11.8z" fill="#6e2d2a"/><path d="M329.83214,231.34409c0,7.62153 -27.8,7.62153 -27.8,0c0,-7.62153 4.02324,-15.4 16.9,-15.4c7.67676,0 10.9,7.77847 10.9,15.4z" fill="#893834"/><path d="M329.50902,236.64409c0,11.37807 0.31686,12.64045 -7.17704,12.9c-3.15826,0.10938 -3.47923,-2.14293 -3.47923,-2.14293c0,0 0.50303,3.2663 -11.38469,1.78258c-7.00459,-0.87425 -5.11313,-9.93833 -5.11313,-12.53965c0,-5.57808 -0.66652,2.71454 13.76431,2.5c12.92668,-0.19218 13.38977,-8.07808 13.38977,-2.5z" fill="#893834"/></g><g><path d="M309.24869,171.33799c0.25582,-5.60906 5.01026,-9.94872 10.61933,-9.6929c5.60906,0.25582 9.94872,5.01026 9.69289,10.61933c-0.25582,5.60906 -5.01026,9.94872 -10.61932,9.6929c-5.60906,-0.25583 -9.94872,-5.01026 -9.6929,-10.61932z" fill="#6e2d2a"/><path d="M304.58609,218.69781l1.85183,-40.60205c0,0 0.53548,-5.02632 13.04989,-4.45554c11.90392,0.54293 12.25714,5.60978 12.25714,5.60978l-1.85182,40.60205c0,0 -1.80993,3.66677 -12.65304,3.07066c-11.57008,-0.63607 -12.65399,-4.22489 -12.65399,-4.22489z" fill="#893834"/></g><g><path d="M326.72622,120.83076c1.89192,-5.28655 7.71123,-8.03845 12.99779,-6.14652c5.28655,1.89192 8.03845,7.71123 6.14652,12.99778c-1.89192,5.28655 -7.71123,8.03845 -12.99779,6.14652c-5.28655,-1.89192 -8.03845,-7.71123 -6.14652,-12.99778z" fill="#6e2d2a"/><path d="M308.35964,164.73249l13.69498,-38.26752c0,0 1.98809,-4.64738 13.78295,-0.4263c11.21947,4.01516 10.06897,8.96229 10.06897,8.96229l-13.69497,38.26752c0,0 -2.80704,2.97348 -12.99687,-0.78096c-10.873,-4.00615 -10.85506,-7.75504 -10.85506,-7.75504z" fill="#893834"/></g></g><g><g><g><path d="M389.11844,228.7658c-2.09411,-1.43838 -2.62568,-4.30201 -1.1873,-6.39611c1.43838,-2.09411 4.30201,-2.62568 6.39612,-1.18731c2.09411,1.43838 2.62568,4.30201 1.1873,6.39612c-1.43837,2.09411 -4.30201,2.62568 -6.39612,1.1873z" fill="#6e2d2a"/><path d="M386.02686,224.45858c0,0 2.62131,-1.01579 5.20216,0.90422c3.30066,2.45551 2.87583,4.64431 2.87583,4.64431c0,0 -7.15176,14.25581 -12.73728,10.41929c-5.58552,-3.83652 4.65929,-15.96781 4.65929,-15.96781z" fill="#893834"/></g><path d="M391.28906,242.54409v-11.8h25.67056v11.8z" fill="#6e2d2a"/><path d="M401.06786,215.94409c12.87676,0 16.9,7.77847 16.9,15.4c0,7.62153 -27.8,7.62153 -27.8,0c0,-7.62153 3.22324,-15.4 10.9,-15.4z" fill="#893834"/><path d="M403.88075,239.14409c14.43083,0.21454 13.76432,-8.07808 13.76432,-2.5c0,2.60132 1.89146,11.6654 -5.11313,12.53965c-11.88772,1.48372 -11.38469,-1.78258 -11.38469,-1.78258c0,0 -0.32097,2.25231 -3.47922,2.14293c-7.4939,-0.25955 -7.17704,-1.52193 -7.17704,-12.9c0,-5.57808 0.46309,2.30782 13.38977,2.5z" fill="#893834"/></g><g><path d="M401.05832,181.95731c-5.60906,0.25582 -10.36349,-4.08383 -10.61932,-9.6929c-0.25582,-5.60906 4.08383,-10.3635 9.6929,-10.61932c5.60906,-0.25582 10.3635,4.08383 10.61933,9.6929c0.25583,5.60906 -4.08384,10.3635 -9.6929,10.61932z" fill="#6e2d2a"/><path d="M402.75987,222.92271c-10.84311,0.5961 -12.65305,-3.07066 -12.65305,-3.07066l-1.85183,-40.60205c0,0 0.35321,-5.06685 12.25714,-5.60978c12.51441,-0.57077 13.04989,4.45555 13.04989,4.45555l1.85183,40.60205c0,0 -1.0839,3.58883 -12.65398,4.2249z" fill="#893834"/></g><g><path d="M387.12719,133.82855c-5.28656,1.89192 -11.10586,-0.85997 -12.99778,-6.14652c-1.89193,-5.28655 0.85997,-11.10586 6.14652,-12.99779c5.28655,-1.89192 11.10586,0.85997 12.99778,6.14652c1.89193,5.28655 -0.85997,11.10586 -6.14652,12.99779z" fill="#6e2d2a"/><path d="M400.78526,172.48753c-10.18983,3.75444 -12.99687,0.78096 -12.99687,0.78096l-13.69497,-38.26753c0,0 -1.1505,-4.94712 10.06897,-8.96229c11.79486,-4.22108 13.78295,0.4263 13.78295,0.4263l13.69498,38.26752c0,0 0.01794,3.74889 -10.85506,7.75504z" fill="#893834"/></g></g><g><path d="M384.59999,178.26747c0,6.57219 -11.23765,14.7 -25.1,14.7c-13.86235,0 -25.1,-8.12781 -25.1,-14.7c0,-6.57219 11.23765,-11.9 25.1,-11.9c13.86235,0 25.1,5.32781 25.1,11.9z" fill="#893834"/><g><path d="M332.53199,153.61748c0,0 -10.34113,-48.57703 27.1583,-47.95279c37.12243,0.61796 26.46003,46.95449 26.46003,46.95449c0,0 14.59744,32.24325 -25.73596,32.37884c-41.91183,0.1409 -27.88236,-31.38054 -27.88236,-31.38054z" fill="#a3433e"/><g fill="#893834"><g><path d="M375.65347,133.07367c-7.78953,0 -14.10419,-3.03996 -14.10419,-6.78994c0,-3.74998 6.31466,-6.78994 14.10419,-6.78994c3.86619,0 0.31851,6.71522 0.31851,6.71522c0,0 3.60483,6.86466 -0.31851,6.86466z"/><path d="M363.17427,126.28373c0,-0.61812 0.5011,-1.11922 1.11922,-1.11922c0.61812,0 7.98377,1.11922 7.98377,1.11922c0,0 -7.36565,1.11922 -7.98377,1.11922c-0.61812,0 -1.11922,-0.50109 -1.11922,-1.11922z"/></g><g><path d="M342.31816,126.20901c0,0 -3.54767,-6.71521 0.31852,-6.71521c7.78953,0 14.1042,3.03995 14.1042,6.78993c0,3.74998 -6.31466,6.78994 -14.1042,6.78994c-3.92334,0 -0.31852,-6.86466 -0.31852,-6.86466z"/><path d="M353.99667,127.40295c-0.61812,0 -7.98377,-1.11922 -7.98377,-1.11922c0,0 7.36565,-1.11922 7.98377,-1.11922c0.61812,0 1.11922,0.50109 1.11922,1.11922c0,0.61812 -0.5011,1.11922 -1.11922,1.11922z"/></g><path d="M352.6536,126.28373c0,-3.58515 2.90633,-6.49148 6.49148,-6.49148c3.58515,0 6.49148,2.90633 6.49148,6.49148c0,3.58515 -2.90633,6.49148 -6.49148,6.49148c-3.58515,0 -6.49148,-2.90633 -6.49148,-6.49148z"/></g><g><g><path d="M377.58246,131.4385c-8.69973,0 -15.75226,-3.39517 -15.75226,-7.58334c0,-4.18816 7.05253,-7.58334 15.75226,-7.58334c4.31795,0 0.35573,7.49988 0.35573,7.49988c0,0 4.02605,7.66679 -0.35573,7.66679z" fill="#2a2119"/><path d="M363.64508,123.85516c0,-0.69036 0.55964,-1.25 1.25,-1.25c0.69036,0 8.91667,1.25 8.91667,1.25c0,0 -8.22631,1.25 -8.91667,1.25c-0.69036,0 -1.25,-0.55964 -1.25,-1.25z" fill="#1e1812"/></g><g><path d="M340.35196,123.7717c0,0 -3.96221,-7.49988 0.35574,-7.49988c8.69973,0 15.75225,3.39517 15.75225,7.58333c0,4.18816 -7.05253,7.58333 -15.75225,7.58333c-4.38178,0 -0.35574,-7.66679 -0.35574,-7.66679z" fill="#2a2119"/><path d="M353.39508,125.10516c-0.69036,0 -8.91667,-1.25 -8.91667,-1.25c0,0 8.22632,-1.25 8.91667,-1.25c0.69036,0 1.25,0.55964 1.25,1.25c0,0.69036 -0.55964,1.25 -1.25,1.25z" fill="#1e1812"/></g><path d="M351.89508,123.85516c0,-4.00406 3.24594,-7.25 7.25,-7.25c4.00406,0 7.25,3.24594 7.25,7.25c0,4.00406 -3.24594,7.25 -7.25,7.25c-4.00406,0 -7.25,-3.24594 -7.25,-7.25z" fill="#1e1812"/></g><g><path d="M356.42857,139.47421c0,-1.6963 1.37512,-3.07143 3.07143,-3.07143c1.6963,0 3.07143,1.37512 3.07143,3.07143c0,1.6963 -1.37513,3.07143 -3.07143,3.07143c-1.6963,0 -3.07143,-1.37512 -3.07143,-3.07143z" fill="#893834"/><path d="M356.42857,138.33135c0,-1.6963 1.37512,-3.07143 3.07143,-3.07143c1.6963,0 3.07143,1.37512 3.07143,3.07143c0,1.6963 -1.37513,3.07143 -3.07143,3.07143c-1.6963,0 -3.07143,-1.37512 -3.07143,-3.07143z" fill="#1e1812"/></g><g><path d="M356.42857,148.61706c0,-1.6963 1.37512,-3.07143 3.07143,-3.07143c1.6963,0 3.07143,1.37512 3.07143,3.07143c0,1.6963 -1.37513,3.07143 -3.07143,3.07143c-1.6963,0 -3.07143,-1.37512 -3.07143,-3.07143z" fill="#893834"/><path d="M356.42857,147.47421c0,-1.6963 1.37512,-3.07143 3.07143,-3.07143c1.6963,0 3.07143,1.37512 3.07143,3.07143c0,1.6963 -1.37513,3.07143 -3.07143,3.07143c-1.6963,0 -3.07143,-1.37512 -3.07143,-3.07143z" fill="#1e1812"/></g><path d="M372.64508,111.08135c0,2.41625 -6.04415,4.375 -13.5,4.375c-7.45585,0 -13.5,-1.95875 -13.5,-4.375c0,-2.41625 6.04415,-4.375 13.5,-4.375c7.45585,0 13.5,1.95875 13.5,4.375z" fill="#6e2d2a"/><path d="M364.06174,110.41469c0,1.38071 -2.20127,2.5 -4.91666,2.5c-2.7154,0 -4.91666,-1.11929 -4.91666,-2.5c0,-1.38071 2.20127,-2.5 4.91666,-2.5c2.7154,0 4.91666,1.11929 4.91666,2.5z" fill="#4d201d"/><path d="M364.06174,111.08135c0,1.38071 -2.20127,2.5 -4.91666,2.5c-2.7154,0 -4.91666,-1.11929 -4.91666,-2.5c0,-1.38071 2.20127,-2.5 4.91666,-2.5c2.7154,0 4.91666,1.11929 4.91666,2.5z" fill="#0b0404"/></g></g><g><g><path d="M391.52008,97.37302c0,7.87006 -5.99353,15.14222 -31.75,14.75c-26.30435,-0.40057 -32,-6.87994 -32,-14.75c0,-7.87006 13.22232,-12.5 32,-12.5c18.77768,0 31.75,4.62994 31.75,12.5z" fill="#893834"/><path d="M388.60937,95.90297c0,5.98436 -11.78773,9.69505 -28.8507,9.69505c-17.06296,0 -29.07787,-3.71069 -29.07787,-9.69505c0,-5.98436 12.01491,-9.50495 29.07787,-9.50495c17.06297,0 28.8507,3.52059 28.8507,9.50495z" fill="#6e2d2a"/></g><g><path d="M346.80117,37.36731l-2.65736,-17.71573h31.00254l-2.83452,17.71573z" fill="#1e1812"/><path d="M377.82586,37.72163c0,1.38609 -8.13981,2.50973 -18.18077,2.50973c-10.04096,0 -18.18078,-1.12364 -18.18078,-2.50973c0,-1.38609 8.13981,-2.50973 18.18078,-2.50973c10.04097,0 18.18077,1.12364 18.18077,2.50973z" fill="#2a2119"/><path d="M375.14633,19.47442c0,1.38609 -6.94016,2.50973 -15.50127,2.50973c-8.56112,0 -15.50127,-1.12364 -15.50127,-2.50973c0,-1.38608 6.94016,-2.50973 15.50127,-2.50973c8.56112,0 15.50127,1.12364 15.50127,2.50973z" fill="#1e1812"/><path d="M369.78733,38.40811c0,0.57482 -4.54084,1.0408 -10.14226,1.0408c-5.60142,0 -10.14226,-0.46598 -10.14226,-1.0408c0,-0.57482 4.54084,-1.0408 10.14226,-1.0408c5.60142,0 10.14226,0.46598 10.14226,1.0408z" fill="#1e1812"/></g><path d="M319.14503,93.22253c0,0 0,-29.55485 0,-41.04167c0,-6.27096 4.10773,-13.29166 12.75,-13.54166c9.14962,-0.26468 38.61415,0 55,0c9.53154,0 13.25,5.77423 13.25,12.29166c0,11.55203 0,42.29167 0,42.29167c0,0 -0.37403,5.64727 -17.25293,8.55913c-0.03375,-0.38297 -0.74707,-3.6833 -0.74707,-3.6833c0,0 -0.75,3.33578 -0.75,3.75c0,0.06001 0.00705,0.11838 0.02037,0.17432c-0.61361,0.09465 -1.24732,0.18577 -1.90178,0.27303c-0.04823,-0.36767 -0.74359,-1.65152 -0.74359,-1.65152c0,0 -0.75,1.33578 -0.75,1.75c0,0.03008 0.00177,0.05974 0.00521,0.08889c-1.38711,0.1646 -7.08654,1.00671 -7.08654,1.00671l-0.72585,-0.9012c0,0 -0.18231,0.51657 -0.2821,0.51657c-0.1299,0 -0.25209,0.03302 -0.35863,0.09114c-3.00426,0.16413 -6.30363,0.26122 -9.92709,0.27623c-2.65127,0.01098 -7.44459,-0.9581 -7.44459,-0.9581c0,0 -0.26015,0.73359 -0.41255,0.73359c-0.13357,0 -0.25898,0.03492 -0.36762,0.09613c-3.85489,-0.14433 -7.24948,-0.4026 -10.23871,-0.74507c0.06507,-0.1111 0.10236,-0.24044 0.10236,-0.37849c0,-0.41422 -0.86111,-1.97222 -0.86111,-1.97222c0,0 -0.63889,1.558 -0.63889,1.97222c0,0.07381 0.01066,0.14513 0.03053,0.2125c-20.29924,-2.6077 -20.66942,-9.21055 -20.66942,-9.21055z" fill="#a3433e"/><path d="M319.84505,85.04564c0,-5.30194 4.29807,-9.6 9.6,-9.6c5.30194,0 9.6,4.29806 9.6,9.6c0,5.30194 -4.29806,9.6 -9.6,9.6c-5.30194,0 -9.6,-4.29806 -9.6,-9.6z" fill="#893834"/><path d="M352.89508,67.60528c0,10.2364 -6.4359,15.0594 -14.375,15.0594c-7.9391,0 -14.375,-4.823 -14.375,-15.0594c0,-10.2364 6.4359,-14.1906 14.375,-14.1906c7.9391,0 14.375,3.95419 14.375,14.1906z" fill="#6e2d2a"/><path d="M369.39508,66.91469c0,2.66938 -4.36523,4.83334 -9.75,4.83334c-5.38477,0 -9.75,-2.16396 -9.75,-4.83334c0,-2.66938 4.36523,-4.83333 9.75,-4.83333c5.38477,0 9.75,2.16395 9.75,4.83333z" fill="#893834"/><path d="M389.84508,94.64599c-5.30194,0 -9.6,-4.29807 -9.6,-9.6c0,-5.30193 4.29806,-9.6 9.6,-9.6c5.30194,0 9.6,4.29807 9.6,9.6c0,5.30193 -4.29807,9.6 -9.6,9.6z" fill="#893834"/><path d="M354.39508,67.60528c0,6.99504 -3.00535,11.4622 -7.44201,13.58989c-0.64708,0.31032 -2.79321,0.92011 -2.79321,0.92011l-2.55616,1.43404c0,0 -0.87597,-0.88463 -1.58362,-0.88463c-7.9391,0 -14.375,-4.823 -14.375,-15.0594c0,-10.2364 6.4359,-14.1906 14.375,-14.1906c3.73906,0 7.1447,0.87708 9.70161,2.87445c0.32972,0.25756 1.80692,-0.71843 1.80692,-0.71843l-0.02523,2.16293l2.01109,2.32028c0,0 0.21894,2.36057 0.33329,2.81031c0.35648,1.402 0.54731,2.97839 0.54731,4.74106z" fill="#0b0404"/><path d="M380.77008,53.41469c7.9391,0 14.375,3.95419 14.375,14.1906c0,10.2364 -6.4359,15.0594 -14.375,15.0594c-7.9391,0 -14.375,-4.823 -14.375,-15.0594c0,-10.2364 6.4359,-14.1906 14.375,-14.1906z" fill="#6e2d2a"/><path d="M379.27008,53.41469c7.9391,0 14.375,3.95419 14.375,14.1906c0,10.2364 -6.4359,15.0594 -14.375,15.0594c-7.9391,0 -14.375,-4.823 -14.375,-15.0594c0,-10.2364 6.4359,-14.1906 14.375,-14.1906z" fill="#0b0404"/><path d="M366.81174,81.99802c0,2.25517 -3.20862,4.08334 -7.16666,4.08334c-3.95804,0 -7.16666,-1.82817 -7.16666,-4.08334c0,-2.25517 3.20862,-4.08334 7.16666,-4.08334c3.95804,0 7.16666,1.82817 7.16666,4.08334z" fill="#6e2d2a"/><g><path d="M385.48437,68.03969c0,0.8656 -2.78223,1.56731 -6.21429,1.56731c-3.43205,0 -6.21428,-0.70171 -6.21428,-1.56731c0,-0.8656 2.78223,-1.56731 6.21428,-1.56731c3.43205,0 6.21429,0.70171 6.21429,1.56731z" fill="#414141"/><path d="M383.69863,68.03969c0,4.65497 -1.98274,8.42857 -4.42857,8.42857c-2.44583,0 -4.42857,-3.7736 -4.42857,-8.42857c0,-4.65497 1.98274,-8.42857 4.42857,-8.42857c2.44583,0 4.42857,3.7736 4.42857,8.42857z" fill="#0b0404"/></g><g><path d="M340.02008,66.47272c3.43205,0 6.21428,0.70171 6.21428,1.56731c0,0.8656 -2.78223,1.56731 -6.21428,1.56731c-3.43205,0 -6.21428,-0.70171 -6.21428,-1.56731c0,-0.8656 2.78223,-1.56731 6.21428,-1.56731z" fill="#414141"/><path d="M340.02008,59.61146c2.44583,0 4.42857,3.7736 4.42857,8.42857c0,4.65497 -1.98274,8.42857 -4.42857,8.42857c-2.44583,0 -4.42857,-3.7736 -4.42857,-8.42857c0,-4.65497 1.98274,-8.42857 4.42857,-8.42857z" fill="#0b0404"/></g></g></g></g></svg>