<svg version="1.1" xmlns="http://www.w3.org/2000/svg" xmlns:xlink="http://www.w3.org/1999/xlink" width="108.65698" height="127.99" viewBox="0,0,108.65698,127.99"><g transform="translate(-306.1458,-81.80391)"><g fill="#ffffff" stroke="#ffffff" stroke-miterlimit="10"><path d="M306.90284,189.62776l-0.24364,-5.84725l8.28359,-3.89816" stroke-width="1" stroke-linecap="round"/><path d="M311.26969,148.22214c0,-34.06271 21.72801,-61.2009 48.53086,-61.2009c8.99024,0 17.40953,2.63159 24.62942,8.04632c3.27314,2.45477 4.56647,7.11721 7.28803,10.44629c2.89076,3.53604 7.17062,5.79 9.30286,10.1393c4.63365,9.45162 7.07298,20.61302 7.07298,32.56897c0,34.06271 -21.49045,55.32058 -48.29329,55.32058c-26.80284,0 -48.53085,-21.25788 -48.53085,-55.32059z" stroke-width="1.5" stroke-linecap="butt"/><path d="M308.09342,145.8732c0,-34.75015 23.15007,-60.43129 51.70713,-60.43129c0.38978,0 0.77941,0.00723 1.16872,0.02156c0.7807,4.64526 4.82124,8.1845 9.68841,8.1845c1.59463,0 3.10053,-0.3799 4.43211,-1.05413c0.09342,0.05894 0.18926,0.1168 0.28768,0.17352c2.07478,1.19568 4.03954,1.14607 5.74506,1.41234c-0.41704,1.09 -0.64552,2.2733 -0.64552,3.50993c0,3.82204 2.18247,7.13435 5.36916,8.75866c0.10846,0.57717 0.26738,1.13654 0.47201,1.67334c-0.04196,0.36863 -0.06352,0.74344 -0.06352,1.12329c0,4.98316 3.70995,9.09984 8.51848,9.73864c0.30052,0.44495 0.59034,0.87284 0.85396,1.26104c-1.17112,1.61751 -1.86149,3.60588 -1.86149,5.75551c0,5.42603 4.39868,9.82471 9.82471,9.82471c1.57938,0 3.07172,-0.37267 4.39387,-1.03489c2.07253,3.00833 3.52348,6.51231 3.52348,11.08326c0,34.75016 -23.15007,62.92072 -51.70712,62.92072c-17.53764,0 -32.79239,-10.38091 -42.1419,-26.62916c-0.61915,-1.076 -1.52601,14.36707 -2.15539,13.17784c-0.53616,-1.01309 -0.80412,-18.65366 -1.243,-19.64386c-0.9221,-2.08045 0.75936,-4.23128 0.09738,-6.44419c-0.5413,-1.80953 -3.45684,-3.66054 -3.91451,-5.5485c-1.37056,-5.65372 -2.34971,-11.63877 -2.34971,-17.83286z" stroke-width="2" stroke-linecap="butt"/><path d="M347.25488,82.30391l4.45423,0.70331l2.10989,5.86083" stroke-width="1" stroke-linecap="round"/><path d="M414.30279,158.72916l-1.4066,3.98537l-3.98537,-2.34434" stroke-width="1" stroke-linecap="round"/><path d="M404.74587,136.14152c0,0 -0.88429,5.69871 -2.1386,12.56069c-0.58932,3.22403 1.05073,7.86041 0.35136,11.12762c-0.7823,3.65467 -3.91115,5.88654 -4.68976,8.34828c-0.58926,1.86309 -2.75622,8.79708 -3.94455,10.98177c-0.44413,0.81651 -2.509,3.16113 -3.34168,5.40775c-0.80697,2.17728 -0.3892,4.27095 -0.3892,4.27095l-5.69916,1.41891c0,0 -1.9609,7.75655 -4.05324,8.85292c-2.03575,1.06671 -4.86909,-4.67233 -4.86909,-4.67233c0,0 -9.34584,15.21477 -16.29178,15.21477c-1.37959,0 -4.55225,-1.97389 -7.56406,-4.09564c-1.78662,-1.25863 -5.75313,-0.22188 -5.75313,-0.22188l-1.02882,-4.90846c0,0 -8.20103,4.95251 -11.22568,-0.01736c-2.14644,-3.52685 -3.37354,-11.6503 -3.37354,-11.6503c0,0 -8.0676,-15.00272 -10.26071,-21.1285c-0.56406,-1.57552 -2.39288,-4.29862 -2.98923,-6.95403c-0.84896,-3.7802 -0.38645,-7.42328 -0.38645,-7.42328l-3.06182,-17.11188c0,0 6.4983,21.30065 17.45937,38.35969c2.74176,4.26708 13.40462,6.35268 13.40462,6.35268c0,0 10.62915,13.35943 15.35723,13.35943c2.68225,0 9.26218,-9.63347 9.26218,-9.63347c0,0 6.95782,0.95428 10.54566,-3.38086c1.69889,-2.05275 3.94197,-4.35132 5.53329,-6.89782c10.90574,-17.45183 19.14678,-38.15964 19.14678,-38.15964z" stroke-width="0" stroke-linecap="butt"/><g stroke-linecap="butt"><path d="M366.65331,141.73841c0,-20.2996 4.46267,-36.75567 9.96764,-36.75567c2.68926,0 4.48701,6.02005 6.28003,12.40402c1.87733,6.68415 3.6876,13.9687 3.6876,24.35165c0,5.8509 -0.37073,11.26203 -1.0303,16.00084c-0.23296,1.67364 0.07585,19.47498 -0.22555,20.97065c-0.4737,2.35075 -1.60526,-11.74256 -2.22513,-9.89651c-1.74341,5.19205 -4.0095,8.23056 -6.48666,8.23056c-2.14845,0 -3.65478,-2.769 -5.28239,-6.76291c-2.54281,-6.23966 -4.68525,-16.16548 -4.68525,-28.54265z" stroke-width="0"/><path d="M373.15436,142.71583c-0.40696,0 -0.73685,-0.32991 -0.73685,-0.73686c0,-0.40695 0.32989,-0.73685 0.73685,-0.73685c0.40696,0 0.73685,0.3299 0.73685,0.73685c0,0.40695 -0.32989,0.73686 -0.73685,0.73686z" stroke-width="0.5"/></g><g stroke-linecap="butt"><path d="M331.35541,142.98434c0,-20.2996 4.46267,-36.75567 9.96764,-36.75567c1.65634,0 3.86625,0.19384 5.2407,2.82977c3.19367,6.12484 4.72694,19.73402 4.72694,33.9259c0,20.29959 -4.46267,36.75566 -9.96764,36.75566c-3.6103,0 -6.77229,-7.07786 -8.52119,-17.67591c-0.33756,-2.04559 -1.59441,-2.60247 -1.81975,-4.88478c-0.09503,-0.96251 0.79245,-3.56367 0.71914,-4.56182c-0.2255,-3.07017 -0.34584,-6.29983 -0.34584,-9.63313z" stroke-width="0"/><path d="M344.59942,142.56566c-0.40696,0 -0.73685,-0.32991 -0.73685,-0.73686c0,-0.40695 0.32989,-0.73685 0.73685,-0.73685c0.40696,0 0.73685,0.3299 0.73685,0.73685c0,0.40695 -0.32989,0.73686 -0.73685,0.73686z" stroke-width="0.5"/></g></g></g></svg>