<svg version="1.1" xmlns="http://www.w3.org/2000/svg" xmlns:xlink="http://www.w3.org/1999/xlink" width="153.14702" height="298.56027" viewBox="0,0,153.14702,298.56027"><defs><radialGradient cx="341.43606" cy="291.44149" r="6.66666" gradientUnits="userSpaceOnUse" id="color-1"><stop offset="0" stop-color="#28741f"/><stop offset="1" stop-color="#266e1e"/></radialGradient><radialGradient cx="341.68607" cy="251.19149" r="7.5" gradientUnits="userSpaceOnUse" id="color-2"><stop offset="0" stop-color="#1a246f"/><stop offset="1" stop-color="#291b65"/></radialGradient><radialGradient cx="341.68606" cy="205.19149" r="7.49999" gradientUnits="userSpaceOnUse" id="color-3"><stop offset="0" stop-color="#1a246f"/><stop offset="1" stop-color="#291b65"/></radialGradient><radialGradient cx="346.79094" cy="233.26489" r="22.22763" gradientUnits="userSpaceOnUse" id="color-4"><stop offset="0" stop-color="#202d8c"/><stop offset="1" stop-color="#2c1e6e"/></radialGradient><radialGradient cx="338.11478" cy="269.05404" r="22.18694" gradientUnits="userSpaceOnUse" id="color-5"><stop offset="0" stop-color="#202d8c"/><stop offset="1" stop-color="#2c1e6e"/></radialGradient><radialGradient cx="317.4998" cy="313.78791" r="16.76944" gradientUnits="userSpaceOnUse" id="color-6"><stop offset="0" stop-color="#36a22b"/><stop offset="1" stop-color="#329127"/></radialGradient><radialGradient cx="332.44119" cy="314.20716" r="17.58084" gradientUnits="userSpaceOnUse" id="color-7"><stop offset="0" stop-color="#36a22b"/><stop offset="1" stop-color="#329127"/></radialGradient><radialGradient cx="335.60336" cy="317.14288" r="17.91975" gradientUnits="userSpaceOnUse" id="color-8"><stop offset="0" stop-color="#36a22b"/><stop offset="1" stop-color="#329127"/></radialGradient><radialGradient cx="342.22186" cy="311.94151" r="14.23722" gradientUnits="userSpaceOnUse" id="color-9"><stop offset="0" stop-color="#36a22b"/><stop offset="1" stop-color="#329127"/></radialGradient><radialGradient cx="381.54371" cy="291.44149" r="6.66666" gradientUnits="userSpaceOnUse" id="color-10"><stop offset="0" stop-color="#28741f"/><stop offset="1" stop-color="#266e1e"/></radialGradient><radialGradient cx="381.2937" cy="251.19149" r="7.5" gradientUnits="userSpaceOnUse" id="color-11"><stop offset="0" stop-color="#1a246f"/><stop offset="1" stop-color="#291b65"/></radialGradient><radialGradient cx="381.29371" cy="205.19149" r="7.49999" gradientUnits="userSpaceOnUse" id="color-12"><stop offset="0" stop-color="#1a246f"/><stop offset="1" stop-color="#291b65"/></radialGradient><radialGradient cx="363.41037" cy="187.19704" r="10.66667" gradientUnits="userSpaceOnUse" id="color-13"><stop offset="0" stop-color="#1a246f"/><stop offset="1" stop-color="#291b65"/></radialGradient><radialGradient cx="315.4563" cy="131.56644" r="7" gradientUnits="userSpaceOnUse" id="color-14"><stop offset="0" stop-color="#28741f"/><stop offset="1" stop-color="#266e1e"/></radialGradient><radialGradient cx="301.4563" cy="170.23316" r="7" gradientUnits="userSpaceOnUse" id="color-15"><stop offset="0" stop-color="#28741f"/><stop offset="1" stop-color="#266e1e"/></radialGradient><radialGradient cx="300.12297" cy="212.89982" r="7" gradientUnits="userSpaceOnUse" id="color-16"><stop offset="0" stop-color="#28741f"/><stop offset="1" stop-color="#266e1e"/></radialGradient><radialGradient cx="302.50703" cy="139.52803" r="21.45815" gradientUnits="userSpaceOnUse" id="color-17"><stop offset="0" stop-color="#36a22b"/><stop offset="1" stop-color="#329127"/></radialGradient><radialGradient cx="293.50897" cy="200.28408" r="21.85499" gradientUnits="userSpaceOnUse" id="color-18"><stop offset="0" stop-color="#36a22b"/><stop offset="1" stop-color="#329127"/></radialGradient><radialGradient cx="320.07737" cy="237.91048" r="11.19499" gradientUnits="userSpaceOnUse" id="color-19"><stop offset="0" stop-color="#36a22b"/><stop offset="1" stop-color="#329127"/></radialGradient><radialGradient cx="309.92555" cy="246.65165" r="14.28465" gradientUnits="userSpaceOnUse" id="color-20"><stop offset="0" stop-color="#36a22b"/><stop offset="1" stop-color="#329127"/></radialGradient><radialGradient cx="289.70318" cy="231.00247" r="14.42257" gradientUnits="userSpaceOnUse" id="color-21"><stop offset="0" stop-color="#36a22b"/><stop offset="1" stop-color="#329127"/></radialGradient><radialGradient cx="298.66377" cy="233.55331" r="14.42255" gradientUnits="userSpaceOnUse" id="color-22"><stop offset="0" stop-color="#36a22b"/><stop offset="1" stop-color="#329127"/></radialGradient><radialGradient cx="299.80274" cy="225.63801" r="12.53315" gradientUnits="userSpaceOnUse" id="color-23"><stop offset="0" stop-color="#36a22b"/><stop offset="1" stop-color="#329127"/></radialGradient><radialGradient cx="404.5437" cy="131.56644" r="7" gradientUnits="userSpaceOnUse" id="color-24"><stop offset="0" stop-color="#28741f"/><stop offset="1" stop-color="#266e1e"/></radialGradient><radialGradient cx="418.5437" cy="170.23316" r="7" gradientUnits="userSpaceOnUse" id="color-25"><stop offset="0" stop-color="#28741f"/><stop offset="1" stop-color="#266e1e"/></radialGradient><radialGradient cx="419.87704" cy="212.89982" r="7" gradientUnits="userSpaceOnUse" id="color-26"><stop offset="0" stop-color="#28741f"/><stop offset="1" stop-color="#266e1e"/></radialGradient><radialGradient cx="417.49297" cy="139.52803" r="21.45815" gradientUnits="userSpaceOnUse" id="color-27"><stop offset="0" stop-color="#36a22b"/><stop offset="1" stop-color="#329127"/></radialGradient><radialGradient cx="426.49103" cy="200.28408" r="21.85499" gradientUnits="userSpaceOnUse" id="color-28"><stop offset="0" stop-color="#36a22b"/><stop offset="1" stop-color="#329127"/></radialGradient><radialGradient cx="399.92263" cy="237.91048" r="11.19499" gradientUnits="userSpaceOnUse" id="color-29"><stop offset="0" stop-color="#36a22b"/><stop offset="1" stop-color="#329127"/></radialGradient><radialGradient cx="410.07445" cy="246.65165" r="14.28465" gradientUnits="userSpaceOnUse" id="color-30"><stop offset="0" stop-color="#36a22b"/><stop offset="1" stop-color="#329127"/></radialGradient><radialGradient cx="430.29682" cy="231.00247" r="14.42257" gradientUnits="userSpaceOnUse" id="color-31"><stop offset="0" stop-color="#36a22b"/><stop offset="1" stop-color="#329127"/></radialGradient><radialGradient cx="421.33623" cy="233.55331" r="14.42255" gradientUnits="userSpaceOnUse" id="color-32"><stop offset="0" stop-color="#36a22b"/><stop offset="1" stop-color="#329127"/></radialGradient><radialGradient cx="420.19726" cy="225.63801" r="12.53315" gradientUnits="userSpaceOnUse" id="color-33"><stop offset="0" stop-color="#36a22b"/><stop offset="1" stop-color="#329127"/></radialGradient><radialGradient cx="365.65671" cy="104.90536" r="5.95534" gradientUnits="userSpaceOnUse" id="color-34"><stop offset="0" stop-color="#e6e6e6"/><stop offset="1" stop-color="#b6b6b6"/></radialGradient><radialGradient cx="350.98578" cy="104.22615" r="6.4851" gradientUnits="userSpaceOnUse" id="color-35"><stop offset="0" stop-color="#e6e6e6"/><stop offset="1" stop-color="#b6b6b6"/></radialGradient><radialGradient cx="337.62643" cy="100.60856" r="5.93823" gradientUnits="userSpaceOnUse" id="color-36"><stop offset="0" stop-color="#e6e6e6"/><stop offset="1" stop-color="#9b9b9b"/></radialGradient><radialGradient cx="387.11974" cy="98.65663" r="6.71205" gradientUnits="userSpaceOnUse" id="color-37"><stop offset="0" stop-color="#e6e6e6"/><stop offset="1" stop-color="#b6b6b6"/></radialGradient><radialGradient cx="382.74072" cy="111.78565" r="43.80467" gradientUnits="userSpaceOnUse" id="color-38"><stop offset="0" stop-color="#36a22b"/><stop offset="1" stop-color="#329127"/></radialGradient><radialGradient cx="378.27349" cy="104.01974" r="6.48509" gradientUnits="userSpaceOnUse" id="color-39"><stop offset="0" stop-color="#be9a23"/><stop offset="1" stop-color="#a57000"/></radialGradient><radialGradient cx="380.90518" cy="112.42277" r="43.80263" gradientUnits="userSpaceOnUse" id="color-40"><stop offset="0" stop-color="#36a22b"/><stop offset="1" stop-color="#329127"/></radialGradient><radialGradient cx="356.21569" cy="98.45287" r="6.11887" gradientUnits="userSpaceOnUse" id="color-41"><stop offset="0" stop-color="#e6e6e6"/><stop offset="1" stop-color="#b6b6b6"/></radialGradient><radialGradient cx="369.82435" cy="96.76234" r="5.93823" gradientUnits="userSpaceOnUse" id="color-42"><stop offset="0" stop-color="#e6e6e6"/><stop offset="1" stop-color="#9b9b9b"/></radialGradient><radialGradient cx="383.26879" cy="93.09826" r="5.93824" gradientUnits="userSpaceOnUse" id="color-43"><stop offset="0" stop-color="#e6e6e6"/><stop offset="1" stop-color="#9b9b9b"/></radialGradient><radialGradient cx="343.17837" cy="93.09826" r="5.93824" gradientUnits="userSpaceOnUse" id="color-44"><stop offset="0" stop-color="#e6e6e6"/><stop offset="1" stop-color="#9b9b9b"/></radialGradient><radialGradient cx="364.0602" cy="72.16036" r="43.91092" gradientUnits="userSpaceOnUse" id="color-45"><stop offset="0" stop-color="#36a22b"/><stop offset="1" stop-color="#329127"/></radialGradient><radialGradient cx="358.74732" cy="59.83447" r="20.31133" gradientUnits="userSpaceOnUse" id="color-46"><stop offset="0" stop-color="#36a22b"/><stop offset="1" stop-color="#329127"/></radialGradient><radialGradient cx="367.24793" cy="58.87816" r="20.31133" gradientUnits="userSpaceOnUse" id="color-47"><stop offset="0" stop-color="#36a22b"/><stop offset="1" stop-color="#329127"/></radialGradient><radialGradient cx="381.9646" cy="53.93718" r="11.6352" gradientUnits="userSpaceOnUse" id="color-48"><stop offset="0" stop-color="#f2f2f2"/><stop offset="1" stop-color="#b0b0b0"/></radialGradient><radialGradient cx="344.88073" cy="54.1497" r="11.6352" gradientUnits="userSpaceOnUse" id="color-49"><stop offset="0" stop-color="#f2f2f2"/><stop offset="1" stop-color="#b0b0b0"/></radialGradient><radialGradient cx="358.8685" cy="163.1824" r="46.72629" gradientUnits="userSpaceOnUse" id="color-50"><stop offset="0" stop-color="#36a22b"/><stop offset="1" stop-color="#329127"/></radialGradient><radialGradient cx="368.91672" cy="152.05059" r="39.84635" gradientUnits="userSpaceOnUse" id="color-51"><stop offset="0" stop-color="#318f27"/><stop offset="1" stop-color="#2e8724"/></radialGradient><radialGradient cx="361.01848" cy="198.11931" r="37.11892" gradientUnits="userSpaceOnUse" id="color-52"><stop offset="0" stop-color="#36a22b"/><stop offset="1" stop-color="#329127"/></radialGradient><radialGradient cx="359.13148" cy="196.19397" r="27.22899" gradientUnits="userSpaceOnUse" id="color-53"><stop offset="0" stop-color="#318f27"/><stop offset="1" stop-color="#2e8724"/></radialGradient><radialGradient cx="370.31376" cy="161.56223" r="47.15761" gradientUnits="userSpaceOnUse" id="color-54"><stop offset="0" stop-color="#202d8c"/><stop offset="1" stop-color="#2c1e6e"/></radialGradient><radialGradient cx="366.62883" cy="203.17378" r="37.55023" gradientUnits="userSpaceOnUse" id="color-55"><stop offset="0" stop-color="#202d8c"/><stop offset="1" stop-color="#2c1e6e"/></radialGradient><radialGradient cx="365.1567" cy="177.99713" r="13.43254" gradientUnits="userSpaceOnUse" id="color-56"><stop offset="0" stop-color="#1a246f"/><stop offset="1" stop-color="#291b65"/></radialGradient><radialGradient cx="376.18883" cy="233.26489" r="22.22763" gradientUnits="userSpaceOnUse" id="color-57"><stop offset="0" stop-color="#202d8c"/><stop offset="1" stop-color="#2c1e6e"/></radialGradient><radialGradient cx="384.86499" cy="269.05404" r="22.18694" gradientUnits="userSpaceOnUse" id="color-58"><stop offset="0" stop-color="#202d8c"/><stop offset="1" stop-color="#2c1e6e"/></radialGradient><radialGradient cx="405.47997" cy="313.78791" r="16.76944" gradientUnits="userSpaceOnUse" id="color-59"><stop offset="0" stop-color="#36a22b"/><stop offset="1" stop-color="#329127"/></radialGradient><radialGradient cx="390.53858" cy="314.20716" r="17.58084" gradientUnits="userSpaceOnUse" id="color-60"><stop offset="0" stop-color="#36a22b"/><stop offset="1" stop-color="#329127"/></radialGradient><radialGradient cx="387.37641" cy="317.14288" r="17.91975" gradientUnits="userSpaceOnUse" id="color-61"><stop offset="0" stop-color="#36a22b"/><stop offset="1" stop-color="#329127"/></radialGradient><radialGradient cx="380.75791" cy="311.94151" r="14.23722" gradientUnits="userSpaceOnUse" id="color-62"><stop offset="0" stop-color="#36a22b"/><stop offset="1" stop-color="#329127"/></radialGradient></defs><g transform="translate(-283.42649,-30.71986)"><g stroke-miterlimit="10"><g stroke="none" stroke-linecap="butt"><path d="M374.87704,129.94144c-1.25,0 -1.25,-1.25 -1.25,-1.25v-0.33333c0.0453,-2.19538 0.64534,-3.14029 2.18578,-4.68072c4.17267,-2.08634 4.08654,-5.6788 -0.33106,-7.46676c-0.79986,-0.32373 -3.10728,0.06414 -3.93804,0.06414c-2.94162,0 -5.74063,0.65444 -8.66667,0.66666c0,0 -1.25,0 -1.25,-1.25c0,-1.25 1.25,-1.25 1.25,-1.25c4.01738,0.0202 9.45543,-2.00914 13.39529,-0.60252c6.15928,2.19901 6.94936,8.89303 1.00227,11.86657c-0.92606,0.92606 -1.18981,1.3308 -1.14756,2.65262v0.33333c0,0 0,1.25 -1.25,1.25z" fill="#181818" stroke-width="0.5"/><path d="M382.76092,128.90867c-0.88388,0.88389 -1.76776,0 -1.76776,0l-0.90082,-0.99154c-0.18756,-0.38716 -0.37513,-0.7743 -0.56269,-1.16146c-1.77351,-1.85994 -2.25477,-4.73444 -2.55991,-7.24483c-0.13125,-1.07977 0.43737,-3.01887 0.08578,-4.00771c-0.26265,-0.7387 -1.1752,-1.03955 -1.72903,-1.59447c-3.02093,-3.02685 -5.67605,-3.65469 -9.65188,-2.05662c0,0 -1.1606,0.46424 -1.62483,-0.69636c-0.46424,-1.1606 0.69636,-1.62484 0.69636,-1.62484c4.89511,-1.94939 8.61788,-1.11329 12.34812,2.61004c0.34019,0.33956 2.16641,2.13378 2.27097,2.40553c1.34416,3.49347 -0.93287,7.80378 2.19253,10.74746c0.25689,0.50173 0.51376,1.00347 0.77065,1.50521l0.43251,0.3418c0,0 0.88388,0.88389 0,1.76777z" fill="#2a2a2a" stroke-width="0.5"/><path d="M349.54371,129.2748c-1.25,0 -1.25,-1.25 -1.25,-1.25v-0.66666c0,-9.15802 2.09421,-18.946 12.28016,-21.54602c0,0 1.21268,-0.30317 1.51585,0.90951c0.30317,1.21268 -0.90951,1.51585 -0.90951,1.51585c-9.01209,2.19538 -10.3865,11.20488 -10.3865,19.12066v0.66666c0,0 0,1.25 -1.25,1.25z" fill="#2a2a2a" stroke-width="0.5"/><path d="M341.98469,129.47618c-1.11804,-0.55902 -0.55902,-1.67705 -0.55902,-1.67705l0.89235,-1.22568c1.65265,-0.80065 3.92303,-2.7214 4.76368,-4.41918c0.81092,-1.63775 0.89844,-4.17775 2.15362,-5.57828c2.21383,-2.4702 6.59545,-1.43455 9.27822,-0.76386c0,0 1.21268,0.30317 0.90951,1.51585c-0.30317,1.21268 -1.51585,0.90951 -1.51585,0.90951c-1.31817,-0.32954 -5.63291,-1.62665 -6.72178,-0.09719c-0.9951,1.39777 -1.06392,3.53366 -1.84638,5.08839c-1.11454,2.21455 -3.75946,4.48336 -5.90299,5.58082l0.22568,0.10765c0,0 -0.55901,1.11803 -1.67705,0.55902z" fill="#353535" stroke-width="0.5"/><path d="M357.87704,125.69149v-26.33333h8.66667v26.33333z" fill="#505050" stroke-width="0"/></g><path d="M343.43606,301.44149c-3.6819,0 -6.66666,-2.98477 -6.66666,-6.66667c0,-3.6819 2.98476,-6.66667 6.66666,-6.66667c3.6819,0 6.66667,2.98477 6.66667,6.66667c0,3.6819 -2.98477,6.66667 -6.66667,6.66667z" fill="url(#color-1)" stroke="none" stroke-width="0" stroke-linecap="butt"/><path d="M343.93607,261.44149c-4.14213,0 -7.5,-3.35787 -7.5,-7.5c0,-4.14213 3.35787,-7.5 7.5,-7.5c4.14213,0 7.49999,3.35787 7.49999,7.5c0,4.14213 -3.35786,7.5 -7.49999,7.5z" fill="url(#color-2)" stroke="none" stroke-width="0" stroke-linecap="butt"/><path d="M343.93606,215.44149c-4.14213,0 -7.49999,-3.35786 -7.49999,-7.49999c0,-4.14213 3.35786,-7.50001 7.49999,-7.50001c4.14214,0 7.5,3.35787 7.5,7.50001c0,4.14213 -3.35786,7.49999 -7.5,7.49999z" fill="url(#color-3)" stroke="none" stroke-width="0" stroke-linecap="butt"/><g stroke="none" stroke-width="0" stroke-linecap="butt"><path d="M357.74179,210.3933c1.1243,1.72922 1.74563,38.78756 -0.24294,40.83558c-1.00921,1.03938 -26.73483,0.57647 -27.84328,-0.83876c-3.58774,-4.5807 -1.94351,-46.54939 0.12974,-49.43222c0.06596,-0.09171 6.32002,4.24163 12.78722,6.47643c6.87008,2.37401 15.16926,2.95897 15.16926,2.95897z" fill="url(#color-4)"/><path d="M357.91397,253.69596c0.11841,0.11886 -0.31318,11.63002 -0.23845,22.64108c0.06828,10.06204 -0.92735,20.57469 -2.7192,20.79703c-5.38198,0.66781 -15.92888,0.50702 -21.40355,-0.30437c-1.87951,-0.27856 -4.36228,-11.10301 -4.51435,-21.32274c-0.16367,-10.99785 0.34079,-21.95304 0.61355,-22.29762c0.13293,-0.16793 7.10073,0.3529 14.08605,0.48206c7.01124,0.12963 14.04011,-0.13184 14.17596,0.00456z" fill="url(#color-5)"/></g><g stroke="none" stroke-linecap="butt"><g><path d="M309.50049,318.51437c-0.06197,-0.11811 -0.04728,-0.21424 -0.04728,-0.21424c0.1899,-1.24251 0.08948,-2.12841 -0.91962,-3.30018c-0.33567,-0.38979 -1.91149,-1.50226 -1.84489,-1.85923c0.07323,-0.39257 0.50313,-0.79383 1.12999,-1.033c0.32123,-0.12256 2.34662,-0.06602 2.92095,-0.08039c2.43628,-0.06096 4.8708,-0.05958 7.31724,-0.0597c3.70177,-0.00018 9.82936,-1.17906 13.3977,-0.67501c3.0405,0.4295 4.17992,3.54977 1.75107,4.69244c-1.56783,0.73761 -4.6103,0.92374 -6.68187,1.13003c-5.05,0.49721 -10.14837,2.05245 -15.31127,2.12049c-0.07346,0.01743 -1.06802,0.24163 -1.60582,-0.26316c-0.1976,-0.18548 -0.19374,-0.33817 -0.10622,-0.45805z" fill-opacity="0.56471" fill="#318f27" stroke-width="0.5"/><path d="M310.29232,315.71173c-0.78378,0.04841 -1.89508,0.28149 -2.53241,-0.39868c-0.71585,-0.76397 -0.8997,-2.48131 -0.63471,-3.03428c0.33856,-0.70654 1.66518,-0.84854 2.31974,-0.89817c1.16555,-0.0884 2.83538,0.71526 4.33372,0.70823c2.62948,-0.01235 13.15819,-1.09599 16.76216,-2.13271c4.2011,-1.20848 6.24085,-3.33974 6.24085,-3.33974l1.52296,8.80444c0,0 -2.19283,-2.02219 -7.00198,-2.41822c-2.54207,-0.20934 -14.63482,1.06228 -17.18979,1.47458c-1.47457,0.23795 -2.65643,1.16263 -3.82055,1.23454z" fill="url(#color-6)" stroke-width="0"/><path d="M312.61695,324.62273c-0.08596,-0.12411 -0.09225,-0.23453 -0.09225,-0.23453c-0.08131,-1.4273 -0.36985,-2.41085 -1.6082,-3.58504c-0.41194,-0.39059 -2.19161,-1.416 -2.2032,-1.8278c-0.01276,-0.45287 0.32132,-0.96712 0.88279,-1.32725c0.28773,-0.18456 2.28004,-0.41381 2.83846,-0.51307c2.36877,-0.42107 4.74923,-0.77166 7.14102,-1.12565c3.61908,-0.53563 9.35653,-2.7501 12.95349,-2.69836c3.0649,0.04409 4.84934,3.39465 2.72026,5.03333c-1.37433,1.05778 -4.30886,1.70755 -6.28985,2.2396c-4.8304,1.29062 -9.48073,3.78022 -14.51373,4.60366c-0.06807,0.03027 -0.99225,0.42672 -1.62651,-0.06421c-0.23305,-0.18038 -0.26208,-0.35296 -0.20227,-0.50068z" fill-opacity="0.56471" fill="#318f27" stroke-width="0.5"/><path d="M310.76431,321.1427c-0.76489,0.12461 -1.83124,0.46682 -2.5327,-0.15622c-0.78788,-0.6998 -1.1583,-2.41087 -0.95899,-2.99321c0.25465,-0.74404 1.54264,-1.01538 2.18041,-1.12871c1.13564,-0.2018 2.86541,0.44563 4.33707,0.29352c2.58266,-0.26695 12.80967,-2.37696 16.23679,-3.76947c3.99497,-1.62322 5.76399,-3.9662 5.76399,-3.9662l2.46942,8.71606c0,0 -2.37835,-1.8235 -7.14813,-1.75669c-2.52126,0.03532 -14.26449,2.48597 -16.72976,3.14832c-1.4228,0.38225 -2.48204,1.42755 -3.6181,1.61262z" fill="url(#color-7)" stroke-width="0"/><path d="M316.33491,328.71405c-0.70471,0.28805 -1.65236,0.85831 -2.45089,0.38444c-0.89691,-0.53225 -1.60397,-2.16591 -1.53389,-2.79138c0.08954,-0.79915 1.26351,-1.3458 1.84915,-1.59542c1.04281,-0.44451 2.82837,-0.16582 4.20234,-0.63233c2.41123,-0.81869 11.74192,-5.1146 14.72715,-7.2403c3.47984,-2.47789 5.27205,-5.55651 5.27205,-5.55651l5.50962,6.8498c0,0 -4.58604,0.3857 -9.1272,1.47108c-2.40042,0.57373 -13.10872,5.53439 -15.32618,6.72382c-1.27977,0.68645 -2.07545,1.95896 -3.12214,2.3868z" fill="url(#color-8)" stroke-width="0"/></g><path d="M328.0275,310.83754c0.33465,-4.3027 2.18125,-8.08394 4.90647,-10.73986c2.53327,-2.46885 17.20314,-1.98445 19.50574,0.61046c2.77979,3.13265 4.34792,7.56165 3.97649,12.33734c-0.6791,8.73158 -29.06779,6.52364 -28.38869,-2.20794z" fill="url(#color-9)" stroke-width="0"/></g><path d="M372.87704,294.77477c0,-3.6819 2.98477,-6.66667 6.66667,-6.66667c3.6819,0 6.66666,2.98477 6.66666,6.66667c0,3.6819 -2.98476,6.66667 -6.66666,6.66667c-3.6819,0 -6.66667,-2.98477 -6.66667,-6.66667z" fill="url(#color-10)" stroke="none" stroke-width="0" stroke-linecap="butt"/><path d="M371.54371,253.94149c0,-4.14213 3.35786,-7.5 7.49999,-7.5c4.14213,0 7.5,3.35787 7.5,7.5c0,4.14213 -3.35787,7.5 -7.5,7.5c-4.14213,0 -7.49999,-3.35787 -7.49999,-7.5z" fill="url(#color-11)" stroke="none" stroke-width="0" stroke-linecap="butt"/><path d="M371.54371,207.94149c0,-4.14213 3.35787,-7.50001 7.5,-7.50001c4.14213,0 7.49999,3.35787 7.49999,7.50001c0,4.14213 -3.35786,7.49999 -7.49999,7.49999c-4.14213,0 -7.5,-3.35786 -7.5,-7.49999z" fill="url(#color-12)" stroke="none" stroke-width="0" stroke-linecap="butt"/><path d="M349.54371,191.10816c0,-5.89103 4.77563,-10.66667 10.66666,-10.66667c5.89103,0 10.66666,4.77564 10.66666,10.66667c0,5.89103 -4.77563,10.66666 -10.66666,10.66666c-5.89103,0 -10.66666,-4.77563 -10.66666,-10.66666z" fill="url(#color-13)" stroke="none" stroke-width="0" stroke-linecap="butt"/><path d="M315.4563,138.56644c-3.86599,0 -7,-3.13401 -7,-7c0,-3.86599 3.13401,-7 7,-7c3.86599,0 7,3.13401 7,7c0,3.86599 -3.13401,7 -7,7z" fill="url(#color-14)" stroke="none" stroke-width="0" stroke-linecap="butt"/><path d="M301.4563,177.23316c-3.86599,0 -7,-3.13401 -7,-7c0,-3.86599 3.13401,-7 7,-7c3.86599,0 7,3.13401 7,7c0,3.86599 -3.13401,7 -7,7z" fill="url(#color-15)" stroke="none" stroke-width="0" stroke-linecap="butt"/><path d="M300.12297,219.89982c-3.86599,0 -7,-3.13401 -7,-7c0,-3.86599 3.13401,-7 7,-7c3.86599,0 7,3.13401 7,7c0,3.86599 -3.13401,7 -7,7z" fill="url(#color-16)" stroke="none" stroke-width="0" stroke-linecap="butt"/><g stroke="none" stroke-linecap="butt"><path d="M320.61126,134.35306c1.6352,6.41076 -0.03016,30.22243 -8.48968,36.6881c-0.97573,0.74575 -19.87402,-4.37275 -20.37912,-5.84213c-3.90816,-11.36933 5.35573,-32.50683 9.08648,-36.29093c0.28367,-0.28772 5.60506,-0.9228 10.3855,0.21725c4.82252,1.15009 9.10446,4.08161 9.39681,5.22772z" fill="url(#color-17)" stroke-width="0"/><g><path d="M311.7462,172.65775c0.08563,0.11313 -0.6679,10.7055 -1.018,20.85256c-0.31993,9.2725 -1.4654,18.92772 -2.83593,19.07792c-4.11652,0.45115 -12.12924,-0.01863 -16.26157,-0.93314c-1.41866,-0.31396 -2.90626,-10.36252 -2.6442,-19.78286c0.282,-10.1376 1.07038,-20.21552 1.29049,-20.52467c0.10727,-0.15066 5.38555,0.54168 10.69161,0.8737c5.32575,0.33325 10.67937,0.3067 10.77761,0.43651z" fill="url(#color-18)" stroke-width="0"/><g><path d="M320.71789,243.22717c-3.44358,-0.41964 -7.87739,1.81542 -8.22575,5.08729l-0.02738,0.04255l0.01791,0.00375l-0.21479,0.91846c-0.10428,0.47518 -0.603,0.79859 -1.15619,0.73317c-0.35082,-0.04148 -0.64385,-0.22993 -0.8089,-0.48629l-0.5399,-0.81844l0.3701,-0.18815c-1.87762,-3.05371 -1.18436,-7.41962 -1.72153,-10.81133c-0.26284,-1.65962 -0.73977,-3.34867 -0.61697,-5.02819c0.12128,-1.65877 0.73625,-2.29493 2.21917,-3.19705c1.31765,-0.18391 1.88324,-0.49082 3.14153,0.2698c1.21676,0.73552 2.31019,2.66715 3.09894,3.74986c1.7556,2.40989 4.12525,4.45166 5.76175,6.91953l0.40631,0.81523c0,0 0.42792,0.87774 -0.54325,1.2366c-0.15,0.87277 -1.16105,0.75321 -1.16105,0.75321z" fill-opacity="0.56471" fill="#318f27" stroke-width="0.5"/><path d="M295.58313,252.28899c-0.18872,-0.00183 -0.32434,-0.05815 -0.32434,-0.05815c-1.753,-0.72795 -3.06793,-1.04841 -5.04889,-0.73453c-0.65896,0.10441 -2.71008,0.92256 -3.21039,0.70328c-0.55021,-0.24114 -1.01466,-0.78655 -1.18927,-1.42368c-0.08948,-0.3265 0.55137,-2.00592 0.68891,-2.49605c0.58345,-2.07909 1.257,-4.12821 1.93166,-6.18804c1.02084,-3.11679 0.99815,-8.81488 2.71484,-11.58879c1.46276,-2.3636 6.31087,-1.89638 7.30122,0.67101c0.63928,1.65727 0.0705,4.30397 -0.20118,6.14244c-0.67055,4.47916 0.1829,9.48276 -1.14238,13.86077c0.00506,0.06982 0.05649,1.0097 -0.82533,1.23171c-0.32402,0.08157 -0.5448,0.00852 -0.69485,-0.11998z" fill-opacity="0.56471" fill="#318f27" stroke-width="0.5"/><path d="M309.1855,251.74617c-0.22632,0.02302 -0.40376,-0.0153 -0.40376,-0.0153c-2.2935,-0.49536 -3.95321,-0.6419 -6.23938,-0.06792c-0.76049,0.19095 -2.99502,1.2772 -3.65269,1.12434c-0.72325,-0.16811 -1.4257,-0.65104 -1.80596,-1.26363c-0.19487,-0.31393 0.12045,-2.07369 0.15326,-2.58074c0.13918,-2.15089 0.39423,-4.28375 0.64773,-6.42746c0.38359,-3.24369 0.01957,-7.98597 1.32804,-10.97924c1.11492,-2.5505 5.8469,-3.66187 7.72235,-1.2311c1.21061,1.56908 1.24162,4.28428 1.41083,6.15409c0.40193,4.55665 2.76858,9.43578 2.35982,13.97773c0.02484,0.06898 0.3391,0.99982 -0.65646,1.33741c-0.36581,0.12405 -0.64966,0.08025 -0.86377,-0.02818z" fill-opacity="0.56471" fill="#318f27" stroke-width="0.5"/><path d="M323.86238,241.76324c0.31346,0.45815 0.85827,1.06768 0.67395,1.6155c-0.20703,0.61534 -1.18869,1.14395 -1.6222,1.11978c-0.55389,-0.03087 -1.12109,-0.79169 -1.38848,-1.17206c-0.47614,-0.67731 -0.59045,-1.87429 -1.13748,-2.77095c-0.96,-1.57357 -5.43518,-7.62235 -7.37342,-9.53064c-2.25938,-2.22447 -4.29912,-2.92825 -4.29912,-2.92825l3.62883,-3.7518c0,0 0.75362,2.50115 2.25387,5.48109c0.79301,1.57516 5.94948,8.51591 7.1266,9.94738c0.67936,0.82616 1.67188,1.30948 2.13744,1.98995z" fill="url(#color-19)" stroke-width="0"/><path d="M311.83277,253.12068c0.07151,0.69193 0.31188,1.68481 -0.23806,2.19582c-0.61771,0.57396 -2.06187,0.6122 -2.53954,0.33975c-0.61032,-0.34809 -0.78211,-1.52357 -0.84961,-2.10209c-0.1202,-1.03014 0.49379,-2.43923 0.42935,-3.75585c-0.11309,-2.31058 -1.43992,-11.63665 -2.45676,-14.87673c-1.1853,-3.77693 -3.06609,-5.72158 -3.06609,-5.72158l7.38128,-0.70585c0,0 -1.62337,1.78103 -1.77031,5.9769c-0.07768,2.2179 1.46908,12.93128 1.91726,15.20512c0.25866,1.31232 1.08627,2.4168 1.19248,3.44452z" fill="url(#color-20)" stroke-width="0"/><path d="M287.2056,251.49467c-0.17589,0.67206 -0.29798,1.68056 -0.99791,1.98375c-0.78615,0.34054 -2.16538,-0.08634 -2.52124,-0.49501c-0.45468,-0.52214 -0.20345,-1.67997 -0.06369,-2.24435c0.24886,-1.00496 1.32542,-2.13016 1.72783,-3.38601c0.70621,-2.20393 2.73352,-11.37842 2.91216,-14.74396c0.20824,-3.92316 -0.81206,-6.97603 -0.81206,-6.97603l7.15499,2.3288c0,0 -2.16204,1.1507 -3.77765,5.04001c-0.85399,2.05585 -3.16155,12.60234 -3.53794,14.87919c-0.21724,1.31404 0.17676,2.6154 -0.08448,3.6136z" fill="url(#color-21)" stroke-width="0"/><path d="M298.74156,254.21092c-0.09063,0.68816 -0.08599,1.70471 -0.74222,2.08559c-0.73708,0.42779 -2.15789,0.15989 -2.56169,-0.20603c-0.51593,-0.46754 -0.41114,-1.6472 -0.34291,-2.22419c0.1215,-1.02741 1.04873,-2.26831 1.29121,-3.5626c0.42553,-2.27138 1.29218,-11.62312 1.0498,-14.98955c-0.28252,-3.92421 -1.67012,-6.21309 -1.67012,-6.21309l7.38028,0.87276c0,0 -2.00036,1.38945 -3.11756,5.43972c-0.59054,2.14093 -1.56404,12.88856 -1.65346,15.19501c-0.05161,1.33113 0.50127,2.58028 0.36666,3.60238z" fill="url(#color-22)" stroke-width="0"/><path d="M292.05098,214.89247c2.31537,-2.08223 15.20191,-1.13856 17.13573,1.22516c2.33458,2.85356 3.55764,6.80464 3.06244,10.99224c-0.90541,7.65636 -25.79824,4.71264 -24.89283,-2.94371c0.44617,-3.77286 2.20385,-7.03369 4.69466,-9.27369z" fill="url(#color-23)" stroke-width="0"/></g></g></g><path d="M397.5437,131.56644c0,-3.86599 3.13401,-7 7,-7c3.86599,0 7,3.13401 7,7c0,3.86599 -3.13401,7 -7,7c-3.86599,0 -7,-3.13401 -7,-7z" fill="url(#color-24)" stroke="none" stroke-width="0" stroke-linecap="butt"/><path d="M411.5437,170.23316c0,-3.86599 3.13401,-7 7,-7c3.86599,0 7,3.13401 7,7c0,3.86599 -3.13401,7 -7,7c-3.86599,0 -7,-3.13401 -7,-7z" fill="url(#color-25)" stroke="none" stroke-width="0" stroke-linecap="butt"/><path d="M412.87704,212.89982c0,-3.86599 3.13401,-7 7,-7c3.86599,0 7,3.13401 7,7c0,3.86599 -3.13401,7 -7,7c-3.86599,0 -7,-3.13401 -7,-7z" fill="url(#color-26)" stroke="none" stroke-width="0" stroke-linecap="butt"/><g stroke="none" stroke-linecap="butt"><path d="M399.38875,134.35306c0.29235,-1.14611 4.57429,-4.07763 9.39681,-5.22772c4.78044,-1.14005 10.10183,-0.50497 10.3855,-0.21725c3.73075,3.7841 12.99464,24.9216 9.08648,36.29093c-0.5051,1.46938 -19.40339,6.58788 -20.37912,5.84213c-8.45952,-6.46567 -10.12488,-30.27734 -8.48968,-36.6881z" fill="url(#color-27)" stroke-width="0"/><g><path d="M408.25379,172.65777c0.09824,-0.12981 5.45186,-0.10326 10.77761,-0.43651c5.30606,-0.33202 10.58434,-1.02436 10.69161,-0.8737c0.22011,0.30915 1.00849,10.38707 1.29049,20.52467c0.26206,9.42034 -1.22554,19.4689 -2.6442,19.78286c-4.13233,0.91451 -12.14505,1.38429 -16.26157,0.93314c-1.37053,-0.1502 -2.516,-9.80542 -2.83593,-19.07792c-0.3501,-10.14706 -1.10363,-20.73943 -1.018,-20.85256z" fill="url(#color-28)" stroke-width="0"/><g><path d="M398.12106,242.47396c-0.97117,-0.35886 -0.54325,-1.2366 -0.54325,-1.2366l0.40631,-0.81523c1.6365,-2.46787 4.00615,-4.50964 5.76175,-6.91953c0.78875,-1.08271 1.88218,-3.01434 3.09894,-3.74986c1.25829,-0.76062 1.82388,-0.45371 3.14153,-0.2698c1.48292,0.90212 2.09789,1.53828 2.21917,3.19705c0.1228,1.67952 -0.35413,3.36857 -0.61697,5.02819c-0.53717,3.39171 0.15609,7.75762 -1.72153,10.81133l0.3701,0.18815l-0.5399,0.81844c-0.16505,0.25636 -0.45808,0.44481 -0.8089,0.48629c-0.55319,0.06542 -1.05191,-0.25799 -1.15619,-0.73317l-0.21479,-0.91846l0.01791,-0.00375l-0.02738,-0.04255c-0.34836,-3.27187 -4.78217,-5.50693 -8.22575,-5.08729c0,0 -1.01105,0.11956 -1.16105,-0.75321z" fill-opacity="0.56471" fill="#318f27" stroke-width="0.5"/><path d="M424.41687,252.28898c-0.15005,0.1285 -0.37083,0.20155 -0.69485,0.11998c-0.88182,-0.22201 -0.83039,-1.16189 -0.82533,-1.23171c-1.32528,-4.37801 -0.47183,-9.38161 -1.14238,-13.86077c-0.27168,-1.83847 -0.84046,-4.48517 -0.20118,-6.14244c0.99035,-2.56739 5.83846,-3.03461 7.30122,-0.67101c1.71669,2.77391 1.694,8.472 2.71484,11.58879c0.67466,2.05983 1.34821,4.10895 1.93166,6.18804c0.13754,0.49013 0.77839,2.16955 0.68891,2.49605c-0.17461,0.63713 -0.63906,1.18254 -1.18927,1.42368c-0.50031,0.21928 -2.55143,-0.59887 -3.21039,-0.70328c-1.98096,-0.31388 -3.29589,0.00658 -5.04889,0.73453c0,0 -0.13562,0.05632 -0.32434,0.05815z" fill-opacity="0.56471" fill="#318f27" stroke-width="0.5"/><path d="M410.81449,251.74617c-0.21411,0.10843 -0.49796,0.15223 -0.86377,0.02818c-0.99556,-0.33759 -0.6813,-1.26843 -0.65646,-1.33741c-0.40876,-4.54195 1.95789,-9.42108 2.35982,-13.97773c0.16921,-1.86981 0.20022,-4.58501 1.41083,-6.15409c1.87545,-2.43077 6.60743,-1.3194 7.72235,1.2311c1.30847,2.99327 0.94445,7.73555 1.32804,10.97924c0.2535,2.14371 0.50855,4.27657 0.64773,6.42746c0.03281,0.50705 0.34813,2.26681 0.15326,2.58074c-0.38026,0.61259 -1.08271,1.09552 -1.80596,1.26363c-0.65767,0.15286 -2.8922,-0.93339 -3.65269,-1.12434c-2.28617,-0.57398 -3.94588,-0.42744 -6.23938,0.06792c0,0 -0.17744,0.03832 -0.40376,0.0153z" fill-opacity="0.56471" fill="#318f27" stroke-width="0.5"/><path d="M396.13763,241.76324c0.46556,-0.68047 1.45808,-1.16379 2.13744,-1.98995c1.17712,-1.43147 6.33359,-8.37222 7.1266,-9.94738c1.50025,-2.97994 2.25387,-5.48109 2.25387,-5.48109l3.62883,3.7518c0,0 -2.03974,0.70378 -4.29912,2.92825c-1.93824,1.90829 -6.41342,7.95707 -7.37342,9.53064c-0.54703,0.89666 -0.66134,2.09364 -1.13748,2.77095c-0.26739,0.38037 -0.83459,1.14119 -1.38848,1.17206c-0.43351,0.02417 -1.41517,-0.50444 -1.6222,-1.11978c-0.18432,-0.54782 0.36049,-1.15735 0.67395,-1.6155z" fill="url(#color-29)" stroke-width="0"/><path d="M408.16723,253.12069c0.10621,-1.02772 0.93382,-2.1322 1.19248,-3.44452c0.44818,-2.27384 1.99494,-12.98722 1.91726,-15.20512c-0.14694,-4.19587 -1.77031,-5.9769 -1.77031,-5.9769l7.38128,0.70585c0,0 -1.88079,1.94465 -3.06609,5.72158c-1.01684,3.24008 -2.34367,12.56615 -2.45676,14.87673c-0.06444,1.31662 0.54955,2.72571 0.42935,3.75585c-0.0675,0.57852 -0.23929,1.754 -0.84961,2.10209c-0.47767,0.27245 -1.92183,0.23421 -2.53954,-0.33975c-0.54994,-0.51101 -0.30957,-1.50389 -0.23806,-2.19582z" fill="url(#color-30)" stroke-width="0"/><path d="M432.79439,251.49466c-0.26124,-0.9982 0.13276,-2.29956 -0.08448,-3.6136c-0.37639,-2.27685 -2.68395,-12.82334 -3.53794,-14.87919c-1.61561,-3.88931 -3.77765,-5.04001 -3.77765,-5.04001l7.15499,-2.3288c0,0 -1.0203,3.05287 -0.81206,6.97603c0.17864,3.36554 2.20595,12.54003 2.91216,14.74396c0.40241,1.25585 1.47897,2.38105 1.72783,3.38601c0.13976,0.56438 0.39099,1.72221 -0.06369,2.24435c-0.35586,0.40867 -1.73509,0.83555 -2.52124,0.49501c-0.69993,-0.30319 -0.82202,-1.31169 -0.99791,-1.98375z" fill="url(#color-31)" stroke-width="0"/><path d="M421.25845,254.21092c-0.13461,-1.0221 0.41827,-2.27125 0.36666,-3.60238c-0.08942,-2.30645 -1.06292,-13.05408 -1.65346,-15.19501c-1.1172,-4.05027 -3.11756,-5.43972 -3.11756,-5.43972l7.38028,-0.87276c0,0 -1.3876,2.28888 -1.67012,6.21309c-0.24238,3.36643 0.62427,12.71817 1.0498,14.98955c0.24248,1.29429 1.16971,2.53519 1.29121,3.5626c0.06823,0.57699 0.17302,1.75665 -0.34291,2.22419c-0.4038,0.36592 -1.82461,0.63382 -2.56169,0.20603c-0.65623,-0.38088 -0.65159,-1.39743 -0.74222,-2.08559z" fill="url(#color-32)" stroke-width="0"/><path d="M432.64368,224.16616c0.90541,7.65635 -23.98742,10.60007 -24.89283,2.94371c-0.4952,-4.1876 0.72786,-8.13868 3.06244,-10.99224c1.93382,-2.36372 14.82036,-3.30739 17.13573,-1.22516c2.49081,2.24 4.24849,5.50083 4.69466,9.27369z" fill="url(#color-33)" stroke-width="0"/></g></g></g><g><path d="M404.77768,84.14933c0,11.41411 -16.33775,28.21138 -41.86546,28.21138c-25.52772,0 -41.86547,-15.9472 -41.86547,-27.36132c0,-11.41412 14.9564,4.09092 40.48412,4.09092c25.52773,0 43.24682,-16.35509 43.24682,-4.94097z" fill="#0d0d0d" stroke="none" stroke-width="0" stroke-linecap="butt"/><path d="M357.52868,110.90847c0,0 0.02793,-4.8241 0.03506,-6.05457c0.00313,-0.5396 0.65394,-1.16058 1.28752,-1.15692c1.48209,0.00858 7.56196,0.04378 9.78045,0.05662c0.50926,0.00295 0.811,0.70243 0.80763,1.28549c-0.00727,1.25547 -0.03438,5.93814 -0.03438,5.93814z" fill="url(#color-34)" stroke="none" stroke-width="0" stroke-linecap="butt"/><path d="M343.36348,108.10977c0,0 1.07716,-4.55718 1.36594,-5.779c0.13412,-0.56744 0.5922,-1.17611 1.08781,-1.05897c2.15904,0.51032 8.07599,1.90887 9.51836,2.2498c0.61659,0.14574 1.10273,0.90263 0.97861,1.42776c-0.28304,1.19749 -1.39273,5.89231 -1.39273,5.89231z" fill="url(#color-35)" stroke="none" stroke-width="0" stroke-linecap="butt"/><path d="M330.59202,100.64405c0,0 2.22702,-4.11929 2.82411,-5.2237c0.27729,-0.51291 0.87811,-0.98125 1.3261,-0.73906c1.95158,1.05509 7.29997,3.9466 8.60375,4.65147c0.55734,0.30131 0.82956,1.1587 0.57294,1.63338c-0.58519,1.08243 -2.87949,5.32613 -2.87949,5.32613z" fill="url(#color-36)" stroke="none" stroke-width="0" stroke-linecap="butt"/><path d="M385.96491,105.59364c0,0 -2.29429,-4.2437 -2.87948,-5.32613c-0.25663,-0.47468 0.01558,-1.33206 0.57293,-1.63339c1.30378,-0.70486 6.65217,-3.59637 8.60375,-4.65145c0.44798,-0.24219 1.0488,0.22614 1.3261,0.73906c0.59708,1.10441 2.82411,5.22371 2.82411,5.22371z" fill="url(#color-37)" stroke="none" stroke-width="0" stroke-linecap="butt"/><path d="M405.85173,83.6008c0,14.26032 -17.19187,32.51481 -43.14633,32.51481c-25.95446,0 -44.463,-18.41388 -44.463,-32.6742c0,-2.20809 1.71388,-1.66202 4.60545,1.92566c2.38796,2.96283 10.23243,16.41529 22.86431,21.97245c10.96563,4.82412 26.63867,2.20601 31.81682,0.15628c14.25152,-5.64132 23.32117,-19.88868 25.12259,-22.55655c1.94523,-2.88088 3.20017,-3.2658 3.20017,-1.33843z" fill="url(#color-38)" stroke="none" stroke-width="0" stroke-linecap="butt"/><path d="M381.1621,103.83803c0,0 8.63201,1.83482 12.74787,3.73616c4.21349,1.94645 12.24706,7.81041 12.24706,7.81041" fill="none" stroke="#885714" stroke-width="1.5" stroke-linecap="round"/><path d="M372.13814,110.60878c0,0 -1.10968,-4.69481 -1.39273,-5.89231c-0.12412,-0.52514 0.36203,-1.28203 0.97861,-1.42777c1.44236,-0.34092 7.35933,-1.73947 9.51836,-2.24979c0.49561,-0.11714 0.95369,0.49153 1.08781,1.05896c0.2888,1.22182 1.36594,5.77901 1.36594,5.77901z" fill="url(#color-39)" stroke="none" stroke-width="0" stroke-linecap="butt"/><path d="M375.86244,108.07945c2.54127,-0.86572 4.93279,-1.99455 7.15904,-3.28091c0.97586,1.59956 3.56717,4.31735 4.11301,5.03535c0.00934,0.0123 0.01874,0.02464 0.02819,0.03705c-4.74928,2.61025 -10.30579,4.56069 -16.50197,5.46841c0.21586,-0.71196 0.38957,-1.37888 0.5181,-1.96681c0.22816,-1.04355 0.4941,-2.57471 0.66997,-4.3074c1.645,-0.30168 3.01806,-0.64654 4.01364,-0.9857z" fill="url(#color-40)" stroke="none" stroke-width="0" stroke-linecap="butt"/><path d="M401.1375,111.60667c-0.17632,-0.00943 -0.34641,-0.02083 -0.51063,-0.03442c0.05314,0.06806 0.10601,0.1377 0.15865,0.20897c0.03694,-0.00406 0.07447,-0.00614 0.11249,-0.00614c0.12227,0 0.23951,0.02154 0.34812,0.06102c-0.03605,-0.07591 -0.07217,-0.15247 -0.10863,-0.22943zM386.48414,103.04657c4.39624,-0.39948 8.77408,-0.47311 13.18941,-0.46837l0.05388,0.02526l0.0023,-0.0206l1.03571,0.11508c0.5156,0.05038 0.91853,0.48512 0.91853,1.01395c0,0.39033 -0.21951,0.7294 -0.54183,0.90048l-1.03014,0.57229l-0.00799,-0.01439c-0.02522,0.01914 -0.05073,0.03793 -0.07655,0.05636c-0.14694,0.10486 -0.50194,-0.33676 -0.52496,-0.18309l0.26051,0.2163c0.10821,0.0376 0.2173,0.0785 0.25543,0.16516c0.01021,0.02322 0.01965,0.04671 0.02836,0.07045l0.46633,0.3872c-0.14729,0.10946 -0.26254,0.2291 -0.35299,0.35567c0.01718,0.35813 0.0268,0.71706 0.20731,1.0132c0.71024,1.16523 2.52672,1.15568 3.48634,2.16777c0.92902,0.97982 1.25498,2.10314 1.80674,3.28645c0.43517,0.9333 3.01505,3.996 1.52014,5.14243c-1.84714,1.41653 -3.46269,-1.94645 -3.67215,-0.9854c-0.42825,0.49211 -2.56946,2.70615 -3.15358,2.65456c-3.37238,-0.29787 -1.32812,-4.72747 -2.56962,-6.42209c-0.79611,-1.08665 -1.97296,0.71657 -2.43921,0.58204c-0.88036,-0.25404 -1.07198,-2.36051 -2.0729,-2.74332c-2.04789,-0.78325 -3.35316,-2.67214 -5.45659,-3.71921c-0.71443,-0.23618 -1.42764,-0.47607 -2.14008,-0.71818l-0.08486,-0.09134l-0.021,0.03359l-0.91653,-0.57282c-0.29591,-0.17827 -0.4938,-0.50267 -0.4938,-0.8733c0,-0.4583 0.30261,-0.84593 0.71892,-0.97396l0.70177,-0.23392c0.14853,-0.66963 0.90311,-0.73823 0.90311,-0.73823zM404.99232,115.23442c-0.11495,-0.22123 -0.23498,-0.4493 -0.35873,-0.68127l-0.03518,0.35178c0.1301,0.11787 0.25983,0.23481 0.39391,0.32949z" fill-opacity="0.54902" fill="#8f6827" stroke="none" stroke-width="0.5" stroke-linecap="butt"/></g><g><path d="M362.29732,93.89787c0,0 -0.2968,4.67334 -0.37638,5.9263c-0.03696,0.58188 -0.38636,1.25883 -0.8946,1.22655c-2.21407,-0.14061 -8.28183,-0.52596 -9.76095,-0.61991c-0.63232,-0.04015 -1.23863,-0.70467 -1.20442,-1.24319c0.07799,-1.22802 0.38377,-6.04251 0.38377,-6.04251z" fill="url(#color-41)" stroke="none" stroke-width="0" stroke-linecap="butt"/><path d="M375.33576,93.07762c0,0 0.26478,4.81691 0.33234,6.04555c0.02962,0.53879 -0.58231,1.19814 -1.21494,1.2329c-1.47988,0.08136 -7.55069,0.41508 -9.76588,0.53686c-0.50849,0.02795 -0.85213,-0.65193 -0.88413,-1.23412c-0.06891,-1.25359 -0.32595,-5.92929 -0.32595,-5.92929z" fill="url(#color-42)" stroke="none" stroke-width="0" stroke-linecap="butt"/><path d="M387.71372,88.17937c0,0 1.4329,4.60648 1.79839,5.78144c0.16028,0.51525 -0.27215,1.30405 -0.87715,1.49224c-1.41523,0.44022 -7.22081,2.24611 -9.33922,2.90507c-0.48628,0.15126 -0.98551,-0.42415 -1.1587,-0.9809c-0.37291,-1.19882 -1.76381,-5.67024 -1.76381,-5.67024z" fill="url(#color-43)" stroke="none" stroke-width="0" stroke-linecap="butt"/><path d="M350.07393,91.70697c0,0 -1.39089,4.47141 -1.7638,5.67023c-0.17318,0.55675 -0.67243,1.13216 -1.1587,0.9809c-2.11842,-0.65896 -7.92399,-2.46485 -9.33923,-2.90507c-0.60498,-0.18819 -1.03743,-0.97698 -0.87715,-1.49223c0.36549,-1.17496 1.79839,-5.78143 1.79839,-5.78143z" fill="url(#color-44)" stroke="none" stroke-width="0" stroke-linecap="butt"/><path d="M406.27101,83.15797c0,0.14231 -14.42553,8.31448 -30.3581,11.80752c-11.2096,2.45759 -24.61401,0.82821 -27.97788,0.14114c-16.85477,-3.44254 -29.48586,-11.67979 -29.48586,-11.94867c0,-20.04287 18.93609,-36.36132 42.56449,-36.96058c0.25588,-0.00648 0.47423,0.87876 1.41969,1.12978c1.95379,0.51875 2.26486,-1.09672 2.65017,-1.07687c22.98281,1.18429 41.18749,17.25569 41.18749,36.90767z" fill="url(#color-45)" stroke="none" stroke-width="0" stroke-linecap="butt"/><path d="M356.01944,89.71675c-0.1637,0.62335 -1.23966,0.88095 -2.40324,0.57538c-1.16358,-0.30558 -1.97412,-1.05863 -1.81043,-1.68196c0.1637,-0.62335 1.23967,-0.88095 2.40324,-0.57537c1.16357,0.30558 1.97413,1.05862 1.81042,1.68195z" fill="#153d11" stroke="none" stroke-width="0" stroke-linecap="butt"/><path d="M346.63398,87.03641c0,0 4.54806,-1.70956 7.11497,-1.44583c2.60377,0.2675 8.39864,3.0397 8.39864,3.0397" fill="none" stroke-opacity="0.39608" stroke="#1c5216" stroke-width="1" stroke-linecap="round"/><path d="M364.91027,88.52403c0,0 5.79488,-2.77219 8.39864,-3.03971c2.56691,-0.26372 7.11496,1.44585 7.11496,1.44585" fill="none" stroke-opacity="0.39608" stroke="#1c5216" stroke-width="1" stroke-linecap="round"/><path d="M372.53003,87.60976c1.16357,-0.30558 2.23955,-0.04796 2.40324,0.57538c0.16369,0.62335 -0.64687,1.37636 -1.81043,1.68194c-1.16357,0.30558 -2.23954,0.04798 -2.40324,-0.57536c-0.1637,-0.62335 0.64686,-1.37638 1.81043,-1.68196z" fill="#153d11" stroke="none" stroke-width="0" stroke-linecap="butt"/><path d="M326.44504,49.36811c0,-10.06438 8.15879,-18.22317 18.22318,-18.22317c10.06438,0 18.22318,8.15879 18.22318,18.22317c0,10.06438 -8.15879,18.22318 -18.22317,18.22318c-6.26577,0 -16.25574,7.35723 -19.53541,2.5416c-0.22075,-0.32413 1.31226,-20.65983 1.31226,-20.76477z" fill="url(#color-46)" stroke="none" stroke-width="0" stroke-linecap="butt"/><path d="M400.90983,69.7078c-3.27969,4.81563 -13.26966,-2.5416 -19.53542,-2.5416c-10.06438,0 -18.22316,-8.15879 -18.22316,-18.22317c0,-10.06438 8.15878,-18.22317 18.22316,-18.22317c10.06438,0 18.22317,8.15879 18.22317,18.22318c0,0.10494 1.533,20.44064 1.31226,20.76477z" fill="url(#color-47)" stroke="none" stroke-width="0" stroke-linecap="butt"/><path d="M330.0578,53.67152c0,-7.9224 6.42237,-14.34477 14.34476,-14.34477c7.92239,0 14.34477,6.42237 14.34477,14.34477c0,7.9224 -6.42238,14.34476 -14.34477,14.34476c-7.92239,0 -14.34476,-6.42238 -14.34476,-14.34476z" fill="#0d0d0d" stroke="none" stroke-width="0" stroke-linecap="butt"/><path d="M367.77922,53.88404c0,-7.9224 6.42238,-14.34477 14.34477,-14.34477c7.92239,0 14.34477,6.42237 14.34477,14.34477c0,7.9224 -6.42237,14.34477 -14.34477,14.34477c-7.92239,0 -14.34477,-6.42237 -14.34477,-14.34477z" fill="#0d0d0d" stroke="none" stroke-width="0" stroke-linecap="butt"/><path d="M370.3294,53.93718c0,-6.42593 5.20926,-11.6352 11.63521,-11.6352c6.42595,0 11.6352,5.20927 11.6352,11.6352c0,6.42594 -5.20925,11.63519 -11.6352,11.63519c-6.42595,0 -11.63521,-5.20925 -11.63521,-11.63519z" fill="url(#color-48)" stroke="none" stroke-width="0" stroke-linecap="butt"/><path d="M333.24553,54.1497c0,-6.42593 5.20926,-11.6352 11.6352,-11.6352c6.42594,0 11.6352,5.20927 11.6352,11.6352c0,6.42594 -5.20927,11.6352 -11.6352,11.6352c-6.42594,0 -11.6352,-5.20926 -11.6352,-11.6352z" fill="url(#color-49)" stroke="none" stroke-width="0" stroke-linecap="butt"/><g stroke="none" stroke-width="0" stroke-linecap="butt"><path d="M337.38956,55.84981c0,-4.37199 3.5442,-7.91617 7.91618,-7.91617c4.37199,0 7.9162,3.54419 7.9162,7.91617c0,4.37199 -3.5442,7.91619 -7.9162,7.91619c-4.37199,0 -7.91618,-3.5442 -7.91618,-7.91619z" fill="#183814"/><path d="M341.10859,55.79669c0,-2.34738 1.90291,-4.2503 4.25029,-4.2503c2.34738,0 4.2503,1.90293 4.2503,4.25031c0,2.34738 -1.90292,4.25029 -4.2503,4.25029c-2.34738,0 -4.25029,-1.90291 -4.25029,-4.25029z" fill="#000000"/></g><g stroke="none" stroke-width="0" stroke-linecap="butt"><path d="M373.09209,55.31852c0,-4.37199 3.5442,-7.91618 7.91618,-7.91618c4.37198,0 7.9162,3.54418 7.9162,7.91618c0,4.37199 -3.54421,7.9162 -7.9162,7.9162c-4.37198,0 -7.91618,-3.5442 -7.91618,-7.9162z" fill="#183814"/><path d="M376.8111,55.26538c0,-2.34738 1.90292,-4.2503 4.25031,-4.2503c2.34738,0 4.25031,1.90292 4.25031,4.25031c0,2.34738 -1.90292,4.25029 -4.2503,4.25029c-2.34738,0 -4.2503,-1.90291 -4.2503,-4.25029z" fill="#000000"/></g><path d="M329.95154,53.034c0,-7.9224 6.46994,-14.34477 14.45102,-14.34477c7.98108,0 14.45102,6.42238 14.45102,14.34477c0,0.24262 -7.15484,-0.5882 -14.34476,-0.58518c-7.26077,0.00303 -14.5573,0.8375 -14.5573,0.58518z" fill="#26701e" stroke="none" stroke-width="0" stroke-linecap="butt"/><path d="M367.67295,52.50269c0,-7.9224 6.46995,-14.34477 14.45102,-14.34477c7.98108,0 14.45102,6.42237 14.45102,14.34477c0,0.24262 -7.15483,-0.5882 -14.34474,-0.58518c-7.26075,0.00303 -14.5573,0.8375 -14.5573,0.58518z" fill="#26701e" stroke="none" stroke-width="0" stroke-linecap="butt"/></g><g><path d="M407.02813,159.77265c0,10.43651 -2.37669,20.20697 -6.51608,28.57471c-1.01878,2.05945 -78.66709,3.04303 -79.69782,1.09312c-4.58422,-8.67224 -7.23868,-18.63828 -7.23868,-29.66783c0,-17.85049 6.95283,-33.75253 17.78638,-44.02002c0.57354,-0.54358 16.15641,2.70079 31.51141,2.76983c14.95157,0.06722 29.68709,-3.05515 30.13911,-2.5234c8.64944,10.17509 14.01567,28.09148 14.01567,43.77359z" fill="url(#color-50)" stroke="none" stroke-width="0" stroke-linecap="butt"/><path d="M399.71818,162.81107c0,9.55085 -2.02675,18.49218 -5.55666,26.14982c-0.86877,1.88469 -67.08421,2.78479 -67.96318,1.00036c-3.90924,-7.93631 -6.17286,-17.05662 -6.17286,-27.15018c0,-16.33568 5.92911,-30.88824 15.16753,-40.28442c0.4891,-0.49745 13.77755,2.4716 26.87171,2.53478c12.75011,0.06153 25.31597,-2.79588 25.70143,-2.30925c7.3759,9.31162 11.95203,25.70759 11.95203,40.0589z" fill="url(#color-51)" stroke="none" stroke-width="0" stroke-linecap="butt"/><path d="M361.44849,190.62733v-64.10707" fill="none" stroke-opacity="0.6549" stroke="#1e5818" stroke-width="0.5" stroke-linecap="round"/></g><g><path d="M397.40438,192.19604c-8.52721,9.50526 -22.08137,15.65085 -37.34486,15.65085c-14.99645,0 -28.34286,-5.93243 -36.89269,-15.15503c-0.08168,-0.08811 18.81112,1.57146 37.21915,1.46645c18.75489,-0.10699 37.03215,-1.97758 37.01841,-1.96226z" fill="url(#color-52)" stroke="none" stroke-width="0" stroke-linecap="butt"/><path d="M387.08446,193.18743c-6.25522,6.80752 -16.19803,11.20891 -27.39474,11.20891c-11.0008,0 -20.79121,-4.24873 -27.06303,-10.85382c-0.05992,-0.0631 13.7991,1.12546 27.30252,1.05026c13.75786,-0.07662 27.16535,-1.41631 27.15527,-1.40535z" fill="url(#color-53)" stroke="none" stroke-width="0" stroke-linecap="butt"/><path d="M361.44849,203.72646v-8.89816" fill="none" stroke-opacity="0.6549" stroke="#1e5818" stroke-width="0.5" stroke-linecap="round"/></g><path d="M365.17513,144.41996c0,-0.39702 0.32085,-0.71886 0.71666,-0.71886c0.39579,0 0.71667,0.32184 0.71667,0.71886c0,0.39702 -0.32087,0.71887 -0.71667,0.71887c-0.39579,0 -0.71666,-0.32185 -0.71666,-0.71887z" fill="#000000" stroke="none" stroke-width="0" stroke-linecap="butt"/><path d="M365.46179,174.0373c0,-0.39702 0.32086,-0.71887 0.71666,-0.71887c0.39579,0 0.71667,0.32185 0.71667,0.71887c0,0.39702 -0.32087,0.71887 -0.71667,0.71887c-0.39579,0 -0.71666,-0.32185 -0.71666,-0.71887z" fill="#000000" stroke="none" stroke-width="0" stroke-linecap="butt"/><path d="M407.45945,159.65775c0,10.46059 -2.39862,20.2536 -6.57622,28.64065c-0.50413,1.01211 -19.81845,2.62961 -39.27666,2.90376c-20.22682,0.28498 -40.62664,-0.81198 -41.15684,-1.8081c-4.62654,-8.69225 -7.3055,-18.6813 -7.3055,-29.7363c0,-1.0119 10.63049,10.07284 14.63441,2.07638c1.64278,-3.28088 7.10535,-45.84784 7.23838,-45.83004c1.5598,0.20876 3.66594,0.25825 5.97323,0.53643c1.2023,0.14496 2.45923,0.50946 3.72192,0.65494c2.33446,0.26896 -5.98474,32.85551 1.25369,46.7294c1.54867,2.96833 29.46237,3.98868 32.48447,-0.51401c9.48911,-14.13804 3.39403,-46.27596 4.02892,-46.35372c1.28915,-0.15787 6.98611,-0.7729 7.91647,-0.89632c1.13629,-0.15072 2.7506,29.65489 7.60748,42.51153c2.66494,7.05438 9.45625,0.0923 9.45625,1.0854z" fill="url(#color-54)" stroke="none" stroke-width="0" stroke-linecap="butt"/><g stroke="none" stroke-width="0" stroke-linecap="butt"><path d="M349.49556,119.52834c1.72498,-3.73709 9.84003,1.03585 9.84003,1.03585l-3.3583,7.27563c0,0 -8.20672,-4.57441 -6.48174,-8.31148z" fill="#090909"/><path d="M349.50279,130.60503c-1.8015,-3.70056 7.01082,-7.00301 7.01082,-7.00301l3.50728,7.20454c0,0 -8.71659,3.49902 -10.51809,-0.20154z" fill="#090909"/><path d="M367.65494,128.14354l-3.72224,-7.52087c0,0 8.36012,-5.22844 10.27202,-1.36539c1.91191,3.86304 -6.54979,8.88626 -6.54979,8.88626z" fill="#090909"/><path d="M363.50595,131.36488l3.46726,-7.64249c0,0 9.31921,3.20564 7.53826,7.13116c-1.78095,3.92552 -11.00553,0.51133 -11.00553,0.51133z" fill="#090909"/><path d="M368.35728,125.7342c0.04467,3.2969 -2.76118,6.0083 -6.26709,6.05611c-3.5059,0.0478 -6.38422,-2.58611 -6.42888,-5.88299c-0.04467,-3.2969 2.76119,-6.00831 6.26708,-6.05611c3.5059,-0.0478 6.38422,2.58612 6.42889,5.88303z" fill="#000000"/></g><path d="M397.8357,192.15058c-8.62629,9.53287 -22.33795,15.69631 -37.77881,15.69631c-15.1707,0 -28.67219,-5.94965 -37.32138,-15.19906c-0.08263,-0.08837 19.02971,1.57603 37.65164,1.47071c18.97282,-0.10728 37.46246,-1.98332 37.44856,-1.96796z" fill="url(#color-55)" stroke="none" stroke-width="0" stroke-linecap="butt"/><path d="M375.12074,174.32441c0,5.14447 -6.01395,9.31488 -13.43253,9.31488c-7.41858,0 -13.43252,-4.17041 -13.43252,-9.31488c0,-0.16268 26.86505,-0.15775 26.86505,0z" fill="url(#color-56)" stroke="none" stroke-width="0" stroke-linecap="butt"/><g stroke="none" stroke-width="0" stroke-linecap="butt"><path d="M380.40724,207.43433c6.4672,-2.2348 12.72126,-6.56814 12.78722,-6.47643c2.07325,2.88283 3.71748,44.85152 0.12974,49.43222c-1.10845,1.41523 -26.83407,1.87814 -27.84328,0.83876c-1.91407,-1.97129 -1.07424,-39.37764 0.0904,-41.16891c0,0 7.96585,-0.25163 14.83593,-2.62564z" fill="url(#color-57)"/><path d="M365.06579,253.69596c0.13585,-0.1364 7.16472,0.12507 14.17596,-0.00456c6.98532,-0.12916 13.95312,-0.64999 14.08605,-0.48206c0.27276,0.34458 0.77722,11.29977 0.61355,22.29762c-0.15207,10.21973 -2.63484,21.04418 -4.51435,21.32274c-5.47467,0.81139 -16.02157,0.97218 -21.40355,0.30437c-1.79185,-0.22234 -2.78748,-10.73499 -2.7192,-20.79703c0.07473,-11.01106 -0.35686,-22.52222 -0.23845,-22.64108z" fill="url(#color-58)"/></g><g stroke="none" stroke-linecap="butt"><g><path d="M413.4793,318.51437c0.08752,0.11988 0.09138,0.27257 -0.10622,0.45805c-0.5378,0.50479 -1.53236,0.28059 -1.60582,0.26316c-5.1629,-0.06804 -10.26127,-1.62328 -15.31127,-2.12049c-2.07157,-0.20629 -5.11404,-0.39242 -6.68187,-1.13003c-2.42885,-1.14267 -1.28943,-4.26294 1.75107,-4.69244c3.56834,-0.50405 9.69593,0.67483 13.3977,0.67501c2.44644,0.00012 4.88096,-0.00126 7.31724,0.0597c0.57433,0.01437 2.59972,-0.04217 2.92095,0.08039c0.62686,0.23917 1.05676,0.64043 1.12999,1.033c0.0666,0.35697 -1.50922,1.46944 -1.84489,1.85923c-1.0091,1.17177 -1.10952,2.05767 -0.91962,3.30018c0,0 0.01469,0.09613 -0.04728,0.21424z" fill-opacity="0.56471" fill="#318f27" stroke-width="0.5"/><path d="M412.68746,315.71173c-1.16412,-0.07191 -2.34598,-0.99659 -3.82055,-1.23454c-2.55497,-0.4123 -14.64772,-1.68392 -17.18979,-1.47458c-4.80915,0.39603 -7.00198,2.41822 -7.00198,2.41822l1.52296,-8.80444c0,0 2.03975,2.13126 6.24085,3.33974c3.60397,1.03672 14.13268,2.12036 16.76216,2.13271c1.49834,0.00703 3.16817,-0.79663 4.33372,-0.70823c0.65456,0.04963 1.98118,0.19163 2.31974,0.89817c0.26499,0.55297 0.08114,2.27031 -0.63471,3.03428c-0.63733,0.68017 -1.74863,0.44709 -2.53241,0.39868z" fill="url(#color-59)" stroke-width="0"/><path d="M410.36281,324.62273c0.05981,0.14772 0.03078,0.3203 -0.20227,0.50068c-0.63426,0.49093 -1.55844,0.09448 -1.62651,0.06421c-5.033,-0.82344 -9.68333,-3.31304 -14.51373,-4.60366c-1.98099,-0.53205 -4.91552,-1.18182 -6.28985,-2.2396c-2.12908,-1.63868 -0.34464,-4.98924 2.72026,-5.03333c3.59696,-0.05174 9.33441,2.16273 12.95349,2.69836c2.39179,0.35399 4.77225,0.70458 7.14102,1.12565c0.55842,0.09926 2.55073,0.32851 2.83846,0.51307c0.56147,0.36013 0.89555,0.87438 0.88279,1.32725c-0.01159,0.4118 -1.79126,1.43721 -2.2032,1.8278c-1.23835,1.17419 -1.52689,2.15774 -1.6082,3.58504c0,0 -0.00629,0.11042 -0.09225,0.23453z" fill-opacity="0.56471" fill="#318f27" stroke-width="0.5"/><path d="M412.21546,321.14277c-1.13606,-0.18507 -2.1953,-1.23037 -3.6181,-1.61262c-2.46527,-0.66235 -14.2085,-3.113 -16.72976,-3.14832c-4.76978,-0.06681 -7.14813,1.75669 -7.14813,1.75669l2.46942,-8.71606c0,0 1.76902,2.34298 5.76399,3.9662c3.42712,1.39251 13.65413,3.50252 16.23679,3.76947c1.47166,0.15211 3.20143,-0.49532 4.33707,-0.29352c0.63777,0.11333 1.92576,0.38467 2.18041,1.12871c0.19931,0.58234 -0.17111,2.29341 -0.95899,2.99321c-0.70146,0.62304 -1.76781,0.28083 -2.5327,0.15622z" fill="url(#color-60)" stroke-width="0"/><path d="M406.64485,328.71405c-1.04669,-0.42784 -1.84237,-1.70035 -3.12214,-2.3868c-2.21746,-1.18943 -12.92576,-6.15009 -15.32618,-6.72382c-4.54116,-1.08538 -9.1272,-1.47108 -9.1272,-1.47108l5.50962,-6.8498c0,0 1.79221,3.07862 5.27205,5.55651c2.98523,2.1257 12.31592,6.42161 14.72715,7.2403c1.37397,0.46651 3.15953,0.18782 4.20234,0.63233c0.58564,0.24962 1.75961,0.79627 1.84915,1.59542c0.07008,0.62547 -0.63698,2.25913 -1.53389,2.79138c-0.79853,0.47387 -1.74618,-0.09639 -2.45089,-0.38444z" fill="url(#color-61)" stroke-width="0"/></g><path d="M394.95226,310.83754c0.6791,8.73158 -27.70959,10.93952 -28.38869,2.20794c-0.37143,-4.77569 1.1967,-9.20469 3.97649,-12.33734c2.3026,-2.59491 16.97247,-3.07931 19.50574,-0.61046c2.72522,2.65592 4.57182,6.43716 4.90647,10.73986z" fill="url(#color-62)" stroke-width="0"/></g></g></g></svg>