<svg version="1.1" xmlns="http://www.w3.org/2000/svg" xmlns:xlink="http://www.w3.org/1999/xlink" width="735.01499" height="448" viewBox="0,0,735.01499,448"><defs><linearGradient x1="146" y1="180" x2="574.00001" y2="180" gradientUnits="userSpaceOnUse" id="color-1"><stop offset="0" stop-color="#484c5e"/><stop offset="1" stop-color="#212d30"/></linearGradient><radialGradient cx="281.88819" cy="123.08314" r="27.84692" gradientUnits="userSpaceOnUse" id="color-2"><stop offset="0" stop-color="#ff0f0f" stop-opacity="0.50196"/><stop offset="1" stop-color="#ff0f0f" stop-opacity="0"/></radialGradient><radialGradient cx="261.49813" cy="141.28768" r="27.84692" gradientUnits="userSpaceOnUse" id="color-3"><stop offset="0" stop-color="#ff0f0f" stop-opacity="0.50196"/><stop offset="1" stop-color="#ff0f0f" stop-opacity="0"/></radialGradient><radialGradient cx="239.28345" cy="155.86829" r="27.84692" gradientUnits="userSpaceOnUse" id="color-4"><stop offset="0" stop-color="#ff0f0f" stop-opacity="0.50196"/><stop offset="1" stop-color="#ff0f0f" stop-opacity="0"/></radialGradient><linearGradient x1="398.3413" y1="180" x2="727.00001" y2="180" gradientUnits="userSpaceOnUse" id="color-5"><stop offset="0" stop-color="#331717"/><stop offset="1" stop-color="#000000"/></linearGradient><linearGradient x1="-7" y1="180" x2="727.00001" y2="180" gradientUnits="userSpaceOnUse" id="color-6"><stop offset="0" stop-color="#484c5e"/><stop offset="1" stop-color="#212d30"/></linearGradient><linearGradient x1="-7" y1="180" x2="354.70446" y2="180" gradientUnits="userSpaceOnUse" id="color-7"><stop offset="0" stop-color="#000000"/><stop offset="1" stop-color="#331717"/></linearGradient><linearGradient x1="-7" y1="180" x2="727.00001" y2="180" gradientUnits="userSpaceOnUse" id="color-8"><stop offset="0" stop-color="#484c5e"/><stop offset="1" stop-color="#212d30"/></linearGradient><linearGradient x1="-5.24205" y1="181.05806" x2="150.65901" y2="181.05806" gradientUnits="userSpaceOnUse" id="color-9"><stop offset="0" stop-color="#000000"/><stop offset="1" stop-color="#000000" stop-opacity="0"/></linearGradient><linearGradient x1="727.50754" y1="177.8148" x2="571.60646" y2="177.8148" gradientUnits="userSpaceOnUse" id="color-10"><stop offset="0" stop-color="#000000"/><stop offset="1" stop-color="#000000" stop-opacity="0"/></linearGradient><linearGradient x1="360.24745" y1="-17.14016" x2="360.24745" y2="110.48749" gradientUnits="userSpaceOnUse" id="color-11"><stop offset="0" stop-color="#000000"/><stop offset="1" stop-color="#000000" stop-opacity="0"/></linearGradient><linearGradient x1="359.27229" y1="377.38042" x2="359.27229" y2="249.75279" gradientUnits="userSpaceOnUse" id="color-12"><stop offset="0" stop-color="#000000"/><stop offset="1" stop-color="#000000" stop-opacity="0"/></linearGradient><radialGradient cx="265.70137" cy="156" r="180" gradientUnits="userSpaceOnUse" id="color-13"><stop offset="0" stop-color="#ff0000" stop-opacity="0.10196"/><stop offset="1" stop-color="#ff0000" stop-opacity="0"/></radialGradient></defs><g transform="translate(7.50748,44)"><g stroke-miterlimit="10"><g stroke-width="0"><path d="M146,404v-448h428v448z" fill="#230000" stroke="url(#color-1)"/><path d="M94,274.5v-189h532v189z" fill="#650000" stroke="#000000"/></g><g stroke="none" stroke-width="0"><g><g><path d="M284.29249,149.94677l-14.46415,-31.39757l49.37342,-59.18582c0,0 4.39124,0.05293 6.67812,5.0171c1.05461,2.28926 4.83725,8.88154 6.27024,13.92979c1.98182,6.98155 1.51576,12.45071 1.51576,12.45071z" fill="#111111"/><path d="M241.50075,196.27601l-50.88284,23.13182l-11.86218,-74.50066l50.88286,-23.13178z" fill="#111111"/><path d="M293.32361,127.443l-55.27676,57.81019l-13.63257,-34.25543l55.27674,-57.81019z" fill="#450404"/><path d="M307.18489,82.51434c0,0 -29.4535,37.77905 -46.95987,51.85163c-18.70723,15.03792 -61.92014,35.67226 -61.92014,35.67226l-7.54553,-36.93609c0,0 37.28953,-15.68789 51.64326,-25.48004c12.4499,-8.49336 29.58308,-29.93292 29.58308,-29.93292z" fill="#000000"/><path d="M333.05241,115.9674c0,0 -28.12614,40.30435 -45.1397,55.90669c-18.18062,16.67262 -60.6753,41.13147 -60.6753,41.13147l-8.85238,-36.1291c0,0 36.74462,-18.99539 50.75597,-30.04785c12.15292,-9.58646 28.53294,-32.49685 28.53294,-32.49685z" fill="#000000"/></g><g><path d="M211.1324,130.92606c-14.93938,9.6305 -48.83682,32.69889 -60.66424,36.94724c-17.44152,6.26489 -10.02081,-9.70969 -11.85796,-17.51664c-1.36989,-5.82142 -11.94409,-11.57349 -3.09587,-22.0313c11.06464,-13.07739 43.9112,-31.59983 64.45367,-44.84228c36.96994,-23.83225 47.69008,-20.11826 50.77302,-7.01728c3.08296,13.101 -2.63871,30.62803 -39.60864,54.46028z" fill="#464646"/><path d="M238.4184,51.2661c4.17706,-3.25676 22.73326,-20.53285 26.70514,-12.44509c3.59026,7.31073 15.87125,19.53954 13.23079,33.88027c-2.45883,13.35432 -19.59764,29.01634 -23.11366,31.75769c-11.46885,8.94201 -24.53197,4.28324 -29.17729,-10.40558c-0.95123,-3.00781 -6.96669,-14.34481 -6.53581,-27.54184c0.46967,-14.38556 22.41878,-33.44093 24.75971,-32.53556c11.87667,4.59341 -12.42929,22.40512 -5.8689,17.29012z" fill="#090909"/></g><path d="M209.22211,136.80465l-11.7346,8.57117l-15.78771,-58.50126l11.73459,-8.57114z" fill="#000000"/><path d="M230.45873,127.65234l-11.73459,8.57114l-15.78769,-58.50127l11.73459,-8.57114z" fill="#000000"/></g><path d="M309.70614,124.38512c-0.95211,24.57695 -14.17847,43.91763 -29.54192,43.19857c-15.36343,-0.71906 -27.04611,-21.22558 -26.09399,-45.80255c0.95211,-24.57695 14.17847,-43.91763 29.54192,-43.19857c15.36343,0.71906 27.04611,21.22558 26.09399,45.80255z" fill="url(#color-2)"/><path d="M289.31608,142.58968c-0.95211,24.57695 -14.17847,43.91763 -29.54192,43.19857c-15.36343,-0.71906 -27.04611,-21.22558 -26.09399,-45.80255c0.95211,-24.57695 14.17847,-43.91763 29.54192,-43.19857c15.36343,0.71906 27.04611,21.22558 26.09399,45.80255z" fill="url(#color-3)"/><path d="M267.1014,157.17028c-0.95211,24.57695 -14.17847,43.91763 -29.54192,43.19857c-15.36343,-0.71906 -27.04611,-21.22558 -26.09399,-45.80255c0.95211,-24.57695 14.17847,-43.91763 29.54192,-43.19857c15.36343,0.71906 27.04611,21.22558 26.09399,45.80255z" fill="url(#color-4)"/></g><path d="M727.00001,-13.5v387h-328.65871c0.01919,-0.02539 0.03833,-0.05081 0.05742,-0.07627c2.14978,-2.86621 4.57424,-5.41616 5.44946,-8.91445c0.78075,-3.12068 3.62243,-6.05614 5.11075,-9.00134c0.98629,-1.98328 3.54109,-3.78121 5.11015,-5.35062c0.60758,-0.60772 1.29476,-1.63005 2.13692,-1.82544c3.42266,-0.86891 6.94816,-0.91609 10.23928,-2.01245c3.36259,-1.12017 6.57833,-2.12521 10.06942,-2.74901c0.63855,-0.1141 2.05048,-0.10213 2.56612,-0.48516c1.57662,-1.17114 2.79249,-5.44173 3.69575,-7.22065c1.55863,-3.07588 2.50599,-6.61714 3.70063,-9.85381c1.2258,-3.32108 2.50114,-6.44995 4.06973,-9.62877c1.54862,-3.13834 3.11227,-6.269 4.67734,-9.39917c1.10828,-2.21658 2.1039,-3.8926 3.81525,-5.68951c0.75327,-0.79093 2.09198,-1.73153 2.14966,-2.83879c0.01478,-0.62663 -0.19924,-1.84344 0.03929,-2.40788c0.65922,-1.55992 3.18067,-2.3466 3.85247,-3.92449c0.27329,-0.64189 0.07187,-1.8874 0.09219,-2.58965c0.08225,-2.84229 1.04971,-8.09643 -0.51231,-10.47959c-1.89417,-2.88991 -4.07355,-5.73857 -5.65103,-8.81217c-1.62494,-3.16609 -2.56216,-6.37369 -3.57447,-9.781c-0.90977,-3.00587 -0.18519,-7.26258 -0.18527,-10.40778c-0.00008,-3.45466 1.06911,-6.88031 1.8037,-10.25194c0.28319,-1.31413 -0.31976,-3.24406 0.17035,-4.44667c0.58665,-1.43949 2.9785,-3.14213 4.06148,-4.29348c2.38373,-2.53422 2.53326,-6.33717 3.37299,-9.75207c0.8302,-3.37618 0.5846,-7.02688 0.58616,-10.50109c0.00155,-3.5 0.00309,-7 0.00464,-10.5c0.00133,-3.01861 -3.57292,-6.45934 -4.72457,-9.31824c-1.32085,-3.27892 -3.078,-6.27084 -4.80806,-9.35067c-1.57994,-2.81258 -2.98265,-6.58345 -3.66061,-9.73745c-0.73553,-3.42184 -1.47107,-6.84368 -2.2066,-10.26552c-0.73611,-3.42453 -0.53934,-6.89506 -0.55452,-10.39264c-0.01519,-3.49953 -0.04312,-6.99928 -0.04344,-10.49884c-0.00032,-3.5 -0.00065,-7 -0.00097,-10.5c-0.00032,-3.49999 -0.00059,-6.99998 -0.00059,-10.49998c0,-3.57655 0.71017,-6.80113 1.45555,-10.29364c0.73875,-3.46143 0.53678,-6.9634 0.54427,-10.49683c0.00005,-3.50009 0.00011,-7.00018 0.00016,-10.50026c-0.02298,-3.18094 -2.53477,-6.86901 -3.34359,-9.9832c-0.87983,-3.38761 -1.75967,-6.77522 -2.6395,-10.16283c-0.87983,-3.38761 -1.75967,-6.77522 -2.6395,-10.16283c-0.88141,-3.39367 -1.67239,-6.77422 -2.36013,-10.21245c-0.68649,-3.43202 -1.37298,-6.86403 -2.05948,-10.29605c-0.60323,-3.01577 -0.67122,-7.69618 -2.2556,-10.31358c-1.83391,-2.98107 -3.66782,-5.96214 -5.50174,-8.9432c-1.8373,-2.98658 -3.75794,-5.90741 -5.69906,-8.82742c-2.01239,-3.01409 -4.55697,-4.93273 -6.24765,-8.26639c-0.95611,-1.88523 -1.35742,-3.52797 -1.73672,-5.60453c-0.10928,-0.59825 -0.11349,-2.12201 -0.50571,-2.57751c-0.31498,-0.36581 -1.53785,-0.56254 -2.00077,-0.72096c-2.3311,-0.79772 -3.78087,-2.43551 -5.90889,-3.56067c-0.98436,-0.52047 -2.31661,-0.54011 -3.13112,-1.32376c-0.3093,-0.2908 -0.63245,-0.63443 -0.96666,-0.99728z" fill="url(#color-5)" stroke="url(#color-6)" stroke-width="0"/><path d="M-7,373.5v-387h361.70445c-0.37296,0.47761 -0.72669,0.94145 -1.03926,1.38857c-2.00534,2.86855 -4.01068,5.73711 -6.01602,8.60566c-2.00534,2.86855 -4.01068,5.73711 -6.01602,8.60566c-2.0048,2.86778 -4.13674,5.63399 -6.25629,8.41775c-2.12026,2.78469 -4.24052,5.56938 -6.36078,8.35407c-2.10586,2.76578 -4.08295,5.69193 -6.54044,8.15279c-2.47318,2.47657 -4.94636,4.95313 -7.41954,7.4297c-2.47429,2.47767 -4.97451,4.9316 -7.39008,7.46663c-2.41445,2.53386 -4.8289,5.06771 -7.24335,7.60157c-2.41445,2.53386 -4.8289,5.06771 -7.24335,7.60157c-2.45097,2.57218 -4.85648,4.90312 -7.65322,7.09659c-3.05346,2.39482 -4.87697,4.39744 -8.84726,4.40051c-3.05759,0.00238 -6.0013,4.22882 -8.12532,6.35161c-2.47559,2.47416 -4.95118,4.94831 -7.42677,7.42247c-2.47807,2.47664 -4.95315,4.95026 -7.36742,7.48926c-2.41179,2.53639 -4.82358,5.07278 -7.23537,7.60917c-2.41179,2.53639 -4.82358,5.07278 -7.23537,7.60917c-1.91049,2.00919 -4.50948,6.67248 -7.0683,7.45235c-2.62222,2.41376 -5.18185,4.63028 -8.07036,6.72461c-2.92718,2.12236 -5.24677,4.49025 -7.71251,7.12857c-2.38983,2.55709 -4.77965,5.11419 -7.16948,7.67128c-0.68166,0.72937 -1.48579,2.00639 -2.33525,2.51309c-0.93318,0.55665 -3.22694,0.22951 -3.93242,1.06858c-0.422,0.50191 -0.2535,2.4664 -0.30927,3.12937c-0.29342,3.48768 -0.58684,6.97536 -0.88026,10.46304c-0.29342,3.48768 -0.58684,6.97536 -0.88026,10.46304c-0.29231,3.47446 -1.05106,6.90479 -1.66736,10.33583c-0.61878,3.44487 -1.23756,6.88974 -1.85633,10.3346c-0.61878,3.44487 -1.23756,6.88974 -1.85633,10.3346c-0.61878,3.44487 -1.23756,6.88974 -1.85633,10.3346c-0.61878,3.44487 -1.23756,6.88974 -1.85633,10.3346c-0.61878,3.44487 -1.23756,6.88974 -1.85633,10.3346c-0.61878,3.44487 -1.23756,6.88974 -1.85633,10.3346c-0.61878,3.44487 -1.23756,6.88974 -1.85633,10.3346c-0.61859,3.44384 -1.22033,6.89107 -1.87834,10.32761c-0.6582,3.43755 -1.31639,6.87511 -1.97459,10.31266c-0.6582,3.43755 -1.31639,6.87511 -1.97459,10.31266c-0.6582,3.43755 -1.31639,6.87511 -1.97459,10.31266c-0.6582,3.43755 -1.31639,6.87511 -1.97459,10.31266c-0.66868,3.49231 -0.82818,6.91566 -0.99908,10.46444c-0.16835,3.49595 -0.33671,6.9919 -0.50506,10.48785c-0.16889,3.50716 -0.21867,6.99556 -0.22138,10.50662c-0.0027,3.5 -0.00541,7 -0.00811,10.5c-0.0027,3.50003 -0.00541,7.00006 -0.00811,10.50009c-0.0001,1.53128 -0.36516,3.58173 0.00725,5.06113c0.4091,1.62513 1.83001,3.41996 2.62659,4.90166c1.65687,3.08192 3.2652,6.18931 4.88439,9.29117c0.48965,0.93802 0.97931,1.87605 1.46896,2.81407z" fill="url(#color-7)" stroke="url(#color-8)" stroke-width="0"/><g stroke="none"><g fill="none" stroke-width="1" font-family="sans-serif" font-weight="normal" font-size="12" text-anchor="start"/><g stroke-width="0"><path d="M-5.24205,376.25325v-390.39039h155.90105v390.39039z" fill="url(#color-9)"/><path d="M571.60646,373.00998v-390.39039h155.90105v390.39039z" fill="url(#color-10)"/><path d="M-6.53232,110.48749v-127.62762h733.55954v127.62763z" fill="url(#color-11)"/><path d="M726.05206,249.75279v127.62762h-733.55954v-127.62762z" fill="url(#color-12)"/></g></g><path d="M85.70137,156c0,-99.41125 80.58875,-180 180,-180c99.41125,0 180,80.58875 180,180c0,99.41125 -80.58875,180 -180,180c-99.41125,0 -180,-80.58875 -180,-180z" fill="url(#color-13)" stroke="#000000" stroke-width="0"/></g></g></svg>