<svg version="1.1" xmlns="http://www.w3.org/2000/svg" xmlns:xlink="http://www.w3.org/1999/xlink" width="827.82282" height="395.13514" viewBox="0,0,827.82282,395.13514"><defs><linearGradient x1="319.0123" y1="-7.68705" x2="319.0123" y2="115.68705" gradientUnits="userSpaceOnUse" id="color-1"><stop offset="0" stop-color="#323232"/><stop offset="1" stop-color="#121212"/></linearGradient><linearGradient x1="318.42521" y1="244.31295" x2="318.42521" y2="367.68705" gradientUnits="userSpaceOnUse" id="color-2"><stop offset="0" stop-color="#121212"/><stop offset="1" stop-color="#323232"/></linearGradient><linearGradient x1="661.72732" y1="179.68705" x2="428.71021" y2="179.68705" gradientUnits="userSpaceOnUse" id="color-3"><stop offset="0" stop-color="#505050"/><stop offset="1" stop-color="#252525"/></linearGradient><linearGradient x1="281.7102" y1="179.68705" x2="-11.2898" y2="179.68705" gradientUnits="userSpaceOnUse" id="color-4"><stop offset="0" stop-color="#252525"/><stop offset="1" stop-color="#505050"/></linearGradient><linearGradient x1="323.5" y1="186.68705" x2="-27.33332" y2="186.68705" gradientUnits="userSpaceOnUse" id="color-5"><stop offset="0" stop-color="#333333"/><stop offset="1" stop-color="#909090"/></linearGradient><linearGradient x1="661.72732" y1="186.68705" x2="373.33334" y2="186.68705" gradientUnits="userSpaceOnUse" id="color-6"><stop offset="0" stop-color="#909090"/><stop offset="1" stop-color="#333333"/></linearGradient><radialGradient cx="348.41667" cy="180" r="90" gradientUnits="userSpaceOnUse" id="color-7"><stop offset="0" stop-color="#000000"/><stop offset="1" stop-color="#000000" stop-opacity="0"/></radialGradient><linearGradient x1="324.83333" y1="179.95833" x2="311.58333" y2="179.95833" gradientUnits="userSpaceOnUse" id="color-8"><stop offset="0" stop-color="#000000"/><stop offset="1" stop-color="#000000" stop-opacity="0"/></linearGradient><linearGradient x1="371.83333" y1="179.95833" x2="385.08334" y2="179.95833" gradientUnits="userSpaceOnUse" id="color-9"><stop offset="0" stop-color="#000000"/><stop offset="1" stop-color="#000000" stop-opacity="0"/></linearGradient><linearGradient x1="348.20833" y1="204.375" x2="348.20833" y2="211.625" gradientUnits="userSpaceOnUse" id="color-10"><stop offset="0" stop-color="#000000"/><stop offset="1" stop-color="#000000" stop-opacity="0"/></linearGradient><linearGradient x1="347.29167" y1="155.45833" x2="347.29167" y2="148.20833" gradientUnits="userSpaceOnUse" id="color-11"><stop offset="0" stop-color="#000000"/><stop offset="1" stop-color="#000000" stop-opacity="0"/></linearGradient><radialGradient cx="360" cy="179.99998" r="362.61261" gradientUnits="userSpaceOnUse" id="color-12"><stop offset="0" stop-color="#000000" stop-opacity="0.83922"/><stop offset="1" stop-color="#000000" stop-opacity="0"/></radialGradient><radialGradient cx="360" cy="179.99998" r="362.61262" gradientUnits="userSpaceOnUse" id="color-13"><stop offset="0" stop-color="#000000" stop-opacity="0"/><stop offset="1" stop-color="#000000"/></radialGradient><linearGradient x1="-24.94568" y1="183.24325" x2="139.36573" y2="183.24325" gradientUnits="userSpaceOnUse" id="color-14"><stop offset="0" stop-color="#000000"/><stop offset="1" stop-color="#000000" stop-opacity="0"/></linearGradient><linearGradient x1="747.33333" y1="180" x2="583.02192" y2="180" gradientUnits="userSpaceOnUse" id="color-15"><stop offset="0" stop-color="#000000"/><stop offset="1" stop-color="#000000" stop-opacity="0"/></linearGradient><linearGradient x1="360.26077" y1="-14.95495" x2="360.26077" y2="112.67268" gradientUnits="userSpaceOnUse" id="color-16"><stop offset="0" stop-color="#000000"/><stop offset="1" stop-color="#000000" stop-opacity="0"/></linearGradient><linearGradient x1="359.233" y1="379.56562" x2="359.233" y2="251.93799" gradientUnits="userSpaceOnUse" id="color-17"><stop offset="0" stop-color="#000000"/><stop offset="1" stop-color="#000000" stop-opacity="0"/></linearGradient></defs><g transform="translate(53.37012,15.1952)"><g data-paper-data="{&quot;isPaintingLayer&quot;:true}" fill-rule="nonzero" stroke-linecap="butt" stroke-linejoin="miter" stroke-miterlimit="10" stroke-dasharray="" stroke-dashoffset="0" style="mix-blend-mode: normal"><path d="M309.37762,217.53754v-75.07508h78.07808v75.07508z" fill="#000000" stroke="#000000" stroke-width="0"/><g stroke-width="0"><path d="M204.44645,155.15699v-47.65733h288.1672v47.65733z" fill="#121212" stroke="#000000"/><path d="M204.21968,252.50034v-47.65733h288.1672v47.65733z" fill="#121212" stroke="#000000"/><path d="M373.25217,204.79437l0.38628,-49.63738l113.95352,-44.80884v139.06192z" fill="#252525" stroke="none"/><path d="M323.80794,154.96385l-0.38628,49.63738l-113.95352,44.80884v-139.06192z" fill="#252525" stroke="none"/></g><path d="M-24.2898,115.68705v-123.3741h686.6042v123.3741z" fill="url(#color-1)" stroke="#000000" stroke-width="0"/><path d="M-24.87689,367.68705v-123.3741h686.6042v123.3741z" fill="url(#color-2)" stroke="#000000" stroke-width="0"/><path d="M432.87122,228.18705l-4.16102,-94l233.01711,-134.5v360z" fill="url(#color-3)" stroke="none" stroke-width="0"/><path d="M281.7102,139.18705l-11.5,87l-281.5,133.5v-360z" fill="url(#color-4)" stroke="none" stroke-width="0"/><path d="M-27.33333,299.18706v-225l350.83334,98.66666v15z" fill="url(#color-5)" stroke="#000000" stroke-width="0"/><g stroke="#000000" stroke-width="0"><path d="M348.91667,66.43865c-19.88225,0 -36.5,-10.51224 -36.5,-16.69516c0,-6.18292 16.11775,-11.19516 36,-11.19516c19.88225,0 36,5.01224 36,11.19516c0,6.18292 -15.61775,16.69516 -35.5,16.69516z" fill="#181818"/><path d="M348.82751,69.45166c-16.33644,0 -29.99058,-8.63749 -29.99058,-13.71774c0,-5.08025 13.2433,-9.19861 29.57975,-9.19861c16.33644,0 29.57975,4.11836 29.57975,9.19861c0,5.08025 -12.83247,13.71774 -29.16892,13.71774z" fill="#404040"/></g><path d="M659.66667,366.68705v-372.37237h76v372.37237z" fill="#505050" stroke="#000000" stroke-width="0"/><path d="M373.33333,187.85372v-15l288.39398,-98.66667v225z" fill="url(#color-6)" stroke="#000000" stroke-width="0"/><path d="M660.89397,299.36391v-225.17686l86.43936,0.5v224.17686z" fill="#909090" stroke="#000000" stroke-width="0"/><path d="M258.41666,270v-180h180v180z" fill="url(#color-7)" stroke="#000000" stroke-width="0"/><path d="M307.08333,210.70833l-0.25,-62.25l18,7v49z" fill="url(#color-8)" stroke="#000000" stroke-width="0"/><path d="M371.83334,204.45833v-49l18,-7l-0.25,62.25z" fill="url(#color-9)" stroke="#000000" stroke-width="0"/><path d="M299.83334,213.125l22,-8.75h52.75l24.25,10.75z" fill="url(#color-10)" stroke="#000000" stroke-width="0"/><path d="M397.91667,144.70833l-24.25,10.75h-52.75l-22,-8.75z" fill="url(#color-11)" stroke="#000000" stroke-width="0"/><g stroke="#000000" stroke-width="0"><path d="M348.67072,133.14424c-10.10221,0 -18.54572,-5.34129 -18.54572,-8.48284c0,-3.14155 8.18945,-5.68828 18.29166,-5.68828c10.10221,0 18.29167,2.54673 18.29167,5.68828c0,3.14155 -7.9354,8.48284 -18.03761,8.48284z" fill="#060606"/><path d="M363.44621,127.70514c0,2.58129 -6.5202,6.97001 -14.82078,6.97001c-8.30058,0 -15.23827,-4.38873 -15.23827,-6.97001c0,-2.58128 6.72894,-4.67383 15.02952,-4.67383c8.30057,0 15.02952,2.09255 15.02952,4.67383z" fill="#272727"/></g><g stroke="#000000" stroke-width="0"><path d="M-2.61262,366.18619v-372.37237h725.22523v372.37237z" fill="url(#color-12)"/><path d="M-2.61261,366.18619v-372.37237h725.22523v372.37237z" fill="url(#color-13)"/></g><g stroke="none" stroke-width="0"><path d="M-24.94568,378.43844v-390.39039h164.3114v390.39039z" fill="url(#color-14)"/><path d="M583.02192,375.19519v-390.39039h164.3114v390.39039z" data-paper-data="{&quot;index&quot;:null}" fill="url(#color-15)"/><path d="M-26.30556,112.67268v-127.62762h773.13267v127.62763z" fill="url(#color-16)"/><path d="M745.79933,251.93799v127.62762h-773.13267v-127.62762z" data-paper-data="{&quot;index&quot;:null}" fill="url(#color-17)"/></g><path d="M-53.37012,379.93994v-394.89489h28.52853v394.89489z" fill="#000000" stroke="none" stroke-width="0"/><path d="M745.92417,379.71842v-394.89489h28.52853v394.89489z" fill="#000000" stroke="none" stroke-width="0"/><path d="M129.51952,297.11712v-184.68468l64.56456,24.02402v129.12913z" fill="#000000" stroke="none" stroke-width="none"/><path d="M427.17898,230.03369v-73.83457l36.58333,-13.73666v105.6006z" data-paper-data="{&quot;index&quot;:null}" fill="#000000" stroke="none" stroke-width="none"/></g></g></svg>