<svg version="1.1" xmlns="http://www.w3.org/2000/svg" xmlns:xlink="http://www.w3.org/1999/xlink" width="751" height="420" viewBox="0,0,751,420"><defs><radialGradient cx="360" cy="177.81483" r="367.5075" gradientUnits="userSpaceOnUse" id="color-1"><stop offset="0" stop-color="#000000" stop-opacity="0.83922"/><stop offset="1" stop-color="#000000" stop-opacity="0"/></radialGradient><radialGradient cx="360" cy="177.81483" r="367.50751" gradientUnits="userSpaceOnUse" id="color-2"><stop offset="0" stop-color="#000000" stop-opacity="0"/><stop offset="1" stop-color="#000000"/></radialGradient><linearGradient x1="-5.24206" y1="181.0581" x2="150.659" y2="181.0581" gradientUnits="userSpaceOnUse" id="color-3"><stop offset="0" stop-color="#000000"/><stop offset="1" stop-color="#000000" stop-opacity="0"/></linearGradient><linearGradient x1="727.50752" y1="177.81485" x2="571.60646" y2="177.81485" gradientUnits="userSpaceOnUse" id="color-4"><stop offset="0" stop-color="#000000"/><stop offset="1" stop-color="#000000" stop-opacity="0"/></linearGradient><linearGradient x1="360.24743" y1="-17.14012" x2="360.24743" y2="110.48753" gradientUnits="userSpaceOnUse" id="color-5"><stop offset="0" stop-color="#000000"/><stop offset="1" stop-color="#000000" stop-opacity="0"/></linearGradient><linearGradient x1="359.27227" y1="377.38047" x2="359.27227" y2="249.75283" gradientUnits="userSpaceOnUse" id="color-6"><stop offset="0" stop-color="#000000"/><stop offset="1" stop-color="#000000" stop-opacity="0"/></linearGradient></defs><g transform="translate(15.5,30)"><g data-paper-data="{&quot;isPaintingLayer&quot;:true}" fill-rule="nonzero" stroke-width="0" stroke-linecap="butt" stroke-linejoin="miter" stroke-miterlimit="10" stroke-dasharray="" stroke-dashoffset="0" style="mix-blend-mode: normal"><path d="M-7.11712,370.42353v-384.38438h732.73273v384.38438z" fill="#07010e" stroke="none"/><path d="M-15.5,30v-60h751v60z" fill="#000000" stroke-opacity="0.50196" stroke="#0d0d0d"/><path d="M-15.5,390v-60h751v60z" fill="#000000" stroke-opacity="0.50196" stroke="#0d0d0d"/><g><g stroke="#000000"><path d="M-7.50751,364.00104v-372.37237h735.015v372.37237z" fill="url(#color-1)"/><path d="M-7.5075,364.00104v-372.37237h735.015v372.37237z" fill="url(#color-2)"/></g><g stroke="none"><path d="M-5.24206,376.25329v-390.39039h155.90105v390.39039z" fill="url(#color-3)"/><path d="M571.60646,373.01003v-390.39039h155.90105v390.39039z" fill="url(#color-4)"/><path d="M-6.53233,110.48753v-127.62762h733.55954v127.62763z" fill="url(#color-5)"/><path d="M726.05204,249.75283v127.62762h-733.55954v-127.62762z" fill="url(#color-6)"/></g></g></g></g></svg>