<svg version="1.1" xmlns="http://www.w3.org/2000/svg" xmlns:xlink="http://www.w3.org/1999/xlink" width="559.68625" height="405.18245" viewBox="0,0,559.68625,405.18245"><defs><linearGradient x1="139.0969" y1="261.66856" x2="118.49196" y2="259.97684" gradientUnits="userSpaceOnUse" id="color-1"><stop offset="0" stop-color="#000000" stop-opacity="0.2419"/><stop offset="1" stop-color="#e64e3d"/></linearGradient><radialGradient cx="116.71569" cy="245.08394" r="14.23101" gradientUnits="userSpaceOnUse" id="color-2"><stop offset="0" stop-color="#ffffff" stop-opacity="0.2903"/><stop offset="1" stop-color="#ffffff" stop-opacity="0"/></radialGradient><radialGradient cx="116.85179" cy="251.64937" r="5.15616" gradientUnits="userSpaceOnUse" id="color-3"><stop offset="0" stop-color="#ffffff" stop-opacity="0.2903"/><stop offset="1" stop-color="#ffffff" stop-opacity="0"/></radialGradient><linearGradient x1="306.60685" y1="245.03103" x2="214.31467" y2="263.56638" gradientUnits="userSpaceOnUse" id="color-4"><stop offset="0" stop-color="#000000" stop-opacity="0"/><stop offset="1" stop-color="#000000" stop-opacity="0.31124"/></linearGradient><linearGradient x1="147.63982" y1="262.12891" x2="125.64646" y2="260.32321" gradientUnits="userSpaceOnUse" id="color-5"><stop offset="0" stop-color="#000000" stop-opacity="0"/><stop offset="1" stop-color="#000000" stop-opacity="0.22249"/></linearGradient><linearGradient x1="582.34531" y1="256.40321" x2="602.9325" y2="254.50776" gradientUnits="userSpaceOnUse" id="color-6"><stop offset="0" stop-color="#000000" stop-opacity="0.2419"/><stop offset="1" stop-color="#e64e3d"/></linearGradient><radialGradient cx="604.56136" cy="239.59803" r="14.23101" gradientUnits="userSpaceOnUse" id="color-7"><stop offset="0" stop-color="#ffffff" stop-opacity="0.2903"/><stop offset="1" stop-color="#ffffff" stop-opacity="0"/></radialGradient><radialGradient cx="604.49022" cy="246.16447" r="5.15616" gradientUnits="userSpaceOnUse" id="color-8"><stop offset="0" stop-color="#ffffff" stop-opacity="0.2903"/><stop offset="1" stop-color="#ffffff" stop-opacity="0"/></radialGradient><linearGradient x1="414.67895" y1="241.42349" x2="507.14999" y2="259.045" gradientUnits="userSpaceOnUse" id="color-9"><stop offset="0" stop-color="#000000" stop-opacity="0"/><stop offset="1" stop-color="#000000" stop-opacity="0.31124"/></linearGradient><linearGradient x1="573.80734" y1="256.94807" x2="595.78179" y2="254.9249" gradientUnits="userSpaceOnUse" id="color-10"><stop offset="0" stop-color="#000000" stop-opacity="0"/><stop offset="1" stop-color="#000000" stop-opacity="0.22249"/></linearGradient><linearGradient x1="360.93027" y1="231.97473" x2="360.93027" y2="389.16717" gradientUnits="userSpaceOnUse" id="color-11"><stop offset="0" stop-color="#000000" stop-opacity="0"/><stop offset="1" stop-color="#000000" stop-opacity="0.31124"/></linearGradient><radialGradient cx="357.73686" cy="195.95518" r="24.24947" gradientUnits="userSpaceOnUse" id="color-12"><stop offset="0" stop-color="#5a5a5a"/><stop offset="1" stop-color="#272727"/></radialGradient><linearGradient x1="357.73686" y1="185.85124" x2="357.73686" y2="213.09835" gradientUnits="userSpaceOnUse" id="color-13"><stop offset="0" stop-color="#000000"/><stop offset="1" stop-color="#000000" stop-opacity="0"/></linearGradient><linearGradient x1="401.08854" y1="223.7556" x2="397.09785" y2="248.58642" gradientUnits="userSpaceOnUse" id="color-14"><stop offset="0" stop-color="#4a4323" stop-opacity="0"/><stop offset="1" stop-color="#4a4323" stop-opacity="0.56131"/></linearGradient><linearGradient x1="393.52886" y1="199.73817" x2="394.81925" y2="224.56257" gradientUnits="userSpaceOnUse" id="color-15"><stop offset="0" stop-color="#ffffff" stop-opacity="0.33869"/><stop offset="1" stop-color="#ffffff" stop-opacity="0"/></linearGradient><linearGradient x1="316.69935" y1="226.98732" x2="323.24832" y2="251.3725" gradientUnits="userSpaceOnUse" id="color-16"><stop offset="0" stop-color="#4a4323" stop-opacity="0"/><stop offset="1" stop-color="#4a4323" stop-opacity="0.56131"/></linearGradient><linearGradient x1="321.73449" y1="202.43734" x2="323.02486" y2="227.26175" gradientUnits="userSpaceOnUse" id="color-17"><stop offset="0" stop-color="#ffffff" stop-opacity="0.33869"/><stop offset="1" stop-color="#ffffff" stop-opacity="0"/></linearGradient><linearGradient x1="364.08657" y1="304.03926" x2="364.08657" y2="208.07355" gradientUnits="userSpaceOnUse" id="color-18"><stop offset="0" stop-color="#000000" stop-opacity="0"/><stop offset="1" stop-color="#000000" stop-opacity="0.20735"/></linearGradient><linearGradient x1="364.08657" y1="197.05046" x2="364.08657" y2="222.98715" gradientUnits="userSpaceOnUse" id="color-19"><stop offset="0" stop-color="#000000" stop-opacity="0"/><stop offset="1" stop-color="#000000" stop-opacity="0.52899"/></linearGradient><linearGradient x1="363.67526" y1="159.79307" x2="363.67526" y2="169.73193" gradientUnits="userSpaceOnUse" id="color-20"><stop offset="0" stop-color="#0b0403" stop-opacity="0.1902"/><stop offset="1" stop-color="#0b0403" stop-opacity="0"/></linearGradient><radialGradient cx="384.93139" cy="148.00231" r="21.92859" gradientUnits="userSpaceOnUse" id="color-21"><stop offset="0" stop-color="#4c0000" stop-opacity="0.33528"/><stop offset="1" stop-color="#4c0000" stop-opacity="0"/></radialGradient><radialGradient cx="367.84077" cy="147.78608" r="21.92859" gradientUnits="userSpaceOnUse" id="color-22"><stop offset="0" stop-color="#4c0000" stop-opacity="0.33528"/><stop offset="1" stop-color="#4c0000" stop-opacity="0"/></radialGradient><linearGradient x1="389.68153" y1="147.94484" x2="389.68153" y2="156.5119" gradientUnits="userSpaceOnUse" id="color-23"><stop offset="0" stop-color="#4a4323" stop-opacity="0"/><stop offset="1" stop-color="#4a4323" stop-opacity="0.56131"/></linearGradient><radialGradient cx="348.17339" cy="149.21319" r="21.92859" gradientUnits="userSpaceOnUse" id="color-24"><stop offset="0" stop-color="#4c0000" stop-opacity="0.33528"/><stop offset="1" stop-color="#4c0000" stop-opacity="0"/></radialGradient><linearGradient x1="345.2638" y1="147.94484" x2="345.2638" y2="156.5119" gradientUnits="userSpaceOnUse" id="color-25"><stop offset="0" stop-color="#4a4323" stop-opacity="0"/><stop offset="1" stop-color="#4a4323" stop-opacity="0.56131"/></linearGradient><radialGradient cx="396.47023" cy="105.98336" r="35.52826" gradientUnits="userSpaceOnUse" id="color-26"><stop offset="0" stop-color="#000000"/><stop offset="1" stop-color="#000000" stop-opacity="0"/></radialGradient><linearGradient x1="418.83267" y1="108.46212" x2="375.94387" y2="108.46212" gradientUnits="userSpaceOnUse" id="color-27"><stop offset="0" stop-color="#272727" stop-opacity="0.21436"/><stop offset="1" stop-color="#272727" stop-opacity="0"/></linearGradient><radialGradient cx="328.02035" cy="105.98336" r="35.52826" gradientUnits="userSpaceOnUse" id="color-28"><stop offset="0" stop-color="#000000"/><stop offset="1" stop-color="#000000" stop-opacity="0"/></radialGradient><linearGradient x1="305.65792" y1="108.46212" x2="348.54668" y2="108.46212" gradientUnits="userSpaceOnUse" id="color-29"><stop offset="0" stop-color="#272727" stop-opacity="0.21436"/><stop offset="1" stop-color="#272727" stop-opacity="0"/></linearGradient><radialGradient cx="358.32211" cy="119.54554" r="81.10301" gradientUnits="userSpaceOnUse" id="color-30"><stop offset="0" stop-color="#240c0a" stop-opacity="0"/><stop offset="1" stop-color="#240c0a" stop-opacity="0.2177"/></radialGradient><radialGradient cx="419.77961" cy="165.286" r="17.85314" gradientUnits="userSpaceOnUse" id="color-31"><stop offset="0" stop-color="#240c0a" stop-opacity="0.19023"/><stop offset="1" stop-color="#240c0a" stop-opacity="0"/></radialGradient><radialGradient cx="406.15972" cy="180.35474" r="13.70486" gradientUnits="userSpaceOnUse" id="color-32"><stop offset="0" stop-color="#240c0a" stop-opacity="0.19023"/><stop offset="1" stop-color="#240c0a" stop-opacity="0"/></radialGradient><radialGradient cx="291.31071" cy="89.80065" r="13.70486" gradientUnits="userSpaceOnUse" id="color-33"><stop offset="0" stop-color="#240c0a" stop-opacity="0.19023"/><stop offset="1" stop-color="#240c0a" stop-opacity="0"/></radialGradient><linearGradient x1="285.421" y1="88.71996" x2="285.421" y2="120.00897" gradientUnits="userSpaceOnUse" id="color-34"><stop offset="0" stop-color="#ffffff" stop-opacity="0.29832"/><stop offset="1" stop-color="#ffffff" stop-opacity="0"/></linearGradient><linearGradient x1="283.30153" y1="120.68557" x2="285.33184" y2="139.833" gradientUnits="userSpaceOnUse" id="color-35"><stop offset="0" stop-color="#ffffff" stop-opacity="0.16109"/><stop offset="1" stop-color="#ffffff" stop-opacity="0"/></linearGradient><radialGradient cx="396.08596" cy="48.96418" r="45.72304" gradientUnits="userSpaceOnUse" id="color-36"><stop offset="0" stop-color="#4c0000" stop-opacity="0.33528"/><stop offset="1" stop-color="#4c0000" stop-opacity="0"/></radialGradient><radialGradient cx="361.84835" cy="39.06486" r="45.72304" gradientUnits="userSpaceOnUse" id="color-37"><stop offset="0" stop-color="#4c0000" stop-opacity="0.33528"/><stop offset="1" stop-color="#4c0000" stop-opacity="0"/></radialGradient><linearGradient x1="405.68303" y1="51.41719" x2="399.77151" y2="73.15684" gradientUnits="userSpaceOnUse" id="color-38"><stop offset="0" stop-color="#4a4323" stop-opacity="0"/><stop offset="1" stop-color="#4a4323" stop-opacity="0.56131"/></linearGradient><linearGradient x1="398.61883" y1="29.96405" x2="398.61883" y2="51.89487" gradientUnits="userSpaceOnUse" id="color-39"><stop offset="0" stop-color="#ffffff" stop-opacity="0.33869"/><stop offset="1" stop-color="#ffffff" stop-opacity="0"/></linearGradient><linearGradient x1="314.43584" y1="50.39972" x2="320.1608" y2="72.18925" gradientUnits="userSpaceOnUse" id="color-40"><stop offset="0" stop-color="#4a4323" stop-opacity="0"/><stop offset="1" stop-color="#4a4323" stop-opacity="0.56131"/></linearGradient><linearGradient x1="330.51921" y1="29.96405" x2="330.51921" y2="51.89487" gradientUnits="userSpaceOnUse" id="color-41"><stop offset="0" stop-color="#ffffff" stop-opacity="0.33869"/><stop offset="1" stop-color="#ffffff" stop-opacity="0"/></linearGradient><linearGradient x1="353.85138" y1="20.03201" x2="355.15919" y2="52.33818" gradientUnits="userSpaceOnUse" id="color-42"><stop offset="0" stop-color="#000000"/><stop offset="1" stop-color="#000000" stop-opacity="0"/></linearGradient><linearGradient x1="352.8306" y1="-12.58424" x2="354.74666" y2="34.74774" gradientUnits="userSpaceOnUse" id="color-43"><stop offset="0" stop-color="#000000" stop-opacity="0"/><stop offset="1" stop-color="#000000" stop-opacity="0.25803"/></linearGradient></defs><g transform="translate(-80.87381,16.01527)"><g stroke-miterlimit="10"><g stroke="#000000" stroke-width="0"><g><path d="M110.97912,278.47074c12.77583,-2.59007 13.65996,-0.59092 14.13074,2.0008c0.47078,2.59173 0.34991,4.79459 -12.42594,7.38463c-12.77585,2.59007 -14.66213,0.7941 -15.13289,-1.79762c-0.47078,-2.59172 0.65224,-4.99776 13.42807,-7.58781z" fill="#e64e3d"/><path d="M115.38273,240.76108c-0.21614,2.63246 -0.90084,4.7247 -13.85476,3.66115c-12.9539,-1.06353 -14.30432,-3.32281 -14.0882,-5.95532c0.21614,-2.63248 1.91694,-4.64128 14.87086,-3.57773c12.95389,1.06355 13.28821,3.23942 13.07207,5.87188z" fill="#e64e3d"/><path d="M110.40445,252.05635c-0.21614,2.63246 -0.90084,4.7247 -13.85476,3.66115c-12.9539,-1.06353 -14.30432,-3.32284 -14.0882,-5.9553c0.21614,-2.63248 1.91694,-4.64126 14.87086,-3.57773c12.95389,1.06355 13.28821,3.23942 13.07207,5.87188z" fill="#e64e3d"/><path d="M108.83661,262.92939c-0.21614,2.63246 -0.90084,4.7247 -13.85476,3.66115c-12.9539,-1.06353 -14.30432,-3.32284 -14.0882,-5.9553c0.21614,-2.63248 1.91694,-4.64126 14.87086,-3.57773c12.95389,1.06355 13.28821,3.23942 13.07207,5.87188z" fill="#e64e3d"/><path d="M111.68236,274.86705c-0.21614,2.63246 -0.90084,4.7247 -13.85476,3.66115c-12.9539,-1.06353 -14.30432,-3.32284 -14.0882,-5.9553c0.21614,-2.63248 1.91694,-4.64126 14.87086,-3.57773c12.95389,1.06355 13.28821,3.23942 13.07207,5.87188z" fill="#e64e3d"/><path d="M139.0969,261.66854c-1.10176,13.41918 -2.83865,24.2283 -24.29032,22.46711c-21.45169,-1.76123 -23.08496,-12.84706 -21.98322,-26.26623c1.10174,-13.41917 4.52131,-24.09016 25.97298,-22.32895c21.4517,1.76125 21.40229,12.7089 20.30057,26.1281z" fill="#e64e3d"/><path d="M139.0969,261.66855c-1.07202,13.0574 -2.74542,23.64357 -22.59788,22.58232c3.36235,-7.32174 5.53503,-15.37974 6.23668,-23.92561c0.70163,-8.54588 -0.12767,-16.85034 -2.2508,-24.62245c19.75973,2.19098 19.68404,12.90836 18.612,25.96576z" fill="url(#color-1)"/></g><g><path d="M117.30043,246.18534c-7.53106,-0.61831 -14.58464,2.20934 -14.22089,-2.22092c0.36373,-4.43026 6.76371,-7.52045 14.29474,-6.90214c7.53105,0.61831 13.34131,4.711 12.97756,9.14126c-0.36375,4.43026 -5.5204,0.60014 -13.05145,-0.01817z" fill="url(#color-2)"/><path d="M116.61319,254.55578c-3.33341,-0.27368 -5.92885,-1.7968 -5.79708,-3.40197c0.13178,-1.60517 2.94088,-2.68456 6.27431,-2.41089c3.33341,0.27368 5.92885,1.7968 5.79708,3.40197c-0.13178,1.60518 -2.94088,2.68456 -6.27431,2.41086z" fill="url(#color-3)"/></g></g><g stroke="#000000" stroke-width="0"><path d="M222.16081,280.85376c-7.35114,-0.9714 -11.44543,-35.27919 -7.69148,-37.27606c5.01019,-2.66514 83.75565,-22.96774 87.47097,-22.47678c8.11489,1.07234 14.30005,45.15224 8.30165,48.34303c-1.44013,0.76606 -81.97922,12.21614 -88.08113,11.40981z" fill="#603f3f"/><path d="M214.4693,243.57771c5.01019,-2.66514 83.75565,-22.96774 87.47097,-22.47678c0.12596,0.01664 0.25142,0.04363 0.37642,0.08068c-15.69702,5.34222 -37.35495,17.28759 -39.46268,26.73867c-0.57511,2.57891 1.25859,5.87778 2.67229,8.00862c1.94924,2.938 4.18268,5.45791 7.57336,7.76724c5.89299,4.01361 20.4729,7.75265 32.84527,6.548c-16.97648,2.7568 -78.48197,11.31026 -83.78412,10.60964c-7.35114,-0.9714 -11.44543,-35.27919 -7.69148,-37.27606z" fill="url(#color-4)"/></g><g stroke="#000000" stroke-width="0"><path d="M221.74137,280.95878c-5.91098,1.82726 -87.11379,4.12303 -88.64668,3.60963c-6.38474,-2.13841 -6.62812,-46.72329 1.23282,-49.15334c3.59908,-1.11258 84.30605,5.63874 89.63896,7.42488c3.99578,1.33829 4.896,35.91752 -2.2251,38.11886z" fill="#3b2727"/><g><path d="M165.99963,288.32035c0,0 -24.44107,4.83902 -37.10945,-3.62438c-3.53384,-2.36085 -4.99155,-48.46616 2.86939,-50.89623c0.43093,-0.13322 17.43496,-0.92163 16.65315,0.30435c-1.53027,2.39969 -0.28832,23.73389 2.4843,29.8992c8.0063,17.80319 15.10259,24.31708 15.10259,24.31708z" fill="#cbcbcb"/><path d="M128.89015,284.69599c-3.53384,-2.36085 -4.99155,-48.46616 2.86939,-50.89623c0.12755,-0.03943 1.70655,-0.13623 3.84653,-0.22124c-0.85022,3.54015 -1.44111,7.19517 -1.74889,10.94407c-1.36464,16.62106 3.06184,32.32895 11.53497,44.98319c-5.90123,-0.45021 -11.95867,-1.77454 -16.50197,-4.80982z" fill="url(#color-5)"/></g></g><g stroke="#000000" stroke-width="0"><g><path d="M610.62792,272.92643c12.80082,2.46355 13.94758,4.85836 13.50247,7.45463c-0.4451,2.59627 -2.31352,4.4108 -15.11435,1.94725c-12.80082,-2.46353 -12.94347,-4.66513 -12.49836,-7.26136c0.44511,-2.59626 1.30941,-4.60404 14.11024,-2.14047z" fill="#e64e3d"/><path d="M605.85151,235.2622c-0.24215,-2.6302 0.0706,-4.80929 13.01336,-6.00091c12.94275,-1.19162 14.66334,0.80023 14.90553,3.43044c0.24213,2.63021 -1.08582,4.90275 -14.02859,6.09437c-12.94276,1.19162 -13.64816,-0.89371 -13.89031,-3.52389z" fill="#e64e3d"/><path d="M623.95464,240.50676c12.94275,-1.19162 14.66338,0.80023 14.90553,3.43044c0.24213,2.63021 -1.08583,4.90275 -14.02859,6.09437c-12.94276,1.19162 -13.64812,-0.8937 -13.89031,-3.52391c-0.24215,-2.6302 0.07059,-4.80929 13.01336,-6.00091z" fill="#e64e3d"/><path d="M625.62997,251.36375c12.94275,-1.19162 14.66338,0.80023 14.90553,3.43044c0.24213,2.63021 -1.08583,4.90275 -14.02859,6.09437c-12.94276,1.19162 -13.64812,-0.8937 -13.89031,-3.52391c-0.24215,-2.6302 0.07059,-4.80929 13.01336,-6.00091z" fill="#e64e3d"/><path d="M622.90244,263.32899c12.94275,-1.19162 14.66338,0.80023 14.90553,3.43044c0.24213,2.63021 -1.08583,4.90275 -14.02859,6.09437c-12.94276,1.19162 -13.64812,-0.8937 -13.89031,-3.52391c-0.24215,-2.6302 0.07059,-4.80929 13.01336,-6.00091z" fill="#e64e3d"/><path d="M602.38643,230.07558c21.43321,-1.97333 24.95816,8.6633 26.1926,22.07094c1.23444,13.40764 -0.2891,24.50907 -21.72233,26.4824c-21.43321,1.97333 -23.2769,-8.81808 -24.51134,-22.2257c-1.23444,-13.40764 -1.39214,-24.3543 20.04109,-26.32763z" fill="#e64e3d"/><path d="M600.69956,230.25463c-2.04613,7.79275 -2.79324,16.10502 -2.00713,24.64355c0.78614,8.5385 3.03843,16.57464 6.47302,23.86274c-19.841,1.25758 -21.61901,-9.31152 -22.82014,-22.35769c-1.20113,-13.04617 -1.38284,-23.76226 18.35423,-26.1486z" fill="url(#color-6)"/></g><g><path d="M590.93694,240.85244c-0.40756,-4.42644 5.36195,-8.57639 12.88649,-9.26915c7.52456,-0.69277 13.9548,2.33395 14.36234,6.76039c0.40756,4.42644 -6.67368,1.66872 -14.19822,2.36148c-7.52457,0.69278 -12.6431,4.57373 -13.05064,0.1473z" fill="url(#color-7)"/><path d="M598.45974,246.71971c-0.14767,-1.60377 2.43259,-3.1525 5.76313,-3.45914c3.33052,-0.30664 6.15017,0.74489 6.29782,2.34871c0.14767,1.60377 -2.43259,3.15249 -5.76313,3.45912c-3.33052,0.30665 -6.15017,-0.74491 -6.29782,-2.34869z" fill="url(#color-8)"/></g></g><g stroke="#000000" stroke-width="0"><path d="M499.47522,276.40915c-6.09364,0.86664 -86.74205,-9.7862 -88.18966,-10.53798c-6.02965,-3.13132 -0.28084,-47.27025 7.82306,-48.42278c3.71031,-0.52769 82.65271,18.99499 87.68902,21.61043c3.77349,1.95966 0.01876,36.30626 -7.3224,37.35033z" fill="#603f3f"/><path d="M499.47523,276.40917c-5.29495,0.75305 -66.88201,-7.19162 -83.88497,-9.78035c12.38369,1.08221 26.9259,-2.80089 32.7789,-6.8726c3.36766,-2.34275 5.57609,-4.88464 7.49613,-7.84176c1.39256,-2.14472 3.19353,-5.46158 2.59293,-8.03467c-2.2011,-9.42977 -23.97611,-21.16031 -39.72524,-26.34701c0.12462,-0.03829 0.24982,-0.06652 0.37561,-0.08441c3.71031,-0.52769 82.65271,18.99499 87.68902,21.61043c3.77349,1.95966 0.01876,36.30626 -7.3224,37.35033z" fill="url(#color-9)"/></g><g stroke="#000000" stroke-width="0"><path d="M497.29361,238.41503c5.31501,-1.83879 85.95122,-9.38811 89.56113,-8.31118c7.88459,2.35218 8.08229,46.93729 1.71899,49.13872c-1.52773,0.52854 -82.7493,-0.96389 -88.67805,-2.73258c-7.14251,-2.13079 -6.58436,-36.71727 -2.60205,-38.09499z" fill="#3b2727"/><g><path d="M570.56886,258.85456c2.71149,-6.19243 3.74236,-27.53787 2.18843,-29.92231c-0.79389,-1.2182 16.21711,-0.59802 16.64933,-0.46906c7.88459,2.35219 6.883,48.46964 3.37269,50.86535c-12.58404,8.58832 -37.07178,3.99128 -37.07178,3.99128c0,0 7.03153,-6.58375 14.86133,-24.46527z" fill="#cbcbcb"/><path d="M576.32574,284.30135c8.34751,-12.73741 12.61839,-28.48829 11.08944,-45.09507c-0.34485,-3.74567 -0.97186,-7.3947 -1.85705,-10.92624c2.14069,0.06383 3.7206,0.14502 3.84851,0.18318c7.88459,2.35219 6.883,48.46964 3.37269,50.86535c-4.51307,3.08004 -10.55712,4.46422 -16.45358,4.97278z" fill="url(#color-10)"/></g></g><path d="M413.22214,383.00241c-3.25676,6.76126 -95.30262,10.1756 -101.71611,-1.62106c-5.32359,-9.79201 -17.70345,-145.56945 -16.45406,-148.16327c5.20393,-10.80377 123.95449,-13.67077 131.03429,-0.64844c3.24145,5.96217 -8.51744,141.4088 -12.86408,150.43274z" fill="#3b2727" stroke="#000000" stroke-width="0"/><path d="M413.22216,383.00241c-3.25676,6.76126 -95.30262,10.1756 -101.71611,-1.62106c-4.62585,-8.5086 -14.57948,-112.14169 -16.28952,-140.86316c3.35418,20.69416 20.82315,43.55525 34.44037,52.05545c7.83498,4.89079 15.6128,7.81704 24.33651,10.15247c6.32699,1.69381 15.93548,3.73263 22.38992,2.02464c23.6541,-6.25936 43.55602,-45.39324 49.29342,-72.77602c0.16286,0.19451 0.29962,0.39282 0.40952,0.59493c3.24145,5.96217 -8.51744,141.4088 -12.86408,150.43274z" fill="url(#color-11)" stroke="#000000" stroke-width="0"/><path d="M381.98633,206.0591c0,0 -4.23806,6.13012 -24.61688,6.9809c-19.27553,0.80471 -23.88205,-6.9809 -23.88205,-6.9809v-20.2079h48.49895v20.2079z" fill="url(#color-12)" stroke="#000000" stroke-width="0"/><path d="M381.98633,206.0591c0,0 -4.23806,6.13012 -24.61688,6.9809c-19.27553,0.80471 -23.88205,-6.9809 -23.88205,-6.9809v-20.2079h48.49895v20.2079z" fill="url(#color-13)" stroke="#000000" stroke-width="0"/><g stroke="#000000" stroke-width="0"><g><path d="M356.28317,210.4683c2.36558,-14.71915 42.57605,-22.85977 55.2472,-3.59785c14.54669,22.11303 34.3714,30.96294 34.3714,30.96294c0,0 -6.4141,19.12172 -61.07213,6.98962c-18.41986,-4.08855 -30.91208,-19.63558 -28.54648,-34.35473z" fill="#408841"/><path d="M391.85758,235.6398c39.68108,12.86903 54.04416,2.1936 54.04416,2.1936c0,0 -6.4141,19.12172 -61.07213,6.98962c-18.41986,-4.08855 -30.91208,-19.63558 -28.54648,-34.35473c0.15302,-0.95196 -6.4341,11.54769 35.57445,25.17151z" fill="url(#color-14)"/></g><path d="M412.30215,215.58818c-0.60172,6.48931 -9.20574,10.2108 -19.2176,8.31214c-10.01188,-1.89863 -17.64033,-8.69844 -17.03861,-15.18775c0.60172,-6.48931 9.20574,-10.21074 19.2176,-8.31212c10.01188,1.89867 17.64031,8.69839 17.03859,15.1877z" fill="url(#color-15)"/></g><g stroke="#000000" stroke-width="0"><g><path d="M304.02907,210.64961c9.28731,-20.93145 52.01876,-15.12705 55.90084,-0.67206c3.88208,14.45499 -6.94259,30.98792 -24.85757,36.6128c-53.15978,16.69093 -61.52931,-1.80571 -61.52931,-1.80571c0,0 22.03587,-15.09027 30.48605,-34.13503z" fill="#4ca04e"/><path d="M327.12262,238.04041c40.41104,-17.10875 32.5562,-28.99775 32.80728,-28.06287c3.88208,14.45499 -6.94259,30.98792 -24.85757,36.6128c-53.15978,16.69093 -61.52931,-1.80571 -61.52931,-1.80571c0,0 15.4075,9.41668 53.57958,-6.7442z" fill="url(#color-16)"/></g><path d="M304.68769,219.80194c-1.27221,-6.41007 5.61738,-13.8237 15.3884,-16.55883c9.77102,-2.73514 18.72333,0.24399 19.99556,6.65407c1.27225,6.41007 -5.6174,13.82373 -15.38842,16.55884c-9.771,2.73511 -18.7233,-0.24404 -19.99553,-6.6541z" fill="url(#color-17)"/></g><g stroke="#000000" stroke-width="0"><g><path d="M351.80593,279.17322c-1.56093,-8.84858 -2.47084,-19.47948 -2.47084,-30.91399c0,-30.80652 6.60446,-40.18566 14.75148,-40.18566c8.14705,0 14.75149,9.37915 14.75149,40.18566c0,11.43452 -0.9099,22.06543 -2.47084,30.91399c-2.6445,14.99092 -21.91685,14.99092 -24.56133,0z" fill="#e64e3d"/><path d="M349.33507,248.25923c0,-30.80652 6.60446,-40.18566 14.75148,-40.18566c8.14705,0 14.75149,9.37915 14.75149,40.18566c0,10.0531 -0.70331,19.48503 -1.93405,27.63064c-2.87608,-20.46713 -7.54574,-33.77714 -12.81744,-33.77714c-5.27169,0 -9.94136,13.31001 -12.81744,33.77716c-1.23072,-8.14563 -1.93405,-17.57757 -1.93405,-27.63065z" fill="url(#color-18)"/></g><g><path d="M364.08657,197.05044c11.37001,0 20.58724,6.74962 20.58724,15.0757c0,8.3261 -9.2172,10.86098 -20.58724,10.86098c-11.37003,0 -20.58724,-2.53488 -20.58724,-10.86098c0,-8.32608 9.2172,-15.0757 20.58724,-15.0757z" fill="#e64e3d"/><path d="M346.1985,204.6584c4.01385,5.53165 10.53084,9.12897 17.88806,9.12897c7.35719,0 13.8742,-3.59732 17.88806,-9.12897c1.71762,2.20151 2.69918,4.75068 2.69918,7.46775c0,8.3261 -9.2172,10.86098 -20.58724,10.86098c-11.37003,0 -20.58724,-2.53488 -20.58724,-10.86098c0,-2.71704 0.98156,-5.26622 2.69918,-7.46775z" fill="url(#color-19)"/></g></g><path d="M431.78197,169.41885c-9.54905,50.30888 -72.05673,22.88744 -72.05673,22.88744c0,0 -61.35386,28.96789 -72.05673,-21.05645c-19.87772,-92.90676 -11.99357,-130.54693 72.05673,-132.74714c76.85388,-2.01182 88.06934,46.55401 72.05673,130.91613z" fill="#e64e3d" stroke="#000000" stroke-width="0"/><path d="M363.67526,159.79307c44.65246,0 49.73111,2.2249 49.73111,4.96944c0,2.74454 -5.07865,4.96944 -49.73111,4.96944c-44.65249,0 -49.73111,-2.2249 -49.73111,-4.96944c0,-2.74454 5.07865,-4.96944 49.73111,-4.96944z" fill="url(#color-20)" stroke="#000000" stroke-width="0"/><path d="M405.45679,165.14841c-31.76945,1.04047 -69.95898,0.30608 -81.43071,0c-1.70652,-0.04551 -4.59008,-2.10246 -1.34875,-2.20863c13.92191,-0.45596 30.65678,0.35075 44.33988,0.22671c17.86666,-0.16195 31.59985,-1.13228 37.93378,-0.66844c1.5067,0.11035 2.77404,2.57608 0.5058,2.65037z" fill="#0b0403" stroke="#000000" stroke-width="0"/><path d="M384.93139,166.03586c-12.11082,0 -21.92859,-8.07392 -21.92859,-18.03356c0,-9.95966 9.81775,-18.03356 21.92859,-18.03356c12.11082,0 21.92859,8.07392 21.92859,18.03356c0,9.95966 -9.81775,18.03356 -21.92859,18.03356z" fill="url(#color-21)" stroke="#000000" stroke-width="0"/><path d="M367.84077,165.81964c-12.11082,0 -21.92859,-8.07392 -21.92859,-18.03356c0,-9.95963 9.81775,-18.03351 21.92859,-18.03351c12.11081,0 21.92859,8.07388 21.92859,18.03351c0,9.95966 -9.81775,18.03356 -21.92859,18.03356z" fill="url(#color-22)" stroke="#000000" stroke-width="0"/><path d="M378.25948,140.80928c17.99337,7.03825 36.02836,7.37883 36.02836,7.37883c0,0 -1.74629,6.92475 -31.33502,8.287c-9.97144,0.45908 -17.80712,-3.43568 -17.80712,-8.51403c0,-5.07834 4.09492,-10.67956 13.11378,-7.15177z" fill="#558856" stroke="#000000" stroke-width="0"/><path d="M365.14569,147.96107c0,-0.32846 -2.393,4.43285 20.70919,4.80153c21.82222,0.34827 28.43297,-4.57447 28.43297,-4.57447c0,0 -1.74629,6.92475 -31.33502,8.287c-9.97144,0.45908 -17.80712,-3.43568 -17.80712,-8.51403z" fill="url(#color-23)" stroke="#000000" stroke-width="0"/><path d="M326.24481,149.21318c0,-9.95966 9.81775,-18.03356 21.92859,-18.03356c12.11082,0 21.92859,8.07392 21.92859,18.03356c0,9.95966 -9.81775,18.03356 -21.92859,18.03356c-12.11082,0 -21.92859,-8.07392 -21.92859,-18.03356z" fill="url(#color-24)" stroke="#000000" stroke-width="0"/><path d="M369.79961,147.96105c0,5.07835 -7.83566,8.9731 -17.80712,8.51403c-29.58872,-1.36224 -31.33502,-8.287 -31.33502,-8.287c0,0 18.03498,-0.34057 36.02836,-7.37883c9.01886,-3.52781 13.11378,2.07342 13.11378,7.15177z" fill="#558856" stroke="#000000" stroke-width="0"/><path d="M369.79958,147.96107c0,5.07835 -7.83566,8.9731 -17.80712,8.51403c-29.58872,-1.36224 -31.33502,-8.287 -31.33502,-8.287c0,0 6.61076,4.92274 28.43298,4.57447c23.10215,-0.36866 20.70915,-5.12996 20.70915,-4.80153z" fill="url(#color-25)" stroke="#000000" stroke-width="0"/><path d="M365.27325,105.32861c0,-19.70865 13.96735,-31.75695 31.19697,-31.75695c17.22962,0 31.19697,12.0483 31.19697,31.75693c0,19.70861 -13.96735,33.06649 -31.19697,33.06649c-17.22962,0 -31.19697,-13.35786 -31.19697,-33.06649z" fill="url(#color-26)" stroke="#000000" stroke-width="0"/><path d="M396.47023,78.65148c13.57023,0 24.57108,10.15999 24.57108,26.77971c0,16.61973 -11.00084,27.88402 -24.57108,27.88402c-13.57023,0 -24.57108,-11.26431 -24.57108,-27.88402c0,-16.61973 11.00084,-26.77971 24.57108,-26.77971z" fill="#000000" stroke="#000000" stroke-width="0"/><g><g fill="none" stroke="none" stroke-width="1" font-family="sans-serif" font-weight="normal" font-size="12" text-anchor="start"/><path d="M396.47023,127.24142c-9.19194,0 -17.08861,-4.853 -20.52635,-12.66431c3.9896,3.94453 9.47437,6.38 15.52797,6.38c12.19793,0 22.08635,-9.88842 22.08635,-22.08635c0,-3.27859 -0.7144,-6.39031 -1.99596,-9.18803c4.4682,3.60006 7.27043,9.0325 7.27043,15.87114c0,12.92647 -10.012,21.68758 -22.36243,21.68758z" fill="url(#color-27)" stroke="#000000" stroke-width="0"/></g><path d="M359.21731,105.32859c0,19.70863 -13.96737,33.06649 -31.19697,33.06649c-17.22962,0 -31.19697,-13.35788 -31.19697,-33.06649c0,-19.70863 13.96735,-31.75693 31.19697,-31.75693c17.2296,0 31.19697,12.0483 31.19697,31.75695z" fill="url(#color-28)" stroke="#000000" stroke-width="0"/><path d="M352.59141,105.43121c0,16.6197 -11.00084,27.88402 -24.57108,27.88402c-13.57023,0 -24.57108,-11.26429 -24.57108,-27.88402c0,-16.6197 11.00084,-26.77971 24.57108,-26.77971c13.57023,0 24.57108,10.15997 24.57108,26.77971z" fill="#000000" stroke="#000000" stroke-width="0"/><g><g fill="none" stroke="none" stroke-width="1" font-family="sans-serif" font-weight="normal" font-size="12" text-anchor="start"/><path d="M328.02035,127.24147c-12.35042,0 -22.36243,-8.76111 -22.36243,-21.68758c0,-6.83864 2.80223,-12.27108 7.27041,-15.87114c-1.28158,2.79773 -1.99595,5.90944 -1.99595,9.18803c0,12.19793 9.88842,22.08635 22.08635,22.08635c6.0536,0 11.53837,-2.43547 15.52797,-6.38c-3.43775,7.81131 -11.33441,12.66431 -20.52635,12.66431z" fill="url(#color-29)" stroke="#000000" stroke-width="0"/></g><g stroke="#000000" stroke-width="0"><path d="M431.78197,169.41885c-9.54905,50.30888 -72.05673,22.88744 -72.05673,22.88744c0,0 -61.35386,28.96789 -72.05673,-21.05645c-19.87772,-92.90676 -11.99357,-130.54693 72.05673,-132.74714c76.85388,-2.01182 88.06934,46.55401 72.05673,130.91613zM389.77232,70.00099c-0.43952,-0.20145 -0.8577,-0.4101 -1.25949,-0.62349c-2.09879,-1.80155 -4.53968,-3.21585 -7.21189,-4.13201c-1.7722,-0.75053 -3.85959,-1.27435 -6.69294,-1.35545c-10.37165,-0.29691 -19.19616,4.84378 -28.92281,6.05654c-14.72176,1.83558 -37.74857,5.13521 -45.5116,19.77391c-7.09221,13.37377 -5.68102,31.29131 -2.40549,45.75382c3.33586,14.72885 8.30809,26.21675 20.10779,34.84208c11.53267,8.43015 25.12007,-1.5105 36.85381,-1.33287c20.31631,0.3076 31.6216,12.17878 51.72664,-2.34153c32.05316,-23.14953 12.36955,-77.12631 -15.59198,-95.76733z" fill="url(#color-30)"/><path d="M411.63894,162.96005c2.70876,-9.48063 8.54933,-16.12487 13.04532,-14.8403c4.49597,1.28457 5.94481,10.01152 3.23605,19.49213c-2.70876,9.48066 -8.54933,16.12487 -13.04532,14.8403c-4.49597,-1.28457 -5.94481,-10.01148 -3.23605,-19.49211z" fill="url(#color-31)"/><path d="M409.92476,167.17716c3.45134,0.98609 4.5635,7.68526 2.48415,14.96302c-2.07937,7.27776 -6.56287,12.37817 -10.01418,11.39208c-3.45134,-0.98609 -4.5635,-7.68526 -2.48415,-14.96302c2.0794,-7.27776 6.56287,-12.37817 10.01418,-11.39208z" fill="url(#color-32)"/><path d="M285.06155,88.01522c2.07937,-7.27776 6.56285,-12.37817 10.01414,-11.39208c3.45134,0.98609 4.5635,7.68526 2.48415,14.96302c-2.07937,7.27776 -6.56289,12.37817 -10.01418,11.39208c-3.45131,-0.98609 -4.56349,-7.68526 -2.48413,-14.96302z" fill="url(#color-33)"/></g><path d="M285.421,88.71998c2.6429,0 4.78539,7.00429 4.78539,15.64448c0,8.64021 -2.14249,15.64448 -4.78539,15.64448c-2.6429,0 -4.78539,-7.00429 -4.78539,-15.64448c0,-8.64021 2.14249,-15.64448 4.78539,-15.64448z" fill="url(#color-34)" stroke="#000000" stroke-width="0"/><path d="M281.38825,130.5698c-0.56066,-5.2874 0.29594,-9.71277 1.91327,-9.88424c1.61733,-0.17148 3.38294,3.97579 3.94359,9.2632c0.56064,5.28742 -0.29594,9.71277 -1.91327,9.88424c-1.61731,0.17148 -3.38294,-3.97577 -3.94359,-9.26319z" fill="url(#color-35)" stroke="#000000" stroke-width="0"/><g stroke="#000000" stroke-width="0"><g><g><path d="M440.20689,60.96167c-6.87244,25.27348 -32.19728,40.39026 -56.56462,33.76422c-24.36733,-6.62604 -38.54969,-32.48575 -31.67724,-57.75925c6.87247,-25.2735 32.19726,-40.39026 56.56461,-33.76422c24.36731,6.62604 38.54973,32.48573 31.67726,57.75923z" fill="url(#color-36)"/><path d="M405.96928,51.06239c-6.87244,25.27348 -32.19728,40.39026 -56.56462,33.76422c-24.36731,-6.62604 -38.54973,-32.48575 -31.67726,-57.75925c6.87247,-25.2735 32.19726,-40.39026 56.56461,-33.76422c24.36733,6.62604 38.54976,32.48573 31.67729,57.75923z" fill="url(#color-37)"/><path d="M408.64483,29.72479c23.8092,7.72593 46.37891,35.77223 46.37891,35.77223c0,0 -8.2919,16.61676 -68.76518,3.88508c-20.37963,-4.29059 -33.4577,-18.46094 -29.95349,-31.34769c3.50419,-12.88674 28.53058,-16.03554 52.33976,-8.30961z" fill="#4ca04e"/><path d="M394.65931,61.54902c43.66658,12.82306 60.36443,3.948 60.36443,3.948c0,0 -8.2919,16.61676 -68.76518,3.88508c-20.37963,-4.29059 -33.4577,-18.46094 -29.95349,-31.34769c0.22664,-0.83349 -7.87359,9.93946 38.35424,23.5146z" fill="url(#color-38)"/></g><path d="M418.70972,44.63558c-1.05107,5.69788 -10.89814,8.6577 -21.99404,6.61086c-11.09593,-2.04683 -19.23886,-8.32517 -18.18779,-14.02307c1.05107,-5.69788 10.89814,-8.65767 21.99404,-6.61084c11.09593,2.04684 19.23886,8.32515 18.18779,14.02305z" fill="url(#color-39)"/></g><g><g><path d="M363.92674,37.44071c3.39361,12.91633 -9.80544,26.97402 -30.2211,31.08977c-60.58022,12.21283 -68.72937,-4.4744 -68.72937,-4.4744c0,0 12.86816,-24.88925 44.64126,-34.45611c31.7731,-9.56686 50.9156,-5.07563 54.30921,7.84072z" fill="#4ca04e"/><path d="M363.92674,37.4407c3.39361,12.91633 -9.80544,26.97402 -30.2211,31.08977c-60.58022,12.21283 -68.72937,-4.4744 -68.72937,-4.4744c0,0 16.62115,9.0179 60.39608,-3.43036c46.34252,-13.17838 38.33491,-24.02038 38.5544,-23.18501z" fill="url(#color-40)"/></g><path d="M328.61609,30.61251c11.09591,-2.04683 20.94296,0.91296 21.99404,6.61084c1.05107,5.6979 -7.09189,11.97624 -18.18779,14.02307c-11.09591,2.04683 -20.94296,-0.91299 -21.99404,-6.61086c-1.05107,-5.69792 7.09188,-11.97623 18.18779,-14.02305z" fill="url(#color-41)"/></g></g><g stroke="#000000" stroke-width="0"><path d="M288.60801,38.85274c-0.36114,-8.92111 28.8493,-17.34741 65.24334,-18.8207c36.39406,-1.47328 66.19003,4.56438 66.55115,13.48549c0.36114,8.92111 -28.8493,17.3474 -65.24334,18.82068c-36.39406,1.47327 -66.19003,-4.56438 -66.55115,-13.48549z" fill="url(#color-42)"/><g><g><g><path d="M416.84315,26.50196c-5.04728,2.18504 -31.71403,-2.08794 -60.68292,0.24471c-29.1606,2.34808 -60.61652,11.29173 -63.31089,10.42043c-1.24142,-0.40145 -6.77055,-50.86613 -4.01193,-52.06039c9.73216,-4.21325 63.61623,5.42446 63.61623,5.42446c0,0 57.33397,-8.031 62.67824,-6.30276c3.71315,1.20082 4.74191,40.96149 1.71127,42.27353z" fill="#533737"/><path d="M416.84317,26.50196c-5.04728,2.18504 -31.71403,-2.08794 -60.68292,0.24471c-29.1606,2.34808 -60.61652,11.29173 -63.31089,10.42043c-1.24142,-0.40145 -6.77055,-50.86613 -4.01193,-52.06039c9.73215,-4.21325 69.37559,11.4425 69.37559,11.4425c0,0 51.57458,-14.04904 56.91886,-12.3208c3.71315,1.20082 4.74191,40.96149 1.71127,42.27353z" fill="#3b2727"/></g><path d="M416.84315,26.50196c-5.04728,2.18504 -31.71403,-2.08794 -60.68292,0.24471c-29.1606,2.34808 -60.61652,11.29173 -63.31089,10.42043c-1.01597,-0.32855 -4.90376,-34.18847 -4.77017,-47.13012c10.91146,10.76447 29.16464,22.21933 45.24358,22.38648c26.61035,6.31201 59.2199,3.13698 77.74859,-14.58655c2.4006,-2.29631 4.51034,-4.52069 6.3127,-6.73511c1.7216,11.73541 1.73557,34.4146 -0.5409,35.40014z" fill="url(#color-43)"/></g><path d="M427.04033,33.98424c-5.91911,0.75566 -38.78697,-0.3621 -72.3891,1.30035c-33.82447,1.67346 -68.37497,6.12426 -71.46079,5.99374c-1.42179,-0.06015 -5.98763,-13.08112 -2.75255,-13.49413c11.41319,-1.45706 46.16691,-4.35581 76.64017,-5.23358c33.87365,-0.97571 63.39575,0.16126 69.51643,0.42011c4.25261,0.17986 3.99994,10.55975 0.44583,11.01348z" fill="#4f3434"/></g></g><path d="M326.99141,106.48335c0,-0.5702 0.46224,-1.03244 1.03244,-1.03244c0.5702,0 1.03244,0.46224 1.03244,1.03244c0,0.5702 -0.46224,1.03244 -1.03244,1.03244c-0.5702,0 -1.03244,-0.46224 -1.03244,-1.03244z" fill="#ffffff" stroke="none" stroke-width="0.5"/><path d="M396.60739,106.95532c0,-0.5702 0.46224,-1.03244 1.03244,-1.03244c0.5702,0 1.03244,0.46224 1.03244,1.03244c0,0.5702 -0.46224,1.03244 -1.03244,1.03244c-0.5702,0 -1.03244,-0.46224 -1.03244,-1.03244z" fill="#ffffff" stroke="none" stroke-width="0.5"/></g></g></svg>