<svg version="1.1" xmlns="http://www.w3.org/2000/svg" xmlns:xlink="http://www.w3.org/1999/xlink" width="758.91667" height="420" viewBox="0,0,758.91667,420"><defs><linearGradient x1="-12.50451" y1="188.24325" x2="148.32658" y2="188.24325" gradientUnits="userSpaceOnUse" id="color-1"><stop offset="0" stop-color="#000000"/><stop offset="1" stop-color="#000000" stop-opacity="0"/></linearGradient><linearGradient x1="743.41667" y1="185" x2="582.58559" y2="185" gradientUnits="userSpaceOnUse" id="color-2"><stop offset="0" stop-color="#000000"/><stop offset="1" stop-color="#000000" stop-opacity="0"/></linearGradient><linearGradient x1="364.5428" y1="-9.95495" x2="364.5428" y2="117.67268" gradientUnits="userSpaceOnUse" id="color-3"><stop offset="0" stop-color="#000000"/><stop offset="1" stop-color="#000000" stop-opacity="0"/></linearGradient><linearGradient x1="363.53679" y1="384.56562" x2="363.53679" y2="256.93799" gradientUnits="userSpaceOnUse" id="color-4"><stop offset="0" stop-color="#000000"/><stop offset="1" stop-color="#000000" stop-opacity="0"/></linearGradient><linearGradient x1="354.59372" y1="233.34716" x2="345.43922" y2="226.36843" gradientUnits="userSpaceOnUse" id="color-5"><stop offset="0" stop-color="#484c5e"/><stop offset="1" stop-color="#212d30"/></linearGradient><linearGradient x1="353.6032" y1="242.23206" x2="341.20407" y2="232.77984" gradientUnits="userSpaceOnUse" id="color-6"><stop offset="0" stop-color="#484c5e"/><stop offset="1" stop-color="#212d30"/></linearGradient><linearGradient x1="348.46144" y1="253.10565" x2="343.39411" y2="238.36098" gradientUnits="userSpaceOnUse" id="color-7"><stop offset="0" stop-color="#484c5e"/><stop offset="1" stop-color="#212d30"/></linearGradient><linearGradient x1="338.16317" y1="261.09729" x2="340.66248" y2="245.7078" gradientUnits="userSpaceOnUse" id="color-8"><stop offset="0" stop-color="#484c5e"/><stop offset="1" stop-color="#212d30"/></linearGradient><linearGradient x1="328.5935" y1="264.91203" x2="331.09281" y2="249.52253" gradientUnits="userSpaceOnUse" id="color-9"><stop offset="0" stop-color="#484c5e"/><stop offset="1" stop-color="#212d30"/></linearGradient><linearGradient x1="320.39094" y1="268.1818" x2="322.89024" y2="252.79231" gradientUnits="userSpaceOnUse" id="color-10"><stop offset="0" stop-color="#484c5e"/><stop offset="1" stop-color="#212d30"/></linearGradient><linearGradient x1="311.16304" y1="271.86029" x2="313.66235" y2="256.47079" gradientUnits="userSpaceOnUse" id="color-11"><stop offset="0" stop-color="#484c5e"/><stop offset="1" stop-color="#212d30"/></linearGradient><linearGradient x1="302.96047" y1="275.13006" x2="305.45977" y2="259.74057" gradientUnits="userSpaceOnUse" id="color-12"><stop offset="0" stop-color="#484c5e"/><stop offset="1" stop-color="#212d30"/></linearGradient><linearGradient x1="309.06606" y1="279.67478" x2="283.95574" y2="279.70597" gradientUnits="userSpaceOnUse" id="color-13"><stop offset="0" stop-color="#484c5e"/><stop offset="1" stop-color="#212d30"/></linearGradient><linearGradient x1="335.36282" y1="137.86508" x2="336.37539" y2="146.94849" gradientUnits="userSpaceOnUse" id="color-14"><stop offset="0" stop-color="#484c5e"/><stop offset="1" stop-color="#212d30"/></linearGradient><linearGradient x1="323.67135" y1="138.40742" x2="325.0428" y2="150.71025" gradientUnits="userSpaceOnUse" id="color-15"><stop offset="0" stop-color="#484c5e"/><stop offset="1" stop-color="#212d30"/></linearGradient><linearGradient x1="310.67982" y1="139.01007" x2="312.05129" y2="151.3129" gradientUnits="userSpaceOnUse" id="color-16"><stop offset="0" stop-color="#484c5e"/><stop offset="1" stop-color="#212d30"/></linearGradient><linearGradient x1="299.13181" y1="139.54575" x2="300.50327" y2="151.84858" gradientUnits="userSpaceOnUse" id="color-17"><stop offset="0" stop-color="#484c5e"/><stop offset="1" stop-color="#212d30"/></linearGradient><linearGradient x1="285.65912" y1="140.17072" x2="287.03059" y2="152.47355" gradientUnits="userSpaceOnUse" id="color-18"><stop offset="0" stop-color="#484c5e"/><stop offset="1" stop-color="#212d30"/></linearGradient><linearGradient x1="274.1111" y1="140.7064" x2="275.48256" y2="153.00924" gradientUnits="userSpaceOnUse" id="color-19"><stop offset="0" stop-color="#484c5e"/><stop offset="1" stop-color="#212d30"/></linearGradient><linearGradient x1="261.11958" y1="141.30904" x2="262.49105" y2="153.61188" gradientUnits="userSpaceOnUse" id="color-20"><stop offset="0" stop-color="#484c5e"/><stop offset="1" stop-color="#212d30"/></linearGradient><linearGradient x1="249.57157" y1="141.84473" x2="250.94303" y2="154.14756" gradientUnits="userSpaceOnUse" id="color-21"><stop offset="0" stop-color="#484c5e"/><stop offset="1" stop-color="#212d30"/></linearGradient><linearGradient x1="384.63718" y1="137.86508" x2="383.62461" y2="146.94849" gradientUnits="userSpaceOnUse" id="color-22"><stop offset="0" stop-color="#484c5e"/><stop offset="1" stop-color="#212d30"/></linearGradient><linearGradient x1="396.32865" y1="138.40742" x2="394.9572" y2="150.71025" gradientUnits="userSpaceOnUse" id="color-23"><stop offset="0" stop-color="#484c5e"/><stop offset="1" stop-color="#212d30"/></linearGradient><linearGradient x1="409.32018" y1="139.01007" x2="407.94871" y2="151.3129" gradientUnits="userSpaceOnUse" id="color-24"><stop offset="0" stop-color="#484c5e"/><stop offset="1" stop-color="#212d30"/></linearGradient><linearGradient x1="420.86819" y1="139.54575" x2="419.49673" y2="151.84858" gradientUnits="userSpaceOnUse" id="color-25"><stop offset="0" stop-color="#484c5e"/><stop offset="1" stop-color="#212d30"/></linearGradient><linearGradient x1="434.34088" y1="140.17072" x2="432.96941" y2="152.47355" gradientUnits="userSpaceOnUse" id="color-26"><stop offset="0" stop-color="#484c5e"/><stop offset="1" stop-color="#212d30"/></linearGradient><linearGradient x1="445.8889" y1="140.7064" x2="444.51744" y2="153.00924" gradientUnits="userSpaceOnUse" id="color-27"><stop offset="0" stop-color="#484c5e"/><stop offset="1" stop-color="#212d30"/></linearGradient><linearGradient x1="458.88042" y1="141.30904" x2="457.50895" y2="153.61188" gradientUnits="userSpaceOnUse" id="color-28"><stop offset="0" stop-color="#484c5e"/><stop offset="1" stop-color="#212d30"/></linearGradient><linearGradient x1="470.42843" y1="141.84473" x2="469.05697" y2="154.14756" gradientUnits="userSpaceOnUse" id="color-29"><stop offset="0" stop-color="#484c5e"/><stop offset="1" stop-color="#212d30"/></linearGradient><linearGradient x1="366.99489" y1="237.31056" x2="376.14939" y2="230.33183" gradientUnits="userSpaceOnUse" id="color-30"><stop offset="0" stop-color="#484c5e"/><stop offset="1" stop-color="#212d30"/></linearGradient><linearGradient x1="367.9854" y1="246.19546" x2="380.38454" y2="236.74324" gradientUnits="userSpaceOnUse" id="color-31"><stop offset="0" stop-color="#484c5e"/><stop offset="1" stop-color="#212d30"/></linearGradient><linearGradient x1="373.12717" y1="257.06904" x2="378.1945" y2="242.32438" gradientUnits="userSpaceOnUse" id="color-32"><stop offset="0" stop-color="#484c5e"/><stop offset="1" stop-color="#212d30"/></linearGradient><linearGradient x1="383.42543" y1="265.06069" x2="380.92613" y2="249.6712" gradientUnits="userSpaceOnUse" id="color-33"><stop offset="0" stop-color="#484c5e"/><stop offset="1" stop-color="#212d30"/></linearGradient><linearGradient x1="392.99511" y1="268.87542" x2="390.4958" y2="253.48593" gradientUnits="userSpaceOnUse" id="color-34"><stop offset="0" stop-color="#484c5e"/><stop offset="1" stop-color="#212d30"/></linearGradient><linearGradient x1="401.19766" y1="272.1452" x2="398.69837" y2="256.75571" gradientUnits="userSpaceOnUse" id="color-35"><stop offset="0" stop-color="#484c5e"/><stop offset="1" stop-color="#212d30"/></linearGradient><linearGradient x1="410.42556" y1="275.82369" x2="407.92626" y2="260.4342" gradientUnits="userSpaceOnUse" id="color-36"><stop offset="0" stop-color="#484c5e"/><stop offset="1" stop-color="#212d30"/></linearGradient><linearGradient x1="418.62814" y1="279.09346" x2="416.12883" y2="263.70397" gradientUnits="userSpaceOnUse" id="color-37"><stop offset="0" stop-color="#484c5e"/><stop offset="1" stop-color="#212d30"/></linearGradient><linearGradient x1="340.84118" y1="183.824" x2="381.33856" y2="183.824" gradientUnits="userSpaceOnUse" id="color-38"><stop offset="0" stop-color="#484c5e"/><stop offset="1" stop-color="#212d30"/></linearGradient><linearGradient x1="336.95343" y1="131.80312" x2="385.22631" y2="131.80312" gradientUnits="userSpaceOnUse" id="color-39"><stop offset="0" stop-color="#484c5e"/><stop offset="1" stop-color="#212d30"/></linearGradient><linearGradient x1="359.04091" y1="103.96541" x2="364.6971" y2="103.96541" gradientUnits="userSpaceOnUse" id="color-40"><stop offset="0" stop-color="#484c5e"/><stop offset="1" stop-color="#212d30"/></linearGradient><linearGradient x1="359.04091" y1="115.59338" x2="366.70183" y2="115.59338" gradientUnits="userSpaceOnUse" id="color-41"><stop offset="0" stop-color="#484c5e"/><stop offset="1" stop-color="#212d30"/></linearGradient><linearGradient x1="359.04091" y1="128.51434" x2="366.70183" y2="128.51434" gradientUnits="userSpaceOnUse" id="color-42"><stop offset="0" stop-color="#484c5e"/><stop offset="1" stop-color="#212d30"/></linearGradient><linearGradient x1="359.04091" y1="139.99963" x2="366.70183" y2="139.99963" gradientUnits="userSpaceOnUse" id="color-43"><stop offset="0" stop-color="#484c5e"/><stop offset="1" stop-color="#212d30"/></linearGradient><linearGradient x1="359.04091" y1="153.39916" x2="366.70183" y2="153.39916" gradientUnits="userSpaceOnUse" id="color-44"><stop offset="0" stop-color="#484c5e"/><stop offset="1" stop-color="#212d30"/></linearGradient><linearGradient x1="359.04091" y1="164.88445" x2="366.70183" y2="164.88445" gradientUnits="userSpaceOnUse" id="color-45"><stop offset="0" stop-color="#484c5e"/><stop offset="1" stop-color="#212d30"/></linearGradient><linearGradient x1="359.04091" y1="177.80543" x2="366.70183" y2="177.80543" gradientUnits="userSpaceOnUse" id="color-46"><stop offset="0" stop-color="#484c5e"/><stop offset="1" stop-color="#212d30"/></linearGradient><linearGradient x1="359.04091" y1="189.29071" x2="366.70183" y2="189.29071" gradientUnits="userSpaceOnUse" id="color-47"><stop offset="0" stop-color="#484c5e"/><stop offset="1" stop-color="#212d30"/></linearGradient><linearGradient x1="350.24335" y1="155.45593" x2="372.28184" y2="155.45593" gradientUnits="userSpaceOnUse" id="color-48"><stop offset="0" stop-color="#484c5e"/><stop offset="1" stop-color="#212d30"/></linearGradient><linearGradient x1="382.05264" y1="146.79171" x2="368.59402" y2="146.79171" gradientUnits="userSpaceOnUse" id="color-49"><stop offset="0" stop-color="#484c5e"/><stop offset="1" stop-color="#212d30"/></linearGradient><linearGradient x1="340.84422" y1="148.08974" x2="354.30284" y2="148.08974" gradientUnits="userSpaceOnUse" id="color-50"><stop offset="0" stop-color="#484c5e"/><stop offset="1" stop-color="#212d30"/></linearGradient><linearGradient x1="360.76441" y1="190.54925" x2="360.76441" y2="220.59581" gradientUnits="userSpaceOnUse" id="color-51"><stop offset="0" stop-color="#484c5e"/><stop offset="1" stop-color="#212d30"/></linearGradient><linearGradient x1="349.97799" y1="191.98355" x2="349.97799" y2="199.06595" gradientUnits="userSpaceOnUse" id="color-52"><stop offset="0" stop-color="#484c5e"/><stop offset="1" stop-color="#212d30"/></linearGradient><linearGradient x1="372.64168" y1="191.98355" x2="372.64168" y2="199.06595" gradientUnits="userSpaceOnUse" id="color-53"><stop offset="0" stop-color="#484c5e"/><stop offset="1" stop-color="#212d30"/></linearGradient><linearGradient x1="412.52255" y1="283.63818" x2="437.63287" y2="283.66937" gradientUnits="userSpaceOnUse" id="color-54"><stop offset="0" stop-color="#484c5e"/><stop offset="1" stop-color="#212d30"/></linearGradient><radialGradient cx="360" cy="179.99998" r="362.61261" gradientUnits="userSpaceOnUse" id="color-55"><stop offset="0" stop-color="#000000" stop-opacity="0.83922"/><stop offset="1" stop-color="#000000" stop-opacity="0"/></radialGradient><radialGradient cx="360" cy="179.99998" r="362.61262" gradientUnits="userSpaceOnUse" id="color-56"><stop offset="0" stop-color="#000000" stop-opacity="0"/><stop offset="1" stop-color="#000000"/></radialGradient></defs><g transform="translate(15.5,30)"><g stroke-miterlimit="10"><g stroke-linecap="butt"><path d="M0.04123,153v-160.3741h719.91754v160.3741z" fill="#323232" stroke="#000000" stroke-width="0"/><path d="M226.82491,244.00002v-128h248.01449v128z" fill="#3f3f3f" stroke="#000000" stroke-width="0"/><path d="M282.79705,217.81297v-89h153.44087v89z" fill="#686868" stroke="#000000" stroke-width="0"/><path d="M0.6078,360.00001v-128h719.91754v128z" fill="#323232" stroke="#000000" stroke-width="0"/><path d="M12.58671,360.00001v-360l284.68589,116l0.96504,128.5z" fill="#505050" stroke="none" stroke-width="0"/><path d="M707.41329,0.00001v360l-284.68589,-116l-0.96504,-128.5z" fill="#505050" stroke="none" stroke-width="0"/><path d="M-2.61262,295.50001v-225l300.609,83v42z" fill="#909090" stroke="#000000" stroke-width="0"/><path d="M422.00362,195.50002v-42l300.609,-83v225z" fill="#909090" stroke="#000000" stroke-width="0"/><text transform="translate(322.72372,166.34742) scale(0.80247,0.83154)" font-size="40" xml:space="preserve" fill="#000000" stroke="#000000" stroke-width="3" font-family="&quot;Agency FB&quot;, Sans Serif" font-weight="normal" text-anchor="start"><tspan x="0" dy="0">A . S . C</tspan></text><text transform="translate(325.74612,171.3863) rotate(90) scale(0.217,0.20941)" font-size="40" xml:space="preserve" fill="#000000" stroke="#000000" stroke-width="2" font-family="&quot;Agency FB&quot;, Sans Serif" font-weight="normal" text-anchor="start"><tspan x="0" dy="0">NIMATRONIC</tspan></text><text transform="translate(357.10143,172.05296) rotate(90) scale(0.217,0.20941)" font-size="40" xml:space="preserve" fill="#000000" stroke="#000000" stroke-width="2" font-family="&quot;Agency FB&quot;, Sans Serif" font-weight="normal" text-anchor="start"><tspan x="0" dy="0">ECURITY</tspan></text><text transform="translate(389.59101,172.05296) rotate(90) scale(0.217,0.20941)" font-size="40" xml:space="preserve" fill="#000000" stroke="#000000" stroke-width="2" font-family="&quot;Agency FB&quot;, Sans Serif" font-weight="normal" text-anchor="start"><tspan x="0" dy="0">ENTER</tspan></text><path d="M325.25867,70.06296c0,-6.18292 15.55422,-11.19516 34.74133,-11.19516c19.18711,0 34.74133,5.01224 34.74133,11.19516c0,6.18292 -16.03674,16.69516 -35.22385,16.69516c-19.18711,0 -34.25881,-10.51224 -34.25881,-16.69516z" fill="#181818" stroke="#000000" stroke-width="0"/><path d="M331.45445,76.05339c0,-5.08025 12.78028,-9.19861 28.54555,-9.19861c15.76528,0 28.54555,4.11836 28.54555,9.19861c0,5.08025 -13.17675,13.71774 -28.94202,13.71774c-15.76528,0 -28.14908,-8.63749 -28.14908,-13.71774z" fill="#404040" stroke="#000000" stroke-width="0"/></g><path d="M-15.5,30v-60h751v60z" fill="#000000" stroke-opacity="0.50196" stroke="#0d0d0d" stroke-width="0" stroke-linecap="butt"/><path d="M-15.5,390v-60h751v60z" fill="#000000" stroke-opacity="0.50196" stroke="#0d0d0d" stroke-width="0" stroke-linecap="butt"/><g stroke="none" stroke-width="0" stroke-linecap="butt"><path d="M-12.50451,383.43844v-390.39039h160.83109v390.39039z" fill="url(#color-1)"/><path d="M582.58559,380.19519v-390.39039h160.83108v390.39039z" fill="url(#color-2)"/><path d="M-13.83558,117.67268v-127.62762h756.75676v127.62763z" fill="url(#color-3)"/><path d="M741.91517,256.93799v127.62762h-756.75676v-127.62762z" fill="url(#color-4)"/></g><g fill="none" stroke-width="3.25" stroke-linecap="round"><path d="M354.09564,237.81493c0,0 -5.7717,-4.08719 -8.05594,-5.70476c-1.69056,-1.19715 -1.211,-3.2458 0.70466,-3.31821c1.60448,-0.06064 4.70006,-0.17766 6.65004,-0.25137c1.03156,-0.039 0.64785,-0.90037 -0.19915,-1.54607c-1.60334,-1.22227 -6.95765,-5.30401 -6.95765,-5.30401" stroke="url(#color-5)"/><path d="M353.11727,246.59082c0,0 -5.7717,-4.08718 -8.05594,-5.70476c-1.69056,-1.19717 -1.21098,-3.2458 0.70466,-3.31821c2.45328,-0.09273 8.39256,-0.31724 8.39256,-0.31724" stroke="url(#color-6)"/><path d="M345.63788,256.46162c0,0 -2.53239,-6.60337 -3.53462,-9.21677c-0.74174,-1.93417 0.79427,-3.37207 2.42793,-2.36901c2.09214,1.28456 8.42618,1.57435 8.42618,1.57435" stroke="url(#color-7)"/><path d="M334.08916,262.72129c0,0 0.88751,-7.0164 1.23877,-9.79326c0.25997,-2.05514 2.29304,-2.59685 3.25906,-0.94102c1.23713,2.12053 6.91126,4.57519 6.91126,4.57519" stroke="url(#color-8)"/><path d="M324.5195,266.53603c0,0 0.88751,-7.0164 1.23876,-9.79326c0.25997,-2.05514 2.29304,-2.59686 3.25907,-0.94103c1.23713,2.12053 4.23219,7.25426 4.23219,7.25426" stroke="url(#color-9)"/><path d="M316.31693,269.8058c0,0 0.88751,-7.0164 1.23877,-9.79326c0.25997,-2.05514 2.29305,-2.59685 3.25907,-0.94102c1.23713,2.12053 4.23218,7.25426 4.23218,7.25426" stroke="url(#color-10)"/><path d="M307.08903,273.48429c0,0 0.88751,-7.0164 1.23877,-9.79326c0.25997,-2.05514 2.29304,-2.59685 3.25907,-0.94102c1.23713,2.12053 4.23218,7.25426 4.23218,7.25426" stroke="url(#color-11)"/><path d="M298.88645,276.75407c0,0 0.88751,-7.01641 1.23876,-9.79326c0.25997,-2.05514 2.29304,-2.59685 3.25907,-0.94102c1.23713,2.12053 4.23219,7.25426 4.23219,7.25426" stroke="url(#color-12)"/></g><path d="M283.95574,279.70597c-0.00862,-6.93402 5.60554,-12.56214 12.53956,-12.57075c4.01266,-0.00498 13.64652,5.33195 13.64652,5.33195c0,0 0.85164,3.8546 0.85527,6.77598c0.00862,6.93403 -27.03273,7.39685 -27.04135,0.46283z" fill="#272727" stroke="url(#color-13)" stroke-width="0" stroke-linecap="butt"/><g><g fill="none" stroke-width="3.25" stroke-linecap="round"><path d="M342.75867,146.39788c0,0 -0.59224,-5.31272 -0.76958,-6.90361c-0.09369,-0.84043 -0.83251,-1.24715 -1.72882,-0.26131c-1.69429,1.86354 -4.384,4.82191 -5.7781,6.35526c-1.66448,1.83073 -4.56685,2.19625 -4.64171,0.52301c-0.10115,-2.26084 -0.35671,-7.97343 -0.35671,-7.97343" stroke="url(#color-14)"/><path d="M330.22632,138.10335c0,0 -5.16056,5.67601 -7.29217,8.02054c-1.66449,1.83075 -4.56686,2.19626 -4.64171,0.52302c-0.10115,-2.26084 -0.3567,-7.97343 -0.3567,-7.97343" stroke="url(#color-15)"/><path d="M317.23479,138.706c0,0 -5.16056,5.67601 -7.29216,8.02054c-1.66448,1.83074 -4.56685,2.19626 -4.6417,0.52302c-0.10115,-2.26084 -0.35671,-7.97343 -0.35671,-7.97343" stroke="url(#color-16)"/><path d="M305.68679,139.24169c0,0 -5.16056,5.67601 -7.29217,8.02054c-1.66449,1.83074 -4.56686,2.19625 -4.64171,0.52301c-0.10115,-2.26084 -0.3567,-7.97343 -0.3567,-7.97343" stroke="url(#color-17)"/><path d="M292.21409,139.86664c0,0 -5.16057,5.67601 -7.29217,8.02054c-1.66448,1.83074 -4.56684,2.19626 -4.6417,0.52302c-0.10115,-2.26084 -0.3567,-7.97342 -0.3567,-7.97342" stroke="url(#color-18)"/><path d="M280.66607,140.40232c0,0 -5.16056,5.67601 -7.29216,8.02054c-1.66449,1.83075 -4.56686,2.19626 -4.64171,0.52302c-0.10115,-2.26084 -0.3567,-7.97342 -0.3567,-7.97342" stroke="url(#color-19)"/><path d="M267.67454,141.00498c0,0 -5.16056,5.676 -7.29217,8.02053c-1.66448,1.83074 -4.56684,2.19626 -4.6417,0.52302c-0.10115,-2.26084 -0.3567,-7.97343 -0.3567,-7.97343" stroke="url(#color-20)"/><path d="M256.12654,141.54065c0,0 -5.16056,5.67601 -7.29216,8.02054c-1.66449,1.83075 -4.56686,2.19626 -4.64171,0.52302c-0.10115,-2.26084 -0.3567,-7.97343 -0.3567,-7.97343" stroke="url(#color-21)"/></g><path d="M232.14848,130.14127c4.42127,-5.52618 11.50559,3.07396 13.93115,5.11757c1.83689,1.54762 11.26277,-0.61279 10.68782,2.28862c-0.18427,0.92982 -9.21934,6.99243 -9.67182,7.85624c-0.69285,1.32266 -2.60547,8.65206 -3.60711,9.28271c-1.69376,1.06642 -2.63645,-5.25422 -4.16064,-6.5384c-0.71571,-0.603 -6.10404,-0.46238 -6.2176,-4.6505c-0.0408,-1.50469 0.99308,0.84916 2.56391,-1.01808c1.2151,-1.44439 -8.08962,-6.63369 -3.52571,-12.33815z" fill="#0d0d0d" stroke="#000000" stroke-width="0" stroke-linecap="butt"/></g><g><g fill="none" stroke-width="3.25" stroke-linecap="round"><path d="M390.51624,138.1378c0,0 -0.25556,5.71259 -0.35671,7.97343c-0.07485,1.67324 -2.97722,1.30772 -4.64171,-0.52301c-1.39411,-1.53336 -4.08381,-4.49172 -5.7781,-6.35526c-0.89631,-0.98584 -1.63513,-0.57912 -1.72882,0.26131c-0.17734,1.5909 -0.76958,6.90361 -0.76958,6.90361" stroke="url(#color-22)"/><path d="M402.06425,138.67348c0,0 -0.25555,5.71259 -0.3567,7.97343c-0.07485,1.67324 -2.97722,1.30772 -4.64171,-0.52302c-2.1316,-2.34453 -7.29217,-8.02054 -7.29217,-8.02054" stroke="url(#color-23)"/><path d="M415.05578,139.27613c0,0 -0.25556,5.71259 -0.35671,7.97343c-0.07485,1.67324 -2.97722,1.30772 -4.6417,-0.52302c-2.1316,-2.34453 -7.29216,-8.02054 -7.29216,-8.02054" stroke="url(#color-24)"/><path d="M426.60379,139.81181c0,0 -0.25555,5.71259 -0.3567,7.97343c-0.07485,1.67324 -2.97722,1.30772 -4.64171,-0.52301c-2.1316,-2.34453 -7.29217,-8.02054 -7.29217,-8.02054" stroke="url(#color-25)"/><path d="M440.07647,140.43678c0,0 -0.25555,5.71258 -0.3567,7.97342c-0.07485,1.67324 -2.97722,1.30772 -4.6417,-0.52302c-2.1316,-2.34453 -7.29217,-8.02054 -7.29217,-8.02054" stroke="url(#color-26)"/><path d="M451.62449,140.97246c0,0 -0.25555,5.71258 -0.3567,7.97342c-0.07485,1.67324 -2.97722,1.30772 -4.64171,-0.52302c-2.1316,-2.34453 -7.29216,-8.02054 -7.29216,-8.02054" stroke="url(#color-27)"/><path d="M464.61602,141.5751c0,0 -0.25555,5.71259 -0.3567,7.97343c-0.07485,1.67324 -2.97722,1.30772 -4.6417,-0.52302c-2.1316,-2.34453 -7.29217,-8.02053 -7.29217,-8.02053" stroke="url(#color-28)"/><path d="M476.16403,142.11078c0,0 -0.25555,5.71259 -0.3567,7.97343c-0.07485,1.67324 -2.97722,1.30772 -4.64171,-0.52302c-2.1316,-2.34453 -7.29216,-8.02054 -7.29216,-8.02054" stroke="url(#color-29)"/></g><path d="M487.85152,130.14128c4.56391,5.70446 -4.7408,10.89376 -3.52571,12.33815c1.57083,1.86724 2.60471,-0.48661 2.56391,1.01808c-0.11356,4.18812 -5.50189,4.0475 -6.2176,4.6505c-1.52419,1.28418 -2.46688,7.60483 -4.16064,6.5384c-1.00164,-0.63066 -2.91426,-7.96006 -3.60711,-9.28271c-0.45248,-0.86381 -9.48756,-6.92642 -9.67182,-7.85624c-0.57495,-2.90141 8.85093,-0.741 10.68782,-2.28862c2.42556,-2.04361 9.50988,-10.64375 13.93115,-5.11757z" fill="#0d0d0d" stroke="#000000" stroke-width="0" stroke-linecap="butt"/></g><g fill="none" stroke-width="3.25" stroke-linecap="round"><path d="M375.35101,225.65391c0,0 -5.35431,4.08174 -6.95765,5.30401c-0.847,0.64569 -1.23071,1.50707 -0.19915,1.54607c1.94997,0.07371 5.04556,0.19073 6.65004,0.25137c1.91566,0.0724 2.39521,2.12105 0.70466,3.3182c-2.28423,1.61758 -8.05594,5.70476 -8.05594,5.70476" stroke="url(#color-30)"/><path d="M367.43006,241.21402c0,0 5.93928,0.2245 8.39256,0.31724c1.91565,0.07241 2.39521,2.12104 0.70466,3.31821c-2.28423,1.61758 -8.05594,5.70476 -8.05594,5.70476" stroke="url(#color-31)"/><path d="M368.63124,250.41358c0,0 6.33404,-0.28978 8.42618,-1.57435c1.63366,-1.00306 3.16967,0.43485 2.42793,2.36902c-1.00223,2.6134 -3.53462,9.21677 -3.53462,9.21677" stroke="url(#color-32)"/><path d="M376.09036,260.5256c0,0 5.67413,-2.45465 6.91126,-4.57519c0.96602,-1.65583 2.99909,-1.11412 3.25906,0.94102c0.35125,2.77685 1.23876,9.79326 1.23876,9.79326" stroke="url(#color-33)"/><path d="M388.33908,267.01941c0,0 2.99505,-5.13373 4.23219,-7.25426c0.96602,-1.65583 2.9991,-1.11412 3.25907,0.94102c0.35125,2.77685 1.23876,9.79326 1.23876,9.79326" stroke="url(#color-34)"/><path d="M396.54166,270.28918c0,0 2.99505,-5.13372 4.23218,-7.25426c0.96602,-1.65583 2.9991,-1.11412 3.25907,0.94102c0.35125,2.77685 1.23876,9.79326 1.23876,9.79326" stroke="url(#color-35)"/><path d="M405.76957,273.96768c0,0 2.99505,-5.13373 4.23218,-7.25426c0.96602,-1.65583 2.9991,-1.11413 3.25907,0.94102c0.35125,2.77685 1.23877,9.79326 1.23877,9.79326" stroke="url(#color-36)"/><path d="M413.97213,277.23745c0,0 2.99505,-5.13373 4.23219,-7.25426c0.96602,-1.65583 2.9991,-1.11412 3.25907,0.94102c0.35125,2.77685 1.23876,9.79326 1.23876,9.79326" stroke="url(#color-37)"/></g><path d="M381.33855,183.824c0,0.52115 -5.90721,0.47794 -11.89912,-1.94568c-2.75129,-1.11285 -3.85857,-5.66782 -7.37763,-5.66782c-3.98849,0 -4.16448,4.42862 -7.32558,5.92377c-5.70208,2.69699 -13.08509,3.1509 -13.08509,2.66167c0,-0.76045 8.25571,-26.08031 19.43874,-26.08031c11.18304,0 20.24868,24.34793 20.24868,25.10837z" fill="#4c1212" stroke="url(#color-38)" stroke-width="0" stroke-linecap="butt"/><path d="M385.22631,131.80312c0,0.55915 -9.67232,8.94992 -23.0025,8.94992c-13.33019,0 -24.21744,-7.17585 -24.21744,-7.735c0,-0.27604 11.8324,0.90799 23.48629,0.60465c11.9523,-0.3111 23.73365,-2.10268 23.73365,-1.81958z" fill="#4c1212" stroke="url(#color-39)" stroke-width="0" stroke-linecap="butt"/><g fill="none" stroke-width="3.25" stroke-linecap="round"><path d="M387.38208,107.40257c0,0 -3.3082,0 -4.29884,0c-0.52333,0 -0.79652,0.68617 -0.21157,1.68176c1.10575,1.88198 -12.53649,-1.89858 -11.62665,-0.35004c1.08629,1.84885 5.62865,6.45298 4.58994,6.34249c-1.40348,-0.14929 -9.85665,-1.71096 -9.85665,-1.71096" stroke="url(#color-40)"/><path d="M365.97831,113.81174c0,0 3.36794,5.73219 4.7591,8.09992c1.08629,1.84885 -3.6776,1.71523 -4.71632,1.60476c-1.40348,-0.14929 -5.28813,0.65791 -5.28813,0.65791" stroke="url(#color-41)"/><path d="M360.73296,124.87146c0,0 1.67589,2.8557 3.06705,5.22343c1.08629,1.84885 1.22933,4.76091 0.19062,4.65044c-1.40348,-0.14929 -4.94972,-0.52652 -4.94972,-0.52652" stroke="url(#color-42)"/><path d="M359.04091,133.48027c0,0 3.36794,5.73219 4.7591,8.09992c1.08629,1.84885 1.22933,4.76092 0.19062,4.65044c-1.40348,-0.14929 -4.94972,-0.52653 -4.94972,-0.52653" stroke="url(#color-43)"/><path d="M359.04091,146.87978c0,0 3.36794,5.73219 4.7591,8.09992c1.08629,1.84885 1.22933,4.76091 0.19062,4.65044c-1.40348,-0.14929 -4.94972,-0.52652 -4.94972,-0.52652" stroke="url(#color-44)"/><path d="M359.04091,158.36508c0,0 3.36794,5.73218 4.7591,8.09991c1.08629,1.84885 1.22933,4.76092 0.19062,4.65044c-1.40348,-0.14929 -4.94972,-0.52652 -4.94972,-0.52652" stroke="url(#color-45)"/><path d="M359.04091,171.28604c0,0 3.36794,5.73219 4.7591,8.09992c1.08629,1.84885 1.22933,4.76092 0.19062,4.65044c-1.40348,-0.14929 -4.94972,-0.52653 -4.94972,-0.52653" stroke="url(#color-46)"/><path d="M359.04091,182.77134c0,0 3.36794,5.73219 4.7591,8.09992c1.08629,1.84885 1.22933,4.76092 0.19062,4.65044c-1.40348,-0.14929 -4.94972,-0.52653 -4.94972,-0.52653" stroke="url(#color-47)"/></g><path d="M349.28433,146.16663c0,-2.61663 -5.70058,-7.80662 -5.02803,-9.02126c0.84771,-1.53099 8.24428,1.25101 9.88931,1.03205c2.00481,-0.26684 4.48945,0.06165 7.18022,0.06165c2.81447,0 5.54763,-0.26147 7.76422,0.1899c1.32407,0.26962 8.21445,-1.71725 9.07709,-0.73125c1.10558,1.26366 -3.99461,5.79705 -3.99461,9.01563c0,5.34348 0.25684,17.15961 -2.43503,22.99792c-2.31263,5.01579 -7.33849,4.5025 -10.41168,4.5025c-2.58281,0 -8.48932,-0.98251 -10.45023,-4.90643c-3.08813,-6.17958 -1.59128,-17.06473 -1.59128,-23.14072z" fill="#dadada" stroke="#000000" stroke-width="0" stroke-linecap="butt"/><path d="M350.24335,155.45593c0,-7.41308 4.93348,-13.42259 11.01924,-13.42259c6.08576,0 11.01925,6.0095 11.01925,13.42259c0,7.41308 -4.93349,13.42259 -11.01925,13.42259c-6.08576,0 -11.01924,-6.0095 -11.01924,-13.42259z" fill="#ababab" stroke="url(#color-48)" stroke-width="0" stroke-linecap="butt"/><path d="M370.92011,173.82731c-1.67686,-10.68409 1.56557,-34.99976 2.86906,-38.01729c2.18407,-5.05605 7.52146,-4.70722 11.79635,-4.32749c2.50809,0.2228 -3.16309,20.06713 -8.23751,32.84308c-2.41536,6.08121 4.70461,19.64554 4.70461,19.64554c0,0 -9.45307,0.55678 -11.13252,-10.14384z" fill="#801d1d" stroke="url(#color-49)" stroke-width="0" stroke-linecap="butt"/><path d="M340.84422,185.26917c0,0 7.11998,-13.56433 4.70461,-19.64554c-5.07442,-12.77595 -10.7456,-32.62029 -8.2375,-32.84308c4.27491,-0.37973 9.61229,-0.72857 11.79635,4.32748c1.30348,3.01754 4.54592,27.33321 2.86906,38.0173c-1.67945,10.70061 -11.13252,10.14384 -11.13252,10.14384z" fill="#801d1d" stroke="url(#color-50)" stroke-width="0" stroke-linecap="butt"/><path d="M347.95214,191.69475c2.42106,-1.66997 24.98237,-2.93164 27.7382,0.33775c2.20344,2.61406 5.058,32.12933 1.9437,38.39913c-2.49103,5.01503 -15.38226,-0.1568 -15.38226,-0.1568c0,0 0.2657,-22.98571 -1.12299,-22.98645c-1.35955,-0.00073 -1.38821,23.05244 -1.38821,23.05244c0,0 -14.31377,-1.50404 -15.98136,-1.40725c-3.37607,0.19596 0.26433,-34.52903 4.19292,-37.23883z" fill="#0d0d0d" stroke="url(#color-51)" stroke-width="0" stroke-linecap="butt"/><path d="M346.43679,195.52475c0,-1.95575 1.58545,-3.5412 3.54121,-3.5412c1.95575,0 3.5412,1.58544 3.5412,3.5412c0,1.95575 -1.58545,3.5412 -3.5412,3.5412c-1.95575,0 -3.54121,-1.58545 -3.54121,-3.5412z" fill="#e1f194" stroke="url(#color-52)" stroke-width="0" stroke-linecap="butt"/><path d="M369.10048,195.52475c0,-1.95575 1.58545,-3.5412 3.5412,-3.5412c1.95575,0 3.54121,1.58544 3.54121,3.5412c0,1.95575 -1.58545,3.5412 -3.54121,3.5412c-1.95575,0 -3.5412,-1.58545 -3.5412,-3.5412z" fill="#e1f194" stroke="url(#color-53)" stroke-width="0" stroke-linecap="butt"/><path d="M410.59152,283.20654c0.00363,-2.92138 0.85527,-6.77598 0.85527,-6.77598c0,0 9.63386,-5.33693 13.64651,-5.33194c6.93402,0.00862 12.54817,5.63673 12.53956,12.57075c-0.00862,6.93402 -27.04996,6.47119 -27.04134,-0.46283z" fill="#272727" stroke="url(#color-54)" stroke-width="0" stroke-linecap="butt"/><g stroke="#000000" stroke-width="0" stroke-linecap="butt"><path d="M366.26648,155.19709l-0.96216,-14.09966l3.33806,-0.22777l0.96216,14.09965z" fill="#2f323e"/><path d="M362.93212,140.56931c-1.81352,-2.46364 -2.6701,-11.83457 -2.6701,-11.83457l11.36324,-0.88119c0,0 0.15178,9.12725 -0.78146,11.89909c-0.62928,1.86904 -2.62013,1.77894 -4.06914,1.87781c-1.07971,0.07367 -3.07469,-0.01807 -3.84253,-1.06117z" fill="#2f323e"/><g><path d="M390.70186,116.92093c-0.98712,-2.81993 -2.36872,-4.23895 -3.1474,-6.38848c-0.73476,-2.0283 -0.8746,-4.81988 -1.53195,-6.37685c-1.62454,-3.84782 -3.02751,-6.46303 -3.19576,-9.02106c-0.10505,-1.59726 1.17267,-4.31215 1.4952,-5.68434c0.35293,-1.50153 4.88324,-1.98626 7.70256,-0.82198c2.45455,1.01365 3.05136,3.35644 5.59846,6.35888c1.13947,1.34315 4.28716,4.50157 5.26573,6.18532c1.623,2.79257 1.27831,4.68567 1.94655,7.61249c0.55989,2.45224 2.94852,5.96432 3.67411,8.81326c0.33865,1.3296 -0.80352,2.07544 -0.63057,3.29989c0.20879,1.47818 2.16951,6.06603 2.28602,7.4015c0.33088,3.79231 -0.90239,5.05632 -1.35902,7.45844c-0.54193,2.85098 1.52488,8.72634 0.57031,10.44578c-1.3945,2.51191 -5.88705,3.28277 -7.55648,3.51858c-1.63895,0.23149 -3.68745,1.96403 -5.47165,0.26918c-1.38053,-1.3114 -2.77773,-4.70766 -3.91398,-8.4292c-0.67716,-2.21789 -1.4371,-2.20744 -1.959,-4.91326c-0.31162,-1.61562 -0.42299,-5.69013 -0.70085,-7.65741c-0.46889,-3.31968 3.17266,-5.65753 0.92772,-12.07078z" fill="#a3a3a3"/><path d="M386.52014,91.8899c1.30553,-0.44056 3.23441,1.782 4.30828,4.96424c1.07387,3.18224 0.88606,6.1191 -0.41947,6.55966c-1.30553,0.44056 -3.23442,-1.782 -4.30829,-4.96424c-1.07387,-3.18224 -0.88607,-6.1191 0.41946,-6.55967z" fill="#0d0d0d"/></g><path d="M387.95691,94.87184c0.801,0.24604 1.56111,1.4066 1.86982,2.20357c0.22142,0.57163 0.50811,1.7112 0.32957,2.2524c-1.08802,3.29831 -8.86751,5.061 -10.21688,1.57734c-1.26207,-3.25834 4.74266,-7.03917 8.01748,-6.0333z" fill="#2f323e"/><g><path d="M344.47716,133.2364c-0.00803,1.98679 0.43514,6.03862 0.34589,7.68159c-0.14949,2.75164 -0.90381,2.84451 -1.27338,5.13386c-0.62016,3.84142 -1.54302,7.39601 -2.73261,8.88278c-1.5374,1.92152 -3.80231,0.48331 -5.4575,0.47662c-1.68598,-0.00682 -6.2416,-0.16024 -7.96441,-2.45943c-1.17929,-1.57384 0.07021,-7.6755 -0.854,-10.42642c-0.7787,-2.31782 -2.17225,-3.40259 -2.35965,-7.20468c-0.06599,-1.33892 1.25332,-6.15061 1.25936,-7.64344c0.005,-1.23659 -1.22789,-1.82037 -1.07301,-3.18363c0.33186,-2.92111 2.22124,-6.72513 2.4428,-9.23069c0.26445,-2.99047 -0.33423,-4.81918 0.89437,-7.80636c0.74077,-1.80109 3.43021,-5.35784 4.37663,-6.84333c2.1156,-3.32062 2.38862,-5.72278 4.68274,-7.06048c2.63503,-1.5365 7.18918,-1.67168 7.74282,-0.232c0.50597,1.31565 2.14066,3.83182 2.25355,5.42852c0.18082,2.55718 -0.85389,5.33872 -1.94066,9.37156c-0.43975,1.63183 -0.19905,4.41652 -0.65148,6.52586c-0.47946,2.23538 -1.65548,3.82894 -2.25037,6.75682c-1.35292,6.65875 2.57248,8.48023 2.5589,11.83284z" fill="#a3a3a3"/><path d="M343.9675,102.47833c-0.63161,3.29862 -2.24069,5.76263 -3.59398,5.50349c-1.35329,-0.25914 -1.93831,-3.14324 -1.3067,-6.44186c0.63161,-3.29862 2.24069,-5.76263 3.59398,-5.50349c1.35329,0.25914 1.93831,3.14324 1.3067,6.44186z" fill="#0d0d0d"/></g><path d="M350.40522,104.07418c-0.8636,3.63469 -8.81044,2.94516 -10.33645,-0.17477c-0.2504,-0.51195 -0.12117,-1.67988 0.02052,-2.27629c0.19759,-0.8315 0.79299,-2.0846 1.55313,-2.43716c3.10784,-1.44144 9.5705,1.48865 8.76277,4.88821z" fill="#2f323e"/><path d="M390.57906,130.98783c0.04638,0.67958 -11.68681,6.32322 -23.7398,7.14518c-12.03455,0.82071 -24.38885,-3.17919 -24.43515,-3.85772c-0.04615,-0.67623 12.18016,2.6502 24.17337,1.82895c12.09346,-0.82811 23.95506,-5.79829 24.00157,-5.11641z" fill="#686e88"/><path d="M390.38035,130.6604c0.12862,1.88508 -0.93038,22.95467 -22.61041,24.4341c-21.68003,1.47944 -25.50773,-20.31408 -25.63636,-22.19917c-0.12862,-1.88508 3.49051,16.85211 25.17054,15.37267c21.68003,-1.47944 22.9476,-19.49268 23.07625,-17.6076z" fill="#dadada"/><path d="M364.6118,145.35551l-0.91389,-13.39246l5.02745,-0.34306l0.91389,13.39246z" fill="#24262f"/><path d="M339.24076,118.36728c-0.98157,-14.38411 9.88334,-26.84044 24.26745,-27.82203c14.3841,-0.98157 26.84045,9.88332 27.82202,24.26744c0.98157,14.3841 -51.10787,17.93869 -52.08945,3.55458z" fill="#dadada"/><path d="M344.17003,115.63394c-0.4222,-6.18697 4.25106,-11.54472 10.438,-11.96693c6.18697,-0.4222 11.54475,4.25104 11.96693,10.438c0.4222,6.18697 -4.25106,11.54472 -10.43803,11.96693c-6.18697,0.4222 -11.54472,-4.25106 -11.96693,-10.438z" fill="#000000"/><path d="M362.42839,114.82719c-0.4222,-6.18697 4.25104,-11.54475 10.438,-11.96693c6.18697,-0.4222 11.54473,4.25106 11.96693,10.43801c0.4222,6.18697 -4.25104,11.54473 -10.43801,11.96692c-6.18697,0.4222 -11.54473,-4.25104 -11.96693,-10.438z" fill="#000000"/><path d="M395.19421,117.53829c0.20465,3.70931 -7.27412,14.77388 -29.13055,16.26534c-21.85642,1.49148 -30.01793,-9.10071 -30.32102,-12.80329c-0.93928,-11.474 7.54869,0.87298 29.40511,-0.61851c21.85642,-1.49148 29.38648,-14.8055 30.04647,-2.84357z" fill="#ababab"/><path d="M357.24748,123.62123c-0.66838,-9.79451 2.82882,-32.85772 5.79295,-33.06c2.96413,-0.20228 10.35737,20.086 11.02574,29.88051c0.66838,9.79451 -16.15032,12.97398 -16.81869,3.17949z" fill="#ababab"/><path d="M374.61412,119.27822c0.04944,0.72433 -3.39152,9.56456 -8.49197,9.91262c-5.10046,0.34806 -9.92901,-7.92785 -9.97844,-8.65218c-0.04944,-0.72433 18.421,-1.98475 18.47043,-1.26043z" fill="#1d1d1d"/><g><path d="M381.74213,66.73397c0.22206,3.25412 -8.4638,6.49708 -19.40043,7.24341c-10.93661,0.74632 -19.98251,-1.28666 -20.20457,-4.54076c-0.03672,-0.53825 0.082,-2.14471 1.86616,-2.62831c6.89241,-1.86831 26.44932,-3.07144 34.75591,-2.05126c2.54253,0.31225 2.93949,1.34047 2.98292,1.97693z" fill="#101010"/><path d="M381.56636,67.22593c0.47733,6.99486 0.36416,18.287 -6.70249,23.47413c-5.01716,3.68274 -16.34833,2.4169 -20.88856,2.72671c-10.93515,0.74623 -11.1924,-11.53752 -12.00863,-23.49857c-0.29384,-4.30589 3.1811,-0.54676 9.66774,-2.20075c5.43129,-1.38488 13.26157,0.44183 18.62431,-1.08272c6.02389,-1.7125 11.03127,-3.46863 11.30764,0.58118z" fill="#0d0d0d"/></g><g><path d="M388.47998,87.97489c0.05204,0.76256 -11.11604,2.1457 -24.94459,3.08937c-13.82853,0.94367 -25.08096,1.0905 -25.13301,0.32794c-0.05204,-0.76256 11.11604,-2.14571 24.94458,-3.08938c13.82853,-0.94367 25.08097,-1.09049 25.13301,-0.32793z" fill="#101010"/><path d="M388.22416,88.10481c0.11186,1.63913 -0.82079,4.34712 -10.08526,6.08183c-6.57755,1.23161 -20.7623,1.72175 -26.50312,2.11352c-13.82671,0.94354 -13.29126,-1.97561 -13.48255,-4.7785c-0.06886,-1.00901 6.02035,0.25106 14.307,-0.59826c6.93845,-0.71116 15.84714,-0.54183 22.70902,-1.28156c7.70783,-0.83095 12.99013,-2.48602 13.05491,-1.53702z" fill="#0d0d0d"/></g><path d="M381.39523,84.43105c0.04221,0.61844 0.64201,2.5185 -0.84157,3.12765c-1.25655,0.51591 -3.31663,0.56358 -5.74285,0.93936c-2.48732,0.38523 -5.36093,1.09377 -8.26925,1.22997c-1.46837,0.06875 -2.62562,-0.5563 -4.09921,-0.45573c-2.22413,0.15177 -4.79749,0.80801 -7.34943,0.8632c-2.21627,0.04791 -4.4263,-0.50272 -6.25387,-0.42007c-2.27007,0.10267 -3.60478,0.63868 -4.89524,0.38746c-2.17591,-0.42357 -0.88551,-2.30794 -0.93631,-3.05224c-0.04259,-0.62408 -0.93539,-2.84837 0.57379,-3.46248c1.39819,-0.56893 3.84891,-1.44196 6.76729,-1.46598c2.12692,-0.0175 4.52655,0.77218 6.82864,0.7076c1.78514,-0.05008 3.00722,-0.49916 4.78316,-0.62035c1.77915,-0.1214 3.54486,0.23468 5.46632,-0.05191c2.26192,-0.33736 4.52323,-1.33942 6.61815,-1.76318c2.94209,-0.59513 5.52247,-0.54221 7.02144,-0.21742c1.92923,0.41802 0.28138,3.55764 0.32891,4.25416z" fill="#801d1d"/></g><g stroke="#000000" stroke-width="0" stroke-linecap="butt"><path d="M-2.61261,366.18619v-372.37237h725.22523v372.37237z" fill="url(#color-55)"/><path d="M-2.61262,366.18619v-372.37237h725.22523v372.37237z" fill="url(#color-56)"/></g><path d="M340,353.5v-19h40v19z" fill="#000000" stroke="#484c5e" stroke-width="0" stroke-linecap="butt"/><path d="M340,353.5v-19h40v19z" fill="#000000" stroke="#484c5e" stroke-width="0" stroke-linecap="butt"/></g></g></svg>