<svg version="1.1" xmlns="http://www.w3.org/2000/svg" xmlns:xlink="http://www.w3.org/1999/xlink" width="235.55681" height="32.65428" viewBox="0,0,235.55681,32.65428"><g transform="translate(-242.38069,-163.67286)"><g stroke-miterlimit="10"><path d="M242.38069,196.32714v-32.65428h235.55009v32.65428z" fill-opacity="0.50196" fill="#000000" stroke="none" stroke-width="0"/><text transform="translate(242.8125,186) scale(0.5,0.5)" font-size="40" xml:space="preserve" fill="#ffffff" stroke="none" stroke-width="1" font-family="&quot;VCR OSD Mono&quot;, Pixel" font-weight="normal" text-anchor="start"><tspan x="0" dy="0">[ (  ) Mobile Mode ]</tspan></text><path d="M280.70398,177.20684c0,-4.60148 3.73024,-8.33171 8.33171,-8.33171c4.60148,0 8.33171,3.73024 8.33171,8.33171c0,4.60148 -3.73024,8.33171 -8.33171,8.33171c-4.60148,0 -8.33171,-3.73024 -8.33171,-8.33171zM289.0357,182.36258c2.76142,0 5,-2.23858 5,-5c0,-2.76142 -2.23858,-5 -5,-5c-2.76142,0 -5,2.23858 -5,5c0,2.76142 2.23858,5 5,5z" fill="#ffffff" stroke="#000000" stroke-width="0"/></g></g></svg>