<svg version="1.1" xmlns="http://www.w3.org/2000/svg" xmlns:xlink="http://www.w3.org/1999/xlink" width="776.44745" height="419.50006" viewBox="0,0,776.44745,419.50006"><g transform="translate(28.77703,29.75003)"><g stroke-miterlimit="10"><path d="M-28.77703,376.69674v-393.39339h755.25526v393.39339z" fill-opacity="0.2" fill="#7bffa1" stroke="none" stroke-width="0" stroke-linecap="butt"/><path d="M161.16291,388.5v-417" fill="none" stroke-opacity="0.2" stroke="#14ff53" stroke-width="2.5" stroke-linecap="round"/><path d="M104.29884,-28.5v417" fill="none" stroke-opacity="0.2" stroke="#14ff53" stroke-width="2.5" stroke-linecap="round"/><path d="M43.55768,-28.5v417" fill="none" stroke-opacity="0.2" stroke="#14ff53" stroke-width="2.5" stroke-linecap="round"/><path d="M275.32184,388.50003v-417" fill="none" stroke-opacity="0.2" stroke="#14ff53" stroke-width="2.5" stroke-linecap="round"/><path d="M214.58068,-28.49997v417" fill="none" stroke-opacity="0.2" stroke="#14ff53" stroke-width="2.5" stroke-linecap="round"/><path d="M393.38513,-28.50001v417" fill="none" stroke-opacity="0.2" stroke="#14ff53" stroke-width="2.5" stroke-linecap="round"/><path d="M336.52106,388.49999v-417" fill="none" stroke-opacity="0.2" stroke="#14ff53" stroke-width="2.5" stroke-linecap="round"/><path d="M275.7799,-28.50001v417" fill="none" stroke-opacity="0.2" stroke="#14ff53" stroke-width="2.5" stroke-linecap="round"/><path d="M507.54406,388.50001v-417" fill="none" stroke-opacity="0.2" stroke="#14ff53" stroke-width="2.5" stroke-linecap="round"/><path d="M446.8029,-28.49999v417" fill="none" stroke-opacity="0.2" stroke="#14ff53" stroke-width="2.5" stroke-linecap="round"/><path d="M563.5503,-28.50003v417" fill="none" stroke-opacity="0.2" stroke="#14ff53" stroke-width="2.5" stroke-linecap="round"/><path d="M506.68623,-28.50003v417" fill="none" stroke-opacity="0.2" stroke="#14ff53" stroke-width="2.5" stroke-linecap="round"/><path d="M677.70923,-28.5v417" fill="none" stroke-opacity="0.2" stroke="#14ff53" stroke-width="2.5" stroke-linecap="round"/><path d="M616.96806,-28.5v417" fill="none" stroke-opacity="0.2" stroke="#14ff53" stroke-width="2.5" stroke-linecap="round"/><g fill="none" stroke-opacity="0.2" stroke="#14ff53" stroke-width="2.5" stroke-linecap="round"><path d="M-26.42041,262.99998h370.45346"/><path d="M-26.42041,333.5h370.45346"/><path d="M576.25527,262.99998h-370.45346"/><path d="M205.80181,333.5h370.45346"/><path d="M375.96697,262.99997h370.45345"/><path d="M375.96697,333.49998h370.45345"/></g><g fill="none" stroke-opacity="0.2" stroke="#14ff53" stroke-width="2.5" stroke-linecap="round"><path d="M-26.42041,123.99999h370.45346"/><path d="M-26.42041,194.5h370.45346"/><path d="M576.25527,123.99998h-370.45346"/><path d="M205.80181,194.5h370.45346"/><path d="M375.96697,123.99997h370.45345"/><path d="M375.96697,194.49999h370.45345"/></g><g fill="none" stroke-opacity="0.2" stroke="#14ff53" stroke-width="2.5" stroke-linecap="round"><path d="M-26.42041,-11.00002h370.45346"/><path d="M-26.42041,59.5h370.45346"/><path d="M576.25527,-11.00003h-370.45346"/><path d="M205.80181,59.5h370.45346"/><path d="M375.96697,-11.00003h370.45345"/><path d="M375.96697,59.49998h370.45345"/></g></g></g></svg>