<svg version="1.1" xmlns="http://www.w3.org/2000/svg" xmlns:xlink="http://www.w3.org/1999/xlink" width="76.33333" height="101" viewBox="0,0,76.33333,101"><defs><linearGradient x1="360.72751" y1="173.04581" x2="360.72751" y2="186.24451" gradientUnits="userSpaceOnUse" id="color-1"><stop offset="0" stop-color="#000000" stop-opacity="0"/><stop offset="1" stop-color="#000000"/></linearGradient><radialGradient cx="348.61891" cy="181.52283" r="1.34681" gradientUnits="userSpaceOnUse" id="color-2"><stop offset="0" stop-color="#613a2f"/><stop offset="1" stop-color="#613a2f" stop-opacity="0"/></radialGradient><radialGradient cx="352.43708" cy="176.14571" r="1.13131" gradientUnits="userSpaceOnUse" id="color-3"><stop offset="0" stop-color="#613a2f"/><stop offset="1" stop-color="#613a2f" stop-opacity="0"/></radialGradient><radialGradient cx="349.91521" cy="177.88982" r="1.06061" gradientUnits="userSpaceOnUse" id="color-4"><stop offset="0" stop-color="#613a2f"/><stop offset="1" stop-color="#613a2f" stop-opacity="0"/></radialGradient><radialGradient cx="348.71317" cy="179.72821" r="0.49495" gradientUnits="userSpaceOnUse" id="color-5"><stop offset="0" stop-color="#613a2f"/><stop offset="1" stop-color="#613a2f" stop-opacity="0"/></radialGradient><radialGradient cx="348.80746" cy="178.62047" r="0.28283" gradientUnits="userSpaceOnUse" id="color-6"><stop offset="0" stop-color="#613a2f"/><stop offset="1" stop-color="#613a2f" stop-opacity="0"/></radialGradient><radialGradient cx="355.7132" cy="190.64071" r="0.65993" gradientUnits="userSpaceOnUse" id="color-7"><stop offset="0" stop-color="#613a2f"/><stop offset="1" stop-color="#613a2f" stop-opacity="0"/></radialGradient><radialGradient cx="355.19467" cy="190.7114" r="0.82492" gradientUnits="userSpaceOnUse" id="color-8"><stop offset="0" stop-color="#613a2f"/><stop offset="1" stop-color="#613a2f" stop-opacity="0"/></radialGradient><radialGradient cx="354.27549" cy="190.05148" r="0.58923" gradientUnits="userSpaceOnUse" id="color-9"><stop offset="0" stop-color="#613a2f"/><stop offset="1" stop-color="#613a2f" stop-opacity="0"/></radialGradient><radialGradient cx="356.5881" cy="191.06494" r="0.75422" gradientUnits="userSpaceOnUse" id="color-10"><stop offset="0" stop-color="#613a2f"/><stop offset="1" stop-color="#613a2f" stop-opacity="0"/></radialGradient><radialGradient cx="354.22835" cy="190.64071" r="0.3771" gradientUnits="userSpaceOnUse" id="color-11"><stop offset="0" stop-color="#613a2f"/><stop offset="1" stop-color="#613a2f" stop-opacity="0"/></radialGradient><radialGradient cx="353.59198" cy="189.50938" r="0.16498" gradientUnits="userSpaceOnUse" id="color-12"><stop offset="0" stop-color="#613a2f"/><stop offset="1" stop-color="#613a2f" stop-opacity="0"/></radialGradient><radialGradient cx="357.62228" cy="191.93701" r="0.16499" gradientUnits="userSpaceOnUse" id="color-13"><stop offset="0" stop-color="#613a2f"/><stop offset="1" stop-color="#613a2f" stop-opacity="0"/></radialGradient><radialGradient cx="372.56515" cy="181.49589" r="0.80135" gradientUnits="userSpaceOnUse" id="color-14"><stop offset="0" stop-color="#613a2f"/><stop offset="1" stop-color="#613a2f" stop-opacity="0"/></radialGradient><radialGradient cx="372.16448" cy="183.28715" r="0.9899" gradientUnits="userSpaceOnUse" id="color-15"><stop offset="0" stop-color="#613a2f"/><stop offset="1" stop-color="#613a2f" stop-opacity="0"/></radialGradient><radialGradient cx="372.21161" cy="182.39152" r="0.84849" gradientUnits="userSpaceOnUse" id="color-16"><stop offset="0" stop-color="#613a2f"/><stop offset="1" stop-color="#613a2f" stop-opacity="0"/></radialGradient><radialGradient cx="371.74023" cy="184.44203" r="0.40068" gradientUnits="userSpaceOnUse" id="color-17"><stop offset="0" stop-color="#613a2f"/><stop offset="1" stop-color="#613a2f" stop-opacity="0"/></radialGradient><radialGradient cx="371.59882" cy="183.38142" r="0.21212" gradientUnits="userSpaceOnUse" id="color-18"><stop offset="0" stop-color="#613a2f"/><stop offset="1" stop-color="#613a2f" stop-opacity="0"/></radialGradient><radialGradient cx="372.63586" cy="184.53631" r="0.11784" gradientUnits="userSpaceOnUse" id="color-19"><stop offset="0" stop-color="#613a2f"/><stop offset="1" stop-color="#613a2f" stop-opacity="0"/></radialGradient><radialGradient cx="367.04999" cy="190.00433" r="0.18855" gradientUnits="userSpaceOnUse" id="color-20"><stop offset="0" stop-color="#613a2f"/><stop offset="1" stop-color="#613a2f" stop-opacity="0"/></radialGradient><radialGradient cx="367.80418" cy="189.86292" r="0.14142" gradientUnits="userSpaceOnUse" id="color-21"><stop offset="0" stop-color="#613a2f"/><stop offset="1" stop-color="#613a2f" stop-opacity="0"/></radialGradient><linearGradient x1="347.80443" y1="184.00288" x2="352.36753" y2="184.00288" gradientUnits="userSpaceOnUse" id="color-22"><stop offset="0" stop-color="#603b2f" stop-opacity="0"/><stop offset="1" stop-color="#603b2f"/></linearGradient><linearGradient x1="369.3309" y1="183.45254" x2="373.44491" y2="183.45254" gradientUnits="userSpaceOnUse" id="color-23"><stop offset="0" stop-color="#603b2f"/><stop offset="1" stop-color="#603b2f" stop-opacity="0"/></linearGradient><radialGradient cx="369.72203" cy="182.37657" r="0.8142" gradientUnits="userSpaceOnUse" id="color-24"><stop offset="0" stop-color="#000000" stop-opacity="0"/><stop offset="1" stop-color="#000000"/></radialGradient><radialGradient cx="351.60726" cy="182.49049" r="0.8142" gradientUnits="userSpaceOnUse" id="color-25"><stop offset="0" stop-color="#000000" stop-opacity="0"/><stop offset="1" stop-color="#000000"/></radialGradient><linearGradient x1="375.33685" y1="138.34301" x2="375.33685" y2="162.80868" gradientUnits="userSpaceOnUse" id="color-26"><stop offset="0" stop-color="#2f1c17"/><stop offset="1" stop-color="#35201a"/></linearGradient><linearGradient x1="345.38724" y1="138.34301" x2="345.38724" y2="162.80868" gradientUnits="userSpaceOnUse" id="color-27"><stop offset="0" stop-color="#2f1c17"/><stop offset="1" stop-color="#35201a"/></linearGradient><radialGradient cx="348.8834" cy="162.71074" r="2.98177" gradientUnits="userSpaceOnUse" id="color-28"><stop offset="0" stop-color="#d27e67"/><stop offset="1" stop-color="#bf735e"/></radialGradient><radialGradient cx="372.11005" cy="162.94642" r="2.98177" gradientUnits="userSpaceOnUse" id="color-29"><stop offset="0" stop-color="#d27e67"/><stop offset="1" stop-color="#bf735e"/></radialGradient><radialGradient cx="355.30358" cy="170.08731" r="5.67481" gradientUnits="userSpaceOnUse" id="color-30"><stop offset="0" stop-color="#000000" stop-opacity="0"/><stop offset="1" stop-color="#000000"/></radialGradient><radialGradient cx="365.50569" cy="169.99584" r="5.6748" gradientUnits="userSpaceOnUse" id="color-31"><stop offset="0" stop-color="#000000" stop-opacity="0"/><stop offset="1" stop-color="#000000"/></radialGradient><radialGradient cx="360.26686" cy="179.91861" r="8.1156" gradientUnits="userSpaceOnUse" id="color-32"><stop offset="0" stop-color="#724538"/><stop offset="1" stop-color="#683f33"/></radialGradient><radialGradient cx="355.94888" cy="179.54865" r="1.39058" gradientUnits="userSpaceOnUse" id="color-33"><stop offset="0" stop-color="#613a2f"/><stop offset="1" stop-color="#613a2f" stop-opacity="0"/></radialGradient><radialGradient cx="356.79737" cy="177.71025" r="0.96634" gradientUnits="userSpaceOnUse" id="color-34"><stop offset="0" stop-color="#613a2f"/><stop offset="1" stop-color="#613a2f" stop-opacity="0"/></radialGradient><radialGradient cx="355.02969" cy="178.8887" r="0.84848" gradientUnits="userSpaceOnUse" id="color-35"><stop offset="0" stop-color="#613a2f"/><stop offset="1" stop-color="#613a2f" stop-opacity="0"/></radialGradient><radialGradient cx="355.99603" cy="178.32305" r="0.9192" gradientUnits="userSpaceOnUse" id="color-36"><stop offset="0" stop-color="#613a2f"/><stop offset="1" stop-color="#613a2f" stop-opacity="0"/></radialGradient><radialGradient cx="358.02296" cy="179.64292" r="0.3064" gradientUnits="userSpaceOnUse" id="color-37"><stop offset="0" stop-color="#613a2f"/><stop offset="1" stop-color="#613a2f" stop-opacity="0"/></radialGradient><radialGradient cx="355.07682" cy="180.16143" r="0.09428" gradientUnits="userSpaceOnUse" id="color-38"><stop offset="0" stop-color="#613a2f"/><stop offset="1" stop-color="#613a2f" stop-opacity="0"/></radialGradient><radialGradient cx="354.25191" cy="177.7574" r="0.11785" gradientUnits="userSpaceOnUse" id="color-39"><stop offset="0" stop-color="#613a2f"/><stop offset="1" stop-color="#613a2f" stop-opacity="0"/></radialGradient><radialGradient cx="368.27558" cy="175.51833" r="0.51853" gradientUnits="userSpaceOnUse" id="color-40"><stop offset="0" stop-color="#613a2f"/><stop offset="1" stop-color="#613a2f" stop-opacity="0"/></radialGradient><radialGradient cx="370.93889" cy="177.1446" r="0.11785" gradientUnits="userSpaceOnUse" id="color-41"><stop offset="0" stop-color="#613a2f"/><stop offset="1" stop-color="#613a2f" stop-opacity="0"/></radialGradient><radialGradient cx="370.11397" cy="173.49138" r="0.32997" gradientUnits="userSpaceOnUse" id="color-42"><stop offset="0" stop-color="#613a2f"/><stop offset="1" stop-color="#613a2f" stop-opacity="0"/></radialGradient><radialGradient cx="359.53144" cy="162.92458" r="1.15226" gradientUnits="userSpaceOnUse" id="color-43"><stop offset="0" stop-color="#3c3148"/><stop offset="1" stop-color="#3c3148" stop-opacity="0"/></radialGradient><radialGradient cx="358.19581" cy="162.84601" r="0.78564" gradientUnits="userSpaceOnUse" id="color-44"><stop offset="0" stop-color="#613a2f"/><stop offset="1" stop-color="#613a2f" stop-opacity="0"/></radialGradient><radialGradient cx="357.22687" cy="162.97695" r="0.94276" gradientUnits="userSpaceOnUse" id="color-45"><stop offset="0" stop-color="#413347"/><stop offset="1" stop-color="#413347" stop-opacity="0"/></radialGradient><radialGradient cx="359.24332" cy="163.73639" r="0.73325" gradientUnits="userSpaceOnUse" id="color-46"><stop offset="0" stop-color="#3b3148"/><stop offset="1" stop-color="#3b3148" stop-opacity="0"/></radialGradient><radialGradient cx="357.80298" cy="163.78877" r="0.41901" gradientUnits="userSpaceOnUse" id="color-47"><stop offset="0" stop-color="#3b3149"/><stop offset="1" stop-color="#3b3149" stop-opacity="0"/></radialGradient><radialGradient cx="360.63133" cy="162.47938" r="0.36663" gradientUnits="userSpaceOnUse" id="color-48"><stop offset="0" stop-color="#613a2f"/><stop offset="1" stop-color="#613a2f" stop-opacity="0"/></radialGradient><radialGradient cx="358.37911" cy="162.19132" r="0.39281" gradientUnits="userSpaceOnUse" id="color-49"><stop offset="0" stop-color="#433346"/><stop offset="1" stop-color="#433346" stop-opacity="0"/></radialGradient><radialGradient cx="360.57896" cy="164.12921" r="0.2095" gradientUnits="userSpaceOnUse" id="color-50"><stop offset="0" stop-color="#613a2f"/><stop offset="1" stop-color="#613a2f" stop-opacity="0"/></radialGradient><radialGradient cx="361.91454" cy="163.63165" r="0.15713" gradientUnits="userSpaceOnUse" id="color-51"><stop offset="0" stop-color="#613a2f"/><stop offset="1" stop-color="#613a2f" stop-opacity="0"/></radialGradient><radialGradient cx="354.89613" cy="162.53175" r="0.13094" gradientUnits="userSpaceOnUse" id="color-52"><stop offset="0" stop-color="#613a2f"/><stop offset="1" stop-color="#613a2f" stop-opacity="0"/></radialGradient><radialGradient cx="349.92045" cy="172.19508" r="0.86419" gradientUnits="userSpaceOnUse" id="color-53"><stop offset="0" stop-color="#613a2f"/><stop offset="1" stop-color="#613a2f" stop-opacity="0"/></radialGradient><radialGradient cx="349.84185" cy="170.8857" r="0.68088" gradientUnits="userSpaceOnUse" id="color-54"><stop offset="0" stop-color="#613a2f"/><stop offset="1" stop-color="#613a2f" stop-opacity="0"/></radialGradient><radialGradient cx="349.23955" cy="171.64513" r="0.68088" gradientUnits="userSpaceOnUse" id="color-55"><stop offset="0" stop-color="#613a2f"/><stop offset="1" stop-color="#613a2f" stop-opacity="0"/></radialGradient><radialGradient cx="349.26572" cy="172.82359" r="0.57613" gradientUnits="userSpaceOnUse" id="color-56"><stop offset="0" stop-color="#613a2f"/><stop offset="1" stop-color="#613a2f" stop-opacity="0"/></radialGradient><radialGradient cx="349.18715" cy="170.62382" r="0.18332" gradientUnits="userSpaceOnUse" id="color-57"><stop offset="0" stop-color="#613a2f"/><stop offset="1" stop-color="#613a2f" stop-opacity="0"/></radialGradient><radialGradient cx="350.75845" cy="172.01175" r="0.31426" gradientUnits="userSpaceOnUse" id="color-58"><stop offset="0" stop-color="#613a2f"/><stop offset="1" stop-color="#613a2f" stop-opacity="0"/></radialGradient><radialGradient cx="348.58486" cy="180.8371" r="0.78563" gradientUnits="userSpaceOnUse" id="color-59"><stop offset="0" stop-color="#613a2f"/><stop offset="1" stop-color="#613a2f" stop-opacity="0"/></radialGradient><radialGradient cx="348.58486" cy="179.9467" r="0.54994" gradientUnits="userSpaceOnUse" id="color-60"><stop offset="0" stop-color="#613a2f"/><stop offset="1" stop-color="#613a2f" stop-opacity="0"/></radialGradient><linearGradient x1="360.87366" y1="149.17403" x2="360.87366" y2="162.00534" gradientUnits="userSpaceOnUse" id="color-61"><stop offset="0" stop-color="#0a0a0a"/><stop offset="1" stop-color="#090909"/></linearGradient><radialGradient cx="358.87478" cy="175.31971" r="0.52686" gradientUnits="userSpaceOnUse" id="color-62"><stop offset="0" stop-color="#ffffff"/><stop offset="1" stop-color="#ffffff" stop-opacity="0"/></radialGradient></defs><g transform="translate(-321.83333,-129.5)"><g data-paper-data="{&quot;isPaintingLayer&quot;:true}" fill-rule="nonzero" stroke-linejoin="miter" stroke-miterlimit="10" stroke-dasharray="" stroke-dashoffset="0" style="mix-blend-mode: normal"><path d="M321.83333,230.5v-101h76.33333v101z" fill="#273042" stroke="none" stroke-width="0" stroke-linecap="butt"/><path d="M329.75471,196.83333v-61.66667h60.49068v61.66667z" fill="#0b0e13" stroke="none" stroke-width="0" stroke-linecap="butt"/><path d="M343.08356,227.33333v-17.33333h33.83333v17.33333z" fill="#0b0e13" stroke="#000000" stroke-width="0" stroke-linecap="butt"/><path d="M343.00003,209.125v-11.25h34.25v11.25z" fill="#273042" stroke="#000000" stroke-width="0" stroke-linecap="butt"/><text transform="translate(348.24465,223.17375) scale(0.37559,0.37559)" font-size="40" xml:space="preserve" fill="#43c749" fill-rule="nonzero" stroke="none" stroke-width="1" stroke-linecap="butt" stroke-linejoin="miter" stroke-miterlimit="10" stroke-dasharray="" stroke-dashoffset="0" font-family="&quot;Agency FB&quot;, Sans Serif" font-weight="normal" text-anchor="start" style="mix-blend-mode: normal"><tspan x="0" dy="0">EASY</tspan></text><g><g><path d="M369.90181,182.77075c0,2.99388 -4.14176,5.4209 -9.25088,5.4209c-5.10911,0 -9.25087,-2.42702 -9.25087,-5.4209c0,-2.99388 4.14175,-5.42089 9.25087,-5.42089c5.10911,0 9.25088,2.42702 9.25088,5.42089z" fill="#40261f" stroke="#291814" stroke-width="1" stroke-linecap="butt"/><g><g><g stroke="#292929" stroke-width="0.5"><path d="M354.72304,188.40821c-0.22677,-0.05775 -0.42858,-1.26362 -0.42858,-1.26362l2.31773,-9.10131c0,0 0.7976,-1.13365 1.02436,-1.0759c0.25522,0.065 0.4317,1.4467 0.4317,1.4467l-2.31773,9.10131c0,0 -0.77226,0.95781 -1.02748,0.89281z" fill="#686868" stroke-linecap="butt"/><path d="M355.63388,187.43632l-1.33718,-0.219" fill="none" stroke-linecap="round"/><path d="M357.86751,178.40473l-1.18353,-0.3014" fill="none" stroke-linecap="round"/><path d="M355.53602,182.6112l1.52608,-0.5228" fill="none" stroke-linecap="round"/><path d="M356.75052,180.1862c0.10321,0.02628 0.17061,0.11145 0.15055,0.19024c-0.02006,0.07879 -0.11999,0.12134 -0.2232,0.09506c-0.10321,-0.02629 -0.17062,-0.11146 -0.15055,-0.19025c0.02006,-0.07879 0.12,-0.12134 0.22321,-0.09506z" fill="#686868" stroke-linecap="butt"/><path d="M355.66487,184.70991c0.10321,0.02629 0.17061,0.11146 0.15055,0.19025c-0.02006,0.07879 -0.11999,0.12135 -0.2232,0.09506c-0.10321,-0.02628 -0.17061,-0.11145 -0.15054,-0.19024c0.02006,-0.07879 0.11999,-0.12135 0.2232,-0.09506z" fill="#686868" stroke-linecap="butt"/></g><g stroke="#292929"><path d="M359.33014,183.08138v-1.12608c0,0 0.29703,-0.36662 1.07371,-0.36662c0.86359,0 1.28321,0.36662 1.28321,0.36662v1.12608z" fill="#484848" stroke-width="0.5" stroke-linecap="butt"/><g stroke-width="0.5"><path d="M360.51859,189.00058c-0.26336,0.00133 -0.781,-1.11484 -0.781,-1.11484l-0.04738,-9.39167c0,0 0.50546,-1.29798 0.76882,-1.29931c0.234,-0.00118 0.73368,1.29173 0.73368,1.29173l0.04739,9.39167c0,0 -0.48751,1.12125 -0.72152,1.12242z" fill="#686868" stroke-linecap="butt"/><path d="M361.22036,187.94819l-1.35044,-0.11095" fill="none" stroke-linecap="round"/><path d="M359.88726,178.53356l1.22129,-0.00616" fill="none" stroke-linecap="round"/><path d="M359.77772,182.30266l1.35429,0.87642" fill="none" stroke-linecap="round"/><path d="M360.54015,180.53231c0.1065,-0.00054 0.19317,0.06493 0.19357,0.14623c0.00041,0.0813 -0.0856,0.14764 -0.19209,0.14818c-0.1065,0.00054 -0.19316,-0.06493 -0.19357,-0.14623c-0.00041,-0.0813 0.08558,-0.14763 0.19209,-0.14817z" fill="#686868" stroke-linecap="butt"/><path d="M360.49934,185.18431c0.1065,-0.00054 0.19317,0.06493 0.19358,0.14623c0.00041,0.0813 -0.08559,0.14764 -0.19209,0.14818c-0.1065,0.00054 -0.19317,-0.06493 -0.19357,-0.14623c-0.00041,-0.0813 0.08559,-0.14764 0.19209,-0.14818z" fill="#686868" stroke-linecap="butt"/></g><path d="M359.51352,182.63618l-0.13094,-0.78563c0,0 0.44877,0.13093 1.04752,0.13093c0.49829,0 1.17845,-0.13093 1.17845,-0.13093l-0.13094,0.78563z" fill="#575757" stroke-width="0.25" stroke-linecap="butt"/><path d="M359.31094,184.06087v-2.08755c0,0 0.38777,0.29521 1.07745,0.29521c0.77769,0 1.3179,-0.29521 1.3179,-0.29521l-0.02618,2.08755c0,0 -0.9235,0.12857 -1.33456,0.12857c-0.37543,0 -1.03459,-0.12857 -1.03459,-0.12857z" fill="#4c4c4c" stroke-width="0.5" stroke-linecap="butt"/></g><g stroke="#292929" stroke-width="0.5"><path d="M366.25316,187.51783c-0.25522,0.065 -1.02748,-0.89281 -1.02748,-0.89281l-2.31772,-9.10131c0,0 0.17647,-1.3817 0.4317,-1.4467c0.22677,-0.05775 1.02436,1.0759 1.02436,1.0759l2.31773,9.10131c0,0 -0.20181,1.20587 -0.42858,1.26361z" fill="#686868" stroke-linecap="butt"/><path d="M366.67952,186.32693l-1.33718,0.219" fill="none" stroke-linecap="round"/><path d="M363.1087,177.51435l1.18353,-0.30139" fill="none" stroke-linecap="round"/><path d="M365.44019,181.72081l-1.52608,-0.5228" fill="none" stroke-linecap="round"/><path d="M364.22567,179.29581c0.10321,-0.02629 0.20315,0.01628 0.22321,0.09506c0.02006,0.07879 -0.04734,0.16396 -0.15055,0.19025c-0.10321,0.02628 -0.20314,-0.01629 -0.2232,-0.09507c-0.02006,-0.07879 0.04734,-0.16395 0.15054,-0.19024z" fill="#686868" stroke-linecap="butt"/><path d="M365.31134,183.81952c0.10321,-0.02629 0.20314,0.01628 0.2232,0.09506c0.02006,0.07879 -0.04733,0.16396 -0.15054,0.19025c-0.10321,0.02629 -0.20314,-0.01628 -0.22321,-0.09507c-0.02006,-0.07879 0.04734,-0.16396 0.15055,-0.19025z" fill="#686868" stroke-linecap="butt"/></g><path d="M353.52203,186.24451v-13.1987h14.41082v13.1987z" fill="url(#color-1)" stroke="none" stroke-width="0" stroke-linecap="butt"/><g><g><g><g><g stroke="#291814" stroke-width="1" stroke-linecap="butt"><path d="M373.71163,180.8806c-0.01614,2.18401 -0.93502,4.92647 -2.71201,7.24854c-2.05811,2.68943 -5.31327,4.81494 -10.38399,4.85584c-0.65668,0.0053 -0.27784,0.7128 -0.88385,0.64434c-0.30049,-0.03394 -1.60487,-0.81728 -1.89297,-0.86812c-0.29994,-0.05293 0.14757,0.96265 -0.13898,0.89232c-0.38644,-0.09485 -1.50149,-1.28256 -1.8637,-1.40709c-1.64648,-0.56609 -3.04333,-1.42709 -4.19638,-2.47633c-2.93041,-2.66658 -3.97205,-6.43116 -4.08533,-8.58191c-0.26409,-15.2593 26.25149,-13.06484 26.15722,-0.30757zM360.43444,187.14711c1.89961,0 8.95625,-2.8142 8.95625,-4.71382c0,-1.82236 -5.16981,-4.87095 -10.68466,-4.87095c-4.72921,0 -6.28509,4.54128 -6.28509,6.36365c0,1.82236 6.19113,3.22111 8.01349,3.22111z" fill="#724538"/><path d="M371.34062,179.89246c0,2.4901 -0.33389,6.08745 -3.18347,8.35269c-1.57885,1.2551 -3.84834,2.10126 -7.45533,2.12356c-4.26493,0.0263 -6.78534,-1.30087 -8.37269,-3.06187c-2.07434,-2.30123 -2.4719,-5.34332 -2.24186,-7.074c0.10505,-0.98429 1.93339,-3.42156 9.83059,-3.29917c9.17583,-0.05975 11.42275,2.17175 11.42275,2.9588zM360.12017,186.20435c2.9571,-0.03697 7.18184,-0.50307 7.1493,-3.69249c-0.03255,-3.18942 -3.90647,-4.02629 -7.22786,-4.00675c-3.32139,0.01953 -6.15767,1.17429 -6.12797,4.08532c0.0297,2.91102 3.24942,3.65089 6.20652,3.61392z" fill="#4d2e26"/></g><g><path d="M351.66947,183.82177c0,0 0.30023,-0.00522 0.41825,-0.04844c0.16766,-0.06141 0.29186,0.00313 0.41512,0.14229c0.40109,0.4528 1.42676,1.59049 2.97477,2.44952c1.34789,0.74798 3.55975,1.39254 5.20318,1.32505c1.72589,-0.05622 3.57442,-0.53068 5.03559,-1.29306c1.63276,-0.8519 2.70028,-1.99404 3.10632,-2.4762c0.13874,-0.16475 0.28886,-0.20135 0.48703,-0.14691c0.12682,0.03484 0.41215,0.11322 0.41215,0.11322c0,0 -0.85887,1.27787 -2.47181,2.44701c-1.62138,1.17525 -4.00358,2.24187 -6.60787,2.2665c-5.74333,0.05433 -8.97273,-4.77898 -8.97273,-4.77898z" fill="#a5a5a5" stroke="#585858" stroke-width="0.5" stroke-linecap="butt"/><path d="M351.60769,184.39526c0,0 0,-0.08766 0,-0.3816c0,-0.25086 0.21796,-0.24152 0.35793,-0.04335c0.46821,0.6629 1.41112,1.7898 2.91816,2.70468c1.39864,0.84909 3.47516,1.43121 5.54832,1.53683c2.3481,-0.02502 4.54162,-0.7047 6.03894,-1.59838c1.43002,-0.8535 2.35272,-1.86711 2.84329,-2.50666c0.15942,-0.20783 0.4326,-0.36495 0.4326,-0.09314c0,0.29753 0,0.44894 0,0.44894c0,0 -0.28298,1.57761 -1.89181,2.83918c-1.50764,1.18221 -4.2244,2.05408 -7.66793,2.03936c-2.50128,-0.0107 -4.80275,-0.80317 -6.14947,-1.7507c-2.02224,-1.42279 -2.43,-3.19517 -2.43,-3.19517z" fill="#e8e8e8" stroke="#585858" stroke-width="0.5" stroke-linecap="butt"/><path d="M352.85175,185.53257l0.02228,0.68089" fill="none" stroke="#a3a3a3" stroke-width="0.35" stroke-linecap="round"/><path d="M354.52859,186.89673l0.02229,0.68088" fill="none" stroke="#a3a3a3" stroke-width="0.35" stroke-linecap="round"/><path d="M356.57872,188.48465l-0.02229,-0.68089" fill="none" stroke="#a3a3a3" stroke-width="0.35" stroke-linecap="round"/><path d="M358.81825,188.36086l0.02229,0.68088" fill="none" stroke="#a3a3a3" stroke-width="0.35" stroke-linecap="round"/><path d="M361.43111,188.44656l0.02228,0.68089" fill="none" stroke="#a3a3a3" stroke-width="0.35" stroke-linecap="round"/><path d="M364.14419,188.65607l-0.02229,-0.68088" fill="none" stroke="#a3a3a3" stroke-width="0.35" stroke-linecap="round"/><path d="M366.40603,187.83829l-0.02229,-0.68088" fill="none" stroke="#a3a3a3" stroke-width="0.35" stroke-linecap="round"/><path d="M368.45059,185.61827l0.02229,0.68089" fill="none" stroke="#a3a3a3" stroke-width="0.35" stroke-linecap="round"/></g></g><path d="M349.56167,181.52283c0,0.74382 -0.42209,1.34681 -0.94277,1.34681c-0.52067,0 -0.94276,-0.60299 -0.94276,-1.34681c0,-0.74382 0.42209,-1.3468 0.94276,-1.3468c0.52067,0 0.94277,0.60298 0.94277,1.3468z" fill="url(#color-2)" stroke="none" stroke-width="0" stroke-linecap="butt"/><path d="M353.56841,176.14571c0,0.61179 -0.50651,1.10774 -1.13131,1.10774c-0.62481,0 -1.13132,-0.49595 -1.13132,-1.10774c0,-0.61179 0.50651,-1.10774 1.13132,-1.10774c0.62481,0 1.13131,0.49595 1.13131,1.10774z" fill="url(#color-3)" stroke="none" stroke-width="0" stroke-linecap="butt"/><path d="M350.78725,177.88982c0,0.58576 -0.39043,1.06061 -0.87205,1.06061c-0.48163,0 -0.87206,-0.47485 -0.87206,-1.06061c0,-0.58576 0.39044,-1.06061 0.87206,-1.06061c0.48163,0 0.87205,0.47485 0.87205,1.06061z" fill="url(#color-4)" stroke="none" stroke-width="0" stroke-linecap="butt"/><path d="M349.18455,179.72821c0,0.27336 -0.21105,0.49496 -0.47138,0.49496c-0.26033,0 -0.47138,-0.2216 -0.47138,-0.49496c0,-0.27336 0.21105,-0.49495 0.47138,-0.49495c0.26033,0 0.47138,0.22159 0.47138,0.49495z" fill="url(#color-5)" stroke="none" stroke-width="0" stroke-linecap="butt"/><path d="M348.996,178.62047c0,0.1562 -0.08442,0.28283 -0.18855,0.28283c-0.10413,0 -0.18856,-0.12663 -0.18856,-0.28283c0,-0.1562 0.08442,-0.28283 0.18856,-0.28283c0.10413,0 0.18855,0.12662 0.18855,0.28283z" fill="url(#color-6)" stroke="none" stroke-width="0" stroke-linecap="butt"/><path d="M356.25528,190.64071c0,0.36447 -0.24271,0.65993 -0.54209,0.65993c-0.29939,0 -0.54209,-0.29546 -0.54209,-0.65993c0,-0.36447 0.2427,-0.65994 0.54209,-0.65994c0.29939,0 0.54209,0.29547 0.54209,0.65994z" fill="url(#color-7)" stroke="none" stroke-width="0" stroke-linecap="butt"/><path d="M355.97245,190.7114c0,0.45559 -0.34822,0.82492 -0.77778,0.82492c-0.42956,0 -0.77778,-0.36933 -0.77778,-0.82492c0,-0.45559 0.34822,-0.82492 0.77778,-0.82492c0.42956,0 0.77778,0.36933 0.77778,0.82492z" fill="url(#color-8)" stroke="none" stroke-width="0" stroke-linecap="butt"/><path d="M354.69973,190.05148c0,0.32542 -0.18994,0.58923 -0.42425,0.58923c-0.2343,0 -0.42424,-0.26381 -0.42424,-0.58923c0,-0.32542 0.18994,-0.58923 0.42424,-0.58923c0.2343,0 0.42425,0.2638 0.42425,0.58923z" fill="url(#color-9)" stroke="none" stroke-width="0" stroke-linecap="butt"/><path d="M357.2509,191.06494c0,0.41655 -0.29674,0.75421 -0.66279,0.75421c-0.36605,0 -0.66279,-0.33766 -0.66279,-0.75421c0,-0.41655 0.29674,-0.75421 0.66279,-0.75421c0.36605,0 0.66279,0.33767 0.66279,0.75421z" fill="url(#color-10)" stroke="none" stroke-width="0" stroke-linecap="butt"/><path d="M354.60544,190.64071c0,0.13017 -0.16884,0.23569 -0.37711,0.23569c-0.20827,0 -0.3771,-0.10552 -0.3771,-0.23569c0,-0.13017 0.16884,-0.2357 0.3771,-0.2357c0.20827,0 0.37711,0.10553 0.37711,0.2357z" fill="url(#color-11)" stroke="none" stroke-width="0" stroke-linecap="butt"/><path d="M353.75697,189.50938c0,0.05207 -0.07387,0.09428 -0.16498,0.09428c-0.09112,0 -0.16499,-0.0422 -0.16499,-0.09428c0,-0.05207 0.07387,-0.09428 0.16499,-0.09428c0.09112,0 0.16498,0.0422 0.16498,0.09428z" fill="url(#color-12)" stroke="none" stroke-width="0" stroke-linecap="butt"/><path d="M357.7637,191.93701c0,0.09112 -0.06332,0.16498 -0.14141,0.16498c-0.0781,0 -0.14141,-0.07387 -0.14141,-0.16498c0,-0.09112 0.06331,-0.16498 0.14141,-0.16498c0.0781,0 0.14141,0.07386 0.14141,0.16498z" fill="url(#color-13)" stroke="none" stroke-width="0" stroke-linecap="butt"/><path d="M373.3665,181.49589c0,0.44258 -0.35878,0.80135 -0.80135,0.80135c-0.44258,0 -0.80135,-0.35877 -0.80135,-0.80135c0,-0.44258 0.35877,-0.80135 0.80135,-0.80135c0.44258,0 0.80135,0.35877 0.80135,0.80135z" fill="url(#color-14)" stroke="none" stroke-width="0" stroke-linecap="butt"/><path d="M372.94226,183.28715c0,0.54671 -0.34822,0.9899 -0.77778,0.9899c-0.42956,0 -0.77778,-0.44319 -0.77778,-0.9899c0,-0.54671 0.34823,-0.9899 0.77778,-0.9899c0.42956,0 0.77778,0.4432 0.77778,0.9899z" fill="url(#color-15)" stroke="none" stroke-width="0" stroke-linecap="butt"/><path d="M372.84797,182.39152c0,0.4686 -0.28491,0.84849 -0.63636,0.84849c-0.35145,0 -0.63636,-0.37988 -0.63636,-0.84849c0,-0.4686 0.28491,-0.84849 0.63636,-0.84849c0.35145,0 0.63636,0.37989 0.63636,0.84849z" fill="url(#color-16)" stroke="none" stroke-width="0" stroke-linecap="butt"/><path d="M372.14091,184.44203c0,0.22128 -0.17939,0.40067 -0.40067,0.40067c-0.22129,0 -0.40067,-0.17939 -0.40067,-0.40067c0,-0.22128 0.17939,-0.40067 0.40067,-0.40067c0.22129,0 0.40067,0.17939 0.40067,0.40067z" fill="url(#color-17)" stroke="none" stroke-width="0" stroke-linecap="butt"/><path d="M371.81094,183.38142c0,0.07809 -0.09497,0.14141 -0.21212,0.14141c-0.11715,0 -0.21213,-0.06332 -0.21213,-0.14141c0,-0.07809 0.09498,-0.14141 0.21213,-0.14141c0.11715,0 0.21212,0.06332 0.21212,0.14141z" fill="url(#color-18)" stroke="none" stroke-width="0" stroke-linecap="butt"/><path d="M372.7537,184.53631c0,0.06508 -0.05275,0.11785 -0.11784,0.11785c-0.06508,0 -0.11785,-0.05276 -0.11785,-0.11785c0,-0.06508 0.05276,-0.11784 0.11785,-0.11784c0.06508,0 0.11784,0.05275 0.11784,0.11784z" fill="url(#color-19)" stroke="none" stroke-width="0" stroke-linecap="butt"/><path d="M367.23854,190.00433c0,0.09112 -0.08442,0.16498 -0.18855,0.16498c-0.10413,0 -0.18856,-0.07386 -0.18856,-0.16498c0,-0.09112 0.08442,-0.16499 0.18856,-0.16499c0.10413,0 0.18855,0.07387 0.18855,0.16499z" fill="url(#color-20)" stroke="none" stroke-width="0" stroke-linecap="butt"/><path d="M367.94561,189.86292c0,0.06508 -0.06332,0.11785 -0.14141,0.11785c-0.0781,0 -0.14141,-0.05276 -0.14141,-0.11785c0,-0.06508 0.06331,-0.11784 0.14141,-0.11784c0.0781,0 0.14141,0.05275 0.14141,0.11784z" fill="url(#color-21)" stroke="none" stroke-width="0" stroke-linecap="butt"/></g><path d="M366.34311,190.21439l0.05971,0.5719c0,0 -0.22128,-0.3219 -0.36788,-0.15966c-0.11649,0.12891 -0.08402,0.89452 -0.08402,0.89452c0,0 -0.29589,-0.65249 -0.44093,-0.53328c-0.06849,0.0563 -0.25335,0.93662 -0.25335,0.93662l-0.49573,-0.57828" fill="none" stroke="#543129" stroke-width="0.5" stroke-linecap="round"/></g><path d="M347.84824,180.02614c0.22065,-2.15823 2.65908,-1.06363 2.65908,-1.06363c0,0 -0.71312,0.38082 -0.71312,2.5503c0,0.66064 0.23332,1.89678 0.61953,2.94361c0.20403,0.55302 0.51655,1.37846 0.87676,1.8889c0.29228,0.41417 0.71323,0.81194 0.86284,1.18944c0.46312,1.16863 0.11162,1.78606 -0.44943,1.78606c-0.46819,0 -1.47616,-1.13707 -2.24131,-2.54468c-0.8379,-1.54144 -1.42074,-3.4073 -1.55955,-4.45963c-0.11035,-0.83655 -0.12732,-1.58103 -0.0548,-2.29038z" fill="url(#color-22)" stroke="none" stroke-width="0" stroke-linecap="butt"/><path d="M373.40541,179.41675c0.06539,0.71988 0.05007,1.47542 -0.04942,2.32439c-0.12515,1.06796 -0.65061,2.96152 -1.40605,4.52585c-0.68984,1.42851 -2.85564,3.78709 -3.27776,3.78709c-0.50584,0 -0.48229,-0.70516 -0.06475,-1.89115c0.05625,-0.15976 0.4989,-0.48478 0.83179,-0.90099c0.46538,-0.58184 0.86622,-1.29192 1.01984,-1.53696c0.32477,-0.51801 0.4494,-1.25094 0.63335,-1.81218c0.3482,-1.06238 0.55855,-2.31687 0.55855,-2.98732c0,-0.68508 -0.12984,-1.1589 -0.23655,-1.48662c-0.23625,-0.72549 -0.56351,-0.83966 -0.56351,-0.83966c0,0 2.35557,-1.37273 2.55451,0.81754z" fill="url(#color-23)" stroke="none" stroke-width="0" stroke-linecap="butt"/></g></g><g><path d="M370.45053,182.33372c0,0.213 -0.27882,0.47138 -0.7285,0.47138c-0.44967,0 -0.8142,-0.21553 -0.8142,-0.42853c0,-0.213 0.36453,-0.38567 0.8142,-0.38567c0.44967,0 0.7285,0.12982 0.7285,0.34282z" fill="url(#color-24)" stroke="#291814" stroke-width="0.5" stroke-linecap="butt"/><g stroke="#292929"><path d="M368.34403,177.43727l-0.14516,-1.11669c0,0 0.12907,-0.38649 0.59014,-0.44643c0.51268,-0.06664 0.80904,0.26455 0.80904,0.26455l0.14516,1.11668z" fill="#484848" stroke-width="0.5" stroke-linecap="butt"/><g stroke-width="0.5"><path d="M369.2052,182.17011l-1.23878,-9.30965l0.89099,-0.12348l1.23879,9.30965c0,0 0.0962,0.35117 -0.38169,0.41445c-0.52038,0.06891 -0.5093,-0.29098 -0.5093,-0.29098z" fill="#686868" stroke-linecap="butt"/><path d="M370.09349,182.1176l-0.81599,-0.00581" fill="none" stroke-linecap="round"/><path d="M368.50932,176.63051l0.91696,0.7646" fill="none" stroke-linecap="round"/><path d="M368.73371,174.81607c0.06316,-0.00876 0.12305,0.04949 0.13377,0.13008c0.01073,0.08059 -0.03179,0.15301 -0.09494,0.16177c-0.06316,0.00875 -0.12304,-0.04948 -0.13376,-0.13007c-0.01073,-0.08059 0.03178,-0.15302 0.09493,-0.16177z" fill="#686868" stroke-linecap="butt"/><path d="M369.30917,179.43243c0.06316,-0.00876 0.12305,0.04949 0.13377,0.13007c0.01073,0.08059 -0.03178,0.15302 -0.09494,0.16177c-0.06316,0.00876 -0.12303,-0.04948 -0.13376,-0.13007c-0.01073,-0.08059 0.03177,-0.15302 0.09493,-0.16177z" fill="#686868" stroke-linecap="butt"/></g><path d="M368.39546,176.98163l-0.17901,-0.76898c0,0 0.2833,0.09521 0.63874,0.04901c0.29581,-0.03846 0.68271,-0.22079 0.68271,-0.22079l0.02354,0.78919z" fill="#575757" stroke-width="0.25" stroke-linecap="butt"/><path d="M368.45889,178.41006l-0.2691,-2.07013c0,0 0.26826,0.26282 0.67768,0.2096c0.46168,-0.06001 0.74432,-0.39445 0.74432,-0.39445l0.25355,2.07216c0,0 -0.53166,0.19876 -0.77569,0.23047c-0.22287,0.02897 -0.63076,-0.04765 -0.63076,-0.04765z" fill="#4c4c4c" stroke-width="0.5" stroke-linecap="butt"/></g></g><g><path d="M351.60726,182.10481c0.44967,0 0.8142,0.17267 0.8142,0.38568c0,0.213 -0.36453,0.42853 -0.8142,0.42853c-0.44967,0 -0.72851,-0.25838 -0.72851,-0.47138c0,-0.213 0.27883,-0.34282 0.72851,-0.34282z" fill="url(#color-25)" stroke="#291814" stroke-width="0.5" stroke-linecap="butt"/><g stroke="#292929"><path d="M351.58608,177.3693l0.14515,-1.11669c0,0 0.29636,-0.33119 0.80904,-0.26454c0.46107,0.05993 0.59014,0.44643 0.59014,0.44643l-0.14515,1.11668z" fill="#484848" stroke-width="0.5" stroke-linecap="butt"/><g stroke-width="0.5"><path d="M351.61478,182.575c-0.47789,-0.06329 -0.38169,-0.41445 -0.38169,-0.41445l1.2388,-9.30965l0.89099,0.12347l-1.23879,9.30965c0,0 0.01107,0.35988 -0.50931,0.29098z" fill="#686868" stroke-linecap="butt"/><path d="M352.0518,182.22571l-0.816,0.00581" fill="none" stroke-linecap="round"/><path d="M351.90304,177.50902l0.91695,-0.7646" fill="none" stroke-linecap="round"/><path d="M352.59558,174.93001c0.06316,0.00875 0.10566,0.08118 0.09493,0.16176c-0.01073,0.08059 -0.07061,0.13882 -0.13376,0.13007c-0.06316,-0.00876 -0.10567,-0.08118 -0.09494,-0.16177c0.01072,-0.08059 0.07061,-0.13883 0.13377,-0.13008z" fill="#686868" stroke-linecap="butt"/><path d="M352.0201,179.54633c0.06316,0.00876 0.10566,0.08118 0.09493,0.16177c-0.01073,0.08059 -0.0706,0.13883 -0.13376,0.13008c-0.06316,-0.00875 -0.10566,-0.08118 -0.09494,-0.16177c0.01072,-0.08058 0.07061,-0.13883 0.13377,-0.13007z" fill="#686868" stroke-linecap="butt"/></g><path d="M351.76784,176.94398l0.02353,-0.78918c0,0 0.38691,0.18233 0.68272,0.22079c0.35544,0.0462 0.63873,-0.04901 0.63873,-0.04901l-0.17901,0.76897z" fill="#575757" stroke-width="0.25" stroke-linecap="butt"/><path d="M352.23964,178.57164c-0.24403,-0.03172 -0.77569,-0.23047 -0.77569,-0.23047l0.25356,-2.07215c0,0 0.28264,0.33443 0.74432,0.39444c0.40942,0.05322 0.67768,-0.20961 0.67768,-0.20961l-0.2691,2.07014c0,0 -0.40789,0.07662 -0.63076,0.04765z" fill="#4c4c4c" stroke-width="0.5" stroke-linecap="butt"/></g></g></g></g><g><g stroke-width="0.5" stroke-linecap="butt"><path d="M367.58817,162.52369c-0.9512,-0.94779 0.68997,-2.52839 2.33812,-4.4584c0.7369,-0.86292 1.55059,-1.92772 1.90029,-2.83563c0.10604,-0.27533 -0.85962,-1.96774 -0.48937,-2.50284c0.44727,-0.64641 1.30312,1.54121 1.41482,1.39866c0.73512,-0.93817 1.52701,-1.99317 2.09574,-3.15772c0.32318,-0.66176 -1.57968,-0.90836 -3.2649,-3.0004c-1.23063,-1.5277 -1.96843,-2.30398 -2.12054,-3.173c-0.05271,-0.30115 0.01798,-0.5384 0.12065,-0.25043c0.50442,1.41476 1.37601,1.88571 2.44893,2.95085c1.0305,1.02303 4.3839,1.87428 5.07721,-0.0013c0.59085,-1.59841 0.90021,-3.10744 1.19688,-4.42171c0.08781,-0.38904 -2.06649,-2.96847 -1.82489,-3.23439c0.42752,-0.47053 1.20682,0.53974 1.74707,0.94396c0.24412,0.18266 0.53322,0.054 0.55536,-0.06361c0.29911,-1.58957 0.46541,-2.51448 0.81641,-2.35746c0.15039,0.06727 0.22962,0.0342 0.30669,0.63598c0.33607,2.62395 0.37485,7.36358 -1.88586,12.72376c-0.51798,1.22814 -1.17361,2.33778 -1.88176,3.32654c-0.07144,0.09975 0.67371,1.60846 1.60076,1.95528c0.30752,0.11505 0.69961,0.03633 1.13334,-0.15875c0.18014,-0.08102 0.2422,-0.80173 0.58851,-1.58333c0.40233,-0.90804 0.48807,-1.22485 0.71675,-1.38968c0.16703,-0.12039 -0.15599,0.97335 -0.17888,1.65659c-0.01706,0.50922 0.85839,-0.00272 0.97962,-0.0999c1.24257,-0.99604 2.31632,-1.9865 2.38355,-1.46052c0.09025,0.70605 -1.69524,3.04595 -3.1334,4.17461c-0.88322,0.69315 -2.3014,1.07372 -2.82578,1.10622c-2.08902,0.12949 -3.14345,-1.92988 -3.24521,-1.83456c-0.46852,0.43886 -0.65206,1.13197 -1.19457,1.61817c-1.06523,0.95469 -4.01056,4.85313 -5.37556,3.49303z" fill="url(#color-26)" stroke="#150c0a"/><path d="M375.11926,152.66478c0.08391,0.08274 0.00117,0.16665 0.00117,0.16665l-0.13114,0.13225c-0.80709,1.15045 -1.66483,2.44306 -2.41609,3.69239c-0.72336,1.08175 -1.77755,1.6784 -2.63855,2.57328c0,0 -0.08334,0.08333 -0.16667,0c-0.08333,-0.08333 0,-0.16666 0,-0.16666c0.88401,-0.85876 1.89529,-1.46294 2.60611,-2.53274c0.76518,-1.27326 1.6575,-2.51116 2.43241,-3.71505l0.14611,-0.14894c0,0 0.08274,-0.08392 0.16665,-0.00118z" fill="#2d1b16" stroke="none"/><path d="M379.21163,144.14597c0.11785,0 0.11785,0.11785 0.11785,0.11785v0.13467c0,0.75375 -0.21877,1.27345 -0.55117,1.93823c0,0 -0.0183,0.03661 -0.0549,0.05588c0,0.31224 0,0.68755 0,0.96886c0,1.52521 -1.37743,2.94869 -1.9729,4.30816c-0.54244,0.55822 -0.68274,1.48813 -0.9602,2.19089c-0.27221,0.68947 -0.81639,1.24626 -1.06743,1.92394c-0.81466,0.96807 -1.29026,1.93625 -2.46194,2.5242c0,0 -0.1054,0.0527 -0.15811,-0.0527c-0.05271,-0.1054 0.05271,-0.15811 0.05271,-0.15811c1.12974,-0.56262 1.57191,-1.50694 2.36363,-2.43195c0.24064,-0.66745 0.78569,-1.21386 1.05183,-1.89173c0.27925,-0.71126 0.42566,-1.67894 0.98388,-2.23599c0.55498,-1.33 1.93284,-2.69699 1.93284,-4.17671c0,-0.3367 0,-0.6734 0,-1.01011v-0.13467c0,0 0,-0.11785 0.11785,-0.11785c0.00961,0 0.01842,0.00078 0.02652,0.00222c0.28049,-0.5717 0.4617,-1.03438 0.4617,-1.70256v-0.13468c0,0 0,-0.11785 0.11784,-0.11785z" fill="#2d1b16" stroke="none"/><path d="M377.90306,147.38469c0.11147,0.03824 0.07324,0.1497 0.07324,0.1497l-0.05091,0.14451c-0.31801,0.44323 -0.4959,0.96868 -0.81881,1.41538c-0.47256,0.47631 -0.6926,1.16744 -1.185,1.6546c-0.35542,0.35163 -0.91631,0.71729 -1.11633,1.1771c0,0 -0.0527,0.1054 -0.15811,0.0527c-0.10541,-0.05271 -0.05271,-0.15811 -0.05271,-0.15811c0.46281,-0.85564 1.61963,-2.158 2.33228,-2.87859c0.31063,-0.4324 0.48039,-0.94377 0.78932,-1.37133l0.03732,-0.11272c0,0 0.03824,-0.11147 0.14971,-0.07323z" fill="#2d1b16" stroke="none"/><path d="M371.55168,148.03488c0,-0.11785 0.11784,-0.11784 0.11784,-0.11784l0.22915,0.04738c0.06278,0.09328 0.18385,0.14126 0.29345,0.16636c0.71033,0.53578 2.87253,0.67692 2.89491,1.72229c0,0 0,0.11785 -0.11784,0.11785c-0.11785,0 -0.11785,-0.11785 -0.11785,-0.11785c0.02368,-0.78606 -2.20669,-1.07644 -2.76166,-1.51003c-0.14427,-0.03876 -0.28695,-0.12077 -0.37995,-0.23769l-0.04022,0.04739c0,0 -0.11785,0 -0.11785,-0.11785z" fill="#2d1b16" stroke="none"/><path d="M377.5574,140.97878c0.05271,-0.1054 0.15811,-0.0527 0.15811,-0.0527l0.12707,0.06386c0.92453,0.31497 1.8236,-0.3054 1.8236,1.08532c0,1.10512 -0.89929,2.43762 -1.5724,3.3367c0,0 -0.07071,0.09428 -0.16498,0.02357c-0.09428,-0.07071 -0.02357,-0.16498 -0.02357,-0.16498c0.64138,-0.85355 1.52526,-2.14837 1.52526,-3.19529c0,-1.18259 -0.83858,-0.59248 -1.6781,-0.86756l-0.14229,-0.07081c0,0 -0.10541,-0.0527 -0.0527,-0.15811z" fill="#2d1b16" stroke="none"/><path d="M377.90146,141.63953c0.06537,-0.09805 0.16342,-0.03268 0.16342,-0.03268l0.00592,0.00394c0.40657,0.27384 0.78223,0.51067 0.5055,1.08958c0,0 -0.05269,0.1054 -0.1581,0.05271c-0.10541,-0.05271 -0.05271,-0.15811 -0.05271,-0.15811c0.24048,-0.45176 -0.12995,-0.59285 -0.42543,-0.78806l-0.00592,-0.00394c0,0 -0.09805,-0.06537 -0.03269,-0.16343z" fill="#2d1b16" stroke="none"/><path d="M381.95575,155.71167c0,0.11785 -0.11785,0.11784 -0.11785,0.11784l-0.05128,-0.0011c-0.03928,0.00478 -0.07883,0.01054 -0.11861,0.0172c0.01103,0.01657 0.01838,0.03865 0.01838,0.06807c0,0.08964 -0.0682,0.1111 -0.10083,0.11623c-0.49226,1.36587 -1.80984,2.48373 -3.31186,1.73452c-0.80018,-0.6141 -1.97275,-1.35614 -2.88583,-1.81268c0,0 -0.1054,-0.0527 -0.0527,-0.15811c0.05271,-0.1054 0.15811,-0.0527 0.15811,-0.0527c0.92064,0.46032 2.09933,1.20504 2.90544,1.82369c1.37917,0.69187 2.55658,-0.42098 2.98002,-1.65658c-0.67106,0.17495 -1.38391,0.55388 -1.97971,0.85178c0,0 -0.10541,0.0527 -0.15812,-0.05271c-0.05271,-0.1054 0.05271,-0.15811 0.05271,-0.15811c0.75565,-0.37783 1.64015,-0.83131 2.46089,-0.9541l0.0834,-0.0011c0,0 0.11785,0 0.11785,0.11785z" fill="#2d1b16" stroke="none"/><path d="M377.83555,158.12128c-0.05271,0.1054 -0.15811,0.0527 -0.15811,0.0527l-0.12707,-0.06387c-0.95315,-0.31756 -1.54407,-0.98274 -2.30984,-1.49231c0,0 -0.09806,-0.06537 -0.03268,-0.16342c0.06537,-0.09805 0.16342,-0.03268 0.16342,-0.03268c0.75849,0.50665 1.3293,1.15718 2.2693,1.47066l0.14229,0.07081c0,0 0.10541,0.0527 0.05271,0.15811z" fill="#2d1b16" stroke="none"/><path d="M371.72087,153.74282c0.08333,-0.08333 0.16666,0 0.16666,0l0.06734,0.06734c0.19247,0.2077 0.26767,0.48157 0.15676,0.74209c0,0 -0.0527,0.10541 -0.15811,0.0527c-0.10541,-0.0527 -0.0527,-0.15811 -0.0527,-0.15811c0.08333,-0.12444 0.00194,-0.36881 -0.1126,-0.47003l-0.06734,-0.06734c0,0 -0.08333,-0.08333 0,-0.16666z" fill="#2d1b16" stroke="none"/></g><g stroke-width="0.5" stroke-linecap="butt"><path d="M354.63633,153.19864c-0.77803,2.22768 -1.70253,5.36062 -2.62045,6.14873c-0.50828,0.4364 -0.58039,-0.56433 -0.83269,-0.66907c-0.61845,-0.25674 0.62928,-1.92332 1.76054,-4.64802c0.07331,-0.17657 -2.12181,-1.87419 -1.51048,-2.95222c0.11667,-0.20575 0.7287,1.18063 1.32119,1.68147c0.32731,0.27669 0.63711,0.10832 0.66714,0.02232c0.51997,-1.48879 0.85961,-2.89742 1.07785,-4.01939c0.04226,-0.2173 -1.47342,-1.24228 -0.98631,-1.82277c0.1285,-0.15314 0.14212,0.2116 0.55173,0.54383c0.32817,0.26618 0.60796,0.302 0.61721,0.24338c0.04349,-0.27554 0.07754,-0.5179 0.10384,-0.72123c0.0571,-0.44143 0.41583,-0.13259 0.48033,0.29644c0.19441,1.29303 0.15762,3.64177 -0.62989,5.89655z" fill="#35201a" stroke="#150c0a"/><path d="M348.48423,159.03066c-0.5425,-0.4862 -2.22436,-3.62039 -2.69288,-4.05926c-0.10176,-0.09531 -1.17303,1.74522 -3.26205,1.61572c-0.52438,-0.0325 -1.87522,-0.41308 -2.75844,-1.10623c-1.43815,-1.12865 -3.22365,-3.46856 -3.13339,-4.17461c0.06723,-0.52597 1.14098,0.46449 2.38355,1.46053c0.12123,0.09717 0.99668,0.60913 0.97962,0.0999c-0.02289,-0.68324 -0.34591,-1.77699 -0.17888,-1.65661c0.22868,0.16483 0.31441,0.48165 0.71675,1.38969c0.34631,0.7816 0.40837,1.5023 0.58851,1.58332c0.43374,0.19508 0.82583,0.2738 1.13335,0.15875c0.92705,-0.34682 2.07625,-2.20906 2.0048,-2.30882c-1.5432,-2.15473 -1.95598,-3.81915 -2.21927,-5.95389c-0.26579,-2.15503 -0.84448,-4.42907 -0.50457,-7.08294c0.07707,-0.60179 0.15631,-0.5687 0.30669,-0.63598c0.351,-0.15703 0.5173,0.76789 0.81642,2.35746c0.02213,0.11762 0.31124,0.24627 0.55536,0.06361c0.54026,-0.40422 1.31956,-1.41449 1.74708,-0.94396c0.2416,0.26592 -1.91271,2.84535 -1.8249,3.23439c0.29667,1.31428 0.60604,2.82331 1.19688,4.42172c0.69331,1.87557 3.54292,1.29175 4.88865,-0.18725c0.11957,-0.13141 -1.06735,-1.68543 -0.60502,-1.93315c0.19635,-0.10521 0.35347,0.63167 0.66514,0.98013c0.21447,0.23979 0.62621,0.14052 0.67339,0.0825c1.01196,-1.24455 2.2269,-2.79703 2.02463,-1.64135c-0.15211,0.86902 -0.8899,1.6453 -2.12054,3.17301c-1.68523,2.09204 -3.58808,2.33864 -3.2649,3.0004c0.56873,1.16456 1.36061,2.21956 2.09574,3.15772c0.11169,0.14255 0.96755,-2.04507 1.41481,-1.39866c0.37025,0.5351 -0.59541,2.22751 -0.48936,2.50284c0.34969,0.90793 1.16338,1.97271 1.90029,2.83564c1.64815,1.93001 3.28932,3.51062 2.33812,4.4584c-1.36501,1.3601 -4.31034,-2.53835 -5.37557,-3.49303z" fill="url(#color-27)" stroke="#150c0a"/><path d="M341.77041,139.76886c0.11785,0 0.11785,0.11785 0.11785,0.11785v0.13468c0,0.81991 0.04808,1.63009 0.10101,2.43469l-0.00001,-0.01033c0,0 -0.00011,-0.11785 0.11774,-0.11795c0.11785,-0.0001 0.11795,0.11774 0.11795,0.11774l0.00018,0.21352c0.00483,0.32569 0.07044,0.59849 0.13519,0.91546c0.03643,1.65158 1.24996,2.61966 1.74189,4.07735c0.82321,1.22581 1.41489,2.56316 2.10328,3.85088c0.22267,1.14032 0.56218,2.32973 0.92924,3.43091c0,0 0.03727,0.11181 -0.07453,0.14907c-0.1118,0.03726 -0.14907,-0.07453 -0.14907,-0.07453c-0.11924,-0.35774 -0.23513,-0.72449 -0.34497,-1.09568c-0.00804,0.00683 -0.01769,0.01325 -0.02925,0.01903c-0.10541,0.05271 -0.15811,-0.0527 -0.15811,-0.0527l-0.07624,-0.1587c-0.00524,-0.36053 -0.74782,-1.47136 -0.9914,-1.71062c-0.55352,-1.10703 -1.23221,-2.16751 -1.69732,-3.32482c0,0 -0.04377,-0.10941 0.06565,-0.15318c0.10942,-0.04377 0.15318,0.06564 0.15318,0.06564c0.4536,1.13984 1.12552,2.18619 1.66969,3.27454c0.18428,0.18732 0.6104,0.80763 0.85255,1.29235c-0.14179,-0.52872 -0.26802,-1.06017 -0.37121,-1.58156c-0.69916,-1.27282 -1.28117,-2.6004 -2.09278,-3.82618c-0.5125,-1.47502 -1.72701,-2.47637 -1.76481,-4.15531c-0.03386,-0.16303 -0.06696,-0.3155 -0.09213,-0.4693c0.02394,0.36732 0.04635,0.73371 0.06308,1.09957c0.03699,0.98733 0.24489,1.76829 0.48327,2.718c0.05879,0.23422 0.2294,0.93044 0.49961,0.77177c0,0 0.11181,-0.03727 0.14907,0.07453c0.03726,0.1118 -0.07454,0.14906 -0.07454,0.14906c-1.05527,0.23903 -1.26315,-2.98674 -1.29291,-3.70404c-0.04447,-1.38369 -0.209,-2.79659 -0.209,-4.21922v-0.13468c0,0 0,-0.11785 0.11785,-0.11785z" fill="#2d1b16" stroke="none"/><path d="M350.39435,159.84557c-0.09349,0.07174 -0.16523,-0.02174 -0.16523,-0.02174l-0.10303,-0.13513c-0.25567,-0.50859 -0.56302,-0.91591 -0.91614,-1.3581c-1.03408,-1.08176 -1.98729,-2.23953 -3.02336,-3.29076c-0.56713,-1.10924 -1.23178,-2.0622 -1.63236,-3.26398c0,0 -0.03726,-0.1118 0.07454,-0.14906c0.1118,-0.03726 0.14907,0.07453 0.14907,0.07453c0.39391,1.18175 1.0661,2.10137 1.59996,3.20069c1.0448,1.02643 1.98216,2.19894 3.00955,3.2734c0.36031,0.45029 0.68029,0.86865 0.93855,1.38827l0.0902,0.11665c0,0 0.07175,0.09349 -0.02174,0.16523z" fill="#2d1b16" stroke="none"/><path d="M351.31865,158.98177c-0.10511,0.05329 -0.1584,-0.05181 -0.1584,-0.05181l-0.06793,-0.13446c-0.3853,-0.57694 -0.79861,-1.32361 -1.38259,-1.71277c-0.81469,-0.79422 -2.03026,-2.06394 -2.39456,-3.15199c0,0 -0.03727,-0.1118 0.07453,-0.14906c0.1118,-0.03726 0.14907,0.07453 0.14907,0.07453c0.3471,1.04633 1.53636,2.27923 2.31925,3.04332c0.60643,0.40444 1.03841,1.17697 1.43782,1.7771l0.07464,0.14675c0,0 0.05329,0.1051 -0.05182,0.15839z" fill="#2d1b16" stroke="none"/><path d="M343.77597,140.92608c0.10541,0.0527 0.05271,0.15811 0.05271,0.15811l-0.06794,0.13586c-0.30313,0.54782 -0.82882,0.98428 -1.14418,1.61499c0,0 -0.05271,0.1054 -0.15811,0.05271c-0.10541,-0.05271 -0.05271,-0.15812 -0.05271,-0.15812c0.30194,-0.60387 0.88728,-1.09327 1.14539,-1.61734l0.06674,-0.1335c0,0 0.0527,-0.1054 0.15811,-0.0527z" fill="#2d1b16" stroke="none"/><path d="M345.62478,154.91957c-0.08333,0.08333 -0.16666,0 -0.16666,0l-0.03731,-0.04556c-0.76772,-0.39046 -1.14199,-1.31017 -1.14199,-2.12532c0,0 0,-0.11785 0.11784,-0.11785c0.11785,0 0.11785,0.11785 0.11785,0.11785c0,0.72803 0.32265,1.56633 1.01289,1.9151l0.09738,0.08912c0,0 0.08333,0.08333 0,0.16666z" fill="#2d1b16" stroke="none"/><path d="M337.71399,153.13676c0.08333,-0.08333 0.16666,0 0.16666,0l0.12026,0.12241c0.72281,0.36102 1.37901,0.85673 2.13632,1.23504c1.16352,0.58724 2.06385,0.07428 3.21208,-0.30847c0,0 0.1118,-0.03727 0.14906,0.07453c0.03726,0.1118 -0.07454,0.14907 -0.07454,0.14907c-1.2124,0.40413 -2.15953,0.91487 -3.3924,0.29549c-0.76554,-0.385 -1.43672,-0.88825 -2.16832,-1.25445l-0.14911,-0.14695c0,0 -0.08333,-0.08333 0,-0.16666z" fill="#2d1b16" stroke="none"/><path d="M340.49091,154.146c-0.11785,0 -0.11785,-0.11785 -0.11785,-0.11785l0.01244,-0.01464c-0.12203,-0.24404 -0.21508,-0.49874 -0.3367,-0.74074c0,0 -0.0527,-0.1054 0.05271,-0.15811c0.10541,-0.05271 0.1581,0.0527 0.1581,0.0527c0.12092,0.24299 0.21454,0.49641 0.3367,0.74075l0.01244,0.12004c0,0 0,0.11785 -0.11785,0.11785z" fill="#2d1b16" stroke="none"/><path d="M339.24952,153.4748c-0.05271,0.1054 -0.15811,0.0527 -0.15811,0.0527l-0.13468,-0.06733c-0.52242,-0.26257 -0.95632,-0.68772 -1.48148,-0.94277c0,0 -0.1054,-0.05271 -0.0527,-0.15811c0.05271,-0.1054 0.1581,-0.0527 0.1581,-0.0527c0.52322,0.26751 0.9573,0.68189 1.48149,0.94276l0.13468,0.06734c0,0 0.1054,0.0527 0.0527,0.15811z" fill="#2d1b16" stroke="none"/><path d="M340.7098,155.37497c0,-0.11785 0.11785,-0.11785 0.11785,-0.11785l0.17275,0.06515c0.09427,0.2167 0.31816,0.13715 0.52773,0.14003c0.48931,0.23389 1.87578,0.42394 2.41347,0.2105c0.17203,-0.06829 0.06789,-0.81176 0.06789,-0.97123c0,0 0,-0.11784 0.11785,-0.11784c0.11785,0 0.11785,0.11784 0.11785,0.11784c0,0.3254 0.1426,0.99377 -0.20148,1.18366c-0.48181,0.26591 -2.13188,0.03953 -2.56972,-0.19355c-0.29727,0.00536 -0.49683,0.03593 -0.65643,-0.21614l0.0101,0.01728c0,0 -0.11785,0 -0.11785,-0.11785z" fill="#2d1b16" stroke="none"/><path d="M350.07011,147.4269c0.00062,-0.01521 0.00884,-0.11593 0.11779,-0.11593c0.11785,0 0.11785,0.11785 0.11785,0.11785l-0.06514,0.17275c-0.49667,0.21606 -0.98377,0.71592 -1.53664,0.959c-0.94801,0.23583 -2.16927,0.68957 -2.16927,1.76389c0,0 0,0.11785 -0.11784,0.11785c-0.11785,0 -0.11785,-0.11785 -0.11785,-0.11785c0,-1.19887 1.27666,-1.72259 2.32846,-1.98682c0.55629,-0.24734 0.94735,-0.62861 1.44265,-0.91073z" fill="#2d1b16" stroke="none"/><path d="M350.996,145.3581c0.11785,0 0.11784,0.11785 0.11784,0.11785l-0.03451,0.15067c-0.24657,0.24224 -0.6349,0.76761 -0.70974,1.09004c0,0 -0.02858,0.11433 -0.14291,0.08575c-0.11433,-0.02858 -0.08575,-0.14291 -0.08575,-0.14291c0.09665,-0.36592 0.49502,-0.91876 0.77174,-1.19953l-0.03452,0.01599c0,0 0,-0.11785 0.11785,-0.11785z" fill="#2d1b16" stroke="none"/><path d="M354.31168,153.00207c0.08333,0.08333 0,0.16666 0,0.16666l-0.03283,-0.01599c-0.00655,0.62918 -0.48932,1.27706 -0.68237,1.86329c-0.26808,0.51209 -1.40208,2.25366 -1.14826,2.73049c0,0 0.05271,0.1054 -0.0527,0.15811c-0.10541,0.0527 -0.15811,-0.05269 -0.15811,-0.05269c-0.31899,-0.66732 0.82361,-2.2664 1.14131,-2.9261c0.18018,-0.53452 0.67241,-1.19982 0.66443,-1.77309l0.10186,-0.15067c0,0 0.08333,-0.08333 0.16666,0z" fill="#2d1b16" stroke="none"/><path d="M354.63238,149.33119c0.11785,0 0.11785,0.11784 0.11785,0.11784v0.06735c0,1.03721 -0.15795,1.76778 -0.47743,2.73088c-0.34805,1.04416 -0.78748,2.251 -1.28586,3.24777c0,0 -0.0527,0.10541 -0.15811,0.0527c-0.10541,-0.0527 -0.05271,-0.15811 -0.05271,-0.15811c0.49226,-0.98452 0.92801,-2.18169 1.27307,-3.21689c0.31475,-0.94008 0.46533,-1.64169 0.46533,-2.65634v-0.06735c0,0 0,-0.11784 0.11785,-0.11784z" fill="#2d1b16" stroke="none"/><path d="M351.72076,151.65527c0.08333,-0.08333 0.16666,0 0.16666,0l0.08941,0.09797c0.2323,0.4646 0.87125,1.21112 0.88786,1.66887c0,0 0,0.11785 -0.11785,0.11785c-0.11785,0 -0.11785,-0.11785 -0.11785,-0.11785c0.0194,-0.33934 -0.66997,-1.17743 -0.86298,-1.56346l-0.04527,-0.03672c0,0 -0.08333,-0.08333 0,-0.16665z" fill="#2d1b16" stroke="none"/><path d="M354.86448,147.65372c0.1118,-0.03726 0.14907,0.07453 0.14907,0.07453l0.07187,0.22042c0.00468,0.67966 0.00153,1.35941 0.00153,2.03909c0,0 0,0.11785 -0.11785,0.11785c-0.11785,0 -0.11784,-0.11785 -0.11784,-0.11785c0,-0.66708 -0.00402,-1.33428 0.00152,-2.00133l-0.06282,-0.18364c0,0 -0.03726,-0.1118 0.07453,-0.14906z" fill="#2d1b16" stroke="none"/></g><g stroke-linecap="butt"><path d="M343.70553,158.743c0.61968,-1.0317 5.2839,-0.19736 7.67734,1.6171c2.39344,1.81446 2.37509,3.72279 1.23355,5.2286c-1.14154,1.50581 -2.97401,2.03885 -5.36744,0.2244c-1.4384,-1.09045 -2.59101,-3.15188 -3.18367,-4.78677c-0.07268,-0.20048 -0.45119,0.31253 -0.50652,0.12745c-0.06295,-0.21053 0.19991,-1.11651 0.16082,-1.29998c-0.04112,-0.19295 -0.46146,0.10255 -0.47452,-0.05185c-0.02272,-0.26855 0.39113,-0.94353 0.46046,-1.05895z" fill="#724538" stroke="#291814" stroke-width="1"/><path d="M345.56152,160.17174c0,0 3.47543,-0.12982 5.04969,1.06363c1.57426,1.19344 1.5622,2.44863 0.81136,3.43906c-0.75084,0.99043 -1.95613,1.34104 -3.53039,0.1476c-1.57426,-1.19344 -2.33066,-4.65029 -2.33066,-4.65029z" fill="url(#color-28)" stroke="#b76e59" stroke-width="0.5"/></g><path d="M371.74809,174.27178c0,5.18071 3.37496,8.5933 -11.26603,8.62629c-14.35775,0.03236 -11.26603,-3.82269 -11.26603,-9.0034c0,-5.18071 0.58516,-12.44479 11.3603,-12.58589c10.115,-0.13245 11.17175,7.7823 11.17175,12.96301z" fill="#3c231d" stroke="#291814" stroke-width="1" stroke-linecap="butt"/><g stroke="#292929" stroke-width="0.5"><path d="M366.45742,175.64686c-0.25522,0.065 -1.02748,-0.89282 -1.02748,-0.89282l-2.31772,-9.1013c0,0 0.17647,-1.38171 0.4317,-1.44671c0.22677,-0.05775 1.02436,1.0759 1.02436,1.0759l2.31773,9.10131c0,0 -0.20181,1.20587 -0.42858,1.26362z" fill="#686868" stroke-linecap="butt"/><path d="M365.54661,174.67495l1.33718,-0.219" fill="none" stroke-linecap="round"/><path d="M364.4965,165.34199l-1.18353,0.30139" fill="none" stroke-linecap="round"/><path d="M365.64447,169.84985l-1.52608,-0.5228" fill="none" stroke-linecap="round"/><path d="M364.42994,167.42484c0.10321,-0.02629 0.20314,0.01628 0.2232,0.09507c0.02006,0.07879 -0.04734,0.16396 -0.15055,0.19025c-0.10321,0.02628 -0.20314,-0.01628 -0.2232,-0.09506c-0.02006,-0.07879 0.04733,-0.16396 0.15054,-0.19025z" fill="#686868" stroke-linecap="butt"/><path d="M365.51562,171.94855c0.10321,-0.02629 0.20314,0.01628 0.2232,0.09506c0.02006,0.07879 -0.04734,0.16395 -0.15055,0.19024c-0.10321,0.02629 -0.20314,-0.01627 -0.2232,-0.09506c-0.02006,-0.07879 0.04734,-0.16396 0.15055,-0.19025z" fill="#686868" stroke-linecap="butt"/></g><g stroke-linecap="butt"><path d="M364.75525,166.20149c1.90343,0.03466 3.52482,1.86456 3.55729,4.43484c0.06793,2.65908 -1.55315,3.66383 -3.33176,3.64681c-2.36478,-0.02265 -2.72521,-1.77155 -2.72521,-4.00323c0,-2.23168 0.66132,-4.116 2.49968,-4.07841z" fill="#e4e4e4" stroke="#575757" stroke-width="0.5"/><g stroke="none" stroke-width="0"><path d="M365.35258,170.55194c0,0.96113 -0.49119,1.74029 -1.09713,1.74029c-0.60593,0 -1.09714,-0.77914 -1.09714,-1.74028c0,-0.96113 0.49121,-1.74029 1.09714,-1.74029c0.60593,0 1.09713,0.77915 1.09713,1.74029z" fill="#000000"/><path d="M363.00908,171.22284v-1.23182l0.98062,0.72335z" fill="#e4e4e4"/></g><path d="M362.36439,167.69582c0,-0.53927 1.12856,-1.68351 2.33727,-1.68351c1.20871,0 2.97841,0.94782 2.97841,1.4871c0,0.53927 -0.60246,-1.09428 -2.91106,-1.05499c-1.9155,0.03259 -2.40461,1.79068 -2.40461,1.25141z" fill="#523128" stroke="#291814" stroke-width="0.5"/><path d="M362.25917,172.8019c0,-0.53927 0.66213,1.34228 2.68368,1.37486c2.43642,0.03929 3.15528,-1.68405 3.15528,-1.14478c0,0.53927 -1.87965,1.4871 -3.15528,1.4871c-1.27563,0 -2.68368,-1.17791 -2.68368,-1.71718z" fill="#523128" stroke="#291814" stroke-width="0.5"/></g><g stroke-linecap="butt"><path d="M373.74451,166.04879c-2.39343,1.81445 -4.2259,1.2814 -5.36745,-0.22441c-1.14155,-1.50581 -1.15988,-3.41414 1.23355,-5.2286c2.39343,-1.81445 7.09992,-2.32537 7.67733,-1.6171c0.40158,0.49259 -0.25113,2.6842 -1.44545,4.62277c-0.11669,0.18942 -0.28206,0.9916 -0.44984,1.2362c-0.15112,0.22032 -0.30422,-0.11551 -0.42549,0.04092c-0.21119,0.27241 -0.27573,1.23744 -0.50606,1.4739c-0.23081,0.23696 -0.4703,-0.49042 -0.7166,-0.3037z" fill="#724538" stroke="#291814" stroke-width="1"/><path d="M373.10128,165.05772c-1.57426,1.19344 -2.77955,0.84283 -3.53039,-0.1476c-0.75084,-0.99043 -0.7629,-2.24561 0.81135,-3.43905c1.57426,-1.19344 5.04969,-1.06363 5.04969,-1.06363c0,0 -0.7564,3.45684 -2.33066,4.65028z" fill="url(#color-29)" stroke="#b76e59" stroke-width="0.5"/></g><g stroke="#292929" stroke-width="0.5"><path d="M353.6374,174.2418l2.31773,-9.10131c0,0 0.79759,-1.13365 1.02435,-1.0759c0.25522,0.065 0.43171,1.4467 0.43171,1.4467l-2.31773,9.10131c0,0 -0.77227,0.95781 -1.02748,0.89282c-0.22677,-0.05775 -0.42858,-1.26361 -0.42858,-1.26361z" fill="#686868" stroke-linecap="butt"/><path d="M353.63962,174.31455l1.33718,0.219" fill="none" stroke-linecap="round"/><path d="M356.0269,165.20057l1.18353,0.30139" fill="none" stroke-linecap="round"/><path d="M356.40502,169.18563l-1.52609,0.5228" fill="none" stroke-linecap="round"/><path d="M356.24397,167.47367c-0.02006,0.07879 -0.11999,0.12135 -0.2232,0.09507c-0.10321,-0.02629 -0.17061,-0.11146 -0.15055,-0.19025c0.02006,-0.07879 0.12,-0.12134 0.22321,-0.09506c0.10321,0.02629 0.1706,0.11145 0.15054,0.19024z" fill="#686868" stroke-linecap="butt"/><path d="M355.15833,171.99738c-0.02006,0.07879 -0.11999,0.12135 -0.2232,0.09507c-0.10321,-0.02629 -0.17061,-0.11145 -0.15055,-0.19024c0.02006,-0.07879 0.12,-0.12135 0.22321,-0.09507c0.10321,0.02629 0.17061,0.11146 0.15054,0.19025z" fill="#686868" stroke-linecap="butt"/></g><g stroke-linecap="butt"><path d="M358.41553,170.37417c0,2.23168 -0.36041,3.98059 -2.72521,4.00324c-1.77862,0.01702 -3.39969,-0.98773 -3.33176,-3.64681c0.03247,-2.57028 1.65386,-4.40018 3.55729,-4.43484c1.83835,-0.03759 2.49968,1.84672 2.49968,4.07841z" fill="#e4e4e4" stroke="#575757" stroke-width="0.5"/><g stroke="none" stroke-width="0"><path d="M357.66204,170.64621c0,0.96113 -0.49119,1.74029 -1.09713,1.74029c-0.60593,0 -1.09714,-0.77914 -1.09714,-1.74028c0,-0.96113 0.49121,-1.7403 1.09714,-1.7403c0.60593,0 1.09713,0.77916 1.09713,1.7403z" fill="#000000"/><path d="M355.31855,171.31713v-1.23183l0.98062,0.72335z" fill="#e4e4e4"/></g><path d="M358.30673,167.79009c0,0.53927 -0.4891,-1.21881 -2.40461,-1.25141c-2.3086,-0.03929 -2.91106,1.59427 -2.91106,1.055c0,-0.53927 1.76969,-1.4871 2.9784,-1.4871c1.20871,0 2.33727,1.14424 2.33727,1.6835z" fill="#523128" stroke="#291814" stroke-width="0.5"/><path d="M355.72827,174.61334c-1.27563,0 -3.15528,-0.94782 -3.15528,-1.48709c0,-0.53927 0.71886,1.18407 3.15528,1.14478c2.02155,-0.03259 2.68368,-1.91413 2.68368,-1.37486c0,0.53927 -1.40805,1.71717 -2.68368,1.71717z" fill="#523128" stroke="#291814" stroke-width="0.5"/></g><path d="M350.9433,175.68585v-11.1971h8.72057v11.1971z" fill="url(#color-30)" stroke="none" stroke-width="NaN" stroke-linecap="butt"/><path d="M361.1454,175.59439v-11.1971h8.72057v11.1971z" fill="url(#color-31)" stroke="none" stroke-width="NaN" stroke-linecap="butt"/><path d="M372.73575,175.63542c0.01301,0.34268 0.50452,1.62419 0.72145,2.71919c0.21693,1.095 0.16529,2.54996 0.16529,2.54996c0,0 -1.13445,0.87427 -3.30307,1.53877c-2.57234,0.78821 -6.42278,1.39091 -10.08091,1.43677c-2.93601,0.0368 -5.71728,-0.20604 -7.88194,-0.73639c-3.01477,-0.73863 -4.75089,-1.8451 -4.75089,-1.8451c0,0 -0.0448,-1.76555 0.11847,-2.8776c0.16327,-1.11205 0.62023,-2.29194 0.63442,-2.78561c0.02113,-0.73534 0.03963,-1.4832 0.06948,-2.23305c0.01033,-0.25949 -0.52792,0.26642 -0.51428,0.00689c0.01839,-0.35004 0.59026,-1.48537 0.61714,-1.83362c0.02745,-0.35563 -0.56844,-0.00268 -0.52914,-0.35418c0.02049,-0.18317 0.67129,-1.07269 0.69561,-1.25426c0.68764,-5.13281 2.99736,-9.56515 11.77682,-9.6517c11.91288,-0.10802 11.99219,8.22348 12.26155,15.31992zM355.9792,175.10568c3.06811,-0.13025 3.29968,-1.9487 3.29968,-3.77106c0,-1.16358 0.20113,-4.51645 -0.66926,-5.62002c-0.49278,-0.6248 -1.22111,-1.04667 -2.29372,-1.04667c-3.26865,0 -4.98318,3.06133 -4.98318,6.32999c0,1.82236 1.22955,4.25281 4.64648,4.10775zM364.92708,174.89019c3.64054,0.06734 4.67173,-2.40324 4.67173,-4.22561c0,-2.42924 -1.67739,-5.91538 -4.59379,-6.11636c-2.44617,-0.17256 -3.33048,1.76159 -3.47868,3.1283c-0.19509,1.79916 -0.31907,4.15345 0.48501,5.9121c0.42334,0.92593 1.76669,1.28031 2.91573,1.30157z" fill="#724538" stroke="#291814" stroke-width="1" stroke-linecap="butt"/><path d="M361.99434,173.60757c-0.80408,-1.75865 -0.68574,-4.14352 -0.49064,-5.94269c0.1482,-1.36671 1.05277,-3.31456 3.49894,-3.142c2.9164,0.20098 4.62097,3.7182 4.62097,6.14744c0,1.82236 -1.05874,4.31252 -4.69929,4.24518c-1.14904,-0.02125 -2.50664,-0.382 -2.92998,-1.30793z" data-paper-data="{&quot;noHover&quot;:false,&quot;origItem&quot;:[&quot;Path&quot;,{&quot;applyMatrix&quot;:true,&quot;segments&quot;:[[[635.35304,394.92015],[-4.51336,-0.08348],[14.29986,0.2645]],[[653.70332,378.32221],[0,7.15814],[0,-9.54192]],[[635.65916,354.29751],[11.45548,0.78944],[-9.60844,-0.6778]],[[621.99512,366.58529],[0.58212,-5.36836],[-0.76632,7.06702]],[[623.90022,389.80769],[-3.15838,-6.90788],[1.66288,3.63698]]],&quot;closed&quot;:true,&quot;fillColor&quot;:[0,0,0,1]}]}" fill="#000000" stroke="none" stroke-width="0.5" stroke-linecap="butt"/><path d="M355.98241,175.13094c-3.41693,0.14506 -4.67422,-2.30383 -4.67422,-4.12619c0,-3.26865 1.74385,-6.36181 5.0125,-6.36181c1.07261,0 1.81192,0.42688 2.30469,1.05168c0.87039,1.10357 0.67741,4.48515 0.67741,5.64873c0,1.82236 -0.25226,3.65735 -3.32038,3.78759z" data-paper-data="{&quot;noHover&quot;:false,&quot;origItem&quot;:[&quot;Path&quot;,{&quot;applyMatrix&quot;:true,&quot;segments&quot;:[[[600.20626,395.76661],[0,0],[12.05138,-0.5116]],[[613.16718,380.95411],[0,7.15812],[0,-4.57048]],[[610.53838,358.87899],[3.41884,4.33476],[-1.93562,-2.45418]],[[601.52878,354.76775],[4.21316,0],[-12.83908,0]],[[581.95512,379.63157],[0,-12.8391],[0,7.15812]],[[600.20624,395.76661],[-13.4215,0.56976],[0,0]]],&quot;closed&quot;:true,&quot;fillColor&quot;:[0,0,0,1]}]}" fill="#000000" stroke="none" stroke-width="0.5" stroke-linecap="butt"/><path d="M368.05387,182.88141c-0.84501,0.45436 -3.69818,1.49223 -7.95713,1.53284c-5.61613,0.04232 -7.42003,-1.23057 -7.42003,-1.23057c0,0 -0.91819,-4.3554 0.75746,-6.22727c1.36356,-1.52322 4.66999,-1.61111 6.40742,-1.68365c1.79776,-0.07505 6.2522,-0.03721 7.54521,1.85831c1.5547,2.27916 0.66707,5.75035 0.66707,5.75035z" fill="url(#color-32)" stroke="#291814" stroke-width="1" stroke-linecap="butt"/><path d="M357.1509,179.54865c0,0.768 -0.53817,1.39057 -1.20202,1.39057c-0.66386,0 -1.20202,-0.62258 -1.20202,-1.39057c0,-0.768 0.53816,-1.39058 1.20202,-1.39058c0.66386,0 1.20202,0.62258 1.20202,1.39058z" fill="url(#color-33)" stroke="none" stroke-width="0" stroke-linecap="butt"/><path d="M357.7637,177.71025c0,0.35145 -0.43264,0.63637 -0.96633,0.63637c-0.53369,0 -0.96633,-0.28491 -0.96633,-0.63637c0,-0.35145 0.43264,-0.63636 0.96633,-0.63636c0.53369,0 0.96633,0.28491 0.96633,0.63636z" fill="url(#color-34)" stroke="none" stroke-width="0" stroke-linecap="butt"/><path d="M355.87819,178.8887c0,0.42956 -0.37988,0.77778 -0.84849,0.77778c-0.46861,0 -0.84849,-0.34822 -0.84849,-0.77778c0,-0.42956 0.37988,-0.77778 0.84849,-0.77778c0.46861,0 0.84849,0.34822 0.84849,0.77778z" fill="url(#color-35)" stroke="none" stroke-width="0" stroke-linecap="butt"/><path d="M356.86809,178.32305c0,0.50765 -0.39044,0.9192 -0.87206,0.9192c-0.48163,0 -0.87205,-0.41154 -0.87205,-0.9192c0,-0.50765 0.39044,-0.9192 0.87205,-0.9192c0.48163,0 0.87206,0.41154 0.87206,0.9192z" fill="url(#color-36)" stroke="none" stroke-width="0" stroke-linecap="butt"/><path d="M358.28224,179.64292c0,0.16922 -0.11607,0.3064 -0.25926,0.3064c-0.14319,0 -0.25926,-0.13718 -0.25926,-0.3064c0,-0.16922 0.11607,-0.3064 0.25926,-0.3064c0.14319,0 0.25926,0.13718 0.25926,0.3064z" fill="url(#color-37)" stroke="none" stroke-width="0" stroke-linecap="butt"/><path d="M355.17111,180.16143c0,0.03905 -0.04221,0.07071 -0.09428,0.07071c-0.05207,0 -0.09427,-0.03166 -0.09427,-0.07071c0,-0.03905 0.0422,-0.07071 0.09427,-0.07071c0.05207,0 0.09428,0.03166 0.09428,0.07071z" fill="url(#color-38)" stroke="none" stroke-width="0" stroke-linecap="butt"/><path d="M354.36975,177.7574c0,0.03905 -0.05276,0.07071 -0.11785,0.07071c-0.06508,0 -0.11784,-0.03166 -0.11784,-0.07071c0,-0.03905 0.05275,-0.07071 0.11784,-0.07071c0.06508,0 0.11785,0.03166 0.11785,0.07071z" fill="url(#color-39)" stroke="none" stroke-width="0" stroke-linecap="butt"/><path d="M368.79409,175.51833c0,0.18224 -0.23215,0.32997 -0.51853,0.32997c-0.28637,0 -0.51852,-0.14773 -0.51852,-0.32997c0,-0.18224 0.23215,-0.32997 0.51852,-0.32997c0.28637,0 0.51853,0.14773 0.51853,0.32997z" fill="url(#color-40)" stroke="none" stroke-width="0" stroke-linecap="butt"/><path d="M371.00959,177.1446c0,0.06508 -0.03166,0.11785 -0.07071,0.11785c-0.03906,0 -0.07071,-0.05276 -0.07071,-0.11785c0,-0.06508 0.03166,-0.11785 0.07071,-0.11785c0.03906,0 0.07071,0.05276 0.07071,0.11785z" fill="url(#color-41)" stroke="none" stroke-width="0" stroke-linecap="butt"/><path d="M370.25538,173.49138c0,0.18224 -0.06331,0.32997 -0.14141,0.32997c-0.0781,0 -0.14141,-0.14773 -0.14141,-0.32997c0,-0.18224 0.06332,-0.32997 0.14141,-0.32997c0.0781,0 0.14141,0.14773 0.14141,0.32997z" fill="url(#color-42)" stroke="none" stroke-width="0" stroke-linecap="butt"/><path d="M360.6837,162.92458c0,0.53513 -0.51588,0.96895 -1.15226,0.96895c-0.63638,0 -1.15227,-0.43382 -1.15227,-0.96895c0,-0.53513 0.51588,-0.96895 1.15227,-0.96895c0.63638,0 1.15226,0.43382 1.15226,0.96895z" fill="url(#color-43)" stroke="none" stroke-width="0" stroke-linecap="butt"/><path d="M358.95526,162.84601c0,0.43389 -0.34001,0.78563 -0.75944,0.78563c-0.41943,0 -0.75945,-0.35174 -0.75945,-0.78563c0,-0.43389 0.34002,-0.78564 0.75945,-0.78564c0.41943,0 0.75944,0.35175 0.75944,0.78564z" fill="url(#color-44)" stroke="none" stroke-width="0" stroke-linecap="butt"/><path d="M358.16963,162.97695c0,0.44836 -0.42209,0.81183 -0.94276,0.81183c-0.52067,0 -0.94277,-0.36347 -0.94277,-0.81183c0,-0.44835 0.42209,-0.81182 0.94277,-0.81182c0.52067,0 0.94276,0.36346 0.94276,0.81182z" fill="url(#color-45)" stroke="none" stroke-width="0" stroke-linecap="butt"/><path d="M359.79332,163.73639c0,0.40497 -0.24622,0.73326 -0.54995,0.73326c-0.30372,0 -0.54995,-0.32829 -0.54995,-0.73326c0,-0.40497 0.24622,-0.73325 0.54995,-0.73325c0.30372,0 0.54995,0.32828 0.54995,0.73325z" fill="url(#color-46)" stroke="none" stroke-width="0" stroke-linecap="butt"/><path d="M358.16963,163.78877c0,0.23141 -0.16414,0.41901 -0.36663,0.41901c-0.20249,0 -0.36663,-0.18759 -0.36663,-0.41901c0,-0.23141 0.16415,-0.419 0.36663,-0.419c0.20249,0 0.36663,0.18759 0.36663,0.419z" fill="url(#color-47)" stroke="none" stroke-width="0" stroke-linecap="butt"/><path d="M360.99796,162.47938c0,0.20248 -0.16414,0.36662 -0.36663,0.36662c-0.20249,0 -0.36663,-0.16414 -0.36663,-0.36662c0,-0.20248 0.16415,-0.36663 0.36663,-0.36663c0.20249,0 0.36663,0.16415 0.36663,0.36663z" fill="url(#color-48)" stroke="none" stroke-width="0" stroke-linecap="butt"/><path d="M358.69336,162.19132c0,0.21695 -0.14069,0.39281 -0.31425,0.39281c-0.17356,0 -0.31426,-0.17586 -0.31426,-0.39281c0,-0.21695 0.14069,-0.39283 0.31426,-0.39283c0.17356,0 0.31425,0.17588 0.31425,0.39283z" fill="url(#color-49)" stroke="none" stroke-width="0" stroke-linecap="butt"/><path d="M360.78847,164.12921c0,0.10125 -0.0938,0.18331 -0.2095,0.18331c-0.1157,0 -0.2095,-0.08208 -0.2095,-0.18331c0,-0.10125 0.0938,-0.18332 0.2095,-0.18332c0.1157,0 0.2095,0.08208 0.2095,0.18332z" fill="url(#color-50)" stroke="none" stroke-width="0" stroke-linecap="butt"/><path d="M362.04548,163.63165c0,0.08678 -0.05862,0.15713 -0.13094,0.15713c-0.07232,0 -0.13094,-0.07035 -0.13094,-0.15713c0,-0.08678 0.05863,-0.15713 0.13094,-0.15713c0.07232,0 0.13094,0.07035 0.13094,0.15713z" fill="url(#color-51)" stroke="none" stroke-width="0" stroke-linecap="butt"/><path d="M355.02705,162.53175c0,0.02892 -0.05863,0.05238 -0.13094,0.05238c-0.07232,0 -0.13093,-0.02346 -0.13093,-0.05238c0,-0.02892 0.05862,-0.05237 0.13093,-0.05237c0.07232,0 0.13094,0.02345 0.13094,0.05237z" fill="url(#color-52)" stroke="none" stroke-width="0" stroke-linecap="butt"/><path d="M350.62751,172.19508c0,0.47728 -0.31657,0.8642 -0.70707,0.8642c-0.39051,0 -0.70707,-0.38692 -0.70707,-0.8642c0,-0.47728 0.31658,-0.8642 0.70707,-0.8642c0.39051,0 0.70707,0.38691 0.70707,0.8642z" fill="url(#color-53)" stroke="none" stroke-width="0" stroke-linecap="butt"/><path d="M350.52275,170.8857c0,0.36158 -0.30484,0.6547 -0.68088,0.6547c-0.37604,0 -0.68088,-0.29312 -0.68088,-0.6547c0,-0.36158 0.30485,-0.6547 0.68088,-0.6547c0.37604,0 0.68088,0.29312 0.68088,0.6547z" fill="url(#color-54)" stroke="none" stroke-width="0" stroke-linecap="butt"/><path d="M349.78949,171.64513c0,0.37604 -0.24622,0.68089 -0.54995,0.68089c-0.30372,0 -0.54995,-0.30485 -0.54995,-0.68089c0,-0.37604 0.24622,-0.68088 0.54995,-0.68088c0.30372,0 0.54995,0.30484 0.54995,0.68088z" fill="url(#color-55)" stroke="none" stroke-width="0" stroke-linecap="butt"/><path d="M349.84185,172.82359c0,0.30373 -0.25795,0.54994 -0.57613,0.54994c-0.31819,0 -0.57614,-0.24622 -0.57614,-0.54994c0,-0.30373 0.25795,-0.54994 0.57614,-0.54994c0.31819,0 0.57613,0.24622 0.57613,0.54994z" fill="url(#color-56)" stroke="none" stroke-width="0" stroke-linecap="butt"/><path d="M349.37047,170.62382c0,0.07232 -0.08207,0.13093 -0.18331,0.13093c-0.10124,0 -0.18332,-0.05862 -0.18332,-0.13093c0,-0.07232 0.08208,-0.13094 0.18332,-0.13094c0.10124,0 0.18331,0.05863 0.18331,0.13094z" fill="url(#color-57)" stroke="none" stroke-width="0" stroke-linecap="butt"/><path d="M350.99414,172.01175c0,0.17355 -0.10553,0.31426 -0.23569,0.31426c-0.13017,0 -0.23569,-0.1407 -0.23569,-0.31426c0,-0.17355 0.10553,-0.31425 0.23569,-0.31425c0.13017,0 0.23569,0.1407 0.23569,0.31425z" fill="url(#color-58)" stroke="none" stroke-width="0" stroke-linecap="butt"/><path d="M349.37047,180.8371c0,0.36158 -0.35174,0.6547 -0.78563,0.6547c-0.4339,0 -0.78564,-0.29312 -0.78564,-0.6547c0,-0.36158 0.35175,-0.6547 0.78564,-0.6547c0.4339,0 0.78563,0.29312 0.78563,0.6547z" fill="url(#color-59)" stroke="none" stroke-width="0" stroke-linecap="butt"/><path d="M349.05624,179.9467c0,0.30373 -0.21105,0.54994 -0.47138,0.54994c-0.26033,0 -0.47138,-0.24622 -0.47138,-0.54994c0,-0.30373 0.21105,-0.54994 0.47138,-0.54994c0.26033,0 0.47138,0.24622 0.47138,0.54994z" fill="url(#color-60)" stroke="none" stroke-width="0" stroke-linecap="butt"/><path d="M353.03221,165.82844c0,0 -0.10176,-0.35769 -0.1152,-0.59309c-0.01344,-0.2354 0.03615,-0.79032 0.03615,-0.79032c0,0 0.19016,0.41582 0.36729,0.64505c0.17713,0.22923 0.30465,0.22452 0.30465,0.22452z" fill="#000000" stroke="none" stroke-width="0" stroke-linecap="butt"/><path d="M352.51962,166.3637c0,0 -0.12936,-0.34865 -0.16115,-0.58228c-0.03179,-0.23363 -0.02567,-0.79074 -0.02567,-0.79074c0,0 0.22205,0.3997 0.41653,0.6144c0.19448,0.2147 0.32125,0.20006 0.32125,0.20006z" fill="#000000" stroke="none" stroke-width="0" stroke-linecap="butt"/><path d="M352.10819,166.99307c0,0 -0.20009,-0.31346 -0.2805,-0.53511c-0.08042,-0.22165 -0.19208,-0.76748 -0.19208,-0.76748c0,0 0.30146,0.34379 0.5369,0.51257c0.23544,0.16878 0.35625,0.1277 0.35625,0.1277z" fill="#000000" stroke="none" stroke-width="0" stroke-linecap="butt"/><g fill="#000000" stroke="none" stroke-width="0" stroke-linecap="butt"><path d="M367.0766,165.05623c0,0 0.12752,0.0047 0.30465,-0.22453c0.17713,-0.22923 0.3673,-0.64505 0.3673,-0.64505c0,0 0.0496,0.55492 0.03615,0.79032c-0.01344,0.2354 -0.1152,0.59309 -0.1152,0.59309z"/><path d="M367.63113,165.54678c0,0 0.12676,0.01464 0.32125,-0.20006c0.19448,-0.2147 0.41654,-0.6144 0.41654,-0.6144c0,0 0.00612,0.5571 -0.02567,0.79074c-0.03179,0.23363 -0.16116,0.58228 -0.16116,0.58228z"/><path d="M368.17297,166.07236c0,0 0.12081,0.04108 0.35625,-0.1277c0.23544,-0.16878 0.5369,-0.51257 0.5369,-0.51257c0,0 -0.11167,0.54583 -0.19208,0.76748c-0.08042,0.22165 -0.2805,0.53512 -0.2805,0.53512z"/></g><path d="M351.07853,178.34494l-0.70408,0.29057c0,0 0.23448,-0.86843 0.19897,-0.94966c-0.0752,-0.17202 -0.63483,0.27532 -0.63483,0.27532c0,0 0.37614,-0.66762 0.33079,-0.83535c-0.05707,-0.21108 -0.40028,-0.02454 -0.40028,-0.02454l0.31258,-0.48263" fill="none" stroke="#543129" stroke-width="0.5" stroke-linecap="round"/><path d="M362.21383,161.33241l0.31258,0.48262c0,0 -0.3432,-0.18653 -0.40028,0.02455c-0.04535,0.16772 0.33079,0.83534 0.33079,0.83534c0,0 -0.55963,-0.44735 -0.63483,-0.27532c-0.03551,0.08123 0.19896,0.94966 0.19896,0.94966l-0.70407,-0.29057" fill="none" stroke="#291814" stroke-width="0.5" stroke-linecap="round"/><path d="M360.42061,183.57041v-4.91584" fill="none" stroke="#4c2c25" stroke-width="1" stroke-linecap="round"/><g stroke="#000000" stroke-width="0.75"><path d="M370.7906,161.41917c0,1.65838 -4.43408,3.00275 -9.90382,3.00275c-5.46972,0 -9.90382,-1.34438 -9.90382,-3.00275c0,-1.65838 4.43409,-3.00275 9.90382,-3.00275c5.46972,0 9.90382,1.34438 9.90382,3.00275z" fill="#090909" stroke-linecap="butt"/><path d="M370.63255,161.38405c0,0 -3.52402,2.5609 -10.15053,2.41736c-6.72837,-0.14574 -9.46979,-2.27688 -9.46979,-2.27688" fill="none" stroke-linecap="round"/><path d="M354.76854,159.7154c0.06807,-1.16001 0.18878,-3.40454 0.18878,-4.73489c0,-1.46424 -0.13798,-4.10225 -0.20209,-5.24899c-0.01747,-0.31251 0.12322,-0.55751 0.43622,-0.55751c0.55761,0 2.78753,-0.3771 5.16486,-0.3771c2.49867,0 5.16019,0.3771 6.214,0.3771c0.32911,0 0.44255,0.27619 0.41418,0.60407c-0.09308,1.07584 -0.27371,3.33726 -0.27371,4.68733c0,1.43988 0.18137,4.05411 0.27428,5.2989c0.03316,0.44438 -0.01869,0.78218 -0.40611,1.00235c-0.80837,0.4594 -2.75732,1.26844 -6.4239,1.23784c-2.98642,-0.02492 -4.46867,-0.79139 -5.0784,-1.23529c-0.2502,-0.18215 -0.30813,-1.05381 -0.30813,-1.05381z" fill="url(#color-61)" stroke-linecap="butt"/></g><path d="M370.89751,168.38305l0.47739,0.32053c0,0 -0.38893,-0.0363 -0.35827,0.1802c0.02436,0.17202 0.63302,0.63757 0.63302,0.63757c0,0 -0.69057,-0.19081 -0.69195,-0.00307c-0.00065,0.08865 0.55686,0.79456 0.55686,0.79456l-0.76161,0.01019" fill="none" stroke="#543129" stroke-width="0.5" stroke-linecap="round"/><g stroke-linecap="butt"><path d="M362.99595,176.18277c0,0.72341 -0.71632,0.86055 -1.15706,1.34133c-0.4575,0.49908 -0.65254,1.3282 -1.36081,1.3282c-0.70826,0 -1.05161,-1.05159 -1.50911,-1.55067c-0.44074,-0.48078 -1.00874,-0.39546 -1.00874,-1.11886c0,-1.47434 1.12905,-1.78354 2.51785,-1.85384c1.46472,-0.07415 2.51786,0.3795 2.51786,1.85384z" fill="#040404" stroke="#000000" stroke-width="0.75"/><path d="M359.41663,175.12813c0,0.13246 -0.33321,0.2535 -0.40887,0.34608c-0.09055,0.11078 -0.12804,0.37238 -0.27665,0.37238c-0.27279,0 -0.35024,-0.23589 -0.35024,-0.52687c0,-0.29098 0.22114,-0.52687 0.49394,-0.52687c0.27279,0 0.54184,0.0443 0.54184,0.33528z" fill="url(#color-62)" stroke="none" stroke-width="0"/></g><path d="M364.75283,176.98322c0,0.08678 -0.05862,0.15713 -0.13093,0.15713c-0.07232,0 -0.13094,-0.07035 -0.13094,-0.15713c0,-0.08678 0.05863,-0.15712 0.13094,-0.15712c0.07232,0 0.13093,0.07034 0.13093,0.15712z" fill="none" stroke="#4c2c25" stroke-width="1" stroke-linecap="butt"/><path d="M366.06223,176.87847c0,0.08678 -0.05862,0.15713 -0.13093,0.15713c-0.07232,0 -0.13094,-0.07034 -0.13094,-0.15713c0,-0.08678 0.05862,-0.15713 0.13094,-0.15713c0.07232,0 0.13093,0.07035 0.13093,0.15713z" fill="none" stroke="#4c2c25" stroke-width="1" stroke-linecap="butt"/><path d="M365.64322,178.24024c0,0.08678 -0.05862,0.15713 -0.13093,0.15713c-0.07232,0 -0.13094,-0.07035 -0.13094,-0.15713c0,-0.08678 0.05863,-0.15713 0.13094,-0.15713c0.07232,0 0.13093,0.07035 0.13093,0.15713z" fill="none" stroke="#4c2c25" stroke-width="1" stroke-linecap="butt"/><g fill="none" stroke="#4c2c25" stroke-width="1" stroke-linecap="butt"><path d="M355.77868,176.813c0.07232,0 0.13094,0.07035 0.13094,0.15714c0,0.08678 -0.05863,0.15712 -0.13094,0.15712c-0.07232,0 -0.13093,-0.07034 -0.13093,-0.15712c0,-0.08678 0.05862,-0.15714 0.13093,-0.15714z"/><path d="M354.46928,176.70825c0.07232,0 0.13094,0.07035 0.13094,0.15713c0,0.08678 -0.05863,0.15712 -0.13094,0.15712c-0.07232,0 -0.13093,-0.07034 -0.13093,-0.15712c0,-0.08678 0.05862,-0.15713 0.13093,-0.15713z"/><path d="M354.88829,178.07002c0.07232,0 0.13094,0.07035 0.13094,0.15713c0,0.08678 -0.05862,0.15712 -0.13094,0.15712c-0.07232,0 -0.13094,-0.07034 -0.13094,-0.15712c0,-0.08678 0.05862,-0.15713 0.13094,-0.15713z"/></g></g></g><text transform="translate(345.74089,206.87788) scale(0.28149,0.28149)" font-size="40" xml:space="preserve" fill="#000000" fill-rule="nonzero" stroke="none" stroke-width="1" stroke-linecap="butt" stroke-linejoin="miter" stroke-miterlimit="10" stroke-dasharray="" stroke-dashoffset="0" font-family="&quot;GovtAgentBB&quot;, Serif" font-weight="normal" text-anchor="start" style="mix-blend-mode: normal"><tspan x="0" dy="0">Siena</tspan></text></g></g></svg>