<svg version="1.1" xmlns="http://www.w3.org/2000/svg" xmlns:xlink="http://www.w3.org/1999/xlink" width="76.57698" height="137.90989" viewBox="0,0,76.57698,137.90989"><defs><radialGradient cx="171.21739" cy="2.01904" r="0.25" gradientUnits="userSpaceOnUse" id="color-1"><stop offset="0" stop-color="#724538"/><stop offset="1" stop-color="#6e4236"/></radialGradient><linearGradient x1="356.7586" y1="66.51563" x2="357.69331" y2="94.50002" gradientUnits="userSpaceOnUse" id="color-2"><stop offset="0" stop-color="#000000" stop-opacity="0"/><stop offset="1" stop-color="#000000"/></linearGradient><radialGradient cx="331.68579" cy="85.34647" r="2.85715" gradientUnits="userSpaceOnUse" id="color-3"><stop offset="0" stop-color="#613a2f"/><stop offset="1" stop-color="#613a2f" stop-opacity="0"/></radialGradient><radialGradient cx="339.40043" cy="73.67528" r="2.4" gradientUnits="userSpaceOnUse" id="color-4"><stop offset="0" stop-color="#613a2f"/><stop offset="1" stop-color="#613a2f" stop-opacity="0"/></radialGradient><radialGradient cx="334.17697" cy="77.55181" r="2.25" gradientUnits="userSpaceOnUse" id="color-5"><stop offset="0" stop-color="#613a2f"/><stop offset="1" stop-color="#613a2f" stop-opacity="0"/></radialGradient><radialGradient cx="331.75855" cy="81.53476" r="1.05" gradientUnits="userSpaceOnUse" id="color-6"><stop offset="0" stop-color="#613a2f"/><stop offset="1" stop-color="#613a2f" stop-opacity="0"/></radialGradient><radialGradient cx="331.88001" cy="79.17941" r="0.6" gradientUnits="userSpaceOnUse" id="color-7"><stop offset="0" stop-color="#613a2f"/><stop offset="1" stop-color="#613a2f" stop-opacity="0"/></radialGradient><radialGradient cx="347.3731" cy="104.17614" r="1.40001" gradientUnits="userSpaceOnUse" id="color-8"><stop offset="0" stop-color="#613a2f"/><stop offset="1" stop-color="#613a2f" stop-opacity="0"/></radialGradient><radialGradient cx="346.27871" cy="104.36275" r="1.75" gradientUnits="userSpaceOnUse" id="color-9"><stop offset="0" stop-color="#613a2f"/><stop offset="1" stop-color="#613a2f" stop-opacity="0"/></radialGradient><radialGradient cx="344.28309" cy="103.02865" r="1.25" gradientUnits="userSpaceOnUse" id="color-10"><stop offset="0" stop-color="#613a2f"/><stop offset="1" stop-color="#613a2f" stop-opacity="0"/></radialGradient><radialGradient cx="349.25815" cy="105.01365" r="1.6" gradientUnits="userSpaceOnUse" id="color-11"><stop offset="0" stop-color="#613a2f"/><stop offset="1" stop-color="#613a2f" stop-opacity="0"/></radialGradient><radialGradient cx="344.22487" cy="104.28129" r="0.8" gradientUnits="userSpaceOnUse" id="color-12"><stop offset="0" stop-color="#613a2f"/><stop offset="1" stop-color="#613a2f" stop-opacity="0"/></radialGradient><radialGradient cx="342.79549" cy="101.92767" r="0.35" gradientUnits="userSpaceOnUse" id="color-13"><stop offset="0" stop-color="#613a2f"/><stop offset="1" stop-color="#613a2f" stop-opacity="0"/></radialGradient><radialGradient cx="351.51262" cy="106.7894" r="0.35" gradientUnits="userSpaceOnUse" id="color-14"><stop offset="0" stop-color="#613a2f"/><stop offset="1" stop-color="#613a2f" stop-opacity="0"/></radialGradient><radialGradient cx="382.45565" cy="83.5935" r="1.7" gradientUnits="userSpaceOnUse" id="color-15"><stop offset="0" stop-color="#613a2f"/><stop offset="1" stop-color="#613a2f" stop-opacity="0"/></radialGradient><radialGradient cx="381.73299" cy="87.41976" r="2.1" gradientUnits="userSpaceOnUse" id="color-16"><stop offset="0" stop-color="#613a2f"/><stop offset="1" stop-color="#613a2f" stop-opacity="0"/></radialGradient><radialGradient cx="381.76949" cy="85.51749" r="1.8" gradientUnits="userSpaceOnUse" id="color-17"><stop offset="0" stop-color="#613a2f"/><stop offset="1" stop-color="#613a2f" stop-opacity="0"/></radialGradient><radialGradient cx="380.91527" cy="89.89844" r="0.84999" gradientUnits="userSpaceOnUse" id="color-18"><stop offset="0" stop-color="#613a2f"/><stop offset="1" stop-color="#613a2f" stop-opacity="0"/></radialGradient><radialGradient cx="380.54033" cy="87.65971" r="0.45" gradientUnits="userSpaceOnUse" id="color-19"><stop offset="0" stop-color="#613a2f"/><stop offset="1" stop-color="#613a2f" stop-opacity="0"/></radialGradient><radialGradient cx="382.82089" cy="90.03491" r="0.25" gradientUnits="userSpaceOnUse" id="color-20"><stop offset="0" stop-color="#613a2f"/><stop offset="1" stop-color="#613a2f" stop-opacity="0"/></radialGradient><radialGradient cx="371.36474" cy="102.02401" r="0.4" gradientUnits="userSpaceOnUse" id="color-21"><stop offset="0" stop-color="#613a2f"/><stop offset="1" stop-color="#613a2f" stop-opacity="0"/></radialGradient><radialGradient cx="372.95383" cy="101.67076" r="0.3" gradientUnits="userSpaceOnUse" id="color-22"><stop offset="0" stop-color="#613a2f"/><stop offset="1" stop-color="#613a2f" stop-opacity="0"/></radialGradient><linearGradient x1="330.13453" y1="90.66243" x2="339.80939" y2="90.33928" gradientUnits="userSpaceOnUse" id="color-23"><stop offset="0" stop-color="#603b2f" stop-opacity="0"/><stop offset="1" stop-color="#603b2f"/></linearGradient><linearGradient x1="375.73682" y1="87.9711" x2="384.45953" y2="87.67975" gradientUnits="userSpaceOnUse" id="color-24"><stop offset="0" stop-color="#603b2f"/><stop offset="1" stop-color="#603b2f" stop-opacity="0"/></linearGradient><radialGradient cx="376.48993" cy="85.6621" r="1.72727" gradientUnits="userSpaceOnUse" id="color-25"><stop offset="0" stop-color="#000000" stop-opacity="0"/><stop offset="1" stop-color="#000000"/></radialGradient><radialGradient cx="338.09034" cy="87.18649" r="1.72727" gradientUnits="userSpaceOnUse" id="color-26"><stop offset="0" stop-color="#000000" stop-opacity="0"/><stop offset="1" stop-color="#000000"/></radialGradient><linearGradient x1="347.99063" y1="-23.42384" x2="368.28619" y2="24.3455" gradientUnits="userSpaceOnUse" id="color-27"><stop offset="0" stop-color="#2f1c17"/><stop offset="1" stop-color="#35201a"/></linearGradient><radialGradient cx="318.62132" cy="54.74054" r="6.32559" gradientUnits="userSpaceOnUse" id="color-28"><stop offset="0" stop-color="#d27e67"/><stop offset="1" stop-color="#bf735e"/></radialGradient><radialGradient cx="362.10012" cy="27.29123" r="6.32559" gradientUnits="userSpaceOnUse" id="color-29"><stop offset="0" stop-color="#d27e67"/><stop offset="1" stop-color="#bf735e"/></radialGradient><radialGradient cx="354.00899" cy="46.82753" r="12.03866" gradientUnits="userSpaceOnUse" id="color-30"><stop offset="0" stop-color="#000000" stop-opacity="0"/><stop offset="1" stop-color="#000000"/></radialGradient><radialGradient cx="335.20914" cy="55.17569" r="12.03866" gradientUnits="userSpaceOnUse" id="color-31"><stop offset="0" stop-color="#000000" stop-opacity="0"/><stop offset="1" stop-color="#000000"/></radialGradient><radialGradient cx="353.05556" cy="70.25405" r="17.21659" gradientUnits="userSpaceOnUse" id="color-32"><stop offset="0" stop-color="#724538"/><stop offset="1" stop-color="#683f33"/></radialGradient><radialGradient cx="344.31779" cy="73.11369" r="2.95" gradientUnits="userSpaceOnUse" id="color-33"><stop offset="0" stop-color="#613a2f"/><stop offset="1" stop-color="#613a2f" stop-opacity="0"/></radialGradient><radialGradient cx="344.4494" cy="68.82035" r="2.05" gradientUnits="userSpaceOnUse" id="color-34"><stop offset="0" stop-color="#613a2f"/><stop offset="1" stop-color="#613a2f" stop-opacity="0"/></radialGradient><radialGradient cx="341.97558" cy="72.58768" r="1.8" gradientUnits="userSpaceOnUse" id="color-35"><stop offset="0" stop-color="#613a2f"/><stop offset="1" stop-color="#613a2f" stop-opacity="0"/></radialGradient><radialGradient cx="343.39314" cy="70.6816" r="1.95" gradientUnits="userSpaceOnUse" id="color-36"><stop offset="0" stop-color="#613a2f"/><stop offset="1" stop-color="#613a2f" stop-opacity="0"/></radialGradient><radialGradient cx="348.44564" cy="71.57721" r="0.65" gradientUnits="userSpaceOnUse" id="color-37"><stop offset="0" stop-color="#613a2f"/><stop offset="1" stop-color="#613a2f" stop-opacity="0"/></radialGradient><radialGradient cx="343.12342" cy="75.03357" r="0.2" gradientUnits="userSpaceOnUse" id="color-38"><stop offset="0" stop-color="#613a2f"/><stop offset="1" stop-color="#613a2f" stop-opacity="0"/></radialGradient><radialGradient cx="339.51849" cy="71.024" r="0.25" gradientUnits="userSpaceOnUse" id="color-39"><stop offset="0" stop-color="#613a2f"/><stop offset="1" stop-color="#613a2f" stop-opacity="0"/></radialGradient><radialGradient cx="365.04234" cy="55.01884" r="1.1" gradientUnits="userSpaceOnUse" id="color-40"><stop offset="0" stop-color="#613a2f"/><stop offset="1" stop-color="#613a2f" stop-opacity="0"/></radialGradient><radialGradient cx="371.59154" cy="55.98478" r="0.25" gradientUnits="userSpaceOnUse" id="color-41"><stop offset="0" stop-color="#613a2f"/><stop offset="1" stop-color="#613a2f" stop-opacity="0"/></radialGradient><radialGradient cx="366.95035" cy="49.53617" r="0.7" gradientUnits="userSpaceOnUse" id="color-42"><stop offset="0" stop-color="#613a2f"/><stop offset="1" stop-color="#613a2f" stop-opacity="0"/></radialGradient><radialGradient cx="337.5222" cy="37.6832" r="2.44444" gradientUnits="userSpaceOnUse" id="color-43"><stop offset="0" stop-color="#3c3148"/><stop offset="1" stop-color="#3c3148" stop-opacity="0"/></radialGradient><radialGradient cx="334.84919" cy="38.63779" r="1.66667" gradientUnits="userSpaceOnUse" id="color-44"><stop offset="0" stop-color="#613a2f"/><stop offset="1" stop-color="#613a2f" stop-opacity="0"/></radialGradient><radialGradient cx="333.06595" cy="39.69722" r="2" gradientUnits="userSpaceOnUse" id="color-45"><stop offset="0" stop-color="#413347"/><stop offset="1" stop-color="#413347" stop-opacity="0"/></radialGradient><radialGradient cx="337.63309" cy="39.5073" r="1.55555" gradientUnits="userSpaceOnUse" id="color-46"><stop offset="0" stop-color="#3b3148"/><stop offset="1" stop-color="#3b3148" stop-opacity="0"/></radialGradient><radialGradient cx="334.86427" cy="40.80441" r="0.88889" gradientUnits="userSpaceOnUse" id="color-47"><stop offset="0" stop-color="#3b3149"/><stop offset="1" stop-color="#3b3149" stop-opacity="0"/></radialGradient><radialGradient cx="339.30043" cy="35.90152" r="0.77778" gradientUnits="userSpaceOnUse" id="color-48"><stop offset="0" stop-color="#613a2f"/><stop offset="1" stop-color="#613a2f" stop-opacity="0"/></radialGradient><radialGradient cx="334.66399" cy="37.20742" r="0.83333" gradientUnits="userSpaceOnUse" id="color-49"><stop offset="0" stop-color="#433346"/><stop offset="1" stop-color="#433346" stop-opacity="0"/></radialGradient><radialGradient cx="340.56679" cy="39.16629" r="0.44445" gradientUnits="userSpaceOnUse" id="color-50"><stop offset="0" stop-color="#613a2f"/><stop offset="1" stop-color="#613a2f" stop-opacity="0"/></radialGradient><radialGradient cx="342.76177" cy="37.08686" r="0.33333" gradientUnits="userSpaceOnUse" id="color-51"><stop offset="0" stop-color="#613a2f"/><stop offset="1" stop-color="#613a2f" stop-opacity="0"/></radialGradient><radialGradient cx="328.14587" cy="40.76145" r="0.27778" gradientUnits="userSpaceOnUse" id="color-52"><stop offset="0" stop-color="#613a2f"/><stop offset="1" stop-color="#613a2f" stop-opacity="0"/></radialGradient><radialGradient cx="326.44707" cy="63.75672" r="1.83333" gradientUnits="userSpaceOnUse" id="color-53"><stop offset="0" stop-color="#613a2f"/><stop offset="1" stop-color="#613a2f" stop-opacity="0"/></radialGradient><radialGradient cx="325.2074" cy="61.26535" r="1.44445" gradientUnits="userSpaceOnUse" id="color-54"><stop offset="0" stop-color="#613a2f"/><stop offset="1" stop-color="#613a2f" stop-opacity="0"/></radialGradient><radialGradient cx="324.66139" cy="63.24779" r="1.44444" gradientUnits="userSpaceOnUse" id="color-55"><stop offset="0" stop-color="#613a2f"/><stop offset="1" stop-color="#613a2f" stop-opacity="0"/></radialGradient><radialGradient cx="325.69008" cy="65.52702" r="1.22222" gradientUnits="userSpaceOnUse" id="color-56"><stop offset="0" stop-color="#613a2f"/><stop offset="1" stop-color="#613a2f" stop-opacity="0"/></radialGradient><radialGradient cx="323.71188" cy="61.29713" r="0.38889" gradientUnits="userSpaceOnUse" id="color-57"><stop offset="0" stop-color="#613a2f"/><stop offset="1" stop-color="#613a2f" stop-opacity="0"/></radialGradient><radialGradient cx="327.93118" cy="62.70362" r="0.66667" gradientUnits="userSpaceOnUse" id="color-58"><stop offset="0" stop-color="#613a2f"/><stop offset="1" stop-color="#613a2f" stop-opacity="0"/></radialGradient><radialGradient cx="331.00833" cy="81.73824" r="1.66666" gradientUnits="userSpaceOnUse" id="color-59"><stop offset="0" stop-color="#613a2f"/><stop offset="1" stop-color="#613a2f" stop-opacity="0"/></radialGradient><radialGradient cx="330.2697" cy="79.99974" r="1.16666" gradientUnits="userSpaceOnUse" id="color-60"><stop offset="0" stop-color="#613a2f"/><stop offset="1" stop-color="#613a2f" stop-opacity="0"/></radialGradient><linearGradient x1="328.73609" y1="9.72176" x2="339.38033" y2="34.77494" gradientUnits="userSpaceOnUse" id="color-61"><stop offset="0" stop-color="#0a0a0a"/><stop offset="1" stop-color="#090909"/></linearGradient><radialGradient cx="346.52247" cy="62.42951" r="1.1177" gradientUnits="userSpaceOnUse" id="color-62"><stop offset="0" stop-color="#ffffff"/><stop offset="1" stop-color="#ffffff" stop-opacity="0"/></radialGradient></defs><g transform="translate(-308.7717,27.17671)"><g data-paper-data="{&quot;isPaintingLayer&quot;:true}" fill-rule="nonzero" stroke-linejoin="miter" stroke-miterlimit="10" stroke-dasharray="" stroke-dashoffset="0" style="mix-blend-mode: normal"><g><path d="M320.65056,82.01159z" fill="url(#color-1)" stroke="#291814" stroke-width="1" stroke-linecap="butt"/><g><path d="M376.89902,86.48511c0.21202,6.34774 -8.39762,11.78691 -19.23016,12.14873c-10.83254,0.36182 -19.78595,-4.49071 -19.99797,-10.83845c-0.21202,-6.34774 8.39762,-11.78691 19.23016,-12.14873c10.83254,-0.36182 19.78595,4.49072 19.99797,10.83846z" fill="#40261f" stroke="#291814" stroke-width="1" stroke-linecap="butt"/><g><g><g data-paper-data="{&quot;index&quot;:null}" stroke="#292929" stroke-width="0.5"><path d="M345.11561,99.51282c-0.48489,-0.10637 -0.99818,-2.64882 -0.99818,-2.64882l4.2696,-19.46109c0,0 1.6108,-2.46009 2.09568,-2.3537c0.54573,0.11973 1.01777,3.03677 1.01777,3.03677l-4.2696,19.46109c0,0 -1.56955,2.08549 -2.11528,1.96576z" fill="#686868" stroke-linecap="butt"/><path d="M344.12735,97.01804l2.85065,0.36964" fill="none" stroke-linecap="round"/><path d="M351.07422,78.08037l-2.53072,-0.55522" fill="none" stroke-linecap="round"/><path d="M346.42879,87.16419l3.19863,-1.21654" fill="none" stroke-linecap="round"/><path d="M348.83209,81.93661c0.22068,0.04841 0.36962,0.22424 0.33265,0.3927c-0.03697,0.16846 -0.24581,0.26578 -0.4665,0.21737c-0.22069,-0.04842 -0.36964,-0.22424 -0.33267,-0.39271c0.03695,-0.16846 0.24583,-0.26578 0.46652,-0.21737z" fill="#686868" stroke-linecap="butt"/><path d="M346.85061,91.60485c0.22069,0.04842 0.36963,0.22424 0.33266,0.39271c-0.03697,0.16847 -0.24581,0.26578 -0.4665,0.21736c-0.22069,-0.04842 -0.36963,-0.22422 -0.33266,-0.39269c0.03695,-0.16846 0.24581,-0.26579 0.4665,-0.21737z" fill="#686868" stroke-linecap="butt"/></g><g stroke="#292929"><path d="M354.50657,87.89241l-0.07975,-2.38756c0,0 0.6038,-0.79837 2.25054,-0.85337c1.83103,-0.06116 2.74667,0.68646 2.74667,0.68646l0.07975,2.38756z" fill="#484848" stroke-width="0.5" stroke-linecap="butt"/><g data-paper-data="{&quot;index&quot;:null}" stroke-width="0.5"><path d="M357.44554,100.35835c-0.55829,0.02147 -1.73487,-2.30842 -1.73487,-2.30842l-0.76557,-19.90923c0,0 0.97976,-2.78783 1.53807,-2.8093c0.49605,-0.01909 1.64707,2.68681 1.64707,2.68681l0.76558,19.90923c0,0 -0.95423,2.41184 -1.45029,2.43091z" fill="#686868" stroke-linecap="butt"/><path d="M358.85893,98.07733l-2.87113,-0.13962" fill="none" stroke-linecap="round"/><path d="M357.95469,78.11093l-2.589,0.09956" fill="none" stroke-linecap="round"/><path d="M358.33388,87.97193l-2.93351,-1.7623" fill="none" stroke-linecap="round"/><path d="M356.89152,82.40206c0.22577,-0.00868 0.41418,0.12399 0.42079,0.29634c0.00664,0.17235 -0.17104,0.3191 -0.3968,0.32778c-0.22577,0.00867 -0.41413,-0.124 -0.42077,-0.29633c-0.00664,-0.17235 0.17102,-0.3191 0.39678,-0.32778z" fill="#686868" stroke-linecap="butt"/><path d="M357.13444,92.26831c0.22577,-0.00868 0.41417,0.12399 0.42079,0.29632c0.00664,0.17235 -0.17102,0.3191 -0.39679,0.32778c-0.22577,0.00868 -0.41415,-0.12398 -0.42077,-0.29633c-0.00664,-0.17235 0.17102,-0.31909 0.39679,-0.32778z" fill="#686868" stroke-linecap="butt"/></g><path d="M354.86382,86.93549l-0.33326,-1.65647c0,0 0.96078,0.24584 2.23025,0.20343c1.05649,-0.03529 2.48933,-0.36107 2.48933,-0.36107l-0.22198,1.67502z" fill="#575757" stroke-width="0.25" stroke-linecap="butt"/><path d="M354.53521,89.97053l-0.14784,-4.4261c0,0 0.84307,0.59844 2.30534,0.5496c1.64889,-0.05508 2.77336,-0.71924 2.77336,-0.71924l0.09232,4.42795c0,0 -1.94895,0.33798 -2.82049,0.36709c-0.79598,0.02658 -2.20268,-0.19931 -2.20268,-0.19931z" fill="#4c4c4c" stroke-width="0.5" stroke-linecap="butt"/></g><g data-paper-data="{&quot;index&quot;:null}" stroke="#292929" stroke-width="0.5"><path d="M369.49918,96.80845c-0.53652,0.15588 -2.24173,-1.82023 -2.24173,-1.82023l-5.55869,-19.13281c0,0 0.27633,-2.94204 0.81286,-3.09792c0.4767,-0.1385 2.24807,2.20861 2.24807,2.20861l5.5587,19.13282c0,0 -0.34249,2.57103 -0.81921,2.70952z" fill="#686868" stroke-linecap="butt"/><path d="M367.4992,94.81229l2.81963,-0.55903" fill="none" stroke-linecap="round"/><path d="M364.61178,75.09851l-2.48803,0.72285" fill="none" stroke-linecap="round"/><path d="M364.0923,83.57457l3.27269,1.00039" fill="none" stroke-linecap="round"/><path d="M364.61816,79.51938c0.21697,-0.06303 0.43186,0.02013 0.47998,0.18576c0.04813,0.16563 -0.08877,0.35099 -0.30574,0.41402c-0.21697,0.06303 -0.43184,-0.02014 -0.47996,-0.18575c-0.04813,-0.16562 0.08875,-0.35099 0.30571,-0.41401z" fill="#686868" stroke-linecap="butt"/><path d="M367.24042,89.03386c0.21697,-0.06303 0.43185,0.02013 0.47997,0.18575c0.04813,0.16563 -0.08875,0.35099 -0.30572,0.41402c-0.21697,0.06303 -0.43184,-0.02012 -0.47997,-0.18575c-0.04813,-0.16563 0.08875,-0.35099 0.30572,-0.41403z" fill="#686868" stroke-linecap="butt"/></g><path d="M342.41599,95.01031l-0.93472,-27.9844l30.55439,-1.02056l0.93472,27.98439z" fill="url(#color-2)" stroke="none" stroke-width="0" stroke-linecap="butt"/><g><g><g><g><g data-paper-data="{&quot;index&quot;:null}" stroke="#291814" stroke-width="1" stroke-linecap="butt"><path d="M384.84287,82.20774c0.12045,4.63177 -1.63358,10.51149 -5.23678,15.56068c-4.17322,5.84798 -10.92442,10.58512 -21.67266,11.03092c-1.39196,0.05776 -0.5386,1.53099 -1.82833,1.42876c-0.6395,-0.05069 -3.46059,-1.61918 -4.07503,-1.70656c-0.63968,-0.09099 0.38107,2.0306 -0.23147,1.90175c-0.82607,-0.17375 -3.27434,-2.61302 -4.05114,-2.8514c-3.53102,-1.08364 -6.55364,-2.81022 -9.0727,-4.95322c-6.40203,-5.44626 -8.87714,-13.35431 -9.26965,-17.9064c-1.64058,-32.33465 54.7342,-29.55968 55.43777,-2.50454zM357.13586,96.43452c4.02765,-0.13453 18.7901,-6.60106 18.65558,-10.6287c-0.12905,-3.86383 -11.30619,-9.96145 -22.99899,-9.57089c-10.02706,0.33492 -13.00429,10.07372 -12.87523,13.93758c0.12905,3.86383 13.35481,6.39107 17.21864,6.26202z" fill="#724538"/><path d="M379.74581,80.28056c0.17635,5.27961 -0.27683,12.93047 -6.15819,17.93514c-3.25867,2.77292 -8.0106,4.7277 -15.65669,5.03043c-9.0408,0.35779 -14.47866,-2.27763 -17.96895,-5.89895c-4.56105,-4.73226 -5.61943,-11.15405 -5.25426,-14.83981c0.15302,-2.09437 3.85694,-7.39143 20.60957,-7.69122c19.45073,-0.77653 24.37278,3.79568 24.42852,5.4644zM356.40278,94.4579c6.26715,-0.2878 15.19158,-1.57524 14.89671,-8.33528c-0.29487,-6.76004 -8.56776,-8.26004 -15.60853,-7.9834c-7.04078,0.27665 -12.97258,2.92585 -12.70344,9.09582c0.26914,6.16997 7.14811,7.51064 13.41526,7.22285z" fill="#4d2e26"/></g><g data-paper-data="{&quot;index&quot;:null}"><path d="M338.31653,90.00473c0,0 0.6362,-0.03233 0.88335,-0.13233c0.35113,-0.14208 0.61902,-0.01405 0.89023,0.27228c0.88246,0.93163 3.13772,3.27118 6.48071,4.98292c2.91082,1.49045 7.64613,2.70042 11.12582,2.44093c3.65532,-0.24142 7.54105,-1.37832 10.58509,-3.09821c3.40151,-1.92185 5.58402,-4.41905 6.41078,-5.47011c0.2825,-0.35913 0.5982,-0.44738 1.02223,-0.34599c0.27134,0.06488 0.88187,0.21087 0.88187,0.21087c0,0 -1.73051,2.77021 -5.06754,5.3633c-3.35447,2.60663 -8.3298,5.03682 -13.84976,5.27348c-12.17338,0.52192 -19.36277,-9.49714 -19.36277,-9.49714z" fill="#a5a5a5" stroke="#585858" stroke-width="0.5" stroke-linecap="butt"/><path d="M338.22614,91.22505c0,0 -0.0062,-0.18585 -0.02702,-0.80907c-0.01776,-0.53189 0.44502,-0.52751 0.75583,-0.11724c1.03967,1.37237 3.11866,3.69485 6.37872,5.5279c3.0256,1.70122 7.46951,2.7884 11.87259,2.86553c4.97677,-0.21935 9.57942,-1.81578 12.69081,-3.8166c2.97154,-1.91089 4.8561,-4.12534 5.85095,-5.5161c0.32328,-0.45194 0.89136,-0.8044 0.91061,-0.22809c0.02107,0.63083 0.03179,0.95184 0.03179,0.95184c0,0 -0.48825,3.36493 -3.81002,6.15371c-3.11283,2.61334 -8.81126,4.65432 -16.11343,4.86696c-5.30406,0.15446 -10.23985,-1.3628 -13.16233,-3.27641c-4.38838,-2.87345 -5.37847,-6.60243 -5.37847,-6.60243z" fill="#e8e8e8" stroke="#585858" stroke-width="0.5" stroke-linecap="butt"/><path d="M340.94439,93.54831l0.09546,1.44207" fill="none" stroke="#a3a3a3" stroke-width="0.35" stroke-linecap="round"/><path d="M344.69177,97.76395l-0.09547,-1.44207" fill="none" stroke="#a3a3a3" stroke-width="0.35" stroke-linecap="round"/><path d="M349.05553,99.54348l-0.09547,-1.44206" fill="none" stroke="#a3a3a3" stroke-width="0.35" stroke-linecap="round"/><path d="M353.89057,100.56448l-0.09547,-1.44207" fill="none" stroke="#a3a3a3" stroke-width="0.35" stroke-linecap="round"/><path d="M359.43653,100.56114l-0.09548,-1.44206" fill="none" stroke="#a3a3a3" stroke-width="0.35" stroke-linecap="round"/><path d="M365.10828,99.37116l-0.09547,-1.44207" fill="none" stroke="#a3a3a3" stroke-width="0.35" stroke-linecap="round"/><path d="M369.75053,96.03504l0.09546,1.44206" fill="none" stroke="#a3a3a3" stroke-width="0.35" stroke-linecap="round"/><path d="M374.02373,92.62533l0.09548,1.44206" fill="none" stroke="#a3a3a3" stroke-width="0.35" stroke-linecap="round"/></g></g><path d="M333.68467,85.2797c0.05268,1.57708 -0.79955,2.88545 -1.9035,2.92231c-1.10395,0.03687 -2.04159,-1.21171 -2.09427,-2.78878c-0.05268,-1.57708 0.79956,-2.88546 1.90351,-2.92233c1.10395,-0.03687 2.04158,1.21171 2.09426,2.78879z" fill="url(#color-3)" stroke="none" stroke-width="0" stroke-linecap="butt"/><path d="M341.79914,73.59516c0.04332,1.29715 -0.99547,2.38456 -2.32021,2.42881c-1.32475,0.04425 -2.43379,-0.97142 -2.47712,-2.26857c-0.04332,-1.29715 0.99547,-2.38456 2.32022,-2.42881c1.32475,-0.04425 2.43379,0.97142 2.47711,2.26857z" fill="url(#color-4)" stroke="none" stroke-width="0" stroke-linecap="butt"/><path d="M336.0259,77.49005c0.04149,1.24195 -0.75269,2.2764 -1.77385,2.31051c-1.02116,0.0341 -1.88259,-0.94504 -1.92408,-2.18699c-0.04149,-1.24195 0.7527,-2.27639 1.77385,-2.3105c1.02116,-0.0341 1.88259,0.94504 1.92408,2.18699z" fill="url(#color-5)" stroke="none" stroke-width="0" stroke-linecap="butt"/><path d="M332.758,81.50138c0.01936,0.57958 -0.41242,1.06436 -0.96439,1.0828c-0.55197,0.01844 -1.01513,-0.43645 -1.03449,-1.01603c-0.01936,-0.57958 0.41242,-1.06436 0.96439,-1.0828c0.55197,-0.01844 1.01513,0.43645 1.03449,1.01603z" fill="url(#color-6)" stroke="none" stroke-width="0" stroke-linecap="butt"/><path d="M332.27977,79.16605c0.01106,0.33119 -0.15895,0.60565 -0.37974,0.61302c-0.22078,0.00737 -0.40875,-0.25513 -0.4198,-0.58631c-0.01106,-0.33119 0.15895,-0.60565 0.37974,-0.61302c0.22078,-0.00737 0.40875,0.25513 0.4198,0.58631z" fill="url(#color-7)" stroke="none" stroke-width="0" stroke-linecap="butt"/><path d="M348.52245,104.13774c0.02581,0.77277 -0.46785,1.41641 -1.10262,1.43761c-0.63477,0.0212 -1.17029,-0.58806 -1.1961,-1.36083c-0.02581,-0.77277 0.46785,-1.4164 1.10262,-1.43761c0.63477,-0.0212 1.17029,0.58806 1.1961,1.36083z" fill="url(#color-8)" stroke="none" stroke-width="0" stroke-linecap="butt"/><path d="M347.92778,104.30767c0.03226,0.96596 -0.67989,1.77369 -1.59065,1.80411c-0.91076,0.03042 -1.67524,-0.72798 -1.70751,-1.69394c-0.03226,-0.96596 0.6799,-1.77369 1.59066,-1.80411c0.91076,-0.03042 1.67523,0.72798 1.7075,1.69394z" fill="url(#color-9)" stroke="none" stroke-width="0" stroke-linecap="butt"/><path d="M345.18258,102.9986c0.02305,0.68998 -0.36098,1.26276 -0.85777,1.27935c-0.49677,0.01659 -0.91818,-0.52929 -0.94123,-1.21926c-0.02305,-0.68998 0.361,-1.26276 0.85778,-1.27935c0.49677,-0.01659 0.91818,0.52928 0.94122,1.21926z" fill="url(#color-10)" stroke="none" stroke-width="0" stroke-linecap="butt"/><path d="M350.66344,104.96672c0.0295,0.88317 -0.57576,1.62012 -1.35186,1.64604c-0.7761,0.02593 -1.4292,-0.669 -1.4587,-1.55217c-0.0295,-0.88317 0.57575,-1.62011 1.35187,-1.64604c0.7761,-0.02593 1.42919,0.66901 1.45869,1.55217z" fill="url(#color-11)" stroke="none" stroke-width="0" stroke-linecap="butt"/><path d="M345.0244,104.25458c0.00922,0.27599 -0.34128,0.51168 -0.78287,0.52643c-0.44158,0.01475 -0.80703,-0.19703 -0.81625,-0.47301c-0.00922,-0.27599 0.34128,-0.51168 0.78287,-0.52643c0.44158,-0.01475 0.80703,0.19703 0.81625,0.47302z" fill="url(#color-12)" stroke="none" stroke-width="0" stroke-linecap="butt"/><path d="M343.1453,101.91599c0.00369,0.1104 -0.14994,0.20512 -0.34313,0.21157c-0.1932,0.00646 -0.35279,-0.0778 -0.35648,-0.1882c-0.00369,-0.1104 0.14993,-0.20512 0.34312,-0.21157c0.1932,-0.00646 0.3528,0.0778 0.35649,0.1882z" fill="url(#color-13)" stroke="none" stroke-width="0" stroke-linecap="butt"/><path d="M351.81249,106.77939c0.00646,0.1932 -0.12256,0.35429 -0.28815,0.35982c-0.16559,0.00553 -0.30506,-0.1466 -0.31151,-0.3398c-0.00646,-0.1932 0.12256,-0.35429 0.28814,-0.35981c0.16559,-0.00553 0.30506,0.1466 0.31152,0.33979z" fill="url(#color-14)" stroke="none" stroke-width="0" stroke-linecap="butt"/><path d="M384.15471,83.53675c0.03134,0.93836 -0.70395,1.72447 -1.64231,1.75581c-0.93836,0.03134 -1.72446,-0.70394 -1.7558,-1.64231c-0.03134,-0.93836 0.70394,-1.72446 1.6423,-1.7558c0.93836,-0.03134 1.72447,0.70394 1.75581,1.6423z" fill="url(#color-15)" stroke="none" stroke-width="0" stroke-linecap="butt"/><path d="M383.38207,87.36468c0.03872,1.15915 -0.66822,2.12349 -1.57898,2.15391c-0.91076,0.03042 -1.68046,-0.8846 -1.71918,-2.04375c-0.03872,-1.15915 0.66822,-2.12349 1.57898,-2.15391c0.91076,-0.03042 1.68047,0.8846 1.71919,2.04375z" fill="url(#color-16)" stroke="none" stroke-width="0" stroke-linecap="butt"/><path d="M383.11875,85.47242c0.03319,0.99356 -0.54399,1.81918 -1.28916,1.84407c-0.74518,0.0249 -1.37615,-0.76036 -1.40933,-1.75392c-0.03319,-0.99356 0.54398,-1.81917 1.28915,-1.84407c0.74518,-0.0249 1.37615,0.76037 1.40934,1.75392z" fill="url(#color-17)" stroke="none" stroke-width="0" stroke-linecap="butt"/><path d="M381.7648,89.87006c0.01567,0.46918 -0.35197,0.86223 -0.82115,0.8779c-0.46918,0.01568 -0.86223,-0.35197 -0.8779,-0.82115c-0.01567,-0.46918 0.35197,-0.86222 0.82115,-0.8779c0.46918,-0.01568 0.86223,0.35196 0.8779,0.82114z" fill="url(#color-18)" stroke="none" stroke-width="0" stroke-linecap="butt"/><path d="M380.99008,87.64468c0.00553,0.16558 -0.19133,0.30656 -0.43973,0.31486c-0.2484,0.0083 -0.45423,-0.11923 -0.45977,-0.28481c-0.00553,-0.16558 0.19134,-0.30656 0.43973,-0.31485c0.2484,-0.0083 0.45423,0.11923 0.45976,0.28481z" fill="url(#color-19)" stroke="none" stroke-width="0" stroke-linecap="butt"/><path d="M383.07075,90.02656c0.00461,0.138 -0.10352,0.25359 -0.24151,0.2582c-0.13799,0.00461 -0.25359,-0.10352 -0.2582,-0.24151c-0.00461,-0.138 0.10352,-0.2536 0.24151,-0.25821c0.13799,-0.00461 0.25359,0.10352 0.2582,0.24152z" fill="url(#color-20)" stroke="none" stroke-width="0" stroke-linecap="butt"/><path d="M371.76451,102.01065c0.00646,0.1932 -0.1673,0.35579 -0.38809,0.36316c-0.22078,0.00737 -0.40501,-0.14326 -0.41147,-0.33646c-0.00646,-0.1932 0.1673,-0.35578 0.3881,-0.36316c0.22078,-0.00737 0.405,0.14325 0.41146,0.33645z" fill="url(#color-21)" stroke="none" stroke-width="0" stroke-linecap="butt"/><path d="M373.25366,101.66075c0.00461,0.138 -0.1259,0.25435 -0.29149,0.25988c-0.16559,0.00553 -0.30356,-0.10186 -0.30818,-0.23985c-0.00461,-0.138 0.1259,-0.25435 0.29149,-0.25987c0.16559,-0.00553 0.30356,0.10185 0.30818,0.23985z" fill="url(#color-22)" stroke="none" stroke-width="0" stroke-linecap="butt"/></g><path d="M369.88087,102.51943l0.16709,1.20833c0,0 -0.49196,-0.66683 -0.79129,-0.31245c-0.23784,0.28158 -0.1148,1.90253 -0.1148,1.90253c0,0 -0.67358,-1.36248 -0.97264,-1.09945c-0.14123,0.12422 -0.47083,2.00379 -0.47083,2.00379l-1.09202,-1.19099" data-paper-data="{&quot;index&quot;:null}" fill="none" stroke="#543129" stroke-width="0.5" stroke-linecap="round"/></g><path d="M329.94579,82.22768c0.31498,-4.59158 5.56257,-2.44347 5.56257,-2.44347c0,0 -1.48501,0.85793 -1.33137,5.45775c0.04679,1.40071 0.62902,4.00512 1.522,6.1973c0.47174,1.1581 1.19285,2.88607 1.99273,3.94281c0.64902,0.85744 1.56973,1.671 1.91366,2.46081c1.06468,2.44498 0.36316,3.77898 -0.82641,3.81871c-0.99268,0.03315 -3.21035,-2.30632 -4.93234,-5.23659c-1.88571,-3.20888 -3.25359,-7.12367 -3.62243,-9.34505c-0.29321,-1.76586 -0.38193,-3.34316 -0.27841,-4.85227z" fill="url(#color-23)" stroke="none" stroke-width="0" stroke-linecap="butt"/><path d="M384.08996,79.12571c0.18962,1.52168 0.21064,3.1247 0.05983,4.93175c-0.18972,2.2732 -1.16974,6.32522 -2.66066,9.69545c-1.36148,3.07762 -5.78643,8.23179 -6.68141,8.26168c-1.0725,0.03583 -1.07252,-1.46095 -0.27123,-4.0051c0.10794,-0.34273 1.02344,-1.06318 1.69977,-1.96921c0.94551,-1.2666 1.74511,-2.80051 2.05347,-3.33093c0.65189,-1.12131 0.86425,-2.68413 1.21452,-3.88711c0.66303,-2.27715 1.02018,-4.95188 0.9727,-6.37339c-0.04852,-1.45253 -0.35736,-2.44796 -0.60684,-3.13524c-0.55229,-1.52148 -1.25423,-1.74038 -1.25423,-1.74038c0,0 4.89718,-3.07733 5.47408,1.55249z" data-paper-data="{&quot;index&quot;:null}" fill="url(#color-24)" stroke="none" stroke-width="0" stroke-linecap="butt"/></g></g><g><path d="M378.03148,85.51965c0.01508,0.45162 -0.5578,1.01919 -1.51121,1.05103c-0.95341,0.03184 -1.74157,-0.39931 -1.75665,-0.85092c-0.01508,-0.45162 0.74558,-0.84355 1.69899,-0.87539c0.95341,-0.03184 1.55379,0.22366 1.56887,0.67527z" fill="url(#color-25)" stroke="#291814" stroke-width="0.5" stroke-linecap="butt"/><g stroke="#292929"><path d="M373.21844,75.28717l-0.38686,-2.35736c0,0 0.24629,-0.82859 1.21964,-0.98833c1.08227,-0.17761 1.73409,0.5036 1.73409,0.5036l0.38686,2.35736z" fill="#484848" stroke-width="0.5" stroke-linecap="butt"/><g data-paper-data="{&quot;index&quot;:null}" stroke-width="0.5"><path d="M375.37949,85.26094l-3.28582,-19.65096l1.88037,-0.3249l3.28583,19.65097c0,0 0.22883,0.73774 -0.77992,0.90576c-1.09843,0.18296 -1.10046,-0.58087 -1.10046,-0.58087z" fill="#686868" stroke-linecap="butt"/><path d="M375.52866,85.13218l1.73052,-0.04547" fill="none" stroke-linecap="round"/><path d="M373.51175,73.56494l1.99832,1.55618" fill="none" stroke-linecap="round"/><path d="M373.85904,69.70202c0.13329,-0.02303 0.26439,0.09621 0.29283,0.26632c0.02846,0.17011 -0.05655,0.32668 -0.18984,0.34971c-0.13329,0.02302 -0.26438,-0.0962 -0.29283,-0.26631c-0.02845,-0.17011 0.05655,-0.32668 0.18983,-0.34971z" fill="#686868" stroke-linecap="butt"/><path d="M375.40605,79.44903c0.13329,-0.02303 0.26439,0.09621 0.29284,0.26631c0.02846,0.17011 -0.05655,0.32668 -0.18983,0.3497c-0.13329,0.02303 -0.26437,-0.09619 -0.29282,-0.26631c-0.02846,-0.17011 0.05653,-0.32669 0.18982,-0.34971z" fill="#686868" stroke-linecap="butt"/></g><path d="M373.29522,74.31747l-0.43399,-1.61774c0,0 0.60739,0.18182 1.35775,0.05868c0.62447,-0.10249 1.43188,-0.51648 1.43188,-0.51648l0.1058,1.6716z" fill="#575757" stroke-width="0.25" stroke-linecap="butt"/><path d="M373.53086,77.3416l-0.71716,-4.37011c0,0 0.58738,0.53826 1.45169,0.39641c0.97463,-0.15994 1.5502,-0.88904 1.5502,-0.88904l0.68434,4.3755c0,0 -1.11318,0.45906 -1.62833,0.54359c-0.47048,0.07721 -1.34073,-0.05636 -1.34073,-0.05636z" fill="#4c4c4c" stroke-width="0.5" stroke-linecap="butt"/></g></g><g data-paper-data="{&quot;index&quot;:null}"><path d="M338.06303,86.36876c0.95341,-0.03184 1.73854,0.30845 1.75362,0.76007c0.01508,0.45162 -0.74255,0.9344 -1.69596,0.96625c-0.95341,0.03184 -1.5629,-0.49623 -1.57799,-0.94785c-0.01508,-0.45162 0.5669,-0.74662 1.52032,-0.77846z" fill="url(#color-26)" stroke="#291814" stroke-width="0.5" stroke-linecap="butt"/><g stroke="#292929"><path d="M337.68275,76.32984l0.22868,-2.37793c0,0 0.6049,-0.72319 1.69662,-0.61819c0.98183,0.09443 1.28286,0.90474 1.28286,0.90474l-0.22868,2.37792z" fill="#484848" stroke-width="0.5" stroke-linecap="butt"/><g data-paper-data="{&quot;index&quot;:null}" stroke-width="0.5"><path d="M338.11226,87.36514c-1.01772,-0.10033 -0.83862,-0.85169 -0.83862,-0.85169l1.96724,-19.82642l1.89785,0.1987l-1.96723,19.82642c0,0 0.04895,0.76226 -1.05924,0.65301z" fill="#686868" stroke-linecap="butt"/><path d="M339.01414,86.59361l-1.72969,0.07012" fill="none" stroke-linecap="round"/><path d="M338.36467,76.60363l1.89003,-1.68606" fill="none" stroke-linecap="round"/><path d="M339.65038,71.08647c0.13452,0.01408 0.22978,0.16462 0.21274,0.33625c-0.01704,0.17163 -0.13988,0.29934 -0.2744,0.28526c-0.13452,-0.01408 -0.2298,-0.16463 -0.21276,-0.33627c0.01703,-0.17163 0.13989,-0.29935 0.27441,-0.28527z" fill="#686868" stroke-linecap="butt"/><path d="M338.75716,80.91494c0.13452,0.01408 0.22978,0.16463 0.21274,0.33626c-0.01704,0.17163 -0.13988,0.29935 -0.2744,0.28526c-0.13452,-0.01408 -0.22977,-0.16462 -0.21274,-0.33626c0.01702,-0.17162 0.13989,-0.29933 0.27441,-0.28525z" fill="#686868" stroke-linecap="butt"/></g><path d="M338.03799,75.41519l-0.00597,-1.67492c0,0 0.83325,0.35919 1.46316,0.41977c0.75691,0.07279 1.3508,-0.14915 1.3508,-0.14915l-0.32509,1.64309z" fill="#575757" stroke-width="0.25" stroke-linecap="butt"/><path d="M339.15361,78.8328c-0.51964,-0.04998 -1.66098,-0.43373 -1.66098,-0.43373l0.39085,-4.41142c0,0 0.62295,0.68908 1.60607,0.78361c0.87185,0.08384 1.422,-0.4924 1.422,-0.4924l-0.42395,4.40823c0,0 -0.8594,0.19133 -1.33398,0.14569z" fill="#4c4c4c" stroke-width="0.5" stroke-linecap="butt"/></g></g></g></g><g stroke-width="0.5" stroke-linecap="butt"><path d="M352.92045,30.217c-2.64346,-1.06148 -0.75027,-5.50907 0.86671,-10.64465c0.72297,-2.29617 1.4284,-5.05018 1.35802,-7.11298c-0.02136,-0.62555 -3.31074,-3.12891 -3.03172,-4.48085c0.33706,-1.63315 3.82286,1.92821 3.9227,1.55724c0.65708,-2.4416 1.32805,-5.15841 1.47245,-7.904c0.08206,-1.56018 -3.83787,-0.46314 -8.86373,-3.14988c-3.67012,-1.96199 -5.75465,-2.8656 -6.77253,-4.43619c-0.35274,-0.54427 -0.41154,-1.06615 0.02782,-0.58905c2.1585,2.34389 4.25099,2.54039 7.22944,3.73004c2.86071,1.14262 10.1144,0.02286 9.91219,-4.21435c-0.17233,-3.61103 -0.82011,-6.81406 -1.33112,-9.62628c-0.15127,-0.83244 -6.49736,-4.08168 -6.24621,-4.80132c0.4444,-1.27337 2.80405,0.05271 4.19424,0.3938c0.62817,0.15413 1.08591,-0.33689 1.03156,-0.58491c-0.73461,-3.35177 -1.17717,-5.29562 -0.36157,-5.28021c0.34944,0.00661 0.47669,-0.12371 1.12639,0.98734c2.8329,4.84448 6.84037,14.06647 6.87288,26.40763c0.00744,2.82764 -0.35217,5.53811 -0.9146,8.0561c-0.05674,0.25405 2.64972,2.58164 4.7475,2.48977c0.69587,-0.03047 1.39612,-0.50943 2.08116,-1.25013c0.28451,-0.30762 -0.19218,-1.76629 -0.16438,-3.57965c0.03229,-2.1067 -0.06313,-2.79643 0.24663,-3.30794c0.22625,-0.37362 0.50288,2.02988 1.02497,3.3829c0.38912,1.00842 1.67377,-0.7174 1.82986,-1.0077c1.59985,-2.97553 2.87471,-5.80015 3.4423,-4.82896c0.76192,1.3037 -0.78318,7.35354 -2.65491,10.75026c-1.14949,2.08606 -3.60278,4.00557 -4.59967,4.50404c-3.97139,1.98579 -7.73854,-1.16044 -7.85816,-0.88992c-0.55072,1.24553 -0.33414,2.75111 -0.99003,4.15044c-1.28791,2.74769 -3.80472,12.80274 -7.59817,11.27948z" fill="url(#color-27)" stroke="#150c0a"/><path d="M359.44646,4.71999c0.23248,0.09194 0.14055,0.32441 0.14055,0.32441l-0.14634,0.367c-0.62149,2.91579 -1.22394,6.15115 -1.6544,9.21368c-0.51498,2.71219 -2.07836,4.75167 -3.01712,7.21317c0,0 -0.09357,0.23183 -0.3254,0.13826c-0.23183,-0.09358 -0.13826,-0.3254 -0.13826,-0.3254c1.01366,-2.41007 2.48699,-4.42864 2.98739,-7.1071c0.43779,-3.12079 1.15314,-6.27802 1.66746,-9.27145l0.16172,-0.41202c0,0 0.09193,-0.23248 0.32441,-0.14054z" fill="#2d1b16" stroke="none"/><path d="M360.37003,-15.30786c0.2301,-0.09776 0.32785,0.13233 0.32785,0.13233l0.11172,0.26296c0.62527,1.4717 0.62924,2.66788 0.53172,4.24163c0,0 -0.00536,0.08665 -0.06084,0.15465c0.25902,0.60965 0.57036,1.34245 0.80372,1.89171c1.26524,2.97798 -0.24334,6.89997 -0.27825,10.04832c-0.59605,1.53992 -0.09859,3.47196 -0.05734,5.07427c0.04046,1.57201 -0.56016,3.11055 -0.48816,4.64199c-0.78757,2.56598 -0.91301,4.85089 -2.71298,6.97083c0,0 -0.16208,0.19034 -0.35242,0.02825c-0.19034,-0.16209 -0.02825,-0.35243 -0.02825,-0.35243c1.7391,-2.03571 1.81908,-4.24629 2.59758,-6.70914c-0.08382,-1.50282 0.52712,-3.02184 0.48442,-4.56615c-0.04479,-1.6204 -0.56169,-3.63124 0.06615,-5.18196c-0.0197,-3.05722 1.53659,-6.86926 0.30908,-9.75844c-0.27931,-0.65742 -0.55862,-1.31482 -0.83793,-1.97223l-0.11173,-0.26296c0,0 -0.09776,-0.23009 0.13234,-0.32785c0.01875,-0.00797 0.0366,-0.01376 0.05361,-0.01766c0.0734,-1.34891 0.0434,-2.40263 -0.5109,-3.70726l-0.11172,-0.26296c0,0 -0.09776,-0.2301 0.13234,-0.32786z" fill="#2d1b16" stroke="none"/><path d="M360.50171,-7.89872c0.24936,-0.01781 0.26718,0.23155 0.26718,0.23155l0.02048,0.32438c-0.25322,1.12921 -0.16469,2.30272 -0.42461,3.44279c-0.52754,1.32203 -0.38385,2.85399 -0.94114,4.21364c-0.40226,0.9814 -1.19407,2.16065 -1.20319,3.22436c0,0 -0.01546,0.24951 -0.26499,0.23405c-0.24953,-0.01547 -0.23406,-0.26498 -0.23406,-0.26498c0.19385,-2.05457 1.37216,-5.55706 2.16584,-7.55521c0.24781,-1.10196 0.15506,-2.24123 0.40357,-3.33231l-0.02064,-0.25106c0,0 -0.01781,-0.24937 0.23155,-0.26717z" fill="#2d1b16" stroke="none"/><path d="M348.63998,-1.36042c-0.09776,-0.23009 0.13234,-0.32785 0.13234,-0.32785l0.48672,-0.09756c0.19997,0.13005 0.47615,0.12329 0.71098,0.08136c1.83138,0.45686 6.17018,-1.06123 7.08107,0.96131c0,0 0.09776,0.23009 -0.13234,0.32785c-0.2301,0.09776 -0.32785,-0.13234 -0.32785,-0.13234c-0.60585,-1.55443 -5.20153,-0.27117 -6.64482,-0.6574c-0.31385,0.04401 -0.66046,0.00221 -0.93902,-0.14892l-0.03922,0.12589c0,0 -0.23009,0.09776 -0.32785,-0.13233z" fill="#2d1b16" stroke="none"/><path d="M354.51279,-20.11952c0.01547,-0.24952 0.26499,-0.23406 0.26499,-0.23406l0.30109,0.01929c2.06644,-0.15197 3.30724,-2.10906 4.46091,0.6063c0.91675,2.15773 0.26627,5.50546 -0.30213,7.81932c0,0 -0.05985,0.24273 -0.30258,0.18288c-0.24273,-0.05985 -0.18288,-0.30258 -0.18288,-0.30258c0.54424,-2.19862 1.19588,-5.45999 0.32741,-7.50411c-0.98102,-2.30902 -2.12881,-0.46116 -3.99618,-0.30184l-0.33656,-0.02022c0,0 -0.24953,-0.01546 -0.23406,-0.26498z" fill="#2d1b16" stroke="none"/><path d="M355.73267,-19.11484c0.04629,-0.24567 0.29197,-0.19939 0.29197,-0.19939l0.01483,0.00279c1.021,0.1974 1.95094,0.34817 1.89085,1.70807c0,0 -0.01546,0.24953 -0.26499,0.23407c-0.24953,-0.01547 -0.23406,-0.26498 -0.23406,-0.26498c0.09478,-1.08155 -0.74553,-1.04973 -1.4844,-1.18578l-0.01482,-0.0028c0,0 -0.24568,-0.04629 -0.19939,-0.29197z" fill="#2d1b16" stroke="none"/><path d="M375.32227,4.99782c0.09776,0.2301 -0.13234,0.32785 -0.13234,0.32785l-0.10103,0.0404c-0.07272,0.04192 -0.14517,0.08597 -0.21733,0.13197c0.03528,0.02319 0.06795,0.06022 0.09236,0.11768c0.07437,0.17504 -0.041,0.2735 -0.10046,0.31059c0.17194,3.07522 -1.47334,6.35084 -5.02754,6.134c-2.07178,-0.53524 -4.9768,-1.01137 -7.1383,-1.14532c0,0 -0.24953,-0.01546 -0.23406,-0.26498c0.01547,-0.24953 0.26499,-0.23405 0.26499,-0.23405c2.1794,0.13505 5.09858,0.61134 7.18573,1.15055c3.26676,0.20678 4.64252,-2.94278 4.44428,-5.70655c-1.16512,0.89827 -2.24263,2.22948 -3.15882,3.30538c0,0 -0.16209,0.19034 -0.35243,0.02825c-0.19034,-0.16207 -0.02825,-0.35242 -0.02825,-0.35242c1.16198,-1.36456 2.51279,-2.98374 4.01343,-3.90434l0.16193,-0.07133c0,0 0.2301,-0.09776 0.32785,0.13234z" fill="#2d1b16" stroke="none"/><path d="M369.27647,13.12053c-0.01547,0.24953 -0.26499,0.23406 -0.26499,0.23406l-0.30109,-0.01929c-2.12447,0.17065 -3.83004,-0.63792 -5.74793,-0.9976c0,0 -0.24567,-0.04629 -0.19937,-0.29196c0.04629,-0.24567 0.29196,-0.19939 0.29196,-0.19939c1.90123,0.36003 3.55542,1.15667 5.65081,0.98898l0.33655,0.02022c0,0 0.24953,0.01546 0.23406,0.26499z" fill="#2d1b16" stroke="none"/><path d="M353.70536,9.644c0.09357,-0.23183 0.3254,-0.13825 0.3254,-0.13825l0.18735,0.07563c0.54809,0.24587 0.92213,0.71824 0.92167,1.31889c0,0 -0.01547,0.24953 -0.26499,0.23406c-0.24953,-0.01546 -0.23405,-0.26499 -0.23405,-0.26499c0.05948,-0.31209 -0.30217,-0.7217 -0.60978,-0.82433l-0.18734,-0.07562c0,0 -0.23183,-0.09357 -0.13826,-0.3254z" fill="#2d1b16" stroke="none"/></g><g data-paper-data="{&quot;index&quot;:null}" stroke-linecap="butt"><path d="M310.23113,65.74567c-2.19189,-1.30921 -0.44628,-11.20831 3.39044,-16.29526c3.83672,-5.08695 7.88517,-5.05801 11.08557,-2.64419c3.2004,2.41381 4.3408,6.29846 0.5041,11.38541c-2.30577,3.05714 -6.67291,5.51306 -10.1381,6.77889c-0.42492,0.15523 0.66535,0.95552 0.27302,1.07387c-0.4463,0.13463 -2.36961,-0.41828 -2.75862,-0.33438c-0.40911,0.08823 0.21997,0.97841 -0.10752,1.00692c-0.56959,0.04959 -2.00366,-0.82482 -2.24888,-0.97129z" fill="#724538" stroke="#291814" stroke-width="1"/><path d="M313.25241,61.80088c0,0 -0.29354,-7.37216 2.23001,-10.71805c2.52356,-3.34589 5.1864,-3.32686 7.29143,-1.73918c2.10503,1.58767 2.85513,4.14276 0.33156,7.48864c-2.52356,3.34589 -9.85301,4.9686 -9.85301,4.9686z" fill="url(#color-28)" stroke="#b76e59" stroke-width="0.5"/></g><path d="M370.78837,49.70431c4.29767,10.11536 13.71822,13.97874 -14.84101,26.18863c-28.00673,11.97368 -25.16809,1.88196 -29.46576,-8.2334c-4.29767,-10.11536 -9.18109,-24.78393 11.74038,-33.99799c19.63971,-8.64955 28.26872,5.9274 32.56639,16.04276z" fill="#3c231d" stroke="#291814" stroke-width="1" stroke-linecap="butt"/><g data-paper-data="{&quot;index&quot;:null}" stroke="#292929" stroke-width="0.5"><path d="M361.59901,56.77806c-0.44441,0.33862 -2.7468,-0.89089 -2.7468,-0.89089l-12.07539,-15.84766c0,0 -0.80162,-2.84419 -0.35721,-3.18281c0.39485,-0.30087 2.89257,1.25094 2.89257,1.25094l12.07539,15.84765c0,0 0.6063,2.5219 0.21143,2.82276z" fill="#686868" stroke-linecap="butt"/><path d="M361.44357,54.0991l-2.42918,1.53686" fill="none" stroke-linecap="round"/><path d="M349.22186,38.28441l-2.06083,1.57028" fill="none" stroke-linecap="round"/><path d="M351.78941,46.37894l3.41337,-0.2452" fill="none" stroke-linecap="round"/><path d="M350.81975,42.40643c0.17971,-0.13694 0.41013,-0.13674 0.51466,0.00045c0.10454,0.13719 0.04358,0.35941 -0.13613,0.49634c-0.17971,0.13693 -0.41012,0.13672 -0.51466,-0.00045c-0.10453,-0.13717 -0.04359,-0.35941 0.13612,-0.49633z" fill="#686868" stroke-linecap="butt"/><path d="M356.69219,50.33836c0.17971,-0.13694 0.41013,-0.13672 0.51466,0.00046c0.10454,0.13719 0.04359,0.3594 -0.13612,0.49633c-0.17971,0.13694 -0.41012,0.13673 -0.51466,-0.00046c-0.10454,-0.13719 -0.04359,-0.35941 0.13612,-0.49634z" fill="#686868" stroke-linecap="butt"/></g><g stroke-linecap="butt"><path d="M367.86498,31.99274c-3.168,5.5282 -7.1881,6.00754 -10.66612,4.01442c-3.47802,-1.99312 -5.09688,-5.70393 -1.92888,-11.23215c3.168,-5.5282 11.93361,-10.43005 13.64855,-9.52613c1.19272,0.62866 1.73635,5.44922 1.01258,10.22506c-0.07072,0.46665 0.27187,2.17009 0.14718,2.78685c-0.11232,0.55554 -0.68981,0.02684 -0.79683,0.43286c-0.18637,0.70707 0.48815,2.64485 0.2346,3.2976c-0.25408,0.65414 -1.32508,-0.56742 -1.65109,0.00148z" fill="#724538" stroke="#291814" stroke-width="1"/><path d="M365.78694,30.59127c-2.08373,3.63613 -4.7279,3.95141 -7.01553,2.64045c-2.28764,-1.31095 -3.35242,-3.75171 -1.2687,-7.38784c2.08373,-3.63613 8.9772,-6.26572 8.9772,-6.26572c0,0 1.39076,7.37699 -0.69296,11.01311z" fill="url(#color-29)" stroke="#b76e59" stroke-width="0.5"/></g><g stroke="#292929" stroke-width="0.5"><path d="M335.40229,64.66955l-3.02463,-19.69302c0,0 0.61688,-2.8751 1.10754,-2.95046c0.55223,-0.08481 2.04301,2.46657 2.04301,2.46657l3.02464,19.69302c0,0 -0.71329,2.51077 -1.26552,2.59558c-0.49066,0.07536 -1.88504,-2.11169 -1.88504,-2.11169z" fill="#686868" stroke-linecap="butt"/><path d="M335.46697,64.80974l2.79252,-0.68167" fill="none" stroke-linecap="round"/><path d="M332.56764,45.03428l2.56088,-0.39332" fill="none" stroke-linecap="round"/><path d="M336.61171,52.50147l-2.546,2.28674" fill="none" stroke-linecap="round"/><path d="M334.8771,49.29246c0.02618,0.17048 -0.13361,0.33647 -0.35693,0.37076c-0.22332,0.0343 -0.42558,-0.07609 -0.45177,-0.24655c-0.02618,-0.17048 0.13362,-0.33648 0.35694,-0.37077c0.22332,-0.0343 0.42557,0.07609 0.45175,0.24657z" fill="#686868" stroke-linecap="butt"/><path d="M336.51006,59.02562c0.02618,0.17048 -0.13362,0.33648 -0.35694,0.37077c-0.22332,0.0343 -0.42557,-0.07608 -0.45175,-0.24656c-0.02618,-0.17048 0.13363,-0.33648 0.35694,-0.37077c0.22332,-0.0343 0.42557,0.0761 0.45175,0.24658z" fill="#686868" stroke-linecap="butt"/></g><path d="M350.13981,61.37581l-9.28859,-21.86239l17.02695,-7.23417l9.28859,21.8624z" fill="url(#color-30)" stroke="none" stroke-width="NaN" stroke-linecap="butt"/><g stroke-linecap="butt"><path d="M341.52322,53.15428c1.8513,4.35737 2.59839,8.07111 -2.00008,10.07704c-3.45862,1.50869 -7.45728,0.89169 -9.53049,-4.35653c-2.06878,-5.04541 -0.42099,-9.96334 3.2667,-11.61001c3.5582,-1.59841 6.41258,1.53213 8.26388,5.88951z" fill="#e4e4e4" stroke="#575757" stroke-width="0.5"/><g stroke="none" stroke-width="0"><path d="M340.27769,54.3105c0.7973,1.8766 0.4846,3.80539 -0.69849,4.30804c-1.18308,0.50265 -2.7885,-0.61116 -3.58582,-2.48779c-0.7973,-1.8766 -0.48459,-3.80541 0.69849,-4.30806c1.18308,-0.50265 2.7885,0.61119 3.58582,2.48781z" fill="#000000"/><path d="M336.25857,57.56451l-1.02186,-2.40514l2.51472,0.59887z" fill="#e4e4e4"/></g><path d="M339.16715,48.1991c0.44736,1.05293 -1.96605,-1.97399 -5.73311,-0.44862c-4.54014,1.8384 -4.36133,5.52769 -4.80869,4.47476c-0.44736,-1.05293 2.22171,-4.37162 4.58172,-5.3743c2.36001,-1.00268 5.51274,0.29523 5.96009,1.34817z" fill="#523128" stroke="#291814" stroke-width="0.5"/><path d="M339.79293,63.66051c-2.49068,1.0582 -6.94697,0.76684 -7.39433,-0.2861c-0.44736,-1.05293 2.38584,1.71556 7.11036,-0.38227c3.92007,-1.74063 3.65202,-5.96361 4.09938,-4.91069c0.44736,1.05293 -1.32473,4.52086 -3.81541,5.57906z" data-paper-data="{&quot;index&quot;:null}" fill="#523128" stroke="#291814" stroke-width="0.5"/></g><path d="M331.33995,69.72397l-9.28859,-21.86241l17.02695,-7.23416l9.28859,21.8624z" fill="url(#color-31)" stroke="none" stroke-width="NaN" stroke-linecap="butt"/><path d="M373.84799,51.54751c0.30968,0.6583 2.33244,2.75272 3.66436,4.71075c0.4293,0.63111 0.83514,1.35839 1.18805,2.05427c-2.20729,0.22005 -4.03376,0.38343 -5.22978,-2.00861c0,0 -0.1118,-0.22361 -0.33541,-0.1118c-0.22361,0.1118 -0.1118,0.33541 -0.1118,0.33541c1.36179,2.72359 3.4149,2.46657 5.90656,2.24794c0.61522,1.26814 1.02043,2.3245 1.02043,2.3245c0,0 -0.33016,0.58688 -1.06389,1.53113l-0.11339,-0.2394c-1.82325,-1.00771 -4.02378,-0.7149 -6.29129,-0.73998c-2.78983,-0.03085 -0.69422,-3.07889 -2.88766,-4.20616c-0.9094,-0.46737 -2.97727,-0.03847 -2.57077,1.08197c0,0 0.1118,0.22361 0.33541,0.1118c0.22361,-0.1118 0.1118,-0.33541 0.1118,-0.33541c-0.40428,-0.47185 1.52827,-0.60811 1.89287,-0.41475c2.19928,1.16635 -0.22584,4.2256 3.11281,4.26252c2.14008,0.02366 4.38929,-0.32833 6.04543,0.67221l-0.01259,0.16875c0,0 0.01025,0.03169 0.03483,0.06819c-0.8346,1.02172 -2.06701,2.35496 -3.76633,3.78364c-0.45299,0.38085 -0.93447,0.7692 -1.44157,1.16288c-0.27774,-0.61255 0.14328,-1.81996 -0.39005,-2.18099c0.02991,-0.03656 0.05099,-0.08807 0.05099,-0.16065c0,-0.25 -0.25,-0.25 -0.25,-0.25h-0.5c-0.13807,0 -0.25,0.11193 -0.25,0.25c0,0.0998 0.05848,0.18594 0.14304,0.22603l0.19132,0.09566c0.48542,0.76175 0.08981,1.574 0.59638,2.33388c-4.36118,3.32117 -10.46859,6.97675 -16.64126,9.69114c-5.70202,2.50743 -11.33393,4.3405 -16.0004,5.10069c-6.4991,1.05873 -10.80674,0.33854 -10.80674,0.33854c0,0 -1.5521,-3.41008 -2.15583,-5.71681c-0.60372,-2.30672 -0.69028,-4.98956 -1.07209,-5.9652c-0.56874,-1.45329 -1.15302,-2.92883 -1.71676,-4.41767c-0.19509,-0.51522 -0.80975,0.95813 -0.99842,0.44008c-0.25446,-0.69872 -0.0797,-3.38984 -0.31611,-4.0921c-0.24142,-0.71713 -1.11212,0.46631 -1.32697,-0.25259c-0.11196,-0.37462 0.42084,-2.65129 0.31771,-3.02599c-2.9153,-10.59228 -2.08243,-21.16246 14.98769,-28.61449c23.17034,-10.09329 30.23659,6.10822 36.6494,19.74061zM372.747,65.41571v0.22049l0.05902,0.02951l-0.05902,0.11803v0.13197l-0.06598,0l-0.09861,0.19721l-0.25105,-0.12552c-0.08154,-0.12796 -0.18795,-0.2545 -0.32768,-0.37913zM357.98332,56.57014c7.16404,-2.88855 7.12796,-8.56779 5.61621,-12.12596c-2.01518,-4.74311 -8.18223,-10.15832 -14.04324,-8.13142c-4.91931,1.69231 -5.04143,6.20231 -4.19704,8.99376c1.11158,3.67472 2.82252,8.37431 5.85138,11.14106c1.5947,1.45669 4.51156,1.03424 6.77269,0.12256zM340.6913,64.41364c5.88247,-2.79948 4.82608,-6.5421 3.31434,-10.10026c-0.96526,-2.2719 -3.35392,-8.98524 -5.96882,-10.41794c-1.48046,-0.81114 -3.25248,-1.03064 -5.34677,-0.14086c-6.38205,2.71152 -7.19015,10.11107 -4.47863,16.49314c1.51174,3.55816 5.92864,7.28365 12.47988,4.16591z" fill="#724538" stroke="#291814" stroke-width="1" stroke-linecap="butt"/><path d="M370.71752,69.57921c-1.27299,1.58813 -5.98282,5.9814 -14.26477,9.59372c-10.9304,4.7415 -15.50847,3.75261 -15.50847,3.75261c0,0 -5.40579,-7.74225 -3.6869,-12.78713c1.39875,-4.10524 7.78168,-7.0197 11.11383,-8.60261c3.44788,-1.63788 12.17658,-5.25919 16.27364,-2.63079c4.92624,3.16036 6.07267,10.67422 6.07267,10.67422z" fill="url(#color-32)" stroke="#291814" stroke-width="1" stroke-linecap="butt"/><path d="M346.66473,72.11656c0.63709,1.49951 0.10278,3.16155 -1.1934,3.71225c-1.29618,0.5507 -2.86343,-0.21846 -3.50052,-1.71797c-0.63709,-1.49951 -0.10279,-3.16154 1.1934,-3.71225c1.29618,-0.5507 2.86342,0.21846 3.50051,1.71797z" fill="url(#color-33)" stroke="none" stroke-width="0" stroke-linecap="butt"/><path d="M346.33619,68.01872c0.29156,0.68622 -0.31684,1.6014 -1.35887,2.04413c-1.04203,0.44272 -2.12311,0.24534 -2.41467,-0.44088c-0.29156,-0.68622 0.31684,-1.6014 1.35887,-2.04413c1.04203,-0.44272 2.12312,-0.24533 2.41467,0.44088z" fill="url(#color-34)" stroke="none" stroke-width="0" stroke-linecap="butt"/><path d="M343.63228,71.8838c0.35634,0.83871 -0.0965,1.83375 -1.01146,2.22248c-0.91496,0.38873 -1.94554,0.02396 -2.30188,-0.81476c-0.35634,-0.83871 0.0965,-1.83375 1.01146,-2.22248c0.91496,-0.38873 1.94554,-0.02396 2.30188,0.81476z" fill="url(#color-35)" stroke="none" stroke-width="0" stroke-linecap="butt"/><path d="M345.09584,69.95818c0.42113,0.9912 0.00019,2.11862 -0.94018,2.51815c-0.94038,0.39954 -2.04409,-0.08011 -2.46522,-1.07131c-0.42113,-0.9912 -0.00019,-2.11862 0.94018,-2.51815c0.94038,-0.39954 2.04408,0.08011 2.46522,1.07131z" fill="url(#color-36)" stroke="none" stroke-width="0" stroke-linecap="butt"/><path d="M348.95187,71.36213c0.14038,0.33039 0.02754,0.69453 -0.25203,0.81331c-0.27958,0.11878 -0.62,-0.05278 -0.76038,-0.38317c-0.14038,-0.33039 -0.02754,-0.69453 0.25203,-0.81331c0.27958,-0.11878 0.62,0.05278 0.76038,0.38317z" fill="url(#color-37)" stroke="none" stroke-width="0" stroke-linecap="butt"/><path d="M343.30751,74.95536c0.0324,0.07625 -0.02375,0.17307 -0.12542,0.21627c-0.10167,0.04319 -0.21033,0.0164 -0.24273,-0.05985c-0.0324,-0.07625 0.02375,-0.17307 0.12542,-0.21627c0.10167,-0.04319 0.21033,-0.0164 0.24273,0.05985z" fill="url(#color-38)" stroke="none" stroke-width="0" stroke-linecap="butt"/><path d="M339.74859,70.92624c0.0324,0.07625 -0.04437,0.18183 -0.17144,0.23582c-0.12707,0.05399 -0.25635,0.03594 -0.28875,-0.0403c-0.0324,-0.07625 0.04437,-0.18182 0.17144,-0.23581c0.12707,-0.05399 0.25635,-0.03595 0.28875,0.0403z" fill="url(#color-39)" stroke="none" stroke-width="0" stroke-linecap="butt"/><path d="M366.05475,54.5887c0.15118,0.35581 -0.17955,0.83684 -0.73869,1.0744c-0.55914,0.23756 -1.13496,0.14169 -1.28614,-0.21413c-0.15118,-0.35581 0.17955,-0.83684 0.73868,-1.0744c0.55914,-0.23756 1.13497,-0.14169 1.28614,0.21413z" fill="url(#color-40)" stroke="none" stroke-width="0" stroke-linecap="butt"/><path d="M371.72959,55.92612c0.05399,0.12707 0.03595,0.25635 -0.04029,0.28875c-0.07626,0.0324 -0.18183,-0.04436 -0.23582,-0.17144c-0.05399,-0.12707 -0.03596,-0.25635 0.0403,-0.28875c0.07626,-0.0324 0.18182,0.04436 0.23581,0.17144z" fill="url(#color-41)" stroke="none" stroke-width="0" stroke-linecap="butt"/><path d="M367.22646,49.41886c0.15118,0.35581 0.1501,0.69678 -0.00239,0.76157c-0.15249,0.06479 -0.39866,-0.17113 -0.54983,-0.52695c-0.15118,-0.35581 -0.1501,-0.69679 0.00239,-0.76158c0.15249,-0.06479 0.39866,0.17114 0.54984,0.52696z" fill="url(#color-42)" stroke="none" stroke-width="0" stroke-linecap="butt"/><path d="M339.772,36.72734c0.44392,1.04485 -0.20348,2.31983 -1.44601,2.84774c-1.24253,0.52791 -2.60967,0.10884 -3.0536,-0.93601c-0.44392,-1.04485 0.20347,-2.31983 1.44601,-2.84774c1.24253,-0.52791 2.60968,-0.10884 3.0536,0.93601z" fill="url(#color-43)" stroke="none" stroke-width="0" stroke-linecap="butt"/><path d="M336.33204,38.00778c0.35994,0.84718 -0.01216,1.81602 -0.8311,2.16396c-0.81894,0.34794 -1.77462,-0.05677 -2.13455,-0.90395c-0.35994,-0.84718 0.01216,-1.81603 0.8311,-2.16397c0.81894,-0.34794 1.77462,0.05678 2.13456,0.90396z" fill="url(#color-44)" stroke="none" stroke-width="0" stroke-linecap="butt"/><path d="M334.90671,38.91515c0.37194,0.87542 -0.15067,1.93524 -1.16729,2.36717c-1.01662,0.43192 -2.14227,0.0724 -2.51421,-0.80302c-0.37194,-0.87541 0.15068,-1.93524 1.1673,-2.36716c1.01662,-0.43192 2.14226,-0.0724 2.5142,0.80302z" fill="url(#color-45)" stroke="none" stroke-width="0" stroke-linecap="butt"/><path d="M338.70698,39.05105c0.33594,0.79071 0.12753,1.63594 -0.4655,1.8879c-0.59303,0.25196 -1.34611,-0.18477 -1.68205,-0.97548c-0.33594,-0.79071 -0.12752,-1.63594 0.4655,-1.8879c0.59303,-0.25196 1.34611,0.18478 1.68205,0.97548z" fill="url(#color-46)" stroke="none" stroke-width="0" stroke-linecap="butt"/><path d="M335.58017,40.50025c0.19196,0.45183 0.02709,0.95427 -0.36827,1.12224c-0.39535,0.16797 -0.87147,-0.06213 -1.06344,-0.51396c-0.19196,-0.45183 -0.02709,-0.95428 0.36826,-1.12225c0.39535,-0.16797 0.87148,0.06214 1.06344,0.51397z" fill="url(#color-47)" stroke="none" stroke-width="0" stroke-linecap="butt"/><path d="M340.01627,35.59739c0.16797,0.39534 -0.01636,0.85202 -0.41171,1.01999c-0.39535,0.16797 -0.85202,-0.01637 -1.01999,-0.41171c-0.16797,-0.39534 0.01636,-0.85202 0.41171,-1.01999c0.39535,-0.16797 0.85202,0.01637 1.01999,0.41171z" fill="url(#color-48)" stroke="none" stroke-width="0" stroke-linecap="butt"/><path d="M335.27756,36.94673c0.17996,0.42359 0.05116,0.88369 -0.28771,1.02767c-0.33887,0.14397 -0.75948,-0.08269 -0.93945,-0.50629c-0.17996,-0.42359 -0.05116,-0.8837 0.28772,-1.02768c0.33887,-0.14397 0.75947,0.0827 0.93944,0.5063z" fill="url(#color-49)" stroke="none" stroke-width="0" stroke-linecap="butt"/><path d="M340.97585,38.99249c0.08398,0.19768 -0.03107,0.43574 -0.25699,0.53172c-0.22591,0.09598 -0.47714,0.01354 -0.56112,-0.18413c-0.08398,-0.19768 0.03107,-0.43574 0.25698,-0.53172c0.22591,-0.09598 0.47715,-0.01354 0.56113,0.18413z" fill="url(#color-50)" stroke="none" stroke-width="0" stroke-linecap="butt"/><path d="M343.01743,36.97824c0.07198,0.16943 0.01588,0.35543 -0.12532,0.41542c-0.14119,0.05999 -0.31402,-0.02874 -0.38601,-0.19818c-0.07198,-0.16943 -0.01588,-0.35543 0.12532,-0.41542c0.14119,-0.05999 0.31402,0.02874 0.38601,0.19818z" fill="url(#color-51)" stroke="none" stroke-width="0" stroke-linecap="butt"/><path d="M328.4015,40.65284c0.024,0.05647 -0.07102,0.1509 -0.21222,0.21089c-0.14119,0.05999 -0.27511,0.06283 -0.29911,0.00636c-0.024,-0.05647 0.07102,-0.1509 0.21222,-0.21089c0.14119,-0.05999 0.27511,-0.06283 0.29911,-0.00636z" fill="url(#color-52)" stroke="none" stroke-width="0" stroke-linecap="butt"/><path d="M327.82763,63.17017c0.39593,0.9319 0.09879,1.94998 -0.66366,2.27392c-0.76245,0.32394 -1.70153,-0.1689 -2.09746,-1.1008c-0.39593,-0.9319 -0.09879,-1.94997 0.66366,-2.27391c0.76245,-0.32394 1.70153,0.16889 2.09746,1.10079z" fill="url(#color-53)" stroke="none" stroke-width="0" stroke-linecap="butt"/><path d="M326.53686,60.70051c0.29995,0.70598 -0.0521,1.53117 -0.78633,1.84313c-0.73423,0.31195 -1.57259,-0.00749 -1.87253,-0.71346c-0.29995,-0.70598 0.0521,-1.53118 0.78632,-1.84313c0.73423,-0.31195 1.57259,0.00748 1.87255,0.71346z" fill="url(#color-54)" stroke="none" stroke-width="0" stroke-linecap="butt"/><path d="M325.73515,62.79159c0.31194,0.73422 0.08409,1.53369 -0.50894,1.78565c-0.59303,0.25195 -1.32665,-0.139 -1.6386,-0.87323c-0.31194,-0.73422 -0.08409,-1.53369 0.50894,-1.78565c0.59303,-0.25196 1.32665,0.139 1.6386,0.87323z" fill="url(#color-55)" stroke="none" stroke-width="0" stroke-linecap="butt"/><path d="M326.81498,65.04909c0.25196,0.59302 -0.04743,1.28775 -0.6687,1.5517c-0.62126,0.26395 -1.32915,-0.00281 -1.5811,-0.59584c-0.25196,-0.59302 0.04743,-1.28774 0.6687,-1.55169c0.62126,-0.26395 1.32915,0.00281 1.5811,0.59583z" fill="url(#color-56)" stroke="none" stroke-width="0" stroke-linecap="butt"/><path d="M324.06978,61.14506c0.05999,0.1412 -0.05163,0.32374 -0.2493,0.40772c-0.19767,0.08398 -0.40655,0.03761 -0.46654,-0.10359c-0.05999,-0.1412 0.05163,-0.32375 0.2493,-0.40773c0.19767,-0.08398 0.40655,-0.0376 0.46654,0.10359z" fill="url(#color-57)" stroke="none" stroke-width="0" stroke-linecap="butt"/><path d="M328.39136,62.5081c0.14398,0.33888 0.05465,0.70113 -0.1995,0.80911c-0.25415,0.10798 -0.57691,-0.07919 -0.72088,-0.41807c-0.14398,-0.33888 -0.05465,-0.70112 0.1995,-0.80909c0.25415,-0.10798 0.5769,0.07918 0.72088,0.41806z" fill="url(#color-58)" stroke="none" stroke-width="0" stroke-linecap="butt"/><path d="M332.54223,81.08653c0.29995,0.70598 -0.14367,1.57009 -0.99085,1.93003c-0.84719,0.35994 -1.77712,0.07941 -2.07707,-0.62657c-0.29995,-0.70598 0.14368,-1.5701 0.99086,-1.93003c0.84719,-0.35994 1.77711,-0.07941 2.07706,0.62658z" fill="url(#color-59)" stroke="none" stroke-width="0" stroke-linecap="butt"/><path d="M331.19007,79.60871c0.25196,0.59302 0.04414,1.24884 -0.46416,1.4648c-0.50831,0.21596 -1.12463,-0.0897 -1.37659,-0.68273c-0.25196,-0.59302 -0.04413,-1.24884 0.46417,-1.4648c0.50831,-0.21596 1.12462,0.08971 1.37658,0.68273z" fill="url(#color-60)" stroke="none" stroke-width="0" stroke-linecap="butt"/><path d="M327.24133,48.74446c0,0 -0.49539,-0.61397 -0.71693,-1.06243c-0.22154,-0.44847 -0.58504,-1.57311 -0.58504,-1.57311c0,0 0.71624,0.65415 1.25224,0.95477c0.536,0.30062 0.78109,0.18565 0.78109,0.18565z" fill="#000000" stroke="none" stroke-width="0" stroke-linecap="butt"/><path d="M326.68455,50.21478c0,0 -0.54181,-0.57342 -0.79769,-1.00322c-0.25587,-0.4298 -0.70607,-1.52264 -0.70607,-1.52264c0,0 0.76512,0.59623 1.32295,0.85409c0.55783,0.25786 0.79321,0.12412 0.79321,0.12412z" fill="#000000" stroke="none" stroke-width="0" stroke-linecap="butt"/><path d="M326.40329,51.78492c0,0 -0.6507,-0.44606 -0.99157,-0.81212c-0.34087,-0.36606 -1.01171,-1.33917 -1.01171,-1.33917c0,0 0.87378,0.42119 1.4735,0.55542c0.59971,0.13423 0.80151,-0.0462 0.80151,-0.0462z" fill="#000000" stroke="none" stroke-width="0" stroke-linecap="butt"/><g data-paper-data="{&quot;index&quot;:null}" fill="#000000" stroke="none" stroke-width="0" stroke-linecap="butt"><path d="M354.02249,35.58617c0,0 0.25288,-0.09662 0.40858,-0.69112c0.15569,-0.5945 0.18203,-1.56415 0.18203,-1.56415c0,0 0.55719,1.04234 0.72621,1.51313c0.16902,0.47078 0.26706,1.25357 0.26706,1.25357z"/><path d="M355.51212,36.08395c0,0 0.25966,-0.07657 0.46129,-0.6571c0.20162,-0.58053 0.30361,-1.54516 0.30361,-1.54516c0,0 0.4741,1.08267 0.60585,1.56521c0.13175,0.48253 0.16838,1.27059 0.16838,1.27059z"/><path d="M357.00608,36.66066c0,0 0.26997,-0.02002 0.58965,-0.54486c0.31969,-0.52485 0.62308,-1.44619 0.62308,-1.44619c0,0 0.23476,1.15838 0.26162,1.65785c0.02686,0.49947 -0.10376,1.27749 -0.10376,1.27749z"/></g><path d="M333.80985,74.80366l-1.13367,1.15141c0,0 -0.26258,-1.89011 -0.3993,-2.01926c-0.28953,-0.2735 -1.01112,1.06417 -1.01112,1.06417c0,0 0.1806,-1.61556 -0.04709,-1.90541c-0.28654,-0.3648 -0.8019,0.28413 -0.8019,0.28413l0.20995,-1.20163" fill="none" stroke="#543129" stroke-width="0.5" stroke-linecap="round"/><path d="M341.43879,32.34931l1.01068,0.68302c0,0 -0.82485,-0.07951 -0.76118,0.37997c0.05059,0.3651 1.33883,1.3566 1.33883,1.3566c0,0 -1.46377,-0.40919 -1.46789,-0.01093c-0.00194,0.18807 1.17628,1.68915 1.17628,1.68915l-1.61576,0.01673" data-paper-data="{&quot;index&quot;:null}" fill="none" stroke="#291814" stroke-width="0.5" stroke-linecap="round"/><path d="M352.30716,67.65847l4.07795,9.5982" fill="none" stroke="#4c2c25" stroke-width="1" stroke-linecap="round"/><g stroke="#000000" stroke-width="0.75"><path d="M358.25694,25.40382c1.37571,3.23799 -6.16664,9.5412 -16.8463,14.07862c-10.67966,4.53742 -20.45248,5.59083 -21.82819,2.35285c-1.37571,-3.23798 6.16664,-9.5412 16.84631,-14.07863c10.67966,-4.53742 20.45247,-5.59082 21.82819,-2.35284z" fill="#090909" stroke-linecap="butt"/><path d="M357.91923,25.46638c0,0 -4.75626,7.92351 -17.81364,13.1403c-13.25808,5.29698 -20.3786,3.41007 -20.3786,3.41007" fill="none" stroke-linecap="round"/><path d="M325.56045,35.36836c-0.82938,-2.32138 -2.45565,-6.804 -3.55924,-9.4015c-0.49415,-1.16308 -1.19404,-2.68651 -1.92297,-4.23178c0.71393,-0.51657 1.34748,-1.03849 1.82866,-1.49036c1.56033,-1.47415 0.85959,-2.89741 1.9044,-4.40295c1.05674,-1.52275 2.52043,-2.42701 4.16684,-2.70604c0.38482,-0.06522 1.48841,-0.4602 1.84032,-0.31377c0.53424,0.2223 0.60242,1.54841 1.08019,1.68575c0.67202,0.19318 0.96534,-0.86649 1.20321,-1.07377c1.40368,-1.22317 3.61422,1.31905 4.37851,-1.26761c0.01247,-0.92089 -0.6351,-3.27748 -1.29236,-3.98297c-0.47296,-0.50767 -1.46115,-0.57546 -2.16138,-0.87236c2.95543,-1.00175 5.55689,-1.77309 6.83221,-2.31493c0.64258,-0.27301 1.09321,0.17214 1.3098,0.83586c0.71072,2.1778 2.23401,6.74307 3.35397,9.3791c1.19445,2.81136 3.71722,7.7652 4.93124,10.11857c0.43339,0.84014 0.61237,1.54271 0.03857,2.29399c-1.19726,1.56756 -4.33143,4.76396 -11.51582,7.74584c-5.85167,2.42874 -9.38162,2.16183 -10.94034,1.80091c-0.63963,-0.14811 -1.47581,-1.80195 -1.47581,-1.80195z" fill="url(#color-61)" stroke-linecap="butt"/></g><path d="M364.2426,38.91215l1.19799,0.22982c0,0 -0.78952,0.25174 -0.55004,0.64903c0.19028,0.31567 1.76488,0.71974 1.76488,0.71974c0,0 -1.50663,0.20031 -1.35359,0.56801c0.07227,0.17363 1.74642,1.08944 1.74642,1.08944l-1.47861,0.65167" data-paper-data="{&quot;index&quot;:null}" fill="none" stroke="#543129" stroke-width="0.5" stroke-linecap="round"/><g stroke-linecap="butt"><path d="M355.28505,60.6959c0.6001,1.41246 -0.68475,2.27444 -1.14645,3.57879c-0.47926,1.35397 -0.17227,3.13463 -1.55516,3.72218c-1.38289,0.58755 -2.92563,-1.18087 -4.23291,-1.7758c-1.25937,-0.57313 -2.29763,0.06467 -2.89774,-1.34779c-1.22305,-2.87866 0.72496,-4.41897 3.37826,-5.70832c2.79837,-1.35985 5.23095,-1.34772 6.45399,1.53094z" fill="#040404" stroke="#000000" stroke-width="0.75"/><path d="M347.42152,61.60594c0.10989,0.25863 -0.4403,0.7714 -0.51124,1.01491c-0.0849,0.29142 0.05891,0.83327 -0.23126,0.95655c-0.53263,0.2263 -0.87954,-0.17002 -1.12092,-0.73816c-0.24138,-0.56814 -0.00528,-1.21216 0.52735,-1.43846c0.53263,-0.2263 1.09468,-0.363 1.33606,0.20514z" fill="url(#color-62)" stroke="none" stroke-width="0"/></g><path d="M359.37937,60.80135c0.07198,0.16943 0.01589,0.35542 -0.1253,0.4154c-0.14119,0.05999 -0.31403,-0.02873 -0.38601,-0.19816c-0.07198,-0.16943 -0.01587,-0.35542 0.12532,-0.41541c0.14119,-0.05999 0.31401,0.02874 0.38599,0.19817z" fill="none" stroke="#4c2c25" stroke-width="1" stroke-linecap="butt"/><path d="M361.84908,59.51061c0.07198,0.16943 0.01588,0.35542 -0.12531,0.41541c-0.14119,0.05999 -0.31401,-0.02873 -0.38601,-0.19817c-0.07198,-0.16943 -0.01588,-0.35543 0.12532,-0.41542c0.14119,-0.05999 0.31401,0.02874 0.386,0.19818z" fill="none" stroke="#4c2c25" stroke-width="1" stroke-linecap="butt"/><path d="M362.16062,62.51706c0.07198,0.16943 0.01588,0.35542 -0.12531,0.4154c-0.14119,0.05999 -0.31402,-0.02873 -0.386,-0.19816c-0.07198,-0.16943 -0.01587,-0.35542 0.12532,-0.41541c0.14119,-0.05999 0.31401,0.02874 0.38599,0.19817z" fill="none" stroke="#4c2c25" stroke-width="1" stroke-linecap="butt"/><g fill="none" stroke="#4c2c25" stroke-width="1" stroke-linecap="butt"><path d="M339.07259,68.79521c0.14119,-0.05999 0.31402,0.02873 0.38601,0.19817c0.07198,0.16943 0.01588,0.35542 -0.12532,0.41541c-0.14119,0.05999 -0.31402,-0.02874 -0.386,-0.19817c-0.07198,-0.16943 -0.01588,-0.35542 0.12531,-0.41541z" data-paper-data="{&quot;index&quot;:null}"/><path d="M341.02036,71.10648c0.14119,-0.05999 0.31402,0.02873 0.38601,0.19817c0.07198,0.16943 0.01587,0.35542 -0.12532,0.41541c-0.14119,0.05999 -0.31401,-0.02874 -0.38599,-0.19817c-0.07198,-0.16943 -0.01589,-0.35542 0.1253,-0.41541z" data-paper-data="{&quot;index&quot;:null}"/></g></g></g></g></svg>