<svg version="1.1" xmlns="http://www.w3.org/2000/svg" xmlns:xlink="http://www.w3.org/1999/xlink" width="829.84234" height="590.0318" viewBox="0,0,829.84234,590.0318"><defs><linearGradient x1="0" y1="180" x2="296" y2="180" gradientUnits="userSpaceOnUse" id="color-1"><stop offset="0" stop-color="#0d0f11"/><stop offset="1" stop-color="#050506"/></linearGradient><linearGradient x1="-43.34483" y1="43.75942" x2="367.61402" y2="151.59529" gradientUnits="userSpaceOnUse" id="color-2"><stop offset="0" stop-color="#e7ff8f" stop-opacity="0.17647"/><stop offset="1" stop-color="#e7ff8f" stop-opacity="0"/></linearGradient><linearGradient x1="-59.07099" y1="67.35962" x2="280.2184" y2="323.09087" gradientUnits="userSpaceOnUse" id="color-3"><stop offset="0" stop-color="#e7ff8f" stop-opacity="0.17647"/><stop offset="1" stop-color="#e7ff8f" stop-opacity="0"/></linearGradient><linearGradient x1="-83.83531" y1="111.71929" x2="207.81194" y2="420.68149" gradientUnits="userSpaceOnUse" id="color-4"><stop offset="0" stop-color="#e7ff8f" stop-opacity="0.17647"/><stop offset="1" stop-color="#e7ff8f" stop-opacity="0"/></linearGradient><linearGradient x1="363.003" y1="238.65039" x2="363.003" y2="244" gradientUnits="userSpaceOnUse" id="color-5"><stop offset="0" stop-color="#000000"/><stop offset="1" stop-color="#000000" stop-opacity="0"/></linearGradient><linearGradient x1="-5.24207" y1="181.05805" x2="36.54486" y2="181.05805" gradientUnits="userSpaceOnUse" id="color-6"><stop offset="0" stop-color="#000000"/><stop offset="1" stop-color="#000000" stop-opacity="0"/></linearGradient><linearGradient x1="727.50752" y1="177.8148" x2="571.60646" y2="177.8148" gradientUnits="userSpaceOnUse" id="color-7"><stop offset="0" stop-color="#000000"/><stop offset="1" stop-color="#000000" stop-opacity="0"/></linearGradient><linearGradient x1="360.24743" y1="-17.14016" x2="360.24743" y2="110.48749" gradientUnits="userSpaceOnUse" id="color-8"><stop offset="0" stop-color="#000000"/><stop offset="1" stop-color="#000000" stop-opacity="0"/></linearGradient><linearGradient x1="359.27227" y1="377.38042" x2="359.27227" y2="249.75279" gradientUnits="userSpaceOnUse" id="color-9"><stop offset="0" stop-color="#000000"/><stop offset="1" stop-color="#000000" stop-opacity="0"/></linearGradient><linearGradient x1="358.58865" y1="136.1045" x2="358.58865" y2="195.86231" gradientUnits="userSpaceOnUse" id="color-10"><stop offset="0" stop-color="#6e6e6e"/><stop offset="1" stop-color="#330000"/></linearGradient><linearGradient x1="355.51596" y1="166.24629" x2="354.66009" y2="167.34522" gradientUnits="userSpaceOnUse" id="color-11"><stop offset="0" stop-color="#ffffff"/><stop offset="1" stop-color="#98937a"/></linearGradient><linearGradient x1="356.07973" y1="166.68536" x2="355.22386" y2="167.7843" gradientUnits="userSpaceOnUse" id="color-12"><stop offset="0" stop-color="#ffffff"/><stop offset="1" stop-color="#98937a"/></linearGradient><linearGradient x1="356.44995" y1="167.32823" x2="355.76595" y2="168.20648" gradientUnits="userSpaceOnUse" id="color-13"><stop offset="0" stop-color="#ffffff"/><stop offset="1" stop-color="#98937a"/></linearGradient><linearGradient x1="357.55275" y1="167.86241" x2="356.69689" y2="168.96135" gradientUnits="userSpaceOnUse" id="color-14"><stop offset="0" stop-color="#ffffff"/><stop offset="1" stop-color="#98937a"/></linearGradient><linearGradient x1="358.11653" y1="168.30148" x2="357.26066" y2="169.40042" gradientUnits="userSpaceOnUse" id="color-15"><stop offset="0" stop-color="#ffffff"/><stop offset="1" stop-color="#98937a"/></linearGradient><linearGradient x1="356.89671" y1="167.75404" x2="356.23526" y2="168.60335" gradientUnits="userSpaceOnUse" id="color-16"><stop offset="0" stop-color="#ffffff"/><stop offset="1" stop-color="#98937a"/></linearGradient><linearGradient x1="358.45037" y1="168.96406" x2="357.78892" y2="169.81335" gradientUnits="userSpaceOnUse" id="color-17"><stop offset="0" stop-color="#ffffff"/><stop offset="1" stop-color="#98937a"/></linearGradient><linearGradient x1="359.70036" y1="169.50516" x2="358.84449" y2="170.6041" gradientUnits="userSpaceOnUse" id="color-18"><stop offset="0" stop-color="#ffffff"/><stop offset="1" stop-color="#98937a"/></linearGradient><linearGradient x1="360.26413" y1="169.94423" x2="359.40826" y2="171.04317" gradientUnits="userSpaceOnUse" id="color-19"><stop offset="0" stop-color="#ffffff"/><stop offset="1" stop-color="#98937a"/></linearGradient><linearGradient x1="358.96472" y1="169.28677" x2="358.28073" y2="170.16503" gradientUnits="userSpaceOnUse" id="color-20"><stop offset="0" stop-color="#ffffff"/><stop offset="1" stop-color="#98937a"/></linearGradient><linearGradient x1="361.54928" y1="166.9566" x2="363.04391" y2="166.60394" gradientUnits="userSpaceOnUse" id="color-21"><stop offset="0" stop-color="#ffffff"/><stop offset="1" stop-color="#98937a"/></linearGradient><linearGradient x1="361.36837" y1="166.18982" x2="362.863" y2="165.83717" gradientUnits="userSpaceOnUse" id="color-22"><stop offset="0" stop-color="#ffffff"/><stop offset="1" stop-color="#98937a"/></linearGradient><linearGradient x1="361.49455" y1="165.38172" x2="362.68904" y2="165.09989" gradientUnits="userSpaceOnUse" id="color-23"><stop offset="0" stop-color="#ffffff"/><stop offset="1" stop-color="#98937a"/></linearGradient><linearGradient x1="360.91629" y1="164.16077" x2="362.41092" y2="163.80811" gradientUnits="userSpaceOnUse" id="color-24"><stop offset="0" stop-color="#ffffff"/><stop offset="1" stop-color="#98937a"/></linearGradient><linearGradient x1="360.73537" y1="163.39399" x2="362.23001" y2="163.04134" gradientUnits="userSpaceOnUse" id="color-25"><stop offset="0" stop-color="#ffffff"/><stop offset="1" stop-color="#98937a"/></linearGradient><linearGradient x1="361.40499" y1="164.7072" x2="362.56011" y2="164.43466" gradientUnits="userSpaceOnUse" id="color-26"><stop offset="0" stop-color="#ffffff"/><stop offset="1" stop-color="#98937a"/></linearGradient><linearGradient x1="360.90642" y1="162.5941" x2="362.06153" y2="162.32155" gradientUnits="userSpaceOnUse" id="color-27"><stop offset="0" stop-color="#ffffff"/><stop offset="1" stop-color="#98937a"/></linearGradient><linearGradient x1="360.2065" y1="161.26548" x2="361.70112" y2="160.91283" gradientUnits="userSpaceOnUse" id="color-28"><stop offset="0" stop-color="#ffffff"/><stop offset="1" stop-color="#98937a"/></linearGradient><linearGradient x1="360.02558" y1="160.49871" x2="361.52021" y2="160.14606" gradientUnits="userSpaceOnUse" id="color-29"><stop offset="0" stop-color="#ffffff"/><stop offset="1" stop-color="#98937a"/></linearGradient><linearGradient x1="360.68755" y1="161.96144" x2="361.88204" y2="161.67961" gradientUnits="userSpaceOnUse" id="color-30"><stop offset="0" stop-color="#ffffff"/><stop offset="1" stop-color="#98937a"/></linearGradient><linearGradient x1="363.21147" y1="143.78855" x2="363.21147" y2="213.78855" gradientUnits="userSpaceOnUse" id="color-31"><stop offset="0" stop-color="#000000" stop-opacity="0"/><stop offset="1" stop-color="#000000"/></linearGradient><linearGradient x1="362.96147" y1="122.95522" x2="362.96147" y2="228.78855" gradientUnits="userSpaceOnUse" id="color-32"><stop offset="0" stop-color="#ff0000" stop-opacity="0.25098"/><stop offset="1" stop-color="#ff0000" stop-opacity="0"/></linearGradient><linearGradient x1="363.7948" y1="125.62189" x2="363.7948" y2="138.28855" gradientUnits="userSpaceOnUse" id="color-33"><stop offset="0" stop-color="#000000"/><stop offset="1" stop-color="#000000" stop-opacity="0"/></linearGradient></defs><g transform="translate(100.24121,40.44696)"><g stroke-miterlimit="10"><path d="M0,153v-160.3741h719.43382v160.3741z" fill="#15181c" stroke="#000000" stroke-width="0" stroke-linecap="butt"/><path d="M0.56619,361.5015v-160.3741h719.43382v160.3741z" fill="#15181c" stroke="#000000" stroke-width="0" stroke-linecap="butt"/><path d="M279.81681,244.33333v-128h167.03904v128z" fill="#3f3f3f" stroke="#000000" stroke-width="0" stroke-linecap="butt"/><path d="M0,360v-360l295,116l1,128.5z" fill="url(#color-1)" stroke="none" stroke-width="0" stroke-linecap="butt"/><path d="M729.60113,1.5015v360l-304.56869,-116l-1.03244,-128.5z" fill="#323a43" stroke="none" stroke-width="0" stroke-linecap="butt"/><g fill="none" stroke="#b7b7b7" stroke-width="7.5" stroke-linecap="round"><path d="M-21.59309,318.70034l321.32132,-114.11411"/><g><path d="M282.54355,256.06371v-43"/><path d="M241.54355,270.0637v-43"/><path d="M201.54355,243.14328v43"/></g><path d="M159.54355,258.0637v43"/><path d="M118.54355,315.0637v-43"/><path d="M78.54355,288.14328v43"/><path d="M36.45646,303.20635v43"/></g><path d="M118.54355,272.06371v43" fill="none" stroke="#b7b7b7" stroke-width="7.5" stroke-linecap="round"/><g stroke="none" stroke-width="0" stroke-linecap="butt"><path d="M397.36628,284.95583l-432.5138,-212.83094l-13.26502,-51.08072l390.52461,16.2421z" fill="url(#color-2)"/><path d="M257.13323,457.76568l-319.38513,-361.05171l7.11299,-52.29346l355.14458,163.23481z" fill="url(#color-3)"/><path d="M162.48917,549.58484l-254.37857,-409.45908l15.77388,-50.36254l322.77553,220.42966z" fill="url(#color-4)"/></g><path d="M313.98348,244v-128h98.03904v128z" fill="#000000" stroke="#000000" stroke-width="0" stroke-linecap="butt"/><path d="M313.98348,244v-5.34961h98.03904v5.34962z" fill="url(#color-5)" stroke="#000000" stroke-width="0" stroke-linecap="butt"/><g stroke="none" stroke-linecap="butt"><g fill="none" stroke-width="1" font-family="sans-serif" font-weight="normal" font-size="12" text-anchor="start"/><g stroke-width="0"><path d="M-5.24207,376.25325v-390.39039h41.78694v390.39039z" fill="url(#color-6)"/><path d="M571.60646,373.00998v-390.39039h155.90105v390.39039z" fill="url(#color-7)"/><path d="M-6.53234,110.48749v-127.62762h733.55954v127.62763z" fill="url(#color-8)"/><path d="M726.05204,249.75279v127.62762h-733.55954v-127.62762z" fill="url(#color-9)"/></g></g><path d="M-14.65563,504.59808v-129.12913h735.73574v129.12913z" fill="#000000" stroke="none" stroke-width="0" stroke-linecap="butt"/><path d="M-100.24121,462.55604v-503.003h98.03904v503.003z" fill="#000000" stroke="none" stroke-width="0" stroke-linecap="butt"/><g stroke-linecap="butt"><g fill="#b5af91" stroke="none" stroke-width="0"><path d="M360.17797,176.44753c0.4776,-1.4392 1.26992,-1.06411 2.28866,-0.72603c1.01873,0.33807 1.87811,0.5111 1.40051,1.95029c-0.4776,1.4392 -1.12554,0.8514 -2.14427,0.51333c-1.01873,-0.33807 -2.02249,-0.29839 -1.54489,-1.73758z"/><path d="M359.79185,176.2433c0.15397,-0.46397 1.15206,-0.09659 2.39662,0.31642c1.24455,0.413 2.26427,0.71525 2.1103,1.1792c-0.15397,0.46397 -1.04574,0.04785 -2.2903,-0.36515c-1.24455,-0.413 -2.3706,-0.66651 -2.21663,-1.13047z"/></g><path d="M359.68953,182.46675c0.43435,0.93872 -14.44604,7.82383 -14.88038,6.88511c-0.1347,-0.29111 -2.91798,-1.42711 -1.95718,-1.87167c0.76531,-0.35411 11.32881,-3.94834 15.51765,-5.01723c1.07,-0.27304 1.27215,-0.09941 1.31991,0.00379z" fill="#a39f83" stroke="none" stroke-width="0"/><g fill="#a39f83" stroke="none" stroke-width="0"><path d="M338.30591,210.23101c-0.42631,-0.06915 -0.56108,-6.10127 0.39886,-12.31418c0.93497,-6.05126 3.53987,-12.26755 3.95371,-12.20042c0.13418,0.02176 0.75677,-0.14283 0.67722,0.92533c-0.04139,0.55582 0.61718,1.40076 0.44576,2.19021c-0.52532,2.41918 -1.55575,0.17033 -3.0392,6.24376c-0.40474,3.01119 0.04469,9.65655 -0.33885,12.11709c-0.13038,0.83641 -0.75129,1.3494 -0.91741,1.97424c-0.54494,2.04967 -0.98831,1.09508 -1.18008,1.06397z"/><path d="M339.84408,209.19909c0.1637,-2.45524 2.62536,-11.22683 3.42387,-15.10352c0.98931,-4.80292 -0.37036,-4.63122 0.21211,-6.76464c0.27542,-1.00875 0.84326,-0.68592 0.98466,-0.66923c0.4361,0.05147 0.73339,6.32756 -0.3426,12.17507c-1.10474,6.00372 -3.00238,11.72203 -3.45164,11.66902c-0.20209,-0.02385 -0.96263,0.73657 -0.8264,-1.30668z"/></g><g fill="#a39f83" stroke="none" stroke-width="0"><path d="M380.21582,210.51761c-0.06863,-0.64289 -0.60381,-1.24478 -0.60477,-2.0913c-0.00282,-2.49024 1.45741,-8.98875 1.51784,-12.02642c-0.53738,-6.22885 -1.89955,-4.16398 -2.0488,-6.63504c-0.0487,-0.80639 0.73131,-1.54068 0.77539,-2.09631c0.08471,-1.06776 0.67482,-0.80991 0.81074,-0.81091c0.41923,-0.00306 2.04303,6.53843 2.04177,12.66149c-0.00129,6.28662 -1.05679,12.22721 -1.48867,12.23037c-0.19427,0.00143 -0.77838,0.87699 -1.00352,-1.2319z"/><path d="M378.84056,211.6595c-0.45209,-0.0163 -1.45308,-5.95753 -1.62687,-12.05956c-0.16926,-5.94328 1.08415,-12.10011 1.523,-12.08429c0.14229,0.00513 0.75281,-0.22707 0.87076,0.81193c0.24942,2.19739 -1.068,1.81981 -0.82469,6.71753c0.19639,3.9532 1.28792,12.99805 1.07429,15.44945c-0.17778,2.04006 -0.81313,1.1723 -1.01648,1.16496z"/></g><g fill="#a39f83" stroke="none" stroke-width="0"><path d="M357.63316,183.01065c3.37609,0.45738 3.43925,0.61637 3.29987,1.6452c-0.13939,1.02883 -0.12123,0.98203 -3.49732,0.52465c-3.37609,-0.45738 -8.86796,-1.15213 -8.72858,-2.18096c0.13939,-1.02883 5.54995,-0.44627 8.92604,0.01111z"/><g><path d="M356.25326,195.44704c2.53375,0.34326 2.57617,0.49944 2.43678,1.52827c-0.13939,1.02883 -0.12412,0.98164 -2.65787,0.63837c-2.53375,-0.34326 -6.65703,-0.8526 -6.51765,-1.88143c0.13939,-1.02883 4.20499,-0.62847 6.73874,-0.28521z"/><path d="M356.14915,191.4391c2.53375,0.34326 2.57617,0.49944 2.43678,1.52827c-0.13939,1.02883 -0.12412,0.98164 -2.65787,0.63838c-2.53375,-0.34326 -6.65704,-0.8526 -6.51765,-1.88144c0.13939,-1.02883 4.20499,-0.62847 6.73874,-0.28521z"/><path d="M356.71841,187.23714c2.53375,0.34326 2.57617,0.49943 2.43678,1.52827c-0.13939,1.02883 -0.12412,0.98164 -2.65787,0.63838c-2.53375,-0.34326 -6.65704,-0.8526 -6.51765,-1.88144c0.13939,-1.02883 4.20499,-0.62847 6.73874,-0.28521z"/><path d="M367.37621,198.11641c-0.13939,1.02883 -4.24956,0.42274 -6.78331,0.07949c-2.53375,-0.34326 -2.5316,-0.29371 -2.39222,-1.32255c0.13939,-1.02883 0.22181,-1.16809 2.75557,-0.82483c2.53375,0.34326 6.55934,1.03906 6.41996,2.06789z"/><path d="M368.71626,194.30412c-0.13939,1.02883 -4.24955,0.42274 -6.7833,0.07949c-2.53375,-0.34326 -2.5316,-0.2937 -2.39222,-1.32254c0.13939,-1.02883 0.22181,-1.1681 2.75557,-0.82484c2.53375,0.34326 6.55934,1.03906 6.41996,2.06789z"/><path d="M369.28552,190.10215c-0.13939,1.02883 -4.24955,0.42274 -6.7833,0.07949c-2.53375,-0.34326 -2.53161,-0.2937 -2.39222,-1.32254c0.13939,-1.02883 0.22182,-1.1681 2.75557,-0.82484c2.53375,0.34326 6.55934,1.03906 6.41995,2.06789z"/></g></g><g fill="#b5af91" stroke="none" stroke-width="0"><g><g><g><path d="M359.70075,179.19506c0.23945,-1.49735 1.08185,-1.25483 2.14175,-1.08533c1.0599,0.16949 1.93592,0.20177 1.69648,1.69912c-0.23945,1.49735 -0.97364,1.02164 -2.03354,0.85215c-1.0599,-0.16949 -2.04414,0.03142 -1.80469,-1.46594z"/><path d="M359.28675,179.05572c0.0772,-0.48271 1.12145,-0.28097 2.41629,-0.0739c1.29483,0.20706 2.34993,0.34103 2.27274,0.82375c-0.0772,0.48271 -1.02436,0.21574 -2.31921,0.00868c-1.29483,-0.20706 -2.44701,-0.2758 -2.36982,-0.75851z"/></g><g><path d="M359.35207,181.76877c0.23945,-1.49735 1.08185,-1.25483 2.14175,-1.08533c1.0599,0.16949 1.93592,0.20177 1.69647,1.69912c-0.23945,1.49735 -0.97363,1.02164 -2.03353,0.85215c-1.0599,-0.16949 -2.04414,0.03142 -1.80469,-1.46594z"/><path d="M358.93808,181.62943c0.0772,-0.48271 1.12145,-0.28097 2.41629,-0.0739c1.29483,0.20706 2.34993,0.34104 2.27274,0.82375c-0.0772,0.48271 -1.02436,0.21573 -2.3192,0.00867c-1.29483,-0.20706 -2.44702,-0.2758 -2.36982,-0.75851z"/></g></g><g><g><path d="M359.02,184.21992c0.23945,-1.49735 1.08186,-1.25483 2.14176,-1.08533c1.0599,0.16949 1.93592,0.20178 1.69647,1.69912c-0.23945,1.49735 -0.97363,1.02164 -2.03353,0.85214c-1.0599,-0.16949 -2.04415,0.03142 -1.8047,-1.46594z"/><path d="M358.60601,184.08058c0.0772,-0.48271 1.12146,-0.28096 2.41629,-0.0739c1.29483,0.20706 2.34992,0.34103 2.27274,0.82375c-0.0772,0.48272 -1.02436,0.21574 -2.31921,0.00868c-1.29483,-0.20706 -2.44702,-0.27581 -2.36982,-0.75852z"/></g><g><path d="M358.67133,186.79362c0.23945,-1.49734 1.08185,-1.25483 2.14175,-1.08533c1.0599,0.16949 1.93592,0.20177 1.69647,1.69912c-0.23945,1.49734 -0.97363,1.02164 -2.03353,0.85215c-1.0599,-0.16949 -2.04414,0.03142 -1.80469,-1.46594z"/><path d="M358.25734,186.65429c0.0772,-0.48271 1.12145,-0.28096 2.41629,-0.0739c1.29483,0.20707 2.34993,0.34104 2.27274,0.82375c-0.0772,0.48271 -1.02436,0.21574 -2.31921,0.00868c-1.29483,-0.20706 -2.44702,-0.27581 -2.36982,-0.75852z"/></g></g></g><g><g><g><path d="M358.35586,189.12222c0.23945,-1.49734 1.08185,-1.25483 2.14175,-1.08533c1.0599,0.16949 1.93592,0.20177 1.69648,1.69912c-0.23945,1.49734 -0.97364,1.02164 -2.03354,0.85215c-1.0599,-0.16949 -2.04414,0.03142 -1.80469,-1.46594z"/><path d="M357.94187,188.98288c0.0772,-0.48271 1.12146,-0.28096 2.41629,-0.0739c1.29483,0.20707 2.34993,0.34104 2.27274,0.82375c-0.0772,0.48271 -1.02436,0.21573 -2.31921,0.00867c-1.29483,-0.20706 -2.44702,-0.2758 -2.36982,-0.75851z"/></g><g><path d="M358.00719,191.69593c0.23945,-1.49734 1.08185,-1.25483 2.14175,-1.08533c1.0599,0.16949 1.93592,0.20177 1.69648,1.69913c-0.23945,1.49734 -0.97364,1.02164 -2.03354,0.85215c-1.0599,-0.16949 -2.04414,0.03142 -1.80469,-1.46594z"/><path d="M357.59319,191.55659c0.0772,-0.48271 1.12146,-0.28096 2.41629,-0.0739c1.29483,0.20707 2.34993,0.34104 2.27274,0.82375c-0.0772,0.48271 -1.02436,0.21573 -2.31921,0.00867c-1.29483,-0.20706 -2.44702,-0.2758 -2.36982,-0.75851z"/></g></g><g><g><path d="M357.67512,194.14708c0.23945,-1.49734 1.08185,-1.25483 2.14175,-1.08533c1.0599,0.16949 1.93592,0.20177 1.69648,1.69913c-0.23945,1.49734 -0.97364,1.02163 -2.03354,0.85214c-1.0599,-0.16949 -2.04414,0.03142 -1.80469,-1.46594z"/><path d="M357.26112,194.00774c0.0772,-0.48271 1.12146,-0.28096 2.41629,-0.0739c1.29483,0.20707 2.34993,0.34104 2.27274,0.82375c-0.0772,0.48271 -1.02437,0.21574 -2.31921,0.00867c-1.29483,-0.20706 -2.44702,-0.27581 -2.36982,-0.75852z"/></g><g><path d="M357.32644,196.72078c0.23945,-1.49734 1.08185,-1.25483 2.14175,-1.08533c1.0599,0.16949 1.93592,0.20177 1.69648,1.69913c-0.23945,1.49734 -0.97364,1.02164 -2.03354,0.85215c-1.0599,-0.16949 -2.04414,0.03141 -1.80469,-1.46594z"/><path d="M356.91245,196.58145c0.0772,-0.48271 1.12146,-0.28096 2.41629,-0.0739c1.29483,0.20707 2.34992,0.34104 2.27274,0.82375c-0.0772,0.48271 -1.02436,0.21574 -2.31921,0.00867c-1.29483,-0.20707 -2.44702,-0.27581 -2.36982,-0.75852z"/></g></g></g></g><g fill="#b5af91" stroke="none" stroke-width="0"><path d="M365.39537,169.4907c1.32195,-0.74285 1.65542,0.06786 2.18125,1.0036c0.52583,0.93574 1.04491,1.64217 -0.27704,2.38502c-1.32195,0.74285 -1.40547,-0.12798 -1.9313,-1.06372c-0.52583,-0.93574 -1.29485,-1.58204 0.0271,-2.3249z"/><path d="M365.24728,169.07976c0.42617,-0.23948 0.91701,0.70406 1.5594,1.84722c0.6424,1.14316 1.19307,2.05306 0.7669,2.29254c-0.42617,0.23948 -0.80558,-0.66852 -1.44797,-1.81168c-0.6424,-1.14316 -1.3045,-2.08859 -0.87833,-2.32807z"/></g><path d="M361.22746,195.86231l-9.1884,-59.15031l3.91076,-0.6075l9.1884,59.15031z" fill="url(#color-10)" stroke="none" stroke-width="0"/><g fill="#b5af91" stroke="none" stroke-width="0"><path d="M362.89808,171.31566c1.0705,-1.07396 1.61162,-0.38429 2.37183,0.37347c0.76021,0.75776 1.45162,1.29665 0.38112,2.37061c-1.0705,1.07396 -1.38739,0.25854 -2.1476,-0.49921c-0.76021,-0.75776 -1.67586,-1.17091 -0.60536,-2.24487z"/><path d="M362.64394,170.96037c0.3451,-0.34623 1.07376,0.42853 2.00248,1.35425c0.92872,0.92572 1.70583,1.65187 1.36072,1.99809c-0.3451,0.34623 -0.95686,-0.4246 -1.88558,-1.35033c-0.92872,-0.92572 -1.82272,-1.6558 -1.47761,-2.00201z"/></g><g fill="#b5af91" stroke="none" stroke-width="0"><path d="M361.39817,173.78441c0.79575,-1.29081 1.48058,-0.74357 2.39428,-0.1803c0.9137,0.56327 1.71026,0.92927 0.91452,2.22007c-0.79575,1.29081 -1.29116,0.56976 -2.20486,0.0065c-0.9137,-0.56327 -1.89968,-0.75546 -1.10394,-2.04626z"/><path d="M361.06935,173.49686c0.25653,-0.41613 1.14341,0.17092 2.25964,0.85904c1.11623,0.68813 2.03911,1.21675 1.78258,1.63287c-0.25653,0.41613 -1.02872,-0.19389 -2.14495,-0.88201c-1.11623,-0.68813 -2.1538,-1.19376 -1.89727,-1.60989z"/></g><g stroke="none" stroke-width="0"><path d="M354.40244,167.14456c0,0 0.47088,-0.86771 0.80139,-1.02898c0.1769,-0.08632 0.19183,0.10997 0.28642,0.18967c0.08213,0.06921 0.25948,0.00079 0.2172,0.20254c-0.09095,0.43411 -0.80138,1.02898 -0.80138,1.02898z" fill="url(#color-11)"/><path d="M354.96622,167.58363c0,0 0.47089,-0.86772 0.80139,-1.02898c0.1769,-0.08632 0.19182,0.10998 0.28641,0.18968c0.08213,0.06921 0.25948,0.00078 0.2172,0.20253c-0.09095,0.43411 -0.80138,1.02899 -0.80138,1.02899z" fill="url(#color-12)"/><path d="M355.50831,168.00583c0,0 0.3507,-0.71341 0.64045,-0.82235c0.15508,-0.05831 0.39044,-0.14503 0.48561,-0.06608c0.08263,0.06856 0.03743,0.28588 0.018,0.4583c-0.0418,0.37099 -0.64045,0.82236 -0.64045,0.82236z" fill="url(#color-13)"/><g><path d="M356.43924,168.76069c0,0 0.47088,-0.86772 0.80139,-1.02899c0.1769,-0.08632 0.54588,0.19047 0.50361,0.39222c-0.09095,0.43411 -0.80138,1.02899 -0.80138,1.02899z" fill="url(#color-14)"/><path d="M357.00302,169.19976c0,0 0.47088,-0.86772 0.80139,-1.02899c0.1769,-0.08632 0.54589,0.19047 0.50361,0.39222c-0.09095,0.43411 -0.80139,1.02899 -0.80139,1.02899z" fill="url(#color-15)"/></g><path d="M356.03615,168.44826c0,0 0.36392,-0.6706 0.61934,-0.79523c0.13671,-0.06671 0.42189,0.1472 0.38922,0.30312c-0.07029,0.3355 -0.61935,0.79524 -0.61935,0.79524z" fill="url(#color-16)"/><path d="M357.58981,169.65828c0,0 0.36391,-0.67061 0.61934,-0.79524c0.13671,-0.06671 0.42188,0.14721 0.38921,0.30313c-0.07029,0.3355 -0.61934,0.79523 -0.61934,0.79523z" fill="url(#color-17)"/><g><g><path d="M358.58685,170.40344c0,0 0.47087,-0.86772 0.80138,-1.02898c0.1769,-0.08632 0.19183,0.10997 0.28642,0.18967c0.08213,0.06921 0.25948,0.00079 0.2172,0.20254c-0.09095,0.43411 -0.80139,1.02899 -0.80139,1.02899z" fill="url(#color-18)"/><path d="M359.15062,170.84251c0,0 0.47088,-0.86771 0.80138,-1.02898c0.1769,-0.08632 0.19182,0.10997 0.28641,0.18968c0.08213,0.06921 0.25948,0.00079 0.21721,0.20254c-0.09095,0.43411 -0.80139,1.02898 -0.80139,1.02898z" fill="url(#color-19)"/></g><path d="M358.02308,169.96436c0,0 0.35071,-0.71342 0.64045,-0.82235c0.15508,-0.05831 0.39043,-0.14504 0.4856,-0.06608c0.08263,0.06856 0.03743,0.28588 0.01801,0.4583c-0.0418,0.37099 -0.64046,0.82235 -0.64046,0.82235z" fill="url(#color-20)"/></g></g><path d="M360.99234,172.25272c-0.09281,0.09454 4.02796,-2.09206 4.02796,-2.09206c0,0 2.32433,0.29996 1.81909,1.06986c-0.36172,0.55121 -2.4427,1.23574 -2.4427,1.23574c0,0 -2.71975,2.55597 -2.94117,2.50243c-1.24127,-0.30014 -5.16734,-3.7195 -6.40563,-4.93525c-2.14459,-2.10554 -1.61504,-2.69272 -1.05448,-3.26368c0.56057,-0.57097 7.5575,4.912 6.99694,5.48296z" fill="#b5af91" stroke="none" stroke-width="0"/><g stroke="none" stroke-width="0"><path d="M363.1266,166.95436c0,0 -1.00412,0.42004 -1.3995,0.3302c-0.21161,-0.04808 -0.08881,-0.22704 -0.11498,-0.36086c-0.02272,-0.11621 -0.22237,-0.17997 -0.04663,-0.32409c0.37811,-0.31008 1.3995,-0.33021 1.3995,-0.33021z" fill="url(#color-21)"/><path d="M362.94568,166.18759c0,0 -1.00412,0.42004 -1.3995,0.3302c-0.21161,-0.04808 -0.0888,-0.22704 -0.11497,-0.36086c-0.02272,-0.11621 -0.22237,-0.17997 -0.04664,-0.32408c0.37811,-0.31008 1.3995,-0.33021 1.3995,-0.33021z" fill="url(#color-22)"/><path d="M362.77172,165.45031c0,0 -0.79427,0.37053 -1.11846,0.26389c-0.17352,-0.05707 -0.43564,-0.14519 -0.46284,-0.27878c-0.02362,-0.116 0.16539,-0.27147 0.30122,-0.40617c0.29227,-0.28983 1.11846,-0.2639 1.11846,-0.2639z" fill="url(#color-23)"/><g><path d="M362.4936,164.15853c0,0 -1.00412,0.42004 -1.39949,0.3302c-0.21161,-0.04808 -0.33734,-0.54084 -0.16161,-0.68496c0.37811,-0.31008 1.39949,-0.3302 1.39949,-0.3302z" fill="url(#color-24)"/><path d="M362.31269,163.39176c0,0 -1.00412,0.42004 -1.3995,0.3302c-0.21161,-0.04808 -0.33733,-0.54083 -0.16161,-0.68494c0.37811,-0.31008 1.39949,-0.33021 1.39949,-0.33021z" fill="url(#color-25)"/></g><path d="M362.624,164.70547c0,0 -0.77603,0.32463 -1.08158,0.2552c-0.16354,-0.03716 -0.26071,-0.41798 -0.12491,-0.52936c0.29222,-0.23964 1.08159,-0.25519 1.08159,-0.25519z" fill="url(#color-26)"/><path d="M362.12543,162.59238c0,0 -0.77603,0.32462 -1.08159,0.25519c-0.16354,-0.03716 -0.2607,-0.41799 -0.12489,-0.52937c0.29222,-0.23964 1.08159,-0.25519 1.08159,-0.25519z" fill="url(#color-27)"/><g><g><path d="M361.78381,161.26325c0,0 -1.00412,0.42005 -1.39949,0.33021c-0.21161,-0.04808 -0.0888,-0.22704 -0.11498,-0.36087c-0.02272,-0.11621 -0.22236,-0.17997 -0.04663,-0.32409c0.37811,-0.31008 1.39949,-0.3302 1.39949,-0.3302z" fill="url(#color-28)"/><path d="M361.60289,160.49648c0,0 -1.00412,0.42004 -1.3995,0.3302c-0.21161,-0.04808 -0.08881,-0.22704 -0.11498,-0.36087c-0.02272,-0.11621 -0.22236,-0.17997 -0.04663,-0.32408c0.37811,-0.31008 1.39949,-0.33021 1.39949,-0.33021z" fill="url(#color-29)"/></g><path d="M361.96472,162.03003c0,0 -0.79427,0.37054 -1.11845,0.2639c-0.17352,-0.05707 -0.43564,-0.1452 -0.46284,-0.27879c-0.02362,-0.116 0.16539,-0.27146 0.30123,-0.40616c0.29227,-0.28983 1.11846,-0.2639 1.11846,-0.2639z" fill="url(#color-30)"/></g></g><path d="M368.88475,155.56056c4.45756,-0.97417 10.00542,2.91615 10.97958,7.37371c0.97417,4.45756 -1.43615,10.28964 -5.89372,11.2638c-4.45756,0.97417 -6.61974,-1.32669 -7.59391,-5.78426c-0.19962,-0.91341 -1.70893,1.4806 -2.90575,-0.13228c-1.6118,-2.17213 -2.94748,-8.41651 -2.5041,-9.56381c0.83406,-2.15819 5.60388,-2.65146 7.91789,-3.15717zM363.6696,159.039c0.14583,0.66729 3.22152,0.56192 3.88882,0.41609c0.6673,-0.14584 3.89318,-1.41761 3.74734,-2.08491c-0.14583,-0.66729 -3.60816,-0.47742 -4.27546,-0.33159c-0.6673,0.14584 -3.50654,1.33312 -3.36071,2.00042zM365.05101,164.69798c0.14583,0.66729 3.26294,0.55288 3.93024,0.40704c0.6673,-0.14584 3.49081,-1.4382 3.34498,-2.1055c-0.14583,-0.66729 -3.20578,-0.45685 -3.87309,-0.31101c-0.6673,0.14584 -3.54796,1.34218 -3.40213,2.00947z" fill="#b5af91" stroke="none" stroke-width="0"/><g fill="#c5bf9e" stroke="none" stroke-width="0"><path d="M354.8607,182.77769c2.53375,0.34326 2.57617,0.49943 2.43678,1.52827c-0.13939,1.02883 -0.12412,0.98164 -2.65787,0.63838c-2.53375,-0.34326 -6.65704,-0.8526 -6.51765,-1.88144c0.13939,-1.02883 4.20499,-0.62847 6.73874,-0.28521z"/><path d="M352.69874,186.69257c2.53375,0.34326 2.57617,0.49943 2.43678,1.52827c-0.13939,1.02883 -0.12412,0.98164 -2.65787,0.63838c-2.53375,-0.34326 -6.65703,-0.85261 -6.51765,-1.88144c0.13939,-1.02883 4.20499,-0.62847 6.73874,-0.28521z"/><path d="M351.42334,190.79888c2.53375,0.34327 2.57617,0.49944 2.43678,1.52827c-0.13939,1.02883 -0.12412,0.98164 -2.65787,0.63838c-2.53375,-0.34327 -6.65703,-0.8526 -6.51765,-1.88144c0.13939,-1.02883 4.20499,-0.62847 6.73874,-0.28521z"/><path d="M350.212,194.55728c2.30727,0.31258 2.3441,0.468 2.20472,1.49683c-0.13939,1.02883 -0.1249,0.98154 -2.43218,0.66896c-2.30727,-0.31258 -6.06257,-0.77207 -5.92319,-1.80091c0.13939,-1.02883 3.84338,-0.67746 6.15065,-0.36489z"/><path d="M369.55567,186.0023c-0.13939,1.02883 -4.24955,0.42275 -6.7833,0.07949c-2.53375,-0.34327 -2.53161,-0.2937 -2.39222,-1.32254c0.13939,-1.02883 0.22181,-1.1681 2.75557,-0.82484c2.53375,0.34327 6.55933,1.03906 6.41995,2.06789z"/><path d="M370.14544,190.21865c-0.13939,1.02883 -4.24955,0.42274 -6.78331,0.07948c-2.53375,-0.34327 -2.5316,-0.2937 -2.39222,-1.32254c0.13939,-1.02883 0.22181,-1.1681 2.75557,-0.82484c2.53375,0.34327 6.55934,1.03906 6.41996,2.06789z"/><path d="M370.22453,194.50846c-0.13939,1.02883 -4.24955,0.42274 -6.7833,0.07948c-2.53375,-0.34327 -2.53161,-0.2937 -2.39222,-1.32254c0.13939,-1.02883 0.22181,-1.16809 2.75557,-0.82483c2.53375,0.34327 6.55934,1.03906 6.41996,2.06789z"/><path d="M369.74637,198.36618c-0.13939,1.02883 -3.88158,0.47259 -6.18885,0.16002c-2.30727,-0.31258 -2.3059,-0.26313 -2.16652,-1.29196c0.13939,-1.02883 0.21623,-1.16885 2.52351,-0.85627c2.30727,0.31258 5.97125,0.95938 5.83186,1.98822z"/></g><g fill="#b5af91" stroke="none" stroke-width="0"><g><g><g><path d="M357.12173,199.39022c0.03626,-1.51594 0.9036,-1.38871 1.97666,-1.36304c1.07306,0.02567 1.94549,-0.05994 1.90922,1.45599c-0.03626,1.51594 -0.82767,1.14309 -1.90073,1.11743c-1.07306,-0.02567 -2.02142,0.30556 -1.98516,-1.21038z"/><path d="M356.69278,199.30771c0.01169,-0.48871 1.07358,-0.42897 2.38449,-0.39761c1.31092,0.03136 2.37444,0.02247 2.36275,0.51117c-0.01169,0.48871 -0.98613,0.35131 -2.29705,0.31995c-1.31092,-0.03136 -2.46188,0.0552 -2.4502,-0.43351z"/></g><g><path d="M357.12173,201.98744c0.03626,-1.51594 0.9036,-1.38871 1.97666,-1.36304c1.07306,0.02567 1.94549,-0.05994 1.90922,1.456c-0.03626,1.51594 -0.82767,1.1431 -1.90073,1.11743c-1.07306,-0.02567 -2.02142,0.30555 -1.98516,-1.21039z"/><path d="M356.69278,201.90493c0.01169,-0.48871 1.07358,-0.42898 2.3845,-0.39762c1.31092,0.03136 2.37444,0.02247 2.36275,0.51118c-0.01169,0.48871 -0.98613,0.3513 -2.29705,0.31994c-1.31092,-0.03136 -2.46189,0.0552 -2.4502,-0.4335z"/></g></g><g><g><path d="M357.12173,204.46098c0.03626,-1.51594 0.9036,-1.3887 1.97666,-1.36303c1.07306,0.02567 1.94549,-0.05994 1.90922,1.45599c-0.03626,1.51594 -0.82767,1.1431 -1.90073,1.11744c-1.07306,-0.02567 -2.02142,0.30555 -1.98516,-1.21039z"/><path d="M356.69278,204.37848c0.01169,-0.48871 1.07358,-0.42898 2.3845,-0.39762c1.31092,0.03136 2.37444,0.02247 2.36275,0.51117c-0.01169,0.48871 -0.98613,0.35131 -2.29705,0.31995c-1.31092,-0.03136 -2.46189,0.0552 -2.4502,-0.4335z"/></g><g><path d="M357.12173,207.0582c0.03626,-1.51594 0.9036,-1.38871 1.97666,-1.36304c1.07306,0.02567 1.94549,-0.05994 1.90922,1.45599c-0.03626,1.51594 -0.82767,1.14309 -1.90073,1.11743c-1.07306,-0.02567 -2.02142,0.30556 -1.98516,-1.21038z"/><path d="M356.69278,206.9757c0.01169,-0.48871 1.07358,-0.42898 2.3845,-0.39762c1.31092,0.03136 2.37444,0.02247 2.36275,0.51118c-0.01169,0.48871 -0.98613,0.3513 -2.29705,0.31994c-1.31092,-0.03136 -2.46189,0.0552 -2.4502,-0.4335z"/></g></g></g><g><g><g><path d="M357.12173,209.40806c0.03626,-1.51594 0.9036,-1.3887 1.97666,-1.36303c1.07306,0.02567 1.94549,-0.05995 1.90922,1.45599c-0.03626,1.51594 -0.82767,1.1431 -1.90073,1.11743c-1.07306,-0.02567 -2.02142,0.30555 -1.98516,-1.21039z"/><path d="M356.69278,209.32556c0.01169,-0.48871 1.07358,-0.42898 2.3845,-0.39762c1.31092,0.03136 2.37444,0.02247 2.36275,0.51118c-0.01169,0.48871 -0.98613,0.3513 -2.29705,0.31994c-1.31092,-0.03136 -2.46189,0.0552 -2.4502,-0.4335z"/></g><g><path d="M357.12173,212.00528c0.03626,-1.51594 0.9036,-1.38871 1.97666,-1.36304c1.07306,0.02567 1.94549,-0.05994 1.90922,1.456c-0.03626,1.51594 -0.82767,1.1431 -1.90073,1.11743c-1.07306,-0.02567 -2.02142,0.30555 -1.98516,-1.21039z"/><path d="M356.69278,211.92278c0.01169,-0.48871 1.07358,-0.42898 2.3845,-0.39762c1.31092,0.03136 2.37444,0.02247 2.36275,0.51118c-0.01169,0.48871 -0.98613,0.35131 -2.29705,0.31995c-1.31092,-0.03136 -2.46189,0.0552 -2.4502,-0.43351z"/></g></g><g><g><path d="M357.12173,214.47882c0.03626,-1.51594 0.9036,-1.38871 1.97666,-1.36304c1.07306,0.02567 1.94549,-0.05994 1.90922,1.45599c-0.03626,1.51594 -0.82767,1.1431 -1.90073,1.11744c-1.07306,-0.02567 -2.02142,0.30555 -1.98516,-1.21039z"/><path d="M356.69278,214.39632c0.01169,-0.48871 1.07358,-0.42898 2.3845,-0.39762c1.31092,0.03136 2.37444,0.02247 2.36275,0.51118c-0.01169,0.48871 -0.98613,0.3513 -2.29705,0.31994c-1.31092,-0.03136 -2.46189,0.0552 -2.4502,-0.4335z"/></g><g><path d="M357.12173,217.07604c0.03626,-1.51594 0.9036,-1.3887 1.97666,-1.36303c1.07306,0.02567 1.94549,-0.05995 1.90922,1.45599c-0.03626,1.51594 -0.82767,1.1431 -1.90073,1.11743c-1.07306,-0.02567 -2.02142,0.30555 -1.98516,-1.21039z"/><path d="M356.69278,217.076c0.01169,-0.48871 1.07358,-0.42898 2.3845,-0.39762c1.31092,0.03136 2.37444,0.02247 2.36275,0.51118c-0.01169,0.48871 -0.98613,0.3513 -2.29705,0.31994c-1.31092,-0.03136 -2.46189,0.05521 -2.4502,-0.4335z"/></g></g></g></g><path d="M364.57745,182.00018c4.18178,1.0962 14.7216,4.75928 15.48458,5.11837c0.95788,0.45082 -1.83275,1.56862 -1.96934,1.85886c-0.44046,0.93586 -15.2756,-6.04619 -14.83514,-6.98205c0.04842,-0.10289 0.25171,-0.27519 1.31991,0.00482z" fill="#b5af91" stroke="none" stroke-width="0"/><path d="M375.11485,193.95918c-0.93437,-4.54979 -2.2239,-9.13891 1.29388,-9.86134c1.38749,-0.28494 10.70928,-2.17877 11.95547,-1.41949c1.91334,1.16576 -4.45999,5.59428 -3.89415,8.34953c0.93437,4.54979 -8.42082,7.48109 -9.35519,2.93131z" fill="#07001b" stroke="none" stroke-width="0"/><g stroke="none" stroke-width="0"><path d="M379.39219,173.44903c-2.4554,0.4319 -6.70566,-16.8803 -5.47965,-20.52625c0.06104,-0.00114 0.09899,-0.05691 0.09899,-0.05691l0.03193,-0.04692c0.118,-0.17341 0.23063,-0.34886 0.33954,-0.52603c0.03359,-0.0137 0.06852,-0.02379 0.10481,-0.03017c1.16931,-0.20568 1.53591,0.79935 4.27505,1.436c0.7034,0.16349 1.89926,0.15299 3.10417,0.18109c0.11231,0.13413 0.22696,0.24768 0.3253,0.32499c0.16771,0.13185 0.55951,0.13474 0.53778,0.34696c-0.00017,0.00162 -1.13509,0.5296 -1.25038,0.59159c-0.24027,0.12919 -0.33846,0.22941 -0.61219,0.19746l-0.2435,-0.02232c-0.01155,-0.00133 -0.0235,-0.00101 -0.03554,0.0011c-0.06727,0.01183 -0.11221,0.07596 -0.10038,0.14323c0.00759,0.04314 0.03668,0.0771 0.07432,0.09279l0.22508,0.09778l0.01087,-0.02501c0.41856,0.2574 0.89656,0.42353 1.34764,0.6214c0.25511,0.11191 1.01464,0.14017 0.78232,0.29389c-0.39071,0.25851 -1.57271,0.32918 -2.07414,0.42209c-0.16214,0.03007 -0.56735,0.10521 -0.72948,0.13528c-0.06673,0.01228 -0.11117,0.07611 -0.0994,0.14306c0.0118,0.06708 0.07559,0.11195 0.14266,0.10048l0.24376,-0.04152l-0.00026,-0.00157c0.26232,0.04646 0.437,0.13066 0.52403,0.48279l0.0155,0.06136c0,0 0.03029,0.11991 0.1502,0.08962c0.11991,-0.03029 0.08962,-0.1502 0.08962,-0.1502l-0.0155,-0.06137c-0.04262,-0.16565 -0.15317,-0.37131 -0.29563,-0.51108c0.00654,-0.00121 0.01307,-0.00243 0.01961,-0.00364c0.29044,-0.0539 2.18776,-0.31182 2.26257,-0.58374c0.07031,-0.25558 -1.22233,-0.84676 -1.9629,-1.07068c0.12543,-0.03892 0.23714,-0.10688 0.39789,-0.19331c0.2,-0.10754 1.35727,-0.5689 1.37931,-0.78426c0.00564,-0.0551 -0.32434,-0.3417 -0.6693,-0.68478c1.37728,0.04666 2.6889,0.17828 3.20382,0.71631c1.28824,1.346 0.74859,9.00154 0.74859,9.00154c0,0 1.47844,1.85304 2.46941,3.77857c-0.27549,0.04863 -0.55081,0.0982 -0.82576,0.14943c-0.17831,-0.02882 -0.35811,-0.04213 -0.53999,-0.03285l0.00205,-0.03543l-0.22285,-0.01287c-0.20666,-0.07501 -0.44934,-0.15136 -0.51454,-0.10549c-0.14345,0.10093 0.05277,0.35097 0.03251,0.52518c-0.01386,0.11919 -0.9539,0.26743 -1.07299,0.29329c-1.21101,0.26296 -0.5765,0.63629 0.23188,0.93914c0.21765,0.19913 0.4803,0.37832 0.57053,0.45573l0.00526,0.00451l0.00007,0.00038c-0.50147,-0.06392 -1.24109,0.20951 -1.70601,0.29188l-0.24354,0.04315h-0.00002c-0.06719,0.01191 -0.11205,0.07598 -0.10023,0.14321c0.00598,0.03399 0.0253,0.06227 0.05163,0.08042l0.20354,0.14043l0.01619,-0.02348c0.4977,0.38999 1.13077,0.60928 1.70788,0.87074c-0.01749,0.0257 -0.02536,0.05796 -0.01955,0.09099c0.00597,0.03394 0.02525,0.0622 0.05153,0.08035l0.20342,0.14062l0.02641,-0.03821c0.27182,0.21837 0.63831,0.51547 0.61924,0.55077c-0.08324,0.15408 -0.5414,0.38511 -0.93012,0.54978c-2.62065,0.62555 -5.98419,0.80065 -6.88302,0.95874zM374.66138,154.96044c0.09653,-0.81885 0.2058,-1.74586 0.30233,-2.5647c0,0 0.01448,-0.12282 -0.10835,-0.1373c-0.12283,-0.01448 -0.13731,0.10835 -0.13731,0.10835c-0.09653,0.81884 -0.2058,1.74586 -0.30233,2.5647c0,0 -0.01448,0.12283 0.10835,0.1373c0.12283,0.01448 0.13731,-0.10835 0.13731,-0.10835zM377.48531,162.62685c-0.06752,-0.04732 -0.21894,-0.15344 -0.28646,-0.20076c0,0 -0.10129,-0.07098 -0.17226,0.0303c-0.01896,0.02705 -0.02563,0.05195 -0.02522,0.0739c-0.19362,-0.62931 -0.39173,-1.27324 -0.58533,-1.9025c0,0 -0.03637,-0.11821 -0.15458,-0.08184c-0.11821,0.03637 -0.08184,0.15458 -0.08184,0.15458c0.19396,0.63045 0.39246,1.27561 0.58642,1.90606c0,0 0.03637,0.11821 0.15458,0.08184c0.08083,-0.02487 0.08938,-0.08801 0.08671,-0.12545c0.01436,0.04101 0.04955,0.06567 0.04955,0.06567c0.06752,0.04732 0.21895,0.15345 0.28647,0.20077c0,0 0.10129,0.07098 0.17226,-0.0303c0.07098,-0.10128 -0.0303,-0.17226 -0.0303,-0.17226zM374.97618,153.86438c0.12855,0.73084 0.29996,1.7053 0.42851,2.43614c0,0 0.02143,0.12181 0.14324,0.10039c0.1218,-0.02142 0.10038,-0.14323 0.10038,-0.14323c-0.12855,-0.73084 -0.29996,-1.7053 -0.42851,-2.43614c0,0 -0.02143,-0.1218 -0.14324,-0.10038c-0.1218,0.02142 -0.10038,0.14323 -0.10038,0.14323zM375.4904,156.78775c0.08571,0.48723 0.21425,1.21807 0.29996,1.7053c0,0 0.02143,0.12181 0.14324,0.10039c0.1218,-0.02142 0.10038,-0.14324 0.10038,-0.14324c-0.08571,-0.48723 -0.21425,-1.21807 -0.29996,-1.7053c0,0 -0.02143,-0.1218 -0.14323,-0.10038c-0.1218,0.02142 -0.10038,0.14323 -0.10038,0.14323zM377.59248,164.45485c0.05714,0.32482 0.15712,0.89326 0.21426,1.21807c0,0 0.02142,0.1218 0.14323,0.10038c0.1218,-0.02142 0.10039,-0.14324 0.10039,-0.14324c-0.05714,-0.32482 -0.15712,-0.89325 -0.21426,-1.21807c0,0 -0.02143,-0.1218 -0.14323,-0.10038c-0.1218,0.02142 -0.10038,0.14323 -0.10038,0.14323zM377.97814,166.64738c0.01184,0.06727 0.07596,0.11221 0.14323,0.10038c0.06727,-0.01183 0.11221,-0.07596 0.10038,-0.14323c-0.01184,-0.06727 -0.07596,-0.11222 -0.14323,-0.10038c-0.06727,0.01183 -0.11221,0.07596 -0.10038,0.14324zM375.44755,156.54413c0.01184,0.06727 0.07596,0.11222 0.14323,0.10039c0.06727,-0.01183 0.11222,-0.07596 0.10039,-0.14324c-0.01184,-0.06727 -0.07596,-0.11221 -0.14324,-0.10038c-0.06727,0.01183 -0.11222,0.07596 -0.10038,0.14323z" fill="#000044"/><path d="M386.13256,169.0183c-0.68254,-0.58954 -0.11757,-0.20868 0.428,0.10919c-0.13857,-0.03514 -0.28483,-0.07166 -0.428,-0.10919z" fill="#000044"/><path d="M388.50756,167.68663c0.11372,-0.01972 0.2274,-0.0396 0.34107,-0.05958c0.03444,0.0701 0.06813,0.14021 0.10097,0.21022c-0.14699,-0.0527 -0.29422,-0.10432 -0.44205,-0.15063z" fill="#000044"/><path d="M379.63327,174.59344c-1.79564,0.31585 -5.80489,-13.07945 -7.14272,-20.68519c-1.33783,-7.60574 4.32684,-6.03671 4.32684,-6.03671c0,0 -0.40993,3.18568 0.9279,10.79142c1.33783,7.60574 3.68362,15.61463 1.88798,15.93049zM374.66138,154.96044c0.09653,-0.81885 0.2058,-1.74586 0.30233,-2.5647c0,0 0.01448,-0.12282 -0.10835,-0.1373c-0.12283,-0.01448 -0.13731,0.10835 -0.13731,0.10835c-0.09653,0.81884 -0.2058,1.74586 -0.30233,2.5647c0,0 -0.01448,0.12283 0.10835,0.1373c0.12283,0.01448 0.13731,-0.10835 0.13731,-0.10835zM377.48531,162.62685c-0.06752,-0.04732 -0.21894,-0.15344 -0.28646,-0.20076c0,0 -0.10129,-0.07098 -0.17226,0.0303c-0.01896,0.02705 -0.02563,0.05195 -0.02522,0.0739c-0.19362,-0.62931 -0.39173,-1.27324 -0.58533,-1.9025c0,0 -0.03637,-0.11821 -0.15458,-0.08184c-0.11821,0.03637 -0.08184,0.15458 -0.08184,0.15458c0.19396,0.63045 0.39246,1.27561 0.58642,1.90606c0,0 0.03637,0.11821 0.15458,0.08184c0.08083,-0.02487 0.08938,-0.08801 0.08671,-0.12545c0.01436,0.04101 0.04955,0.06567 0.04955,0.06567c0.06752,0.04732 0.21895,0.15345 0.28647,0.20077c0,0 0.10129,0.07098 0.17226,-0.0303c0.07098,-0.10128 -0.0303,-0.17226 -0.0303,-0.17226zM374.97618,153.86438c0.12855,0.73084 0.29996,1.7053 0.42851,2.43614c0,0 0.02143,0.12181 0.14324,0.10039c0.1218,-0.02142 0.10038,-0.14323 0.10038,-0.14323c-0.12855,-0.73084 -0.29996,-1.7053 -0.42851,-2.43614c0,0 -0.02143,-0.1218 -0.14324,-0.10038c-0.1218,0.02142 -0.10038,0.14323 -0.10038,0.14323zM374.01153,152.86587l0.03193,-0.04692c0.42232,-0.62063 0.77589,-1.26741 1.13605,-1.92571c0,0 0.05936,-0.1085 -0.04914,-0.16786c-0.1085,-0.05936 -0.16786,0.04914 -0.16786,0.04914c-0.35634,0.65132 -0.70575,1.29128 -1.12356,1.90528l-0.03192,0.0469c0,0 -0.06958,0.10225 0.03267,0.17183c0.10225,0.06958 0.17183,-0.03267 0.17183,-0.03267zM375.4904,156.78775c0.08571,0.48723 0.21425,1.21807 0.29996,1.7053c0,0 0.02143,0.12181 0.14324,0.10039c0.1218,-0.02142 0.10038,-0.14324 0.10038,-0.14324c-0.08571,-0.48723 -0.21425,-1.21807 -0.29996,-1.7053c0,0 -0.02143,-0.1218 -0.14323,-0.10038c-0.1218,0.02142 -0.10038,0.14323 -0.10038,0.14323zM377.59248,164.45485c0.05714,0.32482 0.15712,0.89326 0.21426,1.21807c0,0 0.02142,0.1218 0.14323,0.10038c0.1218,-0.02142 0.10039,-0.14324 0.10039,-0.14324c-0.05714,-0.32482 -0.15712,-0.89325 -0.21426,-1.21807c0,0 -0.02143,-0.1218 -0.14323,-0.10038c-0.1218,0.02142 -0.10038,0.14323 -0.10038,0.14323zM377.97814,166.64738c0.01184,0.06727 0.07596,0.11221 0.14323,0.10038c0.06727,-0.01183 0.11221,-0.07596 0.10038,-0.14323c-0.01184,-0.06727 -0.07596,-0.11222 -0.14323,-0.10038c-0.06727,0.01183 -0.11221,0.07596 -0.10038,0.14324zM375.44755,156.54413c0.01184,0.06727 0.07596,0.11222 0.14323,0.10039c0.06727,-0.01183 0.11222,-0.07596 0.10039,-0.14324c-0.01184,-0.06727 -0.07596,-0.11221 -0.14324,-0.10038c-0.06727,0.01183 -0.11222,0.07596 -0.10038,0.14323z" fill="#000000"/></g><g stroke="none" stroke-width="0"><path d="M338.84042,188.79919c1.48638,-2.50183 2.7692,0.24347 3.78631,0.53111c1.36401,0.38575 3.81816,-1.80899 3.29355,2.93032c-0.10082,0.91084 -0.40164,2.31512 -0.80748,3.95369c-0.01558,-0.01963 -0.03723,-0.03472 -0.06318,-0.04206c-0.06572,-0.01859 -0.13407,0.01963 -0.15266,0.08535v0c-0.31414,1.11076 -0.6956,2.45951 -1.00974,3.57027c-0.4712,1.6661 -0.94357,3.33187 -1.4158,4.99769c-0.30554,1.07779 -0.61107,2.15557 -0.9166,3.23336c0.13264,-1.28 0.19644,-2.55862 0.26149,-3.85334c0.06801,-1.35356 0.51336,-3.32793 0.16985,-4.70939l0.02625,-0.00286l-0.02643,-0.24304c-0.00426,-0.0498 -0.03867,-0.0941 -0.08961,-0.1085c-0.06572,-0.01859 -0.13408,0.01963 -0.15267,0.08536c0,0.00001 0,0.00001 0,0.00002l-0.06727,0.23803v0l-0.00001,0.00002c-0.20154,0.71418 -0.40308,1.42836 -0.60462,2.14254c-0.10208,0.36173 -0.22626,0.73994 -0.35609,1.12764c-0.0115,-0.74196 -0.19705,-1.43465 -0.76624,-2.16799l0.01091,-0.0066l-0.12787,-0.21138c-0.01563,-0.02601 -0.04082,-0.04635 -0.07233,-0.05526c-0.06152,-0.01739 -0.12533,0.01497 -0.14849,0.07308l-0.09417,0.22703c-0.10725,0.25857 -0.27944,0.58712 -0.45513,0.94305c0.1909,-0.91905 0.51139,-2.54281 -0.01207,-2.73435c-0.46473,-0.17004 -1.19957,1.21834 -1.39229,1.53357c-0.6021,0.98485 -1.20421,1.96969 -1.80631,2.95454c-0.08802,0.14397 -0.20764,0.33282 -0.3026,0.53287c0.04563,-0.37081 0.1304,-0.73379 0.16217,-1.12172c-0.2988,-0.07099 -0.79542,-0.0969 -1.34716,-0.13103c1.40177,-5.23877 3.01797,-11.31736 4.47631,-13.77201z" fill="#1a1833"/><path d="M337.30114,188.41823c0.58459,-2.06713 -3.73109,-7.38189 -2.34053,-8.53339c1.61604,-1.33822 9.02877,1.68496 10.88618,2.21024c3.45565,0.97727 1.83461,5.46003 0.57064,9.92948c-1.26397,4.46945 -10.38025,0.86312 -9.11629,-3.60633z" fill="#07001b"/></g><g><path d="M345.87516,188.53099c0.5261,-8.03513 4.72357,-8.87963 10.73575,-8.6016c0.35089,1.17893 0.6755,2.3569 0.87901,3.58049c0.06906,0.41522 0.10444,0.84139 0.26485,1.23158l0.09373,0.226c0.01691,0.04335 0.05769,0.07528 0.10719,0.07852c0.0672,0.0044 0.12537,-0.04573 0.13127,-0.11245l0.02269,-0.2459l-0.01214,-0.00111c0.15648,-0.53657 0.23829,-1.01631 0.52893,-1.56607c0.02659,-0.0503 0.3476,-0.73098 0.41714,-0.66332c0.26984,0.26255 0.41538,1.42552 0.53888,1.81668c0.55288,1.75112 0.5663,3.12849 0.73147,4.98149c0.04084,0.45825 -0.01033,1.07329 0.13792,1.50726c0.14341,0.41981 0.71924,0.80495 0.79548,1.23171c0.0858,0.48028 -0.31603,1.39717 -0.42294,1.88466l-0.05252,0.23945c-0.00158,0.00665 -0.00261,0.01352 -0.00307,0.02057c-0.00446,0.06816 0.04717,0.12704 0.11533,0.1315c0.04835,0.00316 0.09203,-0.0219 0.11493,-0.06107l0.12776,-0.20877l-0.01949,-0.01193c0.51792,-0.6024 0.88954,-1.40454 1.29456,-2.0715c-0.04807,0.85914 0.673,2.28953 0.8982,3.05521l0.06898,0.23454c0.01337,0.04972 0.05715,0.08774 0.11139,0.09128c0.04845,0.00317 0.09221,-0.022 0.11506,-0.06131l0.1273,-0.20905l-0.00714,-0.00435c0.98393,-1.15759 1.85267,-2.79368 1.94838,-4.24006c0.11414,-1.72771 0.22827,-3.45543 0.34241,-5.18314c0.00508,-0.07686 -0.02322,-0.62331 0.01484,-0.66307c0.32473,-0.33914 0.67179,0.60572 0.77153,0.78674c0.16422,0.29808 0.34102,0.58023 0.50053,0.86246c0.05811,0.62423 0.19008,1.23354 0.45891,1.80315l-0.01756,0.00463l0.06233,0.23642c0.01227,0.05137 0.05678,0.09101 0.11224,0.09464c0.06816,0.00446 0.12703,-0.04717 0.13149,-0.11533c0.00002,-0.00032 0.00005,-0.00065 0.00006,-0.00097l0.0145,-0.24679c0.04397,-0.74858 -0.23843,-1.35017 -0.58625,-1.96083c-0.08889,-0.8531 0.06783,-1.81056 0.09701,-2.66725c0.03805,-1.11731 0.07611,-2.23462 0.11416,-3.35193c5.79503,0.02959 9.92821,0.51325 9.42423,8.21053c-0.14024,2.14189 -3.93944,19.09795 -7.20259,26.90436c-0.9446,-0.21104 -2.41645,-0.77981 -3.2658,-0.55309c-0.62348,0.16642 -0.79766,0.67558 -1.49574,0.62988c-1.94552,-0.12735 -3.30086,-0.30851 -5.07608,0.55232c-0.58526,0.30183 -1.9432,-0.14039 -2.60454,-0.2279c-0.11506,-0.01522 -0.85366,-0.02741 -0.90156,-0.08574c-0.09532,-0.11606 0.10161,-1.19375 0.11275,-1.39636c0.02677,-0.48683 0.37203,-2.47889 -0.03172,-2.81687c-0.32603,-0.27292 -2.10431,0.503 -2.49948,0.61807c-1.66193,0.48391 -3.33196,0.94103 -4.99838,1.40926c-0.08157,0.02292 -0.16544,0.04811 -0.25131,0.07515c-2.27096,-8.18732 -3.17697,-22.69517 -3.01488,-25.17076z" fill="#0d0033" stroke="none" stroke-width="0"/><path d="M345.80654,188.77438c0.46631,-7.12192 3.81688,-8.59479 8.75889,-8.64399c2.10519,-0.02095 -0.47593,15.47863 -0.47593,15.47863l13.91519,1.43889c0,0 1.44079,-16.41887 2.66047,-16.31424c4.12358,0.35372 6.78056,1.84266 6.3707,8.10241c-0.09303,1.42083 0.17928,9.48989 -1.9094,16.95329c-1.92348,6.8731 -28.44766,6.26663 -29.44547,-0.8409c-1.00121,-7.13174 0.01377,-14.46709 0.12554,-16.17408zM360.76395,199.42271l-0.13393,-0.00877c-0.9873,-0.06465 -1.9746,-0.12924 -2.96188,-0.19402c-1.53227,-0.10053 -3.70252,0.13586 -5.12334,-0.45189c-0.31644,-0.12894 -0.62714,-0.25236 -0.93596,-0.36752c-0.00932,-0.23584 -0.01863,-0.47168 -0.02795,-0.70752c0,0 -0.00488,-0.12358 -0.12847,-0.1187c-0.12358,0.00489 -0.1187,0.12847 -0.1187,0.12847c0.00798,0.20194 0.01596,0.4039 0.02394,0.60584c-1.00357,-0.35988 -1.9982,-0.62414 -3.11717,-0.6974c0,0 -0.12341,-0.00807 -0.13149,0.11534c-0.00808,0.12341 0.11534,0.1315 0.11534,0.1315c1.13061,0.07403 2.13016,0.34753 3.14387,0.71711c0.01469,0.37166 0.02937,0.74333 0.04406,1.11499c-0.38867,-0.39098 -0.77734,-0.78196 -1.16601,-1.17294c0,0 -0.08719,-0.08771 -0.1749,-0.00052c-0.08771,0.0872 -0.00052,0.1749 -0.00052,0.1749c0.45196,0.45464 0.90391,0.9093 1.35587,1.36394c0.00176,0.04446 0.00351,0.08892 0.00527,0.13338c-0.2009,-0.05865 -0.40004,-0.1168 -0.59526,-0.17379c0,0 -0.11871,-0.03466 -0.15338,0.08407c-0.03467,0.11872 0.08406,0.15338 0.08406,0.15338c0.20758,0.0606 0.4673,0.13643 0.67488,0.19703c0.00854,0.21601 0.01707,0.43203 0.02561,0.64804c-0.20492,-0.18715 -0.40983,-0.3743 -0.61475,-0.56145c0,0 -0.09131,-0.0834 -0.17472,0.00791c-0.08341,0.09132 0.00791,0.17472 0.00791,0.17472c0.24664,0.22526 0.52685,0.48118 0.79529,0.72635c0.0093,0.23551 0.01862,0.47102 0.02792,0.70654c0.00326,0.08238 0.00753,0.19072 0.01079,0.27311c0,0 0.00489,0.12358 0.12847,0.1187c0.12358,-0.00489 0.11869,-0.12847 0.11869,-0.12847c-0.00326,-0.08238 -0.00753,-0.19072 -0.01079,-0.27311c-0.00609,-0.15407 -0.01218,-0.30814 -0.01826,-0.46221c0.03983,0.03637 0.07901,0.07216 0.11738,0.1072c0,0 0.09132,0.0834 0.17473,-0.00791c0.08341,-0.09132 -0.00792,-0.17473 -0.00792,-0.17473c-0.07477,-0.06829 -0.22315,-0.20381 -0.29792,-0.2721c-0.01066,-0.26982 -0.02133,-0.53965 -0.03199,-0.80947c0.09318,0.0272 0.18635,0.05441 0.27953,0.08161c0.41251,0.41497 0.82504,0.82993 1.23755,1.2449c0.30334,0.30515 0.56883,0.66169 0.97466,0.81601l0.13181,0.04852c0,0 0.11606,0.04272 0.15878,-0.07334c0.04273,-0.11606 -0.07334,-0.15878 -0.07334,-0.15878l-0.13182,-0.04852c-0.36258,-0.12804 -0.61539,-0.48738 -0.88468,-0.75827c-0.30719,-0.30901 -0.61439,-0.61804 -0.92158,-0.92706c0.16429,0.04797 0.32858,0.09592 0.49287,0.14389c0,0 0.11872,0.03467 0.15338,-0.08406c0.03467,-0.11872 -0.08406,-0.15338 -0.08406,-0.15338c-0.30101,-0.08788 -0.61132,-0.17847 -0.92308,-0.26949c-0.14423,-0.14508 -0.28845,-0.29017 -0.43268,-0.43526c-0.01688,-0.42699 -0.03374,-0.85395 -0.05061,-1.28094c0.27449,0.10384 0.55088,0.21405 0.83203,0.3286c1.46732,0.58993 3.62536,0.36631 5.20048,0.46964c0.9873,0.06477 1.97461,0.12937 2.96192,0.19402l0.13393,0.00877c0,0 0.12341,0.00808 0.13149,-0.11533c0.00808,-0.12341 -0.11533,-0.13149 -0.11533,-0.13149zM366.32764,203.39883l0.00362,-0.0172c0.12405,-0.58989 0.22762,-1.1642 0.30768,-1.7436c1.04042,-0.71624 2.08084,-1.43248 3.12126,-2.14872c0,0 0.10188,-0.07013 0.03175,-0.172c-0.07013,-0.10187 -0.172,-0.03175 -0.172,-0.03175c-0.97935,0.6742 -1.95871,1.3484 -2.93807,2.0226c0.04489,-0.36777 0.08016,-0.73913 0.10505,-1.11928c0,0 0.00808,-0.12341 -0.11533,-0.13149c-0.12341,-0.00808 -0.1315,0.11533 -0.1315,0.11533c-0.02953,0.451 -0.07381,0.88913 -0.13154,1.32359c-0.152,0.10464 -0.304,0.20928 -0.456,0.31392c-0.40749,0.28052 -0.85724,0.59013 -1.26472,0.87065c0,0 -0.10188,0.07013 -0.03175,0.172c0.07013,0.10187 0.17201,0.03174 0.17201,0.03174c0.40749,-0.28052 0.85724,-0.59014 1.26472,-0.87065c0.08962,-0.06169 0.17923,-0.12339 0.26885,-0.18509c-0.07415,0.49774 -0.16563,0.99371 -0.27249,1.50183l-0.00361,0.0172c0,0 -0.02545,0.12103 0.09557,0.14648c0.12102,0.02545 0.14648,-0.09557 0.14648,-0.09557zM361.19737,204.16088l-0.03473,-0.00227c-1.06949,-0.07002 -2.13894,-0.14049 -3.20828,-0.21286c-1.47613,-0.09991 -2.91196,-0.47283 -4.35889,-0.77712c0,0 -0.12103,-0.02545 -0.14648,0.09557c-0.02545,0.12103 0.09558,0.14648 0.09558,0.14648c1.45839,0.3067 2.90517,0.68114 4.39309,0.78185c1.06952,0.07238 2.13914,0.14286 3.20882,0.2129l0.03473,0.00227c0,0 0.12342,0.00808 0.1315,-0.11533c0.00808,-0.12341 -0.11534,-0.1315 -0.11534,-0.1315zM372.98066,192.64108c-0.09537,-0.90194 -0.20189,-1.90912 -0.29726,-2.81106c-0.15607,-1.4759 -0.31213,-2.95179 -0.4682,-4.42769c0,0 -0.01301,-0.12299 -0.136,-0.10998c-0.123,0.013 -0.10998,0.13599 -0.10998,0.13599c0.15607,1.4759 0.31214,2.9518 0.46821,4.4277c0.09537,0.90194 0.20188,1.90912 0.29726,2.81106c0,0 0.013,0.123 0.13599,0.10999c0.123,-0.013 0.10998,-0.136 0.10998,-0.136zM372.9571,200.40043c0.08323,-0.14236 0.18201,-0.31133 0.26523,-0.45369c0.74903,-1.28124 1.49806,-2.56249 2.24709,-3.84373c0,0 0.06242,-0.10677 -0.04435,-0.16919c-0.10677,-0.06242 -0.16919,0.04435 -0.16919,0.04435c-0.74903,1.28124 -1.49807,2.56249 -2.2471,3.84373c-0.08323,0.14236 -0.18201,0.31133 -0.26524,0.45369c0,0 -0.06242,0.10677 0.04435,0.16919c0.10677,0.06242 0.16919,-0.04435 0.16919,-0.04435zM364.89461,205.61759c0.1381,-0.09011 0.27621,-0.18023 0.41431,-0.27034c1.24294,-0.811 2.48589,-1.62199 3.72883,-2.43299c0,0 0.10358,-0.06759 0.036,-0.17117c-0.06758,-0.10358 -0.17117,-0.036 -0.17117,-0.036c-1.24294,0.811 -2.48588,1.622 -3.72882,2.433c-0.1381,0.09011 -0.27621,0.18023 -0.41431,0.27034l-0.00321,0.00216c0,0 -0.10142,0.07078 -0.03063,0.1722c0.06757,0.0968 0.16305,0.0367 0.17158,0.03104zM351.61381,185.82608c0.2432,-1.21263 0.49286,-2.45744 0.73607,-3.67006c0,0 0.02432,-0.12126 -0.09694,-0.14558c-0.12126,-0.02432 -0.14558,0.09694 -0.14558,0.09694c-0.2432,1.21263 -0.49286,2.45744 -0.73607,3.67007c0,0 -0.02432,0.12126 0.09694,0.14558c0.12126,0.02432 0.14558,-0.09694 0.14558,-0.09694zM347.66796,202.77851c0.74131,-0.03358 1.49629,-0.06779 2.23759,-0.10138c0,0 0.12356,-0.0056 0.11795,-0.12915c-0.0056,-0.12355 -0.12915,-0.11795 -0.12915,-0.11795c-0.74131,0.03358 -1.49628,0.06779 -2.23759,0.10137c0,0 -0.12355,0.0056 -0.11795,0.12915c0.0056,0.12355 0.12914,0.11795 0.12914,0.11795zM362.4229,205.21957c0.45599,-0.19186 1.07344,-0.45165 1.52943,-0.64351c0,0 0.114,-0.04797 0.06603,-0.16197c-0.04796,-0.11399 -0.16197,-0.06603 -0.16197,-0.06603c-0.45599,0.19186 -1.07344,0.45166 -1.52943,0.64351c0,0 -0.11399,0.04797 -0.06603,0.16196c0.04796,0.11399 0.16196,0.06603 0.16196,0.06603zM358.86691,207.0192c-0.27184,-0.30993 -0.65082,-0.74201 -0.92266,-1.05195c0,0 -0.08155,-0.09298 -0.17453,-0.01143c-0.09298,0.08155 -0.01143,0.17453 -0.01143,0.17453c0.27184,0.30993 0.65082,0.74201 0.92266,1.05194c0,0 0.08155,0.09298 0.17453,0.01143c0.09298,-0.08155 0.01143,-0.17453 0.01143,-0.17453zM365.47421,203.20149c-0.08227,-0.00538 -0.41138,-0.02694 -0.49365,-0.03233c0,0 -0.12342,-0.00807 -0.1315,0.11534c-0.00808,0.12341 0.11533,0.13149 0.11533,0.13149c0.08227,0.00538 0.41138,0.02694 0.49365,0.03233c0,0 0.12341,0.00808 0.13149,-0.11533c0.00808,-0.12341 -0.11533,-0.1315 -0.11533,-0.1315zM354.84675,204.61267l0.01616,-0.24683c0,0 0.00807,-0.12341 -0.11534,-0.1315c-0.12341,-0.00808 -0.13149,0.11534 -0.13149,0.11534l-0.01616,0.24683c0,0 -0.00808,0.12341 0.11533,0.13149c0.12341,0.00808 0.13149,-0.11533 0.13149,-0.11533z" fill="#353535" stroke="none" stroke-width="0"/><g><path d="M353.39855,187.44332c0.65327,2.05373 -1.87417,6.67639 -3.23178,6.69986c-1.28978,0.0223 -3.00723,-4.65015 -2.50225,-6.78332c0.21648,-0.9145 5.5006,-0.65039 5.73404,0.08346z" fill="#b0a700" stroke="#3e3e3e" stroke-width="0"/><text transform="translate(348.49318,190.22524) rotate(3.74787) scale(0.05584,0.06051) skewX(0.00026)" font-size="40" xml:space="preserve" fill="#000000" stroke="none" stroke-width="1" font-family="&quot;GovtAgentBB&quot;, Serif" font-weight="normal" text-anchor="start"><tspan x="0" dy="0">ASC</tspan></text></g></g></g><path d="M327.37814,213.78855v-70h71.66667v70z" fill="url(#color-31)" stroke="none" stroke-width="0" stroke-linecap="butt"/><path d="M325.67719,238.6259v-26h73.33333v26z" fill="#000000" stroke="none" stroke-width="0" stroke-linecap="butt"/><path d="M334.2948,228.78855l21.33333,-105.83333h14.66667l21,105.83333z" fill="url(#color-32)" stroke="none" stroke-width="0" stroke-linecap="butt"/><path d="M341.96147,138.28855v-12.66666h43.66666v12.66666z" fill="url(#color-33)" stroke="none" stroke-width="0" stroke-linecap="butt"/><path d="M342.62814,125.62189v-7.33334h38v7.33334z" fill="#000000" stroke="none" stroke-width="0" stroke-linecap="butt"/></g></g></svg>