<svg version="1.1" xmlns="http://www.w3.org/2000/svg" xmlns:xlink="http://www.w3.org/1999/xlink" width="76.33333" height="101" viewBox="0,0,76.33333,101"><defs><linearGradient x1="370.78371" y1="153.08537" x2="368.52152" y2="155.83484" gradientUnits="userSpaceOnUse" id="color-1"><stop offset="0" stop-color="#e3a052"/><stop offset="1" stop-color="#f2aa58"/></linearGradient><linearGradient x1="348.03819" y1="152.28821" x2="350.60395" y2="154.75681" gradientUnits="userSpaceOnUse" id="color-2"><stop offset="0" stop-color="#e3a052"/><stop offset="1" stop-color="#f2aa58"/></linearGradient><linearGradient x1="359.50612" y1="164.94369" x2="359.50612" y2="186.10974" gradientUnits="userSpaceOnUse" id="color-3"><stop offset="0" stop-color="#f3b46b"/><stop offset="1" stop-color="#d79d5c"/></linearGradient><radialGradient cx="375.89965" cy="175.52964" r="4.78275" gradientUnits="userSpaceOnUse" id="color-4"><stop offset="0" stop-color="#e20000"/><stop offset="1" stop-color="#b40000"/></radialGradient><radialGradient cx="344.76829" cy="175.12383" r="4.78275" gradientUnits="userSpaceOnUse" id="color-5"><stop offset="0" stop-color="#e20000"/><stop offset="1" stop-color="#b40000"/></radialGradient><radialGradient cx="348.35273" cy="180.67728" r="0.73359" gradientUnits="userSpaceOnUse" id="color-6"><stop offset="0" stop-color="#000000" stop-opacity="0.13725"/><stop offset="1" stop-color="#000000" stop-opacity="0"/></radialGradient></defs><g transform="translate(-321.83333,-129.5)"><g data-paper-data="{&quot;isPaintingLayer&quot;:true}" fill-rule="nonzero" stroke-linejoin="miter" stroke-miterlimit="10" stroke-dasharray="" stroke-dashoffset="0" style="mix-blend-mode: normal"><path d="M321.83333,230.5v-101h76.33333v101z" fill="#273042" stroke="none" stroke-width="0" stroke-linecap="butt"/><path d="M329.75471,196.83333v-61.66667h60.49068v61.66667z" fill="#0b0e13" stroke="none" stroke-width="0" stroke-linecap="butt"/><g data-paper-data="{&quot;index&quot;:null}" stroke="none" stroke-linecap="butt"><path d="M368.76709,149.02896c-0.21042,0.07605 -0.4135,0.16952 -0.59815,0.30797c0,0 -0.13978,0.10349 -0.24327,-0.03628c-0.1035,-0.13979 0.03628,-0.24327 0.03628,-0.24327c0.98816,-0.72411 2.69751,-1.10837 3.89153,-1.22699c0.69452,-0.06753 1.43271,0.04212 2.11739,0.19849c0.1614,0.03687 0.69505,0.0904 0.71142,0.32724c0.00414,0.05987 -0.03279,0.10585 -0.08187,0.14775c0.25995,0.03043 0.60158,0.17476 0.74104,0.22249c0.89945,0.30779 1.68017,0.77212 2.53679,1.17907c0.32572,0.15472 1.24994,0.50516 1.38337,0.86482c0.2887,0.77821 -0.60372,1.83853 -0.91178,2.47687c-0.84336,1.03829 -1.21055,2.33597 -2.05793,3.37921c-0.32518,0.39119 -0.59064,0.82645 -0.90121,1.23401c0.04516,0.01033 0.08386,0.02976 0.10409,0.05859c0.1955,0.27856 -0.33398,0.76148 -0.52125,0.87887c-0.91555,0.57389 -2.06932,0.4743 -3.05791,0.90591c-0.37059,0.03977 -0.88249,0.18041 -1.24938,0.11739c-1.2749,-0.219 -1.46237,-1.66878 -1.89061,-2.63113c-0.68448,-1.53824 -1.47258,-3.00319 -2.15429,-4.5352c-0.72271,-1.64853 0.70964,-2.60154 1.92105,-3.49482c0.07619,-0.0418 0.15092,-0.08571 0.22468,-0.13099z" fill="#f2aa58" stroke-width="0.5"/><g><path d="M371.91854,159.48446c-4.68255,1.64383 -8.334,-8.93246 -3.65145,-10.5763c4.68256,-1.64384 9.66688,0.61654 10.22887,2.18457c0.6599,1.84118 -1.98745,6.7804 -6.57741,8.39173z" fill="#f2aa58" stroke-width="0"/><path d="M375.67099,152.32093c0.82191,2.34127 -1.88156,4.9307 -5.12913,6.07078c-1.97451,0.69316 -4.45764,-7.09833 -2.48879,-7.78951c3.24757,-1.14009 6.79599,-0.62254 7.61791,1.71873z" fill="#f3b46b" stroke-width="0"/><path d="M376.93418,152.01057c0.41715,1.18825 -7.72963,0.03409 -8.14678,-1.15417c-0.23456,-0.66816 2.2021,-1.26442 4.31092,-1.03823c1.64146,0.17606 3.23083,0.46891 3.83587,2.1924z" fill="#f3b46b" stroke-width="0"/><path d="M376.92227,152.09325c0.35676,1.48296 -1.38084,2.98473 -2.55205,4.14821c-1.50467,1.49472 -3.77936,2.55244 -4.01391,1.88426c-0.41715,-1.18825 6.27139,-7.25688 6.56596,-6.03247z" fill="#f3b46b" stroke-width="0"/><path d="M373.13326,152.93588c0.12216,-0.1238 0.24596,-0.00163 0.24596,-0.00163l0.203,0.20091c0.07351,0.0975 0.26874,0.24195 0.397,0.38691c-0.00462,-0.34429 -0.04755,-0.65405 -0.21654,-0.98504c-0.05235,-0.10253 -0.22626,-0.43886 -0.16504,-0.52477c0.07506,-0.10532 0.25099,-0.0903 0.37982,-0.07908c0.22859,0.01989 0.88808,0.44115 1.22019,0.78715c-0.16584,-0.54045 -0.47593,-0.96064 -0.83155,-1.42825c0,0 -0.10529,-0.13843 0.03315,-0.24371c0.13844,-0.10528 0.24371,0.03317 0.24371,0.03317c0.45596,0.59954 0.83084,1.13559 0.97326,1.88985l-0.00117,0.00684l0.00204,-0.00023l0.02434,0.22084c0.00763,0.05965 -0.01594,0.12164 -0.06725,0.16066c-0.06948,0.05284 -0.16593,0.04539 -0.22659,-0.01381l-0.16905,-0.15922l0.02303,-0.02445c-0.23275,-0.16621 -0.44414,-0.35151 -0.69957,-0.5091c-0.04181,-0.0258 -0.24366,-0.15206 -0.40436,-0.26595c0.04899,0.09907 0.08545,0.2003 0.09149,0.21534c0.15526,0.38611 0.14565,0.77882 0.13567,1.18497l0.00127,0.18917c0.00094,0.05351 -0.02276,0.10673 -0.06862,0.14162c-0.06805,0.05175 -0.16197,0.04569 -0.2228,-0.01019l-0.14532,-0.12829l0.02326,-0.02636c-0.22496,-0.15923 -0.41233,-0.35456 -0.59161,-0.58843l-0.18606,-0.18298c0,0 -0.12379,-0.12215 -0.00164,-0.24595z" fill="#dea564" stroke-width="0.5"/></g><path d="M368.0243,152.60428c-0.01966,0.01627 -0.03973,0.03212 -0.06026,0.04752c0,0 -0.13978,0.10349 -0.24326,-0.03628c-0.1035,-0.13978 0.03628,-0.24327 0.03628,-0.24327c0.25363,-0.1848 0.63616,-0.87301 0.96023,-0.87608c0.48224,-0.00458 0.47301,0.7745 0.4921,1.19062c0.14206,-0.04179 0.39565,0.1919 0.45004,0.32857c0.02124,0.05337 -0.07882,0.60901 -0.02187,0.62158c0.10467,0.02312 0.25222,-0.06352 0.32107,0.01866c0.13051,0.15575 -0.23763,0.49267 -0.06879,0.60575c0.30307,0.20298 0.66705,0.24393 0.98213,0.50317l0.14325,0.11786c0.07418,0.06103 0.08483,0.17063 0.02381,0.2448c-0.03051,0.03708 -0.07316,0.05828 -0.11747,0.06259l-0.19584,0.01905c-0.02958,0.00894 -0.08963,0.00541 -0.13754,-0.00042c0.16235,0.07399 0.28123,0.41403 0.37245,0.53666l0.11161,0.15076c0.04865,0.06279 0.04929,0.15301 -0.0033,0.21693c-0.03661,0.0445 -0.09071,0.06612 -0.14415,0.06314l-0.22963,-0.01033l0.00149,-0.03312c-0.06484,0.00118 -0.12752,-0.00221 -0.19023,-0.01083c0.21076,0.21251 0.42321,0.49256 0.48413,0.60901c0.05466,0.10448 0.19076,0.22504 0.13294,0.32781c-0.18023,0.32032 -0.40545,0.08028 -0.57819,0.03272c-0.83716,-0.23049 -1.24539,-0.50714 -1.75364,-1.1964c-0.51074,-0.92883 -0.66029,-2.20242 -0.76739,-3.29051z" fill="url(#color-1)" stroke-width="0.5"/></g><g stroke="none" stroke-linecap="butt"><path d="M349.57086,148.02532c0.07851,0.03642 0.15784,0.07137 0.23836,0.10405c1.30683,0.74678 2.84001,1.52729 2.31334,3.24849c-0.49947,1.60073 -1.11237,3.14717 -1.61388,4.7544c-0.31376,1.00552 -0.33185,2.46725 -1.57275,2.83262c-0.35712,0.10515 -0.88187,0.02481 -1.25457,0.02828c-1.03196,-0.31406 -2.1664,-0.08136 -3.14233,-0.54522c-0.19963,-0.09489 -0.78153,-0.51315 -0.61965,-0.81249c0.01675,-0.03098 0.05293,-0.05478 0.0966,-0.07027c-0.35573,-0.3688 -0.66989,-0.77034 -1.03823,-1.12118c-0.96263,-0.93795 -1.47783,-2.1843 -2.4359,-3.11779c-0.38,-0.59832 -1.38934,-1.548 -1.19283,-2.35443c0.09082,-0.3727 0.96817,-0.82793 1.27375,-1.01938c0.80365,-0.50354 1.52526,-1.05527 2.38296,-1.46528c0.13298,-0.06357 0.45558,-0.24654 0.71025,-0.30691c-0.05361,-0.03592 -0.09563,-0.07732 -0.09846,-0.13726c-0.01121,-0.23714 0.51264,-0.35219 0.66868,-0.40753c0.66194,-0.2347 1.38242,-0.42921 2.08009,-0.44268c1.19972,-0.02063 2.9421,0.16282 4.00756,0.76746c0,0 0.15083,0.08658 0.06424,0.23743c-0.08659,0.15082 -0.23743,0.06424 -0.23743,0.06424c-0.19946,-0.11611 -0.412,-0.18539 -0.62982,-0.23653z" fill="#f2aa58" stroke-width="0.5"/><g><path d="M340.14692,151.20329c0.37637,-1.62261 5.06497,-4.44572 9.90656,-3.35594c4.84157,1.08978 2.44115,12.01814 -2.40043,10.92837c-4.74584,-1.06822 -7.94807,-5.66715 -7.50613,-7.57243z" fill="#f2aa58" stroke-width="0"/><path d="M343.09526,152.09564c0.54489,-2.42078 4.00936,-3.34631 7.36722,-2.59049c2.03571,0.45821 0.47281,8.48508 -1.56876,8.02556c-3.35787,-0.75581 -6.34335,-3.01429 -5.79848,-5.43507z" fill="#f3b46b" stroke-width="0"/><path d="M341.80457,151.93384c0.40111,-1.78203 1.94579,-2.25719 3.55577,-2.6224c2.06836,-0.4692 4.55773,-0.15951 4.40222,0.53134c-0.27654,1.22862 -8.23453,3.31968 -7.95799,2.09107z" fill="#f3b46b" stroke-width="0"/><path d="M349.04718,157.24499c-0.15549,0.69087 -2.53748,-0.09593 -4.20533,-1.4061c-1.29823,-1.01982 -3.19824,-2.30998 -3.01584,-3.8243c0.1506,-1.25031 7.49772,4.00179 7.22117,5.2304z" fill="#f3b46b" stroke-width="0"/><path d="M345.68715,152.41216c0.13569,0.1088 0.0269,0.24448 0.0269,0.24448l-0.16359,0.20332c-0.15095,0.25307 -0.31441,0.46882 -0.51939,0.65306l0.02616,0.02348l-0.12947,0.14427c-0.05394,0.06255 -0.14651,0.07946 -0.22011,0.03596c-0.0496,-0.02934 -0.07931,-0.07946 -0.08458,-0.13271l-0.02067,-0.18804c-0.057,-0.40225 -0.11208,-0.7912 -0.00265,-1.19271c0.00426,-0.01564 0.02874,-0.12041 0.0659,-0.22449c-0.14641,0.13175 -0.33226,0.28056 -0.3708,0.31104c-0.23543,0.18614 -0.4239,0.39471 -0.63581,0.58679l0.0257,0.02161l-0.14944,0.17775c-0.05338,0.06582 -0.14833,0.08442 -0.22347,0.03999c-0.05548,-0.0328 -0.08608,-0.09164 -0.08543,-0.15177l-0.00143,-0.22217l0.00205,-0.00001l-0.00196,-0.00666c0.05399,-0.76568 0.3642,-1.34158 0.74756,-1.98995c0,0 0.08851,-0.14972 0.23822,-0.06121c0.1497,0.08852 0.06119,0.23822 0.06119,0.23822c-0.29899,0.50569 -0.55829,0.959 -0.66033,1.51504c0.28974,-0.38217 0.89594,-0.87706 1.12068,-0.92333c0.12666,-0.02608 0.29967,-0.06141 0.38643,0.0345c0.07076,0.07823 -0.06297,0.43246 -0.10307,0.54036c-0.12946,0.34835 -0.13619,0.66101 -0.10086,1.00351c0.11058,-0.15885 0.28776,-0.32497 0.34946,-0.43034l0.17834,-0.2231c0,0 0.10879,-0.13569 0.24448,-0.02689z" fill="#dea564" stroke-width="0.5"/></g><path d="M350.72321,151.49034c0.01979,1.09318 0.01892,2.37552 -0.38067,3.35731c-0.42489,0.74355 -0.79829,1.06567 -1.60307,1.39167c-0.16607,0.06726 -0.36192,0.33181 -0.57808,0.03455c-0.06935,-0.09537 0.05185,-0.23091 0.09403,-0.34102c0.04701,-0.12273 0.22555,-0.42553 0.41026,-0.66105c-0.06128,0.01584 -0.12315,0.02647 -0.18769,0.03281l0.00531,0.03273l-0.22689,0.03689c-0.05273,0.00916 -0.10897,-0.00605 -0.15049,-0.046c-0.05964,-0.05739 -0.06947,-0.14708 -0.02843,-0.21509l0.09339,-0.16268c0.07639,-0.13238 0.15503,-0.48391 0.3077,-0.57623c-0.0469,0.01135 -0.10615,0.02181 -0.13656,0.01636l-0.19673,0.00379c-0.04451,0.00086 -0.08933,-0.01526 -0.12393,-0.04855c-0.06921,-0.0666 -0.07134,-0.17668 -0.00474,-0.2459l0.12862,-0.13368c0.28289,-0.29403 0.63966,-0.37692 0.91715,-0.61367c0.15459,-0.13189 -0.25013,-0.42384 -0.13856,-0.59368c0.05885,-0.08961 0.21546,-0.02066 0.31673,-0.05577c0.05511,-0.0191 -0.1087,-0.55937 -0.0938,-0.61485c0.03818,-0.14205 0.26295,-0.40358 0.40891,-0.37854c-0.02929,-0.41553 -0.1288,-1.18829 0.35072,-1.23965c0.32225,-0.03452 0.782,0.60468 1.05534,0.75883c0,0 0.15083,0.08659 0.06424,0.23743c-0.08657,0.15084 -0.23741,0.06424 -0.23741,0.06424c-0.02218,-0.01291 -0.04395,-0.02633 -0.06536,-0.04021z" fill="url(#color-2)" stroke-width="0.5"/></g><path d="M343.08348,227.33333v-17.33333h33.83333v17.33333z" fill="#0b0e13" stroke="#000000" stroke-width="0" stroke-linecap="butt"/><path d="M342.99994,209.125v-11.25h34.25v11.25z" fill="#273042" stroke="#000000" stroke-width="0" stroke-linecap="butt"/><text transform="translate(345.44341,222.26211) scale(0.29962,0.29962)" font-size="40" xml:space="preserve" fill="#c79e44" fill-rule="nonzero" stroke="none" stroke-width="1" stroke-linecap="butt" stroke-linejoin="miter" stroke-miterlimit="10" stroke-dasharray="" stroke-dashoffset="0" font-family="&quot;Agency FB&quot;, Sans Serif" font-weight="normal" text-anchor="start" style="mix-blend-mode: normal"><tspan x="0" dy="0">MEDIUM</tspan></text><path d="M381.47332,169.21462c0.035,0.0175 0.05228,0.04091 0.05982,0.06424c0.16519,-0.02566 0.32591,-0.0625 0.47807,-0.11528l0.13167,-0.04388c0.01225,-0.00441 0.02546,-0.00681 0.03923,-0.00681c0.06403,0 0.11594,0.05192 0.11594,0.11595c0,0.01377 -0.0024,0.02697 -0.0068,0.03923l-0.04388,0.13166l-0.02855,-0.00952c-0.13451,0.44633 -0.51347,0.81349 -0.58814,1.23665c0.0936,0.00278 0.21608,0.13662 0.21685,0.28412c0.00087,0.16622 -0.29888,0.51502 -0.36205,0.68474c-0.16068,0.43171 -0.54609,1.28585 -0.53059,1.71895c-0.08547,0.34754 -0.17155,0.75704 -0.32739,1.07206c-0.13353,0.26993 -0.44121,0.62414 -0.44121,0.92686l-0.03846,0.02429l0.01332,0.01332l-0.08949,0.08949v0c-0.02098,0.02098 -0.04997,0.03396 -0.08199,0.03396c-0.06403,0 -0.11595,-0.05191 -0.11595,-0.11595v-0.13423h0.01545c-0.17206,-0.98525 0.23338,-2.30306 0.5686,-3.15967c0.2052,-0.80226 0.35373,-1.58928 0.39769,-2.43608c-0.34915,0.03055 -0.30232,-0.06024 -0.64207,-0.06024c0,0 -0.11595,0 -0.11595,-0.11594c0,-0.11594 0.11595,-0.11595 0.11595,-0.11595c0.34778,0 0.72388,0.00647 1.0877,-0.02881l0.01667,-0.04133c0,0 0.05185,-0.1037 0.15555,-0.05185z" fill="#f2aa58" stroke="none" stroke-width="0.5" stroke-linecap="butt"/><path d="M360.52379,150.31344c-0.41886,0 -0.8482,-0.01829 -1.27668,-0.02269c-0.60663,0.03652 -1.2084,0.10596 -1.80785,0.14046c-0.19097,0.02584 -0.38655,0.04609 -0.57935,0.04931v0.01843h-0.18551c-0.02223,0 -0.04348,-0.00417 -0.06304,-0.01177l-0.03847,0.00769c-0.01212,0.00268 -0.02471,0.00408 -0.03763,0.00408c-0.0464,0 -0.08855,-0.01816 -0.11973,-0.04778c-0.0688,-0.01142 -0.13641,-0.02649 -0.20243,-0.04579c-0.01601,0.0002 -0.03228,0.00047 -0.04886,0.00082h-0.03189l-0.01029,0.04118l-0.18199,-0.0455c-0.00118,-0.00026 -0.00236,-0.00055 -0.00354,-0.00084c-0.22765,0.05989 -0.45114,0.09706 -0.65348,0.09791c0,0 -0.17392,0.00001 -0.17392,-0.17392c0,-0.17392 0.17392,-0.17392 0.17392,-0.17392c0.55272,0.00278 1.29109,-0.32093 1.77143,-0.58145c0.1457,-0.07902 0.31322,-0.1109 0.46178,-0.1844c0.11243,-0.05562 0.19913,-0.24292 0.31763,-0.20178c0.46704,0.16219 0.13903,0.36526 0.07887,0.51077c-0.04312,0.10429 0.22563,-0.00692 0.33848,-0.00692c0.13435,0 0.2687,0.00013 0.40306,0.0006c1.12775,-0.18795 2.32009,-0.05311 3.48046,0.01398c-0.03338,0.16017 -0.08898,0.29431 -0.13088,0.4602c-0.26223,0.08634 -0.57924,0.15398 -0.8682,0.19402c-0.20438,-0.02321 -0.40844,-0.04371 -0.6119,-0.04268z" fill="#f2aa58" stroke="none" stroke-width="0.5" stroke-linecap="butt"/><path d="" fill="#f2aa58" stroke="none" stroke-width="0.5" stroke-linecap="butt"/><path d="M343.08305,167.58539c0,-9.78024 6.54732,-17.5541 16.14945,-17.5541c9.60213,0 16.53593,7.92845 16.53593,17.7087c0,9.78024 -6.93381,17.7087 -16.53593,17.7087c-9.60213,0 -16.14945,-8.08305 -16.14945,-17.86329z" fill="#f2aa58" stroke="none" stroke-width="0" stroke-linecap="butt"/><path d="M381.22345,169.36325c0,4.78563 -1.11865,16.42959 -22.58539,16.8044c-17.6749,-1.04903 -20.62362,-12.32795 -20.62362,-17.11358c0,-0.30032 43.20901,0.01143 43.20901,0.30919z" fill="#f2aa58" stroke="none" stroke-width="0" stroke-linecap="butt"/><path d="M360.33395,162.34085c0,6.62761 -0.85001,16.1744 -7.33355,16.1744c-6.48354,0 -7.85531,-5.08288 -7.85531,-11.7105c0,-6.62761 3.80662,-12.69602 10.29016,-12.69602c6.48354,0 4.89869,1.60451 4.89869,8.23213z" fill="#f3b46b" stroke="none" stroke-width="0" stroke-linecap="butt"/><path d="M363.68119,154.05075c6.48354,0 10.11624,6.06841 10.11624,12.69603c0,6.62761 -1.66163,11.7105 -8.14517,11.7105c-6.48354,0 -7.21761,-9.54678 -7.21761,-16.1744c0,-6.62761 -1.237,-8.23212 5.24654,-8.23212z" fill="#f3b46b" stroke="none" stroke-width="0" stroke-linecap="butt"/><path d="M375.18536,163.71288c0,0 0.55809,3.64569 1.46076,4.62083c0.86023,0.92931 4.83895,1.09914 4.83895,1.09914c0,0 -1.44985,0 -5.52674,0c-1.5705,0 -0.77297,-5.71998 -0.77297,-5.71998z" fill="#f2aa58" stroke="none" stroke-width="0" stroke-linecap="butt"/><path d="M342.78869,169.35556c-4.07689,0 -4.83106,-0.38648 -4.83106,-0.38648c0,0 3.28304,0.21664 4.14327,-0.71266c0.90267,-0.97514 1.38345,-4.69813 1.38345,-4.69813c0,0 0.87483,5.79727 -0.69567,5.79727z" fill="#f2aa58" stroke="none" stroke-width="0" stroke-linecap="butt"/><path d="M379.92876,170.39906c0,0 2.05752,16.47182 -19.76781,15.68324c-23.64175,-0.85421 -21.04499,-16.03108 -21.04499,-16.03108c0,0 4.65201,1.30318 6.20776,-3.251c0.87741,-2.56843 27.6844,-2.25266 28.36821,-0.38812c1.79174,4.88551 6.23684,3.98696 6.23684,3.98696z" fill="url(#color-3)" stroke="none" stroke-width="0" stroke-linecap="butt"/><path d="M371.11689,175.52964c0,-2.64144 2.14131,-4.78275 4.78275,-4.78275c2.64144,0 4.78276,2.14131 4.78276,4.78275c0,2.64144 -2.14132,4.78275 -4.78276,4.78275c-2.64144,0 -4.78275,-2.14131 -4.78275,-4.78275z" fill="url(#color-4)" stroke="none" stroke-width="0" stroke-linecap="butt"/><path d="M339.98555,175.12383c0,-2.64144 2.14131,-4.78275 4.78275,-4.78275c2.64144,0 4.78274,2.14131 4.78274,4.78275c0,2.64144 -2.1413,4.78275 -4.78274,4.78275c-2.64144,0 -4.78275,-2.14131 -4.78275,-4.78275z" fill="url(#color-5)" stroke="none" stroke-width="0" stroke-linecap="butt"/><path d="M370.22413,181.24862c0,2.48275 -4.97378,5.72575 -10.36552,5.72575c-5.39174,0 -9.9945,-2.76978 -9.9945,-5.25254c0,-2.48275 4.60276,-3.7383 9.9945,-3.7383c5.39174,0 10.36552,0.78235 10.36552,3.2651z" fill="#000000" stroke="none" stroke-width="0" stroke-linecap="butt"/><g stroke="none" stroke-width="0.5" stroke-linecap="butt"><path d="M350.26449,178.98208c0.02612,-0.07918 0.48568,-0.55857 0.48568,-0.55857l-0.15849,1.52808c0.73554,-0.53535 1.51516,-0.7396 2.38877,-0.94617c1.97184,-0.46623 3.82986,-0.55176 5.84727,-0.55176c2.88464,0 5.73373,0.15912 8.59191,0.5871c0.98868,0.14805 2.5698,-1.18363 2.48822,0.18845c-0.0179,0.30101 -0.38986,1.6658 -0.55758,1.91361c-0.35114,0.51883 -0.60021,1.6018 -1.01727,2.06621c-0.32596,0.31914 0.43215,1.65861 0.37618,2.2682c-0.03181,0.34648 -0.19443,-0.33971 -0.435,-0.09407c-0.18197,0.18581 -0.46075,0.23511 -0.70137,0.32731c-0.74715,0.2863 -1.59975,0.46771 -2.37817,0.64509c-1.03953,0.23688 -2.04989,0.70669 -3.10589,0.85906c-1.40037,0.20206 -3.03548,0.02338 -4.43969,-0.08628c-1.8499,-0.14634 -3.80622,-0.48297 -5.4851,-1.30833c-0.29776,-0.14639 -0.9337,0.17053 -1.12948,-0.07961c-0.79647,-1.01755 -0.06973,-2.34683 0.02303,-3.33623c0.02546,-0.27155 -0.91088,-1.85328 -1.04973,-2.01136c0,0 -0.61739,-0.80622 -0.31472,-1.17262z" fill="#e9e9e9"/><path d="M368.54711,183.06031c0,0.11594 -0.11315,0.11594 -0.11315,0.11594c-0.05822,0 -0.24743,0 -0.30566,0c-0.63135,0 -1.30836,-0.02822 -1.89259,-0.22474c-0.29783,-0.10018 -0.15744,0.71473 -0.6213,0.42466c-0.05953,-0.03723 -0.0802,-0.11695 -0.1203,-0.17543c-0.08573,-0.27824 -0.26781,-0.34186 -0.53519,-0.29444c-0.6796,0.12052 -1.4149,0.13564 -2.08239,0.31008c-1.00117,0.33166 -2.43638,0.09411 -3.48113,0.09411c-0.93234,0 -1.90323,0.07029 -2.81266,-0.09098c-0.24917,-0.04418 -0.49488,0.03976 -0.7423,-0.04475c-0.27857,0 -0.55072,-0.07665 -0.83703,-0.04475c-0.15963,0.01779 -0.30388,0.32735 -0.45478,0.3147c-0.28774,-0.02411 -0.25306,-0.51148 -0.27919,-0.69798c-0.01157,-0.08259 -0.55868,-0.06266 -0.63776,-0.06266c-0.84207,0 -1.70235,-0.05268 -2.53254,-0.04474c0,0 -0.11315,-0.00001 -0.11315,-0.11595c0,-0.11594 0.11315,-0.11594 0.11315,-0.11594c0.83328,0.00647 1.6882,0.04474 2.53254,0.04474c0.24418,0 0.71546,-0.05761 0.84683,0.20582c0.04725,0.09475 0.03723,0.31961 0.05082,0.42848c0.00528,0.04229 0.00967,0.16781 0.01931,0.12635c0.1182,-0.50856 0.99456,-0.26696 1.32806,-0.26696c0.24529,0.08378 0.49214,0.00346 0.7423,0.04475c0.90122,0.14877 1.85321,0.08799 2.77641,0.08799c1.00178,0 2.46275,0.25348 3.41787,-0.08487c0.55874,-0.14079 1.14964,-0.12632 1.71643,-0.22684c0.23903,-0.04238 0.60216,-0.18363 0.84738,-0.08216c0.15208,0.06293 0.27038,0.26722 0.32034,0.41413c0.1467,0.25103 0.18648,-0.4121 0.56834,-0.37718c0.59724,0.05463 1.2261,0.22268 1.86256,0.22268c0.05822,0 0.11644,0 0.17466,0h0.13099c0,0 0.11315,0.00001 0.11315,0.11595z" fill="#c9c9c9"/></g><path d="M338.72415,173.12929c0.05146,0.08498 0.10282,0.16575 0.15309,0.24113c0,0 0.06432,0.09647 -0.03215,0.16079c-0.09647,0.06431 -0.16079,-0.03215 -0.16079,-0.03215c-0.40348,-0.60523 -0.92208,-1.61488 -0.91286,-2.32767c-0.10944,-0.32831 -0.04623,-0.7466 -0.04623,-1.09242v-0.13424c0,-0.06403 0.05191,-0.11594 0.11594,-0.11594c0.00787,0 0.01557,0.00079 0.023,0.00229c0.00322,-0.15205 -0.29449,-0.81018 -0.09079,-0.96476c0.05893,-0.04472 0.14678,0.01929 0.22059,0.02436c0.76367,0.05241 0.37065,0.79969 0.54019,1.29011c0.16027,0.65175 0.31783,1.50844 0.31783,2.1801c0,0.28181 0.09969,0.68287 -0.12781,0.76839zM338.63921,172.92099l-0.00075,0.00106c0.00025,0.00049 0.0005,0.00012 0.00075,-0.00106z" fill="#f2aa58" stroke="none" stroke-width="0.5" stroke-linecap="butt"/><g><path d="M360.43189,175.61377c0,2.98403 4.12521,5.07841 -4.68419,4.8929c-3.89246,-0.08197 -6.26105,1.15208 -6.26105,-1.83194c0,-2.98403 2.92428,-8.13937 6.8176,-8.13937c3.89332,0 4.12765,2.09438 4.12765,5.07841z" fill="#f3b46b" stroke="none" stroke-width="0.5" stroke-linecap="butt"/><path d="M363.44648,170.6745c3.89332,0 6.81759,5.15535 6.81759,8.13938c0,2.98403 -2.368,1.87695 -6.26105,1.83194c-8.02098,-0.09276 -4.68419,-1.90887 -4.68419,-4.8929c0,-2.98403 0.23434,-5.07841 4.12766,-5.07841z" fill="#f3b46b" stroke="none" stroke-width="0.5" stroke-linecap="butt"/><path d="M365.3016,171.41655c0,0.87087 -2.42942,1.57685 -5.42624,1.57685c-2.99683,0 -5.42625,-0.70598 -5.42625,-1.57685c0,-0.87087 2.42942,-1.57686 5.42625,-1.57686c2.99683,0 5.42624,0.70598 5.42624,1.57686z" fill="#f3b46b" stroke="none" stroke-width="0.5" stroke-linecap="butt"/><path d="M359.89855,180.28637c-0.17392,0 -0.17392,-0.17392 -0.17392,-0.17392v-0.17392c0,-0.87766 0.05797,-1.77571 0.05797,-2.66675c0,-1.12922 0.05797,-2.24105 0.05797,-3.36242c0,0 0,-0.17392 0.17392,-0.17392c0.17392,0 0.17392,0.17392 0.17392,0.17392c0,1.12168 -0.05797,2.23305 -0.05797,3.36242c0,0.89057 -0.05797,1.78979 -0.05797,2.66675v0.17392c0,0 0,0.17392 -0.17392,0.17392z" fill="#eaad67" stroke="none" stroke-width="0.5" stroke-linecap="butt"/><path d="M362.75656,172.02395c0,0.39598 -0.8937,0.20949 -1.68407,0.53392c-0.89086,0.36568 -0.36015,1.30524 -1.06043,1.27007c-0.70029,-0.03517 -0.46283,-1.03684 -1.35122,-1.39119c-0.82134,-0.3276 -1.32467,0.14549 -1.32467,-0.25915c0,-0.84231 5.4204,-0.99596 5.4204,-0.15366z" fill="#0e0b07" stroke="none" stroke-width="0.5" stroke-linecap="butt"/><path d="M366.29031,171.895c-0.33612,-0.19914 -0.67532,-0.39451 -1.0274,-0.57024c0,0 -0.15555,-0.07777 -0.07778,-0.23333c0.07777,-0.15556 0.23334,-0.07779 0.23334,-0.07779c0.87779,0.43972 1.67914,1.003 2.5503,1.43748c0.45199,0.22543 0.91358,0.40223 1.26964,0.74979c0.36314,0.72626 0.85741,1.37991 1.22786,2.12837l-0.00104,0.01982l0.00664,-0.00166l0.04543,0.18173c0.00401,0.01465 0.00614,0.03005 0.00614,0.04596c0,0.09605 -0.07787,0.17392 -0.17392,0.17392c-0.03978,0 -0.07644,-0.01336 -0.10575,-0.03584l-0.15875,-0.11906c-0.00704,-0.00286 -0.014,-0.00576 -0.02087,-0.00869c0.06762,0.17966 0.12352,0.39186 0.12571,0.39845c0.19845,0.59537 0.23692,1.18743 0.35159,1.7827c0.09307,0.00338 0.1675,0.0799 0.1675,0.17381v0.23189h-0.00624l-0.0226,0.0904c0.14164,0.84644 -0.20938,1.74782 -0.81052,2.35148l-0.13914,0.13914c-0.03148,0.03148 -0.07495,0.05094 -0.12297,0.05094c-0.09605,0 -0.17391,-0.07786 -0.17391,-0.17392v-0.06c-0.0707,0.01841 -0.15954,0.02118 -0.24769,0.04321c-0.38446,0.09612 -1.38878,0.42748 -1.75685,0.16473c-0.19372,-0.13829 -0.18989,-0.38077 -0.17464,-0.57969c0.04807,-0.62707 0.13853,-1.20169 0.13853,-1.84078c0,-0.70129 -0.14666,-1.37528 -0.23059,-2.06576c-0.09963,-0.81968 -0.03241,-1.66009 -0.23189,-2.45805c-0.00086,-0.35787 -0.05398,-1.4731 -0.41532,-1.62806l-0.15783,-0.1036c0,0 -0.12245,-0.08163 -0.06699,-0.20734z" fill="#f3b46b" stroke="none" stroke-width="0.5" stroke-linecap="butt"/><g fill="none" stroke="#000000" stroke-width="0.25" stroke-linecap="round"><path d="M380.4924,175.66823c0,0 -2.13852,-0.83028 -3.68991,-0.72512c-1.94944,0.13213 -3.51765,1.20329 -4.92343,1.17098c-1.91221,-0.04394 -5.2137,-0.7636 -5.2137,-0.7636"/><path d="M375.16362,180.11156c0,0 -3.2257,1.66022 -4.53154,0.96235c-1.48672,-0.79453 -3.82013,-4.08446 -3.82013,-4.08446"/></g><path d="M353.22057,171.96803c0.05546,0.12271 -0.06698,0.20238 -0.06698,0.20238l-0.15783,0.10113c-0.36134,0.15126 -0.41446,1.2398 -0.41532,1.58911c-0.19949,0.77887 -0.13225,1.59917 -0.23188,2.39923c-0.08392,0.67397 -0.23059,1.33184 -0.23059,2.01635c0,0.6238 0.09046,1.18466 0.13853,1.79674c0.01524,0.19417 0.01908,0.43084 -0.17465,0.56582c-0.36808,0.25646 -1.37239,-0.06697 -1.75685,-0.16079c-0.08816,-0.02151 -0.17698,-0.02421 -0.24768,-0.04218v0.05856c0,0.09375 -0.07787,0.16976 -0.17392,0.16976c-0.04802,0 -0.09151,-0.019 -0.12298,-0.04972l-0.13914,-0.13581c-0.60114,-0.58922 -0.95216,-1.46904 -0.81052,-2.29522l-0.02259,-0.08824h-0.00625v-0.22635c0,-0.09166 0.07442,-0.16634 0.1675,-0.16964c0.11469,-0.58103 0.15313,-1.15892 0.35159,-1.74004c0.0022,-0.00643 0.0581,-0.21357 0.12572,-0.38893c-0.00687,0.00285 -0.01384,0.0057 -0.02087,0.00849l-0.15874,0.1162c-0.0293,0.02195 -0.06597,0.03498 -0.10575,0.03498c-0.09605,0 -0.17392,-0.07601 -0.17392,-0.16976c0,-0.01553 0.00213,-0.03057 0.00614,-0.04487l0.04544,-0.17738l0.00665,0.00163l-0.00105,-0.01935c0.37044,-0.73054 0.86472,-1.36856 1.22786,-2.07745c0.35605,-0.33924 0.81766,-0.5118 1.26964,-0.73184c0.87116,-0.42409 1.67251,-0.97389 2.55031,-1.40309c0,0 0.15556,-0.07591 0.23334,0.07592c0.07779,0.15183 -0.07779,0.22775 -0.07779,0.22775c-0.35209,0.17153 -0.69127,0.36221 -1.0274,0.5566z" fill="#f3b46b" stroke="none" stroke-width="0.5" stroke-linecap="butt"/><g fill="none" stroke="#000000" stroke-width="0.25" stroke-linecap="round"><path d="M354.14447,175.07475c0,0 -3.07188,0.74803 -4.85528,0.80842c-1.31109,0.04439 -2.78609,-1.01322 -4.6062,-1.12856c-1.44846,-0.0918 -3.43418,0.75683 -3.43418,0.75683"/><path d="M354.02615,176.71489c0,0 -2.13992,3.30984 -3.51797,4.11711c-1.2104,0.70907 -4.23826,-0.92334 -4.23826,-0.92334"/></g></g><g stroke="none" stroke-linecap="butt"><path d="M369.10594,184.96867c0,2.39063 -4.20475,4.32863 -9.39157,4.32863c-5.18683,0 -9.39159,-1.938 -9.39159,-4.32863c0,-1.14609 4.47157,1.27186 8.96633,1.22465c4.8809,-0.05125 9.81685,-2.4692 9.81685,-1.22465z" fill="#f3b46b" stroke-width="0"/><path d="M359.37035,189.22c-0.17392,0 -0.17392,-0.17392 -0.17392,-0.17392v-0.05797c0,-0.81265 0.05797,-1.6143 0.05797,-2.43485c0,0 0,-0.17391 0.17392,-0.17391c0.17392,0 0.17392,0.17391 0.17392,0.17391c0,0.82029 -0.05797,1.62275 -0.05797,2.43485v0.05797c0,0 0,0.17392 -0.17392,0.17392z" fill="#eaad67" stroke-width="0.5"/></g><path d="M347.71831,180.69711c0,-0.40514 0.32844,-0.73359 0.73359,-0.73359c0.40515,0 0.73359,0.32844 0.73359,0.73359c0,0.40514 -0.32844,0.73358 -0.73359,0.73358c-0.40515,0 -0.73359,-0.32843 -0.73359,-0.73358z" fill="url(#color-6)" stroke="none" stroke-width="0" stroke-linecap="butt"/><g fill="#000000" stroke="none" stroke-linecap="butt"><g stroke-width="0.5"><path d="M361.92582,163.46031c0,0 -0.1319,0.24857 -0.35174,0.09942c-0.21984,-0.14914 -0.08794,-0.39769 -0.08794,-0.39769c0.85602,-1.59202 2.88443,-1.64988 4.43299,-1.6487c-0.0225,0.10632 -0.02796,0.49782 -0.01556,0.57787c-1.35561,-0.01054 -3.26393,0.00182 -3.97776,1.36911z"/><path d="M365.67895,162.09122c0.01241,-0.08004 0.00694,-0.47155 -0.01556,-0.57787c1.54856,-0.00119 3.57697,0.05668 4.43299,1.6487c0,0 0.1319,0.24855 -0.08794,0.39769c-0.21984,0.14914 -0.35174,-0.09942 -0.35174,-0.09942c-0.71383,-1.36729 -2.62216,-1.37966 -3.97777,-1.3691z"/></g><path d="M364.54096,163.60739c0,-0.67649 0.54841,-1.2249 1.2249,-1.2249c0.67649,0 1.2249,0.54841 1.2249,1.2249c0,0.67649 -0.54841,1.2249 -1.2249,1.2249c-0.67649,0 -1.2249,-0.54841 -1.2249,-1.2249z" stroke-width="0"/></g><g fill="#000000" stroke="none" stroke-linecap="butt"><g stroke-width="0.5"><path d="M350.74276,163.46031c0,0 -0.1319,0.24857 -0.35174,0.09942c-0.21984,-0.14914 -0.08794,-0.39769 -0.08794,-0.39769c0.85602,-1.59202 2.88443,-1.64988 4.43299,-1.6487c-0.0225,0.10632 -0.02796,0.49782 -0.01556,0.57787c-1.35561,-0.01054 -3.26393,0.00182 -3.97776,1.36911z"/><path d="M354.49589,162.09122c0.01241,-0.08004 0.00694,-0.47155 -0.01556,-0.57787c1.54856,-0.00119 3.57697,0.05668 4.43299,1.6487c0,0 0.1319,0.24855 -0.08794,0.39769c-0.21984,0.14914 -0.35174,-0.09942 -0.35174,-0.09942c-0.71383,-1.36729 -2.62216,-1.37966 -3.97777,-1.3691z"/></g><path d="M353.3579,163.60739c0,-0.67649 0.54841,-1.2249 1.2249,-1.2249c0.67649,0 1.2249,0.54841 1.2249,1.2249c0,0.67649 -0.54841,1.2249 -1.2249,1.2249c-0.67649,0 -1.2249,-0.54841 -1.2249,-1.2249z" stroke-width="0"/></g><text transform="translate(329.87962,205.55262) scale(0.17105,0.17105)" font-size="40" xml:space="preserve" fill="#000000" fill-rule="nonzero" stroke="none" stroke-width="1" stroke-linecap="butt" stroke-linejoin="miter" stroke-miterlimit="10" stroke-dasharray="" stroke-dashoffset="0" font-family="&quot;GovtAgentBB&quot;, Serif" font-weight="normal" text-anchor="start" style="mix-blend-mode: normal"><tspan x="0" dy="0">Mr Fluffy Bottoms</tspan></text></g></g></svg>