<svg version="1.1" xmlns="http://www.w3.org/2000/svg" xmlns:xlink="http://www.w3.org/1999/xlink" width="774.66666" height="420" viewBox="0,0,774.66666,420"><defs><linearGradient x1="383.01775" y1="107.49966" x2="383.01775" y2="155.15699" gradientUnits="userSpaceOnUse" id="color-1"><stop offset="0" stop-color="#15181c"/><stop offset="1" stop-color="#000000"/></linearGradient><linearGradient x1="382.79098" y1="204.84301" x2="382.79098" y2="252.50034" gradientUnits="userSpaceOnUse" id="color-2"><stop offset="0" stop-color="#000000"/><stop offset="1" stop-color="#15181c"/></linearGradient><linearGradient x1="407.73987" y1="179.87911" x2="522.07967" y2="179.87911" gradientUnits="userSpaceOnUse" id="color-3"><stop offset="0" stop-color="#000000"/><stop offset="1" stop-color="#323a43"/></linearGradient><linearGradient x1="243.95584" y1="179.87911" x2="358.29564" y2="179.87911" gradientUnits="userSpaceOnUse" id="color-4"><stop offset="0" stop-color="#323a43"/><stop offset="1" stop-color="#000000"/></linearGradient><linearGradient x1="360.28774" y1="-7.68705" x2="360.28774" y2="115.68705" gradientUnits="userSpaceOnUse" id="color-5"><stop offset="0" stop-color="#15181c"/><stop offset="1" stop-color="#111417"/></linearGradient><linearGradient x1="359.71226" y1="244.31295" x2="359.71226" y2="367.68705" gradientUnits="userSpaceOnUse" id="color-6"><stop offset="0" stop-color="#111417"/><stop offset="1" stop-color="#15181c"/></linearGradient><linearGradient x1="463.1979" y1="179.68705" x2="696.21501" y2="179.68705" gradientUnits="userSpaceOnUse" id="color-7"><stop offset="0" stop-color="#121418"/><stop offset="1" stop-color="#323a43"/></linearGradient><linearGradient x1="23.1979" y1="179.68705" x2="316.1979" y2="179.68705" gradientUnits="userSpaceOnUse" id="color-8"><stop offset="0" stop-color="#323a43"/><stop offset="1" stop-color="#121418"/></linearGradient><radialGradient cx="394.48771" cy="180" r="90" gradientUnits="userSpaceOnUse" id="color-9"><stop offset="0" stop-color="#000000"/><stop offset="1" stop-color="#000000" stop-opacity="0"/></radialGradient><linearGradient x1="359.32103" y1="179.95833" x2="346.07103" y2="179.95833" gradientUnits="userSpaceOnUse" id="color-10"><stop offset="0" stop-color="#000000"/><stop offset="1" stop-color="#000000" stop-opacity="0"/></linearGradient><linearGradient x1="406.32103" y1="179.95833" x2="419.57104" y2="179.95833" gradientUnits="userSpaceOnUse" id="color-11"><stop offset="0" stop-color="#000000"/><stop offset="1" stop-color="#000000" stop-opacity="0"/></linearGradient><linearGradient x1="382.69603" y1="204.375" x2="382.69603" y2="211.625" gradientUnits="userSpaceOnUse" id="color-12"><stop offset="0" stop-color="#000000"/><stop offset="1" stop-color="#000000" stop-opacity="0"/></linearGradient><linearGradient x1="381.77937" y1="155.45833" x2="381.77937" y2="148.20833" gradientUnits="userSpaceOnUse" id="color-13"><stop offset="0" stop-color="#000000"/><stop offset="1" stop-color="#000000" stop-opacity="0"/></linearGradient><radialGradient cx="230.52965" cy="216.47829" r="45" gradientUnits="userSpaceOnUse" id="color-14"><stop offset="0" stop-color="#000000"/><stop offset="1" stop-color="#000000" stop-opacity="0"/></radialGradient><radialGradient cx="238.70738" cy="172.47829" r="45" gradientUnits="userSpaceOnUse" id="color-15"><stop offset="0" stop-color="#000000"/><stop offset="1" stop-color="#000000" stop-opacity="0"/></radialGradient><radialGradient cx="359.99999" cy="182.18519" r="362.61261" gradientUnits="userSpaceOnUse" id="color-16"><stop offset="0" stop-color="#000000" stop-opacity="0.83922"/><stop offset="1" stop-color="#000000" stop-opacity="0"/></radialGradient><radialGradient cx="359.99999" cy="182.18519" r="362.61262" gradientUnits="userSpaceOnUse" id="color-17"><stop offset="0" stop-color="#000000" stop-opacity="0"/><stop offset="1" stop-color="#000000"/></radialGradient><linearGradient x1="-24.94567" y1="181.05805" x2="139.36574" y2="181.05805" gradientUnits="userSpaceOnUse" id="color-18"><stop offset="0" stop-color="#000000"/><stop offset="1" stop-color="#000000" stop-opacity="0"/></linearGradient><linearGradient x1="747.33334" y1="177.8148" x2="583.02193" y2="177.8148" gradientUnits="userSpaceOnUse" id="color-19"><stop offset="0" stop-color="#000000"/><stop offset="1" stop-color="#000000" stop-opacity="0"/></linearGradient><linearGradient x1="360.26078" y1="-17.14015" x2="360.26078" y2="110.48748" gradientUnits="userSpaceOnUse" id="color-20"><stop offset="0" stop-color="#000000"/><stop offset="1" stop-color="#000000" stop-opacity="0"/></linearGradient><linearGradient x1="359.23301" y1="377.38042" x2="359.23301" y2="249.75279" gradientUnits="userSpaceOnUse" id="color-21"><stop offset="0" stop-color="#000000"/><stop offset="1" stop-color="#000000" stop-opacity="0"/></linearGradient><radialGradient cx="198.13865" cy="82.81202" r="38" gradientUnits="userSpaceOnUse" id="color-22"><stop offset="0" stop-color="#ffffff" stop-opacity="0.11373"/><stop offset="1" stop-color="#ffffff" stop-opacity="0"/></radialGradient><radialGradient cx="455.33974" cy="128.2507" r="30" gradientUnits="userSpaceOnUse" id="color-23"><stop offset="0" stop-color="#ffffff" stop-opacity="0.11373"/><stop offset="1" stop-color="#ffffff" stop-opacity="0"/></radialGradient></defs><g transform="translate(27.33333,30)"><g stroke-miterlimit="10"><path d="M343.86532,217.53754v-75.07508h78.07808v75.07508z" fill="#000000" stroke="#000000" stroke-width="0"/><g stroke-width="0"><path d="M238.93415,155.15699v-47.65733h288.1672v47.65733z" fill="url(#color-1)" stroke="#000000"/><path d="M238.70738,252.50034v-47.65733h288.1672v47.65733z" fill="url(#color-2)" stroke="#000000"/><path d="M407.73987,204.79437l0.38628,-49.63738l113.95352,-44.80884v139.06192z" fill="url(#color-3)" stroke="none"/><path d="M358.29564,154.96385l-0.38628,49.63738l-113.95352,44.80884v-139.06192z" fill="url(#color-4)" stroke="none"/></g><path d="M23.77338,115.68705v-123.3741h673.02872v123.3741z" fill="url(#color-5)" stroke="#000000" stroke-width="0"/><path d="M23.1979,367.68705v-123.3741h673.02872v123.3741z" fill="url(#color-6)" stroke="#000000" stroke-width="0"/><path d="M467.35892,228.18705l-4.16102,-94l233.01711,-134.5v360z" fill="url(#color-7)" stroke="none" stroke-width="0"/><path d="M316.1979,139.18705l-11.5,87l-281.5,133.5v-360z" fill="url(#color-8)" stroke="none" stroke-width="0"/><path d="M304.4877,270v-180h180v180z" fill="url(#color-9)" stroke="#000000" stroke-width="0"/><path d="M341.57103,210.70833l-0.25,-62.25l18,7v49z" fill="url(#color-10)" stroke="#000000" stroke-width="0"/><path d="M406.32104,204.45833v-49l18,-7l-0.25,62.25z" fill="url(#color-11)" stroke="#000000" stroke-width="0"/><path d="M334.32104,213.125l22,-8.75h52.75l24.25,10.75z" fill="url(#color-12)" stroke="#000000" stroke-width="0"/><path d="M432.40437,144.70833l-24.25,10.75h-52.75l-22,-8.75z" fill="url(#color-13)" stroke="#000000" stroke-width="0"/><g stroke="#000000" stroke-width="0"><path d="M383.15842,133.14424c-10.10221,0 -18.54572,-5.34129 -18.54572,-8.48284c0,-3.14155 8.18945,-5.68828 18.29166,-5.68828c10.10221,0 18.29167,2.54673 18.29167,5.68828c0,3.14155 -7.9354,8.48284 -18.03761,8.48284z" fill="#060606"/><path d="M397.93391,127.70514c0,2.58129 -6.5202,6.97001 -14.82078,6.97001c-8.30058,0 -15.23827,-4.38873 -15.23827,-6.97001c0,-2.58128 6.72894,-4.67383 15.02952,-4.67383c8.30057,0 15.02952,2.09255 15.02952,4.67383z" fill="#272727"/></g><path d="M240.85623,112.48981c0.25,0.0001 0.2499,0.2501 0.2499,0.2501l-0.00004,0.09157c-0.00027,0.69251 -0.03175,1.23332 -0.11394,1.69201c0.11397,0.06823 0.11397,0.21631 0.11397,0.21631c0,2.00922 0,4.01843 0,6.02765c0.14957,0.09637 0.30756,0.19212 0.47404,0.28836c0.46593,0.26937 1.65769,0.25058 1.97802,0.69583c0.5402,0.75088 -0.16177,2.86961 -0.35686,3.66136c-0.84905,3.4412 -2.84141,6.36094 -1.0939,9.64777c1.40245,2.63782 0.49874,7.50585 0.49889,10.50025c0.00199,3.50326 0.08824,6.98296 0.25914,10.4819c0.16862,3.45221 5.53913,4.52186 4.46272,8.84353c-0.88403,3.54928 -1.79652,6.55088 -0.81531,10.08696c0.95214,3.43897 1.09327,6.92825 1.09327,10.46589c0,3.23328 -0.6478,7.29273 0.16769,10.4215c0.90628,3.52689 2.46146,6.2244 4.77732,9.05771c1.06096,1.29802 2.51073,2.14397 3.66208,3.35142c0.22964,0.24082 0.99187,1.21812 0.72029,1.6129c-0.34105,0.49577 -3.58311,0.14363 -4.20314,0.15012c-3.13331,0.00653 -6.80513,2.64422 -9.28064,4.3323c-0.66749,0.45517 -3.25524,1.69224 -2.73698,2.84046c0.12985,0.28768 0.65278,0.17125 0.84965,0.41795c0.19737,0.24733 -0.02848,0.72906 0.22148,0.92309c0.3409,0.26463 1.85008,0.1983 2.85147,0.2524l0.0129,-0.12342l0.49444,0.05167c0.12723,0.01167 0.22687,0.11867 0.22687,0.24894c0,0.06904 -0.02799,0.13154 -0.07323,0.17678l-0.35357,0.35354v0l-0.00002,0.00002c-0.23577,0.23565 -0.47154,0.47129 -0.70731,0.70694c-2.52744,2.52611 -4.87485,4.79364 -7.11983,7.61555c-2.29841,2.8889 -4.34856,5.29033 -7.30989,7.5162c-0.655,0.49233 -1.42504,4.47222 -0.62471,5.21193c0.34064,0.31484 3.56299,0.43944 4.17671,0.44253c0.66753,0.01341 1.56844,-0.23331 1.19427,0.87459c-0.71234,2.10917 -5.19802,4.2523 -6.71518,6.02435c-2.51007,2.93177 -3.95283,5.70971 -8.33648,5.56237c-2.66051,-0.08949 -3.10979,-1.55519 -5.28057,-2.49351c-0.53457,-0.23107 -1.56984,0.23246 -2.05251,-0.14355c-0.26697,-0.20797 -0.06057,-0.73947 -0.31184,-0.96616c-0.27137,-0.24482 -0.94751,-0.18056 -1.32823,-0.49684c-0.42732,-0.2079 -1.36837,-1.2247 -1.23283,-1.8179c0.11006,-0.48167 1.30565,-0.9911 1.64501,-1.34266c1.43708,-1.48876 2.54168,-3.54613 3.7581,-5.22464c1.33836,-3.22185 2.69688,-6.43547 4.04654,-9.6526c0.40289,-1.08699 2.4078,-4.91533 1.76851,-6.00605c-0.11837,-0.20196 -1.16151,-0.27729 -1.36541,-0.48936c-0.69241,-0.72014 -0.31484,-1.30805 -1.28082,-1.91299c-2.77852,-1.74002 -6.67318,-3.19283 -9.06586,-5.34104c-0.91134,-0.82524 -3.02202,-1.33251 -3.64659,-2.383c-0.69853,-1.17489 1.58618,-4.32858 1.79981,-5.69809c0.49806,-3.19284 0.42461,-7.22747 -1.09614,-10.11017c-0.51653,-0.97912 -2.27971,-3.15285 -1.65853,-4.31203c0.72523,-1.35334 3.99151,-2.0184 5.23707,-3.01309c2.73949,-2.18773 5.50904,-4.32058 8.3147,-6.42274c2.93594,-2.19978 5.02176,-4.44252 6.9973,-7.55175c1.69089,-2.66122 3.35796,-6.49662 3.35925,-9.58071c0.00165,-3.92607 0.06909,-6.61752 2.46025,-9.89273c-0.79964,-1.74486 -1.16417,-3.79222 -2.09547,-5.46405c-0.93977,-1.68704 -1.9635,-2.02341 -1.69011,-4.12526c2.94137,-2.08208 5.63496,-4.03954 8.31031,-6.47534c2.31125,-2.1043 4.97906,-5.4695 5.26635,-8.34237c0.34793,-3.47928 0.24752,-6.96731 0.24752,-10.46272c0,-0.90138 0,-1.80275 0,-2.70413c-1.29721,-0.8964 -1.99795,-1.94394 -1.98098,-3.66883c1.5355,-1.86189 1.97997,-2.02261 1.98095,-4.53556l0.00004,-0.09157c0,0 0.0001,-0.25 0.2501,-0.2499z" fill="#000000" stroke="none" stroke-width="0.5"/><g stroke="#000000" stroke-width="0"><path d="M185.52965,306.47829v-180h90v180z" fill="url(#color-14)"/><path d="M193.70738,262.47829v-180h90v180z" fill="url(#color-15)"/></g><path d="M413.27989,202.40827c0.2482,0.02989 0.21832,0.27809 0.21832,0.27809l-0.01457,0.12101c-0.14675,1.21876 -2.56651,3.86664 -4.16451,4.58671c2.07304,-0.024 4.14608,-0.04798 6.21912,-0.07198c1.85599,-0.02148 3.6789,-0.54671 5.4692,-1.21085c0.0106,-0.02641 0.02211,-0.05144 0.03456,-0.075c0.81232,-1.53638 4.90236,-3.19324 6.39249,-4.15225c1.63305,-1.01537 5.13643,-0.46906 7.05187,-0.47511l0.0009,-0.00001v-0.00182l0.49999,0.00024h0.00001c0.13801,0.00007 0.24989,0.11197 0.24989,0.25c0,0.13781 -0.1115,0.24957 -0.24921,0.25h-0.00007c-0.00001,0 -0.00002,0 -0.00002,0l-0.4999,0.00158c-0.06525,0.0002 -0.13322,-0.00041 -0.20368,-0.00174c-0.62366,0.22111 -1.60392,0.31409 -2.11748,0.50386c-2.18869,0.80875 -4.37738,1.61751 -6.56607,2.42627c-1.37768,0.50907 -2.7721,1.11649 -4.18636,1.65013c-0.12721,0.67685 0.16269,2.10453 0.17721,2.65813c0.0437,1.6661 0.0874,3.33218 0.13109,4.99828c0.00305,0.11631 -0.07316,1.29177 -0.03842,1.32477c0.29748,0.28253 3.27551,-0.15603 3.82024,-0.16982c3.78251,-0.09571 5.92976,-2.19926 8.98549,-4.35924c2.85807,-2.02026 5.71614,-4.04051 8.57421,-6.06078c0.43928,-0.31051 1.72886,-0.89928 1.96368,-1.35367c0.82168,-1.58993 -0.03704,-6.0351 -0.03979,-7.88484c-0.00397,-2.67226 -4.32631,-6.15202 -6.28661,-7.80173c-0.9886,-0.83196 -4.05234,-2.78861 -3.22514,-4.4947c0.41611,-0.85823 3.78442,-1.77122 4.67971,-2.17516c0.89284,-0.40285 1.95709,-0.74642 2.90999,-1.1876c-0.01106,-0.7243 -0.02213,-1.44861 -0.03319,-2.17291c-0.0148,-0.96884 -0.41739,-2.11042 0.70982,-2.27192c1.33428,-0.04942 2.67165,-0.12958 4.00685,-0.12972l0.5,-0.00001h0.00001c0.13807,0 0.25,0.11193 0.25,0.25c0,0.06903 -0.02798,0.13152 -0.07321,0.17676v0l-0.35354,0.35358l-0.01603,-0.01603c-1.23771,1.6721 -2.77644,2.86276 -4.49003,3.85114c0.02942,1.92587 0.05885,3.85175 0.08827,5.77763c0.01065,0.69685 0.31831,3.62363 1.68607,3.3101c0.42512,-0.09745 0.29486,-0.82271 0.48507,-1.21518c0.65778,-1.35727 1.29177,-2.65575 1.73917,-4.09733c1.03742,-3.34271 2.07484,-6.68544 3.11226,-10.02815c0.32666,-1.05255 0.80876,-2.17384 1.11136,-3.27865c-0.00008,-0.68663 0.02731,-1.39003 0.06323,-2.08058c-0.06459,-0.51068 -0.12918,-1.02135 -0.19377,-1.53203c-0.47646,-3.76717 -0.32555,-6.71473 0.34172,-10.45011c0.61548,-3.44546 1.23097,-6.89092 1.84646,-10.33638c0.22695,-1.2705 0.45392,-2.54099 0.68087,-3.81149c-2.55863,-0.57263 -5.02749,-1.27679 -7.57088,-2.12444c-3.41712,-1.13885 -6.65562,-1.36563 -10.23909,-1.65176c-0.21168,-0.01691 -0.42284,-0.03335 -0.63348,-0.04955c-0.74653,0.53878 -1.52843,1.05891 -2.36419,1.5664c-3.03906,1.84537 -5.90144,3.56538 -8.5479,5.94616c-2.60204,2.34081 -5.20407,4.68162 -7.80611,7.02244c-2.44339,2.19809 -6.79663,2.17618 -9.67466,3.90205c-3.00166,1.80001 -6.00332,3.60002 -9.00498,5.40002c-3.00166,1.80001 -6.00333,3.60001 -9.00499,5.40002c-3.0012,1.79973 -5.99348,3.61045 -8.96915,5.4521c-2.97612,1.84193 -5.95224,3.68386 -8.92836,5.52579c-2.84594,1.76137 -5.90073,4.30865 -9.0854,5.33053c-3.33264,1.06935 -6.66528,2.13871 -9.99792,3.20806c-3.3338,1.06973 -6.64836,2.29541 -10.07609,3.01398c-3.42554,0.71811 -6.85108,1.43621 -10.27662,2.15432c-3.42554,0.71811 -6.85108,1.43621 -10.27662,2.15432c-3.41977,0.71689 -6.80085,1.63913 -10.19089,2.48536c-3.3958,0.84767 -6.7916,1.69534 -10.1874,2.54301c-3.3958,0.84767 -6.7916,1.69534 -10.1874,2.54301c-3.49293,0.87192 -6.87908,0.75005 -10.47015,0.76478c-3.50025,0.01436 -7.00063,0.03869 -10.50091,0.03909c-3.46738,0.00039 -7.09547,0.30723 -10.52068,-0.2378c-1.37406,-0.21865 -3.21909,-0.19271 -4.50041,-0.72306c-1.70193,-0.70444 -3.41279,-2.46458 -4.90958,-3.54922c-2.84482,-2.06146 -5.77963,-3.87851 -8.78732,-5.69267c-3.28134,-1.97922 -5.42516,-3.90775 -7.90521,-6.82498c-2.26973,-2.66984 -4.54091,-5.33846 -6.80895,-8.00973c-1.98826,-2.88557 -3.97313,-5.77348 -5.95957,-8.66031c-1.98543,-2.88538 -4.05116,-5.72778 -5.85849,-8.72833c-1.80587,-2.99814 -3.61172,-5.99628 -5.41759,-8.99443c-1.8192,-3.02028 -3.47673,-6.06309 -5.06211,-9.21223c-1.58569,-3.14977 -3.31885,-6.19893 -4.32851,-9.5821c-1.0009,-3.35383 -2.00182,-6.70766 -3.00272,-10.06149c-1.00088,-3.35372 -2.00446,-6.70661 -3.01009,-10.05891c-0.88334,-2.94464 -1.11771,-7.50417 -2.65172,-10.06709c-0.7922,-1.34654 -2.07373,-2.8779 -2.55754,-4.35863c-0.21006,-0.64292 0.1887,-1.8145 -0.51889,-2.02285l-0.45831,-0.18483c-0.09459,-0.03563 -0.16189,-0.12698 -0.16189,-0.23404c0,-0.1372 0.11052,-0.24859 0.2474,-0.24998l0.49959,-0.00595l0.00037,0.03124c2.95029,-0.5944 6.56412,-0.06918 9.50224,-0.071c1.82948,0.03451 3.03794,2.29346 4.70432,2.83476c0.58017,0.18846 1.30736,0.23132 2.06168,0.22213c-0.08418,-0.27396 -0.13027,-0.54384 -0.13027,-0.80744c0,0 0,-0.25 0.25,-0.25c0.25,0 0.25,0.25 0.25,0.25c0,0.25581 0.05195,0.52163 0.14608,0.79425c0.83673,-0.03079 1.6734,-0.09892 2.35034,-0.07979c1.11963,0.03165 2.24029,0.04631 3.36135,0.05169c-0.17549,-0.19828 -0.31049,-0.4147 -0.34678,-0.67095l-0.00852,-0.06016c0,0 -0.03505,-0.24753 0.21248,-0.28258c0.24753,-0.03505 0.28259,0.21247 0.28259,0.21247l0.00852,0.06016c0.03232,0.22819 0.11611,0.47783 0.2419,0.74256c2.2473,0.00669 4.49598,-0.02029 6.74117,-0.01882c3.43893,0.00226 6.95029,-0.88417 10.34435,-1.43335c3.45506,-0.55904 6.91013,-1.11809 10.36519,-1.67713c3.45506,-0.55904 6.91013,-1.11809 10.3652,-1.67714c3.45506,-0.55904 6.91013,-1.11809 10.36519,-1.67713c3.50471,-0.56708 6.5737,-1.95091 9.85765,-3.28272c3.24343,-1.31538 6.48685,-2.63074 9.73027,-3.94612c3.25529,-1.32018 6.42519,-2.68784 9.56817,-4.25766c3.13116,-1.56392 6.26232,-3.12785 9.39348,-4.69177c3.09309,-1.54304 6.00468,-3.6341 8.95194,-5.44231c3.1385,-1.92554 5.98856,-3.31658 9.48309,-4.48147c3.32466,-1.10826 6.64864,-2.21855 9.97409,-3.32444c3.42444,-0.74482 6.84988,-1.4851 10.27486,-2.22747c3.42289,-0.74191 6.7948,-1.61591 10.17903,-2.51698c3.36102,-0.89489 6.81615,-1.63509 10.08643,-2.82008c2.35045,-0.85169 4.7009,-1.70338 7.05136,-2.55507c0.67282,-0.24379 2.18097,-0.4646 2.33918,-1.16728c0.0477,-0.15969 0.0954,-0.31939 0.1431,-0.47908l0.04875,-0.1632c0,0 0.07155,-0.23954 0.31109,-0.16799c0.23954,0.07155 0.16799,0.31109 0.16799,0.31109c-0.0477,0.15969 -0.14414,0.48259 -0.19185,0.64229c-0.34281,0.98844 -1.70159,1.15136 -2.64793,1.49427c-2.35045,0.85169 -4.7009,1.70339 -7.05136,2.55508c-3.28413,1.19002 -6.75288,1.93449 -10.12813,2.83316c-3.39174,0.90306 -6.77127,1.7789 -10.20176,2.52246c-3.41616,0.74046 -6.83185,1.48314 -10.24856,2.22102c-3.31527,1.10791 -6.63209,2.21116 -9.94818,3.31658c-3.46208,1.15407 -6.2701,2.52548 -9.37974,4.43331c-2.96055,1.81637 -5.88436,3.91046 -8.99,5.46344c-3.13116,1.56392 -6.26231,3.12784 -9.39347,4.69176c-3.15449,1.57558 -6.33651,2.9487 -9.60368,4.2737c-3.24343,1.31538 -6.48685,2.63074 -9.73027,3.94612c-3.31899,1.34602 -6.42241,2.73964 -9.9657,3.31296c-3.45506,0.55904 -6.91013,1.11808 -10.36519,1.67713c-3.45506,0.55904 -6.91013,1.11809 -10.36519,1.67714c-3.45506,0.55904 -6.91013,1.11809 -10.36519,1.67713c-3.42138,0.5536 -6.95771,1.44204 -10.42454,1.43977c-2.15339,-0.00141 -4.30996,0.02326 -6.46546,0.01942c0.09051,0.14643 0.19085,0.29591 0.2997,0.44756c-0.05296,-0.05885 -0.10629,-0.1172 -0.16004,-0.17499c-0.08644,-0.09294 -0.18248,-0.18304 -0.28126,-0.27286c-1.30054,-0.00309 -2.60067,-0.01699 -3.89944,-0.05371c-0.62482,-0.01766 -1.37067,0.03317 -2.12998,0.06414c0.97835,1.95173 3.73613,4.14409 4.95038,5.48615c2.3482,2.59538 4.69639,5.19075 7.04459,7.78612c2.34383,2.59054 4.63341,5.24711 7.06351,7.75682c2.43467,2.51443 4.86934,5.02886 7.30402,7.5433c2.43467,2.51443 4.86935,5.02886 7.30402,7.54329c2.43467,2.51443 4.86935,5.02886 7.30402,7.5433c2.43467,2.51443 4.86934,5.02887 7.30401,7.5433c2.32828,2.40455 5.87807,3.87772 8.76996,5.55915c3.02573,1.75923 6.05147,3.51847 9.07721,5.27771c3.01394,1.75238 6.03935,3.48659 9.04077,5.2603c3.41949,0.67946 6.83052,1.40436 10.24512,2.10807c3.28183,0.67634 6.90633,1.93265 10.25114,2.02877c3.49836,0.10734 6.9967,0.21468 10.49506,0.32202c3.49836,0.10734 6.99671,0.21467 10.49507,0.32201c3.49836,0.10734 6.99671,0.21468 10.49506,0.32202c3.43919,0.10553 6.87356,-1.05911 10.22282,-1.82327c3.41231,-0.77855 6.82462,-1.55709 10.23693,-2.33563c3.41438,-0.77901 6.81268,-1.51114 10.15247,-2.56808c3.33688,-1.05603 6.67378,-2.11205 10.01066,-3.16808c3.30694,-1.04655 6.76141,-1.90788 9.98081,-3.19665c3.24977,-1.29961 6.49954,-2.59924 9.74931,-3.89885c3.24489,-1.29767 6.48866,-2.5982 9.73488,-3.89255c3.05054,-1.69575 6.06848,-3.50543 9.18724,-5.07163c3.07686,-1.54476 6.44104,-2.8478 9.07573,-5.07136c1.43552,-1.21151 2.7922,-2.41161 4.22666,-3.49799c-3.10438,-0.92977 -6.20223,-1.84748 -9.34667,-2.63903c-3.34565,-0.8422 -6.75266,-1.98795 -10.18456,-2.34682c-3.46634,-0.36247 -6.94365,-0.8721 -10.42963,-0.89687c-3.4994,-0.02488 -6.99867,-0.02389 -10.49815,-0.02391c-1.78903,-0.00001 -3.1684,-0.74828 -4.89107,-0.99971c-1.73605,-0.25338 -3.70656,-0.00029 -5.4639,-0.00029c-3.5,0 -7,0 -10.5,0c-3.61127,0 -6.80397,0.36538 -10.34441,1.07278c-3.45169,0.68966 -6.7677,1.58458 -10.14047,2.58966c-3.39706,1.01233 -6.75317,1.73997 -10.2374,2.38724c-3.44112,0.63926 -6.88225,1.27852 -10.32337,1.91778c-3.44112,0.63926 -6.88225,1.27853 -10.32337,1.91779c-3.31441,0.6089 -7.1626,0.10344 -10.53695,0.10747c-3.5001,0.00418 -7.00019,0.00718 -10.50029,0.0072c-3.5,0.00002 -7,0.00006 -10.5,0.00008c-3.24379,0.00002 -7.0152,-1.97461 -10.09862,-2.99363c-3.37965,-1.11692 -6.35909,-2.83604 -9.48562,-4.52737c-3.10976,-1.68226 -6.05314,-3.47861 -8.99703,-5.43633c-2.9144,-1.9381 -5.8288,-3.87621 -8.74321,-5.81431c-2.91972,-1.94164 -5.85649,-3.79273 -8.88236,-5.56459c-3.02072,-1.76884 -6.08549,-3.47984 -9.04031,-5.35676c-2.95436,-1.87663 -5.90873,-3.75325 -8.86309,-5.62989c-1.63529,-1.03875 -2.73491,-2.5144 -3.83956,-3.91086c1.31077,1.40837 3.00531,2.7886 4.10765,3.4888c2.95436,1.87663 5.90873,3.75326 8.86309,5.62989c2.94973,1.87368 6.00937,3.58156 9.02488,5.34735c3.03402,1.77663 5.97898,3.63283 8.90658,5.57971c2.9144,1.9381 5.82881,3.87621 8.74321,5.81431c2.93151,1.94949 5.86137,3.73772 8.95805,5.4129c3.10048,1.67723 6.05368,3.38498 9.40462,4.4924c3.02564,0.99991 6.76141,2.96839 9.94172,2.96837c3.5,-0.00002 7,-0.00006 10.5,-0.00008c3.49991,-0.00002 6.9998,-0.00302 10.4997,-0.0072c3.33459,-0.00398 7.17413,0.51618 10.44622,-0.09906c3.44112,-0.63926 6.88225,-1.27852 10.32337,-1.91778c3.44112,-0.63926 6.88225,-1.27852 10.32338,-1.91778c3.46727,-0.64412 6.80549,-1.36746 10.18592,-2.37483c3.38727,-1.0094 6.71871,-1.90815 10.18531,-2.60079c3.56991,-0.71328 6.80083,-1.08247 10.44238,-1.08247c3.5,0 7,0 10.5,0c1.78269,0 3.7743,-0.2516 5.53611,0.00554c1.69885,0.24794 3.06062,0.99446 4.81887,0.99447c3.50067,0.00001 7.00112,-0.00096 10.5017,0.02392c3.50237,0.02489 6.9955,0.53541 10.47808,0.89957c3.45623,0.36141 6.88538,1.5111 10.25462,2.35923c3.27222,0.82371 6.49416,1.78363 9.72531,2.75196c1.17188,-0.85299 2.40599,-1.62449 3.78425,-2.26102c3.1775,-1.46748 6.355,-2.93495 9.5325,-4.40243c2.62363,-1.20942 5.52931,-2.00842 8.32636,-2.88216c0.4143,-0.41196 0.82861,-0.82391 1.24291,-1.23587c1.17611,-1.16573 2.76885,-2.46348 4.4199,-3.60083c-1.053,-1.53903 -2.10601,-3.07806 -3.15901,-4.61709c-1.98307,-2.89839 -3.61174,-6.00248 -5.3229,-9.068c-1.6957,-3.0378 -3.87713,-5.79449 -5.89947,-8.6239c-2.32356,-2.61159 -4.64367,-5.22626 -6.96537,-7.83951c-2.32219,-2.61379 -4.35841,-5.50154 -6.48687,-8.27515c-2.1517,-2.80389 -4.31705,-5.51197 -6.07824,-8.57931c-1.80286,-3.1399 -3.70872,-5.69997 -6.11321,-8.40572c-2.32977,-2.62168 -4.63677,-5.24653 -6.86401,-7.95607c-0.83477,-1.01554 -1.84131,-2.01093 -2.55658,-3.11265c-0.22385,-0.34479 -0.49537,-1.51405 -0.81617,-1.71232c-0.45799,-0.28305 -2.28549,0.03733 -2.86856,0.03733c0,0 -0.25,0 -0.25,-0.25c0,-0.25 0.25,-0.25 0.25,-0.25c0.70724,0 2.53757,-0.3297 3.13144,0.03733c0.45261,0.27972 0.68275,1.41883 0.97267,1.86539c0.70465,1.08537 1.70088,2.06672 2.52346,3.06742c2.22318,2.70459 4.52597,5.32455 6.8515,7.94143c2.42512,2.72897 4.35462,5.32182 6.17307,8.48888c1.74996,3.04777 3.90318,5.73768 6.0413,8.52388c2.12112,2.76405 4.14981,5.64269 6.46399,8.24746c2.32752,2.61979 4.65655,5.23825 6.98231,7.85961c2.04186,2.84839 4.2366,5.63102 5.94534,8.69218c1.70374,3.05221 3.32455,6.14362 5.29897,9.02936c1.05336,1.53955 2.10672,3.07909 3.16008,4.61865c0.97788,-0.65373 1.96565,-1.24321 2.88985,-1.70847l-0.00966,-0.01355l0.40474,-0.28857c0.04135,-0.03027 0.09234,-0.04814 0.14751,-0.04814c0.13807,0 0.25,0.11193 0.25,0.25c0,0.00719 -0.0003,0.01431 -0.0009,0.02135c-0.0249,0.3324 -0.08696,1.16073 -0.11186,1.49313c-0.12245,1.63442 -0.68437,2.63918 -1.51116,3.30291c0.23684,0.34615 0.47368,0.69231 0.71051,1.03846c2.01549,2.94578 3.94229,5.63464 6.45047,8.17852c1.74517,1.77002 3.99764,3.40934 4.68714,5.82157c0.27924,0.97691 1.18434,2.4939 -0.02828,2.76721c-1.22793,0.11302 -2.53928,0.25433 -3.87121,0.35713c0.33826,0.90622 0.5205,1.94915 0.55582,3.2878c0.09244,3.50313 0.13388,7.00029 0.13724,10.50461c0.0034,3.55719 -0.16664,6.96209 -0.58633,10.49481c-0.06853,0.57691 -0.07843,3.90838 -0.51333,4.1643c-0.24226,0.14256 -1.33284,-0.54633 -1.57782,-0.67046c-0.11462,-0.05808 -0.22136,-0.11766 -0.32082,-0.17879c0.00002,0.03536 0.00004,0.0707 0.00006,0.10606c0.00198,3.56193 -0.05828,6.96605 -0.54526,10.49679c-0.48225,3.49641 -0.83961,7.03939 -1.47737,10.51054c-0.58115,0.34276 -3.70721,2.49399 -4.29425,2.18958c-0.24966,-0.12947 -0.28625,-1.40274 -0.32115,-1.67871c-0.18822,-1.48815 -0.37644,-2.97629 -0.56465,-4.46444c-0.43917,-3.47233 -0.87835,-6.94468 -1.31752,-10.41701c-0.09337,-0.73829 -0.18676,-1.47658 -0.28013,-2.21488c-0.0795,-0.16162 -0.15944,-0.32089 -0.24,-0.4774c-0.39445,-0.78871 -0.57371,-1.83442 -0.63763,-2.98102c-0.19099,0.74176 -0.41499,1.49648 -0.66305,2.29576c-1.03742,3.34271 -2.07484,6.68544 -3.11226,10.02815c-0.4549,1.46573 -1.09814,2.78757 -1.76675,4.16719c-0.12491,0.25774 -0.54681,1.4211 -0.82329,1.48448c-1.76686,0.40502 -2.28312,-2.83302 -2.29773,-3.78982c-0.02805,-1.83576 -0.05608,-3.67151 -0.08413,-5.50727c-0.868,0.47346 -1.77626,0.90351 -2.70924,1.32447c-0.74205,0.3348 -4.12826,1.30399 -4.43543,1.93754c-0.65343,1.34769 2.33224,3.25027 3.09718,3.89401c2.089,1.75801 6.4604,5.31442 6.46467,8.18354c0.00291,1.95961 0.86848,6.40364 -0.01602,8.11514c-0.29026,0.56165 -1.59767,1.16372 -2.11927,1.53242c-2.85807,2.02026 -5.71613,4.04051 -8.5742,6.06078c-3.13686,2.21733 -5.36032,4.35207 -9.26145,4.45078c-0.72982,0.01846 -3.66177,0.52207 -4.17721,0.03253c-0.21278,-0.20209 -0.10916,-1.37246 -0.11707,-1.6742c-0.0437,-1.6661 -0.0874,-3.33218 -0.1311,-4.99828c-0.01458,-0.55589 -0.22948,-1.68554 -0.18742,-2.4826c-1.75394,0.63461 -3.53876,1.12496 -5.36031,1.14604c-2.16652,0.02507 -4.33305,0.05015 -6.49957,0.07522l-0.49948,0.00578c-0.00113,0.00001 -0.00225,0.00002 -0.00338,0.00002c-0.13807,0 -0.25,-0.11193 -0.25,-0.25c0,-0.07699 0.03481,-0.14585 0.08954,-0.19171l0.37987,-0.32245l0.04126,0.0486c1.44398,-1.40688 3.96298,-2.59649 4.18495,-4.43994l0.01458,-0.12101c0,0 0.02988,-0.24821 0.27809,-0.21832zM454.72583,141.16914c0.04982,-0.2789 0.14447,-1.5262 0.39578,-1.6551c0.56687,-0.29077 3.37659,1.50552 3.93242,1.81241c0.03404,0.40718 0.06307,0.81524 0.08795,1.22398c1.2751,0.08175 2.60698,0.04414 3.92959,-0.044c-0.61456,-1.25392 -1.59941,-2.27426 -2.99834,-3.67319c0,0 -0.17678,-0.17677 0,-0.35355c0.17678,-0.17677 0.35355,0 0.35355,0c1.49265,1.49265 2.5382,2.60086 3.17473,3.98883c1.38736,-0.10564 2.75469,-0.25698 4.02514,-0.37392c0.21424,0.04216 -0.40248,-2.84541 -0.7944,-3.51682c-0.89258,-1.5291 -2.92388,-2.95444 -4.17467,-4.22303c-2.52863,-2.56463 -4.47551,-5.27797 -6.50707,-8.24722c-0.23542,-0.34408 -0.47084,-0.68816 -0.70626,-1.03225c-1.56889,0.97657 -3.85035,1.06571 -5.93666,1.76769c-0.50203,0.16892 -1.01056,0.33199 -1.52308,0.49228c-2.03904,2.0275 -4.07808,4.055 -6.11712,6.0825c-1.72609,1.71632 -3.35361,3.2127 -5.16895,4.58267c0.0196,0.00156 0.0392,0.00312 0.05881,0.00468c3.62245,0.28925 6.90149,0.52406 10.35739,1.67583c2.52114,0.84024 4.96621,1.53812 7.50079,2.10616c0.03679,-0.20598 0.0736,-0.41197 0.11039,-0.61795zM459.35716,151.95282c0.01812,0.72316 0.02978,1.44161 0.03447,2.15719c0.36722,-0.88077 1.0168,-1.51789 2.01062,-0.6392c0.21499,0.19009 0.08508,1.39449 0.08524,1.68715c0.00093,1.66666 0.00185,3.33334 0.00278,5c0.00182,3.26193 0.00363,6.52387 0.00545,9.78581c0.15422,0.1199 0.33496,0.23339 0.54716,0.34091c0.38495,0.19506 0.72631,0.90442 1.09823,0.68555c0.07036,-0.0414 0.22389,-3.40077 0.27041,-3.79237c0.41742,-3.51361 0.58623,-6.89737 0.58283,-10.43535c-0.00335,-3.50009 -0.04474,-6.993 -0.13706,-10.4919c-0.03564,-1.35044 -0.22225,-2.37657 -0.57307,-3.26323c-1.38117,0.09482 -2.77564,0.1393 -4.11401,0.05967c0.15648,2.9597 0.11294,5.95145 0.18697,8.90576zM452.38553,168.64222c0.26445,2.09084 0.52889,4.18168 0.79333,6.27252c0.97505,1.89424 1.95011,3.78848 2.92516,5.68272c0.22823,0.44339 0.67451,1.06454 0.92458,1.65324c0.09692,-3.1167 0.4981,-6.2569 0.74389,-9.36141c0.27623,-3.48908 0.55246,-6.97816 0.82869,-10.46725c0.27846,-3.51725 0.34452,-6.92979 0.25614,-10.45669c-0.07372,-2.94202 -0.3749,-5.99694 -0.29314,-8.96344c-0.49002,-0.04421 -0.97085,-0.10707 -1.43894,-0.19235c-0.71251,-0.13137 -1.41447,-0.27205 -2.1091,-0.42228c-0.22579,1.26396 -0.45158,2.52792 -0.67737,3.79188c-0.61548,3.44546 -1.23097,6.89092 -1.84646,10.33637c-0.56806,3.17994 -0.75761,5.7563 -0.49894,8.78769c0.0058,-0.11767 0.01416,-0.23503 0.02559,-0.352c0.00113,-0.13815 0.00061,-0.27205 -0.00186,-0.40121l-0.00009,-0.00502l-0.0102,-0.00001l0.00066,-0.49996c0,-0.00001 0,-0.00003 0,-0.00004c0.00018,-0.13792 0.11204,-0.24967 0.25,-0.24967c0.13667,0 0.24773,0.10967 0.24997,0.2458l0.00957,0.49931c0.00185,0.09662 0.00242,0.1967 0.00187,0.29995c0.10525,0.53484 -0.01409,1.22794 -0.01473,1.70526c-0.00098,0.73556 -0.04252,1.42732 -0.11861,2.09659zM458.63439,141.59832c-0.42921,-0.15507 -3.08195,-1.74333 -3.28458,-1.63939c-0.387,0.19851 -0.05529,0.86998 -0.13178,1.29814c-0.03797,0.21257 -0.07595,0.42513 -0.11392,0.6377c0.69534,0.15056 1.39814,0.29151 2.11178,0.42308c0.44386,0.0829 0.90019,0.14453 1.36565,0.1884c0.01299,-0.30377 0.03038,-0.60648 0.05284,-0.90793zM453.38536,176.5474c0.02886,0.22819 0.05773,0.45639 0.08659,0.68458c0.43917,3.47233 0.87835,6.94468 1.31752,10.41702c0.18822,1.48815 0.37643,2.97629 0.56465,4.46443c0.05432,0.4295 -0.32905,1.09829 0.05527,1.29757c0.19462,0.10092 3.21061,-1.83537 3.6542,-2.03205c0.22731,-3.42987 0.92217,-6.88653 1.39194,-10.29251c0.48389,-3.5083 0.54254,-6.88859 0.54057,-10.42819c-0.00009,-0.15981 -0.00018,-0.31961 -0.00027,-0.47942c-1.00412,-0.92088 -0.85384,-2.14836 -1.03597,-3.80068c-0.22775,-2.06617 -0.51049,-4.13659 -0.70731,-6.21084c-0.04128,0.76132 -0.09206,1.5253 -0.15294,2.29418c-0.27623,3.48908 -0.55246,6.97817 -0.82869,10.46725c-0.26136,3.30128 -0.70155,6.64424 -0.75761,9.95485l-0.00858,0.49939c-0.00201,0.13634 -0.11316,0.24625 -0.24998,0.24625c-0.09872,0 -0.18407,-0.05722 -0.22471,-0.14031l-0.2264,-0.43984l0.02508,-0.01291c-1.41089,-1.83708 -2.43285,-4.26843 -3.44337,-6.48879zM460.99541,169.40914c-0.00171,-3.08363 -0.00344,-6.16725 -0.00516,-9.25088c-0.00093,-1.66666 -0.00185,-3.33334 -0.00278,-5c-0.00005,-0.09357 0.08632,-1.31041 0.08356,-1.31285c-1.37462,-1.21538 -1.56047,1.46806 -1.55674,2.05498c0.02221,3.48469 0.56085,6.96015 0.94255,10.42299c0.14382,1.30478 0.02974,2.30665 0.53855,3.08576zM443.56235,179.73548c0.23083,-0.12274 0.45114,-0.25366 0.65621,-0.39535c1.14951,-0.7943 2.11738,-2.77646 3.40467,-3.43341c-1.28704,0.00474 -2.57603,0.08152 -3.86205,0.12915c-0.52362,-0.09467 -0.22969,1.67921 -0.22075,2.26456c0.00731,0.47835 0.01461,0.9567 0.02193,1.43505zM421.8534,205.78758c1.20623,-0.47362 2.39752,-0.98457 3.57403,-1.41931c1.72394,-0.63702 4.17926,-1.97976 6.44716,-2.58973c-1.58574,-0.07717 -3.2914,-0.06474 -4.16949,0.52591c-1.23284,0.79342 -4.59264,2.19781 -5.8517,3.48312zM426.31571,137.03544c-0.04937,-0.0148 -0.09874,-0.02959 -0.14811,-0.04439c-1.53721,1.1373 -2.97179,2.41411 -4.498,3.70215c-2.6669,2.25073 -6.06007,3.57279 -9.17388,5.1361c-3.12282,1.56741 -6.13953,3.38473 -9.19707,5.07645c-3.25338,1.30469 -6.5091,2.60359 -9.76373,3.90515c-3.24977,1.29961 -6.49953,2.59923 -9.7493,3.89884c-3.23239,1.2914 -6.69629,2.15864 -10.01561,3.2091c-3.33688,1.05603 -6.67377,2.11205 -10.01066,3.16808c-3.35293,1.0611 -6.76436,1.7968 -10.19211,2.57887c-3.41231,0.77855 -6.82462,1.55708 -10.23693,2.33563c-3.3932,0.77418 -6.86413,1.9425 -10.34938,1.83556c-3.49836,-0.10734 -6.99671,-0.21468 -10.49506,-0.32202c-3.49836,-0.10734 -6.9967,-0.21468 -10.49506,-0.32202c-3.49836,-0.10734 -6.99671,-0.21467 -10.49507,-0.32201c-3.38173,-0.10979 -7.01892,-1.35506 -10.33673,-2.03883c-3.44094,-0.70914 -6.88605,-1.40081 -10.32265,-2.13071c-3.0478,-1.74753 -6.07645,-3.52922 -9.11365,-5.29512c-3.02573,-1.75923 -6.05147,-3.51848 -9.07721,-5.27771c-2.93488,-1.70641 -6.51416,-3.20247 -8.87784,-5.64359c-2.43467,-2.51443 -4.86935,-5.02886 -7.30402,-7.54329c-2.43467,-2.51443 -4.86935,-5.02887 -7.30402,-7.5433c-2.43467,-2.51443 -4.86934,-5.02886 -7.30402,-7.54329c-2.43467,-2.51443 -4.86935,-5.02886 -7.30402,-7.54329c-2.43403,-2.51377 -4.72746,-5.17444 -7.07507,-7.76918c-2.3482,-2.59538 -4.69639,-5.19075 -7.04459,-7.78612c-1.32608,-1.46566 -4.1646,-3.71335 -5.11469,-5.80424c-0.87042,0.01924 -1.72538,-0.01477 -2.40312,-0.23492c-1.52288,-0.49469 -2.92042,-2.85409 -4.54954,-2.8103c-2.33206,0.00145 -4.66526,-0.01779 -6.99714,0.00997c-0.51673,0.00616 -1.32897,0.14128 -1.98503,0.08007c0.41651,0.5119 0.09568,1.22403 0.34663,1.99208c0.47078,1.44084 1.74114,2.94804 2.51322,4.26038c1.54474,2.66454 1.792,7.15119 2.69968,10.17696c1.0057,3.35253 2.00935,6.70565 3.0103,10.0596c1.0009,3.35383 2.00182,6.70767 3.00272,10.0615c1.00094,3.35394 2.7238,6.37731 4.29599,9.50025c1.57978,3.13802 3.23104,6.16947 5.04381,9.17908c1.80587,2.99814 3.61173,5.99629 5.4176,8.99443c1.80209,2.99186 3.86239,5.82585 5.84208,8.70288c1.98163,2.87984 3.9649,5.75855 5.9446,8.63971c2.26601,2.66187 4.52872,5.32654 6.79296,7.9899c2.45194,2.88417 4.53914,4.76438 7.78252,6.7207c3.01961,1.82135 5.96632,3.64627 8.82246,5.71594c3.23202,2.34205 5.24105,3.55417 9.19517,4.18337c3.39823,0.54074 7.00177,0.23198 10.44205,0.23159c3.49962,-0.00039 6.99934,-0.02473 10.49892,-0.03909c3.55059,-0.01457 6.89894,0.11184 10.3511,-0.7499c3.3958,-0.84767 6.7916,-1.69534 10.1874,-2.54301c3.3958,-0.84767 6.7916,-1.69534 10.1874,-2.54301c3.39619,-0.84777 6.78341,-1.77141 10.20939,-2.48961c3.42554,-0.71811 6.85108,-1.43621 10.27662,-2.15431c3.42554,-0.71811 6.85108,-1.43622 10.27662,-2.15432c3.41053,-0.71496 6.70878,-1.93633 10.02592,-3.00071c3.33264,-1.06935 6.66528,-2.1387 9.99792,-3.20805c3.1415,-1.00802 6.1667,-3.54151 8.97504,-5.27959c2.97612,-1.84193 5.95224,-3.68387 8.92836,-5.5258c2.97766,-1.84288 5.97194,-3.65482 8.97514,-5.45575c3.00166,-1.80001 6.00332,-3.60002 9.00498,-5.40002c3.00166,-1.80001 6.00333,-3.60002 9.00499,-5.40002c2.83038,-1.6973 7.20965,-1.69692 9.5974,-3.84496c2.60204,-2.34081 5.20407,-4.68162 7.80611,-7.02244c2.6698,-2.40177 5.55761,-4.14059 8.62279,-6.00182c0.64438,-0.39128 1.25584,-0.78978 1.8433,-1.19849c-3.05592,-0.23225 -6.01428,-0.46772 -8.98788,-1.35907zM212.32303,99.3723c0.37259,0.41405 0.72691,0.85318 1.0807,1.30043c-0.40697,-0.43727 -0.77694,-0.87725 -1.0807,-1.30043zM448.76074,126.56342c0.19664,-0.06404 0.39249,-0.12875 0.5874,-0.19433c2.04065,-0.68661 4.31632,-0.7064 5.82842,-1.68504c-0.39112,-0.57165 -0.78224,-1.14328 -1.17336,-1.71492c-1.69094,1.02898 -3.60056,1.95793 -4.69016,3.04512c-0.1841,0.18306 -0.3682,0.36612 -0.5523,0.54918zM456.8652,121.44646c0.02416,-0.32242 0.04831,-0.64485 0.07246,-0.96728c-0.53043,0.83665 -1.45727,1.55608 -2.50941,2.22571c0.38315,0.56001 0.76631,1.12001 1.14947,1.68001c0.70512,-0.60647 1.18052,-1.51067 1.28749,-2.93845zM441.51484,133.06321c1.81378,-1.80352 3.62756,-3.60703 5.44134,-5.41054c-2.49212,0.76183 -5.03789,1.5066 -7.35532,2.57897c-3.1775,1.46748 -6.35501,2.93496 -9.53251,4.40243c-1.22602,0.56622 -2.33604,1.24167 -3.38966,1.98701c3.05771,0.88347 6.10336,1.07979 9.26066,1.32045c1.98499,-1.44799 3.71909,-3.03244 5.57547,-4.87832z" fill="#040404" stroke="#000000" stroke-width="1.5"/><g stroke="#000000" stroke-width="0"><path d="M383.40437,66.43864c-19.88225,0 -36.5,-10.51224 -36.5,-16.69516c0,-6.18292 16.11775,-11.19516 36,-11.19516c19.88225,0 36,5.01224 36,11.19516c0,6.18292 -15.61775,16.69516 -35.5,16.69516z" fill="#181818"/><path d="M383.31521,69.45166c-16.33644,0 -29.99058,-8.63749 -29.99058,-13.71774c0,-5.08025 13.2433,-9.19861 29.57975,-9.19861c16.33644,0 29.57975,4.11836 29.57975,9.19861c0,5.08025 -12.83247,13.71774 -29.16892,13.71774z" fill="#404040"/></g><g stroke="#000000" stroke-width="0"><path d="M168.88809,106.47329l0.91273,-6.26103l33.29393,4.85359l-0.91273,6.26103z" fill="#2f2f2f"/><path d="M176.40515,107.56913l0.91273,-6.26103l33.29393,4.85359l-0.91273,6.26103z" fill="#454545"/></g><g stroke="#000000" stroke-width="0"><path d="M160.5166,112.09902l1.22095,-8.37523l44.53651,6.49254l-1.22094,8.37523z" fill="#454545"/><path d="M170.57201,113.5649l1.22094,-8.37523l44.53652,6.49253l-1.22095,8.37523z" fill="#5a5a5a"/></g><g stroke="#000000" stroke-width="0"><path d="M162.15485,100.86124l6.65054,-45.62036l44.53651,6.49253l-6.65054,45.62037z" fill="#454545"/><path d="M172.21025,102.32711l6.65054,-45.62037l44.53651,6.49254l-6.65054,45.62036z" fill="#5a5a5a"/></g><path d="M171.98803,111.5414l0.16775,-1.15075l40.81748,5.95038l-0.16775,1.15074z" fill="#000000" stroke="#000000" stroke-width="0"/><path d="M184.68644,110.73961l0.25657,-1.75996l16.17807,2.35844l-0.25656,1.75996z" fill="#000000" stroke="none" stroke-width="0"/><g stroke="#000000" stroke-width="0"><path d="M452.64671,147.24259l-0.60791,-4.17006l22.17489,-3.23266l0.60792,4.17006z" fill="#2f2f2f"/><path d="M447.64009,147.97246l-0.60791,-4.17006l22.1749,-3.23266l0.60791,4.17006z" fill="#454545"/></g><g stroke="#000000" stroke-width="0"><path d="M450.73446,152.08111l-0.81319,-5.57819l29.66285,-4.32425l0.81319,5.57819z" fill="#454545"/><path d="M444.03722,153.05744l-0.8132,-5.57819l29.66285,-4.32425l0.81319,5.57819z" fill="#5a5a5a"/></g><g stroke="#000000" stroke-width="0"><path d="M449.64333,144.59635l-4.42948,-30.38473l29.66284,-4.32425l4.42949,30.38473z" fill="#454545"/><path d="M442.94609,145.57269l-4.42949,-30.38473l29.66285,-4.32426l4.42949,30.38473z" fill="#5a5a5a"/></g><path d="M445.5711,151.34862l-0.11173,-0.76644l27.18584,-3.96316l0.11173,0.76644z" fill="#000000" stroke="#000000" stroke-width="0"/><path d="M453.52422,148.42225l-0.17088,-1.1722l10.77515,-1.5708l0.17088,1.17219z" fill="#000000" stroke="none" stroke-width="0"/><g stroke-width="0"><g stroke="#000000"><path d="M-2.61263,368.3714v-372.37237h725.22523v372.37237z" fill="url(#color-16)"/><path d="M-2.61262,368.3714v-372.37237h725.22523v372.37237z" fill="url(#color-17)"/></g><g stroke="none"><path d="M-24.94567,376.25324v-390.39039h164.3114v390.39039z" fill="url(#color-18)"/><path d="M583.02193,373.00999v-390.39039h164.3114v390.39039z" fill="url(#color-19)"/><path d="M-26.30555,110.48748v-127.62762h773.13267v127.62763z" fill="url(#color-20)"/><path d="M745.79934,249.75279v127.62762h-773.13267v-127.62762z" fill="url(#color-21)"/></g></g><path d="M-15.5,30v-60h751v60z" fill="#000000" stroke-opacity="0.50196" stroke="#0d0d0d" stroke-width="0"/><path d="M-15.5,390v-60h751v60z" fill="#000000" stroke-opacity="0.50196" stroke="#0d0d0d" stroke-width="0"/><path d="M340,353.5v-19h40v19z" fill="#000000" stroke="#484c5e" stroke-width="0"/><path d="M177.23164,98.39893l5.32009,-36.49392l36.49392,5.32009l-5.32009,36.49392z" fill="#101010" stroke="#000000" stroke-width="0"/><path d="M444.95832,142.17549l-3.54336,-24.3062l24.3062,-3.54337l3.54336,24.3062z" fill="#101010" stroke="#000000" stroke-width="0"/><path d="M160.13865,82.81202c0,-20.98682 17.01318,-38 38,-38c20.98682,0 38,17.01318 38,38c0,20.98682 -17.01318,38 -38,38c-20.98682,0 -38,-17.01318 -38,-38z" fill="url(#color-22)" stroke="#000000" stroke-width="0"/><path d="M425.33974,128.2507c0,-16.56854 13.43146,-30 30,-30c16.56854,0 30,13.43146 30,30c0,16.56854 -13.43146,30 -30,30c-16.56854,0 -30,-13.43146 -30,-30z" fill="url(#color-23)" stroke="#000000" stroke-width="0"/><g fill="#ffffff" stroke="none" stroke-width="0.5"><g><path d="M182.97217,78.75553c0,0 0,-0.14626 0.14626,-0.14626c0.00368,0 0.00727,0.00009 0.01076,0.00027c0.0095,-0.02144 0.01862,-0.04257 0.02732,-0.06338l-0.00264,-0.15405c0,0 0,-0.14626 0.14626,-0.14626c0.14626,0 0.14626,0.14626 0.14626,0.14626l-0.00264,0.20937c-0.00935,0.0242 -0.0201,0.05006 -0.03201,0.07733c0.05189,-0.02444 0.1171,-0.04744 0.19672,-0.06155c0.01872,-0.00648 0.03751,-0.00822 0.05374,-0.00784c0.00045,-0.00005 0.0009,-0.0001 0.00135,-0.00016h0.09085c0,0 0.08338,0 0.12423,0.06295c1.59089,0.51484 3.28057,0.85076 4.8963,1.30021c0.3387,0.09422 0.67772,0.18719 1.01698,0.27916c0.03578,-0.01508 0.08354,-0.01817 0.13752,0.02231c0.00932,0.00699 0.01734,0.01417 0.02421,0.02145c1.56931,0.42389 3.14381,0.82722 4.71782,1.23429c1.1335,0.29315 2.2621,0.60498 3.39031,0.91791c0.33115,0.09185 0.87307,0.05972 1.08351,0.41523c0.21645,0.36566 -0.37815,1.08284 -0.56423,1.35809c-1.04396,1.5436 -3.86253,0.17252 -5.4513,-0.29476c-1.45995,-0.43008 -2.96341,-0.70449 -4.43519,-1.09076c-0.01596,0.02544 -0.04333,0.04816 -0.08938,0.05967c-0.14189,0.03547 -0.17737,-0.10642 -0.17737,-0.10642c-0.00205,-0.00875 -0.00399,-0.01749 -0.00581,-0.02624c-0.36416,-0.09953 -0.72607,-0.20697 -1.08461,-0.32641c-1.64866,-0.56296 -4.72866,-0.29282 -4.72866,-2.51929c0.01417,-0.29179 0.21576,-0.67911 0.3902,-1.03268c-0.01036,-0.03648 -0.01935,-0.07905 -0.02678,-0.12847zM192.33021,83.38912c0,-0.13717 0.12866,-0.1457 0.14464,-0.14622c0.27678,-0.57952 0.49135,-0.96841 0.49135,-1.67087c0,0 0,-0.13872 0.1351,-0.14596c-1.07391,-0.27783 -2.14721,-0.55751 -3.2181,-0.84673l-0.02156,0.02874c-0.37689,0.5003 -1.18321,1.25928 -1.1753,1.92352c1.20604,0.32137 2.4347,0.56304 3.64443,0.87282c-0.00037,-0.00491 -0.00056,-0.01001 -0.00056,-0.01529z"/><path d="M194.89757,85.56964c0,0.14626 -0.14626,0.14626 -0.14626,0.14626h-0.16175c-1.05081,-0.00173 -1.58031,-1.02482 -2.47304,-0.9994c0,0 -0.14626,0 -0.14626,-0.14626c0,-0.14626 0.14626,-0.14626 0.14626,-0.14626c0.96889,0.02025 1.41221,1.0013 2.47304,0.9994h0.16175c0,0 0.14626,0 0.14626,0.14626z"/><path d="M199.79665,84.43219c0.13804,0.04833 0.08972,0.18637 0.08972,0.18637l-0.03274,0.09353c-0.63855,1.71909 -1.45613,1.75796 -3.04813,1.36286c0,0 -0.14189,-0.03547 -0.10642,-0.17737c0.03547,-0.14189 0.17737,-0.10642 0.17737,-0.10642c1.41113,0.35558 2.17476,0.45923 2.70109,-1.17573l0.03274,-0.09353c0,0 0.04833,-0.13804 0.18637,-0.08971z"/></g><g><path d="M213.54059,84.31831c-0.03897,0.37057 -0.07521,0.77945 -0.18704,1.04912c-0.91974,2.02762 -2.69902,0.9239 -3.94372,0.97747c-0.26945,0.00892 -0.53602,0.00598 -0.8007,-0.00478c-0.00473,0.00746 -0.00953,0.01488 -0.0144,0.02228c0,0 -0.08039,0.11934 -0.15285,0.04752c-0.02351,-0.02331 -0.03093,-0.05162 -0.03022,-0.07923c-1.06312,-0.05808 -2.09948,-0.22686 -3.17344,-0.24175c-1.16841,-0.01688 -3.46516,0.44683 -3.46842,-1.24962c-0.00054,-0.30249 -0.06931,-1.1212 0.21462,-1.39393c0.27605,-0.26516 0.59547,-0.08498 0.83672,-0.07641c0.8219,0.0292 1.64358,0.05951 2.46056,0.10819c1.13447,0.06761 2.26771,0.13876 3.40624,0.18974c0.00723,-0.00472 0.01512,-0.00902 0.02373,-0.01279c0.04986,-0.02184 0.0779,-0.00572 0.09364,0.01798c0.24627,0.01072 0.49281,0.02046 0.73966,0.02898c1.1776,0.04063 2.35369,0.20524 3.54304,0.17941c0.05109,-0.04595 0.10227,-0.02273 0.10227,-0.02273l0.05578,0.0253c0.00025,0.00017 0.00051,0.00035 0.00076,0.00052c0.01012,0.00417 0.02094,0.01098 0.02976,0.0221c0.04305,0.03502 0.07358,0.07413 0.09534,0.11084c0.00396,-0.02815 0.00804,-0.0547 0.01229,-0.07934l0.08487,-0.1914c0,0 0.06042,-0.1332 0.15021,-0.09247c0.08979,0.04073 0.02937,0.17393 0.02937,0.17393l-0.06526,0.13956c-0.00325,0.02137 -0.00638,0.04316 -0.0094,0.06533c0.00222,0.00081 0.00446,0.00173 0.00672,0.00275c0.08979,0.04073 0.02937,0.17393 0.02937,0.17393c-0.02498,0.04294 -0.04808,0.0792 -0.06951,0.10954zM205.94425,85.83631c0.87065,0.05477 1.72477,0.17684 2.59794,0.22002c0.27925,-0.60272 0.09776,-1.51845 0.07305,-2.07902l-0.00136,-0.03218c-0.77691,-0.03483 -1.55137,-0.07902 -2.32544,-0.12506c0.07995,0.04422 0.02265,0.17055 0.02265,0.17055c-0.29018,0.63972 -0.3191,1.05364 -0.38858,1.65848c0.00959,0.00493 0.08506,0.04852 0.02839,0.17344c-0.00218,0.00481 -0.00441,0.0094 -0.00666,0.01377z"/><path d="M203.62422,87.0009l0.0993,0.04505c0.65048,0.29714 1.32791,-0.47283 1.93109,-0.22146c0,0 0.08979,0.04073 0.02937,0.17393c-0.06042,0.1332 -0.15021,0.09247 -0.15021,0.09247c-0.53756,-0.27175 -1.28526,0.51251 -1.93109,0.22146l-0.0993,-0.04505c0,0 -0.08979,-0.04073 -0.02937,-0.17393c0.06042,-0.1332 0.15021,-0.09247 0.15021,-0.09247z"/><path d="M201.01359,84.82683l-0.01853,0.09429c-0.35226,1.63552 0.15936,1.75377 1.17257,1.82291c0,0 0.10176,0.00721 0.06493,0.14631c-0.03684,0.1391 -0.1386,0.13189 -0.1386,0.13189c-1.14057,-0.08351 -1.62644,-0.34659 -1.30832,-2.08997l0.01853,-0.09429c0,0 0.02735,-0.13917 0.13207,-0.14474c0.10471,-0.00557 0.07736,0.13361 0.07736,0.13361z"/></g></g><text transform="translate(20,350) scale(0.5,0.5)" font-size="40" xml:space="preserve" fill="#ad2dff" stroke="none" stroke-width="1" font-family="&quot;MS Gothic&quot;, Sans Serif" font-weight="normal" text-anchor="start"><tspan x="0" dy="0">?????? : You Dont Seem Starving Or Thirsty? Niether Injured or Dead?</tspan></text></g></g></svg>