<svg version="1.1" xmlns="http://www.w3.org/2000/svg" xmlns:xlink="http://www.w3.org/1999/xlink" width="97.74835" height="264.03451" viewBox="0,0,97.74835,264.03451"><g transform="translate(-311.12583,-47.98275)"><g data-paper-data="{&quot;isPaintingLayer&quot;:true}" fill-rule="nonzero" stroke-linecap="butt" stroke-linejoin="miter" stroke-miterlimit="10" stroke-dasharray="" stroke-dashoffset="0" style="mix-blend-mode: normal"><g><path d="M370.92768,100.55892c0,4.46332 10.43005,17.46493 7.67375,22.05787c-3.5903,5.98265 -32.13503,3.04873 -35.73406,3.04873c-6.36204,0 5.02132,-14.82945 5.02132,-25.1066c0,-10.27715 12.24638,-22.74362 18.60842,-22.74362c6.36204,0 4.43058,12.46648 4.43058,22.74362z" fill="#d0d0d0" stroke="none" stroke-width="0"/><path d="M349.50338,107.64784c-16.63919,0 -20.67602,-12.89799 -20.67602,-29.53717c0,-16.63919 8.76278,-30.12792 25.40197,-30.12792c16.63919,0 25.40197,12.89799 25.40197,29.53717c0,16.63919 -13.48873,30.12792 -30.12792,30.12792z" data-paper-data="{&quot;index&quot;:null}" fill="#ffffff" stroke="none" stroke-width="0"/><g data-paper-data="{&quot;index&quot;:null}" stroke="none" stroke-width="0"><path d="M316.61832,136.79205c1.87451,-11.23243 6.08805,-4.59368 9.4734,-4.59368c2.52435,0 7.25664,-5.47532 9.04655,1.24022c2.23827,8.39773 1.23985,30.49073 1.23985,44.53957c0,25.28348 -4.0003,31.13025 -9.68132,31.13025c-5.68102,0 -10.89148,-5.84678 -10.89148,-31.13025c0,-10.21692 -0.45814,-33.56919 0.813,-41.18611z" fill="#ffffff"/><path d="M337.37976,222.90931c-3.62402,1.11037 -11.20915,6.69415 -15.96778,3.12228c-4.43131,-3.32619 -6.16844,-15.692 -6.34721,-18.16293c-0.58312,-8.05986 4.34161,-15.16591 10.99968,-15.87179c1.36336,-0.14454 7.09197,-2.13239 11.95628,-0.03243c5.3024,2.28909 7.14964,17.9855 6.24057,19.24906c-4.61215,6.41067 -5.41908,-10.51149 -5.08552,-5.90108c0.21238,2.93548 2.2132,16.36851 -1.79602,17.5969z" fill="#3c5285"/></g><path d="M339.94527,297.27314c-3.255,-32.82995 -6.79114,-109.89957 5.89078,-117.01078c5.461,-3.06218 30.01661,-1.49725 35.47557,2.50886c8.27746,6.07449 5.23908,78.43591 7.38505,104.53684c2.05865,25.03878 -16.18932,21.29845 -20.03345,15.62246c-4.95148,-7.31103 -6.08167,-86.67062 -6.08167,-86.67062c0,0 2.35396,81.00656 -1.89235,87.04162c-4.54893,6.46514 -19.54955,6.01816 -20.74393,-6.0284z" data-paper-data="{&quot;index&quot;:null}" fill="#7a8db6" stroke="none" stroke-width="0"/><path d="M311.12583,138.88021c0,-11.09279 6.95274,-20.08528 15.52939,-20.08528c8.57665,0 7.7647,11.35546 7.7647,22.44825c0,11.09279 -23.29409,8.72982 -23.29409,-2.36297z" data-paper-data="{&quot;index&quot;:null}" fill="#6389db" stroke="none" stroke-width="0"/><path d="M322.78316,134.82204c0,-24.30626 15.76927,-22.15288 36.46244,-22.15288c20.69317,0 37.97123,-6.87933 37.97123,17.42693c0,6.53219 -10.40518,71.31529 -18.26747,74.83569c-11.57529,5.18292 -23.51065,4.53996 -36.64385,2.21161c-11.13938,-1.97487 -19.52235,-64.16432 -19.52235,-72.32135z" fill="#3c5285" stroke="none" stroke-width="0"/><path d="M343.85989,78.37614c0,7.17769 -1.30961,12.99636 -2.9251,12.99636c-1.61548,0 -2.92509,-5.81867 -2.92509,-12.99636c0,-7.17769 1.30961,-12.99636 2.92509,-12.99636c1.61548,0 2.9251,5.81867 2.9251,12.99636z" fill="#000000" stroke="none" stroke-width="0"/><path d="M357.15442,77.8153c0,7.17769 -1.30961,12.99636 -2.9251,12.99636c-1.61548,0 -2.9251,-5.81867 -2.9251,-12.99636c0,-7.17769 1.30961,-12.99636 2.9251,-12.99636c1.61548,0 2.9251,5.81867 2.9251,12.99636z" fill="#000000" stroke="none" stroke-width="0"/><path d="M328.75683,304.93484c0,-9.44321 7.65523,-17.09844 17.09844,-17.09844c3.60979,0 12.07758,8.2512 12.07758,8.2512c0,0 4.05172,-5.19479 5.33815,-2.81412c1.30492,2.41488 -0.31729,8.72385 -0.31729,11.66137c0,9.44321 -34.19689,9.44321 -34.19689,0z" fill="#111111" stroke="none" stroke-width="0"/><path d="M366.60181,304.93484c0,-2.93752 -1.62221,-9.24649 -0.31729,-11.66137c1.28643,-2.38066 5.33815,2.81412 5.33815,2.81412c0,0 8.46779,-8.2512 12.07758,-8.2512c9.44321,0 17.09844,7.65523 17.09844,17.09844c0,9.44321 -34.19689,9.44321 -34.19689,0z" data-paper-data="{&quot;index&quot;:null}" fill="#111111" stroke="none" stroke-width="0"/><path d="M322.78316,134.82203c0,-14.92521 5.94588,-19.87368 15.32661,-21.47018c5.89614,-1.00346 20.13583,33.8173 20.13583,33.8173c0,0 18.06367,-35.7565 24.57772,-35.29818c8.72801,0.61408 14.39351,4.30671 14.39351,18.22511c0,6.53219 -10.40518,71.31529 -18.26747,74.83569c-11.57529,5.18292 -23.51065,4.53996 -36.64385,2.21161c-11.13938,-1.97487 -19.52235,-64.16432 -19.52235,-72.32135z" fill="#92a9db" stroke="none" stroke-width="0"/><g stroke="none" stroke-width="0"><path d="M408.08676,177.97816c0,25.28348 -5.21046,31.13025 -10.89148,31.13025c-5.68102,0 -9.68132,-5.84678 -9.68132,-31.13025c0,-14.04884 -0.99842,-36.14184 1.23985,-44.53957c1.78991,-6.71554 6.5222,-1.24022 9.04655,-1.24022c3.38535,0 7.5989,-6.63875 9.4734,4.59368c1.27114,7.61692 0.813,30.96919 0.813,41.18611z" fill="#ffffff"/><path d="M384.71629,205.31241c0.33356,-4.61041 -0.47337,12.31175 -5.08552,5.90108c-0.90907,-1.26356 0.93817,-16.95997 6.24057,-19.24906c4.86431,-2.09996 10.59291,-0.11211 11.95628,0.03243c6.65807,0.70589 11.5828,7.81193 10.99968,15.87179c-0.17877,2.47093 -1.91589,14.83675 -6.34721,18.16293c-4.75863,3.57187 -12.34376,-2.01191 -15.96778,-3.12228c-4.00922,-1.22839 -2.0084,-14.66142 -1.79602,-17.5969z" fill="#3c5285"/></g><path d="M385.58008,138.88021c0,-11.09279 -0.81195,-22.44825 7.7647,-22.44825c8.57665,0 15.52939,8.99249 15.52939,20.08528c0,11.09279 -23.2941,13.45577 -23.2941,2.36297z" fill="#6389db" stroke="none" stroke-width="0"/><g><path d="M344.53372,129.63919c2.01374,6.56135 -3.67357,9.85077 -7.14018,10.21738c-3.29339,0.3483 -8.46591,-2.19672 -7.53206,-9.26472c0.20539,-1.55453 14.32182,-2.09438 14.67222,-0.95266z" fill="#006fb0" stroke="#3e3e3e" stroke-width="0"/><text transform="translate(332.21846,136.43066) scale(0.14305,0.19785)" font-size="40" xml:space="preserve" fill="#000000" fill-rule="nonzero" stroke="none" stroke-width="1" stroke-linecap="butt" stroke-linejoin="miter" stroke-miterlimit="10" stroke-dasharray="" stroke-dashoffset="0" font-family="&quot;GovtAgentBB&quot;, Serif" font-weight="normal" text-anchor="start" style="mix-blend-mode: normal"><tspan x="0" dy="0">ASC</tspan></text></g></g></g></g></svg>