<svg version="1.1" xmlns="http://www.w3.org/2000/svg" xmlns:xlink="http://www.w3.org/1999/xlink" width="140.59115" height="76.57143" viewBox="0,0,140.59115,76.57143"><defs><linearGradient x1="298.5" y1="182.07304" x2="421.50279" y2="182.07304" gradientUnits="userSpaceOnUse" id="color-1"><stop offset="0" stop-color="#02040a"/><stop offset="1" stop-color="#030710"/></linearGradient><linearGradient x1="401.42448" y1="156.02681" x2="439.09115" y2="156.02681" gradientUnits="userSpaceOnUse" id="color-2"><stop offset="0" stop-color="#02040a"/><stop offset="1" stop-color="#030710"/></linearGradient><linearGradient x1="305.91516" y1="192.16133" x2="359.75733" y2="194.46127" gradientUnits="userSpaceOnUse" id="color-3"><stop offset="0" stop-color="#0a0602"/><stop offset="1" stop-color="#0e0f03"/></linearGradient><linearGradient x1="357.15124" y1="167.79186" x2="366.90583" y2="167.79186" gradientUnits="userSpaceOnUse" id="color-4"><stop offset="0" stop-color="#ffffff" stop-opacity="0"/><stop offset="1" stop-color="#ffffff" stop-opacity="0.04706"/></linearGradient><linearGradient x1="340.48414" y1="192.34018" x2="350.17689" y2="191.24353" gradientUnits="userSpaceOnUse" id="color-5"><stop offset="0" stop-color="#ffffff" stop-opacity="0"/><stop offset="1" stop-color="#ffffff" stop-opacity="0.04706"/></linearGradient></defs><g transform="translate(-298.5,-139.34051)"><g stroke-miterlimit="10"><g><path d="M319.75781,160.29111c0,-10.40136 8.43197,-18.83334 18.83334,-18.83334c10.40136,0 18.83333,8.43197 18.83333,18.83334c0,10.40136 -37.66667,10.40136 -37.66667,0z" fill="#02040a" stroke="#131500" stroke-width="0"/><path d="M298.5,209.55615c0,-21.52486 17.3594,-46.97099 40.42984,-58.69475c13.33394,-6.77594 37.12951,1.69475 49.57016,1.69475c33.96551,0 33,23.03449 33,57c0,8.5488 -123,8.39965 -123,0z" fill="url(#color-1)" stroke="#131500" stroke-width="0"/><path d="M429.75781,147.04297c0,10.30932 -104,10.30932 -104,0c0,-10.23049 104,-10.30932 104,0z" fill="#02040a" stroke="#131500" stroke-width="0"/><path d="M401.42448,161.54297c0,-10.40136 8.43197,-18.83333 18.83333,-18.83333c10.40136,0 18.83333,8.43197 18.83333,18.83333c0,10.40136 -37.66667,10.40136 -37.66667,0z" fill="url(#color-2)" stroke="#131500" stroke-width="0"/><path d="M317.01563,179.75557c6.03348,-3.44923 34.72266,-2.53829 38.57611,0.88686c4.06612,3.61419 -1.9078,23.56883 -7.87032,26.74054c-5.88418,3.13005 -32.87093,2.3553 -36.72328,-0.64038c-4.7181,-3.66891 0.52284,-23.84582 6.01749,-26.98702z" fill="url(#color-3)" stroke="#131500" stroke-width="0"/><path d="M328.72991,161.43162c6.03348,-1.67345 34.72267,-1.23149 38.57612,0.43027c4.06612,1.75348 -1.9078,11.43478 -7.87032,12.97359c-5.88418,1.51859 -32.87093,1.14271 -36.72328,-0.31069c-4.7181,-1.78003 0.52284,-11.56917 6.01749,-13.09317z" fill="#000000" stroke="#131500" stroke-width="0"/><path d="M366.90583,164.61878c0,1.57796 -6.06958,8.12637 -6.58242,8.12637c-0.51284,0 -3.62822,-9.90659 -3.11538,-9.90659c0.51284,0 9.6978,0.20226 9.6978,1.78022z" fill="url(#color-4)" stroke="#131500" stroke-width="0"/><path d="M317.6248,181.99022c5.05136,-2.88778 29.07062,-2.12512 32.29682,0.7425c3.40425,3.02588 -1.59725,19.73237 -6.58921,22.3878c-4.92637,2.62055 -27.52031,1.97191 -30.74558,-0.53615c-3.95011,-3.0717 0.43773,-19.96427 5.03798,-22.59416z" fill="#000000" stroke="#131500" stroke-width="0"/><path d="M349.50122,185.27162c0.33601,2.9698 -4.30069,15.97667 -4.81027,16.03433c-0.50958,0.05765 -5.71471,-18.23688 -5.20513,-18.29454c0.50958,-0.05765 9.67939,-0.70959 10.0154,2.26021z" fill="url(#color-5)" stroke="#131500" stroke-width="0"/><text transform="translate(384.44429,197.87759) scale(0.32811,0.5)" font-size="40" xml:space="preserve" fill="#000000" stroke="#000000" stroke-width="3" font-family="&quot;Century Gothic&quot;, Sans Serif" font-weight="normal" text-anchor="start"><tspan x="0" dy="0">ASC</tspan></text></g></g></g></svg>