<svg version="1.1" xmlns="http://www.w3.org/2000/svg" xmlns:xlink="http://www.w3.org/1999/xlink" width="751" height="807.65235" viewBox="0,0,751,807.65235"><defs><radialGradient cx="360" cy="177.81483" r="367.5075" gradientUnits="userSpaceOnUse" id="color-1"><stop offset="0" stop-color="#000000" stop-opacity="0.83922"/><stop offset="1" stop-color="#000000" stop-opacity="0"/></radialGradient><radialGradient cx="360" cy="177.81483" r="367.50751" gradientUnits="userSpaceOnUse" id="color-2"><stop offset="0" stop-color="#000000" stop-opacity="0"/><stop offset="1" stop-color="#000000"/></radialGradient><linearGradient x1="-5.24206" y1="181.0581" x2="150.659" y2="181.0581" gradientUnits="userSpaceOnUse" id="color-3"><stop offset="0" stop-color="#000000"/><stop offset="1" stop-color="#000000" stop-opacity="0"/></linearGradient><linearGradient x1="727.50752" y1="177.81485" x2="571.60646" y2="177.81485" gradientUnits="userSpaceOnUse" id="color-4"><stop offset="0" stop-color="#000000"/><stop offset="1" stop-color="#000000" stop-opacity="0"/></linearGradient><linearGradient x1="360.24743" y1="-17.14012" x2="360.24743" y2="110.48753" gradientUnits="userSpaceOnUse" id="color-5"><stop offset="0" stop-color="#000000"/><stop offset="1" stop-color="#000000" stop-opacity="0"/></linearGradient><linearGradient x1="359.27227" y1="377.38047" x2="359.27227" y2="249.75283" gradientUnits="userSpaceOnUse" id="color-6"><stop offset="0" stop-color="#000000"/><stop offset="1" stop-color="#000000" stop-opacity="0"/></linearGradient></defs><g transform="translate(15.5,30)"><g data-paper-data="{&quot;isPaintingLayer&quot;:true}" fill-rule="nonzero" stroke-width="0" stroke-linecap="butt" stroke-linejoin="miter" stroke-miterlimit="10" stroke-dasharray="" stroke-dashoffset="0" style="mix-blend-mode: normal"><path d="M-7.11712,370.42353v-384.38438h732.73273v384.38438z" fill="#07010e" stroke="none"/><g stroke="none"><g><g><g><path d="M306.00656,727.57108c-3.5237,-4.22523 -2.95501,-10.50699 1.27022,-14.03071c4.22523,-3.5237 10.50699,-2.95501 14.03071,1.27022c3.5237,4.22523 2.95501,10.50699 -1.27022,14.03071c-4.22523,3.5237 -10.50699,2.95501 -14.03071,-1.27022z" fill="#6e2d2a"/><path d="M339.10128,752.42075c-11.2698,9.39865 -29.56519,-19.89743 -29.56519,-19.89743c0,0 -1.3574,-4.63379 5.26431,-10.59395c5.17763,-4.66037 11.0345,-2.99873 11.0345,-2.99873c0,0 24.53618,24.09146 13.26638,33.49012z" fill="#893834"/></g><path d="M262.78487,764.16437l-2.37957,-25.44309l55.35072,-5.17669l2.37957,25.44309z" fill="#6e2d2a"/><path d="M318.29462,734.6122c1.53695,16.4335 -58.40526,22.03961 -59.9422,5.60611c-1.53695,-16.4335 5.56934,-34.01672 33.33414,-36.61343c16.55259,-1.54809 25.07112,14.57381 26.60806,31.00731z" fill="#893834"/><path d="M318.6667,746.10519c2.29449,24.53333 3.23227,27.19137 -12.8737,29.26222c-6.78777,0.87274 -7.93404,-3.91896 -7.93404,-3.91896c0,0 1.74331,6.94134 -24.18813,6.13941c-15.27956,-0.47252 -13.02905,-20.39786 -13.55363,-26.00682c-1.12487,-12.02742 -0.88974,5.98749 30.18268,2.61479c27.83368,-3.02116 27.24193,-20.11808 28.3668,-8.09065z" fill="#893834"/></g><g><path d="M261.81194,609.37821c-0.57952,-12.14581 8.79685,-22.46174 20.94268,-23.04126c12.14581,-0.57952 22.46174,8.79685 23.04124,20.94268c0.57952,12.14581 -8.79685,22.46174 -20.94266,23.04126c-12.14581,0.5795 -22.46174,-8.79685 -23.04126,-20.94266z" fill="#6e2d2a"/><path d="M261.30899,712.43545l-4.19485,-87.91935c0,0 0.141,-10.94571 27.2396,-12.23863c25.77665,-1.22987 27.56004,9.62402 27.56004,9.62402l4.19487,87.91935c0,0 -3.16312,8.27126 -26.66319,9.17254c-25.07561,0.96172 -28.13645,-6.5579 -28.13645,-6.5579z" fill="#893834"/></g><g><path d="M289.31167,496.95031c3.01327,-11.78035 15.00589,-18.8875 26.78626,-15.87421c11.78035,3.01327 18.8875,15.00589 15.87421,26.78624c-3.01327,11.78035 -15.00589,18.8875 -26.78626,15.87421c-11.78035,-3.01327 -18.8875,-15.00589 -15.87421,-26.78624z" fill="#6e2d2a"/><path d="M258.56292,595.31476l21.81206,-85.27392c0,0 3.34952,-10.42157 29.63275,-3.69864c25.00105,6.39496 23.51798,17.29394 23.51798,17.29394l-21.81204,85.27392c0,0 -5.4529,6.97747 -28.18127,0.93703c-24.25218,-6.4454 -24.96949,-14.53236 -24.96949,-14.53236z" fill="#893834"/></g></g><g><g><g><path d="M613.45572,483.217c-4.35375,3.36365 -10.6099,2.56103 -13.97354,-1.79272c-3.36365,-4.35375 -2.56103,-10.6099 1.7927,-13.97357c4.35375,-3.36365 10.6099,-2.56103 13.97356,1.79273c3.36366,4.35373 2.56103,10.6099 -1.79273,13.97356z" fill="#6e2d2a"/><path d="M602.52619,486.73508c0,0 -0.35631,-6.07761 5.31309,-10.12543c7.25061,-5.17677 11.48144,-2.8498 11.48144,-2.8498c0,0 24.64867,24.19555 13.03612,33.16727c-11.61255,8.97172 -29.83063,-20.19203 -29.83063,-20.19203z" fill="#893834"/></g><path d="M643.30047,487.87671l-24.32718,-7.82315l17.01904,-52.92308l24.32718,7.82315z" fill="#6e2d2a"/><path d="M594.94437,450.08124c8.53702,-26.54706 27.24064,-29.68451 42.95338,-24.63159c15.71274,5.05291 -2.71808,62.3661 -18.43082,57.31319c-15.71274,-5.05291 -29.61209,-16.85499 -24.52256,-32.68159z" fill="#893834"/><path d="M644.63897,459.66323c10.00964,-29.60873 -7.52852,-33.73247 3.97139,-30.03432c5.36295,1.72462 25.30368,3.83443 22.46216,18.85488c-4.82243,25.4917 -11.22282,22.28915 -11.22282,22.28915c0,0 4.43062,2.15495 2.11127,8.59357c-5.50339,15.27754 -7.89588,13.78736 -31.35319,6.24394c-11.49991,-3.69815 5.06488,0.57532 14.0312,-25.94724z" fill="#893834"/></g><g><path d="M524.87004,427.56839c-3.19128,11.73338 -15.2901,18.65814 -27.02351,15.46687c-11.73338,-3.19128 -18.65816,-15.29011 -15.46687,-27.02351c3.19128,-11.73338 15.29011,-18.65816 27.02352,-15.46689c11.73339,3.19126 18.65816,15.29013 15.46687,27.02351z" fill="#6e2d2a"/><path d="M610.45344,451.21963c-5.95982,22.74963 -14.71926,24.05007 -14.71926,24.05007l-84.93394,-23.10053c0,0 -10.21178,-4.0874 -3.43904,-28.9888c7.12008,-26.17843 17.83748,-23.95005 17.83748,-23.95005l84.93394,23.10053c0,0 6.68022,4.61391 0.32084,28.88879z" fill="#893834"/></g><g><path d="M416.41051,424.38081c0.39555,12.15321 -9.13589,22.32598 -21.28908,22.72154c-12.1532,0.39558 -22.32598,-9.13589 -22.72156,-21.28908c-0.39556,-12.15319 9.13589,-22.32598 21.28908,-22.72154c12.1532,-0.39558 22.32598,9.13589 22.72156,21.28908z" fill="#6e2d2a"/><path d="M505.16586,421.85307c0.98461,23.49673 -7.0066,27.31244 -7.0066,27.31244l-87.97279,2.86333c0,0 -10.96187,-0.90794 -11.80137,-26.70025c-0.88254,-27.11507 10.01668,-28.13265 10.01668,-28.13265l87.97278,-2.86336c0,0 7.7407,2.44845 8.79131,27.5205z" fill="#893834"/></g></g><g><path d="M462.66164,534.48893c7.97693,11.78728 -2.31285,40.00417 -27.17511,56.82946c-24.86225,16.82529 -54.88213,15.88757 -62.85906,4.10029c-7.97693,-11.78728 5.71132,-34.98235 30.57358,-51.80763c24.86225,-16.82529 51.48366,-20.9094 59.46059,-9.12211z" fill="#893834"/><g><path d="M339.35851,553.47595c0,0 -77.5068,-74.57191 -9.49355,-118.96689c67.32947,-43.94866 104.44685,52.09772 104.44685,52.09772c0,0 65.31557,40.11107 -6.85819,89.30852c-74.99824,51.12277 -88.09509,-22.43936 -88.09509,-22.43936z" fill="#a3433e"/><g fill="#893834"><g><path d="M391.76245,464.29217c-13.97059,9.45446 -28.98572,11.66662 -33.53722,4.941c-4.5515,-6.72562 3.08418,-19.84218 17.05477,-29.29664c6.93405,-4.69255 8.72178,11.65722 8.72178,11.65722c0,0 14.79721,7.93651 7.76066,12.69842z"/><path d="M361.13967,467.26086c-0.75024,-1.1086 -0.45971,-2.61554 0.64889,-3.36577c1.1086,-0.75024 15.67741,-7.68289 15.67741,-7.68289c0,0 -11.85192,10.94732 -12.96052,11.69755c-1.1086,0.75024 -2.61552,0.45973 -3.36577,-0.64889z"/></g><g><path d="M323.64335,492.44074c0,0 -14.5133,-7.73784 -7.57925,-12.43039c13.97059,-9.45446 28.98572,-11.66665 33.53722,-4.94103c4.5515,6.72562 -3.08418,19.84218 -17.05479,29.29665c-7.03655,4.76191 -8.90318,-11.92523 -8.90318,-11.92523z"/><path d="M346.038,480.40741c-1.1086,0.75024 -15.67741,7.68289 -15.67741,7.68289c0,0 11.85192,-10.94732 12.96052,-11.69755c1.1086,-0.75024 2.61552,-0.45973 3.36577,0.64889c0.75024,1.1086 0.45971,2.61554 -0.64889,3.36577z"/></g><path d="M342.27075,480.03022c-4.35144,-6.43 -2.66644,-15.17006 3.76356,-19.5215c6.43,-4.35144 15.17006,-2.66644 19.5215,3.76356c4.35144,6.43 2.66644,15.17006 -3.76356,19.5215c-6.43,4.35144 -15.17006,2.66644 -19.5215,-3.76356z"/></g><g><g><path d="M393.23744,459.01819c-15.60305,10.55921 -32.37268,13.02988 -37.45603,5.51836c-5.08334,-7.5115 3.44458,-22.16073 19.04762,-32.71994c7.74428,-5.24087 9.74091,13.01934 9.74091,13.01934c0,0 16.52625,8.86388 8.66748,14.18222z" fill="#2a2119"/><path d="M359.03641,462.33375c-0.83792,-1.23817 -0.51346,-2.92114 0.72471,-3.75906c1.23817,-0.83792 17.50931,-8.58063 17.50931,-8.58063c0,0 -13.23679,12.22649 -14.47496,13.06441c-1.23817,0.83792 -2.92114,0.51346 -3.75906,-0.72471z" fill="#1e1812"/></g><g><path d="M317.15869,490.45586c0,0 -16.20916,-8.64201 -8.46488,-13.88288c15.60305,-10.55921 32.37266,-13.02987 37.456,-5.51836c5.08334,7.5115 -3.44459,22.16071 -19.04762,32.71991c-7.85876,5.31834 -9.94351,-13.31868 -9.94351,-13.31868z" fill="#2a2119"/><path d="M342.17012,477.01648c-1.23817,0.83792 -17.50931,8.58063 -17.50931,8.58063c0,0 13.23681,-12.2265 14.47496,-13.06441c1.23817,-0.83792 2.92114,-0.51346 3.75906,0.72471c0.83792,1.23817 0.51346,2.92114 -0.72471,3.75906z" fill="#1e1812"/></g><path d="M337.96268,476.5952c-4.85989,-7.18132 -2.97799,-16.94267 4.20333,-21.80256c7.18132,-4.85989 16.94267,-2.97799 21.80256,4.20333c4.85989,7.18132 2.97799,16.94267 -4.20333,21.80256c-7.18132,4.85989 -16.94267,2.97799 -21.80256,-4.20333z" fill="#1e1812"/></g><g><path d="M365.051,499.10563c-2.05887,-3.04233 -1.26163,-7.17768 1.78072,-9.23656c3.04233,-2.05887 7.17768,-1.26163 9.23656,1.78072c2.05887,3.04233 1.26161,7.17769 -1.78072,9.23656c-3.04233,2.05887 -7.17768,1.26163 -9.23656,-1.78072z" fill="#893834"/><path d="M363.66387,497.0559c-2.05887,-3.04233 -1.26163,-7.17768 1.78072,-9.23656c3.04233,-2.05887 7.17768,-1.26163 9.23656,1.78072c2.05887,3.04233 1.26161,7.17769 -1.78072,9.23656c-3.04233,2.05887 -7.17768,1.26163 -9.23656,-1.78072z" fill="#1e1812"/></g><g><path d="M376.14804,515.50342c-2.05887,-3.04233 -1.26163,-7.17768 1.78072,-9.23656c3.04233,-2.05887 7.17768,-1.26163 9.23656,1.78072c2.05887,3.04233 1.26161,7.17769 -1.78072,9.23656c-3.04233,2.05887 -7.17768,1.26163 -9.23656,-1.78072z" fill="#893834"/><path d="M374.76092,513.45371c-2.05887,-3.04233 -1.26163,-7.17768 1.78072,-9.23656c3.04233,-2.05887 7.17768,-1.26163 9.23656,1.78072c2.05887,3.04233 1.26161,7.17769 -1.78072,9.23656c-3.04233,2.05887 -7.17768,1.26163 -9.23656,-1.78072z" fill="#1e1812"/></g><path d="M359.67391,428.50015c2.9327,4.33357 -5.53013,15.18263 -18.90226,24.23209c-13.37214,9.04946 -26.58979,12.87245 -29.52249,8.53889c-2.9327,-4.33357 5.53013,-15.18263 18.90226,-24.23209c13.37214,-9.04946 26.58979,-12.87245 29.52249,-8.53889z" fill="#6e2d2a"/><path d="M343.47046,437.72243c1.67582,2.47632 -0.91365,7.15554 -5.78373,10.45132c-4.8701,3.29579 -10.1766,3.96009 -11.85243,1.48377c-1.67582,-2.47632 0.91365,-7.15554 5.78373,-10.45132c4.8701,-3.29579 10.1766,-3.96009 11.85243,-1.48377z" fill="#4d201d"/><path d="M344.27961,438.91809c1.67582,2.47632 -0.91365,7.15554 -5.78373,10.45132c-4.8701,3.29579 -10.1766,3.96009 -11.85243,1.48377c-1.67582,-2.47632 0.91365,-7.15554 5.78373,-10.45132c4.8701,-3.29579 10.1766,-3.96009 11.85243,-1.48377z" fill="#0b0404"/></g></g><g><path d="M368.91863,395.93365c11.0644,12.9637 11.41558,33.36875 -31.56236,68.93333c-43.89215,36.32108 -62.38338,33.65557 -73.44778,20.69187c-11.0644,-12.9637 4.20647,-39.17929 35.13741,-65.57856c30.93093,-26.39927 58.80833,-37.01034 69.87274,-24.04664z" fill="#893834"/><path d="M362.05733,397.60428c8.41332,9.85754 -5.78683,32.54206 -33.89326,56.53064c-28.10641,23.98857 -53.11439,34.76784 -61.52772,24.91029c-8.41332,-9.85754 6.4283,-32.54831 34.53472,-56.53688c28.10643,-23.98858 52.47294,-34.7616 60.88626,-24.90405z" fill="#6e2d2a"/></g><g><path d="M191.64491,368.72738l-33.1222,-20.19729l43.07076,-51.50326l25.49252,29.32072z" fill="#1e1812"/><path d="M235.33506,317.67957c2.30265,1.92565 -7.13904,17.00902 -21.0886,33.68965c-13.94956,16.68064 -27.12459,28.64195 -29.42724,26.71631c-2.30265,-1.92565 7.13904,-17.00902 21.08862,-33.68967c13.94957,-16.68065 27.12457,-28.64194 29.42723,-26.71629z" fill="#2a2119"/><path d="M201.29913,296.78074c2.30265,1.92565 -5.47241,15.01609 -17.36607,29.23831c-11.89367,14.22224 -23.40204,24.19059 -25.70469,22.26495c-2.30264,-1.92563 5.47241,-15.01609 17.36607,-29.23831c11.89367,-14.22224 23.40204,-24.19059 25.70469,-22.26495z" fill="#1e1812"/><path d="M225.30783,331.98735c0.95493,0.79858 -4.57939,8.98946 -12.36125,18.29487c-7.78186,9.30541 -14.8644,16.20155 -15.81933,15.40298c-0.95493,-0.79858 4.57939,-8.98946 12.36125,-18.29487c7.78186,-9.30541 14.8644,-16.20155 15.81933,-15.40298z" fill="#1e1812"/></g><path d="M246.01319,492.26912c0,0 -49.09827,-41.05953 -68.18085,-57.01777c-10.41769,-8.71203 -16.37417,-25.28965 -4.78307,-39.99401c12.27155,-15.5676 53.6453,-64.14811 76.4096,-91.36926c13.24184,-15.83436 28.00026,-13.98975 38.8274,-4.93531c19.19092,16.04884 70.25743,58.75435 70.25743,58.75435c0,0 8.86195,8.46692 -9.74997,40.55249c-0.6831,-0.47598 -7.15679,-3.876 -7.15679,-3.876c0,0 4.49965,5.88023 5.18777,6.45569c0.09969,0.08337 0.20645,0.15275 0.31789,0.20834c-0.69523,1.15086 -1.42425,2.33021 -2.1885,3.53866c-0.6778,-0.43067 -3.77665,-1.0591 -3.77665,-1.0591c0,0 1.17713,3.1017 1.86525,3.67716c0.04997,0.04179 0.1017,0.08005 0.15491,0.11484c-1.65362,2.53302 -8.17268,13.17117 -8.17268,13.17117l-2.50553,-0.04618c0,0 0.60488,1.02052 0.46624,1.18629c-0.18047,0.2158 -0.29537,0.46466 -0.34683,0.7224c-3.90105,5.21887 -8.32346,10.83487 -13.33247,16.87523c-3.66508,4.4197 -11.93416,11.03634 -11.93416,11.03634c0,0 0.85727,1.45133 0.64554,1.7045c-0.18556,0.22189 -0.30178,0.47875 -0.35102,0.74426c-5.59523,6.20346 -10.74027,11.48395 -15.46204,15.97405c-0.09417,-0.26245 -0.25723,-0.50408 -0.48656,-0.69587c-0.68813,-0.57546 -4.47268,-1.30941 -4.47268,-1.30941c0,0 1.70065,3.22584 2.38878,3.8013c0.12262,0.10254 0.25591,0.18392 0.39543,0.2445c-32.5331,30.09951 -44.01642,21.54137 -44.01642,21.54137z" fill="#a3433e"/><path d="M233.40177,479.74633c-8.8079,-7.3658 -9.97693,-20.47716 -2.61114,-29.28504c7.3658,-8.8079 20.47714,-9.97694 29.28504,-2.61114c8.8079,7.3658 9.97694,20.47714 2.61114,29.28504c-7.3658,8.8079 -20.47714,9.97694 -29.28504,2.61114z" fill="#893834"/><path d="M250.34408,400.61238c17.00531,14.22108 16.07639,31.6132 5.04688,44.8021c-11.02952,13.1889 -27.98294,17.18017 -44.98826,2.9591c-17.00531,-14.22108 -14.63309,-30.40621 -3.60357,-43.59511c11.02952,-13.1889 26.53962,-18.38718 43.54496,-4.16609z" fill="#6e2d2a"/><path d="M272.11971,372.24219c4.43453,3.70848 1.96497,13.96657 -5.51591,22.91207c-7.48087,8.9455 -17.14024,13.19096 -21.57477,9.48249c-4.43453,-3.70848 -1.96495,-13.96656 5.51592,-22.91206c7.48087,-8.9455 17.14022,-13.19098 21.57475,-9.4825z" fill="#893834"/><path d="M346.59906,376.79557c-7.3658,8.8079 -20.47716,9.97693 -29.28504,2.61114c-8.80788,-7.36579 -9.97694,-20.47714 -2.61114,-29.28504c7.3658,-8.8079 20.47716,-9.97693 29.28504,-2.61114c8.80788,7.36579 9.97693,20.47716 2.61114,29.28504z" fill="#893834"/><path d="M252.42798,398.12049c11.62057,9.71797 14.86646,20.9167 12.2374,31.24307c-0.38344,1.50608 -2.35197,5.91852 -2.35197,5.91852l-1.16887,6.23871c0,0 -2.68655,0.22623 -3.66967,1.40182c-11.02952,13.1889 -27.98294,17.18017 -44.98826,2.9591c-17.00531,-14.22108 -14.63309,-30.40621 -3.60357,-43.59511c5.19455,-6.21155 11.38294,-10.6507 18.25332,-12.12352c0.88594,-0.18993 1.31679,-3.99985 1.31679,-3.99985l3.55814,3.0468l6.64852,-0.11746c0,0 4.22568,2.91574 5.13168,3.35059c2.82433,1.35554 5.70824,3.22855 8.63649,5.67737z" fill="#0b0404"/><path d="M265.4956,334.59028c11.02952,-13.1889 26.53962,-18.38718 43.54496,-4.16609c17.00531,14.22108 16.07639,31.6132 5.04688,44.8021c-11.02952,13.1889 -27.98294,17.18017 -44.98826,2.9591c-17.00531,-14.22108 -14.63309,-30.40621 -3.60357,-43.59511z" fill="#6e2d2a"/><path d="M263.4117,337.08217c11.02952,-13.1889 26.53962,-18.38718 43.54496,-4.16609c17.00531,14.22108 16.07639,31.6132 5.04688,44.8021c-11.02952,13.1889 -27.98294,17.18017 -44.98826,2.9591c-17.00531,-14.22108 -14.63309,-30.40621 -3.60357,-43.59511z" fill="#000000"/><path d="M293.58808,397.48853c3.74642,3.13303 2.32586,11.00319 -3.17291,17.57852c-5.49877,6.57533 -12.99346,9.36587 -16.73988,6.23284c-3.74642,-3.13303 -2.32586,-11.00319 3.17291,-17.57852c5.49877,-6.57533 12.99346,-9.36587 16.73988,-6.23284z" fill="#6e2d2a"/><g><path d="M296.34092,347.07663c1.43799,1.20255 -1.26155,6.79941 -6.02959,12.50096c-4.76803,5.70152 -9.79901,9.34867 -11.23699,8.14612c-1.43799,-1.20255 1.26155,-6.79941 6.02958,-12.50094c4.76803,-5.70152 9.79902,-9.34869 11.23701,-8.14614z" fill="#414141"/><path d="M293.86005,350.04321c7.73311,6.46699 11.24749,15.00337 7.84958,19.06652c-3.39791,4.06316 -12.42139,2.11447 -20.1545,-4.35252c-7.73311,-6.46699 -11.24749,-15.00337 -7.84958,-19.06652c3.39791,-4.06316 12.42139,-2.11447 20.1545,4.35252z" fill="#0b0404"/></g><g><path d="M230.57581,420.42766c4.76803,-5.70152 9.79901,-9.34867 11.23699,-8.14612c1.43799,1.20255 -1.26155,6.79941 -6.02958,12.50094c-4.76803,5.70152 -9.79901,9.34867 -11.23699,8.14612c-1.43799,-1.20255 1.26155,-6.79941 6.02958,-12.50094z" fill="#414141"/><path d="M219.17748,410.89555c3.39791,-4.06316 12.42139,-2.11447 20.1545,4.35252c7.73311,6.46699 11.24749,15.00337 7.84958,19.06652c-3.39791,4.06316 -12.42139,2.11447 -20.1545,-4.35252c-7.73311,-6.46699 -11.24749,-15.00337 -7.84958,-19.06652z" fill="#0b0404"/></g></g><path d="M-15.5,30v-60h751v60z" fill="#000000" stroke-opacity="0.50196" stroke="#0d0d0d"/><path d="M-15.5,390v-60h751v60z" fill="#000000" stroke-opacity="0.50196" stroke="#0d0d0d"/><g><g stroke="#000000"><path d="M-7.50751,364.00104v-372.37237h735.015v372.37237z" fill="url(#color-1)"/><path d="M-7.5075,364.00104v-372.37237h735.015v372.37237z" fill="url(#color-2)"/></g><g stroke="none"><path d="M-5.24206,376.25329v-390.39039h155.90105v390.39039z" fill="url(#color-3)"/><path d="M571.60646,373.01003v-390.39039h155.90105v390.39039z" fill="url(#color-4)"/><path d="M-6.53233,110.48753v-127.62762h733.55954v127.62763z" fill="url(#color-5)"/><path d="M726.05204,249.75283v127.62762h-733.55954v-127.62762z" fill="url(#color-6)"/></g></g></g></g></svg>