<svg version="1.1" xmlns="http://www.w3.org/2000/svg" xmlns:xlink="http://www.w3.org/1999/xlink" width="680.20605" height="676.17056" viewBox="0,0,680.20605,676.17056"><defs><linearGradient x1="55.33277" y1="410.51028" x2="106.15899" y2="411.15117" gradientUnits="userSpaceOnUse" id="color-1"><stop offset="0" stop-color="#484c5e"/><stop offset="1" stop-color="#212d30"/></linearGradient><linearGradient x1="55.82103" y1="364.52009" x2="124.66159" y2="365.38809" gradientUnits="userSpaceOnUse" id="color-2"><stop offset="0" stop-color="#484c5e"/><stop offset="1" stop-color="#212d30"/></linearGradient><linearGradient x1="56.36359" y1="313.41593" x2="125.20415" y2="314.28392" gradientUnits="userSpaceOnUse" id="color-3"><stop offset="0" stop-color="#484c5e"/><stop offset="1" stop-color="#212d30"/></linearGradient><linearGradient x1="56.84585" y1="267.98998" x2="125.68641" y2="268.85798" gradientUnits="userSpaceOnUse" id="color-4"><stop offset="0" stop-color="#484c5e"/><stop offset="1" stop-color="#212d30"/></linearGradient><linearGradient x1="57.40852" y1="214.99301" x2="126.24907" y2="215.86109" gradientUnits="userSpaceOnUse" id="color-5"><stop offset="0" stop-color="#484c5e"/><stop offset="1" stop-color="#212d30"/></linearGradient><linearGradient x1="57.89077" y1="169.56714" x2="126.73133" y2="170.43515" gradientUnits="userSpaceOnUse" id="color-6"><stop offset="0" stop-color="#484c5e"/><stop offset="1" stop-color="#212d30"/></linearGradient><linearGradient x1="58.43334" y1="118.46291" x2="127.27389" y2="119.331" gradientUnits="userSpaceOnUse" id="color-7"><stop offset="0" stop-color="#484c5e"/><stop offset="1" stop-color="#212d30"/></linearGradient><linearGradient x1="58.91559" y1="73.03705" x2="127.75615" y2="73.90497" gradientUnits="userSpaceOnUse" id="color-8"><stop offset="0" stop-color="#484c5e"/><stop offset="1" stop-color="#212d30"/></linearGradient><linearGradient x1="666.21182" y1="408.90771" x2="615.38561" y2="409.58835" gradientUnits="userSpaceOnUse" id="color-9"><stop offset="0" stop-color="#484c5e"/><stop offset="1" stop-color="#212d30"/></linearGradient><linearGradient x1="665.72356" y1="360.06556" x2="596.883" y2="360.98739" gradientUnits="userSpaceOnUse" id="color-10"><stop offset="0" stop-color="#484c5e"/><stop offset="1" stop-color="#212d30"/></linearGradient><linearGradient x1="665.181" y1="305.79232" x2="596.34044" y2="306.71413" gradientUnits="userSpaceOnUse" id="color-11"><stop offset="0" stop-color="#484c5e"/><stop offset="1" stop-color="#212d30"/></linearGradient><linearGradient x1="664.69875" y1="257.5494" x2="595.85818" y2="258.47123" gradientUnits="userSpaceOnUse" id="color-12"><stop offset="0" stop-color="#484c5e"/><stop offset="1" stop-color="#212d30"/></linearGradient><linearGradient x1="664.13608" y1="201.26597" x2="595.29552" y2="202.18785" gradientUnits="userSpaceOnUse" id="color-13"><stop offset="0" stop-color="#484c5e"/><stop offset="1" stop-color="#212d30"/></linearGradient><linearGradient x1="663.65382" y1="153.02311" x2="594.81326" y2="153.94495" gradientUnits="userSpaceOnUse" id="color-14"><stop offset="0" stop-color="#484c5e"/><stop offset="1" stop-color="#212d30"/></linearGradient><linearGradient x1="663.11126" y1="98.7498" x2="594.2707" y2="99.67171" gradientUnits="userSpaceOnUse" id="color-15"><stop offset="0" stop-color="#484c5e"/><stop offset="1" stop-color="#212d30"/></linearGradient><linearGradient x1="662.62901" y1="50.50698" x2="593.78844" y2="51.42872" gradientUnits="userSpaceOnUse" id="color-16"><stop offset="0" stop-color="#484c5e"/><stop offset="1" stop-color="#212d30"/></linearGradient><linearGradient x1="240.12168" y1="416.31638" x2="412.35631" y2="453.18064" gradientUnits="userSpaceOnUse" id="color-17"><stop offset="0" stop-color="#484c5e"/><stop offset="1" stop-color="#212d30"/></linearGradient><linearGradient x1="270.94111" y1="191.53355" x2="476.24479" y2="235.47575" gradientUnits="userSpaceOnUse" id="color-18"><stop offset="0" stop-color="#484c5e"/><stop offset="1" stop-color="#212d30"/></linearGradient><linearGradient x1="367.69206" y1="198.49553" x2="391.7477" y2="203.64429" gradientUnits="userSpaceOnUse" id="color-19"><stop offset="0" stop-color="#484c5e"/><stop offset="1" stop-color="#212d30"/></linearGradient><linearGradient x1="359.96818" y1="234.58248" x2="392.54991" y2="241.55611" gradientUnits="userSpaceOnUse" id="color-20"><stop offset="0" stop-color="#484c5e"/><stop offset="1" stop-color="#212d30"/></linearGradient><linearGradient x1="351.38544" y1="274.68219" x2="383.96716" y2="281.65582" gradientUnits="userSpaceOnUse" id="color-21"><stop offset="0" stop-color="#484c5e"/><stop offset="1" stop-color="#212d30"/></linearGradient><linearGradient x1="343.75633" y1="310.32638" x2="376.33805" y2="317.30001" gradientUnits="userSpaceOnUse" id="color-22"><stop offset="0" stop-color="#484c5e"/><stop offset="1" stop-color="#212d30"/></linearGradient><linearGradient x1="334.8557" y1="351.91129" x2="367.43742" y2="358.88492" gradientUnits="userSpaceOnUse" id="color-23"><stop offset="0" stop-color="#484c5e"/><stop offset="1" stop-color="#212d30"/></linearGradient><linearGradient x1="327.22659" y1="387.55544" x2="359.80832" y2="394.52908" gradientUnits="userSpaceOnUse" id="color-24"><stop offset="0" stop-color="#484c5e"/><stop offset="1" stop-color="#212d30"/></linearGradient><linearGradient x1="318.64384" y1="427.65519" x2="351.22556" y2="434.62883" gradientUnits="userSpaceOnUse" id="color-25"><stop offset="0" stop-color="#484c5e"/><stop offset="1" stop-color="#212d30"/></linearGradient><linearGradient x1="311.01474" y1="463.29935" x2="343.59647" y2="470.27298" gradientUnits="userSpaceOnUse" id="color-26"><stop offset="0" stop-color="#484c5e"/><stop offset="1" stop-color="#212d30"/></linearGradient><linearGradient x1="473.7468" y1="277.81043" x2="434.29494" y2="274.29111" gradientUnits="userSpaceOnUse" id="color-27"><stop offset="0" stop-color="#484c5e"/><stop offset="1" stop-color="#212d30"/></linearGradient><linearGradient x1="470.82475" y1="310.56706" x2="417.38995" y2="305.80043" gradientUnits="userSpaceOnUse" id="color-28"><stop offset="0" stop-color="#484c5e"/><stop offset="1" stop-color="#212d30"/></linearGradient><linearGradient x1="467.57776" y1="346.96615" x2="414.14297" y2="342.19948" gradientUnits="userSpaceOnUse" id="color-29"><stop offset="0" stop-color="#484c5e"/><stop offset="1" stop-color="#212d30"/></linearGradient><linearGradient x1="464.69157" y1="379.32086" x2="411.25677" y2="374.55422" gradientUnits="userSpaceOnUse" id="color-30"><stop offset="0" stop-color="#484c5e"/><stop offset="1" stop-color="#212d30"/></linearGradient><linearGradient x1="461.32432" y1="417.06806" x2="407.88953" y2="412.30139" gradientUnits="userSpaceOnUse" id="color-31"><stop offset="0" stop-color="#484c5e"/><stop offset="1" stop-color="#212d30"/></linearGradient><linearGradient x1="458.43813" y1="449.42277" x2="405.00333" y2="444.65614" gradientUnits="userSpaceOnUse" id="color-32"><stop offset="0" stop-color="#484c5e"/><stop offset="1" stop-color="#212d30"/></linearGradient><linearGradient x1="455.19114" y1="485.82186" x2="401.75635" y2="481.05519" gradientUnits="userSpaceOnUse" id="color-33"><stop offset="0" stop-color="#484c5e"/><stop offset="1" stop-color="#212d30"/></linearGradient><linearGradient x1="452.30492" y1="518.17656" x2="398.87016" y2="513.40994" gradientUnits="userSpaceOnUse" id="color-34"><stop offset="0" stop-color="#484c5e"/><stop offset="1" stop-color="#212d30"/></linearGradient><linearGradient x1="252.75024" y1="230.5094" x2="290.1863" y2="243.4468" gradientUnits="userSpaceOnUse" id="color-35"><stop offset="0" stop-color="#484c5e"/><stop offset="1" stop-color="#212d30"/></linearGradient><linearGradient x1="242.00839" y1="261.59232" x2="292.71291" y2="279.11516" gradientUnits="userSpaceOnUse" id="color-36"><stop offset="0" stop-color="#484c5e"/><stop offset="1" stop-color="#212d30"/></linearGradient><linearGradient x1="230.07208" y1="296.13155" x2="280.7766" y2="313.65439" gradientUnits="userSpaceOnUse" id="color-37"><stop offset="0" stop-color="#484c5e"/><stop offset="1" stop-color="#212d30"/></linearGradient><linearGradient x1="219.46201" y1="326.83312" x2="270.16653" y2="344.35596" gradientUnits="userSpaceOnUse" id="color-38"><stop offset="0" stop-color="#484c5e"/><stop offset="1" stop-color="#212d30"/></linearGradient><linearGradient x1="207.08362" y1="362.65162" x2="257.78815" y2="380.17443" gradientUnits="userSpaceOnUse" id="color-39"><stop offset="0" stop-color="#484c5e"/><stop offset="1" stop-color="#212d30"/></linearGradient><linearGradient x1="196.47356" y1="393.35315" x2="247.17808" y2="410.87599" gradientUnits="userSpaceOnUse" id="color-40"><stop offset="0" stop-color="#484c5e"/><stop offset="1" stop-color="#212d30"/></linearGradient><linearGradient x1="184.53725" y1="427.89242" x2="235.24178" y2="445.41522" gradientUnits="userSpaceOnUse" id="color-41"><stop offset="0" stop-color="#484c5e"/><stop offset="1" stop-color="#212d30"/></linearGradient><linearGradient x1="173.92719" y1="458.59395" x2="224.63171" y2="476.11679" gradientUnits="userSpaceOnUse" id="color-42"><stop offset="0" stop-color="#484c5e"/><stop offset="1" stop-color="#212d30"/></linearGradient><linearGradient x1="305.93206" y1="304.22615" x2="399.66136" y2="324.28752" gradientUnits="userSpaceOnUse" id="color-43"><stop offset="0" stop-color="#484c5e"/><stop offset="1" stop-color="#212d30"/></linearGradient><linearGradient x1="449.1033" y1="296.33298" x2="391.86404" y2="284.08176" gradientUnits="userSpaceOnUse" id="color-44"><stop offset="0" stop-color="#484c5e"/><stop offset="1" stop-color="#212d30"/></linearGradient><linearGradient x1="272.66309" y1="264.34197" x2="329.90235" y2="276.59318" gradientUnits="userSpaceOnUse" id="color-45"><stop offset="0" stop-color="#484c5e"/><stop offset="1" stop-color="#212d30"/></linearGradient><radialGradient cx="356.33583" cy="113.67103" r="48.48666" gradientUnits="userSpaceOnUse" id="color-46"><stop offset="0" stop-color="#ffffff" stop-opacity="0.43529"/><stop offset="1" stop-color="#ffffff" stop-opacity="0"/></radialGradient><linearGradient x1="308.57375" y1="122.0221" x2="404.0979" y2="105.31996" gradientUnits="userSpaceOnUse" id="color-47"><stop offset="0" stop-color="#484c5e"/><stop offset="1" stop-color="#212d30"/></linearGradient><linearGradient x1="348.76306" y1="114.81007" x2="364.20494" y2="112.1101" gradientUnits="userSpaceOnUse" id="color-48"><stop offset="0" stop-color="#484c5e"/><stop offset="1" stop-color="#212d30"/></linearGradient><radialGradient cx="414.48249" cy="105.19187" r="48.48666" gradientUnits="userSpaceOnUse" id="color-49"><stop offset="0" stop-color="#ffffff" stop-opacity="0.43529"/><stop offset="1" stop-color="#ffffff" stop-opacity="0"/></radialGradient><linearGradient x1="366.72042" y1="113.54293" x2="462.24457" y2="96.8408" gradientUnits="userSpaceOnUse" id="color-50"><stop offset="0" stop-color="#484c5e"/><stop offset="1" stop-color="#212d30"/></linearGradient><linearGradient x1="406.90972" y1="106.3309" x2="422.3516" y2="103.63093" gradientUnits="userSpaceOnUse" id="color-51"><stop offset="0" stop-color="#484c5e"/><stop offset="1" stop-color="#212d30"/></linearGradient></defs><g transform="translate(-20.66927,63.20095)"><g stroke-miterlimit="10"><g fill="none" stroke-width="3.25" stroke-linecap="round"><path d="M55.5783,387.38417c0,0 31.88218,-1.0902 44.50005,-1.52158c9.33843,-0.31933 7.93086,11.1821 -1.90819,18.37152c-8.2408,6.02151 -24.14006,17.63921 -34.15535,24.95737c-5.29823,3.87143 -2.87213,6.61629 1.83047,6.67554c8.90188,0.11228 38.62921,0.48711 38.62921,0.48711" stroke="url(#color-1)"/><path d="M56.06061,341.95815c0,0 31.88223,-1.0902 44.50004,-1.52167c9.33843,-0.31927 7.93086,11.18217 -1.90818,18.37152c-12.60031,9.20701 -43.10516,31.49703 -43.10516,31.49703" stroke="url(#color-2)"/><path d="M56.60312,290.85399c0,0 31.88223,-1.0902 44.50005,-1.52158c9.33843,-0.31927 7.93085,11.18217 -1.90819,18.37152c-12.60031,9.20701 -43.10516,31.49703 -43.10516,31.49703" stroke="url(#color-3)"/><path d="M57.08543,245.42807c0,0 31.88223,-1.0902 44.50005,-1.52158c9.33843,-0.31927 7.93085,11.18217 -1.90819,18.37152c-12.60031,9.20701 -43.10516,31.49703 -43.10516,31.49703" stroke="url(#color-4)"/><path d="M57.64804,192.43116c0,0 31.88223,-1.0902 44.50004,-1.52167c9.33843,-0.31927 7.93086,11.18225 -1.90818,18.3716c-12.60031,9.20701 -43.10516,31.49703 -43.10516,31.49703" stroke="url(#color-5)"/><path d="M58.13035,147.00522c0,0 31.88223,-1.0902 44.50005,-1.52167c9.33843,-0.31927 7.93086,11.18217 -1.90818,18.37152c-12.60031,9.20701 -43.10517,31.49703 -43.10517,31.49703" stroke="url(#color-6)"/><path d="M58.67286,95.90106c0,0 31.88223,-1.0902 44.50005,-1.52158c9.33843,-0.31927 7.93085,11.18217 -1.90819,18.37152c-12.60031,9.20701 -43.10516,31.49709 -43.10516,31.49709" stroke="url(#color-7)"/><path d="M59.15517,50.47512c0,0 31.88223,-1.0902 44.50005,-1.52158c9.33843,-0.31927 7.93085,11.18217 -1.90819,18.37152c-12.60031,9.20701 -43.10516,31.49703 -43.10516,31.49703" stroke="url(#color-8)"/></g><path d="M38.49488,36.97774c-4.68434,-17.07174 -31.70144,-73.08674 6.64436,-82.56975c39.58293,-9.78893 44.12161,49.50232 54.2833,46.72217c13.13656,-3.59403 3.62524,-14.33841 11.15548,-10.61275c20.95938,10.36986 7.64552,37.34858 9.02771,42.38593c2.94357,10.72772 32.77133,30.28672 23.40582,36.3766c-5.53849,3.60136 -47.15613,-3.84634 -55.47953,-3.42824c-5.43594,0.27308 -57.29021,31.88384 -62.43334,30.64313c-16.04865,-3.87147 16.9437,-46.58851 13.39621,-59.51705z" fill="#0d0d0d" stroke="#000000" stroke-width="0" stroke-linecap="butt"/><g fill="none" stroke-width="3.25" stroke-linecap="round"><path d="M617.07011,436.35412c0,0 29.72733,-0.39807 38.6292,-0.51732c4.7026,-0.06299 7.12869,-2.97801 1.83047,-7.08951c-10.01528,-7.77199 -25.91455,-20.11011 -34.15535,-26.50505c-9.83905,-7.63526 -11.24662,-19.84993 -1.90819,-19.51078c12.61786,0.45816 44.50005,1.61594 44.50005,1.61594" stroke="url(#color-9)"/><path d="M665.99729,387.44957c0,0 -30.50486,-23.67226 -43.10517,-33.45023c-9.83904,-7.63518 -11.24661,-19.84985 -1.90818,-19.51078c12.61782,0.45816 44.50005,1.61603 44.50005,1.61603" stroke="url(#color-10)"/><path d="M665.45477,333.17633c0,0 -30.50486,-23.67218 -43.10516,-33.45023c-9.83904,-7.63518 -11.24661,-19.84985 -1.90819,-19.51078c12.61782,0.45816 44.50005,1.61594 44.50005,1.61594" stroke="url(#color-11)"/><path d="M664.97247,284.93343c0,0 -30.50486,-23.67218 -43.10516,-33.45023c-9.83904,-7.63518 -11.24661,-19.84985 -1.90819,-19.51078c12.61782,0.45816 44.50005,1.61594 44.50005,1.61594" stroke="url(#color-12)"/><path d="M664.40985,228.65005c0,0 -30.50485,-23.67218 -43.10516,-33.45023c-9.83904,-7.63518 -11.24661,-19.84993 -1.90819,-19.51086c12.61782,0.45816 44.50005,1.61603 44.50005,1.61603" stroke="url(#color-13)"/><path d="M663.92755,180.40705c0,0 -30.50486,-23.67226 -43.10517,-33.45023c-9.83904,-7.63518 -11.2466,-19.84985 -1.90818,-19.51078c12.61782,0.45816 44.50005,1.61603 44.50005,1.61603" stroke="url(#color-14)"/><path d="M663.38503,126.13389c0,0 -30.50486,-23.67226 -43.10516,-33.4503c-9.83904,-7.63518 -11.24661,-19.84985 -1.90819,-19.51078c12.61782,0.45816 44.50005,1.61594 44.50005,1.61594" stroke="url(#color-15)"/><path d="M662.90273,77.89091c0,0 -30.50486,-23.67218 -43.10516,-33.45023c-9.83904,-7.63518 -11.24661,-19.84985 -1.90819,-19.51078c12.61782,0.45816 44.50005,1.61594 44.50005,1.61594" stroke="url(#color-16)"/></g><path d="M683.04971,20.46128c-3.54749,12.92854 29.44486,55.64558 13.39621,59.51705c-5.14314,1.24072 -56.99741,-30.37005 -62.43335,-30.64312c-8.3234,-0.41809 -49.94104,7.0296 -55.47953,3.42824c-9.36551,-6.08987 20.46224,-25.64888 23.40582,-36.3766c1.38219,-5.03735 -11.93166,-32.01607 9.02771,-42.38593c7.53025,-3.72566 -1.98108,7.01872 11.15548,10.61275c10.16169,2.78015 14.70037,-56.51111 54.2833,-46.72217c38.34579,9.48301 11.3287,65.49801 6.64436,82.56975z" fill="#0d0d0d" stroke="#000000" stroke-width="0" stroke-linecap="butt"/><path d="M412.35627,453.18063c-0.4744,2.21645 -25.55831,-3.34457 -48.8356,-19.10658c-10.68819,-7.23741 -11.25108,-27.61753 -26.21758,-30.82088c-16.96299,-3.63067 -21.74275,15.04393 -36.5479,18.52527c-26.70588,6.2797 -58.51888,1.48954 -58.07354,-0.59114c0.69223,-3.23417 58.85193,-103.40402 106.41317,-93.22424c47.56129,10.17978 63.95368,121.9834 63.26146,125.21758z" fill="#4c1212" stroke="url(#color-17)" stroke-width="0" stroke-linecap="butt"/><path d="M476.24479,235.47575c-0.50899,2.37807 -49.28323,29.25926 -105.97626,17.12496c-56.69303,-12.1343 -96.46421,-52.56356 -95.95522,-54.94163c0.25128,-1.174 49.49646,14.63253 99.33636,23.95086c51.1161,9.55692 102.85279,12.66177 102.59509,13.86581z" fill="#4c1212" stroke="url(#color-18)" stroke-width="0" stroke-linecap="butt"/><g fill="none" stroke-width="3.25" stroke-linecap="round"><path d="M395.31292,183.71088c0,0 -14.0697,-3.01141 -18.28289,-3.91318c-2.22573,-0.47638 -3.84339,1.40445 -2.01689,5.02671c3.45264,6.84721 8.93375,17.71712 11.77466,23.35117c3.39189,6.7267 2.06588,15.89441 -2.27837,14.60598c-5.8698,-1.7409 -20.70132,-6.13972 -20.70132,-6.13972" stroke="url(#color-19)"/><path d="M364.29867,214.34987c0,0 10.51619,20.85541 14.86001,29.46993c3.39189,6.7267 2.06588,15.89438 -2.27836,14.60598c-5.8698,-1.7409 -20.70132,-6.13972 -20.70132,-6.13972" stroke="url(#color-20)"/><path d="M355.71593,254.44958c0,0 10.5162,20.85542 14.86001,29.46993c3.39189,6.7267 2.06588,15.89438 -2.27836,14.60598c-5.8698,-1.7409 -20.70132,-6.13972 -20.70132,-6.13972" stroke="url(#color-21)"/><path d="M348.08681,290.09378c0,0 10.5162,20.85541 14.86001,29.46993c3.39189,6.72669 2.06589,15.89438 -2.27836,14.60598c-5.8698,-1.7409 -20.70133,-6.13972 -20.70133,-6.13972" stroke="url(#color-22)"/><path d="M339.18619,331.67865c0,0 10.51619,20.85542 14.86001,29.46993c3.39189,6.7267 2.06588,15.89438 -2.27836,14.60598c-5.8698,-1.7409 -20.70132,-6.13972 -20.70132,-6.13972" stroke="url(#color-23)"/><path d="M331.55708,367.32284c0,0 10.5162,20.85542 14.86001,29.46993c3.39189,6.7267 2.06588,15.89438 -2.27837,14.60598c-5.8698,-1.7409 -20.70132,-6.13972 -20.70132,-6.13972" stroke="url(#color-24)"/><path d="M322.97434,407.42255c0,0 10.51619,20.85542 14.86001,29.46994c3.39189,6.7267 2.06589,15.89437 -2.27836,14.60598c-5.8698,-1.7409 -20.70132,-6.13972 -20.70132,-6.13972" stroke="url(#color-25)"/><path d="M315.34523,443.06674c0,0 10.51619,20.85542 14.86001,29.46994c3.39189,6.7267 2.06588,15.89438 -2.27836,14.60598c-5.8698,-1.7409 -20.70132,-6.13972 -20.70132,-6.13972" stroke="url(#color-26)"/></g><g><g fill="none" stroke-width="3.25" stroke-linecap="round"><path d="M472.27744,294.2821c0,0 -24.82979,-1.14382 -34.65657,-1.5965c-7.27276,-0.33502 -5.54332,-8.4495 2.49817,-12.98192c6.73526,-3.79619 19.72986,-11.12034 27.91546,-15.73395c4.33028,-2.44067 2.59719,-4.54363 -1.05302,-4.86925c-6.90973,-0.61638 -29.98442,-2.67474 -29.98442,-2.67474" stroke="url(#color-27)"/><path d="M469.39125,326.63681c0,0 -24.82981,-1.14378 -34.65658,-1.59647c-7.27276,-0.33502 -5.54331,-8.4495 2.49822,-12.98194c10.29832,-5.80443 35.23017,-19.85676 35.23017,-19.85676" stroke="url(#color-28)"/><path d="M466.14426,363.0359c0,0 -24.8298,-1.14382 -34.65658,-1.59651c-7.27276,-0.33502 -5.54331,-8.44949 2.49821,-12.98191c10.29832,-5.80442 35.23017,-19.85676 35.23017,-19.85676" stroke="url(#color-29)"/><path d="M463.25807,395.39061c0,0 -24.82981,-1.14378 -34.65658,-1.59647c-7.27276,-0.33502 -5.54331,-8.4495 2.49818,-12.98196c10.29832,-5.80442 35.23017,-19.85676 35.23017,-19.85676" stroke="url(#color-30)"/><path d="M459.89083,433.13778c0,0 -24.82981,-1.14378 -34.65658,-1.59647c-7.27276,-0.33502 -5.54331,-8.4495 2.49821,-12.98191c10.29832,-5.80442 35.23017,-19.85677 35.23017,-19.85677" stroke="url(#color-31)"/><path d="M457.00463,465.49253c0,0 -24.82981,-1.14378 -34.65658,-1.59647c-7.27276,-0.33502 -5.54331,-8.4495 2.49822,-12.98194c10.29832,-5.80442 35.23017,-19.85677 35.23017,-19.85677" stroke="url(#color-32)"/><path d="M453.75765,501.89162c0,0 -24.82981,-1.14378 -34.65658,-1.59647c-7.27276,-0.33502 -5.54331,-8.44949 2.49821,-12.98191c10.29832,-5.80443 35.23017,-19.85677 35.23017,-19.85677" stroke="url(#color-33)"/><path d="M450.87146,534.24633c0,0 -24.82981,-1.14378 -34.65658,-1.59647c-7.27276,-0.33502 -5.54331,-8.4495 2.49822,-12.98195c10.29832,-5.80442 35.23017,-19.85676 35.23017,-19.85676" stroke="url(#color-34)"/></g><path d="M459.57555,612.55926c-31.34211,5.22011 -31.29577,-41.11721 -39.35798,-39.56957c-10.42246,2.00075 -3.68044,10.92118 -9.30623,7.57297c-15.65868,-9.31933 -3.6895,-29.47707 -4.45982,-33.47391c-1.64051,-8.51178 -23.63548,-25.50455 -15.99237,-29.67151c4.51993,-2.4642 36.40422,5.82955 42.89592,6.00624c4.23964,0.11541 46.43032,-21.31886 50.35132,-20.04509c12.23505,3.97478 -15.97077,35.17412 -13.99371,45.43211c2.61068,13.54542 20.22544,58.69183 -10.13709,63.74877z" fill="#0d0d0d" stroke="#000000" stroke-width="0" stroke-linecap="butt"/></g><g><g fill="none" stroke-width="3.25" stroke-linecap="round"><path d="M295.03357,226.04049c0,0 -21.89567,-7.56687 -28.45234,-9.83278c-3.46371,-1.19701 -5.90573,0.01232 -2.95385,4.01164c5.57999,7.55995 14.43824,19.56135 19.02958,25.78184c5.4818,7.42692 3.73832,15.53839 -3.03441,12.86718c-9.15117,-3.60921 -32.27384,-12.72895 -32.27384,-12.72895" stroke="url(#color-35)"/><path d="M248.03097,244.16528c0,0 16.99571,23.02631 24.01595,32.53752c5.48181,7.42688 3.73833,15.53836 -3.03441,12.86718c-9.15112,-3.60924 -32.27384,-12.72895 -32.27384,-12.72895" stroke="url(#color-36)"/><path d="M236.09463,278.70451c0,0 16.99572,23.02631 24.01595,32.53751c5.48181,7.42688 3.73833,15.53836 -3.03441,12.86718c-9.15112,-3.60924 -32.27384,-12.72895 -32.27384,-12.72895" stroke="url(#color-37)"/><path d="M225.48459,309.40608c0,0 16.99571,23.02631 24.01595,32.53752c5.48181,7.42688 3.73834,15.53835 -3.0344,12.86718c-9.15112,-3.60924 -32.27384,-12.72895 -32.27384,-12.72895" stroke="url(#color-38)"/><path d="M213.10617,345.22454c0,0 16.99571,23.02631 24.01595,32.53751c5.48181,7.42688 3.73833,15.53836 -3.03441,12.86718c-9.15112,-3.60924 -32.27383,-12.72895 -32.27383,-12.72895" stroke="url(#color-39)"/><path d="M202.49614,375.92611c0,0 16.99571,23.02631 24.01595,32.53751c5.48181,7.42688 3.73834,15.53836 -3.0344,12.86719c-9.15113,-3.60924 -32.27384,-12.72895 -32.27384,-12.72895" stroke="url(#color-40)"/><path d="M190.5598,410.46534c0,0 16.99572,23.02631 24.01595,32.53752c5.48181,7.42688 3.73834,15.53836 -3.0344,12.86718c-9.15113,-3.60924 -32.27384,-12.72895 -32.27384,-12.72895" stroke="url(#color-41)"/><path d="M179.94977,441.16691c0,0 16.99571,23.02631 24.01594,32.53752c5.48181,7.42688 3.73834,15.53836 -3.0344,12.86719c-9.15113,-3.60924 -32.27384,-12.72896 -32.27384,-12.72896" stroke="url(#color-42)"/></g><path d="M145.50548,479.41878c6.00269,-8.55008 -6.96161,-48.56127 5.82849,-47.17976c4.09887,0.44272 33.8198,37.2686 37.73527,38.89872c5.99529,2.49597 38.48109,7.97967 41.59634,12.07807c5.26785,6.93036 -21.75559,13.43147 -26.73642,20.52608c-2.33882,3.33138 0.33081,26.62238 -17.77061,28.71582c-6.50344,0.75213 3.29925,-4.6272 -5.39117,-10.71873c-6.72241,-4.71208 -25.64687,37.58466 -52.10645,19.99296c-25.6326,-17.0419 8.91818,-51.02301 16.84454,-62.31313z" fill="#0d0d0d" stroke="#000000" stroke-width="0" stroke-linecap="butt"/></g><path d="M310.3093,263.84596c2.38189,-11.12849 -17.13818,-38.39056 -13.17217,-42.9442c4.99892,-5.73962 33.92399,12.82517 41.11961,13.3914c8.76934,0.69007 19.03739,4.34888 30.48119,6.79825c11.96991,2.56198 23.83201,3.93795 32.84826,7.87532c5.38581,2.35197 36.49905,0.1741 39.27034,5.15276c3.55173,6.38073 -22.26598,21.01849 -25.19583,34.70708c-4.8641,22.72571 -14.52783,73.21334 -31.29084,95.59318c-14.40139,19.22689 -35.30905,12.46893 -48.37927,9.67145c-10.98464,-2.3511 -35.21053,-11.90632 -39.97836,-30.37966c-7.50857,-29.09271 8.76614,-74.0245 14.29704,-99.8656z" fill="#dadada" stroke="#000000" stroke-width="0" stroke-linecap="butt"/><path d="M305.93206,304.22615c6.74804,-31.52772 33.20044,-52.59512 59.08307,-47.05533c25.88263,5.53979 41.39427,35.58898 34.64623,67.1167c-6.74804,31.52773 -33.20043,52.59513 -59.08306,47.05534c-25.88263,-5.53979 -41.39428,-35.58898 -34.64624,-67.1167z" fill="#ababab" stroke="url(#color-43)" stroke-width="0" stroke-linecap="butt"/><path d="M377.14672,401.18112c2.59393,-46.96564 38.51817,-147.42822 46.8087,-159.0752c13.89127,-19.51519 36.27353,-13.17306 54.10893,-7.66665c10.46408,3.23062 -31.7194,82.46582 -64.93059,132.18254c-15.80815,23.6646 2.12553,87.83466 2.12553,87.83466c0,0 -40.71057,-6.23701 -38.11259,-53.27535z" fill="#801d1d" stroke="url(#color-44)" stroke-width="0" stroke-linecap="butt"/><path d="M238.81912,422.46543c0,0 42.62859,-51.20762 37.89171,-79.26957c-9.9516,-58.95508 -16.00699,-148.51509 -5.1373,-147.17953c18.52676,2.27641 41.54411,5.65136 46.23041,29.14279c2.79688,14.02008 -5.54739,120.38574 -22.40465,164.29853c-16.88331,43.98075 -56.58021,33.00777 -56.58021,33.00777z" fill="#801d1d" stroke="url(#color-45)" stroke-width="0" stroke-linecap="butt"/><g stroke-width="0" stroke-linecap="butt"><g stroke="#000000"><path d="M397.89946,209.42651l-4.7111,-33.09992l7.83632,-1.11533l4.71111,33.09992z" fill="#2f323e"/><path d="M387.49999,175.49121c-4.70529,-5.49871 -8.34863,-27.46002 -8.34863,-27.46002l26.65767,-4.04633c0,0 1.93827,21.50841 0.21629,28.20984c-1.16112,4.51871 -5.87394,4.65083 -9.27557,5.13497c-2.53469,0.36074 -7.2575,0.48967 -9.2497,-1.83849z" fill="#2f323e"/><g><path d="M448.92537,114.888c-2.8172,-6.48242 -6.32258,-9.59124 -8.53192,-14.528c-2.08474,-4.65834 -2.89796,-11.22051 -4.71846,-14.78021c-4.49908,-8.79723 -8.26197,-14.72462 -9.1018,-20.73088c-0.52438,-3.75036 2.02027,-10.37705 2.54366,-13.6704c0.57275,-3.6038 11.17754,-5.53177 18.03097,-3.27288c5.96672,1.96663 7.78043,7.39088 14.30981,14.03381c2.92096,2.97174 10.89437,9.87874 13.49471,13.68193c4.31275,6.30777 3.82723,10.83401 5.91057,17.62379c1.74554,5.68885 7.98926,13.56166 10.19444,20.1578c1.02918,3.07842 -1.53651,5.03587 -0.91648,7.89486c0.74852,3.45147 6.16889,13.9365 6.67502,17.06723c1.43721,8.89022 -1.25374,12.08602 -1.91523,17.83262c-0.78505,6.82038 5.10854,20.32481 3.15403,24.54686c-2.8553,6.16796 -13.32148,8.76452 -17.21946,9.60987c-3.82684,0.82992 -8.3601,5.27231 -12.86312,1.58239c-3.4842,-2.85509 -7.36877,-10.6263 -10.69391,-19.21015c-1.98168,-5.11562 -3.77285,-4.95941 -5.47264,-11.25312c-1.01495,-3.75792 -1.98308,-13.35192 -2.97924,-17.94539c-1.68101,-7.75123 6.50607,-13.89755 0.0991,-28.64021z" fill="#a3a3a3"/><path d="M434.72562,56.55413c3.00397,-1.26546 7.93976,3.64446 11.02432,10.96667c3.0846,7.32221 3.14994,14.28389 0.14598,15.54936c-3.00397,1.26546 -7.93975,-3.64446 -11.02435,-10.96668c-3.0846,-7.32221 -3.14993,-14.28389 -0.14597,-15.54939z" fill="#0d0d0d"/></g><path d="M438.63173,63.34094c1.93247,0.44183 3.92677,3.04847 4.79311,4.87536c0.62137,1.31039 1.49509,3.94937 1.16754,5.25721c-1.99604,7.97035 -20.04569,13.47604 -23.83248,5.49032c-3.54183,-7.46917 9.97108,-17.4292 17.8718,-15.62289z" fill="#2f323e"/><g><path d="M342.68816,161.38506c0.32499,4.689 2.07211,14.17208 2.14596,18.06394c0.12368,6.51804 -1.64,6.86776 -2.11562,12.33318c-0.79813,9.17073 -2.36018,17.71717 -4.90945,21.43097c-3.29467,4.79977 -8.88743,1.7986 -12.79382,2.06937c-3.97905,0.27578 -14.75407,0.70249 -19.2169,-4.4239c-3.05488,-3.50912 -1.16318,-18.12162 -3.81999,-24.45209c-2.23853,-5.33383 -5.71425,-7.65196 -6.8146,-16.59009c-0.3875,-3.14759 1.89224,-14.72861 1.64805,-18.25182c-0.20227,-2.91847 -3.21221,-4.08235 -3.08281,-7.32566c0.27724,-6.94947 4.07646,-16.2517 4.16545,-22.20165c0.1062,-7.10146 -1.62288,-11.31244 0.75872,-18.57304c1.43595,-4.37771 7.16561,-13.23504 9.14142,-16.90373c4.41664,-8.20089 4.64493,-13.91574 9.82604,-17.46908c5.95106,-4.08138 16.67261,-5.18876 18.22811,-1.88785c1.42153,3.01656 5.71403,8.67013 6.25679,12.41781c0.86932,6.00206 -1.09037,12.74393 -2.95631,22.44708c-0.75502,3.92624 0.29496,10.45471 -0.40733,15.50977c-0.74422,5.35713 -3.24303,9.32055 -4.13971,16.33154c-2.03927,15.94476 7.53759,19.56275 8.08599,27.4752z" fill="#a3a3a3"/><path d="M336.16069,88.90321c-0.91915,7.89207 -4.289,13.98415 -7.52678,13.60704c-3.23778,-0.37712 -5.11737,-7.08056 -4.19823,-14.97259c0.91915,-7.89207 4.28901,-13.98415 7.52679,-13.60704c3.23778,0.37712 5.11737,7.08057 4.19823,14.97259z" fill="#0d0d0d"/></g><path d="M351.62603,91.55389c-1.4083,8.72511 -20.27735,8.47406 -24.41792,1.37714c-0.67943,-1.16453 -0.57671,-3.94246 -0.34563,-5.37419c0.32221,-1.99604 1.51005,-5.05564 3.24251,-6.01907c7.08303,-3.93895 22.83819,1.85538 21.521,10.01611z" fill="#2f323e"/><path d="M451.07096,148.09848c0.22707,1.59535 -26.479,16.94217 -54.77431,20.96817c-28.25206,4.01985 -58.09306,-3.27864 -58.31979,-4.87153c-0.22595,-1.58747 29.19651,4.14417 57.35092,0.13022c28.38977,-4.04751 55.51531,-17.82759 55.74312,-16.22682z" fill="#686e88"/><path d="M450.54543,147.36035c0.62983,4.42538 5.97828,78.33742 -44.9171,85.58134c-50.89537,7.24391 -67.89877,-67.53019 -68.52865,-71.95557c-0.62983,-4.42538 15.35237,63.17381 66.24775,55.92989c50.89537,-7.24391 46.56816,-73.98103 47.19804,-69.55566z" fill="#dadada"/><path d="M392.2916,186.49294l-4.47481,-31.43974l11.8023,-1.6798l4.47481,31.43973z" fill="#24262f"/><path d="M327.75927,127.20966c-4.80614,-33.76772 18.67186,-65.03793 52.43954,-69.84412c33.76769,-4.80614 65.03797,18.67182 69.84412,52.43954c4.80614,33.76767 -117.47749,51.17226 -122.28363,17.40457z" fill="#dadada"/><path d="M338.9161,119.90725c-2.06725,-14.52433 8.03122,-27.9744 22.55551,-30.04166c14.52433,-2.06725 27.97444,8.03119 30.04166,22.55551c2.06725,14.52433 -8.03123,27.9744 -22.55556,30.04165c-14.52433,2.06725 -27.97439,-8.03122 -30.04165,-22.55551z" fill="#000000"/><path d="M381.85493,114.84288c-2.06725,-14.52433 8.03118,-27.97444 22.55551,-30.04166c14.52433,-2.06725 27.9744,8.03123 30.04166,22.55551c2.06725,14.52433 -8.03118,27.97439 -22.55551,30.04165c-14.52433,2.06725 -27.9744,-8.03118 -30.04166,-22.55551z" fill="#000000"/><path d="M459.63145,115.56685c1.12503,8.71625 -14.60477,36.11655 -65.91427,43.41937c-51.30945,7.30287 -72.39937,-16.27524 -73.75548,-24.95856c-4.20256,-26.90895 17.96142,0.75283 69.27086,-6.55003c51.30945,-7.30287 66.77079,-40.01938 70.39887,-11.91084z" fill="#ababab"/><path d="M371.15361,136.48834c-3.27263,-22.99329 0.9858,-78.01374 7.9443,-79.00413c6.95851,-0.99039 27.91438,45.59752 31.187,68.59082c3.27263,22.99329 -35.85868,33.4066 -39.1313,10.41335z" fill="#ababab"/><path d="M411.37631,123.23494c0.24203,1.7004 -6.34604,23.15362 -18.31972,24.85784c-11.97368,1.70421 -24.79886,-16.9859 -25.0409,-18.68633c-0.24203,-1.7004 43.11861,-7.8719 43.36062,-6.17151z" fill="#1d1d1d"/><g><path d="M419.09734,-1.97119c1.08731,7.63927 -18.84453,16.79443 -44.51903,20.44867c-25.67447,3.65423 -47.36915,0.42374 -48.45646,-7.21549c-0.17982,-1.26358 -0.17781,-5.07438 3.94795,-6.52429c15.93841,-5.60128 61.87236,-11.82572 81.64741,-10.85681c6.05286,0.29655 7.16744,2.65379 7.38009,4.14792z" fill="#101010"/><path d="M418.76783,-0.78001c2.33719,16.42092 4.02511,43.08301 -11.74982,56.54486c-11.19984,9.5576 -38.15357,8.53267 -48.81208,10.04968c-25.67102,3.65375 -28.40458,-25.28375 -32.40113,-53.36316c-1.43873,-10.10839 7.41079,-1.84074 22.42892,-6.86613c12.57473,-4.20776 31.36561,-1.25345 43.75444,-5.77886c13.91618,-5.08333 25.42647,-10.09365 26.77966,-0.58642z" fill="#0d0d0d"/></g><g><path d="M438.67185,46.97784c0.25482,1.79017 -25.85553,6.98701 -58.31899,11.60752c-32.46347,4.62051 -58.98685,6.915 -59.24166,5.12484c-0.25482,-1.79017 25.85553,-6.98701 58.31899,-11.60752c32.46347,-4.62051 58.98685,-6.915 59.24166,-5.12484z" fill="#101010"/><path d="M438.09074,47.32867c0.54771,3.84797 -1.18396,10.39859 -22.74208,16.09533c-15.30575,4.04457 -48.68819,7.65674 -62.16515,9.57495c-32.45916,4.61989 -31.70122,-2.36017 -32.63776,-8.94014c-0.33714,-2.36873 14.24776,-0.44992 33.65213,-3.88843c16.24734,-2.87911 37.29566,-4.02189 53.35741,-6.9552c18.04189,-3.29495 30.21832,-8.11438 30.53543,-5.88651z" fill="#0d0d0d"/></g><path d="M421.34266,39.84308c0.20666,1.45183 1.95074,5.83098 -1.44412,7.52503c-2.87537,1.43479 -7.72761,1.90386 -13.38694,3.2105c-5.80186,1.33954 -12.45912,3.50875 -19.29738,4.33358c-3.45255,0.41642 -6.29116,-0.85798 -9.75053,-0.36559c-5.22132,0.74314 -11.17925,2.73699 -17.19068,3.309c-5.22074,0.49674 -10.53038,-0.41982 -14.82799,0.09159c-5.33819,0.63523 -8.39448,2.13096 -11.48267,1.76166c-5.20714,-0.62266 -2.4888,-5.29198 -2.73751,-7.03932c-0.20853,-1.46505 -2.70006,-6.55847 0.75434,-8.26867c3.20035,-1.5844 8.83141,-4.06847 15.71284,-4.63039c5.01519,-0.40951 10.81358,1.03819 16.23392,0.48729c4.20315,-0.42721 7.00875,-1.69832 11.1779,-2.29172c4.1767,-0.59446 8.40431,-0.06002 12.88816,-1.06884c5.27834,-1.18756 10.44015,-3.94327 15.30953,-5.30579c6.8385,-1.91349 12.93578,-2.23537 16.52864,-1.72857c4.62417,0.65227 1.27979,8.34515 1.5125,9.98026z" fill="#801d1d"/></g><g><path d="M308.57375,122.0221c-4.61217,-26.37827 13.03274,-51.50098 39.41101,-56.11314c26.37827,-4.61217 51.50098,13.03274 56.11314,39.41101c4.61217,26.37827 -13.03274,51.50098 -39.41101,56.11314c-26.37827,4.61217 -51.50098,-13.03274 -56.11314,-39.41101z" fill="url(#color-46)" stroke="url(#color-47)"/><path d="M348.76306,114.81007c-0.74558,-4.26415 2.10679,-8.32535 6.37094,-9.07092c4.26415,-0.74558 8.32535,2.1068 9.07092,6.37095c0.74558,4.26415 -2.1068,8.32535 -6.37095,9.07092c-4.26415,0.74558 -8.32534,-2.1068 -9.07091,-6.37096zM357.40237,119.03075c2.98193,-0.52138 4.97659,-3.36137 4.45521,-6.3433c-0.52138,-2.98193 -3.36138,-4.9766 -6.3433,-4.45522c-2.98193,0.52138 -4.9766,3.36139 -4.45522,6.34331c0.52138,2.98193 3.36137,4.97659 6.34331,4.45521z" fill="#ffffff" stroke="url(#color-48)"/></g><g><path d="M366.72042,113.54293c-4.61217,-26.37827 13.03274,-51.50098 39.41101,-56.11314c26.37827,-4.61217 51.50098,13.03274 56.11314,39.41101c4.61217,26.37827 -13.03274,51.50098 -39.41101,56.11314c-26.37827,4.61217 -51.50098,-13.03274 -56.11314,-39.41101z" fill="url(#color-49)" stroke="url(#color-50)"/><path d="M406.90972,106.3309c-0.74558,-4.26415 2.10679,-8.32535 6.37094,-9.07092c4.26415,-0.74558 8.32535,2.1068 9.07092,6.37095c0.74558,4.26415 -2.1068,8.32535 -6.37095,9.07092c-4.26415,0.74558 -8.32534,-2.1068 -9.07091,-6.37096zM415.54903,110.55159c2.98193,-0.52138 4.97659,-3.36137 4.45521,-6.3433c-0.52138,-2.98193 -3.36138,-4.9766 -6.3433,-4.45522c-2.98193,0.52138 -4.9766,3.36139 -4.45522,6.34331c0.52138,2.98193 3.36137,4.97659 6.34331,4.45521z" fill="#ffffff" stroke="url(#color-51)"/></g></g></g></g></svg>