<svg version="1.1" xmlns="http://www.w3.org/2000/svg" xmlns:xlink="http://www.w3.org/1999/xlink" width="803.04805" height="418.16817" viewBox="0,0,803.04805,418.16817"><defs><linearGradient x1="538.5732" y1="246.72279" x2="538.5732" y2="292.72279" gradientUnits="userSpaceOnUse" id="color-1"><stop offset="0" stop-color="#000000" stop-opacity="0.48235"/><stop offset="1" stop-color="#000000" stop-opacity="0"/></linearGradient><linearGradient x1="403.48987" y1="250.3219" x2="403.48987" y2="282.57191" gradientUnits="userSpaceOnUse" id="color-2"><stop offset="0" stop-color="#412b15"/><stop offset="1" stop-color="#2c1d0e"/></linearGradient><linearGradient x1="674.82321" y1="250.3219" x2="674.82321" y2="282.57191" gradientUnits="userSpaceOnUse" id="color-3"><stop offset="0" stop-color="#412b15"/><stop offset="1" stop-color="#2c1d0e"/></linearGradient><linearGradient x1="538.71547" y1="77.72279" x2="538.71547" y2="243.40093" gradientUnits="userSpaceOnUse" id="color-4"><stop offset="0" stop-color="#000000" stop-opacity="0.48235"/><stop offset="1" stop-color="#000000" stop-opacity="0"/></linearGradient><linearGradient x1="403.0488" y1="77.82189" x2="403.0488" y2="243.50003" gradientUnits="userSpaceOnUse" id="color-5"><stop offset="0" stop-color="#412b15"/><stop offset="1" stop-color="#2c1d0e"/></linearGradient><linearGradient x1="674.38214" y1="77.82189" x2="674.38214" y2="243.50003" gradientUnits="userSpaceOnUse" id="color-6"><stop offset="0" stop-color="#412b15"/><stop offset="1" stop-color="#2c1d0e"/></linearGradient><linearGradient x1="-40.86111" y1="179.24932" x2="-1.11111" y2="179.24932" gradientUnits="userSpaceOnUse" id="color-7"><stop offset="0" stop-color="#000000"/><stop offset="1" stop-color="#000000" stop-opacity="0"/></linearGradient><linearGradient x1="762.14715" y1="180.00007" x2="722.39715" y2="180.00007" gradientUnits="userSpaceOnUse" id="color-8"><stop offset="0" stop-color="#000000"/><stop offset="1" stop-color="#000000" stop-opacity="0"/></linearGradient><linearGradient x1="357.78145" y1="387.95803" x2="357.78145" y2="367.2953" gradientUnits="userSpaceOnUse" id="color-9"><stop offset="0" stop-color="#000000"/><stop offset="1" stop-color="#000000" stop-opacity="0"/></linearGradient><linearGradient x1="359.21556" y1="-29.45939" x2="359.21556" y2="-8.79666" gradientUnits="userSpaceOnUse" id="color-10"><stop offset="0" stop-color="#000000"/><stop offset="1" stop-color="#000000" stop-opacity="0"/></linearGradient></defs><g transform="translate(40.9009,29.45939)"><g stroke-miterlimit="10"><path d="M-39.3994,386.45649v-412.91291h798.7988v412.91291z" fill="#8c7b56" stroke="#2b2b2b" stroke-width="0"/><path d="M-40.9009,265.33484v-136.63664h798.7988v136.63664z" fill="#8c7238" stroke="#2b2b2b" stroke-width="0"/><g><g><g><path d="M32.1637,243.50003v-126h268v126z" fill-opacity="0.96863" fill="#ffffff" stroke="#000000" stroke-width="0"/><path d="M32.1637,142.50004v-26h268v26z" fill="#757fff" stroke="#9e9e9e" stroke-width="0"/><path d="M68.16368,129.50004c0,-2.76142 2.23858,-5 5,-5c2.76142,0 5,2.23858 5,5c0,2.76142 -2.23858,5 -5,5c-2.76142,0 -5,-2.23858 -5,-5z" fill-opacity="0.96863" fill="#5a5a5a" stroke="none" stroke-width="0.5"/><path d="M255.1637,129.50004c0,-2.76142 2.23858,-5 5,-5c2.76142,0 5,2.23858 5,5c0,2.76142 -2.23858,5 -5,5c-2.76142,0 -5,-2.23858 -5,-5z" fill-opacity="0.96863" fill="#5a5a5a" stroke="none" stroke-width="0.5"/></g><text transform="translate(95.47797,135.05294) scale(0.42045,0.42045)" font-size="40" xml:space="preserve" fill="#ffffff" stroke="none" stroke-width="1" font-family="&quot;GovtAgentBB&quot;, Serif" font-weight="normal" text-anchor="start"><tspan x="0" dy="0">A.S.C Tools Bench</tspan></text></g><text transform="translate(41.43375,177.17873) scale(0.5,0.5)" font-size="40" xml:space="preserve" fill="#000000" stroke="none" stroke-width="1" font-family="&quot;GovtAgentBB&quot;, Serif" font-weight="normal" text-anchor="start"><tspan x="0" dy="0">   Allow You To Change The</tspan><tspan x="0" dy="46.150000000000006px">Tool's Function To Another</tspan><tspan x="0" dy="46.150000000000006px">                             Job</tspan></text></g><g stroke-width="0"><path d="M389.0732,292.72279l-19,-46h337l-20,46z" fill="url(#color-1)" stroke="#2b2b2b"/><path d="M396.36487,282.57191l-13,-32.25h40.25l-9.75,32z" fill="url(#color-2)" stroke="#2b2b2b"/><path d="M664.44821,282.32191l-9.75,-32h40.25l-13,32.25z" fill="url(#color-3)" stroke="#2b2b2b"/><path d="M389.21547,243.40093l-19,-165.67813h337l-20,165.67813z" fill="url(#color-4)" stroke="#2b2b2b"/><path d="M395.9238,243.50003l-13,-165.67813h40.25l-9.75,164.3938z" fill="url(#color-5)" stroke="#2b2b2b"/><path d="M664.00714,242.2157l-9.75,-164.3938h40.25l-13,165.67813z" fill="url(#color-6)" stroke="#2b2b2b"/><path d="M370.46547,257.44691v-19.5h336.5v19.5z" fill="#52361a" stroke="#2b2b2b"/><path d="M370.0732,89.00002v-21c0,0 114.21367,-12 171.67605,-12c54.73863,0 165.32395,12 165.32395,12v21z" fill="#52361a" stroke="none"/></g><path d="M495.14433,82.33335v-19h87v19z" fill="#2e558c" stroke="none" stroke-width="0"/><text transform="translate(511.82101,76.80199) scale(0.34398,0.34398)" font-size="40" xml:space="preserve" fill="#ffffff" stroke="none" stroke-width="1" font-family="&quot;GovtAgentBB&quot;, Serif" font-weight="normal" text-anchor="start"><tspan x="0" dy="0">SCAN ME</tspan></text><g stroke="#000000" stroke-width="0"><path d="M-40.86111,387.95803v-417.41742h39.75v417.41742z" fill="url(#color-7)"/><path d="M722.39715,388.70878v-417.41742h39.75v417.41742z" fill="url(#color-8)"/><path d="M756.46379,387.95803h-797.36469v-20.66273h797.36469z" fill="url(#color-9)"/><path d="M757.8979,-8.79666h-797.36469v-20.66273h797.36469z" fill="url(#color-10)"/></g></g></g></svg>