<svg version="1.1" xmlns="http://www.w3.org/2000/svg" xmlns:xlink="http://www.w3.org/1999/xlink" width="138.8" height="136.19792" viewBox="0,0,138.8,136.19792"><defs><linearGradient x1="364.88104" y1="75.16857" x2="373.08028" y2="101.94118" gradientUnits="userSpaceOnUse" id="color-1"><stop offset="0" stop-color="#000000" stop-opacity="0"/><stop offset="1" stop-color="#000000"/></linearGradient><radialGradient cx="345.58567" cy="99.88567" r="2.85715" gradientUnits="userSpaceOnUse" id="color-2"><stop offset="0" stop-color="#613a2f"/><stop offset="1" stop-color="#613a2f" stop-opacity="0"/></radialGradient><radialGradient cx="349.9902" cy="86.60665" r="2.4" gradientUnits="userSpaceOnUse" id="color-3"><stop offset="0" stop-color="#613a2f"/><stop offset="1" stop-color="#613a2f" stop-opacity="0"/></radialGradient><radialGradient cx="345.95823" cy="91.71108" r="2.25" gradientUnits="userSpaceOnUse" id="color-4"><stop offset="0" stop-color="#613a2f"/><stop offset="1" stop-color="#613a2f" stop-opacity="0"/></radialGradient><radialGradient cx="344.66202" cy="96.18685" r="1.05" gradientUnits="userSpaceOnUse" id="color-5"><stop offset="0" stop-color="#613a2f"/><stop offset="1" stop-color="#613a2f" stop-opacity="0"/></radialGradient><radialGradient cx="344.16513" cy="93.8813" r="0.6" gradientUnits="userSpaceOnUse" id="color-6"><stop offset="0" stop-color="#613a2f"/><stop offset="1" stop-color="#613a2f" stop-opacity="0"/></radialGradient><radialGradient cx="365.6401" cy="113.97354" r="1.4" gradientUnits="userSpaceOnUse" id="color-7"><stop offset="0" stop-color="#613a2f"/><stop offset="1" stop-color="#613a2f" stop-opacity="0"/></radialGradient><radialGradient cx="364.63222" cy="114.43906" r="1.75" gradientUnits="userSpaceOnUse" id="color-8"><stop offset="0" stop-color="#613a2f"/><stop offset="1" stop-color="#613a2f" stop-opacity="0"/></radialGradient><radialGradient cx="362.35778" cy="113.67146" r="1.25" gradientUnits="userSpaceOnUse" id="color-9"><stop offset="0" stop-color="#613a2f"/><stop offset="1" stop-color="#613a2f" stop-opacity="0"/></radialGradient><radialGradient cx="367.67832" cy="114.29056" r="1.6" gradientUnits="userSpaceOnUse" id="color-10"><stop offset="0" stop-color="#613a2f"/><stop offset="1" stop-color="#613a2f" stop-opacity="0"/></radialGradient><radialGradient cx="362.62819" cy="114.89595" r="0.8" gradientUnits="userSpaceOnUse" id="color-11"><stop offset="0" stop-color="#613a2f"/><stop offset="1" stop-color="#613a2f" stop-opacity="0"/></radialGradient><radialGradient cx="360.63456" cy="112.99646" r="0.35" gradientUnits="userSpaceOnUse" id="color-12"><stop offset="0" stop-color="#613a2f"/><stop offset="1" stop-color="#613a2f" stop-opacity="0"/></radialGradient><radialGradient cx="370.31783" cy="115.41703" r="0.35" gradientUnits="userSpaceOnUse" id="color-13"><stop offset="0" stop-color="#613a2f"/><stop offset="1" stop-color="#613a2f" stop-opacity="0"/></radialGradient><radialGradient cx="394.14216" cy="84.95523" r="1.7" gradientUnits="userSpaceOnUse" id="color-14"><stop offset="0" stop-color="#613a2f"/><stop offset="1" stop-color="#613a2f" stop-opacity="0"/></radialGradient><radialGradient cx="394.44219" cy="88.83756" r="2.1" gradientUnits="userSpaceOnUse" id="color-15"><stop offset="0" stop-color="#613a2f"/><stop offset="1" stop-color="#613a2f" stop-opacity="0"/></radialGradient><radialGradient cx="393.98142" cy="86.99157" r="1.8" gradientUnits="userSpaceOnUse" id="color-16"><stop offset="0" stop-color="#613a2f"/><stop offset="1" stop-color="#613a2f" stop-opacity="0"/></radialGradient><radialGradient cx="394.29906" cy="91.44371" r="0.85" gradientUnits="userSpaceOnUse" id="color-17"><stop offset="0" stop-color="#613a2f"/><stop offset="1" stop-color="#613a2f" stop-opacity="0"/></radialGradient><radialGradient cx="393.35335" cy="89.38018" r="0.45" gradientUnits="userSpaceOnUse" id="color-18"><stop offset="0" stop-color="#613a2f"/><stop offset="1" stop-color="#613a2f" stop-opacity="0"/></radialGradient><radialGradient cx="396.17435" cy="91.07857" r="0.25" gradientUnits="userSpaceOnUse" id="color-19"><stop offset="0" stop-color="#613a2f"/><stop offset="1" stop-color="#613a2f" stop-opacity="0"/></radialGradient><radialGradient cx="388.24063" cy="105.6401" r="0.4" gradientUnits="userSpaceOnUse" id="color-20"><stop offset="0" stop-color="#613a2f"/><stop offset="1" stop-color="#613a2f" stop-opacity="0"/></radialGradient><radialGradient cx="389.68264" cy="104.88472" r="0.3" gradientUnits="userSpaceOnUse" id="color-21"><stop offset="0" stop-color="#613a2f"/><stop offset="1" stop-color="#613a2f" stop-opacity="0"/></radialGradient><linearGradient x1="345.4742" y1="105.42223" x2="354.73011" y2="102.58756" gradientUnits="userSpaceOnUse" id="color-22"><stop offset="0" stop-color="#603b2f" stop-opacity="0"/><stop offset="1" stop-color="#603b2f"/></linearGradient><linearGradient x1="388.79721" y1="90.93331" x2="397.1422" y2="88.37762" gradientUnits="userSpaceOnUse" id="color-23"><stop offset="0" stop-color="#603b2f"/><stop offset="1" stop-color="#603b2f" stop-opacity="0"/></linearGradient><radialGradient cx="388.92219" cy="88.50781" r="1.72727" gradientUnits="userSpaceOnUse" id="color-24"><stop offset="0" stop-color="#000000" stop-opacity="0"/><stop offset="1" stop-color="#000000"/></radialGradient><radialGradient cx="352.24845" cy="99.99207" r="1.72727" gradientUnits="userSpaceOnUse" id="color-25"><stop offset="0" stop-color="#000000" stop-opacity="0"/><stop offset="1" stop-color="#000000"/></radialGradient><linearGradient x1="371.45708" y1="-9.13247" x2="386.65556" y2="40.4944" gradientUnits="userSpaceOnUse" id="color-26"><stop offset="0" stop-color="#2f1c17"/><stop offset="1" stop-color="#35201a"/></linearGradient><linearGradient x1="310.70644" y1="9.47273" x2="325.90492" y2="59.09959" gradientUnits="userSpaceOnUse" id="color-27"><stop offset="0" stop-color="#2f1c17"/><stop offset="1" stop-color="#35201a"/></linearGradient><radialGradient cx="332.93579" cy="56.72905" r="6.32559" gradientUnits="userSpaceOnUse" id="color-28"><stop offset="0" stop-color="#d27e67"/><stop offset="1" stop-color="#bf735e"/></radialGradient><radialGradient cx="380.1958" cy="42.77833" r="6.32559" gradientUnits="userSpaceOnUse" id="color-29"><stop offset="0" stop-color="#d27e67"/><stop offset="1" stop-color="#bf735e"/></radialGradient><radialGradient cx="371.17852" cy="61.18031" r="12.03866" gradientUnits="userSpaceOnUse" id="color-30"><stop offset="0" stop-color="#000000" stop-opacity="0"/><stop offset="1" stop-color="#000000"/></radialGradient><radialGradient cx="366.71614" cy="84.56238" r="17.21659" gradientUnits="userSpaceOnUse" id="color-31"><stop offset="0" stop-color="#724538"/><stop offset="1" stop-color="#683f33"/></radialGradient><radialGradient cx="357.72761" cy="86.49434" r="2.95" gradientUnits="userSpaceOnUse" id="color-32"><stop offset="0" stop-color="#613a2f"/><stop offset="1" stop-color="#613a2f" stop-opacity="0"/></radialGradient><radialGradient cx="358.30664" cy="82.23819" r="2.05" gradientUnits="userSpaceOnUse" id="color-33"><stop offset="0" stop-color="#613a2f"/><stop offset="1" stop-color="#613a2f" stop-opacity="0"/></radialGradient><radialGradient cx="355.4531" cy="85.72672" r="1.8" gradientUnits="userSpaceOnUse" id="color-34"><stop offset="0" stop-color="#613a2f"/><stop offset="1" stop-color="#613a2f" stop-opacity="0"/></radialGradient><radialGradient cx="357.06187" cy="83.97902" r="1.95" gradientUnits="userSpaceOnUse" id="color-35"><stop offset="0" stop-color="#613a2f"/><stop offset="1" stop-color="#613a2f" stop-opacity="0"/></radialGradient><radialGradient cx="361.99329" cy="85.39712" r="0.65" gradientUnits="userSpaceOnUse" id="color-36"><stop offset="0" stop-color="#613a2f"/><stop offset="1" stop-color="#613a2f" stop-opacity="0"/></radialGradient><radialGradient cx="356.33936" cy="88.27907" r="0.2" gradientUnits="userSpaceOnUse" id="color-37"><stop offset="0" stop-color="#613a2f"/><stop offset="1" stop-color="#613a2f" stop-opacity="0"/></radialGradient><radialGradient cx="353.17265" cy="83.91511" r="0.25" gradientUnits="userSpaceOnUse" id="color-38"><stop offset="0" stop-color="#613a2f"/><stop offset="1" stop-color="#613a2f" stop-opacity="0"/></radialGradient><radialGradient cx="380.22771" cy="70.66158" r="1.1" gradientUnits="userSpaceOnUse" id="color-39"><stop offset="0" stop-color="#613a2f"/><stop offset="1" stop-color="#613a2f" stop-opacity="0"/></radialGradient><radialGradient cx="386.64031" cy="72.30586" r="0.25" gradientUnits="userSpaceOnUse" id="color-40"><stop offset="0" stop-color="#613a2f"/><stop offset="1" stop-color="#613a2f" stop-opacity="0"/></radialGradient><radialGradient cx="382.69758" cy="65.40802" r="0.7" gradientUnits="userSpaceOnUse" id="color-41"><stop offset="0" stop-color="#613a2f"/><stop offset="1" stop-color="#613a2f" stop-opacity="0"/></radialGradient><radialGradient cx="354.66742" cy="50.54806" r="2.44444" gradientUnits="userSpaceOnUse" id="color-42"><stop offset="0" stop-color="#3c3148"/><stop offset="1" stop-color="#3c3148" stop-opacity="0"/></radialGradient><radialGradient cx="351.90937" cy="51.21843" r="1.66667" gradientUnits="userSpaceOnUse" id="color-43"><stop offset="0" stop-color="#613a2f"/><stop offset="1" stop-color="#613a2f" stop-opacity="0"/></radialGradient><radialGradient cx="350.02529" cy="52.08593" r="2" gradientUnits="userSpaceOnUse" id="color-44"><stop offset="0" stop-color="#413347"/><stop offset="1" stop-color="#413347" stop-opacity="0"/></radialGradient><radialGradient cx="354.5873" cy="52.37378" r="1.55555" gradientUnits="userSpaceOnUse" id="color-45"><stop offset="0" stop-color="#3b3148"/><stop offset="1" stop-color="#3b3148" stop-opacity="0"/></radialGradient><radialGradient cx="351.69821" cy="53.37479" r="0.88889" gradientUnits="userSpaceOnUse" id="color-46"><stop offset="0" stop-color="#3b3149"/><stop offset="1" stop-color="#3b3149" stop-opacity="0"/></radialGradient><radialGradient cx="356.62191" cy="48.96173" r="0.77778" gradientUnits="userSpaceOnUse" id="color-47"><stop offset="0" stop-color="#613a2f"/><stop offset="1" stop-color="#613a2f" stop-opacity="0"/></radialGradient><radialGradient cx="351.87448" cy="49.77654" r="0.83333" gradientUnits="userSpaceOnUse" id="color-48"><stop offset="0" stop-color="#433346"/><stop offset="1" stop-color="#433346" stop-opacity="0"/></radialGradient><radialGradient cx="357.54056" cy="52.34085" r="0.44445" gradientUnits="userSpaceOnUse" id="color-49"><stop offset="0" stop-color="#613a2f"/><stop offset="1" stop-color="#613a2f" stop-opacity="0"/></radialGradient><radialGradient cx="359.94061" cy="50.50189" r="0.33333" gradientUnits="userSpaceOnUse" id="color-50"><stop offset="0" stop-color="#613a2f"/><stop offset="1" stop-color="#613a2f" stop-opacity="0"/></radialGradient><radialGradient cx="345.02099" cy="52.63078" r="0.27778" gradientUnits="userSpaceOnUse" id="color-51"><stop offset="0" stop-color="#613a2f"/><stop offset="1" stop-color="#613a2f" stop-opacity="0"/></radialGradient><radialGradient cx="340.9312" cy="75.32312" r="1.83333" gradientUnits="userSpaceOnUse" id="color-52"><stop offset="0" stop-color="#613a2f"/><stop offset="1" stop-color="#613a2f" stop-opacity="0"/></radialGradient><radialGradient cx="339.95836" cy="72.71596" r="1.44445" gradientUnits="userSpaceOnUse" id="color-53"><stop offset="0" stop-color="#613a2f"/><stop offset="1" stop-color="#613a2f" stop-opacity="0"/></radialGradient><radialGradient cx="339.2084" cy="74.63058" r="1.44444" gradientUnits="userSpaceOnUse" id="color-54"><stop offset="0" stop-color="#613a2f"/><stop offset="1" stop-color="#613a2f" stop-opacity="0"/></radialGradient><radialGradient cx="339.99356" cy="77.00473" r="1.22222" gradientUnits="userSpaceOnUse" id="color-55"><stop offset="0" stop-color="#613a2f"/><stop offset="1" stop-color="#613a2f" stop-opacity="0"/></radialGradient><radialGradient cx="338.46768" cy="72.59146" r="0.38889" gradientUnits="userSpaceOnUse" id="color-56"><stop offset="0" stop-color="#613a2f"/><stop offset="1" stop-color="#613a2f" stop-opacity="0"/></radialGradient><radialGradient cx="342.51712" cy="74.43068" r="0.66667" gradientUnits="userSpaceOnUse" id="color-57"><stop offset="0" stop-color="#613a2f"/><stop offset="1" stop-color="#613a2f" stop-opacity="0"/></radialGradient><radialGradient cx="343.59061" cy="93.68252" r="1.66666" gradientUnits="userSpaceOnUse" id="color-58"><stop offset="0" stop-color="#613a2f"/><stop offset="1" stop-color="#613a2f" stop-opacity="0"/></radialGradient><radialGradient cx="343.03748" cy="91.87642" r="1.16666" gradientUnits="userSpaceOnUse" id="color-59"><stop offset="0" stop-color="#613a2f"/><stop offset="1" stop-color="#613a2f" stop-opacity="0"/></radialGradient><linearGradient x1="348.84794" y1="21.82226" x2="356.81896" y2="47.84964" gradientUnits="userSpaceOnUse" id="color-60"><stop offset="0" stop-color="#0a0a0a"/><stop offset="1" stop-color="#090909"/></linearGradient><radialGradient cx="361.03548" cy="76.09865" r="1.1177" gradientUnits="userSpaceOnUse" id="color-61"><stop offset="0" stop-color="#ffffff"/><stop offset="1" stop-color="#ffffff" stop-opacity="0"/></radialGradient><radialGradient cx="351.25" cy="67.73184" r="20.05776" gradientUnits="userSpaceOnUse" id="color-62"><stop offset="0" stop-color="#000000" stop-opacity="0.59216"/><stop offset="1" stop-color="#000000" stop-opacity="0"/></radialGradient><radialGradient cx="371.75" cy="61.3985" r="17" gradientUnits="userSpaceOnUse" id="color-63"><stop offset="0" stop-color="#000000" stop-opacity="0.59216"/><stop offset="1" stop-color="#000000" stop-opacity="0"/></radialGradient><radialGradient cx="351.25" cy="67.73184" r="23.16667" gradientUnits="userSpaceOnUse" id="color-64"><stop offset="0" stop-color="#ffffff" stop-opacity="0.59216"/><stop offset="1" stop-color="#ffffff" stop-opacity="0"/></radialGradient><radialGradient cx="351.25" cy="67.73184" r="23.16667" gradientUnits="userSpaceOnUse" id="color-65"><stop offset="0" stop-color="#ffffff" stop-opacity="0.59216"/><stop offset="1" stop-color="#ffffff" stop-opacity="0"/></radialGradient><radialGradient cx="351.25" cy="67.73184" r="4.41667" gradientUnits="userSpaceOnUse" id="color-66"><stop offset="0" stop-color="#ffffff" stop-opacity="0.59216"/><stop offset="1" stop-color="#ffffff" stop-opacity="0"/></radialGradient></defs><g transform="translate(-293.8,11.99942)"><g data-paper-data="{&quot;isPaintingLayer&quot;:true}" fill-rule="nonzero" stroke-linejoin="miter" stroke-miterlimit="10" stroke-dasharray="" stroke-dashoffset="0" style="mix-blend-mode: normal"><path d="M293.8,124.1985v-133.2h138.8v133.2z" fill="#ffffff" stroke="#000000" stroke-width="0" stroke-linecap="butt"/><g><path d="M389.53173,89.19568c1.85985,6.07287 -5.0337,13.56882 -15.39718,16.74268c-10.36347,3.17387 -20.27243,0.82377 -22.13227,-5.2491c-1.85985,-6.07287 5.0337,-13.56882 15.39718,-16.74269c10.36347,-3.17387 20.27243,-0.82377 22.13227,5.2491z" fill="#40261f" stroke="#291814" stroke-width="1" stroke-linecap="butt"/><g><g><g data-paper-data="{&quot;index&quot;:null}" stroke="#292929" stroke-width="0.5"><path d="M362.24476,110.06018c-0.49586,0.02374 -1.65432,-2.29692 -1.65432,-2.29692l-0.95253,-19.90116c0,0 0.91363,-2.79499 1.40947,-2.81873c0.55807,-0.02671 1.77438,2.66634 1.77438,2.66634l0.95254,19.90116c0,0 -0.97147,2.4226 -1.52954,2.44931z" fill="#686868" stroke-linecap="butt"/><path d="M363.48859,107.52293l-2.84841,0.38645" fill="none" stroke-linecap="round"/><path d="M362.40878,87.81544l-2.58794,0.12387" fill="none" stroke-linecap="round"/><path d="M360.29263,97.79631l2.77077,-2.00849" fill="none" stroke-linecap="round"/><path d="M361.24972,92.12292c0.22567,-0.01081 0.41531,0.1201 0.42355,0.29237c0.00824,0.17227 -0.16802,0.32067 -0.39369,0.33149c-0.22568,0.0108 -0.41532,-0.12009 -0.42356,-0.29237c-0.00825,-0.17227 0.16802,-0.32069 0.3937,-0.33149z" fill="#686868" stroke-linecap="butt"/><path d="M361.85775,101.97337c0.22568,-0.0108 0.41531,0.1201 0.42355,0.29238c0.00824,0.17228 -0.16801,0.32068 -0.39369,0.33149c-0.22568,0.01081 -0.41531,-0.12009 -0.42355,-0.29237c-0.00824,-0.17226 0.168,-0.32068 0.39369,-0.33149z" fill="#686868" stroke-linecap="butt"/></g><g stroke="#292929"><path d="M368.28085,96.39307l-0.69954,-2.28417c0,0 0.37475,-0.9282 1.95018,-1.41068c1.75174,-0.53648 2.83065,-0.05348 2.83065,-0.05348l0.69954,2.28418z" fill="#484848" stroke-width="0.5" stroke-linecap="butt"/><g data-paper-data="{&quot;index&quot;:null}" stroke-width="0.5"><path d="M374.36862,107.66146c-0.53339,0.1663 -2.27677,-1.77621 -2.27677,-1.77621l-5.93037,-19.02089c0,0 0.21895,-2.94686 0.75235,-3.11316c0.47391,-0.14777 2.29068,2.16439 2.29068,2.16439l5.93038,19.02089c0,0 -0.29234,2.57722 -0.76627,2.72498z" fill="#686868" stroke-linecap="butt"/><path d="M375.13834,105.0908l-2.80821,0.61386" fill="none" stroke-linecap="round"/><path d="M366.58573,86.82207l2.47347,-0.77119" fill="none" stroke-linecap="round"/><path d="M371.9965,95.47189l-3.29155,-0.93644" fill="none" stroke-linecap="round"/><path d="M369.15172,90.47079c0.21569,-0.06725 0.43217,0.0117 0.4835,0.17636c0.05135,0.16465 -0.08192,0.35265 -0.29761,0.41991c-0.21569,0.06724 -0.43214,-0.01172 -0.48349,-0.17636c-0.05135,-0.16465 0.08189,-0.35265 0.29758,-0.4199z" fill="#686868" stroke-linecap="butt"/><path d="M371.95883,99.93239c0.21569,-0.06725 0.43216,0.01171 0.4835,0.17636c0.05135,0.16465 -0.08191,0.35265 -0.2976,0.4199c-0.21569,0.06725 -0.43215,-0.0117 -0.48349,-0.17636c-0.05135,-0.16465 0.08191,-0.35265 0.2976,-0.4199z" fill="#686868" stroke-linecap="butt"/></g><path d="M368.37624,95.37611l-0.75365,-1.51227c0,0 0.99164,-0.01319 2.20615,-0.38514c1.01074,-0.30954 2.30907,-0.99767 2.30907,-0.99767l0.22245,1.67495z" fill="#575757" stroke-width="0.25" stroke-linecap="butt"/><path d="M368.85037,98.39184l-1.29682,-4.23444c0,0 0.96995,0.35791 2.36891,-0.07052c1.57749,-0.48311 2.48987,-1.41751 2.48987,-1.41751l1.2437,4.2507c0,0 -1.79339,0.83448 -2.6272,1.08983c-0.76152,0.23322 -2.17846,0.38193 -2.17846,0.38193z" fill="#4c4c4c" stroke-width="0.5" stroke-linecap="butt"/></g><g data-paper-data="{&quot;index&quot;:null}" stroke="#292929" stroke-width="0.5"><path d="M385.07966,101.0914c-0.47732,0.29039 -2.63881,-1.17274 -2.63881,-1.17274l-10.35523,-17.02153c0,0 -0.50036,-2.91232 -0.02304,-3.2027c0.4241,-0.25801 2.7462,1.54603 2.7462,1.54603l10.35524,17.02154c0,0 0.33974,2.5714 -0.08436,2.8294z" fill="#686868" stroke-linecap="butt"/><path d="M382.62837,99.68578l2.57632,-1.2749" fill="none" stroke-linecap="round"/><path d="M372.48704,82.75344l2.21348,-1.34659" fill="none" stroke-linecap="round"/><path d="M379.82944,89.83758l-3.42032,-0.11244" fill="none" stroke-linecap="round"/><path d="M375.85941,85.67313c0.19302,-0.11743 0.42217,-0.09318 0.51181,0.05417c0.08965,0.14735 0.00583,0.362 -0.1872,0.47943c-0.19302,0.11742 -0.42215,0.09316 -0.5118,-0.05418c-0.08965,-0.14734 -0.00583,-0.36199 0.18718,-0.47941z" fill="#686868" stroke-linecap="butt"/><path d="M380.87184,94.17472c0.19302,-0.11743 0.42216,-0.09316 0.5118,0.05418c0.08965,0.14735 0.00583,0.36199 -0.18719,0.47941c-0.19302,0.11743 -0.42215,0.09318 -0.5118,-0.05418c-0.08965,-0.14735 -0.00584,-0.36199 0.18718,-0.47942z" fill="#686868" stroke-linecap="butt"/></g><path d="M358.4645,106.41734l-8.19925,-26.7726l29.23131,-8.95224l8.19925,26.77261z" fill="url(#color-1)" stroke="none" stroke-width="0" stroke-linecap="butt"/><g><g><g><g><g data-paper-data="{&quot;index&quot;:null}" stroke="#291814" stroke-width="1" stroke-linecap="butt"><path d="M396.08547,82.99493c1.324,4.44013 1.16378,10.57382 -0.99821,16.38787c-2.50401,6.73384 -7.78647,13.06746 -18.04666,16.30043c-1.32875,0.41871 -0.12077,1.61846 -1.39254,1.85607c-0.63061,0.11781 -3.76307,-0.66083 -4.37904,-0.58497c-0.64128,0.07895 0.89736,1.86099 0.27241,1.89632c-0.8428,0.04766 -3.84241,-1.66884 -4.6545,-1.69643c-3.69143,-0.12544 -7.05969,-1.00417 -10.05039,-2.4162c-7.60066,-3.58855 -12.05216,-10.57765 -13.61804,-14.86992c-10.01502,-30.78832 45.13317,-42.80893 52.86696,-16.87316zM373.04652,103.95411c3.85324,-1.18008 16.4189,-11.27218 15.23882,-15.12542c-1.13208,-3.69652 -13.5125,-6.66879 -24.69898,-3.24288c-9.59287,2.93787 -9.92774,13.11608 -8.79565,16.81262c1.13208,3.69652 14.55928,2.68776 18.25581,1.55568z" fill="#724538"/><path d="M390.66222,82.46347c1.5469,5.051 3.10434,12.55536 -1.26861,18.92045c-2.42291,3.52669 -6.50074,6.6529 -13.8034,8.93886c-8.63475,2.70278 -14.57169,1.57644 -18.88549,-1.00952c-5.6372,-3.37928 -8.33342,-9.30295 -8.94195,-12.95643c-0.39838,-2.06182 1.79621,-8.14143 17.89115,-12.79905c18.5754,-5.82139 24.51937,-2.69076 25.0083,-1.0943zM371.82341,102.23702c5.9753,-1.91199 14.25532,-5.48192 12.20799,-11.93122c-2.04733,-6.4493 -10.42516,-5.74027 -17.15024,-3.63733c-6.72508,2.10294 -11.76091,6.20721 -9.89227,12.09355c1.86863,5.88635 8.85922,5.38698 14.83452,3.47499z" fill="#4d2e26"/></g><g data-paper-data="{&quot;index&quot;:null}"><path d="M353.20166,102.65384c0,0 0.60575,-0.19709 0.81828,-0.35808c0.30194,-0.22872 0.59394,-0.17498 0.93043,0.03074c1.09485,0.6693 3.88213,2.33987 7.5558,3.12071c3.19876,0.6799 8.08576,0.6133 11.37741,-0.54454c3.46592,-1.18618 6.92079,-3.29694 9.41108,-5.75106c2.78272,-2.74231 4.23859,-5.7222 4.76269,-6.95247c0.17908,-0.42037 0.46085,-0.58788 0.89665,-0.60057c0.27888,-0.00812 0.90635,-0.02637 0.90635,-0.02637c0,0 -0.94832,3.12561 -3.49376,6.49911c-2.55876,3.39114 -6.72831,7.03456 -11.99561,8.70235c-11.61618,3.67804 -21.16931,-4.11981 -21.16931,-4.11981z" fill="#a5a5a5" stroke="#585858" stroke-width="0.5" stroke-linecap="butt"/><path d="M353.43259,103.85551c0,0 -0.05446,-0.17781 -0.23705,-0.77404c-0.15584,-0.50885 0.29209,-0.6253 0.69912,-0.31027c1.36155,1.0538 3.9742,2.75385 7.59945,3.67344c3.36453,0.85346 7.93818,0.74428 12.20906,-0.32935c4.74741,-1.50944 8.77458,-4.25077 11.25662,-6.99367c2.37049,-2.61961 3.61244,-5.24885 4.21024,-6.8509c0.19425,-0.52061 0.65078,-1.009 0.81964,-0.45764c0.18483,0.60351 0.27888,0.91062 0.27888,0.91062c0,0 0.40604,3.37584 -2.07366,6.93429c-2.32373,3.3346 -7.29284,6.79083 -14.28697,8.90014c-5.0803,1.53214 -10.24097,1.35435 -13.56133,0.26897c-4.98582,-1.62978 -6.91398,-4.97161 -6.91398,-4.97161z" fill="#e8e8e8" stroke="#585858" stroke-width="0.5" stroke-linecap="butt"/><path d="M356.66259,105.38963l0.46818,1.36729" fill="none" stroke="#a3a3a3" stroke-width="0.35" stroke-linecap="round"/><path d="M361.37956,108.48232l-0.46819,-1.36728" fill="none" stroke="#a3a3a3" stroke-width="0.35" stroke-linecap="round"/><path d="M366.05637,109.06245l-0.46819,-1.36728" fill="none" stroke="#a3a3a3" stroke-width="0.35" stroke-linecap="round"/><path d="M370.99038,108.7874l-0.46819,-1.36728" fill="none" stroke="#a3a3a3" stroke-width="0.35" stroke-linecap="round"/><path d="M376.34361,107.33808l-0.46819,-1.36728" fill="none" stroke="#a3a3a3" stroke-width="0.35" stroke-linecap="round"/><path d="M381.50888,104.71037l-0.46819,-1.36729" fill="none" stroke="#a3a3a3" stroke-width="0.35" stroke-linecap="round"/><path d="M385.12065,100.2792l0.46817,1.36729" fill="none" stroke="#a3a3a3" stroke-width="0.35" stroke-linecap="round"/><path d="M388.35696,95.87321l0.46819,1.36729" fill="none" stroke="#a3a3a3" stroke-width="0.35" stroke-linecap="round"/></g></g><path d="M347.49799,99.30001c0.46208,1.50879 -0.01952,2.99411 -1.07567,3.31755c-1.05615,0.32345 -2.28692,-0.63745 -2.74899,-2.14623c-0.46208,-1.50879 0.01952,-2.99412 1.07567,-3.31757c1.05615,-0.32345 2.28691,0.63745 2.74899,2.14624z" fill="url(#color-2)" stroke="none" stroke-width="0" stroke-linecap="butt"/><path d="M352.28504,85.90385c0.38006,1.24098 -0.33927,2.56164 -1.60665,2.94978c-1.26738,0.38814 -2.60289,-0.30321 -2.98294,-1.54419c-0.38006,-1.24098 0.33926,-2.56164 1.60665,-2.94978c1.26738,-0.38814 2.60289,0.30321 2.98294,1.54419z" fill="url(#color-3)" stroke="none" stroke-width="0" stroke-linecap="butt"/><path d="M347.7271,91.16936c0.36388,1.18817 -0.1331,2.39391 -1.11004,2.6931c-0.97694,0.29919 -2.06389,-0.42146 -2.42777,-1.60963c-0.36388,-1.18817 0.13311,-2.39392 1.11004,-2.69311c0.97694,-0.29919 2.06389,0.42147 2.42777,1.60964z" fill="url(#color-4)" stroke="none" stroke-width="0" stroke-linecap="butt"/><path d="M345.61819,95.89402c0.16981,0.55448 -0.12062,1.13508 -0.64869,1.2968c-0.52807,0.16173 -1.09383,-0.15666 -1.26364,-0.71114c-0.16981,-0.55448 0.12062,-1.13508 0.64869,-1.2968c0.52807,-0.16173 1.09383,0.15666 1.26364,0.71114z" fill="url(#color-5)" stroke="none" stroke-width="0" stroke-linecap="butt"/><path d="M344.54758,93.76417c0.09704,0.31685 0.00446,0.62614 -0.20677,0.69083c-0.21123,0.06469 -0.46113,-0.13972 -0.55816,-0.45656c-0.09704,-0.31685 -0.00446,-0.62614 0.20677,-0.69083c0.21123,-0.06469 0.46113,0.13972 0.55816,0.45656z" fill="url(#color-6)" stroke="none" stroke-width="0" stroke-linecap="butt"/><path d="M366.73967,113.63678c0.22641,0.73931 -0.08234,1.48941 -0.68962,1.67539c-0.60729,0.18599 -1.28314,-0.26257 -1.50955,-1.00187c-0.22641,-0.73931 0.08234,-1.4894 0.68962,-1.67539c0.60729,-0.18599 1.28314,0.26257 1.50955,1.00187z" fill="url(#color-7)" stroke="none" stroke-width="0" stroke-linecap="butt"/><path d="M366.20989,113.95589c0.28302,0.92414 -0.19389,1.88961 -1.06522,2.15646c-0.87133,0.26685 -1.8071,-0.26599 -2.09013,-1.19012c-0.28302,-0.92414 0.19389,-1.88961 1.06522,-2.15645c0.87133,-0.26685 1.8071,0.26598 2.09013,1.19012z" fill="url(#color-8)" stroke="none" stroke-width="0" stroke-linecap="butt"/><path d="M363.21831,113.40791c0.20216,0.6601 -0.01924,1.3132 -0.49451,1.45875c-0.47526,0.14555 -1.02443,-0.27156 -1.22658,-0.93166c-0.20216,-0.6601 0.01925,-1.3132 0.49451,-1.45875c0.47526,-0.14555 1.02443,0.27156 1.22659,0.93166z" fill="url(#color-9)" stroke="none" stroke-width="0" stroke-linecap="butt"/><path d="M369.02275,113.87882c0.25876,0.84493 -0.1334,1.7142 -0.8759,1.9416c-0.7425,0.2274 -1.55419,-0.2732 -1.81295,-1.11812c-0.25876,-0.84493 0.13338,-1.71421 0.87589,-1.9416c0.7425,-0.2274 1.55419,0.27321 1.81295,1.11813z" fill="url(#color-10)" stroke="none" stroke-width="0" stroke-linecap="butt"/><path d="M363.3931,114.66169c0.08086,0.26404 -0.19606,0.58297 -0.61852,0.71235c-0.42246,0.12938 -0.83049,0.02022 -0.91135,-0.24382c-0.08086,-0.26404 0.19606,-0.58297 0.61852,-0.71234c0.42246,-0.12938 0.83049,-0.02022 0.91135,0.24381z" fill="url(#color-11)" stroke="none" stroke-width="0" stroke-linecap="butt"/><path d="M360.96922,112.89396c0.03235,0.10562 -0.09127,0.23712 -0.27609,0.29372c-0.18482,0.05661 -0.36088,0.01688 -0.39322,-0.08874c-0.03235,-0.10562 0.09127,-0.23712 0.27609,-0.29372c0.18482,-0.05661 0.36087,-0.01688 0.39322,0.08874z" fill="url(#color-12)" stroke="none" stroke-width="0" stroke-linecap="butt"/><path d="M370.6047,115.32917c0.0566,0.18483 -0.02594,0.37399 -0.18436,0.42251c-0.15841,0.04851 -0.33274,-0.06198 -0.38934,-0.24681c-0.0566,-0.18483 0.02594,-0.37399 0.18436,-0.42251c0.15841,-0.04851 0.33274,0.06198 0.38934,0.24681z" fill="url(#color-13)" stroke="none" stroke-width="0" stroke-linecap="butt"/><path d="M395.76765,84.45741c0.27493,0.89772 -0.22995,1.84836 -1.12767,2.12329c-0.89774,0.27493 -1.84835,-0.22994 -2.12329,-1.12767c-0.27493,-0.89772 0.22993,-1.84835 1.12767,-2.12329c0.89774,-0.27493 1.84836,0.22994 2.12329,1.12767z" fill="url(#color-14)" stroke="none" stroke-width="0" stroke-linecap="butt"/><path d="M396.01986,88.35439c0.33963,1.10896 -0.0914,2.22427 -0.96273,2.49111c-0.87133,0.26685 -1.85299,-0.41582 -2.19261,-1.52478c-0.33963,-1.10896 0.09141,-2.22427 0.96273,-2.49111c0.87133,-0.26685 1.85298,0.41582 2.19261,1.52478z" fill="url(#color-15)" stroke="none" stroke-width="0" stroke-linecap="butt"/><path d="M395.27225,86.59625c0.29111,0.95054 -0.05083,1.89808 -0.76373,2.11641c-0.7129,0.21833 -1.5268,-0.37523 -1.81791,-1.32577c-0.29111,-0.95054 0.05082,-1.89809 0.76373,-2.11642c0.7129,-0.21833 1.52681,0.37524 1.81791,1.32578z" fill="url(#color-16)" stroke="none" stroke-width="0" stroke-linecap="butt"/><path d="M395.11181,91.1948c0.13747,0.44886 -0.11497,0.92418 -0.56383,1.06164c-0.44886,0.13747 -0.92418,-0.11498 -1.06164,-0.56383c-0.13747,-0.44886 0.11497,-0.92418 0.56383,-1.06164c0.44886,-0.13747 0.92418,0.11498 1.06164,0.56383z" fill="url(#color-17)" stroke="none" stroke-width="0" stroke-linecap="butt"/><path d="M393.78363,89.24841c0.04852,0.15842 -0.10479,0.34585 -0.34242,0.41862c-0.23764,0.07277 -0.4696,0.00334 -0.51812,-0.15507c-0.04852,-0.15842 0.10479,-0.34585 0.34242,-0.41862c0.23764,-0.07277 0.4696,-0.00334 0.51812,0.15507z" fill="url(#color-18)" stroke="none" stroke-width="0" stroke-linecap="butt"/><path d="M396.41339,91.00536c0.04043,0.13202 -0.03381,0.27181 -0.16583,0.31224c-0.13202,0.04043 -0.27182,-0.03381 -0.31225,-0.16583c-0.04043,-0.13202 0.03381,-0.27182 0.16583,-0.31225c0.13202,-0.04043 0.27182,0.03382 0.31225,0.16584z" fill="url(#color-19)" stroke="none" stroke-width="0" stroke-linecap="butt"/><path d="M388.62309,105.52296c0.0566,0.18483 -0.06875,0.3871 -0.27997,0.45179c-0.21123,0.06469 -0.42835,-0.0327 -0.48496,-0.21752c-0.0566,-0.18483 0.06874,-0.3871 0.27997,-0.45179c0.21123,-0.06469 0.42835,0.0327 0.48496,0.21752z" fill="url(#color-20)" stroke="none" stroke-width="0" stroke-linecap="butt"/><path d="M389.96949,104.79687c0.04043,0.13202 -0.05523,0.27838 -0.21364,0.32689c-0.15841,0.04851 -0.31963,-0.01917 -0.36006,-0.15119c-0.04043,-0.13202 0.05523,-0.27838 0.21365,-0.32689c0.15841,-0.04851 0.31962,0.01917 0.36005,0.15119z" fill="url(#color-21)" stroke="none" stroke-width="0" stroke-linecap="butt"/></g><path d="M386.93727,106.50529l0.47639,1.12297c0,0 -0.64882,-0.51548 -0.84539,-0.09532c-0.1562,0.33385 0.38525,1.86665 0.38525,1.86665c0,0 -1.00554,-1.13971 -1.22568,-0.80781c-0.10395,0.15674 0.06795,2.05725 0.06795,2.05725l-1.36479,-0.86505" data-paper-data="{&quot;index&quot;:null}" fill="none" stroke="#543129" stroke-width="0.5" stroke-linecap="round"/></g><path d="M343.09265,97.32847c-0.89315,-4.51488 4.73301,-3.80936 4.73301,-3.80936c0,0 -1.20993,1.21546 0.13778,5.6161c0.4104,1.34006 1.65159,3.70255 3.08528,5.58606c0.75739,0.99503 1.90411,2.47521 2.95187,3.28683c0.85015,0.65855 1.95115,1.20388 2.48912,1.87669c1.66537,2.08279 1.33595,3.55356 0.19789,3.90209c-0.94969,0.29085 -3.70065,-1.38945 -6.12714,-3.76935c-2.65719,-2.60618 -4.99851,-6.02887 -5.93382,-8.07724c-0.74351,-1.62832 -1.24043,-3.12792 -1.534,-4.61182z" fill="url(#color-22)" stroke="none" stroke-width="0" stroke-linecap="butt"/><path d="M394.55497,80.21585c0.57983,1.4196 1.01812,2.96168 1.34371,4.74555c0.40958,2.24403 0.52,6.41141 -0.04056,10.05382c-0.5119,3.32617 -3.43984,9.45582 -4.29607,9.71804c-1.02606,0.31423 -1.41636,-1.13075 -1.30617,-3.79582c0.01485,-0.35901 0.71081,-1.29326 1.12751,-2.34431c0.58254,-1.46932 0.95451,-3.15867 1.1139,-3.75114c0.33696,-1.2525 0.13447,-2.81663 0.15895,-4.06933c0.04633,-2.37125 -0.3063,-5.04659 -0.7228,-6.40655c-0.42558,-1.38963 -0.9833,-2.27009 -1.40336,-2.86855c-0.92991,-1.32484 -1.66464,-1.35314 -1.66464,-1.35314c0,0 3.92536,-4.2478 5.68952,0.07143z" data-paper-data="{&quot;index&quot;:null}" fill="url(#color-23)" stroke="none" stroke-width="0" stroke-linecap="butt"/></g></g><g><path d="M390.37328,87.96833c0.13232,0.43206 -0.27275,1.12938 -1.18487,1.40872c-0.91213,0.27934 -1.78544,0.06862 -1.91776,-0.36344c-0.13232,-0.43206 0.49984,-1.00877 1.41197,-1.28811c0.91213,-0.27934 1.55835,-0.18923 1.69067,0.24283z" fill="url(#color-24)" stroke="#291814" stroke-width="0.5" stroke-linecap="butt"/><g stroke="#292929"><path d="M383.05864,79.34482l-0.98816,-2.17493c0,0 0.02171,-0.86415 0.91974,-1.27215c0.99852,-0.45367 1.80541,0.03402 1.80541,0.03402l0.98816,2.17494z" fill="#484848" stroke-width="0.5" stroke-linecap="butt"/><g data-paper-data="{&quot;index&quot;:null}" stroke-width="0.5"><path d="M387.74557,88.41008l-8.2961,-18.11441l1.73061,-0.80396l8.29611,18.11441c0,0 0.41328,0.65256 -0.51676,1.07779c-1.01273,0.46304 -1.21385,-0.27384 -1.21385,-0.27384z" fill="#686868" stroke-linecap="butt"/><path d="M389.51481,87.75175l-1.6588,0.49512" fill="none" stroke-linecap="round"/><path d="M382.89274,77.60569l2.33497,0.98129" fill="none" stroke-linecap="round"/><path d="M382.22076,73.78583c0.12267,-0.05699 0.28033,0.02394 0.35215,0.18076c0.07182,0.15681 0.03058,0.33012 -0.09209,0.38711c-0.12267,0.05698 -0.28032,-0.02394 -0.35213,-0.18075c-0.07182,-0.1568 -0.03059,-0.33013 0.09207,-0.3871z" fill="#686868" stroke-linecap="butt"/><path d="M386.25578,82.79229c0.12267,-0.05699 0.28033,0.02394 0.35214,0.18073c0.07182,0.15681 0.03059,0.33012 -0.09208,0.3871c-0.12267,0.05699 -0.28031,-0.02394 -0.35213,-0.18075c-0.07182,-0.15681 -0.03061,-0.33013 0.09206,-0.38711z" fill="#686868" stroke-linecap="butt"/></g><path d="M382.87992,78.38864l-0.8408,-1.44862c0,0 0.63378,0.01715 1.32608,-0.29738c0.57614,-0.26176 1.24768,-0.87197 1.24768,-0.87197l0.53801,1.58619z" fill="#575757" stroke-width="0.25" stroke-linecap="butt"/><path d="M383.89594,81.24671l-1.83186,-4.03194c0,0 0.70742,0.36648 1.50484,0.00418c0.8992,-0.40855 1.26475,-1.2625 1.26475,-1.2625l1.80157,4.0457c0,0 -0.95498,0.73344 -1.43027,0.94937c-0.43408,0.19721 -1.30904,0.29519 -1.30904,0.29519z" fill="#4c4c4c" stroke-width="0.5" stroke-linecap="butt"/></g></g><g data-paper-data="{&quot;index&quot;:null}"><path d="M352.00886,99.20975c0.91213,-0.27934 1.75882,-0.15554 1.89114,0.27652c0.13232,0.43206 -0.47322,1.09569 -1.38534,1.37503c-0.91213,0.27934 -1.63823,-0.07154 -1.77055,-0.5036c-0.13232,-0.43206 0.35262,-0.86861 1.26475,-1.14795z" fill="url(#color-25)" stroke="#291814" stroke-width="0.5" stroke-linecap="butt"/><g stroke="#292929"><path d="M349.02411,89.61726l-0.39927,-2.35529c0,0 0.39541,-0.8559 1.47674,-1.0392c0.97249,-0.16486 1.47439,0.53894 1.47439,0.53894l0.39926,2.35528z" fill="#484848" stroke-width="0.5" stroke-linecap="butt"/><g data-paper-data="{&quot;index&quot;:null}" stroke-width="0.5"><path d="M352.31619,100.15883c-1.00867,0.1685 -1.0317,-0.60356 -1.0317,-0.60356l-3.2705,-19.65353l1.88401,-0.30304l3.27051,19.65351c0,0 0.24602,0.72313 -0.85233,0.90661z" fill="#686868" stroke-linecap="butt"/><path d="M351.33412,99.69752l1.65157,-0.5187" fill="none" stroke-linecap="round"/><path d="M349.75383,89.70377l1.38501,-2.12055" fill="none" stroke-linecap="round"/><path d="M349.55648,84.04223c0.13354,-0.02148 0.26475,0.09901 0.29305,0.26914c0.0283,0.17013 -0.05699,0.32546 -0.19053,0.34694c-0.13355,0.02147 -0.26477,-0.09901 -0.29307,-0.26915c-0.02831,-0.17014 0.057,-0.32547 0.19054,-0.34695z" fill="#686868" stroke-linecap="butt"/><path d="M351.25691,93.7636c0.13355,-0.02147 0.26475,0.09902 0.29305,0.26917c0.0283,0.17014 -0.05698,0.32547 -0.19053,0.34694c-0.13354,0.02148 -0.26475,-0.09901 -0.29306,-0.26915c-0.02832,-0.17011 0.05699,-0.32546 0.19054,-0.34694z" fill="#686868" stroke-linecap="butt"/></g><path d="M349.12858,88.64163l-0.44251,-1.61543c0,0 0.89808,0.12951 1.522,0.02374c0.7497,-0.12708 1.26518,-0.49621 1.26518,-0.49621l0.1146,1.67101z" fill="#575757" stroke-width="0.25" stroke-linecap="butt"/><path d="M351.09673,91.65011c-0.5147,0.08724 -1.71661,0.01438 -1.71661,0.01438l-0.77293,-4.36073c0,0 0.78106,0.5028 1.75483,0.33773c0.86354,-0.14639 1.24442,-0.84614 1.24442,-0.84614l0.74015,4.36628c0,0 -0.77977,0.4088 -1.24984,0.48848z" fill="#4c4c4c" stroke-width="0.5" stroke-linecap="butt"/></g></g></g></g><g><g stroke-width="0.5" stroke-linecap="butt"><path d="M370.76088,44.72993c-2.51822,-1.33161 -0.17113,-5.5573 1.97307,-10.49604c0.9587,-2.20816 1.94774,-4.87349 2.09306,-6.93238c0.04406,-0.62436 -2.96606,-3.4574 -2.54745,-4.77283c0.50569,-1.58904 3.60071,2.31672 3.73872,1.95819c0.90834,-2.35968 1.85924,-4.99161 2.28943,-7.70713c0.24446,-1.5431 -3.76855,-0.86121 -8.48652,-4.05788c-3.44527,-2.33436 -5.4241,-3.45063 -6.27248,-5.11889c-0.294,-0.57812 -0.29801,-1.10327 0.08915,-0.58292c1.90206,2.55639 3.9626,2.97023 6.80061,4.46428c2.72582,1.43498 10.05677,1.07849 10.29794,-3.15668c0.20554,-3.60929 -0.10437,-6.86245 -0.31905,-9.71264c-0.06355,-0.84368 -6.03581,-4.73759 -5.71092,-5.42708c0.57489,-1.22002 2.78323,0.34511 4.13022,0.82944c0.60865,0.21885 1.11514,-0.22171 1.08697,-0.47404c-0.38074,-3.41014 -0.61797,-5.38956 0.19156,-5.2891c0.34684,0.04304 0.487,-0.07328 1.01718,1.09952c2.31175,5.11372 5.33473,14.70364 4.07887,26.98077c-0.28775,2.81297 -0.92833,5.47109 -1.75051,7.91662c-0.08296,0.24674 2.36577,2.84411 4.46168,2.97172c0.69525,0.04233 1.44167,-0.36092 2.20029,-1.02606c0.31507,-0.27624 -0.00676,-1.7767 0.21017,-3.57726c0.25202,-2.09182 0.22912,-2.78774 0.59058,-3.26413c0.26401,-0.34796 0.28825,2.07128 0.66626,3.47141c0.28174,1.04352 1.7395,-0.53878 1.92504,-0.8112c1.9017,-2.79229 3.46443,-5.4684 3.92755,-4.44327c0.62167,1.3761 -1.54647,7.23162 -3.76252,10.41441c-1.36096,1.95469 -4.00121,3.60763 -5.04468,3.99932c-4.15698,1.5604 -7.57514,-1.96186 -7.72234,-1.7053c-0.67773,1.18125 -0.61947,2.7012 -1.41785,4.02443c-1.56768,2.59824 -5.12029,12.33566 -8.73402,10.42476z" fill="url(#color-26)" stroke="#150c0a"/><path d="M379.91264,20.05339c0.22161,0.1157 0.10592,0.33731 0.10592,0.33731l-0.18385,0.34972c-0.92244,2.83499 -1.85932,5.98979 -2.6071,8.99066c-0.79527,2.64363 -2.56299,4.50878 -3.75355,6.85885c0,0 -0.11727,0.2208 -0.33807,0.10354c-0.2208,-0.11727 -0.10353,-0.33806 -0.10353,-0.33806c1.25968,-2.29109 2.93567,-4.14485 3.71292,-6.75644c0.76114,-3.05805 1.80215,-6.12336 2.62611,-9.04676l0.20384,-0.39288c0,0 0.1157,-0.22161 0.33731,-0.1059z" fill="#2d1b16" stroke="none"/><path d="M382.92169,0.23136c0.23904,-0.07321 0.31225,0.16584 0.31225,0.16584l0.08366,0.27319c0.46824,1.52893 0.34733,2.71899 0.08607,4.27396c0,0 -0.01438,0.08561 -0.07665,0.14746c0.19397,0.63335 0.42712,1.39466 0.60187,1.96527c0.94748,3.09377 -0.96223,6.83688 -1.32558,9.96438c-0.75353,1.46929 -0.46046,3.44271 -0.58669,5.04057c-0.12385,1.56764 -0.88179,3.03509 -0.97003,4.56568c-1.05111,2.46975 -1.41436,4.72907 -3.42578,6.64955c0,0 -0.18107,0.17238 -0.35345,-0.00869c-0.17239,-0.18106 0.00869,-0.35345 0.00869,-0.35345c1.94209,-1.84306 2.25238,-4.03323 3.2837,-6.40136c0.0735,-1.50336 0.83966,-2.9503 0.95839,-4.49065c0.12459,-1.61622 -0.17958,-3.67004 0.60669,-5.14675c0.29952,-3.04258 2.24522,-6.67134 1.32599,-9.67287c-0.20916,-0.68298 -0.41833,-1.36595 -0.62749,-2.04893l-0.08366,-0.27319c0,0 -0.07321,-0.23904 0.16583,-0.31225c0.01947,-0.00596 0.03784,-0.00986 0.05516,-0.01197c0.2138,-1.33388 0.29395,-2.38497 -0.12113,-3.74034l-0.08366,-0.27318c0,0 -0.0732,-0.23904 0.16584,-0.31225z" fill="#2d1b16" stroke="none"/><path d="M382.27929,7.61376c0.24986,0.00832 0.24156,0.25817 0.24156,0.25817l-0.0135,0.32475c-0.36971,1.09661 -0.40415,2.27295 -0.78165,3.37966c-0.66266,1.25974 -0.67966,2.79833 -1.37583,4.09238c-0.5025,0.93405 -1.41307,2.02421 -1.53317,3.08116c0,0 -0.04143,0.24653 -0.28797,0.20511c-0.24655,-0.04143 -0.20513,-0.28796 -0.20513,-0.28796c0.40726,-2.02311 1.94472,-5.38348 2.94262,-7.28786c0.36147,-1.07007 0.38815,-2.2128 0.74919,-3.27199l0.00568,-0.25183c0,0 0.00832,-0.24987 0.25818,-0.24155z" fill="#2d1b16" stroke="none"/><path d="M369.79987,12.87821c-0.07321,-0.23904 0.16584,-0.31224 0.16584,-0.31224l0.49424,-0.04622c0.1853,0.15021 0.46068,0.17231 0.6986,0.15512c1.77369,0.64552 6.24725,-0.41138 6.94205,1.69519c0,0 0.0732,0.23904 -0.16584,0.31225c-0.23904,0.07321 -0.31224,-0.16583 -0.31224,-0.16583c-0.44029,-1.60918 -5.14481,-0.81264 -6.5399,-1.34741c-0.31673,0.01101 -0.65708,-0.06673 -0.91835,-0.24612l-0.05214,0.12111c0,0 -0.23904,0.0732 -0.31225,-0.16583z" fill="#2d1b16" stroke="none"/><path d="M377.5987,-5.16542c0.04143,-0.24654 0.28797,-0.20511 0.28797,-0.20511l0.29744,0.05061c2.07101,0.06456 3.50932,-1.75233 4.37325,1.06863c0.68651,2.24164 -0.30984,5.50319 -1.11666,7.74507c0,0 -0.08486,0.23516 -0.32002,0.1503c-0.23516,-0.08486 -0.1503,-0.32002 -0.1503,-0.32002c0.77076,-2.1298 1.75928,-5.30534 1.10891,-7.42894c-0.73465,-2.39881 -2.06905,-0.68084 -3.94285,-0.71732l-0.33261,-0.05524c0,0 -0.24655,-0.04142 -0.20512,-0.28797z" fill="#2d1b16" stroke="none"/><path d="M378.70705,-4.03889c0.07168,-0.2395 0.31119,-0.16782 0.31119,-0.16782l0.01445,0.00433c0.99482,0.30289 1.90394,0.5499 1.70223,1.8961c0,0 -0.04142,0.24655 -0.28797,0.20513c-0.24655,-0.04143 -0.20513,-0.28797 -0.20513,-0.28797c0.20716,-1.06575 -0.63189,-1.12182 -1.35251,-1.33425l-0.01445,-0.00433c0,0 -0.2395,-0.07167 -0.16782,-0.31118z" fill="#2d1b16" stroke="none"/><path d="M395.67274,21.98684c0.07321,0.23904 -0.16584,0.31225 -0.16584,0.31225l-0.1047,0.02963c-0.07669,0.03411 -0.15334,0.07035 -0.22992,0.10857c0.03267,0.02674 0.06129,0.06697 0.07957,0.12667c0.05569,0.18184 -0.06932,0.26773 -0.13232,0.29842c-0.15,3.07637 -2.12821,6.16236 -5.64035,5.57571c-2.00459,-0.74857 -4.84404,-1.52533 -6.97976,-1.88417c0,0 -0.24654,-0.04142 -0.20511,-0.28797c0.04143,-0.24655 0.28797,-0.20511 0.28797,-0.20511c2.15341,0.36181 5.00691,1.14021 7.02638,1.89432c3.22733,0.54663 4.92432,-2.44211 5.01565,-5.21148c-1.25252,0.77174 -2.4631,1.98322 -3.48658,2.95761c0,0 -0.18106,0.17237 -0.35345,-0.00869c-0.17239,-0.18106 0.00869,-0.35345 0.00869,-0.35345c1.29807,-1.23581 2.81051,-2.70515 4.39905,-3.46408l0.1685,-0.05404c0,0 0.23904,-0.07321 0.31225,0.16583z" fill="#2d1b16" stroke="none"/><path d="M388.8121,29.43412c-0.04143,0.24655 -0.28796,0.20512 -0.28796,0.20512l-0.29744,-0.05061c-2.13067,-0.05204 -3.74253,-1.03422 -5.61239,-1.59212c0,0 -0.2395,-0.07169 -0.16781,-0.31119c0.07168,-0.2395 0.31118,-0.16782 0.31118,-0.16782c1.85327,0.55653 3.41526,1.52147 5.51671,1.57341l0.33261,0.05524c0,0 0.24655,0.04142 0.20513,0.28796z" fill="#2d1b16" stroke="none"/><path d="M373.68893,24.35125c0.11726,-0.22079 0.33805,-0.10353 0.33805,-0.10353l0.17843,0.09476c0.51943,0.30175 0.84212,0.81057 0.77897,1.4079c0,0 -0.04142,0.24655 -0.28797,0.20512c-0.24655,-0.04142 -0.20512,-0.28796 -0.20512,-0.28796c0.09173,-0.30418 -0.22519,-0.7493 -0.5204,-0.88348l-0.17842,-0.09475c0,0 -0.22079,-0.11727 -0.10353,-0.33807z" fill="#2d1b16" stroke="none"/></g><g stroke-width="0.5" stroke-linecap="butt"><path d="M338.69612,33.86063c-0.19432,5.00201 -0.12334,11.93126 -1.49569,14.10012c-0.75991,1.20096 -1.52785,-0.78416 -2.10469,-0.83989c-1.41397,-0.13661 0.08165,-4.29225 0.6837,-10.52184c0.03902,-0.4037 -5.46822,-2.48356 -4.89787,-5.05004c0.10885,-0.48982 2.21153,1.94213 3.72448,2.59c0.83583,0.35793 1.35961,-0.17607 1.36712,-0.36916c0.12986,-3.34292 -0.05626,-6.41121 -0.31056,-8.82264c-0.04925,-0.46703 -3.76045,-1.60456 -3.13302,-3.08465c0.16552,-0.39045 0.41975,0.34092 1.45699,0.76037c0.83103,0.33606 1.42079,0.23491 1.40314,0.11026c-0.08295,-0.58592 -0.16443,-1.0987 -0.23739,-1.52747c-0.15841,-0.93088 0.7611,-0.52726 1.15846,0.3029c1.19761,2.50204 2.58205,7.28915 2.38536,12.35202z" fill="#35201a" stroke="#150c0a"/><path d="M329.83997,49.51225c-1.40245,-0.64921 -6.76101,-5.96188 -7.98399,-6.56104c-0.26562,-0.13014 -1.29525,4.26873 -5.61313,5.30379c-1.08387,0.25982 -4.06035,0.32702 -6.2825,-0.53031c-3.61833,-1.39599 -8.69366,-5.03315 -8.94919,-6.52139c-0.19036,-1.10865 2.60295,0.23339 5.74216,1.48187c0.30628,0.12181 2.4001,0.61641 2.04915,-0.40593c-0.47087,-1.37168 -1.80554,-3.38962 -1.39195,-3.24918c0.56624,0.19228 0.93697,0.78167 2.31718,2.37363c1.188,1.37029 1.76161,2.79363 2.17734,2.84607c1.00099,0.12626 1.84523,0.04236 2.39754,-0.38205c1.66501,-1.27941 2.83923,-5.77072 2.63233,-5.92869c-4.46882,-3.41204 -6.34009,-6.53178 -8.20028,-10.69837c-1.87788,-4.20622 -4.46438,-8.45945 -5.42354,-14.05378c-0.21749,-1.26856 -0.03623,-1.25068 0.22702,-1.48056c0.61444,-0.53656 1.52633,1.23623 3.12054,4.27476c0.11797,0.22483 0.78431,0.30621 1.16602,-0.21595c0.84476,-1.15557 1.79793,-3.68892 2.95742,-3.00007c0.65528,0.3893 -2.11221,6.9598 -1.69241,7.69438c1.41821,2.48162 2.98319,5.3504 5.17463,8.22561c2.57146,3.37378 7.98902,0.41932 9.79996,-3.41674c0.1609,-0.34082 -3.21206,-2.75571 -2.42814,-3.5454c0.33294,-0.33539 1.10939,1.06172 1.95806,1.57492c0.58398,0.35316 1.35751,-0.10397 1.41717,-0.25098c1.27956,-3.15314 2.77955,-7.05694 3.08719,-4.58709c0.23131,1.85723 -0.78303,3.89019 -2.33024,7.75353c-2.11874,5.29044 -5.82538,6.97274 -4.75873,8.1143c1.87707,2.00891 4.13873,3.65698 6.21269,5.10332c0.31513,0.21977 0.69217,-4.74935 2.00098,-3.71599c1.08344,0.85541 0.17602,4.88822 0.56216,5.38083c1.27335,1.62443 3.58532,3.27879 5.61615,4.57141c4.54212,2.89103 8.85301,5.07766 7.51234,7.59107c-1.9239,3.60683 -10.32008,-2.47122 -13.07389,-3.74598z" data-paper-data="{&quot;index&quot;:null}" fill="url(#color-27)" stroke="#150c0a"/><path d="M304.25573,14.61179c0.23904,-0.07321 0.31225,0.16584 0.31225,0.16584l0.08367,0.27319c0.50934,1.66311 1.11018,3.27664 1.71737,4.87583l-0.00644,-0.02095c0,0 -0.07342,-0.23898 0.16555,-0.3124c0.23897,-0.07342 0.3124,0.16556 0.3124,0.16556l0.133,0.43299c0.21213,0.65765 0.51467,1.17024 0.84293,1.77297c1.09988,3.32748 4.16282,4.53729 6.06622,7.18852c2.43131,1.97508 4.46229,4.32023 6.6586,6.50465c1.16006,2.17474 2.58761,4.37645 4.01624,6.3821c0,0 0.14504,0.20363 -0.05858,0.34867c-0.20362,0.14504 -0.34867,-0.05858 -0.34867,-0.05858c-0.46411,-0.65158 -0.92701,-1.3235 -1.38041,-2.00819c-0.01205,0.01886 -0.02765,0.03787 -0.04751,0.05677c-0.18106,0.17239 -0.35345,-0.00868 -0.35345,-0.00868l-0.25323,-0.27456c-0.2346,-0.72807 -2.43096,-2.51999 -3.07366,-2.854c-1.81047,-1.90169 -3.84595,-3.63117 -5.50832,-5.68974c0,0 -0.15675,-0.19476 0.038,-0.3515c0.19475,-0.15675 0.35151,0.038 0.35151,0.038c1.62817,2.03029 3.64112,3.73533 5.42104,5.60492c0.49015,0.26548 1.73987,1.25903 2.53215,2.09184c-0.61605,-0.98438 -1.20225,-1.98399 -1.73546,-2.9775c-2.20889,-2.14747 -4.21417,-4.47883 -6.62194,-6.46106c-1.95589,-2.6736 -5.04148,-3.95027 -6.16113,-7.3324c-0.16996,-0.30965 -0.33182,-0.59838 -0.47843,-0.89471c0.27675,0.73021 0.54981,1.4595 0.81102,2.19122c0.6884,1.97975 1.59524,3.43472 2.66874,5.21306c0.26474,0.43857 1.04332,1.74483 1.49286,1.25512c0,0 0.20362,-0.14504 0.34866,0.05858c0.14504,0.20362 -0.05858,0.34866 -0.05858,0.34866c-1.99205,1.14041 -4.41762,-5.2737 -4.9236,-6.71021c-0.94977,-2.77909 -2.16124,-5.54286 -3.045,-8.42856l-0.08366,-0.27319c0,0 -0.0732,-0.23904 0.16584,-0.31225z" fill="#2d1b16" stroke="none"/><path d="M334.22076,49.97863c-0.14506,0.20361 -0.34867,0.05855 -0.34867,0.05855l-0.29293,-0.2101c-0.83457,-0.87282 -1.71104,-1.50811 -2.70201,-2.18569c-2.76956,-1.5519 -5.42229,-3.30819 -8.17693,-4.79693c-1.83945,-1.8977 -3.77963,-3.41782 -5.33876,-5.60668c0,0 -0.14505,-0.20363 0.05858,-0.34867c0.20362,-0.14505 0.34867,0.05859 0.34867,0.05859c1.53315,2.15239 3.4679,3.60021 5.23374,5.49845c2.75693,1.43299 5.38669,3.22903 8.13815,4.77028c1.01059,0.68955 1.91952,1.33937 2.76618,2.23295l0.25543,0.18059c0,0 0.20361,0.14505 0.05855,0.34867z" fill="#2d1b16" stroke="none"/><path d="M335.55903,47.65229c-0.1801,0.17339 -0.35349,-0.0067 -0.35349,-0.0067l-0.22133,-0.23053c-1.13997,-0.93092 -2.44218,-2.18873 -3.86849,-2.61534c-2.14592,-1.10491 -5.4004,-2.92532 -6.81527,-4.90603c0,0 -0.14504,-0.20362 0.05858,-0.34867c0.20362,-0.14505 0.34866,0.05858 0.34866,0.05858c1.35406,1.9068 4.53231,3.66885 6.59501,4.7324c1.48134,0.44365 2.83749,1.74233 4.02047,2.71152l0.24255,0.25129c0,0 0.17338,0.1801 -0.00671,0.35349z" fill="#2d1b16" stroke="none"/><path d="M309.04276,15.71325c0.24655,0.04142 0.20513,0.28796 0.20513,0.28796l-0.05341,0.31779c-0.27458,1.29951 -1.06976,2.51141 -1.31764,3.98668c0,0 -0.04144,0.24654 -0.28797,0.20512c-0.24655,-0.04143 -0.20513,-0.28797 -0.20513,-0.28797c0.23732,-1.41246 1.12062,-2.76882 1.31862,-3.9922l0.05246,-0.31226c0,0 0.04143,-0.24654 0.28796,-0.20512z" fill="#2d1b16" stroke="none"/><path d="M321.48591,42.94954c-0.11726,0.2208 -0.33805,0.10353 -0.33805,0.10353l-0.10397,-0.06924c-1.79983,-0.31509 -3.13035,-1.94816 -3.63674,-3.60162c0,0 -0.07321,-0.23903 0.16583,-0.31224c0.23904,-0.07321 0.31225,0.16583 0.31225,0.16583c0.45227,1.47676 1.62751,2.97677 3.24427,3.25543l0.25288,0.12028c0,0 0.2208,0.11725 0.10354,0.33805z" fill="#2d1b16" stroke="none"/><path d="M304.33191,44.24753c0.11726,-0.2208 0.33806,-0.10354 0.33806,-0.10354l0.31997,0.1736c1.69044,0.28327 3.32943,0.88116 5.10059,1.17807c2.72493,0.46837 4.23251,-1.13144 6.32384,-2.62111c0,0 0.20362,-0.14505 0.34866,0.05858c0.14504,0.20363 -0.05859,0.34867 -0.05859,0.34867c-2.20822,1.57292 -3.81213,3.19728 -6.6977,2.70679c-1.79201,-0.30538 -3.46609,-0.90922 -5.17756,-1.19755l-0.39374,-0.20545c0,0 -0.2208,-0.11727 -0.10353,-0.33806z" fill="#2d1b16" stroke="none"/><path d="M310.59167,44.56965c-0.23904,0.07321 -0.31225,-0.16584 -0.31225,-0.16584l0.01613,-0.03742c-0.39911,-0.41922 -0.74609,-0.87808 -1.14314,-1.29338c0,0 -0.17237,-0.18106 0.00869,-0.35345c0.18106,-0.17239 0.35344,0.00868 0.35344,0.00868c0.39623,0.41777 0.74355,0.87365 1.14315,1.29338l0.09981,0.23577c0,0 0.0732,0.23904 -0.16584,0.31225z" fill="#2d1b16" stroke="none"/><path d="M307.65664,43.97933c-0.04143,0.24655 -0.28797,0.20511 -0.28797,0.20511l-0.31502,-0.05293c-1.22279,-0.20807 -2.36704,-0.80091 -3.59074,-0.992c0,0 -0.24655,-0.04143 -0.20513,-0.28796c0.04143,-0.24654 0.28796,-0.20513 0.28796,-0.20513c1.22749,0.21759 2.36543,0.78848 3.59076,0.99201l0.31501,0.05292c0,0 0.24655,0.04143 0.20512,0.28798z" fill="#2d1b16" stroke="none"/><path d="M311.79913,46.92654c-0.07321,-0.23904 0.16584,-0.31225 0.16584,-0.31225l0.39087,0.02483c0.32583,0.381 0.73056,0.08054 1.15745,-0.0438c1.13783,0.17048 4.06823,-0.30533 5.02631,-1.0723c0.30652,-0.24538 -0.36657,-1.68877 -0.46564,-2.01224c0,0 -0.0732,-0.23904 0.16584,-0.31225c0.23904,-0.07321 0.31224,0.16583 0.31224,0.16583c0.20214,0.66006 0.90659,1.92722 0.32663,2.52613c-0.81214,0.83868 -4.29978,1.40454 -5.33272,1.20376c-0.59965,0.19554 -0.98546,0.38153 -1.46578,-0.03065l0.03121,0.02877c0,0 -0.23904,0.07321 -0.31225,-0.16584z" fill="#2d1b16" stroke="none"/><path d="M325.84837,24.98966c-0.00819,-0.03124 -0.05407,-0.24065 0.16692,-0.30832c0.23904,-0.07321 0.31225,0.16583 0.31225,0.16583l-0.02481,0.39087c-0.87324,0.74681 -1.55077,2.06334 -2.52123,2.89985c-1.77646,1.06727 -3.97183,2.74633 -3.30444,4.92551c0,0 0.0732,0.23903 -0.16584,0.31224c-0.23904,0.07321 -0.31225,-0.16583 -0.31225,-0.16583c-0.74476,-2.43183 1.51951,-4.28723 3.48887,-5.47658c0.97473,-0.8473 1.53112,-1.86361 2.36055,-2.74356z" fill="#2d1b16" stroke="none"/><path d="M326.44131,20.21809c0.23904,-0.07321 0.31225,0.16583 0.31225,0.16583l0.02359,0.32706c-0.34967,0.64454 -0.81101,1.95146 -0.76252,2.65197c0,0 0.01304,0.24966 -0.23661,0.2627c-0.24966,0.01304 -0.2627,-0.23661 -0.2627,-0.23661c-0.03127,-0.80228 0.43335,-2.17114 0.82024,-2.91258l-0.06008,0.05387c0,0 -0.0732,-0.23904 0.16584,-0.31225z" fill="#2d1b16" stroke="none"/><path d="M337.91548,33.66358c0.2208,0.11727 0.10353,0.33805 0.10353,0.33805l-0.07651,-0.01204c0.37757,1.28031 -0.19924,2.8944 -0.22665,4.20345c-0.22567,1.20528 -1.44402,5.44238 -0.63292,6.25193c0,0 0.17239,0.18107 -0.00868,0.35345c-0.18107,0.17238 -0.35345,-0.00868 -0.35345,-0.00868c-1.0616,-1.15545 0.26272,-5.10887 0.49734,-6.64436c0.03344,-1.19617 0.61858,-2.85145 0.24628,-4.00934l0.11301,-0.36889c0,0 0.11726,-0.2208 0.33805,-0.10353z" fill="#2d1b16" stroke="none"/><path d="M336.28558,26.01822c0.23904,-0.07321 0.31225,0.16584 0.31225,0.16584l0.04183,0.13659c0.64433,2.1039 0.77779,3.68395 0.72804,5.83599c-0.05735,2.33422 -0.19898,5.05519 -0.59071,7.38667c0,0 -0.04143,0.24654 -0.28797,0.20511c-0.24655,-0.04142 -0.20513,-0.28796 -0.20513,-0.28796c0.38691,-2.30282 0.52709,-5.00191 0.58395,-7.31609c0.05447,-2.1024 -0.07596,-3.61913 -0.70627,-5.67728l-0.04183,-0.1366c0,0 -0.0732,-0.23904 0.16584,-0.31225z" fill="#2d1b16" stroke="none"/><path d="M331.82331,32.5412c0.11726,-0.22079 0.33807,-0.10353 0.33807,-0.10353l0.24223,0.14317c0.75982,0.7981 2.51963,1.91542 2.8377,2.83362c0,0 0.0732,0.23903 -0.16584,0.31224c-0.23904,0.07321 -0.31225,-0.16583 -0.31225,-0.16583c-0.17145,-0.70038 -2.09042,-1.97215 -2.72174,-2.63528l-0.11463,-0.04636c0,0 -0.2208,-0.11726 -0.10353,-0.33805z" fill="#2d1b16" stroke="none"/><path d="M335.71432,22.47142c0.20362,-0.14504 0.34866,0.05858 0.34866,0.05858l0.2827,0.40244c0.43171,1.37573 0.84757,2.75652 1.2698,4.13519c0,0 0.0732,0.23904 -0.16584,0.31225c-0.23904,0.07321 -0.31224,-0.16583 -0.31224,-0.16583c-0.4144,-1.35311 -0.83704,-2.70399 -1.24018,-4.0605l-0.24149,-0.33347c0,0 -0.14504,-0.20362 0.05859,-0.34866z" fill="#2d1b16" stroke="none"/></g><g data-paper-data="{&quot;index&quot;:null}" stroke-linecap="butt"><path d="M319.96803,51.89734c0.61607,-2.47767 10.5954,-3.68277 16.57748,-1.48911c5.98208,2.19365 7.13037,6.07597 5.75026,9.83953c-1.3801,3.76357 -4.76599,5.98318 -10.74808,3.78953c-3.5951,-1.31833 -7.21366,-4.78379 -9.43147,-7.73187c-0.27196,-0.36151 -0.72105,0.91422 -0.94826,0.57318c-0.25847,-0.38795 -0.28807,-2.38893 -0.48135,-2.7368c-0.20326,-0.36583 -0.87233,0.49469 -0.99474,0.18961c-0.2129,-0.53063 0.20724,-2.15686 0.27617,-2.43405z" fill="#724538" stroke="#291814" stroke-width="1"/><path d="M324.62033,53.64248c0,0 6.96902,-2.42231 10.90367,-0.97946c3.93466,1.44285 4.68994,3.9964 3.78218,6.47185c-0.90776,2.47545 -3.13479,3.93539 -7.06945,2.49253c-3.93466,-1.44285 -7.61642,-7.98493 -7.61642,-7.98493z" fill="url(#color-28)" stroke="#b76e59" stroke-width="0.5"/></g><path d="M386.49708,65.97586c3.21834,10.5087 12.18417,15.33431 -17.49354,24.49645c-29.10356,8.9849 -25.22704,-0.7554 -28.44538,-11.2641c-3.21834,-10.5087 -6.54396,-25.60688 15.22499,-32.58679c20.43527,-6.55229 27.49559,8.84575 30.71393,19.35444z" fill="#3c231d" stroke="#291814" stroke-width="1" stroke-linecap="butt"/><g data-paper-data="{&quot;index&quot;:null}" stroke="#292929" stroke-width="0.5"><path d="M376.61956,72.05178c-0.47732,0.29039 -2.6388,-1.17274 -2.6388,-1.17274l-10.35523,-17.02153c0,0 -0.50036,-2.91232 -0.02304,-3.20271c0.4241,-0.25801 2.7462,1.54603 2.7462,1.54603l10.35523,17.02153c0,0 0.33974,2.57141 -0.08436,2.82941z" fill="#686868" stroke-linecap="butt"/><path d="M374.16828,70.64613l2.57632,-1.27491" fill="none" stroke-linecap="round"/><path d="M364.02693,53.71381l2.21348,-1.34659" fill="none" stroke-linecap="round"/><path d="M367.94902,60.68553l3.42032,0.11243" fill="none" stroke-linecap="round"/><path d="M367.3993,56.6335c0.19302,-0.11743 0.42217,-0.09318 0.51181,0.05417c0.08965,0.14735 0.00583,0.36199 -0.1872,0.47942c-0.19302,0.11742 -0.42215,0.09316 -0.5118,-0.05418c-0.08965,-0.14734 -0.00583,-0.36198 0.18718,-0.4794z" fill="#686868" stroke-linecap="butt"/><path d="M372.41172,65.13507c0.19302,-0.11743 0.42217,-0.09316 0.5118,0.05418c0.08965,0.14735 0.00583,0.36199 -0.18719,0.47941c-0.19302,0.11743 -0.42215,0.09318 -0.5118,-0.05418c-0.08965,-0.14735 -0.00583,-0.36199 0.18719,-0.47942z" fill="#686868" stroke-linecap="butt"/></g><g stroke-linecap="butt"><path d="M367.29921,53.94993c3.8825,-1.11212 8.30814,1.59247 9.97071,6.78591c1.78965,5.35155 -0.87442,8.39666 -4.49279,9.46702c-4.81086,1.42312 -6.6284,-1.90052 -8.01476,-6.42733c-1.38636,-4.52681 -1.21549,-8.75984 2.53683,-9.8256z" fill="#e4e4e4" stroke="#575757" stroke-width="0.5"/><g data-paper-data="{&quot;index&quot;:null}" stroke="none" stroke-width="0"><path d="M371.21343,62.40343c0.59706,1.94957 0.08474,3.83519 -1.14435,4.2116c-1.22908,0.37641 -2.70947,-0.89889 -3.30654,-2.84849c-0.59706,-1.94957 -0.08473,-3.8352 1.14435,-4.21162c1.22908,-0.37642 2.70947,0.89891 3.30654,2.84851z" fill="#000000"/><path d="M366.87658,65.22013l-0.76523,-2.49867l2.43848,0.85809z" fill="#e4e4e4"/></g><path d="M363.37781,58.46631c-0.33501,-1.09387 1.24338,-4.11595 3.69516,-4.86682c2.45178,-0.75087 6.63028,0.07236 6.96528,1.16624c0.33501,1.09387 -1.90184,-1.84541 -6.56026,-0.33158c-3.86521,1.25606 -3.76517,5.12604 -4.10018,4.03217z" fill="#523128" stroke="#291814" stroke-width="0.5"/><path d="M366.33638,68.88899c-0.33501,-1.09387 2.17691,2.31139 6.29775,1.12167c4.9665,-1.43385 5.35409,-5.37609 5.6891,-4.28222c0.33501,1.09387 -2.88892,4.18414 -5.47645,4.97658c-2.58753,0.79244 -6.17539,-0.72216 -6.5104,-1.81602z" data-paper-data="{&quot;index&quot;:null}" fill="#523128" stroke="#291814" stroke-width="0.5"/></g><g stroke-linecap="butt"><path d="M385.43842,48.0559c-3.72774,5.16732 -7.77591,5.22443 -11.02688,2.87915c-3.25097,-2.34528 -4.47366,-6.2048 -0.74592,-11.37213c3.72774,-5.16732 12.95713,-9.12743 14.56834,-8.04944c1.12059,0.74972 1.15807,5.6007 -0.06026,10.2749c-0.11903,0.45672 0.04387,2.18661 -0.14452,2.78699c-0.16969,0.54078 -0.68885,-0.04531 -0.83766,0.34732c-0.25916,0.68376 0.20941,2.68135 -0.11089,3.30407c-0.32097,0.62405 -1.25861,-0.70263 -1.64223,-0.17086z" fill="#724538" stroke="#291814" stroke-width="1"/><path d="M383.51802,46.44517c-2.45189,3.39876 -5.11453,3.43632 -7.25283,1.89374c-2.1383,-1.54258 -2.9425,-4.08114 -0.49061,-7.4799c2.45189,-3.39876 9.58219,-5.29445 9.58219,-5.29445c0,0 0.61314,7.48185 -1.83874,10.88061z" fill="url(#color-29)" stroke="#b76e59" stroke-width="0.5"/></g><g stroke="#292929" stroke-width="0.5"><path d="M349.74222,77.16572l-0.95253,-19.90116c0,0 0.91361,-2.795 1.40946,-2.81874c0.55806,-0.02671 1.77439,2.66635 1.77439,2.66635l0.95253,19.90116c0,0 -0.97147,2.4226 -1.52954,2.44931c-0.49584,0.02373 -1.65431,-2.29692 -1.65431,-2.29692z" fill="#686868" stroke-linecap="butt"/><path d="M349.79191,77.3119l2.84842,-0.38646" fill="none" stroke-linecap="round"/><path d="M348.97261,57.34182l2.58794,-0.12386" fill="none" stroke-linecap="round"/><path d="M352.21515,65.19035l-2.77078,2.00849" fill="none" stroke-linecap="round"/><path d="M350.82498,61.81781c0.00825,0.17227 -0.16801,0.32068 -0.39369,0.33149c-0.22568,0.0108 -0.41532,-0.1201 -0.42356,-0.29237c-0.00825,-0.17227 0.16802,-0.32068 0.3937,-0.33148c0.22568,-0.0108 0.4153,0.1201 0.42354,0.29238z" fill="#686868" stroke-linecap="butt"/><path d="M351.43305,71.66825c0.00825,0.17227 -0.16801,0.32068 -0.39369,0.33149c-0.22568,0.0108 -0.4153,-0.1201 -0.42355,-0.29237c-0.00825,-0.17227 0.16802,-0.32069 0.39369,-0.33149c0.22568,-0.0108 0.4153,0.1201 0.42354,0.29238z" fill="#686868" stroke-linecap="butt"/></g><g stroke-linecap="butt"><path d="M357.03169,66.35226c1.38636,4.52681 1.74172,8.29824 -3.04101,9.81322c-3.59722,1.13944 -7.50962,0.10842 -9.02369,-5.32753c-1.53083,-5.2338 0.62129,-9.95285 4.46071,-11.2056c3.70561,-1.21827 6.21762,2.19311 7.60399,6.71992z" fill="#e4e4e4" stroke="#575757" stroke-width="0.5"/><g stroke="none" stroke-width="0"><path d="M355.67228,67.37215c0.59706,1.94957 0.08474,3.83518 -1.14435,4.2116c-1.22908,0.37641 -2.70947,-0.89889 -3.30655,-2.84849c-0.59706,-1.94957 -0.08473,-3.83521 1.14435,-4.21162c1.22908,-0.37641 2.70947,0.89891 3.30655,2.84851z" fill="#000000"/><path d="M351.33545,70.18887l-0.76523,-2.49867l2.43848,0.85809z" fill="#e4e4e4"/></g><path d="M355.20571,61.17822c0.33501,1.09387 -1.74926,-2.16843 -5.65497,-1.04461c-4.70723,1.35445 -4.91449,5.04225 -5.2495,3.94838c-0.33501,-1.09387 2.66589,-4.11583 5.11767,-4.8667c2.45178,-0.75087 5.4518,0.86905 5.78681,1.96292z" fill="#523128" stroke="#291814" stroke-width="0.5"/><path d="M354.2142,76.62049c-2.58753,0.79244 -6.98906,0.03751 -7.32407,-1.05636c-0.33501,-1.09387 2.19373,1.95524 7.11142,0.362c4.08034,-1.32193 4.25456,-5.54984 4.58956,-4.45597c0.33501,1.09387 -1.78939,4.35788 -4.37691,5.15032z" data-paper-data="{&quot;index&quot;:null}" fill="#523128" stroke="#291814" stroke-width="0.5"/></g><path d="M345.17449,81.76849l-6.95583,-22.71253l17.68904,-5.41736l6.95583,22.71253z" fill="#000000" stroke="none" stroke-width="NaN" stroke-linecap="butt"/><path d="M365.81191,75.24525l-6.95583,-22.71252l17.68904,-5.41736l6.95583,22.71252z" fill="url(#color-30)" stroke="none" stroke-width="NaN" stroke-linecap="butt"/><path d="M389.34759,68.12836c0.23927,0.68702 2.03237,2.98114 3.15263,5.0675c1.12025,2.08637 1.91935,5.06974 1.91935,5.06974c0,0 -1.75803,2.47812 -5.74412,5.1732c-4.72815,3.1968 -12.16409,6.8113 -19.55585,9.17682c-5.93261,1.89855 -11.72508,3.13374 -16.44542,3.40268c-6.5741,0.37457 -10.78304,-0.79133 -10.78304,-0.79133c0,0 -1.18768,-3.55347 -1.54733,-5.91061c-0.35965,-2.35714 -0.16569,-5.03436 -0.44358,-6.04451c-0.41394,-1.50472 -0.841,-3.03318 -1.24626,-4.57274c-0.14024,-0.53277 -0.90535,0.86836 -1.0389,0.33346c-0.18014,-0.72146 0.27456,-3.37964 0.11275,-4.10274c-0.16524,-0.73841 -1.15471,0.34769 -1.29334,-0.38972c-0.07224,-0.38426 0.69528,-2.59288 0.63182,-2.97629c-1.79375,-10.83872 0.13791,-21.26422 17.89263,-26.89375c24.09732,-7.6196 29.43383,9.23098 34.38864,23.45827zM355.02905,77.46328c6.14254,-2.17016 5.48259,-6.00261 4.35051,-9.69913c-0.72283,-2.36025 -2.39771,-9.28625 -4.84878,-10.98406c-1.38771,-0.96124 -3.12713,-1.36452 -5.30286,-0.69819c-6.63022,2.03054 -8.20628,9.30532 -6.17573,15.93556c1.13208,3.69652 5.13598,7.86271 11.97686,5.44582zM373.04532,71.46759c7.42642,-2.12498 7.98333,-7.77696 6.85125,-11.47349c-1.50909,-4.92755 -7.07719,-10.9569 -13.11775,-9.55285c-5.06908,1.16958 -5.6613,5.6422 -5.11289,8.50654c0.72193,3.77067 1.93298,8.62319 4.6565,11.69098c1.43393,1.61518 4.37896,1.49951 6.72289,0.82882z" fill="#724538" stroke="#291814" stroke-width="1" stroke-linecap="butt"/><path d="M366.30073,70.68381c-2.72352,-3.06779 -3.96159,-7.97659 -4.68353,-11.74726c-0.54841,-2.86434 0.07438,-7.37231 5.14347,-8.54189c6.04057,-1.40405 11.67645,4.66587 13.18554,9.59342c1.13208,3.69653 0.53554,9.40352 -6.89088,11.5285c-2.34394,0.67069 -5.32067,0.78242 -6.7546,-0.83276z" data-paper-data="{&quot;noHover&quot;:false,&quot;origItem&quot;:[&quot;Path&quot;,{&quot;applyMatrix&quot;:true,&quot;segments&quot;:[[[373.04532,71.46759],[-2.34394,0.67069],[7.42642,-2.12498]],[[379.89657,59.9941],[1.13208,3.69653],[-1.50909,-4.92755]],[[366.77882,50.44125],[6.04057,-1.40405],[-5.06908,1.16958]],[[361.66592,58.94779],[-0.54841,-2.86434],[0.72193,3.77067]],[[366.32242,70.63876],[-2.72352,-3.06779],[1.43393,1.61518]]],&quot;closed&quot;:true,&quot;fillColor&quot;:[0,0,0,1]}]}" fill="#000000" stroke="none" stroke-width="0.5" stroke-linecap="butt"/><path d="M384.35206,85.7348c-1.4318,1.44657 -6.57449,5.32423 -15.18824,8.05233c-11.36561,3.57467 -15.81545,2.11332 -15.81545,2.11332c0,0 -4.56813,-8.26422 -2.33203,-13.10212c1.81961,-3.93681 8.4719,-6.16909 11.95108,-7.39554c3.60001,-1.26904 12.65903,-3.95945 16.45935,-0.91777c4.56946,3.6573 4.92531,11.24978 4.92531,11.24978z" fill="url(#color-31)" stroke="#291814" stroke-width="1" stroke-linecap="butt"/><path d="M360.16581,85.74763c0.47709,1.55782 -0.22778,3.155 -1.57437,3.5674c-1.34659,0.4124 -2.82498,-0.51615 -3.30207,-2.07397c-0.47709,-1.55782 0.22778,-3.155 1.57437,-3.5674c1.34659,-0.4124 2.82498,0.51615 3.30207,2.07397z" fill="url(#color-32)" stroke="none" stroke-width="0" stroke-linecap="butt"/><path d="M360.26681,81.63788c0.21833,0.71291 -0.48227,1.55959 -1.56482,1.89113c-1.08255,0.33154 -2.13713,0.02239 -2.35546,-0.69052c-0.21833,-0.71291 0.48226,-1.55959 1.56482,-1.89113c1.08255,-0.33154 2.13713,-0.02238 2.35546,0.69052z" fill="url(#color-33)" stroke="none" stroke-width="0" stroke-linecap="butt"/><path d="M357.17422,85.19961c0.26684,0.87132 -0.28739,1.81365 -1.23793,2.10476c-0.95054,0.29111 -1.93742,-0.17925 -2.20426,-1.05057c-0.26684,-0.87132 0.28739,-1.81365 1.23793,-2.10477c0.95054,-0.29111 1.93742,0.17925 2.20426,1.05058z" fill="url(#color-34)" stroke="none" stroke-width="0" stroke-linecap="butt"/><path d="M358.83079,83.43728c0.31536,1.02974 -0.22096,2.10707 -1.19788,2.40626c-0.97694,0.29919 -2.02456,-0.29304 -2.33992,-1.32278c-0.31536,-1.02974 0.22096,-2.10707 1.19788,-2.40626c0.97694,-0.29919 2.02456,0.29303 2.33992,1.32278z" fill="url(#color-35)" stroke="none" stroke-width="0" stroke-linecap="butt"/><path d="M362.51921,85.23606c0.10512,0.34324 -0.04511,0.69362 -0.33555,0.78257c-0.29044,0.08895 -0.61111,-0.1172 -0.71623,-0.46045c-0.10512,-0.34324 0.04511,-0.69362 0.33555,-0.78257c0.29044,-0.08895 0.61111,0.1172 0.71623,0.46045z" fill="url(#color-36)" stroke="none" stroke-width="0" stroke-linecap="butt"/><path d="M356.53062,88.22049c0.02426,0.07921 -0.04169,0.16964 -0.14731,0.20199c-0.10562,0.03235 -0.21089,-0.00564 -0.23516,-0.08485c-0.02426,-0.07921 0.04169,-0.16965 0.14731,-0.20199c0.10562,-0.03235 0.2109,0.00565 0.23516,0.08486z" fill="url(#color-37)" stroke="none" stroke-width="0" stroke-linecap="butt"/><path d="M353.41169,83.8419c0.02426,0.07921 -0.0631,0.1762 -0.19512,0.21663c-0.13202,0.04043 -0.25871,0.00899 -0.28297,-0.07022c-0.02426,-0.07921 0.0631,-0.1762 0.19512,-0.21663c0.13202,-0.04043 0.25871,-0.00899 0.28297,0.07022z" fill="url(#color-38)" stroke="none" stroke-width="0" stroke-linecap="butt"/><path d="M381.27948,70.33947c0.11321,0.36965 -0.26591,0.81353 -0.8468,0.99143c-0.58088,0.1779 -1.14355,0.02245 -1.25676,-0.34721c-0.11321,-0.36965 0.26592,-0.81353 0.8468,-0.99142c0.58088,-0.1779 1.14355,-0.02245 1.25676,0.3472z" fill="url(#color-39)" stroke="none" stroke-width="0" stroke-linecap="butt"/><path d="M386.78373,72.26193c0.04043,0.13202 0.00899,0.25871 -0.07022,0.28297c-0.07922,0.02426 -0.1762,-0.0631 -0.21663,-0.19512c-0.04043,-0.13202 -0.00901,-0.2587 0.07022,-0.28296c0.07922,-0.02426 0.1762,0.0631 0.21663,0.19512z" fill="url(#color-40)" stroke="none" stroke-width="0" stroke-linecap="butt"/><path d="M382.98443,65.32018c0.11321,0.36965 0.07655,0.70865 -0.08186,0.75716c-0.15841,0.04851 -0.37862,-0.21181 -0.49183,-0.58147c-0.11321,-0.36965 -0.07655,-0.70865 0.08186,-0.75717c0.15841,-0.04851 0.37862,0.21182 0.49183,0.58147z" fill="url(#color-41)" stroke="none" stroke-width="0" stroke-linecap="butt"/><path d="M357.00469,49.83226c0.33243,1.08548 -0.44451,2.28592 -1.73536,2.68125c-1.29085,0.39533 -2.60678,-0.16416 -2.93922,-1.24964c-0.33243,-1.08548 0.44451,-2.28592 1.73536,-2.68125c1.29085,-0.39533 2.60678,0.16416 2.93921,1.24964z" fill="url(#color-42)" stroke="none" stroke-width="0" stroke-linecap="butt"/><path d="M353.44987,50.74664c0.26954,0.88012 -0.20165,1.80483 -1.05244,2.06538c-0.85078,0.26055 -1.75899,-0.2417 -2.02853,-1.12182c-0.26954,-0.88012 0.20165,-1.80484 1.05244,-2.06539c0.85078,-0.26055 1.75899,0.24171 2.02853,1.12183z" fill="url(#color-43)" stroke="none" stroke-width="0" stroke-linecap="butt"/><path d="M351.93762,51.50027c0.27853,0.90946 -0.35186,1.90894 -1.40801,2.23239c-1.05615,0.32345 -2.13812,-0.15161 -2.41665,-1.06107c-0.27853,-0.90946 0.35186,-1.90893 1.40801,-2.23239c1.05615,-0.32345 2.13812,0.1516 2.41665,1.06106z" fill="url(#color-44)" stroke="none" stroke-width="0" stroke-linecap="butt"/><path d="M355.70294,52.0321c0.25158,0.82145 -0.04393,1.64032 -0.66002,1.829c-0.61608,0.18868 -1.31946,-0.32428 -1.57104,-1.14572c-0.25158,-0.82145 0.04393,-1.64032 0.66001,-1.829c0.61608,-0.18868 1.31947,0.32428 1.57105,1.14572z" fill="url(#color-45)" stroke="none" stroke-width="0" stroke-linecap="butt"/><path d="M352.44194,53.14702c0.14375,0.4694 -0.07266,0.95188 -0.48339,1.07767c-0.41072,0.12579 -0.86022,-0.15275 -1.00398,-0.62215c-0.14375,-0.4694 0.07266,-0.9519 0.48339,-1.07769c0.41072,-0.12579 0.86023,0.15277 1.00398,0.62217z" fill="url(#color-46)" stroke="none" stroke-width="0" stroke-linecap="butt"/><path d="M357.36558,48.73398c0.12579,0.41072 -0.1052,0.84565 -0.51593,0.97144c-0.41072,0.12579 -0.84565,-0.10521 -0.97144,-0.51593c-0.12579,-0.41072 0.10519,-0.84566 0.51592,-0.97145c0.41072,-0.12579 0.84566,0.10521 0.97145,0.51593z" fill="url(#color-47)" stroke="none" stroke-width="0" stroke-linecap="butt"/><path d="M352.51191,49.58132c0.13477,0.44006 -0.04136,0.88421 -0.39342,0.99202c-0.35205,0.10782 -0.7467,-0.16152 -0.88147,-0.60158c-0.13477,-0.44006 0.04136,-0.88421 0.39342,-0.99203c0.35205,-0.10782 0.74669,0.16152 0.88146,0.60159z" fill="url(#color-48)" stroke="none" stroke-width="0" stroke-linecap="butt"/><path d="M357.96553,52.2107c0.0629,0.20537 -0.07639,0.43011 -0.31108,0.50199c-0.2347,0.07188 -0.47595,-0.03634 -0.53884,-0.24169c-0.0629,-0.20537 0.07638,-0.43011 0.31108,-0.50199c0.2347,-0.07188 0.47596,0.03634 0.53885,0.2417z" fill="url(#color-49)" stroke="none" stroke-width="0" stroke-linecap="butt"/><path d="M360.20621,50.42055c0.0539,0.17602 -0.02131,0.35515 -0.168,0.40007c-0.14668,0.04492 -0.3093,-0.06135 -0.36321,-0.23738c-0.0539,-0.17602 0.02131,-0.35515 0.16799,-0.40007c0.14668,-0.04492 0.30931,0.06135 0.36322,0.23738z" fill="url(#color-50)" stroke="none" stroke-width="0" stroke-linecap="butt"/><path d="M345.28656,52.54945c0.01797,0.05867 -0.08638,0.14266 -0.23307,0.18758c-0.14668,0.04492 -0.28017,0.03377 -0.29814,-0.0249c-0.01797,-0.05867 0.08638,-0.14266 0.23306,-0.18758c0.14668,-0.04492 0.28017,-0.03377 0.29814,0.0249z" fill="url(#color-51)" stroke="none" stroke-width="0" stroke-linecap="butt"/><path d="M342.36544,74.88388c0.29649,0.96814 -0.10528,1.94963 -0.89739,2.19222c-0.7921,0.24259 -1.67461,-0.34559 -1.97111,-1.31373c-0.29649,-0.96814 0.10529,-1.94962 0.8974,-2.19221c0.7921,-0.24259 1.6746,0.34558 1.9711,1.31372z" fill="url(#color-52)" stroke="none" stroke-width="0" stroke-linecap="butt"/><path d="M341.33952,72.29298c0.22462,0.73344 -0.21164,1.51737 -0.97442,1.75097c-0.76278,0.2336 -1.56322,-0.1716 -1.78783,-0.90502c-0.22462,-0.73343 0.21164,-1.51738 0.97441,-1.75098c0.76278,-0.2336 1.56322,0.17159 1.78784,0.90503z" fill="url(#color-53)" stroke="none" stroke-width="0" stroke-linecap="butt"/><path d="M340.32391,74.28895c0.2336,0.76277 -0.07647,1.53408 -0.69255,1.72276c-0.61608,0.18868 -1.3049,-0.27671 -1.5385,-1.0395c-0.2336,-0.76277 0.07646,-1.53409 0.69255,-1.72277c0.61608,-0.18868 1.3049,0.27672 1.53851,1.0395z" fill="url(#color-54)" stroke="none" stroke-width="0" stroke-linecap="butt"/><path d="M341.16221,76.64683c0.18868,0.61608 -0.18159,1.27576 -0.82701,1.47342c-0.64542,0.19767 -1.3216,-0.14153 -1.51028,-0.75762c-0.18868,-0.61608 0.18159,-1.27576 0.82701,-1.47342c0.64542,-0.19767 1.3216,0.14153 1.51028,0.75762z" fill="url(#color-55)" stroke="none" stroke-width="0" stroke-linecap="butt"/><path d="M338.83951,72.47759c0.04492,0.14669 -0.08514,0.31658 -0.2905,0.37947c-0.20535,0.06289 -0.40825,-0.00503 -0.45318,-0.15171c-0.04492,-0.14669 0.08515,-0.31659 0.2905,-0.37948c0.20535,-0.06289 0.40826,0.00504 0.45318,0.15172z" fill="url(#color-56)" stroke="none" stroke-width="0" stroke-linecap="butt"/><path d="M342.99521,74.28427c0.10782,0.35205 -0.01883,0.703 -0.28287,0.78386c-0.26403,0.08086 -0.56548,-0.13898 -0.6733,-0.49103c-0.10782,-0.35205 0.01883,-0.70299 0.28287,-0.78385c0.26403,-0.08086 0.56548,0.13897 0.6733,0.49102z" fill="url(#color-57)" stroke="none" stroke-width="0" stroke-linecap="butt"/><path d="M345.18416,93.19449c0.22462,0.73344 -0.30677,1.54651 -1.18689,1.81606c-0.88013,0.26954 -1.7757,-0.10652 -2.00032,-0.83996c-0.22462,-0.73343 0.30678,-1.54652 1.1869,-1.81606c0.88013,-0.26954 1.77569,0.10653 2.00031,0.83996z" fill="url(#color-58)" stroke="none" stroke-width="0" stroke-linecap="butt"/><path d="M343.99365,91.58359c0.18868,0.61608 -0.08646,1.24662 -0.61453,1.40834c-0.52807,0.16173 -1.10912,-0.2066 -1.2978,-0.82268c-0.18868,-0.61608 0.08646,-1.24662 0.61453,-1.40835c0.52807,-0.16173 1.10912,0.2066 1.2978,0.82269z" fill="url(#color-59)" stroke="none" stroke-width="0" stroke-linecap="butt"/><path d="M343.28812,60.47577c0,0 -0.42859,-0.66233 -0.60211,-1.13146c-0.17352,-0.46914 -0.41764,-1.62558 -0.41764,-1.62558c0,0 0.64405,0.72534 1.14574,1.08027c0.50169,0.35493 0.75745,0.26617 0.75745,0.26617z" fill="#000000" stroke="none" stroke-width="0" stroke-linecap="butt"/><path d="M342.5809,61.87994c0,0 -0.47899,-0.62684 -0.68861,-1.081c-0.20961,-0.45416 -0.54327,-1.58801 -0.54327,-1.58801c0,0 0.69871,0.67282 1.22658,0.9875c0.52787,0.31468 0.77591,0.20624 0.77591,0.20624z" fill="#000000" stroke="none" stroke-width="0" stroke-linecap="butt"/><path d="M342.13729,63.41215c0,0 -0.60058,-0.51155 -0.90138,-0.91119c-0.30081,-0.39964 -0.8664,-1.43745 -0.8664,-1.43745c0,0 0.82505,0.5101 1.40747,0.7062c0.58243,0.19609 0.80196,0.03771 0.80196,0.03771z" fill="#000000" stroke="none" stroke-width="0" stroke-linecap="butt"/><g data-paper-data="{&quot;index&quot;:null}" fill="#000000" stroke="none" stroke-width="0" stroke-linecap="butt"><path d="M371.29646,50.1848c0,0 0.26159,-0.0697 0.47849,-0.6447c0.2169,-0.575 0.34431,-1.5366 0.34431,-1.5366c0,0 0.44534,1.09481 0.56429,1.58067c0.11896,0.48586 0.13476,1.27459 0.13476,1.27459z"/><path d="M372.72599,50.83536c0,0 0.26624,-0.04905 0.52736,-0.60536c0.26112,-0.55631 0.46323,-1.50502 0.46323,-1.50502c0,0 0.3585,1.12624 0.43917,1.61989c0.08066,0.49365 0.03483,1.28122 0.03483,1.28122z"/><path d="M374.15159,51.56486c0,0 0.27058,0.00827 0.6433,-0.48034c0.37273,-0.48862 0.77063,-1.37325 0.77063,-1.37325c0,0 0.11257,1.17656 0.08715,1.6761c-0.02542,0.49955 -0.23654,1.25969 -0.23654,1.25969z"/></g><path d="M347.10066,87.07825l-1.24766,1.02679c0,0 -0.06385,-1.9072 -0.18635,-2.04991c-0.2594,-0.30223 -1.11667,0.95282 -1.11667,0.95282c0,0 0.34825,-1.58788 0.15206,-1.89992c-0.2469,-0.39271 -0.82719,0.19887 -0.82719,0.19887l0.33424,-1.17315" fill="none" stroke="#543129" stroke-width="0.5" stroke-linecap="round"/><path d="M359.11936,45.65213l0.93387,0.78479c0,0 -0.81205,-0.16517 -0.79669,0.29845c0.0122,0.36839 1.18992,1.48893 1.18992,1.48893c0,0 -1.41307,-0.55975 -1.45873,-0.16409c-0.02157,0.18684 0.99353,1.80271 0.99353,1.80271l-1.60868,-0.15201" data-paper-data="{&quot;index&quot;:null}" fill="none" stroke="#291814" stroke-width="0.5" stroke-linecap="round"/><path d="M366.24276,81.90286l3.0538,9.97143" fill="none" stroke="#4c2c25" stroke-width="1" stroke-linecap="round"/><g stroke="#000000" stroke-width="0.75"><path d="M376.57062,40.50007c1.03021,3.3639 -7.12887,8.84539 -18.22382,12.24328c-11.09494,3.39788 -20.92433,3.42544 -21.95454,0.06155c-1.03021,-3.36389 7.12888,-8.8454 18.22383,-12.24329c11.09494,-3.39788 20.92432,-3.42543 21.95453,-0.06154z" fill="#090909" stroke-linecap="butt"/><path d="M376.22823,40.52704c0,0 -5.55736,7.38377 -19.08794,11.20912c-13.73856,3.88415 -20.62322,1.26431 -20.62322,1.26431" fill="none" stroke-linecap="round"/><path d="M343.01263,46.99729c-0.58254,-2.39527 -1.73203,-7.02316 -2.55846,-9.72166c-0.90961,-2.9701 -2.82826,-8.2354 -3.67068,-10.52164c-0.22957,-0.62305 -0.09637,-1.20741 0.53852,-1.40185c1.13106,-0.3464 5.42004,-2.49659 10.24227,-3.97343c5.06839,-1.55222 10.70135,-2.44067 12.83892,-3.09531c0.66757,-0.20444 1.06927,0.28531 1.2154,0.96801c0.47951,2.24009 1.51797,6.93943 2.35665,9.67796c0.89447,2.92068 2.88637,8.11078 3.84812,10.57803c0.34333,0.88078 0.44799,1.59821 -0.2011,2.28549c-1.35435,1.43402 -4.80504,4.28582 -12.26143,6.50149c-6.07322,1.80466 -9.55602,1.17075 -11.06856,0.6491c-0.62067,-0.21406 -1.27966,-1.94616 -1.27966,-1.94616z" fill="url(#color-60)" stroke-linecap="butt"/></g><path d="M381.11357,54.5594l1.16746,0.35361c0,0 -0.81148,0.16796 -0.61479,0.58808c0.15629,0.3338 1.68011,0.90002 1.68011,0.90002c0,0 -1.51931,0.04195 -1.40548,0.42362c0.05376,0.18023 1.62316,1.26578 1.62316,1.26578l-1.53855,0.49378" data-paper-data="{&quot;index&quot;:null}" fill="none" stroke="#543129" stroke-width="0.5" stroke-linecap="round"/><g stroke-linecap="butt"><path d="M369.93114,75.28915c0.44939,1.46738 -0.91842,2.19054 -1.51374,3.43957c-0.61797,1.29654 -0.49853,3.09954 -1.93519,3.53952c-1.43667,0.43998 -2.78638,-1.47979 -4.02442,-2.20793c-1.19266,-0.70145 -2.29183,-0.17551 -2.74122,-1.64289c-0.91589,-2.99059 1.18225,-4.31917 3.95565,-5.32452c2.92503,-1.06033 5.34304,-0.79434 6.25893,2.19625z" fill="#040404" stroke="#000000" stroke-width="0.75"/><path d="M362.01557,75.37342c0.08229,0.26869 -0.51841,0.72123 -0.61439,0.956c-0.11485,0.28097 -0.02839,0.83487 -0.32984,0.92719c-0.55334,0.16947 -0.85699,-0.2609 -1.03775,-0.85113c-0.18076,-0.59023 0.12128,-1.20609 0.67462,-1.37555c0.55334,-0.16947 1.12659,-0.24675 1.30735,0.34349z" fill="url(#color-61)" stroke="none" stroke-width="0"/></g><path d="M373.99209,75.82141c0.0539,0.17602 -0.0213,0.35513 -0.16799,0.40005c-0.14668,0.04493 -0.30931,-0.06136 -0.36321,-0.23738c-0.0539,-0.17602 0.02131,-0.35513 0.168,-0.40006c0.14668,-0.04493 0.3093,0.06136 0.3632,0.23738z" fill="none" stroke="#4c2c25" stroke-width="1" stroke-linecap="butt"/><path d="M376.58303,74.79551c0.0539,0.17602 -0.0213,0.35513 -0.16798,0.40006c-0.14668,0.04493 -0.3093,-0.06135 -0.36321,-0.23738c-0.0539,-0.17602 0.02131,-0.35514 0.16799,-0.40007c0.14668,-0.04493 0.3093,0.06136 0.3632,0.23739z" fill="none" stroke="#4c2c25" stroke-width="1" stroke-linecap="butt"/><path d="M376.57906,77.81805c0.0539,0.17602 -0.0213,0.35513 -0.16798,0.40006c-0.14668,0.04493 -0.3093,-0.06136 -0.36321,-0.23738c-0.0539,-0.17602 0.02131,-0.35514 0.16799,-0.40006c0.14668,-0.04493 0.3093,0.06136 0.3632,0.23738z" fill="none" stroke="#4c2c25" stroke-width="1" stroke-linecap="butt"/><g fill="none" stroke="#4c2c25" stroke-width="1" stroke-linecap="butt"><path d="M355.68291,81.05101c0.14668,-0.04493 0.30931,0.06136 0.36322,0.23739c0.0539,0.17602 -0.02131,0.35513 -0.16799,0.40006c-0.14668,0.04493 -0.3093,-0.06135 -0.3632,-0.23738c-0.0539,-0.17602 0.0213,-0.35514 0.16798,-0.40007z" data-paper-data="{&quot;index&quot;:null}"/><path d="M352.96183,81.65195c0.14668,-0.04493 0.30931,0.06136 0.36321,0.23738c0.0539,0.17602 -0.02131,0.35513 -0.16799,0.40006c-0.14668,0.04493 -0.3093,-0.06136 -0.3632,-0.23738c-0.0539,-0.17602 0.0213,-0.35513 0.16798,-0.40006z" data-paper-data="{&quot;index&quot;:null}"/><path d="M354.65771,84.15391c0.14668,-0.04493 0.3093,0.06136 0.36321,0.23739c0.0539,0.17602 -0.02131,0.35513 -0.16799,0.40006c-0.14668,0.04493 -0.3093,-0.06136 -0.36321,-0.23738c-0.0539,-0.17602 0.0213,-0.35514 0.16799,-0.40007z" data-paper-data="{&quot;index&quot;:null}"/></g></g><path d="M331.19224,67.73184c0,-11.0776 8.98017,-20.05776 20.05776,-20.05776c11.0776,0 20.05776,8.98017 20.05776,20.05776c0,11.0776 -8.98017,20.05776 -20.05776,20.05776c-11.0776,0 -20.05776,-8.98017 -20.05776,-20.05776z" fill="url(#color-62)" stroke="#000000" stroke-width="0" stroke-linecap="butt"/><path d="M354.75,61.3985c0,-9.38884 7.61116,-17 17,-17c9.38884,0 17,7.61116 17,17c0,9.38884 -7.61116,17 -17,17c-9.38884,0 -17,-7.61116 -17,-17z" fill="url(#color-63)" stroke="#000000" stroke-width="0" stroke-linecap="butt"/><g stroke="#000000" stroke-width="0" stroke-linecap="butt"><g><path d="M353.49498,67.58169c0.85378,12.76608 0.5408,23.18225 -0.69908,23.26517c-1.23987,0.08292 -2.93711,-10.19881 -3.79089,-22.96489c-0.85378,-12.76608 -0.5408,-23.18225 0.69908,-23.26517c1.23987,-0.08292 2.93711,10.19881 3.79089,22.96489z" fill="url(#color-64)"/><path d="M351.09986,65.48685c12.76608,-0.85378 23.18225,-0.5408 23.26518,0.69908c0.08292,1.23987 -10.19881,2.93711 -22.96489,3.79089c-12.76608,0.85378 -23.18225,0.54079 -23.26517,-0.69908c-0.08292,-1.23987 10.19881,-2.93711 22.96489,-3.79089z" fill="url(#color-65)"/></g><path d="M346.83333,67.73184c0,-2.43926 1.97741,-4.41667 4.41667,-4.41667c2.43926,0 4.41667,1.97741 4.41667,4.41667c0,2.43926 -1.97741,4.41667 -4.41667,4.41667c-2.43926,0 -4.41667,-1.97741 -4.41667,-4.41667z" fill="url(#color-66)"/></g></g></g></svg>