<svg version="1.1" xmlns="http://www.w3.org/2000/svg" xmlns:xlink="http://www.w3.org/1999/xlink" width="777.77778" height="427.74842" viewBox="0,0,777.77778,427.74842"><defs><radialGradient cx="518.4781" cy="143.86783" r="99.46892" gradientUnits="userSpaceOnUse" id="color-1"><stop offset="0" stop-color="#343434"/><stop offset="1" stop-color="#313131"/></radialGradient><linearGradient x1="-26.49166" y1="181.14646" x2="138.47964" y2="181.14646" gradientUnits="userSpaceOnUse" id="color-2"><stop offset="0" stop-color="#000000"/><stop offset="1" stop-color="#000000" stop-opacity="0"/></linearGradient><linearGradient x1="748.88889" y1="177.63219" x2="583.9176" y2="177.63219" gradientUnits="userSpaceOnUse" id="color-3"><stop offset="0" stop-color="#000000"/><stop offset="1" stop-color="#000000" stop-opacity="0"/></linearGradient><linearGradient x1="360.26181" y1="-33.61388" x2="360.26181" y2="104.67877" gradientUnits="userSpaceOnUse" id="color-4"><stop offset="0" stop-color="#000000"/><stop offset="1" stop-color="#000000" stop-opacity="0"/></linearGradient><linearGradient x1="359.22991" y1="393.87422" x2="359.22991" y2="255.58157" gradientUnits="userSpaceOnUse" id="color-5"><stop offset="0" stop-color="#000000"/><stop offset="1" stop-color="#000000" stop-opacity="0"/></linearGradient></defs><g transform="translate(28.88889,33.87421)"><g stroke-miterlimit="10"><g><path d="M-13,153v-160.3741h746v160.3741z" fill="#323232" stroke="#000000" stroke-width="0" stroke-linecap="butt"/><path d="M-12.41291,360v-160.3741h746v160.3741z" fill="#323232" stroke="#000000" stroke-width="0" stroke-linecap="butt"/><path d="M140.91891,267.84577v-175.69155h589.81381v175.69155z" fill="#505050" stroke="#000000" stroke-width="0" stroke-linecap="butt"/><path d="M0,360v-360c0,0 125.97391,52.74121 186.98214,72.46605c58.47928,18.9072 171.80164,21.01143 171.80164,21.01143l-0.28529,173.54505c0,0 -118.08837,8.33839 -178.00608,27.56199c-60.08185,19.27626 -180.49242,65.41549 -180.49242,65.41549z" fill="#505050" stroke="none" stroke-width="0" stroke-linecap="butt"/><path d="M375.76577,226.27939v-166.66667h285.28529v166.66667z" fill="#818181" stroke="none" stroke-width="0" stroke-linecap="butt"/><path d="M410.3003,280.33344v-287.70755h27.02703v287.70755z" fill="#818181" stroke="none" stroke-width="0" stroke-linecap="butt"/><path d="M464.3003,280.33344v-287.70755h27.02702v287.70755z" fill="#818181" stroke="none" stroke-width="0" stroke-linecap="butt"/><path d="M546.3003,280.33344v-287.70755h27.02702v287.70755z" fill="#818181" stroke="none" stroke-width="0" stroke-linecap="butt"/><path d="M604.3003,280.33344v-287.70755h27.02702v287.70755z" fill="#818181" stroke="none" stroke-width="0" stroke-linecap="butt"/><path d="M437.34084,280.73983c0,2.34721 -6.05021,4.25 -13.51351,4.25c-7.46331,0 -13.51351,-1.90279 -13.51351,-4.25c0,-2.34721 6.05021,-4.25 13.51351,-4.25c7.46331,0 13.51351,1.90279 13.51351,4.25z" fill="#818181" stroke="none" stroke-width="0" stroke-linecap="butt"/><path d="M490.84084,280.33344c0,2.34721 -6.05021,4.25 -13.51352,4.25c-7.4633,0 -13.51351,-1.90279 -13.51351,-4.25c0,-2.34721 6.05021,-4.25 13.51351,-4.25c7.4633,0 13.51352,1.90279 13.51352,4.25z" fill="#818181" stroke="none" stroke-width="0" stroke-linecap="butt"/><path d="M573.34084,280.33344c0,2.34721 -6.05021,4.25 -13.51352,4.25c-7.4633,0 -13.51351,-1.90279 -13.51351,-4.25c0,-2.34721 6.05021,-4.25 13.51351,-4.25c7.4633,0 13.51352,1.90279 13.51352,4.25z" fill="#818181" stroke="none" stroke-width="0" stroke-linecap="butt"/><path d="M631.34084,280.33344c0,2.34721 -6.05021,4.25 -13.51351,4.25c-7.4633,0 -13.51351,-1.90279 -13.51351,-4.25c0,-2.34721 6.05021,-4.25 13.51351,-4.25c7.4633,0 13.51351,1.90279 13.51351,4.25z" fill="#818181" stroke="none" stroke-width="0" stroke-linecap="butt"/><g stroke="none" stroke-width="0" stroke-linecap="butt"><path d="M106.72898,272.86379v-30.71712c0,0 69.2238,-27.79138 108.79142,-33.56612c39.35718,-5.74402 127.98636,-0.99064 127.98636,-0.99064v29.43724z" fill="#606060"/><path d="M106.72898,272.86379v-30.71712l236.77778,-34.55676v29.43724z" fill="#7a7a7a"/></g><g fill="url(#color-1)" stroke="none" stroke-width="0" stroke-linecap="butt"><path d="M419.00918,203.76921v-119.80277h198.93785v119.80277z"/></g><g fill="#1e1e1e" stroke="none" stroke-width="0" stroke-linecap="butt"><path d="M421.50918,202.26368v-116.79171h193.93785v116.79171z"/></g><path d="M432.9335,161.12186c0,0 -4,0.375 -4,3.75c0,3.69234 0,12.37177 0,19c0,4.78436 6,0.75 6,0.75" fill="none" stroke="#818181" stroke-width="4" stroke-linecap="round"/><g fill="none" stroke="#77822d" stroke-width="4" stroke-linecap="round"><path d="M490.74175,165.77939h55.33333l-28,-45.66667z"/><g><path d="M518.40842,131.77939v17"/><path d="M518.40842,157.44605v3.66667"/></g></g><g stroke-width="0" stroke-linecap="butt"><g fill-opacity="0.83922" fill="#000000" stroke="#000000"><path d="M-16.34512,373.95896v-403.48913h743.89439v403.48913z"/></g><g stroke="none"><path d="M-26.49166,392.65285v-423.0128h164.97129v423.0128z" fill="url(#color-2)"/><path d="M583.9176,389.13859v-423.0128h164.97129v423.0128z" fill="url(#color-3)"/><path d="M-27.857,104.67877v-138.29264h776.23763v138.29265z" fill="url(#color-4)"/><path d="M747.34873,255.58157v138.29264h-776.23762v-138.29264z" fill="url(#color-5)"/></g></g></g></g></g></svg>