<svg version="1.1" xmlns="http://www.w3.org/2000/svg" xmlns:xlink="http://www.w3.org/1999/xlink" width="76.33333" height="101" viewBox="0,0,76.33333,101"><defs><radialGradient cx="354.07794" cy="158.15443" r="5.05738" gradientUnits="userSpaceOnUse" id="color-1"><stop offset="0" stop-color="#b9b9b9"/><stop offset="1" stop-color="#000000"/></radialGradient><linearGradient x1="354.07794" y1="155.31399" x2="354.07794" y2="160.99487" gradientUnits="userSpaceOnUse" id="color-2"><stop offset="0" stop-color="#ffd133"/><stop offset="1" stop-color="#d1c32a"/></linearGradient><radialGradient cx="367.01196" cy="158.15412" r="5.05738" gradientUnits="userSpaceOnUse" id="color-3"><stop offset="0" stop-color="#b9b9b9"/><stop offset="1" stop-color="#000000"/></radialGradient><linearGradient x1="367.01196" y1="155.31368" x2="367.01196" y2="160.99457" gradientUnits="userSpaceOnUse" id="color-4"><stop offset="0" stop-color="#ffd133"/><stop offset="1" stop-color="#d1c32a"/></linearGradient></defs><g transform="translate(-321.83333,-129.5)"><g stroke-miterlimit="10"><path d="M321.83333,230.5v-101h76.33333v101z" fill="#273042" stroke="none" stroke-width="0"/><path d="M329.75469,196.83333v-61.66667h60.49068v61.66667z" fill="#0b0e13" stroke="none" stroke-width="0"/><path d="M343.08341,227.33333v-17.33333h33.83333v17.33333z" fill="#0b0e13" stroke="#000000" stroke-width="0"/><path d="M342.99989,209.125v-11.25h34.25v11.25z" fill="#273042" stroke="#000000" stroke-width="0"/><text transform="translate(343.39952,207.0298) scale(0.29415,0.29415)" font-size="40" xml:space="preserve" fill="#000000" stroke="none" stroke-width="1" font-family="&quot;GovtAgentBB&quot;, Serif" font-weight="normal" text-anchor="start"><tspan x="0" dy="0">Conor</tspan></text><text transform="translate(348.24454,223.17375) scale(0.37559,0.37559)" font-size="40" xml:space="preserve" fill="#43c749" stroke="none" stroke-width="1" font-family="&quot;Agency FB&quot;, Sans Serif" font-weight="normal" text-anchor="start"><tspan x="0" dy="0">EASY</tspan></text><path d="M351.76696,149.50863c4.14572,0 -2.29538,2.00911 -2.29538,3.72222c0,1.71311 -3.36076,3.10185 -7.50648,3.10185c-4.14572,0 -7.50649,-1.38875 -7.50649,-3.10185c0,-1.71311 13.16262,-3.72222 17.30834,-3.72222z" fill="#d4ac87" stroke="none" stroke-width="0"/><path d="M385.54144,153.23085c0,1.71311 -3.36076,3.10186 -7.50648,3.10186c-4.14572,0 -7.50648,-1.38875 -7.50648,-3.10186c0,-1.71311 -6.44109,-3.72222 -2.29537,-3.72222c4.14572,0 17.30834,2.00911 17.30834,3.72222z" fill="#d5d5d5" stroke="none" stroke-width="0"/><path d="M377.44014,168.08861c0,10.1738 -6.1815,16.33269 -17.47987,16.33269c-11.29838,0 -17.04375,-5.87835 -17.04375,-16.05215c0,-2.98331 1.92698,-7.35806 2.71964,-9.9587c1.91046,-6.26817 6.33882,-10.83176 14.32411,-10.83176c8.61204,0 13.49208,4.74022 15.32581,11.49994c0.57199,2.10854 2.15406,6.59104 2.15406,9.00998z" fill="#e6e6e6" stroke="none" stroke-width="0"/><g stroke="none" stroke-width="0"><path d="M349.02057,158.15443c0,-2.79311 2.26426,-5.05738 5.05738,-5.05738c2.79311,0 5.05738,2.26426 5.05738,5.05738c0,2.79311 -2.26426,5.05738 -5.05738,5.05738c-2.79311,0 -5.05738,-2.26426 -5.05738,-5.05738z" fill="url(#color-1)"/><g><g><path d="M350.40614,158.15443c0,-2.02788 1.64392,-3.6718 3.67179,-3.6718c2.02787,0 3.6718,1.64392 3.6718,3.6718c0,2.02788 -1.64392,3.67179 -3.6718,3.67179c-2.02787,0 -3.67179,-1.64392 -3.67179,-3.67179z" fill="#ffffff"/><path d="M351.23748,158.15443c0,-1.56874 1.27171,-2.84045 2.84045,-2.84045c1.56874,0 2.84045,1.27171 2.84045,2.84045c0,1.56874 -1.27171,2.84045 -2.84045,2.84045c-1.56874,0 -2.84045,-1.27171 -2.84045,-2.84045z" fill="url(#color-2)"/><path d="M353.28123,158.15443c0,-0.44001 0.3567,-0.79671 0.79671,-0.79671c0.44001,0 0.79671,0.3567 0.79671,0.79671c0,0.44001 -0.3567,0.79671 -0.79671,0.79671c-0.44001,0 -0.79671,-0.3567 -0.79671,-0.79671z" fill="#000000"/></g><path d="M355.91446,157.17138c0,0.09418 -0.26722,0.17053 -0.59685,0.17053c-0.32963,0 -0.59685,-0.07635 -0.59685,-0.17053c0,-0.09418 0.26722,-0.17053 0.59685,-0.17053c0.32963,0 0.59685,0.07635 0.59685,0.17053z" fill="#ffffff"/></g><path d="M357.84361,156.66948c0,0.67103 -1.63763,-0.10657 -3.81553,-0.10657c-2.17789,0 -3.68764,0.69234 -3.68764,0.02132c0,-0.67103 1.50975,-2.45132 3.68764,-2.45132c2.17789,0 3.81553,1.86556 3.81553,2.53658z" fill="#d3d3d3"/></g><path d="M374.747,161.854c0,1.82411 -2.13039,0.3164 -2.81021,1.28291c-1.09507,1.55688 -1.56865,2.62543 -3.70368,2.62543c-2.07266,0 -3.52191,0.34257 -4.94809,-1.89875c-0.95495,-1.50075 -2.43431,-2.82926 -2.43431,-4.73922c0,-2.34322 -1.55422,-4.96444 -0.45209,-6.51863c0.39088,-0.55121 3.21547,-1.86216 4.22039,-2.04261c1.92044,-0.34484 2.46012,0.8066 3.61411,0.8066c2.05712,0 3.76608,3.5622 5.01514,6.3449c0.85211,1.89836 1.49876,2.20801 1.49876,4.13936z" fill="#d4ac87" stroke="none" stroke-width="0"/><g stroke="none" stroke-width="0"><path d="M361.95458,158.15412c0,-2.79311 2.26426,-5.05738 5.05738,-5.05738c2.79311,0 5.05738,2.26426 5.05738,5.05738c0,2.79311 -2.26426,5.05738 -5.05738,5.05738c-2.79311,0 -5.05738,-2.26426 -5.05738,-5.05738z" fill="url(#color-3)"/><g><g><path d="M363.34016,158.15412c0,-2.02788 1.64392,-3.67179 3.6718,-3.67179c2.02787,0 3.6718,1.64392 3.6718,3.67179c0,2.02788 -1.64392,3.6718 -3.6718,3.6718c-2.02787,0 -3.6718,-1.64392 -3.6718,-3.6718z" fill="#ffffff"/><path d="M364.17152,158.15412c0,-1.56874 1.27171,-2.84045 2.84045,-2.84045c1.56874,0 2.84045,1.27171 2.84045,2.84045c0,1.56874 -1.27171,2.84045 -2.84045,2.84045c-1.56874,0 -2.84045,-1.27171 -2.84045,-2.84045z" fill="url(#color-4)"/><path d="M366.21524,158.15412c0,-0.44001 0.3567,-0.79671 0.79671,-0.79671c0.44001,0 0.79671,0.3567 0.79671,0.79671c0,0.44001 -0.3567,0.79671 -0.79671,0.79671c-0.44001,0 -0.79671,-0.3567 -0.79671,-0.79671z" fill="#000000"/></g><path d="M368.84848,157.17108c0,0.09418 -0.26722,0.17053 -0.59685,0.17053c-0.32963,0 -0.59685,-0.07635 -0.59685,-0.17053c0,-0.09418 0.26722,-0.17052 0.59685,-0.17052c0.32963,0 0.59685,0.07634 0.59685,0.17052z" fill="#ffffff"/></g><path d="M370.77763,156.66918c0,0.67103 -1.63763,-0.10657 -3.81553,-0.10657c-2.17789,0 -3.68764,0.69234 -3.68764,0.02132c0,-0.67103 1.50975,-2.45132 3.68764,-2.45132c2.17789,0 3.81553,1.86556 3.81553,2.53658z" fill="#d3d3d3"/></g><path d="M372.76181,174.19938c0,3.56326 -5.66609,6.45185 -12.65556,6.45185c-6.98947,0 -12.65556,-2.8886 -12.65556,-6.45185c0,-0.87838 -0.77235,-5.43798 -0.14879,-6.20119c1.90602,-2.33289 7.53784,-0.25065 12.80435,-0.25065c4.06509,0 9.17141,-1.38031 11.48685,0.13832c1.66571,1.0925 1.16871,4.82266 1.16871,6.31353z" fill="#d4b9ab" stroke="none" stroke-width="0"/><path d="M353.03403,169.23641c0,0.47967 -1.08322,0.24815 -2.41945,0.24815c-1.33623,0 -2.41945,0.23152 -2.41945,-0.24815c0,-0.47967 1.08322,-1.73704 2.41945,-1.73704c1.33623,0 2.41945,1.25737 2.41945,1.73704z" fill="#000000" stroke="none" stroke-width="0"/><path d="M371.14885,169.48457c0,0.47967 -1.08322,0.24816 -2.41945,0.24816c-1.33623,0 -2.41945,0.23152 -2.41945,-0.24816c0,-0.47967 1.08322,-1.73704 2.41945,-1.73704c1.33623,0 2.41945,1.25738 2.41945,1.73704z" fill="#000000" stroke="none" stroke-width="0"/></g></g></svg>