<svg version="1.1" xmlns="http://www.w3.org/2000/svg" xmlns:xlink="http://www.w3.org/1999/xlink" width="746.58709" height="367.3741" viewBox="0,0,746.58709,367.3741"><g transform="translate(13,7.3741)"><g data-paper-data="{&quot;isPaintingLayer&quot;:true}" fill-rule="nonzero" stroke-width="0" stroke-linecap="butt" stroke-linejoin="miter" stroke-miterlimit="10" stroke-dasharray="" stroke-dashoffset="0" style="mix-blend-mode: normal"><path d="M-13,153v-160.3741h746v160.3741z" fill="#323232" stroke="#000000"/><path d="M-12.41291,360v-160.3741h746v160.3741z" fill="#323232" stroke="#000000"/><path d="M155.93393,244v-128h408.13213v128z" fill="#505050" stroke="#000000"/><path d="M0,360v-360c0,0 103.57855,76.76523 153.74087,96.49007c48.08296,18.9072 141.25913,19.50993 141.25913,19.50993l1,128.5c0,0 -98.32945,-0.67062 -147.59512,18.55298c-49.40063,19.27626 -148.40488,96.94702 -148.40488,96.94702z" fill="#505050" stroke="none"/><path d="M720,0v360c0,0 -96.65721,-74.04362 -145.48316,-93.24297c-49.4982,-19.4637 -149.51684,-22.75703 -149.51684,-22.75703l-1,-128.5c0,0 123.66866,-12.21981 176.81394,-32.95724c43.63341,-17.02587 119.18606,-82.54276 119.18606,-82.54276z" fill="#505050" stroke="none"/></g></g></svg>