<svg version="1.1" xmlns="http://www.w3.org/2000/svg" xmlns:xlink="http://www.w3.org/1999/xlink" width="1911.84669" height="1058.05504" viewBox="0,0,1911.84669,1058.05504"><defs><linearGradient x1="-778.34506" y1="353.21017" x2="-373.1828" y2="353.21017" gradientUnits="userSpaceOnUse" id="color-1"><stop offset="0" stop-color="#000000"/><stop offset="1" stop-color="#000000" stop-opacity="0"/></linearGradient><linearGradient x1="1125.95546" y1="345.03985" x2="720.79323" y2="345.03985" gradientUnits="userSpaceOnUse" id="color-2"><stop offset="0" stop-color="#000000"/><stop offset="1" stop-color="#000000" stop-opacity="0"/></linearGradient><linearGradient x1="171.50449" y1="-146.08652" x2="171.50449" y2="175.43029" gradientUnits="userSpaceOnUse" id="color-3"><stop offset="0" stop-color="#000000"/><stop offset="1" stop-color="#000000" stop-opacity="0"/></linearGradient><linearGradient x1="168.97017" y1="847.7813" x2="168.97017" y2="526.26449" gradientUnits="userSpaceOnUse" id="color-4"><stop offset="0" stop-color="#000000"/><stop offset="1" stop-color="#000000" stop-opacity="0"/></linearGradient><linearGradient x1="146.44098" y1="466.83497" x2="123.37916" y2="449.25431" gradientUnits="userSpaceOnUse" id="color-5"><stop offset="0" stop-color="#484c5e"/><stop offset="1" stop-color="#212d30"/></linearGradient><linearGradient x1="143.94567" y1="489.21763" x2="112.71005" y2="465.40579" gradientUnits="userSpaceOnUse" id="color-6"><stop offset="0" stop-color="#484c5e"/><stop offset="1" stop-color="#212d30"/></linearGradient><linearGradient x1="130.99267" y1="516.61014" x2="118.22716" y2="479.46568" gradientUnits="userSpaceOnUse" id="color-7"><stop offset="0" stop-color="#484c5e"/><stop offset="1" stop-color="#212d30"/></linearGradient><linearGradient x1="105.04948" y1="536.74251" x2="111.3457" y2="497.97364" gradientUnits="userSpaceOnUse" id="color-8"><stop offset="0" stop-color="#484c5e"/><stop offset="1" stop-color="#212d30"/></linearGradient><linearGradient x1="80.94177" y1="546.35252" x2="87.23799" y2="507.58362" gradientUnits="userSpaceOnUse" id="color-9"><stop offset="0" stop-color="#484c5e"/><stop offset="1" stop-color="#212d30"/></linearGradient><linearGradient x1="60.27806" y1="554.58966" x2="66.57425" y2="515.82078" gradientUnits="userSpaceOnUse" id="color-10"><stop offset="0" stop-color="#484c5e"/><stop offset="1" stop-color="#212d30"/></linearGradient><linearGradient x1="37.03134" y1="563.85643" x2="43.32754" y2="525.08753" gradientUnits="userSpaceOnUse" id="color-11"><stop offset="0" stop-color="#484c5e"/><stop offset="1" stop-color="#212d30"/></linearGradient><linearGradient x1="16.3676" y1="572.09357" x2="22.66377" y2="533.3247" gradientUnits="userSpaceOnUse" id="color-12"><stop offset="0" stop-color="#484c5e"/><stop offset="1" stop-color="#212d30"/></linearGradient><linearGradient x1="31.74867" y1="583.54252" x2="-31.50872" y2="583.6211" gradientUnits="userSpaceOnUse" id="color-13"><stop offset="0" stop-color="#484c5e"/><stop offset="1" stop-color="#212d30"/></linearGradient><linearGradient x1="97.9949" y1="226.29856" x2="100.54575" y2="249.18129" gradientUnits="userSpaceOnUse" id="color-14"><stop offset="0" stop-color="#484c5e"/><stop offset="1" stop-color="#212d30"/></linearGradient><linearGradient x1="68.542" y1="227.66481" x2="71.99692" y2="258.65784" gradientUnits="userSpaceOnUse" id="color-15"><stop offset="0" stop-color="#484c5e"/><stop offset="1" stop-color="#212d30"/></linearGradient><linearGradient x1="35.81402" y1="229.18299" x2="39.26899" y2="260.17601" gradientUnits="userSpaceOnUse" id="color-16"><stop offset="0" stop-color="#484c5e"/><stop offset="1" stop-color="#212d30"/></linearGradient><linearGradient x1="6.72252" y1="230.53247" x2="10.17746" y2="261.52549" gradientUnits="userSpaceOnUse" id="color-17"><stop offset="0" stop-color="#484c5e"/><stop offset="1" stop-color="#212d30"/></linearGradient><linearGradient x1="-27.2176" y1="232.10687" x2="-23.76262" y2="263.0999" gradientUnits="userSpaceOnUse" id="color-18"><stop offset="0" stop-color="#484c5e"/><stop offset="1" stop-color="#212d30"/></linearGradient><linearGradient x1="-56.30913" y1="233.45635" x2="-52.85417" y2="264.4494" gradientUnits="userSpaceOnUse" id="color-19"><stop offset="0" stop-color="#484c5e"/><stop offset="1" stop-color="#212d30"/></linearGradient><linearGradient x1="-89.03708" y1="234.9745" x2="-85.5821" y2="265.96756" gradientUnits="userSpaceOnUse" id="color-20"><stop offset="0" stop-color="#484c5e"/><stop offset="1" stop-color="#212d30"/></linearGradient><linearGradient x1="-118.12859" y1="236.32401" x2="-114.67363" y2="267.31703" gradientUnits="userSpaceOnUse" id="color-21"><stop offset="0" stop-color="#484c5e"/><stop offset="1" stop-color="#212d30"/></linearGradient><linearGradient x1="222.12582" y1="226.29856" x2="219.57497" y2="249.18129" gradientUnits="userSpaceOnUse" id="color-22"><stop offset="0" stop-color="#484c5e"/><stop offset="1" stop-color="#212d30"/></linearGradient><linearGradient x1="251.57873" y1="227.66481" x2="248.1238" y2="258.65784" gradientUnits="userSpaceOnUse" id="color-23"><stop offset="0" stop-color="#484c5e"/><stop offset="1" stop-color="#212d30"/></linearGradient><linearGradient x1="284.3067" y1="229.18299" x2="280.85173" y2="260.17601" gradientUnits="userSpaceOnUse" id="color-24"><stop offset="0" stop-color="#484c5e"/><stop offset="1" stop-color="#212d30"/></linearGradient><linearGradient x1="313.3982" y1="230.53247" x2="309.94326" y2="261.52549" gradientUnits="userSpaceOnUse" id="color-25"><stop offset="0" stop-color="#484c5e"/><stop offset="1" stop-color="#212d30"/></linearGradient><linearGradient x1="347.33832" y1="232.10687" x2="343.88335" y2="263.0999" gradientUnits="userSpaceOnUse" id="color-26"><stop offset="0" stop-color="#484c5e"/><stop offset="1" stop-color="#212d30"/></linearGradient><linearGradient x1="376.42985" y1="233.45635" x2="372.97489" y2="264.4494" gradientUnits="userSpaceOnUse" id="color-27"><stop offset="0" stop-color="#484c5e"/><stop offset="1" stop-color="#212d30"/></linearGradient><linearGradient x1="409.15781" y1="234.9745" x2="405.70282" y2="265.96756" gradientUnits="userSpaceOnUse" id="color-28"><stop offset="0" stop-color="#484c5e"/><stop offset="1" stop-color="#212d30"/></linearGradient><linearGradient x1="438.24931" y1="236.32401" x2="434.79435" y2="267.31703" gradientUnits="userSpaceOnUse" id="color-29"><stop offset="0" stop-color="#484c5e"/><stop offset="1" stop-color="#212d30"/></linearGradient><linearGradient x1="177.68174" y1="476.81949" x2="200.74356" y2="459.23882" gradientUnits="userSpaceOnUse" id="color-30"><stop offset="0" stop-color="#484c5e"/><stop offset="1" stop-color="#212d30"/></linearGradient><linearGradient x1="180.177" y1="499.20214" x2="211.41267" y2="475.3903" gradientUnits="userSpaceOnUse" id="color-31"><stop offset="0" stop-color="#484c5e"/><stop offset="1" stop-color="#212d30"/></linearGradient><linearGradient x1="193.13006" y1="526.59463" x2="205.89556" y2="489.45019" gradientUnits="userSpaceOnUse" id="color-32"><stop offset="0" stop-color="#484c5e"/><stop offset="1" stop-color="#212d30"/></linearGradient><linearGradient x1="219.07321" y1="546.72702" x2="212.77702" y2="507.95815" gradientUnits="userSpaceOnUse" id="color-33"><stop offset="0" stop-color="#484c5e"/><stop offset="1" stop-color="#212d30"/></linearGradient><linearGradient x1="243.18093" y1="556.33701" x2="236.88473" y2="517.56813" gradientUnits="userSpaceOnUse" id="color-34"><stop offset="0" stop-color="#484c5e"/><stop offset="1" stop-color="#212d30"/></linearGradient><linearGradient x1="263.84463" y1="564.57417" x2="257.54847" y2="525.8053" gradientUnits="userSpaceOnUse" id="color-35"><stop offset="0" stop-color="#484c5e"/><stop offset="1" stop-color="#212d30"/></linearGradient><linearGradient x1="287.09135" y1="573.84095" x2="280.79518" y2="535.07207" gradientUnits="userSpaceOnUse" id="color-36"><stop offset="0" stop-color="#484c5e"/><stop offset="1" stop-color="#212d30"/></linearGradient><linearGradient x1="307.75513" y1="582.07807" x2="301.45891" y2="543.30921" gradientUnits="userSpaceOnUse" id="color-37"><stop offset="0" stop-color="#484c5e"/><stop offset="1" stop-color="#212d30"/></linearGradient><linearGradient x1="111.79588" y1="342.07728" x2="213.81601" y2="342.07728" gradientUnits="userSpaceOnUse" id="color-38"><stop offset="0" stop-color="#484c5e"/><stop offset="1" stop-color="#212d30"/></linearGradient><linearGradient x1="102.00193" y1="211.02739" x2="223.60994" y2="211.02739" gradientUnits="userSpaceOnUse" id="color-39"><stop offset="0" stop-color="#484c5e"/><stop offset="1" stop-color="#212d30"/></linearGradient><linearGradient x1="157.64424" y1="140.89923" x2="171.89319" y2="140.89923" gradientUnits="userSpaceOnUse" id="color-40"><stop offset="0" stop-color="#484c5e"/><stop offset="1" stop-color="#212d30"/></linearGradient><linearGradient x1="157.64424" y1="170.19217" x2="176.94347" y2="170.19217" gradientUnits="userSpaceOnUse" id="color-41"><stop offset="0" stop-color="#484c5e"/><stop offset="1" stop-color="#212d30"/></linearGradient><linearGradient x1="157.64424" y1="202.74237" x2="176.94347" y2="202.74237" gradientUnits="userSpaceOnUse" id="color-42"><stop offset="0" stop-color="#484c5e"/><stop offset="1" stop-color="#212d30"/></linearGradient><linearGradient x1="157.64424" y1="231.67586" x2="176.94347" y2="231.67586" gradientUnits="userSpaceOnUse" id="color-43"><stop offset="0" stop-color="#484c5e"/><stop offset="1" stop-color="#212d30"/></linearGradient><linearGradient x1="157.64424" y1="265.43168" x2="176.94347" y2="265.43168" gradientUnits="userSpaceOnUse" id="color-44"><stop offset="0" stop-color="#484c5e"/><stop offset="1" stop-color="#212d30"/></linearGradient><linearGradient x1="157.64424" y1="294.36517" x2="176.94347" y2="294.36517" gradientUnits="userSpaceOnUse" id="color-45"><stop offset="0" stop-color="#484c5e"/><stop offset="1" stop-color="#212d30"/></linearGradient><linearGradient x1="157.64424" y1="326.91543" x2="176.94347" y2="326.91543" gradientUnits="userSpaceOnUse" id="color-46"><stop offset="0" stop-color="#484c5e"/><stop offset="1" stop-color="#212d30"/></linearGradient><linearGradient x1="157.64424" y1="355.84891" x2="176.94347" y2="355.84891" gradientUnits="userSpaceOnUse" id="color-47"><stop offset="0" stop-color="#484c5e"/><stop offset="1" stop-color="#212d30"/></linearGradient><linearGradient x1="135.48162" y1="270.61306" x2="191.00051" y2="270.61306" gradientUnits="userSpaceOnUse" id="color-48"><stop offset="0" stop-color="#484c5e"/><stop offset="1" stop-color="#212d30"/></linearGradient><linearGradient x1="215.6149" y1="248.78634" x2="181.71023" y2="248.78634" gradientUnits="userSpaceOnUse" id="color-49"><stop offset="0" stop-color="#484c5e"/><stop offset="1" stop-color="#212d30"/></linearGradient><linearGradient x1="111.80353" y1="252.0563" x2="145.7082" y2="252.0563" gradientUnits="userSpaceOnUse" id="color-50"><stop offset="0" stop-color="#484c5e"/><stop offset="1" stop-color="#212d30"/></linearGradient><linearGradient x1="161.98605" y1="359.01939" x2="161.98605" y2="434.71204" gradientUnits="userSpaceOnUse" id="color-51"><stop offset="0" stop-color="#484c5e"/><stop offset="1" stop-color="#212d30"/></linearGradient><linearGradient x1="134.81313" y1="362.63266" x2="134.81313" y2="380.47449" gradientUnits="userSpaceOnUse" id="color-52"><stop offset="0" stop-color="#484c5e"/><stop offset="1" stop-color="#212d30"/></linearGradient><linearGradient x1="191.90701" y1="362.63266" x2="191.90701" y2="380.47449" gradientUnits="userSpaceOnUse" id="color-53"><stop offset="0" stop-color="#484c5e"/><stop offset="1" stop-color="#212d30"/></linearGradient><linearGradient x1="292.37405" y1="593.52704" x2="355.63144" y2="593.60561" gradientUnits="userSpaceOnUse" id="color-54"><stop offset="0" stop-color="#484c5e"/><stop offset="1" stop-color="#212d30"/></linearGradient><radialGradient cx="160.06036" cy="332.44392" r="913.48596" gradientUnits="userSpaceOnUse" id="color-55"><stop offset="0" stop-color="#000000" stop-opacity="0.83922"/><stop offset="1" stop-color="#000000" stop-opacity="0"/></radialGradient><radialGradient cx="160.06036" cy="332.44392" r="913.48597" gradientUnits="userSpaceOnUse" id="color-56"><stop offset="0" stop-color="#000000" stop-opacity="0"/><stop offset="1" stop-color="#000000"/></radialGradient><linearGradient x1="129.76903" y1="169.47192" x2="151.77196" y2="169.47192" gradientUnits="userSpaceOnUse" id="color-57"><stop offset="0" stop-color="#484c5e"/><stop offset="1" stop-color="#212d30"/></linearGradient><linearGradient x1="192.16829" y1="157.01915" x2="214.17121" y2="157.01915" gradientUnits="userSpaceOnUse" id="color-58"><stop offset="0" stop-color="#484c5e"/><stop offset="1" stop-color="#212d30"/></linearGradient><radialGradient cx="140.77047" cy="169.47192" r="40.8467" gradientUnits="userSpaceOnUse" id="color-59"><stop offset="0" stop-color="#ffffff" stop-opacity="0.38039"/><stop offset="1" stop-color="#ffffff" stop-opacity="0"/></radialGradient><linearGradient x1="99.92382" y1="169.47192" x2="181.61718" y2="169.47192" gradientUnits="userSpaceOnUse" id="color-60"><stop offset="0" stop-color="#484c5e"/><stop offset="1" stop-color="#212d30"/></linearGradient><radialGradient cx="203.16975" cy="157.01915" r="40.84667" gradientUnits="userSpaceOnUse" id="color-61"><stop offset="0" stop-color="#ffffff" stop-opacity="0.38039"/><stop offset="1" stop-color="#ffffff" stop-opacity="0"/></radialGradient><linearGradient x1="162.32308" y1="157.01915" x2="244.01645" y2="157.01915" gradientUnits="userSpaceOnUse" id="color-62"><stop offset="0" stop-color="#484c5e"/><stop offset="1" stop-color="#212d30"/></linearGradient></defs><g transform="translate(785.89123,196.58357)"><g stroke-miterlimit="10"><g><g stroke-linecap="butt"><path d="M-746.74009,264.42612v-404.01101h1813.60091v404.01101z" fill="#323232" stroke="#000000" stroke-width="0"/><path d="M-175.43149,493.67143v-322.45487h624.79281v322.45487z" fill="#3f3f3f" stroke="#000000" stroke-width="0"/><path d="M-34.42767,427.70157v-224.2069h386.54496v224.2069z" fill="#686868" stroke="#000000" stroke-width="0"/><path d="M-745.31281,785.89613v-322.45487h1813.60091v322.45487z" fill="#323232" stroke="#000000" stroke-width="0"/><path d="M-715.13578,785.89613v-906.90432l717.17463,292.22472l2.4311,323.71446z" fill="#505050" stroke="none" stroke-width="0"/><path d="M1035.25651,-121.00818v906.90432l-717.17463,-292.22472l-2.4311,-323.71446z" fill="#505050" stroke="none" stroke-width="0"/><path d="M-753.42561,623.40911v-566.81521l757.28778,209.09182v105.8055z" fill="#909090" stroke="#000000" stroke-width="0"/><path d="M316.25857,371.49127v-105.8055l757.28778,-209.09182v566.81521z" fill="#909090" stroke="#000000" stroke-width="0"/><text transform="translate(66.15475,298.05067) scale(2.02157,2.09479)" font-size="40" xml:space="preserve" fill="#000000" stroke="#000000" stroke-width="3" font-family="&quot;Agency FB&quot;, Sans Serif" font-weight="normal" text-anchor="start"><tspan x="0" dy="0">A . S . C</tspan></text><text transform="translate(73.76871,310.74449) rotate(90) scale(0.54666,0.52755) skewX(0)" font-size="40" xml:space="preserve" fill="#000000" stroke="#000000" stroke-width="2" font-family="&quot;Agency FB&quot;, Sans Serif" font-weight="normal" text-anchor="start"><tspan x="0" dy="0">NIMATRONIC</tspan></text><text transform="translate(152.75835,312.42394) rotate(90) scale(0.54666,0.52755) skewX(0)" font-size="40" xml:space="preserve" fill="#000000" stroke="#000000" stroke-width="2" font-family="&quot;Agency FB&quot;, Sans Serif" font-weight="normal" text-anchor="start"><tspan x="0" dy="0">ECURITY</tspan></text><text transform="translate(234.6054,312.42394) rotate(90) scale(0.54666,0.52755) skewX(0)" font-size="40" xml:space="preserve" fill="#000000" stroke="#000000" stroke-width="2" font-family="&quot;Agency FB&quot;, Sans Serif" font-weight="normal" text-anchor="start"><tspan x="0" dy="0">ENTER</tspan></text><path d="M72.54074,55.4929c0,-15.57589 39.18385,-28.20261 87.51962,-28.20261c48.33576,0 87.51962,12.62672 87.51962,28.20261c0,15.57589 -40.39941,42.0581 -88.73517,42.0581c-48.33576,0 -86.30406,-26.48221 -86.30406,-42.0581z" fill="#181818" stroke="#000000" stroke-width="0"/><path d="M88.14902,70.58387c0,-12.79805 32.19581,-23.17295 71.91134,-23.17295c39.71556,0 71.91134,10.37488 71.91134,23.17295c0,12.79805 -33.19458,34.55743 -72.91012,34.55743c-39.71556,0 -70.91257,-21.75938 -70.91257,-34.55743z" fill="#404040" stroke="#000000" stroke-width="0"/></g><path d="M-785.89123,-45.43285v-151.15072h1891.90318v151.15072z" fill="#000000" stroke-opacity="0.50196" stroke="#0d0d0d" stroke-width="0" stroke-linecap="butt"/><path d="M-785.89123,861.47147v-151.15072h1891.90318v151.15072z" fill="#000000" stroke-opacity="0.50196" stroke="#0d0d0d" stroke-width="0" stroke-linecap="butt"/><g stroke="none" stroke-width="0" stroke-linecap="butt"><path d="M-778.34506,844.94172v-983.46315h405.16226v983.46315z" fill="url(#color-1)"/><path d="M720.79323,836.7714v-983.46315h405.16223v983.46315z" fill="url(#color-2)"/><path d="M-781.69826,175.43029v-321.51678h1906.40549v321.51681z" fill="url(#color-3)"/><path d="M1122.17292,526.26449v321.51678h-1906.40549v-321.51678z" fill="url(#color-4)"/></g><g fill="none" stroke-width="3.25" stroke-linecap="round"><path d="M145.18622,478.09008c0,0 -14.53994,-10.29637 -20.29435,-14.37131c-4.25883,-3.01583 -3.05073,-8.17675 1.77516,-8.35917c4.04197,-0.15276 11.84029,-0.44755 16.75264,-0.63325c2.59868,-0.09824 1.63205,-2.26819 -0.50169,-3.89483c-4.0391,-3.07911 -17.52757,-13.36174 -17.52757,-13.36174" stroke="url(#color-5)"/><path d="M142.72154,500.19811c0,0 -14.53994,-10.29634 -20.29435,-14.37131c-4.25883,-3.01589 -3.05067,-8.17675 1.77516,-8.35917c6.18025,-0.2336 21.14236,-0.79918 21.14236,-0.79918" stroke="url(#color-6)"/><path d="M123.87962,525.06443c0,0 -6.37954,-16.63507 -8.90434,-23.21869c-1.86858,-4.87252 2.0009,-8.49485 6.11639,-5.96795c5.27047,3.23603 21.22706,3.96607 21.22706,3.96607" stroke="url(#color-7)"/><path d="M94.78633,540.83366c0,0 2.23579,-17.67556 3.12068,-24.67097c0.65491,-5.17726 5.77657,-6.54192 8.21015,-2.37059c3.11655,5.34199 17.41069,11.52572 17.41069,11.52572" stroke="url(#color-8)"/><path d="M70.67864,550.44367c0,0 2.23579,-17.67556 3.12065,-24.67097c0.65491,-5.17726 5.77657,-6.54195 8.21018,-2.37062c3.11655,5.34199 10.66164,18.27478 10.66164,18.27478" stroke="url(#color-9)"/><path d="M50.01491,558.68081c0,0 2.23579,-17.67556 3.12068,-24.67097c0.65491,-5.17726 5.7766,-6.54192 8.21018,-2.37059c3.11655,5.34199 10.66161,18.27478 10.66161,18.27478" stroke="url(#color-10)"/><path d="M26.76817,567.94758c0,0 2.23579,-17.67556 3.12068,-24.67097c0.65491,-5.17726 5.77657,-6.54192 8.21018,-2.37059c3.11655,5.34199 10.66161,18.27478 10.66161,18.27478" stroke="url(#color-11)"/><path d="M6.10441,576.18473c0,0 2.23579,-17.67559 3.12065,-24.67097c0.65491,-5.17726 5.77657,-6.54192 8.21018,-2.37059c3.11655,5.34199 10.66164,18.27478 10.66164,18.27478" stroke="url(#color-12)"/></g><path d="M-31.50872,583.6211c-0.02171,-17.46804 14.12135,-31.64628 31.58939,-31.66797c10.10861,-0.01255 34.37803,13.43214 34.37803,13.43214c0,0 2.14544,9.71042 2.15458,17.0699c0.02171,17.46807 -68.10027,18.63399 -68.122,1.16595z" fill="#272727" stroke="url(#color-13)" stroke-width="0" stroke-linecap="butt"/><g><g fill="none" stroke-width="3.25" stroke-linecap="round"><path d="M116.62637,247.7942c0,0 -1.49196,-13.38369 -1.93871,-17.39143c-0.23602,-2.11719 -2.09724,-3.14179 -4.35521,-0.65829c-4.26823,4.69458 -11.04409,12.14726 -14.55606,16.01004c-4.19312,4.61194 -11.50471,5.53274 -11.6933,1.31755c-0.25481,-5.69545 -0.89861,-20.08649 -0.89861,-20.08649" stroke="url(#color-14)"/><path d="M85.05515,226.8988c0,0 -13.00037,14.29888 -18.37028,20.20518c-4.19314,4.61198 -11.50473,5.53277 -11.6933,1.31758c-0.25481,-5.69545 -0.8986,-20.08649 -0.8986,-20.08649" stroke="url(#color-15)"/><path d="M52.32716,228.41698c0,0 -13.00037,14.29888 -18.37026,20.20518c-4.19312,4.61197 -11.50471,5.53277 -11.69327,1.31758c-0.25481,-5.69545 -0.89861,-20.08649 -0.89861,-20.08649" stroke="url(#color-16)"/><path d="M23.23569,229.76649c0,0 -13.00037,14.29888 -18.37028,20.20518c-4.19314,4.61197 -11.50473,5.53274 -11.6933,1.31755c-0.25481,-5.69545 -0.8986,-20.08649 -0.8986,-20.08649" stroke="url(#color-17)"/><path d="M-10.70446,231.34084c0,0 -13.0004,14.29888 -18.37028,20.20518c-4.19312,4.61197 -11.50469,5.53277 -11.69327,1.31758c-0.25481,-5.69545 -0.8986,-20.08648 -0.8986,-20.08648" stroke="url(#color-18)"/><path d="M-39.79599,232.69032c0,0 -13.00037,14.29888 -18.37026,20.20518c-4.19314,4.61198 -11.50473,5.53277 -11.6933,1.31758c-0.25481,-5.69545 -0.8986,-20.08648 -0.8986,-20.08648" stroke="url(#color-19)"/><path d="M-72.52396,234.20852c0,0 -13.00037,14.29886 -18.37028,20.20515c-4.19312,4.61197 -11.50469,5.53277 -11.69327,1.31758c-0.25481,-5.69545 -0.8986,-20.08649 -0.8986,-20.08649" stroke="url(#color-20)"/><path d="M-101.61545,235.55797c0,0 -13.00037,14.29888 -18.37026,20.20518c-4.19314,4.61198 -11.50473,5.53277 -11.6933,1.31758c-0.25481,-5.69545 -0.8986,-20.08649 -0.8986,-20.08649" stroke="url(#color-21)"/></g><path d="M-162.02046,206.8409c11.13797,-13.92144 28.98464,7.74385 35.09506,12.89207c4.62745,3.89873 28.37293,-1.54373 26.92453,5.76545c-0.46421,2.34239 -23.22516,17.61518 -24.36505,19.79127c-1.74542,3.33201 -6.56365,21.79608 -9.08695,23.38481c-4.26688,2.6865 -6.64169,-13.23631 -10.48139,-16.4714c-1.803,-1.51906 -15.37716,-1.16483 -15.66325,-11.71545c-0.10279,-3.79058 2.50174,2.13919 6.45894,-2.56473c3.06105,-3.63867 -20.37919,-16.71145 -8.88189,-31.08201z" fill="#0d0d0d" stroke="#000000" stroke-width="0" stroke-linecap="butt"/></g><g><g fill="none" stroke-width="3.25" stroke-linecap="round"><path d="M236.93622,226.98559c0,0 -0.6438,14.39104 -0.89861,20.08649c-0.18857,4.21519 -7.50015,3.29439 -11.6933,-1.31755c-3.51201,-3.86281 -10.28785,-11.31544 -14.55606,-16.01004c-2.25797,-2.48351 -4.11918,-1.4589 -4.35521,0.65829c-0.44675,4.00776 -1.93871,17.39143 -1.93871,17.39143" stroke="url(#color-22)"/><path d="M266.02773,228.33505c0,0 -0.64377,14.39104 -0.8986,20.08649c-0.18857,4.21519 -7.50015,3.29439 -11.6933,-1.31758c-5.36989,-5.90629 -18.37028,-20.20518 -18.37028,-20.20518" stroke="url(#color-23)"/><path d="M298.75571,229.85324c0,0 -0.6438,14.39104 -0.89861,20.08649c-0.18857,4.21519 -7.50015,3.29439 -11.69327,-1.31758c-5.36989,-5.90629 -18.37026,-20.20518 -18.37026,-20.20518" stroke="url(#color-24)"/><path d="M327.84721,231.20272c0,0 -0.64377,14.39104 -0.8986,20.08649c-0.18857,4.21519 -7.50015,3.29439 -11.6933,-1.31755c-5.36989,-5.90629 -18.37028,-20.20518 -18.37028,-20.20518" stroke="url(#color-25)"/><path d="M361.7873,232.77713c0,0 -0.64377,14.39101 -0.8986,20.08648c-0.18857,4.21519 -7.50015,3.29439 -11.69327,-1.31758c-5.36989,-5.90629 -18.37028,-20.20518 -18.37028,-20.20518" stroke="url(#color-26)"/><path d="M390.87882,234.12661c0,0 -0.64377,14.39101 -0.8986,20.08648c-0.18857,4.21519 -7.50015,3.29439 -11.6933,-1.31758c-5.36989,-5.90629 -18.37026,-20.20518 -18.37026,-20.20518" stroke="url(#color-27)"/><path d="M423.60681,235.64476c0,0 -0.64377,14.39104 -0.8986,20.08649c-0.18857,4.21519 -7.50015,3.29439 -11.69327,-1.31758c-5.36989,-5.90629 -18.37028,-20.20515 -18.37028,-20.20515" stroke="url(#color-28)"/><path d="M452.69831,236.99423c0,0 -0.64377,14.39104 -0.8986,20.08649c-0.18857,4.21519 -7.50015,3.29439 -11.6933,-1.31758c-5.36989,-5.90629 -18.37026,-20.20518 -18.37026,-20.20518" stroke="url(#color-29)"/></g><path d="M482.14119,206.84092c11.4973,14.37056 -11.94292,27.44333 -8.88189,31.08201c3.9572,4.70391 6.56173,-1.22586 6.45894,2.56473c-0.28608,10.55062 -13.86024,10.19638 -15.66325,11.71545c-3.83971,3.23508 -6.21451,19.15793 -10.48139,16.4714c-2.5233,-1.58875 -7.34155,-20.05282 -9.08695,-23.38481c-1.13988,-2.17609 -23.90086,-17.44889 -24.36505,-19.79127c-1.44841,-7.30917 22.29707,-1.8667 26.92453,-5.76545c6.11042,-5.14822 23.95709,-26.81351 35.09506,-12.89207z" fill="#0d0d0d" stroke="#000000" stroke-width="0" stroke-linecap="butt"/></g><g fill="none" stroke-width="3.25" stroke-linecap="round"><path d="M198.73229,447.4543c0,0 -13.48847,10.28263 -17.52757,13.36174c-2.13374,1.62661 -3.10038,3.79657 -0.50169,3.89483c4.91232,0.18569 12.71067,0.48048 16.75264,0.63325c4.82589,0.18238 6.03396,5.34331 1.77516,8.35914c-5.75438,4.07497 -20.29435,14.37131 -20.29435,14.37131" stroke="url(#color-30)"/><path d="M178.77801,486.65301c0,0 14.9621,0.56556 21.14236,0.79918c4.82587,0.18241 6.03396,5.34328 1.77516,8.35917c-5.75438,4.07497 -20.29435,14.37131 -20.29435,14.37131" stroke="url(#color-31)"/><path d="M181.804,509.82834c0,0 15.95658,-0.73001 21.22706,-3.96607c4.11548,-2.52688 7.98497,1.09546 6.11639,5.96798c-2.5248,6.58363 -8.90434,23.21869 -8.90434,23.21869" stroke="url(#color-32)"/><path d="M200.59485,535.30232c0,0 14.29414,-6.1837 17.41069,-11.52572c2.43358,-4.17133 7.55524,-2.80667 8.21015,2.37059c0.88486,6.99539 3.12065,24.67097 3.12065,24.67097" stroke="url(#color-33)"/><path d="M231.45156,551.66138c0,0 7.54507,-12.93278 10.66164,-18.27478c2.43358,-4.17133 7.55527,-2.80667 8.21018,2.37059c0.88486,6.99539 3.12065,24.67097 3.12065,24.67097" stroke="url(#color-34)"/><path d="M252.11533,559.89852c0,0 7.54507,-12.93276 10.66161,-18.27478c2.43358,-4.17133 7.55527,-2.80667 8.21018,2.37059c0.88486,6.99539 3.12065,24.67097 3.12065,24.67097" stroke="url(#color-35)"/><path d="M275.36208,569.16532c0,0 7.54507,-12.93278 10.66161,-18.27478c2.43358,-4.17133 7.55527,-2.8067 8.21018,2.37059c0.88486,6.99539 3.12068,24.67097 3.12068,24.67097" stroke="url(#color-36)"/><path d="M296.0258,577.40246c0,0 7.54507,-12.93278 10.66164,-18.27478c2.43358,-4.17133 7.55527,-2.80667 8.21018,2.37059c0.88486,6.99539 3.12065,24.67097 3.12065,24.67097" stroke="url(#color-37)"/></g><path d="M213.81598,342.07728c0,1.31288 -14.88132,1.20402 -29.97601,-4.90152c-6.93099,-2.80347 -9.72042,-14.27825 -18.58557,-14.27825c-10.04772,0 -10.49106,11.15649 -18.45444,14.92304c-14.36456,6.7942 -32.96368,7.93768 -32.96368,6.70522c0,-1.91571 20.7976,-65.70096 48.96966,-65.70096c28.17207,0 51.01004,61.33678 51.01004,63.25248z" fill="#4c1212" stroke="url(#color-38)" stroke-width="0" stroke-linecap="butt"/><path d="M223.60994,211.02739c0,1.4086 -24.3663,22.54645 -57.94741,22.54645c-33.58113,0 -61.00805,-18.07725 -61.00805,-19.48584c0,-0.6954 29.80794,2.28739 59.16616,1.52323c30.10998,-0.78372 59.7893,-5.29702 59.7893,-4.58385z" fill="#4c1212" stroke="url(#color-39)" stroke-width="0" stroke-linecap="butt"/><g fill="none" stroke-width="3.25" stroke-linecap="round"><path d="M229.04072,149.55805c0,0 -8.33394,0 -10.82954,0c-1.31836,0 -2.00658,1.72859 -0.53298,4.23665c2.78559,4.74105 -31.58166,-4.78286 -29.28961,-0.88181c2.73656,4.65759 14.17957,16.2562 11.56288,15.97787c-3.53562,-0.37609 -24.83066,-4.31021 -24.83066,-4.31021" stroke="url(#color-40)"/><path d="M175.1208,165.70389c0,0 8.48444,14.44041 11.98902,20.40515c2.73656,4.65759 -9.26453,4.32097 -11.88125,4.04267c-3.53562,-0.37609 -13.32174,1.6574 -13.32174,1.6574" stroke="url(#color-41)"/><path d="M161.90682,193.56531c0,0 4.22186,7.19402 7.72645,13.15875c2.73656,4.65759 3.09691,11.99358 0.4802,11.71528c-3.53562,-0.37609 -12.46923,-1.32639 -12.46923,-1.32639" stroke="url(#color-42)"/><path d="M157.64424,215.25244c0,0 8.48444,14.44041 11.98902,20.40515c2.73656,4.65759 3.09691,11.99361 0.4802,11.71528c-3.53562,-0.37609 -12.46923,-1.32642 -12.46923,-1.32642" stroke="url(#color-43)"/><path d="M157.64424,249.00819c0,0 8.48444,14.44041 11.98902,20.40515c2.73656,4.65759 3.09691,11.99358 0.4802,11.71528c-3.53562,-0.37609 -12.46923,-1.32639 -12.46923,-1.32639" stroke="url(#color-44)"/><path d="M157.64424,277.94172c0,0 8.48444,14.44039 11.98902,20.40512c2.73656,4.65759 3.09691,11.99361 0.4802,11.71528c-3.53562,-0.37609 -12.46923,-1.32639 -12.46923,-1.32639" stroke="url(#color-45)"/><path d="M157.64424,310.49193c0,0 8.48444,14.44041 11.98902,20.40515c2.73656,4.65759 3.09691,11.99361 0.4802,11.71528c-3.53562,-0.37609 -12.46923,-1.32642 -12.46923,-1.32642" stroke="url(#color-46)"/><path d="M157.64424,339.42545c0,0 8.48444,14.44041 11.98902,20.40515c2.73656,4.65759 3.09691,11.99361 0.4802,11.71528c-3.53562,-0.37609 -12.46923,-1.32642 -12.46923,-1.32642" stroke="url(#color-47)"/></g><path d="M133.06568,247.21164c0,-6.59176 -14.36078,-19.66627 -12.66651,-22.72617c2.13553,-3.85683 20.76882,3.15152 24.91294,2.59992c5.05048,-0.67221 11.30973,0.15531 18.08825,0.15531c7.09015,0 13.97547,-0.6587 19.55946,0.4784c3.33556,0.67922 20.69366,-4.32605 22.86682,-1.84215c2.78515,3.18339 -10.06314,14.60381 -10.06314,22.71198c0,13.46117 0.64703,43.22812 -6.13427,57.93587c-5.82593,12.63566 -18.48697,11.34261 -26.22888,11.34261c-6.50655,0 -21.38612,-2.47512 -26.32599,-12.36017c-7.77956,-15.56747 -4.00873,-42.9891 -4.00873,-58.29561z" fill="#dadada" stroke="#000000" stroke-width="0" stroke-linecap="butt"/><path d="M135.48162,270.61306c0,-18.67487 12.42832,-33.81391 27.75944,-33.81391c15.33112,0 27.75947,15.139 27.75947,33.81391c0,18.67487 -12.42835,33.81391 -27.75947,33.81391c-15.33112,0 -27.75944,-15.139 -27.75944,-33.81391z" fill="#ababab" stroke="url(#color-48)" stroke-width="0" stroke-linecap="butt"/><path d="M187.57008,316.89383c-4.22431,-26.91514 3.94395,-88.17065 7.22768,-95.77234c5.50206,-12.73709 18.9479,-11.85832 29.71711,-10.90172c6.31832,0.56127 -7.96839,50.55268 -20.75175,82.73759c-6.08472,15.31965 11.85176,49.49063 11.85176,49.49063c0,0 -23.81398,1.40263 -28.04481,-25.55415z" fill="#801d1d" stroke="url(#color-49)" stroke-width="0" stroke-linecap="butt"/><path d="M111.80353,345.71793c0,0 17.93649,-34.17097 11.85176,-49.49063c-12.78336,-32.1849 -27.07009,-82.17634 -20.75174,-82.73759c10.76927,-0.9566 24.21508,-1.83539 29.71711,10.90169c3.2837,7.60172 11.45199,68.85724 7.22768,95.77237c-4.23083,26.95675 -28.04481,25.55415 -28.04481,25.55415z" fill="#801d1d" stroke="url(#color-50)" stroke-width="0" stroke-linecap="butt"/><path d="M129.70965,361.90511c6.09908,-4.20695 62.93505,-7.38533 69.87749,0.85085c5.55086,6.58528 12.74201,80.93953 4.89653,96.73427c-6.27534,12.63376 -38.75066,-0.395 -38.75066,-0.395c0,0 0.66935,-57.90511 -2.82901,-57.90697c-3.42495,-0.00183 -3.49714,58.07321 -3.49714,58.07321c0,0 -36.05895,-3.78895 -40.25991,-3.54512c-8.50492,0.49366 0.66589,-86.98479 10.56271,-93.81127z" fill="#0d0d0d" stroke="url(#color-51)" stroke-width="0" stroke-linecap="butt"/><path d="M125.89222,371.55357c0,-4.92688 3.99404,-8.92092 8.92094,-8.92092c4.92688,0 8.92092,3.99401 8.92092,8.92092c0,4.92688 -3.99404,8.92092 -8.92092,8.92092c-4.92688,0 -8.92094,-3.99404 -8.92094,-8.92092z" fill="#e1f194" stroke="url(#color-52)" stroke-width="0" stroke-linecap="butt"/><path d="M182.98609,371.55357c0,-4.92688 3.99404,-8.92092 8.92092,-8.92092c4.92688,0 8.92094,3.99401 8.92094,8.92092c0,4.92688 -3.99404,8.92092 -8.92094,8.92092c-4.92688,0 -8.92092,-3.99404 -8.92092,-8.92092z" fill="#e1f194" stroke="url(#color-53)" stroke-width="0" stroke-linecap="butt"/><path d="M287.50944,592.43966c0.00915,-7.35947 2.15458,-17.0699 2.15458,-17.0699c0,0 24.26942,-13.44468 34.378,-13.43211c17.46804,0.02171 31.61108,14.19993 31.58939,31.66797c-0.02171,17.46804 -68.14368,16.30208 -68.12197,-1.16595z" fill="#272727" stroke="url(#color-54)" stroke-width="0" stroke-linecap="butt"/><g stroke="#000000" stroke-width="0" stroke-linecap="butt"><path d="M190.92708,270.27988l-7.29169,-34.84746l8.25005,-1.72625l7.29169,34.84745z" fill="#2f323e"/><path d="M177.53313,234.93753c-5.37965,-5.51816 -10.7676,-28.60321 -10.7676,-28.60321l28.04768,-6.14043c0,0 3.54481,22.72151 2.1777,29.96147c-0.92182,4.88189 -5.92062,5.34766 -9.50186,6.09699c-2.66851,0.55836 -7.67818,1.02148 -9.95592,-1.31491z" fill="#2f323e"/><g><path d="M238.62049,166.29769c-3.44122,-6.69383 -7.38082,-9.75529 -10.06938,-14.84865c-2.53694,-4.80612 -3.85421,-11.7231 -6.03452,-15.37999c-5.38827,-9.03748 -9.7961,-15.07625 -11.10326,-21.40063c-0.81619,-3.94901 1.43022,-11.16638 1.75899,-14.70214c0.35976,-3.869 11.49557,-6.64997 18.93415,-4.72287c6.47618,1.6778 8.77798,7.31648 16.17497,13.92456c3.30909,2.95616 12.25875,9.74509 15.28453,13.60691c5.01838,6.40498 4.81499,11.24818 7.49763,18.31932c2.24767,5.92458 9.426,13.85928 12.22474,20.71622c1.30619,3.20012 -1.28501,5.45733 -0.42872,8.45255c1.03372,3.61591 7.51751,14.38328 8.2715,17.67512c2.1411,9.34771 -0.49769,12.92946 -0.8038,19.08159c-0.36327,7.30172 6.83186,21.24487 5.04649,25.8663c-2.60821,6.75139 -13.55053,10.23323 -17.63425,11.4007c-4.00917,1.14612 -8.51958,6.17973 -13.55939,2.56967c-3.89956,-2.79328 -8.56395,-10.78291 -12.69003,-19.6747c-2.459,-5.29915 -4.35156,-5.00946 -6.59239,-11.57993c-1.33799,-3.92316 -3.02924,-14.05118 -4.40496,-18.86351c-2.3215,-8.12054 5.95388,-15.2171 -1.8723,-30.4406z" fill="#a3a3a3"/><path d="M219.50353,105.29127c3.10471,-1.55215 8.68859,3.32447 12.47194,10.89222c3.78335,7.56776 4.33349,14.9609 1.22878,16.51303c-3.10471,1.55215 -8.68862,-3.32447 -12.47197,-10.89222c-3.78335,-7.56776 -4.33351,-14.9609 -1.22881,-16.51306z" fill="#0d0d0d"/></g><path d="M224.1229,112.23337c2.08399,0.33606 4.38316,2.96819 5.42991,4.8497c0.75077,1.34952 1.86143,4.0935 1.60366,5.50582c-1.57068,8.6073 -20.37048,15.7041 -24.94584,7.47979c-4.27935,-7.69237 9.39203,-19.20916 17.91222,-17.83531z" fill="#2f323e"/><g><path d="M128.941,223.04228c0.66915,4.96018 3.18043,14.91652 3.52766,19.04698c0.58147,6.9177 -1.26846,7.4111 -1.39649,13.25163c-0.21488,9.80016 -1.28459,18.98965 -3.73707,23.11205c-3.16955,5.32783 -9.3198,2.5249 -13.45214,3.08237c-4.2092,0.56783 -15.62951,1.76527 -20.72579,-3.37401c-3.48848,-3.51793 -2.48732,-19.17611 -5.74764,-25.71959c-2.74701,-5.51328 -6.60046,-7.73658 -8.38692,-17.15848c-0.62911,-3.31796 0.99372,-15.78165 0.49096,-19.50862c-0.41646,-3.08725 -3.69525,-4.11622 -3.78169,-7.57154c-0.18524,-7.40382 3.20956,-17.55095 2.89327,-23.87962c-0.3775,-7.55351 -2.50566,-11.90879 -0.47627,-19.78853c1.22359,-4.75102 6.70046,-14.55866 8.54667,-18.59353c4.12695,-9.01942 3.97491,-15.10794 9.23514,-19.24154c6.04189,-4.7479 17.35842,-6.66494 19.23927,-3.26473c1.71886,3.10729 6.67054,8.81854 7.50607,12.76341c1.33821,6.3179 -0.2787,13.61727 -1.59146,24.05693c-0.5312,4.22426 1.03536,11.08907 0.63813,16.50918c-0.42093,5.744 -2.80253,10.12816 -3.27126,17.64011c-1.066,17.08409 9.36044,20.26738 10.48954,28.63744z" fill="#a3a3a3"/><path d="M116.99986,146.47208c-0.43177,8.44976 -3.59197,15.15607 -7.05856,14.97889c-3.46659,-0.17718 -5.92676,-7.17058 -5.49501,-15.62035c0.43177,-8.44976 3.59197,-15.15607 7.05856,-14.97889c3.46659,0.17718 5.92676,7.17058 5.49501,15.62035z" fill="#0d0d0d"/></g><path d="M133.61672,148.2209c-0.89404,9.36878 -20.96203,10.40489 -25.85194,3.14946c-0.80238,-1.19054 -0.88507,-4.14956 -0.73839,-5.68686c0.20459,-2.1433 1.25553,-5.47651 3.02995,-6.61992c7.25461,-4.67472 24.39654,0.39461 23.56034,9.15731z" fill="#2f323e"/><path d="M243.19364,201.43978c0.35145,1.67959 -26.9673,19.83153 -56.7566,26.06345c-29.74372,6.2224 -61.95744,0.52738 -62.30834,-1.14959c-0.34971,-1.67129 31.31102,2.38765 60.9514,-3.82174c29.88813,-6.26129 57.76091,-22.77739 58.11349,-21.09209z" fill="#686e88"/><path d="M242.58424,200.69171c0.97482,4.65899 5.6411,57.5988 -47.94132,68.81068c-53.58242,11.21188 -70.69301,-41.83916 -71.66789,-46.49816c-0.97482,-4.65899 14.55515,40.83829 68.13759,29.62639c53.58242,-11.21188 50.49679,-56.5979 51.47168,-51.93891z" fill="#dadada"/><path d="M183.38448,246.29733l-6.92593,-33.09961l12.4254,-2.59992l6.92593,33.09961z" fill="#24262f"/><path d="M110.71739,187.75754c-7.43878,-35.5505 15.35026,-70.40014 50.90073,-77.83897c35.55047,-7.43878 70.40017,15.35022 77.83894,50.90071c7.43878,35.55047 -121.30084,62.48871 -128.73965,26.93824z" fill="#dadada"/><path d="M122.06867,179.22748c-3.1996,-15.29116 6.60252,-30.28081 21.89361,-33.48044c15.29116,-3.1996 30.28085,6.60246 33.48044,21.89361c3.1996,15.29116 -6.60252,30.28081 -21.89368,33.48044c-15.29116,3.1996 -30.28081,-6.60252 -33.48044,-21.89361z" fill="#000000"/><path d="M167.34676,170.88099c-3.1996,-15.29116 6.60246,-30.28085 21.89361,-33.48044c15.29116,-3.1996 30.28084,6.60252 33.48044,21.89362c3.1996,15.29116 -6.60246,30.28081 -21.89362,33.48041c-15.29116,3.1996 -30.28081,-6.60246 -33.48044,-21.89361z" fill="#000000"/><path d="M250.04389,166.27981c1.79734,9.18442 -13.02546,39.38678 -67.04389,50.68986c-54.01837,11.30313 -78.05708,-12.29525 -80.09769,-21.42871c-6.32379,-28.3039 19.13817,-0.44025 73.15654,-11.7434c54.01837,-11.30313 68.18885,-47.13607 73.98503,-17.51782z" fill="#ababab"/><path d="M157.46994,194.6209c-5.06527,-24.20724 -4.33933,-82.96726 2.98654,-84.50019c7.32588,-1.53292 32.811,46.52546 37.87625,70.73269c5.06527,24.20724 -35.79756,37.9747 -40.8628,13.76751z" fill="#ababab"/><path d="M199.29634,177.7601c0.37463,1.79017 -5.14469,25.04178 -17.75051,27.6795c-12.60585,2.63773 -27.52472,-16.33722 -27.89932,-18.12744c-0.37463,-1.79017 45.27529,-11.34222 45.64986,-9.55207z" fill="#1d1d1d"/><g><path d="M198.85538,44.18005c1.68289,8.04261 -18.865,19.14735 -45.89499,24.80328c-27.02996,5.6559 -50.30632,3.72113 -51.9892,-4.32142c-0.27835,-1.33031 -0.53936,-5.37988 3.74468,-7.20546c16.54974,-7.05261 64.93044,-16.8386 86.01078,-17.17447c6.4524,-0.10283 7.79955,2.32505 8.12868,3.89808z" fill="#101010"/><path d="M198.58744,45.46856c3.61742,17.28787 7.25209,45.50307 -8.58117,60.89722c-11.24126,10.92948 -39.95367,11.70156 -51.17492,14.04951c-27.02633,5.65517 -31.92923,-24.90576 -38.11495,-54.46764c-2.22684,-10.64205 7.74776,-2.46773 23.35936,-8.84484c13.07167,-5.33954 33.24328,-3.49776 46.09548,-9.16203c14.43665,-6.36259 26.32182,-12.48143 28.41621,-2.47228z" fill="#0d0d0d"/></g><g><path d="M223.03565,94.84277c0.39437,1.88468 -26.99224,9.20986 -61.16963,16.36136c-34.17736,7.1515 -62.20328,11.42113 -62.59768,9.53646c-0.39437,-1.88468 26.99224,-9.20989 61.16962,-16.36139c34.17736,-7.1515 62.20331,-11.4211 62.59768,-9.53643z" fill="#101010"/><path d="M222.44239,95.25569c0.8477,4.05112 -0.54009,11.13157 -23.0549,18.67366c-15.98498,5.35472 -51.20848,11.49816 -65.39698,14.46707c-34.17286,7.15053 -33.84942,-0.319 -35.29898,-7.24637c-0.52183,-2.49378 15.10895,-1.46191 35.49105,-6.45561c17.066,-4.1813 39.35355,-6.84903 56.2186,-11.07509c18.9442,-4.74709 31.5504,-10.70912 32.04121,-8.36364z" fill="#0d0d0d"/></g><path d="M204.12861,88.45781c0.31986,1.52849 2.47555,6.06142 -1.01496,8.09599c-2.95636,1.72317 -8.08009,2.55671 -14.00361,4.33596c-6.07268,1.82403 -12.9971,4.58876 -20.20663,5.93745c-3.64001,0.6809 -6.74437,-0.47728 -10.38637,0.28482c-5.49698,1.15021 -11.69032,3.68029 -18.03872,4.70323c-5.51338,0.88834 -11.21881,0.28102 -15.75026,1.12122c-5.62862,1.04361 -8.77304,2.84405 -12.08012,2.66486c-5.57622,-0.3021 -3.01008,-5.45155 -3.39502,-7.29111c-0.32275,-1.54241 -3.32202,-6.78273 0.23064,-8.83856c3.29138,-1.9046 9.10353,-4.93308 16.37711,-6.00535c5.30098,-0.78145 11.56243,0.35654 17.28416,-0.60314c4.43687,-0.74418 7.33041,-2.28865 11.71967,-3.20709c4.39721,-0.92009 8.92649,-0.64408 13.62145,-2.02569c5.52688,-1.62638 10.82166,-4.91112 15.90189,-6.69516c7.13461,-2.50552 13.5915,-3.26856 17.44435,-2.97813c4.95877,0.37382 1.93617,8.77936 2.29638,10.50083z" fill="#801d1d"/></g><g stroke="#000000" stroke-width="0" stroke-linecap="butt"><path d="M-753.4256,801.48022v-938.07253h1826.97193v938.07253z" fill="url(#color-55)"/><path d="M-753.42561,801.48022v-938.07253h1826.97193v938.07253z" fill="url(#color-56)"/></g><path d="M129.76903,169.47192c0,-6.07593 4.92553,-11.00146 11.00146,-11.00146c6.07593,0 11.00146,4.92553 11.00146,11.00146c0,6.07593 -4.92553,11.00146 -11.00146,11.00146c-6.07593,0 -11.00146,-4.92553 -11.00146,-11.00146zM140.69152,176.65708c3.83744,0 6.9483,-3.11086 6.9483,-6.9483c0,-3.83744 -3.11086,-6.9483 -6.9483,-6.9483c-3.83744,0 -6.9483,3.11086 -6.9483,6.9483c0,3.83744 3.11086,6.9483 6.9483,6.9483z" fill="#ffffff" stroke="url(#color-57)" stroke-width="0" stroke-linecap="butt"/><path d="M192.16829,157.01915c0,-6.07593 4.92553,-11.00146 11.00146,-11.00146c6.07593,0 11.00146,4.92553 11.00146,11.00146c0,6.07593 -4.92553,11.00146 -11.00146,11.00146c-6.07593,0 -11.00146,-4.92553 -11.00146,-11.00146zM203.0908,164.20431c3.83744,0 6.9483,-3.11086 6.9483,-6.9483c0,-3.83744 -3.11086,-6.9483 -6.9483,-6.9483c-3.83744,0 -6.9483,3.11086 -6.9483,6.9483c0,3.83744 3.11086,6.9483 6.9483,6.9483z" fill="#ffffff" stroke="url(#color-58)" stroke-width="0" stroke-linecap="butt"/><path d="M99.92382,169.47192c0,-22.55899 18.28767,-40.8467 40.8467,-40.8467c22.55899,0 40.8467,18.28767 40.8467,40.8467c0,22.55899 -18.28767,40.8467 -40.8467,40.8467c-22.55899,0 -40.8467,-18.28767 -40.8467,-40.8467z" fill="url(#color-59)" stroke="url(#color-60)" stroke-width="0" stroke-linecap="butt"/><path d="M162.32308,157.01915c0,-22.55899 18.28767,-40.84667 40.8467,-40.84667c22.55899,0 40.84667,18.28767 40.84667,40.84667c0,22.55902 -18.28767,40.84667 -40.84667,40.84667c-22.55899,0 -40.8467,-18.28767 -40.8467,-40.84667z" fill="url(#color-61)" stroke="url(#color-62)" stroke-width="0" stroke-linecap="butt"/><path d="M109.6768,769.52145v-47.8644h100.76715v47.8644z" fill="#000000" stroke="#484c5e" stroke-width="0" stroke-linecap="butt"/><text transform="translate(-431.94662,760.70432) scale(1.25959,1.25959)" font-size="40" xml:space="preserve" fill="#ca0d0d" stroke="none" stroke-width="1" stroke-linecap="butt" font-family="&quot;MS Gothic&quot;, Sans Serif" font-weight="normal" text-anchor="start"><tspan x="0" dy="0">CLUTCH : And Classified As DANGEROUS Machine...</tspan></text></g><text transform="translate(361.06128,208.61314) scale(1.96832,1.96832)" font-size="40" xml:space="preserve" fill="#ffffff" stroke="none" stroke-width="1" stroke-linecap="butt" font-family="&quot;Help Me&quot;, Sans Serif" font-weight="400" text-anchor="start"><tspan x="0" dy="0">8 DAYS</tspan></text><text transform="translate(454.59459,234.08838) scale(0.5,0.5)" font-size="40" xml:space="preserve" fill="#ffffff" stroke="none" stroke-width="1" stroke-linecap="butt" font-family="&quot;Help Me&quot;, Sans Serif" font-weight="400" text-anchor="start"><tspan x="0" dy="0">REMAINING</tspan></text></g></g></svg>