<svg version="1.1" xmlns="http://www.w3.org/2000/svg" xmlns:xlink="http://www.w3.org/1999/xlink" width="758.25826" height="394.76081" viewBox="0,0,758.25826,394.76081"><defs><radialGradient cx="288" cy="-1.50001" r="182.06006" gradientUnits="userSpaceOnUse" id="color-1"><stop offset="0" stop-color="#0b1e0d"/><stop offset="1" stop-color="#505050"/></radialGradient><radialGradient cx="433" cy="0.49999" r="180.05781" gradientUnits="userSpaceOnUse" id="color-2"><stop offset="0" stop-color="#0b1e0d"/><stop offset="1" stop-color="#505050"/></radialGradient><radialGradient cx="359.41291" cy="179.99997" r="362.61261" gradientUnits="userSpaceOnUse" id="color-3"><stop offset="0" stop-color="#000000" stop-opacity="0.83922"/><stop offset="1" stop-color="#000000" stop-opacity="0"/></radialGradient><radialGradient cx="359.41291" cy="179.99997" r="362.61262" gradientUnits="userSpaceOnUse" id="color-4"><stop offset="0" stop-color="#000000" stop-opacity="0"/><stop offset="1" stop-color="#000000"/></radialGradient><linearGradient x1="-16.79205" y1="181.05804" x2="144.03904" y2="181.05804" gradientUnits="userSpaceOnUse" id="color-5"><stop offset="0" stop-color="#000000"/><stop offset="1" stop-color="#000000" stop-opacity="0"/></linearGradient><linearGradient x1="739.12913" y1="177.81479" x2="578.29805" y2="177.81479" gradientUnits="userSpaceOnUse" id="color-6"><stop offset="0" stop-color="#000000"/><stop offset="1" stop-color="#000000" stop-opacity="0"/></linearGradient><linearGradient x1="360.25526" y1="-17.14016" x2="360.25526" y2="110.48747" gradientUnits="userSpaceOnUse" id="color-7"><stop offset="0" stop-color="#000000"/><stop offset="1" stop-color="#000000" stop-opacity="0"/></linearGradient><linearGradient x1="359.24925" y1="377.38042" x2="359.24925" y2="249.75278" gradientUnits="userSpaceOnUse" id="color-8"><stop offset="0" stop-color="#000000"/><stop offset="1" stop-color="#000000" stop-opacity="0"/></linearGradient></defs><g transform="translate(19.12913,17.38041)"><g stroke-miterlimit="10"><g><path d="M-12.41291,359.99999v-360h746v360z" fill="#323232" stroke="#000000" stroke-width="0"/><path d="M0,360.55855v-360l295,-4.12012l1,248.62012z" fill="url(#color-1)" stroke="none" stroke-width="0"/><path d="M720,-0.00001v360l-295,-116l-1,-244.11562z" fill="url(#color-2)" stroke="none" stroke-width="0"/><path d="M147.93844,299.43607l26.95041,-54.84255c0,0 24.27389,-49.39598 37.79906,-76.91893c15.77519,-32.10162 31.87186,-64.85741 45.00939,-91.59153c11.90623,-24.22849 21.38201,-43.51118 25.98544,-52.87889c5.89371,-11.99337 11.40286,-23.20416 11.40286,-23.20416h130.52327l150.15015,299.43607z" fill="#1a1a1a" stroke="none" stroke-width="0"/><g fill="#a7a7a7" stroke="none" stroke-width="0"><path d="M266.09051,245.72822l11.83159,-24.07662c0,0 10.65657,-21.6855 16.59429,-33.76845c6.92552,-14.09304 13.99217,-28.47327 19.75973,-40.20991c5.22699,-10.63664 9.38699,-19.10199 11.40796,-23.21454c2.58742,-5.26525 5.00601,-10.18694 5.00601,-10.18694h57.30147l65.91794,131.45646z"/><path d="M297.19702,133.61111l62.70166,-71.41292l62.9043,71.41292z"/></g><g stroke="none" stroke-width="0"><path d="M459.27083,182.64641l128.6768,3.21847l-3.21847,128.6768l-128.6768,-3.21847z" fill="#9f7d3f"/><path d="M477.19345,201.48859l91.912,2.2989l-2.2989,91.912l-91.912,-2.2989z" fill="#6b552b"/><path d="M545.6023,197.94423l5.25211,0.13137l-2.56164,102.41622l-5.25211,-0.13137z" fill="#9f7d3f"/><path d="M520.65475,197.32024l5.25211,0.13137l-2.56164,102.41622l-5.25211,-0.13137z" fill="#9f7d3f"/><path d="M494.35371,198.2817l5.25211,0.13137l-2.56164,102.41622l-5.25211,-0.13137z" fill="#9f7d3f"/></g><g stroke="none" stroke-width="0"><path d="M142.57391,123.72269l183.23589,4.5831l-4.5831,183.23589l-183.23589,-4.5831z" fill="#9f7d3f"/><path d="M168.09573,150.55397l130.88278,3.27364l-3.27363,130.88278l-130.88278,-3.27364z" fill="#6b552b"/><path d="M265.51,145.5068l7.47901,0.18707l-3.64777,145.84079l-7.47901,-0.18707z" fill="#9f7d3f"/><path d="M229.98468,144.61824l7.47901,0.18707l-3.64777,145.84079l-7.47901,-0.18707z" fill="#9f7d3f"/><path d="M192.53196,145.98736l7.47901,0.18706l-3.64777,145.84079l-7.47901,-0.18706z" fill="#9f7d3f"/></g><g><path d="M525.51743,281.97032c4.31473,0 3.9375,12.21201 3.9375,21.73572c0,9.52371 -15.625,9.52371 -15.625,0c0,-9.52371 7.37277,-21.7357 11.6875,-21.7357z" fill="#721f1f" stroke="none" stroke-width="0"/><path d="M569.08826,303.70604c0,9.52371 -15.625,9.52371 -15.625,0c0,-9.52371 -0.37723,-21.7357 3.9375,-21.7357c4.31473,0 11.6875,12.21201 11.6875,21.73572z" fill="#721f1f" stroke="none" stroke-width="0"/><path d="M526.6966,293.25782c0,-10.43818 4.86182,-18.1 15.3,-18.1c10.43818,0 14.3,8.46182 14.3,18.9c0,6.87592 -3.17572,10.89424 -7.30309,14.2012c-2.13831,1.71327 -3.43464,4.6988 -6.99691,4.6988c-3.60776,0 -5.92436,-3.98143 -8.22931,-5.86043c-4.36386,-3.55745 -7.07069,-7.00915 -7.07069,-13.83957z" fill="#b33030" stroke="none" stroke-width="0"/><g stroke="none" stroke-width="0"><path d="M515.64122,318.44059c-2.45738,-7.21833 -0.63457,-14.92671 4.07137,-17.21713c4.70594,-2.29042 16.49249,-0.36271 18.94987,6.85563c2.45738,7.21833 -20.56386,17.57984 -23.02124,10.36151z" fill="#721f1f"/><path d="M515.85526,318.44059c-2.93826,-7.21833 -0.75874,-14.92671 4.86808,-17.21713c5.62682,-2.29042 12.5702,1.70443 15.50846,8.92276c2.93826,7.21833 -17.43828,15.51271 -20.37654,8.29438z" fill="#d63a3a"/></g><g stroke="none" stroke-width="0"><path d="M541.98076,308.0791c2.45738,-7.21833 14.24393,-9.14606 18.94986,-6.85563c4.70594,2.29042 6.52875,9.99881 4.07137,17.21714c-2.45738,7.21833 -25.47861,-3.14317 -23.02123,-10.36151z" fill="#721f1f"/><path d="M544.41141,310.14624c2.93826,-7.21833 9.88164,-11.21319 15.50846,-8.92276c5.62682,2.29042 7.80634,9.9988 4.86808,17.21714c-2.93826,7.21833 -23.3148,-1.07604 -20.37654,-8.29438z" fill="#d63a3a"/></g><g fill="#210000" stroke-width="0"><path d="M536.83822,287.83552c0,-2.25741 2.04197,-4.0874 4.56087,-4.0874c2.5189,0 4.56087,1.82999 4.56087,4.0874c0,2.25741 -2.04197,4.0874 -4.56087,4.0874c-2.5189,0 -4.56087,-1.82999 -4.56087,-4.0874z" stroke="#351a00"/><path d="M531.01711,281.43551c0,0 9.00171,2.86538 9.00171,6.4c0,3.53462 -9.00171,6.4 -9.00171,6.4z" stroke="none"/><path d="M551.90108,294.23551c0,0 -9.00171,-2.86538 -9.00171,-6.4c0,-3.53462 9.00171,-6.4 9.00171,-6.4z" stroke="none"/></g><path d="M523.16327,272.78282c0,-4.75725 -0.47376,-10.23415 2.49764,-13.4925c3.35287,-3.67665 10.46772,-4.84083 15.83569,-4.84083c5.58433,0 13.01408,1.3539 16.3767,5.292c2.73432,3.20227 1.95663,8.50043 1.95663,13.04133c0,4.90369 -9.4002,13.0325 -18.27037,13.18643c-9.4451,0.16391 -18.3963,-7.9649 -18.3963,-13.18643z" fill="#d63a3a" stroke="none" stroke-width="0"/><path d="M556.39883,276.95469c0,1.18168 -7.02208,7.80329 -15.27306,7.80329c-8.25099,0 -14.6064,-6.62161 -14.6064,-7.80329c0,-1.18168 6.57763,1.51031 14.82862,1.51031c8.25099,0 15.05084,-2.69199 15.05084,-1.51031z" fill="#000000" stroke="#e2e2e2" stroke-width="0"/><path d="M550.8966,273.34232c0,1.82944 -4.22531,3.3125 -9.4375,3.3125c-5.21219,0 -9.4375,-1.48306 -9.4375,-3.3125c0,-1.82944 4.22531,-3.3125 9.4375,-3.3125c5.21219,0 9.4375,1.48306 9.4375,3.3125z" fill="#721f1f" stroke="#351a00" stroke-width="0"/><g stroke="none"><g><g><path d="M525.43132,273.38023c0,-3.45178 2.79822,-6.25 6.25,-6.25c3.45178,0 6.25,2.79822 6.25,6.25c0,3.45178 -2.79822,6.25 -6.25,6.25c-3.45178,0 -6.25,-2.79822 -6.25,-6.25z" fill="#000000" stroke-width="0"/><g fill="none" stroke-width="1" font-family="sans-serif" font-weight="normal" font-size="12" text-anchor="start"/></g><text transform="translate(527.48186,277.65259) scale(0.3703,0.3703)" font-size="40" xml:space="preserve" fill="#d2d2d2" stroke-width="1" font-family="Handwriting" font-weight="normal" text-anchor="start"><tspan x="0" dy="0">x</tspan></text></g><g><g><path d="M551.23688,279.89687c-3.45178,0 -6.25,-2.79822 -6.25,-6.25c0,-3.45178 2.79822,-6.25 6.25,-6.25c3.45178,0 6.25,2.79822 6.25,6.25c0,3.45178 -2.79822,6.25 -6.25,6.25z" fill="#000000" stroke-width="0"/><g fill="none" stroke-width="1" font-family="sans-serif" font-weight="normal" font-size="12" text-anchor="start"/></g><text transform="translate(555.43634,277.91923) rotate(-180) scale(0.3703,-0.3703)" font-size="40" xml:space="preserve" fill="#d2d2d2" stroke-width="1" font-family="Handwriting" font-weight="normal" text-anchor="start"><tspan x="0" dy="0">x</tspan></text></g></g><path d="M538.57169,296.99116c0,-1.38071 1.11929,-2.5 2.5,-2.5c1.38071,0 2.5,1.11929 2.5,2.5c0,1.38071 -1.11929,2.5 -2.5,2.5c-1.38071,0 -2.5,-1.11929 -2.5,-2.5z" fill="#210000" stroke="none" stroke-width="0.5"/><path d="M553.6173,254.78541c0,1.25005 0.1824,3.37152 -2.52009,4.13524c-2.27246,0.64219 -18.98391,0.55719 -21.22478,-0.04627c-2.83821,-0.76432 -2.08847,-2.80307 -2.08847,-4.08898c0,-2.30119 25.83334,-2.30119 25.83334,0z" fill="#000000" stroke="#500000" stroke-width="0"/><path d="M549.37959,242.55137c0,2.53721 0.12276,6.84311 -1.69607,8.39322c-1.52941,1.30344 -12.77658,1.13094 -14.28473,-0.09389c-1.91018,-1.55131 -1.40558,-5.68932 -1.40558,-8.29933c0,-4.67067 17.38638,-4.67067 17.38638,0z" fill="#000000" stroke="#500000" stroke-width="0"/><path d="M549.37959,250.88775c0,0.84131 0.12276,2.26909 -1.69607,2.78309c-1.52941,0.43221 -12.77658,0.37502 -14.28473,-0.03112c-1.91018,-0.5144 -1.40558,-1.88652 -1.40558,-2.75197c0,-1.54874 17.38638,-1.54874 17.38638,0z" fill="#d2d2d2" stroke="#500000" stroke-width="0"/></g><g stroke="none" stroke-width="0"><path d="M518.85353,248.72822l72.01229,1.80117l-1.80117,72.01229l-72.01229,-1.80117z" fill="#9f7d3f"/><path d="M528.88369,259.273l51.43735,1.28655l-1.28655,51.43735l-51.43735,-1.28655z" fill="#6b552b"/><path d="M567.16781,257.28944l2.93927,0.07352l-1.43359,57.3159l-2.93927,-0.07352z" fill="#9f7d3f"/><path d="M553.20624,256.94024l2.93927,0.07352l-1.43359,57.3159l-2.93927,-0.07352z" fill="#9f7d3f"/><path d="M538.48721,257.47831l2.93927,0.07352l-1.43359,57.3159l-2.93927,-0.07352z" fill="#9f7d3f"/></g><g stroke="none" stroke-width="0"><path d="M151.85354,52.72822l72.01228,1.80118l-1.80117,72.01229l-72.01229,-1.80118z" fill="#9f7d3f"/><path d="M161.88369,63.273l51.43735,1.28655l-1.28655,51.43735l-51.43735,-1.28655z" fill="#6b552b"/><path d="M200.16781,61.28944l2.93927,0.07352l-1.43358,57.3159l-2.93927,-0.07352z" fill="#9f7d3f"/><path d="M186.20625,60.94023l2.93928,0.07352l-1.43358,57.3159l-2.93928,-0.07351z" fill="#9f7d3f"/><path d="M171.48721,61.4783l2.93927,0.07351l-1.43358,57.3159l-2.93927,-0.07352z" fill="#9f7d3f"/></g><g stroke="none" stroke-width="0"><path d="M96.20928,202.64641l128.6768,3.21847l-3.21847,128.6768l-128.6768,-3.21847z" fill="#9f7d3f"/><path d="M114.13189,221.48859l91.912,2.2989l-2.2989,91.912l-91.912,-2.2989z" fill="#6b552b"/><path d="M182.54075,217.94423l5.25211,0.13137l-2.56164,102.41622l-5.25211,-0.13137z" fill="#9f7d3f"/><path d="M157.5932,217.32024l5.25211,0.13137l-2.56164,102.41622l-5.25211,-0.13137z" fill="#9f7d3f"/><path d="M131.29215,218.2817l5.25211,0.13136l-2.56163,102.41622l-5.25211,-0.13137z" fill="#9f7d3f"/></g><g stroke-width="0"><g stroke="#000000"><path d="M-3.1997,366.18619v-372.37237h725.22523v372.37237z" fill="url(#color-3)"/><path d="M-3.19971,366.18619v-372.37237h725.22523v372.37237z" fill="url(#color-4)"/></g><g stroke="none"><path d="M-16.79205,376.25323v-390.39039h160.83109v390.39039z" fill="url(#color-5)"/><path d="M578.29805,373.00999v-390.39039h160.83108v390.39039z" fill="url(#color-6)"/><path d="M-18.12312,110.48747v-127.62762h756.75676v127.62763z" fill="url(#color-7)"/><path d="M737.62763,249.75278v127.62762h-756.75676v-127.62762z" fill="url(#color-8)"/></g></g></g></g></g></svg>