<svg version="1.1" xmlns="http://www.w3.org/2000/svg" xmlns:xlink="http://www.w3.org/1999/xlink" width="767" height="420.62305" viewBox="0,0,767,420.62305"><defs><radialGradient cx="360" cy="180" r="373" gradientUnits="userSpaceOnUse" id="color-1"><stop offset="0" stop-color="#202020"/><stop offset="1" stop-color="#000000"/></radialGradient><radialGradient cx="360" cy="180" r="168.5" gradientUnits="userSpaceOnUse" id="color-2"><stop offset="0" stop-color="#ccdeff"/><stop offset="1" stop-color="#ccdeff" stop-opacity="0"/></radialGradient><radialGradient cx="357" cy="173.94755" r="129" gradientUnits="userSpaceOnUse" id="color-3"><stop offset="0" stop-color="#9e9e9e"/><stop offset="1" stop-color="#414141"/></radialGradient><radialGradient cx="281" cy="183.94755" r="110" gradientUnits="userSpaceOnUse" id="color-4"><stop offset="0" stop-color="#9e9e9e"/><stop offset="1" stop-color="#414141"/></radialGradient><radialGradient cx="433" cy="175.94755" r="112" gradientUnits="userSpaceOnUse" id="color-5"><stop offset="0" stop-color="#9e9e9e"/><stop offset="1" stop-color="#414141"/></radialGradient><radialGradient cx="366" cy="347.44755" r="374" gradientUnits="userSpaceOnUse" id="color-6"><stop offset="0" stop-color="#9e9e9e"/><stop offset="1" stop-color="#414141"/></radialGradient></defs><g transform="translate(24.35322,14.2692)"><g stroke-miterlimit="10"><path d="M-13,374.2692v-388.5384h746v388.5384z" fill="url(#color-1)" stroke="#000000" stroke-width="0" stroke-linecap="butt"/><path d="M-21,250v-140c0,0 249.83377,53 377,53c126.8329,0 385,-53 385,-53v140c0,0 -257.17764,-48 -385,-48c-126.15577,0 -377,48 -377,48z" fill="#131313" stroke="none" stroke-width="10" stroke-linecap="butt"/><path d="M739.64679,-8.25c0,0 -156.7026,43.75208 -210.42862,61.84538c-34.96238,11.77427 -80.57138,36.15462 -80.57138,36.15462h-181c0,0 -43.59767,-22.74271 -79.01057,-34.6885c-53.91354,-18.18659 -212.98943,-63.8115 -212.98943,-63.8115z" fill="#131313" stroke="#000000" stroke-width="0" stroke-linecap="butt"/><path d="M-21.35321,379.73036c0,0 163.56086,-43.82447 217.29647,-61.95103c32.6413,-11.01085 74.70353,-36.54897 74.70353,-36.54897h181c0,0 44.67065,26.04373 76.64755,36.81258c53.47508,18.00879 214.35245,61.18742 214.35245,61.18742z" fill="#131313" stroke="#000000" stroke-width="0" stroke-linecap="butt"/><path d="M191.5,180c0,-93.05998 75.44002,-168.5 168.5,-168.5c93.05998,0 168.5,75.44002 168.5,168.5c0,93.05998 -75.44002,168.5 -168.5,168.5c-93.05998,0 -168.5,-75.44002 -168.5,-168.5z" fill="url(#color-2)" stroke="#000000" stroke-width="0" stroke-linecap="butt"/><path d="M220.5,180c0,-77.04372 62.45628,-139.5 139.5,-139.5c77.04372,0 139.5,62.45628 139.5,139.5c0,77.04372 -62.45628,139.5 -139.5,139.5c-77.04372,0 -139.5,-62.45628 -139.5,-139.5z" fill="#ccdeff" stroke="#414141" stroke-width="10" stroke-linecap="butt"/><path d="M359,39.94755v276" fill="none" stroke="url(#color-3)" stroke-width="10" stroke-linecap="round"/><path d="M276,291.94755v-220" fill="none" stroke="url(#color-4)" stroke-width="10" stroke-linecap="round"/><path d="M439,292.94755v-224" fill="none" stroke="url(#color-5)" stroke-width="10" stroke-linecap="round"/><path d="M740,379.44755c0,32.30866 -167.4455,26.5 -374,26.5c-154.14576,0 -312.51088,-7.58652 -369.75685,-28.41649c-19.46333,-7.08208 -4.24315,-21.88588 -4.24315,-30.08351c0,-13.16008 80.7813,-15.30522 127.67091,-25.07881c25.15831,-5.24396 68.265,-19.98936 106.17545,-22.62834c64.89882,-4.51766 29.54213,-21.12618 106.82031,-21.12618c12.27708,0 21.99986,6.99665 21.99986,6.99665l9.04821,-1.20654c0,0 5.78385,-4.57483 13.96184,-4.679c8.01531,-0.1021 47.80575,2.3012 55.25699,2.64834c27.8884,1.29928 53.26121,23.34581 84.36726,27.04287c59.35089,7.05406 95.73061,22.47642 127.08274,26.64913c43.21701,5.75182 95.61644,30.7986 95.61644,43.38189z" fill-opacity="0.50196" fill="#141d3f" stroke="url(#color-6)" stroke-width="0" stroke-linecap="butt"/><path d="M117.06344,401.31934l99.93135,-82.63868h282.5645l103.37727,82.63868z" fill="#000000" stroke="none" stroke-width="0" stroke-linecap="butt"/><path d="M218.14679,318.54232c0,0 0,-48.12652 0,-56c0,-2.10428 0.62864,-6.27423 -2.00177,-4.50524c-15.81743,10.63745 -168.99823,115.50524 -168.99823,115.50524" fill="none" stroke="#000000" stroke-width="10" stroke-linecap="round"/><path d="M498.14679,318.54232v-58.2" fill="none" stroke="#000000" stroke-width="10" stroke-linecap="round"/><path d="M218.14679,257.54232c0,0 260.55908,0 278,0c1.81179,0 3.87339,0.72875 5.16293,1.80474c10.91067,9.1038 154.83707,129.19526 154.83707,129.19526" fill="none" stroke="#000000" stroke-width="10" stroke-linecap="round"/></g></g></svg>