<svg version="1.1" xmlns="http://www.w3.org/2000/svg" xmlns:xlink="http://www.w3.org/1999/xlink" width="758.25826" height="394.76082" viewBox="0,0,758.25826,394.76082"><defs><radialGradient cx="355.71246" cy="172.8148" r="362.61261" gradientUnits="userSpaceOnUse" id="color-1"><stop offset="0" stop-color="#000000" stop-opacity="0.83922"/><stop offset="1" stop-color="#000000" stop-opacity="0"/></radialGradient><radialGradient cx="355.71246" cy="172.8148" r="362.61262" gradientUnits="userSpaceOnUse" id="color-2"><stop offset="0" stop-color="#000000" stop-opacity="0"/><stop offset="1" stop-color="#000000"/></radialGradient><linearGradient x1="-16.79205" y1="181.05805" x2="144.03904" y2="181.05805" gradientUnits="userSpaceOnUse" id="color-3"><stop offset="0" stop-color="#000000"/><stop offset="1" stop-color="#000000" stop-opacity="0"/></linearGradient><linearGradient x1="739.12913" y1="177.8148" x2="578.29805" y2="177.8148" gradientUnits="userSpaceOnUse" id="color-4"><stop offset="0" stop-color="#000000"/><stop offset="1" stop-color="#000000" stop-opacity="0"/></linearGradient><linearGradient x1="360.25526" y1="-17.14015" x2="360.25526" y2="110.48748" gradientUnits="userSpaceOnUse" id="color-5"><stop offset="0" stop-color="#000000"/><stop offset="1" stop-color="#000000" stop-opacity="0"/></linearGradient><linearGradient x1="359.24925" y1="377.38041" x2="359.24925" y2="249.75279" gradientUnits="userSpaceOnUse" id="color-6"><stop offset="0" stop-color="#000000"/><stop offset="1" stop-color="#000000" stop-opacity="0"/></linearGradient></defs><g transform="translate(19.12913,17.38041)"><g stroke-miterlimit="10"><g><path d="M0.04123,153v-160.3741h719.91754v160.3741z" fill="#330f00" stroke="#000000" stroke-width="0" stroke-linecap="butt"/><path d="M0.6078,360.00001v-128h719.91754v128z" fill="#330f00" stroke="#000000" stroke-width="0" stroke-linecap="butt"/><path d="M226.82491,244.00002v-128h248.01449v128z" fill="#000000" stroke="#000000" stroke-width="0" stroke-linecap="butt"/><path d="M12.58671,360.00001v-360l284.68589,116l0.96504,128.5z" fill="#4f2600" stroke="none" stroke-width="0" stroke-linecap="butt"/><path d="M707.41329,0.00001v360l-284.68589,-116l-0.96504,-128.5z" fill="#4f2600" stroke="none" stroke-width="0" stroke-linecap="butt"/><g fill="none" stroke="#424242" stroke-width="4" stroke-linecap="round"><path d="M296.39322,243.50672c0,0 6.98682,-108.49593 11.40225,-124.89481c1.01612,-3.77386 1.87493,-3.39526 1.87493,0.72824c0,14.14184 0,95.12801 0,121.41952c0,5.18361 1.14782,3.70102 2.4097,-1.29028c3.71128,-14.67975 5.45314,-87.67646 12.63056,-116.06631c1.75945,-6.95939 2.83287,-6.76772 2.83287,-1.86529c0,18.14951 -1.53198,121.41952 -1.53198,121.41952"/><path d="M326.39322,243.50673c0,0 6.98682,-108.49592 11.40225,-124.89481c1.01612,-3.77385 1.87493,-3.39526 1.87493,0.72824c0,14.14184 0,95.12801 0,121.41952c0,5.18361 1.14782,3.70102 2.4097,-1.29028c3.71128,-14.67975 5.45314,-87.67645 12.63056,-116.0663c1.75945,-6.9594 2.83288,-6.76772 2.83288,-1.8653c0,18.14951 -1.53199,121.41952 -1.53199,121.41952"/><path d="M357.89323,243.50672c0,0 6.98682,-108.49592 11.40225,-124.89481c1.01612,-3.77385 1.87493,-3.39526 1.87493,0.72824c0,14.14184 0,95.12801 0,121.41952c0,5.18361 1.14782,3.70102 2.4097,-1.29028c3.71128,-14.67975 5.45314,-87.67645 12.63056,-116.0663c1.75945,-6.9594 2.83288,-6.76772 2.83288,-1.8653c0,18.14951 -1.53199,121.41952 -1.53199,121.41952"/><path d="M387.89323,243.50673c0,0 6.98682,-108.49592 11.40225,-124.89481c1.01612,-3.77385 1.87493,-3.39526 1.87493,0.72824c0,14.14184 0,95.12801 0,121.41952c0,5.18361 1.14782,3.70102 2.4097,-1.29028c3.71128,-14.67975 5.45314,-87.67645 12.63056,-116.0663c1.75945,-6.9594 2.83288,-6.76772 2.83288,-1.8653c0,18.14951 -1.53199,121.41952 -1.53199,121.41952"/></g><g stroke="#000000" stroke-width="0" stroke-linecap="butt"><path d="M325.25867,70.06296c0,-6.18292 15.55422,-11.19516 34.74133,-11.19516c19.18711,0 34.74133,5.01224 34.74133,11.19516c0,6.18292 -16.03674,16.69516 -35.22385,16.69516c-19.18711,0 -34.25881,-10.51224 -34.25881,-16.69516z" fill="#0f0700"/><path d="M331.45445,76.05338c0,-5.08025 12.78028,-9.19861 28.54555,-9.19861c15.76528,0 28.54555,4.11836 28.54555,9.19861c0,5.08025 -13.17675,13.71774 -28.94202,13.71774c-15.76528,0 -28.14908,-8.63749 -28.14908,-13.71774z" fill="#404040"/></g><g stroke-width="0" stroke-linecap="butt"><g stroke="#000000"><path d="M-6.90015,359.001v-372.37237h725.22523v372.37237z" fill="url(#color-1)"/><path d="M-6.90016,359.001v-372.37237h725.22523v372.37237z" fill="url(#color-2)"/></g><g stroke="none"><path d="M-16.79205,376.25323v-390.39039h160.83109v390.39039z" fill="url(#color-3)"/><path d="M578.29805,373.00998v-390.39039h160.83108v390.39039z" fill="url(#color-4)"/><path d="M-18.12312,110.48748v-127.62762h756.75676v127.62763z" fill="url(#color-5)"/><path d="M737.62763,249.75279v127.62762h-756.75676v-127.62762z" fill="url(#color-6)"/></g></g></g></g></g></svg>