<svg version="1.1" xmlns="http://www.w3.org/2000/svg" xmlns:xlink="http://www.w3.org/1999/xlink" width="680.20605" height="676.17056" viewBox="0,0,680.20605,676.17056"><defs><linearGradient x1="55.33277" y1="410.51028" x2="106.15899" y2="411.15117" gradientUnits="userSpaceOnUse" id="color-1"><stop offset="0" stop-color="#484c5e"/><stop offset="1" stop-color="#212d30"/></linearGradient><linearGradient x1="55.82103" y1="364.52009" x2="124.66159" y2="365.38809" gradientUnits="userSpaceOnUse" id="color-2"><stop offset="0" stop-color="#484c5e"/><stop offset="1" stop-color="#212d30"/></linearGradient><linearGradient x1="56.36359" y1="313.41593" x2="125.20415" y2="314.28392" gradientUnits="userSpaceOnUse" id="color-3"><stop offset="0" stop-color="#484c5e"/><stop offset="1" stop-color="#212d30"/></linearGradient><linearGradient x1="56.84585" y1="267.98998" x2="125.68641" y2="268.85798" gradientUnits="userSpaceOnUse" id="color-4"><stop offset="0" stop-color="#484c5e"/><stop offset="1" stop-color="#212d30"/></linearGradient><linearGradient x1="57.40852" y1="214.99301" x2="126.24907" y2="215.86109" gradientUnits="userSpaceOnUse" id="color-5"><stop offset="0" stop-color="#484c5e"/><stop offset="1" stop-color="#212d30"/></linearGradient><linearGradient x1="57.89077" y1="169.56714" x2="126.73133" y2="170.43515" gradientUnits="userSpaceOnUse" id="color-6"><stop offset="0" stop-color="#484c5e"/><stop offset="1" stop-color="#212d30"/></linearGradient><linearGradient x1="58.43334" y1="118.46291" x2="127.27389" y2="119.331" gradientUnits="userSpaceOnUse" id="color-7"><stop offset="0" stop-color="#484c5e"/><stop offset="1" stop-color="#212d30"/></linearGradient><linearGradient x1="58.91559" y1="73.03705" x2="127.75615" y2="73.90497" gradientUnits="userSpaceOnUse" id="color-8"><stop offset="0" stop-color="#484c5e"/><stop offset="1" stop-color="#212d30"/></linearGradient><linearGradient x1="666.21182" y1="408.90771" x2="615.38561" y2="409.58835" gradientUnits="userSpaceOnUse" id="color-9"><stop offset="0" stop-color="#484c5e"/><stop offset="1" stop-color="#212d30"/></linearGradient><linearGradient x1="665.72356" y1="360.06556" x2="596.883" y2="360.98739" gradientUnits="userSpaceOnUse" id="color-10"><stop offset="0" stop-color="#484c5e"/><stop offset="1" stop-color="#212d30"/></linearGradient><linearGradient x1="665.181" y1="305.79232" x2="596.34044" y2="306.71413" gradientUnits="userSpaceOnUse" id="color-11"><stop offset="0" stop-color="#484c5e"/><stop offset="1" stop-color="#212d30"/></linearGradient><linearGradient x1="664.69875" y1="257.5494" x2="595.85818" y2="258.47123" gradientUnits="userSpaceOnUse" id="color-12"><stop offset="0" stop-color="#484c5e"/><stop offset="1" stop-color="#212d30"/></linearGradient><linearGradient x1="664.13608" y1="201.26597" x2="595.29552" y2="202.18785" gradientUnits="userSpaceOnUse" id="color-13"><stop offset="0" stop-color="#484c5e"/><stop offset="1" stop-color="#212d30"/></linearGradient><linearGradient x1="663.65382" y1="153.02311" x2="594.81326" y2="153.94495" gradientUnits="userSpaceOnUse" id="color-14"><stop offset="0" stop-color="#484c5e"/><stop offset="1" stop-color="#212d30"/></linearGradient><linearGradient x1="663.11126" y1="98.7498" x2="594.2707" y2="99.67171" gradientUnits="userSpaceOnUse" id="color-15"><stop offset="0" stop-color="#484c5e"/><stop offset="1" stop-color="#212d30"/></linearGradient><linearGradient x1="662.62901" y1="50.50698" x2="593.78844" y2="51.42872" gradientUnits="userSpaceOnUse" id="color-16"><stop offset="0" stop-color="#484c5e"/><stop offset="1" stop-color="#212d30"/></linearGradient><linearGradient x1="240.12168" y1="416.31638" x2="412.35631" y2="453.18064" gradientUnits="userSpaceOnUse" id="color-17"><stop offset="0" stop-color="#484c5e"/><stop offset="1" stop-color="#212d30"/></linearGradient><linearGradient x1="270.94111" y1="191.53355" x2="476.24479" y2="235.47575" gradientUnits="userSpaceOnUse" id="color-18"><stop offset="0" stop-color="#484c5e"/><stop offset="1" stop-color="#212d30"/></linearGradient><linearGradient x1="367.69206" y1="198.49553" x2="391.7477" y2="203.64429" gradientUnits="userSpaceOnUse" id="color-19"><stop offset="0" stop-color="#484c5e"/><stop offset="1" stop-color="#212d30"/></linearGradient><linearGradient x1="359.96818" y1="234.58248" x2="392.54991" y2="241.55611" gradientUnits="userSpaceOnUse" id="color-20"><stop offset="0" stop-color="#484c5e"/><stop offset="1" stop-color="#212d30"/></linearGradient><linearGradient x1="351.38544" y1="274.68219" x2="383.96716" y2="281.65582" gradientUnits="userSpaceOnUse" id="color-21"><stop offset="0" stop-color="#484c5e"/><stop offset="1" stop-color="#212d30"/></linearGradient><linearGradient x1="343.75633" y1="310.32638" x2="376.33805" y2="317.30001" gradientUnits="userSpaceOnUse" id="color-22"><stop offset="0" stop-color="#484c5e"/><stop offset="1" stop-color="#212d30"/></linearGradient><linearGradient x1="334.8557" y1="351.91129" x2="367.43742" y2="358.88492" gradientUnits="userSpaceOnUse" id="color-23"><stop offset="0" stop-color="#484c5e"/><stop offset="1" stop-color="#212d30"/></linearGradient><linearGradient x1="327.22659" y1="387.55544" x2="359.80832" y2="394.52908" gradientUnits="userSpaceOnUse" id="color-24"><stop offset="0" stop-color="#484c5e"/><stop offset="1" stop-color="#212d30"/></linearGradient><linearGradient x1="318.64384" y1="427.65519" x2="351.22556" y2="434.62883" gradientUnits="userSpaceOnUse" id="color-25"><stop offset="0" stop-color="#484c5e"/><stop offset="1" stop-color="#212d30"/></linearGradient><linearGradient x1="311.01474" y1="463.29935" x2="343.59647" y2="470.27298" gradientUnits="userSpaceOnUse" id="color-26"><stop offset="0" stop-color="#484c5e"/><stop offset="1" stop-color="#212d30"/></linearGradient><linearGradient x1="473.7468" y1="277.81043" x2="434.29494" y2="274.29111" gradientUnits="userSpaceOnUse" id="color-27"><stop offset="0" stop-color="#484c5e"/><stop offset="1" stop-color="#212d30"/></linearGradient><linearGradient x1="470.82475" y1="310.56706" x2="417.38995" y2="305.80043" gradientUnits="userSpaceOnUse" id="color-28"><stop offset="0" stop-color="#484c5e"/><stop offset="1" stop-color="#212d30"/></linearGradient><linearGradient x1="467.57776" y1="346.96615" x2="414.14297" y2="342.19948" gradientUnits="userSpaceOnUse" id="color-29"><stop offset="0" stop-color="#484c5e"/><stop offset="1" stop-color="#212d30"/></linearGradient><linearGradient x1="464.69157" y1="379.32086" x2="411.25677" y2="374.55422" gradientUnits="userSpaceOnUse" id="color-30"><stop offset="0" stop-color="#484c5e"/><stop offset="1" stop-color="#212d30"/></linearGradient><linearGradient x1="461.32432" y1="417.06806" x2="407.88953" y2="412.30139" gradientUnits="userSpaceOnUse" id="color-31"><stop offset="0" stop-color="#484c5e"/><stop offset="1" stop-color="#212d30"/></linearGradient><linearGradient x1="458.43813" y1="449.42277" x2="405.00333" y2="444.65614" gradientUnits="userSpaceOnUse" id="color-32"><stop offset="0" stop-color="#484c5e"/><stop offset="1" stop-color="#212d30"/></linearGradient><linearGradient x1="455.19114" y1="485.82186" x2="401.75635" y2="481.05519" gradientUnits="userSpaceOnUse" id="color-33"><stop offset="0" stop-color="#484c5e"/><stop offset="1" stop-color="#212d30"/></linearGradient><linearGradient x1="452.30492" y1="518.17656" x2="398.87016" y2="513.40994" gradientUnits="userSpaceOnUse" id="color-34"><stop offset="0" stop-color="#484c5e"/><stop offset="1" stop-color="#212d30"/></linearGradient><linearGradient x1="252.75024" y1="230.5094" x2="290.1863" y2="243.4468" gradientUnits="userSpaceOnUse" id="color-35"><stop offset="0" stop-color="#484c5e"/><stop offset="1" stop-color="#212d30"/></linearGradient><linearGradient x1="242.00839" y1="261.59232" x2="292.71291" y2="279.11516" gradientUnits="userSpaceOnUse" id="color-36"><stop offset="0" stop-color="#484c5e"/><stop offset="1" stop-color="#212d30"/></linearGradient><linearGradient x1="230.07208" y1="296.13155" x2="280.7766" y2="313.65439" gradientUnits="userSpaceOnUse" id="color-37"><stop offset="0" stop-color="#484c5e"/><stop offset="1" stop-color="#212d30"/></linearGradient><linearGradient x1="219.46201" y1="326.83312" x2="270.16653" y2="344.35596" gradientUnits="userSpaceOnUse" id="color-38"><stop offset="0" stop-color="#484c5e"/><stop offset="1" stop-color="#212d30"/></linearGradient><linearGradient x1="207.08362" y1="362.65162" x2="257.78815" y2="380.17443" gradientUnits="userSpaceOnUse" id="color-39"><stop offset="0" stop-color="#484c5e"/><stop offset="1" stop-color="#212d30"/></linearGradient><linearGradient x1="196.47356" y1="393.35315" x2="247.17808" y2="410.87599" gradientUnits="userSpaceOnUse" id="color-40"><stop offset="0" stop-color="#484c5e"/><stop offset="1" stop-color="#212d30"/></linearGradient><linearGradient x1="184.53725" y1="427.89242" x2="235.24178" y2="445.41522" gradientUnits="userSpaceOnUse" id="color-41"><stop offset="0" stop-color="#484c5e"/><stop offset="1" stop-color="#212d30"/></linearGradient><linearGradient x1="173.92719" y1="458.59395" x2="224.63171" y2="476.11679" gradientUnits="userSpaceOnUse" id="color-42"><stop offset="0" stop-color="#484c5e"/><stop offset="1" stop-color="#212d30"/></linearGradient><linearGradient x1="305.93206" y1="304.22615" x2="399.66136" y2="324.28752" gradientUnits="userSpaceOnUse" id="color-43"><stop offset="0" stop-color="#484c5e"/><stop offset="1" stop-color="#212d30"/></linearGradient><linearGradient x1="449.1033" y1="296.33298" x2="391.86404" y2="284.08176" gradientUnits="userSpaceOnUse" id="color-44"><stop offset="0" stop-color="#484c5e"/><stop offset="1" stop-color="#212d30"/></linearGradient><linearGradient x1="272.66309" y1="264.34197" x2="329.90235" y2="276.59318" gradientUnits="userSpaceOnUse" id="color-45"><stop offset="0" stop-color="#484c5e"/><stop offset="1" stop-color="#212d30"/></linearGradient><radialGradient cx="364.31902" cy="135.85029" r="64.35447" gradientUnits="userSpaceOnUse" id="color-46"><stop offset="0" stop-color="#ffffff" stop-opacity="0.43529"/><stop offset="1" stop-color="#ffffff" stop-opacity="0"/></radialGradient><linearGradient x1="307.24126" y1="165.5762" x2="421.39676" y2="106.12439" gradientUnits="userSpaceOnUse" id="color-47"><stop offset="0" stop-color="#484c5e"/><stop offset="1" stop-color="#212d30"/></linearGradient><linearGradient x1="355.195" y1="140.32928" x2="373.64871" y2="130.71865" gradientUnits="userSpaceOnUse" id="color-48"><stop offset="0" stop-color="#484c5e"/><stop offset="1" stop-color="#212d30"/></linearGradient><radialGradient cx="434.4838" cy="101.79645" r="64.35447" gradientUnits="userSpaceOnUse" id="color-49"><stop offset="0" stop-color="#ffffff" stop-opacity="0.43529"/><stop offset="1" stop-color="#ffffff" stop-opacity="0"/></radialGradient><linearGradient x1="377.40606" y1="131.52234" x2="491.56155" y2="72.07055" gradientUnits="userSpaceOnUse" id="color-50"><stop offset="0" stop-color="#484c5e"/><stop offset="1" stop-color="#212d30"/></linearGradient><linearGradient x1="425.35978" y1="106.27543" x2="443.81349" y2="96.6648" gradientUnits="userSpaceOnUse" id="color-51"><stop offset="0" stop-color="#484c5e"/><stop offset="1" stop-color="#212d30"/></linearGradient></defs><g transform="translate(-20.66927,63.20096)"><g stroke-miterlimit="10"><g fill="none" stroke-width="3.25" stroke-linecap="round"><path d="M55.5783,387.38417c0,0 31.88218,-1.0902 44.50005,-1.52158c9.33843,-0.31933 7.93086,11.1821 -1.90819,18.37152c-8.2408,6.02151 -24.14006,17.63921 -34.15535,24.95737c-5.29823,3.87143 -2.87213,6.61629 1.83047,6.67554c8.90188,0.11228 38.62921,0.48711 38.62921,0.48711" stroke="url(#color-1)"/><path d="M56.06061,341.95815c0,0 31.88223,-1.0902 44.50004,-1.52167c9.33843,-0.31927 7.93086,11.18217 -1.90818,18.37152c-12.60031,9.20701 -43.10516,31.49703 -43.10516,31.49703" stroke="url(#color-2)"/><path d="M56.60312,290.85399c0,0 31.88223,-1.0902 44.50005,-1.52158c9.33843,-0.31927 7.93085,11.18217 -1.90819,18.37152c-12.60031,9.20701 -43.10516,31.49703 -43.10516,31.49703" stroke="url(#color-3)"/><path d="M57.08543,245.42807c0,0 31.88223,-1.0902 44.50005,-1.52158c9.33843,-0.31927 7.93085,11.18217 -1.90819,18.37152c-12.60031,9.20701 -43.10516,31.49703 -43.10516,31.49703" stroke="url(#color-4)"/><path d="M57.64804,192.43116c0,0 31.88223,-1.0902 44.50004,-1.52167c9.33843,-0.31927 7.93086,11.18225 -1.90818,18.3716c-12.60031,9.20701 -43.10516,31.49703 -43.10516,31.49703" stroke="url(#color-5)"/><path d="M58.13035,147.00522c0,0 31.88223,-1.0902 44.50005,-1.52167c9.33843,-0.31927 7.93086,11.18217 -1.90818,18.37152c-12.60031,9.20701 -43.10517,31.49703 -43.10517,31.49703" stroke="url(#color-6)"/><path d="M58.67286,95.90106c0,0 31.88223,-1.0902 44.50005,-1.52158c9.33843,-0.31927 7.93085,11.18217 -1.90819,18.37152c-12.60031,9.20701 -43.10516,31.49709 -43.10516,31.49709" stroke="url(#color-7)"/><path d="M59.15517,50.47512c0,0 31.88223,-1.0902 44.50005,-1.52158c9.33843,-0.31927 7.93085,11.18217 -1.90819,18.37152c-12.60031,9.20701 -43.10516,31.49703 -43.10516,31.49703" stroke="url(#color-8)"/></g><path d="M38.49488,36.97774c-4.68434,-17.07174 -31.70144,-73.08674 6.64436,-82.56975c39.58293,-9.78893 44.12161,49.50232 54.2833,46.72217c13.13656,-3.59403 3.62524,-14.33841 11.15548,-10.61275c20.95938,10.36986 7.64552,37.34858 9.02771,42.38593c2.94357,10.72772 32.77133,30.28672 23.40582,36.3766c-5.53849,3.60136 -47.15613,-3.84634 -55.47953,-3.42824c-5.43594,0.27308 -57.29021,31.88384 -62.43334,30.64313c-16.04865,-3.87147 16.9437,-46.58851 13.39621,-59.51705z" fill="#0d0d0d" stroke="#000000" stroke-width="0" stroke-linecap="butt"/><g fill="none" stroke-width="3.25" stroke-linecap="round"><path d="M617.07011,436.35412c0,0 29.72733,-0.39807 38.6292,-0.51732c4.7026,-0.06299 7.12869,-2.97801 1.83047,-7.08951c-10.01528,-7.77199 -25.91455,-20.11011 -34.15535,-26.50505c-9.83905,-7.63526 -11.24662,-19.84993 -1.90819,-19.51078c12.61786,0.45816 44.50005,1.61594 44.50005,1.61594" stroke="url(#color-9)"/><path d="M665.99729,387.44957c0,0 -30.50486,-23.67226 -43.10517,-33.45023c-9.83904,-7.63518 -11.24661,-19.84985 -1.90818,-19.51078c12.61782,0.45816 44.50005,1.61603 44.50005,1.61603" stroke="url(#color-10)"/><path d="M665.45477,333.17633c0,0 -30.50486,-23.67218 -43.10516,-33.45023c-9.83904,-7.63518 -11.24661,-19.84985 -1.90819,-19.51078c12.61782,0.45816 44.50005,1.61594 44.50005,1.61594" stroke="url(#color-11)"/><path d="M664.97247,284.93343c0,0 -30.50486,-23.67218 -43.10516,-33.45023c-9.83904,-7.63518 -11.24661,-19.84985 -1.90819,-19.51078c12.61782,0.45816 44.50005,1.61594 44.50005,1.61594" stroke="url(#color-12)"/><path d="M664.40985,228.65005c0,0 -30.50485,-23.67218 -43.10516,-33.45023c-9.83904,-7.63518 -11.24661,-19.84993 -1.90819,-19.51086c12.61782,0.45816 44.50005,1.61603 44.50005,1.61603" stroke="url(#color-13)"/><path d="M663.92755,180.40705c0,0 -30.50486,-23.67226 -43.10517,-33.45023c-9.83904,-7.63518 -11.2466,-19.84985 -1.90818,-19.51078c12.61782,0.45816 44.50005,1.61603 44.50005,1.61603" stroke="url(#color-14)"/><path d="M663.38503,126.13389c0,0 -30.50486,-23.67226 -43.10516,-33.4503c-9.83904,-7.63518 -11.24661,-19.84985 -1.90819,-19.51078c12.61782,0.45816 44.50005,1.61594 44.50005,1.61594" stroke="url(#color-15)"/><path d="M662.90273,77.89091c0,0 -30.50486,-23.67218 -43.10516,-33.45023c-9.83904,-7.63518 -11.24661,-19.84985 -1.90819,-19.51078c12.61782,0.45816 44.50005,1.61594 44.50005,1.61594" stroke="url(#color-16)"/></g><path d="M683.04971,20.46128c-3.54749,12.92854 29.44486,55.64558 13.39621,59.51705c-5.14314,1.24072 -56.99741,-30.37005 -62.43335,-30.64312c-8.3234,-0.41809 -49.94104,7.0296 -55.47953,3.42824c-9.36551,-6.08987 20.46224,-25.64888 23.40582,-36.3766c1.38219,-5.03735 -11.93166,-32.01607 9.02771,-42.38593c7.53025,-3.72566 -1.98108,7.01872 11.15548,10.61275c10.16169,2.78015 14.70037,-56.51111 54.2833,-46.72217c38.34579,9.48301 11.3287,65.49801 6.64436,82.56975z" fill="#0d0d0d" stroke="#000000" stroke-width="0" stroke-linecap="butt"/><path d="M412.35627,453.18063c-0.4744,2.21645 -25.55831,-3.34457 -48.8356,-19.10658c-10.68819,-7.23741 -11.25108,-27.61753 -26.21758,-30.82088c-16.96299,-3.63067 -21.74275,15.04393 -36.5479,18.52527c-26.70588,6.2797 -58.51888,1.48954 -58.07354,-0.59114c0.69223,-3.23417 58.85193,-103.40402 106.41317,-93.22424c47.56129,10.17978 63.95368,121.9834 63.26146,125.21758z" fill="#4c1212" stroke="url(#color-17)" stroke-width="0" stroke-linecap="butt"/><path d="M476.24479,235.47575c-0.50899,2.37807 -49.28323,29.25926 -105.97626,17.12496c-56.69303,-12.1343 -96.46421,-52.56356 -95.95522,-54.94163c0.25128,-1.174 49.49646,14.63253 99.33636,23.95086c51.1161,9.55692 102.85279,12.66177 102.59509,13.86581z" fill="#4c1212" stroke="url(#color-18)" stroke-width="0" stroke-linecap="butt"/><g fill="none" stroke-width="3.25" stroke-linecap="round"><path d="M395.31292,183.71088c0,0 -14.0697,-3.01141 -18.28289,-3.91318c-2.22573,-0.47638 -3.84339,1.40445 -2.01689,5.02671c3.45264,6.84721 8.93375,17.71712 11.77466,23.35117c3.39189,6.7267 2.06588,15.89441 -2.27837,14.60598c-5.8698,-1.7409 -20.70132,-6.13972 -20.70132,-6.13972" stroke="url(#color-19)"/><path d="M364.29867,214.34987c0,0 10.51619,20.85541 14.86001,29.46993c3.39189,6.7267 2.06588,15.89438 -2.27836,14.60598c-5.8698,-1.7409 -20.70132,-6.13972 -20.70132,-6.13972" stroke="url(#color-20)"/><path d="M355.71593,254.44958c0,0 10.5162,20.85542 14.86001,29.46993c3.39189,6.7267 2.06588,15.89438 -2.27836,14.60598c-5.8698,-1.7409 -20.70132,-6.13972 -20.70132,-6.13972" stroke="url(#color-21)"/><path d="M348.08681,290.09378c0,0 10.5162,20.85541 14.86001,29.46993c3.39189,6.72669 2.06589,15.89438 -2.27836,14.60598c-5.8698,-1.7409 -20.70133,-6.13972 -20.70133,-6.13972" stroke="url(#color-22)"/><path d="M339.18619,331.67865c0,0 10.51619,20.85542 14.86001,29.46993c3.39189,6.7267 2.06588,15.89438 -2.27836,14.60598c-5.8698,-1.7409 -20.70132,-6.13972 -20.70132,-6.13972" stroke="url(#color-23)"/><path d="M331.55708,367.32284c0,0 10.5162,20.85542 14.86001,29.46993c3.39189,6.7267 2.06588,15.89438 -2.27837,14.60598c-5.8698,-1.7409 -20.70132,-6.13972 -20.70132,-6.13972" stroke="url(#color-24)"/><path d="M322.97434,407.42255c0,0 10.51619,20.85542 14.86001,29.46994c3.39189,6.7267 2.06589,15.89437 -2.27836,14.60598c-5.8698,-1.7409 -20.70132,-6.13972 -20.70132,-6.13972" stroke="url(#color-25)"/><path d="M315.34523,443.06674c0,0 10.51619,20.85542 14.86001,29.46994c3.39189,6.7267 2.06588,15.89438 -2.27836,14.60598c-5.8698,-1.7409 -20.70132,-6.13972 -20.70132,-6.13972" stroke="url(#color-26)"/></g><g><g fill="none" stroke-width="3.25" stroke-linecap="round"><path d="M472.27744,294.2821c0,0 -24.82979,-1.14382 -34.65657,-1.5965c-7.27276,-0.33502 -5.54332,-8.4495 2.49817,-12.98192c6.73526,-3.79619 19.72986,-11.12034 27.91546,-15.73395c4.33028,-2.44067 2.59719,-4.54363 -1.05302,-4.86925c-6.90973,-0.61638 -29.98442,-2.67474 -29.98442,-2.67474" stroke="url(#color-27)"/><path d="M469.39125,326.63681c0,0 -24.82981,-1.14378 -34.65658,-1.59647c-7.27276,-0.33502 -5.54331,-8.4495 2.49822,-12.98194c10.29832,-5.80443 35.23017,-19.85676 35.23017,-19.85676" stroke="url(#color-28)"/><path d="M466.14426,363.0359c0,0 -24.8298,-1.14382 -34.65658,-1.59651c-7.27276,-0.33502 -5.54331,-8.44949 2.49821,-12.98191c10.29832,-5.80442 35.23017,-19.85676 35.23017,-19.85676" stroke="url(#color-29)"/><path d="M463.25807,395.39061c0,0 -24.82981,-1.14378 -34.65658,-1.59647c-7.27276,-0.33502 -5.54331,-8.4495 2.49818,-12.98196c10.29832,-5.80442 35.23017,-19.85676 35.23017,-19.85676" stroke="url(#color-30)"/><path d="M459.89083,433.13778c0,0 -24.82981,-1.14378 -34.65658,-1.59647c-7.27276,-0.33502 -5.54331,-8.4495 2.49821,-12.98191c10.29832,-5.80442 35.23017,-19.85677 35.23017,-19.85677" stroke="url(#color-31)"/><path d="M457.00463,465.49253c0,0 -24.82981,-1.14378 -34.65658,-1.59647c-7.27276,-0.33502 -5.54331,-8.4495 2.49822,-12.98194c10.29832,-5.80442 35.23017,-19.85677 35.23017,-19.85677" stroke="url(#color-32)"/><path d="M453.75765,501.89162c0,0 -24.82981,-1.14378 -34.65658,-1.59647c-7.27276,-0.33502 -5.54331,-8.44949 2.49821,-12.98191c10.29832,-5.80443 35.23017,-19.85677 35.23017,-19.85677" stroke="url(#color-33)"/><path d="M450.87146,534.24633c0,0 -24.82981,-1.14378 -34.65658,-1.59647c-7.27276,-0.33502 -5.54331,-8.4495 2.49822,-12.98195c10.29832,-5.80442 35.23017,-19.85676 35.23017,-19.85676" stroke="url(#color-34)"/></g><path d="M459.57555,612.55926c-31.34211,5.22011 -31.29577,-41.11721 -39.35798,-39.56957c-10.42246,2.00075 -3.68044,10.92118 -9.30623,7.57297c-15.65868,-9.31933 -3.6895,-29.47707 -4.45982,-33.47391c-1.64051,-8.51178 -23.63548,-25.50455 -15.99237,-29.67151c4.51993,-2.4642 36.40422,5.82955 42.89592,6.00624c4.23964,0.11541 46.43032,-21.31886 50.35132,-20.04509c12.23505,3.97478 -15.97077,35.17412 -13.99371,45.43211c2.61068,13.54542 20.22544,58.69183 -10.13709,63.74877z" fill="#0d0d0d" stroke="#000000" stroke-width="0" stroke-linecap="butt"/></g><g><g fill="none" stroke-width="3.25" stroke-linecap="round"><path d="M295.03357,226.04049c0,0 -21.89567,-7.56687 -28.45234,-9.83278c-3.46371,-1.19701 -5.90573,0.01232 -2.95385,4.01164c5.57999,7.55995 14.43824,19.56135 19.02958,25.78184c5.4818,7.42692 3.73832,15.53839 -3.03441,12.86718c-9.15117,-3.60921 -32.27384,-12.72895 -32.27384,-12.72895" stroke="url(#color-35)"/><path d="M248.03097,244.16528c0,0 16.99571,23.02631 24.01595,32.53752c5.48181,7.42688 3.73833,15.53836 -3.03441,12.86718c-9.15112,-3.60924 -32.27384,-12.72895 -32.27384,-12.72895" stroke="url(#color-36)"/><path d="M236.09463,278.70451c0,0 16.99572,23.02631 24.01595,32.53751c5.48181,7.42688 3.73833,15.53836 -3.03441,12.86718c-9.15112,-3.60924 -32.27384,-12.72895 -32.27384,-12.72895" stroke="url(#color-37)"/><path d="M225.48459,309.40608c0,0 16.99571,23.02631 24.01595,32.53752c5.48181,7.42688 3.73834,15.53835 -3.0344,12.86718c-9.15112,-3.60924 -32.27384,-12.72895 -32.27384,-12.72895" stroke="url(#color-38)"/><path d="M213.10617,345.22454c0,0 16.99571,23.02631 24.01595,32.53751c5.48181,7.42688 3.73833,15.53836 -3.03441,12.86718c-9.15112,-3.60924 -32.27383,-12.72895 -32.27383,-12.72895" stroke="url(#color-39)"/><path d="M202.49614,375.92611c0,0 16.99571,23.02631 24.01595,32.53751c5.48181,7.42688 3.73834,15.53836 -3.0344,12.86719c-9.15113,-3.60924 -32.27384,-12.72895 -32.27384,-12.72895" stroke="url(#color-40)"/><path d="M190.5598,410.46534c0,0 16.99572,23.02631 24.01595,32.53752c5.48181,7.42688 3.73834,15.53836 -3.0344,12.86718c-9.15113,-3.60924 -32.27384,-12.72895 -32.27384,-12.72895" stroke="url(#color-41)"/><path d="M179.94977,441.16691c0,0 16.99571,23.02631 24.01594,32.53752c5.48181,7.42688 3.73834,15.53836 -3.0344,12.86719c-9.15113,-3.60924 -32.27384,-12.72896 -32.27384,-12.72896" stroke="url(#color-42)"/></g><path d="M145.50548,479.41878c6.00269,-8.55008 -6.96161,-48.56127 5.82849,-47.17976c4.09887,0.44272 33.8198,37.2686 37.73527,38.89872c5.99529,2.49597 38.48109,7.97967 41.59634,12.07807c5.26785,6.93036 -21.75559,13.43147 -26.73642,20.52608c-2.33882,3.33138 0.33081,26.62238 -17.77061,28.71582c-6.50344,0.75213 3.29925,-4.6272 -5.39117,-10.71873c-6.72241,-4.71208 -25.64687,37.58466 -52.10645,19.99296c-25.6326,-17.0419 8.91818,-51.02301 16.84454,-62.31313z" fill="#0d0d0d" stroke="#000000" stroke-width="0" stroke-linecap="butt"/></g><path d="M310.3093,263.84596c2.38189,-11.12849 -17.13818,-38.39056 -13.17217,-42.9442c4.99892,-5.73962 33.92399,12.82517 41.11961,13.3914c8.76934,0.69007 19.03739,4.34888 30.48119,6.79825c11.96991,2.56198 23.83201,3.93795 32.84826,7.87532c5.38581,2.35197 36.49905,0.1741 39.27034,5.15276c3.55173,6.38073 -22.26598,21.01849 -25.19583,34.70708c-4.8641,22.72571 -14.52783,73.21334 -31.29084,95.59318c-14.40139,19.22689 -35.30905,12.46893 -48.37927,9.67145c-10.98464,-2.3511 -35.21053,-11.90632 -39.97836,-30.37966c-7.50857,-29.09271 8.76614,-74.0245 14.29704,-99.8656z" fill="#dadada" stroke="#000000" stroke-width="0" stroke-linecap="butt"/><path d="M305.93206,304.22615c6.74804,-31.52772 33.20044,-52.59512 59.08307,-47.05533c25.88263,5.53979 41.39427,35.58898 34.64623,67.1167c-6.74804,31.52773 -33.20043,52.59513 -59.08306,47.05534c-25.88263,-5.53979 -41.39428,-35.58898 -34.64624,-67.1167z" fill="#ababab" stroke="url(#color-43)" stroke-width="0" stroke-linecap="butt"/><path d="M377.14672,401.18112c2.59393,-46.96564 38.51817,-147.42822 46.8087,-159.0752c13.89127,-19.51519 36.27353,-13.17306 54.10893,-7.66665c10.46408,3.23062 -31.7194,82.46582 -64.93059,132.18254c-15.80815,23.6646 2.12553,87.83466 2.12553,87.83466c0,0 -40.71057,-6.23701 -38.11259,-53.27535z" fill="#801d1d" stroke="url(#color-44)" stroke-width="0" stroke-linecap="butt"/><path d="M238.81912,422.46543c0,0 42.62859,-51.20762 37.89171,-79.26957c-9.9516,-58.95508 -16.00699,-148.51509 -5.1373,-147.17953c18.52676,2.27641 41.54411,5.65136 46.23041,29.14279c2.79688,14.02008 -5.54739,120.38574 -22.40465,164.29853c-16.88331,43.98075 -56.58021,33.00777 -56.58021,33.00777z" fill="#801d1d" stroke="url(#color-45)" stroke-width="0" stroke-linecap="butt"/><g stroke-width="0" stroke-linecap="butt"><g stroke="#000000"><path d="M455.31801,240.32502l-19.23879,-39.98762l9.46697,-4.55472l19.2388,39.98761z" fill="#2f323e"/><path d="M428.54725,201.56244c-8.15893,-5.06931 -21.57843,-31.39287 -21.57843,-31.39287l32.10366,-15.81336c0,0 11.08059,26.43456 11.59032,35.6039c0.3437,6.1828 -5.56589,8.24055 -9.67537,10.21768c-3.06214,1.47322 -8.98564,3.53094 -12.44011,1.38458z" fill="#2f323e"/><g><path d="M481.95012,100.24673c-6.16477,-7.07131 -11.84686,-9.59833 -16.62252,-14.95794c-4.50632,-5.05735 -8.16768,-13.03348 -11.89896,-16.80684c-9.22127,-9.32527 -16.35986,-15.31499 -19.83187,-22.57712c-2.16793,-4.53454 -1.60685,-13.93934 -2.26582,-18.316c-0.72107,-4.78924 11.92253,-11.4827 21.49956,-11.37411c8.33794,0.09454 12.80861,6.22963 23.73437,12.01484c4.8877,2.58803 17.74635,8.12804 22.56195,11.89663c7.98685,6.25039 9.18833,12.17169 14.54793,19.92627c4.49057,6.49721 15.54829,13.95304 20.98436,21.41374c2.53704,3.4819 0.07622,6.98769 2.00759,10.35611c2.33161,4.06647 13.39556,15.15754 15.29183,18.91545c5.38474,10.67122 3.26222,15.794 4.73062,23.32988c1.74283,8.94397 14.61676,23.6653 13.83766,29.79105c-1.13814,8.94904 -13.33816,16.43279 -17.9307,19.06603c-4.50873,2.58518 -8.46203,10.02419 -15.63944,7.16219c-5.55351,-2.21449 -13.58571,-10.48818 -21.23613,-20.01442c-4.55938,-5.67723 -6.76287,-4.76105 -11.43821,-12.04187c-2.79163,-4.34731 -7.86522,-16.09712 -10.96827,-21.50909c-5.23628,-9.13239 2.65624,-20.19295 -11.36394,-36.27492z" fill="#a3a3a3"/><path d="M440.58357,32.13996c3.29293,-2.80611 11.50728,1.4258 18.3472,9.45235c6.83997,8.02653 9.71539,16.80813 6.42248,19.61426c-3.29293,2.80611 -11.50727,-1.4258 -18.34724,-9.45235c-6.83997,-8.02653 -9.71538,-16.80814 -6.42248,-19.6143z" fill="#0d0d0d"/></g><path d="M448.24812,39.15956c2.62218,-0.21623 6.19102,2.28161 8.01997,4.24543c1.31182,1.40862 3.4759,4.39691 3.58614,6.18297c0.67203,10.8847 -19.95545,25.09122 -27.95,16.50692c-7.47741,-8.02904 5.62336,-26.05117 16.34385,-26.93531z" fill="#2f323e"/><g><path d="M366.19317,201.69228c2.29221,5.80208 8.30688,17.09906 9.96157,21.99335c2.77126,8.19691 0.68017,9.34689 2.27093,16.45246c2.66915,11.92285 4.12136,23.36231 2.38589,29.08362c-2.24289,7.39429 -10.52272,5.84085 -15.3564,7.75051c-4.9236,1.94515 -18.38482,6.80753 -26.08763,2.11201c-5.27271,-3.21419 -8.74131,-22.46058 -14.6422,-29.40399c-4.97188,-5.85027 -10.29925,-7.38881 -15.27702,-18.25579c-1.75295,-3.82683 -3.5145,-19.39351 -5.23682,-23.75306c-1.42668,-3.61126 -5.70172,-3.87632 -6.83909,-8.03161c-2.43709,-8.90358 -1.36206,-22.19672 -3.63636,-29.76021c-2.71446,-9.02726 -6.59135,-13.6613 -6.49085,-23.8027c0.06058,-6.11466 3.75645,-19.61933 4.78448,-25.05352c2.29799,-12.14742 0.29425,-19.46935 5.42386,-26.04344c5.8919,-7.55103 19.01241,-13.25313 22.3046,-9.70088c3.00862,3.24625 10.70742,8.67708 12.89753,13.20085c3.50764,7.24498 3.73284,16.56084 5.2646,29.58567c0.61981,5.2703 4.56719,13.10882 5.70656,19.78613c1.20749,7.07631 -0.364,13.0932 1.31407,22.32311c3.81635,20.99115 17.38425,21.72672 21.25224,31.51743z" fill="#a3a3a3"/><path d="M328.85786,112.60788c2.00309,10.35366 0.18351,19.41311 -4.06416,20.23487c-4.24768,0.82174 -9.31486,-6.90533 -11.31795,-17.25893c-2.00309,-10.35366 -0.1835,-19.41312 4.06418,-20.23487c4.24768,-0.82174 9.31486,6.90535 11.31795,17.25893z" fill="#0d0d0d"/></g><path d="M349.48773,109.7574c1.71841,11.60383 -22.25514,18.85572 -30.34073,11.53784c-1.32677,-1.20079 -2.3112,-4.75659 -2.5932,-6.66069c-0.39308,-2.65462 -0.11763,-7.00209 1.68776,-8.916c7.38119,-7.82493 29.63884,-6.81438 31.24611,4.03886z" fill="#2f323e"/><path d="M497.98742,141.40341c0.92728,1.92732 -26.70431,32.05731 -60.88804,48.5019c-34.13148,16.41946 -74.81373,19.15655 -75.73959,17.2322c-0.9227,-1.9178 38.60147,-6.46934 72.61177,-22.84216c34.29461,-16.5097 63.08542,-44.82574 64.01581,-42.89186z" fill="#686e88"/><path d="M497.02642,140.68036c2.57214,5.34626 38.9895,96.71309 -22.4966,126.2952c-61.48609,29.58209 -112.99495,-58.19989 -115.56715,-63.54613c-2.57214,-5.34626 44.76642,73.7678 106.25252,44.18569c61.48609,-29.58209 29.23908,-112.281 31.81128,-106.93477z" fill="#dadada"/><path d="M439.02298,213.55946l-18.27384,-37.98197l14.25822,-6.85987l18.27384,37.98196z" fill="#24262f"/><path d="M333.59554,164.44295c-19.62693,-40.79438 -2.46728,-89.77543 38.32703,-109.4024c40.79434,-19.62692 89.77546,-2.46735 109.4024,38.32703c19.62691,40.79432 -128.10248,111.8697 -147.7294,71.07535z" fill="#dadada"/><path d="M344.78156,150.72837c-8.44204,-17.54667 -1.06124,-38.6146 16.48537,-47.05664c17.54667,-8.44204 38.61464,-1.0613 47.05664,16.48537c8.44204,17.54667 1.06123,38.6146 -16.48544,47.05664c-17.54667,8.44204 -38.61459,1.06124 -47.05662,-16.48538z" fill="#000000"/><path d="M397.0755,127.09565c-8.44204,-17.54667 -1.06131,-38.61464 16.48537,-47.05664c17.54667,-8.44204 38.6146,-1.06123 47.05664,16.48537c8.44204,17.54667 1.06129,38.61457 -16.48538,47.05662c-17.54667,8.44204 -38.61458,1.06129 -47.05664,-16.48537z" fill="#000000"/><path d="M495.76762,96.81075c4.91999,10.57635 -3.98921,51.55298 -65.97562,81.37573c-61.98633,29.8228 -98.12758,8.45257 -103.32672,-1.98942c-16.11182,-32.3589 23.02653,-6.25294 85.01285,-36.07573c61.98633,-29.8228 68.42322,-77.41772 84.28944,-43.31065z" fill="#ababab"/><path d="M392.21965,158.77411c-13.36448,-27.77792 -30.0488,-99.09728 -21.64232,-103.14179c8.4065,-4.04451 53.60878,46.49116 66.97325,74.26909c13.36448,27.77792 -31.96646,56.65061 -45.33091,28.87274z" fill="#ababab"/><path d="M437.79207,125.87035c0.98835,2.05423 1.2594,31.83939 -13.20586,38.79891c-14.46526,6.95951 -38.18922,-11.54199 -39.17759,-13.59625c-0.98835,-2.05423 51.39513,-27.25689 52.38344,-25.20267z" fill="#1d1d1d"/><g><path d="M397.33286,-35.63595c4.44022,9.2289 -17.10456,28.80774 -48.12162,43.73062c-31.01702,14.92286 -59.76075,19.53874 -64.20096,10.30988c-0.7344,-1.52653 -2.2606,-6.3487 2.3776,-9.8382c17.91803,-13.48051 73.53598,-39.78246 98.94376,-46.48958c7.77695,-2.05298 10.13273,0.48224 11.00116,2.28729z" fill="#101010"/><path d="M397.39383,-33.9967c9.5444,19.83792 22.37571,52.89327 7.81786,76.25328c-10.33574,16.58507 -44.84836,26.10111 -57.72478,32.29618c-31.01285,14.92087 -46.07989,-20.59383 -62.40061,-54.51622c-5.87535,-12.21182 8.63759,-5.30179 25.62232,-17.68452c14.22137,-10.36808 39.18047,-14.16849 53.03922,-24.86388c15.56731,-12.01397 28.12002,-22.97043 33.64598,-11.48487z" fill="#0d0d0d"/></g><g><path d="M441.73465,18.44111c1.04054,2.16267 -29.90912,19.21208 -69.12784,38.08093c-39.21873,18.86886 -71.85526,32.41194 -72.89578,30.24928c-1.04054,-2.16267 29.90912,-19.21208 69.12784,-38.08093c39.21873,-18.86886 71.85526,-32.41194 72.89578,-30.24928z" fill="#101010"/><path d="M441.14018,19.1181c2.23661,4.64867 2.67357,13.6311 -22.31613,29.48679c-17.74209,11.25719 -58.52799,29.21897 -74.80933,37.05228c-39.21353,18.86634 -41.05472,9.73122 -44.87924,1.78204c-1.37679,-2.86163 17.84556,-6.28487 41.01629,-18.41949c19.40091,-10.1604 45.57249,-20.04998 64.71685,-30.20449c21.50453,-11.40641 34.9766,-22.38859 36.27154,-19.69713z" fill="#0d0d0d"/></g><path d="M416.94784,16.36611c0.84388,1.75393 4.80721,6.59471 1.19166,10.09988c-3.06229,2.96876 -9.0131,5.50875 -15.64903,9.43219c-6.80306,4.02224 -14.35552,9.43732 -22.6763,13.22413c-4.20106,1.91187 -8.30367,1.43826 -12.48289,3.44899c-6.30782,3.0348 -13.04585,7.94747 -20.42195,11.08272c-6.40593,2.72282 -13.49129,3.69322 -18.72341,6.06428c-6.49897,2.94515 -9.76571,6.06359 -13.82099,6.83522c-6.83778,1.30112 -5.27173,-5.69693 -6.28735,-7.80786c-0.85155,-1.76991 -6.04707,-7.21452 -2.36268,-10.76401c3.41344,-3.28841 9.54126,-8.69018 18.02212,-12.16167c6.18086,-2.53 14.09766,-3.02448 20.73439,-5.89589c5.14638,-2.22664 8.18607,-4.96032 13.22277,-7.38358c5.04582,-2.42763 10.60893,-3.44741 15.87713,-6.5225c6.20168,-3.61994 11.62684,-9.17714 17.24092,-12.85438c7.88435,-5.16425 15.46941,-8.01748 20.21836,-8.8176c6.1121,-1.02979 4.96691,10.04476 5.91728,12.02012z" fill="#801d1d"/></g><g><path d="M307.24126,165.5762c-16.41717,-31.52317 -4.17132,-70.38649 27.35185,-86.80364c31.52317,-16.41717 70.38649,-4.17132 86.80364,27.35185c16.41717,31.52317 4.17132,70.38649 -27.35185,86.80364c-31.52317,16.41717 -70.38649,4.17132 -86.80364,-27.35185z" fill="url(#color-46)" stroke="url(#color-47)"/><path d="M355.195,140.32928c-2.6539,-5.09584 -0.67432,-11.37827 4.42152,-14.03216c5.09584,-2.6539 11.37827,-0.67431 14.03217,4.42154c2.6539,5.09584 0.67431,11.37827 -4.42154,14.03217c-5.09584,2.6539 -11.37826,0.6743 -14.03216,-4.42155zM367.81849,142.20348c3.56354,-1.85587 4.94786,-6.24917 3.09198,-9.8127c-1.85587,-3.56354 -6.24918,-4.94787 -9.81271,-3.092c-3.56354,1.85587 -4.94786,6.2492 -3.09199,9.81272c1.85587,3.56354 6.24917,4.94786 9.81271,3.09198z" fill="#ffffff" stroke="url(#color-48)"/></g><g><path d="M377.40606,131.52234c-16.41717,-31.52317 -4.17132,-70.38649 27.35185,-86.80364c31.52317,-16.41717 70.38649,-4.17132 86.80364,27.35185c16.41717,31.52317 4.17132,70.38649 -27.35185,86.80364c-31.52317,16.41717 -70.38649,4.17132 -86.80364,-27.35185z" fill="url(#color-49)" stroke="url(#color-50)"/><path d="M425.35978,106.27543c-2.6539,-5.09584 -0.67432,-11.37827 4.42152,-14.03216c5.09584,-2.6539 11.37827,-0.67431 14.03217,4.42154c2.6539,5.09584 0.67431,11.37827 -4.42154,14.03217c-5.09584,2.6539 -11.37826,0.6743 -14.03216,-4.42155zM437.98328,108.14963c3.56354,-1.85587 4.94786,-6.24917 3.09198,-9.8127c-1.85587,-3.56354 -6.24918,-4.94787 -9.81271,-3.092c-3.56354,1.85587 -4.94786,6.2492 -3.09199,9.81272c1.85587,3.56354 6.24917,4.94786 9.81271,3.09198z" fill="#ffffff" stroke="url(#color-51)"/></g></g></g></g></svg>