<svg version="1.1" xmlns="http://www.w3.org/2000/svg" xmlns:xlink="http://www.w3.org/1999/xlink" width="76.33333" height="101" viewBox="0,0,76.33333,101"><defs><linearGradient x1="372.86641" y1="151.33233" x2="371.34954" y2="154.55354" gradientUnits="userSpaceOnUse" id="color-1"><stop offset="0" stop-color="#e3a052"/><stop offset="1" stop-color="#f2aa58"/></linearGradient><linearGradient x1="347.59145" y1="149.83374" x2="348.59882" y2="153.24875" gradientUnits="userSpaceOnUse" id="color-2"><stop offset="0" stop-color="#e3a052"/><stop offset="1" stop-color="#f2aa58"/></linearGradient><linearGradient x1="360.42821" y1="162.46327" x2="356.66879" y2="183.29278" gradientUnits="userSpaceOnUse" id="color-3"><stop offset="0" stop-color="#f3b46b"/><stop offset="1" stop-color="#d79d5c"/></linearGradient><radialGradient cx="374.68085" cy="175.79265" r="4.78275" gradientUnits="userSpaceOnUse" id="color-4"><stop offset="0" stop-color="#e20000"/><stop offset="1" stop-color="#b40000"/></radialGradient><radialGradient cx="344.11656" cy="169.86388" r="4.78275" gradientUnits="userSpaceOnUse" id="color-5"><stop offset="0" stop-color="#e20000"/><stop offset="1" stop-color="#b40000"/></radialGradient><radialGradient cx="346.65763" cy="175.96568" r="0.73359" gradientUnits="userSpaceOnUse" id="color-6"><stop offset="0" stop-color="#000000" stop-opacity="0.13725"/><stop offset="1" stop-color="#000000" stop-opacity="0"/></radialGradient></defs><g transform="translate(-321.83333,-129.5)"><g data-paper-data="{&quot;isPaintingLayer&quot;:true}" fill-rule="nonzero" stroke-linejoin="miter" stroke-miterlimit="10" stroke-dasharray="" stroke-dashoffset="0" style="mix-blend-mode: normal"><path d="M321.83333,230.5v-101h76.33333v101z" fill="#273042" stroke="none" stroke-width="0" stroke-linecap="butt"/><path d="M329.75471,196.83333v-61.66667h60.49068v61.66667z" fill="#0b0e13" stroke="none" stroke-width="0" stroke-linecap="butt"/><path d="M343.08349,227.33333v-17.33333h33.83333v17.33333z" fill="#0b0e13" stroke="#000000" stroke-width="0" stroke-linecap="butt"/><path d="M342.99995,209.125v-11.25h34.25v11.25z" fill="#273042" stroke="#000000" stroke-width="0" stroke-linecap="butt"/><text transform="translate(347.21028,223.17375) scale(0.37559,0.37559)" font-size="40" xml:space="preserve" fill="#c74444" fill-rule="nonzero" stroke="none" stroke-width="1" stroke-linecap="butt" stroke-linejoin="miter" stroke-miterlimit="10" stroke-dasharray="" stroke-dashoffset="0" font-family="&quot;Agency FB&quot;, Sans Serif" font-weight="normal" text-anchor="start" style="mix-blend-mode: normal"><tspan x="0" dy="0">HARD</tspan></text><g data-paper-data="{&quot;index&quot;:null}" stroke="none" stroke-linecap="butt"><path d="M369.9145,147.89613c-0.18527,0.12544 -0.35914,0.26597 -0.50409,0.44556c0,0 -0.11005,0.13468 -0.24472,0.02464c-0.13468,-0.11006 -0.02464,-0.24472 -0.02464,-0.24472c0.77983,-0.9448 2.34227,-1.73748 3.47048,-2.14598c0.65661,-0.23619 1.3991,-0.31137 2.10121,-0.32812c0.16551,-0.00394 0.69595,-0.08323 0.77003,0.14232c0.01873,0.05701 -0.00576,0.11066 -0.04304,0.16334c0.25945,-0.03441 0.62608,0.02151 0.77299,0.03349c0.94752,0.07724 1.81842,0.3354 2.7488,0.51928c0.35376,0.0699 1.33576,0.18239 1.55351,0.49821c0.47114,0.68336 -0.13323,1.93052 -0.27492,2.625c-0.56224,1.21375 -0.59916,2.56188 -1.16409,3.78141c-0.21903,0.45912 -0.36936,0.94629 -0.57021,1.41769c0.04632,-0.00109 0.08861,0.00823 0.1153,0.0312c0.25798,0.22195 -0.13654,0.82021 -0.28921,0.98004c-0.74638,0.78135 -1.88923,0.96844 -2.74137,1.62983c-0.34944,0.12966 -0.81106,0.39181 -1.18219,0.42091c-1.28961,0.10112 -1.82772,-1.25808 -2.47939,-2.08563c-1.04162,-1.32278 -2.16565,-2.54904 -3.20306,-3.86645c-1.10578,-1.42028 0.04833,-2.69616 1.00298,-3.85982c0.06357,-0.05924 0.12522,-0.12018 0.18559,-0.1822z" fill="#f2aa58" stroke-width="0.5"/><g><path d="M375.53948,157.25609c-4.13477,2.74449 -10.27409,-6.60964 -6.13934,-9.35413c4.13477,-2.74449 9.5218,-1.77876 10.45201,-0.39699c1.09226,1.62246 -0.25967,7.06091 -4.31267,9.75113z" fill="#f2aa58" stroke-width="0"/><path d="M377.4158,149.38993c1.37223,2.06738 -0.61173,5.24194 -3.47938,7.14537c-1.74352,1.15727 -6.06581,-5.7847 -4.32729,-6.93867c2.86765,-1.90344 6.43441,-2.27407 7.80666,-0.20669z" fill="#f3b46b" stroke-width="0"/><path d="M378.56394,148.77856c0.69645,1.04925 -7.48406,1.93319 -8.18051,0.88394c-0.39162,-0.58999 1.82369,-1.76695 3.92341,-2.06611c1.63438,-0.23285 3.24696,-0.33971 4.25711,1.18216z" fill="#f3b46b" stroke-width="0"/><path d="M378.57271,148.86164c0.71036,1.34975 -0.60474,3.23259 -1.454,4.64828c-1.09106,1.81874 -3.03593,3.40317 -3.42754,2.81316c-0.69645,-1.04925 4.29502,-8.57587 4.88154,-7.46144z" fill="#f3b46b" stroke-width="0"/><path d="M375.10711,150.60985c0.08797,-0.15003 0.23801,-0.06205 0.23801,-0.06205l0.24615,0.14484c0.09522,0.07644 0.31998,0.16847 0.47994,0.27744c-0.08912,-0.33259 -0.20687,-0.62229 -0.45204,-0.90158c-0.07594,-0.08651 -0.3272,-0.36978 -0.28898,-0.46809c0.04686,-0.12054 0.2211,-0.14923 0.34873,-0.17002c0.22647,-0.03691 0.96928,0.20929 1.37625,0.46304c-0.2936,-0.4831 -0.69748,-0.81416 -1.15713,-1.18c0,0 -0.13608,-0.1083 -0.02778,-0.24438c0.10831,-0.13608 0.24439,-0.02776 0.24439,-0.02776c0.58935,0.46906 1.08451,0.89649 1.40797,1.5926l0.00054,0.00692l0.00192,-0.00072l0.07788,0.20808c0.02205,0.05595 0.01445,0.12182 -0.02569,0.17226c-0.05436,0.0683 -0.14969,0.08479 -0.22304,0.04232l-0.203,-0.11278l0.01631,-0.02936c-0.26647,-0.1039 -0.51693,-0.23155 -0.80325,-0.32151c-0.04687,-0.01473 -0.27356,-0.0875 -0.45733,-0.15838c0.07184,0.08399 0.13206,0.17315 0.14162,0.18624c0.24541,0.3361 0.33263,0.71912 0.4228,1.11526l0.04773,0.18305c0.01406,0.05163 0.00418,0.10905 -0.0317,0.15414c-0.05324,0.06689 -0.14577,0.08411 -0.21847,0.0449l-0.1724,-0.08862l0.01607,-0.03128c-0.25721,-0.09905 -0.48684,-0.24232 -0.71811,-0.42494l-0.22534,-0.13163c0,0 -0.15002,-0.08797 -0.06205,-0.238z" fill="#dea564" stroke-width="0.5"/></g><path d="M370.07342,151.54434c-0.01506,0.0206 -0.03061,0.04091 -0.04673,0.06088c0,0 -0.11004,0.13468 -0.24471,0.02463c-0.13468,-0.11005 -0.02464,-0.24472 -0.02464,-0.24472c0.20042,-0.24148 0.40203,-1.00261 0.7154,-1.08525c0.46631,-0.12299 0.64889,0.63445 0.76968,1.03311c0.12743,-0.07543 0.43068,0.08875 0.517,0.20786c0.03371,0.04651 0.07331,0.6097 0.1316,0.60789c0.10714,-0.00331 0.22886,-0.12358 0.3158,-0.06084c0.16479,0.11889 -0.10923,0.53597 0.08223,0.60407c0.34367,0.12224 0.70654,0.07247 1.07568,0.2463l0.16783,0.07903c0.08691,0.04092 0.12417,0.14454 0.08325,0.23144c-0.02046,0.04344 -0.05658,0.07448 -0.09847,0.08955l-0.18515,0.06661c-0.02647,0.01593 -0.08555,0.02728 -0.13342,0.03341c0.17556,0.03181 0.37437,0.33219 0.49295,0.42863l0.14525,0.11869c0.06259,0.0489 0.08539,0.1362 0.05013,0.21108c-0.02455,0.05213 -0.07167,0.08639 -0.1242,0.09663l-0.22513,0.04643l-0.0067,-0.03247c-0.06257,0.01708 -0.12416,0.02921 -0.18705,0.03627c0.25654,0.15418 0.53131,0.37341 0.61899,0.47131c0.07867,0.08783 0.24023,0.17124 0.20945,0.28508c-0.09596,0.3548 -0.37327,0.17748 -0.55241,0.17385c-0.86813,-0.01762 -1.33184,-0.18542 -1.99393,-0.7286c-0.72339,-0.77478 -1.18144,-1.97251 -1.55274,-3.0009z" fill="url(#color-1)" stroke-width="0.5"/></g><g stroke="none" stroke-linecap="butt"><path d="M351.03333,146.88846c0.05019,0.07051 0.10181,0.14014 0.1556,0.20839c0.76582,1.29576 1.71163,2.73287 0.402,3.9677c-1.22636,1.14361 -2.52441,2.1839 -3.75575,3.33216c-0.77036,0.71837 -1.50966,1.9795 -2.76871,1.6827c-0.36234,-0.08541 -0.77853,-0.41498 -1.10408,-0.59646c-0.74119,-0.78372 -1.84209,-1.14308 -2.46044,-2.02921c-0.12648,-0.18126 -0.42504,-0.83273 -0.13621,-1.0127c0.02989,-0.01863 0.0731,-0.02139 0.11871,-0.01324c-0.12653,-0.49654 -0.20073,-1.00094 -0.3471,-1.48811c-0.37213,-1.29148 -0.20282,-2.62945 -0.57319,-3.91481c-0.03401,-0.70798 -0.44091,-2.03277 0.12903,-2.6362c0.26341,-0.27888 1.25107,-0.24013 1.61135,-0.25521c0.94754,-0.0397 1.84765,-0.16189 2.79585,-0.09358c0.14701,0.01059 0.51789,0.0113 0.76905,0.08491c-0.0288,-0.05775 -0.04481,-0.11452 -0.0176,-0.16801c0.10765,-0.21159 0.61977,-0.05226 0.78274,-0.02309c0.69133,0.12374 1.41363,0.31138 2.0265,0.64503c1.05263,0.57594 2.47576,1.59784 3.10221,2.65061c0,0 0.0882,0.14989 -0.06171,0.2381c-0.14989,0.08819 -0.2381,-0.06171 -0.2381,-0.06171c-0.11583,-0.19961 -0.26622,-0.36503 -0.43016,-0.51729z" fill="#f2aa58" stroke-width="0.5"/><g><path d="M341.27185,144.98481c1.13024,-1.22356 6.60156,-1.35562 10.26891,1.9879c3.66734,3.34352 -3.828,11.65081 -7.49535,8.30729c-3.59483,-3.2774 -4.10069,-8.85848 -2.77356,-10.29519z" fill="#f2aa58" stroke-width="0"/><path d="M343.39192,147.21962c1.67176,-1.83366 5.14014,-0.92289 7.6836,1.39601c1.54199,1.40584 -3.78938,7.60663 -5.3358,6.19676c-2.54348,-2.31888 -4.01956,-5.7591 -2.34781,-7.59277z" fill="#f3b46b" stroke-width="0"/><path d="M342.35055,146.44014c1.23064,-1.34983 2.80801,-0.99806 4.38768,-0.51843c2.02944,0.61618 4.03912,2.11753 3.56202,2.64082c-0.84847,0.93064 -8.79816,-1.19175 -7.94969,-2.12238z" fill="#f3b46b" stroke-width="0"/><path d="M346.01449,154.64008c-0.47709,0.52332 -2.1573,-1.33943 -2.95792,-3.30342c-0.62319,-1.52874 -1.63546,-3.59027 -0.72737,-4.81575c0.74977,-1.01183 4.53375,7.18854 3.68529,8.11917z" fill="#f3b46b" stroke-width="0"/><path d="M345.48729,148.77766c0.06404,0.1617 -0.09765,0.22574 -0.09765,0.22574l-0.24279,0.09568c-0.25643,0.14517 -0.50526,0.25172 -0.77456,0.31034l0.01111,0.03336l-0.18391,0.06127c-0.07783,0.02765 -0.16664,-0.00348 -0.20905,-0.07772c-0.02858,-0.05004 -0.02958,-0.1083 -0.0078,-0.15718l0.07512,-0.17362c0.14959,-0.37773 0.29426,-0.74294 0.5881,-1.03764c0.01144,-0.01148 0.08458,-0.0904 0.16839,-0.16244c-0.19244,0.042 -0.42758,0.07931 -0.47615,0.08671c-0.29671,0.04519 -0.56371,0.13312 -0.84292,0.19512l0.01164,0.03151l-0.21784,0.08047c-0.07897,0.03077 -0.17066,-0.00008 -0.21396,-0.07587c-0.03197,-0.05597 -0.02944,-0.12224 0.0009,-0.17416l0.10873,-0.19375l0.00179,0.00101l0.00159,-0.00676c0.42593,-0.63857 0.98054,-0.98541 1.63459,-1.359c0,0 0.15102,-0.08627 0.23728,0.06474c0.08626,0.15101 -0.06475,0.23728 -0.06475,0.23728c-0.51011,0.29138 -0.9598,0.55691 -1.32371,0.98953c0.44094,-0.18864 1.21263,-0.31856 1.4308,-0.24752c0.12296,0.04004 0.29078,0.09499 0.31868,0.22127c0.02276,0.103 -0.26879,0.34459 -0.35704,0.41849c-0.28493,0.23859 -0.44553,0.50693 -0.58438,0.82201c0.17471,-0.08328 0.41089,-0.13993 0.51666,-0.20093l0.26539,-0.10557c0,0 0.1617,-0.06405 0.22574,0.09765z" fill="#dea564" stroke-width="0.5"/></g><path d="M350.31938,150.46959c-0.52393,0.95965 -1.15947,2.07343 -1.99266,2.72869c-0.73725,0.43573 -1.22114,0.53079 -2.08178,0.41567c-0.17759,-0.02376 -0.47872,0.10915 -0.51939,-0.25614c-0.01305,-0.1172 0.15936,-0.17497 0.25051,-0.24976c0.10159,-0.08337 0.40662,-0.25809 0.68369,-0.37129c-0.06108,-0.01658 -0.1201,-0.03797 -0.17933,-0.0644l-0.01158,0.03107l-0.2154,-0.08026c-0.05035,-0.01814 -0.09169,-0.0592 -0.108,-0.11446c-0.02342,-0.07939 0.01245,-0.16218 0.08177,-0.20096l0.16167,-0.09512c0.1319,-0.07722 0.37425,-0.34372 0.5526,-0.34836c-0.04636,-0.01336 -0.10303,-0.03359 -0.12676,-0.05338l-0.17281,-0.09409c-0.0391,-0.02129 -0.07006,-0.05748 -0.08365,-0.10354c-0.02717,-0.09213 0.02547,-0.18883 0.11761,-0.21601l0.17793,-0.05248c0.39135,-0.11544 0.74237,-0.01086 1.10067,-0.07921c0.19961,-0.03807 -0.00753,-0.49208 0.17348,-0.58443c0.0955,-0.04873 0.19743,0.0887 0.30281,0.10833c0.05733,0.01068 0.18245,-0.53984 0.22286,-0.58066c0.10349,-0.10453 0.42825,-0.2205 0.54267,-0.1265c0.18024,-0.37555 0.4763,-1.09624 0.91837,-0.90351c0.29708,0.12952 0.38015,0.9125 0.54135,1.18174c0,0 0.0882,0.1499 -0.06171,0.2381c-0.14989,0.0882 -0.23808,-0.0617 -0.23808,-0.0617c-0.01288,-0.02219 -0.02515,-0.04464 -0.03689,-0.06729z" fill="url(#color-2)" stroke-width="0.5"/></g><path d="M381.28755,170.56801c0.03134,0.02344 0.04418,0.04955 0.04746,0.07384c0.16712,0.00409 0.33183,-0.00362 0.49094,-0.02853l0.13737,-0.0198c0.01284,-0.00216 0.02626,-0.00218 0.03982,0.00027c0.06301,0.01137 0.10487,0.07169 0.0935,0.1347c-0.00245,0.01355 -0.00715,0.02611 -0.01366,0.0374l-0.06657,0.12177l-0.02641,-0.01444c-0.21165,0.41534 -0.64979,0.70936 -0.79844,1.11252c0.09162,0.01936 0.18838,0.17283 0.16294,0.31812c-0.02867,0.16373 -0.3856,0.45375 -0.47791,0.60955c-0.2348,0.39631 -0.76579,1.16841 -0.82747,1.59738c-0.14584,0.32683 -0.30328,0.71453 -0.5126,0.99686c-0.17935,0.24192 -0.54505,0.53585 -0.59882,0.83376l-0.04216,0.01707l0.01074,0.01547l-0.10396,0.07217v0c-0.02437,0.01692 -0.05521,0.02454 -0.08672,0.01886c-0.06301,-0.01137 -0.10489,-0.07168 -0.09351,-0.1347l0.02384,-0.1321l0.0152,0.00274c0.00567,-1.00015 0.63873,-2.22499 1.12077,-3.00844c0.34443,-0.75306 0.63039,-1.50118 0.82405,-2.32671c-0.34902,-0.03195 -0.28681,-0.11298 -0.62116,-0.17332c0,0 -0.11411,-0.02059 -0.09351,-0.13469c0.02059,-0.1141 0.1347,-0.09351 0.1347,-0.09351c0.34225,0.06177 0.71122,0.13494 1.07552,0.16484l0.02375,-0.03771c0,0 0.06944,-0.09284 0.16229,-0.0234z" fill="#f2aa58" stroke="none" stroke-width="0.5" stroke-linecap="butt"/><path d="M364.02826,148.2464c-0.4122,-0.0744 -0.83146,-0.16865 -1.25235,-0.24909c-0.60347,-0.07181 -1.20801,-0.11036 -1.80405,-0.18288c-0.19252,-0.00849 -0.38859,-0.0233 -0.5789,-0.05438l-0.00327,0.01814l-0.18256,-0.03295c-0.02188,-0.00395 -0.04205,-0.01183 -0.05995,-0.02278l-0.03922,0.00073c-0.0124,0.00048 -0.02504,-0.00037 -0.03776,-0.00267c-0.04566,-0.00824 -0.08392,-0.0336 -0.10934,-0.06829c-0.06568,-0.02346 -0.12954,-0.0503 -0.19108,-0.08102c-0.01579,-0.00265 -0.03185,-0.00527 -0.04823,-0.00787l-0.03138,-0.00566l-0.01744,0.0387l-0.17101,-0.0771c-0.00112,-0.00047 -0.00222,-0.00096 -0.00333,-0.00146c-0.23467,0.0185 -0.46121,0.01539 -0.66048,-0.01972c0,0 -0.17116,-0.03088 -0.14026,-0.20205c0.03089,-0.17115 0.20205,-0.14026 0.20205,-0.14026c0.54344,0.10091 1.32756,-0.08651 1.84654,-0.25757c0.15742,-0.05188 0.32794,-0.0535 0.48719,-0.09945c0.12052,-0.03477 0.23911,-0.20369 0.34842,-0.14216c0.43081,0.24256 0.07194,0.38415 -0.0131,0.51666c-0.06096,0.09497 0.22327,0.03327 0.33433,0.05331c0.13221,0.02386 0.2644,0.04785 0.39654,0.07218c1.1432,0.01534 2.29263,0.35982 3.42264,0.63194c-0.0613,0.15169 -0.13985,0.27384 -0.21054,0.42964c-0.27339,0.03839 -0.59738,0.04865 -0.88886,0.03672c-0.197,-0.05914 -0.39418,-0.11556 -0.59458,-0.15069z" fill="#f2aa58" stroke="none" stroke-width="0.5" stroke-linecap="butt"/><path d="M343.79706,162.14598c1.73712,-9.62473 9.5611,-16.11208 19.01056,-14.40659c9.44946,1.70549 14.86479,10.73943 13.12767,20.36417c-1.73712,9.62473 -9.9689,16.19558 -19.41835,14.49009c-9.44946,-1.70549 -14.457,-10.82292 -12.71987,-20.44766z" fill="#f2aa58" stroke="none" stroke-width="0" stroke-linecap="butt"/><path d="M381.01525,170.6699c-0.85,4.70954 -4.01902,15.96967 -25.21101,12.52569c-17.20754,-4.17169 -18.10607,-15.79501 -17.25606,-20.50455c0.05334,-0.29554 42.51995,7.68584 42.46707,7.97887z" fill="#f2aa58" stroke="none" stroke-width="0" stroke-linecap="butt"/><path d="M361.70518,160.04885c-1.17717,6.52223 -3.70932,15.76625 -10.08977,14.61467c-6.38045,-1.15158 -6.82761,-6.39729 -5.65044,-12.91953c1.17717,-6.52223 6.00111,-11.81804 12.38156,-10.66646c6.38045,1.15158 4.53581,2.44908 3.35865,8.97132z" fill="#f3b46b" stroke="none" stroke-width="0" stroke-linecap="butt"/><path d="M366.47165,152.48509c6.38045,1.15158 8.87755,7.76872 7.70038,14.29096c-1.17717,6.52223 -3.71518,11.22917 -10.09563,10.07759c-6.38045,-1.15158 -5.40719,-10.67695 -4.23002,-17.19919c1.17717,-6.52223 0.24482,-8.32094 6.62527,-7.16936z" fill="#f3b46b" stroke="none" stroke-width="0" stroke-linecap="butt"/><path d="M376.07676,164.03691c0,0 -0.09832,3.68685 0.6168,4.80681c0.68149,1.06732 4.56679,1.94114 4.56679,1.94114c0,0 -1.4268,-0.25752 -5.43886,-0.98164c-1.54553,-0.27895 0.25528,-5.76632 0.25528,-5.76632z" fill="#f2aa58" stroke="none" stroke-width="0" stroke-linecap="butt"/><path d="M343.19297,163.83572c-4.01207,-0.72412 -4.6856,-1.23841 -4.6856,-1.23841c0,0 3.19236,0.79631 4.20397,0.03458c1.06152,-0.79931 2.19591,-4.37771 2.19591,-4.37771c0,0 -0.16877,5.86048 -1.71429,5.58153z" fill="#f2aa58" stroke="none" stroke-width="0" stroke-linecap="butt"/><path d="M379.55717,171.45928c0,0 -0.90085,16.57536 -22.23909,11.9228c-23.11412,-5.03977 -17.863,-19.5141 -17.863,-19.5141c0,0 4.34658,2.10873 6.68648,-2.09671c1.31965,-2.37175 27.64432,2.70034 27.98609,4.65669c0.89551,5.12607 5.42953,5.03133 5.42953,5.03133z" fill="url(#color-3)" stroke="none" stroke-width="0" stroke-linecap="butt"/><path d="M369.97414,174.94316c0.46916,-2.59944 2.95675,-4.32637 5.5562,-3.85721c2.59944,0.46916 4.32638,2.95676 3.85722,5.5562c-0.46916,2.59944 -2.95676,4.32637 -5.55621,3.85721c-2.59944,-0.46916 -4.32637,-2.95675 -3.85721,-5.5562z" fill="url(#color-4)" stroke="none" stroke-width="0" stroke-linecap="butt"/><path d="M339.40987,169.01439c0.46916,-2.59944 2.95675,-4.32637 5.5562,-3.85721c2.59944,0.46916 4.32636,2.95675 3.8572,5.55619c-0.46916,2.59944 -2.95674,4.32638 -5.55619,3.85721c-2.59944,-0.46916 -4.32637,-2.95675 -3.85721,-5.5562z" fill="url(#color-5)" stroke="none" stroke-width="0" stroke-linecap="butt"/><path d="M368.32068,178.05429c-0.25919,1.43607 -3.6324,7.38064 -6.31205,8.08761c-1.87941,0.49585 -2.9592,-1.54085 -5.14653,-1.93563c-4.43695,-0.8008 -8.53728,-1.38422 -9.32331,-3.64596c-0.15396,-0.44301 0.34843,-2.89807 0.42065,-3.29825c0.20643,-1.14375 2.51679,-4.68297 4.22738,-5.00575c1.94355,-0.36673 3.45004,2.59271 6.27219,3.10207c5.30601,0.95766 10.01679,-0.72273 9.57582,1.72054z" fill="#000000" stroke="none" stroke-width="0" stroke-linecap="butt"/><path d="M350.35777,173.38153c0.03977,-0.07328 0.57717,-0.46343 0.57717,-0.46343l-0.42738,1.47563c0.81893,-0.39619 1.62243,-0.45872 2.51884,-0.50684c2.0233,-0.10859 3.86697,0.13726 5.8523,0.49558c2.83877,0.51236 5.6143,1.17499 8.35102,2.10382c0.94666,0.3213 2.73917,-0.70837 2.41519,0.6274c-0.07108,0.29304 -0.67953,1.57007 -0.8886,1.78415c-0.30145,0.30869 -0.60279,0.88929 -0.92219,1.34595c-1.05031,-0.53377 -2.08177,-0.94442 -2.71684,0.22978c-0.19535,0.36119 -0.25733,-0.85653 -0.60686,-1.07204c-2.71557,0.00358 -5.13101,-0.49928 -7.8663,-0.99296c-0.57079,-0.10302 -1.15086,-0.36552 -1.71097,-0.4149c-0.15789,-0.01392 -1.05067,0.29458 -1.07112,0.27161c-0.97187,-1.09178 -1.69936,-1.25306 -3.33721,-1.54945c-0.08148,-0.51776 -0.57605,-1.83524 -0.67024,-1.9916c0,0 -0.46438,-0.90306 -0.10145,-1.20988z" fill="#e9e9e9" stroke="none" stroke-width="0.5" stroke-linecap="butt"/><path d="M364.13753,184.42429c-0.42233,0.17245 -0.22608,1.69901 -0.50806,2.24235c-0.16028,0.30882 -0.05177,-0.38798 -0.36728,-0.25135c-0.23866,0.10335 -0.51542,0.04374 -0.77304,0.03827c-0.79995,-0.01699 -1.65793,-0.17092 -2.44571,-0.30058c-1.05202,-0.17315 -2.16498,-0.11959 -3.20035,-0.37721c-1.37301,-0.34163 -2.81963,-1.12445 -4.0785,-1.75618c-1.65772,-0.83397 -3.34214,-1.88433 -4.58512,-3.28249c-0.22045,-0.24798 -0.92897,-0.19462 -1.01583,-0.50017c-0.31576,-1.1108 0.58898,-1.99283 1.11288,-2.79674c0.84153,0.31923 1.84491,0.59485 2.56563,1.09503c0.34339,0.23832 -0.02145,0.73678 0.17311,0.95109c0.15099,0.16632 2.48053,0.71072 2.90731,0.88474c2.54006,1.03571 4.76987,2.18619 7.44859,2.58132c0.2017,0.20185 0.15019,1.10488 0.375,1.17618c0.47603,0.15098 0.96285,-1.06419 1.31774,-0.71284c0.36867,0.36499 0.74034,0.68328 1.12901,0.97982c-0.01854,0.01024 -0.037,0.01985 -0.05538,0.02877z" fill="#e9e9e9" stroke="none" stroke-width="0.5" stroke-linecap="butt"/><path d="M338.52278,166.82752c0.03555,0.09277 0.07175,0.18138 0.10783,0.26449c0,0 0.04616,0.10636 -0.0602,0.15252c-0.10636,0.04615 -0.15252,-0.0602 -0.15252,-0.0602c-0.28957,-0.66727 -0.62059,-1.75298 -0.48491,-2.4528c-0.04939,-0.34253 0.08711,-0.74294 0.14854,-1.08326l0.02384,-0.13211c0.01137,-0.06301 0.07168,-0.10488 0.13469,-0.0935c0.00774,0.0014 0.01518,0.00354 0.02223,0.00634c0.03018,-0.14906 -0.14591,-0.8496 0.08201,-0.96555c0.06594,-0.03354 0.14102,0.04505 0.21276,0.06315c0.74222,0.18722 0.22272,0.85281 0.30246,1.36554c0.04196,0.66985 0.04485,1.54091 -0.07444,2.20189c-0.05005,0.27733 -0.02318,0.68972 -0.26226,0.73347zM338.47619,166.60744l-0.00093,0.00091c0.00016,0.00053 0.00047,0.00021 0.00093,-0.00091z" fill="#f2aa58" stroke="none" stroke-width="0.5" stroke-linecap="butt"/><g><path d="M360.96178,171.87266c-0.53001,2.93658 3.15761,5.73036 -5.47877,3.98312c-3.81601,-0.77203 -6.36613,0.0217 -5.83612,-2.91487c0.53001,-2.93658 4.32346,-7.49056 8.15488,-6.79904c3.83142,0.69151 3.69003,2.79421 3.16001,5.7308z" fill="#f3b46b" stroke="none" stroke-width="0.5" stroke-linecap="butt"/><path d="M364.80573,167.54737c3.83142,0.69151 5.79352,6.28429 5.26351,9.22087c-0.53001,2.93658 -2.66372,1.42651 -6.48688,0.69075c-7.87697,-1.51594 -4.27067,-2.7105 -3.74066,-5.64709c0.53001,-2.93658 1.13262,-4.95604 4.96404,-4.26453z" fill="#f3b46b" stroke="none" stroke-width="0.5" stroke-linecap="butt"/><path d="M366.49955,168.60712c-0.15468,0.85702 -2.67087,1.12027 -5.62004,0.58799c-2.94918,-0.53228 -5.21458,-1.65854 -5.0599,-2.51556c0.15468,-0.85702 2.67087,-1.12028 5.62005,-0.588c2.94918,0.53228 5.21457,1.65854 5.05989,2.51557z" fill="#f3b46b" stroke="none" stroke-width="0.5" stroke-linecap="butt"/><path d="M359.60699,176.37624c-0.17115,-0.03089 -0.14026,-0.20205 -0.14026,-0.20205l0.03089,-0.17115c0.15589,-0.86371 0.37244,-1.73718 0.5307,-2.61405c0.20057,-1.11127 0.45509,-2.19512 0.65427,-3.29866c0,0 0.03089,-0.17115 0.20205,-0.14026c0.17115,0.03089 0.14026,0.20205 0.14026,0.20205c-0.19923,1.10385 -0.45367,2.18725 -0.65427,3.29866c-0.15818,0.87641 -0.37494,1.75104 -0.5307,2.61405l-0.03089,0.17115c0,0 -0.03089,0.17115 -0.20205,0.14026z" fill="#eaad67" stroke="none" stroke-width="0.5" stroke-linecap="butt"/><path d="M363.88709,168.75282c-0.07033,0.38968 -0.9167,0.04742 -1.75213,0.22631c-0.94165,0.20163 -0.58625,1.22052 -1.26915,1.06153c-0.68291,-0.15899 -0.27131,-1.10256 -1.08264,-1.60907c-0.75009,-0.46827 -1.32945,-0.09211 -1.25758,-0.49031c0.14961,-0.82892 5.51111,-0.01738 5.36151,0.81153z" fill="#0e0b07" stroke="none" stroke-width="0.5" stroke-linecap="butt"/><path d="M367.38756,169.25357c-0.29541,-0.25567 -0.59451,-0.50818 -0.90978,-0.74366c0,0 -0.13926,-0.10416 -0.0351,-0.24343c0.10416,-0.13927 0.24345,-0.03511 0.24345,-0.03511c0.78573,0.58864 1.47429,1.28529 2.25443,1.8676c0.40476,0.30213 0.82761,0.5581 1.11628,0.96338c0.22837,0.77921 0.59868,1.51026 0.83031,2.31262l-0.00454,0.01932l0.00683,-0.00045l0.01243,0.18691c0.00134,0.01513 0.00071,0.03066 -0.00212,0.04632c-0.01706,0.09452 -0.10752,0.15732 -0.20205,0.14026c-0.03915,-0.00707 -0.07285,-0.02672 -0.0977,-0.05405l-0.13508,-0.14536c-0.00642,-0.00406 -0.01275,-0.00816 -0.01899,-0.01226c0.03463,0.18881 0.05196,0.40757 0.05294,0.41444c0.08955,0.62115 0.02225,1.21063 0.02936,1.8168c0.09099,0.01986 0.15065,0.10838 0.13397,0.2008l-0.04119,0.2282l-0.00614,-0.00111l-0.0383,0.08495c-0.01095,0.85814 -0.51649,1.68284 -1.21529,2.17013l-0.16164,0.11221c-0.03657,0.02539 -0.08281,0.03682 -0.13006,0.02829c-0.09452,-0.01706 -0.15732,-0.10751 -0.14025,-0.20204l0.01066,-0.05905c-0.07285,0.00556 -0.16077,-0.00749 -0.25143,-0.00147c-0.39542,0.02631 -1.44263,0.17401 -1.75817,-0.14993c-0.16608,-0.1705 -0.11924,-0.40844 -0.0689,-0.60149c0.15868,-0.60856 0.34977,-1.15798 0.46328,-1.78691c0.12456,-0.69014 0.09994,-1.37946 0.13999,-2.07387c0.04754,-0.82434 0.26296,-1.63945 0.20839,-2.46015c0.06272,-0.35233 0.20852,-1.45927 -0.11955,-1.67594l-0.13692,-0.12999c0,0 -0.106,-0.10208 -0.0291,-0.21594z" fill="#f3b46b" stroke="none" stroke-width="0.5" stroke-linecap="butt"/><g fill="none" stroke="#000000" stroke-width="0.25" stroke-linecap="round"><path d="M380.69366,175.48932c0,0 -1.95705,-1.19691 -3.50245,-1.36898c-1.94191,-0.21622 -3.67544,0.55937 -5.05313,0.27788c-1.874,-0.38288 -4.99517,-1.67749 -4.99517,-1.67749"/><path d="M374.66038,178.91552c0,0 -3.46929,1.06089 -4.63042,0.14218c-1.32196,-1.04596 -3.03393,-4.69803 -3.03393,-4.69803"/></g><path d="M354.51266,167.00405c0.03278,0.13061 -0.10186,0.18727 -0.10186,0.18727l-0.17328,0.07149c-0.38246,0.08468 -0.62808,1.14647 -0.69097,1.49008c-0.33466,0.73105 -0.41418,1.55025 -0.65433,2.3199c-0.20229,0.64835 -0.46348,1.26971 -0.58506,1.94333c-0.1108,0.61388 -0.12139,1.18189 -0.1828,1.79278c-0.01949,0.19379 -0.05775,0.42738 -0.27237,0.5258c-0.40778,0.18701 -1.33867,-0.30966 -1.70036,-0.47028c-0.08294,-0.03683 -0.16987,-0.05526 -0.23625,-0.0855l-0.0104,0.05763c-0.01665,0.09226 -0.10678,0.15323 -0.20131,0.13617c-0.04726,-0.00853 -0.08668,-0.03495 -0.11219,-0.07077l-0.11281,-0.15836c-0.48693,-0.68662 -0.6761,-1.6148 -0.38997,-2.40269l-0.00656,-0.09085l-0.00615,-0.00111l0.0402,-0.22275c0.01628,-0.0902 0.10278,-0.15048 0.19497,-0.13719c0.21607,-0.55142 0.35654,-1.11329 0.65506,-1.64993c0.00331,-0.00594 0.09511,-0.19985 0.1928,-0.36042c-0.00727,0.00158 -0.01463,0.00315 -0.02205,0.00465l-0.17685,0.08616c-0.03273,0.0164 -0.07113,0.02271 -0.11028,0.01564c-0.09452,-0.01706 -0.15765,-0.10569 -0.141,-0.19795c0.00276,-0.01528 0.00753,-0.02971 0.01401,-0.04307l0.07622,-0.16649l0.00625,0.00279l0.0024,-0.01923c0.49431,-0.65313 1.09405,-1.19321 1.57732,-1.82633c0.41064,-0.27061 0.89556,-0.35843 1.37944,-0.4947c0.93263,-0.26262 1.8189,-0.66134 2.75897,-0.92781c0,0 0.16657,-0.04707 0.21615,0.11616c0.04959,0.16323 -0.11701,0.21031 -0.11701,0.21031c-0.37696,0.10627 -0.74461,0.23367 -1.10993,0.36527z" fill="#f3b46b" stroke="none" stroke-width="0.5" stroke-linecap="butt"/><g fill="none" stroke="#000000" stroke-width="0.25" stroke-linecap="round"><path d="M354.87007,170.22547c0,0 -3.1559,0.19052 -4.92167,-0.06681c-1.29813,-0.18919 -2.56183,-1.49196 -4.33251,-1.92875c-1.40912,-0.34761 -3.514,0.13483 -3.514,0.13483"/><path d="M354.46231,171.81851c0,0 -2.69377,2.87713 -4.1933,3.4268c-1.3171,0.48281 -4.00687,-1.66144 -4.00687,-1.66144"/></g></g><g stroke="none" stroke-linecap="butt"><path d="M364.18888,186.34553c-0.90263,2.21368 -5.52788,2.42065 -10.33078,0.46227c-4.80291,-1.95838 -7.96471,-5.34052 -7.06209,-7.5542c0.43273,-1.06126 3.66038,2.86604 7.84027,4.51941c4.53897,1.79542 10.02252,1.4201 9.55261,2.57253z" fill="#f3b46b" stroke-width="0"/><path d="M353.56874,186.60634c-0.16105,-0.06567 -0.09538,-0.22671 -0.09538,-0.22671l0.02189,-0.05368c0.30683,-0.7525 0.66319,-1.47292 0.973,-2.23274c0,0 0.06566,-0.16104 0.22671,-0.09537c0.16105,0.06567 0.09538,0.2267 0.09538,0.2267c-0.30972,0.75957 -0.66638,1.48075 -0.973,2.23274l-0.02189,0.05368c0,0 -0.06567,0.16105 -0.22671,0.09538z" fill="#eaad67" stroke-width="0.5"/></g><path d="M346.02977,175.87251c0.07196,-0.3987 0.45351,-0.66359 0.85222,-0.59163c0.39871,0.07196 0.66359,0.45351 0.59163,0.85222c-0.07196,0.3987 -0.45351,0.66358 -0.85222,0.59162c-0.39871,-0.07196 -0.66359,-0.45351 -0.59163,-0.85221z" fill="url(#color-6)" stroke="none" stroke-width="0" stroke-linecap="butt"/><g fill="#000000" stroke="none" stroke-width="0.5" stroke-linecap="butt"><path d="M363.07291,161.43325c0,0 -0.17395,0.22119 -0.36381,0.03536c-0.18985,-0.18582 -0.01591,-0.40699 -0.01591,-0.40699c1.12518,-1.41466 3.13161,-1.11133 4.65534,-0.83512c-0.04103,0.10063 -0.11594,0.48494 -0.11795,0.56592c-1.33218,-0.25115 -3.21236,-0.57793 -4.15769,0.64083z"/><path d="M367.00953,160.75254c0.02643,-0.07656 0.09058,-0.46282 0.08733,-0.57145c1.52415,0.27388 3.51003,0.6911 4.06967,2.40985c0,0 0.08566,0.26803 -0.15718,0.37575c-0.24283,0.10772 -0.32849,-0.16031 -0.32849,-0.16031c-0.45963,-1.47234 -2.33542,-1.82346 -3.67135,-2.05385z"/></g><path d="M366.12809,162.13413c0.07196,-0.39871 0.45351,-0.66359 0.85222,-0.59163c0.39871,0.07196 0.66359,0.45351 0.59163,0.85222c-0.07196,0.39871 -0.45352,0.66359 -0.85222,0.59163c-0.39871,-0.07196 -0.66359,-0.45351 -0.59163,-0.85222z" fill="#000000" stroke="none" stroke-width="0" stroke-linecap="butt"/><g fill="#000000" stroke="none" stroke-width="0.5" stroke-linecap="butt"><path d="M352.06766,159.44696c0,0 -0.17395,0.22119 -0.36381,0.03536c-0.18985,-0.18582 -0.01591,-0.40699 -0.01591,-0.40699c1.12518,-1.41466 3.13161,-1.11133 4.65534,-0.83512c-0.04103,0.10063 -0.11594,0.48494 -0.11795,0.56592c-1.33218,-0.25115 -3.21236,-0.57793 -4.15769,0.64083z"/><path d="M356.00429,158.76626c0.02643,-0.07656 0.09058,-0.46282 0.08733,-0.57145c1.52415,0.27388 3.51003,0.6911 4.06967,2.40985c0,0 0.08566,0.26803 -0.15718,0.37575c-0.24283,0.10772 -0.32849,-0.16031 -0.32849,-0.16031c-0.45963,-1.47234 -2.33542,-1.82346 -3.67135,-2.05385z"/></g><path d="M355.05722,160.136c0.07196,-0.39871 0.45351,-0.66359 0.85222,-0.59163c0.39871,0.07196 0.66359,0.45351 0.59163,0.85222c-0.07196,0.39871 -0.45352,0.66359 -0.85222,0.59163c-0.39871,-0.07196 -0.66359,-0.45351 -0.59163,-0.85222z" fill="#000000" stroke="none" stroke-width="0" stroke-linecap="butt"/><text transform="translate(329.87989,205.5526) scale(0.17105,0.17105)" font-size="40" xml:space="preserve" fill="#000000" fill-rule="nonzero" stroke="none" stroke-width="1" stroke-linecap="butt" stroke-linejoin="miter" stroke-miterlimit="10" stroke-dasharray="" stroke-dashoffset="0" font-family="&quot;GovtAgentBB&quot;, Serif" font-weight="normal" text-anchor="start" style="mix-blend-mode: normal"><tspan x="0" dy="0">Mr Fluffy Bottoms</tspan></text></g></g></svg>