<svg version="1.1" xmlns="http://www.w3.org/2000/svg" xmlns:xlink="http://www.w3.org/1999/xlink" width="746" height="370.6618" viewBox="0,0,746,370.6618"><defs><linearGradient x1="-0.58709" y1="177.6721" x2="719.41291" y2="177.6721" gradientUnits="userSpaceOnUse" id="color-1"><stop offset="0" stop-color="#505050"/><stop offset="1" stop-color="#363636"/></linearGradient></defs><g transform="translate(13,2.3279)"><g stroke-width="0" stroke-miterlimit="10"><g><path d="M-13,357.6721v-360h746v360z" fill="#303030" stroke="#000000"/><path d="M-0.58709,357.6721v-360l717.56757,1l2.43243,243.5c0,0 -100.88474,-53.16936 -308.23078,-38.00881c-267.38364,19.55033 -411.76922,153.50881 -411.76922,153.50881z" fill="url(#color-1)" stroke="none"/><path d="M335.08089,209.01476l206.99945,-22.50184l136.42358,88.39624c0,0 -17.31468,33.51467 -29.87097,43.47522c-13.87649,11.00783 -49.82398,19.74457 -49.82398,19.74457z" fill="#323232" stroke="#dcdcdc"/><path d="M146.18527,246.73096l198.44804,-63.03554l306.14659,120.73817c0,0 -9.66176,22.78051 -30.00163,29.14277c-22.57273,7.0607 -99.43517,11.34475 -99.43517,11.34475z" fill="#343434" stroke="#dcdcdc"/><path d="M58.35795,312.35114l72.84168,-87.71495l505.26823,83.98276l-5.84168,59.71495z" fill="#363636" stroke="#dcdcdc"/><path d="M-4.08709,357.6721l46.39104,-55.18705l620.60896,7.12091v48.06614z" fill="#3f3f3f" stroke="#dcdcdc"/><path d="M619.91291,357.6721v-360h99.5v360z" fill="#454545" stroke="#dcdcdc"/></g></g></g></svg>