<svg version="1.1" xmlns="http://www.w3.org/2000/svg" xmlns:xlink="http://www.w3.org/1999/xlink" width="70.82007" height="91.45427" viewBox="0,0,70.82007,91.45427"><g transform="translate(-107.61742,-134.27287)"><g data-paper-data="{&quot;isPaintingLayer&quot;:true}" fill-opacity="0.51765" fill="#5de67e" fill-rule="nonzero" stroke="none" stroke-width="0" stroke-linejoin="miter" stroke-miterlimit="10" stroke-dasharray="" stroke-dashoffset="0" style="mix-blend-mode: normal"><g><g><path d="M145.0263,213.25021c-1.24429,4.53787 -8.53071,6.49519 -16.27469,4.37178c-7.74398,-2.1234 -13.01302,-7.52343 -11.76873,-12.0613c1.24429,-4.53787 8.53071,-6.49519 16.2747,-4.37179c7.74398,2.1234 13.01302,7.52343 11.76873,12.06131z" stroke-linecap="butt"/><g><g><g><path d="M119.67657,215.48654c-0.31972,-0.18177 -0.12443,-2.09341 -0.12443,-2.09341l7.29563,-12.83174c0,0 1.68008,-1.3868 1.99978,-1.20502c0.35983,0.20459 0.05307,2.37221 0.05307,2.37221l-7.29562,12.83175c0,0 -1.56861,1.13082 -1.92844,0.92623z" stroke-linecap="butt"/><path d="M121.46109,214.39199l-1.93577,-0.88769" stroke-linecap="round"/><path d="M126.93162,200.68226l1.66864,0.94872" stroke-linecap="round"/><path d="M123.31812,207.03779l2.53039,-0.15816" stroke-linecap="round"/><path d="M126.16682,203.86694c0.1455,0.08272 0.21228,0.23985 0.14911,0.35092c-0.06316,0.11107 -0.23231,0.13405 -0.37782,0.05132c-0.14551,-0.08273 -0.21229,-0.23985 -0.14912,-0.35093c0.06315,-0.11107 0.23231,-0.13405 0.37783,-0.05132z" stroke-linecap="butt"/><path d="M122.64117,210.27241c0.14551,0.08273 0.21228,0.23985 0.14912,0.35093c-0.06316,0.11107 -0.23231,0.13406 -0.37782,0.05132c-0.14551,-0.08272 -0.21228,-0.23984 -0.14912,-0.35092c0.06315,-0.11107 0.23231,-0.13406 0.37782,-0.05133z" stroke-linecap="butt"/></g><g><path d="M128.87355,209.32735l0.46801,-1.70682c0,0 0.60258,-0.43225 1.7798,-0.10946c1.30897,0.35892 1.79261,1.08901 1.79261,1.08901l-0.46801,1.70682z" stroke-linecap="butt"/><g><path d="M128.21481,218.79311c-0.39973,-0.10744 -0.72044,-2.01438 -0.72044,-2.01438l3.83146,-14.25482c0,0 1.30559,-1.7573 1.70533,-1.64986c0.35517,0.09546 0.5752,2.26283 0.5752,2.26283l-3.83145,14.25482c0,0 -1.20492,1.49688 -1.5601,1.40141z" stroke-linecap="butt"/><path d="M129.71587,217.48964l-2.00078,-0.72943" stroke-linecap="round"/><path d="M131.60809,202.66567l1.85369,0.49824" stroke-linecap="round"/><path d="M129.87558,208.33303l1.68848,1.89126" stroke-linecap="round"/><path d="M131.76698,205.96656c0.16165,0.04344 0.26581,0.17871 0.23263,0.3021c-0.03316,0.1234 -0.1911,0.1882 -0.35275,0.14476c-0.16164,-0.04345 -0.26579,-0.1787 -0.23263,-0.3021c0.03316,-0.1234 0.19109,-0.1882 0.35274,-0.14476z" stroke-linecap="butt"/><path d="M129.7717,213.00071c0.16165,0.04344 0.26581,0.17871 0.23263,0.3021c-0.03316,0.1234 -0.1911,0.1882 -0.35274,0.14476c-0.16165,-0.04344 -0.2658,-0.17869 -0.23263,-0.30209c0.03316,-0.1234 0.19109,-0.18821 0.35274,-0.14477z" stroke-linecap="butt"/></g><path d="M129.33651,208.72876l0.12806,-1.24522c0,0 0.62579,0.38497 1.53332,0.63381c0.75526,0.20709 1.84062,0.29132 1.84062,0.29132l-0.52498,1.13639z" stroke-linecap="butt"/><path d="M128.43734,210.804l0.86761,-3.16413c0,0 0.46506,0.60862 1.51041,0.89525c1.17876,0.32322 2.12026,0.10028 2.12026,0.10028l-0.9073,3.15325c0,0 -1.4532,-0.18895 -2.07625,-0.3598c-0.56904,-0.15603 -1.51471,-0.62485 -1.51471,-0.62485z" stroke-linecap="butt"/></g><g><path d="M137.52304,218.92902c-0.41386,-0.00756 -1.18631,-1.78029 -1.18631,-1.78029l0.26958,-14.75829c0,0 0.84174,-2.02093 1.2556,-2.01337c0.36771,0.00671 1.10548,2.05649 1.10548,2.05649l-0.26957,14.75829c0,0 -0.80706,1.74389 -1.17478,1.73717z" stroke-linecap="butt"/><path d="M136.54642,217.07734l2.11781,0.2238" stroke-linecap="round"/><path d="M136.91448,202.4597l1.91916,0.03506" stroke-linecap="round"/><path d="M136.6043,208.37783l2.09583,1.42667" stroke-linecap="round"/><path d="M137.8671,205.62411c0.16736,0.00306 0.30114,0.10911 0.29881,0.23686c-0.00233,0.12775 -0.1399,0.22884 -0.30726,0.22579c-0.16736,-0.00306 -0.30113,-0.10911 -0.2988,-0.23686c0.00233,-0.12775 0.1399,-0.22884 0.30725,-0.22578z" stroke-linecap="butt"/><path d="M137.63258,212.93201c0.16736,0.00306 0.30113,0.10911 0.2988,0.23685c-0.00233,0.12775 -0.13989,0.22884 -0.30725,0.22578c-0.16736,-0.00306 -0.30112,-0.1091 -0.2988,-0.23685c0.00233,-0.12775 0.13989,-0.22884 0.30726,-0.22579z" stroke-linecap="butt"/></g><path d="M118.75546,211.70784l5.48552,-20.0055l21.84274,5.98929l-5.48552,20.0055z" stroke-linecap="butt"/><g><g><g><g><g stroke-linecap="butt"><path d="M151.58648,211.96867c-0.93217,3.30364 -3.46472,7.07852 -7.12321,9.85959c-4.23726,3.22104 -10.05456,5.08984 -17.75735,3.04438c-0.99756,-0.26488 -0.71736,0.96494 -1.60746,0.60931c-0.44134,-0.17634 -2.09286,-1.90577 -2.50841,-2.10256c-0.43262,-0.20489 -0.1764,1.52044 -0.5815,1.29474c-0.54631,-0.30438 -1.74279,-2.56804 -2.24004,-2.90734c-2.26033,-1.54232 -4.01971,-3.42789 -5.33134,-5.49747c-3.33342,-5.25971 -3.34765,-11.39866 -2.62548,-14.70567c5.94163,-23.23855 45.21973,-8.89221 39.77478,10.40504zM128.85758,215.9488c2.87928,0.7895 14.74477,-0.54322 15.53427,-3.42251c0.75739,-2.76218 -5.81156,-9.53161 -14.17052,-11.82364c-7.16815,-1.96551 -11.41383,4.27116 -12.17123,7.03336c-0.75739,2.76218 8.04528,7.4554 10.80747,8.21279z"/><path d="M148.40338,209.48552c-1.03491,3.77429 -3.03609,9.08807 -8.2967,11.33723c-2.91473,1.24618 -6.7063,1.5855 -12.18275,0.1202c-6.47535,-1.73269 -9.744,-4.79182 -11.4181,-8.12071c-2.18769,-4.35014 -1.52596,-9.12631 -0.45801,-11.65394c0.5683,-1.44825 4.3525,-4.38257 16.27157,-0.91491c13.93281,3.723 16.41108,8.03918 16.08398,9.23212zM128.77307,214.38923c4.4975,1.17297 11.09473,2.22233 12.37095,-2.62546c1.27623,-4.84779 -4.24773,-7.72628 -9.29014,-9.07707c-5.04242,-1.3508 -9.82134,-0.7793 -10.98617,3.64534c-1.16483,4.42464 3.40786,6.88422 7.90536,8.05719z"/></g><g><path d="M116.9544,207.26571c0,0 0.45724,0.11687 0.65407,0.1004c0.27965,-0.0234 0.44108,0.12603 0.57007,0.3882c0.41974,0.85301 1.50155,3.00371 3.49087,4.94914c1.73214,1.69393 4.81682,3.59017 7.33585,4.17089c2.63933,0.63209 5.63838,0.6812 8.16994,0.13293c2.82886,-0.61264 4.9216,-1.90013 5.73744,-2.46219c0.27877,-0.19205 0.52152,-0.18514 0.79928,-0.02026c0.17774,0.10551 0.57765,0.3429 0.57765,0.3429c0,0 -1.83289,1.57994 -4.76357,2.68167c-2.94599,1.10749 -7.00005,1.7341 -10.95765,0.68907c-8.72784,-2.30464 -11.61393,-10.97275 -11.61393,-10.97275z" stroke-linecap="butt"/><path d="M116.6224,208.10928c0,0 0.03643,-0.13286 0.15859,-0.57839c0.10426,-0.38023 0.43074,-0.27548 0.56054,0.08306c0.43417,1.19938 1.395,3.2993 3.299,5.31234c1.76706,1.86827 4.67253,3.61362 7.77095,4.63535c3.56946,0.93797 7.1767,0.81942 9.81764,0.08716c2.52223,-0.69933 4.34205,-1.8522 5.35143,-2.61769c0.32801,-0.24876 0.80737,-0.37336 0.6944,0.03863c-0.12365,0.45096 -0.18658,0.68045 -0.18658,0.68045c0,0 -1.08459,2.27359 -4.04744,3.51713c-2.7765,1.16531 -7.25669,1.35771 -12.47,-0.09578c-3.78678,-1.05577 -6.9458,-3.21347 -8.59325,-5.20936c-2.47381,-2.99701 -2.35526,-5.85291 -2.35526,-5.85291z" stroke-linecap="butt"/><path d="M117.78616,211.39145l0.24921,-1.04129" stroke-linecap="round"/><path d="M120.01003,213.11475l-0.24921,1.04129" stroke-linecap="round"/><path d="M122.7067,215.33236l-0.24921,1.04129" stroke-linecap="round"/><path d="M125.90345,217.11679l-0.24921,1.04129" stroke-linecap="round"/><path d="M129.82818,218.33262l-0.24921,1.04129" stroke-linecap="round"/><path d="M133.85337,219.77777l0.24921,-1.04129" stroke-linecap="round"/><path d="M137.87076,218.437l-0.24921,1.04129" stroke-linecap="round"/><path d="M141.64319,216.96311l-0.2492,1.04129" stroke-linecap="round"/></g></g><path d="M114.71503,202.90514c-0.30914,1.12742 -1.19951,1.86596 -1.98871,1.64956c-0.78919,-0.2164 -1.17836,-1.30578 -0.86922,-2.4332c0.30914,-1.12742 1.19952,-1.86595 1.98871,-1.64956c0.78919,0.2164 1.17835,1.30578 0.86921,2.4332z" stroke-linecap="butt"/><path d="M123.02292,196.42019c-0.25427,0.9273 -1.22812,1.46852 -2.17515,1.20884c-0.94704,-0.25968 -1.50863,-1.22191 -1.25436,-2.14922c0.25427,-0.9273 1.22811,-1.46852 2.17515,-1.20884c0.94704,0.25968 1.50863,1.22191 1.25436,2.14922z" stroke-linecap="butt"/><path d="M118.08258,197.90788c-0.24345,0.88784 -1.03259,1.44532 -1.76259,1.24515c-0.73001,-0.20017 -1.12444,-1.08217 -0.88099,-1.97002c0.24345,-0.88784 1.0326,-1.44532 1.76259,-1.24516c0.73001,0.20017 1.12444,1.08218 0.88099,1.97003z" stroke-linecap="butt"/><path d="M114.88929,200.02826c-0.11361,0.41433 -0.52559,0.66249 -0.92019,0.55429c-0.39459,-0.1082 -0.62238,-0.53179 -0.50878,-0.94612c0.11361,-0.41433 0.52559,-0.6625 0.92019,-0.5543c0.39459,0.1082 0.62238,0.53179 0.50877,0.94612z" stroke-linecap="butt"/><path d="M115.06389,198.27088c-0.06492,0.23676 -0.2455,0.39361 -0.40334,0.35033c-0.15783,-0.04328 -0.23316,-0.27029 -0.16824,-0.50706c0.06492,-0.23676 0.2455,-0.39361 0.40334,-0.35033c0.15783,0.04328 0.23316,0.27029 0.16824,0.50706z" stroke-linecap="butt"/><path d="M121.07117,219.50721c-0.15148,0.55243 -0.64215,0.8994 -1.09593,0.77497c-0.45379,-0.12443 -0.69886,-0.67313 -0.54738,-1.22557c0.15148,-0.55243 0.64214,-0.8994 1.09593,-0.77497c0.45379,0.12443 0.69886,0.67314 0.54738,1.22557z" stroke-linecap="butt"/><path d="M120.6131,219.49681c-0.18935,0.69055 -0.87066,1.10562 -1.52175,0.92709c-0.65109,-0.17853 -1.0254,-0.88305 -0.83605,-1.5736c0.18935,-0.69055 0.87065,-1.10562 1.52174,-0.92709c0.65109,0.17853 1.0254,0.88305 0.83605,1.5736z" stroke-linecap="butt"/><path d="M118.95828,217.9676c-0.13525,0.49325 -0.53278,0.81417 -0.88792,0.71679c-0.35513,-0.09738 -0.53339,-0.57617 -0.39814,-1.06943c0.13525,-0.49325 0.53279,-0.81416 0.88792,-0.71678c0.35513,0.09738 0.53339,0.57617 0.39814,1.06942z" stroke-linecap="butt"/><path d="M122.40393,220.56401c-0.17312,0.63137 -0.76324,1.01984 -1.31806,0.86771c-0.55483,-0.15213 -0.86427,-0.78727 -0.69115,-1.41863c0.17312,-0.63137 0.76324,-1.01984 1.31806,-0.86771c0.55483,0.15213 0.86426,0.78728 0.69114,1.41864z" stroke-linecap="butt"/><path d="M118.57048,218.82152c-0.0541,0.1973 -0.35386,0.28707 -0.66954,0.20051c-0.31568,-0.08656 -0.52772,-0.31667 -0.47363,-0.51397c0.0541,-0.1973 0.35387,-0.28707 0.66954,-0.20052c0.31568,0.08656 0.52772,0.31668 0.47363,0.51397z" stroke-linecap="butt"/><path d="M117.75463,216.7541c-0.02164,0.07892 -0.15115,0.1122 -0.28925,0.07433c-0.13811,-0.03787 -0.23252,-0.13254 -0.21088,-0.21147c0.02164,-0.07892 0.15114,-0.1122 0.28925,-0.07433c0.13811,0.03787 0.23253,0.13254 0.21089,0.21147z" stroke-linecap="butt"/><path d="M122.81877,222.09895c-0.03787,0.13811 -0.16454,0.22375 -0.28291,0.19129c-0.11837,-0.03246 -0.18364,-0.17073 -0.14577,-0.30884c0.03787,-0.13811 0.16454,-0.22376 0.28291,-0.1913c0.11837,0.03246 0.18364,0.17074 0.14577,0.30884z" stroke-linecap="butt"/><path d="M150.80764,212.75784c-0.18394,0.67081 -0.87686,1.06551 -1.54767,0.88157c-0.67082,-0.18394 -1.06551,-0.87685 -0.88157,-1.54767c0.18394,-0.67081 0.87685,-1.06551 1.54767,-0.88157c0.67082,0.18394 1.06551,0.87685 0.88157,1.54767z" stroke-linecap="butt"/><path d="M149.42014,215.29657c-0.22722,0.82866 -0.93922,1.35569 -1.59031,1.17716c-0.65109,-0.17853 -0.9947,-0.99501 -0.76749,-1.82367c0.22722,-0.82866 0.93923,-1.35569 1.59031,-1.17716c0.65109,0.17853 0.9947,0.99501 0.76748,1.82367z" stroke-linecap="butt"/><path d="M149.64948,213.89986c-0.19476,0.71028 -0.78449,1.16766 -1.31719,1.02159c-0.53271,-0.14607 -0.80666,-0.84027 -0.6119,-1.55055c0.19476,-0.71028 0.78448,-1.16766 1.31719,-1.02159c0.53271,0.14607 0.80666,0.84027 0.61191,1.55055z" stroke-linecap="butt"/><path d="M147.72554,216.71399c-0.09197,0.33541 -0.43843,0.53275 -0.77383,0.44078c-0.33541,-0.09197 -0.53275,-0.43843 -0.44078,-0.77383c0.09197,-0.33541 0.43843,-0.53275 0.77383,-0.44078c0.33541,0.09197 0.53275,0.43843 0.44078,0.77383z" stroke-linecap="butt"/><path d="M147.6662,214.96927c-0.03246,0.11837 -0.20272,0.17487 -0.38028,0.12618c-0.17757,-0.04869 -0.2952,-0.18413 -0.26275,-0.3025c0.03246,-0.11837 0.20272,-0.17487 0.38029,-0.12618c0.17757,0.04869 0.2952,0.18413 0.26274,0.3025z" stroke-linecap="butt"/><path d="M148.61518,217.11158c-0.02705,0.09865 -0.12895,0.1567 -0.2276,0.12965c-0.09865,-0.02705 -0.1567,-0.12895 -0.12965,-0.22761c0.02705,-0.09865 0.12895,-0.15669 0.2276,-0.12964c0.09865,0.02705 0.15669,0.12895 0.12964,0.2276z" stroke-linecap="butt"/><path d="M137.98318,223.10739c-0.03787,0.13811 -0.19652,0.21498 -0.35436,0.1717c-0.15783,-0.04328 -0.25509,-0.19032 -0.21722,-0.32843c0.03787,-0.13811 0.19652,-0.21498 0.35436,-0.17171c0.15783,0.04328 0.25509,0.19033 0.21722,0.32843z" stroke-linecap="butt"/><path d="M139.11367,223.18692c-0.02705,0.09865 -0.14495,0.15231 -0.26332,0.11985c-0.11837,-0.03246 -0.19242,-0.13874 -0.16537,-0.23739c0.02705,-0.09865 0.14495,-0.15231 0.26332,-0.11985c0.11837,0.03246 0.19241,0.13875 0.16536,0.2374z" stroke-linecap="butt"/></g><path d="M136.53866,223.05362l-0.14718,0.89165c0,0 -0.20162,-0.57987 -0.49124,-0.39489c-0.23013,0.14698 -0.49912,1.32091 -0.49912,1.32091c0,0 -0.17731,-1.11197 -0.44669,-0.99156c-0.12721,0.05687 -0.77327,1.31435 -0.77327,1.31435l-0.51105,-1.08254" stroke-linecap="round"/></g><path d="M112.74,199.92445c1.23143,-3.17956 4.47248,-0.50702 4.47248,-0.50702c0,0 -1.23916,0.28083 -2.14082,3.56915c-0.27457,1.00134 -0.43468,2.97196 -0.28437,4.71918c0.0794,0.92303 0.21005,2.30403 0.54388,3.22742c0.27087,0.74924 0.74361,1.52711 0.81348,2.16147c0.21625,1.96379 -0.57312,2.75355 -1.42352,2.52038c-0.70964,-0.19458 -1.76486,-2.33698 -2.3396,-4.78852c-0.62938,-2.68462 -0.73733,-5.75497 -0.51036,-7.40772c0.18042,-1.31383 0.46411,-2.44932 0.86884,-3.49435z" stroke-linecap="butt"/><path d="M151.73073,209.62262c-0.20008,1.11831 -0.53731,2.25713 -1.04094,3.50257c-0.63355,1.56672 -2.217,4.21843 -4.01218,6.27553c-1.63932,1.8785 -5.9023,4.55334 -6.5421,4.3779c-0.76671,-0.21023 -0.43795,-1.26927 0.68783,-2.89336c0.15166,-0.21878 0.95766,-0.52744 1.63521,-1.01994c0.9472,-0.68849 1.84988,-1.59817 2.18458,-1.90574c0.70755,-0.65019 1.20107,-1.7093 1.71314,-2.48353c0.9693,-1.46554 1.80953,-3.27959 2.08817,-4.2958c0.28472,-1.03838 0.28485,-1.81053 0.2593,-2.35161c-0.05657,-1.19782 -0.50514,-1.50689 -0.50514,-1.50689c0,0 4.14091,-1.10166 3.53214,2.30085z" stroke-linecap="butt"/></g></g><g><path d="M146.03964,212.81585c-0.08853,0.32285 -0.61854,0.5986 -1.30011,0.41171c-0.68157,-0.18689 -1.14453,-0.66507 -1.056,-0.98792c0.08853,-0.32285 0.71282,-0.43307 1.39439,-0.24619c0.68157,0.18689 1.05024,0.49954 0.96172,0.82239z" stroke-linecap="butt"/><g><path d="M144.8818,204.51872l0.24408,-1.75291c0,0 0.35627,-0.53217 1.08004,-0.43139c0.80477,0.11206 1.11633,0.73722 1.11633,0.73722l-0.24409,1.75291z" stroke-linecap="butt"/><g><path d="M144.22006,212.05029l1.99154,-14.62566l1.40181,0.18315l-1.99153,14.62566c0,0 -0.00015,0.57225 -0.75078,0.46955c-0.81738,-0.11182 -0.65103,-0.65271 -0.65103,-0.65271z" stroke-linecap="butt"/><path d="M145.58829,212.33988l-1.2344,-0.34794" stroke-linecap="round"/><path d="M145.46762,203.36459l1.07208,1.54" stroke-linecap="round"/><path d="M146.56185,200.70769c0.09937,0.01298 0.16593,0.12615 0.14869,0.25276c-0.01724,0.12661 -0.11178,0.21872 -0.21114,0.20574c-0.09937,-0.01299 -0.16592,-0.12614 -0.14869,-0.25275c0.01723,-0.1266 0.11177,-0.21872 0.21112,-0.20574z" stroke-linecap="butt"/><path d="M145.51546,207.94394c0.09937,0.01298 0.16594,0.12615 0.1487,0.25275c-0.01724,0.12661 -0.11177,0.21872 -0.21113,0.20573c-0.09937,-0.01298 -0.16592,-0.12614 -0.14869,-0.25275c0.01724,-0.12661 0.11176,-0.21873 0.21112,-0.20574z" stroke-linecap="butt"/></g><path d="M145.14913,203.84948l0.04827,-1.23995c0,0 0.38982,0.26206 0.94778,0.33974c0.46435,0.06465 1.12657,-0.05091 1.12657,-0.05091l-0.29232,1.20596z" stroke-linecap="butt"/><path d="M144.65158,206.04094l0.45249,-3.24958c0,0 0.29737,0.50986 0.94006,0.59935c0.72472,0.10091 1.29212,-0.28853 1.29212,-0.28853l-0.4769,3.24618c0,0 -0.88846,0.0803 -1.27152,0.02694c-0.34985,-0.04871 -0.93625,-0.33437 -0.93625,-0.33437z" stroke-linecap="butt"/></g></g><g><path d="M117.57369,204.63743c0.68157,0.18689 1.16234,0.60011 1.07381,0.92297c-0.08853,0.32285 -0.73063,0.49803 -1.4122,0.31114c-0.68157,-0.18689 -0.99682,-0.6944 -0.9083,-1.01726c0.08853,-0.32285 0.56511,-0.40374 1.24669,-0.21685z" stroke-linecap="butt"/><g><path d="M119.50971,197.45091l0.68412,-1.63226c0,0 0.58685,-0.37881 1.33622,-0.06473c0.67395,0.28247 0.70895,0.92193 0.70895,0.92193l-0.68412,1.63225z" stroke-linecap="butt"/><g><path d="M117.38967,205.35322c-0.69804,-0.29454 -0.40629,-0.78682 -0.40629,-0.78682l5.74686,-13.59595l1.29916,0.55745l-5.74684,13.59595c0,0 -0.1328,0.55009 -0.8929,0.22937z" stroke-linecap="butt"/><path d="M116.95802,204.6751l1.23923,0.33033" stroke-linecap="round"/><path d="M119.93206,197.79442l1.70763,-0.77781" stroke-linecap="round"/><path d="M122.05362,194.1732c0.0921,0.03951 0.12641,0.16695 0.07666,0.28463c-0.04975,0.11769 -0.16472,0.18107 -0.25681,0.14156c-0.09209,-0.03951 -0.12642,-0.16696 -0.07667,-0.28466c0.04975,-0.1177 0.16472,-0.18108 0.25682,-0.14157z" stroke-linecap="butt"/><path d="M119.26278,200.93107c0.09209,0.03951 0.12641,0.16695 0.07666,0.28465c-0.04976,0.1177 -0.16472,0.18108 -0.25681,0.14156c-0.0921,-0.03951 -0.12641,-0.16695 -0.07666,-0.28465c0.04974,-0.11768 0.16472,-0.18107 0.25681,-0.14155z" stroke-linecap="butt"/></g><path d="M119.96197,196.88179l0.36367,-1.18639c0,0 0.51066,0.43717 0.94305,0.61839c0.51955,0.21777 0.98851,0.19119 0.98851,0.19119l-0.59092,1.09114z" stroke-linecap="butt"/><path d="M120.00062,199.54495c-0.35669,-0.14951 -1.07995,-0.67172 -1.07995,-0.67172l1.24553,-3.03542c0,0 0.2894,0.62438 0.96424,0.90722c0.59846,0.25082 1.11429,-0.03604 1.11429,-0.03604l-1.26825,3.02589c0,0 -0.65009,-0.05338 -0.97585,-0.18993z" stroke-linecap="butt"/></g></g></g></g><g><g stroke-linecap="butt"><path d="M149.93437,181.59981c-1.04784,-1.8319 2.09662,-3.54559 5.39689,-5.78594c1.47558,-1.00169 3.15145,-2.27743 4.05883,-3.50825c0.27516,-0.37325 -0.48512,-3.3398 0.29847,-3.99699c0.94659,-0.79389 1.33462,2.87764 1.56316,2.708c1.50415,-1.11648 3.14289,-2.38644 4.48893,-3.91521c0.76489,-0.86872 -2.01683,-2.03335 -3.70168,-5.90469c-1.23035,-2.82703 -2.02603,-4.31028 -1.89541,-5.69069c0.04527,-0.47836 0.25102,-0.8086 0.28695,-0.32944c0.17657,2.35402 1.30193,3.4301 2.48548,5.49047c1.13676,1.97891 5.86578,4.66288 7.69615,2.10817c1.55987,-2.17717 2.65596,-4.33586 3.65185,-6.20463c0.29479,-0.55318 -1.89851,-5.35822 -1.42178,-5.66087c0.84356,-0.53551 1.60488,1.31965 2.25576,2.15688c0.2941,0.37831 0.78576,0.30346 0.8682,0.13438c1.11401,-2.28503 1.75048,-3.6178 2.21724,-3.23393c0.19998,0.16447 0.33382,0.14726 0.20054,1.09142c-0.58115,4.11685 -2.49222,11.3169 -8.14657,18.50185c-1.29554,1.64623 -2.75047,3.05566 -4.23476,4.26002c-0.14975,0.12151 0.35266,2.71796 1.61367,3.62894c0.4183,0.30219 1.04531,0.34582 1.7838,0.23041c0.30671,-0.04793 0.70032,-1.11453 1.55006,-2.15528c0.98721,-1.20911 1.24884,-1.65369 1.66395,-1.80848c0.3032,-0.11306 -0.64097,1.4105 -0.95963,2.43659c-0.23749,0.76475 1.30222,0.35263 1.52636,0.25572c2.29735,-0.99328 4.33649,-2.04829 4.2198,-1.22312c-0.15665,1.10768 -3.83543,3.91225 -6.48436,5.02526c-1.6268,0.68355 -3.93452,0.67097 -4.74284,0.5023c-3.22018,-0.67194 -3.96251,-4.2316 -4.15637,-4.12943c-0.89253,0.47047 -1.45881,1.44474 -2.48315,1.95621c-2.01137,1.0043 -8.0959,5.68916 -9.59959,3.06032z"/><path d="M165.44685,169.78648c0.09281,0.16029 -0.06748,0.25309 -0.06748,0.25309l-0.25373,0.14595c-1.70146,1.40833 -3.53878,3.01107 -5.19671,4.59246c-1.54599,1.339 -3.39183,1.80522 -5.06879,2.80376c0,0 -0.16094,0.09168 -0.25261,-0.06927c-0.09167,-0.16094 0.06926,-0.25261 0.06926,-0.25261c1.69683,-0.93423 3.48074,-1.4297 5.00276,-2.7558c1.68897,-1.61188 3.55597,-3.11733 5.23085,-4.62002l0.28336,-0.16503c0,0 0.16028,-0.09281 0.25308,0.06748z"/><path d="M175.19024,158.57519c0.17863,0.04898 0.12964,0.2276 0.12964,0.2276l-0.05597,0.20413c-0.31327,1.14247 -0.86084,1.83926 -1.64096,2.70874c0,0 -0.04295,0.04788 -0.10644,0.06188c-0.12977,0.47327 -0.28575,1.04213 -0.40267,1.46851c-0.63389,2.31179 -3.31329,3.89691 -4.78088,5.71c-1.05419,0.62067 -1.65334,1.97183 -2.36596,2.9217c-0.69914,0.93191 -1.75537,1.54968 -2.41754,2.47251c-1.63714,1.12875 -2.7604,2.39857 -4.78068,2.80277c0,0 -0.18166,0.03607 -0.21774,-0.1456c-0.03608,-0.18167 0.14559,-0.21774 0.14559,-0.21774c1.9462,-0.38325 3.00888,-1.6308 4.59335,-2.70379c0.64215,-0.91165 1.69538,-1.51332 2.3805,-2.43017c0.71888,-0.96202 1.34296,-2.3679 2.42059,-2.98022c1.39396,-1.78525 4.05053,-3.28456 4.66552,-5.5274c0.13994,-0.51035 0.27987,-1.02068 0.41981,-1.53104l0.05597,-0.20413c0,0 0.04897,-0.17863 0.2276,-0.12965c0.01456,0.00399 0.0276,0.00884 0.03927,0.01439c0.66274,-0.74995 1.12971,-1.37594 1.40741,-2.38871l0.05597,-0.20413c0,0 0.04898,-0.17863 0.22761,-0.12965z"/><path d="M171.86075,162.94032c0.15306,0.10429 0.04879,0.25735 0.04879,0.25735l-0.13722,0.19787c-0.66621,0.53965 -1.15424,1.26214 -1.82934,1.80501c-0.91423,0.52556 -1.53499,1.48166 -2.48379,2.0154c-0.68486,0.38526 -1.68698,0.70639 -2.18126,1.32019c0,0 -0.12368,0.13785 -0.26155,0.01416c-0.13786,-0.12369 -0.01417,-0.26155 -0.01417,-0.26155c1.05711,-1.10456 3.35179,-2.59777 4.73144,-3.39381c0.65054,-0.5263 1.12038,-1.23084 1.76633,-1.7505l0.10342,-0.15534c0,0 0.10429,-0.15307 0.25735,-0.04878z"/><path d="M161.96363,161.28612c0.04898,-0.17863 0.2276,-0.12964 0.2276,-0.12964l0.32762,0.16706c0.05639,0.16748 0.21997,0.29051 0.37566,0.37411c0.85399,1.10732 4.07262,2.21987 3.67207,3.81367c0,0 -0.04897,0.17863 -0.2276,0.12965c-0.17863,-0.04898 -0.12965,-0.22761 -0.12965,-0.22761c0.36258,-1.18161 -2.89734,-2.54869 -3.55832,-3.43656c-0.20257,-0.11871 -0.38475,-0.30232 -0.47711,-0.51818l-0.08066,0.05511c0,0 -0.17862,-0.04898 -0.12964,-0.2276z"/><path d="M173.9992,153.08713c0.12369,-0.13785 0.26155,-0.01416 0.26155,-0.01416l0.16607,0.14962c1.27042,0.86165 2.89098,0.29501 2.31299,2.40293c-0.4593,1.67504 -2.37616,3.32099 -3.77008,4.404c0,0 -0.14636,0.11351 -0.25986,-0.03284c-0.11351,-0.14636 0.03284,-0.25986 0.03284,-0.25986c1.3269,-1.02718 3.20476,-2.62242 3.63987,-4.20925c0.4915,-1.79248 -1.02482,-1.24655 -2.18296,-2.01241l-0.18624,-0.16646c0,0 -0.13786,-0.12368 -0.01416,-0.26155z"/><path d="M174.24608,154.2316c0.13983,-0.12145 0.26129,0.01838 0.26129,0.01838l0.00733,0.00844c0.50244,0.58404 0.97341,1.09913 0.31336,1.86158c0,0 -0.12368,0.13786 -0.26155,0.01417c-0.13786,-0.12369 -0.01417,-0.26155 -0.01417,-0.26155c0.55226,-0.58479 0.04942,-0.9526 -0.31731,-1.3713l-0.00732,-0.00844c0,0 -0.12145,-0.13983 0.01838,-0.26129z"/><path d="M174.54272,177.24601c-0.04898,0.17863 -0.2276,0.12965 -0.2276,0.12965l-0.07728,-0.02298c-0.06152,-0.00907 -0.12386,-0.01678 -0.18693,-0.02323c0.00983,0.02969 0.0118,0.06621 -0.00043,0.11082c-0.03726,0.13587 -0.14955,0.14006 -0.20114,0.13427c-1.31378,1.86569 -3.77548,3.01244 -5.74072,1.25259c-0.95762,-1.26336 -2.42651,-2.87542 -3.62073,-3.94689c0,0 -0.13786,-0.12368 -0.01417,-0.26155c0.12369,-0.13786 0.26155,-0.01416 0.26155,-0.01416c1.20412,1.08034 2.68115,2.69901 3.64588,3.97173c1.80288,1.62187 4.05002,0.42445 5.20536,-1.27238c-1.08984,-0.01373 -2.32782,0.26436 -3.3547,0.46827c0,0 -0.18167,0.03607 -0.21775,-0.1456c-0.03608,-0.18166 0.14559,-0.21775 0.14559,-0.21775c1.30238,-0.25862 2.83152,-0.57837 4.12656,-0.42338l0.12687,0.03299c0,0 0.17862,0.04898 0.12964,0.2276z"/><path d="M167.29619,179.18591c-0.12369,0.13786 -0.26155,0.01416 -0.26155,0.01416l-0.16606,-0.14961c-1.31273,-0.87747 -1.93194,-2.1313 -2.88085,-3.22191c0,0 -0.12145,-0.13983 0.01839,-0.26128c0.13983,-0.12145 0.26128,0.01838 0.26128,0.01838c0.93908,1.08318 1.53392,2.30644 2.82839,3.17226l0.18624,0.16646c0,0 0.13786,0.12368 0.01418,0.26155z"/><path d="M159.8478,170.00806c0.16094,-0.09167 0.25261,0.06926 0.25261,0.06926l0.07408,0.13006c0.2054,0.39481 0.20556,0.84119 -0.07082,1.18996c0,0 -0.12369,0.13786 -0.26156,0.01416c-0.13786,-0.12368 -0.01416,-0.26155 -0.01416,-0.26155c0.17803,-0.15398 0.15621,-0.5582 0.02467,-0.75923l-0.07408,-0.13005c0,0 -0.09167,-0.16094 0.06927,-0.25262z"/></g><g stroke-linecap="butt"><path d="M134.17861,162.08273c-2.10513,3.05317 -4.80848,7.4176 -6.52733,8.23066c-0.95179,0.45021 -0.64516,-1.09659 -0.98405,-1.3602c-0.83068,-0.64618 1.75317,-2.65368 4.60025,-6.31338c0.1845,-0.23716 -2.43714,-3.72259 -1.06249,-5.10251c0.26235,-0.26336 0.61383,2.09235 1.30371,3.09773c0.38112,0.55543 0.92066,0.42896 1.00193,0.3111c1.40689,-2.04048 2.50712,-4.0344 3.30423,-5.6443c0.15438,-0.3118 -1.71699,-2.49531 -0.73742,-3.17273c0.25842,-0.17871 0.12748,0.37979 0.61026,1.0536c0.3868,0.53985 0.79597,0.71041 0.83435,0.62541c0.18043,-0.39956 0.33278,-0.75277 0.45715,-1.05002c0.27001,-0.64536 0.68538,-0.02814 0.60484,0.64894c-0.24271,2.04067 -1.27465,5.5854 -3.40539,8.67573z"/><path d="M122.42991,168.36556c-0.6202,-0.96241 -1.86684,-6.41196 -2.39458,-7.27188c-0.11462,-0.18676 -2.50331,2.15772 -5.61586,1.09322c-0.78131,-0.26721 -2.67062,-1.40547 -3.72125,-2.82316c-1.71075,-2.30843 -3.44457,-6.59714 -3.01433,-7.62981c0.3205,-0.76928 1.53635,1.17824 3.00578,3.20437c0.14336,0.19767 1.25753,1.33749 1.44332,0.55855c0.24926,-1.04511 0.21424,-2.83718 0.41736,-2.58529c0.2781,0.34487 0.27639,0.86071 0.50883,2.40426c0.20006,1.32862 -0.0054,2.44679 0.23397,2.64446c0.57635,0.47595 1.13792,0.75822 1.65185,0.71165c1.5493,-0.14039 4.06512,-2.48539 3.99829,-2.66629c-1.44352,-3.90733 -1.37744,-6.60169 -0.88929,-9.94677c0.4928,-3.37689 0.56077,-7.06419 2.17895,-10.94544c0.36693,-0.8801 0.47328,-0.79703 0.72918,-0.8365c0.59728,-0.09212 0.46495,1.37889 0.25767,3.91255c-0.01534,0.18747 0.36939,0.50263 0.81532,0.32724c0.98688,-0.38816 2.58795,-1.59555 3.04039,-0.70467c0.25569,0.50347 -4.08168,3.51782 -4.11027,4.14398c-0.09657,2.11537 -0.25481,4.53122 -0.02357,7.19951c0.27135,3.13099 4.83321,3.43041 7.48765,1.74795c0.23584,-0.14949 -0.91732,-2.99823 -0.11361,-3.18156c0.34135,-0.07786 0.27324,1.10434 0.60081,1.76203c0.22541,0.45258 0.89075,0.47325 0.98637,0.40491c2.0511,-1.46581 4.53783,-3.31397 3.75093,-1.64636c-0.59172,1.25397 -2.03265,2.12395 -4.53287,3.92806c-3.4238,2.47055 -6.41049,2.05347 -6.19567,3.19083c0.37803,2.00151 1.13984,3.92972 1.86416,5.65723c0.11005,0.26249 2.31649,-2.69764 2.72576,-1.53196c0.3388,0.96495 -1.82826,3.12882 -1.78195,3.59022c0.1527,1.5215 0.94348,3.47359 1.70178,5.08782c1.69601,3.61035 3.52663,6.68819 1.69097,7.72943c-2.63424,1.49422 -5.4783,-5.63885 -6.69611,-7.5286z"/><path d="M120.25907,136.37975c0.17863,0.04898 0.12965,0.2276 0.12965,0.2276l-0.05598,0.20414c-0.34076,1.24274 -0.6046,2.49074 -0.85877,3.73228l0.00428,-0.01566c0,0 0.04883,-0.17867 0.22748,-0.12985c0.17867,0.04883 0.12984,0.22748 0.12984,0.22748l-0.08847,0.3237c-0.12804,0.49567 -0.14198,0.93642 -0.17556,1.44377c-0.6312,2.51846 0.80582,4.49015 0.94563,6.90407c0.73829,2.20012 1.0793,4.47307 1.58753,6.71101c-0.13643,1.82096 -0.11616,3.76486 -0.01746,5.5865c0,0 0.01002,0.18495 -0.17492,0.19496c-0.18494,0.01001 -0.19497,-0.17492 -0.19497,-0.17492c-0.03206,-0.59179 -0.05528,-1.19585 -0.06751,-1.80411c-0.01502,0.00702 -0.03232,0.01273 -0.05224,0.01669c-0.18167,0.03608 -0.21774,-0.14559 -0.21774,-0.14559l-0.0496,-0.27224c0.1419,-0.54865 -0.52198,-2.54097 -0.79173,-3.00485c-0.37888,-1.90801 -0.96686,-3.79746 -1.19084,-5.74491c0,0 -0.02087,-0.18404 0.16317,-0.2049c0.18403,-0.02087 0.2049,0.16317 0.2049,0.16317c0.2138,1.91618 0.79737,3.78141 1.16985,5.65721c0.20146,0.36051 0.58953,1.47782 0.7551,2.31317c0.00483,-0.86031 0.03438,-1.71831 0.09468,-2.55148c-0.53074,-2.21981 -0.86114,-4.47394 -1.58186,-6.6692c-0.16378,-2.44873 -1.58846,-4.47124 -0.94796,-7.03174c0.01643,-0.26118 0.02963,-0.50603 0.0554,-0.74962c-0.11637,0.56671 -0.23469,1.13137 -0.36138,1.69286c-0.35427,1.51189 -0.36373,2.78201 -0.39713,4.32058c-0.00824,0.37943 -0.039,1.50562 0.43651,1.37742c0,0 0.18494,-0.01002 0.19496,0.17492c0.01001,0.18494 -0.17492,0.19495 -0.17492,0.19495c-1.69883,-0.07628 -0.67325,-5.05204 -0.42025,-6.15164c0.50767,-2.11577 0.84551,-4.32571 1.43677,-6.48201l0.05598,-0.20414c0,0 0.04898,-0.17862 0.2276,-0.12964z"/><path d="M124.98645,170.39459c-0.17152,0.0699 -0.24141,-0.10163 -0.24141,-0.10163l-0.10001,-0.24764c-0.17615,-0.87714 -0.47272,-1.62227 -0.82417,-2.43927c-1.11778,-2.06943 -2.08139,-4.22043 -3.21487,-6.24441c-0.3986,-1.917 -1.00995,-3.63765 -1.11766,-5.62569c0,0 -0.01002,-0.18495 0.17492,-0.19496c0.18494,-0.01002 0.19497,0.17492 0.19497,0.17492c0.10592,1.95491 0.74254,3.62817 1.09485,5.51631c1.15702,1.99001 2.0905,4.15678 3.20117,6.21236c0.35899,0.83226 0.6701,1.59935 0.84559,2.49429l0.08824,0.2143c0,0 0.0699,0.17151 -0.10163,0.24141z"/><path d="M126.74642,169.46947c-0.18146,0.03709 -0.21855,-0.14437 -0.21855,-0.14437l-0.04709,-0.23203c-0.34423,-1.03461 -0.66037,-2.33813 -1.38377,-3.17069c-0.90475,-1.5424 -2.21951,-3.97214 -2.31948,-5.77273c0,0 -0.01002,-0.18494 0.17492,-0.19496c0.18494,-0.01002 0.19496,0.17492 0.19496,0.17492c0.09123,1.7302 1.38142,4.09321 2.2505,5.57673c0.75109,0.86506 1.08477,2.21553 1.44074,3.29115l0.05214,0.25344c0,0 0.03709,0.18146 -0.14437,0.21855z"/><path d="M122.818,138.96732c0.13786,0.12368 0.01418,0.26155 0.01418,0.26155l-0.15944,0.17769c-0.68715,0.70434 -1.66534,1.14741 -2.40547,1.97233c0,0 -0.12369,0.13786 -0.26155,0.01417c-0.13786,-0.12369 -0.01417,-0.26156 -0.01417,-0.26156c0.70862,-0.7898 1.79924,-1.28833 2.40827,-1.9754l0.15665,-0.17461c0,0 0.12369,-0.13785 0.26155,-0.01416z"/><path d="M119.80441,160.94589c-0.16094,0.09167 -0.25261,-0.06926 -0.25261,-0.06926l-0.03761,-0.08456c-1.00137,-0.9109 -1.18642,-2.46047 -0.84764,-3.696c0,0 0.04897,-0.17863 0.2276,-0.12965c0.17863,0.04898 0.12965,0.22761 0.12965,0.22761c-0.30258,1.10349 -0.16194,2.50822 0.73932,3.32372l0.11056,0.17556c0,0 0.09168,0.16093 -0.06926,0.25261z"/><path d="M108.55483,154.95582c0.16094,-0.09167 0.25262,0.06927 0.25262,0.06927l0.1314,0.23552c0.94554,0.8476 1.73412,1.87169 2.72476,2.75984c1.51952,1.37366 3.09734,0.97034 4.99681,0.86742c0,0 0.18495,-0.01002 0.19496,0.17492c0.01001,0.18494 -0.17492,0.19496 -0.17492,0.19496c-2.00563,0.10867 -3.65347,0.48915 -5.26474,-0.96205c-1.00033,-0.90172 -1.80851,-1.94345 -2.7652,-2.80256l-0.16493,-0.2847c0,0 -0.09167,-0.16094 0.06927,-0.25262z"/><path d="M112.34442,157.63968c-0.17863,-0.04898 -0.12965,-0.22761 -0.12965,-0.22761l0.02494,-0.01702c-0.08352,-0.42062 -0.1187,-0.84535 -0.20249,-1.26269c0,0 -0.03608,-0.18166 0.14559,-0.21775c0.18167,-0.03608 0.21775,0.14559 0.21775,0.14559c0.0823,0.41856 0.11887,0.84158 0.20249,1.2627l-0.03104,0.18712c0,0 -0.04898,0.17862 -0.2276,0.12964z"/><path d="M110.74178,156.10639c-0.12369,0.13786 -0.26155,0.01417 -0.26155,0.01417l-0.17614,-0.15804c-0.68271,-0.6151 -1.16369,-1.43985 -1.85369,-2.04469c0,0 -0.13785,-0.12369 -0.01417,-0.26155c0.12369,-0.13785 0.26155,-0.01417 0.26155,-0.01417c0.68188,0.62293 1.1676,1.43142 1.8537,2.04468l0.17614,0.15804c0,0 0.13786,0.12369 0.01416,0.26156z"/><path d="M112.16542,159.59342c0.04898,-0.17863 0.22761,-0.12965 0.22761,-0.12965l0.23476,0.17054c0.05282,0.36764 0.42524,0.3401 0.74169,0.43157c0.64445,0.55788 2.66696,1.42216 3.57065,1.32213c0.28912,-0.03201 0.44027,-1.20218 0.50655,-1.4439c0,0 0.04898,-0.17863 0.22761,-0.12965c0.17863,0.04898 0.12964,0.2276 0.12964,0.2276c-0.13524,0.49322 -0.19689,1.56555 -0.79732,1.71036c-0.84081,0.20279 -3.24774,-0.82611 -3.81453,-1.36136c-0.45281,-0.11542 -0.76799,-0.15203 -0.90513,-0.60044l0.00812,0.03038c0,0 -0.17862,-0.04898 -0.12964,-0.2276z"/><path d="M129.65632,151.43662c0.00726,-0.0228 0.0616,-0.17204 0.22672,-0.12676c0.17863,0.04898 0.12964,0.2276 0.12964,0.2276l-0.17053,0.23476c-0.84262,0.12107 -1.78867,0.67628 -2.72768,0.81493c-1.53492,-0.03655 -3.57459,0.14362 -4.02109,1.77199c0,0 -0.04898,0.17862 -0.2276,0.12964c-0.17863,-0.04898 -0.12964,-0.2276 -0.12964,-0.2276c0.49827,-1.81716 2.65098,-2.08037 4.35502,-2.04372c0.94597,-0.14371 1.69717,-0.55907 2.56516,-0.78083z"/><path d="M131.91951,148.68573c0.17863,0.04898 0.12965,0.22761 0.12965,0.22761l-0.11494,0.21402c-0.47441,0.26469 -1.28136,0.89962 -1.5288,1.35721c0,0 -0.09085,0.16141 -0.25225,0.07057c-0.1614,-0.09084 -0.07057,-0.25225 -0.07057,-0.25225c0.29857,-0.51447 1.13215,-1.18684 1.66828,-1.49741l-0.05896,0.00989c0,0 0.04897,-0.17863 0.2276,-0.12965z"/><path d="M133.76823,161.64986c0.09167,0.16094 -0.06926,0.25261 -0.06926,0.25261l-0.0431,-0.03788c-0.27142,0.95094 -1.27245,1.73229 -1.80869,2.54061c-0.61917,0.66477 -3.06181,2.83319 -2.87526,3.66143c0,0 0.03608,0.18167 -0.14559,0.21775c-0.18167,0.03607 -0.21775,-0.14559 -0.21775,-0.14559c-0.20616,-1.14405 2.1903,-3.09291 2.94602,-3.96078c0.49526,-0.73529 1.51783,-1.53912 1.74401,-2.41136l0.217,-0.18604c0,0 0.16094,-0.09167 0.25261,0.06926z"/><path d="M135.77998,156.21912c0.17863,0.04898 0.12965,0.2276 0.12965,0.2276l-0.02799,0.10207c-0.43107,1.57211 -0.97412,2.61382 -1.85864,3.94082c-0.96152,1.438 -2.12913,3.0846 -3.29881,4.38829c0,0 -0.12369,0.13786 -0.26155,0.01417c-0.13786,-0.12368 -0.01417,-0.26155 -0.01417,-0.26155c1.1553,-1.28767 2.31334,-2.92115 3.26659,-4.34681c0.86779,-1.29407 1.38762,-2.29495 1.80932,-3.83288l0.02799,-0.10207c0,0 0.04897,-0.17862 0.2276,-0.12964z"/><path d="M130.40087,158.53167c0.16094,-0.09166 0.25262,0.06927 0.25262,0.06927l0.0948,0.18565c0.159,0.80075 0.81722,2.19781 0.65216,2.89854c0,0 -0.04898,0.17862 -0.2276,0.12964c-0.17863,-0.04898 -0.12964,-0.2276 -0.12964,-0.2276c0.17044,-0.50628 -0.52613,-2.06311 -0.65825,-2.72844l-0.05335,-0.07446c0,0 -0.09167,-0.16094 0.06926,-0.25261z"/><path d="M136.82896,153.77302c0.18494,-0.01002 0.19496,0.17492 0.19496,0.17492l0.01732,0.36395c-0.27538,1.03211 -0.56267,2.06111 -0.84516,3.09132c0,0 -0.04898,0.17862 -0.2276,0.12964c-0.17863,-0.04898 -0.12964,-0.2276 -0.12964,-0.2276c0.27724,-1.0111 0.54845,-2.02407 0.83407,-3.03282l-0.0189,-0.30444c0,0 -0.01001,-0.18495 0.17493,-0.19496z"/></g><g stroke-linecap="butt"><path d="M115.30632,165.94346c1.36804,-1.30621 8.09092,1.89691 10.96459,5.64185c2.87367,3.74494 2.05274,6.62981 -0.30334,8.43775c-2.35608,1.80794 -5.35513,1.85431 -8.2288,-1.89063c-1.72701,-2.25063 -2.61728,-5.85421 -2.83612,-8.57856c-0.02684,-0.33407 -0.81376,0.28619 -0.82071,-0.01733c-0.0079,-0.34527 0.76705,-1.60922 0.78405,-1.90355c0.01786,-0.30954 -0.74206,-0.03635 -0.69769,-0.27582c0.07718,-0.41649 0.98499,-1.26756 1.13804,-1.4137z"/><path d="M117.52567,168.8804c0,0 5.32173,1.24767 7.21185,3.71086c1.89013,2.46319 1.35017,4.36069 -0.19952,5.54985c-1.5497,1.18916 -3.52229,1.21965 -5.41242,-1.24355c-1.89013,-2.46319 -1.59993,-8.01717 -1.59993,-8.01717z"/></g><path d="M151.35701,201.1355c-2.15316,7.8525 1.54402,14.42768 -20.6613,8.39274c-21.77575,-5.91819 -15.48738,-10.4764 -13.33422,-18.32889c2.15316,-7.8525 6.05913,-18.6196 22.44985,-14.35521c15.38654,4.00314 13.69882,16.43886 11.54566,24.29136z" stroke-linecap="butt"/><g><path d="M142.76634,201.02088c-0.41386,-0.00756 -1.1863,-1.7803 -1.1863,-1.7803l0.26958,-14.75829c0,0 0.84175,-2.02093 1.25561,-2.01337c0.36771,0.00671 1.10548,2.05649 1.10548,2.05649l-0.26957,14.75829c0,0 -0.80706,1.74389 -1.17478,1.73717z" stroke-linecap="butt"/><path d="M141.78974,199.16919l2.11781,0.2238" stroke-linecap="round"/><path d="M142.15779,184.55155l1.91916,0.03506" stroke-linecap="round"/><path d="M141.8476,190.46969l2.09583,1.42667" stroke-linecap="round"/><path d="M143.1104,187.71597c0.16736,0.00306 0.30114,0.1091 0.29881,0.23685c-0.00233,0.12775 -0.1399,0.22884 -0.30726,0.22579c-0.16736,-0.00306 -0.30113,-0.1091 -0.2988,-0.23685c0.00233,-0.12775 0.1399,-0.22884 0.30725,-0.22579z" stroke-linecap="butt"/><path d="M142.87589,195.02386c0.16736,0.00306 0.30113,0.10911 0.2988,0.23685c-0.00233,0.12775 -0.13989,0.22884 -0.30725,0.22578c-0.16736,-0.00306 -0.30112,-0.1091 -0.2988,-0.23685c0.00233,-0.12775 0.13989,-0.22884 0.30726,-0.22579z" stroke-linecap="butt"/></g><g stroke-linecap="butt"><path d="M144.11192,185.99691c2.87065,0.84362 4.56771,4.29111 3.54869,8.20041c-1.00218,4.05865 -3.87686,4.90783 -6.56566,4.14282c-3.57494,-1.01715 -3.39437,-3.8178 -2.46686,-7.2004c0.92751,-3.38261 2.71303,-5.96384 5.48383,-5.14283z"/><g><path d="M143.20923,192.83923c-0.39945,1.45679 -1.46779,2.43364 -2.38622,2.1818c-0.91842,-0.25183 -1.33913,-1.63694 -0.93967,-3.09376c0.39945,-1.45679 1.46781,-2.43365 2.38623,-2.18182c0.91842,0.25183 1.33911,1.63696 0.93965,3.09378z"/><path d="M139.3783,192.88215l0.51196,-1.8671l1.18571,1.50396z"/></g><path d="M139.867,187.26822c0.22413,-0.81738 2.41027,-2.08268 4.24233,-1.58033c1.83206,0.50235 4.1205,2.67449 3.89637,3.49188c-0.22413,0.81738 -0.45837,-1.90901 -3.97388,-2.80894c-2.91691,-0.7467 -4.38893,1.71478 -4.16481,0.8974z"/><path d="M137.58538,194.96388c0.22413,-0.81738 0.44573,2.30969 3.49629,3.19927c3.67659,1.07214 5.48243,-1.24118 5.2583,-0.4238c-0.22413,0.81738 -3.46708,1.47282 -5.40057,0.94266c-1.9335,-0.53017 -3.57815,-2.90074 -3.35402,-3.71812z"/></g><g stroke-linecap="butt"><path d="M157.80058,189.50149c-4.38187,1.75546 -6.93784,0.18591 -8.04227,-2.57091c-1.10443,-2.75682 -0.33911,-5.65693 4.04278,-7.4124c4.38187,-1.75546 11.72793,-0.5738 12.30875,0.73972c0.40395,0.91354 -1.49622,3.96411 -4.11218,6.40607c-0.25561,0.23861 -0.83964,1.38577 -1.19561,1.68677c-0.32063,0.27113 -0.4131,-0.30151 -0.66192,-0.11482c-0.43332,0.32513 -0.93224,1.76101 -1.37961,2.02369c-0.44833,0.26325 -0.509,-0.93879 -0.95994,-0.75814z"/><path d="M157.23753,187.73198c-2.88214,1.15464 -4.5633,0.12229 -5.28973,-1.69098c-0.72643,-1.81327 -0.22303,-3.7208 2.6591,-4.87543c2.88214,-1.15464 8.09596,0.48654 8.09596,0.48654c0,0 -2.58319,4.92524 -5.46533,6.07988z"/></g><g><path d="M123.91876,193.56307l7.29562,-12.83174c0,0 1.68008,-1.3868 1.99979,-1.20503c0.35982,0.20458 0.05307,2.37221 0.05307,2.37221l-7.29562,12.83175c0,0 -1.56862,1.13082 -1.92844,0.92623c-0.31971,-0.18178 -0.12443,-2.09341 -0.12443,-2.09341z" stroke-linecap="butt"/><path d="M125.82766,194.56194l-1.93577,-0.88769" stroke-linecap="round"/><path d="M131.29822,180.85221l1.66863,0.94871" stroke-linecap="round"/><path d="M130.21508,187.04959l-2.5304,0.15816" stroke-linecap="round"/><path d="M130.68249,184.38781c-0.06315,0.11107 -0.23231,0.13406 -0.37782,0.05132c-0.14551,-0.08273 -0.21228,-0.23985 -0.14912,-0.35093c0.06315,-0.11107 0.23231,-0.13405 0.37783,-0.05132c0.14551,0.08273 0.21227,0.23985 0.14911,0.35093z" stroke-linecap="butt"/><path d="M127.15687,190.79328c-0.06315,0.11107 -0.2323,0.13406 -0.37782,0.05132c-0.14551,-0.08273 -0.21227,-0.23984 -0.14912,-0.35092c0.06315,-0.11107 0.23231,-0.13405 0.37782,-0.05132c0.14551,0.08273 0.21227,0.23985 0.14911,0.35093z" stroke-linecap="butt"/></g><g stroke-linecap="butt"><path d="M132.76849,189.68667c-0.92751,3.3826 -2.20067,5.88367 -5.79443,4.93515c-2.70296,-0.7134 -4.74247,-2.91006 -3.53435,-6.91224c1.11746,-3.88232 4.33556,-5.98206 7.23502,-5.24352c2.80205,0.70706 3.02128,3.838 2.09377,7.22061z"/><g><path d="M131.51334,189.78585c-0.39945,1.45679 -1.46779,2.43364 -2.38622,2.18181c-0.91842,-0.25183 -1.33912,-1.63695 -0.93966,-3.09376c0.39945,-1.45679 1.46781,-2.43365 2.38623,-2.18181c0.91842,0.25183 1.33911,1.63696 0.93965,3.09377z"/><path d="M127.68243,189.82878l0.51196,-1.8671l1.18571,1.50396z"/></g><path d="M133.67754,185.72472c-0.22413,0.81738 -0.23479,-2.05065 -3.1246,-2.89616c-3.48286,-1.01902 -5.07494,1.20659 -4.85081,0.38921c0.22413,-0.81738 3.30041,-1.51852 5.13247,-1.01617c1.83206,0.50235 3.06709,2.70574 2.84297,3.52312z"/><path d="M126.93351,194.99521c-1.9335,-0.53017 -4.38859,-2.748 -4.16446,-3.56539c0.22413,-0.81738 0.59748,2.09348 4.30673,3.04653c3.07765,0.79078 4.86324,-1.78592 4.63911,-0.96854c-0.22413,0.81738 -2.84789,2.01756 -4.78138,1.48739z"/></g><path d="M119.2351,194.63214l4.65364,-16.97166l13.21791,3.62436l-4.65364,16.97166z" stroke-linecap="butt"/><path d="M134.73662,198.73362l4.65363,-16.97165l13.21792,3.62436l-4.65363,16.97165z" stroke-linecap="butt"/><path d="M152.28727,203.61288c-0.1227,0.52481 0.08969,2.67151 -0.0366,4.42137c-0.12629,1.74986 -0.80927,3.93372 -0.80927,3.93372c0,0 -2.08285,0.85366 -5.64604,0.95955c-4.22652,0.12561 -10.3132,-0.56115 -15.87695,-2.01199c-4.46545,-1.16445 -8.58015,-2.68845 -11.64075,-4.39198c-4.26256,-2.37253 -6.43416,-4.77118 -6.43416,-4.77118c0,0 0.66586,-2.6947 1.37552,-4.3124c0.70965,-1.6177 1.89265,-3.21618 2.11933,-3.95852c0.33764,-1.10579 0.6765,-2.23164 1.0334,-3.35579c0.1235,-0.38901 -0.9109,0.18441 -0.78237,-0.2033c0.17336,-0.52293 1.512,-2.00608 1.69748,-2.52276c0.18941,-0.52762 -0.86049,-0.24032 -0.65483,-0.75675c0.10717,-0.26911 1.4633,-1.3469 1.57564,-1.612c3.17553,-7.49411 8.51852,-13.25233 21.86168,-9.73469c18.10147,4.78738 14.759,17.44854 12.21793,28.31669zM127.10923,195.84574c4.70453,1.07772 5.81127,-1.5823 6.56866,-4.34448c0.4836,-1.76366 2.18195,-6.76207 1.32134,-8.79652c-0.48725,-1.15182 -1.41585,-2.09395 -3.04163,-2.53974c-4.95436,-1.35849 -8.82542,2.56905 -10.18391,7.52341c-0.75739,2.76218 0.09614,6.95707 5.33553,8.15733zM140.76127,199.23794c5.49006,1.61512 8.07984,-1.70102 8.83723,-4.46321c1.00962,-3.68204 -0.08396,-9.66318 -4.42088,-11.1799c-3.63599,-1.27821 -5.7802,1.28589 -6.57284,3.29584c-1.04346,2.64594 -2.20984,6.16286 -1.72199,9.16266c0.25685,1.57939 2.1457,2.67484 3.87848,3.1846z" stroke-linecap="butt"/><path d="M142.17935,212.64992c-1.46964,0.33748 -6.22557,0.72478 -12.69783,-0.98373c-8.53005,-2.26997 -10.73524,-4.94905 -10.73524,-4.94905c0,0 0.41843,-6.98316 3.73622,-9.12397c2.69983,-1.74207 7.74798,-0.50109 10.41158,0.11106c2.75609,0.63341 9.49204,2.54208 10.66409,5.95255c1.40924,4.10072 -1.37882,8.99315 -1.37882,8.99315z" stroke-linecap="butt"/><path d="M127.03866,203.067c-0.31919,1.16406 -1.39365,1.88405 -2.39987,1.60815c-1.00622,-0.27591 -1.56318,-1.44323 -1.24399,-2.60729c0.31919,-1.16406 1.39364,-1.88405 2.39987,-1.60815c1.00622,0.27591 1.56318,1.44323 1.24399,2.60729z" stroke-linecap="butt"/><path d="M128.73156,200.53519c-0.14607,0.53271 -0.92024,0.78474 -1.72917,0.56293c-0.80892,-0.22181 -1.34628,-0.83346 -1.20021,-1.36617c0.14607,-0.53271 0.92025,-0.78473 1.72917,-0.56293c0.80892,0.22181 1.34627,0.83346 1.20021,1.36616z" stroke-linecap="butt"/><path d="M125.38386,201.53775c-0.17853,0.65109 -0.89905,1.02102 -1.60933,0.82626c-0.71028,-0.19476 -1.14134,-0.88045 -0.96281,-1.53154c0.17853,-0.65109 0.89904,-1.02101 1.60932,-0.82625c0.71028,0.19476 1.14135,0.88045 0.96282,1.53154z" stroke-linecap="butt"/><path d="M127.11937,201.0918c-0.21099,0.76946 -0.97382,1.23097 -1.70381,1.0308c-0.73001,-0.20017 -1.15075,-0.98621 -0.93976,-1.75567c0.21099,-0.76946 0.97382,-1.23097 1.70382,-1.0308c0.73001,0.20017 1.15075,0.9862 0.93976,1.75567z" stroke-linecap="butt"/><path d="M128.71426,203.68008c-0.07033,0.25649 -0.30327,0.41618 -0.52031,0.35667c-0.21703,-0.05951 -0.33595,-0.31568 -0.26562,-0.57217c0.07033,-0.25649 0.30327,-0.41617 0.52031,-0.35666c0.21703,0.05951 0.33595,0.31568 0.26562,0.57216z" stroke-linecap="butt"/><path d="M123.78317,203.17298c-0.01623,0.05919 -0.09336,0.08963 -0.17228,0.06799c-0.07892,-0.02164 -0.12974,-0.08717 -0.11351,-0.14636c0.01623,-0.05919 0.09336,-0.08963 0.17229,-0.06799c0.07892,0.02164 0.12974,0.08717 0.11351,0.14636z" stroke-linecap="butt"/><path d="M123.56768,199.19609c-0.01623,0.05919 -0.10936,0.08525 -0.20801,0.0582c-0.09865,-0.02705 -0.16547,-0.09697 -0.14924,-0.15615c0.01623,-0.05919 0.10936,-0.08525 0.20801,-0.05819c0.09865,0.02705 0.16546,0.09697 0.14923,0.15615z" stroke-linecap="butt"/><path d="M146.36149,201.7972c-0.07574,0.27622 -0.48901,0.40366 -0.92307,0.28464c-0.43405,-0.11902 -0.72453,-0.43942 -0.64879,-0.71564c0.07574,-0.27622 0.48901,-0.40365 0.92307,-0.28464c0.43405,0.11902 0.72453,0.43942 0.64879,0.71564z" stroke-linecap="butt"/><path d="M149.04367,205.18295c-0.02705,0.09865 -0.09697,0.16546 -0.15615,0.14923c-0.0592,-0.01623 -0.08525,-0.10936 -0.0582,-0.20801c0.02705,-0.09865 0.09696,-0.16547 0.15615,-0.14924c0.0592,0.01623 0.08525,0.10936 0.05819,0.20801z" stroke-linecap="butt"/><path d="M149.41882,199.33225c-0.07574,0.27622 -0.23311,0.47382 -0.35148,0.44137c-0.11837,-0.03246 -0.15294,-0.28269 -0.0772,-0.55891c0.07574,-0.27622 0.23311,-0.47382 0.35148,-0.44137c0.11837,0.03246 0.15294,0.28269 0.0772,0.55891z" stroke-linecap="butt"/><path d="M139.30253,179.33786c-0.22241,0.81112 -1.18464,1.25425 -2.14922,0.98976c-0.96457,-0.26449 -1.56621,-1.13643 -1.3438,-1.94755c0.22241,-0.81112 1.18463,-1.25425 2.14921,-0.98976c0.96457,0.26449 1.56622,1.13643 1.34381,1.94755z" stroke-linecap="butt"/><path d="M136.71535,178.50042c-0.18033,0.65765 -0.84188,1.04948 -1.47762,0.87516c-0.63574,-0.17432 -1.00492,-0.84877 -0.82459,-1.50643c0.18033,-0.65765 0.84189,-1.04949 1.47763,-0.87517c0.63574,0.17432 1.00492,0.84878 0.82459,1.50644z" stroke-linecap="butt"/><path d="M135.47014,178.37237c-0.18634,0.67959 -0.97718,1.05508 -1.76637,0.83868c-0.78919,-0.2164 -1.2779,-0.94274 -1.09155,-1.62233c0.18634,-0.67958 0.97717,-1.05508 1.76636,-0.83868c0.78919,0.2164 1.2779,0.94273 1.09156,1.62232z" stroke-linecap="butt"/><path d="M137.61556,180.1983c-0.16831,0.61382 -0.67794,1.00909 -1.13831,0.88285c-0.46036,-0.12623 -0.69713,-0.72616 -0.52882,-1.33998c0.16831,-0.61382 0.67795,-1.00908 1.13832,-0.88285c0.46036,0.12623 0.69712,0.72615 0.52881,1.33997z" stroke-linecap="butt"/><path d="M135.13274,179.60287c-0.09618,0.35075 -0.42294,0.56687 -0.72985,0.48271c-0.30691,-0.08415 -0.47774,-0.43671 -0.38157,-0.78746c0.09618,-0.35075 0.42295,-0.56688 0.72985,-0.48273c0.30691,0.08415 0.47774,0.43672 0.38156,0.78748z" stroke-linecap="butt"/><path d="M139.96389,178.79367c-0.08415,0.30691 -0.40118,0.48749 -0.70808,0.40333c-0.30691,-0.08415 -0.48749,-0.40118 -0.40333,-0.70808c0.08415,-0.30691 0.40118,-0.48749 0.70808,-0.40333c0.30691,0.08415 0.48749,0.40118 0.40333,0.70808z" stroke-linecap="butt"/><path d="M136.59048,177.39923c-0.09016,0.32882 -0.37651,0.53692 -0.63958,0.46479c-0.26306,-0.07213 -0.40323,-0.39717 -0.31306,-0.72601c0.09016,-0.32882 0.37651,-0.53693 0.63958,-0.46479c0.26306,0.07213 0.40322,0.39718 0.31306,0.72601z" stroke-linecap="butt"/><path d="M138.96066,181.20729c-0.04208,0.15346 -0.21837,0.23887 -0.39374,0.19079c-0.17538,-0.04809 -0.28343,-0.21148 -0.24135,-0.36493c0.04208,-0.15346 0.21835,-0.23888 0.39373,-0.19079c0.17538,0.04809 0.28344,0.21148 0.24136,0.36493z" stroke-linecap="butt"/><path d="M141.07274,180.97555c-0.03607,0.13153 -0.15417,0.2138 -0.26377,0.18375c-0.1096,-0.03005 -0.16923,-0.16105 -0.13316,-0.29259c0.03607,-0.13153 0.15416,-0.2138 0.26377,-0.18374c0.1096,0.03005 0.16923,0.16104 0.13316,0.29258z" stroke-linecap="butt"/><path d="M130.8919,176.39149c-0.01202,0.04384 -0.11063,0.05502 -0.22023,0.02497c-0.1096,-0.03005 -0.18872,-0.08997 -0.1767,-0.1338c0.01202,-0.04384 0.11063,-0.05502 0.22023,-0.02497c0.1096,0.03005 0.18872,0.08997 0.1767,0.1338z" stroke-linecap="butt"/><path d="M120.20728,189.20988c-0.19836,0.72343 -0.83901,1.17831 -1.4309,1.01602c-0.5919,-0.1623 -0.91091,-0.88032 -0.71255,-1.60375c0.19836,-0.72343 0.839,-1.17831 1.43089,-1.01602c0.5919,0.1623 0.91092,0.88033 0.71255,1.60375z" stroke-linecap="butt"/><path d="M120.59267,187.18168c-0.15028,0.54805 -0.73415,0.86564 -1.30413,0.70935c-0.56998,-0.15629 -0.9102,-0.72727 -0.75993,-1.27531c0.15028,-0.54805 0.73415,-0.86564 1.30413,-0.70935c0.56998,0.15629 0.91021,0.72727 0.75993,1.27532z" stroke-linecap="butt"/><path d="M119.16561,188.02802c-0.15629,0.56997 -0.65619,0.9297 -1.11655,0.80347c-0.46036,-0.12623 -0.70687,-0.69062 -0.55058,-1.26059c0.15629,-0.56997 0.65617,-0.9297 1.11655,-0.80347c0.46036,0.12623 0.70687,0.69062 0.55058,1.2606z" stroke-linecap="butt"/><path d="M118.7552,189.83598c-0.12623,0.46036 -0.61954,0.72635 -1.10182,0.59411c-0.48228,-0.13224 -0.77092,-0.61264 -0.64469,-1.073c0.12623,-0.46036 0.61953,-0.72635 1.10181,-0.59411c0.48228,0.13224 0.77093,0.61264 0.64469,1.073z" stroke-linecap="butt"/><path d="M118.95497,186.30584c-0.03005,0.1096 -0.17882,0.16435 -0.33227,0.12227c-0.15345,-0.04208 -0.25349,-0.16504 -0.22344,-0.27465c0.03005,-0.1096 0.17883,-0.16436 0.33228,-0.12228c0.15345,0.04208 0.25349,0.16505 0.22343,0.27466z" stroke-linecap="butt"/><path d="M120.83915,189.08437c-0.07213,0.26306 -0.29056,0.43246 -0.48785,0.37837c-0.1973,-0.0541 -0.29876,-0.31121 -0.22663,-0.57428c0.07213,-0.26306 0.29055,-0.43246 0.48785,-0.37836c0.1973,0.0541 0.29877,0.31121 0.22664,0.57427z" stroke-linecap="butt"/><path d="M114.71022,201.78629c-0.15028,0.54805 -0.80524,0.84615 -1.4629,0.66582c-0.65766,-0.18033 -1.06898,-0.77081 -0.91871,-1.31886c0.15028,-0.54805 0.80525,-0.84615 1.4629,-0.66582c0.65766,0.18033 1.06897,0.7708 0.9187,1.31885z" stroke-linecap="butt"/><path d="M114.604,200.30611c-0.12623,0.46036 -0.54845,0.74584 -0.94304,0.63765c-0.39459,-0.1082 -0.61215,-0.56911 -0.48592,-1.02947c0.12623,-0.46036 0.54845,-0.74584 0.94304,-0.63765c0.39459,0.1082 0.61215,0.56911 0.48592,1.02947z" stroke-linecap="butt"/><path d="M126.49815,180.55926c0,0 -0.00557,-0.58444 0.07188,-0.94683c0.07745,-0.3624 0.38326,-1.18289 0.38326,-1.18289c0,0 0.11541,0.70931 0.28862,1.13037c0.17321,0.42106 0.36845,0.46694 0.36845,0.46694z" stroke-linecap="butt"/><path d="M125.49876,181.15753c0,0 -0.05117,-0.58222 -0.00227,-0.94955c0.04892,-0.36733 0.28974,-1.2092 0.28974,-1.2092c0,0 0.17044,0.69812 0.376,1.10437c0.20555,0.40625 0.40378,0.43675 0.40378,0.43675z" stroke-linecap="butt"/><path d="M124.61356,181.94047c0,0 -0.173,-0.55828 -0.20275,-0.92766c-0.02977,-0.36938 0.02783,-1.24311 0.02783,-1.24311c0,0 0.31403,0.64639 0.60075,1.00006c0.28672,0.35367 0.48691,0.34161 0.48691,0.34161z" stroke-linecap="butt"/><g stroke-linecap="butt"><path d="M148.10642,185.22581c0,0 0.19134,0.06012 0.55509,-0.21371c0.36375,-0.27382 0.8248,-0.82506 0.8248,-0.82506c0,0 -0.15546,0.86173 -0.27368,1.21294c-0.11822,0.35122 -0.4211,0.85107 -0.4211,0.85107z"/><path d="M148.74305,186.19981c0,0 0.18606,0.07487 0.57007,-0.16971c0.38402,-0.24459 0.8867,-0.75814 0.8867,-0.75814c0,0 -0.22225,0.84696 -0.36753,1.18788c-0.14528,0.3409 -0.48628,0.81559 -0.48628,0.81559z"/><path d="M149.3459,187.22163c0,0 0.16605,0.11248 0.59305,-0.04549c0.42701,-0.15797 1.02681,-0.55378 1.02681,-0.55378c0,0 -0.39612,0.78092 -0.61012,1.08345c-0.214,0.30253 -0.64755,0.69451 -0.64755,0.69451z"/></g><path d="M118.33492,198.71877l-1.18795,0.1478c0,0 0.71633,-1.21884 0.69627,-1.35672c-0.04249,-0.29199 -1.07665,0.15345 -1.07665,0.15345c0,0 0.8476,-0.85559 0.84857,-1.12866c0.00122,-0.34366 -0.59651,-0.20357 -0.59651,-0.20357l0.67437,-0.60161" stroke-linecap="round"/><path d="M142.28348,177.56053l0.2732,0.86144c0,0 -0.44267,-0.42537 -0.61692,-0.12915c-0.13845,0.23537 0.15422,1.40363 0.15422,1.40363c0,0 -0.66232,-0.91064 -0.8478,-0.68114c-0.08758,0.10837 -0.0931,1.52211 -0.0931,1.52211l-0.94642,-0.73305" stroke-linecap="round"/><path d="M132.3662,203.07075l-2.04307,7.45102" stroke-linecap="round"/><g><path d="M155.24739,181.25661c-0.68924,2.51364 -7.9688,2.70848 -16.25937,0.4352c-8.29056,-2.27327 -14.45267,-6.15383 -13.76343,-8.66746c0.68924,-2.51363 7.96881,-2.70847 16.25938,-0.43519c8.29056,2.27327 14.45265,6.15384 13.76341,8.66746z" stroke-linecap="butt"/><path d="M155.02244,181.13772c0,0 -6.40575,2.41697 -16.39002,-0.55464c-10.13774,-3.01728 -13.40724,-7.38685 -13.40724,-7.38685" stroke-linecap="round"/><path d="M131.67057,172.01526c0.58529,-1.72995 1.70111,-5.08187 2.25401,-7.0983c0.60855,-2.21937 1.4958,-6.2752 1.87523,-8.03998c0.1034,-0.48094 0.41849,-0.79381 0.8929,-0.66372c0.84517,0.23175 4.38183,0.58694 7.98518,1.57498c3.78729,1.03848 7.66468,2.71622 9.26195,3.15419c0.49883,0.13678 0.556,0.60255 0.37673,1.08773c-0.58822,1.59198 -1.80186,4.94459 -2.36296,6.99093c-0.59843,2.18244 -1.41003,6.22025 -1.78655,8.14562c-0.13441,0.68733 -0.35341,1.1778 -1.03214,1.3505c-1.41619,0.36035 -4.70649,0.77662 -10.25127,-0.79362c-4.51622,-1.27896 -6.44435,-3.05675 -7.18403,-3.98298c-0.30353,-0.38009 -0.02907,-1.72534 -0.02907,-1.72534z" stroke-linecap="butt"/></g><path d="M152.51518,191.85633l0.59037,0.68424c0,0 -0.57442,-0.21668 -0.61793,0.12422c-0.03457,0.27087 0.6945,1.22947 0.6945,1.22947c0,0 -0.96741,-0.57623 -1.04752,-0.29224c-0.03783,0.1341 0.51383,1.43578 0.51383,1.43578l-1.15862,-0.3011" stroke-linecap="round"/><g stroke-linecap="butt"><path d="M137.297,200.39454c-0.30066,1.09649 -1.4434,1.00663 -2.31124,1.5522c-0.90086,0.56632 -1.54108,1.74198 -2.61461,1.44762c-1.07353,-0.29436 -1.15689,-2.03098 -1.64291,-2.97758c-0.46821,-0.91191 -1.36461,-1.01864 -1.06396,-2.11513c0.61275,-2.23468 2.45259,-2.23409 4.58683,-1.76346c2.25093,0.49636 3.65864,1.62167 3.04589,3.85635z"/><path d="M132.31007,197.3084c-0.05505,0.20077 -0.61042,0.24575 -0.76357,0.35462c-0.18329,0.13029 -0.34883,0.5112 -0.57408,0.44943c-0.41348,-0.11338 -0.43283,-0.5031 -0.3119,-0.94414c0.12093,-0.44105 0.55416,-0.70667 0.96764,-0.5933c0.41348,0.11338 0.80286,0.29233 0.68193,0.73337z"/></g><path d="M139.62726,202.33798c-0.03607,0.13153 -0.15416,0.21379 -0.26376,0.18374c-0.1096,-0.03005 -0.16923,-0.16104 -0.13316,-0.29257c0.03607,-0.13153 0.15416,-0.21379 0.26377,-0.18374c0.1096,0.03005 0.16922,0.16105 0.13316,0.29258z" stroke-linecap="butt"/><path d="M141.65547,202.72341c-0.03607,0.13153 -0.15416,0.2138 -0.26376,0.18374c-0.1096,-0.03005 -0.16923,-0.16104 -0.13316,-0.29258c0.03607,-0.13153 0.15416,-0.2138 0.26377,-0.18374c0.1096,0.03005 0.16922,0.16104 0.13315,0.29258z" stroke-linecap="butt"/><path d="M140.45441,204.61331c-0.03607,0.13153 -0.15416,0.2138 -0.26376,0.18374c-0.1096,-0.03005 -0.16923,-0.16105 -0.13316,-0.29258c0.03607,-0.13153 0.15416,-0.21379 0.26377,-0.18374c0.1096,0.03005 0.16922,0.16104 0.13316,0.29257z" stroke-linecap="butt"/><g stroke-linecap="butt"><path d="M126.09572,198.35021c0.1096,0.03005 0.16923,0.16105 0.13316,0.29259c-0.03607,0.13153 -0.15417,0.21379 -0.26377,0.18374c-0.1096,-0.03005 -0.16922,-0.16104 -0.13316,-0.29258c0.03607,-0.13153 0.15416,-0.2138 0.26377,-0.18375z"/><path d="M124.15458,197.64724c0.1096,0.03005 0.16923,0.16105 0.13316,0.29258c-0.03607,0.13153 -0.15416,0.21379 -0.26377,0.18374c-0.1096,-0.03005 -0.16922,-0.16105 -0.13316,-0.29258c0.03607,-0.13153 0.15416,-0.2138 0.26376,-0.18374z"/><path d="M124.22371,199.88544c0.1096,0.03005 0.16923,0.16105 0.13316,0.29259c-0.03607,0.13153 -0.15417,0.21379 -0.26377,0.18373c-0.1096,-0.03005 -0.16922,-0.16104 -0.13316,-0.29257c0.03607,-0.13153 0.15416,-0.2138 0.26377,-0.18375z"/></g></g></g></g></g></svg>