<svg version="1.1" xmlns="http://www.w3.org/2000/svg" xmlns:xlink="http://www.w3.org/1999/xlink" width="76.33333" height="101" viewBox="0,0,76.33333,101"><defs><linearGradient x1="360.22627" y1="180.51783" x2="360.06997" y2="187.03962" gradientUnits="userSpaceOnUse" id="color-1"><stop offset="0" stop-color="#15131c"/><stop offset="1" stop-color="#1c1925"/></linearGradient><linearGradient x1="360.21696" y1="172.21675" x2="360.21696" y2="183.03382" gradientUnits="userSpaceOnUse" id="color-2"><stop offset="0" stop-color="#231f2e"/><stop offset="1" stop-color="#1e1b28"/></linearGradient></defs><g transform="translate(-321.83333,-129.5)"><g data-paper-data="{&quot;isPaintingLayer&quot;:true}" fill-rule="nonzero" stroke-linecap="butt" stroke-linejoin="miter" stroke-miterlimit="10" stroke-dasharray="" stroke-dashoffset="0" style="mix-blend-mode: normal"><path d="M321.83333,230.5v-101h76.33333v101z" fill="#273042" stroke="none" stroke-width="0"/><path d="M329.75469,196.83333v-61.66667h60.49068v61.66667z" fill="#0b0e13" stroke="none" stroke-width="0"/><path d="M343.08348,227.33333v-17.33333h33.83333v17.33333z" fill="#0b0e13" stroke="#000000" stroke-width="0"/><path d="M342.99992,209.125v-11.25h34.25v11.25z" fill="#273042" stroke="#000000" stroke-width="0"/><text transform="translate(346.98819,207.0298) scale(0.29415,0.29415)" font-size="40" xml:space="preserve" fill="#000000" fill-rule="nonzero" stroke="none" stroke-width="1" stroke-linecap="butt" stroke-linejoin="miter" stroke-miterlimit="10" stroke-dasharray="" stroke-dashoffset="0" font-family="&quot;GovtAgentBB&quot;, Serif" font-weight="normal" text-anchor="start" style="mix-blend-mode: normal"><tspan x="0" dy="0">Echo</tspan></text><g stroke="#000000" stroke-width="0"><path d="M365.66843,163.83245c0,0 19.53743,-9.42067 20.80852,-4.72074c1.56796,5.79761 -26.64306,24.66597 -26.64306,24.66597z" fill="#231f2e"/><path d="M369.50375,175.26617c-3.30662,2.37178 -1.70162,-5.20355 1.37229,-7.87004c4.29656,-3.72708 11.89393,-8.05702 12.49473,-5.4182c0.41795,1.83569 -8.61347,9.51994 -13.86702,13.28824z" fill="#644360"/></g><g stroke="#000000" stroke-width="0"><path d="M348.23185,184.25902c0,0 -9.45719,-32.73091 -4.58081,-36.23687c3.95311,-2.84216 13.15599,16.7988 13.15599,16.7988z" fill="#231f2e"/><path d="M344.25014,152.20599c2.13199,-1.66702 5.28976,6.48754 6.26847,12.09055c0.7002,4.00858 -2.83804,10.89645 -3.90476,6.96947c-1.69482,-6.23919 -3.84683,-17.90038 -2.36371,-19.06003z" fill="#644360"/></g><path d="M345.68044,176.98185c1.36768,-9.57814 5.25307,-14.86871 14.32004,-14.86871c9.06697,0 12.03366,3.63936 13.93071,13.29508c2.08171,10.5956 -5.36708,14.14988 -14.43405,14.14988c-9.06697,0 -15.1351,-3.34329 -13.8167,-12.57625z" fill="#231f2e" stroke="#000000" stroke-width="0"/><g stroke="#000000" stroke-width="0"><path d="M363.40502,184.38801c-0.02269,0.94671 -1.26963,2.70111 -3.3033,2.65238c-2.03368,-0.04875 -3.26699,-1.5132 -3.2443,-2.45991c0.02269,-0.94671 0.61432,-4.04284 2.86617,-4.07098c3.37759,-0.0422 3.70414,2.9318 3.68145,3.87851z" fill="url(#color-1)"/><path d="M362.05701,183.42162c0.43786,1.05599 -1.12779,1.43204 -2.30457,1.40384c-1.17678,-0.0282 -2.00532,-0.67373 -1.48006,-1.68909c0.52527,-1.01535 0.86315,-1.14476 1.53895,-1.23412c1.51435,-0.20024 1.9335,0.76648 2.24568,1.51937z" fill="#14121a"/><path d="M361.88655,184.25351c0,0 -0.07387,0.17837 -0.15656,0.22592c-0.11307,0.065 -0.46067,0.16878 -0.46067,0.16878l0.03997,-1.39168z" fill="#bca253"/><path d="M358.80266,183.31666l-0.02577,1.35159c0,0 -0.25181,-0.14009 -0.35138,-0.22671c-0.08244,-0.07171 -0.20439,-0.25674 -0.20439,-0.25674z" fill="#bca253"/></g><path d="M362.28912,181.8753l1.52364,-0.23186l-0.62933,2.74917z" fill="#bca253" stroke="#000000" stroke-width="0"/><path d="M357.40204,184.51796l-0.62933,-2.74917l1.52364,0.23186z" fill="#bca253" stroke="#000000" stroke-width="0"/><path d="M364.15027,181.56771c-1.11113,1.94916 -7.77996,2.12292 -8.03774,-0.50546c-0.18259,-1.86175 0.45255,-3.51493 1.082,-5.66112c0.66981,-2.2838 1.13337,-3.18438 3.03991,-3.18438c0.95574,0 1.41018,0.95399 2.34521,2.89266c0.9302,1.92865 2.29195,5.19293 1.57061,6.4583z" fill="url(#color-2)" stroke="#000000" stroke-width="0"/><path d="M357.5172,174.30707c0,1.32524 -1.6105,1.66175 -3.31935,2.03329c-1.03622,0.2253 -2.24586,0.4302 -3.08573,0.4302c-2.2249,0 -3.9126,-0.33464 -3.9126,-2.46349c0,-2.12885 2.6731,-5.41968 6.57897,-4.7241c2.19044,0.39008 3.73871,2.59525 3.73871,4.7241z" fill="#1c1925" stroke="#000000" stroke-width="0"/><path d="M366.60796,169.65933c3.90587,-0.69557 6.57897,2.59525 6.57897,4.7241c0,2.12885 -1.6877,2.46349 -3.9126,2.46349c-0.83986,0 -2.0495,-0.20491 -3.08573,-0.4302c-1.70885,-0.37154 -3.31935,-0.70804 -3.31935,-2.03329c0,-2.12885 1.54827,-4.33402 3.73871,-4.7241z" fill="#1c1925" stroke="#000000" stroke-width="0"/><g stroke="#000000" stroke-width="0"><path d="M362.63224,177.61938c0,1.03864 -1.31467,2.6101 -2.59519,2.6101c-1.28052,0 -2.43518,-1.59858 -2.43518,-2.63722c0,-1.03864 5.03037,-1.01152 5.03037,0.02712z" fill="#976581"/><path d="M359.35056,180.06224c-0.07491,0.05337 -0.4459,-0.16356 -0.75897,-0.45488c-0.30363,-0.28254 -0.55133,-0.63794 -0.51351,-0.70081c0.15443,-0.25666 0.49702,-0.12952 0.79439,0.01017c0.46758,0.21966 0.69878,0.98829 0.4781,1.14552z" fill="#643851"/><path d="M361.29198,178.91252c0.30258,-0.12801 0.64986,-0.24172 0.79418,0.02077c0.03535,0.06429 -0.22601,0.40979 -0.54041,0.68028c-0.32417,0.27891 -0.70333,0.48123 -0.77611,0.42498c-0.21439,-0.1657 0.04656,-0.92475 0.52234,-1.12603z" fill="#643851"/><path d="M359.89247,180.22768c0,-0.26226 0,-1.46346 0,-2.1364c0,-0.19968 -0.03204,-0.46023 0.16765,-0.46023c0.18683,0 0.1614,0.2403 0.16231,0.42712c0.00262,0.53642 0.00533,1.46924 -0.00251,2.15295c-0.00103,0.08968 -0.32745,0.07856 -0.32745,0.01656z" fill="#81526c"/></g><text transform="translate(367.32755,152.13904) scale(0.5,0.5)" font-size="40" xml:space="preserve" fill="#ffffff" fill-rule="nonzero" stroke="none" stroke-width="1" stroke-linecap="butt" stroke-linejoin="miter" stroke-miterlimit="10" stroke-dasharray="" stroke-dashoffset="0" font-family="&quot;VCR OSD Mono&quot;, Pixel" font-weight="normal" text-anchor="start" style="mix-blend-mode: normal"><tspan x="0" dy="0">Z</tspan></text><text transform="translate(359.46568,159.94236) scale(0.30594,0.30594)" font-size="40" xml:space="preserve" fill="#ffffff" fill-rule="nonzero" stroke="none" stroke-width="1" stroke-linecap="butt" stroke-linejoin="miter" stroke-miterlimit="10" stroke-dasharray="" stroke-dashoffset="0" font-family="&quot;VCR OSD Mono&quot;, Pixel" font-weight="normal" text-anchor="start" style="mix-blend-mode: normal"><tspan x="0" dy="0">Z</tspan></text><text transform="translate(351.55303,223.17375) scale(0.37559,0.37559)" font-size="40" xml:space="preserve" fill="#545454" fill-rule="nonzero" stroke="none" stroke-width="1" stroke-linecap="butt" stroke-linejoin="miter" stroke-miterlimit="10" stroke-dasharray="" stroke-dashoffset="0" font-family="&quot;Agency FB&quot;, Sans Serif" font-weight="normal" text-anchor="start" style="mix-blend-mode: normal"><tspan x="0" dy="0">OFF</tspan></text></g></g></svg>