<svg version="1.1" xmlns="http://www.w3.org/2000/svg" xmlns:xlink="http://www.w3.org/1999/xlink" width="303.24885" height="325.87376" viewBox="0,0,303.24885,325.87376"><defs><linearGradient x1="417.55939" y1="191.2167" x2="470.22466" y2="288.106" gradientUnits="userSpaceOnUse" id="color-1"><stop offset="0" stop-color="#6b0000"/><stop offset="1" stop-color="#4b0000"/></linearGradient><radialGradient cx="448.5609" cy="235.08533" r="35.26144" gradientUnits="userSpaceOnUse" id="color-2"><stop offset="0" stop-color="#570000"/><stop offset="1" stop-color="#570000" stop-opacity="0"/></radialGradient><linearGradient x1="297.07539" y1="181.05538" x2="248.5099" y2="285.52259" gradientUnits="userSpaceOnUse" id="color-3"><stop offset="0" stop-color="#780000"/><stop offset="1" stop-color="#4b0000"/></linearGradient><radialGradient cx="266.99948" cy="245.75043" r="36.84265" gradientUnits="userSpaceOnUse" id="color-4"><stop offset="0" stop-color="#570000"/><stop offset="1" stop-color="#570000" stop-opacity="0"/></radialGradient><linearGradient x1="351.61197" y1="123.70046" x2="351.61197" y2="244.89073" gradientUnits="userSpaceOnUse" id="color-5"><stop offset="0" stop-color="#910000"/><stop offset="1" stop-color="#340000"/></linearGradient><radialGradient cx="343.15232" cy="192.39078" r="36.84266" gradientUnits="userSpaceOnUse" id="color-6"><stop offset="0" stop-color="#570000"/><stop offset="1" stop-color="#570000" stop-opacity="0"/></radialGradient><radialGradient cx="373.52468" cy="171.85448" r="36.84266" gradientUnits="userSpaceOnUse" id="color-7"><stop offset="0" stop-color="#570000"/><stop offset="1" stop-color="#570000" stop-opacity="0"/></radialGradient><linearGradient x1="399.20602" y1="272.82063" x2="399.20602" y2="342.18688" gradientUnits="userSpaceOnUse" id="color-8"><stop offset="0" stop-color="#760000"/><stop offset="1" stop-color="#4c0000"/></linearGradient><linearGradient x1="317.0143" y1="268.91634" x2="317.0143" y2="338.28138" gradientUnits="userSpaceOnUse" id="color-9"><stop offset="0" stop-color="#760000"/><stop offset="1" stop-color="#4c0000"/></linearGradient><radialGradient cx="317.0143" cy="303.70194" r="29.61068" gradientUnits="userSpaceOnUse" id="color-10"><stop offset="0" stop-color="#570000"/><stop offset="1" stop-color="#570000" stop-opacity="0"/></radialGradient><radialGradient cx="357.15124" cy="25.92542" r="58.49829" gradientUnits="userSpaceOnUse" id="color-11"><stop offset="0" stop-color="#0c0c0c"/><stop offset="1" stop-color="#121212"/></radialGradient><linearGradient x1="366.27511" y1="20.95109" x2="366.27511" y2="144.30311" gradientUnits="userSpaceOnUse" id="color-12"><stop offset="0" stop-color="#a30000"/><stop offset="1" stop-color="#450000"/></linearGradient></defs><g transform="translate(-208.37558,-17.31312)"><g data-paper-data="{&quot;isPaintingLayer&quot;:true}" fill-rule="nonzero" stroke-linejoin="miter" stroke-miterlimit="10" stroke-dasharray="" stroke-dashoffset="0" style="mix-blend-mode: normal"><path d="M384.34999,137.29851c0,0 20.38639,8.97897 28.45477,19.87736c0.77809,1.05098 9.55932,14.05797 12.74356,16.92877c8.67997,7.82561 6.63541,33.98171 6.63541,33.98171" fill="none" stroke="#0d0d0d" stroke-width="3.5" stroke-linecap="round"/><path d="M281.79086,191.89685c0,0 6.8407,-13.55552 14.62023,-20.87225c3.31547,-3.11825 4.73071,-11.73986 9.57861,-16.94708c9.94409,-10.68113 31.35076,-14.4257 31.35076,-14.4257" fill="none" stroke="#0d0d0d" stroke-width="3.5" stroke-linecap="round"/><g><g><g stroke-linecap="butt"><g><path d="M431.18971,184.11826c8.88677,-2.50262 19.75218,6.57477 28.12901,21.92129c-0.05261,0.16501 -0.1044,0.3322 -0.1554,0.50154c-0.22,0.73048 0.72209,1.32288 0.43026,2.11911c-1.50658,4.11058 -3.85821,4.47668 -2.55761,9.8595c1.40266,5.80516 3.80119,7.23623 8.23808,9.72685c2.86688,1.60932 3.49432,5.43748 4.7369,8.04106c0.22416,0.46969 0.49101,0.92749 0.79471,1.3709c-0.09613,1.60513 0.20119,3.25645 0.94281,4.81036c0.4875,1.02148 1.1285,1.92018 1.88218,2.68165c1.79388,5.56787 3.2957,10.86808 3.76653,15.65001c0.16269,1.6523 8.21198,17.46812 8.098,18.98631c-0.05301,0.70599 -8.14891,-12.82905 -8.27139,-12.15533c-1.72091,9.46583 -11.68731,15.54536 -17.66396,17.22848c-6.67542,1.87989 -20.56907,3.37584 -27.58398,-5.56131c-6.20992,-7.91157 -5.70922,-25.32964 -9.38787,-38.39252c-7.83416,-27.81906 -3.98301,-53.24386 8.60179,-56.7879z" fill="url(#color-1)" stroke="#4f0000" stroke-width="2"/><path d="M424.71131,243.71852c-9.30035,-17.11005 -10.10026,-30.31333 7.0098,-39.61369c15.51186,-8.43165 19.46711,-6.68322 27.00073,6.46636c-1.36465,2.4951 -2.75178,3.53705 -1.68587,7.94854c1.40266,5.80516 3.80119,7.23623 8.23806,9.72686c2.86688,1.60932 3.49433,5.43748 4.7369,8.04106c0.22416,0.46969 0.491,0.92749 0.79471,1.3709c-0.09613,1.60513 0.20118,3.25645 0.9428,4.81036c0.45899,0.96171 1.05401,1.81459 1.75106,2.54661c1.56443,8.83427 -0.01478,16.65615 -8.09881,21.05031c-17.11005,9.30037 -28.69509,6.44595 -37.99545,-10.66411z" fill="url(#color-2)" stroke="none" stroke-width="0"/></g><path d="M427.65212,230.88399c1.04315,-1.68689 2.44542,-3.01456 4.18716,-3.84583c0.67054,-0.32001 -3.97872,-10.34182 -3.97872,-10.34182c0,0 5.03488,-0.05345 7.96547,1.42761c3.25776,1.64645 4.45571,4.81102 4.67197,4.06005c1.54615,-5.36939 2.10186,-7.57192 3.51329,-4.53536c0.76779,1.65183 11.88682,3.98229 11.88682,3.98229c0,0 -8.32564,4.27868 -7.75637,5.68228c2.22055,5.47491 4.21911,10.68191 5.06933,12.46337c0.70914,1.48584 2.09323,3.13497 3.79371,4.85568c1.31335,1.32895 5.16662,0.15066 6.73592,1.61429c1.94894,1.81773 1.62901,6.28244 3.27994,7.90703c2.99659,2.94879 4.8723,5.21818 4.13127,7.15476c-1.05211,2.7496 -19.03096,1.92685 -21.47952,3.09546c-2.35351,1.12323 -4.70113,6.13888 -7.39064,5.33334c-2.1861,-0.65476 -4.44349,-2.77242 -6.56596,-5.51194c-1.04456,-1.34821 -7.16276,-2.41475 -7.16276,-2.41475c0,0 0.9437,-7.63885 -0.25244,-10.14511c-1.96726,-4.12197 -2.8958,-8.35689 -2.863,-12.16599c0.01434,-1.66585 -3.07293,-7.03881 -3.07293,-7.03881c0,0 4.57632,-0.42661 5.28743,-1.57658z" fill="#5e0000" stroke="none" stroke-width="0"/></g><path d="M422.56515,268.07242l-1.41913,-5.80174l7.27593,-4.55235" fill="none" stroke="#000000" stroke-width="1" stroke-linecap="round"/></g><path d="M430.14461,309.04915c0.16968,1.71093 -1.54127,1.88061 -1.54127,1.88061l-2.5079,0.06629c-1.47172,-1.53441 -2.95562,-3.39198 -3.2294,-5.5004c0.592,-4.02214 0.25711,-9.78689 3.74325,-12.73684c1.13219,-0.95804 4.26928,-0.57346 5.55837,-1.71629c0.20559,-0.18227 -0.31698,-0.46691 -0.37008,-0.73647c-0.12698,-0.64461 -0.47166,-4.59624 -0.17539,-5.05703c1.02274,-1.59064 4.97876,-2.07007 6.68108,-2.51896c0.94642,-0.24956 2.20728,0.54644 2.93429,-0.10887c0.51578,-0.46491 0.39841,-1.45773 0.97884,-1.83888c0.71125,-0.46706 1.67472,-0.30236 2.51208,-0.45355c0,0 1.71093,-0.16968 1.88061,1.54127c0.16968,1.71093 -1.54127,1.88061 -1.54127,1.88061c-0.854,-0.10152 -1.19757,1.25534 -1.91644,1.72741c-0.71125,0.46706 -1.66999,0.33137 -2.51207,0.45356c-1.06854,0.15505 -2.07219,0.61033 -3.12078,0.86777c-0.94759,0.23264 -2.59507,-0.74418 -2.92195,0.17515c-0.40551,1.14048 1.65594,4.24863 0.59486,5.70541c-0.32565,0.4471 -4.24422,2.70349 -5.49887,3.02393c-0.4037,0.1031 -0.91834,-0.28911 -1.24947,-0.03619c-1.02532,0.78318 -0.84266,2.85744 -1.09703,3.80767c-0.62946,2.35123 -0.68226,3.65515 -1.04234,6.10162c0.01789,0.80995 0.50704,1.57844 1.0185,2.20674l0.94177,-0.27581c0,0 1.71092,-0.16968 1.8806,1.54127z" fill="#0d0d0d" stroke="none" stroke-width="0.5" stroke-linecap="butt"/><path d="M469.92974,313.62919c-1.08983,1.32979 -1.25166,-1.95421 -1.25166,-1.95421l-0.87159,-0.75749c-0.40234,-0.49504 -0.80469,-0.99007 -1.20703,-1.4851c-0.73203,-0.65274 -1.77144,-1.07412 -2.19608,-1.95821c-1.94294,-4.04519 1.7478,-5.63793 2.53754,-8.9613c0.02505,-0.10545 -0.2597,-1.53877 -0.28205,-2.44807c-0.81567,0.81918 -1.57474,1.92118 -2.69882,2.06845c-1.16569,0.15271 -2.30118,-0.69943 -3.22631,-1.42491c-0.67774,-0.53148 -0.76459,-1.58109 -1.37795,-2.18575c-0.53708,-0.52949 -1.51018,-0.51572 -1.96931,-1.11406c-1.91891,-2.50075 -1.59903,-7.08857 -1.89734,-10.09671c0,0 -0.16968,-1.71093 1.54127,-1.8806c1.71093,-0.16968 1.8806,1.54127 1.8806,1.54127c0.18242,1.83949 -0.22389,6.7618 1.07707,8.18751c0.4281,0.46915 1.25516,0.39872 1.70842,0.84361c0.61467,0.60331 0.8971,1.47119 1.37795,2.18575c0.12995,0.19311 0.25372,0.65561 0.45143,0.53277c0.62032,-0.38545 0.76474,-1.32638 1.40146,-1.68409c3.23491,-1.8174 3.69332,-1.26271 5.01982,1.91705c0.10409,0.24952 0.39619,4.0927 0.36712,4.22461c-0.73765,3.34641 -4.90266,5.21412 -1.2837,7.82083c0.47827,0.57884 0.95656,1.15766 1.43483,1.7365l0.39234,0.27837c0,0 0.16182,3.28399 -0.92802,4.61379z" fill="#0d0d0d" stroke="none" stroke-width="0.5" stroke-linecap="butt"/><path d="M494.05975,299.16621c0.16968,1.71093 -4.33642,1.6382 -4.33642,1.6382l-1.72483,0.17105c-5.48566,0.48284 -9.10976,-1.10067 -10.52346,-6.85965c-0.31988,-1.30312 0.38061,-2.81388 -0.20717,-4.0201c-0.18808,-0.38597 -0.82777,-0.2397 -1.21833,-0.41804c-1.25954,-0.57514 -2.0325,4.00788 -3.16888,3.21678c-1.04076,-0.72454 -2.53807,-6.59095 -3.4277,-7.38441c-1.22822,-1.09547 -2.27074,-2.32878 -3.01246,-3.89906c0,0 -0.70201,-1.56948 0.86746,-2.2715c1.56947,-0.70201 2.27149,0.86748 2.27149,0.86748c1.02512,2.50462 3.87801,4.22708 6.23374,5.44949c0.66577,0.34548 4.08066,2.12872 4.31153,2.52544c1.08604,1.86625 -0.14879,8.43649 2.97058,9.37522c1.03387,0.31113 3.40225,0.12956 4.56386,-0.0035l1.72483,-0.17104c0,0 4.50608,0.07272 4.67576,1.78365z" fill="#0d0d0d" stroke="none" stroke-width="0.5" stroke-linecap="butt"/><path d="M511.6126,285.87459c0.16968,1.71093 -1.54126,1.8806 -1.54126,1.8806l-2.29979,0.22806c-0.71433,0.07084 -1.10118,5.05957 -1.80447,5.14006c-1.3833,0.15831 -3.06755,-4.60222 -4.41112,-4.60243c-1.97336,-0.00031 -3.906,-0.31165 -5.80424,-1.34549c-2.02277,-1.10165 -5.67081,-4.55403 -7.02673,-6.30823c-0.83819,-1.08437 -0.94812,-2.67645 -1.93426,-3.62825c-3.93863,-3.80154 -10.21153,-3.58036 -15.22637,-3.08305c0,0 -1.71092,0.16968 -1.8806,-1.54127c-0.16968,-1.71093 1.54127,-1.88061 1.54127,-1.88061c5.05726,-0.50152 11.37255,-0.7013 15.83888,2.3045c1.27767,0.85987 2.97528,2.36569 3.75934,3.74797c0.36461,0.64279 0.26106,1.51419 0.71224,2.09947c0.59667,0.774 1.58688,1.14914 2.30395,1.81314c2.1962,2.03371 3.63681,3.87123 6.62156,4.62776c1.7755,0.45002 5.06676,-0.5766 6.9712,-0.76546l2.29977,-0.22807c0,0 1.71092,-0.16967 1.8806,1.54127z" fill="#0d0d0d" stroke="none" stroke-width="0.5" stroke-linecap="butt"/></g><g><g><g stroke-linecap="butt"><g><path d="M294.88239,235.02347c-0.33282,0.9442 -0.64507,1.91617 -0.9406,2.90977c-0.12081,0.31878 -0.21726,0.64954 -0.2871,0.99c-0.20146,0.71219 -0.39519,1.43419 -0.58255,2.16383c-0.80853,1.77646 -1.51226,3.63747 -1.81962,4.95364c-1.54805,1.03067 -1.43153,3.18048 -0.47158,5.28423c-1.90006,9.10111 -3.77229,17.87752 -8.00136,22.52167c-2.88168,3.16452 -6.68939,4.62195 -10.64988,5.08808c-1.28166,0.15086 -8.31541,13.11443 -9.60286,13.08194c-1.54261,-0.03897 2.66548,-13.10867 1.19724,-13.33433c-3.34153,-0.51354 -6.37367,-1.40249 -8.56505,-2.17493c-4.68243,-1.65049 -17.23164,-7.95917 -18.90183,-14.6697c-0.98597,-3.96147 -0.21267,-8.40953 1.45836,-13.27315c0.31429,-0.34196 0.54601,-0.70443 0.66062,-1.07831c0.17119,-0.55843 0.28713,-1.12819 0.36992,-1.70485c1.14691,-2.90943 2.5413,-5.95411 4.01519,-9.1202c0.63371,-0.69474 1.15386,-1.39714 1.40784,-1.8514c1.38386,-2.47511 3.79097,-7.90061 4.99995,-12.66318c0.36652,-0.94693 0.72093,-1.90133 1.05987,-2.8629c0.37014,-1.05008 0.75242,-2.08728 1.14605,-3.11077c0.84877,-1.1666 1.59721,-2.37738 2.12747,-3.69649c0.19794,-0.49242 0.25683,-1.16782 0.20855,-1.92685c2.8476,-6.3644 6.1218,-12.07174 9.60185,-16.89148c2.60186,-0.77541 4.87204,-2.61942 6.10655,-5.27493c0.43781,-0.94176 0.71363,-1.9173 0.83893,-2.89524c6.8237,-6.67857 13.86764,-9.74181 19.69393,-7.68811c11.27622,3.97474 14.08642,25.74005 7.13684,50.27899l-0.33557,0.19175c-0.58491,0.33424 -0.91138,2.48622 -1.11587,4.54033c-0.24311,0.73607 -0.49488,1.47374 -0.75532,2.21262z" fill="url(#color-3)" stroke="#4f0000" stroke-width="2"/><path d="M282.53089,212.34152c7.06281,3.28341 12.59488,8.52049 16.25213,14.76935l-2.02946,1.15969c-0.88921,0.50812 -1.18113,5.21735 -1.35518,7.39706c-1.0646,1.07735 -1.75539,2.5249 -1.86194,4.13219c-0.07968,0.23315 -0.14648,0.47228 -0.19955,0.71653c-0.91696,1.93965 -1.74388,4.06633 -2.08437,5.52437c-1.58746,1.05691 -1.42452,3.29066 -0.39664,5.44478c-0.00035,0.02797 -0.00053,0.05598 -0.00053,0.08404c0,0.28234 0.018,0.56048 0.05292,0.83333c-0.03492,0.27285 -0.05292,0.55099 -0.05292,0.83333c0,0.54461 0.06698,1.07358 0.19315,1.57911c-0.75147,1.06033 -1.19315,2.3557 -1.19315,3.75422c0,0.26843 0.01627,0.53306 0.04788,0.79295c-0.6628,1.01861 -1.04788,2.23453 -1.04788,3.54038c0,3.55798 -23.59243,17.44438 -39.05391,10.25653c-11.95914,-5.55965 -12.04963,-23.63645 -11.42525,-25.6732c0.68149,-2.22304 0.48733,-4.62568 0.8125,-6.92799c0.14355,-1.01639 1.21575,-1.60598 1.93095,-2.38931c1.28583,-0.93585 2.59459,-2.54553 3.04949,-3.35915c1.50714,-2.69561 4.22798,-8.89071 5.29296,-13.91769c0.46428,-0.89489 0.7266,-1.91141 0.7266,-2.9892c0,-0.06186 -0.00086,-0.12352 -0.00258,-0.18497c1.32431,-1.64988 2.54887,-3.33221 3.31636,-5.24147c0.12155,-0.30239 0.19067,-0.67377 0.21473,-1.09115c9.00839,-3.48058 19.36474,-3.43646 28.81369,0.95625z" fill="url(#color-4)" stroke="none" stroke-width="0"/></g><path d="M288.97806,247.36498c-3.33155,7.16638 -9.08044,17.45388 -14.4973,19.13626c-2.81721,0.87497 -5.33713,-4.36986 -7.82186,-5.52497c-2.58507,-1.20175 -21.46611,-0.14603 -22.60079,-3.02377c-0.79916,-2.02682 1.14742,-4.43117 4.26449,-7.56124c1.71731,-1.72449 1.33366,-6.41201 3.36201,-8.34258c1.63323,-1.55449 5.69431,-0.35749 7.06005,-1.76775c1.76835,-1.82599 3.20504,-3.57339 3.93429,-5.14207c0.87435,-1.88078 2.91878,-7.37286 5.19359,-13.14881c0.58318,-1.48078 -2.32501,-4.61037 -1.72738,-6.07238c0.83501,-2.04266 5.17521,-2.38214 5.96431,-4.12583c1.45065,-3.20546 2.7508,-5.64736 3.63219,-6.37574c3.12452,-2.58214 -1.57424,5.4785 0.10736,11.10353c0.44676,1.49442 3.4829,-1.7451 5.57587,-0.92476c1.90546,0.74686 2.8653,5.60364 3.5732,5.93273c1.83884,0.85484 3.3263,2.23488 4.44025,3.99616c3.28549,5.19474 3.32167,13.70606 -0.46027,21.84124z" fill="#5e0000" stroke="none" stroke-width="0"/></g><path d="M288.16537,180.77951l-2.04669,-10.6238l11.05605,1.64704" fill="none" stroke="#000000" stroke-width="1" stroke-linecap="round"/></g><path d="M210.32297,287.07313c-1.71927,0.01383 -1.73309,-1.70545 -1.73309,-1.70545l-0.01393,-1.73323c0.00834,-2.76757 0.64911,-4.12335 2.18524,-6.43339c2.24112,-1.5658 3.94226,-3.02739 6.75595,-3.43393c5.10649,-0.73781 10.31158,1.33702 15.53853,0.46221c3.31516,-0.55484 3.85456,-2.97236 6.03203,-4.84035c0.65369,-0.5608 1.64441,-0.6175 2.30171,-1.17407c0.55969,-0.47392 0.65536,-1.37162 1.23518,-1.8207c0.62901,-0.4872 1.48424,-0.57362 2.22637,-0.86042c0,0 1.62668,-0.55679 2.18347,1.06988c0.55679,1.62667 -1.06988,2.18346 -1.06988,2.18346c-0.97487,0.25578 -1.50985,1.33573 -2.27877,1.98729c-0.65709,0.55681 -1.64057,0.62206 -2.30169,1.17407c-2.69049,2.24641 -3.7332,4.94707 -7.7503,5.67054c-2.86397,0.51579 -7.42893,0.53108 -10.37248,0.08337c-2.35058,-0.35751 -4.72177,-1.14895 -7.11852,-0.06757c-1.07429,0.4847 -1.94279,1.33523 -2.9306,1.97808c-0.94998,1.48869 -1.2388,2.22612 -1.19766,3.99391l0.01394,1.73324c0,0 0.01381,1.71926 -1.70545,1.73308z" fill="#0d0d0d" stroke="none" stroke-width="0.5" stroke-linecap="butt"/><path d="M209.34832,261.47697c-1.54393,-0.75652 -0.78741,-2.30046 -0.78741,-2.30046l0.67422,-1.34579c2.67651,-3.96513 4.33004,-3.52314 8.57445,-3.1331c2.08392,0.1915 4.30434,-0.12575 6.24312,0.662c2.63318,1.0699 5.03523,3.06253 7.81961,3.88065c2.48791,0.73102 6.26248,-0.09634 8.84857,-0.11712c0,0 1.71927,-0.01382 1.7331,1.70545c0.01382,1.71927 -1.70545,1.73308 -1.70545,1.73308c-2.88689,0.0232 -6.81181,0.78062 -9.63932,0.03148c-3.00961,-0.79738 -2.31917,4.0861 -5.10378,2.86983c-1.86172,-0.81318 -6.50137,-7.15736 -8.58374,-7.34869c-3.12555,-0.28719 -3.46252,-1.34079 -5.3102,1.60077l-0.4627,0.97448c0,0 -0.75653,1.54393 -2.30047,0.78742z" fill="#0d0d0d" stroke="none" stroke-width="0.5" stroke-linecap="butt"/><path d="M246.02024,294.46326c-1.09228,1.32779 -2.42007,0.23553 -2.42007,0.23553l0.6278,-0.13563c-0.91905,-0.01925 -2.00439,0.46987 -2.75715,-0.05774c-3.19138,-2.23681 -0.68431,-6.5951 0.30866,-9.15631c2.28012,-5.88127 8.66346,-11.02024 14.07716,-13.82484c0,0 1.52699,-0.79017 2.31716,0.73683c0.79015,1.52699 -0.73682,2.31715 -0.73682,2.31715c-0.38643,0.19972 0.99876,4.44083 0.20235,5.229c-1.27549,1.26227 -4.7597,-0.61172 -4.58211,0.93392c0.41862,3.64373 5.02305,7.06167 3.67518,8.31631c-1.68915,1.57234 -9.87885,-5.96431 -10.8441,-4.13257c-0.5668,1.07561 -0.85933,2.27475 -1.29517,3.40976c-0.24892,0.64823 -0.69609,1.20437 -0.98221,1.83707c-0.19538,0.43207 -0.88205,1.39722 -0.40914,1.36244c0.26498,-0.01949 0.46208,-0.26236 0.69313,-0.39352l1.88982,0.90253c0,0 1.32779,1.09227 0.23552,2.42006z" fill="#0d0d0d" stroke="none" stroke-width="0.5" stroke-linecap="butt"/><path d="M305.75692,294.78566c-0.49492,1.64655 -2.14147,1.15165 -2.14147,1.15165l-0.55333,-0.16631c-2.78367,-0.85224 -7.40399,-2.7754 -8.73356,-5.71025c-0.38656,-0.85327 0.11736,-1.8809 -0.00002,-2.81028c-0.17303,-1.37022 -0.73563,-2.70829 -0.67446,-4.08802c0.0396,-0.89334 0.4032,-1.77989 0.29024,-2.66695c-0.12562,-0.98647 -0.90551,-1.82388 -0.98825,-2.81487c-0.05362,-0.64223 0.04662,-1.28476 0.19181,-1.92062c-0.6068,0.2529 -1.42533,0.32311 -1.95706,0.47869c-0.5078,0.14856 -6.76598,1.71902 -7.0611,1.71153c-2.01515,-0.05116 -5.53544,-1.59968 -7.6201,-2.22629c0,0 -1.64656,-0.49492 -1.15165,-2.14147c0.49492,-1.64655 2.14147,-1.15164 2.14147,-1.15164c1.74023,0.52307 4.98909,2.03657 6.71244,2.08172c1.61244,0.04226 6.11403,-1.05822 7.5011,-1.93031c0.76165,-0.47887 1.11253,-1.99846 1.99413,-1.8189c4.8097,0.97956 2.419,3.88928 2.66817,6.55197c0.09098,0.97218 0.8655,1.79034 0.98192,2.75979c0.23981,1.9966 0.18094,4.68552 0.3834,6.74835c0.06387,0.65077 -0.45571,1.33742 -0.22389,1.94883c0.67285,1.77461 5.00325,3.25533 6.53527,3.7056l0.55331,0.16632c0,0 1.64656,0.49492 1.15164,2.14147z" fill="#0d0d0d" stroke="none" stroke-width="0.5" stroke-linecap="butt"/></g><path d="M369.14138,218.52666c0,0 19.54219,22.69409 25.63765,34.79072c5.20042,10.32039 8.67815,33.31015 8.67815,33.31015" fill="none" stroke="#0d0d0d" stroke-width="3.5" stroke-linecap="round"/><path d="M306.15266,278.27637c0,0 5.99842,-24.34306 11.90322,-35.04646c6.34257,-11.49689 24.93287,-31.72482 24.93287,-31.72482" fill="none" stroke="#0d0d0d" stroke-width="3.5" stroke-linecap="round"/><g stroke-linecap="butt"><path d="M395.03609,192.11513c-0.40744,1.67051 -1.81103,9.63998 -3.25133,17.5283c-0.14925,0.09409 -0.29579,0.19209 -0.43948,0.29386c-2.11576,1.37016 -3.69998,3.60821 -4.07115,6.74962c-0.05397,0.41689 -0.08179,0.84198 -0.08179,1.27357c0,1.65013 0.40681,3.20525 1.12562,4.57052c0.25051,0.50101 0.47537,0.96412 0.71026,1.40202c-0.2874,1.3056 -0.52411,2.2481 -0.68854,2.68421c-9.92307,26.31629 -28.12633,17.92233 -48.48331,12.95721c-14.87516,-3.62809 -35.18573,-17.83167 -38.38693,-36.11532c-1.1628,-6.64132 8.93704,-8.94826 12.7281,-16.35494c0.91429,-1.78627 0.20423,-4.96256 -0.53618,-8.06078c-0.01927,-0.08926 -0.04041,-0.17765 -0.06344,-0.2651c-0.63172,-2.63706 -1.25242,-5.18688 -0.8738,-6.73924c1.82551,-7.48462 4.59322,-14.38554 8.05517,-20.48953c2.71865,-1.55519 5.38564,-3.20434 7.99164,-4.94167c1.68461,-1.12307 1.63503,-4.25494 0.90991,-7.40708c1.57809,-1.72793 -27.00895,-20.02693 -27.00895,-20.02693c0,0 51.37577,10.4852 62.7758,13.26569c8.48796,2.07023 58.2862,-5.29785 58.2862,-5.29785c0,0 -4.48713,5.10817 -8.51861,8.4048c-2.94556,2.40866 -5.1899,2.47627 -7.53643,5.69791c-5.79874,7.96129 -6.65639,17.18434 -6.02605,21.63647c0.17755,1.25404 0.22718,2.52548 0.17432,3.81231c-7.60388,2.66001 -8.03438,8.75974 -5.89572,15.73612c0.2757,0.89934 0.74136,1.61925 1.33297,2.2058c-0.82565,2.4763 -1.61688,4.97347 -2.22825,7.48008z" fill="url(#color-5)" stroke="#4f0000" stroke-width="2"/><path d="M344.44374,154.60992c20.34764,0 36.84266,16.49501 36.84266,36.84266c0,20.34764 -16.49501,36.84265 -36.84266,36.84265c-19.87585,0 -36.07567,-15.73896 -36.81621,-35.43366c2.7231,-1.24573 4.34964,-4.1591 5.10767,-7.53643c1.18864,-2.79959 1.53149,-5.76108 0.34089,-7.83511c-0.17031,-1.40822 -0.46045,-2.74193 -0.85422,-3.91557c6.28936,-11.31116 18.36184,-18.96453 32.22187,-18.96453z" fill="url(#color-6)" stroke="none" stroke-width="0"/><path d="M395.03609,192.11513c-0.42685,1.75009 -2.17104,10.05471 -3.89288,17.95677c-2.01416,1.38013 -3.50984,3.57442 -3.86908,6.61502c-0.05397,0.41689 -0.08179,0.84198 -0.08179,1.27357c0,1.64842 0.40597,3.20203 1.12339,4.56629c-0.33728,1.35878 -0.60735,2.34553 -0.77992,2.80321c-0.55492,1.47168 -0.81564,2.87815 -1.22804,4.19976c-0.63081,2.02154 -1.56119,3.84454 -2.56978,5.39865c-1.23735,1.90662 -2.79047,3.59298 -4.45323,4.82446c-0.90919,0.67335 -1.96534,1.42228 -2.75577,1.93593c-9.59042,6.23216 -22.49979,0.70143 -36.67261,-2.75536c-14.87516,-3.62809 -33.45685,-14.75816 -36.65805,-33.04182c-1.1628,-6.64132 12.88223,15.19813 16.67328,7.79146c1.72001,-3.36043 7.24272,1.03161 8.07804,-2.39322c2.8646,-11.74484 9.15794,9.21412 15.70455,1.16778c11.1537,-13.70882 9.56964,-19.85999 23.89264,-16.36658c15.46284,3.77143 17.36302,-15.73409 20.09985,3.59652c1.28621,9.08469 9.86562,-17.72483 7.38942,-7.57242z" fill="#520000" stroke="#4f0000" stroke-width="0"/><path d="M336.00849,171.40751c0,-20.34764 16.49501,-36.84265 36.84265,-36.84265c13.1755,0 24.73565,6.91606 31.24816,17.31585c-0.20061,0.6561 -0.37092,1.40534 -0.56394,2.27393c-0.78306,3.52376 -0.49855,7.91219 -0.58625,12.186c-8.67966,2.4402 -9.25706,8.78384 -7.01772,16.08863c0.29603,0.96564 0.81106,1.72444 1.46586,2.33339c-1.13842,3.20627 -1.95359,6.50208 -2.06188,9.63209c-0.08066,2.33152 -2.24736,4.89581 -1.6405,7.32325c0.00521,0.02083 0.0105,0.04164 0.01587,0.06241c-5.93074,4.08092 -13.11618,6.46975 -20.85957,6.46975c-20.34764,0 -36.84265,-16.49501 -36.84265,-36.84266z" fill="url(#color-7)" stroke="none" stroke-width="0"/><path d="M379.4985,230.69366c-0.87727,0.7353 -0.83097,3.3715 -1.86395,4.01008c-1.70223,1.05229 -4.58322,0.06608 -6.42267,1.20871c-3.6241,2.25119 -7.2098,4.69054 -9.85214,4.32648c-2.495,-0.34375 -9.88824,-3.21896 -9.88824,-3.21896c0,0 2.53264,-5.99735 -0.49794,-7.55926c-4.66967,-2.40665 -10.13948,-5.25018 -10.0395,-6.84865c0.11612,-1.85647 2.49185,-3.01048 6.03537,-4.30169c1.95226,-0.71138 3.35318,-4.47454 5.62056,-5.23261c1.82569,-0.6104 4.53206,1.78575 6.09872,1.18999c2.02849,-0.77138 3.77208,-1.60213 4.90398,-2.55086c1.35712,-1.13751 4.9267,-4.64339 8.77721,-8.28531c0.98714,-0.93367 -0.12801,-4.40653 0.86352,-5.32048c1.38532,-1.27692 4.86392,0.03239 6.1055,-1.02999c2.2824,-1.95299 1.91606,0.05156 1.17916,5.00957c-0.19577,1.31722 3.32482,-0.08794 4.64593,1.30427c1.20274,1.26747 0.18601,5.37016 0.61415,5.88097c1.11212,1.32685 1.76241,2.93251 1.98585,4.69765c0.02781,0.21966 0.0229,0.40872 -0.01058,0.57213c-0.02807,0.08218 -0.05519,0.16517 -0.08131,0.249c-0.71615,1.53069 -4.73399,0.1813 -6.19193,2.93155c-0.81921,1.54535 6.52974,4.18358 6.46873,7.15171c-0.04484,2.18184 -7.30325,4.85415 -8.45043,5.81569z" fill="#460000" stroke="none" stroke-width="0"/></g><g stroke-linecap="butt"><path d="M407.37167,272.85429c4.04071,0.25966 10.56774,-2.66106 10.56774,-2.66106c0,0 9.88101,25.63754 7.96545,38.83668c-0.1636,1.1273 -0.17459,2.33339 -0.08233,3.59022c-1.74011,5.58252 -0.4476,12.22349 2.98619,16.72346c0.14486,2.37505 -0.14902,4.46945 -1.28591,6.05382c-2.71929,3.7896 -4.72054,1.21914 -10.63177,2.02752c-5.96769,0.8161 -15.85024,4.99172 -19.58002,4.75203c-4.97722,-0.31986 -9.39369,-3.00426 -15.93277,-5.29135c-2.80721,-0.98184 -10.37776,0.69308 -11.35586,-1.5924c-2.70074,-6.31065 7.49595,-20.61334 8.75545,-29.29186c0.8254,-5.68743 4.57643,-14.66066 8.23261,-22.41561c3.93883,-1.27974 6.7861,-4.98027 6.7861,-9.3458c0,-1.10541 -0.18255,-2.16817 -0.51916,-3.1598c0.89483,-1.68979 1.44349,-2.68569 1.44349,-2.68569c0,0 7.6377,4.13769 12.65078,4.45985z" fill="url(#color-8)" stroke="#4f0000" stroke-width="2"/><path d="M401.70939,339.33134c-2.24347,-1.11096 -2.19754,-8.88554 -3.58259,-8.74204c-2.80665,0.29078 -2.54059,5.71366 -4.54681,4.28557c-1.26263,-0.89878 -1.656,-5.4659 -2.34493,-7.00712c-0.26522,-0.59334 -4.25516,2.06558 -4.87458,0.46462c-0.68037,-1.75851 1.34391,-4.4337 0.30181,-4.77206c-3.92251,-1.2736 -5.52727,-1.72579 -3.43321,-3.05048c1.13912,-0.7206 1.11548,-4.42446 2.45515,-5.1925c0.95886,-0.54971 3.25686,1.83795 4.22932,1.30001c1.63157,-0.90254 3.45999,-0.0399 4.84951,-0.79585c1.84096,-1.00155 3.08533,-3.53949 3.78474,-3.99367c1.02364,-0.66473 -1.37903,-4.00953 -0.24138,-5.56595c0.87865,-1.20207 3.33323,-2.55233 4.29424,-3.98613c1.19351,-1.78067 4.40264,-1.58558 5.47429,-3.09571c1.94513,-2.741 3.46552,-4.46536 4.89022,-3.84196c1.22672,0.53677 1.8526,6.6693 2.37126,11.89651c0.33659,3.39242 8.44242,7.48203 8.44242,7.48203c0,0 -6.57711,2.09268 -7.00676,4.5152c-0.45503,2.56556 0.5149,6.65584 -2.17261,9.09332c-1.36407,1.23717 -1.41814,4.26613 -2.67662,5.41301c-0.76371,0.69597 -3.90663,2.89926 -4.7,3.41445c-1.03746,0.6737 -3.86433,2.99537 -5.51349,2.17871z" fill="#510000" stroke="none" stroke-width="0"/><path d="M389.16451,309.55267c0,0.50797 0.3338,2.05573 -0.457,2.31473c-0.45599,0.14934 -1.85741,-0.86462 -2.44322,-0.86462c-1.60174,0 -2.90021,-0.64924 -2.90021,-1.45011c0,-0.41789 0.9984,-0.37126 1.59596,-1.04994c0.54761,-0.62196 0.66062,-1.99021 1.42657,-1.99021c0.63304,0 0.85177,1.81377 1.32863,1.98587c0.72971,0.26336 1.44926,0.56993 1.44926,1.05428z" fill="#510000" stroke="none" stroke-width="0"/></g><path d="M391.48018,189.41824h7.50186v7.50186" fill="none" stroke="#000000" stroke-width="1" stroke-linecap="round"/><g><path d="M336.97381,302.09707c1.2595,8.67852 7.19881,20.68878 4.49808,26.99944c-1.14646,2.67886 0.363,3.39322 -3.14604,4.34789c-6.45834,1.75706 -12.00087,-5.94763 -16.61032,-5.6514c-3.28895,0.21136 -2.02283,-2.18872 -7.30546,-2.70678c-0.8918,-0.08746 -9.47857,1.35919 -10.07634,1.08409c-3.85434,-1.7738 -6.59251,0.48033 -9.22758,-3.19191c-4.11408,-5.73336 23.11559,-6.35584 21.92235,-14.57784c-1.70588,-11.75443 -8.45297,-19.28766 -8.45297,-19.28766c0,0 -16.09273,-11.71719 -11.06988,-12.03998c5.70781,-0.3668 23.97005,-2.8179 23.97005,-2.8179c0,0 13.93847,17.09517 15.49814,27.84206z" fill="#0e0e0e" stroke="#0b0b0b" stroke-width="1.5" stroke-linecap="butt"/><g stroke-linecap="butt"><path d="M346.19795,331.38893c-1.14646,2.67886 -5.20433,1.1008 -8.71337,2.05546c-6.45834,1.75706 -13.96581,4.53206 -18.57526,4.82829c-3.28895,0.21136 -12.17503,-3.49867 -17.45766,-4.01674c-6.64207,-0.65139 -9.71037,1.47896 -12.75413,-2.76281c-4.11407,-5.73336 2.81119,-18.14549 1.61795,-26.36749c-1.70588,-11.75443 8.24903,-35.98966 8.24903,-35.98966c0,0 5.26131,0.13684 10.28416,-0.18595c5.70781,-0.3668 10.97343,-6.87934 10.97343,-6.87934c0,0 4.542,8.2803 9.02977,17.65035c-2.67717,2.85388 -4.9182,6.47179 -5.2729,8.27349c-0.1513,0.7685 4.11632,7.67108 4.91235,8.59662c0.22619,0.26299 2.55835,0.94178 2.76166,1.0179c0.76433,0.28618 -1.18037,1.3609 -1.12421,2.17513c0.12548,1.81957 3.27536,7.70126 4.91236,8.59662c1.12502,0.61534 2.82718,1.03807 4.74638,1.22698c3.27626,7.94272 8.42245,17.07976 6.41043,21.78115z" fill="url(#color-9)" stroke="#4f0000" stroke-width="2"/><path d="M287.40362,303.70194c0,-16.35353 13.25716,-29.61068 29.61069,-29.61068c5.08906,0 9.87827,1.28382 14.06142,3.54525c-3.56085,2.86354 -7.04678,8.07233 -7.49677,10.35803c-0.1513,0.7685 4.11632,7.67108 4.91236,8.59662c0.22619,0.26299 2.55834,0.94178 2.76165,1.0179c0.76433,0.28618 -1.18037,1.3609 -1.12421,2.17513c0.12548,1.81957 3.27536,7.70126 4.91236,8.59662c2.29586,1.25574 6.99515,1.70934 11.03779,1.01063c-2.65294,13.63148 -14.65713,23.9212 -29.06461,23.9212c-16.35354,0 -29.61069,-13.25716 -29.61069,-29.61069z" fill="url(#color-10)" stroke="none" stroke-width="0"/><path d="M299.81638,302.33651c1.10326,-0.70977 2.31858,-1.1028 3.59508,-1.1028c0.49142,0 0.57127,-7.30683 0.57127,-7.30683c0,0 3.0207,1.40247 4.3481,3.12147c1.47561,1.91091 1.28913,4.14123 1.63216,3.75456c2.45263,-2.76466 3.41183,-3.92111 3.38927,-1.70638c-0.01227,1.20475 5.96108,5.76359 5.96108,5.76359c0,0 -6.18877,0.18218 -6.24883,1.18221c-0.23424,3.90076 -0.52465,7.57833 -0.52465,8.88397c0,1.08896 0.35638,2.4677 0.88125,3.9793c0.40536,1.16745 3.04119,1.56185 3.56097,2.88261c0.64553,1.64029 -0.8174,4.21427 -0.29474,5.65438c0.94869,2.61392 1.4218,4.50295 0.42774,5.44784c-1.41138,1.34159 -11.90909,-4.27154 -13.70363,-4.27154c-1.72489,0 -4.55515,2.32519 -5.9311,1.07812c-1.11841,-1.01365 -1.86262,-2.92084 -2.34912,-5.16082c-0.23943,-1.10237 -3.58772,-3.48205 -3.58772,-3.48205c0,0 2.73956,-4.29102 2.73956,-6.12784c0,-3.02098 0.65222,-5.81345 1.75696,-8.07788c0.48314,-0.99031 0.17097,-5.07713 0.17097,-5.07713c0,0 2.85327,1.04908 3.60537,0.56522z" fill="#510000" stroke="none" stroke-width="0"/></g><path d="M325.23832,264.29402l5.35997,2.19272l-9.25813,7.06542" fill="none" stroke="#000000" stroke-width="1" stroke-linecap="round"/></g><g><path d="M411.13287,115.39156l8.28359,3.89816l-0.24364,5.84725" fill="none" stroke="#000000" stroke-width="1" stroke-linecap="round"/><path d="M414.80596,83.73132c0,34.06271 -21.72801,55.32059 -48.53085,55.32059c-26.80284,0 -48.29329,-21.25787 -48.29329,-55.32058c0,-11.95595 2.43933,-23.11735 7.07298,-32.56897c2.13224,-4.3493 6.4121,-6.60326 9.30286,-10.1393c2.72156,-3.32908 4.01489,-7.99152 7.28803,-10.44629c7.21989,-5.41473 15.63918,-8.04632 24.62942,-8.04632c26.80285,0 48.53086,27.13819 48.53086,61.2009z" fill="url(#color-11)" stroke="#0a0a0a" stroke-width="1.5" stroke-linecap="butt"/><path d="M417.98224,81.38239c0,6.19409 -0.97915,12.17914 -2.34971,17.83286c-0.45767,1.88796 -3.37321,3.73897 -3.91451,5.5485c-0.66198,2.21291 1.01948,4.36374 0.09738,6.44419c-0.43888,0.9902 -0.70684,18.63077 -1.243,19.64386c-0.62938,1.18923 -1.53624,-14.25384 -2.15539,-13.17784c-9.34951,16.24825 -24.60426,26.62916 -42.1419,26.62916c-28.55705,0 -51.70712,-28.17056 -51.70712,-62.92072c0,-4.57095 1.45095,-8.07493 3.52348,-11.08326c1.32215,0.66222 2.81449,1.03489 4.39387,1.03489c5.42603,0 9.82471,-4.39868 9.82471,-9.82471c0,-2.14963 -0.69037,-4.138 -1.86149,-5.75551c0.26362,-0.3882 0.55344,-0.81609 0.85396,-1.26104c4.80853,-0.6388 8.51848,-4.75548 8.51848,-9.73864c0,-0.37985 -0.02156,-0.75466 -0.06352,-1.12329c0.20463,-0.5368 0.36355,-1.09617 0.47201,-1.67334c3.18669,-1.62431 5.36916,-4.93662 5.36916,-8.75866c0,-1.23663 -0.22848,-2.41993 -0.64552,-3.50993c1.70552,-0.26627 3.67028,-0.21666 5.74506,-1.41234c0.09842,-0.05672 0.19426,-0.11458 0.28768,-0.17352c1.33158,0.67423 2.83748,1.05413 4.43211,1.05413c4.86717,0 8.90771,-3.53924 9.68841,-8.1845c0.38931,-0.01433 0.77894,-0.02156 1.16872,-0.02156c28.55706,0 51.70713,25.68114 51.70713,60.43129z" fill="url(#color-12)" stroke="#4f0000" stroke-width="2" stroke-linecap="butt"/><path d="M372.25666,24.37726l2.10989,-5.86083l4.45423,-0.70331" fill="none" stroke="#000000" stroke-width="1" stroke-linecap="round"/><path d="M317.16484,95.8794l-3.98537,2.34434l-1.4066,-3.98537" fill="none" stroke="#000000" stroke-width="1" stroke-linecap="round"/><path d="M321.3298,71.65074c0,0 8.24104,20.70781 19.14678,38.15964c1.59132,2.5465 3.8344,4.84507 5.53329,6.89782c3.58784,4.33514 10.54566,3.38086 10.54566,3.38086c0,0 6.57993,9.63347 9.26218,9.63347c4.72808,0 15.35723,-13.35943 15.35723,-13.35943c0,0 10.66286,-2.0856 13.40462,-6.35268c10.96107,-17.05904 17.45937,-38.35969 17.45937,-38.35969l-3.06182,17.11188c0,0 0.46251,3.64308 -0.38645,7.42328c-0.59635,2.65541 -2.42517,5.37851 -2.98923,6.95403c-2.19311,6.12578 -10.26071,21.1285 -10.26071,21.1285c0,0 -1.2271,8.12345 -3.37354,11.6503c-3.02465,4.96987 -11.22568,0.01736 -11.22568,0.01736l-1.02882,4.90846c0,0 -3.96651,-1.03675 -5.75313,0.22188c-3.01181,2.12175 -6.18447,4.09564 -7.56406,4.09564c-6.94594,0 -16.29178,-15.21477 -16.29178,-15.21477c0,0 -2.83334,5.73904 -4.86909,4.67233c-2.09234,-1.09637 -4.05324,-8.85292 -4.05324,-8.85292l-5.69916,-1.41891c0,0 0.41777,-2.09367 -0.3892,-4.27095c-0.83268,-2.24662 -2.89755,-4.59124 -3.34168,-5.40775c-1.18833,-2.18469 -3.35529,-9.11868 -3.94455,-10.98177c-0.77861,-2.46174 -3.90746,-4.69361 -4.68976,-8.34828c-0.69937,-3.26721 0.94068,-7.90359 0.35136,-11.12762c-1.25431,-6.86198 -2.1386,-12.56069 -2.1386,-12.56069z" fill="#000000" stroke="none" stroke-width="0" stroke-linecap="butt"/><g stroke="none" stroke-linecap="butt"><path d="M359.42236,77.2476c0,12.37717 -2.14244,22.30299 -4.68525,28.54265c-1.62761,3.99391 -3.13394,6.76291 -5.28239,6.76291c-2.47716,0 -4.74325,-3.03851 -6.48666,-8.23056c-0.61987,-1.84605 -1.75143,12.24726 -2.22513,9.89651c-0.3014,-1.49567 0.00741,-19.29701 -0.22555,-20.97065c-0.65957,-4.73881 -1.0303,-10.14994 -1.0303,-16.00084c0,-10.38295 1.81027,-17.6675 3.6876,-24.35165c1.79302,-6.38397 3.59077,-12.40402 6.28003,-12.40402c5.50497,0 9.96764,16.45607 9.96764,36.75567z" fill="#000000" stroke-width="0"/><path d="M352.18445,77.48818c0,-0.40695 0.32989,-0.73685 0.73685,-0.73685c0.40696,0 0.73685,0.3299 0.73685,0.73685c0,0.40695 -0.32989,0.73686 -0.73685,0.73686c-0.40696,0 -0.73685,-0.32991 -0.73685,-0.73686z" fill="#ffffff" stroke-width="0.5"/></g><g stroke-linecap="butt"><path d="M394.72025,78.49357c0,3.3333 -0.12034,6.56296 -0.34584,9.63313c-0.07331,0.99815 0.81417,3.59931 0.71914,4.56182c-0.22534,2.28231 -1.48219,2.83919 -1.81975,4.88478c-1.7489,10.59805 -4.91089,17.67591 -8.52119,17.67591c-5.50497,0 -9.96764,-16.45607 -9.96764,-36.75566c0,-14.19188 1.53327,-27.80106 4.72694,-33.9259c1.37445,-2.63593 3.58436,-2.82977 5.2407,-2.82977c5.50497,0 9.96764,16.45607 9.96764,36.75567z" fill="#000000" stroke="#000000" stroke-width="0"/><path d="M380.73939,77.33801c0,-0.40695 0.32989,-0.73685 0.73685,-0.73685c0.40696,0 0.73685,0.3299 0.73685,0.73685c0,0.40695 -0.32989,0.73686 -0.73685,0.73686c-0.40696,0 -0.73685,-0.32991 -0.73685,-0.73686z" fill="#ffffff" stroke="none" stroke-width="0.5"/></g></g></g></g></svg>