<svg version="1.1" xmlns="http://www.w3.org/2000/svg" xmlns:xlink="http://www.w3.org/1999/xlink" width="185.24815" height="414.6613" viewBox="0,0,185.24815,414.6613"><defs><linearGradient x1="170.32416" y1="393.70459" x2="170.32416" y2="395.66053" gradientUnits="userSpaceOnUse" id="color-1"><stop offset="0" stop-color="#000000" stop-opacity="0"/><stop offset="1" stop-color="#000000"/></linearGradient><linearGradient x1="208.25207" y1="393.70459" x2="208.25207" y2="395.66053" gradientUnits="userSpaceOnUse" id="color-2"><stop offset="0" stop-color="#000000" stop-opacity="0"/><stop offset="1" stop-color="#000000"/></linearGradient><linearGradient x1="189.56681" y1="128.54486" x2="189.56681" y2="133.981" gradientUnits="userSpaceOnUse" id="color-3"><stop offset="0" stop-color="#000000" stop-opacity="0"/><stop offset="1" stop-color="#000000"/></linearGradient></defs><g transform="translate(-125.83837,-8.78409)"><g stroke-miterlimit="10"><g><g stroke="#2b2b2b" stroke-width="0"><g><path d="M179.52536,417.04616c-1.33686,5.25263 -5.70192,4.10794 -11.32607,4.11679c-7.52389,0.01186 -17.04938,-0.4925 -22.17653,-5.61965c-6.20341,-6.20341 -10.60114,-4.14924 -9.95078,-5.22203c1.04669,-1.72653 0.39895,-1.91922 3.15524,-4.67552c6.42647,-6.42645 17.79142,-11.55123 27.61829,-12.9461c2.28108,-0.32378 4.26008,-0.37573 6.2944,-0.09254c1.42032,0.1977 2.97995,0.55878 4.21293,1.10471c6.81272,3.01661 5.57151,13.32422 3.22673,22.68089c-0.60326,2.40723 -0.23749,-2.55549 -1.05421,0.65344z" fill="#323232"/><path d="M171.00296,408.10148c5.68983,0 10.30234,2.6168 10.30234,8.54874c0,5.93194 -4.61251,6.79515 -10.30234,6.79515c-5.68983,0 -10.30234,-0.86321 -10.30234,-6.79515c0,-5.93194 4.61251,-8.54874 10.30234,-8.54874z" fill="#2b2b2b"/><path d="M156.97424,408.10148c5.68982,0 10.30234,2.6168 10.30234,8.54874c0,5.93194 -4.61252,6.79515 -10.30234,6.79515c-5.68983,0 -10.30234,-0.86321 -10.30234,-6.79515c0,-5.93194 4.61251,-8.54874 10.30234,-8.54874z" fill="#2b2b2b"/><path d="M142.79941,407.22468c5.68982,0 10.30234,2.6168 10.30234,8.54874c0,5.93194 -4.61252,6.79515 -10.30234,6.79515c-5.68983,0 -10.30234,-0.86321 -10.30234,-6.79515c0,-5.93194 4.61251,-8.54874 10.30234,-8.54874z" fill="#2b2b2b"/><path d="M163.51663,394.63647c0.06158,-0.93187 3.09375,-1.74127 6.75215,-1.49952c3.65841,0.24176 6.55771,1.44312 6.49613,2.37499c-0.06158,0.93187 -3.06071,1.24134 -6.71912,0.99958c-3.65841,-0.24176 -6.59074,-0.94319 -6.52916,-1.87504z" fill="#000000"/></g><g><path d="M179.65062,416.92089c-1.33686,5.25263 -5.70192,4.10794 -11.32607,4.11679c-7.52389,0.01186 -17.04938,-0.4925 -22.17653,-5.61965c-6.20341,-6.20341 -10.60114,-4.14924 -9.95078,-5.22203c1.04669,-1.72653 0.39895,-1.91922 3.15524,-4.67552c6.42647,-6.42645 17.79142,-11.55123 27.61829,-12.9461c2.28108,-0.32378 4.26008,-0.37573 6.2944,-0.09254c1.42032,0.1977 2.97995,0.55878 4.21293,1.10471c6.81272,3.01661 5.57151,13.32422 3.22673,22.68089c-0.60326,2.40723 -0.23749,-2.55549 -1.05421,0.65344z" fill="#2f2f2f"/><path d="M171.12822,407.97623c5.68983,0 10.30234,2.6168 10.30234,8.54874c0,5.93194 -4.61251,6.79515 -10.30234,6.79515c-5.68983,0 -10.30234,-0.86321 -10.30234,-6.79515c0,-5.93194 4.61251,-8.54874 10.30234,-8.54874z" fill="#2b2b2b"/><path d="M157.09952,407.97623c5.68982,0 10.30234,2.6168 10.30234,8.54874c0,5.93194 -4.61252,6.79515 -10.30234,6.79515c-5.68983,0 -10.30234,-0.86321 -10.30234,-6.79515c0,-5.93194 4.61251,-8.54874 10.30234,-8.54874z" fill="#2b2b2b"/><path d="M142.92466,407.09943c5.68982,0 10.30234,2.6168 10.30234,8.54874c0,5.93194 -4.61252,6.79515 -10.30234,6.79515c-5.68983,0 -10.30234,-0.86321 -10.30234,-6.79515c0,-5.93194 4.61251,-8.54874 10.30234,-8.54874z" fill="#2b2b2b"/><path d="M163.64189,394.51122c0.06158,-0.93187 3.09375,-1.74127 6.75216,-1.49952c3.65841,0.24176 6.55771,1.44312 6.49613,2.37499c-0.06158,0.93187 -3.06071,1.24134 -6.71912,0.99958c-3.65841,-0.24176 -6.59074,-0.94319 -6.52916,-1.87504z" fill="#000000"/></g><path d="M170.60672,386.11213c2.62108,0 4.74591,2.1248 4.74591,4.74589c0,2.62109 -2.12481,4.74589 -4.74591,4.74589c-2.62108,0 -4.74588,-2.1248 -4.74588,-4.74589c0,-2.62109 2.1248,-4.74589 4.74588,-4.74589z" fill="#4e4e4e"/><path d="M162.82337,378.83809c0,-4.29863 3.48472,-7.78336 7.78336,-7.78336c4.29863,0 7.78336,3.48472 7.78336,7.78336c0,4.29863 -3.48472,7.78336 -7.78336,7.78336c-4.29863,0 -7.78336,-3.48473 -7.78336,-7.78336z" fill="#4e4e4e"/><path d="M162.82337,322.0002c0,-4.29863 3.48472,-7.78336 7.78336,-7.78336c4.29863,0 7.78336,3.48473 7.78336,7.78336c0,4.29863 -3.48472,7.78336 -7.78336,7.78336c-4.29863,0 -7.78336,-3.48473 -7.78336,-7.78336z" fill="#4e4e4e"/><path d="M162.82337,256.51669c0,-4.29863 3.48472,-7.78336 7.78336,-7.78336c4.29863,0 7.78336,3.48472 7.78336,7.78336c0,4.29863 -3.48472,7.78336 -7.78336,7.78336c-4.29862,0 -7.78336,-3.48472 -7.78336,-7.78336z" fill="#4e4e4e"/><path d="M187.97523,293.38077c0,37.34139 -7.77614,29.12985 -17.36852,29.12985c-9.59238,0 -17.36852,8.21152 -17.36852,-29.12985c0,-37.34139 7.77614,-37.86469 17.36852,-37.86469c9.59238,0 17.36852,0.5233 17.36852,37.86469z" fill="#2b2b2b"/><path d="M186.69094,353.84278c0,36.78614 -7.20115,38.44187 -16.08419,38.44187c-8.88304,0 -16.08419,-1.65574 -16.08419,-38.44187c0,-36.78614 7.20114,-28.79967 16.08419,-28.79967c8.88304,0 16.08419,-7.98645 16.08419,28.79967z" fill="#2b2b2b"/><path d="M182.91993,323.71817c0,2.8297 -5.51281,9.0541 -12.31321,9.0541c-6.8004,0 -12.31321,-6.2244 -12.31321,-9.0541c0,-2.8297 5.51281,-7.22924 12.31321,-7.22924c6.8004,0 12.31321,4.39953 12.31321,7.22924z" fill="#262626"/><path d="M165.53552,395.66053v-1.95592h9.57728v1.95592z" fill="url(#color-1)"/></g><g stroke="#2b2b2b" stroke-width="0"><g><path d="M199.05092,417.04614c-0.81672,-3.20895 -0.45097,1.75379 -1.05421,-0.65344c-2.34478,-9.35665 -3.58597,-19.66428 3.22673,-22.68089c1.23297,-0.54594 2.79261,-0.90701 4.21293,-1.10471c2.03432,-0.28317 4.01333,-0.23124 6.2944,0.09254c9.82687,1.39486 21.19182,6.51965 27.61828,12.9461c2.75631,2.75631 2.10856,2.949 3.15524,4.67552c0.65037,1.07279 -3.74736,-0.98138 -9.95078,5.22203c-5.12716,5.12714 -14.65264,5.63151 -22.17653,5.61965c-5.62415,-0.00885 -9.98921,1.13584 -11.32607,-4.11679z" fill="#323232"/><path d="M217.87561,416.65024c0,5.93194 -4.61251,6.79515 -10.30234,6.79515c-5.68983,0 -10.30234,-0.86321 -10.30234,-6.79515c0,-5.93194 4.61251,-8.54874 10.30234,-8.54874c5.68983,0 10.30234,2.6168 10.30234,8.54874z" fill="#2b2b2b"/><path d="M231.90432,416.65024c0,5.93194 -4.61251,6.79515 -10.30234,6.79515c-5.68982,0 -10.30234,-0.86321 -10.30234,-6.79515c0,-5.93194 4.61252,-8.54874 10.30234,-8.54874c5.68983,0 10.30234,2.6168 10.30234,8.54874z" fill="#2b2b2b"/><path d="M246.07921,415.77344c0,5.93194 -4.61251,6.79515 -10.30234,6.79515c-5.68982,0 -10.30234,-0.86321 -10.30234,-6.79515c0,-5.93194 4.61252,-8.54874 10.30234,-8.54874c5.68983,0 10.30234,2.6168 10.30234,8.54874z" fill="#2b2b2b"/><path d="M208.53047,396.51152c-3.65841,0.24176 -6.65754,-0.06771 -6.71912,-0.99958c-0.06158,-0.93187 2.83771,-2.13323 6.49613,-2.37499c3.65841,-0.24176 6.69057,0.56766 6.75215,1.49952c0.06158,0.93187 -2.87075,1.6333 -6.52915,1.87504z" fill="#000000"/></g><g><path d="M198.92567,416.92089c-0.81672,-3.20895 -0.45097,1.75379 -1.05421,-0.65344c-2.34478,-9.35665 -3.58597,-19.66428 3.22673,-22.68089c1.23297,-0.54594 2.79261,-0.90701 4.21293,-1.10471c2.03432,-0.28317 4.01333,-0.23124 6.2944,0.09254c9.82687,1.39486 21.19182,6.51965 27.61828,12.9461c2.75631,2.75631 2.10856,2.949 3.15524,4.67552c0.65037,1.07279 -3.74736,-0.98138 -9.95078,5.22203c-5.12716,5.12714 -14.65264,5.63151 -22.17653,5.61965c-5.62415,-0.00885 -9.98921,1.13584 -11.32607,-4.11679z" fill="#2f2f2f"/><path d="M217.75039,416.52497c0,5.93194 -4.61251,6.79515 -10.30234,6.79515c-5.68983,0 -10.30234,-0.86321 -10.30234,-6.79515c0,-5.93194 4.61251,-8.54874 10.30234,-8.54874c5.68983,0 10.30234,2.6168 10.30234,8.54874z" fill="#2b2b2b"/><path d="M231.77911,416.52497c0,5.93194 -4.61251,6.79515 -10.30234,6.79515c-5.68982,0 -10.30234,-0.86321 -10.30234,-6.79515c0,-5.93194 4.61252,-8.54874 10.30234,-8.54874c5.68983,0 10.30234,2.6168 10.30234,8.54874z" fill="#2b2b2b"/><path d="M245.95391,415.64818c0,5.93194 -4.61251,6.79515 -10.30234,6.79515c-5.68982,0 -10.30234,-0.86321 -10.30234,-6.79515c0,-5.93194 4.61252,-8.54874 10.30234,-8.54874c5.68983,0 10.30234,2.6168 10.30234,8.54874z" fill="#2b2b2b"/><path d="M208.40524,396.38627c-3.65841,0.24176 -6.65754,-0.06771 -6.71912,-0.99958c-0.06158,-0.93187 2.83771,-2.13323 6.49613,-2.37499c3.65841,-0.24176 6.69057,0.56766 6.75215,1.49952c0.06158,0.93187 -2.87075,1.6333 -6.52915,1.87504z" fill="#000000"/></g><path d="M212.71542,390.85804c0,2.62109 -2.1248,4.74589 -4.74589,4.74589c-2.62109,0 -4.74589,-2.1248 -4.74589,-4.74589c0,-2.62109 2.12481,-4.74589 4.74589,-4.74589c2.62108,0 4.74589,2.1248 4.74589,4.74589z" fill="#4e4e4e"/><path d="M207.96952,386.62146c-4.29863,0 -7.78336,-3.48473 -7.78336,-7.78336c0,-4.29863 3.48472,-7.78336 7.78336,-7.78336c4.29863,0 7.78336,3.48472 7.78336,7.78336c0,4.29863 -3.48472,7.78336 -7.78336,7.78336z" fill="#4e4e4e"/><path d="M207.96952,329.78357c-4.29863,0 -7.78336,-3.48473 -7.78336,-7.78336c0,-4.29863 3.48472,-7.78336 7.78336,-7.78336c4.29863,0 7.78336,3.48473 7.78336,7.78336c0,4.29863 -3.48472,7.78336 -7.78336,7.78336z" fill="#4e4e4e"/><path d="M207.96952,264.30005c-4.29863,0 -7.78336,-3.48473 -7.78336,-7.78336c0,-4.29863 3.48473,-7.78336 7.78336,-7.78336c4.29863,0 7.78336,3.48473 7.78336,7.78336c0,4.29863 -3.48475,7.78336 -7.78336,7.78336z" fill="#4e4e4e"/><path d="M207.96952,255.51609c9.59238,0 17.36852,0.52328 17.36852,37.86469c0,37.34138 -7.77614,29.12985 -17.36852,29.12985c-9.59238,0 -17.36852,8.21154 -17.36852,-29.12985c0,-37.34139 7.77614,-37.86469 17.36852,-37.86469z" fill="#2b2b2b"/><path d="M207.96952,325.04311c8.88306,0 16.08419,-7.98646 16.08419,28.79967c0,36.78614 -7.20114,38.44187 -16.08419,38.44187c-8.88304,0 -16.08419,-1.65574 -16.08419,-38.44187c0,-36.78612 7.20115,-28.79967 16.08419,-28.79967z" fill="#2b2b2b"/><path d="M207.96952,316.48892c6.8004,0 12.31321,4.39954 12.31321,7.22924c0,2.8297 -5.51281,9.0541 -12.31321,9.0541c-6.80039,0 -12.31321,-6.2244 -12.31321,-9.0541c0,-2.82971 5.5128,-7.22924 12.31321,-7.22924z" fill="#262626"/><path d="M203.46346,395.66053v-1.95592h9.57728v1.95592z" fill="url(#color-2)"/></g><g fill="#262626" stroke="#2b2b2b" stroke-width="0"><g><path d="M191.14854,258.70051c-5.82441,0 -11.03065,-3.45971 -16.09202,-4.40632c-7.02715,-1.31427 -10.74743,1.54367 -13.89438,-3.39677c-1.97628,-3.10259 -2.81857,-17.33993 -2.81857,-20.17159c0,-10.58829 13.81566,-16.89215 32.80496,-16.89215c9.79083,0 9.1985,44.86682 0,44.86682z"/></g><g><path d="M187.42778,213.83368c18.98931,0 32.80496,6.30386 32.80496,16.89215c0,2.83166 -0.84229,17.06899 -2.81857,20.17159c-3.14695,4.94044 -6.86723,2.08251 -13.89438,3.39677c-5.06136,0.94661 -10.2676,4.40632 -16.09202,4.40632c-9.1985,0 -9.79083,-44.86682 0,-44.86682z"/></g></g><path d="M292.5126,146.76191c-0.85727,3.50351 -4.39237,5.6487 -7.89587,4.79143c-3.50351,-0.85727 -5.6487,-4.39238 -4.79143,-7.89588c0.85727,-3.50351 4.39238,-5.6487 7.89588,-4.79143c3.5035,0.85727 5.64869,4.39238 4.79142,7.89588z" fill="#4e4e4e" stroke="#2b2b2b" stroke-width="0"/><path d="M279.0035,201.97106c-0.85727,3.50351 -4.39237,5.6487 -7.89587,4.79143c-3.50351,-0.85727 -5.6487,-4.39238 -4.79143,-7.89588c0.85727,-3.50351 4.39238,-5.6487 7.89588,-4.79143c3.5035,0.85727 5.64869,4.39238 4.79142,7.89588z" fill="#4e4e4e" stroke="#2b2b2b" stroke-width="0"/><path d="M229.50319,152.06419c-2.18392,-2.87052 -1.62732,-6.96797 1.2432,-9.15189c2.87052,-2.18392 6.96797,-1.62732 9.15189,1.2432c2.18392,2.87052 1.62732,6.96797 -1.2432,9.15189c-2.87052,2.18392 -6.96797,1.62732 -9.15189,-1.2432z" fill="#4e4e4e" stroke="#2b2b2b" stroke-width="0"/><path d="M268.33512,166.83996c21.65907,28.46844 11.39927,26.3902 4.61851,31.54907c-6.78076,5.15887 -7.51472,15.60128 -29.17379,-12.86717c-21.65908,-28.46845 -16.46572,-33.04948 -9.68496,-38.20835c6.78076,-5.15887 12.58117,-8.942 34.24024,19.52645z" fill="#2b2b2b" stroke="#2b2b2b" stroke-width="0"/><path d="M264.90904,171.98712c7.53087,-30.77723 14.08273,-30.64227 21.74673,-28.76697c7.664,1.8753 13.53793,4.7808 6.00706,35.55804c-7.53087,30.77723 -12.10877,22.5751 -19.77277,20.6998c-7.664,-1.8753 -15.51189,3.28636 -7.98103,-27.49086z" fill="#2b2b2b" stroke="#2b2b2b" stroke-width="0"/><path d="M193.24426,136.99331l2.28555,-8.1617l43.34145,12.13709l-2.28555,8.1617z" fill="#4e4e4e" stroke="#2b2b2b" stroke-width="0"/><path d="M292.51261,146.76192c-0.85727,3.50351 -4.39238,5.6487 -7.89588,4.79143c-3.50351,-0.85727 -5.6487,-4.39238 -4.79143,-7.89588c0.85727,-3.50351 4.39238,-5.6487 7.89588,-4.79143c3.50351,0.85727 5.6487,4.39238 4.79143,7.89588z" fill="#4e4e4e" stroke="#2b2b2b" stroke-width="0"/><path d="M279.00351,201.97106c-0.85727,3.5035 -4.39238,5.6487 -7.89588,4.79143c-3.50351,-0.85727 -5.6487,-4.39238 -4.79143,-7.89588c0.85727,-3.50351 4.39238,-5.6487 7.89588,-4.79143c3.50351,0.85727 5.6487,4.39238 4.79143,7.89588z" fill="#4e4e4e" stroke="#2b2b2b" stroke-width="0"/><path d="M229.50319,152.06419c-2.18393,-2.87053 -1.62732,-6.96797 1.2432,-9.15189c2.87053,-2.18393 6.96797,-1.62732 9.15189,1.2432c2.18392,2.87052 1.62732,6.96797 -1.2432,9.15189c-2.87053,2.18393 -6.96797,1.62732 -9.15189,-1.2432z" fill="#4e4e4e" stroke="#2b2b2b" stroke-width="0"/><path d="M268.33512,166.83996c21.65907,28.46844 11.39926,26.39021 4.61851,31.54907c-6.78076,5.15887 -7.51472,15.60128 -29.17379,-12.86717c-21.65908,-28.46845 -16.46571,-33.04949 -9.68496,-38.20835c6.78075,-5.15886 12.58117,-8.942 34.24024,19.52645z" fill="#2b2b2b" stroke="#2b2b2b" stroke-width="0"/><path d="M264.90904,171.98712c7.53087,-30.77723 14.08273,-30.64227 21.74673,-28.76697c7.664,1.8753 13.53794,4.78081 6.00708,35.55804c-7.53087,30.77723 -12.10878,22.5751 -19.77278,20.6998c-7.664,-1.8753 -15.51189,3.28637 -7.98103,-27.49086z" fill="#2b2b2b" stroke="#2b2b2b" stroke-width="0"/><path d="M141.99057,149.13038l-2.28555,-8.1617l43.34146,-12.13707l2.28555,8.1617z" fill="#4e4e4e" stroke="#2b2b2b" stroke-width="0"/><g stroke="#2b2b2b" stroke-width="0"><path d="M134.73465,268.54986c0,-3.60686 2.92393,-6.5308 6.53079,-6.5308c3.60686,0 6.5308,2.92393 6.5308,6.5308c0,3.60686 -2.92393,6.5308 -6.5308,6.5308c-3.60686,0 -6.53079,-2.92393 -6.53079,-6.5308z" fill="#4e4e4e"/><path d="M134.73465,211.71199c0,-3.60686 2.92393,-6.5308 6.53079,-6.5308c3.60686,0 6.5308,2.92393 6.5308,6.5308c0,3.60686 -2.92393,6.5308 -6.5308,6.5308c-3.60686,0 -6.53079,-2.92393 -6.53079,-6.5308z" fill="#4e4e4e"/><path d="M134.73465,146.88607c0,-3.60686 2.92393,-6.5308 6.5308,-6.5308c3.60686,0 6.5308,2.92393 6.5308,6.5308c0,3.60686 -2.92393,6.5308 -6.5308,6.5308c-3.60686,0 -6.5308,-2.92393 -6.5308,-6.5308z" fill="#4e4e4e"/><path d="M156.69247,182.15779c0,35.77105 -6.90692,27.90485 -15.42705,27.90485c-8.52013,0 -15.42705,7.86619 -15.42705,-27.90485c0,-35.77105 6.90692,-36.27234 15.42705,-36.27234c8.52013,0 15.42705,0.50129 15.42705,36.27234z" fill="#2b2b2b"/><path d="M155.55171,237.48675c0,31.6852 -6.39619,33.11134 -14.28629,33.11134c-7.8901,0 -14.28628,-1.42614 -14.28628,-33.11134c0,-31.6852 6.39618,-24.80618 14.28628,-24.80618c7.8901,0 14.28629,-6.87901 14.28629,24.80618z" fill="#2b2b2b"/></g><g fill="#2b2b2b" stroke="#2b2b2b" stroke-width="0"><g><path d="M189.04742,247.95217c-21.11227,0 -33.05156,0.99037 -33.05156,-33.51229c0,-10.41251 -10.42836,-33.76462 -8.57761,-42.34392c4.28186,-19.84885 26.88833,-19.89 41.62916,-19.89c5.38844,0 5.16877,95.7462 0,95.7462z"/></g><g><path d="M189.52888,152.20597c14.74083,0 37.3473,0.04115 41.62916,19.89c1.85075,8.57929 -8.57761,31.93139 -8.57761,42.34391c0,34.50266 -11.9393,33.51229 -33.05157,33.51229c-5.16877,0 -5.38844,-95.7462 0,-95.7462z"/></g></g><g fill="#2b2b2b" stroke="#2b2b2b" stroke-width="0"><path d="M187.77822,171.51134c0,21.24603 -5.97775,38.46936 -13.3517,38.46936c-7.37393,0 -31.53274,-29.93684 -31.53274,-51.18288c0,-21.24603 19.65724,-29.36419 26.21537,-30.98289c7.21179,-1.78003 18.66907,22.45036 18.66907,43.6964z"/><path d="M209.46708,127.81492c6.55811,1.61869 26.21537,9.73684 26.21537,30.98289c0,21.24603 -24.15879,51.18288 -31.53272,51.18288c-7.37393,0 -13.3517,-17.22333 -13.3517,-38.46936c0,-21.24603 11.4573,-45.47643 18.66907,-43.6964z"/><path d="M189.28814,166.11763c-15.08602,0 -27.31563,-28.442 -27.31563,-33.06246c0,-4.62046 12.22962,-8.36608 27.31563,-8.36608c15.08602,0 27.31565,3.74562 27.31565,8.36608c0,4.62046 -12.22963,33.06246 -27.31565,33.06246z"/><path d="M222.62827,179.94907c0,19.07906 -14.92692,34.5457 -33.3402,34.5457c-18.41328,0 -33.34019,-15.46663 -33.34019,-34.5457c0,-19.07906 14.92692,-34.5457 33.34019,-34.5457c18.41328,0 33.3402,15.46663 33.3402,34.5457z"/></g><g fill="#323232" stroke="#2b2b2b" stroke-width="0"><g><g><path d="M189.08393,245.3219c-17.9086,0 -28.03616,0.95046 -28.03616,-32.16151c0,-9.99282 -8.84592,-32.40366 -7.27601,-40.63713c3.63212,-19.04879 22.80818,-19.08829 35.31217,-19.08829c4.57079,0 4.38443,91.88694 0,91.88694z"/></g><g><path d="M189.49234,153.43497c12.504,0 31.68006,0.03949 35.31217,19.08829c1.56991,8.23348 -7.27601,30.64433 -7.27601,40.63713c0,33.11197 -10.12757,32.16151 -28.03616,32.16151c-4.38443,0 -4.57079,-91.88694 0,-91.88694z"/></g></g><g><path d="M188.00734,171.96218c0,20.38967 -5.07066,36.91876 -11.32565,36.91876c-6.25499,0 -26.74782,-28.73017 -26.74782,-49.11985c0,-20.38967 16.67436,-28.18059 22.23732,-29.73405c6.11743,-1.70829 15.83615,21.54545 15.83615,41.93513z"/><path d="M206.40505,130.02705c5.56296,1.55346 22.23732,9.34438 22.23732,29.73405c0,20.38967 -20.49282,49.11985 -26.74781,49.11985c-6.25499,0 -11.32565,-16.52909 -11.32565,-36.91876c0,-20.38967 9.71872,-43.6434 15.83613,-41.93513z"/><path d="M189.28814,166.78589c-12.79678,0 -23.17063,-27.29558 -23.17063,-31.7298c0,-4.43422 10.37385,-8.02887 23.17063,-8.02887c12.79678,0 23.17064,3.59464 23.17064,8.02887c0,4.43422 -10.37385,31.7298 -23.17064,31.7298z"/><path d="M217.56912,180.05981c0,18.31005 -12.66185,33.15326 -28.281,33.15326c-15.61917,0 -28.28099,-14.84322 -28.28099,-33.15326c0,-18.31005 12.66183,-33.15326 28.28099,-33.15326c15.61917,0 28.281,14.84322 28.281,33.15326z"/></g></g><path d="M205.18556,129.3288c0,2.31877 -7.11756,5.5474 -15.89752,5.5474c-8.77996,0 -15.89752,-3.22865 -15.89752,-5.5474c0,-2.31877 7.11756,-4.1985 15.89752,-4.1985c8.77996,0 15.89752,1.87973 15.89752,4.1985z" fill="#000000" stroke="#2b2b2b" stroke-width="0"/><path d="M205.2896,151.84066c0,-8.1605 3.23648,-15.3042 2.99063,-20.12928c-0.18124,-3.55711 -5.07892,-5.78 -4.39349,-5.78c8.4742,0 33.9904,9.03728 33.9904,25.17862c0,6.09339 -4.44094,24.46452 -7.87871,39.88113c-1.84411,8.26986 6.6123,35.87536 4.84706,44.16241c-2.18864,10.2747 -24.20548,12.40385 -25.75645,12.40385c-4.13201,0 0.32025,-45.09566 -1.37028,-57.98819c-1.77653,-13.54834 -2.42917,-29.45769 -2.42917,-37.72854z" fill="#770000" stroke="#2b2b2b" stroke-width="0"/><g stroke="#2b2b2b" stroke-width="0"><g><path d="M310.17304,101.53582c-0.22652,0.92576 -1.16064,1.49261 -2.0864,1.26608c-0.92576,-0.22652 -1.49261,-1.16064 -1.26608,-2.0864c0.22652,-0.92576 1.16065,-1.49262 2.08641,-1.2661c0.92577,0.22653 1.4926,1.16066 1.26608,2.08641z" fill="#4e4e4e"/><path d="M307.71706,111.57296c-0.22652,0.92576 -1.16064,1.49261 -2.0864,1.26608c-0.92576,-0.22652 -1.49261,-1.16064 -1.26608,-2.0864c0.22652,-0.92576 1.16064,-1.49261 2.0864,-1.26608c0.92577,0.22653 1.49261,1.16064 1.26608,2.0864z" fill="#4e4e4e"/><path d="M301.2277,116.35294c1.39832,-5.71467 2.9574,-5.60338 4.80368,-5.15161c1.84629,0.45177 3.28061,1.07292 1.88228,6.7876c-1.39832,5.71467 -3.00609,5.80237 -4.85237,5.3506c-1.84627,-0.45176 -3.23192,-1.27191 -1.83359,-6.98659z" fill="#262626"/><path d="M308.68196,100.36878c1.84627,0.45176 3.23192,1.27191 1.83359,6.98659c-1.39832,5.71467 -2.57398,4.03636 -4.42025,3.5846c-1.84627,-0.45176 -3.66404,0.49409 -2.26572,-5.22058c1.39832,-5.71467 3.0061,-5.80236 4.85237,-5.3506z" fill="#262626"/></g><g><path d="M303.59202,98.79657c-0.22652,0.92576 -1.16064,1.49261 -2.0864,1.26608c-0.92576,-0.22652 -1.49261,-1.16064 -1.26608,-2.0864c0.22652,-0.92576 1.16064,-1.49261 2.0864,-1.26608c0.92577,0.22653 1.49261,1.16064 1.26608,2.0864z" fill="#4e4e4e"/><path d="M301.13604,108.83371c-0.22652,0.92576 -1.16064,1.49261 -2.0864,1.26608c-0.92576,-0.22652 -1.49261,-1.16064 -1.26608,-2.0864c0.22652,-0.92576 1.16064,-1.49261 2.0864,-1.26608c0.92576,0.22652 1.49261,1.16064 1.26608,2.0864z" fill="#4e4e4e"/><path d="M294.64668,113.61368c1.39832,-5.71468 2.95741,-5.60339 4.80369,-5.15162c1.84627,0.45176 3.2806,1.07293 1.88228,6.78761c-1.39832,5.71467 -3.0061,5.80236 -4.85237,5.3506c-1.84627,-0.45176 -3.23192,-1.27191 -1.83359,-6.98659z" fill="#262626"/><path d="M302.10097,97.62953c1.84627,0.45176 3.23192,1.27191 1.83359,6.98659c-1.39832,5.71468 -2.57398,4.03636 -4.42025,3.5846c-1.84627,-0.45176 -3.66404,0.49409 -2.26572,-5.22058c1.39832,-5.71467 3.0061,-5.80236 4.85237,-5.3506z" fill="#262626"/></g><g><path d="M297.12299,95.95446c-0.22652,0.92576 -1.16064,1.49261 -2.0864,1.26608c-0.92576,-0.22652 -1.49261,-1.16064 -1.26608,-2.0864c0.22652,-0.92576 1.16064,-1.49261 2.0864,-1.26608c0.92577,0.22653 1.49261,1.16064 1.26608,2.0864z" fill="#4e4e4e"/><path d="M294.66701,105.99161c-0.22652,0.92576 -1.16064,1.49261 -2.0864,1.26608c-0.92576,-0.22652 -1.49261,-1.16064 -1.26608,-2.0864c0.22652,-0.92576 1.16064,-1.49261 2.0864,-1.26608c0.92576,0.22652 1.49261,1.16064 1.26608,2.0864z" fill="#4e4e4e"/><path d="M288.17766,110.77157c1.39832,-5.71467 2.95741,-5.60339 4.80369,-5.15162c1.84627,0.45176 3.2806,1.07293 1.88228,6.78761c-1.39832,5.71467 -3.0061,5.80236 -4.85237,5.3506c-1.84627,-0.45176 -3.23192,-1.27191 -1.83359,-6.98659z" fill="#262626"/><path d="M295.63201,94.78745c1.84627,0.45176 3.23192,1.27191 1.83359,6.98659c-1.39832,5.71467 -2.57398,4.03636 -4.42025,3.5846c-1.84627,-0.45176 -3.66404,0.49409 -2.26572,-5.22058c1.39832,-5.71467 3.0061,-5.80236 4.85237,-5.3506z" fill="#262626"/></g><g><path d="M289.73419,96.55054c-0.22652,0.92576 -1.16064,1.49261 -2.0864,1.26608c-0.92576,-0.22652 -1.49261,-1.16064 -1.26608,-2.0864c0.22653,-0.92577 1.16064,-1.49261 2.0864,-1.26608c0.92576,0.22652 1.49261,1.16064 1.26608,2.0864z" fill="#4e4e4e"/><path d="M287.2782,106.58769c-0.22652,0.92576 -1.16064,1.49261 -2.0864,1.26608c-0.92576,-0.22652 -1.49261,-1.16064 -1.26608,-2.0864c0.22652,-0.92576 1.16064,-1.49261 2.0864,-1.26608c0.92576,0.22652 1.49261,1.16064 1.26608,2.0864z" fill="#4e4e4e"/><path d="M280.78885,111.36766c1.39832,-5.71467 2.95741,-5.60339 4.80369,-5.15162c1.84627,0.45176 3.2806,1.07293 1.88228,6.78761c-1.39832,5.71467 -3.0061,5.80236 -4.85237,5.3506c-1.84627,-0.45176 -3.23192,-1.27191 -1.83359,-6.98659z" fill="#262626"/><path d="M288.24312,95.38351c1.84627,0.45176 3.23191,1.27192 1.83359,6.9866c-1.39832,5.71467 -2.57398,4.03636 -4.42025,3.5846c-1.84627,-0.45176 -3.66404,0.49409 -2.26572,-5.22058c1.39832,-5.71468 3.0061,-5.80238 4.85238,-5.35061z" fill="#262626"/></g><g><path d="M276.11638,129.31578c0.87108,-0.5286 2.00575,-0.25095 2.53434,0.62013c0.52861,0.87108 0.25096,2.00576 -0.62012,2.53436c-0.87108,0.5286 -2.00576,0.25094 -2.53435,-0.62014c-0.52859,-0.87109 -0.25094,-2.00576 0.62014,-2.53435z" fill="#4e4e4e"/><path d="M268.53055,116.81496c0.87108,-0.5286 2.00575,-0.25095 2.53434,0.62013c0.5286,0.8711 0.25096,2.00576 -0.62012,2.53436c-0.87108,0.5286 -2.00576,0.25095 -2.53436,-0.62013c-0.52859,-0.87109 -0.25094,-2.00576 0.62014,-2.53435z" fill="#4e4e4e"/><path d="M269.93717,126.22539c-3.98562,-6.56798 -2.75511,-7.71559 -1.01788,-8.76978c1.73724,-1.0542 3.32335,-1.61578 7.30897,4.9522c3.98561,6.56796 2.89389,7.94426 1.15666,8.99846c-1.73723,1.0542 -3.46212,1.3871 -7.44775,-5.18088z" fill="#262626"/></g><path d="M296.34541,143.68615c-2.66772,1.28446 -6.82303,-0.48616 -9.48394,-1.13726c-1.77674,-0.43475 -5.93311,-0.47645 -7.32145,-1.74009c-5.66846,-5.15926 -2.58879,-17.70346 0.51884,-25.79403c2.4869,-6.47454 19.66072,-4.35498 25.86019,2.41498c4.83059,5.27513 -7.1558,25.09227 -9.57365,26.25642z" fill="#2b2b2b"/></g><g stroke="#2b2b2b" stroke-width="0"><g><path d="M128.3295,316.67745c0,-0.95307 0.77263,-1.7257 1.7257,-1.7257c0.95307,0 1.7257,0.77263 1.7257,1.7257c0,0.95307 -0.77263,1.72571 -1.7257,1.72571c-0.95307,0 -1.7257,-0.77264 -1.7257,-1.72571z" fill="#4e4e4e"/><path d="M128.3295,306.34421c0,-0.95307 0.77263,-1.7257 1.7257,-1.7257c0.95307,0 1.7257,0.77263 1.7257,1.7257c0,0.95307 -0.77263,1.7257 -1.7257,1.7257c-0.95307,0 -1.7257,-0.77263 -1.7257,-1.7257z" fill="#4e4e4e"/><path d="M133.49682,300.15884c0,5.88327 -1.54087,6.14572 -3.44161,6.14572c-1.90075,0 -3.44161,-0.26246 -3.44161,-6.14572c0,-5.88327 1.54085,-6.35058 3.44161,-6.35058c1.90075,0 3.44161,0.46732 3.44161,6.35058z" fill="#262626"/><path d="M130.05521,317.45665c-1.90074,0 -3.44161,-0.46732 -3.44161,-6.35058c0,-5.88327 1.54087,-4.53247 3.44161,-4.53247c1.90074,0 3.44161,-1.35078 3.44161,4.53247c0,5.88327 -1.54087,6.35058 -3.44161,6.35058z" fill="#262626"/></g><g><path d="M135.37298,317.77404c0,-0.95307 0.77263,-1.7257 1.7257,-1.7257c0.95307,0 1.7257,0.77263 1.7257,1.7257c0,0.95307 -0.77263,1.7257 -1.7257,1.7257c-0.95307,0 -1.7257,-0.77263 -1.7257,-1.7257z" fill="#4e4e4e"/><path d="M135.37298,307.44079c0,-0.95307 0.77263,-1.7257 1.7257,-1.7257c0.95307,0 1.7257,0.77263 1.7257,1.7257c0,0.95307 -0.77263,1.7257 -1.7257,1.7257c-0.95307,0 -1.7257,-0.77263 -1.7257,-1.7257z" fill="#4e4e4e"/><path d="M140.5403,301.25543c0,5.88327 -1.54087,6.14573 -3.44161,6.14573c-1.90074,0 -3.44161,-0.26246 -3.44161,-6.14573c0,-5.88327 1.54087,-6.35058 3.44161,-6.35058c1.90074,0 3.44161,0.46732 3.44161,6.35058z" fill="#262626"/><path d="M137.09869,318.55325c-1.90074,0 -3.44161,-0.46732 -3.44161,-6.35058c0,-5.88327 1.54087,-4.53247 3.44161,-4.53247c1.90074,0 3.44161,-1.3508 3.44161,4.53247c0,5.88327 -1.54087,6.35058 -3.44161,6.35058z" fill="#262626"/></g><g><path d="M142.33213,318.99715c0,-0.95307 0.77263,-1.7257 1.7257,-1.7257c0.95307,0 1.7257,0.77263 1.7257,1.7257c0,0.95307 -0.77263,1.7257 -1.7257,1.7257c-0.95307,0 -1.7257,-0.77263 -1.7257,-1.7257z" fill="#4e4e4e"/><path d="M142.33213,308.66391c0,-0.95307 0.77263,-1.7257 1.7257,-1.7257c0.95307,0 1.7257,0.77263 1.7257,1.7257c0,0.95307 -0.77263,1.7257 -1.7257,1.7257c-0.95307,0 -1.7257,-0.77263 -1.7257,-1.7257z" fill="#4e4e4e"/><path d="M147.49941,302.47854c0,5.88327 -1.54087,6.14573 -3.44161,6.14573c-1.90074,0 -3.44161,-0.26247 -3.44161,-6.14573c0,-5.88327 1.54087,-6.35058 3.44161,-6.35058c1.90074,0 3.44161,0.46732 3.44161,6.35058z" fill="#262626"/><path d="M144.05781,319.77636c-1.90074,0 -3.44161,-0.46732 -3.44161,-6.35058c0,-5.88327 1.54087,-4.53247 3.44161,-4.53247c1.90074,0 3.44161,-1.35078 3.44161,4.53247c0,5.88327 -1.54087,6.35058 -3.44161,6.35058z" fill="#262626"/></g><g><path d="M149.36755,316.662c0,-0.95307 0.77263,-1.7257 1.7257,-1.7257c0.95307,0 1.7257,0.77263 1.7257,1.7257c0,0.95307 -0.77263,1.7257 -1.7257,1.7257c-0.95307,0 -1.7257,-0.77261 -1.7257,-1.7257z" fill="#4e4e4e"/><path d="M149.36755,306.32875c0,-0.95307 0.77263,-1.7257 1.7257,-1.7257c0.95307,0 1.7257,0.77263 1.7257,1.7257c0,0.95307 -0.77263,1.7257 -1.7257,1.7257c-0.95307,0 -1.7257,-0.77263 -1.7257,-1.7257z" fill="#4e4e4e"/><path d="M154.53486,300.14339c0,5.88327 -1.54087,6.14573 -3.44161,6.14573c-1.90074,0 -3.44161,-0.26247 -3.44161,-6.14573c0,-5.88327 1.54087,-6.35058 3.44161,-6.35058c1.90074,0 3.44161,0.46732 3.44161,6.35058z" fill="#262626"/><path d="M151.09326,317.4412c-1.90074,0 -3.44161,-0.46732 -3.44161,-6.35059c0,-5.88327 1.54087,-4.53247 3.44161,-4.53247c1.90074,0 3.44161,-1.35078 3.44161,4.53247c0,5.88327 -1.54087,6.35059 -3.44161,6.35059z" fill="#262626"/></g><g><path d="M152.19845,281.59907c-0.72048,-0.72048 -0.72048,-1.88864 0,-2.60913c0.72048,-0.72048 1.88864,-0.72048 2.60912,0.00001c0.72048,0.72048 0.72048,1.88864 0,2.60912c-0.72048,0.72048 -1.88863,0.72048 -2.60912,0z" fill="#4e4e4e"/><path d="M162.53805,291.93865c-0.72048,-0.72048 -0.72048,-1.88864 0,-2.60912c0.72048,-0.72048 1.88864,-0.72048 2.60912,0c0.72048,0.72048 0.72048,1.88864 0,2.60912c-0.72048,0.72048 -1.88863,0.72048 -2.60912,0z" fill="#4e4e4e"/><path d="M161.54418,283.13223c5.43247,5.43247 4.50999,6.83966 3.0731,8.27655c-1.43689,1.43689 -2.84408,2.35937 -8.27655,-3.07311c-5.43247,-5.43247 -4.69914,-7.0288 -3.26225,-8.46569c1.43689,-1.43689 3.03323,-2.17021 8.4657,3.26225z" fill="#262626"/></g><path d="M141.22517,271.29899c1.82916,0 5.87633,-0.94735 7.52523,-0.04992c6.73226,3.66415 6.72234,16.58086 5.62669,25.17819c-0.8768,6.88009 -18.06226,8.9031 -25.69313,3.80062c-5.94595,-3.97583 0.98688,-26.074 3.05874,-27.77945c2.286,-1.8817 6.74306,-1.14944 9.48247,-1.14944z" fill="#2b2b2b"/></g><g fill="#4e4e4e" stroke="#2b2b2b" stroke-width="0"><path d="M174.64332,123.20311l3.24286,-15.62256l26.61332,5.52428l-3.24286,15.62256z"/><path d="M201.25662,128.72738c-0.37262,1.79512 -6.86532,3.13632 -14.21439,1.61083c-7.34906,-1.52549 -12.77156,-5.34001 -12.39894,-7.13511c0.37262,-1.79512 6.63229,-2.01368 13.98135,-0.48819c7.34906,1.52549 13.0046,4.21737 12.63198,6.01247z"/><path d="M190.9099,111.70573c-7.34906,-1.52549 -13.17999,-3.3724 -13.02373,-4.12518c0.15626,-0.75279 6.24054,-0.12639 13.5896,1.39909c7.34906,1.52549 13.17999,3.3724 13.02373,4.12519c-0.15626,0.75279 -6.24053,0.12638 -13.5896,-1.39911z"/></g><g stroke="#000000" stroke-width="0"><path d="M160.67625,11.65844c0,0 9.48071,18.18348 22.25681,30.16163c9.45978,8.86893 22.68895,19.5771 20.36089,24.04533c-5.47229,10.50288 -31.17207,28.62994 -43.49667,26.86362c-4.88752,-0.70047 -15.19115,-11.48523 -16.48368,-23.99483c-1.96679,-19.03512 17.36267,-57.07574 17.36267,-57.07574z" fill="#262626"/><path d="M161.47174,15.86284c0,0 8.54429,16.38752 20.05852,27.18258c8.52544,7.99296 20.34041,18.44883 18.2423,22.47573c-4.93179,9.46552 -28.09322,25.80217 -39.20052,24.21031c-4.40479,-0.63128 -13.69072,-10.35083 -14.85559,-21.62488c-1.77252,-17.15502 15.75531,-52.24374 15.75531,-52.24374z" fill="#202020"/></g><g stroke="#000000" stroke-width="0"><path d="M251.30874,91.15135c-6.16461,10.96168 -19.90935,16.75458 -24.67188,15.45194c-12.00941,-3.28482 -28.37137,-30.14288 -29.21138,-41.95603c-0.35736,-5.02565 16.04075,-9.58391 28.24885,-13.95512c16.48794,-5.90363 32.42245,-18.81154 32.42245,-18.81154c0,0 2.59227,42.59104 -6.78804,59.27077z" fill="#262626"/><path d="M249.35422,89.61928c-5.55574,9.879 -17.9429,15.09974 -22.23504,13.92576c-10.82322,-2.96038 -25.56914,-27.16567 -26.32619,-37.81205c-0.32207,-4.52926 14.67828,-9.41893 25.68059,-13.3584c14.85943,-5.32053 29.2201,-16.95352 29.2201,-16.95352c0,0 2.11436,39.16596 -6.33946,54.19824z" fill="#202020"/></g><g fill="#2b2b2b" stroke="#000000" stroke-width="0"><path d="M156.47297,73.83444c4.87246,-23.47318 25.99522,-36.46092 48.36783,-31.8169c22.37261,4.64401 37.05208,25.06343 32.17962,48.53661c-4.87246,23.47318 -26.95895,38.73723 -49.33156,34.09321c-18.44571,-3.82888 -38.46885,-27.24584 -34.39017,-45.61802c0.90688,-4.08502 2.31906,-1.07484 3.17428,-5.19489z"/><path d="M238.05113,96.62189c-3.57046,18.47768 -31.25936,31.99078 -49.70508,28.16189c-22.3726,-4.64401 -36.55928,-27.43749 -31.68682,-50.91065c4.87246,-23.47318 26.46615,-36.36316 48.83876,-31.71915c22.3726,4.64401 36.58114,24.96568 31.70868,48.43886c-0.85522,4.12006 1.63835,1.92062 0.84446,6.02908z"/></g><path d="M158.62534,74.62911c4.68961,-22.59227 24.90557,-34.1634 45.97264,-29.79039c21.06705,4.37301 35.00754,23.03419 30.31794,45.62646c-4.68961,22.59227 -24.90557,34.1634 -45.97264,29.79039c-21.06705,-4.37301 -35.00754,-23.03419 -30.31794,-45.62646z" fill="#323232" stroke="#000000" stroke-width="0"/><g fill="#2b2b2b" stroke="#000000" stroke-width="0"><path d="M163.43685,77.69064c2.00301,-9.64952 12.3887,-16.99965 21.11754,-15.18776c8.72884,1.8119 10.06443,12.07597 8.06142,21.72548c-2.00301,9.64952 -8.08595,15.96934 -16.81481,14.15744c-8.72884,-1.8119 -14.36716,-11.04564 -12.36416,-20.69516z"/><path d="M209.70393,105.42323c-8.72885,-1.8119 -11.79395,-10.03063 -9.79094,-19.68015c2.00301,-9.64952 7.31336,-18.53404 16.04222,-16.72215c8.72884,1.8119 15.33114,12.68832 13.32813,22.33784c-2.00301,9.64952 -10.85057,15.87635 -19.57941,14.06445z"/></g><path d="M163.58487,76.97757c1.92688,-9.28279 12.24068,-16.28659 20.96952,-14.47469c2.12408,0.44091 3.81484,1.36075 5.12963,2.63411c0.2002,0.19389 2.85051,-1.01124 2.85051,-1.01124c0,0 -1.48289,2.61826 -1.15088,3.17447c2.48507,4.16333 2.607,10.30484 1.38382,16.19754c-1.92688,9.28279 -7.95248,15.32634 -16.68133,13.51444c-2.59092,-0.53781 -4.91494,-1.70364 -6.85183,-3.32004c-0.45886,-0.38292 -3.01988,0.85335 -3.01988,0.85335c0,0 1.20139,-2.62415 0.96114,-2.9113c-3.21559,-3.84302 -4.72535,-9.1904 -3.59069,-14.65666z" fill="#000000" stroke="#000000" stroke-width="0"/><path d="M209.98898,104.04963c-8.72884,-1.8119 -11.85129,-9.75437 -9.92441,-19.03715c1.92688,-9.28279 7.16171,-17.80345 15.89056,-15.99155c8.72884,1.8119 15.40303,12.34198 13.47615,21.62478c-1.92688,9.28279 -10.71346,15.21583 -19.44231,13.40393z" fill="#000000" stroke="#000000" stroke-width="0"/><g fill="#000000" stroke="#000000" stroke-width="0"><path d="M189.11355,121.44505c-11.05953,-2.29569 -21.16332,-11.42939 -27.03794,-18.60994c-4.31715,-5.27684 -2.97873,-14.42778 -2.97873,-14.42778c0,0 1.59648,7.86479 4.88008,9.95583c1.07133,0.68224 3.18042,2.42398 3.18042,2.42398c0,0 2.79647,-0.22749 4.25783,0.07437c0.49761,0.10279 1.30808,1.87441 1.30808,1.87441c0,0 1.85862,-0.81814 2.70655,-0.67784c5.06306,0.83775 10.75025,2.33378 16.95614,3.62197c4.76132,0.98833 1.55921,16.76792 -3.27243,15.76499z"/><path d="M188.31362,121.279c-4.83164,-1.00293 -1.48889,-16.75333 3.27243,-15.76499c6.20588,1.28819 12.01864,2.17927 16.99685,3.42585c0.83373,0.20877 2.21317,1.69904 2.21317,1.69904c0,0 1.44865,-1.30268 1.94603,-1.19893c1.46076,0.30469 3.93567,1.6264 3.93567,1.6264c0,0 2.62806,-0.75843 3.88242,-0.95791c3.84456,-0.61142 8.43935,-7.19104 8.43935,-7.19104c0,0 -2.41425,8.92762 -8.47493,12.05027c-8.24717,4.2492 -21.15146,8.60699 -32.21098,6.3113z"/></g><path d="M177.82138,102.699c0,0 -3.57973,2.1095 -5.58659,6.79597c-2.00684,4.68647 0.15941,7.823 0.15941,7.823c0,0 -5.38156,-4.86975 -7.91443,-10.20529c-1.93177,-4.06931 -1.20587,-8.86394 -1.07748,-9.29403c0.44436,0.5178 1.37494,1.46832 1.8441,1.3388c0,0 0.69763,0.95323 1.79582,1.43357c0.84652,0.37026 3.3767,-0.14461 4.28336,0.35853c0.49191,0.27298 0.71511,0.64083 1.06506,1.00446c0.22777,0.23667 0.09097,0.67321 0.32241,0.76321c0.26333,0.1024 2.18978,-0.70569 2.47703,-0.61946c1.27765,0.38351 2.63128,0.60121 2.63128,0.60121z" fill="#ffffff" stroke="#ff0000" stroke-width="0"/><path d="M208.78696,109.0717c0.29784,0.03522 1.74352,1.54328 2.02585,1.55414c0.24813,0.00956 0.2964,-0.44537 0.59954,-0.57184c0.46575,-0.19432 0.81692,-0.44294 1.37685,-0.49758c1.032,-0.10071 3.14824,1.37864 4.07219,1.37588c1.19864,-0.00358 2.21802,-0.6004 2.21802,-0.6004c0.37887,0.30555 1.61086,-0.19607 2.2246,-0.49425c-0.05339,0.44564 -1.29573,5.13307 -4.68751,8.09736c-4.44717,3.88666 -11.32231,6.21221 -11.32231,6.21221c0,0 3.23564,-2.01523 3.25982,-7.11326c0.02418,-5.09802 -2.42024,-8.45798 -2.42024,-8.45798c0,0 1.32844,0.33903 2.65318,0.49571z" fill="#ffffff" stroke="#ff0000" stroke-width="0"/><g fill="none" stroke="#2b2b2b" stroke-width="0.5"><path d="M189.08673,121.43948l0,-0.00001c-11.05953,-2.29569 -21.16332,-11.42939 -27.03794,-18.60994c-4.31715,-5.27684 -2.97873,-14.42778 -2.97873,-14.42778c0,0 1.59648,7.86479 4.88008,9.95583c1.07133,0.68224 3.18042,2.42398 3.18042,2.42398c0,0 2.79647,-0.22749 4.25783,0.07437c0.49761,0.10279 1.30809,1.8744 1.30809,1.8744c0,0 1.85862,-0.81813 2.70655,-0.67783c5.06306,0.83775 10.75025,2.33378 16.95614,3.62197"/><path d="M191.55922,105.50846c6.20588,1.28819 12.01864,2.17927 16.99685,3.42585c0.83373,0.20877 2.21317,1.69904 2.21317,1.69904c0,0 1.44865,-1.30268 1.94603,-1.19893c1.46076,0.30469 3.93567,1.6264 3.93567,1.6264c0,0 2.62806,-0.75843 3.88242,-0.95791c3.84456,-0.61142 8.43935,-7.19104 8.43935,-7.19104c0,0 -2.41425,8.92762 -8.47493,12.05027c-8.24717,4.2492 -21.15146,8.60699 -32.21098,6.3113l-0.00001,0.00001"/></g><path d="M172.2348,109.49498c-2.00684,4.68647 0.15941,7.823 0.15941,7.823c0,0 -5.38156,-4.86975 -7.91443,-10.20529c-0.63755,-1.34303 -0.98563,-2.76506 -1.16124,-4.08312c2.31439,0.92653 6.17353,2.09714 6.95118,2.33223c1.22181,0.36939 2.44293,0.74876 3.66376,1.12315c-0.61046,0.85059 -1.20264,1.85156 -1.69869,3.01001z" fill="#ffffff" stroke="#ff0000" stroke-width="0"/><path d="M208.19362,113.59654c1.26898,0.14244 2.54021,0.28041 3.80809,0.42782c0.80698,0.09383 4.81319,0.55589 7.30514,0.62703c-0.68569,1.13927 -1.57097,2.30529 -2.69039,3.2836c-4.44717,3.88666 -11.32231,6.21221 -11.32231,6.21221c0,0 3.23564,-2.01523 3.25982,-7.11326c0.00599,-1.26017 -0.13889,-2.41414 -0.36038,-3.43742z" fill="#ffffff" stroke="#ff0000" stroke-width="0"/><g stroke-width="0"><g stroke="#000000"><path d="M226.17108,53.21993c-0.30623,1.47527 -5.35818,1.67408 -22.77138,-1.94047c-17.41319,-3.61456 -22.2347,-5.86286 -21.92848,-7.33813c0.30623,-1.47527 5.62426,-1.61885 23.03743,1.9957c17.41319,3.61456 21.96865,5.80764 21.66242,7.2829z" fill="#252525"/><path d="M204.24264,45.88181c17.41319,3.61456 22.23472,5.86287 21.92849,7.33813c-0.30623,1.47527 -5.62426,1.61885 -23.03745,-1.9957c-17.41319,-3.61456 -21.96865,-5.80764 -21.66242,-7.2829c0.30623,-1.47527 5.35818,-1.67408 22.77138,1.94047z" fill="#222222"/></g><path d="M181.46816,43.95652l1.11526,-5.37278l44.69986,9.27861l-1.11526,5.37278z" fill="#222222" stroke="#000000"/><g fill="#202020" stroke="#000000"><path d="M227.28319,47.86232c-0.30623,1.47527 -5.35818,1.67408 -22.77138,-1.94047c-17.41319,-3.61456 -22.2347,-5.86286 -21.92848,-7.33813c0.30623,-1.47527 5.62426,-1.61885 23.03743,1.9957c17.41319,3.61456 21.96865,5.80764 21.66242,7.2829z"/><path d="M205.35475,40.52421c17.41319,3.61456 22.23472,5.86285 21.92849,7.33812c-0.30623,1.47527 -5.62426,1.61885 -23.03745,-1.9957c-17.41319,-3.61456 -21.96865,-5.80764 -21.66242,-7.2829c0.30623,-1.47527 5.35818,-1.67407 22.77137,1.94048z"/></g><g fill="#222222" stroke="#000000"><path d="M220.54987,45.91987c-0.19807,0.95423 -7.30186,0.28652 -15.86676,-1.49134c-8.56489,-1.77786 -15.34753,-3.99266 -15.14946,-4.94687c0.19807,-0.95423 7.30185,-0.28652 15.86675,1.49134c8.56489,1.77786 15.34755,3.99265 15.14947,4.94687z"/><path d="M189.53365,39.48166c0,0 2.25087,-9.29503 2.39735,-14.18157c0.14251,-4.754 -1.53,-14.75102 -1.53,-14.75102l20.28827,4.21135l9.86062,31.15947z"/><path d="M189.53365,39.48166l21.44753,-24.66066l20.28827,4.21135c0,0 -5.51318,8.50543 -7.27454,12.92341c-1.81047,4.54114 -3.44502,13.96411 -3.44502,13.96411z"/></g><path d="M231.26937,19.03233c-0.48756,2.34884 -10.03153,2.35393 -21.31703,0.01133c-11.2855,-2.3426 -20.03897,-6.14576 -19.5514,-8.49462c0.48756,-2.34884 10.03152,-2.35391 21.31703,-0.01132c11.2855,2.3426 20.03897,6.14576 19.5514,8.49461z" fill="#202020" stroke="#000000"/><g fill="#770000"><g><g stroke="#000000"><path d="M220.76733,46.60936c-0.12726,0.61305 -7.32841,-0.36332 -16.08423,-2.18082c-8.75581,-1.81749 -15.75065,-3.78785 -15.62339,-4.40091c0.12726,-0.61305 7.32841,0.36332 16.08423,2.18082c8.75581,1.81749 15.75065,3.78785 15.62339,4.40091z"/><path d="M189.05972,40.02763c0,0 1.56316,-5.94752 1.34128,-9.15259c-0.21587,-3.11814 30.36635,15.73433 30.36635,15.73433z"/><path d="M189.05972,40.02763c0,0 35.55897,-5.12317 34.11993,-2.34855c-1.47918,2.85198 -2.41231,8.93028 -2.41231,8.93028z"/></g><path d="M205.74531,39.31132c-9.06,-1.88064 -14.45626,-8.26158 -14.39039,-8.57889c0.06587,-0.31731 6.27494,2.14788 15.33494,4.02851c9.06,1.88064 8.11546,6.431 -0.94455,4.55037z" stroke="#2b2b2b"/></g><g><g stroke="#000000"><path d="M205.14394,42.20843c8.75582,1.8175 15.75065,3.78785 15.62339,4.40091c-0.12726,0.61305 -7.32842,-0.36332 -16.08423,-2.18082c-8.75582,-1.8175 -15.75065,-3.78785 -15.62339,-4.40091c0.12726,-0.61305 7.32842,0.36332 16.08423,2.18082z"/><path d="M189.05972,40.02763c0,0 35.55898,-5.12316 34.11993,-2.34855c-1.47918,2.85198 -2.41229,8.93027 -2.41229,8.93027z"/><path d="M189.05974,40.02763c0,0 1.56317,-5.94753 1.34127,-9.1526c-0.21587,-3.11814 30.36635,15.73433 30.36635,15.73433z"/></g><path d="M206.68986,34.76095c9.06,1.88064 15.73727,2.09034 15.6714,2.40765c-0.06587,0.31731 -7.55595,4.02337 -16.61595,2.14273c-9.06,-1.88064 -8.11546,-6.431 0.94455,-4.55037z" stroke="#2b2b2b"/></g></g></g><path d="M174.92434,130.47382v-1.92894h29.28493v1.92894c0,0 -9.92728,3.50718 -14.75207,3.50718c-4.93439,0 -14.53287,-3.50718 -14.53287,-3.50718z" fill="url(#color-3)" stroke="#2b2b2b" stroke-width="0"/><path d="M173.28663,151.84065c0,8.27085 -0.65264,24.1802 -2.42917,37.72854c-1.69053,12.89253 2.76173,57.98819 -1.37028,57.98819c-1.55097,0 -23.56781,-2.12915 -25.75645,-12.40385c-1.76524,-8.28705 6.69117,-35.89256 4.84706,-44.16241c-3.43776,-15.41661 -7.87871,-33.78774 -7.87871,-39.88113c0,-16.14134 25.51619,-25.17862 33.9904,-25.17862c0.68543,0 -4.21225,2.22289 -4.39349,5.78c-0.24585,4.82507 2.99063,11.96878 2.99063,20.12928z" fill="#770000" stroke="#2b2b2b" stroke-width="0"/><path d="M210.15081,101.83489c-7.79026,-1.61707 -10.57697,-8.70552 -8.85728,-16.99015c1.71969,-8.28464 6.39164,-15.88911 14.1819,-14.27204c7.79026,1.61707 13.74679,11.0149 12.0271,19.29953c-1.71969,8.28464 -9.56147,13.57972 -17.35174,11.96265z" fill="#ffffff" stroke="#000000" stroke-width="0"/><path d="M176.81931,94.91607c-7.79027,-1.61707 -12.87674,-9.59574 -11.15705,-17.88038c1.71969,-8.28463 10.92447,-14.53534 18.71473,-12.91827c7.79026,1.61707 9.04964,10.45272 7.32994,18.73738c-1.71969,8.28463 -7.09739,13.67835 -14.88765,12.06128z" fill="#ffffff" stroke="#000000" stroke-width="0"/><g fill="#262626" stroke="#000000" stroke-width="0"><path d="M203.60413,99.41594c-0.55979,2.69678 -5.44963,3.96215 -10.92174,2.82627c-5.47212,-1.13588 -9.45436,-4.24287 -8.89457,-6.93966c0.55979,-2.69678 5.44963,-3.96216 10.92175,-2.82628c5.47212,1.13588 9.45437,4.24287 8.89458,6.93967z"/><path d="M200.29815,100.90635c-0.36966,1.78086 -4.21468,4.47611 -8.1002,3.66957c-3.88552,-0.80654 -6.34016,-4.80945 -5.9705,-6.5903c0.36966,-1.78086 3.81916,-2.57071 7.70468,-1.76417c3.88552,0.80654 6.73568,2.90404 6.36601,4.6849z"/></g></g></g></g></svg>