<svg version="1.1" xmlns="http://www.w3.org/2000/svg" xmlns:xlink="http://www.w3.org/1999/xlink" width="73.44674" height="86.93515" viewBox="0,0,73.44674,86.93515"><g transform="translate(-323.27663,-136.53243)"><g data-paper-data="{&quot;isPaintingLayer&quot;:true}" fill-opacity="0.51765" fill="#5de67e" fill-rule="nonzero" stroke="none" stroke-width="0" stroke-linejoin="miter" stroke-miterlimit="10" stroke-dasharray="" stroke-dashoffset="0" style="mix-blend-mode: normal"><g><g><path d="M375.56223,206.35801c0,4.70537 -6.50946,8.51983 -14.53928,8.51983c-8.02982,0 -14.53928,-3.81446 -14.53928,-8.51983c0,-4.70537 6.50946,-8.51983 14.53928,-8.51983c8.02982,0 14.53928,3.81446 14.53928,8.51983z" stroke-linecap="butt"/><g><g><g><path d="M351.70627,215.21822c-0.35641,-0.09076 -0.67359,-1.98599 -0.67359,-1.98599l3.6427,-14.30422c0,0 1.25355,-1.78171 1.60994,-1.69095c0.40112,0.10215 0.67849,2.27373 0.67849,2.27373l-3.64269,14.30422c0,0 -1.21374,1.50536 -1.61485,1.40321z" stroke-linecap="butt"/><path d="M353.13782,213.69072l-2.1016,-0.3442" stroke-linecap="round"/><path d="M354.78822,199.0224l1.86011,0.47369" stroke-linecap="round"/><path d="M352.984,206.10725l2.39849,-0.82166" stroke-linecap="round"/><path d="M354.8928,202.29597c0.1622,0.0413 0.26814,0.17517 0.2366,0.299c-0.03154,0.12382 -0.18859,0.19071 -0.3508,0.14941c-0.16221,-0.04131 -0.26816,-0.17517 -0.23662,-0.299c0.03153,-0.12382 0.18859,-0.19072 0.35081,-0.14941z" stroke-linecap="butt"/><path d="M353.18651,209.40573c0.16221,0.04131 0.26815,0.17517 0.23661,0.299c-0.03154,0.12382 -0.18859,0.19072 -0.3508,0.14941c-0.16221,-0.0413 -0.26815,-0.17517 -0.23661,-0.299c0.03153,-0.12382 0.18859,-0.19072 0.3508,-0.14941z" stroke-linecap="butt"/></g><g><path d="M358.94712,206.84623v-1.76982c0,0 0.46683,-0.57621 1.6875,-0.57621c1.35729,0 2.01677,0.57621 2.01677,0.57621v1.76982z" stroke-linecap="butt"/><g><path d="M360.81495,216.14923c-0.41391,0.00209 -1.22748,-1.75216 -1.22748,-1.75216l-0.07447,-14.76057c0,0 0.79441,-2.03999 1.20834,-2.04208c0.36777,-0.00186 1.15311,2.03017 1.15311,2.03017l0.07448,14.76057c0,0 -0.7662,1.76223 -1.13398,1.76408z" stroke-linecap="butt"/><path d="M361.91789,214.49521l-2.12244,-0.17438" stroke-linecap="round"/><path d="M359.82271,199.69857l1.91946,-0.00968" stroke-linecap="round"/><path d="M359.65055,205.62233l2.1285,1.37744" stroke-linecap="round"/><path d="M360.84882,202.83994c0.16738,-0.00085 0.3036,0.10206 0.30424,0.22983c0.00065,0.12778 -0.13453,0.23204 -0.30191,0.23289c-0.16738,0.00084 -0.30358,-0.10206 -0.30423,-0.22982c-0.00065,-0.12778 0.13451,-0.23204 0.3019,-0.23289z" stroke-linecap="butt"/><path d="M360.78468,210.15132c0.16738,-0.00085 0.3036,0.10206 0.30424,0.22982c0.00065,0.12778 -0.13452,0.23204 -0.3019,0.23289c-0.16738,0.00085 -0.30359,-0.10205 -0.30423,-0.22982c-0.00065,-0.12778 0.13452,-0.23204 0.3019,-0.23289z" stroke-linecap="butt"/></g><path d="M359.23531,206.14652l-0.20579,-1.23476c0,0 0.70532,0.20578 1.64634,0.20578c0.78314,0 1.85214,-0.20578 1.85214,-0.20578l-0.20579,1.23476z" stroke-linecap="butt"/><path d="M358.91693,208.38566v-3.28092c0,0 0.60945,0.46397 1.69338,0.46397c1.22227,0 2.0713,-0.46397 2.0713,-0.46397l-0.04116,3.28092c0,0 -1.45144,0.20205 -2.09748,0.20205c-0.59004,0 -1.62603,-0.20205 -1.62603,-0.20205z" stroke-linecap="butt"/></g><g><path d="M369.82777,213.81884c-0.40112,0.10215 -1.61485,-1.40321 -1.61485,-1.40321l-3.64269,-14.30422c0,0 0.27737,-2.17158 0.67849,-2.27373c0.3564,-0.09076 1.60994,1.69095 1.60994,1.69095l3.6427,14.30422c0,0 -0.31718,1.89523 -0.67359,1.98599z" stroke-linecap="butt"/><path d="M368.39627,212.29133l2.1016,-0.3442" stroke-linecap="round"/><path d="M364.88574,198.09671l1.86011,-0.47369" stroke-linecap="round"/><path d="M366.15158,203.8862l2.39849,0.82166" stroke-linecap="round"/><path d="M366.64124,200.89657c0.16221,-0.04131 0.31928,0.02558 0.35081,0.14941c0.03154,0.12382 -0.07441,0.25769 -0.23662,0.299c-0.16221,0.0413 -0.31926,-0.02559 -0.3508,-0.14941c-0.03154,-0.12382 0.0744,-0.25769 0.2366,-0.299z" stroke-linecap="butt"/><path d="M368.34756,208.00633c0.16221,-0.04131 0.31927,0.02559 0.3508,0.14941c0.03154,0.12382 -0.0744,0.25769 -0.23661,0.299c-0.16221,0.04131 -0.31926,-0.02558 -0.3508,-0.14941c-0.03154,-0.12382 0.0744,-0.25769 0.23661,-0.299z" stroke-linecap="butt"/></g><path d="M349.81871,211.8176v-20.74394h22.64899v20.74394z" stroke-linecap="butt"/><g><g><g><g><g stroke-linecap="butt"><path d="M381.54999,203.38733c-0.02537,3.43254 -1.46954,7.74275 -4.26237,11.39227c-3.23465,4.22688 -8.35068,7.56748 -16.32017,7.63176c-1.03209,0.00834 -0.43666,1.12028 -1.38911,1.0127c-0.47227,-0.05335 -2.52232,-1.2845 -2.97512,-1.36439c-0.4714,-0.08319 0.23194,1.51297 -0.21843,1.40242c-0.60736,-0.14908 -2.35984,-2.01576 -2.92912,-2.21149c-2.58772,-0.8897 -4.78309,-2.2429 -6.59531,-3.89196c-4.60563,-4.19098 -6.24273,-10.10764 -6.42078,-13.4879c-0.41507,-23.98251 41.25856,-20.53355 41.1104,-0.48338zM360.68269,213.23619c2.98556,0 14.07624,-4.42298 14.07624,-7.40855c0,-2.86414 -8.12521,-7.6555 -16.79272,-7.6555c-7.43273,0 -9.87806,7.13739 -9.87806,10.00154c0,2.86414 9.73039,5.06251 12.59453,5.06251z"/><path d="M377.82357,201.8343c0,3.91361 -0.52477,9.56742 -5.00335,13.12763c-2.48144,1.97259 -6.0483,3.30247 -11.71728,3.33753c-6.70304,0.04132 -10.66428,-2.04454 -13.15908,-4.81223c-3.26016,-3.61677 -3.885,-8.39791 -3.52346,-11.11797c0.1651,-1.54698 3.03864,-5.37754 15.4504,-5.18519c14.42134,-0.09392 17.95276,3.41327 17.95276,4.65024zM360.18878,211.75449c4.64757,-0.0581 11.28745,-0.79066 11.2363,-5.80336c-0.05115,-5.0127 -6.13965,-6.32798 -11.35977,-6.29727c-5.22013,0.03071 -9.6778,1.84559 -9.63111,6.42075c0.04669,4.57516 5.10701,5.73798 9.75458,5.67989z"/></g><g><path d="M346.90709,208.00987c0,0 0.47187,-0.0082 0.65734,-0.07614c0.26351,-0.09652 0.4587,0.00491 0.65243,0.22363c0.63037,0.71165 2.2424,2.49972 4.67535,3.84984c2.11843,1.17558 5.59473,2.18861 8.17765,2.08253c2.71252,-0.08836 5.6178,-0.83406 7.91427,-2.03226c2.56615,-1.3389 4.24394,-3.13395 4.88209,-3.89175c0.21806,-0.25893 0.454,-0.31647 0.76546,-0.2309c0.19931,0.05475 0.64776,0.17794 0.64776,0.17794c0,0 -1.34985,2.00838 -3.88486,3.84588c-2.54826,1.8471 -6.2923,3.52346 -10.38536,3.56218c-9.02659,0.08539 -14.10213,-7.51096 -14.10213,-7.51096z" stroke-linecap="butt"/><path d="M346.80998,208.91121c0,0 0,-0.13777 0,-0.59974c0,-0.39427 0.34256,-0.37958 0.56255,-0.06813c0.73588,1.04187 2.21781,2.81295 4.58636,4.25085c2.1982,1.33449 5.46178,2.24938 8.7201,2.41539c3.69044,-0.03933 7.13791,-1.10755 9.4912,-2.51211c2.24751,-1.34142 3.69769,-2.93447 4.46871,-3.93964c0.25055,-0.32665 0.6799,-0.57357 0.6799,-0.14637c0,0.46761 0,0.70557 0,0.70557c0,0 -0.44475,2.47947 -2.97329,4.46224c-2.3695,1.85804 -6.63934,3.22833 -12.05143,3.20519c-3.93117,-0.01681 -7.54831,-1.26233 -9.66491,-2.75152c-3.17828,-2.23615 -3.81916,-5.02174 -3.81916,-5.02174z" stroke-linecap="butt"/><path d="M348.80025,211.7688l-0.03502,-1.07012" stroke-linecap="round"/><path d="M351.40066,212.84267l0.03503,1.07012" stroke-linecap="round"/><path d="M354.58776,214.26823l0.03503,1.07012" stroke-linecap="round"/><path d="M358.14258,215.1438l0.03503,1.07012" stroke-linecap="round"/><path d="M362.24912,215.27849l0.03503,1.07012" stroke-linecap="round"/><path d="M366.51318,215.60778l-0.03503,-1.07012" stroke-linecap="round"/><path d="M370.03301,213.25238l0.03502,1.07012" stroke-linecap="round"/><path d="M373.28139,210.83337l0.03503,1.07012" stroke-linecap="round"/></g></g><path d="M343.59433,204.39671c0,1.16904 -0.66338,2.11673 -1.48171,2.11673c-0.81833,0 -1.48171,-0.94769 -1.48171,-2.11673c0,-1.16904 0.66338,-2.11673 1.48171,-2.11673c0.81833,0 1.48171,0.94769 1.48171,2.11673z" stroke-linecap="butt"/><path d="M349.89159,195.94567c0,0.96153 -0.79606,1.74101 -1.77805,1.74101c-0.98199,0 -1.77805,-0.77947 -1.77805,-1.74101c0,-0.96153 0.79606,-1.74101 1.77805,-1.74101c0.98199,0 1.77805,0.77947 1.77805,1.74101z" stroke-linecap="butt"/><path d="M345.52052,198.68683c0,0.92061 -0.61363,1.66693 -1.37058,1.66693c-0.75696,0 -1.37058,-0.7463 -1.37058,-1.66693c0,-0.92061 0.61364,-1.66693 1.37058,-1.66693c0.75696,0 1.37058,0.7463 1.37058,1.66693z" stroke-linecap="butt"/><path d="M343.00163,201.57616c0,0.42962 -0.3317,0.7779 -0.74085,0.7779c-0.40916,0 -0.74085,-0.34828 -0.74085,-0.7779c0,-0.42962 0.3317,-0.7779 0.74085,-0.7779c0.40916,0 0.74085,0.34828 0.74085,0.7779z" stroke-linecap="butt"/><path d="M342.70529,199.83516c0,0.2455 -0.13267,0.44451 -0.29634,0.44451c-0.16366,0 -0.29634,-0.19901 -0.29634,-0.44451c0,-0.2455 0.13267,-0.44451 0.29634,-0.44451c0.16366,0 0.29634,0.19901 0.29634,0.44451z" stroke-linecap="butt"/><path d="M354.11445,218.72696c0,0.57283 -0.38145,1.03719 -0.85198,1.03719c-0.47054,0 -0.85198,-0.46437 -0.85198,-1.03719c0,-0.57283 0.38145,-1.03719 0.85198,-1.03719c0.47054,0 0.85198,0.46437 0.85198,1.03719z" stroke-linecap="butt"/><path d="M353.66993,218.83807c0,0.71604 -0.54729,1.2965 -1.22241,1.2965c-0.67512,0 -1.22241,-0.58046 -1.22241,-1.2965c0,-0.71604 0.54729,-1.2965 1.22241,-1.2965c0.67512,0 1.22241,0.58046 1.22241,1.2965z" stroke-linecap="butt"/><path d="M351.66964,217.80089c0,0.51146 -0.29852,0.92607 -0.66677,0.92607c-0.36824,0 -0.66677,-0.41461 -0.66677,-0.92607c0,-0.51146 0.29852,-0.92607 0.66677,-0.92607c0.36824,0 0.66677,0.41461 0.66677,0.92607z" stroke-linecap="butt"/><path d="M355.67922,219.39371c0,0.65467 -0.46638,1.18537 -1.04168,1.18537c-0.57531,0 -1.04168,-0.5307 -1.04168,-1.18537c0,-0.65467 0.46638,-1.18537 1.04168,-1.18537c0.57531,0 1.04168,0.53071 1.04168,1.18537z" stroke-linecap="butt"/><path d="M351.52145,218.72696c0,0.20458 -0.26535,0.37043 -0.59268,0.37043c-0.32733,0 -0.59268,-0.16585 -0.59268,-0.37043c0,-0.20458 0.26535,-0.37043 0.59268,-0.37043c0.32733,0 0.59268,0.16585 0.59268,0.37043z" stroke-linecap="butt"/><path d="M350.18793,216.94889c0,0.08183 -0.11609,0.14817 -0.2593,0.14817c-0.1432,0 -0.2593,-0.06633 -0.2593,-0.14817c0,-0.08183 0.11609,-0.14817 0.2593,-0.14817c0.1432,0 0.2593,0.06633 0.2593,0.14817z" stroke-linecap="butt"/><path d="M356.4852,220.76431c0,0.1432 -0.09951,0.2593 -0.22225,0.2593c-0.12274,0 -0.22225,-0.11609 -0.22225,-0.2593c0,-0.1432 0.09951,-0.2593 0.22225,-0.2593c0.12274,0 0.22225,0.11609 0.22225,0.2593z" stroke-linecap="butt"/><path d="M381.00757,204.35437c0,0.69558 -0.56388,1.25946 -1.25946,1.25946c-0.69558,0 -1.25946,-0.56387 -1.25946,-1.25946c0,-0.69558 0.56387,-1.25946 1.25946,-1.25946c0.69558,0 1.25946,0.56387 1.25946,1.25946z" stroke-linecap="butt"/><path d="M380.3408,207.16963c0,0.85924 -0.54729,1.5558 -1.22241,1.5558c-0.67512,0 -1.22241,-0.69655 -1.22241,-1.5558c0,-0.85924 0.54729,-1.5558 1.22241,-1.5558c0.67512,0 1.22241,0.69655 1.22241,1.5558z" stroke-linecap="butt"/><path d="M380.19263,205.762c0,0.73649 -0.44779,1.33354 -1.00015,1.33354c-0.55237,0 -1.00015,-0.59704 -1.00015,-1.33354c0,-0.73649 0.44778,-1.33354 1.00015,-1.33354c0.55237,0 1.00015,0.59705 1.00015,1.33354z" stroke-linecap="butt"/><path d="M379.08135,208.98471c0,0.34779 -0.28194,0.62972 -0.62972,0.62972c-0.34779,0 -0.62972,-0.28194 -0.62972,-0.62972c0,-0.34779 0.28194,-0.62972 0.62972,-0.62972c0.34779,0 0.62972,0.28194 0.62972,0.62972z" stroke-linecap="butt"/><path d="M378.56275,207.31778c0,0.12274 -0.14926,0.22225 -0.33338,0.22225c-0.18412,0 -0.33338,-0.09951 -0.33338,-0.22225c0,-0.12274 0.14926,-0.22225 0.33338,-0.22225c0.18412,0 0.33338,0.09951 0.33338,0.22225z" stroke-linecap="butt"/><path d="M380.04446,209.13289c0,0.10229 -0.08292,0.18522 -0.18522,0.18522c-0.10229,0 -0.18522,-0.08292 -0.18522,-0.18522c0,-0.10229 0.08292,-0.18522 0.18522,-0.18522c0.10229,0 0.18522,0.08292 0.18522,0.18522z" stroke-linecap="butt"/><path d="M371.37646,217.72679c0,0.1432 -0.13268,0.2593 -0.29634,0.2593c-0.16366,0 -0.29634,-0.11609 -0.29634,-0.2593c0,-0.1432 0.13267,-0.2593 0.29634,-0.2593c0.16366,0 0.29634,0.11609 0.29634,0.2593z" stroke-linecap="butt"/><path d="M372.48774,217.50453c0,0.10229 -0.09951,0.18522 -0.22225,0.18522c-0.12274,0 -0.22225,-0.08292 -0.22225,-0.18522c0,-0.10229 0.09951,-0.18522 0.22225,-0.18522c0.12274,0 0.22225,0.08292 0.22225,0.18522z" stroke-linecap="butt"/></g><path d="M369.96914,218.05692l0.09385,0.89883c0,0 -0.34778,-0.50592 -0.57818,-0.25093c-0.18307,0.20261 -0.13206,1.40588 -0.13206,1.40588c0,0 -0.46505,-1.02549 -0.693,-0.83813c-0.10764,0.08848 -0.39818,1.47205 -0.39818,1.47205l-0.77912,-0.90887" stroke-linecap="round"/></g><path d="M340.90139,202.0444c0.34679,-3.39201 4.17919,-1.67167 4.17919,-1.67167c0,0 -1.12078,0.59852 -1.12078,4.00821c0,1.0383 0.3667,2.98111 0.97369,4.62638c0.32066,0.86917 0.81185,2.16647 1.37798,2.96871c0.45936,0.65094 1.12097,1.2761 1.3561,1.86941c0.72786,1.8367 0.17543,2.80709 -0.70636,2.80709c-0.73584,0 -2.32003,-1.78709 -3.52259,-3.99938c-1.3169,-2.42263 -2.23292,-5.35513 -2.45108,-7.00906c-0.17343,-1.31477 -0.20011,-2.48486 -0.08614,-3.59971z" stroke-linecap="butt"/><path d="M381.06872,201.08665c0.10277,1.13141 0.0787,2.31886 -0.07766,3.65315c-0.19669,1.67848 -1.02256,4.65453 -2.20986,7.11312c-1.08421,2.24513 -4.48811,5.95205 -5.15153,5.95205c-0.79502,0 -0.758,-1.10827 -0.10178,-2.97225c0.0884,-0.25109 0.78409,-0.76191 1.30729,-1.41605c0.73142,-0.91446 1.36141,-2.03046 1.60286,-2.41558c0.51042,-0.81415 0.70631,-1.96607 0.99541,-2.84814c0.54725,-1.6697 0.87786,-3.64135 0.87786,-4.69507c0,-1.07671 -0.20406,-1.82141 -0.37179,-2.33647c-0.37131,-1.14023 -0.88564,-1.31967 -0.88564,-1.31967c0,0 3.70218,-2.15746 4.01484,1.28491z" stroke-linecap="butt"/></g></g><g><path d="M376.42463,205.67115c0,0.33477 -0.43822,0.74085 -1.14496,0.74085c-0.70673,0 -1.27965,-0.33874 -1.27965,-0.67351c0,-0.33477 0.57292,-0.60616 1.27965,-0.60616c0.70673,0 1.14496,0.20403 1.14496,0.5388z" stroke-linecap="butt"/><g><path d="M373.11393,197.97556l-0.22814,-1.75506c0,0 0.20286,-0.60744 0.92751,-0.70163c0.80575,-0.10474 1.27154,0.41578 1.27154,0.41578l0.22814,1.75506z" stroke-linecap="butt"/><g><path d="M374.46739,205.41401l-1.94696,-14.63166l1.40034,-0.19406l1.94697,14.63166c0,0 0.15118,0.55192 -0.59988,0.65137c-0.81785,0.10831 -0.80046,-0.45732 -0.80046,-0.45732z" stroke-linecap="butt"/><path d="M375.86349,205.33149l-1.28247,-0.00913" stroke-linecap="round"/><path d="M373.37369,196.7076l1.44115,1.20169" stroke-linecap="round"/><path d="M373.72638,193.85592c0.09926,-0.01376 0.19339,0.07778 0.21024,0.20444c0.01686,0.12666 -0.04996,0.24049 -0.14921,0.25425c-0.09926,0.01375 -0.19338,-0.07778 -0.21023,-0.20443c-0.01686,-0.12666 0.04995,-0.24049 0.1492,-0.25424z" stroke-linecap="butt"/><path d="M374.6308,201.11129c0.09926,-0.01376 0.19339,0.07778 0.21024,0.20442c0.01686,0.12666 -0.04995,0.24049 -0.14921,0.25424c-0.09926,0.01376 -0.19337,-0.07777 -0.21023,-0.20443c-0.01686,-0.12666 0.04994,-0.2405 0.1492,-0.25425z" stroke-linecap="butt"/></g><path d="M373.19476,197.25945l-0.28134,-1.20858c0,0 0.44524,0.14965 1.00388,0.07702c0.46491,-0.06044 1.07301,-0.34701 1.07301,-0.34701l0.037,1.24034z" stroke-linecap="butt"/><path d="M373.29444,199.50447l-0.42294,-3.25356c0,0 0.42161,0.41307 1.06509,0.32942c0.72561,-0.09433 1.16982,-0.61994 1.16982,-0.61994l0.3985,3.25673c0,0 -0.8356,0.31238 -1.21913,0.36222c-0.35028,0.04553 -0.99134,-0.07489 -0.99134,-0.07489z" stroke-linecap="butt"/></g></g><g><path d="M346.80932,205.31138c0.70673,0 1.27965,0.27138 1.27965,0.60616c0,0.33477 -0.57292,0.67351 -1.27965,0.67351c-0.70673,0 -1.14496,-0.40609 -1.14496,-0.74085c0,-0.33477 0.43822,-0.5388 1.14496,-0.5388z" stroke-linecap="butt"/><g><path d="M346.77602,197.86873l0.22813,-1.75506c0,0 0.46578,-0.52051 1.27154,-0.41578c0.72466,0.0942 0.9275,0.70163 0.9275,0.70163l-0.22813,1.75506z" stroke-linecap="butt"/><g><path d="M346.82113,206.05037c-0.75108,-0.09946 -0.59989,-0.65137 -0.59989,-0.65137l1.94697,-14.63166l1.40033,0.19406l-1.94696,14.63166c0,0 0.0174,0.56562 -0.80046,0.45732z" stroke-linecap="butt"/><path d="M346.22552,205.51053l1.28247,-0.00913" stroke-linecap="round"/><path d="M347.27417,198.08833l1.44115,-1.20169" stroke-linecap="round"/><path d="M348.36261,194.03499c0.09926,0.01375 0.16606,0.12758 0.1492,0.25423c-0.01686,0.12666 -0.11097,0.21818 -0.21023,0.20443c-0.09926,-0.01376 -0.16608,-0.12758 -0.14921,-0.25425c0.01685,-0.12666 0.11098,-0.21819 0.21024,-0.20444z" stroke-linecap="butt"/><path d="M347.45817,201.29031c0.09926,0.01376 0.16606,0.12758 0.1492,0.25425c-0.01686,0.12666 -0.11097,0.21819 -0.21023,0.20443c-0.09926,-0.01375 -0.16606,-0.12758 -0.14921,-0.25424c0.01685,-0.12665 0.11098,-0.21818 0.21024,-0.20442z" stroke-linecap="butt"/></g><path d="M347.06168,197.20028l0.037,-1.24033c0,0 0.60809,0.28657 1.07301,0.347c0.55864,0.07262 1.00388,-0.07702 1.00388,-0.07702l-0.28134,1.20857z" stroke-linecap="butt"/><path d="M347.8032,199.75841c-0.38353,-0.04986 -1.21913,-0.36222 -1.21913,-0.36222l0.39851,-3.25673c0,0 0.44421,0.52562 1.16982,0.61994c0.64348,0.08364 1.06509,-0.32942 1.06509,-0.32942l-0.42294,3.25356c0,0 -0.64106,0.12042 -0.99134,0.07489z" stroke-linecap="butt"/></g></g></g></g><g><g stroke-linecap="butt"><path d="M371.92596,174.53641c-1.49497,-1.4896 1.08439,-3.9738 3.67474,-7.00712c1.15817,-1.35623 2.43702,-3.02973 2.98662,-4.45667c0.16666,-0.43273 -1.35103,-3.09263 -0.76912,-3.93363c0.70295,-1.01594 2.04807,2.42227 2.22362,2.19824c1.15537,-1.47449 2.39995,-3.1326 3.2938,-4.96289c0.50793,-1.04007 -2.48273,-1.42764 -5.13134,-4.71563c-1.93414,-2.40104 -3.09372,-3.62109 -3.33278,-4.98689c-0.08284,-0.47331 0.02825,-0.84619 0.18961,-0.39359c0.79278,2.22353 2.16264,2.96371 3.8489,4.63776c1.6196,1.60786 6.89003,2.94574 7.97967,-0.00205c0.92862,-2.51216 1.41484,-4.88385 1.8811,-6.94945c0.13801,-0.61144 -3.24785,-4.66544 -2.86812,-5.08338c0.67192,-0.73952 1.89672,0.84828 2.74582,1.48359c0.38367,0.28707 0.83804,0.08487 0.87283,-0.09998c0.47011,-2.49827 0.73148,-3.95192 1.28313,-3.70514c0.23635,0.10574 0.36088,0.05374 0.48201,0.99954c0.5282,4.12398 0.58914,11.57309 -2.96395,19.99751c-0.81409,1.93022 -1.84453,3.67421 -2.9575,5.22821c-0.11229,0.15678 1.05884,2.52795 2.51586,3.07304c0.48332,0.18082 1.09955,0.05709 1.78123,-0.2495c0.28312,-0.12733 0.38066,-1.26005 0.92494,-2.48845c0.63233,-1.42713 0.76709,-1.92507 1.12649,-2.18412c0.26251,-0.18921 -0.24516,1.52979 -0.28114,2.60362c-0.02681,0.80033 1.34912,-0.00428 1.53965,-0.15701c1.9529,-1.56543 3.64048,-3.12211 3.74614,-2.29546c0.14184,1.10967 -2.66435,4.78722 -4.92465,6.5611c-1.38814,1.0894 -3.61702,1.68752 -4.44117,1.73861c-3.28324,0.20352 -4.94046,-3.03313 -5.10039,-2.88332c-0.73635,0.68974 -1.02483,1.77908 -1.87746,2.54322c-1.67419,1.50044 -6.30326,7.62751 -8.44859,5.48988z"/><path d="M383.76232,159.04149c0.13189,0.13004 0.00185,0.26192 0.00185,0.26192l-0.2061,0.20785c-1.26847,1.80813 -2.61656,3.83967 -3.79729,5.8032c-1.13687,1.70016 -2.79372,2.63789 -4.14693,4.04435c0,0 -0.13097,0.13097 -0.26194,0c-0.13097,-0.13097 0,-0.26193 0,-0.26193c1.38938,-1.34968 2.97877,-2.29925 4.09593,-3.98063c1.20261,-2.00113 2.60504,-3.9467 3.82293,-5.83881l0.22963,-0.23409c0,0 0.13003,-0.13189 0.26192,-0.00185z"/><path d="M390.19416,145.65277c0.18522,0 0.18522,0.18522 0.18522,0.18522v0.21167c0,1.18464 -0.34383,2.00143 -0.86625,3.04625c0,0 -0.02876,0.05753 -0.08629,0.08783c0,0.49074 0,1.0806 0,1.52272c0,2.39712 -2.16485,4.63435 -3.10074,6.77099c-0.85254,0.87734 -1.07305,2.33885 -1.50913,3.44335c-0.42782,1.08362 -1.28309,1.9587 -1.67765,3.02379c-1.28038,1.52149 -2.02785,3.04315 -3.86934,3.9672c0,0 -0.16566,0.08283 -0.24849,-0.08283c-0.08283,-0.16566 0.08283,-0.24849 0.08283,-0.24849c1.77558,-0.88426 2.47052,-2.36841 3.71484,-3.8222c0.37821,-1.04901 1.23485,-1.90778 1.65313,-2.97316c0.43889,-1.11787 0.66898,-2.63873 1.54633,-3.51423c0.87225,-2.09032 3.03778,-4.23876 3.03778,-6.56439c0,-0.52919 0,-1.05836 0,-1.58755v-0.21167c0,0 0,-0.18522 0.18522,-0.18522c0.01509,0 0.02894,0.00122 0.04168,0.00349c0.44083,-0.89851 0.72564,-1.6257 0.72564,-2.67586v-0.21167c0,0 0,-0.18522 0.18522,-0.18522z"/><path d="M388.13752,150.74295c0.17519,0.0601 0.11511,0.23529 0.11511,0.23529l-0.08001,0.22712c-0.4998,0.69661 -0.77939,1.52243 -1.2869,2.22451c-0.74271,0.74861 -1.08854,1.83483 -1.86243,2.60047c-0.5586,0.55265 -1.44014,1.12734 -1.75451,1.85001c0,0 -0.08283,0.16565 -0.24849,0.08283c-0.16566,-0.08283 -0.08283,-0.24849 -0.08283,-0.24849c0.72739,-1.34478 2.54552,-3.39165 3.66556,-4.52418c0.48821,-0.6796 0.75501,-1.48329 1.24055,-2.15527l0.05866,-0.17716c0,0 0.0601,-0.1752 0.23529,-0.1151z"/><path d="M378.15527,151.76483c0,-0.18522 0.18522,-0.18522 0.18522,-0.18522l0.36014,0.07448c0.09867,0.14661 0.28895,0.22201 0.46122,0.26145c1.1164,0.84207 4.51467,1.06389 4.54984,2.70687c0,0 0,0.18522 -0.18522,0.18522c-0.18522,0 -0.18522,-0.18522 -0.18522,-0.18522c0.03721,-1.23542 -3.46818,-1.6918 -4.34041,-2.37327c-0.22675,-0.06091 -0.45099,-0.18982 -0.59715,-0.37357l-0.06321,0.07448c0,0 -0.18522,0 -0.18522,-0.18522z"/><path d="M387.59427,140.67502c0.08283,-0.16565 0.24849,-0.08283 0.24849,-0.08283l0.19972,0.10038c1.45305,0.49503 2.86608,-0.47998 2.86608,1.70575c0,1.73687 -1.41338,3.83113 -2.47128,5.24419c0,0 -0.11113,0.14817 -0.2593,0.03704c-0.14817,-0.11113 -0.03704,-0.2593 -0.03704,-0.2593c1.00803,-1.3415 2.3972,-3.37653 2.3972,-5.02194c0,-1.85864 -1.31797,-0.93117 -2.63741,-1.36351l-0.22363,-0.11129c0,0 -0.16566,-0.08283 -0.08283,-0.24849z"/><path d="M388.135,141.71348c0.10274,-0.1541 0.25685,-0.05137 0.25685,-0.05137l0.0093,0.0062c0.639,0.43038 1.22941,0.80259 0.79448,1.71245c0,0 -0.08283,0.16566 -0.24849,0.08283c-0.16566,-0.08283 -0.08283,-0.24849 -0.08283,-0.24849c0.37796,-0.71001 -0.20425,-0.93176 -0.66864,-1.23858l-0.0093,-0.0062c0,0 -0.1541,-0.10274 -0.05137,-0.25685z"/><path d="M394.507,163.83018c0,0.18522 -0.18522,0.18522 -0.18522,0.18522l-0.0806,-0.00173c-0.06173,0.00752 -0.12389,0.01657 -0.18642,0.02702c0.01733,0.02603 0.02889,0.06074 0.02889,0.10699c0,0.14089 -0.10719,0.17461 -0.15847,0.18268c-0.77366,2.14669 -2.84447,3.90359 -5.20513,2.72608c-1.25761,-0.96516 -3.10051,-2.1314 -4.53555,-2.84893c0,0 -0.16566,-0.08283 -0.08283,-0.24849c0.08283,-0.16566 0.24849,-0.08283 0.24849,-0.08283c1.44694,0.72346 3.29943,1.89392 4.56638,2.86624c2.16759,1.08738 4.01809,-0.66164 4.68359,-2.60359c-1.05468,0.27496 -2.17505,0.87051 -3.11146,1.33871c0,0 -0.16566,0.08283 -0.2485,-0.08283c-0.08283,-0.16565 0.08283,-0.24849 0.08283,-0.24849c1.18763,-0.59382 2.57778,-1.30655 3.86771,-1.49954l0.13108,-0.00173c0,0 0.18522,0 0.18522,0.18522z"/><path d="M388.03142,167.61729c-0.08283,0.16566 -0.24849,0.08283 -0.24849,0.08283l-0.19972,-0.10038c-1.49804,-0.4991 -2.42676,-1.54454 -3.6303,-2.34541c0,0 -0.1541,-0.10274 -0.05136,-0.25684c0.10274,-0.1541 0.25684,-0.05137 0.25684,-0.05137c1.19208,0.79629 2.08923,1.8187 3.56658,2.31139l0.22363,0.11129c0,0 0.16566,0.08283 0.08283,0.24849z"/><path d="M378.42118,160.73581c0.13097,-0.13097 0.26193,0 0.26193,0l0.10584,0.10584c0.30249,0.32644 0.42069,0.75688 0.24637,1.16632c0,0 -0.08283,0.16566 -0.2485,0.08283c-0.16566,-0.08283 -0.08283,-0.24849 -0.08283,-0.24849c0.13097,-0.19557 0.00304,-0.57964 -0.17698,-0.73873l-0.10583,-0.10583c0,0 -0.13097,-0.13097 0,-0.26194z"/></g><g stroke-linecap="butt"><path d="M351.57,159.88055c-1.22281,3.50116 -2.6758,8.4251 -4.11846,9.66375c-0.79885,0.68588 -0.91218,-0.88695 -1.30871,-1.05156c-0.97199,-0.40352 0.98902,-3.02282 2.76698,-7.30513c0.11522,-0.27751 -3.33478,-2.9456 -2.37397,-4.63991c0.18337,-0.32336 1.14528,1.85554 2.07646,2.64271c0.51443,0.43487 1.00132,0.17024 1.04853,0.03508c0.81722,-2.33988 1.35102,-4.55377 1.69403,-6.31714c0.06643,-0.34152 -2.31573,-1.95245 -1.55016,-2.86479c0.20196,-0.24068 0.22337,0.33256 0.86714,0.85471c0.51578,0.41835 0.9555,0.47464 0.97004,0.38251c0.06835,-0.43305 0.12188,-0.81397 0.16321,-1.13353c0.08974,-0.69378 0.65354,-0.20838 0.75491,0.4659c0.30556,2.03221 0.24773,5.72364 -0.98996,9.26741z"/><path d="M341.90095,169.04653c-0.85263,-0.76414 -3.49596,-5.69004 -4.23231,-6.37979c-0.15993,-0.14981 -1.84361,2.74288 -5.12686,2.53936c-0.82416,-0.05109 -2.94721,-0.64922 -4.33534,-1.73861c-2.26029,-1.77386 -5.0665,-5.45141 -4.92464,-6.5611c0.10566,-0.82665 1.79324,0.73003 3.74614,2.29546c0.19053,0.15273 1.56645,0.95734 1.53964,0.157c-0.03598,-1.07382 -0.54365,-2.79284 -0.28114,-2.60363c0.3594,0.25905 0.49415,0.75699 1.12649,2.18413c0.54428,1.22841 0.64182,2.36112 0.92494,2.48845c0.68169,0.3066 1.29792,0.43032 1.78124,0.2495c1.45702,-0.54509 3.26317,-3.4719 3.15088,-3.62869c-2.42539,-3.38651 -3.07416,-6.00243 -3.48795,-9.35752c-0.41773,-3.387 -1.32724,-6.96102 -0.79302,-11.13201c0.12113,-0.94581 0.24566,-0.89381 0.48201,-0.99954c0.55166,-0.24679 0.81303,1.20686 1.28313,3.70514c0.03479,0.18486 0.48916,0.38706 0.87283,0.09998c0.84911,-0.63531 2.0739,-2.22311 2.74582,-1.48359c0.37973,0.41793 -3.00613,4.47195 -2.86812,5.08338c0.46626,2.0656 0.95249,4.4373 1.8811,6.94946c1.08965,2.94778 5.56829,2.03021 7.68333,-0.2943c0.18791,-0.20653 -1.67752,-2.64893 -0.9509,-3.03826c0.30861,-0.16536 0.55554,0.99277 1.04537,1.54043c0.33706,0.37686 0.98419,0.22085 1.05834,0.12966c1.59047,-1.95602 3.49994,-4.39598 3.18205,-2.57965c-0.23906,1.36581 -1.39863,2.58586 -3.33278,4.9869c-2.64861,3.28799 -5.63927,3.67556 -5.13134,4.71563c0.89385,1.83029 2.13843,3.4884 3.2938,4.96289c0.17555,0.22405 1.52066,-3.21418 2.22362,-2.19823c0.58191,0.84101 -0.93579,3.5009 -0.76912,3.93363c0.5496,1.42696 1.82845,3.10044 2.98662,4.45668c2.59035,3.03334 5.16971,5.51752 3.67474,7.00712c-2.14534,2.13762 -6.77442,-3.98945 -8.4486,-5.48988z"/><path d="M331.34908,138.77341c0.18522,0 0.18522,0.18522 0.18522,0.18522v0.21167c0,1.28862 0.07558,2.56195 0.15876,3.82651l-0.00002,-0.01624c0,0 -0.00016,-0.18522 0.18505,-0.18538c0.18522,-0.00016 0.18538,0.18505 0.18538,0.18505l0.00028,0.33558c0.00759,0.51189 0.11071,0.94063 0.21247,1.4388c0.05725,2.59573 1.96451,4.11722 2.73768,6.40823c1.29381,1.92657 2.22374,4.02843 3.30567,6.05231c0.34996,1.79221 0.88355,3.66155 1.46045,5.39224c0,0 0.05857,0.17572 -0.11714,0.23428c-0.17571,0.05856 -0.23428,-0.11714 -0.23428,-0.11714c-0.18741,-0.56225 -0.36955,-1.13866 -0.54218,-1.72204c-0.01263,0.01074 -0.0278,0.02082 -0.04597,0.02991c-0.16566,0.08283 -0.24849,-0.08283 -0.24849,-0.08283l-0.11982,-0.24943c-0.00823,-0.56664 -1.17533,-2.31249 -1.55815,-2.68852c-0.86994,-1.73989 -1.93663,-3.4066 -2.66763,-5.2255c0,0 -0.06879,-0.17197 0.10318,-0.24075c0.17197,-0.06879 0.24075,0.10318 0.24075,0.10318c0.7129,1.79144 1.76893,3.43595 2.6242,5.14647c0.28962,0.2944 0.95934,1.26932 1.33991,2.03115c-0.22285,-0.83096 -0.42123,-1.66624 -0.58341,-2.48569c-1.09885,-2.00044 -2.01357,-4.08696 -3.28915,-6.01348c-0.80549,-2.31825 -2.71428,-3.89202 -2.77369,-6.53075c-0.05322,-0.25622 -0.10524,-0.49586 -0.14481,-0.73758c0.03763,0.57731 0.07285,1.15316 0.09914,1.72816c0.05815,1.55175 0.38489,2.77916 0.75953,4.27179c0.09239,0.36811 0.36054,1.46233 0.78522,1.21296c0,0 0.17571,-0.05857 0.23428,0.11714c0.05856,0.17571 -0.11714,0.23427 -0.11714,0.23427c-1.65853,0.37568 -1.98525,-4.69416 -2.03203,-5.82152c-0.06989,-2.1747 -0.32848,-4.39531 -0.32848,-6.63121v-0.21167c0,0 0,-0.18522 0.18522,-0.18522z"/><path d="M344.90303,170.32729c-0.14693,0.11276 -0.25969,-0.03417 -0.25969,-0.03417l-0.16193,-0.21238c-0.40184,-0.79934 -0.88488,-1.43951 -1.43987,-2.13449c-1.62523,-1.70018 -3.12335,-3.51979 -4.7517,-5.17198c-0.89134,-1.74335 -1.93594,-3.24109 -2.56553,-5.12987c0,0 -0.05857,-0.17572 0.11714,-0.23428c0.17571,-0.05857 0.23428,0.11714 0.23428,0.11714c0.6191,1.85731 1.67554,3.30266 2.51461,5.03042c1.64207,1.61321 3.1153,3.45599 4.73001,5.1447c0.56629,0.7077 1.06918,1.36522 1.47508,2.18189l0.14176,0.18334c0,0 0.11276,0.14693 -0.03417,0.25969z"/><path d="M346.35572,168.96969c-0.1652,0.08375 -0.24895,-0.08143 -0.24895,-0.08143l-0.10677,-0.21131c-0.60556,-0.90675 -1.25516,-2.08027 -2.17297,-2.6919c-1.28042,-1.24824 -3.19089,-3.24382 -3.76345,-4.95387c0,0 -0.05857,-0.17571 0.11714,-0.23428c0.17571,-0.05857 0.23428,0.11714 0.23428,0.11714c0.54551,1.64449 2.41465,3.58219 3.64509,4.78309c0.9531,0.63565 1.63203,1.84981 2.25977,2.793l0.1173,0.23063c0,0 0.08375,0.1652 -0.08144,0.24895z"/><path d="M334.50116,140.59218c0.16566,0.08283 0.08283,0.24849 0.08283,0.24849l-0.10678,0.21353c-0.47643,0.86098 -1.30264,1.54695 -1.79828,2.53822c0,0 -0.08283,0.16566 -0.24849,0.08283c-0.16566,-0.08283 -0.08283,-0.2485 -0.08283,-0.2485c0.47454,-0.94907 1.39451,-1.71826 1.80017,-2.54193l0.1049,-0.20982c0,0 0.08283,-0.16565 0.24849,-0.08283z"/><path d="M337.40685,162.58528c-0.13097,0.13097 -0.26193,0 -0.26193,0l-0.05863,-0.07161c-1.20661,-0.61367 -1.79484,-2.05914 -1.79484,-3.34029c0,0 0,-0.18522 0.18522,-0.18522c0.18522,0 0.18522,0.18522 0.18522,0.18522c0,1.14422 0.5071,2.46176 1.59193,3.0099l0.15305,0.14007c0,0 0.13097,0.13096 0,0.26193z"/><path d="M324.97373,159.78328c0.13097,-0.13097 0.26194,0 0.26194,0l0.189,0.19239c1.13602,0.56739 2.16734,1.3465 3.35758,1.94107c1.82867,0.92294 3.24368,0.11673 5.04831,-0.48481c0,0 0.17571,-0.05857 0.23427,0.11714c0.05856,0.17571 -0.11714,0.23428 -0.11714,0.23428c-1.9055,0.63517 -3.39406,1.43786 -5.33173,0.46441c-1.20317,-0.60509 -2.25805,-1.39603 -3.40788,-1.97156l-0.23434,-0.23096c0,0 -0.13097,-0.13097 0,-0.26194z"/><path d="M329.33812,161.36947c-0.18522,0 -0.18522,-0.18522 -0.18522,-0.18522l0.01955,-0.02301c-0.19178,-0.38356 -0.33803,-0.78387 -0.52919,-1.1642c0,0 -0.08283,-0.16565 0.08283,-0.24849c0.16566,-0.08283 0.24849,0.08283 0.24849,0.08283c0.19005,0.38189 0.33718,0.78019 0.52919,1.1642l0.01955,0.18867c0,0 0,0.18522 -0.18522,0.18522z"/><path d="M327.38708,160.31457c-0.08283,0.16566 -0.24849,0.08283 -0.24849,0.08283l-0.21167,-0.10583c-0.82106,-0.41267 -1.50301,-1.08086 -2.3284,-1.48171c0,0 -0.16566,-0.08283 -0.08283,-0.24849c0.08283,-0.16565 0.24849,-0.08283 0.24849,-0.08283c0.82233,0.42043 1.50456,1.07171 2.3284,1.48171l0.21167,0.10583c0,0 0.16566,0.08283 0.08283,0.2485z"/><path d="M329.68215,163.301c0,-0.18522 0.18522,-0.18522 0.18522,-0.18522l0.2715,0.10238c0.14816,0.34058 0.50004,0.21555 0.82942,0.22008c0.76903,0.3676 2.94809,0.66629 3.79316,0.33084c0.27036,-0.10733 0.1067,-1.27581 0.1067,-1.52645c0,0 0,-0.18522 0.18522,-0.18522c0.18522,0 0.18522,0.18522 0.18522,0.18522c0,0.51142 0.22411,1.56188 -0.31666,1.86031c-0.75725,0.41791 -3.35059,0.06213 -4.03874,-0.30419c-0.46721,0.00843 -0.78085,0.05647 -1.03168,-0.33971l0.01587,0.02715c0,0 -0.18522,0 -0.18522,-0.18522z"/><path d="M344.39343,150.80929c0.00098,-0.0239 0.01391,-0.1822 0.18513,-0.1822c0.18522,0 0.18522,0.18522 0.18522,0.18522l-0.10238,0.2715c-0.7806,0.33958 -1.54616,1.1252 -2.41509,1.50723c-1.48995,0.37064 -3.40936,1.08378 -3.40936,2.77225c0,0 0,0.18522 -0.18522,0.18522c-0.18522,0 -0.18522,-0.18522 -0.18522,-0.18522c0,-1.88423 2.00648,-2.70734 3.65955,-3.12261c0.8743,-0.38874 1.48891,-0.98796 2.26736,-1.43137z"/><path d="M345.84862,147.55784c0.18522,0 0.18522,0.18522 0.18522,0.18522l-0.05425,0.2368c-0.38753,0.38072 -0.99785,1.20643 -1.11548,1.71317c0,0 -0.04493,0.17969 -0.22461,0.13476c-0.17968,-0.04493 -0.13476,-0.22461 -0.13476,-0.22461c0.1519,-0.57511 0.77799,-1.44398 1.21291,-1.88526l-0.05425,0.02513c0,0 0,-0.18522 0.18522,-0.18522z"/><path d="M351.05976,159.5716c0.13097,0.13097 0,0.26193 0,0.26193l-0.05158,-0.02513c-0.01029,0.98886 -0.76906,2.00711 -1.07247,2.92846c-0.42134,0.80483 -2.20361,3.542 -1.80467,4.29142c0,0 0.08283,0.16566 -0.08283,0.24849c-0.16566,0.08283 -0.24849,-0.08283 -0.24849,-0.08283c-0.50135,-1.04881 1.29444,-3.56202 1.79377,-4.59884c0.28319,-0.84009 1.05679,-1.88571 1.04426,-2.78671l0.16008,-0.2368c0,0 0.13097,-0.13097 0.26193,0z"/><path d="M351.56379,153.80219c0.18522,0 0.18522,0.18522 0.18522,0.18522v0.10584c0,1.63014 -0.24825,2.77837 -0.75036,4.29203c-0.54703,1.64107 -1.23765,3.53782 -2.02094,5.10441c0,0 -0.08283,0.16566 -0.24849,0.08283c-0.16566,-0.08283 -0.08283,-0.24849 -0.08283,-0.24849c0.77366,-1.54734 1.45852,-3.4289 2.00084,-5.05588c0.49469,-1.47748 0.73135,-2.58019 0.73135,-4.17489v-0.10584c0,0 0,-0.18522 0.18522,-0.18522z"/><path d="M346.98769,157.45487c0.13097,-0.13096 0.26194,0 0.26194,0l0.14052,0.15398c0.36509,0.7302 1.36931,1.90346 1.39543,2.6229c0,0 0,0.18522 -0.18522,0.18522c-0.18522,0 -0.18522,-0.18522 -0.18522,-0.18522c0.03049,-0.53333 -1.05297,-1.85054 -1.35632,-2.45724l-0.07114,-0.05771c0,0 -0.13097,-0.13097 0,-0.26193z"/><path d="M351.92858,151.16578c0.17571,-0.05857 0.23428,0.11714 0.23428,0.11714l0.11295,0.34641c0.00735,1.0682 0.00239,2.13654 0.00239,3.20476c0,0 0,0.18522 -0.18522,0.18522c-0.18522,0 -0.18522,-0.18522 -0.18522,-0.18522c0,-1.04842 -0.00632,-2.09704 0.00238,-3.14543l-0.09873,-0.28861c0,0 -0.05856,-0.17571 0.11714,-0.23427z"/></g><g stroke-linecap="butt"><path d="M334.39044,168.59442c0.97393,-1.62148 8.30452,-0.31018 12.0662,2.54154c3.76168,2.85172 3.73286,5.85098 1.93873,8.2176c-1.79412,2.36662 -4.67415,3.2044 -8.43583,0.35269c-2.26069,-1.71382 -4.07219,-4.9537 -5.00367,-7.5232c-0.11423,-0.31508 -0.70912,0.49118 -0.79608,0.20031c-0.09893,-0.33089 0.3142,-1.75477 0.25276,-2.04312c-0.06463,-0.30325 -0.72526,0.16118 -0.74579,-0.0815c-0.0357,-0.42208 0.61473,-1.48291 0.72369,-1.66432z"/><path d="M337.30743,170.83993c0,0 5.46222,-0.20402 7.93642,1.67166c2.47421,1.87569 2.45525,3.84842 1.27518,5.40505c-1.18007,1.55663 -3.07438,2.10767 -5.54859,0.23198c-2.47421,-1.87569 -3.66303,-7.3087 -3.66303,-7.3087z"/></g><path d="M378.46397,193.00047c0,8.14235 5.30431,13.50579 -17.70643,13.55765c-22.56558,0.05086 -17.70643,-6.00799 -17.70643,-14.15033c0,-8.14235 0.91968,-19.55906 17.8546,-19.78082c15.89741,-0.20818 17.55826,12.23116 17.55826,20.37351z" stroke-linecap="butt"/><g><path d="M370.1488,195.16164c-0.40112,0.10215 -1.61485,-1.40321 -1.61485,-1.40321l-3.64269,-14.30422c0,0 0.27737,-2.17158 0.67849,-2.27373c0.3564,-0.09076 1.60994,1.69095 1.60994,1.69095l3.6427,14.30422c0,0 -0.31718,1.89523 -0.67359,1.98599z" stroke-linecap="butt"/><path d="M368.71731,193.63412l2.1016,-0.3442" stroke-linecap="round"/><path d="M365.20677,179.43951l1.86011,-0.47369" stroke-linecap="round"/><path d="M366.47262,185.229l2.39849,0.82166" stroke-linecap="round"/><path d="M366.96228,182.23938c0.16221,-0.04131 0.31928,0.02558 0.35081,0.14941c0.03154,0.12382 -0.07441,0.25769 -0.23662,0.299c-0.16221,0.0413 -0.31926,-0.02559 -0.3508,-0.14941c-0.03154,-0.12382 0.0744,-0.25769 0.2366,-0.299z" stroke-linecap="butt"/><path d="M368.6686,189.34913c0.16221,-0.04131 0.31927,0.02559 0.3508,0.14941c0.03154,0.12382 -0.0744,0.25769 -0.23661,0.299c-0.16221,0.04131 -0.31926,-0.02558 -0.3508,-0.14941c-0.03154,-0.12382 0.0744,-0.25769 0.23661,-0.299z" stroke-linecap="butt"/></g><g stroke-linecap="butt"><path d="M367.47356,180.31667c2.99155,0.05448 5.53984,2.93047 5.59087,6.97009c0.10676,4.17919 -2.44103,5.75832 -5.23641,5.73156c-3.71665,-0.03559 -4.28312,-2.78429 -4.28312,-6.29175c0,-3.50747 1.03937,-6.46898 3.92865,-6.4099z"/><g><path d="M368.41237,187.15412c0,1.51057 -0.77199,2.73515 -1.72432,2.73515c-0.95232,0 -1.72433,-1.22456 -1.72433,-2.73515c0,-1.51057 0.77201,-2.73516 1.72433,-2.73516c0.95232,0 1.72432,1.22457 1.72432,2.73516z"/><path d="M364.72917,188.20856v-1.93602l1.54121,1.13687z"/></g><path d="M363.71592,182.66526c0,-0.84755 1.77373,-2.64591 3.67341,-2.64591c1.89969,0 4.68106,1.48966 4.68106,2.33722c0,0.84755 -0.94687,-1.71985 -4.57521,-1.6581c-3.01053,0.05123 -3.77924,2.81435 -3.77924,1.9668z"/><path d="M363.55056,190.69031c0,-0.84755 1.04064,2.10961 4.21785,2.16083c3.82923,0.06174 4.95905,-2.64677 4.95905,-1.79922c0,0.84755 -2.95418,2.33722 -4.95905,2.33722c-2.00486,0 -4.21785,-1.85128 -4.21785,-2.69883z"/></g><g stroke-linecap="butt"><path d="M381.60168,180.07667c-3.76167,2.85171 -6.6417,2.01393 -8.43583,-0.35269c-1.79413,-2.36662 -1.82295,-5.36588 1.93873,-8.21761c3.76167,-2.85171 11.1587,-3.6547 12.06619,-2.54153c0.63115,0.77419 -0.39469,4.21866 -2.27177,7.26545c-0.18341,0.29771 -0.4433,1.55847 -0.707,1.94289c-0.23752,0.34627 -0.47813,-0.18154 -0.66873,0.06431c-0.33192,0.42814 -0.43337,1.94484 -0.79535,2.31647c-0.36275,0.37243 -0.73914,-0.77078 -1.12625,-0.47731z"/><path d="M380.59075,178.51905c-2.47421,1.87569 -4.36852,1.32465 -5.54859,-0.23198c-1.18007,-1.55663 -1.19902,-3.52936 1.27518,-5.40505c2.47421,-1.87569 7.93642,-1.67167 7.93642,-1.67167c0,0 -1.18881,5.43301 -3.66302,7.3087z"/></g><g><path d="M350.00001,192.95336l3.64269,-14.30422c0,0 1.25355,-1.78171 1.60994,-1.69096c0.40112,0.10215 0.67849,2.27373 0.67849,2.27373l-3.64269,14.30422c0,0 -1.21375,1.50536 -1.61485,1.40321c-0.3564,-0.09076 -0.67358,-1.98599 -0.67358,-1.98599z" stroke-linecap="butt"/><path d="M352.1051,193.41188l-2.1016,-0.3442" stroke-linecap="round"/><path d="M353.75552,178.74356l1.86011,0.47369" stroke-linecap="round"/><path d="M354.34978,185.00675l-2.3985,0.82166" stroke-linecap="round"/><path d="M354.09667,182.31612c-0.03153,0.12382 -0.18859,0.19072 -0.3508,0.14941c-0.16221,-0.04131 -0.26815,-0.17517 -0.23662,-0.299c0.03153,-0.12382 0.18859,-0.19072 0.35081,-0.14941c0.16221,0.04131 0.26814,0.17517 0.2366,0.299z" stroke-linecap="butt"/><path d="M352.39041,189.42588c-0.03153,0.12382 -0.18859,0.19072 -0.3508,0.14941c-0.16221,-0.04131 -0.26814,-0.17517 -0.23661,-0.299c0.03153,-0.12382 0.18859,-0.19072 0.3508,-0.14941c0.16221,0.04131 0.26814,0.17517 0.2366,0.299z" stroke-linecap="butt"/></g><g stroke-linecap="butt"><path d="M357.50964,186.87474c0,3.50746 -0.56646,6.25616 -4.28312,6.29175c-2.79539,0.02676 -5.34318,-1.55237 -5.23641,-5.73156c0.05104,-4.03962 2.59933,-6.91561 5.59087,-6.97009c2.88927,-0.05908 3.92865,2.90243 3.92865,6.4099z"/><g><path d="M356.3254,187.3023c0,1.51057 -0.77199,2.73515 -1.72432,2.73515c-0.95232,0 -1.72433,-1.22456 -1.72433,-2.73515c0,-1.51057 0.77201,-2.73516 1.72433,-2.73516c0.95232,0 1.72432,1.22457 1.72432,2.73516z"/><path d="M352.64222,188.35674v-1.93602l1.54121,1.13687z"/></g><path d="M357.33864,182.81343c0,0.84755 -0.76871,-1.91556 -3.77924,-1.9668c-3.62834,-0.06174 -4.57521,2.50565 -4.57521,1.6581c0,-0.84755 2.78137,-2.33722 4.68106,-2.33722c1.89969,0 3.67341,1.79836 3.67341,2.64591z"/><path d="M353.28616,193.5373c-2.00486,0 -4.95905,-1.48966 -4.95905,-2.33722c0,-0.84755 1.12981,1.86096 4.95905,1.79922c3.17721,-0.05122 4.21785,-3.00838 4.21785,-2.16083c0,0.84755 -2.21298,2.69883 -4.21785,2.69883z"/></g><path d="M345.76578,195.22293v-17.59811h13.70581v17.59811z" stroke-linecap="butt"/><path d="M361.80008,195.07918v-17.5981h13.70581v17.5981z" stroke-linecap="butt"/><path d="M380.01624,195.14366c0.02045,0.53858 0.79294,2.55269 1.13389,4.27366c0.34094,1.72097 0.25978,4.00769 0.25978,4.00769c0,0 -1.78296,1.37406 -5.19131,2.41843c-4.04285,1.2388 -10.09447,2.18605 -15.84382,2.25813c-4.61442,0.05784 -8.98565,-0.32382 -12.38778,-1.15736c-4.73822,-1.16088 -7.46681,-2.89989 -7.46681,-2.89989c0,0 -0.07042,-2.77486 0.18619,-4.52264c0.2566,-1.74778 0.9748,-3.60218 0.9971,-4.37804c0.03321,-1.15571 0.06228,-2.33109 0.10921,-3.5096c0.01624,-0.40782 -0.82971,0.41872 -0.80828,0.01083c0.0289,-0.55016 0.92769,-2.3345 0.96994,-2.88184c0.04314,-0.55893 -0.89341,-0.00422 -0.83163,-0.55665c0.03219,-0.28787 1.05504,-1.68591 1.09327,-1.97128c1.08075,-8.06707 4.71085,-15.03321 18.50922,-15.16925c18.72307,-0.16978 18.8477,12.92455 19.27105,24.07778zM353.68054,194.31109c4.82205,-0.2047 5.18598,-3.0627 5.18598,-5.92684c0,-1.82876 0.31611,-7.09835 -1.05185,-8.83279c-0.77449,-0.98198 -1.91917,-1.64501 -3.60496,-1.64501c-5.13723,0 -7.8319,4.81138 -7.8319,9.94862c0,2.86414 1.93245,6.684 7.30272,6.45602zM367.74362,193.9724c5.72172,0.10583 7.34239,-3.77709 7.34239,-6.64124c0,-3.81795 -2.63629,-9.29699 -7.21991,-9.61287c-3.84457,-0.2712 -5.2344,2.76863 -5.46732,4.91664c-0.30662,2.82769 -0.50147,6.52784 0.76228,9.29185c0.66536,1.45524 2.77665,2.01222 4.58255,2.04562z" stroke-linecap="butt"/><path d="M372.65788,206.53194c-1.32808,0.7141 -5.8123,2.34527 -12.50595,2.4091c-8.82667,0.06652 -11.66181,-1.93405 -11.66181,-1.93405c0,0 -1.44308,-6.84523 1.19048,-9.78719c2.14305,-2.394 7.33967,-2.53212 10.07031,-2.64613c2.82548,-0.11796 9.82638,-0.05848 11.85856,2.92064c2.44347,3.58208 1.04841,9.03763 1.04841,9.03763z" stroke-linecap="butt"/><path d="M355.52206,201.29395c0,1.20703 -0.84582,2.18552 -1.88918,2.18552c-1.04336,0 -1.88918,-0.97849 -1.88918,-2.18552c0,-1.20703 0.84581,-2.18552 1.88918,-2.18552c1.04336,0 1.88918,0.97849 1.88918,2.18552z" stroke-linecap="butt"/><path d="M356.4852,198.4046c0,0.55237 -0.67997,1.00015 -1.51875,1.00015c-0.83878,0 -1.51875,-0.44778 -1.51875,-1.00015c0,-0.55237 0.67997,-1.00015 1.51875,-1.00015c0.83878,0 1.51875,0.44779 1.51875,1.00015z" stroke-linecap="butt"/><path d="M353.52178,200.25673c0,0.67512 -0.59704,1.22241 -1.33354,1.22241c-0.7365,0 -1.33354,-0.54729 -1.33354,-1.22241c0,-0.67512 0.59704,-1.22241 1.33354,-1.22241c0.7365,0 1.33354,0.54729 1.33354,1.22241z" stroke-linecap="butt"/><path d="M355.07758,199.36772c0,0.79786 -0.61364,1.44467 -1.37058,1.44467c-0.75696,0 -1.37058,-0.6468 -1.37058,-1.44467c0,-0.79786 0.61364,-1.44467 1.37058,-1.44467c0.75696,0 1.37058,0.64679 1.37058,1.44467z" stroke-linecap="butt"/><path d="M357.30014,201.44212c0,0.26595 -0.18242,0.48156 -0.40747,0.48156c-0.22505,0 -0.40747,-0.2156 -0.40747,-0.48156c0,-0.26595 0.18242,-0.48156 0.40747,-0.48156c0.22505,0 0.40747,0.2156 0.40747,0.48156z" stroke-linecap="butt"/><path d="M352.4105,202.25703c0,0.06137 -0.06633,0.11113 -0.14817,0.11113c-0.08183,0 -0.14817,-0.04976 -0.14817,-0.11113c0,-0.06137 0.06633,-0.11113 0.14817,-0.11113c0.08183,0 0.14817,0.04976 0.14817,0.11113z" stroke-linecap="butt"/><path d="M351.15103,198.4787c0,0.06137 -0.08292,0.11113 -0.18522,0.11113c-0.10229,0 -0.18522,-0.04976 -0.18522,-0.11113c0,-0.06137 0.08292,-0.11113 0.18522,-0.11113c0.10229,0 0.18522,0.04976 0.18522,0.11113z" stroke-linecap="butt"/><path d="M373.82127,194.95963c0,0.28642 -0.36486,0.5186 -0.81494,0.5186c-0.45008,0 -0.81494,-0.23218 -0.81494,-0.5186c0,-0.28642 0.36487,-0.5186 0.81494,-0.5186c0.45008,0 0.81494,0.23218 0.81494,0.5186z" stroke-linecap="butt"/><path d="M377.30329,197.51558c0,0.10229 -0.04976,0.18522 -0.11113,0.18522c-0.06138,0 -0.11113,-0.08292 -0.11113,-0.18522c0,-0.10229 0.04975,-0.18522 0.11113,-0.18522c0.06138,0 0.11113,0.08292 0.11113,0.18522z" stroke-linecap="butt"/><path d="M376.11792,191.77395c0,0.28642 -0.09951,0.5186 -0.22225,0.5186c-0.12274,0 -0.22225,-0.23218 -0.22225,-0.5186c0,-0.28642 0.09951,-0.5186 0.22225,-0.5186c0.12274,0 0.22225,0.23218 0.22225,0.5186z" stroke-linecap="butt"/><path d="M361.07445,175.16646c0,0.84105 -0.8108,1.52287 -1.81098,1.52287c-1.00017,0 -1.81098,-0.68181 -1.81098,-1.52287c0,-0.84105 0.8108,-1.52287 1.81098,-1.52287c1.00017,0 1.81098,0.68181 1.81098,1.52287z" stroke-linecap="butt"/><path d="M358.35791,175.04299c0,0.68193 -0.53439,1.23475 -1.1936,1.23475c-0.6592,0 -1.1936,-0.55282 -1.1936,-1.23475c0,-0.68193 0.53439,-1.23476 1.1936,-1.23476c0.6592,0 1.1936,0.55283 1.1936,1.23476z" stroke-linecap="butt"/><path d="M357.12317,175.24877c0,0.70468 -0.66338,1.27592 -1.48171,1.27592c-0.81833,0 -1.48171,-0.57125 -1.48171,-1.27592c0,-0.70467 0.66338,-1.27592 1.48171,-1.27592c0.81833,0 1.48171,0.57124 1.48171,1.27592z" stroke-linecap="butt"/><path d="M359.67507,176.44238c0,0.63648 -0.38697,1.15244 -0.86433,1.15244c-0.47736,0 -0.86433,-0.51596 -0.86433,-1.15244c0,-0.63648 0.38698,-1.15244 0.86433,-1.15244c0.47736,0 0.86433,0.51596 0.86433,1.15244z" stroke-linecap="butt"/><path d="M357.12317,176.5247c0,0.3637 -0.25798,0.65853 -0.57622,0.65853c-0.31823,0 -0.57622,-0.29483 -0.57622,-0.65853c0,-0.3637 0.25798,-0.65854 0.57622,-0.65854c0.31823,0 0.57622,0.29484 0.57622,0.65854z" stroke-linecap="butt"/><path d="M361.56836,174.46675c0,0.31823 -0.25798,0.57622 -0.57622,0.57622c-0.31823,0 -0.57622,-0.25798 -0.57622,-0.57622c0,-0.31823 0.25798,-0.57622 0.57622,-0.57622c0.31823,0 0.57622,0.25798 0.57622,0.57622z" stroke-linecap="butt"/><path d="M357.94629,174.01402c0,0.34096 -0.22112,0.61738 -0.4939,0.61738c-0.27277,0 -0.49391,-0.27641 -0.49391,-0.61738c0,-0.34096 0.22112,-0.61738 0.49391,-0.61738c0.27277,0 0.4939,0.27641 0.4939,0.61738z" stroke-linecap="butt"/><path d="M361.2391,177.05974c0,0.15912 -0.14742,0.28811 -0.32927,0.28811c-0.18185,0 -0.32926,-0.129 -0.32926,-0.28811c0,-0.15912 0.14741,-0.28811 0.32926,-0.28811c0.18185,0 0.32927,0.129 0.32927,0.28811z" stroke-linecap="butt"/><path d="M363.21471,176.27774c0,0.13639 -0.09214,0.24696 -0.20579,0.24696c-0.11365,0 -0.20579,-0.11056 -0.20579,-0.24696c0,-0.13639 0.09214,-0.24696 0.20579,-0.24696c0.11365,0 0.20579,0.11056 0.20579,0.24696z" stroke-linecap="butt"/><path d="M352.18408,174.54908c0,0.04546 -0.09214,0.08231 -0.20579,0.08231c-0.11365,0 -0.20579,-0.03686 -0.20579,-0.08231c0,-0.04546 0.09214,-0.08231 0.20579,-0.08231c0.11365,0 0.20579,0.03686 0.20579,0.08231z" stroke-linecap="butt"/><path d="M345.26949,189.7366c0,0.75013 -0.49755,1.35824 -1.11128,1.35824c-0.61374,0 -1.11128,-0.60811 -1.11128,-1.35824c0,-0.75013 0.49755,-1.35823 1.11128,-1.35823c0.61374,0 1.11128,0.6081 1.11128,1.35823z" stroke-linecap="butt"/><path d="M345.10483,187.67869c0,0.56828 -0.47911,1.02896 -1.07012,1.02896c-0.59102,0 -1.07012,-0.46069 -1.07012,-1.02896c0,-0.56828 0.47911,-1.02897 1.07012,-1.02897c0.59102,0 1.07012,0.46069 1.07012,1.02897z" stroke-linecap="butt"/><path d="M343.95238,188.87226c0,0.59101 -0.38698,1.07012 -0.86433,1.07012c-0.47736,0 -0.86433,-0.47911 -0.86433,-1.07012c0,-0.59101 0.38697,-1.07012 0.86433,-1.07012c0.47736,0 0.86433,0.47911 0.86433,1.07012z" stroke-linecap="butt"/><path d="M344.03468,190.7244c0,0.47736 -0.40541,0.86432 -0.90549,0.86432c-0.50008,0 -0.90549,-0.38697 -0.90549,-0.86432c0,-0.47736 0.40541,-0.86432 0.90549,-0.86432c0.50008,0 0.90549,0.38697 0.90549,0.86432z" stroke-linecap="butt"/><path d="M343.29382,187.26709c0,0.11365 -0.12899,0.20578 -0.28811,0.20578c-0.15911,0 -0.28811,-0.09213 -0.28811,-0.20578c0,-0.11365 0.129,-0.20579 0.28811,-0.20579c0.15911,0 0.28811,0.09214 0.28811,0.20579z" stroke-linecap="butt"/><path d="M345.84569,189.44847c0,0.27277 -0.16585,0.49391 -0.37043,0.49391c-0.20458,0 -0.37043,-0.22113 -0.37043,-0.49391c0,-0.27277 0.16585,-0.4939 0.37043,-0.4939c0.20458,0 0.37043,0.22112 0.37043,0.4939z" stroke-linecap="butt"/><path d="M343.29382,203.31896c0,0.56828 -0.55282,1.02897 -1.23475,1.02897c-0.68194,0 -1.23476,-0.46069 -1.23476,-1.02897c0,-0.56828 0.55283,-1.02897 1.23476,-1.02897c0.68194,0 1.23475,0.46069 1.23475,1.02897z" stroke-linecap="butt"/><path d="M342.79996,201.91955c0,0.47736 -0.3317,0.86432 -0.74085,0.86432c-0.40916,0 -0.74085,-0.38697 -0.74085,-0.86432c0,-0.47736 0.3317,-0.86432 0.74085,-0.86432c0.40916,0 0.74085,0.38697 0.74085,0.86432z" stroke-linecap="butt"/><path d="M349.04886,179.73037c0,0 -0.15992,-0.56216 -0.18106,-0.93213c-0.02113,-0.36998 0.05682,-1.24213 0.05682,-1.24213c0,0 0.29887,0.65354 0.57726,1.0138c0.27839,0.36026 0.47881,0.35288 0.47881,0.35288z" stroke-linecap="butt"/><path d="M348.24326,180.57162c0,0 -0.20332,-0.54796 -0.25329,-0.91515c-0.04996,-0.36719 -0.04033,-1.24278 -0.04033,-1.24278c0,0 0.34899,0.6282 0.65465,0.96563c0.30566,0.33743 0.5049,0.31443 0.5049,0.31443z" stroke-linecap="butt"/><path d="M347.59661,181.56077c0,0 -0.31447,-0.49266 -0.44084,-0.84102c-0.12638,-0.34836 -0.30189,-1.20622 -0.30189,-1.20622c0,0 0.47379,0.54034 0.84382,0.80559c0.37004,0.26527 0.55991,0.20069 0.55991,0.20069z" stroke-linecap="butt"/><g stroke-linecap="butt"><path d="M371.12195,178.51672c0,0 0.20042,0.00738 0.47881,-0.35289c0.27839,-0.36026 0.57726,-1.0138 0.57726,-1.0138c0,0 0.07795,0.87216 0.05682,1.24213c-0.02113,0.36998 -0.18106,0.93213 -0.18106,0.93213z"/><path d="M371.99347,179.28769c0,0 0.19924,0.02301 0.5049,-0.31442c0.30566,-0.33743 0.65465,-0.96563 0.65465,-0.96563c0,0 0.00963,0.87558 -0.04033,1.24278c-0.04996,0.36719 -0.25329,0.91515 -0.25329,0.91515z"/><path d="M372.84507,180.11373c0,0 0.18988,0.06456 0.55991,-0.20069c0.37004,-0.26527 0.84382,-0.80559 0.84382,-0.80559c0,0 -0.17551,0.85787 -0.30189,1.20622c-0.12638,0.34836 -0.44084,0.84102 -0.44084,0.84102z"/></g><path d="M345.97832,199.40211l-1.10658,0.45668c0,0 0.36852,-1.36487 0.31271,-1.49254c-0.11819,-0.27036 -0.99774,0.4327 -0.99774,0.4327c0,0 0.59118,-1.04927 0.5199,-1.31288c-0.0897,-0.33175 -0.62911,-0.03858 -0.62911,-0.03858l0.49127,-0.75852" stroke-linecap="round"/><path d="M363.47929,172.66411l0.49127,0.75852c0,0 -0.5394,-0.29317 -0.62911,0.03858c-0.07128,0.2636 0.5199,1.31288 0.5199,1.31288c0,0 -0.87955,-0.70307 -0.99774,-0.4327c-0.05581,0.12767 0.31271,1.49254 0.31271,1.49254l-1.10658,-0.45668" stroke-linecap="round"/><path d="M360.66095,199.88875v7.72606" stroke-linecap="round"/><g><path d="M376.9591,172.80046c0,2.60642 -6.9689,4.71932 -15.56549,4.71932c-8.59658,0 -15.5655,-2.11291 -15.5655,-4.71932c0,-2.60641 6.96891,-4.71932 15.5655,-4.71932c8.59658,0 15.56549,2.11292 15.56549,4.71932z" stroke-linecap="butt"/><path d="M376.71072,172.74528c0,0 -5.53858,4.02487 -15.95325,3.79928c-10.57475,-0.22906 -14.88335,-3.57849 -14.88335,-3.57849" stroke-linecap="round"/><path d="M351.77779,170.12272c0.10699,-1.82314 0.29671,-5.35081 0.29671,-7.44167c0,-2.30129 -0.21686,-6.44736 -0.31762,-8.24965c-0.02746,-0.49116 0.19368,-0.87622 0.68561,-0.87622c0.87637,0 4.38106,-0.59268 8.11742,-0.59268c3.92708,0 8.11011,0.59268 9.76633,0.59268c0.51724,0 0.69555,0.43407 0.65096,0.94939c-0.14629,1.69086 -0.43017,5.24506 -0.43017,7.36693c0,2.263 0.28505,6.37169 0.43108,8.32809c0.05213,0.69841 -0.02938,1.22933 -0.63828,1.57536c-1.27049,0.72202 -4.33358,1.99356 -10.09621,1.94547c-4.69366,-0.03917 -7.02327,-1.24379 -7.98155,-1.94145c-0.39323,-0.28629 -0.48428,-1.65623 -0.48428,-1.65623z" stroke-linecap="butt"/></g><path d="M377.12714,183.74536l0.75029,0.50376c0,0 -0.61127,-0.05707 -0.56308,0.28321c0.03829,0.27036 0.99489,1.00205 0.99489,1.00205c0,0 -1.08535,-0.29989 -1.08751,-0.00483c-0.00102,0.13933 0.87521,1.24879 0.87521,1.24879l-1.197,0.016" stroke-linecap="round"/><g stroke-linecap="butt"><path d="M364.70853,196.00391c0,1.13696 -1.12581,1.35249 -1.8185,2.10813c-0.71904,0.78438 -1.02557,2.08749 -2.13873,2.08749c-1.11315,0 -1.65278,-1.65275 -2.37182,-2.43713c-0.69269,-0.75563 -1.5854,-0.62153 -1.5854,-1.75848c0,-2.31717 1.7745,-2.80312 3.95722,-2.91362c2.30206,-0.11654 3.95723,0.59645 3.95723,2.91362z"/><path d="M359.08303,194.34637c0,0.20818 -0.5237,0.39843 -0.64262,0.54392c-0.14231,0.17412 -0.20123,0.58525 -0.4348,0.58525c-0.42874,0 -0.55047,-0.37074 -0.55047,-0.82806c0,-0.45733 0.34756,-0.82806 0.77631,-0.82806c0.42874,0 0.85158,0.06962 0.85158,0.52694z"/></g><path d="M367.46975,197.26195c0,0.13639 -0.09213,0.24695 -0.20578,0.24695c-0.11365,0 -0.20579,-0.11056 -0.20579,-0.24695c0,-0.13639 0.09214,-0.24695 0.20579,-0.24695c0.11365,0 0.20578,0.11056 0.20578,0.24695z" stroke-linecap="butt"/><path d="M369.52769,197.09733c0,0.13639 -0.09213,0.24695 -0.20578,0.24695c-0.11365,0 -0.20579,-0.11055 -0.20579,-0.24695c0,-0.13639 0.09214,-0.24696 0.20579,-0.24696c0.11365,0 0.20578,0.11056 0.20578,0.24696z" stroke-linecap="butt"/><path d="M368.86915,199.23757c0,0.13639 -0.09213,0.24695 -0.20578,0.24695c-0.11365,0 -0.20579,-0.11056 -0.20579,-0.24695c0,-0.13639 0.09214,-0.24695 0.20579,-0.24695c0.11365,0 0.20578,0.11056 0.20578,0.24695z" stroke-linecap="butt"/><g stroke-linecap="butt"><path d="M353.36539,196.99442c0.11365,0 0.20579,0.11056 0.20579,0.24696c0,0.13639 -0.09214,0.24695 -0.20579,0.24695c-0.11365,0 -0.20578,-0.11055 -0.20578,-0.24695c0,-0.13639 0.09213,-0.24696 0.20578,-0.24696z"/><path d="M351.30745,196.82979c0.11365,0 0.20579,0.11056 0.20579,0.24695c0,0.13639 -0.09214,0.24695 -0.20579,0.24695c-0.11365,0 -0.20578,-0.11056 -0.20578,-0.24695c0,-0.13639 0.09213,-0.24695 0.20578,-0.24695z"/><path d="M351.96599,198.97004c0.11365,0 0.20579,0.11056 0.20579,0.24696c0,0.13639 -0.09214,0.24695 -0.20579,0.24695c-0.11365,0 -0.20578,-0.11056 -0.20578,-0.24695c0,-0.13639 0.09213,-0.24696 0.20578,-0.24696z"/></g></g></g></g></g></svg>