<svg version="1.1" xmlns="http://www.w3.org/2000/svg" xmlns:xlink="http://www.w3.org/1999/xlink" width="137.20194" height="126.70415" viewBox="0,0,137.20194,126.70415"><g transform="translate(-252.3118,-142.12918)"><g stroke-miterlimit="10"><path d="M304.24028,258.62217c0,-5.63947 7.16345,-10.21116 16,-10.21116c8.83655,0 16,4.57169 16,10.21116c0,5.63947 -7.16345,10.21116 -16,10.21116c-8.83655,0 -16,-4.57169 -16,-10.21116z" fill-opacity="0.51765" fill="#5ce57d" stroke="#424242" stroke-width="0"/><path d="M327.24028,261.17458v-5.1048h40.66667v5.1048z" fill-opacity="0.51765" fill="#5ce57d" stroke="#424242" stroke-width="0"/><path d="M354.90695,257.72698v-7.65696l5.55555,-1.65901l6.03911,2.68674l-7.43129,1.58702l5.28108,3.25558l-3.77778,1.78662z" fill-opacity="0.51765" fill="#5ce57d" stroke="none" stroke-width="0"/><path d="M252.3118,215.7985l0,-73.66932h137.20194v73.66932h-56.00918l-14.0419,20.67949l-15.87346,-20.67951z" fill-opacity="0.51765" fill="#5ce57d" stroke="none" stroke-width="0"/><text transform="translate(258.48373,165.4442) scale(0.40538,0.40538)" font-size="40" xml:space="preserve" fill-opacity="0.51765" fill="#13301a" stroke="none" stroke-width="1" font-family="&quot;VCR_OSD_MONO_1&quot;, Curly" font-weight="normal" text-anchor="start"><tspan x="0" dy="0">ELECTRICITY</tspan><tspan x="0" dy="46.15px">SECTOR ACCESS</tspan><tspan x="0" dy="46.15px">KEY</tspan></text></g></g></svg>