<svg version="1.1" xmlns="http://www.w3.org/2000/svg" xmlns:xlink="http://www.w3.org/1999/xlink" width="82.73335" height="234.00399" viewBox="0,0,82.73335,234.00399"><g transform="translate(-318.63335,-57.73424)"><g data-paper-data="{&quot;isPaintingLayer&quot;:true}" fill-rule="nonzero" stroke-linejoin="miter" stroke-miterlimit="10" stroke-dasharray="" stroke-dashoffset="0" style="mix-blend-mode: normal"><g fill="#ffffff" stroke="none" stroke-width="0" stroke-linecap="butt"><path d="M323.28216,143.42917c1.58657,-9.50703 5.15288,-3.88805 8.01821,-3.88805c2.13659,0 6.14195,-4.63426 7.65692,1.04971c1.89445,7.10777 1.0494,25.80708 1.0494,37.69789c0,21.39971 -3.38582,26.34837 -8.19419,26.34837c-4.80836,0 -9.21846,-4.94866 -9.21846,-26.34837c0,-8.64751 -0.38777,-28.41266 0.68811,-34.85955z"/><path d="M340.85446,216.31807c-3.06734,0.93981 -9.48732,5.66587 -13.51499,2.64267c-3.75063,-2.81526 -5.22091,-13.28157 -5.37222,-15.37294c-0.49354,-6.8218 3.6747,-12.83629 9.31003,-13.43375c1.15394,-0.12234 6.00258,-1.80483 10.11969,-0.02745c4.48791,1.93747 6.05139,15.22277 5.28196,16.29224c-3.90368,5.42593 -4.58666,-8.89684 -4.30434,-4.99463c0.17976,2.48457 1.87323,13.85416 -1.52013,14.89386z"/></g><path d="M318.63335,145.19659c0,-9.38884 5.88474,-17 13.14394,-17c7.2592,0 6.57197,9.61116 6.57197,19c0,9.38884 -19.71591,7.38884 -19.71591,-2z" fill="#1b1b1b" stroke="none" stroke-width="0" stroke-linecap="butt"/><path d="M354.96639,125.16765c0,1.09209 -1.67973,35.41066 -0.23689,66.89252c0.56624,12.35495 3.2905,24.14594 4.52413,33.09653c1.1991,8.70015 0.91625,14.73501 0.91625,14.73501c0,0 -10.69401,0.43447 -23.85208,-28.64817c-6.81209,-15.05642 -3.4254,-43.25614 -5.47535,-62.2751c-2.05318,-19.049 1.616,-26.2054 6.20989,-26.22409c16.81704,-0.06841 17.91405,-1.12053 17.91405,2.4233z" fill="#353535" stroke="#000000" stroke-width="0" stroke-linecap="butt"/><path d="M369.24912,112.76179c0,3.77772 8.8279,14.78217 6.49499,18.66959c-3.03879,5.06366 -27.1988,2.58041 -30.24499,2.58041c-5.38477,0 4.25,-12.55151 4.25,-21.25c0,-8.69849 10.36523,-19.25 15.75,-19.25c5.38477,0 3.75,10.55151 3.75,19.25z" fill="#d0d0d0" stroke="none" stroke-width="0" stroke-linecap="butt"/><path d="M351.11578,118.76179c-14.08326,0 -17.5,-10.91674 -17.5,-25c0,-14.08326 7.41674,-25.5 21.5,-25.5c14.08326,0 21.5,10.91674 21.5,25c0,14.08326 -11.41674,25.5 -25.5,25.5z" fill="#ffffff" stroke="none" stroke-width="0" stroke-linecap="butt"/><path d="M343.02588,279.25896c-2.755,-27.78698 -5.74796,-93.01802 4.9859,-99.03689c4.62214,-2.5918 25.40579,-1.26726 30.02621,2.12348c7.00597,5.14139 4.43431,66.38745 6.25064,88.47906c1.74242,21.1926 -13.7025,18.02681 -16.95613,13.22271c-4.19089,-6.188 -5.14747,-73.35724 -5.14747,-73.35724c0,0 1.99237,68.56324 -1.60167,73.67126c-3.85017,5.47204 -16.54656,5.09372 -17.55748,-5.10238z" fill="#464646" stroke="none" stroke-width="0" stroke-linecap="butt"/><path d="M359.36152,123.01179c17.51452,0 32.13851,-5.8226 32.13851,14.75c0,5.52878 -8.80686,60.36063 -15.46143,63.34026c-9.79723,4.38678 -26.56587,4.50926 -37.6817,2.53856c-3.11733,-0.55266 -7.81295,-8.84353 -10.24806,-17.0441c-3.41272,-11.4928 4.40009,-24.16814 8.30091,-35.08125c1.73405,-4.85127 1.09027,-12.83132 1.09027,-14.25347c0,0 -0.52667,-7.82979 4.16046,-11.86576c3.36388,-2.89656 10.3831,-2.38424 17.70104,-2.38424z" fill="#2c2c2c" stroke="none" stroke-width="0" stroke-linecap="butt"/><path d="M346.33919,93.98648c0,6.07513 -1.10845,11 -2.47577,11c-1.36733,0 -2.47577,-4.92487 -2.47577,-11c0,-6.07513 4.95154,-6.07513 4.95154,0z" fill="#000000" stroke="none" stroke-width="0" stroke-linecap="butt"/><path d="M357.59156,93.51179c0,6.07513 -1.10845,11 -2.47577,11c-1.36733,0 -2.47577,-4.92487 -2.47577,-11c0,-6.07513 4.95154,-6.07513 4.95154,0z" fill="#000000" stroke="none" stroke-width="0" stroke-linecap="butt"/><path d="M333.55608,285.74375c0,-7.99265 6.47932,-14.47197 14.47197,-14.47197c3.0553,0 10.22235,6.98374 10.22235,6.98374c0,0 3.42934,-4.39682 4.51817,-2.38185c1.10447,2.04394 -0.26855,7.38379 -0.26855,9.87008c0,7.99265 -28.94394,7.99265 -28.94394,0z" fill="#111111" stroke="none" stroke-width="0" stroke-linecap="butt"/><path d="M365.58774,285.74375c0,-2.48629 -1.37302,-7.82614 -0.26855,-9.87008c1.08882,-2.01497 4.51817,2.38185 4.51817,2.38185c0,0 7.16706,-6.98374 10.22235,-6.98374c7.99265,0 14.47197,6.47932 14.47197,14.47197c0,7.99265 -28.94394,7.99265 -28.94394,0z" fill="#111111" stroke="none" stroke-width="0" stroke-linecap="butt"/><path d="M330.90148,80.0475c0,-14.08326 10.13102,-11.78571 24.21428,-11.78571c14.08326,0 21.5,10.91674 21.5,25c0,7.47646 0.83068,-6.88317 -11.25735,-10.83905c-6.3478,-2.07735 -17.89067,0.95143 -25.74887,1.43738c-5.36543,0.33179 -8.70806,-1.13193 -8.70806,-3.81261z" fill="#8a8a8a" stroke="none" stroke-width="0" stroke-linecap="butt"/><g stroke-width="0" stroke-linecap="butt"><path d="M385.04941,73.93979c0,2.52473 -14.10303,4.57143 -31.5,4.57143c-17.39697,0 -31.5,-2.0467 -31.5,-4.57143c0,-2.52473 14.10303,-4.57143 31.5,-4.57143c17.39697,0 31.5,2.0467 31.5,4.57143z" fill="#353535" stroke="#000000"/><path d="M375.8142,70.36835c0,6.54852 -44.30608,6.54852 -44.30608,0c0,-2.32907 -1.90242,-10.54406 5.32004,-11.2164c6.16428,-0.57383 22.82745,-2.62546 30.63263,-0.41615c8.76238,2.48025 8.35341,9.40094 8.35341,11.63256z" fill="#2c2c2c" stroke="none"/></g><path d="M394.24754,125.16765c0,1.09209 -1.67973,35.41066 -0.23689,66.89252c0.56624,12.35495 3.2905,24.14594 4.52413,33.09652c1.19911,8.70015 0.91625,14.73501 0.91625,14.73501c0,0 -10.69401,0.43447 -23.85208,-28.64817c-2.7911,-6.16902 -1.60454,-13.56565 -1.61015,-22.57696c-0.00449,-7.2065 -1.37218,-15.80611 -1.70902,-22.97389c-0.26997,-5.74461 -3.56785,-10.62973 -4.10618,-15.62425c-2.05318,-19.049 -4.984,-32.2054 -0.39011,-32.22408c16.81704,-0.06841 26.46405,3.77946 26.46405,7.3233z" fill="#535353" stroke="#000000" stroke-width="0" stroke-linecap="butt"/><g fill="#ffffff" stroke="none" stroke-width="0" stroke-linecap="butt"><path d="M400.70023,178.28874c0,21.39971 -4.41009,26.34837 -9.21846,26.34837c-4.80836,0 -8.19419,-4.94866 -8.19419,-26.34837c0,-11.89082 -0.84505,-30.59013 1.0494,-37.69789c1.51497,-5.68397 5.52033,-1.04971 7.65692,-1.04971c2.86533,0 6.43164,-5.61898 8.01821,3.88805c1.07588,6.4469 0.68811,26.21204 0.68811,34.85956z"/><path d="M380.91968,201.42421c0.28232,-3.90221 -0.40065,10.42056 -4.30434,4.99463c-0.76943,-1.06947 0.79406,-14.35477 5.28196,-16.29224c4.1171,-1.77739 8.96575,-0.09489 10.11969,0.02745c5.63533,0.59745 9.80358,6.61195 9.31003,13.43375c-0.15131,2.09137 -1.6216,12.55769 -5.37222,15.37294c-4.02766,3.0232 -10.44765,-1.70287 -13.51499,-2.64267c-3.39337,-1.0397 -1.69989,-12.40929 -1.52013,-14.89386z"/></g><path d="M381.65078,145.19659c0,-9.38884 -0.68723,-19 6.57198,-19c7.2592,0 13.14394,7.61116 13.14394,17c0,9.38884 -19.71591,11.38884 -19.71591,2z" fill="#262626" stroke="none" stroke-width="0" stroke-linecap="butt"/><path d="M336.3178,211.24354c-3.63908,-8.04328 -14.90243,-5.94469 -12.08522,-42.20334c-0.81333,-10.47066 6.81472,-13.4629 5.85987,-22.32176c-2.05318,-19.049 -0.634,-25.1554 3.95989,-25.17409c1.55366,-0.00632 10.06386,-2.12953 10.09171,0.20163c0.11002,9.21009 -1.70318,25.98072 -8.5414,41.91993c-3.28201,7.65004 -3.16024,20.54382 -1.3064,26.69632c6.53671,21.69389 7.99389,34.08169 2.02154,20.8813z" fill="#535353" stroke="#000000" stroke-width="0" stroke-linecap="butt"/><path d="M376.84676,97.88461c0,0 -14.02813,0 -15.81866,0c-0.42048,0 -0.7345,3.95706 -2.37399,5.86093c-1.63949,1.90387 -4.31931,2.05575 -6.1202,0.35335c-1.80089,-1.70241 -0.78342,-6.21429 -1.48062,-6.21429c-2.31005,0 -0.23872,0 -2.4427,0c-0.48357,0 0.22318,4.23972 -1.57793,6c-1.80111,1.76029 -5.86963,1.37278 -6.75848,0.14564c-1.06174,-1.46583 -1.47125,-6.14564 -1.95013,-6.14564c-2.21681,0 -4.13068,0 -4.13068,0" fill-opacity="0.50196" fill="#009cff" stroke="#1f1f1f" stroke-width="2.5" stroke-linecap="round"/></g></g></svg>