<svg version="1.1" xmlns="http://www.w3.org/2000/svg" xmlns:xlink="http://www.w3.org/1999/xlink" width="488.66325" height="269.47826" viewBox="0,0,488.66325,269.47826"><g transform="translate(-109.82252,-38.07567)"><g stroke-miterlimit="10"><path d="M316.54579,236.81484v-115.09353h78.33333v115.09353z" fill-opacity="0.51765" fill="#5ce57d" stroke="#000000" stroke-width="0"/><path d="M595.85639,307.55393l-97.03387,-38.15569l2.46128,-193.39409l97.20197,-37.92847z" fill-opacity="0.51765" fill="#5ce57d" stroke="none" stroke-width="0"/><path d="M109.82252,38.07567l97.20197,37.92847l2.46128,193.39409l-97.03387,38.15569z" fill-opacity="0.51765" fill="#5ce57d" stroke="none" stroke-width="0"/><g font-family="&quot;VCR_OSD_MONO_1&quot;, Curly" font-weight="normal" font-size="40" text-anchor="start"><text transform="translate(339.38012,185.78006) scale(1.29122,1.29122)" font-size="40" xml:space="preserve" fill-opacity="0.51765" fill="#13301a" stroke="none" stroke-width="1"><tspan x="0" dy="0">^</tspan></text><g fill-opacity="0.51765" fill="#2b6b3a" stroke-opacity="0.51765" stroke="#13301a" stroke-width="4"><text transform="translate(347.35269,211.40343) scale(1.14179,0.46594)" font-size="40" xml:space="preserve" fill-opacity="0.51765" fill="#2b6b3a"><tspan x="0" dy="0">:</tspan></text><text transform="translate(343.16059,184.32973) scale(0.9701,0.60751)" font-size="40" xml:space="preserve" fill-opacity="0.51765" fill="#2b6b3a"><tspan x="0" dy="0">O</tspan></text><text transform="translate(343.16059,209.93564) scale(0.9701,0.80643)" font-size="40" xml:space="preserve" fill-opacity="0.51765" fill="#2b6b3a"><tspan x="0" dy="0">|</tspan></text></g></g><g font-family="&quot;VCR_OSD_MONO_1&quot;, Curly" font-weight="normal" font-size="40" text-anchor="start"><text transform="translate(583.93124,204.78417) rotate(-180) scale(1.59227,-1.59226) skewX(0)" font-size="40" xml:space="preserve" fill-opacity="0.51765" fill="#13301a" stroke="none" stroke-width="1"><tspan x="0" dy="0">&lt;</tspan></text><g fill-opacity="0.51765" fill="#2b6b3a" stroke-opacity="0.51765" stroke="#13301a" stroke-width="4"><text transform="translate(518.87232,207.00177) scale(1.49673,0.61078)" font-size="40" xml:space="preserve" fill-opacity="0.51765" fill="#2b6b3a"><tspan x="0" dy="0">:</tspan></text><text transform="translate(513.37705,171.51182) scale(1.27168,0.79636)" font-size="40" xml:space="preserve" fill-opacity="0.51765" fill="#2b6b3a"><tspan x="0" dy="0">O</tspan></text><text transform="translate(513.37705,205.07768) scale(1.27168,1.05712)" font-size="40" xml:space="preserve" fill-opacity="0.51765" fill="#2b6b3a"><tspan x="0" dy="0">|</tspan></text></g></g><g font-family="&quot;VCR_OSD_MONO_1&quot;, Curly" font-weight="normal" font-size="40" text-anchor="start"><text transform="translate(123.26658,204.78421) scale(1.59227,1.59226)" font-size="40" xml:space="preserve" fill-opacity="0.51765" fill="#13301a" stroke="none" stroke-width="1"><tspan x="0" dy="0">&lt;</tspan></text><g fill-opacity="0.51765" fill="#2b6b3a" stroke-opacity="0.51765" stroke="#13301a" stroke-width="4"><text transform="translate(188.3255,207.00181) rotate(-180) scale(1.49673,-0.61077) skewX(0)" font-size="40" xml:space="preserve" fill-opacity="0.51765" fill="#2b6b3a"><tspan x="0" dy="0">:</tspan></text><text transform="translate(193.82077,171.51186) rotate(-180) scale(1.27168,-0.79636)" font-size="40" xml:space="preserve" fill-opacity="0.51765" fill="#2b6b3a"><tspan x="0" dy="0">O</tspan></text><text transform="translate(193.82077,205.07772) rotate(-180) scale(1.27168,-1.05712)" font-size="40" xml:space="preserve" fill-opacity="0.51765" fill="#2b6b3a"><tspan x="0" dy="0">|</tspan></text></g></g><path d="M324.51119,103.59415v-20.01545h64.81589v20.01545h-24.91732l-7.9296,11.67792l-8.9639,-11.67792z" fill-opacity="0.51765" fill="#5ce57d" stroke="none" stroke-width="0"/><text transform="translate(328.60019,98.90218) scale(0.34312,0.34312)" font-size="40" xml:space="preserve" fill-opacity="0.51765" fill="#13301a" stroke="none" stroke-width="1" font-family="&quot;VCR_OSD_MONO_1&quot;, Curly" font-weight="normal" text-anchor="start"><tspan x="0" dy="0">AOE KEY</tspan></text><path d="M227.36089,151.09458h75.17791v40.33755h-75.17791v-11.1267l-11.67791,-7.9296l11.67792,-8.9639z" fill-opacity="0.51765" fill="#5ce57d" stroke="none" stroke-width="0"/><text transform="translate(230.52933,164.89147) scale(0.22892,0.22892)" font-size="40" xml:space="preserve" fill-opacity="0.51765" fill="#13301a" stroke="none" stroke-width="1" font-family="&quot;VCR_OSD_MONO_1&quot;, Curly" font-weight="normal" text-anchor="start"><tspan x="0" dy="0">ELECTRICITY</tspan><tspan x="0" dy="46.15px">SECTOR ACCESS</tspan><tspan x="0" dy="46.15px">KEY</tspan></text><path d="M479.08768,163.41193l11.67791,8.9639l-11.67791,7.9296v11.1267h-75.17791v-40.33755h75.17791z" fill-opacity="0.51765" fill="#5ce57d" stroke="none" stroke-width="0"/><text transform="translate(410.12315,169.34187) scale(0.21273,0.21273)" font-size="40" xml:space="preserve" fill-opacity="0.51765" fill="#13301a" stroke="none" stroke-width="1" font-family="&quot;VCR_OSD_MONO_1&quot;, Curly" font-weight="normal" text-anchor="start"><tspan x="0" dy="0">SUPPLY SECTOR</tspan><tspan x="0" dy="46.15px">ACCESS KEY</tspan></text></g></g></svg>