<svg version="1.1" xmlns="http://www.w3.org/2000/svg" xmlns:xlink="http://www.w3.org/1999/xlink" width="680.20606" height="322.50142" viewBox="0,0,680.20606,322.50142"><defs><linearGradient x1="55.33277" y1="421.55445" x2="106.15899" y2="421.92146" gradientUnits="userSpaceOnUse" id="color-1"><stop offset="0" stop-color="#484c5e"/><stop offset="1" stop-color="#212d30"/></linearGradient><linearGradient x1="55.82103" y1="395.2178" x2="124.66159" y2="395.71487" gradientUnits="userSpaceOnUse" id="color-2"><stop offset="0" stop-color="#484c5e"/><stop offset="1" stop-color="#212d30"/></linearGradient><linearGradient x1="56.36359" y1="365.9526" x2="125.20415" y2="366.44966" gradientUnits="userSpaceOnUse" id="color-3"><stop offset="0" stop-color="#484c5e"/><stop offset="1" stop-color="#212d30"/></linearGradient><linearGradient x1="56.84585" y1="339.93907" x2="125.68641" y2="340.43614" gradientUnits="userSpaceOnUse" id="color-4"><stop offset="0" stop-color="#484c5e"/><stop offset="1" stop-color="#212d30"/></linearGradient><linearGradient x1="57.40852" y1="309.58994" x2="126.24907" y2="310.08704" gradientUnits="userSpaceOnUse" id="color-5"><stop offset="0" stop-color="#484c5e"/><stop offset="1" stop-color="#212d30"/></linearGradient><linearGradient x1="57.89077" y1="283.57645" x2="126.73133" y2="284.07352" gradientUnits="userSpaceOnUse" id="color-6"><stop offset="0" stop-color="#484c5e"/><stop offset="1" stop-color="#212d30"/></linearGradient><linearGradient x1="58.43334" y1="254.31121" x2="127.27389" y2="254.80832" gradientUnits="userSpaceOnUse" id="color-7"><stop offset="0" stop-color="#484c5e"/><stop offset="1" stop-color="#212d30"/></linearGradient><linearGradient x1="58.91559" y1="228.29773" x2="127.75615" y2="228.79475" gradientUnits="userSpaceOnUse" id="color-8"><stop offset="0" stop-color="#484c5e"/><stop offset="1" stop-color="#212d30"/></linearGradient><linearGradient x1="666.21182" y1="421.55448" x2="615.38561" y2="421.92149" gradientUnits="userSpaceOnUse" id="color-9"><stop offset="0" stop-color="#484c5e"/><stop offset="1" stop-color="#212d30"/></linearGradient><linearGradient x1="665.72356" y1="395.21783" x2="596.883" y2="395.7149" gradientUnits="userSpaceOnUse" id="color-10"><stop offset="0" stop-color="#484c5e"/><stop offset="1" stop-color="#212d30"/></linearGradient><linearGradient x1="665.181" y1="365.95263" x2="596.34044" y2="366.44969" gradientUnits="userSpaceOnUse" id="color-11"><stop offset="0" stop-color="#484c5e"/><stop offset="1" stop-color="#212d30"/></linearGradient><linearGradient x1="664.69875" y1="339.9391" x2="595.85818" y2="340.43617" gradientUnits="userSpaceOnUse" id="color-12"><stop offset="0" stop-color="#484c5e"/><stop offset="1" stop-color="#212d30"/></linearGradient><linearGradient x1="664.13608" y1="309.58997" x2="595.29552" y2="310.08707" gradientUnits="userSpaceOnUse" id="color-13"><stop offset="0" stop-color="#484c5e"/><stop offset="1" stop-color="#212d30"/></linearGradient><linearGradient x1="663.65382" y1="283.57648" x2="594.81326" y2="284.07355" gradientUnits="userSpaceOnUse" id="color-14"><stop offset="0" stop-color="#484c5e"/><stop offset="1" stop-color="#212d30"/></linearGradient><linearGradient x1="663.11126" y1="254.31124" x2="594.2707" y2="254.80835" gradientUnits="userSpaceOnUse" id="color-15"><stop offset="0" stop-color="#484c5e"/><stop offset="1" stop-color="#212d30"/></linearGradient><linearGradient x1="662.62901" y1="228.29776" x2="593.78844" y2="228.79478" gradientUnits="userSpaceOnUse" id="color-16"><stop offset="0" stop-color="#484c5e"/><stop offset="1" stop-color="#212d30"/></linearGradient></defs><g transform="translate(-20.66927,-115.47771)"><g stroke-miterlimit="10"><g fill="none" stroke-width="3.25" stroke-linecap="round"><path d="M55.5783,408.3111c0,0 31.88218,-0.62431 44.50005,-0.87135c9.33843,-0.18287 7.93086,6.40352 -1.90819,10.5206c-8.2408,3.44827 -24.14006,10.10123 -34.15535,14.29204c-5.29823,2.21701 -2.87213,3.78887 1.83047,3.8228c8.90188,0.0643 38.62921,0.27895 38.62921,0.27895" stroke="url(#color-1)"/><path d="M56.06061,382.29753c0,0 31.88223,-0.62431 44.50004,-0.8714c9.33843,-0.18283 7.93086,6.40356 -1.90818,10.5206c-12.60031,5.27247 -43.10516,18.03702 -43.10516,18.03702" stroke="url(#color-2)"/><path d="M56.60312,353.03233c0,0 31.88223,-0.62431 44.50005,-0.87135c9.33843,-0.18283 7.93085,6.40356 -1.90819,10.5206c-12.60031,5.27247 -43.10516,18.03702 -43.10516,18.03702" stroke="url(#color-3)"/><path d="M57.08543,327.01881c0,0 31.88223,-0.62431 44.50005,-0.87135c9.33843,-0.18283 7.93085,6.40356 -1.90819,10.5206c-12.60031,5.27247 -43.10516,18.03702 -43.10516,18.03702" stroke="url(#color-4)"/><path d="M57.64804,296.66971c0,0 31.88223,-0.62431 44.50004,-0.8714c9.33843,-0.18283 7.93086,6.4036 -1.90818,10.52064c-12.60031,5.27247 -43.10516,18.03702 -43.10516,18.03702" stroke="url(#color-5)"/><path d="M58.13035,270.65619c0,0 31.88223,-0.62431 44.50005,-0.8714c9.33843,-0.18283 7.93086,6.40356 -1.90818,10.5206c-12.60031,5.27247 -43.10517,18.03702 -43.10517,18.03702" stroke="url(#color-6)"/><path d="M58.67286,241.39098c0,0 31.88223,-0.62431 44.50005,-0.87135c9.33843,-0.18283 7.93085,6.40356 -1.90819,10.5206c-12.60031,5.27247 -43.10516,18.03706 -43.10516,18.03706" stroke="url(#color-7)"/><path d="M59.15517,215.37746c0,0 31.88223,-0.62431 44.50005,-0.87135c9.33843,-0.18283 7.93085,6.40356 -1.90819,10.5206c-12.60031,5.27247 -43.10516,18.03702 -43.10516,18.03702" stroke="url(#color-8)"/></g><path d="M38.49488,199.13991c-4.68434,-17.07174 -31.70144,-73.08674 6.64436,-82.56975c39.58293,-9.78893 44.12161,49.50232 54.2833,46.72217c13.13656,-3.59403 3.62524,-14.33841 11.15548,-10.61275c20.95938,10.36986 7.64552,37.34858 9.02771,42.38593c2.94357,10.72772 32.77133,30.28672 23.40582,36.3766c-5.53849,3.60136 -47.15613,-3.84634 -55.47953,-3.42824c-5.43594,0.27308 -57.29021,31.88384 -62.43334,30.64313c-16.04865,-3.87147 16.9437,-46.58851 13.39621,-59.51705z" fill="#0d0d0d" stroke="#000000" stroke-width="0" stroke-linecap="butt"/><g fill="none" stroke-width="3.25" stroke-linecap="round"><path d="M617.07011,436.35412c0,0 29.72733,-0.21465 38.6292,-0.27895c4.7026,-0.03397 7.12869,-1.6058 1.83047,-3.8228c-10.01528,-4.19081 -25.91455,-10.84377 -34.15535,-14.29204c-9.83905,-4.11708 -11.24662,-10.70347 -1.90819,-10.5206c12.61786,0.24705 44.50005,0.87135 44.50005,0.87135" stroke="url(#color-9)"/><path d="M665.99729,409.98383c0,0 -30.50486,-12.76455 -43.10517,-18.03702c-9.83904,-4.11704 -11.24661,-10.70343 -1.90818,-10.5206c12.61782,0.24705 44.50005,0.8714 44.50005,0.8714" stroke="url(#color-10)"/><path d="M665.45477,380.71863c0,0 -30.50486,-12.76451 -43.10516,-18.03702c-9.83904,-4.11704 -11.24661,-10.70343 -1.90819,-10.5206c12.61782,0.24705 44.50005,0.87135 44.50005,0.87135" stroke="url(#color-11)"/><path d="M664.97247,354.70511c0,0 -30.50486,-12.76451 -43.10516,-18.03702c-9.83904,-4.11704 -11.24661,-10.70343 -1.90819,-10.5206c12.61782,0.24705 44.50005,0.87135 44.50005,0.87135" stroke="url(#color-12)"/><path d="M664.40985,324.35601c0,0 -30.50485,-12.76451 -43.10516,-18.03702c-9.83904,-4.11704 -11.24661,-10.70347 -1.90819,-10.52064c12.61782,0.24705 44.50005,0.8714 44.50005,0.8714" stroke="url(#color-13)"/><path d="M663.92755,298.34244c0,0 -30.50486,-12.76455 -43.10517,-18.03702c-9.83904,-4.11704 -11.2466,-10.70343 -1.90818,-10.5206c12.61782,0.24705 44.50005,0.8714 44.50005,0.8714" stroke="url(#color-14)"/><path d="M663.38503,269.07728c0,0 -30.50486,-12.76455 -43.10516,-18.03706c-9.83904,-4.11704 -11.24661,-10.70343 -1.90819,-10.5206c12.61782,0.24705 44.50005,0.87135 44.50005,0.87135" stroke="url(#color-15)"/><path d="M662.90273,243.06372c0,0 -30.50486,-12.76451 -43.10516,-18.03702c-9.83904,-4.11704 -11.24661,-10.70343 -1.90819,-10.5206c12.61782,0.24705 44.50005,0.87135 44.50005,0.87135" stroke="url(#color-16)"/></g><path d="M683.04971,199.13996c-3.54749,12.92854 29.44486,55.64558 13.39621,59.51705c-5.14314,1.24072 -56.99741,-30.37005 -62.43335,-30.64312c-8.3234,-0.41809 -49.94104,7.0296 -55.47953,3.42824c-9.36551,-6.08987 20.46224,-25.64888 23.40582,-36.3766c1.38219,-5.03735 -11.93166,-32.01607 9.02771,-42.38593c7.53025,-3.72566 -1.98108,7.01872 11.15548,10.61275c10.16169,2.78015 14.70037,-56.51111 54.2833,-46.72217c38.34579,9.48301 11.3287,65.49801 6.64436,82.56975z" fill="#0d0d0d" stroke="#000000" stroke-width="0" stroke-linecap="butt"/></g></g></svg>