<svg version="1.1" xmlns="http://www.w3.org/2000/svg" xmlns:xlink="http://www.w3.org/1999/xlink" width="747.27307" height="395.13514" viewBox="0,0,747.27307,395.13514"><defs><linearGradient x1="359.70651" y1="-7.68705" x2="359.70651" y2="115.68705" gradientUnits="userSpaceOnUse" id="color-1"><stop offset="0" stop-color="#323232"/><stop offset="1" stop-color="#232323"/></linearGradient><linearGradient x1="360.2936" y1="244.31295" x2="360.2936" y2="367.68705" gradientUnits="userSpaceOnUse" id="color-2"><stop offset="0" stop-color="#232323"/><stop offset="1" stop-color="#323232"/></linearGradient><linearGradient x1="-0.29351" y1="179.68705" x2="279.7065" y2="179.68705" gradientUnits="userSpaceOnUse" id="color-3"><stop offset="0" stop-color="#505050"/><stop offset="1" stop-color="#2e2e2e"/></linearGradient><linearGradient x1="426.70652" y1="179.68705" x2="719.70652" y2="179.68705" gradientUnits="userSpaceOnUse" id="color-4"><stop offset="0" stop-color="#2e2e2e"/><stop offset="1" stop-color="#505050"/></linearGradient><radialGradient cx="361.17421" cy="177.62761" r="327.02879" gradientUnits="userSpaceOnUse" id="color-5"><stop offset="0" stop-color="#000000" stop-opacity="0.83922"/><stop offset="1" stop-color="#000000" stop-opacity="0"/></radialGradient><linearGradient x1="708.34448" y1="180.87088" x2="560.15724" y2="180.87088" gradientUnits="userSpaceOnUse" id="color-6"><stop offset="0" stop-color="#000000"/><stop offset="1" stop-color="#000000" stop-opacity="0"/></linearGradient><linearGradient x1="11.85059" y1="177.62763" x2="160.03783" y2="177.62763" gradientUnits="userSpaceOnUse" id="color-7"><stop offset="0" stop-color="#000000"/><stop offset="1" stop-color="#000000" stop-opacity="0"/></linearGradient><linearGradient x1="360.93903" y1="-17.32732" x2="360.93903" y2="110.30031" gradientUnits="userSpaceOnUse" id="color-8"><stop offset="0" stop-color="#000000"/><stop offset="1" stop-color="#000000" stop-opacity="0"/></linearGradient><linearGradient x1="361.86594" y1="377.19325" x2="361.86594" y2="249.56562" gradientUnits="userSpaceOnUse" id="color-9"><stop offset="0" stop-color="#000000"/><stop offset="1" stop-color="#000000" stop-opacity="0"/></linearGradient><radialGradient cx="360.00008" cy="112.99966" r="47.67618" gradientUnits="userSpaceOnUse" id="color-10"><stop offset="0" stop-color="#ff7a00" stop-opacity="0.18039"/><stop offset="1" stop-color="#ff7a00" stop-opacity="0"/></radialGradient></defs><g transform="translate(13.29349,17.56757)"><g stroke-miterlimit="10"><path d="M320.96101,217.53754v-75.07508h78.07808v75.07508z" fill="#000000" stroke="#000000" stroke-width="0" stroke-linecap="butt"/><g fill="none" stroke="#424242" stroke-width="1" stroke-linecap="round"><g><path d="M334.65531,207.66709c0,0 2.96569,-47.26692 4.83993,-54.41119c0.43132,-1.64411 0.79585,-1.47917 0.79585,0.31726c0,6.16098 0,41.4431 0,52.89716c0,2.25827 0.48721,1.61237 1.02284,-0.56212c1.57532,-6.39532 2.31468,-38.19679 5.36131,-50.565c0.74685,-3.0319 1.20248,-2.9484 1.20248,-0.81263c0,7.90695 -0.65029,52.89716 -0.65029,52.89716"/><path d="M347.38941,207.6671c0,0 2.96569,-47.26691 4.83993,-54.41119c0.43132,-1.6441 0.79585,-1.47917 0.79585,0.31726c0,6.16098 0,41.4431 0,52.89716c0,2.25827 0.48721,1.61237 1.02284,-0.56212c1.57532,-6.39532 2.31468,-38.19678 5.36131,-50.565c0.74685,-3.03191 1.20248,-2.9484 1.20248,-0.81263c0,7.90695 -0.65029,52.89716 -0.65029,52.89716"/><path d="M360.76022,207.66709c0,0 2.96569,-47.26691 4.83993,-54.41119c0.43132,-1.6441 0.79585,-1.47917 0.79585,0.31726c0,6.16098 0,41.4431 0,52.89716c0,2.25827 0.48721,1.61237 1.02284,-0.56212c1.57532,-6.39532 2.31468,-38.19678 5.36131,-50.565c0.74685,-3.03191 1.20248,-2.9484 1.20248,-0.81263c0,7.90695 -0.65029,52.89716 -0.65029,52.89716"/><path d="M373.49432,207.6671c0,0 2.96569,-47.26691 4.83993,-54.41119c0.43132,-1.6441 0.79585,-1.47917 0.79585,0.31726c0,6.16098 0,41.4431 0,52.89716c0,2.25827 0.48721,1.61237 1.02284,-0.56212c1.57532,-6.39532 2.31468,-38.19678 5.36131,-50.565c0.74685,-3.03191 1.20248,-2.9484 1.20248,-0.81263c0,7.90695 -0.65029,52.89716 -0.65029,52.89716"/></g><g><path d="M374.14463,207.42774c0,0 -0.65029,-44.99022 -0.65029,-52.89716c0,-2.13577 0.45564,-2.21927 1.20248,0.81263c3.0466,12.36821 3.78596,44.16967 5.36131,50.565c0.53561,2.17449 1.02284,2.82039 1.02284,0.56212c0,-11.45406 0,-46.73618 0,-52.89716c0,-1.79643 0.36455,-1.96137 0.79585,-0.31726c1.87421,7.14427 4.83993,54.41119 4.83993,54.41119"/><path d="M361.41053,207.42774c0,0 -0.65029,-44.99021 -0.65029,-52.89715c0,-2.13577 0.45564,-2.21928 1.20248,0.81263c3.0466,12.36821 3.78596,44.16967 5.36131,50.565c0.53561,2.17449 1.02284,2.82039 1.02284,0.56212c0,-11.45406 0,-46.73617 0,-52.89715c0,-1.79643 0.36453,-1.96137 0.79585,-0.31726c1.87421,7.14427 4.83993,54.41119 4.83993,54.41119"/><path d="M348.03972,207.42774c0,0 -0.65029,-44.99022 -0.65029,-52.89716c0,-2.13577 0.45564,-2.21927 1.20248,0.81263c3.0466,12.36821 3.78596,44.16967 5.36131,50.565c0.53561,2.17449 1.02284,2.82039 1.02284,0.56212c0,-11.45406 0,-46.73618 0,-52.89716c0,-1.79643 0.36453,-1.96137 0.79585,-0.31726c1.87421,7.14427 4.83993,54.41119 4.83993,54.41119"/><path d="M335.3056,207.42774c0,0 -0.65029,-44.99021 -0.65029,-52.89715c0,-2.13577 0.45564,-2.21928 1.20248,0.81263c3.0466,12.36821 3.78596,44.16967 5.36131,50.565c0.53561,2.17449 1.02284,2.82039 1.02284,0.56212c0,-11.45406 0,-46.73617 0,-52.89715c0,-1.79643 0.36453,-1.96137 0.79585,-0.31726c1.87421,7.14427 4.83993,54.41119 4.83993,54.41119"/></g></g><g stroke-width="0" stroke-linecap="butt"><path d="M215.80307,155.15699v-47.65733h288.1672v47.65733z" fill="#232323" stroke="#000000"/><path d="M216.02985,252.50034v-47.65733h288.1672v47.65733z" fill="#232323" stroke="#000000"/><path d="M220.82475,249.41007v-139.06192l113.95352,44.80884l0.38628,49.63738z" fill="#2e2e2e" stroke="none"/><path d="M498.94859,110.34815v139.06192l-113.95352,-44.80884l-0.38628,-49.63738z" fill="#2e2e2e" stroke="none"/></g><g stroke-width="0" stroke-linecap="butt"><path d="M-13.29349,115.68705v-123.3741h746v123.3741z" fill="url(#color-1)" stroke="#000000"/><path d="M-12.7064,367.68705v-123.3741h746v123.3741z" fill="url(#color-2)" stroke="#000000"/><path d="M-0.29351,359.68705v-360l280,134.5l-5,94z" fill="url(#color-3)" stroke="none"/><path d="M719.70652,-0.31295v360l-281.5,-133.5l-11.5,-87z" fill="url(#color-4)" stroke="none"/></g><path d="M553.19071,284.5142v-170.98438l98.06457,-46.51781v262.76277z" fill="#000000" stroke="none" stroke-width="0" stroke-linecap="butt"/><path d="M450.61186,233.16268v-76.02339l43.60165,-20.68283v116.83006z" fill="#000000" stroke="none" stroke-width="0" stroke-linecap="butt"/><path d="M403.0593,211.03948v-36.28662l20.81144,-9.8721v55.76399z" fill="#000000" stroke="none" stroke-width="0" stroke-linecap="butt"/><path d="M59.71095,329.77478v-262.76277l98.06457,46.51781v170.98438z" fill="#000000" stroke="none" stroke-width="0" stroke-linecap="butt"/><path d="M216.75277,256.80843v-116.83006l43.60165,20.68283v76.02339z" fill="#000000" stroke="none" stroke-width="0" stroke-linecap="butt"/><path d="M291.60004,221.77089v-55.76399l20.81144,9.8721v36.28662z" fill="#000000" stroke="none" stroke-width="0" stroke-linecap="butt"/><g stroke="#000000" stroke-width="0" stroke-linecap="butt"><path d="M325.2587,70.06296c0,-6.18292 15.55422,-11.19516 34.74133,-11.19516c19.18711,0 34.74133,5.01224 34.74133,11.19516c0,6.18292 -16.03674,16.69516 -35.22385,16.69516c-19.18711,0 -34.25881,-10.51224 -34.25881,-16.69516z" fill="#181818"/><path d="M331.45448,76.05338c0,-5.08025 12.78028,-9.19861 28.54555,-9.19861c15.76528,0 28.54555,4.11836 28.54555,9.19861c0,5.08025 -13.17675,13.71774 -28.94202,13.71774c-15.76528,0 -28.14908,-8.63749 -28.14908,-13.71774z" fill="#404040"/></g><g stroke="#000000" stroke-width="0" stroke-linecap="butt"><path d="M350.93504,137.61881c0,-1.85191 4.6588,-3.35317 10.40572,-3.35317c5.74692,0 10.40572,1.50126 10.40572,3.35317c0,1.85191 -4.80333,5.00053 -10.55025,5.00053c-5.74692,0 -10.26119,-3.14862 -10.26119,-5.00053z" fill="#181818"/><path d="M352.7908,139.41306c0,-1.52164 3.82795,-2.75517 8.54996,-2.75517c4.72201,0 8.54996,1.23353 8.54996,2.75517c0,1.52164 -3.9467,4.10874 -8.66871,4.10874c-4.72201,0 -8.43121,-2.5871 -8.43121,-4.10874z" fill="#404040"/></g><g stroke="none" stroke-linecap="butt"><g><g stroke-width="0"><g><path d="M74.35899,352.90773l-63.49978,-254.97461l106.39957,21.44056l41.32044,165.91649z" fill="#838383"/><path d="M74.35899,352.90773l-63.49978,-254.97461l12.10509,2.4393l61.64793,244.30334z" fill="#656565"/><path d="M85.63971,314.78205l-46.50222,-186.72326l77.91864,15.70137l30.25982,121.50412z" fill="#a9a9a9"/></g><path d="M132.15101,204.6466c0.81004,3.78018 0.37226,7.07914 -0.9778,7.36844c-1.35007,0.2893 -3.10117,-2.54062 -3.91121,-6.3208c-0.81004,-3.78018 -0.37227,-7.07914 0.9778,-7.36844c1.35007,-0.2893 3.10117,2.54062 3.91121,6.3208z" fill="#000000"/></g><path d="M128.83149,218.67042c-0.5,0 -0.5,-0.5 -0.5,-0.5l0.06389,-0.75545c-1.92199,-0.91678 -1.03181,-2.22162 0.08256,-3.34811c0,0 0.35356,-0.35356 0.70711,0c0.35356,0.35356 0,0.70711 0,0.70711c-1.09886,1.08511 -1.19646,1.24849 0.08255,2.15189l0.06389,1.24455c0,0 0,0.5 -0.5,0.5z" fill="#000000" stroke-width="0.5"/><path d="M125.08151,190.92042c0.5,0 0.5,0.5 0.5,0.5v0.25c-0.00029,0.94738 0.05348,1.72298 0.24029,2.65194c0,0 0.09806,0.49029 -0.39223,0.58835c-0.49029,0.09806 -0.58835,-0.39223 -0.58835,-0.39223c-0.19683,-0.98921 -0.25941,-1.84025 -0.25971,-2.84806v-0.25c0,0 0,-0.5 0.5,-0.5z" fill="#000000" stroke-width="0.5"/><path d="M134.08149,203.98292c0.125,0.0625 0.25,0.1875 0.25,0.4375c0,0.5 -0.5,0.5 -0.5,0.5l-0.75,-0.5c0,-0.83334 0,-1.66666 0,-2.5c0,0 0,-0.5 0.5,-0.5c0.5,0 0.5,0.5 0.5,0.5c0,0.6875 0,1.375 0,2.0625z" fill="#000000" stroke-width="0.5"/><path d="M116.83151,205.42042c-0.5,0 -0.5,-0.5 -0.5,-0.5c0,-0.33334 0,-1.16666 0,-1.5c0,0 0,-0.5 0.5,-0.5c0.5,0 0.5,0.5 0.5,0.5c0,0.33334 0,0.66666 0,1v0.5c0,0 0,0.5 -0.5,0.5z" fill="#000000" stroke-width="0.5"/><path d="M122.47795,209.52398c-0.35356,-0.35356 0,-0.70711 0,-0.70711l0.46689,-0.46345c0.32265,-0.48738 0.64642,-0.97402 0.97065,-1.46035c0,0 0.27735,-0.41603 0.69337,-0.13868c0.41603,0.27735 0.13868,0.69338 0.13868,0.69338c-0.34244,0.51367 -0.68545,1.02696 -1.02935,1.53965l-0.53312,0.53656c0,0 -0.35356,0.35356 -0.70711,0z" fill="#000000" stroke-width="0.5"/><path d="M163.07609,191.597c0.07342,0.49458 -0.42115,0.568 -0.42115,0.568l-0.20539,0.00542c-0.57996,0.28134 -1.22351,0.49003 -1.86803,0.5c0,0 -0.5,0 -0.5,-0.5c0,-0.5 0.5,-0.5 0.5,-0.5c0.49141,0.01035 0.98457,-0.168 1.42082,-0.39443l0.50575,-0.10016c0,0 0.49458,-0.07342 0.568,0.42116z" fill="#000000" stroke-width="0.5"/><path d="M162.02872,201.64403c-0.2236,0.44721 -0.67082,0.22361 -0.67082,0.22361l-0.66115,-0.37789c-0.32103,-0.96966 -0.60919,-1.79399 -0.61524,-2.81932c0,0 0,-0.5 0.5,-0.5c0.5,0 0.5,0.5 0.5,0.5c-0.00552,0.77747 0.22394,1.42618 0.38475,2.18068l0.33885,0.12211c0,0 0.44721,0.2236 0.22361,0.67082z" fill="#000000" stroke-width="0.5"/><path d="M162.08149,211.42042c0,0.5 -0.5,0.5 -0.5,0.5h-0.75c-0.59744,-0.06464 -1.39838,-0.40773 -1.5,-1c0,0 0,-0.5 0.5,-0.5c0.5,0 0.5,0.5 0.5,0.5c-0.30267,0.30267 -0.21377,0.1617 0.5,0h0.75c0,0 0.5,0 0.5,0.5z" fill="#000000" stroke-width="0.5"/><path d="M165.83149,181.92042c0,0.5 -0.5,0.5 -0.5,0.5l-0.47768,-0.08067c-0.56952,1.84082 -1.72247,2.43109 -3.2356,3.49028c0,0 -0.40961,0.28673 -0.69634,-0.12288c-0.28673,-0.40962 0.12288,-0.69635 0.12288,-0.69635c1.6526,-1.15682 2.32794,-1.73213 3.2644,-3.50971l1.02233,-0.08067c0,0 0.5,0 0.5,0.5z" fill="#000000" stroke-width="0.5"/><path d="M136.08149,208.17042c0,0.5 -0.5,0.5 -0.5,0.5l-0.83009,-0.00646c-0.63391,-0.26593 -1.00292,-0.94099 -1.52346,-1.38999c0,0 -0.35356,-0.35355 0,-0.70711c0.35356,-0.35356 0.70711,0 0.70711,0c0.51182,0.5571 0.42009,1.04602 0.97653,1.11001l0.66991,-0.00645c0,0 0.5,0 0.5,0.5z" fill="#000000" stroke-width="0.5"/></g><text transform="translate(56.32396,180.58579) rotate(-0.30193) scale(0.22203,0.41089) skewX(33.88936)" font-size="40" xml:space="preserve" fill="#000000" stroke-width="1" font-family="&quot;GovtAgentBB&quot;, Serif" font-weight="normal" text-anchor="start"><tspan x="0" dy="0">Interview Room</tspan></text></g><path d="M205,221.5l58,-36" fill="none" stroke="#8bb35a" stroke-width="5" stroke-linecap="round"/><path d="M287,180.5l28,21" fill="none" stroke="#8bb35a" stroke-width="2.5" stroke-linecap="round"/><path d="M399.96502,185.26276l28,1" fill="none" stroke="#8bb35a" stroke-width="2.5" stroke-linecap="round"/><path d="M426.96502,196.26276l-28,4" fill="none" stroke="#8bb35a" stroke-width="2.5" stroke-linecap="round"/><path d="M443,170.5l57,-17" fill="none" stroke="#8bb35a" stroke-width="5" stroke-linecap="round"/><path d="M440,192.5l61,40" fill="none" stroke="#8bb35a" stroke-width="5" stroke-linecap="round"/><path d="M659,174.5l-116,-37" fill="none" stroke="#8bb35a" stroke-width="10" stroke-linecap="round"/><path d="M539,225.5l118,47" fill="none" stroke="#8bb35a" stroke-width="10" stroke-linecap="round"/><path d="M541,258.5l120,-134" fill="none" stroke="#8bb35a" stroke-width="10" stroke-linecap="round"/><g stroke-width="0" stroke-linecap="butt"><path d="M708.25061,377.56757v-394.89489h25.72897v394.89489z" fill="#000000" stroke="none"/><g><g fill="url(#color-5)" stroke="#000000"><path d="M34.14542,363.81382v-372.37237h654.05758v372.37237z"/></g><g stroke="none"><path d="M560.15725,376.06607v-390.39039h148.18723v390.39039z" fill="url(#color-6)"/><path d="M11.8506,372.82282v-390.39039h148.18723v390.39039z" fill="url(#color-7)"/><path d="M12.30713,110.30032v-127.62763h697.26378v127.62762z" fill="url(#color-8)"/><path d="M710.49784,249.56562v127.62762h-697.26378v-127.62762z" fill="url(#color-9)"/></g><path d="M-12.60751,377.34605v-394.89489h25.72897v394.89489z" fill="#000000" stroke="none"/></g></g><g stroke-linecap="butt"><g><path d="M320.62876,122.22731v-18.4553h78.74259v18.4553z" fill="#000000" stroke="#171717" stroke-width="5"/><text transform="translate(325.01817,115.54893) scale(0.21244,0.21244)" font-size="40" xml:space="preserve" fill="#ff7a00" stroke="none" stroke-width="1" font-family="&quot;Agency FB&quot;, Sans Serif" font-weight="normal" text-anchor="start"><tspan x="0" dy="0">VV Behavior Simulation VV</tspan></text></g><path d="M312.32388,112.99966c0,-26.33083 21.34535,-47.67618 47.67618,-47.67618c26.33083,0 47.67618,21.34535 47.67618,47.67618c0,26.33083 -21.34535,47.67618 -47.67618,47.67618c-26.33083,0 -47.67618,-21.34535 -47.67618,-47.67618z" fill="url(#color-10)" stroke="#171717" stroke-width="0"/></g></g></g></svg>