<svg version="1.1" xmlns="http://www.w3.org/2000/svg" xmlns:xlink="http://www.w3.org/1999/xlink" width="751" height="544.1072" viewBox="0,0,751,544.1072"><defs><radialGradient cx="360" cy="177.81483" r="367.5075" gradientUnits="userSpaceOnUse" id="color-1"><stop offset="0" stop-color="#000000" stop-opacity="0.83922"/><stop offset="1" stop-color="#000000" stop-opacity="0"/></radialGradient><radialGradient cx="360" cy="177.81483" r="367.50751" gradientUnits="userSpaceOnUse" id="color-2"><stop offset="0" stop-color="#000000" stop-opacity="0"/><stop offset="1" stop-color="#000000"/></radialGradient><linearGradient x1="-5.24206" y1="181.0581" x2="150.659" y2="181.0581" gradientUnits="userSpaceOnUse" id="color-3"><stop offset="0" stop-color="#000000"/><stop offset="1" stop-color="#000000" stop-opacity="0"/></linearGradient><linearGradient x1="727.50752" y1="177.81485" x2="571.60646" y2="177.81485" gradientUnits="userSpaceOnUse" id="color-4"><stop offset="0" stop-color="#000000"/><stop offset="1" stop-color="#000000" stop-opacity="0"/></linearGradient><linearGradient x1="360.24743" y1="-17.14012" x2="360.24743" y2="110.48753" gradientUnits="userSpaceOnUse" id="color-5"><stop offset="0" stop-color="#000000"/><stop offset="1" stop-color="#000000" stop-opacity="0"/></linearGradient><linearGradient x1="359.27227" y1="377.38047" x2="359.27227" y2="249.75283" gradientUnits="userSpaceOnUse" id="color-6"><stop offset="0" stop-color="#000000"/><stop offset="1" stop-color="#000000" stop-opacity="0"/></linearGradient></defs><g transform="translate(15.5,30)"><g data-paper-data="{&quot;isPaintingLayer&quot;:true}" fill-rule="nonzero" stroke-linecap="butt" stroke-linejoin="miter" stroke-miterlimit="10" stroke-dasharray="" stroke-dashoffset="0" style="mix-blend-mode: normal"><path d="M-7.11712,370.42353v-384.38438h732.73273v384.38438z" fill="#07010e" stroke="none" stroke-width="0"/><g stroke="none"><g stroke-width="0"><g><g><g><path d="M171.38287,472.61633c-0.0576,-5.50143 4.35551,-10.00792 9.85695,-10.06554c5.50143,-0.0576 10.00792,4.35551 10.06554,9.85695c0.0576,5.50143 -4.35551,10.00792 -9.85695,10.06554c-5.50143,0.0576 -10.00792,-4.35551 -10.06554,-9.85695z" fill="#6e2d2a"/><path d="M181.30466,512.79499c-14.67377,0.15363 -10.31945,-34.11037 -10.31945,-34.11037c0,0 1.87889,-4.44796 10.77755,-4.87741c6.95802,-0.33581 10.44422,4.65523 10.44422,4.65523c0,0 3.77146,34.17893 -10.90231,34.33256z" fill="#893834"/></g><path d="M114.75992,473.62988l14.2468,-21.21419l46.15086,30.99352l-14.2468,21.21419z" fill="#6e2d2a"/><path d="M176.44896,485.84163c-9.2019,13.70208 -59.1811,-19.86242 -49.9792,-33.56452c9.2019,-13.70208 25.82633,-22.82883 48.97633,-7.28199c13.80138,9.26858 10.20477,27.14442 1.00286,40.84649z" fill="#893834"/><path d="M169.46907,494.97991c-13.73738,20.45564 -14.69188,23.10774 -28.47788,14.52655c-5.81002,-3.61649 -3.66772,-8.05326 -3.66772,-8.05326c0,0 -3.03923,6.47954 -22.61975,-10.54063c-11.53742,-10.02877 2.80666,-24.04063 5.94738,-28.71731c6.73472,-10.02834 -4.4757,4.07552 21.72726,21.11296c23.47177,15.26162 33.82542,1.64334 27.09069,11.67169z" fill="#893834"/></g><g><path d="M211.89252,353.11033c7.23205,-9.77517 21.01916,-11.83676 30.79436,-4.6047c9.77517,7.23205 11.83676,21.01916 4.60468,30.79434c-7.23205,9.77517 -21.01916,11.83676 -30.79434,4.60471c-9.77517,-7.23208 -11.83676,-21.01916 -4.60471,-30.79434z" fill="#6e2d2a"/><path d="M146.32987,432.62499l52.35039,-70.75907c0,0 7.03125,-8.38987 28.84068,7.74565c20.7455,15.34836 15.26304,24.88408 15.26304,24.88408l-52.35037,70.75907c0,0 -7.68101,4.40694 -26.45517,-9.75626c-20.03288,-15.11275 -17.64856,-22.87344 -17.64856,-22.87344z" fill="#893834"/></g><g><path d="M304.29409,283.4094c9.78407,-7.22 23.56862,-5.14143 30.78863,4.64267c7.22,9.78407 5.14143,23.56862 -4.64266,30.78861c-9.78407,7.22 -23.56862,5.14143 -30.78863,-4.64267c-7.22,-9.78407 -5.14143,-23.56862 4.64266,-30.78861z" fill="#6e2d2a"/><path d="M218.26936,340.16148l70.82356,-52.26312c0,0 9.18526,-5.95479 25.29386,15.87454c15.32278,20.76441 7.28144,28.26935 7.28144,28.26935l-70.82354,52.26312c0,0 -8.63659,1.95667 -22.42304,-17.09588c-14.71077,-20.3299 -10.15226,-27.04804 -10.15226,-27.04804z" fill="#893834"/></g></g><g><g><g><path d="M564.07544,477.75861c-5.49977,-0.14766 -9.8385,-4.72578 -9.69082,-10.22554c0.14766,-5.49977 4.72578,-9.83848 10.22556,-9.69085c5.49977,0.14766 9.83848,4.72578 9.69084,10.22556c-0.14764,5.49975 -4.72577,9.83849 -10.22555,9.69083z" fill="#6e2d2a"/><path d="M553.38412,473.57209c0,0 3.56745,-4.93331 10.51904,-4.48363c8.89042,0.5751 10.69625,5.05324 10.69625,5.05324c0,0 3.79277,34.3307 -10.87651,33.93685c-14.66929,-0.39385 -10.33875,-34.50645 -10.33875,-34.50645z" fill="#893834"/></g><path d="M584.24773,500.24196l-13.89757,-21.4446l46.65209,-30.2338l13.89757,21.4446z" fill="#6e2d2a"/><path d="M570.69066,440.38367c23.40143,-15.16575 39.87419,-5.76806 48.85055,8.08284c8.97635,13.8509 -41.54568,46.59267 -50.522,32.74177c-8.97635,-13.8509 -12.27981,-31.78321 1.67146,-40.82461z" fill="#893834"/><path d="M603.1267,479.23301c26.47838,-16.60618 15.50038,-30.89169 22.07003,-20.75442c3.06373,4.72748 17.17648,18.97229 5.47642,28.81084c-19.85654,16.69732 -22.78928,10.1689 -22.78928,10.1689c0,0 2.06937,4.47124 -3.79906,7.99212c-13.92465,8.35434 -14.83557,5.68698 -28.23623,-14.99082c-6.56965,-10.13725 3.55965,3.64867 27.27815,-11.22661z" fill="#893834"/></g><g><path d="M530.64502,378.62943c-9.89226,7.07105 -23.64375,4.78402 -30.71483,-5.10825c-7.07105,-9.89226 -4.78402,-23.64376 5.10826,-30.71482c9.89226,-7.07105 23.64376,-4.78403 30.71485,5.10825c7.07105,9.89225 4.78401,23.64378 -5.10826,30.71482z" fill="#6e2d2a"/><path d="M581.98478,451.07339c-19.00354,13.85391 -26.61138,9.32184 -26.61138,9.32184l-51.18493,-71.60665c0,0 -5.32563,-9.62418 15.66839,-24.63086c22.07068,-15.77627 28.96364,-7.27241 28.96364,-7.27241l51.18494,71.60665c0,0 2.25697,7.7987 -18.02064,22.58144z" fill="#893834"/></g><g><path d="M448.64324,307.57072c-7.37923,9.66457 -21.19594,11.51719 -30.86049,4.13797c-9.66457,-7.3792 -11.51719,-21.19594 -4.13799,-30.86053c7.37922,-9.66455 21.19594,-11.51719 30.86049,-4.13797c9.66457,7.3792 11.51719,21.19594 4.13799,30.86053z" fill="#6e2d2a"/><path d="M518.99563,361.74123c-14.09654,18.82427 -22.69992,16.72648 -22.69992,16.72648l-69.95841,-53.41564c0,0 -7.91737,-7.63557 7.7433,-28.14636c16.46384,-21.56266 25.55037,-15.45829 25.55037,-15.45829l69.95841,53.41562c0,0 4.4479,6.79187 -10.59372,26.87821z" fill="#893834"/></g></g><g><path d="M414.83942,422.11445c-1.27495,14.17554 -27.09015,29.52637 -56.98982,26.83719c-29.89966,-2.68918 -52.5614,-22.40007 -51.28645,-36.5756c1.27495,-14.17554 26.54696,-23.48706 56.44664,-20.79787c29.89966,2.68918 53.10458,16.36074 51.82961,30.53629z" fill="#893834"/><g><path d="M307.31598,358.84614c0,0 -12.88118,-106.78178 67.88014,-98.16076c79.9494,8.53434 47.96276,106.40907 47.96276,106.40907c0,0 25.23024,72.37719 -61.79107,64.84527c-90.42686,-7.82667 -54.0518,-73.09357 -54.0518,-73.09357z" fill="#a3433e"/><g fill="#893834"><g><path d="M404.30993,322.90049c-16.80122,-1.51111 -29.83157,-9.29298 -29.1041,-17.38132c0.72747,-8.08833 14.93727,-13.4202 31.73849,-11.9091c8.33898,0.75001 -0.6157,14.54582 -0.6157,14.54582c0,0 6.44356,15.50568 -2.01867,14.74459z"/><path d="M378.71077,305.83442c0.11991,-1.33322 1.29795,-2.31684 2.63117,-2.19693c1.33322,0.11991 17.00306,3.96283 17.00306,3.96283c0,0 -16.10407,0.98517 -17.4373,0.86525c-1.33322,-0.11991 -2.31683,-1.29792 -2.19693,-2.63116z"/></g><g><path d="M333.74077,301.62733c0,0 -6.34927,-15.17224 1.98971,-14.42224c16.80122,1.51111 29.83159,9.29298 29.10413,17.38129c-0.72747,8.08833 -14.93727,13.42021 -31.73851,11.9091c-8.46224,-0.76109 0.64468,-14.86817 0.64468,-14.86817z"/><path d="M358.69851,306.46807c-1.33322,-0.11991 -17.00305,-3.96283 -17.00305,-3.96283c0,0 16.10408,-0.98517 17.4373,-0.86525c1.33322,0.11991 2.31682,1.29791 2.19693,2.63117c-0.11991,1.33322 -1.29795,2.31684 -2.63117,2.19693z"/></g><path d="M356.01877,303.79348c0.6955,-7.73281 7.52796,-13.43765 15.26075,-12.74217c7.73281,0.6955 13.43765,7.52796 12.74215,15.26076c-0.6955,7.73281 -7.52795,13.43765 -15.26074,12.74216c-7.73281,-0.6955 -13.43765,-7.52796 -12.74217,-15.26075z"/></g><g><g><path d="M408.78779,319.74781c-18.76443,-1.68768 -33.31738,-10.37885 -32.5049,-19.41231c0.81247,-9.03343 16.6827,-14.98835 35.44712,-13.30067c9.31337,0.83765 -0.68765,16.24548 -0.68765,16.24548c0,0 7.19648,17.3175 -2.25458,16.46747z" fill="#2a2119"/><path d="M380.19738,300.68757c0.13392,-1.48904 1.44958,-2.58756 2.93862,-2.45364c1.48904,0.13392 18.98985,4.42589 18.98985,4.42589c0,0 -17.9858,1.10027 -19.47484,0.96634c-1.48904,-0.13392 -2.58755,-1.44958 -2.45363,-2.93862z" fill="#1e1812"/></g><g><path d="M329.9727,295.98887c0,0 -7.09117,-16.94511 2.22222,-16.10747c18.76443,1.68768 33.31736,10.37885 32.50489,19.41228c-0.81247,9.03343 -16.68269,14.98834 -35.4471,13.30064c-9.45105,-0.85003 0.72,-16.6055 0.72,-16.6055z" fill="#2a2119"/><path d="M357.84669,301.39528c-1.48904,-0.13392 -18.98986,-4.42588 -18.98986,-4.42588c0,0 17.98583,-1.10029 19.47484,-0.96635c1.48904,0.13392 2.58755,1.44958 2.45363,2.93862c-0.13392,1.48904 -1.44958,2.58755 -2.93862,2.45363z" fill="#1e1812"/></g><path d="M354.85383,298.40816c0.77675,-8.63635 8.40761,-15.00782 17.04395,-14.23107c8.63635,0.77675 15.00782,8.4076 14.23106,17.04395c-0.77675,8.63635 -8.4076,15.00782 -17.04395,14.23107c-8.63635,-0.77675 -15.00783,-8.4076 -14.23107,-17.04395z" fill="#1e1812"/></g><g><path d="M361.60214,332.97632c0.32907,-3.65875 3.56184,-6.35801 7.22059,-6.02892c3.65875,0.32907 6.358,3.56184 6.02892,7.22059c-0.32907,3.65875 -3.56186,6.35799 -7.22058,6.02892c-3.65875,-0.32907 -6.35801,-3.56184 -6.02892,-7.22058z" fill="#893834"/><path d="M361.82385,330.51129c0.32907,-3.65875 3.56184,-6.35801 7.22059,-6.02892c3.65875,0.32907 6.358,3.56184 6.02892,7.22059c-0.32907,3.65875 -3.56186,6.35799 -7.22058,6.02892c-3.65875,-0.32907 -6.35801,-3.56184 -6.02892,-7.22058z" fill="#1e1812"/></g><g><path d="M359.8285,352.69651c0.32907,-3.65875 3.56184,-6.358 7.22058,-6.02892c3.65875,0.32907 6.358,3.56184 6.02892,7.22058c-0.32907,3.65875 -3.56186,6.35799 -7.22058,6.02892c-3.65875,-0.32907 -6.358,-3.56184 -6.02892,-7.22058z" fill="#893834"/><path d="M360.0502,350.2315c0.32907,-3.65875 3.56184,-6.35801 7.22059,-6.02892c3.65875,0.32907 6.358,3.56184 6.02892,7.22059c-0.32907,3.65875 -3.56186,6.35799 -7.22058,6.02892c-3.65875,-0.32907 -6.35801,-3.56184 -6.02892,-7.22058z" fill="#1e1812"/></g><path d="M402.0875,274.88171c-0.46873,5.2116 -13.88534,8.2639 -29.96684,6.81754c-16.0815,-1.44638 -28.73813,-6.84372 -28.2694,-12.05533c0.46873,-5.2116 13.88533,-8.26391 29.96683,-6.81753c16.0815,1.44638 28.73814,6.84372 28.2694,12.05533z" fill="#6e2d2a"/><path d="M383.70342,271.77869c-0.26785,2.97805 -5.2329,4.96522 -11.08972,4.43844c-5.85684,-0.52676 -10.3876,-3.36798 -10.11975,-6.34604c0.26785,-2.97805 5.2329,-4.96522 11.08972,-4.43844c5.85684,0.52676 10.38761,3.36799 10.11975,6.34605z" fill="#4d201d"/><path d="M383.5741,273.2166c-0.26785,2.97805 -5.2329,4.96522 -11.08972,4.43844c-5.85684,-0.52676 -10.3876,-3.36798 -10.11975,-6.34604c0.26785,-2.97805 5.2329,-4.96522 11.08972,-4.43844c5.85684,0.52676 10.3876,3.36798 10.11975,6.34604z" fill="#0b0404"/></g></g><g><path d="M429.84381,255.50057c0.37277,17.03935 -12.25928,33.0681 -68.04283,33.43889c-56.97014,0.37867 -69.60862,-13.37993 -69.98139,-30.41929c-0.37277,-17.03935 28.03538,-27.68987 68.69067,-28.5793c40.65528,-0.88942 68.96078,8.52034 69.33355,25.5597z" fill="#893834"/><path d="M423.47224,252.45565c0.28347,12.95666 -25.06223,21.54895 -62.00503,22.35716c-36.94277,0.80821 -63.13184,-6.65665 -63.4153,-19.61331c-0.28347,-12.95666 25.56309,-21.14814 62.50588,-21.95634c36.94279,-0.80821 62.631,6.25583 62.91446,19.21248z" fill="#6e2d2a"/></g><g><path d="M309.72483,122.31805l-12.88524,-36.59209l65.93503,-12.65892l1.20532,38.83453z" fill="#1e1812"/><path d="M375.85165,110.40365c0.56598,2.94788 -16.28667,8.66124 -37.6414,12.76114c-21.35473,4.09992 -39.12499,5.03384 -39.69096,2.08596c-0.56598,-2.94788 16.28667,-8.66124 37.64141,-12.76114c21.35475,-4.0999 39.12497,-5.03382 39.69094,-2.08594z" fill="#2a2119"/><path d="M362.70225,72.69027c0.56598,2.94788 -13.7353,8.1714 -31.94273,11.66706c-18.20746,3.49567 -33.42631,3.93974 -33.99227,0.99185c-0.56596,-2.94787 13.7353,-8.1714 31.94273,-11.66706c18.20746,-3.49567 33.42631,-3.93974 33.99227,-0.99185z" fill="#1e1812"/><path d="M359.0359,115.14591c0.23471,1.22251 -9.23231,4.06764 -21.1452,6.35481c-11.91289,2.28717 -21.76044,3.15024 -21.99515,1.92774c-0.23471,-1.22251 9.23231,-4.06764 21.1452,-6.35481c11.91289,-2.28717 21.76044,-3.15024 21.99515,-1.92774z" fill="#1e1812"/></g><path d="M273.71354,252.40133c0,0 -12.06779,-62.85614 -16.75808,-87.28587c-2.56055,-13.33684 3.30894,-29.94546 21.58691,-34.00594c19.35099,-4.29887 82.1231,-15.76686 116.97191,-22.45753c20.27132,-3.89191 30.53732,6.87019 33.19851,20.73121c4.71691,24.56842 17.26847,89.94432 17.26847,89.94432c0,0 1.5104,12.16312 -33.19802,25.24793c-0.22816,-0.8007 -3.09279,-7.52845 -3.09279,-7.52845c0,0 -0.23301,7.40066 -0.06388,8.2816c0.02451,0.12763 0.06334,0.24888 0.11451,0.36242c-1.26636,0.45184 -2.57689,0.90439 -3.93315,1.3572c-0.2527,-0.76225 -2.25579,-3.20876 -2.25579,-3.20876c0,0 -1.04964,3.14713 -0.88051,4.02807c0.01228,0.06397 0.02815,0.12633 0.04737,0.18692c-2.88285,0.91645 -14.66032,5.0346 -14.66032,5.0346l-1.91169,-1.62027c0,0 -0.17681,1.17306 -0.38902,1.21381c-0.27627,0.05305 -0.52264,0.17316 -0.72551,0.34027c-6.32232,1.57576 -13.29966,3.12943 -20.99977,4.64088c-5.63414,1.10593 -16.22408,1.00212 -16.22408,1.00212c0,0 -0.25373,1.66639 -0.57786,1.72861c-0.28407,0.05454 -0.53652,0.18003 -0.74258,0.35456c-8.25737,1.26707 -15.58231,2.10386 -22.07953,2.59606c0.09303,-0.26285 0.11952,-0.55315 0.06316,-0.84676c-0.16913,-0.88093 -2.63667,-3.84283 -2.63667,-3.84283c0,0 -0.72262,3.57437 -0.55348,4.45531c0.03014,0.15697 0.08193,0.3043 0.1517,0.43947c-44.23642,2.74261 -47.71977,-11.14893 -47.71977,-11.14893z" fill="#a3433e"/><path d="M271.86352,234.72518c-2.16488,-11.27596 5.22112,-22.17191 16.49705,-24.33677c11.27596,-2.16488 22.17189,5.2211 24.33677,16.49705c2.16488,11.27596 -5.2211,22.17189 -16.49705,24.33677c-11.27596,2.16488 -22.17189,-5.22109 -24.33677,-16.49705z" fill="#893834"/><path d="M335.03185,184.13875c4.17971,21.77039 -7.5386,34.65565 -24.42317,37.89734c-16.88458,3.24168 -32.54152,-4.38779 -36.72125,-26.15818c-4.17971,-21.77039 7.89334,-32.80792 24.77793,-36.04962c16.88458,-3.24168 32.18677,2.54004 36.36649,24.31044z" fill="#6e2d2a"/><path d="M369.84144,175.93278c1.08995,5.67714 -7.31026,12.06177 -18.7624,14.26046c-11.45213,2.19871 -21.61951,-0.62112 -22.70947,-6.29826c-1.08995,-5.67714 7.31026,-12.06175 18.7624,-14.26046c11.45213,-2.19871 21.61951,0.62111 22.70948,6.29824z" fill="#893834"/><path d="M424.65693,226.56053c-11.27596,2.16488 -22.17191,-5.22112 -24.33677,-16.49705c-2.16487,-11.27595 5.2211,-22.17189 16.49705,-24.33677c11.27596,-2.16488 22.1719,5.22111 24.33677,16.49705c2.16487,11.27595 -5.22111,22.1719 -16.49705,24.33677z" fill="#893834"/><path d="M338.222,183.52627c2.8562,14.87678 -1.71143,25.60451 -10.27838,31.94117c-1.24948,0.92419 -5.56479,3.09737 -5.56479,3.09737l-4.85079,4.09359c0,0 -2.22418,-1.52372 -3.7292,-1.23478c-16.88458,3.24168 -32.54153,-4.3878 -36.72124,-26.15819c-4.17971,-21.77039 7.89334,-32.80792 24.77793,-36.04962c7.95209,-1.52673 15.5532,-1.05196 21.80671,2.15192c0.80641,0.41314 3.54954,-2.26573 3.54954,-2.26573l0.8295,4.61034l5.22453,4.11352c0,0 1.4295,4.93098 1.85634,5.84077c1.33061,2.83616 2.38013,6.11085 3.09986,9.85963z" fill="#000000"/><path d="M388.52106,142.57687c16.88458,-3.24168 32.18678,2.54005 36.36649,24.31045c4.17971,21.77039 -7.5386,34.65565 -24.42317,37.89734c-16.88458,3.24168 -32.54153,-4.3878 -36.72124,-26.15819c-4.17971,-21.77039 7.89334,-32.80792 24.77793,-36.04962z" fill="#6e2d2a"/><path d="M385.33093,143.18935c16.88458,-3.24168 32.18677,2.54004 36.36649,24.31045c4.17971,21.77039 -7.5386,34.65565 -24.42316,37.89733c-16.88458,3.24168 -32.54152,-4.38779 -36.72125,-26.15818c-4.17971,-21.77039 7.89334,-32.80792 24.77793,-36.04962z" fill="#000000"/><path d="M370.50609,209.06625c0.92083,4.7962 -5.15666,9.99443 -13.57447,11.61058c-8.41781,1.61614 -15.98826,-0.96181 -16.90908,-5.75801c-0.92083,-4.7962 5.15666,-9.99443 13.57448,-11.61058c8.41781,-1.61614 15.98826,0.96181 16.90908,5.75802z" fill="#6e2d2a"/><g fill="#000000"><path d="M404.5189,171.75583c0.35344,1.84092 -5.27718,4.46933 -12.57635,5.8707c-7.29915,1.40137 -13.50283,1.04503 -13.85627,-0.79589c-0.35344,-1.84092 5.27717,-4.46934 12.57633,-5.8707c7.29915,-1.40137 13.50284,-1.04504 13.85628,0.7959z"/><path d="M400.72105,172.48498c1.90072,9.90002 -0.77528,18.73514 -5.97698,19.73382c-5.2017,0.99869 -10.95934,-6.21729 -12.86005,-16.11728c-1.90072,-9.90002 0.77528,-18.73514 5.97698,-19.73382c5.2017,-0.99869 10.95934,6.21729 12.86005,16.11728z"/></g><g fill="#000000"><path d="M307.18735,186.98716c7.29915,-1.40137 13.50282,-1.04504 13.85626,0.79589c0.35344,1.84092 -5.27717,4.46933 -12.57633,5.8707c-7.29915,1.40137 -13.50282,1.04504 -13.85626,-0.79588c-0.35344,-1.84092 5.27717,-4.46934 12.57633,-5.8707z"/><path d="M304.38577,172.3949c5.2017,-0.99869 10.95934,6.21729 12.86005,16.11728c1.90072,9.90002 -0.77527,18.73515 -5.97698,19.73382c-5.2017,0.99869 -10.95935,-6.21729 -12.86006,-16.1173c-1.90072,-9.90002 0.77528,-18.73514 5.97698,-19.73382z"/></g></g><path d="M335.01118,165.75617c0.14002,-0.20712 0.34713,-0.06709 0.34713,-0.06709l0.16508,0.1116c1.64574,1.12878 0.12494,2.70082 1.52627,3.47034c-0.26161,-1.06936 -0.79662,-2.32959 -0.44327,-3.11979c-0.23388,-0.23422 -0.43296,-0.48639 -0.57301,-0.76539c-0.55677,-1.10908 0.77643,-1.54633 -0.0531,-2.69625c-1.05996,-1.46934 -0.00484,-1.54167 -0.07674,-2.69816c-0.05626,-0.90513 -2.1015,-2.08752 -1.89566,-2.97836c0.20196,-0.87399 1.23994,-0.16199 1.17339,-1.24687c-0.03459,-0.56409 -0.69536,-1.09943 -0.76695,-1.73534c-0.34779,-0.47678 -0.26231,-1.09268 -0.17402,-1.67796c-0.06033,-0.04809 -0.12073,-0.08663 -0.18166,-0.11248c0,0 -0.22529,-0.10836 -0.11692,-0.33366c0.10836,-0.22529 0.33366,-0.11692 0.33366,-0.11692c0.01186,0.00618 0.02388,0.01312 0.03606,0.02078c0.0313,-0.36739 0.00267,-0.69692 -0.21508,-0.93764l-0.03844,-0.0515c0,0 -0.14955,-0.20034 0.05078,-0.34989c0.20034,-0.14955 0.34989,0.05078 0.34989,0.05078l0.03844,0.0515c0.31986,0.48246 0.24946,1.02939 0.17333,1.57832c0.40004,0.45765 0.88559,1.14023 1.34634,1.07993c0.27799,-0.03639 0.48142,-1.09561 0.68864,-1.22382c1.17344,-0.72607 3.3482,0.20349 4.61601,-1.13426c0.85854,-0.37986 2.01829,-0.61254 2.79834,-1.10593c0.62726,-0.39675 0.91074,-1.35366 1.32179,-1.96098c-0.36203,-0.57713 -0.79398,-1.12917 -1.16943,-1.70584c-0.0451,-0.00719 -0.0766,-0.02234 -0.0766,-0.02234c-2.25293,-1.08364 -4.50587,-2.16728 -6.7588,-3.25093l-0.45059,-0.21673c0,0 -0.22529,-0.10836 -0.11692,-0.33366c0.10836,-0.22529 0.33366,-0.11692 0.33366,-0.11692c2.06337,0.99247 4.5047,2.16672 6.63167,3.18977c-0.10894,-0.21678 -0.20382,-0.43941 -0.27886,-0.67015c-0.25442,-0.79354 -0.50884,-1.5871 -0.76326,-2.38063l-0.01281,-0.03996c0,0 -0.07633,-0.23807 0.16174,-0.31439c0.23807,-0.07633 0.31439,0.16174 0.31439,0.16174c0.25442,0.79354 0.52164,1.62704 0.77606,2.42059c0.33528,1.06312 1.14537,1.94901 1.76025,2.89575c0.02819,-0.02039 0.05714,-0.03897 0.08695,-0.05561c1.93947,-1.08255 2.02547,2.89858 2.94456,2.44549c0.73654,-0.27238 2.84903,-1.65047 3.51978,-0.94666c0.33955,0.35629 0.22903,1.67301 0.24998,2.1405c0.0625,1.39484 0.38841,3.36292 1.58093,4.30772c0.16051,0.13169 0.40988,0.33662 0.67131,0.57434c0.60975,-0.37631 1.23921,-0.71656 1.73879,-1.10127c0.50141,-0.38611 0.81712,-1.56098 1.08795,-2.1225l0.48121,-0.3133c0,0 0.22009,-0.11858 0.33866,0.10152c0.11858,0.22009 -0.10152,0.33866 -0.10152,0.33866l-0.268,0.09034c-0.31624,0.65566 -0.64765,1.83755 -1.23007,2.29896c-0.45307,0.35893 -1.07992,0.68256 -1.69266,1.0459c0.36929,0.37283 0.69167,0.77575 0.73821,1.08835c0.15538,1.04383 -1.31714,2.11063 -1.10401,3.28635c0.29741,1.64064 1.98882,2.46913 1.2234,4.13369c-1.57949,3.43348 -3.1529,7.0618 -7.36398,5.32842c-0.32499,-0.50316 -1.10625,1.68273 -1.73176,2.41672c0.22969,0.27532 0.44031,0.5485 0.35769,1.03883c-0.22949,1.36176 -1.02634,1.63976 0.2428,2.82847c0.54302,0.51335 1.47593,1.09015 1.9016,1.66556c0.52979,0.71614 -0.1071,1.80135 -0.0874,2.59591c0.02115,0.85285 0.84549,1.86618 1.1746,2.64563l0.15952,0.4354c0,0 0.08585,0.2348 -0.14894,0.32065c-0.2348,0.08585 -0.32065,-0.14894 -0.32065,-0.14894l-0.15064,-0.41282c-0.36583,-0.86878 -1.17086,-1.8669 -1.21355,-2.8219c-0.02414,-0.53972 0.578,-1.86683 0.195,-2.30361c-0.49204,-0.56114 -1.28974,-1.08001 -1.85301,-1.61251c-1.6586,-1.58079 0.16847,-2.29373 -0.39388,-3.65163c-0.0503,-0.12146 -0.10774,-0.23352 -0.16875,-0.33956c-1.86102,0.89223 -3.02769,-2.16932 -4.34177,-2.11239c-0.61874,0.02681 -0.67687,0.49562 -1.44763,0.30226c-1.61206,-0.47093 -0.84425,-1.93395 -1.83123,-2.86178c-0.56116,-0.52753 -1.37721,-0.99606 -2.0475,-1.55201c-0.09826,0.23641 -0.16721,0.44855 -0.15957,0.59801c0.07613,1.4907 1.414,2.15599 0.71936,3.76015l-0.01246,0.02877c0,0 -0.09936,0.22941 -0.32876,0.13006c-0.22941,-0.09936 -0.13006,-0.32876 -0.13006,-0.32876l0.01246,-0.02877c0.10244,-0.23647 0.10971,-0.53101 0.06475,-0.85918c-0.09872,0.03437 -0.19859,-0.01366 -0.19859,-0.01366c-1.93916,-0.96153 -0.05196,-2.46532 -1.71175,-3.56826l-0.16508,-0.1116c0,0 -0.20712,-0.14002 -0.06709,-0.34713z" fill="#000000" stroke-width="0.5"/></g><path d="M-15.5,30v-60h751v60z" fill="#000000" stroke-opacity="0.50196" stroke="#0d0d0d" stroke-width="0"/><path d="M-15.5,390v-60h751v60z" fill="#000000" stroke-opacity="0.50196" stroke="#0d0d0d" stroke-width="0"/><g stroke-width="0"><g stroke="#000000"><path d="M-7.50751,364.00104v-372.37237h735.015v372.37237z" fill="url(#color-1)"/><path d="M-7.5075,364.00104v-372.37237h735.015v372.37237z" fill="url(#color-2)"/></g><g stroke="none"><path d="M-5.24206,376.25329v-390.39039h155.90105v390.39039z" fill="url(#color-3)"/><path d="M571.60646,373.01003v-390.39039h155.90105v390.39039z" fill="url(#color-4)"/><path d="M-6.53233,110.48753v-127.62762h733.55954v127.62763z" fill="url(#color-5)"/><path d="M726.05204,249.75283v127.62762h-733.55954v-127.62762z" fill="url(#color-6)"/></g></g></g></g></svg>