<svg version="1.1" xmlns="http://www.w3.org/2000/svg" xmlns:xlink="http://www.w3.org/1999/xlink" width="151.5" height="147" viewBox="0,0,151.5,147"><defs><linearGradient x1="360" y1="106.5" x2="360" y2="253.5" gradientUnits="userSpaceOnUse" id="color-1"><stop offset="0" stop-color="#000000"/><stop offset="1" stop-color="#272727"/></linearGradient><linearGradient x1="360" y1="106.5" x2="360" y2="253.5" gradientUnits="userSpaceOnUse" id="color-2"><stop offset="0" stop-color="#000000" stop-opacity="0"/><stop offset="1" stop-color="#000000"/></linearGradient></defs><g transform="translate(-284.25,-106.5)"><g data-paper-data="{&quot;isPaintingLayer&quot;:true}" fill-rule="nonzero" stroke-linecap="butt" stroke-linejoin="miter" stroke-miterlimit="10" stroke-dasharray="" stroke-dashoffset="0" style="mix-blend-mode: normal"><path d="M284.25,253.5v-147h151.5v147z" fill="url(#color-1)" stroke="none" stroke-width="NaN"/><g><g stroke="none" stroke-width="0.5"><path d="M354.03143,231.4613c-6.91626,1.5499 -14.00792,1.80434 -20.93983,-0.57229c-11.70174,-6.43489 -19.42886,-21.73901 -12.7355,-34.76715c1.99124,-3.87582 5.61941,-6.38732 8.63698,-9.35274c0.2211,-0.21728 2.31686,-2.26016 2.29432,-3.05876c-0.05761,-2.04138 -2.12897,-5.33738 -3.05995,-7.07977c-2.39124,-7.17687 -6.13889,-12.24195 -14.09701,-13.27128c-4.95753,-0.64123 -11.57952,1.47603 -16.1518,-1.1152c-1.5218,-0.86244 -3.41939,-1.77946 -3.96018,-3.44294c-1.25116,-3.84861 3.03937,-8.00683 6.41633,-10.54708c0.01432,-2.50854 2.62235,-2.74968 2.62235,-2.74968c6.54006,-0.60031 13.0197,-0.82991 19.21427,1.85358c3.60278,1.56072 4.60858,4.00275 7.2538,6.49235c1.59257,1.4989 3.55984,2.71781 4.68507,4.59314c3.75337,6.25542 5.22267,14.38123 6.41597,21.45648c-0.27201,0.4094 -0.74598,0.7417 -0.81601,1.2282c-0.05413,0.37613 0.40595,-0.71398 0.76135,-0.84847c0.86614,-0.32776 1.82436,-0.31975 2.73725,-0.47548c3.75244,-0.64015 5.52838,-1.71448 8.2771,-3.84577c-0.34834,-0.26327 -0.70578,-0.56768 -1.07331,-0.91537c-1.09832,-1.03901 -0.95328,-2.87035 -1.37589,-4.32198c-1.17008,-4.01905 -2.0342,-8.16251 -3.02814,-12.22879c-1.3559,-8.0587 -8.36304,-16.62654 -5.58945,-25.0536c0.40555,-1.2322 0.92211,-2.26827 1.5239,-3.12156c-0.38986,-0.40295 -0.66651,-0.92361 -0.76791,-1.51803c-0.20562,-1.2053 0.36907,-2.36336 1.3577,-2.9571l2.47763,-1.56636l0.10413,0.16471l0.30111,-0.3779c6.58415,-1.61555 9.93478,-0.25238 13.5818,5.45812c0.02782,0.10745 0.05497,0.21476 0.08148,0.32191c2.11145,2.7738 3.3325,6.23939 4.47684,9.66667l0.53336,2.92713c0,0 0.42942,2.51718 -1.88916,3.21748c0.31181,2.60334 0.27584,5.27396 -0.06391,7.98243c0.43352,3.44025 0.63973,6.88798 0.10591,10.39361c-0.40787,2.67864 -0.33144,6.73473 -1.80474,9.2511c2.45269,3.69965 6.36915,2.78703 10.80743,4.48202c4.36534,1.66713 10.49979,5.6482 13.5724,9.1972c3.73718,4.31662 4.37935,11.20921 4.82607,16.60402c-1.45611,6.64048 -3.46298,13.90404 -9.53648,18.10949c-3.3908,2.34788 -8.07953,3.43908 -11.86465,5.02011c-1.86357,0.77841 -3.76109,1.52808 -5.68463,2.21752c0.38175,0.96966 0.74485,1.94625 1.11519,2.9215c-0.54195,0.15083 -1.06844,0.2918 -1.57151,0.40749c-0.80064,0.18413 -4.11904,0.46349 -7.42111,1.08717c-0.36823,-0.08542 -0.74503,-0.14438 -1.12788,-0.17508c0.16849,-0.54083 0.29622,-1.1044 0.37928,-1.69108z" fill="#ffffff"/><path d="M318.331,220.66075c-1.83166,-3.13529 -3.04279,-5.95357 -3.68161,-9.52143c-1.36968,-8.44592 1.67989,-15.21276 6.08683,-22.17263c1.20288,-1.89969 2.26659,-3.98551 3.96932,-5.45401c0.72891,-0.62865 1.48003,-1.22238 2.25083,-1.78348c-0.022,-0.16586 -0.02368,-0.26825 -0.02368,-0.26825c-0.01341,-1.00542 0.07357,-3.8882 -0.36274,-5.00263c-0.21334,-0.54494 -2.87904,-4.10969 -3.03412,-4.31642c-5.81306,-7.74932 -14.58934,-6.06738 -23.02352,-7.01041c-5.46234,-0.61076 -11.8433,-3.39399 -10.88584,-9.9859c0.19352,-1.33242 1.23508,-2.39288 1.85261,-3.58932c3.22516,-4.07834 6.2545,-6.37885 11.06305,-8.34973c4.31518,-1.76866 8.45328,-3.26799 13.21931,-2.94495c14.80856,1.00368 24.47239,17.89868 26.69376,30.91992c0.10271,1.13296 0.1635,2.27136 0.1815,3.41032c0.88749,-0.24182 1.77923,-0.46636 2.67301,-0.67566c-0.97626,-3.45962 -1.63568,-7.00591 -2.73271,-10.42233c-2.54261,-7.91829 -7.02035,-16.03823 -7.46189,-24.49021c-0.19495,-3.73182 1.04026,-6.84581 2.3869,-10.21846c0.45209,-1.13225 0.56006,-2.45331 1.30914,-3.41519c1.80176,-2.31358 4.32846,-3.01967 6.85314,-4.07583c2.96549,-0.5059 4.67877,-1.10084 7.70859,-0.40481c7.25083,1.66571 11.60313,9.63962 12.78586,16.43257c1.4923,8.57091 0.07598,16.33853 -0.79445,24.7825c-0.36279,3.5193 -0.66705,6.78073 -1.30613,10.17528c3.00826,0.34333 5.84305,1.35497 8.79341,2.05009c4.90115,2.39462 10.37534,4.92064 13.75623,9.37828c2.88944,3.80965 3.72281,8.37814 4.18174,13.01381c0.45674,4.61371 1.11279,9.18974 0.02477,13.78953c-2.06446,8.72793 -10.79815,15.18111 -18.27217,19.11872c-1.40376,0.36127 -2.85735,0.73018 -4.34956,1.09345c-0.98156,0.16813 -1.97902,0.42676 -2.95136,0.69656c-0.49885,0.11365 -1.001,0.2258 -1.50606,0.336c0.00718,0.02702 0.01436,0.05406 0.02156,0.08109c-0.53634,0.14916 -1.05744,0.2885 -1.55557,0.40306c-0.80064,0.18413 -4.11904,0.46349 -7.42111,1.08717c-0.97673,-0.22659 -2.01372,-0.26693 -3.064,-0.08776c-0.76102,0.12983 -1.47724,0.36607 -2.13601,0.69087c-12.36017,0.87965 -24.42298,-1.58561 -31.24901,-13.26982zM359.17249,178.24285c-0.1705,-0.06227 -0.32636,-0.13137 -0.46871,-0.20617c-1.68736,0.12351 -3.37692,0.30132 -5.05455,0.32997l0.2104,-0.00189c0,0 -0.57883,0.09875 -1.25858,-0.05414c-0.22316,0.07297 -0.37155,0.09828 -0.37155,0.09828c-8.51839,1.4532 -16.95332,3.86027 -23.79329,9.49951c-1.67033,1.37711 -1.64659,2.27006 -2.81854,4.12616c-3.57413,5.66064 -6.54423,11.20259 -5.28492,18.13516c0.46091,2.88829 1.5084,5.05747 2.98076,7.5901c9.50415,16.34817 32.53576,10.04426 47.15329,6.49127c5.62979,-3.06621 13.25261,-8.32773 14.73383,-15.05387c0.87926,-3.99265 0.23794,-7.91889 -0.14927,-11.9153c-0.34155,-3.52524 -0.81947,-7.18027 -3.03429,-10.08596c-2.67683,-3.51181 -7.25872,-5.49887 -11.10355,-7.43625c-2.73337,-0.60923 -5.37208,-1.65697 -8.18716,-1.81194c-0.29264,-0.01611 -0.58569,-0.02561 -0.87908,-0.02959c-0.58884,0.46716 -1.45837,0.76892 -2.67479,0.32465zM360.47275,138.27591c-1.20307,-7.23571 -5.6365,-12.73531 -13.20204,-11.44466c-10.94757,4.5651 -4.76159,20.48348 -1.69559,28.64937c1.14379,3.04636 1.42683,2.93927 2.49942,6.27609c1.16166,3.61392 1.82513,7.37186 2.90257,11.01743c0.09431,-0.01631 0.18858,-0.03251 0.28283,-0.04859c0,0 0.57883,-0.09875 1.25858,0.05414c0.22316,-0.07297 0.37155,-0.09828 0.37155,-0.09828l0.66507,-0.07946c1.538,-0.02386 3.08024,-0.16666 4.62244,-0.2851c2.43379,-10.82488 4.12198,-23.05392 2.29519,-34.04094zM336.73883,171.93225c-1.74385,-10.22212 -9.48264,-25.14418 -21.37047,-25.91861c-3.86728,-0.25194 -7.15036,1.10904 -10.64539,2.52997c-3.71261,1.5094 -5.95269,3.05502 -8.44479,6.20783c-1.81605,2.83972 -0.54581,3.11184 2.49795,4.09809c4.62485,1.49856 10.03913,0.36692 14.86681,1.29512c9.71665,1.86819 17.32993,8.73508 18.8009,18.25909c1.43747,-0.7226 2.91548,-1.36631 4.4219,-1.94246c0.0527,-1.51025 0.01544,-3.02609 -0.12691,-4.52903z" fill="#c3c3c3"/><path d="M340.26892,207.81678c-0.16737,-0.98109 2.6743,-1.46587 2.6743,-1.46587l2.27334,-0.38782c1.12126,-0.18935 2.24801,-0.35688 3.3722,-0.50416c-0.31236,-1.47376 -0.7912,-2.91498 -1.6966,-4.27253c0,0 -0.59753,-0.89597 2.18565,-1.52429c2.78318,-0.62832 3.38071,0.26764 3.38071,0.26764c1.93455,2.90102 2.02,6.15607 2.5612,9.32842l-0.28006,0.60937c0,0 -0.73984,1.08405 -3.48861,1.2337c-2.74878,0.14965 -2.00894,-0.93439 -2.00894,-0.93439l0.09427,0.06088c-0.15832,-0.92803 -0.27321,-1.86467 -0.40817,-2.79743c-1.12446,0.1373 -2.25491,0.30121 -3.37689,0.49498l-2.27334,0.38782c0,0 -2.84167,0.48478 -3.00904,-0.49631z" fill="#c3c3c3"/><path d="M369.36244,201.96249c0.85158,0.83422 -1.86466,1.54248 -1.86466,1.54248l-2.3631,0.6083c-0.6432,0.19966 -1.2864,0.39932 -1.92959,0.59898c0.209,0.7165 0.40812,1.43595 0.53336,2.17005l0.08034,0.47092c0,0 0.16737,0.98109 -2.6743,1.46587c-2.84167,0.48478 -3.00904,-0.49631 -3.00904,-0.49631l-0.08034,-0.47092c-0.48049,-2.81655 -1.93631,-5.41982 -1.17099,-8.43478c0,0 0.26667,-1.0434 3.10075,-1.37336c2.83408,-0.32996 2.5674,0.71344 2.5674,0.71344c-0.35328,1.3722 -0.21067,2.65712 0.08676,3.91716c0.04767,-0.01479 0.09534,-0.0296 0.14301,-0.04439l3.01258,-0.7934c0,0 2.71624,-0.70826 3.56782,0.12597z" fill="#c3c3c3"/><path d="M367.27084,219.57191c-1.42084,0.24239 -1.66322,-1.17845 -1.66322,-1.17845l-0.03878,-0.22733c-0.30872,-1.80967 -1.30059,-4.43359 0.37403,-5.98661c1.50815,-1.39864 3.41613,-0.0006 4.932,-0.6815c0.44688,-0.20073 0.26198,-3.50248 1.47215,-4.26988c1.17973,-0.7481 4.01934,-0.03227 5.41131,-0.07537c0,0 1.44084,-0.03903 1.47985,1.40181c0.03901,1.44084 -1.40181,1.47985 -1.40181,1.47985c-0.92336,0.02195 -3.15205,-0.57783 -3.99229,-0.34275c-0.65227,0.18249 0.19243,1.38857 -0.01954,2.03185c-0.25895,0.78585 -0.61816,1.63145 -1.28174,2.12569c-1.478,1.10084 -3.44091,-0.19486 -4.69358,0.4927c-0.17115,0.09393 0.5503,3.27482 0.56132,3.33942l0.03878,0.22733c0,0 0.24239,1.42084 -1.17845,1.66322z" data-paper-data="{&quot;index&quot;:null}" fill="#c3c3c3"/><path d="M362.83187,229.26835c2.56964,-0.82559 3.50638,1.52769 3.61534,1.83098c-1.4803,0.37126 -2.94191,0.84102 -4.24608,1.14095c-0.23981,0.05515 -0.7055,0.11885 -1.32897,0.19778c-0.11704,-0.8187 -0.08697,-2.51215 1.9597,-3.16972z" fill="#c3c3c3"/><path d="M354.48262,231.12219c0,0 2.43663,-1.54044 3.97707,0.89619c0.14911,0.23586 0.26095,0.46332 0.34135,0.6818c-1.21396,0.15973 -2.61896,0.36247 -4.02102,0.62728c-0.97673,-0.22659 -2.01372,-0.26693 -3.064,-0.08776c-0.12342,0.02105 -0.24566,0.04491 -0.36666,0.07148c1.03133,-0.76698 2.06802,-1.51473 3.13326,-2.189z" fill="#c3c3c3"/><path d="M328.1794,218.99845c-0.13387,-0.78471 0.39374,-1.52936 1.17845,-1.66322c0.78471,-0.13387 1.52936,0.39374 1.66322,1.17845c0.13387,0.78471 -0.39374,1.52936 -1.17845,1.66322c-0.78471,0.13387 -1.52936,-0.39374 -1.66322,-1.17845z" fill="#c3c3c3"/><path d="M332.33825,215.94946c-0.13387,-0.78471 0.39374,-1.52936 1.17845,-1.66322c0.78471,-0.13387 1.52936,0.39374 1.66322,1.17845c0.13387,0.78471 -0.39374,1.52936 -1.17845,1.66322c-0.78471,0.13387 -1.52936,-0.39374 -1.66322,-1.17845z" fill="#c3c3c3"/><path d="M332.31555,219.93049c-0.13387,-0.78471 0.39374,-1.52936 1.17845,-1.66322c0.78471,-0.13387 1.52936,0.39374 1.66322,1.17845c0.13387,0.78471 -0.39374,1.52936 -1.17845,1.66322c-0.78471,0.13387 -1.52936,-0.39374 -1.66322,-1.17845z" fill="#c3c3c3"/></g><g><path d="M371.02632,236.06685l18.3223,-110.15945l22.15914,6.14422l-36.75714,107.37597z" fill="#5a3a16" stroke="none" stroke-width="0"/><path d="M352.34466,180.78218l5.79442,-45.62389l72.33057,9.18627l-5.79442,45.62389z" fill="#d8d8d8" stroke="#6c3939" stroke-width="0"/><text transform="translate(357.06052,160.22106) rotate(9.29396) scale(0.28043,0.28043)" font-size="40" xml:space="preserve" fill="#000000" fill-rule="nonzero" stroke="none" stroke-width="1" stroke-linecap="butt" stroke-linejoin="miter" stroke-miterlimit="10" stroke-dasharray="" stroke-dashoffset="0" font-family="&quot;GovtAgentBB&quot;, Serif" font-weight="normal" text-anchor="start" style="mix-blend-mode: normal"><tspan x="0" dy="0">I will be back</tspan></text></g></g><path d="M284.25,253.5v-147h151.5v147z" fill="url(#color-2)" stroke="none" stroke-width="NaN"/></g></g></svg>