<svg version="1.1" xmlns="http://www.w3.org/2000/svg" xmlns:xlink="http://www.w3.org/1999/xlink" width="202.23335" height="225.73187" viewBox="0,0,202.23335,225.73187"><g transform="translate(-199.13335,-66.00636)"><g data-paper-data="{&quot;isPaintingLayer&quot;:true}" fill-rule="nonzero" stroke="none" stroke-linecap="butt" stroke-linejoin="miter" stroke-miterlimit="10" stroke-dasharray="" stroke-dashoffset="0" style="mix-blend-mode: normal"><path d="M369.24913,112.76178c0,3.77772 8.8279,14.78217 6.49499,18.66959c-3.03879,5.06366 -27.1988,2.58041 -30.24499,2.58041c-5.38477,0 4.25,-12.55151 4.25,-21.25c0,-8.69849 10.36523,-19.25 15.75,-19.25c5.38477,0 3.75,10.55151 3.75,19.25z" fill="#d0d0d0" stroke-width="0"/><path d="M351.11578,118.76178c-14.08326,0 -17.5,-10.91674 -17.5,-25c0,-14.08326 7.41674,-25.5 21.5,-25.5c14.08326,0 21.5,10.91674 21.5,25c0,14.08326 -11.41674,25.5 -25.5,25.5z" fill="#ffffff" stroke-width="0"/><g fill="#ffffff" stroke-width="0"><path d="M323.28216,143.42917c1.58657,-9.50703 5.15288,-3.88805 8.01821,-3.88805c2.13659,0 6.14195,-4.63426 7.65692,1.04971c1.89445,7.10777 1.0494,25.80708 1.0494,37.69789c0,21.39971 -3.38582,26.34837 -8.19419,26.34837c-4.80836,0 -9.21846,-4.94866 -9.21846,-26.34837c0,-8.64751 -0.38777,-28.41266 0.68811,-34.85955z"/><path d="M340.85447,216.31806c-3.06734,0.93981 -9.48732,5.66587 -13.51499,2.64267c-3.75063,-2.81526 -5.22091,-13.28157 -5.37222,-15.37294c-0.49354,-6.8218 3.6747,-12.83629 9.31003,-13.43375c1.15394,-0.12234 6.00258,-1.80483 10.11969,-0.02745c4.48791,1.93747 6.05139,15.22277 5.28196,16.29224c-3.90368,5.42593 -4.58666,-8.89684 -4.30434,-4.99463c0.17976,2.48457 1.87323,13.85416 -1.52013,14.89386z"/></g><path d="M343.02588,279.25895c-2.755,-27.78698 -5.74796,-93.01802 4.9859,-99.03689c4.62214,-2.5918 25.40579,-1.26726 30.02621,2.12348c7.00597,5.14139 4.43431,66.38745 6.25064,88.47906c1.74242,21.1926 -13.7025,18.02681 -16.95613,13.22271c-4.19089,-6.188 -5.14747,-73.35724 -5.14747,-73.35724c0,0 1.99237,68.56324 -1.60167,73.67126c-3.85017,5.47204 -16.54656,5.09372 -17.55748,-5.10238z" fill="#2e2e2e" stroke-width="0"/><path d="M318.63336,145.19658c0,-9.38884 5.88474,-17 13.14394,-17c7.2592,0 6.57197,9.61116 6.57197,19c0,9.38884 -19.71591,7.38884 -19.71591,-2z" fill="#0e0e22" stroke-width="0"/><path d="M328.50003,141.76178c0,-20.5726 13.34697,-18.75 30.86149,-18.75c17.51452,0 32.13851,-5.8226 32.13851,14.75c0,5.52878 -8.80686,60.36063 -15.46143,63.34026c-9.79723,4.38678 -19.8992,3.84259 -31.01503,1.87189c-9.42827,-1.67151 -16.52355,-54.30811 -16.52355,-61.21215z" fill="#131430" stroke-width="0"/><path d="M344.36252,95.3853c0,4.43639 -1.10845,8.03279 -2.47577,8.03279c-1.36733,0 -3.46219,-3.5964 -3.46219,-8.03279c0,-4.43639 2.09486,-8.03279 3.46219,-8.03279c1.36733,0 2.47577,3.5964 2.47577,8.03279z" fill="#000000" stroke-width="0"/><path d="M333.55609,285.74374c0,-7.99265 6.47932,-14.47197 14.47197,-14.47197c3.0553,0 10.22235,6.98374 10.22235,6.98374c0,0 3.42934,-4.39682 4.51817,-2.38185c1.10447,2.04394 -0.26855,7.38379 -0.26855,9.87008c0,7.99265 -28.94394,7.99265 -28.94394,0z" fill="#000000" stroke-width="0"/><path d="M365.58775,285.74374c0,-2.48629 -1.37302,-7.82614 -0.26855,-9.87008c1.08882,-2.01497 4.51817,2.38185 4.51817,2.38185c0,0 7.16706,-6.98374 10.22235,-6.98374c7.99265,0 14.47197,6.47932 14.47197,14.47197c0,7.99265 -28.94394,7.99265 -28.94394,0z" fill="#000000" stroke-width="0"/><path d="M338.08574,71.74643c4.96762,-5.66046 15.66905,-6.84158 25.48705,-4.81942c4.57664,0.94263 6.47001,4.6031 8.18156,5.55536c9.28136,5.1639 4.86143,11.86598 4.86143,20.77942c0,7.47646 7.42737,15.26287 -4.66066,11.30699c-1.75995,-0.57595 -4.98332,-15.23474 -9.26456,-19.87434c-5.87928,-6.3714 -13.33616,-3.03103 -17.93745,-1.98497c-4.13311,0.93963 -8.55527,4.13245 -11.24279,4.29865c-5.36543,0.33179 -7.93217,-7.97235 4.57541,-15.26168z" fill="#2d0b02" stroke-width="0"/><path d="M347.03501,124.22439c-11.01116,0.42357 -16.65461,-11.03769 -12.54824,-16.5438c0.49568,-0.66464 0.20393,-1.98774 1.02101,-0.76008c9.59558,14.41729 24.18414,4.04201 28.77965,0.89226c9.14108,-6.26526 11.45082,-22.17174 12.5251,-18.28924c5.31224,19.19875 -15.70467,34.1595 -29.77752,34.70085z" fill="#2d0b02" stroke-width="0"/><path d="M355.22099,94.89209c0,4.43639 -1.60166,8.526 -2.96898,8.526c-1.36733,0 -2.47577,-3.5964 -2.47577,-8.03279c0,-4.43639 1.10844,-8.03279 2.47577,-8.03279c1.36733,0 2.96898,3.10319 2.96898,7.53958z" fill="#000000" stroke-width="0"/><path d="M359.09261,145.68048c0,-4.99386 4.04833,-9.04218 9.04219,-9.04218c4.99386,0 9.04218,4.04832 9.04218,9.04218c0,4.99386 -4.04832,9.04218 -9.04218,9.04218c-4.99386,0 -9.04219,-4.04832 -9.04219,-9.04218z" fill="#212251" stroke-width="0"/><text transform="translate(361.3142,149.66875) scale(0.27443,0.27443)" font-size="40" xml:space="preserve" fill="#090915" fill-rule="nonzero" stroke="none" stroke-width="1" stroke-linecap="butt" stroke-linejoin="miter" stroke-miterlimit="10" stroke-dasharray="" stroke-dashoffset="0" font-family="&quot;Agency FB&quot;, Sans Serif" font-weight="normal" text-anchor="start" style="mix-blend-mode: normal"><tspan x="0" dy="0">ASC</tspan></text><path d="M382.27347,200.03788c0,1.45276 -10.86437,5.91852 -22.44105,5.91852c-11.57668,0 -20.13941,-2.98613 -20.13941,-4.43889c0,-0.54217 -2.6359,-5.28283 -0.39558,-5.70146c3.76267,-0.7031 14.26516,1.92019 21.5214,1.92019c8.23172,0 16.59098,-2.85886 20.16435,-2.08854c1.45204,0.31302 1.29028,3.97043 1.29028,4.39019z" fill="#141414" stroke-width="0"/><g fill="#ffffff" stroke-width="0"><path d="M400.70024,178.28873c0,21.39971 -4.41009,26.34837 -9.21846,26.34837c-4.80836,0 -8.19419,-4.94866 -8.19419,-26.34837c0,-11.89082 -0.84505,-30.59013 1.0494,-37.69789c1.51497,-5.68397 5.52033,-1.04971 7.65692,-1.04971c2.86533,0 6.43164,-5.61898 8.01821,3.88805c1.07588,6.4469 0.68811,26.21204 0.68811,34.85956z"/><path d="M380.91969,201.4242c0.28232,-3.90221 -0.40065,10.42056 -4.30434,4.99463c-0.76943,-1.06947 0.79406,-14.35477 5.28196,-16.29224c4.1171,-1.77739 8.96575,-0.09489 10.11969,0.02745c5.63533,0.59745 9.80358,6.61195 9.31003,13.43375c-0.15131,2.09137 -1.6216,12.55769 -5.37222,15.37294c-4.02766,3.0232 -10.44765,-1.70287 -13.51499,-2.64267c-3.39337,-1.0397 -1.69989,-12.40929 -1.52013,-14.89386z"/></g><path d="M374.00639,200.35635c0.2009,1.2822 0.75512,3.8024 0.01887,4.84141c-0.89729,1.26627 -3.27414,0.94611 -5.04316,1.22328c-1.69587,0.26571 -4.0819,0.78751 -5.30739,-0.06639c-1.10179,-0.76771 -1.12,-2.82417 -1.33102,-4.17098c-0.24607,-1.57054 -0.9847,-3.79924 0.12201,-4.94063c0.89795,-0.92609 3.45969,-0.89803 4.90228,-1.12405c1.55186,-0.24315 3.62446,-0.72201 4.80608,-0.01253c1.27061,0.7629 1.60139,2.77586 1.83234,4.24989z" fill="#4c4c4c" stroke-width="0"/><path d="M333.83162,113.02122c0,-5.36505 6.00061,-9.71429 13.40274,-9.71429c7.40213,0 13.40274,4.34923 13.40274,9.71429c0,5.36505 -6.00061,9.71429 -13.40274,9.71429c-7.40213,0 -13.40274,-4.34923 -13.40274,-9.71429zM355.53574,111.87837c0,-2.76142 -2.81,-5.71429 -10,-5.42857c-2.75925,0.10965 -6,2.09572 -6,4.85714c0,1.34825 2.95698,3.74587 6.86078,3.91699c4.09178,0.17936 9.13922,-1.93239 9.13922,-3.34556z" fill="#2d0b02" stroke-width="0"/><path d="M381.65079,145.19658c0,-9.38884 -0.68723,-19 6.57198,-19c7.2592,0 13.14394,7.61116 13.14394,17c0,9.38884 -19.71591,11.38884 -19.71591,2z" fill="#13132d" stroke-width="0"/><g fill="#ffffff" stroke-width="0"><path d="M199.79983,179.41645c0,-8.64752 -0.38777,-28.41266 0.68811,-34.85956c1.58657,-9.50703 5.15288,-3.88805 8.01821,-3.88805c2.13659,0 6.14195,-4.63426 7.65692,1.04971c1.89445,7.10776 1.0494,25.80707 1.0494,37.69789c0,21.39971 -3.38583,26.34837 -8.19419,26.34837c-4.80837,0 -9.21846,-4.94866 -9.21846,-26.34837z"/><path d="M218.06024,217.44577c-3.06734,0.9398 -9.48733,5.66587 -13.51499,2.64267c-3.75062,-2.81525 -5.22091,-13.28157 -5.37222,-15.37294c-0.49355,-6.8218 3.6747,-12.8363 9.31003,-13.43375c1.15394,-0.12234 6.00259,-1.80484 10.11969,-0.02745c4.4879,1.93747 6.05139,15.22277 5.28196,16.29224c-3.90369,5.42593 -4.58666,-8.89684 -4.30434,-4.99463c0.17976,2.48457 1.87324,13.85416 -1.52013,14.89386z"/></g><path d="M218.84926,146.32429c0,9.38884 -19.71591,7.38884 -19.71591,-2c0,-9.38884 5.88474,-17 13.14394,-17c7.25921,0 6.57198,9.61116 6.57198,19z" fill="#13132d" stroke-width="0"/><g stroke-width="0"><path d="M223.88427,94.38949c0,-14.08326 7.41674,-25 21.5,-25c14.08326,0 21.5,11.41674 21.5,25.5c0,14.08326 -3.41674,25 -17.5,25c-14.08326,0 -25.5,-11.41674 -25.5,-25.5z" fill="#ffffff"/><path d="M243.68754,90.40124c1.07428,-3.8825 0.63402,-10.47602 9.7751,-4.21076c4.59551,3.14975 1.93407,36.27503 11.52965,21.85774c0.81708,-1.22766 0.52533,0.09544 1.02101,0.76008c4.10637,5.50611 -5.28708,11.96737 -16.29824,11.5438c-11.01116,-0.42357 -11.33976,-10.75211 -6.02752,-29.95086z" fill="#2d0b02"/><path d="M250.75094,108.55066c0,10.82302 9.63477,26.44012 4.25,26.44012c-3.04619,0 -27.2062,3.08977 -30.24499,-3.21065c-2.33291,-4.83689 6.49499,-18.52908 6.49499,-23.22948c0,-10.82302 19.5,-10.82302 19.5,0z" fill="#d0d0d0"/><path d="M262.41434,72.87415c12.50758,7.28933 9.94084,15.59347 4.57541,15.26168c-2.68752,-0.1662 -1.35968,-0.85902 -5.49279,-1.79865c-4.60129,-1.04606 -3.55817,17.11357 -9.43745,23.48497c-4.28124,4.6396 -25.75461,1.29839 -27.51456,1.87434c-12.08803,3.95588 -1.91066,-9.83053 -1.91066,-17.30699c0,-8.91344 -3.16993,-15.61552 6.11143,-20.77942c1.71155,-0.95226 3.60492,-4.61273 8.18156,-5.55536c9.818,-2.02216 20.51943,-0.84104 25.48705,4.81942z" fill="#2d0b02"/></g><path d="M221.09724,280.05332c-2.755,-27.78698 -5.74796,-93.01802 4.9859,-99.03689c4.62214,-2.5918 25.40579,-1.26726 30.02621,2.12348c7.00597,5.14139 4.43431,66.38745 6.25064,88.47906c1.74242,21.1926 -13.7025,18.02681 -16.95613,13.22271c-4.19089,-6.188 -5.14747,-73.35724 -5.14747,-73.35724c0,0 1.99237,68.56324 -1.60167,73.67126c-3.85017,5.47204 -16.54656,5.09372 -17.55748,-5.10238z" fill="#2e2e2e" stroke-width="0"/><path d="M272.00005,142.88949c0,6.90404 -7.09528,59.54064 -16.52355,61.21215c-11.11583,1.9707 -21.2178,2.51489 -31.01503,-1.87189c-6.65457,-2.97963 -15.46143,-57.81148 -15.46143,-63.34026c0,-20.5726 14.62399,-14.75 32.13851,-14.75c17.51452,0 30.86149,-1.8226 30.86149,18.75z" fill="#131430" stroke-width="0"/><path d="M218.22659,201.1656c0,-0.41976 -0.16176,-4.07717 1.29028,-4.39019c3.57337,-0.77032 11.93263,2.08854 20.16435,2.08854c7.25624,0 17.75873,-2.62329 21.5214,-1.92019c2.24032,0.41863 -0.39558,5.15929 -0.39558,5.70146c0,1.45276 -8.56273,4.43889 -20.13941,4.43889c-11.57668,0 -22.44105,-4.46576 -22.44105,-5.91852z" fill="#141414" stroke-width="0"/><path d="M279.88457,144.55688c1.07588,6.44689 0.68811,26.21204 0.68811,34.85955c0,21.39971 -4.4101,26.34837 -9.21846,26.34837c-4.80837,0 -8.19419,-4.94866 -8.19419,-26.34837c0,-11.89081 -0.84505,-30.59012 1.0494,-37.69789c1.51497,-5.68397 5.52033,-1.04971 7.65692,-1.04971c2.86533,0 6.43164,-5.61898 8.01821,3.88805z" fill="#ffffff" stroke-width="0"/><path d="M260.79213,202.55191c0.28232,-3.90221 -0.40066,10.42056 -4.30434,4.99463c-0.76943,-1.06947 0.79405,-14.35477 5.28196,-16.29224c4.11711,-1.77738 8.96575,-0.09489 10.11969,0.02745c5.63533,0.59746 9.80357,6.61195 9.31003,13.43375c-0.15131,2.09137 -1.62159,12.55768 -5.37222,15.37294c-4.02767,3.0232 -10.44765,-1.70286 -13.51499,-2.64267c-3.39336,-1.0397 -1.69989,-12.40929 -1.52013,-14.89386z" fill="#ffffff" stroke-width="0"/><path d="M262.15079,148.32429c0,-9.38884 -0.68723,-19 6.57197,-19c7.2592,0 13.14394,7.61116 13.14394,17c0,9.38884 -19.71591,11.38884 -19.71591,2z" fill="#0e0e22" stroke-width="0"/></g></g></svg>