<svg version="1.1" xmlns="http://www.w3.org/2000/svg" xmlns:xlink="http://www.w3.org/1999/xlink" width="829.84234" height="590.0318" viewBox="0,0,829.84234,590.0318"><defs><linearGradient x1="629.35992" y1="180" x2="333.35992" y2="180" gradientUnits="userSpaceOnUse" id="color-1"><stop offset="0" stop-color="#0d0f11"/><stop offset="1" stop-color="#050506"/></linearGradient><linearGradient x1="672.70475" y1="43.75942" x2="261.7459" y2="151.59529" gradientUnits="userSpaceOnUse" id="color-2"><stop offset="0" stop-color="#e7ff8f" stop-opacity="0.17647"/><stop offset="1" stop-color="#e7ff8f" stop-opacity="0"/></linearGradient><linearGradient x1="688.43091" y1="67.35962" x2="349.14152" y2="323.09087" gradientUnits="userSpaceOnUse" id="color-3"><stop offset="0" stop-color="#e7ff8f" stop-opacity="0.17647"/><stop offset="1" stop-color="#e7ff8f" stop-opacity="0"/></linearGradient><linearGradient x1="713.19523" y1="111.71929" x2="421.54798" y2="420.68149" gradientUnits="userSpaceOnUse" id="color-4"><stop offset="0" stop-color="#e7ff8f" stop-opacity="0.17647"/><stop offset="1" stop-color="#e7ff8f" stop-opacity="0"/></linearGradient><linearGradient x1="266.35692" y1="238.65039" x2="266.35692" y2="244" gradientUnits="userSpaceOnUse" id="color-5"><stop offset="0" stop-color="#000000"/><stop offset="1" stop-color="#000000" stop-opacity="0"/></linearGradient><linearGradient x1="634.60199" y1="181.05805" x2="592.81506" y2="181.05805" gradientUnits="userSpaceOnUse" id="color-6"><stop offset="0" stop-color="#000000"/><stop offset="1" stop-color="#000000" stop-opacity="0"/></linearGradient><linearGradient x1="-98.1476" y1="177.8148" x2="57.75346" y2="177.8148" gradientUnits="userSpaceOnUse" id="color-7"><stop offset="0" stop-color="#000000"/><stop offset="1" stop-color="#000000" stop-opacity="0"/></linearGradient><linearGradient x1="269.11249" y1="-17.14016" x2="269.11249" y2="110.48749" gradientUnits="userSpaceOnUse" id="color-8"><stop offset="0" stop-color="#000000"/><stop offset="1" stop-color="#000000" stop-opacity="0"/></linearGradient><linearGradient x1="270.08766" y1="377.38042" x2="270.08766" y2="249.75279" gradientUnits="userSpaceOnUse" id="color-9"><stop offset="0" stop-color="#000000"/><stop offset="1" stop-color="#000000" stop-opacity="0"/></linearGradient><radialGradient cx="266.02359" cy="180.33333" r="83.51952" gradientUnits="userSpaceOnUse" id="color-10"><stop offset="0" stop-color="#000000"/><stop offset="1" stop-color="#000000" stop-opacity="0"/></radialGradient></defs><g transform="translate(100.24121,40.44696)"><g stroke-miterlimit="10"><path d="M-90.0739,153v-160.3741h719.43382v160.3741z" fill="#15181c" stroke="#000000" stroke-width="0" stroke-linecap="butt"/><path d="M-90.64009,361.5015v-160.3741h719.43382v160.3741z" fill="#15181c" stroke="#000000" stroke-width="0" stroke-linecap="butt"/><path d="M182.50407,244.33333v-128h167.03904v128z" fill="#3f3f3f" stroke="#000000" stroke-width="0" stroke-linecap="butt"/><path d="M333.35992,244.5l1,-128.5l295,-116v360z" fill="url(#color-1)" stroke="none" stroke-width="0" stroke-linecap="butt"/><path d="M205.35992,117.0015l-1.03244,128.5l-304.56869,116v-360z" fill="#323a43" stroke="none" stroke-width="0" stroke-linecap="butt"/><g fill="none" stroke="#b7b7b7" stroke-width="7.5" stroke-linecap="round"><path d="M329.63169,204.58623l321.32132,114.11411"/><g><path d="M346.81637,256.06371v-43"/><path d="M387.81637,227.0637v43"/><path d="M427.81637,243.14328v43"/></g><path d="M469.81637,258.0637v43"/><path d="M510.81637,315.0637v-43"/><path d="M550.81637,288.14328v43"/><path d="M592.90346,303.20635v43"/></g><path d="M510.81637,272.06371v43" fill="none" stroke="#b7b7b7" stroke-width="7.5" stroke-linecap="round"/><g stroke="none" stroke-width="0" stroke-linecap="butt"><path d="M287.24785,37.28627l390.52461,-16.2421l-13.26502,51.08072l-432.5138,212.83094z" fill="url(#color-2)"/><path d="M329.35425,207.65532l355.14458,-163.23481l7.11299,52.29346l-319.38513,361.05171z" fill="url(#color-3)"/><path d="M382.69991,310.19288l322.77553,-220.42966l15.77388,50.36254l-254.37857,409.45908z" fill="url(#color-4)"/></g><path d="M217.3374,244v-128h98.03904v128z" fill="#000000" stroke="#000000" stroke-width="0" stroke-linecap="butt"/><path d="M217.3374,244.00001v-5.34962h98.03904v5.34961z" fill="url(#color-5)" stroke="#000000" stroke-width="0" stroke-linecap="butt"/><g stroke="none" stroke-linecap="butt"><g fill="none" stroke-width="1" font-family="sans-serif" font-weight="normal" font-size="12" text-anchor="start"/><g stroke-width="0"><path d="M592.81505,376.25325v-390.39039h41.78694v390.39039z" fill="url(#color-6)"/><path d="M-98.14759,373.00998v-390.39039h155.90105v390.39039z" fill="url(#color-7)"/><path d="M-97.66729,110.4875v-127.62763h733.55954v127.62762z" fill="url(#color-8)"/><path d="M636.86742,249.75279v127.62762h-733.55954v-127.62762z" fill="url(#color-9)"/></g></g><path d="M-91.72019,504.59808v-129.12913h735.73574v129.12913z" fill="#000000" stroke="none" stroke-width="0" stroke-linecap="butt"/><path d="M631.56209,462.55604v-503.003h98.03904v503.003z" fill="#000000" stroke="none" stroke-width="0" stroke-linecap="butt"/><path d="M230.3494,238.6259v-26h73.33333v26z" fill="#000000" stroke="none" stroke-width="0" stroke-linecap="butt"/><text transform="translate(59.48264,123.33107) rotate(19.97592) scale(0.38667,1.11747) skewX(40.48303)" font-size="40" xml:space="preserve" fill="#000000" stroke="#000000" stroke-width="2" stroke-linecap="butt" font-family="&quot;Century Gothic&quot;, Sans Serif" font-weight="normal" text-anchor="start"><tspan x="0" dy="0">CAFETERIA &gt;&gt;</tspan></text><path d="M182.50407,180.33333c0,-56.88533 37.39296,-103 83.51952,-103c46.12656,0 83.51952,46.11467 83.51952,103c0,56.88533 -37.39296,103 -83.51952,103c-46.12656,0 -83.51952,-46.11467 -83.51952,-103z" fill="url(#color-10)" stroke="none" stroke-width="0" stroke-linecap="butt"/></g></g></svg>