<svg version="1.1" xmlns="http://www.w3.org/2000/svg" xmlns:xlink="http://www.w3.org/1999/xlink" width="103.834" height="231.36627" viewBox="0,0,103.834,231.36627"><g transform="translate(-308.083,-64.31686)"><g data-paper-data="{&quot;isPaintingLayer&quot;:true}" fill-rule="nonzero" stroke-linecap="butt" stroke-linejoin="miter" stroke-miterlimit="10" stroke-dasharray="" stroke-dashoffset="0" style="mix-blend-mode: normal"><path d="M368.19861,118.32664c0,3.77772 8.8279,14.78217 6.49499,18.66959c-3.03879,5.06366 -27.1988,2.58041 -30.24499,2.58041c-5.38477,0 4.25,-12.55151 4.25,-21.25c0,-8.69849 10.36523,-19.25 15.75,-19.25c5.38477,0 3.75,10.55151 3.75,19.25z" fill="#d0d0d0" stroke="none" stroke-width="0"/><path d="M350.06527,124.32664c-14.08326,0 -17.5,-10.91674 -17.5,-25c0,-14.08326 7.41674,-25.5 21.5,-25.5c14.08326,0 21.5,10.91674 21.5,25c0,14.08326 -11.41674,25.5 -25.5,25.5z" data-paper-data="{&quot;index&quot;:null}" fill="#ffffff" stroke="none" stroke-width="0"/><g data-paper-data="{&quot;index&quot;:null}" stroke="none" stroke-width="0"><path d="M322.23165,148.99404c1.58657,-9.50703 5.15288,-3.88805 8.01821,-3.88805c2.13659,0 6.14195,-4.63426 7.65692,1.04971c1.89445,7.10777 1.0494,25.80708 1.0494,37.69789c0,21.39971 -3.38582,26.34837 -8.19419,26.34837c-4.80836,0 -9.21846,-4.94866 -9.21846,-26.34837c0,-8.64751 -0.38777,-28.41266 0.68811,-34.85955z" fill="#1a1833"/><path d="M339.80395,221.88292c-3.06734,0.93981 -9.48732,5.66587 -13.51499,2.64267c-3.75063,-2.81526 -5.22091,-13.28157 -5.37222,-15.37294c-0.49354,-6.8218 3.6747,-12.83629 9.31003,-13.43375c1.15394,-0.12234 6.00258,-1.80483 10.11969,-0.02745c4.48791,1.93747 6.05139,15.22277 5.28196,16.29224c-3.90368,5.42593 -4.58666,-8.89684 -4.30434,-4.99463c0.17976,2.48457 1.87323,13.85416 -1.52013,14.89386z" fill="#04000e"/></g><path d="M341.97537,284.82381c-2.755,-27.78698 -5.74796,-93.01802 4.9859,-99.03689c4.62214,-2.5918 25.40579,-1.26726 30.02621,2.12348c7.00597,5.14139 4.43431,66.38745 6.25064,88.47906c1.74242,21.1926 -13.7025,18.02681 -16.95613,13.22271c-4.19089,-6.188 -5.14747,-73.35724 -5.14747,-73.35724c0,0 1.99237,68.56324 -1.60167,73.67126c-3.85017,5.47204 -16.54656,5.09372 -17.55748,-5.10238z" data-paper-data="{&quot;index&quot;:null}" fill="#1a1833" stroke="none" stroke-width="0"/><path d="M317.58285,150.76144c0,-4.34236 -11.31802,-12.30618 -9.24664,-15.31089c2.40725,-3.49193 18.48878,-1.68911 22.39058,-1.68911c7.2592,0 6.57197,9.61116 6.57197,19c0,9.38884 -19.71591,7.38884 -19.71591,-2z" data-paper-data="{&quot;index&quot;:null}" fill="#07001b" stroke="none" stroke-width="0"/><path d="M327.44952,147.32664c0,-20.5726 13.34697,-18.75 30.86149,-18.75c17.51452,0 32.13851,-5.8226 32.13851,14.75c0,5.52878 -8.80686,60.36063 -15.46143,63.34026c-9.79723,4.38678 -19.8992,3.84259 -31.01503,1.87189c-9.42827,-1.67151 -16.52355,-54.30811 -16.52355,-61.21215z" fill="#0d0033" stroke="none" stroke-width="0"/><path d="M345.28868,99.55133c0,6.07513 -1.10845,11 -2.47577,11c-1.36733,0 -2.47577,-4.92487 -2.47577,-11c0,-6.07513 1.10844,-11 2.47577,-11c1.36733,0 2.47577,4.92487 2.47577,11z" fill="#000000" stroke="none" stroke-width="0"/><path d="M356.54105,99.07664c0,6.07513 -1.10845,11 -2.47577,11c-1.36733,0 -2.47577,-4.92487 -2.47577,-11c0,-6.07513 1.10845,-11 2.47577,-11c1.36733,0 2.47577,4.92487 2.47577,11z" fill="#000000" stroke="none" stroke-width="0"/><path d="M332.50558,289.68864c0,-7.99265 6.47932,-14.47197 14.47197,-14.47197c3.0553,0 10.22235,6.98374 10.22235,6.98374c0,0 3.42934,-4.39682 4.51817,-2.38185c1.10447,2.04394 -0.26855,7.38379 -0.26855,9.87008c0,7.99265 -28.94394,7.99265 -28.94394,0z" fill="#111111" stroke="none" stroke-width="0"/><path d="M364.53723,289.68864c0,-2.48629 -1.37302,-7.82614 -0.26855,-9.87008c1.08882,-2.01497 4.51817,2.38185 4.51817,2.38185c0,0 7.16706,-6.98374 10.22235,-6.98374c7.99265,0 14.47197,6.47932 14.47197,14.47197c0,7.99265 -28.94394,7.99265 -28.94394,0z" data-paper-data="{&quot;index&quot;:null}" fill="#111111" stroke="none" stroke-width="0"/><path d="M327.34326,147.32664c0,-14.42701 6.56382,-17.84042 16.52572,-18.59234c4.24355,-0.3203 1.08425,31.28438 1.08425,31.28438l28.25801,1.06459c0,0 0.73775,-33.30836 3.21176,-33.2584c8.36427,0.16889 13.92026,2.82126 13.92026,15.50177c0,2.87821 1.61495,19.11812 -1.61239,34.44821c-2.97208,14.11758 -56.55341,16.39731 -59.50474,2.19267c-2.96139,-14.25303 -1.88288,-29.18299 -1.88288,-32.64088z" data-paper-data="{&quot;index&quot;:null}" fill="#353535" stroke="none" stroke-width="0"/><g stroke="none" stroke-width="0"><path d="M399.64972,183.85359c0,21.39971 -4.41009,26.34837 -9.21846,26.34837c-4.80836,0 -8.19419,-4.94866 -8.19419,-26.34837c0,-11.89082 -0.84505,-30.59013 1.0494,-37.69789c1.51497,-5.68397 5.52033,-1.04971 7.65692,-1.04971c2.86533,0 6.43164,-5.61898 8.01821,3.88805c1.07588,6.4469 0.68811,26.21204 0.68811,34.85956z" fill="#1a1833"/><path d="M379.86917,206.98906c0.28232,-3.90221 -0.40065,10.42056 -4.30434,4.99463c-0.76943,-1.06947 0.79406,-14.35477 5.28196,-16.29224c4.1171,-1.77739 8.96575,-0.09489 10.11969,0.02745c5.63533,0.59745 9.80358,6.61195 9.31003,13.43375c-0.15131,2.09137 -1.6216,12.55769 -5.37222,15.37294c-4.02766,3.0232 -10.44765,-1.70287 -13.51499,-2.64267c-3.39337,-1.0397 -1.69989,-12.40929 -1.52013,-14.89386z" fill="#04000e"/></g><path d="M380.60027,150.76144c0,-9.38884 -0.68723,-19 6.57198,-19c2.86319,0 22.09109,0.04071 24.24988,2.05089c3.31451,3.08634 -11.10594,9.26343 -11.10594,14.94911c0,9.38884 -19.71591,11.38884 -19.71591,2z" fill="#07001b" stroke="none" stroke-width="0"/><g><path d="M342.48112,144.13912c1.58893,4.05626 -2.8986,13.71428 -5.63389,13.94093c-2.59864,0.21531 -6.67994,-8.98253 -5.94309,-13.35199c0.31589,-1.87321 11.00922,-2.03834 11.57699,-0.58894z" fill="#b0a700" stroke="#3e3e3e" stroke-width="0"/><text transform="translate(332.95402,150.39831) scale(0.11287,0.12231)" font-size="40" xml:space="preserve" fill="#000000" fill-rule="nonzero" stroke="none" stroke-width="1" stroke-linecap="butt" stroke-linejoin="miter" stroke-miterlimit="10" stroke-dasharray="" stroke-dashoffset="0" font-family="&quot;GovtAgentBB&quot;, Serif" font-weight="normal" text-anchor="start" style="mix-blend-mode: normal"><tspan x="0" dy="0">ASC</tspan></text></g><g stroke="none" stroke-width="0"><path d="M372.45588,85.89637c0,5.56835 -43.89568,7.91309 -43.89568,2.34474c0,-2.39993 2.12921,-2.77782 4.35588,-8.00803c1.29775,-3.04828 1.69964,-11.46067 4.17416,-13.1152c3.13078,-2.09332 18.18268,1.66186 18.18268,1.66186c0,0 12.84547,-7.00597 15.94901,-3.46194c3.15261,3.60008 1.23396,17.77254 1.23396,20.57856z" fill="#000044"/><path d="M374.81863,85.81717c0,3.68542 -28.07173,6.97637 -43.68194,6.97637c-15.61021,0 -10.50289,-10.72795 -10.50289,-10.72795c0,0 6.19859,1.93167 21.8088,1.93167c15.61021,0 32.37602,-1.8655 32.37602,1.81992z" fill="#000000"/></g></g></g></svg>