<svg version="1.1" xmlns="http://www.w3.org/2000/svg" xmlns:xlink="http://www.w3.org/1999/xlink" width="758.25826" height="394.7608" viewBox="0,0,758.25826,394.7608"><defs><radialGradient cx="359.41291" cy="179.99997" r="362.61261" gradientUnits="userSpaceOnUse" id="color-1"><stop offset="0" stop-color="#000000" stop-opacity="0.83922"/><stop offset="1" stop-color="#000000" stop-opacity="0"/></radialGradient><radialGradient cx="359.41291" cy="179.99997" r="362.61262" gradientUnits="userSpaceOnUse" id="color-2"><stop offset="0" stop-color="#000000" stop-opacity="0"/><stop offset="1" stop-color="#000000"/></radialGradient><linearGradient x1="-16.79205" y1="181.05804" x2="144.03904" y2="181.05804" gradientUnits="userSpaceOnUse" id="color-3"><stop offset="0" stop-color="#000000"/><stop offset="1" stop-color="#000000" stop-opacity="0"/></linearGradient><linearGradient x1="739.12913" y1="177.81479" x2="578.29805" y2="177.81479" gradientUnits="userSpaceOnUse" id="color-4"><stop offset="0" stop-color="#000000"/><stop offset="1" stop-color="#000000" stop-opacity="0"/></linearGradient><linearGradient x1="360.25526" y1="-17.14016" x2="360.25526" y2="110.48747" gradientUnits="userSpaceOnUse" id="color-5"><stop offset="0" stop-color="#000000"/><stop offset="1" stop-color="#000000" stop-opacity="0"/></linearGradient><linearGradient x1="359.24925" y1="377.38042" x2="359.24925" y2="249.75278" gradientUnits="userSpaceOnUse" id="color-6"><stop offset="0" stop-color="#000000"/><stop offset="1" stop-color="#000000" stop-opacity="0"/></linearGradient></defs><g transform="translate(19.12913,17.3804)"><g stroke-miterlimit="10"><path d="M0,153v-153h719.43382v153z" fill="#330f00" stroke="#000000" stroke-width="0"/><path d="M0.56618,360v-160.3741h719.43382v160.3741z" fill="#330f00" stroke="#000000" stroke-width="0"/><path d="M296,244v-128h128v128z" fill="#3d1d00" stroke="#000000" stroke-width="0"/><path d="M0,360v-360l295,116l1,128.5z" fill="#4f2600" stroke="none" stroke-width="0"/><path d="M720,0v360l-295,-116l-1,-128.5z" fill="#4f2600" stroke="none" stroke-width="0"/><g><g fill="#1c1c1c" stroke="#000000" stroke-width="0"><g><g><path d="M263,141.1874v-78h32v78z"/><path d="M295,63.1874c0,2.07107 -7.16345,3.75 -16,3.75c-8.83655,0 -16,-1.67893 -16,-3.75c0,-2.07107 7.16345,-3.75 16,-3.75c8.83655,0 16,1.67893 16,3.75z"/></g><path d="M300.5,141.1874v-78h12.75v78z"/><path d="M313.27308,63.23548c0,1.03554 -2.85418,1.875 -6.375,1.875c-3.52082,0 -6.375,-0.83946 -6.375,-1.875c0,-1.03554 2.85418,-1.875 6.375,-1.875c3.52082,0 6.375,0.83946 6.375,1.875z"/></g><g><g><path d="M338.02308,141.1874v-78h32v78z"/><path d="M354.02308,59.4374c8.83655,0 16,1.67893 16,3.75c0,2.07107 -7.16345,3.75 -16,3.75c-8.83655,0 -16,-1.67893 -16,-3.75c0,-2.07107 7.16345,-3.75 16,-3.75z"/></g><path d="M319.77308,141.1874v-78h12.75v78z"/><path d="M326.125,61.36048c3.52082,0 6.375,0.83946 6.375,1.875c0,1.03554 -2.85418,1.875 -6.375,1.875c-3.52082,0 -6.375,-0.83946 -6.375,-1.875c0,-1.03554 2.85418,-1.875 6.375,-1.875z"/></g></g><path d="M494.11735,207.20267c-0.411,-2.46598 2.05498,-2.87698 2.05498,-2.87698l2.80837,-0.4603c3.15684,-1.04632 5.83297,-2.7448 9.04668,-3.33976c1.06146,-0.89726 2.15123,-1.76659 3.21851,-2.65841c-0.38271,-1.09825 -0.76684,-2.23075 -1.08811,-3.46997c-1.32793,-5.12204 0.03713,-10.96454 -1.24815,-15.99266c-0.63078,-2.46764 -2.23255,-4.63036 -2.77691,-7.11849c-0.25543,-1.16751 -0.10947,-2.40342 -0.11944,-3.60746c-0.28964,-0.05999 -0.5834,-0.11929 -0.88184,-0.17815c-5.2056,-1.02647 -10.50123,-0.93345 -15.47658,-2.88762c0,0 -2.32119,-0.92848 -1.39272,-3.24967c0.92847,-2.32119 3.24967,-1.39272 3.24967,-1.39272c3.89467,1.59343 8.06348,2.21698 12.2646,2.76534c-0.41681,-0.97983 -0.71294,-2.02853 -1.37219,-2.85401c-1.81707,-2.27522 -5.13778,-3.0573 -6.86529,-5.40124c-1.71247,-2.32352 -1.65654,-5.70654 -3.51839,-7.91217c-0.97449,-1.15442 -2.35099,-1.89794 -3.52648,-2.84691c0,0 -1.92982,-1.58926 -0.34055,-3.51909c1.58927,-1.92982 3.51909,-0.34056 3.51909,-0.34056c2.79152,2.33702 5.43651,5.11417 6.95004,8.42529c0.48012,1.05034 0.32885,2.37945 1.00509,3.31564c1.63322,2.26102 4.87261,2.93667 6.63472,5.09876c1.02099,1.25275 1.41233,2.91031 2.21876,4.31083c0.53422,0.92776 1.40792,1.67589 1.84141,2.64377c1.30865,0.22352 2.60809,0.48547 3.89086,0.81352c-0.18353,-2.47457 -0.55754,-4.90274 -1.40084,-7.13206c-1.4293,-3.77848 -5.97457,-4.6311 -8.75002,-6.56162c-0.8692,-0.60458 -1.33219,-1.64626 -1.97928,-2.4843c-3.11147,-4.02962 -3.78559,-10.94929 -9.38014,-11.52907c0,0 -2.47093,-0.38014 -2.09078,-2.85107c0.38015,-2.47093 2.85107,-2.09079 2.85107,-2.09079c1.3333,0.24697 2.79863,0.11191 3.9999,0.7409c4.51887,2.36613 5.8307,8.85033 8.61996,12.73002c0.35557,0.49457 0.50523,1.19121 1.02071,1.51571c1.08033,0.68008 2.51624,0.66153 3.57374,1.37659c1.03252,0.69817 5.96156,5.33169 6.67624,7.06179c1.39235,3.37062 1.7572,7.18002 1.91673,10.96908c1.07024,0.48538 2.12007,1.04961 3.14449,1.71117c6.4662,4.17585 5.13888,11.3543 2.73501,17.47241c-1.02568,2.61049 -1.83747,5.34444 -3.16951,7.80557c0.32773,1.96965 0.74864,3.92102 0.84948,5.96315c0.21078,4.26844 0.00311,8.60137 0.00311,12.87454c0,0.1608 0.04676,6.58946 -0.12255,7.02311c-1.35513,3.4709 -4.16731,5.02455 -7.10533,6.95999c-4.555,3.00063 -10.60258,5.15994 -15.83532,6.67071l-1.6868,0.09619c0,0 -2.5,0 -2.5,-2.5c0,-2.5 2.5,-2.5 2.5,-2.5l0.3132,0.09619c4.78507,-1.35089 10.32345,-3.34749 14.495,-6.06245c0.89737,-0.58404 4.43908,-2.57848 5.06434,-4.30685c0.62121,-1.71717 -0.12254,-3.6508 -0.12254,-5.47689c0,-1.46232 0.0236,-2.93092 0.04625,-4.40124c-1.73565,8.93824 -13.89166,10.38369 -21.0543,14.32094l-2.45571,1.47404c0,0 -2.14373,1.28624 -3.42998,-0.8575c-1.28624,-2.14373 0.8575,-3.42997 0.8575,-3.42997l2.54429,-1.52596c4.14493,-2.24617 8.65893,-4.02357 13.01011,-5.87944c3.11458,-1.32843 5.92186,-2.14607 5.7321,-5.91425c-0.02484,-1.00102 -0.13498,-1.92624 -0.30286,-2.80675c-0.87653,0.68521 -1.76209,1.3593 -2.64146,2.03618c-3.50227,0.74645 -6.48684,2.49936 -9.95331,3.66023l-3.19164,0.53971c0,0 -2.46598,0.411 -2.87698,-2.05499zM522.13188,175.53196c-0.2569,-1.82115 -1.32963,-2.75715 -2.66096,-3.43872c0.02721,0.58193 0.0602,1.1572 0.10231,1.72392c0.23572,3.17255 0.56817,6.3439 1.02486,9.50273c1.37329,-3.35371 2.05224,-4.1127 1.53379,-7.78793zM511.03396,170.29724c0.51997,2.41148 2.13508,4.48571 2.72308,6.88151c1.24998,5.093 -0.10578,10.88268 1.25185,16.00734c0.07637,0.28827 0.17824,0.56736 0.29538,0.841c0.52495,-0.59844 1.02004,-1.22657 1.47571,-1.8939c-0.11119,-0.8527 -0.18446,-1.71469 -0.18446,-2.59518c-1.02698,-5.04224 -1.62514,-10.16845 -2.00207,-15.27183c-0.10105,-1.36813 -0.13926,-2.79058 -0.17132,-4.23637c-1.20637,-0.44171 -2.37786,-0.82462 -3.56717,-1.16823c0.02934,0.49827 0.08118,0.98193 0.17901,1.43565zM517.90487,201.64605c-0.01288,-0.74463 -0.03462,-1.48811 -0.06844,-2.22985c-0.01115,-0.24461 -0.02722,-0.48789 -0.04745,-0.73005c-0.14279,0.14363 -0.28692,0.28595 -0.43225,0.42706c0.30038,1.05329 0.45881,1.79979 0.54814,2.53285z" fill="#121212" stroke="none" stroke-width="0.5"/><path d="M431.33334,131.30427c-2.5,0 -2.5,-2.5 -2.5,-2.5l0.07464,-0.727c-0.74275,-2.971 -0.60292,-6.0423 -3.48166,-7.43573c0,0 -2.1706,-1.24034 -0.93026,-3.41095c1.24034,-2.17061 3.41096,-0.93026 3.41096,-0.93026c0.98627,0.61333 2.18885,0.97047 2.9588,1.83999c1.86903,2.1107 2.2348,6.09199 2.89288,8.72428l0.07464,1.93967c0,0 0,2.5 -2.5,2.5z" fill="#121212" stroke="none" stroke-width="0.5"/><path d="M262.2307,200.50744c-3.86941,39.75682 -21.24884,71.35871 -38.81804,70.58481c-17.56921,-0.7739 -28.67509,-33.63054 -24.80568,-73.38736c3.86941,-39.75682 21.24884,-71.35871 38.81805,-70.58481c17.56921,0.7739 28.67509,33.63054 24.80568,73.38736z" fill="#121212" stroke="#000000" stroke-width="0"/><path d="M232,267.6259c0,0 -9.76515,-1.64488 -10.84924,-15.68183c-2.63397,-34.10482 1.84924,-102.13679 1.84924,-112.75666c0,-13.06659 9,-15.5615 9,-15.5615h260c0,0 7,6.82686 7,16.5615c0,17.77384 3.66821,83.60341 1.97021,112.9404c-0.58063,10.0318 -8.97021,14.4981 -8.97021,14.4981z" fill="#333333" stroke="#000000" stroke-width="0"/><path d="M431.76777,122.93444c-1.76776,1.76776 -3.53553,0 -3.53553,0l-2.32289,-2.37962c-1.49109,-0.68754 -3.12969,-1.26869 -4.77109,-1.22531c-3.1042,0.01305 -2.68725,0.95661 -2.63825,3.83715c0.07511,4.41608 0.38252,9.11979 -0.00728,13.52396c-0.70925,8.01359 -4.55122,15.40701 -6.03017,23.24047c-0.95193,5.04206 -0.69619,10.26832 -0.96638,15.37382c-0.19485,3.68183 -1.37441,7.04806 -1.67147,10.73602c0,0 -0.20762,2.49137 -2.69898,2.28376c-2.49136,-0.20762 -2.28375,-2.69898 -2.28375,-2.69898c0.31115,-3.62559 1.49393,-6.9966 1.66186,-10.59731c0.24711,-5.29855 0.04571,-10.7288 1.03362,-15.95951c1.44447,-7.64804 5.30457,-14.94851 5.96983,-22.75953c0.3678,-4.31842 -0.0682,-8.80971 -0.00728,-13.14271c0.05187,-3.68876 -0.55284,-5.69042 3.26002,-8.17081c1.16076,-0.75512 2.73448,-0.43913 4.10173,-0.65869c2.7237,0.04317 5.41198,0.98901 7.89557,2.10802l3.01045,2.95372c0,0 1.76776,1.76777 0,3.53553z" fill="#121212" stroke="none" stroke-width="0.5"/><path d="M225.16783,275.6259c0,0 -10.28285,-1.10374 -11.42442,-10.52272c-2.77361,-22.88478 1.94727,-68.53514 1.94727,-75.66121c0,-8.76785 9.47715,-10.44197 9.47715,-10.44197h273.78414c0,0 7.37111,4.58092 7.37111,11.11299c0,11.92648 3.86268,56.09899 2.07467,75.78449c-0.61142,6.73147 -9.44578,9.72842 -9.44578,9.72842z" fill="#1c1c1c" stroke="#000000" stroke-width="0"/><path d="M248,210.5v-56h96v56z" fill="#121212" stroke="#000000" stroke-width="0"/></g><g><path d="M394.5,120.75c0,5 -5,5 -5,5h-1.5c-1.1199,-0.72665 -3.27204,3.37592 -3.69348,4.04046c-2.9029,4.57725 -3.31618,11.52872 -3.31618,16.77023c-0.34766,2.78128 0.01204,5.64337 -0.53988,8.39141c-2.10392,10.47564 -7.39784,20.30045 -8.97828,30.82465c-0.88283,5.87876 0.04234,12.5107 0.02782,18.47325c-0.00672,2.76051 0.48801,8.18018 -0.98925,11.1571c-0.72177,1.4545 -2.04227,2.52637 -3.00437,3.83437c-5.19061,7.05674 -12.37573,13.09906 -20.68579,5.39408c-3.32618,-3.08399 -2.32059,-9.51247 -2.32059,-13.38555c0,-17.6574 -1.25389,-35.05944 -2.53612,-52.69001c-0.50595,-6.95678 0.09666,-15.52768 -2.19506,-22.1926c-1.08476,-3.15475 -1.57188,-6.96024 -3.10476,-9.91028c-0.71641,-1.37873 -1.04583,-0.80117 -1.68348,-0.30421c0,0 -4.9029,0.98058 -5.88348,-3.92232c-0.98058,-4.9029 3.92232,-5.88348 3.92232,-5.88348c1.45956,-0.17193 2.98165,-0.97203 4.37869,-0.51578c8.16443,2.66637 8.69837,7.85011 10.85936,14.88033c0.68642,2.23309 1.85435,4.35024 2.16577,6.66559c0.07597,0.56481 1.45083,19.58471 1.5143,20.45739c1.29963,17.86993 2.56246,35.51672 2.56246,53.41536c0,1.66667 0.02294,3.33349 0,5c-0.00755,0.54861 -0.79083,1.3318 -0.32059,1.61445c2.54425,1.52931 4.19223,-3.15112 5.31421,-4.60592c0.59949,-0.77732 1.44552,-1.35262 1.99563,-2.16563c1.27826,-1.88915 0.01692,-4.56194 0.01075,-6.8429c-0.01703,-6.30569 -0.9057,-13.29793 0.02782,-19.52675c1.60651,-10.71924 6.83916,-20.55973 9.02172,-31.17535c0.51169,-2.48877 0.14497,-5.08738 0.46012,-7.60859c0,-9.49373 2.16438,-19.34922 8.74195,-26.49833c1.14339,-1.24274 2.29355,-2.62063 3.83497,-3.31038c1.34781,-0.60312 2.94228,-0.25373 4.41342,-0.3806h1.5c0,0 5,0 5,5z" fill="#121212" stroke="none" stroke-width="0.5"/><path d="M264.21333,119.80924c0.55759,1.97315 -1.06168,3.59242 -1.06168,3.59242c-3.15943,3.12321 -4.66993,5.50449 -5.96467,10.03294c-0.88557,3.09734 0.36155,8.40439 0.0146,11.41609c-0.12064,1.04717 -0.83214,1.95936 -1,3c-0.61653,3.82216 0.04842,8.54045 0.04842,12.39932c0,10 0,20 0,30c0,6.6906 0.33763,13.47329 -0.00324,20.15584c-0.14897,2.9204 -0.84865,5.79421 -1.01501,8.71367c-0.1286,2.25675 0.33153,4.55122 -0.03862,6.78112c-0.31945,1.92445 -1.61457,3.58767 -2,5.5c-0.27954,1.38697 0.21868,2.84141 0.03601,4.24443c-0.30809,2.36633 -1.19829,4.63285 -1.5,7c-0.6388,5.01188 -0.29867,10.78741 0.01143,15.8391c0.37155,6.05251 2.69092,12.28622 1.44926,18.43493c-0.6792,3.36339 -2.41754,6.91337 -5.24023,9.03428c-0.63922,0.4803 -1.73272,-0.07958 -2.36295,0.41246c-0.96198,0.75104 -1.367,2.02216 -2.05051,3.03324c-1.18697,0.26619 -2.4365,0.33437 -3.5609,0.79856c-0.74017,0.30557 -1.16067,1.17239 -1.90828,1.45929c-1.43458,0.55054 -3.06611,0.44766 -4.5,1c-0.90121,0.34715 -1.43961,1.43553 -2.38111,1.65064c-3.54552,0.81005 -8.96117,0.22166 -12.68585,0.19244c-4.66175,-0.03658 -10.30262,-0.80118 -12.05756,-6.06415c-0.54719,-1.64098 -0.21008,-3.45614 -0.19244,-5.18585c0.04093,-4.01326 -0.09281,-5.62856 4.31494,-7.96455c1.10459,-0.5854 2.54448,0.2408 3.74921,-0.09301c0.80308,-0.22252 1.2013,-1.26226 2,-1.5c1.17916,-0.35099 2.45603,-0.15853 3.68585,-0.19244c3.38729,-0.09338 8.55946,-0.9043 9.98811,-4.06496c0.45346,-2.51636 -0.2795,-5.45529 0.45433,-7.8709c0.28072,-0.92406 1.29536,-1.48307 1.65064,-2.38111c1.2672,-3.20315 1.30191,-6.7735 1.66636,-10.19887c0.70059,-6.58476 -0.00943,-13.60341 -0.00943,-20.23417c0,-12.5 0,-25 0,-37.5c0,-7.96755 -0.74489,-16.37643 0.01278,-24.3093c0.40444,-4.23459 3.59372,-7.41755 4.05489,-11.39985c0.17871,-1.54323 -0.20438,-3.11457 -0.04941,-4.66036c0.0567,-0.56559 1.89106,-9.40707 2.03017,-10.23117c0.69824,-4.13637 -0.32695,-8.62551 0.52816,-12.65331c1.06594,-5.02087 4.31905,-7.27082 8.0895,-10.14508c3.09992,-0.71814 5.59327,-0.99541 8.40687,-2.45503l4.58656,0.21607c0,0 3.40259,0.85065 2.80382,4.19727zM252.83448,124.46572c-0.40131,0.06537 -0.81677,0.12599 -1.25056,0.18335c-0.15023,0.13241 -2.80233,2.44117 -2.97867,2.70329c-1.47113,2.18676 -0.87917,3.14544 -0.85525,5.89764c0.03521,4.05157 0.11951,4.54662 -0.54842,8.60068c-0.54001,3.27763 -1.64013,6.46342 -1.96983,9.76883c-0.17667,1.77117 0.20886,3.57852 -0.04941,5.33964c-0.55625,3.79295 -3.69409,6.75726 -3.94511,10.60015c-0.5104,7.81348 0.01278,15.86037 0.01278,23.6907c0,12.5 0,25 0,37.5c0,6.81492 0.69683,13.99308 -0.00943,20.76583c-0.27081,2.597 -1.24574,9.90185 -2.33364,12.80113c-0.2468,0.65772 -1.09159,0.96539 -1.34936,1.61889c-0.57326,1.45333 0.34241,3.13045 0.17419,4.68366c-0.12634,1.16646 -0.47991,2.29696 -0.71986,3.44544c-1.04481,1.69503 -1.67533,3.73018 -3.13443,5.08508c-1.65369,1.53558 -8.68235,3.45139 -10.85733,3.81372c-1.42604,0.23756 -2.98946,-0.68677 -4.33428,-0.15619c-0.77518,0.30584 -1.19506,1.28431 -2,1.5c-1.0471,0.28058 -2.16753,-0.05182 -3.25079,-0.09301c-0.3605,-0.01371 0.30629,0.67479 0.31494,1.03545c0.02254,0.93997 -0.192,1.87391 -0.19244,2.81415c-0.00063,1.3534 4.43601,0.94067 4.94244,0.93585c2.78145,-0.02644 7.61257,0.82603 10.31415,0.19244c0.68394,-0.1604 0.96307,-1.09756 1.61889,-1.34936c1.43449,-0.55077 3.06623,-0.44737 4.5,-1c0.80802,-0.31144 1.28345,-1.22992 2.09172,-1.54071c0.76145,-0.29279 1.62607,-0.13429 2.4391,-0.20144c0.64983,-0.98892 1.01415,-2.24193 1.94949,-2.96676c0.71184,-0.55164 1.83876,-0.17069 2.63705,-0.58754c1.28196,-0.66941 1.52522,-2.53866 1.75977,-3.96572c0.90978,-5.53536 -1.20437,-11.1073 -1.55074,-16.56507c-0.34673,-5.46349 -0.65445,-11.73394 0.01143,-17.1609c0.29062,-2.36854 1.19083,-4.63381 1.5,-7c0.20538,-1.57187 -0.27268,-3.20068 0.03601,-4.75557c0.37987,-1.91344 1.67798,-3.57598 2,-5.5c0.3422,-2.04456 -0.15059,-4.14891 -0.03862,-6.21888c0.15023,-2.7775 0.84919,-5.50809 0.98499,-8.28633c0.3217,-6.58147 -0.00324,-13.25513 -0.00324,-19.84416c0,-10 0,-20 0,-30c0,-4.3165 -0.58286,-9.32517 0.04842,-13.60068c0.15397,-1.04279 0.87393,-1.95347 1,-3c0.42843,-3.55652 -0.94042,-8.07616 0.0146,-11.58391c0.81686,-3.0003 1.76264,-5.41233 3.02146,-7.59969z" fill="#121212" stroke="none" stroke-width="0.5"/><path d="M373.75,93.25c0,3.75 -3.75,3.75 -3.75,3.75h-0.5c-2.22761,-0.02996 -4.3971,-0.72075 -6.60068,-1.04842c-2.68823,-0.39974 -5.48705,0.49853 -8.15331,-0.02816c-1.44104,-0.28466 -2.7075,-1.14143 -4.07868,-1.66821c-2.33714,-0.89788 -4.99126,-1.17287 -7.04478,-2.60517c-1.33322,-0.9299 -1.6117,-2.83534 -2.60269,-4.12381c-1.39703,-1.81639 -3.45605,-3.17764 -4.44325,-5.24559c-1.3213,-2.76782 -1.56415,-6.4376 -3.5766,-8.78064c0,0 -2.25,-3 0.75,-5.25c3,-2.25 5.25,0.75 5.25,0.75c2.27648,3.24327 3.01515,6.64904 4.4234,10.21936c0.63253,1.60365 2.54231,2.36061 3.55675,3.75441c0.62723,0.86179 0.51276,2.28148 1.39731,2.87619c1.424,0.95741 3.3337,0.83351 4.95522,1.39483c1.01131,0.35008 1.87263,1.11835 2.92132,1.33179c2.56303,0.52164 5.25564,-0.38556 7.84669,-0.02816c1.81037,0.24972 3.57218,0.98845 5.39932,0.95158h0.5c0,0 3.75,0 3.75,3.75z" fill="#121212" stroke="none" stroke-width="0.5"/><path d="M436.5,244.5c0,-5.38478 4.36522,-9.75 9.75,-9.75c5.38478,0 9.75,4.36522 9.75,9.75c0,5.38478 -4.36522,9.75 -9.75,9.75c-5.38478,0 -9.75,-4.36522 -9.75,-9.75z" fill="#000000" stroke="#424242" stroke-width="0"/><path d="M442.25,244.75c0,-3.75 3.75,-3.75 3.75,-3.75h2c1.22862,0.06415 2.53425,-0.24048 3.68585,0.19244c8.88787,3.34113 4.65927,11.91597 5.92808,18.55656c0.16825,0.88059 1.17221,1.41897 1.43082,2.27737c1.83154,6.07942 1.87534,13.62784 -2.00259,18.91629c-0.95993,1.30908 -2.40473,2.18126 -3.6071,3.27188c-4.28752,0.31102 -9.37288,1.11322 -13.60416,0.22528c-5.39497,-1.13215 -8.88294,-4.07469 -13.25126,-6.96884c-1.69493,-1.12295 -4.00071,-0.94146 -5.79973,-1.88875c-1.94927,-1.0264 -4.70721,-3.60615 -5.66593,-5.72059c-4.03656,-8.90262 -3.35614,-19.03345 -3.36398,-28.60753c-0.00916,-11.19029 0.0421,-22.38174 -0.25486,-33.56825c-0.12446,-5.10814 0.21288,-8.75283 -1.51337,-13.63795c-1.90143,-5.38087 -7.65658,-8.84993 -9.0957,-14.29691c-0.60401,-2.28615 -0.58323,-9.34914 0.05637,-11.68686c0.21992,-0.80379 1.1952,-1.22441 1.5,-2c0.71251,-1.81308 -0.39117,-3.91013 -0.14374,-5.84241c0.31698,-2.47542 1.16758,-4.86395 1.46955,-7.34125c0.4685,-3.84351 0.00117,-10.87247 -0.33174,-14.36782c-0.23242,-2.44029 -0.82994,-4.8331 -1.15308,-7.26304c-0.22274,-1.67499 0.48711,-4.15808 -0.99438,-4.97073c-1.12729,-0.61836 -2.72086,-0.2914 -3.68394,-1.14324c-1.43842,-1.27228 -2.78754,-5.00111 -3.5869,-6.99294c-1.7515,-4.93537 -6.68794,-3.99593 -11.20891,-3.65549c-2.63774,0.19863 -5.17338,1.13914 -7.79685,1.4776c-6.85183,0.88396 -15.53142,1.15059 -22.32965,-0.05494c-3.95212,-0.70083 -4.02512,-1.79127 -6.74205,-3.52586c-5.07862,-3.24238 -8.51205,-7.682 -13.52089,-11.01382c0,0 -3.12019,-2.08013 -1.04006,-5.20031c2.08013,-3.12019 5.20031,-1.04006 5.20031,-1.04006c5.00743,3.34506 8.46137,7.8051 13.47911,10.98618c1.51374,0.95966 2.3032,2.2084 4.25795,2.47414c6.14933,0.83595 13.51223,0.75802 19.67035,-0.05494c8.33114,-1.09984 19.79468,-4.84483 25.64311,3.65048c0.65162,0.94653 0.90076,2.11442 1.35113,3.17163c0.52432,1.31568 0.23188,3.22562 1.4131,4.00706c0.95215,0.6299 2.44411,0.11984 3.31606,0.85676c1.47336,1.2452 2.59706,2.95392 3.31256,4.74539c0.65887,1.64967 0.43573,3.52624 0.69306,5.28389c0.3692,2.52178 0.94619,5.01608 1.18636,7.5534c0.38002,4.01467 0.82845,11.524 0.32882,15.81574c-0.2896,2.48757 -1.14209,4.88494 -1.47219,7.36746c-0.18872,1.41926 0.22771,6.00857 -0.202,7.44888c-0.23824,0.79855 -1.22976,1.2117 -1.5,2c-0.1972,0.57524 0.16815,1.20652 0.19244,1.81415c0.07324,1.8321 -0.53102,3.70848 -0.13607,5.499c0.66794,3.02809 3.86309,4.86475 5.54031,7.47289c1.27656,1.98509 2.57541,4.00571 3.36398,6.2302c2.16466,6.10629 1.79541,9.75169 1.97428,16.03503c0.35901,13.56152 -0.02372,27.12805 0.25674,40.68793c0.08102,3.91742 -0.36763,7.90703 0.40836,11.74768c0.22626,1.11982 1.03636,2.04578 1.39616,3.13009c0.51138,1.54113 0.47728,3.45278 1.63898,4.58727c2.20904,2.15731 5.13369,1.78598 7.72761,3.38893c3.726,2.30253 6.24172,5.0358 10.74874,6.03116c3.00512,0.66367 6.30466,-0.6033 9.39584,0.22528c2.17097,-4.02315 2.80692,-8.31603 1.39032,-12.81182c-0.3148,-0.99906 -1.37875,-1.6926 -1.56918,-2.72263c-0.39404,-2.13136 -0.10503,-4.33375 -0.13607,-6.501c-0.03351,-2.34 1.3666,-7.2796 -2.25,-6.75h-2c0,0 -3.75,0 -3.75,-3.75z" fill="#121212" stroke="none" stroke-width="0.5"/></g><g fill="#2d4a2c" stroke-width="0"><path d="M456.4263,115.50554c0.76612,-3.53254 4.36471,-5.69128 8.03767,-4.8217c3.67297,0.86959 6.02944,4.43822 5.26333,7.97075c-0.76612,3.53254 -4.36471,5.69128 -8.03767,4.8217c-3.67297,-0.86959 -6.02944,-4.43822 -5.26333,-7.97075z" stroke="#424242"/><path d="M465.63965,119.36775l0.69348,-3.19763l16.90336,4.00193l-0.69348,3.19763z" stroke="#424242"/><path d="M477.60783,119.93081l1.04019,-4.79629l2.53457,-0.49249l2.1452,2.27726l-3.30446,0.2628l1.75285,2.55898l-1.81297,0.74737z" stroke="none"/></g><g stroke-width="0"><g stroke="#000000"><path d="M-3.1997,366.18619v-372.37237h725.22523v372.37237z" fill="url(#color-1)"/><path d="M-3.19971,366.18619v-372.37237h725.22523v372.37237z" fill="url(#color-2)"/></g><g stroke="none"><path d="M-16.79205,376.25323v-390.39039h160.83109v390.39039z" fill="url(#color-3)"/><path d="M578.29805,373.00999v-390.39039h160.83108v390.39039z" fill="url(#color-4)"/><path d="M-18.12312,110.48747v-127.62762h756.75676v127.62763z" fill="url(#color-5)"/><path d="M737.62763,249.75278v127.62762h-756.75676v-127.62762z" fill="url(#color-6)"/></g></g></g></g></svg>