<svg version="1.1" xmlns="http://www.w3.org/2000/svg" xmlns:xlink="http://www.w3.org/1999/xlink" width="76.33333" height="101" viewBox="0,0,76.33333,101"><g transform="translate(-321.83333,-129.5)"><g data-paper-data="{&quot;isPaintingLayer&quot;:true}" fill-rule="nonzero" stroke-linecap="butt" stroke-linejoin="miter" stroke-miterlimit="10" stroke-dasharray="" stroke-dashoffset="0" style="mix-blend-mode: normal"><path d="M321.83333,230.5v-101h76.33333v101z" fill="#273042" stroke="none" stroke-width="0"/><path d="M329.75469,196.83333v-61.66667h60.49068v61.66667z" fill="#0b0e13" stroke="none" stroke-width="0"/><path d="M343.08342,227.33333v-17.33333h33.83333v17.33333z" fill="#0b0e13" stroke="#000000" stroke-width="0"/><path d="M342.9999,209.125v-11.25h34.25v11.25z" fill="#273042" stroke="#000000" stroke-width="0"/><text transform="translate(343.39953,207.0298) scale(0.29415,0.29415)" font-size="40" xml:space="preserve" fill="#000000" fill-rule="nonzero" stroke="none" stroke-width="1" stroke-linecap="butt" stroke-linejoin="miter" stroke-miterlimit="10" stroke-dasharray="" stroke-dashoffset="0" font-family="&quot;GovtAgentBB&quot;, Serif" font-weight="normal" text-anchor="start" style="mix-blend-mode: normal"><tspan x="0" dy="0">Conor</tspan></text><path d="M348.03024,152.09617c3.29504,-2.51589 -0.60512,2.98984 0.4345,4.35143c1.03962,1.36159 -0.78875,4.50489 -4.08379,7.02078c-3.29504,2.51589 -6.80898,3.45163 -7.8486,2.09005c-1.03962,-1.36159 8.20284,-10.94636 11.49788,-13.46225z" fill="#d4ac87" stroke="none" stroke-width="0"/><path d="M385.59636,160.66328c-0.60035,1.60447 -4.23466,1.7274 -8.11747,0.27456c-3.88281,-1.45284 -6.54377,-3.93128 -5.94342,-5.53575c0.60035,-1.60447 -4.7282,-5.74341 -0.84538,-4.29057c3.88281,1.45284 15.50664,7.94729 14.90629,9.55176z" fill="#d5d5d5" stroke="none" stroke-width="0"/><path d="M377.44015,168.08861c0,10.1738 -6.1815,16.33269 -17.47987,16.33269c-11.29838,0 -17.04375,-5.87835 -17.04375,-16.05215c0,-2.98331 1.92698,-7.35806 2.71964,-9.9587c1.91046,-6.26817 6.33882,-10.83176 14.32411,-10.83176c8.61204,0 13.49208,4.74022 15.32581,11.49994c0.57199,2.10854 2.15406,6.59104 2.15406,9.00998z" fill="#e6e6e6" stroke="none" stroke-width="0"/><g fill="#000000" stroke="none" stroke-width="0"><path d="M349.02058,158.15443c0,-2.79311 2.26426,-5.05738 5.05738,-5.05738c2.79311,0 5.05738,2.26426 5.05738,5.05738c0,2.79311 -2.26426,5.05738 -5.05738,5.05738c-2.79311,0 -5.05738,-2.26426 -5.05738,-5.05738z"/><g font-family="&quot;Helvetica Neue&quot;, Helvetica, Arial, sans-serif" font-weight="400" font-size="16" text-anchor="start"><g/></g></g><path d="M374.74701,161.854c0,1.82411 -2.13039,0.3164 -2.81021,1.28291c-1.09507,1.55688 -1.56865,2.62543 -3.70368,2.62543c-2.07266,0 -3.52191,0.34257 -4.94809,-1.89875c-0.95495,-1.50075 -2.43431,-2.82926 -2.43431,-4.73922c0,-2.34322 -1.55422,-4.96444 -0.45209,-6.51863c0.39088,-0.55121 3.21547,-1.86216 4.22039,-2.04261c1.92044,-0.34484 2.46012,0.8066 3.61411,0.8066c2.05712,0 3.76608,3.5622 5.01514,6.3449c0.85211,1.89836 1.49876,2.20801 1.49876,4.13936z" fill="#d4ac87" stroke="none" stroke-width="0"/><g fill="#000000" stroke="none" stroke-width="0"><path d="M361.95459,158.15412c0,-2.79311 2.26426,-5.05738 5.05738,-5.05738c2.79311,0 5.05738,2.26426 5.05738,5.05738c0,2.79311 -2.26426,5.05738 -5.05738,5.05738c-2.79311,0 -5.05738,-2.26426 -5.05738,-5.05738z"/><g font-family="&quot;Helvetica Neue&quot;, Helvetica, Arial, sans-serif" font-weight="400" font-size="16" text-anchor="start"><g/></g></g><path d="M372.76182,174.19938c0,3.56326 -5.66609,6.45185 -12.65556,6.45185c-6.98947,0 -12.65556,-2.8886 -12.65556,-6.45185c0,-0.87838 -0.77235,-5.43798 -0.14879,-6.20119c1.90602,-2.33289 7.53784,-0.25065 12.80435,-0.25065c4.06509,0 9.17141,-1.38031 11.48685,0.13832c1.66571,1.0925 1.16871,4.82266 1.16871,6.31353z" fill="#d4b9ab" stroke="none" stroke-width="0"/><path d="M353.03403,169.23641c0,0.47967 -1.08322,0.24815 -2.41945,0.24815c-1.33623,0 -2.41945,0.23152 -2.41945,-0.24815c0,-0.47967 1.08322,-1.73704 2.41945,-1.73704c1.33623,0 2.41945,1.25737 2.41945,1.73704z" fill="#000000" stroke="none" stroke-width="0"/><path d="M371.14886,169.48457c0,0.47967 -1.08322,0.24816 -2.41945,0.24816c-1.33623,0 -2.41945,0.23152 -2.41945,-0.24816c0,-0.47967 1.08322,-1.73704 2.41945,-1.73704c1.33623,0 2.41945,1.25738 2.41945,1.73704z" fill="#000000" stroke="none" stroke-width="0"/><text transform="translate(351.55297,223.17375) scale(0.37559,0.37559)" font-size="40" xml:space="preserve" fill="#545454" fill-rule="nonzero" stroke="none" stroke-width="1" stroke-linecap="butt" stroke-linejoin="miter" stroke-miterlimit="10" stroke-dasharray="" stroke-dashoffset="0" font-family="&quot;Agency FB&quot;, Sans Serif" font-weight="normal" text-anchor="start" style="mix-blend-mode: normal"><tspan x="0" dy="0">OFF</tspan></text></g></g></svg>