<svg version="1.1" xmlns="http://www.w3.org/2000/svg" xmlns:xlink="http://www.w3.org/1999/xlink" width="785" height="491" viewBox="0,0,785,491"><defs><linearGradient x1="435.47279" y1="290.61229" x2="377.234" y2="301.64099" gradientUnits="userSpaceOnUse" id="color-1"><stop offset="0" stop-color="#780000"/><stop offset="1" stop-color="#4b0000"/></linearGradient><linearGradient x1="316.70098" y1="305.63122" x2="375.70374" y2="299.96889" gradientUnits="userSpaceOnUse" id="color-2"><stop offset="0" stop-color="#780000"/><stop offset="1" stop-color="#4b0000"/></linearGradient><linearGradient x1="229.1649" y1="192.96103" x2="280.65684" y2="222.32033" gradientUnits="userSpaceOnUse" id="color-3"><stop offset="0" stop-color="#780000"/><stop offset="1" stop-color="#4b0000"/></linearGradient><linearGradient x1="491.95376" y1="204.0731" x2="437.61435" y2="227.75045" gradientUnits="userSpaceOnUse" id="color-4"><stop offset="0" stop-color="#780000"/><stop offset="1" stop-color="#4b0000"/></linearGradient><linearGradient x1="322.00948" y1="175.75258" x2="410.1011" y2="170.72667" gradientUnits="userSpaceOnUse" id="color-5"><stop offset="0" stop-color="#780000"/><stop offset="1" stop-color="#4b0000"/></linearGradient><linearGradient x1="316.21568" y1="57.44194" x2="402.44779" y2="106.60912" gradientUnits="userSpaceOnUse" id="color-6"><stop offset="0" stop-color="#780000"/><stop offset="1" stop-color="#4b0000"/></linearGradient></defs><g transform="translate(20,47.5)"><g data-paper-data="{&quot;isPaintingLayer&quot;:true}" fill-rule="nonzero" stroke-linejoin="miter" stroke-miterlimit="10" stroke-dasharray="" stroke-dashoffset="0" style="mix-blend-mode: normal"><path d="M-19,442.5v-489h783v489z" fill="#0000ff" stroke="#000000" stroke-width="2" stroke-linecap="butt"/><path d="M209,338.5v-334h309v334z" fill="#ffffff" stroke="#000000" stroke-width="2" stroke-linecap="butt"/><g data-paper-data="{&quot;index&quot;:null}"><path d="M385.8107,206.2118l13.16692,44.79935" fill="none" stroke="#0d0d0d" stroke-width="12.5" stroke-linecap="round"/><path d="M395.23753,237.42751c16.0822,-3.04549 34.09613,20.76615 40.23526,53.18478c6.13913,32.41863 -52.09966,43.44733 -58.23879,11.0287c-6.13913,-32.41863 1.92133,-61.16798 18.00353,-64.21348z" fill="url(#color-1)" stroke="#4f0000" stroke-width="2" stroke-linecap="butt"/></g><g><path d="M340.6946,257.41864l0.14152,-46.694" fill="none" stroke="#0d0d0d" stroke-width="12.5" stroke-linecap="round"/><path d="M375.70374,299.96889c3.15194,32.8439 -55.85083,38.50623 -59.00276,5.66233c-3.15194,-32.8439 7.50112,-60.7367 23.79429,-62.30031c16.29317,-1.56361 32.05654,23.79408 35.20847,56.63798z" fill="url(#color-2)" stroke="#4f0000" stroke-width="2" stroke-linecap="butt"/></g><g><path d="M303.5633,129.28494l-27.01319,38.08723" fill="none" stroke="#0d0d0d" stroke-width="12.5" stroke-linecap="round"/><path d="M280.65684,222.32033c-16.34286,28.663 -67.8348,-0.6963 -51.49194,-29.35929c16.34286,-28.663 41.11822,-45.32665 55.33733,-37.21931c14.21911,8.10735 12.49747,37.9156 -3.84539,66.5786z" fill="url(#color-3)" stroke="#4f0000" stroke-width="2" stroke-linecap="butt"/></g><g data-paper-data="{&quot;index&quot;:null}"><path d="M447.58071,173.55786l-22.77995,-40.76056" fill="none" stroke="#0d0d0d" stroke-width="12.5" stroke-linecap="round"/><path d="M440.91955,161.14285c15.00541,-6.53832 37.85421,12.68221 51.03421,42.93026c13.18,30.24804 -41.15941,53.92539 -54.33941,23.67735c-13.18,-30.24804 -11.70021,-60.06929 3.3052,-66.6076z" fill="url(#color-4)" stroke="#4f0000" stroke-width="2" stroke-linecap="butt"/></g><path d="M410.1011,170.72667c0.62488,10.9527 7.26629,40.78531 -10.86327,53.10886c-14.08468,9.57405 -51.79842,3.60097 -63.26734,1.91735c-15.0945,-2.21585 -13.3681,-39.60795 -13.96101,-50.0003c-0.97511,-17.09119 -46.3707,-49.17107 -37.31451,-59.9047c7.19013,-8.52193 67.42707,2.4899 78.19295,1.87567c9.72009,-0.55456 63.10935,-13.42829 70.77791,-7.1223c11.52303,9.4756 -24.61503,41.7161 -23.56472,60.12542z" fill="url(#color-5)" stroke="#4f0000" stroke-width="2" stroke-linecap="butt"/><path d="M316.21568,57.44194c13.57714,-23.81234 43.88731,-32.1096 67.69965,-18.53246c23.81234,13.57714 32.1096,43.88731 18.53246,67.69965c-13.57714,23.81234 -43.88731,32.1096 -67.69964,18.53246c-23.81234,-13.57714 -32.10961,-43.88731 -18.53246,-67.69965z" fill="url(#color-6)" stroke="#4f0000" stroke-width="2" stroke-linecap="butt"/><path d="M354.21402,66.61377c0.03533,13.03305 -6.39264,23.61592 -14.35728,23.63751c-7.96464,0.02159 -14.4499,-10.52627 -14.48523,-23.55932c-0.03533,-13.03305 6.39264,-23.61592 14.35728,-23.63751c7.96464,-0.02159 14.4499,10.52627 14.48523,23.55932z" fill="#000000" stroke="none" stroke-width="0" stroke-linecap="butt"/><path d="M400.20952,80.87654c0.16501,5.59996 -14.7187,40.86361 -36.71854,41.51188c-21.99984,0.64827 -40.04639,-30.94487 -40.2114,-36.54483c-0.16501,-5.59996 17.614,16.91386 39.61383,16.26558c21.99984,-0.64827 37.15109,-26.83259 37.31611,-21.23264z" fill="#000000" stroke="#4f0000" stroke-width="0" stroke-linecap="butt"/><path d="M388.67712,64.51088c0.03533,13.03305 -6.39264,23.61592 -14.35728,23.63751c-7.96464,0.02159 -14.4499,-10.52627 -14.48523,-23.55932c-0.03533,-13.03305 6.39264,-23.61592 14.35728,-23.63751c7.96464,-0.02159 14.4499,10.52627 14.48523,23.55932z" fill="#000000" stroke="none" stroke-width="0" stroke-linecap="butt"/><path d="M380.71845,55.68606c1.84552,-0.46889 2.31441,1.37664 2.31441,1.37664l-0.0869,3.10136c-2.23405,2.45676 -3.54404,5.76418 -5.442,8.51291c0.96691,0.57774 2.13543,0.7186 3.20295,1.07831l1.90942,1.40939c0,0 1.4773,1.20141 0.2759,2.67871c-1.2014,1.47731 -2.67871,0.2759 -2.67871,0.2759l-0.77376,-0.77268c-1.32534,-0.4846 -2.77777,-0.70845 -3.97604,-1.4538c-0.17452,-0.10855 -0.34416,-0.22298 -0.50932,-0.34278c-2.15406,1.87886 -3.3858,1.92346 -6.14548,2.64791c0,0 -1.84552,0.46889 -2.31441,-1.37664c-0.46889,-1.84552 1.37664,-2.31441 1.37664,-2.31441c1.8876,-0.45983 3.01618,-0.52405 4.43289,-1.6932c-1.43048,-1.92902 -2.57772,-4.15814 -4.02621,-5.91754c-1.81948,-2.21002 -2.90413,-2.9023 -5.09772,-4.66677c0,0 -1.48242,-1.19508 -0.28734,-2.67751c1.19508,-1.48242 2.67751,-0.28734 2.67751,-0.28734c2.48388,2.0066 3.53918,2.66759 5.64333,5.20583c1.23076,1.48467 2.28907,3.65125 3.57927,5.47735c1.83351,-2.70043 3.16005,-5.9178 5.32538,-8.3346l-0.77644,0.38737c0,0 -0.46889,-1.84552 1.37664,-2.31441z" fill="#ffffff" stroke="none" stroke-width="0.5" stroke-linecap="butt"/><path d="M331.27133,63.62151l-0.8461,-0.19243c2.67616,1.83515 4.72702,4.64675 7.14798,6.83605c0.82096,-2.07974 1.33597,-4.43534 2.18004,-6.16928c1.44307,-2.9644 2.31177,-3.85655 4.24969,-6.39438c0,0 1.15717,-1.5122 2.66938,-0.35503c1.5122,1.15717 0.35503,2.66938 0.35503,2.66938c-1.71324,2.23384 -2.60305,3.16332 -3.84729,5.74142c-0.99053,2.05242 -1.57714,4.48985 -2.51001,6.7028c1.65332,0.80032 2.76499,0.59539 4.7078,0.59504c0,0 1.90407,0.01842 1.88566,1.92248c-0.01842,1.90407 -1.92248,1.88566 -1.92248,1.88566c-2.85275,-0.05018 -4.06,0.19824 -6.59779,-1.11694c-0.13208,0.15551 -0.26979,0.30687 -0.41363,0.45367c-0.98762,1.00796 -2.3457,1.56946 -3.51854,2.3542l-0.56872,0.93396c0,0 -1.1507,1.51713 -2.66784,0.36643c-1.51713,-1.1507 -0.36643,-2.66784 -0.36643,-2.66784l1.52126,-1.82155c0.95194,-0.60233 2.05385,-1.01595 2.8564,-1.80627c-2.49502,-2.22096 -4.55113,-5.12398 -7.30352,-6.98167l-0.81902,-2.99252c0,0 0.01842,-1.90407 1.92248,-1.88566c1.90407,0.01842 1.88565,1.92248 1.88565,1.92248z" data-paper-data="{&quot;index&quot;:null}" fill="#ffffff" stroke="none" stroke-width="0.5" stroke-linecap="butt"/><text transform="translate(13,38.5) scale(0.5,0.5)" font-size="40" xml:space="preserve" fill="#ceff00" fill-rule="nonzero" stroke="none" stroke-width="1" stroke-linecap="butt" stroke-linejoin="miter" stroke-miterlimit="10" stroke-dasharray="" stroke-dashoffset="0" font-family="&quot;GovtAgentBB&quot;, Serif" font-weight="normal" text-anchor="start" style="mix-blend-mode: normal"><tspan x="0" dy="0">Buy the Brand New !</tspan><tspan x="0" dy="46.15px"> </tspan><tspan x="0" dy="46.15px">buy the Gary Plushy</tspan><tspan x="0" dy="46.15px">for only 0.69$</tspan><tspan x="0" dy="46.15px"> </tspan><tspan x="0" dy="46.15px">Call :</tspan><tspan x="0" dy="46.15px"> </tspan><tspan x="0" dy="46.15px">119-911-ASC Now !</tspan></text></g></g></svg>