<svg version="1.1" xmlns="http://www.w3.org/2000/svg" xmlns:xlink="http://www.w3.org/1999/xlink" width="63.66667" height="20.42232" viewBox="0,0,63.66667,20.42232"><g transform="translate(-304.24028,-248.41101)"><g fill="#1f3d4d" stroke-width="0" stroke-miterlimit="10"><path d="M304.24028,258.62217c0,-5.63947 7.16345,-10.21116 16,-10.21116c8.83655,0 16,4.57169 16,10.21116c0,5.63947 -7.16345,10.21116 -16,10.21116c-8.83655,0 -16,-4.57169 -16,-10.21116zM309.94792,260.5c1.38071,0 2.5,-1.11929 2.5,-2.5c0,-1.38071 -1.11929,-2.5 -2.5,-2.5c-1.38071,0 -2.5,1.11929 -2.5,2.5c0,1.38071 1.11929,2.5 2.5,2.5z" stroke="#424242"/><path d="M327.24028,261.17458v-5.1048h40.66667v5.1048z" stroke="#424242"/><path d="M354.90695,257.72698v-7.65696l5.55555,-1.65901l6.03911,2.68674l-7.43129,1.58702l5.28108,3.25558l-3.77778,1.78662z" stroke="none"/></g></g></svg>