<svg version="1.1" xmlns="http://www.w3.org/2000/svg" xmlns:xlink="http://www.w3.org/1999/xlink" width="133.4901" height="330.46384" viewBox="0,0,133.4901,330.46384"><defs><linearGradient x1="328.92091" y1="321.38759" x2="328.92091" y2="322.95572" gradientUnits="userSpaceOnUse" id="color-1"><stop offset="0" stop-color="#000000" stop-opacity="0"/><stop offset="1" stop-color="#000000"/></linearGradient><linearGradient x1="359.32918" y1="321.38759" x2="359.32918" y2="322.95572" gradientUnits="userSpaceOnUse" id="color-2"><stop offset="0" stop-color="#000000" stop-opacity="0"/><stop offset="1" stop-color="#000000"/></linearGradient><linearGradient x1="344.34848" y1="108.79886" x2="344.34848" y2="113.15721" gradientUnits="userSpaceOnUse" id="color-3"><stop offset="0" stop-color="#000000" stop-opacity="0"/><stop offset="1" stop-color="#000000"/></linearGradient></defs><g transform="translate(-293.25495,-14.76808)"><g stroke-miterlimit="10"><path d="" fill="#000000" stroke="#000000" stroke-width="0"/><g stroke="#2b2b2b" stroke-width="0"><g><path d="M336.29787,340.10142c-1.07181,4.21123 -4.57145,3.29349 -9.08055,3.30059c-6.0322,0.0095 -13.66914,-0.39486 -17.77978,-4.50549c-4.97351,-4.97352 -8.49935,-3.32661 -7.97792,-4.1867c0.83917,-1.38422 0.31985,-1.53871 2.52969,-3.74855c5.15234,-5.15233 14.26407,-9.26107 22.14264,-10.37938c1.82883,-0.25959 3.41547,-0.30123 5.04646,-0.0742c1.13872,0.15851 2.38914,0.44799 3.37767,0.88569c5.46201,2.41853 4.46689,10.68254 2.587,18.18414c-0.48365,1.92997 -0.19041,-2.04884 -0.8452,0.52389z" fill="#323232"/><path d="M329.46513,332.93012c4.56175,0 8.25978,2.09799 8.25978,6.85386c0,4.75587 -3.69803,5.44794 -8.25978,5.44794c-4.56175,0 -8.25978,-0.69207 -8.25978,-5.44794c0,-4.75587 3.69803,-6.85386 8.25978,-6.85386z" fill="#2b2b2b"/><path d="M318.21778,332.93012c4.56174,0 8.25978,2.09799 8.25978,6.85386c0,4.75587 -3.69803,5.44794 -8.25978,5.44794c-4.56175,0 -8.25978,-0.69207 -8.25978,-5.44794c0,-4.75587 3.69803,-6.85386 8.25978,-6.85386z" fill="#2b2b2b"/><path d="M306.85326,332.22717c4.56174,0 8.25978,2.09799 8.25978,6.85386c0,4.75587 -3.69803,5.44794 -8.25978,5.44794c-4.56175,0 -8.25978,-0.69207 -8.25978,-5.44794c0,-4.75587 3.69803,-6.85386 8.25978,-6.85386z" fill="#2b2b2b"/><path d="M323.46306,322.13471c0.04937,-0.74711 2.48037,-1.39604 5.41346,-1.20222c2.93309,0.19383 5.25756,1.157 5.20819,1.90411c-0.04937,0.74711 -2.45388,0.99523 -5.38698,0.8014c-2.93309,-0.19383 -5.28405,-0.75619 -5.23468,-1.50329z" fill="#000000"/></g><g><path d="M336.39829,340.00099c-1.07181,4.21123 -4.57145,3.29349 -9.08055,3.30059c-6.0322,0.0095 -13.66914,-0.39486 -17.77978,-4.50549c-4.97351,-4.97352 -8.49935,-3.32661 -7.97792,-4.1867c0.83917,-1.38422 0.31985,-1.53871 2.52969,-3.74855c5.15234,-5.15233 14.26407,-9.26107 22.14264,-10.37938c1.82883,-0.25959 3.41547,-0.30123 5.04646,-0.0742c1.13872,0.15851 2.38914,0.44799 3.37767,0.88569c5.46201,2.41853 4.46689,10.68254 2.587,18.18414c-0.48365,1.92997 -0.19041,-2.04884 -0.8452,0.52389z" fill="#2f2f2f"/><path d="M329.56556,332.8297c4.56175,0 8.25978,2.09799 8.25978,6.85386c0,4.75587 -3.69803,5.44794 -8.25978,5.44794c-4.56175,0 -8.25978,-0.69207 -8.25978,-5.44794c0,-4.75587 3.69803,-6.85386 8.25978,-6.85386z" fill="#2b2b2b"/><path d="M318.31821,332.8297c4.56174,0 8.25978,2.09799 8.25978,6.85386c0,4.75587 -3.69803,5.44794 -8.25978,5.44794c-4.56175,0 -8.25978,-0.69207 -8.25978,-5.44794c0,-4.75587 3.69803,-6.85386 8.25978,-6.85386z" fill="#2b2b2b"/><path d="M306.95368,332.12674c4.56174,0 8.25978,2.09799 8.25978,6.85386c0,4.75587 -3.69803,5.44794 -8.25978,5.44794c-4.56175,0 -8.25978,-0.69207 -8.25978,-5.44794c0,-4.75587 3.69803,-6.85386 8.25978,-6.85386z" fill="#2b2b2b"/><path d="M323.56348,322.03429c0.04937,-0.74711 2.48037,-1.39604 5.41347,-1.20222c2.93309,0.19383 5.25756,1.157 5.20819,1.90411c-0.04937,0.74711 -2.45388,0.99523 -5.38698,0.8014c-2.93309,-0.19383 -5.28405,-0.75619 -5.23468,-1.50329z" fill="#000000"/></g><path d="M329.14746,315.30043c2.10142,0 3.80497,1.70354 3.80497,3.80497c0,2.10143 -1.70355,3.80497 -3.80497,3.80497c-2.10142,0 -3.80496,-1.70354 -3.80496,-3.80497c0,-2.10143 1.70354,-3.80497 3.80496,-3.80497z" fill="#4e4e4e"/><path d="M322.90724,309.46853c0,-3.44638 2.79384,-6.24022 6.24022,-6.24022c3.44638,0 6.24022,2.79384 6.24022,6.24022c0,3.44638 -2.79384,6.24022 -6.24022,6.24022c-3.44638,0 -6.24022,-2.79384 -6.24022,-6.24022z" fill="#4e4e4e"/><path d="M322.90724,263.89943c0,-3.44638 2.79384,-6.24022 6.24022,-6.24022c3.44638,0 6.24022,2.79384 6.24022,6.24022c0,3.44638 -2.79384,6.24022 -6.24022,6.24022c-3.44638,0 -6.24022,-2.79384 -6.24022,-6.24022z" fill="#4e4e4e"/><path d="M322.90724,211.39879c0,-3.44637 2.79384,-6.24022 6.24022,-6.24022c3.44637,0 6.24022,2.79384 6.24022,6.24022c0,3.44637 -2.79384,6.24022 -6.24022,6.24022c-3.44637,0 -6.24022,-2.79384 -6.24022,-6.24022z" fill="#4e4e4e"/><path d="M343.07246,240.95413c0,29.93802 -6.23443,23.35452 -13.92501,23.35452c-7.69058,0 -13.92501,6.58349 -13.92501,-23.35452c0,-29.93803 6.23443,-30.35757 13.92501,-30.35757c7.69058,0 13.92501,0.41955 13.92501,30.35757z" fill="#2b2b2b"/><path d="M342.04278,289.42884c0,29.49286 -5.77344,30.82032 -12.89532,30.82032c-7.12188,0 -12.89531,-1.32746 -12.89531,-30.82032c0,-29.49286 5.77342,-23.0898 12.89531,-23.0898c7.12188,0 12.89532,-6.40304 12.89532,23.0898z" fill="#2b2b2b"/><path d="M339.01942,265.27678c0,2.26868 -4.41983,7.25902 -9.87197,7.25902c-5.45214,0 -9.87197,-4.99033 -9.87197,-7.25902c0,-2.26868 4.41983,-5.79596 9.87197,-5.79596c5.45214,0 9.87197,3.52727 9.87197,5.79596z" fill="#262626"/><path d="M325.08168,322.95572v-1.56814h7.67848v1.56814z" fill="url(#color-1)"/></g><g stroke="#2b2b2b" stroke-width="0"><g><path d="M351.95227,340.10141c-0.65479,-2.57273 -0.36155,1.40607 -0.8452,-0.52389c-1.8799,-7.50159 -2.87501,-15.76561 2.587,-18.18414c0.98852,-0.4377 2.23894,-0.72719 3.37767,-0.88569c1.63099,-0.22703 3.21764,-0.18539 5.04646,0.0742c7.87858,1.11832 16.9903,5.22705 22.14264,10.37938c2.20984,2.20984 1.69051,2.36433 2.52969,3.74855c0.52143,0.86009 -3.00441,-0.78682 -7.97792,4.1867c-4.11063,4.11063 -11.74758,4.51499 -17.77978,4.50549c-4.5091,-0.0071 -8.00874,0.91064 -9.08055,-3.30059z" fill="#323232"/><path d="M367.04474,339.78399c0,4.75587 -3.69803,5.44794 -8.25978,5.44794c-4.56175,0 -8.25978,-0.69207 -8.25978,-5.44794c0,-4.75587 3.69803,-6.85386 8.25978,-6.85386c4.56175,0 8.25978,2.09799 8.25978,6.85386z" fill="#2b2b2b"/><path d="M378.2921,339.78399c0,4.75587 -3.69803,5.44794 -8.25978,5.44794c-4.56174,0 -8.25978,-0.69207 -8.25978,-5.44794c0,-4.75587 3.69803,-6.85386 8.25978,-6.85386c4.56175,0 8.25978,2.09799 8.25978,6.85386z" fill="#2b2b2b"/><path d="M389.65665,339.08103c0,4.75587 -3.69803,5.44794 -8.25978,5.44794c-4.56174,0 -8.25978,-0.69207 -8.25978,-5.44794c0,-4.75587 3.69803,-6.85386 8.25978,-6.85386c4.56175,0 8.25978,2.09799 8.25978,6.85386z" fill="#2b2b2b"/><path d="M359.55238,323.63801c-2.93309,0.19383 -5.33761,-0.05429 -5.38698,-0.8014c-0.04937,-0.74711 2.27511,-1.71029 5.20819,-1.90411c2.93309,-0.19383 5.36409,0.45511 5.41346,1.20222c0.04937,0.74711 -2.30159,1.30947 -5.23467,1.50329z" fill="#000000"/></g><g><path d="M351.85184,340.00098c-0.65479,-2.57273 -0.36155,1.40607 -0.8452,-0.52389c-1.8799,-7.50159 -2.87501,-15.76561 2.587,-18.18414c0.98852,-0.4377 2.23894,-0.72719 3.37767,-0.88569c1.63099,-0.22703 3.21764,-0.18539 5.04646,0.0742c7.87858,1.11832 16.9903,5.22705 22.14264,10.37938c2.20984,2.20984 1.69051,2.36433 2.52969,3.74855c0.52143,0.86009 -3.00441,-0.78682 -7.97792,4.1867c-4.11063,4.11063 -11.74758,4.51499 -17.77978,4.50549c-4.5091,-0.0071 -8.00874,0.91064 -9.08055,-3.30059z" fill="#2f2f2f"/><path d="M366.94435,339.68356c0,4.75587 -3.69803,5.44794 -8.25978,5.44794c-4.56175,0 -8.25978,-0.69207 -8.25978,-5.44794c0,-4.75587 3.69803,-6.85386 8.25978,-6.85386c4.56175,0 8.25978,2.09799 8.25978,6.85386z" fill="#2b2b2b"/><path d="M378.1917,339.68356c0,4.75587 -3.69803,5.44794 -8.25978,5.44794c-4.56174,0 -8.25978,-0.69207 -8.25978,-5.44794c0,-4.75587 3.69803,-6.85386 8.25978,-6.85386c4.56175,0 8.25978,2.09799 8.25978,6.85386z" fill="#2b2b2b"/><path d="M389.5562,338.9806c0,4.75587 -3.69803,5.44794 -8.25978,5.44794c-4.56174,0 -8.25978,-0.69207 -8.25978,-5.44794c0,-4.75587 3.69803,-6.85386 8.25978,-6.85386c4.56175,0 8.25978,2.09799 8.25978,6.85386z" fill="#2b2b2b"/><path d="M359.45198,323.53758c-2.93309,0.19383 -5.33761,-0.05429 -5.38698,-0.8014c-0.04937,-0.74711 2.27511,-1.71029 5.20819,-1.90411c2.93309,-0.19383 5.36409,0.45511 5.41346,1.20222c0.04937,0.74711 -2.30159,1.30947 -5.23467,1.50329z" fill="#000000"/></g><path d="M362.90761,319.1054c0,2.10143 -1.70354,3.80497 -3.80497,3.80497c-2.10143,0 -3.80497,-1.70354 -3.80497,-3.80497c0,-2.10143 1.70355,-3.80497 3.80497,-3.80497c2.10142,0 3.80497,1.70354 3.80497,3.80497z" fill="#4e4e4e"/><path d="M359.10265,315.70877c-3.44638,0 -6.24022,-2.79384 -6.24022,-6.24022c0,-3.44638 2.79384,-6.24022 6.24022,-6.24022c3.44638,0 6.24022,2.79384 6.24022,6.24022c0,3.44638 -2.79384,6.24022 -6.24022,6.24022z" fill="#4e4e4e"/><path d="M359.10265,270.13964c-3.44638,0 -6.24022,-2.79384 -6.24022,-6.24022c0,-3.44638 2.79384,-6.24022 6.24022,-6.24022c3.44638,0 6.24022,2.79384 6.24022,6.24022c0,3.44638 -2.79384,6.24022 -6.24022,6.24022z" fill="#4e4e4e"/><path d="M359.10265,217.639c-3.44638,0 -6.24022,-2.79384 -6.24022,-6.24022c0,-3.44638 2.79384,-6.24022 6.24022,-6.24022c3.44638,0 6.24022,2.79384 6.24022,6.24022c0,3.44638 -2.79385,6.24022 -6.24022,6.24022z" fill="#4e4e4e"/><path d="M359.10265,210.59656c7.69058,0 13.92501,0.41954 13.92501,30.35757c0,29.93802 -6.23443,23.35452 -13.92501,23.35452c-7.69058,0 -13.92501,6.5835 -13.92501,-23.35452c0,-29.93802 6.23443,-30.35757 13.92501,-30.35757z" fill="#2b2b2b"/><path d="M359.10265,266.33904c7.12189,0 12.89531,-6.40306 12.89531,23.0898c0,29.49286 -5.77343,30.82032 -12.89531,30.82032c-7.12188,0 -12.89532,-1.32746 -12.89532,-30.82032c0,-29.49285 5.77344,-23.0898 12.89532,-23.0898z" fill="#2b2b2b"/><path d="M359.10265,259.48082c5.45214,0 9.87197,3.52728 9.87197,5.79596c0,2.26868 -4.41983,7.25902 -9.87197,7.25902c-5.45213,0 -9.87197,-4.99033 -9.87197,-7.25902c0,-2.26869 4.41982,-5.79596 9.87197,-5.79596z" fill="#262626"/><path d="M355.48997,322.95572v-1.56814h7.67848v1.56814z" fill="url(#color-2)"/></g><g fill="#262626" stroke="#2b2b2b" stroke-width="0"><g><path d="M345.61662,213.14964c-4.66966,0 -8.8437,-2.77378 -12.90159,-3.53272c-5.63393,-1.0537 -8.61663,1.23762 -11.13966,-2.72332c-1.58446,-2.48747 -2.25976,-13.90208 -2.25976,-16.17233c0,-8.48904 11.07654,-13.54308 26.301,-13.54308c7.84968,0 7.37479,35.97146 0,35.97146z"/></g><g><path d="M342.63354,177.17818c15.22446,0 26.301,5.05404 26.301,13.54308c0,2.27025 -0.6753,13.68487 -2.25976,16.17233c-2.52303,3.96095 -5.50572,1.66962 -11.13966,2.72332c-4.05789,0.75894 -8.23193,3.53272 -12.90159,3.53272c-7.37479,0 -7.84968,-35.97146 0,-35.97146z"/></g></g><g stroke="#2b2b2b" stroke-width="0"><path d="M382.62669,226.28223c-2.89176,0 -5.23599,-2.34423 -5.23599,-5.23599c0,-2.89176 2.34423,-5.23599 5.23599,-5.23599c2.89175,0 5.23598,2.34423 5.23598,5.23599c0,2.89176 -2.34422,5.23599 -5.23598,5.23599z" fill="#4e4e4e"/><path d="M382.62669,180.71312c-2.89176,0 -5.23599,-2.34423 -5.23599,-5.23599c0,-2.89176 2.34423,-5.23599 5.23599,-5.23599c2.89175,0 5.23598,2.34423 5.23598,5.23599c0,2.89176 -2.34422,5.23599 -5.23598,5.23599z" fill="#4e4e4e"/><path d="M382.62669,128.73969c-2.89176,0 -5.23599,-2.34424 -5.23599,-5.23599c0,-2.89176 2.34424,-5.23599 5.23599,-5.23599c2.89176,0 5.23599,2.34424 5.23599,5.23599c0,2.89176 -2.34424,5.23599 -5.23599,5.23599z" fill="#4e4e4e"/><path d="M382.62669,122.70147c6.83091,0 12.36846,0.4019 12.36846,29.08093c0,28.67902 -5.53754,22.37239 -12.36846,22.37239c-6.83091,0 -12.36846,6.30663 -12.36846,-22.37239c0,-28.67902 5.53754,-29.08093 12.36846,-29.08093z" fill="#2b2b2b"/><path d="M382.62669,176.25369c6.32579,0 11.45386,-5.51518 11.45386,19.88806c0,25.40324 -5.12806,26.54663 -11.45386,26.54663c-6.32579,0 -11.45386,-1.14339 -11.45386,-26.54663c0,-25.40323 5.12807,-19.88806 11.45386,-19.88806z" fill="#2b2b2b"/></g><path d="M347.29684,115.5723l1.83241,-6.54355l34.7485,9.73076l-1.83241,6.54355z" fill="#4e4e4e" stroke="#2b2b2b" stroke-width="0"/><g stroke="#2b2b2b" stroke-width="0"><path d="M382.62669,226.28222c-2.89176,0 -5.23599,-2.34423 -5.23599,-5.23599c0,-2.89175 2.34423,-5.23599 5.23599,-5.23599c2.89176,0 5.23599,2.34423 5.23599,5.23599c0,2.89175 -2.34423,5.23599 -5.23599,5.23599z" fill="#4e4e4e"/><path d="M382.62669,180.71312c-2.89176,0 -5.23599,-2.34423 -5.23599,-5.23599c0,-2.89175 2.34423,-5.23599 5.23599,-5.23599c2.89176,0 5.23599,2.34424 5.23599,5.23599c0,2.89176 -2.34423,5.23599 -5.23599,5.23599z" fill="#4e4e4e"/><path d="M382.62669,128.73969c-2.89176,0 -5.23599,-2.34424 -5.23599,-5.23599c0,-2.89176 2.34423,-5.23599 5.23599,-5.23599c2.89176,0 5.23599,2.34423 5.23599,5.23599c0,2.89175 -2.34423,5.23599 -5.23599,5.23599z" fill="#4e4e4e"/><path d="M382.62669,122.70147c6.83091,0 12.36846,0.4019 12.36846,29.08093c0,28.67903 -5.53754,22.37239 -12.36846,22.37239c-6.83091,0 -12.36846,6.30663 -12.36846,-22.37239c0,-28.67903 5.53755,-29.08093 12.36846,-29.08093z" fill="#2b2b2b"/><path d="M382.62669,176.25369c6.32579,0 11.45386,-5.51518 11.45386,19.88806c0,25.40324 -5.12807,26.54663 -11.45386,26.54663c-6.32579,0 -11.45386,-1.14339 -11.45386,-26.54663c0,-25.40324 5.12807,-19.88806 11.45386,-19.88806z" fill="#2b2b2b"/></g><path d="M306.20479,125.30306l-1.83241,-6.54355l34.74851,-9.73076l1.83241,6.54355z" fill="#4e4e4e" stroke="#2b2b2b" stroke-width="0"/><g stroke="#2b2b2b" stroke-width="0"><path d="M300.38744,221.04624c0,-2.89176 2.34423,-5.23599 5.23598,-5.23599c2.89176,0 5.23599,2.34423 5.23599,5.23599c0,2.89176 -2.34423,5.23599 -5.23599,5.23599c-2.89176,0 -5.23598,-2.34423 -5.23598,-5.23599z" fill="#4e4e4e"/><path d="M300.38744,175.47713c0,-2.89176 2.34423,-5.23599 5.23598,-5.23599c2.89176,0 5.23599,2.34423 5.23599,5.23599c0,2.89176 -2.34423,5.23599 -5.23599,5.23599c-2.89176,0 -5.23598,-2.34423 -5.23598,-5.23599z" fill="#4e4e4e"/><path d="M300.38744,123.50371c0,-2.89175 2.34423,-5.23599 5.23599,-5.23599c2.89175,0 5.23599,2.34423 5.23599,5.23599c0,2.89175 -2.34423,5.23599 -5.23599,5.23599c-2.89175,0 -5.23599,-2.34423 -5.23599,-5.23599z" fill="#4e4e4e"/><path d="M317.99187,151.7824c0,28.67902 -5.53754,22.37239 -12.36846,22.37239c-6.83091,0 -12.36846,6.30663 -12.36846,-22.37239c0,-28.67902 5.53754,-29.08093 12.36846,-29.08093c6.83091,0 12.36846,0.4019 12.36846,29.08093z" fill="#2b2b2b"/><path d="M317.07728,196.14176c0,25.40324 -5.12807,26.54663 -11.45386,26.54663c-6.32579,0 -11.45386,-1.14339 -11.45386,-26.54663c0,-25.40324 5.12806,-19.88806 11.45386,-19.88806c6.32579,0 11.45386,-5.51517 11.45386,19.88806z" fill="#2b2b2b"/></g><g fill="#2b2b2b" stroke="#2b2b2b" stroke-width="0"><g><path d="M343.93207,204.53228c-16.92652,0 -26.4987,0.79402 -26.4987,-26.86809c0,-8.34811 -8.36081,-27.07039 -6.877,-33.94874c3.43293,-15.91358 21.55741,-15.94657 33.3757,-15.94657c4.32012,0 4.144,76.7634 0,76.7634z"/></g><g><path d="M344.31807,127.76888c11.81829,0 29.94277,0.03299 33.3757,15.94657c1.48382,6.87834 -6.877,25.60062 -6.877,33.94873c0,27.66211 -9.57219,26.86809 -26.49871,26.86809c-4.144,0 -4.32012,-76.7634 0,-76.7634z"/></g></g><g fill="#2b2b2b" stroke="#2b2b2b" stroke-width="0"><path d="M342.9145,143.24672c0,17.03376 -4.7926,30.84236 -10.70457,30.84236c-5.91197,0 -25.28101,-24.00151 -25.28101,-41.03528c0,-17.03376 15.75996,-23.5424 21.01786,-24.84017c5.78196,-1.42712 14.96771,17.99932 14.96771,35.03308z"/><path d="M360.3033,108.21364c5.25789,1.29777 21.01786,7.8064 21.01786,24.84017c0,17.03376 -19.36903,41.03528 -25.281,41.03528c-5.91197,0 -10.70457,-13.8086 -10.70457,-30.84237c0,-17.03376 9.18575,-36.4602 14.96771,-35.03308z"/><path d="M344.12506,138.92239c-12.09503,0 -21.89999,-22.80305 -21.89999,-26.50745c0,-3.7044 9.80495,-6.7074 21.89999,-6.7074c12.09503,0 21.9,3.00301 21.9,6.7074c0,3.7044 -9.80497,26.50745 -21.9,26.50745z"/><path d="M370.85513,150.01158c0,15.29642 -11.96749,27.69662 -26.73012,27.69662c-14.76263,0 -26.73011,-12.4002 -26.73011,-27.69662c0,-15.29642 11.96748,-27.69662 26.73011,-27.69662c14.76263,0 26.73012,12.4002 26.73012,27.69662z"/></g><g fill="#323232" stroke="#2b2b2b" stroke-width="0"><g><g><path d="M343.96134,202.42349c-14.35801,0 -22.47767,0.76202 -22.47767,-25.78511c0,-8.01163 -7.0921,-25.97926 -5.83345,-32.58035c2.912,-15.27215 18.28619,-15.30381 28.31112,-15.30381c3.66457,0 3.51516,73.66928 0,73.66928z"/></g><g><path d="M344.28878,128.75421c10.02493,0 25.39912,0.03166 28.31112,15.30381c1.25866,6.6011 -5.83345,24.56873 -5.83345,32.58035c0,26.54713 -8.11966,25.78511 -22.47767,25.78511c-3.51516,0 -3.66457,-73.66928 0,-73.66928z"/></g></g><g><path d="M343.09819,143.60819c0,16.34718 -4.06534,29.59919 -9.08021,29.59919c-5.01487,0 -21.44475,-23.03408 -21.44475,-39.38126c0,-16.34718 13.36847,-22.59346 17.82852,-23.83893c4.90458,-1.3696 12.69644,17.27382 12.69644,33.621z"/><path d="M357.84835,109.98719c4.46004,1.24546 17.82852,7.49174 17.82852,23.83893c0,16.34718 -16.42988,39.38126 -21.44474,39.38126c-5.01487,0 -9.08021,-13.25201 -9.08021,-29.59919c0,-16.34718 7.79187,-34.9906 12.69644,-33.621z"/><path d="M344.12506,139.45815c-10.25968,0 -18.57679,-21.88392 -18.57679,-25.439c0,-3.55509 8.31711,-6.43705 18.57679,-6.43705c10.25968,0 18.57679,2.88197 18.57679,6.43705c0,3.55509 -8.31711,25.439 -18.57679,25.439z"/><path d="M366.79902,150.10037c0,14.67987 -10.15148,26.58024 -22.67397,26.58024c-12.52248,0 -22.67396,-11.90038 -22.67396,-26.58024c0,-14.67987 10.15148,-26.58024 22.67396,-26.58024c12.52248,0 22.67397,11.90038 22.67397,26.58024z"/></g></g><path d="M356.87064,109.42737c0,1.85904 -5.70642,4.44757 -12.74565,4.44757c-7.03923,0 -12.74565,-2.58853 -12.74565,-4.44757c0,-1.85904 5.70642,-3.36609 12.74565,-3.36609c7.03923,0 12.74565,1.50705 12.74565,3.36609z" fill="#000000" stroke="#2b2b2b" stroke-width="0"/><path d="M356.95404,127.47599c0,-6.54259 2.59481,-12.26997 2.3977,-16.13842c-0.14531,-2.85187 -4.07197,-4.63405 -3.52243,-4.63405c6.7941,0 27.25141,7.24553 27.25141,20.18666c0,4.8853 -3.56048,19.61415 -6.31666,31.97423c-1.47849,6.63026 5.30134,28.76265 3.88607,35.4067c-1.75471,8.23762 -19.40646,9.94464 -20.64993,9.94464c-3.31279,0 0.25676,-36.15492 -1.09861,-46.49136c-1.42431,-10.86223 -1.94756,-23.61737 -1.94756,-30.24842z" fill="#770000" stroke="#2b2b2b" stroke-width="0"/><g stroke="#2b2b2b" stroke-width="0"><g><path d="M391.61435,261.01554c-0.76412,0 -1.38356,-0.61945 -1.38356,-1.38357c0,-0.76412 0.61944,-1.38356 1.38356,-1.38356c0.76412,0 1.38355,0.61944 1.38355,1.38356c0,0.76412 -0.61943,1.38357 -1.38355,1.38357z" fill="#4e4e4e"/><path d="M391.61435,252.73097c-0.76412,0 -1.38356,-0.61944 -1.38356,-1.38356c0,-0.76412 0.61944,-1.38356 1.38356,-1.38356c0.76412,0 1.38355,0.61944 1.38355,1.38356c0,0.76412 -0.61943,1.38356 -1.38355,1.38356z" fill="#4e4e4e"/><path d="M391.61435,241.29686c1.5239,0 2.75926,0.37467 2.75926,5.0915c0,4.71684 -1.23536,4.92726 -2.75926,4.92726c-1.5239,0 -2.75926,-0.21042 -2.75926,-4.92726c0,-4.71684 1.23537,-5.0915 2.75926,-5.0915z" fill="#262626"/><path d="M388.85505,255.16519c0,-4.71684 1.23537,-3.63386 2.75926,-3.63386c1.5239,0 2.75926,-1.08298 2.75926,3.63386c0,4.71684 -1.23537,5.0915 -2.75926,5.0915c-1.5239,0 -2.75926,-0.37467 -2.75926,-5.0915z" fill="#262626"/></g><g><path d="M385.96731,261.89471c-0.76412,0 -1.38356,-0.61944 -1.38356,-1.38356c0,-0.76412 0.61944,-1.38356 1.38356,-1.38356c0.76412,0 1.38355,0.61944 1.38355,1.38356c0,0.76412 -0.61943,1.38356 -1.38355,1.38356z" fill="#4e4e4e"/><path d="M385.96731,253.61014c-0.76412,0 -1.38356,-0.61944 -1.38356,-1.38356c0,-0.76412 0.61944,-1.38356 1.38356,-1.38356c0.76412,0 1.38356,0.61944 1.38356,1.38356c0,0.76412 -0.61944,1.38356 -1.38356,1.38356z" fill="#4e4e4e"/><path d="M385.96731,242.17604c1.5239,0 2.75926,0.37467 2.75926,5.0915c0,4.71684 -1.23537,4.92726 -2.75926,4.92726c-1.5239,0 -2.75927,-0.21042 -2.75927,-4.92726c0,-4.71684 1.23537,-5.0915 2.75927,-5.0915z" fill="#262626"/><path d="M383.20804,256.04437c0,-4.71684 1.23537,-3.63385 2.75927,-3.63385c1.5239,0 2.75926,-1.08299 2.75926,3.63385c0,4.71684 -1.23537,5.0915 -2.75926,5.0915c-1.5239,0 -2.75927,-0.37467 -2.75927,-5.0915z" fill="#262626"/></g><g><path d="M380.38788,262.87532c-0.76412,0 -1.38356,-0.61944 -1.38356,-1.38356c0,-0.76412 0.61944,-1.38356 1.38356,-1.38356c0.76412,0 1.38355,0.61944 1.38355,1.38356c0,0.76412 -0.61943,1.38356 -1.38355,1.38356z" fill="#4e4e4e"/><path d="M380.38788,254.59077c-0.76412,0 -1.38356,-0.61944 -1.38356,-1.38356c0,-0.76412 0.61944,-1.38356 1.38356,-1.38356c0.76412,0 1.38356,0.61944 1.38356,1.38356c0,0.76412 -0.61944,1.38356 -1.38356,1.38356z" fill="#4e4e4e"/><path d="M380.38788,243.15666c1.5239,0 2.75927,0.37467 2.75927,5.0915c0,4.71684 -1.23537,4.92726 -2.75927,4.92726c-1.5239,0 -2.75926,-0.21043 -2.75926,-4.92726c0,-4.71684 1.23537,-5.0915 2.75926,-5.0915z" fill="#262626"/><path d="M377.62867,257.02499c0,-4.71684 1.23537,-3.63386 2.75927,-3.63386c1.5239,0 2.75926,-1.08298 2.75926,3.63386c0,4.71684 -1.23537,5.0915 -2.75926,5.0915c-1.5239,0 -2.75927,-0.37467 -2.75927,-5.0915z" fill="#262626"/></g><g><path d="M374.74733,261.00314c-0.76412,0 -1.38356,-0.61943 -1.38356,-1.38355c0,-0.76412 0.61944,-1.38356 1.38356,-1.38356c0.76412,0 1.38356,0.61944 1.38356,1.38356c0,0.76412 -0.61944,1.38355 -1.38356,1.38355z" fill="#4e4e4e"/><path d="M374.74733,252.71858c-0.76412,0 -1.38356,-0.61944 -1.38356,-1.38356c0,-0.76412 0.61944,-1.38356 1.38356,-1.38356c0.76412,0 1.38356,0.61944 1.38356,1.38356c0,0.76412 -0.61944,1.38356 -1.38356,1.38356z" fill="#4e4e4e"/><path d="M374.74733,241.28448c1.5239,0 2.75927,0.37467 2.75927,5.0915c0,4.71684 -1.23537,4.92727 -2.75927,4.92727c-1.5239,0 -2.75926,-0.21043 -2.75926,-4.92727c0,-4.71684 1.23537,-5.0915 2.75926,-5.0915z" fill="#262626"/><path d="M371.98806,255.1528c0,-4.71684 1.23537,-3.63385 2.75926,-3.63385c1.5239,0 2.75927,-1.08298 2.75927,3.63385c0,4.71684 -1.23537,5.09151 -2.75927,5.09151c-1.5239,0 -2.75926,-0.37467 -2.75926,-5.09151z" fill="#262626"/></g><g><path d="M371.76944,231.50828c-0.57764,-0.57764 -0.57765,-1.51418 -0.00001,-2.09183c0.57764,-0.57764 1.51419,-0.57765 2.09183,-0.00001c0.57764,0.57764 0.57764,1.51419 -0.00001,2.09183c-0.57764,0.57764 -1.51418,0.57764 -2.09183,0z" fill="#4e4e4e"/><path d="M363.47977,239.79793c-0.57764,-0.57764 -0.57765,-1.51418 -0.00001,-2.09183c0.57764,-0.57764 1.51419,-0.57764 2.09183,0c0.57764,0.57764 0.57764,1.51418 -0.00001,2.09183c-0.57764,0.57764 -1.51418,0.57764 -2.09183,0z" fill="#4e4e4e"/><path d="M373.15567,230.122c1.15201,1.15201 1.73994,2.43185 -2.61547,6.78727c-4.35542,4.35542 -5.48361,3.61584 -6.63562,2.46382c-1.15201,-1.15201 -1.8916,-2.2802 2.46382,-6.63562c4.35542,-4.35542 5.63527,-3.76748 6.78728,-2.61547z" fill="#262626"/></g><path d="M390.26142,224.17188c1.6611,1.36733 7.21941,19.08428 2.45232,22.27186c-6.11797,4.09086 -19.89622,2.46893 -20.59917,-3.0471c-0.87841,-6.89282 -0.88638,-17.24863 4.51114,-20.18633c1.32198,-0.71951 4.56676,0.04002 6.03326,0.04002c2.19629,0 5.7697,-0.58708 7.60246,0.92156z" fill="#2b2b2b"/></g><g stroke="#2b2b2b" stroke-width="0"><g><path d="M295.25219,259.63196c0,-0.76412 0.61944,-1.38356 1.38355,-1.38356c0.76412,0 1.38356,0.61944 1.38356,1.38356c0,0.76412 -0.61944,1.38357 -1.38356,1.38357c-0.76412,0 -1.38355,-0.61945 -1.38355,-1.38357z" fill="#4e4e4e"/><path d="M295.25219,251.34742c0,-0.76412 0.61944,-1.38356 1.38355,-1.38356c0.76412,0 1.38356,0.61944 1.38356,1.38356c0,0.76412 -0.61944,1.38356 -1.38356,1.38356c-0.76412,0 -1.38355,-0.61944 -1.38355,-1.38356z" fill="#4e4e4e"/><path d="M299.39502,246.38837c0,4.71684 -1.23537,4.92726 -2.75926,4.92726c-1.5239,0 -2.75926,-0.21042 -2.75926,-4.92726c0,-4.71684 1.23536,-5.0915 2.75926,-5.0915c1.5239,0 2.75926,0.37467 2.75926,5.0915z" fill="#262626"/><path d="M296.63575,260.25669c-1.5239,0 -2.75926,-0.37467 -2.75926,-5.0915c0,-4.71684 1.23537,-3.63386 2.75926,-3.63386c1.5239,0 2.75926,-1.08298 2.75926,3.63386c0,4.71684 -1.23537,5.0915 -2.75926,5.0915z" fill="#262626"/></g><g><path d="M300.89922,260.51115c0,-0.76412 0.61944,-1.38356 1.38355,-1.38356c0.76412,0 1.38356,0.61944 1.38356,1.38356c0,0.76412 -0.61944,1.38356 -1.38356,1.38356c-0.76412,0 -1.38355,-0.61944 -1.38355,-1.38356z" fill="#4e4e4e"/><path d="M300.89922,252.22659c0,-0.76412 0.61944,-1.38356 1.38356,-1.38356c0.76412,0 1.38356,0.61944 1.38356,1.38356c0,0.76412 -0.61944,1.38356 -1.38356,1.38356c-0.76412,0 -1.38356,-0.61944 -1.38356,-1.38356z" fill="#4e4e4e"/><path d="M305.04205,247.26755c0,4.71684 -1.23537,4.92726 -2.75927,4.92726c-1.5239,0 -2.75926,-0.21042 -2.75926,-4.92726c0,-4.71684 1.23537,-5.0915 2.75926,-5.0915c1.5239,0 2.75927,0.37467 2.75927,5.0915z" fill="#262626"/><path d="M302.28278,261.13587c-1.5239,0 -2.75926,-0.37467 -2.75926,-5.0915c0,-4.71684 1.23537,-3.63385 2.75926,-3.63385c1.5239,0 2.75927,-1.08299 2.75927,3.63385c0,4.71684 -1.23537,5.0915 -2.75927,5.0915z" fill="#262626"/></g><g><path d="M306.47863,261.49177c0,-0.76412 0.61944,-1.38356 1.38355,-1.38356c0.76412,0 1.38356,0.61944 1.38356,1.38356c0,0.76412 -0.61944,1.38356 -1.38356,1.38356c-0.76412,0 -1.38355,-0.61944 -1.38355,-1.38356z" fill="#4e4e4e"/><path d="M306.47863,253.20721c0,-0.76412 0.61944,-1.38356 1.38356,-1.38356c0.76412,0 1.38356,0.61944 1.38356,1.38356c0,0.76412 -0.61944,1.38356 -1.38356,1.38356c-0.76412,0 -1.38356,-0.61944 -1.38356,-1.38356z" fill="#4e4e4e"/><path d="M310.62144,248.24816c0,4.71684 -1.23537,4.92726 -2.75926,4.92726c-1.5239,0 -2.75927,-0.21043 -2.75927,-4.92726c0,-4.71684 1.23537,-5.0915 2.75927,-5.0915c1.5239,0 2.75926,0.37467 2.75926,5.0915z" fill="#262626"/><path d="M307.86217,262.11649c-1.5239,0 -2.75926,-0.37467 -2.75926,-5.0915c0,-4.71684 1.23537,-3.63386 2.75926,-3.63386c1.5239,0 2.75927,-1.08298 2.75927,3.63386c0,4.71684 -1.23537,5.0915 -2.75927,5.0915z" fill="#262626"/></g><g><path d="M312.11919,259.61958c0,-0.76412 0.61944,-1.38356 1.38356,-1.38356c0.76412,0 1.38356,0.61944 1.38356,1.38356c0,0.76412 -0.61944,1.38355 -1.38356,1.38355c-0.76412,0 -1.38356,-0.61943 -1.38356,-1.38355z" fill="#4e4e4e"/><path d="M312.11919,251.33502c0,-0.76412 0.61944,-1.38356 1.38356,-1.38356c0.76412,0 1.38356,0.61944 1.38356,1.38356c0,0.76412 -0.61944,1.38356 -1.38356,1.38356c-0.76412,0 -1.38356,-0.61944 -1.38356,-1.38356z" fill="#4e4e4e"/><path d="M316.26203,246.37598c0,4.71684 -1.23537,4.92727 -2.75926,4.92727c-1.5239,0 -2.75927,-0.21043 -2.75927,-4.92727c0,-4.71684 1.23537,-5.0915 2.75927,-5.0915c1.5239,0 2.75926,0.37467 2.75926,5.0915z" fill="#262626"/><path d="M313.50276,260.24431c-1.5239,0 -2.75927,-0.37467 -2.75927,-5.09151c0,-4.71684 1.23537,-3.63385 2.75927,-3.63385c1.5239,0 2.75926,-1.08298 2.75926,3.63385c0,4.71684 -1.23537,5.09151 -2.75926,5.09151z" fill="#262626"/></g><g><path d="M314.38883,231.50829c-0.57764,-0.57764 -0.57764,-1.5142 0,-2.09184c0.57764,-0.57764 1.51419,-0.57764 2.09183,0.00001c0.57764,0.57764 0.57764,1.51419 0,2.09183c-0.57764,0.57764 -1.51418,0.57764 -2.09183,0z" fill="#4e4e4e"/><path d="M322.67848,239.79793c-0.57764,-0.57764 -0.57764,-1.51419 0,-2.09183c0.57764,-0.57764 1.51419,-0.57764 2.09183,0c0.57764,0.57764 0.57764,1.51419 0,2.09183c-0.57764,0.57764 -1.51418,0.57764 -2.09183,0z" fill="#4e4e4e"/><path d="M321.88167,232.73748c4.35542,4.35542 3.61583,5.48361 2.46382,6.63562c-1.15201,1.15201 -2.2802,1.89159 -6.63562,-2.46382c-4.35542,-4.35542 -3.76748,-5.63526 -2.61547,-6.78727c1.15201,-1.15201 2.43186,-1.73994 6.78728,2.61547z" fill="#262626"/></g><path d="M305.59113,223.25032c1.4665,0 4.71128,-0.75953 6.03326,-0.04002c5.39751,2.93769 5.38956,13.29351 4.51114,20.18633c-0.70296,5.51603 -14.4812,7.13796 -20.59917,3.0471c-4.76709,-3.18758 0.79122,-20.90453 2.45232,-22.27185c1.83277,-1.50864 5.40618,-0.92155 7.60246,-0.92155z" fill="#2b2b2b"/></g><g fill="#4e4e4e" stroke="#2b2b2b" stroke-width="0"><path d="M333.37984,109.25219v-12.7922h21.79175v12.7922z"/><path d="M355.17158,109.25219c0,1.46989 -4.87825,3.58072 -10.89588,3.58072c-6.01762,0 -10.89588,-2.11083 -10.89588,-3.58072c0,-1.46989 4.87825,-2.66146 10.89588,-2.66146c6.01762,0 10.89588,1.19158 10.89588,2.66146z"/><path d="M344.27572,97.57608c-6.01762,0 -10.89588,-0.49969 -10.89588,-1.1161c0,-0.6164 4.87825,-1.1161 10.89588,-1.1161c6.01762,0 10.89588,0.4997 10.89588,1.1161c0,0.6164 -4.87825,1.1161 -10.89588,1.1161z"/></g><path d="M332.60906,110.34537v-1.54651h23.47886v1.54651c0,0 -7.95908,2.81184 -11.82731,2.81184c-3.95609,0 -11.65156,-2.81184 -11.65156,-2.81184z" fill="url(#color-3)" stroke="#2b2b2b" stroke-width="0"/><path d="M331.29605,127.47598c0,6.63105 -0.52325,19.3862 -1.94756,30.24842c-1.35536,10.33643 2.21418,46.49136 -1.09861,46.49136c-1.24347,0 -18.89521,-1.70702 -20.64993,-9.94464c-1.41526,-6.64405 5.36457,-28.77644 3.88607,-35.4067c-2.75619,-12.36009 -6.31666,-27.08893 -6.31666,-31.97423c0,-12.94113 20.45731,-20.18666 27.25141,-20.18666c0.54954,0 -3.37712,1.78218 -3.52243,4.63405c-0.19711,3.86845 2.3977,9.59583 2.3977,16.13842z" fill="#770000" stroke="#2b2b2b" stroke-width="0"/><g><g fill="#1c1c1c" stroke="#000000" stroke-width="0"><path d="M421.80552,179.72024c0,1.51084 -2.37598,2.73562 -5.3069,2.73562c-2.93091,0 -5.3069,-1.22478 -5.3069,-2.73562c0,-1.51084 2.37598,-2.73563 5.3069,-2.73563c2.93091,0 5.3069,1.22479 5.3069,2.73563z"/><g><path d="M411.18397,179.90007l-2.46721,-30.35985h9.98462v30.35986z"/><path d="M414.29589,179.90007v-30.35985h9.98462l-2.46721,30.35986z"/></g></g><g><path d="M413.91188,157.16243c0,-1.42862 1.15813,-2.58674 2.58674,-2.58674c1.42862,0 2.58674,1.15813 2.58674,2.58674c0,1.42862 -1.15813,2.58674 -2.58674,2.58674c-1.42862,0 -2.58674,-1.15813 -2.58674,-2.58674z" fill="#1a1a1a" stroke="#2b2b2b" stroke-width="0"/><path d="M414.29714,157.16243c0,-1.21585 0.98564,-2.20149 2.20149,-2.20149c1.21585,0 2.20149,0.98564 2.20149,2.20149c0,1.21585 -0.98564,2.20149 -2.20149,2.20149c-1.21585,0 -2.20149,-0.98564 -2.20149,-2.20149z" fill="#cba600" stroke="#2b2b2b" stroke-width="0"/><path d="M414.40722,157.16243c0,-1.15505 0.93636,-2.09141 2.09141,-2.09141c1.15505,0 2.09141,0.93636 2.09141,2.09141c0,1.15505 -0.93636,2.09141 -2.09141,2.09141c-1.15505,0 -2.09141,-0.93636 -2.09141,-2.09141z" fill="#ddb400" stroke="#2b2b2b" stroke-width="0"/><text transform="translate(415.34728,158.59856) scale(0.09824,0.09824)" font-size="40" xml:space="preserve" fill="#cda800" stroke="none" stroke-width="1" font-family="&quot;I KNOW A GHOST&quot;, Handwriting" font-weight="normal" text-anchor="start"><tspan x="0" dy="0">T</tspan></text></g><g stroke="#000000" stroke-width="0"><path d="M407.51608,152.11126v-3.77891h17.96509v3.77891z" fill="#212121"/><path d="M425.48118,152.11126c0,0.80872 -4.02162,1.46433 -8.98254,1.46433c-4.96093,0 -8.98255,-0.6556 -8.98255,-1.46433c0,-0.80872 4.02162,-1.46433 8.98255,-1.46433c4.96093,0 8.98254,0.6556 8.98254,1.46433z" fill="#212121"/><path d="M425.48118,148.33234c0,0.80873 -4.02162,1.46433 -8.98254,1.46433c-4.96093,0 -8.98255,-0.6556 -8.98255,-1.46433c0,-0.80873 4.02162,-1.46433 8.98255,-1.46433c4.96093,0 8.98254,0.6556 8.98254,1.46433z" fill="#1c1c1c"/></g><g stroke="#000000" stroke-width="0"><g><path d="M406.50499,140.30489c0,-5.51934 4.47431,-9.99365 9.99365,-9.99365c5.51934,0 9.99365,4.47431 9.99365,9.99365c0,5.51934 -4.47431,8.91032 -9.99365,8.91032c-5.51934,0 -9.99365,-3.39099 -9.99365,-8.91032z" fill="#727272"/><path d="M408.29245,139.81741c0,-4.71163 3.81953,-8.53116 8.53116,-8.53116c4.71163,0 8.53116,3.81953 8.53116,8.53116c0,4.71163 -3.81953,8.53116 -8.53116,8.53116c-4.71163,0 -8.53116,-3.81953 -8.53116,-8.53116z" fill="#6c6c6c"/></g><g fill="#7e7e7e"><path d="M406.25221,141.41284v-1.33429h20.49284v1.33429z"/><path d="M426.74505,141.41284c0,0.28555 -4.58748,0.51703 -10.24642,0.51703c-5.65895,0 -10.24643,-0.23148 -10.24643,-0.51703c0,-0.28555 4.58748,-0.51705 10.24643,-0.51705c5.65895,0 10.24642,0.23149 10.24642,0.51705z"/><path d="M426.74505,140.07856c0,0.28555 -4.58748,0.51703 -10.24642,0.51703c-5.65895,0 -10.24643,-0.23148 -10.24643,-0.51703c0,-0.28555 4.58748,-0.09412 10.24643,-0.09412c5.65895,0 10.24642,-0.19144 10.24642,0.09412z"/></g></g></g><g><g stroke="#000000" stroke-width="0"><path d="M304.23966,23.965c0,0 10.40536,12.72926 22.38648,20.05032c8.87114,5.42071 21.00098,11.671 19.90152,15.55793c-2.58435,9.13651 -19.80503,27.55406 -29.76772,28.17576c-3.95087,0.24654 -13.79661,-6.54059 -16.84968,-16.15007c-4.64567,-14.62217 4.3294,-47.63393 4.3294,-47.63393z" fill="#262626"/><path d="M305.54922,27.13586c0,0 9.37762,11.472 20.17537,18.06996c7.99494,4.8853 18.97352,11.16799 17.98266,14.67101c-2.32909,8.2341 -17.8489,24.83255 -26.82757,25.39285c-3.56065,0.22219 -12.43392,-5.89458 -15.18544,-14.55494c-4.18681,-13.17794 3.85498,-43.57887 3.85498,-43.57887z" fill="#202020"/></g><g stroke="#000000" stroke-width="0"><path d="M388.3398,71.59892c-3.05307,9.60948 -12.89881,16.39661 -16.84968,16.15007c-9.96269,-0.6217 -27.18338,-19.03925 -29.76772,-28.17575c-1.09945,-3.88692 11.03038,-10.13722 19.90152,-15.55793c11.98113,-7.32105 22.38648,-20.05032 22.38648,-20.05032c0,0 8.97507,33.01176 4.3294,47.63393z" fill="#262626"/><path d="M386.55584,70.71474c-2.75152,8.66036 -11.62479,14.77713 -15.18544,14.55494c-8.97867,-0.56029 -24.49849,-17.15874 -26.82758,-25.39284c-0.99086,-3.50302 9.98772,-9.78571 17.98267,-14.67101c10.79775,-6.59796 20.17537,-18.06995 20.17537,-18.06995c0,0 8.0418,30.40093 3.85498,43.57887z" fill="#202020"/></g><g fill="#2b2b2b" stroke="#000000" stroke-width="0"><path d="M311.07151,73.45838c0,-19.22051 14.46514,-32.85786 32.78448,-32.85786c18.31934,0 33.17008,13.63736 33.17008,32.85787c0,19.22051 -14.85075,34.80181 -33.17008,34.80181c-15.10389,0 -34.63788,-15.11969 -34.4298,-30.20655c0.04626,-3.35453 1.64533,-1.22165 1.64533,-4.59526z"/><path d="M378.82392,78.05364c0.20808,15.08686 -19.32592,30.20655 -34.4298,30.20655c-18.31933,0 -33.17008,-15.5813 -33.17008,-34.8018c0,-19.22051 14.85076,-32.85786 33.17008,-32.85786c18.31933,0 32.78447,13.63736 32.78447,32.85787c0,3.37362 1.59907,1.24073 1.64533,4.59526z"/></g><path d="M312.89063,73.73147c0,-18.49919 13.98414,-30.87674 31.23446,-30.87674c17.25031,0 31.23446,12.37755 31.23446,30.87674c0,18.49919 -13.98414,30.87674 -31.23446,30.87674c-17.25031,0 -31.23446,-12.37755 -31.23446,-30.87674z" fill="#323232" stroke="#000000" stroke-width="0"/><g fill="#2b2b2b" stroke="#000000" stroke-width="0"><path d="M317.16655,75.35076c0,-7.90131 6.95513,-15.36352 14.10255,-15.36352c7.14743,0 9.86837,7.83971 9.86837,15.74101c0,7.90131 -3.74534,13.85359 -10.89278,13.85359c-7.14743,0 -13.07815,-6.32978 -13.07815,-14.23108z"/><path d="M358.0054,89.58184c-7.14743,0 -10.89278,-5.95229 -10.89278,-13.85359c0,-7.90131 2.72095,-15.74101 9.86837,-15.74101c7.14743,0 14.10255,7.46221 14.10255,15.36352c0,7.9013 -5.93072,14.23108 -13.07815,14.23108z"/></g><path d="M317.16655,74.76687c0,-7.60102 6.95513,-14.77964 14.10255,-14.77964c1.73926,0 3.2164,0.44658 4.45601,1.23192c0.18875,0.11958 2.07289,-1.25831 2.07289,-1.25831c0,0 -0.73744,2.29698 -0.38618,2.67951c2.6292,2.8633 3.72566,7.66454 3.72566,12.48966c0,7.60102 -3.74534,13.32709 -10.89278,13.32709c-2.12153,0 -4.13586,-0.53648 -5.91971,-1.48975c-0.4226,-0.22583 -2.23157,1.16197 -2.23157,1.16197c0,0 0.5155,-2.25573 0.2801,-2.442c-3.15047,-2.49281 -5.20698,-6.44452 -5.20698,-10.92045z" fill="#000000" stroke="#000000" stroke-width="0"/><path d="M358.00534,88.45711c-7.14743,0 -10.89278,-5.72608 -10.89278,-13.32709c0,-7.60102 2.72095,-15.14278 9.86837,-15.14278c7.14743,0 14.10255,7.17863 14.10255,14.77964c0,7.60102 -5.93072,13.69023 -13.07816,13.69023z" fill="#000000" stroke="#000000" stroke-width="0"/><g stroke="#000000" stroke-width="0"><path d="M331.58931,83.03485c-4.01718,0 -7.27376,-1.80183 -7.27376,-7.69266c0,-5.89082 3.25658,-7.82194 7.27376,-7.82194c4.01719,0 7.27376,1.93111 7.27376,7.82194c0,5.89082 -3.25657,7.69266 -7.27376,7.69266z" fill="#ffffff"/><path d="M331.58931,82.24798c-3.60971,0 -6.53597,-1.61906 -6.53597,-6.91235c0,-5.29329 2.92625,-7.02852 6.53597,-7.02852c3.60971,0 6.53595,1.73523 6.53595,7.02852c0,5.29329 -2.92625,6.91235 -6.53595,6.91235z" fill="#000000"/><path d="M331.58931,81.41795c-3.17987,0 -5.75767,-1.42626 -5.75767,-6.08923c0,-4.66296 2.5778,-6.19158 5.75768,-6.19158c3.17987,0 5.75767,1.52861 5.75767,6.19158c0,4.66296 -2.5778,6.08923 -5.75767,6.08923z" fill="#ffffff"/></g><g fill="#262626" stroke="#000000" stroke-width="0"><path d="M352.23815,85.86004c0,2.20821 -3.63235,3.99832 -8.11308,3.99832c-4.48074,0 -8.11308,-1.79011 -8.11308,-3.99832c0,-2.20821 3.63235,-3.99832 8.11309,-3.99832c4.48074,0 8.11309,1.79011 8.11309,3.99832z"/><path d="M349.8858,87.56873c0,1.45822 -2.57917,4.20054 -5.76075,4.20054c-3.18157,0 -5.76075,-2.74232 -5.76075,-4.20054c0,-1.45822 2.57917,-2.64034 5.76075,-2.64034c3.18157,0 5.76075,1.18212 5.76075,2.64034z"/></g><g stroke="#000000" stroke-width="0"><path d="M349.38703,75.34218c0,-5.89082 3.25658,-7.82194 7.27376,-7.82194c4.01719,0 7.27376,1.93111 7.27376,7.82194c0,5.89083 -3.25658,7.69266 -7.27376,7.69266c-4.0172,0 -7.27376,-1.80183 -7.27376,-7.69266z" fill="#ffffff"/><path d="M350.12485,75.33562c0,-5.29329 2.92625,-7.02852 6.53595,-7.02852c3.60971,0 6.53597,1.73523 6.53597,7.02852c0,5.29329 -2.92625,6.91235 -6.53597,6.91235c-3.60971,0 -6.53595,-1.61906 -6.53595,-6.91235z" fill="#000000"/><path d="M356.6608,81.41795c-3.17987,0 -5.75767,-1.42627 -5.75767,-6.08923c0,-4.66297 2.5778,-6.19158 5.75767,-6.19158c3.17987,0 5.75767,1.52861 5.75767,6.19158c0,4.66297 -2.5778,6.08923 -5.75767,6.08923z" fill="#ffffff"/></g><g fill="#000000" stroke="#000000" stroke-width="0"><path d="M344.45257,105.51421c-9.05586,0 -18.47569,-5.52361 -24.25736,-10.20312c-4.24883,-3.43887 -4.6893,-10.84049 -4.6893,-10.84049c0,0 2.5348,5.91375 5.45317,7.02018c0.95217,0.36099 2.89163,1.38459 2.89163,1.38459c0,0 2.15818,-0.63426 3.35453,-0.63542c0.40737,-0.00039 1.33228,1.25828 1.33228,1.25828c0,0 1.32571,-0.9451 2.0142,-0.97314c4.11104,-0.16737 8.81928,0.0803 13.90084,0.0803c3.89871,0 3.95629,12.90882 0,12.90882z"/><path d="M343.79757,105.51421c-3.95629,0 -3.89871,-12.90882 0,-12.90882c5.08155,0 9.7898,-0.24767 13.90085,-0.0803c0.6885,0.02803 2.0142,0.97313 2.0142,0.97313c0,0 0.92493,-1.25866 1.33228,-1.25827c1.19635,0.00116 3.35453,0.63542 3.35453,0.63542c0,0 1.93946,-1.0236 2.89163,-1.38459c2.91837,-1.10642 5.45317,-7.02018 5.45317,-7.02018c0,0 -0.44046,7.40162 -4.6893,10.8405c-5.78167,4.6795 -15.20151,10.20312 -24.25736,10.20312z"/></g><path d="M332.53354,92.63851c0,0 -2.46637,2.23928 -3.27811,6.24519c-0.81173,4.00591 1.39988,6.11512 1.39988,6.11512c0,0 -5.01807,-2.94586 -7.87579,-6.72156c-2.17953,-2.87965 -2.39097,-6.76174 -2.36026,-7.12028c0.4332,0.33407 1.31859,0.92859 1.66578,0.75047c0,0 0.70297,0.63461 1.64332,0.83274c0.72486,0.15272 2.62716,-0.66374 3.42088,-0.41652c0.43063,0.13413 0.66579,0.38652 0.99975,0.61496c0.21736,0.14868 0.18111,0.51365 0.37745,0.54659c0.2234,0.03747 1.604,-0.91079 1.84355,-0.8899c1.06546,0.09287 2.16353,0.04319 2.16353,0.04319z" fill="#ffffff" stroke="#ff0000" stroke-width="0"/><path d="M357.88009,92.59533c0.23955,-0.02088 1.62015,0.92738 1.84355,0.8899c0.19634,-0.03293 0.1601,-0.39792 0.37746,-0.54659c0.33396,-0.22843 0.56912,-0.48082 0.99975,-0.61496c0.79372,-0.24722 2.69603,0.56924 3.42088,0.41652c0.94036,-0.19813 1.64332,-0.83274 1.64332,-0.83274c0.3472,0.17812 1.23258,-0.4164 1.66579,-0.75048c0.03071,0.35853 -0.18073,4.24062 -2.36026,7.12028c-2.85773,3.7757 -7.87579,6.72156 -7.87579,6.72156c0,0 2.21161,-2.1092 1.39988,-6.11512c-0.81173,-4.00591 -3.27811,-6.24519 -3.27811,-6.24519c0,0 1.09807,0.04968 2.16353,-0.04319z" fill="#ffffff" stroke="#ff0000" stroke-width="0"/><g fill="none" stroke="#2b2b2b" stroke-width="0.5"><path d="M344.4306,105.51421v-0.00001c-9.05586,0 -18.47569,-5.52361 -24.25736,-10.20312c-4.24883,-3.43887 -4.6893,-10.8405 -4.6893,-10.8405c0,0 2.5348,5.91376 5.45317,7.02018c0.95217,0.36099 2.89163,1.38459 2.89163,1.38459c0,0 2.15818,-0.63426 3.35453,-0.63542c0.40737,-0.00039 1.33228,1.25827 1.33228,1.25827c0,0 1.32571,-0.94509 2.0142,-0.97313c4.11104,-0.16737 8.81928,0.0803 13.90084,0.0803"/><path d="M343.7756,92.60539c5.08155,0 9.7898,-0.24767 13.90085,-0.0803c0.6885,0.02803 2.0142,0.97313 2.0142,0.97313c0,0 0.92493,-1.25866 1.33228,-1.25827c1.19635,0.00116 3.35453,0.63542 3.35453,0.63542c0,0 1.93946,-1.0236 2.89163,-1.38459c2.91837,-1.10642 5.45317,-7.02018 5.45317,-7.02018c0,0 -0.44046,7.40162 -4.6893,10.8405c-5.78167,4.6795 -15.20151,10.20312 -24.25736,10.20312l-0.00001,0.00001"/></g><path d="M329.25543,98.88371c-0.81173,4.00591 1.39988,6.11512 1.39988,6.11512c0,0 -5.01806,-2.94586 -7.87579,-6.72156c-0.71932,-0.95039 -1.22428,-2.00998 -1.57691,-3.01605c1.96779,0.35021 5.18798,0.6403 5.83675,0.69814c1.01932,0.09088 2.03972,0.18971 3.05908,0.28468c-0.34061,0.76719 -0.64236,1.64945 -0.84301,2.63967z" fill="#ffffff" stroke="#ff0000" stroke-width="0"/><path d="M358.15162,96.24404c1.01937,-0.09496 2.03976,-0.1938 3.05908,-0.28468c0.64877,-0.05785 3.86896,-0.34793 5.83675,-0.69814c-0.35263,1.00607 -0.85758,2.06565 -1.57691,3.01604c-2.85773,3.7757 -7.87579,6.72156 -7.87579,6.72156c0,0 2.21161,-2.1092 1.39988,-6.11512c-0.20065,-0.99022 -0.50241,-1.87248 -0.84302,-2.63967z" fill="#ffffff" stroke="#ff0000" stroke-width="0"/><g stroke-width="0"><g stroke="#000000"><path d="M362.42578,45.91872c0,1.20799 -3.93341,2.18727 -18.19183,2.18727c-14.25842,0 -18.40969,-0.97927 -18.40969,-2.18727c0,-1.20799 4.15128,-2.18727 18.40969,-2.18727c14.25842,0 18.19183,0.97927 18.19183,2.18727z" fill="#252525"/><path d="M344.01611,43.73146c14.25842,0 18.4097,0.97927 18.4097,2.18727c0,1.20799 -4.15129,2.18727 -18.4097,2.18727c-14.25842,0 -18.19183,-0.97927 -18.19183,-2.18727c0,-1.20799 3.93341,-2.18727 18.19183,-2.18727z" fill="#222222"/></g><path d="M325.82431,45.93115v-4.39939h36.60153v4.39939z" fill="#222222" stroke="#000000"/><g fill="#202020" stroke="#000000"><path d="M362.42578,41.53175c0,1.20799 -3.93341,2.18727 -18.19183,2.18727c-14.25842,0 -18.40969,-0.97927 -18.40969,-2.18727c0,-1.20799 4.15128,-2.18727 18.40969,-2.18727c14.25842,0 18.19183,0.97927 18.19183,2.18727z"/><path d="M344.01611,39.3445c14.25842,0 18.4097,0.97927 18.4097,2.18726c0,1.20799 -4.15129,2.18727 -18.4097,2.18727c-14.25842,0 -18.19183,-0.97928 -18.19183,-2.18727c0,-1.20799 3.93341,-2.18726 18.19183,-2.18726z"/></g><g fill="#222222" stroke="#000000"><path d="M356.82357,41.1041c0,0.78135 -5.68531,1.41475 -12.69849,1.41475c-7.01318,0 -12.69848,-0.6334 -12.69848,-1.41475c0,-0.78135 5.6853,-1.41474 12.69848,-1.41474c7.01318,0 12.69849,0.63339 12.69849,1.41474z"/><path d="M331.42659,41.1041c0,0 0.25233,-7.66341 -0.42892,-11.52325c-0.66279,-3.75513 -3.60471,-11.33031 -3.60471,-11.33031h16.61262l12.818,22.85357z"/><path d="M331.42659,41.1041l12.818,-22.85356h16.61262c0,0 -2.94193,7.57517 -3.60471,11.33031c-0.68126,3.85983 -0.42893,11.52325 -0.42893,11.52325z"/></g><path d="M360.85716,18.25054c0,1.9233 -7.49122,3.48246 -16.73212,3.48246c-9.2409,0 -16.73212,-1.55914 -16.73212,-3.48246c0,-1.9233 7.49122,-3.48245 16.73212,-3.48245c9.2409,0 16.73212,1.55914 16.73212,3.48245z" fill="#202020" stroke="#000000"/><g fill="#770000"><g><g stroke="#000000"><path d="M357.10661,41.60992c0,0.50199 -5.81204,0.90894 -12.98155,0.90894c-7.16951,0 -12.98155,-0.40694 -12.98155,-0.90894c0,-0.50199 5.81204,-0.90894 12.98155,-0.90894c7.16951,0 12.98155,0.40694 12.98155,0.90894z"/><path d="M331.14352,41.60992c0,0 0.25796,-4.92354 -0.43849,-7.40338c-0.67755,-2.41257 26.4016,7.40339 26.4016,7.40339z"/><path d="M331.14352,41.60992c0,0 27.07916,-9.81597 26.40161,-7.40339c-0.69644,2.47985 -0.4385,7.4034 -0.4385,7.4034z"/></g><path d="M344.12506,38.32873c-7.41859,0 -12.69444,-4.12976 -12.69444,-4.38958c0,-0.25982 5.27585,0.66361 12.69444,0.66361c7.41859,0 7.41859,3.72598 0,3.72598z" stroke="#2b2b2b"/></g><g><g stroke="#000000"><path d="M344.12506,40.70098c7.16951,0 12.98155,0.40694 12.98155,0.90894c0,0.50199 -5.81204,0.90894 -12.98155,0.90894c-7.16951,0 -12.98155,-0.40694 -12.98155,-0.90894c0,-0.50199 5.81205,-0.90894 12.98155,-0.90894z"/><path d="M331.14352,41.60992c0,0 27.07916,-9.81597 26.40161,-7.40339c-0.69644,2.47985 -0.43849,7.40338 -0.43849,7.40338z"/><path d="M331.14353,41.60992c0,0 0.25795,-4.92355 -0.43849,-7.40339c-0.67755,-2.41257 26.4016,7.4034 26.4016,7.4034z"/></g><path d="M344.12506,34.60276c7.41859,0 12.69445,-0.92344 12.69445,-0.66361c0,0.25982 -5.27585,4.38958 -12.69445,4.38958c-7.41859,0 -7.41859,-3.72598 0,-3.72598z" stroke="#2b2b2b"/></g></g></g></g></g></g></svg>