<svg version="1.1" xmlns="http://www.w3.org/2000/svg" xmlns:xlink="http://www.w3.org/1999/xlink" width="773.27328" height="444.26494" viewBox="0,0,773.27328,444.26494"><defs><linearGradient x1="361.04436" y1="-43.79367" x2="361.04436" y2="25.89697" gradientUnits="userSpaceOnUse" id="color-1"><stop offset="0" stop-color="#000000"/><stop offset="1" stop-color="#000000" stop-opacity="0"/></linearGradient><linearGradient x1="355.81574" y1="-46.31634" x2="355.81574" y2="-3.49577" gradientUnits="userSpaceOnUse" id="color-2"><stop offset="0" stop-color="#212121"/><stop offset="1" stop-color="#323232"/></linearGradient><linearGradient x1="363.13947" y1="29.26707" x2="363.13947" y2="222.96077" gradientUnits="userSpaceOnUse" id="color-3"><stop offset="0" stop-color="#323232"/><stop offset="1" stop-color="#000000"/></linearGradient><linearGradient x1="602.13271" y1="9.8248" x2="602.13271" y2="203.5185" gradientUnits="userSpaceOnUse" id="color-4"><stop offset="0" stop-color="#323232"/><stop offset="1" stop-color="#000000"/></linearGradient><linearGradient x1="120.52737" y1="10.04797" x2="120.52737" y2="203.74167" gradientUnits="userSpaceOnUse" id="color-5"><stop offset="0" stop-color="#323232"/><stop offset="1" stop-color="#000000"/></linearGradient><radialGradient cx="355.92115" cy="142.31501" r="369.79306" gradientUnits="userSpaceOnUse" id="color-6"><stop offset="0" stop-color="#000000" stop-opacity="0.83922"/><stop offset="1" stop-color="#000000" stop-opacity="0"/></radialGradient><radialGradient cx="355.92115" cy="142.31501" r="369.79307" gradientUnits="userSpaceOnUse" id="color-7"><stop offset="0" stop-color="#000000" stop-opacity="0"/><stop offset="1" stop-color="#000000"/></radialGradient><linearGradient x1="-23.95969" y1="151.592" x2="140.05618" y2="151.592" gradientUnits="userSpaceOnUse" id="color-8"><stop offset="0" stop-color="#000000"/><stop offset="1" stop-color="#000000" stop-opacity="0"/></linearGradient><linearGradient x1="746.93024" y1="147.94203" x2="582.91437" y2="147.94203" gradientUnits="userSpaceOnUse" id="color-9"><stop offset="0" stop-color="#000000"/><stop offset="1" stop-color="#000000" stop-opacity="0"/></linearGradient><linearGradient x1="360.5539" y1="-71.46082" x2="360.5539" y2="72.17167" gradientUnits="userSpaceOnUse" id="color-10"><stop offset="0" stop-color="#000000"/><stop offset="1" stop-color="#000000" stop-opacity="0"/></linearGradient><linearGradient x1="359.52797" y1="372.53375" x2="359.52797" y2="228.90125" gradientUnits="userSpaceOnUse" id="color-11"><stop offset="0" stop-color="#000000"/><stop offset="1" stop-color="#000000" stop-opacity="0"/></linearGradient></defs><g transform="translate(26.34305,71.73121)"><g data-paper-data="{&quot;isPaintingLayer&quot;:true}" fill-rule="nonzero" stroke-linejoin="miter" stroke-miterlimit="10" stroke-dasharray="" stroke-dashoffset="0" style="mix-blend-mode: normal"><g stroke="none" stroke-width="0" stroke-linecap="butt"><g><path d="M0.11345,157.15518v-181.68168h720v181.68168z" fill="#000000"/><path d="M656.46201,-18.0315c0,26.98079 -132.26298,48.85303 -295.41764,48.85303c-163.15465,0 -295.41764,-21.87225 -295.41764,-48.85303c0,-26.98079 132.26298,-48.85303 295.41764,-48.85303c163.15465,0 295.41764,21.87225 295.41764,48.85303z" fill="#323232"/><path d="M615.94008,-8.94835c0,19.24454 -114.12071,34.84532 -254.89575,34.84532c-140.77503,0 -254.89575,-15.60079 -254.89575,-34.84532c0,-19.24454 114.12071,-34.84532 254.89575,-34.84532c140.77503,0 254.89575,15.60078 254.89575,34.84532z" fill="url(#color-1)"/><path d="M312.02592,-3.49577v-42.82057h87.57956v42.82057z" fill="url(#color-2)"/><path d="M399.60552,-2.84697c0,6.89767 -19.60535,12.48933 -43.78978,12.48933c-24.18443,0 -43.78978,-5.59166 -43.78978,-12.48933c0,-6.89767 19.60535,-12.48933 43.78978,-12.48933c24.18443,0 43.78978,5.59166 43.78978,12.48933z" fill="#1d1d1d"/><path d="M406.03759,-45.88453c0,3.86599 -23.78119,2.5 -52.5,2.5c-28.71881,0 -52.5,2.36599 -52.5,-1.5c0,-3.86599 23.78119,-8.5 52.5,-8.5c28.71881,0 52.5,3.63401 52.5,7.5z" fill="#323232"/><path d="M160.81394,3.86029l-17.41134,-13.41451h424.82625l-17.41134,13.41451z" fill="#3c3c3c"/><path d="M374.33122,-2.84697c0,4.54972 -8.28966,8.23799 -18.51548,8.23799c-10.22582,0 -18.51548,-3.68827 -18.51548,-8.23799c0,-4.54972 8.28966,-8.23799 18.51548,-8.23799c10.22582,0 18.51548,3.68827 18.51548,8.23799z" fill="#6d6d6d"/></g><path d="M282.21549,224.46227c0,0 25.30883,-54.36224 34.70263,-87.70274c8.91325,-31.63496 20.29423,-107.49245 20.29423,-107.49245h51.85418c0,0 7.94661,65.48809 15.64753,95.52958c9.02398,35.20283 35.15909,102.66861 35.15909,102.66861z" fill="url(#color-3)"/><path d="M525.39902,208.023c0,0 26.13511,-67.46578 35.15909,-102.66861c7.70091,-30.04149 -3.872,-89.52357 -3.872,-89.52357l45.84817,-6.006c0,0 36.90651,75.85749 45.81976,107.49245c9.39379,33.3405 4.6726,87.70274 4.6726,87.70274z" data-paper-data="{&quot;index&quot;:null}" fill="url(#color-4)"/><path d="M69.63344,205.24317c0,0 -4.7212,-54.36224 4.67259,-87.70274c8.91325,-31.63496 45.81976,-107.49245 45.81976,-107.49245l45.84817,6.00601c0,0 -11.5729,59.48208 -3.87199,89.52357c9.02398,35.20283 35.15909,102.66861 35.15909,102.66861z" fill="url(#color-5)"/></g><path d="M314.49781,210.75873v-55.05706c0,0 3.88454,-15.52467 45.96247,-15.33333c45.15715,0.20534 47.13062,15.33333 47.13062,15.33333v55.05706z" fill="#3d3d3d" stroke="none" stroke-width="0" stroke-linecap="butt"/><path d="M335.46026,205.40126v-49.66667h51.66667v49.66667z" fill="#000000" stroke="none" stroke-width="0" stroke-linecap="butt"/><g stroke-width="0" stroke-linecap="butt"><path d="M216.96076,253.3063v-47.65733h288.1672v47.65733z" fill="#323232" stroke="#000000"/><path d="M221.75565,250.21602v-139.06192l113.95352,44.80884l0.38628,49.63738z" fill="#505050" stroke="none"/><path d="M501.381,111.1541v139.06192l-113.95352,-44.80884l-0.38628,-49.63738z" fill="#505050" stroke="none"/></g><path d="M66.75004,252.80077v-142.15219h157.65766v142.15219z" fill="#3d3d3d" stroke="none" stroke-width="0" stroke-linecap="butt"/><path d="M499.67799,251.0761v-142.15219h157.65766v142.15219z" fill="#3d3d3d" stroke="none" stroke-width="0" stroke-linecap="butt"/><g stroke-width="0" stroke-linecap="butt"><path d="M-12.70639,367.68706v-123.3741h746v123.3741z" fill="#323232" stroke="#000000"/><path d="M-0.2935,359.68706v-360l116.17413,55.80507l-1.84438,249.52453z" fill="#505050" stroke="none"/><path d="M719.70653,-0.31294v360l-138.98896,-65.91483l3.15675,-229.41419z" fill="#505050" stroke="none"/></g><g fill="none" stroke="#424242" stroke-width="2" stroke-linecap="round"><path d="M337.49816,205.20986c0,0 1.34132,-42.09868 2.18898,-48.46178c0.19507,-1.46434 0.35994,-1.31744 0.35994,0.28257c0,5.48733 0,36.91165 0,47.1133c0,2.01135 0.22036,1.43607 0.46261,-0.50066c0.71249,-5.69605 1.04688,-34.02029 2.42479,-45.03614c0.33778,-2.70039 0.54385,-2.62601 0.54385,-0.72377c0,7.04239 -0.29411,47.1133 -0.29411,47.1133"/><path d="M343.25751,205.20986c0,0 1.34132,-42.09868 2.18898,-48.46179c0.19507,-1.46433 0.35994,-1.31743 0.35994,0.28257c0,5.48733 0,36.91165 0,47.1133c0,2.01135 0.22036,1.43608 0.46261,-0.50065c0.71249,-5.69605 1.04688,-34.02029 2.42479,-45.03614c0.33778,-2.70039 0.54385,-2.62601 0.54385,-0.72377c0,7.04239 -0.29411,47.1133 -0.29411,47.1133"/><path d="M349.30482,205.20986c0,0 1.34132,-42.09867 2.18898,-48.46178c0.19507,-1.46433 0.35994,-1.31744 0.35994,0.28257c0,5.48733 0,36.91165 0,47.1133c0,2.01135 0.22036,1.43607 0.46261,-0.50066c0.71249,-5.69605 1.04688,-34.02028 2.42479,-45.03614c0.33778,-2.70039 0.54385,-2.62601 0.54385,-0.72377c0,7.04239 -0.29411,47.1133 -0.29411,47.1133"/><path d="M355.06417,205.20986c0,0 1.34132,-42.09868 2.18898,-48.46179c0.19507,-1.46433 0.35994,-1.31743 0.35994,0.28257c0,5.48733 0,36.91165 0,47.1133c0,2.01135 0.22036,1.43608 0.46261,-0.50065c0.71249,-5.69605 1.04688,-34.02029 2.42479,-45.03614c0.33778,-2.70039 0.54385,-2.62601 0.54385,-0.72377c0,7.04239 -0.29411,47.1133 -0.29411,47.1133"/></g><text transform="translate(337.35812,151.55774) scale(0.21831,0.21831)" font-size="40" xml:space="preserve" fill="#000000" fill-rule="nonzero" stroke="none" stroke-width="1" stroke-linecap="butt" stroke-linejoin="miter" stroke-miterlimit="10" stroke-dasharray="" stroke-dashoffset="0" font-family="&quot;GovtAgentBB&quot;, Serif" font-weight="normal" text-anchor="start" style="mix-blend-mode: normal"><tspan x="0" dy="0">Power Room</tspan></text><g stroke-width="0" stroke-linecap="butt"><g stroke="#000000"><path d="M-13.87191,351.8495v-419.06893h739.58612v419.06893z" fill="url(#color-6)"/><path d="M-13.87191,351.8495v-419.06893h739.58613v419.06893z" fill="url(#color-7)"/></g><g stroke="none"><path d="M-23.95969,371.26522v-439.34646h164.01586v439.34646z" fill="url(#color-8)"/><path d="M582.91437,367.61526v-439.34646h164.01586v439.34646z" data-paper-data="{&quot;index&quot;:null}" fill="url(#color-9)"/><path d="M-25.31712,72.17167v-143.63249h771.74205v143.6325z" fill="url(#color-10)"/><path d="M745.399,228.90125v143.63249h-771.74204v-143.63249z" data-paper-data="{&quot;index&quot;:null}" fill="url(#color-11)"/></g></g></g></g></svg>