<svg version="1.1" xmlns="http://www.w3.org/2000/svg" xmlns:xlink="http://www.w3.org/1999/xlink" width="777.77778" height="427.74842" viewBox="0,0,777.77778,427.74842"><defs><linearGradient x1="-26.49166" y1="181.14646" x2="138.47964" y2="181.14646" gradientUnits="userSpaceOnUse" id="color-1"><stop offset="0" stop-color="#000000"/><stop offset="1" stop-color="#000000" stop-opacity="0"/></linearGradient><linearGradient x1="748.88889" y1="177.63219" x2="583.9176" y2="177.63219" gradientUnits="userSpaceOnUse" id="color-2"><stop offset="0" stop-color="#000000"/><stop offset="1" stop-color="#000000" stop-opacity="0"/></linearGradient><linearGradient x1="360.26181" y1="-33.61388" x2="360.26181" y2="104.67877" gradientUnits="userSpaceOnUse" id="color-3"><stop offset="0" stop-color="#000000"/><stop offset="1" stop-color="#000000" stop-opacity="0"/></linearGradient><linearGradient x1="359.22991" y1="393.87422" x2="359.22991" y2="255.58157" gradientUnits="userSpaceOnUse" id="color-4"><stop offset="0" stop-color="#000000"/><stop offset="1" stop-color="#000000" stop-opacity="0"/></linearGradient></defs><g transform="translate(28.88889,33.87421)"><g stroke-miterlimit="10"><g><path d="M0,153.00001v-160.3741h720v160.3741z" fill="#0d1628" stroke="#000000" stroke-width="0" stroke-linecap="butt"/><path d="M0,360.00001v-160.3741h720v160.3741z" fill="#0d1628" stroke="#000000" stroke-width="0" stroke-linecap="butt"/><path d="M155.93393,244.00001v-128h408.13213v128z" fill="#000000" stroke="#000000" stroke-width="0" stroke-linecap="butt"/><path d="M0,360.00001v-360c0,0 103.57855,76.76523 153.74087,96.49007c48.08296,18.9072 141.25913,19.50993 141.25913,19.50993l1,128.5c0,0 -98.32945,-0.67062 -147.59512,18.55298c-49.40063,19.27626 -148.40488,96.94702 -148.40488,96.94702z" fill="#192c4f" stroke="none" stroke-width="0" stroke-linecap="butt"/><path d="M720,0.00001v360c0,0 -96.65721,-74.04362 -145.48316,-93.24297c-49.4982,-19.4637 -149.51684,-22.75703 -149.51684,-22.75703l-1,-128.5c0,0 123.66866,-12.21981 176.81394,-32.95724c43.63341,-17.02587 119.18606,-82.54276 119.18606,-82.54276z" fill="#192c4f" stroke="none" stroke-width="0" stroke-linecap="butt"/><g fill="none" stroke="#424242" stroke-width="4" stroke-linecap="round"><path d="M328.39322,243.50675c0,0 5.16393,-108.49593 8.42735,-124.89481c0.75101,-3.77386 1.38575,-3.39526 1.38575,0.72824c0,14.14184 0,95.12801 0,121.41952c0,5.18361 0.84835,3.70102 1.781,-1.29028c2.74299,-14.67975 4.03039,-87.67646 9.33519,-116.06631c1.3004,-6.95939 2.09376,-6.76772 2.09376,-1.86529c0,18.14951 -1.13228,121.41952 -1.13228,121.41952"/><path d="M350.56609,243.50676c0,0 5.16393,-108.49592 8.42735,-124.89481c0.75101,-3.77385 1.38575,-3.39526 1.38575,0.72824c0,14.14184 0,95.12801 0,121.41952c0,5.18361 0.84835,3.70102 1.781,-1.29028c2.74299,-14.67975 4.03039,-87.67645 9.33519,-116.0663c1.3004,-6.9594 2.09377,-6.76772 2.09377,-1.8653c0,18.14951 -1.13229,121.41952 -1.13229,121.41952"/><path d="M373.84762,243.50675c0,0 5.16393,-108.49592 8.42735,-124.89481c0.75101,-3.77385 1.38575,-3.39526 1.38575,0.72824c0,14.14184 0,95.12801 0,121.41952c0,5.18361 0.84835,3.70102 1.781,-1.29028c2.74299,-14.67975 4.03039,-87.67645 9.33519,-116.0663c1.3004,-6.9594 2.09377,-6.76772 2.09377,-1.8653c0,18.14951 -1.13229,121.41952 -1.13229,121.41952"/><path d="M396.0205,243.50676c0,0 5.16393,-108.49592 8.42735,-124.89481c0.75101,-3.77385 1.38575,-3.39526 1.38575,0.72824c0,14.14184 0,95.12801 0,121.41952c0,5.18361 0.84835,3.70102 1.781,-1.29028c2.74299,-14.67975 4.03039,-87.67645 9.33519,-116.0663c1.3004,-6.9594 2.09377,-6.76772 2.09377,-1.8653c0,18.14951 -1.13229,121.41952 -1.13229,121.41952"/></g><path d="M433.25,219.40647c0,0 -52.87953,-7.20046 -77.84617,-21.20202c-24.35134,-13.65649 -70.15383,-61.79798 -70.15383,-61.79798" fill="none" stroke="#b7c72b" stroke-width="10" stroke-linecap="round"/><path d="M434.91667,160.07314c0,0 -48.44831,23.68956 -73.2007,26.99361c-24.35219,3.25063 -74.13263,-7.32694 -74.13263,-7.32694" fill="none" stroke="#b7c72b" stroke-width="10" stroke-linecap="round"/></g><g stroke-width="0" stroke-linecap="butt"><g fill-opacity="0.67843" fill="#000000" stroke="#000000"><path d="M-16.34512,373.95896v-403.48913h743.89439v403.48913z"/></g><g stroke="none"><path d="M-26.49166,392.65285v-423.0128h164.97129v423.0128z" fill="url(#color-1)"/><path d="M583.9176,389.13859v-423.0128h164.97129v423.0128z" fill="url(#color-2)"/><path d="M-27.857,104.67877v-138.29264h776.23763v138.29265z" fill="url(#color-3)"/><path d="M747.34873,255.58157v138.29264h-776.23762v-138.29264z" fill="url(#color-4)"/></g></g></g></g></svg>