<svg version="1.1" xmlns="http://www.w3.org/2000/svg" xmlns:xlink="http://www.w3.org/1999/xlink" width="130.47732" height="205.21471" viewBox="0,0,130.47732,205.21471"><g transform="translate(-295.02361,-77.24315)"><g stroke-miterlimit="10"><g><g fill="#ffffff" stroke="#000000" stroke-width="2.5" stroke-linecap="butt"><path d="M381.27202,192.95162c-2.85616,-6.66265 6.38131,-8.72076 9.23747,-2.05811c1.62535,3.79148 3.16453,10.74921 2.64242,16.84179c-0.12389,1.44564 -0.33168,2.56205 -0.55863,3.41361c-0.49735,1.86615 -1.144,1.94356 -1.95691,0.39932c-0.36234,-0.68833 -0.87481,-1.58078 -1.59925,-2.72259c-2.71284,-4.27579 -6.23457,-12.30373 -7.76509,-15.87401z"/><path d="M375.61326,191.65768c7.36276,-0.74764 16.88315,-0.03186 17.7647,8.6496c0.27838,2.74147 0.22773,11.5208 -0.97791,14.65083c-2.61229,6.78186 -8.55673,7.62637 -13.59443,8.13792c-7.36276,0.74764 -10.55511,-30.6907 -3.19235,-31.43834z"/></g><g fill="#ffffff" stroke="#000000" stroke-width="2.5" stroke-linecap="butt"><path d="M374.56759,269.37105c2.40208,-2.14278 6.33795,-2.46326 11.65003,1.3208c5.31207,3.78406 5.48061,10.52419 5.48061,10.52419c0,0 -8.86722,1.01957 -14.1793,-2.76449c-5.31207,-3.78406 -5.35342,-6.93772 -2.95134,-9.0805z"/><path d="M372.69072,272.22777l-0.57142,-53.28571l20.71429,-3.42857c0,0 -3.21606,35.88062 -4.23185,46.22083c-0.09528,0.96989 1.87955,2.88362 3.32862,4.14736c0.82826,0.72233 0.67383,1.06784 -0.29017,1.03453c-1.09515,-0.03785 -2.38786,0.09355 -2.91366,0.82759c-0.35728,0.49878 1.28956,1.54659 2.51446,2.23289c0.68302,0.38269 0.33658,0.92831 -0.2789,1.11697c-0.96225,0.29496 -3.69994,1.13412 -3.69994,1.13412z"/></g><g fill="#ffffff" stroke="#000000" stroke-width="2.5" stroke-linecap="butt"><path d="M367.43395,276.95155c-5.31207,3.78406 -14.17929,2.76449 -14.17929,2.76449c0,0 0.16854,-6.74013 5.48061,-10.52419c5.31207,-3.78406 9.24795,-3.46358 11.65002,-1.3208c2.40208,2.14278 2.36073,5.29644 -2.95134,9.0805z"/><path d="M357.69073,270.72777c0,0 -2.73769,-0.83916 -3.69994,-1.13412c-0.61548,-0.18866 -0.96193,-0.73428 -0.27891,-1.11697c1.2249,-0.68629 2.87175,-1.73411 2.51447,-2.23289c-0.5258,-0.73404 -1.81851,-0.86544 -2.91366,-0.82759c-0.964,0.03332 -1.11843,-0.3122 -0.29017,-1.03453c1.44907,-1.26374 3.4239,-3.17746 3.32862,-4.14736c-1.01579,-10.34021 -4.23185,-46.22083 -4.23185,-46.22083l20.71429,3.42857l-0.57143,53.28571z"/></g><g stroke="#000000" stroke-width="2.5"><path d="M351.32452,212.29035c0.05016,-2.52928 0.16906,-5.51552 0.3961,-8.98856c0.87978,-13.45783 11.69583,-38.77449 11.69583,-38.77449h14c0,0 -0.81658,6.54124 0.6043,11.21832c1.21765,4.00809 4.93322,11.38438 8.09274,20.09762c2.66049,7.33704 5.16569,14.913 6.90464,20.32098c1.47468,4.5861 -41.84793,3.9068 -41.69362,-3.87386z" fill="#ffffff" stroke-linecap="butt"/><path d="M374.00044,164.80796l-4.2,5.1l-3.5,-5.2z" fill="none" stroke-linecap="round"/><path d="M357.90044,181.90796c0,0 0.76469,2.46486 10.50451,3.02879c6.51165,0.37703 11.59549,-1.62879 11.59549,-1.62879" fill="none" stroke-linecap="round"/><path d="M352.50044,199.72445c0,0 1.22697,3.95496 16.85494,4.85983c10.44822,0.60495 18.60547,-2.61346 18.60547,-2.61346" fill="none" stroke-linecap="round"/></g><path d="M344.10881,139.61346c0,-8.11943 1.86223,-14.97663 8.2427,-19.26932c4.52521,-3.0445 12.44137,-4.79904 18.59064,-4.79904c7.77103,0 15.27051,2.80203 20.17082,7.46848c4.44477,4.23264 6.66251,9.99917 6.66251,16.59989c0,7.19887 -1.98262,14.60799 -7.16266,19.05199c-4.80602,4.12312 -12.53838,5.54632 -19.67067,5.54632c-6.8057,0 -14.51963,-2.26089 -19.25001,-6.0502c-5.5702,-4.46205 -7.58333,-11.04339 -7.58333,-18.54811z" fill="#ffffff" stroke="#000000" stroke-width="2.5" stroke-linecap="butt"/><path d="M350.05347,140.07199c0,0 -1.56049,0.79216 -1.95733,1.58172c-0.21727,0.43228 4.53698,1.1193 3.60894,1.52266c-0.46702,0.20299 -1.92175,0.62559 -1.91339,1.2206c0.04516,3.21365 0.65992,7.41185 3.26196,9.64184c4.00032,3.42837 13.99634,0.80011 17.01512,0.98969c3.24885,0.20404 11.77893,5.62389 15.90778,2.84051c2.7695,-1.86701 4.14763,-6.23034 4.82804,-9.8049c0.28359,-1.48983 -1.2207,-0.95375 -1.1293,-1.9317c0.03811,-0.40776 2.69159,-0.86174 3.04997,-1.50874c0.49438,-0.89252 -1.27179,-1.95168 -1.27179,-1.95168" fill="none" stroke="#000000" stroke-width="2.5" stroke-linecap="round"/><path d="M356.92014,145.84273c0,0 -0.79911,-2.10737 1.06338,-9.79377c2.24572,-9.26798 6.49218,-12.76179 6.49218,-12.76179" fill="none" stroke="#000000" stroke-width="2.5" stroke-linecap="round"/><path d="M376.74971,124.39828c0,0 4.24646,3.49381 6.49218,12.76179c1.86249,7.6864 1.06338,9.79377 1.06338,9.79377" fill="none" stroke="#000000" stroke-width="2.5" stroke-linecap="round"/><path d="M373.81059,114.76807c0,0 10.06807,-16.18685 15.45611,-22.79197c4.03145,-4.94209 13.99946,-13.31717 13.99946,-13.31717c0,0 11.63156,4.08995 15.14365,6.04893c3.29399,1.83733 5.31658,5.36339 5.31658,5.36339c0,0 -18.23462,8.07259 -24.46253,12.03408c-7.02625,4.46931 -19.97176,14.01465 -19.97176,14.01465c0,0 -0.82543,-1.0256 -2.46026,-1.24439c-1.67714,-0.22446 -3.02125,-0.10753 -3.02125,-0.10753z" fill="#ffffff" stroke="#000000" stroke-width="2.5" stroke-linecap="round"/><g fill="#ffffff" stroke-linecap="butt"><g stroke="#000000" stroke-width="2.5"><path d="M312.65719,128.79882c0.69032,-1.64951 1.10165,-3.20098 1.34655,-4.48283c0.38728,-2.02711 0.90904,-2.37049 1.73612,-0.7287c0.70587,1.40118 1.61305,3.26294 2.55105,5.35085c2.69003,5.9878 3.02603,13.32092 2.20132,17.49933c-1.44923,7.34257 -16.11945,4.44704 -14.67022,-2.89552c0.7766,-3.93463 4.77778,-9.82702 6.83518,-14.74312z"/><path d="M299.81535,133.38482c0.33609,-1.4566 0.44622,-2.78755 0.45832,-3.85559c0.01777,-1.56821 0.47864,-1.74179 1.45914,-0.40618c0.71561,0.97478 1.6049,2.22007 2.54019,3.61146c2.92734,4.35491 4.18142,10.0874 4.09536,13.49086c-0.15123,5.98078 -12.10066,5.67861 -11.94942,-0.30217c0.08104,-3.20489 2.43864,-8.38737 3.39641,-12.53838z"/><path d="M326.64886,135.52607c0.88291,-1.0339 1.55204,-2.06193 2.04506,-2.94803c0.84499,-1.51871 1.45659,-1.13587 1.77839,1.08689c0.14331,0.98988 0.29413,2.12616 0.43072,3.34287c0.58542,5.21457 -0.94949,10.87834 -2.59754,13.85741c-2.89607,5.23502 -13.35548,-0.55124 -10.45941,-5.78626c1.55191,-2.80526 6.03632,-6.3133 8.80278,-9.55288z"/><path d="M328.00854,150.75451c-1.41168,7.26473 -4.84779,16.17222 -13.41367,14.50771c-2.70497,-0.52563 -11.09519,-3.11085 -13.74334,-5.16948c-5.73778,-4.46044 -4.82866,-10.39535 -3.86277,-15.36598c1.41168,-7.26473 32.43146,-1.23699 31.01978,6.02775z"/><path d="M331.5797,159.04519c1.30243,0.36362 2.3049,0.59636 3.06856,0.74436c1.71326,0.33204 1.82599,0.97348 0.18315,1.98883c-0.74966,0.46332 -1.75841,0.98482 -3.10659,1.52114c-5.68184,2.26027 -12.78754,2.79712 -16.88693,2.33664c-7.20373,-0.8092 -7.90252,-10.24733 -0.69879,-9.43813c3.86023,0.43363 12.56334,1.48551 17.4406,2.84717z"/></g><path d="M328.69521,142.48047c1.55155,0.58125 -1.72983,11.78816 -3.28138,11.2069c-1.55155,-0.58125 -8.24206,-3.46042 -2.34512,-8.56767c0.11067,-7.43391 4.07494,-3.22049 5.62649,-2.63923z" stroke="none" stroke-width="0"/><path d="M302.81065,142.61419c1.87087,7.28765 -3.39011,6.65559 -4.57888,6.43291c-1.18877,-0.22267 0.79681,-11.64239 1.98558,-11.41972c1.18877,0.22267 5.21327,-1.61036 2.5933,4.98681z" stroke="none" stroke-width="0"/><path d="M313.4656,163.21758c-0.68588,1.08786 -11.55276,-2.84328 -10.86688,-3.93115c0.68588,-1.08786 4.01263,-5.73003 8.65238,-0.6362c7.35506,1.05763 2.90038,3.47949 2.21451,4.56735z" stroke="none" stroke-width="0"/></g></g></g></g></svg>