<svg version="1.1" xmlns="http://www.w3.org/2000/svg" xmlns:xlink="http://www.w3.org/1999/xlink" width="1159.03153" height="738.73874" viewBox="0,0,1159.03153,738.73874"><defs><radialGradient cx="58.35651" cy="159.17253" r="369.36937" gradientUnits="userSpaceOnUse" id="color-1"><stop offset="0" stop-color="#0e0e0c"/><stop offset="1" stop-color="#131310"/></radialGradient><linearGradient x1="44.90606" y1="112.67929" x2="405.7394" y2="112.67929" gradientUnits="userSpaceOnUse" id="color-2"><stop offset="0" stop-color="#060606"/><stop offset="1" stop-color="#0d0d0d"/></linearGradient><linearGradient x1="347.14347" y1="92.26575" x2="382.8697" y2="92.26575" gradientUnits="userSpaceOnUse" id="color-3"><stop offset="0" stop-color="#ffffff" stop-opacity="0"/><stop offset="1" stop-color="#ffffff" stop-opacity="0.02353"/></linearGradient><linearGradient x1="26.90856" y1="300.55776" x2="392.46985" y2="300.55776" gradientUnits="userSpaceOnUse" id="color-4"><stop offset="0" stop-color="#29261d"/><stop offset="1" stop-color="#302d22"/></linearGradient><radialGradient cx="414.9175" cy="321.03819" r="63.90167" gradientUnits="userSpaceOnUse" id="color-5"><stop offset="0" stop-color="#383528"/><stop offset="1" stop-color="#302d22"/></radialGradient><linearGradient x1="14.87603" y1="269.14854" x2="415.01718" y2="269.14854" gradientUnits="userSpaceOnUse" id="color-6"><stop offset="0" stop-color="#1d2629"/><stop offset="1" stop-color="#222c30"/></linearGradient><radialGradient cx="431.37879" cy="241.37076" r="25.5" gradientUnits="userSpaceOnUse" id="color-7"><stop offset="0" stop-color="#273338"/><stop offset="1" stop-color="#222c30"/></radialGradient><linearGradient x1="76.65332" y1="376.63467" x2="332.65332" y2="376.63467" gradientUnits="userSpaceOnUse" id="color-8"><stop offset="0" stop-color="#12100d"/><stop offset="1" stop-color="#000000"/></linearGradient><linearGradient x1="492.5" y1="273.54185" x2="657.41811" y2="273.54185" gradientUnits="userSpaceOnUse" id="color-9"><stop offset="0" stop-color="#02040a"/><stop offset="1" stop-color="#030710"/></linearGradient><linearGradient x1="630.49777" y1="238.61993" x2="681" y2="238.61993" gradientUnits="userSpaceOnUse" id="color-10"><stop offset="0" stop-color="#02040a"/><stop offset="1" stop-color="#030710"/></linearGradient><linearGradient x1="502.44201" y1="287.0679" x2="574.63181" y2="290.15159" gradientUnits="userSpaceOnUse" id="color-11"><stop offset="0" stop-color="#0a0602"/><stop offset="1" stop-color="#0e0f03"/></linearGradient><linearGradient x1="571.13766" y1="254.39411" x2="584.2163" y2="254.39411" gradientUnits="userSpaceOnUse" id="color-12"><stop offset="0" stop-color="#ffffff" stop-opacity="0"/><stop offset="1" stop-color="#ffffff" stop-opacity="0.04706"/></linearGradient><linearGradient x1="548.79095" y1="287.3077" x2="561.78669" y2="285.83734" gradientUnits="userSpaceOnUse" id="color-13"><stop offset="0" stop-color="#ffffff" stop-opacity="0"/><stop offset="1" stop-color="#ffffff" stop-opacity="0.04706"/></linearGradient><linearGradient x1="-8.12012" y1="180" x2="732.12012" y2="180" gradientUnits="userSpaceOnUse" id="color-14"><stop offset="0" stop-color="#050200" stop-opacity="0.75294"/><stop offset="1" stop-color="#633d37" stop-opacity="0.02353"/></linearGradient><radialGradient cx="774.16216" cy="68.86474" r="369.36937" gradientUnits="userSpaceOnUse" id="color-15"><stop offset="0" stop-color="#633e38" stop-opacity="0.3451"/><stop offset="1" stop-color="#633e38" stop-opacity="0"/></radialGradient></defs><g transform="translate(15.5,300.50463)"><g stroke-miterlimit="10"><g><path d="M-7.36937,392.46246v-424.92492h738.73874v424.92492z" fill="url(#color-1)" stroke="#ff0000" stroke-width="0"/><g stroke="#ff0000" stroke-width="0"><path d="M44.90606,238.28064v-202.7027l360.83333,-48.5v202.7027z" fill="url(#color-2)"/><path d="M67.77576,222.35936v-177.00802l315.09394,-42.35212v177.00802z" fill="#000000"/><path d="M371.1853,4.56973c6.51173,-0.87525 11.6844,-1.57051 11.6844,-1.57051v177.00802c0,0 -4.72544,0.63515 -10.7671,1.44722c-32.12009,4.3173 -34.09972,-172.42464 -0.9173,-176.88472z" fill="url(#color-3)"/></g><g stroke="none" stroke-width="0"><path d="M26.90856,434.0691v-127.80334l365.56129,-58.13825v127.80334z" fill="url(#color-4)"/><path d="M391.09811,384.93986v-127.80334h47.63879v127.80334z" fill="url(#color-5)"/><g><path d="M14.87603,322.42631v-51l400.14115,-55.55556v51z" fill="url(#color-6)"/><path d="M413.51568,266.87076v-51h35.72623v51z" fill="url(#color-7)"/></g><path d="M76.65332,416.198c0,-28.99495 54.85984,-92.5 125,-92.5c70.14016,0 131,40.50505 131,69.5c0,28.99495 -256,51.99495 -256,23z" fill="url(#color-8)"/></g><g stroke="#131500" stroke-width="0"><path d="M268.79795,364.25673v-42.68056h608.10811v42.68056z" fill="#141414"/><path d="M876.90606,321.047c0,19.53094 -136.12964,35.36389 -304.05405,35.36389c-167.92442,0 -304.05405,-15.83295 -304.05405,-35.36389c0,-19.53094 136.12964,-35.36389 304.05405,-35.36389c167.92442,0 304.05405,15.83295 304.05405,35.36389z" fill="#212121"/></g><g><path d="M521.00177,244.33736c0,-13.94581 11.30531,-25.25112 25.25112,-25.25112c13.94581,0 25.25112,11.30531 25.25112,25.25112c0,13.94581 -50.50224,13.94581 -50.50224,0z" fill="#02040a" stroke="#131500" stroke-width="0"/><path d="M492.5,310.39031c0,-28.85983 23.27492,-62.97717 54.207,-78.69601c17.87771,-9.08497 49.78203,2.27228 66.46204,2.27228c45.53985,0 44.24532,30.88388 44.24532,76.42373c0,11.46195 -164.91437,11.26198 -164.91437,0z" fill="url(#color-9)" stroke="#131500" stroke-width="0"/><path d="M668.48618,226.57468c0,13.82239 -139.43979,13.82239 -139.43979,0c0,-13.71671 139.43979,-13.82239 139.43979,0z" fill="#02040a" stroke="#131500" stroke-width="0"/><path d="M630.49777,246.01581c0,-13.94581 11.30531,-25.25111 25.25112,-25.25111c13.94581,0 25.25111,11.30531 25.25111,25.25112c0,13.94581 -50.50223,13.94581 -50.50223,0z" fill="url(#color-10)" stroke="#131500" stroke-width="0"/><path d="M517.32515,270.43466c8.08948,-4.62462 46.55501,-3.40326 51.72159,1.18908c5.45172,4.84578 -2.55791,31.6003 -10.55226,35.85285c-7.88932,4.19666 -44.07227,3.1579 -49.23738,-0.85861c-6.32588,-4.91915 0.70101,-31.9717 8.06805,-36.18331z" fill="url(#color-11)" stroke="#131500" stroke-width="0"/><path d="M533.03128,245.86652c8.08948,-2.24371 46.55501,-1.65114 51.72159,0.5769c5.45172,2.35101 -2.55791,15.33138 -10.55227,17.39456c-7.88932,2.03607 -44.07226,1.5321 -49.23737,-0.41657c-6.32588,-2.3866 0.701,-15.51156 8.06804,-17.55489z" fill="#000000" stroke="#131500" stroke-width="0"/><path d="M584.2163,250.13975c0,2.11567 -8.1379,10.89558 -8.82549,10.89558c-0.68759,0 -4.8646,-13.28244 -4.17701,-13.28244c0.68759,0 13.0025,0.27119 13.0025,2.38686z" fill="url(#color-12)" stroke="#131500" stroke-width="0"/><path d="M518.14191,273.43081c6.7727,-3.87184 38.97694,-2.84929 43.30251,0.99552c4.5643,4.057 -2.14155,26.45651 -8.8346,30.01683c-6.60511,3.51354 -36.89832,2.64387 -41.22267,-0.71885c-5.29617,-4.11843 0.58689,-26.76743 6.75476,-30.2935z" fill="#000000" stroke="#131500" stroke-width="0"/><path d="M560.88077,277.8304c0.45051,3.98181 -5.76621,21.42101 -6.44945,21.49831c-0.68323,0.0773 -7.6621,-24.45142 -6.97887,-24.52872c0.68323,-0.0773 12.97781,-0.95139 13.42832,3.03042z" fill="url(#color-13)" stroke="#131500" stroke-width="0"/><text transform="translate(607.7313,294.73208) scale(0.43993,0.67039)" font-size="40" xml:space="preserve" fill="#000000" stroke="#000000" stroke-width="3" font-family="&quot;Century Gothic&quot;, Sans Serif" font-weight="normal" text-anchor="start"><tspan x="0" dy="0">ASC</tspan></text></g><path d="M-8.12012,369.18919v-378.37838h740.24024v378.37838z" fill="url(#color-14)" stroke="#ff0000" stroke-width="0"/><path d="M404.79279,68.86474c0,-203.99707 165.3723,-369.36937 369.36937,-369.36937c203.99707,0 369.36937,165.3723 369.36937,369.36937c0,203.99707 -165.3723,369.36937 -369.36937,369.36937c-203.99707,0 -369.36937,-165.3723 -369.36937,-369.36937z" fill="url(#color-15)" stroke="#000000" stroke-width="0"/></g><path d="M-15.5,30v-60h751v60z" fill="#000000" stroke-opacity="0.50196" stroke="#0d0d0d" stroke-width="0"/><path d="M-15.5,390v-60h751v60z" fill="#000000" stroke-opacity="0.50196" stroke="#0d0d0d" stroke-width="0"/></g></g></svg>