<svg version="1.1" xmlns="http://www.w3.org/2000/svg" xmlns:xlink="http://www.w3.org/1999/xlink" width="680.20606" height="408.08702" viewBox="0,0,680.20606,408.08702"><defs><linearGradient x1="55.33277" y1="414.94853" x2="106.15899" y2="415.47936" gradientUnits="userSpaceOnUse" id="color-1"><stop offset="0" stop-color="#484c5e"/><stop offset="1" stop-color="#212d30"/></linearGradient><linearGradient x1="55.82103" y1="376.85638" x2="124.66159" y2="377.57532" gradientUnits="userSpaceOnUse" id="color-2"><stop offset="0" stop-color="#484c5e"/><stop offset="1" stop-color="#212d30"/></linearGradient><linearGradient x1="56.36359" y1="334.52851" x2="125.20415" y2="335.24744" gradientUnits="userSpaceOnUse" id="color-3"><stop offset="0" stop-color="#484c5e"/><stop offset="1" stop-color="#212d30"/></linearGradient><linearGradient x1="56.84585" y1="296.90371" x2="125.68641" y2="297.62265" gradientUnits="userSpaceOnUse" id="color-4"><stop offset="0" stop-color="#484c5e"/><stop offset="1" stop-color="#212d30"/></linearGradient><linearGradient x1="57.40852" y1="253.00809" x2="126.24907" y2="253.72708" gradientUnits="userSpaceOnUse" id="color-5"><stop offset="0" stop-color="#484c5e"/><stop offset="1" stop-color="#212d30"/></linearGradient><linearGradient x1="57.89077" y1="215.38335" x2="126.73133" y2="216.10229" gradientUnits="userSpaceOnUse" id="color-6"><stop offset="0" stop-color="#484c5e"/><stop offset="1" stop-color="#212d30"/></linearGradient><linearGradient x1="58.43334" y1="173.05542" x2="127.27389" y2="173.77442" gradientUnits="userSpaceOnUse" id="color-7"><stop offset="0" stop-color="#484c5e"/><stop offset="1" stop-color="#212d30"/></linearGradient><linearGradient x1="58.91559" y1="135.43069" x2="127.75615" y2="136.14956" gradientUnits="userSpaceOnUse" id="color-8"><stop offset="0" stop-color="#484c5e"/><stop offset="1" stop-color="#212d30"/></linearGradient><linearGradient x1="666.21182" y1="414.94858" x2="615.38561" y2="415.47941" gradientUnits="userSpaceOnUse" id="color-9"><stop offset="0" stop-color="#484c5e"/><stop offset="1" stop-color="#212d30"/></linearGradient><linearGradient x1="665.72356" y1="376.85643" x2="596.883" y2="377.57537" gradientUnits="userSpaceOnUse" id="color-10"><stop offset="0" stop-color="#484c5e"/><stop offset="1" stop-color="#212d30"/></linearGradient><linearGradient x1="665.181" y1="334.52856" x2="596.34044" y2="335.24749" gradientUnits="userSpaceOnUse" id="color-11"><stop offset="0" stop-color="#484c5e"/><stop offset="1" stop-color="#212d30"/></linearGradient><linearGradient x1="664.69875" y1="296.90376" x2="595.85818" y2="297.6227" gradientUnits="userSpaceOnUse" id="color-12"><stop offset="0" stop-color="#484c5e"/><stop offset="1" stop-color="#212d30"/></linearGradient><linearGradient x1="664.13608" y1="253.00814" x2="595.29552" y2="253.72712" gradientUnits="userSpaceOnUse" id="color-13"><stop offset="0" stop-color="#484c5e"/><stop offset="1" stop-color="#212d30"/></linearGradient><linearGradient x1="663.65382" y1="215.38339" x2="594.81326" y2="216.10233" gradientUnits="userSpaceOnUse" id="color-14"><stop offset="0" stop-color="#484c5e"/><stop offset="1" stop-color="#212d30"/></linearGradient><linearGradient x1="663.11126" y1="173.05546" x2="594.2707" y2="173.77446" gradientUnits="userSpaceOnUse" id="color-15"><stop offset="0" stop-color="#484c5e"/><stop offset="1" stop-color="#212d30"/></linearGradient><linearGradient x1="662.62901" y1="135.43073" x2="593.78844" y2="136.1496" gradientUnits="userSpaceOnUse" id="color-16"><stop offset="0" stop-color="#484c5e"/><stop offset="1" stop-color="#212d30"/></linearGradient></defs><g transform="translate(-20.66928,-29.89212)"><g stroke-miterlimit="10"><g fill="none" stroke-width="3.25" stroke-linecap="round"><path d="M55.5783,395.79394c0,0 31.88218,-0.90297 44.50005,-1.26028c9.33843,-0.26449 7.93086,9.26176 -1.90819,15.21652c-8.2408,4.98742 -24.14006,14.60997 -34.15535,20.67136c-5.29823,3.20658 -2.87213,5.48005 1.83047,5.52913c8.90188,0.093 38.62921,0.40346 38.62921,0.40346" stroke="url(#color-1)"/><path d="M56.06061,358.16908c0,0 31.88223,-0.90297 44.50004,-1.26035c9.33843,-0.26444 7.93086,9.26182 -1.90818,15.21652c-12.60031,7.62586 -43.10516,26.08794 -43.10516,26.08794" stroke="url(#color-2)"/><path d="M56.60312,315.84121c0,0 31.88223,-0.90297 44.50005,-1.26028c9.33843,-0.26444 7.93085,9.26182 -1.90819,15.21652c-12.60031,7.62586 -43.10516,26.08794 -43.10516,26.08794" stroke="url(#color-3)"/><path d="M57.08543,278.21643c0,0 31.88223,-0.90297 44.50005,-1.26028c9.33843,-0.26444 7.93085,9.26182 -1.90819,15.21652c-12.60031,7.62586 -43.10516,26.08794 -43.10516,26.08794" stroke="url(#color-4)"/><path d="M57.64804,234.32085c0,0 31.88223,-0.90297 44.50004,-1.26035c9.33843,-0.26444 7.93086,9.26188 -1.90818,15.21658c-12.60031,7.62586 -43.10516,26.08794 -43.10516,26.08794" stroke="url(#color-5)"/><path d="M58.13035,196.69606c0,0 31.88223,-0.90297 44.50005,-1.26035c9.33843,-0.26444 7.93086,9.26182 -1.90818,15.21652c-12.60031,7.62586 -43.10517,26.08794 -43.10517,26.08794" stroke="url(#color-6)"/><path d="M58.67286,154.36818c0,0 31.88223,-0.90297 44.50005,-1.26028c9.33843,-0.26444 7.93085,9.26182 -1.90819,15.21652c-12.60031,7.62586 -43.10516,26.08799 -43.10516,26.08799" stroke="url(#color-7)"/><path d="M59.15517,116.74339c0,0 31.88223,-0.90297 44.50005,-1.26028c9.33843,-0.26444 7.93085,9.26182 -1.90819,15.21652c-12.60031,7.62586 -43.10516,26.08794 -43.10516,26.08794" stroke="url(#color-8)"/></g><path d="M38.49489,113.55432c-4.68434,-17.07174 -31.70144,-73.08674 6.64436,-82.56975c39.58293,-9.78893 44.12161,49.50232 54.2833,46.72217c13.13656,-3.59403 3.62524,-14.33841 11.15548,-10.61275c20.95938,10.36986 7.64552,37.34858 9.02771,42.38593c2.94357,10.72772 32.77133,30.28672 23.40582,36.3766c-5.53849,3.60136 -47.15613,-3.84634 -55.47953,-3.42824c-5.43594,0.27308 -57.29021,31.88384 -62.43334,30.64313c-16.04865,-3.87147 16.9437,-46.58851 13.39621,-59.51705z" fill="#0d0d0d" stroke="#000000" stroke-width="0" stroke-linecap="butt"/><g fill="none" stroke-width="3.25" stroke-linecap="round"><path d="M617.07011,436.35412c0,0 29.72733,-0.31046 38.6292,-0.40346c4.7026,-0.04913 7.12869,-2.32256 1.83047,-5.52913c-10.01528,-6.0614 -25.91455,-15.68394 -34.15535,-20.67137c-9.83905,-5.95476 -11.24662,-15.48102 -1.90819,-15.21652c12.61786,0.35732 44.50005,1.26028 44.50005,1.26028" stroke="url(#color-9)"/><path d="M665.99729,398.21331c0,0 -30.50486,-18.46207 -43.10517,-26.08794c-9.83904,-5.9547 -11.24661,-15.48096 -1.90818,-15.21652c12.61782,0.35732 44.50005,1.26035 44.50005,1.26035" stroke="url(#color-10)"/><path d="M665.45477,355.88544c0,0 -30.50486,-18.46201 -43.10516,-26.08794c-9.83904,-5.9547 -11.24661,-15.48096 -1.90819,-15.21652c12.61782,0.35732 44.50005,1.26028 44.50005,1.26028" stroke="url(#color-11)"/><path d="M664.97247,318.26065c0,0 -30.50486,-18.46201 -43.10516,-26.08794c-9.83904,-5.9547 -11.24661,-15.48096 -1.90819,-15.21652c12.61782,0.35732 44.50005,1.26028 44.50005,1.26028" stroke="url(#color-12)"/><path d="M664.40985,274.36507c0,0 -30.50485,-18.46201 -43.10516,-26.08794c-9.83904,-5.9547 -11.24661,-15.48102 -1.90819,-15.21658c12.61782,0.35732 44.50005,1.26035 44.50005,1.26035" stroke="url(#color-13)"/><path d="M663.92755,236.74021c0,0 -30.50486,-18.46207 -43.10517,-26.08794c-9.83904,-5.9547 -11.2466,-15.48096 -1.90818,-15.21652c12.61782,0.35732 44.50005,1.26035 44.50005,1.26035" stroke="url(#color-14)"/><path d="M663.38503,194.4124c0,0 -30.50486,-18.46207 -43.10516,-26.08799c-9.83904,-5.9547 -11.24661,-15.48096 -1.90819,-15.21652c12.61782,0.35732 44.50005,1.26028 44.50005,1.26028" stroke="url(#color-15)"/><path d="M662.90273,156.78755c0,0 -30.50486,-18.46201 -43.10516,-26.08794c-9.83904,-5.9547 -11.24661,-15.48096 -1.90819,-15.21652c12.61782,0.35732 44.50005,1.26028 44.50005,1.26028" stroke="url(#color-16)"/></g><path d="M683.04972,118.05888c-3.54749,12.92854 29.44486,55.64558 13.39621,59.51705c-5.14314,1.24072 -56.99741,-30.37005 -62.43335,-30.64312c-8.3234,-0.41809 -49.94104,7.0296 -55.47953,3.42824c-9.36551,-6.08987 20.46224,-25.64888 23.40582,-36.3766c1.38219,-5.03735 -11.93166,-32.01607 9.02771,-42.38593c7.53025,-3.72566 -1.98108,7.01872 11.15548,10.61275c10.16169,2.78015 14.70037,-56.51111 54.2833,-46.72217c38.34579,9.48301 11.3287,65.49801 6.64436,82.56975z" fill="#0d0d0d" stroke="#000000" stroke-width="0" stroke-linecap="butt"/></g></g></svg>