<svg version="1.1" xmlns="http://www.w3.org/2000/svg" xmlns:xlink="http://www.w3.org/1999/xlink" width="76.33333" height="101" viewBox="0,0,76.33333,101"><defs><linearGradient x1="361.26389" y1="180.07149" x2="358.57826" y2="186.01671" gradientUnits="userSpaceOnUse" id="color-1"><stop offset="0" stop-color="#15131c"/><stop offset="1" stop-color="#1c1925"/></linearGradient><linearGradient x1="363.32795" y1="171.34665" x2="360.1134" y2="181.67504" gradientUnits="userSpaceOnUse" id="color-2"><stop offset="0" stop-color="#231f2e"/><stop offset="1" stop-color="#1e1b28"/></linearGradient></defs><g transform="translate(-321.83333,-129.5)"><g stroke-miterlimit="10"><path d="M321.83333,230.5v-101h76.33333v101z" fill="#273042" stroke="none" stroke-width="0"/><path d="M329.7547,196.83333v-61.66667h60.49068v61.66667z" fill="#0b0e13" stroke="none" stroke-width="0"/><path d="M343.08347,227.33333v-17.33333h33.83333v17.33333z" fill="#0b0e13" stroke="#000000" stroke-width="0"/><path d="M342.99993,209.125v-11.25h34.25v11.25z" fill="#273042" stroke="#000000" stroke-width="0"/><text transform="translate(346.9882,207.0298) scale(0.29415,0.29415)" font-size="40" xml:space="preserve" fill="#000000" stroke="none" stroke-width="1" font-family="&quot;GovtAgentBB&quot;, Serif" font-weight="normal" text-anchor="start"><tspan x="0" dy="0">Echo</tspan></text><g stroke="#000000" stroke-width="0"><path d="M358.31965,163.25009c0,0 0.4841,-21.68469 5.24845,-20.68172c5.87708,1.23721 9.86868,34.94098 9.86868,34.94098z" fill="#231f2e"/><path d="M370.2477,165.02809c0.61058,4.02321 -5.4086,-0.84825 -6.38744,-4.79805c-1.36817,-5.52084 -1.77376,-14.25605 0.84996,-13.59238c1.82518,0.46168 4.56738,11.99834 5.53748,18.39043z" fill="#644360"/></g><g stroke="#000000" stroke-width="0"><path d="M349.62833,183.815c0,0 -14.03738,-31.04356 -9.71205,-35.21037c3.5064,-3.37789 15.42152,14.7464 15.42152,14.7464z" fill="#231f2e"/><path d="M341.1071,152.65992c1.8719,-1.95457 6.16255,5.66505 7.93189,11.0707c1.26584,3.86739 -1.2518,11.19018 -2.86875,7.45593c-2.569,-5.93297 -6.36532,-17.16695 -5.06314,-18.52664z" fill="#644360"/></g><path d="M345.68043,176.98185c1.36768,-9.57814 5.25307,-14.86871 14.32004,-14.86871c9.06697,0 12.03366,3.63936 13.93071,13.29508c2.08171,10.5956 -5.36708,14.14988 -14.43405,14.14988c-9.06697,0 -15.1351,-3.34329 -13.8167,-12.57625z" fill="#231f2e" stroke="#000000" stroke-width="0"/><path d="M363.78305,181.87286c-0.29356,0.9432 -2.04625,2.34645 -4.07238,1.71585c-2.02614,-0.6306 -2.84445,-2.45246 -2.55089,-3.39565c0.29356,-0.9432 1.22508,0.06908 3.2512,0.69968c2.02614,0.6306 3.66562,0.03692 3.37206,0.98012z" fill="#1c1925" stroke="#000000" stroke-width="0"/><path d="M362.43621,181.18464l1.52371,0.2314l-1.41788,2.43795z" fill="#bca253" stroke="#000000" stroke-width="0"/><path d="M356.98458,182.2556l0.21608,-2.81199l1.3859,0.67417z" fill="#bca253" stroke="#000000" stroke-width="0"/><g stroke="#000000" stroke-width="0"><path d="M362.68301,184.8745c-0.38985,0.86301 -2.22193,1.99274 -4.07581,1.15529c-1.85388,-0.83746 -2.41895,-2.66678 -2.0291,-3.52979c0.38985,-0.86301 2.14133,-3.48377 4.2261,-2.63209c3.12698,1.27746 2.26867,4.14358 1.87882,5.00659z" fill="url(#color-1)"/><path d="M361.8182,183.45917c-0.0083,1.14314 -1.59672,0.87929 -2.66946,0.3947c-1.07274,-0.48459 -1.5842,-1.40198 -0.70476,-2.13235c0.87944,-0.73036 1.24104,-0.71786 1.89823,-0.53678c1.47265,0.40577 1.48191,1.45941 1.47599,2.27443z" fill="#14121a"/><path d="M361.33702,184.15885c0,0 -0.13755,0.13548 -0.23223,0.14704c-0.12946,0.0158 -0.49002,-0.0241 -0.49002,-0.0241l0.57918,-1.26606z" fill="#bca253"/><path d="M358.86207,182.09421l-0.55048,1.23468c0,0 -0.1773,-0.22715 -0.23524,-0.34572c-0.04797,-0.09817 -0.08817,-0.3161 -0.08817,-0.3161z" fill="#bca253"/></g><path d="M364.30469,181.44403c-1.64017,1.5309 -8.05936,-0.28499 -7.52441,-2.87123c0.37892,-1.8319 1.47665,-3.22165 2.71546,-5.08383c1.31824,-1.98158 2.02848,-2.70371 3.84889,-2.13714c0.91256,0.28402 1.06297,1.32996 1.37964,3.45891c0.31503,2.11795 0.6452,5.63944 -0.41958,6.63328z" fill="url(#color-2)" stroke="#000000" stroke-width="0"/><g stroke="#000000" stroke-width="0"><path d="M364.91267,178.21355c-0.30866,0.99172 -2.03093,2.1015 -3.2536,1.72096c-1.22267,-0.38054 -1.85011,-2.25003 -1.54145,-3.24175c0.30866,-0.99172 5.10371,0.52907 4.79506,1.52079z" fill="#976581"/><path d="M361.05332,179.57083c-0.08739,0.0287 -0.37715,-0.28868 -0.5895,-0.65988c-0.20595,-0.36001 -0.33684,-0.77296 -0.28205,-0.82175c0.22373,-0.19917 0.51306,0.02403 0.75548,0.24578c0.38118,0.34869 0.37352,1.1513 0.11608,1.23585z" fill="#643851"/><path d="M363.24867,179.04998c0.32695,-0.03231 0.69233,-0.03768 0.75213,0.25584c0.01465,0.07189 -0.33758,0.32411 -0.71816,0.48895c-0.39241,0.16997 -0.81456,0.25048 -0.86734,0.17514c-0.15546,-0.22193 0.31927,-0.86914 0.83337,-0.91993z" fill="#643851"/><path d="M361.52155,179.88983c0.07794,-0.25041 0.4349,-1.39735 0.63488,-2.03988c0.05934,-0.19066 0.10618,-0.44896 0.29684,-0.38962c0.17839,0.05552 0.0827,0.27741 0.02805,0.45606c-0.15691,0.51296 -0.43153,1.40445 -0.6422,2.05494c-0.02763,0.08532 -0.336,-0.0223 -0.31758,-0.0815z" fill="#81526c"/></g><path d="M358.72634,174.74811c-0.26354,1.29877 -1.90879,1.30829 -3.6574,1.33259c-1.06033,0.01473 -2.28655,-0.02501 -3.10965,-0.19203c-2.18046,-0.44245 -3.76791,-1.10603 -3.34456,-3.19236c0.42335,-2.08633 3.69748,-4.77986 7.38702,-3.32144c2.06912,0.81789 3.14794,3.28691 2.72459,5.37324z" fill="#1c1925" stroke="#000000" stroke-width="0"/><g stroke="#000000" stroke-width="0"><path d="M368.5598,172.00101c3.96618,0.09505 5.93147,3.85173 5.50812,5.93806c-0.42335,2.08633 -2.14389,2.07867 -4.32435,1.63622c-0.82309,-0.16702 -1.96782,-0.60839 -2.93855,-1.03524c-1.60083,-0.70395 -3.11225,-1.35399 -2.84871,-2.65277c0.42335,-2.08633 2.37922,-3.93957 4.60348,-3.88626z" fill="#1c1925"/><g><path d="M369.11239,176.29379c2.72785,0.55352 5.04582,0.98726 4.7721,2.33621c-0.41878,2.06383 -3.13763,2.78667 -5.44233,1.22596c-2.14009,-1.44924 -4.04643,-2.01339 -4.39812,-2.94791c-0.74173,-1.97094 2.34053,-1.16778 5.06837,-0.61426z" fill="#16130a"/><path d="M369.25649,175.58363c2.72785,0.55352 4.99841,1.37734 4.72469,2.72628c-0.41878,2.06383 -3.03333,2.58558 -5.33803,1.02486c-2.14009,-1.44924 -4.25459,-1.76987 -4.6063,-2.70439c-0.74173,-1.97094 2.49179,-1.60028 5.21964,-1.04676z" fill="#16130a"/><path d="M369.18046,175.95834c2.72784,0.55352 5.03299,1.20692 4.75927,2.55587c-0.41878,2.06383 -3.03333,2.58558 -5.33804,1.02486c-2.14009,-1.44924 -4.25459,-1.76987 -4.60629,-2.70439c-0.74173,-1.97094 2.45721,-1.42986 5.18506,-0.87634z" fill="#bca253"/><path d="M367.69872,179.00456c-0.03521,0.0003 -1.28328,-0.60229 -1.33723,-0.67163c-0.30931,-0.39759 -0.44361,-0.95321 -0.33558,-1.48561c0.11693,-0.57623 0.50482,-1.06163 0.99882,-1.29419c0.09586,-0.04512 1.99994,0.32632 2.0517,0.38033c0.3921,0.40918 0.57767,1.02799 0.45643,1.62546c-0.1711,0.84323 -1.00687,1.43858 -1.83414,1.44562z" fill="#20395e"/><path d="M367.54735,178.3467c-0.63158,-0.12816 -1.03968,-0.74404 -0.91153,-1.37562c0.12816,-0.63158 0.74404,-1.03968 1.37562,-0.91153c0.63158,0.12816 1.03968,0.74404 0.91153,1.37562c-0.12816,0.63158 -0.74404,1.03968 -1.37562,0.91153z" fill="#16130a"/></g></g><path d="M362.43625,181.18464l1.52371,0.2314l-1.41788,2.43795z" fill="#bca253" stroke="#000000" stroke-width="0"/><path d="M356.98462,182.2556l0.21608,-2.81199l1.3859,0.67417z" fill="#bca253" stroke="#000000" stroke-width="0"/><text transform="translate(347.21026,223.17375) scale(0.37559,0.37559)" font-size="40" xml:space="preserve" fill="#c74444" stroke="none" stroke-width="1" font-family="&quot;Agency FB&quot;, Sans Serif" font-weight="normal" text-anchor="start"><tspan x="0" dy="0">HARD</tspan></text></g></g></svg>