<svg version="1.1" xmlns="http://www.w3.org/2000/svg" xmlns:xlink="http://www.w3.org/1999/xlink" width="1171.71711" height="806.01847" viewBox="0,0,1171.71711,806.01847"><defs><radialGradient cx="360" cy="177.81483" r="367.5075" gradientUnits="userSpaceOnUse" id="color-1"><stop offset="0" stop-color="#000000" stop-opacity="0.83922"/><stop offset="1" stop-color="#000000" stop-opacity="0"/></radialGradient><radialGradient cx="360" cy="177.81483" r="367.50751" gradientUnits="userSpaceOnUse" id="color-2"><stop offset="0" stop-color="#000000" stop-opacity="0"/><stop offset="1" stop-color="#000000"/></radialGradient><linearGradient x1="-5.24206" y1="181.0581" x2="150.659" y2="181.0581" gradientUnits="userSpaceOnUse" id="color-3"><stop offset="0" stop-color="#000000"/><stop offset="1" stop-color="#000000" stop-opacity="0"/></linearGradient><linearGradient x1="727.50752" y1="177.81485" x2="571.60646" y2="177.81485" gradientUnits="userSpaceOnUse" id="color-4"><stop offset="0" stop-color="#000000"/><stop offset="1" stop-color="#000000" stop-opacity="0"/></linearGradient><linearGradient x1="360.24743" y1="-17.14012" x2="360.24743" y2="110.48753" gradientUnits="userSpaceOnUse" id="color-5"><stop offset="0" stop-color="#000000"/><stop offset="1" stop-color="#000000" stop-opacity="0"/></linearGradient><linearGradient x1="359.27227" y1="377.38047" x2="359.27227" y2="249.75283" gradientUnits="userSpaceOnUse" id="color-6"><stop offset="0" stop-color="#000000"/><stop offset="1" stop-color="#000000" stop-opacity="0"/></linearGradient></defs><g transform="translate(436.2171,32.58571)"><g data-paper-data="{&quot;isPaintingLayer&quot;:true}" fill-rule="nonzero" stroke-linecap="butt" stroke-linejoin="miter" stroke-miterlimit="10" stroke-dasharray="" stroke-dashoffset="0" style="mix-blend-mode: normal"><path d="M-7.11712,370.42353v-384.38438h732.73273v384.38438z" fill="#07010e" stroke="none" stroke-width="0"/><g stroke="none"><g stroke-width="0"><g><g><g><path d="M-325.14514,698.00454c-0.10471,-10.00131 7.91809,-18.19387 17.91942,-18.29862c10.00131,-0.10471 18.19387,7.91809 18.29862,17.91942c0.10471,10.00131 -7.91809,18.19387 -17.91942,18.29862c-10.00131,0.10471 -18.19387,-7.91809 -18.29862,-17.91942z" fill="#6e2d2a"/><path d="M-307.10785,771.04724c-26.67614,0.27929 -18.76022,-62.01086 -18.76022,-62.01086c0,0 3.41572,-8.08616 19.59302,-8.86688c12.64932,-0.61048 18.98704,8.46296 18.98704,8.46296c0,0 6.85632,62.1355 -19.81983,62.41479z" fill="#893834"/></g><path d="M-428.0827,699.84712l25.89994,-38.56629l83.89984,56.34459l-25.89994,38.56629z" fill="#6e2d2a"/><path d="M-315.93526,722.04745c-16.72857,24.90966 -107.58814,-36.10884 -90.85957,-61.01854c16.72857,-24.90966 46.95091,-41.50162 89.0364,-13.23828c25.09019,16.84979 18.55174,49.34713 1.82315,74.25678z" fill="#893834"/><path d="M-328.62433,738.66036c-24.97384,37.18728 -26.70907,42.00866 -51.77129,26.40851c-10.56231,-6.57459 -6.66772,-14.6404 -6.66772,-14.6404c0,0 -5.52516,11.77946 -41.12152,-19.16231c-20.97442,-18.23178 5.10236,-43.70461 10.81203,-52.20656c12.24337,-18.231 -8.13659,7.40908 39.49902,38.38225c42.67045,27.74483 61.49284,2.98751 49.24945,21.21852z" fill="#893834"/></g><g><path d="M-251.50072,480.7489c13.14749,-17.77075 38.21173,-21.51861 55.98253,-8.3711c17.77075,13.14749 21.51861,38.21173 8.37107,55.9825c-13.14749,17.77075 -38.21173,21.51861 -55.9825,8.37112c-17.77075,-13.14754 -21.51861,-38.21173 -8.37112,-55.9825z" fill="#6e2d2a"/><path d="M-370.69019,625.30238l95.17026,-128.63628c0,0 12.78244,-15.25234 52.43084,14.08119c37.71423,27.90251 27.74741,45.23795 27.74741,45.23795l-95.17023,128.63628c0,0 -13.96367,8.01159 -48.09411,-17.73637c-36.41873,-27.47419 -32.08416,-41.58271 -32.08416,-41.58271z" fill="#893834"/></g><g><path d="M-83.51951,354.03626c17.78693,-13.12558 42.84652,-9.34685 55.97212,8.44013c13.12558,17.78693 9.34685,42.84652 -8.44011,55.97208c-17.78693,13.12558 -42.84652,9.34685 -55.97212,-8.44013c-13.12558,-17.78693 -9.34685,-42.84652 8.44011,-55.97208z" fill="#6e2d2a"/><path d="M-239.90796,457.20857l128.75352,-95.01161c0,0 16.69832,-10.8255 45.98291,28.85908c27.85601,37.74861 13.23728,51.3922 13.23728,51.3922l-128.75348,95.01161c0,0 -15.70087,3.55712 -40.76391,-31.07941c-26.74341,-36.95869 -18.45628,-49.17192 -18.45628,-49.17192z" fill="#893834"/></g></g><g><g><g><path d="M388.74936,707.35294c-9.99829,-0.26844 -17.88588,-8.59122 -17.6174,-18.5895c0.26844,-9.99829 8.59122,-17.88584 18.58953,-17.61746c9.99829,0.26844 17.88584,8.59122 17.61744,18.58953c-0.2684,9.99826 -8.5912,17.88586 -18.58951,17.61742z" fill="#6e2d2a"/><path d="M369.3131,699.74207c0,0 6.48544,-8.9685 19.12306,-8.151c16.16232,1.0455 19.44522,9.18653 19.44522,9.18653c0,0 6.89506,62.41141 -19.77292,61.69541c-26.668,-0.716 -18.79531,-62.73092 -18.79531,-62.73092z" fill="#893834"/></g><path d="M425.42153,748.22649l-25.26505,-38.98516l84.81105,-54.96346l25.26505,38.98516z" fill="#6e2d2a"/><path d="M400.77548,639.40726c42.54257,-27.57054 72.48919,-10.48603 88.80774,14.69418c16.31853,25.18021 -75.52787,84.70303 -91.84635,59.52282c-16.31853,-25.18021 -22.32405,-57.78021 3.03863,-74.217z" fill="#893834"/><path d="M459.7425,710.03332c48.13631,-30.18916 28.17888,-56.15947 40.12216,-37.73045c5.5697,8.59431 31.22594,34.49063 9.95584,52.3766c-36.09815,30.35485 -41.42972,18.48653 -41.42972,18.48653c0,0 3.76201,8.12848 -6.90649,14.52926c-25.31428,15.18775 -26.97029,10.33863 -51.33199,-27.25252c-11.94328,-18.42899 6.47126,6.63309 49.59025,-20.40939z" fill="#893834"/></g><g><path d="M327.97461,527.14129c-17.98361,12.8548 -42.9831,8.6971 -55.83795,-9.28653c-12.8548,-17.98361 -8.6971,-42.98312 9.28655,-55.83793c17.98361,-12.8548 42.98312,-8.69712 55.83799,9.28653c12.8548,17.98359 8.69708,42.98315 -9.28655,55.83793z" fill="#6e2d2a"/><path d="M421.3076,658.84061c-34.54744,25.18568 -48.37809,16.94662 -48.37809,16.94662l-93.05152,-130.17714c0,0 -9.68172,-17.49625 28.48431,-44.77761c40.12334,-28.68043 52.65438,-13.22086 52.65438,-13.22086l93.05154,130.17714c0,0 4.10305,14.17763 -32.76058,41.05187z" fill="#893834"/></g><g><path d="M178.89967,397.96028c-13.41505,17.56968 -38.53311,20.93765 -56.10275,7.52261c-17.56968,-13.415 -20.93765,-38.53311 -7.52265,-56.10283c13.41504,-17.56965 38.53311,-20.93765 56.10275,-7.52261c17.56968,13.415 20.93765,38.53311 7.52265,56.10283z" fill="#6e2d2a"/><path d="M306.79663,496.43942c-25.62677,34.22154 -41.26726,30.40786 -41.26726,30.40786l-127.18072,-97.10683c0,0 -14.39336,-13.88107 14.07691,-51.16861c29.9304,-39.19979 46.44923,-28.10236 46.44923,-28.10236l127.18072,97.1068c0,0 8.08605,12.34726 -19.25883,48.86318z" fill="#893834"/></g></g><g><path d="M117.4461,606.19477c-2.31779,25.77039 -49.24847,53.67739 -103.60451,48.7886c-54.35601,-4.88879 -95.55387,-40.72215 -93.23608,-66.49252c2.31779,-25.77039 48.26098,-42.69824 102.61703,-37.80944c54.35601,4.88879 96.54134,29.74297 94.22351,55.51337z" fill="#893834"/><g><path d="M-78.02588,491.1763c0,0 -23.41731,-194.12368 123.40254,-178.45112c145.34382,15.51498 87.19378,193.44611 87.19378,193.44611c0,0 45.86725,131.57794 -112.33293,117.8853c-164.39129,-14.22848 -98.26334,-132.88028 -98.26334,-132.88028z" fill="#a3433e"/><g fill="#893834"><g><path d="M98.30404,425.829c-30.54374,-2.74712 -54.23223,-16.89415 -52.90973,-31.59833c1.3225,-14.70416 27.15517,-24.39722 57.69891,-21.65012c15.15983,1.36348 -1.11931,26.44354 -1.11931,26.44354c0,0 11.71405,28.18851 -3.66984,26.80489z"/><path d="M51.76611,394.80377c0.21799,-2.42372 2.35961,-4.21189 4.78333,-3.9939c2.42372,0.21799 30.91067,7.20422 30.91067,7.20422c0,0 -29.27636,1.79099 -31.7001,1.57298c-2.42372,-0.21799 -4.21188,-2.35955 -3.9939,-4.78331z"/></g><g><path d="M-29.98699,387.15551c0,0 -11.54264,-27.58234 3.61719,-26.21888c30.54374,2.74712 54.23227,16.89415 52.90978,31.59827c-1.3225,14.70416 -27.15517,24.39724 -57.69895,21.65012c-15.38391,-1.38362 1.17199,-27.02955 1.17199,-27.02955z"/><path d="M15.38487,395.95572c-2.42372,-0.21799 -30.91065,-7.20422 -30.91065,-7.20422c0,0 29.27637,-1.79099 31.7001,-1.57298c2.42372,0.21799 4.21186,2.35953 3.9939,4.78333c-0.21799,2.42372 -2.35961,4.21189 -4.78333,3.9939z"/></g><path d="M10.51324,391.09345c1.26438,-14.05784 13.68544,-24.42894 27.74324,-23.1646c14.05784,1.26438 24.42894,13.68544 23.16456,27.74326c-1.26438,14.05784 -13.68542,24.42894 -27.74323,23.16458c-14.05784,-1.26438 -24.42894,-13.68544 -23.1646,-27.74324z"/></g><g><g><path d="M106.44455,420.09759c-34.11275,-3.06811 -60.56925,-18.86821 -59.0922,-35.29056c1.47703,-16.4223 30.32827,-27.24803 64.44101,-24.17992c16.93122,1.5228 -1.25011,29.53343 -1.25011,29.53343c0,0 13.08282,31.48231 -4.09871,29.937z" fill="#2a2119"/><path d="M54.46869,385.44707c0.24346,-2.707 2.63526,-4.70405 5.34226,-4.46059c2.707,0.24346 34.52255,8.04604 34.52255,8.04604c0,0 -32.69724,2.00023 -35.40424,1.75676c-2.707,-0.24346 -4.70403,-2.63526 -4.46057,-5.34226z" fill="#1e1812"/></g><g><path d="M-36.83715,376.90508c0,0 -12.89138,-30.80532 4.03988,-29.28254c34.11275,3.06811 60.56921,18.86821 59.09219,35.29051c-1.47703,16.4223 -30.32826,27.24802 -64.44097,24.17987c-17.18151,-1.54531 1.30892,-30.18793 1.30892,-30.18793z" fill="#2a2119"/><path d="M13.8363,386.73365c-2.707,-0.24346 -34.52257,-8.04602 -34.52257,-8.04602c0,0 32.6973,-2.00027 35.40424,-1.75677c2.707,0.24346 4.70403,2.63526 4.46057,5.34226c-0.24346,2.707 -2.63526,4.70403 -5.34226,4.46057z" fill="#1e1812"/></g><path d="M8.39544,381.30322c1.41209,-15.70043 15.28459,-27.28343 30.98501,-25.87134c15.70043,1.41209 27.28343,15.28458 25.87132,30.98501c-1.41209,15.70043 -15.28458,27.28343 -30.98501,25.87134c-15.70043,-1.41209 -27.28345,-15.28458 -25.87134,-30.98501z" fill="#1e1812"/></g><g><path d="M20.66352,444.14633c0.59823,-6.65142 6.47524,-11.55853 13.12665,-10.96026c6.65142,0.59823 11.55851,6.47524 10.96026,13.12665c-0.59823,6.65142 -6.47527,11.55849 -13.12664,10.96026c-6.65142,-0.59823 -11.55853,-6.47524 -10.96026,-13.12664z" fill="#893834"/><path d="M21.06657,439.66503c0.59823,-6.65142 6.47524,-11.55853 13.12665,-10.96026c6.65142,0.59823 11.55851,6.47524 10.96026,13.12665c-0.59823,6.65142 -6.47527,11.55849 -13.12664,10.96026c-6.65142,-0.59823 -11.55853,-6.47524 -10.96026,-13.12664z" fill="#1e1812"/></g><g><path d="M17.43913,479.9966c0.59823,-6.65142 6.47524,-11.55851 13.12664,-10.96026c6.65142,0.59823 11.55851,6.47524 10.96026,13.12664c-0.59823,6.65142 -6.47527,11.55849 -13.12664,10.96026c-6.65142,-0.59823 -11.55851,-6.47524 -10.96026,-13.12664z" fill="#893834"/><path d="M17.84217,475.51534c0.59823,-6.65142 6.47524,-11.55853 13.12665,-10.96026c6.65142,0.59823 11.55851,6.47524 10.96026,13.12665c-0.59823,6.65142 -6.47527,11.55849 -13.12664,10.96026c-6.65142,-0.59823 -11.55853,-6.47524 -10.96026,-13.12664z" fill="#1e1812"/></g><path d="M94.26378,338.53337c-0.85213,9.47442 -25.24282,15.02334 -54.47814,12.39393c-29.23532,-2.62944 -52.24441,-12.44152 -51.39229,-21.91596c0.85213,-9.47442 25.2428,-15.02336 54.47813,-12.39391c29.23532,2.62944 52.24443,12.44152 51.39229,21.91596z" fill="#6e2d2a"/><path d="M60.84248,332.89224c-0.48694,5.41394 -9.51314,9.02651 -20.16053,8.06885c-10.64743,-0.95762 -18.88411,-6.12281 -18.39717,-11.53677c0.48694,-5.41394 9.51314,-9.02651 20.16053,-8.06885c10.64743,0.95762 18.88413,6.12283 18.39717,11.53679z" fill="#4d201d"/><path d="M60.60739,335.50629c-0.48694,5.41394 -9.51314,9.02651 -20.16053,8.06885c-10.64743,-0.95762 -18.88411,-6.12281 -18.39717,-11.53677c0.48694,-5.41394 9.51314,-9.02651 20.16053,-8.06885c10.64743,0.95762 18.88411,6.12281 18.39717,11.53677z" fill="#0b0404"/></g></g><g><path d="M144.72329,303.29947c0.67768,30.97665 -22.28673,60.11607 -123.6983,60.79015c-103.56873,0.6884 -126.54482,-24.32401 -127.2225,-55.30067c-0.67768,-30.97665 50.96685,-50.33873 124.87604,-51.95567c73.90917,-1.61692 125.36708,15.48953 126.04476,46.46619z" fill="#893834"/><path d="M133.14011,297.76397c0.51533,23.55453 -45.56182,39.17486 -112.72189,40.64414c-67.16002,1.46928 -114.77038,-12.10144 -115.28569,-35.65597c-0.51533,-23.55453 46.47236,-38.44621 113.63241,-39.91548c67.16006,-1.46928 113.85987,11.37277 114.37519,34.92728z" fill="#6e2d2a"/></g><g><path d="M-73.64671,61.18064l-23.42469,-66.5225l119.86643,-23.01325l2.19121,70.59914z" fill="#1e1812"/><path d="M46.56838,39.52088c1.02892,5.35909 -29.60831,15.74568 -68.43009,23.19908c-38.82178,7.45344 -71.12718,9.15126 -72.15608,3.79217c-1.02892,-5.35909 29.60831,-15.74568 68.43011,-23.19908c38.82182,-7.4534 71.12714,-9.15122 72.15605,-3.79213z" fill="#2a2119"/><path d="M22.66346,-29.04007c1.02892,5.35909 -24.97006,14.85518 -58.07021,21.2101c-33.10021,6.35494 -60.76728,7.16224 -61.79616,1.80313c-1.02889,-5.35907 24.97006,-14.85518 58.07021,-21.2101c33.10021,-6.35494 60.76728,-7.16224 61.79616,-1.80313z" fill="#1e1812"/><path d="M15.99823,48.14206c0.42669,2.22246 -16.78386,7.39476 -38.44087,11.55271c-21.65701,4.15796 -39.55934,5.72697 -39.98603,3.50453c-0.42669,-2.22246 16.78386,-7.39476 38.44087,-11.55271c21.65701,-4.15796 39.55934,-5.72697 39.98603,-3.50453z" fill="#1e1812"/></g><path d="M-139.11335,297.66522c0,0 -21.93861,-114.26917 -30.46531,-158.68114c-4.65495,-24.24568 6.01548,-54.43928 39.24387,-61.82102c35.17909,-7.81512 149.29549,-28.66332 212.6488,-40.82661c36.8522,-7.07529 55.51525,12.48965 60.35315,37.68825c8.5751,44.6641 31.39317,163.51406 31.39317,163.51406c0,0 2.74583,22.11191 -60.35226,45.89941c-0.41478,-1.45563 -5.62253,-13.68633 -5.62253,-13.68633c0,0 -0.4236,13.45401 -0.11613,15.05551c0.04456,0.23202 0.11515,0.45245 0.20817,0.65886c-2.30218,0.82142 -4.68465,1.64413 -7.15026,2.46732c-0.4594,-1.38573 -4.10091,-5.83336 -4.10091,-5.83336c0,0 -1.90819,5.72132 -1.60072,7.32282c0.02232,0.11629 0.05118,0.22966 0.08612,0.33981c-5.24087,1.66606 -26.65169,9.15264 -26.65169,9.15264l-3.47535,-2.94557c0,0 -0.32143,2.13256 -0.70722,2.20664c-0.50224,0.09644 -0.95013,0.3148 -1.31894,0.61859c-11.49365,2.86465 -24.17808,5.68914 -38.17648,8.43688c-10.24257,2.01052 -29.49453,1.8218 -29.49453,1.8218c0,0 -0.46127,3.02941 -1.05052,3.14252c-0.51642,0.09915 -0.97537,0.32729 -1.34997,0.64457c-15.01147,2.30347 -28.32782,3.82471 -40.13943,4.7195c0.16912,-0.47785 0.21728,-1.0056 0.11482,-1.53937c-0.30747,-1.60148 -4.79333,-6.98606 -4.79333,-6.98606c0,0 -1.31369,6.49802 -1.0062,8.09952c0.05479,0.28536 0.14894,0.5532 0.27578,0.79893c-80.41949,4.98592 -86.75204,-20.26817 -86.75204,-20.26817z" fill="#a3433e"/><path d="M-142.47659,265.5309c-3.93564,-20.4991 9.49172,-40.30737 29.99077,-44.24297c20.4991,-3.93564 40.30733,9.49169 44.24297,29.99077c3.93564,20.4991 -9.49169,40.30733 -29.99077,44.24297c-20.4991,3.93564 -40.30733,-9.49167 -44.24297,-29.99077z" fill="#893834"/><path d="M-27.63988,173.56743c7.59849,39.57743 -13.70478,63.00215 -44.40004,68.89538c-30.69528,5.8932 -59.15878,-7.97677 -66.75731,-47.5542c-7.59849,-39.57743 14.34968,-59.64308 45.04498,-65.53632c30.69528,-5.8932 58.51386,4.61766 66.11237,44.19511z" fill="#6e2d2a"/><path d="M35.64213,158.6494c1.98147,10.32074 -13.28967,21.92767 -34.10906,25.92477c-20.81937,3.99714 -39.30314,-1.12916 -41.28463,-11.44991c-1.98147,-10.32074 13.28967,-21.92763 34.10906,-25.92477c20.81937,-3.99714 39.30314,1.12915 41.28464,11.44987z" fill="#893834"/><path d="M135.29382,250.688c-20.4991,3.93564 -40.30737,-9.49172 -44.24297,-29.99077c-3.93562,-20.49909 9.49169,-40.30733 29.99077,-44.24297c20.4991,-3.93564 40.30735,9.4917 44.24297,29.99077c3.93562,20.49909 -9.4917,40.30735 -29.99077,44.24297z" fill="#893834"/><path d="M-21.84035,172.45397c5.19242,27.04521 -3.11129,46.54766 -18.68556,58.06737c-2.27149,1.68013 -10.1165,5.63086 -10.1165,5.63086l-8.81848,7.44193c0,0 -4.04344,-2.77004 -6.77949,-2.24477c-30.69528,5.8932 -59.1588,-7.97679 -66.75729,-47.55422c-7.59849,-39.57743 14.34968,-59.64308 45.04498,-65.53632c14.45648,-2.77552 28.2749,-1.91241 39.64346,3.91208c1.46601,0.75107 6.45288,-4.11898 6.45288,-4.11898l1.50799,8.38136l9.49792,7.47816c0,0 2.59876,8.96426 3.37473,10.61821c2.41898,5.15599 4.32695,11.1092 5.63538,17.92429z" fill="#000000"/><path d="M69.6007,98.01011c30.69528,-5.8932 58.51388,4.61768 66.11237,44.19512c7.59849,39.57743 -13.70478,63.00215 -44.40004,68.89538c-30.69528,5.8932 -59.1588,-7.97679 -66.75729,-47.55422c-7.59849,-39.57743 14.34968,-59.64308 45.04498,-65.53632z" fill="#6e2d2a"/><path d="M63.46787,99.12356c30.69528,-5.8932 58.51386,4.61766 66.11237,44.19512c7.59849,39.57743 -13.70478,63.00215 -44.40002,68.89536c-30.69528,5.8932 -59.15878,-7.97677 -66.75731,-47.5542c-7.59849,-39.57743 14.34968,-59.64308 45.04498,-65.53632z" fill="#000000"/><path d="M36.85043,218.88431c1.67402,8.71924 -9.37454,18.16935 -24.67767,21.10743c-15.30314,2.93806 -29.06582,-1.74852 -30.73982,-10.46776c-1.67402,-8.71924 9.37454,-18.16935 24.67769,-21.10743c15.30314,-2.93806 29.06582,1.74852 30.73982,10.46778z" fill="#6e2d2a"/><g fill="#000000"><path d="M98.68394,151.05593c0.64254,3.3467 -9.59364,8.12501 -22.86314,10.67262c-13.26947,2.54762 -24.54744,1.89981 -25.18997,-1.44689c-0.64254,-3.3467 9.59362,-8.12503 22.86311,-10.67262c13.26947,-2.54762 24.54746,-1.89983 25.18999,1.4469z"/><path d="M91.77964,152.38148c3.45541,17.99772 -1.40942,34.0595 -10.86584,35.87505c-9.45642,1.81557 -19.92351,-11.30271 -23.3789,-29.30037c-3.45541,-17.99772 1.40942,-34.0595 10.86584,-35.87505c9.45642,-1.81557 19.92351,11.30271 23.3789,29.30037z"/></g><g fill="#000000"><path d="M-78.25972,178.74569c13.26947,-2.54762 24.54742,-1.89983 25.18995,1.44689c0.64254,3.3467 -9.59362,8.12501 -22.86311,10.67262c-13.26947,2.54762 -24.54742,1.89983 -25.18995,-1.44687c-0.64254,-3.3467 9.59362,-8.12503 22.86311,-10.67262z"/><path d="M-83.35285,152.21772c9.45642,-1.81557 19.92351,11.30271 23.3789,29.30037c3.45541,17.99772 -1.4094,34.05952 -10.86584,35.87505c-9.45642,1.81557 -19.92352,-11.30271 -23.37891,-29.30041c-3.45541,-17.99772 1.40942,-34.0595 10.86584,-35.87505z"/></g></g><path d="M-27.67746,140.14886c0.25455,-0.37653 0.63106,-0.12197 0.63106,-0.12197l0.30011,0.20288c2.99187,2.05206 0.22713,4.90995 2.77468,6.3089c-0.47559,-1.94404 -1.44821,-4.23507 -0.80584,-5.67161c-0.42518,-0.4258 -0.7871,-0.88423 -1.0417,-1.39144c-1.01218,-2.01625 1.41151,-2.81115 -0.09653,-4.90164c-1.92695,-2.67118 -0.0088,-2.80268 -0.13951,-4.90511c-0.10228,-1.64548 -3.82042,-3.795 -3.44621,-5.4145c0.36715,-1.58887 2.25415,-0.29449 2.13316,-2.26674c-0.06288,-1.02549 -1.26413,-1.99871 -1.39427,-3.15476c-0.63226,-0.86676 -0.47687,-1.98643 -0.31636,-3.05044c-0.10968,-0.08743 -0.21948,-0.15749 -0.33025,-0.20448c0,0 -0.40957,-0.19699 -0.21255,-0.60658c0.19699,-0.40957 0.60658,-0.21255 0.60658,-0.21255c0.02156,0.01123 0.04341,0.02385 0.06556,0.03778c0.0569,-0.6679 0.00485,-1.26696 -0.391,-1.70458l-0.06988,-0.09362c0,0 -0.27187,-0.36421 0.09232,-0.63608c0.36421,-0.27187 0.63608,0.09232 0.63608,0.09232l0.06988,0.09362c0.58149,0.87709 0.45351,1.87138 0.3151,2.8693c0.72725,0.83198 1.60996,2.07288 2.44758,1.96326c0.50537,-0.06616 0.8752,-1.99176 1.25191,-2.22484c2.13325,-1.31996 6.08685,0.36993 8.39166,-2.06203c1.56078,-0.69057 3.66915,-1.11357 5.08724,-2.01052c1.14033,-0.72127 1.65568,-2.46088 2.40294,-3.56496c-0.65815,-1.04919 -1.44341,-2.05277 -2.12596,-3.10113c-0.08199,-0.01307 -0.13925,-0.04061 -0.13925,-0.04061c-4.09571,-1.97 -8.19144,-3.94 -12.28714,-5.91002l-0.81915,-0.394c0,0 -0.40957,-0.19699 -0.21255,-0.60658c0.19699,-0.40957 0.60658,-0.21255 0.60658,-0.21255c3.7511,1.80426 8.18931,3.93898 12.05603,5.79883c-0.19805,-0.39409 -0.37053,-0.79882 -0.50695,-1.2183c-0.46252,-1.44261 -0.92504,-2.88526 -1.38757,-4.32786l-0.02329,-0.07265c0,0 -0.13876,-0.4328 0.29403,-0.57154c0.4328,-0.13876 0.57154,0.29403 0.57154,0.29403c0.46252,1.44261 0.94831,2.95787 1.41084,4.40051c0.60952,1.9327 2.08222,3.5432 3.20004,5.26432c0.05125,-0.03707 0.10388,-0.07085 0.15807,-0.1011c3.52585,-1.96802 3.6822,5.26947 5.35306,4.44577c1.33899,-0.49517 5.17939,-3.00047 6.39878,-1.72098c0.61728,0.64772 0.41636,3.04144 0.45445,3.89132c0.11362,2.53575 0.70611,6.11361 2.87405,7.83121c0.2918,0.23941 0.74514,0.61196 1.22041,1.04412c1.10849,-0.68411 2.25282,-1.30267 3.16103,-2.00205c0.91154,-0.70193 1.48548,-2.83778 1.97784,-3.85859l0.87481,-0.56956c0,0 0.40011,-0.21557 0.61567,0.18456c0.21557,0.40011 -0.18456,0.61567 -0.18456,0.61567l-0.48721,0.16423c-0.57491,1.19196 -1.17739,3.34057 -2.2362,4.17939c-0.82366,0.65252 -1.96324,1.24086 -3.07717,1.90139c0.67135,0.67779 1.25742,1.41027 1.34203,1.97856c0.28247,1.89763 -2.39449,3.83701 -2.00703,5.97441c0.54068,2.9826 3.61557,4.48875 2.22408,7.51483c-2.87143,6.24189 -5.73181,12.83798 -13.38733,9.68679c-0.59081,-0.91472 -2.0111,3.05911 -3.14825,4.39347c0.41756,0.50052 0.80046,0.99714 0.65026,1.88854c-0.4172,2.47561 -1.86583,2.981 0.4414,5.14201c0.98718,0.93324 2.68316,1.98184 3.45701,3.0279c0.96313,1.3019 -0.1947,3.27476 -0.15889,4.71923c0.03845,1.55044 1.53706,3.39262 2.13536,4.80962l0.29,0.79153c0,0 0.15607,0.42685 -0.27077,0.58292c-0.42685,0.15607 -0.58292,-0.27077 -0.58292,-0.27077l-0.27386,-0.75049c-0.66506,-1.5794 -2.12856,-3.39393 -2.20617,-5.13007c-0.04389,-0.98118 1.05077,-3.3938 0.3545,-4.18784c-0.8945,-1.02012 -2.34468,-1.9634 -3.36868,-2.93146c-3.01525,-2.87379 0.30627,-4.16988 -0.71605,-6.63847c-0.09144,-0.22081 -0.19587,-0.42453 -0.30678,-0.6173c-3.38324,1.62203 -5.50418,-3.94371 -7.89311,-3.84021c-1.12484,0.04874 -1.23051,0.90101 -2.63172,0.54949c-2.93064,-0.85613 -1.5348,-3.51582 -3.32908,-5.20257c-1.02016,-0.95902 -2.5037,-1.81078 -3.72225,-2.82147c-0.17863,0.42978 -0.30398,0.81544 -0.29009,1.08715c0.1384,2.71001 2.57058,3.91948 1.30776,6.83576l-0.02265,0.0523c0,0 -0.18063,0.41706 -0.59767,0.23644c-0.41706,-0.18063 -0.23644,-0.59767 -0.23644,-0.59767l0.02265,-0.0523c0.18623,-0.42989 0.19945,-0.96535 0.11771,-1.56194c-0.17947,0.06248 -0.36103,-0.02483 -0.36103,-0.02483c-3.52529,-1.74801 -0.09446,-4.48182 -3.11187,-6.48691l-0.30011,-0.20288c0,0 -0.37653,-0.25455 -0.12197,-0.63106z" fill="#000000" stroke-width="0.5"/></g><path d="M-15.5,30v-60h751v60z" fill="#000000" stroke-opacity="0.50196" stroke="#0d0d0d" stroke-width="0"/><path d="M-15.5,390v-60h751v60z" fill="#000000" stroke-opacity="0.50196" stroke="#0d0d0d" stroke-width="0"/><path d="M50.44294,148.43844c0,-1.38071 1.11929,-2.5 2.5,-2.5c1.38071,0 2.5,1.11929 2.5,2.5c0,1.38071 -1.11929,2.5 -2.5,2.5c-1.38071,0 -2.5,-1.11929 -2.5,-2.5z" fill="#ffffff" stroke="#ffffff" stroke-width="2.5"/><g data-paper-data="{&quot;index&quot;:null}" stroke-width="0"><path d="M67.41592,173.18613c-15.39569,3.08701 -30.37886,-6.89115 -33.46583,-22.28683c-3.08697,-15.39568 6.89121,-30.3788 22.28689,-33.46577c15.39565,-3.08698 30.37879,6.89114 33.46576,22.28682c3.08698,15.39565 -6.89114,30.37882 -22.28682,33.46579z" fill="#262626" stroke="#ff4a00"/><path d="M86.79388,140.30361c2.76488,13.78918 -6.17204,27.20883 -19.96125,29.97369c-13.78917,2.76487 -27.20885,-6.17208 -29.97372,-19.96126c-2.76482,-13.78912 6.1721,-27.2088 19.96131,-29.97366c13.78913,-2.76485 27.20881,6.17207 29.97369,19.96124z" fill="#000000" stroke="#ff4a00"/><path d="M77.34018,142.19919c1.71799,8.56801 -3.83502,16.90645 -12.40306,18.62444c-8.56804,1.71798 -16.90652,-3.83508 -18.6245,-12.40312c-1.71799,-8.568 3.8351,-16.90647 12.40314,-18.62445c8.568,-1.71795 16.90645,3.83506 18.62443,12.4031z" fill="#262626" stroke="#ff4a00"/><path d="M57.99065,146.07891c-3.5165,-17.53767 -4.6498,-32.09909 -2.53138,-32.52385c2.11842,-0.42476 6.68637,13.44798 10.20287,30.98565c3.51645,17.53769 4.6498,32.09909 2.53138,32.52385c-2.11843,0.42479 -6.68638,-13.44795 -10.20288,-30.98562z" fill="#000000" stroke="none"/><path d="M65.08247,147.4782c-9.91446,14.88752 -19.40952,25.98541 -21.20785,24.78783c-1.79835,-1.19763 4.78115,-14.23713 14.69562,-29.12468c9.91451,-14.88754 19.40953,-25.98541 21.20788,-24.78778c1.79837,1.1976 -4.78112,14.23714 -14.69561,29.12465z" fill="#000000" stroke="none"/><path d="M88.78267,163.26164c-1.19759,1.79833 -14.23717,-4.78113 -29.12468,-14.69562c-14.88752,-9.91446 -25.98545,-19.4095 -24.78782,-21.20785c1.1976,-1.79837 14.23714,4.78112 29.1247,14.69559c14.88756,9.91447 25.9854,19.40955 24.78778,21.20787z" data-paper-data="{&quot;index&quot;:null}" fill="#000000" stroke="none"/><path d="M62.59546,149.14554c-17.53771,3.51648 -32.0991,4.64983 -32.52386,2.53142c-0.42478,-2.11846 13.44799,-6.6864 30.98566,-10.2029c17.53771,-3.51648 32.09913,-4.64978 32.52389,-2.53136c0.42476,2.11842 -13.44802,6.68635 -30.98569,10.20285z" data-paper-data="{&quot;index&quot;:null}" fill="#000000" stroke="none"/><path d="M63.04153,151.36993c-3.3469,0.67108 -6.60414,-1.49807 -7.27522,-4.84498c-0.67108,-3.3469 1.49812,-6.60409 4.84503,-7.27517c3.34687,-0.67109 6.60403,1.49807 7.27513,4.84494c0.67112,3.34691 -1.49802,6.60413 -4.84493,7.27521z" fill="#262626" stroke="#ff4a00"/></g><g data-paper-data="{&quot;index&quot;:null}" stroke-width="0"><path d="M-70.4711,199.22108c-15.39569,3.08701 -30.37886,-6.89115 -33.46583,-22.28683c-3.08697,-15.39568 6.89121,-30.3788 22.28689,-33.46577c15.39569,-3.08701 30.3788,6.89113 33.46577,22.28681c3.08697,15.39568 -6.89115,30.37883 -22.28683,33.4658z" fill="#ffffff" stroke="#ff4a00"/><path d="M-51.09311,166.3385c2.76487,13.78921 -6.17205,27.20886 -19.96126,29.97372c-13.78917,2.76487 -27.20885,-6.17208 -29.97372,-19.96126c-2.76482,-13.78912 6.17211,-27.2088 19.96132,-29.97366c13.78911,-2.76482 27.20882,6.17207 29.97369,19.96124z" fill="#080603" stroke="#ff4a00"/><path d="M-72.94988,186.85855c-8.56804,1.71798 -16.90651,-3.83508 -18.62449,-12.40312c-1.71796,-8.56799 3.83513,-16.90642 12.40317,-18.6244c8.56799,-1.71795 16.90645,3.83505 18.62443,12.40309c1.71798,8.56804 -3.83506,16.90644 -12.4031,18.62443z" fill="#262626" stroke="#ff4a00"/><path d="M-82.4277,139.59003c2.11842,-0.42476 6.68637,13.44798 10.20287,30.98565c3.51645,17.53769 4.6498,32.09909 2.53138,32.52385c-2.11842,0.42476 -6.68637,-13.44798 -10.20287,-30.98565c-3.5165,-17.53767 -4.6498,-32.09909 -2.53138,-32.52385z" fill="#080603" stroke="none"/><path d="M-72.80452,173.5132c-9.91446,14.88752 -19.40952,25.98541 -21.20785,24.78783c-1.79832,-1.19762 4.78117,-14.23716 14.69564,-29.12472c9.91451,-14.88754 19.40952,-25.98542 21.20787,-24.78779c1.79833,1.19759 -4.78113,14.23718 -14.69562,29.12469z" fill="#080603" stroke="none"/><path d="M-78.22904,174.60093c-14.88751,-9.91449 -25.98544,-19.40954 -24.78781,-21.20789c1.19762,-1.79832 14.23716,4.78117 29.12472,14.69564c14.88756,9.91447 25.9854,19.40956 24.78778,21.20788c-1.19758,1.79833 -14.23717,-4.78114 -29.12468,-14.69563z" data-paper-data="{&quot;index&quot;:null}" fill="#080603" stroke="none"/><path d="M-75.29151,175.18051c-17.53771,3.51648 -32.0991,4.64983 -32.52386,2.53141c-0.42476,-2.11842 13.44799,-6.6864 30.98566,-10.2029c17.53771,-3.51648 32.09912,-4.64978 32.52388,-2.53136c0.42476,2.11842 -13.44801,6.68635 -30.98568,10.20286z" data-paper-data="{&quot;index&quot;:null}" fill="#080603" stroke="none"/><path d="M-70.00051,170.12969c0.67108,3.3469 -1.49805,6.60408 -4.84495,7.27516c-3.34691,0.67108 -6.60415,-1.49807 -7.27523,-4.84498c-0.67112,-3.34691 1.49811,-6.60406 4.84502,-7.27514c3.34687,-0.67109 6.60403,1.49807 7.27513,4.84494z" fill="#ffffff" stroke="#ff4a00"/></g><g stroke-width="0"><g stroke="#000000"><path d="M-7.50751,364.00104v-372.37237h735.015v372.37237z" fill="url(#color-1)"/><path d="M-7.5075,364.00104v-372.37237h735.015v372.37237z" fill="url(#color-2)"/></g><g stroke="none"><path d="M-5.24206,376.25329v-390.39039h155.90105v390.39039z" fill="url(#color-3)"/><path d="M571.60646,373.01003v-390.39039h155.90105v390.39039z" fill="url(#color-4)"/><path d="M-6.53233,110.48753v-127.62762h733.55954v127.62763z" fill="url(#color-5)"/><path d="M726.05204,249.75283v127.62762h-733.55954v-127.62762z" fill="url(#color-6)"/></g></g></g></g></svg>