<svg version="1.1" xmlns="http://www.w3.org/2000/svg" xmlns:xlink="http://www.w3.org/1999/xlink" width="758.25826" height="394.76081" viewBox="0,0,758.25826,394.76081"><defs><radialGradient cx="360" cy="187.75003" r="144" gradientUnits="userSpaceOnUse" id="color-1"><stop offset="0" stop-color="#000000"/><stop offset="1" stop-color="#000000" stop-opacity="0"/></radialGradient><radialGradient cx="360" cy="187.75003" r="94" gradientUnits="userSpaceOnUse" id="color-2"><stop offset="0" stop-color="#000000"/><stop offset="1" stop-color="#000000" stop-opacity="0"/></radialGradient><radialGradient cx="361.50151" cy="81.80384" r="52.55255" gradientUnits="userSpaceOnUse" id="color-3"><stop offset="0" stop-color="#ffffff" stop-opacity="0.48627"/><stop offset="1" stop-color="#ffffff" stop-opacity="0"/></radialGradient><radialGradient cx="361.98487" cy="76.84865" r="246.02951" gradientUnits="userSpaceOnUse" id="color-4"><stop offset="0" stop-color="#ffffff" stop-opacity="0.48627"/><stop offset="1" stop-color="#ffffff" stop-opacity="0"/></radialGradient><linearGradient x1="736.79205" y1="181.05807" x2="575.96096" y2="181.05807" gradientUnits="userSpaceOnUse" id="color-5"><stop offset="0" stop-color="#000000"/><stop offset="1" stop-color="#000000" stop-opacity="0"/></linearGradient><linearGradient x1="-19.12913" y1="177.81482" x2="141.70195" y2="177.81482" gradientUnits="userSpaceOnUse" id="color-6"><stop offset="0" stop-color="#000000"/><stop offset="1" stop-color="#000000" stop-opacity="0"/></linearGradient><linearGradient x1="359.74474" y1="-17.14013" x2="359.74474" y2="110.4875" gradientUnits="userSpaceOnUse" id="color-7"><stop offset="0" stop-color="#000000"/><stop offset="1" stop-color="#000000" stop-opacity="0"/></linearGradient><linearGradient x1="360.75075" y1="377.38044" x2="360.75075" y2="249.75281" gradientUnits="userSpaceOnUse" id="color-8"><stop offset="0" stop-color="#000000"/><stop offset="1" stop-color="#000000" stop-opacity="0"/></linearGradient></defs><g transform="translate(19.12913,17.38038)"><g stroke-miterlimit="10"><path d="M-13,153v-160.3741h746v160.3741z" fill="#323232" stroke="#000000" stroke-width="0" stroke-linecap="butt"/><path d="M-13.58709,360.00003v-160.3741h746v160.3741z" fill="#323232" stroke="#000000" stroke-width="0" stroke-linecap="butt"/><path d="M296,244.00003v-128h128v128z" fill="#212121" stroke="#000000" stroke-width="0" stroke-linecap="butt"/><path d="M424,244.50003l-0.5015,-128.5l296.5015,-116v360z" fill="#000000" stroke="none" stroke-width="0" stroke-linecap="butt"/><path d="M296,115.50003l-1,128.5l-295,116v-360z" fill="#505050" stroke="none" stroke-width="0" stroke-linecap="butt"/><path d="M360.48252,86.75814c-19.18711,0 -35.22385,-10.51224 -35.22385,-16.69516c0,-6.18292 15.55422,-11.19516 34.74133,-11.19516c19.18711,0 34.74133,5.01224 34.74133,11.19516c0,6.18292 -15.0717,16.69516 -34.25881,16.69516z" fill="#181818" stroke="#000000" stroke-width="0" stroke-linecap="butt"/><path d="M360.39647,89.77114c-15.76527,0 -28.94202,-8.63749 -28.94202,-13.71774c0,-5.08025 12.78027,-9.19861 28.54555,-9.19861c15.76527,0 28.54555,4.11836 28.54555,9.19861c0,5.08025 -12.3838,13.71774 -28.14908,13.71774z" fill="#ffffff" stroke="#000000" stroke-width="0" stroke-linecap="butt"/><g fill="none" stroke="#6b6b6b" stroke-width="7.5" stroke-linecap="round"><path d="M420.0976,195.83249l303.3033,111.11111"/><path d="M446.20645,209.31298v44"/><path d="M545.20645,292.31298v-50"/><path d="M656.20645,336.31298v-53"/></g><path d="M322,244.00003v-112.5h76v112.5z" fill="#000000" stroke="none" stroke-width="0" stroke-linecap="butt"/><g stroke-linecap="butt"><g><path d="M435.99443,123.23493l8.92919,-30.33115l10.11039,2.97639l-8.92919,30.33115z" fill="#0d0d0d" stroke="none" stroke-width="0"/><path d="M469.27825,91.29741c0,3.61163 -8.80385,9.75216 -20.01164,9.75216c-11.20779,0 -20.57535,-6.14052 -20.57535,-9.75216c0,-3.61163 9.08571,-6.53944 20.2935,-6.53944c11.20779,0 20.2935,2.9278 20.2935,6.53944z" fill="#181818" stroke="#000000" stroke-width="0"/><path d="M457.54989,150.76942l-27.06817,-32.18918l10.72973,-9.02272l27.06817,32.18918z" fill="#181818" stroke="none" stroke-width="0"/><path d="M450.85775,158.68267l-1.36297,-39.3315l18.88691,13.62973v25.70177z" fill="#0d0d0d" stroke="none" stroke-width="0"/><path d="M454.55725,136.09626c-1.61304,0 -2.92066,-1.30763 -2.92066,-2.92066c0,-1.61304 1.30763,-2.92066 2.92066,-2.92066c1.61304,0 2.92066,1.30763 2.92066,2.92066c0,1.61304 -1.30763,2.92066 -2.92066,2.92066z" fill="#000000" stroke="none" stroke-width="0.5"/><path d="M441.51165,123.0507c-1.61304,0 -2.92066,-1.30763 -2.92066,-2.92066c0,-1.61304 1.30763,-2.92066 2.92066,-2.92066c1.61304,0 2.92066,1.30763 2.92066,2.92066c0,1.61304 -1.30763,2.92066 -2.92066,2.92066z" fill="#000000" stroke="none" stroke-width="0.5"/><path d="M448.1318,100.26958c-1.61304,0 -2.92066,-1.30763 -2.92066,-2.92066c0,-1.61304 1.30763,-2.92066 2.92066,-2.92066c1.61304,0 2.92066,1.30763 2.92066,2.92066c0,1.61304 -1.30763,2.92066 -2.92066,2.92066z" fill="#000000" stroke="none" stroke-width="0.5"/></g><g stroke="#000000" stroke-width="0"><path d="M476.6885,151.52546c-3.80478,11.52354 -13.29838,19.07044 -17.01176,17.84437c-3.71339,-1.22607 -3.63929,-11.56166 0.1655,-23.0852c3.80479,-11.52354 9.89947,-19.87129 13.61285,-18.64522c3.71338,1.22607 7.0382,12.36251 3.23341,23.88605z" fill="#181818"/><path d="M478.48101,152.17461c-3.12624,9.46843 -10.92675,15.66941 -13.97788,14.662c-3.05113,-1.00741 -2.99025,-9.49975 0.13599,-18.96818c3.12624,-9.46842 8.134,-16.32743 11.18513,-15.32002c3.05113,1.00741 5.783,10.15777 2.65676,19.6262z" fill="#404040"/></g></g><g stroke-linecap="butt"><g><path d="M507.45809,101.00155l12.12395,-41.1833l13.72777,4.04132l-12.12395,41.1833z" fill="#0d0d0d" stroke="none" stroke-width="0"/><path d="M525.47892,70.87853c-15.21781,0 -27.93698,-8.33754 -27.93698,-13.24138c0,-4.90384 12.33647,-8.87918 27.55428,-8.87918c15.21781,0 27.55428,3.97534 27.55428,8.87918c0,4.90384 -11.95377,13.24138 -27.17158,13.24138z" fill="#181818" stroke="#000000" stroke-width="0"/><path d="M536.72587,138.38762l-36.75287,-43.7061l14.56871,-12.25096l36.75286,43.7061z" fill="#181818" stroke="none" stroke-width="0"/><path d="M527.63934,149.13214l-1.85063,-53.40388l25.64444,18.5063v34.89758z" fill="#0d0d0d" stroke="none" stroke-width="0"/><path d="M532.66249,118.46457c-2.19016,0 -3.96563,-1.77547 -3.96563,-3.96563c0,-2.19016 1.77547,-3.96563 3.96563,-3.96563c2.19016,0 3.96563,1.77547 3.96563,3.96563c0,2.19016 -1.77547,3.96563 -3.96563,3.96563z" fill="#000000" stroke="none" stroke-width="0.5"/><path d="M514.94931,100.7514c-2.19016,0 -3.96563,-1.77547 -3.96563,-3.96563c0,-2.19016 1.77547,-3.96564 3.96563,-3.96564c2.19016,0 3.96564,1.77548 3.96564,3.96564c0,2.19016 -1.77548,3.96563 -3.96564,3.96563z" fill="#000000" stroke="none" stroke-width="0.5"/><path d="M523.93809,69.81944c-2.19016,0 -3.96563,-1.77547 -3.96563,-3.96563c0,-2.19016 1.77547,-3.96563 3.96563,-3.96563c2.19016,0 3.96563,1.77547 3.96563,3.96563c0,2.19016 -1.77547,3.96563 -3.96563,3.96563z" fill="#000000" stroke="none" stroke-width="0.5"/></g><g stroke="#000000" stroke-width="0"><path d="M558.32176,106.98191c5.04199,1.66475 9.55639,16.78568 4.39029,32.43221c-5.1661,15.64654 -18.05639,25.89363 -23.09838,24.22889c-5.04199,-1.66475 -4.94138,-15.6983 0.22472,-31.34483c5.16611,-15.64653 13.44139,-26.981 18.48338,-25.31626z" fill="#181818"/><path d="M565.1459,140.29554c-4.24477,12.85612 -14.83621,21.27575 -18.97901,19.9079c-4.14279,-1.36785 -4.06012,-12.89865 0.18465,-25.75478c4.24477,-12.85612 11.04424,-22.16921 15.18704,-20.80136c4.1428,1.36785 7.85209,13.79211 3.60732,26.64824z" fill="#404040"/></g></g><g stroke-linecap="butt"><g><path d="M585.1561,80.52019l16.39183,-55.68069l18.56023,5.46394l-16.39183,55.6807z" fill="#0d0d0d" stroke="none" stroke-width="0"/><path d="M609.52064,39.79324c-20.5748,0 -37.77139,-11.27254 -37.77139,-17.90263c0,-6.63009 16.67917,-12.00483 37.25397,-12.00483c20.5748,0 37.25396,5.37474 37.25396,12.00483c0,6.63009 -16.16174,17.90263 -36.73654,17.90263z" fill="#181818" stroke="#000000" stroke-width="0"/><path d="M624.72675,131.06694l-49.69064,-59.09157l19.69719,-16.56355l49.69064,59.09157z" fill="#181818" stroke="none" stroke-width="0"/><path d="M612.44157,145.59376l-2.50208,-72.20317l34.67181,25.02089v47.18227z" fill="#0d0d0d" stroke="none" stroke-width="0"/><path d="M619.23297,104.13056c-2.96114,0 -5.36161,-2.40047 -5.36161,-5.36162c0,-2.96114 2.40046,-5.36162 5.36161,-5.36162c2.96114,0 5.36162,2.40047 5.36162,5.36162c0,2.96114 -2.40047,5.36162 -5.36162,5.36162z" fill="#000000" stroke="none" stroke-width="0.5"/><path d="M595.28439,80.18199c-2.96114,0 -5.36162,-2.40047 -5.36162,-5.36162c0,-2.96115 2.40047,-5.36163 5.36162,-5.36163c2.96115,0 5.36163,2.40048 5.36163,5.36163c0,2.96114 -2.40048,5.36162 -5.36163,5.36162z" fill="#000000" stroke="none" stroke-width="0.5"/><path d="M607.4374,38.36133c-2.96114,0 -5.36161,-2.40047 -5.36161,-5.36162c0,-2.96114 2.40046,-5.36161 5.36161,-5.36161c2.96114,0 5.36162,2.40046 5.36162,5.36161c0,2.96114 -2.40047,5.36162 -5.36162,5.36162z" fill="#000000" stroke="none" stroke-width="0.5"/></g><g stroke="#000000" stroke-width="0"><path d="M659.86061,132.45481c-6.98468,21.15444 -24.41262,35.00873 -31.2295,32.75796c-6.81688,-2.25077 -6.68085,-21.22443 0.30383,-42.37887c6.98468,-21.15444 18.17303,-36.47889 24.98991,-34.22812c6.81688,2.25077 12.92044,22.69459 5.93576,43.84903z" fill="#181818"/><path d="M663.15122,133.64649c-5.73903,17.38175 -20.05887,28.76526 -25.66002,26.9159c-5.60115,-1.84937 -5.48937,-17.43924 0.24965,-34.821c5.73902,-17.38174 14.93205,-29.97323 20.5332,-28.12387c5.60115,1.84937 10.61619,18.64721 4.87717,36.02897z" fill="#404040"/></g></g><g stroke="none" stroke-width="0" stroke-linecap="butt"><path d="M216,187.75003c0,-79.529 64.471,-144 144,-144c79.529,0 144,64.471 144,144c0,79.529 -64.471,144 -144,144c-79.529,0 -144,-64.471 -144,-144z" fill="url(#color-1)"/><path d="M266,187.75003c0,-51.91477 42.08523,-94 94,-94c51.91477,0 94,42.08523 94,94c0,51.91477 -42.08523,94 -94,94c-51.91477,0 -94,-42.08523 -94,-94z" fill="url(#color-2)"/></g><g stroke="none" stroke-width="0" stroke-linecap="butt"><path d="M361.50151,134.3564c-29.02397,0 -52.55255,-23.52858 -52.55255,-52.55256c0,-29.02397 23.52857,-52.55255 52.55255,-52.55255c29.02397,0 52.55255,23.52858 52.55255,52.55255c0,29.02398 -23.52857,52.55256 -52.55255,52.55256z" fill="url(#color-3)"/><path d="M115.472,315.7337c0,0 128.31194,-204.03074 216.83986,-244.07182c9.81871,-4.44099 21.61113,-4.40776 30.13972,-4.40776c7.78103,0 16.67378,1.03724 25.50226,4.74059c88.09553,36.9541 219.57717,241.80555 219.57717,241.80555z" fill="url(#color-4)"/></g><g stroke="none" stroke-linecap="butt"><g fill="none" stroke-width="1" font-family="sans-serif" font-weight="normal" font-size="12" text-anchor="start"/><g stroke-width="0"><path d="M575.96096,376.25326v-390.39039h160.83109v390.39039z" fill="url(#color-5)"/><path d="M-19.12913,373.01001v-390.39039h160.83108v390.39039z" fill="url(#color-6)"/><path d="M-18.63364,110.48751v-127.62763h756.75676v127.62762z" fill="url(#color-7)"/><path d="M739.12913,249.75281v127.62762h-756.75676v-127.62762z" fill="url(#color-8)"/></g></g></g></g></svg>