<svg version="1.1" xmlns="http://www.w3.org/2000/svg" xmlns:xlink="http://www.w3.org/1999/xlink" width="774.66666" height="394.76081" viewBox="0,0,774.66666,394.76081"><defs><radialGradient cx="360" cy="181.84746" r="190.00478" gradientUnits="userSpaceOnUse" id="color-1"><stop offset="0" stop-color="#323a43"/><stop offset="1" stop-color="#191c21"/></radialGradient><radialGradient cx="359.99999" cy="182.18518" r="362.61261" gradientUnits="userSpaceOnUse" id="color-2"><stop offset="0" stop-color="#000000" stop-opacity="0.83922"/><stop offset="1" stop-color="#000000" stop-opacity="0"/></radialGradient><radialGradient cx="359.99999" cy="182.18518" r="362.61262" gradientUnits="userSpaceOnUse" id="color-3"><stop offset="0" stop-color="#000000" stop-opacity="0"/><stop offset="1" stop-color="#000000"/></radialGradient><linearGradient x1="-24.94567" y1="181.05804" x2="139.36574" y2="181.05804" gradientUnits="userSpaceOnUse" id="color-4"><stop offset="0" stop-color="#000000"/><stop offset="1" stop-color="#000000" stop-opacity="0"/></linearGradient><linearGradient x1="747.33334" y1="177.81479" x2="583.02193" y2="177.81479" gradientUnits="userSpaceOnUse" id="color-5"><stop offset="0" stop-color="#000000"/><stop offset="1" stop-color="#000000" stop-opacity="0"/></linearGradient><linearGradient x1="360.26078" y1="-17.14016" x2="360.26078" y2="110.48747" gradientUnits="userSpaceOnUse" id="color-6"><stop offset="0" stop-color="#000000"/><stop offset="1" stop-color="#000000" stop-opacity="0"/></linearGradient><linearGradient x1="359.23301" y1="377.38041" x2="359.23301" y2="249.75278" gradientUnits="userSpaceOnUse" id="color-7"><stop offset="0" stop-color="#000000"/><stop offset="1" stop-color="#000000" stop-opacity="0"/></linearGradient></defs><g transform="translate(27.33333,17.38041)"><g stroke-miterlimit="10"><path d="M-9,370.0592v-377h738v377z" fill="#181111" stroke="#000000" stroke-width="0"/><path d="M423.46711,29.31492c0.01046,14.10817 0.46373,28.12146 1.36187,42.21224c0.88616,13.90259 29.11006,18.21023 23.45315,35.61426c-4.64589,14.2935 -9.44135,26.38141 -4.28474,40.62175c5.00383,13.84927 5.74552,27.90114 5.74552,42.14776c0,13.02092 -3.40442,29.36896 0.88127,41.969c4.76282,14.20333 12.93583,25.06662 25.10649,36.4768c5.57572,5.22733 13.19476,8.6341 19.24551,13.49669c1.20684,0.96982 5.21263,4.90556 3.78537,6.4954c-1.79233,1.99655 -18.8305,0.57842 -22.08897,0.60456c-16.46664,0.0263 -35.76335,10.64869 -48.77301,17.44684c-3.5079,1.83304 -17.10742,6.81491 -14.38378,11.43897c0.68241,1.15853 3.43059,0.68965 4.46521,1.68315c1.03725,0.99604 -0.14968,2.93604 1.16395,3.71742c1.79154,1.0657 9.72281,0.79859 14.98547,1.01646l0.06779,-0.49703l2.59846,0.20808c0.66864,0.04699 1.19228,0.47791 1.19228,1.00252c0,0.27803 -0.14709,0.52974 -0.38485,0.71193l-1.85814,1.42376l-0.00011,0.00008c-1.23905,0.949 -2.47811,1.89795 -3.71716,2.84695c-13.28258,10.17304 -25.61904,19.30473 -37.4172,30.669c-2.85433,2.74921 -5.63582,5.38878 -8.42485,7.93532c-1.83398,-0.00567 -5.6008,-0.00682 -6.14336,0.19268c-0.88488,0.32538 -1.10787,1.69504 -2,2c-1.05762,0.36154 -2.23807,-0.29678 -3.34875,-0.17157c-1.36572,0.15396 -2.63668,0.82614 -4,1c-4.93728,0.62964 -10.4022,-0.02528 -15.38908,0c-5.42225,-1.35557 -10.738,-1.01873 -16.30546,-1.01873c-0.3823,0 -8.10546,-0.0058 -8.30546,0.01873c-3.6232,0.44441 -6.785,1.4524 -10.5375,0.9748c-1.65591,-0.21076 -3.25108,-0.80218 -4.9107,-0.98136c-1.21705,-0.1314 -2.48485,0.35344 -3.67196,0.05471c-2.8488,-0.71688 -5.35593,-2.66863 -8.26892,-3.04815c-0.38263,-0.04985 -0.76605,-0.08862 -1.15007,-0.11809c3.50144,-6.19163 7.44167,-14.02483 5.201,-16.95431c-0.62207,-0.81333 -6.10414,-1.11669 -7.1757,-1.97073c-3.63885,-2.90012 -1.6546,-5.26772 -6.73116,-7.70391c-14.6021,-7.00733 -35.0699,-12.85802 -47.64427,-21.50919c-4.78941,-3.32337 -15.88177,-5.36623 -19.1641,-9.59671c-3.67102,-4.73147 8.33593,-17.43187 9.45863,-22.94709c2.61748,-12.85806 2.23147,-29.10614 -5.7606,-40.71522c-2.71454,-3.94307 -11.98067,-12.69702 -8.71615,-17.36521c3.81134,-5.45011 20.97678,-8.12841 27.52263,-12.13418c14.39698,-8.81033 28.95193,-17.39965 43.69666,-25.86537c15.4294,-8.85886 26.39112,-17.89072 36.77327,-30.41207c8.88622,-10.71714 17.64726,-26.16289 17.65404,-38.583c0.00867,-15.81089 0.36309,-26.64978 12.92947,-39.83956c-4.20239,-7.02682 -6.11811,-15.27186 -11.01243,-22.00458c-4.93882,-6.79397 -10.31888,-8.14859 -8.88212,-16.61306c15.45794,-8.38486 29.61368,-16.26785 43.67359,-26.07719c9.34088,-6.51696 19.78995,-16.03695 24.80525,-25.34883c4.84708,2.5198 9.65245,5.11742 14.62917,7.41419c0.46458,0.2144 0.92329,0.44483 1.37874,0.68418c0.80244,9.87577 -1.32473,21.32623 -1.32419,29.39693z" fill="#261c1c" stroke="none" stroke-width="0.5"/><g fill="#1b1313" stroke="none" stroke-width="0.5"><path d="M377.43515,208.05869c1.14031,1.98541 2.28062,3.97083 3.42094,5.95624c-3.1399,0.84244 -6.27981,1.68487 -9.41971,2.52731c-3.38045,0.90697 -6.76088,1.81395 -10.14133,2.72092c-3.38045,0.90697 -6.76089,1.81396 -10.14133,2.72093c-3.38045,0.90697 -6.76088,1.81395 -10.14133,2.72092c-3.38045,0.90697 -6.76088,1.81395 -10.14133,2.72093c-0.43696,0.11723 -0.8739,0.23447 -1.31086,0.3517c-0.20788,-0.13601 -0.41575,-0.27201 -0.62362,-0.40802c-1.955,-1.27911 -3.91,-2.55823 -5.865,-3.83734c1.64981,-1.11988 3.29962,-2.23974 4.94944,-3.35962c12.94381,-8.7861 25.88763,-17.5722 38.83144,-26.3583c2.52403,3.017 5.0542,6.02796 7.58997,9.03364c0.99758,1.7369 1.99516,3.47379 2.99274,5.21068z"/><path d="M338.77763,171.74048c3.27988,0.0403 6.55976,0.08062 9.83964,0.12092c2.52465,3.03591 5.05166,6.06952 7.56401,9.11333c1.41054,1.70892 2.82327,3.4156 4.2381,5.12016c-12.67154,8.60128 -25.34307,17.20257 -38.01461,25.80386c-0.71351,0.48433 -1.42703,0.96865 -2.14054,1.45297c5.39213,-13.87999 10.78428,-27.75997 16.17642,-41.63996c0.779,0.00958 1.55798,0.01914 2.33698,0.02872z"/><path d="M317.22627,171.47564c0.18432,0.00226 0.36863,0.00453 0.55295,0.0068c3.49973,0.043 6.99948,0.08602 10.49921,0.12902c0.94122,0.01156 1.88244,0.02314 2.82366,0.0347c-5.89977,15.18669 -11.79953,30.37337 -17.6993,45.56006c-0.6797,-0.44472 -1.3594,-0.88942 -2.03911,-1.33414c-1.06893,-0.69938 -2.13786,-1.39875 -3.20679,-2.09813c0.05216,-4.41573 0.08661,-8.83306 0.79627,-13.17917c0.50738,-3.10733 1.72274,-6.05673 2.57648,-9.08725c1.80771,-6.4169 3.59506,-12.83952 5.39259,-19.25928c0.06324,-0.22586 0.12928,-0.45118 0.19752,-0.6761c0.03553,-0.03215 0.07104,-0.06432 0.10653,-0.09652z"/><path d="M295.58558,212.62695c1.09998,-4.05617 2.19995,-8.11234 3.29994,-12.16851c-0.3238,2.99972 -0.20977,6.04691 -0.36744,9.06431c-0.02373,0.45418 -0.04746,0.90837 -0.07116,1.36255c-0.95378,0.58055 -1.90756,1.1611 -2.86133,1.74164z"/><path d="M274.64721,199.43364c4.48771,-2.63994 8.99213,-5.26437 13.51417,-7.87615c-0.03541,0.06006 -0.07081,0.12011 -0.10622,0.18017c-2.58992,4.39278 -5.10717,8.79924 -7.69098,13.15297c-1.90566,-1.819 -3.81131,-3.638 -5.71697,-5.457z"/><path d="M290.00691,214.09489c-0.27876,-0.26609 -0.55753,-0.53217 -0.83629,-0.79826c-0.46648,-0.44527 -0.93295,-0.89053 -1.39943,-1.3358c1.76101,-2.92619 3.48545,-5.8792 5.21222,-8.84178c-0.99216,3.65861 -1.98433,7.31723 -2.97649,10.97584z"/><path d="M347.29508,287.25855c-3.21445,1.38468 -6.4289,2.76934 -9.64335,4.15402c-3.21445,1.38468 -6.42889,2.76934 -9.64334,4.15402c-3.21445,1.38468 -6.4289,2.76934 -9.64335,4.15402c-3.21445,1.38468 -6.4289,2.76934 -9.64335,4.15402c-0.19666,0.08472 -0.39333,0.16944 -0.59,0.25415c-1.43761,-0.58569 -2.87523,-1.17139 -4.31285,-1.75709c0.48095,-9.47685 0.96191,-18.95371 1.44286,-28.43056c5.54401,-0.87939 11.088,-1.75878 16.632,-2.63818c8.11034,3.70956 16.22069,7.41911 24.33103,11.12867c0.48133,1.55359 0.96323,3.1131 1.42224,4.67534c-0.1173,0.05053 -0.2346,0.10106 -0.3519,0.15159z"/><path d="M289.43501,312.18268c-3.02843,1.30455 -6.05686,2.60908 -9.08529,3.91362c1.39616,-3.59388 2.79231,-7.18775 4.18847,-10.78162c0.83954,0.34204 1.67908,0.68407 2.51862,1.0261c1.40467,1.6837 2.80934,3.36739 4.21401,5.05109c-0.61194,0.2636 -1.22388,0.52721 -1.83582,0.79081z"/><path d="M293.99141,298.36793c-0.28431,-0.11583 -0.56863,-0.23167 -0.85294,-0.3475c-1.31149,-1.57201 -2.62298,-3.14402 -3.93448,-4.71603c1.93072,-4.96988 3.86143,-9.93977 5.79215,-14.90965c-0.33545,6.6577 -0.67016,13.31544 -1.00473,19.97318z"/><path d="M361.34393,266.06701c0.32969,3.48444 0.65938,6.96888 0.98908,10.45332c0.12911,1.36452 0.25821,2.72904 0.38732,4.09357c-1.45036,0.62477 -2.90071,1.24952 -4.35107,1.87429c-2.67957,-1.2256 -5.35915,-2.4512 -8.03872,-3.6768c-0.54126,-1.77281 -1.06712,-3.53666 -1.54473,-5.28765c-0.5645,-2.06953 -1.06732,-4.15745 -1.62754,-6.22826c4.6968,-0.74501 9.39361,-1.49002 14.09042,-2.23503c0.03175,0.33553 0.06349,0.67104 0.09524,1.00657z"/><path d="M323.25096,252.62717c0.04444,-0.03069 0.10968,-0.0712 0.19005,-0.11947c1.39688,0.18614 2.79375,0.37228 4.19062,0.55841c3.46934,0.4623 6.93867,0.92459 10.40801,1.38689c3.46934,0.4623 6.93867,0.92459 10.40801,1.38689c1.286,0.17136 2.57199,0.34273 3.85798,0.51408c-2.80331,0.44466 -5.60663,0.88933 -8.40995,1.33399c-0.95982,-0.63139 -9.96254,-0.19451 -11.54713,-0.14142c-5.68299,0.1904 -11.36597,0.38081 -17.04896,0.57121c2.65046,-1.8302 5.30091,-3.66039 7.95137,-5.49059z"/><path d="M270.14832,320.49072c-1.43946,0.62007 -2.87893,1.24014 -4.31839,1.86021c2.00722,-7.40163 4.01444,-14.80324 6.02166,-22.20487c2.68518,1.09396 5.37035,2.18792 8.05552,3.28188c-1.99983,5.1478 -3.99966,10.29559 -5.99949,15.4434c-1.2531,0.5398 -2.5062,1.07959 -3.7593,1.61938z"/><path d="M282.05915,284.54532c2.19,-2.6548 4.39192,-5.3003 6.56895,-7.96575c0.60713,-0.0963 1.21425,-0.1926 1.82138,-0.2889c-1.63511,4.20897 -3.27022,8.41794 -4.90533,12.62691c-1.18863,-1.42473 -2.37725,-2.84947 -3.56588,-4.27421c0.02696,-0.03269 0.05392,-0.06536 0.08088,-0.09804z"/><path d="M343.96204,274.83949c0.11014,0.40382 0.22304,0.80841 0.33823,1.21373c-4.49367,-2.05534 -8.98735,-4.11069 -13.48103,-6.16604c3.73666,-0.59271 7.47333,-1.18543 11.20999,-1.77814c0.60384,2.25313 1.31889,4.47972 1.93281,6.73045z"/><path d="M256.34574,326.43639c-0.85885,-0.41264 -1.70411,-0.83079 -2.53351,-1.2551c0.44517,-2.67102 0.89033,-5.34203 1.3355,-8.01304c0.0616,-0.07468 0.12322,-0.14936 0.18482,-0.22404c2.22721,-2.69991 4.45444,-5.39981 6.68165,-8.09972c1.14109,-1.38327 2.28218,-2.76654 3.42327,-4.14981c-1.82446,6.72768 -3.64891,13.45536 -5.47337,20.18304c-1.20612,0.51956 -2.41225,1.03911 -3.61837,1.55867z"/><path d="M226.64115,307.88906c-3.54801,-4.57292 7.54889,-16.5897 9.31011,-22.36906c0.13246,0.05397 0.26493,0.10793 0.39739,0.1619c-0.78872,8.89499 -1.57743,17.78999 -2.36615,26.68498c-3.13608,-1.27474 -5.94522,-2.67839 -7.34135,-4.47782z"/><path d="M266.9669,299.05493c-1.77947,2.15713 -3.55893,4.31426 -5.3384,6.47138c-1.89668,2.29922 -3.79337,4.59846 -5.69006,6.89768c0.63919,-3.83513 1.27838,-7.67028 1.91757,-11.50542c0.33633,-2.01797 0.68216,-4.0359 1.0317,-6.05409c2.76623,1.12698 5.53247,2.25397 8.2987,3.38095c-0.07317,0.26983 -0.14635,0.53966 -0.21952,0.80949z"/><path d="M247.99207,299.27459c-0.98446,5.90676 -1.96892,11.81352 -2.95338,17.72028c-0.42199,-0.25099 -0.87832,-0.49519 -1.3622,-0.73426c0.78713,-8.87708 1.57426,-17.75416 2.36139,-26.63124c1.1019,0.44892 2.20379,0.89784 3.30569,1.34676c-0.44443,2.76835 -0.89101,5.53554 -1.35149,8.29847z"/><path d="M260.6379,284.77946c0.22044,-1.28751 0.43847,-2.57534 0.65259,-3.86357c1.34086,-0.21269 2.68171,-0.42538 4.02258,-0.63807c1.69702,2.03411 3.39403,4.06824 5.09105,6.10235c-0.19358,0.71384 -0.38716,1.42768 -0.58075,2.14152c-3.06182,-1.24741 -6.12365,-2.49482 -9.18547,-3.74223z"/><path d="M276.35799,264.42527c-0.37552,1.38475 -0.75106,2.76952 -1.12658,4.15427c-1.66142,0.26353 -3.32285,0.52707 -4.98427,0.7906c-0.2976,0.04721 -0.59521,0.09442 -0.89281,0.14162c-1.31257,-1.57331 -2.62515,-3.14661 -3.93772,-4.71992c3.64713,-0.12219 7.29425,-0.24439 10.94138,-0.36658z"/><path d="M252.92404,269.68277c-0.15505,0.83533 -0.30751,1.67129 -0.45772,2.50779c-1.6506,0.26182 -3.3012,0.52363 -4.9518,0.78545c0.21021,-2.37065 0.42041,-4.74129 0.63062,-7.11194c0.01444,-0.16513 0.03173,-0.33021 0.0508,-0.49526c1.51722,-0.05084 3.03443,-0.10166 4.55165,-0.1525c0.20562,0.24647 0.41124,0.49293 0.61686,0.7394c-0.10627,1.26012 -0.21592,2.51763 -0.44042,3.72706z"/><path d="M237.34976,265.73221c0.25671,-0.0086 0.51343,-0.0172 0.77014,-0.0258c-0.19735,2.22564 -0.39469,4.45128 -0.59204,6.67693c0.0531,-2.2047 -0.0005,-4.43179 -0.17809,-6.65112z"/><path d="M277.72712,259.37659c-2.62426,0.08792 -5.24851,0.17585 -7.87276,0.26377c0.08434,-0.04997 0.16745,-0.10125 0.24918,-0.15401c2.80054,-1.80779 5.51595,-3.74416 8.27392,-5.61624c0.34438,-0.23376 0.68874,-0.46751 1.03312,-0.70127c-0.56115,2.06925 -1.12231,4.1385 -1.68346,6.20775z"/><path d="M234.97707,253.67206c1.55786,-0.41798 3.11572,-0.83595 4.67358,-1.25392c-0.14924,0.18478 -0.28462,0.38215 -0.4039,0.59403c-0.17462,0.31018 -0.32376,0.62826 -0.45081,0.95318c-1.14035,0.32067 -2.28069,0.64133 -3.42104,0.96201c-0.12651,-0.4208 -0.25906,-0.83931 -0.39782,-1.2553z"/><path d="M265.46348,245.49254c0.43951,0.20102 0.87903,0.40206 1.31853,0.60308c-1.53945,0.4329 -3.07889,0.86579 -4.61834,1.29868c0.14283,-0.1866 0.28701,-0.37187 0.43288,-0.5555c0.19401,-0.24423 0.38784,-0.48859 0.5815,-0.73308c0.7618,-0.2044 1.52362,-0.40878 2.28542,-0.61318z"/><path d="M281.58609,264.25011c4.57317,-0.15322 9.14634,-0.30644 13.71952,-0.45966c-0.22147,0.5701 -0.44295,1.1402 -0.66442,1.7103c-4.66544,0.74003 -9.33088,1.48007 -13.99632,2.22011c0.31374,-1.15692 0.62748,-2.31383 0.94122,-3.47075z"/><path d="M281.67346,281.22714c-0.42182,0.51134 -0.84363,1.02268 -1.26545,1.53402c-0.96647,-1.15844 -1.93293,-2.3169 -2.8994,-3.47534c0.08902,-0.32828 0.17805,-0.65656 0.26707,-0.98484c2.41827,-0.38359 4.83656,-0.76718 7.25484,-1.15077c-1.11919,1.35886 -2.23686,2.71898 -3.35706,4.07692z"/><path d="M317.22363,248.67923c1.82183,0.24276 3.64366,0.48552 5.46549,0.72828c-2.7875,1.92482 -5.575,3.84966 -8.3625,5.77448c-1.50598,1.03991 -3.01196,2.07982 -4.51794,3.11973c-1.25322,0.04199 -2.50644,0.08398 -3.75966,0.12597c0.14294,-2.8165 0.28587,-5.633 0.42881,-8.4495c0.02215,-0.43659 0.04432,-0.87318 0.06647,-1.30977c0.17388,-0.44758 0.34775,-0.89515 0.52163,-1.34273c3.3859,0.45118 6.7718,0.90236 10.1577,1.35353z"/><path d="M294.11476,253.09905c-1.94137,-0.88796 -3.88273,-1.7759 -5.82409,-2.66386c2.74608,-0.7722 5.49215,-1.54441 8.23823,-2.31661c-0.10096,1.9821 -0.20177,3.9642 -0.30246,5.94631c-0.70389,-0.32195 -1.40778,-0.6439 -2.11167,-0.96585z"/><path d="M292.03505,257.64601c0.84962,0.3886 1.69924,0.77721 2.54886,1.16582c-3.87623,0.12987 -7.75246,0.25974 -11.62869,0.38961c0.45907,-1.69283 0.91814,-3.38567 1.37721,-5.0785c2.56754,1.17435 5.13508,2.34871 7.70261,3.52307z"/><path d="M274.70375,243.01336c0.29595,0.03943 0.59191,0.07888 0.88786,0.11831c0.22301,0.02972 0.44602,0.05943 0.66903,0.08915c-0.17554,0.11916 -0.35109,0.23832 -0.52663,0.35747c-0.50261,0.14133 -1.0052,0.28267 -1.50781,0.424c-0.3954,-0.18085 -0.7908,-0.3617 -1.18619,-0.54255c0.55458,-0.1488 1.10917,-0.29759 1.66375,-0.44638z"/><path d=""/><path d="M432.1576,302.33264c-0.66472,-1.15736 -1.32945,-2.31472 -1.99417,-3.47208c-1.74316,-3.03503 -3.48631,-6.07006 -5.22947,-9.10509c-1.74316,-3.03503 -3.48632,-6.07006 -5.22947,-9.10509c-0.28084,-0.48899 -0.56169,-0.97796 -0.84253,-1.46695c0.81872,-1.75497 1.63744,-3.50993 2.45616,-5.2649c1.47971,-3.17183 2.95941,-6.34364 4.43912,-9.51547c0.18469,-0.39589 0.36938,-0.79178 0.55407,-1.18767c0.00502,0.00067 0.01003,0.00133 0.01505,0.002c7.44332,8.81829 14.71187,18.09637 22.83635,26.16429c1.19883,1.19048 2.89877,1.89743 4.18261,2.97536c-7.58032,2.94948 -14.90499,6.68924 -21.18772,9.97559z"/><path d="M465.65669,288.48168c-1.05463,0.24085 -2.11244,0.50958 -3.17137,0.80288c-1.69009,-2.26942 -4.04827,-4.25607 -5.78038,-6.46906c-4.7167,-6.02621 -9.83406,-11.81061 -14.99263,-17.5479c0.13579,0.0181 0.27158,0.03618 0.40737,0.05428c2.80851,0.37424 6.10856,0.81398 8.91707,1.18822c0.01211,0.0018 0.0245,0.00273 0.0371,0.00273c0.13807,0 0.25,-0.11193 0.25,-0.25c0,-0.12266 -0.08833,-0.22468 -0.20485,-0.24593l-0.48543,-0.09853l-0.00664,0.0327c-0.00357,-0.00047 -0.02283,-0.00304 -0.0264,-0.00351c-2.56889,-1.12369 -6.12978,-1.28006 -8.78711,-1.81942l-0.26369,-0.05352c0,0 -0.245,-0.04973 -0.29474,0.19527c-0.04973,0.245 0.19527,0.29474 0.19527,0.29474c0.69448,0.14096 1.65264,0.33544 2.34712,0.4764c-0.53722,-0.07159 -1.07445,-0.14317 -1.61167,-0.21476c-0.32966,-0.04393 -0.65933,-0.08785 -0.98899,-0.13178c-3.23532,-3.59481 -6.48213,-7.17365 -9.65188,-10.78447c8.58268,-1.36139 17.16536,-2.72278 25.74804,-4.08417c2.78794,12.88528 5.57587,25.77055 8.3638,38.65583z"/><path d="M450.62418,230.04399c1.1859,3.53649 2.58321,6.86591 4.20101,10.04826c-6.38105,1.01217 -12.76209,2.02433 -19.14314,3.0365c1.13085,-2.42404 2.2617,-4.84807 3.39255,-7.27211c1.47971,-3.17183 2.95942,-6.34364 4.43913,-9.51547c1.47971,-3.17183 2.95941,-6.34364 4.43912,-9.51547c0.17374,-0.37242 0.34749,-0.74485 0.52123,-1.11728c0.08983,5.03607 0.64698,9.91634 2.1501,14.33556z"/><path d="M494.97618,280.01748c0.1562,0.12552 0.35927,0.30072 0.59139,0.51408c-1.0919,0.94584 -2.18382,1.89168 -3.27573,2.83751c-1.60338,1.38889 -3.20676,2.77778 -4.81014,4.16667c-3.12422,-0.08052 -6.24412,-0.24797 -8.41933,-0.34492c0.30127,-3.28044 0.60253,-6.56087 0.90379,-9.8413c0.2125,-2.31391 0.42499,-4.6278 0.63743,-6.94167c4.6884,3.27848 9.9495,6.05509 14.37259,9.60963z"/><path d="M463.08189,252.93778c2.46324,3.14143 5.20309,6.20958 8.23122,9.28188c-0.43477,4.73838 -0.86987,9.47681 -1.30504,14.21535c-0.18297,1.99239 -0.36595,3.98476 -0.54892,5.97715c-2.12575,-9.82479 -4.25151,-19.64958 -6.37725,-29.47437z"/><path d="M408.81197,262.68922c1.74316,3.03503 3.48632,6.07006 5.22947,9.10509c1.41921,2.471 2.83842,4.942 4.25763,7.41301c-0.6244,1.33843 -1.2488,2.67687 -1.8732,4.0153c-1.47971,3.17183 -2.95941,6.34364 -4.43912,9.51547c-1.47971,3.17183 -2.95941,6.34364 -4.43912,9.51547c-0.34963,0.74946 -0.69928,1.49892 -1.04891,2.24838c-5.63265,-2.5763 -11.26529,-5.15259 -16.89793,-7.72888c-0.24149,-0.11046 -0.48299,-0.22091 -0.72448,-0.33137c2.41886,-6.62766 4.83772,-13.25533 7.25657,-19.88299c1.75281,-4.80268 3.58085,-9.59689 5.40895,-14.39647c0.57475,-0.4272 1.10922,-0.87576 1.57716,-1.35233l0.02014,0.03031l0.41321,-0.27455c0.06912,-0.04447 0.1149,-0.12208 0.1149,-0.21038c0,-0.06353 -0.02369,-0.12152 -0.06273,-0.16562c1.36148,0.18142 2.72296,0.36284 4.08444,0.54426c0.37434,0.65177 0.74868,1.30353 1.12302,1.9553z"/><path d="M403.1085,311.76903c-1.47971,3.17183 -2.95941,6.34364 -4.43912,9.51547c-1.05721,2.26619 -2.11443,4.53239 -3.17165,6.79858c-5.85595,-0.49018 -11.78565,-0.84092 -17.70274,-1.27858c3.12057,-8.55038 6.24116,-17.10075 9.36173,-25.65113c0.12145,0.05555 0.2429,0.1111 0.36435,0.16665c5.62124,2.57108 11.24248,5.14216 16.86372,7.71323c-0.42543,0.91192 -0.85086,1.82385 -1.27629,2.73578z"/><path d="M377.9237,338.06084c-1.48221,0.19159 -2.96441,0.38317 -4.44662,0.57477c0.12365,-0.3388 0.2473,-0.67761 0.37095,-1.01641c0.12493,-0.34233 0.24987,-0.68465 0.3748,-1.02697c3.25013,0.25493 6.50853,0.46994 9.75751,0.68574c-2.01888,0.26096 -4.03776,0.52191 -6.05664,0.78287z"/><path d="M367.77613,325.73979c-0.32969,-3.48444 -0.65938,-6.96887 -0.98907,-10.45331c-0.32969,-3.48444 -0.65938,-6.96888 -0.98907,-10.45331c-0.32969,-3.48444 -0.65938,-6.96888 -0.98907,-10.45331c-0.11367,-1.20135 -0.22733,-2.40269 -0.341,-3.60404c6.04254,2.76378 12.08508,5.52755 18.12761,8.29133c-3.3244,9.10886 -6.6488,18.2177 -9.9732,27.32656c-1.61253,-0.13869 -3.22225,-0.28879 -4.82738,-0.45493c-0.00628,-0.06633 -0.01255,-0.13265 -0.01882,-0.19898z"/><path d="M368.7652,336.1931c-0.00237,-0.02511 -0.00476,-0.05023 -0.00713,-0.07533c0.10154,0.00981 0.20309,0.01956 0.30466,0.02925c-0.07991,0.21896 -0.15983,0.43792 -0.23974,0.65688c-0.01927,-0.2036 -0.03852,-0.4072 -0.05779,-0.61079z"/><path d="M368.98976,283.52986c2.91519,-1.93692 5.83038,-3.87385 8.74557,-5.81077c2.91519,-1.93692 5.83038,-3.87385 8.74557,-5.81077c2.67971,-1.78047 5.35944,-3.56093 8.03915,-5.3414c-1.04356,2.75815 -2.07644,5.51644 -3.08414,8.27755c-2.3736,6.50366 -4.74719,13.00733 -7.12079,19.51099c-6.24233,-2.85516 -12.48467,-5.71032 -18.72699,-8.56547c1.13388,-0.75338 2.26776,-1.50675 3.40164,-2.26013z"/><path d="M427.46007,216.9035c1.64638,3.0886 3.29275,6.17719 4.93914,9.26579c1.3517,2.5358 2.58482,6.10673 4.50257,8.36531l-0.03383,0.01803l0.23276,0.43666c0.04127,0.08128 0.12565,0.13697 0.22305,0.13697c0.13807,0 0.25,-0.11193 0.25,-0.25c0,-0.03464 -0.00704,-0.06763 -0.01978,-0.09762c-0.61566,-1.54879 -1.41392,-3.55693 -2.02958,-5.10572c-1.29289,-3.25245 -2.58576,-6.50491 -3.87865,-9.75736c-1.16703,-2.93586 -2.33407,-5.87171 -3.5011,-8.80757c6.52657,-1.83528 13.05315,-3.67058 19.57972,-5.50586c0.32022,1.47998 0.64043,2.95996 0.96065,4.43994c-0.1406,2.51144 -0.23401,5.02707 -0.22356,7.51075c-0.32058,0.68717 -0.64115,1.37434 -0.96173,2.06151c-1.47971,3.17183 -2.95941,6.34364 -4.43912,9.51547c-1.47971,3.17183 -2.95941,6.34365 -4.43912,9.51548c-0.67462,1.44609 -1.34924,2.89217 -2.02387,4.33826c-4.26542,0.67658 -8.53086,1.35317 -12.79628,2.02975c-3.82496,-4.40275 -7.64418,-8.80817 -11.45585,-13.21873c1.81229,-5.84434 3.48638,-11.74629 5.08922,-17.67492c2.476,-0.69626 4.95201,-1.39252 7.42801,-2.08877c0.86579,1.62421 1.73157,3.24842 2.59736,4.87264z"/><path d="M421.36971,265.05249c-3.46934,-0.46229 -6.93867,-0.92459 -10.408,-1.38689c-0.98737,-0.13157 -1.97473,-0.26313 -2.96209,-0.3947c-0.98717,-1.71879 -1.97436,-3.43757 -2.96154,-5.15636c4.95128,-0.78537 9.90258,-1.57075 14.85386,-2.35613c1.00167,1.15156 2.0037,2.303 3.00605,3.45435c1.32975,1.52741 2.64911,3.07717 3.96377,4.64005c-0.28278,0.60616 -0.56556,1.21231 -0.84834,1.81847c-1.5479,-0.20626 -3.0958,-0.41253 -4.6437,-0.61879z"/><path d="M412.16188,246.85954c-1.73084,0.27455 -3.46169,0.54909 -5.19254,0.82364c0.58364,-1.60667 1.1589,-3.21547 1.72303,-4.82692c1.15589,1.3348 2.31241,2.6692 3.46951,4.00328z"/><path d="M398.78661,247.23002c-1.74316,-3.03503 -3.48631,-6.07006 -5.22947,-9.10509c-1.74316,-3.03503 -3.48631,-6.07005 -5.22947,-9.10509c-1.10686,-1.92717 -2.21372,-3.85434 -3.32058,-5.78151c1.8212,-0.51212 3.6424,-1.02425 5.4636,-1.53637c4.79956,5.60662 9.61479,11.20013 14.44205,16.78546c-1.1503,3.37537 -2.35685,6.73781 -3.5939,10.09204c-0.53683,0.08515 -1.07364,0.1703 -1.61047,0.25545c-0.30725,-0.53496 -0.61451,-1.06993 -0.92176,-1.60489z"/><path d="M401.08307,218.71774c3.58027,-1.00678 7.16055,-2.01355 10.74082,-3.02033c-1.07081,3.89174 -2.17753,7.76955 -3.33943,11.62455c-2.47073,-2.86534 -4.93802,-5.73319 -7.40139,-8.60422z"/><path d="M424.82898,69.69122c0.31685,4.97088 4.12862,8.71512 8.63701,12.26994c-3.0073,0.87817 -6.01459,1.75634 -9.02189,2.63451c-3.35969,0.98107 -6.71938,1.96214 -10.07907,2.94321c-0.03051,0.00891 -0.06102,0.01782 -0.09153,0.02673c-2.26355,-1.28002 -4.52711,-2.56005 -6.79066,-3.84007c-3.04661,-1.72284 -6.09322,-3.44567 -9.13983,-5.16851c-1.01786,-0.5756 -2.03573,-1.15119 -3.05359,-1.72679c-5.71724,-8.32727 -11.43446,-16.65455 -17.1517,-24.98182c10.08245,2.66458 20.13708,5.48894 30.19417,8.0556c5.38662,1.37471 10.77325,2.74942 16.15987,4.12413c0.10442,1.88657 0.21682,3.77413 0.33722,5.66308z"/><path d="M404.11749,45.60012c3.46051,-0.52432 6.921,-1.04864 10.38151,-1.57296c2.82482,-0.428 6.35116,-0.45275 9.15091,-1.37268c0.0852,3.64333 0.20018,7.28445 0.34497,10.92635c-4.39672,-1.12208 -8.79344,-2.24416 -13.19016,-3.36624c-4.51565,-1.15243 -9.031,-2.35653 -13.54872,-3.57484c2.28717,-0.34654 4.57433,-0.69308 6.86149,-1.03962z"/><path d="M369.70626,61.16833c-0.04422,-0.03952 -0.10257,-0.06355 -0.16654,-0.06355c-0.13807,0 -0.25,0.11193 -0.25,0.25c0,0.03464 0.00705,0.06763 0.01978,0.09763l0.1826,0.45936l0.02678,-0.01065c0.35074,1.76157 1.13123,3.58512 1.93572,5.3517c-0.52491,1.53524 -0.99967,3.09462 -1.58482,4.60085c-2.41411,6.21421 -4.82824,12.42844 -7.24235,18.64265c-0.05382,0.13854 -0.10764,0.27708 -0.16146,0.41563c-1.23753,-2.32158 -2.47505,-4.64317 -3.71257,-6.96475c-0.25977,-0.48732 -0.51953,-0.97466 -0.7793,-1.46198c0.69551,-0.81123 1.4362,-1.62991 2.22501,-2.45785c-4.20239,-7.02682 -6.11811,-15.27186 -11.01243,-22.00458c-0.90929,-1.25084 -1.83352,-2.31729 -2.72742,-3.27769c1.90972,-0.51064 3.83002,-0.99019 5.75067,-1.28018c3.46051,-0.52432 6.92101,-1.04864 10.38151,-1.57296c2.87166,-0.4351 5.74332,-0.8702 8.61498,-1.3053c1.5052,2.19235 3.01039,4.3847 4.51558,6.57704c-0.18926,0.22384 -0.3399,0.48139 -0.4416,0.76237l-1.78946,4.60628c-0.2575,0.44243 -0.49286,0.89553 -0.71116,1.35685c-1.02773,-0.9098 -2.1524,-1.90542 -3.07353,-2.72086z"/><path d="M373.13316,95.09268c-2.30408,-0.01291 -4.60816,-0.02582 -6.91225,-0.03873c0.95925,-2.46923 1.91851,-4.93847 2.87777,-7.4077c1.75019,-4.50519 3.50038,-9.01038 5.25057,-13.51557c0.68097,1.71308 1.36193,3.42616 2.0429,5.13925c0.32607,5.28217 0.65214,10.56433 0.97821,15.8465c-1.4124,-0.00791 -2.82479,-0.01583 -4.23719,-0.02374z"/><path d="M381.80815,69.20667c-0.0372,-0.02197 -0.0806,-0.03457 -0.12693,-0.03457c-0.13807,0 -0.25,0.11193 -0.25,0.25c0,0.05966 0.02089,0.11444 0.05577,0.15741l0.3104,0.3894l0.02419,-0.01928c1.17867,2.24532 3.26449,4.3701 4.9868,6.35846c-1.70761,-1.51167 -3.41521,-3.02334 -5.12281,-4.53501c-0.26328,-0.23307 -0.52657,-0.46614 -0.78985,-0.69921c-0.14412,-2.33477 -0.28826,-4.66954 -0.43238,-7.00431c1.6373,2.38476 3.2746,4.76952 4.9119,7.15428c-1.22485,-0.69264 -2.44625,-1.38334 -3.56708,-2.01716z"/><path d="M382.70317,95.1463c-0.10719,-0.0006 -0.21438,-0.0012 -0.32157,-0.0018c-0.01966,-0.31851 -0.03933,-0.63702 -0.05899,-0.95553c0.12685,0.31911 0.2537,0.63822 0.38055,0.95733z"/><path d="M316.51634,318.39446c0.01606,-0.01067 0.03213,-0.02134 0.04818,-0.03202c5.8428,2.3804 11.68559,4.76079 17.52839,7.14119l18.52185,7.54594c0.30389,0.12242 0.60397,0.25915 0.90328,0.39902c0.24354,2.53971 0.48934,5.10312 0.73565,7.67179c-2.52337,0.32617 -5.04674,0.65233 -7.57011,0.9785c-3.47112,0.44867 -6.94225,0.89734 -10.41337,1.34601c-1.57518,0.2036 -3.15037,0.40722 -4.72555,0.61082c-6.05885,-7.26238 -12.11768,-14.52477 -18.17653,-21.78715c-0.31889,-0.38224 -0.63779,-0.76448 -0.95668,-1.14672c1.36829,-0.90913 2.73659,-1.81825 4.10489,-2.72738z"/><path d="M334.00748,306.77293c2.91519,-1.93692 5.83038,-3.87385 8.74557,-5.81077c2.37929,-1.58085 4.75858,-3.16171 7.13787,-4.74257c0.05239,0.2905 0.10241,0.58088 0.1499,0.87113c1.05584,6.45231 1.25535,13.1869 1.87965,19.69742c0.16861,1.75833 0.34076,3.55366 0.51571,5.37813c-4.85285,-1.98409 -9.71499,-3.94547 -14.57029,-5.92356c-3.74232,-1.52465 -7.48464,-3.04929 -11.22696,-4.57394c2.45619,-1.63194 4.91237,-3.2639 7.36855,-4.89584z"/><path d="M315.44348,346.13692c-3.47112,0.44867 -6.94224,0.89735 -10.41336,1.34602c-0.44558,0.05759 -0.89116,0.11519 -1.33674,0.17278c-0.76029,-0.13678 -1.51983,-0.27629 -2.15071,-0.43318c0.33052,-6.51268 0.66104,-13.02536 0.99156,-19.53804c0.49951,-0.33188 0.99902,-0.66377 1.49853,-0.99565c2.68762,3.2215 5.37524,6.44298 8.06286,9.66448c2.56453,3.07396 5.12907,6.14792 7.6936,9.22187c-1.44858,0.18724 -2.89715,0.37448 -4.34573,0.56172z"/><path d="M288.73886,336.85047c0.51358,-0.34124 1.02718,-0.68248 1.54076,-1.02372c0.63005,-0.41862 1.2601,-0.83724 1.89015,-1.25585c-0.06281,1.24405 -0.12564,2.48809 -0.18852,3.73213c-1.05552,-0.48882 -2.13792,-0.97254 -3.24239,-1.45256z"/><path d="M360.24419,289.34063c0.14758,-0.09806 0.29517,-0.19612 0.44275,-0.29418c1.08533,0.49642 2.17068,0.99284 3.25601,1.48926c0.12273,1.29708 0.24546,2.59417 0.36819,3.89125c0.32969,3.48444 0.65938,6.96888 0.98907,10.45331c0.32969,3.48444 0.65938,6.96888 0.98907,10.45331c0.32969,3.48444 0.65938,6.96887 0.98907,10.45331c0.00311,0.03294 0.00624,0.06589 0.00935,0.09883c-2.88725,-0.3052 -5.75906,-0.6639 -8.60517,-1.10304c-0.35275,-0.05442 -0.68285,-0.1862 -1.00552,-0.34406c-0.25979,-2.70925 -0.51959,-5.41849 -0.77938,-8.12774c-0.63772,-6.65044 -0.8477,-13.53047 -1.93845,-20.11994c-0.16328,-0.9864 -0.3542,-1.97392 -0.56727,-2.96192c1.95076,-1.29613 3.90152,-2.59226 5.85228,-3.8884z"/><path d="M368.26742,336.2402c0.05225,0.55217 0.10449,1.10433 0.15673,1.6565c-0.17773,0.48699 -0.35547,0.97397 -0.5332,1.46096c-0.12687,0.0164 -0.25376,0.0328 -0.38063,0.0492c-2.76506,0.35741 -5.53013,0.71481 -8.29519,1.07222c-0.17886,-1.8653 -0.35773,-3.73059 -0.53659,-5.59589c3.16036,0.48588 6.35703,0.86756 9.57261,1.18507c0.00543,0.05732 0.01085,0.11463 0.01627,0.17194z"/><path d="M380.78061,171.75661c-3.49973,-0.043 -6.99948,-0.08602 -10.49921,-0.12902c-2.97713,-0.03659 -5.95425,-0.07317 -8.93138,-0.10976c-4.76033,-5.80088 -9.48926,-11.63447 -14.31002,-17.38442c-0.1827,-0.31809 -0.36539,-0.63619 -0.54808,-0.95428c-0.56702,-0.98725 -1.13405,-1.97449 -1.70107,-2.96174c1.87236,-4.81967 3.74472,-9.63934 5.61708,-14.45901c0.05845,-0.03063 0.11691,-0.06127 0.17536,-0.09191c2.95236,-1.54746 5.97223,-2.97247 8.8571,-4.64239c1.07232,-0.62072 1.87034,-2.12056 3.10677,-2.04068c1.23643,0.07988 1.83484,1.66994 2.81837,2.42347c2.64601,2.02725 5.4574,3.82899 8.18611,5.74348c0.66188,0.46438 1.32376,0.92877 1.98564,1.39316c-0.29104,1.46603 -0.56612,2.92173 -0.80758,4.36208c-0.811,4.83771 -2.12295,9.90378 -2.48001,14.79356c-0.17433,2.38726 -1.81574,5.55613 -0.05777,7.18062c1.75797,1.62449 4.76916,-0.41561 7.15374,-0.62341c6.36814,-1.59204 12.73642,-3.18351 19.10473,-4.77489c0.10284,0.19291 0.20566,0.38583 0.3085,0.57875c-0.62824,0.43286 -1.25763,0.86396 -1.88877,1.29237c-5.11363,3.47108 -10.22728,6.94214 -15.34091,10.41322c-0.24953,-0.00306 -0.49906,-0.00614 -0.74859,-0.0092z"/><path d="M405.1533,172.05612c-1.12476,-0.01382 -2.24953,-0.02765 -3.37428,-0.04147c-0.92031,-0.01131 -1.84063,-0.02262 -2.76094,-0.03393c1.15609,-0.78474 2.31218,-1.56947 3.46826,-2.35421c0.33572,-0.22788 0.67185,-0.45519 1.00831,-0.68202c0.55289,1.03721 1.10577,2.07442 1.65865,3.11162z"/><path d="M378.13298,159.40564c-0.84923,0.60064 -1.78374,2.50788 -2.54769,1.80194c-0.76394,-0.70594 1.28019,-1.69055 1.59557,-2.68176c0.50533,-1.58821 0.55112,-3.28746 0.82667,-4.93119c0.66589,-3.97212 1.33179,-7.94424 1.99768,-11.91636c4.76842,3.34559 9.53683,6.69117 14.30525,10.03676c0.57151,1.07216 1.14303,2.14431 1.71454,3.21646c-5.96395,1.49161 -11.92794,2.98312 -17.89204,4.47414z"/><path d="M367.96436,126.59665c3.23639,-0.28457 6.47278,-0.56912 9.70917,-0.85369c0.10442,0.08461 0.20881,0.16926 0.31317,0.25394c-0.38898,2.39862 -0.86626,4.80732 -1.35739,7.20489c-0.06865,-0.04817 -0.13729,-0.09632 -0.20594,-0.14449c-2.7287,-1.91449 -5.397,-3.91811 -8.18611,-5.74348c-0.30448,-0.19928 -0.60142,-0.42488 -0.89517,-0.66246c0.20743,-0.01824 0.41485,-0.03647 0.62227,-0.05472z"/><path d="M383.00784,130.51136c1.64638,3.0886 3.29275,6.17719 4.93914,9.26579c0.38752,0.72698 0.77502,1.45395 1.16254,2.18092c-2.72938,-1.91496 -5.45875,-3.82993 -8.18813,-5.7449c0.38353,-2.28779 0.76706,-4.57556 1.15059,-6.86335c0.19025,0.15828 0.38029,0.31674 0.57013,0.47541c0.12192,0.22871 0.24382,0.45741 0.36574,0.68613z"/><path d="M341.26244,144.07404c-0.29644,-0.51613 -0.59288,-1.03227 -0.88932,-1.54841c0.36845,-0.68681 0.72671,-1.37725 1.07359,-2.07028c0.74189,-0.38886 1.48378,-0.77772 2.22567,-1.16658c-0.69376,1.78583 -1.38752,3.57166 -2.08129,5.35749c-0.10955,-0.19074 -0.2191,-0.38148 -0.32865,-0.57222z"/><path d="M346.05963,128.52264c0.32848,-0.02888 0.65695,-0.05777 0.98543,-0.08665c0.29109,-0.0256 0.58218,-0.05119 0.87327,-0.07679c-0.49739,1.28033 -0.99478,2.56067 -1.49216,3.841c-0.6044,0.31679 -1.20878,0.63357 -1.81318,0.95036c0.5629,-1.55191 1.0494,-3.09841 1.44664,-4.62793z"/><path d="M353.1862,128.60678c0.0953,-0.24529 0.19058,-0.49059 0.28588,-0.73589c0.4466,-0.03927 0.89319,-0.07854 1.33978,-0.1178c-0.54359,0.28119 -1.08518,0.56634 -1.62566,0.85369z"/><path d="M394.80494,124.23666c1.51279,-0.13302 3.02557,-0.26602 4.53836,-0.39904c2.68398,-0.23599 5.36796,-0.47198 8.05194,-0.70797c3.85314,1.10541 7.70628,2.21081 11.55941,3.31622c-0.17987,0.83007 -0.31969,1.66869 -0.40864,2.5182c-0.37962,3.6257 0.17933,7.29317 0.48649,10.92573c0.18541,2.19272 2.04804,4.59799 0.98931,6.52711c-0.57068,1.03984 -1.59121,1.62431 -2.73474,2.09085c-6.79424,-6.54762 -13.48888,-13.25066 -20.46119,-19.60036c-0.08573,-0.07807 -0.1715,-0.15609 -0.25733,-0.23407c-0.58787,-1.47889 -1.17575,-2.95778 -1.76362,-4.43667z"/><path d="M432.16648,139.3763c-0.47749,1.75804 -1.42174,5.23469 -1.89923,6.99273c-0.26025,0.06504 -0.52051,0.13009 -0.78076,0.19513c-0.05151,-3.70173 -0.65563,-8.77865 -0.93251,-12.44954c1.20416,1.7539 2.40833,3.50778 3.6125,5.26167z"/><path d="M406.01341,152.43333c-0.20092,-0.50544 -0.40183,-1.01086 -0.60274,-1.51629c0.45395,0.44232 0.90793,0.8845 1.36206,1.32639c-0.25311,0.0633 -0.50621,0.1266 -0.75932,0.18991z"/><path d="M433.27664,172.40172c-0.26333,-0.00323 -0.52668,-0.00647 -0.79001,-0.0097c-1.14963,-0.80659 -2.29924,-1.61318 -3.44887,-2.41977c1.76153,-6.48574 3.52305,-12.97147 5.28458,-19.45721c0.44402,-0.11105 0.88804,-0.22212 1.33206,-0.33319c0.1851,0.64245 0.35717,1.28607 0.49706,1.93258c1.05737,4.88692 2.11472,9.77384 3.17208,14.66076c0.41225,1.90535 0.82451,3.81069 1.23676,5.71604c-2.42789,-0.02983 -4.85577,-0.05967 -7.28366,-0.08951z"/><path d="M428.76365,151.90514c-1.35924,5.00459 -2.7185,10.00919 -4.07774,15.01379c-2.96358,-2.07928 -5.92716,-4.15857 -8.89074,-6.23786c0.10132,-0.07017 0.20259,-0.1404 0.3038,-0.21072c1.35345,0.47235 3.20276,0.51683 5.01097,-1.37c0.94781,-0.98902 1.36498,-1.96675 1.47114,-2.86514c2.11992,-1.18899 4.23303,-2.39305 5.63554,-4.19329c0.18234,-0.04559 0.36469,-0.09119 0.54703,-0.13679z"/><path d="M449.27852,172.59836c-1.1963,-0.0147 -2.39258,-0.0294 -3.58888,-0.04411c-0.1406,-0.64984 -0.2812,-1.29968 -0.42181,-1.94952c-1.27909,-5.91171 -2.55819,-11.8234 -3.83728,-17.73511c2.25423,3.28332 4.50844,6.56664 6.76267,9.84997c0.50293,3.28201 0.84962,6.57497 1.0853,9.87877z"/><path d="M412.2525,168.12875c-0.52654,-1.32459 -1.05308,-2.64919 -1.57962,-3.97378c0.23355,-0.15602 0.467,-0.31217 0.70034,-0.46849c3.9731,2.78758 7.94621,5.57516 11.91931,8.36274c-0.02074,0.07635 -0.04148,0.1527 -0.06222,0.22905c-0.15096,-0.00186 -0.30192,-0.00371 -0.45288,-0.00556c-2.97375,-0.03654 -5.9475,-0.07309 -8.92125,-0.10963c-0.53456,-1.34477 -1.06912,-2.68954 -1.60368,-4.03431z"/><path d="M445.19541,149.50278c0.00312,0.01009 0.00624,0.02017 0.00937,0.03026c-0.03057,-0.04451 -0.06113,-0.08904 -0.09169,-0.13355c0.02745,0.03443 0.05488,0.06886 0.08233,0.10329z"/><path d="M360.98889,254.00662c-0.04541,-0.48001 -0.09083,-0.96001 -0.13625,-1.44002c-0.1091,-1.15302 0.13272,-3.60532 -0.45872,-4.58559c-0.78001,-1.2928 -3.81775,-2.52742 -5.09801,-3.36506c-2.92881,-1.91626 -5.85763,-3.83252 -8.78645,-5.74877c-1.7115,-1.1198 -3.42301,-2.2396 -5.13451,-3.3594c14.87305,-4.18233 29.74611,-8.36466 44.61915,-12.54699c0.63333,1.10269 1.26666,2.20539 1.89998,3.30808c1.74316,3.03503 3.48631,6.07006 5.22947,9.10509c1.74316,3.03503 3.48631,6.07006 5.22947,9.10509c0.80202,1.3964 1.60404,2.7928 2.40606,4.18921c-12.14893,1.92707 -24.29786,3.85415 -36.44679,5.78122c-1.1078,-0.14762 -2.21561,-0.29524 -3.32341,-0.44285z"/><path d="M330.12133,228.14479c0.2931,-0.07864 0.5862,-0.15728 0.8793,-0.23592c3.31613,-0.88972 6.63227,-1.77944 9.9484,-2.66916c-3.55946,1.00092 -7.11892,2.00186 -10.67838,3.00278c-0.04978,-0.03257 -0.09955,-0.06513 -0.14932,-0.0977z"/><path d="M407.37523,260.1877c-1.61218,-0.21483 -3.22436,-0.42966 -4.83654,-0.64448c0.13918,-0.36609 0.27828,-0.73223 0.41727,-1.09841c1.04428,-0.16564 2.08855,-0.33129 3.13284,-0.49693c0.42881,0.7466 0.85762,1.49322 1.28643,2.23982z"/><path d="M308.91951,301.33384c3.21445,-1.38468 6.4289,-2.76934 9.64335,-4.15402c3.21445,-1.38468 6.4289,-2.76934 9.64335,-4.15402c3.21445,-1.38468 6.42889,-2.76934 9.64334,-4.15402c3.04847,-1.31318 6.09693,-2.62635 9.1454,-3.93952c1.08969,3.5749 2.11633,7.17192 2.79696,10.75281c-2.43851,1.62021 -4.87704,3.24042 -7.31555,4.86063c-2.91519,1.93692 -5.83038,3.87385 -8.74557,5.81077c-2.55064,1.6947 -5.10129,3.38941 -7.65193,5.08412c-6.95894,-2.83513 -13.91789,-5.67025 -20.87683,-8.50538c1.23917,-0.53379 2.47833,-1.06758 3.71749,-1.60137z"/><path d="M289.63282,309.64188c0.04366,-0.0188 0.08731,-0.03761 0.13097,-0.05642c1.1519,1.38072 2.30381,2.76144 3.45571,4.14216c-0.3389,6.74075 -0.67815,13.48147 -1.01837,20.22214c-0.73273,0.48685 -1.46546,0.97369 -2.1982,1.46053c-0.60375,0.40114 -1.20749,0.80228 -1.81124,1.20343c-4.32873,-1.86464 -8.97999,-3.67648 -13.66924,-5.51734c2.32432,-5.98306 4.64864,-11.96612 6.97295,-17.94918c2.71247,-1.16844 5.42495,-2.33688 8.13743,-3.50532z"/><path d="M306.78557,314.37842c3.07296,1.25194 6.14592,2.5039 9.21888,3.75584c-1.30507,0.86712 -2.61014,1.73424 -3.91521,2.60136c-1.76789,-2.11906 -3.53578,-4.23813 -5.30367,-6.3572z"/><path d="M302.66778,325.05274c0.34758,0.41663 0.69517,0.83326 1.04275,1.24989c-0.3816,0.25354 -0.76319,0.50709 -1.14478,0.76063c0.03401,-0.67017 0.06802,-1.34034 0.10203,-2.01051z"/><path d="M270.34612,317.94992c1.56905,-0.6759 3.13812,-1.35179 4.70717,-2.02769c-1.72706,4.44565 -3.45412,8.89131 -5.18118,13.33697c-1.78908,-0.71397 -3.56999,-1.43613 -5.32686,-2.17102c0.67956,-2.50588 1.35912,-5.01176 2.03868,-7.51764c1.25407,-0.54021 2.50813,-1.08041 3.76219,-1.62062z"/><path d="M359.96749,288.92417c-1.89686,1.26032 -3.79372,2.52065 -5.69059,3.78096c-0.55896,-2.50227 -1.2537,-5.00681 -1.99495,-7.50302c2.62329,1.19986 5.24658,2.39972 7.86988,3.59958c-0.06144,0.04082 -0.12289,0.08166 -0.18434,0.12248z"/><path d="M357.13624,280.56374c1.87786,-0.80892 3.75572,-1.61784 5.63358,-2.42675c0.18408,1.94555 0.36817,3.8911 0.55226,5.83665c0.02571,0.27173 0.05142,0.54345 0.07713,0.81518c-2.59825,-1.1884 -5.19651,-2.37682 -7.79477,-3.56522c0.5106,-0.21995 1.02121,-0.4399 1.53181,-0.65985z"/><path d="M260.70278,322.10394c0.00511,-0.0022 0.01021,-0.0044 0.01532,-0.0066c-0.27014,0.99615 -0.54028,1.9923 -0.81042,2.98845c-1.00178,-0.44828 -1.99033,-0.90238 -2.96239,-1.36325c1.2525,-0.53953 2.50499,-1.07906 3.75749,-1.61859z"/><path d="M407.70352,176.84032c1.64638,3.0886 3.29276,6.17719 4.93914,9.26579c1.55388,2.91508 3.10778,5.83017 4.66166,8.74525c-0.82224,3.20523 -1.64565,6.41177 -2.48079,9.61469c-6.9683,1.9595 -13.93662,3.919 -20.90492,5.8785c-6.28167,-7.36278 -12.53452,-14.75066 -18.7503,-22.17489c7.70873,-5.2326 15.41747,-10.46519 23.12621,-15.69779c1.15945,0.01425 2.31891,0.02849 3.47836,0.04274c1.21625,0.01495 2.43248,0.02989 3.64873,0.04484c0.76064,1.42695 1.52128,2.85392 2.28192,4.28087z"/><path d="M370.27525,172.12755c3.49973,0.043 6.99947,0.08602 10.49921,0.12903c0.01039,0.00013 0.02078,0.00025 0.03117,0.00038c-4.02452,2.73179 -8.04903,5.46359 -12.07355,8.19538c-1.61563,-1.94494 -3.22853,-3.89262 -4.83857,-5.84325c-0.71065,-0.86098 -1.42012,-1.72315 -2.12883,-2.58612c2.83686,0.03486 5.67371,0.06972 8.51056,0.10458z"/><path d="M377.86873,207.80967c-0.5412,-0.9423 -1.08242,-1.8846 -1.62362,-2.8269c2.35385,2.78488 4.7124,5.56537 7.07522,8.34205c-0.65547,0.18432 -1.31094,0.36864 -1.96641,0.55296c-1.16173,-2.0227 -2.32346,-4.04541 -3.48519,-6.06811z"/><path d="M420.78562,201.38227c0.21744,0.40793 0.43489,0.81585 0.65234,1.22378c-0.34813,0.09789 -0.69626,0.19579 -1.04439,0.29369c0.13088,-0.50578 0.26155,-1.01161 0.39205,-1.51747z"/><path d="M423.46711,27.47899c0.00356,4.79757 0.05832,9.58418 0.16437,14.36658c-0.54938,-0.13689 -1.09878,-0.27378 -1.64816,-0.41067c-3.39616,-0.84623 -6.79231,-1.69246 -10.18847,-2.53869c-3.41597,-0.85117 -6.84809,-1.42453 -10.3194,-2.00529c-3.45202,-0.57753 -6.90404,-1.15507 -10.35607,-1.7326c-3.45261,-0.57764 -6.89209,-1.15277 -10.31531,-1.88598c-3.42237,-0.73303 -6.84475,-1.46606 -10.26713,-2.19909c-2.532,-0.54232 -5.06401,-1.08465 -7.59601,-1.62697c-0.112,-0.16844 -0.22409,-0.33684 -0.33628,-0.50517c7.24997,-4.25595 14.32378,-8.69011 21.37349,-13.60857c9.34088,-6.51696 19.78995,-16.03695 24.80525,-25.34883c4.84708,2.5198 9.65245,5.11743 14.62917,7.41419c0.46458,0.2144 0.92329,0.44483 1.37874,0.68418c0.80244,9.87577 -1.32473,21.32624 -1.32419,29.39693z"/><path d="M339,368.72327c-0.3823,0 -8.10546,-0.0058 -8.30546,0.01873c-0.71535,0.08774 -1.41269,0.19745 -2.10017,0.31336c-4.16846,-0.82002 -8.33692,-1.64005 -12.50538,-2.46008c-3.27065,-0.6434 -6.50315,-1.52644 -9.81194,-1.93022c-1.19459,-0.14578 -2.56109,0.25885 -3.83446,0.44894c3.42447,-6.10517 7.09338,-13.59479 4.91379,-16.44441c-0.21929,-0.2867 -1.0425,-0.51004 -2.06355,-0.71647c3.40492,-0.44011 6.80983,-0.88022 10.21474,-1.32034c1.55376,-0.20083 3.10753,-0.40168 4.6613,-0.60251c3.71504,4.45299 7.43007,8.90598 11.1451,13.35898c2.13538,2.55955 4.27074,5.1191 6.40612,7.67865c0.4456,0.53411 0.8696,1.09056 1.28553,1.65537c-0.00188,0 -0.00375,0 -0.00563,0z"/><path d="M355.30546,369.742c-0.93566,-0.23392 -1.86816,-0.41744 -2.79931,-0.56099l-0.70128,-0.84058c-3.54897,-5.64351 -8.54149,-10.2382 -12.81225,-15.35729c-2.35609,-2.82412 -4.7122,-5.64823 -7.06829,-8.47235c1.46999,-0.19001 2.93999,-0.38002 4.40998,-0.57002c3.47112,-0.44867 6.94225,-0.89734 10.41337,-1.34601c2.51792,-0.32546 5.03584,-0.65092 7.55376,-0.97638c0.92508,9.64727 1.85567,19.35193 2.69817,28.13801c-0.56978,-0.0115 -1.13497,-0.01722 -1.69416,-0.01439z"/><path d="M370.69454,369.742c-2.77319,0.35366 -5.71283,0.30205 -8.64074,0.19335l1.50889,-4.13438c1.61347,-2.91681 2.28562,-6.26261 3.42844,-9.39392c0.84294,-2.30966 1.68588,-4.61931 2.52882,-6.92897c0.24187,2.55624 0.48373,5.11249 0.7256,7.66874c0.32969,3.48444 0.65938,6.96888 0.98907,10.45331c0.06167,0.65177 0.12515,1.32264 0.18972,2.00511c-0.24099,0.05782 -0.4839,0.10539 -0.72981,0.13675z"/><path d="M367.57442,339.90273c0.04114,-0.00532 0.08229,-0.01064 0.12342,-0.01596c-0.087,0.23839 -0.17401,0.47678 -0.26101,0.71517c-1.71422,4.69696 -3.42843,9.39393 -5.14265,14.09089c-0.4022,1.10201 -0.9056,2.18098 -1.40336,3.26123c-0.54264,-5.659 -1.08529,-11.318 -1.62794,-16.977c2.77051,-0.35811 5.54102,-0.71622 8.31153,-1.07433z"/><path d="M249.14566,214.72736c8.2967,-5.07722 16.64586,-10.08104 25.05357,-15.03011c1.96762,1.87814 3.93523,3.75629 5.90285,5.63443c-4.01333,6.74469 -8.19797,13.35725 -13.07289,19.59019c-2.54271,3.25104 -5.10189,6.48934 -7.64493,9.74014c-0.63117,0.38418 -1.26234,0.76836 -1.89351,1.15254c-0.16699,0.10164 -0.3342,0.20288 -0.50162,0.30374c-8.03083,-3.67319 -16.06168,-7.34639 -24.09251,-11.01959c1.16144,-1.83534 2.32287,-3.67068 3.48431,-5.50602c4.94941,-1.59755 9.88483,-3.10298 12.76472,-4.86534z"/><path d="M288.82539,213.65831c0.3442,0.32855 0.68842,0.65711 1.03262,0.98566c-0.15907,0.58658 -0.31815,1.17315 -0.47722,1.75973c-1.66087,1.01094 -3.32173,2.02187 -4.9826,3.03281c-0.70367,0.42831 -1.40735,0.85662 -2.11102,1.28493c1.7982,-2.73831 3.5266,-5.51733 5.21956,-8.32183c0.43955,0.41957 0.8791,0.83913 1.31865,1.2587z"/><path d="M251.32598,239.39381c-2.29745,-0.30614 -4.59488,-0.61227 -6.89233,-0.91841c-0.36463,-0.04859 -0.72926,-0.09718 -1.09389,-0.14577c-1.32936,-1.59342 -2.65872,-3.18685 -3.98808,-4.78027c4.11139,1.88049 8.22278,3.76099 12.33417,5.64148c-0.11993,0.06769 -0.2399,0.13535 -0.35988,0.20297z"/><path d="M227.5826,236.22995c-0.59249,-0.07895 -1.53599,0.41935 -1.789,-0.12218c-0.25301,-0.54154 0.73461,-0.94544 1.05423,-1.45052c0.05823,-0.09202 0.11647,-0.18404 0.1747,-0.27606c0.55508,0.66535 1.11017,1.33069 1.66525,1.99604c-0.36839,-0.04909 -0.73679,-0.09818 -1.10519,-0.14727z"/><path d="M413.51578,316.00325c0.68241,1.15853 3.43059,0.68965 4.46521,1.68315c1.03725,0.99604 -0.14968,2.93604 1.16395,3.71742c1.19306,0.7097 5.10896,0.82832 9.14633,0.89272c-0.70472,0.82304 -1.40069,1.65333 -2.07964,2.49776c-1.61395,2.00734 -2.40682,4.85191 -4.59293,6.21395c-1.13673,0.70824 -2.5845,-0.7405 -3.91243,-0.91474c-6.61001,-0.86732 -13.27857,-1.20715 -19.91787,-1.81072c-0.58579,-0.05325 -1.17244,-0.1048 -1.75986,-0.15488c1.03132,-2.21067 2.06263,-4.42135 3.09395,-6.63202c1.47971,-3.17183 2.95941,-6.34364 4.43912,-9.51547c0.42596,-0.91307 0.85192,-1.82613 1.27787,-2.73919c2.92252,1.33672 5.84504,2.67345 8.76756,4.01017c-0.5306,0.91327 -0.62865,1.83952 -0.09127,2.75186z"/><path d="M427.89957,304.56428c-1.86528,0.97469 -6.58392,2.83972 -10.18456,5.06784c-3.5872,-1.64074 -7.17439,-3.28146 -10.76158,-4.9222c0.34911,-0.74833 0.69821,-1.49665 1.04732,-2.24498c1.47971,-3.17183 2.95941,-6.34364 4.43912,-9.51547c1.47971,-3.17183 2.95941,-6.34364 4.43912,-9.51547c0.57484,-1.2322 1.14968,-2.46441 1.72453,-3.69661c0.22246,0.38734 0.44493,0.77468 0.66739,1.16201c1.74316,3.03503 3.48631,6.07006 5.22947,9.10509c1.74316,3.03503 3.48631,6.07006 5.22947,9.10509c0.66147,1.1517 1.32295,2.30339 1.98442,3.45509c-1.32175,0.6922 -2.59582,1.36269 -3.81471,1.99961z"/><path d="M373.43222,37.56215c3.42237,0.73303 6.84476,1.46606 10.26713,2.19909c3.43061,0.73479 6.87749,1.31134 10.33753,1.89021c3.45202,0.57753 6.90404,1.15507 10.35607,1.7326c3.45846,0.57861 6.87775,1.14931 10.28101,1.99731c3.39616,0.84623 6.79231,1.69246 10.18847,2.53869c0.33918,0.08452 0.67836,0.16902 1.01754,0.25354c-0.55063,0.0815 -1.12936,0.24913 -1.53487,0.31057c-2.30701,0.34954 -4.614,0.69909 -6.921,1.04864c-1.94326,0.29444 -3.88651,0.58886 -5.82977,0.88329c-0.26321,-0.06717 -0.52641,-0.13435 -0.78962,-0.20152c-13.73422,-3.50509 -27.46582,-7.48816 -41.26906,-10.89525c-0.05481,-0.07983 -0.10962,-0.15966 -0.16442,-0.23949c-0.63527,-0.92529 -1.26522,-1.85699 -1.89219,-2.79278c1.98439,0.42503 3.96878,0.85007 5.95317,1.2751z"/><path d="M386.27956,54.25168c-1.96005,0.29698 -3.9201,0.59396 -5.88016,0.89093c-0.75389,-1.09806 -1.50779,-2.19613 -2.26168,-3.29419c2.89262,0.76446 5.78296,1.54207 8.67171,2.32297c-0.17663,0.02676 -0.35325,0.05352 -0.52988,0.08028z"/><path d="M347.75818,54.33119c1.78798,-2.82543 3.57596,-5.65085 5.36394,-8.47628c1.12771,0.21146 2.25004,0.4377 3.36535,0.68233c4.76689,1.04556 9.52284,2.19234 14.271,3.39697c1.38246,2.01358 2.76493,4.02718 4.14739,6.04076c-3.12977,0.47421 -6.25956,0.94842 -9.38933,1.42263c-3.46051,0.52432 -6.921,1.04864 -10.38151,1.57296c-2.02594,0.30799 -4.05051,0.82255 -6.06308,1.36267c-1.11282,-1.17213 -2.16716,-2.19424 -3.0727,-3.22251c0.58631,-0.92651 1.17262,-1.85302 1.75894,-2.77953z"/><path d="M361.93001,37.07535c0.11764,0.17135 0.23528,0.34269 0.35292,0.51404c-0.29771,-0.06831 -0.59545,-0.13625 -0.89324,-0.20385c0.18023,-0.10332 0.36034,-0.20672 0.54032,-0.3102z"/><path d="M423.88845,197.40083c-0.42102,-1.05914 -0.84203,-2.11828 -1.26305,-3.17742c1.5485,-6.03267 3.10051,-12.05729 4.72584,-18.04159c0.09771,-0.35977 0.19543,-0.71953 0.29314,-1.07929c5.29789,3.71706 10.59577,7.43413 15.89366,11.15119c0.68922,3.18544 1.37845,6.37088 2.06767,9.55632c-6.70085,1.88429 -13.40168,3.76858 -20.10253,5.65287c-0.53824,-1.35403 -1.07648,-2.70805 -1.61472,-4.06208z"/><path d="M416.13115,177.88611c-0.69174,-1.74018 -1.38349,-3.48037 -2.07522,-5.22055c2.90512,0.0357 5.81025,0.0714 8.71537,0.1071c0.10789,0.00133 0.21578,0.00266 0.32367,0.00398c-0.18964,0.69822 -0.37928,1.39645 -0.56891,2.09466c-1.0349,3.81039 -2.03982,7.63729 -3.03296,11.47229c-1.12065,-2.81916 -2.24129,-5.63831 -3.36193,-8.45747z"/><path d="M449.31337,173.09883c0.257,3.78183 0.37163,7.57786 0.41172,11.38791c-0.57128,-0.40082 -1.14257,-0.80164 -1.71385,-1.20246c-0.73771,-3.40955 -1.47542,-6.8191 -2.21313,-10.22865c1.17175,0.0144 2.34351,0.0288 3.51526,0.04319z"/><path d="M433.2705,172.90168c2.46609,0.0303 4.93219,0.06061 7.39829,0.09091c0.43707,2.02002 0.87412,4.04005 1.31119,6.06007c-2.92264,-2.05057 -5.84529,-4.10113 -8.76793,-6.1517c0.01948,0.00024 0.03897,0.00048 0.05846,0.00072z"/><path d="M449.56931,190.48535c0.04521,0.03172 0.09043,0.06345 0.13564,0.09517c-0.00445,0.15467 -0.00925,0.30971 -0.01441,0.46514c-0.04041,-0.18677 -0.08083,-0.37354 -0.12124,-0.5603z"/><path d="M436.19863,120.59709c0.12899,-0.00992 0.23057,-0.11773 0.23057,-0.24926c0,-0.07497 -0.033,-0.14222 -0.08526,-0.18805l-0.37341,-0.33056l-0.01398,0.01579c-0.84761,-1.01436 -1.86446,-1.95594 -2.92844,-2.85958c0.19722,-0.58993 0.39471,-1.17977 0.59281,-1.76941c1.51848,-4.5197 3.03695,-9.03939 4.55543,-13.55909c1.87323,1.0593 3.74646,2.1186 5.61969,3.1779c1.30525,0.73811 2.61052,1.47623 3.91577,2.21435c-2.39541,7.28773 -4.72057,14.03544 -5.58668,20.84228c-3.88,-1.11311 -7.75999,-2.22622 -11.63998,-3.33934c0.40494,-1.18483 0.80507,-2.37129 1.20315,-3.55845c1.47492,-0.12968 3.15722,-0.2776 4.51033,-0.39657z"/><path d="M420.99537,106.57235c-2.62065,-2.31995 -5.24131,-4.6399 -7.86196,-6.95986c-1.43833,-1.2733 -2.87667,-2.54658 -4.315,-3.81987c2.10376,0.01179 4.20753,0.02357 6.31129,0.03536c3.49995,0.01961 6.99989,0.03922 10.49983,0.05883c0.78886,0.00442 1.57772,0.00884 2.36658,0.01326c0.4384,0.24792 0.8768,0.49582 1.3152,0.74374c-1.49245,4.44223 -2.98489,8.88446 -4.47735,13.32669c-1.27954,-1.13272 -2.55906,-2.26543 -3.8386,-3.39814z"/><path d="M438.6397,139.97087l-0.76316,-3.52715c-0.22434,-1.15044 -1.23762,-2.01873 -2.45371,-2.01873c-0.18868,0 -0.37248,0.0209 -0.5492,0.06051c-0.98968,-1.4415 -1.97937,-2.88298 -2.96905,-4.32448c3.28881,0.94351 6.57762,1.88702 9.86643,2.83053c-0.02619,3.31859 0.36827,6.6857 1.33971,10.16878c-0.64817,0.16187 -1.29633,0.32374 -1.94449,0.48562c-0.00804,-0.01009 -0.01608,-0.02016 -0.02411,-0.03025c-0.83414,-1.21495 -1.66828,-2.42989 -2.50242,-3.64484z"/><path d="M444.76902,148.16571c-0.05857,-0.07348 -0.11715,-0.14696 -0.17572,-0.22044c0.0317,-0.00794 0.06338,-0.01586 0.09508,-0.0238c0.02702,0.0814 0.0539,0.16282 0.08064,0.24424z"/><path d="M284.65817,219.86361c1.51083,-0.91962 3.02168,-1.83924 4.53251,-2.75886c-0.81609,3.00932 -1.63218,6.01865 -2.44826,9.02797c-1.10492,4.07441 -2.20985,8.14882 -3.31477,12.22323c-1.46094,0.99167 -2.92189,1.98335 -4.38283,2.97502c-1.45803,0.39119 -2.91606,0.78238 -4.37409,1.17357c-1.74935,-0.2331 -3.49869,-0.46621 -5.24804,-0.69931c-0.70295,-0.32152 -1.40591,-0.64305 -2.10886,-0.96456c2.53652,-3.25046 5.05902,-6.51198 7.59563,-9.76235c2.3813,-3.05136 4.60643,-6.18533 6.7304,-9.37752c1.0061,-0.6124 2.01222,-1.22479 3.01832,-1.83719z"/><path d="M257.75074,236.24166c0.25383,-0.15451 0.50767,-0.30901 0.7615,-0.46352c-0.19871,0.25467 -0.3973,0.50944 -0.59575,0.76432c-0.12569,-0.05749 -0.25138,-0.11498 -0.37707,-0.17247c0.07047,-0.04271 0.14092,-0.08549 0.21131,-0.12834z"/><path d="M296.42069,220.90823c0.47808,0.45634 0.95617,0.91268 1.43425,1.36902c-0.11235,2.17129 -0.22444,4.34258 -0.33629,6.51389c-2.58054,1.75164 -5.16109,3.50329 -7.74164,5.25493c0.59704,-2.20156 1.19406,-4.40312 1.7911,-6.60469c0.80174,-2.95641 1.60348,-5.91282 2.40521,-8.86924c0.81579,0.77869 1.63158,1.55738 2.44736,2.33607z"/><path d="M252.14897,239.50347c0.03286,-0.01857 0.06573,-0.03714 0.09859,-0.05572c0.07082,0.03239 0.14162,0.06477 0.21244,0.09716c-0.10368,-0.01381 -0.20735,-0.02763 -0.31103,-0.04145z"/><path d="M388.98059,109.5846c-1.29289,-3.25245 -2.58576,-6.5049 -3.87865,-9.75736c-0.38256,-0.96238 -0.76511,-1.92476 -1.14767,-2.88714c0.10458,-0.03054 0.20915,-0.06108 0.31372,-0.09162c1.33664,-0.39032 2.67327,-0.78063 4.00991,-1.17094c1.95071,0.01093 3.90141,0.02186 5.85211,0.03279c2.69598,0.01511 5.39196,0.03021 8.08794,0.04532c5.89558,8.58703 11.79114,17.17406 17.68672,25.76109c-9.85031,-2.82591 -19.70062,-5.65181 -29.55093,-8.47772c-0.45772,-1.15147 -0.91544,-2.30295 -1.37316,-3.45442z"/><path d="M392.85924,119.34196c-0.0572,-0.1439 -0.1144,-0.2878 -0.1716,-0.4317c4.45615,1.27841 8.9123,2.5568 13.36845,3.83521c-2.25219,0.19803 -4.50439,0.39606 -6.75658,0.59408c-1.56245,0.13738 -3.1249,0.27476 -4.68735,0.41214c-0.5843,-1.46991 -1.16861,-2.93982 -1.75291,-4.40973z"/><path d="M358.92169,253.73116c-3.46934,-0.4623 -6.93867,-0.92459 -10.40801,-1.38689c-3.46934,-0.4623 -6.93867,-0.92459 -10.40801,-1.38689c-3.46934,-0.4623 -6.93867,-0.92459 -10.408,-1.38689c-1.18764,-0.15825 -2.37527,-0.31651 -3.56291,-0.47476c0.59719,-0.36262 1.25928,-0.80602 1.28056,-1.07512c0.02913,-0.36846 -1.25751,-1.32775 -1.52333,-1.58148c-1.44673,-1.38094 -2.89344,-2.76187 -4.34017,-4.14281c-0.17583,-0.16783 -0.35165,-0.33567 -0.52749,-0.5035c7.2373,-2.03514 14.47459,-4.07029 21.71189,-6.10543c1.83316,1.1994 3.66631,2.39879 5.49947,3.59819c2.92881,1.91626 5.85763,3.83252 8.78645,5.74877c1.19655,0.78287 4.2265,2.01635 4.94365,3.20496c0.52985,0.87818 0.28923,3.31943 0.38905,4.37439c0.04179,0.44171 0.08359,0.88343 0.12538,1.32514c-0.51952,-0.06922 -1.03903,-0.13846 -1.55855,-0.20768z"/><path d="M312.70174,232.81848c2.71918,-0.72956 5.43838,-1.45912 8.15756,-2.18868c2.87146,-0.77042 5.74292,-1.54083 8.61438,-2.31125c0.05275,0.03451 0.1055,0.06903 0.15825,0.10355c-5.69637,1.60183 -11.39275,3.20366 -17.08913,4.80549c0.05298,-0.13637 0.10595,-0.27274 0.15893,-0.40911z"/><path d="M367.92056,126.09857c-0.37473,0.03295 -0.74948,0.0659 -1.12421,0.09885c-1.21229,-1.02688 -2.4165,-2.10604 -3.92685,-2.20361c-2.09946,-0.13563 -3.85637,1.68573 -5.75033,2.60172c-0.37399,0.18088 -0.74648,0.36474 -1.11775,0.55104c-0.77582,0.06821 -1.55165,0.13643 -2.32747,0.20464c2.07498,-5.34124 4.14997,-10.68247 6.22494,-16.02371c1.07697,0.88866 2.15342,1.77786 3.22902,2.66801c4.59575,3.80338 9.31707,7.5198 13.98621,11.29471c-3.06453,0.26945 -6.12905,0.5389 -9.19358,0.80835z"/><path d="M347.26963,119.86692c0.00243,-4.44449 0.0322,-8.49609 0.35285,-12.31748c0.56396,-0.16469 1.12793,-0.32936 1.69189,-0.49405c2.08992,0.52135 4.17814,1.04896 6.26495,1.58356c-2.48636,6.40019 -4.97273,12.80039 -7.4591,19.20058c-0.37299,0.03279 -0.74597,0.06559 -1.11895,0.09839c-0.27051,0.02379 -0.54101,0.04757 -0.81152,0.07135c0.69196,-2.79951 1.07846,-5.53748 1.07988,-8.14235z"/><path d="M367.65047,101.70101c0.17998,0.33765 0.35998,0.67531 0.53996,1.01296c0.69732,1.30818 1.39465,2.61635 2.09197,3.92453c-1.73935,-1.39503 -3.47915,-2.78835 -5.21588,-4.18294c0.86131,-0.25151 1.72263,-0.50303 2.58395,-0.75455z"/><path d="M394.6115,358.78557c-2.85433,2.74921 -5.63582,5.38878 -8.42485,7.93532c-1.83398,-0.00567 -5.6008,-0.00682 -6.14336,0.19268c-0.88488,0.32538 -1.10787,1.69504 -2,2c-0.35005,0.11966 -0.71356,0.1276 -1.08354,0.0892c1.46875,-3.14833 2.9375,-6.29667 4.40625,-9.445c1.47971,-3.17183 2.95942,-6.34365 4.43913,-9.51547c1.47971,-3.17183 2.95941,-6.34365 4.43912,-9.51547c0.42395,-0.90875 0.84788,-1.81748 1.27183,-2.72623c1.79719,0.13464 3.58721,0.27933 5.36697,0.44112c6.54465,0.59497 13.0746,1.38359 19.6333,1.79318c-7.5541,5.91795 -14.82636,11.93249 -21.90485,18.75067z"/><path d="M349.28298,174.36954c-3.49973,-0.043 -6.99947,-0.08602 -10.49921,-0.12902c-1.10323,-0.01355 -2.20647,-0.02712 -3.30971,-0.04067c1.60692,-4.1364 3.21384,-8.27279 4.82076,-12.40919c3.44907,4.2185 6.93842,8.4064 10.42327,12.59652c-0.47838,-0.00588 -0.95674,-0.01176 -1.43512,-0.01764z"/><path d="M329.61559,161.44992c1.65788,-1.99947 3.31141,-4.16353 4.90454,-6.44183c0.7322,0.76468 1.4652,1.52842 2.14316,2.32291c-2.17593,5.60108 -4.35184,11.20217 -6.52777,16.80325c-0.61698,-0.00758 -1.23397,-0.01517 -1.85095,-0.02275c-3.49973,-0.043 -6.99947,-0.08602 -10.4992,-0.12902c-0.00619,-0.00008 -0.0124,-0.00015 -0.01859,-0.00023c4.15544,-3.81715 8.04111,-7.94006 11.84882,-12.53233z"/><path d="M340.09347,146.04266c0.18992,0.33068 0.37984,0.66135 0.56976,0.99203c-0.03068,0.07897 -0.06135,0.15794 -0.09204,0.23691c-0.24052,-0.28279 -0.46539,-0.57512 -0.66867,-0.88068c0.06393,-0.11597 0.12758,-0.23205 0.19094,-0.34825z"/><path d="M388.38821,139.54195c-1.57355,-2.95196 -3.14709,-5.90392 -4.72063,-8.85588c2.20706,1.86113 4.38253,3.75177 6.50654,5.68819c4.87874,4.44787 9.62069,9.06944 14.35824,13.68682c0.33055,0.83155 0.6611,1.6631 0.99165,2.49465c-0.32186,0.0805 -0.64371,0.161 -0.96558,0.2415c-4.84794,-3.40138 -9.69588,-6.80275 -14.54381,-10.20412c-0.54214,-1.01705 -1.08427,-2.0341 -1.62641,-3.05115z"/><path d="M394.28506,124.28238c0.48104,1.21012 0.96207,2.42023 1.44311,3.63035c-1.27418,-1.14882 -2.55924,-2.28784 -3.8535,-3.41842c0.80347,-0.07064 1.60693,-0.14129 2.4104,-0.21193z"/><path d="M412.27823,172.14368c-2.18487,-0.02685 -4.36973,-0.0537 -6.55459,-0.08055c-0.60401,-1.13313 -1.20802,-2.26624 -1.81203,-3.39937c2.10627,-1.41652 4.22435,-2.81618 6.33606,-4.22493c0.5134,1.29154 1.0268,2.58308 1.5402,3.87462c0.50921,1.28099 1.01841,2.56198 1.52762,3.84297c-0.34575,-0.00425 -0.6915,-0.00849 -1.03725,-0.01274z"/><path d="M398.95038,159.35652c0.43089,-0.10768 0.86178,-0.21535 1.29267,-0.32303c-0.35638,0.24737 -0.71298,0.4944 -1.06991,0.74093c-0.07425,-0.1393 -0.14851,-0.27861 -0.22276,-0.41791z"/><path d="M398.14069,154.40236c-0.53857,0.1347 -1.07715,0.2694 -1.61572,0.4041c-0.43646,-0.8188 -0.87293,-1.63759 -1.30939,-2.45639c0.97503,0.6841 1.95008,1.3682 2.92511,2.05229z"/><path d="M395.51181,263.48845c-3.21445,1.38468 -6.4289,2.76934 -9.64335,4.15402c-3.21445,1.38468 -6.4289,2.76934 -9.64335,4.15402c-3.21445,1.38468 -6.4289,2.76934 -9.64335,4.15402c-1.1263,0.48517 -2.25259,0.97034 -3.37889,1.45551c-0.12403,-1.31093 -0.24807,-2.62186 -0.37211,-3.93279c-0.26921,-2.84521 -0.53842,-5.69042 -0.80763,-8.53563c11.74755,-1.86341 23.49511,-3.72681 35.24266,-5.59022c-0.51434,1.35043 -1.02913,2.70034 -1.54271,4.05005c-0.07076,0.03048 -0.14119,0.06082 -0.21128,0.09102z"/><path d="M361.03722,254.51748c0.51562,0.0687 1.03124,0.13742 1.54686,0.20613c-0.50159,0.07957 -1.00318,0.15912 -1.50477,0.23869c-0.01403,-0.14827 -0.02806,-0.29654 -0.04209,-0.44481z"/><path d="M403.27249,260.14542c-0.37516,0.16161 -0.76001,0.32738 -1.15159,0.49606c0.07842,-0.20605 0.15683,-0.4121 0.23522,-0.61818c0.30546,0.04071 0.61092,0.08141 0.91638,0.12211z"/><path d="M374.69454,368.742c-0.95168,0.10728 -1.85734,0.46621 -2.7803,0.7328c-0.06061,-0.64058 -0.12122,-1.28118 -0.18183,-1.92176c-0.32969,-3.48444 -0.65938,-6.96888 -0.98907,-10.45331c-0.27485,-2.90481 -0.54969,-5.80963 -0.82454,-8.71444c1.12172,-3.07352 2.24345,-6.14704 3.36516,-9.22056c1.56795,-0.20267 3.13589,-0.40534 4.70383,-0.60801c2.85452,-0.36897 5.70904,-0.73793 8.56356,-1.1069c1.48066,0.10002 2.95839,0.20244 4.4315,0.31114c-0.39724,0.85149 -0.79447,1.703 -1.19171,2.55449c-1.47971,3.17183 -2.95941,6.34364 -4.43912,9.51547c-1.47971,3.17183 -2.95941,6.34364 -4.43912,9.51547c-1.47971,3.17183 -2.95941,6.34364 -4.43912,9.51547c-0.01003,0.0215 -0.02007,0.04301 -0.0301,0.06451c-0.58398,-0.10487 -1.17584,-0.24899 -1.74912,-0.18436z"/><path d="M368.63166,102.47878c-0.16363,-0.30698 -0.32727,-0.61396 -0.4909,-0.92093c2.01606,-0.58871 4.03212,-1.17743 6.04818,-1.76614c1.13619,-0.33178 2.27238,-0.66357 3.40857,-0.99535c0.00121,0.01955 0.00242,0.03911 0.00362,0.05867c0.21677,3.51154 0.66676,7.16638 0.97366,10.80681c-2.31354,-0.65805 -4.62749,-1.30437 -6.94228,-1.93996c-0.12003,-0.09637 -0.24008,-0.19274 -0.36013,-0.28909c-0.88025,-1.65134 -1.76048,-3.30267 -2.64073,-4.954z"/><path d="M383.88777,116.3857c2.73086,0.78344 5.4617,1.56688 8.19256,2.35032c0.10476,0.26354 0.20952,0.52708 0.31428,0.79063c0.56589,1.42358 1.13177,2.84716 1.69766,4.27074c-0.91353,0.08033 -1.82707,0.16065 -2.74059,0.24097c-2.4654,-2.14526 -4.96333,-4.26069 -7.48244,-6.3557c0.0118,-0.43065 0.01777,-0.86306 0.01853,-1.29697z"/><path d="M383.47218,97.08087c0.38837,0.97702 0.77675,1.95404 1.16513,2.93106c1.29289,3.25245 2.58576,6.5049 3.87865,9.75736c0.41017,1.03183 0.82032,2.06366 1.23049,3.09549c-2.01999,-0.5795 -4.03999,-1.15901 -6.05998,-1.73851c-0.29647,-4.22406 -0.84251,-8.49171 -1.09483,-12.57932c-0.02443,-0.39584 -0.04888,-0.7917 -0.07331,-1.18754c0.31795,-0.09284 0.6359,-0.18569 0.95385,-0.27853z"/><path d=""/><path d="M296.76592,220.54655c-0.88123,-0.84116 -1.76246,-1.68232 -2.64369,-2.52348c0.42442,-1.56502 0.84882,-3.13004 1.27324,-4.69506c1.00664,-0.61272 2.01327,-1.22544 3.0199,-1.83816c-0.17614,3.3762 -0.35156,6.75245 -0.52635,10.12874c-0.37437,-0.35735 -0.74874,-0.71469 -1.12311,-1.07203z"/><path d="M311.08993,216.29049c0.70925,0.46405 1.41852,0.92811 2.12778,1.39216c-0.07952,0.2047 -0.15906,0.40942 -0.23858,0.61412c-1.68935,1.14671 -3.37869,2.29342 -5.06804,3.44013c0.0291,-0.57338 0.0582,-1.14677 0.0873,-1.72015c0.09534,-1.87866 0.12779,-3.76387 0.15134,-5.64997c0.98007,0.64124 1.96014,1.28247 2.94021,1.92371z"/><path d="M328.66282,227.78803c0.08324,0.05446 0.16648,0.10893 0.24972,0.16339c-2.7276,0.73182 -5.4552,1.46363 -8.18281,2.19545c-2.60116,0.69789 -5.20233,1.39579 -7.80349,2.09368c0.32039,-0.82473 0.64079,-1.64944 0.96118,-2.47417c2.91197,-1.97662 5.82396,-3.95323 8.73593,-5.92984c2.01315,1.31716 4.02632,2.63432 6.03947,3.95149z"/><path d=""/><path d="M317.28968,248.18361c-3.34581,-0.44583 -6.69163,-0.89168 -10.03744,-1.33751c0.25338,-0.65223 0.50677,-1.30446 0.76015,-1.95669c3.4842,-0.97976 6.9684,-1.95953 10.4526,-2.9393c0.24721,0.23596 0.4944,0.47193 0.74161,0.70789c1.44673,1.38094 2.89344,2.76188 4.34017,4.14282c0.12466,0.119 1.37288,1.14548 1.37012,1.18039c-0.00565,0.07148 -1.00911,0.6648 -1.58131,1.00803c-2.0153,-0.26854 -4.0306,-0.53709 -6.0459,-0.80563z"/><path d="M275.95992,242.67633c0.60791,-0.16311 1.21582,-0.32621 1.82373,-0.48931c-0.30061,0.20405 -0.60122,0.40811 -0.90184,0.61216c-0.3073,-0.04095 -0.6146,-0.08189 -0.9219,-0.12284z"/><path d="M381.35414,77.14746c2.46855,2.1853 4.93711,4.37061 7.40566,6.55591c1.83466,2.30162 3.66934,4.60324 5.50401,6.90486c1.68129,2.1092 3.36257,4.2184 5.04385,6.3276c-1.70025,0.49649 -3.4005,0.99299 -5.10075,1.48948c-1.99971,0.58394 -3.99942,1.16789 -5.99913,1.75183c-1.52493,-0.00854 -3.04986,-0.01709 -4.57479,-0.02563c-0.13019,-0.00073 -0.26038,-0.00146 -0.39057,-0.00219c-0.21778,-0.54785 -0.43555,-1.0957 -0.65333,-1.64355c-0.4411,-7.1455 -0.88218,-14.29099 -1.32328,-21.43649c0.02944,0.02607 0.05888,0.05212 0.08832,0.07819z"/><path d="M374.53044,73.66426c0.2416,-0.62189 0.51605,-1.23563 0.80363,-1.8461c0.21089,0.18668 0.42176,0.37337 0.63265,0.56006c0.23064,3.73617 0.46127,7.47234 0.6919,11.20851c-1.0086,-2.5373 -2.0172,-5.0746 -3.0258,-7.61189c0.2992,-0.77019 0.59842,-1.54039 0.89762,-2.31057z"/><path d="M370.27671,67.3411c0.29496,0.26111 0.5899,0.52222 0.88486,0.78333c-0.09859,0.29704 -0.19646,0.59444 -0.29473,0.89164c-0.17102,-0.44368 -0.33705,-1.12539 -0.59013,-1.67497z"/><path d="M230.33918,244.22675c-2.59771,-3.77337 -11.1952,-11.9524 -9.06955,-16.74047c0.38022,0.45525 0.76031,0.91058 1.14026,1.36602c1.42539,1.70853 2.85076,3.41705 4.27615,5.12557c-0.08691,0.13734 -0.17382,0.27467 -0.26073,0.41201c-0.18319,0.28948 -1.23461,1.60873 -1.08473,1.92954c0.14988,0.32081 1.83639,0.36091 2.17596,0.40616c0.54823,0.07306 1.09645,0.1461 1.64468,0.21916c2.82772,3.38942 5.65544,6.77884 8.48316,10.16827c-1.43237,0.80865 -2.86473,1.61729 -4.29709,2.42594c-0.85245,-1.8518 -1.8505,-3.63066 -3.00813,-5.3122z"/><path d="M244.36761,238.97101c2.07797,0.27689 4.15592,0.55378 6.23389,0.83067c-0.73528,0.41362 -1.4709,0.82673 -2.20564,1.24152c-0.63273,0.35721 -1.26546,0.71442 -1.89819,1.07163c-0.89482,-1.07256 -1.78963,-2.14514 -2.68445,-3.2177c0.1848,0.02462 0.36959,0.04925 0.55438,0.07388z"/><path d="M235.63673,219.8337c-1.06633,1.68505 -2.13265,3.37009 -3.19898,5.05514c-0.16782,-0.07676 -0.33564,-0.15352 -0.50347,-0.23028c-0.61525,-0.73746 -1.23049,-1.47492 -1.84574,-2.21238c-0.14524,-0.17409 -0.2905,-0.34817 -0.43579,-0.52224c1.88111,-0.73254 3.92488,-1.42089 5.98397,-2.09023z"/><path d="M424.58425,85.07563c3.1221,-0.91169 6.24419,-1.82338 9.36628,-2.73507c0.04389,0.03414 0.08783,0.06826 0.13183,0.10237c-1.45215,4.32228 -2.90429,8.64455 -4.35645,12.96683c-0.53231,-0.00298 -1.06462,-0.00597 -1.59692,-0.00894c-0.78883,-0.44608 -1.57766,-0.89216 -2.36649,-1.33824c-3.04661,-1.72284 -6.09321,-3.44567 -9.13982,-5.16851c-0.58058,-0.32832 -1.16116,-0.65662 -1.74174,-0.98494c3.23444,-0.9445 6.46888,-1.88899 9.70331,-2.83349z"/><path d="M447.7638,95.51082c-0.37727,-0.00212 -0.75453,-0.00422 -1.1318,-0.00634c-2.12554,-0.01191 -4.25108,-0.02382 -6.37662,-0.03573c0.72544,-2.15926 1.45089,-4.31852 2.17633,-6.47778c2.23345,1.98497 4.149,4.10703 5.33209,6.51985z"/><path d="M412.80198,99.98688c2.62065,2.31995 5.24131,4.6399 7.86196,6.95986c1.33236,1.17948 2.66474,2.35898 3.9971,3.53846c-0.17314,0.51536 -0.34629,1.03072 -0.51943,1.54608c-0.49619,1.47688 -1.07414,2.93666 -1.66805,4.39326c-4.59555,-6.69352 -9.1911,-13.38703 -13.78665,-20.08055c1.37169,1.21429 2.74338,2.4286 4.11507,3.64289z"/><path d="M433.76721,118.54649c0.51432,0.4553 1.16728,1.26926 1.83706,1.60093c-1.24757,0.1097 -2.49512,0.21939 -3.74268,0.32908c0.31146,-0.93024 0.62192,-1.86083 0.9327,-2.7913c0.32431,0.28709 0.64861,0.57419 0.97292,0.86129z"/><path d="M248.64167,241.47861c0.92741,-0.52357 1.85624,-1.04447 2.784,-1.5671c0.86351,0.11506 1.72702,0.23013 2.59053,0.3452c0.25332,0.11587 0.50664,0.23173 0.75996,0.34759c-0.01995,0.02602 -0.0399,0.05204 -0.05984,0.07806c-1.51108,1.97143 -2.68604,4.24359 -4.34239,6.07872c-1.18354,-1.41863 -2.36707,-2.83727 -3.55061,-4.25591c0.60611,-0.34219 1.21224,-0.68437 1.81835,-1.02656z"/><path d="M239.5991,251.91429c-1.59446,0.4278 -3.18891,0.85558 -4.78336,1.28338c-0.37662,-1.0866 -0.7963,-2.15516 -1.2615,-3.20137c1.47194,-0.83099 2.94387,-1.66197 4.41581,-2.49296c1.02808,1.23229 2.05614,2.46458 3.08422,3.69688c-0.24734,0.15867 -0.48314,0.32836 -0.7035,0.51241c-0.25055,0.06723 -0.50111,0.13445 -0.75167,0.20167z"/><path d="M264.75011,245.16625c-0.35072,0.0941 -0.70144,0.1882 -1.05217,0.2823c0.1477,-0.18693 0.29531,-0.37393 0.44284,-0.561c0.20311,0.0929 0.40622,0.1858 0.60933,0.2787z"/><path d="M273.41454,242.84158c-0.36264,0.0973 -0.72527,0.19459 -1.08791,0.29189c-0.44925,-0.20548 -0.89851,-0.41097 -1.34776,-0.61645c0.81189,0.10818 1.62378,0.21638 2.43566,0.32456z"/><path d="M412.27208,172.64364c0.41438,0.00509 0.82876,0.01019 1.24314,0.01528c0.71709,1.80397 1.43419,3.60793 2.15129,5.4119c1.20481,3.0309 2.40963,6.06179 3.61444,9.09269c-0.60001,2.3213 -1.19619,4.64534 -1.79255,6.97025c-1.46817,-2.75428 -2.93634,-5.50856 -4.40451,-8.26284c-1.64638,-3.0886 -3.29275,-6.17719 -4.93914,-9.26579c-0.7176,-1.34622 -1.4352,-2.69244 -2.15281,-4.03866c2.09338,0.02572 4.18676,0.05145 6.28014,0.07717z"/><path d="M423.42382,197.58553c0.5318,1.33783 1.0636,2.67564 1.59539,4.01347c-1.0295,0.2895 -2.05901,0.579 -3.08851,0.8685c-0.32013,-0.60056 -0.64024,-1.2011 -0.96037,-1.80166c0.48268,-1.8733 0.9633,-3.74693 1.44396,-5.61991c0.3365,0.84653 0.67302,1.69307 1.00952,2.5396z"/><path d="M363.81985,283.92654c-0.18916,-1.99914 -0.37831,-3.99828 -0.56746,-5.99742c1.17573,-0.50646 2.35147,-1.01294 3.5272,-1.5194c3.21445,-1.38468 6.4289,-2.76934 9.64335,-4.15402c3.21445,-1.38468 6.4289,-2.76934 9.64335,-4.15402c3.13639,-1.35105 6.27278,-2.70209 9.40917,-4.05314c-0.21751,0.57211 -0.43477,1.14418 -0.65161,1.71625c-2.87322,1.90903 -5.74642,3.81807 -8.61964,5.7271c-2.91519,1.93692 -5.83038,3.87385 -8.74557,5.81077c-2.91519,1.93692 -5.83038,3.87385 -8.74557,5.81077c-1.22002,0.81061 -2.44004,1.62122 -3.66005,2.43183c-0.37628,-0.1721 -0.75257,-0.34422 -1.12885,-0.51632c-0.03477,-0.36746 -0.06954,-0.73492 -0.10431,-1.10237z"/><path d="M398.0969,78.99226c3.04661,1.72284 6.09322,3.44567 9.13983,5.16851c2.1223,1.20015 4.24461,2.40029 6.36692,3.60044c-3.00139,0.87645 -6.00277,1.75289 -9.00416,2.62933c-2.88847,-4.20712 -5.77694,-8.41424 -8.66541,-12.62135c0.72094,0.40769 1.44188,0.81538 2.16282,1.22306z"/><path d="M388.10992,77.08593c-1.45441,-1.82459 -2.90884,-3.64917 -4.36325,-5.47376c-0.24856,-0.31182 -0.54956,-0.80975 -0.88696,-1.23644c1.0534,0.59569 2.10679,1.19137 3.16018,1.78706c2.01149,2.92978 4.02299,5.85956 6.03448,8.78934c-0.83562,-0.73973 -1.67123,-1.47947 -2.50684,-2.2192c-0.14126,-0.12506 -0.28253,-0.25011 -0.4238,-0.37516c-0.33794,-0.42395 -0.67587,-0.84789 -1.0138,-1.27184z"/><path d="M360.67469,95.52288c-0.33436,0.86066 -0.6687,1.72133 -1.00306,2.582c-1.06842,-0.86662 -2.13424,-1.73489 -3.19662,-2.60552c1.39989,0.00785 2.79978,0.01568 4.19968,0.02353z"/><path d="M367.41021,101.25029c-0.93977,0.27442 -1.87952,0.54885 -2.81928,0.82327c-0.27875,-0.22395 -0.55741,-0.44794 -0.83597,-0.67198c0.52497,-1.35134 1.04994,-2.70266 1.57491,-4.054c0.69345,1.30091 1.38689,2.6018 2.08034,3.90271z"/><path d="M347.6694,107.01486c0.01103,-0.12023 0.02235,-0.24025 0.03399,-0.36003c0.21607,0.05355 0.43211,0.10716 0.64814,0.16084c-0.22737,0.06639 -0.45475,0.1328 -0.68213,0.19919z"/><path d="M425.30412,264.19167c-1.47971,3.17183 -2.95941,6.34364 -4.43912,9.51547c-0.76916,1.64874 -1.53833,3.29748 -2.30749,4.94621c-1.36083,-2.36935 -2.72166,-4.73871 -4.08249,-7.10806c-1.74316,-3.03503 -3.48631,-6.07006 -5.22947,-9.10509c-0.31074,-0.54102 -0.62147,-1.08206 -0.93221,-1.62309c0.86077,0.1147 1.72156,0.2294 2.58233,0.34411c3.46934,0.46229 6.93867,0.92459 10.40801,1.38689c1.49606,0.19936 2.99212,0.3987 4.48819,0.59806c-0.16258,0.3485 -0.32516,0.697 -0.48774,1.0455z"/><path d="M448.28213,105.30549c-0.13704,0.42162 -0.27421,0.84133 -0.41125,1.25923c-1.27624,-0.7217 -2.55248,-1.44341 -3.82871,-2.16511c-1.90121,-1.07512 -3.80243,-2.15024 -5.70364,-3.22537c0.58306,-1.73547 1.16613,-3.47094 1.74919,-5.20641c2.1805,0.01221 4.361,0.02443 6.54149,0.03665c0.45596,0.00256 0.91191,0.00511 1.36787,0.00767c1.1775,2.67369 1.45134,5.70518 0.28506,9.29336z"/><path d="M429.02204,95.90582c0.17874,0.001 0.35747,0.002 0.5362,0.00301c-0.02826,0.0841 -0.05651,0.16819 -0.08476,0.25229c-0.15048,-0.08509 -0.30096,-0.1702 -0.45144,-0.25529z"/><path d="M416.37656,89.32929c3.04661,1.72284 6.09322,3.44567 9.13983,5.16851c0.52889,0.29909 1.05779,0.59817 1.58668,0.89726c-0.49025,-0.00275 -0.98049,-0.00549 -1.47073,-0.00824c-3.49995,-0.01961 -6.99989,-0.03921 -10.49984,-0.05882c-2.29417,-0.01286 -4.58833,-0.02571 -6.8825,-0.03857c-0.24401,-0.21601 -0.48802,-0.43201 -0.73202,-0.64802c-0.45211,-0.65851 -0.90421,-1.31701 -1.35632,-1.97552c-0.42142,-0.61382 -0.84285,-1.22763 -1.26427,-1.84145c3.10456,-0.90658 6.20914,-1.81314 9.3137,-2.71971c0.72183,0.40819 1.44365,0.81637 2.16548,1.22456z"/><path d="M358.31216,84.18239c1.30498,2.44813 2.60996,4.89627 3.91494,7.34441c-0.45286,1.16572 -0.90573,2.33145 -1.35859,3.49717c-1.66904,-0.00935 -3.33807,-0.01871 -5.00711,-0.02806c-0.58972,-0.48442 -1.17833,-0.96961 -1.76568,-1.45569c-0.19802,-0.16388 -1.06793,-0.88612 -2.31141,-1.91663c1.43957,-2.87289 3.33803,-5.7523 5.84166,-8.72849c0.22873,0.4291 0.45746,0.85819 0.68619,1.28729z"/><path d="M344.33567,48.06382c-0.55912,0.88353 -1.11822,1.76707 -1.67734,2.6506c-0.95369,-1.13711 -1.71283,-2.30598 -2.15673,-3.71525c0.26734,-0.98582 0.53467,-1.97163 0.80201,-2.95744c1.71033,0.22803 3.42125,0.46104 5.12731,0.7111c-0.69842,1.10366 -1.39684,2.20734 -2.09526,3.311z"/><path d="M352.937,34.47169c-0.22733,0.35923 -0.45465,0.71846 -0.68198,1.07769c-0.32153,-0.05387 -0.64336,-0.10684 -0.96546,-0.15897c0.5505,-0.30608 1.09963,-0.61228 1.64744,-0.91871z"/><path d="M373.13036,95.59267c1.42363,0.00798 2.84724,0.01596 4.27087,0.02393c0.0549,0.88936 0.1098,1.77873 0.1647,2.66809c-1.17238,0.34235 -2.34476,0.6847 -3.51714,1.02705c-2.04943,0.59846 -4.09886,1.19691 -6.14829,1.79537c-0.77726,-1.45813 -1.55451,-2.91625 -2.33177,-4.37438c0.15278,-0.39329 0.30557,-0.78657 0.45836,-1.17986c2.36775,0.01327 4.73552,0.02653 7.10327,0.03979z"/><path d="M382.90237,95.64742c0.12809,0.32225 0.2562,0.6445 0.38429,0.96675c-0.26664,0.07786 -0.53328,0.15573 -0.79991,0.23359c-0.02476,-0.40103 -0.04951,-0.80205 -0.07427,-1.20307c0.1633,0.00092 0.32659,0.00182 0.48989,0.00274z"/><path d="M431.18112,217.10025c1.29289,3.25245 2.58577,6.50491 3.87865,9.75736c0.12504,0.31455 0.25007,0.62909 0.3751,0.94364c-0.86482,-1.62239 -1.72962,-3.24477 -2.59443,-4.86715c-1.64638,-3.0886 -3.29276,-6.17719 -4.93914,-9.26579c-0.38505,-0.72235 -0.77011,-1.44471 -1.15515,-2.16706c0.6624,-0.18626 1.32478,-0.37254 1.98718,-0.5588c0.81593,2.0526 1.63187,4.10521 2.44779,6.15781z"/><path d="M498.76155,286.51288c-0.89871,1.0011 -5.63055,1.14369 -10.53634,1.04031c1.46467,-1.26873 2.92933,-2.53746 4.394,-3.80619c1.10458,-0.95682 2.20917,-1.91364 3.31375,-2.87046c1.59832,1.54777 3.97932,4.35453 2.82859,5.63634z"/><path d="M394.65479,85.29658c-1.24088,-1.55671 -2.48176,-3.11342 -3.72265,-4.67013c0.76372,0.67609 1.52745,1.35218 2.29116,2.02827c1.39606,2.03339 2.79213,4.06679 4.18819,6.10018c-0.9189,-1.15278 -1.8378,-2.30555 -2.7567,-3.45833z"/><path d="M394.34706,93.90527c1.7658,-0.51564 3.5316,-1.03127 5.2974,-1.5469c0.38807,0.48684 0.77614,0.97368 1.16421,1.46052c0.19126,0.23994 0.38252,0.47988 0.57378,0.71981c0.16363,0.23834 0.32727,0.47667 0.4909,0.71501c-2.58017,-0.01445 -5.16035,-0.02891 -7.74052,-0.04337c-1.39162,-0.0078 -2.78325,-0.01559 -4.17487,-0.02339c1.46303,-0.42723 2.92606,-0.85445 4.3891,-1.28168z"/><path d=""/><path d="M383.63019,95.6515c0.96585,0.00541 1.93169,0.01083 2.89754,0.01624c-0.79996,0.2336 -1.59993,0.4672 -2.39989,0.70079c-0.1197,0.03495 -0.23939,0.0699 -0.35909,0.10486c-0.10904,-0.27432 -0.21809,-0.54863 -0.32713,-0.82294c0.06286,0.00035 0.12572,0.0007 0.18857,0.00105z"/></g><path d="M408.6346,29.31492c0.00802,14.10817 0.35536,28.12146 1.0436,42.21224c0.67906,13.90259 22.30694,18.21023 17.97206,35.61426c-3.56013,14.2935 -7.23487,26.38141 -3.28338,40.62175c3.83441,13.84927 4.40277,27.90114 4.40277,42.14776c0,13.02092 -2.60879,29.36896 0.67531,41.969c3.64973,14.20333 9.91269,25.06662 19.23901,36.4768c4.27265,5.22733 10.1111,8.6341 14.74776,13.49669c0.9248,0.96982 3.99442,4.90556 2.90072,6.4954c-1.37346,1.99655 -14.42974,0.57842 -16.92669,0.60456c-12.61833,0.0263 -27.40531,10.64869 -37.37457,17.44684c-2.68809,1.83304 -13.10935,6.81491 -11.02224,11.43897c0.52292,1.15853 2.62885,0.68965 3.42167,1.68315c0.79484,0.99604 -0.11469,2.93604 0.89193,3.71742c1.37286,1.0657 7.45056,0.79859 11.48331,1.01646l0.05195,-0.49703l1.99119,0.20808c0.51238,0.04699 0.91364,0.47791 0.91364,1.00252c0,0.27803 -0.11272,0.52974 -0.29491,0.71193l-1.42388,1.42376l-0.00008,0.00008c-0.94948,0.949 -1.89897,1.89795 -2.84845,2.84695c-10.17839,10.17304 -19.63178,19.30473 -28.67266,30.669c-2.27811,2.86338 -4.49565,5.60785 -6.72225,8.25213c-0.31936,0.21224 -0.5468,0.56936 -0.77815,0.91951c-0.23037,0.27083 -0.46093,0.54062 -0.69175,0.80937c-0.08803,0.06127 -0.18306,0.11138 -0.28722,0.14699c-1.05762,0.36154 -2.23807,-0.29678 -3.34875,-0.17157c-1.36572,0.15396 -2.63668,0.82614 -4,1c-4.93728,0.62964 -10.4022,-0.02528 -15.38908,0c-5.42225,-1.35557 -10.738,-1.01873 -16.30546,-1.01873c-0.3823,0 -8.10546,-0.0058 -8.30546,0.01873c-3.6232,0.44441 -6.785,1.4524 -10.5375,0.9748c-1.65591,-0.21076 -3.25108,-0.80218 -4.9107,-0.98136c-0.31155,-0.03364 -0.62642,-0.02689 -0.94241,-0.00324c2.83056,-6.3614 7.37757,-16.61259 5.35546,-20.06259c-0.4767,-0.81333 -4.67758,-1.11669 -5.49872,-1.97073c-2.78844,-2.90012 -1.26791,-5.26772 -5.15806,-7.70391c-11.18953,-7.00733 -26.87393,-12.85802 -36.50963,-21.50919c-3.6701,-3.32337 -12.17014,-5.36623 -14.68538,-9.59671c-2.81309,-4.73147 6.38779,-17.43187 7.24811,-22.94709c2.00576,-12.85806 1.70997,-29.10614 -4.41432,-40.71522c-2.08015,-3.94307 -9.18075,-12.69702 -6.67916,-17.36521c2.92062,-5.45011 16.07442,-8.12841 21.09049,-12.13418c11.03235,-8.81033 22.18576,-17.39965 33.48459,-25.86537c11.82349,-8.85886 20.22341,-17.89072 28.17922,-30.41207c6.80948,-10.71714 13.52302,-26.16289 13.52822,-38.583c0.00664,-15.81089 0.27823,-26.64978 9.9078,-39.83956c-3.22028,-7.02682 -4.68829,-15.27186 -8.43878,-22.00458c-3.7846,-6.79397 -7.90732,-8.14859 -6.80633,-16.61306c11.84535,-8.38486 22.69286,-16.26785 33.4669,-26.07719c6.42808,-5.85251 13.54102,-14.12689 17.7081,-22.49749c0.70069,-0.17206 1.40022,-0.33953 2.09859,-0.49824c3.39081,-0.77064 6.81988,-1.56749 10.27201,-2.33003c2.89396,11.02411 0.18103,27.06056 0.18155,37.47223z" fill="url(#color-1)" stroke="none" stroke-width="0.5"/><path d="M-9,368.5v-377h329.59111c-0.0076,0.19609 -0.02672,0.39221 -0.05943,0.58836c-0.4794,2.87447 -2.28219,5.36555 -3.2882,8.10056c-0.2518,0.68455 0.11612,1.71093 -0.47692,2.13556c-2.23382,1.59951 -4.98906,2.30506 -7.44491,3.53679c-2.97958,1.4944 -5.92364,3.05931 -8.85832,4.64007c-0.73839,0.39773 -1.34253,1.09759 -2.15795,1.29383c-4.33361,1.04292 -9.92798,-0.68162 -13.15638,2.3917c-1.98612,1.89071 2.54391,5.1417 2.36823,7.87823c-0.16676,2.59764 -2.30617,4.67028 -3.32751,7.06452c-1.30791,3.06602 -2.47128,6.19202 -3.65652,9.30751c-1.0192,2.67903 -1.20164,5.8084 -2.95636,8.07488c-4.01105,5.18087 -11.59443,6.58649 -15.96285,11.46982c-2.45797,2.74769 -3.72186,6.36509 -5.55843,9.56171c-6.70871,11.67679 -12.09654,23.96843 -17.80221,36.15782c-2.70361,5.77589 -4.37656,12.14099 -8.04198,17.35973c-3.66541,5.21873 -9.08525,8.95219 -13.60111,13.45523c-4.72075,4.70734 -9.55953,9.29919 -14.16224,14.12201c-1.24971,1.30947 -3.07098,2.35424 -3.56605,4.09534c-2.51588,8.84789 1.01794,11.55753 5.23821,19.07983c3.94275,7.02763 8.00206,14.00361 12,21c1.6538,2.89414 3.30665,5.78882 4.96139,8.68243c1.64705,2.88016 2.89388,6.03152 4.90825,8.66303c-3.0701,0.90372 -8.62281,2.78188 -9.0886,5.52897c-0.71639,4.22505 1.01788,8.51141 1.65704,12.74883c1.26662,8.39717 4.11092,16.64614 6.31313,24.8258c2.31088,8.52484 3.07563,17.11313 4.22915,25.86323c0.40403,3.06483 1.2932,6.09997 1.23936,9.19084c-0.031,1.77952 -3.0652,15.92803 -2.80342,17.93661c0.40431,3.1022 2.10276,5.91168 3.52457,8.69837c2.39394,4.69203 5.23428,9.16116 8.27303,13.46373c1.3572,1.92167 3.79813,3.27359 4.34515,5.56172c0.65659,2.74645 -0.83985,5.59272 -1.00452,8.41176c-0.00228,0.03897 -0.16052,20.04768 -0.15898,20.20162c0.01949,1.94854 -0.283,3.96295 -0.20595,5.90957z" fill="#090606" stroke="#000000" stroke-width="0"/><path d="M729,-8.5v377h-232.12139c0.23458,-1.42194 0.50751,-2.84317 0.64076,-4.27127c0.23046,-2.46988 -0.62007,-5.20878 0.49338,-7.42546c2.09461,-4.16997 8.19361,-5.53484 9.93308,-9.865c3.76772,-9.37921 0.78197,-10.78732 -3.70578,-19.46523c-1.52798,-2.95463 -2.78989,-6.08275 -4.71811,-8.79319c-0.42669,-0.59978 -2.30448,-0.05618 -2.07495,-0.75556c1.35435,-4.12657 5.85986,-6.83517 6.90129,-11.0516c0.49749,-2.0142 0.13231,-4.1477 0.15171,-6.22234c0.09655,-10.32433 0.91361,-18.12653 -3.98495,-27.71161c-0.18585,-0.36366 -11.39298,-16.25985 -11.85672,-16.91861c-3.83759,-5.45136 -7.23405,-11.24165 -11.51276,-16.35409c-1.36374,-1.62948 -5.0614,-2.21827 -4.69542,-4.31137c0.38543,-2.20432 4.05852,-1.90337 5.98202,-3.04693c0.33959,-0.20189 0.3481,-0.81423 0.72287,-0.93925c1.41968,-0.47361 3.61654,0.48423 4.42203,-0.77711c2.432,-3.80839 3.27273,-8.45696 4.28675,-12.86039c0.5886,-2.55602 -0.20642,-5.32329 0.48336,-7.85388c0.87067,-3.19426 3.23498,-5.84714 4.12073,-9.03725c0.77682,-2.79779 -0.10162,-5.91329 0.797,-8.67437c0.92351,-2.83755 3.04276,-5.13429 4.5377,-7.71687c2.84482,-4.91458 4.82292,-10.31164 6.60309,-15.70396c0.36058,-1.09223 0.94071,-2.14664 1.02974,-3.29339c1.70537,-21.9646 -0.68686,-44.29341 -2.67204,-66.13039c-0.47163,-4.71762 -2.19027,-9.23824 -3.68225,-13.7385c-1.9674,-5.93422 -3.58803,-11.99747 -5.93929,-17.79033c-2.27479,-5.60446 -6.37609,-10.50535 -7.79868,-16.3842c-0.081,-0.33474 -0.63471,-15.38422 -1.17896,-16.55896c-1.61273,-3.48101 -4.59853,-6.14431 -7.00681,-9.13071c-0.248,-0.30753 -0.91069,-0.32883 -0.93925,-0.72287c-0.32525,-4.48641 1.55532,-9.22133 0.1481,-13.49373c-1.16268,-3.52997 -3.20417,-6.70742 -4.86624,-10.03158c-0.68083,-1.36166 -1.05777,-2.9746 -2.16124,-4.0234c-2.15552,-2.04871 -5.98491,-2.39901 -7.36662,-5.03233c-0.15531,-0.296 -0.26172,-0.60135 -0.32925,-0.91429z" fill="#090606" stroke="#000000" stroke-width="0"/><g stroke-width="0"><g stroke="#000000"><path d="M-2.61263,368.37139v-372.37237h725.22523v372.37237z" fill="url(#color-2)"/><path d="M-2.61262,368.37139v-372.37237h725.22523v372.37237z" fill="url(#color-3)"/></g><g stroke="none"><path d="M-24.94567,376.25323v-390.39039h164.3114v390.39039z" fill="url(#color-4)"/><path d="M583.02193,373.00998v-390.39039h164.3114v390.39039z" fill="url(#color-5)"/><path d="M-26.30555,110.48747v-127.62762h773.13267v127.62763z" fill="url(#color-6)"/><path d="M745.79934,249.75278v127.62762h-773.13267v-127.62762z" fill="url(#color-7)"/></g></g></g></g></svg>