<svg version="1.1" xmlns="http://www.w3.org/2000/svg" xmlns:xlink="http://www.w3.org/1999/xlink" width="76.33333" height="101" viewBox="0,0,76.33333,101"><defs><linearGradient x1="356.26251" y1="175.1229" x2="353.34416" y2="187.18458" gradientUnits="userSpaceOnUse" id="color-1"><stop offset="0" stop-color="#000000" stop-opacity="0"/><stop offset="1" stop-color="#000000"/></linearGradient><radialGradient cx="343.32268" cy="180.19234" r="1.2663" gradientUnits="userSpaceOnUse" id="color-2"><stop offset="0" stop-color="#613a2f"/><stop offset="1" stop-color="#613a2f" stop-opacity="0"/></radialGradient><radialGradient cx="348.00086" cy="176.12267" r="1.06369" gradientUnits="userSpaceOnUse" id="color-3"><stop offset="0" stop-color="#613a2f"/><stop offset="1" stop-color="#613a2f" stop-opacity="0"/></radialGradient><radialGradient cx="345.31059" cy="177.15892" r="0.99721" gradientUnits="userSpaceOnUse" id="color-4"><stop offset="0" stop-color="#613a2f"/><stop offset="1" stop-color="#613a2f" stop-opacity="0"/></radialGradient><radialGradient cx="343.80563" cy="178.57316" r="0.46536" gradientUnits="userSpaceOnUse" id="color-5"><stop offset="0" stop-color="#613a2f"/><stop offset="1" stop-color="#613a2f" stop-opacity="0"/></radialGradient><radialGradient cx="344.13672" cy="177.58169" r="0.26592" gradientUnits="userSpaceOnUse" id="color-6"><stop offset="0" stop-color="#613a2f"/><stop offset="1" stop-color="#613a2f" stop-opacity="0"/></radialGradient><radialGradient cx="347.78977" cy="190.09335" r="0.62048" gradientUnits="userSpaceOnUse" id="color-7"><stop offset="0" stop-color="#613a2f"/><stop offset="1" stop-color="#613a2f" stop-opacity="0"/></radialGradient><radialGradient cx="347.30028" cy="190.04331" r="0.77561" gradientUnits="userSpaceOnUse" id="color-8"><stop offset="0" stop-color="#613a2f"/><stop offset="1" stop-color="#613a2f" stop-opacity="0"/></radialGradient><radialGradient cx="346.6062" cy="189.237" r="0.55401" gradientUnits="userSpaceOnUse" id="color-9"><stop offset="0" stop-color="#613a2f"/><stop offset="1" stop-color="#613a2f" stop-opacity="0"/></radialGradient><radialGradient cx="348.4955" cy="190.67449" r="0.70913" gradientUnits="userSpaceOnUse" id="color-10"><stop offset="0" stop-color="#613a2f"/><stop offset="1" stop-color="#613a2f" stop-opacity="0"/></radialGradient><radialGradient cx="346.43284" cy="189.76504" r="0.35456" gradientUnits="userSpaceOnUse" id="color-11"><stop offset="0" stop-color="#613a2f"/><stop offset="1" stop-color="#613a2f" stop-opacity="0"/></radialGradient><radialGradient cx="346.10143" cy="188.59046" r="0.15512" gradientUnits="userSpaceOnUse" id="color-12"><stop offset="0" stop-color="#613a2f"/><stop offset="1" stop-color="#613a2f" stop-opacity="0"/></radialGradient><radialGradient cx="349.24777" cy="191.7001" r="0.15512" gradientUnits="userSpaceOnUse" id="color-13"><stop offset="0" stop-color="#613a2f"/><stop offset="1" stop-color="#613a2f" stop-opacity="0"/></radialGradient><radialGradient cx="365.21199" cy="185.46245" r="0.75345" gradientUnits="userSpaceOnUse" id="color-14"><stop offset="0" stop-color="#613a2f"/><stop offset="1" stop-color="#613a2f" stop-opacity="0"/></radialGradient><radialGradient cx="364.44977" cy="187.01081" r="0.93073" gradientUnits="userSpaceOnUse" id="color-15"><stop offset="0" stop-color="#613a2f"/><stop offset="1" stop-color="#613a2f" stop-opacity="0"/></radialGradient><radialGradient cx="364.69088" cy="186.20275" r="0.79777" gradientUnits="userSpaceOnUse" id="color-16"><stop offset="0" stop-color="#613a2f"/><stop offset="1" stop-color="#613a2f" stop-opacity="0"/></radialGradient><radialGradient cx="363.80671" cy="187.97239" r="0.37672" gradientUnits="userSpaceOnUse" id="color-17"><stop offset="0" stop-color="#613a2f"/><stop offset="1" stop-color="#613a2f" stop-opacity="0"/></radialGradient><radialGradient cx="363.912" cy="186.97188" r="0.19944" gradientUnits="userSpaceOnUse" id="color-18"><stop offset="0" stop-color="#613a2f"/><stop offset="1" stop-color="#613a2f" stop-opacity="0"/></radialGradient><radialGradient cx="364.60434" cy="188.25658" r="0.1108" gradientUnits="userSpaceOnUse" id="color-19"><stop offset="0" stop-color="#613a2f"/><stop offset="1" stop-color="#613a2f" stop-opacity="0"/></radialGradient><radialGradient cx="358.29064" cy="192.01846" r="0.17728" gradientUnits="userSpaceOnUse" id="color-20"><stop offset="0" stop-color="#613a2f"/><stop offset="1" stop-color="#613a2f" stop-opacity="0"/></radialGradient><radialGradient cx="359.01115" cy="192.056" r="0.13296" gradientUnits="userSpaceOnUse" id="color-21"><stop offset="0" stop-color="#613a2f"/><stop offset="1" stop-color="#613a2f" stop-opacity="0"/></radialGradient><linearGradient x1="342.03" y1="182.27865" x2="346.2" y2="183.28759" gradientUnits="userSpaceOnUse" id="color-22"><stop offset="0" stop-color="#603b2f" stop-opacity="0"/><stop offset="1" stop-color="#603b2f"/></linearGradient><linearGradient x1="361.82372" y1="186.53542" x2="365.58333" y2="187.44506" gradientUnits="userSpaceOnUse" id="color-23"><stop offset="0" stop-color="#603b2f"/><stop offset="1" stop-color="#603b2f" stop-opacity="0"/></linearGradient><radialGradient cx="362.41907" cy="185.63862" r="0.76553" gradientUnits="userSpaceOnUse" id="color-24"><stop offset="0" stop-color="#000000" stop-opacity="0"/><stop offset="1" stop-color="#000000"/></radialGradient><radialGradient cx="345.83964" cy="181.73738" r="0.76553" gradientUnits="userSpaceOnUse" id="color-25"><stop offset="0" stop-color="#000000" stop-opacity="0"/><stop offset="1" stop-color="#000000"/></radialGradient><linearGradient x1="377.80129" y1="144.51186" x2="372.3917" y2="166.8699" gradientUnits="userSpaceOnUse" id="color-26"><stop offset="0" stop-color="#2f1c17"/><stop offset="1" stop-color="#35201a"/></linearGradient><linearGradient x1="350.43173" y1="137.88973" x2="345.02215" y2="160.24778" gradientUnits="userSpaceOnUse" id="color-27"><stop offset="0" stop-color="#2f1c17"/><stop offset="1" stop-color="#35201a"/></linearGradient><radialGradient cx="348.23878" cy="160.9313" r="2.80353" gradientUnits="userSpaceOnUse" id="color-28"><stop offset="0" stop-color="#d27e67"/><stop offset="1" stop-color="#bf735e"/></radialGradient><radialGradient cx="369.41243" cy="166.2823" r="2.80353" gradientUnits="userSpaceOnUse" id="color-29"><stop offset="0" stop-color="#d27e67"/><stop offset="1" stop-color="#bf735e"/></radialGradient><radialGradient cx="352.47486" cy="169.09196" r="5.33558" gradientUnits="userSpaceOnUse" id="color-30"><stop offset="0" stop-color="#000000" stop-opacity="0"/><stop offset="1" stop-color="#000000"/></radialGradient><radialGradient cx="361.81832" cy="171.26415" r="5.33558" gradientUnits="userSpaceOnUse" id="color-31"><stop offset="0" stop-color="#000000" stop-opacity="0"/><stop offset="1" stop-color="#000000"/></radialGradient><radialGradient cx="354.83679" cy="179.17376" r="7.63046" gradientUnits="userSpaceOnUse" id="color-32"><stop offset="0" stop-color="#724538"/><stop offset="1" stop-color="#683f33"/></radialGradient><radialGradient cx="350.97259" cy="177.88093" r="1.30745" gradientUnits="userSpaceOnUse" id="color-33"><stop offset="0" stop-color="#613a2f"/><stop offset="1" stop-color="#613a2f" stop-opacity="0"/></radialGradient><radialGradient cx="352.15446" cy="176.38851" r="0.90857" gradientUnits="userSpaceOnUse" id="color-34"><stop offset="0" stop-color="#613a2f"/><stop offset="1" stop-color="#613a2f" stop-opacity="0"/></radialGradient><radialGradient cx="350.2785" cy="177.07459" r="0.79777" gradientUnits="userSpaceOnUse" id="color-35"><stop offset="0" stop-color="#613a2f"/><stop offset="1" stop-color="#613a2f" stop-opacity="0"/></radialGradient><radialGradient cx="351.28667" cy="176.77134" r="0.86425" gradientUnits="userSpaceOnUse" id="color-36"><stop offset="0" stop-color="#613a2f"/><stop offset="1" stop-color="#613a2f" stop-opacity="0"/></radialGradient><radialGradient cx="352.84715" cy="178.42568" r="0.28808" gradientUnits="userSpaceOnUse" id="color-37"><stop offset="0" stop-color="#613a2f"/><stop offset="1" stop-color="#613a2f" stop-opacity="0"/></radialGradient><radialGradient cx="350.04016" cy="178.2481" r="0.08864" gradientUnits="userSpaceOnUse" id="color-38"><stop offset="0" stop-color="#613a2f"/><stop offset="1" stop-color="#613a2f" stop-opacity="0"/></radialGradient><radialGradient cx="349.81786" cy="175.86877" r="0.1108" gradientUnits="userSpaceOnUse" id="color-39"><stop offset="0" stop-color="#613a2f"/><stop offset="1" stop-color="#613a2f" stop-opacity="0"/></radialGradient><radialGradient cx="363.12852" cy="176.92335" r="0.48752" gradientUnits="userSpaceOnUse" id="color-40"><stop offset="0" stop-color="#613a2f"/><stop offset="1" stop-color="#613a2f" stop-opacity="0"/></radialGradient><radialGradient cx="365.20281" cy="178.9984" r="0.1108" gradientUnits="userSpaceOnUse" id="color-41"><stop offset="0" stop-color="#613a2f"/><stop offset="1" stop-color="#613a2f" stop-opacity="0"/></radialGradient><radialGradient cx="365.25672" cy="175.4775" r="0.31024" gradientUnits="userSpaceOnUse" id="color-42"><stop offset="0" stop-color="#613a2f"/><stop offset="1" stop-color="#613a2f" stop-opacity="0"/></radialGradient><radialGradient cx="357.92225" cy="163.48109" r="1.08339" gradientUnits="userSpaceOnUse" id="color-43"><stop offset="0" stop-color="#3c3148"/><stop offset="1" stop-color="#3c3148" stop-opacity="0"/></radialGradient><radialGradient cx="356.71905" cy="163.11398" r="0.73867" gradientUnits="userSpaceOnUse" id="color-44"><stop offset="0" stop-color="#613a2f"/><stop offset="1" stop-color="#613a2f" stop-opacity="0"/></radialGradient><radialGradient cx="355.80463" cy="163.0194" r="0.88641" gradientUnits="userSpaceOnUse" id="color-45"><stop offset="0" stop-color="#413347"/><stop offset="1" stop-color="#413347" stop-opacity="0"/></radialGradient><radialGradient cx="357.47945" cy="164.15928" r="0.68943" gradientUnits="userSpaceOnUse" id="color-46"><stop offset="0" stop-color="#3b3148"/><stop offset="1" stop-color="#3b3148" stop-opacity="0"/></radialGradient><radialGradient cx="356.1516" cy="163.88867" r="0.39396" gradientUnits="userSpaceOnUse" id="color-47"><stop offset="0" stop-color="#3b3149"/><stop offset="1" stop-color="#3b3149" stop-opacity="0"/></radialGradient><radialGradient cx="359.02583" cy="163.31744" r="0.34471" gradientUnits="userSpaceOnUse" id="color-48"><stop offset="0" stop-color="#613a2f"/><stop offset="1" stop-color="#613a2f" stop-opacity="0"/></radialGradient><radialGradient cx="357.03132" cy="162.55621" r="0.36933" gradientUnits="userSpaceOnUse" id="color-49"><stop offset="0" stop-color="#433346"/><stop offset="1" stop-color="#433346" stop-opacity="0"/></radialGradient><radialGradient cx="358.61317" cy="164.81357" r="0.19698" gradientUnits="userSpaceOnUse" id="color-50"><stop offset="0" stop-color="#613a2f"/><stop offset="1" stop-color="#613a2f" stop-opacity="0"/></radialGradient><radialGradient cx="359.94372" cy="164.65418" r="0.14773" gradientUnits="userSpaceOnUse" id="color-51"><stop offset="0" stop-color="#613a2f"/><stop offset="1" stop-color="#613a2f" stop-opacity="0"/></radialGradient><radialGradient cx="353.77311" cy="162.09721" r="0.12311" gradientUnits="userSpaceOnUse" id="color-52"><stop offset="0" stop-color="#613a2f"/><stop offset="1" stop-color="#613a2f" stop-opacity="0"/></radialGradient><radialGradient cx="347.08942" cy="169.8279" r="0.81254" gradientUnits="userSpaceOnUse" id="color-53"><stop offset="0" stop-color="#613a2f"/><stop offset="1" stop-color="#613a2f" stop-opacity="0"/></radialGradient><radialGradient cx="347.30711" cy="168.61394" r="0.64018" gradientUnits="userSpaceOnUse" id="color-54"><stop offset="0" stop-color="#613a2f"/><stop offset="1" stop-color="#613a2f" stop-opacity="0"/></radialGradient><radialGradient cx="346.58878" cy="169.17478" r="0.64018" gradientUnits="userSpaceOnUse" id="color-55"><stop offset="0" stop-color="#613a2f"/><stop offset="1" stop-color="#613a2f" stop-opacity="0"/></radialGradient><radialGradient cx="346.35213" cy="170.2575" r="0.54169" gradientUnits="userSpaceOnUse" id="color-56"><stop offset="0" stop-color="#613a2f"/><stop offset="1" stop-color="#613a2f" stop-opacity="0"/></radialGradient><radialGradient cx="346.76673" cy="168.22986" r="0.17236" gradientUnits="userSpaceOnUse" id="color-57"><stop offset="0" stop-color="#613a2f"/><stop offset="1" stop-color="#613a2f" stop-opacity="0"/></radialGradient><radialGradient cx="347.89576" cy="169.84566" r="0.29547" gradientUnits="userSpaceOnUse" id="color-58"><stop offset="0" stop-color="#613a2f"/><stop offset="1" stop-color="#613a2f" stop-opacity="0"/></radialGradient><radialGradient cx="343.95806" cy="177.43013" r="0.73867" gradientUnits="userSpaceOnUse" id="color-59"><stop offset="0" stop-color="#613a2f"/><stop offset="1" stop-color="#613a2f" stop-opacity="0"/></radialGradient><radialGradient cx="344.15494" cy="176.61644" r="0.51707" gradientUnits="userSpaceOnUse" id="color-60"><stop offset="0" stop-color="#613a2f"/><stop offset="1" stop-color="#613a2f" stop-opacity="0"/></radialGradient><linearGradient x1="362.18921" y1="151.21189" x2="359.3521" y2="162.93782" gradientUnits="userSpaceOnUse" id="color-61"><stop offset="0" stop-color="#0a0a0a"/><stop offset="1" stop-color="#090909"/></linearGradient><radialGradient cx="354.58148" cy="174.66324" r="0.49537" gradientUnits="userSpaceOnUse" id="color-62"><stop offset="0" stop-color="#ffffff"/><stop offset="1" stop-color="#ffffff" stop-opacity="0"/></radialGradient></defs><g transform="translate(-321.83333,-129.5)"><g data-paper-data="{&quot;isPaintingLayer&quot;:true}" fill-rule="nonzero" stroke-linejoin="miter" stroke-miterlimit="10" stroke-dasharray="" stroke-dashoffset="0" style="mix-blend-mode: normal"><path d="M321.83333,230.5v-101h76.33333v101z" fill="#273042" stroke="none" stroke-width="0" stroke-linecap="butt"/><path d="M329.75471,196.83333v-61.66667h60.49068v61.66667z" fill="#0b0e13" stroke="none" stroke-width="0" stroke-linecap="butt"/><path d="M343.08352,227.33333v-17.33333h33.83333v17.33333z" fill="#0b0e13" stroke="#000000" stroke-width="0" stroke-linecap="butt"/><path d="M342.99998,209.125v-11.25h34.25v11.25z" fill="#273042" stroke="#000000" stroke-width="0" stroke-linecap="butt"/><text transform="translate(345.44343,222.26211) scale(0.29962,0.29962)" font-size="40" xml:space="preserve" fill="#c79e44" fill-rule="nonzero" stroke="none" stroke-width="1" stroke-linecap="butt" stroke-linejoin="miter" stroke-miterlimit="10" stroke-dasharray="" stroke-dashoffset="0" font-family="&quot;Agency FB&quot;, Sans Serif" font-weight="normal" text-anchor="start" style="mix-blend-mode: normal"><tspan x="0" dy="0">MEDIUM</tspan></text><path d="" fill="#f2aa58" stroke="none" stroke-width="0.5" stroke-linecap="butt"/><g><path d="M362.4962,186.03859c-0.66197,2.73597 -4.98357,4.03812 -9.65255,2.90845c-4.66898,-1.12967 -7.91731,-4.26339 -7.25533,-6.99935c0.66197,-2.73597 4.98357,-4.03812 9.65255,-2.90845c4.66898,1.12967 7.91731,4.26339 7.25533,6.99935z" fill="#40261f" stroke="#291814" stroke-width="1" stroke-linecap="butt"/><g><g><g stroke="#292929" stroke-width="0.5"><path d="M347.37854,187.83424c-0.19447,-0.10291 -0.11226,-1.24952 -0.11226,-1.24952l4.13045,-7.80479c0,0 0.97954,-0.85963 1.174,-0.75672c0.21886,0.11583 0.07463,1.41753 0.07463,1.41753l-4.13044,7.80479c0,0 -0.91752,0.70455 -1.13638,0.58872z" fill="#686868" stroke-linecap="butt"/><path d="M347.25224,186.65167l1.17356,0.4958" fill="none" stroke-linecap="round"/><path d="M352.46398,179.3878l-1.01493,-0.53712" fill="none" stroke-linecap="round"/><path d="M350.91345,182.57605l-1.51021,0.14033" fill="none" stroke-linecap="round"/><path d="M351.04932,180.76883c0.0885,0.04683 0.13127,0.13958 0.09551,0.20714c-0.03576,0.06756 -0.13648,0.08436 -0.22499,0.03752c-0.08851,-0.04684 -0.13128,-0.13958 -0.09552,-0.20715c0.03575,-0.06756 0.13649,-0.08436 0.225,-0.03752z" fill="#686868" stroke-linecap="butt"/><path d="M349.05695,184.66279c0.08851,0.04684 0.13127,0.13958 0.09551,0.20715c-0.03576,0.06756 -0.13649,0.08436 -0.22499,0.03752c-0.08851,-0.04684 -0.13127,-0.13958 -0.09551,-0.20714c0.03575,-0.06756 0.13649,-0.08436 0.22499,-0.03752z" fill="#686868" stroke-linecap="butt"/></g><g stroke="#292929"><path d="M352.76658,183.98498l0.24899,-1.02907c0,0 0.3525,-0.26937 1.06227,-0.09764c0.7892,0.19095 1.0916,0.61877 1.0916,0.61877l-0.24899,1.02907z" fill="#484848" stroke-width="0.5" stroke-linecap="butt"/><g stroke-width="0.5"><path d="M352.54385,189.65703c-0.24097,-0.05702 -0.46722,-1.19149 -0.46722,-1.19149l2.03328,-8.59309c0,0 0.74891,-1.0744 0.98988,-1.01739c0.2141,0.05066 0.38487,1.34268 0.38487,1.34268l-2.03328,8.59309c0,0 -0.69343,0.91686 -0.90753,0.8662z" fill="#686868" stroke-linecap="butt"/><path d="M353.41785,188.85047l-1.20957,-0.39999" fill="none" stroke-linecap="round"/><path d="M354.28125,179.95212l1.11744,0.26441" fill="none" stroke-linecap="round"/><path d="M353.34777,183.3723l1.04384,1.10036" fill="none" stroke-linecap="round"/><path d="M354.43595,181.92304c0.09744,0.02305 0.16217,0.10205 0.14457,0.17644c-0.0176,0.07439 -0.11087,0.11599 -0.20831,0.09294c-0.09744,-0.02306 -0.16216,-0.10205 -0.14456,-0.17643c0.0176,-0.07439 0.11086,-0.116 0.20831,-0.09294z" fill="#686868" stroke-linecap="butt"/><path d="M353.37006,186.16526c0.09744,0.02305 0.16217,0.10205 0.14457,0.17643c-0.0176,0.07439 -0.11086,0.116 -0.20831,0.09294c-0.09744,-0.02305 -0.16217,-0.10205 -0.14456,-0.17643c0.0176,-0.07439 0.11086,-0.116 0.20831,-0.09294z" fill="#686868" stroke-linecap="butt"/></g><path d="M353.03258,183.61868l0.05405,-0.74691c0,0 0.38116,0.21888 0.92832,0.35127c0.45536,0.11018 1.10588,0.14091 1.10588,0.14091l-0.29337,0.68901z" fill="#575757" stroke-width="0.25" stroke-linecap="butt"/><path d="M352.53245,184.87584l0.46158,-1.90771c0,0 0.28909,0.35552 0.91935,0.50801c0.71069,0.17195 1.26964,0.02162 1.26964,0.02162l-0.48551,1.90192c0,0 -0.87237,-0.08671 -1.24802,-0.1776c-0.34308,-0.08301 -0.91704,-0.34624 -0.91704,-0.34624z" fill="#4c4c4c" stroke-width="0.5" stroke-linecap="butt"/></g><g stroke="#292929" stroke-width="0.5"><path d="M358.11225,189.56998c-0.24761,0.00296 -0.74156,-1.04309 -0.74156,-1.04309l-0.10568,-8.82973c0,0 0.46678,-1.22366 0.71439,-1.22662c0.22,-0.00264 0.69822,1.20971 0.69822,1.20971l0.10569,8.82973c0,0 -0.45105,1.05737 -0.67106,1.06z" fill="#686868" stroke-linecap="butt"/><path d="M357.49479,188.48041l1.27041,0.09553" fill="none" stroke-linecap="round"/><path d="M357.45054,179.733l1.14821,-0.01374" fill="none" stroke-linecap="round"/><path d="M358.6511,184.0926l-1.27902,-0.81519" fill="none" stroke-linecap="round"/><path d="M358.07739,181.60796c0.10013,-0.0012 0.18205,0.05979 0.18296,0.13623c0.00092,0.07643 -0.07952,0.13937 -0.17965,0.14057c-0.10013,0.00119 -0.18203,-0.0598 -0.18295,-0.13622c-0.00092,-0.07643 0.07951,-0.13937 0.17964,-0.14057z" fill="#686868" stroke-linecap="butt"/><path d="M358.0693,185.98203c0.10013,-0.0012 0.18204,0.0598 0.18295,0.13622c0.00092,0.07643 -0.07951,0.13937 -0.17964,0.14057c-0.10013,0.0012 -0.18204,-0.05979 -0.18295,-0.13622c-0.00092,-0.07643 0.07951,-0.13937 0.17964,-0.14057z" fill="#686868" stroke-linecap="butt"/></g><path d="M346.75942,185.59138l2.91835,-12.06167l13.16938,3.18636l-2.91835,12.06167z" fill="url(#color-1)" stroke="none" stroke-width="0" stroke-linecap="butt"/><g><g><g><g><g stroke="#291814" stroke-width="1" stroke-linecap="butt"><path d="M366.39575,185.15366c-0.49766,1.9923 -1.94376,4.29532 -4.0811,6.02445c-2.47546,2.00268 -5.92018,3.22534 -10.56312,2.14153c-0.60129,-0.14035 -0.41151,0.58996 -0.95018,0.39341c-0.2671,-0.09746 -1.28591,-1.10173 -1.53795,-1.21189c-0.2624,-0.11469 -0.07799,0.91235 -0.3243,0.78472c-0.33218,-0.17213 -1.08855,-1.50407 -1.39203,-1.69796c-1.37947,-0.88137 -2.46561,-1.97705 -3.28734,-3.19086c-2.08836,-3.08481 -2.20788,-6.7554 -1.83586,-8.74591c3.13263,-14.00315 26.87876,-6.1349 23.97186,5.50253zM352.87676,187.94463c1.73597,0.42002 8.80695,-0.59146 9.22697,-2.32743c0.40294,-1.66537 -3.64744,-5.59442 -8.6872,-6.81381c-4.3218,-1.04567 -6.74777,2.76038 -7.15071,4.42576c-0.40294,1.66537 4.94557,4.31254 6.61094,4.71548z" fill="#724538"/><path d="M364.44749,183.72639c-0.55058,2.27559 -1.65112,5.4892 -4.75608,6.92924c-1.72036,0.79787 -3.98143,1.06934 -7.28261,0.29218c-3.90333,-0.91898 -5.91317,-2.68911 -6.97441,-4.64938c-1.38681,-2.56165 -1.0775,-5.42957 -0.48461,-6.9603c0.31363,-0.87627 2.52337,-2.69931 9.7132,-0.84132c8.39858,1.97425 9.95853,4.51034 9.78451,5.22958zM352.79803,187.0136c2.71053,0.62006 6.67438,1.12824 7.34985,-1.79362c0.67547,-2.92186 -2.67969,-4.54319 -5.71927,-5.25972c-3.03959,-0.71654 -5.88685,-0.28839 -6.50336,2.37843c-0.61651,2.66682 2.16225,4.05486 4.87278,4.67492z" fill="#4d2e26"/></g><g><path d="M345.60213,182.96774c0,0 0.27552,0.06161 0.39293,0.04821c0.1668,-0.01905 0.26602,0.06738 0.3479,0.22182c0.26642,0.50247 0.95218,1.76895 2.17689,2.89626c1.06638,0.98158 2.94518,2.05967 4.46196,2.36137c1.58964,0.33024 3.38384,0.30537 4.8877,-0.06825c1.68046,-0.41749 2.90856,-1.2252 3.38623,-1.57604c0.16322,-0.11988 0.3085,-0.12014 0.47757,-0.02657c0.10819,0.05988 0.35161,0.1946 0.35161,0.1946c0,0 -1.06743,0.97788 -2.79993,1.68967c-1.74156,0.71551 -4.15439,1.16351 -6.53977,0.61019c-5.26057,-1.22025 -7.14308,-6.35124 -7.14308,-6.35124z" fill="#a5a5a5" stroke="#585858" stroke-width="0.5" stroke-linecap="butt"/><path d="M345.41886,183.47817c0,0 0.01938,-0.08011 0.08437,-0.34872c0.05547,-0.22925 0.25259,-0.17252 0.33668,0.03953c0.2813,0.70933 0.89382,1.94762 2.06874,3.11691c1.09042,1.0852 2.85933,2.0763 4.73054,2.63122c2.15136,0.49632 4.30619,0.3602 5.87212,-0.12541c1.49555,-0.46378 2.56287,-1.18606 3.1526,-1.66205c0.19164,-0.15468 0.47602,-0.23785 0.41592,0.01054c-0.06579,0.27189 -0.09926,0.41026 -0.09926,0.41026c0,0 -0.60742,1.37913 -2.3566,2.17629c-1.63916,0.74702 -4.31465,0.94308 -7.45829,0.16823c-2.28343,-0.56283 -4.21142,-1.79592 -5.23262,-2.95959c-1.53343,-1.74736 -1.51419,-3.45721 -1.51419,-3.45721z" fill="#e8e8e8" stroke="#585858" stroke-width="0.5" stroke-linecap="butt"/><path d="M346.17409,185.41973l0.13019,-0.62716" fill="none" stroke="#a3a3a3" stroke-width="0.35" stroke-linecap="round"/><path d="M347.40486,187.03713l0.13018,-0.62716" fill="none" stroke="#a3a3a3" stroke-width="0.35" stroke-linecap="round"/><path d="M349.05746,188.31441l0.13018,-0.62716" fill="none" stroke="#a3a3a3" stroke-width="0.35" stroke-linecap="round"/><path d="M351.13143,188.69646l-0.13018,0.62716" fill="none" stroke="#a3a3a3" stroke-width="0.35" stroke-linecap="round"/><path d="M353.50025,189.3525l-0.13018,0.62716" fill="none" stroke="#a3a3a3" stroke-width="0.35" stroke-linecap="round"/><path d="M356.06347,189.5167l-0.13018,0.62716" fill="none" stroke="#a3a3a3" stroke-width="0.35" stroke-linecap="round"/><path d="M358.18109,189.89664l0.13019,-0.62716" fill="none" stroke="#a3a3a3" stroke-width="0.35" stroke-linecap="round"/><path d="M360.54039,188.31994l-0.13018,0.62716" fill="none" stroke="#a3a3a3" stroke-width="0.35" stroke-linecap="round"/></g></g><path d="M344.18422,180.40079c-0.16447,0.67974 -0.68352,1.13746 -1.15934,1.02233c-0.47582,-0.11513 -0.72822,-0.7595 -0.56376,-1.43924c0.16447,-0.67974 0.68352,-1.13746 1.15934,-1.02233c0.47582,0.11513 0.72822,0.7595 0.56376,1.43924z" fill="url(#color-2)" stroke="none" stroke-width="0" stroke-linecap="butt"/><path d="M349.03473,176.37282c-0.13527,0.55909 -0.70781,0.90032 -1.27879,0.76217c-0.57099,-0.13815 -0.9242,-0.70337 -0.78892,-1.26246c0.13527,-0.55909 0.7078,-0.90032 1.27879,-0.76217c0.57099,0.13815 0.9242,0.70337 0.78892,1.26246z" fill="url(#color-3)" stroke="none" stroke-width="0" stroke-linecap="butt"/><path d="M346.10751,177.35174c-0.12952,0.5353 -0.59131,0.88291 -1.03144,0.77642c-0.44014,-0.10649 -0.69194,-0.62676 -0.56242,-1.16206c0.12952,-0.5353 0.59131,-0.88291 1.03144,-0.77642c0.44014,0.10649 0.69194,0.62676 0.56242,1.16206z" fill="url(#color-4)" stroke="none" stroke-width="0" stroke-linecap="butt"/><path d="M344.23639,178.67739c-0.06044,0.24981 -0.3023,0.40565 -0.54021,0.34809c-0.23791,-0.05756 -0.38178,-0.30673 -0.32134,-0.55654c0.06044,-0.24981 0.3023,-0.40565 0.54021,-0.34809c0.23791,0.05756 0.38178,0.30673 0.32134,0.55654z" fill="url(#color-5)" stroke="none" stroke-width="0" stroke-linecap="butt"/><path d="M344.30902,177.62338c-0.03454,0.14275 -0.13968,0.2398 -0.23484,0.21677c-0.09516,-0.02302 -0.14431,-0.15741 -0.10977,-0.30016c0.03454,-0.14275 0.13968,-0.2398 0.23484,-0.21677c0.09516,0.02302 0.14431,0.15741 0.10977,0.30016z" fill="url(#color-6)" stroke="none" stroke-width="0" stroke-linecap="butt"/><path d="M348.28516,190.21321c-0.08059,0.33307 -0.36772,0.54942 -0.64131,0.48322c-0.2736,-0.0662 -0.43006,-0.38987 -0.34947,-0.72294c0.08059,-0.33307 0.36771,-0.54942 0.64131,-0.48322c0.2736,0.0662 0.43006,0.38987 0.34947,0.72294z" fill="url(#color-7)" stroke="none" stroke-width="0" stroke-linecap="butt"/><path d="M348.01106,190.21528c-0.10074,0.41634 -0.50062,0.67686 -0.89318,0.58188c-0.39255,-0.09498 -0.62912,-0.50949 -0.52838,-0.92583c0.10074,-0.41634 0.50062,-0.67686 0.89318,-0.58188c0.39255,0.09498 0.62912,0.50949 0.52838,0.92583z" fill="url(#color-8)" stroke="none" stroke-width="0" stroke-linecap="butt"/><path d="M346.9939,189.3308c-0.07195,0.29739 -0.30386,0.49647 -0.51798,0.44467c-0.21412,-0.05181 -0.32937,-0.33488 -0.25741,-0.63227c0.07195,-0.29739 0.30386,-0.49647 0.51798,-0.44467c0.21412,0.05181 0.32937,0.33488 0.25741,0.63227z" fill="url(#color-9)" stroke="none" stroke-width="0" stroke-linecap="butt"/><path d="M349.10119,190.82104c-0.0921,0.38066 -0.43795,0.62363 -0.77246,0.54269c-0.33452,-0.08094 -0.53103,-0.45513 -0.43893,-0.83579c0.0921,-0.38066 0.43794,-0.62363 0.77246,-0.54269c0.33452,0.08094 0.53103,0.45513 0.43893,0.83579z" fill="url(#color-10)" stroke="none" stroke-width="0" stroke-linecap="butt"/><path d="M346.77745,189.84842c-0.02878,0.11896 -0.20641,0.17806 -0.39673,0.13201c-0.19033,-0.04605 -0.32128,-0.17982 -0.2925,-0.29877c0.02878,-0.11896 0.20641,-0.17806 0.39673,-0.13201c0.19033,0.04605 0.32128,0.17982 0.2925,0.29877z" fill="url(#color-11)" stroke="none" stroke-width="0" stroke-linecap="butt"/><path d="M346.25221,188.62694c-0.01151,0.04758 -0.08835,0.06982 -0.17162,0.04968c-0.08327,-0.02015 -0.14144,-0.07505 -0.12992,-0.12264c0.01151,-0.04758 0.08835,-0.06982 0.17162,-0.04968c0.08327,0.02015 0.14144,0.07505 0.12992,0.12264z" fill="url(#color-12)" stroke="none" stroke-width="0" stroke-linecap="butt"/><path d="M349.37702,191.73137c-0.02015,0.08327 -0.09434,0.13677 -0.16571,0.1195c-0.07137,-0.01727 -0.1129,-0.09877 -0.09275,-0.18204c0.02015,-0.08327 0.09434,-0.13677 0.16571,-0.1195c0.07137,0.01727 0.1129,0.09877 0.09275,0.18204z" fill="url(#color-13)" stroke="none" stroke-width="0" stroke-linecap="butt"/><path d="M365.94431,185.63964c-0.09786,0.40445 -0.50506,0.65299 -0.9095,0.55513c-0.40445,-0.09786 -0.65299,-0.50505 -0.55513,-0.9095c0.09786,-0.40445 0.50505,-0.65299 0.9095,-0.55513c0.40445,0.09786 0.65299,0.50505 0.55513,0.9095z" fill="url(#color-14)" stroke="none" stroke-width="0" stroke-linecap="butt"/><path d="M365.16055,187.18278c-0.12088,0.49961 -0.5371,0.82763 -0.92965,0.73265c-0.39255,-0.09498 -0.61278,-0.57699 -0.4919,-1.0766c0.12088,-0.49961 0.5371,-0.82763 0.92965,-0.73265c0.39255,0.09498 0.61278,0.57699 0.4919,1.0766z" fill="url(#color-15)" stroke="none" stroke-width="0" stroke-linecap="butt"/><path d="M365.27242,186.34346c-0.10361,0.42824 -0.44798,0.7124 -0.76915,0.63469c-0.32118,-0.07771 -0.49755,-0.48786 -0.39393,-0.9161c0.10361,-0.42824 0.44797,-0.7124 0.76915,-0.63469c0.32118,0.07771 0.49755,0.48786 0.39393,0.9161z" fill="url(#color-16)" stroke="none" stroke-width="0" stroke-linecap="butt"/><path d="M364.17288,188.06098c-0.04893,0.20222 -0.25253,0.32649 -0.45475,0.27756c-0.20222,-0.04893 -0.32649,-0.25253 -0.27756,-0.45475c0.04893,-0.20222 0.25253,-0.32649 0.45475,-0.27756c0.20222,0.04893 0.32649,0.25253 0.27756,0.45475z" fill="url(#color-17)" stroke="none" stroke-width="0" stroke-linecap="butt"/><path d="M364.10585,187.01878c-0.01727,0.07137 -0.11806,0.10823 -0.22512,0.08233c-0.10706,-0.0259 -0.17985,-0.10476 -0.16258,-0.17613c0.01727,-0.07137 0.11806,-0.10823 0.22512,-0.08233c0.10706,0.0259 0.17985,0.10476 0.16258,0.17613z" fill="url(#color-18)" stroke="none" stroke-width="0" stroke-linecap="butt"/><path d="M364.71204,188.28264c-0.01439,0.05948 -0.07427,0.09603 -0.13375,0.08164c-0.05948,-0.01439 -0.09603,-0.07427 -0.08164,-0.13375c0.01439,-0.05948 0.07427,-0.09603 0.13375,-0.08164c0.05948,0.01439 0.09603,0.07427 0.08164,0.13375z" fill="url(#color-19)" stroke="none" stroke-width="0" stroke-linecap="butt"/><path d="M358.46295,192.06015c-0.02015,0.08327 -0.11363,0.1321 -0.20879,0.10908c-0.09516,-0.02302 -0.15598,-0.10919 -0.13583,-0.19246c0.02015,-0.08327 0.11362,-0.1321 0.20879,-0.10908c0.09516,0.02302 0.15598,0.10919 0.13583,0.19246z" fill="url(#color-20)" stroke="none" stroke-width="0" stroke-linecap="butt"/><path d="M359.14038,192.08726c-0.01439,0.05948 -0.08392,0.0937 -0.15529,0.07643c-0.07137,-0.01727 -0.11756,-0.07948 -0.10317,-0.13896c0.01439,-0.05948 0.08392,-0.0937 0.15529,-0.07643c0.07137,0.01727 0.11756,0.07948 0.10317,0.13896z" fill="url(#color-21)" stroke="none" stroke-width="0" stroke-linecap="butt"/></g><path d="M357.59822,192.05412l-0.07188,0.53583c0,0 -0.13104,-0.3431 -0.30088,-0.22724c-0.13495,0.09205 -0.27457,0.79888 -0.27457,0.79888c0,0 -0.12613,-0.6617 -0.28504,-0.58483c-0.07504,0.03631 -0.43862,0.79991 -0.43862,0.79991l-0.32516,-0.63808" fill="none" stroke="#543129" stroke-width="0.5" stroke-linecap="round"/></g><path d="M342.94933,178.65418c0.67885,-1.92352 2.66519,-0.38406 2.66519,-0.38406c0,0 -0.73589,0.19034 -1.21558,2.17292c-0.14607,0.60372 -0.20618,1.78497 -0.0847,2.82702c0.06417,0.5505 0.16727,1.37392 0.38358,1.92003c0.17552,0.44312 0.47227,0.8997 0.52552,1.27776c0.16482,1.17036 -0.29291,1.65688 -0.80563,1.53282c-0.42786,-0.10352 -1.09758,-1.36551 -1.48558,-2.82103c-0.42489,-1.59392 -0.54496,-3.42791 -0.43913,-4.42028c0.08413,-0.78888 0.23323,-1.47299 0.45634,-2.10519z" fill="url(#color-22)" stroke="none" stroke-width="0" stroke-linecap="butt"/><path d="M366.43958,183.74821c-0.09942,0.67232 -0.28047,1.35939 -0.5591,2.11322c-0.3505,0.94829 -1.24939,2.56254 -2.28564,3.82507c-0.94627,1.15291 -3.447,2.82944 -3.83275,2.73611c-0.46227,-0.11185 -0.28483,-0.75105 0.35897,-1.74255c0.08673,-0.13356 0.5631,-0.33271 0.95934,-0.63945c0.55394,-0.42882 1.07725,-0.98909 1.27183,-1.17906c0.41133,-0.40158 0.68728,-1.04381 0.97948,-1.51603c0.5531,-0.89386 1.02272,-1.99378 1.17096,-2.60647c0.15148,-0.62606 0.13759,-1.08777 0.11253,-1.41086c-0.05549,-0.71523 -0.32931,-0.89192 -0.32931,-0.89192c0,0 2.45618,-0.73363 2.15368,1.31194z" fill="url(#color-23)" stroke="none" stroke-width="0" stroke-linecap="butt"/></g></g><g><path d="M363.09428,185.76054c-0.0471,0.19465 -0.35903,0.36912 -0.76997,0.2697c-0.41093,-0.09943 -0.69641,-0.37699 -0.64931,-0.57164c0.0471,-0.19465 0.41841,-0.27185 0.82934,-0.17243c0.41093,0.09943 0.63704,0.27971 0.58994,0.47437z" fill="url(#color-24)" stroke="#291814" stroke-width="0.5" stroke-linecap="butt"/><g stroke="#292929"><path d="M362.25191,180.82013l0.11425,-1.05258c0,0 0.20341,-0.32466 0.63802,-0.27748c0.48325,0.05245 0.68085,0.42064 0.68085,0.42064l-0.11425,1.05258z" fill="#484848" stroke-width="0.5" stroke-linecap="butt"/><g stroke-width="0.5"><path d="M361.9924,185.33567l0.92638,-8.78156l0.84154,0.08417l-0.92637,8.78157c0,0 0.01026,0.34218 -0.44044,0.29435c-0.49078,-0.05208 -0.40109,-0.37852 -0.40109,-0.37852z" fill="#686868" stroke-linecap="butt"/><path d="M362.07138,185.29836l0.74441,0.18573" fill="none" stroke-linecap="round"/><path d="M362.58133,180.11942l0.66891,0.90147" fill="none" stroke-linecap="round"/><path d="M363.18759,178.51091c0.05965,0.00597 0.1015,0.07243 0.09348,0.14845c-0.00802,0.07602 -0.06288,0.13281 -0.12253,0.12684c-0.05965,-0.00597 -0.1015,-0.07243 -0.09348,-0.14844c0.00801,-0.07602 0.06288,-0.13281 0.12252,-0.12684z" fill="#686868" stroke-linecap="butt"/><path d="M362.69275,182.85682c0.05965,0.00597 0.1015,0.07243 0.09349,0.14844c-0.00802,0.07602 -0.06288,0.13281 -0.12252,0.12684c-0.05965,-0.00597 -0.1015,-0.07242 -0.09348,-0.14844c0.00802,-0.07602 0.06287,-0.13281 0.12252,-0.12684z" fill="#686868" stroke-linecap="butt"/></g><path d="M362.39965,180.41512l0.00644,-0.74231c0,0 0.23784,0.14965 0.57288,0.18602c0.27883,0.03026 0.67272,-0.05082 0.67272,-0.05082l-0.15299,0.72641z" fill="#575757" stroke-width="0.25" stroke-linecap="butt"/><path d="M362.14177,181.73452l0.2118,-1.9513c0,0 0.18704,0.2995 0.57296,0.34139c0.43518,0.04724 0.76741,-0.19589 0.76741,-0.19589l-0.22646,1.94971c0,0 -0.52981,0.06408 -0.75983,0.0391c-0.21008,-0.0228 -0.56588,-0.18301 -0.56588,-0.18301z" fill="#4c4c4c" stroke-width="0.5" stroke-linecap="butt"/></g></g><g><path d="M345.92491,181.38494c0.41093,0.09943 0.70588,0.33782 0.65878,0.53248c-0.0471,0.19465 -0.42788,0.31101 -0.83881,0.21159c-0.41093,-0.09943 -0.60862,-0.3972 -0.56152,-0.59185c0.0471,-0.19465 0.33061,-0.25164 0.74155,-0.15221z" fill="url(#color-25)" stroke="#291814" stroke-width="0.5" stroke-linecap="butt"/><g stroke="#292929"><path d="M346.95262,177.05268l0.37956,-0.98839c0,0 0.34406,-0.23713 0.79784,-0.06287c0.4081,0.15672 0.44059,0.53845 0.44059,0.53845l-0.37956,0.98839z" fill="#484848" stroke-width="0.5" stroke-linecap="butt"/><g stroke-width="0.5"><path d="M345.82782,181.81628c-0.42273,-0.1635 -0.25717,-0.46314 -0.25717,-0.46314l3.19053,-8.23375l0.78693,0.30984l-3.19052,8.23375c0,0 -0.06946,0.33133 -0.52977,0.1533z" fill="#686868" stroke-linecap="butt"/><path d="M345.55745,181.4186l0.74698,0.17511" fill="none" stroke-linecap="round"/><path d="M347.21138,177.25045l1.00702,-0.49598" fill="none" stroke-linecap="round"/><path d="M348.4145,175.04674c0.05578,0.02196 0.07861,0.09754 0.05099,0.16881c-0.02762,0.07127 -0.09522,0.11125 -0.151,0.08929c-0.05578,-0.02196 -0.07862,-0.09755 -0.05099,-0.16883c0.02762,-0.07128 0.09522,-0.11125 0.15101,-0.08929z" fill="#686868" stroke-linecap="butt"/><path d="M346.86789,179.13814c0.05578,0.02196 0.07861,0.09755 0.05098,0.16882c-0.02762,0.07128 -0.09522,0.11125 -0.151,0.08929c-0.05578,-0.02196 -0.07861,-0.09754 -0.05099,-0.16882c0.02761,-0.07127 0.09522,-0.11125 0.15101,-0.08929z" fill="#686868" stroke-linecap="butt"/></g><path d="M347.21276,176.70419l0.19601,-0.71599c0,0 0.31326,0.25218 0.57509,0.35272c0.31461,0.12082 0.59455,0.09644 0.59455,0.09644l-0.33362,0.66315z" fill="#575757" stroke-width="0.25" stroke-linecap="butt"/><path d="M347.28403,178.29595c-0.21599,-0.08295 -0.65791,-0.38213 -0.65791,-0.38213l0.68989,-1.83758c0,0 0.18434,0.36812 0.59298,0.52504c0.36239,0.13916 0.66565,-0.0417 0.66565,-0.0417l-0.70365,1.8323c0,0 -0.38969,-0.02017 -0.58696,-0.09592z" fill="#4c4c4c" stroke-width="0.5" stroke-linecap="butt"/></g></g></g></g><g><g stroke-width="0.5" stroke-linecap="butt"><path d="M365.37356,164.89616c-0.65969,-1.07645 1.18958,-2.15803 3.12249,-3.55735c0.86422,-0.62565 1.84325,-1.4188 2.36357,-2.17118c0.15778,-0.22816 -0.35048,-1.98829 0.10619,-2.39543c0.55166,-0.49183 0.85008,1.69658 0.98368,1.591c0.87923,-0.69481 1.83617,-1.48383 2.6134,-2.42231c0.44166,-0.53329 -1.24275,-1.17939 -2.32023,-3.46383c-0.78683,-1.6682 -1.28943,-2.54074 -1.23628,-3.36853c0.01842,-0.28686 0.13547,-0.48805 0.16562,-0.20218c0.14815,1.40442 0.84053,2.02752 1.5855,3.23813c0.71552,1.16275 3.59182,2.68214 4.64011,1.12142c0.89337,-1.33007 1.50975,-2.6407 2.07145,-3.77615c0.16627,-0.33611 -1.23212,-3.16967 -0.95253,-3.35926c0.49473,-0.33547 0.98352,0.76008 1.38785,1.24894c0.1827,0.2209 0.47534,0.16725 0.52158,0.06466c0.62481,-1.3865 0.98129,-2.19496 1.26734,-1.97385c0.12255,0.09473 0.20227,0.08202 0.13965,0.649c-0.27306,2.47222 -1.2856,6.81211 -4.53674,11.21068c-0.74491,1.00781 -1.58941,1.8769 -2.45518,2.6239c-0.08735,0.07537 0.26002,1.61885 1.03053,2.14078c0.25559,0.17313 0.63131,0.18788 1.07081,0.10552c0.18253,-0.0342 0.39861,-0.67911 0.8879,-1.3168c0.56845,-0.74085 0.71685,-1.01143 0.96227,-1.11149c0.17925,-0.07309 -0.35777,0.85501 -0.52976,1.47433c-0.12818,0.46158 0.78505,0.18731 0.91732,0.12531c1.35576,-0.63548 2.55601,-1.30321 2.50115,-0.80768c-0.07364,0.66518 -2.22269,2.40872 -3.78651,3.12216c-0.9604,0.43815 -2.34054,0.47236 -2.82694,0.38612c-1.93769,-0.34356 -2.44594,-2.45867 -2.56001,-2.39407c-0.52519,0.29746 -0.84618,0.89028 -1.44945,1.21464c-1.18456,0.63691 -4.73814,3.54828 -5.68482,2.00354z" fill="url(#color-26)" stroke="#150c0a"/><path d="M374.43577,157.55176c0.05839,0.09417 -0.03577,0.15256 -0.03577,0.15256l-0.14908,0.09186c-0.99194,0.87289 -2.06159,1.86449 -3.02438,2.84008c-0.90023,0.82863 -1.99553,1.14078 -2.98023,1.7682c0,0 -0.09458,0.05773 -0.1523,-0.03685c-0.05773,-0.09458 0.03685,-0.1523 0.03685,-0.1523c0.99774,-0.58932 2.05549,-0.91785 2.94161,-1.73832c0.98079,-0.99438 2.06995,-1.92834 3.04429,-2.85718l0.16645,-0.10381c0,0 0.09416,-0.05839 0.15256,0.03577z" fill="#2d1b16" stroke="none"/><path d="M380.05918,150.67167c0.1077,0.02606 0.08164,0.13375 0.08164,0.13375l-0.02978,0.12307c-0.16666,0.68882 -0.48149,1.11537 -0.93224,1.64939c0,0 -0.02482,0.0294 -0.06253,0.03893c-0.06904,0.28534 -0.15202,0.62832 -0.21422,0.88539c-0.33724,1.39382 -1.91074,2.39011 -2.75551,3.5008c-0.61914,0.3902 -0.95297,1.20897 -1.36191,1.78984c-0.40121,0.56989 -1.02162,0.95838 -1.40088,1.52218c-0.95853,0.70455 -1.60723,1.48417 -2.80797,1.76239c0,0 -0.10798,0.02485 -0.13283,-0.08312c-0.02486,-0.10798 0.08312,-0.13283 0.08312,-0.13283c1.15682,-0.26436 1.7697,-1.02956 2.69774,-1.69982c0.36749,-0.55674 0.9864,-0.93556 1.3795,-1.49619c0.41246,-0.58825 0.76021,-1.44019 1.39352,-1.82582c0.80125,-1.09272 2.36266,-2.03728 2.68984,-3.38953c0.07445,-0.3077 0.14889,-0.61539 0.22334,-0.92309l0.02978,-0.12307c0,0 0.02606,-0.1077 0.13375,-0.08164c0.00878,0.00212 0.01666,0.00478 0.02374,0.00789c0.38273,-0.46043 0.65064,-0.84318 0.79838,-1.4538l0.02978,-0.12307c0,0 0.02606,-0.1077 0.13375,-0.08164z" fill="#2d1b16" stroke="none"/><path d="M378.14723,153.34205c0.09341,0.05959 0.03383,0.153 0.03383,0.153l-0.07847,0.1208c-0.38861,0.33473 -0.66737,0.77558 -1.06123,1.1124c-0.53717,0.33079 -0.89107,0.91373 -1.44876,1.25004c-0.40255,0.24276 -0.99597,0.45289 -1.28043,0.82886c0,0 -0.07146,0.08467 -0.15614,0.0132c-0.08467,-0.07147 -0.0132,-0.15614 -0.0132,-0.15614c0.61214,-0.6796 1.95726,-1.61398 2.76784,-2.11492c0.37948,-0.32647 0.64768,-0.75625 1.02454,-1.07867l0.05903,-0.09476c0,0 0.05959,-0.09342 0.153,-0.03382z" fill="#2d1b16" stroke="none"/><path d="M372.19923,152.53188c0.02606,-0.1077 0.13375,-0.08164 0.13375,-0.08164l0.19892,0.09397c0.03675,0.09913 0.13678,0.16974 0.23139,0.21691c0.53067,0.64669 2.4754,1.25375 2.26471,2.21402c0,0 -0.02606,0.1077 -0.13375,0.08164c-0.1077,-0.02606 -0.08164,-0.13375 -0.08164,-0.13375c0.19544,-0.71311 -1.77858,-1.47162 -2.18987,-1.99058c-0.12328,-0.06732 -0.23552,-0.17382 -0.29466,-0.30122l-0.04723,0.03441c0,0 -0.1077,-0.02606 -0.08164,-0.13375z" fill="#2d1b16" stroke="none"/><path d="M379.24775,147.41156c0.07147,-0.08467 0.15614,-0.0132 0.15614,-0.0132l0.10201,0.08646c0.77524,0.49226 1.73403,0.12413 1.42653,1.39503c-0.24435,1.00991 -1.36079,2.02879 -2.17472,2.70159c0,0 -0.08546,0.07052 -0.15598,-0.01494c-0.07052,-0.08546 0.01494,-0.15598 0.01494,-0.15598c0.77485,-0.63821 1.86889,-1.62605 2.10037,-2.58278c0.26148,-1.08072 -0.63534,-0.72685 -1.34171,-1.16386l-0.11437,-0.09617c0,0 -0.08467,-0.07147 -0.0132,-0.15614z" fill="#2d1b16" stroke="none"/><path d="M379.41607,148.09145c0.08142,-0.07515 0.15657,0.00627 0.15657,0.00627l0.00453,0.00491c0.311,0.34014 0.60194,0.63963 0.22104,1.10749c0,0 -0.07147,0.08467 -0.15614,0.0132c-0.08467,-0.07147 -0.0132,-0.15614 -0.0132,-0.15614c0.31965,-0.35967 0.01232,-0.57051 -0.21454,-0.81424l-0.00453,-0.00491c0,0 -0.07515,-0.08142 0.00627,-0.15657z" fill="#2d1b16" stroke="none"/><path d="M380.00963,161.84777c-0.02606,0.1077 -0.13375,0.08164 -0.13375,0.08164l-0.04662,-0.01234c-0.03695,-0.00431 -0.07436,-0.0078 -0.1122,-0.01051c0.00642,0.01758 0.00825,0.03938 0.00175,0.06628c-0.01982,0.08192 -0.08689,0.08645 -0.11785,0.08393c-0.75185,1.13936 -2.20311,1.86959 -3.41007,0.85281c-0.59546,-0.73812 -1.50295,-1.67551 -2.23642,-2.29461c0,0 -0.08467,-0.07147 -0.0132,-0.15614c0.07147,-0.08467 0.15614,-0.0132 0.15614,-0.0132c0.73955,0.62422 1.65203,1.56541 2.25191,2.30901c1.10738,0.93721 2.42942,0.18057 3.08958,-0.85496c-0.65193,0.0115 -1.38716,0.20017 -1.99751,0.34067c0,0 -0.10798,0.02485 -0.13284,-0.08312c-0.02486,-0.10797 0.08312,-0.13283 0.08312,-0.13283c0.77409,-0.1782 1.68267,-0.39705 2.45986,-0.32779l0.07646,0.01744c0,0 0.1077,0.02606 0.08164,0.13375z" fill="#2d1b16" stroke="none"/><path d="M375.71158,163.13879c-0.07147,0.08467 -0.15614,0.0132 -0.15614,0.0132l-0.10201,-0.08646c-0.80083,-0.50096 -1.19376,-1.23949 -1.78089,-1.87448c0,0 -0.07515,-0.08142 0.00627,-0.15657c0.08142,-0.07515 0.15657,0.00627 0.15657,0.00627c0.58112,0.63071 0.95893,1.35142 1.74863,1.84573l0.11437,0.09617c0,0 0.08467,0.07147 0.0132,0.15614z" fill="#2d1b16" stroke="none"/><path d="M371.09177,157.78551c0.09458,-0.05773 0.1523,0.03685 0.1523,0.03685l0.04665,0.07643c0.12996,0.23237 0.13813,0.49928 -0.02083,0.71283c0,0 -0.07147,0.08467 -0.15614,0.0132c-0.08467,-0.07147 -0.0132,-0.15614 -0.0132,-0.15614c0.10367,-0.09529 0.08332,-0.33661 0.00103,-0.45444l-0.04665,-0.07643c0,0 -0.05773,-0.09458 0.03685,-0.1523z" fill="#2d1b16" stroke="none"/></g><g stroke-width="0.5" stroke-linecap="butt"><path d="M355.59933,153.51067c-1.20357,1.86374 -2.74114,4.52238 -3.75424,5.03963c-0.56099,0.28642 -0.40561,-0.64405 -0.61302,-0.79555c-0.5084,-0.37137 1.00033,-1.6185 2.63659,-3.85833c0.10604,-0.14515 -1.52463,-2.18189 -0.72759,-3.03188c0.15211,-0.16222 0.40488,1.24004 0.83558,1.82874c0.23794,0.32523 0.55827,0.23986 0.60474,0.16791c0.80436,-1.24556 1.4262,-2.45775 1.87373,-3.43481c0.08667,-0.18923 -1.07181,-1.46105 -0.49832,-1.88383c0.15129,-0.11153 0.0831,0.22479 0.38396,0.61897c0.24105,0.31581 0.48881,0.4104 0.51022,0.35888c0.10067,-0.24219 0.18538,-0.45614 0.25437,-0.63613c0.14978,-0.39078 0.40932,-0.02922 0.3734,0.3771c-0.10823,1.22463 -0.66119,3.36289 -1.8794,5.24931z" fill="#35201a" stroke="#150c0a"/><path d="M348.68769,157.47999c-0.38826,-0.56427 -1.23224,-3.80033 -1.56336,-4.30498c-0.07192,-0.10961 -1.45786,1.3355 -3.33829,0.75525c-0.47203,-0.14565 -1.62234,-0.79212 -2.27621,-1.62084c-1.06471,-1.34941 -2.17901,-3.88253 -1.94042,-4.50781c0.17774,-0.46579 0.93998,0.67676 1.85528,1.86173c0.0893,0.11561 0.77614,0.77702 0.87314,0.30789c0.13015,-0.62944 0.0768,-1.70039 0.20282,-1.55344c0.17253,0.20119 0.18083,0.50967 0.34773,1.42845c0.14366,0.79084 0.04102,1.46318 0.18773,1.57705c0.35324,0.27418 0.69415,0.43281 1.00061,0.39567c0.92388,-0.11196 2.38583,-1.55967 2.3426,-1.66664c-0.93382,-2.31032 -0.94304,-3.92263 -0.71163,-5.93168c0.23361,-2.02816 0.20757,-4.23425 1.10499,-6.58433c0.20349,-0.5329 0.26859,-0.48515 0.42089,-0.51338c0.35548,-0.06589 0.30295,0.81611 0.22483,2.33489c-0.00578,0.11238 0.22997,0.29387 0.49345,0.18093c0.5831,-0.24995 1.51864,-1.00087 1.80529,-0.47635c0.162,0.29643 -2.37707,2.17732 -2.38284,2.55226c-0.01949,1.26665 -0.07043,2.71409 0.11609,4.30544c0.21888,1.8673 2.95209,1.96385 4.50892,0.9098c0.13832,-0.09365 -0.60274,-1.77623 -0.12547,-1.90039c0.2027,-0.05273 0.18335,0.65541 0.39112,1.04276c0.14297,0.26655 0.54119,0.26688 0.59713,0.22429c1.19997,-0.91359 2.65351,-2.06368 2.21313,-1.05229c-0.33115,0.76052 -1.17703,1.3068 -2.63944,2.43079c-2.00262,1.5392 -3.79608,1.34382 -3.64706,2.02003c0.26224,1.18998 0.75264,2.3292 1.217,3.34908c0.07056,0.15497 1.33638,-1.65497 1.60219,-0.96534c0.22004,0.57087 -1.03664,1.90397 -1.00061,2.17903c0.11882,0.90703 0.62698,2.06 1.1096,3.01153c1.07943,2.12817 2.22973,3.93549 1.15091,4.59131c-1.54815,0.94112 -3.37777,-3.27274 -4.14014,-4.38071z" fill="url(#color-27)" stroke="#150c0a"/><path d="M346.81121,138.39304c0.1077,0.02606 0.08164,0.13375 0.08164,0.13375l-0.02978,0.12308c-0.18129,0.74927 -0.31648,1.50029 -0.44602,2.24728l0.00227,-0.00944c0,0 0.02596,-0.10772 0.13368,-0.08176c0.10772,0.02596 0.08176,0.13368 0.08176,0.13368l-0.04705,0.19516c-0.0676,0.29871 -0.06796,0.56251 -0.07887,0.86649c-0.33189,1.51735 0.56304,2.67036 0.6903,4.11125c0.48125,1.30223 0.72627,2.6552 1.07063,3.9842c-0.04865,1.09133 -0.00138,2.25333 0.09058,3.34081c0,0 0.00934,0.11041 -0.10107,0.11974c-0.11041,0.00933 -0.11974,-0.10107 -0.11974,-0.10107c-0.02987,-0.35329 -0.05468,-0.71407 -0.07299,-1.07757c-0.00885,0.00447 -0.01909,0.0082 -0.03093,0.01092c-0.10798,0.02486 -0.13284,-0.08312 -0.13284,-0.08312l-0.03458,-0.16189c0.07493,-0.33063 -0.35807,-1.50996 -0.52776,-1.78246c-0.26106,-1.13406 -0.64681,-2.25324 -0.81596,-3.41369c0,0 -0.01581,-0.10967 0.09386,-0.12547c0.10967,-0.01581 0.12547,0.09386 0.12547,0.09386c0.16249,1.14193 0.54517,2.24671 0.80183,3.36163c0.12698,0.21193 0.37924,0.87302 0.49335,1.36953c-0.01267,-0.51452 -0.01052,-1.0281 0.01047,-1.5274c-0.3575,-1.31776 -0.59583,-2.65966 -1.06649,-3.9593c-0.14222,-1.46128 -1.03069,-2.64489 -0.694,-4.18755c0.0051,-0.15647 0.00857,-0.30313 0.01957,-0.44924c-0.05934,0.34097 -0.11987,0.68076 -0.18548,1.0188c-0.1845,0.91046 -0.16719,1.67011 -0.15934,2.59071c0.00193,0.22704 0.00391,0.901 0.28593,0.81575c0,0 0.11041,-0.00934 0.11974,0.10107c0.00933,0.11041 -0.10107,0.11974 -0.10107,0.11974c-1.01721,-0.01489 -0.49394,-3.00874 -0.36254,-3.67083c0.26531,-1.27432 0.42736,-2.60189 0.74191,-3.90196l0.02978,-0.12308c0,0 0.02606,-0.1077 0.13375,-0.08164z" fill="#2d1b16" stroke="none"/><path d="M350.25309,158.64704c-0.1013,0.0449 -0.14619,-0.0564 -0.14619,-0.0564l-0.06428,-0.14627c-0.1212,-0.52131 -0.312,-0.9615 -0.53693,-1.44368c-0.70581,-1.21722 -1.32091,-2.48601 -2.03528,-3.67577c-0.27301,-1.13908 -0.66969,-2.1569 -0.77004,-3.34372c0,0 -0.00934,-0.11041 0.10107,-0.11974c0.11041,-0.00934 0.11974,0.10107 0.11974,0.10107c0.09869,1.16704 0.50962,2.15607 0.75443,3.27873c0.72784,1.16902 1.3252,2.44778 2.02651,3.65685c0.22971,0.49116 0.42962,0.94423 0.55074,1.47619l0.05664,0.12655c0,0 0.0449,0.10129 -0.0564,0.14619z" fill="#2d1b16" stroke="none"/><path d="M351.28876,158.06203c-0.10784,0.02546 -0.1333,-0.08237 -0.1333,-0.08237l-0.03235,-0.13789c-0.22454,-0.61243 -0.43716,-1.38617 -0.88478,-1.87092c-0.5689,-0.90593 -1.399,-2.33504 -1.49135,-3.40991c0,0 -0.00934,-0.11041 0.10107,-0.11974c0.11041,-0.00934 0.11974,0.10107 0.11974,0.10107c0.08584,1.03294 0.90005,2.42259 1.44655,3.29396c0.46476,0.50369 0.68871,1.30518 0.92102,1.94192l0.03576,0.1506c0,0 0.02546,0.10784 -0.08238,0.1333z" fill="#2d1b16" stroke="none"/><path d="M348.38814,139.89402c0.08467,0.07147 0.0132,0.15614 0.0132,0.15614l-0.09213,0.10914c-0.39815,0.4336 -0.97506,0.71622 -1.40271,1.22287c0,0 -0.07147,0.08467 -0.15614,0.0132c-0.08467,-0.07147 -0.0132,-0.15615 -0.0132,-0.15615c0.40944,-0.48508 1.05258,-0.80291 1.40433,-1.22476l0.09051,-0.10724c0,0 0.07147,-0.08467 0.15614,-0.0132z" fill="#2d1b16" stroke="none"/><path d="M346.98358,153.09081c-0.09458,0.05773 -0.1523,-0.03685 -0.1523,-0.03685l-0.02401,-0.04988c-0.61525,-0.52657 -0.75393,-1.44981 -0.57369,-2.19473c0,0 0.02606,-0.1077 0.13375,-0.08164c0.1077,0.02606 0.08164,0.13375 0.08164,0.13375c-0.16097,0.66531 -0.05147,1.50274 0.50219,1.97408l0.06929,0.10297c0,0 0.05773,0.09457 -0.03685,0.1523z" fill="#2d1b16" stroke="none"/><path d="M340.14847,149.71243c0.09458,-0.05773 0.1523,0.03685 0.1523,0.03685l0.08283,0.13845c0.58072,0.48973 1.07078,1.08784 1.6792,1.601c0.93345,0.79392 1.86963,0.52421 3.00357,0.42832c0,0 0.11041,-0.00934 0.11974,0.10107c0.00933,0.11041 -0.10107,0.11974 -0.10107,0.11974c-1.19732,0.10125 -2.17578,0.35856 -3.1655,-0.48006c-0.61446,-0.5211 -1.11656,-1.1294 -1.70416,-1.62581l-0.10377,-0.16726c0,0 -0.05773,-0.09458 0.03685,-0.1523z" fill="#2d1b16" stroke="none"/><path d="M342.46302,151.24873c-0.1077,-0.02606 -0.08164,-0.13375 -0.08164,-0.13375l0.0146,-0.01063c-0.05755,-0.25 -0.08627,-0.50334 -0.14391,-0.75138c0,0 -0.02485,-0.10797 0.08312,-0.13283c0.10798,-0.02486 0.13284,0.08312 0.13284,0.08312c0.05678,0.24879 0.08629,0.50108 0.14391,0.75138l-0.01517,0.11245c0,0 -0.02606,0.1077 -0.13375,0.08164z" fill="#2d1b16" stroke="none"/><path d="M341.47698,150.36087c-0.07147,0.08467 -0.15614,0.0132 -0.15614,0.0132l-0.10819,-0.09132c-0.41936,-0.35546 -0.72187,-0.83992 -1.1454,-1.18912c0,0 -0.08467,-0.07147 -0.0132,-0.15614c0.07147,-0.08467 0.15614,-0.0132 0.15614,-0.0132c0.419,0.36015 0.72406,0.83482 1.14541,1.18912l0.10819,0.09132c0,0 0.08467,0.07147 0.0132,0.15614z" fill="#2d1b16" stroke="none"/><path d="M342.39132,152.42023c0.02606,-0.1077 0.13375,-0.08164 0.13375,-0.08164l0.14346,0.09773c0.03823,0.21887 0.26043,0.19568 0.45131,0.24465c0.39544,0.32194 1.62045,0.80217 2.15901,0.72601c0.1723,-0.02437 0.24153,-0.72682 0.27679,-0.87255c0,0 0.02606,-0.1077 0.13375,-0.08164c0.1077,0.02606 0.08164,0.13375 0.08164,0.13375c-0.07195,0.29737 -0.08942,0.93969 -0.44584,1.03714c-0.4991,0.13646 -1.95696,-0.43525 -2.30555,-0.74506c-0.27285,-0.06083 -0.46197,-0.07702 -0.55208,-0.34267l0.00541,0.01802c0,0 -0.1077,-0.02606 -0.08164,-0.13375z" fill="#2d1b16" stroke="none"/><path d="M352.70266,147.2265c0.00393,-0.01376 0.03372,-0.10398 0.13328,-0.0799c0.1077,0.02606 0.08164,0.13375 0.08164,0.13375l-0.09772,0.14346c-0.50166,0.08763 -1.05732,0.43673 -1.61631,0.53662c-0.91848,0.0059 -2.13486,0.15052 -2.3724,1.13229c0,0 -0.02606,0.1077 -0.13375,0.08164c-0.1077,-0.02606 -0.08164,-0.13375 -0.08164,-0.13375c0.26508,-1.0956 1.54756,-1.29192 2.56717,-1.30082c0.56305,-0.10304 1.00473,-0.36499 1.51974,-0.51329z" fill="#2d1b16" stroke="none"/><path d="M354.00622,145.54065c0.1077,0.02606 0.08164,0.13375 0.08164,0.13375l-0.06486,0.13006c-0.27889,0.16685 -0.74993,0.5611 -0.88962,0.8392c0,0 -0.0514,0.09816 -0.14956,0.04676c-0.09816,-0.0514 -0.04676,-0.14956 -0.04676,-0.14956c0.16923,-0.31303 0.65551,-0.73016 0.97048,-0.92556l-0.03508,0.00698c0,0 0.02606,-0.1077 0.13375,-0.08164z" fill="#2d1b16" stroke="none"/><path d="M355.34611,153.25925c0.05773,0.09458 -0.03685,0.1523 -0.03685,0.1523l-0.02646,-0.02187c-0.1451,0.57353 -0.72955,1.05885 -1.03558,1.55189c-0.35822,0.4087 -1.7796,1.7495 -1.65307,2.24138c0,0 0.02486,0.10798 -0.08312,0.13284c-0.10798,0.02485 -0.13284,-0.08312 -0.13284,-0.08312c-0.14396,-0.68037 1.25378,-1.88905 1.68998,-2.42166c0.28285,-0.44863 0.87977,-0.94778 0.99924,-1.47343l0.12639,-0.11517c0,0 0.09458,-0.05773 0.1523,0.03685z" fill="#2d1b16" stroke="none"/><path d="M356.45085,149.9755c0.1077,0.02606 0.08164,0.13375 0.08164,0.13375l-0.01489,0.06154c-0.22934,0.94785 -0.53522,1.58057 -1.04012,2.39006c-0.54894,0.87725 -1.21735,1.88297 -1.8932,2.68367c0,0 -0.07147,0.08467 -0.15614,0.0132c-0.08467,-0.07147 -0.0132,-0.15614 -0.0132,-0.15614c0.66754,-0.79086 1.33046,-1.78856 1.87468,-2.65828c0.4955,-0.7895 0.78824,-1.39738 1.01259,-2.32462l0.01489,-0.06154c0,0 0.02606,-0.1077 0.13375,-0.08164z" fill="#2d1b16" stroke="none"/><path d="M353.27618,151.45559c0.09458,-0.05772 0.1523,0.03685 0.1523,0.03685l0.06005,0.1093c0.10956,0.47594 0.52841,1.29942 0.44238,1.72142c0,0 -0.02606,0.1077 -0.13375,0.08164c-0.1077,-0.02606 -0.08164,-0.13375 -0.08164,-0.13375c0.09276,-0.30582 -0.35191,-1.22414 -0.44294,-1.61959l-0.03325,-0.04356c0,0 -0.05773,-0.09458 0.03685,-0.1523z" fill="#2d1b16" stroke="none"/><path d="M357.03385,148.49387c0.11041,-0.00934 0.11974,0.10107 0.11974,0.10107l0.01694,0.21731c-0.146,0.62214 -0.29919,1.24264 -0.44947,1.86376c0,0 -0.02606,0.1077 -0.13375,0.08164c-0.1077,-0.02606 -0.08164,-0.13375 -0.08164,-0.13375c0.1475,-0.60961 0.29135,-1.22023 0.4439,-1.82859l-0.0168,-0.1817c0,0 -0.00933,-0.11041 0.10107,-0.11974z" fill="#2d1b16" stroke="none"/></g><g stroke-linecap="butt"><path d="M344.38428,156.16049c0.79441,-0.8058 4.87234,0.98796 6.6584,3.17532c1.78606,2.18736 1.34735,3.92724 -0.0288,5.05092c-1.37615,1.12368 -3.16862,1.20564 -4.95468,-0.98171c-1.07338,-1.31455 -1.67089,-3.45325 -1.85101,-5.07834c-0.02209,-0.19928 -0.48142,0.18584 -0.49107,0.00448c-0.01097,-0.20631 0.42956,-0.97612 0.4344,-1.15243c0.00508,-0.18542 -0.44438,-0.00831 -0.42218,-0.15231c0.03862,-0.25044 0.56606,-0.77576 0.65494,-0.86591z" fill="#724538" stroke="#291814" stroke-width="1"/><path d="M345.76447,157.87654c0,0 3.20474,0.64982 4.3795,2.08853c1.17476,1.43871 0.88621,2.5831 -0.01895,3.32219c-0.90515,0.73909 -2.08413,0.793 -3.25889,-0.64572c-1.17476,-1.43871 -1.10167,-4.76501 -1.10167,-4.76501z" fill="url(#color-28)" stroke="#b76e59" stroke-width="0.5"/></g><path d="M366.57752,176.55199c-1.1455,4.73441 1.18417,8.59925 -12.20285,5.39215c-13.12803,-3.14506 -9.45027,-5.9844 -8.30477,-10.7188c1.1455,-4.73441 3.28641,-11.24333 13.16451,-8.9898c9.27292,2.11547 8.48861,9.58205 7.34311,14.31646z" fill="#3c231d" stroke="#291814" stroke-width="1" stroke-linecap="butt"/><g stroke="#292929" stroke-width="0.5"><path d="M361.43857,176.6388c-0.24761,0.00296 -0.74156,-1.04309 -0.74156,-1.04309l-0.10568,-8.82973c0,0 0.46678,-1.22366 0.71439,-1.22662c0.22,-0.00264 0.69822,1.20971 0.69822,1.20971l0.10569,8.82973c0,0 -0.45105,1.05737 -0.67106,1.06z" fill="#686868" stroke-linecap="butt"/><path d="M360.82112,175.54922l1.27041,0.09553" fill="none" stroke-linecap="round"/><path d="M360.77686,166.80181l1.14821,-0.01374" fill="none" stroke-linecap="round"/><path d="M360.69841,170.34623l1.27902,0.81519" fill="none" stroke-linecap="round"/><path d="M361.40371,168.67678c0.10013,-0.0012 0.18205,0.05979 0.18296,0.13623c0.00092,0.07643 -0.07952,0.13937 -0.17965,0.14057c-0.10013,0.00119 -0.18203,-0.0598 -0.18295,-0.13622c-0.00092,-0.07643 0.07951,-0.13937 0.17964,-0.14057z" fill="#686868" stroke-linecap="butt"/><path d="M361.39563,173.05084c0.10013,-0.0012 0.18204,0.0598 0.18295,0.13622c0.00092,0.07643 -0.07951,0.13937 -0.17964,0.14057c-0.10013,0.0012 -0.18204,-0.05979 -0.18295,-0.13622c-0.00092,-0.07643 0.07951,-0.13937 0.17964,-0.14057z" fill="#686868" stroke-linecap="butt"/></g><g stroke-linecap="butt"><path d="M361.97149,167.63074c1.73179,0.45254 2.8089,2.48331 2.27026,4.83934c-0.52587,2.44503 -2.22946,3.00479 -3.85108,2.59596c-2.15606,-0.54357 -2.09873,-2.22151 -1.60529,-4.26094c0.49345,-2.03944 1.51443,-3.6152 3.18611,-3.17437z" fill="#e4e4e4" stroke="#575757" stroke-width="0.5"/><g stroke="none" stroke-width="0"><path d="M361.55545,171.73849c-0.21251,0.87833 -0.83367,1.48176 -1.38741,1.34778c-0.55373,-0.13398 -0.83034,-0.95461 -0.61783,-1.83295c0.21251,-0.87833 0.83368,-1.48177 1.38741,-1.34779c0.55373,0.13398 0.83034,0.95462 0.61782,1.83296z" fill="#000000"/><path d="M359.26549,171.83343l0.27237,-1.12571l0.7362,0.87787z" fill="#e4e4e4"/></g><path d="M359.45619,168.4677c0.11924,-0.49281 1.40358,-1.28894 2.50816,-1.02169c1.10458,0.26726 2.51225,1.52472 2.39301,2.01754c-0.11924,0.49281 -0.30861,-1.13322 -2.42701,-1.60777c-1.7577,-0.39375 -2.59339,1.10474 -2.47416,0.61192z" fill="#523128" stroke="#291814" stroke-width="0.5"/><path d="M358.23104,173.11065c0.11924,-0.49281 0.30829,1.37304 2.14849,1.84981c2.21784,0.57461 3.25582,-0.84132 3.13659,-0.3485c-0.11924,0.49281 -2.04654,0.94338 -3.21227,0.66133c-1.16574,-0.28205 -2.19204,-1.66982 -2.07281,-2.16264z" fill="#523128" stroke="#291814" stroke-width="0.5"/></g><g stroke-linecap="butt"><path d="M370.22013,169.4788c-2.58844,1.12893 -4.14518,0.23663 -4.85544,-1.39187c-0.71026,-1.62849 -0.30507,-3.37648 2.28338,-4.50542c2.58844,-1.12893 7.00245,-0.55519 7.37351,0.21974c0.25807,0.53895 -0.82299,2.39743 -2.34307,3.90493c-0.14853,0.1473 -0.47701,0.84381 -0.68442,1.03024c-0.18682,0.16792 -0.25247,-0.17282 -0.39788,-0.05669c-0.25323,0.20225 -0.52559,1.06987 -0.78835,1.23503c-0.26332,0.16552 -0.32134,-0.55216 -0.58772,-0.43598z" fill="#724538" stroke="#291814" stroke-width="1"/><path d="M369.85145,168.43089c-1.70252,0.74255 -2.72646,0.15564 -3.19362,-0.91548c-0.46717,-1.07113 -0.20065,-2.22085 1.50187,-2.9634c1.70252,-0.74255 4.84985,0.14453 4.84985,0.14453c0,0 -1.45558,2.99181 -3.1581,3.73435z" fill="url(#color-29)" stroke="#b76e59" stroke-width="0.5"/></g><g stroke="#292929" stroke-width="0.5"><path d="M350.03362,172.52016l4.13044,-7.80479c0,0 0.97954,-0.85963 1.174,-0.75672c0.21886,0.11583 0.07463,1.41753 0.07463,1.41753l-4.13044,7.80479c0,0 -0.91752,0.70455 -1.13638,0.58872c-0.19446,-0.10292 -0.11226,-1.24952 -0.11226,-1.24952z" fill="#686868" stroke-linecap="butt"/><path d="M351.19313,173.08293l-1.17356,-0.4958" fill="none" stroke-linecap="round"/><path d="M354.21638,164.78614l1.01493,0.53712" fill="none" stroke-linecap="round"/><path d="M353.68078,168.5115l-1.51021,0.14033" fill="none" stroke-linecap="round"/><path d="M353.91214,166.91141c-0.03575,0.06756 -0.13649,0.08436 -0.22499,0.03752c-0.08851,-0.04684 -0.13127,-0.13958 -0.09552,-0.20714c0.03575,-0.06756 0.13649,-0.08436 0.225,-0.03752c0.08851,0.04684 0.13127,0.13958 0.09551,0.20714z" fill="#686868" stroke-linecap="butt"/><path d="M351.91979,170.80538c-0.03575,0.06756 -0.13649,0.08436 -0.22499,0.03752c-0.08851,-0.04684 -0.13127,-0.13957 -0.09551,-0.20714c0.03575,-0.06756 0.13649,-0.08436 0.22499,-0.03752c0.08851,0.04684 0.13127,0.13958 0.09551,0.20714z" fill="#686868" stroke-linecap="butt"/></g><g stroke-linecap="butt"><path d="M355.2553,170.0422c-0.49344,2.03943 -1.20951,3.55799 -3.37559,3.0558c-1.62916,-0.37771 -2.88843,-1.65434 -2.2384,-4.06933c0.59799,-2.34168 2.48431,-3.65543 4.23143,-3.26625c1.6883,0.37212 1.87601,2.24033 1.38256,4.27977z" fill="#e4e4e4" stroke="#575757" stroke-width="0.5"/><g stroke="none" stroke-width="0"><path d="M354.50657,170.1242c-0.21251,0.87833 -0.83367,1.48176 -1.38741,1.34778c-0.55373,-0.13398 -0.83034,-0.95461 -0.61783,-1.83295c0.21251,-0.87833 0.83368,-1.48177 1.38741,-1.34779c0.55373,0.13398 0.83034,0.95462 0.61782,1.83296z" fill="#000000"/><path d="M352.21662,170.21915l0.27237,-1.12571l0.7362,0.87787z" fill="#e4e4e4"/></g><path d="M355.72724,167.65667c-0.11924,0.49281 -0.17748,-1.22196 -1.92076,-1.67528c-2.10103,-0.54635 -3.01279,0.81326 -2.89355,0.32045c0.11924,-0.49281 1.94605,-0.9677 3.05064,-0.70044c1.10458,0.26726 1.88293,1.56246 1.76369,2.05527z" fill="#523128" stroke="#291814" stroke-width="0.5"/><path d="M351.86222,173.322c-1.16574,-0.28205 -2.67389,-1.56383 -2.55465,-2.05665c0.11924,-0.49281 0.39512,1.24101 2.63034,1.74382c1.85461,0.4172 2.87572,-1.15585 2.75649,-0.66304c-0.11924,0.49281 -1.66644,1.25792 -2.83217,0.97586z" fill="#523128" stroke="#291814" stroke-width="0.5"/></g><path d="M347.25231,173.24412l2.47578,-10.23252l7.96932,1.9282l-2.47578,10.23252z" fill="url(#color-30)" stroke="none" stroke-width="NaN" stroke-linecap="butt"/><path d="M356.59576,175.41631l2.47578,-10.23251l7.96932,1.9282l-2.47578,10.23251z" fill="url(#color-31)" stroke="none" stroke-width="NaN" stroke-linecap="butt"/><path d="M367.17858,178.01654c-0.06388,0.31603 0.10194,1.59583 0.05807,2.64446c-0.04387,1.04863 -0.41277,2.36684 -0.41277,2.36684c0,0 -1.23002,0.54812 -3.35875,0.67587c-2.52502,0.15154 -6.17702,-0.14905 -9.53016,-0.91598c-2.69122,-0.61554 -5.1792,-1.45243 -7.04012,-2.41572c-2.59174,-1.34159 -3.93365,-2.73662 -3.93365,-2.73662c0,0 0.34943,-1.62337 0.74452,-2.60352c0.39509,-0.98015 1.07357,-1.95737 1.19569,-2.40536c0.1819,-0.66732 0.36416,-1.34666 0.55725,-2.02531c0.06682,-0.23485 -0.54135,0.12674 -0.4715,-0.10742c0.09421,-0.31582 0.86784,-1.2269 0.96941,-1.53921c0.10372,-0.31892 -0.51888,-0.12814 -0.40525,-0.44067c0.05922,-0.16286 0.85064,-0.83185 0.91301,-0.9924c1.76332,-4.53859 4.85409,-8.0784 12.89636,-6.21628c10.91051,2.53533 9.14081,10.16663 7.81788,16.71129zM351.98267,173.82741c2.83261,0.55936 3.44629,-1.05124 3.84923,-2.71661c0.25728,-1.06334 1.18243,-4.0829 0.63104,-5.28385c-0.31218,-0.67993 -0.88449,-1.2265 -1.8647,-1.46366c-2.98707,-0.72273 -5.23079,1.69578 -5.95352,4.68285c-0.40294,1.66537 0.1833,4.15831 3.33794,4.78127zM360.20738,175.60894c3.31204,0.86649 4.80065,-1.16325 5.20359,-2.82862c0.53713,-2.21997 -0.22494,-5.77667 -2.84567,-6.60518c-2.19729,-0.69856 -3.43307,0.87344 -3.8707,2.08964c-0.5761,1.60104 -1.20995,3.7251 -0.86399,5.51004c0.18215,0.93977 1.33141,1.56065 2.37676,1.83413z" fill="#724538" stroke="#291814" stroke-width="1" stroke-linecap="butt"/><path d="M357.81088,173.78835c-0.34596,-1.78494 0.2895,-3.93819 0.86561,-5.53923c0.43762,-1.2162 1.69495,-2.79625 3.89224,-2.09769c2.62073,0.82851 3.40077,4.41963 2.86364,6.6396c-0.40294,1.66537 -1.92107,3.70691 -5.2331,2.84042c-1.04535,-0.27348 -2.20624,-0.90334 -2.38838,-1.8431z" data-paper-data="{&quot;noHover&quot;:false,&quot;origItem&quot;:[&quot;Path&quot;,{&quot;applyMatrix&quot;:true,&quot;segments&quot;:[[[841.35304,394.92015],[-4.51336,-0.08348],[14.29986,0.2645]],[[859.70332,378.32221],[0,7.15814],[0,-9.54192]],[[841.65916,354.29751],[11.45548,0.78944],[-9.60844,-0.6778]],[[827.99512,366.58529],[0.58212,-5.36836],[-0.76632,7.06702]],[[829.90022,389.80769],[-3.15838,-6.90788],[1.66288,3.63698]]],&quot;closed&quot;:true,&quot;fillColor&quot;:[0,0,0,1]}]}" fill="#000000" stroke="none" stroke-width="0.5" stroke-linecap="butt"/><path d="M351.98002,173.8512c-3.15464,-0.62296 -3.76216,-3.13888 -3.35922,-4.80425c0.72273,-2.98707 3.00028,-5.42818 5.98734,-4.70546c0.98021,0.23716 1.56144,0.79074 1.87362,1.47067c0.5514,1.20095 -0.37266,4.24855 -0.62994,5.31189c-0.40294,1.66537 -1.0392,3.2865 -3.87181,2.72714z" data-paper-data="{&quot;noHover&quot;:false,&quot;origItem&quot;:[&quot;Path&quot;,{&quot;applyMatrix&quot;:true,&quot;segments&quot;:[[[806.20626,395.76661],[0,0],[12.05138,-0.5116]],[[819.16718,380.95411],[0,7.15812],[0,-4.57048]],[[816.53838,358.87899],[3.41884,4.33476],[-1.93562,-2.45418]],[[807.52878,354.76775],[4.21316,0],[-12.83908,0]],[[787.95512,379.63157],[0,-12.8391],[0,7.15812]],[[806.20624,395.76661],[-13.4215,0.56976],[0,0]]],&quot;closed&quot;:true,&quot;fillColor&quot;:[0,0,0,1]}]}" fill="#000000" stroke="none" stroke-width="0.5" stroke-linecap="butt"/><path d="M361.29786,183.60311c-0.87269,0.22838 -3.70953,0.54597 -7.61058,-0.35861c-5.14167,-1.2031 -6.50873,-2.7652 -6.50873,-2.7652c0,0 0.12393,-4.18322 2.06912,-5.52333c1.58289,-1.09051 4.62392,-0.43974 6.22771,-0.12187c1.65948,0.32891 5.72183,1.34841 6.48433,3.36654c0.91683,2.42658 -0.66185,5.40247 -0.66185,5.40247z" fill="url(#color-32)" stroke="#291814" stroke-width="1" stroke-linecap="butt"/><path d="M352.07106,178.14671c-0.16981,0.70183 -0.79928,1.15179 -1.40594,1.005c-0.60667,-0.14679 -0.96082,-0.83473 -0.791,-1.53656c0.16981,-0.70183 0.79927,-1.15179 1.40594,-1.005c0.60667,0.14679 0.96082,0.83473 0.791,1.53656z" fill="url(#color-33)" stroke="none" stroke-width="0" stroke-linecap="butt"/><path d="M353.03756,176.60217c-0.07771,0.32118 -0.53608,0.48588 -1.02379,0.36788c-0.48771,-0.118 -0.82009,-0.47403 -0.74238,-0.79521c0.07771,-0.32118 0.53608,-0.48588 1.02379,-0.36788c0.48771,0.118 0.82009,0.47403 0.74238,0.79521z" fill="url(#color-34)" stroke="none" stroke-width="0" stroke-linecap="butt"/><path d="M351.0539,177.2622c-0.09498,0.39255 -0.51913,0.62678 -0.94737,0.52317c-0.42824,-0.10361 -0.6984,-0.50583 -0.60342,-0.89839c0.09498,-0.39255 0.51913,-0.62678 0.94737,-0.52317c0.42824,0.10361 0.6984,0.50583 0.60342,0.89839z" fill="url(#color-35)" stroke="none" stroke-width="0" stroke-linecap="butt"/><path d="M352.0836,176.96416c-0.11225,0.46392 -0.56005,0.75368 -1.00017,0.64719c-0.44014,-0.10649 -0.70594,-0.56891 -0.59369,-1.03283c0.11225,-0.46392 0.56005,-0.75368 1.00017,-0.64719c0.44014,0.10649 0.70594,0.5689 0.59369,1.03283z" fill="url(#color-36)" stroke="none" stroke-width="0" stroke-linecap="butt"/><path d="M353.08408,178.48301c-0.03742,0.15464 -0.17382,0.25434 -0.30467,0.22268c-0.13085,-0.03166 -0.20659,-0.18269 -0.16918,-0.33733c0.03742,-0.15464 0.17382,-0.25434 0.30467,-0.22268c0.13085,0.03166 0.20659,0.18269 0.16918,0.33733z" fill="url(#color-37)" stroke="none" stroke-width="0" stroke-linecap="butt"/><path d="M350.12633,178.26895c-0.00863,0.03568 -0.0542,0.05529 -0.10179,0.04377c-0.04758,-0.01151 -0.07916,-0.04978 -0.07052,-0.08546c0.00863,-0.03568 0.0542,-0.05529 0.10179,-0.04377c0.04758,0.01151 0.07916,0.04978 0.07052,0.08546z" fill="url(#color-38)" stroke="none" stroke-width="0" stroke-linecap="butt"/><path d="M349.92555,175.89483c-0.00863,0.03568 -0.06385,0.05295 -0.12333,0.03856c-0.05948,-0.01439 -0.1007,-0.05499 -0.09206,-0.09067c0.00863,-0.03568 0.06385,-0.05295 0.12333,-0.03856c0.05948,0.01439 0.1007,0.05499 0.09206,0.09067z" fill="url(#color-39)" stroke="none" stroke-width="0" stroke-linecap="butt"/><path d="M363.60237,177.03799c-0.04029,0.16654 -0.28511,0.25021 -0.54681,0.18689c-0.2617,-0.06332 -0.44119,-0.24965 -0.40089,-0.41619c0.04029,-0.16654 0.28511,-0.25021 0.54681,-0.18689c0.2617,0.06332 0.44119,0.24965 0.40089,0.41619z" fill="url(#color-40)" stroke="none" stroke-width="0" stroke-linecap="butt"/><path d="M365.26743,179.01403c-0.01439,0.05948 -0.05499,0.1007 -0.09067,0.09206c-0.03569,-0.00864 -0.05295,-0.06385 -0.03856,-0.12333c0.01439,-0.05948 0.05499,-0.1007 0.09067,-0.09206c0.03569,0.00864 0.05295,0.06385 0.03856,0.12333z" fill="url(#color-41)" stroke="none" stroke-width="0" stroke-linecap="butt"/><path d="M365.38595,175.50877c-0.04029,0.16654 -0.13082,0.28754 -0.20219,0.27028c-0.07137,-0.01727 -0.09657,-0.16627 -0.05627,-0.33281c0.04029,-0.16654 0.13082,-0.28754 0.20219,-0.27028c0.07137,0.01727 0.09657,0.16627 0.05627,0.33281z" fill="url(#color-42)" stroke="none" stroke-width="0" stroke-linecap="butt"/><path d="M358.97525,163.73587c-0.11832,0.48904 -0.68569,0.77141 -1.26725,0.6307c-0.58156,-0.14071 -0.95708,-0.65122 -0.83876,-1.14025c0.11832,-0.48904 0.68569,-0.77141 1.26725,-0.6307c0.58156,0.14071 0.95708,0.65122 0.83876,1.14025z" fill="url(#color-43)" stroke="none" stroke-width="0" stroke-linecap="butt"/><path d="M357.41308,163.2819c-0.09594,0.39651 -0.48443,0.64277 -0.86773,0.55003c-0.3833,-0.09274 -0.61625,-0.48936 -0.52031,-0.88587c0.09594,-0.39651 0.48444,-0.64278 0.86773,-0.55004c0.3833,0.09274 0.61625,0.48937 0.52031,0.88588z" fill="url(#color-44)" stroke="none" stroke-width="0" stroke-linecap="butt"/><path d="M356.66618,163.22785c-0.09914,0.40974 -0.56523,0.64857 -1.04105,0.53344c-0.47582,-0.11513 -0.78118,-0.54061 -0.68204,-0.95035c0.09914,-0.40973 0.56523,-0.64856 1.04105,-0.53344c0.47582,0.11513 0.78118,0.5406 0.68205,0.95034z" fill="url(#color-45)" stroke="none" stroke-width="0" stroke-linecap="butt"/><path d="M357.98207,164.28089c-0.08954,0.37008 -0.38713,0.61565 -0.6647,0.54849c-0.27756,-0.06716 -0.42998,-0.42161 -0.34044,-0.79169c0.08954,-0.37008 0.38714,-0.61565 0.6647,-0.54849c0.27756,0.06716 0.42998,0.42161 0.34044,0.79169z" fill="url(#color-46)" stroke="none" stroke-width="0" stroke-linecap="butt"/><path d="M356.48668,163.96974c-0.05117,0.21147 -0.24265,0.34661 -0.42769,0.30184c-0.18504,-0.04477 -0.29357,-0.25249 -0.2424,-0.46397c0.05117,-0.21147 0.24265,-0.34662 0.42769,-0.30185c0.18504,0.04477 0.29357,0.2525 0.2424,0.46398z" fill="url(#color-47)" stroke="none" stroke-width="0" stroke-linecap="butt"/><path d="M359.36088,163.39851c-0.04477,0.18504 -0.23107,0.29875 -0.41611,0.25398c-0.18504,-0.04477 -0.29875,-0.23107 -0.25398,-0.41611c0.04477,-0.18504 0.23107,-0.29875 0.41611,-0.25398c0.18504,0.04477 0.29875,0.23107 0.25398,0.41611z" fill="url(#color-48)" stroke="none" stroke-width="0" stroke-linecap="butt"/><path d="M357.3185,162.6257c-0.04797,0.19825 -0.21543,0.32787 -0.37403,0.28949c-0.15861,-0.03837 -0.2483,-0.2302 -0.20033,-0.42846c0.04797,-0.19825 0.21543,-0.32787 0.37404,-0.2895c0.15861,0.03837 0.24829,0.23021 0.20032,0.42846z" fill="url(#color-49)" stroke="none" stroke-width="0" stroke-linecap="butt"/><path d="M358.80463,164.85989c-0.02239,0.09252 -0.12625,0.14679 -0.23199,0.1212c-0.10574,-0.02558 -0.1733,-0.12133 -0.15092,-0.21385c0.02239,-0.09252 0.12625,-0.14679 0.23198,-0.1212c0.10574,0.02558 0.17331,0.12133 0.15092,0.21385z" fill="url(#color-50)" stroke="none" stroke-width="0" stroke-linecap="butt"/><path d="M360.06338,164.68313c-0.01919,0.0793 -0.08832,0.13063 -0.1544,0.11464c-0.06608,-0.01599 -0.1041,-0.09324 -0.08492,-0.17255c0.01919,-0.0793 0.08832,-0.13063 0.1544,-0.11464c0.06608,0.01599 0.1041,0.09324 0.08492,0.17255z" fill="url(#color-51)" stroke="none" stroke-width="0" stroke-linecap="butt"/><path d="M353.89276,162.12615c-0.0064,0.02643 -0.06516,0.0349 -0.13124,0.01891c-0.06608,-0.01599 -0.11447,-0.05038 -0.10808,-0.07681c0.0064,-0.02643 0.06516,-0.0349 0.13124,-0.01891c0.06608,0.01599 0.11447,0.05038 0.10808,0.07681z" fill="url(#color-52)" stroke="none" stroke-width="0" stroke-linecap="butt"/><path d="M347.73558,169.98424c-0.10553,0.43617 -0.48038,0.71976 -0.83724,0.63341c-0.35686,-0.08634 -0.56061,-0.50993 -0.45508,-0.94609c0.10553,-0.43617 0.48038,-0.71975 0.83724,-0.63341c0.35686,0.08634 0.56061,0.50992 0.45508,0.94609z" fill="url(#color-53)" stroke="none" stroke-width="0" stroke-linecap="butt"/><path d="M347.92936,168.76449c-0.07995,0.33043 -0.42334,0.53089 -0.76699,0.44774c-0.34365,-0.08315 -0.55741,-0.41842 -0.47747,-0.74884c0.07995,-0.33043 0.42334,-0.5309 0.76698,-0.44775c0.34365,0.08315 0.55742,0.41842 0.47747,0.74885z" fill="url(#color-54)" stroke="none" stroke-width="0" stroke-linecap="butt"/><path d="M347.09134,169.29637c-0.08315,0.34364 -0.37556,0.56779 -0.65312,0.50063c-0.27756,-0.06716 -0.43517,-0.40018 -0.35202,-0.74383c0.08315,-0.34364 0.37555,-0.56779 0.65312,-0.50063c0.27756,0.06716 0.43517,0.40018 0.35202,0.74383z" fill="url(#color-55)" stroke="none" stroke-width="0" stroke-linecap="butt"/><path d="M346.87863,170.38489c-0.06716,0.27756 -0.35732,0.44553 -0.6481,0.37518c-0.29078,-0.07035 -0.47206,-0.35239 -0.4049,-0.62995c0.06716,-0.27756 0.35732,-0.44553 0.6481,-0.37518c0.29078,0.07035 0.47206,0.35239 0.4049,0.62995z" fill="url(#color-56)" stroke="none" stroke-width="0" stroke-linecap="butt"/><path d="M346.93424,168.27039c-0.01599,0.06608 -0.10395,0.10151 -0.19648,0.07912c-0.09252,-0.02238 -0.15456,-0.0941 -0.13857,-0.16019c0.01599,-0.06608 0.10396,-0.10151 0.19648,-0.07913c0.09252,0.02238 0.15456,0.09411 0.13857,0.16019z" fill="url(#color-57)" stroke="none" stroke-width="0" stroke-linecap="butt"/><path d="M348.11115,169.89777c-0.03837,0.15861 -0.16592,0.26385 -0.28487,0.23507c-0.11896,-0.02878 -0.18428,-0.18069 -0.1459,-0.3393c0.03837,-0.15861 0.16592,-0.26385 0.28487,-0.23507c0.11896,0.02878 0.18428,0.18069 0.1459,0.33929z" fill="url(#color-58)" stroke="none" stroke-width="0" stroke-linecap="butt"/><path d="M344.67599,177.60383c-0.07995,0.33043 -0.4662,0.52053 -0.86271,0.42459c-0.39652,-0.09594 -0.65315,-0.44158 -0.5732,-0.77201c0.07995,-0.33043 0.4662,-0.52052 0.86272,-0.42459c0.39652,0.09594 0.65314,0.44158 0.57319,0.77201z" fill="url(#color-59)" stroke="none" stroke-width="0" stroke-linecap="butt"/><path d="M344.5857,176.72066c-0.06716,0.27756 -0.31446,0.4559 -0.55237,0.39834c-0.23791,-0.05756 -0.37633,-0.32923 -0.30918,-0.60679c0.06716,-0.27756 0.31446,-0.4559 0.55237,-0.39834c0.23791,0.05756 0.37633,0.32923 0.30918,0.60679z" fill="url(#color-60)" stroke="none" stroke-width="0" stroke-linecap="butt"/><path d="M351.34084,164.69776c0,0 -0.0139,-0.34937 0.02586,-0.56746c0.03976,-0.2181 0.20779,-0.71425 0.20779,-0.71425c0,0 0.08184,0.42205 0.19302,0.67069c0.11119,0.24864 0.22876,0.27254 0.22876,0.27254z" fill="#000000" stroke="none" stroke-width="0" stroke-linecap="butt"/><path d="M350.75407,165.07358c0,0 -0.04113,-0.34722 -0.01853,-0.56775c0.02261,-0.22053 0.15139,-0.72829 0.15139,-0.72829c0,0 0.11454,0.41437 0.2448,0.65357c0.13026,0.2392 0.24934,0.25386 0.24934,0.25386z" fill="#000000" stroke="none" stroke-width="0" stroke-linecap="butt"/><path d="M350.23891,165.55775c0,0 -0.11354,-0.3307 -0.13801,-0.55104c-0.02448,-0.22033 -0.00584,-0.74384 -0.00584,-0.74384c0,0 0.19947,0.38084 0.37731,0.58713c0.17784,0.2063 0.29733,0.19547 0.29733,0.19547z" fill="#000000" stroke="none" stroke-width="0" stroke-linecap="butt"/><g fill="#000000" stroke="none" stroke-width="0" stroke-linecap="butt"><path d="M364.34608,167.09742c0,0 0.1155,0.03249 0.32805,-0.13783c0.21256,-0.17031 0.47828,-0.50827 0.47828,-0.50827c0,0 -0.07737,0.51809 -0.14171,0.73024c-0.06434,0.21215 -0.23641,0.51652 -0.23641,0.51652z"/><path d="M364.74438,167.66832c0,0 0.11261,0.04141 0.33781,-0.11179c0.2252,-0.1532 0.5165,-0.46937 0.5165,-0.46937c0,0 -0.11758,0.51046 -0.19829,0.71695c-0.08071,0.20647 -0.27602,0.49648 -0.27602,0.49648z"/><path d="M365.12334,168.26843c0,0 0.10133,0.06425 0.3538,-0.03792c0.25248,-0.10218 0.60398,-0.3497 0.60398,-0.3497c0,0 -0.22274,0.47412 -0.34523,0.65889c-0.12249,0.18477 -0.37465,0.427 -0.37465,0.427z"/></g><path d="M346.78795,175.70403l-0.70767,0.10986c0,0 0.4063,-0.74177 0.39181,-0.82385c-0.03069,-0.17383 -0.64102,0.11123 -0.64102,0.11123c0,0 0.49136,-0.52693 0.487,-0.69024c-0.00548,-0.20552 -0.36037,-0.11094 -0.36037,-0.11094l0.39237,-0.37193" fill="none" stroke="#543129" stroke-width="0.5" stroke-linecap="round"/><path d="M360.7256,162.61919l0.17894,0.51016c0,0 -0.27239,-0.24635 -0.37123,-0.06607c-0.07853,0.14325 0.1176,0.83652 0.1176,0.83652c0,0 -0.41251,-0.53255 -0.51927,-0.39196c-0.05041,0.06638 -0.02815,0.91184 -0.02815,0.91184l-0.57918,-0.42122" fill="none" stroke="#291814" stroke-width="0.5" stroke-linecap="round"/><path d="M355.25678,178.05261l-1.08694,4.49236" fill="none" stroke="#4c2c25" stroke-width="1" stroke-linecap="round"/><g stroke="#000000" stroke-width="0.75"><path d="M368.54433,164.59487c-0.36668,1.51552 -4.71604,1.76366 -9.71457,0.55425c-4.99853,-1.2094 -8.75339,-3.41839 -8.3867,-4.9339c0.36668,-1.51551 4.71605,-1.76366 9.71458,-0.55425c4.99853,1.2094 8.75338,3.41839 8.3867,4.9339z" fill="#090909" stroke-linecap="butt"/><path d="M368.40767,164.52784c0,0 -3.78667,1.56109 -9.8106,-0.03526c-6.11652,-1.62089 -8.15056,-4.17459 -8.15056,-4.17459" fill="none" stroke-linecap="round"/><path d="M354.27924,159.49526c0.3187,-1.04502 0.9253,-3.06951 1.21945,-4.28525c0.32376,-1.3381 0.78095,-3.77936 0.97592,-4.84149c0.05313,-0.28945 0.23588,-0.48223 0.52192,-0.41303c0.50957,0.12329 2.63077,0.27173 4.8033,0.79738c2.28342,0.55248 4.63228,1.48558 5.59531,1.71859c0.30075,0.07277 0.34337,0.35025 0.24494,0.64361c-0.32294,0.96258 -0.98803,2.98925 -1.28654,4.22302c-0.31837,1.31583 -0.73066,3.74496 -0.92098,4.90306c-0.06795,0.41343 -0.19003,0.71067 -0.59276,0.82621c-0.84031,0.24108 -2.80025,0.5495 -6.14419,-0.28918c-2.72364,-0.6831 -3.90874,-1.71128 -4.36778,-2.25175c-0.18837,-0.22179 -0.04858,-1.03116 -0.04858,-1.03116z" fill="url(#color-61)" stroke-linecap="butt"/></g><path d="M367.10226,170.98248l0.36539,0.39847c0,0 -0.3474,-0.11918 -0.36725,0.08546c-0.01577,0.16259 0.43751,0.72261 0.43751,0.72261c0,0 -0.58889,-0.32707 -0.63166,-0.15581c-0.0202,0.08087 0.33321,0.84924 0.33321,0.84924l-0.69825,-0.15909" fill="none" stroke="#543129" stroke-width="0.5" stroke-linecap="round"/><g stroke-linecap="butt"><path d="M358.1568,176.36318c-0.15995,0.66109 -0.84489,0.62803 -1.35396,0.96995c-0.52844,0.35492 -0.89,1.0695 -1.53725,0.9129c-0.64725,-0.1566 -0.7285,-1.19352 -1.03624,-1.75076c-0.29646,-0.53682 -0.8344,-0.58443 -0.67445,-1.24552c0.32599,-1.34733 1.42615,-1.38024 2.71085,-1.13742c1.35494,0.2561 2.21704,0.90353 1.89105,2.25086z" fill="#040404" stroke="#000000" stroke-width="0.75"/><path d="M355.11901,174.60797c-0.02929,0.12105 -0.36056,0.15799 -0.45017,0.22586c-0.10724,0.08122 -0.19934,0.31198 -0.33515,0.27912c-0.24929,-0.06032 -0.26791,-0.29301 -0.20358,-0.55892c0.06434,-0.26591 0.31859,-0.43258 0.56788,-0.37226c0.24929,0.06032 0.48536,0.16029 0.42103,0.4262z" fill="url(#color-62)" stroke="none" stroke-width="0"/></g><path d="M359.58534,177.48313c-0.01919,0.0793 -0.08831,0.13063 -0.1544,0.11464c-0.06608,-0.01599 -0.1041,-0.09324 -0.08492,-0.17254c0.01919,-0.0793 0.08832,-0.13063 0.1544,-0.11464c0.06608,0.01599 0.1041,0.09324 0.08491,0.17254z" fill="none" stroke="#4c2c25" stroke-width="1" stroke-linecap="butt"/><path d="M360.8051,177.67693c-0.01919,0.0793 -0.08831,0.13063 -0.1544,0.11464c-0.06608,-0.01599 -0.10411,-0.09323 -0.08492,-0.17254c0.01919,-0.0793 0.08832,-0.13063 0.1544,-0.11464c0.06608,0.01599 0.1041,0.09324 0.08491,0.17254z" fill="none" stroke="#4c2c25" stroke-width="1" stroke-linecap="butt"/><path d="M360.12109,178.82874c-0.01919,0.0793 -0.08831,0.13063 -0.1544,0.11464c-0.06608,-0.01599 -0.1041,-0.09324 -0.08492,-0.17254c0.01919,-0.0793 0.08832,-0.13063 0.1544,-0.11464c0.06608,0.01599 0.1041,0.09324 0.08491,0.17254z" fill="none" stroke="#4c2c25" stroke-width="1" stroke-linecap="butt"/><g fill="none" stroke="#4c2c25" stroke-width="1" stroke-linecap="butt"><path d="M351.42192,175.34331c0.06608,0.01599 0.1041,0.09324 0.08492,0.17255c-0.01919,0.0793 -0.08832,0.13063 -0.1544,0.11464c-0.06608,-0.01599 -0.1041,-0.09323 -0.08491,-0.17254c0.01919,-0.0793 0.08831,-0.13063 0.1544,-0.11464z"/><path d="M350.24848,174.95806c0.06608,0.01599 0.1041,0.09324 0.08492,0.17254c-0.01919,0.0793 -0.08832,0.13063 -0.1544,0.11464c-0.06608,-0.01599 -0.1041,-0.09324 -0.08491,-0.17254c0.01919,-0.0793 0.08831,-0.13063 0.1544,-0.11464z"/><path d="M350.3303,176.29517c0.06608,0.01599 0.1041,0.09324 0.08492,0.17255c-0.01919,0.0793 -0.08832,0.13063 -0.1544,0.11464c-0.06608,-0.01599 -0.1041,-0.09324 -0.08491,-0.17254c0.01919,-0.0793 0.08831,-0.13063 0.1544,-0.11464z"/></g></g><text transform="translate(345.74084,206.87788) scale(0.28149,0.28149)" font-size="40" xml:space="preserve" fill="#000000" fill-rule="nonzero" stroke="none" stroke-width="1" stroke-linecap="butt" stroke-linejoin="miter" stroke-miterlimit="10" stroke-dasharray="" stroke-dashoffset="0" font-family="&quot;GovtAgentBB&quot;, Serif" font-weight="normal" text-anchor="start" style="mix-blend-mode: normal"><tspan x="0" dy="0">Siena</tspan></text></g></g></svg>