<svg version="1.1" xmlns="http://www.w3.org/2000/svg" xmlns:xlink="http://www.w3.org/1999/xlink" width="76.33333" height="101" viewBox="0,0,76.33333,101"><g transform="translate(-321.83333,-129.5)"><g data-paper-data="{&quot;isPaintingLayer&quot;:true}" fill-rule="nonzero" stroke-linecap="butt" stroke-linejoin="miter" stroke-miterlimit="10" stroke-dasharray="" stroke-dashoffset="0" style="mix-blend-mode: normal"><path d="M321.83333,230.5v-101h76.33333v101z" fill="#273042" stroke="none" stroke-width="0"/><path d="M329.75469,196.83333v-61.66667h60.49068v61.66667z" fill="#0b0e13" stroke="none" stroke-width="0"/><path d="M343.08341,227.33333v-17.33333h33.83333v17.33333z" fill="#0b0e13" stroke="#000000" stroke-width="0"/><path d="M342.99989,209.125v-11.25h34.25v11.25z" fill="#273042" stroke="#000000" stroke-width="0"/><text transform="translate(340.92278,207.0298) scale(0.29415,0.29415)" font-size="40" xml:space="preserve" fill="#000000" fill-rule="nonzero" stroke="none" stroke-width="1" stroke-linecap="butt" stroke-linejoin="miter" stroke-miterlimit="10" stroke-dasharray="" stroke-dashoffset="0" font-family="&quot;GovtAgentBB&quot;, Serif" font-weight="normal" text-anchor="start" style="mix-blend-mode: normal"><tspan x="0" dy="0">Toothy</tspan></text><text transform="translate(348.24454,223.17375) scale(0.37559,0.37559)" font-size="40" xml:space="preserve" fill="#43c749" fill-rule="nonzero" stroke="none" stroke-width="1" stroke-linecap="butt" stroke-linejoin="miter" stroke-miterlimit="10" stroke-dasharray="" stroke-dashoffset="0" font-family="&quot;Agency FB&quot;, Sans Serif" font-weight="normal" text-anchor="start" style="mix-blend-mode: normal"><tspan x="0" dy="0">EASY</tspan></text><g><g stroke="#000000" stroke-width="0"><path d="M338.48392,145.74415c0,0 5.61316,6.86678 12.07636,10.81613c4.78553,2.92419 11.32895,6.29591 10.73585,8.39271c-1.39412,4.92868 -10.68381,14.86401 -16.05817,15.19939c-2.13129,0.13299 -7.44257,-3.52831 -9.08954,-8.71214c-2.5061,-7.88791 2.33549,-25.69607 2.33549,-25.69607z" data-paper-data="{&quot;index&quot;:null}" fill="#262626"/><path d="M339.19036,147.45467c0,0 5.05875,6.18856 10.88358,9.74782c4.31286,2.63537 10.23525,6.02456 9.70073,7.91426c-1.25642,4.44188 -9.62857,13.39589 -14.4721,13.69814c-1.92079,0.11986 -6.70747,-3.17982 -8.19177,-7.85164c-2.25857,-7.10882 2.07957,-23.50857 2.07957,-23.50857z" data-paper-data="{&quot;index&quot;:null}" fill="#202020"/></g><g data-paper-data="{&quot;index&quot;:null}" stroke="#000000" stroke-width="0"><path d="M383.85165,171.44022c-1.64697,5.18383 -6.95825,8.84513 -9.08954,8.71214c-5.37436,-0.33537 -14.66405,-10.2707 -16.05817,-15.19938c-0.5931,-2.0968 5.95033,-5.46851 10.73585,-8.39271c6.46321,-3.94933 12.07637,-10.81612 12.07637,-10.81612c0,0 4.84159,17.80816 2.33549,25.69607z" data-paper-data="{&quot;index&quot;:null}" fill="#262626"/><path d="M382.88929,170.96325c-1.48431,4.67182 -6.27098,7.9715 -8.19177,7.85164c-4.84353,-0.30225 -13.21569,-9.25626 -14.47211,-13.69813c-0.53452,-1.8897 5.38787,-5.27889 9.70074,-7.91426c5.82484,-3.55926 10.88358,-9.74782 10.88358,-9.74782c0,0 4.33814,16.39974 2.07957,23.50857z" data-paper-data="{&quot;index&quot;:null}" fill="#202020"/></g><g fill="#2b2b2b" stroke="#000000" stroke-width="0"><path d="M342.16935,172.4433c0,-10.36848 7.8032,-17.72513 17.68555,-17.72513c9.88235,0 17.89357,7.35666 17.89357,17.72514c0,10.36848 -8.01123,18.7738 -17.89357,18.7738c-8.14778,0 -18.68536,-8.1563 -18.57311,-16.29489c0.02495,-1.8096 0.88757,-0.65902 0.88757,-2.47891z"/><path d="M378.71832,174.92221c0.11225,8.13859 -10.42535,16.29489 -18.57312,16.29489c-9.88234,0 -17.89357,-8.40532 -17.89357,-18.77379c0,-10.36848 8.01123,-17.72514 17.89357,-17.72514c9.88234,0 17.68554,7.35666 17.68554,17.72514c0,1.8199 0.86262,0.66932 0.88758,2.47891z" data-paper-data="{&quot;index&quot;:null}"/></g><path d="M343.15067,172.59062c0,-9.97937 7.54373,-16.65642 16.8494,-16.65642c9.30566,0 16.8494,6.67705 16.8494,16.65642c0,9.97937 -7.54373,16.65642 -16.8494,16.65642c-9.30566,0 -16.8494,-6.67705 -16.8494,-16.65642z" fill="#323232" stroke="#000000" stroke-width="0"/><g fill="#2b2b2b" stroke="#000000" stroke-width="0"><path d="M345.45732,173.46414c0,-4.26236 3.75194,-8.28783 7.6076,-8.28783c3.85568,0 5.32348,4.22912 5.32348,8.49147c0,4.26236 -2.02042,7.4733 -5.8761,7.4733c-3.85568,0 -7.05499,-3.41459 -7.05499,-7.67694z"/><path d="M367.48779,181.14108c-3.85568,0 -5.8761,-3.21095 -5.8761,-7.4733c0,-4.26236 1.46782,-8.49147 5.32349,-8.49147c3.85568,0 7.6076,4.02547 7.6076,8.28783c0,4.26235 -3.19932,7.67694 -7.055,7.67694z" data-paper-data="{&quot;index&quot;:null}"/></g><path d="M345.45732,173.14917c0,-4.10036 3.75194,-7.97287 7.6076,-7.97287c0.93824,0 1.73508,0.24091 2.40379,0.66456c0.10182,0.0645 1.11822,-0.67879 1.11822,-0.67879c0,0 -0.39781,1.2391 -0.20833,1.44546c1.41832,1.5446 2.0098,4.13463 2.0098,6.73753c0,4.10036 -2.02042,7.18928 -5.8761,7.18928c-1.14445,0 -2.23109,-0.2894 -3.19338,-0.80364c-0.22797,-0.12183 -1.20382,0.62682 -1.20382,0.62682c0,0 0.27808,-1.21685 0.1511,-1.31733c-1.69952,-1.34474 -2.8089,-3.47648 -2.8089,-5.89102z" fill="#000000" stroke="#000000" stroke-width="0"/><path d="M367.48776,180.53435c-3.85568,0 -5.8761,-3.08893 -5.8761,-7.18928c0,-4.10036 1.46781,-8.16876 5.32348,-8.16876c3.85568,0 7.6076,3.8725 7.6076,7.97286c0,4.10036 -3.19932,7.38518 -7.055,7.38518z" data-paper-data="{&quot;index&quot;:null}" fill="#000000" stroke="#000000" stroke-width="0"/><g data-paper-data="{&quot;index&quot;:null}" stroke="#000000" stroke-width="0"><path d="M353.23766,177.60932c-2.16706,0 -3.92382,-0.972 -3.92382,-4.1498c0,-3.1778 1.75676,-4.21954 3.92382,-4.21954c2.16707,0 3.92382,1.04174 3.92382,4.21954c0,3.1778 -1.75675,4.1498 -3.92382,4.1498z" data-paper-data="{&quot;index&quot;:null}" fill="#ffffff"/><path d="M353.23766,177.18484c-1.94725,0 -3.52582,-0.8734 -3.52582,-3.72886c0,-2.85546 1.57856,-3.79153 3.52582,-3.79153c1.94725,0 3.52581,0.93607 3.52581,3.79153c0,2.85546 -1.57856,3.72886 -3.52581,3.72886z" data-paper-data="{&quot;index&quot;:null}" fill="#000000"/><path d="M353.23766,176.73708c-1.71537,0 -3.10597,-0.7694 -3.10597,-3.28483c0,-2.51543 1.39059,-3.34004 3.10598,-3.34004c1.71537,0 3.10597,0.8246 3.10597,3.34004c0,2.51543 -1.3906,3.28483 -3.10597,3.28483z" data-paper-data="{&quot;index&quot;:null}" fill="#ffffff"/></g><g fill="#262626" stroke="#000000" stroke-width="0"><path d="M364.37665,179.13336c0,1.19121 -1.95947,2.15689 -4.3766,2.15689c-2.41713,0 -4.37659,-0.96567 -4.37659,-2.15689c0,-1.19121 1.95947,-2.15689 4.3766,-2.15689c2.41713,0 4.3766,0.96568 4.3766,2.15689z"/><path d="M363.10768,180.05511c0,0.78663 -1.39133,2.26598 -3.10763,2.26598c-1.7163,0 -3.10763,-1.47934 -3.10763,-2.26598c0,-0.78663 1.39133,-1.42433 3.10763,-1.42433c1.7163,0 3.10763,0.63769 3.10763,1.42433z"/></g><g data-paper-data="{&quot;index&quot;:null}" stroke="#000000" stroke-width="0"><path d="M362.83862,173.45952c0,-3.1778 1.75675,-4.21954 3.92382,-4.21954c2.16707,0 3.92383,1.04174 3.92383,4.21954c0,3.1778 -1.75676,4.14979 -3.92383,4.14979c-2.16708,0 -3.92382,-0.97199 -3.92382,-4.14979z" data-paper-data="{&quot;index&quot;:null}" fill="#ffffff"/><path d="M363.23663,173.45598c0,-2.85546 1.57856,-3.79153 3.52581,-3.79153c1.94725,0 3.52582,0.93607 3.52582,3.79153c0,2.85546 -1.57857,3.72886 -3.52582,3.72886c-1.94725,0 -3.52581,-0.8734 -3.52581,-3.72886z" data-paper-data="{&quot;index&quot;:null}" fill="#000000"/><path d="M366.76244,176.73708c-1.71537,0 -3.10597,-0.7694 -3.10597,-3.28483c0,-2.51543 1.39059,-3.34004 3.10597,-3.34004c1.71537,0 3.10597,0.8246 3.10597,3.34004c0,2.51543 -1.39059,3.28483 -3.10597,3.28483z" data-paper-data="{&quot;index&quot;:null}" fill="#ffffff"/></g><g fill="#000000" stroke="#000000" stroke-width="0"><path d="M360.17673,189.73578c-4.88518,0 -9.96669,-2.9797 -13.0856,-5.50406c-2.29203,-1.8551 -2.52964,-5.84789 -2.52964,-5.84789c0,0 1.3674,3.19017 2.94171,3.78703c0.51364,0.19474 1.55989,0.74692 1.55989,0.74692c0,0 1.16423,-0.34215 1.8096,-0.34278c0.21976,-0.00021 0.71869,0.67878 0.71869,0.67878c0,0 0.71516,-0.50983 1.08656,-0.52496c2.21769,-0.09029 4.75755,0.04332 7.49879,0.04332c2.10316,0 2.13421,6.96365 0,6.96365z"/><path d="M359.82339,189.73578c-2.13421,0 -2.10316,-6.96365 0,-6.96365c2.74124,0 5.2811,-0.13361 7.4988,-0.04332c0.37141,0.01512 1.08656,0.52496 1.08656,0.52496c0,0 0.49895,-0.67899 0.71869,-0.67878c0.64537,0.00063 1.8096,0.34278 1.8096,0.34278c0,0 1.04624,-0.55218 1.55988,-0.74692c1.57431,-0.59686 2.94171,-3.78703 2.94171,-3.78703c0,0 -0.2376,3.9928 -2.52963,5.8479c-3.11892,2.52435 -8.20044,5.50406 -13.08561,5.50406z" data-paper-data="{&quot;index&quot;:null}"/></g><path d="M353.74702,182.79c0,0 -1.33049,1.20798 -1.76838,3.36896c-0.43788,2.16099 0.75517,3.29879 0.75517,3.29879c0,0 -2.70699,-1.58914 -4.24858,-3.62594c-1.17575,-1.55343 -1.28981,-3.64761 -1.27324,-3.84103c0.23369,0.18022 0.71131,0.50092 0.8986,0.40484c0,0 0.37922,0.34234 0.88649,0.44922c0.39103,0.08238 1.41722,-0.35806 1.84539,-0.22469c0.2323,0.07235 0.35916,0.20851 0.53931,0.33174c0.11726,0.08021 0.0977,0.27708 0.20362,0.29486c0.12052,0.02022 0.86527,-0.49133 0.9945,-0.48006c0.57476,0.0501 1.16711,0.0233 1.16711,0.0233z" fill="#ffffff" stroke="#ff0000" stroke-width="0"/><path d="M367.42019,182.76671c0.12923,-0.01127 0.87399,0.50027 0.99451,0.48005c0.10591,-0.01776 0.08637,-0.21465 0.20362,-0.29485c0.18016,-0.12322 0.30701,-0.25938 0.53931,-0.33174c0.42817,-0.13336 1.45437,0.30707 1.84539,0.22469c0.50727,-0.10688 0.88649,-0.44922 0.88649,-0.44922c0.1873,0.09608 0.66492,-0.22463 0.89861,-0.40484c0.01657,0.19341 -0.0975,2.2876 -1.27324,3.84103c-1.5416,2.0368 -4.24859,3.62594 -4.24859,3.62594c0,0 1.19305,-1.1378 0.75517,-3.29879c-0.43788,-2.16099 -1.76837,-3.36896 -1.76837,-3.36896c0,0 0.59235,0.0268 1.16711,-0.0233z" data-paper-data="{&quot;index&quot;:null}" fill="#ffffff" stroke="#ff0000" stroke-width="0"/><g fill="none" stroke="#2b2b2b" stroke-width="0.5"><path d="M360.16488,189.73578v-0.00001c-4.88518,0 -9.96669,-2.9797 -13.0856,-5.50406c-2.29203,-1.8551 -2.52964,-5.8479 -2.52964,-5.8479c0,0 1.36739,3.19017 2.94171,3.78703c0.51364,0.19474 1.55989,0.74691 1.55989,0.74691c0,0 1.16422,-0.34215 1.8096,-0.34277c0.21976,-0.00021 0.7187,0.67878 0.7187,0.67878c0,0 0.71515,-0.50983 1.08655,-0.52496c2.21769,-0.09029 4.75756,0.04332 7.4988,0.04332"/><path d="M359.81154,182.77214c2.74124,0 5.2811,-0.13361 7.4988,-0.04332c0.37141,0.01512 1.08655,0.52496 1.08655,0.52496c0,0 0.49896,-0.67899 0.7187,-0.67878c0.64537,0.00063 1.8096,0.34278 1.8096,0.34278c0,0 1.04624,-0.55218 1.55989,-0.74692c1.57431,-0.59686 2.94171,-3.78703 2.94171,-3.78703c0,0 -0.23761,3.9928 -2.52964,5.8479c-3.11892,2.52435 -8.20043,5.50406 -13.0856,5.50406l0,0.00001" data-paper-data="{&quot;index&quot;:null}"/></g><path d="M351.97865,186.15897c-0.43788,2.16099 0.75517,3.2988 0.75517,3.2988c0,0 -2.70698,-1.58915 -4.24858,-3.62594c-0.38804,-0.51269 -0.66044,-1.08428 -0.85066,-1.627c1.06152,0.18892 2.79865,0.34542 3.14863,0.37662c0.54987,0.04903 1.10032,0.10234 1.65022,0.15357c-0.18374,0.41386 -0.34652,0.88979 -0.45476,1.42396z" fill="#ffffff" stroke="#ff0000" stroke-width="0"/><path d="M367.56667,184.735c0.5499,-0.05122 1.10035,-0.10455 1.65022,-0.15357c0.34998,-0.0312 2.08711,-0.1877 3.14863,-0.37662c-0.19022,0.54272 -0.46263,1.11432 -0.85066,1.627c-1.5416,2.0368 -4.24858,3.62594 -4.24858,3.62594c0,0 1.19305,-1.1378 0.75517,-3.29879c-0.10824,-0.53418 -0.27103,-1.01011 -0.45477,-1.42397z" data-paper-data="{&quot;index&quot;:null}" fill="#ffffff" stroke="#ff0000" stroke-width="0"/><g stroke-width="0"><g stroke="#000000"><path d="M369.87236,157.58706c0,0.65165 -2.12188,1.17992 -9.81357,1.17992c-7.69169,0 -9.93108,-0.52826 -9.93108,-1.17992c0,-0.65165 2.2394,-1.17992 9.93108,-1.17992c7.69169,0 9.81357,0.52827 9.81357,1.17992z" fill="#252525"/><path d="M359.94128,156.40715c7.69169,0 9.93109,0.52826 9.93109,1.17992c0,0.65165 -2.2394,1.17992 -9.93109,1.17992c-7.69169,0 -9.81356,-0.52827 -9.81356,-1.17992c0,-0.65165 2.12187,-1.17992 9.81356,-1.17992z" data-paper-data="{&quot;index&quot;:null}" fill="#222222"/></g><path d="M350.12773,157.59376v-2.37324h19.74466v2.37324z" fill="#222222" stroke="#000000"/><g fill="#202020" stroke="#000000"><path d="M369.87236,155.22052c0,0.65165 -2.12188,1.17992 -9.81357,1.17992c-7.69169,0 -9.93108,-0.52827 -9.93108,-1.17992c0,-0.65165 2.2394,-1.17992 9.93108,-1.17992c7.69169,0 9.81357,0.52826 9.81357,1.17992z"/><path d="M359.94128,154.04061c7.69169,0 9.93109,0.52827 9.93109,1.17991c0,0.65165 -2.2394,1.17992 -9.93109,1.17992c-7.69169,0 -9.81356,-0.52827 -9.81356,-1.17992c0,-0.65165 2.12187,-1.17991 9.81356,-1.17991z" data-paper-data="{&quot;index&quot;:null}"/></g><g fill="#222222" stroke="#000000"><path d="M366.85025,154.98982c0,0.4215 -3.06694,0.76318 -6.85019,0.76318c-3.78325,0 -6.85018,-0.34168 -6.85018,-0.76318c0,-0.4215 3.06693,-0.76318 6.85018,-0.76318c3.78325,0 6.85019,0.34168 6.85019,0.76318z"/><path d="M353.14988,154.98982c0,0 0.13612,-4.13402 -0.23138,-6.21621c-0.35754,-2.0257 -1.94455,-6.11213 -1.94455,-6.11213h8.96166l6.91465,12.32834z"/><path d="M353.14988,154.98982l6.91465,-12.32833h8.96166c0,0 -1.58702,4.08642 -1.94455,6.11213c-0.3675,2.08218 -0.23138,6.21621 -0.23138,6.21621z" data-paper-data="{&quot;index&quot;:null}"/></g><path d="M369.02617,142.66149c0,1.03752 -4.04113,1.87861 -9.02612,1.87861c-4.985,0 -9.02613,-0.84108 -9.02613,-1.87861c0,-1.03752 4.04113,-1.8786 9.02613,-1.8786c4.985,0 9.02612,0.84108 9.02612,1.8786z" fill="#202020" stroke="#000000"/><g fill="#770000"><g><g stroke="#000000"><path d="M367.00294,155.26269c0,0.2708 -3.1353,0.49032 -7.00288,0.49032c-3.86759,0 -7.00288,-0.21952 -7.00288,-0.49032c0,-0.2708 3.13529,-0.49033 7.00288,-0.49033c3.86759,0 7.00288,0.21953 7.00288,0.49033z"/><path d="M352.99718,155.26269c0,0 0.13915,-2.656 -0.23655,-3.99375c-0.3655,-1.30146 14.24232,3.99375 14.24232,3.99375z"/><path d="M352.99718,155.26269c0,0 14.60782,-5.29522 14.24232,-3.99375c-0.3757,1.33775 -0.23655,3.99376 -0.23655,3.99376z" data-paper-data="{&quot;index&quot;:null}"/></g><path d="M360.00005,153.49265c-4.00195,0 -6.848,-2.22779 -6.848,-2.36795c0,-0.14016 2.84605,0.35798 6.848,0.35798c4.00195,0 4.00195,2.00998 0,2.00998z" stroke="#2b2b2b"/></g><g data-paper-data="{&quot;index&quot;:null}"><g stroke="#000000"><path d="M360.00005,154.77236c3.86759,0 7.00288,0.21953 7.00288,0.49033c0,0.2708 -3.1353,0.49032 -7.00288,0.49032c-3.86759,0 -7.00288,-0.21952 -7.00288,-0.49032c0,-0.2708 3.1353,-0.49033 7.00288,-0.49033z"/><path d="M352.99718,155.26269c0,0 14.60782,-5.29522 14.24232,-3.99375c-0.3757,1.33775 -0.23654,3.99374 -0.23654,3.99374z"/><path d="M352.99718,155.26269c0,0 0.13915,-2.65601 -0.23655,-3.99375c-0.3655,-1.30146 14.24232,3.99376 14.24232,3.99376z" data-paper-data="{&quot;index&quot;:null}"/></g><path d="M360.00005,151.48268c4.00195,0 6.84801,-0.49815 6.84801,-0.35798c0,0.14016 -2.84605,2.36795 -6.84801,2.36795c-4.00195,0 -4.00195,-2.00997 0,-2.00997z" stroke="#2b2b2b"/></g></g></g></g></g></g></svg>