<svg version="1.1" xmlns="http://www.w3.org/2000/svg" xmlns:xlink="http://www.w3.org/1999/xlink" width="199.85701" height="242.34702" viewBox="0,0,199.85701,242.34702"><defs><radialGradient cx="134.33318" cy="284.59711" r="96.82864" gradientUnits="userSpaceOnUse" id="color-1"><stop offset="0" stop-color="#000000"/><stop offset="1" stop-color="#121212"/></radialGradient><radialGradient cx="64.7847" cy="197.97515" r="35.38781" gradientUnits="userSpaceOnUse" id="color-2"><stop offset="0" stop-color="#0e0e0e"/><stop offset="1" stop-color="#1f1f1f"/></radialGradient><radialGradient cx="142.21141" cy="283.63488" r="96.82864" gradientUnits="userSpaceOnUse" id="color-3"><stop offset="0" stop-color="#000000"/><stop offset="1" stop-color="#1f1f1f"/></radialGradient><radialGradient cx="152.05171" cy="372.38523" r="69.24835" gradientUnits="userSpaceOnUse" id="color-4"><stop offset="0" stop-color="#383027"/><stop offset="1" stop-color="#4e4337"/></radialGradient></defs><g transform="translate(-38.98151,-157.14445)"><g stroke-miterlimit="10"><path d="M61.18445,391.07951c0,0 -19.19,-157.1178 -22.11923,-181.10079c-0.72611,-5.945 3.35282,-11.70351 9.07951,-12.40295c17.82693,-2.17734 113.48758,-13.86111 148.11071,-18.08989c7.9807,-0.97474 11.93281,4.41193 12.68185,10.54465c2.96638,24.28723 22.023,180.31297 22.023,180.31297z" fill="url(#color-1)" stroke="#c7c7c7" stroke-width="0"/><path d="M59.29454,228.63674c0,0 -6.07196,-49.71411 -7.86224,-64.37199c-0.92869,-7.6036 16.75956,-10.07788 17.66828,-2.63771c1.78271,14.59592 7.91998,64.84468 7.91998,64.84468z" fill="url(#color-2)" stroke="#c7c7c7" stroke-width="0"/><path d="M69.06268,390.11728c0,0 -19.19,-157.11781 -22.11923,-181.10079c-0.72611,-5.945 3.35282,-11.70351 9.07951,-12.40295c17.82693,-2.17734 113.48758,-13.86111 148.11071,-18.08989c7.9807,-0.97474 11.93281,4.41193 12.68185,10.54465c2.96638,24.28723 22.023,180.31297 22.023,180.31297z" fill="url(#color-3)" stroke="#c7c7c7" stroke-width="0"/><path d="M81.88133,347.7733l-16.40599,-134.32381l134.32381,-16.40599l16.40599,134.32381z" fill="#000000" stroke="#000000" stroke-width="0"/><path d="M85.59945,399.49147l-4.57059,-37.42159c0,0 45.05606,-9.50092 67.66557,-12.26239c23.20028,-2.83363 69.80953,-4.5285 69.80953,-4.5285l4.57059,37.42159z" fill="url(#color-4)" stroke="#c7c7c7" stroke-width="0"/><text transform="translate(108.07771,230.45523) rotate(-7.73129) scale(0.48031,0.48031)" font-size="40" xml:space="preserve" fill="#dcdcdc" stroke="none" stroke-width="1" font-family="&quot;Century Gothic&quot;, Sans Serif" font-weight="normal" text-anchor="start"><tspan x="0" dy="0">HAND</tspan></text><text transform="translate(132.27743,338.59455) rotate(-7.42296) scale(0.52499,0.52499)" font-size="40" xml:space="preserve" fill="#dcdcdc" stroke="none" stroke-width="1" font-family="&quot;Century Gothic&quot;, Sans Serif" font-weight="normal" text-anchor="start"><tspan x="0" dy="0">□■□</tspan></text><text transform="translate(172.51439,216.3319) rotate(-7.73145) scale(0.19055,0.19055)" font-size="40" xml:space="preserve" fill="#5f5f5f" stroke="none" stroke-width="1" font-family="&quot;Century Gothic&quot;, Sans Serif" font-weight="normal" text-anchor="start"><tspan x="0" dy="0">SCAN</tspan></text><text transform="translate(76.10523,230.0585) rotate(-7.73145) scale(0.19055,0.19055)" font-size="40" xml:space="preserve" fill="#5f5f5f" stroke="none" stroke-width="1" font-family="&quot;Century Gothic&quot;, Sans Serif" font-weight="normal" text-anchor="start"><tspan x="0" dy="0">FLASH</tspan></text><path d="M129.86386,283.6v-22.38319h21.95275v22.38319z" fill="#000000" stroke="#dcdcdc" stroke-width="0"/><g stroke-width="1"><text transform="translate(112.42515,250.90443) rotate(-7.73094) scale(0.2371,0.2371)" font-size="40" xml:space="preserve" fill="#dcdcdc" stroke="none" font-family="&quot;VCR OSD Mono&quot;, Pixel" font-weight="normal" text-anchor="start"><tspan x="0" dy="0">[ Tools ]</tspan></text><g fill="none" stroke="#dcdcdc"><g><path d="M127.40985,305.71445c0,0 14.42423,-19.95779 18.05766,-26.58399c2.013,-3.67106 1.92226,-9.85294 1.92226,-9.85294c0,0 2.98111,4.89933 5.06501,6.37076c1.99157,1.40623 7.17394,2.27106 7.17394,2.27106c0,0 -5.69158,2.77835 -8.47236,5.9303c-5.00479,5.67283 -19.03486,25.24861 -19.03486,25.24861z"/><path d="M149.53678,258.85619c2.00852,-2.79669 9.87604,-6.16891 10.39291,-4.4493c0.71949,2.39374 -6.87279,12.12203 -6.87279,12.12203l6.96455,5.26784c0,0 6.9645,-10.78697 9.59399,-10.70765c1.89063,0.05704 -0.13233,10.74663 -0.7698,11.63426c-3.82932,5.33199 -11.25603,6.55015 -16.58802,2.72084c-5.33199,-3.82932 -6.55015,-11.25603 -2.72083,-16.58802z"/></g><g><path d="M160.1274,304.50462l-32.78861,-23.54805l4.95748,-6.90287l32.78861,23.54805z"/><path d="M121.91654,288.50658l-10.3543,-7.43623l15.80198,-22.00288l10.3543,7.43623z"/></g></g></g></g></g></svg>