<svg version="1.1" xmlns="http://www.w3.org/2000/svg" xmlns:xlink="http://www.w3.org/1999/xlink" width="746.08709" height="368.8756" viewBox="0,0,746.08709,368.8756"><g transform="translate(13,7.37411)"><g stroke-miterlimit="10"><path d="M51.23724,318.35134v-278.15015h602.49249v278.15015z" fill="#060606" stroke="#000000" stroke-width="0" stroke-linecap="butt"/><path d="M-13,74.92192v-82.29602h746v82.29602z" fill="#323232" stroke="#000000" stroke-width="0" stroke-linecap="butt"/><path d="M-13,361.5015v-82.29602h746v82.29602z" fill="#323232" stroke="#000000" stroke-width="0" stroke-linecap="butt"/><g fill="none" stroke-width="7.5" stroke-linecap="round"><path d="M644.53453,220.54054h-569.06907" stroke="#b7b7b7"/><path d="M596.51802,221v62" stroke="#b7b7b7"/><path d="M542.95946,221v62" stroke="#b7b7b7"/><path d="M489.4009,221v62" stroke="#b7b7b7"/><path d="M436.35285,221v62" stroke="#b7b7b7"/><path d="M382.79429,221v62" stroke="#b7b7b7"/><path d="M329.23573,221v62" stroke="#b7b7b7"/><path d="M276.18769,221v62" stroke="#b7b7b7"/><path d="M222.62913,221v62" stroke="#b7b7b7"/><path d="M169.07057,221v62" stroke="#b7b7b7"/><path d="M117.48949,221.4955v62" stroke="#b7b7b7"/></g><path d="M-13,360v-360l115.08436,39.42343l0.39012,278.65015z" fill="#505050" stroke="none" stroke-width="0" stroke-linecap="butt"/><path d="M617.61262,318.07357l0.39012,-278.65015l115.08436,-39.42342v360z" fill="#505050" stroke="none" stroke-width="0" stroke-linecap="butt"/></g></g></svg>