<svg version="1.1" xmlns="http://www.w3.org/2000/svg" xmlns:xlink="http://www.w3.org/1999/xlink" width="151.5" height="147" viewBox="0,0,151.5,147"><defs><linearGradient x1="360" y1="106.5" x2="360" y2="253.5" gradientUnits="userSpaceOnUse" id="color-1"><stop offset="0" stop-color="#000000"/><stop offset="1" stop-color="#272727"/></linearGradient><radialGradient cx="351.24466" cy="115.07524" r="47.35768" gradientUnits="userSpaceOnUse" id="color-2"><stop offset="0" stop-color="#0c0c0c"/><stop offset="1" stop-color="#121212"/></radialGradient><linearGradient x1="358.63095" y1="111.49094" x2="358.63095" y2="200.37332" gradientUnits="userSpaceOnUse" id="color-3"><stop offset="0" stop-color="#a30000"/><stop offset="1" stop-color="#450000"/></linearGradient><radialGradient cx="344.66689" cy="241.5084" r="21.27165" gradientUnits="userSpaceOnUse" id="color-4"><stop offset="0" stop-color="#be915f"/><stop offset="1" stop-color="#7f613f"/></radialGradient><radialGradient cx="343.09639" cy="238.28591" r="5.41568" gradientUnits="userSpaceOnUse" id="color-5"><stop offset="0" stop-color="#323232"/><stop offset="1" stop-color="#393939"/></radialGradient><radialGradient cx="341.86576" cy="232.31718" r="7.42722" gradientUnits="userSpaceOnUse" id="color-6"><stop offset="0" stop-color="#636363"/><stop offset="1" stop-color="#484848"/></radialGradient><radialGradient cx="325.66607" cy="240.27197" r="3.51782" gradientUnits="userSpaceOnUse" id="color-7"><stop offset="0" stop-color="#d7d7d7"/><stop offset="1" stop-color="#c6c6c6"/></radialGradient><radialGradient cx="329.58424" cy="236.3615" r="4.55786" gradientUnits="userSpaceOnUse" id="color-8"><stop offset="0" stop-color="#e4e4e4"/><stop offset="1" stop-color="#d9d9d9"/></radialGradient><radialGradient cx="358.62248" cy="233.29656" r="3.61818" gradientUnits="userSpaceOnUse" id="color-9"><stop offset="0" stop-color="#d7d7d7"/><stop offset="1" stop-color="#c6c6c6"/></radialGradient><radialGradient cx="356.1541" cy="234.54109" r="3.65135" gradientUnits="userSpaceOnUse" id="color-10"><stop offset="0" stop-color="#ffffff"/><stop offset="1" stop-color="#d9d9d9"/></radialGradient><radialGradient cx="345.12168" cy="237.40886" r="3.58288" gradientUnits="userSpaceOnUse" id="color-11"><stop offset="0" stop-color="#ffffff"/><stop offset="1" stop-color="#d9d9d9"/></radialGradient><radialGradient cx="340.37812" cy="238.07875" r="3.58288" gradientUnits="userSpaceOnUse" id="color-12"><stop offset="0" stop-color="#d7d7d7"/><stop offset="1" stop-color="#c6c6c6"/></radialGradient><radialGradient cx="350.72534" cy="236.38964" r="4.11341" gradientUnits="userSpaceOnUse" id="color-13"><stop offset="0" stop-color="#e4e4e4"/><stop offset="1" stop-color="#d9d9d9"/></radialGradient><radialGradient cx="335.11763" cy="239.50444" r="4.11341" gradientUnits="userSpaceOnUse" id="color-14"><stop offset="0" stop-color="#ffffff"/><stop offset="1" stop-color="#d9d9d9"/></radialGradient><radialGradient cx="352.19939" cy="160.02247" r="19.65119" gradientUnits="userSpaceOnUse" id="color-15"><stop offset="0" stop-color="#c28846"/><stop offset="1" stop-color="#ab783d"/></radialGradient><radialGradient cx="350.67709" cy="167.31863" r="11.4287" gradientUnits="userSpaceOnUse" id="color-16"><stop offset="0" stop-color="#dca96e"/><stop offset="1" stop-color="#bf925f"/></radialGradient><radialGradient cx="307.21356" cy="168.05348" r="19.6512" gradientUnits="userSpaceOnUse" id="color-17"><stop offset="0" stop-color="#c28846"/><stop offset="1" stop-color="#ab783d"/></radialGradient><radialGradient cx="311.41987" cy="174.2064" r="11.4287" gradientUnits="userSpaceOnUse" id="color-18"><stop offset="0" stop-color="#dca96e"/><stop offset="1" stop-color="#bf925f"/></radialGradient><radialGradient cx="339.96166" cy="210.24286" r="48.26922" gradientUnits="userSpaceOnUse" id="color-19"><stop offset="0" stop-color="#f2aa58"/><stop offset="1" stop-color="#ba8243"/></radialGradient><radialGradient cx="335.16552" cy="213.68083" r="43.64064" gradientUnits="userSpaceOnUse" id="color-20"><stop offset="0" stop-color="#f2ba7a"/><stop offset="1" stop-color="#cb9c66"/></radialGradient><radialGradient cx="309.00124" cy="229.23333" r="9.84107" gradientUnits="userSpaceOnUse" id="color-21"><stop offset="0" stop-color="#c22424"/><stop offset="1" stop-color="#ab2121"/></radialGradient><radialGradient cx="372.87844" cy="216.29614" r="9.84107" gradientUnits="userSpaceOnUse" id="color-22"><stop offset="0" stop-color="#c22424"/><stop offset="1" stop-color="#ab2121"/></radialGradient><radialGradient cx="326.72535" cy="205.59645" r="12.13095" gradientUnits="userSpaceOnUse" id="color-23"><stop offset="0" stop-color="#0e0e0e"/><stop offset="1" stop-color="#000000"/></radialGradient><radialGradient cx="347.17055" cy="201.79324" r="12.13095" gradientUnits="userSpaceOnUse" id="color-24"><stop offset="0" stop-color="#0e0e0e"/><stop offset="1" stop-color="#000000"/></radialGradient><radialGradient cx="148.95603" cy="210.09259" r="0.00143" gradientUnits="userSpaceOnUse" id="color-25"><stop offset="0" stop-color="#ffffff"/><stop offset="1" stop-color="#bababa"/></radialGradient><radialGradient cx="325.58741" cy="204.17826" r="9.49772" gradientUnits="userSpaceOnUse" id="color-26"><stop offset="0" stop-color="#ffffff"/><stop offset="1" stop-color="#bababa"/></radialGradient><radialGradient cx="347.64553" cy="200.27948" r="9.49771" gradientUnits="userSpaceOnUse" id="color-27"><stop offset="0" stop-color="#ffffff"/><stop offset="1" stop-color="#bababa"/></radialGradient><radialGradient cx="357.97522" cy="238.07848" r="3.3232" gradientUnits="userSpaceOnUse" id="color-28"><stop offset="0" stop-color="#d7d7d7"/><stop offset="1" stop-color="#c6c6c6"/></radialGradient><radialGradient cx="355.60378" cy="238.95915" r="3.3354" gradientUnits="userSpaceOnUse" id="color-29"><stop offset="0" stop-color="#ffffff"/><stop offset="1" stop-color="#d9d9d9"/></radialGradient><radialGradient cx="327.4183" cy="241.17593" r="3.31593" gradientUnits="userSpaceOnUse" id="color-30"><stop offset="0" stop-color="#d7d7d7"/><stop offset="1" stop-color="#c6c6c6"/></radialGradient><radialGradient cx="330.60624" cy="246.11236" r="4.26218" gradientUnits="userSpaceOnUse" id="color-31"><stop offset="0" stop-color="#e4e4e4"/><stop offset="1" stop-color="#d9d9d9"/></radialGradient><radialGradient cx="345.50918" cy="243.99573" r="3.31681" gradientUnits="userSpaceOnUse" id="color-32"><stop offset="0" stop-color="#ffffff"/><stop offset="1" stop-color="#d9d9d9"/></radialGradient><radialGradient cx="341.92445" cy="244.85401" r="3.31682" gradientUnits="userSpaceOnUse" id="color-33"><stop offset="0" stop-color="#d7d7d7"/><stop offset="1" stop-color="#c6c6c6"/></radialGradient><radialGradient cx="350.97629" cy="241.90442" r="3.80793" gradientUnits="userSpaceOnUse" id="color-34"><stop offset="0" stop-color="#e4e4e4"/><stop offset="1" stop-color="#d9d9d9"/></radialGradient><radialGradient cx="336.27004" cy="244.12485" r="3.80795" gradientUnits="userSpaceOnUse" id="color-35"><stop offset="0" stop-color="#ffffff"/><stop offset="1" stop-color="#d9d9d9"/></radialGradient><radialGradient cx="344.01152" cy="246.52479" r="21.3801" gradientUnits="userSpaceOnUse" id="color-36"><stop offset="0" stop-color="#d5a46b"/><stop offset="1" stop-color="#cc9c66"/></radialGradient><radialGradient cx="340.88047" cy="228.58918" r="20.6662" gradientUnits="userSpaceOnUse" id="color-37"><stop offset="0" stop-color="#f2ba7a"/><stop offset="1" stop-color="#d7a56c"/></radialGradient><radialGradient cx="340.03557" cy="217.74239" r="5.98747" gradientUnits="userSpaceOnUse" id="color-38"><stop offset="0" stop-color="#0e0e0e"/><stop offset="1" stop-color="#000000"/></radialGradient><linearGradient x1="360" y1="106.5" x2="360" y2="253.5" gradientUnits="userSpaceOnUse" id="color-39"><stop offset="0" stop-color="#000000" stop-opacity="0"/><stop offset="1" stop-color="#000000"/></linearGradient></defs><g transform="translate(-284.25,-106.5)"><g data-paper-data="{&quot;isPaintingLayer&quot;:true}" fill-rule="nonzero" stroke-linejoin="miter" stroke-miterlimit="10" stroke-dasharray="" stroke-dashoffset="0" style="mix-blend-mode: normal"><path d="M284.25,253.5v-147h151.5v147z" fill="url(#color-1)" stroke="none" stroke-width="NaN" stroke-linecap="butt"/><g><g><path d="M394.94585,179.54085l6.70604,2.80885l-0.19724,4.21329" fill="none" stroke="#000000" stroke-width="1" stroke-linecap="round"/><path d="M397.91942,156.72779c0,24.54418 -17.59006,39.86174 -39.28848,39.86174c-21.69842,0 -39.09616,-15.31754 -39.09616,-39.86173c0,-8.61496 1.97478,-16.65741 5.72598,-23.46786c1.72617,-3.13393 5.19096,-4.75804 7.53119,-7.30596c2.20326,-2.3988 3.25028,-5.75836 5.90007,-7.52717c5.84491,-3.90163 12.6608,-5.79785 19.93891,-5.79785c21.69843,0 39.28848,19.55466 39.28848,44.09884z" fill="url(#color-2)" stroke="#0a0a0a" stroke-width="1.5" stroke-linecap="butt"/><path d="M400.4908,155.03525c0,4.46321 -0.79268,8.77579 -1.90222,12.84962c-0.37051,1.36039 -2.7308,2.69415 -3.16902,3.99802c-0.53591,1.59453 0.82533,3.14433 0.07883,4.64342c-0.3553,0.7135 -0.57223,13.42456 -1.00628,14.15456c-0.50952,0.85691 -1.24367,-10.27073 -1.74491,-9.49541c-7.56896,11.70782 -19.91854,19.18787 -34.11626,19.18787c-23.11855,0 -41.85985,-20.29854 -41.85985,-45.33808c0,-3.29364 1.17463,-5.81846 2.85246,-7.98614c1.07036,0.47717 2.27849,0.7457 3.55709,0.7457c4.39268,0 7.95366,-3.16951 7.95366,-7.07928c0,-1.54893 -0.55889,-2.98167 -1.50698,-4.14718c0.21342,-0.27972 0.44804,-0.58804 0.69133,-0.90865c3.89278,-0.46029 6.89619,-3.4266 6.89619,-7.01726c0,-0.2737 -0.01745,-0.54378 -0.05142,-0.8094c0.16566,-0.3868 0.29431,-0.78985 0.38212,-1.20574c2.57981,-1.17041 4.34664,-3.55712 4.34664,-6.31113c0,-0.89106 -0.18497,-1.7437 -0.52259,-2.52911c1.38072,-0.19186 2.9713,-0.15612 4.65095,-1.01767c0.07968,-0.04087 0.15726,-0.08256 0.23289,-0.12503c1.07799,0.48582 2.2971,0.75956 3.58804,0.75956c3.94025,0 7.2113,-2.55023 7.84332,-5.89741c0.31517,-0.01033 0.6306,-0.01554 0.94615,-0.01554c23.11856,0 41.85985,18.50477 41.85985,43.5443z" fill="url(#color-3)" stroke="#4f0000" stroke-width="2" stroke-linecap="butt"/><path d="M363.47335,113.9597l1.70808,-4.22307l3.60595,-0.50678" fill="none" stroke="#000000" stroke-width="1" stroke-linecap="round"/><path d="M318.8734,165.48119l-3.22638,1.68923l-1.13872,-2.87169" fill="none" stroke="#000000" stroke-width="1" stroke-linecap="round"/><path d="M322.24517,148.02302c0,0 6.67159,14.92119 15.5004,27.49626c1.28826,1.8349 3.10416,3.49116 4.47951,4.97028c2.90456,3.12372 8.53731,2.43611 8.53731,2.43611c0,0 5.32683,6.94148 7.49826,6.94148c3.82765,0 12.43255,-9.62625 12.43255,-9.62625c0,0 8.63219,-1.5028 10.8518,-4.57748c8.87361,-12.29204 14.13435,-27.64041 14.13435,-27.64041l-2.47872,12.33012c0,0 0.37443,2.62505 -0.31285,5.34891c-0.48278,1.91338 -1.96331,3.87553 -2.41995,5.01079c-1.77545,4.41398 -8.30663,15.22433 -8.30663,15.22433c0,0 -0.99341,5.85342 -2.73107,8.39473c-2.44863,3.58108 -9.08782,0.01251 -9.08782,0.01251l-0.83289,3.53683c0,0 -3.21111,-0.74704 -4.65748,0.15988c-2.43823,1.52885 -5.00668,2.95115 -6.12354,2.95115c-5.62313,0 -13.18912,-10.96314 -13.18912,-10.96314c0,0 -2.29375,4.13532 -3.9418,3.36669c-1.69387,-0.79 -3.28133,-6.37905 -3.28133,-6.37905l-4.61379,-1.02241c0,0 0.33821,-1.50861 -0.31508,-3.07747c-0.6741,-1.61882 -2.34573,-3.30826 -2.70528,-3.8966c-0.96202,-1.5742 -2.7163,-6.57054 -3.19334,-7.91301c-0.63033,-1.77383 -3.16331,-3.38202 -3.79663,-6.01543c-0.56618,-2.35422 0.76153,-5.695 0.28445,-8.0181c-1.01544,-4.94446 -1.73132,-9.05072 -1.73132,-9.05072z" fill="#000000" stroke="none" stroke-width="0" stroke-linecap="butt"/><g stroke="none" stroke-linecap="butt"><path d="M353.08326,152.05589c0,8.91848 -1.73443,16.07061 -3.79298,20.56666c-1.31764,2.87785 -2.5371,4.87307 -4.27639,4.87307c-2.0054,0 -3.83993,-2.18942 -5.25132,-5.9306c-0.50182,-1.33019 -1.41788,8.82487 -1.80137,7.13102c-0.244,-1.07772 0.006,-13.90463 -0.1826,-15.11059c-0.53396,-3.41459 -0.83409,-7.31363 -0.83409,-11.52955c0,-7.48153 1.46552,-12.73047 2.98532,-17.54679c1.45155,-4.60003 2.90693,-8.93783 5.08404,-8.93783c4.45659,0 8.06937,11.85757 8.06937,26.48462z" fill="#000000" stroke-width="0"/><path d="M347.22376,152.22924c0,-0.29323 0.26706,-0.53094 0.59652,-0.53094c0.32946,0 0.59652,0.23771 0.59652,0.53094c0,0.29323 -0.26706,0.53095 -0.59652,0.53095c-0.32946,0 -0.59652,-0.23772 -0.59652,-0.53095z" fill="#ffffff" stroke-width="0.5"/></g><g stroke-linecap="butt"><path d="M381.6589,152.95368c0,2.40184 -0.09742,4.729 -0.27998,6.94124c-0.05935,0.71923 0.65912,2.59351 0.58218,3.28706c-0.18243,1.64454 -1.19992,2.0458 -1.47319,3.51977c-1.41583,7.63652 -3.97564,12.73653 -6.89839,12.73653c-4.45659,0 -8.06937,-11.85757 -8.06937,-26.48461c0,-10.22608 1.24127,-20.0323 3.82673,-24.4456c1.1127,-1.89934 2.90174,-2.03902 4.24264,-2.03902c4.45659,0 8.06937,11.85757 8.06937,26.48462z" fill="#000000" stroke="#000000" stroke-width="0"/><path d="M370.3406,152.12103c0,-0.29323 0.26706,-0.53094 0.59652,-0.53094c0.32946,0 0.59652,0.23771 0.59652,0.53094c0,0.29323 -0.26706,0.53095 -0.59652,0.53095c-0.32946,0 -0.59652,-0.23772 -0.59652,-0.53095z" fill="#ffffff" stroke="none" stroke-width="0.5"/></g></g><g><g stroke="none" stroke-linecap="butt"><path d="M364.12033,237.98112c0.65854,3.29981 -6.74024,7.20292 -18.26107,9.5021c-11.52084,2.29919 -21.05536,1.53875 -21.71389,-1.76105c-0.65854,-3.29981 7.2134,-8.1257 18.7342,-10.42489c11.52084,-2.29919 20.58221,-0.61597 21.24075,2.68384z" fill="url(#color-4)" stroke-width="0"/><g><path d="M348.40735,237.22601c0.31652,1.58603 -1.87856,3.29238 -4.81172,3.87775c-2.93316,0.58536 -5.49366,-0.17193 -5.81018,-1.75796c-0.31652,-1.58603 1.80186,-2.72791 4.73502,-3.31328c2.93316,-0.58536 5.57037,-0.39254 5.88689,1.19348z" fill="url(#color-5)" stroke-width="0"/><path d="M349.25033,239.60891c-0.68461,-0.12707 -0.55753,-0.81169 -0.55753,-0.81169l0.06444,-0.27064c0.02115,-0.71238 -0.72711,-1.23107 -1.00309,-1.88817c-0.45081,-1.07342 0.61206,-1.72667 0.03902,-2.68725c-0.8406,-1.40906 -3.24156,-1.24592 -4.59152,-1.22173c0,0 -0.6962,0.01192 -0.70813,-0.68427c-0.01193,-0.69619 0.68428,-0.70813 0.68428,-0.70813c1.94258,-0.03187 4.66467,-0.03207 5.81578,1.90821c0.53035,0.89395 -0.27261,2.36124 0.03673,2.83569c0.66312,1.01708 1.05748,1.07802 1.11933,2.42182l-0.08763,0.54864c0,0 -0.12707,0.68461 -0.81169,0.55754z" fill="#2f2f2f" stroke-width="0.5"/><path d="M332.0948,240.47993c-0.13627,-0.68284 0.54657,-0.81911 0.54657,-0.81911l0.15173,-0.03028c1.68073,-0.30863 -0.10245,-2.23585 1.16246,-3.779c2.07521,-2.5317 4.62242,-2.01089 7.47293,-1.95096c0,0 0.69614,0.01509 0.68104,0.71124c-0.01509,0.69614 -0.71124,0.68104 -0.71124,0.68104c-2.41672,-0.05394 -4.57729,-0.6881 -6.36616,1.44202c-1.37894,1.642 1.34301,3.56249 -1.96651,4.26134l-0.15173,0.03028c0,0 -0.68284,0.13627 -0.81911,-0.54657z" fill="#2f2f2f" stroke-width="0.5"/><path d="M351.65646,237.68446c-0.54981,0.42726 -0.97706,-0.12255 -0.97706,-0.12255l-0.46496,-0.83735c0.00512,-4.00433 -4.53522,-1.49991 -6.91988,-1.49148c0,0 -0.6963,-0.00029 -0.69601,-0.69659c0.0003,-0.69629 0.69659,-0.69602 0.69659,-0.69602c3.26271,0.01671 8.30978,-2.63978 8.3119,2.88466l0.17195,-0.01775c0,0 0.42726,0.54981 -0.12254,0.97706z" fill="#404040" stroke-width="0.5"/><path d="M334.65348,240.78632c-0.68461,-0.12707 -0.55754,-0.81169 -0.55754,-0.81169l0.21279,-0.71233c0.73424,-0.93502 1.8844,-1.69992 2.39741,-2.78699c0.53765,-1.13934 -0.05629,-1.99101 1.11868,-3.03705c0.88518,-0.78805 2.00625,-0.8279 3.05997,-1.24919c0,0 0.64745,-0.25623 0.90367,0.39121c0.25621,0.64744 -0.39122,0.90368 -0.39122,0.90368c-0.84374,0.33095 -1.95287,0.37277 -2.64598,0.99403c-0.90593,0.81204 -0.32215,1.50817 -0.76509,2.5458c-0.52918,1.23969 -1.769,2.06082 -2.58174,3.09803l0.06073,0.10694c0,0 -0.12707,0.68461 -0.81168,0.55755z" fill="#404040" stroke-width="0.5"/><path d="M341.59733,239.27385l-2.64974,-13.27739l3.18658,-0.63594l2.64974,13.27739c0,0 -1.03089,0.60019 -1.55551,0.70489c-0.53726,0.10722 -1.63107,-0.06895 -1.63107,-0.06895z" fill="url(#color-6)" stroke-width="0"/></g></g><g stroke="none" stroke-width="0" stroke-linecap="butt"><path d="M325.57031,241.63183c-1.93053,0.43035 -3.9612,-1.27409 -4.53564,-3.80695c-0.29865,-1.31686 6.71529,-2.77441 6.99108,-1.55842c0.57444,2.53286 -0.52491,4.93502 -2.45543,5.36536z" fill="url(#color-7)"/><path d="M326.01248,236.46951c-0.00414,-1.2501 7.13896,-1.5698 7.14346,-0.21602c0.00866,2.60389 -1.58347,4.76312 -3.55608,4.82278c-1.97261,0.05966 -3.57872,-2.00286 -3.58738,-4.60675z" fill="url(#color-8)"/><path d="M356.85736,231.24954c-0.30129,-1.2364 6.78535,-3.02716 7.11165,-1.6882c0.62759,2.57536 -0.45565,5.04103 -2.41949,5.50722c-1.96383,0.46618 -4.06458,-1.24364 -4.69217,-3.81901z" fill="url(#color-9)"/><path d="M356.82067,236.5053c-1.83353,0.82438 -4.27487,-0.44341 -5.45291,-2.83171c-0.61247,-1.2417 6.07422,-4.13193 6.63977,-2.98534c1.17804,2.3883 0.64667,4.99267 -1.18686,5.81705z" fill="url(#color-10)"/><path d="M340.77561,235.07992c-0.10846,-1.24316 7.00267,-2.07876 7.12012,-0.73246c0.22591,2.58945 -1.18485,4.85257 -3.15102,5.05483c-1.96617,0.20227 -3.74319,-1.73294 -3.9691,-4.32238z" fill="url(#color-11)"/><path d="M339.89407,240.49561c-1.89319,0.56794 -4.06457,-0.98031 -4.84993,-3.45811c-0.40832,-1.28824 6.47881,-3.24624 6.85585,-2.05668c0.78535,2.47781 -0.11273,4.94685 -2.00592,5.5148z" fill="url(#color-12)"/><path d="M345.79147,234.43306c-0.12451,-1.42723 8.03955,-2.38654 8.17439,-0.84092c0.25936,2.97286 -1.36028,5.57109 -3.61757,5.8033c-2.25729,0.23222 -4.29746,-1.98953 -4.55681,-4.96238z" fill="url(#color-13)"/><path d="M335.08325,242.44186c-2.17351,0.65203 -4.66642,-1.12545 -5.56805,-3.97014c-0.46876,-1.47898 7.43811,-3.72691 7.87099,-2.36122c0.90164,2.84469 -0.12941,5.67934 -2.30293,6.33136z" fill="url(#color-14)"/></g><g stroke="none" stroke-width="0" stroke-linecap="butt"><path d="M340.5723,165.31809c3.07092,-5.85653 6.69599,-11.36394 12.27504,-9.99598c5.14691,1.26202 6.71658,7.49125 7.67655,14.15567c0.89767,6.23193 1.64982,12.11679 1.64982,12.11679l-26.19763,-7.38783c0,0 2.18487,-4.28998 4.59622,-8.88864z" fill="url(#color-15)"/><path d="M343.26516,165.75143c2.41527,-4.25151 5.20973,-8.55945 9.24189,-7.57078c3.86069,0.94664 5.19083,6.21926 6.0082,11.24606c0.84626,5.20442 1.11014,10.15188 1.11014,10.15188l-20.66863,-5.82864c0,0 2.01684,-3.96476 4.30839,-7.99852z" fill="url(#color-16)"/></g><g stroke="none" stroke-width="0" stroke-linecap="butt"><path d="M327.63872,174.92388l-21.35499,16.87781c0,0 -1.56437,-5.72278 -3.12757,-11.82189c-1.67169,-6.52237 -2.61335,-12.87694 1.65488,-16.01791c4.62656,-3.40468 10.08796,0.28936 15.17167,4.51851c3.99181,3.32079 7.65602,6.44349 7.65602,6.44349z" fill="url(#color-17)"/><path d="M324.71108,175.64621l-16.84802,13.31576c0,0 -1.6554,-4.66974 -2.87168,-9.80033c-1.17477,-4.95547 -1.9704,-10.33478 1.23118,-12.6908c3.34378,-2.46067 7.57778,0.44462 11.43996,3.44335c3.66437,2.84514 7.04857,5.73203 7.04857,5.73203z" fill="url(#color-18)"/></g><g><path d="M303.85344,213.05204c-4.07075,-19.05424 6.85489,-38.33104 25.90913,-42.4018c19.05424,-4.07075 37.80074,8.07576 41.8715,27.12999c0.95073,4.45017 16.4957,3.8678 15.79584,8.10135c-0.80503,4.8697 -7.30551,25.2243 -21.65467,34.6272c-0.56845,0.3725 -2.1838,-12.04102 -9.72108,-15.42514c-9.86431,-4.42891 -26.79314,2.78169 -29.02077,4.8437c-6.07229,5.62088 -2.43173,18.9596 -3.05061,18.89069c-18.78407,-2.09145 -27.31528,-16.24291 -31.56316,-23.73735c-1.73159,-3.055 12.20641,-8.41237 11.43384,-12.02864z" fill="url(#color-19)" stroke="none" stroke-width="0" stroke-linecap="butt"/><path d="M309.80923,216.21035c-3.73344,-17.47526 4.28364,-34.72668 21.51074,-38.40708c17.2271,-3.68042 33.86199,8.05346 37.59541,25.52874c0.87195,4.08138 16.88335,7.25109 16.88335,7.25109c0,0 -1.84513,8.6705 -6.54234,15.54819c-5.39006,7.89218 -13.41234,15.03767 -14.27454,15.60864c-0.51328,0.33991 -3.06193,-11.72858 -9.88975,-14.85039c-8.93581,-4.08562 -24.15907,2.84247 -26.16886,4.72651c-5.47851,5.13573 -3.09578,17.5204 -3.65587,17.45559c-2.31934,-0.26837 -10.05689,-0.92616 -16.57427,-5.21371c-8.00895,-5.26882 -14.27082,-15.57124 -14.27082,-15.57124c0,0 16.09551,-8.75973 15.38695,-12.07633z" fill="url(#color-20)" stroke="none" stroke-width="0" stroke-linecap="butt"/><path d="M299.35044,231.15932c-1.06369,-5.32998 2.3948,-10.51306 7.72477,-11.57675c5.32997,-1.06369 10.51306,2.3948 11.57675,7.72478c1.06369,5.32997 -2.39481,10.51306 -7.72478,11.57675c-5.32997,1.06369 -10.51305,-2.39482 -11.57674,-7.72478z" fill="url(#color-21)" stroke="none" stroke-width="0" stroke-linecap="butt"/><path d="M363.22767,218.22212c-1.06369,-5.32998 2.39481,-10.51306 7.72478,-11.57675c5.32997,-1.06369 10.51306,2.3948 11.57675,7.72478c1.06369,5.32997 -2.39481,10.51306 -7.72478,11.57675c-5.32997,1.06369 -10.51306,-2.39481 -11.57675,-7.72478z" fill="url(#color-22)" stroke="none" stroke-width="0" stroke-linecap="butt"/><path d="M314.829,207.97058c-1.33525,-6.6907 2.9085,-13.1775 9.47868,-14.4887c6.57017,-1.3112 10.19528,3.60524 11.53053,10.29593c1.33525,6.6907 -1.21996,11.00534 -7.79015,12.31654c-6.57017,1.3112 -11.88381,-1.43308 -13.21906,-8.12377z" fill="url(#color-23)" stroke="none" stroke-width="0" stroke-linecap="butt"/><path d="M349.97876,211.9947c-6.57017,1.3112 -10.50037,-1.26387 -11.83561,-7.95456c-1.33525,-6.6907 0.03952,-13.05024 6.60971,-14.36144c6.57017,-1.3112 12.9788,3.04975 14.31404,9.74045c1.33525,6.6907 -2.51794,11.26437 -9.08814,12.57557z" fill="url(#color-24)" stroke="none" stroke-width="0" stroke-linecap="butt"/><path d="M341.46684,226.14736l-9.55348,-47.8708" fill="none" stroke-opacity="0.16863" stroke="#4d3b27" stroke-width="0.5" stroke-linecap="round"/></g><path d="M288.1196,207.36978z" fill="url(#color-25)" stroke="none" stroke-width="0" stroke-linecap="butt"/><path d="M316.27337,206.03704c-1.02658,-5.144 2.31126,-10.14626 7.45525,-11.17283c5.144,-1.02658 10.14626,2.31126 11.17284,7.45526c1.02658,5.144 -2.31126,10.14625 -7.45527,11.17283c-5.144,1.02658 -10.14624,-2.31125 -11.17282,-7.45524z" fill="url(#color-26)" stroke="none" stroke-width="0" stroke-linecap="butt"/><path d="M338.33148,202.13827c-1.02658,-5.144 2.31126,-10.14625 7.45527,-11.17283c5.144,-1.02658 10.14625,2.31126 11.17282,7.45526c1.02658,5.144 -2.31126,10.14625 -7.45526,11.17282c-5.144,1.02658 -10.14626,-2.31125 -11.17283,-7.45524z" fill="url(#color-27)" stroke="none" stroke-width="0" stroke-linecap="butt"/><g><g stroke="none" stroke-width="0" stroke-linecap="butt"><path d="M358.41976,234.48636c1.50473,-1.11168 3.94461,0.00768 5.44964,2.50017c0.78247,1.29587 -4.72654,5.22238 -5.44909,4.02577c-1.50503,-2.49249 -1.50527,-5.41426 -0.00055,-6.52594z" fill="url(#color-28)"/><path d="M359.51172,240.58731c0.50031,1.32496 -5.57289,4.08805 -6.11472,2.65318c-1.04213,-2.75984 -0.51813,-5.59107 1.17041,-6.32373c1.68854,-0.73266 3.90218,0.91071 4.94431,3.67055z" fill="url(#color-29)"/><path d="M329.14507,245.99142c-0.39891,1.31736 -6.75443,-1.33158 -6.32241,-2.75822c0.83091,-2.74402 2.91981,-4.35103 4.6657,-3.58938c1.74589,0.76166 2.48762,3.60359 1.65671,6.3476z" fill="url(#color-30)"/><path d="M331.17259,240.85105c1.82842,0.35395 3.05708,2.99644 2.74431,5.90219c-0.16262,1.51073 -6.77146,0.11324 -6.62129,-1.28177c0.31279,-2.90574 2.04857,-4.97437 3.877,-4.62042z" fill="url(#color-31)"/><path d="M345.09628,241.71766c1.74477,-0.56502 3.83657,1.27751 4.6722,4.11541c0.43445,1.47545 -5.91719,3.40859 -6.31835,2.04616c-0.83561,-2.83789 -0.09861,-5.59652 1.64616,-6.16155z" fill="url(#color-32)"/><path d="M344.44137,247.53848c0.15253,1.41206 -6.45457,2.06507 -6.61975,0.53588c-0.31772,-2.94125 0.90659,-5.44557 2.7346,-5.59354c1.828,-0.14799 3.56745,2.11641 3.88516,5.05767z" fill="url(#color-33)"/><path d="M349.4651,238.86371c2.00311,-0.6487 4.40466,1.46665 5.364,4.72476c0.49877,1.69393 -6.79335,3.91331 -7.25391,2.34913c-0.95934,-3.2581 -0.1132,-6.4252 1.88991,-7.07388z" fill="url(#color-34)"/><path d="M339.53655,246.8274c0.17512,1.62114 -7.41029,2.37087 -7.59994,0.61524c-0.36477,-3.37676 1.04086,-6.2519 3.13952,-6.42179c2.09866,-0.16989 4.09566,2.42979 4.46043,5.80655z" fill="url(#color-35)"/></g><path d="M364.80951,235.77992c1.03693,5.19587 -7.4755,11.69718 -19.77016,14.1508c-12.29466,2.45362 -22.14578,-0.75483 -23.18271,-5.95071c-0.50611,-2.53603 7.99322,3.95981 21.93579,0.41168c11.72528,-1.90682 20.48625,-11.27164 21.01707,-8.61178z" fill="url(#color-36)" stroke="none" stroke-width="0" stroke-linecap="butt"/><path d="M343.42804,244.72379l1.01181,5.06999" fill="none" stroke-opacity="0.16863" stroke="#4d3b27" stroke-width="0.5" stroke-linecap="round"/></g><g><g><path d="M362.97862,228.5376c0.97018,4.86139 -7.53962,5.36066 -18.57533,8.69545c-2.00103,0.60467 -2.63341,-8.80775 -2.63341,-8.80775c0,0 2.27695,9.09132 0.28664,9.29691c-11.75958,1.21473 -18.58903,4.02548 -19.56922,-0.88609c-1.14609,-5.74287 -0.05948,-16.98086 16.84877,-20.3552c16.90825,-3.37434 22.49644,6.31382 23.64254,12.05669z" fill="url(#color-37)" stroke="none" stroke-width="0" stroke-linecap="butt"/><path d="M343.04941,235.36668l-2.93112,-16.29755" fill="none" stroke-opacity="0.16863" stroke="#4d3b27" stroke-width="0.5" stroke-linecap="round"/><path d="M345.90726,216.57059c0.11639,0.58321 -2.39535,0.38086 -3.58239,1.23019c-0.42086,0.30112 -1.25679,2.24765 -2.0649,2.34877c-0.96537,0.1208 -1.83052,-1.17199 -2.48857,-1.46359c-0.74868,-0.33176 -3.52836,0.62483 -3.60751,0.22824c-0.20695,-1.03698 2.09261,-3.21154 5.33547,-3.85871c3.24286,-0.64717 6.20096,0.47813 6.40791,1.5151z" fill="url(#color-38)" stroke="none" stroke-width="0" stroke-linecap="butt"/></g><g fill="none" stroke-opacity="0.18431" stroke="#382b1b" stroke-width="1" stroke-linecap="round"><path d="M355.89694,228.00899c0,0 7.14904,-1.68165 12.913,-6.1913c5.43033,-4.24863 11.6707,-1.74108 11.82833,-1.73395"/><path d="M376.60437,208.08899c-0.08411,-0.0038 -0.6405,2.41949 -3.04714,4.31721c-1.78685,1.40899 -5.10736,2.03603 -7.29899,3.76444c-5.13698,4.05127 -11.25176,6.9793 -11.25176,6.9793"/></g><g fill="none" stroke-opacity="0.18431" stroke="#382b1b" stroke-width="1" stroke-linecap="round"><path d="M329.44056,227.28229c0,0 -7.33325,-0.40014 -14.13408,2.30335c-6.40718,2.54702 -11.68858,-1.61675 -11.83783,-1.66798"/><path d="M303.96061,240.56299c0.07963,0.02733 1.29607,-2.14111 4.13981,-3.2841c2.11138,-0.84864 5.47406,-0.51497 8.06381,-1.55609c6.07012,-2.44028 12.76206,-3.52738 12.76206,-3.52738"/></g></g></g><g stroke-linecap="butt"><g stroke="none" stroke-width="0"><path d="M412.6237,234.2621c-1.7705,7.66832 -9.24639,13.40573 -34.25439,7.22921c-25.53996,-6.3079 -29.63197,-13.90252 -27.86147,-21.57084c1.7705,-7.66832 15.69547,-9.205 33.99181,-4.98065c18.29634,4.22435 29.89455,11.65395 28.12405,19.32227z" fill="#893834"/><path d="M410.1183,232.17492c-1.34628,5.83096 -13.66663,6.79469 -30.29222,2.95609c-16.62558,-3.8386 -27.49772,-10.15712 -26.15144,-15.98808c1.34628,-5.83096 13.84522,-6.55835 30.4708,-2.71975c16.62559,3.8386 27.31914,9.92079 25.97286,15.75175z" fill="#6e2d2a"/></g><g><g stroke="none" stroke-width="0"><path d="M382.55043,165.7343l1.39621,-17.85943l30.20784,6.97454l-6.74731,16.62394z" fill="#1e1812"/><path d="M412.70012,173.05905c-0.31182,1.35056 -8.49576,0.61421 -18.27934,-1.64467c-9.78357,-2.25888 -17.46196,-5.18491 -17.15014,-6.53547c0.31182,-1.35056 8.49576,-0.61421 18.27935,1.64467c9.78358,2.25888 17.46195,5.1849 17.15013,6.53546z" fill="#2a2119"/><path d="M414.19433,154.67679c-0.31182,1.35056 -7.32686,0.88409 -15.66852,-1.04187c-8.34167,-1.92597 -14.85114,-4.58211 -14.53931,-5.93267c0.31182,-1.35055 7.32686,-0.88409 15.66852,1.04187c8.34167,1.92597 14.85114,4.58211 14.53931,5.93267z" fill="#1e1812"/><path d="M404.71323,171.91954c-0.12932,0.56009 -4.65859,-0.00742 -10.11642,-1.26755c-5.45784,-1.26013 -9.77745,-2.73571 -9.64813,-3.29579c0.12932,-0.56009 4.65859,0.00742 10.11642,1.26755c5.45784,1.26013 9.77745,2.73571 9.64813,3.29579z" fill="#1e1812"/></g><path d="M343.03767,213.93604c0,0 6.64886,-28.79725 9.23301,-39.98963c1.41076,-6.11021 6.99261,-12.02685 15.46959,-10.32621c8.97463,1.80046 37.62433,8.6869 53.59016,12.37317c9.28721,2.14428 11.61135,8.60702 10.14514,14.95739c-2.59882,11.25591 -9.51422,41.20758 -9.51422,41.20758c0,0 -1.63489,5.41837 -18.7362,4.4584c0.05327,-0.38075 0.1007,-3.75695 0.1007,-3.75695c0,0 -1.48121,3.08155 -1.5744,3.48515c-0.0135,0.05847 -0.01976,0.11693 -0.01937,0.17443c-0.61917,-0.04582 -1.25714,-0.0996 -1.91445,-0.16181c0.03572,-0.3691 -0.35299,-1.77647 -0.35299,-1.77647c0,0 -1.03128,1.13281 -1.12447,1.53642c-0.00677,0.02931 -0.01171,0.05861 -0.01492,0.08778c-1.38858,-0.15167 -7.13136,-0.61333 -7.13136,-0.61333l-0.5045,-1.04139c0,0 -0.29385,0.46231 -0.39108,0.43987c-0.12657,-0.02922 -0.25306,-0.02454 -0.36994,0.00812c-2.96417,-0.51594 -6.20081,-1.16358 -9.73477,-1.96412c-2.58578,-0.58575 -7.03822,-2.60833 -7.03822,-2.60833c0,0 -0.41851,0.65626 -0.56701,0.62198c-0.13015,-0.03005 -0.2602,-0.02424 -0.37982,0.01096c-3.72361,-1.00785 -6.97308,-2.02317 -9.80864,-3.02934c0.0884,-0.09361 0.15383,-0.21125 0.18488,-0.34576c0.09319,-0.4036 -0.39535,-2.11539 -0.39535,-2.11539c0,0 -0.97301,1.37433 -1.0662,1.77794c-0.0166,0.07192 -0.02226,0.14381 -0.01806,0.21392c-19.19225,-7.10751 -18.06752,-13.62438 -18.06752,-13.62438z" fill="#a3433e" stroke="none" stroke-width="0"/><path d="M345.55928,206.12624c1.19276,-5.16603 6.34758,-8.387 11.5136,-7.19424c5.16603,1.19276 8.387,6.34757 7.19424,11.5136c-1.19276,5.16603 -6.34757,8.387 -11.5136,7.19424c-5.16603,-1.19276 -8.387,-6.34757 -7.19424,-11.5136z" fill="#893834" stroke="none" stroke-width="0"/><path d="M381.68559,196.56808c-2.30285,9.974 -9.65879,13.22551 -17.39438,11.43948c-7.73559,-1.78603 -12.9215,-7.93327 -10.61865,-17.90727c2.30285,-9.974 9.46334,-12.37898 17.19893,-10.59295c7.73559,1.78603 13.11696,7.08673 10.81411,17.06074z" fill="#6e2d2a" stroke="none" stroke-width="0"/><path d="M397.91799,199.60715c-0.60052,2.60095 -5.34067,3.72741 -10.58741,2.51602c-5.24674,-1.21139 -9.01325,-4.30191 -8.41273,-6.90287c0.60052,-2.60095 5.34067,-3.7274 10.58741,-2.51601c5.24674,1.21139 9.01326,4.30191 8.41273,6.90286z" fill="#893834" stroke="none" stroke-width="0"/><path d="M411.60517,231.22816c-5.16603,-1.19276 -8.387,-6.34758 -7.19424,-11.5136c1.19276,-5.16602 6.34757,-8.387 11.5136,-7.19424c5.16603,1.19276 8.387,6.34758 7.19424,11.5136c-1.19276,5.16602 -6.34758,8.387 -11.5136,7.19424z" fill="#893834" stroke="none" stroke-width="0"/><path d="M364.07741,207.54784c0.48718,0.11248 0.3747,0.59967 0.3747,0.59967l-0.07932,0.2772c-0.10744,0.17993 -0.24919,0.33415 -0.40293,0.47937c1.13507,1.04646 2.42067,2.13949 2.51952,1.72254c0.66578,-1.08868 1.30668,-2.10917 1.58349,-3.3606c0.04695,-0.21223 0.0996,-0.43228 0.15297,-0.65778c-0.0271,-0.15705 -0.05307,-0.29248 -0.07865,-0.39871c-0.03796,-0.15773 -0.07688,-0.31549 -0.11669,-0.47326c-1.19273,0.04236 -2.39766,0.04004 -3.56538,0.00757c-0.63636,-0.00336 -1.26691,-0.02713 -1.88697,-0.07864c-0.28736,-0.01583 -0.57043,-0.03316 -0.84833,-0.0517c-1.37611,1.87179 -3.00937,3.95435 -4.89138,4.33369c-0.31105,-1.56549 -0.11616,-3.15172 0.36902,-4.74389c-0.38037,-0.09381 -0.68642,-0.22054 -0.84456,-0.39417c-0.2426,-0.26634 -0.18086,-0.85007 -0.0723,-1.36102l-0.21774,0.09636l-0.05802,-0.13109c-1.1534,0.56669 -2.28891,0.64571 -3.72362,0.93666l-0.9696,0.19626c-0.07097,0.01601 -0.14657,0.01672 -0.2222,-0.00075c-0.26906,-0.06212 -0.43682,-0.33061 -0.3747,-0.59967c0.00964,-0.04177 0.02426,-0.08111 0.04308,-0.11752l0.29398,-0.59949l0.17853,0.08756c0.8704,-1.39873 2.57264,-1.42118 4.38116,-1.62533c1.04112,-0.11753 2.16369,-0.31814 3.28437,-0.4828c0.08775,-0.1704 0.17675,-0.34072 0.26675,-0.51095c-2.36256,-0.26647 -4.65751,-0.77747 -6.29282,-1.96016c-1.05245,-0.76116 -1.88733,-3.38983 -0.51642,-4.3309c0.11674,-0.08013 0.25909,-0.14336 0.41743,-0.19428c-0.15208,-0.18461 -0.27415,-0.39442 -0.3596,-0.63258c1.60857,-1.89653 3.73996,-4.22106 5.86429,-5.51451c0.95027,-0.5786 1.88727,-0.50767 2.15878,-1.77438c0.10715,-0.49987 -1.31199,-1.02596 -1.51343,-1.12606c-1.08975,-0.54147 -1.85623,-0.98486 -2.58627,-1.67593l-0.06935,0.08392l-0.76254,-0.63007c-0.14675,-0.11616 -0.22195,-0.31035 -0.17705,-0.50483c0.05535,-0.23971 0.27448,-0.39902 0.5119,-0.38699l0.88156,0.02734l-0.00006,0.00195l0.00774,-0.00165c1.19036,0.07355 2.60283,0.15388 4.0416,0.33119c-0.40177,-1.79265 -0.71766,-3.60089 -0.90553,-5.43299l-0.04881,-0.51306c-0.00663,-0.05576 -0.00389,-0.1136 0.00946,-0.17146c0.06212,-0.26906 0.33061,-0.43682 0.59967,-0.3747c0.15811,0.03651 0.28124,0.14428 0.3433,0.28155l0.41846,0.90257l-0.03102,0.01438c1.04421,1.33381 2.05851,2.79996 3.03216,4.33392c0.06383,-1.43648 0.05025,-3.04075 0.51868,-4.25497l-0.2549,-0.13009l0.30762,-0.60277c0.09933,-0.20558 0.33075,-0.32275 0.5626,-0.26922c0.21915,0.0506 0.3711,0.2381 0.38636,0.45131l0.05394,0.56705c0.12405,1.30429 0.22186,2.61046 0.32465,3.91658c0.07282,0.9254 0.14943,1.85353 0.23105,2.783c0.05761,0.03075 0.11461,0.06205 0.17097,0.09392c0.46656,-1.72031 0.9046,-3.44888 1.30619,-5.18822l0.14998,-0.64958c0.06212,-0.26906 0.33061,-0.43682 0.59967,-0.3747c0.20663,0.04771 0.35353,0.21714 0.38243,0.41506l0.16516,0.97452l-0.06817,0.01155c0.91507,2.54183 1.31637,5.36412 1.39624,8.2198c0.44035,0.37415 0.90754,0.764 1.14919,0.92328c0.63679,-1.77228 1.16785,-3.60025 1.61084,-5.58841c0.27107,-1.21654 0.03565,-3.38932 0.72061,-4.49817c-0.00119,-0.02566 -0.00246,-0.05136 -0.0038,-0.07707l-0.13081,-0.0302l0.22497,-0.97437c0.06212,-0.26906 0.33061,-0.43682 0.59967,-0.3747c0.26906,0.06212 0.43682,0.33061 0.3747,0.59967l-0.09865,0.42729c0.27709,2.60321 -0.35634,4.95963 -0.71983,7.46588c0.58714,-0.84253 1.11744,-1.70932 1.50896,-2.57142c0.2988,-0.65795 0.38671,-1.3777 0.61089,-2.03218c0.03312,-0.326 0.06624,-0.65201 0.09935,-0.97801l0.00754,-0.01343l-0.00546,-0.00088l0.11377,-0.70982c0.00192,-0.01273 0.00436,-0.02549 0.0073,-0.03825c0.06212,-0.26906 0.33061,-0.43682 0.59967,-0.3747c0.23185,0.05353 0.38848,0.26029 0.38763,0.48861l0.01787,0.98937l-0.15847,0.00286c-0.02557,0.25218 -0.05113,0.50437 -0.07668,0.75654c-0.12331,2.00697 -0.11424,3.90642 0.02164,5.91246c0.03834,0.56609 0.118,1.13131 0.24245,1.68501c0.85675,-2.16072 1.89532,-4.31722 3.10862,-5.77403l0.06159,-0.02443l-0.01178,-0.01642l0.47276,-0.33921c0.113,-0.08193 0.25949,-0.11639 0.40618,-0.08252c0.23947,0.05529 0.39871,0.27405 0.38703,0.5112l-0.02336,0.79104c0.37592,0.19791 0.21494,0.61444 0.21494,0.61444c-0.24489,0.62579 -0.54657,1.23118 -0.89431,1.81887c-0.48847,1.10339 -1.26905,2.10634 -2.18529,3.1181c-0.39898,0.44058 -0.60089,1.25879 -1.12529,1.43965c1.55588,0.25081 3.12272,0.77464 4.54184,1.49217c1.26598,-0.7223 2.59386,-1.3769 3.07853,-1.13499c0.66594,0.3324 0.14922,3.02232 0.89198,3.63504c0.69613,0.57426 2.80382,-0.23338 3.30034,0.53986c0.37058,0.57711 -0.46973,1.29929 -0.79382,1.62513c-0.68281,0.6865 -1.27894,1.27304 -2.00844,1.54454c-0.23496,0.77855 -0.80753,1.47095 -1.7904,1.94936c-1.66403,1.07321 -3.952,2.01016 -5.33853,3.44073c-0.47306,0.48809 -0.15047,1.63378 -0.7286,2.01174c-0.42275,0.27638 -2.41099,-0.23587 -2.85084,-0.33687c-0.6546,-0.15032 -1.3091,-0.30103 -1.96356,-0.45198c0.00688,0.26582 0.00652,0.53344 -0.00153,0.80297l-0.02837,0.04402l0.01966,0.00454l-0.14998,0.64957c-0.06212,0.26906 -0.33061,0.43682 -0.59967,0.3747c-0.23185,-0.05353 -0.38848,-0.26028 -0.38763,-0.4886l-0.01706,-0.94424c-0.03462,0.00167 -0.0693,0.0034 -0.10403,0.00517c-0.92129,0.17804 -1.90711,0.30563 -2.92431,0.39248c0.22722,1.67126 0.33207,3.33133 -0.05274,5.01983l-0.14998,0.64957c-0.06212,0.26906 -0.33061,0.43682 -0.59967,0.3747c-0.26906,-0.06212 -0.43682,-0.33061 -0.3747,-0.59967l0.14998,-0.64957c0.00723,-0.03081 0.01425,-0.06163 0.0211,-0.09243c-0.20323,-0.35171 -0.35979,-0.91652 -0.48621,-1.52474c-0.41637,0.91563 -0.87665,1.73896 -1.25379,2.35622c-1.03395,1.34248 -2.71228,0.0446 -4.09884,-1.37809c-0.10867,0.06822 -0.24344,0.09487 -0.37834,0.06372c-0.13607,-0.03142 -0.24622,-0.11561 -0.31384,-0.22596l-0.38741,-0.6313l0.01026,-0.0063l-0.03055,-0.03006c-0.07514,-0.18514 -0.14406,-0.38265 -0.19281,-0.58413c-0.21144,-0.23815 -0.39905,-0.44747 -0.55567,-0.60877l0.04835,-0.19224l-0.08986,0.00162l-0.01221,-0.67586c-0.00173,-0.04361 0.00224,-0.08816 0.01253,-0.13272c0.06212,-0.26906 0.33061,-0.43682 0.59967,-0.3747c0.16756,0.03869 0.29583,0.1574 0.35376,0.30644l0.37184,0.92075l-0.06525,0.02636c0.17756,0.16762 0.4046,0.38463 0.65956,0.62592c0.09141,-0.08772 0.1725,-0.17972 0.20829,-0.28268l-0.00432,-0.04759c0,0 0.11248,-0.48718 0.59967,-0.3747zM361.72063,202.77082c0.01324,-0.3264 0.06347,-0.62957 0.07537,-0.79378c0.00095,-0.01314 0.00191,-0.02628 0.00288,-0.03941c-0.45651,0.0003 -0.94039,0.01328 -1.44138,0.03801c-0.29291,0.5128 -0.56976,0.98388 -0.75992,1.37847c0.45506,-0.18243 1.85932,-0.51247 2.09132,-0.57472c0.01039,-0.00278 0.02097,-0.00565 0.03173,-0.00856zM359.93091,193.94074c-0.93323,0.20218 -1.86754,0.38399 -2.80639,0.55768c0.54264,-0.00351 1.00509,-0.02482 1.2661,-0.04163l0.5074,-0.04827c0.05576,-0.00663 0.11359,-0.0039 0.17145,0.00946c0.18694,0.04316 0.32497,0.18593 0.37099,0.3593c0.10167,-0.31506 0.27016,-0.59492 0.49045,-0.83655zM357.40556,197.37329c0.30461,-0.03868 0.56453,-0.06377 0.63531,-0.08066c0.3998,-0.09544 0.88928,-0.31775 1.38266,-0.48975c-0.05842,-0.06448 -0.09954,-0.1436 -0.11833,-0.22934l-0.17227,-0.71404l0.21577,-0.05206c-0.02346,-0.20164 -0.02414,-0.39426 -0.00425,-0.57744l-0.23573,0.38563l-0.06979,-0.04265c-0.35888,0.76512 -0.86315,1.32064 -1.63338,1.8003zM353.68504,194.03545c0.3933,-0.0477 0.78446,-0.0756 1.08074,-0.12826c1.82711,-0.3247 4.50298,-1.30371 6.80116,-1.66901c0.38203,-1.03274 0.73898,-2.0568 1.06211,-3.08739c-0.39433,-1.2627 -0.77199,-2.52802 -1.11757,-3.799c-0.15416,-0.01917 -0.30791,-0.04252 -0.46147,-0.0706c0.26148,0.28895 0.42029,0.62607 0.39411,1.02484c-0.11303,1.72172 -1.42966,1.90153 -2.61372,2.59737c-2.01309,1.18304 -3.62541,3.39042 -5.4298,4.87775c0.05888,0.09674 0.15641,0.18102 0.28444,0.25431zM359.58491,183.76462c0.49551,0.11173 0.99634,0.21186 1.49877,0.30946c0.03045,-0.0007 0.06106,-0.0013 0.09183,-0.00179c-0.03688,-0.14587 -0.07328,-0.29184 -0.10916,-0.43788c-1.22703,-0.23039 -2.44292,-0.40525 -3.71842,-0.50993c0.3638,0.2201 0.71067,0.48796 1.13469,0.6987c0.02581,0.01284 0.05255,0.02579 0.08014,0.03892c0.08227,-0.05644 0.18112,-0.08827 0.28439,-0.08788l0.67661,-0.01223l0.00044,0.02433zM362.11749,183.84409c0.02054,0.08046 0.04123,0.1609 0.06207,0.24131c0.43329,0.01546 0.87764,0.04096 1.31362,0.06714c-0.05533,-0.01442 -0.10961,-0.02787 -0.16273,-0.04014c-0.40917,-0.09447 -0.8127,-0.18407 -1.21296,-0.26832zM367.30526,186.77882c0.69931,1.2916 1.36452,2.58021 1.99003,3.8322c0.02586,-0.97458 0.02215,-1.94967 -0.01253,-2.9235c-0.11857,-0.09686 -0.23963,-0.18311 -0.36463,-0.25341c-0.47421,-0.26665 -1.03998,-0.46959 -1.61287,-0.65531zM376.12395,183.89091c-0.62712,1.11513 -1.42749,2.17655 -2.17066,3.19109c-0.10161,1.13903 -0.18493,2.26334 -0.24733,3.3808c0.66414,-0.05224 1.28366,-0.07423 1.49731,-0.14436c0.35581,-0.02472 0.71769,-0.03109 1.08344,-0.02018c0.18713,-0.17699 0.37254,-0.35516 0.5557,-0.5346c-0.15036,-0.38358 -0.20802,-0.82161 -0.26689,-1.05797c-0.38797,-1.55767 -0.47733,-3.18858 -0.45158,-4.81479zM376.40041,191.51114c-0.40213,0.37177 -0.80913,0.73899 -1.21652,1.10279c0.26138,0.06354 0.52524,0.12195 0.78843,0.18125c0.0175,-0.05103 0.03351,-0.09815 0.04749,-0.14072c0.11953,-0.36417 0.24641,-0.74709 0.38059,-1.14331zM375.67357,193.76308c-0.46588,-0.104 -0.92559,-0.21544 -1.34623,-0.388c-0.25028,0.2218 -0.49952,0.44261 -0.74665,0.6627c-0.02776,2.11152 0.03003,4.22876 0.19128,6.40565c0.05377,0.72579 0.27518,1.69859 0.37079,2.64462c0.0293,0.21333 0.05441,0.42772 0.07506,0.64322c0.42594,0.09834 0.85189,0.19669 1.27783,0.29503c0.50129,0.11574 2.70123,0.86077 3.07034,0.68814c0.56689,-0.26511 0.0779,-1.34514 0.49606,-1.81074c1.38891,-1.54646 3.87952,-2.55197 5.61249,-3.66624c0.51927,-0.24694 0.88291,-0.56567 1.11184,-0.92735c-0.19589,-0.01736 -0.40289,-0.05417 -0.62322,-0.11259c-2.30489,-0.6339 -4.27384,-1.92794 -6.27948,-3.14437c-0.95151,0.43456 -2.03743,0.84774 -2.59642,0.69342c-0.85667,-0.23651 -0.81392,-1.16439 -0.6137,-1.98349zM379.96441,194.5338c1.73398,1.0662 3.45597,2.16286 5.46066,2.69863c0.25518,0.07122 0.47129,0.10857 0.66449,0.11301c0.05028,-0.97694 -0.55753,-2.06124 -1.54632,-2.87036c-0.56566,-0.46288 -1.19879,-0.89408 -1.87717,-1.28043c-0.75444,0.3989 -1.51573,0.77556 -2.29599,1.14199c-0.11108,0.05207 -0.24858,0.11967 -0.40565,0.19717zM383.69606,192.63334c0.44199,0.27648 0.86211,0.57211 1.25441,0.88389c-0.11559,-0.44879 -0.17753,-0.91318 -0.18109,-1.37318c-0.00142,-0.18305 0.428,-0.45053 0.24912,-0.48943c-0.51068,-0.11104 -0.79925,0.6837 -1.25445,0.94045c-0.02266,0.01278 -0.04533,0.02554 -0.06799,0.03827zM388.56458,195.73399c-0.545,0.25744 -1.27978,0.10511 -1.93156,-0.22001c0.24377,0.49 0.39399,0.99841 0.43492,1.49756c0.15691,-0.11271 0.32134,-0.25335 0.50722,-0.42107c0.21608,-0.19499 0.65984,-0.57985 0.98943,-0.8565zM378.93241,193.90964c0.35271,-0.16373 0.69457,-0.32851 1.01256,-0.47815c0.28561,-0.13414 0.83756,-0.47234 1.492,-0.86461c-1.25817,-0.57296 -2.614,-0.98711 -3.95075,-1.17314c-0.22225,0.53071 -0.42259,1.07826 -0.58839,1.62543c0.52379,0.14216 1.02951,0.31753 1.49073,0.57695c0.18224,0.10251 0.36342,0.20723 0.54385,0.31351zM372.43541,200.08683c-0.39982,-1.23463 -0.90684,-2.44138 -1.44939,-3.63196c-0.15711,0.15776 -0.31112,0.31566 -0.46161,0.47379c-0.30783,0.30995 -0.62776,0.61312 -0.95593,0.91167c-0.1214,0.52635 -0.24286,1.05269 -0.36437,1.57902c0.0609,0.45876 0.12083,0.91348 0.18075,1.36278c0.65748,0.13736 1.31339,0.27856 1.96776,0.40613l0.00783,0.00438l0.00058,-0.00251l0.97437,0.22497c0.08677,0.02003 0.163,0.06152 0.22438,0.11757c-0.05094,-0.47872 -0.09206,-0.96097 -0.12437,-1.44583zM359.77029,199.58985c0.32159,-0.58643 0.64821,-1.17129 0.96895,-1.75384c0.03945,-0.22089 0.01351,-0.37239 -0.17014,-0.33508c-0.73266,0.14882 -5.03026,2.14727 -5.35555,0.54523c-0.07501,-0.3694 1.91669,-1.90614 2.85021,-2.56931c-1.26417,0.06195 -2.94085,0.04196 -4.1632,-0.47452c-0.35939,0.03804 -0.70869,0.09562 -0.96706,0.22549c-1.99451,1.00257 1.77281,3.12551 2.28357,3.31044c1.45558,0.52706 2.99137,0.83824 4.55321,1.0516zM361.27387,196.85365c0.48344,-0.90209 0.93776,-1.79753 1.32186,-2.68351c-0.22801,-0.02319 -0.45471,-0.04378 -0.6744,-0.05383c-0.04873,0.12345 -0.09792,0.2471 -0.14755,0.37094c-0.37981,0.57569 -0.76953,1.14502 -1.17037,1.70627l-0.27834,0.38966c0.35864,-0.03204 0.688,0.03106 0.94878,0.27046zM369.88936,204.28481c0.50141,-0.0454 1.1532,-0.10936 1.75159,-0.12124c-0.61261,-0.14169 -1.2252,-0.2834 -1.83782,-0.42504c0.01613,0.10414 0.03239,0.20774 0.04879,0.31078c0.0125,0.07855 0.02499,0.15704 0.03743,0.2355zM360.46517,205.51855c-0.16449,-0.01209 -0.38537,-0.022 -0.64022,-0.03397l-0.06909,-0.00234c-0.01685,-0.00024 -0.03381,-0.00135 -0.05083,-0.00334c-0.39797,-0.01909 -0.86489,-0.04433 -1.32465,-0.09016c-0.15378,0.79725 -0.20344,1.76077 -0.41406,2.56642c0.73639,-0.86016 1.97009,-1.79718 2.37813,-2.29122c0.04014,-0.0486 0.08037,-0.09706 0.12072,-0.14537zM361.20197,179.51634c0.16492,1.0172 0.36847,2.02916 0.6013,3.0367c0.52412,0.08309 1.04558,0.18186 1.55494,0.30066c-0.20949,-0.34317 -0.41722,-0.6871 -0.62251,-1.03211c-0.37591,-0.63174 -1.01767,-1.45283 -1.53372,-2.30524zM362.97042,199.92604c0.64008,0.05492 1.27838,0.10691 1.91125,0.16392c0.3386,-0.39197 0.68115,-0.78667 1.01872,-1.18638c-0.51071,-1.46463 -1.03293,-2.92307 -1.52353,-4.37032c-0.03081,0.09524 -0.06166,0.19046 -0.09254,0.28568c-0.53967,1.66382 -1.0453,3.37181 -1.31391,5.1071zM368.26639,181.1735c-0.26014,1.0474 -0.53237,2.09124 -0.81495,3.13209c0.14327,0.11661 0.21613,0.30845 0.17177,0.50059c-0.04763,0.2063 -0.21659,0.35306 -0.41411,0.38228c-0.0439,0.15824 -0.08804,0.31642 -0.13239,0.47453c0.7333,0.23554 1.50427,0.47315 2.14596,0.80021c-0.02968,-0.47378 -0.06683,-0.94708 -0.11164,-1.4197c-0.09818,-1.03558 -0.61613,-2.51849 -0.84465,-3.87002zM360.17682,195.06444c0.19027,-0.27231 0.37834,-0.54615 0.56403,-0.82159c-0.13956,0.05184 -0.26676,0.12149 -0.3784,0.21336c-0.11945,0.0983 -0.15204,0.33874 -0.18563,0.60822zM365.22739,193.92694c0.4535,1.35002 0.93642,2.70964 1.41462,4.07512c0.15271,-0.19178 0.30287,-0.38505 0.44953,-0.58001c-0.71576,-2.2393 -1.11159,-4.69508 -1.36443,-7.16908c-0.23442,0.76526 -0.47271,1.52945 -0.71419,2.29278c0.4926,0.28722 0.85088,0.73221 0.26819,1.32984c-0.01739,0.01784 -0.03531,0.03494 -0.05374,0.05135zM365.67508,201.17011c-0.12582,0.11084 -0.25071,0.22219 -0.37449,0.33418c0.26265,0.07234 0.52511,0.14794 0.7862,0.22442c0.25455,-0.03351 0.50508,-0.05844 0.74739,-0.07222c-0.03878,-0.11896 -0.07783,-0.23791 -0.1171,-0.35683c-0.31647,-0.04712 -0.63329,-0.0879 -0.95043,-0.1203c-0.0304,-0.00313 -0.06091,-0.00621 -0.09156,-0.00926zM361.94375,203.84933c0.00384,-0.00411 0.0077,-0.00822 0.01154,-0.01233c-0.01068,-0.01294 -0.02091,-0.02628 -0.03072,-0.04001c-1.26787,0.24492 -2.43273,0.3546 -2.98812,0.00202c-0.08177,0.18704 -0.16165,0.37541 -0.2394,0.56528c0.39343,0.01014 0.75139,0.01404 0.92938,0.03686c0.08008,0.01028 0.1602,0.02004 0.24036,0.02934l0.71454,-0.20972c0.45195,-0.13265 0.9063,-0.25553 1.36243,-0.37146zM357.518,204.28427c0.26664,-0.72179 0.58432,-1.44421 0.93297,-2.16589c-0.24957,0.02469 -0.50015,0.05174 -0.75063,0.08106c0.03356,0.08906 0.0421,0.18868 0.01908,0.28838c-0.01336,0.05786 -0.03626,0.11104 -0.06666,0.15825l-0.23762,0.38874c-0.10126,0.38397 -0.60708,0.90681 -0.2884,1.12898c0.07671,0.05348 0.21575,0.09213 0.39124,0.12049zM353.20345,203.01093c-0.166,0.04388 -0.31731,0.11969 -0.46134,0.20658c0.89985,-0.22642 2.09505,-0.5512 2.90811,-0.50968c-0.00842,-0.05923 -0.00627,-0.12099 0.00799,-0.18278c0.00281,-0.01218 0.00605,-0.02415 0.00968,-0.0359c-0.87978,0.14914 -1.71878,0.32467 -2.46444,0.52178zM368.42942,203.42111c0.05546,0.18752 0.10998,0.37506 0.16351,0.56259c-0.00852,-0.18214 -0.02803,-0.36214 -0.06091,-0.5389c-0.0273,-0.0063 -0.0546,-0.01262 -0.0819,-0.01892c-0.0069,-0.00159 -0.01379,-0.00318 -0.02069,-0.00479zM372.63566,190.58843c0.05002,-0.62235 0.10364,-1.2391 0.15865,-1.84825c-0.09738,0.11061 -0.19835,0.21352 -0.30282,0.30427c-0.56663,1.44484 -1.20962,2.86307 -1.88796,4.25073c0.23167,0.49081 0.46524,0.98192 0.69628,1.47432c0.36466,-0.33813 0.74135,-0.67739 1.12558,-1.0187c0.0189,-0.37932 0.04041,-0.75783 0.06408,-1.13512c-0.54842,-0.32675 -0.95334,-0.78623 -0.85153,-1.50425c0.03831,-0.27013 0.45691,-0.42579 0.99772,-0.52302zM377.78933,194.4075c-0.3562,-0.18823 -0.74783,-0.31656 -1.15234,-0.42183c-0.10059,0.33795 -0.30139,0.87713 -0.03353,0.8122c0.37946,-0.09197 0.78084,-0.22971 1.18586,-0.39038zM368.43367,201.60575c-0.20168,-0.04048 -0.40353,-0.0799 -0.60552,-0.11772c0.02112,0.06505 0.04216,0.13011 0.06312,0.19517c0.20958,0.02773 0.40389,0.07114 0.57848,0.13293c-0.012,-0.07015 -0.02402,-0.14027 -0.03609,-0.21038zM363.12112,202.02896c-0.14173,-0.02102 -0.28229,-0.03881 -0.42141,-0.0529c-0.02596,0.1928 -0.05124,0.37627 -0.07426,0.53646c0.03179,-0.00909 0.06399,-0.01828 0.09661,-0.02756c0.11274,-0.14791 0.2542,-0.30517 0.39906,-0.45599zM361.89182,200.93773c0.00065,-0.00573 0.00128,-0.01148 0.00193,-0.01721c-0.3066,-0.01865 -0.61598,-0.0387 -0.92679,-0.06112c-0.01979,0.039 -0.03975,0.0779 -0.05986,0.11671c0.33393,-0.02406 0.66297,-0.03801 0.98472,-0.0384zM362.03662,199.843c0.1789,-1.17292 0.4304,-2.32549 0.74128,-3.47226c-0.31888,0.65837 -0.65757,1.30529 -1.00423,1.94847c-0.01371,0.46883 -0.13924,0.96594 -0.32667,1.46675c0.19647,0.01981 0.39305,0.03875 0.58962,0.05704zM362.54084,185.42329c0.18853,0.67296 0.38629,1.34426 0.5904,2.01416c0.16388,-0.60337 0.3148,-1.21175 0.45107,-1.82808c-0.27591,-0.06507 -0.55345,-0.12559 -0.83195,-0.18339c-0.07002,-0.00033 -0.13985,-0.00121 -0.20952,-0.00267zM363.65861,189.12681c0.07195,0.22575 0.14434,0.45137 0.21707,0.67685c0.26699,-1.30713 0.49264,-2.61844 0.66871,-3.94371c-0.01092,-0.00316 -0.02185,-0.00631 -0.03278,-0.00944c-0.2473,1.10767 -0.53183,2.19511 -0.85299,3.2763zM370.34995,191.40605c0.30305,-0.68924 0.58796,-1.37764 0.8558,-2.07167c-0.2725,-0.11371 -0.52274,-0.30238 -0.76297,-0.52117c-0.00606,0.86722 -0.03879,1.7338 -0.09282,2.59284zM375.10686,191.38355c-0.47359,0.12487 -0.96639,0.1903 -1.45637,0.19814c-0.00753,0.17426 -0.01453,0.34842 -0.02098,0.52251c0.14839,0.06869 0.30024,0.13056 0.45481,0.18708c0.34095,-0.29997 0.68276,-0.60234 1.02253,-0.90773zM372.57448,191.37875c-0.02778,-0.00092 -0.0322,0.01024 -0.00293,0.03959c0.00097,-0.0132 0.00196,-0.02639 0.00293,-0.03959zM370.29431,202.82539c0.84028,0.19401 1.68056,0.38802 2.52084,0.58202c-0.06796,-0.40421 -0.12758,-0.81195 -0.17951,-1.22265c-0.09249,0.13505 -0.24757,0.21824 -0.41413,0.21761l-0.67661,0.01223l-0.00008,-0.00498c-0.415,0.14884 -0.83195,0.28667 -1.2505,0.41576zM364.0648,201.04613c-0.40052,-0.02482 -0.81302,-0.04769 -1.23377,-0.07132c-0.00059,0.00453 -0.00117,0.00909 -0.00177,0.01365c0.36987,0.04104 0.7475,0.10523 1.12908,0.18509c0.03534,-0.04247 0.07083,-0.08494 0.10646,-0.12743zM367.67192,204.39621c-0.07557,-0.26804 -0.15329,-0.53609 -0.23291,-0.8041c-1.43526,0.34252 -2.8804,0.64379 -4.32262,0.99207c1.5176,-0.01168 3.04061,-0.11223 4.55553,-0.18797zM367.81819,199.35393c-0.18271,0.15307 -0.36584,0.3059 -0.54885,0.45881c0.06789,0.19898 0.13535,0.39804 0.20231,0.59719c0.22586,0.03884 0.45153,0.0801 0.67701,0.12309c-0.07774,-0.0828 -0.12631,-0.19097 -0.13459,-0.30672l-0.04882,-0.5132l0.01529,-0.00146c-0.05536,-0.11831 -0.10949,-0.23755 -0.16237,-0.35772zM363.35061,192.10238c0.03603,-0.12606 0.0699,-0.25185 0.10149,-0.3774c-0.10377,-0.31911 -0.20714,-0.63825 -0.30986,-0.95749c-0.14874,0.44791 -0.30374,0.89597 -0.46496,1.34516c0.2318,-0.01364 0.45676,-0.01761 0.67333,-0.01027zM365.23009,183.12764c-0.01844,-0.30059 -0.0374,-0.59823 -0.05724,-0.89249c-0.03068,0.21379 -0.06265,0.4264 -0.09587,0.6379c0.05117,0.08472 0.10221,0.16959 0.15311,0.25458zM370.53929,195.49189c-0.15649,-0.33255 -0.31425,-0.66407 -0.4717,-0.99483c-0.06762,0.57324 -0.14229,1.13892 -0.22222,1.69473c0.22298,-0.23327 0.45479,-0.46647 0.69392,-0.69991zM365.33343,187.39535c-0.08917,0.5616 -0.18727,1.12126 -0.29326,1.67971c0.13023,-0.43138 0.25915,-0.86313 0.38661,-1.29528c-0.03311,-0.12845 -0.06444,-0.2568 -0.09336,-0.38444zM371.74033,195.71922c0.20492,0.44828 0.40548,0.89816 0.59839,1.35034c-0.00062,-0.64541 0.0103,-1.29206 0.0304,-1.93789c-0.21294,0.19601 -0.42279,0.39179 -0.62879,0.58754zM369.91293,201.91418c-0.12864,-0.02715 -0.25735,-0.05439 -0.38613,-0.08162c0.01014,0.07377 0.02031,0.14738 0.03049,0.22078c0.11597,-0.04475 0.23524,-0.09225 0.35563,-0.13916zM369.07768,194.10455c0.04608,-0.4724 0.08554,-0.94545 0.11823,-1.41891c-0.56367,-1.11944 -1.17457,-2.21618 -1.81149,-3.30012c0.50811,1.82778 0.88547,3.75671 1.19738,5.69027c0.16946,-0.3261 0.33473,-0.64963 0.49588,-0.97123zM366.28624,202.87397c-0.63141,0.03908 -1.74983,0.33246 -2.94156,0.61309c-0.00921,0.01083 -0.01841,0.02168 -0.02759,0.03254c0.98662,-0.22523 1.97846,-0.4312 2.96915,-0.64563zM380.67223,184.27375c-0.50682,0.81534 -0.89803,1.70863 -1.26301,2.62122c0.36271,-0.48263 0.69548,-0.97624 0.99044,-1.48236c0.10087,-0.37823 0.17311,-0.76769 0.27257,-1.13884z" fill="#4d201d" stroke="none" stroke-width="0.5"/><path d="M383.14714,196.90553c-1.57365,6.81573 -5.50693,10.49228 -10.30852,11.56733c-0.7003,0.15679 -2.9286,0.26815 -2.9286,0.26815l-2.81325,0.82223c0,0 -0.6545,-1.05902 -1.34401,-1.21822c-7.73559,-1.78603 -12.9215,-7.93327 -10.61865,-17.90727c2.30285,-9.974 9.46334,-12.37898 17.19893,-10.59295c3.64321,0.84116 6.76424,2.46192 8.80627,4.98331c0.26333,0.32513 1.92223,-0.29352 1.92223,-0.29352l-0.51117,2.10181l1.43755,2.71323c0,0 -0.31772,2.34931 -0.30748,2.81325c0.03194,1.44626 -0.13676,3.02517 -0.5333,4.74266z" fill="#0b0404" stroke="none" stroke-width="0"/><path d="M412.03842,189.01219c7.73559,1.78603 13.11696,7.08673 10.81411,17.06074c-2.30285,9.974 -9.65879,13.22551 -17.39438,11.43948c-7.73559,-1.78603 -12.9215,-7.93327 -10.61865,-17.90727c2.30285,-9.974 9.46334,-12.37898 17.19893,-10.59295z" fill="#6e2d2a" stroke="none" stroke-width="0"/><path d="M394.01317,208.0257c0.18148,0.4659 -0.28443,0.64738 -0.28443,0.64738l-0.27372,0.0906c-0.20919,0.01257 -0.41647,-0.01768 -0.62305,-0.06291c-0.2253,1.52731 -0.40429,3.20524 -0.0041,3.05207c1.27456,-0.06311 2.47876,-0.10838 3.66871,-0.58455c0.20181,-0.08075 0.41329,-0.1612 0.62967,-0.24411c0.11449,-0.11085 0.21176,-0.20859 0.28514,-0.28957c0.10895,-0.12021 0.21737,-0.24123 0.3253,-0.363c-0.70684,-0.96166 -1.38362,-1.95855 -2.01454,-2.94169c-0.35565,-0.5277 -0.6912,-1.06209 -0.9979,-1.60345c-0.14879,-0.24637 -0.29391,-0.49 -0.43513,-0.73007c-2.32173,-0.0827 -4.96246,-0.25917 -6.33599,-1.60055c1.1183,-1.13881 2.53875,-1.87125 4.12759,-2.36721c-0.13673,-0.36712 -0.20441,-0.6914 -0.15004,-0.91986c0.08342,-0.35047 0.60052,-0.62826 1.08385,-0.82636l-0.20226,-0.12564l0.07564,-0.12177c-1.11792,-0.63381 -1.82282,-1.52754 -2.87135,-2.54911l-0.70832,-0.6906c-0.05321,-0.04962 -0.09637,-0.11169 -0.12454,-0.18403c-0.10023,-0.25731 0.02711,-0.54715 0.28443,-0.64738c0.03995,-0.01556 0.08069,-0.02565 0.12138,-0.0306l0.66092,-0.09477l0.02822,0.19683c1.646,-0.06868 2.62338,1.32518 3.81076,2.7045c0.68355,0.79405 1.48162,1.6086 2.24892,2.44182c0.19022,-0.02348 0.38109,-0.04587 0.57245,-0.0674c-1.11059,-2.10221 -1.98105,-4.28628 -1.92497,-6.30367c0.0361,-1.29835 1.73783,-3.46885 3.28761,-2.86619c0.13198,0.05132 0.26438,0.13333 0.39566,0.23547c0.06689,-0.22964 0.17148,-0.44868 0.32013,-0.65344c2.47311,0.26084 5.59436,0.7126 7.85967,1.73931c1.01335,0.45928 1.48252,1.27343 2.6821,0.78427c0.47337,-0.19304 0.10871,-1.66197 0.07795,-1.88479c-0.16644,-1.20542 -0.23182,-2.08849 -0.072,-3.08095l-0.1084,-0.01002l0.09109,-0.98497c0.01332,-0.18669 0.1314,-0.3582 0.3174,-0.43065c0.22925,-0.0893 0.4843,0.00204 0.60809,0.20499l0.47397,0.7438l-0.00165,0.00106l0.00573,0.00547c0.60973,1.02498 1.33896,2.23731 2.00289,3.526c1.2549,-1.34172 2.57106,-2.62127 3.97905,-3.80848l0.39643,-0.32932c0.04234,-0.03688 0.09167,-0.06721 0.147,-0.08875c0.2573,-0.10022 0.54714,0.02712 0.64738,0.28443c0.0589,0.15121 0.03921,0.31365 -0.03926,0.44224l-0.51005,0.85415l-0.02936,-0.01753c-0.51391,1.6141 -1.15402,3.27803 -1.87305,4.94658c1.22288,-0.7564 2.54079,-1.67127 3.80793,-1.96814l-0.03609,-0.28389l0.67133,-0.08534c0.22582,-0.03373 0.45297,0.09149 0.53933,0.31321c0.08163,0.20959 0.0123,0.44075 -0.15527,0.57346l-0.43815,0.36398c-1.00782,0.83717 -2.03198,1.65372 -3.05328,2.47436c-0.72361,0.58143 -1.44734,1.16751 -2.16935,1.7585c0.00705,0.06492 0.01329,0.12964 0.0187,0.19417c1.68425,-0.5835 3.35924,-1.19523 5.02261,-1.84314l0.62121,-0.24197c0.2573,-0.10022 0.54715,0.02713 0.64738,0.28443c0.07697,0.19761 0.01973,0.41441 -0.12754,0.54977l-0.71219,0.68539l-0.04794,-0.04982c-1.58481,2.18784 -3.69072,4.10916 -6.0053,5.78367c-0.06112,0.5746 -0.12008,1.18022 -0.11557,1.46961c1.82306,-0.47212 3.6326,-1.06297 5.52488,-1.81682c1.15788,-0.46128 2.82057,-1.87967 4.12261,-1.9383c0.02054,-0.01544 0.04105,-0.03096 0.06154,-0.04655l-0.04872,-0.12509l0.93181,-0.36296c0.2573,-0.10022 0.54715,0.02713 0.64738,0.28443c0.10022,0.2573 -0.02712,0.54716 -0.28443,0.64738l-0.40862,0.15916c-1.99488,1.69528 -4.2987,2.49921 -6.57429,3.61058c1.02689,0.01057 2.04177,-0.0395 2.97463,-0.2016c0.71194,-0.12372 1.35618,-0.45651 2.02323,-0.63991c0.28802,-0.15627 0.57604,-0.31253 0.86406,-0.4688l0.01534,-0.00132l-0.00235,-0.00501l0.65059,-0.30582c0.0116,-0.00558 0.02351,-0.01076 0.03571,-0.0155c0.2573,-0.10022 0.54716,0.02712 0.64738,0.28443c0.08636,0.22172 0.00376,0.4676 -0.18538,0.5955l-0.80743,0.57206l-0.09162,-0.12933c-0.22277,0.12093 -0.44554,0.24186 -0.66831,0.36278c-1.72777,1.0286 -3.29211,2.106 -4.87309,3.34821c-0.44614,0.35054 -0.8683,0.73475 -1.2557,1.14945c2.26792,-0.50918 4.63477,-0.86573 6.52191,-0.68381l0.05487,0.03714l0.00693,-0.01898l0.54657,0.19954c0.13135,0.04721 0.24233,0.14886 0.29698,0.28913c0.08921,0.22901 -0.00187,0.4838 -0.20439,0.60774l-0.66677,0.42628c0.04821,0.4221 -0.38662,0.5237 -0.38662,0.5237c-0.65501,0.15015 -1.32515,0.24188 -2.00662,0.28559c-1.18683,0.21791 -2.45522,0.13787 -3.80731,-0.04929c-0.58878,-0.0815 -1.37856,0.21255 -1.82338,-0.11887c0.66915,1.42684 1.11887,3.01654 1.32537,4.5933c1.3099,0.63918 2.59875,1.36765 2.67187,1.90439c0.10047,0.73749 -2.4132,1.8257 -2.50109,2.78455c-0.08238,0.89865 1.77215,2.18525 1.41292,3.03106c-0.26812,0.63126 -1.33815,0.34374 -1.78992,0.25949c-0.95185,-0.1775 -1.77226,-0.33968 -2.40751,-0.78951c-0.77564,0.24439 -1.67026,0.1613 -2.61918,-0.38134c-1.82407,-0.77042 -3.887,-2.13315 -5.85004,-2.47299c-0.66975,-0.11595 -1.4347,0.79594 -2.07264,0.53115c-0.46649,-0.19363 -1.16317,-2.12498 -1.32747,-2.54532c-0.24452,-0.62555 -0.48866,-1.25124 -0.73257,-1.87702c-0.21577,0.15541 -0.43709,0.30586 -0.66433,0.45103l-0.05235,0.00135l0.00732,0.0188l-0.6212,0.24197c-0.25731,0.10023 -0.54716,-0.02712 -0.64738,-0.28443c-0.08636,-0.22172 -0.00376,-0.46761 0.18538,-0.59551l0.77059,-0.54597c-0.02089,-0.02767 -0.04184,-0.05535 -0.06286,-0.08305c-0.66605,-0.66095 -1.32676,-1.40365 -1.97148,-2.19519c-1.25292,1.12912 -2.56553,2.15083 -4.17744,2.78398l-0.62121,0.24196c-0.25731,0.10023 -0.54715,-0.02711 -0.64738,-0.28443c-0.10023,-0.25731 0.02711,-0.54715 0.28443,-0.64738l0.6212,-0.24197c0.02953,-0.01139 0.05895,-0.02294 0.08827,-0.03462c0.17614,-0.36603 0.55465,-0.81354 0.98598,-1.26059c-0.99109,0.17172 -1.93064,0.25517 -2.6531,0.29124c-1.69164,-0.09814 -1.56462,-2.21595 -1.1701,-4.16301c-0.11759,-0.05137 -0.2155,-0.14771 -0.26576,-0.27672c-0.05068,-0.13013 -0.04317,-0.26857 0.00993,-0.3866l0.3034,-0.6757l0.01098,0.00494l0.00764,-0.04218c0.11066,-0.16636 0.23504,-0.33456 0.37405,-0.48834c0.07767,-0.30886 0.14496,-0.58178 0.19002,-0.80204l0.18607,-0.06834l-0.05196,-0.07333l0.55157,-0.39078c0.03505,-0.02599 0.07409,-0.04781 0.11672,-0.06441c0.25731,-0.10023 0.54716,0.02712 0.64738,0.28443c0.06241,0.16024 0.03658,0.33309 -0.05394,0.46491l-0.55134,0.82589l-0.05853,-0.03908c-0.03848,0.24113 -0.08991,0.55097 -0.14567,0.89755c0.12397,0.02611 0.24566,0.0413 0.3509,0.01288l0.03689,-0.03038c0,0 0.4659,-0.18147 0.64738,0.28443zM396.63277,203.38761c0.27714,-0.17291 0.55594,-0.30219 0.69834,-0.38484c0.01139,-0.00662 0.02279,-0.01322 0.03418,-0.01982c-0.25739,-0.37704 -0.54067,-0.76954 -0.84329,-1.16956c-0.58869,0.04682 -1.13388,0.08343 -1.56703,0.14857c0.40706,0.27324 1.47074,1.24764 1.65286,1.40426c0.00815,0.00701 0.01648,0.01414 0.02496,0.02139zM402.92069,196.93504c-0.69272,-0.65721 -1.36921,-1.3268 -2.04155,-2.0047c0.30856,0.44639 0.58664,0.81649 0.74755,1.0227l0.32568,0.39206c0.03688,0.04234 0.06721,0.09166 0.08876,0.147c0.06964,0.17877 0.02942,0.37325 -0.0879,0.50892c0.31761,-0.09345 0.64374,-0.11187 0.96747,-0.06596zM398.66201,196.78187c0.20355,0.22989 0.37068,0.43053 0.42451,0.4795c0.30405,0.27658 0.76345,0.5558 1.18348,0.86659c0.02037,-0.0846 0.06259,-0.16312 0.12285,-0.22695l0.49295,-0.54454l0.16456,0.14897c0.15338,-0.13296 0.31217,-0.24204 0.47473,-0.32877l-0.45142,0.02244l-0.00406,-0.08169c-0.83434,0.13444 -1.5774,0.03069 -2.40758,-0.33555zM399.32431,191.82763c0.26096,0.2981 0.50432,0.60559 0.71472,0.82073c1.29746,1.3268 3.61363,2.98633 5.20997,4.67948c1.06851,-0.26605 2.11571,-0.54794 3.14927,-0.86147c0.82122,-1.03707 1.65399,-2.06184 2.5095,-3.0633c-0.071,-0.13817 -0.13829,-0.27836 -0.20159,-0.42106c-0.09147,0.3788 -0.28057,0.69993 -0.6248,0.90291c-1.48626,0.87641 -2.37647,-0.1102 -3.61837,-0.69661c-2.11143,-0.99698 -4.8435,-1.08582 -7.08881,-1.73895c-0.04677,0.10314 -0.06146,0.23119 -0.04991,0.37827zM411.13402,190.91719c0.1868,0.47235 0.38616,0.94258 0.58853,1.41269c0.01772,0.02476 0.03547,0.04972 0.0532,0.07487c0.09976,-0.11264 0.19986,-0.22492 0.30033,-0.33685c-0.50079,-1.14363 -1.0412,-2.24678 -1.67316,-3.35965c0.02305,0.42458 -0.00288,0.86206 0.06183,1.33112c0.00394,0.02856 0.00829,0.05795 0.01299,0.08813c0.09297,0.03618 0.17496,0.09994 0.23281,0.18549l0.39122,0.55218l-0.01986,0.01406zM412.49486,193.05454c-0.05492,0.06229 -0.10973,0.1247 -0.16442,0.18722c0.23129,0.36673 0.46051,0.74823 0.68445,1.12322c-0.01925,-0.05383 -0.03872,-0.10626 -0.0585,-0.15707c-0.15242,-0.3913 -0.30567,-0.77519 -0.46152,-1.15337zM412.99214,198.99409c-0.6733,1.30535 -1.36335,2.58084 -2.04551,3.80289c0.81983,-0.52758 1.62344,-1.0799 2.40854,-1.6571c0.01324,-0.15253 0.01633,-0.30113 0.004,-0.44401c-0.0468,-0.54201 -0.19779,-1.12381 -0.36703,-1.70178zM420.34566,204.65401c-1.27464,0.10995 -2.60249,0.04651 -3.85938,0.00392c-0.99838,0.55762 -1.9743,1.12208 -2.93277,1.69996c0.41725,0.51933 0.78438,1.01885 0.96267,1.15588c0.22085,0.28007 0.42994,0.57549 0.62694,0.88385c0.25165,0.05492 0.50331,0.10776 0.75474,0.15803c0.23224,-0.34031 0.5617,-0.63468 0.72384,-0.81645c1.06852,-1.19797 2.36575,-2.19045 3.72395,-3.08518zM414.20501,209.17473c-0.53369,-0.12286 -1.06636,-0.2523 -1.59644,-0.384c0.09472,0.25176 0.1951,0.50268 0.29434,0.75354c0.05202,-0.01429 0.09997,-0.02759 0.14303,-0.04002c0.36824,-0.10637 0.75609,-0.21721 1.15906,-0.32953zM411.93487,209.84263c-0.17649,-0.44352 -0.34335,-0.88614 -0.4377,-1.33089c-0.32425,-0.08186 -0.64709,-0.16341 -0.96814,-0.24366c-1.76033,1.16643 -3.47718,2.40676 -5.18505,3.76619c-0.56941,0.45325 -1.24848,1.18414 -1.97631,1.79603c-0.15976,0.14437 -0.32276,0.28588 -0.48919,0.42434c0.15867,0.40734 0.31733,0.81468 0.47599,1.22202c0.18673,0.47939 0.8103,2.71679 1.16086,2.92455c0.53837,0.31906 1.15531,-0.69333 1.77557,-0.61007c2.06014,0.27653 4.29386,1.76808 6.19068,2.57233c0.49654,0.28996 0.96472,0.41089 1.39251,0.39633c-0.096,-0.17163 -0.18217,-0.36341 -0.25801,-0.57837c-0.77452,-2.26151 -0.81436,-4.6173 -0.93897,-6.95969c-0.89503,-0.54143 -1.84809,-1.20595 -2.03545,-1.75476c-0.28713,-0.84105 0.50364,-1.3284 1.29321,-1.62434zM413.71498,213.82214c0.09574,2.0333 0.15956,4.07385 0.84606,6.03205c0.08489,0.25097 0.17577,0.45055 0.28092,0.61269c0.83554,-0.50874 1.3891,-1.62171 1.50069,-2.89448c0.06384,-0.72812 0.0635,-1.49413 0.00061,-2.27229c-0.75456,-0.39869 -1.49459,-0.81556 -2.23686,-1.25386c-0.1056,-0.06246 -0.2389,-0.13798 -0.3914,-0.22412zM417.38726,215.83503c0.02051,0.52094 0.01289,1.0346 -0.02376,1.53436c0.30571,-0.3483 0.65453,-0.66106 1.03261,-0.92311c0.15045,-0.10429 0.61335,0.09986 0.54473,-0.06985c-0.1959,-0.4845 -1.01512,-0.27528 -1.48366,-0.50679c-0.02333,-0.01152 -0.04663,-0.02306 -0.06992,-0.03463zM417.56759,221.60425c-0.5197,-0.3053 -0.8077,-0.99823 -0.90622,-1.71991c-0.26756,0.47743 -0.60303,0.88792 -0.99242,1.20289c0.1815,0.06616 0.39034,0.12281 0.63361,0.18193c0.28282,0.06872 0.85078,0.21859 1.26501,0.3351zM413.64943,212.61786c0.33396,0.19922 0.66266,0.38887 0.96543,0.56732c0.27171,0.16044 0.86206,0.426 1.55481,0.74579c-0.23527,-1.36232 -0.65678,-2.71588 -1.25603,-3.9252c-0.56369,0.11529 -1.12897,0.2582 -1.67446,0.4294c0.17757,0.51286 0.31754,1.0295 0.36297,1.55673c0.01796,0.20832 0.03347,0.41701 0.04728,0.62596zM404.88585,210.72907c0.79494,-1.0258 1.50644,-2.12446 2.18457,-3.24338c-0.21885,-0.04095 -0.43607,-0.07926 -0.65149,-0.11454c-0.4295,-0.07976 -0.8602,-0.17335 -1.29174,-0.27633c-0.50329,0.19617 -1.0066,0.39228 -1.50993,0.58835c-0.34476,0.30872 -0.68672,0.61438 -1.0242,0.91696c0.25684,0.62063 0.50963,1.24213 0.77281,1.85467l0.00079,0.00894l0.00241,-0.00093l0.36296,0.93181c0.03232,0.08298 0.04099,0.16933 0.02924,0.25163c0.36687,-0.31175 0.74217,-0.61735 1.12459,-0.91717zM398.16254,199.98433c0.6657,-0.06461 1.33292,-0.12416 1.99493,-0.18728c0.20474,-0.09183 0.3153,-0.1986 0.18104,-0.32932c-0.53565,-0.52155 -4.60764,-2.94684 -3.46715,-4.11801c0.26298,-0.27005 2.65461,0.51002 3.72838,0.90781c-0.76327,-1.00965 -1.69119,-2.40629 -1.95293,-3.70721c-0.23387,-0.27553 -0.47818,-0.53171 -0.73103,-0.67204c-1.95186,-1.08328 -1.58393,3.22535 -1.44905,3.75154c0.38441,1.49958 0.99236,2.94384 1.69581,4.35451zM401.27031,199.68546c1.01767,-0.10867 2.01346,-0.23767 2.96187,-0.41935c-0.10927,-0.20147 -0.21995,-0.40036 -0.33539,-0.58754c-0.12945,0.02927 -0.25932,0.05828 -0.38962,0.08703c-0.68962,0.01046 -1.37955,0.00912 -2.06908,-0.00594l-0.47874,-0.01049c0.22848,0.27828 0.36186,0.58597 0.31096,0.9363zM399.98304,210.98995c0.31994,0.38872 0.73993,0.89126 1.08681,1.379c-0.228,-0.58598 -0.45596,-1.17199 -0.684,-1.75796c-0.07697,0.07198 -0.1534,0.14378 -0.2293,0.21538c-0.05785,0.05457 -0.11568,0.10911 -0.17351,0.16357zM393.65524,203.89796c-0.08266,-0.14272 -0.19889,-0.33081 -0.33255,-0.54813l-0.03699,-0.05841c-0.00929,-0.01406 -0.01793,-0.0287 -0.02587,-0.04388c-0.20839,-0.33958 -0.45054,-0.73961 -0.67164,-1.14531c-0.74537,0.32201 -1.56947,0.82371 -2.35378,1.10347c1.12552,0.12395 2.59466,0.61551 3.23271,0.67439c0.06277,0.00579 0.12546,0.01175 0.18811,0.01787zM415.55506,189.86035c-0.74759,0.70923 -1.46908,1.44744 -2.17043,2.20733c0.22656,0.47987 0.43868,0.96637 0.62744,1.45416c0.16556,-0.36639 0.33272,-0.73177 0.50215,-1.09572c0.31025,-0.66644 0.62719,-1.65921 1.04084,-2.56576zM399.68729,202.81785c0.31516,0.55981 0.63175,1.1165 0.94111,1.67154c0.5146,0.05899 1.03368,0.11971 1.55409,0.17349c0.9225,-1.24697 1.83342,-2.49998 2.75289,-3.72053c-0.09605,0.0282 -0.1921,0.05634 -0.28818,0.08445c-1.67874,0.49128 -3.37483,1.03556 -4.95993,1.79106zM418.16506,196.63092c-1.01196,0.37503 -2.0278,0.73807 -3.04699,1.09086c-0.01565,0.18406 -0.13312,0.35233 -0.31687,0.4239c-0.19729,0.07685 -0.41373,0.01992 -0.54913,-0.12684c-0.15548,0.05286 -0.31104,0.10549 -0.46666,0.15791c0.21844,0.73858 0.45637,1.50943 0.54757,2.22388c0.37476,-0.29139 0.7449,-0.58868 1.11017,-0.89192c0.80036,-0.66445 1.7339,-1.92769 2.72191,-2.87779zM402.13074,197.77117c0.33216,0.00382 0.66438,0.00499 0.99655,0.00326c-0.12145,-0.08612 -0.25064,-0.15198 -0.38944,-0.19249c-0.14851,-0.04333 -0.36552,0.06518 -0.60712,0.18922zM405.91548,201.30357c-0.86004,1.13514 -1.71144,2.30002 -2.57032,3.46427c0.24448,0.01816 0.48874,0.03338 0.73245,0.04473c1.44709,-1.85275 3.25327,-3.5631 5.15505,-5.16556c-0.76435,0.23736 -1.53,0.47091 -2.29674,0.70136c0.04015,0.56881 -0.12573,1.11549 -0.94774,0.97067c-0.02453,-0.00432 -0.04875,-0.00949 -0.07269,-0.01548zM400.18284,205.75338c-0.16245,-0.04153 -0.32482,-0.08201 -0.48707,-0.12119c0.08816,0.25777 0.17355,0.51722 0.25742,0.77602c0.17107,0.19146 0.33279,0.38443 0.48065,0.57687c0.07644,-0.09905 0.15273,-0.19832 0.22887,-0.29775c-0.13933,-0.28804 -0.28408,-0.57278 -0.43594,-0.85307c-0.01454,-0.02687 -0.02919,-0.05384 -0.04393,-0.08087zM395.8673,204.17943c0.00556,0.00085 0.01113,0.00173 0.01669,0.00259c0.00468,-0.01612 0.00994,-0.03209 0.01574,-0.04791c-0.91652,-0.90964 -1.66328,-1.81037 -1.6848,-2.46786c-0.2006,0.03779 -0.40125,0.07789 -0.60192,0.1206c0.21323,0.33079 0.41164,0.62875 0.49304,0.78869c0.03662,0.07195 0.07367,0.14366 0.11115,0.21513l0.57576,0.47227c0.36417,0.29871 0.72163,0.60491 1.07434,0.91649zM393.01503,200.76757c0.74659,-0.18625 1.52244,-0.33069 2.31513,-0.44911c-0.16097,-0.19231 -0.32448,-0.38411 -0.48979,-0.57455c-0.05469,0.0779 -0.13218,0.14106 -0.22753,0.1782c-0.05533,0.02156 -0.11217,0.03258 -0.16831,0.03406l-0.45505,0.02263c-0.3743,0.13262 -1.09122,0.00917 -1.09529,0.39763c-0.00098,0.0935 0.0454,0.23016 0.12082,0.39114zM391.63688,196.48535c-0.12975,-0.11244 -0.27763,-0.19477 -0.43055,-0.26484c0.69393,0.61598 1.63554,1.4206 2.05919,2.11579c0.0442,-0.04032 0.09643,-0.07334 0.15552,-0.09634c0.01165,-0.00454 0.02336,-0.0086 0.03512,-0.01222c-0.61878,-0.64294 -1.23642,-1.23728 -1.81928,-1.74239zM399.87435,209.29715c-0.12371,0.15144 -0.24795,0.30214 -0.37276,0.452c0.1457,-0.10963 0.28344,-0.22715 0.41097,-0.35388c-0.01017,-0.02611 -0.02033,-0.05222 -0.03051,-0.07833c-0.00257,-0.00659 -0.00513,-0.01318 -0.00769,-0.0198zM412.84686,205.54431c0.5424,-0.30922 1.08221,-0.6123 1.61651,-0.90997c-0.14624,-0.01816 -0.28815,-0.04363 -0.42198,-0.07883c-1.51299,0.34566 -3.04702,0.61322 -4.5757,0.83437c-0.27505,0.46789 -0.54929,0.9375 -0.82598,1.40577c0.48479,0.11084 0.9773,0.23099 1.47572,0.35623c0.32407,-0.19805 0.64894,-0.39348 0.97401,-0.58644c-0.03892,-0.63719 0.11265,-1.23058 0.76327,-1.55091c0.24477,-0.1205 0.60919,0.1377 0.99415,0.52978zM412.5942,211.95382c-0.04511,-0.40034 -0.15967,-0.79622 -0.30054,-1.18974c-0.3359,0.10724 -0.89451,0.24503 -0.68997,0.42979c0.28973,0.26173 0.62963,0.51579 0.99052,0.75995zM401.37673,208.27812c-0.08016,-0.18945 -0.16128,-0.37843 -0.24381,-0.56663c-0.04186,0.05409 -0.08377,0.10813 -0.12572,0.16209c0.09515,0.18879 0.16873,0.37379 0.21602,0.55286c0.0512,-0.04942 0.10236,-0.09886 0.1535,-0.14832zM398.03462,204.1269c-0.06246,-0.12895 -0.12694,-0.25512 -0.19367,-0.378c-0.17394,0.08715 -0.33976,0.1696 -0.48509,0.24081c0.02542,0.02114 0.05116,0.04258 0.07718,0.0643c0.18571,0.00985 0.39534,0.03815 0.60156,0.07289zM398.24382,202.4965c0.0051,-0.0027 0.01019,-0.00539 0.0153,-0.00809c-0.15729,-0.26384 -0.31499,-0.53077 -0.47154,-0.8002c-0.04338,0.00562 -0.08676,0.01102 -0.13016,0.01629c0.20799,0.26237 0.40484,0.52639 0.58639,0.79201zM399.22992,201.9995c1.06992,-0.51285 2.16392,-0.95426 3.28656,-1.34334c-0.72361,0.10736 -1.44891,0.1919 -2.17562,0.26776c-0.39511,0.25275 -0.87657,0.42903 -1.39594,0.55626c0.09431,0.17349 0.18938,0.34659 0.28498,0.51932zM411.42851,194.29386c-0.44984,0.53484 -0.89313,1.07637 -1.33168,1.62235c0.59086,-0.20446 1.17854,-0.42244 1.76457,-0.657c-0.10165,-0.26464 -0.20798,-0.52803 -0.31708,-0.79071c-0.03916,-0.05805 -0.07777,-0.11625 -0.1158,-0.17463zM408.99796,197.30355c-0.14601,0.18661 -0.29164,0.3735 -0.43699,0.56062c1.23043,-0.51567 2.44104,-1.06786 3.63523,-1.66887c-0.00355,-0.01081 -0.0071,-0.02161 -0.01067,-0.03241c-1.05453,0.41959 -2.11333,0.79702 -3.18758,1.14066zM410.88377,204.11623c0.7402,-0.13783 1.46948,-0.29018 2.1938,-0.45979c-0.05954,-0.28922 -0.0446,-0.60225 0.00087,-0.92399c-0.71997,0.48347 -1.45444,0.94456 -2.19467,1.38378zM413.58182,208.03405c-0.36994,-0.32097 -0.70159,-0.69132 -0.98404,-1.09175c-0.14823,0.09194 -0.29608,0.18425 -0.44356,0.27699c0.02683,0.1613 0.06125,0.32162 0.10161,0.48117c0.4399,0.11275 0.88227,0.22486 1.32599,0.33359zM412.15934,205.93891c-0.01488,-0.02348 -0.02659,-0.02084 -0.03436,0.01987c0.01145,-0.00662 0.02291,-0.01325 0.03436,-0.01987zM401.41703,210.50249c0.31301,0.80357 0.62602,1.60717 0.93902,2.41074c0.29571,-0.28384 0.59904,-0.56277 0.90912,-0.83701c-0.16369,-0.00035 -0.31978,-0.08163 -0.41308,-0.21961l-0.39122,-0.55218l0.00406,-0.00287c-0.35675,-0.25907 -0.70548,-0.52594 -1.04791,-0.79907zM399.37824,204.35303c-0.20509,-0.34491 -0.41856,-0.69864 -0.63603,-1.05961c-0.00408,0.00208 -0.00816,0.00415 -0.01227,0.00624c0.17443,0.32873 0.33409,0.6769 0.48304,1.03718c0.055,0.00528 0.11008,0.01068 0.16526,0.01618zM398.64198,209.2205c0.17892,-0.21341 0.3566,-0.42862 0.5332,-0.64538c-1.09145,-0.99298 -2.15439,-2.01736 -3.25453,-3.01284c0.86447,1.24737 1.80543,2.44914 2.72133,3.65822zM402.89064,206.50118c-0.22939,-0.06475 -0.45882,-0.12997 -0.68824,-0.19506c-0.12617,0.16817 -0.25266,0.33604 -0.37949,0.50355c0.09513,0.2085 0.18815,0.41821 0.27964,0.62874c0.02463,-0.11087 0.08665,-0.21193 0.17762,-0.28397l0.39654,-0.32941l0.00982,0.01181c0.06657,-0.11238 0.13462,-0.22428 0.20411,-0.33565zM406.3659,198.72512c0.12445,-0.04123 0.24747,-0.0841 0.36901,-0.12872c0.20522,-0.26549 0.41069,-0.53066 0.61661,-0.79536c-0.45388,0.1294 -0.9114,0.25371 -1.37336,0.37351c0.14184,0.18384 0.27184,0.36748 0.38776,0.55057zM414.8401,195.22283c0.23798,-0.18455 0.47324,-0.36786 0.7052,-0.55001c-0.19393,0.09506 -0.3876,0.18841 -0.58109,0.28009c-0.04118,0.09 -0.08255,0.17997 -0.1241,0.26991zM407.61447,206.57414c0.18662,-0.31662 0.37169,-0.63372 0.55629,-0.95012c-0.51175,0.26702 -1.02119,0.52397 -1.52548,0.77099c0.31834,0.05285 0.6416,0.11303 0.96918,0.17912zM411.37207,197.71212c-0.51425,0.24266 -1.03195,0.47685 -1.55308,0.70383c0.42979,-0.13537 0.85915,-0.27204 1.28802,-0.41015c0.08749,-0.09971 0.17588,-0.19791 0.26505,-0.29368zM408.1031,207.69457c-0.25497,0.42183 -0.51372,0.84095 -0.77869,1.25504c0.53294,-0.36405 1.07339,-0.71928 1.61834,-1.06643c-0.2819,-0.06554 -0.56187,-0.12866 -0.83964,-0.18861zM401.95513,209.67412c-0.05004,-0.12158 -0.10002,-0.24329 -0.15006,-0.36502c-0.05525,0.04994 -0.11034,0.0998 -0.16524,0.14956c0.1023,0.07061 0.20872,0.14241 0.3153,0.21547zM407.93746,204.58499c0.41629,-0.22802 0.82938,-0.46187 1.239,-0.70154c0.60746,-1.09629 1.16954,-2.21884 1.70642,-3.35566c-1.22403,1.44939 -2.60529,2.84769 -4.02725,4.19455c0.36489,-0.04365 0.72531,-0.08935 1.08182,-0.13734zM399.11924,207.21811c-0.38794,-0.4997 -1.26033,-1.25856 -2.16348,-2.08518c-0.01414,-0.00151 -0.02828,-0.003 -0.04242,-0.00447c0.74184,0.68835 1.4707,1.39187 2.2059,2.08965zM422.59128,208.62776c-0.95918,0.0405 -1.91763,0.22042 -2.87725,0.43288c0.60309,0.02785 1.19838,0.02476 1.78272,-0.01661c0.36934,-0.12971 0.73183,-0.28939 1.09452,-0.41627z" fill="#4d201d" stroke="none" stroke-width="0.5"/><path d="M410.57687,188.67474c7.73559,1.78603 13.11696,7.08673 10.81411,17.06074c-2.30285,9.974 -9.65879,13.22551 -17.39438,11.43948c-7.73559,-1.78603 -12.9215,-7.93327 -10.61865,-17.90727c2.30285,-9.974 9.46334,-12.37898 17.19893,-10.59295z" fill="#0b0404" stroke="none" stroke-width="0"/><path d="M392.00765,213.72268c-0.50734,2.19736 -4.04499,3.25684 -7.90157,2.36641c-3.85658,-0.89043 -6.57168,-3.39357 -6.06434,-5.59093c0.50734,-2.19736 4.04499,-3.25684 7.90157,-2.36641c3.85658,0.89043 6.57168,3.39357 6.06434,5.59093z" fill="#6e2d2a" stroke="none" stroke-width="0"/><g stroke-width="0"><path d="M361.19423,192.73673c0.98813,-4.27974 5.25857,-6.94811 9.53831,-5.95998c4.27974,0.98813 6.94813,5.25857 5.96,9.53831c-0.98813,4.27974 -5.25859,6.94812 -9.53833,5.95999c-4.27974,-0.98813 -6.94811,-5.25858 -5.95998,-9.53832z" fill="#ffffff" stroke="#ff4a00"/><path d="M362.00283,192.92342c0.88502,-3.83316 4.70986,-6.22309 8.54301,-5.33807c3.83317,0.88502 6.22311,4.70986 5.33809,8.54301c-0.88502,3.83316 -4.70986,6.2231 -8.54303,5.33808c-3.83317,-0.88502 -6.22309,-4.70985 -5.33807,-8.54302z" fill="#080603" stroke="#ff4a00"/><path d="M364.6308,193.53018c0.54992,-2.38177 2.92651,-3.86677 5.30827,-3.31686c2.38177,0.54992 3.86679,2.92652 3.31688,5.30828c-0.54992,2.38177 -2.92652,3.86678 -5.30829,3.31686c-2.38177,-0.54992 -3.86677,-2.92651 -3.31686,-5.30828z" fill="#ffffff" stroke="#ff4a00"/><path d="M370.00966,194.77208c-1.12561,4.87518 -2.51548,8.71707 -3.10437,8.5811c-0.58889,-0.13597 -0.15379,-4.19829 0.97182,-9.07348c1.12561,-4.87518 2.51547,-8.71707 3.10436,-8.58111c0.58889,0.13597 0.1538,4.1983 -0.97181,9.07348z" fill="#080603" stroke="none"/><path d="M368.01534,195.10577c-2.65136,-4.24319 -4.3852,-7.94261 -3.87264,-8.26287c0.51256,-0.32027 3.07739,2.85989 5.72874,7.10309c2.65134,4.2432 4.3852,7.94261 3.87264,8.26288c-0.51256,0.32026 -3.07739,-2.85991 -5.72874,-7.1031z" fill="#080603" stroke="none"/><path d="M361.2604,199.3266c-0.32027,-0.51255 2.85989,-3.07739 7.10309,-5.72874c4.2432,-2.65134 7.94261,-4.3852 8.26288,-3.87264c0.32027,0.51256 -2.85991,3.07739 -7.1031,5.72874c-4.24319,2.65136 -7.94261,4.3852 -8.26287,3.87264z" fill="#080603" stroke="none"/><path d="M360.11609,192.48781c0.13597,-0.58889 4.1983,-0.1538 9.07349,0.97181c4.87518,1.12561 8.71708,2.51548 8.58111,3.10437c-0.13597,0.58889 -4.19829,0.15379 -9.07349,-0.97182c-4.87518,-1.12561 -8.71708,-2.51547 -8.58112,-3.10436z" fill="#080603" stroke="none"/><path d="M367.25879,194.13695c0.21481,-0.93037 1.14317,-1.51045 2.07354,-1.29564c0.93038,0.21481 1.51048,1.14316 1.29566,2.07354c-0.21481,0.93038 -1.14318,1.51046 -2.07356,1.29565c-0.93038,-0.21481 -1.51045,-1.14317 -1.29564,-2.07355z" fill="#ffffff" stroke="#ff4a00"/></g><g stroke-width="0"><path d="M399.53762,201.13569c0.98813,-4.27974 5.25857,-6.94811 9.53831,-5.95998c4.27974,0.98813 6.94813,5.25857 5.96,9.53831c-0.98813,4.27974 -5.25859,6.94812 -9.53833,5.95999c-4.27974,-0.98813 -6.94811,-5.25858 -5.95998,-9.53832z" fill="#ffffff" stroke="#ff4a00"/><path d="M400.34622,201.32238c0.88502,-3.83316 4.70986,-6.22309 8.54301,-5.33807c3.83317,0.88502 6.22311,4.70986 5.33809,8.54301c-0.88502,3.83316 -4.70986,6.2231 -8.54303,5.33808c-3.83317,-0.88502 -6.22309,-4.70985 -5.33807,-8.54302z" fill="#080603" stroke="#ff4a00"/><path d="M402.97419,201.92914c0.54992,-2.38177 2.92651,-3.86677 5.30827,-3.31686c2.38177,0.54992 3.86679,2.92652 3.31688,5.30828c-0.54992,2.38177 -2.92652,3.86678 -5.30829,3.31686c-2.38177,-0.54992 -3.86677,-2.92651 -3.31686,-5.30828z" fill="#ffffff" stroke="#ff4a00"/><path d="M408.35305,203.17104c-1.12561,4.87518 -2.51548,8.71707 -3.10437,8.5811c-0.58889,-0.13597 -0.15379,-4.19829 0.97182,-9.07348c1.12561,-4.87518 2.51547,-8.71707 3.10436,-8.58111c0.58889,0.13597 0.1538,4.1983 -0.97181,9.07348z" fill="#080603" stroke="none"/><path d="M406.35873,203.50474c-2.65136,-4.24319 -4.3852,-7.94261 -3.87264,-8.26287c0.51256,-0.32027 3.07739,2.85989 5.72874,7.10309c2.65134,4.2432 4.3852,7.94261 3.87264,8.26288c-0.51256,0.32026 -3.07739,-2.85991 -5.72874,-7.1031z" fill="#080603" stroke="none"/><path d="M399.60379,207.72556c-0.32027,-0.51255 2.85989,-3.07739 7.10309,-5.72874c4.2432,-2.65134 7.94261,-4.3852 8.26288,-3.87264c0.32027,0.51256 -2.85991,3.07739 -7.1031,5.72874c-4.24319,2.65136 -7.94261,4.3852 -8.26287,3.87264z" fill="#080603" stroke="none"/><path d="M398.45948,200.88677c0.13597,-0.58889 4.1983,-0.1538 9.07349,0.97181c4.87518,1.12561 8.71708,2.51548 8.58111,3.10437c-0.13597,0.58889 -4.19829,0.15379 -9.07349,-0.97182c-4.87518,-1.12561 -8.71708,-2.51547 -8.58112,-3.10436z" fill="#080603" stroke="none"/><path d="M405.60218,202.53591c0.21481,-0.93037 1.14317,-1.51045 2.07354,-1.29564c0.93038,0.21481 1.51048,1.14316 1.29566,2.07354c-0.21481,0.93038 -1.14318,1.51046 -2.07356,1.29565c-0.93038,-0.21481 -1.51045,-1.14317 -1.29564,-2.07355z" fill="#ffffff" stroke="#ff4a00"/></g></g></g></g><path d="M284.25,253.5v-147h151.5v147z" fill="url(#color-39)" stroke="none" stroke-width="NaN" stroke-linecap="butt"/></g></g></svg>