<svg version="1.1" xmlns="http://www.w3.org/2000/svg" xmlns:xlink="http://www.w3.org/1999/xlink" width="680.20606" height="460.63954" viewBox="0,0,680.20606,460.63954"><defs><linearGradient x1="55.33277" y1="412.3386" x2="106.15899" y2="412.93415" gradientUnits="userSpaceOnUse" id="color-1"><stop offset="0" stop-color="#484c5e"/><stop offset="1" stop-color="#212d30"/></linearGradient><linearGradient x1="55.82103" y1="369.60198" x2="124.66159" y2="370.40858" gradientUnits="userSpaceOnUse" id="color-2"><stop offset="0" stop-color="#484c5e"/><stop offset="1" stop-color="#212d30"/></linearGradient><linearGradient x1="56.36359" y1="322.11319" x2="125.20415" y2="322.91977" gradientUnits="userSpaceOnUse" id="color-3"><stop offset="0" stop-color="#484c5e"/><stop offset="1" stop-color="#212d30"/></linearGradient><linearGradient x1="56.84585" y1="279.9009" x2="125.68641" y2="280.70749" gradientUnits="userSpaceOnUse" id="color-4"><stop offset="0" stop-color="#484c5e"/><stop offset="1" stop-color="#212d30"/></linearGradient><linearGradient x1="57.40852" y1="230.6532" x2="126.24907" y2="231.45986" gradientUnits="userSpaceOnUse" id="color-5"><stop offset="0" stop-color="#484c5e"/><stop offset="1" stop-color="#212d30"/></linearGradient><linearGradient x1="57.89077" y1="188.44098" x2="126.73133" y2="189.24758" gradientUnits="userSpaceOnUse" id="color-6"><stop offset="0" stop-color="#484c5e"/><stop offset="1" stop-color="#212d30"/></linearGradient><linearGradient x1="58.43334" y1="140.95212" x2="127.27389" y2="141.75879" gradientUnits="userSpaceOnUse" id="color-7"><stop offset="0" stop-color="#484c5e"/><stop offset="1" stop-color="#212d30"/></linearGradient><linearGradient x1="58.91559" y1="98.73991" x2="127.75615" y2="99.54643" gradientUnits="userSpaceOnUse" id="color-8"><stop offset="0" stop-color="#484c5e"/><stop offset="1" stop-color="#212d30"/></linearGradient><linearGradient x1="666.21182" y1="412.33866" x2="615.38561" y2="412.93421" gradientUnits="userSpaceOnUse" id="color-9"><stop offset="0" stop-color="#484c5e"/><stop offset="1" stop-color="#212d30"/></linearGradient><linearGradient x1="665.72356" y1="369.60204" x2="596.883" y2="370.40864" gradientUnits="userSpaceOnUse" id="color-10"><stop offset="0" stop-color="#484c5e"/><stop offset="1" stop-color="#212d30"/></linearGradient><linearGradient x1="665.181" y1="322.11325" x2="596.34044" y2="322.91983" gradientUnits="userSpaceOnUse" id="color-11"><stop offset="0" stop-color="#484c5e"/><stop offset="1" stop-color="#212d30"/></linearGradient><linearGradient x1="664.69875" y1="279.90096" x2="595.85818" y2="280.70756" gradientUnits="userSpaceOnUse" id="color-12"><stop offset="0" stop-color="#484c5e"/><stop offset="1" stop-color="#212d30"/></linearGradient><linearGradient x1="664.13608" y1="230.65327" x2="595.29552" y2="231.45991" gradientUnits="userSpaceOnUse" id="color-13"><stop offset="0" stop-color="#484c5e"/><stop offset="1" stop-color="#212d30"/></linearGradient><linearGradient x1="663.65382" y1="188.44103" x2="594.81326" y2="189.24763" gradientUnits="userSpaceOnUse" id="color-14"><stop offset="0" stop-color="#484c5e"/><stop offset="1" stop-color="#212d30"/></linearGradient><linearGradient x1="663.11126" y1="140.95218" x2="594.2707" y2="141.75884" gradientUnits="userSpaceOnUse" id="color-15"><stop offset="0" stop-color="#484c5e"/><stop offset="1" stop-color="#212d30"/></linearGradient><linearGradient x1="662.62901" y1="98.73997" x2="593.78844" y2="99.54649" gradientUnits="userSpaceOnUse" id="color-16"><stop offset="0" stop-color="#484c5e"/><stop offset="1" stop-color="#212d30"/></linearGradient></defs><g transform="translate(-20.66928,22.66042)"><g stroke-miterlimit="10"><g fill="none" stroke-width="3.25" stroke-linecap="round"><path d="M55.5783,390.84854c0,0 31.88218,-1.01307 44.50005,-1.41394c9.33843,-0.29674 7.93086,10.39102 -1.90819,17.07183c-8.2408,5.59552 -24.14006,16.39132 -34.15535,23.19176c-5.29823,3.59755 -2.87213,6.14822 1.83047,6.20328c8.90188,0.10434 38.62921,0.45265 38.62921,0.45265" stroke="url(#color-1)"/><path d="M56.06061,348.63619c0,0 31.88223,-1.01307 44.50004,-1.41402c9.33843,-0.29668 7.93086,10.39109 -1.90818,17.07183c-12.60031,8.55566 -43.10516,29.26877 -43.10516,29.26877" stroke="url(#color-2)"/><path d="M56.60312,301.14739c0,0 31.88223,-1.01307 44.50005,-1.41394c9.33843,-0.29668 7.93085,10.39109 -1.90819,17.07183c-12.60031,8.55566 -43.10516,29.26877 -43.10516,29.26877" stroke="url(#color-3)"/><path d="M57.08543,258.93513c0,0 31.88223,-1.01307 44.50005,-1.41394c9.33843,-0.29668 7.93085,10.39109 -1.90819,17.07183c-12.60031,8.55566 -43.10516,29.26877 -43.10516,29.26877" stroke="url(#color-4)"/><path d="M57.64804,209.68748c0,0 31.88223,-1.01307 44.50004,-1.41402c9.33843,-0.29668 7.93086,10.39116 -1.90818,17.0719c-12.60031,8.55566 -43.10516,29.26877 -43.10516,29.26877" stroke="url(#color-5)"/><path d="M58.13035,167.4752c0,0 31.88223,-1.01307 44.50005,-1.41402c9.33843,-0.29668 7.93086,10.39109 -1.90818,17.07183c-12.60031,8.55566 -43.10517,29.26877 -43.10517,29.26877" stroke="url(#color-6)"/><path d="M58.67286,119.9864c0,0 31.88223,-1.01307 44.50005,-1.41394c9.33843,-0.29668 7.93085,10.39109 -1.90819,17.07183c-12.60031,8.55566 -43.10516,29.26883 -43.10516,29.26883" stroke="url(#color-7)"/><path d="M59.15517,77.77412c0,0 31.88223,-1.01307 44.50005,-1.41394c9.33843,-0.29668 7.93085,10.39109 -1.90819,17.07183c-12.60031,8.55566 -43.10516,29.26877 -43.10516,29.26877" stroke="url(#color-8)"/></g><path d="M38.49488,68.50927c-4.68434,-17.07174 -31.70144,-73.08674 6.64436,-82.56975c39.58293,-9.78893 44.12161,49.50232 54.2833,46.72217c13.13656,-3.59403 3.62524,-14.33841 11.15548,-10.61275c20.95938,10.36986 7.64552,37.34858 9.02771,42.38593c2.94357,10.72772 32.77133,30.28672 23.40582,36.3766c-5.53849,3.60136 -47.15613,-3.84634 -55.47953,-3.42824c-5.43594,0.27308 -57.29021,31.88384 -62.43334,30.64313c-16.04865,-3.87147 16.9437,-46.58851 13.39621,-59.51705z" fill="#0d0d0d" stroke="#000000" stroke-width="0" stroke-linecap="butt"/><g fill="none" stroke-width="3.25" stroke-linecap="round"><path d="M617.07011,436.35412c0,0 29.72733,-0.34831 38.6292,-0.45265c4.7026,-0.05512 7.12869,-2.60574 1.83047,-6.20328c-10.01528,-6.80045 -25.91455,-17.59624 -34.15535,-23.19177c-9.83905,-6.68081 -11.24662,-17.36858 -1.90819,-17.07183c12.61786,0.40089 44.50005,1.41394 44.50005,1.41394" stroke="url(#color-9)"/><path d="M665.99729,393.5629c0,0 -30.50486,-20.7131 -43.10517,-29.26877c-9.83904,-6.68074 -11.24661,-17.36851 -1.90818,-17.07183c12.61782,0.40089 44.50005,1.41402 44.50005,1.41402" stroke="url(#color-10)"/><path d="M665.45477,346.07411c0,0 -30.50486,-20.71303 -43.10516,-29.26877c-9.83904,-6.68074 -11.24661,-17.36851 -1.90819,-17.07183c12.61782,0.40089 44.50005,1.41394 44.50005,1.41394" stroke="url(#color-11)"/><path d="M664.97247,303.86184c0,0 -30.50486,-20.71303 -43.10516,-29.26877c-9.83904,-6.68074 -11.24661,-17.36851 -1.90819,-17.07183c12.61782,0.40089 44.50005,1.41394 44.50005,1.41394" stroke="url(#color-12)"/><path d="M664.40985,254.61419c0,0 -30.50485,-20.71303 -43.10516,-29.26877c-9.83904,-6.68074 -11.24661,-17.36858 -1.90819,-17.0719c12.61782,0.40089 44.50005,1.41402 44.50005,1.41402" stroke="url(#color-13)"/><path d="M663.92755,212.40183c0,0 -30.50486,-20.7131 -43.10517,-29.26877c-9.83904,-6.68074 -11.2466,-17.36851 -1.90818,-17.07183c12.61782,0.40089 44.50005,1.41402 44.50005,1.41402" stroke="url(#color-14)"/><path d="M663.38503,164.91311c0,0 -30.50486,-20.7131 -43.10516,-29.26883c-9.83904,-6.68074 -11.24661,-17.36851 -1.90819,-17.07183c12.61782,0.40089 44.50005,1.41394 44.50005,1.41394" stroke="url(#color-15)"/><path d="M662.90273,122.70076c0,0 -30.50486,-20.71303 -43.10516,-29.26877c-9.83904,-6.68074 -11.24661,-17.36851 -1.90819,-17.07183c12.61782,0.40089 44.50005,1.41394 44.50005,1.41394" stroke="url(#color-16)"/></g><path d="M683.04972,61.00182c-3.54749,12.92854 29.44486,55.64558 13.39621,59.51705c-5.14314,1.24072 -56.99741,-30.37005 -62.43335,-30.64312c-8.3234,-0.41809 -49.94104,7.0296 -55.47953,3.42824c-9.36551,-6.08987 20.46224,-25.64888 23.40582,-36.3766c1.38219,-5.03735 -11.93166,-32.01607 9.02771,-42.38593c7.53025,-3.72566 -1.98108,7.01872 11.15548,10.61275c10.16169,2.78015 14.70037,-56.51111 54.2833,-46.72217c38.34579,9.48301 11.3287,65.49801 6.64436,82.56975z" fill="#0d0d0d" stroke="#000000" stroke-width="0" stroke-linecap="butt"/></g></g></svg>