<svg version="1.1" xmlns="http://www.w3.org/2000/svg" xmlns:xlink="http://www.w3.org/1999/xlink" width="803.04805" height="418.16817" viewBox="0,0,803.04805,418.16817"><defs><linearGradient x1="571.10773" y1="110.08622" x2="571.10773" y2="156.08622" gradientUnits="userSpaceOnUse" id="color-1"><stop offset="0" stop-color="#000000" stop-opacity="0.48235"/><stop offset="1" stop-color="#000000" stop-opacity="0"/></linearGradient><linearGradient x1="436.0244" y1="113.68532" x2="436.0244" y2="145.93529" gradientUnits="userSpaceOnUse" id="color-2"><stop offset="0" stop-color="#412b15"/><stop offset="1" stop-color="#2c1d0e"/></linearGradient><linearGradient x1="707.35773" y1="113.68532" x2="707.35773" y2="145.93529" gradientUnits="userSpaceOnUse" id="color-3"><stop offset="0" stop-color="#412b15"/><stop offset="1" stop-color="#2c1d0e"/></linearGradient><linearGradient x1="573.10773" y1="246.72287" x2="573.10773" y2="292.72285" gradientUnits="userSpaceOnUse" id="color-4"><stop offset="0" stop-color="#000000" stop-opacity="0.48235"/><stop offset="1" stop-color="#000000" stop-opacity="0"/></linearGradient><linearGradient x1="438.0244" y1="250.32195" x2="438.0244" y2="282.57196" gradientUnits="userSpaceOnUse" id="color-5"><stop offset="0" stop-color="#412b15"/><stop offset="1" stop-color="#2c1d0e"/></linearGradient><linearGradient x1="709.35774" y1="250.32195" x2="709.35774" y2="282.57196" gradientUnits="userSpaceOnUse" id="color-6"><stop offset="0" stop-color="#412b15"/><stop offset="1" stop-color="#2c1d0e"/></linearGradient><linearGradient x1="344.8994" y1="213.96742" x2="400.8994" y2="213.96742" gradientUnits="userSpaceOnUse" id="color-7"><stop offset="0" stop-color="#040507"/><stop offset="1" stop-color="#040507" stop-opacity="0"/></linearGradient><linearGradient x1="56.8994" y1="213.9892" x2="0.8994" y2="213.9892" gradientUnits="userSpaceOnUse" id="color-8"><stop offset="0" stop-color="#040507"/><stop offset="1" stop-color="#040507" stop-opacity="0"/></linearGradient><linearGradient x1="-40.86111" y1="179.24932" x2="-1.11111" y2="179.24932" gradientUnits="userSpaceOnUse" id="color-9"><stop offset="0" stop-color="#000000"/><stop offset="1" stop-color="#000000" stop-opacity="0"/></linearGradient><linearGradient x1="762.14715" y1="180.00007" x2="722.39715" y2="180.00007" gradientUnits="userSpaceOnUse" id="color-10"><stop offset="0" stop-color="#000000"/><stop offset="1" stop-color="#000000" stop-opacity="0"/></linearGradient><linearGradient x1="357.78145" y1="387.95803" x2="357.78145" y2="367.2953" gradientUnits="userSpaceOnUse" id="color-11"><stop offset="0" stop-color="#000000"/><stop offset="1" stop-color="#000000" stop-opacity="0"/></linearGradient><linearGradient x1="359.21555" y1="-29.45939" x2="359.21555" y2="-8.79666" gradientUnits="userSpaceOnUse" id="color-12"><stop offset="0" stop-color="#000000"/><stop offset="1" stop-color="#000000" stop-opacity="0"/></linearGradient></defs><g transform="translate(40.9009,29.45939)"><g stroke-width="0" stroke-miterlimit="10"><path d="M-39.3994,386.45652v-412.91291h798.7988v412.91291z" fill="#8c7b56" stroke="#2b2b2b"/><path d="M-40.9009,265.33484v-136.63664h798.7988v136.63664z" fill="#8c7238" stroke="#2b2b2b"/><path d="M32,386.45652c0,0 0,-270.14014 0,-317.95646c0,-13.92833 16.27764,-26.97823 25,-26.97823c31.87472,0 217.51778,0 286,0c15.58625,0 27,16.38713 27,32.97823c0,51.028 0,311.95646 0,311.95646z" fill="#040507" stroke="#2b2b2b"/><g stroke="#2b2b2b"><path d="M421.60773,156.08622l-19,-46h337l-20,46z" fill="url(#color-1)"/><path d="M428.8994,145.93529l-13,-32.25h40.25l-9.75,32z" fill="url(#color-2)"/><path d="M696.98273,145.68529l-9.75,-32h40.25l-13,32.25z" fill="url(#color-3)"/><path d="M403,120.81032v-19.5h336.5v19.5z" fill="#52361a"/></g><g stroke="#2b2b2b"><path d="M423.60773,292.72285l-19,-46h337l-20,46z" fill="url(#color-4)"/><path d="M430.8994,282.57196l-13,-32.25h40.25l-9.75,32z" fill="url(#color-5)"/><path d="M698.98274,282.32196l-9.75,-32h40.25l-13,32.25z" fill="url(#color-6)"/><path d="M405,257.44696v-19.5h336.5v19.5z" fill="#52361a"/></g><path d="M344.8994,386.43477v-344.93469h56v344.93469z" fill="url(#color-7)" stroke="#2b2b2b"/><path d="M0.8994,386.45652v-344.93469h56v344.93469z" fill="url(#color-8)" stroke="#2b2b2b"/><path d="M0,46.54362c0,-3.16636 0,-9.54501 0,-15c0,-5.16385 6.92367,-9.5 12.80152,-9.5c32.68586,0 321.26427,0 379.565,0c6.5931,0 10.24122,2.92095 10.24122,7.5c0,4.06018 0,13.6504 0,20c0,3.23569 -3.81725,6 -9.60114,6c-55.64513,0 -351.92249,0 -382.1253,0c-4.84367,0 -10.88129,-5.26423 -10.88129,-9z" fill="#8c8169" stroke="#2b2b2b"/><path d="M173.30387,38.79361c0,-15.46397 12.53602,-28 28,-28c15.46398,0 28,12.53603 28,28c0,15.46397 -12.53602,28 -28,28c-15.46398,0 -28,-12.53603 -28,-28z" fill="#838383" stroke="#2b2b2b"/><path d="M181.42887,40.0203c0,-10.97666 8.89834,-19.875 19.875,-19.875c10.97666,0 19.875,8.89834 19.875,19.875c0,10.97666 -8.89834,19.875 -19.875,19.875c-10.97666,0 -19.875,-8.89834 -19.875,-19.875z" fill="#0f0f0f" stroke="#2b2b2b"/><g stroke="#000000"><path d="M-40.86111,387.95803v-417.41742h39.75v417.41742z" fill="url(#color-9)"/><path d="M722.39715,388.70878v-417.41742h39.75v417.41742z" fill="url(#color-10)"/><path d="M756.46379,387.95803h-797.36469l0,-20.66273h797.36469z" fill="url(#color-11)"/><path d="M757.8979,-8.79666h-797.36469l0,-20.66273h797.36469z" fill="url(#color-12)"/></g></g></g></svg>