<svg version="1.1" xmlns="http://www.w3.org/2000/svg" xmlns:xlink="http://www.w3.org/1999/xlink" width="680.20605" height="647.909" viewBox="0,0,680.20605,647.909"><defs><linearGradient x1="55.33277" y1="410.51028" x2="106.15899" y2="411.15117" gradientUnits="userSpaceOnUse" id="color-1"><stop offset="0" stop-color="#484c5e"/><stop offset="1" stop-color="#212d30"/></linearGradient><linearGradient x1="55.82103" y1="364.52009" x2="124.66159" y2="365.38809" gradientUnits="userSpaceOnUse" id="color-2"><stop offset="0" stop-color="#484c5e"/><stop offset="1" stop-color="#212d30"/></linearGradient><linearGradient x1="56.36359" y1="313.41593" x2="125.20415" y2="314.28392" gradientUnits="userSpaceOnUse" id="color-3"><stop offset="0" stop-color="#484c5e"/><stop offset="1" stop-color="#212d30"/></linearGradient><linearGradient x1="56.84585" y1="267.98998" x2="125.68641" y2="268.85798" gradientUnits="userSpaceOnUse" id="color-4"><stop offset="0" stop-color="#484c5e"/><stop offset="1" stop-color="#212d30"/></linearGradient><linearGradient x1="57.40852" y1="214.99301" x2="126.24907" y2="215.86109" gradientUnits="userSpaceOnUse" id="color-5"><stop offset="0" stop-color="#484c5e"/><stop offset="1" stop-color="#212d30"/></linearGradient><linearGradient x1="57.89077" y1="169.56714" x2="126.73133" y2="170.43515" gradientUnits="userSpaceOnUse" id="color-6"><stop offset="0" stop-color="#484c5e"/><stop offset="1" stop-color="#212d30"/></linearGradient><linearGradient x1="58.43334" y1="118.46291" x2="127.27389" y2="119.331" gradientUnits="userSpaceOnUse" id="color-7"><stop offset="0" stop-color="#484c5e"/><stop offset="1" stop-color="#212d30"/></linearGradient><linearGradient x1="58.91559" y1="73.03705" x2="127.75615" y2="73.90497" gradientUnits="userSpaceOnUse" id="color-8"><stop offset="0" stop-color="#484c5e"/><stop offset="1" stop-color="#212d30"/></linearGradient><linearGradient x1="666.21182" y1="408.90771" x2="615.38561" y2="409.58835" gradientUnits="userSpaceOnUse" id="color-9"><stop offset="0" stop-color="#484c5e"/><stop offset="1" stop-color="#212d30"/></linearGradient><linearGradient x1="665.72356" y1="360.06556" x2="596.883" y2="360.98739" gradientUnits="userSpaceOnUse" id="color-10"><stop offset="0" stop-color="#484c5e"/><stop offset="1" stop-color="#212d30"/></linearGradient><linearGradient x1="665.181" y1="305.79232" x2="596.34044" y2="306.71413" gradientUnits="userSpaceOnUse" id="color-11"><stop offset="0" stop-color="#484c5e"/><stop offset="1" stop-color="#212d30"/></linearGradient><linearGradient x1="664.69875" y1="257.5494" x2="595.85818" y2="258.47123" gradientUnits="userSpaceOnUse" id="color-12"><stop offset="0" stop-color="#484c5e"/><stop offset="1" stop-color="#212d30"/></linearGradient><linearGradient x1="664.13608" y1="201.26597" x2="595.29552" y2="202.18785" gradientUnits="userSpaceOnUse" id="color-13"><stop offset="0" stop-color="#484c5e"/><stop offset="1" stop-color="#212d30"/></linearGradient><linearGradient x1="663.65382" y1="153.02311" x2="594.81326" y2="153.94495" gradientUnits="userSpaceOnUse" id="color-14"><stop offset="0" stop-color="#484c5e"/><stop offset="1" stop-color="#212d30"/></linearGradient><linearGradient x1="663.11126" y1="98.7498" x2="594.2707" y2="99.67171" gradientUnits="userSpaceOnUse" id="color-15"><stop offset="0" stop-color="#484c5e"/><stop offset="1" stop-color="#212d30"/></linearGradient><linearGradient x1="662.62901" y1="50.50698" x2="593.78844" y2="51.42872" gradientUnits="userSpaceOnUse" id="color-16"><stop offset="0" stop-color="#484c5e"/><stop offset="1" stop-color="#212d30"/></linearGradient><linearGradient x1="259.90875" y1="419.35347" x2="435.5839" y2="432.08056" gradientUnits="userSpaceOnUse" id="color-17"><stop offset="0" stop-color="#484c5e"/><stop offset="1" stop-color="#212d30"/></linearGradient><linearGradient x1="259.39249" y1="192.46828" x2="468.79728" y2="207.63896" gradientUnits="userSpaceOnUse" id="color-18"><stop offset="0" stop-color="#484c5e"/><stop offset="1" stop-color="#212d30"/></linearGradient><linearGradient x1="356.1779" y1="186.00316" x2="380.71409" y2="187.78072" gradientUnits="userSpaceOnUse" id="color-19"><stop offset="0" stop-color="#484c5e"/><stop offset="1" stop-color="#212d30"/></linearGradient><linearGradient x1="353.5113" y1="222.81097" x2="386.74388" y2="225.21856" gradientUnits="userSpaceOnUse" id="color-20"><stop offset="0" stop-color="#484c5e"/><stop offset="1" stop-color="#212d30"/></linearGradient><linearGradient x1="350.54818" y1="263.7117" x2="383.78075" y2="266.11929" gradientUnits="userSpaceOnUse" id="color-21"><stop offset="0" stop-color="#484c5e"/><stop offset="1" stop-color="#212d30"/></linearGradient><linearGradient x1="347.9143" y1="300.06792" x2="381.14686" y2="302.47551" gradientUnits="userSpaceOnUse" id="color-22"><stop offset="0" stop-color="#484c5e"/><stop offset="1" stop-color="#212d30"/></linearGradient><linearGradient x1="344.84142" y1="342.48353" x2="378.07399" y2="344.89112" gradientUnits="userSpaceOnUse" id="color-23"><stop offset="0" stop-color="#484c5e"/><stop offset="1" stop-color="#212d30"/></linearGradient><linearGradient x1="342.20753" y1="378.8397" x2="375.44011" y2="381.2473" gradientUnits="userSpaceOnUse" id="color-24"><stop offset="0" stop-color="#484c5e"/><stop offset="1" stop-color="#212d30"/></linearGradient><linearGradient x1="339.24441" y1="419.74047" x2="372.47698" y2="422.14806" gradientUnits="userSpaceOnUse" id="color-25"><stop offset="0" stop-color="#484c5e"/><stop offset="1" stop-color="#212d30"/></linearGradient><linearGradient x1="336.61053" y1="456.09665" x2="369.84309" y2="458.50424" gradientUnits="userSpaceOnUse" id="color-26"><stop offset="0" stop-color="#484c5e"/><stop offset="1" stop-color="#212d30"/></linearGradient><linearGradient x1="472.16925" y1="249.913" x2="432.60937" y2="251.87534" gradientUnits="userSpaceOnUse" id="color-27"><stop offset="0" stop-color="#484c5e"/><stop offset="1" stop-color="#212d30"/></linearGradient><linearGradient x1="473.79857" y1="282.75932" x2="420.21749" y2="285.4172" gradientUnits="userSpaceOnUse" id="color-28"><stop offset="0" stop-color="#484c5e"/><stop offset="1" stop-color="#212d30"/></linearGradient><linearGradient x1="475.60908" y1="319.25808" x2="422.02799" y2="321.91591" gradientUnits="userSpaceOnUse" id="color-29"><stop offset="0" stop-color="#484c5e"/><stop offset="1" stop-color="#212d30"/></linearGradient><linearGradient x1="477.21842" y1="351.70137" x2="423.63733" y2="354.35925" gradientUnits="userSpaceOnUse" id="color-30"><stop offset="0" stop-color="#484c5e"/><stop offset="1" stop-color="#212d30"/></linearGradient><linearGradient x1="479.09597" y1="389.55193" x2="425.51487" y2="392.20977" gradientUnits="userSpaceOnUse" id="color-31"><stop offset="0" stop-color="#484c5e"/><stop offset="1" stop-color="#212d30"/></linearGradient><linearGradient x1="480.70531" y1="421.99522" x2="427.12423" y2="424.6531" gradientUnits="userSpaceOnUse" id="color-32"><stop offset="0" stop-color="#484c5e"/><stop offset="1" stop-color="#212d30"/></linearGradient><linearGradient x1="482.51582" y1="458.49396" x2="428.93472" y2="461.15181" gradientUnits="userSpaceOnUse" id="color-33"><stop offset="0" stop-color="#484c5e"/><stop offset="1" stop-color="#212d30"/></linearGradient><linearGradient x1="484.12513" y1="490.93726" x2="430.54407" y2="493.59514" gradientUnits="userSpaceOnUse" id="color-34"><stop offset="0" stop-color="#484c5e"/><stop offset="1" stop-color="#212d30"/></linearGradient><linearGradient x1="246.75811" y1="233.58271" x2="285.62205" y2="241.22659" gradientUnits="userSpaceOnUse" id="color-35"><stop offset="0" stop-color="#484c5e"/><stop offset="1" stop-color="#212d30"/></linearGradient><linearGradient x1="240.41143" y1="265.8512" x2="293.04992" y2="276.20434" gradientUnits="userSpaceOnUse" id="color-36"><stop offset="0" stop-color="#484c5e"/><stop offset="1" stop-color="#212d30"/></linearGradient><linearGradient x1="233.35902" y1="301.70782" x2="285.99751" y2="312.06097" gradientUnits="userSpaceOnUse" id="color-37"><stop offset="0" stop-color="#484c5e"/><stop offset="1" stop-color="#212d30"/></linearGradient><linearGradient x1="227.0902" y1="333.5804" x2="279.7287" y2="343.93355" gradientUnits="userSpaceOnUse" id="color-38"><stop offset="0" stop-color="#484c5e"/><stop offset="1" stop-color="#212d30"/></linearGradient><linearGradient x1="219.7766" y1="370.7651" x2="272.41509" y2="381.1182" gradientUnits="userSpaceOnUse" id="color-39"><stop offset="0" stop-color="#484c5e"/><stop offset="1" stop-color="#212d30"/></linearGradient><linearGradient x1="213.50778" y1="402.63765" x2="266.14628" y2="412.99079" gradientUnits="userSpaceOnUse" id="color-40"><stop offset="0" stop-color="#484c5e"/><stop offset="1" stop-color="#212d30"/></linearGradient><linearGradient x1="206.45538" y1="438.4943" x2="259.09388" y2="448.84741" gradientUnits="userSpaceOnUse" id="color-41"><stop offset="0" stop-color="#484c5e"/><stop offset="1" stop-color="#212d30"/></linearGradient><linearGradient x1="200.18656" y1="470.36685" x2="252.82505" y2="480.71999" gradientUnits="userSpaceOnUse" id="color-42"><stop offset="0" stop-color="#484c5e"/><stop offset="1" stop-color="#212d30"/></linearGradient><linearGradient x1="309.61002" y1="299.24932" x2="405.21163" y2="306.17534" gradientUnits="userSpaceOnUse" id="color-43"><stop offset="0" stop-color="#484c5e"/><stop offset="1" stop-color="#212d30"/></linearGradient><linearGradient x1="450.31964" y1="271.66113" x2="391.93698" y2="267.43151" gradientUnits="userSpaceOnUse" id="color-44"><stop offset="0" stop-color="#484c5e"/><stop offset="1" stop-color="#212d30"/></linearGradient><linearGradient x1="271.15214" y1="264.34136" x2="329.53481" y2="268.571" gradientUnits="userSpaceOnUse" id="color-45"><stop offset="0" stop-color="#484c5e"/><stop offset="1" stop-color="#212d30"/></linearGradient><radialGradient cx="367.97496" cy="158.20526" r="43.75" gradientUnits="userSpaceOnUse" id="color-46"><stop offset="0" stop-color="#ffffff" stop-opacity="0.43529"/><stop offset="1" stop-color="#ffffff" stop-opacity="0"/></radialGradient><linearGradient x1="327.14035" y1="142.50185" x2="408.80957" y2="173.90866" gradientUnits="userSpaceOnUse" id="color-47"><stop offset="0" stop-color="#484c5e"/><stop offset="1" stop-color="#212d30"/></linearGradient><linearGradient x1="361.58643" y1="155.57225" x2="374.7886" y2="160.6493" gradientUnits="userSpaceOnUse" id="color-48"><stop offset="0" stop-color="#484c5e"/><stop offset="1" stop-color="#212d30"/></linearGradient><radialGradient cx="416.90478" cy="178.62886" r="43.75" gradientUnits="userSpaceOnUse" id="color-49"><stop offset="0" stop-color="#ffffff" stop-opacity="0.43529"/><stop offset="1" stop-color="#ffffff" stop-opacity="0"/></radialGradient><linearGradient x1="376.07017" y1="162.92545" x2="457.73939" y2="194.33225" gradientUnits="userSpaceOnUse" id="color-50"><stop offset="0" stop-color="#484c5e"/><stop offset="1" stop-color="#212d30"/></linearGradient><linearGradient x1="410.51624" y1="175.99585" x2="423.71841" y2="181.0729" gradientUnits="userSpaceOnUse" id="color-51"><stop offset="0" stop-color="#484c5e"/><stop offset="1" stop-color="#212d30"/></linearGradient></defs><g transform="translate(-20.66927,63.20095)"><g stroke-miterlimit="10"><g fill="none" stroke-width="3.25" stroke-linecap="round"><path d="M55.5783,387.38417c0,0 31.88218,-1.0902 44.50005,-1.52158c9.33843,-0.31933 7.93086,11.1821 -1.90819,18.37152c-8.2408,6.02151 -24.14006,17.63921 -34.15535,24.95737c-5.29823,3.87143 -2.87213,6.61629 1.83047,6.67554c8.90188,0.11228 38.62921,0.48711 38.62921,0.48711" stroke="url(#color-1)"/><path d="M56.06061,341.95815c0,0 31.88223,-1.0902 44.50004,-1.52167c9.33843,-0.31927 7.93086,11.18217 -1.90818,18.37152c-12.60031,9.20701 -43.10516,31.49703 -43.10516,31.49703" stroke="url(#color-2)"/><path d="M56.60312,290.85399c0,0 31.88223,-1.0902 44.50005,-1.52158c9.33843,-0.31927 7.93085,11.18217 -1.90819,18.37152c-12.60031,9.20701 -43.10516,31.49703 -43.10516,31.49703" stroke="url(#color-3)"/><path d="M57.08543,245.42807c0,0 31.88223,-1.0902 44.50005,-1.52158c9.33843,-0.31927 7.93085,11.18217 -1.90819,18.37152c-12.60031,9.20701 -43.10516,31.49703 -43.10516,31.49703" stroke="url(#color-4)"/><path d="M57.64804,192.43116c0,0 31.88223,-1.0902 44.50004,-1.52167c9.33843,-0.31927 7.93086,11.18225 -1.90818,18.3716c-12.60031,9.20701 -43.10516,31.49703 -43.10516,31.49703" stroke="url(#color-5)"/><path d="M58.13035,147.00522c0,0 31.88223,-1.0902 44.50005,-1.52167c9.33843,-0.31927 7.93086,11.18217 -1.90818,18.37152c-12.60031,9.20701 -43.10517,31.49703 -43.10517,31.49703" stroke="url(#color-6)"/><path d="M58.67286,95.90106c0,0 31.88223,-1.0902 44.50005,-1.52158c9.33843,-0.31927 7.93085,11.18217 -1.90819,18.37152c-12.60031,9.20701 -43.10516,31.49709 -43.10516,31.49709" stroke="url(#color-7)"/><path d="M59.15517,50.47512c0,0 31.88223,-1.0902 44.50005,-1.52158c9.33843,-0.31927 7.93085,11.18217 -1.90819,18.37152c-12.60031,9.20701 -43.10516,31.49703 -43.10516,31.49703" stroke="url(#color-8)"/></g><path d="M38.49488,36.97774c-4.68434,-17.07174 -31.70144,-73.08674 6.64436,-82.56975c39.58293,-9.78893 44.12161,49.50232 54.2833,46.72217c13.13656,-3.59403 3.62524,-14.33841 11.15548,-10.61275c20.95938,10.36986 7.64552,37.34858 9.02771,42.38593c2.94357,10.72772 32.77133,30.28672 23.40582,36.3766c-5.53849,3.60136 -47.15613,-3.84634 -55.47953,-3.42824c-5.43594,0.27308 -57.29021,31.88384 -62.43334,30.64313c-16.04865,-3.87147 16.9437,-46.58851 13.39621,-59.51705z" fill="#0d0d0d" stroke="#000000" stroke-width="0" stroke-linecap="butt"/><g fill="none" stroke-width="3.25" stroke-linecap="round"><path d="M617.07011,436.35412c0,0 29.72733,-0.39807 38.6292,-0.51732c4.7026,-0.06299 7.12869,-2.97801 1.83047,-7.08951c-10.01528,-7.77199 -25.91455,-20.11011 -34.15535,-26.50505c-9.83905,-7.63526 -11.24662,-19.84993 -1.90819,-19.51078c12.61786,0.45816 44.50005,1.61594 44.50005,1.61594" stroke="url(#color-9)"/><path d="M665.99729,387.44957c0,0 -30.50486,-23.67226 -43.10517,-33.45023c-9.83904,-7.63518 -11.24661,-19.84985 -1.90818,-19.51078c12.61782,0.45816 44.50005,1.61603 44.50005,1.61603" stroke="url(#color-10)"/><path d="M665.45477,333.17633c0,0 -30.50486,-23.67218 -43.10516,-33.45023c-9.83904,-7.63518 -11.24661,-19.84985 -1.90819,-19.51078c12.61782,0.45816 44.50005,1.61594 44.50005,1.61594" stroke="url(#color-11)"/><path d="M664.97247,284.93343c0,0 -30.50486,-23.67218 -43.10516,-33.45023c-9.83904,-7.63518 -11.24661,-19.84985 -1.90819,-19.51078c12.61782,0.45816 44.50005,1.61594 44.50005,1.61594" stroke="url(#color-12)"/><path d="M664.40985,228.65005c0,0 -30.50485,-23.67218 -43.10516,-33.45023c-9.83904,-7.63518 -11.24661,-19.84993 -1.90819,-19.51086c12.61782,0.45816 44.50005,1.61603 44.50005,1.61603" stroke="url(#color-13)"/><path d="M663.92755,180.40705c0,0 -30.50486,-23.67226 -43.10517,-33.45023c-9.83904,-7.63518 -11.2466,-19.84985 -1.90818,-19.51078c12.61782,0.45816 44.50005,1.61603 44.50005,1.61603" stroke="url(#color-14)"/><path d="M663.38503,126.13389c0,0 -30.50486,-23.67226 -43.10516,-33.4503c-9.83904,-7.63518 -11.24661,-19.84985 -1.90819,-19.51078c12.61782,0.45816 44.50005,1.61594 44.50005,1.61594" stroke="url(#color-15)"/><path d="M662.90273,77.89091c0,0 -30.50486,-23.67218 -43.10516,-33.45023c-9.83904,-7.63518 -11.24661,-19.84985 -1.90819,-19.51078c12.61782,0.45816 44.50005,1.61594 44.50005,1.61594" stroke="url(#color-16)"/></g><path d="M683.04971,20.46128c-3.54749,12.92854 29.44486,55.64558 13.39621,59.51705c-5.14314,1.24072 -56.99741,-30.37005 -62.43335,-30.64312c-8.3234,-0.41809 -49.94104,7.0296 -55.47953,3.42824c-9.36551,-6.08987 20.46224,-25.64888 23.40582,-36.3766c1.38219,-5.03735 -11.93166,-32.01607 9.02771,-42.38593c7.53025,-3.72566 -1.98108,7.01872 11.15548,10.61275c10.16169,2.78015 14.70037,-56.51111 54.2833,-46.72217c38.34579,9.48301 11.3287,65.49801 6.64436,82.56975z" fill="#0d0d0d" stroke="#000000" stroke-width="0" stroke-linecap="butt"/><g><path d="M435.58387,432.08055c-0.16378,2.26072 -25.7753,0.21684 -51.00618,-12.17979c-11.58522,-5.69212 -14.95702,-25.79928 -30.22249,-26.90521c-17.30184,-1.25345 -19.45702,17.90228 -33.63959,23.39472c-25.58285,9.90738 -57.75255,9.55619 -57.59881,7.43394c0.23898,-3.29878 44.00897,-110.54028 92.52029,-107.02578c48.51136,3.51449 80.18575,111.98335 79.94677,115.28211z" fill="#4c1212" stroke="url(#color-17)" stroke-width="0" stroke-linecap="butt"/><path d="M468.79728,207.63896c-0.17572,2.42558 -44.77064,35.7845 -102.59616,31.59523c-57.82552,-4.18927 -102.7986,-38.73918 -102.62287,-41.16475c0.08676,-1.19745 51.04288,7.65734 101.69206,10.00398c51.94611,2.40671 103.61589,-1.66255 103.52692,-0.43446z" fill="#4c1212" stroke="url(#color-18)" stroke-width="0" stroke-linecap="butt"/><g fill="none" stroke-width="3.25" stroke-linecap="round"><path d="M381.49254,167.54597c0,0 -14.35076,-1.03967 -18.6481,-1.35098c-2.27019,-0.16446 -3.61262,1.92172 -1.30343,5.25707c4.3651,6.30484 11.29472,16.31372 14.88642,21.50148c4.28828,6.19386 4.24096,15.45686 -0.23959,14.78067c-6.05395,-0.91366 -21.35083,-3.22224 -21.35083,-3.22224" stroke="url(#color-19)"/><path d="M355.00637,202.1742c0,0 13.29539,19.20342 18.78716,27.13557c4.28828,6.19386 4.24096,15.45683 -0.23959,14.78067c-6.05395,-0.91366 -21.35083,-3.22224 -21.35083,-3.22224" stroke="url(#color-20)"/><path d="M352.04325,243.07494c0,0 13.29539,19.20342 18.78716,27.13557c4.28828,6.19386 4.24096,15.45683 -0.23959,14.78067c-6.05395,-0.91366 -21.35083,-3.22224 -21.35083,-3.22224" stroke="url(#color-21)"/><path d="M349.40936,279.43114c0,0 13.29539,19.20342 18.78716,27.13557c4.28828,6.19386 4.24096,15.45683 -0.23959,14.78067c-6.05395,-0.91366 -21.35083,-3.22224 -21.35083,-3.22224" stroke="url(#color-22)"/><path d="M346.33649,321.84672c0,0 13.29539,19.20342 18.78716,27.13557c4.28828,6.19386 4.24096,15.45683 -0.23959,14.78067c-6.05395,-0.91366 -21.35083,-3.22224 -21.35083,-3.22224" stroke="url(#color-23)"/><path d="M343.7026,358.20293c0,0 13.29539,19.20342 18.78716,27.13557c4.28828,6.19386 4.24096,15.45683 -0.23959,14.78067c-6.05395,-0.91366 -21.35083,-3.22224 -21.35083,-3.22224" stroke="url(#color-24)"/><path d="M340.73948,399.10366c0,0 13.29539,19.20342 18.78716,27.13557c4.28828,6.19386 4.24096,15.45683 -0.23959,14.78067c-6.05395,-0.91366 -21.35083,-3.22224 -21.35083,-3.22224" stroke="url(#color-25)"/><path d="M338.10559,435.45989c0,0 13.29539,19.20342 18.78716,27.13557c4.28828,6.19386 4.24096,15.45683 -0.23959,14.78067c-6.05395,-0.91366 -21.35083,-3.22224 -21.35083,-3.22224" stroke="url(#color-26)"/></g><g><g fill="none" stroke-width="3.25" stroke-linecap="round"><path d="M472.98856,266.42977c0,0 -24.74986,2.29592 -34.54502,3.20455c-7.24934,0.67249 -6.657,-7.60307 0.68155,-13.20252c6.14652,-4.68989 18.00523,-13.73832 25.4753,-19.43808c3.95176,-3.01526 1.94488,-4.85875 -1.71534,-4.67719c-6.92866,0.3437 -30.0665,1.49145 -30.0665,1.49145" stroke="url(#color-27)"/><path d="M474.5979,298.87307c0,0 -24.74987,2.29595 -34.54501,3.20458c-7.24934,0.67249 -6.657,-7.60307 0.6816,-13.20255c9.39812,-7.17092 32.15061,-24.53148 32.15061,-24.53148" stroke="url(#color-28)"/><path d="M476.40841,335.37183c0,0 -24.74986,2.29592 -34.54502,3.20455c-7.24934,0.67249 -6.657,-7.60307 0.68159,-13.20252c9.39812,-7.17092 32.15061,-24.53148 32.15061,-24.53148" stroke="url(#color-29)"/><path d="M478.01774,367.81512c0,0 -24.74987,2.29595 -34.54501,3.20458c-7.24934,0.67249 -6.657,-7.60307 0.68157,-13.20255c9.39812,-7.17092 32.15061,-24.53148 32.15061,-24.53148" stroke="url(#color-30)"/><path d="M479.89529,405.66564c0,0 -24.74987,2.29595 -34.54501,3.20458c-7.24934,0.67249 -6.657,-7.60307 0.68159,-13.20252c9.39812,-7.17092 32.15061,-24.53148 32.15061,-24.53148" stroke="url(#color-31)"/><path d="M481.50464,438.10897c0,0 -24.74987,2.29595 -34.54501,3.20458c-7.24934,0.67249 -6.657,-7.60307 0.6816,-13.20255c9.39812,-7.17092 32.15061,-24.53148 32.15061,-24.53148" stroke="url(#color-32)"/><path d="M483.31513,474.60773c0,0 -24.74987,2.29595 -34.54501,3.20458c-7.24934,0.67249 -6.657,-7.60307 0.68159,-13.20252c9.39812,-7.17092 32.15061,-24.53148 32.15061,-24.53148" stroke="url(#color-33)"/><path d="M484.92448,507.05102c0,0 -24.74987,2.29595 -34.54501,3.20458c-7.24934,0.67249 -6.657,-7.60307 0.6816,-13.20255c9.39812,-7.17092 32.15061,-24.53148 32.15061,-24.53148" stroke="url(#color-34)"/></g><path d="M504.35948,583.41172c-30.32099,9.49815 -36.67384,-36.40164 -44.4451,-33.75551c-10.04632,3.42082 -2.13707,11.32479 -8.17132,8.78552c-16.79557,-7.06773 -7.72467,-28.68519 -9.03953,-32.53736c-2.8002,-8.20369 -26.93099,-21.99636 -19.93652,-27.17884c4.13634,-3.06476 36.86047,0.74661 43.31438,0.02517c4.21496,-0.47116 43.04156,-27.52622 47.10089,-26.80609c12.66672,2.24715 -10.96053,37.04256 -7.58588,46.92926c4.45615,13.05513 28.13646,55.33659 -1.23687,64.53786z" fill="#0d0d0d" stroke="#000000" stroke-width="0" stroke-linecap="butt"/></g><g><g fill="none" stroke-width="3.25" stroke-linecap="round"><path d="M288.01922,223.31768c0,0 -22.73082,-4.47079 -29.53757,-5.80957c-3.59582,-0.70724 -5.84745,0.82774 -2.37158,4.38111c6.57049,6.71698 17.00116,17.38017 22.40751,22.90702c6.45488,6.59878 5.84822,14.8733 -1.22849,13.16293c-9.5619,-2.31095 -33.7224,-8.15029 -33.7224,-8.15029" stroke="url(#color-35)"/><path d="M243.96979,247.75945c0,0 20.0126,20.45876 28.279,28.90941c6.45487,6.59874 5.84822,14.87326 -1.22849,13.16293c-9.56186,-2.31098 -33.7224,-8.15029 -33.7224,-8.15029" stroke="url(#color-36)"/><path d="M236.91735,283.61608c0,0 20.0126,20.45876 28.279,28.90941c6.45487,6.59874 5.84822,14.87326 -1.22849,13.16293c-9.56186,-2.31098 -33.7224,-8.15029 -33.7224,-8.15029" stroke="url(#color-37)"/><path d="M230.64857,315.48866c0,0 20.0126,20.45876 28.279,28.90941c6.45487,6.59874 5.84822,14.87326 -1.22849,13.16293c-9.56186,-2.31098 -33.7224,-8.15029 -33.7224,-8.15029" stroke="url(#color-38)"/><path d="M223.33493,352.6733c0,0 20.0126,20.45876 28.279,28.90941c6.45487,6.59874 5.84822,14.87326 -1.22849,13.16293c-9.56186,-2.31098 -33.7224,-8.15029 -33.7224,-8.15029" stroke="url(#color-39)"/><path d="M217.06615,384.5459c0,0 20.0126,20.45876 28.279,28.90941c6.45487,6.59874 5.84822,14.87326 -1.22849,13.16293c-9.56186,-2.31098 -33.7224,-8.15029 -33.7224,-8.15029" stroke="url(#color-40)"/><path d="M210.01371,420.40252c0,0 20.0126,20.45876 28.279,28.90941c6.45487,6.59874 5.84822,14.87326 -1.22849,13.16293c-9.56186,-2.31098 -33.7224,-8.15029 -33.7224,-8.15029" stroke="url(#color-41)"/><path d="M203.74492,452.27511c0,0 20.0126,20.45876 28.279,28.90941c6.45487,6.59874 5.84822,14.87326 -1.22849,13.16293c-9.56186,-2.31098 -33.7224,-8.15029 -33.7224,-8.15029" stroke="url(#color-42)"/></g><path d="M174.91286,494.91694c4.76448,-9.29708 -13.60078,-47.13469 -0.74244,-47.53261c4.12073,-0.12754 38.64223,32.24135 42.74529,33.31517c6.28253,1.64416 39.21434,2.58934 42.8657,6.2183c6.17441,6.13652 -19.6924,16.30703 -23.64582,24.02149c-1.85637,3.62243 4.00395,26.32164 -13.63497,30.89468c-6.33728,1.64299 2.62868,-5.03846 -6.81967,-9.87158c-7.30869,-3.73864 -20.21107,40.76619 -48.84641,26.99684c-27.74036,-13.33901 1.78694,-51.76571 8.07829,-64.04223z" fill="#0d0d0d" stroke="#000000" stroke-width="0" stroke-linecap="butt"/></g><path d="M308.36919,258.65152c0.82233,-11.35079 -22.27537,-35.65614 -18.97617,-40.71383c4.15845,-6.37494 35.37003,8.01771 42.57489,7.58486c8.78062,-0.5275 19.45555,1.67832 31.12794,2.52396c12.20901,0.8845 24.14749,0.60924 33.62106,3.26383c5.659,1.5857 36.17341,-4.86774 39.60567,-0.31948c4.39882,5.82915 -19.15021,23.89185 -20.16171,37.85387c-1.67929,23.17967 -4.27857,74.51809 -17.79053,98.99832c-11.60836,21.03139 -33.24893,17.22532 -46.58023,16.25951c-11.20407,-0.8117 -36.51735,-6.93 -43.79051,-24.56797c-11.45407,-27.77713 -1.53994,-74.52583 0.36956,-100.88313z" fill="#dadada" stroke="#000000" stroke-width="0" stroke-linecap="butt"/><path d="M309.61002,299.24932c2.32971,-32.15752 25.61946,-56.67592 52.01911,-54.76335c26.39966,1.91257 45.91221,29.53185 43.5825,61.68938c-2.32971,32.15752 -25.61946,56.67592 -52.01911,54.76335c-26.39966,-1.91257 -45.91221,-29.53185 -43.5825,-61.68938z" fill="#ababab" stroke="url(#color-43)" stroke-width="0" stroke-linecap="butt"/><path d="M393.53099,385.44134c-3.91645,-46.87389 17.79068,-151.33479 24.39345,-164.01504c11.06332,-21.24648 34.10694,-18.05589 52.53185,-15.06515c10.80995,1.75468 -20.02776,86.05592 -46.05536,139.88249c-12.38884,25.62084 14.23431,86.69965 14.23431,86.69965c0,0 -41.18181,-0.55551 -45.10428,-47.50196z" fill="#801d1d" stroke="url(#color-44)" stroke-width="0" stroke-linecap="butt"/><path d="M259.46779,425.62348c0,0 35.1489,-56.60363 26.58231,-83.74263c-17.99741,-57.01603 -36.36219,-144.88184 -25.41221,-145.06008c18.66363,-0.30377 41.9265,-0.13964 49.81186,22.47961c4.70611,13.49954 11.1299,119.99843 0.4981,165.81836c-10.64823,45.89082 -51.48008,40.50474 -51.48008,40.50474z" fill="#801d1d" stroke="url(#color-45)" stroke-width="0" stroke-linecap="butt"/><g stroke="#000000" stroke-width="0" stroke-linecap="butt"><path d="M355.699,251.59129l11.7156,-27.79957l6.58148,2.77365l-11.7156,27.79957z" fill="#2f323e"/><path d="M363.40054,220.50542c-1.08917,-6.43864 6.28344,-25.12345 6.28344,-25.12345l22.50594,9.24027c0,0 -8.48183,17.54305 -12.92435,21.92958c-2.99556,2.95779 -6.70371,0.8729 -9.56063,-0.33113c-2.1288,-0.89716 -5.84321,-2.98916 -6.30436,-5.71527z" fill="#2f323e"/><g><path d="M439.05739,202.11624c0.82839,-6.32361 -0.44138,-10.35606 0.14007,-15.20151c0.54866,-4.57219 2.96476,-10.0275 3.20802,-13.62691c0.60119,-8.89538 0.44021,-15.22839 2.57775,-20.26585c1.33471,-3.14545 6.37913,-7.09234 8.31253,-9.3979c2.11566,-2.52287 11.21655,0.90673 15.47153,5.83527c3.70445,4.29086 2.59064,9.32994 4.5603,17.50052c0.88115,3.65516 3.84568,12.70022 4.09286,16.84997c0.40994,6.88253 -2.06632,10.15967 -3.60523,16.38056c-1.28938,5.21219 -0.11153,14.20191 -1.46629,20.32949c-0.63224,2.85975 -3.52604,3.18376 -4.37305,5.68385c-1.02255,3.01817 -1.69411,13.64715 -2.75539,16.30465c-3.01367,7.54637 -6.5791,8.7705 -9.75786,12.91033c-3.77271,4.91339 -5.47934,18.09844 -8.95116,20.45847c-5.07192,3.44777 -14.37584,0.59984 -17.78447,-0.555c-3.34642,-1.13376 -8.91597,0.20001 -10.68804,-4.74508c-1.37113,-3.82627 -0.77057,-11.64251 0.64,-19.82798c0.84063,-4.87821 -0.61791,-5.58858 0.98758,-11.2476c0.95861,-3.37895 4.66187,-11.25224 6.02278,-15.26903c2.29642,-6.77815 11.48412,-7.73477 13.36813,-22.11624z" fill="#a3a3a3"/><path d="M455.14118,150.38672c2.9118,0.41485 4.45256,6.50485 3.44133,13.60238c-1.01121,7.09756 -4.19144,12.51493 -7.10324,12.10007c-2.9118,-0.41485 -4.45256,-6.50485 -3.44136,-13.6024c1.01121,-7.09756 4.19144,-12.51493 7.10326,-12.1001z" fill="#0d0d0d"/></g><path d="M455.01414,157.45124c1.29033,1.23873 1.62386,4.1813 1.44641,5.99703c-0.12731,1.30236 -0.67591,3.74994 -1.53633,4.60994c-5.24347,5.24125 -21.76567,1.1251 -20.98991,-6.81176c0.72561,-7.42347 15.80438,-8.85956 21.0798,-3.79524z" fill="#2f323e"/><g><path d="M335.2709,188.79344c-1.92459,3.77924 -4.97359,11.92821 -6.7226,14.97405c-2.92921,5.10115 -4.45626,4.55328 -7.36072,8.56178c-4.8736,6.72606 -10.04859,12.6145 -13.74477,14.30522c-4.77695,2.18513 -7.71192,-2.73272 -10.86041,-4.33609c-3.20704,-1.63321 -11.74294,-6.30351 -12.81727,-12.34153c-0.73539,-4.13313 7.50984,-14.56259 8.39185,-20.69419c0.74313,-5.16626 -0.87062,-8.57308 2.42594,-16.00022c1.16089,-2.61549 8.29956,-10.51907 9.74566,-13.3587c1.19789,-2.35223 -0.59111,-4.64971 1.0142,-7.09937c3.43967,-5.24895 10.69658,-10.684 13.5267,-15.24685c3.37785,-5.44593 3.9941,-9.50689 9.20654,-14.01999c3.14278,-2.72113 11.68702,-6.91603 14.91851,-8.83799c7.22356,-4.29629 10.05238,-8.61259 15.71065,-8.95774c6.49911,-0.39645 15.30955,3.72234 14.98131,6.99852c-0.29993,2.99396 0.39793,9.36086 -0.9213,12.51276c-2.11276,5.04792 -6.758,9.35541 -12.70497,15.99791c-2.40636,2.6878 -4.62361,8.22689 -7.51302,11.81265c-3.06205,3.80004 -6.83501,5.70735 -10.78257,10.71642c-8.97772,11.39191 -3.24604,18.63602 -6.49372,25.01331z" fill="#a3a3a3"/><path d="M363.85747,129.6766c-4.37383,5.68044 -9.80871,8.8307 -12.13914,7.03627c-2.33044,-1.79443 -0.67393,-7.85393 3.69989,-13.53434c4.37383,-5.68044 9.80871,-8.8307 12.13914,-7.03627c2.33044,1.79443 0.67393,7.85393 -3.69989,13.53434z" fill="#0d0d0d"/></g><path d="M374.59464,138.90494c-5.13894,6.09806 -19.6236,-2.85302 -19.53406,-10.2663c0.01467,-1.21643 1.38338,-3.31838 2.22661,-4.31902c1.17566,-1.39504 3.51473,-3.21134 5.30245,-3.15286c7.30896,0.23909 16.81149,12.03455 12.00497,17.73816z" fill="#2f323e"/><path d="M425.30524,228.81075c-0.56467,1.3399 -28.35243,0.82165 -52.11617,-9.19435c-23.72741,-10.00069 -43.43174,-29.49708 -42.86795,-30.83491c0.56189,-1.33327 20.66946,16.75643 44.3186,26.71638c23.84681,10.0432 51.23209,11.96846 50.66548,13.31289z" fill="#686e88"/><path d="M425.24113,227.99568c-1.56637,3.71672 -31.72901,63.39311 -74.47441,45.37887c-42.7454,-18.01424 -21.20146,-83.76658 -19.63513,-87.48333c1.56637,-3.71672 -17.43802,56.00963 25.30738,74.02388c42.7454,18.01424 70.36851,-35.63613 68.80218,-31.9194z" fill="#dadada"/><path d="M362.00265,231.24243l11.12798,-26.40524l9.91236,4.1774l-11.12798,26.40524z" fill="#24262f"/><path d="M339.57893,155.41974c11.95197,-28.36043 44.6316,-41.66204 72.99201,-29.71011c28.36039,11.95195 41.66209,44.63159 29.71011,72.99201c-11.95195,28.36039 -114.65405,-14.92148 -102.7021,-43.28187z" fill="#dadada"/><path d="M351.60119,154.94674c5.14083,-12.19852 19.19713,-17.91985 31.39563,-12.77905c12.19852,5.14083 17.91991,19.19712 12.77905,31.39563c-5.14083,12.19852 -19.19713,17.91985 -31.39566,12.77903c-12.19852,-5.14083 -17.91985,-19.19713 -12.77905,-31.39563z" fill="#000000"/><path d="M387.17818,170.95504c5.14083,-12.19852 19.19712,-17.91991 31.39563,-12.77905c12.19852,5.14083 17.91985,19.19713 12.77905,31.39563c-5.14083,12.19852 -19.19711,17.91988 -31.39563,12.77905c-12.19852,-5.14083 -17.91988,-19.19711 -12.77905,-31.39563z" fill="#000000"/><path d="M447.02687,207.61005c-3.17451,7.26688 -28.06248,21.1697 -71.15567,3.00887c-43.09317,-18.16079 -48.47067,-46.19337 -45.49026,-53.54199c9.23599,-22.7729 13.54943,8.91815 56.64261,27.07894c43.09317,18.16079 70.24059,0.01962 60.00334,23.45416z" fill="#ababab"/><path d="M368.85206,182.73833c8.13839,-19.31133 36.96769,-59.91073 42.81191,-57.44778c5.84422,2.46295 0.43953,48.23865 -7.69887,67.54998c-8.13839,19.31133 -43.25144,9.20913 -35.11307,-10.10218z" fill="#ababab"/><path d="M406.12767,191.14932c-0.60184,1.42812 -15.65588,14.97153 -25.71219,10.73349c-10.05632,-4.23804 -11.30686,-24.65268 -10.70501,-26.08082c0.60184,-1.42812 37.01905,13.91924 36.4172,15.34733z" fill="#1d1d1d"/><g><path d="M470.2084,97.84612c-2.70387,6.41598 -22.37621,4.25035 -43.93939,-4.83705c-21.56316,-9.08739 -36.85163,-21.65534 -34.14776,-28.0713c0.44726,-1.06123 2.21735,-4.00916 6.08281,-3.21642c14.93285,3.06239 53.3659,19.56302 68.21847,29.49004c4.54617,3.03851 4.3147,5.37983 3.78585,6.6347z" fill="#101010"/><path d="M469.40062,98.61495c-5.81212,13.79141 -16.87941,35.20627 -35.33371,38.30237c-13.10213,2.19817 -33.48368,-11.10373 -42.43541,-14.87628c-21.56027,-9.08616 -10.24613,-32.74704 -0.30753,-56.33005c3.57782,-8.48972 6.58885,2.01483 20.54229,5.09578c11.68327,2.57969 24.85288,13.58631 36.53973,15.83393c13.12764,2.52472 24.3597,3.98939 20.99466,11.97422z" fill="#0d0d0d"/></g><g><path d="M462.63904,144.80783c-0.63361,1.50352 -23.24995,-6.59246 -50.51498,-18.0828c-27.26503,-11.49034 -48.85406,-22.02389 -48.22045,-23.5274c0.63361,-1.50352 23.24995,6.59246 50.51498,18.0828c27.26503,11.49034 48.85406,22.02389 48.22045,23.5274z" fill="#101010"/><path d="M462.02655,144.80962c-1.36196,3.2318 -5.74198,7.49713 -25.06774,1.9006c-13.72085,-3.9734 -41.22901,-16.67048 -52.54791,-21.44058c-27.2614,-11.48881 -23.43556,-16.53835 -21.10662,-22.06465c0.8384,-1.98941 11.23393,6.264 27.84508,12.60847c13.90859,5.31222 30.72645,14.1961 44.51657,19.38026c15.49021,5.82325 27.14915,7.74479 26.36062,9.61592z" fill="#0d0d0d"/></g><path d="M452.54057,131.24466c-0.51385,1.21936 -1.19655,5.41741 -4.60972,5.15279c-2.89086,-0.22415 -6.8633,-2.11302 -11.84896,-3.72832c-5.11123,-1.656 -11.2694,-3.06696 -16.94376,-5.60221c-2.86489,-1.28004 -4.47002,-3.58354 -7.37544,-4.80795c-4.3852,-1.84807 -9.92086,-3.07018 -14.83806,-5.41737c-4.27041,-2.03846 -7.95374,-5.21183 -11.51665,-6.81055c-4.42558,-1.98582 -7.48472,-2.24678 -9.70302,-3.96572c-3.74039,-2.89838 0.53005,-5.25003 1.1485,-6.71757c0.51854,-1.23045 0.95434,-6.3281 4.42108,-6.04835c3.21177,0.25919 8.72198,0.95026 14.30772,3.709c4.07088,2.01058 7.8859,5.82178 12.33591,7.91096c3.45072,1.62003 6.21165,1.93845 9.71318,3.41411c3.50787,1.47832 6.53124,3.85386 10.4691,5.1541c4.63557,1.53064 9.90874,1.79373 14.30907,2.9992c6.17977,1.69294 11.04729,4.27353 13.59231,6.33308c3.27554,2.65073 -2.88252,7.05153 -3.46128,8.42481z" fill="#801d1d"/></g><g stroke-width="0" stroke-linecap="butt"><path d="M327.14035,142.50185c8.67274,-22.55233 33.98569,-33.80396 56.53802,-25.13121c22.55233,8.67274 33.80396,33.98569 25.13121,56.53802c-8.67274,22.55233 -33.98569,33.80396 -56.53802,25.13121c-22.55233,-8.67274 -33.80396,-33.98569 -25.13121,-56.53802z" fill="url(#color-46)" stroke="url(#color-47)"/><path d="M361.58643,155.57225c1.40199,-3.64567 5.49393,-5.46455 9.13961,-4.06257c3.64567,1.40199 5.46455,5.49393 4.06257,9.13961c-1.40199,3.64567 -5.49393,5.46455 -9.13961,4.06257c-3.64567,-1.40199 -5.46455,-5.49393 -4.06257,-9.13961zM366.31291,162.84766c2.54943,0.98041 5.41092,-0.29153 6.39134,-2.84096c0.98041,-2.54943 -0.29153,-5.41092 -2.84096,-6.39134c-2.54943,-0.98041 -5.41092,0.29153 -6.39134,2.84096c-0.98041,2.54943 0.29153,5.41092 2.84096,6.39134z" fill="#ffffff" stroke="url(#color-48)"/></g><g stroke-width="0" stroke-linecap="butt"><path d="M376.07017,162.92545c8.67274,-22.55233 33.98569,-33.80396 56.53802,-25.13121c22.55233,8.67274 33.80396,33.98569 25.13121,56.53802c-8.67274,22.55233 -33.98569,33.80396 -56.53802,25.13121c-22.55233,-8.67274 -33.80396,-33.98569 -25.13121,-56.53802z" fill="url(#color-49)" stroke="url(#color-50)"/><path d="M410.51624,175.99585c1.40199,-3.64567 5.49393,-5.46455 9.13961,-4.06257c3.64567,1.40199 5.46455,5.49393 4.06257,9.13961c-1.40199,3.64567 -5.49393,5.46454 -9.13961,4.06257c-3.64567,-1.40199 -5.46455,-5.49392 -4.06256,-9.1396zM415.24272,183.27125c2.54942,0.9804 5.41092,-0.29153 6.39133,-2.84096c0.9804,-2.54942 -0.29153,-5.41092 -2.84095,-6.39134c-2.54942,-0.9804 -5.41093,0.29153 -6.39134,2.84096c-0.9804,2.54942 0.29153,5.41092 2.84096,6.39134z" fill="#ffffff" stroke="url(#color-51)"/></g></g></g></g></svg>