<svg version="1.1" xmlns="http://www.w3.org/2000/svg" xmlns:xlink="http://www.w3.org/1999/xlink" width="803.04805" height="418.16817" viewBox="0,0,803.04805,418.16817"><defs><linearGradient x1="571.10773" y1="110.0862" x2="571.10773" y2="156.0862" gradientUnits="userSpaceOnUse" id="color-1"><stop offset="0" stop-color="#000000" stop-opacity="0.48235"/><stop offset="1" stop-color="#000000" stop-opacity="0"/></linearGradient><linearGradient x1="436.0244" y1="113.68529" x2="436.0244" y2="145.93527" gradientUnits="userSpaceOnUse" id="color-2"><stop offset="0" stop-color="#412b15"/><stop offset="1" stop-color="#2c1d0e"/></linearGradient><linearGradient x1="707.35773" y1="113.68529" x2="707.35773" y2="145.93527" gradientUnits="userSpaceOnUse" id="color-3"><stop offset="0" stop-color="#412b15"/><stop offset="1" stop-color="#2c1d0e"/></linearGradient><linearGradient x1="573.10773" y1="246.72283" x2="573.10773" y2="292.72283" gradientUnits="userSpaceOnUse" id="color-4"><stop offset="0" stop-color="#000000" stop-opacity="0.48235"/><stop offset="1" stop-color="#000000" stop-opacity="0"/></linearGradient><linearGradient x1="438.0244" y1="250.32193" x2="438.0244" y2="282.57192" gradientUnits="userSpaceOnUse" id="color-5"><stop offset="0" stop-color="#412b15"/><stop offset="1" stop-color="#2c1d0e"/></linearGradient><linearGradient x1="709.35774" y1="250.32193" x2="709.35774" y2="282.57192" gradientUnits="userSpaceOnUse" id="color-6"><stop offset="0" stop-color="#412b15"/><stop offset="1" stop-color="#2c1d0e"/></linearGradient><linearGradient x1="289.34384" y1="213.96739" x2="345.34384" y2="213.96739" gradientUnits="userSpaceOnUse" id="color-7"><stop offset="0" stop-color="#040507"/><stop offset="1" stop-color="#040507" stop-opacity="0"/></linearGradient><linearGradient x1="112.45496" y1="213.96738" x2="56.45496" y2="213.96738" gradientUnits="userSpaceOnUse" id="color-8"><stop offset="0" stop-color="#040507"/><stop offset="1" stop-color="#040507" stop-opacity="0"/></linearGradient><radialGradient cx="202.56924" cy="38.86405" r="17.75508" gradientUnits="userSpaceOnUse" id="color-9"><stop offset="0" stop-color="#ffffff"/><stop offset="1" stop-color="#ffffff" stop-opacity="0"/></radialGradient><linearGradient x1="-40.86111" y1="179.24932" x2="-1.11111" y2="179.24932" gradientUnits="userSpaceOnUse" id="color-10"><stop offset="0" stop-color="#000000"/><stop offset="1" stop-color="#000000" stop-opacity="0"/></linearGradient><linearGradient x1="762.14715" y1="180.00007" x2="722.39715" y2="180.00007" gradientUnits="userSpaceOnUse" id="color-11"><stop offset="0" stop-color="#000000"/><stop offset="1" stop-color="#000000" stop-opacity="0"/></linearGradient><linearGradient x1="357.78145" y1="387.95803" x2="357.78145" y2="367.2953" gradientUnits="userSpaceOnUse" id="color-12"><stop offset="0" stop-color="#000000"/><stop offset="1" stop-color="#000000" stop-opacity="0"/></linearGradient><linearGradient x1="359.21556" y1="-29.45939" x2="359.21556" y2="-8.79666" gradientUnits="userSpaceOnUse" id="color-13"><stop offset="0" stop-color="#000000"/><stop offset="1" stop-color="#000000" stop-opacity="0"/></linearGradient></defs><g transform="translate(40.9009,29.45939)"><g stroke-miterlimit="10"><path d="M-39.39939,386.45648v-412.91291h798.7988v412.91291z" fill="#3b5ec7" stroke="#2b2b2b" stroke-width="0" stroke-linecap="butt"/><path d="M-40.90089,265.33484v-136.63664h798.7988v136.63664z" fill="#1d48c7" stroke="#2b2b2b" stroke-width="0" stroke-linecap="butt"/><path d="M102.65193,384.955c0,0 0,-270.14014 0,-317.95646c0,-13.92833 9.5019,-26.97823 14.59348,-26.97823c18.60653,0 126.97367,0 166.94943,0c9.09831,0 15.76096,16.38713 15.76096,32.97823c0,51.028 0,311.95646 0,311.95646z" fill="#040507" stroke="#2b2b2b" stroke-width="0" stroke-linecap="butt"/><g stroke="#2b2b2b" stroke-width="0" stroke-linecap="butt"><path d="M421.60773,156.0862l-19,-46h337l-20,46z" fill="url(#color-1)"/><path d="M428.8994,145.93527l-13,-32.25h40.25l-9.75,32z" fill="url(#color-2)"/><path d="M696.98273,145.68527l-9.75,-32h40.25l-13,32.25z" fill="url(#color-3)"/><path d="M403,120.81029v-19.5h336.5v19.5z" fill="#52361a"/></g><g stroke="#2b2b2b" stroke-width="0" stroke-linecap="butt"><path d="M423.60773,292.72283l-19,-46h337l-20,46z" fill="url(#color-4)"/><path d="M430.8994,282.57192l-13,-32.25h40.25l-9.75,32z" fill="url(#color-5)"/><path d="M698.98274,282.32192l-9.75,-32h40.25l-13,32.25z" fill="url(#color-6)"/><path d="M405,257.44692v-19.5h336.5v19.5z" fill="#52361a"/></g><path d="M289.34384,386.43473v-344.93469h56v344.93469z" fill="url(#color-7)" stroke="#2b2b2b" stroke-width="0" stroke-linecap="butt"/><path d="M56.45496,386.43473v-344.93469h56v344.93469z" fill="url(#color-8)" stroke="#2b2b2b" stroke-width="0" stroke-linecap="butt"/><path d="M38.08108,46.30423c0,-2.56737 0,-7.73936 0,-12.16242c0,-4.18699 5.6139,-7.70286 10.37983,-7.70286c26.50261,0 260.49003,0 307.76188,0c5.34587,0 8.30387,2.36839 8.30387,6.08121c0,3.29211 0,11.06812 0,16.21656c0,2.62359 -3.09513,4.86497 -7.78487,4.86497c-45.11862,0 -285.34857,0 -309.83785,0c-3.92738,0 -8.82285,-4.26838 -8.82285,-7.29745z" fill="#4c78fc" stroke="#2b2b2b" stroke-width="0" stroke-linecap="butt"/><path d="M173.30387,40.0203c0,-15.46397 12.53602,-28 28,-28c15.46398,0 28,12.53603 28,28c0,15.46397 -12.53602,28 -28,28c-15.46398,0 -28,-12.53603 -28,-28z" fill="#838383" stroke="#2b2b2b" stroke-width="0" stroke-linecap="butt"/><path d="M181.42887,40.0203c0,-10.97666 8.89834,-19.875 19.875,-19.875c10.97666,0 19.875,8.89834 19.875,19.875c0,10.97666 -8.89834,19.875 -19.875,19.875c-10.97666,0 -19.875,-8.89834 -19.875,-19.875z" fill="#0f0f0f" stroke="#2b2b2b" stroke-width="0" stroke-linecap="butt"/><path d="M202.65159,22.34288c0.01853,0.24931 -0.23079,0.26784 -0.23079,0.26784l-0.03197,0.00238c-0.37969,0.02784 -2.64537,0.13992 -2.80496,0.30856c-0.26188,0.27675 0.08145,2.83682 0.08742,3.325c0.01673,1.3663 0.53799,6.06053 -2.52334,4.1402c-0.93568,-0.58694 -0.97726,-1.31549 -2.17186,-1.79333c0,0 -0.0253,-0.01012 -0.05585,-0.03203c-0.78662,0.35879 -1.09883,1.00198 -1.2636,1.8063c-0.00132,0.01878 -0.0051,0.03871 -0.01192,0.05978c-0.16119,0.83019 -0.17676,1.82554 -0.39589,2.85441c-0.40048,1.88034 0.4616,4.40241 1.94984,5.82832c0.0741,0.00063 0.14229,0.00109 0.2036,0.00109c0,0 0.25,0 0.25,0.25c0,0.04713 -0.00888,0.08537 -0.0233,0.11641c0.75769,0.57208 1.64271,0.86181 2.58734,0.6843c0.80171,-0.15066 2.82716,-0.92504 3.57655,-0.63372c1.71005,0.66478 1.51038,3.58301 3.60942,3.58301c0,0 0.25,0 0.25,0.25c0,0.00998 -0.0004,0.01956 -0.00116,0.02875c0.99469,-0.17653 2.30115,0.02792 3.25562,-0.16832c-0.05373,-0.04008 -0.10037,-0.10864 -0.08586,-0.22478c0.03101,-0.24807 0.27908,-0.21706 0.27908,-0.21706c0.18626,0.02328 0.41316,0.03445 0.65732,0.04472c0.37494,-0.41924 0.73848,-2.05813 0.47384,-2.36569c-0.53699,-0.73164 -1.37969,-3.63431 -0.45621,-4.48649c-0.39532,-0.99718 -0.99741,-3.31959 -1.72807,-3.82704c-0.80074,-0.55613 -3.37889,-0.17487 -4.35058,-0.18788c-2.01615,-0.21082 -1.40653,-5.42421 0.54455,-6.13747l0.07771,-0.02763c0,0 0.23555,-0.08376 0.31931,0.15179c0.08376,0.23555 -0.15179,0.31931 -0.15179,0.31931l-0.07771,0.02763c-1.71824,0.59031 -1.44646,1.88198 -1.23632,3.39432c0.07705,0.55449 -0.03314,1.86531 0.53094,1.77209c1.10685,0.01482 3.694,-0.37229 4.62911,0.27717c0.84406,0.58622 1.4438,2.88359 1.88106,3.98956c1.38006,-0.52224 4.2814,-0.09074 5.69118,-0.48183c1.7804,-0.13122 2.5008,-0.54196 4.02521,-1.42265l0.01438,-0.00831c0,0 0.21647,-0.12506 0.34153,0.09141c0.12506,0.21647 -0.09141,0.34153 -0.09141,0.34153l-0.01438,0.00831c-1.54239,0.89108 -2.37881,1.35814 -4.18971,1.48232c-1.63383,0.46224 -4.47002,-0.11577 -5.83988,0.57479c-0.79628,0.40141 0.12437,3.36303 0.48416,3.85323c0.44939,0.67808 0.25006,0.85323 -0.01399,1.57608c-0.17779,0.48669 -0.38903,0.83947 -0.62707,1.09528c0.61148,0.02621 1.28071,0.06795 1.6764,0.28424c0.99948,0.54631 0.60982,1.55547 0.95018,2.37887c0.43134,1.04348 1.23544,2.4412 1.86057,3.37c0.48675,0.7257 1.44825,2.08192 2.32875,2.19834l0.29991,0.04863c0,0 0.24678,0.04002 0.20676,0.28679c-0.04002,0.24678 -0.28679,0.20676 -0.28679,0.20676l-0.29991,-0.04863c-1.06777,-0.19671 -2.06366,-1.52429 -2.66352,-2.41271c-0.62674,-0.9312 -1.47199,-2.40376 -1.90785,-3.45817c-0.27899,-0.67491 0.07189,-1.69397 -0.72792,-2.13114c-0.46309,-0.25312 -1.43997,-0.22134 -2.0999,-0.25719c-1.2002,0.50469 -2.79125,-0.20334 -4.24157,0.82005c-0.44166,0.31165 -0.84648,1.55429 -1.13175,2.04275c-0.09993,3.01529 -5.50951,5.64882 -8.11045,6.15114c-2.22572,0.42985 -4.89639,-0.93687 -5.85172,1.31648c-0.23707,0.55917 -0.68031,1.07641 -0.36845,1.61884c0,0 0.1118,0.22361 -0.1118,0.33541c-0.22361,0.1118 -0.33541,-0.1118 -0.33541,-0.1118c-0.32006,-0.706 -0.12913,-0.89493 0.16016,-1.57727c0.19168,-0.45211 0.47321,-1.653 0.86082,-1.94375c1.02063,-0.76559 4.21254,0.12978 5.5516,-0.12882c2.51566,-0.48585 7.5528,-2.95367 7.72485,-5.7988c0.31979,-0.58355 0.7823,-1.93053 1.32388,-2.31269c0.06777,-0.04782 0.14022,-0.09002 0.21678,-0.12723c-2.01203,-0.2943 -1.70265,-2.9284 -3.40507,-3.59021c-0.59544,-0.23148 -2.62616,0.53189 -3.30304,0.65909c-1.22681,0.23054 -2.36513,-0.22087 -3.29429,-1.04631c-0.99541,-0.01394 -2.88864,-0.03186 -3.37208,0.48131c-1.08871,1.15564 0.96441,3.28715 0.29588,4.68083c-2.0213,0.35269 -5.04059,-3.21978 -5.9754,-5.06337l-0.11703,-0.23196c0,0 -0.11261,-0.2232 0.11059,-0.33581c0.2232,-0.11261 0.33581,0.11059 0.33581,0.11059l0.11703,0.23196c0.79439,1.58327 3.58589,4.93339 5.22714,4.88999c0.40788,-1.31414 -1.64775,-3.256 -0.35796,-4.62508c0.52937,-0.56191 2.10574,-0.63584 3.23716,-0.63913c-1.39749,-1.57574 -2.1636,-4.01353 -1.75571,-5.92868c0.20338,-0.9549 0.25947,-1.87771 0.39918,-2.68346c-0.31081,-0.25841 -0.70939,-0.84317 -0.89776,-0.89798c-0.53731,-0.15637 -2.11171,0.86508 -2.7215,0.97939c-1.63666,0.3068 -3.02649,-0.24066 -4.46208,-0.93266l-0.11725,-0.05652c0,0 -0.2252,-0.10856 -0.11665,-0.33376c0.10856,-0.2252 0.33376,-0.11665 0.33376,-0.11665l0.11725,0.05652c1.33988,0.64587 2.62063,1.18098 4.15254,0.89168c0.74515,-0.14072 2.22587,-1.17989 2.95365,-0.96809c0.27448,0.07988 0.56521,0.5545 0.87016,0.84315c0.294,-1.1554 0.91427,-1.98461 2.71331,-2.17388l0.41395,-0.00748c0,0 0.24997,-0.00392 0.25389,0.24605c0.00392,0.24997 -0.24605,0.25389 -0.24605,0.25389l-0.36947,0.0048c-0.16734,0.01761 -0.32291,0.04172 -0.46762,0.07202c1.13282,0.75919 2.74564,2.6529 3.889,1.222c0.31398,-0.39294 -0.27979,-2.75366 -0.28677,-3.32409c-0.00817,-0.66757 -0.40532,-3.19428 0.04936,-3.67478c0.3189,-0.33702 2.62146,-0.42519 3.13108,-0.46353l0.03197,-0.00238c0,0 0.24931,-0.01853 0.26784,0.23079z" fill="url(#color-9)" stroke="none" stroke-width="0.5" stroke-linecap="butt"/><path d="M558.3994,3.00003v36.5" fill="none" stroke="#6f6262" stroke-width="5" stroke-linecap="round"/><path d="M432.8994,102.00003v-70h138v70z" fill="#3f3f40" stroke="none" stroke-width="0" stroke-linecap="butt"/><path d="M437.8994,80.00003v-42.5h88v42.5z" fill="#000000" stroke="none" stroke-width="0" stroke-linecap="butt"/><path d="M536.9994,93.25004l-5.4,-52.5l35.1,0.2l-5.2,52.3z" fill="#262628" stroke="none" stroke-width="0" stroke-linecap="butt"/><path d="M531.4494,50.30004h6.4" fill="none" stroke="#6f6262" stroke-width="5" stroke-linecap="round"/><path d="M561.2494,50.10004h5" fill="none" stroke="#6f6262" stroke-width="5" stroke-linecap="round"/><path d="M561.4494,92.90004h-24.8" fill="none" stroke="#6f6262" stroke-width="5" stroke-linecap="round"/><g><path d="M549.12072,38.25004c2.67432,0 8.13023,0.12712 8.13023,0.12712c0,0 0.99845,3.76127 0.99845,4.44915c0,0.20642 -0.99845,0.42373 -0.99845,0.42373h-16.11783c0,0 -1.28372,-0.17139 -1.28372,-0.33898c0,-0.63451 1.28372,-4.5339 1.28372,-4.5339c0,0 5.28951,-0.12712 7.9876,-0.12712z" fill="#6f6262" stroke="none" stroke-width="0" stroke-linecap="butt"/><path d="M545.0494,41.75004v-7" fill="none" stroke="#6f6262" stroke-width="5" stroke-linecap="round"/><path d="M552.84928,41.75004v-7" fill="none" stroke="#6f6262" stroke-width="5" stroke-linecap="round"/></g><path d="M538.0494,87.10004c0,0 -1.8,-36.81023 -1.8,-42.8c0,-1.58211 1.8,-3.2 1.8,-3.2h22.6c0,0 1.4,2.0514 1.4,4c0,6.49362 -1.4,42 -1.4,42c0,0 -7.65015,1.2 -11.4,1.2c-3.78319,0 -11.2,-1.2 -11.2,-1.2z" fill="#005fff" stroke="none" stroke-width="0" stroke-linecap="butt"/><path d="M538.9494,64.70002c0,-5.6333 4.5667,-10.2 10.2,-10.2c5.6333,0 10.2,4.5667 10.2,10.2c0,5.6333 -4.5667,10.2 -10.2,10.2c-5.6333,0 -10.2,-4.5667 -10.2,-10.2z" fill="#00173e" stroke="none" stroke-width="0" stroke-linecap="butt"/><text transform="translate(442.35249,52.85611) scale(0.25959,0.25959)" font-size="40" xml:space="preserve" fill="#ffffff" stroke="none" stroke-width="1" stroke-linecap="butt" font-family="&quot;VCR OSD Mono&quot;, Pixel" font-weight="normal" text-anchor="start"><tspan x="0" dy="0">ASC ZAPPER ON</tspan></text><g stroke="#000000" stroke-width="0" stroke-linecap="butt"><path d="M-40.86111,387.95803v-417.41742h39.75v417.41742z" fill="url(#color-10)"/><path d="M722.39715,388.70878v-417.41742h39.75v417.41742z" fill="url(#color-11)"/><path d="M756.46379,387.95803h-797.36469v-20.66273h797.36469z" fill="url(#color-12)"/><path d="M757.8979,-8.79666h-797.36469v-20.66273h797.36469z" fill="url(#color-13)"/></g></g></g></svg>