<svg version="1.1" xmlns="http://www.w3.org/2000/svg" xmlns:xlink="http://www.w3.org/1999/xlink" width="827.82282" height="395.13514" viewBox="0,0,827.82282,395.13514"><defs><radialGradient cx="268.75872" cy="132.02896" r="10.36751" gradientUnits="userSpaceOnUse" id="color-1"><stop offset="0" stop-color="#e3e3e3"/><stop offset="1" stop-color="#adadad"/></radialGradient><radialGradient cx="360.47079" cy="177.62761" r="315.3828" gradientUnits="userSpaceOnUse" id="color-2"><stop offset="0" stop-color="#000000" stop-opacity="0.83922"/><stop offset="1" stop-color="#000000" stop-opacity="0"/></radialGradient><linearGradient x1="695.27781" y1="180.87088" x2="552.36774" y2="180.87088" gradientUnits="userSpaceOnUse" id="color-3"><stop offset="0" stop-color="#000000"/><stop offset="1" stop-color="#000000" stop-opacity="0"/></linearGradient><linearGradient x1="23.58711" y1="177.62763" x2="166.49718" y2="177.62763" gradientUnits="userSpaceOnUse" id="color-4"><stop offset="0" stop-color="#000000"/><stop offset="1" stop-color="#000000" stop-opacity="0"/></linearGradient><linearGradient x1="360.24398" y1="-17.32732" x2="360.24398" y2="110.30031" gradientUnits="userSpaceOnUse" id="color-5"><stop offset="0" stop-color="#000000"/><stop offset="1" stop-color="#000000" stop-opacity="0"/></linearGradient><linearGradient x1="361.13789" y1="377.19325" x2="361.13789" y2="249.56562" gradientUnits="userSpaceOnUse" id="color-6"><stop offset="0" stop-color="#000000"/><stop offset="1" stop-color="#000000" stop-opacity="0"/></linearGradient><radialGradient cx="360.54129" cy="177.62761" r="362.61261" gradientUnits="userSpaceOnUse" id="color-7"><stop offset="0" stop-color="#000000" stop-opacity="0.83922"/><stop offset="1" stop-color="#000000" stop-opacity="0"/></radialGradient><linearGradient x1="745.48697" y1="180.87088" x2="581.17556" y2="180.87088" gradientUnits="userSpaceOnUse" id="color-8"><stop offset="0" stop-color="#000000"/><stop offset="1" stop-color="#000000" stop-opacity="0"/></linearGradient><linearGradient x1="-26.79204" y1="177.62763" x2="137.51937" y2="177.62763" gradientUnits="userSpaceOnUse" id="color-9"><stop offset="0" stop-color="#000000"/><stop offset="1" stop-color="#000000" stop-opacity="0"/></linearGradient><linearGradient x1="360.28052" y1="-17.32732" x2="360.28052" y2="110.30031" gradientUnits="userSpaceOnUse" id="color-10"><stop offset="0" stop-color="#000000"/><stop offset="1" stop-color="#000000" stop-opacity="0"/></linearGradient><linearGradient x1="361.30829" y1="377.19325" x2="361.30829" y2="249.56562" gradientUnits="userSpaceOnUse" id="color-11"><stop offset="0" stop-color="#000000"/><stop offset="1" stop-color="#000000" stop-opacity="0"/></linearGradient></defs><g transform="translate(53.91141,17.56757)"><g stroke-miterlimit="10"><path d="M0,152.99999v-153h719.43382v153z" fill="#330f00" stroke="#000000" stroke-width="0" stroke-linecap="butt"/><path d="M0.56618,359.99999v-160.3741h719.43382v160.3741z" fill="#330f00" stroke="#000000" stroke-width="0" stroke-linecap="butt"/><path d="M296,244v-128h128v128z" fill="#000000" stroke="#000000" stroke-width="0" stroke-linecap="butt"/><path d="M0,359.99999v-360l295,116l1,128.5z" fill="#4f2600" stroke="none" stroke-width="0" stroke-linecap="butt"/><path d="M720,-0.00001v360l-295,-116l-1,-128.5z" fill="#4f2600" stroke="none" stroke-width="0" stroke-linecap="butt"/><path d="M98.85396,74.87138l89.34172,35.13098l-3.13237,177.78543l-89.72687,35.01167z" fill="#000000" stroke="none" stroke-width="0" stroke-linecap="butt"/><path d="M618.42962,319.96403l-89.72687,-35.01166l-3.13237,-177.78542l89.34172,-35.13098z" fill="#000000" stroke="none" stroke-width="0" stroke-linecap="butt"/><g><g stroke="#000000"><path d="M251.40214,145.1687l3.27359,-29.74013l31.43957,3.46065l-3.27359,29.74013z" fill="#070a1d" stroke-width="0" stroke-linecap="butt"/><path d="M258.4473,130.95189c0.59485,-5.69484 5.69365,-9.8292 11.38849,-9.23435c5.69484,0.59485 9.82919,5.69364 9.23434,11.38849c-0.59485,5.69484 -5.69364,9.8292 -11.38849,9.23435c-5.69484,-0.59485 -9.8292,-5.69364 -9.23435,-11.38849z" fill="url(#color-1)" stroke-width="1.5" stroke-linecap="butt"/><path d="M261.27504,139.15463c0.38384,-3.67479 1.37256,-13.14039 1.65884,-15.88109" fill="none" stroke-width="1.5" stroke-linecap="round"/><path d="M274.84431,140.36464c0.39816,-3.81183 1.2454,-11.92297 1.61167,-15.42949" fill="none" stroke-width="1.5" stroke-linecap="round"/><path d="M269.82007,121.86808l-2.12269,20.32177" fill="none" stroke-width="1.5" stroke-linecap="round"/><path d="M259.90446,137.34323c3.23877,0.3383 11.38068,1.18876 16.40795,1.71388" fill="none" stroke-width="1.5" stroke-linecap="round"/><path d="M261.11854,124.99178c2.91019,0.30398 10.89129,1.13764 16.40794,1.71388" fill="none" stroke-width="1.5" stroke-linecap="round"/><path d="M258.49338,130.45645c2.93994,0.30709 14.6922,1.53466 20.62283,2.15414" fill="none" stroke-width="1.5" stroke-linecap="round"/><path d="M246.46687,144.64978l2.38403,-27.7386l6.19018,-1.46579l-1.52632,28.119z" fill="#040510" stroke-width="0" stroke-linecap="butt"/></g><g stroke="none" stroke-width="0" stroke-linecap="butt"><path d="M249.89179,149.31772l-0.39169,-6.31079l38.1914,2.36304l1.22502,5.81079z" fill="#808080"/><path d="M243.66564,149.45995v-6.5c0,0 4.47473,-0.04163 5.86871,-0.02345c0.77157,0.01006 1.79795,0.12345 1.79795,0.12345v6.3z" fill="#5f5f5f"/></g></g><g stroke-width="0" stroke-linecap="butt"><path d="M695.18727,377.56757v-394.89489h24.81273v394.89489z" fill="#000000" stroke="none"/><g><g fill="url(#color-2)" stroke="#000000"><path d="M45.08799,363.81382v-372.37237h630.76561v372.37237z"/></g><g stroke="none"><path d="M552.36775,376.06607v-390.39039h142.91006v390.39039z" fill="url(#color-3)"/><path d="M23.58712,372.82282v-390.39039h142.91006v390.39039z" fill="url(#color-4)"/><path d="M24.02739,110.30032v-127.62763h672.43317v127.62762z" fill="url(#color-5)"/><path d="M697.35448,249.56562v127.62762h-672.43317v-127.62762z" fill="url(#color-6)"/></g><path d="M0,377.34605v-394.89489h24.81273v394.89489z" fill="#000000" stroke="none"/></g></g><g stroke-width="0" stroke-linecap="butt"><path d="M745.38288,377.56757v-394.89489h28.52853v394.89489z" fill="#000000" stroke="none"/><g><g fill="url(#color-7)" stroke="#000000"><path d="M-2.07132,363.81382v-372.37237h725.22523v372.37237z"/></g><g stroke="none"><path d="M581.17557,376.06607v-390.39039h164.3114v390.39039z" fill="url(#color-8)"/><path d="M-26.79203,372.82282v-390.39039h164.3114v390.39039z" fill="url(#color-9)"/><path d="M-26.28582,110.30032v-127.62763h773.13267v127.62762z" fill="url(#color-10)"/><path d="M747.87463,249.56562v127.62762h-773.13267v-127.62762z" fill="url(#color-11)"/></g><path d="M-53.91141,377.34605v-394.89489h28.52853v394.89489z" fill="#000000" stroke="none"/></g></g></g></g></svg>