<svg version="1.1" xmlns="http://www.w3.org/2000/svg" xmlns:xlink="http://www.w3.org/1999/xlink" width="110.21264" height="56.05001" viewBox="0,0,110.21264,56.05001"><g transform="translate(-451.83677,-32.25001)"><g data-paper-data="{&quot;isPaintingLayer&quot;:true}" fill-rule="nonzero" stroke-linejoin="miter" stroke-miterlimit="10" stroke-dasharray="" stroke-dashoffset="0" style="mix-blend-mode: normal"><g><path d="M549.12074,38.25001c2.67432,0 8.13023,0.12712 8.13023,0.12712c0,0 0.99845,3.76127 0.99845,4.44915c0,0.20642 -0.99845,0.42373 -0.99845,0.42373h-16.11783c0,0 -1.28372,-0.17139 -1.28372,-0.33898c0,-0.63451 1.28372,-4.5339 1.28372,-4.5339c0,0 5.28951,-0.12712 7.9876,-0.12712z" data-paper-data="{&quot;index&quot;:null}" fill-opacity="0.51765" fill="#5ce57d" stroke="none" stroke-width="0" stroke-linecap="butt"/><path d="M545.04941,41.75001v-7" fill="none" stroke-opacity="0.51765" stroke="#5ce57d" stroke-width="5" stroke-linecap="round"/><path d="M552.8493,34.75001v7" fill="none" stroke-opacity="0.51765" stroke="#5ce57d" stroke-width="5" stroke-linecap="round"/></g><path d="M538.04941,87.10002c0,0 -1.8,-36.81023 -1.8,-42.8c0,-1.58211 1.8,-3.2 1.8,-3.2h22.6c0,0 1.4,2.0514 1.4,4c0,6.49362 -1.4,42 -1.4,42c0,0 -7.65015,1.2 -11.4,1.2c-3.78319,0 -11.2,-1.2 -11.2,-1.2z" fill-opacity="0.51765" fill="#5ce57d" stroke="none" stroke-width="0" stroke-linecap="butt"/><path d="M538.9494,64.70001c0,-5.6333 4.5667,-10.2 10.2,-10.2c5.6333,0 10.2,4.5667 10.2,10.2c0,5.6333 -4.5667,10.2 -10.2,10.2c-5.6333,0 -10.2,-4.5667 -10.2,-10.2z" fill-opacity="0.51765" fill="#5ce57d" stroke="none" stroke-width="0" stroke-linecap="butt"/><text transform="translate(451.96657,69.8871) scale(0.25959,0.25959)" font-size="40" xml:space="preserve" fill="#ffffff" fill-rule="nonzero" stroke="none" stroke-width="1" stroke-linecap="butt" stroke-linejoin="miter" stroke-miterlimit="10" stroke-dasharray="" stroke-dashoffset="0" font-family="&quot;VCR OSD Mono&quot;, Pixel" font-weight="normal" text-anchor="start" style="mix-blend-mode: normal"><tspan x="0" dy="0">Selected !</tspan></text></g></g></svg>