<svg version="1.1" xmlns="http://www.w3.org/2000/svg" xmlns:xlink="http://www.w3.org/1999/xlink" width="300.4227" height="92.54812" viewBox="0,0,300.4227,92.54812"><defs><linearGradient x1="134" y1="79.32605" x2="134" y2="95.75" gradientUnits="userSpaceOnUse" id="color-1"><stop offset="0" stop-color="#000000"/><stop offset="1" stop-color="#000000" stop-opacity="0"/></linearGradient><linearGradient x1="134" y1="30.67395" x2="134" y2="14.25" gradientUnits="userSpaceOnUse" id="color-2"><stop offset="0" stop-color="#000000"/><stop offset="1" stop-color="#000000" stop-opacity="0"/></linearGradient><radialGradient cx="275.79468" cy="25.00188" r="16.83333" gradientUnits="userSpaceOnUse" id="color-3"><stop offset="0" stop-color="#000000"/><stop offset="1" stop-color="#000000" stop-opacity="0"/></radialGradient><radialGradient cx="275.79468" cy="83.88333" r="16.83333" gradientUnits="userSpaceOnUse" id="color-4"><stop offset="0" stop-color="#000000"/><stop offset="1" stop-color="#000000" stop-opacity="0"/></radialGradient><linearGradient x1="274.6" y1="54.44261" x2="287.4" y2="54.44261" gradientUnits="userSpaceOnUse" id="color-5"><stop offset="0" stop-color="#000000"/><stop offset="1" stop-color="#000000" stop-opacity="0"/></linearGradient></defs><g transform="translate(7.79468,-8.16855)"><g stroke-miterlimit="10"><g stroke="#ffffff" stroke-width="0"><path d="M-6.46772,79.32605v-49.58175h281.69371v49.58175z" fill="#000000"/><path d="M-7.79468,95.75v-16.42395h283.58936v16.42395z" fill="url(#color-1)"/><path d="M275.79468,14.25v16.42395h-283.58936v-16.42395z" fill="url(#color-2)"/></g><text transform="translate(6.57523,60.0226) scale(0.41855,0.41855)" font-size="40" xml:space="preserve" fill="#ffffff" stroke="none" stroke-width="1" font-family="&quot;Century Gothic&quot;, Sans Serif" font-weight="normal" text-anchor="start"><tspan x="0" dy="0">The Secret Item For Devs Only :(</tspan></text><path d="M258.96135,25.00188c0,-9.29679 7.53654,-16.83333 16.83333,-16.83333c9.29679,0 16.83333,7.53654 16.83333,16.83333c0,9.29679 -7.53654,16.83333 -16.83333,16.83333c-9.29679,0 -16.83333,-7.53654 -16.83333,-16.83333z" fill="url(#color-3)" stroke="#000000" stroke-width="0"/><path d="M258.96135,83.88333c0,-9.2968 7.53654,-16.83334 16.83334,-16.83334c9.29679,0 16.83333,7.53654 16.83333,16.83334c0,9.2968 -7.53654,16.83334 -16.83333,16.83334c-9.29679,0 -16.83334,-7.53654 -16.83334,-16.83334z" fill="url(#color-4)" stroke="#000000" stroke-width="0"/><path d="M274.6,83.88333v-58.88145h12.8v58.88145z" fill="url(#color-5)" stroke="#000000" stroke-width="0"/><text transform="translate(117.16667,41.90321) scale(0.34788,0.34788)" font-size="40" xml:space="preserve" fill="#ffffff" stroke="none" stroke-width="1" font-family="&quot;Century Gothic&quot;, Sans Serif" font-weight="normal" text-anchor="start"><tspan x="0" dy="0">Lost :</tspan></text></g></g></svg>