<svg version="1.1" xmlns="http://www.w3.org/2000/svg" xmlns:xlink="http://www.w3.org/1999/xlink" width="950.45345" height="457.71112" viewBox="0,0,950.45345,457.71112"><defs><radialGradient cx="360" cy="227.2973" r="210.2102" gradientUnits="userSpaceOnUse" id="color-1"><stop offset="0" stop-color="#000000"/><stop offset="1" stop-color="#432f20"/></radialGradient><linearGradient x1="-3.36635" y1="120.1787" x2="-3.36635" y2="143.22475" gradientUnits="userSpaceOnUse" id="color-2"><stop offset="0" stop-color="#411a00"/><stop offset="1" stop-color="#160c02"/></linearGradient><linearGradient x1="-3.36636" y1="129.1762" x2="-3.36636" y2="152.22224" gradientUnits="userSpaceOnUse" id="color-3"><stop offset="0" stop-color="#823400"/><stop offset="1" stop-color="#68360a"/></linearGradient><linearGradient x1="-3.36635" y1="255.80933" x2="-3.36635" y2="278.85535" gradientUnits="userSpaceOnUse" id="color-4"><stop offset="0" stop-color="#411a00"/><stop offset="1" stop-color="#160c02"/></linearGradient><linearGradient x1="-3.36635" y1="264.80681" x2="-3.36635" y2="287.85285" gradientUnits="userSpaceOnUse" id="color-5"><stop offset="0" stop-color="#823400"/><stop offset="1" stop-color="#68360a"/></linearGradient><linearGradient x1="718.10811" y1="113.1667" x2="718.10811" y2="136.21274" gradientUnits="userSpaceOnUse" id="color-6"><stop offset="0" stop-color="#411a00"/><stop offset="1" stop-color="#160c02"/></linearGradient><linearGradient x1="718.10811" y1="122.16418" x2="718.10811" y2="145.21023" gradientUnits="userSpaceOnUse" id="color-7"><stop offset="0" stop-color="#823400"/><stop offset="1" stop-color="#68360a"/></linearGradient><linearGradient x1="718.10811" y1="248.79735" x2="718.10811" y2="271.84335" gradientUnits="userSpaceOnUse" id="color-8"><stop offset="0" stop-color="#411a00"/><stop offset="1" stop-color="#160c02"/></linearGradient><linearGradient x1="718.10811" y1="257.79483" x2="718.10811" y2="280.84085" gradientUnits="userSpaceOnUse" id="color-9"><stop offset="0" stop-color="#823400"/><stop offset="1" stop-color="#68360a"/></linearGradient><linearGradient x1="718.10811" y1="113.1667" x2="718.10811" y2="136.21274" gradientUnits="userSpaceOnUse" id="color-10"><stop offset="0" stop-color="#411a00"/><stop offset="1" stop-color="#160c02"/></linearGradient><linearGradient x1="718.10811" y1="122.16418" x2="718.10811" y2="145.21023" gradientUnits="userSpaceOnUse" id="color-11"><stop offset="0" stop-color="#823400"/><stop offset="1" stop-color="#68360a"/></linearGradient><linearGradient x1="718.10811" y1="248.79735" x2="718.10811" y2="271.84335" gradientUnits="userSpaceOnUse" id="color-12"><stop offset="0" stop-color="#411a00"/><stop offset="1" stop-color="#160c02"/></linearGradient><linearGradient x1="718.10811" y1="257.79483" x2="718.10811" y2="280.84085" gradientUnits="userSpaceOnUse" id="color-13"><stop offset="0" stop-color="#823400"/><stop offset="1" stop-color="#68360a"/></linearGradient><linearGradient x1="360.75075" y1="297.53759" x2="360.75075" y2="414.98504" gradientUnits="userSpaceOnUse" id="color-14"><stop offset="0" stop-color="#000000"/><stop offset="1" stop-color="#592700"/></linearGradient><linearGradient x1="147.95286" y1="195.95276" x2="286.37838" y2="195.95276" gradientUnits="userSpaceOnUse" id="color-15"><stop offset="0" stop-color="#593010"/><stop offset="1" stop-color="#000000"/></linearGradient><linearGradient x1="572.15916" y1="195.95276" x2="433.73364" y2="195.95276" gradientUnits="userSpaceOnUse" id="color-16"><stop offset="0" stop-color="#593010"/><stop offset="1" stop-color="#000000"/></linearGradient></defs><g transform="translate(109.97297,42.72608)"><g data-paper-data="{&quot;isPaintingLayer&quot;:true}" fill-rule="nonzero" stroke="#000000" stroke-width="0" stroke-linecap="butt" stroke-linejoin="miter" stroke-miterlimit="10" stroke-dasharray="" stroke-dashoffset="0" style="mix-blend-mode: normal"><g><path d="M-109.97297,414.98503v-457.71111h949.70605v457.71112z" fill="#593f2b"/><path d="M-109.22556,311.87687v-233.34972h949.70604v233.34972z" fill="#593010"/><path d="M296,244v-128h128v128z" fill="#000000"/><path d="M149.78979,414.98503c0,0 0,-213.63398 0,-282.28228c0,-39.42273 35.81118,-93.09309 84.08408,-93.09309c75.59317,0 181.74515,0 228.79279,0c45.19736,0 107.54354,55.66623 107.54354,96.02102c0,68.83188 0,279.35435 0,279.35435z" fill="url(#color-1)"/><g><path d="M-109.97297,143.22475v-23.04605h213.21321v23.04605z" fill="url(#color-2)"/><path d="M-109.97297,152.22224v-23.04605h213.21321v23.04605z" fill="url(#color-3)"/></g><g><path d="M-109.97297,278.85535v-23.04605h213.21321v23.04605z" fill="url(#color-4)"/><path d="M-109.97297,287.85285v-23.04604h213.21321v23.04604z" fill="url(#color-5)"/></g><g><path d="M595.73574,136.21274v-23.04605h244.74474v23.04605z" fill="url(#color-6)"/><path d="M595.73574,145.21023v-23.04604h244.74474v23.04604z" fill="url(#color-7)"/></g><g><path d="M595.73574,271.84335v-23.04604h244.74474v23.04604z" fill="url(#color-8)"/><path d="M595.73574,280.84085v-23.04604h244.74474v23.04604z" fill="url(#color-9)"/></g><g><path d="M595.73574,136.21274v-23.04605h244.74474v23.04605z" fill="url(#color-10)"/><path d="M595.73574,145.21023v-23.04604h244.74474v23.04604z" fill="url(#color-11)"/></g><g><path d="M595.73574,271.84335v-23.04604h244.74474v23.04604z" fill="url(#color-12)"/><path d="M595.73574,280.84085v-23.04604h244.74474v23.04604z" fill="url(#color-13)"/></g><path d="M284.18138,294.99251c0,0 0,-77.05351 0,-101.81358c0,-14.21899 12.91638,-33.57682 30.32745,-33.57682c27.26495,0 65.55184,0 82.52099,0c16.30178,0 38.78881,20.0777 38.78881,34.63286c0,24.82628 0,100.75753 0,100.75753z" fill="#000000"/><path d="M149.78979,414.98504l133.63364,-120.45045h153.15315l135.13514,120.45045z" fill="url(#color-14)"/><path d="M168.88889,78.52715l117.48949,107.93073v79.7209l-138.51051,47.19959c0,0 -1.72781,-152.70925 1.56538,-195.35902c1.88335,-24.39107 19.45564,-39.4922 19.45564,-39.4922z" fill="url(#color-15)"/><path d="M570.67877,124.02536c3.29318,42.64977 0.06388,187.85152 0.06388,187.85152l-137.00901,-45.69809v-79.7209l106.97898,-107.93073c0,0 28.08281,21.10713 29.96615,45.49821z" data-paper-data="{&quot;index&quot;:null}" fill="url(#color-16)"/></g></g></g></svg>