<svg version="1.1" xmlns="http://www.w3.org/2000/svg" xmlns:xlink="http://www.w3.org/1999/xlink" width="76.33333" height="101" viewBox="0,0,76.33333,101"><defs><linearGradient x1="368.93065" y1="176.60854" x2="370.46636" y2="177.24357" gradientUnits="userSpaceOnUse" id="color-1"><stop offset="0" stop-color="#1e1d1d"/><stop offset="1" stop-color="#000000"/></linearGradient><linearGradient x1="342.79707" y1="173.77446" x2="344.33278" y2="174.40948" gradientUnits="userSpaceOnUse" id="color-2"><stop offset="0" stop-color="#1e1d1d"/><stop offset="1" stop-color="#000000"/></linearGradient><linearGradient x1="336.93273" y1="173.83114" x2="367.80709" y2="186.59788" gradientUnits="userSpaceOnUse" id="color-3"><stop offset="0" stop-color="#9a550b"/><stop offset="1" stop-color="#713c03"/></linearGradient><radialGradient cx="358.84232" cy="186.95624" r="2.7133" gradientUnits="userSpaceOnUse" id="color-4"><stop offset="0" stop-color="#bfbfbf"/><stop offset="1" stop-color="#e2d9b5"/></radialGradient><radialGradient cx="355.59996" cy="185.72292" r="2.7133" gradientUnits="userSpaceOnUse" id="color-5"><stop offset="0" stop-color="#bfbfbf"/><stop offset="1" stop-color="#e2d9b5"/></radialGradient><radialGradient cx="352.38166" cy="183.65667" r="2.7133" gradientUnits="userSpaceOnUse" id="color-6"><stop offset="0" stop-color="#bfbfbf"/><stop offset="1" stop-color="#e2d9b5"/></radialGradient><radialGradient cx="349.84856" cy="181.03148" r="2.7133" gradientUnits="userSpaceOnUse" id="color-7"><stop offset="0" stop-color="#bfbfbf"/><stop offset="1" stop-color="#e2d9b5"/></radialGradient><radialGradient cx="347.11497" cy="178.47685" r="2.71331" gradientUnits="userSpaceOnUse" id="color-8"><stop offset="0" stop-color="#bfbfbf"/><stop offset="1" stop-color="#e2d9b5"/></radialGradient><radialGradient cx="355.15291" cy="150.4925" r="3.33223" gradientUnits="userSpaceOnUse" id="color-9"><stop offset="0" stop-color="#91a9ac"/><stop offset="1" stop-color="#8d8989"/></radialGradient><radialGradient cx="352.34696" cy="151.28125" r="3.28537" gradientUnits="userSpaceOnUse" id="color-10"><stop offset="0" stop-color="#91a9ac"/><stop offset="1" stop-color="#8d8989"/></radialGradient><radialGradient cx="353.7595" cy="150.80017" r="2.17309" gradientUnits="userSpaceOnUse" id="color-11"><stop offset="0" stop-color="#91a9ac"/><stop offset="1" stop-color="#8d8989"/></radialGradient><radialGradient cx="349.79861" cy="141.86327" r="3.50762" gradientUnits="userSpaceOnUse" id="color-12"><stop offset="0" stop-color="#91a9ac"/><stop offset="1" stop-color="#8d8989"/></radialGradient><radialGradient cx="350.3391" cy="143.39551" r="3.06916" gradientUnits="userSpaceOnUse" id="color-13"><stop offset="0" stop-color="#91a9ac"/><stop offset="1" stop-color="#8d8989"/></radialGradient><radialGradient cx="350.64308" cy="145.1075" r="3.55145" gradientUnits="userSpaceOnUse" id="color-14"><stop offset="0" stop-color="#91a9ac"/><stop offset="1" stop-color="#8d8989"/></radialGradient><radialGradient cx="351.41468" cy="146.68804" r="4.17124" gradientUnits="userSpaceOnUse" id="color-15"><stop offset="0" stop-color="#91a9ac"/><stop offset="1" stop-color="#8d8989"/></radialGradient><radialGradient cx="351.96473" cy="148.13357" r="4.49192" gradientUnits="userSpaceOnUse" id="color-16"><stop offset="0" stop-color="#91a9ac"/><stop offset="1" stop-color="#8d8989"/></radialGradient><radialGradient cx="347.33796" cy="145.77719" r="5.91909" gradientUnits="userSpaceOnUse" id="color-17"><stop offset="0" stop-color="#91a9ac"/><stop offset="1" stop-color="#8d8989"/></radialGradient><radialGradient cx="353.73199" cy="143.13874" r="5.9191" gradientUnits="userSpaceOnUse" id="color-18"><stop offset="0" stop-color="#91a9ac"/><stop offset="1" stop-color="#8d8989"/></radialGradient><radialGradient cx="350.87736" cy="146.05005" r="5.29573" gradientUnits="userSpaceOnUse" id="color-19"><stop offset="0" stop-color="#ce720f"/><stop offset="1" stop-color="#7f4304"/></radialGradient><radialGradient cx="351.57481" cy="145.58759" r="4.33824" gradientUnits="userSpaceOnUse" id="color-20"><stop offset="0" stop-color="#632d07"/><stop offset="1" stop-color="#4a2b05"/></radialGradient><radialGradient cx="370.93035" cy="152.66135" r="3.01823" gradientUnits="userSpaceOnUse" id="color-21"><stop offset="0" stop-color="#91a9ac"/><stop offset="1" stop-color="#8d8989"/></radialGradient><radialGradient cx="372.8943" cy="154.41624" r="2.97579" gradientUnits="userSpaceOnUse" id="color-22"><stop offset="0" stop-color="#91a9ac"/><stop offset="1" stop-color="#8d8989"/></radialGradient><radialGradient cx="371.93942" cy="153.46452" r="1.96832" gradientUnits="userSpaceOnUse" id="color-23"><stop offset="0" stop-color="#91a9ac"/><stop offset="1" stop-color="#8d8989"/></radialGradient><radialGradient cx="378.75215" cy="147.77153" r="3.17709" gradientUnits="userSpaceOnUse" id="color-24"><stop offset="0" stop-color="#91a9ac"/><stop offset="1" stop-color="#8d8989"/></radialGradient><radialGradient cx="377.69677" cy="148.80261" r="2.77995" gradientUnits="userSpaceOnUse" id="color-25"><stop offset="0" stop-color="#91a9ac"/><stop offset="1" stop-color="#8d8989"/></radialGradient><radialGradient cx="376.76141" cy="150.07369" r="3.2168" gradientUnits="userSpaceOnUse" id="color-26"><stop offset="0" stop-color="#91a9ac"/><stop offset="1" stop-color="#8d8989"/></radialGradient><radialGradient cx="375.49874" cy="151.05231" r="3.77818" gradientUnits="userSpaceOnUse" id="color-27"><stop offset="0" stop-color="#91a9ac"/><stop offset="1" stop-color="#8d8989"/></radialGradient><radialGradient cx="374.47045" cy="152.0091" r="4.06864" gradientUnits="userSpaceOnUse" id="color-28"><stop offset="0" stop-color="#91a9ac"/><stop offset="1" stop-color="#8d8989"/></radialGradient><radialGradient cx="379.17902" cy="151.92992" r="5.36134" gradientUnits="userSpaceOnUse" id="color-29"><stop offset="0" stop-color="#91a9ac"/><stop offset="1" stop-color="#8d8989"/></radialGradient><radialGradient cx="375.04182" cy="147.24723" r="5.36134" gradientUnits="userSpaceOnUse" id="color-30"><stop offset="0" stop-color="#91a9ac"/><stop offset="1" stop-color="#8d8989"/></radialGradient><radialGradient cx="376.19204" cy="150.74694" r="4.79671" gradientUnits="userSpaceOnUse" id="color-31"><stop offset="0" stop-color="#ce720f"/><stop offset="1" stop-color="#7f4304"/></radialGradient><radialGradient cx="376.97711" cy="150.59096" r="3.92945" gradientUnits="userSpaceOnUse" id="color-32"><stop offset="0" stop-color="#632d07"/><stop offset="1" stop-color="#4a2b05"/></radialGradient><radialGradient cx="356.19088" cy="174.27352" r="2.25017" gradientUnits="userSpaceOnUse" id="color-33"><stop offset="0" stop-color="#bfbfbf"/><stop offset="1" stop-color="#e2d9b5"/></radialGradient><radialGradient cx="358.84782" cy="175.8394" r="2.64863" gradientUnits="userSpaceOnUse" id="color-34"><stop offset="0" stop-color="#bfbfbf"/><stop offset="1" stop-color="#e2d9b5"/></radialGradient><radialGradient cx="362.73762" cy="176.59112" r="2.8464" gradientUnits="userSpaceOnUse" id="color-35"><stop offset="0" stop-color="#bfbfbf"/><stop offset="1" stop-color="#e2d9b5"/></radialGradient><radialGradient cx="372.11996" cy="176.97574" r="1.19464" gradientUnits="userSpaceOnUse" id="color-36"><stop offset="0" stop-color="#bfbfbf"/><stop offset="1" stop-color="#e2d9b5"/></radialGradient><radialGradient cx="367.06091" cy="177.18194" r="2.60714" gradientUnits="userSpaceOnUse" id="color-37"><stop offset="0" stop-color="#bfbfbf"/><stop offset="1" stop-color="#e2d9b5"/></radialGradient><radialGradient cx="369.84299" cy="177.47303" r="1.92764" gradientUnits="userSpaceOnUse" id="color-38"><stop offset="0" stop-color="#bfbfbf"/><stop offset="1" stop-color="#e2d9b5"/></radialGradient><radialGradient cx="355.81487" cy="154.41176" r="13.91564" gradientUnits="userSpaceOnUse" id="color-39"><stop offset="0" stop-color="#99540b"/><stop offset="1" stop-color="#673703"/></radialGradient><radialGradient cx="371.12796" cy="170.93548" r="3.73139" gradientUnits="userSpaceOnUse" id="color-40"><stop offset="0" stop-color="#99540b"/><stop offset="1" stop-color="#673703"/></radialGradient><radialGradient cx="364.97192" cy="173.24313" r="11.13761" gradientUnits="userSpaceOnUse" id="color-41"><stop offset="0" stop-color="#99540b"/><stop offset="1" stop-color="#673703"/></radialGradient><radialGradient cx="347.40388" cy="164.94723" r="6.37139" gradientUnits="userSpaceOnUse" id="color-42"><stop offset="0" stop-color="#99540b"/><stop offset="1" stop-color="#673703"/></radialGradient><radialGradient cx="363.56051" cy="168.36084" r="4.42954" gradientUnits="userSpaceOnUse" id="color-43"><stop offset="0" stop-color="#632d07"/><stop offset="1" stop-color="#4a2b05"/></radialGradient><radialGradient cx="367.94158" cy="167.6899" r="2.04395" gradientUnits="userSpaceOnUse" id="color-44"><stop offset="0" stop-color="#212121"/><stop offset="1" stop-color="#0f0000"/></radialGradient><linearGradient x1="356.70391" y1="148.60999" x2="370.05405" y2="151.61271" gradientUnits="userSpaceOnUse" id="color-45"><stop offset="0" stop-color="#2f0e9b"/><stop offset="1" stop-color="#53069c"/></linearGradient><linearGradient x1="360.41405" y1="145.89973" x2="367.85358" y2="147.52488" gradientUnits="userSpaceOnUse" id="color-46"><stop offset="0" stop-color="#1f0965"/><stop offset="1" stop-color="#460583"/></linearGradient></defs><g transform="translate(-321.83333,-129.5)"><g data-paper-data="{&quot;isPaintingLayer&quot;:true}" fill-rule="nonzero" stroke-linecap="butt" stroke-linejoin="miter" stroke-miterlimit="10" stroke-dasharray="" stroke-dashoffset="0" style="mix-blend-mode: normal"><path d="M321.83333,230.5v-101h76.33333v101z" fill="#273042" stroke="none" stroke-width="0"/><path d="M329.75471,196.83333v-61.66667h60.49068v61.66667z" fill="#0b0e13" stroke="none" stroke-width="0"/><path d="M343.08351,227.33333v-17.33333h33.83333v17.33333z" fill="#0b0e13" stroke="#000000" stroke-width="0"/><path d="M342.99997,209.125v-11.25h34.25v11.25z" fill="#273042" stroke="#000000" stroke-width="0"/><text transform="translate(347.2103,223.17375) scale(0.37559,0.37559)" font-size="40" xml:space="preserve" fill="#c74444" fill-rule="nonzero" stroke="none" stroke-width="1" stroke-linecap="butt" stroke-linejoin="miter" stroke-miterlimit="10" stroke-dasharray="" stroke-dashoffset="0" font-family="&quot;Agency FB&quot;, Sans Serif" font-weight="normal" text-anchor="start" style="mix-blend-mode: normal"><tspan x="0" dy="0">HARD</tspan></text><g stroke="none"><g><path d="M369.51083,180.96492c-0.75662,1.80961 -3.35429,4.63117 -6.92805,5.66828c-3.51666,1.02053 -7.98712,0.28315 -11.52065,-1.17799c-4.85666,-2.00826 -9.3571,-7.37401 -10.38686,-11.84014c-0.48085,-2.08544 0.86085,-4.11759 1.33868,-5.26043c1.50115,-3.5903 6.23868,1.57279 13.36314,4.5188c7.12446,2.946 15.6349,4.50118 14.13374,8.09149z" fill="#221202" stroke-width="0"/><g stroke-width="0"><path d="M351.90452,187.07712l3.53939,-9.24535l4.13263,1.60662l-3.5394,9.24535z" fill="#0b0b0b"/><path d="M361.09714,181.28709c0.1537,-0.4938 0.34543,-1.28445 0.43034,-2.02394c0.04046,-0.35235 -0.09531,-0.76443 0.01281,-0.99402c0.24319,-0.51642 1.63013,0.00043 1.74963,0.04082c0.12715,0.04298 -0.24614,0.3042 -0.31598,0.93251c-0.0862,0.77565 -0.57599,1.68308 -0.79237,2.37826c-0.39165,1.2583 -1.63902,2.43535 -1.92314,2.33932c-0.28411,-0.09603 0.44705,-1.41464 0.8387,-2.67295z" fill="#0b0b0b"/><path d="M361.95326,184.03529c-1.27979,2.56549 -3.25228,3.16025 -7.49823,1.167c-2.24368,-1.05329 -4.51725,-3.77006 -5.15921,-6.54964c-0.53677,-2.32412 1.6187,-7.02752 1.65676,-7.10381c0.72192,-1.44717 0.74457,2.48202 1.69291,6.01644c0.73284,2.73126 2.43256,4.63046 4.2834,5.49934c0.74209,0.34837 2.88035,1.38057 3.9699,0.37734c1.82164,-1.67733 2.10394,-5.91853 2.35997,-5.07101c0.46701,1.54592 -0.62337,4.29691 -1.3055,5.66434z" fill="#303030"/><path d="M361.11518,178.41842c-0.29263,0.58661 -0.42999,1.7014 -1.06052,2.06846c-0.89823,0.5229 -2.39796,0.13 -3.35502,-0.31929c-0.8537,-0.40076 -2.1823,-1.14737 -2.52943,-2.29267c-0.31521,-1.03998 0.29347,-2.46783 0.63113,-3.14469c0.7095,-1.42227 2.83873,-0.47781 4.46761,0.28686c1.62888,0.76467 2.55573,1.97905 1.84623,3.40133z" fill="#0b0b0b"/></g><path d="M366.53894,182.32882l4.78344,-11.44056l1.53571,0.63502l-4.78344,11.44056z" fill="url(#color-1)" stroke-width="0"/><path d="M356.95538,174.09288l0.01321,0.03685c-0.09323,0.40181 -0.12036,0.97126 -0.1372,1.40169c-0.0986,0.24029 -0.38885,0.64098 -0.37586,0.90358c0.03293,0.66532 0.70553,1.24823 1.43602,0.99919c1.04567,-0.32694 1.84097,-0.94214 2.78292,-1.45162c0.15734,0.05045 0.46847,0.02444 0.54621,0.20948c0.04704,0.11198 -0.17518,0.46422 -0.22,0.57072c-0.2519,0.59867 -0.64504,1.11231 -0.90753,1.74012c-0.26239,0.62801 0.35735,1.18952 -0.05004,1.80347c-0.30783,0.46389 -0.89623,0.30752 -1.07831,-0.21924c-0.01788,-0.33672 0.05807,-0.7894 -0.18715,-1.10617c-0.45812,-0.59181 -1.29121,-0.06918 -1.47314,0.33086c-0.13494,0.09883 -0.89586,0.68323 -1.01334,0.67584c-0.55249,-0.03476 -1.15883,-1.19754 -1.46574,-1.55412c0.01115,-0.9172 -0.26112,-2.2228 0.57209,-2.91057c0.17441,-0.42804 0.72854,-1.28157 1.36237,-1.51989c-0.00317,-0.02229 0.00107,-0.05558 0.04896,-0.06907c0.04623,-0.01303 0.07612,0.00846 0.09225,0.02685c0.15887,-0.03505 0.32124,-0.02799 0.48262,0.03682c0,0 0.07679,0.03175 0.0494,0.09725c-0.02739,0.0655 -0.10417,0.03375 -0.10417,0.03375c-0.1233,-0.05286 -0.24888,-0.06108 -0.37356,-0.0358z" fill-opacity="0.45882" fill="#611111" stroke-width="0.5"/><path d="M341.96827,175.75669l4.1272,-9.87103l1.53571,0.63503c0,0 -3.26341,7.8051 -4.47971,10.71411c-0.04482,0.1072 -1.18321,-1.4781 -1.18321,-1.4781z" fill="url(#color-2)" stroke-width="0"/><path d="M369.50259,180.76361c-0.03228,0.07719 0.09553,0.90007 -0.41938,1.64577c-1.67274,2.42246 -5.7527,6.94066 -7.44162,6.84121c-4.16478,-0.24523 -10.87044,-2.6761 -14.89625,-5.79517c-2.90603,-2.2515 -3.78304,-5.44624 -4.30293,-5.66121c-1.62209,-0.67075 -3.32601,-2.54589 -2.7437,-3.93861c0.28409,-0.67947 0.2407,-2.77935 0.77071,-4.56227c0.55636,-1.87155 1.69874,-3.40497 2.52944,-3.06146c0.25114,0.10385 0.52261,0.30098 0.83515,1.09102c0.0212,0.05359 -0.67006,0.48392 -1.13926,1.2764c-0.92206,1.55739 -1.86554,4.1499 -1.01409,5.48477c0.29218,0.45806 0.96688,1.33499 1.87904,2.11931c1.78954,1.53874 4.21824,3.13275 4.54119,3.39109c1.78466,1.42765 3.0197,3.25336 4.42185,4.40317c0.11294,0.09261 2.85002,2.00866 5.37291,2.75295c2.05256,0.60554 3.99284,0.07366 4.02402,0.08443c0.66917,0.23138 0.98132,-1.7313 2.18891,-3.10137c0.69991,-0.79408 1.41915,-1.94557 3.80597,-2.12578c0.39398,-0.02975 1.68628,-2.14837 1.77991,-2.08122c0.11861,0.08507 -0.16542,1.17368 -0.19187,1.23695z" fill="#6b3b08" stroke-width="0"/><path d="M363.79482,188.9278c-0.41031,0.98134 -1.52698,2.51144 -2.95623,3.00485c-1.75821,0.60699 -4.45051,0.27037 -6.78971,-0.69691c-0.82253,-0.34012 -4.59717,-1.54605 -6.25609,-2.94383c-1.33334,-1.12345 -0.87604,-2.18742 -2.37809,-3.5276c-2.6674,-2.37995 -5.22088,-4.46627 -6.76244,-7.17489c-1.13199,-1.98898 -1.39651,-5.43757 0.06628,-7.85356c0.78892,-1.30301 2.03665,-2.49315 3.0735,-3.16043c0.57099,-0.36747 1.28249,-0.46508 1.33774,-0.59722c0.00322,-0.00771 -1.68042,1.54253 -2.32564,3.671c-0.60347,1.99073 -0.1976,4.52904 0.51555,5.60108c1.21899,1.83242 3.81489,2.81627 6.06211,4.69397c1.9055,1.59215 2.74473,3.50371 4.36325,4.93065c1.46536,1.29191 3.75881,2.16098 4.59136,2.50525c1.74873,0.72311 3.73862,1.0345 5.06753,0.98233c0.36275,-0.01423 1.72138,0.03361 2.46385,-1.06475c0.45573,-0.67417 0.44553,-1.65979 1.16833,-2.31984c1.05961,-0.96762 2.92051,-1.84066 3.68568,-2.79784c1.06184,-1.32827 0.87059,-2.99154 0.92112,-2.88424c0.01928,0.04094 0.56118,2.15288 -0.28922,3.51552c-0.88103,1.41171 -2.75988,2.80352 -3.83172,3.84663c-1.06014,1.03172 -1.67685,2.14954 -1.72714,2.26981z" fill="url(#color-3)" stroke-width="0"/><path d="M340.81685,167.93324c-0.05698,-0.05728 0.00133,-0.10219 0.00133,-0.10219l0.06135,-0.04726c0.13485,-0.10168 0.27105,-0.31717 0.41467,-0.56815c0.13709,-0.32732 0.23638,-0.24885 0.47822,-0.49409c0.2479,-0.33084 0.48308,-0.55872 0.81233,-0.40214c0.00428,-0.00017 0.19114,-0.27024 0.38802,-0.17269c0.39192,0.1942 0.93447,0.85058 0.93221,1.03034c-0.0028,0.22387 -0.10663,0.11361 -0.24159,0.21786c-0.13741,0.10615 -1.46214,1.7025 -2.01861,3.29022c-0.46491,1.32647 -0.19001,2.68048 -0.16912,2.83621c0.17995,0.3617 0.59685,1.3149 1.39483,2.10933c1.13872,1.13366 2.76629,2.14372 3.13706,2.35545c0.52864,0.55076 1.32165,0.78191 1.90128,1.3148c0.32147,0.29555 0.30607,0.55958 0.7356,0.7372c0.82647,0.34175 1.82785,0.82071 2.14701,1.63843c0.12309,0.31538 -0.3264,0.22127 -0.19594,0.40791c0.33293,0.23549 0.55088,0.6255 0.89333,0.87399c0.30501,0.22132 0.77911,0.23697 1.0408,0.54571c0.2004,0.23643 0.16674,0.56809 0.48375,0.74449c0.28593,0.30407 0.7804,0.43884 1.14995,0.68066c0.58876,0.38527 1.11903,0.67652 1.67905,1.1147c0.4172,0.3299 0.87542,0.25351 1.30225,0.4367c0.51299,0.22017 1.00537,0.65169 1.65597,0.43632c0.65687,-0.20661 1.24016,-0.05059 1.86595,-0.0813c0.11533,-0.00566 0.09021,-0.14801 0.15067,-0.18991c0.24868,-0.17234 0.76628,-0.19422 1.07018,-0.20647c0.56913,-0.40016 0.65827,-0.72974 0.98717,-1.2914c0.21419,-0.36577 0.60752,-0.60596 0.77377,-1.00354c0.08417,-0.20117 0.43918,-0.44634 0.64891,-0.56154c0.20819,-0.11434 0.20215,-0.2669 0.36665,-0.50909c0.3288,-0.48411 1.88723,-1.21059 1.98667,-1.25021c0.03971,-0.01582 0.96715,0.04449 1.31989,-0.42734c0.10753,-0.08855 0.51719,-0.16541 0.75498,-0.51048c0.30898,-0.44839 0.4659,-1.17161 0.71261,-1.13199c0.39886,0.06405 0.29518,1.15502 0.31241,1.42328c-0.40273,0.99372 -0.95626,1.71366 -1.84955,2.34776c-1.064,-0.04327 -1.7144,1.04725 -2.06918,1.84673c-0.20546,0.41848 -0.78694,0.34311 -1.14709,0.73713c-0.338,0.36977 -0.31524,1.03805 -0.48313,1.43726c-0.17925,0.34723 -0.50017,0.93597 -0.85172,1.15092c-0.41652,0.25468 -0.92216,0.5387 -1.1239,0.99549c-0.34487,0.76763 -1.58991,0.56066 -2.35413,0.58693c-0.2598,0.00893 -0.46379,0.17174 -0.76974,0.14535c-0.45917,-0.04268 -0.82388,0.17244 -1.24195,0.14479c-0.62567,-0.04136 -1.50138,-0.48202 -2.04599,-0.78877c-0.97917,-0.56686 -2.04857,-0.91595 -3.14094,-1.36728c-1.2138,-0.50118 -2.01959,-0.7854 -3.02315,-1.6526c-0.22224,-0.428 -0.15456,-1.35391 -0.53164,-1.66585c-0.40214,-0.33268 -0.9801,-0.28648 -1.19284,-0.84691c-0.14264,-0.39291 -0.47765,-1.33099 -0.78437,-1.61426c-0.12676,-0.11708 -0.32816,-0.12571 -0.42671,-0.28679c-0.16541,-0.27033 -0.14254,-0.54177 -0.31504,-0.81555c-0.24633,-0.39815 -0.62928,-0.7263 -0.86857,-1.12683c-0.11501,-0.1925 0.0263,-0.53242 -0.16534,-0.64074c-0.33296,-0.18821 -0.76572,-0.02169 -1.10105,-0.15433c-0.48277,-0.20033 -0.66316,-0.52452 -1.03977,-0.7362c-0.29277,-0.16456 -0.61822,0.1736 -0.86684,0.14235c-0.34965,-0.04396 -0.6374,-0.7098 -0.67086,-0.95025c-0.15653,-1.04887 -0.65273,-1.83737 -1.84415,-2.33322c-0.23564,-0.09857 -0.80233,-0.24825 -0.93942,-0.46337c-0.34697,-0.54445 -0.46574,-1.6225 -0.34444,-2.16322c-0.06647,-0.94246 1.02774,-1.77664 1.37382,-2.60438c0.25922,-0.62 0.32163,-1.2805 0.66705,-1.85564c0.1793,-0.29854 0.45551,-0.42336 0.45534,-0.79879c-0.01979,0.01761 -0.04033,0.03482 -0.06169,0.05156l-0.06135,0.04726c0,0 -0.0583,0.04492 -0.11528,-0.01236z" fill-opacity="0.57255" fill="#611111" stroke-width="0.5"/><g><path d="M358.70763,187.73346c-1.44231,-0.38959 -1.59739,-0.25209 -1.40911,-1.09036c0.18828,-0.83828 0.44242,-1.59427 1.88472,-1.20468c1.44231,0.38959 1.63864,0.95567 1.45036,1.79394c-0.18827,0.83828 -0.48367,0.8907 -1.92597,0.50111z" fill="url(#color-4)" stroke-width="0"/><path d="M357.41498,186.10096l0.27284,-0.59162c0.27269,-0.09272 0.62881,-0.23307 1.12212,-0.15317c0.25084,0.04063 0.53247,0.10446 0.7846,0.19845c0.04759,0.01774 0.86458,0.40787 0.86458,0.40787l0.2312,0.51526c-0.04134,0.13605 0.10751,0.60988 -0.17073,0.76227c-0.10224,0.05599 -0.37319,-0.54075 -0.52812,-0.61133c-0.21139,-0.09629 -0.30102,0.35314 -0.43376,0.25563l-0.70833,-0.36613c-0.26993,-0.13446 0.02827,0.43217 -0.25785,0.47033c0,0 -0.55669,-0.77852 -0.74636,-0.84856z" fill-opacity="0.8" fill="#611111" stroke-width="0.5"/></g><g><path d="M354.01754,184.81748c0.34936,-0.78185 0.84139,-1.10685 2.21499,-0.51024c1.3736,0.59662 1.12531,1.35466 0.77596,2.13651c-0.34936,0.78185 -0.39039,0.57568 -1.76399,-0.02093c-1.3736,-0.59662 -1.57632,-0.82349 -1.22696,-1.60534z" fill="url(#color-5)" stroke-width="0"/><path d="M354.5404,185.05174c-0.17361,0.03463 -0.40276,-0.46727 -0.40276,-0.46727l0.35086,-0.47386c0.291,-0.04966 0.7412,-0.19998 1.2219,-0.04996c0.70606,0.22037 1.33609,0.77453 1.33609,0.77453c0,0 0.04974,0.05938 0.0789,0.11859c0.02408,0.04888 0.25826,0.47744 0.23515,0.75566c-0.00677,0.08157 -0.17047,0.10655 -0.29373,0.20382c-0.14824,0.11701 -0.265,0.2968 -0.33834,0.25053c-0.11035,-0.06962 0.1403,-0.57958 0.00156,-0.53149c-0.26722,0.09264 -0.46098,-0.41216 -0.39991,0.32797c0,0 -0.52067,-0.87326 -0.49685,-0.23723c0.00148,0.03919 -0.51886,-0.60784 -0.85719,-0.32259c0,0 -0.25815,-0.25292 -0.43571,-0.34869z" fill-opacity="0.8" fill="#611111" stroke-width="0.5"/></g><g><path d="M351.15514,182.37452c0.62598,-0.61225 1.22679,-0.76673 2.35997,0.17356c1.13317,0.94028 0.61507,1.55998 -0.01092,2.17224c-0.62598,0.61225 -0.5917,0.41239 -1.72486,-0.52789c-1.13317,-0.94028 -1.25017,-1.20564 -0.6242,-1.81791z" fill="url(#color-6)" stroke-width="0"/><path d="M351.92898,182.27456c-0.18284,-0.0252 -0.48467,-0.17101 -0.48467,-0.17101l0.53459,-0.3744c0.30308,0.04974 0.81781,0.17585 1.22431,0.46538c0.59706,0.42528 1.16004,1.18458 1.16004,1.18458l-0.24103,0.51075c-0.01033,0.2963 -0.92203,0.37075 -1.03615,0.12959l-0.2882,-0.50268c-0.17048,-0.23154 -0.72726,-0.12526 -1.01141,-0.2251c0,0 0.43282,-0.37961 0.37483,-0.5363c-0.05093,-0.1376 -0.58864,-0.0495 -0.6512,-0.11637z" fill-opacity="0.8" fill="#611111" stroke-width="0.5"/></g><g><path d="M348.64944,179.72969c0.64155,-0.59909 1.2472,-0.74199 2.36075,0.21703c1.11355,0.95903 0.57992,1.56756 -0.06164,2.16665c-0.64155,0.59909 -0.60251,0.40036 -1.71606,-0.55867c-1.11355,-0.95904 -1.22459,-1.22593 -0.58305,-1.82501z" fill="url(#color-7)" stroke-width="0"/><path d="M349.27997,179.71471c-0.18301,-0.02073 -0.583,-0.08251 -0.583,-0.08251c0,0 0.23751,-0.20915 0.37135,-0.2793c0.12172,-0.06379 0.39879,-0.12434 0.39879,-0.12434c0.37796,-0.02352 0.75626,0.12474 1.17041,0.40492c0.6083,0.41154 1.08516,1.0315 1.07935,1.07468l0.04588,0.00522l-0.15643,0.59703c-0.00105,0.29734 -0.25125,0.5304 -0.59255,0.53472c-0.29649,0.00374 -0.3957,-0.69616 -0.51696,-0.93512l-0.88815,-0.01951c-0.17713,-0.22791 0.28398,-0.59728 -0.00232,-0.6903c0,0 -0.63078,0.11954 -0.76857,-0.02053z" fill-opacity="0.8" fill="#611111" stroke-width="0.5"/></g><g><path d="M345.76311,177.29767c0.54673,-0.6723 1.12047,-0.88183 2.3418,-0.03814c1.22134,0.84371 0.78159,1.51376 0.23486,2.18606c-0.54673,0.6723 -0.53559,0.46818 -1.75692,-0.37554c-1.22134,-0.8437 -1.36648,-1.10011 -0.81974,-1.7724z" fill="url(#color-8)" stroke-width="0"/><path d="M346.14392,176.95037c0.41379,-0.45352 0.91115,-0.22782 1.15405,-0.18862c0.46501,0.21308 1.15318,0.63669 1.47191,1.0385c0.37436,0.47193 0.07698,1.30761 -0.4151,1.43421c-0.02751,0.00707 -0.2562,-0.55319 -0.58881,-0.67011c-0.25883,-0.09098 -0.54149,0.23955 -0.56265,0.11915c-0.21998,-1.25215 -0.12318,-0.76328 -0.53761,-0.54301c-0.10567,0.05616 0.02259,-0.09351 0.10793,-0.24554c0.10127,-0.18042 0.16772,-0.37873 0.07194,-0.44549c-0.36569,-0.25489 -0.38236,0.61744 -0.60995,0.37983c-0.20742,-0.21656 -0.05853,-0.37737 -0.03306,-0.54209c0.02086,-0.13486 -0.10206,-0.28928 -0.05867,-0.33683z" fill-opacity="0.8" fill="#611111" stroke-width="0.5"/></g><path d="M343.69992,181.16446c-0.01981,-0.01525 -0.04218,-0.04272 -0.02539,-0.08287c0.01767,-0.04224 0.05588,-0.04404 0.08079,-0.03999c0.01433,-0.01677 0.04331,-0.03674 0.09283,-0.01626c0.04966,0.02054 0.05575,0.05519 0.05385,0.07711c0.94713,0.4518 -0.41993,0.66556 -0.2128,0.08764z" fill-opacity="0.57255" fill="#611111" stroke-width="0.5"/><path d="M345.66986,183.41754c-0.07678,-0.03175 -0.0494,-0.09725 -0.0494,-0.09725l0.01825,-0.04367c0.10335,-0.22873 0.12572,-0.5678 -0.10913,-0.74049c0,0 -0.06419,-0.05083 -0.01392,-0.10293c0.05026,-0.0521 0.11444,-0.00127 0.11444,-0.00127c0.29146,0.24296 0.28133,0.60637 0.16219,0.90818l-0.01826,0.04367c0,0 -0.02739,0.0655 -0.10418,0.03375z" fill-opacity="0.57255" fill="#611111" stroke-width="0.5"/><path d="M344.79963,183.05769c-0.07678,-0.03175 -0.0494,-0.09725 -0.0494,-0.09725c0.03652,-0.08733 0.09129,-0.21833 0.1278,-0.30566c0,0 0.02739,-0.0655 0.10417,-0.03375c0.07678,0.03175 0.0494,0.09725 0.0494,0.09725c-0.03652,0.08733 -0.07303,0.17467 -0.10954,0.262l-0.01826,0.04366c0,0 -0.02739,0.0655 -0.10418,0.03375z" fill-opacity="0.57255" fill="#611111" stroke-width="0.5"/><path d="M344.85813,180.78966c0.07927,-0.00921 0.0983,0.063 0.0983,0.063l0.00555,0.02106c0.04791,0.18401 0.17895,0.3084 0.20838,0.48476c0,0 0.00985,0.07279 -0.07108,0.07368c-0.08093,0.00089 -0.09077,-0.0719 -0.09077,-0.0719c-0.01292,-0.14917 -0.16097,-0.30263 -0.20507,-0.46813l-0.00555,-0.02106c0,0 -0.01903,-0.07221 0.06024,-0.08142z" fill-opacity="0.57255" fill="#611111" stroke-width="0.5"/><path d="M343.68141,180.05994c0.02756,-0.06543 0.10428,-0.03353 0.10428,-0.03353l0.00417,0.00173c0.29178,0.12131 0.63304,0.43326 0.8623,0.51021c0,0 0.07679,0.03176 0.0494,0.09725c-0.02739,0.0655 -0.10417,0.03375 -0.10417,0.03375c-0.27793,-0.12746 -0.52641,-0.37056 -0.86265,-0.51036l-0.00418,-0.00173c0,0 -0.07672,-0.0319 -0.04916,-0.09732z" fill-opacity="0.57255" fill="#611111" stroke-width="0.5"/><path d="M342.37919,179.60721c-0.00984,-0.07278 0.07108,-0.07367 0.07108,-0.07367l0.12064,-0.00133c0,0 0.08093,-0.00089 0.09077,0.07189c0.00984,0.07278 -0.07108,0.07367 -0.07108,0.07367l-0.12064,0.00133c0,0 -0.08093,0.00089 -0.09077,-0.07189z" fill-opacity="0.57255" fill="#611111" stroke-width="0.5"/><path d="M341.78603,179.79944c-0.04599,-0.0642 0.02132,-0.0985 0.02132,-0.0985l0.13259,-0.06658c0.05568,-0.01022 0.11135,-0.02044 0.16703,-0.03066c0,0 0.07786,-0.0139 0.10202,0.05755c0.02417,0.07145 -0.0537,0.08535 -0.0537,0.08535c-0.04814,0.00832 -0.09627,0.01662 -0.14441,0.02494l-0.11155,0.05781c0,0 -0.06732,0.03429 -0.1133,-0.0299z" fill-opacity="0.57255" fill="#611111" stroke-width="0.5"/><path d="M340.21975,177.06662c0.07678,0.03175 0.0494,0.09725 0.0494,0.09725l-0.05478,0.131c-0.09987,0.23885 -0.07816,0.4696 -0.42205,0.36325c0,0 -0.01143,-0.00472 -0.0239,-0.0143c-0.00905,-0.00089 -0.01827,-0.00314 -0.02729,-0.00687c-0.04241,-0.01754 -0.06452,-0.06108 -0.0494,-0.09725c0.01512,-0.03617 0.06176,-0.05129 0.10417,-0.03375c0.00902,0.00373 0.01712,0.00864 0.02414,0.0144c0.01562,0.00205 0.02705,0.00677 0.02705,0.00677c0.15425,0.10182 0.15861,-0.16395 0.21371,-0.29574l0.05478,-0.131c0,0 0.02739,-0.0655 0.10417,-0.03375z" fill-opacity="0.57255" fill="#611111" stroke-width="0.5"/><path d="M340.11917,176.9482c0.01512,-0.03617 0.06177,-0.05128 0.10417,-0.03375c0.04241,0.01754 0.06452,0.06108 0.0494,0.09725c-0.01512,0.03617 -0.06177,0.05129 -0.10417,0.03375c-0.04241,-0.01754 -0.06452,-0.06108 -0.0494,-0.09725z" fill-opacity="0.57255" fill="#611111" stroke-width="0.5"/><path d="M340.40517,178.70537c-0.02739,0.0655 -0.10417,0.03375 -0.10417,0.03375l-0.093,-0.05511c-0.19996,-0.31374 0.28305,-0.73335 0.05011,-0.94383c0,0 -0.05643,-0.05769 0.0024,-0.10208c0.05883,-0.04438 0.11527,0.01331 0.11527,0.01331c0.32143,0.35388 -0.2657,0.62429 -0.02939,0.9695l0.00938,-0.01278c0,0 0.07678,0.03175 0.0494,0.09725z" fill-opacity="0.57255" fill="#611111" stroke-width="0.5"/><path d="M343.93118,182.62176c-0.02739,0.0655 -0.10417,0.03375 -0.10417,0.03375l-0.10238,-0.04233c-0.08718,-0.03606 -0.39412,-0.11879 -0.4458,-0.19582c-0.06175,-0.09203 0.10671,-0.20478 0.04836,-0.29833c-0.24874,-0.39874 -0.80835,-0.28375 -0.55189,-0.89712c0,0 0.02739,-0.0655 0.10417,-0.03375c0.07678,0.03175 0.0494,0.09725 0.0494,0.09725c-0.23083,0.55209 0.35719,0.38011 0.54564,0.7859c0.04186,0.09013 -0.1515,0.20214 -0.06835,0.268c0.07021,0.05561 0.28465,0.10623 0.37325,0.14287l0.10238,0.04234c0,0 0.07678,0.03175 0.0494,0.09725z" fill-opacity="0.57255" fill="#611111" stroke-width="0.5"/><path d="M347.36692,184.88358c-0.0815,-0.00941 -0.07981,-0.08159 -0.07981,-0.08159l0.00018,-0.00781c0.00201,-0.08035 0.00042,-0.16152 -0.0107,-0.24255c0,0 -0.00985,-0.07278 0.07108,-0.07367c0.08093,-0.00089 0.09077,0.07189 0.09077,0.07189c0.01174,0.08792 0.0138,0.17596 0.01186,0.26316l-0.00019,0.00781c0,0 -0.0017,0.07217 -0.0832,0.06277z" fill-opacity="0.57255" fill="#611111" stroke-width="0.5"/><path d="M346.92339,185.92555c-0.05704,-0.05722 0.00119,-0.10221 0.00119,-0.10221l0.08213,-0.06239c0.09452,-0.14361 0.1719,-0.27971 0.23786,-0.43746c0,0 0.02739,-0.0655 0.10417,-0.03375c0.07678,0.03175 0.0494,0.09725 0.0494,0.09725c-0.07181,0.17176 -0.15691,0.31902 -0.26181,0.47431l-0.09766,0.07649c0,0 -0.05824,0.04499 -0.11529,-0.01223z" fill-opacity="0.57255" fill="#611111" stroke-width="0.5"/><path d="M347.54919,186.45571c-0.00858,0.07112 -0.08966,0.05565 -0.08966,0.05565l-0.06589,-0.01258c-0.20035,-0.03934 -0.3155,-0.0997 -0.48262,-0.21438c0,0 -0.06785,-0.04669 -0.02266,-0.10253c0.04519,-0.05584 0.11305,-0.00915 0.11305,-0.00915c0.14621,0.10091 0.23375,0.15141 0.4094,0.18381l0.06589,0.01259c0,0 0.08107,0.01548 0.07249,0.0866z" fill-opacity="0.57255" fill="#611111" stroke-width="0.5"/><path d="M348.6202,186.32835c-0.05203,0.05066 -0.11479,-0.00161 -0.11479,-0.00161l-0.05656,-0.04711c-0.0407,-0.0339 -0.07964,-0.06804 -0.11711,-0.10251c0.2104,0.28384 0.26648,0.50963 0.40336,0.83719l0.06461,0.12707c0,0 0.03494,0.06877 -0.03873,0.09263c-0.07366,0.02386 -0.10859,-0.0449 -0.10859,-0.0449l-0.06712,-0.13226c-0.13825,-0.33253 -0.18233,-0.54339 -0.40387,-0.83207l-0.01354,0.02699c-0.02924,0.02206 -0.05847,0.0441 -0.08771,0.06616c0,0 -0.05884,0.04438 -0.11527,-0.01331c-0.05643,-0.05769 0.00241,-0.10208 0.00241,-0.10208c0.02924,-0.02206 0.05847,-0.0441 0.0877,-0.06617l0.01616,-0.06139c0,0 0.02739,-0.0655 0.10418,-0.03375c0.00912,0.00377 0.01677,0.00802 0.02317,0.01257c0.00248,0.00022 0.0049,0.00058 0.00727,0.00102c-0.15114,-0.1546 -0.28184,-0.3172 -0.41961,-0.49472c0,0 -0.0487,-0.06275 0.01669,-0.09963c0.06538,-0.03689 0.11407,0.02587 0.11407,0.02587c0.19854,0.25584 0.37954,0.47836 0.63601,0.69195l0.05657,0.04711c0,0 0.06276,0.05227 0.01072,0.10293z" fill-opacity="0.57255" fill="#611111" stroke-width="0.5"/><path d="M348.37425,187.65867c0.0017,-0.07217 0.08321,-0.06277 0.08321,-0.06277l0.00882,0.00102c0.09075,0.01058 0.18202,0.01802 0.27211,0.01688c0,0 0.08093,-0.00089 0.09077,0.07189c0.00984,0.07278 -0.07108,0.07367 -0.07108,0.07367c-0.09778,0.00094 -0.19674,-0.00683 -0.29519,-0.01809l-0.00882,-0.00102c0,0 -0.0815,-0.00941 -0.0798,-0.08159z" fill-opacity="0.57255" fill="#611111" stroke-width="0.5"/><path d="M347.72601,187.10713c0.07366,-0.02386 0.10859,0.04491 0.10859,0.04491l0.02894,0.05697c0.08464,0.17139 0.20404,0.27486 0.39659,0.35257c0,0 0.07678,0.03176 0.0494,0.09725c-0.02739,0.0655 -0.10417,0.03375 -0.10417,0.03375c-0.23566,-0.0994 -0.38006,-0.2259 -0.48915,-0.43584l-0.02894,-0.05697c0,0 -0.03493,-0.06877 0.03872,-0.09263z" fill-opacity="0.57255" fill="#611111" stroke-width="0.5"/><path d="M347.64304,185.30901c0.07611,0.0333 0.0469,0.09802 0.0469,0.09802l-0.04713,0.10221c-0.1088,0.11254 -0.14534,0.2146 -0.20422,0.35541c0,0 -0.02739,0.0655 -0.10417,0.03375c-0.07678,-0.03175 -0.04939,-0.09725 -0.04939,-0.09725c0.0609,-0.14565 0.10355,-0.26028 0.21592,-0.37698l0.03678,-0.08373c0,0 0.02921,-0.06473 0.10532,-0.03142z" fill-opacity="0.57255" fill="#611111" stroke-width="0.5"/><path d="M350.38473,188.52004c-0.07366,0.02386 -0.10858,-0.0449 -0.10858,-0.0449l-0.05752,-0.11655c-0.30071,-0.26204 -0.59331,-0.44821 -0.76546,-0.78712c0,0 -0.03493,-0.06877 0.03873,-0.09263c0.07366,-0.02386 0.1086,0.0449 0.1086,0.0449c0.16444,0.32371 0.46415,0.50238 0.74876,0.7609l0.07422,0.14278c0,0 0.03493,0.06877 -0.03873,0.09263z" fill-opacity="0.57255" fill="#611111" stroke-width="0.5"/><path d="M352.10232,189.20288c-0.0017,0.07217 -0.0832,0.06277 -0.0832,0.06277l-0.00882,-0.00102c-0.3612,-0.04199 -0.70532,-0.13669 -1.04426,-0.27685c0,0 -0.07678,-0.03175 -0.0494,-0.09725c0.02739,-0.0655 0.10417,-0.03375 0.10417,-0.03375c0.3222,0.13323 0.64924,0.22412 0.99289,0.26349l0.00882,0.00102c0,0 0.0815,0.00941 0.07981,0.08159z" fill-opacity="0.57255" fill="#611111" stroke-width="0.5"/><path d="M351.27158,188.47249c0.02881,-0.06489 0.10507,-0.03192 0.10507,-0.03192l0.05371,0.02322c0.63113,0.27285 1.19937,0.60146 1.68874,1.06241c0,0 0.05904,0.05562 0.00283,0.10257c-0.05621,0.04696 -0.11525,-0.00866 -0.11525,-0.00866c-0.47345,-0.44596 -1.02319,-0.7625 -1.63395,-1.02654l-0.0537,-0.02321c0,0 -0.07626,-0.03297 -0.04745,-0.09787z" fill-opacity="0.57255" fill="#611111" stroke-width="0.5"/><path d="M355.94677,190.35849c0.02481,-0.06652 0.10246,-0.03697 0.10246,-0.03697l0.00086,0.00033c0.88181,0.33557 1.75872,0.67601 2.63068,1.03657c0,0 0.07678,0.03175 0.0494,0.09725c-0.02739,0.0655 -0.10417,0.03375 -0.10417,0.03375c-0.36733,-0.1519 -0.73554,-0.30021 -1.10464,-0.44609c-0.00527,0.04606 -0.06207,0.05317 -0.06207,0.05317l-0.03193,0.004c-0.13842,0.01723 -0.26833,0.02161 -0.4094,0.02316c0,0 -0.08093,0.00089 -0.09077,-0.07189c-0.00984,-0.07278 0.07108,-0.07367 0.07108,-0.07367c0.11111,-0.00122 0.21441,-0.00394 0.32134,-0.01425c-0.43848,-0.17215 -0.87821,-0.34117 -1.31915,-0.50897l-0.00086,-0.00033c0,0 -0.07766,-0.02955 -0.05284,-0.09607z" fill-opacity="0.57255" fill="#611111" stroke-width="0.5"/><path d="M359.52609,191.10236l0.08541,-0.00288c0.05095,0.0003 0.10265,-0.01343 0.14563,-0.03722c-0.01891,-0.0389 0.0127,-0.07165 0.0127,-0.07165c0.13297,-0.13588 0.13001,-0.22493 0.32622,-0.30284l-0.02093,-0.00757c0,0 0.02739,-0.0655 0.10417,-0.03375c0.07678,0.03175 0.0494,0.09725 0.0494,0.09725l-0.05745,0.07977c-0.12798,0.04079 -0.15608,0.11577 -0.21903,0.20318c0.03736,0.04515 -0.00282,0.0868 -0.00282,0.0868c-0.0775,0.07509 -0.19492,0.12424 -0.31415,0.13153l-0.08541,0.00287c0,0 -0.00586,0.0002 -0.01463,-0.00094c-0.03255,0.04163 -0.09407,0.01619 -0.09407,0.01619l-0.1352,-0.05796c-0.03393,0.00102 -0.06785,0.00206 -0.10178,0.00308c0,0 -0.08093,0.00089 -0.09077,-0.07189c-0.00984,-0.07278 0.07108,-0.07367 0.07108,-0.07367c0.0465,0.00014 0.09299,0.00027 0.1395,0.00041l0.14893,0.0598c0.0207,-0.0194 0.0532,-0.0205 0.0532,-0.0205z" fill-opacity="0.57255" fill="#611111" stroke-width="0.5"/><path d="M360.41222,190.9111c-0.01695,-0.07242 0.0628,-0.07973 0.0628,-0.07973l0.11002,-0.01009c0.1253,-0.01143 0.21346,-0.01835 0.30009,-0.03853c-0.10899,-0.009 -0.23216,-0.01918 -0.30056,-0.02483c0,0 -0.08151,-0.00673 -0.08283,-0.07921c-0.00132,-0.07248 0.08019,-0.06575 0.08019,-0.06575c0.10868,0.00897 0.21737,0.01795 0.32605,0.02693l0.13824,0.01142c0,0 0.05353,0.00442 0.07453,0.04467c0.0228,-0.00574 0.06562,-0.00854 0.09715,0.03679c0.045,0.0647 -0.02299,0.09805 -0.02299,0.09805c-0.20344,0.0998 -0.3382,0.11339 -0.57599,0.1353l-0.11002,0.01009c0,0 -0.07974,0.00731 -0.09669,-0.06511z" fill-opacity="0.57255" fill="#611111" stroke-width="0.5"/><path d="M351.70776,189.87261c0.03797,-0.06035 0.11011,-0.01966 0.11011,-0.01966l0.05151,0.02907c0.18001,0.10155 0.35576,0.20492 0.5302,0.31464c0,0 0.06992,0.04398 0.02801,0.10198c-0.04191,0.058 -0.11184,0.01402 -0.11184,0.01402c-0.17187,-0.1081 -0.34495,-0.20988 -0.52232,-0.30994l-0.05151,-0.02906c0,0 -0.07214,-0.0407 -0.03417,-0.10105z" fill-opacity="0.57255" fill="#611111" stroke-width="0.5"/><path d="M353.87773,189.9132c-0.03493,-0.06877 0.03872,-0.09263 0.03872,-0.09263l0.13889,-0.04499c0,0 0.07366,-0.02386 0.10859,0.0449c0.03493,0.06877 -0.03873,0.09263 -0.03873,0.09263l-0.03532,0.01145c0.00132,0.00014 0.00205,0.00026 0.00205,0.00026l0.06943,0.0107c0.26612,0.041 0.47255,0.05681 0.72416,0.16085c0,0 0.07678,0.03175 0.0494,0.09725c-0.00839,0.02008 -0.02142,0.03101 -0.03547,0.03653c0.00492,0.01215 0.00632,0.02681 0.00125,0.0443c-0.01981,0.06827 -0.09889,0.04303 -0.09889,0.04303l-0.05559,-0.01973c-0.08584,-0.0097 -0.17106,-0.02279 -0.25565,-0.03901c0.40889,0.13081 0.81779,0.26162 1.22668,0.39243l0.06035,0.01931c0,0 0.07907,0.0253 0.05921,0.09354c-0.01986,0.06825 -0.09894,0.04296 -0.09894,0.04296c-0.52711,-0.16863 -1.11456,-0.35657 -1.64167,-0.5252c0,0 -0.00139,-0.00044 -0.00376,-0.00138c-0.00241,-0.00081 -0.00376,-0.00138 -0.00376,-0.00138l-0.04088,-0.01757c-0.30922,-0.08909 -0.61622,-0.15194 -0.91706,-0.27612c-0.70623,-0.29203 -1.34445,-0.55771 -2.04787,-0.59302c0.04138,0.05556 0.08113,0.11249 0.11918,0.17084c0,0 0.04285,0.06571 -0.0265,0.09702c-0.06935,0.03131 -0.1122,-0.0344 -0.1122,-0.0344c-0.05348,-0.08202 -0.11048,-0.16104 -0.17072,-0.23727c-0.11593,0.00121 -0.23387,0.00894 -0.3544,0.02406c0,0 -0.07908,0.00991 -0.09889,-0.06219c-0.01981,-0.07211 0.05927,-0.08203 0.05927,-0.08203c0.09286,-0.01164 0.18426,-0.01911 0.27444,-0.02278c-0.33376,-0.37749 -0.75061,-0.68285 -1.21417,-0.94283l-0.09201,-0.03731c0,0 -0.07678,-0.03175 -0.0494,-0.09725c0.02739,-0.0655 0.10417,-0.03375 0.10417,-0.03375l0.11275,0.04736c0.51431,0.28844 0.97304,0.63194 1.33111,1.06163c0.76794,0.01409 1.45707,0.29541 2.22,0.61089c0.09536,0.03951 0.19144,0.0726 0.28806,0.10223c0.0007,-0.00257 0.00156,-0.00513 0.00261,-0.00764c0.01512,-0.03617 0.06177,-0.05128 0.10417,-0.03375c0.03865,0.01598 0.06045,0.05356 0.05256,0.08748c0.03366,0.00926 0.06738,0.0183 0.10114,0.02724c-0.00613,-0.0025 -0.01226,-0.00502 -0.01838,-0.00755c0,0 -0.07678,-0.03175 -0.0494,-0.09725c0.02739,-0.0655 0.10417,-0.03375 0.10417,-0.03375c0.04326,0.01788 0.08673,0.03512 0.1304,0.05164c-0.00858,-0.00716 -0.01653,-0.01682 -0.0231,-0.02978zM353.98632,189.95811c0,0 -0.01476,0.00478 -0.03421,0.0039c0.0178,0.00648 0.03563,0.01283 0.05349,0.01905c0.00151,-0.01436 0.0062,-0.02517 0.01265,-0.03329z" fill-opacity="0.57255" fill="#611111" stroke-width="0.5"/><path d="M348.57656,188.02533c0.01512,-0.03617 0.06177,-0.05128 0.10417,-0.03375c0.04241,0.01754 0.06452,0.06108 0.0494,0.09725c-0.01512,0.03617 -0.06177,0.05129 -0.10417,0.03375c-0.04241,-0.01754 -0.06452,-0.06108 -0.0494,-0.09725z" fill-opacity="0.57255" fill="#611111" stroke-width="0.5"/><path d="M356.75107,191.41414c0.0198,0.07211 -0.05927,0.08203 -0.05927,0.08203l-0.03192,0.004c-0.41501,0.05166 -0.80869,-0.1571 -1.20993,-0.29989c0,0 -0.07826,-0.02785 -0.05543,-0.0951c0.02283,-0.06725 0.10109,-0.0394 0.10109,-0.0394c0.31614,0.1125 0.63965,0.28126 0.96483,0.29614c-0.05616,-0.07566 -0.10568,-0.15519 -0.14741,-0.23684c0,0 -0.02779,-0.0547 0.01847,-0.08346c-0.09098,-0.08009 -0.18195,-0.16018 -0.27293,-0.24026l-0.04406,-0.03878c0,0 -0.06112,-0.05381 -0.00717,-0.10283c0.05395,-0.04902 0.11506,0.00478 0.11506,0.00478c0.57048,0.5022 1.18501,1.04317 1.75549,1.54537c0,0 0.06113,0.05381 0.00718,0.10282c-0.05395,0.04902 -0.11507,-0.00478 -0.11507,-0.00478c-0.34007,-0.29937 -0.68014,-0.59873 -1.02022,-0.89809c0.00044,0.0014 0.00089,0.00284 0.00128,0.00431zM356.65219,191.35194c0,0 0.01535,-0.00192 0.03422,0.00209c-0.04339,-0.03819 -0.08677,-0.07639 -0.13016,-0.11457c0.02015,0.02948 0.04147,0.05838 0.06388,0.08657l0.01438,0.0182c0,0 0.00272,0.00344 0.00604,0.00918z" fill-opacity="0.57255" fill="#611111" stroke-width="0.5"/><path d="M358.73734,191.15133c-0.02739,0.0655 -0.10417,0.03375 -0.10417,0.03375l-0.10329,-0.04272c-0.09382,-0.04172 -0.18001,-0.10003 -0.25967,-0.16253c0,0 -0.06418,-0.05084 -0.01392,-0.10294c0.05026,-0.0521 0.11444,-0.00127 0.11444,-0.00127c0.06582,0.0527 0.13706,0.10275 0.21573,0.13649l0.10147,0.04195c0,0 0.07678,0.03175 0.0494,0.09725z" fill-opacity="0.57255" fill="#611111" stroke-width="0.5"/><path d="M358.91131,191.81225c-0.07678,-0.03175 -0.0494,-0.09725 -0.0494,-0.09725l0.05477,-0.131c0.05819,-0.13918 0.1303,-0.19014 0.04681,-0.33605c0,0 -0.03493,-0.06876 0.03873,-0.09263c0.07366,-0.02386 0.10859,0.0449 0.10859,0.0449c0.09393,0.20132 0.03592,0.26438 -0.04055,0.44728l-0.05477,0.131c0,0 -0.02739,0.0655 -0.10418,0.03375z" fill-opacity="0.57255" fill="#611111" stroke-width="0.5"/><path d="M360.12577,191.60985c0.04944,0.06232 -0.01538,0.09993 -0.01538,0.09993l-0.03295,0.01911c-0.30565,0.17542 -0.41907,0.33715 -0.81917,0.36955c0,0 -0.07993,0.00647 -0.09596,-0.06602c-0.01602,-0.0725 0.06391,-0.07897 0.06391,-0.07897c0.37235,-0.03015 0.46425,-0.18057 0.75234,-0.34921l0.03295,-0.01911c0,0 0.06482,-0.0376 0.11426,0.02473z" fill-opacity="0.57255" fill="#611111" stroke-width="0.5"/><path d="M360.92006,191.11246c0.0601,0.05472 0.00501,0.10272 0.00501,0.10272l-0.04186,0.03647c-0.19878,0.17307 -0.32093,0.40132 -0.61237,0.44408c0,0 -0.07908,0.00991 -0.09889,-0.06219c-0.0198,-0.07211 0.05927,-0.08203 0.05927,-0.08203c0.2376,-0.02288 0.36941,-0.26769 0.53179,-0.40929l0.04186,-0.03648c0,0 0.05508,-0.048 0.11518,0.00672z" fill-opacity="0.57255" fill="#611111" stroke-width="0.5"/><path d="M363.12002,189.30978c0.05643,0.05769 -0.0024,0.10208 -0.0024,0.10208l-0.07745,0.05843l-0.02851,0.05141c-0.24282,0.18127 -0.48285,0.43855 -0.63832,0.68566c0,0 -0.02995,0.04761 -0.0872,0.02974c0.02344,0.01512 0.03451,0.03784 0.03451,0.03784l0.0312,0.06401c0.09148,0.19311 0.08636,0.28625 0.01181,0.46813c0,0 -0.0243,0.05812 -0.0913,0.03832c0.01375,0.00791 0.02664,0.02085 0.03553,0.04161c0.03004,0.07018 -0.04576,0.08949 -0.04576,0.08949l-0.1164,0.02953c-0.26384,0.03766 -0.52777,0.07506 -0.79168,0.11253c0,0 -0.07872,0.01117 -0.09991,-0.06075c-0.02119,-0.07193 0.05753,-0.0831 0.05753,-0.0831c0.2609,-0.03705 0.52178,-0.07417 0.78274,-0.11102l0.10765,-0.02756c0,0 0.02277,-0.0058 0.04829,0.00051c-0.0654,-0.03296 -0.04027,-0.09308 -0.04027,-0.09308c0.06341,-0.14821 0.07258,-0.20215 -0.00668,-0.35919l-0.03119,-0.06401c0,0 -0.03371,-0.06915 0.04052,-0.09187c0.01926,-0.00589 0.0358,-0.00561 0.04973,-0.00194c-0.07107,-0.04069 -0.03339,-0.1006 -0.03339,-0.1006c0.1615,-0.25669 0.41052,-0.52063 0.66114,-0.71307c0.0003,-0.0163 0.008,-0.02957 0.01508,-0.03836c0.00488,-0.00638 0.01198,-0.01372 0.02167,-0.01935l0.07782,-0.05871c0,0 0.05883,-0.04439 0.11527,0.01331z" fill-opacity="0.57255" fill="#611111" stroke-width="0.5"/><path d="M363.48879,189.12127c0.01512,-0.03617 0.06177,-0.05128 0.10417,-0.03375c0.04241,0.01754 0.06452,0.06108 0.0494,0.09725c-0.01512,0.03617 -0.06177,0.05129 -0.10417,0.03375c-0.04241,-0.01754 -0.06452,-0.06108 -0.0494,-0.09725z" fill-opacity="0.57255" fill="#611111" stroke-width="0.5"/><path d="M340.83118,177.56742c-0.08093,0.00089 -0.09077,-0.07189 -0.09077,-0.07189l-0.00966,-0.07143c-0.02703,-0.2217 0.02342,-0.45658 -0.08581,-0.66509c0,0 -0.03493,-0.06877 0.03873,-0.09264c0.07366,-0.02386 0.1086,0.0449 0.1086,0.0449c0.16639,0.34101 0.04864,0.37111 0.10034,0.71104l0.00966,0.07144c0,0 0.00985,0.07278 -0.07108,0.07367z" fill-opacity="0.57255" fill="#611111" stroke-width="0.5"/><path d="M340.46566,179.06329c-0.07678,-0.03175 -0.0494,-0.09725 -0.0494,-0.09725l0.03652,-0.08733c0.13089,-0.28968 0.29134,-0.6383 0.34659,-0.96837c0,0 0.01179,-0.07045 0.09246,-0.05216c0.08066,0.01829 0.06887,0.08874 0.06887,0.08874c-0.05852,0.34951 -0.22995,0.68014 -0.35436,0.99529l-0.03652,0.08733c0,0 -0.02739,0.0655 -0.10417,0.03375z" fill-opacity="0.57255" fill="#611111" stroke-width="0.5"/><path d="M340.81862,179.43971c-0.02739,0.0655 -0.10417,0.03375 -0.10417,0.03375l-0.0994,-0.0669c-0.03517,-0.0811 -0.061,-0.16459 -0.08403,-0.24802c0,0 -0.01981,-0.07212 0.05927,-0.08203c0.07908,-0.00991 0.09889,0.06219 0.09889,0.06219c0.02099,0.07682 0.0444,0.15375 0.07705,0.22832l0.00299,-0.02457c0,0 0.07678,0.03175 0.0494,0.09725z" fill-opacity="0.57255" fill="#611111" stroke-width="0.5"/><path d="M341.16799,179.9683c-0.07678,-0.03175 -0.0494,-0.09725 -0.0494,-0.09725l0.01412,-0.01102c-0.00489,-0.03617 -0.00978,-0.07234 -0.01467,-0.1085c0,0 -0.00984,-0.07278 0.07108,-0.07368c0.08093,-0.00089 0.09077,0.0719 0.09077,0.0719c0.00489,0.03617 0.00978,0.07233 0.01468,0.1085l-0.0224,0.07631c0,0 -0.02739,0.0655 -0.10417,0.03375z" fill-opacity="0.57255" fill="#611111" stroke-width="0.5"/><path d="M338.91243,176.24435c0.01512,-0.03617 0.06177,-0.05129 0.10417,-0.03375c0.04241,0.01754 0.06453,0.06108 0.0494,0.09725c-0.01512,0.03617 -0.06177,0.05128 -0.10418,0.03375c-0.04241,-0.01754 -0.06452,-0.06108 -0.0494,-0.09725z" fill-opacity="0.57255" fill="#611111" stroke-width="0.5"/><path d="M338.66899,175.8845c0.07366,-0.02386 0.10859,0.04491 0.10859,0.04491l0.06586,0.12967c0,0 0.03493,0.06876 -0.03873,0.09264c-0.07366,0.02386 -0.10858,-0.0449 -0.10858,-0.0449l-0.06586,-0.12967c0,0 -0.03493,-0.06877 0.03873,-0.09264z" fill-opacity="0.57255" fill="#611111" stroke-width="0.5"/><path d="M338.33966,175.23616c0.07366,-0.02386 0.10859,0.0449 0.10859,0.0449l0.07363,0.15781c-0.02349,0.04962 -0.0433,0.12953 0.00677,0.16835c0,0 0.05643,0.05769 -0.0024,0.10208c-0.05883,0.04438 -0.11527,-0.01331 -0.11527,-0.01331c-0.06332,-0.07414 -0.0821,-0.18452 -0.05193,-0.26565l-0.05811,-0.10154c0,0 -0.03493,-0.06876 0.03873,-0.09264z" fill-opacity="0.57255" fill="#611111" stroke-width="0.5"/><path d="M339.57209,169.17578c0.04324,-0.03878 0.08631,-0.0765 0.12888,-0.11314c0,0 0.05542,-0.04769 0.11521,0.00729c0.05979,0.05499 0.00437,0.10268 0.00437,0.10268c-0.05837,0.05024 -0.11836,0.10297 -0.17887,0.15803l-0.01605,0.03839c-0.23624,0.56501 -0.34511,1.28639 -0.88823,1.67219l0.01398,0.01429l-0.11639,0.08781c-0.02157,0.01706 -0.05444,0.02145 -0.0851,0.00877c-0.03093,-0.01279 -0.05106,-0.0394 -0.05383,-0.0669l-0.0143,-0.11471h0.00133l-0.00176,-0.00481c0.01936,-0.66796 0.51816,-1.26311 1.01691,-1.72278l0.01032,-0.02469c0,0 0.01744,-0.04172 0.06352,-0.04243z" fill-opacity="0.57255" fill="#611111" stroke-width="0.5"/><g stroke-width="0.5"><path d="M364.03293,185.20004l-0.05599,0.02814c-0.39333,-0.05582 -0.22717,-0.51159 -0.05454,-0.77831l-0.016,-0.00661l0.03651,-0.08733c0.01512,-0.03617 0.06177,-0.05128 0.10418,-0.03375c0.02707,0.0112 0.04588,0.03299 0.052,0.0567l0.02317,0.08435c0.41189,0.10667 0.32181,-0.21152 0.64392,-0.31587c0.70905,0.26222 0.00161,1.18101 -0.73324,1.05269z" fill="#a9a9a9"/><path d="M363.89013,184.48855c-0.0727,-0.08245 -0.09406,-0.12764 -0.04598,-0.15161c-0.09664,-0.27158 0.57725,-0.54288 0.87631,-0.3233c0.14706,0.10797 0.028,0.29509 0.05978,0.38472c0.05756,0.24779 -0.16498,0.35341 -0.66395,0.15279c0.00129,0.0049 0.00116,0.00954 -0.00058,0.01372c-0.00822,0.01967 -0.04926,0.02139 -0.09167,0.00385c-0.00912,-0.00377 -0.01756,-0.00813 -0.02511,-0.01283l-0.09418,-0.05719l0.00325,-0.00201z" fill="#888888"/></g><g stroke-width="0.5"><path d="M362.82971,186.65421l-0.07762,-0.02236c-0.71777,-0.17569 0.34527,-1.28834 0.54867,-1.49991c0.23372,-0.05259 0.39483,0.4037 0.3143,0.65132c-0.09579,0.29457 -0.47681,0.66454 -0.64512,0.95898c0,0 -0.03595,0.06146 -0.10912,0.02245c-0.07317,-0.039 -0.03722,-0.10047 -0.03722,-0.10047c0.00201,-0.00333 0.00404,-0.00667 0.00609,-0.01003z" fill="#a9a9a9"/><path d="M363.41497,185.3954c-0.03179,0.00479 -0.06278,0.0227 -0.10874,0.04339l0.01958,0.02158l-0.11639,0.0547c-0.02175,0.01087 -0.05388,0.00926 -0.08309,-0.00631c-0.04041,-0.02154 -0.05991,-0.06167 -0.04356,-0.08961l0.05921,-0.10121c0.04066,-0.06923 0.09386,-0.13134 0.1516,-0.17106c-0.00013,-0.01494 0.00592,-0.02528 0.00592,-0.02528c0.04386,-0.07497 0.08772,-0.14995 0.13159,-0.22492c0.08448,-0.1444 0.42732,-0.37393 0.51638,0.00433c0.04845,0.20576 -0.24544,0.72098 -0.38345,0.65789c-0.01113,-0.00198 -0.02255,-0.00587 -0.03356,-0.01174c-0.0202,-0.01077 -0.03518,-0.02619 -0.04306,-0.0424l-0.02931,-0.0603c-0.01504,-0.01659 -0.02937,-0.03271 -0.04312,-0.04906zM363.43973,185.21946c-0.00247,-0.0023 -0.00493,-0.00419 -0.00738,-0.0057c-0.00961,0.00717 -0.02463,0.01396 -0.04591,0.01181c-0.00595,0.00612 -0.01186,0.01373 -0.01775,0.02241z" fill="#888888"/></g><g stroke-width="0.5"><path d="M362.87384,186.09907c-0.00983,0.02351 -0.02602,0.03449 -0.04274,0.0389c0.02126,0.10729 -0.00397,0.26151 -0.09253,0.47329c-0.00921,0.39115 -1.09936,1.50099 -1.57024,1.17722c0,0 -0.06418,-0.05083 -0.01392,-0.10293c0.00194,-0.00201 0.00389,-0.00386 0.00586,-0.00557c-0.0025,-0.01614 0.00267,-0.02988 0.00906,-0.04007c0.00513,-0.0091 0.01244,-0.0166 0.02118,-0.02225l0.04305,-0.03029c0.18469,-0.22801 0.27537,-0.47356 0.38795,-0.74283c0.07134,-0.17064 0.01388,-0.57777 0.12714,-0.64279c0.21868,-0.12555 0.45355,-0.22244 0.64902,-0.25553c0.01111,-0.05714 0.08177,-0.04898 0.08177,-0.04898c0.08214,0.01008 0.16498,0.03081 0.24262,0.06224l0.10238,0.04233c0,0 0.07678,0.03175 0.0494,0.09725z" fill="#bfbfbf"/><path d="M361.76667,186.18078c0.00616,0.0014 0.01269,0.00348 0.01964,0.00635c0.07678,0.03175 0.0494,0.09725 0.0494,0.09725l-0.02435,0.05822c-0.18801,0.44968 -0.24601,1.75215 -1.06506,1.36867c-0.10485,-0.3371 0.52831,-1.70512 1.00587,-1.53825c0,0 0.00622,0.00257 0.01449,0.00776z" fill="#888888"/></g><path d="M360.94401,186.8983c-0.00766,-0.00554 -0.01208,-0.01005 -0.01208,-0.01005l-0.07404,-0.13347c0.09166,-0.21923 0.4053,-0.45609 0.61916,-0.65189c0.2841,0.01844 1.30202,-0.47191 1.50255,-0.12985c0.11734,0.20015 -0.23839,0.63048 -0.30654,0.79346c-0.31831,0.33171 -1.65911,0.89321 -1.72906,0.1318z" fill-opacity="0.8" fill="#611111" stroke-width="0.5"/><path d="M362.87051,185.68565c-0.01654,0.01 -0.04089,0.01507 -0.07498,0.00097c-0.07678,-0.03175 -0.0494,-0.09725 -0.0494,-0.09725l0.03695,-0.07731c0.22914,-0.23751 0.57324,-0.88469 0.9827,-0.84022c0.5693,0.23542 -0.12703,1.58618 -0.89525,1.0138z" fill-opacity="0.8" fill="#611111" stroke-width="0.5"/><path d="M363.75945,184.50605c0.00868,-0.02078 0.02234,-0.03177 0.03694,-0.03709c-0.06542,-0.12877 -0.11705,-0.33104 -0.0452,-0.40545c0.37997,-0.39345 1.48298,-0.16473 1.20735,0.4945c-0.23605,0.5489 -0.51721,0.31114 -1.02162,0.09836l-0.10613,-0.00985c0,0 -0.07679,-0.03175 -0.0494,-0.09725c0.00905,-0.02165 0.02351,-0.03267 0.03879,-0.03773c-0.008,-0.01292 -0.016,-0.02723 -0.0238,-0.04258c0.03143,-0.01147 0.06723,0.00334 0.06723,0.00334l0.08727,0.03609c0.01733,0.04836 0.04388,0.10061 0.08108,0.1568l-0.09505,-0.00882c-0.0085,-0.00359 -0.01707,-0.00716 -0.0257,-0.01073l-0.10239,-0.04233c0,0 -0.07678,-0.03175 -0.0494,-0.09725z" fill-opacity="0.8" fill="#611111" stroke-width="0.5"/></g><g><path d="M373.41362,165.11533c-0.72544,3.20575 -5.76451,4.80341 -11.2551,3.56847c-5.49059,-1.23495 -9.35351,-4.83485 -8.62809,-8.0406c0.4658,-2.05842 -3.69937,-5.46546 -3.16902,-7.94179c0.29561,-1.38028 4.08956,-3.07634 6.05464,-2.63435c5.49059,1.23495 17.72301,11.84253 16.99758,15.04829z" fill="#000000" stroke-width="0"/><path d="M352.91846,151.03179c-1.14799,0.58243 -1.70889,1.99901 -2.30844,1.86416c-0.30667,-0.06897 -0.69238,-0.19532 -0.62327,-0.49837c0.24126,-1.05795 2.65605,-3.17765 3.72662,-2.93686c1.37723,0.30977 3.14138,-0.93079 2.89561,0.15529c-0.13878,0.61329 -2.20144,0.66028 -3.69053,1.41577z" fill="#834707" stroke-width="0"/><g stroke-width="0"><g><path d="M356.44869,153.36919l-3.80638,-5.04333l1.21485,-0.71006l3.80637,5.04334z" fill="url(#color-9)"/><path d="M352.62104,154.30397l-2.03753,-5.62467l1.48938,-0.42078l2.03753,5.62467z" fill="url(#color-10)"/><path d="M352.12436,151.88672l-0.75817,-0.93963l4.02843,-1.23349l0.75816,0.93963z" fill="url(#color-11)"/><path d="M346.30775,142.13686l6.61113,-1.08644l0.3706,0.53927l-6.7232,1.38829z" fill="url(#color-12)"/><path d="M347.23489,143.48694l5.8713,-1.25166l0.33716,1.06881l-5.8713,1.25167z" fill="url(#color-13)"/><path d="M347.05189,145.28861l6.72664,-1.64943l0.45572,1.28724l-6.72664,1.64944z" fill="url(#color-14)"/><path d="M347.47202,147.37502l6.9597,-2.25843l0.92564,0.88446l-6.9597,2.25844z" fill="url(#color-15)"/><path d="M348.53583,148.5892l5.84342,-1.26973l1.01441,0.35848l-5.84343,1.26972z" fill="url(#color-16)"/><path d="M350.63231,148.67252c0.46085,0.51438 -0.03828,0.98686 -0.25395,1.01062c-0.47494,0.05232 -3.51471,-0.82613 -4.0672,-3.72777c-0.55249,-2.90165 0.26006,-4.30028 0.735,-4.3526c0.47494,-0.05232 0.59924,1.17803 1.15174,4.07968c0.30164,1.5841 1.88032,2.37165 2.4344,2.99009z" fill="url(#color-17)"/><path d="M354.56496,142.59235c2.1704,2.27131 0.93265,4.8163 0.57364,5.0889c-0.16301,0.12377 -0.90504,0.13484 -1.05038,-0.50244c-0.17476,-0.76622 0.17862,-2.30652 -1.00625,-3.54649c-2.17039,-2.2713 -3.16322,-3.16329 -2.80421,-3.43587c0.35901,-0.27259 2.11681,0.1246 4.2872,2.3959z" fill="url(#color-18)"/></g><path d="M347.49808,140.13231c2.27555,-0.87275 7.07156,-0.94864 8.68216,3.67532c1.09412,3.14115 0.02979,5.46566 -2.8439,6.74389c-2.8048,1.24758 -6.25187,0.29546 -7.87272,-1.94615c0,0 -1.07481,-2.47752 -0.79549,-4.62355c0.24542,-1.88556 1.7657,-3.44134 2.82997,-3.84952z" fill="url(#color-19)"/><path d="M348.56641,148.04212c-2.18107,-3.01637 -0.71398,-5.44003 0.96706,-6.08476c1.68103,-0.64472 4.33828,-0.43062 5.5281,2.98528c0.41771,1.19921 0.41143,1.6742 0.15259,2.2489c-0.24202,0.53734 -0.68691,1.19637 -1.71271,1.65266c-2.072,0.92163 -3.73765,0.85389 -4.93503,-0.80208z" fill="url(#color-20)"/></g><g stroke-width="0"><g><path d="M368.01838,153.4262l5.12183,-2.58911l0.70213,1.05941l-5.12184,2.5891z" fill="url(#color-21)"/><path d="M370.41471,155.83153l3.91759,-3.76376l1.0416,0.9332l-3.91759,3.76376z" fill="url(#color-22)"/><path d="M370.05291,152.39516l0.99408,-0.46294l2.77894,2.60164l-0.99409,0.46294z" fill="url(#color-23)"/><path d="M380.93167,149.96063l-4.90738,-3.79704l0.51807,-0.2913l4.93761,3.50718z" fill="url(#color-24)"/><path d="M379.47976,150.84406l-4.26976,-3.34786l0.70377,-0.73505l4.26976,3.34785z" fill="url(#color-25)"/><path d="M378.72002,152.51184l-4.80518,-4.01071l0.88796,-0.86555l4.80518,4.0107z" fill="url(#color-26)"/><path d="M377.31963,153.52726l-4.74981,-4.59829l1.10805,-0.35161l4.74982,4.59828z" fill="url(#color-27)"/><path d="M376.10598,153.62924l-4.23984,-3.35148l0.96876,0.11121l4.23984,3.35148z" fill="url(#color-28)"/><path d="M375.33695,152.97608c0.69906,-0.28283 2.29902,-0.29647 3.18107,-1.46451c1.61565,-2.13956 2.21133,-3.09041 2.57639,-2.85936c0.36506,0.23105 0.46333,1.69054 -1.15233,3.83009c-1.61565,2.13955 -4.43992,1.64719 -4.80498,1.41614c-0.16576,-0.10491 -0.38158,-0.68711 0.19985,-0.92236z" fill="url(#color-29)"/><path d="M374.58433,146.47245c2.67748,-0.98497 4.26613,-0.61019 4.4484,-0.24609c0.18226,0.36408 -0.98343,0.69515 -3.66091,1.68011c-1.46171,0.53772 -1.79366,1.93014 -2.24377,2.48366c-0.37436,0.46039 -0.97312,0.15687 -1.05588,-0.00845c-0.18226,-0.36409 -0.16532,-2.92426 2.51216,-3.90924z" fill="url(#color-30)"/></g><path d="M381.3182,147.27747c0.70109,0.75423 1.31151,2.62238 0.75298,4.25262c-0.63568,1.85543 -2.50543,3.44289 -2.50543,3.44289c-2.21881,1.17895 -5.40381,0.5848 -7.18236,-1.54263c-1.82223,-2.1797 -1.75297,-4.4918 0.39927,-6.61106c3.16823,-3.11971 7.03654,-1.15446 8.53553,0.4582z" fill="url(#color-31)"/><path d="M378.43594,153.78037c-1.63912,0.87094 -3.0204,0.26491 -4.33428,-1.3067c-1.34616,-1.61023 -1.28972,-2.22532 0.30023,-3.79091c2.34049,-2.30465 4.58672,-1.42403 5.6941,-0.2327c1.10737,1.19134 1.32567,3.74389 -1.66004,5.33031z" fill="url(#color-32)"/></g><g><path d="M356.60832,173.57985c1.00809,0.68827 1.18775,0.59516 0.70287,1.33362c-0.48488,0.73846 -0.99017,1.3854 -1.99826,0.69714c-1.00808,-0.68828 -0.89298,-1.65471 -0.40809,-2.39317c0.48488,-0.73845 0.6954,-0.32586 1.70347,0.36241z" fill="url(#color-33)" stroke-width="0"/><path d="M354.64227,173.91113c0.21545,-0.13563 0.57019,-0.09198 0.57019,-0.09198c0.14081,0.26684 0.00871,0.59918 0.07518,0.86377c0.05433,0.21628 0.35408,0.13104 0.53518,0.28259c0.02308,0.01931 0.12076,0.10342 0.11244,0.1914c-0.00699,0.07389 -0.12074,0.15366 -0.10234,0.16901c0.09502,0.05668 0.18987,0.11377 0.28111,0.1774l0.01786,0.00162l0.36564,-0.33016c0.1103,0.07384 0.03208,0.55092 -0.0458,0.67158c-0.0563,0.08721 -0.69888,0.06098 -0.7592,0.0179c-0.40957,-0.10635 -1.06023,-0.83218 -1.17439,-1.04609c0,0 -0.09135,-0.77141 0.1241,-0.90705z" fill-opacity="0.8" fill="#611111" stroke-width="0.5"/></g><path d="M372.68709,177.70296c-0.10242,0.45263 -0.81172,0.42694 -1.49057,0.47282c-0.27676,0.0187 -0.57382,0.22475 -0.8832,0.15516c-1.06823,-0.24027 -1.63884,-0.86091 -1.49466,-1.49808c0.14418,-0.63717 1.12705,-0.95892 2.19528,-0.71865c1.06823,0.24027 1.81732,0.95157 1.67314,1.58874z" fill="#686868" stroke-width="0"/><g><path d="M359.08867,175.05976c1.39915,0.42245 1.57389,0.28728 1.27086,1.12725c-0.30303,0.83997 -0.66124,1.59572 -2.06039,1.17327c-1.39915,-0.42246 -1.60088,-1.39349 -1.29784,-2.23346c0.30304,-0.83996 0.68822,-0.48951 2.08738,-0.06705z" fill="url(#color-34)" stroke-width="0"/><path d="M356.93881,175.86822c0.20123,-0.18547 0.62492,-0.23047 0.62492,-0.23047c0.25448,0.22551 0.2173,0.58227 0.38538,0.82393c0.13739,0.19754 0.45314,0.0404 0.71416,0.1435c0.03326,0.01314 0.17486,0.07107 0.19572,0.15893c0.01751,0.0738 -0.08591,0.17968 -0.05941,0.19011c0.12904,0.03183 0.25804,0.0641 0.38514,0.10363l0.02114,-0.00284l0.30694,-0.41229c0.15258,0.04479 0.22752,0.52943 0.17956,0.66635c-0.03467,0.09897 -0.78386,0.23201 -0.86823,0.20487c-0.50853,-0.00261 -1.50901,-0.54995 -1.71449,-0.7304c0,0 -0.37204,-0.72986 -0.17081,-0.91534z" fill-opacity="0.8" fill="#611111" stroke-width="0.5"/></g><g><path d="M360.83157,176.42907c0.15985,-0.87752 0.4696,-0.95184 2.01214,-0.64884c1.54255,0.303 1.70003,0.15056 1.54017,1.02808c-0.15984,0.87753 -0.39315,1.67469 -1.93568,1.3717c-1.54255,-0.303 -1.77647,-0.87341 -1.61663,-1.75094z" fill="url(#color-35)" stroke-width="0"/><path d="M364.18361,177.64879c-0.0307,0.07698 -0.08145,0.15526 -0.15206,0.229c-0.29872,0.31195 -0.95303,0.54277 -1.95032,0.25065c-0.50487,-0.14789 -0.86764,-0.3026 -1.06579,-0.51273c-0.27787,-0.29467 -0.26912,-0.63631 -0.20007,-0.67679c0.24528,-0.14383 0.82643,0.55468 0.82643,0.55468c0.4299,0.53048 0.66591,-0.22361 1.34742,-0.39642l0.60484,0.56154c0,0 0.68708,-0.25446 0.58956,-0.00993z" fill-opacity="0.8" fill="#611111" stroke-width="0.5"/></g><g><path d="M371.27243,177.13912c0.19857,-0.86527 0.35071,-0.988 1.01201,-0.95599c0.6613,0.032 0.75505,-0.13996 0.55649,0.7253c-0.19856,0.86527 -0.41919,1.66601 -1.0805,1.634c-0.6613,-0.03201 -0.68655,-0.53805 -0.48799,-1.40332z" fill="url(#color-36)" stroke-width="0"/><path d="M371.59882,178.53351c-0.17301,-0.01995 -0.3243,-0.11232 -0.42327,-0.33059l0.00032,-0.03429l-0.00593,0.00616c0,0 -0.02388,-0.74604 0.08478,-0.81715c0.11321,-0.07411 0.02547,0.56417 0.20108,0.56201c0.12146,-0.0015 0.07668,-0.61477 0.22778,-0.67366c0.11988,-0.04673 0.15675,0.41775 0.29485,0.46011c0.13662,0.04191 0.53653,-0.67859 0.66201,-0.72034c0.1191,-0.03963 -0.03286,0.59893 -0.02348,0.65068c0.04951,0.27314 -0.20254,0.64057 -0.47221,0.8094c-0.25674,0.16073 -0.53021,0.13063 -0.54593,0.08768z" fill-opacity="0.8" fill="#611111" stroke-width="0.5"/></g><g><path d="M365.31593,176.97032c0.21824,-0.86456 0.50994,-0.92982 1.90824,-0.58841c1.3983,0.3414 1.55587,0.1947 1.33761,1.05926c-0.21824,0.86456 -0.49776,1.64759 -1.89607,1.30618c-1.3983,-0.34141 -1.56804,-0.91248 -1.3498,-1.77703z" fill="url(#color-37)" stroke-width="0"/><path d="M365.72349,177.66613c0.09263,-0.04851 0.20143,-0.02935 0.20143,-0.02935l0.52317,-0.21135c0.33969,0.24953 1.86633,0.37312 1.78296,0.95445c-0.42291,0.78706 -2.02338,0.38239 -2.48009,0.07039c-0.01968,-0.01201 -0.06907,-0.05656 -0.12913,-0.11429c-0.12559,-0.1207 -0.29785,-0.29901 -0.34286,-0.35807c0,0 -0.16582,-0.21757 0.06319,-0.36565c0.19061,-0.12325 0.33745,0.00681 0.38133,0.05389z" fill-opacity="0.8" fill="#611111" stroke-width="0.5"/></g><g><path d="M371.08527,177.77228c-0.11512,0.88009 -0.40307,1.37158 -1.45071,1.29429c-1.04765,-0.07728 -0.99864,-0.89781 -0.88352,-1.7779c0.11512,-0.8801 0.17695,-0.69626 1.2246,-0.61896c1.04764,0.07728 1.22476,0.22248 1.10964,1.10257z" fill="url(#color-38)" stroke-width="0"/><path d="M368.73893,178.40939c0.00836,-0.12025 0.0576,-0.18576 0.10802,-0.22143c0.10458,-0.18152 0.27516,-0.52941 0.27516,-0.52941l0.16148,0.80614c0.44305,0.00495 0.18144,-0.65274 0.62982,-0.66265l0.39946,0.63588c0.07171,-0.00159 0.59363,-0.75091 0.62632,-0.68302c0.01233,0.01079 -0.0134,0.5538 -0.00367,0.56799c0.03125,0.04552 0.04802,0.10704 0.04328,0.17515c-0.00153,0.02202 -0.45569,0.69896 -1.27562,0.60196c-0.89359,-0.1057 -0.96899,-0.62238 -0.96424,-0.69061z" fill-opacity="0.8" fill="#611111" stroke-width="0.5"/></g><g fill="none" stroke-width="1" font-family="sans-serif" font-weight="normal" font-size="12" text-anchor="start"/><path d="M374.25812,163.56396c-0.12586,0.5562 -0.30605,1.29852 -0.52596,2.02112c-0.20896,0.68661 -0.30084,1.3465 -0.73235,1.78416c-0.66194,0.67137 -0.81302,1.89882 -1.74416,2.34171c-2.85428,1.35764 -7.35847,0.98378 -10.37345,0.30565c-5.3145,-1.19534 -15.38942,-4.03232 -14.39815,-8.41286c0.07636,-0.33745 0.23615,-0.74831 0.2637,-1.26489c0.03793,-0.71107 0.02389,-1.49116 0.25119,-2.40523c0.45628,-1.83489 1.75865,-4.2352 3.1441,-5.79119c0.00103,0.00152 0.00206,0.00304 0.00312,0.00455c0.10892,0.20689 0.36583,0.02425 0.62993,0.08365c0.29468,0.06628 0.11035,1.3937 0.29977,1.21691c0.69117,-0.26513 1.81516,-1.66479 2.52885,-1.862c0.45953,-0.12698 1.11984,-0.40351 1.57858,-0.54198c0.71812,-0.21677 1.47874,-0.94556 0.87566,-1.55488c2.56312,-0.18264 5.15619,0.38143 6.90519,0.77482c2.3788,0.53504 6.44711,1.24599 8.65989,3.50968c2.73081,2.79366 3.18169,7.37097 2.63412,9.79076zM357.0177,164.43785c0.10999,0.02474 0.697,0.52382 1.40173,0.75382c0.86195,0.28131 2.45623,0.39238 3.25773,0.29147c1.2137,-0.15281 1.52079,-1.54345 1.56174,-1.72444c0.02568,-0.11349 0.25785,-0.49147 0.27429,-0.96314c0.01647,-0.47248 -0.18312,-1.03889 -0.55818,-1.42297c-0.56426,-0.57783 -2.33112,-0.67019 -2.52363,-0.71349c-0.10947,-0.02463 -1.22588,-0.11658 -2.04314,0.38116c-0.93187,0.56755 -1.5721,1.74995 -1.59369,2.00943c-0.05184,0.62277 -0.02836,1.33159 0.22315,1.38816zM370.77678,166.99562c0.24858,0.05591 1.38754,-0.54947 1.56429,-1.90791c0.09902,-0.76098 0.10906,-1.09485 0.16658,-1.80405c0.02495,-0.30756 -1.00417,-0.6624 -0.99203,-0.71605c0.04485,-0.19821 -1.31861,-0.8267 -2.30103,-0.59198c-0.42375,0.10124 -1.34532,0.18381 -1.79757,0.66022c-0.60583,0.6382 -0.65651,1.54063 -0.70074,1.7361c0,0 0.30273,1.33102 1.20791,1.92028c1.08553,0.70666 2.80944,0.69367 2.85259,0.70338z" fill="url(#color-39)" stroke-width="0"/><path d="M376.23508,170.98001c-0.29094,1.28572 -0.95994,3.05329 -2.41982,2.72493c-1.45989,-0.32836 -3.80783,-2.12499 -3.51689,-3.4107c0.20281,-0.89623 0.59273,-2.16456 1.42866,-2.89532c0.36329,-0.31758 0.97659,-0.7422 1.41883,-0.64272c0.53601,0.12056 0.85728,0.96854 1.39942,1.53634c0.93443,0.97865 1.87391,1.87383 1.68979,2.68748z" fill="url(#color-40)" stroke-width="0"/><path d="M373.75687,176.11664c-0.61845,2.0869 -11.5688,0.38568 -15.32097,-0.45826c-2.67999,-0.60278 -3.18501,-1.98692 -4.48529,-3.32201c-0.5202,-0.53413 -2.10071,-0.20166 -1.93444,-0.93645c0.00875,-0.03869 1.64595,-3.82455 1.65602,-3.86271c0.65943,-2.49779 6.60417,-1.88408 10.29989,-1.05284c1.72283,0.3875 5.52583,1.46664 8.01511,3.203c2.93218,2.04531 2.17506,5.06138 1.76969,6.42926z" fill="url(#color-41)" stroke-width="0"/><path d="M352.47368,171.8817c-1.1415,-0.25674 -2.63794,-1.04241 -4.44707,-1.58715c-0.82142,-0.24734 -2.06862,-0.04505 -2.74213,-0.42305c-1.5999,-0.89794 -2.35113,-2.5375 -2.18418,-3.27524c0.07885,-0.34844 -0.24857,-1.78994 0.58792,-3.04296c0.39026,-0.58459 1.36141,-1.01045 2.07318,-1.35132c0.54163,-0.25938 0.72409,-0.77578 1.05832,-0.71046c2.30995,0.45144 6.73237,2.41308 8.81674,4.49572c0.27375,0.27352 -0.027,3.34542 -1.4527,4.4376c-0.2619,0.20063 -1.44159,1.51726 -1.71008,1.45687z" fill="url(#color-42)" stroke-width="0"/><path d="M367.98683,170.00051c-0.3154,1.39381 -2.61069,1.42087 -4.99741,0.88405c-2.38673,-0.53683 -4.21165,-2.39991 -3.89624,-3.79372c0.3154,-1.39381 3.98218,-1.07451 6.36891,-0.53768c0.94572,0.21271 4.42897,0.764 6.15133,1.58608c1.62574,0.77597 2.50615,1.99839 2.41331,2.49482c-0.01226,0.06555 0.00058,0.5921 -0.39218,0.9597c-0.40082,0.37514 -1.21497,0.59149 -1.99675,0.66234c-0.68673,0.06223 -2.48237,-0.4619 -3.33509,-1.14987c-0.41154,-0.33203 -0.31031,-1.13036 -0.31589,-1.10572z" fill="url(#color-43)" stroke-width="0"/><path d="M370.8995,169.048c-0.05753,0.25425 -1.13986,0.21842 -1.70613,0.50111c-0.59944,0.29924 -0.69773,0.90674 -1.26405,0.77936c-0.44691,-0.10052 -0.31423,-0.97343 -0.90676,-1.29002c-0.86763,-0.46359 -1.96304,-0.45754 -1.89267,-0.76855c0.03698,-0.16343 -0.23649,-1.34014 0.11653,-1.58181c0.77752,-0.53226 2.15218,-0.11624 2.9096,0.05411c0.63607,0.14307 1.88196,0.50002 2.46884,1.05891c0.42927,0.40879 0.32467,1.02577 0.27463,1.24687z" fill="url(#color-44)" stroke-width="0"/><path d="M367.06438,176.93029c-0.08115,-0.01825 -0.06485,-0.09036 -0.06485,-0.09036c0.11966,-0.52878 0.24398,-1.07816 0.36364,-1.60694c0.20388,-0.901 0.30746,-1.7365 0.2614,-2.65988c0.15256,-0.68682 -0.26033,-1.74857 0.24249,-2.32684c0,0 0.05089,-0.05633 0.11618,-0.00776c0.06529,0.04857 0.01441,0.1049 0.01441,0.1049c-0.47921,0.50233 -0.06414,1.62559 -0.20799,2.2483c0.05027,0.92778 -0.05947,1.77318 -0.26417,2.67778c-0.11966,0.52878 -0.23931,1.05756 -0.35897,1.58633l-0.00466,0.02059c0,0 -0.01632,0.07211 -0.09747,0.05385z" fill-opacity="0.57255" fill="#542d03" stroke-width="0.5"/><path d="M350.38774,167.75973c0.30389,0.18868 0.77809,0.36204 0.97677,0.65677c0.47274,0.70125 0.37078,0.89781 1.40064,0.95125c0.4101,-0.08432 0.41595,-0.54155 0.8182,-0.62258c0.494,-0.09951 1.03322,0.66194 0.89342,1.03939c0.15697,0.10497 0.13758,0.36429 0.35682,0.45048c0.66684,0.26217 1.25995,0.76255 1.84482,1.24574c0.63391,0.52549 1.57072,1.70315 2.59846,1.4772c0.66714,-0.12673 1.342,-0.40575 2.08293,-0.34411c0.39988,0.03327 0.58554,0.17782 1.02163,0.09376c0.97513,0.10936 2.14473,-0.07961 3.12244,-0.21071c0.33492,0.05593 0.69688,0.41827 1.08021,0.53083c0.58633,0.17215 1.29843,-0.00204 1.87535,-0.13037c0.70219,-0.18351 1.18356,-0.01981 1.87986,0.01626c0.40719,0.0211 0.78786,-0.27141 1.17556,-0.18938c0.54348,-0.10738 1.15232,0.15466 1.73127,-0.00355c0.45502,-0.12435 0.07377,-0.55871 0.45077,-0.58749c0.05012,-0.71384 0.56849,-0.69603 0.83372,-1.20137c0.19228,-0.36635 -0.00993,-0.84603 0.27055,-1.16707c0.13683,-0.13892 0.92935,-0.24953 1.06296,-0.01946c0.09651,0.1662 0.31832,0.53792 0.36627,0.88327c0.02481,0.17871 -0.00305,0.78431 -0.20102,1.33277c-0.18387,0.50937 -0.5336,0.96516 -0.64213,1.09236c-0.22501,0.26372 -0.50118,0.44862 -0.63141,0.48398c-0.03477,0.01921 -0.20075,0.15751 -0.33995,0.18371c-0.11913,0.02243 -0.20991,-0.07583 -0.2795,0.02952c-0.1316,0.19923 -0.01633,0.68016 -0.01614,0.72344c0.00158,0.34985 -0.096,0.69399 -0.17483,1.04235c-0.04614,0.20392 -0.12747,0.57732 -0.32799,0.81828c-0.19154,0.23018 -0.49387,0.32958 -0.89385,0.45969c-1.32322,0.43042 -3.43715,0.38881 -4.10049,0.31513c-0.45023,-0.05485 -1.98564,-0.16351 -3.61214,-0.36666c-2.40561,-0.30046 -5.22534,-0.75309 -6.77583,-1.10071c-0.52012,-0.11661 -1.26586,-0.37702 -1.88981,-0.79485c-0.3182,-0.21308 -0.57032,-0.53945 -0.8156,-0.7594c-0.10402,-0.09327 -0.39303,-0.34837 -0.68923,-0.70158c-0.30867,-0.36806 -0.63233,-0.83869 -1.12596,-1.14303c-0.40212,-0.24791 -0.8578,-0.28132 -1.27804,-0.37399c-0.46239,-0.10196 -4.23774,-1.61283 -4.58056,-1.68332c-0.04823,-0.01085 -1.2997,0.02521 -2.34847,-0.21069c-0.23601,-0.05499 -1.29094,-0.77808 -1.8483,-1.63602c-0.21374,-0.32902 -0.52821,-0.82151 -0.59388,-1.43978c-0.01917,-0.18052 -0.18387,-1.48417 0.15684,-1.98253c0.12681,-0.1855 0.2335,0.18402 0.46925,0.23098c0.25897,0.05158 0.64676,-0.20599 0.75492,-0.13392c0.22929,0.15279 0.3416,0.54826 0.65728,0.77509c0.26421,0.18984 1.04916,0.02258 1.25368,0.30676c0.48485,0.67371 0.7623,0.72903 1.24938,0.93941c0.30065,0.12985 0.3071,0.41351 0.59279,0.4052c0.53644,-0.01559 1.0356,0.38319 1.44206,0.46029c0.38357,0.07275 0.68817,-0.17749 0.74631,-0.14141z" fill-opacity="0.57255" fill="#611111" stroke-width="0.5"/><g stroke-width="0"><path d="M369.40094,151.29531c-0.09462,0.41814 -4.42115,-0.0851 -6.83029,-0.62696c-2.40914,-0.54186 -5.37287,-1.60258 -5.27825,-2.02073c0.09462,-0.41814 3.20339,0.19008 5.61253,0.73194c2.40914,0.54186 6.59063,1.4976 6.49601,1.91574z" fill="#110539"/><path d="M369.396,152.07091c-0.15094,0.66703 -2.60378,0.07739 -6.29033,-0.75179c-3.68654,-0.82918 -6.1802,-1.23845 -6.02926,-1.90548c0.0278,-0.12285 0.02739,-0.75228 0.17593,-0.79431c0.33561,-0.09497 0.75835,0.27688 1.72993,0.62188c0.93314,0.33135 2.39147,0.6275 3.86489,0.9589c1.61196,0.36257 3.20871,0.71571 4.51902,0.88271c0.93877,0.11965 1.77012,0.06046 2.17172,0.22558c0.3198,0.1315 -0.10425,0.59608 -0.1419,0.76249z" fill="url(#color-45)"/><path d="M359.48089,149.20871c0,0 0.29274,-0.88598 0.40745,-1.73041c0.20164,-1.4843 0.29702,-3.39582 0.46109,-4.11678c0.10642,-0.46766 0.67704,-0.94493 0.67704,-0.94493l7.58635,1.65722c0,0 0.15831,0.67942 0.0424,1.20623c-0.1473,0.66952 -0.85632,2.5116 -1.2457,3.8925c-0.29867,1.05923 -0.31521,1.80338 -0.31521,1.80338z" fill="url(#color-46)"/><path d="M359.58258,148.87174l0.20025,-0.94043c0,0 2.90241,0.94725 4.21382,1.23822c1.17782,0.26133 3.29702,0.42825 3.29702,0.42825l-0.20025,0.94043c0,0 -2.0717,-0.30796 -3.23531,-0.56614c-1.32018,-0.29291 -4.27552,-1.10034 -4.27552,-1.10034z" fill="#000000"/></g></g><path d="M368.96991,164.33745c0,-0.12665 0.10268,-0.22933 0.22933,-0.22933c0.12665,0 0.22933,0.10268 0.22933,0.22933c0,0.12665 -0.10268,0.22933 -0.22933,0.22933c-0.12665,0 -0.22933,-0.10268 -0.22933,-0.22933z" fill="#ffffff" stroke-width="0.5"/><path d="M359.94335,163.1908c0,-0.12665 0.10268,-0.22933 0.22933,-0.22933c0.12665,0 0.22933,0.10268 0.22933,0.22933c0,0.12665 -0.10268,0.22933 -0.22933,0.22933c-0.12665,0 -0.22933,-0.10268 -0.22933,-0.22933z" fill="#ffffff" stroke-width="0.5"/></g><text transform="translate(339.02139,206.31256) scale(0.23438,0.23438)" font-size="40" xml:space="preserve" fill="#000000" fill-rule="nonzero" stroke="none" stroke-width="1" stroke-linecap="butt" stroke-linejoin="miter" stroke-miterlimit="10" stroke-dasharray="" stroke-dashoffset="0" font-family="&quot;GovtAgentBB&quot;, Serif" font-weight="normal" text-anchor="start" style="mix-blend-mode: normal"><tspan x="0" dy="0">FredBear</tspan></text></g></g></svg>