<svg version="1.1" xmlns="http://www.w3.org/2000/svg" xmlns:xlink="http://www.w3.org/1999/xlink" width="426.86033" height="352.97752" viewBox="0,0,426.86033,352.97752"><defs><linearGradient x1="269.30001" y1="69.81972" x2="235.45002" y2="69.81972" gradientUnits="userSpaceOnUse" id="color-1"><stop offset="0" stop-color="#0d0b11"/><stop offset="1" stop-color="#231f2e"/></linearGradient><linearGradient x1="301.76396" y1="356.08476" x2="277.92071" y2="356.08476" gradientUnits="userSpaceOnUse" id="color-2"><stop offset="0" stop-color="#0d0b11"/><stop offset="1" stop-color="#231f2e"/></linearGradient><linearGradient x1="425.50329" y1="155.41668" x2="447.00329" y2="155.41668" gradientUnits="userSpaceOnUse" id="color-3"><stop offset="0" stop-color="#000000"/><stop offset="1" stop-color="#8c8c8c"/></linearGradient><radialGradient cx="517.63312" cy="355.39319" r="11.92162" gradientUnits="userSpaceOnUse" id="color-4"><stop offset="0" stop-color="#1b1824"/><stop offset="1" stop-color="#231f2e"/></radialGradient><radialGradient cx="503.9151" cy="356.01674" r="11.92162" gradientUnits="userSpaceOnUse" id="color-5"><stop offset="0" stop-color="#1d1a27"/><stop offset="1" stop-color="#231f2e"/></radialGradient><linearGradient x1="401.2583" y1="348.94946" x2="425.10154" y2="348.94946" gradientUnits="userSpaceOnUse" id="color-6"><stop offset="0" stop-color="#0d0b11"/><stop offset="1" stop-color="#231f2e"/></linearGradient><radialGradient cx="424.671" cy="356.01674" r="11.92162" gradientUnits="userSpaceOnUse" id="color-7"><stop offset="0" stop-color="#1d1a27"/><stop offset="1" stop-color="#231f2e"/></radialGradient><linearGradient x1="409.05507" y1="279.84921" x2="463.82779" y2="279.84921" gradientUnits="userSpaceOnUse" id="color-8"><stop offset="0" stop-color="#000000"/><stop offset="1" stop-color="#415166"/></linearGradient><linearGradient x1="448.78973" y1="132.26191" x2="478.6859" y2="132.26191" gradientUnits="userSpaceOnUse" id="color-9"><stop offset="0" stop-color="#0d0b11"/><stop offset="1" stop-color="#231f2e"/></linearGradient><linearGradient x1="433.72224" y1="62.68443" x2="467.57224" y2="62.68443" gradientUnits="userSpaceOnUse" id="color-10"><stop offset="0" stop-color="#0d0b11"/><stop offset="1" stop-color="#231f2e"/></linearGradient><linearGradient x1="429.48109" y1="187.03529" x2="497.01081" y2="187.03529" gradientUnits="userSpaceOnUse" id="color-11"><stop offset="0" stop-color="#0d0b11"/><stop offset="1" stop-color="#231f2e"/></linearGradient><linearGradient x1="425.53746" y1="169.00158" x2="454.28898" y2="169.00158" gradientUnits="userSpaceOnUse" id="color-12"><stop offset="0" stop-color="#000000"/><stop offset="1" stop-color="#7a3f8f"/></linearGradient><linearGradient x1="431.13891" y1="152.11416" x2="464.17284" y2="152.11416" gradientUnits="userSpaceOnUse" id="color-13"><stop offset="0" stop-color="#000000"/><stop offset="1" stop-color="#90bba4"/></linearGradient><linearGradient x1="432.78668" y1="96.92392" x2="494.85615" y2="96.92392" gradientUnits="userSpaceOnUse" id="color-14"><stop offset="0" stop-color="#0d0b11"/><stop offset="1" stop-color="#2b2638"/></linearGradient><linearGradient x1="455.25296" y1="101.63285" x2="473.09273" y2="101.63285" gradientUnits="userSpaceOnUse" id="color-15"><stop offset="0" stop-color="#0d0b11"/><stop offset="1" stop-color="#231f2e"/></linearGradient><linearGradient x1="277.51898" y1="162.55197" x2="256.01898" y2="162.55197" gradientUnits="userSpaceOnUse" id="color-16"><stop offset="0" stop-color="#000000"/><stop offset="1" stop-color="#8c8c8c"/></linearGradient><radialGradient cx="185.38913" cy="362.52848" r="11.92162" gradientUnits="userSpaceOnUse" id="color-17"><stop offset="0" stop-color="#1b1824"/><stop offset="1" stop-color="#231f2e"/></radialGradient><linearGradient x1="254.23253" y1="139.39721" x2="224.33637" y2="139.39721" gradientUnits="userSpaceOnUse" id="color-18"><stop offset="0" stop-color="#0d0b11"/><stop offset="1" stop-color="#231f2e"/></linearGradient><linearGradient x1="273.54116" y1="194.17058" x2="206.01146" y2="194.17058" gradientUnits="userSpaceOnUse" id="color-19"><stop offset="0" stop-color="#0d0b11"/><stop offset="1" stop-color="#231f2e"/></linearGradient><linearGradient x1="248.73329" y1="176.13687" x2="277.48477" y2="176.13687" gradientUnits="userSpaceOnUse" id="color-20"><stop offset="0" stop-color="#b15cd1"/><stop offset="1" stop-color="#000000"/></linearGradient><linearGradient x1="270.23559" y1="104.05922" x2="208.16611" y2="104.05922" gradientUnits="userSpaceOnUse" id="color-21"><stop offset="0" stop-color="#0d0b11"/><stop offset="1" stop-color="#231f2e"/></linearGradient></defs><g transform="translate(-169.8665,-11.90988)"><g data-paper-data="{&quot;isPaintingLayer&quot;:true}" fill-rule="nonzero" stroke-linecap="butt" stroke-linejoin="miter" stroke-miterlimit="10" stroke-dasharray="" stroke-dashoffset="0" style="mix-blend-mode: normal"><g data-paper-data="{&quot;index&quot;:null}" fill="#231f2e" stroke="#000000" stroke-width="0"><path d="M221.44384,130.587c0,0 -52.01533,-51.48949 -46.32415,-63.12375c4.61365,-9.43152 42.12813,18.50631 42.12813,18.50631z"/></g><g data-paper-data="{&quot;index&quot;:null}" fill="url(#color-1)" stroke="#000000" stroke-width="0"><path d="M235.45002,76.71861c0,0 1.04395,-46.7629 11.31825,-44.6c12.67388,2.66805 22.53175,75.475 22.53175,75.475z"/></g><path d="M246.71009,346.76207c0.86918,-4.56957 7.01553,-6.69494 15.01028,-4.39628c6.24375,1.79521 8.72074,7.90619 8.72074,13.14644c0,5.24025 -7.26219,3.08656 -12.83615,3.08656c-5.57396,0 -11.00708,-4.47668 -11.00708,-9.71693c0,-0.41257 0.03793,-1.72928 0.11221,-2.11979z" data-paper-data="{&quot;index&quot;:null}" fill="#231f2e" stroke="#000000" stroke-width="0"/><path d="M277.92073,354.7321c0,-0.41257 0.03793,-1.72928 0.11221,-2.11979c0.86919,-4.56957 7.01553,-6.69494 15.01028,-4.39628c6.24375,1.79521 8.72074,7.9062 8.72074,13.14645c0,5.24025 -7.26219,3.08656 -12.83615,3.08656c-5.57396,0 -11.00709,-4.47669 -11.00709,-9.71694z" data-paper-data="{&quot;index&quot;:null}" fill="url(#color-2)" stroke="#000000" stroke-width="0"/><g stroke="#000000" stroke-width="0"><g data-paper-data="{&quot;index&quot;:null}"><g><path d="M520.15703,262.51822c-7.50288,-4.41264 -8.91062,-7.81533 -5.44753,-11.60849c3.46308,-3.79316 10.7971,-4.36028 15.01852,-0.50621c4.22141,3.85407 5.50588,8.68171 2.04279,12.47487c-3.46309,3.79316 -6.68662,2.53763 -11.61379,-0.36018z" data-paper-data="{&quot;index&quot;:null}" fill="#231f2e"/><path d="M525.91418,263.08484c-3.85739,-2.26864 -3.27739,-4.04411 -1.49694,-5.99426c1.78044,-1.95014 4.57793,-2.95012 6.74824,-0.96866c2.70919,2.47343 -2.08917,8.82264 -5.25129,6.96291z" data-paper-data="{&quot;index&quot;:null}" fill="#15121b"/></g><path d="M506.87045,244.85404c0.49518,5.11232 -3.99812,10.93639 -9.68764,11.48747c-5.68953,0.55108 -10.70321,-3.14653 -11.19838,-8.25886c-0.50863,-5.25125 3.87665,-7.42579 9.18805,-8.3707c4.26231,-0.75827 9.08668,-1.07905 12.71509,1.10258c1.3238,0.79595 -1.21956,1.94932 -1.01711,4.03951z" fill="#231f2e"/><g><path d="M503.70229,253.71506c3.79003,3.46651 4.35053,10.80103 0.49264,15.01897c-3.85789,4.21794 -8.68668,5.49804 -12.47671,2.03152c-3.79005,-3.4665 -2.53159,-6.68891 0.37067,-11.61346c4.41942,-7.49889 7.82337,-8.90355 11.61341,-5.43704z" data-paper-data="{&quot;index&quot;:null}" fill="#231f2e"/><path d="M491.23683,265.13687c2.27211,-3.85535 4.48778,-3.91933 6.43631,-2.13713c1.94853,1.78221 2.2591,4.74714 0.27568,6.91567c-2.47588,2.70695 -8.57459,-1.6181 -6.712,-4.77854z" data-paper-data="{&quot;index&quot;:null}" fill="#15121b"/></g><path d="M491.10073,242.53027c4.26871,-1.34321 6.08768,0.69487 6.34226,3.32323c0.25458,2.62836 -2.05553,5.62263 -4.98063,5.90596c-2.9251,0.28332 -4.14131,-1.04629 -4.39589,-3.67465c-0.25458,-2.62836 0.23096,-4.67245 3.03425,-5.55454z" fill="#15121b"/><path d="M495.21302,254.96478c-0.7188,-7.42112 12.62565,-17.39826 20.04676,-18.11706c7.42112,-0.71881 6.97477,-1.6359 7.69358,5.78522c0.7188,7.42112 -2.03592,23.00343 -9.45704,23.72223c-7.42111,0.7188 -17.56449,-3.96928 -18.2833,-11.3904z" fill="#231f2e"/><g><path d="M506.38022,267.688c-1.1129,-8.63286 0.71257,-11.83091 5.83235,-11.42c5.11979,0.41093 10.06361,5.85778 9.6063,11.55559c-0.45731,5.69782 -3.48419,9.67199 -8.60397,9.26106c-5.11978,-0.41091 -6.10382,-3.72742 -6.83467,-9.39666z" data-paper-data="{&quot;index&quot;:null}" fill="#231f2e"/><path d="M514.50648,266.90477c2.63219,0.21127 4.77627,2.01373 4.54115,4.94311c-0.29349,3.6567 -8.35787,5.03317 -8.8269,1.39482c-0.57216,-4.43835 1.65356,-6.54919 4.28575,-6.33793z" data-paper-data="{&quot;index&quot;:null}" fill="#15121b"/></g><path d="M506.00625,258.86948c-3.08517,-1.63632 -6.85696,-2.17677 -7.12876,-4.98287c-0.48719,-5.02986 5.12171,-11.39686 10.15157,-11.88405c5.02986,-0.48719 10.89893,2.05543 11.38612,7.0853c0.48719,5.02986 -2.82591,12.27964 -7.85577,12.76683c-2.22377,0.21539 -4.10827,-1.68846 -6.55317,-2.9852z" fill="#15121b"/></g><path d="M519.17437,190.30368c2.1621,7.71379 5.15663,16.39439 6.30003,24.36027c0.76121,5.3033 -1.99664,10.42954 -2.03636,14.19164c-0.08617,8.16158 1.18202,8.00988 -1.08208,10.87617c-3.9918,5.05349 -14.07236,3.61024 -18.51765,3.9013c-3.86842,0.25328 -1.16241,-2.80082 -2.92678,-10.46478c-0.78752,-3.42081 -4.52398,-7.39539 -5.2113,-13.73195c-0.50809,-4.68428 0.01481,-10.81284 -0.88961,-16.63851c-1.1069,-7.1299 -3.60912,-16.82661 -4.1237,-23.77747c-0.33179,-4.48184 -1.7664,-10.62338 -2.10611,-13.94152c-0.68022,-6.64406 -2.82253,-14.14839 -3.04041,-17.1059c-0.47055,-6.38713 2.12659,-3.32076 6.19542,-7.37125c3.59008,-3.57392 9.73273,2.56428 16.70163,17.00125c2.01472,4.17374 5.24223,10.05338 7.08441,15.34216c1.55231,4.45657 2.29334,12.50937 3.65253,17.35858z" data-paper-data="{&quot;index&quot;:null}" fill="#763d8b"/></g><g stroke="none" stroke-width="0"><path d="M425.50329,158.66668l-4.33334,-9.83333l25.83334,3.33333v6.5z" fill="url(#color-3)"/><path d="M424.12462,159.45625c-1.80074,4.33531 -8.92455,-12.91104 -4.58924,-11.1103c4.33531,1.80074 6.38998,6.77499 4.58924,11.1103z" data-paper-data="{&quot;index&quot;:null}" fill="#000000"/></g><path d="M542.01081,26.40989c0,-8.00813 6.49187,-14.5 14.5,-14.5c8.00813,0 14.5,6.49187 14.5,14.5c0,8.00813 -6.49187,14.5 -14.5,14.5c-8.00813,0 -14.5,-6.49187 -14.5,-14.5z" fill="#415166" stroke="#000000" stroke-width="0"/><g data-paper-data="{&quot;index&quot;:null}" stroke="#000000" stroke-width="0"><path d="M520.44918,344.32073c-2.62723,1.58414 -4.50655,10.12576 -27.21805,9.48536c-20.63696,-0.58191 -24.48028,-4.61172 -23.93401,-12.46211c0.54627,-7.85039 5.57703,-14.43708 26.18486,-13.30096c20.60782,1.13612 24.9672,16.27772 24.9672,16.27772z" data-paper-data="{&quot;index&quot;:null}" fill="#231f2e"/><path d="M503.59677,345.47704c0.86919,-4.56957 7.01553,-6.69494 15.01028,-4.39628c6.24376,1.79521 8.72074,7.9062 8.72074,13.14645c0,5.24025 -7.26219,3.08656 -12.83615,3.08656c-5.57396,0 -11.00709,-4.47669 -11.00709,-9.71694c0,-0.41257 0.03793,-1.72928 0.11221,-2.11979z" data-paper-data="{&quot;index&quot;:null}" fill="url(#color-4)"/><path d="M489.87873,345.47703c0.86919,-4.56957 7.01553,-6.69494 15.01028,-4.39628c6.24376,1.79521 8.72075,7.90621 8.72075,13.14645c0,5.24025 -7.2622,3.08655 -12.83616,3.08655c-5.57396,0 -11.00708,-4.4767 -11.00708,-9.71694c0,-0.41257 0.03792,-1.72927 0.11221,-2.11978z" data-paper-data="{&quot;index&quot;:null}" fill="url(#color-5)"/><path d="M472.27393,344.33386c0.86919,-4.56957 7.01553,-6.69493 15.01028,-4.39628c6.24376,1.79521 8.72074,7.9062 8.72074,13.14644c0,5.24025 -7.26219,3.08656 -12.83615,3.08656c-5.57396,0 -11.00708,-4.47669 -11.00708,-9.71693c0,-0.41257 0.03793,-1.72928 0.11221,-2.11979z" data-paper-data="{&quot;index&quot;:null}" fill="#231f2e"/><path d="M512.72502,339.90295c-4.06251,0.95881 -8.24335,1.97695 -13.48364,2.21325c-5.50439,0.24821 -10.92476,-2.48974 -15.6191,-2.82237c-3.236,-0.22929 -6.38939,1.99643 -7.92232,1.8054c-2.45921,-0.30646 -6.44165,2 -6.44165,2c0,0 -0.76764,-1.04451 -0.80843,-7.38663c-0.01382,-2.14824 0.94102,-5.78958 0.84488,-9.01156c-0.06453,-2.16274 -1.1232,-7.50058 -1.17214,-10.01059c-0.0735,-3.77001 0.82739,-10.7858 0.69501,-14.97528c-0.13387,-4.23661 -1.269,-10.10168 -1.40144,-14.50287c-0.13846,-4.60098 -0.27399,-12.65154 -0.40209,-17.01743c-0.09807,-3.342 -0.68619,-10.03665 -0.76118,-13.01545c-0.14122,-5.60959 0.73173,-15.29157 0.62851,-18.53005c-0.29059,-9.11709 -1.62311,-21.05015 -1.62311,-21.05015l30.5,-1c0,0 -0.74561,12.38253 1.1547,22.39875c0.32336,1.70436 1.73485,6.27437 2.21879,8.64276c0.73336,3.58906 1.11672,10.32238 2.09969,14.97638c0.66335,3.14071 2.37697,8.94847 3.1244,12.35943c0.85539,3.90368 0.73926,8.40298 1.63089,12.4121c0.62021,2.7887 2.2542,6.57714 2.89299,9.33745c0.69509,3.0036 0.88125,7.45925 1.55044,10.33458c0.65776,2.82623 2.3083,6.54742 2.94152,9.14024c0.98728,4.04255 0.37294,6.21354 1.14782,9.45367c0.59429,2.48498 2.21527,6.8084 2.81334,8.89803c0.39864,1.39281 0.87541,1.81293 1.16397,2.82657c1.02788,3.6107 1.53417,4.53824 1.53417,4.53824c0,0 -3.46515,-2.92096 -7.30601,-2.01446z" fill="#415166"/></g><path d="M433.10411,328.043c20.60782,-1.13612 25.63859,5.45057 26.18486,13.30096c0.54627,7.85039 -3.29705,11.88021 -23.93401,12.46211c-22.7115,0.6404 -24.59082,-7.90122 -27.21805,-9.48536c0,0 4.35938,-15.14159 24.9672,-16.27771z" data-paper-data="{&quot;index&quot;:null}" fill="#231f2e" stroke="#000000" stroke-width="0"/><path d="M425.10154,347.59681c0,5.24025 -5.43313,9.71694 -11.00709,9.71694c-5.57396,0 -12.83615,2.15369 -12.83615,-3.08656c0,-5.24025 2.47699,-11.35124 8.72074,-13.14645c7.99475,-2.29866 14.14109,-0.17329 15.01028,4.39628c0.07428,0.39051 0.11221,1.70722 0.11221,2.11979z" data-paper-data="{&quot;index&quot;:null}" fill="url(#color-6)" stroke="#000000" stroke-width="0"/><path d="M438.81957,347.59681c0,5.24025 -5.43312,9.71694 -11.00708,9.71694c-5.57396,0 -12.83616,2.15369 -12.83616,-3.08655c0,-5.24025 2.47699,-11.35124 8.72075,-13.14645c7.99475,-2.29866 14.14109,-0.17329 15.01028,4.39628c0.07428,0.39051 0.11221,1.70721 0.11221,2.11978z" data-paper-data="{&quot;index&quot;:null}" fill="url(#color-7)" stroke="#000000" stroke-width="0"/><path d="M456.42438,346.45365c0,5.24025 -5.43312,9.71693 -11.00708,9.71693c-5.57396,0 -12.83615,2.15369 -12.83615,-3.08656c0,-5.24025 2.47699,-11.35123 8.72074,-13.14644c7.99475,-2.29866 14.1411,-0.17329 15.01028,4.39628c0.07428,0.39051 0.11221,1.70722 0.11221,2.11979z" data-paper-data="{&quot;index&quot;:null}" fill="#231f2e" stroke="#000000" stroke-width="0"/><path d="M409.05507,341.91741c0,0 0.50629,-0.92754 1.53417,-4.53824c0.28856,-1.01364 0.76533,-1.43376 1.16397,-2.82657c0.59807,-2.08963 2.21906,-6.41305 2.81334,-8.89803c0.77488,-3.24012 0.16054,-5.41111 1.14782,-9.45367c0.63322,-2.59281 2.28376,-6.314 2.94152,-9.14024c0.66919,-2.87533 0.85534,-7.33098 1.55044,-10.33458c0.6388,-2.76031 2.27278,-6.54875 2.89299,-9.33745c0.89164,-4.00912 0.7755,-8.50841 1.63089,-12.4121c0.74743,-3.41096 2.46105,-9.21873 3.1244,-12.35943c0.98298,-4.65399 1.36633,-11.38732 2.09969,-14.97638c0.48393,-2.36838 1.89543,-6.93839 2.21879,-8.64276c1.90031,-10.01621 1.1547,-22.39875 1.1547,-22.39875l30.5,1c0,0 -1.33252,11.93306 -1.62311,21.05015c-0.10322,3.23847 0.76972,12.92046 0.62851,18.53005c-0.07499,2.97879 -0.66312,9.67345 -0.76118,13.01545c-0.12811,4.36588 -0.26363,12.41645 -0.40209,17.01743c-0.13245,4.40119 -1.26757,10.26626 -1.40144,14.50287c-0.13238,4.18948 0.76851,11.20526 0.69501,14.97528c-0.04893,2.51001 -1.1076,7.84785 -1.17214,10.01059c-0.09614,3.22199 0.8587,6.86332 0.84488,9.01156c-0.04079,6.34211 -0.80843,7.38663 -0.80843,7.38663c0,0 -3.98244,-2.30646 -6.44165,-2c-1.53293,0.19103 -4.68633,-2.03469 -7.92232,-1.8054c-4.69434,0.33263 -10.11471,3.07058 -15.6191,2.82237c-5.24029,-0.2363 -9.42113,-1.25444 -13.48364,-2.21325c-3.84086,-0.9065 -7.30601,2.01446 -7.30601,2.01446z" fill="url(#color-8)" stroke="#000000" stroke-width="0"/><path d="M477.82141,135.99461c4.21884,4.8396 -8.06294,7.875 -14,7.875c-5.93706,0 -20.49402,3.72339 -12.875,-8.75c2.80975,-4.59995 1.87659,-10.60751 1.87973,-10.72314c0.17024,-6.25927 5.1659,-3.77686 10.99527,-3.77686c5.51187,0 10.42986,-2.26411 11.0523,3.51575c0.04801,0.44587 -0.1773,8.27445 2.9477,11.85925z" fill="url(#color-9)" stroke="#000000" stroke-width="0"/><g data-paper-data="{&quot;index&quot;:null}" stroke="#000000" stroke-width="0"><path d="M482.10269,72.50092c0,0 37.51448,-27.93783 42.12813,-18.50631c5.69119,11.63426 -46.32415,63.12376 -46.32415,63.12376z" fill="#231f2e"/><path d="M494.8999,95.14146c-6.03119,6.37432 -5.73121,-10.32178 -0.31328,-17.22492c7.57293,-9.64887 21.88824,-21.92425 24.23966,-16.58267c1.63576,3.71585 -14.34401,23.68005 -23.92638,33.80759z" fill="#644360"/></g><g stroke="#000000" stroke-width="0"><path d="M433.72224,100.45832c0,0 9.85787,-72.80695 22.53175,-75.475c10.2743,-2.1629 11.31825,44.6 11.31825,44.6z" fill="url(#color-10)"/><path d="M453.79102,33.75867c5.65803,-1.4312 4.78339,17.40623 1.83293,29.31188c-2.11086,8.51772 -15.0912,19.023 -13.77447,10.34697c2.09202,-13.7845 8.00555,-38.66325 11.94154,-39.65885z" fill="#644360"/></g><path d="M496.66974,186.35241c0,13.59725 2.24138,28.17424 -4.76761,36.73138c-6.32636,7.72375 -20.10195,9.24419 -29.39835,9.24419c-9.77884,0 -22.40472,-1.55648 -28.82262,-10.00415c-6.44296,-8.48066 -3.55455,-23.01109 -3.55455,-35.97142c0,-18.46566 6.59566,-44.41111 18.81742,-44.58466c6.03904,-0.08576 22.10491,0.07529 27.71365,0.07529c19.59588,0 20.01205,18.63913 20.01205,44.50938z" fill="url(#color-11)" stroke="#000000" stroke-width="0"/><path d="M434.7741,191.68239c0.36166,0.50008 0.72163,1.01609 1.09557,1.53252c-0.54426,-0.29207 -0.93915,-0.77622 -1.09557,-1.53252z" fill="#7a3f8f" stroke="#000000" stroke-width="0"/><path d="M454.28898,188.69777c0,2.84841 -0.27312,5.23936 -0.32574,7.81203c-0.02091,1.02229 -0.03952,2.03384 -0.05768,3.03503c-1.46926,0.09971 -3.45611,0.35259 -4.52465,-0.14452c-1.22668,-0.57068 -2.43425,-1.89202 -3.50962,-2.72415c-0.72852,-0.56373 -1.59064,-0.69382 -2.47348,-0.86113c-0.20175,-0.90652 -0.05011,-1.85032 0.28226,-2.89101c0.73669,-0.47672 0.8552,-1.35101 1.24499,-2.38513l0.17433,-0.46248c0.01167,-0.0289 0.01809,-0.06048 0.01809,-0.09356c0,-0.13807 -0.11193,-0.25 -0.25,-0.25c-0.09909,0 -0.1847,0.05764 -0.22516,0.14122l-0.22466,0.44069l0.04826,0.0246l-0.00873,0.02317c-0.00673,0.01785 -0.01335,0.03565 -0.01988,0.0534c-0.38395,0.56542 -0.74829,1.29363 -1.0344,2.08539c-0.16465,0.10646 -0.36741,0.18718 -0.62309,0.23784c-1.60168,0.31734 -4.2263,1.12098 -6.04769,0.76963c-0.07121,-0.07286 -0.14278,-0.15738 -0.21507,-0.25533c-0.62005,-0.84016 -1.20494,-1.70388 -1.81628,-2.5147c0.00928,-2.92126 0.52623,-6.50643 -0.04885,-9.42885l0.03098,-0.00123l-0.01977,-0.4984c-0.00459,-0.13404 -0.11469,-0.2413 -0.24985,-0.2413c-0.08881,0 -0.16681,0.04631 -0.21116,0.1161c-0.09149,0.13931 -0.45525,0.69323 -0.54674,0.83254c-1.31289,1.99917 -2.45607,3.76274 -3.91465,5.47702c-0.33537,-0.07422 -0.6882,-0.12456 -1.06074,-0.14826c-2.9001,-1.54022 -2.54336,-6.25109 -2.9479,-9.22739c-0.05055,-0.36683 -0.1161,-0.734 -0.19464,-1.10074c0.72107,-3.76948 1.5183,-7.00837 2.68154,-10.22708c2.39186,-6.6183 3.79943,-12.16618 6.19285,-16.24931c2.59706,-4.43053 4.09593,-9.01975 6.81344,-10.51402c2.95729,-1.62613 5.07868,-1.45115 8.27549,-0.51628c1.53386,0.44856 2.37145,0.87252 3.08168,2.14855c0.64799,1.1642 1.23111,3.03768 1.31735,6.2862c0.07819,2.94513 -0.44941,7.98793 -0.4771,13.05173c-0.01913,3.49774 0.43568,8.14245 0.41403,12.83331c-0.01946,4.21721 0.45219,10.11407 0.45219,15.3664z" fill="url(#color-12)" stroke="#000000" stroke-width="0"/><path d="M473.47844,173.92673c-0.02165,-4.65779 0.43316,-9.26977 0.41403,-12.74285c-0.02769,-5.02809 -0.55529,-10.03534 -0.4771,-12.95972c0.08624,-3.22565 0.66936,-5.0859 1.31735,-6.24189c0.71023,-1.26703 1.54782,-1.68801 3.08168,-2.13341c3.19681,-0.92829 5.3182,-1.10202 8.27549,0.51264c2.71751,1.48374 4.21639,6.04061 6.81345,10.43991c2.39342,4.05435 3.80098,9.56313 6.19284,16.13478c2.07576,5.70315 2.98598,11.47009 4.37784,20.18066c0.4999,3.12849 1.52514,9.3803 2.06394,12.26725c0.77925,4.17529 1.04471,9.37214 1.70577,12.78045c1.11021,5.72406 1.62569,10.66215 1.99117,14.89454c0.26367,3.05329 0.68478,5.45597 0.07937,8.86353c-0.42483,2.39119 -2.78507,3.90438 -4.70382,6.1916c-1.61671,1.92718 -3.31558,5.30248 -5.36781,7.0753c-2.75761,2.38214 -5.7537,5.75154 -8.41782,7.1428c-3.64334,1.90262 -6.66582,1.39107 -7.6084,1.39107c-1.50188,0 -2.88736,-3.02168 -4.12136,-6.38437c-1.31835,-3.59257 -2.21826,-9.95677 -3.14803,-16.44717c-0.80733,-5.63574 -1.50762,-12.87637 -2.01997,-20.01924c-0.40285,-5.61629 -0.44395,-11.56409 -0.57509,-17.93084c-0.05262,-2.55453 -0.32574,-4.92863 -0.32574,-7.75695c0,-5.21531 0.47165,-11.07061 0.45219,-15.25808z" data-paper-data="{&quot;index&quot;:null}" fill="#7a3f8f" stroke="#000000" stroke-width="0"/><g stroke="#000000" stroke-width="0"><path d="M451.52719,131.92067c6.87407,2.70101 12.64565,5.03495 12.64565,12.15456c0,4.14772 -5.36675,6.70246 -10.6479,11.21221c-3.50235,2.99078 -8.82386,22.77311 -12.68601,15.88891c-5.26723,-9.38874 -1.86808,-24.13407 -2.35855,-25.98673c-0.21791,-0.82309 -9.20188,6.03838 -6.99195,-1.42735c0,0 13.41233,-14.44531 20.03876,-11.8416z" fill="url(#color-13)"/><path d="M489.8653,145.18965c-0.49048,1.85265 9.40868,4.59798 4.14145,13.98673c-3.86214,6.8842 -15.68365,-0.89813 -19.186,-3.88891c-5.28115,-4.50975 -10.64791,-7.06449 -10.64791,-11.21221c0,-7.11961 5.77159,-9.45355 12.64565,-12.15456c6.62643,-2.60371 16.51798,-4.98521 18.53877,1.8416c2.20992,7.46573 -5.27405,10.60426 -5.49196,11.42735z" data-paper-data="{&quot;index&quot;:null}" fill="#729482"/><path d="M452.63215,144.19805c0,-6.91619 4.62449,-7.36639 11.54069,-7.36639c6.91619,0 11.54068,0.4502 11.54068,7.36639c0,6.91619 -4.62449,7.12085 -11.54068,7.12085c-6.91619,0 -11.54069,-0.20466 -11.54069,-7.12085z" fill="#7a9f8c"/></g><path d="M433.17428,99.39575c2.9494,-20.6552 11.32822,-32.06427 30.88108,-32.06427c19.55286,0 25.95051,7.84825 30.04148,28.67076c4.48919,22.84935 -11.57408,30.51413 -31.12694,30.51413c-19.55286,0 -32.63874,-7.20978 -29.79562,-27.12061z" fill="url(#color-14)" stroke="#000000" stroke-width="0"/><path d="M458.70018,93.62761c0,2.85788 -3.47303,3.58355 -7.15815,4.38477c-2.23461,0.48585 -4.84318,0.92773 -6.65435,0.92773c-4.79798,0 -8.4375,-0.72164 -8.4375,-5.3125c0,-4.59086 5.76452,-11.6875 14.1875,-10.1875c4.72366,0.84121 8.0625,5.59664 8.0625,10.1875z" fill="#000000" stroke="#000000" stroke-width="0"/><path d="M478.30435,83.60478c8.42298,-1.5 14.1875,5.59664 14.1875,10.1875c0,4.59086 -3.63952,5.3125 -8.4375,5.3125c-1.81116,0 -4.41973,-0.44188 -6.65435,-0.92773c-3.68512,-0.80122 -7.15815,-1.52688 -7.15815,-4.38477c0,-4.59086 3.33884,-9.34629 8.0625,-10.1875z" data-paper-data="{&quot;index&quot;:null}" fill="#1c1925" stroke="#000000" stroke-width="0"/><g data-paper-data="{&quot;index&quot;:null}" stroke="#000000" stroke-width="0"><path d="M481.32529,92.44026c6.00246,0 11.08732,-0.07737 11.08732,2.89091c0,4.54134 -5.43608,7.23496 -10.97621,4.92489c-5.14443,-2.14508 -9.41525,-2.51984 -10.5593,-4.34407c-2.41281,-3.84734 4.44573,-3.47173 10.44819,-3.47173z" fill="#16130a"/><path d="M481.32529,90.87761c6.00246,0 11.15442,0.76735 11.15442,3.73563c0,4.54134 -5.30188,6.76524 -10.84201,4.45516c-5.14443,-2.14508 -9.75076,-1.91591 -10.89481,-3.74014c-2.41281,-3.84734 4.57994,-4.45065 10.5824,-4.45065z" fill="#16130a"/><path d="M481.32529,91.70213c6.00245,0 11.15442,0.39235 11.15442,3.36063c0,4.54134 -5.30188,6.76525 -10.84202,4.45517c-5.14443,-2.14508 -9.75076,-1.91591 -10.8948,-3.74014c-2.41281,-3.84734 4.57994,-4.07566 10.5824,-4.07566z" fill="#bca253"/><path d="M479.50013,98.77552c-0.0743,0.01574 -2.97039,-0.72255 -3.11415,-0.84598c-0.82421,-0.70763 -1.34631,-1.82429 -1.34631,-2.99579c0,-1.26796 0.61162,-2.46017 1.55591,-3.16351c0.18323,-0.13647 4.36667,-0.16801 4.49923,-0.07605c1.00415,0.69662 1.6617,1.92485 1.6617,3.23955c0,1.85546 -1.51102,3.47213 -3.25638,3.84177z" fill="#20395e"/><path d="M478.89809,97.45011c-1.38975,0 -2.51637,-1.12661 -2.51637,-2.51636c0,-1.38975 1.12662,-2.51636 2.51637,-2.51636c1.38975,0 2.51636,1.12661 2.51636,2.51636c0,1.38975 -1.12661,2.51636 -2.51636,2.51636z" fill="#16130a"/></g><g stroke="#000000" stroke-width="0"><path d="M547.69765,52.92003c0,-4.69442 3.80558,-8.5 8.5,-8.5c4.69442,0 8.5,3.80558 8.5,8.5c0,4.69442 -3.80558,8.5 -8.5,8.5c-4.69442,0 -8.5,-3.80558 -8.5,-8.5z" fill="#729482"/><path d="M574.06017,52.01059c0,-6.25923 5.07411,-11.33333 11.33334,-11.33333c6.25923,0 11.33333,5.07411 11.33333,11.33333c0,6.25923 -5.07411,11.33333 -11.33333,11.33333c-6.25923,0 -11.33334,-5.07411 -11.33334,-11.33333z" fill="#15121b"/><path d="M564.69765,30.91495c0,-7.45864 6.04642,-13.50506 13.50506,-13.50506c7.45864,0 13.50506,6.04642 13.50506,13.50506c0,7.45864 -6.04642,13.50507 -13.50506,13.50507c-7.45864,0 -13.50506,-6.04643 -13.50506,-13.50507z" fill="#bca253"/><path d="M551.19259,47.23011c0,-7.45864 6.04642,-13.50507 13.50506,-13.50507c7.45864,0 13.50506,6.04642 13.50506,13.50507c0,7.45864 -6.04642,13.50506 -13.50506,13.50506c-7.45864,0 -13.50506,-6.04642 -13.50506,-13.50506z" fill="#7a9f8c"/><path d="M576.72944,33.72505c0,6.44155 -5.71661,11.66346 -12.76842,11.66346c-7.05181,0 -12.76843,-5.22191 -12.76843,-11.66346c0,-6.44155 5.71662,-11.66346 12.76843,-11.66346c7.05181,0 12.76842,5.22191 12.76842,11.66346z" fill="#7a3f8f"/><path d="M571.18999,42.57843c0,-7.05181 5.71661,-12.76842 12.76842,-12.76842c7.05181,0 12.76842,5.71662 12.76842,12.76842c0,7.05181 -5.71661,12.76842 -12.76842,12.76842c-7.05181,0 -12.76842,-5.71662 -12.76842,-12.76842z" fill="#231f2e"/><path d="M542.01081,38.97416c0,-7.05181 5.71662,-12.76842 12.76842,-12.76842c7.05181,0 12.76842,5.71662 12.76842,12.76842c0,7.05181 -5.71661,12.76842 -12.76842,12.76842c-7.05181,0 -12.76842,-5.71661 -12.76842,-12.76842z" fill="#20395e"/><path d="M563.02333,37.97666c0,-4.51033 3.65634,-8.16667 8.16667,-8.16667c4.51033,0 8.16666,3.65634 8.16666,8.16667c0,4.51033 -3.65634,8.16667 -8.16666,8.16667c-4.51033,0 -8.16667,-3.65635 -8.16667,-8.16667z" fill="#976581"/><path d="M561.26108,41.50276c0,-2.39323 1.94009,-4.33333 4.33333,-4.33333c2.39324,0 4.33334,1.9401 4.33334,4.33333c0,2.39323 -1.9401,4.33333 -4.33334,4.33333c-2.39324,0 -4.33333,-1.9401 -4.33333,-4.33333z" fill="#643851"/><path d="M561.26108,37.16945c0,-2.48528 2.01472,-4.5 4.5,-4.5c2.48528,0 4.5,2.01472 4.5,4.5c0,2.48528 -2.01472,4.5 -4.5,4.5c-2.48528,0 -4.5,-2.01472 -4.5,-4.5z" fill="#81526c"/><path d="M562.03601,31.89671c0,-2.39324 1.9401,-4.33333 4.33333,-4.33333c2.39324,0 4.33333,1.9401 4.33333,4.33333c0,2.39324 -1.9401,4.33333 -4.33333,4.33333c-2.39324,0 -4.33333,-1.94009 -4.33333,-4.33333z" fill="#644360"/></g><g><path d="M481.32529,92.44026c6.00246,0 11.08732,-0.07737 11.08732,2.89091c0,4.54134 -5.43608,7.23496 -10.97621,4.92489c-5.14443,-2.14508 -9.41525,-2.51984 -10.5593,-4.34407c-2.41281,-3.84734 4.44573,-3.47173 10.44819,-3.47173z" fill="#171717" stroke="#000000" stroke-width="0"/><path d="M481.32529,90.87761c6.00246,0 11.15442,0.76735 11.15442,3.73563c0,4.54134 -5.30188,6.76524 -10.84201,4.45516c-5.14443,-2.14508 -9.75076,-1.91591 -10.89481,-3.74014c-2.41281,-3.84734 4.57994,-4.45065 10.5824,-4.45065z" fill="#171717" stroke="#000000" stroke-width="0"/><path d="M481.32529,91.70213c6.00245,0 11.15442,0.39235 11.15442,3.36063c0,4.54134 -5.30188,6.76525 -10.84202,4.45517c-5.14443,-2.14508 -9.75076,-1.91591 -10.8948,-3.74014c-2.41281,-3.84734 4.57994,-4.07566 10.5824,-4.07566z" fill="#000000" stroke="#000000" stroke-width="0"/><g fill="none" stroke="none" stroke-width="1" font-family="sans-serif" font-weight="normal" font-size="12" text-anchor="start"/></g><g stroke="#000000" stroke-width="0"><g fill="#000000"><path d="M471.51786,111.76271c0.05568,2.12951 -2.54814,6.21159 -7.12265,6.3312c-4.57452,0.11961 -7.51038,-3.03162 -7.56606,-5.16113c-0.05568,-2.12951 0.92471,-9.1522 5.98072,-9.4691c7.58362,-0.47534 8.65231,6.16952 8.70799,8.29903z"/><path d="M468.38041,109.74342c1.10271,2.32315 -2.37245,3.34442 -5.01946,3.41363c-2.64702,0.06921 -4.58124,-1.28775 -3.51553,-3.6281c1.06572,-2.34036 1.81024,-2.66915 3.31849,-2.94606c3.37971,-0.62049 4.43031,1.5042 5.2165,3.16053z"/><path d="M468.09119,111.6316c0,0 -0.14588,0.40908 -0.3263,0.52521c-0.24671,0.15878 -1.01595,0.43109 -1.01595,0.43109l-0.06698,-3.13115z" data-paper-data="{&quot;index&quot;:null}"/><path d="M461.05711,109.87425l0.09437,3.0395c0,0 -0.58152,-0.28638 -0.81496,-0.46975c-0.19329,-0.15182 -0.48813,-0.5538 -0.48813,-0.5538z" data-paper-data="{&quot;index&quot;:null}"/></g><path d="M468.64138,110.79797l3.28571,-0.5l-1.35714,5.92857z" data-paper-data="{&quot;index&quot;:null}" fill="#bca253"/><path d="M472.65494,110.13466c-2.39616,4.20335 -16.77743,4.57806 -17.33333,-1.09001c-0.39375,-4.01485 0.97592,-7.57994 2.33333,-12.20817c1.44444,-4.92499 2.4441,-6.86709 6.55556,-6.86709c2.06105,0 3.04105,2.05728 5.05743,6.238c2.00597,4.15912 4.94257,11.19852 3.38701,13.92727z" fill="url(#color-15)"/><g><path d="M469.38132,101.62012c0,2.23982 -2.83507,5.62865 -5.5965,5.62865c-2.76142,0 -5.25146,-3.44732 -5.25146,-5.68713c0,-2.23982 10.84796,-2.18134 10.84796,0.05848z" fill="#976581"/><path d="M462.30447,106.88813c-0.16154,0.11509 -0.96158,-0.35272 -1.63672,-0.98095c-0.65478,-0.60929 -1.18895,-1.37572 -1.10738,-1.51129c0.33303,-0.55349 1.07182,-0.2793 1.71309,0.02195c1.00834,0.47369 1.50691,2.13124 1.03101,2.4703z" fill="#643851"/><path d="M466.49107,104.40875c0.65251,-0.27605 1.40142,-0.52126 1.71265,0.04478c0.07623,0.13864 -0.48738,0.88369 -1.16539,1.46702c-0.69909,0.60147 -1.51673,1.03778 -1.67367,0.91648c-0.46233,-0.35733 0.10039,-1.99422 1.12642,-2.42828z" data-paper-data="{&quot;index&quot;:null}" fill="#643851"/><path d="M463.47302,107.24489c0,-0.56557 0,-3.15595 0,-4.60715c0,-0.43061 -0.06909,-0.99248 0.36152,-0.99248c0.4029,0 0.34807,0.5182 0.35003,0.92109c0.00563,1.15678 0.01151,3.1684 -0.00541,4.64282c-0.00222,0.1934 -0.70614,0.16942 -0.70614,0.03571z" fill="#81526c"/></g></g><g data-paper-data="{&quot;index&quot;:null}" stroke="none" stroke-width="0"><path d="M256.01898,165.80197v-6.5l25.83333,-3.33333l-4.33333,9.83333z" fill="url(#color-16)"/><path d="M283.48688,155.48124c4.33531,-1.80074 -2.7885,15.44562 -4.58924,11.11031c-1.80074,-4.33531 0.25393,-9.30957 4.58924,-11.11031z" data-paper-data="{&quot;index&quot;:null}" fill="#000000"/></g><path d="M182.57308,351.45603c0,0 4.35938,-15.1416 24.9672,-16.27772c20.60783,-1.13612 25.63859,5.45057 26.18486,13.30096c0.54627,7.85039 -3.29705,11.8802 -23.93401,12.46211c-22.7115,0.6404 -24.59082,-7.90122 -27.21805,-9.48536z" data-paper-data="{&quot;index&quot;:null}" fill="#231f2e" stroke="#000000" stroke-width="0"/><path d="M199.4255,352.61233c0.07428,0.39051 0.11221,1.70722 0.11221,2.11979c0,5.24025 -5.43313,9.71694 -11.00709,9.71694c-5.57396,0 -12.83615,2.15369 -12.83615,-3.08656c0,-5.24025 2.47698,-11.35124 8.72074,-13.14645c7.99475,-2.29866 14.14109,-0.17329 15.01028,4.39628z" data-paper-data="{&quot;index&quot;:null}" fill="url(#color-17)" stroke="#000000" stroke-width="0"/><path d="M190.29723,347.03825c-3.84086,-0.9065 -7.30601,2.01446 -7.30601,2.01446c0,0 0.50629,-0.92754 1.53417,-4.53824c0.28856,-1.01364 0.76533,-1.43376 1.16397,-2.82657c0.59807,-2.08963 2.21905,-6.41305 2.81334,-8.89803c0.77488,-3.24013 0.16054,-5.41112 1.14782,-9.45367c0.63322,-2.59282 2.28376,-6.31401 2.94152,-9.14024c0.66919,-2.87533 0.85535,-7.33098 1.55044,-10.33458c0.63879,-2.76031 2.27278,-6.54875 2.89299,-9.33745c0.89163,-4.00912 0.7755,-8.50842 1.63089,-12.4121c0.74743,-3.41096 2.46105,-9.21872 3.1244,-12.35943c0.98297,-4.654 1.36633,-11.38732 2.09969,-14.97638c0.48394,-2.36839 1.89543,-6.9384 2.21879,-8.64276c1.90031,-10.01622 1.1547,-22.39875 1.1547,-22.39875l30.5,1c0,0 -1.33252,11.93306 -1.62311,21.05015c-0.10322,3.23848 0.76973,12.92046 0.62851,18.53005c-0.07499,2.9788 -0.66311,9.67345 -0.76118,13.01545c-0.1281,4.36589 -0.26363,12.41645 -0.40209,17.01743c-0.13244,4.40119 -1.26757,10.26626 -1.40144,14.50287c-0.13238,4.18948 0.76851,11.20527 0.69501,14.97528c-0.04894,2.51001 -1.10761,7.84785 -1.17214,10.01059c-0.09614,3.22198 0.8587,6.86332 0.84488,9.01156c-0.04079,6.34212 -0.80843,7.38663 -0.80843,7.38663c0,0 -3.98244,-2.30646 -6.44165,-2c-1.53293,0.19103 -4.68632,-2.03469 -7.92232,-1.8054c-4.69434,0.33263 -10.11471,3.07058 -15.6191,2.82237c-5.24029,-0.2363 -9.42113,-1.25444 -13.48364,-2.21325z" fill="#415166" stroke="#000000" stroke-width="0"/><path d="M294.88534,351.456c-2.62723,1.58414 -4.50655,10.12576 -27.21805,9.48536c-20.63696,-0.5819 -24.48028,-4.61172 -23.93401,-12.46211c0.54627,-7.85039 5.57704,-14.43708 26.18486,-13.30096c20.60782,1.13612 24.9672,16.27771 24.9672,16.27771z" data-paper-data="{&quot;index&quot;:null}" fill="#231f2e" stroke="#000000" stroke-width="0"/><path d="M294.46718,349.05269c0,0 -3.46515,-2.92096 -7.30601,-2.01446c-4.06251,0.95881 -8.24335,1.97695 -13.48364,2.21325c-5.50439,0.24821 -10.92476,-2.48974 -15.6191,-2.82237c-3.23599,-0.22929 -6.38939,1.99643 -7.92232,1.8054c-2.45921,-0.30646 -6.44165,2 -6.44165,2c0,0 -0.76764,-1.04452 -0.80843,-7.38663c-0.01382,-2.14824 0.94102,-5.78957 0.84488,-9.01156c-0.06454,-2.16274 -1.12321,-7.50058 -1.17214,-10.01059c-0.0735,-3.77002 0.82739,-10.7858 0.69501,-14.97528c-0.13387,-4.23661 -1.26899,-10.10168 -1.40144,-14.50287c-0.13846,-4.60098 -0.27398,-12.65155 -0.40209,-17.01743c-0.09806,-3.342 -0.68619,-10.03666 -0.76118,-13.01545c-0.14121,-5.60959 0.73173,-15.29158 0.62851,-18.53005c-0.29059,-9.11709 -1.62311,-21.05015 -1.62311,-21.05015l30.5,-1c0,0 -0.74561,12.38254 1.1547,22.39875c0.32336,1.70437 1.73486,6.27438 2.21879,8.64276c0.73336,3.58906 1.11671,10.32239 2.09969,14.97638c0.66335,3.1407 2.37697,8.94847 3.1244,12.35943c0.85539,3.90369 0.73925,8.40298 1.63089,12.4121c0.62021,2.7887 2.25419,6.57714 2.89299,9.33745c0.6951,3.0036 0.88125,7.45925 1.55044,10.33458c0.65776,2.82624 2.3083,6.54743 2.94152,9.14024c0.98728,4.04256 0.37294,6.21355 1.14782,9.45367c0.59428,2.48498 2.21527,6.8084 2.81334,8.89803c0.39864,1.39281 0.87541,1.81293 1.16397,2.82657c1.02788,3.6107 1.53417,4.53824 1.53417,4.53824z" data-paper-data="{&quot;index&quot;:null}" fill="#415166" stroke="#000000" stroke-width="0"/><path d="M228.14855,131.27065c0.62244,-5.77986 5.54043,-3.51575 11.0523,-3.51575c5.82937,0 10.82503,-2.48241 10.99527,3.77686c0.00314,0.11563 -0.93002,6.12319 1.87973,10.72314c7.61902,12.47339 -6.93794,8.75 -12.875,8.75c-5.93706,0 -18.21884,-3.0354 -14,-7.875c3.125,-3.5848 2.89969,-11.41338 2.9477,-11.85925z" data-paper-data="{&quot;index&quot;:null}" fill="url(#color-18)" stroke="#000000" stroke-width="0"/><path d="M206.35253,193.48771c0,-25.87025 0.41617,-44.50938 20.01205,-44.50938c5.60874,0 21.67461,-0.16105 27.71365,-0.07529c12.22176,0.17355 18.81742,26.119 18.81742,44.58466c0,12.96033 2.88841,27.49076 -3.55455,35.97142c-6.4179,8.44767 -19.04378,10.00415 -28.82262,10.00415c-9.2964,0 -23.07199,-1.52044 -29.39835,-9.24419c-7.00899,-8.55714 -4.76761,-23.13413 -4.76761,-36.73138z" data-paper-data="{&quot;index&quot;:null}" fill="url(#color-19)" stroke="#000000" stroke-width="0"/><path d="M267.15259,200.3502c0.37394,-0.51642 0.73391,-1.03244 1.09557,-1.53251c-0.15642,0.7563 -0.55131,1.24044 -1.09557,1.53251z" data-paper-data="{&quot;index&quot;:null}" fill="#7a3f8f" stroke="#000000" stroke-width="0"/><path d="M248.7333,195.83306c0,-5.25233 0.47165,-11.14919 0.45219,-15.3664c-0.02165,-4.69086 0.43316,-9.33557 0.41403,-12.83331c-0.02769,-5.0638 -0.55529,-10.1066 -0.4771,-13.05173c0.08624,-3.24852 0.66936,-5.122 1.31735,-6.2862c0.71023,-1.27603 1.54782,-1.69999 3.08168,-2.14855c3.19681,-0.93487 5.3182,-1.10985 8.27549,0.51628c2.71751,1.49427 4.21638,6.08349 6.81344,10.51402c2.39342,4.08313 3.80099,9.63101 6.19285,16.24931c1.16324,3.21871 1.96047,6.4576 2.68154,10.22708c-0.07853,0.36674 -0.14409,0.73391 -0.19464,1.10074c-0.40454,2.97629 -0.0478,7.68717 -2.9479,9.22739c-0.37255,0.0237 -0.72538,0.07404 -1.06074,0.14825c-1.45857,-1.71428 -2.60176,-3.47786 -3.91465,-5.47702c-0.09149,-0.13931 -0.45525,-0.69323 -0.54674,-0.83254c-0.04435,-0.06979 -0.12234,-0.1161 -0.21116,-0.1161c-0.13515,0 -0.24526,0.10725 -0.24985,0.24129l-0.01977,0.49841l0.03097,0.00123c-0.57508,2.92242 -0.05812,6.50759 -0.04884,9.42884c-0.61135,0.81081 -1.19623,1.67454 -1.81628,2.5147c-0.07229,0.09795 -0.14385,0.18247 -0.21507,0.25532c-1.82139,0.35135 -4.44601,-0.45228 -6.04769,-0.76962c-0.25567,-0.05066 -0.45844,-0.13138 -0.62309,-0.23785c-0.28611,-0.79175 -0.65044,-1.51996 -1.03439,-2.08538c-0.00653,-0.01775 -0.01315,-0.03555 -0.01988,-0.0534l-0.00873,-0.02318l0.04826,-0.0246l-0.22465,-0.44069c-0.04046,-0.08358 -0.12608,-0.14123 -0.22516,-0.14123c-0.13807,0 -0.25,0.11193 -0.25,0.25c0,0.03308 0.00643,0.06466 0.0181,0.09356l0.17433,0.46248c0.38979,1.03412 0.50829,1.90841 1.24499,2.38514c0.33237,1.04069 0.48401,1.98449 0.28226,2.89101c-0.88284,0.16731 -1.74496,0.2974 -2.47348,0.86113c-1.07537,0.83212 -2.28294,2.15346 -3.50962,2.72414c-1.06853,0.49711 -3.05539,0.24423 -4.52464,0.14453c-0.01816,-1.00119 -0.03678,-2.01274 -0.05768,-3.03503c-0.05262,-2.57267 -0.32574,-4.96362 -0.32574,-7.81203z" data-paper-data="{&quot;index&quot;:null}" fill="url(#color-20)" stroke="#000000" stroke-width="0"/><path d="M252.0952,203.5079c-0.51235,7.14287 -11.21264,24.3835 -12.01997,30.01924c-0.92977,6.4904 -14.82968,21.3546 -16.14803,24.94717c-1.234,3.36269 -2.61948,6.38437 -4.12136,6.38437c-0.94258,0 -3.96506,0.51155 -7.6084,-1.39107c-2.66412,-1.39126 -5.66021,-4.76066 -8.41782,-7.1428c-2.05223,-1.77282 -3.7511,-5.14812 -5.36781,-7.0753c-1.91875,-2.28722 -4.27899,-3.80041 -4.70382,-6.1916c-0.60541,-3.40756 -0.1843,-5.81024 0.07937,-8.86353c0.36548,-4.23239 0.88096,-9.17048 1.99117,-14.89454c0.66106,-3.40831 0.92652,-8.60516 1.70577,-12.78045c0.5388,-2.88695 1.56404,-9.13876 2.06394,-12.26725c1.39186,-8.71057 2.30208,-14.47751 4.37784,-20.18066c2.39186,-6.57165 3.79942,-12.08043 6.19284,-16.13478c2.59706,-4.3993 4.09594,-8.95617 6.81345,-10.43991c2.95729,-1.61466 5.07868,-1.44093 8.27549,-0.51264c1.53386,0.4454 2.37145,0.86638 3.08168,2.13341c0.64799,1.15599 27.73111,-2.98376 27.81735,0.24189c0.07819,2.92438 -3.60884,48.53216 -4.01169,54.14845z" data-paper-data="{&quot;index&quot;:null}" fill="#7a3f8f" stroke="#000000" stroke-width="0"/><path d="M269.84798,106.53105c2.84312,19.91083 -10.24276,27.12061 -29.79562,27.12061c-19.55286,0 -35.61613,-7.66478 -31.12694,-30.51413c4.09097,-20.82251 10.48862,-28.67076 30.04148,-28.67076c19.55286,0 27.93168,11.40907 30.88108,32.06427z" data-paper-data="{&quot;index&quot;:null}" fill="url(#color-21)" stroke="#000000" stroke-width="0"/><g stroke="#000000" stroke-width="0"><g data-paper-data="{&quot;index&quot;:null}" fill="#231f2e"><g><path d="M183.74751,266.56116c-4.73117,3.20787 -7.86753,4.66757 -11.56678,1.10434c-3.69925,-3.56323 -2.72707,-8.46331 1.23845,-12.58021c3.96553,-4.1169 11.32083,-4.02134 15.02007,-0.45812c3.69925,3.56323 2.51265,7.04919 -4.69176,11.93399z" data-paper-data="{&quot;index&quot;:null}"/></g><path d="M194.59965,244.1152c3.48101,-2.40986 8.31602,-2.39918 12.61818,-1.91585c5.36106,0.60229 9.87679,2.49108 9.70603,7.76415c-0.16625,5.13356 -4.93245,9.14514 -10.64561,8.96012c-5.71316,-0.18502 -10.57075,-5.7089 -10.4045,-10.84246c0.06797,-2.09887 -2.54414,-3.08673 -1.27411,-3.96595z"/><g><path d="M211.54196,261.40168c3.21214,4.72826 4.67468,7.86332 1.11478,11.56577c-3.55989,3.70246 -8.46084,2.73472 -12.58132,-1.22709c-4.12048,-3.96181 -4.03157,-11.31718 -0.47168,-15.01965c3.55989,-3.70246 7.04692,-2.51902 11.93822,4.68097z" data-paper-data="{&quot;index&quot;:null}"/></g><path d="M190.6406,269.96299c-7.45194,-0.24134 -11.20043,-15.61487 -10.95909,-23.06682c0.24134,-7.45194 -0.14527,-6.50812 7.30667,-6.26678c7.45193,0.24134 21.40884,9.34203 21.1675,16.79397c-0.24134,7.45194 -10.06314,12.78096 -17.51507,12.53963z"/><g><path d="M197.82752,270.83667c-0.36572,5.70444 -1.13501,9.07723 -6.2179,9.81568c-5.08289,0.73846 -8.35842,-3.03338 -9.18025,-8.69014c-0.82183,-5.65676 3.76245,-11.40948 8.84535,-12.14795c5.08289,-0.73845 7.10972,2.33594 6.55282,11.0224z" data-paper-data="{&quot;index&quot;:null}"/></g></g><path d="M180.09633,194.43226c1.04536,-4.9264 1.26837,-13.01014 2.53164,-17.5571c1.49917,-5.39605 4.34292,-11.47059 6.08579,-15.76496c6.02856,-14.85423 11.76486,-21.37377 15.57678,-18.03748c4.32024,3.78118 6.71536,0.55454 6.65546,6.9587c-0.02774,2.9654 -1.68432,10.59169 -1.93699,17.26569c-0.12619,3.33309 -1.16394,9.554 -1.20757,14.0479c-0.0677,6.96955 -1.94282,16.80678 -2.59013,23.99299c-0.52891,5.87168 0.386,11.95409 0.1794,16.66132c-0.27947,6.3676 -3.75331,10.57365 -4.3198,14.03793c-1.26918,7.76135 1.62715,10.63559 -2.24955,10.63096c-4.4548,-0.00534 -14.42203,2.0815 -18.72975,-2.70555c-2.44328,-2.71517 -1.16797,-2.64512 -1.77744,-10.78437c-0.28094,-3.75181 -3.36191,-8.6906 -2.94242,-14.03181c0.63011,-8.02282 3.06171,-16.87762 4.72459,-24.71419z" data-paper-data="{&quot;index&quot;:null}" fill="#763d8b"/></g></g></g></svg>