<svg version="1.1" xmlns="http://www.w3.org/2000/svg" xmlns:xlink="http://www.w3.org/1999/xlink" width="756.37915" height="420.19301" viewBox="0,0,756.37915,420.19301"><defs><radialGradient cx="328.64143" cy="-11.65074" r="309.76497" gradientUnits="userSpaceOnUse" id="color-1"><stop offset="0" stop-color="#ffffff" stop-opacity="0.83137"/><stop offset="1" stop-color="#ffffff" stop-opacity="0"/></radialGradient><linearGradient x1="-15.85828" y1="181.05805" x2="144.57423" y2="181.05805" gradientUnits="userSpaceOnUse" id="color-2"><stop offset="0" stop-color="#000000"/><stop offset="1" stop-color="#000000" stop-opacity="0"/></linearGradient><linearGradient x1="738.18959" y1="177.8148" x2="577.75707" y2="177.8148" gradientUnits="userSpaceOnUse" id="color-3"><stop offset="0" stop-color="#000000"/><stop offset="1" stop-color="#000000" stop-opacity="0"/></linearGradient><linearGradient x1="360.25464" y1="-17.14016" x2="360.25464" y2="110.48748" gradientUnits="userSpaceOnUse" id="color-4"><stop offset="0" stop-color="#000000"/><stop offset="1" stop-color="#000000" stop-opacity="0"/></linearGradient><linearGradient x1="359.25113" y1="377.38042" x2="359.25113" y2="249.75278" gradientUnits="userSpaceOnUse" id="color-5"><stop offset="0" stop-color="#000000"/><stop offset="1" stop-color="#000000" stop-opacity="0"/></linearGradient></defs><g transform="translate(18.18957,42.81261)"><g stroke-miterlimit="10"><g stroke="#000000" stroke-linecap="butt"><path d="M-9.24999,374.25003v-387h735v387z" fill="#212121" stroke-width="0"/><path d="M152.99938,127.26764c-0.0176,0.24938 -0.26698,0.23178 -0.26698,0.23178l-0.00634,-0.00044c-0.4059,-0.02865 -1.88378,0.07413 -2.1595,-0.21887c-0.44575,-0.4737 -0.27246,-3.3323 -0.2711,-4.02571c-0.43033,-0.18924 -1.50809,-0.55735 -1.76118,-0.94989c-0.45788,-0.71021 0.27633,-2.35938 -0.19501,-2.97664c-0.42199,-0.55263 -2.17788,-0.49059 -2.78284,-0.93809c-0.5959,-0.44079 -1.09043,-1.46901 -1.53065,-2.06977c-0.43573,-0.59463 -1.2846,-1.38956 -1.51354,-2.08628c-0.74448,-2.26571 0.18079,-5.73305 -3.27327,-5.7342c-0.32934,-0.00019 -1.42196,0.09814 -1.66723,-0.1273c-0.25197,-0.23161 0.05239,-0.75061 -0.16736,-1.01299c-0.41326,-0.49341 -1.65677,-0.35974 -2.40439,-0.64565c0,2.34548 0,4.69097 0,7.03645c0,1.31209 0.23872,3.55544 -0.99355,4.48819c-0.66153,0.50074 -2.54492,-0.20371 -2.96075,0.19163c-0.24409,0.23206 -0.04548,2.40165 -0.04555,2.81506c-0.0003,1.88962 -0.05873,5.01699 -2.06797,6.13226c-0.86666,0.48105 -3.125,0.12101 -4.11987,0.12147c-3.50004,0.0016 -7.00007,0.0014 -10.50011,0.0014c-3.5,0 -7,0 -10.5,0c-3.55263,0 -6.98012,0.00531 -10.50048,-0.49317c-3.68224,-0.5214 -6.14241,-2.48209 -9.86782,-2.49644c-3.49966,-0.01349 -6.99934,-0.01035 -10.49902,-0.01037c-1.147,-0.00001 -2.83828,-0.32354 -3.93099,-0.00973c-1.79572,0.5157 -3.83719,2.44896 -5.39687,3.48426c-0.74404,0.43035 -0.43106,2.2769 -0.60056,3.10429c-0.50559,2.46806 -1.97839,3.92946 -2.00113,6.4631c-0.0314,3.49899 -0.01532,6.99857 -0.01534,10.49769c0,1.88963 -0.33187,5.10294 0.89616,6.65944c0.46881,0.5942 2.57736,0.27704 3.24188,0.28401c0.49997,0.00525 0.99994,0.01049 1.49992,0.01573l0.11467,0.0012c0,0 0.24998,0.00262 0.24736,0.25261c-0.00262,0.24999 -0.25261,0.24736 -0.25261,0.24736c-0.49997,-0.00525 -1.11462,-0.0117 -1.61459,-0.01694c-0.88315,-0.00926 -2.99625,0.32794 -3.62917,-0.47428c-1.31952,-1.67247 -1.00362,-4.95371 -1.00362,-6.96914c0.00001,-3.50062 -0.01606,-7.00169 0.01535,-10.50218c0.02326,-2.59242 1.49938,-4.06017 2.01127,-6.55896c0.22875,-1.11662 -0.16519,-2.71284 0.81387,-3.42052c1.6093,-1.06825 3.6775,-3.01469 5.53537,-3.54825c1.14872,-0.3299 2.86845,-0.00971 4.06901,-0.0097c3.50033,0.00002 7.00064,-0.00312 10.50095,0.01037c3.76655,0.01452 6.23879,1.97786 9.936,2.50138c3.49705,0.49518 6.90093,0.48823 10.43038,0.48823c3.5,0 7,0 10.5,0c3.49996,0 6.99992,0.0002 10.49988,-0.0014c0.88808,-0.00041 3.12582,0.35858 3.87744,-0.05863c1.83743,-1.0199 1.81036,-3.98548 1.81063,-5.69518c0.00009,-0.58786 -0.23836,-2.75961 0.20104,-3.17735c0.60354,-0.5738 2.29883,0.30546 3.00349,-0.22793c1.06655,-0.80733 0.79531,-2.96526 0.79531,-4.08952c0,-2.47606 0,-4.95212 0,-7.42818c-0.52882,-0.94259 0,-4.03929 0,-5.07182c0,-2.33334 0,-4.66666 0,-7c0,-0.40657 0,-0.81314 0,-1.21971c-0.80658,-0.2296 -1.61316,-0.45919 -2.41974,-0.68879c-3.37389,-0.9604 -6.70351,-1.90987 -10.14686,-2.58456c-3.43469,-0.67298 -6.86937,-1.34598 -10.30406,-2.01896c-0.46445,-0.091 -1.74885,-0.12722 -2.08691,-0.44875c-1.62592,-1.54644 -1.04243,-6.55785 -1.04243,-8.56307c0,-3.5 0,-7 0,-10.5c0,-3.49999 0.0001,-6.99999 -0.00002,-10.49999c-0.00005,-1.65915 0.37539,-3.8349 -0.00509,-5.44241c-0.37426,-1.58122 -1.72232,-2.91305 -2.1202,-4.51396c-0.55792,-2.27272 -1.08708,-4.54107 -1.5526,-6.83458c-0.19199,-0.94588 -0.20508,-2.49061 -0.87406,-3.18898c-0.93464,-1.01787 -2.93406,-2.48417 -3.43062,-3.76141c-0.54405,-1.39939 -0.01227,-4.08433 0.01009,-5.59412c0.0229,-1.54595 0.08231,-3.17351 1.18003,-4.40913c0.63829,-0.71847 2.39538,-1.15045 2.82037,-1.97257c0.23552,-0.4556 -0.02792,-1.84607 -0.02792,-2.3852c-0.00001,-3.49911 0.01362,-6.99848 -0.02105,-10.49742c-0.01466,-1.47961 0.33764,-3.51724 -0.0411,-4.93783c-0.41728,-1.56516 -1.86968,-3.3173 -2.66713,-4.73901c-1.51001,-2.7798 0.08552,-7.21667 -1.10121,-10.33792c-1.25312,-3.29588 -2.51564,-6.46924 -4.13753,-9.60167c-1.72991,-3.34106 -3.48359,-5.60869 -6.142,-8.26829c-2.19307,-2.19404 -4.12565,-4.26947 -5.848,-6.853c0,0 -0.13868,-0.20802 0.06934,-0.34669c0.20802,-0.13867 0.34669,0.06934 0.34669,0.06934c1.70462,2.55692 3.61458,4.60488 5.7856,6.77688c2.6881,2.68929 4.4828,5.0128 6.23238,8.39186c1.63057,3.14921 2.9011,6.3405 4.16088,9.65388c0.87695,2.30649 0.7685,4.50024 0.80843,6.95355c0.01611,0.99007 -0.23882,2.46068 0.2615,3.31746c0.82068,1.46313 2.28373,3.24025 2.71417,4.85481c0.39186,1.46981 0.04283,3.53472 0.05795,5.06168c0.03467,3.5006 0.02106,7.00161 0.02107,10.50238c0,0.63958 0.2628,2.05245 -0.02792,2.61481c-0.47804,0.92471 -2.20199,1.29978 -2.89074,2.07504c-1.01579,1.1434 -1.03277,2.65957 -1.05388,4.08446c-0.0212,1.43055 -0.55492,4.09143 -0.04402,5.40554c0.46408,1.1937 2.45081,2.64377 3.33289,3.60441c0.74379,0.83671 0.77455,2.33772 0.99578,3.4277c0.46418,2.28692 0.99185,4.54865 1.54818,6.81484c0.38854,1.60493 1.74479,2.92786 2.12117,4.518c0.39108,1.65224 0.01848,3.85518 0.01853,5.55755c0.00011,3.50001 0.00002,7 0.00002,10.5c0,3.5 0,7 0,10.5c0,1.46947 -0.02572,2.86164 0.1148,4.26154c2.81212,-0.19029 4.75684,-2.54337 7.27128,-3.91488c3.06737,-1.67311 6.13284,-3.34978 9.20245,-5.01878c2.79328,-2.09892 5.59255,-4.18986 8.38774,-6.28625c2.65984,-1.99487 5.50196,-4.86647 8.58478,-6.10469c1.69277,-0.6799 5.03752,-2.54243 6.91225,-1.61976c0.78465,0.38617 1.57625,1.94502 2.39816,2.53947c1.40565,1.01664 3.22899,2.82184 4.87131,3.37181c1.21232,0.40597 3.14103,0.04273 4.41941,0.04391c3.49992,0.00325 6.99985,0.00147 10.49977,0.00147c3.62842,0 6.9005,0.1722 10.46374,0.87252c1.00649,0.20017 3.85875,-0.44212 4.60326,0.18468c0.30699,0.25845 0.07942,0.7531 0.23942,1.05937c0.8208,1.57121 2.63775,1.99175 3.06608,3.87038c0.84589,3.71009 2.38316,6.04697 4.52826,9.17431c2.01767,2.94158 3.77756,5.84015 5.3961,9.01937c1.59382,3.13065 3.3781,6.08613 5.22798,9.07175c2.32963,3.75992 4.2835,3.74603 8.51192,3.7476c3.49999,0.00001 6.99996,0.00002 10.49995,0.00002c0.16666,0 0.33334,0 0.5,0h0.05134c0,0 0.25,0 0.25,0.25c0,0.25 -0.25,0.25 -0.25,0.25c-0.16666,0 -0.38468,0 -0.55134,0c-3.50001,0 -7.00003,-0.00001 -10.50004,-0.00002c-4.37531,-0.00162 -6.51649,-0.07788 -8.93685,-3.98425c-1.85717,-2.99738 -3.6484,-5.96523 -5.24853,-9.10826c-1.60905,-3.16057 -3.35698,-6.03902 -5.36285,-8.96339c-2.17529,-3.17136 -3.74441,-5.57836 -4.60342,-9.34599c-0.40245,-1.76514 -2.23133,-2.23694 -3.02176,-3.75002c-0.14139,-0.27065 0.11532,-0.71173 -0.11827,-0.90838c-0.54186,-0.45619 -3.54169,0.08596 -4.37767,-0.07656c-3.53323,-0.69442 -6.76887,-0.86313 -10.36731,-0.86313c-3.50008,0 -7.00016,0.00177 -10.50024,-0.00147c-1.34146,-0.00124 -3.30151,0.35757 -4.57772,-0.06979c-1.70066,-0.5695 -3.55396,-2.39092 -5.00556,-3.44079c-0.78101,-0.56487 -1.61972,-2.14843 -2.32593,-2.496c-1.68632,-0.82993 -4.9832,1.02384 -6.50511,1.63511c-3.03698,1.21981 -5.84969,4.07464 -8.47113,6.04072c-2.80481,2.1036 -5.60909,4.20797 -8.41742,6.30688c-3.07578,1.68268 -6.15547,3.35827 -9.23335,5.03711c-2.59424,1.41504 -4.54095,3.76296 -7.45355,3.97308c0.0698,0.53647 0.16724,1.07555 0.30303,1.62197c0.08471,0.34087 0.1828,1.60207 0.41204,1.8201c0.22924,0.21803 1.49377,0.25284 1.83846,0.32038c3.43469,0.67298 6.86938,1.34598 10.30407,2.01896c3.45709,0.67737 6.80033,1.63013 10.1876,2.59434c0.76095,0.21661 1.5219,0.43321 2.28285,0.64982c0,-0.08681 0,-0.17362 0,-0.26043c0,0 0,-0.25 0.25,-0.25c0.25,0 0.25,0.25 0.25,0.25c0,0.13425 0,0.26851 0,0.40276c2.43866,0.69418 4.87732,1.38836 7.31598,2.08254c3.36628,0.95823 6.73254,1.91647 10.09882,2.8747c3.36395,0.95757 6.6693,2.16617 9.98919,3.26707c2.02175,0.67042 3.61173,1.09137 5.74504,1.10559c0.5045,0.00337 2.29735,-0.25371 2.6664,0.08164c0.3503,0.31832 0.18408,1.742 0.18417,2.17974c0.00071,3.50002 0.00041,7.00003 0.00041,10.50005c0,3.5 0,7 0,10.5c0,1.30577 0.66548,0.99539 1.67849,1.69272c2.03409,1.40021 4.53112,2.01918 5.84788,4.39423c1.03241,1.87968 3.36748,2.93054 4.40241,4.75678c0.59488,1.04972 0.71029,2.76467 1.00813,3.93906c0.91061,3.59063 2.4184,6.19973 4.3482,9.3517c1.47785,2.4138 5.21579,6.23243 5.52816,8.99042c0.02256,0.22571 -0.03052,1.20086 0.0969,1.36287c0.20724,0.26348 0.74766,0.06744 0.94771,0.33642c0.2698,0.36276 -0.17401,1.7357 0.06481,1.96786c0.10779,0.10478 1.59652,-0.04016 1.82976,-0.03613l0.00188,0.00003c0,0 0.24997,0.00432 0.24564,0.25429c-0.00432,0.24997 -0.25429,0.24564 -0.25429,0.24564l-0.00188,-0.00003c-0.40414,-0.00699 -1.88289,0.17346 -2.16963,-0.10528c-0.43249,-0.42042 0.18331,-1.62354 -0.11749,-2.02799c-0.1978,-0.26596 -0.73459,-0.06518 -0.93951,-0.3257c-0.20995,-0.26692 -0.16663,-1.27412 -0.20142,-1.62226c-0.0824,-0.99272 -1.1199,-2.05411 -1.67045,-2.88193c-1.29554,-1.94799 -2.56502,-3.90186 -3.78662,-5.89712c-1.9532,-3.1902 -3.48406,-5.85284 -4.40643,-9.48986c-0.28538,-1.12528 -0.3906,-2.81339 -0.95847,-3.81545c-1.03025,-1.81796 -3.3575,-2.88752 -4.4047,-4.76086c-1.45143,-2.61795 -7.58908,-3.55344 -7.58908,-6.32939c0,-3.5 0,-7 0,-10.5c0,-3.49998 0.0003,-6.99997 -0.00041,-10.49995c-0.00005,-0.25254 0.13976,-1.66424 -0.02042,-1.8098c-0.18487,-0.16799 -1.99667,0.05055 -2.33349,0.0483c-2.18078,-0.01454 -3.83484,-0.44648 -5.89907,-1.13099c-3.31309,-1.09864 -6.61166,-2.30515 -9.9687,-3.26076c-3.36628,-0.95823 -6.73255,-1.91647 -10.09882,-2.8747c-2.39303,-0.68119 -4.78605,-1.36239 -7.17908,-2.04358c0,0.35913 0,0.71825 0,1.07738c0,2.33334 0,4.66666 0,7c0,0.66666 0,1.33334 0,2c0,0.97007 0,1.94012 0,2.91019c0.50842,0.52794 2.27386,0.26446 2.7877,0.87797c0.20839,0.24881 -0.11652,0.74629 0.12242,0.96591c0.10086,0.09271 1.16453,-0.0046 1.32903,-0.00458c3.80632,0.00127 2.93124,3.59211 3.74812,6.07812c0.20876,0.63533 1.04126,1.40017 1.44182,1.94682c0.40686,0.55522 0.87778,1.55875 1.4247,1.96332c0.68677,0.50802 2.35416,0.34419 2.88289,1.03662c0.54284,0.7109 -0.23717,2.30338 0.21785,3.00915c0.2047,0.31751 1.4168,0.74062 1.75992,0.94796c0.07959,0.62202 -0.10225,3.61745 0.21625,3.95593c0.10822,0.115 1.59319,0.046 1.83057,0.06276l0.00633,0.00044c0,0 0.24938,0.0176 0.23178,0.26698z" fill="#000000" stroke-width="0.5"/><path d="M492.99928,67.23086c0.01916,0.24926 -0.2301,0.26843 -0.2301,0.26843l-0.42248,0.03248c-2.24909,0.17291 -4.0477,0.96895 -6.33949,0.97244c-0.91348,0.00137 -2.54892,-0.19302 -3.38193,0.20376c-0.70003,0.33344 -1.04786,1.46765 -1.77901,1.77277c-0.312,0.1302 -1.75433,-0.20936 -1.91901,-0.04381c-0.13919,0.13993 0.07275,2.02009 0.07275,2.3237c0,3.5 0,7 0,10.5c0,3.50982 0.08343,7.01391 -0.21256,10.51218c-0.2149,1.16348 -7.18458,1.1567 -8.40484,0.27513c-0.4173,-0.30147 -0.7618,-1.3432 -1.00786,-1.80256c-0.87108,-0.76469 -2.03128,-1.16244 -2.85719,-1.90634c-0.71269,-0.64193 -1.09188,-2.43557 -1.90493,-2.86831c-0.64429,-0.34292 -2.61699,0.02931 -3.38254,0.0293c-0.9168,-0.00002 -3.99246,0.48384 -4.6695,-0.18375c-0.25119,-0.24769 0.01171,-0.73986 -0.16456,-1.04544c-0.61885,-1.07282 -2.92478,-2.18951 -3.93337,-2.9552c-0.04328,-0.04309 -0.0876,-0.08866 -0.13288,-0.13646c-0.73291,1.15661 -1.69,2.62577 -2.39477,3.21861c-1.05646,0.88867 -3.43059,1.28436 -4.72942,1.90373c-0.14087,0.01232 -0.31371,0.03302 -0.51112,0.0591c-0.63416,0.60491 -1.26707,1.20992 -1.90573,1.80528c-2.56014,2.38657 -5.12027,4.77313 -7.68041,7.1597c-2.39788,2.23531 -3.57131,6.03221 -5.08859,8.93164c-0.01778,1.4567 -0.62676,4.53634 -0.04174,5.83588c0.43807,0.9731 2.48569,2.17175 3.30671,2.8988c2.62027,2.32037 5.24056,4.64075 7.86083,6.96113c1.88804,1.67195 3.78097,3.3276 5.61881,5.04698c2.99523,0 5.99045,0 8.98568,0c3.5,0 7,0 10.5,0c3.5,0 7,0 10.5,0c3.53816,0 6.92239,-0.11724 10.43424,-0.55622c3.56645,-0.4458 6.61367,-1.61306 9.97502,-2.86713c1.13518,-0.42351 3.25936,-0.69718 4.18127,-1.43698c1.2419,-0.99658 2.0598,-3.78729 2.7772,-5.19794c1.70091,-3.31536 4.79487,-4.4092 7.49161,-6.98951c2.48089,-2.37377 3.06083,-5.98297 4.5753,-9.10873c1.23199,-2.4622 0.31521,-7.57535 0.31529,-10.33961c0.00006,-2.18485 0.20887,-5.60523 1.99503,-7.25595c0.60557,-0.55965 2.1111,-0.81593 2.88839,-1.10913c3.27677,-1.23604 6.53723,-2.5266 9.85863,-3.63758c3.31529,-1.10894 6.62999,-2.2197 9.94599,-3.32653c3.18748,-1.43559 6.37666,-2.86739 9.56505,-4.30094c3.80385,-1.71027 3.74505,-4.73438 3.7469,-8.47894c0.00006,-1.83331 0.00007,-3.66663 0.00007,-5.49994c0,-0.30794 -0.13631,-1.45175 0.06695,-1.67027c0.80141,-0.86156 2.88639,0.13321 3.61061,0.53529c2.69876,1.49833 7.12246,2.96345 9.19507,4.97645c2.50527,2.43321 5.01516,4.86176 7.51514,7.30039c1.3365,0.88813 7.10945,5.64502 7.61392,3.17963l0.00338,-0.0165c0,0 0.05012,-0.24492 0.29504,-0.19481c0.24492,0.05012 0.19481,0.29504 0.19481,0.29504l-0.00338,0.0165c-0.69268,3.38516 -6.83297,-1.82816 -8.41807,-2.891c-2.52098,-2.43878 -5.03305,-4.88682 -7.5492,-7.33059c-2.02427,-1.96603 -6.4373,-3.42555 -9.08942,-4.89798c-0.53333,-0.2961 -2.41269,-1.26523 -3.00181,-0.63189c-0.10521,0.11311 0.06695,1.59389 0.06695,1.82973c0,1.66669 -0.00002,3.33338 -0.00007,5.00007c-0.00194,3.93767 -0.04276,7.13677 -4.04186,8.93484c-3.19597,1.43696 -6.39121,2.87557 -9.58804,4.31059c-3.3225,1.11359 -6.64626,2.22344 -9.96943,3.33502c-3.31539,1.10897 -6.56993,2.39742 -9.84078,3.63123c-0.70422,0.26564 -2.18552,0.50948 -2.72549,1.0085c-1.67993,1.55254 -1.83433,4.83642 -1.83439,6.88877c-0.00009,2.92489 0.88153,7.91513 -0.36533,10.5576c-1.54445,3.18762 -2.13965,6.82171 -4.67959,9.25198c-2.65524,2.5406 -5.75121,3.59709 -7.39161,6.85489c-0.75826,1.49098 -1.5904,4.30237 -2.90994,5.36125c-0.98253,0.78844 -3.12065,1.06823 -4.31943,1.51547c-3.39667,1.26725 -6.48237,2.44413 -10.08777,2.89481c-3.53193,0.44149 -6.93804,0.56009 -10.49626,0.56009c-3.5,0 -7,0 -10.5,0c-3.5,0 -7,0 -10.5,0c-2.81827,0 -5.63654,0 -8.45482,0c0.53904,0.51125 1.07278,1.02871 1.59967,1.55445c2.47764,2.47224 4.95643,4.94331 7.43138,7.41824c2.60447,2.60445 4.16568,5.62107 5.02191,9.09911c0.65945,2.67872 0.40516,8.01794 2.22778,9.97584c2.41028,2.58918 4.29191,5.48136 6.27448,8.40738c2.46212,2.4861 5.30141,4.42378 7.75742,6.84349c3.46897,0.11962 6.91958,0.20054 10.39423,0.20106c3.49998,0.00054 6.99998,0.00042 10.49996,0.00042c3.5,0 7,0 10.5,0c2.66086,0.0374 7.41267,3.55812 8.8716,5.59619c1.96573,2.74606 6.53081,2.20914 9.12163,4.41828c2.13969,1.82448 4.17809,3.86363 6.63698,4.97504c0.65116,0.29432 0.7813,0.97102 1.54484,0.95185c3.58473,0.0377 6.85216,-0.16837 10.39022,-0.75023c3.35642,-0.55197 6.63827,-2.3445 9.86511,-3.42721c1.55716,-0.52248 3.56605,-1.24362 4.75547,-2.44649c0.53375,-0.53979 0.70963,-1.7546 1.35734,-2.16315c0.58744,-0.37054 1.95615,-0.14764 2.62708,-0.14901c3.16459,-0.00647 7.58191,-0.77973 10.52255,0.37862c1.1726,0.46191 2.45354,1.18962 3.68265,1.45423c0.86752,0.18677 2.28017,-0.24916 3.06206,0.17065c0.79657,0.42768 1.61586,2.15592 2.15697,2.89156c2.13554,2.90331 3.21866,6.05191 4.60865,9.39054c0.25837,0.62058 0.54472,3.58646 0.72273,3.76684c0.2342,0.23733 0.76635,-0.22075 1.00016,0.01697c0.40751,0.41432 -0.14965,1.59065 0.05292,2.07962c0.32787,0.79145 1.80041,1.77351 2.42069,2.39378c1.96191,1.96191 1.00425,3.09288 1.58844,5.53129c0.3848,1.60617 0.87966,2.61306 0.91436,4.35945c0.03976,2.00117 0.09346,4.00233 0.09433,6.00396c0.00023,0.52288 -0.26414,1.94688 -0.02907,2.38108c0.18037,0.33316 1.25428,0.78372 1.59112,1.00385l0.32593,0.213c0,0 0.20928,0.13676 0.07252,0.34604c-0.13676,0.20927 -0.34604,0.07251 -0.34604,0.07251l-0.32594,-0.21299c-0.42268,-0.27622 -1.51987,-0.74581 -1.75729,-1.18435c-0.29597,-0.5467 -0.03096,-1.9905 -0.03123,-2.61891c-0.00086,-1.99839 -0.05453,-3.99631 -0.09423,-5.99425c-0.03446,-1.73428 -0.51873,-2.65855 -0.9007,-4.25289c-0.56659,-2.36495 0.4038,-3.43467 -1.45576,-5.29423c-0.67773,-0.67773 -2.16518,-1.67761 -2.52906,-2.55597c-0.13165,-0.31778 0.2216,-1.74848 0.05253,-1.92038c-0.23367,-0.23757 -0.7655,0.22081 -0.99957,-0.01637c-0.33818,-0.34268 -0.53011,-3.2093 -0.82844,-3.92588c-1.37546,-3.30373 -2.43849,-6.41602 -4.54983,-9.28644c-0.48469,-0.65895 -1.29455,-2.37354 -1.9907,-2.74731c-0.69017,-0.37055 -2.13901,0.04809 -2.93078,-0.12237c-1.25809,-0.27086 -2.56134,-1.00539 -3.76067,-1.47782c-2.86714,-1.12941 -7.24832,-0.35016 -10.33827,-0.34384c-0.54922,0.00113 -1.8902,-0.22527 -2.36135,0.07192c-0.56077,0.35372 -0.78367,1.60144 -1.26855,2.09181c-1.24562,1.25971 -3.32245,2.02221 -4.95195,2.56896c-3.25441,1.09196 -6.55708,2.88972 -9.94302,3.44655c-3.56482,0.58625 -6.86494,0.79481 -10.47662,0.75682c-0.93228,-0.03341 -0.99619,-0.6575 -1.74552,-0.9962c-2.50936,-1.13423 -4.57731,-3.19294 -6.75545,-5.0502c-2.65031,-2.25987 -7.15122,-1.64032 -9.20379,-4.50771c-1.33482,-1.8647 -6.02438,-5.43132 -8.46503,-5.38724c-3.5,0 -7,0 -10.5,0c-3.50002,0 -7.00002,0.00012 -10.50004,-0.00042c-3.53229,-0.00054 -7.07126,0.08512 -10.59171,-0.24176c-2.69281,-2.36101 -5.41339,-4.4069 -7.9461,-6.9853c-1.98932,-2.91028 -3.84985,-5.80139 -6.2542,-8.3842c-1.92994,-2.07318 -1.65591,-7.38849 -2.34731,-10.19701c-0.83472,-3.39069 -2.34656,-6.3217 -4.88996,-8.86507c-2.47482,-2.4748 -4.95348,-4.94575 -7.43099,-7.41785c-2.47776,-2.47235 -5.10756,-4.76083 -7.72767,-7.08105c-2.62027,-2.32037 -5.24056,-4.64075 -7.86084,-6.96113c-0.88935,-0.78756 -2.94851,-1.99577 -3.43115,-3.06788c-0.63201,-1.4039 -0.04426,-4.61518 0.01286,-6.16345c1.47146,-2.98916 2.79336,-6.9013 5.23246,-9.17504c2.56014,-2.38657 5.12027,-4.77313 7.68041,-7.1597c0.46849,-0.43673 0.93393,-0.87855 1.39903,-1.32167c-1.67431,0.23496 -4.04856,0.53997 -4.84506,-0.02497c-0.70277,-0.49845 -1.39873,-3.63486 -1.45511,-4.46347c-0.021,-0.3305 -0.10212,-0.97548 -0.16627,-1.68824c-0.17354,-0.0751 -0.34636,-0.15489 -0.51844,-0.23968c-3.42722,-1.68877 -6.23158,-1.56106 -10.02882,-1.56208c-3.79607,-0.00004 -6.61128,-0.14974 -8.65699,3.48065c-0.10627,1.57934 0.27988,5.38108 -1.26505,6.42753c-1.17187,0.79376 -2.54548,-0.35319 -3.74935,0.7683c-2.53503,0.29387 -5.04357,0.3231 -7.59226,0.32328c-0.68104,0.00005 -2.24613,-0.30971 -2.53456,0.30813c-1.8522,3.19424 -4.03019,5.50855 -6.627,8.12192c-1.34539,1.35397 -2.16669,2.89159 -3.35495,4.25708c-0.99918,1.14821 -2.90239,2.01602 -4.15922,2.88493c-1.81277,1.25326 -2.22156,4.04368 -3.836,5.07704c-0.8217,0.52595 -3.1286,0.26389 -4.11411,0.33717c-3.50317,0.00784 -7.00634,0.01358 -10.50952,0.01382c-3.5,0.00024 -7.00002,0.0001 -10.50002,0.00011c-3.5,0.00001 -7,0.00001 -10.5,0.00001c-0.5482,-0.10798 -0.43345,1.65959 -0.43335,2.24161c0.00042,2.49999 -0.00048,4.99999 -0.00072,7.49999c0,3.37308 -0.46119,7.1206 0.35565,10.39486c0.40332,1.61665 0.66825,3.76046 1.51811,5.20859c0.92268,1.57222 2.07029,2.31451 2.70416,4.1444c0.43767,1.26349 1.78592,0.87343 3.10048,0.94875c2.15087,0.12322 4.4604,0.70393 6.26656,1.85982c2.9504,1.88817 5.704,4.07816 8.51048,6.17347c1.00916,0.75344 2.20279,2.48596 3.30191,2.95982c1.55845,0.6719 4.36159,-0.03264 6.06757,0.13387c0.6589,3.41907 -7.10183,2.39623 -9.35867,2.42554c-1.46614,0.0065 -3.24262,1.07676 -4.61421,1.60371c-0.31964,0.1228 -1.42389,0.44048 -1.50038,0.86067c-0.11689,0.64207 1.67723,2.0855 2.07644,2.513c0.76621,0.82052 1.08806,1.36788 2.20631,1.51459l0.14811,0.01944c0,0 0.24788,0.03252 0.21536,0.28039c-0.03252,0.24787 -0.28039,0.21535 -0.28039,0.21535l-0.14812,-0.01943c-1.25486,-0.16464 -1.66807,-0.77101 -2.50671,-1.6691c-0.55564,-0.59502 -2.37303,-2.00934 -2.20292,-2.9438c0.23374,-1.28394 5.47534,-2.85211 6.60001,-2.87479c1.99523,-0.02591 8.7846,0.8531 9.02845,-1.55596c-1.36197,0.26753 -4.64291,0.51005 -5.9288,-0.04434c-1.16197,-0.50096 -2.34832,-2.23082 -3.4031,-3.01831c-2.79681,-2.0881 -5.54064,-4.27134 -8.48086,-6.15299c-1.73606,-1.11103 -3.95773,-1.6633 -6.02564,-1.78178c-1.51853,-0.087 -2.99583,0.29918 -3.54434,-1.28427c-0.62435,-1.80242 -1.74781,-2.49567 -2.66293,-4.05499c-0.87729,-1.49488 -1.15609,-3.67344 -1.57202,-5.34063c-0.82759,-3.31732 -0.37052,-7.09928 -0.37052,-10.51592c0.00025,-2.66093 -0.12114,-5.35372 0.00104,-8.01147c0.04412,-0.95974 -0.14341,-2.12495 0.93303,-2.2301c3.5,0 7,0 10.5,-0.00001c3.5,-0.00001 6.99999,0.00013 10.49998,-0.00011c3.49683,-0.00024 6.99363,-0.00794 10.49045,-0.01345c0.87198,-0.06542 3.16111,0.19103 3.86367,-0.25866c0.41668,-0.26671 0.87511,-1.6388 1.12922,-2.09672c0.7657,-1.37983 1.39396,-2.07308 2.69199,-2.97048c1.21804,-0.8421 3.10048,-1.69191 4.06637,-2.80187c1.18899,-1.36634 2.02972,-2.92494 3.37746,-4.28128c2.56912,-2.58549 4.71761,-4.86173 6.54913,-8.02031c0.58259,-0.89148 1.95559,-0.55725 2.96706,-0.55732c2.48118,-0.00017 4.90967,-0.13905 7.38263,-0.2772c1.19031,-1.24935 2.56907,0.02318 3.67862,-0.72836c1.35435,-0.91736 0.94176,-4.76886 1.06635,-6.15662c2.08066,-3.89333 5.14306,-3.83764 9.13615,-3.8376c3.86696,0.00105 6.75124,-0.11032 10.24975,1.61358c0.08382,0.0413 0.16782,0.08138 0.252,0.12026c-0.07008,-1.0243 -0.06737,-2.05516 0.21996,-2.41472c0.76021,-0.9513 5.03333,-0.31915 6.17085,-0.31915c1.36293,0 3.84336,-0.49093 5.09429,0.01846c0.95837,0.39025 2.01215,1.64893 2.91805,2.72708c2.34161,-1.71957 4.68322,-3.43914 7.02484,-5.1587c2.26707,-1.66482 6.87377,-3.8523 8.24298,-6.2754c1.75748,-3.02675 3.51497,-6.05352 5.27245,-9.08027c1.78449,-3.07326 1.19011,-6.47734 1.2065,-9.99599c-1.11641,-3.2651 -1.98545,-6.71389 -3.40312,-9.85959c-1.43805,-3.19092 -2.8761,-6.38186 -4.31415,-9.57278c-1.40958,-3.12776 -2.54306,-6.5848 -4.7301,-9.23576c-2.22735,-2.69981 -4.45468,-5.39961 -6.68203,-8.09941c-2.21883,-2.68948 -4.35562,-5.48625 -6.71318,-8.0548c-2.3667,-2.57851 -4.7334,-5.15702 -7.1001,-7.73554c-2.39123,-2.60524 -4.89351,-4.89734 -7.57898,-7.19664c-2.38233,-2.03974 -4.51765,-3.60338 -7.32497,-5.00704c0,0 -0.22361,-0.11181 -0.1118,-0.33541c0.11181,-0.2236 0.33541,-0.1118 0.33541,-0.1118c2.8404,1.4202 5.01686,3.01127 7.42656,5.07444c2.70023,2.31193 5.21768,4.61868 7.62215,7.23835c2.3667,2.57852 4.73341,5.15703 7.1001,7.73554c2.36354,2.57507 4.50605,5.37842 6.73051,8.07472c2.22735,2.6998 4.45468,5.39961 6.68203,8.09941c2.21789,2.68834 3.37124,6.17763 4.80025,9.34852c1.43805,3.19093 2.8761,6.38185 4.31415,9.57277c1.43163,3.17668 2.35572,6.67239 3.44069,9.98419c0.02974,3.62006 0.56986,7.16354 -1.26752,10.3279c-1.75748,3.02676 -3.51497,6.05352 -5.27245,9.08027c-1.49968,2.52684 -5.99407,4.67565 -8.37943,6.42733c-2.27418,1.67005 -4.54837,3.3401 -6.82255,5.01015c0.00457,0 0.00913,0 0.0137,0h0.5c0.13807,0 0.25,0.11193 0.25,0.25c0,0.06903 -0.02799,0.13153 -0.07322,0.17678l-0.32028,0.32028c0.06304,0.06755 0.12455,0.13154 0.18441,0.19141c1.07017,0.80854 3.37443,1.9318 4.0382,3.08251c0.15704,0.27224 -0.14128,0.71858 0.08251,0.93924c0.48664,0.47984 3.5924,0.03976 4.31845,0.03977c0.87343,0.00001 2.85546,-0.37624 3.61745,0.02931c0.9192,0.48923 1.23525,2.24517 2.00465,2.93817c0.84461,0.76074 2.02765,1.16528 2.91414,1.96695c1.32871,2.39489 3.08535,2.05774 5.73026,2.06197c0.6331,0.00101 2.85262,0.26572 2.79264,-0.26578c0.2948,-3.48412 0.21078,-6.97434 0.21078,-10.47002c0,-3.5 0,-7 0,-10.5c0,-0.48239 -0.26433,-2.33743 0.07275,-2.67631c0.40814,-0.4103 1.59474,0.13789 2.08094,-0.065c0.69367,-0.28948 1.05874,-1.43036 1.75655,-1.76274c0.91609,-0.43636 2.59895,-0.25081 3.59618,-0.25235c2.27762,-0.00347 4.05613,-0.79832 6.30193,-0.97097l0.42248,-0.03248c0,0 0.24926,-0.01917 0.26843,0.2301zM451.31405,82.00002c-0.85098,-1.02105 -1.82623,-2.16975 -2.68259,-2.51846c-1.16282,-0.47351 -3.6245,0.01846 -4.90571,0.01846c-0.91098,0 -5.2239,-0.5649 -5.78025,0.13129c-0.21759,0.27228 -0.18269,1.31403 -0.09809,2.32397c2.52157,1.01627 5.19173,1.04474 7.9026,1.04474c0,0 0.25,0 0.25,0.25c0,0.25 -0.25,0.25 -0.25,0.25c-2.68984,0 -5.34074,-0.04013 -7.85141,-0.98842c0.06282,0.63428 0.13071,1.19112 0.14703,1.44666c0.0396,0.67467 0.71571,3.71173 1.24538,4.08742c0.75955,0.53873 3.67008,0.03987 5.17671,-0.15916c1.87083,-1.78314 3.75588,-3.5601 5.83206,-5.08474c0.13698,-0.10058 0.27395,-0.20118 0.41092,-0.30176c-2.65356,0 -5.30712,0 -7.96069,0c0,0 -0.25,0 -0.25,-0.25c0,-0.25 0.25,-0.25 0.25,-0.25c2.85468,0 5.70936,0 8.56403,0zM449.61313,86.01517c0.96699,-0.81341 1.14586,-2.57326 2.24975,-3.36048c-0.04318,-0.05058 -0.08689,-0.10218 -0.13111,-0.15464c-0.05878,0 -0.11755,0 -0.17633,0c-0.31991,0.23492 -0.63981,0.46984 -0.95972,0.70476c-1.8299,1.34378 -3.51024,2.8857 -5.16387,4.45399c1.28227,-0.52233 3.26941,-0.87659 4.18127,-1.64363z" fill="#000000" stroke-width="0.5"/></g><path d="M-5.24999,376.25003v-141c0,0 188.35494,19 309.93976,19c123.38861,0 425.06024,-19 425.06024,-19v141z" fill="#656565" stroke="none" stroke-width="0" stroke-linecap="butt"/><path d="M-4.24999,246.25004l0.97222,-32c0,0 227.63732,6 347.08334,6c125.27604,0 385.97222,-4 385.97222,-4l0.97222,30z" fill="#656565" stroke="none" stroke-width="0" stroke-linecap="butt"/><path d="M-12.24999,259.92708v-26.80489c0,0 189.21204,3.612 311.35014,3.612c123.95009,0 426.99447,-3.612 426.99447,-3.612v26.80489c0,0 -291.1574,5.32295 -422.05241,5.32295c-112.38762,0 -316.2922,-5.32295 -316.2922,-5.32295z" fill="#878787" stroke="none" stroke-width="0" stroke-linecap="butt"/><text transform="translate(55.66903,322.2641) scale(1.43134,1.43134)" font-size="40" xml:space="preserve" fill="#000000" stroke="none" stroke-width="1" stroke-linecap="butt" font-family="&quot;MS Gothic&quot;, Sans Serif" font-weight="normal" text-anchor="start"><tspan x="0" dy="0">FNAF FANGAME COMMITEE</tspan></text><text transform="translate(159.25,344.54692) scale(0.5,0.5)" font-size="40" xml:space="preserve" fill="#000000" stroke="#000000" stroke-width="2" stroke-linecap="butt" font-family="&quot;MS Gothic&quot;, Sans Serif" font-weight="normal" text-anchor="start"><tspan x="0" dy="0">welcome to FNAF Fangame Committee!</tspan></text><g><g stroke="#000000"><path d="M81.14584,136.33863l4.57555,-66.83583l70.65503,4.837l-4.57555,66.83584z" fill="#000000" stroke-width="0" stroke-linecap="butt"/><g stroke-width="2.5"><path d="M103.60667,87.95733c9.59977,-8.36958 24.16678,-7.37233 32.53637,2.22742c8.36958,9.59977 7.37233,24.16678 -2.22742,32.53637c-9.59977,8.36958 -24.16677,7.37234 -32.53637,-2.22741c-8.36958,-9.59977 -7.37233,-24.16678 2.22742,-32.53638z" fill="#adadad" stroke-linecap="butt"/><path d="M136.52587,91.77062l-33.62772,29.31846" fill="none" stroke-linecap="round"/><path d="M96.433,108.16917l28.53811,-24.88107" fill="none" stroke-linecap="round"/><path d="M115.03602,126.9836l26.17509,-22.82085" fill="none" stroke-linecap="round"/><path d="M138.09277,116.31975l-27.09977,-31.08291" fill="none" stroke-linecap="round"/><path d="M128.57077,125.58137l-28.52607,-32.71887" fill="none" stroke-linecap="round"/></g></g><path d="M74.12086,158.37625l1.45738,-22.95378l87.82316,5.57608l-1.45738,22.95378z" fill="#808080" stroke="none" stroke-width="0" stroke-linecap="butt"/></g><g stroke-linecap="butt"><path d="M637.78737,-23.61318c0,6.88111 -110.81591,140.07319 -265.70173,140.07319c-154.88582,0 -285.37299,-133.9472 -285.37299,-140.8283c0,-4.10696 214.98228,66.82737 277.42514,66.82737c109.68614,0 273.64958,-68.08034 273.64958,-66.07226z" fill="#868686" stroke="#000000" stroke-width="0"/><text transform="translate(235.59527,82.56968) scale(1.12415,1.12415)" font-size="40" xml:space="preserve" fill="#000000" stroke="none" stroke-width="1" font-family="&quot;PaintyPaint 1&quot;, Handwriting" font-weight="normal" text-anchor="start"><tspan x="0" dy="0">The FFC Won !</tspan></text></g><text transform="translate(479.25001,175.15938) scale(1.16369,1.16369)" font-size="40" xml:space="preserve" fill="#000000" stroke="#000000" stroke-width="2" stroke-linecap="butt" font-family="&quot;Agency FB&quot;, Sans Serif" font-weight="normal" text-anchor="start"><tspan x="0" dy="0">Elevator &gt;&gt;</tspan></text><g stroke-linecap="butt"><path d="M276.40403,225.32256l-11.78861,-31.30079h11.78861l11.78861,31.30079z" fill="#1d170d" stroke="#000000" stroke-width="0"/><g><path d="M190.64367,226.9728l9.07087,-55.08894l81.0268,-0.51622l-9.07086,55.08893z" fill="#2f2414" stroke="#000000" stroke-width="0"/><path d="M196.07852,223.6186l7.97652,-48.44281l71.25145,-0.45394l-7.97652,48.44282z" fill="#36447b" stroke="#000000" stroke-width="0"/><path d="M219.95664,223.37046l7.27303,-44.17041l27.51581,-0.1753l-7.27303,44.17041z" fill="#1b1b1b" stroke="#000000" stroke-width="0"/><path d="M203.91793,221.32759c-0.74383,2.44553 -1.68738,5.15501 -4.01077,3.08007c-1.1671,-1.0423 1.12517,-7.18143 1.89684,-8.49891c0.11784,-0.20118 0.64127,-1.04727 1.12332,-1.68946l0.30501,-0.57748l-0.00029,-0.00796l0.01592,-0.02163l0.04166,-0.07889l0.01618,-0.0199c-0.20285,-0.05211 -0.40328,-0.12526 -0.60004,-0.22113c-0.09179,0.02653 -0.18587,0.04094 -0.2805,0.04155c-1.46625,0.00934 -2.79784,-1.54846 -1.92424,-3.26009c0.10323,-0.20225 0.37243,-0.33606 0.68284,-0.42705c-0.01198,-0.03153 -0.02255,-0.06157 -0.03164,-0.08989c-0.34168,-1.06325 1.46631,-5.26457 2.53679,-6.16412c0.60898,-0.51174 2.69995,0.16545 2.96286,1.21958c0.04143,-0.00926 0.08264,-0.01791 0.12357,-0.02594c0.80233,-1.3459 2.58007,-2.33686 3.70693,-2.33158c1.55969,0.00731 3.60204,6.96596 1.80401,8.45577c-0.23224,0.19243 -1.04223,0.4607 -1.92226,0.5983l0.80445,1.34194l0.00479,0.01699l0.01155,0.01134l0.75042,1.35429l0.62832,1.1072l0.00859,0.03321l0.02111,0.02336l0.68829,1.42097l0.01972,0.10003l0.04823,0.08196l0.30575,1.11662l0.00321,0.00204l0.00156,0.01541l0.02826,0.10321l0.00743,0.24862l0.02471,0.24357l-0.01397,0.11553l0.00047,0.01574l-0.00283,0.00379l-0.13366,1.10533l-0.02482,0.07361l-0.00065,0.07372l-0.40485,1.79977l-0.04984,0.11126l-0.02027,0.11677l-0.56079,1.42893l-0.03989,0.06223l-0.0191,0.07022l-0.40434,0.80821l-0.40784,0.5254l-0.26416,0.04656l-0.2219,0.20566l-0.55429,-0.02615l-0.43888,-0.15644l-0.51581,-0.08312l-3.13219,0.49255l-0.19267,-0.02362l-0.19846,0.0044l-0.76509,-0.21006l-0.03686,0.00023l-0.15046,-0.04408l-0.05859,0.02134l-0.04331,-0.0512l-0.26519,-0.0777l-0.13187,-0.39173l-0.24983,-0.29536l0.04024,-0.3272l-0.02285,-0.0679l0.03832,-0.05783l0.02284,-0.18564l0.06445,-0.18992l0.08727,-0.53002l0.13679,-1.11204l-0.09983,-0.89148l-0.2561,-0.73779c-0.26316,0.62559 -0.49593,1.12403 -0.51174,1.17602zM207.69792,214.75242l-0.0411,0.05819l0.06716,-0.03306z" fill="#000000" stroke="none" stroke-width="0.5"/><path d="M211.23106,194.15681c0.23923,-0.57859 0.81974,-0.81433 0.81974,-0.81433c1.38647,-0.55587 3.64389,-1.69265 4.92951,-0.96446c1.37649,0.77965 0.9188,3.51571 1.05871,4.8967c0.26719,2.6373 1.12184,4.63669 3.23797,5.79012c1.14846,0.62599 2.59345,0.57548 3.88497,0.87856c3.26042,0.76512 6.7015,0.80191 10.13001,0.90351c0.58322,0.01728 4.56658,0.08897 4.83447,0.31811c0.70088,0.59949 0.63497,1.89966 0.95246,2.84949c0.00387,0.83338 0.39609,4.13492 -0.90125,5.0782c-1.64997,1.19967 -5.29716,0.36059 -6.85119,0.07552c-0.22088,-0.04052 -1.86889,-0.40112 -2.16815,-0.26393c-2.22305,1.01912 -3.40545,4.22569 -4.49693,6.331c-0.34955,0.67424 -0.3927,1.67252 -1.00055,2.04541c-0.93973,0.57648 -2.01122,0.41098 -2.99128,0.4034c-2.69181,-0.0208 -5.00367,-1.46518 -7.73545,-1.54354c-0.85891,-0.02463 -3.43754,0.1805 -3.62556,-0.57425c-0.01027,-0.04121 2.23247,-4.9819 2.51087,-5.59667c0.99972,-2.19648 1.53193,-3.76848 1.8202,-6.09021c0.04733,-0.38118 0.22786,-0.78916 0.16657,-1.14465c-0.11524,-0.66843 -0.45834,-1.21766 -0.67966,-1.83141c-0.73301,-2.03271 -1.34024,-4.19652 -2.43364,-5.98141c-0.60887,-0.99392 -1.34263,-1.90881 -1.73078,-3.0631l0.04317,-1.10134c0,0 0.04886,-0.29671 0.2258,-0.60074zM213.65887,218.02389c-0.0986,0.07545 -0.1935,0.15568 -0.28026,0.24599c-0.13454,0.14003 0.04539,-0.04411 0.28026,-0.24599z" fill="#1a1448" stroke="none" stroke-width="0.5"/><path d="M241.22914,199.81482c-0.1487,-0.20109 -0.2329,-0.51122 -0.11272,-0.98801c0.31136,-1.23528 1.37179,-1.1187 1.37179,-1.1187c3.77552,0.41504 7.86948,1.22024 10.17274,4.56287c1.02342,1.48524 0.94496,3.0873 1.21087,4.90247c0.12452,0.84996 0.89666,1.67846 0.45738,2.51583c-0.41775,0.79634 -1.4998,0.67828 -2.26171,0.92364c-1.29074,0.41566 -4.62004,1.41644 -5.76627,0.74679c-0.56095,-0.32772 -2.09564,-3.15675 -2.63681,-3.76531c-0.90001,-1.01209 -2.02504,-1.74897 -3.00737,-2.66261c-0.06382,-0.72788 -0.28458,-1.426 -0.19146,-2.18363c0.08694,-0.70735 0.47732,-1.38948 0.71599,-2.08422l-0.0259,-0.48648c0,0 0.01049,-0.15559 0.07346,-0.36265z" fill="#404310" stroke="none" stroke-width="0.5"/><path d="M235.11541,205.34486c0.1345,-0.30771 0.41868,-0.70874 0.98691,-0.71237c0.1807,-0.00115 0.31937,0.03834 0.42553,0.1026c0.2523,-0.00161 0.50459,-0.00321 0.75689,-0.00482c1.31295,-0.00836 2.74439,0.19685 4.08507,-0.11234c1.62302,-0.3743 3.0274,-1.03313 4.62634,-0.65651c2.11166,0.49739 3.77966,2.43282 4.79112,4.34851c0.94894,1.79728 1.58651,3.12682 0.49818,5.56555c-0.9657,2.16391 -3.06909,4.58997 -5.08202,5.46201c-0.53069,0.2299 -1.4367,0.60769 -2.17368,0.58819c-0.33059,1.19963 -0.82446,2.30565 -1.64334,2.91105c-0.53474,0.39533 -2.50358,0.30709 -2.97128,0.31023c-1.69241,0.01135 -3.8088,0.24563 -5.4115,-0.11551c-0.79306,-0.1787 -1.78113,-0.18207 -2.24937,-0.8687c-0.23106,-0.33883 -0.14549,-0.84517 -0.02365,-1.35881c-0.3041,-0.08045 -0.61172,-0.23028 -0.88482,-0.30946c-0.52577,-0.15242 -1.93487,-1.28276 -2.18829,-1.74822c-1.67782,-3.08161 0.83211,-7.00566 2.86467,-9.87416c0.39866,-0.56262 2.32487,-3.02579 2.9433,-3.39256c0.20887,-0.12387 0.42807,-0.14284 0.64994,-0.1347zM233.02222,215.15669c0.0883,-0.31377 0.17828,-0.62456 0.26908,-0.93101c0.11366,-0.37329 0.47911,-0.81127 0.34099,-1.11987c-0.1078,-0.24085 -0.31004,0.53556 -0.49157,0.78345c-0.19327,0.26393 -0.63408,0.43935 -0.62863,0.74625c0.00501,0.28205 0.30646,0.36169 0.51012,0.52119zM245.1741,214.01839c-0.01073,0.11796 -0.02639,0.23637 -0.04561,0.35507c0.02805,-0.00285 0.0531,-0.01585 0.07351,-0.04602c0.07066,-0.10442 0.03997,-0.20693 -0.02791,-0.30906z" fill="#1d330b" stroke="none" stroke-width="0.5"/><g stroke="none" stroke-width="0.5"><path d="M236.07554,200.40987c-0.05617,-0.3856 0.08707,-0.77007 0.08707,-0.77007c0.05742,-0.15303 0.11486,-0.30605 0.17228,-0.45908c0.19627,-0.73713 0.45452,-1.45664 0.67598,-1.8043l0.33747,-1.82081c0.11254,-0.61691 0.60095,-1.12581 1.1375,-1.20981c0.39201,-0.50948 0.99051,-0.51329 0.99051,-0.51329l0.40873,-0.00226c2.32331,-0.06722 5.12825,-1.363 7.36227,-0.77804c0.84257,0.22062 1.87663,0.43874 2.23565,1.29278c0.01498,0.03565 -0.04299,0.24559 -0.14194,0.55049c0.24918,0.40498 0.09922,0.9875 0.09922,0.9875l-0.42401,1.63813c-0.28062,0.70519 -0.74992,1.3876 -0.84186,2.11554c-0.08065,0.63859 0.37346,1.13576 0.35142,1.76769c-0.02259,0.64752 -0.1815,1.34217 -0.4814,1.958c-0.99957,2.05252 -1.96399,2.08718 -3.83365,2.65958c-2.19365,0.6716 -4.60131,0.70634 -6.63561,0.17273c-0.85867,-0.22523 -1.85058,-0.3335 -2.43789,-1.01031c-1.24001,-1.42897 -0.19893,-3.01654 0.89223,-4.3039c0.00531,-0.13844 0.02132,-0.29764 0.04605,-0.47056z" fill="#b0947e"/><path d="M240.34315,195.63671c-0.17935,-0.01981 -0.35882,-0.03709 -0.53996,-0.0361c0.02897,0.01949 0.06056,0.03616 0.09502,0.04978c0.12333,0.04872 0.27509,0.03886 0.44494,-0.01368zM248.87789,191.52407c0.50984,0.39217 4.06697,3.37403 0.44468,5.04323c-1.15135,0.53056 -1.47205,0.11936 -1.6267,-0.48147l-0.0518,0.04593c-0.56913,0.03949 -1.1757,0.24318 -1.7074,0.11846c-0.53215,-0.12482 -0.85081,-0.70979 -1.38014,-0.84267c-0.92107,-0.23122 -1.75115,1.51525 -2.72883,1.9536c-1.01152,0.45352 -2.18084,0.92587 -3.10214,0.60487c-0.30446,-0.10608 -0.61968,-0.62297 -0.91633,-1.30003l-1.55617,0.98758l-0.22516,-0.6016c-0.38317,0.10383 -0.76635,0.20764 -1.14838,0.322l0.72353,-1.13176l-0.36789,-0.51473l1.51206,-1.46192l-0.1857,-0.22078c-0.19256,-0.22604 -0.28275,-0.56114 -0.22102,-0.93598c0.11283,-0.68524 0.69058,-1.24384 1.29045,-1.24766l1.00719,-0.00642c3.32479,-0.75296 7.52979,-2.41519 10.23976,-0.33067z" fill="#342b25"/><path d="M237.62077,189.32382c0.2846,-0.41917 0.72735,-0.7751 0.85381,-1.25752c0.10254,-0.3912 -0.28671,-0.68306 -0.24222,-1.07564c0.12926,-1.14066 0.08814,-2.43084 0.75205,-3.42344c0.49355,-0.73791 1.46004,-0.84059 2.21684,-1.01533c2.18242,-0.50392 4.88503,0.96732 6.84085,1.3618c0.74523,0.15031 1.59179,0.03805 2.25896,0.37481c0.84141,0.42471 1.83462,0.87688 2.15902,1.85521c1.01127,3.04973 -1.4184,2.30107 -1.84208,4.59559c-0.16589,0.89837 1.0043,1.78476 0.4224,2.5147c-0.81002,1.0161 -3.4726,0.59688 -4.50579,0.49911c-2.12138,-0.20075 -4.22252,-0.44034 -6.35821,-0.57881c-0.78309,-0.05077 -1.68405,0.20371 -2.34682,-0.16349c-0.05833,-0.03232 -0.11532,-0.0666 -0.17107,-0.10266l-0.01288,0.02222l-1.76577,-1.04266c-0.3459,-0.1918 -0.53757,-0.62395 -0.45457,-1.12799c0.10465,-0.63557 0.60925,-1.16218 1.1605,-1.23825l1.02185,-0.15819z" fill="#1d330b"/></g><g stroke="none" stroke-width="0.5"><path d="M260.04848,202.19394c0.73883,-0.23403 1.45211,-0.44272 1.53305,-0.46283c0.73924,-0.18355 1.66738,-0.88459 2.21879,-0.45915c0.67708,0.5224 0.97837,1.71986 0.73212,2.73592c-0.19851,0.81912 -1.19836,1.18475 -1.81841,1.74634c-0.24788,0.2245 -0.49878,0.44561 -0.75186,0.66418c0.11945,0.16899 0.17201,0.40226 0.1295,0.66042c-0.02333,0.14171 -0.0729,0.27627 -0.14189,0.39709l-0.93465,1.70763c-0.48323,0.69481 -0.74805,1.83179 -1.39876,2.18756c0.26213,0.96653 0.48474,2.02703 0.10424,2.46611c-0.3143,0.36269 -2.17611,0.10182 -3.27809,-0.07783c0.03474,0.12134 0.04397,0.2741 0.01231,0.4664c-0.15484,0.94037 -0.97804,0.94561 -0.97804,0.94561l-0.32263,-0.04139c-0.47594,-0.18204 -1.04319,-0.20886 -1.42784,-0.54614c-0.02643,-0.02318 -0.05244,-0.04684 -0.07805,-0.07095l-0.00793,0.01092l-1.20666,-1.00089c-0.15557,-0.12405 -0.25454,-0.3223 -0.26993,-0.55701c-0.14613,-0.08602 -0.2747,-0.18599 -0.38022,-0.30272c-0.17092,-0.18905 -0.30291,-0.41519 -0.41986,-0.65556c-0.30474,0.32262 -0.61148,0.64269 -0.97341,0.70375c-3.49268,0.58921 -2.12202,-1.01407 -0.92218,-3.07068c0.16912,-0.28987 0.34946,-0.57207 0.53673,-0.84953c-0.34067,-1.1255 -0.52351,-2.30987 -0.56722,-3.64207c0.99704,-0.82504 2.01335,-1.65148 3.0474,-2.44063c0.25811,-0.45457 0.66616,-0.81424 1.32027,-0.97755c0.51578,-0.36921 1.0357,-0.72546 1.55956,-1.06414c0.53216,-0.34404 1.07181,-0.67019 1.6182,-0.97247c0.40429,-0.22366 0.82461,-0.64688 1.23088,-0.60372c1.51005,0.16043 1.4693,1.53442 1.77381,2.8218c0.02209,0.09338 0.04233,0.18724 0.06075,0.28153zM260.18935,204.01222c-0.00376,0.12253 -0.01002,0.24536 -0.01869,0.36841c0.16755,0.19261 0.29862,0.41785 0.37683,0.66508c0.02522,0.07972 -0.00063,0.22699 -0.06365,0.42046c0.46062,-0.39527 0.92542,-0.78269 1.40493,-1.14241c0.35201,-0.26407 0.83166,-0.32217 1.09737,-0.69584c0.14169,-0.19925 0.05412,-0.62537 -0.14817,-0.639c-0.37351,-0.02516 -0.73958,0.40874 -1.12074,0.55351c-0.50539,0.19195 -1.01696,0.33715 -1.52787,0.46979zM252.01123,205.05595c-0.36101,0.23599 -0.72798,0.46019 -1.10434,0.66623c0.1266,0.26309 0.23657,0.53886 0.3363,0.82259c0.21478,-0.25521 0.45888,-0.46962 0.723,-0.65294c0.00829,-0.16744 0.0149,-0.28924 0.01877,-0.34594c0.01054,-0.15433 0.01809,-0.31891 0.02627,-0.48995zM259.5759,209.00781c-0.12527,0.11363 -0.25484,0.22227 -0.38799,0.32625c-0.00043,0.0988 0.00173,0.19709 0.007,0.29478c0.03292,0.01405 0.07196,0.01568 0.11886,0.00165c0.21097,-0.06311 0.24616,-0.33166 0.26214,-0.62268zM253.59145,204.34717c0.2568,-0.01289 0.48346,0.09758 0.69674,0.25872c-0.10317,-0.3226 0.03684,-0.83597 -0.16817,-1.04692c-0.12557,0.09226 -0.25104,0.18463 -0.37655,0.27681c-0.05583,0.13117 -0.0998,0.27403 -0.12321,0.37484c-0.01059,0.04558 -0.02017,0.0911 -0.02882,0.13656zM255.63659,208.57826c-0.0746,-0.03747 -0.14835,-0.07683 -0.22143,-0.11758c-0.19198,0.16698 -0.38386,0.33422 -0.57575,0.50152c0.04205,0.30519 0.06737,0.61902 0.11487,0.9214c0.03138,0.01935 0.06233,0.03909 0.09277,0.05928c0.14731,-0.10205 0.29374,-0.20233 0.43946,-0.30085c0.00834,-0.02194 0.01668,-0.04388 0.025,-0.06583c0.02455,-0.20801 0.04975,-0.4161 0.06969,-0.62322c0.01188,-0.12335 0.03221,-0.24871 0.0554,-0.37472zM258.48705,202.74291c-0.10303,-0.52275 -0.28541,-1.01909 -0.42318,-1.5248c-0.02826,-0.10376 -0.07019,-0.26642 -0.17373,-0.24675c-0.14333,0.02724 -0.22017,0.25793 -0.35259,0.34678c-0.5035,0.33783 -1.03596,0.59771 -1.54349,0.9254c-0.22117,0.1428 -0.4398,0.29001 -0.65667,0.44021c0.31733,0.52647 0.64995,1.15133 0.89365,1.6225c0.42093,-0.14915 0.98852,-0.34501 1.52902,-0.50618c0.14422,-0.35691 0.3158,-0.69369 0.5712,-0.96667c0.02146,-0.02294 0.07583,-0.05375 0.15578,-0.0905zM257.59629,210.78037c-0.17783,0.12722 -0.36349,0.24194 -0.5474,0.36003c-0.00747,0.25063 -0.00594,0.50898 -0.02794,0.75533c0.48425,0.0764 0.85061,0.13422 0.85082,0.1343c0.03649,0.01445 0.07026,0.03342 0.10199,0.05581c-0.00407,-0.00767 -0.00772,-0.01525 -0.01094,-0.02273c-0.17078,-0.39635 -0.29292,-0.83065 -0.36651,-1.28276zM258.24226,212.37736c0.1037,0.13566 0.20881,0.26869 0.36031,0.32375c0.18833,0.06844 -0.10726,-0.11021 -0.36031,-0.32375zM253.44017,211.23239c0.02549,0.03459 0.05184,0.06841 0.07912,0.10137l0.01344,-0.01126c-0.03087,-0.03003 -0.06172,-0.06006 -0.09256,-0.09012z" fill="#af784d"/><path d="M252.85815,198.60643c0.79826,-1.66427 1.45068,-3.70861 2.86673,-4.67526c0.6701,-0.45744 1.331,-1.28951 2.04502,-1.28423c1.64949,0.01219 1.11051,1.85542 2.47639,2.08435c1.09093,0.18284 2.36377,-1.52084 3.42982,-1.26061c0.51444,0.12557 0.51919,0.98671 0.6625,1.54937c0.39407,1.54719 0.40615,3.48392 0.56666,5.15686c0.0205,-0.00009 0.04101,-0.00018 0.06153,-0.00029l1.29624,-0.1907c0,0 0.83605,-0.12185 0.78451,0.81061c-0.05154,0.93246 -0.88759,1.05429 -0.88759,1.05429l-1.39994,0.20224c-3.30409,0.02496 -6.41023,-0.17675 -9.61335,-0.61446c-1.67312,-0.22863 -3.07499,-0.31617 -4.49009,-1.17786c0,0 -0.66705,-0.41585 -0.1604,-1.25929c0.50664,-0.84343 1.17369,-0.42758 1.17369,-0.42758c0.23048,0.1479 0.46299,0.2683 0.69843,0.36764c0.15051,-0.19205 0.33973,-0.28758 0.48985,-0.33508z" fill="#1b120c"/><path d="M267.28331,208.7966c0.00814,-0.18061 -0.26019,-0.24035 -0.43499,-0.17299c0.1723,0.02238 0.31716,0.10841 0.41992,0.23761c0.00874,-0.01964 0.01401,-0.04103 0.01508,-0.06462zM263.27875,210.75128c-0.14665,-0.21676 -0.25205,-0.45758 -0.2638,-0.74413c-0.03773,-0.92022 0.33899,-1.66239 0.87218,-2.29901l-0.01421,-0.01087l1.10242,-1.60328c0.18858,-0.28261 0.48614,-0.47393 0.79126,-0.47588c0.45464,-0.00289 0.75388,0.41576 0.66836,0.93511c-0.01736,0.10542 -0.04924,0.2069 -0.09283,0.30169l-0.05755,0.13156c0.08411,-0.04271 0.17082,-0.07953 0.25991,-0.10977c0.93385,-0.31691 1.93894,0.34422 2.3741,1.16943c0.27179,0.5154 -0.43772,1.3012 -0.74624,1.91755c-1.07556,2.14875 -1.14103,2.71391 -3.22532,2.29514c-0.29602,-0.05947 -0.54209,-0.24771 -0.75869,-0.46767c-0.08004,0.02405 -0.1687,0.03797 -0.26689,0.0386c-0.8232,0.00525 -0.66836,-0.93512 -0.66836,-0.93512c0.00817,-0.04779 0.01674,-0.09558 0.02566,-0.14336z" fill="#cfcfcf"/><path d="M244.76387,214.8694c0.11121,-0.3275 0.25339,-0.63403 0.48282,-0.88143c1.30779,-1.41027 3.08647,-1.39722 3.69088,0.29108c0.52966,1.4795 -0.7451,3.71442 -1.84073,4.68724c-0.25182,0.22359 -0.57295,-0.30262 -0.84392,-0.11563c-0.25779,0.17789 -0.10548,0.69014 -0.32916,0.9251c-0.63897,0.67119 -1.34221,1.58248 -2.14086,1.66943c-0.64977,0.07074 -1.17974,-0.62629 -1.33721,-1.29076c-0.13353,-0.56348 0.37542,-1.22888 0.59635,-1.83542c0.54006,-1.48268 0.6687,-1.69035 1.2643,-2.92779c0,0 0.16296,-0.33809 0.45753,-0.52182z" fill="#cfcfcf"/></g><path d="M213.96048,193.66155c-0.5913,0.44691 -1.32351,0.76869 -1.91804,0.96465c-0.67989,0.22409 -1.17639,-0.53607 -1.67882,-0.93966c-0.96671,-0.77654 -2.34832,-2.42725 -0.96209,-4.36681c0.39926,-0.55863 4.45836,-0.86382 4.80645,-0.80318c0.51085,0.089 0.81662,0.74914 1.29691,0.85511l1.51444,-1.38174c0.22857,-0.20951 0.51094,-0.33873 0.79839,-0.34056c0.59986,-0.00382 0.99469,0.54859 0.88186,1.23382c-0.02846,0.17284 -0.0865,0.33763 -0.16701,0.48748l-0.62531,1.21733l-0.07066,-0.03443l-0.04771,0.22973c-1.09456,1.155 -2.38653,2.07808 -3.69875,2.81904c0,0 -0.04921,0.02735 -0.12968,0.05924z" fill="#b07040" stroke="none" stroke-width="0.5"/><path d="M221.85468,203.89232c0.85025,0.59651 0.14418,1.68447 0.14418,1.68447l-0.68866,1.05813c-2.25243,4.27365 -4.42719,8.56723 -6.56619,12.89403c1.56624,0.33377 3.00675,0.8784 4.61265,1.12002c0.55976,-1.24874 1.7228,-2.63604 2.19694,-3.41428c2.5633,-4.20729 3.91097,-8.86522 6.69764,-12.93733c0,0 0.734,-1.06749 1.56026,-0.43507c0.82626,0.63243 0.09225,1.69991 0.09225,1.69991c-1.94199,2.80937 -2.81478,5.64616 -4.2762,8.67471c-1.11838,2.31766 -2.73054,4.31758 -4.06292,6.47253c0.83687,-0.03136 1.70551,-0.06268 1.86671,0.02077c0.05981,0.03096 0.11818,0.06407 0.17526,0.09913l0.01601,-0.03056l1.68194,0.84593c0.37758,0.17649 0.59216,0.62571 0.5052,1.15382c-0.11283,0.68524 -0.69058,1.24384 -1.29045,1.24766l-1.08615,0.00692l0.01101,-0.06685l-0.14219,0.0584c-0.73223,-0.21454 -2.16425,-0.2286 -3.16436,-0.6812c-0.11308,0.27531 -0.27927,0.46061 -0.45139,0.58534c-0.29689,-0.04182 -0.59578,-0.07882 -0.89732,-0.10926c-2.4651,-0.24888 -5.05823,0.01798 -7.61853,0.18945c-0.34666,-0.14196 -0.65295,-0.32905 -0.90397,-0.57287c-1.49386,-1.45103 -1.58584,-2.97082 1.02752,-4.21869c0.43843,-0.20935 0.88257,-0.17163 1.32334,-0.08761c2.25162,-4.55992 4.53499,-9.08536 6.91585,-13.5839l0.76523,-1.18213c0,0 0.70607,-1.08796 1.55632,-0.49146z" fill="#0b081e" stroke="none" stroke-width="0.5"/><g stroke="none" stroke-width="0.5"><path d="M233.52523,187.12603c1.06327,0.10514 0.76172,1.34145 0.76172,1.34145l-0.17565,0.56883c-0.02732,0.56092 0.14157,1.13669 -0.08197,1.68277c-1.80121,4.40031 -6.10136,5.25462 -9.51993,5.10443c-1.04085,-0.04573 -2.12857,0.0556 -2.87769,-0.80221c-0.92687,-1.06136 -0.61381,-3.34576 -0.81665,-4.80307c0,0 -0.16134,-1.17056 0.93202,-1.582c1.09336,-0.41144 1.25469,0.75911 1.25469,0.75911c0.1101,0.80597 -0.10691,3.21087 0.36102,3.7412c0.23189,0.2628 1.5512,0.20314 1.64786,0.20717c1.96775,0.08212 7.08228,-0.28697 6.89051,-3.87234l0.25925,-1.21419c0,0 0.30155,-1.2363 1.36481,-1.13115z" fill="#b09987"/><g><path d="M232.25766,192.46339c1.79425,2.7694 2.79939,5.4645 2.89658,9.17361l-0.08342,0.19257l0.04657,0.00538l-0.62235,2.42845c-0.11983,0.50838 -0.5042,0.96094 -0.98296,1.10315c-0.45689,0.13572 -0.86987,-0.0498 -1.06688,-0.43034l-1.04174,-1.89455c-0.22821,-0.30729 -0.42512,-0.61821 -0.55967,-0.91669c-0.03677,0.0936 -0.07439,0.18078 -0.11288,0.26074c-0.00377,0.00784 -0.00756,0.01567 -0.01136,0.02346c-0.04154,0.12376 -0.08724,0.24107 -0.13745,0.35098c-0.09948,0.21777 -0.25209,0.38935 -0.43254,0.53465c-0.8202,0.97814 -1.94235,1.3659 -3.04485,1.66685c-1.41759,0.6356 -3.10691,1.20194 -4.22242,1.19517c-0.33775,0.05758 -0.66662,0.08584 -0.98053,0.06952c-0.17724,0.22035 -0.40993,0.38978 -0.6706,0.46721l-1.43266,0.42556l-0.00359,-0.05155c-0.2027,0.05524 -0.40347,0.07405 -0.60145,0.04006c-0.82226,-0.14114 -1.0408,-1.33192 -1.41537,-2.11862c-0.60235,-1.26512 -0.83973,-3.95623 0.40535,-5.39658c0.11529,-0.27429 0.25949,-0.57432 0.43577,-0.90263c0.33585,-0.6255 0.97806,-0.83023 1.64755,-0.99751c-0.0111,-0.16644 0.00958,-0.33416 0.05646,-0.49483l0.58355,-2.15118l0.10104,0.01375l0.04492,-0.37176c0.73866,-0.79946 1.3543,-1.79888 2.21597,-2.39839c2.07483,-1.44358 3.07891,-0.97982 5.03355,-0.82158c0.7523,0.0609 1.57869,-0.09721 2.2583,0.17655c0.27884,0.11232 0.57016,0.24261 0.83569,0.40857c0.54184,-0.08054 0.86141,0.40998 0.86141,0.40998z" fill="#b07040"/><path d="M228.8925,196.9674c-3.65864,4.98325 -3.62146,0.3239 -3.69786,-1.30738c-0.31638,0.05085 -0.6362,0.11159 -0.95748,0.17921l-0.53823,1.53507l-0.20686,-0.05103l-0.10413,0.58255c-1.17542,0.44071 -2.43178,1.59724 -3.52627,1.32212c-0.70741,-0.17782 -0.36755,-1.56473 -0.55132,-2.34709c0,0 -0.02138,-0.307 0.1007,-0.65256c-0.0342,-0.10933 -0.05561,-0.2389 -0.05982,-0.39229c-0.03323,-1.21043 1.07146,-1.4831 1.07146,-1.4831c2.13468,-0.52635 4.53359,-1.25345 6.65199,-1.33027c1.51099,-0.05479 2.7656,0.34739 4.31177,0.16557l1.23433,0.23432c0,0 1.02298,0.24243 0.60469,1.45928c-0.4183,1.21685 -1.44128,0.97441 -1.44128,0.97441l-0.59564,-0.19935c-0.74785,0.08374 -1.4408,0.04317 -2.12534,-0.01788c0.11128,0.4708 0.12519,0.92539 -0.17071,1.32842z" fill="#000000"/></g></g><g stroke="none" stroke-width="0.5"><path d="M249.11775,191.95678c-0.07604,-0.1217 -0.1331,-0.28304 -0.15913,-0.49558c-0.1441,-1.17689 0.95166,-1.56985 0.95166,-1.56985c3.01254,-1.07888 5.67647,-2.0104 8.3217,-0.52218c0.51391,0.28913 1.17601,0.45273 1.45165,1.01647c1.25124,2.55904 0.4926,7.691 -1.76013,10.1576c-1.77754,1.94629 -3.03947,1.71477 -5.01569,1.91212c-2.50752,0.25041 -4.54948,0.23298 -5.35428,-2.75964c-0.58255,-2.16618 0.27763,-5.37838 1.56422,-7.73895z" fill="#131313"/><path d="M260.16664,196.23966c-0.33836,1.23189 -1.39049,1.08379 -1.39049,1.08379l-0.70254,-0.09906c-3.44846,-0.44434 -6.92486,0.63678 -10.12538,-0.86489c0,0 -0.9376,-0.44454 -0.35248,-1.60294c0.58512,-1.1584 1.52272,-0.71385 1.52272,-0.71385c2.95669,1.41882 6.36223,0.33867 9.59865,0.71354l0.73576,0.10341c0,0 1.05213,0.1481 0.71377,1.37999z" fill="#6b711b"/><path d="M260.75766,190.34738c0.27236,0.11525 0.5419,0.38834 0.49342,1.02474c-0.09399,1.23375 -1.19518,1.36546 -1.19518,1.36546c-4.25408,0.50369 -7.73861,-0.11417 -11.49113,-1.51285l-0.42319,-0.17755c0,0 -0.95758,-0.40356 -0.40577,-1.57685c0.47529,-1.01058 1.2516,-0.85135 1.45778,-0.78774c0.97661,-1.91125 2.16899,-4.64118 4.02883,-5.51407c2.82121,-1.3241 6.35206,1.64458 7.39953,3.99733c0.30638,0.68817 0.30425,1.55224 0.45638,2.32836z" fill="#6b711b"/></g><path d="M196.07852,223.6186l7.97652,-48.44281l71.25145,-0.45394l-7.97652,48.44282z" fill-opacity="0.54902" fill="#6c5d45" stroke="#000000" stroke-width="0"/><path d="M214.07457,204.07646c0.19122,0.17896 -0.00822,0.43232 -0.00822,0.43232l-0.18798,0.2388c-0.0762,0.09681 -0.8194,1.04769 -0.87421,1.08699c-0.18116,0.12989 -1.08372,0.16756 -0.90007,0.32055c0.06959,0.54635 0.50123,2.06406 0.2291,2.61194c-0.24219,0.48759 -1.65957,0.20205 -2.00703,0.36439c-0.45916,0.21453 -0.09464,1.13432 -0.42309,1.5768c-0.10365,0.13963 -0.30453,0.07155 -0.44146,0.16465c-0.90675,0.61653 -1.82505,1.83545 -2.63212,2.6407c0,0 -0.10659,0.10635 -0.22526,0.10301c-0.00545,0.15222 -0.01214,0.30466 -0.02032,0.45736c-1.15691,0.89104 -2.30627,1.52997 -3.54772,2.18532c-0.59667,0.31498 -1.53125,0.60795 -2.05627,1.07354c-0.1877,0.16646 -0.37297,0.37019 -0.55523,0.59803c1.51137,-0.84975 3.22402,-1.77558 4.73532,-2.20184c1.33628,-0.37689 2.88478,-0.35422 4.21472,-0.45642c1.41706,-1.06545 1.81188,-2.05976 2.6431,-3.72127c0.26243,-0.52456 0.80035,-2.08967 1.25236,-2.41091c0.87324,-0.62061 2.04988,0.04539 2.64569,0.44895l0.15572,0.10547c0,0 0.21487,0.14553 0.04116,0.41947c-0.17371,0.27393 -0.38857,0.1284 -0.38857,0.1284l-0.15573,-0.10548c-0.43808,-0.29673 -1.40307,-0.94615 -2.06026,-0.498c-0.28131,0.19183 -0.83624,1.76395 -1.02016,2.13158c-0.9169,1.83277 -1.39926,2.94039 -3.01969,4.08204c-1.37839,0.1829 -2.89871,0.08881 -4.27412,0.47674c-1.70485,0.48085 -3.67998,1.6255 -5.3029,2.54134c0,0 -0.0765,0.04316 -0.16014,0.04032c-0.08468,0.13084 -0.16847,0.26336 -0.25131,0.39602c0.03009,0.07229 0.02183,0.15615 0.01638,0.19116c0.26566,-0.18499 0.53674,-0.34835 0.81279,-0.48419c1.39372,-0.68582 3.0183,-0.9847 4.45028,-1.44924c0.49426,-0.16034 1.24176,-0.54238 1.72686,-0.54818c0.42032,-0.00502 1.02551,0.59756 1.42983,0.50424c0.32618,-0.07528 0.5596,-0.4898 0.84694,-0.72143c0.81123,-0.65394 1.62246,-1.30788 2.43368,-1.96182c0.1382,-0.1114 0.98329,-0.82335 1.11935,-0.78968c0.0596,0.01475 0.10595,0.04934 0.14382,0.09644c0.10295,-0.02068 0.18382,0.0349 0.18382,0.0349c0.57047,0.39203 1.14093,0.78408 1.7114,1.17611c0.24069,0.16541 0.37024,0.62269 0.68112,0.55661c0.1338,-0.02844 0.97178,-1.16783 1.111,-1.32247c0.47621,-0.52898 1.66816,-2.28163 2.27406,-2.45701c0.43854,-0.12694 1.51014,0.53226 1.82402,0.79855l0.08853,-0.32948c0,0 0.14827,-0.28864 0.38142,-0.17504c0.23315,0.1136 0.08488,0.40223 0.08488,0.40223l-0.42248,0.66532c-0.35004,-0.0927 -1.58712,-0.85311 -1.91151,-0.76414c-0.30728,0.08428 -0.44569,0.56409 -0.68436,0.8292c-0.71131,0.79012 -1.40439,1.62324 -2.14284,2.38027c-0.19592,0.20085 -0.35997,0.53002 -0.60327,0.58173c-0.2433,0.05171 -0.4068,-0.20784 -0.60243,-0.32547c-0.51894,-0.31204 -1.01532,-0.67135 -1.51141,-1.02695c0.3073,0.68143 0.56526,1.41037 0.85447,2.09813c0.08715,0.20724 0.5781,1.81474 0.69834,1.83461c0.25398,0.04197 0.50906,-0.31919 0.77657,-0.40267c0.75648,-0.23607 1.54902,-0.35414 2.30814,-0.51298l0.51332,0.20181c0,0 0.2398,0.10003 0.10255,0.39365c-0.13725,0.29362 -0.37705,0.1936 -0.37705,0.1936l-0.37777,-0.16988c-0.69862,0.17366 -1.41697,0.27169 -2.11236,0.48748c-0.27706,0.08598 -0.88279,0.4628 -1.09203,0.40248c-0.39127,-0.1128 -0.78146,-1.6845 -0.94823,-2.08108c-0.28833,-0.68568 -0.57667,-1.37136 -0.865,-2.05704c-0.11813,-0.28093 -0.01471,-0.77175 -0.2698,-0.89514c-0.07796,-0.03771 -0.11191,0.19018 -0.18787,0.2641c-0.30336,0.2952 -0.64898,0.52315 -0.97347,0.78473c-0.52018,0.41932 -1.39939,1.34477 -2.16563,1.92661c0.9046,0.48854 1.89611,0.17632 2.78659,0.59529c0.6084,0.28625 0.34422,1.53114 0.70256,0.80414l0.20478,-0.22486c0,0 0.21549,-0.23664 0.38842,-0.03608c0.17293,0.20056 -0.04256,0.43719 -0.04256,0.43719l-0.20478,0.22486c-0.22735,0.19384 -0.42127,0.56155 -0.68204,0.58151c-0.36274,0.02776 -0.30761,-1.07138 -0.64917,-1.20308c-1.00001,-0.38558 -1.97448,-0.07933 -2.95253,-0.68906c0,0 -0.06897,-0.04299 -0.10035,-0.12966c-0.11864,0.06204 -0.23022,0.10708 -0.33223,0.13062c-0.53289,0.12298 -1.02997,-0.4971 -1.5379,-0.49103c-0.43246,0.00517 -1.13233,0.37935 -1.57212,0.52202c-1.40254,0.45499 -2.97884,0.75048 -4.34701,1.40463c-0.3962,0.18942 -0.78273,0.44414 -1.15746,0.74225c-0.09669,0.50558 -0.13611,1.05576 0.1465,1.23263c0.24991,0.15642 1.69356,-0.32602 2.05367,-0.3839c1.0541,-0.16945 2.99798,-0.89983 3.94587,-0.61206c0.40874,0.12409 0.90685,0.83846 1.22026,1.13947c0.21553,0.20701 0.29822,0.66791 0.60742,0.66774c0.30919,-0.00017 0.5478,-0.46126 0.8334,-0.66854c0.5998,-0.43532 1.4315,-1.25902 2.08331,-1.49721c1.09322,-0.3995 2.46043,-0.03569 3.35736,0.35246l0.36174,0.41476c0,0 0.17212,0.20144 -0.04402,0.43732c-0.21614,0.23588 -0.38826,0.03445 -0.38826,0.03445l-0.28981,-0.3478c-0.77467,-0.31507 -1.99228,-0.64355 -2.92163,-0.30394c-0.90503,0.33073 -2.18032,2.19838 -3.097,2.19889c-0.11037,0.00006 -0.78985,-0.67422 -0.9054,-0.7852c-0.25958,-0.24931 -0.71138,-0.93596 -1.04897,-1.03994c-0.85102,-0.26213 -2.77796,0.46883 -3.74076,0.62361c-0.50587,0.08132 -1.96508,0.57439 -2.36203,0.32594c-0.36987,-0.2315 -0.44255,-0.73802 -0.40358,-1.27537c-0.92067,0.86182 -1.75732,1.92919 -2.47449,2.84069c0,0 -0.15595,0.19821 -0.32432,0.12029c-0.06366,0.02705 -0.14044,0.03081 -0.22147,-0.02912c-0.20898,-0.15455 -0.02824,-0.4235 -0.02824,-0.4235c0.78856,-1.17337 1.57711,-2.34676 2.36567,-3.52013c-0.40938,-0.61712 -1.29474,-1.69839 -1.26178,-2.33961c0.04579,-0.89094 1.34229,-2.04593 1.62972,-2.91591c0.46596,-1.41037 0.23639,-3.29374 0.31858,-4.70408c0.2588,-0.5553 1.04922,-1.71766 1.11082,-2.28752c0.0582,-0.5385 -0.5255,-1.05901 -0.46687,-1.62721c0.09933,-0.96278 1.6046,-2.43206 1.18397,-3.23145l0.36899,-0.5497c0,0 0.26571,-0.14027 0.34146,0.13639c0.05077,0.18542 -0.05183,0.30958 -0.12503,0.3713c0.16722,1.15286 -1.09301,2.02589 -1.2201,3.2226c-0.05759,0.54228 0.52795,1.0625 0.46612,1.63457c-0.07048,0.65213 -0.82318,1.7726 -1.12968,2.39145c-0.02611,1.40322 0.13401,3.34013 -0.33372,4.75587c-0.24337,0.73665 -1.55713,2.03551 -1.59253,2.72041c-0.02147,0.41527 0.67662,1.30788 1.08128,1.87053c0.17217,-0.25618 0.34434,-0.51237 0.5165,-0.76855c0.34618,-0.51512 1.22093,-1.4573 1.37356,-2.04218c0.19859,-0.76096 -0.16829,-2.12226 -0.22118,-2.87654c-0.05059,-0.72137 -0.30208,-1.73749 -0.16244,-2.48168c0.14983,-0.79847 0.81428,-1.62852 1.07333,-2.4136c0.37013,-1.1217 0.26265,-2.62225 0.80815,-3.68142c0.62381,-1.21122 2.08352,-2.48295 2.95821,-3.51763c0.48436,-0.57296 0.96874,-1.14592 1.4531,-1.71887c-0.03256,-0.0406 -0.1477,-0.21239 0.03336,-0.42608c0.20773,-0.24517 0.38991,-0.05515 0.38991,-0.05515l0.14841,0.61602c-0.55328,0.65448 -1.10658,1.30897 -1.65986,1.96346c-0.83214,0.98434 -2.25336,2.21185 -2.85131,3.35447c-0.5183,0.99042 -0.41401,2.51232 -0.76537,3.57716c-0.24423,0.74017 -0.90808,1.57028 -1.04773,2.3145c-0.1269,0.6763 0.12703,1.64594 0.17323,2.30485c0.04712,0.67194 0.29194,1.71025 0.27058,2.53801c0.52109,-0.95924 1.04218,-1.91846 1.56327,-2.8777c0.15172,-0.27929 0.86787,-1.26828 0.88264,-1.54845c0.02637,-0.49994 -1.2169,-1.32951 -0.92567,-1.93151c0.28568,-0.59053 2.33266,-1.24913 2.86907,-1.50886c0.43509,-0.05629 -0.068,-1.05689 -0.16841,-1.48625l-0.11416,-0.48817c0,0 -0.06587,-0.28166 0.20246,-0.41159c0.26834,-0.12993 0.33421,0.15174 0.33421,0.15174l0.11415,0.48817c0.21483,0.91869 0.76691,1.66991 -0.23653,2.30945c-0.64129,0.31052 -1.97948,0.64847 -2.49761,1.08974c-0.21651,0.18439 0.3203,0.36051 0.43536,0.58076c0.06988,0.13377 0.54441,1.01747 0.53877,1.12441c-0.00564,0.10694 -0.58166,1.14704 -0.66687,1.3039c-0.6884,1.26723 -1.37682,2.53446 -2.06522,3.8017c0.54956,-0.32659 1.22961,-0.57328 1.72227,-0.83335c1.10023,-0.5808 2.14819,-1.28111 3.23743,-1.86781c-0.14828,-1.30997 -0.06086,-2.72964 -0.06803,-4.07964c-0.00074,-0.13978 -0.01822,-1.22265 0.03387,-1.32343c0.09429,-0.18243 1.77098,-1.34067 1.77084,-1.34509c-0.04969,-1.45686 -2.21009,-2.79397 -0.81534,-4.2578c0.12831,-0.11656 0.97894,-0.90267 1.07476,-0.92602c0.67225,-0.16379 1.48503,0.72782 1.90803,1.09306l0.34954,0.30181c0,0 0.1976,0.17062 0.00448,0.42967c-0.19312,0.25905 -0.39073,0.08843 -0.39073,0.08843l-0.34954,-0.30181c-0.28803,-0.2487 -1.04808,-1.11731 -1.50676,-1.00556c-0.32156,0.07835 -0.52299,0.52545 -0.79511,0.77266c-0.85582,0.5779 1.24974,2.90583 1.0373,3.91126c-0.13591,0.64324 -1.54379,0.95291 -1.81491,1.4541c-0.11618,0.21478 0.04804,1.34202 0.04939,1.59542c0.00484,0.90923 0.02467,1.81634 0.01049,2.7295c0.71287,-0.71225 1.42231,-1.4298 2.14016,-2.13526c0.23796,-0.23385 0.60148,-0.26757 0.8038,-0.54005c0.24669,-0.33223 0.05715,-1.30064 0.44748,-1.60172c0.12928,-0.09972 1.07647,-0.23336 1.27488,-0.26473c0.21738,-0.03437 0.69476,0.22937 0.6394,0.0092c-0.17058,-0.67838 -0.27704,-1.36156 -0.36953,-2.08759c0.03127,-1.11216 0.56051,-0.55356 1.21804,-1.02498c0.30752,-0.22048 0.47729,-0.62991 0.72132,-0.93992l0.18798,-0.23881c0,0 0.19944,-0.25337 0.39066,-0.07441z" fill-opacity="0.10588" fill="#ffffff" stroke="none" stroke-width="0.5"/><path d="M194.92767,225.84599l0.42903,-2.60556l74.10005,-0.47209l-0.42903,2.60556z" fill="#2f2414" stroke="#000000" stroke-width="0"/><path d="M192.27731,224.79425l4.44554,-26.99854l3.56257,-0.0227l-4.44554,26.99854z" fill="#2f2414" stroke="#000000" stroke-width="0"/><path d="M203.97862,227.22477l-11.09273,-17.867l1.58544,-9.51335l22.54662,27.37903z" fill-opacity="0.21961" fill="#ffef6e" stroke="#000000" stroke-width="0"/><path d="M194.19339,200.25677l20.42141,-28.65749l8.32156,-0.01442l-33.18326,55.20396z" fill-opacity="0.21961" fill="#ffef6e" stroke="#000000" stroke-width="0"/></g></g><path d="M19.48505,286.68468c0,0 165.54277,-257.91948 276.45999,-304.44677c11.11555,-4.66273 22.31202,-5.96867 32.10878,-5.96867c10.73797,0 25.58529,-0.04184 37.9476,5.54962c111.46162,50.41397 273.01356,307.30013 273.01356,307.30013z" fill="url(#color-1)" stroke="none" stroke-width="0" stroke-linecap="butt"/><path d="M55.66903,-14.81261v-28h601.1628v28z" fill="#000000" stroke="#000000" stroke-width="0" stroke-linecap="butt"/><g stroke-width="0" stroke-linecap="butt"><g stroke="none"><path d="M-15.85828,376.25324v-390.39039h160.43251v390.39039z" fill="url(#color-2)"/><path d="M577.75707,373.00999v-390.39039h160.43252v390.39039z" fill="url(#color-3)"/><path d="M-17.18606,110.48748v-127.62763h754.88136v127.62763z" fill="url(#color-4)"/><path d="M736.6918,249.75278v127.62762h-754.88136v-127.62762z" fill="url(#color-5)"/></g><path d="M-13.49999,371.94903v-383.89806h747v383.89806z" fill-opacity="0.67843" fill="#000000" stroke="#e6e6e6"/></g></g></g></svg>