<svg version="1.1" xmlns="http://www.w3.org/2000/svg" xmlns:xlink="http://www.w3.org/1999/xlink" width="777.77778" height="434" viewBox="0,0,777.77778,434"><defs><radialGradient cx="72.31439" cy="181.8394" r="84.31438" gradientUnits="userSpaceOnUse" id="color-1"><stop offset="0" stop-color="#343434"/><stop offset="1" stop-color="#313131"/></radialGradient><linearGradient x1="-26.49166" y1="181.14646" x2="138.47964" y2="181.14646" gradientUnits="userSpaceOnUse" id="color-2"><stop offset="0" stop-color="#000000"/><stop offset="1" stop-color="#000000" stop-opacity="0"/></linearGradient><linearGradient x1="748.88889" y1="177.63219" x2="583.9176" y2="177.63219" gradientUnits="userSpaceOnUse" id="color-3"><stop offset="0" stop-color="#000000"/><stop offset="1" stop-color="#000000" stop-opacity="0"/></linearGradient><linearGradient x1="360.26181" y1="-33.61388" x2="360.26181" y2="104.67877" gradientUnits="userSpaceOnUse" id="color-4"><stop offset="0" stop-color="#000000"/><stop offset="1" stop-color="#000000" stop-opacity="0"/></linearGradient><linearGradient x1="359.22991" y1="393.87422" x2="359.22991" y2="255.58157" gradientUnits="userSpaceOnUse" id="color-5"><stop offset="0" stop-color="#000000"/><stop offset="1" stop-color="#000000" stop-opacity="0"/></linearGradient></defs><g transform="translate(28.88889,38.5)"><g stroke-miterlimit="10"><path d="M-12,368.5v-380h741v380z" fill="#131313" stroke="#000000" stroke-width="0" stroke-linecap="butt"/><g fill="#5b5b5b" stroke="#000000" stroke-width="0" stroke-linecap="butt"><path d="M118.85434,395.5v-428h89v428z"/><path d="M255.14566,389.5v-428h89v428z"/></g><g fill="#5b5b5b" stroke="#000000" stroke-width="0" stroke-linecap="butt"><path d="M372.85434,395.5v-428h89v428z"/><path d="M509.14566,389.5v-428h89v428z"/></g><path d="M75.35736,346.29123v-332.58246h569.28529v332.58246z" fill="#818181" stroke="none" stroke-width="0" stroke-linecap="butt"/><path d="M161.64935,301.37228v-239.0658h396.97943v239.0658z" fill="#000000" stroke="none" stroke-width="0" stroke-linecap="butt"/><path d="M-12,301.37228v-239.0658h168.62878v239.0658z" fill="url(#color-1)" stroke="none" stroke-width="0" stroke-linecap="butt"/><path d="M158.86094,120v-40v28" fill="none" stroke="#484848" stroke-width="10" stroke-linecap="round"/><path d="M158.86094,221v46" fill="none" stroke="#484848" stroke-width="10" stroke-linecap="round"/><path d="M246.86094,311.5c-2.5,0 -2.5,-2.5 -2.5,-2.5v-5c0,-19.64565 -0.29081,-39.3164 0.19485,-58.95588c0.24862,-1.94941 -0.04418,-4.04883 0.74587,-5.84823c0.70007,-1.59447 2.64188,-2.35724 3.5177,-3.86236c1.5202,-2.61249 2.12916,-5.706 2.56808,-8.69656c0.44759,-3.04964 0.4738,-6.20062 0.00411,-9.24694c-0.49381,-3.20274 -2.41112,-6.05987 -3.0057,-9.24544c-0.43501,-2.3307 -0.20163,-7.62832 -0.57135,-10.06868c-0.42347,-2.79515 -2.09596,-7.0177 -2.43484,-9.77045c-0.60307,-4.89883 -0.01873,-10.36441 -0.01873,-15.30546c0,-9.33334 0,-18.66666 0,-28c0,-14.12812 -0.41432,-28.32954 0.11995,-42.44887c0.20396,-5.38993 2.205,-9.67698 2.90217,-14.88296c0.42776,-3.19421 -0.02212,-6.44544 -0.02212,-9.66817c0,-6.33334 0,-12.66666 0,-19c0,0 0,-2.5 2.5,-2.5c2.5,0 2.5,2.5 2.5,2.5c0,6.33334 0,12.66666 0,19c0,0.41774 0.00691,10.11503 -0.02212,10.33183c-0.5041,3.76418 -2.0496,6.01699 -2.64027,9.70963c-0.7485,4.67928 -0.32997,9.87852 -0.33391,14.6008c-0.00899,10.78591 -0.0037,21.57183 -0.0037,32.35774c0,9.33334 0,18.66666 0,28c0,4.7357 -0.59692,9.9978 -0.01873,14.69454c0.40446,3.28545 1.92002,6.3595 2.41588,9.6324c0.49508,3.26775 -0.06351,6.65132 0.54289,9.90026c0.67584,3.621 2.45743,5.68685 3.02936,9.38277c0.0378,0.24432 0.04243,10.49197 0.00411,10.75306c-0.05878,0.40045 -3.03972,10.21447 -3.17888,10.45996c-0.78522,1.38512 -2.61784,2.0123 -3.30509,3.44855c-0.59101,1.23513 -0.20345,2.73092 -0.30517,4.09639c-0.46698,19.5322 -0.18435,39.09408 -0.18435,58.63207v5c0,0 0,2.5 -2.5,2.5z" fill="#ab1d1d" stroke="none" stroke-width="0.5" stroke-linecap="butt"/><path d="M371.86094,313.5c-2.5,0 -2.5,-2.5 -2.5,-2.5l1.11325,-4.08013c0.73922,-0.38763 1.76927,-0.45887 2.21767,-1.16289c0.37744,-0.59261 -0.20542,-1.40402 -0.13737,-2.10332c0.48689,-5.0034 0.80645,-9.59041 0.80645,-14.65367c0,-9.97422 0.64895,-20.29395 -1.11044,-30.15818c-1.16819,-6.54961 -4.05809,-12.93444 -4.87083,-19.53636c-0.03752,-0.30476 -0.0104,-9.48064 -0.00919,-10.08725c-0.74698,-4.16817 -0.88277,-9.18486 -2.29665,-13.15158c-1.62567,-4.56095 -6.37381,-8.53836 -7.60006,-13.15626c-0.1071,-0.40335 0.25394,-10.83393 0.39049,-11.31754c1.78545,-6.32407 7.63372,-11.43812 9.85601,-17.60203c1.05841,-2.9357 1.37052,-6.10725 1.65078,-9.21531c0.2815,-3.12192 0.40062,-6.29264 0.0177,-9.40375c-0.54371,-4.4175 -3.35838,-8.58056 -4,-13c-0.62973,-4.3375 0.07331,-6.03849 0.94709,-10.03313c1.7846,-7.91263 1.02512,-16.24146 1.02512,-24.33861c0,-12.10022 -0.10671,-23.77976 -1.48577,-35.80201c-0.56869,-4.95764 -1.22436,-10.06104 -1.26385,-15.05828c-0.00927,-1.1732 1.04888,-2.62763 0.27448,-3.50899c-0.7744,-0.88136 -2.34343,-0.11951 -3.51514,-0.17927c0,0 -2.45145,-0.49029 -1.96116,-2.94174c0.49029,-2.45145 2.94174,-1.96116 2.94174,-1.96116c2.09688,0.59396 4.85215,0.1447 6.29066,1.78189c1.43851,1.63719 0.71213,4.30214 0.95774,6.46764c0.55894,4.92789 0.67622,9.89511 1.24293,14.82976c1.40222,12.20986 1.51838,24.08519 1.51838,36.37216c0,8.501 0.68021,17.10235 -1.14418,25.42326c-0.70629,3.12248 -1.40181,4.89898 -0.88361,8.205c0.6922,4.41603 3.4335,8.55522 4,13c0.02446,0.1919 0.04327,10.31268 0.0177,10.59625c-0.02738,0.30367 -1.86291,10.2845 -1.92694,10.46209c-1.63335,4.53042 -5.1272,9.26253 -7.52405,13.45238c-0.73052,1.27698 -1.82397,2.39655 -2.2237,3.81238c-0.39972,1.41583 -0.03531,2.94259 -0.09838,4.41241c-0.06094,1.42013 -0.64363,2.88309 -0.27358,4.25551c0.37552,1.39272 1.64524,2.37199 2.39316,3.6054c0.20994,0.34622 5.02204,8.98314 5.08623,9.16324c1.54774,4.3423 1.77303,9.83294 2.56781,14.39388c0.00604,3.30425 -0.41292,6.63326 -0.00919,9.91275c0.80005,6.49888 3.67946,12.81531 4.8306,19.26933c1.81312,10.16549 1.18813,20.75725 1.18813,31.03613c0,5.23903 -0.07932,10.02889 -0.83754,15.21027c-0.19609,1.34 0.22222,2.88298 -0.49338,4.03274c-0.83279,1.33805 -2.52155,1.89141 -3.78233,2.83711l1.11325,-0.08013c0,0 0,2.5 -2.5,2.5z" fill="#791515" stroke="none" stroke-width="0.5" stroke-linecap="butt"/><path d="M490.86094,318.5c-2.5,0 -2.5,-2.5 -2.5,-2.5v-4c0.01076,-1.53318 0.22595,-3.0786 0.03228,-4.59954c-0.13315,-1.04565 -0.85438,-1.95601 -1,-3c-0.43333,-3.10658 -0.04226,-6.27329 -0.03226,-9.40993c0.01477,-4.63277 -0.39315,-9.60262 0.64623,-14.15327c0.73271,-3.20802 2.6897,-6.0561 3.39166,-9.27099c0.83412,-3.82017 -0.03791,-8.95491 -0.03822,-12.85752c-0.00051,-6.46687 0.61018,-13.31486 -0.04508,-19.74665c-0.62853,-6.16934 -2.80848,-12.00738 -3.10883,-18.24635c-0.22397,-5.23362 -2.01876,-9.23905 -2.87545,-14.33011c-0.82256,-4.8883 -0.15693,-10.0177 -0.92473,-14.91031c-0.6593,-4.2012 -3.26976,-8.13583 -4.08535,-12.31984c-0.95563,-4.90243 -0.34389,-10.16752 -0.99705,-15.11989c-0.65559,-4.97081 -2.34065,-9.81119 -2.95104,-14.78925c-1.10123,-8.98121 -0.00284,-18.83446 0.25604,-27.87265c0.3572,-1.85098 0.39856,-3.79205 1.0716,-5.55295c0.09866,-0.25813 5.17523,-8.45951 5.46301,-8.91876c0.98512,-1.57209 1.67422,-3.38329 2.98129,-4.69992c1.30707,-1.31663 3.1125,-2.02001 4.67807,-3.01546c2.68683,-1.70839 5.21,-3.67581 7.63988,-5.73331c1.01295,-0.85771 2.57361,-1.26662 3.11735,-2.47743c0.54374,-1.21082 -0.18696,-2.64896 -0.2194,-3.97586c-0.04073,-1.66617 -0.00351,-3.33334 0,-5c0.01678,-7.97489 -2.89924,-15.66619 -4.88183,-23.37027c-0.74437,-2.89252 -0.76981,-7.7551 -4.61817,-7.12973c0,0 -2.5,0 -2.5,-2.5c0,-2.5 2.5,-2.5 2.5,-2.5c1.39321,0.0986 3.03534,-0.50503 4.17964,0.29581c4.70239,3.29095 5.23462,10.41103 6.53976,15.40811c1.21517,4.6526 3.1694,9.70753 3.76023,14.4776c0.01929,0.15574 0.02738,9.96603 0.02037,10.31848c-0.03998,2.00898 0.60375,4.19111 -0.2194,6.02414c-0.82315,1.83303 -2.88022,2.80329 -4.35673,4.1662c-2.54231,2.34672 -5.3615,4.40663 -8.30183,6.23007c-1.25639,0.77915 -2.74799,1.25511 -3.78954,2.30428c-1.04156,1.04917 -1.50794,2.5434 -2.2766,3.80624c-2.68054,4.40384 -4.90569,7.26892 -5.81565,12.37088c-0.22211,8.69584 -1.33759,18.22114 -0.2524,26.85185c0.61861,4.91993 2.2838,9.71001 2.93244,14.62816c0.6383,4.83968 0.01475,10.03144 0.94761,14.81702c0.81826,4.19767 3.39983,8.09788 4.08652,12.32584c0.80102,4.93191 0.1184,10.10935 0.94662,15.03126c0.88361,5.25108 2.67282,9.50363 2.93946,14.92933c0.26951,6.13676 2.46925,11.89276 3.0884,17.97006c0.67264,6.60238 0.0703,13.61536 0.07082,20.25303c0.00034,4.23174 0.83609,9.56885 -0.0376,13.72538c-0.69446,3.30385 -2.67978,6.23629 -3.4432,9.52488c-0.96612,4.16179 -0.5054,8.81089 -0.51891,13.05086c-0.00912,2.86336 -0.44768,5.75699 -0.03226,8.59007c0.15293,1.04294 0.87144,1.95378 1,3c0.21956,1.78674 0.02152,3.60031 0.03228,5.40046v4c0,0 0,2.5 -2.5,2.5z" fill="#ab1d1d" stroke="none" stroke-width="0.5" stroke-linecap="butt"/><path d="M215.73497,306.49683c-2.49683,-0.12597 -2.37086,-2.62279 -2.37086,-2.62279l0.09981,-1.79121c0.25765,-1.78355 0.24423,-3.6279 0.77296,-5.35066c0.47255,-1.53972 1.81026,-2.74158 2.19093,-4.30655c0.89143,-3.66475 -0.06688,-9.66161 -0.06688,-13.42562c0,-6.82067 -0.44093,-13.92007 0.60398,-20.68045c0.50526,-3.26895 1.99309,-6.34423 2.41475,-9.62501c0.23749,-1.84787 -0.42006,-3.81232 0.1461,-5.58728c0.42344,-1.32753 1.75294,-2.16711 2.6637,-3.22169c1.10031,-1.27406 5.23222,-5.81658 6.44019,-7.14876c1.23699,-2.76696 3.14631,-5.30387 3.78794,-8.26605c0.66833,-3.08542 -0.05666,-6.31378 -0.05666,-9.47075c0,-6.33334 0,-12.66666 0,-19c0,-13 0,-26 0,-39c0,-7.74875 0.4692,-15.64718 -0.38133,-23.35184c-0.90563,-8.28397 -1.81126,-16.56795 -2.71689,-24.85193c-0.34699,-3.17402 -0.12856,-6.45572 -1.00544,-9.52588c-1.69391,-5.9308 -5.82879,-12.0607 -8.50456,-17.63521c-5.04853,-10.51777 -10.09706,-21.03554 -15.14559,-31.55331c0,0 -1.08183,-2.25381 1.17198,-3.33564c2.25381,-1.08183 3.33564,1.17198 3.33564,1.17198c5.04853,10.51777 10.09706,21.03554 15.14559,31.55331c2.80139,5.83621 7.02987,12.2116 8.80469,18.42571c0.07618,0.26671 1.11131,9.83645 1.16807,10.35566c0.90563,8.28397 1.81127,16.56796 2.7169,24.85193c0.85516,7.89391 0.41094,15.958 0.41094,23.89522c0,13 0,26 0,39c0,6.33334 0,12.66666 0,19c0,0.6443 0.01707,10.18881 -0.05667,10.52925c-0.11145,0.51449 -4.23684,9.39623 -4.48811,9.94128c-0.76368,0.86204 -6.00343,6.79119 -6.90186,7.75055c-0.5462,0.58325 -1.51829,0.898 -1.7182,1.67166c-0.36818,1.42491 0.31765,2.95104 0.1461,4.41272c-0.23807,2.02851 -2.10465,7.63424 -2.43597,9.77784c-1.00509,6.50275 -0.5453,13.35519 -0.5453,19.9167c0,4.24563 0.87797,10.46512 -0.06688,14.57438c-0.38605,1.67899 -1.76662,2.99356 -2.2812,4.63772c-0.4574,1.46143 -0.39733,3.0368 -0.59599,4.5552l-0.05909,1.35867c0,0 -0.12597,2.49683 -2.62279,2.37086z" fill="#250606" stroke="none" stroke-width="0.5" stroke-linecap="butt"/><path d="M301.07036,317.37171c-2.37171,-0.79057 -1.58114,-3.16228 -1.58114,-3.16228l1,-3c1.74667,-5.2073 5.33186,-9.75146 6.97408,-14.91748c1.66479,-5.23702 0.89763,-11.87143 0.89763,-17.29194c0,-5 -0.00013,-10 0,-15c0,-0.28855 0.03917,-8.24112 -0.09457,-9.02337c-0.55795,-3.26342 -2.2128,-6.26456 -2.8617,-9.51112c-0.61041,-3.05397 -0.53077,-6.2061 -0.7894,-9.30972c-0.95427,-11.45117 -1.87301,-22.94738 -0.99973,-34.44826c0.37675,-4.9617 1.45855,-9.88728 1.7497,-14.85384c1.04408,-17.8105 -0.00429,-36.0079 -0.00429,-53.8537c0.03849,-6.43949 1.91859,-12.79705 4.15528,-18.86737c1.013,-2.74924 2.96554,-5.0926 3.95046,-7.85202c0.29782,-0.83442 0.01845,-1.80502 0.31794,-2.63884c0.11782,-0.32801 4.33608,-8.82551 4.60472,-9.35194c0.65125,-1.27618 1.75104,-2.39298 2.00189,-3.80359c0.25085,-1.41062 -0.3965,-2.83811 -0.56784,-4.26058c-0.3756,-3.11822 0.0964,-6.41493 -0.9579,-9.37344c-1.0543,-2.95851 -3.47614,-5.23215 -5.18586,-7.86676c-1.69549,-2.61267 -2.69046,-5.80981 -5.01262,-7.88546c-1.07966,-0.96505 -2.61607,-1.24262 -3.9241,-1.86393c0,0 -2.23607,-1.11803 -1.11804,-3.3541c1.11804,-2.23607 3.35411,-1.11803 3.35411,-1.11803c1.67339,0.8694 3.61419,1.35149 5.02017,2.60821c0.32254,0.28831 5.4488,8.23513 5.87473,8.89148c0.37991,0.58541 5.57377,8.55176 5.70149,8.91017c0.11748,0.32966 1.15159,9.83984 1.21834,10.50781c0.18907,1.89186 0.85317,3.80814 0.52029,5.68005c-0.84277,4.73917 -5.13164,9.18437 -6.73896,13.71258c-0.29709,0.83698 -0.01818,1.80982 -0.31984,2.64517c-1.03012,2.85264 -3.00787,5.29954 -4.04955,8.14798c-2.00315,5.47756 -3.88547,11.32505 -3.84472,17.13263c0,17.94421 1.04558,36.23711 -0.00428,54.1463c-0.29293,4.99699 -1.37475,9.94956 -1.75554,14.94068c-0.85715,11.23478 0.06476,22.46822 0.99687,33.65359c0.24424,2.93094 0.13926,5.91057 0.71923,8.79391c0.55907,2.77946 2.42326,6.90584 2.88526,9.64541c1.32498,7.85684 0.15846,16.8586 0.15846,24.82011c0,5.92801 0.69793,12.97137 -1.10236,18.70806c-1.6481,5.25171 -5.28108,9.81097 -7.02593,15.08252l-1,3c0,0 -0.79057,2.37171 -3.16228,1.58114z" fill="#13380a" stroke="none" stroke-width="0.5" stroke-linecap="butt"/><path d="M427.90368,301.44124c-1.44124,2.04275 -3.48399,0.6015 -3.48399,0.6015l-3.35679,-2.48582c-1.46763,-3.31039 -3.43589,-6.41411 -4.58761,-9.84721c-1.86407,-5.55647 -1.11435,-11.94474 -1.11435,-17.70972c0,-12.33333 0,-24.66666 0,-37c0,-7.57628 -0.05619,-15.15498 0.03116,-22.73077c0.0189,-1.63905 0.02251,-9.16779 0.39896,-10.60155c1.19925,-4.56763 4.77012,-9.65831 6.88955,-13.89716c4.31496,-8.62992 8.54273,-17.22087 13.45107,-25.52929c2.24433,-3.799 5.98334,-8.29578 7.41859,-12.45807c1.03225,-2.99358 0.77396,-6.28571 1.18604,-9.42534c0.66487,-5.06572 1.84542,-9.84998 2.72674,-14.81991c2.14936,-12.1206 0.5659,-24.52386 -1.26344,-36.51112c-0.48018,-3.14651 -0.35966,-6.43749 -1.39993,-9.44563c-1.04027,-3.00814 -3.16808,-5.52161 -4.73427,-8.29256c-2.46028,-4.35282 -4.92057,-8.70562 -7.38085,-13.05844c0,0 -1.23014,-2.17641 0.94626,-3.40655c2.1764,-1.23015 3.40655,0.94626 3.40655,0.94626c2.46028,4.35281 4.92058,8.70563 7.38086,13.05845c0.27391,0.48462 5.00979,8.83795 5.10688,9.1187c0.09709,0.28075 1.5333,9.77517 1.61728,10.32547c1.91429,12.54398 3.45621,25.45305 1.24514,38.13121c-0.85602,4.90838 -2.03743,9.60443 -2.69373,14.60481c-0.07967,0.60702 -1.30927,10.09319 -1.41664,10.40459c-1.54519,4.48112 -5.42156,9.27666 -7.84056,13.37134c-4.84883,8.2077 -9.021,16.69652 -13.28383,25.22217c-1.96618,3.93234 -5.40344,8.69546 -6.52686,12.93564c-0.18266,0.68944 -0.22939,8.97065 -0.23411,9.38434c-0.08621,7.5567 -0.03082,15.11625 -0.03082,22.67343c0,12.33334 0,24.66667 0,37c0,5.07081 -0.84877,11.21643 0.84681,16.09609c0.99871,2.87415 2.62293,5.49613 3.7481,8.32317l2.34634,1.53799c0,0 2.04274,1.44124 0.6015,3.48399z" fill="#39ab1d" stroke="none" stroke-width="0.5" stroke-linecap="butt"/><path d="M190.51585,310.10731c-2.10731,-1.34508 -0.76223,-3.45239 -0.76223,-3.45239l1.82704,-2.78279c1.45261,-7.63697 3.98665,-15.3534 4.78878,-23.07833c0.27366,-2.63554 -0.13022,-5.30246 -0.00369,-7.94914c0.35335,-7.39114 2.4779,-14.6549 3.00146,-22.02188c0.56158,-7.90201 -0.00622,-16.06141 -0.0058,-23.98884c0.00356,-8.50584 -0.42023,-16.97168 1.14541,-25.36179c0.33779,-1.81022 0.36128,-3.71439 1.04284,-5.42508c0.12427,-0.3119 5.42036,-7.98222 5.58586,-8.22296c3.35226,-4.87602 6.47944,-10.33536 10.26957,-14.88933c1.04359,-1.25391 2.43197,-2.19296 3.46907,-3.45225c2.50636,-3.04335 4.08868,-7.40622 5.67789,-10.95702c0.62152,-1.38869 1.51951,-2.68023 1.88384,-4.15739c1.28866,-5.22483 0.9276,-11.98057 0.92505,-17.36811c0,-13 0,-26 0,-39c0,-7.4299 0.82252,-15.37077 0.01317,-22.74371c-0.86738,-7.90149 -3.33826,-15.95908 -4.96062,-23.74641c0,0 -0.50989,-2.44745 1.93756,-2.95734c2.44745,-0.50988 2.95734,1.93757 2.95734,1.93757c1.65751,7.95604 4.15913,16.17837 5.03938,24.25359c0.64687,5.93422 0.01317,12.28256 0.01317,18.25629c0,14.66666 0,29.33334 0,44c-0.0026,5.77822 0.31258,12.95769 -1.07053,18.56544c-0.43392,1.75929 -1.4385,3.32631 -2.16694,4.98544c-1.72433,3.92743 -3.5441,8.59151 -6.27577,11.9666c-1.07074,1.32295 -2.51116,2.31239 -3.602,3.61882c-3.69672,4.42732 -6.72716,9.77456 -9.98995,14.52044c-1.67929,2.44261 -3.99489,4.53918 -5.08356,7.2962c-0.548,1.3878 -0.48692,2.94422 -0.746,4.41362c-1.43039,8.11229 -1.06132,16.24884 -1.06476,24.46854c-0.00043,8.0462 0.56325,16.32108 -0.00678,24.34212c-0.52247,7.35176 -2.65458,14.6047 -2.99854,21.97812c-0.12505,2.6807 0.27246,5.38148 -0.00369,8.05086c-0.84754,8.19285 -3.45467,16.46829 -5.13354,24.53328l-2.25063,3.6056c0,0 -1.34508,2.10731 -3.45239,0.76223z" fill="#256f13" stroke="none" stroke-width="0.5" stroke-linecap="butt"/><path d="M515.86094,307.5c-2.5,0 -2.5,-2.5 -2.5,-2.5c0,-7.66667 0,-16.33333 0,-24c0,-0.14733 -0.08007,-8.22594 0.1903,-8.95671c0.34606,-0.93534 1.68299,-1.23998 2.0721,-2.15825c0.47332,-1.11699 0.2261,-2.41611 0.37636,-3.61991c0.40598,-3.25252 1.13232,-6.46827 1.36944,-9.73744c0.38289,-5.27875 0.04082,-9.96055 1.07918,-15.21218c0.07801,-0.39004 1.96045,-9.82395 2.02512,-10.05705c1.38635,-4.99676 4.25382,-9.26432 4.90623,-14.56393c0.86019,-6.98742 -0.01873,-14.65851 -0.01873,-21.69454c0,-16.33334 0,-32.66666 0,-49c0,-29.66666 0,-59.33334 0,-89c0,0 0,-2.5 2.5,-2.5c2.5,0 2.5,2.5 2.5,2.5c0,29.66666 0,59.33334 0,89c0,16.33334 0,32.66666 0,49c0,7.23985 0.86664,15.1135 -0.01873,22.30546c-0.69409,5.63815 -3.64622,10.12661 -5.09378,15.43607c-0.85409,3.13269 -1.26041,6.37059 -1.8972,9.55456c-1.02157,5.04453 -0.62608,9.50455 -0.99519,14.59331c-0.31474,4.3392 -0.65025,11.1807 -2.2575,15.22555c-0.32819,0.82593 -1.56505,1.03045 -1.9279,1.84175c-0.27928,0.62444 0.17183,1.3595 0.1903,2.04329c0.04502,1.66606 0,3.33333 0,5c0,7.66667 0,15.33333 0,23v1c0,0 0,2.5 -2.5,2.5z" fill="#39ab1d" stroke="none" stroke-width="0.5" stroke-linecap="butt"/><path d="M263.97023,314.49761c-2.49761,0.10929 -2.6069,-2.38832 -2.6069,-2.38832l-0.16677,-3.9167c-0.18618,-1.34954 0.05532,-2.83245 -0.55854,-4.04864c-0.64917,-1.28616 -2.43277,-1.76734 -3.0371,-3.07517c-0.67705,-1.46521 -0.24592,-3.23055 -0.60396,-4.80442c-0.61642,-2.70963 -1.32637,-5.461 -2.65092,-7.90387c-1.59761,-2.94646 -4.2168,-5.27188 -5.73089,-8.26211c-0.34768,-0.68664 0.16908,-1.81069 -0.45284,-2.26408c-1.06814,-0.77868 -2.86508,-0.02046 -3.86569,-0.8842c-1.35402,-1.1688 -1.6805,-3.1598 -2.59796,-4.69529c-1.94369,-3.25302 -3.22714,-6.89259 -5.05217,-10.09455c-2.76403,-4.84942 -7.62946,-8.25344 -10.81366,-12.69849c-1.8221,-2.5436 -3.08927,-5.46264 -4.97189,-7.96177c-1.48922,-1.987 -3.85127,-4.92849 -5.08047,-7.24431c-1.52876,-2.88019 -2.22389,-6.20028 -4.03722,-8.91035c-1.93273,-2.88851 -4.79901,-5.20453 -6.19201,-8.38863c-1.14388,-2.61465 -1.4579,-5.53184 -2.50055,-8.18848c-2.49793,-6.36463 -4.51401,-12.49999 -6.57176,-19.00928c-4.47988,-14.17122 -8.81211,-28.33824 -12.90098,-42.64929c-1.36735,-4.78571 -2.64004,-9.61429 -4.10533,-14.3708c-0.2695,-0.87483 -2.96912,-8.80567 -3.06355,-9.25069c-1.64873,-7.7701 -1.04812,-16.59151 -1.04812,-24.48816c0,-13.33334 0,-26.66666 0,-40c0,0 0,-2.5 2.5,-2.5c2.5,0 2.5,2.5 2.5,2.5c0,13.33334 0,26.66666 0,40c0,7.55591 -0.63918,16.08239 0.95188,23.51184c0.6442,3.0081 2.03068,5.80937 2.93645,8.74931c1.47609,4.79107 2.75901,9.65439 4.1363,14.47491c5.88852,20.60984 11.53269,41.27839 19.32414,61.21737c1.02588,2.62531 1.36213,5.49424 2.46094,8.08987c1.23047,2.90664 3.99576,4.90072 5.73635,7.53377c0.40756,0.61652 3.79033,8.3868 4.26368,9.28567c1.03235,1.96042 3.52955,5.09072 4.69028,6.63726c1.89137,2.532 3.19505,5.46368 5.0281,8.03823c3.32451,4.66931 8.26942,8.20785 11.18635,13.30151c0.56082,0.97933 0.65218,2.16564 1.09525,3.20355c1.01166,2.36987 2.62892,4.4342 3.85258,6.70189c0.56824,1.05307 0.46694,2.55807 1.40204,3.30471c1.11546,0.89065 3.04883,0.18885 4.13431,1.1158c1.02499,0.8753 0.90175,2.55262 1.54717,3.73592c1.58676,2.90912 4.11261,5.23925 5.67913,8.15931c0.27554,0.51362 3.09528,9.13355 3.10134,9.16153c0.26225,1.21062 -0.30398,2.59285 0.23376,3.70875c0.60246,1.2502 2.37963,1.66558 2.9629,2.92483c0.82878,1.78929 0.72363,3.87686 1.08545,5.8153l0.18923,4.21937c0,0 0.10929,2.49761 -2.38832,2.6069z" fill="#1d72ab" stroke="none" stroke-width="0.5" stroke-linecap="butt"/><path d="M413.36094,55c0,1.05056 -0.44147,1.65966 -0.95338,2.01279c0.15336,3.74766 0.5947,7.93952 -0.08673,11.43327c-0.08689,0.44549 -3.03055,8.1451 -3.03247,8.15199c-0.72881,2.61221 -0.29763,5.45756 -1.01885,8.07188c-3.473,12.58914 -13.29917,22.83812 -18.54496,34.60662c-3.10397,6.96352 -5.7905,14.32047 -8.48099,21.4805c-1.05753,4.02604 -2.16912,8.82159 -4.21066,12.48092c-6.92618,12.41476 -21.43184,13.32499 -33.23655,18.08044c-4.14619,1.67026 -8.19553,3.56356 -12.06702,5.78793c-3.06939,1.76353 -5.86831,4.10964 -9.20106,5.30295c-0.94952,0.33999 -2.04764,-0.23931 -3.02567,0.00696c-4.23687,1.06687 -8.51479,5.64828 -11.71577,8.41182c-0.85561,0.99982 -2.08545,1.77472 -2.56683,2.99945c-0.38723,0.98517 0.1204,2.11415 0.14093,3.17248c0.06052,3.12052 -0.26911,7.92136 0.74579,10.90162c0.49723,1.46014 2.27996,2.07972 3.46522,3.06686c2.1499,1.79053 4.39927,3.46118 6.67343,5.091c2.42447,1.73754 4.78501,3.62145 6.78416,5.83517c2.08315,2.30674 3.6984,5.10575 6.16817,6.99276c1.96787,1.50354 4.82218,1.17906 7.14325,2.04265c4.69561,1.74708 8.9851,4.55277 13.62409,6.36851c3.78942,1.48321 8.01607,2.54479 11.86095,3.95023c4.30185,1.29518 9.12688,3.21266 11.42573,7.65576c0.77726,1.50225 0.20986,3.43868 0.85711,5.00136c0.38715,0.93471 1.51219,1.36418 2.11577,2.17612c1.03903,1.39769 1.85952,2.94529 2.78718,4.41926c1.82482,2.8995 4.031,5.58424 5.52002,8.66968c0.68723,1.42405 0.72037,3.11492 1.45578,4.5147c0.40095,0.76317 1.34161,1.10813 1.86014,1.79684c1.66571,2.2124 2.71758,4.82693 4.13986,7.20316c0.72676,1.21421 1.87768,2.22913 2.26611,3.58987c0.1451,0.50832 0.10727,9.37308 0.10727,9.72446c0,5 0,10 0,15c0,0 0,2.5 -2.5,2.5c-2.5,0 -2.5,-2.5 -2.5,-2.5c0,-5 0,-10 0,-15c0,-2.75874 0.86608,-5.6232 0.10727,-8.27554c-0.27222,-0.9515 -1.21001,-1.57049 -1.7339,-2.41013c-1.37922,-2.21051 -2.28622,-4.72045 -3.86014,-6.79684c-0.61843,-0.81586 -1.65618,-1.30086 -2.13986,-2.20316c-0.82787,-1.54438 -0.94626,-3.39337 -1.7065,-4.97213c-1.40594,-2.91964 -3.52981,-5.4358 -5.25035,-8.18184c-0.84514,-1.34886 -1.59175,-2.76424 -2.53098,-4.04936c-0.78765,-1.07772 -2.10191,-1.79243 -2.63343,-3.01691c-0.6538,-1.50617 -0.07717,-3.38194 -0.78688,-4.86258c-1.50077,-3.13101 -5.69776,-4.46765 -8.54552,-5.22751c-3.92284,-1.43107 -8.2738,-2.53501 -12.13906,-4.04978c-4.6134,-1.80796 -8.87651,-4.60131 -13.54422,-6.33802c-2.64064,-0.9825 -5.78992,-0.85286 -8.0732,-2.5036c-4.99465,-3.611 -8.05542,-9.33325 -13.18501,-12.98445c-3.1812,-2.26436 -6.41453,-4.55373 -9.19663,-7.31234c-0.87841,-0.87099 -2.06849,-1.56867 -2.5274,-2.71742c-1.36338,-3.41286 -1.31057,-9.37857 -1.25421,-13.09838c0.02439,-1.60968 -0.45245,-3.33101 0.14093,-4.82752c0.74403,-1.87645 2.45342,-3.20616 3.68012,-4.80924c4.03142,-3.50968 8.72456,-8.28078 14.03728,-9.77949c0.95421,-0.26918 2.03767,0.33198 2.97433,0.00696c2.95387,-1.02498 5.33426,-3.26496 8.04642,-4.82065c4.07318,-2.33637 8.32534,-4.33191 12.6855,-6.08847c10.38198,-4.18254 24.74383,-4.90438 30.76345,-15.91956c1.84463,-3.37546 2.81905,-7.81486 3.78935,-11.51908c3.33348,-8.90653 6.58104,-18.3293 11.2716,-26.56805c3.2984,-5.7935 6.6085,-11.58042 9.9158,-17.36885c2.08799,-3.6544 4.66355,-7.89939 5.78666,-11.97598c0.70727,-2.56722 0.27619,-5.36026 0.98115,-7.92812c0.74041,-2.69698 2.42045,-5.10527 2.96753,-7.84801c0.75639,-3.79207 -0.04012,-8.69218 -0.04012,-12.55394l3.5,-2.5c0,0 2.5,0 2.5,2.5z" fill="#104161" stroke="none" stroke-width="0.5" stroke-linecap="butt"/><path d="M478.86094,310.5c-2.5,0 -2.5,-2.5 -2.5,-2.5v-1c0,-2.40353 1.01772,-4.97653 0.12829,-7.20943c-0.61675,-1.54836 -2.44121,-2.4298 -3,-4c-0.15424,-0.4334 -0.12881,-6.54654 -0.12829,-7.79057c0.0016,-3.86197 -0.14941,-7.6175 -0.93312,-11.42562c-0.85415,-4.15038 -3.28073,-7.99754 -4.0346,-12.17392c-0.6237,-3.45525 0.7173,-7.99908 -0.34969,-11.37922c-0.50842,-1.61066 -2.15186,-2.72323 -2.59188,-4.3539c-0.84307,-3.12439 -0.15026,-6.47275 -0.3714,-9.70132c-0.21111,-3.23703 -1.16944,-6.382 -1.68994,-9.58389c-0.23572,-1.45004 0.11885,-2.95662 -0.12395,-4.4055c-0.55286,-3.29914 -2.39317,-6.30392 -2.87893,-9.6136c-0.03474,-0.23666 -0.0265,-9.90845 -0.0265,-10.36303c0,-0.40974 -0.00588,-10.08062 0.01873,-10.30546c0.14957,-1.36621 0.82614,-2.63667 1,-4c1.17856,-9.24155 -1.06337,-18.96491 0.33831,-28.22441c1.2193,-8.05468 4.628,-16.35082 6.86923,-24.19124c0.91422,-6.45416 2.19729,-12.96536 2.78002,-19.45611c0.61222,-6.81919 -0.00629,-13.97116 -0.00629,-20.82277c0,-13 0,-26 0,-39c0,0 0,-2.5 2.5,-2.5c2.5,0 2.5,2.5 2.5,2.5c0,13 0,26 0,39c0,6.97437 0.60607,14.23333 -0.00629,21.17723c-0.59245,6.71829 -1.91554,13.46557 -2.87684,20.14186c-2.19414,7.74282 -5.61326,15.95315 -6.81615,23.89941c-1.39321,9.20352 0.81001,18.87876 -0.31945,28.08697c-0.16733,1.36415 -0.84587,2.6343 -1,4c-0.36241,3.21114 0.01873,6.46302 0.01873,9.69454c0,3.21233 -0.49298,6.45868 -0.0265,9.63697c0.48233,3.28632 2.30593,6.26931 2.86804,9.54292c0.25045,1.45861 -0.10832,2.9772 0.12909,4.43798c0.54316,3.34211 1.49806,6.63072 1.73712,10.00822c0.19639,2.89632 -0.59465,5.91492 0.20154,8.70657c0.45099,1.5813 2.08155,2.64572 2.55309,4.22102c1.16496,3.89184 -0.20047,8.15118 0.50535,12.04586c0.73284,4.04376 3.12606,7.79181 3.9654,11.82608c0.87214,4.19194 1.06517,8.3213 1.06688,12.57438c0.00083,2.07025 -0.89438,4.28614 -0.12829,6.20943c0.61675,1.54836 2.44121,2.4298 3,4c0.16399,0.4608 0.12829,7.91958 0.12829,8.79057v1c0,0 0,2.5 -2.5,2.5z" fill="#092234" stroke="none" stroke-width="0.5" stroke-linecap="butt"/><path d="M224,69.25v219.5" fill="none" stroke="#752d00" stroke-width="25" stroke-linecap="round"/><path d="M465.36008,71.25v219.5" fill="none" stroke="#007519" stroke-width="25" stroke-linecap="round"/><path d="M288.35123,310.45145c-2.45145,0.49029 -2.94174,-1.96116 -2.94174,-1.96116l-0.01942,-0.0971c-1.85244,-9.37524 -0.55484,-18.82388 -1.03096,-28.31761c-0.16697,-3.32938 -0.82892,-6.62163 -0.99507,-9.95105c-0.3034,-6.07981 0.24466,-11.71439 -0.97397,-17.73134c-1.54118,-7.79994 -0.76711,-15.57264 -1.20257,-23.48105c-0.73732,-13.3907 -0.82871,-26.70319 -0.83902,-40.11264c-0.00626,-8.14051 0.63619,-16.64198 -0.19817,-24.74516c-0.50513,-4.9057 -1.53577,-9.86996 -2.14988,-14.78287c-2.45522,-19.67005 -1.63947,-39.58507 -1.63951,-59.36859c-0.00002,-9.69356 0.97538,-19.90168 -0.95142,-29.4126c0,0 -0.49029,-2.45145 1.96116,-2.94174c2.45145,-0.49029 2.94174,1.96116 2.94174,1.96116c1.95241,9.87793 1.0485,20.33616 1.04852,30.39317c0.00004,19.57183 -0.83505,39.28952 1.6009,58.74843c0.61838,4.94707 1.65876,9.95282 2.16245,14.89351c0.67657,6.63635 0.21523,13.58523 0.22036,20.25085c0.01153,14.98265 0.01494,29.8804 0.83534,44.84216c0.41931,7.64707 -0.4123,15.24854 1.113,22.77479c1.24178,6.28108 0.74938,12.13362 1.06486,18.46285c0.32029,6.42555 1.00133,12.66579 1.00311,19.12385c0.00173,6.24739 -0.31169,12.27643 0.93203,18.4133l0.01942,0.09709c0,0 0.49029,2.45145 -1.96116,2.94174z" fill="#030a10" stroke="none" stroke-width="0.5" stroke-linecap="butt"/><path d="M347.14566,71.05648v219.5" fill="none" stroke="#000575" stroke-width="25" stroke-linecap="round"/><g fill="#3c3c3c" stroke="#484848" stroke-width="0" stroke-linecap="butt"><g><path d="M435.00287,74.05648v-24h58v24z"/><path d="M318.78845,74.55648v-24h58v24z"/><path d="M195.28845,74.30648v-24h58v24z"/></g><g><path d="M435.00287,311.05648v-24h58v24z"/><path d="M318.78845,311.55648v-24h58v24z"/><path d="M195.28845,311.30648v-24h58v24z"/></g></g><path d="M126.86094,62.30648v-23h452v23z" fill="#818181" stroke="#484848" stroke-width="0" stroke-linecap="butt"/><path d="M118.14566,324.30648v-23h452v23z" fill="#818181" stroke="#484848" stroke-width="0" stroke-linecap="butt"/><text transform="translate(218.63257,107.3914) rotate(90) scale(0.37854,0.37854)" font-size="40" xml:space="preserve" fill="#000000" stroke="#000000" stroke-width="3" stroke-linecap="butt" font-family="&quot;Century Gothic&quot;, Sans Serif" font-weight="normal" text-anchor="start"><tspan x="0" dy="0">PRISON SECTOR</tspan></text><text transform="translate(460.99267,106.89141) rotate(90) scale(0.37854,0.37854)" font-size="40" xml:space="preserve" fill="#000000" stroke="#000000" stroke-width="3" stroke-linecap="butt" font-family="&quot;Century Gothic&quot;, Sans Serif" font-weight="normal" text-anchor="start"><tspan x="0" dy="0">SUPPLY  SECTOR</tspan></text><text transform="translate(341.77825,106.89141) rotate(90) scale(0.37854,0.37854)" font-size="40" xml:space="preserve" fill="#000000" stroke="#000000" stroke-width="3" stroke-linecap="butt" font-family="&quot;Century Gothic&quot;, Sans Serif" font-weight="normal" text-anchor="start"><tspan x="0" dy="0">SECURITY SECTOR</tspan></text><g stroke-width="0" stroke-linecap="butt"><g fill-opacity="0.83922" fill="#000000" stroke="#000000"><path d="M-16.34512,373.95896v-403.48913h743.89439v403.48913z"/></g><g stroke="none"><path d="M-26.49166,392.65285v-423.0128h164.97129v423.0128z" fill="url(#color-2)"/><path d="M583.9176,389.13859v-423.0128h164.97129v423.0128z" fill="url(#color-3)"/><path d="M-27.857,104.67877v-138.29264h776.23763v138.29265z" fill="url(#color-4)"/><path d="M747.34873,255.58157v138.29264h-776.23762v-138.29264z" fill="url(#color-5)"/></g></g></g></g></svg>