<svg version="1.1" xmlns="http://www.w3.org/2000/svg" xmlns:xlink="http://www.w3.org/1999/xlink" width="155.32578" height="290.08826" viewBox="0,0,155.32578,290.08826"><defs><linearGradient x1="373.07368" y1="211.16696" x2="373.25923" y2="269.86287" gradientUnits="userSpaceOnUse" id="color-1"><stop offset="0" stop-color="#000000" stop-opacity="0"/><stop offset="1" stop-color="#000000" stop-opacity="0.31124"/></linearGradient><linearGradient x1="353.72868" y1="208.16696" x2="353.54313" y2="266.86287" gradientUnits="userSpaceOnUse" id="color-2"><stop offset="0" stop-color="#000000" stop-opacity="0"/><stop offset="1" stop-color="#000000" stop-opacity="0.31124"/></linearGradient><radialGradient cx="308.23991" cy="171.62051" r="6.63977" gradientUnits="userSpaceOnUse" id="color-3"><stop offset="0" stop-color="#5a5a5a"/><stop offset="1" stop-color="#272727"/></radialGradient><linearGradient x1="323.58946" y1="164.026" x2="282.19655" y2="184.506" gradientUnits="userSpaceOnUse" id="color-4"><stop offset="0" stop-color="#000000"/><stop offset="1" stop-color="#000000" stop-opacity="0"/></linearGradient><radialGradient cx="398.98446" cy="154.43284" r="6.63977" gradientUnits="userSpaceOnUse" id="color-5"><stop offset="0" stop-color="#5a5a5a"/><stop offset="1" stop-color="#272727"/></radialGradient><linearGradient x1="381.88141" y1="153.55485" x2="428.00296" y2="155.92251" gradientUnits="userSpaceOnUse" id="color-6"><stop offset="0" stop-color="#000000"/><stop offset="1" stop-color="#000000" stop-opacity="0"/></linearGradient><linearGradient x1="445.40441" y1="157.66687" x2="454.57056" y2="159.56517" gradientUnits="userSpaceOnUse" id="color-7"><stop offset="0" stop-color="#000000" stop-opacity="0.2419"/><stop offset="1" stop-color="#e64e3d"/></linearGradient><radialGradient cx="454.54622" cy="166.35593" r="6.44335" gradientUnits="userSpaceOnUse" id="color-8"><stop offset="0" stop-color="#ffffff" stop-opacity="0.2903"/><stop offset="1" stop-color="#ffffff" stop-opacity="0"/></radialGradient><radialGradient cx="454.84768" cy="163.39801" r="2.33455" gradientUnits="userSpaceOnUse" id="color-9"><stop offset="0" stop-color="#ffffff" stop-opacity="0.2903"/><stop offset="1" stop-color="#ffffff" stop-opacity="0"/></radialGradient><linearGradient x1="369.20872" y1="155.89152" x2="411.70736" y2="152.65952" gradientUnits="userSpaceOnUse" id="color-10"><stop offset="0" stop-color="#000000" stop-opacity="0"/><stop offset="1" stop-color="#000000" stop-opacity="0.31124"/></linearGradient><linearGradient x1="441.59076" y1="156.98813" x2="451.37456" y2="159.01433" gradientUnits="userSpaceOnUse" id="color-11"><stop offset="0" stop-color="#000000" stop-opacity="0"/><stop offset="1" stop-color="#000000" stop-opacity="0.22249"/></linearGradient><linearGradient x1="268.51844" y1="195.01159" x2="261.21442" y2="200.86593" gradientUnits="userSpaceOnUse" id="color-12"><stop offset="0" stop-color="#000000" stop-opacity="0.2419"/><stop offset="1" stop-color="#e64e3d"/></linearGradient><radialGradient cx="264.32037" cy="206.90482" r="6.44335" gradientUnits="userSpaceOnUse" id="color-13"><stop offset="0" stop-color="#ffffff" stop-opacity="0.2903"/><stop offset="1" stop-color="#ffffff" stop-opacity="0"/></radialGradient><radialGradient cx="262.70835" cy="204.40649" r="2.33455" gradientUnits="userSpaceOnUse" id="color-14"><stop offset="0" stop-color="#ffffff" stop-opacity="0.2903"/><stop offset="1" stop-color="#ffffff" stop-opacity="0"/></radialGradient><linearGradient x1="335.59542" y1="158.82302" x2="296.26514" y2="175.24583" gradientUnits="userSpaceOnUse" id="color-15"><stop offset="0" stop-color="#000000" stop-opacity="0"/><stop offset="1" stop-color="#000000" stop-opacity="0.31124"/></linearGradient><linearGradient x1="271.60778" y1="192.67479" x2="263.81159" y2="198.92361" gradientUnits="userSpaceOnUse" id="color-16"><stop offset="0" stop-color="#000000" stop-opacity="0"/><stop offset="1" stop-color="#000000" stop-opacity="0.22249"/></linearGradient><linearGradient x1="348.92877" y1="147.41776" x2="365.55102" y2="216.62123" gradientUnits="userSpaceOnUse" id="color-17"><stop offset="0" stop-color="#000000" stop-opacity="0"/><stop offset="1" stop-color="#000000" stop-opacity="0.31124"/></linearGradient><radialGradient cx="344.3951" cy="122.35186" r="10.97939" gradientUnits="userSpaceOnUse" id="color-18"><stop offset="0" stop-color="#5a5a5a"/><stop offset="1" stop-color="#272727"/></radialGradient><radialGradient cx="344.3951" cy="122.35186" r="10.97939" gradientUnits="userSpaceOnUse" id="color-19"><stop offset="0" stop-color="#5a5a5a"/><stop offset="1" stop-color="#272727"/></radialGradient><linearGradient x1="342.07087" y1="112.67537" x2="348.33859" y2="138.76983" gradientUnits="userSpaceOnUse" id="color-20"><stop offset="0" stop-color="#000000"/><stop offset="1" stop-color="#000000" stop-opacity="0"/></linearGradient><linearGradient x1="342.07087" y1="112.67537" x2="348.33859" y2="138.76983" gradientUnits="userSpaceOnUse" id="color-21"><stop offset="0" stop-color="#000000"/><stop offset="1" stop-color="#000000" stop-opacity="0"/></linearGradient><linearGradient x1="325.62441" y1="144.90598" x2="323.18422" y2="156.02835" gradientUnits="userSpaceOnUse" id="color-22"><stop offset="0" stop-color="#4a4323" stop-opacity="0"/><stop offset="1" stop-color="#4a4323" stop-opacity="0.56131"/></linearGradient><linearGradient x1="332.79517" y1="136.04334" x2="328.13141" y2="146.28645" gradientUnits="userSpaceOnUse" id="color-23"><stop offset="0" stop-color="#ffffff" stop-opacity="0.33869"/><stop offset="1" stop-color="#ffffff" stop-opacity="0"/></linearGradient><linearGradient x1="371.30569" y1="136.49807" x2="375.38963" y2="147.17577" gradientUnits="userSpaceOnUse" id="color-24"><stop offset="0" stop-color="#4a4323" stop-opacity="0"/><stop offset="1" stop-color="#4a4323" stop-opacity="0.56131"/></linearGradient><linearGradient x1="362.93273" y1="128.84013" x2="369.06056" y2="138.28057" gradientUnits="userSpaceOnUse" id="color-25"><stop offset="0" stop-color="#ffffff" stop-opacity="0.33869"/><stop offset="1" stop-color="#ffffff" stop-opacity="0"/></linearGradient><linearGradient x1="355.15966" y1="179.4777" x2="345.0118" y2="137.22911" gradientUnits="userSpaceOnUse" id="color-26"><stop offset="0" stop-color="#000000" stop-opacity="0"/><stop offset="1" stop-color="#000000" stop-opacity="0.20735"/></linearGradient><linearGradient x1="343.84617" y1="132.37622" x2="346.58884" y2="143.79477" gradientUnits="userSpaceOnUse" id="color-27"><stop offset="0" stop-color="#000000" stop-opacity="0"/><stop offset="1" stop-color="#000000" stop-opacity="0.52899"/></linearGradient><radialGradient cx="334.40029" cy="105.02273" r="19.25" gradientUnits="userSpaceOnUse" id="color-28"><stop offset="0" stop-color="#464646"/><stop offset="1" stop-color="#090909"/></radialGradient><radialGradient cx="334.40029" cy="111.05101" r="15.22248" gradientUnits="userSpaceOnUse" id="color-29"><stop offset="0" stop-color="#464646"/><stop offset="1" stop-color="#090909"/></radialGradient><radialGradient cx="346.43729" cy="126.88745" r="15.22247" gradientUnits="userSpaceOnUse" id="color-30"><stop offset="0" stop-color="#464646"/><stop offset="1" stop-color="#090909"/></radialGradient><radialGradient cx="335.93729" cy="110.1111" r="15.22247" gradientUnits="userSpaceOnUse" id="color-31"><stop offset="0" stop-color="#464646"/><stop offset="1" stop-color="#090909"/></radialGradient><linearGradient x1="333.84659" y1="112.76483" x2="336.10309" y2="116.65819" gradientUnits="userSpaceOnUse" id="color-32"><stop offset="0" stop-color="#0b0403" stop-opacity="0.1902"/><stop offset="1" stop-color="#0b0403" stop-opacity="0"/></linearGradient><radialGradient cx="326.3765" cy="116.1517" r="9.92857" gradientUnits="userSpaceOnUse" id="color-33"><stop offset="0" stop-color="#4c0000" stop-opacity="0.33528"/><stop offset="1" stop-color="#4c0000" stop-opacity="0"/></radialGradient><radialGradient cx="329.04884" cy="108.88905" r="9.92857" gradientUnits="userSpaceOnUse" id="color-34"><stop offset="0" stop-color="#4c0000" stop-opacity="0.33528"/><stop offset="1" stop-color="#4c0000" stop-opacity="0"/></radialGradient><linearGradient x1="325.58403" y1="118.15127" x2="329.20707" y2="119.53668" gradientUnits="userSpaceOnUse" id="color-35"><stop offset="0" stop-color="#4a4323" stop-opacity="0"/><stop offset="1" stop-color="#4a4323" stop-opacity="0.56131"/></linearGradient><linearGradient x1="325.58403" y1="118.15127" x2="329.20707" y2="119.53668" gradientUnits="userSpaceOnUse" id="color-36"><stop offset="0" stop-color="#4a4323" stop-opacity="0"/><stop offset="1" stop-color="#4a4323" stop-opacity="0.56131"/></linearGradient><radialGradient cx="339.30254" cy="108.64187" r="9.92857" gradientUnits="userSpaceOnUse" id="color-37"><stop offset="0" stop-color="#4c0000" stop-opacity="0.33528"/><stop offset="1" stop-color="#4c0000" stop-opacity="0"/></radialGradient><linearGradient x1="340.60008" y1="108.0241" x2="340.72912" y2="111.90084" gradientUnits="userSpaceOnUse" id="color-38"><stop offset="0" stop-color="#4a4323" stop-opacity="0"/><stop offset="1" stop-color="#4a4323" stop-opacity="0.56131"/></linearGradient><linearGradient x1="340.60008" y1="108.0241" x2="340.72912" y2="111.90084" gradientUnits="userSpaceOnUse" id="color-39"><stop offset="0" stop-color="#4a4323" stop-opacity="0"/><stop offset="1" stop-color="#4a4323" stop-opacity="0.56131"/></linearGradient><radialGradient cx="308.77598" cy="99.13565" r="16.08607" gradientUnits="userSpaceOnUse" id="color-40"><stop offset="0" stop-color="#000000"/><stop offset="1" stop-color="#000000" stop-opacity="0"/></radialGradient><linearGradient x1="302.57759" y1="88.42488" x2="307.04721" y2="96.13675" gradientUnits="userSpaceOnUse" id="color-41"><stop offset="0" stop-color="#38130f"/><stop offset="1" stop-color="#000000"/></linearGradient><radialGradient cx="335.59688" cy="83.5909" r="16.08607" gradientUnits="userSpaceOnUse" id="color-42"><stop offset="0" stop-color="#000000"/><stop offset="1" stop-color="#000000" stop-opacity="0"/></radialGradient><linearGradient x1="327.3996" y1="89.63902" x2="344.20045" y2="79.90165" gradientUnits="userSpaceOnUse" id="color-43"><stop offset="0" stop-color="#272727" stop-opacity="0.21436"/><stop offset="1" stop-color="#272727" stop-opacity="0"/></linearGradient><linearGradient x1="329.34826" y1="72.90924" x2="333.81787" y2="80.62111" gradientUnits="userSpaceOnUse" id="color-44"><stop offset="0" stop-color="#38130f"/><stop offset="1" stop-color="#000000"/></linearGradient><radialGradient cx="326.80588" cy="95.78326" r="36.72087" gradientUnits="userSpaceOnUse" id="color-45"><stop offset="0" stop-color="#240c0a" stop-opacity="0"/><stop offset="1" stop-color="#240c0a" stop-opacity="0.2177"/></radialGradient><radialGradient cx="313.11589" cy="127.65438" r="8.08333" gradientUnits="userSpaceOnUse" id="color-46"><stop offset="0" stop-color="#240c0a" stop-opacity="0.19023"/><stop offset="1" stop-color="#240c0a" stop-opacity="0"/></radialGradient><radialGradient cx="321.8724" cy="130.46504" r="6.20513" gradientUnits="userSpaceOnUse" id="color-47"><stop offset="0" stop-color="#240c0a" stop-opacity="0.19023"/><stop offset="1" stop-color="#240c0a" stop-opacity="0"/></radialGradient><radialGradient cx="346.3031" cy="68.91715" r="6.20513" gradientUnits="userSpaceOnUse" id="color-48"><stop offset="0" stop-color="#240c0a" stop-opacity="0.19023"/><stop offset="1" stop-color="#240c0a" stop-opacity="0"/></radialGradient><linearGradient x1="348.3649" y1="67.15663" x2="355.4687" y2="79.41348" gradientUnits="userSpaceOnUse" id="color-49"><stop offset="0" stop-color="#ffffff" stop-opacity="0.29832"/><stop offset="1" stop-color="#ffffff" stop-opacity="0"/></linearGradient><linearGradient x1="356.45258" y1="79.19734" x2="360.00443" y2="87.15893" gradientUnits="userSpaceOnUse" id="color-50"><stop offset="0" stop-color="#ffffff" stop-opacity="0.16109"/><stop offset="1" stop-color="#ffffff" stop-opacity="0"/></linearGradient><radialGradient cx="298.48703" cy="90.2953" r="20.70195" gradientUnits="userSpaceOnUse" id="color-51"><stop offset="0" stop-color="#4c0000" stop-opacity="0.33528"/><stop offset="1" stop-color="#4c0000" stop-opacity="0"/></radialGradient><radialGradient cx="307.29378" cy="76.77371" r="20.70195" gradientUnits="userSpaceOnUse" id="color-52"><stop offset="0" stop-color="#4c0000" stop-opacity="0.33528"/><stop offset="1" stop-color="#4c0000" stop-opacity="0"/></radialGradient><linearGradient x1="295.92323" y1="93.97519" x2="304.38069" y2="99.67786" gradientUnits="userSpaceOnUse" id="color-53"><stop offset="0" stop-color="#4a4323" stop-opacity="0"/><stop offset="1" stop-color="#4a4323" stop-opacity="0.56131"/></linearGradient><linearGradient x1="291.99807" y1="84.53214" x2="298.48586" y2="92.04912" gradientUnits="userSpaceOnUse" id="color-54"><stop offset="0" stop-color="#ffffff" stop-opacity="0.33869"/><stop offset="1" stop-color="#ffffff" stop-opacity="0"/></linearGradient><radialGradient cx="325.0946" cy="69.19669" r="20.70194" gradientUnits="userSpaceOnUse" id="color-55"><stop offset="0" stop-color="#4c0000" stop-opacity="0.33528"/><stop offset="1" stop-color="#4c0000" stop-opacity="0"/></radialGradient><linearGradient x1="326.89803" y1="66.6328" x2="331.38175" y2="75.79497" gradientUnits="userSpaceOnUse" id="color-56"><stop offset="0" stop-color="#4a4323" stop-opacity="0"/><stop offset="1" stop-color="#4a4323" stop-opacity="0.56131"/></linearGradient><linearGradient x1="315.33982" y1="64.38624" x2="321.82762" y2="71.90323" gradientUnits="userSpaceOnUse" id="color-57"><stop offset="0" stop-color="#ffffff" stop-opacity="0.33869"/><stop offset="1" stop-color="#ffffff" stop-opacity="0"/></linearGradient><linearGradient x1="304.40432" y1="67.88428" x2="313.51319" y2="79.3444" gradientUnits="userSpaceOnUse" id="color-58"><stop offset="0" stop-color="#000000"/><stop offset="1" stop-color="#000000" stop-opacity="0"/></linearGradient><linearGradient x1="295.10534" y1="56.40279" x2="308.45081" y2="73.19307" gradientUnits="userSpaceOnUse" id="color-59"><stop offset="0" stop-color="#000000" stop-opacity="0"/><stop offset="1" stop-color="#000000" stop-opacity="0.25803"/></linearGradient></defs><g transform="translate(-272.75566,-36.67376)"><g data-paper-data="{&quot;isPaintingLayer&quot;:true}" fill-rule="nonzero" stroke-linecap="butt" stroke-linejoin="miter" stroke-miterlimit="10" stroke-dasharray="" stroke-dashoffset="0" style="mix-blend-mode: normal"><g data-paper-data="{&quot;index&quot;:null}" stroke="#000000" stroke-width="0"><g><path d="M363.10767,267.36064c-0.85387,-3.38621 -3.29489,-54.00726 -2.67311,-56.22113c1.35806,-4.83544 24.39825,-3.31004 25.42053,0.74404c0.24544,0.97333 -1.99591,51.62543 -3.01709,55.2614c-1.23025,4.38034 -19.09056,2.75283 -19.73033,0.21569z" fill="#191f26"/><path d="M363.10767,267.36064c-0.85387,-3.38621 -3.29489,-54.00726 -2.67311,-56.22113c0.02108,-0.07505 0.04738,-0.14857 0.07874,-0.22057c1.14534,10.24676 5.05237,24.93566 9.6485,27.36351c1.25414,0.66248 3.11572,-0.06201 4.34111,-0.67024c1.68958,-0.83863 3.19497,-1.90151 4.70913,-3.69773c2.63161,-3.12183 5.99349,-11.59129 6.61975,-19.30568c-0.29783,10.7181 -2.10645,49.37674 -2.99379,52.53615c-1.23025,4.38034 -19.09056,2.75283 -19.73033,0.21569z" fill="url(#color-1)"/></g><path d="M363.82651,267.37295c-0.48543,-2.54653 15.26015,-11.14997 18.24665,-7.68599c2.47899,2.87532 25.98556,47.71804 26.17179,48.69496c0.77567,4.06908 -19.77949,14.64927 -23.0763,10.8254c-1.50941,-1.75073 -20.69423,-48.43564 -21.34212,-51.83438z" fill="#101318"/><path d="M405.92187,304.21468c9.95703,1.9842 9.62602,8.29386 8.48648,16.41586c-1.13954,8.122 -14.73097,6.50364 -24.68799,4.51944c-9.95703,-1.9842 -12.50914,-3.58289 -11.3696,-11.70489c1.13954,-8.122 17.61408,-11.21461 27.57111,-9.23041z" fill="#14120d"/></g><g stroke="#000000" stroke-width="0"><g><path d="M343.96436,264.14496c-1.02118,-3.63597 -3.26253,-54.28807 -3.01709,-55.2614c1.02228,-4.05408 24.06247,-5.57948 25.42053,-0.74404c0.62178,2.21387 -1.81924,52.83492 -2.67311,56.22113c-0.63977,2.53714 -18.50008,4.16465 -19.73033,-0.21569z" fill="#191f26"/><path d="M343.96436,264.14496c-0.88734,-3.15941 -2.69596,-41.81805 -2.99379,-52.53615c0.62626,7.71439 3.98814,16.18385 6.61975,19.30568c1.51416,1.79622 3.01955,2.8591 4.70913,3.69773c1.22539,0.60823 3.08697,1.33272 4.34111,0.67024c4.59613,-2.42785 8.50316,-17.11675 9.6485,-27.36351c0.03136,0.072 0.05766,0.14552 0.07874,0.22057c0.62178,2.21387 -1.81924,52.83492 -2.67311,56.22113c-0.63977,2.53714 -18.50008,4.16465 -19.73033,-0.21569z" fill="url(#color-2)"/></g><path d="M362.97584,264.37295c-0.64788,3.39873 -19.83272,50.08365 -21.34212,51.83438c-3.29681,3.82387 -23.85197,-6.75631 -23.0763,-10.8254c0.18622,-0.97692 23.6928,-45.81964 26.17179,-48.69496c2.9865,-3.46398 18.73207,5.13946 18.24665,7.68599z" fill="#101318"/><path d="M348.4516,310.44509c1.13954,8.122 -1.41257,9.72069 -11.3696,11.70489c-9.95703,1.9842 -23.54845,3.60256 -24.68799,-4.51944c-1.13954,-8.122 -1.47055,-14.43165 8.48648,-16.41586c9.95703,-1.9842 26.43156,1.10841 27.57111,9.23041z" fill="#14120d"/></g><g data-paper-data="{&quot;index&quot;:null}" stroke="#000000" stroke-width="0"><path d="M282.24878,184.39864c-3.13351,-2.72671 8.23743,-9.37485 8.23743,-9.37485l30.69916,-15.18905l4.80826,8.3825l-30.69916,15.18904c0,0 -9.73282,3.87514 -13.04569,0.99237z" fill="url(#color-3)"/><path d="M282.24878,184.39864c-3.13351,-2.72671 8.23743,-9.37485 8.23743,-9.37485l30.69916,-15.18905l4.80826,8.3825l-30.69916,15.18904c0,0 -9.73282,3.87514 -13.04569,0.99237z" fill="url(#color-4)"/></g><g data-paper-data="{&quot;index&quot;:null}" stroke="#000000" stroke-width="0"><path d="M415.54452,160.11202l-34.20616,-1.75598l1.08604,-9.6024l34.20616,1.75598c0,0 13.07565,1.58859 11.28186,5.33506c-1.89647,3.96091 -12.36789,4.26733 -12.36789,4.26733z" fill="url(#color-5)"/><path d="M415.54452,160.11202l-34.20616,-1.75598l1.08604,-9.6024l34.20616,1.75598c0,0 13.07565,1.58859 11.28186,5.33506c-1.89647,3.96091 -12.36789,4.26733 -12.36789,4.26733z" fill="url(#color-6)"/></g><g stroke="#000000" stroke-width="0"><g data-paper-data="{&quot;index&quot;:null}"><g><g><path d="" fill="#e64e3d"/><path d="" fill="#e64e3d"/><path d="" fill="#e64e3d"/><path d="" fill="#e64e3d"/><path d="" fill="#e64e3d"/><path d="" fill="#e64e3d"/><path d="" fill="url(#color-7)"/></g><g><path d="" fill="url(#color-8)"/><path d="" fill="url(#color-9)"/></g></g><g><path d="M404.91091,144.2077c0.75257,1.2345 1.43991,2.51244 1.42349,3.32167c-0.0147,0.72478 -1.31213,2.26845 -1.68581,2.93173c-0.54324,0.96425 -2.90351,3.87556 -2.77032,4.92267c0.1822,1.4324 3.15091,2.1276 3.24655,3.65611c0.11299,1.14703 0.59667,2.29803 1.17611,3.41677c-10.21867,1.65324 -34.97106,4.7954 -36.31685,4.44649c-3.58749,-0.93009 -3.93236,-21.08064 -1.06054,-22.18324c0.5679,-0.21803 25.65142,-0.72943 35.98737,-0.5122z" fill="#3b2727"/><path d="M404.91091,144.2077c0.75257,1.2345 1.43991,2.51244 1.42349,3.32167c-0.0147,0.72478 -1.31213,2.26845 -1.68581,2.93173c-0.54324,0.96425 -2.90351,3.87556 -2.77032,4.92267c0.1822,1.4324 3.15091,2.1276 3.24655,3.65611c0.113,1.14703 0.59668,2.29803 1.17612,3.41677c-10.21866,1.65324 -34.97108,4.79541 -36.31686,4.4465c-0.05568,-0.01443 -0.11058,-0.0335 -0.1647,-0.05706c7.34912,-1.53374 17.74167,-5.7056 19.21086,-9.83638c0.40089,-1.12715 -0.24094,-2.71091 -0.75856,-3.74656c-0.71368,-1.42795 -1.57817,-2.68374 -2.97435,-3.90879c-2.42655,-2.12915 -8.77205,-4.61472 -14.39857,-4.75672c6.20221,-0.24009 25.32094,-0.57261 34.01216,-0.38995z" fill="url(#color-10)"/></g><g><g><path d="" fill="#cbcbcb"/><path d="" fill="url(#color-11)"/></g></g></g><g data-paper-data="{&quot;index&quot;:null}"><g><g><path d="" fill="#e64e3d"/><path d="" fill="#e64e3d"/><path d="" fill="#e64e3d"/><path d="" fill="#e64e3d"/><path d="" fill="#e64e3d"/><path d="" fill="#e64e3d"/><path d="" fill="url(#color-12)"/></g><g><path d="" fill="url(#color-13)"/><path d="" fill="url(#color-14)"/></g></g><g><path d="M330.77551,148.7406c3.05931,-0.32202 11.90413,17.78689 9.13044,20.2449c-1.0405,0.92208 -24.51972,9.36486 -34.37449,12.53313c0.00812,-1.25986 -0.08374,-2.50498 -0.50404,-3.57819c-0.60902,-1.4052 1.72008,-3.3729 1.23183,-4.73178c-0.35692,-0.99337 -3.78197,-2.51508 -4.7039,-3.12741c-0.63417,-0.4212 -2.49117,-1.2072 -2.83345,-1.84623c-0.38217,-0.7135 -0.35023,-2.1642 -0.24045,-3.60583c9.10971,-4.88796 31.68908,-15.8249 32.29406,-15.88858z" fill="#3b2727"/><path d="M328.96026,149.5288c-4.94821,2.68199 -9.47257,7.77843 -10.66737,10.77741c-0.68746,1.72553 -0.88729,3.23696 -0.87456,4.83327c0.00923,1.15776 0.15673,2.86025 1.02583,3.68236c3.18505,3.01286 14.33865,2.00947 21.58263,0.03803c-0.03752,0.04557 -0.07777,0.08749 -0.12082,0.12564c-1.0405,0.92208 -24.51975,9.36486 -34.37451,12.53313c0.00812,-1.25986 -0.08374,-2.50498 -0.50403,-3.5782c-0.60902,-1.4052 1.72008,-3.3729 1.23183,-4.73178c-0.35692,-0.99337 -3.78197,-2.51508 -4.7039,-3.12741c-0.63417,-0.4212 -2.49117,-1.2072 -2.83345,-1.84623c-0.38217,-0.7135 -0.35023,-2.1642 -0.24045,-3.60583c7.66011,-4.11016 24.84416,-12.49734 30.4788,-15.10039z" fill="url(#color-15)"/></g><g><g><path d="" fill="#cbcbcb"/><path d="" fill="url(#color-16)"/></g></g></g><g><path d="M341.87778,219.43679c-2.86783,-3.51312 -22.3674,-61.89963 -21.57082,-64.86722c1.73982,-6.48169 54.32254,-17.77673 57.75599,-13.5707c0.82432,1.00981 9.73185,62.09449 8.42361,66.96833c-1.57608,5.87164 -42.46002,14.10183 -44.60877,11.46959z" fill="#3b2727"/><path d="M341.87778,219.43679c-2.86783,-3.51312 -22.3674,-61.89963 -21.57082,-64.86722c0.02701,-0.1006 0.06625,-0.20237 0.11738,-0.30522c5.42145,11.44849 18.3214,26.57253 29.39694,26.8269c3.02216,0.06941 7.03666,-1.84421 9.643,-3.25895c3.59363,-1.95065 6.70834,-4.06138 9.6405,-7.04305c5.09608,-5.18213 10.36931,-17.0939 9.65767,-26.55913c2.2843,12.82536 8.86089,59.50204 7.72411,63.73708c-1.57608,5.87164 -42.46002,14.10183 -44.60877,11.46959z" fill="url(#color-17)"/></g><g><path d="M336.04358,134.59262l-4.64848,-19.35302l20.71759,-4.97623c-0.02517,3.09772 0.06369,5.75906 2.52663,8.23821c0.20135,0.82764 0.36182,1.52159 0.66618,2.26299l2.08958,8.69955c0,0 -0.23706,7.94336 -8.90817,9.21097c-9.16742,1.34016 -12.44334,-4.08247 -12.44334,-4.08247z" fill="url(#color-18)"/><path d="M352.74661,110.1111l1.81374,7.55113c-1.88459,-2.3522 -1.96052,-4.66464 -1.94403,-7.51984z" fill="url(#color-19)"/><path d="M336.04358,134.59262l-4.64848,-19.35302l20.71759,-4.97623c-0.02517,3.09772 0.06369,5.75906 2.52663,8.23821c0.20135,0.82764 0.36182,1.52159 0.66618,2.26299l2.08958,8.69955c0,0 -0.23706,7.94336 -8.90817,9.21097c-9.16742,1.34016 -12.44334,-4.08247 -12.44334,-4.08247z" fill="url(#color-20)"/><path d="M352.74661,110.1111l1.81374,7.55113c-1.88459,-2.3522 -1.96052,-4.66464 -1.94403,-7.51984z" fill="url(#color-21)"/></g><g><g><g><path d="M346.70405,146.74521c-1.44648,6.59307 -9.28923,11.06889 -17.72719,9.73398c-25.03832,-3.96113 -24.56656,-13.08073 -24.56656,-13.08073c0,0 9.82001,-0.43766 19.61799,-7.33841c8.5347,-6.01102 24.12224,4.0921 22.67576,10.68517z" fill="#183318"/><path d="M346.70405,146.74521c-1.44648,6.59307 -9.28923,11.06889 -17.72719,9.73398c-25.03832,-3.96113 -24.56656,-13.08073 -24.56656,-13.08073c0,0 4.27862,6.88091 23.1302,8.04585c19.95731,1.23327 19.2571,-5.1255 19.16355,-4.69909z" fill="url(#color-22)"/></g><path d="M322.25626,139.60429c0.82358,-2.83349 5.16563,-4.43177 9.69826,-3.56987c4.53263,0.8619 7.53941,3.8576 6.71583,6.69109c-0.82358,2.83349 -5.16565,4.43179 -9.69828,3.56989c-4.53263,-0.8619 -7.5394,-3.85761 -6.71582,-6.6911z" fill="url(#color-23)"/></g><g data-paper-data="{&quot;index&quot;:null}"><g><path d="M371.60481,127.14187c8.16065,4.73242 20.24852,4.40326 20.24852,4.40326c0,0 1.85103,9.00384 -22.06836,17.02213c-8.06089,2.70218 -16.42382,-0.47837 -18.84469,-6.80788c-2.42087,-6.32951 11.69546,-19.81876 20.66454,-14.61752z" fill="#1a381b"/><path d="M370.42489,143.32019c18.28595,-4.22738 21.42844,-11.77507 21.42844,-11.77507c0,0 1.85103,9.00384 -22.06836,17.02213c-1.77073,0.59358 -3.55602,0.9033 -5.28971,0.95813c-6.1586,0.19477 -11.6659,-2.82689 -13.55498,-7.76601c-0.1215,-0.31768 0.02154,3.49295 9.13925,3.12407c2.63125,-0.10645 6.00992,-0.56098 10.34536,-1.56326z" fill="url(#color-24)"/></g><path d="M373.797,130.67101c1.23818,2.68737 -1.25041,6.1595 -5.55841,7.75524c-4.30802,1.59575 -8.80411,0.71081 -10.04229,-1.97656c-1.23818,-2.68737 1.25042,-6.1595 5.55844,-7.75524c4.30802,-1.59575 8.80409,-0.71081 10.04227,1.97656z" fill="url(#color-25)"/></g><g><g><path d="M357.93674,167.23189c0.42098,6.87934 -8.06361,8.91729 -10.81304,2.59723c-1.62288,-3.73049 -3.14762,-8.3145 -4.35676,-13.34851c-3.25762,-13.56247 -1.34182,-18.38999 2.24488,-19.25149c3.5867,-0.8615 7.48608,2.56925 10.7437,16.13172c1.20914,5.03401 1.93272,9.81045 2.18122,13.87107z" fill="#3d1510"/><path d="M355.75553,153.36082c1.06306,4.42584 1.75079,8.65259 2.07033,12.36883c-3.43048,-8.70647 -6.89374,-14.07237 -9.21459,-13.51491c-2.32085,0.55745 -2.96919,6.91093 -2.07109,16.22565c-1.40318,-3.45594 -2.71019,-7.53395 -3.77325,-11.95979c-3.25762,-13.56247 -1.34182,-18.38999 2.24488,-19.25149c3.5867,-0.8615 7.48608,2.56925 10.7437,16.13172z" fill="url(#color-26)"/></g><g><path d="M354.50381,136.83626c0.88044,3.66553 -2.90936,5.75618 -7.91498,6.9585c-5.00562,1.20232 -9.33152,1.06101 -10.21196,-2.60452c-0.88044,-3.66553 2.46368,-7.6117 7.46929,-8.81402c5.00562,-1.20232 9.7772,0.79451 10.65764,4.46004z" fill="#3d1510"/><path d="M354.50381,136.83626c0.88044,3.66553 -2.90936,5.75618 -7.91498,6.9585c-5.00562,1.20232 -9.33152,1.06101 -10.21196,-2.60452c-0.28731,-1.19618 -0.12475,-2.42224 0.39863,-3.57308c2.35203,2.01085 5.60152,2.90542 8.8405,2.12743c3.23899,-0.77798 5.72768,-3.05083 6.90982,-5.91057c0.98897,0.78759 1.69066,1.80606 1.97798,3.00223z" fill="url(#color-27)"/></g></g></g></g><path d="M326.26082,130.90858l-17.79885,-33.85652l34.07779,-17.91518l17.79885,33.85651z" fill="url(#color-28)" stroke="none" stroke-width="0"/><path d="M321.61736,120.54378l-3.1241,-8.79825l1.00112,-0.35548c0.30206,0.38962 0.53361,0.78254 0.66468,1.17482c0,0 0.08461,0.23525 0.31986,0.15063c0.23525,-0.08461 0.15063,-0.31986 0.15063,-0.31986c-0.14999,-0.39544 -0.38081,-0.78621 -0.67029,-1.17066l25.09337,-8.9102c-0.38155,1.49939 -0.41138,3.05629 0.23433,4.87018c-0.21119,1.03405 -0.39174,1.85568 -0.37043,2.92638l-0.09592,0.39129c0,0 -0.05512,0.24384 0.18873,0.29896c0.24385,0.05512 0.29897,-0.18873 0.29897,-0.18873l0.10813,-0.51148c-0.02153,-1.08095 0.18936,-1.89694 0.36929,-2.95162c-0.6216,-1.9417 -0.55403,-3.51975 -0.12554,-5.05071l1.52304,-0.54081l3.1241,8.79826z" fill="url(#color-29)" stroke="none" stroke-width="0"/><path d="M338.91696,140.92172l-6.57487,-6.62875l0.75426,-0.74813c0.43927,0.22379 0.81616,0.48061 1.10187,0.77967c0,0 0.17678,0.17677 0.35355,0c0.17678,-0.17677 0,-0.35356 0,-0.35356c-0.30417,-0.29385 -0.67948,-0.54904 -1.10517,-0.77352l18.90578,-18.75207c0.29363,1.51905 0.92994,2.94029 2.28693,4.30621c0.24949,1.02549 0.43621,1.84573 0.91166,2.80531l0.07993,0.39487c0,0 0.05403,0.24409 0.29812,0.19006c0.24409,-0.05402 0.19007,-0.29812 0.19007,-0.29812l-0.12009,-0.5088c-0.48002,-0.96876 -0.63688,-1.79684 -0.92345,-2.82766c-1.38963,-1.49182 -2.00082,-2.94827 -2.26543,-4.5159l1.14748,-1.13816l6.57487,6.62876z" fill="url(#color-30)" stroke="none" stroke-width="0"/><path d="M320.24683,112.81772l27.16603,-13.74416l1.14088,2.25502c-0.69536,1.43739 -2.02273,3.13251 -2.82939,4.36822c-2.96159,2.94738 -4.52685,4.03353 -8.49193,5.28705c-1.95415,0.61778 -4.37845,1.23321 -6.09154,2.32035c-1.08419,0.68804 -1.93108,1.69835 -3.21797,2.19704c-1.93007,0.7567 -4.0445,0.5351 -6.15019,0.33249z" fill="url(#color-31)" stroke="none" stroke-width="0"/><g stroke="#000000" stroke-width="0"><path d="M309.35252,131.99833c-25.42603,-29.41177 -32.05887,-50.98284 -1.49609,-67.64348c33.42461,-18.22072 45.05882,-5.26589 58.36546,35.64153c3.8052,11.69799 -3.04483,22.51149 -10.30547,25.76652c-0.10107,-0.21743 -0.18673,-5.02862 -0.26235,-5.23762c-0.09592,-0.8222 -0.29357,-1.6866 -0.55784,-2.73328c-0.85679,-3.39351 -1.71359,-6.78702 -2.57038,-10.18053c-0.30131,-1.19343 -0.54735,-2.48458 -0.81595,-3.78578c-0.15396,-1.77235 0.08243,-3.55057 -0.4092,-5.36194c-0.24242,-0.35151 -0.81317,-0.70294 -1.34214,-0.70448c-0.03634,-0.02059 -0.07834,-0.03234 -0.12308,-0.03234c-0.06912,0 -0.13169,0.02805 -0.17694,0.07339c-0.19162,0.05652 -0.36651,0.17467 -0.50369,0.37425c-0.17151,0.24952 -0.20236,0.67963 -0.21233,1.13362c-0.4282,1.05341 -0.79695,10.23589 -1.18188,11.40786c-0.67403,1.05523 -1.47928,-5.87248 -2.03627,-5.01924c-0.50348,0.50107 -3.16661,2.73282 -3.60803,4.76095c-0.96359,4.42728 0.37624,10.1434 -0.57452,10.71012c-1.17566,0.70077 -2.48984,-10.75925 -4.30938,-10.18402c-0.99158,0.31348 -2.10422,0.62635 -3.18356,1.00055c-0.78283,0.07638 -0.75468,3.82568 -1.46512,4.11734c-0.45568,0.18707 -1.68609,-3.1673 -2.07792,-2.84479c-0.52089,0.42874 -1.10746,3.98106 -1.51118,4.53033c-0.387,0.27938 -0.79977,-1.06892 -1.27172,-0.88603c-0.84344,0.33068 -4.11602,-2.03629 -4.75974,-0.65339c-1.03418,2.22168 0.80613,7.03014 -0.66787,6.90514c-1.12693,-0.09557 -3.64361,-7.5457 -4.72017,-7.39619c-0.55681,0.08419 -1.20322,0.28018 -1.43454,0.89057c-0.51192,1.35088 0.64443,2.76977 1.16959,4.00891c0.11651,0.77666 0.29141,1.53458 0.51683,2.27929c0.12693,0.84247 0.26926,1.6703 0.70325,2.43338c1.33331,3.68666 3.29201,6.13771 7.43926,6.31182c1.98828,0.54637 6.34554,2.89191 8.27833,4.05871c-9.24657,0.36096 -16.63108,5.81859 -24.89534,-3.74115z" fill="#5c1f19"/><path d="M320.55871,128.36407c1.11741,1.27056 2.50214,2.0747 4.06397,2.66034c-1.83211,-0.36357 -3.09992,-1.29369 -4.06397,-2.66034z" fill="#5c1f19"/><path d="M327.94879,116.17344c-0.21365,0.01672 -0.42625,0.03336 -0.63793,0.04977c0.26711,-0.06959 0.5319,-0.15422 0.79399,-0.25625c0.05191,-0.02043 0.10315,-0.04163 0.15376,-0.06359c-0.09818,0.09385 -0.20108,0.18418 -0.30982,0.27007z" fill="#5c1f19"/><g fill="url(#color-32)"><path d="M315.49364,126.00236c-0.30879,-0.53279 -0.10004,-1.29876 2.31794,-3.16975c0.13126,0.87792 0.26704,1.7422 0.7187,2.53634c0.05768,0.15948 0.11652,0.31663 0.17666,0.4714c-2.26585,0.85733 -2.93126,0.64862 -3.2133,0.16201z"/><path d="M354.45605,103.42066c0.30388,0.5243 0.10655,1.27442 -2.20409,3.08119c-0.13142,-0.51808 -0.2734,-1.03257 -0.38221,-1.55597c-0.10548,-0.5074 -0.15959,-1.01481 -0.1886,-1.52287c1.91575,-0.66815 2.51195,-0.45603 2.77489,-0.00235z"/><path d="M337.23243,110.98385c-0.20641,0.06525 -0.41805,0.13048 -0.63355,0.19624c3.26155,-1.86456 5.92103,-3.33316 8.09215,-4.4794c-2.34814,2.21235 -3.97965,3.18334 -7.4586,4.28317z"/></g><g><path d="M318.75003,113.23544c1.9585,-5.12172 6.96065,-7.96802 11.17262,-6.35741c2.17735,0.83259 3.71731,2.69323 4.42647,5.00406c-1.15274,0.38636 -2.284,0.83559 -3.20823,1.42212c-1.08419,0.68804 -1.93108,1.69835 -3.21797,2.19704c-3.06851,1.20305 -6.60302,-0.0667 -9.82756,0.19845c0.12535,-0.81861 0.34166,-1.64572 0.65466,-2.46425z" fill="url(#color-33)"/><path d="M321.42239,105.97277c1.9585,-5.12172 6.96064,-7.96802 11.17261,-6.35741c4.01344,1.53469 5.86127,6.5623 4.33216,11.46392c-1.89652,0.58695 -4.16134,1.19373 -5.78627,2.22493c-1.08419,0.68804 -1.93108,1.69835 -3.21797,2.19704c-1.7138,0.67191 -3.57297,0.57247 -5.44232,0.39991c-1.92994,-2.47777 -2.45028,-6.28794 -1.05822,-9.92838z" fill="url(#color-34)"/><path d="M329.55867,107.77759c1.52427,0.58286 2.15811,2.73853 1.75174,5.42193c-0.05723,0.03441 -0.11375,0.06929 -0.16951,0.10468c-1.08419,0.68804 -1.93108,1.69835 -3.21797,2.19704c-1.16471,0.45664 -2.39657,0.55702 -3.65312,0.5203c0.09945,-1.2457 0.15371,-2.53809 0.14367,-3.85461c-0.03344,-4.3846 2.99755,-5.21055 5.14519,-4.38932z" fill="#1a381b"/><path d="M329.85506,107.91676c1.3087,0.73704 1.8343,2.78046 1.45535,5.28276c-0.05723,0.03441 -0.11375,0.06929 -0.16951,0.10468c-0.72721,0.46149 -1.34765,1.06797 -2.06572,1.5678c1.60801,-5.07171 1.16622,-6.54502 0.77988,-6.95524z" fill="url(#color-35)"/><path d="M329.55867,107.7776c-0.03911,-0.01496 0.12306,-0.04489 0.29638,0.13916c-0.09471,-0.05334 -0.19352,-0.09983 -0.29638,-0.13917z" fill="url(#color-36)"/></g><g data-paper-data="{&quot;index&quot;:null}"><path d="M329.37946,108.97215c-0.15001,-4.50691 4.1711,-8.30838 9.65146,-8.49078c3.30608,-0.11004 6.2788,1.12212 8.15014,3.10657c-0.51968,0.75805 -1.0533,1.4909 -1.4567,2.10886c-2.96159,2.94738 -4.52685,4.03353 -8.49193,5.28705c-1.95415,0.61778 -4.37845,1.23321 -6.09154,2.32035c-0.01387,0.0088 -0.02772,0.01766 -0.04152,0.02657c-1.03787,-1.23875 -1.66583,-2.7336 -1.71992,-4.35863z" fill="url(#color-37)"/><path d="M335.32394,104.96716c3.12045,1.10237 6.22915,1.77089 8.88839,2.17604c-2.10444,1.90503 -3.74204,2.81703 -6.9799,3.84065c-0.89526,0.28303 -1.88921,0.56556 -2.86824,0.89319c-2.83752,-0.44361 -4.81037,-1.7823 -4.86674,-3.47606c-0.07648,-2.29805 1.69218,-4.89438 5.8265,-3.43382z" fill="#1a381b"/><path d="M338.94102,110.26185c0.12297,-0.00213 0.24487,-0.00459 0.36569,-0.00738c-0.61892,0.2468 -1.30095,0.48491 -2.07427,0.72938c-0.89528,0.28303 -1.88924,0.56557 -2.86828,0.8932c-2.65309,-0.41479 -4.55025,-1.61208 -4.83172,-3.15046c0.29992,0.57127 1.89371,1.6654 9.40859,1.53527z" fill="url(#color-38)"/><path d="M329.53244,108.72658c-0.11753,-0.22386 -0.03638,-0.36743 -0.03499,-0.32559c0.00367,0.11008 0.01542,0.21865 0.03499,0.32559z" fill="url(#color-39)"/></g><path d="M320.84813,91.79626c4.4746,7.72048 2.03592,16.12428 -4.71346,20.03605c-6.74937,3.91178 -15.25356,1.8502 -19.72817,-5.87027c-4.4746,-7.72048 -1.73858,-15.61128 5.01079,-19.52305c6.74937,-3.91178 14.95623,-2.3632 19.43084,5.35728z" fill="url(#color-40)"/><path d="M318.27585,93.34079c3.7733,6.51046 2.02136,13.42063 -3.29451,16.50158c-5.31587,3.08097 -12.18266,1.16599 -15.95597,-5.34445c-3.7733,-6.51046 -1.77064,-12.98804 3.54523,-16.06899c5.31587,-3.08096 11.93194,-1.59859 15.70524,4.91187z" fill="#000000"/><path d="M297.56443,101.10998c-1.51239,-5.28011 0.61809,-10.13782 5.00618,-12.68105c4.40607,-2.55366 9.70538,-1.97232 13.53884,2.00863c0.37626,0.39075 -18.37725,11.25813 -18.54502,10.67242z" fill="url(#color-41)"/><path d="M347.66903,76.2515c4.4746,7.72047 2.0359,16.12428 -4.71347,20.03605c-6.74937,3.91178 -15.25356,1.8502 -19.72816,-5.87027c-4.4746,-7.72048 -1.73858,-15.61128 5.01079,-19.52305c6.74937,-3.91178 14.95623,-2.3632 19.43084,5.35728z" fill="url(#color-42)"/><path d="M345.09676,77.79603c3.7733,6.51046 2.02135,13.42063 -3.29452,16.50158c-5.31587,3.08097 -12.18266,1.16599 -15.95597,-5.34445c-3.7733,-6.51046 -1.77065,-12.98803 3.54523,-16.06899c5.31587,-3.08096 11.93195,-1.59859 15.70525,4.91187z" fill="#000000"/><path d="M340.42327,91.91835c-4.83805,2.80401 -10.74916,1.64511 -13.68396,-3.41858c-1.55262,-2.67891 -1.68828,-5.44317 -0.75531,-7.86787c0.13315,1.38692 0.55979,2.76807 1.30416,4.05239c2.76939,4.77831 8.88804,6.40686 13.66635,3.63746c2.37138,-1.37439 3.96699,-3.57368 4.63427,-6.02466c0.42678,3.84043 -1.56476,7.53433 -5.16552,9.62125z" fill="url(#color-43)"/><path d="M324.33509,85.59434c-1.51239,-5.28011 0.61808,-10.13783 5.00617,-12.68106c4.40607,-2.55366 9.70538,-1.97232 13.53884,2.00865c0.37628,0.39074 -18.37724,11.25813 -18.54501,10.67242z" fill="url(#color-44)"/><g><g><path d="M309.35252,131.99833c-25.42603,-29.41177 -32.05887,-50.98284 -1.49609,-67.64348c33.42461,-18.22072 45.05882,-5.26589 58.36546,35.64153c3.7043,11.38778 -2.68902,17.57809 -9.72891,20.90127c-0.19177,0.09052 -0.38402,0.17893 -0.57656,0.26524c-0.41663,-0.89631 -0.5714,-1.68635 -0.84087,-2.65566c-2.7606,-2.96362 -2.44914,-5.78762 -2.45125,-9.6211c-0.00011,-0.02562 -0.00039,-0.05119 -0.00083,-0.07672c0.6188,-0.63546 1.14673,-1.3959 1.55332,-2.32046c2.66404,-6.05778 2.00361,-11.68682 -0.03364,-18.21394c-2.00042,-6.40908 -5.51556,-13.74833 -11.33014,-17.37704c-6.36455,-3.97193 -16.13401,-0.03654 -22.31772,2.58681c-4.08557,1.73324 -8.70954,1.72297 -12.70501,4.19403c-1.0915,0.67506 -1.79027,1.35417 -2.31409,2.05053c-0.83878,0.96558 -1.47386,2.07377 -1.887,3.25599c-0.10895,0.17482 -0.2254,0.35149 -0.35182,0.5302l-0.22944,0.59019c-6.69143,13.5902 -2.21706,39.0375 15.39934,41.02982c0.03821,0.07843 0.07911,0.15626 0.12299,0.23342c1.33331,3.68666 3.29201,6.13771 7.43926,6.31182c1.98828,0.54637 5.54554,0.89191 7.47833,2.05871c-6.64657,4.76096 -15.83108,7.81859 -24.09534,-1.74115z" fill="url(#color-45)"/><path d="M315.77677,124.89501c3.21356,3.09886 4.62737,6.8464 3.15779,8.37036c-1.46958,1.52397 -5.266,0.24726 -8.47956,-2.85161c-3.21356,-3.09886 -4.62736,-6.84642 -3.1578,-8.37037c1.46958,-1.52397 5.266,-0.24724 8.47958,2.85162z" fill="url(#color-46)"/><path d="M326.33907,134.77229c-1.12811,1.16987 -4.04241,0.1898 -6.50928,-2.18904c-2.46688,-2.37884 -3.55217,-5.2556 -2.42406,-6.42546c0.29954,-0.31063 0.72501,-0.46968 1.2346,-0.49122c1.33127,3.52049 3.2946,5.84482 7.32921,6.0142c0.13194,0.03626 0.27079,0.07164 0.41562,0.10642c0.52777,1.25687 0.55418,2.36262 -0.04609,2.9851z" fill="url(#color-47)"/><path d="M348.34572,66.79894c2.46687,2.37883 3.55216,5.25561 2.42406,6.42547c-1.12811,1.16985 -4.04242,0.1898 -6.50929,-2.18904c-2.46687,-2.37883 -3.55217,-5.2556 -2.42406,-6.42547c1.12811,-1.16985 4.04241,-0.1898 6.50928,2.18904z" fill="url(#color-48)"/></g><path d="M353.79139,72.19858c1.96164,3.38463 2.71261,6.61486 1.67731,7.21489c-1.0353,0.60004 -3.46483,-1.65733 -5.42648,-5.04197c-1.96164,-3.38463 -2.71261,-6.61485 -1.67731,-7.21489c1.0353,-0.60004 3.46482,1.65732 5.42647,5.04196z" fill="url(#color-49)"/><path d="M359.44616,82.63491c0.98082,2.19854 1.23075,4.224 0.55827,4.52403c-0.67249,0.30003 -2.01275,-1.23904 -2.99357,-3.43757c-0.98082,-2.19854 -1.23077,-4.22401 -0.55829,-4.52403c0.67249,-0.30003 2.01278,1.23904 2.99359,3.43757z" fill="url(#color-50)"/></g><g><g><g><g><path d="M286.91339,107.45985c-9.83225,-6.62964 -12.62117,-19.68886 -6.22923,-29.16858c6.39195,-9.47972 19.54424,-11.79014 29.3765,-5.16051c9.83225,6.62964 12.6212,19.68886 6.22926,29.16858c-6.39195,9.47972 -19.54426,11.79014 -29.37651,5.16051z" fill="url(#color-51)"/><path d="M295.72014,93.93826c-9.83225,-6.62964 -12.62119,-19.68888 -6.22923,-29.1686c6.39195,-9.47972 19.54425,-11.79015 29.37651,-5.16051c9.83225,6.62964 12.62119,19.68889 6.22924,29.16861c-6.39195,9.47972 -19.54426,11.79014 -29.37651,5.16051z" fill="url(#color-52)"/><path d="M308.88894,74.78065c5.01338,3.3804 4.72277,12.1063 -0.99325,19.60584c-16.96136,22.25372 -24.71922,19.01116 -24.71922,19.01116c0,0 -0.56096,-16.28993 5.3143,-25.98153c5.87527,-9.6916 15.38479,-16.01587 20.39817,-12.63546z" fill="#1a381b"/><path d="M308.88894,74.78065c5.01338,3.3804 4.72277,12.1063 -0.99325,19.60584c-16.96136,22.25372 -24.71922,19.01116 -24.71922,19.01116c0,0 8.34885,-1.89773 19.52253,-19.21083c11.82907,-18.32859 5.8657,-19.62481 6.18994,-19.40617z" fill="url(#color-53)"/></g><path d="M291.53758,85.31739c3.1977,-3.98407 7.44848,-5.88264 9.49435,-4.24057c2.04587,1.64207 1.11212,6.20296 -2.08558,10.18703c-3.1977,3.98407 -7.44849,5.88262 -9.49435,4.24055c-2.04587,-1.64207 -1.11211,-6.20294 2.08559,-10.18701z" fill="url(#color-54)"/></g><g><g data-paper-data="{&quot;index&quot;:null}"><path d="M334.53277,88.48297c-10.26959,5.02567 -22.82036,0.465 -28.03291,-10.1865c-5.21255,-10.6515 -1.11304,-23.36037 9.15655,-28.38604c10.2696,-5.02567 22.82038,-0.465 28.03294,10.1865c5.21255,10.6515 1.11303,23.36036 -9.15657,28.38604z" fill="url(#color-55)"/><path d="M322.39639,58.07811c13.72068,-6.1203 25.49435,-1.39608 25.49435,-1.39608c0,0 2.14338,8.13046 -22.23396,21.86585c-8.21521,4.62886 -16.898,3.71513 -19.55585,-1.716c-2.65785,-5.43112 2.57479,-12.63346 16.29546,-18.75376z" fill="#1a381b"/><path d="M326.17461,73.3732c18.68683,-8.68318 21.71611,-16.69117 21.71611,-16.69117c0,0 2.1434,8.13047 -22.23395,21.86585c-8.21521,4.62886 -16.89801,3.71512 -19.55586,-1.716c-0.1719,-0.35126 0.29082,5.73382 20.07369,-3.45867z" fill="url(#color-56)"/></g><path d="M326.56644,63.47153c1.32534,2.26393 -1.17423,6.1915 -5.58296,8.77242c-4.40873,2.58093 -9.05712,2.8379 -10.38246,0.57395c-1.32534,-2.26393 1.17424,-6.19149 5.58297,-8.77242c4.40873,-2.58094 9.05711,-2.83791 10.38246,-0.57396z" data-paper-data="{&quot;index&quot;:null}" fill="url(#color-57)"/></g></g><g><path d="M332.33481,55.03431c2.51535,3.16463 -5.91137,14.04862 -18.82161,24.31009c-12.91024,10.26146 -25.41512,16.0146 -27.93047,12.84996c-2.51535,-3.16462 5.91137,-14.04862 18.82161,-24.31009c12.91024,-10.26146 25.41512,-16.01459 27.93048,-12.84996z" fill="url(#color-58)"/><g><g><g><path d="M284.72731,88.73676c-1.42692,0.44683 -12.83671,-13.48583 -11.91922,-14.99589c1.32054,-2.17337 23.34808,-16.38177 23.34808,-16.38177c0,0 15.61813,-19.24393 20.20032,-20.67887c1.29883,-0.40673 14.33264,18.52618 14.0259,19.03105c-0.66577,1.09572 -14.09337,7.33582 -24.78305,15.15756c-10.61942,7.77033 -18.49561,17.12376 -20.87202,17.86795z" fill="#533737"/><path d="M284.72731,88.73676c-1.42692,0.44683 -12.83671,-13.48583 -11.91922,-14.99589c1.32054,-2.17337 23.15432,-12.61523 23.15432,-12.61523c0,0 15.81189,-23.01047 20.39408,-24.4454c1.29883,-0.40673 14.33264,18.52618 14.0259,19.03105c-0.66577,1.09572 -14.09337,7.33582 -24.78305,15.15756c-10.61942,7.77033 -18.49561,17.12376 -20.87202,17.86795z" fill="#3b2727"/></g><path d="M284.72731,88.73676c-1.07184,0.33563 -7.77623,-7.44199 -10.65781,-11.97371c1.27287,0.22582 2.65404,0.36413 4.15618,0.44103c11.59402,0.59356 23.71051,-7.96504 30.96417,-18.00069c5.46176,-4.81392 8.32952,-14.14001 8.88506,-21.05757c3.87432,4.39634 12.55852,17.15226 12.30748,17.56543c-0.66577,1.09572 -14.09337,7.33582 -24.78306,15.15756c-10.61942,7.77033 -18.49561,17.12376 -20.87202,17.86795z" fill="url(#color-59)"/></g><path d="M283.44561,94.31802c-1.35242,0.89589 -4.50971,-2.58716 -3.1053,-3.90687c2.02135,-1.89941 11.80398,-11.02263 23.70312,-20.70903c10.70466,-8.71404 23.47435,-18.00166 27.81736,-20.8786c1.23102,-0.81548 3.51804,4.9983 3.0485,5.43953c-1.01909,0.95761 -14.17826,9.65313 -26.26696,19.08583c-12.00923,9.37069 -22.94433,19.47711 -25.19671,20.96915z" fill="#4f3434"/></g></g></g></g><path d="M309.25,100.29773c0,-0.69036 0.55964,-1.25 1.25,-1.25c0.69036,0 1.25,0.55964 1.25,1.25c0,0.69036 -0.55964,1.25 -1.25,1.25c-0.69036,0 -1.25,-0.55964 -1.25,-1.25z" fill="#ffffff" stroke="none" stroke-width="0.5"/></g></g></svg>