<svg version="1.1" xmlns="http://www.w3.org/2000/svg" xmlns:xlink="http://www.w3.org/1999/xlink" width="758.25826" height="394.76082" viewBox="0,0,758.25826,394.76082"><defs><linearGradient x1="-16.79205" y1="181.05806" x2="144.03904" y2="181.05806" gradientUnits="userSpaceOnUse" id="color-1"><stop offset="0" stop-color="#000000"/><stop offset="1" stop-color="#000000" stop-opacity="0"/></linearGradient><linearGradient x1="739.12913" y1="177.81481" x2="578.29805" y2="177.81481" gradientUnits="userSpaceOnUse" id="color-2"><stop offset="0" stop-color="#000000"/><stop offset="1" stop-color="#000000" stop-opacity="0"/></linearGradient><linearGradient x1="360.25526" y1="-17.14014" x2="360.25526" y2="110.48749" gradientUnits="userSpaceOnUse" id="color-3"><stop offset="0" stop-color="#000000"/><stop offset="1" stop-color="#000000" stop-opacity="0"/></linearGradient><linearGradient x1="359.24925" y1="377.38043" x2="359.24925" y2="249.7528" gradientUnits="userSpaceOnUse" id="color-4"><stop offset="0" stop-color="#000000"/><stop offset="1" stop-color="#000000" stop-opacity="0"/></linearGradient><radialGradient cx="355.71246" cy="172.8148" r="362.61261" gradientUnits="userSpaceOnUse" id="color-5"><stop offset="0" stop-color="#000000" stop-opacity="0.83922"/><stop offset="1" stop-color="#000000" stop-opacity="0"/></radialGradient><radialGradient cx="355.71246" cy="172.8148" r="362.61262" gradientUnits="userSpaceOnUse" id="color-6"><stop offset="0" stop-color="#000000" stop-opacity="0"/><stop offset="1" stop-color="#000000"/></radialGradient><linearGradient x1="-16.79205" y1="181.05805" x2="144.03904" y2="181.05805" gradientUnits="userSpaceOnUse" id="color-7"><stop offset="0" stop-color="#000000"/><stop offset="1" stop-color="#000000" stop-opacity="0"/></linearGradient><linearGradient x1="739.12913" y1="177.8148" x2="578.29805" y2="177.8148" gradientUnits="userSpaceOnUse" id="color-8"><stop offset="0" stop-color="#000000"/><stop offset="1" stop-color="#000000" stop-opacity="0"/></linearGradient><linearGradient x1="360.25526" y1="-17.14015" x2="360.25526" y2="110.48748" gradientUnits="userSpaceOnUse" id="color-9"><stop offset="0" stop-color="#000000"/><stop offset="1" stop-color="#000000" stop-opacity="0"/></linearGradient><linearGradient x1="359.24925" y1="377.38041" x2="359.24925" y2="249.75279" gradientUnits="userSpaceOnUse" id="color-10"><stop offset="0" stop-color="#000000"/><stop offset="1" stop-color="#000000" stop-opacity="0"/></linearGradient></defs><g transform="translate(19.12913,17.38041)"><g stroke-miterlimit="10"><path d="M0.04123,153.00002v-160.3741h719.91754v160.3741z" fill="#330f00" stroke="#000000" stroke-width="0"/><path d="M226.82491,244.00004v-128h248.01449v128z" fill="#401f00" stroke="#000000" stroke-width="0"/><path d="M0.6078,360.00001v-128h719.91754v128z" fill="#330f00" stroke="#000000" stroke-width="0"/><path d="M12.58671,360.00001v-360l284.68589,116l0.96504,128.5z" fill="#4f2600" stroke="none" stroke-width="0"/><path d="M707.41329,0.00003v360l-284.68589,-116l-0.96504,-128.5z" fill="#4f2600" stroke="none" stroke-width="0"/><path d="M325.25867,70.06298c0,-6.18292 15.55422,-11.19516 34.74133,-11.19516c19.18711,0 34.74133,5.01224 34.74133,11.19516c0,6.18292 -16.03674,16.69516 -35.22385,16.69516c-19.18711,0 -34.25881,-10.51224 -34.25881,-16.69516z" fill="#170b00" stroke="#000000" stroke-width="0"/><path d="M331.45445,76.05339c0,-5.08025 12.78028,-9.19861 28.54555,-9.19861c15.76528,0 28.54555,4.11836 28.54555,9.19861c0,5.08025 -13.17675,13.71774 -28.94202,13.71774c-15.76528,0 -28.14908,-8.63749 -28.14908,-13.71774z" fill="#404040" stroke="#000000" stroke-width="0"/><g stroke="none" stroke-width="0"><path d="M-16.79205,376.25325v-390.39039h160.83109v390.39039z" fill="url(#color-1)"/><path d="M578.29805,373.01v-390.39039h160.83108v390.39039z" fill="url(#color-2)"/><path d="M-18.12312,110.48749v-127.62762h756.75676v127.62763z" fill="url(#color-3)"/><path d="M737.62763,249.7528v127.62762h-756.75676v-127.62762z" fill="url(#color-4)"/></g><g fill="#000000" stroke="#000000" font-family="&quot;Agency FB&quot;, Sans Serif" font-weight="normal" font-size="40" text-anchor="start"><g stroke-width="1"><text transform="translate(326.66232,175.39676) scale(1.04893,1.04893)" font-size="40" xml:space="preserve" fill="#000000"><tspan x="0" dy="0">A.S.C</tspan></text><text transform="translate(329.29591,177.95691) rotate(90) scale(0.5,0.5)" font-size="40" xml:space="preserve" fill="#000000"><tspan x="0" dy="0">nomaly</tspan></text><text transform="translate(354.16659,177.62358) rotate(90) scale(0.5,0.5)" font-size="40" xml:space="preserve" fill="#000000"><tspan x="0" dy="0">ecurity</tspan></text><text transform="translate(379.16659,178.05457) rotate(90) scale(0.5,0.5)" font-size="40" xml:space="preserve" fill="#000000"><tspan x="0" dy="0">enter</tspan></text></g><text transform="translate(330.42357,132.16967) scale(0.27248,0.27248)" font-size="40" xml:space="preserve" fill="#000000" stroke-width="2"><tspan x="0" dy="0">REASEARCH LABS</tspan></text></g><g stroke-width="0"><g stroke="#000000"><path d="M-6.90015,359.001v-372.37237h725.22523v372.37237z" fill="url(#color-5)"/><path d="M-6.90016,359.001v-372.37237h725.22523v372.37237z" fill="url(#color-6)"/></g><g stroke="none"><path d="M-16.79205,376.25323v-390.39039h160.83109v390.39039z" fill="url(#color-7)"/><path d="M578.29805,373.00998v-390.39039h160.83108v390.39039z" fill="url(#color-8)"/><path d="M-18.12312,110.48748v-127.62762h756.75676v127.62763z" fill="url(#color-9)"/><path d="M737.62763,249.75279v127.62762h-756.75676v-127.62762z" fill="url(#color-10)"/></g></g></g></g></svg>