<svg version="1.1" xmlns="http://www.w3.org/2000/svg" xmlns:xlink="http://www.w3.org/1999/xlink" width="76.33333" height="101" viewBox="0,0,76.33333,101"><defs><radialGradient cx="349.94911" cy="168.54452" r="7.73555" gradientUnits="userSpaceOnUse" id="color-1"><stop offset="0" stop-color="#050303"/><stop offset="1" stop-color="#050303" stop-opacity="0"/></radialGradient><radialGradient cx="363.16593" cy="172.28354" r="7.73555" gradientUnits="userSpaceOnUse" id="color-2"><stop offset="0" stop-color="#050303"/><stop offset="1" stop-color="#050303" stop-opacity="0"/></radialGradient></defs><g transform="translate(-321.83333,-129.5)"><g stroke-miterlimit="10"><path d="M321.83333,230.5v-101h76.33333v101z" fill="#273042" stroke="none" stroke-width="0"/><path d="M329.75471,196.83333v-61.66667h60.49068v61.66667z" fill="#0b0e13" stroke="none" stroke-width="0"/><path d="M343.08343,227.33333v-17.33333h33.83333v17.33333z" fill="#0b0e13" stroke="#000000" stroke-width="0"/><path d="M342.99991,209.125v-11.25h34.25v11.25z" fill="#273042" stroke="#000000" stroke-width="0"/><text transform="translate(343.67015,207.0298) scale(0.29415,0.29415)" font-size="40" xml:space="preserve" fill="#000000" stroke="none" stroke-width="1" font-family="&quot;GovtAgentBB&quot;, Serif" font-weight="normal" text-anchor="start"><tspan x="0" dy="0">Apple</tspan></text><text transform="translate(351.55299,223.17375) scale(0.37559,0.37559)" font-size="40" xml:space="preserve" fill="#545454" stroke="none" stroke-width="1" font-family="&quot;Agency FB&quot;, Sans Serif" font-weight="normal" text-anchor="start"><tspan x="0" dy="0">OFF</tspan></text><path d="M336.52945,158.51187c-0.10563,-0.93663 -0.1509,-1.84504 -0.1151,-2.69508c0.04927,0.89704 0.11246,1.79309 0.1151,2.69508z" fill="#478c4a" stroke="none" stroke-width="0"/><g stroke-width="0"><g stroke="none"><path d="M367.77024,144.25891l-5.46809,8.5562l-1.95601,0.25118l0.27473,-9.08472z" fill="#543e31"/><path d="M367.77024,144.2589l-1.6846,2.63597l-5.46478,-2.9133z" fill="#654a3a"/></g><g stroke="none"><path d="M374.95274,176.4287c-12.11311,21.71356 -22.92407,10.93343 -22.92407,10.93343c0,0 -17.05916,3.13348 -13.59629,-21.45213c2.24367,-15.9296 13.07245,-14.64772 23.15727,-11.74306c10.08481,2.90466 21.46993,7.72972 13.36309,22.26177z" fill="#692e2e"/><path d="M346.27742,175.86339c-0.75709,-0.92915 -1.38976,-1.93117 -1.85357,-2.67335c0.2069,-0.83595 0.24852,-1.73126 0.62069,-2.50787c0.32509,-0.67835 2.36798,-2.8653 2.91735,-3.47156c2.04838,-2.2605 4.26351,-4.15201 6.94859,-5.61227c1.59751,-0.86879 3.32337,-2.25228 5.36194,-0.86996c0.286,0.19393 0.21275,1.67186 0.11099,2.81977c0.68367,0.09018 1.32731,0.37174 1.8533,0.99696c0.77448,0.92058 0.50788,2.17911 0.14978,3.25622c2.60846,0.1162 2.77353,1.92526 2.93774,3.71538c0.20385,2.22215 -0.49449,4.23291 -1.70147,5.91885c-0.11599,0.19918 -0.24946,0.37724 -0.40261,0.52765c-0.87813,1.08215 -1.9657,2.01312 -3.14436,2.75879c-0.26287,-0.00934 -0.53642,0.02262 -0.80859,0.04927c-0.24899,0.49398 -0.52966,0.97044 -0.84565,1.42076c-0.34739,0.49508 -0.55803,1.21371 -1.12539,1.42322c-0.93479,0.34518 -2.02017,0.33322 -2.98794,0.09568c-0.65581,-0.16097 -1.11785,-0.74924 -1.64671,-1.17914c-1.28356,-0.47744 -2.35941,-1.37696 -2.69158,-2.56567c-0.04651,-0.16644 -0.07657,-0.33871 -0.09147,-0.51546c-0.7092,-0.51505 -1.34726,-1.11723 -1.84159,-1.82615c-0.26083,0.19273 -0.60522,0.26625 -0.94093,0.16955c-0.46662,-0.1344 -0.77252,-0.55616 -0.7808,-1.01756l-0.03775,-0.91309z" fill-opacity="0.06667" fill="#210a0a"/></g><g fill="#040202" stroke="none"><path d="M356.18646,168.00876c-1.23768,4.29715 -4.75586,7.05634 -7.85808,6.16283c-3.10222,-0.89351 -4.61373,-5.10137 -3.37605,-9.39852c0.45262,-1.57147 2.42277,-2.33173 4.4503,-2.20487c1.68962,0.10572 3.36394,0.57242 4.7049,1.50166c1.45006,1.00485 2.4868,2.52279 2.07893,3.9389z"/></g><g fill="#040202" stroke="none"><path d="M369.38526,171.81032c-1.23768,4.29715 -4.75586,7.05634 -7.85808,6.16283c-3.10222,-0.89351 -4.61372,-5.10137 -3.37604,-9.39852c0.45035,-1.56358 2.13481,-2.46589 4.14977,-2.34657c2.02038,0.11964 4.4116,0.69525 5.85069,1.97343c1.07008,0.95043 1.56944,2.44305 1.23367,3.60883z"/></g><path d="M347.14386,183.9139l-0.14481,0.50278l11.80627,1.24923l0.12324,-0.6179z" fill="#270c0c" stroke="none"/><path d="M336.94971,148.01657c3.09941,-6.45203 10.17565,-7.75991 17.7865,-3.86396c7.61085,3.89596 10.37415,6.59195 7.27474,13.04398c-0.34202,0.71198 -2.8293,0.07853 -4.48553,0.54963c-2.91052,0.82787 -7.24423,1.07189 -9.41831,2.04306c-7.79996,3.48427 -12.13233,8.31171 -12.13233,8.31171c0,0 -2.12448,-13.63239 0.97493,-20.08442z" fill="#313e28" stroke="none"/><path d="M384.65464,161.75668c-0.80739,7.11219 -9.85772,17.52598 -9.85772,17.52598c0,0 -1.10082,-6.39232 -5.85244,-13.49174c-1.32442,-1.97882 -4.86439,-4.49062 -6.88864,-6.73982c-1.1519,-1.27991 -3.59505,-2.06654 -3.50595,-2.85136c0.80739,-7.11218 4.5814,-7.92528 13.09856,-7.176c8.51716,0.74928 13.81359,5.62078 13.0062,12.73296z" fill="#415235" stroke="none"/><path d="M342.51574,166.40354c1.18243,-4.10533 5.46901,-6.47482 9.57435,-5.29239c4.10533,1.18243 6.47482,5.46901 5.29239,9.57435c-1.18243,4.10533 -5.46901,6.47482 -9.57435,5.29239c-4.10533,-1.18243 -6.47482,-5.46901 -5.29239,-9.57435z" fill="url(#color-1)" stroke="#000000"/><path d="M355.73256,170.14256c1.18243,-4.10533 5.46901,-6.47482 9.57435,-5.29239c4.10533,1.18243 6.47482,5.46901 5.29239,9.57435c-1.18243,4.10533 -5.46901,6.47482 -9.57435,5.29239c-4.10533,-1.18243 -6.47482,-5.46901 -5.29239,-9.57435z" fill="url(#color-2)" stroke="#000000"/></g></g></g></svg>