<svg version="1.1" xmlns="http://www.w3.org/2000/svg" xmlns:xlink="http://www.w3.org/1999/xlink" width="179.50814" height="70" viewBox="0,0,179.50814,70"><defs><radialGradient cx="534.6494" cy="194.75002" r="89.75407" gradientUnits="userSpaceOnUse" id="color-1"><stop offset="0" stop-color="#0c0c0c"/><stop offset="1" stop-color="#000000"/></radialGradient><linearGradient x1="534.6494" y1="204.41669" x2="534.6494" y2="229.75002" gradientUnits="userSpaceOnUse" id="color-2"><stop offset="0" stop-color="#232323"/><stop offset="1" stop-color="#000000"/></linearGradient><linearGradient x1="534.6494" y1="185.50002" x2="534.6494" y2="160.16668" gradientUnits="userSpaceOnUse" id="color-3"><stop offset="0" stop-color="#232323"/><stop offset="1" stop-color="#000000"/></linearGradient><linearGradient x1="534.6494" y1="204.41669" x2="534.6494" y2="229.75002" gradientUnits="userSpaceOnUse" id="color-4"><stop offset="0" stop-color="#000000" stop-opacity="0"/><stop offset="1" stop-color="#000000"/></linearGradient></defs><g transform="translate(-444.89533,-159.75002)"><g stroke-miterlimit="10"><path d="M444.89533,229.75002v-70h179.50814v70z" fill="url(#color-1)" stroke="none" stroke-width="0"/><g stroke-width="0"><path d="M520.15716,210.24132v-30.9826h32.00401v30.9826z" fill="#8c7b56" stroke="#dcdcdc"/><path d="M530.08075,209.12786c-0.86307,-8.70497 -1.80069,-29.14023 1.56196,-31.02579c1.448,-0.81195 7.959,-0.397 9.40646,0.66523c2.1948,1.61067 1.38916,20.79754 1.95817,27.71829c0.54586,6.63911 -4.29265,5.64735 -5.31193,4.14235c-1.3129,-1.93855 -1.61257,-22.981 -1.61257,-22.981c0,0 0.62416,21.47916 -0.50176,23.07937c-1.20616,1.71425 -5.18363,1.59574 -5.50032,-1.59845z" fill="#2e2e2e" stroke="none"/><path d="M521.09866,185.16543v-14.9806h29.9612v14.9806z" fill="#000000" stroke="#dcdcdc"/><path d="M521.9841,219.31521v-14.9806h29.9612v14.9806z" fill="#000000" stroke="#dcdcdc"/><path d="M512.58695,217.73162v-45.9632h9.87358v45.9632z" fill="#090909" stroke="#dcdcdc"/><path d="M546.83827,217.73162v-45.9632h9.87358v45.9632z" fill="#090909" stroke="#dcdcdc"/></g><path d="M444.89533,229.75002l77.58333,-25.33333l24.25814,-0.25l77.66667,25.58333z" fill="url(#color-2)" stroke="none" stroke-width="0"/><path d="M624.40347,160.16668l-77.66666,25.58334l-24.25814,-0.25l-77.58333,-25.33334z" fill="url(#color-3)" stroke="none" stroke-width="0"/><g><g fill="#4e4e4e" stroke="#2b2b2b" stroke-width="0"><path d="M527.60977,227.27737v-8.38072h14.27671v8.38072z"/><path d="M541.88647,227.27737c0,0.96299 -3.19595,2.34588 -7.13836,2.34588c-3.9424,0 -7.13836,-1.3829 -7.13836,-2.34588c0,-0.96299 3.19595,-1.74364 7.13836,-1.74364c3.9424,0 7.13836,0.78066 7.13836,1.74364z"/><path d="M534.74813,219.62786c-3.9424,0 -7.13836,-0.32737 -7.13836,-0.7312c0,-0.40384 3.19595,-0.73121 7.13836,-0.73121c3.9424,0 7.13836,0.32737 7.13836,0.73121c0,0.40384 -3.19595,0.7312 -7.13836,0.7312z"/></g><g stroke="#000000" stroke-width="0"><path d="M508.51879,171.40208c0,0 6.817,8.33948 14.66634,13.13582c5.81187,3.55134 13.75865,7.64617 13.03834,10.19267c-1.69312,5.98572 -12.97513,18.05185 -19.50211,18.45915c-2.58838,0.16152 -9.03875,-4.28502 -11.03895,-10.58061c-3.04358,-9.57961 2.83638,-31.20703 2.83638,-31.20703z" fill="#262626"/><path d="M509.37674,173.47944c0,0 6.14368,7.5158 13.21775,11.83841c5.23783,3.20057 12.43036,7.31663 11.78121,9.61161c-1.52589,5.39451 -11.69358,16.26887 -17.57589,16.63595c-2.33273,0.14557 -8.146,-3.86179 -9.94863,-9.53557c-2.74296,-8.63344 2.52556,-28.55039 2.52556,-28.55039z" fill="#202020"/></g><g stroke="#000000" stroke-width="0"><path d="M563.6164,202.60911c-2.00019,6.29558 -8.45056,10.74213 -11.03895,10.58061c-6.52699,-0.4073 -17.809,-12.47343 -19.50211,-18.45914c-0.72029,-2.54649 7.22648,-6.64133 13.03834,-10.19266c7.84935,-4.79633 14.66634,-13.13582 14.66634,-13.13582c0,0 5.87995,21.62742 2.83638,31.20703z" fill="#262626"/><path d="M562.44765,202.02984c-1.80264,5.67377 -7.6159,9.68113 -9.94863,9.53557c-5.88231,-0.36707 -16.05001,-11.24143 -17.5759,-16.63594c-0.64916,-2.29497 6.54339,-6.41103 11.78121,-9.61161c7.07407,-4.3226 13.21775,-11.8384 13.21775,-11.8384c0,0 5.26852,19.91695 2.52556,28.55039z" fill="#202020"/></g><g fill="#2b2b2b" stroke="#000000" stroke-width="0"><path d="M512.99463,203.82731c0,-12.59218 9.47673,-21.52659 21.47852,-21.52659c12.00178,0 21.73115,8.93442 21.73115,21.5266c0,12.59218 -9.72937,22.80016 -21.73115,22.80016c-9.8952,0 -22.69276,-9.90556 -22.55644,-19.78961c0.03031,-2.1977 1.07793,-0.80035 1.07793,-3.01055z"/><path d="M557.38214,206.83786c0.13632,9.88405 -12.66124,19.78961 -22.55644,19.78961c-12.00178,0 -21.73115,-10.20798 -21.73115,-22.80015c0,-12.59218 9.72937,-21.52659 21.73115,-21.52659c12.00178,0 21.47852,8.93442 21.47852,21.5266c0,2.2102 1.04762,0.81285 1.07793,3.01055z"/></g><path d="M514.1864,204.00622c0,-12.11962 9.16161,-20.22868 20.46304,-20.22868c11.30142,0 20.46304,8.10906 20.46304,20.22868c0,12.11962 -9.16161,20.22868 -20.46304,20.22868c-11.30142,0 -20.46304,-8.10906 -20.46304,-20.22868z" fill="#323232" stroke="#000000" stroke-width="0"/><g fill="#2b2b2b" stroke="#000000" stroke-width="0"><path d="M516.98775,205.06709c0,-5.17648 4.5566,-10.0653 9.23919,-10.0653c4.68259,0 6.4652,5.13613 6.4652,10.31261c0,5.17648 -2.45373,9.07609 -7.13632,9.07609c-4.68259,0 -8.56806,-4.14691 -8.56806,-9.32339z"/><path d="M543.74303,214.39048c-4.68259,0 -7.13632,-3.8996 -7.13632,-9.07609c0,-5.17648 1.78261,-10.31261 6.4652,-10.31261c4.68259,0 9.23919,4.88882 9.23919,10.0653c0,5.17648 -3.88547,9.32339 -8.56806,9.32339z"/></g><path d="M516.98775,204.68456c0,-4.97975 4.5566,-9.68278 9.23919,-9.68278c1.13946,0 2.1072,0.29257 2.91932,0.80709c0.12366,0.07834 1.35804,-0.82438 1.35804,-0.82438c0,0 -0.48313,1.50485 -0.253,1.75546c1.7225,1.87587 2.44084,5.02137 2.44084,8.18251c0,4.97975 -2.45373,8.73115 -7.13632,8.73115c-1.3899,0 -2.70957,-0.35147 -3.87826,-0.976c-0.27686,-0.14795 -1.462,0.76126 -1.462,0.76126c0,0 0.33773,-1.47783 0.18351,-1.59986c-2.06401,-1.63315 -3.41132,-4.22208 -3.41132,-7.15445z" fill="#000000" stroke="#000000" stroke-width="0"/><path d="M543.74299,213.65363c-4.68259,0 -7.13632,-3.7514 -7.13632,-8.73115c0,-4.97975 1.78261,-9.92068 6.4652,-9.92068c4.68259,0 9.23919,4.70302 9.23919,9.68278c0,4.97975 -3.88547,8.96906 -8.56807,8.96906z" fill="#000000" stroke="#000000" stroke-width="0"/><g fill="#000000" stroke="#000000" stroke-width="0"><path d="M534.86399,224.82846c-5.93288,0 -12.10422,-3.61875 -15.89204,-6.6845c-2.78359,-2.25295 -3.07216,-7.10207 -3.07216,-7.10207c0,0 1.66065,3.87436 3.5726,4.59922c0.62381,0.2365 1.89443,0.90711 1.89443,0.90711c0,0 1.41391,-0.41553 2.1977,-0.41629c0.26689,-0.00026 0.87284,0.82435 0.87284,0.82435c0,0 0.86853,-0.61918 1.31959,-0.63754c2.69332,-0.10966 5.77789,0.05261 9.10704,0.05261c2.55421,0 2.59193,8.45713 0,8.45713z"/><path d="M534.43487,224.82846c-2.59193,0 -2.55421,-8.45713 0,-8.45713c3.32914,0 6.41371,-0.16226 9.10704,-0.05261c0.45106,0.01837 1.31959,0.63754 1.31959,0.63754c0,0 0.60596,-0.82461 0.87284,-0.82434c0.78378,0.00076 2.1977,0.41629 2.1977,0.41629c0,0 1.27062,-0.67061 1.89443,-0.90711c1.91195,-0.72487 3.5726,-4.59922 3.5726,-4.59922c0,0 -0.28857,4.84912 -3.07216,7.10207c-3.78782,3.06574 -9.95916,6.6845 -15.89204,6.6845z"/></g><path d="M527.05532,216.39304c0,0 -1.61582,1.46704 -2.14763,4.09149c-0.5318,2.62444 0.91712,4.00627 0.91712,4.00627c0,0 -3.28755,-1.92996 -5.15977,-4.40358c-1.42791,-1.88658 -1.56643,-4.42991 -1.54631,-4.6648c0.28381,0.21886 0.86387,0.60836 1.09133,0.49167c0,0 0.46055,0.41576 1.07661,0.54556c0.47488,0.10005 1.72117,-0.43485 2.24116,-0.27288c0.28212,0.08788 0.43619,0.25323 0.65498,0.40289c0.14241,0.0974 0.11865,0.33651 0.24729,0.35809c0.14636,0.02455 1.05085,-0.5967 1.20778,-0.58301c0.69803,0.06084 1.41742,0.0283 1.41742,0.0283z" fill="#ffffff" stroke="#ff0000" stroke-width="0"/><path d="M543.66093,216.36475c0.15694,-0.01368 1.06143,0.60756 1.20778,0.58301c0.12863,-0.02157 0.10489,-0.26069 0.24729,-0.35809c0.21879,-0.14966 0.37285,-0.31501 0.65498,-0.40289c0.52,-0.16197 1.76629,0.37293 2.24117,0.27288c0.61607,-0.1298 1.07661,-0.54556 1.07661,-0.54556c0.22747,0.11669 0.80752,-0.2728 1.09133,-0.49167c0.02012,0.23489 -0.11841,2.77821 -1.54631,4.6648c-1.87222,2.47363 -5.15977,4.40358 -5.15977,4.40358c0,0 1.44892,-1.38183 0.91712,-4.00628c-0.5318,-2.62444 -2.14763,-4.09149 -2.14763,-4.09149c0,0 0.7194,0.03254 1.41742,-0.0283z" fill="#ffffff" stroke="#ff0000" stroke-width="0"/><g fill="none" stroke="#2b2b2b" stroke-width="0.5"><path d="M534.8496,224.82846v-0.00001c-5.93288,0 -12.10422,-3.61875 -15.89204,-6.6845c-2.78359,-2.25295 -3.07216,-7.10207 -3.07216,-7.10207c0,0 1.66065,3.87436 3.5726,4.59922c0.62381,0.2365 1.89443,0.90711 1.89443,0.90711c0,0 1.41391,-0.41553 2.1977,-0.41629c0.26689,-0.00026 0.87284,0.82434 0.87284,0.82434c0,0 0.86853,-0.61917 1.31959,-0.63754c2.69332,-0.10966 5.77789,0.05261 9.10704,0.05261"/><path d="M534.42048,216.37134c3.32914,0 6.41371,-0.16226 9.10704,-0.05261c0.45106,0.01837 1.31959,0.63754 1.31959,0.63754c0,0 0.60596,-0.82461 0.87284,-0.82434c0.78378,0.00076 2.1977,0.41629 2.1977,0.41629c0,0 1.27062,-0.67061 1.89443,-0.90711c1.91195,-0.72487 3.5726,-4.59922 3.5726,-4.59922c0,0 -0.28857,4.84912 -3.07216,7.10207c-3.78782,3.06574 -9.95916,6.6845 -15.89204,6.6845l-0.00001,0.00001"/></g><path d="M524.90769,220.48453c-0.5318,2.62444 0.91712,4.00627 0.91712,4.00627c0,0 -3.28755,-1.92996 -5.15977,-4.40358c-0.47126,-0.62265 -0.80208,-1.31682 -1.0331,-1.97594c1.28918,0.22944 3.39886,0.41949 3.8239,0.45738c0.6678,0.05954 1.33631,0.12429 2.00414,0.1865c-0.22315,0.50262 -0.42084,1.08063 -0.55229,1.72936z" fill="#ffffff" stroke="#ff0000" stroke-width="0"/><path d="M543.83883,218.75517c0.66783,-0.06222 1.33634,-0.12696 2.00414,-0.1865c0.42504,-0.0379 2.53472,-0.22794 3.8239,-0.45738c-0.23102,0.65912 -0.56184,1.3533 -1.0331,1.97594c-1.87222,2.47363 -5.15977,4.40358 -5.15977,4.40358c0,0 1.44892,-1.38183 0.91712,-4.00628c-0.13145,-0.64873 -0.32915,-1.22674 -0.5523,-1.72936z" fill="#ffffff" stroke="#ff0000" stroke-width="0"/><g stroke-width="0"><g stroke="#000000"><path d="M546.639,185.7849c0,0.79141 -2.57694,1.43297 -11.91825,1.43297c-9.34131,0 -12.06098,-0.64157 -12.06098,-1.43297c0,-0.79141 2.71968,-1.43297 12.06098,-1.43297c9.34131,0 11.91825,0.64157 11.91825,1.43297z" fill="#252525"/><path d="M534.57804,184.35193c9.34131,0 12.06098,0.64157 12.06098,1.43297c0,0.79141 -2.71968,1.43297 -12.06098,1.43297c-9.34131,0 -11.91825,-0.64157 -11.91825,-1.43297c0,-0.79141 2.57694,-1.43297 11.91825,-1.43297z" fill="#222222"/></g><path d="M522.65982,185.79304v-2.88223h23.97923v2.88223z" fill="#222222" stroke="#000000"/><g fill="#202020" stroke="#000000"><path d="M546.639,182.91081c0,0.79141 -2.57694,1.43297 -11.91825,1.43297c-9.34131,0 -12.06098,-0.64157 -12.06098,-1.43297c0,-0.79141 2.71968,-1.43297 12.06098,-1.43297c9.34131,0 11.91825,0.64157 11.91825,1.43297z"/><path d="M534.57804,181.47785c9.34131,0 12.06098,0.64156 12.06098,1.43297c0,0.79141 -2.71968,1.43297 -12.06098,1.43297c-9.34131,0 -11.91825,-0.64157 -11.91825,-1.43297c0,-0.79141 2.57694,-1.43297 11.91825,-1.43297z"/></g><g fill="#222222" stroke="#000000"><path d="M542.96876,182.63064c0,0.51189 -3.72469,0.92686 -8.31933,0.92686c-4.59463,0 -8.31932,-0.41497 -8.31932,-0.92686c0,-0.51189 3.72468,-0.92686 8.31932,-0.92686c4.59463,0 8.31933,0.41497 8.31933,0.92686z"/><path d="M526.33011,182.63064c0,0 0.16532,-5.02063 -0.28101,-7.54937c-0.43422,-2.46015 -2.3616,-7.42297 -2.3616,-7.42297h10.88364l8.39763,14.97235z"/><path d="M526.33011,182.63064l8.39763,-14.97235h10.88364c0,0 -1.92739,4.96282 -2.3616,7.42297c-0.44632,2.52874 -0.28101,7.54938 -0.28101,7.54938z"/></g><path d="M545.61133,167.65829c0,1.26004 -4.90783,2.28151 -10.96193,2.28151c-6.05411,0 -10.96193,-1.02146 -10.96193,-2.28151c0,-1.26004 4.90783,-2.2815 10.96193,-2.2815c6.05411,0 10.96193,1.02146 10.96193,2.2815z" fill="#202020" stroke="#000000"/><g fill="#770000"><g><g stroke="#000000"><path d="M543.1542,182.96202c0,0.32887 -3.80772,0.59548 -8.50477,0.59548c-4.69705,0 -8.50477,-0.26661 -8.50477,-0.59548c0,-0.32887 3.80772,-0.59548 8.50477,-0.59548c4.69705,0 8.50477,0.26661 8.50477,0.59548z"/><path d="M526.14466,182.96202c0,0 0.169,-3.22563 -0.28727,-4.85027c-0.44389,-1.58058 17.29682,4.85028 17.29682,4.85028z"/><path d="M526.14466,182.96202c0,0 17.74071,-6.43086 17.29683,-4.85028c-0.45627,1.62466 -0.28728,4.85028 -0.28728,4.85028z"/></g><path d="M534.64943,180.81237c-4.86024,0 -8.31667,-2.70558 -8.31667,-2.87581c0,-0.17022 3.45643,0.43476 8.31667,0.43476c4.86024,0 4.86024,2.44104 0,2.44104z" stroke="#2b2b2b"/></g><g><g stroke="#000000"><path d="M534.64943,182.36653c4.69706,0 8.50477,0.26661 8.50477,0.59548c0,0.32887 -3.80772,0.59548 -8.50477,0.59548c-4.69706,0 -8.50477,-0.26661 -8.50477,-0.59548c0,-0.32887 3.80772,-0.59548 8.50477,-0.59548z"/><path d="M526.14466,182.96202c0,0 17.74072,-6.43086 17.29683,-4.85028c-0.45627,1.62466 -0.28728,4.85027 -0.28728,4.85027z"/><path d="M526.14467,182.96202c0,0 0.169,-3.22563 -0.28728,-4.85028c-0.44389,-1.58058 17.29682,4.85028 17.29682,4.85028z"/></g><path d="M534.64943,178.37133c4.86024,0 8.31668,-0.60498 8.31668,-0.43476c0,0.17022 -3.45644,2.87581 -8.31668,2.87581c-4.86024,0 -4.86024,-2.44104 0,-2.44104z" stroke="#2b2b2b"/></g></g></g><path d="M543.58978,212.49733c-4.17908,0 -6.36898,-3.34803 -6.36898,-7.79232c0,-4.4443 1.59093,-8.85395 5.77001,-8.85395c4.17908,0 8.24572,4.19733 8.24572,8.64162c0,4.4443 -3.46768,8.00464 -7.64677,8.00464z" fill="#ffffff" stroke="#000000" stroke-width="0"/><path d="M525.7091,212.49732c-4.17909,0 -7.64677,-3.56035 -7.64677,-8.00464c0,-4.44429 4.06664,-8.64162 8.24572,-8.64162c4.17908,0 5.77001,4.40965 5.77001,8.85395c0,4.44429 -2.1899,7.79232 -6.36898,7.79232z" fill="#ffffff" stroke="#000000" stroke-width="0"/><g fill="#262626" stroke="#000000" stroke-width="0"><path d="M539.96465,211.95217c0,1.44669 -2.37971,2.61947 -5.31523,2.61947c-2.93552,0 -5.31523,-1.17278 -5.31523,-2.61947c0,-1.44669 2.37971,-2.61947 5.31523,-2.61947c2.93552,0 5.31523,1.17278 5.31523,2.61947z"/><path d="M538.42353,213.07161c0,0.95534 -1.68973,2.75195 -3.77411,2.75195c-2.08439,0 -3.77411,-1.79662 -3.77411,-2.75195c0,-0.95534 1.68973,-1.7298 3.77411,-1.7298c2.08439,0 3.77411,0.77446 3.77411,1.7298z"/></g></g><path d="M444.89533,229.75002l77.58333,-25.33333l24.25814,-0.25l77.66667,25.58333z" fill="url(#color-4)" stroke="none" stroke-width="0"/><path d="M447.82441,165.75002c0,-1.38071 1.11929,-2.5 2.5,-2.5c1.38071,0 2.5,1.11929 2.5,2.5c0,1.38071 -1.11929,2.5 -2.5,2.5c-1.38071,0 -2.5,-1.11929 -2.5,-2.5z" fill="#ff0000" stroke="none" stroke-width="0.5"/></g></g></svg>