<svg version="1.1" xmlns="http://www.w3.org/2000/svg" xmlns:xlink="http://www.w3.org/1999/xlink" width="680.20605" height="783.06807" viewBox="0,0,680.20605,783.06807"><defs><linearGradient x1="55.33277" y1="410.51028" x2="106.15899" y2="411.15117" gradientUnits="userSpaceOnUse" id="color-1"><stop offset="0" stop-color="#484c5e"/><stop offset="1" stop-color="#212d30"/></linearGradient><linearGradient x1="55.82103" y1="364.52009" x2="124.66159" y2="365.38809" gradientUnits="userSpaceOnUse" id="color-2"><stop offset="0" stop-color="#484c5e"/><stop offset="1" stop-color="#212d30"/></linearGradient><linearGradient x1="56.36359" y1="313.41593" x2="125.20415" y2="314.28392" gradientUnits="userSpaceOnUse" id="color-3"><stop offset="0" stop-color="#484c5e"/><stop offset="1" stop-color="#212d30"/></linearGradient><linearGradient x1="56.84585" y1="267.98998" x2="125.68641" y2="268.85798" gradientUnits="userSpaceOnUse" id="color-4"><stop offset="0" stop-color="#484c5e"/><stop offset="1" stop-color="#212d30"/></linearGradient><linearGradient x1="57.40852" y1="214.99301" x2="126.24907" y2="215.86109" gradientUnits="userSpaceOnUse" id="color-5"><stop offset="0" stop-color="#484c5e"/><stop offset="1" stop-color="#212d30"/></linearGradient><linearGradient x1="57.89077" y1="169.56714" x2="126.73133" y2="170.43515" gradientUnits="userSpaceOnUse" id="color-6"><stop offset="0" stop-color="#484c5e"/><stop offset="1" stop-color="#212d30"/></linearGradient><linearGradient x1="58.43334" y1="118.46291" x2="127.27389" y2="119.331" gradientUnits="userSpaceOnUse" id="color-7"><stop offset="0" stop-color="#484c5e"/><stop offset="1" stop-color="#212d30"/></linearGradient><linearGradient x1="58.91559" y1="73.03705" x2="127.75615" y2="73.90497" gradientUnits="userSpaceOnUse" id="color-8"><stop offset="0" stop-color="#484c5e"/><stop offset="1" stop-color="#212d30"/></linearGradient><linearGradient x1="666.21182" y1="408.90771" x2="615.38561" y2="409.58835" gradientUnits="userSpaceOnUse" id="color-9"><stop offset="0" stop-color="#484c5e"/><stop offset="1" stop-color="#212d30"/></linearGradient><linearGradient x1="665.72356" y1="360.06556" x2="596.883" y2="360.98739" gradientUnits="userSpaceOnUse" id="color-10"><stop offset="0" stop-color="#484c5e"/><stop offset="1" stop-color="#212d30"/></linearGradient><linearGradient x1="665.181" y1="305.79232" x2="596.34044" y2="306.71413" gradientUnits="userSpaceOnUse" id="color-11"><stop offset="0" stop-color="#484c5e"/><stop offset="1" stop-color="#212d30"/></linearGradient><linearGradient x1="664.69875" y1="257.5494" x2="595.85818" y2="258.47123" gradientUnits="userSpaceOnUse" id="color-12"><stop offset="0" stop-color="#484c5e"/><stop offset="1" stop-color="#212d30"/></linearGradient><linearGradient x1="664.13608" y1="201.26597" x2="595.29552" y2="202.18785" gradientUnits="userSpaceOnUse" id="color-13"><stop offset="0" stop-color="#484c5e"/><stop offset="1" stop-color="#212d30"/></linearGradient><linearGradient x1="663.65382" y1="153.02311" x2="594.81326" y2="153.94495" gradientUnits="userSpaceOnUse" id="color-14"><stop offset="0" stop-color="#484c5e"/><stop offset="1" stop-color="#212d30"/></linearGradient><linearGradient x1="663.11126" y1="98.7498" x2="594.2707" y2="99.67171" gradientUnits="userSpaceOnUse" id="color-15"><stop offset="0" stop-color="#484c5e"/><stop offset="1" stop-color="#212d30"/></linearGradient><linearGradient x1="662.62901" y1="50.50698" x2="593.78844" y2="51.42872" gradientUnits="userSpaceOnUse" id="color-16"><stop offset="0" stop-color="#484c5e"/><stop offset="1" stop-color="#212d30"/></linearGradient><linearGradient x1="219.33917" y1="495.72113" x2="385.00182" y2="555.55109" gradientUnits="userSpaceOnUse" id="color-17"><stop offset="0" stop-color="#484c5e"/><stop offset="1" stop-color="#212d30"/></linearGradient><linearGradient x1="280.29008" y1="277.17561" x2="477.75997" y2="348.49292" gradientUnits="userSpaceOnUse" id="color-18"><stop offset="0" stop-color="#484c5e"/><stop offset="1" stop-color="#212d30"/></linearGradient><linearGradient x1="375.20925" y1="297.16474" x2="398.34701" y2="305.52106" gradientUnits="userSpaceOnUse" id="color-19"><stop offset="0" stop-color="#484c5e"/><stop offset="1" stop-color="#212d30"/></linearGradient><linearGradient x1="362.67356" y1="331.87471" x2="394.01206" y2="343.19278" gradientUnits="userSpaceOnUse" id="color-20"><stop offset="0" stop-color="#484c5e"/><stop offset="1" stop-color="#212d30"/></linearGradient><linearGradient x1="348.74393" y1="370.44433" x2="380.08243" y2="381.7624" gradientUnits="userSpaceOnUse" id="color-21"><stop offset="0" stop-color="#484c5e"/><stop offset="1" stop-color="#212d30"/></linearGradient><linearGradient x1="336.36204" y1="404.72845" x2="367.70054" y2="416.04652" gradientUnits="userSpaceOnUse" id="color-22"><stop offset="0" stop-color="#484c5e"/><stop offset="1" stop-color="#212d30"/></linearGradient><linearGradient x1="321.91649" y1="444.7266" x2="353.25499" y2="456.04467" gradientUnits="userSpaceOnUse" id="color-23"><stop offset="0" stop-color="#484c5e"/><stop offset="1" stop-color="#212d30"/></linearGradient><linearGradient x1="309.53461" y1="479.01068" x2="340.87311" y2="490.32875" gradientUnits="userSpaceOnUse" id="color-24"><stop offset="0" stop-color="#484c5e"/><stop offset="1" stop-color="#212d30"/></linearGradient><linearGradient x1="295.60497" y1="517.58034" x2="326.94347" y2="528.8984" gradientUnits="userSpaceOnUse" id="color-25"><stop offset="0" stop-color="#484c5e"/><stop offset="1" stop-color="#212d30"/></linearGradient><linearGradient x1="283.22309" y1="551.86442" x2="314.56159" y2="563.18248" gradientUnits="userSpaceOnUse" id="color-26"><stop offset="0" stop-color="#484c5e"/><stop offset="1" stop-color="#212d30"/></linearGradient><linearGradient x1="469.55674" y1="390.10027" x2="430.94388" y2="381.27517" gradientUnits="userSpaceOnUse" id="color-27"><stop offset="0" stop-color="#484c5e"/><stop offset="1" stop-color="#212d30"/></linearGradient><linearGradient x1="462.22932" y1="422.16028" x2="409.9309" y2="410.20733" gradientUnits="userSpaceOnUse" id="color-28"><stop offset="0" stop-color="#484c5e"/><stop offset="1" stop-color="#212d30"/></linearGradient><linearGradient x1="454.08711" y1="457.78529" x2="401.7887" y2="445.8323" gradientUnits="userSpaceOnUse" id="color-29"><stop offset="0" stop-color="#484c5e"/><stop offset="1" stop-color="#212d30"/></linearGradient><linearGradient x1="446.84961" y1="489.45193" x2="394.55119" y2="477.49898" gradientUnits="userSpaceOnUse" id="color-30"><stop offset="0" stop-color="#484c5e"/><stop offset="1" stop-color="#212d30"/></linearGradient><linearGradient x1="438.40583" y1="526.39638" x2="386.10741" y2="514.44339" gradientUnits="userSpaceOnUse" id="color-31"><stop offset="0" stop-color="#484c5e"/><stop offset="1" stop-color="#212d30"/></linearGradient><linearGradient x1="431.16833" y1="558.06301" x2="378.86991" y2="546.11006" gradientUnits="userSpaceOnUse" id="color-32"><stop offset="0" stop-color="#484c5e"/><stop offset="1" stop-color="#212d30"/></linearGradient><linearGradient x1="423.02612" y1="593.68802" x2="370.7277" y2="581.73503" gradientUnits="userSpaceOnUse" id="color-33"><stop offset="0" stop-color="#484c5e"/><stop offset="1" stop-color="#212d30"/></linearGradient><linearGradient x1="415.78859" y1="625.35464" x2="363.4902" y2="613.40171" gradientUnits="userSpaceOnUse" id="color-34"><stop offset="0" stop-color="#484c5e"/><stop offset="1" stop-color="#212d30"/></linearGradient><linearGradient x1="256.99276" y1="313.33165" x2="292.33401" y2="331.21547" gradientUnits="userSpaceOnUse" id="color-35"><stop offset="0" stop-color="#484c5e"/><stop offset="1" stop-color="#212d30"/></linearGradient><linearGradient x1="242.14393" y1="342.67526" x2="290.01117" y2="366.89768" gradientUnits="userSpaceOnUse" id="color-36"><stop offset="0" stop-color="#484c5e"/><stop offset="1" stop-color="#212d30"/></linearGradient><linearGradient x1="225.64396" y1="375.28178" x2="273.5112" y2="399.5042" gradientUnits="userSpaceOnUse" id="color-37"><stop offset="0" stop-color="#484c5e"/><stop offset="1" stop-color="#212d30"/></linearGradient><linearGradient x1="210.9773" y1="404.26537" x2="258.84454" y2="428.48779" gradientUnits="userSpaceOnUse" id="color-38"><stop offset="0" stop-color="#484c5e"/><stop offset="1" stop-color="#212d30"/></linearGradient><linearGradient x1="193.86621" y1="438.07958" x2="241.73346" y2="462.30196" gradientUnits="userSpaceOnUse" id="color-39"><stop offset="0" stop-color="#484c5e"/><stop offset="1" stop-color="#212d30"/></linearGradient><linearGradient x1="179.19956" y1="467.06314" x2="227.0668" y2="491.28556" gradientUnits="userSpaceOnUse" id="color-40"><stop offset="0" stop-color="#484c5e"/><stop offset="1" stop-color="#212d30"/></linearGradient><linearGradient x1="162.69958" y1="499.66969" x2="210.56684" y2="523.89208" gradientUnits="userSpaceOnUse" id="color-41"><stop offset="0" stop-color="#484c5e"/><stop offset="1" stop-color="#212d30"/></linearGradient><linearGradient x1="148.03293" y1="528.65325" x2="195.90017" y2="552.87567" gradientUnits="userSpaceOnUse" id="color-42"><stop offset="0" stop-color="#484c5e"/><stop offset="1" stop-color="#212d30"/></linearGradient><linearGradient x1="299.71103" y1="393.5664" x2="389.86389" y2="426.12559" gradientUnits="userSpaceOnUse" id="color-43"><stop offset="0" stop-color="#484c5e"/><stop offset="1" stop-color="#212d30"/></linearGradient><linearGradient x1="442.63362" y1="405.11802" x2="387.57844" y2="385.23454" gradientUnits="userSpaceOnUse" id="color-44"><stop offset="0" stop-color="#484c5e"/><stop offset="1" stop-color="#212d30"/></linearGradient><linearGradient x1="272.14467" y1="349.54744" x2="327.19985" y2="369.43092" gradientUnits="userSpaceOnUse" id="color-45"><stop offset="0" stop-color="#484c5e"/><stop offset="1" stop-color="#212d30"/></linearGradient><radialGradient cx="394.09398" cy="273.60077" r="43.75" gradientUnits="userSpaceOnUse" id="color-46"><stop offset="0" stop-color="#ffffff" stop-opacity="0.43529"/><stop offset="1" stop-color="#ffffff" stop-opacity="0"/></radialGradient><linearGradient x1="359.03849" y1="247.42492" x2="429.14947" y2="299.77662" gradientUnits="userSpaceOnUse" id="color-47"><stop offset="0" stop-color="#484c5e"/><stop offset="1" stop-color="#212d30"/></linearGradient><linearGradient x1="388.65731" y1="269.33595" x2="399.99104" y2="277.79882" gradientUnits="userSpaceOnUse" id="color-48"><stop offset="0" stop-color="#484c5e"/><stop offset="1" stop-color="#212d30"/></linearGradient><radialGradient cx="435.66375" cy="306.51285" r="43.75" gradientUnits="userSpaceOnUse" id="color-49"><stop offset="0" stop-color="#ffffff" stop-opacity="0.43529"/><stop offset="1" stop-color="#ffffff" stop-opacity="0"/></radialGradient><linearGradient x1="400.60826" y1="280.337" x2="470.71924" y2="332.6887" gradientUnits="userSpaceOnUse" id="color-50"><stop offset="0" stop-color="#484c5e"/><stop offset="1" stop-color="#212d30"/></linearGradient><linearGradient x1="430.22707" y1="302.24803" x2="441.5608" y2="310.7109" gradientUnits="userSpaceOnUse" id="color-51"><stop offset="0" stop-color="#484c5e"/><stop offset="1" stop-color="#212d30"/></linearGradient></defs><g transform="translate(-20.66927,63.20095)"><g stroke-miterlimit="10"><g fill="none" stroke-width="3.25" stroke-linecap="round"><path d="M55.5783,387.38417c0,0 31.88218,-1.0902 44.50005,-1.52158c9.33843,-0.31933 7.93086,11.1821 -1.90819,18.37152c-8.2408,6.02151 -24.14006,17.63921 -34.15535,24.95737c-5.29823,3.87143 -2.87213,6.61629 1.83047,6.67554c8.90188,0.11228 38.62921,0.48711 38.62921,0.48711" stroke="url(#color-1)"/><path d="M56.06061,341.95815c0,0 31.88223,-1.0902 44.50004,-1.52167c9.33843,-0.31927 7.93086,11.18217 -1.90818,18.37152c-12.60031,9.20701 -43.10516,31.49703 -43.10516,31.49703" stroke="url(#color-2)"/><path d="M56.60312,290.85399c0,0 31.88223,-1.0902 44.50005,-1.52158c9.33843,-0.31927 7.93085,11.18217 -1.90819,18.37152c-12.60031,9.20701 -43.10516,31.49703 -43.10516,31.49703" stroke="url(#color-3)"/><path d="M57.08543,245.42807c0,0 31.88223,-1.0902 44.50005,-1.52158c9.33843,-0.31927 7.93085,11.18217 -1.90819,18.37152c-12.60031,9.20701 -43.10516,31.49703 -43.10516,31.49703" stroke="url(#color-4)"/><path d="M57.64804,192.43116c0,0 31.88223,-1.0902 44.50004,-1.52167c9.33843,-0.31927 7.93086,11.18225 -1.90818,18.3716c-12.60031,9.20701 -43.10516,31.49703 -43.10516,31.49703" stroke="url(#color-5)"/><path d="M58.13035,147.00522c0,0 31.88223,-1.0902 44.50005,-1.52167c9.33843,-0.31927 7.93086,11.18217 -1.90818,18.37152c-12.60031,9.20701 -43.10517,31.49703 -43.10517,31.49703" stroke="url(#color-6)"/><path d="M58.67286,95.90106c0,0 31.88223,-1.0902 44.50005,-1.52158c9.33843,-0.31927 7.93085,11.18217 -1.90819,18.37152c-12.60031,9.20701 -43.10516,31.49709 -43.10516,31.49709" stroke="url(#color-7)"/><path d="M59.15517,50.47512c0,0 31.88223,-1.0902 44.50005,-1.52158c9.33843,-0.31927 7.93085,11.18217 -1.90819,18.37152c-12.60031,9.20701 -43.10516,31.49703 -43.10516,31.49703" stroke="url(#color-8)"/></g><path d="M38.49488,36.97774c-4.68434,-17.07174 -31.70144,-73.08674 6.64436,-82.56975c39.58293,-9.78893 44.12161,49.50232 54.2833,46.72217c13.13656,-3.59403 3.62524,-14.33841 11.15548,-10.61275c20.95938,10.36986 7.64552,37.34858 9.02771,42.38593c2.94357,10.72772 32.77133,30.28672 23.40582,36.3766c-5.53849,3.60136 -47.15613,-3.84634 -55.47953,-3.42824c-5.43594,0.27308 -57.29021,31.88384 -62.43334,30.64313c-16.04865,-3.87147 16.9437,-46.58851 13.39621,-59.51705z" fill="#0d0d0d" stroke="#000000" stroke-width="0" stroke-linecap="butt"/><g fill="none" stroke-width="3.25" stroke-linecap="round"><path d="M617.07011,436.35412c0,0 29.72733,-0.39807 38.6292,-0.51732c4.7026,-0.06299 7.12869,-2.97801 1.83047,-7.08951c-10.01528,-7.77199 -25.91455,-20.11011 -34.15535,-26.50505c-9.83905,-7.63526 -11.24662,-19.84993 -1.90819,-19.51078c12.61786,0.45816 44.50005,1.61594 44.50005,1.61594" stroke="url(#color-9)"/><path d="M665.99729,387.44957c0,0 -30.50486,-23.67226 -43.10517,-33.45023c-9.83904,-7.63518 -11.24661,-19.84985 -1.90818,-19.51078c12.61782,0.45816 44.50005,1.61603 44.50005,1.61603" stroke="url(#color-10)"/><path d="M665.45477,333.17633c0,0 -30.50486,-23.67218 -43.10516,-33.45023c-9.83904,-7.63518 -11.24661,-19.84985 -1.90819,-19.51078c12.61782,0.45816 44.50005,1.61594 44.50005,1.61594" stroke="url(#color-11)"/><path d="M664.97247,284.93343c0,0 -30.50486,-23.67218 -43.10516,-33.45023c-9.83904,-7.63518 -11.24661,-19.84985 -1.90819,-19.51078c12.61782,0.45816 44.50005,1.61594 44.50005,1.61594" stroke="url(#color-12)"/><path d="M664.40985,228.65005c0,0 -30.50485,-23.67218 -43.10516,-33.45023c-9.83904,-7.63518 -11.24661,-19.84993 -1.90819,-19.51086c12.61782,0.45816 44.50005,1.61603 44.50005,1.61603" stroke="url(#color-13)"/><path d="M663.92755,180.40705c0,0 -30.50486,-23.67226 -43.10517,-33.45023c-9.83904,-7.63518 -11.2466,-19.84985 -1.90818,-19.51078c12.61782,0.45816 44.50005,1.61603 44.50005,1.61603" stroke="url(#color-14)"/><path d="M663.38503,126.13389c0,0 -30.50486,-23.67226 -43.10516,-33.4503c-9.83904,-7.63518 -11.24661,-19.84985 -1.90819,-19.51078c12.61782,0.45816 44.50005,1.61594 44.50005,1.61594" stroke="url(#color-15)"/><path d="M662.90273,77.89091c0,0 -30.50486,-23.67218 -43.10516,-33.45023c-9.83904,-7.63518 -11.24661,-19.84985 -1.90819,-19.51078c12.61782,0.45816 44.50005,1.61594 44.50005,1.61594" stroke="url(#color-16)"/></g><path d="M683.04971,20.46128c-3.54749,12.92854 29.44486,55.64558 13.39621,59.51705c-5.14314,1.24072 -56.99741,-30.37005 -62.43335,-30.64312c-8.3234,-0.41809 -49.94104,7.0296 -55.47953,3.42824c-9.36551,-6.08987 20.46224,-25.64888 23.40582,-36.3766c1.38219,-5.03735 -11.93166,-32.01607 9.02771,-42.38593c7.53025,-3.72566 -1.98108,7.01872 11.15548,10.61275c10.16169,2.78015 14.70037,-56.51111 54.2833,-46.72217c38.34579,9.48301 11.3287,65.49801 6.64436,82.56975z" fill="#0d0d0d" stroke="#000000" stroke-width="0" stroke-linecap="butt"/><g><path d="M385.00179,555.55107c-0.76994,2.13187 -24.87072,-6.77205 -45.80122,-25.53872c-9.61062,-8.61704 -7.41074,-28.88591 -21.80616,-34.08489c-16.31573,-5.89251 -23.57836,11.96362 -38.71841,13.40969c-27.30997,2.60844 -58.18227,-6.44222 -57.45949,-8.44352c1.12347,-3.11077 72.30209,-94.48994 118.04854,-77.96836c45.74648,16.52159 46.86021,129.51504 45.73674,132.6258z" fill="#4c1212" stroke="url(#color-17)" stroke-width="0" stroke-linecap="butt"/><path d="M477.75997,348.49292c-0.82608,2.28733 -52.78901,22.32177 -107.3188,2.62804c-54.52979,-19.69373 -88.46483,-65.13255 -87.63874,-67.41988c0.40782,-1.1292 47.06137,21.19523 95.18208,37.1716c49.35289,16.38545 100.19368,26.46213 99.77543,27.62023z" fill="#4c1212" stroke="url(#color-18)" stroke-width="0" stroke-linecap="butt"/><g fill="none" stroke-width="3.25" stroke-linecap="round"><path d="M404.57659,286.25338c0,0 -13.53285,-4.88746 -17.58527,-6.35101c-2.1408,-0.77316 -3.99807,0.87149 -2.6785,4.70758c2.49441,7.25141 6.45432,18.76299 8.50677,24.72962c2.45052,7.12378 -0.10376,16.02777 -4.23372,14.16338c-5.58025,-2.51912 -19.68019,-8.88431 -19.68019,-8.88431" stroke="url(#color-19)"/><path d="M369.70186,312.41412c0,0 7.59758,22.08655 10.73583,31.20959c2.45052,7.12378 -0.10375,16.02774 -4.23372,14.16338c-5.58025,-2.51912 -19.68019,-8.88431 -19.68019,-8.88431" stroke="url(#color-20)"/><path d="M355.77223,350.98375c0,0 7.59758,22.08655 10.73583,31.20959c2.45052,7.12378 -0.10375,16.02774 -4.23372,14.16338c-5.58025,-2.51912 -19.68019,-8.88431 -19.68019,-8.88431" stroke="url(#color-21)"/><path d="M343.39034,385.26786c0,0 7.59758,22.08655 10.73583,31.20959c2.45052,7.12378 -0.10375,16.02774 -4.23372,14.16338c-5.58025,-2.51912 -19.68019,-8.88431 -19.68019,-8.88431" stroke="url(#color-22)"/><path d="M328.9448,425.26598c0,0 7.59758,22.08655 10.73583,31.20959c2.45052,7.12378 -0.10375,16.02774 -4.23372,14.16338c-5.58025,-2.51912 -19.68019,-8.88431 -19.68019,-8.88431" stroke="url(#color-23)"/><path d="M316.56291,459.55009c0,0 7.59758,22.08655 10.73583,31.20959c2.45052,7.12378 -0.10375,16.02774 -4.23372,14.16338c-5.58025,-2.51912 -19.68019,-8.88431 -19.68019,-8.88431" stroke="url(#color-24)"/><path d="M302.63328,498.11971c0,0 7.59758,22.08655 10.73583,31.20959c2.45052,7.12378 -0.10375,16.02774 -4.23372,14.16338c-5.58025,-2.51912 -19.68019,-8.88431 -19.68019,-8.88431" stroke="url(#color-25)"/><path d="M290.25139,532.40383c0,0 7.59758,22.08655 10.73583,31.20959c2.45052,7.12378 -0.10375,16.02774 -4.23372,14.16338c-5.58025,-2.51912 -19.68019,-8.88431 -19.68019,-8.88431" stroke="url(#color-26)"/></g><g><g fill="none" stroke-width="3.25" stroke-linecap="round"><path d="M465.87214,406.22165c0,0 -24.44668,-4.49296 -34.12184,-6.27113c-7.16054,-1.316 -4.34905,-9.12185 4.23175,-12.52451c7.18698,-2.84994 21.05309,-8.34847 29.78766,-11.81207c4.6207,-1.83231 3.1881,-4.15043 -0.38449,-4.96695c-6.76279,-1.54565 -29.34675,-6.70727 -29.34675,-6.70727" stroke="url(#color-27)"/><path d="M458.63464,437.88829c0,0 -24.4467,-4.49293 -34.12185,-6.2711c-7.16054,-1.316 -4.34905,-9.12185 4.2318,-12.52453c10.989,-4.3576 37.59295,-14.90723 37.59295,-14.90723" stroke="url(#color-28)"/><path d="M450.49243,473.5133c0,0 -24.44668,-4.49296 -34.12184,-6.27113c-7.16054,-1.316 -4.34905,-9.12185 4.23179,-12.5245c10.989,-4.3576 37.59295,-14.90723 37.59295,-14.90723" stroke="url(#color-29)"/><path d="M443.25493,505.17993c0,0 -24.4467,-4.49293 -34.12185,-6.2711c-7.16054,-1.316 -4.34905,-9.12185 4.23177,-12.52454c10.989,-4.3576 37.59295,-14.90723 37.59295,-14.90723" stroke="url(#color-30)"/><path d="M434.81116,542.12435c0,0 -24.4467,-4.49293 -34.12185,-6.2711c-7.16054,-1.316 -4.34905,-9.12185 4.23179,-12.5245c10.989,-4.3576 37.59295,-14.90723 37.59295,-14.90723" stroke="url(#color-31)"/><path d="M427.57365,573.79102c0,0 -24.4467,-4.49293 -34.12185,-6.2711c-7.16054,-1.316 -4.34905,-9.12185 4.2318,-12.52453c10.989,-4.3576 37.59295,-14.90723 37.59295,-14.90723" stroke="url(#color-32)"/><path d="M419.43144,609.41603c0,0 -24.4467,-4.49293 -34.12185,-6.2711c-7.16054,-1.316 -4.34905,-9.12185 4.23179,-12.5245c10.989,-4.3576 37.59295,-14.90723 37.59295,-14.90723" stroke="url(#color-33)"/><path d="M412.19394,641.08267c0,0 -24.4467,-4.49293 -34.12185,-6.2711c-7.16054,-1.316 -4.34905,-9.12185 4.2318,-12.52453c10.989,-4.3576 37.59295,-14.90723 37.59295,-14.90723" stroke="url(#color-34)"/></g><path d="M410.22162,719.85314c-31.76019,0.93127 -25.44447,-44.97365 -33.64195,-44.53112c-10.59732,0.57211 -5.12432,10.32276 -10.24533,6.24412c-14.2537,-11.35237 0.33291,-29.70521 0.11048,-33.76952c-0.47372,-8.65547 -19.96715,-28.46807 -11.83051,-31.56253c4.81178,-1.82996 35.28065,10.70172 41.68875,11.75517c4.18503,0.688 48.88794,-14.84042 52.60052,-13.04781c11.58471,5.59373 -20.58323,32.68968 -20.01234,43.12084c0.75386,13.77409 12.09796,60.88873 -18.66959,61.79087z" fill="#0d0d0d" stroke="#000000" stroke-width="0" stroke-linecap="butt"/></g><g><g fill="none" stroke-width="3.25" stroke-linecap="round"><path d="M299.49191,314.62511c0,0 -20.67045,-10.45994 -26.86023,-13.59218c-3.26989,-1.65467 -5.85309,-0.78688 -3.46949,3.57507c4.50575,8.24545 11.65865,21.33507 15.36609,28.11959c4.42647,8.10035 1.60148,15.90132 -4.74753,12.33827c-8.57866,-4.81425 -30.25471,-16.9788 -30.25471,-16.9788" stroke="url(#color-35)"/><path d="M250.46914,326.22339c0,0 13.72377,25.11421 19.3925,35.48784c4.42648,8.10031 1.60149,15.90128 -4.74753,12.33827c-8.57861,-4.81427 -30.25471,-16.9788 -30.25471,-16.9788" stroke="url(#color-36)"/><path d="M233.96913,358.8299c0,0 13.72377,25.11421 19.3925,35.48784c4.42648,8.10031 1.60149,15.90128 -4.74753,12.33827c-8.57861,-4.81427 -30.25471,-16.9788 -30.25471,-16.9788" stroke="url(#color-37)"/><path d="M219.30251,387.8135c0,0 13.72377,25.11421 19.3925,35.48784c4.42648,8.10031 1.60149,15.90128 -4.74753,12.33827c-8.57861,-4.81427 -30.25471,-16.9788 -30.25471,-16.9788" stroke="url(#color-38)"/><path d="M202.1914,421.62766c0,0 13.72377,25.11421 19.3925,35.48784c4.42648,8.10031 1.60149,15.90128 -4.74753,12.33827c-8.57861,-4.81427 -30.25471,-16.9788 -30.25471,-16.9788" stroke="url(#color-39)"/><path d="M187.52477,450.61127c0,0 13.72377,25.11421 19.3925,35.48784c4.42648,8.10031 1.60149,15.90128 -4.74753,12.33827c-8.57861,-4.81427 -30.25471,-16.9788 -30.25471,-16.9788" stroke="url(#color-40)"/><path d="M171.02477,483.21778c0,0 13.72377,25.11421 19.3925,35.48784c4.42648,8.10031 1.60149,15.90128 -4.74753,12.33827c-8.57861,-4.81427 -30.25471,-16.9788 -30.25471,-16.9788" stroke="url(#color-41)"/><path d="M156.35814,512.20138c0,0 13.72377,25.11421 19.3925,35.48784c4.42648,8.10031 1.60149,15.90128 -4.74753,12.33827c-8.57861,-4.81427 -30.25471,-16.9788 -30.25471,-16.9788" stroke="url(#color-42)"/></g><path d="M117.05484,545.44088c7.10437,-7.65924 -0.32687,-49.05664 12.15868,-45.95723c4.00127,0.99326 28.46604,41.50195 32.12493,43.64687c5.60244,3.28422 37.04749,13.11308 39.57955,17.59532c4.28168,7.57941 -23.3729,10.36424 -29.26789,16.71967c-2.76807,2.98428 -3.27445,26.42231 -21.49266,26.04724c-6.54541,-0.13476 3.89501,-4.13822 -3.89126,-11.34963c-6.023,-5.57834 -30.49652,33.7688 -54.33247,12.75868c-23.09097,-20.35347 15.73999,-49.34708 25.12109,-59.46088z" fill="#0d0d0d" stroke="#000000" stroke-width="0" stroke-linecap="butt"/></g><path d="M309.51178,354.14983c3.86576,-10.70386 -11.78602,-40.35643 -7.24034,-44.33157c5.72957,-5.01044 31.87667,17.29741 38.92949,18.83205c8.59532,1.87029 18.27388,6.88479 29.28101,10.86008c11.51317,4.15804 23.08001,7.12639 31.48058,12.24752c5.01804,3.05908 36.13983,5.11112 38.21199,10.41896c2.6557,6.80263 -24.90519,17.81243 -29.66026,30.9787c-7.89434,21.85856 -24.30058,70.57431 -43.9376,90.48016c-16.87049,17.10145 -36.67148,7.57666 -49.24297,3.0364c-10.5655,-3.81579 -33.2757,-16.56109 -35.5001,-35.50967c-3.50304,-29.84113 18.70162,-72.1576 27.67817,-97.01269z" fill="#dadada" stroke="#000000" stroke-width="0" stroke-linecap="butt"/><path d="M299.71103,393.5664c10.95194,-30.32472 40.01165,-47.61916 64.90667,-38.62819c24.89502,8.99097 36.19813,40.86266 25.24619,71.18738c-10.95194,30.32472 -40.01165,47.61916 -64.90667,38.62819c-24.89502,-8.99097 -36.19813,-40.86266 -25.24619,-71.18738z" fill="#ababab" stroke="url(#color-43)" stroke-width="0" stroke-linecap="butt"/><path d="M357.15199,499.26564c8.9249,-46.18275 58.11215,-140.86059 67.90237,-151.27869c16.40408,-17.45612 37.72237,-8.14381 54.64868,-0.27478c9.93072,4.61678 -42.58599,77.41554 -82.21882,122.18131c-18.86478,21.308 -9.77875,87.3145 -9.77875,87.3145c0,0 -39.49226,-11.68812 -30.55351,-57.94235z" fill="#801d1d" stroke="url(#color-44)" stroke-width="0" stroke-linecap="butt"/><path d="M217.21657,501.63738c0,0 49.16536,-44.9687 48.26905,-73.41352c-1.88299,-59.75943 4.23549,-149.31516 14.82451,-146.52113c18.04837,4.7623 40.39738,11.22063 41.86201,35.13013c0.87412,14.26958 -21.78553,118.52801 -44.4295,159.75605c-22.67899,41.29183 -60.52609,25.04846 -60.52609,25.04846z" fill="#801d1d" stroke="url(#color-45)" stroke-width="0" stroke-linecap="butt"/><g stroke="#000000" stroke-width="0" stroke-linecap="butt"><path d="M356.98485,360.17191l18.80677,-23.58764l5.58431,4.45247l-18.80677,23.58764z" fill="#2f323e"/><path d="M372.81762,332.33366c0.69533,-6.49298 12.85285,-22.48274 12.85285,-22.48274l19.16225,14.99027c0,0 -12.91607,14.59025 -18.38056,17.60966c-3.68467,2.03595 -6.68958,-0.97531 -9.11364,-2.90808c-1.80626,-1.44017 -4.81527,-4.45998 -4.52086,-7.2091z" fill="#2f323e"/><g><path d="M450.62729,335.12207c2.51007,-5.86292 2.37988,-10.08856 4.2519,-14.59544c1.76645,-4.25271 5.56973,-8.84978 6.77874,-12.24878c2.98788,-8.4001 4.5481,-14.54002 7.97006,-18.81031c2.13672,-2.66641 8.06155,-5.0996 10.54711,-6.79536c2.71987,-1.85559 10.55178,3.91065 13.31292,9.80737c2.4039,5.13378 -0.03304,9.68288 -0.34985,18.08154c-0.14172,3.75719 0.26232,13.2671 -0.62362,17.3287c-1.46939,6.73633 -4.74066,9.22034 -7.90687,14.79195c-2.65282,4.66819 -3.9537,13.64093 -6.91738,19.17258c-1.38313,2.58164 -4.25653,2.1098 -5.74899,4.28705c-1.80175,2.62843 -5.32689,12.67829 -7.06824,14.94903c-4.94484,6.44814 -8.70855,6.66089 -12.88971,9.78508c-4.96242,3.70799 -10.1762,15.93805 -14.15744,17.2696c-5.81613,1.94527 -14.00102,-3.31602 -16.96949,-5.35087c-2.91429,-1.99771 -8.63692,-2.2222 -9.00347,-7.46241c-0.28361,-4.05462 2.4114,-11.41609 5.98614,-18.9136c2.13039,-4.46823 0.91875,-5.54707 3.99688,-10.55977c1.83791,-2.99305 7.53511,-9.56912 9.93304,-13.06721c4.04634,-5.90288 13.14974,-4.33543 18.85831,-17.66915z" fill="#a3a3a3"/><path d="M480.12,289.68188c2.69062,1.18796 2.52443,7.46764 -0.37125,14.02604c-2.89566,6.55843 -7.42424,10.91202 -10.11486,9.72406c-2.69062,-1.18796 -2.52443,-7.46764 0.37123,-14.02606c2.89566,-6.55843 7.42424,-10.91202 10.11489,-9.72408z" fill="#0d0d0d"/></g><path d="M478.08441,296.44796c0.90662,1.54189 0.43074,4.46483 -0.23184,6.16464c-0.47527,1.21921 -1.66625,3.42673 -2.72743,4.02157c-6.467,3.62526 -21.25692,-4.8118 -18.36059,-12.24193c2.709,-6.94951 17.61317,-4.24811 21.31984,2.0557z" fill="#2f323e"/><g><path d="M354.32791,294.18844c-2.87621,3.11675 -8.01826,10.1354 -10.52681,12.59372c-4.20129,4.11718 -5.52289,3.17621 -9.40443,6.24827c-6.51309,5.15475 -13.08945,9.42157 -17.1054,10.04805c-5.19023,0.80971 -6.68359,-4.71923 -9.28017,-7.11539c-2.64486,-2.44074 -9.59687,-9.2483 -8.99576,-15.35161c0.41148,-4.17782 11.1732,-11.98443 13.68287,-17.64799c2.11455,-4.77192 1.48378,-8.48847 6.66865,-14.74521c1.82586,-2.20333 10.83828,-7.87814 12.9994,-10.22c1.79018,-1.93989 0.69028,-4.63603 2.89903,-6.55937c4.7327,-4.1212 13.19038,-7.38772 17.1505,-11.01356c4.72654,-4.32757 6.4196,-8.06985 12.65953,-11.00259c3.7623,-1.76826 13.12332,-3.49233 16.75457,-4.46726c8.11717,-2.17935 12.00925,-5.56819 17.54953,-4.368c6.36359,1.37854 13.72924,7.72954 12.52598,10.79439c-1.09958,2.80084 -2.15216,9.11879 -4.27573,11.79559c-3.40094,4.28706 -9.03918,7.17548 -16.56289,11.9591c-3.04436,1.93563 -6.67892,6.6672 -10.43148,9.3364c-3.97678,2.82872 -8.1253,3.6429 -13.28194,7.39564c-11.72749,8.5347 -8.17197,17.0604 -13.02545,22.31976z" fill="#a3a3a3"/><path d="M397.85686,245.02318c-5.74881,4.28357 -11.83376,5.84415 -13.59111,3.48563c-1.75735,-2.35852 1.47836,-7.74293 7.22715,-12.02647c5.74881,-4.28357 11.83376,-5.84415 13.59111,-3.48563c1.75735,2.35852 -1.47836,7.74293 -7.22715,12.02647z" fill="#0d0d0d"/></g><path d="M405.69341,256.8146c-6.59843,4.47837 -18.11751,-8.0611 -16.02356,-15.17307c0.34358,-1.167 2.2304,-2.8197 3.31313,-3.55457c1.50954,-1.02449 4.25311,-2.13942 5.95818,-1.59895c6.97104,2.20965 12.92384,16.13787 6.75223,20.32656z" fill="#2f323e"/><path d="M430.15937,357.09438c-0.90645,1.13689 -27.51533,-6.88782 -47.67828,-22.96547c-20.13213,-16.05308 -33.81978,-40.1574 -32.91473,-41.29253c0.90198,-1.13126 15.35878,21.72815 35.42659,37.72081c20.23555,16.12634 46.07592,25.39647 45.16637,26.53719z" fill="#686e88"/><path d="M430.3184,356.29241c-2.51443,3.15359 -47.7121,52.43065 -83.98111,23.51282c-36.26901,-28.91783 2.27762,-86.37798 4.79203,-89.5316c2.51443,-3.15359 -31.95552,49.19357 4.31349,78.11141c36.26901,28.91783 77.39002,-15.24621 74.87561,-12.0926z" fill="#dadada"/><path d="M368.56404,342.29079l17.86349,-22.40456l8.41053,6.70586l-17.86349,22.40456z" fill="#24262f"/><path d="M367.51361,263.22879c19.18621,-24.06352 54.24699,-28.0173 78.31051,-8.83114c24.06349,19.18618 28.01735,54.247 8.83114,78.31051c-19.18618,24.06349 -106.32781,-45.41585 -87.14163,-69.47934z" fill="#dadada"/><path d="M379.21466,266.02948c8.25245,-10.35032 23.33295,-12.05092 33.68325,-3.7985c10.35032,8.25245 12.05098,23.33295 3.7985,33.68325c-8.25245,10.35032 -23.33295,12.05092 -33.68327,3.79847c-10.35032,-8.25245 -12.05092,-23.33295 -3.7985,-33.68325z" fill="#000000"/><path d="M409.12646,291.0749c8.25245,-10.35032 23.33295,-12.05098 33.68325,-3.7985c10.35032,8.25245 12.05092,23.33295 3.7985,33.68325c-8.25245,10.35032 -23.33293,12.05095 -33.68325,3.7985c-10.35032,-8.25245 -12.05095,-23.33293 -3.7985,-33.68325z" fill="#000000"/><path d="M456.81102,342.56896c-5.02397,6.13553 -32.74713,12.77829 -69.31123,-16.37485c-36.5641,-29.15309 -34.14849,-57.59439 -29.28922,-63.86118c15.05845,-19.42039 10.62772,12.25447 47.19182,41.40756c36.5641,29.15309 67.61014,19.04231 51.40865,38.82845z" fill="#ababab"/><path d="M388.29394,297.4545c13.06437,-16.38546 51.81185,-47.6596 56.77061,-43.7059c4.95876,3.9537 -12.64149,46.55484 -25.70587,62.9403c-13.06437,16.38546 -44.12912,-2.84894 -31.06477,-19.23438z" fill="#ababab"/><path d="M421.89847,315.64659c-0.96612,1.21175 -19.12554,10.17187 -27.65821,3.36865c-8.53268,-6.80322 -4.20754,-26.79359 -3.24139,-28.00536c0.96612,-1.21175 31.86574,23.42499 30.8996,24.63671z" fill="#1d1d1d"/><g><path d="M508.85381,243.1856c-4.34048,5.4439 -22.69106,-1.9687 -40.98719,-16.55649c-18.29611,-14.58776 -29.60938,-30.82662 -25.26892,-36.27049c0.71796,-0.90044 3.22029,-3.25879 6.72658,-1.44879c13.54536,6.99224 46.07313,33.28509 57.68205,46.86367c3.55334,4.1562 2.69641,6.34733 1.84746,7.41207z" fill="#101010"/><path d="M507.86799,243.70692c-9.33007,11.70186 -25.78357,29.319 -44.38669,27.30136c-13.20779,-1.43247 -29.22503,-19.75721 -36.82048,-25.81319c-18.29366,-14.5858 -0.99424,-34.29816 14.95997,-54.30809c5.7434,-7.20344 5.79692,3.724 18.39445,10.46885c10.54796,5.64749 20.24443,19.80951 30.88577,25.13831c11.95324,5.98575 22.36883,10.43769 16.96701,17.21273z" fill="#0d0d0d"/></g><g><path d="M488.84859,286.34215c-1.01713,1.27572 -20.59557,-12.64292 -43.72965,-31.08808c-23.13408,-18.44516 -41.06343,-34.43204 -40.0463,-35.70776c1.01713,-1.27572 20.59557,12.64292 43.72965,31.08808c23.13408,18.44516 41.06343,34.43204 40.0463,35.70776z" fill="#101010"/><path d="M488.2585,286.178c-2.18633,2.74215 -7.55785,5.66182 -24.64562,-4.95959c-12.13192,-7.54095 -35.17324,-27.2136 -44.7772,-34.87095c-23.13101,-18.44271 -18.08057,-22.26736 -14.34197,-26.95638c1.34586,-1.688 9.11759,9.07241 23.38963,19.6786c11.95006,8.88058 25.73333,21.98726 37.60403,30.71248c13.33417,9.80087 24.03695,14.80821 22.77113,16.39585z" fill="#0d0d0d"/></g><path d="M482.80088,270.55089c-0.82489,1.03462 -2.61904,4.89088 -5.83299,3.71175c-2.72211,-0.99872 -6.03452,-3.89285 -10.39638,-6.79806c-4.47171,-2.97839 -10.01759,-6.00445 -14.79325,-9.98175c-2.41114,-2.0081 -3.33242,-4.66024 -5.79765,-6.62577c-3.72079,-2.96666 -8.71858,-5.64233 -12.81631,-9.23353c-3.55873,-3.11885 -6.24495,-7.17118 -9.24171,-9.67509c-3.72235,-3.11019 -6.59649,-4.18991 -8.26634,-6.4454c-2.81563,-3.80307 1.93212,-4.91026 2.92491,-6.15546c0.83241,-1.04403 2.63252,-5.83313 5.89394,-4.62493c3.02154,1.11936 8.13865,3.27694 12.76847,7.44538c3.3742,3.03796 6.01445,7.73996 9.73233,10.95627c2.883,2.49405 5.4545,3.54832 8.42551,5.91715c2.97639,2.37312 5.2434,5.4787 8.68193,7.79684c4.04778,2.7289 9.05262,4.41031 12.96201,6.76247c5.4903,3.30335 9.47701,7.10577 11.36912,9.77763c2.43522,3.43879 -4.68458,6.00731 -5.61363,7.17252z" fill="#801d1d"/></g><g stroke-width="0" stroke-linecap="butt"><path d="M359.03849,247.42492c14.45652,-19.36061 41.87073,-23.33616 61.23134,-8.87964c19.36061,14.45652 23.33616,41.87073 8.87964,61.23134c-14.45652,19.36061 -41.87073,23.33616 -61.23134,8.87964c-19.36061,-14.45652 -23.33616,-41.87073 -8.87964,-61.23134z" fill="url(#color-46)" stroke="url(#color-47)"/><path d="M388.65731,269.33595c2.33696,-3.12972 6.76858,-3.77239 9.8983,-1.43543c3.12972,2.33696 3.77239,6.76858 1.43543,9.8983c-2.33696,3.12972 -6.76858,3.77239 -9.8983,1.43543c-3.12972,-2.33696 -3.77239,-6.76858 -1.43543,-9.8983zM391.23673,277.61953c2.18862,1.63424 5.28765,1.18482 6.92189,-1.0038c1.63424,-2.18862 1.18482,-5.28765 -1.0038,-6.92189c-2.18862,-1.63424 -5.28765,-1.18482 -6.92189,1.0038c-1.63424,2.18862 -1.18482,5.28765 1.0038,6.92189z" fill="#ffffff" stroke="url(#color-48)"/></g><g stroke-width="0" stroke-linecap="butt"><path d="M400.60826,280.337c14.45652,-19.36061 41.87073,-23.33616 61.23134,-8.87964c19.36061,14.45652 23.33616,41.87073 8.87964,61.23134c-14.45652,19.36061 -41.87073,23.33616 -61.23134,8.87964c-19.36061,-14.45652 -23.33616,-41.87073 -8.87964,-61.23134z" fill="url(#color-49)" stroke="url(#color-50)"/><path d="M430.22707,302.24803c2.33696,-3.12972 6.76858,-3.77239 9.8983,-1.43543c3.12972,2.33696 3.77239,6.76858 1.43543,9.8983c-2.33696,3.12972 -6.76858,3.77238 -9.8983,1.43543c-3.12972,-2.33696 -3.77239,-6.76857 -1.43543,-9.89829zM432.80649,310.5316c2.18862,1.63423 5.28765,1.18482 6.92188,-1.0038c1.63423,-2.18862 1.18482,-5.28765 -1.00379,-6.92189c-2.18862,-1.63423 -5.28766,-1.18482 -6.92189,1.0038c-1.63423,2.18862 -1.18482,5.28765 1.0038,6.92189z" fill="#ffffff" stroke="url(#color-51)"/></g></g></g></g></svg>