<svg version="1.1" xmlns="http://www.w3.org/2000/svg" xmlns:xlink="http://www.w3.org/1999/xlink" width="181.68984" height="271.15081" viewBox="0,0,181.68984,271.15081"><g transform="translate(-224.64334,-44.4246)"><g data-paper-data="{&quot;isPaintingLayer&quot;:true}" fill-rule="nonzero" stroke="#000000" stroke-linecap="butt" stroke-linejoin="miter" stroke-miterlimit="10" stroke-dasharray="" stroke-dashoffset="0" style="mix-blend-mode: normal"><g data-paper-data="{&quot;index&quot;:null}" stroke-width="0"><path d="M265.54113,159.00751c1.15855,3.39279 -0.65267,7.08237 -4.04544,8.24092c-3.39279,1.15855 -7.08237,-0.65266 -8.24092,-4.04544c-1.15855,-3.39279 0.65266,-7.08237 4.04544,-8.24092c3.39279,-1.15855 7.08237,0.65266 8.24092,4.04544z" fill="#646464"/><path d="M241.84713,129.57201c1.99119,-0.82203 3.68065,-1.30091 6.22131,5.02829c2.54067,6.32921 0.79443,6.66663 -1.19677,7.48865c-1.99119,0.82203 -3.33194,1.75902 -5.8726,-4.57017c-2.54067,-6.32921 -1.14314,-7.12474 0.84806,-7.94677z" data-paper-data="{&quot;index&quot;:null}" fill="#3a3a3a"/><path d="M232.99345,130.06216c0.65094,-2.0535 1.37065,-3.65525 7.85143,-1.53083c6.48078,2.12442 5.61624,3.6787 4.96529,5.73219c-0.65094,2.0535 -0.79557,3.68279 -7.27636,1.55837c-6.48078,-2.12442 -6.19131,-3.70625 -5.54037,-5.75975z" data-paper-data="{&quot;index&quot;:null}" fill="#3a3a3a"/><path d="M226.39185,146.78045c1.80897,-1.16971 3.38348,-1.9472 7.03046,3.8159c3.64698,5.7631 1.99096,6.41179 0.18198,7.58149c-1.80897,1.16971 -2.95742,2.33443 -6.6044,-3.42867c-3.64698,-5.7631 -2.41702,-6.79902 -0.60805,-7.96873z" data-paper-data="{&quot;index&quot;:null}" fill="#3a3a3a"/><path d="M246.19171,157.87719c0.50382,1.47543 -0.18587,3.04649 -1.54048,3.50905c-1.3546,0.46256 -2.86116,-0.35852 -3.36498,-1.83396c-0.50382,-1.47543 0.18587,-3.04649 1.54048,-3.50905c1.3546,-0.46256 2.86116,0.35852 3.36498,1.83396z" fill="#646464"/><path d="M229.75242,155.27095c0.60948,-2.06618 1.2968,-3.6821 7.81904,-1.68854c6.52224,1.99356 5.68914,3.56491 5.07966,5.6311c-0.60948,2.06618 -0.72129,3.69807 -7.24352,1.70451c-6.52224,-1.99356 -6.26466,-3.58089 -5.65517,-5.64707z" data-paper-data="{&quot;index&quot;:null}" fill="#3a3a3a"/><path d="M248.80801,125.71705c1.99119,-0.82203 3.68065,-1.30091 6.22131,5.02829c2.54067,6.32921 0.79442,6.66663 -1.19677,7.48865c-1.99119,0.82203 -3.33194,1.75903 -5.8726,-4.57017c-2.54067,-6.32921 -1.14313,-7.12474 0.84806,-7.94677z" data-paper-data="{&quot;index&quot;:null}" fill="#3a3a3a"/><path d="M239.95432,126.2072c0.65094,-2.0535 1.37064,-3.65525 7.85143,-1.53083c6.48079,2.12442 5.61624,3.6787 4.96529,5.7322c-0.65094,2.0535 -0.79557,3.68279 -7.27636,1.55837c-6.48079,-2.12442 -6.19131,-3.70625 -5.54037,-5.75975z" data-paper-data="{&quot;index&quot;:null}" fill="#3a3a3a"/><path d="M256.33762,123.11981c1.99119,-0.82203 3.68065,-1.30091 6.22131,5.02829c2.54067,6.32921 0.79442,6.66663 -1.19677,7.48865c-1.99119,0.82203 -3.33194,1.75903 -5.8726,-4.57017c-2.54067,-6.32921 -1.14313,-7.12474 0.84806,-7.94677z" data-paper-data="{&quot;index&quot;:null}" fill="#3a3a3a"/><path d="M247.48394,123.60996c0.65094,-2.0535 1.37064,-3.65525 7.85143,-1.53083c6.48079,2.12442 5.61624,3.6787 4.96529,5.7322c-0.65094,2.0535 -0.79557,3.68279 -7.27636,1.55837c-6.48079,-2.12442 -6.19131,-3.70625 -5.54037,-5.75975z" data-paper-data="{&quot;index&quot;:null}" fill="#3a3a3a"/><path d="M244.33104,164.75872c-2.88779,-1.85598 1.58026,-7.75677 -0.91709,-15.07022c-0.70877,-2.07561 -0.53433,-6.76328 -0.28123,-8.51263c0.81166,-5.61014 17.08996,-11.50727 19.94852,-10.00309c2.13743,1.12473 3.431,2.80147 5.9602,10.20817c5.91171,17.3123 -0.73179,18.08876 -9.44426,21.51576c-5.65382,2.22389 -11.31798,4.39949 -15.26612,1.86201z" data-paper-data="{&quot;index&quot;:null}" fill="#363636"/></g><path d="" fill="#ffffff" stroke-width="0"/><path d="" fill="#ffffff" stroke-width="0"/><path d="" data-paper-data="{&quot;index&quot;:null}" fill="#ffffff" stroke-width="0"/><path d="" data-paper-data="{&quot;index&quot;:null}" fill="#000000" stroke-width="0"/><path d="M377.99004,281.30813c-4.91117,-0.03164 -8.86681,-4.03858 -8.83517,-8.94975c0.03164,-4.91117 4.03859,-8.86681 8.94976,-8.83517c4.91117,0.03164 8.86681,4.03859 8.83517,8.94976c-0.03164,4.91117 -4.03859,8.8668 -8.94976,8.83516z" data-paper-data="{&quot;index&quot;:null}" fill="#646464" stroke-width="0"/><path d="M336.86779,272.31596c0.03164,-4.91117 4.03859,-8.86681 8.94976,-8.83517c4.91117,0.03164 8.86681,4.03859 8.83517,8.94976c-0.03164,4.91117 -4.03859,8.8668 -8.94976,8.83516c-4.91117,-0.03164 -8.86681,-4.03858 -8.83517,-8.94975z" data-paper-data="{&quot;index&quot;:null}" fill="#646464" stroke-width="0"/><g fill="#3e3e3e" stroke-width="0"><path d="M355.21324,281.75756l-5.9318,-18.91686l36.03231,0.23215c0,0 -11.84311,18.80234 -17.12888,18.76828c-4.61624,-0.02974 -12.97163,-0.08357 -12.97163,-0.08357z" data-paper-data="{&quot;index&quot;:null}"/><path d="M355.50152,281.75941c-5.28576,-0.03406 -16.88562,-18.98743 -16.88562,-18.98743l36.03231,0.23215l-6.17505,18.83886c0,0 -8.3554,-0.05383 -12.97163,-0.08357z" data-paper-data="{&quot;index&quot;:null}"/></g><path d="M324.47041,162.33497c4.51527,-3.86683 11.3103,-3.34118 15.17714,1.17409c3.86683,4.51527 3.34118,11.3103 -1.17409,15.17714c-4.51527,3.86683 -11.3103,3.34118 -15.17714,-1.17409c-3.86683,-4.51527 -3.34118,-11.3103 1.17409,-15.17714z" fill="#646464" stroke-width="0"/><path d="M292.26164,186.84412c3.23709,-2.77222 8.10861,-2.39537 10.88084,0.84173c2.77222,3.23709 2.39536,8.10862 -0.84173,10.88084c-3.23709,2.77222 -8.10862,2.39536 -10.88084,-0.84173c-2.77222,-3.23709 -2.39537,-8.10861 0.84173,-10.88084z" fill="#646464" stroke-width="0"/><path d="M287.79756,172.52141c14.41879,18.27714 9.05389,20.96827 2.81387,25.89102c-6.24003,4.92274 -10.54912,9.86341 -24.96792,-8.41374c-14.4188,-18.27715 -9.78742,-22.80929 -3.54739,-27.73204c6.24003,-4.92274 11.28265,-8.02239 25.70145,10.25476z" data-paper-data="{&quot;index&quot;:null}" fill="#363636" stroke-width="0"/><path d="M295.15042,194.90172c-5.1699,-6.03684 -8.83709,-11.37928 8.84493,-26.52201c17.68202,-15.14272 20.95399,-9.46182 26.12389,-3.42497c5.1699,6.03684 9.91289,9.71494 -7.76913,24.85766c-17.68202,15.14272 -22.02979,11.12617 -27.19969,5.08932z" data-paper-data="{&quot;index&quot;:null}" fill="#363636" stroke-width="0"/><g fill="#343434" stroke-width="0"><path d="M391.61847,270.42575c-0.01747,2.71149 -13.34048,4.82385 -29.75776,4.71808c-16.41729,-0.10577 -29.71196,-2.38963 -29.69449,-5.10112c0.01747,-2.71149 13.34048,-4.82384 29.75776,-4.71807c16.41729,0.10577 29.71196,2.38962 29.69449,5.10111z"/><g><g><path d="M332.16407,270.04191l-4.2935,-49.73772c0,0 -2.22534,-6.59956 -2.95044,-12.19006c-0.63408,-4.88869 -1.54357,-42.97315 7.54694,-44.35327c0.1621,-0.02461 16.42021,0.83838 33.55884,1.75739c19.20838,1.03 17.35256,105.36028 5.84047,105.17222c-12.62428,-0.20622 -39.70231,-0.64855 -39.70231,-0.64855z"/></g><g data-paper-data="{&quot;index&quot;:null}"><path d="M351.9063,270.56186c-11.51356,0.0397 -12.0249,-104.30583 7.19516,-105.08822c17.14905,-0.6981 33.41693,-1.35153 33.5787,-1.32483c9.07197,1.49714 7.67183,39.56673 6.97481,44.44684c-0.79707,5.58069 -3.10728,12.15103 -3.10728,12.15103l-4.93402,49.67827c0,0 -27.08147,0.09339 -39.70737,0.13692z"/></g></g><path d="M394.97681,166.32688c-0.02391,3.71033 -14.55694,6.62464 -32.46043,6.50929c-17.9035,-0.11535 -32.39777,-3.21668 -32.37386,-6.92701c0.02391,-3.71033 14.55693,-6.62464 32.46043,-6.50929c17.9035,0.11535 32.39777,3.21668 32.37386,6.92701z"/></g><path d="M376.13079,162.99405c-0.01094,1.69824 -6.08656,3.03587 -13.57028,2.98765c-7.48371,-0.04822 -13.5416,-1.46401 -13.53066,-3.16226c0.01094,-1.69824 6.08657,-3.03586 13.57028,-2.98764c7.48371,0.04822 13.5416,1.46401 13.53066,3.16225z" fill="#000000" stroke-width="0"/><g fill="#810000" stroke-width="0"><path d="M343.31028,260.90174c0,0 -15.34068,9.28808 -14.94594,-20.46292c0.33964,-25.59744 -4.82611,-56.08142 -3.9532,-66.70279c0.37477,-4.56012 4.02269,-11.20095 10.16474,-13.48787c8.5241,-3.17385 20.2362,-1.06251 20.2362,-1.06251c0,0 -6.7438,0.69317 -6.67351,6.34899c0.21547,17.34214 5.2347,49.53047 1.30861,48.86756c-4.63211,-0.78213 -6.13689,46.49956 -6.13689,46.49956z"/><path d="M387.01618,228.64453c-3.9343,0.61227 -19.3182,15.64075 -19.3182,15.64075c0,0 8.90791,-61.22649 9.34683,-78.56441c0.14314,-5.65445 -6.59116,-6.43445 -6.59116,-6.43445c0,0 11.73833,-1.96024 20.22082,1.32318c6.11207,2.36588 9.67412,9.05315 9.9901,13.61773c0.73598,10.63174 -4.93728,74.01187 -4.93728,74.01187c0,0 1.73729,9.72101 -2.90451,10.44339z" data-paper-data="{&quot;index&quot;:null}"/></g><g fill="#810000" stroke-width="0" font-family="&quot;Helvetica Neue&quot;, Helvetica, Arial, sans-serif" font-weight="400" font-size="16" text-anchor="start"/><g><path d="M401.9004,123.85206c-8.17163,11.85569 -24.44715,17.02773 -29.74152,15.04594c-13.35052,-4.99737 -29.20615,-37.32643 -28.93232,-50.88323c0.11648,-5.76745 15.90238,-0.46636 30.27764,-4.1776c19.41484,-5.01231 23.15748,-15.19408 23.15748,-15.19408c0,0 17.67302,37.16889 5.23874,55.20898z" data-paper-data="{&quot;index&quot;:null}" fill="#2f2f2f" stroke-width="0"/><path d="M399.83158,121.90142c-7.36453,10.68471 -22.03252,15.3459 -26.80397,13.55985c-12.03189,-4.50378 -26.32147,-33.63971 -26.07469,-45.85751c0.10498,-5.19779 14.3317,-0.42031 27.28713,-3.76499c17.49724,-4.51723 22.29168,-13.76221 22.29168,-13.76221c0,0 0.36115,0.83569 0.92545,2.30721c3.0121,7.85454 11.81239,33.8247 2.37441,47.51765z" data-paper-data="{&quot;index&quot;:null}" fill="#252525" stroke-width="0"/><path d="M334.07205,88.50611c14.84447,0.25148 28.95585,-8.58959 30.41603,-3.00883c3.43224,13.11799 -4.43496,48.25595 -16.24924,56.23295c-4.68516,3.16341 -21.71849,1.9353 -32.43289,-7.68418c-4.70908,-4.22785 -8.68391,-10.51995 -11.95579,-17.33109c1.12447,-0.74102 2.11588,-1.69566 2.9196,-2.94932c8.51861,-13.28745 12.92333,-17.78959 13.92893,-26.46309c4.38029,0.66901 8.92544,1.1282 13.37337,1.20355z" data-paper-data="{&quot;index&quot;:null}" fill="#2f2f2f" stroke-width="0"/><path d="M333.82401,90.62424c13.37829,0.22665 26.09589,-7.74119 27.41185,-2.71164c3.09324,11.82233 -3.99692,43.48973 -14.64431,50.67885c-4.2224,2.85096 -19.57336,1.74415 -29.22951,-6.92521c-4.5281,-4.06537 -8.3029,-10.24853 -11.35865,-16.85807c0.27113,-0.3225 0.52707,-0.66925 0.76636,-1.04251c7.83386,-12.21938 12.18862,-17.00904 13.62017,-24.44563c4.36782,0.72071 8.95563,1.22835 13.43408,1.30422z" data-paper-data="{&quot;index&quot;:null}" fill="#252525" stroke-width="0"/><g fill="#646464" stroke-width="0"><path d="M352.15679,162.0494l-0.87509,-7.39065l20.54649,-2.43281l0.87509,7.39065z"/><path d="M372.70327,159.6166c0.1434,1.21107 -4.33985,2.73743 -10.0136,3.40923c-5.67376,0.6718 -10.38948,0.23464 -10.53288,-0.97643c-0.1434,-1.21107 4.33985,-2.73743 10.01359,-3.40923c5.67376,-0.6718 10.38949,-0.23464 10.53289,0.97643z"/><path d="M371.82818,152.22594c0.1434,1.21107 -4.33985,2.73743 -10.0136,3.40923c-5.67376,0.6718 -10.38948,0.23464 -10.53288,-0.97643c-0.1434,-1.21107 4.33985,-2.73743 10.01359,-3.40923c5.67376,-0.6718 10.38949,-0.23464 10.53289,0.97643z"/></g><g fill="#343434" stroke-width="0"><path d="M321.20829,123.5781c-2.64009,-22.29709 12.1939,-42.38229 33.13263,-44.86154c20.93873,-2.47925 40.05313,13.58629 42.69322,35.88338c2.64009,22.29709 -12.19389,42.38229 -33.13262,44.86154c-15.13106,1.79159 -41.32228,-4.63545 -43.62656,-19.67255c-1.25249,-8.17343 1.66559,-10.0264 0.93333,-16.21084z"/><path d="M398.89612,130.47981c1.27114,15.15944 -22.69489,27.52534 -37.82596,29.31693c-20.93873,2.47925 -40.05314,-13.58629 -42.69323,-35.88338c-2.64009,-22.29709 12.1939,-42.38229 33.13263,-44.86154c20.93873,-2.47925 40.05313,13.58629 42.69322,35.88338c0.73227,6.18443 4.00241,7.3047 4.69333,15.54461z" data-paper-data="{&quot;index&quot;:null}"/></g><g fill="#2f2f2f" stroke-width="0"><path d="M323.46198,123.88299c-2.33506,-19.72098 11.7728,-37.60258 31.51079,-39.93965c19.73799,-2.33708 37.63174,11.75537 39.9668,31.47635c2.33506,19.72098 -11.77279,37.60258 -31.51079,39.93965c-14.26337,1.68885 -38.88789,-3.82284 -40.956,-17.11907c-1.12413,-7.22718 1.63687,-8.88737 0.9892,-14.35728z"/><path d="M396.58539,129.46497c1.09422,13.41154 -21.56222,24.52154 -35.82558,26.21039c-19.73799,2.33708 -37.63174,-11.75536 -39.9668,-31.47635c-2.33506,-19.72098 11.7728,-37.60258 31.51079,-39.93965c19.73799,-2.33708 37.63175,11.75537 39.96681,31.47635c0.64766,5.46991 3.72003,6.43942 4.31479,13.72926z" data-paper-data="{&quot;index&quot;:null}"/></g><path d="M325.08117,126.30482c-1.23373,-10.41958 4.83821,-14.60214 12.82723,-15.54808c7.98902,-0.94594 14.86984,1.70294 16.10357,12.12253c1.23373,10.41958 -4.86529,14.37345 -12.85431,15.31939c-7.98902,0.94594 -14.84276,-1.47426 -16.07649,-11.89384z" data-paper-data="{&quot;index&quot;:null}" fill="#282828" stroke-width="0"/><path d="M334.10819,123.54417c-0.8968,-7.57401 2.99629,-10.55268 8.16131,-11.16424c5.16502,-0.61156 9.64609,1.37556 10.54289,8.94957c0.8968,7.57401 -3.01598,10.38646 -8.181,10.99802c-5.16502,0.61156 -9.62641,-1.20933 -10.52321,-8.78335z" data-paper-data="{&quot;index&quot;:null}" fill="#ffffff" stroke-width="0"/><path d="M335.05579,123.42341c-0.80584,-6.80576 2.69237,-9.48228 7.33349,-10.03181c4.64111,-0.54953 8.66765,1.23602 9.47349,8.04178c0.80584,6.80576 -2.71005,9.33291 -7.35117,9.88244c-4.64111,0.54953 -8.64997,-1.08665 -9.4558,-7.89241z" data-paper-data="{&quot;index&quot;:null}" fill="#000000" stroke-width="0"/><path d="M336.05544,123.29603c-0.70988,-5.99533 2.37176,-8.35314 6.46022,-8.83723c4.08846,-0.48409 7.63552,1.08884 8.34539,7.08417c0.70988,5.99533 -2.38734,8.22156 -6.4758,8.70565c-4.08846,0.48409 -7.61994,-0.95726 -8.32981,-6.95259z" data-paper-data="{&quot;index&quot;:null}" fill="#ffffff" stroke-width="0"/><g fill="#000000" stroke-width="0"><path d="M362.79639,156.59213c0.03554,0.37171 0.00764,0.73068 -0.56846,0.9774c-0.42828,0.18342 -1.99834,-0.35061 -2.54301,-0.36421c-0.75323,-0.01881 -1.62442,0.19752 -2.38042,0.28703c-1.10433,0.13076 -2.34502,0.42956 -3.44961,0.40328c-2.27575,-0.05413 -4.80353,-0.94808 -7.07375,-1.31519c-1.43308,-0.23261 -3.12712,-0.16271 -4.47963,-0.55845c-2.41195,-0.70573 -4.50825,-2.39517 -6.47696,-3.71805c-2.38482,-1.61517 -4.83164,-3.25569 -6.49467,-5.48322c-0.71744,-0.96097 -1.80185,-1.72872 -1.94691,-2.95382c-1.26564,-2.29289 -2.16604,-5.10355 -2.46797,-7.65351c0,0 -0.0468,-0.39522 0.41347,-0.44972c0.21704,-0.0257 0.34214,0.04861 0.41374,0.13431c0.1525,0.06332 0.22392,0.1978 0.22392,0.1978c1.52098,2.94063 4.0751,4.40116 7.3753,5.79475c1.31192,0.80036 2.71582,2.08612 4.16102,2.64401c2.47562,0.95569 5.82087,-0.34832 8.38945,-0.65245c2.45402,-0.29057 4.07088,0.6491 6.32162,1.0053c1.74557,0.27625 3.94303,-0.2169 5.72585,-0.42799c0.35681,-0.04225 0.64706,-0.06009 0.94478,-0.13176l0.12385,-0.10779c0.68684,-0.28767 0.98435,-0.39694 1.7707,-0.42175c0.14857,0.21011 0.28086,0.42339 0.39874,0.63947"/><path d="M360.17754,144.67861c0.06947,-0.27957 0.15883,-0.56001 0.27117,-0.84144c0.7704,-0.15952 1.08522,-0.12274 1.82023,-0.00343l0.1456,0.07589c0.30621,0.00017 0.59263,-0.05028 0.94943,-0.09253c1.78281,-0.21109 4.03467,-0.24476 5.66747,-0.92103c2.10532,-0.87197 3.45803,-2.16325 5.91204,-2.45382c2.56858,-0.30413 6.12587,0.18257 8.30985,-1.32483c1.27494,-0.87998 2.33976,-2.45804 3.42849,-3.54265c2.88348,-2.12579 5.02589,-4.1424 5.81808,-7.35692c0,0 0.03803,-0.14744 0.17153,-0.24463c0.04961,-0.10006 0.1539,-0.20151 0.37095,-0.22721c0.46026,-0.0545 0.50706,0.34072 0.50706,0.34072c0.30193,2.54996 0.08281,5.49318 -0.61236,8.01824c0.14506,1.2251 -0.73008,2.22488 -1.20325,3.32681c-1.09683,2.55432 -3.09288,4.7209 -5.03455,6.84835c-1.60534,1.74606 -3.24913,3.87834 -5.42957,5.12783c-1.2227,0.70066 -2.88621,1.02832 -4.22533,1.58917c-2.12172,0.88713 -4.37085,2.34669 -6.57101,2.93079c-1.0679,0.28351 -2.34408,0.28273 -3.4484,0.41348c-0.75599,0.08951 -1.65362,0.08261 -2.38163,0.27682c-0.52642,0.14043 -1.92835,1.02635 -2.38763,0.94802c-0.53663,-0.09152 -0.69086,-0.362 -0.75636,-0.67381" data-paper-data="{&quot;index&quot;:null}"/></g><path d="M345.43674,166.53364c0,0 -3.99612,-2.71711 -7.12093,-6.34667c-0.65908,-0.76554 -3.42664,-4.28921 -4.63874,-7.45376c-2.29634,-5.99535 -4.62923,-12.75041 -4.62923,-12.75041c0,0 8.37105,5.10731 10.20322,4.89037c1.80085,-0.21323 8.66762,-0.83571 8.66762,-0.83571c0,0 -5.47088,6.63539 -5.82129,10.61365c-0.36693,4.16591 3.33935,11.88254 3.33935,11.88254z" fill="#ffffff" stroke-width="0"/><g data-paper-data="{&quot;index&quot;:null}" fill="#ffffff" stroke-width="0"><g><path d="M355.72463,144.59472l0.21274,1.79675c0,0 -1.03755,0.12285 -1.4032,0.16615c-0.23463,0.02778 -0.62124,-0.2985 -0.64901,-0.53308c-0.03915,-0.33068 -0.14152,-1.19525 -0.14152,-1.19525z"/><path d="M356.40773,144.51384c0,0 0.10237,0.86457 0.14152,1.19525c0.02778,0.23458 -0.27194,0.64213 -0.50657,0.66991c-0.36566,0.0433 -1.40321,0.16615 -1.40321,0.16615l-0.21274,-1.79675z" data-paper-data="{&quot;index&quot;:null}"/></g><g><path d="M358.57511,144.25721l0.21274,1.79675c0,0 -1.03755,0.12285 -1.4032,0.16615c-0.23463,0.02778 -0.62124,-0.2985 -0.64901,-0.53308c-0.03915,-0.33068 -0.14152,-1.19525 -0.14152,-1.19525z"/><path d="M359.2582,144.17633c0,0 0.10237,0.86457 0.14152,1.19525c0.02778,0.23458 -0.27194,0.64213 -0.50657,0.66991c-0.36566,0.0433 -1.4032,0.16615 -1.4032,0.16615l-0.21274,-1.79675z" data-paper-data="{&quot;index&quot;:null}"/></g><g><path d="M361.33238,143.93073l0.21274,1.79675c0,0 -1.03755,0.12285 -1.4032,0.16615c-0.23463,0.02778 -0.62124,-0.2985 -0.64901,-0.53308c-0.03915,-0.33068 -0.14152,-1.19525 -0.14152,-1.19525z"/><path d="M362.01549,143.84985c0,0 0.10237,0.86457 0.14152,1.19525c0.02778,0.23458 -0.27194,0.64213 -0.50657,0.66991c-0.36566,0.0433 -1.4032,0.16615 -1.4032,0.16615l-0.21274,-1.79675z" data-paper-data="{&quot;index&quot;:null}"/></g><g><path d="M364.08967,143.60426l0.21274,1.79675c0,0 -1.03755,0.12285 -1.4032,0.16615c-0.23463,0.02778 -0.62124,-0.2985 -0.64901,-0.53308c-0.03915,-0.33068 -0.14152,-1.19525 -0.14152,-1.19525z"/><path d="M364.77275,143.52338c0,0 0.10237,0.86457 0.14152,1.19525c0.02778,0.23458 -0.27194,0.64213 -0.50657,0.66991c-0.36566,0.0433 -1.4032,0.16615 -1.4032,0.16615l-0.21274,-1.79675z" data-paper-data="{&quot;index&quot;:null}"/></g><g><path d="M366.84693,143.27778l0.21274,1.79675c0,0 -1.03755,0.12285 -1.4032,0.16615c-0.23463,0.02778 -0.62124,-0.2985 -0.64901,-0.53308c-0.03915,-0.33068 -0.14152,-1.19525 -0.14152,-1.19525z"/><path d="M367.53006,143.1969c0,0 0.10237,0.86457 0.14152,1.19525c0.02778,0.23458 -0.27194,0.64213 -0.50657,0.66991c-0.36566,0.0433 -1.4032,0.16615 -1.4032,0.16615l-0.21274,-1.79675z" data-paper-data="{&quot;index&quot;:null}"/></g></g><g fill="#ffffff" stroke-width="0"><g><path d="M355.29994,157.97307c0,0 -0.10237,-0.86457 -0.14152,-1.19525c-0.02778,-0.23458 0.27194,-0.64213 0.50657,-0.66991c0.36566,-0.0433 1.4032,-0.16615 1.4032,-0.16615l0.21274,1.79675z"/><path d="M355.98305,157.89219l-0.21274,-1.79675c0,0 1.03755,-0.12285 1.4032,-0.16615c0.23463,-0.02778 0.62124,0.2985 0.64901,0.53308c0.03915,0.33068 0.14152,1.19525 0.14152,1.19525z" data-paper-data="{&quot;index&quot;:null}"/></g><g><path d="M358.15041,157.63556c0,0 -0.10237,-0.86457 -0.14152,-1.19525c-0.02778,-0.23458 0.27194,-0.64213 0.50657,-0.66991c0.36566,-0.0433 1.4032,-0.16615 1.4032,-0.16615l0.21274,1.79675z"/><path d="M358.83349,157.55468l-0.21274,-1.79675c0,0 1.03755,-0.12285 1.4032,-0.16615c0.23463,-0.02778 0.62124,0.2985 0.64901,0.53308c0.03915,0.33068 0.14152,1.19525 0.14152,1.19525z" data-paper-data="{&quot;index&quot;:null}"/></g><g><path d="M360.90767,157.30909c0,0 -0.10237,-0.86457 -0.14152,-1.19525c-0.02778,-0.23458 0.27194,-0.64213 0.50657,-0.66991c0.36566,-0.0433 1.4032,-0.16615 1.4032,-0.16615l0.21274,1.79675z"/><path d="M361.5908,157.2282l-0.21274,-1.79675c0,0 1.03755,-0.12285 1.4032,-0.16615c0.23463,-0.02778 0.62124,0.2985 0.64901,0.53308c0.03915,0.33068 0.14152,1.19525 0.14152,1.19525z" data-paper-data="{&quot;index&quot;:null}"/></g><g><path d="M363.66497,156.98261c0,0 -0.10237,-0.86457 -0.14152,-1.19525c-0.02778,-0.23458 0.27194,-0.64213 0.50657,-0.66991c0.36566,-0.0433 1.4032,-0.16615 1.4032,-0.16615l0.21274,1.79675z"/><path d="M364.34805,156.90173l-0.21274,-1.79675c0,0 1.03755,-0.12285 1.4032,-0.16615c0.23463,-0.02778 0.62124,0.2985 0.64901,0.53308c0.03915,0.33068 0.14152,1.19525 0.14152,1.19525z" data-paper-data="{&quot;index&quot;:null}"/></g><g><path d="M366.42223,156.65614c0,0 -0.10237,-0.86457 -0.14152,-1.19525c-0.02778,-0.23458 0.27194,-0.64213 0.50657,-0.66991c0.36566,-0.0433 1.4032,-0.16615 1.4032,-0.16615l0.21274,1.79675z"/><path d="M367.10535,156.57525l-0.21274,-1.79675c0,0 1.03755,-0.12285 1.4032,-0.16615c0.23463,-0.02778 0.62124,0.2985 0.64901,0.53308c0.03915,0.33068 0.14152,1.19525 0.14152,1.19525z" data-paper-data="{&quot;index&quot;:null}"/></g></g><path d="M373.00899,141.06665c0,0 6.82226,-0.99837 8.62311,-1.2116c1.83217,-0.21694 8.779,-7.13796 8.779,-7.13796c0,0 -0.53346,5.49269 -1.22788,11.14435c-3.68836,0.31801 -7.4176,1.39338 -10.23649,2.69571c-2.46362,-2.87359 -5.93775,-5.49049 -5.93775,-5.49049z" data-paper-data="{&quot;index&quot;:null}" fill="#ffffff" stroke-width="0"/><g fill="none" stroke-width="1.5"><path d="M362.79639,156.59213c0.03554,0.37171 0.00764,0.73068 -0.56846,0.9774c-0.42828,0.18342 -1.99834,-0.35061 -2.54301,-0.36421c-0.75323,-0.01881 -1.62442,0.19752 -2.38042,0.28703c-1.10433,0.13076 -2.34502,0.42956 -3.44961,0.40328c-2.27575,-0.05413 -4.80353,-0.94808 -7.07375,-1.31519c-1.43308,-0.23261 -3.12712,-0.16271 -4.47963,-0.55845c-2.41195,-0.70573 -4.50825,-2.39517 -6.47696,-3.71805c-2.38482,-1.61517 -4.83164,-3.25569 -6.49467,-5.48322c-0.71744,-0.96097 -1.80185,-1.72872 -1.94691,-2.95382c-1.26564,-2.29289 -2.16604,-5.10355 -2.46797,-7.65351c0,0 -0.0468,-0.39522 0.41347,-0.44972c0.21704,-0.0257 0.34214,0.04861 0.41374,0.13431c0.1525,0.06332 0.22392,0.1978 0.22392,0.1978c1.52098,2.94063 4.0751,4.40116 7.3753,5.79475c1.31192,0.80036 2.71582,2.08612 4.16102,2.64401c2.47562,0.95569 5.82087,-0.34832 8.38945,-0.65245c2.45402,-0.29057 4.07088,0.6491 6.32162,1.0053c1.74557,0.27625 3.94303,-0.2169 5.72585,-0.42799c0.35681,-0.04225 0.64706,-0.06009 0.94478,-0.13176l0.12385,-0.10779c0.68684,-0.28767 0.98435,-0.39694 1.7707,-0.42175c0.14857,0.21011 0.28086,0.42339 0.39874,0.63947"/><path d="M360.17754,144.67861c0.06947,-0.27957 0.15883,-0.56001 0.27117,-0.84144c0.7704,-0.15952 1.08522,-0.12274 1.82023,-0.00343l0.1456,0.07589c0.30621,0.00017 0.59263,-0.05028 0.94943,-0.09253c1.78281,-0.21109 4.03467,-0.24476 5.66747,-0.92103c2.10532,-0.87197 3.45803,-2.16325 5.91204,-2.45382c2.56858,-0.30413 6.12587,0.18257 8.30985,-1.32483c1.27494,-0.87998 2.33976,-2.45804 3.42849,-3.54265c2.88348,-2.12579 5.02589,-4.1424 5.81808,-7.35692c0,0 0.03803,-0.14744 0.17153,-0.24463c0.04961,-0.10006 0.1539,-0.20151 0.37095,-0.22721c0.46026,-0.0545 0.50706,0.34072 0.50706,0.34072c0.30193,2.54996 0.08281,5.49318 -0.61236,8.01824c0.14506,1.2251 -0.73008,2.22488 -1.20325,3.32681c-1.09683,2.55432 -3.09288,4.7209 -5.03455,6.84835c-1.60534,1.74606 -3.24913,3.87834 -5.42957,5.12783c-1.2227,0.70066 -2.88621,1.02832 -4.22533,1.58917c-2.12172,0.88713 -4.37085,2.34669 -6.57101,2.93079c-1.0679,0.28351 -2.34408,0.28273 -3.4484,0.41348c-0.75599,0.08951 -1.65362,0.08261 -2.38163,0.27682c-0.52642,0.14043 -1.92835,1.02635 -2.38763,0.94802c-0.53663,-0.09152 -0.69086,-0.362 -0.75636,-0.67381" data-paper-data="{&quot;index&quot;:null}"/></g><path d="M345.43674,166.53364c0,0 -3.99612,-2.71711 -7.12093,-6.34667c-0.65908,-0.76554 -3.42664,-4.28921 -4.63874,-7.45376c-0.48253,-1.25978 -0.96666,-2.55311 -1.43043,-3.81025c0.86183,0.0833 1.71484,0.15368 2.51777,0.2489c3.10112,0.36774 6.16518,0.53455 9.22366,0.55585c-0.96623,1.69548 -1.76387,3.48349 -1.89069,4.9234c-0.36693,4.16591 3.33935,11.88254 3.33935,11.88254z" fill="#ffffff" stroke-width="0"/><path d="M378.40745,133.7881c-7.98902,0.94594 -14.84276,-1.47426 -16.07649,-11.89384c-1.23373,-10.41958 4.83821,-14.60214 12.82723,-15.54808c7.98902,-0.94594 14.86984,1.70294 16.10357,12.12253c1.23373,10.41958 -4.86529,14.37345 -12.85431,15.31939z" data-paper-data="{&quot;index&quot;:null}" fill="#282828" stroke-width="0"/><path d="M378.22677,132.26216c-8.07136,0.95569 -15.04316,-1.88982 -16.44458,-13.7257c-1.40143,-11.83589 1.09744,-19.31645 9.16879,-20.27214c8.07136,-0.95569 18.65878,4.9754 20.06021,16.81128c1.40143,11.83588 -4.71305,16.23087 -12.78442,17.18656z" data-paper-data="{&quot;index&quot;:null}" fill="#000000" stroke-width="0"/><path d="M372.80966,121.72013c-1.45176,0.1719 -2.70574,-0.33992 -2.95781,-2.46878c-0.25207,-2.12887 0.84219,-2.9661 2.29394,-3.13799c1.45176,-0.1719 2.71128,0.38664 2.96334,2.5155c0.25207,2.12887 -0.84771,2.91938 -2.29947,3.09127z" data-paper-data="{&quot;index&quot;:null}" fill="#ffffff" stroke-width="0"/><path d="M372.70484,120.83485c-0.99331,0.11761 -1.8513,-0.23257 -2.02377,-1.68917c-0.17247,-1.4566 0.57623,-2.02944 1.56954,-2.14705c0.99331,-0.11761 1.85509,0.26454 2.02756,1.72114c0.17247,1.4566 -0.58002,1.99747 -1.57333,2.11508z" data-paper-data="{&quot;index&quot;:null}" fill="#000000" stroke-width="0"/><path d="M324.53244,122.94701c-1.40143,-11.83588 7.50812,-20.0755 15.57947,-21.03119c8.07136,-0.95569 12.2481,5.73444 13.64953,17.57034c1.40143,11.83588 -4.71306,16.23087 -12.78442,17.18656c-8.07136,0.95569 -15.04316,-1.88982 -16.44458,-13.7257z" data-paper-data="{&quot;index&quot;:null}" fill="#000000" stroke-width="0"/><path d="M343.67754,124.27182c-0.99331,0.11761 -1.8513,-0.23257 -2.02377,-1.68917c-0.17247,-1.4566 0.57623,-2.02944 1.56954,-2.14705c0.99331,-0.11761 1.85509,0.26454 2.02756,1.72113c0.17247,1.4566 -0.58002,1.99747 -1.57333,2.11508z" data-paper-data="{&quot;index&quot;:null}" fill="#ffffff" stroke-width="0"/><g fill="#252525" stroke-width="0"><path d="M368.65185,132.89708c0.35488,2.99716 -3.43532,5.90969 -8.46565,6.50531c-5.03033,0.59562 -9.3959,-1.35122 -9.75078,-4.34839c-0.35488,-2.99716 3.43533,-5.90969 8.46565,-6.50531c5.03033,-0.59562 9.3959,1.35122 9.75078,4.34839z"/><path d="M366.64453,134.96907c0.35488,2.99716 -2.44072,5.79193 -6.24414,6.24227c-3.80342,0.45034 -7.17439,-1.61426 -7.52927,-4.61143c-0.35488,-2.99716 2.44072,-5.79193 6.24414,-6.24227c3.80342,-0.45034 7.17439,1.61426 7.52927,4.61143z"/></g><g stroke-width="0"><g fill="#252525"><path d="M379.50602,85.71979c0.20016,1.69051 -5.14211,3.7127 -25.09581,6.07532c-19.9537,2.36262 -25.9254,1.68006 -26.12556,-0.01046c-0.20016,-1.69051 5.44701,-3.7488 25.4007,-6.11142c19.9537,-2.36262 25.62051,-1.64396 25.82067,0.04656z"/><path d="M353.38045,85.70934c19.9537,-2.36262 25.9254,-1.68006 26.12556,0.01046c0.20016,1.69051 -5.44701,3.7488 -25.4007,6.11142c-19.9537,2.36262 -25.62052,1.64397 -25.82068,-0.04656c-0.20016,-1.69051 5.14212,-3.7127 25.09582,-6.07532z" data-paper-data="{&quot;index&quot;:null}"/></g><path d="M328.2867,91.80205l-0.72898,-6.15664l51.22137,-6.06486l0.72898,6.15664z" fill="#252525"/><g fill="#202020"><path d="M378.77911,79.58054c0.20016,1.69051 -5.14211,3.7127 -25.09581,6.07532c-19.9537,2.36262 -25.9254,1.68006 -26.12556,-0.01046c-0.20016,-1.69051 5.44701,-3.7488 25.4007,-6.11142c19.9537,-2.36262 25.62051,-1.64395 25.82067,0.04656z"/><path d="M352.65353,79.57009c19.9537,-2.36262 25.9254,-1.68006 26.12556,0.01045c0.20016,1.69051 -5.44701,3.7488 -25.4007,6.11142c-19.9537,2.36262 -25.62052,1.64396 -25.82068,-0.04656c-0.20016,-1.69051 5.14212,-3.71269 25.09582,-6.07531z" data-paper-data="{&quot;index&quot;:null}"/></g><g fill="#252525"><path d="M370.86823,79.91035c0.12947,1.09344 -7.72178,2.9219 -17.53626,4.08399c-9.81447,1.16208 -17.87564,1.21773 -18.00511,0.12429c-0.12947,-1.09344 7.72178,-2.92189 17.53626,-4.08398c9.81447,-1.16208 17.87564,-1.21774 18.00511,-0.1243z"/><path d="M335.32686,84.11862c0,0 -0.9167,-10.76625 -2.50966,-16.05494c-1.54975,-5.14524 -6.92198,-15.2587 -6.92198,-15.2587l23.24824,-2.75271l21.72476,29.85808z"/><path d="M335.32686,84.11862l14.15111,-34.10596l23.24824,-2.75271c0,0 -2.86183,11.08841 -3.16712,16.4533c-0.31381,5.51445 1.30914,16.19709 1.30914,16.19709z" data-paper-data="{&quot;index&quot;:null}"/></g><path d="M372.7262,47.25996c0.31869,2.69153 -9.90643,6.11475 -22.83844,7.64596c-12.93201,1.53121 -23.67383,0.59059 -23.99252,-2.10095c-0.31869,-2.69153 9.90643,-6.11475 22.83844,-7.64596c12.93201,-1.53121 23.67383,-0.59059 23.99252,2.10095z" fill="#202020"/></g></g><path d="M313.82914,312.61618c-3.85557,-3.04223 -4.51491,-8.63401 -1.47269,-12.48958c3.04223,-3.85557 8.63401,-4.51491 12.48958,-1.47269c3.85557,3.04223 4.51491,8.63401 1.47269,12.48958c-3.04223,3.85557 -8.63401,4.51491 -12.48958,1.47269z" data-paper-data="{&quot;index&quot;:null}" fill="#646464" stroke-width="0"/><path d="M321.25822,278.15149c14.42049,-18.27582 18.7465,-13.32104 25.60857,-7.90654c6.86206,5.41449 13.1744,8.85389 -1.24609,27.1297c-14.42049,18.27581 -20.4105,14.42792 -27.27257,9.01342c-6.86206,-5.41449 -11.5104,-9.96078 2.91009,-28.23658z" data-paper-data="{&quot;index&quot;:null}" fill="#343434" stroke-width="0"/><path d="M314.4404,311.84149c-5.04404,-3.97999 -7.75862,-8.94828 -4.23586,-13.41285c3.52276,-4.46457 8.98619,-2.98003 14.03023,0.99996c5.04404,3.97999 7.75863,8.94829 4.23587,13.41287c-3.52276,4.46457 -8.98619,2.98002 -14.03023,-0.99997z" data-paper-data="{&quot;index&quot;:null}" fill="#3a3a3a" stroke-width="0"/></g></g></svg>