<svg version="1.1" xmlns="http://www.w3.org/2000/svg" xmlns:xlink="http://www.w3.org/1999/xlink" width="751" height="627.79368" viewBox="0,0,751,627.79368"><defs><radialGradient cx="360" cy="177.81483" r="367.5075" gradientUnits="userSpaceOnUse" id="color-1"><stop offset="0" stop-color="#000000" stop-opacity="0.83922"/><stop offset="1" stop-color="#000000" stop-opacity="0"/></radialGradient><radialGradient cx="360" cy="177.81483" r="367.50751" gradientUnits="userSpaceOnUse" id="color-2"><stop offset="0" stop-color="#000000" stop-opacity="0"/><stop offset="1" stop-color="#000000"/></radialGradient><linearGradient x1="-5.24206" y1="181.0581" x2="150.659" y2="181.0581" gradientUnits="userSpaceOnUse" id="color-3"><stop offset="0" stop-color="#000000"/><stop offset="1" stop-color="#000000" stop-opacity="0"/></linearGradient><linearGradient x1="727.50752" y1="177.81485" x2="571.60646" y2="177.81485" gradientUnits="userSpaceOnUse" id="color-4"><stop offset="0" stop-color="#000000"/><stop offset="1" stop-color="#000000" stop-opacity="0"/></linearGradient><linearGradient x1="360.24743" y1="-17.14012" x2="360.24743" y2="110.48753" gradientUnits="userSpaceOnUse" id="color-5"><stop offset="0" stop-color="#000000"/><stop offset="1" stop-color="#000000" stop-opacity="0"/></linearGradient><linearGradient x1="359.27227" y1="377.38047" x2="359.27227" y2="249.75283" gradientUnits="userSpaceOnUse" id="color-6"><stop offset="0" stop-color="#000000"/><stop offset="1" stop-color="#000000" stop-opacity="0"/></linearGradient></defs><g transform="translate(15.5,30)"><g data-paper-data="{&quot;isPaintingLayer&quot;:true}" fill-rule="nonzero" stroke-linecap="butt" stroke-linejoin="miter" stroke-miterlimit="10" stroke-dasharray="" stroke-dashoffset="0" style="mix-blend-mode: normal"><path d="M-7.11712,370.42353v-384.38438h732.73273v384.38438z" fill="#07010e" stroke="none" stroke-width="0"/><g stroke="none"><g stroke-width="0"><g><g><g><path d="M219.45267,552.18275c-1.5753,-5.27138 1.42096,-10.82173 6.69235,-12.39705c5.27138,-1.5753 10.82173,1.42096 12.39705,6.69235c1.5753,5.27138 -1.42096,10.82173 -6.69235,12.39705c-5.27138,1.5753 -10.82173,-1.42096 -12.39705,-6.69235z" fill="#6e2d2a"/><path d="M240.08894,588.05629c-14.06017,4.20175 -19.34188,-29.93159 -19.34188,-29.93159c0,0 0.57686,-4.79393 9.0105,-7.66521c6.59441,-2.24512 11.32385,1.58848 11.32385,1.58848c0,0 13.0677,31.80658 -0.99247,36.00833z" fill="#893834"/></g><path d="M165.31372,568.80077l7.83116,-24.3246l52.91747,17.03647l-7.83116,24.3246z" fill="#6e2d2a"/><path d="M227.9755,563.4936c-5.05809,15.71107 -62.3652,-2.7386 -57.30712,-18.44969c5.05809,-15.71107 18.51387,-29.07561 45.05811,-20.52985c15.82493,5.09474 17.30709,23.26846 12.249,38.97953z" fill="#893834"/><path d="M223.79203,574.20461c-7.55114,23.45483 -7.73576,26.26741 -23.35599,21.82906c-6.58305,-1.87052 -5.74994,-6.72647 -5.74994,-6.72647c0,0 -1.13075,7.06702 -24.6515,-3.88091c-13.85911,-6.45083 -3.94459,-23.88032 -2.2182,-29.24269c3.70193,-11.49869 -3.1755,5.15344 26.7147,14.28831c26.77469,8.18274 32.96284,-7.76599 29.26091,3.73271z" fill="#893834"/></g><g><path d="M225.36814,426.13624c4.24984,-11.39278 16.93073,-17.18326 28.32353,-12.93341c11.39278,4.24984 17.18326,16.93073 12.93339,28.32353c-4.24984,11.39278 -16.93073,17.18326 -28.32351,12.93342c-11.39278,-4.24987 -17.18326,-16.93073 -12.93342,-28.32351z" fill="#6e2d2a"/><path d="M184.32592,520.66972l30.76324,-82.46837c0,0 4.4396,-10.00592 29.85808,-0.52402c24.1785,9.01933 21.54398,19.69859 21.54398,19.69859l-30.76322,82.46837c0,0 -6.16448,6.35753 -28.12093,-2.06741c-23.42851,-8.98977 -23.28115,-17.10714 -23.28115,-17.10714z" fill="#893834"/></g><g><path d="M294.91596,333.61938c7.40848,-9.64214 21.23076,-11.4529 30.87292,-4.0444c9.64214,7.40848 11.4529,21.23076 4.0444,30.8729c-7.40848,9.64214 -21.23076,11.4529 -30.87292,4.0444c-9.64214,-7.40848 -11.4529,-21.23076 -4.0444,-30.8729z" fill="#6e2d2a"/><path d="M227.91923,411.92959l53.62747,-69.79616c0,0 7.18253,-8.26073 28.69519,8.26839c20.4632,15.72277 14.80835,25.15728 14.80835,25.15728l-53.62745,69.79616c0,0 -7.75983,4.26664 -26.27355,-10.23535c-19.75497,-15.47426 -17.23,-23.19034 -17.23,-23.19034z" fill="#893834"/></g></g><g><g><g><path d="M598.28099,448.6308c-5.3265,1.37758 -10.7612,-1.82363 -12.13876,-7.15012c-1.37758,-5.3265 1.82364,-10.76119 7.15013,-12.13879c5.3265,-1.37758 10.76119,1.82364 12.13878,7.15013c1.37759,5.32648 -1.82363,10.76119 -7.15013,12.13877z" fill="#6e2d2a"/><path d="M586.84915,447.56105c0,0 2.06561,-5.72691 8.87085,-7.21534c8.70326,-1.90355 11.67603,1.90137 11.67603,1.90137c0,0 13.13012,31.94655 -1.077,35.6209c-14.20712,3.67435 -19.46986,-30.30692 -19.46986,-30.30692z" fill="#893834"/></g><path d="M623.87986,464.66576l-19.2814,-16.77024l36.48316,-41.94615l19.2814,16.77024z" fill="#6e2d2a"/><path d="M594.31268,410.88294c18.30053,-21.04085 36.72854,-16.56009 49.18226,-5.72832c12.45372,10.83177 -27.05583,56.25746 -39.50953,45.42569c-12.45372,-10.83177 -20.58298,-27.1534 -9.67272,-39.69737z" fill="#893834"/><path d="M636.21959,439.25862c20.85975,-23.27532 6.36222,-33.97176 15.4769,-26.04415c4.2506,3.69701 21.74962,13.48826 13.22319,26.17638c-14.47048,21.53342 -19.09276,16.06937 -19.09276,16.06937c0,0 3.22415,3.72547 -1.44311,8.73065c-11.07449,11.87629 -12.68691,9.56443 -31.27888,-6.60615c-9.11468,-7.9276 4.42916,2.52319 23.11467,-18.3261z" fill="#893834"/></g><g><path d="M538.76414,362.5963c-7.55362,9.52888 -21.40171,11.13016 -30.93062,3.57655c-9.52888,-7.55362 -11.13017,-21.40172 -3.57654,-30.93062c7.55362,-9.52888 21.40172,-11.13018 30.93063,-3.57656c9.52888,7.55361 11.13016,21.40174 3.57654,30.93062z" fill="#6e2d2a"/><path d="M608.12057,418.03622c-14.43626,18.56501 -23.00011,16.31126 -23.00011,16.31126l-68.97629,-54.67797c0,0 -7.77733,-7.77819 8.25345,-28.00104c16.85291,-21.25995 25.82703,-14.99149 25.82703,-14.99149l68.9763,54.67797c0,0 4.32376,6.87159 -11.08036,26.68128z" fill="#893834"/></g><g><path d="M440.32189,316.95911c-4.42186,11.32714 -17.18893,16.92497 -28.51605,12.50312c-11.32714,-4.42183 -16.92497,-17.18893 -12.50314,-28.51607c4.42185,-11.32712 17.18893,-16.92497 28.51605,-12.50312c11.32714,4.42183 16.92497,17.18893 12.50314,28.51607z" fill="#6e2d2a"/><path d="M522.90227,349.58398c-8.34703,21.98619 -17.19513,22.34702 -17.19513,22.34702l-81.99319,-32.00823c0,0 -9.71878,-5.15094 -0.33445,-29.19014c9.86562,-25.27203 20.285,-21.91572 20.285,-21.91572l81.99318,32.00821c0,0 6.15125,5.29863 -2.7554,28.75887z" fill="#893834"/></g></g><g><path d="M439.48025,436.3838c2.69113,13.97603 -17.87809,35.86164 -47.35693,41.53788c-29.47884,5.67624 -56.70427,-7.00638 -59.39539,-20.9824c-2.69113,-13.97603 19.0246,-29.90732 48.50345,-35.58356c29.47884,-5.67624 55.55775,1.05206 58.24887,15.0281z" fill="#893834"/><g><path d="M318.66208,405.28496c0,0 -41.88174,-99.06661 38.11791,-113.09409c79.19538,-13.88646 75.49485,89.01598 75.49485,89.01598c0,0 44.24474,62.58934 -41.47034,79.39305c-89.0695,17.46133 -72.14239,-55.31494 -72.14239,-55.31494z" fill="#a3433e"/><g fill="#893834"><g><path d="M401.94953,343.94071c-16.56475,3.18959 -31.23791,-0.68933 -32.77342,-8.66382c-1.53551,-7.97449 10.64809,-17.02475 27.21284,-20.21434c8.22161,-1.5831 3.42702,14.14976 3.42702,14.14976c0,0 10.4767,13.1219 2.13357,14.7284z"/><path d="M372.63173,334.61151c-0.2531,-1.31446 0.60732,-2.58526 1.92178,-2.83836c1.31446,-0.2531 17.4361,-0.88906 17.4361,-0.88906c0,0 -15.20506,5.39609 -16.51952,5.64919c-1.31446,0.2531 -2.58525,-0.6073 -2.83836,-1.92177z"/></g><g><path d="M328.24977,342.9926c0,0 -10.29396,-12.82749 -2.07235,-14.41059c16.56475,-3.18959 31.23792,0.68931 32.77344,8.66379c1.53551,7.97449 -10.64809,17.02476 -27.21286,20.21435c-8.34314,1.6065 -3.48823,-14.46756 -3.48823,-14.46756z"/><path d="M353.57347,340.74954c-1.31446,0.2531 -17.43609,0.88906 -17.43609,0.88906c0,0 15.20506,-5.3961 16.51952,-5.64919c1.31446,-0.2531 2.58524,0.6073 2.83836,1.92178c0.2531,1.31446 -0.60732,2.58526 -1.92178,2.83836z"/></g><path d="M350.2591,338.91942c-1.46802,-7.62397 3.52236,-14.99445 11.14631,-16.46247c7.62397,-1.46802 14.99445,3.52236 16.46247,11.14632c1.46802,7.62397 -3.52235,14.99445 -11.14631,16.46246c-7.62397,1.46802 -14.99445,-3.52236 -16.46247,-11.14631z"/></g><g><g><path d="M405.38206,339.67359c-18.50032,3.5623 -34.88804,-0.76986 -36.60298,-9.67618c-1.71493,-8.90629 11.89233,-19.01409 30.39265,-22.57638c9.18229,-1.76808 3.82746,15.80314 3.82746,15.80314c0,0 11.70089,14.65518 2.38285,16.4494z" fill="#2a2119"/><path d="M372.63849,329.25427c-0.28269,-1.46808 0.67826,-2.88733 2.14634,-3.17002c1.46808,-0.28269 19.4735,-0.99294 19.4735,-0.99294c0,0 -16.98174,6.02661 -18.44982,6.30929c-1.46808,0.28269 -2.88732,-0.67826 -3.17001,-2.14634z" fill="#1e1812"/></g><g><path d="M323.07056,338.61466c0,0 -11.49679,-14.32639 -2.31449,-16.09447c18.50032,-3.5623 34.88802,0.76987 36.60296,9.67615c1.71493,8.90629 -11.89233,19.01407 -30.39264,22.57635c-9.31803,1.79421 -3.89583,-16.15808 -3.89583,-16.15808z" fill="#2a2119"/><path d="M351.35329,336.10953c-1.46808,0.28269 -19.4735,0.99295 -19.4735,0.99295c0,0 16.98177,-6.02663 18.44982,-6.3093c1.46808,-0.28269 2.88732,0.67826 3.17001,2.14634c0.28269,1.46808 -0.67826,2.88732 -2.14634,3.17001z" fill="#1e1812"/></g><path d="M347.65164,334.06556c-1.63955,-8.5148 3.93396,-16.74654 12.44875,-18.38609c8.5148,-1.63955 16.74653,3.93395 18.38608,12.44875c1.63955,8.5148 -3.93395,16.74653 -12.44875,18.38609c-8.5148,1.63955 -16.74654,-3.93395 -18.38609,-12.44875z" fill="#1e1812"/></g><g><path d="M363.68785,365.42377c-0.69459,-3.60725 1.66659,-7.0946 5.27386,-7.78918c3.60725,-0.69459 7.09459,1.66659 7.78918,5.27386c0.69459,3.60725 -1.66661,7.0946 -5.27385,7.78918c-3.60725,0.69459 -7.0946,-1.66659 -7.78918,-5.27385z" fill="#893834"/><path d="M363.21988,362.99343c-0.69459,-3.60725 1.66659,-7.0946 5.27386,-7.78918c3.60725,-0.69459 7.09459,1.66659 7.78918,5.27386c0.69459,3.60725 -1.66661,7.0946 -5.27385,7.78918c-3.60725,0.69459 -7.0946,-1.66659 -7.78918,-5.27385z" fill="#1e1812"/></g><g><path d="M367.43159,384.8664c-0.69459,-3.60725 1.66659,-7.09459 5.27385,-7.78918c3.60725,-0.69459 7.09459,1.66659 7.78918,5.27385c0.69459,3.60725 -1.66661,7.0946 -5.27385,7.78918c-3.60725,0.69459 -7.09459,-1.66659 -7.78918,-5.27385z" fill="#893834"/><path d="M366.96362,382.43609c-0.69459,-3.60725 1.66659,-7.0946 5.27386,-7.78918c3.60725,-0.69459 7.09459,1.66659 7.78918,5.27386c0.69459,3.60725 -1.66661,7.0946 -5.27385,7.78918c-3.60725,0.69459 -7.0946,-1.66659 -7.78918,-5.27385z" fill="#1e1812"/></g><path d="M386.54685,298.40501c0.98939,5.13825 -11.0617,11.77852 -26.91686,14.83149c-15.85516,3.05296 -29.51034,1.36251 -30.49973,-3.77575c-0.98939,-5.13825 11.06169,-11.77852 26.91685,-14.83148c15.85516,-3.05296 29.51035,-1.36251 30.49973,3.77575z" fill="#6e2d2a"/><path d="M368.02104,300.50197c0.56536,2.93613 -3.65742,6.21771 -9.4318,7.32958c-5.7744,1.11188 -10.91379,-0.36698 -11.47915,-3.30312c-0.56536,-2.93613 3.65742,-6.21771 9.4318,-7.32958c5.7744,-1.11188 10.9138,0.36699 11.47916,3.30313z" fill="#4d201d"/><path d="M368.29402,301.91964c0.56536,2.93613 -3.65742,6.21771 -9.4318,7.32958c-5.7744,1.11188 -10.91379,-0.36698 -11.47915,-3.30312c-0.56536,-2.93613 3.65742,-6.21771 9.4318,-7.32958c5.7744,-1.11188 10.91379,0.36698 11.47915,3.30312z" fill="#0b0404"/></g></g><g><path d="M407.86812,272.10967c5.06594,16.27313 -2.64597,35.168 -56.15578,50.93637c-54.64805,16.10378 -70.59585,6.3725 -75.66179,-9.90063c-5.06594,-16.27313 19.29392,-34.35777 58.12103,-46.44492c38.8271,-12.08715 68.6306,-10.86396 73.69654,5.40918z" fill="#893834"/><path d="M400.9033,270.94362c3.85213,12.37402 -18.13312,27.63445 -53.41468,38.61785c-35.28154,10.98339 -62.51365,11.04467 -66.36577,-1.32935c-3.85213,-12.37402 18.72523,-27.38762 54.00677,-38.371c35.28156,-10.9834 61.92156,-11.29152 65.77368,1.0825z" fill="#6e2d2a"/></g><g><path d="M255.6286,177.29785l-22.49345,-31.60783l59.87117,-30.38288l11.8877,36.98995z" fill="#1e1812"/><path d="M315.88978,147.57752c1.35839,2.67677 -13.25979,12.82383 -32.65059,22.6641c-19.3908,9.84027 -36.21135,15.64745 -37.56973,12.97068c-1.35839,-2.67677 13.25979,-12.82383 32.6506,-22.6641c19.39082,-9.84027 36.21133,-15.64743 37.56972,-12.97066z" fill="#2a2119"/><path d="M292.83266,114.96503c1.35839,2.67677 -10.94306,11.64816 -27.47601,20.03815c-16.53297,8.39 -31.03676,13.0215 -32.39514,10.34472c-1.35837,-2.67676 10.94306,-11.64816 27.47601,-20.03815c16.53297,-8.39 31.03676,-13.0215 32.39514,-10.34472z" fill="#1e1812"/><path d="M301.03877,156.78109c0.56333,1.11008 -7.74913,6.46004 -18.56643,11.9495c-10.81729,5.48947 -20.04309,9.03965 -20.60642,7.92958c-0.56333,-1.11008 7.74913,-6.46004 18.56643,-11.9495c10.81729,-5.48947 20.04309,-9.03965 20.60642,-7.92958z" fill="#1e1812"/></g><path d="M256.95872,312.26712c0,0 -28.96412,-57.07544 -40.22135,-79.25843c-6.14562,-12.11029 -5.09326,-29.69408 11.35142,-38.6464c17.41008,-9.47788 74.57047,-37.84234 106.21433,-53.90069c18.40702,-9.34103 31.24681,-1.83415 37.63398,10.75211c11.32114,22.30893 41.44637,81.67239 41.44637,81.67239c0,0 4.81207,11.27239 -24.93028,33.43722c-0.4405,-0.7065 -5.05239,-6.38094 -5.05239,-6.38094c0,0 1.82073,7.17697 2.22667,7.9769c0.05881,0.11589 0.12963,0.2217 0.21018,0.31668c-1.09223,0.78413 -2.22673,1.58114 -3.40509,2.39104c-0.45346,-0.66277 -3.05451,-2.46063 -3.05451,-2.46063c0,0 -0.13929,3.31463 0.26665,4.11456c0.02948,0.05809 0.06196,0.11364 0.09717,0.16656c-2.51743,1.67726 -12.69872,8.88903 -12.69872,8.88903l-2.28493,-1.02903c0,0 0.15417,1.17625 -0.03853,1.27404c-0.25086,0.12731 -0.45446,0.31082 -0.60326,0.52747c-5.64088,3.26117 -11.91739,6.68209 -18.90019,10.26211c-5.10929,2.61949 -15.31571,5.44554 -15.31571,5.44554c0,0 0.21654,1.67163 -0.07778,1.82098c-0.25795,0.1309 -0.4659,0.32125 -0.61572,0.54592c-7.58589,3.49911 -14.39453,6.32709 -20.50287,8.5952c0.01679,-0.27832 -0.03796,-0.56464 -0.17325,-0.83125c-0.40594,-0.79992 -3.59575,-2.96479 -3.59575,-2.96479c0,0 0.29305,3.63489 0.69899,4.43481c0.07233,0.14254 0.16281,0.26982 0.26721,0.38045c-41.75685,14.8576 -48.94261,2.46916 -48.94261,2.46916z" fill="#a3433e"/><path d="M250.29711,295.79012c-5.19597,-10.23894 -1.10782,-22.7514 9.13111,-27.94735c10.23894,-5.19597 22.75138,-1.10783 27.94735,9.13111c5.19597,10.23894 1.10783,22.75138 -9.13111,27.94735c-10.23894,5.19597 -22.75138,1.10784 -27.94735,-9.13111z" fill="#893834"/><path d="M297.03056,229.72039c10.0318,19.76823 2.32958,35.38951 -13.00216,43.16994c-15.33175,7.78042 -32.48716,4.77365 -42.51897,-14.99457c-10.0318,-19.76823 -1.47815,-33.71171 13.8536,-41.49214c15.33175,-7.78042 31.63572,-6.45147 41.66753,13.31677z" fill="#6e2d2a"/><path d="M328.21807,212.21654c2.61602,5.15503 -3.69327,13.61198 -14.09218,18.88912c-10.39891,5.27715 -20.94961,5.37615 -23.56563,0.22112c-2.61602,-5.15503 3.69327,-13.61196 14.09218,-18.88911c10.39891,-5.27715 20.9496,-5.37616 23.56564,-0.22114z" fill="#893834"/><path d="M394.88751,245.72912c-10.23894,5.19597 -22.7514,1.10782 -27.94735,-9.13111c-5.19596,-10.23893 -1.10783,-22.75138 9.13111,-27.94735c10.23894,-5.19597 22.75139,-1.10782 27.94735,9.13111c5.19596,10.23893 1.10782,22.75139 -9.13111,27.94735z" fill="#893834"/><path d="M299.92732,228.25037c6.85522,13.5086 5.42926,25.08073 -1.05352,33.53765c-0.94551,1.23343 -4.49244,4.51427 -4.49244,4.51427l-3.531,5.27444c0,0 -2.55859,-0.84991 -3.92519,-0.15641c-15.33175,7.78042 -32.48717,4.77365 -42.51897,-14.99458c-10.0318,-19.76823 -1.47815,-33.71171 13.8536,-41.49214c7.22076,-3.66433 14.65718,-5.3081 21.55245,-3.95665c0.88916,0.17426 2.7854,-3.15822 2.7854,-3.15822l2.07097,4.20172l6.15766,2.50996c0,0 2.7362,4.3441 3.39778,5.10055c2.0624,2.35815 3.97581,5.21541 5.70325,8.61942z" fill="#000000"/><path d="M336.95496,174.99811c15.33175,-7.78042 31.63573,-6.45146 41.66753,13.31678c10.0318,19.76823 2.32958,35.38951 -13.00216,43.16994c-15.33175,7.78042 -32.48717,4.77365 -42.51897,-14.99458c-10.0318,-19.76823 -1.47815,-33.71171 13.8536,-41.49214z" fill="#6e2d2a"/><path d="M334.05821,176.46813c15.33175,-7.78042 31.63572,-6.45147 41.66753,13.31678c10.0318,19.76823 2.32958,35.38951 -13.00216,43.16993c-15.33175,7.78042 -32.48716,4.77365 -42.51897,-14.99457c-10.0318,-19.76823 -1.47815,-33.71171 13.8536,-41.49214z" fill="#000000"/><path d="M338.01105,243.87671c2.21009,4.35511 -2.19466,11.03011 -9.83831,14.90904c-7.64365,3.87893 -15.63167,3.49291 -17.84176,-0.8622c-2.21009,-4.35511 2.19466,-11.03011 9.83832,-14.90904c7.64365,-3.87893 15.63167,-3.49291 17.84176,0.86221z" fill="#6e2d2a"/><g fill="#000000"><path d="M360.39174,198.6214c0.8483,1.67162 -3.83698,5.75336 -10.46486,9.11682c-6.62787,3.36345 -12.68852,4.73495 -13.53682,3.06333c-0.8483,-1.67162 3.83697,-5.75337 10.46484,-9.11681c6.62787,-3.36345 12.68853,-4.73496 13.53684,-3.06333z"/><path d="M356.94317,200.37144c4.56193,8.98954 4.43109,18.2201 -0.29222,20.61705c-4.72331,2.39695 -12.25049,-2.94741 -16.81242,-11.93694c-4.56193,-8.98954 -4.43109,-18.2201 0.29222,-20.61705c4.72331,-2.39695 12.25049,2.94741 16.81242,11.93694z"/></g><g fill="#000000"><path d="M271.05683,240.15088c6.62787,-3.36345 12.68851,-4.73495 13.53681,-3.06333c0.8483,1.67162 -3.83697,5.75336 -10.46484,9.11681c-6.62787,3.36345 -12.68851,4.73495 -13.53681,3.06334c-0.8483,-1.67162 3.83697,-5.75337 10.46484,-9.11681z"/><path d="M264.33271,226.90063c4.72331,-2.39695 12.25049,2.94741 16.81242,11.93694c4.56193,8.98954 4.4311,18.22011 -0.29222,20.61705c-4.72331,2.39695 -12.2505,-2.94741 -16.81243,-11.93694c-4.56193,-8.98954 -4.43109,-18.2201 0.29222,-20.61705z"/></g></g><path d="M291.93191,212.05903c0.07735,-0.23774 0.31508,-0.16039 0.31508,-0.16039l0.18948,0.06165c1.89355,0.63016 0.86627,2.56118 2.42565,2.91358c-0.54688,-0.95546 -1.40924,-2.01883 -1.28796,-2.87589c-0.28949,-0.16048 -0.55049,-0.34784 -0.76218,-0.57729c-0.84151,-0.91208 0.31898,-1.70065 -0.79596,-2.57663c-1.42465,-1.1193 -0.43059,-1.48032 -0.8192,-2.57194c-0.30415,-0.85436 -2.59645,-1.42566 -2.64474,-2.33869c-0.04737,-0.89577 1.14692,-0.49825 0.78323,-1.52253c-0.1891,-0.53258 -0.97204,-0.86452 -1.21654,-1.4559c-0.46598,-0.36213 -0.55399,-0.97767 -0.63084,-1.56457c-0.07127,-0.02955 -0.13997,-0.04991 -0.20567,-0.05792c0,0 -0.24646,-0.0419 -0.20456,-0.28837c0.0419,-0.24646 0.28837,-0.20456 0.28837,-0.20456c0.0131,0.00266 0.02658,0.00601 0.0404,0.01001c-0.07142,-0.36174 -0.18998,-0.67053 -0.46576,-0.84172l-0.05117,-0.03887c0,0 -0.19908,-0.15122 -0.04787,-0.3503c0.15122,-0.19908 0.3503,-0.04787 0.3503,-0.04787l0.05117,0.03887c0.4407,0.37531 0.52416,0.9204 0.60265,1.469c0.51091,0.32931 1.16615,0.85118 1.5923,0.66593c0.25712,-0.11177 0.15998,-1.18597 0.32372,-1.36645c0.92717,-1.02201 3.2741,-0.72948 4.12296,-2.36543c0.72017,-0.60227 1.7705,-1.14632 2.38387,-1.83602c0.49323,-0.55461 0.50129,-1.5526 0.72856,-2.24984c-0.50738,-0.45464 -1.07504,-0.86585 -1.59521,-1.31635c-0.04533,0.00555 -0.07979,-0.00031 -0.07979,-0.00031c-2.46463,-0.41902 -4.92927,-0.83803 -7.3939,-1.25705l-0.49293,-0.0838c0,0 -0.24646,-0.0419 -0.20456,-0.28837c0.0419,-0.24646 0.28837,-0.20456 0.28837,-0.20456c2.25726,0.38376 4.92799,0.83781 7.25482,1.2334c-0.1646,-0.17825 -0.31729,-0.366 -0.45316,-0.56702c-0.46376,-0.69236 -0.92752,-1.38474 -1.39128,-2.0771l-0.02335,-0.03486c0,0 -0.13913,-0.20771 0.06858,-0.34684c0.20771,-0.13913 0.34684,0.06858 0.34684,0.06858c0.46376,0.69236 0.95086,1.41959 1.41462,2.11196c0.61595,0.92911 1.63926,1.5567 2.49178,2.29671c0.02146,-0.02738 0.04415,-0.05324 0.0682,-0.07747c1.56489,-1.57626 2.74746,2.22616 3.5056,1.53677c0.63262,-0.46527 2.28214,-2.37337 3.12123,-1.88227c0.42477,0.24861 0.68234,1.54462 0.83163,1.98811c0.44544,1.32328 1.30241,3.12471 2.70954,3.70326c0.19064,0.08222 0.48693,0.21028 0.80386,0.36652c0.48204,-0.53013 0.993,-1.03104 1.36685,-1.5388c0.37522,-0.50961 0.35405,-1.72597 0.4592,-2.34047l0.37592,-0.43405c0,0 0.17876,-0.17477 0.35353,0.004c0.17477,0.17876 -0.004,0.35353 -0.004,0.35353l-0.23261,0.16087c-0.12279,0.71751 -0.11476,1.94497 -0.54702,2.54932c-0.33627,0.47014 -0.8493,0.95436 -1.33781,1.47285c0.45792,0.25629 0.87908,0.55446 1.01017,0.84204c0.43772,0.96028 -0.68274,2.39238 -0.15308,3.46345c0.73911,1.49461 2.59359,1.82355 2.31785,3.63479c-0.5694,3.73622 -1.07913,7.65803 -5.60519,7.15556c-0.45135,-0.39379 -0.59828,1.92287 -0.99665,2.80111c0.29681,0.20114 0.57472,0.4055 0.63078,0.89957c0.15567,1.37216 -0.53336,1.85949 1.01481,2.65129c0.66371,0.34334 1.71967,0.63994 2.28775,1.07535c0.70703,0.5419 0.39475,1.76082 0.63321,2.51901c0.25596,0.81381 1.32817,1.55995 1.85982,2.21813l0.2736,0.37438c0,0 0.14738,0.20194 -0.05456,0.34932c-0.20194,0.14738 -0.34932,-0.05456 -0.34932,-0.05456l-0.25883,-0.35514c-0.59162,-0.7339 -1.64108,-1.47075 -1.94596,-2.37678c-0.17231,-0.51205 0.03973,-1.95386 -0.44904,-2.26782c-0.62792,-0.40335 -1.53793,-0.68164 -2.22639,-1.03779c-2.03079,-1.06102 -0.47181,-2.25099 -1.38743,-3.40067c-0.0819,-0.10283 -0.16807,-0.19466 -0.256,-0.27972c-1.54208,1.37167 -3.50919,-1.24839 -4.75638,-0.83061c-0.58725,0.19672 -0.5136,0.66333 -1.30777,0.69044c-1.67942,-0.00721 -1.34571,-1.62542 -2.55061,-2.24445c-0.68507,-0.35196 -1.5988,-0.5768 -2.39659,-0.92591c-0.02912,0.25435 -0.03677,0.47728 0.01186,0.61882c0.48502,1.41165 1.95462,1.68141 1.73023,3.41504l-0.00403,0.03109c0,0 -0.03211,0.24793 -0.28003,0.21582c-0.24793,-0.03211 -0.21582,-0.28003 -0.21582,-0.28003l0.00403,-0.03109c0.03312,-0.25557 -0.04127,-0.54065 -0.17515,-0.84363c-0.08539,0.06031 -0.19463,0.04174 -0.19463,0.04174c-2.12933,-0.38835 -0.73106,-2.355 -2.63097,-2.95644l-0.18948,-0.06165c0,0 -0.23774,-0.07735 -0.16039,-0.31508z" fill="#000000" stroke-width="0.5"/></g><path d="M-15.5,30v-60h751v60z" fill="#000000" stroke-opacity="0.50196" stroke="#0d0d0d" stroke-width="0"/><path d="M-15.5,390v-60h751v60z" fill="#000000" stroke-opacity="0.50196" stroke="#0d0d0d" stroke-width="0"/><g stroke-width="0"><g stroke="#000000"><path d="M-7.50751,364.00104v-372.37237h735.015v372.37237z" fill="url(#color-1)"/><path d="M-7.5075,364.00104v-372.37237h735.015v372.37237z" fill="url(#color-2)"/></g><g stroke="none"><path d="M-5.24206,376.25329v-390.39039h155.90105v390.39039z" fill="url(#color-3)"/><path d="M571.60646,373.01003v-390.39039h155.90105v390.39039z" fill="url(#color-4)"/><path d="M-6.53233,110.48753v-127.62762h733.55954v127.62763z" fill="url(#color-5)"/><path d="M726.05204,249.75283v127.62762h-733.55954v-127.62762z" fill="url(#color-6)"/></g></g></g></g></svg>