<svg version="1.1" xmlns="http://www.w3.org/2000/svg" xmlns:xlink="http://www.w3.org/1999/xlink" width="956.45646" height="489.48949" viewBox="0,0,956.45646,489.48949"><g transform="translate(118.22823,64.74474)"><g stroke-miterlimit="10"><path d="M-118.22823,424.74475v-489.48949h956.45646v489.48949z" fill="#000000" stroke="none" stroke-width="2"/><g><text transform="translate(97.79545,155.46322) scale(0.66254,0.98754)" font-size="40" xml:space="preserve" fill="#ffffff" stroke="none" stroke-width="1" font-family="&quot;MS Gothic&quot;, Sans Serif" font-weight="normal" text-anchor="start"><tspan x="0" dy="0">EPILIPSY WARNING :</tspan></text><g stroke="#000000" stroke-width="0"><path d="M268.29545,214.58822c0,0 -10.18473,10.02361 -25.66013,17.50196c-0.62208,0.30062 -10.31235,1.67656 -10.31235,1.67656l4.43544,-5.09936l-0.8311,-4.19964l-5.58107,-3.86274l3.29065,5.96133l-5.26847,6.1638c0,0 2.56889,4.04059 2.1871,4.15921c-6.26972,1.94786 -13.05212,3.19889 -20.13141,3.19889c-31.96146,0 -57.87134,-25.5 -57.87134,-25.5c0,0 11.7056,-11.52042 29.08655,-19.07443c1.1115,-0.48308 9.27428,2.14885 9.27428,2.14885l-0.2045,6.33462l4.33534,-5.3274c0,0 -0.53109,-7.57316 0.58604,-7.83255c4.72212,-1.09645 9.68043,-1.74909 14.79363,-1.74909c31.96146,0 57.87134,25.5 57.87134,25.5z" fill="#ffffff"/><path d="M202.67411,214.58822c0,-4.2802 3.4698,-7.75 7.75,-7.75c4.2802,0 7.75,3.4698 7.75,7.75c0,4.2802 -3.4698,7.75 -7.75,7.75c-4.2802,0 -7.75,-3.4698 -7.75,-7.75z" fill="#000000"/></g></g><g><g stroke="none" stroke-width="1" font-weight="normal" text-anchor="start"><text transform="translate(424.68134,138.47974) scale(0.66254,0.98754)" font-size="40" xml:space="preserve" fill="#ffffff" font-family="&quot;MS Gothic&quot;, Sans Serif"><tspan x="0" dy="0">GORE WARNING :</tspan></text><g fill="none" font-family="sans-serif" font-size="12"/></g><g fill="#ffffff" stroke="#000000" stroke-width="0"><path d="M556.81242,191.79839l-24.0406,19.83688l-11.46084,1.14231l-0.65182,-7.61836l-4.15661,10.86185l1.1618,8.07999l-22.17388,18.29656l-16.95202,-20.54441l21.13957,-17.44312l20.96044,-13.17509l3.19585,-7.21683l16.02609,-12.76419z"/><g><path d="M505.20918,240.71864c0.3863,8.63646 -6.30178,15.95085 -14.93824,16.33714c-8.63646,0.3863 -15.95085,-6.30178 -16.33714,-14.93824c-0.3863,-8.63646 6.30178,-15.95085 14.93824,-16.33714c8.63646,-0.3863 15.95085,6.30178 16.33714,14.93824z"/><path d="M493.37056,225.57919c0.3863,8.63646 -6.30178,15.95085 -14.93824,16.33714c-8.63646,0.3863 -15.95085,-6.30178 -16.33714,-14.93824c-0.3863,-8.63646 6.30178,-15.95085 14.93824,-16.33714c8.63646,-0.3863 15.95085,6.30178 16.33714,14.93824z"/></g><g><path d="M572.74922,185.89568c0.64915,8.52754 -5.73754,15.96672 -14.26507,16.61587c-8.52754,0.64915 -15.96672,-5.73754 -16.61587,-14.26507c-0.64915,-8.52754 5.73754,-15.96672 14.26507,-16.61587c8.52754,-0.64915 15.96672,5.73754 16.61587,14.26507z"/><path d="M560.57513,171.29248c0.64915,8.52754 -5.73754,15.96672 -14.26507,16.61587c-8.52754,0.64915 -15.96672,-5.73754 -16.61587,-14.26507c-0.64915,-8.52754 5.73754,-15.96672 14.26507,-16.61587c8.52754,-0.64915 15.96672,5.73754 16.61587,14.26507z"/></g></g><path d="M473.06216,220.03817c0,-10.0392 13.8923,-44.2002 13.8923,-44.2002c0,0 13.31942,34.16101 13.31942,44.2002c0,10.0392 -6.09155,18.17757 -13.60586,18.17757c-7.51431,0 -13.60586,-8.13838 -13.60586,-18.17757z" fill="#b50000" stroke="#000000" stroke-width="0"/></g></g></g></svg>