<svg version="1.1" xmlns="http://www.w3.org/2000/svg" xmlns:xlink="http://www.w3.org/1999/xlink" width="76.33333" height="101" viewBox="0,0,76.33333,101"><defs><radialGradient cx="361.29262" cy="141.86183" r="20.24727" gradientUnits="userSpaceOnUse" id="color-1"><stop offset="0" stop-color="#0c0c0c"/><stop offset="1" stop-color="#121212"/></radialGradient><linearGradient x1="364.72504" y1="140.787" x2="356.42367" y2="182.66645" gradientUnits="userSpaceOnUse" id="color-2"><stop offset="0" stop-color="#a30000"/><stop offset="1" stop-color="#450000"/></linearGradient></defs><g transform="translate(-321.83333,-129.5)"><g data-paper-data="{&quot;isPaintingLayer&quot;:true}" fill-rule="nonzero" stroke-linejoin="miter" stroke-miterlimit="10" stroke-dasharray="" stroke-dashoffset="0" style="mix-blend-mode: normal"><path d="M321.83333,230.5v-101h76.33333v101z" fill="#273042" stroke="none" stroke-width="0" stroke-linecap="butt"/><path d="M329.75471,196.83333v-61.66667h60.49068v61.66667z" fill="#0b0e13" stroke="none" stroke-width="0" stroke-linecap="butt"/><path d="M343.08349,227.33333v-17.33333h33.83333v17.33333z" fill="#0b0e13" stroke="#000000" stroke-width="0" stroke-linecap="butt"/><path d="M342.99995,209.125v-11.25h34.25v11.25z" fill="#273042" stroke="#000000" stroke-width="0" stroke-linecap="butt"/><text transform="translate(346.71759,207.0298) scale(0.29415,0.29415)" font-size="40" xml:space="preserve" fill="#000000" fill-rule="nonzero" stroke="none" stroke-width="1" stroke-linecap="butt" stroke-linejoin="miter" stroke-miterlimit="10" stroke-dasharray="" stroke-dashoffset="0" font-family="&quot;GovtAgentBB&quot;, Serif" font-weight="normal" text-anchor="start" style="mix-blend-mode: normal"><tspan x="0" dy="0">Gary</tspan></text><text transform="translate(347.21028,223.17375) scale(0.37559,0.37559)" font-size="40" xml:space="preserve" fill="#c74444" fill-rule="nonzero" stroke="none" stroke-width="1" stroke-linecap="butt" stroke-linejoin="miter" stroke-miterlimit="10" stroke-dasharray="" stroke-dashoffset="0" font-family="&quot;Agency FB&quot;, Sans Serif" font-weight="normal" text-anchor="start" style="mix-blend-mode: normal"><tspan x="0" dy="0">HARD</tspan></text><g><path d="M373.59909,175.86949l2.55004,1.88094l-0.47623,1.96881" fill="none" stroke="#000000" stroke-width="1" stroke-linecap="round"/><path d="M343.00899,162.921l-1.51085,0.52772l-0.20935,-1.44774" fill="none" stroke="#000000" stroke-width="1" stroke-linecap="round"/><path d="M376.97683,165.36766c-2.29236,11.56469 -11.09989,17.31973 -20.19977,15.51594c-9.09988,-1.80378 -14.96552,-10.46735 -12.67316,-22.03203c0.80461,-4.05918 2.38394,-7.68445 4.59319,-10.58155c1.01662,-1.33314 2.62137,-1.81036 3.84079,-2.81634c1.14804,-0.94711 1.90092,-2.44302 3.17739,-3.05617c2.81564,-1.35248 5.85119,-1.67933 8.90348,-1.0743c9.09988,1.80378 14.65044,12.47977 12.35808,24.04446z" fill="url(#color-1)" stroke="#0a0a0a" stroke-width="1.5" stroke-linecap="butt"/><path d="M378.21329,164.78393c-0.41685,2.10297 -1.15207,4.06906 -1.99787,5.89633c-0.28244,0.61018 -1.39687,1.04241 -1.70243,1.62034c-0.37367,0.70676 0.05245,1.55015 -0.40062,2.19443c-0.21564,0.30665 -1.4938,6.27779 -1.74401,6.58567c-0.29371,0.3614 0.43769,-4.94273 0.15507,-4.61908c-4.26775,4.88726 -10.14553,7.38509 -16.09976,6.20483c-9.69545,-1.92184 -15.65934,-13.04403 -13.32072,-24.84212c0.30762,-1.55189 1.03604,-2.64389 1.94215,-3.52577c0.40432,0.31381 0.88591,0.54077 1.42212,0.64706c1.8422,0.36516 3.63163,-0.83222 3.99679,-2.67442c0.14467,-0.72982 0.04409,-1.45136 -0.24466,-2.07934c0.11563,-0.11406 0.24282,-0.23983 0.3748,-0.37067c1.67554,0.10673 3.21216,-1.04126 3.54752,-2.7331c0.02556,-0.12896 0.04347,-0.25767 0.05403,-0.38564c0.1056,-0.16848 0.1972,-0.3477 0.27287,-0.53635c1.19123,-0.33701 2.15512,-1.3147 2.41233,-2.61233c0.08322,-0.41985 0.08529,-0.83697 0.01705,-1.2351c0.59696,0.02438 1.26068,0.17344 2.04556,-0.09287c0.03723,-0.01263 0.07366,-0.02583 0.10935,-0.03955c0.40671,0.31852 0.89242,0.54885 1.43381,0.65616c1.65246,0.32755 3.26246,-0.60214 3.84013,-2.12672c0.13314,0.02133 0.26591,0.0451 0.39825,0.07133c9.69545,1.92184 15.82688,12.19884 13.48825,23.99693z" fill="url(#color-2)" stroke="#4f0000" stroke-width="2" stroke-linecap="butt"/><path d="M366.52527,142.35278l1.11076,-1.84783l1.55959,0.06098" fill="none" stroke="#000000" stroke-width="1" stroke-linecap="round"/><path d="M346.05359,154.97539c0,0 2.23491,3.395 4.3621,12.07681c0.31039,1.26681 0.86444,2.46458 1.25593,3.51377c0.82677,2.21575 3.27517,2.24941 3.27517,2.24941c0,0 1.36432,4.83007 2.27497,5.01058c1.60524,0.31819 6.41996,-5.05061 6.41996,-5.05061c0,0 3.80844,-0.23223 5.1245,-1.99102c5.26139,-7.03133 8.08418,-9.70438 8.08418,-9.70438l-2.58427,7.587c0,0 -0.17184,1.69025 -0.80133,3.35469c-0.44218,1.16919 -1.30891,2.28626 -1.64264,2.96582c-1.29758,2.6422 -5.39097,8.93176 -5.39097,8.93176c0,0 -1.14994,3.61698 -2.19707,5.07872c-1.47555,2.05981 -3.81282,-0.74756 -3.81282,-0.74756l-0.7924,2.16616c0,0 -1.25309,-0.73909 -1.97328,-0.28613c-1.21408,0.76359 -2.46943,1.44902 -2.93781,1.35618c-2.35823,-0.46745 -4.15776,-8.02548 -4.15776,-8.02548c0,0 -1.48003,2.42298 -2.0749,1.80018c-0.6114,-0.64012 -0.57694,-4.30455 -0.57694,-4.30455l-1.80684,-1.02974c0,0 0.33084,-0.92538 0.25341,-1.97126c-0.07989,-1.07919 -0.56929,-2.28593 -0.64636,-2.68767c-0.20623,-1.07492 -0.31599,-4.37861 -0.34786,-5.26675c-0.04212,-1.17352 -0.90292,-2.40052 -0.8386,-4.11757c0.0575,-1.53501 1.03285,-3.53613 1.12382,-5.04407c0.1936,-3.20948 0.40781,-5.86428 0.40781,-5.86428z" fill="#000000" stroke="none" stroke-width="0" stroke-linecap="butt"/><g stroke="none" stroke-linecap="butt"><path d="M358.60979,159.43915c-0.83296,4.20219 -2.22834,7.42794 -3.51157,9.37525c-0.82138,1.24644 -1.51914,2.08518 -2.24856,1.94059c-0.84102,-0.16671 -1.4059,-1.35082 -1.64839,-3.23091c-0.08622,-0.66847 -1.41885,4.04022 -1.42148,3.21023c-0.00167,-0.52808 1.30117,-6.55106 1.33471,-7.13496c0.09498,-1.65327 0.33327,-3.51536 0.72703,-5.50181c0.69875,-3.52513 1.8036,-5.87649 2.89081,-8.0195c1.03838,-2.04677 2.05388,-3.96966 2.96691,-3.78867c1.869,0.37047 2.27667,6.25783 0.91054,13.14978z" fill="#000000" stroke-width="0"/><path d="M356.13625,159.03373c0.02739,-0.13816 0.16159,-0.22797 0.29976,-0.20058c0.13817,0.02739 0.22797,0.16159 0.20058,0.29976c-0.02739,0.13816 -0.16159,0.22797 -0.29976,0.20058c-0.13817,-0.02739 -0.22797,-0.1616 -0.20058,-0.29976z" fill="#ffffff" stroke-width="0.5"/></g><g stroke-linecap="butt"><path d="M370.50999,162.23765c-0.22433,1.13169 -0.48253,2.2201 -0.76571,3.24729c-0.09206,0.33395 0.03419,1.2768 -0.06285,1.59719c-0.2301,0.75971 -0.69429,0.86419 -0.94656,1.53597c-1.307,3.48046 -2.85686,5.67068 -4.0826,5.42772c-1.869,-0.37047 -2.27667,-6.25783 -0.91054,-13.14978c0.95509,-4.81831 2.39153,-9.3356 3.888,-11.20012c0.64404,-0.80243 1.40737,-0.71952 1.96972,-0.60805c1.869,0.37047 2.27667,6.25783 0.91054,13.14978z" fill="#000000" stroke="#000000" stroke-width="0"/><path d="M365.84109,160.90444c0.02739,-0.13816 0.16159,-0.22797 0.29976,-0.20058c0.13817,0.02739 0.22797,0.16159 0.20058,0.29976c-0.02739,0.13816 -0.16159,0.22797 -0.29976,0.20058c-0.13817,-0.02739 -0.22797,-0.1616 -0.20058,-0.29976z" fill="#ffffff" stroke="none" stroke-width="0.5"/></g></g></g></g></svg>