<svg version="1.1" xmlns="http://www.w3.org/2000/svg" xmlns:xlink="http://www.w3.org/1999/xlink" width="114.42105" height="130.44584" viewBox="0,0,114.42105,130.44584"><g transform="translate(-302.79924,-82.21302)"><g fill="#ffffff" stroke="#000000" stroke-width="0" stroke-miterlimit="10"><path d="M316.79232,193.85651c-9.64064,-50.79154 -2.8882,-80.03135 43.38287,-78.8201c50.60379,1.32466 55.35056,23.98652 43.38287,79.92249c-6.44383,30.11794 -43.38287,12.67736 -43.38287,12.67736c0,0 -37.63373,16.50951 -43.38287,-13.77974z"/><g><g><path d="M356.82419,155.26998c0,11.86588 -8.40926,19.9082 -18.78262,19.9082c-10.37337,0 -18.78262,-8.04231 -18.78262,-19.9082c0,-11.86588 8.40926,-19.11975 18.78262,-19.11975c10.37337,0 18.78262,7.25387 18.78262,19.11977z"/><path d="M352.83497,155.33176c0,10.00616 -6.62322,16.78801 -14.79339,16.78801c-8.17017,0 -14.79339,-6.78185 -14.79339,-16.78801c0,-10.00616 6.62322,-16.12314 14.79339,-16.12314c8.17017,0 14.79339,6.11698 14.79339,16.12314z"/><g><path d="M351.50522,155.40565c0,7.78257 -6.02789,13.05735 -13.46365,13.05735c-7.43576,0 -13.46365,-5.27477 -13.46365,-13.05735c0,-7.78257 6.02789,-12.54021 13.46365,-12.54021c7.43576,0 13.46365,4.75765 13.46365,12.54021z"/><g><path d="M346.4522,155.48623c0,5.35683 -2.69394,8.98752 -6.01709,8.98752c-3.32315,0 -6.01709,-3.63069 -6.01709,-8.98752c0,-5.35683 2.69394,-8.63158 6.01709,-8.63158c3.32315,0 6.01709,3.27475 6.01709,8.63158z"/><path d="M342.06405,155.57505c0,2.68317 -0.7293,4.50173 -1.62894,4.50173c-0.89964,0 -1.62894,-1.81856 -1.62894,-4.50173c0,-2.68317 0.7293,-4.32343 1.62894,-4.32343c0.89964,0 1.62894,1.64028 1.62894,4.32343z"/></g><path d="M338.04157,168.46298c-7.43576,0 -13.46365,-5.27477 -13.46365,-13.05735c0,-4.11731 1.68712,-7.38799 4.37728,-9.55547c-0.7716,1.68441 -1.2017,3.55787 -1.2017,5.5318c0,7.34396 5.95347,13.29743 13.29743,13.29743c3.64467,0 6.94686,-1.46631 9.34885,-3.84118c-2.06976,4.70292 -6.82406,7.62475 -12.35821,7.62475z"/><path d="M347.16775,149.12141c0,3.01102 -2.79813,5.45195 -6.24979,5.45195c-3.45167,0 -6.24979,-2.44092 -6.24979,-5.45195c0,-3.01102 2.79813,-5.45195 6.24979,-5.45195c3.45167,0 6.24979,2.44092 6.24979,5.45195z"/></g></g><path d="M323.82644,150.45986c1.78077,-7.08313 7.47091,-11.25124 14.21513,-11.25124c6.77186,0 12.48098,4.20235 14.23683,11.33848c0.17233,0.70044 -28.64949,0.69847 -28.45196,-0.08724z"/></g><g><g><path d="M398.04623,155.26998c0,11.86588 -8.40927,19.9082 -18.78262,19.9082c-10.37337,0 -18.78262,-8.04231 -18.78262,-19.9082c0,-11.86588 8.40926,-19.11975 18.78262,-19.11975c10.37335,0 18.78262,7.25387 18.78262,19.11977z"/><path d="M394.057,155.33176c0,10.00616 -6.62322,16.78801 -14.79339,16.78801c-8.17017,0 -14.79339,-6.78185 -14.79339,-16.78801c0,-10.00616 6.62322,-16.12314 14.79339,-16.12314c8.17017,0 14.79339,6.11698 14.79339,16.12314z"/><g><path d="M392.72726,155.40565c0,7.78257 -6.02789,13.05735 -13.46365,13.05735c-7.43576,0 -13.46365,-5.27477 -13.46365,-13.05735c0,-7.78257 6.02789,-12.54021 13.46365,-12.54021c7.43576,0 13.46365,4.75765 13.46365,12.54021z"/><g><path d="M387.67424,155.48623c0,5.35683 -2.69394,8.98752 -6.01709,8.98752c-3.32315,0 -6.01709,-3.63069 -6.01709,-8.98752c0,-5.35683 2.69394,-8.63158 6.01709,-8.63158c3.32315,0 6.01709,3.27475 6.01709,8.63158z"/><path d="M383.28608,155.57505c0,2.68317 -0.7293,4.50173 -1.62894,4.50173c-0.89964,0 -1.62894,-1.81856 -1.62894,-4.50173c0,-2.68317 0.7293,-4.32343 1.62894,-4.32343c0.89964,0 1.62894,1.64028 1.62894,4.32343z"/></g><path d="M379.26361,168.46298c-7.43576,0 -13.46365,-5.27477 -13.46365,-13.05735c0,-4.11731 1.68712,-7.38799 4.37726,-9.55547c-0.7716,1.68441 -1.20169,3.55787 -1.20169,5.5318c0,7.34396 5.95347,13.29743 13.29743,13.29743c3.64467,0 6.94686,-1.46631 9.34885,-3.84118c-2.06976,4.70292 -6.82406,7.62475 -12.35821,7.62475z"/><path d="M388.38978,149.12141c0,3.01102 -2.79813,5.45195 -6.24979,5.45195c-3.45167,0 -6.24979,-2.44092 -6.24979,-5.45195c0,-3.01102 2.79813,-5.45195 6.24979,-5.45195c3.45167,0 6.24979,2.44092 6.24979,5.45195z"/></g></g><path d="M364.97127,150.45986c1.78077,-7.08313 7.47091,-11.25124 14.21513,-11.25124c6.77186,0 12.48098,4.20235 14.23683,11.33848c0.17235,0.70044 -28.64949,0.69847 -28.45196,-0.08724z"/></g><g><g><path d="M316.79232,193.85651c-9.64064,-50.79154 -2.8882,-80.03135 43.38287,-78.8201c50.60379,1.32466 55.35056,23.98652 43.38287,79.92249c-6.44383,30.11794 -43.38287,12.67736 -43.38287,12.67736c0,0 -37.63373,16.50951 -43.38287,-13.77974zM341.42739,134.52647c-16.83467,11.22311 -28.6855,43.72068 -9.38739,57.65821c12.10456,8.74218 18.91109,1.59495 31.14284,1.40975c7.06447,-0.10695 15.24497,5.87798 22.18841,0.80247c7.10419,-5.19301 10.0978,-12.10948 12.10621,-20.97722c1.97208,-8.70738 2.82172,-19.49491 -1.44826,-27.5468c-4.67385,-8.81346 -18.5375,-10.80005 -27.40097,-11.90519c-5.85608,-0.73016 -11.16902,-3.82521 -17.41343,-3.64644c-1.70586,0.04884 -2.96261,0.3642 -4.02959,0.81608c-1.60884,0.55159 -3.07842,1.40308 -4.34202,2.48774c-0.24191,0.12848 -0.49368,0.2541 -0.7583,0.37539z"/><path d="M328.91973,189.96792c1.63085,5.70796 0.75857,10.96214 -1.94831,11.73553c-2.70688,0.77339 -6.22329,-3.22686 -7.85414,-8.93484c-1.63085,-5.70796 -0.75857,-10.96215 1.94831,-11.73554c2.70688,-0.77339 6.22329,3.22687 7.85414,8.93484z"/><path d="M335.98099,199.36568c1.25191,4.38169 0.58231,8.41503 -1.49562,9.00872c-2.07792,0.59369 -4.77728,-2.47709 -6.02919,-6.85878c-1.25191,-4.38169 -0.58231,-8.41503 1.49562,-9.00872c2.07792,-0.59369 4.77726,2.47709 6.02919,6.85878z"/><path d="M405.12763,144.84621c1.25191,4.38169 0.58231,8.41503 -1.4956,9.00872c-2.07791,0.59369 -4.77728,-2.47709 -6.02919,-6.85878c-1.25191,-4.38169 -0.58231,-8.41503 1.49562,-9.00872c2.07791,-0.59369 4.77726,2.47709 6.02918,6.85878z"/></g><path d="M407.79233,154.68953c0,5.20197 -1.28992,9.41901 -2.88111,9.41901c-1.5912,0 -2.88111,-4.21704 -2.88111,-9.41901c0,-5.20197 1.28992,-9.41901 2.88111,-9.41901c1.5912,0 2.88111,4.21704 2.88111,9.41901z"/><path d="M407.3392,170.46686c-0.33756,3.18338 -1.40057,5.68029 -2.3743,5.57705c-0.97374,-0.10324 -1.48946,-2.76758 -1.15192,-5.95096c0.33756,-3.18338 1.40055,-5.6803 2.3743,-5.57706c0.97374,0.10324 1.48947,2.76759 1.15192,5.95096z"/></g><g><g><g><g><path d="M332.33324,122.59817c-4.13767,-15.2163 4.40108,-30.78554 19.07182,-34.77485c14.67074,-3.98931 29.91793,5.11197 34.0556,20.32828c4.13767,15.2163 -4.40106,30.78555 -19.07179,34.77486c-14.67074,3.98931 -29.91795,-5.11198 -34.05561,-20.32828z"/><path d="M362.23436,114.75448c2.10976,7.75867 -5.76409,16.29015 -18.03396,18.87336c-36.40889,7.6653 -41.40116,-2.33907 -41.40116,-2.33907c0,0 13.58845,-16.88572 27.92314,-21.53723c14.3347,-4.65151 29.40222,-2.75573 31.51197,5.00293z"/><path d="M362.23436,114.75448c2.10976,7.75867 -5.76409,16.29015 -18.03396,18.87336c-36.40889,7.6653 -41.40116,-2.33907 -41.40116,-2.33907c0,0 10.0532,5.34336 36.34336,-2.37696c27.83219,-8.17313 22.95532,-14.65914 23.09176,-14.15734z"/></g><path d="M335.6129,110.28601c6.68046,-1.23233 12.60904,0.54966 13.24185,3.98016c0.63281,3.43051 -4.26977,7.21048 -10.95024,8.44281c-6.68046,1.23233 -12.60904,-0.54968 -13.24185,-3.98017c-0.63281,-3.43051 4.26977,-7.21047 10.95024,-8.44279z"/></g><g><g><path d="M390.34332,109.67642c19.12949,5.75988 26.87697,20.74483 26.87697,20.74483c0,0 -4.90633,10.04681 -41.37959,2.69389c-12.29157,-2.47795 -20.23827,-10.94161 -18.19509,-18.71809c2.04318,-7.77648 13.56822,-10.4805 32.69771,-4.72063z"/><path d="M380.85789,128.35593c26.35538,7.49467 36.3624,2.0653 36.3624,2.0653c0,0 -4.90633,10.04681 -41.37959,2.69389c-12.29157,-2.47795 -20.23827,-10.94161 -18.19509,-18.71809c0.13215,-0.50295 -4.68895,6.02465 23.21228,13.9589z"/></g><path d="M389.85517,118.7288c-0.63281,3.4305 -6.56139,5.2125 -13.24185,3.98017c-6.68046,-1.23233 -11.58305,-5.01229 -10.95024,-8.44281c0.63281,-3.4305 6.56139,-5.21249 13.24185,-3.98016c6.68047,1.23233 11.58305,5.01228 10.95024,8.44279z"/></g></g><g><path d="M402.99243,115.24715c-0.21743,5.3711 -18.15655,9.00615 -40.06815,8.11915c-21.9116,-0.88702 -39.4982,-5.96019 -39.28077,-11.33129c0.21743,-5.3711 18.15655,-9.00616 40.06815,-8.11915c21.9116,0.88702 39.4982,5.9602 39.28077,11.3313z"/><g><g><g><path d="M325.78646,107.81117c-1.82463,-0.78993 -1.20527,-24.72848 1.0303,-25.45144c3.21761,-1.04051 37.73641,3.79467 37.73641,3.79467c0,0 32.44174,-5.80253 38.30114,-3.26588c1.66086,0.71902 -1.66803,31.10207 -2.41545,31.34378c-1.62218,0.52458 -20.56072,-4.86008 -38.1173,-6.27378c-17.44116,-1.40441 -33.4963,1.16821 -36.53509,-0.14734z"/><path d="M325.78646,107.81117c-1.82463,-0.78993 -1.20527,-24.72848 1.0303,-25.45144c3.21761,-1.04051 34.26889,7.41793 34.26889,7.41793c0,0 35.90926,-9.42579 41.76866,-6.88913c1.66086,0.71902 -1.66803,31.10207 -2.41545,31.34378c-1.62218,0.52458 -20.56072,-4.86008 -38.1173,-6.27378c-17.44116,-1.40441 -33.4963,1.16821 -36.53509,-0.14734z"/></g><path d="M325.78646,107.81117c-1.37058,-0.59336 -1.36218,-14.24772 -0.32565,-21.3132c1.08514,1.33323 2.35535,2.67245 3.80066,4.05497c11.15548,10.67072 30.78857,12.58231 46.80975,8.78206c9.68058,-0.10063 20.67019,-6.9972 27.2396,-13.47813c0.08044,7.79172 -2.26027,28.1776 -2.87195,28.37542c-1.62218,0.52458 -20.56072,-4.86008 -38.1173,-6.27378c-17.44116,-1.40441 -33.4963,1.16821 -36.53509,-0.14734z"/></g><path d="M319.64709,112.316c-2.1398,-0.27317 -2.29193,-6.52255 0.26842,-6.63083c3.68506,-0.15585 21.4593,-0.84037 41.85345,-0.25293c18.34691,0.52847 39.27092,2.27371 46.14241,3.15096c1.94773,0.24865 -0.80121,8.08814 -1.65722,8.12435c-1.85786,0.07857 -22.65953,-2.6011 -43.02408,-3.60863c-20.23067,-1.00091 -40.0193,-0.32794 -43.58298,-0.7829z"/></g></g></g></g></g></svg>