<svg version="1.1" xmlns="http://www.w3.org/2000/svg" xmlns:xlink="http://www.w3.org/1999/xlink" width="756.37915" height="413.58846" viewBox="0,0,756.37915,413.58846"><defs><linearGradient x1="-14.91872" y1="181.05812" x2="145.5138" y2="181.05812" gradientUnits="userSpaceOnUse" id="color-1"><stop offset="0" stop-color="#000000"/><stop offset="1" stop-color="#000000" stop-opacity="0"/></linearGradient><linearGradient x1="739.12915" y1="177.81487" x2="578.69663" y2="177.81487" gradientUnits="userSpaceOnUse" id="color-2"><stop offset="0" stop-color="#000000"/><stop offset="1" stop-color="#000000" stop-opacity="0"/></linearGradient><linearGradient x1="361.1942" y1="-17.14009" x2="361.1942" y2="110.48755" gradientUnits="userSpaceOnUse" id="color-3"><stop offset="0" stop-color="#000000"/><stop offset="1" stop-color="#000000" stop-opacity="0"/></linearGradient><linearGradient x1="360.19069" y1="377.38049" x2="360.19069" y2="249.75285" gradientUnits="userSpaceOnUse" id="color-4"><stop offset="0" stop-color="#000000"/><stop offset="1" stop-color="#000000" stop-opacity="0"/></linearGradient></defs><g transform="translate(17.25,36.20799)"><g stroke-miterlimit="10"><g stroke="#000000" stroke-linecap="butt"><path d="M-9.25,374.25003v-387h735v387z" fill="#212121" stroke-width="0"/><path d="M152.99938,127.26764c-0.0176,0.24938 -0.26698,0.23178 -0.26698,0.23178l-0.00634,-0.00044c-0.4059,-0.02865 -1.88378,0.07413 -2.1595,-0.21887c-0.44575,-0.4737 -0.27246,-3.3323 -0.2711,-4.02571c-0.43033,-0.18924 -1.50809,-0.55735 -1.76118,-0.94989c-0.45788,-0.71021 0.27633,-2.35938 -0.19501,-2.97664c-0.42199,-0.55263 -2.17788,-0.49059 -2.78284,-0.93809c-0.5959,-0.44079 -1.09043,-1.46901 -1.53065,-2.06977c-0.43573,-0.59463 -1.2846,-1.38956 -1.51354,-2.08628c-0.74448,-2.26571 0.18079,-5.73305 -3.27327,-5.7342c-0.32934,-0.00019 -1.42196,0.09814 -1.66723,-0.1273c-0.25197,-0.23161 0.05239,-0.75061 -0.16736,-1.01299c-0.41326,-0.49341 -1.65677,-0.35974 -2.40439,-0.64565c0,2.34548 0,4.69097 0,7.03645c0,1.31209 0.23872,3.55544 -0.99355,4.48819c-0.66153,0.50074 -2.54492,-0.20371 -2.96075,0.19163c-0.24409,0.23206 -0.04548,2.40165 -0.04555,2.81506c-0.0003,1.88962 -0.05873,5.01699 -2.06797,6.13226c-0.86666,0.48105 -3.125,0.12101 -4.11987,0.12147c-3.50004,0.0016 -7.00007,0.0014 -10.50011,0.0014c-3.5,0 -7,0 -10.5,0c-3.55263,0 -6.98012,0.00531 -10.50048,-0.49317c-3.68224,-0.5214 -6.14241,-2.48209 -9.86782,-2.49644c-3.49966,-0.01349 -6.99934,-0.01035 -10.49902,-0.01037c-1.147,-0.00001 -2.83828,-0.32354 -3.93099,-0.00973c-1.79572,0.5157 -3.83719,2.44896 -5.39687,3.48426c-0.74404,0.43035 -0.43106,2.2769 -0.60056,3.10429c-0.50559,2.46806 -1.97839,3.92946 -2.00113,6.4631c-0.0314,3.49899 -0.01532,6.99857 -0.01534,10.49769c0,1.88963 -0.33187,5.10294 0.89616,6.65944c0.46881,0.5942 2.57736,0.27704 3.24188,0.28401c0.49997,0.00525 0.99994,0.01049 1.49992,0.01573l0.11467,0.0012c0,0 0.24998,0.00262 0.24736,0.25261c-0.00262,0.24999 -0.25261,0.24736 -0.25261,0.24736c-0.49997,-0.00525 -1.11462,-0.0117 -1.61459,-0.01694c-0.88315,-0.00926 -2.99625,0.32794 -3.62917,-0.47428c-1.31952,-1.67247 -1.00362,-4.95371 -1.00362,-6.96914c0.00001,-3.50062 -0.01606,-7.00169 0.01535,-10.50218c0.02326,-2.59242 1.49938,-4.06017 2.01127,-6.55896c0.22875,-1.11662 -0.16519,-2.71284 0.81387,-3.42052c1.6093,-1.06825 3.6775,-3.01469 5.53537,-3.54825c1.14872,-0.3299 2.86845,-0.00971 4.06901,-0.0097c3.50033,0.00002 7.00064,-0.00312 10.50095,0.01037c3.76655,0.01452 6.23879,1.97786 9.936,2.50138c3.49705,0.49518 6.90093,0.48823 10.43038,0.48823c3.5,0 7,0 10.5,0c3.49996,0 6.99992,0.0002 10.49988,-0.0014c0.88808,-0.00041 3.12582,0.35858 3.87744,-0.05863c1.83743,-1.0199 1.81036,-3.98548 1.81063,-5.69518c0.00009,-0.58786 -0.23836,-2.75961 0.20104,-3.17735c0.60354,-0.5738 2.29883,0.30546 3.00349,-0.22793c1.06655,-0.80733 0.79531,-2.96526 0.79531,-4.08952c0,-2.47606 0,-4.95212 0,-7.42818c-0.52882,-0.94259 0,-4.03929 0,-5.07182c0,-2.33334 0,-4.66666 0,-7c0,-0.40657 0,-0.81314 0,-1.21971c-0.80658,-0.2296 -1.61316,-0.45919 -2.41974,-0.68879c-3.37389,-0.9604 -6.70351,-1.90987 -10.14686,-2.58456c-3.43469,-0.67298 -6.86937,-1.34598 -10.30406,-2.01896c-0.46445,-0.091 -1.74885,-0.12722 -2.08691,-0.44875c-1.62592,-1.54644 -1.04243,-6.55785 -1.04243,-8.56307c0,-3.5 0,-7 0,-10.5c0,-3.49999 0.0001,-6.99999 -0.00002,-10.49999c-0.00005,-1.65915 0.37539,-3.8349 -0.00509,-5.44241c-0.37426,-1.58122 -1.72232,-2.91305 -2.1202,-4.51396c-0.55792,-2.27272 -1.08708,-4.54107 -1.5526,-6.83458c-0.19199,-0.94588 -0.20508,-2.49061 -0.87406,-3.18898c-0.93464,-1.01787 -2.93406,-2.48417 -3.43062,-3.76141c-0.54405,-1.39939 -0.01227,-4.08433 0.01009,-5.59412c0.0229,-1.54595 0.08231,-3.17351 1.18003,-4.40913c0.63829,-0.71847 2.39538,-1.15045 2.82037,-1.97257c0.23552,-0.4556 -0.02792,-1.84607 -0.02792,-2.3852c-0.00001,-3.49911 0.01362,-6.99848 -0.02105,-10.49742c-0.01466,-1.47961 0.33764,-3.51724 -0.0411,-4.93783c-0.41728,-1.56516 -1.86968,-3.3173 -2.66713,-4.73901c-1.51001,-2.7798 0.08552,-7.21667 -1.10121,-10.33792c-1.25312,-3.29588 -2.51564,-6.46924 -4.13753,-9.60167c-1.72991,-3.34106 -3.48359,-5.60869 -6.142,-8.26829c-2.19307,-2.19404 -4.12565,-4.26947 -5.848,-6.853c0,0 -0.13868,-0.20802 0.06934,-0.34669c0.20802,-0.13867 0.34669,0.06934 0.34669,0.06934c1.70462,2.55692 3.61458,4.60488 5.7856,6.77688c2.6881,2.68929 4.4828,5.0128 6.23238,8.39186c1.63057,3.14921 2.9011,6.3405 4.16088,9.65388c0.87695,2.30649 0.7685,4.50024 0.80843,6.95355c0.01611,0.99007 -0.23882,2.46068 0.2615,3.31746c0.82068,1.46313 2.28373,3.24025 2.71417,4.85481c0.39186,1.46981 0.04283,3.53472 0.05795,5.06168c0.03467,3.5006 0.02106,7.00161 0.02107,10.50238c0,0.63958 0.2628,2.05245 -0.02792,2.61481c-0.47804,0.92471 -2.20199,1.29978 -2.89074,2.07504c-1.01579,1.1434 -1.03277,2.65957 -1.05388,4.08446c-0.0212,1.43055 -0.55492,4.09143 -0.04402,5.40554c0.46408,1.1937 2.45081,2.64377 3.33289,3.60441c0.74379,0.83671 0.77455,2.33772 0.99578,3.4277c0.46418,2.28692 0.99185,4.54865 1.54818,6.81484c0.38854,1.60493 1.74479,2.92786 2.12117,4.518c0.39108,1.65224 0.01848,3.85518 0.01853,5.55755c0.00011,3.50001 0.00002,7 0.00002,10.5c0,3.5 0,7 0,10.5c0,1.46947 -0.02572,2.86164 0.1148,4.26154c2.81212,-0.19029 4.75684,-2.54337 7.27128,-3.91488c3.06737,-1.67311 6.13284,-3.34978 9.20245,-5.01878c2.79328,-2.09892 5.59255,-4.18986 8.38774,-6.28625c2.65984,-1.99487 5.50196,-4.86647 8.58478,-6.10469c1.69277,-0.6799 5.03752,-2.54243 6.91225,-1.61976c0.78465,0.38617 1.57625,1.94502 2.39816,2.53947c1.40565,1.01664 3.22899,2.82184 4.87131,3.37181c1.21232,0.40597 3.14103,0.04273 4.41941,0.04391c3.49992,0.00325 6.99985,0.00147 10.49977,0.00147c3.62842,0 6.9005,0.1722 10.46374,0.87252c1.00649,0.20017 3.85875,-0.44212 4.60326,0.18468c0.30699,0.25845 0.07942,0.7531 0.23942,1.05937c0.8208,1.57121 2.63775,1.99175 3.06608,3.87038c0.84589,3.71009 2.38316,6.04697 4.52826,9.17431c2.01767,2.94158 3.77756,5.84015 5.3961,9.01937c1.59382,3.13065 3.3781,6.08613 5.22798,9.07175c2.32963,3.75992 4.2835,3.74603 8.51192,3.7476c3.49999,0.00001 6.99996,0.00002 10.49995,0.00002c0.16666,0 0.33334,0 0.5,0h0.05134c0,0 0.25,0 0.25,0.25c0,0.25 -0.25,0.25 -0.25,0.25c-0.16666,0 -0.38468,0 -0.55134,0c-3.50001,0 -7.00003,-0.00001 -10.50004,-0.00002c-4.37531,-0.00162 -6.51649,-0.07788 -8.93685,-3.98425c-1.85717,-2.99738 -3.6484,-5.96523 -5.24853,-9.10826c-1.60905,-3.16057 -3.35698,-6.03902 -5.36285,-8.96339c-2.17529,-3.17136 -3.74441,-5.57836 -4.60342,-9.34599c-0.40245,-1.76514 -2.23133,-2.23694 -3.02176,-3.75002c-0.14139,-0.27065 0.11532,-0.71173 -0.11827,-0.90838c-0.54186,-0.45619 -3.54169,0.08596 -4.37767,-0.07656c-3.53323,-0.69442 -6.76887,-0.86313 -10.36731,-0.86313c-3.50008,0 -7.00016,0.00177 -10.50024,-0.00147c-1.34146,-0.00124 -3.30151,0.35757 -4.57772,-0.06979c-1.70066,-0.5695 -3.55396,-2.39092 -5.00556,-3.44079c-0.78101,-0.56487 -1.61972,-2.14843 -2.32593,-2.496c-1.68632,-0.82993 -4.9832,1.02384 -6.50511,1.63511c-3.03698,1.21981 -5.84969,4.07464 -8.47113,6.04072c-2.80481,2.1036 -5.60909,4.20797 -8.41742,6.30688c-3.07578,1.68268 -6.15547,3.35827 -9.23335,5.03711c-2.59424,1.41504 -4.54095,3.76296 -7.45355,3.97308c0.0698,0.53647 0.16724,1.07555 0.30303,1.62197c0.08471,0.34087 0.1828,1.60207 0.41204,1.8201c0.22924,0.21803 1.49377,0.25284 1.83846,0.32038c3.43469,0.67298 6.86938,1.34598 10.30407,2.01896c3.45709,0.67737 6.80033,1.63013 10.1876,2.59434c0.76095,0.21661 1.5219,0.43321 2.28285,0.64982c0,-0.08681 0,-0.17362 0,-0.26043c0,0 0,-0.25 0.25,-0.25c0.25,0 0.25,0.25 0.25,0.25c0,0.13425 0,0.26851 0,0.40276c2.43866,0.69418 4.87732,1.38836 7.31598,2.08254c3.36628,0.95823 6.73254,1.91647 10.09882,2.8747c3.36395,0.95757 6.6693,2.16617 9.98919,3.26707c2.02175,0.67042 3.61173,1.09137 5.74504,1.10559c0.5045,0.00337 2.29735,-0.25371 2.6664,0.08164c0.3503,0.31832 0.18408,1.742 0.18417,2.17974c0.00071,3.50002 0.00041,7.00003 0.00041,10.50005c0,3.5 0,7 0,10.5c0,1.30577 0.66548,0.99539 1.67849,1.69272c2.03409,1.40021 4.53112,2.01918 5.84788,4.39423c1.03241,1.87968 3.36748,2.93054 4.40241,4.75678c0.59488,1.04972 0.71029,2.76467 1.00813,3.93906c0.91061,3.59063 2.4184,6.19973 4.3482,9.3517c1.47785,2.4138 5.21579,6.23243 5.52816,8.99042c0.02256,0.22571 -0.03052,1.20086 0.0969,1.36287c0.20724,0.26348 0.74766,0.06744 0.94771,0.33642c0.2698,0.36276 -0.17401,1.7357 0.06481,1.96786c0.10779,0.10478 1.59652,-0.04016 1.82976,-0.03613l0.00188,0.00003c0,0 0.24997,0.00432 0.24564,0.25429c-0.00432,0.24997 -0.25429,0.24564 -0.25429,0.24564l-0.00188,-0.00003c-0.40414,-0.00699 -1.88289,0.17346 -2.16963,-0.10528c-0.43249,-0.42042 0.18331,-1.62354 -0.11749,-2.02799c-0.1978,-0.26596 -0.73459,-0.06518 -0.93951,-0.3257c-0.20995,-0.26692 -0.16663,-1.27412 -0.20142,-1.62226c-0.0824,-0.99272 -1.1199,-2.05411 -1.67045,-2.88193c-1.29554,-1.94799 -2.56502,-3.90186 -3.78662,-5.89712c-1.9532,-3.1902 -3.48406,-5.85284 -4.40643,-9.48986c-0.28538,-1.12528 -0.3906,-2.81339 -0.95847,-3.81545c-1.03025,-1.81796 -3.3575,-2.88752 -4.4047,-4.76086c-1.45143,-2.61795 -7.58908,-3.55344 -7.58908,-6.32939c0,-3.5 0,-7 0,-10.5c0,-3.49998 0.0003,-6.99997 -0.00041,-10.49995c-0.00005,-0.25254 0.13976,-1.66424 -0.02042,-1.8098c-0.18487,-0.16799 -1.99667,0.05055 -2.33349,0.0483c-2.18078,-0.01454 -3.83484,-0.44648 -5.89907,-1.13099c-3.31309,-1.09864 -6.61166,-2.30515 -9.9687,-3.26076c-3.36628,-0.95823 -6.73255,-1.91647 -10.09882,-2.8747c-2.39303,-0.68119 -4.78605,-1.36239 -7.17908,-2.04358c0,0.35913 0,0.71825 0,1.07738c0,2.33334 0,4.66666 0,7c0,0.66666 0,1.33334 0,2c0,0.97007 0,1.94012 0,2.91019c0.50842,0.52794 2.27386,0.26446 2.7877,0.87797c0.20839,0.24881 -0.11652,0.74629 0.12242,0.96591c0.10086,0.09271 1.16453,-0.0046 1.32903,-0.00458c3.80632,0.00127 2.93124,3.59211 3.74812,6.07812c0.20876,0.63533 1.04126,1.40017 1.44182,1.94682c0.40686,0.55522 0.87778,1.55875 1.4247,1.96332c0.68677,0.50802 2.35416,0.34419 2.88289,1.03662c0.54284,0.7109 -0.23717,2.30338 0.21785,3.00915c0.2047,0.31751 1.4168,0.74062 1.75992,0.94796c0.07959,0.62202 -0.10225,3.61745 0.21625,3.95593c0.10822,0.115 1.59319,0.046 1.83057,0.06276l0.00633,0.00044c0,0 0.24938,0.0176 0.23178,0.26698z" fill="#000000" stroke-width="0.5"/><path d="M492.99927,67.23086c0.01916,0.24926 -0.2301,0.26843 -0.2301,0.26843l-0.42248,0.03248c-2.24909,0.17291 -4.0477,0.96895 -6.33949,0.97244c-0.91348,0.00137 -2.54892,-0.19302 -3.38193,0.20376c-0.70003,0.33344 -1.04786,1.46765 -1.77901,1.77277c-0.312,0.1302 -1.75433,-0.20936 -1.91901,-0.04381c-0.13919,0.13993 0.07275,2.02009 0.07275,2.3237c0,3.5 0,7 0,10.5c0,3.50982 0.08343,7.01391 -0.21256,10.51218c-0.2149,1.16348 -7.18458,1.1567 -8.40484,0.27513c-0.4173,-0.30147 -0.7618,-1.3432 -1.00786,-1.80256c-0.87108,-0.76469 -2.03128,-1.16244 -2.85719,-1.90634c-0.71269,-0.64193 -1.09188,-2.43557 -1.90493,-2.86831c-0.64429,-0.34292 -2.61699,0.02931 -3.38254,0.0293c-0.9168,-0.00002 -3.99246,0.48384 -4.6695,-0.18375c-0.25119,-0.24769 0.01171,-0.73986 -0.16456,-1.04544c-0.61885,-1.07282 -2.92478,-2.18951 -3.93337,-2.9552c-0.04328,-0.04309 -0.0876,-0.08866 -0.13288,-0.13646c-0.73291,1.15661 -1.69,2.62577 -2.39477,3.21861c-1.05646,0.88867 -3.43059,1.28436 -4.72942,1.90373c-0.14087,0.01232 -0.31371,0.03302 -0.51112,0.0591c-0.63416,0.60491 -1.26707,1.20992 -1.90573,1.80528c-2.56014,2.38657 -5.12027,4.77313 -7.68041,7.1597c-2.39788,2.23531 -3.57131,6.03221 -5.08859,8.93164c-0.01778,1.4567 -0.62676,4.53634 -0.04174,5.83588c0.43807,0.9731 2.48569,2.17175 3.30671,2.8988c2.62027,2.32037 5.24056,4.64075 7.86083,6.96113c1.88804,1.67195 3.78097,3.3276 5.61881,5.04698c2.99523,0 5.99045,0 8.98568,0c3.5,0 7,0 10.5,0c3.5,0 7,0 10.5,0c3.53816,0 6.92239,-0.11724 10.43424,-0.55622c3.56645,-0.4458 6.61367,-1.61306 9.97502,-2.86713c1.13518,-0.42351 3.25936,-0.69718 4.18127,-1.43698c1.2419,-0.99658 2.0598,-3.78729 2.7772,-5.19794c1.70091,-3.31536 4.79487,-4.4092 7.49161,-6.98951c2.48089,-2.37377 3.06083,-5.98297 4.5753,-9.10873c1.23199,-2.4622 0.31521,-7.57535 0.31529,-10.33961c0.00006,-2.18485 0.20887,-5.60523 1.99503,-7.25595c0.60557,-0.55965 2.1111,-0.81593 2.88839,-1.10913c3.27677,-1.23604 6.53723,-2.5266 9.85863,-3.63758c3.31529,-1.10894 6.62999,-2.2197 9.94599,-3.32653c3.18748,-1.43559 6.37666,-2.86739 9.56505,-4.30094c3.80385,-1.71027 3.74505,-4.73438 3.7469,-8.47894c0.00006,-1.83331 0.00007,-3.66663 0.00007,-5.49994c0,-0.30794 -0.13631,-1.45175 0.06695,-1.67027c0.80141,-0.86156 2.88639,0.13321 3.61061,0.53529c2.69876,1.49833 7.12246,2.96345 9.19507,4.97645c2.50527,2.43321 5.01516,4.86176 7.51514,7.30039c1.3365,0.88813 7.10945,5.64502 7.61392,3.17963l0.00338,-0.0165c0,0 0.05012,-0.24492 0.29504,-0.19481c0.24492,0.05012 0.19481,0.29504 0.19481,0.29504l-0.00338,0.0165c-0.69268,3.38516 -6.83297,-1.82816 -8.41807,-2.891c-2.52098,-2.43878 -5.03305,-4.88682 -7.5492,-7.33059c-2.02427,-1.96603 -6.4373,-3.42555 -9.08942,-4.89798c-0.53333,-0.2961 -2.41269,-1.26523 -3.00181,-0.63189c-0.10521,0.11311 0.06695,1.59389 0.06695,1.82973c0,1.66669 -0.00002,3.33338 -0.00007,5.00007c-0.00194,3.93767 -0.04276,7.13677 -4.04186,8.93484c-3.19597,1.43696 -6.39121,2.87557 -9.58804,4.31059c-3.3225,1.11359 -6.64626,2.22344 -9.96943,3.33502c-3.31539,1.10897 -6.56993,2.39742 -9.84078,3.63123c-0.70422,0.26564 -2.18552,0.50948 -2.72549,1.0085c-1.67993,1.55254 -1.83433,4.83642 -1.83439,6.88877c-0.00009,2.92489 0.88153,7.91513 -0.36533,10.5576c-1.54445,3.18762 -2.13965,6.82171 -4.67959,9.25198c-2.65524,2.5406 -5.75121,3.59709 -7.39161,6.85489c-0.75826,1.49098 -1.5904,4.30237 -2.90994,5.36125c-0.98253,0.78844 -3.12065,1.06823 -4.31943,1.51547c-3.39667,1.26725 -6.48237,2.44413 -10.08777,2.89481c-3.53193,0.44149 -6.93804,0.56009 -10.49626,0.56009c-3.5,0 -7,0 -10.5,0c-3.5,0 -7,0 -10.5,0c-2.81827,0 -5.63654,0 -8.45482,0c0.53904,0.51125 1.07278,1.02871 1.59967,1.55445c2.47764,2.47224 4.95643,4.94331 7.43138,7.41824c2.60447,2.60445 4.16568,5.62107 5.02191,9.09911c0.65945,2.67872 0.40516,8.01794 2.22778,9.97584c2.41028,2.58918 4.29191,5.48136 6.27448,8.40738c2.46212,2.4861 5.30141,4.42378 7.75742,6.84349c3.46897,0.11962 6.91958,0.20054 10.39423,0.20106c3.49998,0.00054 6.99998,0.00042 10.49996,0.00042c3.5,0 7,0 10.5,0c2.66086,0.0374 7.41267,3.55812 8.8716,5.59619c1.96573,2.74606 6.53081,2.20914 9.12163,4.41828c2.13969,1.82448 4.17809,3.86363 6.63698,4.97504c0.65116,0.29432 0.7813,0.97102 1.54484,0.95185c3.58473,0.0377 6.85216,-0.16837 10.39022,-0.75023c3.35642,-0.55197 6.63827,-2.3445 9.86511,-3.42721c1.55716,-0.52248 3.56605,-1.24362 4.75547,-2.44649c0.53375,-0.53979 0.70963,-1.7546 1.35734,-2.16315c0.58744,-0.37054 1.95615,-0.14764 2.62708,-0.14901c3.16459,-0.00647 7.58191,-0.77973 10.52255,0.37862c1.1726,0.46191 2.45354,1.18962 3.68265,1.45423c0.86752,0.18677 2.28017,-0.24916 3.06206,0.17065c0.79657,0.42768 1.61586,2.15592 2.15697,2.89156c2.13554,2.90331 3.21866,6.05191 4.60865,9.39054c0.25837,0.62058 0.54472,3.58646 0.72273,3.76684c0.2342,0.23733 0.76635,-0.22075 1.00016,0.01697c0.40751,0.41432 -0.14965,1.59065 0.05292,2.07962c0.32787,0.79145 1.80041,1.77351 2.42069,2.39378c1.96191,1.96191 1.00425,3.09288 1.58844,5.53129c0.3848,1.60617 0.87966,2.61306 0.91436,4.35945c0.03976,2.00117 0.09346,4.00233 0.09433,6.00396c0.00023,0.52288 -0.26414,1.94688 -0.02907,2.38108c0.18037,0.33316 1.25428,0.78372 1.59112,1.00385l0.32593,0.213c0,0 0.20928,0.13676 0.07252,0.34604c-0.13676,0.20927 -0.34604,0.07251 -0.34604,0.07251l-0.32594,-0.21299c-0.42268,-0.27622 -1.51987,-0.74581 -1.75729,-1.18435c-0.29597,-0.5467 -0.03096,-1.9905 -0.03123,-2.61891c-0.00086,-1.99839 -0.05453,-3.99631 -0.09423,-5.99425c-0.03446,-1.73428 -0.51873,-2.65855 -0.9007,-4.25289c-0.56659,-2.36495 0.4038,-3.43467 -1.45576,-5.29423c-0.67773,-0.67773 -2.16518,-1.67761 -2.52906,-2.55597c-0.13165,-0.31778 0.2216,-1.74848 0.05253,-1.92038c-0.23367,-0.23757 -0.7655,0.22081 -0.99957,-0.01637c-0.33818,-0.34268 -0.53011,-3.2093 -0.82844,-3.92588c-1.37546,-3.30373 -2.43849,-6.41602 -4.54983,-9.28644c-0.48469,-0.65895 -1.29455,-2.37354 -1.9907,-2.74731c-0.69017,-0.37055 -2.13901,0.04809 -2.93078,-0.12237c-1.25809,-0.27086 -2.56134,-1.00539 -3.76067,-1.47782c-2.86714,-1.12941 -7.24832,-0.35016 -10.33827,-0.34384c-0.54922,0.00113 -1.8902,-0.22527 -2.36135,0.07192c-0.56077,0.35372 -0.78367,1.60144 -1.26855,2.09181c-1.24562,1.25971 -3.32245,2.02221 -4.95195,2.56896c-3.25441,1.09196 -6.55708,2.88972 -9.94302,3.44655c-3.56482,0.58625 -6.86494,0.79481 -10.47662,0.75682c-0.93228,-0.03341 -0.99619,-0.6575 -1.74552,-0.9962c-2.50936,-1.13423 -4.57731,-3.19294 -6.75545,-5.0502c-2.65031,-2.25987 -7.15122,-1.64032 -9.20379,-4.50771c-1.33482,-1.8647 -6.02438,-5.43132 -8.46503,-5.38724c-3.5,0 -7,0 -10.5,0c-3.50002,0 -7.00002,0.00012 -10.50004,-0.00042c-3.53229,-0.00054 -7.07126,0.08512 -10.59171,-0.24176c-2.69281,-2.36101 -5.41339,-4.4069 -7.9461,-6.9853c-1.98932,-2.91028 -3.84985,-5.80139 -6.2542,-8.3842c-1.92994,-2.07318 -1.65591,-7.38849 -2.34731,-10.19701c-0.83472,-3.39069 -2.34656,-6.3217 -4.88996,-8.86507c-2.47482,-2.4748 -4.95348,-4.94575 -7.43099,-7.41785c-2.47776,-2.47235 -5.10756,-4.76083 -7.72767,-7.08105c-2.62027,-2.32037 -5.24056,-4.64075 -7.86084,-6.96113c-0.88935,-0.78756 -2.94851,-1.99577 -3.43115,-3.06788c-0.63201,-1.4039 -0.04426,-4.61518 0.01286,-6.16345c1.47146,-2.98916 2.79336,-6.9013 5.23246,-9.17504c2.56014,-2.38657 5.12027,-4.77313 7.68041,-7.1597c0.46849,-0.43673 0.93393,-0.87855 1.39903,-1.32167c-1.67431,0.23496 -4.04856,0.53997 -4.84506,-0.02497c-0.70277,-0.49845 -1.39873,-3.63486 -1.45511,-4.46347c-0.021,-0.3305 -0.10212,-0.97548 -0.16627,-1.68824c-0.17354,-0.0751 -0.34636,-0.15489 -0.51844,-0.23968c-3.42722,-1.68877 -6.23158,-1.56106 -10.02882,-1.56208c-3.79607,-0.00004 -6.61128,-0.14974 -8.65699,3.48065c-0.10627,1.57934 0.27988,5.38108 -1.26505,6.42753c-1.17187,0.79376 -2.54548,-0.35319 -3.74935,0.7683c-2.53503,0.29387 -5.04357,0.3231 -7.59226,0.32328c-0.68104,0.00005 -2.24613,-0.30971 -2.53456,0.30813c-1.8522,3.19424 -4.03019,5.50855 -6.627,8.12192c-1.34539,1.35397 -2.16669,2.89159 -3.35495,4.25708c-0.99918,1.14821 -2.90239,2.01602 -4.15922,2.88493c-1.81277,1.25326 -2.22156,4.04368 -3.836,5.07704c-0.8217,0.52595 -3.1286,0.26389 -4.11411,0.33717c-3.50317,0.00784 -7.00634,0.01358 -10.50952,0.01382c-3.5,0.00024 -7.00002,0.0001 -10.50002,0.00011c-3.5,0.00001 -7,0.00001 -10.5,0.00001c-0.5482,-0.10798 -0.43345,1.65959 -0.43335,2.24161c0.00042,2.49999 -0.00048,4.99999 -0.00072,7.49999c0,3.37308 -0.46119,7.1206 0.35565,10.39486c0.40332,1.61665 0.66825,3.76046 1.51811,5.20859c0.92268,1.57222 2.07029,2.31451 2.70416,4.1444c0.43767,1.26349 1.78592,0.87343 3.10048,0.94875c2.15087,0.12322 4.4604,0.70393 6.26656,1.85982c2.9504,1.88817 5.704,4.07816 8.51048,6.17347c1.00916,0.75344 2.20279,2.48596 3.30191,2.95982c1.55845,0.6719 4.36159,-0.03264 6.06757,0.13387c0.6589,3.41907 -7.10183,2.39623 -9.35867,2.42554c-1.46614,0.0065 -3.24262,1.07676 -4.61421,1.60371c-0.31964,0.1228 -1.42389,0.44048 -1.50038,0.86067c-0.11689,0.64207 1.67723,2.0855 2.07644,2.513c0.76621,0.82052 1.08806,1.36788 2.20631,1.51459l0.14811,0.01944c0,0 0.24788,0.03252 0.21536,0.28039c-0.03252,0.24787 -0.28039,0.21535 -0.28039,0.21535l-0.14812,-0.01943c-1.25486,-0.16464 -1.66807,-0.77101 -2.50671,-1.6691c-0.55564,-0.59502 -2.37303,-2.00934 -2.20292,-2.9438c0.23374,-1.28394 5.47534,-2.85211 6.60001,-2.87479c1.99523,-0.02591 8.7846,0.8531 9.02845,-1.55596c-1.36197,0.26753 -4.64291,0.51005 -5.9288,-0.04434c-1.16197,-0.50096 -2.34832,-2.23082 -3.4031,-3.01831c-2.79681,-2.0881 -5.54064,-4.27134 -8.48086,-6.15299c-1.73606,-1.11103 -3.95773,-1.6633 -6.02564,-1.78178c-1.51853,-0.087 -2.99583,0.29918 -3.54434,-1.28427c-0.62435,-1.80242 -1.74781,-2.49567 -2.66293,-4.05499c-0.87729,-1.49488 -1.15609,-3.67344 -1.57202,-5.34063c-0.82759,-3.31732 -0.37052,-7.09928 -0.37052,-10.51592c0.00025,-2.66093 -0.12114,-5.35372 0.00104,-8.01147c0.04412,-0.95974 -0.14341,-2.12495 0.93303,-2.2301c3.5,0 7,0 10.5,-0.00001c3.5,-0.00001 6.99999,0.00013 10.49998,-0.00011c3.49683,-0.00024 6.99363,-0.00794 10.49045,-0.01345c0.87198,-0.06542 3.16111,0.19103 3.86367,-0.25866c0.41668,-0.26671 0.87511,-1.6388 1.12922,-2.09672c0.7657,-1.37983 1.39396,-2.07308 2.69199,-2.97048c1.21804,-0.8421 3.10048,-1.69191 4.06637,-2.80187c1.18899,-1.36634 2.02972,-2.92494 3.37746,-4.28128c2.56912,-2.58549 4.71761,-4.86173 6.54913,-8.02031c0.58259,-0.89148 1.95559,-0.55725 2.96706,-0.55732c2.48118,-0.00017 4.90967,-0.13905 7.38263,-0.2772c1.19031,-1.24935 2.56907,0.02318 3.67862,-0.72836c1.35435,-0.91736 0.94176,-4.76886 1.06635,-6.15662c2.08066,-3.89333 5.14306,-3.83764 9.13615,-3.8376c3.86696,0.00105 6.75124,-0.11032 10.24975,1.61358c0.08382,0.0413 0.16782,0.08138 0.252,0.12026c-0.07008,-1.0243 -0.06737,-2.05516 0.21996,-2.41472c0.76021,-0.9513 5.03333,-0.31915 6.17085,-0.31915c1.36293,0 3.84336,-0.49093 5.09429,0.01846c0.95837,0.39025 2.01215,1.64893 2.91805,2.72708c2.34161,-1.71957 4.68322,-3.43914 7.02484,-5.1587c2.26707,-1.66482 6.87377,-3.8523 8.24298,-6.2754c1.75748,-3.02675 3.51497,-6.05352 5.27245,-9.08027c1.78449,-3.07326 1.19011,-6.47734 1.2065,-9.99599c-1.11641,-3.2651 -1.98545,-6.71389 -3.40312,-9.85959c-1.43805,-3.19092 -2.8761,-6.38186 -4.31415,-9.57278c-1.40958,-3.12776 -2.54306,-6.5848 -4.7301,-9.23576c-2.22735,-2.69981 -4.45468,-5.39961 -6.68203,-8.09941c-2.21883,-2.68948 -4.35562,-5.48625 -6.71318,-8.0548c-2.3667,-2.57851 -4.7334,-5.15702 -7.1001,-7.73554c-2.39123,-2.60524 -4.89351,-4.89734 -7.57898,-7.19664c-2.38233,-2.03974 -4.51765,-3.60338 -7.32497,-5.00704c0,0 -0.22361,-0.11181 -0.1118,-0.33541c0.11181,-0.2236 0.33541,-0.1118 0.33541,-0.1118c2.8404,1.4202 5.01686,3.01127 7.42656,5.07444c2.70023,2.31193 5.21768,4.61868 7.62215,7.23835c2.3667,2.57852 4.73341,5.15703 7.1001,7.73554c2.36354,2.57507 4.50605,5.37842 6.73051,8.07472c2.22735,2.6998 4.45468,5.39961 6.68203,8.09941c2.21789,2.68834 3.37124,6.17763 4.80025,9.34852c1.43805,3.19093 2.8761,6.38185 4.31415,9.57277c1.43163,3.17668 2.35572,6.67239 3.44069,9.98419c0.02974,3.62006 0.56986,7.16354 -1.26752,10.3279c-1.75748,3.02676 -3.51497,6.05352 -5.27245,9.08027c-1.49968,2.52684 -5.99407,4.67565 -8.37943,6.42733c-2.27418,1.67005 -4.54837,3.3401 -6.82255,5.01015c0.00457,0 0.00913,0 0.0137,0h0.5c0.13807,0 0.25,0.11193 0.25,0.25c0,0.06903 -0.02799,0.13153 -0.07322,0.17678l-0.32028,0.32028c0.06304,0.06755 0.12455,0.13154 0.18441,0.19141c1.07017,0.80854 3.37443,1.9318 4.0382,3.08251c0.15704,0.27224 -0.14128,0.71858 0.08251,0.93924c0.48664,0.47984 3.5924,0.03976 4.31845,0.03977c0.87343,0.00001 2.85546,-0.37624 3.61745,0.02931c0.9192,0.48923 1.23525,2.24517 2.00465,2.93817c0.84461,0.76074 2.02765,1.16528 2.91414,1.96695c1.32871,2.39489 3.08535,2.05774 5.73026,2.06197c0.6331,0.00101 2.85262,0.26572 2.79264,-0.26578c0.2948,-3.48412 0.21078,-6.97434 0.21078,-10.47002c0,-3.5 0,-7 0,-10.5c0,-0.48239 -0.26433,-2.33743 0.07275,-2.67631c0.40814,-0.4103 1.59474,0.13789 2.08094,-0.065c0.69367,-0.28948 1.05874,-1.43036 1.75655,-1.76274c0.91609,-0.43636 2.59895,-0.25081 3.59618,-0.25235c2.27762,-0.00347 4.05613,-0.79832 6.30193,-0.97097l0.42248,-0.03248c0,0 0.24926,-0.01917 0.26843,0.2301zM451.31404,82.00002c-0.85098,-1.02105 -1.82623,-2.16975 -2.68259,-2.51846c-1.16282,-0.47351 -3.6245,0.01846 -4.90571,0.01846c-0.91098,0 -5.2239,-0.5649 -5.78025,0.13129c-0.21759,0.27228 -0.18269,1.31403 -0.09809,2.32397c2.52157,1.01627 5.19173,1.04474 7.9026,1.04474c0,0 0.25,0 0.25,0.25c0,0.25 -0.25,0.25 -0.25,0.25c-2.68984,0 -5.34074,-0.04013 -7.85141,-0.98842c0.06282,0.63428 0.13071,1.19112 0.14703,1.44666c0.0396,0.67467 0.71571,3.71173 1.24538,4.08742c0.75955,0.53873 3.67008,0.03987 5.17671,-0.15916c1.87083,-1.78314 3.75588,-3.5601 5.83206,-5.08474c0.13698,-0.10058 0.27395,-0.20118 0.41092,-0.30176c-2.65356,0 -5.30712,0 -7.96069,0c0,0 -0.25,0 -0.25,-0.25c0,-0.25 0.25,-0.25 0.25,-0.25c2.85468,0 5.70936,0 8.56403,0zM449.61312,86.01517c0.96699,-0.81341 1.14586,-2.57326 2.24975,-3.36048c-0.04318,-0.05058 -0.08689,-0.10218 -0.13111,-0.15464c-0.05878,0 -0.11755,0 -0.17633,0c-0.31991,0.23492 -0.63981,0.46984 -0.95972,0.70476c-1.8299,1.34378 -3.51024,2.8857 -5.16387,4.45399c1.28227,-0.52233 3.26941,-0.87659 4.18127,-1.64363z" fill="#000000" stroke-width="0.5"/></g><path d="M-5.25,376.25003v-141c0,0 188.35494,19 309.93976,19c123.38861,0 425.06024,-19 425.06024,-19v141z" fill="#656565" stroke="none" stroke-width="0" stroke-linecap="butt"/><path d="M26.85526,246.25004l0.93108,-32c0,0 218.00369,6 332.39474,6c119.97435,0 369.63784,-4 369.63784,-4l0.93108,30z" fill="#656565" stroke="none" stroke-width="0" stroke-linecap="butt"/><path d="M-12.25,259.92708v-26.80489c0,0 189.21204,3.612 311.35014,3.612c123.95009,0 426.99447,-3.612 426.99447,-3.612v26.80489c0,0 -291.1574,5.32295 -422.05241,5.32295c-112.38762,0 -316.2922,-5.32295 -316.2922,-5.32295z" fill="#878787" stroke="none" stroke-width="0" stroke-linecap="butt"/><text transform="translate(55.66902,322.2641) scale(1.43134,1.43134)" font-size="40" xml:space="preserve" fill="#000000" stroke="none" stroke-width="1" stroke-linecap="butt" font-family="&quot;MS Gothic&quot;, Sans Serif" font-weight="normal" text-anchor="start"><tspan x="0" dy="0">FNAF FANGAME COMMITEE</tspan></text><text transform="translate(159.25,344.54692) scale(0.5,0.5)" font-size="40" xml:space="preserve" fill="#000000" stroke="#000000" stroke-width="2" stroke-linecap="butt" font-family="&quot;MS Gothic&quot;, Sans Serif" font-weight="normal" text-anchor="start"><tspan x="0" dy="0">welcome to FNAF Fangame Committee!</tspan></text><g><g stroke="#000000"><path d="M81.14584,136.33863l4.57555,-66.83583l70.65503,4.837l-4.57555,66.83584z" fill="#000000" stroke-width="0" stroke-linecap="butt"/><g stroke-width="2.5"><path d="M103.60666,87.95733c9.59977,-8.36958 24.16678,-7.37233 32.53637,2.22742c8.36958,9.59977 7.37233,24.16678 -2.22742,32.53637c-9.59977,8.36958 -24.16677,7.37234 -32.53637,-2.22741c-8.36958,-9.59977 -7.37233,-24.16678 2.22742,-32.53638z" fill="#adadad" stroke-linecap="butt"/><path d="M136.52586,91.77062l-33.62772,29.31846" fill="none" stroke-linecap="round"/><path d="M96.43299,108.16917l28.53811,-24.88107" fill="none" stroke-linecap="round"/><path d="M115.03601,126.9836l26.17509,-22.82085" fill="none" stroke-linecap="round"/><path d="M138.09277,116.31975l-27.09977,-31.08291" fill="none" stroke-linecap="round"/><path d="M128.57076,125.58137l-28.52607,-32.71887" fill="none" stroke-linecap="round"/></g></g><path d="M74.12086,158.37625l1.45738,-22.95378l87.82316,5.57608l-1.45738,22.95378z" fill="#808080" stroke="none" stroke-width="0" stroke-linecap="butt"/></g><g stroke="none" stroke-width="0" stroke-linecap="butt"><path d="M-14.91872,376.25331v-390.39039h160.43251v390.39039z" fill="url(#color-1)"/><path d="M578.69663,373.01006v-390.39039h160.43252v390.39039z" fill="url(#color-2)"/><path d="M-16.2465,110.48755v-127.62763h754.88136v127.62763z" fill="url(#color-3)"/><path d="M737.63136,249.75285v127.62762h-754.88136v-127.62762z" fill="url(#color-4)"/></g><path d="M-12.56043,371.9491v-383.89806h747v383.89806z" fill-opacity="0.67843" fill="#000000" stroke="#e6e6e6" stroke-width="0" stroke-linecap="butt"/></g></g></svg>