<svg version="1.1" xmlns="http://www.w3.org/2000/svg" xmlns:xlink="http://www.w3.org/1999/xlink" width="773.27328" height="444.26495" viewBox="0,0,773.27328,444.26495"><defs><linearGradient x1="0" y1="180" x2="296" y2="180" gradientUnits="userSpaceOnUse" id="color-1"><stop offset="0" stop-color="#111111"/><stop offset="1" stop-color="#000000"/></linearGradient><linearGradient x1="424" y1="180" x2="720" y2="180" gradientUnits="userSpaceOnUse" id="color-2"><stop offset="0" stop-color="#000000"/><stop offset="1" stop-color="#111111"/></linearGradient><radialGradient cx="354.48722" cy="254.1155" r="252.72523" gradientUnits="userSpaceOnUse" id="color-3"><stop offset="0" stop-color="#282c31"/><stop offset="1" stop-color="#000000"/></radialGradient><radialGradient cx="354.48723" cy="320.57087" r="252.72522" gradientUnits="userSpaceOnUse" id="color-4"><stop offset="0" stop-color="#131518"/><stop offset="1" stop-color="#000000"/></radialGradient><radialGradient cx="360.0108" cy="-54.73121" r="293.32681" gradientUnits="userSpaceOnUse" id="color-5"><stop offset="0" stop-color="#ffffff"/><stop offset="1" stop-color="#ffffff" stop-opacity="0"/></radialGradient><radialGradient cx="355.92114" cy="142.315" r="369.79306" gradientUnits="userSpaceOnUse" id="color-6"><stop offset="0" stop-color="#000000" stop-opacity="0.83922"/><stop offset="1" stop-color="#000000" stop-opacity="0"/></radialGradient><radialGradient cx="355.92114" cy="142.315" r="369.79307" gradientUnits="userSpaceOnUse" id="color-7"><stop offset="0" stop-color="#000000" stop-opacity="0"/><stop offset="1" stop-color="#000000"/></radialGradient><linearGradient x1="-23.9597" y1="151.59198" x2="140.05617" y2="151.59198" gradientUnits="userSpaceOnUse" id="color-8"><stop offset="0" stop-color="#000000"/><stop offset="1" stop-color="#000000" stop-opacity="0"/></linearGradient><linearGradient x1="746.93023" y1="147.94202" x2="582.91437" y2="147.94202" gradientUnits="userSpaceOnUse" id="color-9"><stop offset="0" stop-color="#000000"/><stop offset="1" stop-color="#000000" stop-opacity="0"/></linearGradient><linearGradient x1="360.55389" y1="-71.46085" x2="360.55389" y2="72.17167" gradientUnits="userSpaceOnUse" id="color-10"><stop offset="0" stop-color="#000000"/><stop offset="1" stop-color="#000000" stop-opacity="0"/></linearGradient><linearGradient x1="359.52796" y1="372.53373" x2="359.52796" y2="228.90124" gradientUnits="userSpaceOnUse" id="color-11"><stop offset="0" stop-color="#000000"/><stop offset="1" stop-color="#000000" stop-opacity="0"/></linearGradient></defs><g transform="translate(26.34306,71.73122)"><g stroke-width="0" stroke-miterlimit="10"><path d="M-13,153v-160.3741h746v160.3741z" fill="#000000" stroke="#000000"/><path d="M-12.41291,360v-160.3741h746v160.3741z" fill="#000000" stroke="#000000"/><path d="M155.93393,244v-128h408.13213v128z" fill="#000000" stroke="#000000"/><path d="M0,360v-360c0,0 103.57855,76.76523 153.74087,96.49007c48.08296,18.9072 141.25913,19.50993 141.25913,19.50993l1,128.5c0,0 -98.32945,-0.67062 -147.59512,18.55298c-49.40063,19.27626 -148.40488,96.94702 -148.40488,96.94702z" fill="url(#color-1)" stroke="none"/><path d="M720,0v360c0,0 -96.65721,-74.04362 -145.48316,-93.24297c-49.4982,-19.4637 -149.51684,-22.75703 -149.51684,-22.75703l-1,-128.5c0,0 123.66866,-12.21981 176.81394,-32.95724c43.63341,-17.02587 119.18606,-82.54276 119.18606,-82.54276z" fill="url(#color-2)" stroke="none"/><g stroke="#424242"><path d="M107.27477,281.81295v-30.05018h505.45045v30.05018z" fill="url(#color-3)"/><path d="M612.72522,281.81294v42.05018h-505.45045v-42.05018z" fill="url(#color-4)"/></g><g fill="url(#color-5)" stroke="none"><path d="M67.26028,227.77254c0,0 156.75798,-244.23258 261.78921,-288.29082c10.52569,-4.41529 21.128,-5.65193 30.40488,-5.65193c10.16815,0 24.22757,-0.03962 35.93385,5.25512c105.54674,47.73867 258.52567,290.99277 258.52567,290.99277z"/></g><g><g stroke="#000000"><path d="M-13.87192,351.84948v-419.06893h739.58612v419.06893z" fill="url(#color-6)"/><path d="M-13.87192,351.84948v-419.06893h739.58613v419.06893z" fill="url(#color-7)"/></g><g stroke="none"><path d="M-23.9597,371.2652v-439.34646h164.01586v439.34646z" fill="url(#color-8)"/><path d="M582.91437,367.61524v-439.34646h164.01586v439.34646z" fill="url(#color-9)"/><path d="M-25.31713,72.17167v-143.63249h771.74205v143.6325z" fill="url(#color-10)"/><path d="M745.39899,228.90124v143.63249h-771.74204v-143.63249z" fill="url(#color-11)"/></g></g></g></g></svg>