<svg version="1.1" xmlns="http://www.w3.org/2000/svg" xmlns:xlink="http://www.w3.org/1999/xlink" width="76.33333" height="101" viewBox="0,0,76.33333,101"><g transform="translate(-321.83333,-129.5)"><g stroke-miterlimit="10"><path d="M321.83333,230.5v-101h76.33333v101z" fill="#273042" stroke="none" stroke-width="0"/><path d="M329.75469,196.83333v-61.66667h60.49068v61.66667z" fill="#0b0e13" stroke="none" stroke-width="0"/><path d="M343.08341,227.33333v-17.33333h33.83333v17.33333z" fill="#0b0e13" stroke="#000000" stroke-width="0"/><path d="M342.99989,209.125v-11.25h34.25v11.25z" fill="#273042" stroke="#000000" stroke-width="0"/><text transform="translate(343.67013,207.0298) scale(0.29415,0.29415)" font-size="40" xml:space="preserve" fill="#000000" stroke="none" stroke-width="1" font-family="&quot;GovtAgentBB&quot;, Serif" font-weight="normal" text-anchor="start"><tspan x="0" dy="0">Apple</tspan></text><text transform="translate(348.24454,223.17375) scale(0.37559,0.37559)" font-size="40" xml:space="preserve" fill="#43c749" stroke="none" stroke-width="1" font-family="&quot;Agency FB&quot;, Sans Serif" font-weight="normal" text-anchor="start"><tspan x="0" dy="0">EASY</tspan></text><g stroke="none" stroke-width="0"><path d="M336.52945,158.51187c-0.10563,-0.93663 -0.15091,-1.84505 -0.11511,-2.69508c0.04927,0.89704 0.11246,1.79309 0.11511,2.69508z" fill="#478c4a"/><g><path d="M363.75444,142.53534l-2.88637,9.73537l-1.81009,0.78274l-2.25039,-8.80587z" fill="#543e31"/><path d="M363.75444,142.53534l-0.88923,2.99925l-6.05762,-1.287z" fill="#654a3a"/></g><g><path d="M379.56005,171.46054c-5.63022,24.2179 -19.0025,16.85105 -19.0025,16.85105c0,0 -15.52549,7.73256 -19.0025,-16.85105c-2.25284,-15.9283 8.50771,-17.6936 19.0025,-17.6936c10.49479,0 22.77059,1.4855 19.0025,17.6936z" fill="#692e2e"/><path d="M351.84846,178.85382c-0.98468,-0.68331 -1.86996,-1.47108 -2.52107,-2.0559c-0.03256,-0.86056 -0.24035,-1.73241 -0.09766,-2.58169c0.12464,-0.74183 1.48244,-3.40876 1.84256,-4.14339c1.34272,-2.73913 2.9478,-5.16983 5.12384,-7.3162c1.29464,-1.277 2.57017,-3.08412 4.9117,-2.32001c0.3285,0.1072 0.66716,1.54767 0.88709,2.67889c0.68192,-0.10256 1.37834,-0.01014 2.05683,0.44507c0.99902,0.67026 1.09116,1.95341 1.04516,3.08756c2.53873,-0.61028 3.19804,1.08242 3.85129,2.75716c0.81091,2.07892 0.69637,4.20442 0.00316,6.15855c-0.05633,0.2235 -0.1353,0.43155 -0.24084,0.61847c-0.54432,1.28292 -1.33173,2.47852 -2.25797,3.52129c-0.25519,0.06378 -0.5092,0.17021 -0.76337,0.27114c-0.10255,0.5436 -0.24037,1.07912 -0.41938,1.59931c-0.1968,0.57189 -0.20031,1.32075 -0.68752,1.6791c-0.80274,0.59043 -1.84903,0.87933 -2.84474,0.91892c-0.67474,0.02683 -1.28155,-0.41059 -1.90874,-0.67732c-1.36556,-0.10354 -2.64834,-0.67015 -3.29654,-1.7205c-0.09076,-0.14706 -0.16733,-0.30428 -0.23056,-0.47c-0.82405,-0.29864 -1.60384,-0.70071 -2.27507,-1.24512c-0.1973,0.25739 -0.50789,0.42336 -0.85725,0.42336c-0.48558,0 -0.89627,-0.32062 -1.03193,-0.76171l-0.28899,-0.86697z" fill-opacity="0.06667" fill="#210a0a"/></g><g><path d="M359.19646,168.56349c0,4.47184 -2.61708,8.09698 -5.84541,8.09698c-3.22833,0 -5.84541,-3.62514 -5.84541,-8.09698c0,-1.63535 1.68277,-2.9112 3.66621,-3.35046c1.65288,-0.36605 3.39095,-0.38099 4.93672,0.14082c1.67153,0.56426 3.08789,1.73596 3.08789,3.20964z" fill="#928787"/><path d="M354.80627,170.84281c0,0.73737 -0.04064,1.5533 -0.20075,2.09843c-0.22933,0.7808 -0.64655,1.14902 -1.05493,1.14902c-0.469,0 -0.93233,-0.52903 -1.14794,-1.51431c-0.1032,-0.47161 -0.10773,-1.15256 -0.10773,-1.73314c0,-0.76852 -0.03273,-1.52908 0.13982,-2.08523c0.23013,-0.74173 0.71952,-1.16222 1.11585,-1.16222c0.39648,0 0.94038,0.42086 1.17051,1.16309c0.17239,0.55601 0.08517,1.31623 0.08517,2.08436z" fill="#3b2a2a"/></g><g><path d="M372.93183,168.56349c0,4.47184 -2.61708,8.09698 -5.84541,8.09698c-3.22833,0 -5.84541,-3.62514 -5.84541,-8.09698c0,-1.62714 1.36893,-2.96042 3.33819,-3.40344c1.97457,-0.44422 4.43169,-0.55292 6.16833,0.27703c1.29133,0.61713 2.18429,1.91324 2.18429,3.12641z" fill="#928787"/><path d="M366.93958,167.42952c0.38556,0 0.94805,0.31346 1.17839,1.02078c0.18397,0.56491 0.10448,1.43029 0.10448,2.22668c0,0.7852 0.00101,1.72283 -0.17834,2.28435c-0.23032,0.72108 -0.71464,0.9631 -1.10453,0.9631c-0.48285,0 -0.90205,-0.32417 -1.11216,-1.3577c-0.09166,-0.45088 -0.14352,-1.34498 -0.14352,-1.88975c0,-0.89008 -0.02468,-1.69653 0.19958,-2.28313c0.22762,-0.5954 0.70677,-0.96432 1.0561,-0.96432z" fill="#3b2a2a"/></g><path d="M350.68016,182.12613v-0.43299l19.24922,1.71071l-0.0866,0.51959z" fill="#270c0c"/><g fill="#313e28"><path d="M335.17791,154.67646c1.1926,-7.05781 7.63043,-10.27311 16.02225,-8.63581c8.39182,1.6373 11.79336,3.46317 10.60076,10.52099c-0.1316,0.77883 -2.69704,0.85853 -4.15818,1.76963c-2.56769,1.60108 -6.66457,3.03501 -8.48493,4.56996c-6.53092,5.50697 -9.35795,11.3449 -9.35795,11.3449c0,0 -5.81455,-12.51186 -4.62195,-19.56967z"/></g><g fill="#415235"><path d="M384.82216,154.67645c1.1926,7.05782 -4.62194,19.56967 -4.62194,19.56967c0,0 -2.82703,-5.83793 -9.35795,-11.3449c-1.82036,-1.53495 -5.91724,-2.96887 -8.48493,-4.56996c-1.46114,-0.9111 -4.02657,-0.9908 -4.15817,-1.76963c-1.1926,-7.05781 2.20894,-8.88369 10.60076,-10.52098c8.39182,-1.6373 14.82965,1.578 16.02225,8.63581z"/></g></g></g></g></svg>