<svg version="1.1" xmlns="http://www.w3.org/2000/svg" xmlns:xlink="http://www.w3.org/1999/xlink" width="720" height="394.76082" viewBox="0,0,720,394.76082"><defs><radialGradient cx="355.92879" cy="172.8148" r="344.31683" gradientUnits="userSpaceOnUse" id="color-1"><stop offset="0" stop-color="#000000" stop-opacity="0.83922"/><stop offset="1" stop-color="#000000" stop-opacity="0"/></radialGradient><radialGradient cx="355.92879" cy="172.8148" r="344.31684" gradientUnits="userSpaceOnUse" id="color-2"><stop offset="0" stop-color="#000000" stop-opacity="0"/><stop offset="1" stop-color="#000000"/></radialGradient><linearGradient x1="2.21916" y1="181.05805" x2="154.93545" y2="181.05805" gradientUnits="userSpaceOnUse" id="color-3"><stop offset="0" stop-color="#000000"/><stop offset="1" stop-color="#000000" stop-opacity="0"/></linearGradient><linearGradient x1="720" y1="177.8148" x2="567.28372" y2="177.8148" gradientUnits="userSpaceOnUse" id="color-4"><stop offset="0" stop-color="#000000"/><stop offset="1" stop-color="#000000" stop-opacity="0"/></linearGradient><linearGradient x1="360.24238" y1="-17.14015" x2="360.24238" y2="110.48748" gradientUnits="userSpaceOnUse" id="color-5"><stop offset="0" stop-color="#000000"/><stop offset="1" stop-color="#000000" stop-opacity="0"/></linearGradient><linearGradient x1="359.28713" y1="377.38041" x2="359.28713" y2="249.75279" gradientUnits="userSpaceOnUse" id="color-6"><stop offset="0" stop-color="#000000"/><stop offset="1" stop-color="#000000" stop-opacity="0"/></linearGradient></defs><g transform="translate(0,17.38041)"><g stroke-miterlimit="10"><path d="M0,153v-153h719.43382v153z" fill="#330f00" stroke="#000000" stroke-width="0"/><path d="M0.56618,360v-160.3741h719.43382v160.3741z" fill="#330f00" stroke="#000000" stroke-width="0"/><path d="M296,244v-128h128v128z" fill="#3d1d00" stroke="#000000" stroke-width="0"/><path d="M0,360v-360l295,116l1,128.5z" fill="#4f2600" stroke="none" stroke-width="0"/><path d="M720,0v360l-295,-116l-1,-128.5z" fill="#4f2600" stroke="none" stroke-width="0"/><g><g stroke="#000000" stroke-width="0"><g><g fill="#1c1c1c"><path d="M263,141.1874v-78h32v78z"/><path d="M295,63.1874c0,2.07107 -7.16344,3.75 -16,3.75c-8.83656,0 -16,-1.67893 -16,-3.75c0,-2.07107 7.16344,-3.75 16,-3.75c8.83656,0 16,1.67893 16,3.75z"/></g><path d="M300.5,141.1874v-78h12.75v78z" fill="#1c1c1c"/><path d="M313.27308,63.23548c0,1.03554 -2.85419,1.875 -6.375,1.875c-3.52081,0 -6.375,-0.83946 -6.375,-1.875c0,-1.03553 2.85419,-1.875 6.375,-1.875c3.52081,0 6.375,0.83947 6.375,1.875z" fill="#1c1c1c"/></g><g fill="#1c1c1c"><g><path d="M338.02308,141.1874v-78h32v78z"/><path d="M354.02308,59.4374c8.83655,0 16,1.67893 16,3.75c0,2.07107 -7.16345,3.75 -16,3.75c-8.83655,0 -16,-1.67893 -16,-3.75c0,-2.07107 7.16345,-3.75 16,-3.75z"/></g><path d="M319.77308,141.1874v-78h12.75v78z"/><path d="M326.125,61.36048c3.52082,0 6.375,0.83947 6.375,1.875c0,1.03554 -2.85418,1.875 -6.375,1.875c-3.52082,0 -6.375,-0.83946 -6.375,-1.875c0,-1.03553 2.85418,-1.875 6.375,-1.875z"/></g></g><path d="M494.11735,207.20266c-0.411,-2.46598 2.05499,-2.87698 2.05499,-2.87698l2.80837,-0.4603c3.15683,-1.04632 5.83298,-2.7448 9.04668,-3.33977c1.06147,-0.89726 2.15123,-1.7666 3.21851,-2.65841c-0.38271,-1.09825 -0.76683,-2.23075 -1.08811,-3.46996c-1.32793,-5.12204 0.03713,-10.96454 -1.24816,-15.99266c-0.63078,-2.46764 -2.23255,-4.63036 -2.77692,-7.11849c-0.25543,-1.1675 -0.10947,-2.40342 -0.11943,-3.60746c-0.28964,-0.05998 -0.5834,-0.1193 -0.88185,-0.17815c-5.20561,-1.02647 -10.50122,-0.93345 -15.47658,-2.88763c0,0 -2.32119,-0.92848 -1.39272,-3.24967c0.92848,-2.32119 3.24967,-1.39272 3.24967,-1.39272c3.89467,1.59343 8.06348,2.21697 12.2646,2.76534c-0.41682,-0.97983 -0.71294,-2.02854 -1.37219,-2.85401c-1.81707,-2.27522 -5.13777,-3.05729 -6.86529,-5.40124c-1.71246,-2.32352 -1.65654,-5.70654 -3.51839,-7.91217c-0.97449,-1.15442 -2.35099,-1.89794 -3.52648,-2.84691c0,0 -1.92983,-1.58927 -0.34056,-3.51909c1.58927,-1.92983 3.51909,-0.34056 3.51909,-0.34056c2.79152,2.33702 5.43651,5.11417 6.95003,8.42529c0.48012,1.05035 0.32886,2.37945 1.0051,3.31564c1.63322,2.26102 4.87261,2.93667 6.63471,5.09876c1.02099,1.25275 1.41234,2.91031 2.21877,4.31083c0.53421,0.92776 1.40791,1.6759 1.84141,2.64377c1.30865,0.22352 2.60809,0.48547 3.89085,0.81351c-0.18353,-2.47457 -0.55754,-4.90274 -1.40084,-7.13206c-1.42931,-3.77848 -5.97457,-4.63111 -8.75002,-6.56162c-0.8692,-0.60459 -1.33219,-1.64626 -1.97928,-2.48429c-3.11146,-4.02961 -3.78559,-10.94928 -9.38014,-11.52907c0,0 -2.47093,-0.38014 -2.09079,-2.85107c0.38014,-2.47093 2.85107,-2.09079 2.85107,-2.09079c1.3333,0.24697 2.79863,0.11191 3.9999,0.7409c4.51886,2.36613 5.8307,8.85034 8.61996,12.73002c0.35557,0.49457 0.50524,1.1912 1.02072,1.51571c1.08033,0.68008 2.51624,0.66152 3.57374,1.37658c1.03252,0.69817 5.96156,5.33169 6.67624,7.06179c1.39235,3.37063 1.7572,7.18001 1.91673,10.96908c1.07024,0.48537 2.12006,1.04961 3.14448,1.71117c6.4662,4.17585 5.13888,11.35431 2.73502,17.47241c-1.02569,2.61048 -1.83747,5.34443 -3.16951,7.80556c0.32773,1.96965 0.74863,3.92103 0.84948,5.96316c0.21079,4.26844 0.0031,8.60136 0.0031,12.87453c0,0.1608 0.04677,6.58945 -0.12254,7.02311c-1.35512,3.4709 -4.16732,5.02455 -7.10534,6.95999c-4.555,3.00063 -10.60257,5.15995 -15.83532,6.67071l-1.6868,0.09619c0,0 -2.5,0 -2.5,-2.5c0,-2.5 2.5,-2.5 2.5,-2.5l0.3132,0.09619c4.78507,-1.35089 10.32345,-3.34749 14.495,-6.06246c0.89737,-0.58403 4.43909,-2.57848 5.06434,-4.30684c0.62121,-1.71718 -0.12254,-3.6508 -0.12254,-5.47689c0,-1.46232 0.02361,-2.93092 0.04625,-4.40124c-1.73565,8.93824 -13.89166,10.38368 -21.0543,14.32094l-2.45571,1.47404c0,0 -2.14373,1.28624 -3.42997,-0.85749c-1.28624,-2.14373 0.85749,-3.42997 0.85749,-3.42997l2.54429,-1.52596c4.14493,-2.24617 8.65892,-4.02357 13.01012,-5.87944c3.11458,-1.32842 5.92186,-2.14607 5.7321,-5.91425c-0.02483,-1.00102 -0.13498,-1.92624 -0.30286,-2.80674c-0.87653,0.68522 -1.76209,1.35929 -2.64146,2.03617c-3.50228,0.74646 -6.48684,2.49937 -9.95332,3.66023l-3.19163,0.5397c0,0 -2.46598,0.411 -2.87698,-2.05499zM522.13188,175.53196c-0.2569,-1.82115 -1.32962,-2.75715 -2.66096,-3.43872c0.02722,0.58193 0.0602,1.1572 0.10231,1.72392c0.23572,3.17255 0.56816,6.3439 1.02486,9.50274c1.37329,-3.35371 2.05224,-4.1127 1.53379,-7.78793zM511.03395,170.29724c0.51997,2.41148 2.13508,4.48571 2.72308,6.88151c1.24998,5.093 -0.10579,10.88268 1.25184,16.00734c0.07637,0.28827 0.17823,0.56736 0.29537,0.84101c0.52495,-0.59845 1.02004,-1.22658 1.47571,-1.8939c-0.11119,-0.8527 -0.18446,-1.7147 -0.18446,-2.59519c-1.02699,-5.04224 -1.62514,-10.16844 -2.00206,-15.27183c-0.10105,-1.36813 -0.13926,-2.79058 -0.17132,-4.23637c-1.20637,-0.4417 -2.37786,-0.82462 -3.56717,-1.16822c0.02934,0.49827 0.08118,0.98193 0.17901,1.43565zM517.90488,201.64605c-0.01288,-0.74463 -0.03462,-1.48811 -0.06844,-2.22985c-0.01115,-0.24461 -0.02723,-0.4879 -0.04745,-0.73006c-0.1428,0.14363 -0.28691,0.28595 -0.43225,0.42706c0.30037,1.05329 0.45881,1.79978 0.54814,2.53284z" fill="#121212" stroke="none" stroke-width="0.5"/><path d="M431.33333,131.30427c-2.5,0 -2.5,-2.5 -2.5,-2.5l0.07464,-0.72699c-0.74275,-2.971 -0.60292,-6.0423 -3.48166,-7.43573c0,0 -2.17061,-1.24035 -0.93026,-3.41096c1.24035,-2.17061 3.41096,-0.93026 3.41096,-0.93026c0.98627,0.61333 2.18884,0.97047 2.9588,1.83999c1.86903,2.11071 2.2348,6.09199 2.89287,8.72428l0.07464,1.93967c0,0 0,2.5 -2.5,2.5z" fill="#121212" stroke="none" stroke-width="0.5"/><path d="M262.2307,200.50743c-3.86941,39.75682 -21.24884,71.35871 -38.81804,70.58481c-17.56921,-0.7739 -28.67509,-33.63054 -24.80568,-73.38736c3.86941,-39.75682 21.24884,-71.35871 38.81804,-70.58481c17.56921,0.7739 28.67509,33.63054 24.80568,73.38736z" fill="#121212" stroke="#000000" stroke-width="0"/><path d="M232,267.6259c0,0 -9.76515,-1.64488 -10.84924,-15.68183c-2.63397,-34.10482 1.84924,-102.1368 1.84924,-112.75666c0,-13.06658 9,-15.56151 9,-15.56151h260c0,0 7,6.82687 7,16.56151c0,17.77384 3.66821,83.60341 1.97022,112.9404c-0.58063,10.0318 -8.97022,14.4981 -8.97022,14.4981z" fill="#333333" stroke="#000000" stroke-width="0"/><path d="M431.76777,122.93443c-1.76777,1.76777 -3.53553,0 -3.53553,0l-2.32289,-2.37962c-1.49109,-0.68755 -3.12969,-1.26869 -4.7711,-1.22531c-3.10419,0.01305 -2.68724,0.95662 -2.63825,3.83716c0.07511,4.41607 0.38252,9.11978 -0.00728,13.52396c-0.70925,8.01359 -4.55122,15.40701 -6.03017,23.24048c-0.95193,5.04206 -0.69618,10.26831 -0.96638,15.37382c-0.19485,3.68182 -1.37442,7.04807 -1.67148,10.73603c0,0 -0.20761,2.49136 -2.69898,2.28375c-2.49136,-0.20761 -2.28375,-2.69898 -2.28375,-2.69898c0.31114,-3.62559 1.49393,-6.9966 1.66186,-10.5973c0.24711,-5.29855 0.04571,-10.7288 1.03362,-15.95952c1.44447,-7.64805 5.30457,-14.9485 5.96983,-22.75952c0.3678,-4.31842 -0.0682,-8.80971 -0.00728,-13.14271c0.05187,-3.68876 -0.55283,-5.69043 3.26002,-8.17082c1.16076,-0.75511 2.73449,-0.43913 4.10173,-0.65869c2.7237,0.04316 5.41198,0.98902 7.89557,2.10803l3.01045,2.95371c0,0 1.76777,1.76777 0,3.53553z" fill="#121212" stroke="none" stroke-width="0.5"/><path d="M225.16783,275.6259c0,0 -10.28285,-1.10374 -11.42442,-10.52271c-2.77361,-22.88478 1.94728,-68.53514 1.94728,-75.66121c0,-8.76785 9.47714,-10.44198 9.47714,-10.44198h273.78414c0,0 7.37111,4.58092 7.37111,11.11299c0,11.92648 3.86268,56.09899 2.07467,75.7845c-0.61141,6.73147 -9.44578,9.72841 -9.44578,9.72841z" fill="#1c1c1c" stroke="#000000" stroke-width="0"/><path d="M248,210.5v-56h96v56z" fill="#121212" stroke="#000000" stroke-width="0"/></g><g stroke-width="0"><g stroke="#000000"><path d="M11.61196,359.001v-372.37237h688.63367v372.37237z" fill="url(#color-1)"/><path d="M11.61195,359.001v-372.37237h688.63367v372.37237z" fill="url(#color-2)"/></g><g stroke="none"><path d="M2.21916,376.25323v-390.39039h152.71629v390.39039z" fill="url(#color-3)"/><path d="M567.28372,373.00998v-390.39039h152.71628v390.39039z" fill="url(#color-4)"/><path d="M0.95525,110.48748v-127.62762h718.57426v127.62763z" fill="url(#color-5)"/><path d="M718.57426,249.75279v127.62762h-718.57426v-127.62762z" fill="url(#color-6)"/></g></g></g></g></svg>