<svg version="1.1" xmlns="http://www.w3.org/2000/svg" xmlns:xlink="http://www.w3.org/1999/xlink" width="76.33333" height="101" viewBox="0,0,76.33333,101"><defs><radialGradient cx="354.25496" cy="160.02396" r="16.33333" gradientUnits="userSpaceOnUse" id="color-1"><stop offset="0" stop-color="#bce300"/><stop offset="1" stop-color="#bce300" stop-opacity="0"/></radialGradient></defs><g transform="translate(-321.83333,-129.5)"><g stroke-miterlimit="10"><path d="M321.83333,230.5v-101h76.33333v101z" fill="#273042" stroke="none" stroke-width="0"/><path d="M329.75471,196.83333v-61.66667h60.49068v61.66667z" fill="#0b0e13" stroke="none" stroke-width="0"/><path d="M343.08346,227.33333v-17.33333h33.83333v17.33333z" fill="#0b0e13" stroke="#000000" stroke-width="0"/><path d="M342.99992,209.125v-11.25h34.25v11.25z" fill="#273042" stroke="#000000" stroke-width="0"/><text transform="translate(343.39957,207.0298) scale(0.29415,0.29415)" font-size="40" xml:space="preserve" fill="#000000" stroke="none" stroke-width="1" font-family="&quot;GovtAgentBB&quot;, Serif" font-weight="normal" text-anchor="start"><tspan x="0" dy="0">Conor</tspan></text><path d="M352.63125,151.93099c3.92924,1.32211 -2.81625,1.17218 -3.36259,2.79584c-0.54633,1.62366 -4.1745,1.8681 -8.10374,0.54598c-3.92924,-1.32211 -6.67165,-3.71015 -6.12531,-5.33379c0.54633,-1.62366 13.66239,0.66986 17.59163,1.99197z" fill="#d4ac87" stroke="none" stroke-width="0"/><path d="M385.0287,151.20687c0.07108,1.71164 -3.22915,3.23865 -7.37131,3.41066c-4.14215,0.17202 -7.55765,-1.07609 -7.62873,-2.78771c-0.07108,-1.71164 -6.58999,-3.45175 -2.44784,-3.62377c4.14215,-0.17202 17.3768,1.28919 17.44788,3.00082z" fill="#d5d5d5" stroke="none" stroke-width="0"/><path d="M379.47786,162.90236c2.89395,9.75352 -1.28029,17.41633 -12.11193,20.63017c-10.83165,3.21383 -18.01178,-0.78741 -20.90573,-10.54093c-0.84861,-2.86007 -0.24563,-7.60223 -0.22547,-10.32091c0.04855,-6.55267 2.99586,-12.1874 10.65128,-14.45882c8.25628,-2.4497 14.28309,0.70656 17.96388,6.66544c1.14814,1.85873 3.93991,5.70604 4.62797,8.02506z" fill="#e6e6e6" stroke="none" stroke-width="0"/><g stroke="none"><path d="M349.4065,161.46254c-0.79451,-2.67773 0.73215,-5.49254 3.40989,-6.28704c2.67773,-0.7945 5.49253,0.73214 6.28704,3.40988c0.79451,2.67773 -0.73215,5.49254 -3.40989,6.28704c-2.67773,0.7945 -5.49253,-0.73215 -6.28704,-3.40989z" fill="#000000" stroke-width="0"/><g fill="none" stroke-width="1" font-family="sans-serif" font-weight="normal" font-size="12" text-anchor="start"><g/></g></g><path d="M375.12253,157.69136c0.51887,1.74875 -1.95238,0.90932 -2.32919,2.02928c-0.60697,1.80406 -0.75704,2.96318 -2.80388,3.57049c-1.98704,0.58957 -3.27898,1.33023 -5.28379,-0.41282c-1.34239,-1.16712 -3.13853,-2.01994 -3.68183,-3.851c-0.66653,-2.24642 -2.90215,-4.31726 -2.28764,-6.12075c0.21794,-0.63962 2.55295,-2.69988 3.46503,-3.15873c1.74302,-0.87687 2.58793,0.0735 3.69425,-0.25476c1.97214,-0.58515 4.62377,2.34378 6.61278,4.65624c1.3569,1.57755 2.06492,1.69047 2.61429,3.54204z" fill="#d4ac87" stroke="none" stroke-width="0"/><g stroke="none"><path d="M361.80613,157.78314c-0.79451,-2.67773 0.73214,-5.49254 3.40988,-6.28704c2.67773,-0.7945 5.49254,0.73215 6.28704,3.40989c0.79451,2.67773 -0.73215,5.49254 -3.40989,6.28704c-2.67773,0.7945 -5.49253,-0.73215 -6.28704,-3.40989z" fill="#000000" stroke-width="0"/><g fill="none" stroke-width="1" font-family="sans-serif" font-weight="normal" font-size="12" text-anchor="start"><g/></g></g><path d="M376.73101,170.09146c1.01358,3.41607 -3.59678,7.79705 -10.29752,9.78521c-6.70074,1.98817 -12.95443,0.83062 -13.96801,-2.58544c-0.24986,-0.8421 -2.28728,-4.99365 -1.90658,-5.9027c1.16369,-2.77869 7.15516,-2.38444 12.20412,-3.88251c3.89716,-1.15632 8.39991,-3.93211 11.05168,-3.13484c1.90767,0.57355 2.49224,4.291 2.91632,5.72028z" fill="#d4b9ab" stroke="none" stroke-width="0"/><path d="M356.40643,170.9451c0.13644,0.45986 -0.96789,0.54602 -2.24892,0.92611c-1.28103,0.38009 -2.25365,0.91017 -2.39009,0.45032c-0.13644,-0.45986 0.54437,-1.97341 1.8254,-2.3535c1.28103,-0.38009 2.67717,0.51721 2.81361,0.97707z" fill="#000000" stroke="none" stroke-width="0"/><path d="M373.84355,166.03022c0.13644,0.45986 -0.96789,0.54603 -2.24892,0.92612c-1.28103,0.38009 -2.25365,0.91018 -2.39009,0.45031c-0.13644,-0.45986 0.54437,-1.97341 1.8254,-2.3535c1.28103,-0.38009 2.67717,0.51723 2.81361,0.97707z" fill="#000000" stroke="none" stroke-width="0"/><g fill="url(#color-1)" stroke="#000000" stroke-width="0"><path d="M355.13818,160.2693c-2.41432,8.69156 -4.76695,15.62762 -5.25474,15.49212c-0.48779,-0.1355 1.07397,-7.29124 3.48829,-15.9828c2.41432,-8.69156 4.76695,-15.62762 5.25474,-15.49212c0.48779,0.1355 -1.07397,7.29124 -3.48829,15.9828z"/><path d="M354.00962,160.90719c-8.69156,-2.41432 -15.62762,-4.76695 -15.49212,-5.25474c0.1355,-0.48779 7.29124,1.07397 15.9828,3.48829c8.69156,2.41432 15.62761,4.76695 15.49212,5.25474c-0.1355,0.48779 -7.29124,-1.07397 -15.9828,-3.48829z"/></g><text transform="translate(347.21025,223.17375) scale(0.37559,0.37559)" font-size="40" xml:space="preserve" fill="#c74444" stroke="none" stroke-width="1" font-family="&quot;Agency FB&quot;, Sans Serif" font-weight="normal" text-anchor="start"><tspan x="0" dy="0">HARD</tspan></text></g></g></svg>