<svg version="1.1" xmlns="http://www.w3.org/2000/svg" xmlns:xlink="http://www.w3.org/1999/xlink" width="76.33333" height="101" viewBox="0,0,76.33333,101"><g transform="translate(-321.83333,-129.5)"><g data-paper-data="{&quot;isPaintingLayer&quot;:true}" fill-rule="nonzero" stroke-linejoin="miter" stroke-miterlimit="10" stroke-dasharray="" stroke-dashoffset="0" style="mix-blend-mode: normal"><path d="M321.83333,230.5v-101h76.33333v101z" fill="#273042" stroke="none" stroke-width="0" stroke-linecap="butt"/><path d="M329.75471,196.83333v-61.66667h60.49068v61.66667z" fill="#0b0e13" stroke="none" stroke-width="0" stroke-linecap="butt"/><path d="M343.08348,227.33333v-17.33333h33.83333v17.33333z" fill="#0b0e13" stroke="#000000" stroke-width="0" stroke-linecap="butt"/><path d="M342.99994,209.125v-11.25h34.25v11.25z" fill="#273042" stroke="#000000" stroke-width="0" stroke-linecap="butt"/><text transform="translate(349.40023,207.0298) scale(0.29415,0.29415)" font-size="40" xml:space="preserve" fill="#000000" fill-rule="nonzero" stroke="none" stroke-width="1" stroke-linecap="butt" stroke-linejoin="miter" stroke-miterlimit="10" stroke-dasharray="" stroke-dashoffset="0" font-family="&quot;GovtAgentBB&quot;, Serif" font-weight="normal" text-anchor="start" style="mix-blend-mode: normal"><tspan x="0" dy="0">RED</tspan></text><text transform="translate(351.55303,223.17375) scale(0.37559,0.37559)" font-size="40" xml:space="preserve" fill="#545454" fill-rule="nonzero" stroke="none" stroke-width="1" stroke-linecap="butt" stroke-linejoin="miter" stroke-miterlimit="10" stroke-dasharray="" stroke-dashoffset="0" font-family="&quot;Agency FB&quot;, Sans Serif" font-weight="normal" text-anchor="start" style="mix-blend-mode: normal"><tspan x="0" dy="0">OFF</tspan></text><g><g stroke="none" stroke-width="0" stroke-linecap="butt"><g><path d="M337.69904,186.47071c0,-7.63279 0,-37.86958 0,-41.47521c0,-0.69141 0.53589,-1.21068 1.24586,-1.21068c3.70072,0 34.69763,0 41.75736,0c0.91433,0 1.42713,0.51928 1.42713,1.21068c0,3.66812 0,34.89838 0,41.85141c0,0.87745 -0.48845,1.36827 -1.14499,1.36827c-3.60681,0 -35.32382,0 -42.0395,0c-0.80059,0 -1.24587,-0.63226 -1.24587,-1.74446z" fill="#db7474"/><g fill="#e57979"><path d="M377.86095,146.04591c0,0.58014 -1.95351,1.05043 -4.3633,1.05043c-2.40978,0 -4.36331,-0.47029 -4.36331,-1.05043c0,-0.58014 1.95352,-1.05042 4.36331,-1.05042c2.40978,0 4.3633,0.47028 4.3633,1.05042z"/><path d="M380.6082,147.41954c0,0.357 -0.63308,0.64641 -1.41404,0.64641c-0.78095,0 -1.41403,-0.28941 -1.41403,-0.64641c0,-0.357 0.63308,-0.64641 1.41403,-0.64641c0.78095,0 1.41404,0.28941 1.41404,0.64641z"/></g></g><g><path d="M372.99031,170.62358c0,-2.5711 2.08429,-4.65538 4.65538,-4.65538c2.5711,0 4.65538,2.08429 4.65538,4.65538c0,2.5711 -2.08429,4.65538 -4.65538,4.65538c-2.5711,0 -4.65538,-2.08428 -4.65538,-4.65538z" fill="#e88ad9"/><path d="M377.02581,167.93466c0,-0.46748 0.75793,-0.84644 1.69287,-0.84644c0.93494,0 1.69286,0.37896 1.69286,0.84644c0,0.46748 -0.75792,0.84643 -1.69286,0.84643c-0.93494,0 -1.69287,-0.37895 -1.69287,-0.84643z" fill="#f498e5"/><path d="M379.0863,169.71298c0,-0.31164 0.50528,-0.56428 1.12858,-0.56428c0.62329,0 1.12858,0.25264 1.12858,0.56428c0,0.31164 -0.50529,0.56429 -1.12858,0.56429c-0.62329,0 -1.12858,-0.25264 -1.12858,-0.56429z" fill="#f498e5"/></g><g><path d="M337.90181,170.52097c0,-2.5711 2.08428,-4.65538 4.65538,-4.65538c2.5711,0 4.65539,2.08429 4.65539,4.65538c0,2.5711 -2.08429,4.65538 -4.65539,4.65538c-2.5711,0 -4.65538,-2.08428 -4.65538,-4.65538z" fill="#e88ad9"/><path d="M341.9373,167.83205c0,-0.46748 0.75793,-0.84643 1.69287,-0.84643c0.93495,0 1.69286,0.37895 1.69286,0.84643c0,0.46748 -0.75792,0.84643 -1.69286,0.84643c-0.93495,0 -1.69287,-0.37896 -1.69287,-0.84643z" fill="#f498e5"/><path d="M343.99779,169.61036c0,-0.31165 0.50529,-0.56429 1.12858,-0.56429c0.62329,0 1.12858,0.25264 1.12858,0.56429c0,0.31165 -0.50528,0.56429 -1.12858,0.56429c-0.62329,0 -1.12858,-0.25264 -1.12858,-0.56429z" fill="#f498e5"/></g></g><g><g><g stroke="none" stroke-width="0" stroke-linecap="butt"><path d="M379.59651,169.01653c0,1.20314 -5.62938,16.65888 -19.80531,16.78704c-15.15361,0.13698 -20.19653,-15.58389 -20.19653,-16.78703c0,-1.20314 7.29235,4.07976 20.19653,4.35694c13.19648,0.28347 19.80531,-5.56008 19.80531,-4.35694z" fill="#1d1d1d"/><path d="M378.8213,170.31414c0,1.01639 -5.4132,14.07318 -19.04474,14.18144c-14.57168,0.11572 -19.42093,-13.16505 -19.42093,-14.18144c0,-1.01639 7.0123,3.44652 19.42093,3.68068c12.68971,0.23946 19.04474,-4.69708 19.04474,-3.68068z" fill="#f5f5f5"/></g><path d="M375.81176,174.62063c0,0 -7.28336,4.37539 -16.17627,4.23216c-8.39198,-0.13515 -16.64651,-4.23216 -16.64651,-4.23216" fill="none" stroke="#c3ced4" stroke-width="1.5" stroke-linecap="round"/></g><g stroke="none" stroke-linecap="butt"><g fill="#000000" stroke-width="0"><path d="M357.84,159.7765c0,5.72682 -3.38959,10.36933 -7.57087,10.36933c-4.18128,0 -7.57087,-4.6425 -7.57087,-10.36933c0,-5.72682 3.38959,-10.36933 7.57087,-10.36933c4.18128,0 7.57087,4.64251 7.57087,10.36933z"/></g><g fill="none" stroke-width="1" font-family="sans-serif" font-weight="normal" font-size="12" text-anchor="start"/></g><g stroke="none" stroke-linecap="butt"><g fill="#000000" stroke-width="0"><path d="M376.547,159.39174c0,5.72682 -3.38959,10.36933 -7.57087,10.36933c-4.18128,0 -7.57087,-4.6425 -7.57087,-10.36933c0,-5.72682 3.38959,-10.36934 7.57087,-10.36934c4.18128,0 7.57087,4.64252 7.57087,10.36934z"/></g><g fill="none" stroke-width="1" font-family="sans-serif" font-weight="normal" font-size="12" text-anchor="start"/></g></g></g></g></g></svg>