<svg version="1.1" xmlns="http://www.w3.org/2000/svg" xmlns:xlink="http://www.w3.org/1999/xlink" width="124.76439" height="292.19406" viewBox="0,0,124.76439,292.19406"><defs><radialGradient cx="359.994" cy="127.62765" r="22.00015" gradientUnits="userSpaceOnUse" id="color-1"><stop offset="0" stop-color="#000000" stop-opacity="0.29382"/><stop offset="1" stop-color="#000000" stop-opacity="0"/></radialGradient></defs><g transform="translate(-297.61781,-33.90297)"><g data-paper-data="{&quot;isPaintingLayer&quot;:true}" fill-rule="nonzero" stroke-linejoin="miter" stroke-miterlimit="10" stroke-dasharray="" stroke-dashoffset="0" style="mix-blend-mode: normal"><path d="M342.66668,133.83331v-44h32.66667v44z" fill="#934e4e" stroke="none" stroke-width="0" stroke-linecap="butt"/><g><g stroke="none" stroke-width="0" stroke-linecap="butt"><g><path d="M321.28711,107.3241c0,-13.12865 0,-65.13691 0,-71.33871c0,-1.18924 0.92174,-2.08242 2.14293,-2.08242c6.36535,0 59.68106,0 71.82401,0c1.57267,0 2.45472,0.89318 2.45472,2.08242c0,6.30928 0,60.02636 0,71.98578c0,1.50924 -0.84015,2.35347 -1.96943,2.35347c-6.20382,0 -60.75813,0 -72.30931,0c-1.37703,0 -2.14293,-1.08752 -2.14293,-3.00054z" fill="#db7474"/><g fill="#e57979"><path d="M390.3669,37.79212c0,0.99785 -3.36011,1.80677 -7.50502,1.80677c-4.14491,0 -7.50503,-0.80892 -7.50503,-1.80677c0,-0.99785 3.36012,-1.80676 7.50503,-1.80676c4.14491,0 7.50502,0.80891 7.50502,1.80676z"/><path d="M395.09227,40.15481c0,0.61406 -1.08893,1.11185 -2.43219,1.11185c-1.34326,0 -2.43218,-0.49779 -2.43218,-1.11185c0,-0.61406 1.08892,-1.11185 2.43218,-1.11185c1.34326,0 2.43219,0.49779 2.43219,1.11185z"/></g></g><g><path d="M381.98925,80.06652c0,-4.42237 3.58504,-8.00741 8.00741,-8.00741c4.42237,0 8.00741,3.58504 8.00741,8.00741c0,4.42237 -3.58504,8.00741 -8.00741,8.00741c-4.42237,0 -8.00741,-3.58504 -8.00741,-8.00741z" fill="#e88ad9"/><path d="M388.93044,75.44149c0,-0.80407 1.30365,-1.45589 2.91178,-1.45589c1.60813,0 2.91178,0.65182 2.91178,1.45589c0,0.80407 -1.30365,1.45589 -2.91178,1.45589c-1.60813,0 -2.91178,-0.65182 -2.91178,-1.45589z" fill="#f498e5"/><path d="M392.47454,78.50026c0,-0.53604 0.8691,-0.97059 1.94119,-0.97059c1.07209,0 1.94119,0.43455 1.94119,0.97059c0,0.53604 -0.8691,0.97059 -1.94119,0.97059c-1.07209,0 -1.94119,-0.43455 -1.94119,-0.97059z" fill="#f498e5"/></g><g><path d="M321.63587,79.89002c0,-4.42237 3.58504,-8.00741 8.00741,-8.00741c4.42237,0 8.00741,3.58504 8.00741,8.00741c0,4.42237 -3.58504,8.00741 -8.00741,8.00741c-4.42237,0 -8.00741,-3.58504 -8.00741,-8.00741z" fill="#e88ad9"/><path d="M328.57706,75.26499c0,-0.80407 1.30365,-1.45589 2.91179,-1.45589c1.60814,0 2.91178,0.65182 2.91178,1.45589c0,0.80407 -1.30364,1.45589 -2.91178,1.45589c-1.60814,0 -2.91179,-0.65183 -2.91179,-1.45589z" fill="#f498e5"/><path d="M332.12117,78.32374c0,-0.53605 0.8691,-0.97059 1.94118,-0.97059c1.07209,0 1.94119,0.43454 1.94119,0.97059c0,0.53605 -0.8691,0.9706 -1.94119,0.9706c-1.07209,0 -1.94118,-0.43455 -1.94118,-0.9706z" fill="#f498e5"/></g></g><g><g><g stroke="none" stroke-width="0" stroke-linecap="butt"><path d="M393.35212,77.30234c0,2.06943 -9.68272,28.65383 -34.06578,28.87425c-26.0647,0.23561 -34.73869,-26.80481 -34.73869,-28.87424c0,-2.06943 12.54308,7.01731 34.73869,7.49409c22.69837,0.48757 34.06578,-9.56352 34.06578,-7.49409z" fill="#1d1d1d"/><path d="M392.01874,79.53427c0,1.74823 -9.31088,24.20634 -32.75758,24.39254c-25.06376,0.19905 -33.40463,-22.64431 -33.40463,-24.39254c0,-1.74823 12.06139,5.92812 33.40463,6.33089c21.82671,0.41189 32.75758,-8.07913 32.75758,-6.33089z" fill="#f5f5f5"/></g><path d="M386.84223,86.94158c0,0 -12.52762,7.52581 -27.82372,7.27946c-14.43449,-0.23247 -28.63254,-7.27946 -28.63254,-7.27946" fill="none" stroke="#c3ced4" stroke-width="1.5" stroke-linecap="round"/></g><g stroke="none" stroke-linecap="butt"><g stroke-width="0"><path d="M355.93022,61.40919c0,9.85032 -5.83021,17.83559 -13.02214,17.83559c-7.19193,0 -13.02215,-7.98526 -13.02215,-17.83559c0,-9.85032 5.83022,-17.83559 13.02215,-17.83559c7.19193,0 13.02214,7.98526 13.02214,17.83559z" fill="#1d1d1d"/><path d="M353.68024,61.38258c0,9.29144 -4.81627,16.82365 -10.75743,16.82365c-5.94116,0 -10.75742,-7.53221 -10.75742,-16.82364c0,-9.29144 4.81626,-16.82364 10.75742,-16.82364c5.94116,0 10.75743,7.5322 10.75743,16.82364z" fill="#f5f5f5"/></g><g fill="none" stroke-width="1" font-family="sans-serif" font-weight="normal" font-size="12" text-anchor="start"/></g><g stroke="none" stroke-linecap="butt"><g stroke-width="0"><path d="M388.10687,60.74739c0,9.85032 -5.83021,17.83559 -13.02214,17.83559c-7.19193,0 -13.02215,-7.98526 -13.02215,-17.83559c0,-9.85032 5.83022,-17.83559 13.02215,-17.83559c7.19193,0 13.02214,7.98527 13.02214,17.83559z" fill="#1d1d1d"/><path d="M385.85688,60.72079c0,9.29144 -4.81626,16.82365 -10.75742,16.82365c-5.94116,0 -10.75742,-7.53221 -10.75742,-16.82364c0,-9.29144 4.81626,-16.82364 10.75742,-16.82364c5.94116,0 10.75742,7.5322 10.75742,16.82364z" fill="#f5f5f5"/></g><g fill="none" stroke-width="1" font-family="sans-serif" font-weight="normal" font-size="12" text-anchor="start"/></g></g></g><g stroke="none" stroke-width="0" stroke-linecap="butt"><g><g><path d="M363.81755,275.66792c0,-7.81223 6.33307,-14.1453 14.1453,-14.1453c7.81223,0 14.1453,6.33307 14.1453,14.1453c0,7.81223 -6.33306,14.1453 -14.1453,14.1453c-7.81223,0 -14.1453,-6.33307 -14.1453,-14.1453z" fill="#934e4e"/><path d="M388.33216,278.83502c-2.52849,1.89096 -6.99554,0.19159 -9.97744,-3.79565c-2.9819,-3.98723 -3.34946,-8.75245 -0.82097,-10.64341c2.52849,-1.89096 6.99554,-0.19159 9.97744,3.79564c2.9819,3.98723 3.34945,8.75245 0.82097,10.64342z" fill="#a05555"/></g><path d="M362.80124,322.89165c-0.43096,-3.95374 -1.00556,-43.46256 0,-46.5513c0.11087,-0.34055 0.29774,-0.50707 0.64536,-0.62713c7.1163,3.21137 22.54686,4.1289 28.95636,0c0.43804,0.18011 0.65097,0.28004 0.73926,0.62713c0.57461,2.25919 0.57461,43.14453 0,46.74616c-0.07161,0.44884 -0.31247,0.51666 -0.59311,0.70875c-4.46798,3.05844 -23.78875,2.59968 -29.1025,0c-0.37251,-0.18225 -0.58293,-0.33089 -0.64536,-0.90362z" fill="#cb6c6c"/></g><path d="M362.66225,268.92406c-0.43096,-3.95375 -1.00556,-43.46255 0,-46.55129c0.11087,-0.34055 0.29773,-0.50707 0.64535,-0.62713c6.19877,-2.14091 23.00562,-2.44675 28.95635,0c0.43804,0.1801 0.65097,0.28003 0.73926,0.62713c0.57461,2.2592 0.57461,43.14453 0,46.74615c-0.07161,0.44884 -0.31246,0.51666 -0.5931,0.70875c-4.46798,3.05845 -23.78876,2.59967 -29.10251,0c-0.37251,-0.18225 -0.58292,-0.3309 -0.64535,-0.90362z" fill="#ad4978"/></g><g stroke="none" stroke-width="0" stroke-linecap="butt"><g><g><path d="M328.89088,275.84446c0,-7.81223 6.33307,-14.1453 14.1453,-14.1453c7.81223,0 14.1453,6.33307 14.1453,14.1453c0,7.81223 -6.33307,14.1453 -14.1453,14.1453c-7.81223,0 -14.1453,-6.33307 -14.1453,-14.1453z" fill="#934e4e"/><path d="M353.4055,279.01155c-2.52849,1.89096 -6.99554,0.19159 -9.97744,-3.79564c-2.9819,-3.98723 -3.34946,-8.75245 -0.82097,-10.64342c2.52849,-1.89096 6.99555,-0.19159 9.97744,3.79565c2.9819,3.98723 3.34945,8.75245 0.82096,10.64341z" fill="#a05555"/></g><path d="M327.87457,323.06815c-0.43096,-3.95374 -1.00556,-43.46256 0,-46.55129c0.11087,-0.34055 0.29774,-0.50706 0.64535,-0.62712c7.1163,3.21137 22.54686,4.1289 28.95636,0c0.43804,0.18011 0.65097,0.28003 0.73926,0.62712c0.57461,2.25919 0.57461,43.14453 0,46.74615c-0.07161,0.44884 -0.31247,0.51666 -0.5931,0.70875c-4.46798,3.05844 -23.78876,2.59968 -29.10251,0c-0.37251,-0.18225 -0.58292,-0.33089 -0.64535,-0.90362z" fill="#cb6c6c"/></g><path d="M327.73558,269.10055c-0.43096,-3.95375 -1.00556,-43.46255 0,-46.55129c0.11087,-0.34055 0.29773,-0.50707 0.64535,-0.62713c6.19877,-2.14091 23.00563,-2.44675 28.95636,0c0.43804,0.1801 0.65096,0.28004 0.73925,0.62713c0.57461,2.2592 0.57461,43.14453 0,46.74615c-0.07161,0.44884 -0.31247,0.51666 -0.5931,0.70875c-4.46798,3.05845 -23.78876,2.59967 -29.10251,0c-0.37251,-0.18225 -0.58292,-0.3309 -0.64535,-0.90362z" fill="#ad4978"/></g><g stroke="none" stroke-width="0" stroke-linecap="butt"><g><g><path d="M392.62661,171.99082c0,-7.81223 6.33306,-14.1453 14.1453,-14.1453c7.81223,0 14.1453,6.33307 14.1453,14.1453c0,7.81223 -6.33307,14.1453 -14.1453,14.1453c-7.81223,0 -14.1453,-6.33307 -14.1453,-14.1453z" fill="#934e4e"/><path d="M417.14123,175.1579c-2.52849,1.89096 -6.99554,0.19159 -9.97744,-3.79564c-2.9819,-3.98723 -3.34945,-8.75245 -0.82097,-10.64342c2.52849,-1.89096 6.99554,-0.19159 9.97744,3.79565c2.9819,3.98723 3.34945,8.75245 0.82097,10.64341z" fill="#a05555"/></g><path d="M391.61028,219.21454c-0.43095,-3.95374 -1.00556,-43.46255 0,-46.55129c0.11087,-0.34055 0.29774,-0.50707 0.64535,-0.62713c7.1163,3.21137 22.54686,4.1289 28.95636,0c0.43804,0.1801 0.65097,0.28004 0.73925,0.62713c0.57461,2.2592 0.57461,43.14453 0,46.74615c-0.07161,0.44884 -0.31247,0.51665 -0.5931,0.70875c-4.46798,3.05844 -23.78875,2.59968 -29.10251,0c-0.37251,-0.18224 -0.58292,-0.33089 -0.64535,-0.90362z" fill="#cb6c6c"/></g><path d="M391.4713,165.24691c-0.43095,-3.95374 -1.00556,-43.46255 0,-46.55129c0.11087,-0.34055 0.29773,-0.50707 0.64535,-0.62713c6.19877,-2.14091 23.00562,-2.44675 28.95635,0c0.43804,0.1801 0.65097,0.28003 0.73926,0.62713c0.57461,2.2592 0.57461,43.14453 0,46.74616c-0.07161,0.44884 -0.31246,0.51665 -0.5931,0.70875c-4.46798,3.05845 -23.78876,2.59967 -29.10251,0c-0.37251,-0.18224 -0.58292,-0.3309 -0.64535,-0.90362z" fill="#cb6c6c"/></g><g stroke="none" stroke-width="0" stroke-linecap="butt"><g><g><path d="M299.33189,171.84379c0,-7.81223 6.33307,-14.1453 14.1453,-14.1453c7.81223,0 14.1453,6.33307 14.1453,14.1453c0,7.81223 -6.33306,14.1453 -14.1453,14.1453c-7.81223,0 -14.1453,-6.33307 -14.1453,-14.1453z" fill="#934e4e"/><path d="M323.84651,175.01092c-2.52849,1.89096 -6.99554,0.19159 -9.97744,-3.79565c-2.9819,-3.98723 -3.34946,-8.75245 -0.82097,-10.64342c2.52849,-1.89096 6.99554,-0.19159 9.97744,3.79565c2.9819,3.98723 3.34946,8.75245 0.82097,10.64342z" fill="#a05555"/></g><path d="M298.31557,219.06752c-0.43096,-3.95374 -1.00556,-43.46256 0,-46.5513c0.11087,-0.34055 0.29774,-0.50707 0.64535,-0.62713c7.1163,3.21137 22.54686,4.1289 28.95636,0c0.43804,0.1801 0.65096,0.28004 0.73925,0.62713c0.57461,2.2592 0.57461,43.14453 0,46.74616c-0.07161,0.44884 -0.31247,0.51665 -0.5931,0.70875c-4.46798,3.05844 -23.78876,2.59968 -29.10251,0c-0.37251,-0.18224 -0.58292,-0.33089 -0.64535,-0.90362z" fill="#cb6c6c"/></g><path d="M298.17658,165.09989c-0.43096,-3.95374 -1.00556,-43.46255 0,-46.55129c0.11087,-0.34055 0.29773,-0.50707 0.64535,-0.62713c6.19877,-2.14091 23.00563,-2.44675 28.95636,0c0.43804,0.1801 0.65097,0.28003 0.73926,0.62713c0.57461,2.2592 0.57461,43.14453 0,46.74616c-0.07161,0.44884 -0.31247,0.51665 -0.5931,0.70875c-4.46798,3.05845 -23.78876,2.59967 -29.10251,0c-0.37251,-0.18224 -0.58292,-0.3309 -0.64535,-0.90362z" fill="#cb6c6c"/></g><g stroke="none" stroke-width="0" stroke-linecap="butt"><path d="M325.81162,221.21671c-0.97059,-8.90455 -2.26472,-97.88559 0,-104.842c0.2497,-0.76698 0.62517,-1.41241 1.45345,-1.41241c4.31732,0 56.979,0 65.215,0c1.06667,0 1.4661,0.63069 1.66493,1.41241c1.29413,5.08812 1.29413,97.16935 0,105.28087c-0.16128,1.01087 -0.56983,1.59625 -1.33577,1.59625c-4.20777,0 -57.70953,0 -65.54416,0c-0.93398,0 -1.31285,-0.74525 -1.45345,-2.03512z" fill="#db7474"/><g><path d="M324.0259,188.4324c-0.3533,-6.21598 -0.82437,-68.33085 0,-73.1869c0.09089,-0.53541 0.22757,-0.98596 0.52906,-0.98596c1.57152,0 20.74048,0 23.73839,0c0.38827,0 0.53366,0.44026 0.60603,0.98596c0.27846,2.09953 3.97843,59.60122 -1.8691,81.2266c-4.04496,14.95909 -22.95321,-7.13926 -23.00438,-8.03969z" fill="#46173a"/><g><path d="M325.10363,187.62608c-0.32509,-6.05504 -0.75855,-66.56151 0,-71.29182c0.08363,-0.52155 0.2094,-0.96043 0.48683,-0.96043c1.44604,0 19.08456,0 21.84313,0c0.35727,0 0.49106,0.42886 0.55765,0.96043c0.25621,2.04516 3.6608,58.05791 -1.71988,79.12334c-3.72201,14.57174 -21.12064,-6.95441 -21.16773,-7.83151z" fill="#ad4978"/><path d="M328.7785,128.1245l1.50361,-4.4025l-3.02577,-2.76968l3.86904,0.26549l2.04345,-4.02974l1.29799,4.25903l3.93938,0.27032l-3.4485,2.36075l0.74988,4.5218l-3.25146,-3.08554z" fill="#ffffff"/><path d="M343.19986,146.98365l-1.29965,-2.97189l-2.86004,0.00036l2.11461,-1.68516l-0.84654,-3.03439l2.67279,1.57901l2.15306,-1.7158l-0.66181,2.83767l2.51466,1.97221l-3.12482,-0.05579z" fill="#ffffff"/><path d="M327.00788,169.62644l0.52639,-1.91669l-1.36259,-1.10223l1.6569,0.0123l0.76633,-1.77182l0.66462,1.78244l1.68702,0.01253l-1.40905,1.0967l0.43774,1.90879l-1.46708,-1.23104z" fill="#ffffff"/><path d="M337.11498,184.89804l0.14602,-6.13725l-4.90676,-2.28555l4.97472,-1.20062l0.9733,-5.88225l3.32305,4.84535l5.06516,-1.22244l-3.40366,4.33908l2.73745,5.39348l-5.31611,-2.59356z" fill="#ffffff"/></g></g><g data-paper-data="{&quot;index&quot;:null}"><path d="M373.72341,196.26633c-5.84753,-21.62538 -2.14756,-79.12706 -1.8691,-81.22659c0.07237,-0.54569 0.21776,-0.98596 0.60603,-0.98596c2.99792,0 22.16688,0 23.73839,0c0.30149,0 0.43817,0.45055 0.52906,0.98596c0.82437,4.85605 0.3533,66.97092 0,73.18691c-0.05118,0.90043 -18.95943,22.99877 -23.00438,8.03968z" fill="#46173a"/><g><path d="M374.48234,195.25182c-5.38068,-21.06543 -1.97609,-77.07817 -1.71988,-79.12334c0.06659,-0.53157 0.20038,-0.96043 0.55765,-0.96043c2.75857,0 20.39709,0 21.84313,0c0.27743,0 0.40319,0.43887 0.48682,0.96043c0.75855,4.73031 0.32509,65.23679 0,71.29182c-0.04708,0.87711 -17.44572,22.40326 -21.16773,7.83152z" fill="#ad4978"/><path d="M388.29756,125.30868l-3.25146,3.08554l0.74988,-4.52179l-3.44849,-2.36075l3.93938,-0.27032l1.29798,-4.25903l2.04345,4.02975l3.86903,-0.26549l-3.02577,2.76968l1.50362,4.4025z" fill="#ffffff"/><path d="M376.89158,143.7041l-3.12482,0.05579l2.51466,-1.97221l-0.66181,-2.83768l2.15305,1.71581l2.6728,-1.57902l-0.84654,3.03439l2.1146,1.68517l-2.86003,-0.00037l-1.29966,2.9719z" fill="#ffffff"/><path d="M392.24555,168.21163l-1.46708,1.23104l0.43773,-1.90879l-1.40906,-1.09671l1.68703,-0.01252l0.66463,-1.78244l0.76634,1.77182l1.6569,-0.01231l-1.36259,1.10224l0.52639,1.91669z" fill="#ffffff"/><path d="M380.04555,179.94854l-5.3161,2.59356l2.73744,-5.39348l-3.40366,-4.33908l5.06516,1.22244l3.32305,-4.84536l0.9733,5.88226l4.97472,1.20061l-4.90676,2.28555l0.14602,6.13725z" fill="#ffffff"/></g></g><g><path d="M337.99386,127.62765c0,-12.15035 9.8498,-22.00015 22.00015,-22.00015c12.15034,0 22.00015,9.8498 22.00015,22.00015c0,12.15035 -9.84981,22.00015 -22.00015,22.00015c-12.15034,0 -22.00015,-9.84981 -22.00015,-22.00015z" fill="url(#color-1)"/><g><path d="M358.36696,125.95115c0,4.3777 -6.49682,10.19124 -10.91919,10.19124c-4.42237,0 -5.09562,-5.81355 -5.09562,-10.19124c0,-4.3777 -0.13558,-10.02948 4.28679,-10.02948c4.42237,0 11.72802,5.65178 11.72802,10.02948z" data-paper-data="{&quot;index&quot;:null}" fill="#c972bb"/><path d="M361.29302,125.96586c0,-4.3777 7.30565,-10.02948 11.72802,-10.02948c4.42237,0 4.2868,5.65178 4.2868,10.02948c0,4.37769 -0.67325,10.19124 -5.09562,10.19124c-4.42237,0 -10.91919,-5.81354 -10.91919,-10.19124z" fill="#c972bb"/><path d="M353.36651,125.80412c0,-3.75231 3.04184,-6.79417 6.79416,-6.79417c3.75232,0 6.79416,3.04185 6.79416,6.79417c0,3.75232 -3.04185,6.79416 -6.79416,6.79416c-3.75232,0 -6.79416,-3.04184 -6.79416,-6.79416z" fill="#e88ad9"/></g></g></g></g></g></svg>