<svg version="1.1" xmlns="http://www.w3.org/2000/svg" xmlns:xlink="http://www.w3.org/1999/xlink" width="199.85701" height="242.34702" viewBox="0,0,199.85701,242.34702"><defs><radialGradient cx="134.33319" cy="284.5971" r="96.82864" gradientUnits="userSpaceOnUse" id="color-1"><stop offset="0" stop-color="#000000"/><stop offset="1" stop-color="#121212"/></radialGradient><radialGradient cx="64.7847" cy="197.97514" r="35.38781" gradientUnits="userSpaceOnUse" id="color-2"><stop offset="0" stop-color="#0e0e0e"/><stop offset="1" stop-color="#1f1f1f"/></radialGradient><radialGradient cx="142.21141" cy="283.63487" r="96.82864" gradientUnits="userSpaceOnUse" id="color-3"><stop offset="0" stop-color="#000000"/><stop offset="1" stop-color="#1f1f1f"/></radialGradient><radialGradient cx="152.05171" cy="372.38522" r="69.24835" gradientUnits="userSpaceOnUse" id="color-4"><stop offset="0" stop-color="#383027"/><stop offset="1" stop-color="#4e4337"/></radialGradient></defs><g transform="translate(-38.98151,-157.14444)"><g stroke-miterlimit="10"><path d="M61.18445,391.0795c0,0 -19.19,-157.1178 -22.11923,-181.10079c-0.72611,-5.945 3.35282,-11.70351 9.07951,-12.40295c17.82693,-2.17734 113.48758,-13.86111 148.11071,-18.08989c7.9807,-0.97474 11.93281,4.41193 12.68185,10.54465c2.96638,24.28723 22.023,180.31297 22.023,180.31297z" fill="url(#color-1)" stroke="#c7c7c7" stroke-width="0"/><path d="M59.29454,228.63673c0,0 -6.07196,-49.71411 -7.86224,-64.37199c-0.92869,-7.6036 16.75956,-10.07788 17.66828,-2.63771c1.78271,14.59592 7.91998,64.84468 7.91998,64.84468z" fill="url(#color-2)" stroke="#c7c7c7" stroke-width="0"/><path d="M69.06268,390.11727c0,0 -19.19,-157.11781 -22.11923,-181.10079c-0.72611,-5.945 3.35282,-11.70351 9.07951,-12.40295c17.82693,-2.17734 113.48758,-13.86111 148.11071,-18.08989c7.9807,-0.97474 11.93281,4.41193 12.68185,10.54465c2.96638,24.28723 22.023,180.31297 22.023,180.31297z" fill="url(#color-3)" stroke="#c7c7c7" stroke-width="0"/><path d="M81.88133,347.77329l-16.40599,-134.32381l134.32381,-16.40599l16.40599,134.32381z" fill="#000000" stroke="#000000" stroke-width="0"/><path d="M85.59945,399.49146l-4.57059,-37.42159c0,0 45.05606,-9.50092 67.66557,-12.26239c23.20028,-2.83363 69.80953,-4.5285 69.80953,-4.5285l4.57059,37.42159z" fill="url(#color-4)" stroke="#c7c7c7" stroke-width="0"/><text transform="translate(95.22487,293.00805) rotate(-8.59264) scale(1.1747,1.1747)" font-size="40" xml:space="preserve" fill="#dcdcdc" stroke="none" stroke-width="1" font-family="&quot;Century Gothic&quot;, Sans Serif" font-weight="normal" text-anchor="start"><tspan x="0" dy="0">ASC</tspan></text></g></g></svg>