<svg version="1.1" xmlns="http://www.w3.org/2000/svg" xmlns:xlink="http://www.w3.org/1999/xlink" width="135.13785" height="182.26676" viewBox="0,0,135.13785,182.26676"><g transform="translate(-292.43107,-73.88864)"><g fill="#ffffff" stroke="none" stroke-width="0" stroke-miterlimit="10"><path d="M322.12207,256.1554z" stroke-linecap="butt"/><g><g><path d="M388.6336,202.36373c0,8.65763 -11.97703,15.676 -26.75144,15.676c-14.77442,0 -26.75144,-7.01838 -26.75144,-15.676c0,-8.65763 11.97703,-15.676 26.75144,-15.676c14.77442,0 26.75144,7.01838 26.75144,15.676z" stroke-linecap="butt"/><g><g><g><path d="M344.73999,218.66602c-0.65576,-0.16698 -1.23936,-3.6541 -1.23936,-3.6541l6.70236,-26.31893c0,0 2.30646,-3.27825 2.96221,-3.11125c0.73804,0.18795 1.24838,4.18353 1.24838,4.18353l-6.70235,26.31893c0,0 -2.2332,2.76979 -2.97124,2.58184z" stroke-linecap="butt"/><path d="M343.50713,215.22222l3.86682,0.6333" stroke-linecap="round"/><path d="M350.4106,188.86663l3.42251,0.87157" stroke-linecap="round"/><path d="M347.09094,201.90234l4.41308,-1.51182" stroke-linecap="round"/><path d="M350.60302,194.88981c0.29844,0.07599 0.49336,0.32231 0.43533,0.55013c-0.05803,0.22782 -0.34698,0.3509 -0.64544,0.2749c-0.29846,-0.07601 -0.49339,-0.32231 -0.43536,-0.55015c0.05801,-0.22783 0.347,-0.35091 0.64546,-0.2749z" stroke-linecap="butt"/><path d="M347.46355,207.97137c0.29846,0.07601 0.49337,0.32231 0.43534,0.55015c-0.05803,0.22783 -0.34698,0.35091 -0.64544,0.2749c-0.29846,-0.07599 -0.49337,-0.3223 -0.43534,-0.55013c0.05801,-0.22782 0.34698,-0.35091 0.64544,-0.2749z" stroke-linecap="butt"/></g><g><path d="M358.06274,203.26202v-3.25637c0,0 0.85894,-1.0602 3.10491,-1.0602c2.49732,0 3.71074,1.0602 3.71074,1.0602v3.25637z" stroke-linecap="butt"/><g><path d="M361.49944,220.37901c-0.76158,0.00384 -2.25849,-3.22387 -2.25849,-3.22387l-0.13702,-27.15859c0,0 1.46167,-3.75348 2.22327,-3.75732c0.67667,-0.00342 2.12166,3.73539 2.12166,3.73539l0.13704,27.15859c0,0 -1.40976,3.2424 -2.08645,3.24581z" stroke-linecap="butt"/><path d="M363.5288,217.33572l-3.90518,-0.32085" stroke-linecap="round"/><path d="M363.20546,190.09294l-3.53169,0.01782" stroke-linecap="round"/><path d="M359.357,201.01013l3.91633,2.5344" stroke-linecap="round"/><path d="M361.56177,195.89068c0.30797,-0.00155 0.55861,0.18777 0.55978,0.42287c0.0012,0.2351 -0.24753,0.42695 -0.5555,0.4285c-0.30797,0.00154 -0.55857,-0.18777 -0.55977,-0.42286c-0.0012,-0.2351 0.2475,-0.42695 0.55548,-0.4285z" stroke-linecap="butt"/><path d="M361.44375,209.34321c0.30797,-0.00155 0.5586,0.18777 0.55978,0.42286c0.0012,0.2351 -0.24752,0.42695 -0.55549,0.4285c-0.30797,0.00155 -0.55858,-0.18776 -0.55977,-0.42286c-0.0012,-0.2351 0.24752,-0.42695 0.55549,-0.4285z" stroke-linecap="butt"/></g><path d="M358.593,201.97462l-0.37865,-2.27189c0,0 1.29774,0.37864 3.02918,0.37864c1.44094,0 3.40783,-0.37864 3.40783,-0.37864l-0.37865,2.27189z" stroke-linecap="butt"/><path d="M358.00719,206.0945v-6.03672c0,0 1.12134,0.85367 3.11572,0.85367c2.24891,0 3.81107,-0.85367 3.81107,-0.85367l-0.07572,6.03672c0,0 -2.67056,0.37177 -3.85925,0.37177c-1.08564,0 -2.9918,-0.37177 -2.9918,-0.37177z" stroke-linecap="butt"/></g><g><path d="M378.08251,216.09123c-0.73804,0.18795 -2.97124,-2.58184 -2.97124,-2.58184l-6.70235,-26.31893c0,0 0.51034,-3.99558 1.24838,-4.18353c0.65575,-0.167 2.96221,3.11125 2.96221,3.11125l6.70236,26.31893c0,0 -0.5836,3.48712 -1.23936,3.6541z" stroke-linecap="butt"/><path d="M375.44863,213.28071l3.86682,-0.6333" stroke-linecap="round"/><path d="M372.41197,186.29184l-3.42251,0.87157" stroke-linecap="round"/><path d="M375.73163,199.32755l-4.41308,-1.51182" stroke-linecap="round"/><path d="M372.21949,192.31499c0.29846,-0.07601 0.58744,0.04707 0.64546,0.2749c0.05803,0.22783 -0.1369,0.47414 -0.43536,0.55015c-0.29846,0.07599 -0.58741,-0.04708 -0.64544,-0.2749c-0.05803,-0.22782 0.13689,-0.47414 0.43533,-0.55013z" stroke-linecap="butt"/><path d="M375.35903,205.39656c0.29846,-0.07601 0.58743,0.04708 0.64544,0.2749c0.05803,0.22783 -0.13689,0.47414 -0.43534,0.55013c-0.29846,0.07601 -0.58741,-0.04707 -0.64544,-0.2749c-0.05803,-0.22783 0.13689,-0.47414 0.43534,-0.55015z" stroke-linecap="butt"/></g><path d="M341.26698,212.40907v-38.16766h41.67286v38.16766z" stroke-linecap="butt"/><g><g><g><g><g stroke-linecap="butt"><path d="M399.65073,196.89785c-0.04667,6.31567 -2.70388,14.24622 -7.84253,20.96112c-5.95158,7.77722 -15.36479,13.92374 -30.02818,14.04199c-1.89899,0.01535 -0.80344,2.06126 -2.55588,1.8633c-0.86894,-0.09816 -4.64093,-2.3634 -5.47405,-2.51041c-0.86735,-0.15307 0.42676,2.78377 -0.40189,2.58037c-1.11751,-0.2743 -4.34197,-3.70889 -5.38941,-4.06901c-4.76125,-1.637 -8.8006,-4.1268 -12.13499,-7.16099c-8.47411,-7.71116 -11.48627,-18.59748 -11.81387,-24.81697c-0.76369,-44.12645 75.91341,-37.78056 75.64078,-0.8894zM361.25609,215.0192c5.49327,0 25.89948,-8.13804 25.89948,-13.63131c0,-5.26985 -14.94993,-14.08568 -30.89764,-14.08568c-13.67581,0 -18.17507,13.13239 -18.17507,18.40227c0,5.26985 17.90337,9.31474 23.17322,9.31474z"/><path d="M392.79433,194.04038c0,7.20082 -0.96555,17.60351 -9.20588,24.15409c-4.5657,3.62946 -11.12853,6.07636 -21.55913,6.14085c-12.3332,0.07604 -19.62167,-3.76183 -24.21194,-8.85423c-5.9985,-6.65465 -7.14818,-15.45167 -6.48297,-20.45644c0.30377,-2.84635 5.59092,-9.89437 28.42786,-9.54046c26.53444,-0.1728 33.03205,6.28022 33.03205,8.55617zM360.34732,212.29296c8.55127,-0.1069 20.76826,-1.45477 20.67415,-10.67787c-0.09411,-9.22309 -11.29661,-11.64311 -20.90133,-11.58661c-9.60474,0.0565 -17.8066,3.39578 -17.7207,11.8138c0.0859,8.41803 9.39661,10.55756 17.94788,10.45066z"/></g><g><path d="M335.90978,205.40307c0,0 0.86821,-0.01509 1.20947,-0.14009c0.48484,-0.17759 0.84398,0.00902 1.20044,0.41146c1.15985,1.30938 4.12588,4.59934 8.60238,7.08348c3.89779,2.163 10.29398,4.02692 15.04641,3.83173c4.99089,-0.16257 10.33643,-1.53463 14.56181,-3.73923c4.72157,-2.46349 7.8086,-5.76629 8.98277,-7.16059c0.40121,-0.47641 0.83533,-0.58227 1.4084,-0.42485c0.36672,0.10074 1.19184,0.32741 1.19184,0.32741c0,0 -2.48365,3.69531 -7.14792,7.0762c-4.68865,3.39856 -11.57748,6.48297 -19.10848,6.55421c-16.60841,0.1571 -25.94711,-13.81973 -25.94711,-13.81973z" stroke-linecap="butt"/><path d="M335.7311,207.06148c0,0 0,-0.25349 0,-1.10348c0,-0.72543 0.6303,-0.69841 1.03507,-0.12534c1.35397,1.91698 4.08064,5.17567 8.43864,7.82132c4.04457,2.45538 10.04935,4.13872 16.04447,4.44417c6.79019,-0.07237 13.13334,-2.03784 17.46326,-4.62213c4.1353,-2.46813 6.80354,-5.39927 8.22217,-7.24872c0.461,-0.601 1.25097,-1.05534 1.25097,-0.26931c0,0.86038 0,1.2982 0,1.2982c0,0 -0.8183,4.56207 -5.47069,8.21026c-4.35976,3.41869 -12.216,5.93995 -22.17394,5.89737c-7.23313,-0.03093 -13.88846,-2.32261 -17.78289,-5.06264c-5.84784,-4.11439 -7.02703,-9.23971 -7.02703,-9.23971z" stroke-linecap="butt"/><path d="M339.39308,212.31929l-0.06444,-1.96897" stroke-linecap="round"/><path d="M344.24214,216.26411l-0.06445,-1.96897" stroke-linecap="round"/><path d="M350.04176,216.91809l0.06445,1.96897" stroke-linecap="round"/><path d="M356.64688,220.49806l-0.06445,-1.96897" stroke-linecap="round"/><path d="M364.13823,218.77691l0.06445,1.96897" stroke-linecap="round"/><path d="M371.91941,217.4138l0.06445,1.96897" stroke-linecap="round"/><path d="M378.46013,215.04899l0.06444,1.96897" stroke-linecap="round"/><path d="M384.43699,210.59815l0.06445,1.96897" stroke-linecap="round"/></g></g><path d="M329.81449,198.75505c0,2.15097 -1.22059,3.89466 -2.72626,3.89466c-1.50567,0 -2.72626,-1.7437 -2.72626,-3.89466c0,-2.15097 1.22059,-3.89467 2.72626,-3.89467c1.50567,0 2.72626,1.7437 2.72626,3.89467z" stroke-linecap="butt"/><path d="M341.4011,183.20563c0,1.76917 -1.46471,3.20336 -3.27151,3.20336c-1.80682,0 -3.27151,-1.43419 -3.27151,-3.20336c0,-1.76917 1.4647,-3.20336 3.27151,-3.20336c1.80682,0 3.27151,1.43419 3.27151,3.20336z" stroke-linecap="butt"/><path d="M333.35857,188.2492c0,1.69388 -1.12904,3.06704 -2.52179,3.06704c-1.39275,0 -2.52179,-1.37316 -2.52179,-3.06704c0,-1.69388 1.12905,-3.06704 2.52179,-3.06704c1.39275,0 2.52179,1.37316 2.52179,3.06704z" stroke-linecap="butt"/><path d="M328.72394,193.56541c0,0.79048 -0.6103,1.43129 -1.36313,1.43129c-0.75283,0 -1.36313,-0.64081 -1.36313,-1.43129c0,-0.79048 0.6103,-1.43129 1.36313,-1.43129c0.75283,0 1.36313,0.64081 1.36313,1.43129z" stroke-linecap="butt"/><path d="M328.1787,190.36206c0,0.4517 -0.24411,0.81788 -0.54525,0.81788c-0.30113,0 -0.54525,-0.36618 -0.54525,-0.81788c0,-0.4517 0.24411,-0.81788 0.54525,-0.81788c0.30113,0 0.54525,0.36618 0.54525,0.81788z" stroke-linecap="butt"/><path d="M349.1709,225.1219c0,1.05397 -0.70185,1.90838 -1.5676,1.90838c-0.86577,0 -1.5676,-0.85441 -1.5676,-1.90838c0,-1.05397 0.70184,-1.90838 1.5676,-1.90838c0.86577,0 1.5676,0.85441 1.5676,1.90838z" stroke-linecap="butt"/><path d="M348.35301,225.32634c0,1.31747 -1.00699,2.38548 -2.24917,2.38548c-1.24218,0 -2.24917,-1.06801 -2.24917,-2.38548c0,-1.31747 1.00699,-2.38548 2.24917,-2.38548c1.24218,0 2.24917,1.06801 2.24917,2.38548z" stroke-linecap="butt"/><path d="M344.6726,223.41798c0,0.94105 -0.54926,1.70391 -1.22682,1.70391c-0.67754,0 -1.22682,-0.76286 -1.22682,-1.70391c0,-0.94105 0.54927,-1.70391 1.22682,-1.70391c0.67754,0 1.22682,0.76286 1.22682,1.70391z" stroke-linecap="butt"/><path d="M352.05,226.34869c0,1.20454 -0.85812,2.18101 -1.91664,2.18101c-1.05853,0 -1.91664,-0.97647 -1.91664,-2.18101c0,-1.20454 0.8581,-2.18101 1.91664,-2.18101c1.05853,0 1.91664,0.97648 1.91664,2.18101z" stroke-linecap="butt"/><path d="M344.39994,225.1219c0,0.37641 -0.48823,0.68157 -1.0905,0.68157c-0.60227,0 -1.0905,-0.30515 -1.0905,-0.68157c0,-0.37641 0.48823,-0.68157 1.0905,-0.68157c0.60227,0 1.0905,0.30515 1.0905,0.68157z" stroke-linecap="butt"/><path d="M341.94634,221.85036c0,0.15057 -0.2136,0.27263 -0.4771,0.27263c-0.26349,0 -0.4771,-0.12205 -0.4771,-0.27263c0,-0.15057 0.2136,-0.27263 0.4771,-0.27263c0.26349,0 0.4771,0.12205 0.4771,0.27263z" stroke-linecap="butt"/><path d="M353.53295,228.87051c0,0.26349 -0.1831,0.4771 -0.40894,0.4771c-0.22584,0 -0.40894,-0.2136 -0.40894,-0.4771c0,-0.26349 0.1831,-0.4771 0.40894,-0.4771c0.22584,0 0.40894,0.2136 0.40894,0.4771z" stroke-linecap="butt"/><path d="M398.65271,198.67715c0,1.27982 -1.03751,2.31732 -2.31732,2.31732c-1.27983,0 -2.31732,-1.03749 -2.31732,-2.31732c0,-1.27982 1.03749,-2.31732 2.31732,-2.31732c1.27983,0 2.31732,1.03749 2.31732,2.31732z" stroke-linecap="butt"/><path d="M397.42589,203.85706c0,1.58096 -1.00699,2.86257 -2.24917,2.86257c-1.24218,0 -2.24917,-1.28162 -2.24917,-2.86257c0,-1.58096 1.00699,-2.86257 2.24917,-2.86257c1.24218,0 2.24917,1.28162 2.24917,2.86257z" stroke-linecap="butt"/><path d="M397.15327,201.26711c0,1.3551 -0.8239,2.45364 -1.84023,2.45364c-1.01634,0 -1.84023,-1.09852 -1.84023,-2.45364c0,-1.3551 0.82389,-2.45364 1.84023,-2.45364c1.01634,0 1.84023,1.09853 1.84023,2.45364z" stroke-linecap="butt"/><path d="M395.10857,207.19672c0,0.63991 -0.51875,1.15866 -1.15866,1.15866c-0.63991,0 -1.15866,-0.51875 -1.15866,-1.15866c0,-0.63991 0.51875,-1.15866 1.15866,-1.15866c0.63991,0 1.15866,0.51875 1.15866,1.15866z" stroke-linecap="butt"/><path d="M394.15438,204.12967c0,0.22584 -0.27463,0.40894 -0.61341,0.40894c-0.33878,0 -0.61341,-0.1831 -0.61341,-0.40894c0,-0.22584 0.27463,-0.40894 0.61341,-0.40894c0.33878,0 0.61341,0.1831 0.61341,0.40894z" stroke-linecap="butt"/><path d="M396.88064,207.46935c0,0.18821 -0.15258,0.34078 -0.34078,0.34078c-0.18821,0 -0.34078,-0.15258 -0.34078,-0.34078c0,-0.18821 0.15258,-0.34078 0.34078,-0.34078c0.18821,0 0.34078,0.15258 0.34078,0.34078z" stroke-linecap="butt"/><path d="M380.93201,223.28164c0,0.26349 -0.24412,0.4771 -0.54525,0.4771c-0.30113,0 -0.54525,-0.2136 -0.54525,-0.4771c0,-0.26349 0.24411,-0.4771 0.54525,-0.4771c0.30113,0 0.54525,0.2136 0.54525,0.4771z" stroke-linecap="butt"/><path d="M382.97671,222.87271c0,0.18821 -0.1831,0.34078 -0.40894,0.34078c-0.22584,0 -0.40894,-0.15258 -0.40894,-0.34078c0,-0.18821 0.1831,-0.34078 0.40894,-0.34078c0.22584,0 0.40894,0.15258 0.40894,0.34078z" stroke-linecap="butt"/></g><path d="M378.34264,223.88907l0.17267,1.6538c0,0 -0.63989,-0.93085 -1.06381,-0.46169c-0.33684,0.37279 -0.24298,2.58673 -0.24298,2.58673c0,0 -0.85566,-1.88686 -1.27507,-1.54212c-0.19805,0.1628 -0.73263,2.70849 -0.73263,2.70849l-1.43354,-1.67226" stroke-linecap="round"/></g><path d="M324.85963,194.42693c0.63807,-6.24111 7.68946,-3.07578 7.68946,-3.07578c0,0 -2.06217,1.10125 -2.06217,7.37489c0,1.91041 0.67471,5.48507 1.79152,8.51227c0.58999,1.59923 1.49376,3.98619 2.53541,5.46226c0.8452,1.19769 2.06253,2.34795 2.49514,3.43962c1.33922,3.37942 0.32279,5.16489 -1.29965,5.16489c-1.3539,0 -4.26873,-3.28814 -6.48137,-7.35863c-2.42302,-4.45749 -4.10844,-9.85313 -4.50985,-12.89627c-0.3191,-2.41909 -0.3682,-4.572 -0.15849,-6.62326z" stroke-linecap="butt"/><path d="M398.76522,192.66473c0.18908,2.08172 0.14479,4.26659 -0.1429,6.7216c-0.36191,3.08831 -1.88145,8.56406 -4.066,13.08773c-1.99489,4.13091 -8.25786,10.95143 -9.47852,10.95143c-1.46278,0 -1.39469,-2.03916 -0.18727,-5.46877c0.16266,-0.46201 1.44268,-1.40187 2.40534,-2.60545c1.34576,-1.68255 2.50492,-3.73593 2.94916,-4.44453c0.93914,-1.49799 1.29957,-3.61745 1.8315,-5.24042c1.0069,-3.07214 1.6152,-6.69987 1.6152,-8.63866c0,-1.98109 -0.37546,-3.35128 -0.68407,-4.29897c-0.68319,-2.09795 -1.62953,-2.42812 -1.62953,-2.42812c0,0 6.81181,-3.96961 7.38708,2.36416z" stroke-linecap="butt"/></g></g><g><path d="M390.22037,201.09995c0,0.61596 -0.80631,1.36313 -2.10665,1.36313c-1.30034,0 -2.35449,-0.62325 -2.35449,-1.23921c0,-0.61596 1.05415,-1.11529 2.35449,-1.11529c1.30034,0 2.10665,0.37541 2.10665,0.99136z" stroke-linecap="butt"/><g><path d="M384.12885,186.94051l-0.41978,-3.2292c0,0 0.37324,-1.11764 1.70657,-1.29097c1.48254,-0.19272 2.33955,0.765 2.33955,0.765l0.41978,3.2292z" stroke-linecap="butt"/><g><path d="M386.61914,200.62682l-3.58229,-26.92142l2.57655,-0.35706l3.58231,26.92142c0,0 0.27817,1.01549 -1.10375,1.19849c-1.5048,0.19928 -1.47279,-0.84143 -1.47279,-0.84143z" stroke-linecap="butt"/><path d="M386.82823,200.45819l2.35967,0.01681" stroke-linecap="round"/><path d="M384.60682,184.60754l2.65164,2.21104" stroke-linecap="round"/><path d="M385.25574,179.3606c0.18263,-0.02531 0.35582,0.1431 0.38683,0.37616c0.03102,0.23305 -0.09192,0.44249 -0.27455,0.4678c-0.18263,0.0253 -0.3558,-0.1431 -0.38682,-0.37614c-0.03102,-0.23304 0.0919,-0.44249 0.27452,-0.46779z" stroke-linecap="butt"/><path d="M386.91981,192.71006c0.18263,-0.02531 0.35582,0.1431 0.38683,0.37613c0.03102,0.23305 -0.0919,0.44249 -0.27453,0.46779c-0.18263,0.02531 -0.35579,-0.14309 -0.38682,-0.37614c-0.03102,-0.23305 0.09189,-0.4425 0.27452,-0.4678z" stroke-linecap="butt"/></g><path d="M384.27758,185.62291l-0.51765,-2.22372c0,0 0.81921,0.27534 1.84708,0.14172c0.85542,-0.1112 1.97426,-0.63848 1.97426,-0.63848l0.06807,2.28215z" stroke-linecap="butt"/><path d="M384.46099,189.75362l-0.77818,-5.98635c0,0 0.77574,0.76003 1.9597,0.60612c1.33508,-0.17355 2.1524,-1.14067 2.1524,-1.14067l0.73321,5.9922c0,0 -1.53745,0.57475 -2.24313,0.66648c-0.64449,0.08378 -1.82401,-0.13779 -1.82401,-0.13779z" stroke-linecap="butt"/></g></g><g><path d="M335.72987,200.438c1.30034,0 2.35449,0.49933 2.35449,1.11529c0,0.61596 -1.05415,1.23921 -2.35449,1.23921c-1.30034,0 -2.10666,-0.74717 -2.10666,-1.36313c0,-0.61596 0.80631,-0.99136 2.10666,-0.99136z" stroke-linecap="butt"/><g><path d="M335.66861,186.74395l0.41976,-3.2292c0,0 0.85701,-0.95772 2.33955,-0.765c1.33333,0.17332 1.70656,1.29097 1.70656,1.29097l-0.41976,3.2292z" stroke-linecap="butt"/><g><path d="M335.7516,201.79768c-1.38194,-0.183 -1.10377,-1.19848 -1.10377,-1.19848l3.58232,-26.92142l2.57654,0.35706l-3.58229,26.92142c0,0 0.03201,1.04071 -1.47279,0.84143z" stroke-linecap="butt"/><path d="M334.65573,200.80441l2.35967,-0.01681" stroke-linecap="round"/><path d="M339.23683,184.93695l-2.65164,2.21104" stroke-linecap="round"/><path d="M338.58785,179.69009c0.18263,0.0253 0.30555,0.23473 0.27452,0.46777c-0.03102,0.23304 -0.20418,0.40144 -0.38682,0.37614c-0.18263,-0.02531 -0.30557,-0.23474 -0.27455,-0.4678c0.03101,-0.23305 0.2042,-0.40146 0.38683,-0.37616z" stroke-linecap="butt"/><path d="M336.92372,193.03946c0.18263,0.02531 0.30555,0.23474 0.27452,0.4678c-0.03102,0.23305 -0.20418,0.40146 -0.38682,0.37614c-0.18263,-0.0253 -0.30555,-0.23473 -0.27453,-0.46779c0.031,-0.23303 0.2042,-0.40144 0.38683,-0.37613z" stroke-linecap="butt"/></g><path d="M336.19421,185.51403l0.06807,-2.28214c0,0 1.11884,0.52727 1.97426,0.63846c1.02787,0.13361 1.84708,-0.14172 1.84708,-0.14172l-0.51765,2.2237z" stroke-linecap="butt"/><path d="M337.55857,190.22084c-0.70567,-0.09174 -2.24313,-0.66648 -2.24313,-0.66648l0.73323,-5.9922c0,0 0.81732,0.96711 2.1524,1.14065c1.18396,0.1539 1.9597,-0.60612 1.9597,-0.60612l-0.77818,5.98635c0,0 -1.17952,0.22156 -1.82401,0.13779z" stroke-linecap="butt"/></g></g></g></g><g><g stroke-linecap="butt"><path d="M381.94307,143.81381c-2.75066,-2.74078 1.99523,-7.31156 6.76132,-12.89271c2.13097,-2.49539 4.48398,-5.57452 5.49522,-8.20002c0.30665,-0.79619 -2.48582,-5.69025 -1.41513,-7.23765c1.29339,-1.86927 3.76833,4.45684 4.09133,4.04463c2.12582,-2.71297 4.41577,-5.76381 6.06041,-9.13144c0.93458,-1.91366 -4.56808,-2.62677 -9.44137,-8.67648c-3.5587,-4.41778 -5.69227,-6.66259 -6.13213,-9.1756c-0.15243,-0.87086 0.05198,-1.55694 0.34888,-0.72419c1.45867,4.09118 3.97914,5.45307 7.08176,8.53321c2.97997,2.95838 12.67727,5.42 14.68215,-0.00376c1.7086,-4.62223 2.60323,-8.98602 3.46111,-12.78659c0.25394,-1.12501 -5.97586,-8.58415 -5.27718,-9.35314c1.23629,-1.36068 3.48985,1.56078 5.05216,2.72972c0.70594,0.5282 1.54195,0.15616 1.60596,-0.18397c0.86497,-4.59668 1.34587,-7.27131 2.3609,-6.81724c0.43488,0.19455 0.66399,0.09888 0.88688,1.83911c0.97186,7.58788 1.08398,21.29382 -5.45349,36.79427c-1.49789,3.5515 -3.39383,6.76034 -5.44162,9.6196c-0.20661,0.28848 1.94821,4.65129 4.62904,5.65423c0.88928,0.33269 2.0231,0.10504 3.27738,-0.45908c0.52092,-0.23428 0.70039,-2.31841 1.70184,-4.57862c1.16346,-2.62584 1.4114,-3.54203 2.07267,-4.01866c0.483,-0.34814 -0.45109,2.81473 -0.51728,4.7905c-0.04933,1.47256 2.48229,-0.00788 2.83286,-0.28889c3.59323,-2.88031 6.69826,-5.74451 6.89268,-4.22351c0.26099,2.04174 -4.90225,8.80822 -9.06107,12.07204c-2.55408,2.00444 -6.65512,3.10495 -8.17151,3.19895c-6.04097,0.37447 -9.09016,-5.58078 -9.38443,-5.30514c-1.35484,1.26909 -1.88563,3.27341 -3.45441,4.67938c-3.08042,2.76072 -11.59765,14.03418 -15.54494,10.10107z"/><path d="M403.72131,115.30405c0.24266,0.23927 0.00341,0.48192 0.00341,0.48192l-0.37922,0.38243c-2.33393,3.32686 -4.81432,7.06478 -6.98679,10.67755c-2.09178,3.12819 -5.14028,4.85358 -7.63011,7.44137c0,0 -0.24097,0.24097 -0.48195,0c-0.24097,-0.24097 0,-0.48193 0,-0.48193c2.55637,-2.48334 5.48077,-4.23049 7.53627,-7.32413c2.21273,-3.68197 4.79312,-7.2617 7.03397,-10.74308l0.4225,-0.43071c0,0 0.23926,-0.24266 0.48192,-0.00339z"/><path d="M415.55552,90.66956c0.34078,0 0.34078,0.34078 0.34078,0.34078v0.38946c0,2.17967 -0.63263,3.68251 -1.59384,5.60493c0,0 -0.05292,0.10585 -0.15876,0.1616c0,0.90292 0,1.98825 0,2.80172c0,4.41056 -3.9832,8.52694 -5.70518,12.45822c-1.56862,1.61426 -1.97436,4.30335 -2.7767,6.33557c-0.78717,1.9938 -2.36081,3.60389 -3.08678,5.56359c-2.35583,2.79945 -3.73113,5.59921 -7.11936,7.29943c0,0 -0.30481,0.1524 -0.45721,-0.15241c-0.15241,-0.30481 0.15241,-0.45721 0.15241,-0.45721c3.26696,-1.62699 4.54562,-4.35774 6.83509,-7.03264c0.69589,-1.93011 2.27205,-3.5102 3.04166,-5.47045c0.80753,-2.05681 1.23089,-4.85512 2.84515,-6.46598c1.60488,-3.84607 5.58934,-7.79907 5.58934,-12.07812c0,-0.97367 0,-1.94733 0,-2.921v-0.38946c0,0 0,-0.34078 0.34078,-0.34078c0.02777,0 0.05326,0.00225 0.07668,0.00642c0.8111,-1.6532 1.33513,-2.99119 1.33513,-4.92342v-0.38946c0,0 0,-0.34078 0.34078,-0.34078z"/><path d="M411.77141,100.0352c0.32234,0.11058 0.21179,0.43292 0.21179,0.43292l-0.14722,0.41788c-0.9196,1.28172 -1.43404,2.80119 -2.36783,4.09296c-1.36654,1.3774 -2.00285,3.37598 -3.42676,4.78473c-1.02779,1.01684 -2.64976,2.07425 -3.22819,3.40391c0,0 -0.1524,0.3048 -0.45721,0.1524c-0.30481,-0.15241 -0.15241,-0.45721 -0.15241,-0.45721c1.33836,-2.47431 4.68361,-6.24044 6.74442,-8.32424c0.89828,-1.25041 1.38918,-2.72918 2.28255,-3.96558l0.10793,-0.32597c0,0 0.11058,-0.32235 0.43292,-0.21178z"/><path d="M393.40464,101.91541c0,-0.34078 0.34078,-0.34078 0.34078,-0.34078l0.66263,0.13704c0.18156,0.26975 0.53166,0.40848 0.84862,0.48105c2.05412,1.54936 8.30673,1.9575 8.37145,4.9805c0,0 0,0.34078 -0.34078,0.34078c-0.34078,0 -0.34078,-0.34078 -0.34078,-0.34078c0.06847,-2.27312 -6.38125,-3.1128 -7.98612,-4.36668c-0.41721,-0.11208 -0.82979,-0.34926 -1.09871,-0.68736l-0.1163,0.13704c0,0 -0.34078,0 -0.34078,-0.34078z"/><path d="M410.77186,81.51078c0.15241,-0.3048 0.45721,-0.1524 0.45721,-0.1524l0.36747,0.18469c2.67354,0.91082 5.27343,-0.88315 5.27343,3.13847c0,3.19574 -2.60053,7.04905 -4.54701,9.64902c0,0 -0.20447,0.27263 -0.4771,0.06816c-0.27263,-0.20447 -0.06816,-0.4771 -0.06816,-0.4771c1.85473,-2.46828 4.41071,-6.21262 4.41071,-9.24008c0,-3.4198 -2.42498,-1.71329 -4.85269,-2.50879l-0.41146,-0.20477c0,0 -0.30481,-0.1524 -0.1524,-0.45721z"/><path d="M411.76678,83.42148c0.18903,-0.28354 0.47258,-0.09452 0.47258,-0.09452l0.01711,0.01141c1.17571,0.79188 2.26205,1.47672 1.46179,3.15081c0,0 -0.1524,0.30481 -0.45721,0.15241c-0.30481,-0.15241 -0.15241,-0.45721 -0.15241,-0.45721c0.69541,-1.30638 -0.3758,-1.71438 -1.23025,-2.27891l-0.01711,-0.01141c0,0 -0.28354,-0.18903 -0.09452,-0.47258z"/><path d="M423.49089,124.11495c0,0.34078 -0.34078,0.34078 -0.34078,0.34078l-0.14829,-0.00318c-0.11358,0.01384 -0.22794,0.03048 -0.343,0.04973c0.0319,0.0479 0.05315,0.11176 0.05315,0.19686c0,0.25924 -0.19722,0.32128 -0.29159,0.33612c-1.42349,3.94979 -5.23366,7.18238 -9.57714,5.01583c-2.31394,-1.77583 -5.70476,-3.92166 -8.34515,-5.24186c0,0 -0.30481,-0.1524 -0.1524,-0.45721c0.15241,-0.30481 0.45721,-0.1524 0.45721,-0.1524c2.66228,1.33114 6.07077,3.48471 8.40187,5.27371c3.98823,2.00071 7.39306,-1.21737 8.61754,-4.79045c-1.94055,0.50591 -4.00197,1.60169 -5.7249,2.46315c0,0 -0.30481,0.1524 -0.45722,-0.15241c-0.15241,-0.3048 0.15241,-0.45721 0.15241,-0.45721c2.18517,-1.09259 4.74296,-2.40398 7.11636,-2.75906l0.24118,-0.00318c0,0 0.34078,0 0.34078,0.34078z"/><path d="M411.5762,131.08302c-0.15241,0.30481 -0.45721,0.1524 -0.45721,0.1524l-0.36747,-0.18469c-2.7563,-0.91831 -4.4651,-2.84187 -6.67955,-4.31541c0,0 -0.28354,-0.18903 -0.09451,-0.47257c0.18903,-0.28354 0.47257,-0.09452 0.47257,-0.09452c2.19336,1.46512 3.84406,3.34631 6.5623,4.25283l0.41146,0.20477c0,0 0.30481,0.1524 0.15241,0.45721z"/><path d="M393.89391,118.42147c0.24097,-0.24097 0.48193,0 0.48193,0l0.19474,0.19474c0.55657,0.60062 0.77405,1.39263 0.45331,2.14596c0,0 -0.15241,0.30481 -0.45722,0.1524c-0.30481,-0.1524 -0.1524,-0.45721 -0.1524,-0.45721c0.24097,-0.35984 0.00559,-1.06651 -0.32562,-1.35923l-0.19472,-0.19472c0,0 -0.24097,-0.24097 0,-0.48195z"/></g><g stroke-linecap="butt"><path d="M344.48926,116.84785c-2.2499,6.44194 -4.92331,15.5017 -7.57774,17.78075c-1.46984,1.26197 -1.67835,-1.63193 -2.40796,-1.93481c-1.7884,-0.74246 1.81974,-5.56182 5.09109,-13.44101c0.21199,-0.5106 -6.13581,-5.41974 -4.36798,-8.53717c0.33739,-0.59497 2.10724,3.4141 3.82057,4.86244c0.94653,0.80014 1.84237,0.31322 1.92923,0.06454c1.50364,-4.30524 2.48581,-8.37867 3.11692,-11.62318c0.12223,-0.62838 -4.26081,-3.59239 -2.85221,-5.27105c0.37159,-0.44284 0.411,0.6119 1.59549,1.57263c0.94901,0.76973 1.75806,0.8733 1.78482,0.7038c0.12576,-0.79679 0.22425,-1.49766 0.3003,-2.08563c0.16512,-1.27652 1.20247,-0.38341 1.389,0.85722c0.56221,3.73915 0.4558,10.53118 -1.82148,17.0515z"/><path d="M326.69876,133.71275c-1.56879,-1.40597 -6.43237,-10.46935 -7.78721,-11.73845c-0.29426,-0.27564 -3.39214,5.04675 -9.43312,4.67227c-1.5164,-0.094 -5.4227,-1.19453 -7.97678,-3.19895c-4.15882,-3.26381 -9.32206,-10.0303 -9.06106,-12.07204c0.19442,-1.52098 3.29946,1.3432 6.89268,4.22351c0.35057,0.28101 2.88218,1.76145 2.83284,0.28887c-0.06619,-1.97578 -1.00028,-5.13866 -0.51728,-4.79052c0.66127,0.47663 0.90921,1.39282 2.07268,4.01867c1.00145,2.26021 1.18092,4.34432 1.70184,4.57862c1.25427,0.56412 2.38811,0.79176 3.27739,0.45906c2.68083,-1.00294 6.00406,-6.38809 5.79745,-6.67657c-4.46258,-6.23098 -5.65627,-11.04413 -6.41763,-17.2173c-0.7686,-6.23188 -2.44205,-12.80788 -1.45912,-20.48227c0.22289,-1.74023 0.452,-1.64456 0.88688,-1.83911c1.01503,-0.45407 1.49593,2.22054 2.3609,6.81724c0.06401,0.34013 0.90002,0.71217 1.60596,0.18397c1.56231,-1.16894 3.81587,-4.09039 5.05216,-2.72972c0.69867,0.76897 -5.53112,8.22813 -5.27718,9.35314c0.85789,3.80059 1.75252,8.16438 3.46111,12.7866c2.00489,5.42375 10.24533,3.73547 14.13689,-0.54149c0.34576,-0.38 -3.08655,-4.87387 -1.74959,-5.59023c0.56783,-0.30425 1.02216,1.82665 1.92343,2.8343c0.62018,0.6934 1.81085,0.40636 1.94729,0.23858c2.92637,-3.59898 6.4397,-8.08835 5.85478,-4.74641c-0.43986,2.51301 -2.57341,4.75783 -6.13213,9.17561c-4.87329,6.04971 -10.37595,6.76282 -9.44137,8.67648c1.64464,3.36763 3.9346,6.41846 6.06041,9.13144c0.32301,0.41222 2.79793,-5.9139 4.09133,-4.04461c1.07068,1.5474 -1.7218,6.44146 -1.41513,7.23765c1.01124,2.62551 3.36425,5.70463 5.49522,8.20004c4.76609,5.58116 9.51198,10.15193 6.76132,12.89271c-3.9473,3.93311 -12.46454,-7.34035 -15.54495,-10.10107z"/><path d="M307.28391,78.01193c0.34078,0 0.34078,0.34078 0.34078,0.34078v0.38947c0,2.37098 0.13905,4.71384 0.29212,7.04056l-0.00003,-0.02988c0,0 -0.0003,-0.34078 0.34048,-0.34108c0.34078,-0.0003 0.34108,0.34048 0.34108,0.34048l0.00052,0.61744c0.01397,0.94184 0.20369,1.7307 0.39095,2.64731c0.10534,4.77599 3.61459,7.57546 5.03716,11.79078c2.38053,3.54477 4.09156,7.41208 6.08223,11.13589c0.64392,3.29756 1.6257,6.73706 2.68715,9.92142c0,0 0.10777,0.32331 -0.21552,0.43106c-0.32329,0.10776 -0.43106,-0.21552 -0.43106,-0.21552c-0.34483,-1.03451 -0.67994,-2.09506 -0.99759,-3.16845c-0.02323,0.01977 -0.05116,0.03832 -0.08458,0.05503c-0.30481,0.15241 -0.45721,-0.1524 -0.45721,-0.1524l-0.22046,-0.45894c-0.01514,-1.04259 -2.16255,-4.25485 -2.86691,-4.94673c-1.60064,-3.2013 -3.56329,-6.26796 -4.90828,-9.61461c0,0 -0.12657,-0.31641 0.18984,-0.44296c0.31641,-0.12657 0.44298,0.18984 0.44298,0.18984c1.3117,3.29615 3.25473,6.32196 4.82837,9.46922c0.53288,0.54168 1.76513,2.33548 2.46536,3.7372c-0.41002,-1.52893 -0.77505,-3.06579 -1.07344,-4.57354c-2.02182,-3.68068 -3.70485,-7.51977 -6.05185,-11.06445c-1.48205,-4.26544 -4.99413,-7.16108 -5.10343,-12.0162c-0.09793,-0.47144 -0.19363,-0.91236 -0.26644,-1.35711c0.06923,1.06221 0.13404,2.12174 0.18241,3.17972c0.10699,2.85515 0.70817,5.1135 1.3975,7.85985c0.17,0.6773 0.66337,2.69062 1.44476,2.23179c0,0 0.32329,-0.10777 0.43106,0.21552c0.10776,0.32329 -0.21552,0.43105 -0.21552,0.43105c-3.0516,0.69123 -3.65274,-8.63699 -3.73882,-10.71126c-0.1286,-4.00132 -0.60438,-8.08713 -0.60438,-12.20104v-0.38947c0,0 0,-0.34078 0.34078,-0.34078z"/><path d="M332.22243,136.06927c-0.27035,0.20748 -0.47782,-0.06287 -0.47782,-0.06287l-0.29794,-0.39077c-0.73936,-1.47074 -1.62814,-2.64862 -2.64929,-3.92733c-2.99033,-3.12822 -5.74678,-6.47621 -8.74286,-9.51615c-1.64001,-3.20766 -3.56201,-5.96341 -4.72043,-9.43867c0,0 -0.10777,-0.32331 0.21552,-0.43106c0.32329,-0.10777 0.43106,0.21554 0.43106,0.21554c1.13911,3.41736 3.08291,6.0767 4.62675,9.25569c3.02131,2.9682 5.73196,6.35883 8.70295,9.46595c1.04194,1.30213 1.96723,2.51192 2.71406,4.01454l0.26084,0.33733c0,0 0.20748,0.27034 -0.06287,0.47782z"/><path d="M334.89528,133.57136c-0.30395,0.1541 -0.45805,-0.14984 -0.45805,-0.14984l-0.19645,-0.38881c-1.11421,-1.66838 -2.30942,-3.82758 -3.99814,-4.95295c-2.3559,-2.2967 -5.87106,-5.96844 -6.92454,-9.11483c0,0 -0.10777,-0.32329 0.21552,-0.43106c0.32329,-0.10777 0.43106,0.21552 0.43106,0.21552c1.00371,3.02577 4.44282,6.59104 6.70677,8.8006c1.75365,1.16955 3.00284,3.40353 4.15785,5.13896l0.21582,0.42434c0,0 0.1541,0.30395 -0.14985,0.45805z"/><path d="M313.08357,81.35836c0.30481,0.1524 0.15241,0.45721 0.15241,0.45721l-0.19647,0.39288c-0.8766,1.58415 -2.39678,2.8463 -3.30873,4.67018c0,0 -0.15241,0.30481 -0.45721,0.15241c-0.30481,-0.15241 -0.15241,-0.45722 -0.15241,-0.45722c0.87313,-1.74624 2.56581,-3.16151 3.3122,-4.677l0.19301,-0.38605c0,0 0.15241,-0.3048 0.45721,-0.1524z"/><path d="M318.42988,121.82439c-0.24097,0.24097 -0.48193,0 -0.48193,0l-0.10786,-0.13175c-2.22009,-1.12912 -3.3024,-3.78871 -3.3024,-6.14593c0,0 0,-0.34078 0.34078,-0.34078c0.34078,0 0.34078,0.34078 0.34078,0.34078c0,2.1053 0.93304,4.52949 2.92905,5.53805l0.2816,0.25771c0,0 0.24097,0.24096 0,0.48193z"/><path d="M295.55364,116.66888c0.24097,-0.24097 0.48195,0 0.48195,0l0.34775,0.35398c2.09021,1.04397 3.98777,2.47748 6.17775,3.57146c3.36466,1.69816 5.96818,0.21477 9.2886,-0.89203c0,0 0.32329,-0.10777 0.43105,0.21552c0.10776,0.32329 -0.21554,0.43106 -0.21554,0.43106c-3.506,1.16867 -6.24488,2.64559 -9.81008,0.85448c-2.21377,-1.11334 -4.15469,-2.5686 -6.27029,-3.62756l-0.43119,-0.42496c0,0 -0.24097,-0.24097 0,-0.48195z"/><path d="M303.58388,119.5874c-0.34078,0 -0.34078,-0.34078 -0.34078,-0.34078l0.03597,-0.04234c-0.35286,-0.70572 -0.62194,-1.44227 -0.97367,-2.14206c0,0 -0.1524,-0.3048 0.15241,-0.45721c0.30481,-0.15241 0.45721,0.1524 0.45721,0.1524c0.34968,0.70267 0.62039,1.4355 0.97367,2.14206l0.03597,0.34713c0,0 0,0.34078 -0.34078,0.34078z"/><path d="M299.99406,117.64643c-0.15241,0.30481 -0.45721,0.1524 -0.45721,0.1524l-0.38946,-0.19472c-1.5107,-0.75929 -2.76545,-1.98873 -4.28412,-2.72626c0,0 -0.30481,-0.15241 -0.15241,-0.45721c0.15241,-0.3048 0.45721,-0.15241 0.45721,-0.15241c1.51303,0.77358 2.7683,1.97188 4.28413,2.72626l0.38946,0.19472c0,0 0.30481,0.15241 0.1524,0.45722z"/><path d="M304.21687,123.1413c0,-0.34078 0.34078,-0.34078 0.34078,-0.34078l0.49955,0.18838c0.2726,0.62664 0.92005,0.39659 1.52608,0.40493c1.41497,0.67637 5.42432,1.22593 6.9792,0.60872c0.49746,-0.19748 0.19632,-2.34742 0.19632,-2.80858c0,0 0,-0.34078 0.34078,-0.34078c0.34078,0 0.34078,0.34078 0.34078,0.34078c0,0.941 0.41235,2.87377 -0.58263,3.42288c-1.3933,0.76894 -6.16488,0.11431 -7.43104,-0.55969c-0.85963,0.0155 -1.43673,0.10391 -1.89823,-0.62504l0.0292,0.04996c0,0 -0.34078,0 -0.34078,-0.34078z"/><path d="M331.28479,100.15725c0.0018,-0.04399 0.02559,-0.33523 0.34063,-0.33523c0.34078,0 0.34078,0.34078 0.34078,0.34078l-0.18837,0.49955c-1.43626,0.6248 -2.84484,2.0703 -4.44363,2.77321c-2.74142,0.68196 -6.27303,1.99408 -6.27303,5.10077c0,0 0,0.34078 -0.34078,0.34078c-0.34078,0 -0.34078,-0.34078 -0.34078,-0.34078c0,-3.46688 3.69181,-4.98134 6.73338,-5.74542c1.60866,-0.71528 2.73951,-1.8178 4.17182,-2.63364z"/><path d="M333.96225,94.17477c0.34078,0 0.34078,0.34078 0.34078,0.34078l-0.09981,0.4357c-0.71303,0.7005 -1.836,2.21976 -2.05243,3.15214c0,0 -0.08266,0.33061 -0.41326,0.24795c-0.3306,-0.08266 -0.24795,-0.41326 -0.24795,-0.41326c0.27948,-1.05816 1.43146,-2.65684 2.23169,-3.46877l-0.09981,0.04624c0,0 0,-0.34078 0.34078,-0.34078z"/><path d="M343.55044,116.27941c0.24097,0.24097 0,0.48193 0,0.48193l-0.09491,-0.04624c-0.01893,1.81944 -1.41503,3.69297 -1.97328,5.38821c-0.77524,1.48085 -4.05451,6.51707 -3.32049,7.89598c0,0 0.15241,0.30481 -0.1524,0.45721c-0.30481,0.1524 -0.45721,-0.1524 -0.45721,-0.1524c-0.92244,-1.92974 2.3817,-6.55392 3.30043,-8.46159c0.52106,-1.54571 1.94444,-3.46959 1.92139,-5.12738l0.29455,-0.4357c0,0 0.24097,-0.24097 0.48193,0z"/><path d="M344.47783,105.66403c0.34078,0 0.34078,0.34078 0.34078,0.34078v0.19474c0,2.99936 -0.45676,5.11204 -1.38062,7.89709c-1.00649,3.01947 -2.27721,6.50939 -3.71842,9.39182c0,0 -0.15241,0.30481 -0.45721,0.1524c-0.30481,-0.1524 -0.15241,-0.45721 -0.15241,-0.45721c1.4235,-2.84701 2.68358,-6.30898 3.68143,-9.30254c0.9102,-2.71848 1.34564,-4.74742 1.34564,-7.68156v-0.19474c0,0 0,-0.34078 0.34078,-0.34078z"/><path d="M336.05807,112.38476c0.24097,-0.24096 0.48195,0 0.48195,0l0.25856,0.2833c0.67175,1.34352 2.51946,3.50226 2.56751,4.82599c0,0 0,0.34078 -0.34078,0.34078c-0.34078,0 -0.34078,-0.34078 -0.34078,-0.34078c0.05609,-0.98129 -1.9374,-3.40488 -2.49555,-4.52119l-0.1309,-0.10617c0,0 -0.24097,-0.24097 0,-0.48193z"/><path d="M345.14902,100.81318c0.32329,-0.10777 0.43106,0.21552 0.43106,0.21552l0.20782,0.63737c0.01354,1.96542 0.0044,3.93111 0.0044,5.89658c0,0 0,0.34078 -0.34078,0.34078c-0.34078,0 -0.34078,-0.34078 -0.34078,-0.34078c0,-1.92903 -0.01163,-3.85844 0.00439,-5.7874l-0.18165,-0.53102c0,0 -0.10776,-0.32329 0.21554,-0.43105z"/></g><g stroke-linecap="butt"><path d="M312.87985,132.88087c1.79197,-2.98343 15.27984,-0.57072 22.20112,4.67629c6.92128,5.247 6.86824,10.76548 3.56715,15.11991c-3.30108,4.35445 -8.60017,5.89592 -15.52145,0.64893c-4.15954,-3.15333 -7.4926,-9.11453 -9.20646,-13.84227c-0.21017,-0.57974 -1.30473,0.90376 -1.46474,0.36856c-0.18202,-0.60882 0.57812,-3.22867 0.46506,-3.75923c-0.11891,-0.55796 -1.33444,0.29656 -1.37221,-0.14994c-0.06569,-0.77659 1.13106,-2.72847 1.33155,-3.06225z"/><path d="M318.24696,137.01249c0,0 10.05017,-0.37539 14.60257,3.07577c4.55241,3.45116 4.51752,7.08088 2.34626,9.94498c-2.17126,2.8641 -5.65668,3.878 -10.20909,0.42682c-4.55241,-3.45116 -6.73975,-13.44758 -6.73975,-13.44758z"/></g><path d="M393.97263,177.78662c0,14.98145 9.75963,24.84989 -32.57883,24.94529c-41.51938,0.09357 -32.57883,-11.05435 -32.57883,-26.0358c0,-14.98145 1.69215,-35.98755 32.85145,-36.39559c29.25032,-0.38304 32.3062,22.50465 32.3062,37.4861z" stroke-linecap="butt"/><g><path d="M378.67319,181.76307c-0.73804,0.18795 -2.97124,-2.58184 -2.97124,-2.58184l-6.70235,-26.31893c0,0 0.51034,-3.99558 1.24838,-4.18353c0.65575,-0.167 2.96221,3.11125 2.96221,3.11125l6.70236,26.31893c0,0 -0.5836,3.48712 -1.23936,3.6541z" stroke-linecap="butt"/><path d="M376.03934,178.95251l3.86682,-0.6333" stroke-linecap="round"/><path d="M369.58014,152.83522l3.42251,-0.87157" stroke-linecap="round"/><path d="M371.90923,163.48757l4.41308,1.51182" stroke-linecap="round"/><path d="M372.81018,157.98682c0.29846,-0.07601 0.58744,0.04707 0.64546,0.2749c0.05803,0.22783 -0.1369,0.47414 -0.43536,0.55015c-0.29846,0.07599 -0.58741,-0.04708 -0.64544,-0.2749c-0.05803,-0.22782 0.13689,-0.47414 0.43533,-0.55013z" stroke-linecap="butt"/><path d="M375.94971,171.06837c0.29846,-0.07601 0.58743,0.04708 0.64544,0.2749c0.05803,0.22783 -0.13689,0.47414 -0.43534,0.55013c-0.29846,0.07601 -0.58741,-0.04707 -0.64544,-0.2749c-0.05803,-0.22783 0.13689,-0.47414 0.43534,-0.55015z" stroke-linecap="butt"/></g><g stroke-linecap="butt"><path d="M373.7509,154.44916c5.50428,0.10024 10.19299,5.3919 10.28689,12.82457c0.19644,7.68946 -4.49135,10.59497 -9.6347,10.54574c-6.83843,-0.06547 -7.88068,-5.12293 -7.88068,-11.57646c0,-6.45354 1.91239,-11.90256 7.22849,-11.79385z"/><g><path d="M375.47826,167.02968c0,2.77936 -1.42042,5.03252 -3.17265,5.03252c-1.75221,0 -3.17266,-2.25312 -3.17266,-5.03252c0,-2.77936 1.42045,-5.03254 3.17266,-5.03254c1.75221,0 3.17265,2.25315 3.17265,5.03254z"/><path d="M368.70138,168.96978v-3.56216l2.83573,2.09178z"/></g><path d="M366.83706,158.77042c0,-1.55945 3.26355,-4.86833 6.75887,-4.86833c3.49531,0 8.61287,2.7409 8.61287,4.30035c0,1.55945 -1.74219,-3.16441 -8.41814,-3.05081c-5.5392,0.09426 -6.95359,5.17823 -6.95359,3.61879z"/><path d="M366.53281,173.53607c0,-1.55945 1.91471,3.88156 7.7606,3.9758c7.04557,0.1136 9.12436,-4.86991 9.12436,-3.31046c0,1.55945 -5.43552,4.30035 -9.12436,4.30035c-3.68884,0 -7.7606,-3.40625 -7.7606,-4.96569z"/></g><g stroke-linecap="butt"><path d="M399.74583,154.00757c-6.92127,5.24699 -12.22036,3.70552 -15.52145,-0.64893c-3.30109,-4.35445 -3.35412,-9.87292 3.56715,-15.11993c6.92127,-5.24699 20.53138,-6.72445 22.20111,-4.67627c1.16128,1.42447 -0.72621,7.76209 -4.17993,13.36802c-0.33746,0.54776 -0.81564,2.8675 -1.30084,3.57481c-0.43703,0.63711 -0.87974,-0.33402 -1.23042,0.11832c-0.61071,0.78775 -0.79736,3.5784 -1.4634,4.26218c-0.66744,0.68525 -1.35998,-1.41819 -2.07225,-0.87822z"/><path d="M397.88577,151.14163c-4.55241,3.45116 -8.03782,2.43728 -10.20909,-0.42682c-2.17126,-2.8641 -2.20613,-6.49382 2.34626,-9.94498c4.55241,-3.45116 14.60257,-3.07578 14.60257,-3.07578c0,0 -2.18735,9.99642 -6.73974,13.44758z"/></g><g><path d="M341.60058,177.69994l6.70235,-26.31893c0,0 2.30646,-3.27825 2.96221,-3.11126c0.73803,0.18795 1.24838,4.18353 1.24838,4.18353l-6.70235,26.31893c0,0 -2.23322,2.76979 -2.97124,2.58184c-0.65575,-0.167 -1.23934,-3.6541 -1.23934,-3.6541z" stroke-linecap="butt"/><path d="M341.607,177.9103l3.86682,0.6333" stroke-linecap="round"/><path d="M351.93302,152.4263l-3.42251,-0.87157" stroke-linecap="round"/><path d="M345.1908,164.59045l4.41309,-1.51182" stroke-linecap="round"/><path d="M349.13819,158.12803c-0.05801,0.22783 -0.34698,0.35091 -0.64544,0.2749c-0.29846,-0.07601 -0.49337,-0.32231 -0.43536,-0.55013c0.05801,-0.22783 0.347,-0.35091 0.64546,-0.2749c0.29846,0.07601 0.49336,0.32231 0.43533,0.55015z" stroke-linecap="butt"/><path d="M345.99877,171.20959c-0.05801,0.22783 -0.34698,0.35091 -0.64544,0.2749c-0.29846,-0.07601 -0.49336,-0.3223 -0.43534,-0.55013c0.05801,-0.22783 0.347,-0.35091 0.64544,-0.2749c0.29846,0.07601 0.49336,0.32231 0.43533,0.55015z" stroke-linecap="butt"/></g><g stroke-linecap="butt"><path d="M355.41787,166.51563c0,6.45352 -1.04225,11.51098 -7.88068,11.57646c-5.14335,0.04924 -9.83114,-2.85628 -9.6347,-10.54574c0.09391,-7.43266 4.78261,-12.72432 10.28689,-12.82457c5.3161,-0.10871 7.22849,5.34031 7.22849,11.79385z"/><g><path d="M353.23893,167.30231c0,2.77936 -1.42042,5.03252 -3.17265,5.03252c-1.75221,0 -3.17266,-2.25312 -3.17266,-5.03252c0,-2.77936 1.42045,-5.03254 3.17266,-5.03254c1.75221,0 3.17265,2.25315 3.17265,5.03254z"/><path d="M346.46207,169.24244v-3.56216l2.83573,2.09178z"/></g><path d="M355.10323,159.04304c0,1.55945 -1.41438,-3.52452 -6.95359,-3.61879c-6.67595,-0.1136 -8.41814,4.61026 -8.41814,3.05081c0,-1.55945 5.11756,-4.30035 8.61287,-4.30035c3.49531,0 6.75887,3.30888 6.75887,4.86833z"/><path d="M347.64689,178.77436c-3.68884,0 -9.12436,-2.7409 -9.12436,-4.30035c0,-1.55945 2.07879,3.42406 9.12436,3.31046c5.8459,-0.09425 7.7606,-5.53525 7.7606,-3.9758c0,1.55945 -4.07177,4.96569 -7.7606,4.96569z"/></g><path d="M333.80984,181.87581v-32.37952h25.21792v32.37952z" stroke-linecap="butt"/><path d="M363.31203,181.61132v-32.37951h25.21792v32.37951z" stroke-linecap="butt"/><path d="M396.82872,181.72997c0.03762,0.99096 1.45897,4.6968 2.08629,7.86329c0.6273,3.16648 0.47797,7.37392 0.47797,7.37392c0,0 -3.28055,2.52818 -9.55172,4.44978c-7.43862,2.27932 -18.57324,4.0222 -29.15172,4.15482c-8.49026,0.10643 -16.53309,-0.59581 -22.79281,-2.12947c-8.71805,-2.13596 -13.7385,-5.33562 -13.7385,-5.33562c0,0 -0.12957,-5.10559 0.34257,-8.3214c0.47213,-3.2158 1.79358,-6.6278 1.83461,-8.05534c0.06111,-2.12644 0.1146,-4.28908 0.20094,-6.45746c0.02988,-0.75038 -1.52662,0.77043 -1.48719,0.01993c0.05319,-1.01225 1.7069,-4.29535 1.78464,-5.30242c0.07938,-1.02839 -1.64381,-0.00776 -1.53016,-1.02422c0.05923,-0.52967 1.94121,-3.10197 2.01154,-3.62703c1.98852,-14.84294 8.6677,-27.66025 34.05591,-27.91057c34.44938,-0.31239 34.67869,23.78043 35.45763,44.30175zM348.37253,180.1981c8.8723,-0.37665 9.54192,-5.6352 9.54192,-10.90505c0,-3.36482 0.58163,-13.06056 -1.93533,-16.25184c-1.42502,-1.80679 -3.53116,-3.02672 -6.63293,-3.02672c-9.45221,0 -14.41024,8.85268 -14.41024,18.3049c0,5.26985 3.55559,12.29818 13.43658,11.87872zM374.2478,179.57493c10.52765,0.19472 13.50959,-6.94964 13.50959,-12.2195c0,-7.02483 -4.85063,-17.10594 -13.28421,-17.68713c-7.07379,-0.499 -9.63098,5.09412 -10.05955,9.04634c-0.56417,5.20278 -0.92268,12.01084 1.40254,17.09647c1.22423,2.67757 5.10888,3.70236 8.43163,3.76382z" stroke-linecap="butt"/><path d="M383.28976,202.68376c-2.4436,1.31391 -10.69429,4.31517 -23.01023,4.4326c-16.24057,0.12238 -21.45707,-3.55853 -21.45707,-3.55853c0,0 -2.65519,-12.59484 2.19041,-18.00787c3.94309,-4.40482 13.50456,-4.65896 18.5288,-4.86872c5.19872,-0.21704 18.07997,-0.10761 21.81908,5.37382c4.49585,6.59082 1.92901,16.62872 1.92901,16.62872z" stroke-linecap="butt"/><path d="M351.76084,193.04615c0,2.22087 -1.55626,4.02124 -3.47598,4.02124c-1.91972,0 -3.47598,-1.80037 -3.47598,-4.02124c0,-2.22087 1.55625,-4.02124 3.47598,-4.02124c1.91972,0 3.47598,1.80037 3.47598,4.02124z" stroke-linecap="butt"/><path d="M353.53295,187.72991c0,1.01634 -1.25111,1.84023 -2.79442,1.84023c-1.54331,0 -2.79442,-0.82389 -2.79442,-1.84023c0,-1.01634 1.25111,-1.84023 2.79442,-1.84023c1.54331,0 2.79442,0.8239 2.79442,1.84023z" stroke-linecap="butt"/><path d="M348.08042,191.13774c0,1.24218 -1.09852,2.24917 -2.45364,2.24917c-1.35512,0 -2.45364,-1.00699 -2.45364,-2.24917c0,-1.24218 1.09852,-2.24917 2.45364,-2.24917c1.35512,0 2.45364,1.00699 2.45364,2.24917z" stroke-linecap="butt"/><path d="M350.94301,189.502c0,1.46802 -1.12905,2.6581 -2.52179,2.6581c-1.39275,0 -2.52179,-1.19008 -2.52179,-2.6581c0,-1.46802 1.12905,-2.6581 2.52179,-2.6581c1.39275,0 2.52179,1.19007 2.52179,2.6581z" stroke-linecap="butt"/><path d="M355.0324,193.31878c0,0.48934 -0.33566,0.88603 -0.74972,0.88603c-0.41406,0 -0.74972,-0.3967 -0.74972,-0.88603c0,-0.48934 0.33566,-0.88603 0.74972,-0.88603c0.41406,0 0.74972,0.3967 0.74972,0.88603z" stroke-linecap="butt"/><path d="M346.03573,194.81818c0,0.11292 -0.12205,0.20447 -0.27263,0.20447c-0.15057,0 -0.27263,-0.09155 -0.27263,-0.20447c0,-0.11292 0.12205,-0.20447 0.27263,-0.20447c0.15057,0 0.27263,0.09155 0.27263,0.20447z" stroke-linecap="butt"/><path d="M343.71838,187.86625c0,0.11292 -0.15258,0.20447 -0.34078,0.20447c-0.18821,0 -0.34078,-0.09155 -0.34078,-0.20447c0,-0.11292 0.15258,-0.20447 0.34078,-0.20447c0.18821,0 0.34078,0.09155 0.34078,0.20447z" stroke-linecap="butt"/><path d="M385.43033,181.39137c0,0.52699 -0.67131,0.95419 -1.49944,0.95419c-0.82812,0 -1.49944,-0.42721 -1.49944,-0.95419c0,-0.52699 0.67133,-0.95419 1.49944,-0.95419c0.82812,0 1.49944,0.42721 1.49944,0.95419z" stroke-linecap="butt"/><path d="M391.83706,186.09417c0,0.18821 -0.09155,0.34078 -0.20447,0.34078c-0.11294,0 -0.20447,-0.15258 -0.20447,-0.34078c0,-0.18821 0.09153,-0.34078 0.20447,-0.34078c0.11294,0 0.20447,0.15258 0.20447,0.34078z" stroke-linecap="butt"/><path d="M389.65605,175.52989c0,0.52699 -0.1831,0.95419 -0.40894,0.95419c-0.22584,0 -0.40894,-0.42721 -0.40894,-0.95419c0,-0.52699 0.1831,-0.95419 0.40894,-0.95419c0.22584,0 0.40894,0.42721 0.40894,0.95419z" stroke-linecap="butt"/><path d="M361.9769,144.97307c0,1.54749 -1.49182,2.80198 -3.33209,2.80198c-1.84027,0 -3.33209,-1.25449 -3.33209,-2.80198c0,-1.54749 1.49182,-2.80198 3.33209,-2.80198c1.84027,0 3.33209,1.25449 3.33209,2.80198z" stroke-linecap="butt"/><path d="M356.97864,144.74589c0,1.25472 -0.98325,2.27188 -2.19615,2.27188c-1.2129,0 -2.19615,-1.01715 -2.19615,-2.27188c0,-1.25472 0.98325,-2.27189 2.19615,-2.27189c1.2129,0 2.19615,1.01717 2.19615,2.27189z" stroke-linecap="butt"/><path d="M354.70678,145.12451c0,1.29656 -1.22059,2.34762 -2.72626,2.34762c-1.50567,0 -2.72626,-1.05107 -2.72626,-2.34762c0,-1.29654 1.22059,-2.34761 2.72626,-2.34761c1.50567,0 2.72626,1.05106 2.72626,2.34761z" stroke-linecap="butt"/><path d="M359.40212,147.32068c0,1.17108 -0.712,2.12042 -1.59032,2.12042c-0.87831,0 -1.59032,-0.94934 -1.59032,-2.12042c0,-1.17108 0.71202,-2.12042 1.59032,-2.12042c0.87831,0 1.59032,0.94934 1.59032,2.12042z" stroke-linecap="butt"/><path d="M354.70678,147.47215c0,0.66919 -0.47467,1.21166 -1.06022,1.21166c-0.58553,0 -1.06022,-0.54247 -1.06022,-1.21166c0,-0.66919 0.47467,-1.21167 1.06022,-1.21167c0.58553,0 1.06022,0.54249 1.06022,1.21167z" stroke-linecap="butt"/><path d="M362.88567,143.68565c0,0.58553 -0.47467,1.06022 -1.06022,1.06022c-0.58553,0 -1.06022,-0.47468 -1.06022,-1.06022c0,-0.58553 0.47467,-1.06022 1.06022,-1.06022c0.58553,0 1.06022,0.47468 1.06022,1.06022z" stroke-linecap="butt"/><path d="M356.22127,142.85264c0,0.62735 -0.40685,1.13594 -0.90874,1.13594c-0.50189,0 -0.90876,-0.50857 -0.90876,-1.13594c0,-0.62735 0.40685,-1.13595 0.90876,-1.13595c0.50189,0 0.90874,0.50858 0.90874,1.13595z" stroke-linecap="butt"/><path d="M362.27984,148.4566c0,0.29277 -0.27125,0.53011 -0.60584,0.53011c-0.33459,0 -0.60583,-0.23735 -0.60583,-0.53011c0,-0.29277 0.27124,-0.53011 0.60583,-0.53011c0.33459,0 0.60584,0.23735 0.60584,0.53011z" stroke-linecap="butt"/><path d="M365.91486,147.01776c0,0.25094 -0.16953,0.45439 -0.37865,0.45439c-0.20912,0 -0.37865,-0.20343 -0.37865,-0.45439c0,-0.25094 0.16953,-0.45439 0.37865,-0.45439c0.20912,0 0.37865,0.20343 0.37865,0.45439z" stroke-linecap="butt"/><path d="M345.61914,143.83712c0,0.08364 -0.16953,0.15146 -0.37865,0.15146c-0.20912,0 -0.37865,-0.06782 -0.37865,-0.15146c0,-0.08364 0.16953,-0.15146 0.37865,-0.15146c0.20912,0 0.37865,0.06782 0.37865,0.15146z" stroke-linecap="butt"/><path d="M332.89669,171.78128c0,1.3802 -0.91545,2.49908 -2.0447,2.49908c-1.12924,0 -2.0447,-1.11888 -2.0447,-2.49908c0,-1.3802 0.91545,-2.49907 2.0447,-2.49907c1.12924,0 2.0447,1.11887 2.0447,2.49907z" stroke-linecap="butt"/><path d="M332.59372,167.99485c0,1.0456 -0.88154,1.89323 -1.96897,1.89323c-1.08744,0 -1.96896,-0.84764 -1.96896,-1.89323c0,-1.0456 0.88154,-1.89324 1.96896,-1.89324c1.08744,0 1.96897,0.84764 1.96897,1.89324z" stroke-linecap="butt"/><path d="M330.47327,170.19096c0,1.08742 -0.71202,1.96897 -1.59032,1.96897c-0.87831,0 -1.59032,-0.88154 -1.59032,-1.96897c0,-1.08742 0.712,-1.96897 1.59032,-1.96897c0.87831,0 1.59032,0.88154 1.59032,1.96897z" stroke-linecap="butt"/><path d="M330.6247,173.59879c0,0.87831 -0.74592,1.59031 -1.66605,1.59031c-0.92013,0 -1.66605,-0.712 -1.66605,-1.59031c0,-0.87831 0.74592,-1.59031 1.66605,-1.59031c0.92013,0 1.66605,0.712 1.66605,1.59031z" stroke-linecap="butt"/><path d="M329.26157,167.23755c0,0.20912 -0.23733,0.37864 -0.53011,0.37864c-0.29276,0 -0.53011,-0.16952 -0.53011,-0.37864c0,-0.20912 0.23735,-0.37865 0.53011,-0.37865c0.29276,0 0.53011,0.16953 0.53011,0.37865z" stroke-linecap="butt"/><path d="M333.95685,171.25115c0,0.50189 -0.30515,0.90876 -0.68157,0.90876c-0.37641,0 -0.68157,-0.40687 -0.68157,-0.90876c0,-0.50189 0.30515,-0.90874 0.68157,-0.90874c0.37641,0 0.68157,0.40685 0.68157,0.90874z" stroke-linecap="butt"/><path d="M329.26157,196.77205c0,1.0456 -1.01715,1.89324 -2.27188,1.89324c-1.25473,0 -2.27189,-0.84764 -2.27189,-1.89324c0,-1.0456 1.01717,-1.89324 2.27189,-1.89324c1.25473,0 2.27188,0.84764 2.27188,1.89324z" stroke-linecap="butt"/><path d="M328.3529,194.19723c0,0.87831 -0.6103,1.59031 -1.36313,1.59031c-0.75283,0 -1.36313,-0.712 -1.36313,-1.59031c0,-0.87831 0.6103,-1.59031 1.36313,-1.59031c0.75283,0 1.36313,0.712 1.36313,1.59031z" stroke-linecap="butt"/><path d="M339.85051,153.37039c0,0 -0.29425,-1.03434 -0.33314,-1.71506c-0.03889,-0.68073 0.10454,-2.28545 0.10454,-2.28545c0,0 0.5499,1.20247 1.06212,1.86534c0.51222,0.66286 0.88099,0.64927 0.88099,0.64927z" stroke-linecap="butt"/><path d="M338.36824,154.91825c0,0 -0.3741,-1.00821 -0.46603,-1.68382c-0.09192,-0.67561 -0.07421,-2.28664 -0.07421,-2.28664c0,0 0.64212,1.15585 1.20452,1.7767c0.5624,0.62085 0.92899,0.57853 0.92899,0.57853z" stroke-linecap="butt"/><path d="M337.17844,156.73822c0,0 -0.57859,-0.90647 -0.81112,-1.54743c-0.23254,-0.64096 -0.55546,-2.21938 -0.55546,-2.21938c0,0 0.87174,0.99419 1.55258,1.48225c0.68084,0.48807 1.0302,0.36927 1.0302,0.36927z" stroke-linecap="butt"/><g stroke-linecap="butt"><path d="M380.46374,151.13735c0,0 0.36877,0.01358 0.88099,-0.64929c0.51222,-0.66286 1.06212,-1.86534 1.06212,-1.86534c0,0 0.14343,1.60472 0.10454,2.28545c-0.03889,0.68073 -0.33314,1.71506 -0.33314,1.71506z"/><path d="M382.06728,152.55589c0,0 0.36659,0.04234 0.92899,-0.57851c0.5624,-0.62085 1.20452,-1.7767 1.20452,-1.7767c0,0 0.01771,1.61102 -0.07421,2.28664c-0.09192,0.67561 -0.46603,1.68382 -0.46603,1.68382z"/><path d="M383.63419,154.07575c0,0 0.34937,0.1188 1.0302,-0.36927c0.68084,-0.48807 1.55258,-1.48225 1.55258,-1.48225c0,0 -0.32293,1.57842 -0.55546,2.21938c-0.23254,0.64096 -0.81112,1.54743 -0.81112,1.54743z"/></g><path d="M334.20089,189.56529l-2.03604,0.84026c0,0 0.67806,-2.51128 0.57538,-2.74619c-0.21746,-0.49746 -1.83578,0.79615 -1.83578,0.79615c0,0 1.08772,-1.9306 0.95658,-2.41562c-0.16505,-0.61041 -1.15752,-0.07098 -1.15752,-0.07098l0.90392,-1.39564" stroke-linecap="round"/><path d="M366.40168,140.36889l0.90392,1.39564c0,0 -0.99247,-0.53942 -1.15752,0.07098c-0.13115,0.48502 0.95658,2.41562 0.95658,2.41562c0,0 -1.61832,-1.29361 -1.83578,-0.79615c-0.10268,0.23491 0.57538,2.74619 0.57538,2.74619l-2.03604,-0.84026" stroke-linecap="round"/><path d="M361.2161,204.67617v-14.2155" stroke-linecap="round"/><g><path d="M391.20377,140.61976c0,4.79566 -12.82238,8.68328 -28.63961,8.68328c-15.81721,0 -28.63962,-3.88764 -28.63962,-8.68328c0,-4.79564 12.8224,-8.68329 28.63962,-8.68329c15.81721,0 28.63961,3.88765 28.63961,8.68329z" stroke-linecap="butt"/><path d="M390.74674,140.51823c0,0 -10.19067,7.40552 -29.35307,6.99045c-19.45695,-0.42145 -27.38451,-6.58422 -27.38451,-6.58422" stroke-linecap="round"/><path d="M344.87159,135.69287c0.19685,-3.35447 0.54592,-9.84518 0.54592,-13.69224c0,-4.23425 -0.399,-11.86278 -0.5844,-15.17888c-0.05052,-0.9037 0.35635,-1.61219 1.26147,-1.61219c1.61247,0 8.0609,-1.0905 14.93559,-1.0905c7.22562,0 14.92214,1.0905 17.9695,1.0905c0.9517,0 1.27978,0.79867 1.19773,1.74682c-0.26918,3.11109 -0.7915,9.65061 -0.7915,13.55473c0,4.16379 0.52448,11.72355 0.79316,15.3232c0.09591,1.28504 -0.05405,2.26188 -1.17439,2.89857c-2.33763,1.32847 -7.97354,3.66803 -18.57645,3.57955c-8.63606,-0.07207 -12.92243,-2.28851 -14.68561,-3.57217c-0.72352,-0.52675 -0.89104,-3.04737 -0.89104,-3.04737z" stroke-linecap="butt"/></g><path d="M391.51295,160.75775l1.38048,0.9269c0,0 -1.12471,-0.105 -1.03603,0.52108c0.07046,0.49746 1.83055,1.84372 1.83055,1.84372c0,0 -1.99697,-0.55178 -2.00097,-0.00889c-0.00188,0.25636 1.61033,2.29769 1.61033,2.29769l-2.20241,0.02944" stroke-linecap="round"/><g stroke-linecap="butt"><path d="M368.66341,183.3128c0,2.09194 -2.07144,2.4885 -3.34594,3.87883c-1.32299,1.44321 -1.887,3.84087 -3.93514,3.84087c-2.04814,0 -3.04102,-3.04097 -4.36401,-4.48418c-1.2745,-1.39033 -2.91706,-1.14357 -2.91706,-3.23551c0,-4.26346 3.26498,-5.15758 7.28107,-5.36089c4.23566,-0.21443 7.28108,1.09743 7.28108,5.36089z"/><path d="M358.31281,180.26301c0,0.38305 -0.96357,0.73309 -1.18238,1.00078c-0.26184,0.32036 -0.37025,1.07682 -0.80001,1.07682c-0.78886,0 -1.01283,-0.68214 -1.01283,-1.52358c0,-0.84145 0.6395,-1.52358 1.42836,-1.52358c0.78886,0 1.56686,0.12809 1.56686,0.96954z"/></g><path d="M373.74391,185.62752c0,0.25094 -0.16952,0.45437 -0.37864,0.45437c-0.20912,0 -0.37865,-0.20343 -0.37865,-0.45437c0,-0.25094 0.16953,-0.45437 0.37865,-0.45437c0.20912,0 0.37864,0.20343 0.37864,0.45437z" stroke-linecap="butt"/><path d="M377.53039,185.3246c0,0.25094 -0.16952,0.45437 -0.37864,0.45437c-0.20912,0 -0.37865,-0.20342 -0.37865,-0.45437c0,-0.25094 0.16953,-0.45439 0.37865,-0.45439c0.20912,0 0.37864,0.20343 0.37864,0.45439z" stroke-linecap="butt"/><path d="M376.31871,189.26252c0,0.25094 -0.16952,0.45437 -0.37864,0.45437c-0.20912,0 -0.37865,-0.20343 -0.37865,-0.45437c0,-0.25094 0.16953,-0.45437 0.37865,-0.45437c0.20912,0 0.37864,0.20343 0.37864,0.45437z" stroke-linecap="butt"/><g stroke-linecap="butt"><path d="M347.79267,185.13526c0.20912,0 0.37865,0.20343 0.37865,0.45439c0,0.25094 -0.16953,0.45437 -0.37865,0.45437c-0.20912,0 -0.37864,-0.20342 -0.37864,-0.45437c0,-0.25094 0.16952,-0.45439 0.37864,-0.45439z"/><path d="M344.00619,184.83235c0.20912,0 0.37865,0.20343 0.37865,0.45437c0,0.25094 -0.16953,0.45437 -0.37865,0.45437c-0.20912,0 -0.37864,-0.20343 -0.37864,-0.45437c0,-0.25094 0.16952,-0.45437 0.37864,-0.45437z"/><path d="M345.21786,188.77028c0.20912,0 0.37865,0.20343 0.37865,0.45439c0,0.25094 -0.16953,0.45437 -0.37865,0.45437c-0.20912,0 -0.37864,-0.20343 -0.37864,-0.45437c0,-0.25094 0.16952,-0.45439 0.37864,-0.45439z"/></g></g></g></g></g></svg>