<svg version="1.1" xmlns="http://www.w3.org/2000/svg" xmlns:xlink="http://www.w3.org/1999/xlink" width="76.33333" height="101" viewBox="0,0,76.33333,101"><defs><linearGradient x1="360.21695" y1="172.21675" x2="360.21695" y2="183.03382" gradientUnits="userSpaceOnUse" id="color-1"><stop offset="0" stop-color="#231f2e"/><stop offset="1" stop-color="#1e1b28"/></linearGradient></defs><g transform="translate(-321.83333,-129.5)"><g stroke-miterlimit="10"><path d="M321.83333,230.5v-101h76.33333v101z" fill="#273042" stroke="none" stroke-width="0"/><path d="M329.75469,196.83333v-61.66667h60.49068v61.66667z" fill="#0b0e13" stroke="none" stroke-width="0"/><path d="M343.08345,227.33333v-17.33333h33.83333v17.33333z" fill="#0b0e13" stroke="#000000" stroke-width="0"/><path d="M342.99992,209.125v-11.25h34.25v11.25z" fill="#273042" stroke="#000000" stroke-width="0"/><text transform="translate(346.98819,207.0298) scale(0.29415,0.29415)" font-size="40" xml:space="preserve" fill="#000000" stroke="none" stroke-width="1" font-family="&quot;GovtAgentBB&quot;, Serif" font-weight="normal" text-anchor="start"><tspan x="0" dy="0">Echo</tspan></text><text transform="translate(348.24454,223.17375) scale(0.37559,0.37559)" font-size="40" xml:space="preserve" fill="#43c749" stroke="none" stroke-width="1" font-family="&quot;Agency FB&quot;, Sans Serif" font-weight="normal" text-anchor="start"><tspan x="0" dy="0">EASY</tspan></text><g stroke="#000000" stroke-width="0"><g><path d="M359.38226,163.25009c0,0 0.4841,-21.68469 5.24845,-20.68172c5.87708,1.23721 9.86868,34.94098 9.86868,34.94098z" fill="#231f2e"/><path d="M371.31031,165.02809c0.61058,4.02321 -5.4086,-0.84825 -6.38744,-4.79805c-1.36817,-5.52084 -1.77376,-14.25605 0.84996,-13.59238c1.82518,0.46168 4.56738,11.99834 5.53748,18.39043z" fill="#644360"/></g><g><path d="M345.93451,177.47458c0,0 4.57125,-33.76173 10.44833,-34.99895c4.76435,-1.00297 5.24845,20.68172 5.24845,20.68172z" fill="#231f2e"/><path d="M355.24072,146.5449c2.62372,-0.66367 2.21813,8.07154 0.84996,13.59238c-0.97884,3.9498 -6.99803,8.82127 -6.38744,4.79805c0.9701,-6.39209 3.7123,-17.92876 5.53748,-18.39043z" fill="#644360"/></g><path d="M345.68041,176.98185c1.36768,-9.57814 5.25307,-14.86871 14.32004,-14.86871c9.06697,0 12.03366,3.63936 13.93071,13.29508c2.08171,10.5956 -5.36708,14.14988 -14.43405,14.14988c-9.06697,0 -15.1351,-3.34329 -13.8167,-12.57625z" fill="#231f2e"/><path d="M363.7796,182.13218c0,0.98783 -1.2565,2.84854 -3.3785,2.84854c-2.122,0 -3.44475,-1.49637 -3.44475,-2.48419c0,-0.98783 1.19026,-0.2981 3.31225,-0.2981c2.122,0 3.51099,-1.05407 3.51099,-0.06625z" fill="#1c1925"/><path d="M362.28909,181.8753l1.52364,-0.23186l-0.62933,2.74917z" fill="#bca253"/><path d="M357.40201,184.51796l-0.62933,-2.74917l1.52364,0.23186z" fill="#bca253"/><path d="M364.15024,181.56771c-1.11113,1.94916 -7.77996,2.12292 -8.03774,-0.50546c-0.18259,-1.86175 0.45255,-3.51493 1.082,-5.66112c0.66981,-2.2838 1.13337,-3.18438 3.03991,-3.18438c0.95574,0 1.41018,0.95399 2.34521,2.89266c0.9302,1.92865 2.29195,5.19293 1.57061,6.4583z" fill="url(#color-1)"/><path d="M357.51717,174.30707c0,1.32524 -1.6105,1.66175 -3.31935,2.03329c-1.03622,0.2253 -2.24586,0.4302 -3.08573,0.4302c-2.2249,0 -3.9126,-0.33464 -3.9126,-2.46349c0,-2.12885 2.6731,-5.41968 6.57897,-4.7241c2.19044,0.39008 3.73871,2.59525 3.73871,4.7241z" fill="#1c1925"/><path d="M366.60793,169.65933c3.90587,-0.69557 6.57897,2.59525 6.57897,4.7241c0,2.12885 -1.6877,2.46349 -3.9126,2.46349c-0.83986,0 -2.0495,-0.20491 -3.08573,-0.4302c-1.70885,-0.37154 -3.31935,-0.70804 -3.31935,-2.03329c0,-2.12885 1.54827,-4.33402 3.73871,-4.7241z" fill="#1c1925"/><g><path d="M357.27494,175.36637c-0.53051,0.84592 -2.51096,1.01971 -4.89651,2.01441c-2.56905,1.07122 -5.08985,-0.17786 -5.08985,-2.28375c0,-1.37644 2.35793,-1.34056 5.14137,-1.34056c2.78344,0 5.96385,-0.17418 4.84499,1.6099z" fill="#16130a"/><path d="M357.33717,175.09569c-0.53051,0.84592 -2.66654,0.73965 -5.0521,1.73436c-2.56905,1.07122 -5.02761,0.03996 -5.02761,-2.06593c0,-1.37644 2.33108,-1.73227 5.11452,-1.73227c2.78344,0 6.08405,0.27976 4.96519,2.06384z" fill="#16130a"/><path d="M357.33717,175.30414c-0.53051,0.84592 -2.66654,0.73965 -5.0521,1.73436c-2.56905,1.07122 -5.02762,0.03996 -5.02762,-2.06593c0,-1.37644 2.38905,-1.55838 5.17248,-1.55838c2.78343,0 6.02608,0.10588 4.90723,1.88995z" fill="#bca253"/><path d="M351.76626,174.91275c0,-0.60965 0.30491,-1.1792 0.77056,-1.50223c0.06147,-0.04264 2.0014,-0.02802 2.08636,0.03527c0.43789,0.32615 0.7215,0.87899 0.7215,1.46697c0,0.54324 -0.24211,1.06106 -0.62431,1.3892c-0.06666,0.05723 -1.40963,0.39959 -1.44409,0.39229c-0.80935,-0.17141 -1.51003,-0.92108 -1.51003,-1.78149z" fill="#20395e"/><path d="M352.3886,174.91275c0,-0.64445 0.52243,-1.16688 1.16688,-1.16688c0.64445,0 1.16688,0.52243 1.16688,1.16688c0,0.64445 -0.52243,1.16688 -1.16688,1.16688c-0.64445,0 -1.16688,-0.52243 -1.16688,-1.16688z" fill="#16130a"/></g><g><path d="M368.00316,173.75648c2.78344,0 5.14137,-0.03588 5.14137,1.34056c0,2.10589 -2.5208,3.35497 -5.08984,2.28375c-2.38555,-0.99471 -4.366,-1.16849 -4.89651,-2.01441c-1.11886,-1.78407 2.06156,-1.6099 4.84499,-1.6099z" fill="#16130a"/><path d="M368.00316,173.03185c2.78344,0 5.17248,0.35583 5.17248,1.73227c0,2.10589 -2.45857,3.13715 -5.02761,2.06593c-2.38555,-0.99471 -4.52158,-0.88844 -5.0521,-1.73436c-1.11886,-1.78407 2.12379,-2.06384 4.90723,-2.06384z" fill="#16130a"/><path d="M368.00316,173.4142c2.78343,0 5.17248,0.18194 5.17248,1.55838c0,2.10589 -2.45857,3.13715 -5.02762,2.06593c-2.38555,-0.99471 -4.52158,-0.88844 -5.05209,-1.73436c-1.11886,-1.78407 2.12379,-1.88995 4.90723,-1.88995z" fill="#bca253"/><path d="M367.1568,176.69424c-0.03445,0.0073 -1.37742,-0.33506 -1.44408,-0.39229c-0.3822,-0.32814 -0.62431,-0.84595 -0.62431,-1.3892c0,-0.58797 0.28362,-1.14082 0.7215,-1.46697c0.08497,-0.06328 2.02489,-0.07791 2.08636,-0.03527c0.46564,0.32303 0.77056,0.89258 0.77056,1.50223c0,0.86041 -0.70068,1.61008 -1.51003,1.78149z" fill="#20395e"/><path d="M366.87763,176.07962c-0.64445,0 -1.16688,-0.52243 -1.16688,-1.16688c0,-0.64445 0.52243,-1.16688 1.16688,-1.16688c0.64445,0 1.16688,0.52243 1.16688,1.16688c0,0.64445 -0.52243,1.16688 -1.16688,1.16688z" fill="#16130a"/></g><g><path d="M362.63221,177.61938c0,1.03864 -1.31467,2.6101 -2.59519,2.6101c-1.28052,0 -2.43518,-1.59858 -2.43518,-2.63722c0,-1.03864 5.03037,-1.01152 5.03037,0.02712z" fill="#976581"/><path d="M359.35056,180.06224c-0.07491,0.05337 -0.4459,-0.16356 -0.75897,-0.45488c-0.30363,-0.28254 -0.55133,-0.63794 -0.51351,-0.70081c0.15443,-0.25666 0.49702,-0.12952 0.79439,0.01017c0.46758,0.21966 0.69878,0.98829 0.4781,1.14552z" fill="#643851"/><path d="M361.29195,178.91252c0.30258,-0.12801 0.64986,-0.24172 0.79418,0.02077c0.03535,0.06429 -0.22601,0.40979 -0.54041,0.68028c-0.32417,0.27891 -0.70333,0.48123 -0.77611,0.42498c-0.21439,-0.1657 0.04656,-0.92475 0.52234,-1.12603z" fill="#643851"/><path d="M359.89244,180.22768c0,-0.26226 0,-1.46346 0,-2.1364c0,-0.19968 -0.03204,-0.46023 0.16765,-0.46023c0.18683,0 0.1614,0.2403 0.16231,0.42712c0.00262,0.53642 0.00533,1.46924 -0.00251,2.15295c-0.00103,0.08968 -0.32745,0.07856 -0.32745,0.01656z" fill="#81526c"/></g></g></g></g></svg>