<svg version="1.1" xmlns="http://www.w3.org/2000/svg" xmlns:xlink="http://www.w3.org/1999/xlink" width="487.39813" height="219.97606" viewBox="0,0,487.39813,219.97606"><defs><linearGradient x1="474.67483" y1="145.20684" x2="484.64646" y2="141.15258" gradientUnits="userSpaceOnUse" id="color-1"><stop offset="0" stop-color="#484c5e"/><stop offset="1" stop-color="#212d30"/></linearGradient><linearGradient x1="478.04105" y1="153.48621" x2="491.54693" y2="147.99502" gradientUnits="userSpaceOnUse" id="color-2"><stop offset="0" stop-color="#484c5e"/><stop offset="1" stop-color="#212d30"/></linearGradient><linearGradient x1="481.78158" y1="162.68623" x2="495.28745" y2="157.19504" gradientUnits="userSpaceOnUse" id="color-3"><stop offset="0" stop-color="#484c5e"/><stop offset="1" stop-color="#212d30"/></linearGradient><linearGradient x1="485.10649" y1="170.86403" x2="498.61237" y2="165.37284" gradientUnits="userSpaceOnUse" id="color-4"><stop offset="0" stop-color="#484c5e"/><stop offset="1" stop-color="#212d30"/></linearGradient><linearGradient x1="488.98556" y1="180.4048" x2="502.49144" y2="174.9136" gradientUnits="userSpaceOnUse" id="color-5"><stop offset="0" stop-color="#484c5e"/><stop offset="1" stop-color="#212d30"/></linearGradient><linearGradient x1="492.31047" y1="188.58259" x2="505.81635" y2="183.0914" gradientUnits="userSpaceOnUse" id="color-6"><stop offset="0" stop-color="#484c5e"/><stop offset="1" stop-color="#212d30"/></linearGradient><linearGradient x1="496.05101" y1="197.78262" x2="509.55688" y2="192.29142" gradientUnits="userSpaceOnUse" id="color-7"><stop offset="0" stop-color="#484c5e"/><stop offset="1" stop-color="#212d30"/></linearGradient><linearGradient x1="499.37591" y1="205.96041" x2="512.88179" y2="200.46922" gradientUnits="userSpaceOnUse" id="color-8"><stop offset="0" stop-color="#484c5e"/><stop offset="1" stop-color="#212d30"/></linearGradient><linearGradient x1="534.14859" y1="144.28405" x2="523.81138" y2="141.282" gradientUnits="userSpaceOnUse" id="color-9"><stop offset="0" stop-color="#484c5e"/><stop offset="1" stop-color="#212d30"/></linearGradient><linearGradient x1="531.656" y1="152.86697" x2="517.65497" y2="148.80091" gradientUnits="userSpaceOnUse" id="color-10"><stop offset="0" stop-color="#484c5e"/><stop offset="1" stop-color="#212d30"/></linearGradient><linearGradient x1="528.88624" y1="162.4043" x2="514.88521" y2="158.33822" gradientUnits="userSpaceOnUse" id="color-11"><stop offset="0" stop-color="#484c5e"/><stop offset="1" stop-color="#212d30"/></linearGradient><linearGradient x1="526.42424" y1="170.88191" x2="512.42321" y2="166.81584" gradientUnits="userSpaceOnUse" id="color-12"><stop offset="0" stop-color="#484c5e"/><stop offset="1" stop-color="#212d30"/></linearGradient><linearGradient x1="523.5519" y1="180.77246" x2="509.55087" y2="176.70638" gradientUnits="userSpaceOnUse" id="color-13"><stop offset="0" stop-color="#484c5e"/><stop offset="1" stop-color="#212d30"/></linearGradient><linearGradient x1="521.0899" y1="189.25007" x2="507.08886" y2="185.184" gradientUnits="userSpaceOnUse" id="color-14"><stop offset="0" stop-color="#484c5e"/><stop offset="1" stop-color="#212d30"/></linearGradient><linearGradient x1="518.32014" y1="198.78739" x2="504.31911" y2="194.72131" gradientUnits="userSpaceOnUse" id="color-15"><stop offset="0" stop-color="#484c5e"/><stop offset="1" stop-color="#212d30"/></linearGradient><linearGradient x1="515.85813" y1="207.265" x2="501.85711" y2="203.19893" gradientUnits="userSpaceOnUse" id="color-16"><stop offset="0" stop-color="#484c5e"/><stop offset="1" stop-color="#212d30"/></linearGradient><linearGradient x1="53.89923" y1="139.2574" x2="68.04349" y2="139.2574" gradientUnits="userSpaceOnUse" id="color-17"><stop offset="0" stop-color="#484c5e"/><stop offset="1" stop-color="#212d30"/></linearGradient><linearGradient x1="53.89923" y1="145.33193" x2="73.05666" y2="145.33193" gradientUnits="userSpaceOnUse" id="color-18"><stop offset="0" stop-color="#484c5e"/><stop offset="1" stop-color="#212d30"/></linearGradient><linearGradient x1="53.89923" y1="152.08193" x2="73.05666" y2="152.08193" gradientUnits="userSpaceOnUse" id="color-19"><stop offset="0" stop-color="#484c5e"/><stop offset="1" stop-color="#212d30"/></linearGradient><linearGradient x1="53.89923" y1="158.08193" x2="73.05666" y2="158.08193" gradientUnits="userSpaceOnUse" id="color-20"><stop offset="0" stop-color="#484c5e"/><stop offset="1" stop-color="#212d30"/></linearGradient><linearGradient x1="53.89923" y1="165.08193" x2="73.05666" y2="165.08193" gradientUnits="userSpaceOnUse" id="color-21"><stop offset="0" stop-color="#484c5e"/><stop offset="1" stop-color="#212d30"/></linearGradient><linearGradient x1="53.89923" y1="171.08193" x2="73.05666" y2="171.08193" gradientUnits="userSpaceOnUse" id="color-22"><stop offset="0" stop-color="#484c5e"/><stop offset="1" stop-color="#212d30"/></linearGradient><linearGradient x1="53.89923" y1="177.83193" x2="73.05666" y2="177.83193" gradientUnits="userSpaceOnUse" id="color-23"><stop offset="0" stop-color="#484c5e"/><stop offset="1" stop-color="#212d30"/></linearGradient><linearGradient x1="53.89923" y1="183.83193" x2="73.05666" y2="183.83193" gradientUnits="userSpaceOnUse" id="color-24"><stop offset="0" stop-color="#484c5e"/><stop offset="1" stop-color="#212d30"/></linearGradient><linearGradient x1="253.82603" y1="244.64426" x2="243.06173" y2="244.64426" gradientUnits="userSpaceOnUse" id="color-25"><stop offset="0" stop-color="#484c5e"/><stop offset="1" stop-color="#212d30"/></linearGradient><linearGradient x1="253.82603" y1="249.2672" x2="239.24653" y2="249.2672" gradientUnits="userSpaceOnUse" id="color-26"><stop offset="0" stop-color="#484c5e"/><stop offset="1" stop-color="#212d30"/></linearGradient><linearGradient x1="253.82603" y1="254.40419" x2="239.24653" y2="254.40419" gradientUnits="userSpaceOnUse" id="color-27"><stop offset="0" stop-color="#484c5e"/><stop offset="1" stop-color="#212d30"/></linearGradient><linearGradient x1="253.82603" y1="258.97041" x2="239.24653" y2="258.97041" gradientUnits="userSpaceOnUse" id="color-28"><stop offset="0" stop-color="#484c5e"/><stop offset="1" stop-color="#212d30"/></linearGradient><linearGradient x1="253.82603" y1="264.29767" x2="239.24653" y2="264.29767" gradientUnits="userSpaceOnUse" id="color-29"><stop offset="0" stop-color="#484c5e"/><stop offset="1" stop-color="#212d30"/></linearGradient><linearGradient x1="253.82603" y1="268.86389" x2="239.24653" y2="268.86389" gradientUnits="userSpaceOnUse" id="color-30"><stop offset="0" stop-color="#484c5e"/><stop offset="1" stop-color="#212d30"/></linearGradient><linearGradient x1="253.82603" y1="274.00088" x2="239.24653" y2="274.00088" gradientUnits="userSpaceOnUse" id="color-31"><stop offset="0" stop-color="#484c5e"/><stop offset="1" stop-color="#212d30"/></linearGradient><linearGradient x1="253.82603" y1="278.5671" x2="239.24653" y2="278.5671" gradientUnits="userSpaceOnUse" id="color-32"><stop offset="0" stop-color="#484c5e"/><stop offset="1" stop-color="#212d30"/></linearGradient><linearGradient x1="265.66451" y1="244.83452" x2="276.42881" y2="244.83452" gradientUnits="userSpaceOnUse" id="color-33"><stop offset="0" stop-color="#484c5e"/><stop offset="1" stop-color="#212d30"/></linearGradient><linearGradient x1="265.66451" y1="249.45745" x2="280.24401" y2="249.45745" gradientUnits="userSpaceOnUse" id="color-34"><stop offset="0" stop-color="#484c5e"/><stop offset="1" stop-color="#212d30"/></linearGradient><linearGradient x1="265.66451" y1="254.59445" x2="280.24401" y2="254.59445" gradientUnits="userSpaceOnUse" id="color-35"><stop offset="0" stop-color="#484c5e"/><stop offset="1" stop-color="#212d30"/></linearGradient><linearGradient x1="265.66451" y1="259.16067" x2="280.24401" y2="259.16067" gradientUnits="userSpaceOnUse" id="color-36"><stop offset="0" stop-color="#484c5e"/><stop offset="1" stop-color="#212d30"/></linearGradient><linearGradient x1="265.66451" y1="264.48793" x2="280.24401" y2="264.48793" gradientUnits="userSpaceOnUse" id="color-37"><stop offset="0" stop-color="#484c5e"/><stop offset="1" stop-color="#212d30"/></linearGradient><linearGradient x1="265.66451" y1="269.05414" x2="280.24401" y2="269.05414" gradientUnits="userSpaceOnUse" id="color-38"><stop offset="0" stop-color="#484c5e"/><stop offset="1" stop-color="#212d30"/></linearGradient><linearGradient x1="265.66451" y1="274.19114" x2="280.24401" y2="274.19114" gradientUnits="userSpaceOnUse" id="color-39"><stop offset="0" stop-color="#484c5e"/><stop offset="1" stop-color="#212d30"/></linearGradient><linearGradient x1="265.66451" y1="278.75736" x2="280.24401" y2="278.75736" gradientUnits="userSpaceOnUse" id="color-40"><stop offset="0" stop-color="#484c5e"/><stop offset="1" stop-color="#212d30"/></linearGradient><linearGradient x1="236.50261" y1="191.79769" x2="284.37052" y2="191.79769" gradientUnits="userSpaceOnUse" id="color-41"><stop offset="0" stop-color="#484c5e"/><stop offset="1" stop-color="#212d30"/></linearGradient><linearGradient x1="231.90729" y1="130.309" x2="288.96584" y2="130.309" gradientUnits="userSpaceOnUse" id="color-42"><stop offset="0" stop-color="#484c5e"/><stop offset="1" stop-color="#212d30"/></linearGradient><linearGradient x1="258.0147" y1="126.65599" x2="264.70031" y2="126.65599" gradientUnits="userSpaceOnUse" id="color-43"><stop offset="0" stop-color="#484c5e"/><stop offset="1" stop-color="#212d30"/></linearGradient><linearGradient x1="258.0147" y1="136.68537" x2="267.0699" y2="136.68537" gradientUnits="userSpaceOnUse" id="color-44"><stop offset="0" stop-color="#484c5e"/><stop offset="1" stop-color="#212d30"/></linearGradient><linearGradient x1="258.0147" y1="147.82999" x2="267.0699" y2="147.82999" gradientUnits="userSpaceOnUse" id="color-45"><stop offset="0" stop-color="#484c5e"/><stop offset="1" stop-color="#212d30"/></linearGradient><linearGradient x1="258.0147" y1="157.73632" x2="267.0699" y2="157.73632" gradientUnits="userSpaceOnUse" id="color-46"><stop offset="0" stop-color="#484c5e"/><stop offset="1" stop-color="#212d30"/></linearGradient><linearGradient x1="258.0147" y1="169.29371" x2="267.0699" y2="169.29371" gradientUnits="userSpaceOnUse" id="color-47"><stop offset="0" stop-color="#484c5e"/><stop offset="1" stop-color="#212d30"/></linearGradient><linearGradient x1="258.0147" y1="179.20003" x2="267.0699" y2="179.20003" gradientUnits="userSpaceOnUse" id="color-48"><stop offset="0" stop-color="#484c5e"/><stop offset="1" stop-color="#212d30"/></linearGradient><linearGradient x1="258.0147" y1="190.34466" x2="267.0699" y2="190.34466" gradientUnits="userSpaceOnUse" id="color-49"><stop offset="0" stop-color="#484c5e"/><stop offset="1" stop-color="#212d30"/></linearGradient><linearGradient x1="258.0147" y1="200.25098" x2="267.0699" y2="200.25098" gradientUnits="userSpaceOnUse" id="color-50"><stop offset="0" stop-color="#484c5e"/><stop offset="1" stop-color="#212d30"/></linearGradient><linearGradient x1="290.70998" y1="141.70146" x2="280.02553" y2="143.01021" gradientUnits="userSpaceOnUse" id="color-51"><stop offset="0" stop-color="#484c5e"/><stop offset="1" stop-color="#212d30"/></linearGradient><linearGradient x1="291.79663" y1="150.57269" x2="277.32529" y2="152.34531" gradientUnits="userSpaceOnUse" id="color-52"><stop offset="0" stop-color="#484c5e"/><stop offset="1" stop-color="#212d30"/></linearGradient><linearGradient x1="293.00411" y1="160.43038" x2="278.53277" y2="162.20299" gradientUnits="userSpaceOnUse" id="color-53"><stop offset="0" stop-color="#484c5e"/><stop offset="1" stop-color="#212d30"/></linearGradient><linearGradient x1="294.07743" y1="169.19276" x2="279.60609" y2="170.96538" gradientUnits="userSpaceOnUse" id="color-54"><stop offset="0" stop-color="#484c5e"/><stop offset="1" stop-color="#212d30"/></linearGradient><linearGradient x1="295.32963" y1="179.41555" x2="280.85829" y2="181.18816" gradientUnits="userSpaceOnUse" id="color-55"><stop offset="0" stop-color="#484c5e"/><stop offset="1" stop-color="#212d30"/></linearGradient><linearGradient x1="296.40295" y1="188.17793" x2="281.93161" y2="189.95055" gradientUnits="userSpaceOnUse" id="color-56"><stop offset="0" stop-color="#484c5e"/><stop offset="1" stop-color="#212d30"/></linearGradient><linearGradient x1="297.61043" y1="198.03562" x2="283.13909" y2="199.80823" gradientUnits="userSpaceOnUse" id="color-57"><stop offset="0" stop-color="#484c5e"/><stop offset="1" stop-color="#212d30"/></linearGradient><linearGradient x1="298.68374" y1="206.798" x2="284.21241" y2="208.57062" gradientUnits="userSpaceOnUse" id="color-58"><stop offset="0" stop-color="#484c5e"/><stop offset="1" stop-color="#212d30"/></linearGradient><linearGradient x1="229.29002" y1="141.70146" x2="239.97447" y2="143.01021" gradientUnits="userSpaceOnUse" id="color-59"><stop offset="0" stop-color="#484c5e"/><stop offset="1" stop-color="#212d30"/></linearGradient><linearGradient x1="228.20337" y1="150.57269" x2="242.67471" y2="152.34531" gradientUnits="userSpaceOnUse" id="color-60"><stop offset="0" stop-color="#484c5e"/><stop offset="1" stop-color="#212d30"/></linearGradient><linearGradient x1="226.99589" y1="160.43037" x2="241.46723" y2="162.20299" gradientUnits="userSpaceOnUse" id="color-61"><stop offset="0" stop-color="#484c5e"/><stop offset="1" stop-color="#212d30"/></linearGradient><linearGradient x1="225.92257" y1="169.19276" x2="240.39391" y2="170.96538" gradientUnits="userSpaceOnUse" id="color-62"><stop offset="0" stop-color="#484c5e"/><stop offset="1" stop-color="#212d30"/></linearGradient><linearGradient x1="224.67037" y1="179.41555" x2="239.14171" y2="181.18816" gradientUnits="userSpaceOnUse" id="color-63"><stop offset="0" stop-color="#484c5e"/><stop offset="1" stop-color="#212d30"/></linearGradient><linearGradient x1="223.59705" y1="188.17793" x2="238.06839" y2="189.95055" gradientUnits="userSpaceOnUse" id="color-64"><stop offset="0" stop-color="#484c5e"/><stop offset="1" stop-color="#212d30"/></linearGradient><linearGradient x1="222.38957" y1="198.03562" x2="236.86091" y2="199.80823" gradientUnits="userSpaceOnUse" id="color-65"><stop offset="0" stop-color="#484c5e"/><stop offset="1" stop-color="#212d30"/></linearGradient><linearGradient x1="221.31625" y1="206.798" x2="235.78759" y2="208.57062" gradientUnits="userSpaceOnUse" id="color-66"><stop offset="0" stop-color="#484c5e"/><stop offset="1" stop-color="#212d30"/></linearGradient><linearGradient x1="247.61598" y1="158.26662" x2="273.66548" y2="158.26662" gradientUnits="userSpaceOnUse" id="color-67"><stop offset="0" stop-color="#484c5e"/><stop offset="1" stop-color="#212d30"/></linearGradient><linearGradient x1="285.21456" y1="148.02551" x2="269.30647" y2="148.02551" gradientUnits="userSpaceOnUse" id="color-68"><stop offset="0" stop-color="#484c5e"/><stop offset="1" stop-color="#212d30"/></linearGradient><linearGradient x1="236.50621" y1="149.55978" x2="252.4143" y2="149.55978" gradientUnits="userSpaceOnUse" id="color-69"><stop offset="0" stop-color="#484c5e"/><stop offset="1" stop-color="#212d30"/></linearGradient><linearGradient x1="260.05188" y1="199.74694" x2="260.05188" y2="235.26197" gradientUnits="userSpaceOnUse" id="color-70"><stop offset="0" stop-color="#484c5e"/><stop offset="1" stop-color="#212d30"/></linearGradient><linearGradient x1="247.30232" y1="201.44228" x2="247.30232" y2="209.81368" gradientUnits="userSpaceOnUse" id="color-71"><stop offset="0" stop-color="#484c5e"/><stop offset="1" stop-color="#212d30"/></linearGradient><linearGradient x1="274.09081" y1="201.44228" x2="274.09081" y2="209.81368" gradientUnits="userSpaceOnUse" id="color-72"><stop offset="0" stop-color="#484c5e"/><stop offset="1" stop-color="#212d30"/></linearGradient><linearGradient x1="265.26694" y1="283.96197" x2="294.94737" y2="283.96197" gradientUnits="userSpaceOnUse" id="color-73"><stop offset="0" stop-color="#484c5e"/><stop offset="1" stop-color="#212d30"/></linearGradient><linearGradient x1="254.61208" y1="284.08881" x2="224.93165" y2="284.08881" gradientUnits="userSpaceOnUse" id="color-74"><stop offset="0" stop-color="#484c5e"/><stop offset="1" stop-color="#212d30"/></linearGradient><linearGradient x1="498.82603" y1="244.16505" x2="488.06173" y2="244.16505" gradientUnits="userSpaceOnUse" id="color-75"><stop offset="0" stop-color="#484c5e"/><stop offset="1" stop-color="#212d30"/></linearGradient><linearGradient x1="498.82603" y1="247.91416" x2="484.24653" y2="247.91416" gradientUnits="userSpaceOnUse" id="color-76"><stop offset="0" stop-color="#484c5e"/><stop offset="1" stop-color="#212d30"/></linearGradient><linearGradient x1="498.82603" y1="252.08016" x2="484.24653" y2="252.08016" gradientUnits="userSpaceOnUse" id="color-77"><stop offset="0" stop-color="#484c5e"/><stop offset="1" stop-color="#212d30"/></linearGradient><linearGradient x1="498.82603" y1="255.78326" x2="484.24653" y2="255.78326" gradientUnits="userSpaceOnUse" id="color-78"><stop offset="0" stop-color="#484c5e"/><stop offset="1" stop-color="#212d30"/></linearGradient><linearGradient x1="498.82603" y1="260.10356" x2="484.24653" y2="260.10356" gradientUnits="userSpaceOnUse" id="color-79"><stop offset="0" stop-color="#484c5e"/><stop offset="1" stop-color="#212d30"/></linearGradient><linearGradient x1="498.82603" y1="263.80667" x2="484.24653" y2="263.80667" gradientUnits="userSpaceOnUse" id="color-80"><stop offset="0" stop-color="#484c5e"/><stop offset="1" stop-color="#212d30"/></linearGradient><linearGradient x1="498.82603" y1="267.97266" x2="484.24653" y2="267.97266" gradientUnits="userSpaceOnUse" id="color-81"><stop offset="0" stop-color="#484c5e"/><stop offset="1" stop-color="#212d30"/></linearGradient><linearGradient x1="498.82603" y1="271.67577" x2="484.24653" y2="271.67577" gradientUnits="userSpaceOnUse" id="color-82"><stop offset="0" stop-color="#484c5e"/><stop offset="1" stop-color="#212d30"/></linearGradient><linearGradient x1="510.66451" y1="244.31935" x2="521.42881" y2="244.31935" gradientUnits="userSpaceOnUse" id="color-83"><stop offset="0" stop-color="#484c5e"/><stop offset="1" stop-color="#212d30"/></linearGradient><linearGradient x1="510.66451" y1="248.06845" x2="525.24401" y2="248.06845" gradientUnits="userSpaceOnUse" id="color-84"><stop offset="0" stop-color="#484c5e"/><stop offset="1" stop-color="#212d30"/></linearGradient><linearGradient x1="510.66451" y1="252.23445" x2="525.24401" y2="252.23445" gradientUnits="userSpaceOnUse" id="color-85"><stop offset="0" stop-color="#484c5e"/><stop offset="1" stop-color="#212d30"/></linearGradient><linearGradient x1="510.66451" y1="255.93756" x2="525.24401" y2="255.93756" gradientUnits="userSpaceOnUse" id="color-86"><stop offset="0" stop-color="#484c5e"/><stop offset="1" stop-color="#212d30"/></linearGradient><linearGradient x1="510.66451" y1="260.25786" x2="525.24401" y2="260.25786" gradientUnits="userSpaceOnUse" id="color-87"><stop offset="0" stop-color="#484c5e"/><stop offset="1" stop-color="#212d30"/></linearGradient><linearGradient x1="510.66451" y1="263.96096" x2="525.24401" y2="263.96096" gradientUnits="userSpaceOnUse" id="color-88"><stop offset="0" stop-color="#484c5e"/><stop offset="1" stop-color="#212d30"/></linearGradient><linearGradient x1="510.66451" y1="268.12696" x2="525.24401" y2="268.12696" gradientUnits="userSpaceOnUse" id="color-89"><stop offset="0" stop-color="#484c5e"/><stop offset="1" stop-color="#212d30"/></linearGradient><linearGradient x1="510.66451" y1="271.83007" x2="525.24401" y2="271.83007" gradientUnits="userSpaceOnUse" id="color-90"><stop offset="0" stop-color="#484c5e"/><stop offset="1" stop-color="#212d30"/></linearGradient><linearGradient x1="481.50261" y1="191.79769" x2="529.37052" y2="191.79769" gradientUnits="userSpaceOnUse" id="color-91"><stop offset="0" stop-color="#484c5e"/><stop offset="1" stop-color="#212d30"/></linearGradient><linearGradient x1="476.90729" y1="130.309" x2="533.96584" y2="130.309" gradientUnits="userSpaceOnUse" id="color-92"><stop offset="0" stop-color="#484c5e"/><stop offset="1" stop-color="#212d30"/></linearGradient><linearGradient x1="509.70031" y1="140.14141" x2="503.0147" y2="140.14141" gradientUnits="userSpaceOnUse" id="color-93"><stop offset="0" stop-color="#484c5e"/><stop offset="1" stop-color="#212d30"/></linearGradient><linearGradient x1="509.70031" y1="148.45815" x2="500.64511" y2="148.45815" gradientUnits="userSpaceOnUse" id="color-94"><stop offset="0" stop-color="#484c5e"/><stop offset="1" stop-color="#212d30"/></linearGradient><linearGradient x1="509.70031" y1="157.69969" x2="500.64511" y2="157.69969" gradientUnits="userSpaceOnUse" id="color-95"><stop offset="0" stop-color="#484c5e"/><stop offset="1" stop-color="#212d30"/></linearGradient><linearGradient x1="509.70031" y1="165.9144" x2="500.64511" y2="165.9144" gradientUnits="userSpaceOnUse" id="color-96"><stop offset="0" stop-color="#484c5e"/><stop offset="1" stop-color="#212d30"/></linearGradient><linearGradient x1="509.70031" y1="175.49822" x2="500.64511" y2="175.49822" gradientUnits="userSpaceOnUse" id="color-97"><stop offset="0" stop-color="#484c5e"/><stop offset="1" stop-color="#212d30"/></linearGradient><linearGradient x1="509.70031" y1="183.71292" x2="500.64511" y2="183.71292" gradientUnits="userSpaceOnUse" id="color-98"><stop offset="0" stop-color="#484c5e"/><stop offset="1" stop-color="#212d30"/></linearGradient><linearGradient x1="509.70031" y1="192.95447" x2="500.64511" y2="192.95447" gradientUnits="userSpaceOnUse" id="color-99"><stop offset="0" stop-color="#484c5e"/><stop offset="1" stop-color="#212d30"/></linearGradient><linearGradient x1="509.70031" y1="201.16917" x2="500.64511" y2="201.16917" gradientUnits="userSpaceOnUse" id="color-100"><stop offset="0" stop-color="#484c5e"/><stop offset="1" stop-color="#212d30"/></linearGradient><linearGradient x1="492.61598" y1="158.26662" x2="518.66548" y2="158.26662" gradientUnits="userSpaceOnUse" id="color-101"><stop offset="0" stop-color="#484c5e"/><stop offset="1" stop-color="#212d30"/></linearGradient><linearGradient x1="530.21456" y1="148.02551" x2="514.30647" y2="148.02551" gradientUnits="userSpaceOnUse" id="color-102"><stop offset="0" stop-color="#484c5e"/><stop offset="1" stop-color="#212d30"/></linearGradient><linearGradient x1="481.50621" y1="149.55978" x2="497.4143" y2="149.55978" gradientUnits="userSpaceOnUse" id="color-103"><stop offset="0" stop-color="#484c5e"/><stop offset="1" stop-color="#212d30"/></linearGradient><linearGradient x1="505.05188" y1="199.74694" x2="505.05188" y2="235.26197" gradientUnits="userSpaceOnUse" id="color-104"><stop offset="0" stop-color="#484c5e"/><stop offset="1" stop-color="#212d30"/></linearGradient><linearGradient x1="492.30232" y1="201.44228" x2="492.30232" y2="209.81368" gradientUnits="userSpaceOnUse" id="color-105"><stop offset="0" stop-color="#484c5e"/><stop offset="1" stop-color="#212d30"/></linearGradient><linearGradient x1="519.09081" y1="201.44228" x2="519.09081" y2="209.81368" gradientUnits="userSpaceOnUse" id="color-106"><stop offset="0" stop-color="#484c5e"/><stop offset="1" stop-color="#212d30"/></linearGradient><linearGradient x1="509.99194" y1="278.24714" x2="539.67237" y2="278.24714" gradientUnits="userSpaceOnUse" id="color-107"><stop offset="0" stop-color="#484c5e"/><stop offset="1" stop-color="#212d30"/></linearGradient><linearGradient x1="499.33709" y1="278.37398" x2="469.65666" y2="278.37398" gradientUnits="userSpaceOnUse" id="color-108"><stop offset="0" stop-color="#484c5e"/><stop offset="1" stop-color="#212d30"/></linearGradient></defs><g transform="translate(-52.27423,-70.01197)"><g stroke-miterlimit="10"><g><g fill="none" stroke-width="3.25" stroke-linecap="round"><path d="M482.5225,136.72523c0,0 -5.83223,2.37125 -7.57869,3.08133c-0.92261,0.37511 -1.20559,1.0595 0.11388,1.3491c2.49422,0.54743 6.4538,1.41647 8.5061,1.8669c2.45033,0.5378 3.54552,2.50874 1.68233,3.17459c-2.51749,0.8997 -8.87858,3.17297 -8.87858,3.17297" stroke="url(#color-1)"/><path d="M476.15374,148.84427c0,0 7.59697,1.66737 10.73497,2.35609c2.45033,0.53779 3.54551,2.50873 1.68233,3.17459c-2.51749,0.89968 -8.87858,3.17297 -8.87858,3.17297" stroke="url(#color-2)"/><path d="M479.89426,158.04429c0,0 7.59697,1.66737 10.73497,2.35609c2.45033,0.53779 3.54551,2.50873 1.68233,3.17459c-2.51749,0.89968 -8.87858,3.17297 -8.87858,3.17297" stroke="url(#color-3)"/><path d="M483.21918,166.22209c0,0 7.59697,1.66737 10.73497,2.35609c2.45033,0.53779 3.54551,2.50873 1.68233,3.17459c-2.51749,0.89968 -8.87858,3.17297 -8.87858,3.17297" stroke="url(#color-4)"/><path d="M487.09824,175.76285c0,0 7.59697,1.66737 10.73497,2.35609c2.45033,0.53779 3.54551,2.50873 1.68233,3.17459c-2.51749,0.89968 -8.87858,3.17297 -8.87858,3.17297" stroke="url(#color-5)"/><path d="M490.42317,183.94065c0,0 7.59697,1.66737 10.73497,2.35609c2.45033,0.53779 3.54551,2.50873 1.68233,3.17459c-2.51749,0.89968 -8.87858,3.17297 -8.87858,3.17297" stroke="url(#color-6)"/><path d="M494.16369,193.14067c0,0 7.59697,1.66737 10.73497,2.35609c2.45033,0.53779 3.54551,2.50873 1.68233,3.17459c-2.51749,0.89968 -8.87858,3.17297 -8.87858,3.17297" stroke="url(#color-7)"/><path d="M497.48861,201.31847c0,0 7.59697,1.66737 10.73497,2.35609c2.45033,0.53779 3.54551,2.50873 1.68233,3.17459c-2.51749,0.89968 -8.87858,3.17297 -8.87858,3.17297" stroke="url(#color-8)"/></g><path d="M497.29043,215.30613c-0.30262,-2.82293 -10.11499,-8.68545 -7.25199,-10.69202c0.91751,-0.64305 13.58673,1.56901 14.67924,1.20162c1.67283,-0.56255 9.29804,-5.2552 10.66866,-4.97458c2.3177,0.47453 -2.0454,6.64061 -1.79429,8.983c0.11792,1.0999 4.83239,5.38541 1.50509,9.05325c-1.19543,1.31777 -0.15341,-1.53681 -3.02095,-1.22724c-2.21816,0.23946 1.4816,12.2767 -7.0782,13.41457c-8.29227,1.1023 -7.30796,-12.03099 -7.70756,-15.75859z" fill="#0d0d0d" stroke="#000000" stroke-width="0" stroke-linecap="butt"/></g><g><g fill="none" stroke-width="3.25" stroke-linecap="round"><path d="M532.89519,148.59998c0,0 -6.56195,-1.60375 -9.15894,-2.23846c-1.92202,-0.46974 -1.03638,-2.54331 1.34524,-3.33144c1.99476,-0.66011 5.84333,-1.93369 8.26763,-2.73594c1.28249,-0.4244 0.93029,-1.07588 -0.02614,-1.35364c-1.81049,-0.52579 -7.85654,-2.28163 -7.85654,-2.28163" stroke="url(#color-9)"/><path d="M530.43319,157.07759c0,0 -6.56195,-1.60374 -9.15895,-2.23845c-1.92202,-0.46974 -1.03638,-2.54331 1.34525,-3.33145c3.05002,-1.00932 10.43401,-3.45284 10.43401,-3.45284" stroke="url(#color-10)"/><path d="M527.66343,166.61491c0,0 -6.56195,-1.60375 -9.15894,-2.23846c-1.92202,-0.46974 -1.03638,-2.54331 1.34525,-3.33144c3.05002,-1.00932 10.43401,-3.45284 10.43401,-3.45284" stroke="url(#color-11)"/><path d="M525.20143,175.09252c0,0 -6.56195,-1.60374 -9.15895,-2.23845c-1.92202,-0.46974 -1.03638,-2.54331 1.34524,-3.33145c3.05002,-1.00932 10.43401,-3.45284 10.43401,-3.45284" stroke="url(#color-12)"/><path d="M522.32909,184.98306c0,0 -6.56195,-1.60374 -9.15895,-2.23845c-1.92202,-0.46974 -1.03638,-2.54331 1.34525,-3.33144c3.05002,-1.00932 10.43401,-3.45284 10.43401,-3.45284" stroke="url(#color-13)"/><path d="M519.86709,193.46068c0,0 -6.56195,-1.60374 -9.15895,-2.23845c-1.92202,-0.46974 -1.03638,-2.54331 1.34525,-3.33145c3.05002,-1.00932 10.43401,-3.45284 10.43401,-3.45284" stroke="url(#color-14)"/><path d="M517.09733,202.998c0,0 -6.56195,-1.60374 -9.15895,-2.23845c-1.92202,-0.46974 -1.03638,-2.54331 1.34525,-3.33144c3.05002,-1.00932 10.43401,-3.45284 10.43401,-3.45284" stroke="url(#color-15)"/><path d="M514.63533,211.47562c0,0 -6.56195,-1.60374 -9.15895,-2.23845c-1.92202,-0.46974 -1.03638,-2.54331 1.34525,-3.33145c3.05002,-1.00932 10.43401,-3.45284 10.43401,-3.45284" stroke="url(#color-16)"/></g><path d="M512.86049,232.81589c-8.63156,-0.24719 -6.19556,-12.60232 -8.42659,-12.61127c-2.88418,-0.01157 -1.55275,2.72003 -2.87795,1.53285c-3.68852,-3.30436 0.55784,-8.05412 0.56146,-9.16032c0.0077,-2.35578 -4.96927,-8.03796 -2.713,-8.74947c1.33429,-0.42076 9.40361,3.45876 11.12562,3.84543c1.12462,0.25253 13.49742,-3.25695 14.47647,-2.71217c3.05503,1.69997 -6.09895,8.54513 -6.10823,11.38421c-0.01225,3.74893 2.32402,16.71021 -6.03777,16.47073z" fill="#0d0d0d" stroke="#000000" stroke-width="0" stroke-linecap="butt"/></g><g fill="none" stroke-width="3.25" stroke-linecap="round"><path d="M67.64923,135.92617c0,0 -8.27273,0 -10.75,0c-1.30866,0 -1.99183,0.35846 -0.52904,0.87856c2.76514,0.98316 7.15479,2.54393 9.43,3.35289c2.71647,0.96586 3.07415,2.48714 0.47667,2.42942c-3.50964,-0.07799 -12.37763,-0.27506 -12.37763,-0.27506" stroke="url(#color-17)"/><path d="M53.89923,141.92617c0,0 8.42212,2.99453 11.90095,4.23145c2.71647,0.96586 3.07415,2.48714 0.47668,2.42942c-3.50964,-0.07799 -12.37763,-0.27506 -12.37763,-0.27506" stroke="url(#color-18)"/><path d="M53.89923,148.67617c0,0 8.42212,2.99453 11.90095,4.23145c2.71647,0.96586 3.07415,2.48714 0.47668,2.42942c-3.50964,-0.07799 -12.37763,-0.27506 -12.37763,-0.27506" stroke="url(#color-19)"/><path d="M53.89923,154.67617c0,0 8.42212,2.99453 11.90095,4.23145c2.71647,0.96586 3.07415,2.48714 0.47668,2.42942c-3.50964,-0.07799 -12.37763,-0.27506 -12.37763,-0.27506" stroke="url(#color-20)"/><path d="M53.89923,161.67617c0,0 8.42212,2.99453 11.90095,4.23145c2.71647,0.96586 3.07415,2.48714 0.47668,2.42942c-3.50964,-0.07799 -12.37763,-0.27506 -12.37763,-0.27506" stroke="url(#color-21)"/><path d="M53.89923,167.67617c0,0 8.42212,2.99453 11.90095,4.23145c2.71647,0.96586 3.07415,2.48714 0.47668,2.42942c-3.50964,-0.07799 -12.37763,-0.27506 -12.37763,-0.27506" stroke="url(#color-22)"/><path d="M53.89923,174.42617c0,0 8.42212,2.99453 11.90095,4.23145c2.71647,0.96586 3.07415,2.48714 0.47668,2.42942c-3.50964,-0.07799 -12.37763,-0.27506 -12.37763,-0.27506" stroke="url(#color-23)"/><path d="M53.89923,180.42617c0,0 8.42212,2.99453 11.90095,4.23145c2.71647,0.96586 3.07415,2.48714 0.47668,2.42942c-3.50964,-0.07799 -12.37763,-0.27506 -12.37763,-0.27506" stroke="url(#color-24)"/></g><text transform="translate(83,166.14442) scale(0.5,0.5)" font-size="40" xml:space="preserve" fill="#747474" stroke="none" stroke-width="1" stroke-linecap="butt" font-family="Sans Serif" font-weight="normal" text-anchor="start"><tspan x="0" dy="0">S P R I N G</tspan></text><g fill="none" stroke-width="3.25" stroke-linecap="round"><path d="M253.82603,246.9689c0,0 -6.74886,0.14998 -9.41982,0.20933c-1.97677,0.04393 -1.70457,-1.11383 0.36277,-1.84888c1.73152,-0.61565 5.0722,-1.80345 7.17657,-2.55167c1.11324,-0.39582 0.59332,-0.66862 -0.40262,-0.66862c-1.88529,0 -8.18114,0 -8.18114,0" stroke="url(#color-25)"/><path d="M253.82603,251.53512c0,0 -6.74886,0.14998 -9.41982,0.20933c-1.97677,0.04393 -1.70457,-1.11383 0.36277,-1.84888c2.64752,-0.94134 9.05706,-3.22029 9.05706,-3.22029" stroke="url(#color-26)"/><path d="M253.82603,256.67211c0,0 -6.74886,0.14998 -9.41982,0.20933c-1.97677,0.04393 -1.70457,-1.11383 0.36277,-1.84888c2.64752,-0.94134 9.05706,-3.22029 9.05706,-3.22029" stroke="url(#color-27)"/><path d="M253.82603,261.23833c0,0 -6.74886,0.14998 -9.41982,0.20933c-1.97677,0.04393 -1.70457,-1.11383 0.36277,-1.84888c2.64752,-0.94134 9.05706,-3.22029 9.05706,-3.22029" stroke="url(#color-28)"/><path d="M253.82603,266.56559c0,0 -6.74886,0.14998 -9.41982,0.20933c-1.97677,0.04393 -1.70457,-1.11383 0.36277,-1.84888c2.64752,-0.94134 9.05706,-3.22029 9.05706,-3.22029" stroke="url(#color-29)"/><path d="M253.82603,271.13181c0,0 -6.74886,0.14998 -9.41982,0.20933c-1.97677,0.04393 -1.70457,-1.11383 0.36277,-1.84888c2.64752,-0.94134 9.05706,-3.22029 9.05706,-3.22029" stroke="url(#color-30)"/><path d="M253.82603,276.26881c0,0 -6.74886,0.14998 -9.41982,0.20933c-1.97677,0.04393 -1.70457,-1.11383 0.36277,-1.84888c2.64752,-0.94134 9.05706,-3.22029 9.05706,-3.22029" stroke="url(#color-31)"/><path d="M253.82603,280.83502c0,0 -6.74886,0.14998 -9.41982,0.20933c-1.97677,0.04393 -1.70457,-1.11383 0.36277,-1.84888c2.64752,-0.94134 9.05706,-3.22029 9.05706,-3.22029" stroke="url(#color-32)"/></g><g fill="none" stroke-width="3.25" stroke-linecap="round"><path d="M276.12875,242.29932c0,0 -6.29585,0 -8.18114,0c-0.99594,0 -1.51586,0.2728 -0.40262,0.66862c2.10437,0.74822 5.44505,1.93602 7.17657,2.55167c2.06734,0.73505 2.33954,1.89281 0.36277,1.84888c-2.67096,-0.05935 -9.41982,-0.20933 -9.41982,-0.20933" stroke="url(#color-33)"/><path d="M265.66451,246.86554c0,0 6.40954,2.27895 9.05706,3.22029c2.06733,0.73505 2.33954,1.8928 0.36277,1.84888c-2.67096,-0.05935 -9.41982,-0.20933 -9.41982,-0.20933" stroke="url(#color-34)"/><path d="M265.66451,252.00254c0,0 6.40954,2.27895 9.05706,3.22029c2.06733,0.73505 2.33954,1.8928 0.36277,1.84888c-2.67096,-0.05935 -9.41982,-0.20933 -9.41982,-0.20933" stroke="url(#color-35)"/><path d="M265.66451,256.56876c0,0 6.40954,2.27895 9.05706,3.22029c2.06733,0.73505 2.33954,1.8928 0.36277,1.84888c-2.67096,-0.05935 -9.41982,-0.20933 -9.41982,-0.20933" stroke="url(#color-36)"/><path d="M265.66451,261.89601c0,0 6.40954,2.27895 9.05706,3.22029c2.06733,0.73505 2.33954,1.8928 0.36277,1.84888c-2.67096,-0.05935 -9.41982,-0.20933 -9.41982,-0.20933" stroke="url(#color-37)"/><path d="M265.66451,266.46223c0,0 6.40954,2.27895 9.05706,3.22029c2.06733,0.73505 2.33954,1.8928 0.36277,1.84888c-2.67096,-0.05935 -9.41982,-0.20933 -9.41982,-0.20933" stroke="url(#color-38)"/><path d="M265.66451,271.59923c0,0 6.40954,2.27895 9.05706,3.22029c2.06733,0.73505 2.33954,1.8928 0.36277,1.84888c-2.67096,-0.05935 -9.41982,-0.20933 -9.41982,-0.20933" stroke="url(#color-39)"/><path d="M265.66451,276.16545c0,0 6.40954,2.27895 9.05706,3.22029c2.06733,0.73505 2.33954,1.8928 0.36277,1.84888c-2.67096,-0.05935 -9.41982,-0.20933 -9.41982,-0.20933" stroke="url(#color-40)"/></g><path d="M284.37051,191.79769c0,0.616 -6.98232,0.56493 -14.06476,-2.2998c-3.25203,-1.31539 -4.56083,-6.69936 -8.72036,-6.69936c-4.7144,0 -4.92241,5.23462 -8.65884,7.00189c-6.73986,3.18784 -15.46658,3.72437 -15.46658,3.1461c0,-0.89885 9.75824,-30.82693 22.97659,-30.82693c13.21836,0 23.93395,28.77925 23.93395,29.6781z" fill="#4c1212" stroke="url(#color-41)" stroke-width="0" stroke-linecap="butt"/><path d="M288.96584,130.309c0,0.66092 -11.43269,10.57881 -27.18897,10.57881c-15.75628,0 -28.62501,-8.48185 -28.62501,-9.14277c0,-0.32628 13.9859,1.07324 27.7608,0.7147c14.12762,-0.36772 28.05317,-2.48537 28.05317,-2.15074z" fill="#4c1212" stroke="url(#color-42)" stroke-width="0" stroke-linecap="butt"/><g fill="none" stroke-width="3.25" stroke-linecap="round"><path d="M264.51396,121.15593c0,0 -3.91029,0 -5.08123,0c-0.61858,0 -0.94149,0.59184 -0.25007,1.45056c1.307,1.62325 3.38187,4.20015 4.4573,5.5358c1.284,1.59468 1.45307,4.10641 0.22531,4.01111c-1.65891,-0.12877 -5.85057,-0.45414 -5.85057,-0.45414" stroke="url(#color-43)"/><path d="M258.0147,131.06227c0,0 3.98091,4.94414 5.62526,6.98636c1.284,1.59468 1.45307,4.1064 0.22531,4.01111c-1.65891,-0.12877 -5.85057,-0.45414 -5.85057,-0.45414" stroke="url(#color-44)"/><path d="M258.0147,142.20689c0,0 3.98091,4.94414 5.62526,6.98636c1.284,1.59468 1.45307,4.1064 0.22531,4.01111c-1.65891,-0.12877 -5.85057,-0.45414 -5.85057,-0.45414" stroke="url(#color-45)"/><path d="M258.0147,152.11322c0,0 3.98091,4.94414 5.62526,6.98636c1.284,1.59468 1.45307,4.1064 0.22531,4.01111c-1.65891,-0.12877 -5.85057,-0.45414 -5.85057,-0.45414" stroke="url(#color-46)"/><path d="M258.0147,163.6706c0,0 3.98091,4.94414 5.62526,6.98636c1.284,1.59468 1.45307,4.1064 0.22531,4.01111c-1.65891,-0.12877 -5.85057,-0.45414 -5.85057,-0.45414" stroke="url(#color-47)"/><path d="M258.0147,173.57693c0,0 3.98091,4.94414 5.62526,6.98636c1.284,1.59468 1.45307,4.1064 0.22531,4.01111c-1.65891,-0.12877 -5.85057,-0.45414 -5.85057,-0.45414" stroke="url(#color-48)"/><path d="M258.0147,184.72155c0,0 3.98091,4.94414 5.62526,6.98636c1.284,1.59468 1.45307,4.1064 0.22531,4.01111c-1.65891,-0.12877 -5.85057,-0.45414 -5.85057,-0.45414" stroke="url(#color-49)"/><path d="M258.0147,194.62788c0,0 3.98091,4.94414 5.62526,6.98636c1.284,1.59468 1.45307,4.1064 0.22531,4.01111c-1.65891,-0.12877 -5.85057,-0.45414 -5.85057,-0.45414" stroke="url(#color-50)"/></g><g><g fill="none" stroke-width="3.25" stroke-linecap="round"><path d="M291.2564,146.16236c0,0 -6.66354,1.10834 -9.30074,1.54698c-1.95178,0.32464 -1.95373,-1.93014 -0.07452,-3.59202c1.57396,-1.39193 4.61066,-4.07744 6.52355,-5.76909c1.01194,-0.89491 0.43176,-1.35519 -0.5568,-1.2341c-1.87131,0.22922 -8.12045,0.99469 -8.12045,0.99469" stroke="url(#color-51)"/><path d="M292.32972,154.92474c0,0 -6.66354,1.10835 -9.30074,1.54699c-1.95178,0.32464 -1.95373,-1.93014 -0.07451,-3.59203c2.40661,-2.12828 8.23292,-7.28078 8.23292,-7.28078" stroke="url(#color-52)"/><path d="M293.5372,164.78243c0,0 -6.66354,1.10834 -9.30074,1.54698c-1.95178,0.32464 -1.95373,-1.93014 -0.07451,-3.59202c2.40661,-2.12828 8.23292,-7.28078 8.23292,-7.28078" stroke="url(#color-53)"/><path d="M294.61052,173.54481c0,0 -6.66354,1.10835 -9.30074,1.54699c-1.95178,0.32464 -1.95373,-1.93014 -0.07452,-3.59203c2.40661,-2.12828 8.23292,-7.28078 8.23292,-7.28078" stroke="url(#color-54)"/><path d="M295.86272,183.76759c0,0 -6.66354,1.10835 -9.30074,1.54699c-1.95178,0.32464 -1.95373,-1.93014 -0.07451,-3.59202c2.40661,-2.12828 8.23292,-7.28078 8.23292,-7.28078" stroke="url(#color-55)"/><path d="M296.93604,192.52998c0,0 -6.66354,1.10835 -9.30074,1.54699c-1.95178,0.32464 -1.95373,-1.93014 -0.07451,-3.59203c2.40661,-2.12828 8.23292,-7.28078 8.23292,-7.28078" stroke="url(#color-56)"/><path d="M298.14352,202.38767c0,0 -6.66354,1.10835 -9.30074,1.54699c-1.95178,0.32464 -1.95373,-1.93014 -0.07451,-3.59202c2.40661,-2.12828 8.23292,-7.28078 8.23292,-7.28078" stroke="url(#color-57)"/><path d="M299.21684,211.15005c0,0 -6.66354,1.10835 -9.30074,1.54699c-1.95178,0.32464 -1.95373,-1.93014 -0.07451,-3.59203c2.40661,-2.12828 8.23292,-7.28078 8.23292,-7.28078" stroke="url(#color-58)"/></g><path d="M305.98434,231.46651c-8.0322,3.16996 -10.65553,-9.14675 -12.71002,-8.27689c-2.65595,1.12452 -0.35688,3.11163 -2.04237,2.54184c-4.69135,-1.58594 -2.65712,-7.62363 -3.08917,-8.64197c-0.92011,-2.16868 -7.73178,-5.43342 -5.93765,-6.97552c1.061,-0.91195 10.00595,-0.52146 11.74116,-0.84375c1.13324,-0.21048 11.12618,-8.30639 12.24063,-8.19091c3.47753,0.36037 -2.24352,10.25588 -1.13465,12.86947c1.46424,3.45118 8.71324,14.44685 0.93208,17.51773z" fill="#0d0d0d" stroke="#000000" stroke-width="0" stroke-linecap="butt"/></g><g><g fill="none" stroke-width="3.25" stroke-linecap="round"><path d="M240.27256,138.1088c0,0 -6.24914,-0.76547 -8.12045,-0.99469c-0.98856,-0.12109 -1.56874,0.33919 -0.5568,1.2341c1.91288,1.69166 4.94958,4.37716 6.52354,5.76909c1.87922,1.66189 1.87727,3.91667 -0.07451,3.59203c-2.6372,-0.43863 -9.30074,-1.54698 -9.30074,-1.54698" stroke="url(#color-59)"/><path d="M228.81262,145.59892c0,0 5.82631,5.1525 8.23292,7.28078c1.87922,1.66188 1.87727,3.91666 -0.07451,3.59203c-2.63719,-0.43864 -9.30074,-1.54698 -9.30074,-1.54698" stroke="url(#color-60)"/><path d="M227.60513,155.4566c0,0 5.82631,5.1525 8.23292,7.28078c1.87922,1.66188 1.87727,3.91666 -0.07451,3.59203c-2.63719,-0.43864 -9.30074,-1.54698 -9.30074,-1.54698" stroke="url(#color-61)"/><path d="M226.53182,164.21899c0,0 5.82631,5.1525 8.23292,7.28078c1.87922,1.66188 1.87727,3.91666 -0.07451,3.59203c-2.63719,-0.43864 -9.30074,-1.54698 -9.30074,-1.54698" stroke="url(#color-62)"/><path d="M225.27961,174.44177c0,0 5.82631,5.1525 8.23292,7.28078c1.87922,1.66188 1.87727,3.91666 -0.07451,3.59203c-2.63719,-0.43864 -9.30074,-1.54698 -9.30074,-1.54698" stroke="url(#color-63)"/><path d="M224.2063,183.20416c0,0 5.82631,5.1525 8.23292,7.28078c1.87922,1.66188 1.87727,3.91666 -0.07451,3.59203c-2.63719,-0.43864 -9.30074,-1.54698 -9.30074,-1.54698" stroke="url(#color-64)"/><path d="M222.99881,193.06184c0,0 5.82631,5.1525 8.23292,7.28078c1.87922,1.66188 1.87727,3.91666 -0.07451,3.59203c-2.63719,-0.43864 -9.30074,-1.54698 -9.30074,-1.54698" stroke="url(#color-65)"/><path d="M221.9255,201.82423c0,0 5.82631,5.1525 8.23292,7.28078c1.87922,1.66188 1.87727,3.91666 -0.07451,3.59203c-2.63719,-0.43864 -9.30074,-1.54698 -9.30074,-1.54698" stroke="url(#color-66)"/></g><path d="M214.94773,213.94878c1.10888,-2.6136 -4.61218,-12.50911 -1.13465,-12.86947c1.11445,-0.11549 11.10738,7.98042 12.24063,8.19091c1.73521,0.32229 10.68017,-0.0682 11.74116,0.84375c1.79412,1.5421 -5.01754,4.80684 -5.93765,6.97553c-0.43205,1.01834 1.60218,7.05604 -3.08917,8.64197c-1.6855,0.56979 0.61358,-1.41733 -2.04237,-2.54184c-2.05449,-0.86986 -4.67782,11.44685 -12.71002,8.27689c-7.78116,-3.07089 -0.53217,-14.06655 0.93207,-17.51773z" fill="#0d0d0d" stroke="#000000" stroke-width="0" stroke-linecap="butt"/></g><path d="M246.48242,147.28667c0,-3.09286 -6.73808,-9.22742 -5.94313,-10.66313c1.00199,-1.80963 9.74474,1.47869 11.68917,1.21988c2.36969,-0.31541 5.30652,0.07287 8.48701,0.07287c3.32671,0 6.55731,-0.30905 9.17732,0.22446c1.56505,0.31869 9.70947,-2.02978 10.72912,-0.86434c1.3068,1.49365 -4.72163,6.85211 -4.72163,10.65648c0,6.31599 0.30359,20.28267 -2.8782,27.18355c-2.73353,5.92866 -8.6741,5.32196 -12.30661,5.32196c-3.05288,0 -10.03437,-1.16133 -12.35217,-5.7994c-3.65017,-7.30426 -1.88089,-20.17051 -1.88089,-27.35234z" fill="#dadada" stroke="#000000" stroke-width="0" stroke-linecap="butt"/><path d="M247.61598,158.26662c0,-8.76227 5.83138,-15.8655 13.02475,-15.8655c7.19337,0 13.02475,7.10323 13.02475,15.8655c0,8.76227 -5.83138,15.8655 -13.02475,15.8655c-7.19337,0 -13.02475,-7.10323 -13.02475,-15.8655z" fill="#ababab" stroke="url(#color-67)" stroke-width="0" stroke-linecap="butt"/><path d="M272.05592,179.9816c-1.98205,-12.62859 1.8505,-41.36972 3.39122,-44.93645c2.58157,-5.97626 8.89036,-5.56394 13.94329,-5.11509c2.96457,0.26334 -3.73877,23.71935 -9.73673,38.82053c-2.85496,7.18799 5.56085,23.22103 5.56085,23.22103c0,0 -11.17353,0.65812 -13.15864,-11.99002z" fill="#801d1d" stroke="url(#color-68)" stroke-width="0" stroke-linecap="butt"/><path d="M236.50621,193.50588c0,0 8.41582,-16.03304 5.56085,-23.22103c-5.99796,-15.10118 -12.7013,-38.55719 -9.73673,-38.82053c5.05294,-0.44884 11.36173,-0.86117 13.94329,5.11509c1.54072,3.56673 5.37327,32.30786 3.39122,44.93645c-1.98511,12.64813 -13.15864,11.99002 -13.15864,11.99002z" fill="#801d1d" stroke="url(#color-69)" stroke-width="0" stroke-linecap="butt"/><g stroke="#000000" stroke-width="0" stroke-linecap="butt"><path d="M260.88264,122.97418l-1.46081,-8.06732l1.90992,-0.34584l1.46081,8.06732z" fill="#2f323e"/><path d="M258.0202,114.75481c-1.2039,-1.30387 -2.29996,-6.65163 -2.29996,-6.65163l6.49484,-1.23828c0,0 0.67405,5.25256 0.31412,6.91064c-0.2427,1.11803 -1.39632,1.19403 -2.22539,1.34415c-0.61777,0.11186 -1.77387,0.18717 -2.2836,-0.36489z" fill="#2f323e"/><g><path d="M272.51114,99.3358c-0.75034,-1.5624 -1.63809,-2.29175 -2.22517,-3.48102c-0.55397,-1.1222 -0.81399,-2.72269 -1.29304,-3.57812c-1.1839,-2.11406 -2.16084,-3.5317 -2.42223,-4.99572c-0.16321,-0.91415 0.399,-2.56153 0.49677,-3.37339c0.10699,-0.88839 2.68778,-1.45899 4.38808,-0.9689c1.48031,0.42668 1.97496,1.73907 3.63643,3.30644c0.74327,0.70117 2.76104,2.31988 3.43344,3.22776c1.1152,1.50576 1.03812,2.61938 1.61148,4.26389c0.48039,1.37786 2.08325,3.24925 2.68467,4.84518c0.28069,0.74482 -0.3299,1.24823 -0.1515,1.94307c0.21537,0.83883 1.64065,3.35795 1.79365,4.12043c0.43447,2.16519 -0.19535,2.97321 -0.30425,4.3875c-0.12924,1.67856 1.43995,4.93318 1.00009,5.98586c-0.64258,1.53785 -3.18322,2.271 -4.13057,2.51423c-0.93006,0.23879 -1.99979,1.36933 -3.13738,0.50682c-0.88021,-0.66737 -1.90403,-2.5357 -2.79829,-4.60834c-0.53295,-1.23521 -0.97042,-1.18035 -1.4452,-2.70685c-0.28349,-0.91146 -0.60953,-3.25345 -0.89615,-4.36983c-0.48367,-1.88383 1.46563,-3.46573 -0.24082,-7.01902z" fill="#a3a3a3"/><path d="M268.49162,85.17289c0.72439,-0.3379 1.97932,0.81956 2.80295,2.58527c0.82364,1.76571 0.90409,3.47102 0.1797,3.80892c-0.72439,0.3379 -1.97932,-0.81956 -2.80296,-2.58527c-0.82364,-1.76571 -0.90409,-3.47102 -0.1797,-3.80893z" fill="#0d0d0d"/></g><path d="M269.51161,86.7998c0.47763,0.09038 0.99045,0.71066 1.21965,1.15031c0.16439,0.31535 0.40292,0.95393 0.33476,1.27744c-0.41534,1.97156 -4.78733,3.48777 -5.78918,1.56597c-0.93704,-1.79749 2.28202,-4.36321 4.23476,-3.99372z" fill="#2f323e"/><g><path d="M246.90877,111.71298c0.12304,1.146 0.63894,3.4536 0.69306,4.40659c0.09064,1.59606 -0.3383,1.69808 -0.40426,3.04175c-0.11069,2.25462 -0.41435,4.36333 -1.00466,5.29697c-0.76291,1.20665 -2.16116,0.523 -3.11589,0.62551c-0.97249,0.10441 -3.60889,0.30871 -4.74993,-0.90617c-0.78106,-0.83161 -0.45277,-4.42982 -1.1624,-5.95647c-0.59791,-1.2863 -1.47107,-1.82217 -1.82344,-4.00222c-0.12409,-0.76771 0.32735,-3.62667 0.2349,-4.48775c-0.07658,-0.71328 -0.82492,-0.97062 -0.82323,-1.76657c0.00361,-1.70549 0.84848,-4.02011 0.81521,-5.47893c-0.03971,-1.74115 -0.50239,-2.75702 0.014,-4.55823c0.31135,-1.08602 1.63338,-3.30949 2.08358,-4.22677c1.00636,-2.05046 1.0094,-3.45296 2.24611,-4.37164c1.42049,-1.0552 4.03749,-1.4258 4.44921,-0.63133c0.37626,0.72603 1.48044,2.07167 1.64813,2.98499c0.26858,1.46272 -0.14923,3.13291 -0.51665,5.52788c-0.14867,0.96909 0.16905,2.55913 0.04375,3.80434c-0.13278,1.31962 -0.70841,2.31396 -0.86324,4.04026c-0.35212,3.92604 2.02812,4.72396 2.23574,6.65778z" fill="#a3a3a3"/><path d="M244.63834,94.01218c-0.15218,1.94241 -0.92155,3.46643 -1.71844,3.40399c-0.79689,-0.06244 -1.31952,-1.68768 -1.16734,-3.63008c0.15218,-1.94241 0.92155,-3.46643 1.71844,-3.40399c0.79689,0.06244 1.31952,1.68768 1.16734,3.63008z" fill="#0d0d0d"/></g><path d="M248.45256,94.51856c-0.26433,2.15107 -4.8904,2.26421 -5.97071,0.56348c-0.17727,-0.27907 -0.17781,-0.96074 -0.13444,-1.31371c0.06048,-0.4921 0.32323,-1.25283 0.73884,-1.50495c1.69919,-1.03078 5.61353,0.24325 5.3663,2.25518z" fill="#2f323e"/><path d="M273.34431,107.45396c0.07041,0.38883 -6.33169,4.39667 -13.22801,5.64513c-6.88578,1.24655 -14.26569,-0.26568 -14.33599,-0.65391c-0.07006,-0.38691 7.19278,0.74525 14.05469,-0.49895c6.91927,-1.2546 13.43866,-4.88241 13.5093,-4.49226z" fill="#686e88"/><path d="M273.2087,107.27795c0.1953,1.07858 0.93871,13.29429 -11.46583,15.54047c-12.40454,2.24618 -16.0119,-10.07289 -16.20721,-11.15147c-0.1953,-1.07858 3.09541,9.49177 15.49995,7.24559c12.40454,-2.24618 11.97779,-12.71317 12.1731,-11.63459z" fill="#dadada"/><path d="M259.29619,117.40636l-1.38754,-7.66269l2.87653,-0.52087l1.38754,7.66269z" fill="#24262f"/><path d="M242.9342,103.4767c-1.49028,-8.23008 3.97341,-16.10997 12.20348,-17.60026c8.23007,-1.49028 16.10998,3.9734 17.60026,12.20348c1.49028,8.23007 -28.31345,13.62685 -29.80373,5.39678z" fill="#dadada"/><path d="M245.60052,101.58402c-0.64101,-3.53996 1.70906,-6.92929 5.24901,-7.5703c3.53996,-0.64101 6.9293,1.70905 7.5703,5.24901c0.64101,3.53996 -1.70906,6.92929 -5.24902,7.5703c-3.53996,0.64101 -6.92929,-1.70906 -7.5703,-5.24901z" fill="#000000"/><path d="M256.07553,99.94557c-0.64101,-3.53996 1.70905,-6.9293 5.24901,-7.5703c3.53996,-0.64101 6.92929,1.70906 7.5703,5.24901c0.64101,3.53996 -1.70905,6.92929 -5.24901,7.5703c-3.53996,0.64101 -6.92929,-1.70905 -7.5703,-5.24901z" fill="#000000"/><path d="M275.14088,99.40305c0.35636,2.12545 -3.2445,8.98532 -15.74997,11.24977c-12.50546,2.26446 -17.89166,-3.31799 -18.30434,-5.43323c-1.27889,-6.55497 4.4083,0.01822 16.91376,-2.24624c12.50546,-2.26446 15.99133,-10.42455 17.14055,-3.57031z" fill="#ababab"/><path d="M253.6536,105.34871c-1.01477,-5.60407 -0.48056,-19.1259 1.21541,-19.433c1.69597,-0.3071 7.26231,10.915 8.27708,16.51907c1.01477,5.60407 -8.47772,8.518 -9.49249,2.91394z" fill="#ababab"/><path d="M263.38724,101.72873c0.07505,0.41443 -1.34074,5.73239 -4.25904,6.26083c-2.9183,0.52844 -6.23403,-3.93274 -6.30908,-4.34718c-0.07505,-0.41443 10.49308,-2.32808 10.56812,-1.91365z" fill="#1d1d1d"/><g><path d="M264.12028,70.97629c0.33715,1.86189 -4.46228,4.2898 -10.71983,5.4229c-6.25754,1.1331 -11.60359,0.5423 -11.94074,-1.31958c-0.05576,-0.30797 -0.09054,-1.2418 0.90703,-1.63528c3.85376,-1.52009 15.05197,-3.47053 19.90669,-3.41615c1.48596,0.01664 1.7809,0.58395 1.84684,0.94811z" fill="#101010"/><path d="M264.05056,71.27123c0.72471,4.00221 1.38512,10.51996 -2.35582,13.96472c-2.65598,2.4457 -9.27031,2.44404 -11.86807,2.91443c-6.2567,1.13295 -7.1944,-5.9327 -8.43364,-12.77639c-0.44612,-2.46368 1.79893,-0.51966 5.43251,-1.89011c3.04241,-1.14748 7.67434,-0.59748 10.66826,-1.82108c3.36302,-1.37445 6.13717,-2.70874 6.55676,-0.39158z" fill="#0d0d0d"/></g><g><path d="M269.36998,82.78975c0.07901,0.43631 -6.27106,1.95145 -14.18326,3.38417c-7.9122,1.43272 -14.39035,2.24048 -14.46936,1.80417c-0.07901,-0.43631 6.27106,-1.95145 14.18326,-3.38417c7.9122,-1.43272 14.39035,-2.24048 14.46936,-1.80417z" fill="#101010"/><path d="M269.23083,82.8811c0.16983,0.93785 -0.19387,2.55907 -5.42382,4.15457c-3.71314,1.13277 -11.85986,2.32691 -15.14455,2.9217c-7.91115,1.43253 -7.79003,-0.28491 -8.08043,-1.88862c-0.10454,-0.57732 3.48716,-0.24213 8.21025,-1.26433c3.95466,-0.8559 9.10184,-1.33076 13.01052,-2.19822c4.39055,-0.97441 7.3297,-2.26809 7.42803,-1.7251z" fill="#0d0d0d"/></g><path d="M265.05753,81.20183c0.06408,0.35385 0.53199,1.41079 -0.28422,1.85733c-0.69131,0.3782 -1.87598,0.53806 -3.25067,0.91063c-1.40931,0.38195 -3.02055,0.97512 -4.68859,1.24054c-0.84217,0.134 -1.54955,-0.15201 -2.39269,0.00067c-1.27257,0.23043 -2.71407,0.77416 -4.18184,0.96997c-1.27471,0.17005 -2.58429,-0.0054 -3.63266,0.1597c-1.30221,0.20507 -2.03729,0.59988 -2.79745,0.53797c-1.28174,-0.10438 -0.65885,-1.27373 -0.73597,-1.6996c-0.06466,-0.35707 -0.72234,-1.58212 0.10831,-2.03317c0.76956,-0.41787 2.12642,-1.0787 3.80747,-1.28009c1.22515,-0.14677 2.65941,0.15431 3.98253,-0.03086c1.026,-0.14359 1.70173,-0.48104 2.71786,-0.66504c1.01797,-0.18433 2.05887,-0.0925 3.14827,-0.38121c1.28243,-0.33986 2.52179,-1.06291 3.70239,-1.44186c1.65802,-0.53219 3.14914,-0.6675 4.03424,-0.57657c1.13916,0.11703 0.39085,2.03308 0.46301,2.4316z" fill="#801d1d"/></g><path d="M244.90777,201.10092c2.8617,-1.9739 29.52916,-3.4652 32.78655,0.39922c2.60447,3.08982 5.97855,37.97688 2.29746,45.38778c-2.9444,5.92776 -18.18184,-0.18534 -18.18184,-0.18534c0,0 0.31406,-27.16911 -1.32738,-27.16999c-1.60699,-0.00086 -1.64086,27.24799 -1.64086,27.24799c0,0 -16.91888,-1.77777 -18.88997,-1.66337c-3.99052,0.23162 0.31244,-40.81332 4.95603,-44.0163z" fill="#0d0d0d" stroke="url(#color-70)" stroke-width="0" stroke-linecap="butt"/><path d="M243.11662,205.62798c0,-2.3117 1.874,-4.1857 4.1857,-4.1857c2.3117,0 4.1857,1.874 4.1857,4.1857c0,2.3117 -1.874,4.1857 -4.1857,4.1857c-2.3117,0 -4.1857,-1.874 -4.1857,-4.1857z" fill="#e1f194" stroke="url(#color-71)" stroke-width="0" stroke-linecap="butt"/><path d="M269.90511,205.62798c0,-2.3117 1.874,-4.1857 4.1857,-4.1857c2.3117,0 4.1857,1.874 4.1857,4.1857c0,2.3117 -1.874,4.1857 -4.1857,4.1857c-2.3117,0 -4.1857,-1.874 -4.1857,-4.1857z" fill="#e1f194" stroke="url(#color-72)" stroke-width="0" stroke-linecap="butt"/><path d="M262.98383,283.45461c0,-3.45307 1.00098,-8.01046 1.00098,-8.01046c0,0 11.37938,-6.32239 16.12234,-6.32239c8.19602,0 14.84021,6.64419 14.84021,14.84021c0,8.19602 -31.96353,7.68867 -31.96353,-0.50736z" fill="#272727" stroke="url(#color-73)" stroke-width="0" stroke-linecap="butt"/><path d="M224.93165,284.08881c0,-8.19602 6.64419,-14.84021 14.84021,-14.84021c4.74295,0 16.12234,6.32239 16.12234,6.32239c0,0 1.00098,4.55739 1.00098,8.01046c0,8.19602 -31.96353,8.70338 -31.96353,0.50736z" fill="#272727" stroke="url(#color-74)" stroke-width="0" stroke-linecap="butt"/><g fill="none" stroke-width="3.25" stroke-linecap="round"><path d="M498.82603,246.05029c0,0 -6.74886,0.12163 -9.41982,0.16976c-1.97677,0.03563 -1.70457,-0.90329 0.36277,-1.4994c1.73152,-0.49928 5.0722,-1.46256 7.17657,-2.06935c1.11324,-0.321 0.59332,-0.54224 -0.40262,-0.54224c-1.88529,0 -8.18114,0 -8.18114,0" stroke="url(#color-75)"/><path d="M498.82603,249.7534c0,0 -6.74886,0.12163 -9.41982,0.16976c-1.97677,0.03563 -1.70457,-0.90329 0.36277,-1.4994c2.64752,-0.76341 9.05706,-2.61159 9.05706,-2.61159" stroke="url(#color-76)"/><path d="M498.82603,253.91939c0,0 -6.74886,0.12163 -9.41982,0.16976c-1.97677,0.03563 -1.70457,-0.90329 0.36277,-1.4994c2.64752,-0.76341 9.05706,-2.61159 9.05706,-2.61159" stroke="url(#color-77)"/><path d="M498.82603,257.6225c0,0 -6.74886,0.12163 -9.41982,0.16976c-1.97677,0.03563 -1.70457,-0.90329 0.36277,-1.4994c2.64752,-0.76341 9.05706,-2.61159 9.05706,-2.61159" stroke="url(#color-78)"/><path d="M498.82603,261.9428c0,0 -6.74886,0.12163 -9.41982,0.16976c-1.97677,0.03563 -1.70457,-0.90329 0.36277,-1.4994c2.64752,-0.76341 9.05706,-2.61159 9.05706,-2.61159" stroke="url(#color-79)"/><path d="M498.82603,265.64591c0,0 -6.74886,0.12163 -9.41982,0.16976c-1.97677,0.03563 -1.70457,-0.90329 0.36277,-1.4994c2.64752,-0.76341 9.05706,-2.61159 9.05706,-2.61159" stroke="url(#color-80)"/><path d="M498.82603,269.81191c0,0 -6.74886,0.12163 -9.41982,0.16976c-1.97677,0.03563 -1.70457,-0.90329 0.36277,-1.4994c2.64752,-0.76341 9.05706,-2.61159 9.05706,-2.61159" stroke="url(#color-81)"/><path d="M498.82603,273.51501c0,0 -6.74886,0.12163 -9.41982,0.16976c-1.97677,0.03563 -1.70457,-0.90329 0.36277,-1.4994c2.64752,-0.76341 9.05706,-2.61159 9.05706,-2.61159" stroke="url(#color-82)"/></g><g fill="none" stroke-width="3.25" stroke-linecap="round"><path d="M521.12875,242.26336c0,0 -6.29585,0 -8.18114,0c-0.99594,0 -1.51586,0.22124 -0.40262,0.54224c2.10437,0.60679 5.44505,1.57007 7.17657,2.06935c2.06734,0.59611 2.33954,1.53503 0.36277,1.4994c-2.67096,-0.04813 -9.41982,-0.16976 -9.41982,-0.16976" stroke="url(#color-83)"/><path d="M510.66451,245.96647c0,0 6.40954,1.84818 9.05706,2.61159c2.06733,0.59611 2.33954,1.53502 0.36277,1.4994c-2.67096,-0.04813 -9.41982,-0.16976 -9.41982,-0.16976" stroke="url(#color-84)"/><path d="M510.66451,250.13247c0,0 6.40954,1.84818 9.05706,2.61159c2.06733,0.59611 2.33954,1.53502 0.36277,1.4994c-2.67096,-0.04813 -9.41982,-0.16976 -9.41982,-0.16976" stroke="url(#color-85)"/><path d="M510.66451,253.83558c0,0 6.40954,1.84818 9.05706,2.61159c2.06733,0.59611 2.33954,1.53502 0.36277,1.4994c-2.67096,-0.04813 -9.41982,-0.16976 -9.41982,-0.16976" stroke="url(#color-86)"/><path d="M510.66451,258.15587c0,0 6.40954,1.84818 9.05706,2.61159c2.06733,0.59611 2.33954,1.53502 0.36277,1.4994c-2.67096,-0.04813 -9.41982,-0.16976 -9.41982,-0.16976" stroke="url(#color-87)"/><path d="M510.66451,261.85897c0,0 6.40954,1.84818 9.05706,2.61159c2.06733,0.59611 2.33954,1.53502 0.36277,1.4994c-2.67096,-0.04813 -9.41982,-0.16976 -9.41982,-0.16976" stroke="url(#color-88)"/><path d="M510.66451,266.02497c0,0 6.40954,1.84818 9.05706,2.61159c2.06733,0.59611 2.33954,1.53502 0.36277,1.4994c-2.67096,-0.04813 -9.41982,-0.16976 -9.41982,-0.16976" stroke="url(#color-89)"/><path d="M510.66451,269.72808c0,0 6.40954,1.84818 9.05706,2.61159c2.06733,0.59611 2.33954,1.53502 0.36277,1.4994c-2.67096,-0.04813 -9.41982,-0.16976 -9.41982,-0.16976" stroke="url(#color-90)"/></g><path d="M529.37051,191.79769c0,0.616 -6.98232,0.56493 -14.06476,-2.2998c-3.25203,-1.31539 -4.56083,-6.69936 -8.72036,-6.69936c-4.7144,0 -4.92241,5.23462 -8.65884,7.00189c-6.73986,3.18784 -15.46658,3.72437 -15.46658,3.1461c0,-0.89885 9.75824,-30.82693 22.97659,-30.82693c13.21836,0 23.93395,28.77925 23.93395,29.6781z" fill="#4c1212" stroke="url(#color-91)" stroke-width="0" stroke-linecap="butt"/><path d="M533.96584,130.309c0,0.66092 -11.43269,10.57881 -27.18897,10.57881c-15.75628,0 -28.62501,-8.48185 -28.62501,-9.14277c0,-0.32628 13.9859,1.07324 27.7608,0.7147c14.12762,-0.36772 28.05317,-2.48537 28.05317,-2.15074z" fill="#4c1212" stroke="url(#color-92)" stroke-width="0" stroke-linecap="butt"/><g fill="none" stroke-width="3.25" stroke-linecap="round"><path d="M509.70031,144.32348c0,0 -4.19166,0.26981 -5.85057,0.37659c-1.22776,0.07903 -1.05869,-2.0038 0.22531,-3.32616c1.07543,-1.10757 3.1503,-3.24444 4.4573,-4.5905c0.69142,-0.71208 0.36851,-1.20286 -0.25007,-1.20286c-1.17094,0 -5.08123,0 -5.08123,0" stroke="url(#color-93)"/><path d="M509.70031,152.53819c0,0 -4.19166,0.26981 -5.85057,0.37659c-1.22776,0.07902 -1.05869,-2.0038 0.22531,-3.32616c1.64435,-1.69349 5.62526,-5.79336 5.62526,-5.79336" stroke="url(#color-94)"/><path d="M509.70031,161.77973c0,0 -4.19166,0.26981 -5.85057,0.37659c-1.22776,0.07902 -1.05869,-2.0038 0.22531,-3.32616c1.64435,-1.69349 5.62526,-5.79336 5.62526,-5.79336" stroke="url(#color-95)"/><path d="M509.70031,169.99444c0,0 -4.19166,0.26981 -5.85057,0.37659c-1.22776,0.07902 -1.05869,-2.0038 0.22531,-3.32616c1.64435,-1.69349 5.62526,-5.79336 5.62526,-5.79336" stroke="url(#color-96)"/><path d="M509.70031,179.57826c0,0 -4.19166,0.26981 -5.85057,0.37659c-1.22776,0.07902 -1.05869,-2.0038 0.22531,-3.32616c1.64435,-1.69349 5.62526,-5.79336 5.62526,-5.79336" stroke="url(#color-97)"/><path d="M509.70031,187.79296c0,0 -4.19166,0.26981 -5.85057,0.37659c-1.22776,0.07902 -1.05869,-2.0038 0.22531,-3.32616c1.64435,-1.69349 5.62526,-5.79336 5.62526,-5.79336" stroke="url(#color-98)"/><path d="M509.70031,197.0345c0,0 -4.19166,0.26981 -5.85057,0.37659c-1.22776,0.07902 -1.05869,-2.0038 0.22531,-3.32616c1.64435,-1.69349 5.62526,-5.79336 5.62526,-5.79336" stroke="url(#color-99)"/><path d="M509.70031,205.24921c0,0 -4.19166,0.26981 -5.85057,0.37659c-1.22776,0.07902 -1.05869,-2.0038 0.22531,-3.32616c1.64435,-1.69349 5.62526,-5.79336 5.62526,-5.79336" stroke="url(#color-100)"/></g><path d="M491.48242,147.28667c0,-3.09286 -6.73808,-9.22742 -5.94313,-10.66313c1.00199,-1.80963 9.74474,1.47869 11.68917,1.21988c2.36969,-0.31541 5.30652,0.07287 8.48701,0.07287c3.32671,0 6.55731,-0.30905 9.17732,0.22446c1.56505,0.31869 9.70947,-2.02978 10.72912,-0.86434c1.3068,1.49365 -4.72163,6.85211 -4.72163,10.65648c0,6.31599 0.30359,20.28267 -2.8782,27.18355c-2.73353,5.92866 -8.6741,5.32196 -12.30661,5.32196c-3.05288,0 -10.03437,-1.16133 -12.35217,-5.7994c-3.65017,-7.30426 -1.88089,-20.17051 -1.88089,-27.35234z" fill="#dadada" stroke="#000000" stroke-width="0" stroke-linecap="butt"/><path d="M492.61598,158.26662c0,-8.76227 5.83138,-15.8655 13.02475,-15.8655c7.19337,0 13.02475,7.10323 13.02475,15.8655c0,8.76227 -5.83138,15.8655 -13.02475,15.8655c-7.19337,0 -13.02475,-7.10323 -13.02475,-15.8655z" fill="#ababab" stroke="url(#color-101)" stroke-width="0" stroke-linecap="butt"/><path d="M517.05592,179.9816c-1.98205,-12.62859 1.8505,-41.36972 3.39122,-44.93645c2.58157,-5.97626 8.89036,-5.56394 13.94329,-5.11509c2.96457,0.26334 -3.73877,23.71935 -9.73673,38.82053c-2.85496,7.18799 5.56085,23.22103 5.56085,23.22103c0,0 -11.17353,0.65812 -13.15864,-11.99002z" fill="#801d1d" stroke="url(#color-102)" stroke-width="0" stroke-linecap="butt"/><path d="M481.50621,193.50588c0,0 8.41582,-16.03304 5.56085,-23.22103c-5.99796,-15.10118 -12.7013,-38.55719 -9.73673,-38.82053c5.05294,-0.44884 11.36173,-0.86117 13.94329,5.11509c1.54072,3.56673 5.37327,32.30786 3.39122,44.93645c-1.98511,12.64813 -13.15864,11.99002 -13.15864,11.99002z" fill="#801d1d" stroke="url(#color-103)" stroke-width="0" stroke-linecap="butt"/><g stroke="#000000" stroke-width="0" stroke-linecap="butt"><path d="M499.40804,139.46695l-3.22729,-7.53659l1.78427,-0.76405l3.22729,7.53659z" fill="#2f323e"/><path d="M494.78061,132.09549c-1.46491,-1.00174 -3.72872,-5.96914 -3.72872,-5.96914l6.05366,-2.65886c0,0 1.8312,4.96895 1.85104,6.66553c0.01338,1.14399 -1.09406,1.47596 -1.86859,1.80762c-0.57713,0.24713 -1.68714,0.57898 -2.30738,0.15484z" fill="#2f323e"/><g><path d="M505.45791,113.82725c-1.08062,-1.35512 -2.10895,-1.86756 -2.94704,-2.89549c-0.79082,-0.96996 -1.40205,-2.47182 -2.0602,-3.19851c-1.62654,-1.7959 -2.89566,-2.95927 -3.47772,-4.3278c-0.36344,-0.85453 -0.18373,-2.5859 -0.26992,-3.39907c-0.09432,-0.88982 2.2936,-2.02292 4.06043,-1.92533c1.53823,0.08496 2.31375,1.25356 4.28355,2.40984c0.88121,0.51727 3.20977,1.64394 4.06811,2.37853c1.42359,1.21835 1.59741,2.32102 2.52389,3.79574c0.77625,1.2356 2.7569,2.70131 3.69987,4.1224c0.44009,0.66322 -0.04251,1.29039 0.28671,1.92776c0.39744,0.76946 2.3498,2.9062 2.66938,3.61518c0.9075,2.01327 0.47425,2.94164 0.68427,4.34448c0.24927,1.66497 2.50632,4.48643 2.31292,5.6108c-0.28253,1.64258 -2.59498,2.92513 -3.46398,3.37399c-0.85314,0.44066 -1.64307,1.78173 -2.94468,1.19535c-1.00712,-0.45371 -2.4227,-2.04588 -3.75766,-3.86616c-0.79559,-1.08481 -1.20973,-0.93354 -2.01374,-2.31527c-0.48007,-0.82502 -1.32141,-3.03485 -1.85034,-4.05891c-0.89256,-1.72803 0.65378,-3.70566 -1.80382,-6.78755z" fill="#a3a3a3"/><path d="M498.374,100.92133c0.63052,-0.49129 2.11244,0.35634 3.30995,1.89325c1.19752,1.5369 1.65715,3.18107 1.02663,3.67235c-0.63052,0.49129 -2.11244,-0.35634 -3.30996,-1.89324c-1.19752,-1.5369 -1.65715,-3.18107 -1.02664,-3.67236z" fill="#0d0d0d"/></g><path d="M499.73187,102.27905c0.48575,-0.01868 1.12425,0.47126 1.44593,0.84855c0.23073,0.27062 0.60597,0.83972 0.61186,1.17028c0.03591,2.01451 -3.88649,4.46971 -5.2926,2.82051c-1.31515,-1.54253 1.24888,-4.76293 3.2348,-4.83933z" fill="#2f323e"/><g><path d="M483.27038,131.61459c0.37611,1.08949 1.39482,3.22336 1.66061,4.14014c0.44514,1.53541 0.04987,1.73073 0.28595,3.05514c0.39613,2.22231 0.57156,4.34553 0.2049,5.38751c-0.47386,1.34666 -1.98955,0.99289 -2.8972,1.30624c-0.92454,0.31917 -3.44855,1.10766 -4.8323,0.17861c-0.9472,-0.63596 -1.4316,-4.2165 -2.46455,-5.54587c-0.87033,-1.12008 -1.84119,-1.4472 -2.67199,-3.49331c-0.29257,-0.72054 -0.49167,-3.60807 -0.77428,-4.42669c-0.2341,-0.67811 -1.02102,-0.76165 -1.19731,-1.53783c-0.37774,-1.66314 -0.07169,-4.10805 -0.43023,-5.52251c-0.42794,-1.68821 -1.10601,-2.57494 -1.00534,-4.446c0.06069,-1.12814 0.85221,-3.59088 1.08596,-4.58558c0.52251,-2.22354 0.21195,-3.59123 1.21199,-4.76312c1.14865,-1.34605 3.61657,-2.2923 4.19548,-1.60997c0.52904,0.62354 1.90609,1.68829 2.27371,2.54101c0.58877,1.36566 0.55491,3.08698 0.73218,5.50348c0.07173,0.9778 0.73686,2.45657 0.8931,3.69828c0.16558,1.31591 -0.1732,2.41376 0.0618,4.13099c0.53446,3.9054 3.03283,4.15102 3.6675,5.98949z" fill="#a3a3a3"/><path d="M477.1004,114.86931c0.2859,1.92727 -0.12331,3.58472 -0.91399,3.702c-0.79068,0.11728 -1.66341,-1.34999 -1.9493,-3.27725c-0.2859,-1.92727 0.12331,-3.58472 0.91399,-3.702c0.79068,-0.11728 1.66341,1.34999 1.9493,3.27725z" fill="#0d0d0d"/></g><path d="M480.9313,114.5102c0.22323,2.15572 -4.26047,3.30015 -5.69364,1.88397c-0.23517,-0.23238 -0.38808,-0.89668 -0.42472,-1.25041c-0.05106,-0.49317 0.03498,-1.29338 0.38371,-1.63203c1.42576,-1.38455 5.52584,-1.01781 5.73464,0.99847z" fill="#2f323e"/><path d="M508.0848,121.55371c0.15555,0.36325 -5.18858,5.70085 -11.63128,8.45938c-6.43285,2.75431 -13.96406,2.93013 -14.11936,2.56744c-0.15478,-0.36146 7.17735,-0.88155 13.58746,-3.62824c6.4637,-2.76965 12.0071,-7.76305 12.16317,-7.39857z" fill="#686e88"/><path d="M507.91328,121.41247c0.43147,1.00762 3.88688,12.748 -7.7016,17.71036c-11.58848,4.96236 -17.85847,-6.23852 -18.28995,-7.24614c-0.43147,-1.00762 5.13895,8.55958 16.72743,3.59722c11.58848,-4.96236 8.83264,-15.06906 9.26413,-14.06144z" fill="#dadada"/><path d="M496.61706,134.39469l-3.06541,-7.15858l2.68729,-1.15073l3.06541,7.15858z" fill="#24262f"/><path d="M477.55518,124.47526c-3.29239,-7.68865 0.27148,-16.59052 7.96011,-19.88292c7.68864,-3.29239 16.59053,0.27147 19.88292,7.96011c3.29239,7.68864 -24.55064,19.61144 -27.84303,11.92281z" fill="#dadada"/><path d="M479.73091,122.03443c-1.41614,-3.30708 0.11677,-7.13599 3.42384,-8.55213c3.30708,-1.41614 7.13599,0.11676 8.55213,3.42384c1.41614,3.30708 -0.11677,7.13599 -3.42385,8.55213c-3.30708,1.41614 -7.13599,-0.11677 -8.55213,-3.42384z" fill="#000000"/><path d="M489.57456,118.09576c-1.41614,-3.30708 0.11676,-7.13599 3.42384,-8.55213c3.30708,-1.41614 7.13599,0.11677 8.55213,3.42384c1.41614,3.30708 -0.11676,7.13598 -3.42384,8.55213c-3.30708,1.41614 -7.13598,-0.11676 -8.55213,-3.42384z" fill="#000000"/><path d="M508.03613,113.30492c0.82248,1.992 -1.15373,9.48323 -12.8365,14.48596c-11.68276,5.00274 -18.1806,0.76565 -19.0557,-1.20381c-2.71188,-6.10319 4.30081,-0.96771 15.98357,-5.97045c11.68276,-5.00274 13.25623,-13.73558 15.90863,-7.31171z" fill="#ababab"/><path d="M488.42179,123.90358c-2.24188,-5.23539 -4.74398,-18.53444 -3.15958,-19.21291c1.5844,-0.67846 9.51856,9.01528 11.76044,14.25068c2.24188,5.23539 -6.35898,10.19762 -8.60085,4.96224z" fill="#ababab"/><path d="M497.09985,118.19927c0.1658,0.38716 -0.02534,5.88704 -2.75165,7.05449c-2.72631,1.16745 -6.95542,-2.4396 -7.12122,-2.82677c-0.1658,-0.38716 9.70709,-4.61488 9.87287,-4.22772z" fill="#1d1d1d"/><g><path d="M490.93965,88.06122c0.74484,1.7394 -3.39037,5.17878 -9.23625,7.68207c-5.84587,2.50329 -11.1887,3.12255 -11.93354,1.38316c-0.1232,-0.28771 -0.36585,-1.19013 0.51851,-1.79666c3.41642,-2.34313 13.89521,-6.74756 18.63923,-7.77982c1.45207,-0.31597 1.86637,0.17105 2.01205,0.51126z" fill="#101010"/><path d="M490.93763,88.36428c1.60106,3.73892 3.7018,9.94408 0.8256,14.13795c-2.04203,2.97755 -8.48934,4.45456 -10.9162,5.49377c-5.84509,2.50296 -8.33858,-4.17426 -11.07636,-10.56772c-0.98558,-2.3016 1.63723,-0.90866 4.87249,-3.05671c2.7089,-1.79857 7.34656,-2.29795 9.99117,-4.15988c2.97065,-2.09147 5.37632,-4.01215 6.30329,-1.84743z" fill="#0d0d0d"/></g><g><path d="M498.69738,98.40214c0.17455,0.40761 -5.67611,3.30396 -13.06779,6.46918c-7.39168,3.16523 -13.52531,5.40073 -13.69986,4.99313c-0.17455,-0.40761 5.67611,-3.30396 13.06779,-6.46918c7.39168,-3.16523 13.52531,-5.40073 13.69986,-4.99313z" fill="#101010"/><path d="M498.58218,98.52229c0.37519,0.87615 0.38311,2.53765 -4.35781,5.26192c-3.36594,1.93417 -11.03954,4.91929 -14.10814,6.23331c-7.3907,3.16481 -7.65658,1.46376 -8.29814,-0.03445c-0.23095,-0.53934 3.34478,-1.01555 7.71983,-3.06773c3.66324,-1.7183 8.57401,-3.33179 12.18985,-5.05108c4.06161,-1.93125 6.63717,-3.84924 6.8544,-3.34197z" fill="#0d0d0d"/></g><path d="M494.13909,97.81846c0.14156,0.33057 0.83391,1.25616 0.13818,1.87386c-0.58927,0.52317 -1.70822,0.94382 -2.96483,1.61427c-1.28826,0.68733 -2.72612,1.62568 -4.29261,2.25728c-0.7909,0.31888 -1.54432,0.19824 -2.33199,0.53554c-1.18885,0.50908 -2.47232,1.3613 -3.85917,1.88027c-1.20444,0.45071 -2.5201,0.57245 -3.50503,0.96774c-1.22341,0.49099 -1.85163,1.04013 -2.60639,1.14972c-1.27264,0.18479 -0.92692,-1.09421 -1.09729,-1.49206c-0.14285,-0.33358 -1.05774,-1.3806 -0.34894,-2.00593c0.65667,-0.57933 1.83146,-1.52676 3.42495,-2.09885c1.16133,-0.41694 2.6266,-0.4441 3.87484,-0.92037c0.96794,-0.36932 1.55113,-0.84929 2.50041,-1.25579c0.951,-0.40723 1.98609,-0.55042 2.98338,-1.07536c1.174,-0.61795 2.22036,-1.59976 3.28637,-2.23304c1.49709,-0.88937 2.92022,-1.3546 3.80325,-1.46383c1.13649,-0.14059 0.83545,1.89425 0.99488,2.26656z" fill="#801d1d"/></g><path d="M489.90777,201.10092c2.8617,-1.9739 29.52916,-3.4652 32.78655,0.39922c2.60447,3.08982 5.97855,37.97688 2.29746,45.38778c-2.9444,5.92776 -18.18184,-0.18534 -18.18184,-0.18534c0,0 0.31406,-27.16911 -1.32738,-27.16999c-1.60699,-0.00086 -1.64086,27.24799 -1.64086,27.24799c0,0 -16.91888,-1.77777 -18.88997,-1.66337c-3.99052,0.23162 0.31244,-40.81332 4.95603,-44.0163z" fill="#0d0d0d" stroke="url(#color-104)" stroke-width="0" stroke-linecap="butt"/><path d="M488.11662,205.62798c0,-2.3117 1.874,-4.1857 4.1857,-4.1857c2.3117,0 4.1857,1.874 4.1857,4.1857c0,2.3117 -1.874,4.1857 -4.1857,4.1857c-2.3117,0 -4.1857,-1.874 -4.1857,-4.1857z" fill="#e1f194" stroke="url(#color-105)" stroke-width="0" stroke-linecap="butt"/><path d="M514.90511,205.62798c0,-2.3117 1.874,-4.1857 4.1857,-4.1857c2.3117,0 4.1857,1.874 4.1857,4.1857c0,2.3117 -1.874,4.1857 -4.1857,4.1857c-2.3117,0 -4.1857,-1.874 -4.1857,-4.1857z" fill="#e1f194" stroke="url(#color-106)" stroke-width="0" stroke-linecap="butt"/><path d="M507.70884,277.73978c0,-3.45307 1.00098,-8.01046 1.00098,-8.01046c0,0 11.37938,-6.32239 16.12234,-6.32239c8.19602,0 14.84021,6.64419 14.84021,14.84021c0,8.19602 -31.96353,7.68867 -31.96353,-0.50736z" fill="#272727" stroke="url(#color-107)" stroke-width="0" stroke-linecap="butt"/><path d="M469.65666,278.37398c0,-8.19602 6.64419,-14.84021 14.84021,-14.84021c4.74295,0 16.12234,6.32239 16.12234,6.32239c0,0 1.00098,4.55739 1.00098,8.01046c0,8.19602 -31.96353,8.70338 -31.96353,0.50736z" fill="#272727" stroke="url(#color-108)" stroke-width="0" stroke-linecap="butt"/></g></g></svg>