<svg version="1.1" xmlns="http://www.w3.org/2000/svg" xmlns:xlink="http://www.w3.org/1999/xlink" width="73.81087" height="118.3328" viewBox="0,0,73.81087,118.3328"><g transform="translate(-323.09456,-120.8336)"><g data-paper-data="{&quot;isPaintingLayer&quot;:true}" fill-rule="nonzero" stroke="none" stroke-width="0" stroke-linecap="butt" stroke-linejoin="miter" stroke-miterlimit="10" stroke-dasharray="" stroke-dashoffset="0" style="mix-blend-mode: normal"><g><path d="M330.86478,131.31836c-3.2174,1.883 -5.89888,4.93414 -7.38669,2.39199c-0.24989,-0.42696 -0.36756,-0.94574 -0.38353,-1.52571c1.50457,-0.94971 2.18129,-2.66828 1.50368,-4.50086c0.19389,0.15525 0.40349,0.2584 0.56835,0.21981c0.93579,-0.21904 0.56534,-2.29114 1.12571,-2.82792c0.34196,-0.32755 1.21095,0.22538 1.57426,0.15431c0.92766,-0.18147 1.36838,-2.40144 1.71147,-3.19594c0.17629,-0.40823 0.35446,-0.80642 0.52872,-1.20044c1.54053,0.11044 3.08698,1.10067 3.88974,2.47231c1.48781,2.54215 0.08569,6.12944 -3.13171,8.01244z" fill="#6d5946"/><path d="M369.23522,218.04574l-40.3444,-75.582l9.39437,-5.01455l40.3444,75.58197z" fill="#878787"/><path d="M352.86627,226.78323c-6.08441,-11.39869 -1.77635,-25.57157 9.62233,-31.65599c11.39869,-6.08442 25.57155,-1.77637 31.65597,9.62231c6.08442,11.39869 1.77636,25.57157 -9.62232,31.65599c-11.39869,6.08442 -25.57154,1.77636 -31.65598,-9.62232z" fill="#ab8b6d"/><path d="M337.3127,141.97453l0.83138,-0.49517l14.32967,25.96903c-0.274,0.17054 -0.54781,0.34159 -0.82143,0.51318z" fill="#363636"/><path d="M355.50616,225.37409c-5.30619,-9.9407 -1.54914,-22.30077 8.39156,-27.60697c9.9407,-5.30619 22.30076,-1.54914 27.60695,8.39156c5.30619,9.9407 1.54915,22.30077 -8.39155,27.60695c-9.94071,5.3062 -22.30078,1.54915 -27.60697,-8.39155z" fill="#846b54"/><path d="M362.74095,198.43325c-0.35093,1.33489 -0.47485,2.93738 -0.55257,4.0326c-0.01369,0.19278 -0.12275,1.42555 0.09141,1.53278c0.28956,0.14499 1.16123,-0.26436 1.47938,-0.36656c1.13369,-0.37369 4.47698,-2.15933 5.55725,-1.87437c0.94914,0.25038 0.98181,2.81164 1.21722,3.6095c0.28609,0.49836 0.05046,1.30671 0.65708,1.69432c2.3752,1.5177 5.78046,-1.25305 6.26551,2.20436c-0.06291,1.0376 -1.16253,4.51216 0.29807,4.95515c1.14029,0.34584 4.02537,-1.61101 5.06652,-2.12452c3.11741,-1.53754 6.2748,-2.92598 9.32122,-4.60293c0.00399,-0.00219 0.00797,-0.00439 0.01195,-0.00658c4.31351,9.68871 0.46149,21.20644 -9.04087,26.27862c-2.59864,1.38711 -5.36262,2.15487 -8.12269,2.35471c-0.11339,-1.57495 -1.07968,-4.32512 -2.54176,-5.1938c-1.60751,-0.95508 -0.43178,1.91472 -1.28674,0.6097c0.09076,-2.00218 -0.57395,-5.40076 -3.42957,-5.28931c-1.08668,0.04242 -1.44805,1.0837 -2.18797,0.20005c-0.37511,-0.64356 -1.00119,-1.38614 -1.22956,-2.09105c-0.20871,-0.64423 0.22789,-1.86955 -0.07335,-2.39812c-0.48109,-0.84415 -1.50181,0.49636 -2.21288,-0.11957c-0.49963,-0.43279 -0.84898,-2.03436 -1.12069,-2.66526c-1.35877,-3.1551 -3.2152,0.22194 -5.3903,1.10084l-0.30185,-0.25009c-0.07871,-0.06838 -0.19527,-0.08256 -0.29026,-0.02697c-0.08148,0.04769 -0.12598,0.13434 -0.12368,0.22249l0.00312,0.40858c-0.13804,0.56287 -0.33184,1.18103 -0.59897,1.76701c-3.06978,-8.90251 0.39077,-18.91474 8.53498,-23.96158z" fill="#878787"/><path d="M373.68335,223.53991l-42.39747,-79.42827l0.85404,-0.45586l42.39747,79.42827z" fill="#363636"/><path d="M377.49967,223.24936l-42.39745,-79.42828l0.85402,-0.45586l42.39747,79.42828z" fill="#363636"/><path d="M380.1439,221.15449c0,0 -16.61791,-31.13233 -19.52134,-36.57167c-0.83375,-1.56196 2.00024,-3.77674 2.00024,-3.77674c0.2795,-0.16186 0.71708,0.93654 0.99721,0.77623c0,0 -2.82235,1.27269 -1.85125,3.09197c3.07601,5.76266 19.22919,36.02433 19.22919,36.02433z" fill="#363636"/><path d="M373.20274,227.42422l-2.50729,-4.69718l11.10244,-5.92629l2.50729,4.69718z" fill="#979797"/><path d="M334.92103,124.97915c1.24295,2.32856 1.41553,1.60866 1.99537,4.73487c0.37182,2.00463 3.14708,4.19499 3.64729,6.57073c0.66849,3.17502 -3.57429,7.34298 -5.40801,8.32179c-4.98435,2.66057 -9.85199,-3.38079 -10.06182,-3.77391c-0.64295,-1.20453 -0.78833,-2.98197 -1.43781,-4.70095c0.56509,-1.15797 -1.08787,-2.45998 -0.29127,-3.75012c0.1578,-0.25557 0.66321,-0.01055 0.87219,-0.22629c0.18868,-0.19477 -0.07626,-1.3231 0.10743,-1.369c0.25237,-0.06306 0.49571,0.15601 0.74956,0.21713l0.34636,0.28719c0.07871,0.06843 0.19533,0.08264 0.29034,0.02703c0.11776,-0.06892 0.15826,-0.21928 0.0919,-0.33782l-0.12815,-0.23058c-0.04834,-0.89386 0.13378,-2.22306 0.84406,-2.55659c0.58038,-0.27254 0.73514,0.52574 1.44977,0.16565c1.04987,-0.52901 2.18731,-3.32992 2.72126,-4.35838c0.44795,-0.86336 0.84927,-1.72319 1.21666,-2.58631c1.01788,0.54084 1.97707,1.65877 2.99488,3.56556z" fill="#ab8b6d"/></g></g></g></svg>