<svg version="1.1" xmlns="http://www.w3.org/2000/svg" xmlns:xlink="http://www.w3.org/1999/xlink" width="735.01499" height="448" viewBox="0,0,735.01499,448"><defs><linearGradient x1="146" y1="180" x2="574.00001" y2="180" gradientUnits="userSpaceOnUse" id="color-1"><stop offset="0" stop-color="#484c5e"/><stop offset="1" stop-color="#212d30"/></linearGradient><radialGradient cx="203.37405" cy="93.42969" r="40.46761" gradientUnits="userSpaceOnUse" id="color-2"><stop offset="0" stop-color="#000000"/><stop offset="1" stop-color="#070707"/></radialGradient><radialGradient cx="232.88102" cy="120.68488" r="39.13721" gradientUnits="userSpaceOnUse" id="color-3"><stop offset="0" stop-color="#000000"/><stop offset="1" stop-color="#070707"/></radialGradient><linearGradient x1="398.34131" y1="180" x2="727.00001" y2="180" gradientUnits="userSpaceOnUse" id="color-4"><stop offset="0" stop-color="#331717"/><stop offset="1" stop-color="#000000"/></linearGradient><linearGradient x1="-7" y1="180" x2="727.00001" y2="180" gradientUnits="userSpaceOnUse" id="color-5"><stop offset="0" stop-color="#484c5e"/><stop offset="1" stop-color="#212d30"/></linearGradient><linearGradient x1="-7" y1="180" x2="354.70447" y2="180" gradientUnits="userSpaceOnUse" id="color-6"><stop offset="0" stop-color="#000000"/><stop offset="1" stop-color="#331717"/></linearGradient><linearGradient x1="-7" y1="180" x2="727.00001" y2="180" gradientUnits="userSpaceOnUse" id="color-7"><stop offset="0" stop-color="#484c5e"/><stop offset="1" stop-color="#212d30"/></linearGradient><linearGradient x1="-5.24208" y1="181.05806" x2="150.65899" y2="181.05806" gradientUnits="userSpaceOnUse" id="color-8"><stop offset="0" stop-color="#000000"/><stop offset="1" stop-color="#000000" stop-opacity="0"/></linearGradient><linearGradient x1="727.50754" y1="177.8148" x2="571.60645" y2="177.8148" gradientUnits="userSpaceOnUse" id="color-9"><stop offset="0" stop-color="#000000"/><stop offset="1" stop-color="#000000" stop-opacity="0"/></linearGradient><linearGradient x1="360.24745" y1="-17.14016" x2="360.24745" y2="110.48749" gradientUnits="userSpaceOnUse" id="color-10"><stop offset="0" stop-color="#000000"/><stop offset="1" stop-color="#000000" stop-opacity="0"/></linearGradient><linearGradient x1="359.27229" y1="377.38042" x2="359.27229" y2="249.75279" gradientUnits="userSpaceOnUse" id="color-11"><stop offset="0" stop-color="#000000"/><stop offset="1" stop-color="#000000" stop-opacity="0"/></linearGradient></defs><g transform="translate(7.50749,44)"><g stroke-miterlimit="10"><g stroke-width="0"><path d="M146,404v-448h428v448z" fill="#230000" stroke="url(#color-1)"/><path d="M94.00001,274.5v-189h532v189z" fill="#650000" stroke="#000000"/></g><g><path d="M169.53436,69.85197c13.69563,8.42078 23.55796,51.46679 9.95514,73.59053c-13.60282,22.12375 -8.72597,69.11426 -22.4216,60.69348c-7.74768,-4.76367 -73.07961,-36.22954 -72.88985,-53.86056c0.14568,-13.5355 39.80748,-27.71904 45.71513,-37.32729c13.60282,-22.12375 25.94555,-51.51694 39.64117,-43.09616z" fill="#464646" stroke="none" stroke-width="0"/><path d="M141.65117,51.83171c22.0236,-35.81937 57.9591,-51.98662 93.77847,-29.96302c35.81937,22.0236 36.82946,62.65935 14.80586,98.47872c-22.0236,35.81937 -47.7855,58.24188 -83.60487,36.21828c-35.81937,-22.0236 -47.00306,-68.91461 -24.97946,-104.73398z" fill="#464646" stroke="none" stroke-width="0"/><g stroke="none" stroke-width="0"><path d="M163.5719,166.12335c-35.32139,-26.84822 -42.19026,-77.24667 -15.34204,-112.56806c26.84822,-35.32139 66.26129,-48.5618 101.58269,-21.7136c35.3214,26.8482 32.15812,69.62108 5.3099,104.94247c-11.59295,15.25164 -14.55393,39.30113 -14.55393,39.30113l-50.26268,10.79341c0,0 -24.86882,-19.33769 -26.7339,-20.75537z" fill="#131313"/><g><path d="M219.22691,182.63003c-17.96888,5.49644 -33.81449,5.77103 -35.39216,0.61329c-1.57768,-5.15771 11.71001,-13.79465 29.67887,-19.29107c17.96888,-5.49644 33.81449,-5.77103 35.39216,-0.61329c1.57768,5.15771 -11.71001,13.79465 -29.67887,19.29107z" fill="#070707"/><path d="M183.79614,183.40156l65.07103,-19.90436l4.6075,15.06273l-65.07103,19.90436z" fill="#070707"/><path d="M223.6202,197.90475c-17.82794,5.45334 -33.55931,5.69296 -35.13698,0.53522c-1.57771,-5.15773 11.5957,-13.75969 29.42367,-19.21302c17.82794,-5.45334 33.55933,-5.69298 35.137,-0.53524c1.57771,5.15773 -11.59572,13.75971 -29.42368,19.21304z" fill="#0c0c0c"/></g><path d="M212.85019,99.94177c-13.57075,17.85362 -32.44715,26.34083 -42.16163,18.95676c-9.71448,-7.38408 -6.58836,-27.84327 6.9824,-45.69689c13.57077,-17.85365 32.44713,-26.34085 42.16161,-18.95677c9.71445,7.38406 6.58835,27.84327 -6.9824,45.69689z" fill="url(#color-2)"/><path d="M227.56927,151.33933c-7.27516,-0.1478 -5.4883,-15.8078 3.99106,-34.97753c9.47936,-19.16973 23.06157,-34.59007 30.33672,-34.44225c7.27515,0.14782 5.48829,15.80782 -3.99107,34.97755c-9.47936,19.16973 -23.06156,34.59005 -30.33671,34.44223z" fill="url(#color-3)"/></g><g stroke-width="0"><path d="M233.08344,25.49293c44.24747,27.20563 76.91647,54.46572 72.96826,60.88713c-3.94821,6.4214 -43.01853,-10.42754 -87.26599,-37.63317c-44.24747,-27.20563 -76.91646,-54.46572 -72.96825,-60.88712c3.94821,-6.4214 43.01852,10.42753 87.26599,37.63316z" fill="#04050a" stroke="#000000"/><path d="M174.89134,-6.78166c3.48984,-5.6759 13.27234,-23.91755 39.43723,-16.52308c23.30665,6.58669 62.4794,37.86291 77.26027,48.96218c17.3182,13.00461 -0.36714,30.9236 -4.00937,36.84736c-10.24067,16.65551 -122.92879,-52.63096 -112.68812,-69.28647z" fill="#0c0d12" stroke="none"/></g><path d="M121.94283,78.31058l29.71246,-48.32462l19.98389,12.28712l-29.71247,48.32462z" fill="#070707" stroke="none" stroke-width="0"/><path d="M251.51987,99.02283l-0.46896,0.59097c-0.32697,0.40609 -0.66278,0.71792 -1.00638,0.98592c-2.01857,4.28077 -2.29441,10.46726 -3.57177,14.92025c-0.77744,2.59548 -3.02148,3.70167 -4.45185,5.78662c-2.2316,3.25281 -4.15248,6.97954 -6.51542,10.03155c-1.53927,1.9396 -3.56848,3.26626 -5.04601,5.14483l-0.58619,0.73865c-0.16188,0.204 -0.45848,0.2381 -0.66244,0.07624c-0.20397,-0.16186 -0.2381,-0.4584 -0.07622,-0.6624l0.5854,-0.73766c1.97177,-5.42329 4.01188,-11.01312 6.40054,-16.249c2.10196,-6.22912 6.19532,-11.57173 9.77818,-16.87969c1.07904,-1.36049 2.33256,-1.94733 3.37683,-2.74371c0.14685,-0.30314 0.30287,-0.59741 0.46902,-0.88167c0,0 0.22841,-0.39081 0.62054,-0.18279l0.41608,-0.5243c0,0 0.29311,-0.36932 0.66244,-0.07624c0.36934,0.29308 0.07621,0.66243 0.07621,0.66243zM248.6316,101.55714c-0.64018,0.4252 -1.3002,0.92327 -1.97424,1.77208c-3.59919,5.14336 -7.59336,10.56802 -9.65991,16.66648c-1.80864,3.9773 -2.94539,8.1004 -4.50971,12.11352c-0.15205,0.39005 -0.29933,0.89915 -0.47,1.4333c0.9483,-0.87098 1.91317,-1.73722 2.7491,-2.79057c2.41656,-2.95234 4.26977,-6.77578 6.48388,-9.98947c1.35557,-1.96758 3.62053,-3.05263 4.31694,-5.50709c1.21589,-4.09319 1.52119,-9.4739 3.06396,-13.69823z" fill="#ff0000" stroke="none" stroke-width="0.5"/><path d="M207.96489,67.79369c0,0 0.19728,-0.42826 0.62551,-0.23097c0.42823,0.1973 0.23096,0.62554 0.23096,0.62554l-0.28008,0.60795c0.36263,0.25605 0.11699,0.63622 0.11699,0.63622c-0.17869,0.27655 -0.37088,0.54859 -0.57508,0.81646c-0.23934,1.29129 -0.19721,2.67472 -0.92428,4.25166c-3.11949,5.59283 -6.03952,11.6569 -10.64945,16.34399c-3.5942,4.49469 -7.66156,8.83805 -11.61114,13.04529l-0.39403,0.85529c-0.10896,0.2365 -0.389,0.3399 -0.6255,0.23094c-0.2365,-0.10896 -0.33994,-0.38899 -0.23097,-0.62552l0.39459,-0.85649c1.00949,-2.16635 1.27747,-4.57591 2.31358,-6.82487c1.657,-3.48606 4.11558,-6.88218 6.01107,-10.34165c1.21495,-2.21741 1.18923,-4.71918 3.15444,-6.58437c3.39713,-3.14964 8.79319,-6.18797 11.7021,-9.9213c0.08411,-0.42758 0.21081,-0.86799 0.4256,-1.34301l0.3157,-0.6852zM207.00693,71.51486c-3.07329,3.28329 -7.73699,5.98423 -10.84081,8.91662c-1.87593,1.72927 -1.82193,4.2401 -2.96589,6.33779c-1.86845,3.42621 -4.4439,6.80558 -5.98776,10.29451c-0.56266,1.22134 -0.90019,2.47333 -1.24941,3.71266c0.3996,-0.39339 0.78745,-0.75458 1.06688,-1.06631c2.87509,-3.20719 6.04132,-6.08246 8.77418,-9.4915c4.50929,-4.59654 7.54729,-10.6091 10.51256,-16.14222c0.45322,-0.98458 0.59978,-1.79834 0.69026,-2.56154z" fill="#ff0000" stroke="none" stroke-width="0.5"/><path d="M240.13563,186.01943c-1.75586,-1.07959 -2.30408,-3.37816 -1.22448,-5.13402c1.07959,-1.75586 3.37816,-2.30407 5.13402,-1.22448c1.75586,1.07959 2.30408,3.37816 1.22449,5.13402c-1.07959,1.75586 -3.37816,2.30408 -5.13402,1.22448z" fill="#000000" stroke="none" stroke-width="0.5"/></g><path d="M727.00001,-13.5v387h-328.65871c0.01919,-0.02539 0.03833,-0.05081 0.05742,-0.07627c2.14978,-2.86621 4.57424,-5.41616 5.44946,-8.91445c0.78075,-3.12068 3.62243,-6.05614 5.11075,-9.00134c0.98629,-1.98328 3.54109,-3.78121 5.11015,-5.35062c0.60758,-0.60772 1.29476,-1.63005 2.13692,-1.82544c3.42266,-0.86891 6.94816,-0.91609 10.23928,-2.01245c3.36259,-1.12017 6.57833,-2.12521 10.06942,-2.74901c0.63855,-0.1141 2.05048,-0.10213 2.56612,-0.48516c1.57662,-1.17114 2.79249,-5.44173 3.69575,-7.22065c1.55863,-3.07588 2.50599,-6.61714 3.70063,-9.85381c1.2258,-3.32108 2.50114,-6.44995 4.06973,-9.62877c1.54862,-3.13834 3.11227,-6.269 4.67734,-9.39917c1.10828,-2.21658 2.1039,-3.8926 3.81525,-5.68951c0.75327,-0.79093 2.09198,-1.73153 2.14966,-2.83879c0.01478,-0.62663 -0.19924,-1.84344 0.03929,-2.40788c0.65922,-1.55992 3.18067,-2.3466 3.85247,-3.92449c0.27329,-0.64189 0.07187,-1.8874 0.09219,-2.58965c0.08225,-2.84229 1.04971,-8.09643 -0.51231,-10.47959c-1.89417,-2.88991 -4.07355,-5.73857 -5.65103,-8.81217c-1.62494,-3.16609 -2.56216,-6.37369 -3.57447,-9.781c-0.90977,-3.00587 -0.18519,-7.26258 -0.18527,-10.40778c-0.00008,-3.45466 1.06911,-6.88031 1.8037,-10.25194c0.28319,-1.31413 -0.31976,-3.24406 0.17035,-4.44667c0.58665,-1.43949 2.9785,-3.14213 4.06148,-4.29348c2.38373,-2.53422 2.53326,-6.33717 3.37299,-9.75207c0.8302,-3.37618 0.5846,-7.02688 0.58616,-10.50109c0.00155,-3.5 0.00309,-7 0.00464,-10.5c0.00133,-3.01861 -3.57292,-6.45934 -4.72457,-9.31824c-1.32085,-3.27892 -3.078,-6.27084 -4.80806,-9.35067c-1.57994,-2.81258 -2.98265,-6.58345 -3.66061,-9.73745c-0.73553,-3.42184 -1.47107,-6.84368 -2.2066,-10.26552c-0.73611,-3.42453 -0.53934,-6.89506 -0.55452,-10.39264c-0.01519,-3.49953 -0.04312,-6.99928 -0.04344,-10.49884c-0.00032,-3.5 -0.00065,-7 -0.00097,-10.5c-0.00032,-3.49999 -0.00059,-6.99998 -0.00059,-10.49998c0,-3.57655 0.71017,-6.80113 1.45555,-10.29364c0.73875,-3.46143 0.53678,-6.9634 0.54427,-10.49683c0.00005,-3.50009 0.00011,-7.00018 0.00016,-10.50026c-0.02298,-3.18094 -2.53477,-6.86901 -3.34359,-9.9832c-0.87983,-3.38761 -1.75967,-6.77522 -2.6395,-10.16283c-0.87983,-3.38761 -1.75967,-6.77522 -2.6395,-10.16283c-0.88141,-3.39367 -1.67239,-6.77422 -2.36013,-10.21245c-0.68649,-3.43202 -1.37298,-6.86403 -2.05948,-10.29605c-0.60323,-3.01577 -0.67122,-7.69618 -2.2556,-10.31358c-1.83391,-2.98107 -3.66782,-5.96214 -5.50174,-8.9432c-1.8373,-2.98658 -3.75794,-5.90741 -5.69906,-8.82742c-2.01239,-3.01409 -4.55697,-4.93273 -6.24765,-8.26639c-0.95611,-1.88523 -1.35742,-3.52797 -1.73672,-5.60453c-0.10928,-0.59825 -0.11349,-2.12201 -0.50571,-2.57751c-0.31498,-0.36581 -1.53785,-0.56254 -2.00077,-0.72096c-2.3311,-0.79772 -3.78087,-2.43551 -5.90889,-3.56067c-0.98436,-0.52047 -2.31661,-0.54011 -3.13112,-1.32376c-0.3093,-0.2908 -0.63245,-0.63443 -0.96666,-0.99728z" fill="url(#color-4)" stroke="url(#color-5)" stroke-width="0"/><path d="M-7,373.5v-387h361.70445c-0.37296,0.47761 -0.72669,0.94145 -1.03926,1.38857c-2.00534,2.86855 -4.01068,5.73711 -6.01602,8.60566c-2.00534,2.86855 -4.01068,5.73711 -6.01602,8.60566c-2.0048,2.86778 -4.13674,5.63399 -6.25629,8.41775c-2.12026,2.78469 -4.24052,5.56938 -6.36078,8.35407c-2.10586,2.76578 -4.08295,5.69193 -6.54044,8.15279c-2.47318,2.47657 -4.94636,4.95313 -7.41954,7.4297c-2.47429,2.47767 -4.97451,4.9316 -7.39008,7.46663c-2.41445,2.53386 -4.8289,5.06771 -7.24335,7.60157c-2.41445,2.53386 -4.8289,5.06771 -7.24335,7.60157c-2.45097,2.57218 -4.85648,4.90312 -7.65322,7.09659c-3.05346,2.39482 -4.87697,4.39744 -8.84726,4.40051c-3.05759,0.00238 -6.0013,4.22882 -8.12532,6.35161c-2.47559,2.47416 -4.95118,4.94831 -7.42677,7.42247c-2.47807,2.47664 -4.95315,4.95026 -7.36742,7.48926c-2.41179,2.53639 -4.82358,5.07278 -7.23537,7.60917c-2.41179,2.53639 -4.82358,5.07278 -7.23537,7.60917c-1.91049,2.00919 -4.50948,6.67248 -7.0683,7.45235c-2.62222,2.41376 -5.18185,4.63028 -8.07036,6.72461c-2.92718,2.12236 -5.24677,4.49025 -7.71251,7.12857c-2.38983,2.55709 -4.77965,5.11419 -7.16948,7.67128c-0.68166,0.72937 -1.48579,2.00639 -2.33525,2.51309c-0.93318,0.55665 -3.22694,0.22951 -3.93242,1.06858c-0.422,0.50191 -0.2535,2.4664 -0.30927,3.12937c-0.29342,3.48768 -0.58684,6.97536 -0.88026,10.46304c-0.29342,3.48768 -0.58684,6.97536 -0.88026,10.46304c-0.29231,3.47446 -1.05106,6.90479 -1.66736,10.33583c-0.61878,3.44487 -1.23756,6.88974 -1.85633,10.3346c-0.61878,3.44487 -1.23756,6.88974 -1.85633,10.3346c-0.61878,3.44487 -1.23756,6.88974 -1.85633,10.3346c-0.61878,3.44487 -1.23756,6.88974 -1.85633,10.3346c-0.61878,3.44487 -1.23756,6.88974 -1.85633,10.3346c-0.61878,3.44487 -1.23756,6.88974 -1.85633,10.3346c-0.61878,3.44487 -1.23756,6.88974 -1.85633,10.3346c-0.61859,3.44384 -1.22033,6.89107 -1.87834,10.32761c-0.6582,3.43755 -1.31639,6.87511 -1.97459,10.31266c-0.6582,3.43755 -1.31639,6.87511 -1.97459,10.31266c-0.6582,3.43755 -1.31639,6.87511 -1.97459,10.31266c-0.6582,3.43755 -1.31639,6.87511 -1.97459,10.31266c-0.66868,3.49231 -0.82818,6.91566 -0.99908,10.46444c-0.16835,3.49595 -0.33671,6.9919 -0.50506,10.48785c-0.16889,3.50716 -0.21867,6.99556 -0.22138,10.50662c-0.0027,3.5 -0.00541,7 -0.00811,10.5c-0.0027,3.50003 -0.00541,7.00006 -0.00811,10.50009c-0.0001,1.53128 -0.36516,3.58173 0.00725,5.06113c0.4091,1.62513 1.83001,3.41996 2.62659,4.90166c1.65687,3.08192 3.2652,6.18931 4.88439,9.29117c0.48965,0.93802 0.97931,1.87605 1.46896,2.81407z" fill="url(#color-6)" stroke="url(#color-7)" stroke-width="0"/><g stroke="none"><g fill="none" stroke-width="1" font-family="sans-serif" font-weight="normal" font-size="12" text-anchor="start"/><g stroke-width="0"><path d="M-5.24208,376.25325v-390.39039h155.90105v390.39039z" fill="url(#color-8)"/><path d="M571.60645,373.00998v-390.39039h155.90105v390.39039z" fill="url(#color-9)"/><path d="M-6.53234,110.48749v-127.62762h733.55954v127.62763z" fill="url(#color-10)"/><path d="M726.05205,249.75279v127.62762h-733.55954v-127.62762z" fill="url(#color-11)"/></g></g></g></g></svg>