<svg version="1.1" xmlns="http://www.w3.org/2000/svg" xmlns:xlink="http://www.w3.org/1999/xlink" width="777.77778" height="427.74842" viewBox="0,0,777.77778,427.74842"><defs><radialGradient cx="353.34983" cy="163.95612" r="371.94719" gradientUnits="userSpaceOnUse" id="color-1"><stop offset="0" stop-color="#000000" stop-opacity="0.83922"/><stop offset="1" stop-color="#000000" stop-opacity="0"/></radialGradient><radialGradient cx="353.34983" cy="163.95612" r="371.9472" gradientUnits="userSpaceOnUse" id="color-2"><stop offset="0" stop-color="#000000" stop-opacity="0"/><stop offset="1" stop-color="#000000"/></radialGradient><linearGradient x1="-28.74391" y1="172.8882" x2="136.22739" y2="172.8882" gradientUnits="userSpaceOnUse" id="color-3"><stop offset="0" stop-color="#000000"/><stop offset="1" stop-color="#000000" stop-opacity="0"/></linearGradient><linearGradient x1="746.63664" y1="169.37393" x2="581.66535" y2="169.37393" gradientUnits="userSpaceOnUse" id="color-4"><stop offset="0" stop-color="#000000"/><stop offset="1" stop-color="#000000" stop-opacity="0"/></linearGradient><linearGradient x1="358.00956" y1="-41.87214" x2="358.00956" y2="96.42051" gradientUnits="userSpaceOnUse" id="color-5"><stop offset="0" stop-color="#000000"/><stop offset="1" stop-color="#000000" stop-opacity="0"/></linearGradient><linearGradient x1="356.97766" y1="385.61596" x2="356.97766" y2="247.32331" gradientUnits="userSpaceOnUse" id="color-6"><stop offset="0" stop-color="#000000"/><stop offset="1" stop-color="#000000" stop-opacity="0"/></linearGradient></defs><g transform="translate(31.14115,42.13247)"><g stroke-miterlimit="10"><g fill="none" stroke="#424242" stroke-width="4" stroke-linecap="round"><path d=""/><path d=""/><path d=""/><path d=""/><path d=""/><path d=""/><path d=""/><path d=""/><path d=""/><path d=""/><path d=""/><path d=""/><path d=""/><path d=""/><path d=""/><path d=""/><path d=""/><path d=""/><path d=""/><path d=""/><path d=""/><path d=""/><path d=""/><path d=""/><path d=""/><path d=""/><path d=""/><path d=""/><path d=""/><path d=""/><path d=""/><path d=""/><path d=""/><path d=""/><path d=""/><path d=""/></g><g><path d="M-13,153v-160.3741h746v160.3741z" fill="#000000" stroke="#000000" stroke-width="0" stroke-linecap="butt"/><path d="M242.41973,258.21709v-141.88484c0,0 9.82893,-40.00786 116.29743,-39.51477c114.25976,0.52917 119.25317,39.51477 119.25317,39.51477v141.88484z" fill="#3d3d3d" stroke="none" stroke-width="0" stroke-linecap="butt"/><path d="M295.96038,243.91062v-127.99353h130.7306v127.99354z" fill="#000000" stroke="none" stroke-width="0" stroke-linecap="butt"/><text transform="translate(278.74595,107.10555) scale(0.43355,0.44156)" font-size="40" xml:space="preserve" fill="#000000" stroke="none" stroke-width="1" stroke-linecap="butt" font-family="&quot;GovtAgentBB&quot;, Serif" font-weight="normal" text-anchor="start"><tspan x="0" dy="0">Power Supply Room</tspan></text><path d="M-12.41291,360.00001v-115.3741h746v115.3741z" fill="#323232" stroke="#000000" stroke-width="0" stroke-linecap="butt"/><path d="M0,360.00001v-360l295,116l1,128.5z" fill="#505050" stroke="none" stroke-width="0" stroke-linecap="butt"/><path d="M720,0.00001v360l-295,-116l-1,-128.5z" fill="#505050" stroke="none" stroke-width="0" stroke-linecap="butt"/><g fill="none" stroke="#424242" stroke-width="4" stroke-linecap="round"><path d="M297.00663,243.50352c0,0 -1.40024,-32.60599 0.57284,-64.49244c1.65785,-26.79213 6.57058,-52.90883 8.10489,-60.39603c0.77331,-3.77368 1.4269,-3.39511 1.4269,0.7282c0,7.50998 -6.93099,32.16321 -6.93099,59.17311c0,23.84913 6.93099,49.91212 6.93099,62.24027c0,5.18335 0.87357,3.70083 1.83392,-1.29023c1.56009,-8.10782 -7.73358,-34.00611 -6.13839,-60.3522c1.29286,-21.35287 13.30564,-42.9999 15.75094,-55.70823c1.33906,-6.95904 2.15597,-6.76736 2.15597,-1.86519c0,8.00747 -12.10867,32.58472 -12.36233,57.55118c-0.32125,31.61897 11.1964,63.8622 11.1964,63.8622"/><path d="M319.83832,243.50352c0,0 -11.30446,-32.54879 -9.33386,-64.40702c1.65901,-26.82082 16.47565,-52.98632 18.01159,-60.48149c0.77331,-3.77365 1.4269,-3.39508 1.4269,0.7282c0,7.35154 -11.38663,31.62876 -11.38663,58.0341c0,24.38693 11.38663,50.75655 11.38663,63.37927c0,5.18335 0.87357,3.70085 1.83392,-1.2902c1.56884,-8.15328 -9.20644,-27.46288 -7.59673,-53.96118c1.28839,-21.20877 14.78089,-49.47883 17.20928,-62.09925c1.33906,-6.95904 2.15597,-6.76736 2.15597,-1.86519c0,8.06629 -8.15145,23.26492 -8.40736,48.41965c-0.31987,31.44168 7.24143,72.99372 7.24143,72.99372"/><path d="M343.81156,243.50352c0,0 -6.90463,-21.72834 -4.98403,-53.00833c1.68163,-27.38797 12.09304,-64.22504 13.66176,-71.88015c0.77331,-3.77365 1.4269,-3.39511 1.4269,0.7282c0,8.09031 -9.90141,24.9596 -9.90141,54.04747c0,21.7551 9.90141,56.11665 9.90141,67.36591c0,5.18335 0.87357,3.70083 1.83392,-1.29023c1.59163,-8.27173 -9.66946,-17.40551 -8.02132,-44.29545c1.27665,-20.82897 15.24956,-59.37363 17.63387,-71.76498c1.33906,-6.95904 2.15597,-6.76736 2.15597,-1.86519c0,8.37376 -6.68413,21.19949 -6.95151,47.30981c-0.31212,30.47907 5.78558,74.10356 5.78558,74.10356"/><path d="M366.64325,243.50352c0,0 -23.70047,-11.65367 -21.74698,-43.31603c1.6669,-27.01719 28.87754,-74.02249 30.42471,-81.57247c0.77331,-3.77365 1.4269,-3.39508 1.4269,0.7282c0,8.30172 -19.80283,25.40171 -19.80283,55.18652c0,20.95058 19.80283,55.37063 19.80283,66.22685c0,5.18335 0.87357,3.70085 1.83392,-1.2902c1.52447,-7.92269 -16.20038,-20.87288 -14.66311,-46.5886c1.31096,-21.92986 21.76146,-56.40548 24.27566,-69.47183c1.33906,-6.95904 2.15597,-6.76736 2.15597,-1.86519c0,8.43401 -26.49055,13.03895 -26.76012,39.33061c-0.3105,30.28369 25.59418,82.08276 25.59418,82.08276"/></g></g><g stroke-width="0" stroke-linecap="butt"><g stroke="#000000"><path d="M-18.59737,365.7007v-403.48913h743.89439v403.48913z" fill="url(#color-1)"/><path d="M-18.59737,365.7007v-403.48913h743.8944v403.48913z" fill="url(#color-2)"/></g><g stroke="none"><path d="M-28.74391,384.39459v-423.0128h164.97129v423.0128z" fill="url(#color-3)"/><path d="M581.66535,380.88033v-423.0128h164.97129v423.0128z" fill="url(#color-4)"/><path d="M-30.10925,96.42051v-138.29264h776.23763v138.29265z" fill="url(#color-5)"/><path d="M745.09648,247.32331v138.29264h-776.23762v-138.29264z" fill="url(#color-6)"/></g></g></g></g></svg>