<svg version="1.1" xmlns="http://www.w3.org/2000/svg" xmlns:xlink="http://www.w3.org/1999/xlink" width="76.33333" height="101" viewBox="0,0,76.33333,101"><g transform="translate(-321.83333,-129.5)"><g stroke-miterlimit="10"><path d="M321.83333,230.5v-101h76.33333v101z" fill="#273042" stroke="none" stroke-width="0"/><path d="M329.7547,196.83333v-61.66667h60.49068v61.66667z" fill="#0b0e13" stroke="none" stroke-width="0"/><path d="M343.08345,227.33333v-17.33333h33.83333v17.33333z" fill="#0b0e13" stroke="#000000" stroke-width="0"/><path d="M342.99993,209.125v-11.25h34.25v11.25z" fill="#273042" stroke="#000000" stroke-width="0"/><text transform="translate(342.07589,207.0298) scale(0.29415,0.29415)" font-size="40" xml:space="preserve" fill="#000000" stroke="none" stroke-width="1" font-family="&quot;GovtAgentBB&quot;, Serif" font-weight="normal" text-anchor="start"><tspan x="0" dy="0">Turnip</tspan></text><text transform="translate(345.44338,222.26211) scale(0.29962,0.29962)" font-size="40" xml:space="preserve" fill="#c79e44" stroke="none" stroke-width="1" font-family="&quot;Agency FB&quot;, Sans Serif" font-weight="normal" text-anchor="start"><tspan x="0" dy="0">MEDIUM</tspan></text><path d="M366.14572,156.62897c4.49172,-1.82261 11.87928,-0.11929 14.36523,4.34197c2.08817,3.74739 0.76558,8.3024 -1.02961,11.80581c-2.40807,2.02999 -4.61769,3.10224 -7.64581,1.06665c-1.36422,-0.91707 -1.84169,-2.71416 -3.0772,-3.2677c3.37797,3.70735 1.873,11.87973 -1.41793,15.2554c-4.09648,4.20195 -11.31866,3.74771 -16.71302,3.69493c-3.50207,-1.1361 -7.79998,-1.76657 -10.21873,-4.93361c-3.12183,-4.08766 -1.8306,-12.27489 1.99813,-15.6763c1.76668,-1.56949 4.3558,-2.46293 6.98559,-2.88585c-0.07221,-0.24881 -0.08477,-0.4881 -0.07949,-0.66411c-1.54264,-4.63858 -2.17382,-9.72793 -2.84807,-14.51292c-0.27866,-1.97756 -0.6687,-4.93033 0.67838,-6.65459c3.01855,-3.86372 8.39595,-2.33787 9.7739,1.97898c0.75151,2.35431 -0.11912,4.74819 -0.90664,6.93258c-1.07588,3.95573 -1.9382,7.94543 -3.01612,11.89856l-0.00869,0.04475c0.082,0.22459 0.16676,0.44784 0.25448,0.66961c0.67453,-0.00183 1.32332,0.02364 1.93062,0.07228c0,0 0.29794,0.02482 0.6399,0.17606c0.71874,0.01515 1.49693,0.07306 2.3068,0.17468c1.28372,-4.23182 3.71098,-7.76535 8.02828,-9.51718z" fill="#e6e6e6" stroke="none" stroke-width="0.5"/><path d="M344.10211,176.84145c0,-0.98663 0.61762,-1.78645 1.37949,-1.78645c0.06088,0 0.12085,0.00511 0.17965,0.01502c0.14642,-0.71038 0.34017,-1.35338 0.57128,-1.88142c0.41517,-0.94853 0.8456,-2.06653 1.61185,-2.51833c2.02489,-1.19393 3.63751,0.22483 4.53369,2.46676c0.10566,0.26434 0.15588,0.5504 0.17924,0.84696c0.17073,0.36574 0.31489,0.76934 0.42708,1.20661c0.96841,3.77478 -0.79814,10.90092 -4.68192,9.65667c-2.03253,-0.65116 -2.8721,-3.40727 -2.94566,-6.22658c-0.70339,-0.08168 -1.25468,-0.84709 -1.25468,-1.77924z" fill="#191919" stroke="none" stroke-width="0.5"/><path d="M362.49287,174.98947c0.73366,0 1.32843,0.79982 1.32843,1.78645c0,0.96464 -0.56854,1.75071 -1.27958,1.78527c-0.13975,3.06197 -1.11991,5.97323 -3.12844,6.52236c-3.65051,0.99804 -4.81709,-4.52205 -4.73052,-8.09035c0.03156,-1.30062 0.13338,-3.56436 0.81174,-4.60376c0.10372,-0.15893 0.21232,-0.30875 0.32518,-0.44875c0.17331,-0.55015 0.36232,-1.07879 0.72758,-1.36621c1.38221,-1.08763 3.278,-0.43429 4.39104,0.87318c0.65645,0.77113 1.12827,2.06362 1.38809,3.55572c0.05455,-0.00917 0.11012,-0.0139 0.16651,-0.0139z" fill="#191919" stroke="none" stroke-width="0.5"/><path d="M365.16658,164.60575c-0.06903,0.01435 -0.14524,0.02228 -0.22937,0.02228c-0.89323,0 -0.89323,-0.89323 -0.89323,-0.89323c0.14841,-5.14094 6.74987,-3.4687 8.47055,-0.18094c0.86287,1.64873 1.42451,6.0988 -1.76197,5.70799c-1.8682,-0.22913 -2.45537,-2.64135 -3.25052,-3.96244c-0.44124,-0.32609 -1.58846,-0.43843 -2.33547,-0.69367z" fill="#fec1ff" stroke="none" stroke-width="0.5"/><path d="M356.81912,185.65018c0.58116,0.29058 0.29058,0.87173 0.29058,0.87173l-0.07058,0.13864c-0.42077,0.92478 -1.03683,1.77245 -2.25279,1.49379c-0.29655,-0.06796 -0.51705,-0.32916 -0.73408,-0.54238c-0.07808,-0.07671 -0.14469,0.00807 -0.25424,0.09331c-1.47499,1.14767 -2.75608,0.03727 -3.25715,-1.35511c0,0 -0.20548,-0.61641 0.41094,-0.82188c0.61642,-0.20547 0.82188,0.41093 0.82188,0.41093c0.55969,1.90751 1.0002,0.12403 1.98634,0.08083c0.28369,-0.01243 0.51585,0.08646 0.71394,0.21891c0.60969,0.40766 0.89674,1.13324 1.37073,-0.09032l0.10269,-0.2079c0,0 0.29057,-0.58116 0.87173,-0.29058z" fill="#191919" stroke="none" stroke-width="0.5"/><path d="M372.3825,167.49041c-0.00428,-2.22044 -0.349,-4.60482 -2.52398,-5.8355c-2.15723,-1.22064 -4.88929,-0.3384 -5.38085,1.94973l0.37021,-0.1378c1.88669,0.02438 3.13217,-0.20363 4.85501,1.0961c0.71193,0.53709 1.11007,1.40501 1.54948,2.18106c0.24673,0.43575 0.51179,1.06969 0.81003,1.76886c0.22194,-0.18766 0.27088,-0.45852 0.3201,-1.02246zM370.73464,160.09804c2.78486,1.60187 3.43588,4.57466 3.43086,7.50337c-0.19321,1.32243 -0.49677,1.97442 -1.38523,2.5071c1.09292,2.22561 2.60376,4.14246 4.96586,1.87394c0.33958,-0.32613 0.70014,-0.64854 0.94196,-1.05253c0.28055,-0.46869 0.84515,-2.38304 1.00631,-2.89908c-0.05543,-5.95331 -4.01743,-10.9443 -10.29139,-10.64017c-1.40564,0.06814 -3.38259,0.11991 -4.54032,1.06287c-1.81982,1.4822 -3.00851,3.65014 -3.91123,5.82943c0.39042,0.09604 0.77624,0.1985 1.15691,0.30868c0.21924,-0.17318 0.40615,-0.25627 0.40615,-0.25627l0.10471,-0.03897c0.17093,-4.08459 4.51598,-6.26878 8.11539,-4.19837zM362.68934,155.61766c1.53533,-1.15968 2.77324,-1.33295 4.58936,-1.60162c6.27567,-0.92839 12.36928,1.78636 14.93592,7.86308c0.90677,2.14684 1.0282,4.38471 1.01481,6.67056c-0.33652,1.15435 -0.85492,3.21321 -1.49473,4.24674c-0.41858,0.67616 -0.97349,1.26775 -1.55908,1.8058c-0.58493,0.53745 -1.19129,1.10477 -1.92907,1.39918c-0.88993,0.35512 -1.87541,0.57491 -2.83065,0.50018c-1.1171,-0.08739 -2.11037,-0.47079 -2.97279,-1.04888c0.11246,0.88073 0.12996,1.79098 0.02175,2.80909c-0.28593,2.68999 -1.01496,6.0254 -2.61268,8.27658c-2.22075,3.12903 -5.67645,4.63814 -9.28181,5.28748c-6.38718,1.15035 -12.40614,0.7289 -18.17548,-2.42054c-1.80095,-1.48207 -3.45102,-3.13136 -4.47488,-5.28906c-3.04305,-6.413 0.2567,-15.62845 6.31265,-19.04494c2.90957,-1.64145 6.47368,-2.21805 9.75574,-1.86689l-0.00002,0c0.44846,-0.11884 0.84535,-0.0527 0.84535,-0.0527l0.83546,0.13938c0.57869,0.0894 1.15343,0.18034 1.72267,0.27622c1.16477,-2.94792 2.75865,-6.03198 5.29748,-7.94966zM354.88129,166.78174c-0.40949,0.09401 -0.75581,0.04073 -0.75581,0.04073c-3.60623,-0.5807 -8.19103,0.46515 -10.65553,3.39006c-4.12079,4.89065 -4.12516,12.13622 0.92029,16.22897c4.92573,2.68365 10.13722,2.82475 15.5528,1.86695c2.72095,-0.48123 5.30035,-1.48766 7.01065,-3.85918c1.25495,-1.74013 1.7183,-4.52116 1.96064,-6.58673c0.2131,-1.81626 -0.15561,-3.09434 -0.72024,-4.80403c-2.63585,-4.83103 -8.03238,-5.4648 -13.0682,-6.23605z" fill="#191919" stroke="none" stroke-width="0.5"/><path d="M350.88376,156.52944c-0.89323,0 -0.89323,-1.00253 -0.89323,-1.00253c0.00259,-2.17336 -0.91785,-5.39515 0.0968,-7.40488c0.98306,-1.94715 3.19725,-2.00518 3.59235,0.50751c0.25832,1.6428 -1.09409,4.31553 -1.45298,5.93746l0.02666,0.55888c0,0 0.00001,0.78495 -0.61882,0.96573c-0.12023,0.22779 -0.34195,0.43784 -0.75079,0.43784z" fill="#fec1ff" stroke="none" stroke-width="0.5"/><path d="M353.95052,165.61058c-1.78645,0 -1.78645,-1.78645 -1.78645,-1.78645l0.12777,-1.73534c2.16303,-5.40757 4.35346,-10.04999 3.8308,-15.99074c-0.872,-3.98176 -6.97003,-3.68436 -8.15368,0.05264c-1.89848,5.99388 2.57813,12.36715 3.1159,18.22629c0,0 0.16174,1.77912 -1.61739,1.94086c-1.77911,0.16174 -1.94085,-1.61738 -1.94085,-1.61738c-0.58279,-6.47808 -5.25809,-12.95199 -2.95806,-19.64656c1.9157,-5.5759 10.77342,-7.83621 14.29066,-2.18565c0.47739,0.76693 0.51972,1.73039 0.77958,2.59558c0.62426,6.69731 -1.59256,11.8593 -4.0296,17.95191l0.12777,0.40841c0,0 0,1.78645 -1.78645,1.78645z" fill="#191919" stroke="none" stroke-width="0.5"/><path d="M352.35277,158.44204c0.053,0.26213 0.05784,0.74425 -0.52167,0.9926c-0.82101,0.35186 -1.17287,-0.46914 -1.17287,-0.46914c-1.29442,-3.04483 -3.22304,-8.40306 -1.52322,-11.59502c0.95235,-1.78833 3.42292,-2.24413 4.82651,-0.63112c0.8256,0.94878 0.67409,2.34401 0.53951,3.46331c-0.63921,2.57397 -1.39246,5.10013 -2.03613,7.67484l-0.10978,0.55402c0,0 -0.00074,0.00368 -0.00236,0.01051zM351.24586,155.46644c0.49943,-1.8645 1.02672,-3.71625 1.4991,-5.5918c0.08065,-0.61222 0.23711,-1.45853 -0.17508,-2.01515c-0.84352,-1.13909 -1.98753,0.2825 -2.11449,1.13127c-0.30703,2.05259 0.11643,4.35545 0.79046,6.47568z" fill="#191919" stroke="none" stroke-width="0.5"/><path d="M347.96028,185.08476c0,0.5 -0.5,0.5 -0.5,0.5l-0.19119,-0.0068c-1.26669,-0.22625 -2.19458,-0.84293 -2.47895,-2.13902c0,0 -0.09806,-0.49029 0.39223,-0.58835c0.49029,-0.09806 0.58835,0.39223 0.58835,0.39223c0.14757,0.86189 0.83931,1.22451 1.66277,1.34875l0.02679,-0.0068c0,0 0.5,0 0.5,0.5z" fill="#191919" stroke="none" stroke-width="0.5"/><path d="M363.07283,183.09631c0.35355,0.35355 0,0.70711 0,0.70711l-0.19024,0.07148c-0.2105,0.95942 -0.72669,1.46457 -1.4982,2.04583c0,0 -0.4,0.3 -0.7,-0.1c-0.3,-0.4 0.1,-0.7 0.1,-0.7c0.55378,-0.4132 0.99858,-0.7467 1.11762,-1.44194l0.46372,-0.58247c0,0 0.35355,-0.35355 0.70711,0z" fill="#191919" stroke="none" stroke-width="0.5"/></g></g></svg>