<svg version="1.1" xmlns="http://www.w3.org/2000/svg" xmlns:xlink="http://www.w3.org/1999/xlink" width="246" height="260.54354" viewBox="0,0,246,260.54354"><defs><linearGradient x1="360.00001" y1="108.3884" x2="360.00001" y2="234.3884" gradientUnits="userSpaceOnUse" id="color-1"><stop offset="0" stop-color="#070e12"/><stop offset="1" stop-color="#000000"/></linearGradient></defs><g transform="translate(-237,-90)"><g data-paper-data="{&quot;isPaintingLayer&quot;:true}" fill-rule="nonzero" stroke-linecap="butt" stroke-linejoin="miter" stroke-miterlimit="10" stroke-dasharray="" stroke-dashoffset="0" style="mix-blend-mode: normal"><path d="M266.5,350.54354v-37h187v37z" fill="none" stroke="#000000" stroke-width="0"/><path d="M237,270v-180h246v180z" fill-opacity="0.50196" fill="#000317" stroke="none" stroke-width="0"/><path d="M266.5,234.3884v-126h187v126z" fill="none" stroke="#000000" stroke-width="0"/><path d="M250.75,264.84686v-23.075h218.5v23.075z" fill-opacity="0.77647" fill="#000000" stroke="#ffffff" stroke-width="0"/><text transform="translate(255.09375,258.19227) scale(0.40691,0.40691)" font-size="40" xml:space="preserve" fill="#ffffff" fill-rule="nonzero" stroke="none" stroke-width="1" stroke-linecap="butt" stroke-linejoin="miter" stroke-miterlimit="10" stroke-dasharray="" stroke-dashoffset="0" font-family="&quot;VCR OSD Mono&quot;, Pixel" font-weight="normal" text-anchor="start" style="mix-blend-mode: normal"><tspan x="0" dy="0">(Chapter 1 - DeepJump)</tspan></text><path d="M264.25,234.3884v-126h191.50001v126z" fill="url(#color-1)" stroke="#401f00" stroke-width="0"/><g stroke="#ffffff" stroke-width="0"><path d="M336.66667,198.16667v-69.33333h46.66667v69.33333z" fill-opacity="0.81569" fill="#454545"/><path d="M308.16667,198.16667c0,-15.74012 12.75988,-28.5 28.5,-28.5c15.74012,0 28.5,12.75988 28.5,28.5c0,15.74012 -57,15.74012 -57,0z" fill-opacity="0.81569" fill="#324534"/><path d="M363.5,198.16667c0,-10.95365 8.87969,-19.83333 19.83333,-19.83333c10.95365,0 19.83333,8.87969 19.83333,19.83333c0,10.95365 -39.66667,10.95365 -39.66667,0z" fill-opacity="0.81569" fill="#324534"/></g><text transform="translate(348.95508,158.5) scale(0.5,0.5)" font-size="40" xml:space="preserve" fill-opacity="0.81569" fill="#000000" fill-rule="nonzero" stroke="none" stroke-width="1" stroke-linecap="butt" stroke-linejoin="miter" stroke-miterlimit="10" stroke-dasharray="" stroke-dashoffset="0" font-family="&quot;Agency FB&quot;, Sans Serif" font-weight="normal" text-anchor="start" style="mix-blend-mode: normal"><tspan x="0" dy="0">FFC</tspan></text></g></g></svg>