<svg version="1.1" xmlns="http://www.w3.org/2000/svg" xmlns:xlink="http://www.w3.org/1999/xlink" width="735.01499" height="448" viewBox="0,0,735.01499,448"><defs><linearGradient x1="146" y1="180" x2="574.00001" y2="180" gradientUnits="userSpaceOnUse" id="color-1"><stop offset="0" stop-color="#484c5e"/><stop offset="1" stop-color="#212d30"/></linearGradient><radialGradient cx="254.80606" cy="164.8925" r="40.46761" gradientUnits="userSpaceOnUse" id="color-2"><stop offset="0" stop-color="#000000"/><stop offset="1" stop-color="#070707"/></radialGradient><radialGradient cx="263.30205" cy="204.15221" r="39.13721" gradientUnits="userSpaceOnUse" id="color-3"><stop offset="0" stop-color="#000000"/><stop offset="1" stop-color="#070707"/></radialGradient><linearGradient x1="398.34131" y1="180" x2="727.00001" y2="180" gradientUnits="userSpaceOnUse" id="color-4"><stop offset="0" stop-color="#331717"/><stop offset="1" stop-color="#000000"/></linearGradient><linearGradient x1="-7" y1="180" x2="727.00001" y2="180" gradientUnits="userSpaceOnUse" id="color-5"><stop offset="0" stop-color="#484c5e"/><stop offset="1" stop-color="#212d30"/></linearGradient><linearGradient x1="-7" y1="180" x2="354.70447" y2="180" gradientUnits="userSpaceOnUse" id="color-6"><stop offset="0" stop-color="#000000"/><stop offset="1" stop-color="#331717"/></linearGradient><linearGradient x1="-7" y1="180" x2="727.00001" y2="180" gradientUnits="userSpaceOnUse" id="color-7"><stop offset="0" stop-color="#484c5e"/><stop offset="1" stop-color="#212d30"/></linearGradient><linearGradient x1="-5.24208" y1="181.05806" x2="150.65899" y2="181.05806" gradientUnits="userSpaceOnUse" id="color-8"><stop offset="0" stop-color="#000000"/><stop offset="1" stop-color="#000000" stop-opacity="0"/></linearGradient><linearGradient x1="727.50754" y1="177.8148" x2="571.60645" y2="177.8148" gradientUnits="userSpaceOnUse" id="color-9"><stop offset="0" stop-color="#000000"/><stop offset="1" stop-color="#000000" stop-opacity="0"/></linearGradient><linearGradient x1="360.24745" y1="-17.14016" x2="360.24745" y2="110.48749" gradientUnits="userSpaceOnUse" id="color-10"><stop offset="0" stop-color="#000000"/><stop offset="1" stop-color="#000000" stop-opacity="0"/></linearGradient><linearGradient x1="359.27229" y1="377.38042" x2="359.27229" y2="249.75279" gradientUnits="userSpaceOnUse" id="color-11"><stop offset="0" stop-color="#000000"/><stop offset="1" stop-color="#000000" stop-opacity="0"/></linearGradient></defs><g transform="translate(7.50749,44)"><g stroke-miterlimit="10"><g stroke-width="0"><path d="M146,404v-448h428v448z" fill="#230000" stroke="url(#color-1)"/><path d="M94.00001,274.5v-189h532v189z" fill="#650000" stroke="#000000"/></g><g><path d="M240.65106,126.15403c6.37314,14.76018 -10.28183,55.66051 -34.12523,65.95559c-23.84341,10.29509 -46.84511,51.56026 -53.21824,36.80007c-3.60532,-8.3499 -39.00669,-71.63579 -28.72326,-85.95851c7.89468,-10.99568 48.50721,0.17814 58.8623,-4.29297c23.84341,-10.29509 50.8313,-27.26437 57.20442,-12.50419z" fill="#464646" stroke="none" stroke-width="0"/><path d="M228.17921,95.38627c38.60358,-16.66822 77.30551,-9.25871 93.97373,29.34488c16.66822,38.60358 -5.8481,72.44586 -44.45168,89.11408c-38.60358,16.66822 -72.57132,20.2231 -89.23954,-18.38049c-16.66822,-38.60358 1.11391,-83.41025 39.7175,-100.07847z" fill="#464646" stroke="none" stroke-width="0"/><g stroke="none" stroke-width="0"><path d="M180.46764,201.531c-13.4891,-42.26667 9.83972,-87.46568 52.1064,-100.9548c42.26667,-13.4891 82.13382,-1.68618 95.62294,40.58049c13.48913,42.26666 -13.67094,75.46089 -55.9376,88.94999c-18.25058,5.82455 -34.48944,23.80912 -34.48944,23.80912l-47.34232,-20.03844c0,0 -9.24766,-30.11453 -9.95992,-32.34636z" fill="#131313"/><g><path d="M216.54133,247.0133c-17.86569,-5.82313 -30.99371,-14.70083 -29.32224,-19.82894c1.67144,-5.12809 17.50944,-4.5647 35.37509,1.25843c17.86569,5.82313 30.99371,14.70083 29.32224,19.82894c-1.67144,5.12809 -17.50944,4.5647 -35.37509,-1.25843z" fill="#070707"/><path d="M187.09659,227.29169l64.69733,21.08738l-4.88133,14.97624l-64.69733,-21.08738z" fill="#070707"/><path d="M211.3629,262.03999c-17.72556,-5.77744 -30.73999,-14.61815 -29.06852,-19.74626c1.67142,-5.12813 17.39578,-4.60175 35.12136,1.17571c17.72556,5.77744 30.74001,14.61814 29.06855,19.74626c-1.67142,5.12813 -17.39581,4.60176 -35.12138,-1.17571z" fill="#0c0c0c"/></g><path d="M258.82182,175.66646c-21.36419,6.81824 -41.69076,2.92186 -45.4007,-8.70277c-3.70993,-11.62464 10.60167,-26.57554 31.96586,-33.39376c21.36422,-6.81824 41.69075,-2.92189 45.40069,8.70275c3.70992,11.6246 -10.60167,26.57552 -31.96586,33.39376z" fill="url(#color-2)"/><path d="M241.34478,226.19282c-5.87012,-4.30018 4.58836,-16.09208 23.35961,-26.3379c18.77125,-10.24582 38.74704,-15.06572 44.61713,-10.76553c5.8701,4.30019 -4.58838,16.09209 -23.35963,26.3379c-18.77125,10.24582 -38.74702,15.06571 -44.61711,10.76552z" fill="url(#color-3)"/></g><g stroke-width="0"><path d="M318.15055,126.34997c20.59016,47.6868 31.67158,88.76694 24.75104,91.75508c-6.92053,2.98814 -29.22236,-33.24727 -49.81251,-80.93406c-20.59016,-47.6868 -31.67158,-88.76693 -24.75104,-91.75507c6.92053,-2.98814 29.22236,33.24726 49.81252,80.93406z" fill="#04050a" stroke="#000000"/><path d="M289.05799,66.50356c6.11709,-2.64123 24.60334,-11.95323 41.77265,9.12981c15.29374,18.77993 29.39169,66.88351 35.11449,84.45955c6.70519,20.59321 -18.06452,25.10133 -24.44872,27.8579c-17.95013,7.75049 -70.38853,-113.69678 -52.4384,-121.44727z" fill="#0c0d12" stroke="none"/></g><path d="M196.8364,105.7389l52.08085,-22.48743l9.29933,21.53722l-52.08086,22.48742z" fill="#070707" stroke="none" stroke-width="0"/><path d="M291.00243,197.12798l-0.72334,0.21434c-0.50092,0.14458 -0.95492,0.20691 -1.39012,0.22891c-4.11136,2.34442 -7.89097,7.24986 -11.49454,10.16105c-2.12733,1.67791 -4.59962,1.29429 -6.96813,2.17923c-3.69522,1.38062 -7.40836,3.32766 -11.09574,4.46846c-2.37416,0.70341 -4.79724,0.62367 -7.08581,1.31259l-0.90414,0.26788c-0.24969,0.07399 -0.51206,-0.06848 -0.58603,-0.31813c-0.07398,-0.24966 0.06843,-0.512 0.31813,-0.58599l0.90292,-0.26752c4.72938,-3.30651 9.61035,-6.71007 14.57331,-9.6237c5.29885,-3.89132 11.71848,-5.91305 17.70035,-8.19967c1.66477,-0.49377 3.02794,-0.25404 4.34019,-0.30602c0.29434,-0.16377 0.5911,-0.31502 0.89039,-0.45225c0,0 0.41146,-0.18868 0.61294,0.20685l0.64176,-0.19014c0,0 0.45208,-0.13393 0.58603,0.31813c0.13396,0.45206 -0.31815,0.58601 -0.31815,0.58601zM287.18244,197.54325c-0.76827,-0.01971 -1.59463,0.00884 -2.63396,0.31642c-5.90068,2.1425 -12.28626,4.28837 -17.48105,8.09308c-3.7652,2.21661 -7.06418,4.93854 -10.64997,7.32482c-0.34852,0.23193 -0.76153,0.56404 -1.20807,0.90322c1.27656,-0.16818 2.56395,-0.32297 3.85329,-0.70498c3.67402,-1.02842 7.38731,-3.0935 11.04575,-4.45214c2.23986,-0.83184 4.71713,-0.41889 6.69713,-2.02792c3.34658,-2.65198 6.68742,-6.88093 10.3769,-9.45248z" fill="#ff0000" stroke="none" stroke-width="0.5"/><path d="M273.2904,146.54558c0,0 0.40749,-0.23722 0.64469,0.17026c0.23719,0.40749 -0.17029,0.6447 -0.17029,0.6447l-0.57849,0.33674c0.14974,0.4179 -0.26971,0.58797 -0.26971,0.58797c-0.30513,0.12372 -0.61872,0.236 -0.93974,0.33795c-0.93769,0.91948 -1.69791,2.07608 -3.19892,2.94921c-5.76622,2.78597 -11.63988,6.07226 -18.10578,7.26068c-5.52396,1.61441 -11.3483,2.83314 -16.99804,4.00811l-0.81385,0.47374c-0.22505,0.13099 -0.51366,0.05477 -0.64466,-0.17028c-0.13099,-0.22505 -0.0548,-0.51369 0.17027,-0.6447l0.815,-0.4744c2.07076,-1.19334 3.67428,-3.01173 5.81429,-4.25741c3.35888,-1.90162 7.32223,-3.26916 10.86104,-5.01202c2.26828,-1.11712 3.68435,-3.1797 6.36441,-3.57752c4.59,-0.62663 10.75225,-0.01388 15.27792,-1.39875c0.31447,-0.30168 0.67117,-0.58938 1.11986,-0.85483l0.65202,-0.37951zM270.36865,149.04121c-4.40169,0.92206 -9.77067,0.45385 -13.99578,1.07114c-2.52891,0.33785 -3.92704,2.4241 -6.06843,3.48399c-3.49758,1.73117 -7.54697,3.01786 -10.81489,4.98682c-1.16216,0.67649 -2.15764,1.50741 -3.15542,2.32124c0.55308,-0.09245 1.07803,-0.1653 1.48583,-0.25995c4.19574,-0.97363 8.43913,-1.50832 12.6344,-2.72887c6.33152,-1.1721 12.27215,-4.34846 17.87783,-7.17415c0.93657,-0.54557 1.524,-1.12748 2.03648,-1.70021z" fill="#ff0000" stroke="none" stroke-width="0.5"/><path d="M231.70895,261.79863c-0.81708,-1.89234 0.05459,-4.08874 1.94694,-4.9058c1.89234,-0.81708 4.08874,0.0546 4.9058,1.94694c0.81708,1.89234 -0.05459,4.08874 -1.94693,4.90582c-1.89234,0.81708 -4.08874,-0.05459 -4.9058,-1.94694z" fill="#000000" stroke="none" stroke-width="0.5"/></g><path d="M727.00001,-13.5v387h-328.65871c0.01919,-0.02539 0.03833,-0.05081 0.05742,-0.07627c2.14978,-2.86621 4.57424,-5.41616 5.44946,-8.91445c0.78075,-3.12068 3.62243,-6.05614 5.11075,-9.00134c0.98629,-1.98328 3.54109,-3.78121 5.11015,-5.35062c0.60758,-0.60772 1.29476,-1.63005 2.13692,-1.82544c3.42266,-0.86891 6.94816,-0.91609 10.23928,-2.01245c3.36259,-1.12017 6.57833,-2.12521 10.06942,-2.74901c0.63855,-0.1141 2.05048,-0.10213 2.56612,-0.48516c1.57662,-1.17114 2.79249,-5.44173 3.69575,-7.22065c1.55863,-3.07588 2.50599,-6.61714 3.70063,-9.85381c1.2258,-3.32108 2.50114,-6.44995 4.06973,-9.62877c1.54862,-3.13834 3.11227,-6.269 4.67734,-9.39917c1.10828,-2.21658 2.1039,-3.8926 3.81525,-5.68951c0.75327,-0.79093 2.09198,-1.73153 2.14966,-2.83879c0.01478,-0.62663 -0.19924,-1.84344 0.03929,-2.40788c0.65922,-1.55992 3.18067,-2.3466 3.85247,-3.92449c0.27329,-0.64189 0.07187,-1.8874 0.09219,-2.58965c0.08225,-2.84229 1.04971,-8.09643 -0.51231,-10.47959c-1.89417,-2.88991 -4.07355,-5.73857 -5.65103,-8.81217c-1.62494,-3.16609 -2.56216,-6.37369 -3.57447,-9.781c-0.90977,-3.00587 -0.18519,-7.26258 -0.18527,-10.40778c-0.00008,-3.45466 1.06911,-6.88031 1.8037,-10.25194c0.28319,-1.31413 -0.31976,-3.24406 0.17035,-4.44667c0.58665,-1.43949 2.9785,-3.14213 4.06148,-4.29348c2.38373,-2.53422 2.53326,-6.33717 3.37299,-9.75207c0.8302,-3.37618 0.5846,-7.02688 0.58616,-10.50109c0.00155,-3.5 0.00309,-7 0.00464,-10.5c0.00133,-3.01861 -3.57292,-6.45934 -4.72457,-9.31824c-1.32085,-3.27892 -3.078,-6.27084 -4.80806,-9.35067c-1.57994,-2.81258 -2.98265,-6.58345 -3.66061,-9.73745c-0.73553,-3.42184 -1.47107,-6.84368 -2.2066,-10.26552c-0.73611,-3.42453 -0.53934,-6.89506 -0.55452,-10.39264c-0.01519,-3.49953 -0.04312,-6.99928 -0.04344,-10.49884c-0.00032,-3.5 -0.00065,-7 -0.00097,-10.5c-0.00032,-3.49999 -0.00059,-6.99998 -0.00059,-10.49998c0,-3.57655 0.71017,-6.80113 1.45555,-10.29364c0.73875,-3.46143 0.53678,-6.9634 0.54427,-10.49683c0.00005,-3.50009 0.00011,-7.00018 0.00016,-10.50026c-0.02298,-3.18094 -2.53477,-6.86901 -3.34359,-9.9832c-0.87983,-3.38761 -1.75967,-6.77522 -2.6395,-10.16283c-0.87983,-3.38761 -1.75967,-6.77522 -2.6395,-10.16283c-0.88141,-3.39367 -1.67239,-6.77422 -2.36013,-10.21245c-0.68649,-3.43202 -1.37298,-6.86403 -2.05948,-10.29605c-0.60323,-3.01577 -0.67122,-7.69618 -2.2556,-10.31358c-1.83391,-2.98107 -3.66782,-5.96214 -5.50174,-8.9432c-1.8373,-2.98658 -3.75794,-5.90741 -5.69906,-8.82742c-2.01239,-3.01409 -4.55697,-4.93273 -6.24765,-8.26639c-0.95611,-1.88523 -1.35742,-3.52797 -1.73672,-5.60453c-0.10928,-0.59825 -0.11349,-2.12201 -0.50571,-2.57751c-0.31498,-0.36581 -1.53785,-0.56254 -2.00077,-0.72096c-2.3311,-0.79772 -3.78087,-2.43551 -5.90889,-3.56067c-0.98436,-0.52047 -2.31661,-0.54011 -3.13112,-1.32376c-0.3093,-0.2908 -0.63245,-0.63443 -0.96666,-0.99728z" fill="url(#color-4)" stroke="url(#color-5)" stroke-width="0"/><path d="M-7,373.5v-387h361.70445c-0.37296,0.47761 -0.72669,0.94145 -1.03926,1.38857c-2.00534,2.86855 -4.01068,5.73711 -6.01602,8.60566c-2.00534,2.86855 -4.01068,5.73711 -6.01602,8.60566c-2.0048,2.86778 -4.13674,5.63399 -6.25629,8.41775c-2.12026,2.78469 -4.24052,5.56938 -6.36078,8.35407c-2.10586,2.76578 -4.08295,5.69193 -6.54044,8.15279c-2.47318,2.47657 -4.94636,4.95313 -7.41954,7.4297c-2.47429,2.47767 -4.97451,4.9316 -7.39008,7.46663c-2.41445,2.53386 -4.8289,5.06771 -7.24335,7.60157c-2.41445,2.53386 -4.8289,5.06771 -7.24335,7.60157c-2.45097,2.57218 -4.85648,4.90312 -7.65322,7.09659c-3.05346,2.39482 -4.87697,4.39744 -8.84726,4.40051c-3.05759,0.00238 -6.0013,4.22882 -8.12532,6.35161c-2.47559,2.47416 -4.95118,4.94831 -7.42677,7.42247c-2.47807,2.47664 -4.95315,4.95026 -7.36742,7.48926c-2.41179,2.53639 -4.82358,5.07278 -7.23537,7.60917c-2.41179,2.53639 -4.82358,5.07278 -7.23537,7.60917c-1.91049,2.00919 -4.50948,6.67248 -7.0683,7.45235c-2.62222,2.41376 -5.18185,4.63028 -8.07036,6.72461c-2.92718,2.12236 -5.24677,4.49025 -7.71251,7.12857c-2.38983,2.55709 -4.77965,5.11419 -7.16948,7.67128c-0.68166,0.72937 -1.48579,2.00639 -2.33525,2.51309c-0.93318,0.55665 -3.22694,0.22951 -3.93242,1.06858c-0.422,0.50191 -0.2535,2.4664 -0.30927,3.12937c-0.29342,3.48768 -0.58684,6.97536 -0.88026,10.46304c-0.29342,3.48768 -0.58684,6.97536 -0.88026,10.46304c-0.29231,3.47446 -1.05106,6.90479 -1.66736,10.33583c-0.61878,3.44487 -1.23756,6.88974 -1.85633,10.3346c-0.61878,3.44487 -1.23756,6.88974 -1.85633,10.3346c-0.61878,3.44487 -1.23756,6.88974 -1.85633,10.3346c-0.61878,3.44487 -1.23756,6.88974 -1.85633,10.3346c-0.61878,3.44487 -1.23756,6.88974 -1.85633,10.3346c-0.61878,3.44487 -1.23756,6.88974 -1.85633,10.3346c-0.61878,3.44487 -1.23756,6.88974 -1.85633,10.3346c-0.61859,3.44384 -1.22033,6.89107 -1.87834,10.32761c-0.6582,3.43755 -1.31639,6.87511 -1.97459,10.31266c-0.6582,3.43755 -1.31639,6.87511 -1.97459,10.31266c-0.6582,3.43755 -1.31639,6.87511 -1.97459,10.31266c-0.6582,3.43755 -1.31639,6.87511 -1.97459,10.31266c-0.66868,3.49231 -0.82818,6.91566 -0.99908,10.46444c-0.16835,3.49595 -0.33671,6.9919 -0.50506,10.48785c-0.16889,3.50716 -0.21867,6.99556 -0.22138,10.50662c-0.0027,3.5 -0.00541,7 -0.00811,10.5c-0.0027,3.50003 -0.00541,7.00006 -0.00811,10.50009c-0.0001,1.53128 -0.36516,3.58173 0.00725,5.06113c0.4091,1.62513 1.83001,3.41996 2.62659,4.90166c1.65687,3.08192 3.2652,6.18931 4.88439,9.29117c0.48965,0.93802 0.97931,1.87605 1.46896,2.81407z" fill="url(#color-6)" stroke="url(#color-7)" stroke-width="0"/><g stroke="none"><g fill="none" stroke-width="1" font-family="sans-serif" font-weight="normal" font-size="12" text-anchor="start"/><g stroke-width="0"><path d="M-5.24208,376.25325v-390.39039h155.90105v390.39039z" fill="url(#color-8)"/><path d="M571.60645,373.00998v-390.39039h155.90105v390.39039z" fill="url(#color-9)"/><path d="M-6.53234,110.48749v-127.62762h733.55954v127.62763z" fill="url(#color-10)"/><path d="M726.05205,249.75279v127.62762h-733.55954v-127.62762z" fill="url(#color-11)"/></g></g></g></g></svg>