<svg version="1.1" xmlns="http://www.w3.org/2000/svg" xmlns:xlink="http://www.w3.org/1999/xlink" width="680.20605" height="676.66555" viewBox="0,0,680.20605,676.66555"><defs><linearGradient x1="55.33277" y1="410.51028" x2="106.15899" y2="411.15117" gradientUnits="userSpaceOnUse" id="color-1"><stop offset="0" stop-color="#484c5e"/><stop offset="1" stop-color="#212d30"/></linearGradient><linearGradient x1="55.82103" y1="364.52009" x2="124.66159" y2="365.38809" gradientUnits="userSpaceOnUse" id="color-2"><stop offset="0" stop-color="#484c5e"/><stop offset="1" stop-color="#212d30"/></linearGradient><linearGradient x1="56.36359" y1="313.41593" x2="125.20415" y2="314.28392" gradientUnits="userSpaceOnUse" id="color-3"><stop offset="0" stop-color="#484c5e"/><stop offset="1" stop-color="#212d30"/></linearGradient><linearGradient x1="56.84585" y1="267.98998" x2="125.68641" y2="268.85798" gradientUnits="userSpaceOnUse" id="color-4"><stop offset="0" stop-color="#484c5e"/><stop offset="1" stop-color="#212d30"/></linearGradient><linearGradient x1="57.40852" y1="214.99301" x2="126.24907" y2="215.86109" gradientUnits="userSpaceOnUse" id="color-5"><stop offset="0" stop-color="#484c5e"/><stop offset="1" stop-color="#212d30"/></linearGradient><linearGradient x1="57.89077" y1="169.56714" x2="126.73133" y2="170.43515" gradientUnits="userSpaceOnUse" id="color-6"><stop offset="0" stop-color="#484c5e"/><stop offset="1" stop-color="#212d30"/></linearGradient><linearGradient x1="58.43334" y1="118.46291" x2="127.27389" y2="119.331" gradientUnits="userSpaceOnUse" id="color-7"><stop offset="0" stop-color="#484c5e"/><stop offset="1" stop-color="#212d30"/></linearGradient><linearGradient x1="58.91559" y1="73.03705" x2="127.75615" y2="73.90497" gradientUnits="userSpaceOnUse" id="color-8"><stop offset="0" stop-color="#484c5e"/><stop offset="1" stop-color="#212d30"/></linearGradient><linearGradient x1="666.21182" y1="408.90771" x2="615.38561" y2="409.58835" gradientUnits="userSpaceOnUse" id="color-9"><stop offset="0" stop-color="#484c5e"/><stop offset="1" stop-color="#212d30"/></linearGradient><linearGradient x1="665.72356" y1="360.06556" x2="596.883" y2="360.98739" gradientUnits="userSpaceOnUse" id="color-10"><stop offset="0" stop-color="#484c5e"/><stop offset="1" stop-color="#212d30"/></linearGradient><linearGradient x1="665.181" y1="305.79232" x2="596.34044" y2="306.71413" gradientUnits="userSpaceOnUse" id="color-11"><stop offset="0" stop-color="#484c5e"/><stop offset="1" stop-color="#212d30"/></linearGradient><linearGradient x1="664.69875" y1="257.5494" x2="595.85818" y2="258.47123" gradientUnits="userSpaceOnUse" id="color-12"><stop offset="0" stop-color="#484c5e"/><stop offset="1" stop-color="#212d30"/></linearGradient><linearGradient x1="664.13608" y1="201.26597" x2="595.29552" y2="202.18785" gradientUnits="userSpaceOnUse" id="color-13"><stop offset="0" stop-color="#484c5e"/><stop offset="1" stop-color="#212d30"/></linearGradient><linearGradient x1="663.65382" y1="153.02311" x2="594.81326" y2="153.94495" gradientUnits="userSpaceOnUse" id="color-14"><stop offset="0" stop-color="#484c5e"/><stop offset="1" stop-color="#212d30"/></linearGradient><linearGradient x1="663.11126" y1="98.7498" x2="594.2707" y2="99.67171" gradientUnits="userSpaceOnUse" id="color-15"><stop offset="0" stop-color="#484c5e"/><stop offset="1" stop-color="#212d30"/></linearGradient><linearGradient x1="662.62901" y1="50.50698" x2="593.78844" y2="51.42872" gradientUnits="userSpaceOnUse" id="color-16"><stop offset="0" stop-color="#484c5e"/><stop offset="1" stop-color="#212d30"/></linearGradient><linearGradient x1="237.07418" y1="418.38972" x2="409.57439" y2="453.99049" gradientUnits="userSpaceOnUse" id="color-17"><stop offset="0" stop-color="#484c5e"/><stop offset="1" stop-color="#212d30"/></linearGradient><linearGradient x1="266.24509" y1="193.38702" x2="471.86535" y2="235.82313" gradientUnits="userSpaceOnUse" id="color-18"><stop offset="0" stop-color="#484c5e"/><stop offset="1" stop-color="#212d30"/></linearGradient><linearGradient x1="363.04446" y1="199.63962" x2="387.13721" y2="204.6119" gradientUnits="userSpaceOnUse" id="color-19"><stop offset="0" stop-color="#484c5e"/><stop offset="1" stop-color="#212d30"/></linearGradient><linearGradient x1="355.58532" y1="235.78221" x2="388.21729" y2="242.51683" gradientUnits="userSpaceOnUse" id="color-20"><stop offset="0" stop-color="#484c5e"/><stop offset="1" stop-color="#212d30"/></linearGradient><linearGradient x1="347.29674" y1="275.94375" x2="379.92871" y2="282.67837" gradientUnits="userSpaceOnUse" id="color-21"><stop offset="0" stop-color="#484c5e"/><stop offset="1" stop-color="#212d30"/></linearGradient><linearGradient x1="339.92912" y1="311.64291" x2="372.56108" y2="318.37753" gradientUnits="userSpaceOnUse" id="color-22"><stop offset="0" stop-color="#484c5e"/><stop offset="1" stop-color="#212d30"/></linearGradient><linearGradient x1="331.33354" y1="353.29195" x2="363.96551" y2="360.02657" gradientUnits="userSpaceOnUse" id="color-23"><stop offset="0" stop-color="#484c5e"/><stop offset="1" stop-color="#212d30"/></linearGradient><linearGradient x1="323.96592" y1="388.99107" x2="356.59789" y2="395.72569" gradientUnits="userSpaceOnUse" id="color-24"><stop offset="0" stop-color="#484c5e"/><stop offset="1" stop-color="#212d30"/></linearGradient><linearGradient x1="315.67734" y1="429.15265" x2="348.3093" y2="435.88726" gradientUnits="userSpaceOnUse" id="color-25"><stop offset="0" stop-color="#484c5e"/><stop offset="1" stop-color="#212d30"/></linearGradient><linearGradient x1="308.30972" y1="464.85177" x2="340.94168" y2="471.58638" gradientUnits="userSpaceOnUse" id="color-26"><stop offset="0" stop-color="#484c5e"/><stop offset="1" stop-color="#212d30"/></linearGradient><linearGradient x1="469.67775" y1="278.17498" x2="430.20115" y2="274.94495" gradientUnits="userSpaceOnUse" id="color-27"><stop offset="0" stop-color="#484c5e"/><stop offset="1" stop-color="#212d30"/></linearGradient><linearGradient x1="466.99588" y1="310.95215" x2="413.52759" y2="306.57733" gradientUnits="userSpaceOnUse" id="color-28"><stop offset="0" stop-color="#484c5e"/><stop offset="1" stop-color="#212d30"/></linearGradient><linearGradient x1="464.0158" y1="347.37407" x2="410.54751" y2="342.9992" gradientUnits="userSpaceOnUse" id="color-29"><stop offset="0" stop-color="#484c5e"/><stop offset="1" stop-color="#212d30"/></linearGradient><linearGradient x1="461.36685" y1="379.74906" x2="407.89855" y2="375.37424" gradientUnits="userSpaceOnUse" id="color-30"><stop offset="0" stop-color="#484c5e"/><stop offset="1" stop-color="#212d30"/></linearGradient><linearGradient x1="458.27638" y1="417.51994" x2="404.80808" y2="413.14508" gradientUnits="userSpaceOnUse" id="color-31"><stop offset="0" stop-color="#484c5e"/><stop offset="1" stop-color="#212d30"/></linearGradient><linearGradient x1="455.62743" y1="449.89493" x2="402.15914" y2="445.52011" gradientUnits="userSpaceOnUse" id="color-32"><stop offset="0" stop-color="#484c5e"/><stop offset="1" stop-color="#212d30"/></linearGradient><linearGradient x1="452.64735" y1="486.31684" x2="399.17905" y2="481.94198" gradientUnits="userSpaceOnUse" id="color-33"><stop offset="0" stop-color="#484c5e"/><stop offset="1" stop-color="#212d30"/></linearGradient><linearGradient x1="449.99837" y1="518.69183" x2="396.5301" y2="514.31702" gradientUnits="userSpaceOnUse" id="color-34"><stop offset="0" stop-color="#484c5e"/><stop offset="1" stop-color="#212d30"/></linearGradient><linearGradient x1="248.34041" y1="232.49516" x2="285.8703" y2="245.1578" gradientUnits="userSpaceOnUse" id="color-35"><stop offset="0" stop-color="#484c5e"/><stop offset="1" stop-color="#212d30"/></linearGradient><linearGradient x1="237.82669" y1="263.65599" x2="288.65829" y2="280.80669" gradientUnits="userSpaceOnUse" id="color-36"><stop offset="0" stop-color="#484c5e"/><stop offset="1" stop-color="#212d30"/></linearGradient><linearGradient x1="226.14388" y1="298.28179" x2="276.97548" y2="315.43249" gradientUnits="userSpaceOnUse" id="color-37"><stop offset="0" stop-color="#484c5e"/><stop offset="1" stop-color="#212d30"/></linearGradient><linearGradient x1="215.75914" y1="329.0603" x2="266.59075" y2="346.211" gradientUnits="userSpaceOnUse" id="color-38"><stop offset="0" stop-color="#484c5e"/><stop offset="1" stop-color="#212d30"/></linearGradient><linearGradient x1="203.64363" y1="364.96858" x2="254.47524" y2="382.11924" gradientUnits="userSpaceOnUse" id="color-39"><stop offset="0" stop-color="#484c5e"/><stop offset="1" stop-color="#212d30"/></linearGradient><linearGradient x1="193.2589" y1="395.74706" x2="244.09051" y2="412.89776" gradientUnits="userSpaceOnUse" id="color-40"><stop offset="0" stop-color="#484c5e"/><stop offset="1" stop-color="#212d30"/></linearGradient><linearGradient x1="181.57609" y1="430.37289" x2="232.40771" y2="447.52356" gradientUnits="userSpaceOnUse" id="color-41"><stop offset="0" stop-color="#484c5e"/><stop offset="1" stop-color="#212d30"/></linearGradient><linearGradient x1="171.19136" y1="461.15137" x2="222.02296" y2="478.30207" gradientUnits="userSpaceOnUse" id="color-42"><stop offset="0" stop-color="#484c5e"/><stop offset="1" stop-color="#212d30"/></linearGradient><linearGradient x1="302.06115" y1="305.82011" x2="395.93498" y2="325.19388" gradientUnits="userSpaceOnUse" id="color-43"><stop offset="0" stop-color="#484c5e"/><stop offset="1" stop-color="#212d30"/></linearGradient><linearGradient x1="445.17069" y1="296.87767" x2="387.84316" y2="285.04636" gradientUnits="userSpaceOnUse" id="color-44"><stop offset="0" stop-color="#484c5e"/><stop offset="1" stop-color="#212d30"/></linearGradient><linearGradient x1="268.50072" y1="266.18085" x2="325.82825" y2="278.01217" gradientUnits="userSpaceOnUse" id="color-45"><stop offset="0" stop-color="#484c5e"/><stop offset="1" stop-color="#212d30"/></linearGradient><radialGradient cx="378.37684" cy="173.62401" r="43.75" gradientUnits="userSpaceOnUse" id="color-46"><stop offset="0" stop-color="#ffffff" stop-opacity="0.43529"/><stop offset="1" stop-color="#ffffff" stop-opacity="0"/></radialGradient><linearGradient x1="339.94763" y1="152.7133" x2="416.80606" y2="194.53472" gradientUnits="userSpaceOnUse" id="color-47"><stop offset="0" stop-color="#484c5e"/><stop offset="1" stop-color="#212d30"/></linearGradient><linearGradient x1="372.38769" y1="170.17784" x2="384.81217" y2="176.93845" gradientUnits="userSpaceOnUse" id="color-48"><stop offset="0" stop-color="#484c5e"/><stop offset="1" stop-color="#212d30"/></linearGradient><radialGradient cx="424.21416" cy="200.27342" r="43.75" gradientUnits="userSpaceOnUse" id="color-49"><stop offset="0" stop-color="#ffffff" stop-opacity="0.43529"/><stop offset="1" stop-color="#ffffff" stop-opacity="0"/></radialGradient><linearGradient x1="385.78495" y1="179.36271" x2="462.64338" y2="221.18412" gradientUnits="userSpaceOnUse" id="color-50"><stop offset="0" stop-color="#484c5e"/><stop offset="1" stop-color="#212d30"/></linearGradient><linearGradient x1="418.225" y1="196.82725" x2="430.64948" y2="203.58786" gradientUnits="userSpaceOnUse" id="color-51"><stop offset="0" stop-color="#484c5e"/><stop offset="1" stop-color="#212d30"/></linearGradient></defs><g transform="translate(-20.66927,63.20096)"><g stroke-miterlimit="10"><g fill="none" stroke-width="3.25" stroke-linecap="round"><path d="M55.5783,387.38417c0,0 31.88218,-1.0902 44.50005,-1.52158c9.33843,-0.31933 7.93086,11.1821 -1.90819,18.37152c-8.2408,6.02151 -24.14006,17.63921 -34.15535,24.95737c-5.29823,3.87143 -2.87213,6.61629 1.83047,6.67554c8.90188,0.11228 38.62921,0.48711 38.62921,0.48711" stroke="url(#color-1)"/><path d="M56.06061,341.95815c0,0 31.88223,-1.0902 44.50004,-1.52167c9.33843,-0.31927 7.93086,11.18217 -1.90818,18.37152c-12.60031,9.20701 -43.10516,31.49703 -43.10516,31.49703" stroke="url(#color-2)"/><path d="M56.60312,290.85399c0,0 31.88223,-1.0902 44.50005,-1.52158c9.33843,-0.31927 7.93085,11.18217 -1.90819,18.37152c-12.60031,9.20701 -43.10516,31.49703 -43.10516,31.49703" stroke="url(#color-3)"/><path d="M57.08543,245.42807c0,0 31.88223,-1.0902 44.50005,-1.52158c9.33843,-0.31927 7.93085,11.18217 -1.90819,18.37152c-12.60031,9.20701 -43.10516,31.49703 -43.10516,31.49703" stroke="url(#color-4)"/><path d="M57.64804,192.43116c0,0 31.88223,-1.0902 44.50004,-1.52167c9.33843,-0.31927 7.93086,11.18225 -1.90818,18.3716c-12.60031,9.20701 -43.10516,31.49703 -43.10516,31.49703" stroke="url(#color-5)"/><path d="M58.13035,147.00522c0,0 31.88223,-1.0902 44.50005,-1.52167c9.33843,-0.31927 7.93086,11.18217 -1.90818,18.37152c-12.60031,9.20701 -43.10517,31.49703 -43.10517,31.49703" stroke="url(#color-6)"/><path d="M58.67286,95.90106c0,0 31.88223,-1.0902 44.50005,-1.52158c9.33843,-0.31927 7.93085,11.18217 -1.90819,18.37152c-12.60031,9.20701 -43.10516,31.49709 -43.10516,31.49709" stroke="url(#color-7)"/><path d="M59.15517,50.47512c0,0 31.88223,-1.0902 44.50005,-1.52158c9.33843,-0.31927 7.93085,11.18217 -1.90819,18.37152c-12.60031,9.20701 -43.10516,31.49703 -43.10516,31.49703" stroke="url(#color-8)"/></g><path d="M38.49488,36.97774c-4.68434,-17.07174 -31.70144,-73.08674 6.64436,-82.56975c39.58293,-9.78893 44.12161,49.50232 54.2833,46.72217c13.13656,-3.59403 3.62524,-14.33841 11.15548,-10.61275c20.95938,10.36986 7.64552,37.34858 9.02771,42.38593c2.94357,10.72772 32.77133,30.28672 23.40582,36.3766c-5.53849,3.60136 -47.15613,-3.84634 -55.47953,-3.42824c-5.43594,0.27308 -57.29021,31.88384 -62.43334,30.64313c-16.04865,-3.87147 16.9437,-46.58851 13.39621,-59.51705z" fill="#0d0d0d" stroke="#000000" stroke-width="0" stroke-linecap="butt"/><g fill="none" stroke-width="3.25" stroke-linecap="round"><path d="M617.07011,436.35412c0,0 29.72733,-0.39807 38.6292,-0.51732c4.7026,-0.06299 7.12869,-2.97801 1.83047,-7.08951c-10.01528,-7.77199 -25.91455,-20.11011 -34.15535,-26.50505c-9.83905,-7.63526 -11.24662,-19.84993 -1.90819,-19.51078c12.61786,0.45816 44.50005,1.61594 44.50005,1.61594" stroke="url(#color-9)"/><path d="M665.99729,387.44957c0,0 -30.50486,-23.67226 -43.10517,-33.45023c-9.83904,-7.63518 -11.24661,-19.84985 -1.90818,-19.51078c12.61782,0.45816 44.50005,1.61603 44.50005,1.61603" stroke="url(#color-10)"/><path d="M665.45477,333.17633c0,0 -30.50486,-23.67218 -43.10516,-33.45023c-9.83904,-7.63518 -11.24661,-19.84985 -1.90819,-19.51078c12.61782,0.45816 44.50005,1.61594 44.50005,1.61594" stroke="url(#color-11)"/><path d="M664.97247,284.93343c0,0 -30.50486,-23.67218 -43.10516,-33.45023c-9.83904,-7.63518 -11.24661,-19.84985 -1.90819,-19.51078c12.61782,0.45816 44.50005,1.61594 44.50005,1.61594" stroke="url(#color-12)"/><path d="M664.40985,228.65005c0,0 -30.50485,-23.67218 -43.10516,-33.45023c-9.83904,-7.63518 -11.24661,-19.84993 -1.90819,-19.51086c12.61782,0.45816 44.50005,1.61603 44.50005,1.61603" stroke="url(#color-13)"/><path d="M663.92755,180.40705c0,0 -30.50486,-23.67226 -43.10517,-33.45023c-9.83904,-7.63518 -11.2466,-19.84985 -1.90818,-19.51078c12.61782,0.45816 44.50005,1.61603 44.50005,1.61603" stroke="url(#color-14)"/><path d="M663.38503,126.13389c0,0 -30.50486,-23.67226 -43.10516,-33.4503c-9.83904,-7.63518 -11.24661,-19.84985 -1.90819,-19.51078c12.61782,0.45816 44.50005,1.61594 44.50005,1.61594" stroke="url(#color-15)"/><path d="M662.90273,77.89091c0,0 -30.50486,-23.67218 -43.10516,-33.45023c-9.83904,-7.63518 -11.24661,-19.84985 -1.90819,-19.51078c12.61782,0.45816 44.50005,1.61594 44.50005,1.61594" stroke="url(#color-16)"/></g><path d="M683.04971,20.46128c-3.54749,12.92854 29.44486,55.64558 13.39621,59.51705c-5.14314,1.24072 -56.99741,-30.37005 -62.43335,-30.64312c-8.3234,-0.41809 -49.94104,7.0296 -55.47953,3.42824c-9.36551,-6.08987 20.46224,-25.64888 23.40582,-36.3766c1.38219,-5.03735 -11.93166,-32.01607 9.02771,-42.38593c7.53025,-3.72566 -1.98108,7.01872 11.15548,10.61275c10.16169,2.78015 14.70037,-56.51111 54.2833,-46.72217c38.34579,9.48301 11.3287,65.49801 6.64436,82.56975z" fill="#0d0d0d" stroke="#000000" stroke-width="0" stroke-linecap="butt"/><g><path d="M409.57436,453.99047c-0.45814,2.21986 -25.58214,-3.15713 -48.97435,-18.7481c-10.74096,-7.15886 -11.45322,-27.53432 -26.4428,-30.62788c-16.98915,-3.50623 -21.63189,15.20291 -36.41113,18.79268c-26.65912,6.4753 -58.50639,1.91846 -58.07632,-0.16544c0.6685,-3.23916 58.09238,-103.83264 105.72697,-94.00176c47.63462,9.83088 64.84612,121.51134 64.17762,124.75049z" fill="#4c1212" stroke="url(#color-17)" stroke-width="0" stroke-linecap="butt"/><path d="M471.86535,235.82313c-0.49154,2.38174 -49.06743,29.61973 -105.84788,17.90132c-56.78045,-11.71841 -96.84693,-51.85506 -96.35538,-54.2368c0.24267,-1.17581 49.60239,14.26932 99.50925,23.22207c51.18478,9.18198 102.94284,11.9075 102.69397,13.1134z" fill="#4c1212" stroke="url(#color-18)" stroke-width="0" stroke-linecap="butt"/><g fill="none" stroke-width="3.25" stroke-linecap="round"><path d="M390.55622,184.6529c0,0 -14.0914,-2.9082 -18.31108,-3.77905c-2.22916,-0.46005 -3.83298,1.43258 -1.97999,5.04136c3.50274,6.82172 9.06337,17.65116 11.9455,23.26423c3.4411,6.70165 2.18233,15.87884 -2.17124,14.62229c-5.88239,-1.69783 -20.74577,-5.98781 -20.74577,-5.98781" stroke="url(#color-19)"/><path d="M359.76739,215.5184c0,0 10.66879,20.77777 15.07562,29.36021c3.4411,6.70165 2.18234,15.87881 -2.17124,14.62229c-5.88239,-1.69783 -20.74577,-5.98781 -20.74577,-5.98781" stroke="url(#color-20)"/><path d="M351.47881,255.67995c0,0 10.66879,20.77777 15.07562,29.36021c3.4411,6.70165 2.18234,15.87881 -2.17124,14.62229c-5.88239,-1.69783 -20.74577,-5.98781 -20.74577,-5.98781" stroke="url(#color-21)"/><path d="M344.11118,291.3791c0,0 10.66879,20.77777 15.07562,29.36021c3.4411,6.70165 2.18234,15.87881 -2.17124,14.62229c-5.88239,-1.69783 -20.74577,-5.98781 -20.74577,-5.98781" stroke="url(#color-22)"/><path d="M335.51562,333.02811c0,0 10.66879,20.77777 15.07562,29.36021c3.4411,6.70165 2.18234,15.87881 -2.17124,14.62229c-5.88239,-1.69783 -20.74577,-5.98781 -20.74577,-5.98781" stroke="url(#color-23)"/><path d="M328.14799,368.72726c0,0 10.66879,20.77777 15.07562,29.36021c3.4411,6.70165 2.18234,15.87881 -2.17124,14.62229c-5.88239,-1.69783 -20.74577,-5.98781 -20.74577,-5.98781" stroke="url(#color-24)"/><path d="M319.85941,408.8888c0,0 10.66879,20.77777 15.07562,29.36021c3.4411,6.70165 2.18234,15.87881 -2.17124,14.62229c-5.88239,-1.69783 -20.74577,-5.98781 -20.74577,-5.98781" stroke="url(#color-25)"/><path d="M312.49178,444.58797c0,0 10.66879,20.77777 15.07562,29.36021c3.4411,6.70165 2.18234,15.87881 -2.17124,14.62229c-5.88239,-1.69783 -20.74577,-5.98781 -20.74577,-5.98781" stroke="url(#color-26)"/></g><g><g fill="none" stroke-width="3.25" stroke-linecap="round"><path d="M468.32917,294.65698c0,0 -24.83751,-0.96177 -34.66735,-1.34242c-7.27501,-0.2817 -5.6051,-8.40864 2.40294,-12.99988c6.70726,-3.84545 19.64782,-11.26467 27.79937,-15.93815c4.31227,-2.47235 2.56382,-4.56255 -1.08869,-4.8614c-6.91407,-0.56571 -30.00321,-2.45488 -30.00321,-2.45488" stroke="url(#color-27)"/><path d="M465.68022,327.03198c0,0 -24.83752,-0.96174 -34.66735,-1.34239c-7.27501,-0.2817 -5.6051,-8.40864 2.40299,-12.99991c10.2555,-5.87976 35.08366,-20.11447 35.08366,-20.11447" stroke="url(#color-28)"/><path d="M462.70014,363.4539c0,0 -24.83751,-0.96177 -34.66735,-1.34242c-7.27501,-0.2817 -5.6051,-8.40864 2.40298,-12.99988c10.2555,-5.87976 35.08366,-20.11447 35.08366,-20.11447" stroke="url(#color-29)"/><path d="M460.05118,395.82889c0,0 -24.83752,-0.96174 -34.66735,-1.34239c-7.27501,-0.2817 -5.6051,-8.40864 2.40296,-12.99991c10.2555,-5.87976 35.08366,-20.11447 35.08366,-20.11447" stroke="url(#color-30)"/><path d="M456.96072,433.59973c0,0 -24.83752,-0.96174 -34.66735,-1.34239c-7.27501,-0.2817 -5.6051,-8.40864 2.40298,-12.99988c10.2555,-5.87976 35.08366,-20.11447 35.08366,-20.11447" stroke="url(#color-31)"/><path d="M454.31177,465.97476c0,0 -24.83752,-0.96174 -34.66735,-1.34239c-7.27501,-0.2817 -5.6051,-8.40864 2.40299,-12.99991c10.2555,-5.87976 35.08366,-20.11447 35.08366,-20.11447" stroke="url(#color-32)"/><path d="M451.33168,502.39668c0,0 -24.83752,-0.96174 -34.66735,-1.34239c-7.27501,-0.2817 -5.6051,-8.40864 2.40298,-12.99988c10.2555,-5.87976 35.08366,-20.11447 35.08366,-20.11447" stroke="url(#color-33)"/><path d="M448.68273,534.77168c0,0 -24.83752,-0.96174 -34.66735,-1.34239c-7.27501,-0.2817 -5.6051,-8.40864 2.40299,-12.99991c10.2555,-5.87976 35.08366,-20.11447 35.08366,-20.11447" stroke="url(#color-34)"/></g><path d="M457.96064,613.0187c-31.303,5.44971 -31.59632,-40.88671 -39.64697,-39.28001c-10.40751,2.07709 -3.60029,10.94787 -9.25047,7.64098c-15.72657,-9.2043 -3.90548,-29.44924 -4.70507,-33.44032c-1.70287,-8.49952 -23.8218,-25.33061 -16.20944,-29.55348c4.50174,-2.49727 36.44598,5.56254 42.93881,5.69165c4.24037,0.08432 46.2728,-21.65864 50.20303,-20.41363c12.26386,3.88499 -15.7125,35.29025 -13.6603,45.53347c2.70989,13.52591 20.65511,58.54199 -9.66954,63.82135z" fill="#0d0d0d" stroke="#000000" stroke-width="0" stroke-linecap="butt"/></g><g><g fill="none" stroke-width="3.25" stroke-linecap="round"><path d="M290.58984,227.71643c0,0 -21.95055,-7.40617 -28.52365,-9.62395c-3.47239,-1.17159 -5.90548,0.05562 -2.92436,4.03319c5.63525,7.51885 14.58124,19.455 19.21806,25.64165c5.5361,7.38654 3.85213,15.51057 -2.94,12.88908c-9.17738,-3.54204 -32.36628,-12.49204 -32.36628,-12.49204" stroke="url(#color-35)"/><path d="M243.72136,246.18527c0,0 17.16404,22.90111 24.25381,32.3606c5.5361,7.3865 3.85213,15.51053 -2.94,12.88908c-9.17734,-3.54207 -32.36628,-12.49204 -32.36628,-12.49204" stroke="url(#color-36)"/><path d="M232.03851,280.81107c0,0 17.16404,22.90111 24.25381,32.3606c5.5361,7.3865 3.85213,15.51053 -2.94,12.88908c-9.17734,-3.54207 -32.36628,-12.49204 -32.36628,-12.49204" stroke="url(#color-37)"/><path d="M221.65382,311.58958c0,0 17.16404,22.90111 24.25381,32.3606c5.5361,7.3865 3.85213,15.51053 -2.94,12.88908c-9.17734,-3.54207 -32.36628,-12.49204 -32.36628,-12.49204" stroke="url(#color-38)"/><path d="M209.53828,347.49781c0,0 17.16404,22.90111 24.25381,32.3606c5.5361,7.3865 3.85213,15.51053 -2.94,12.88908c-9.17734,-3.54207 -32.36628,-12.49204 -32.36628,-12.49204" stroke="url(#color-39)"/><path d="M199.15358,378.27634c0,0 17.16404,22.90111 24.25381,32.3606c5.5361,7.3865 3.85213,15.51053 -2.94,12.88908c-9.17734,-3.54207 -32.36628,-12.49204 -32.36628,-12.49204" stroke="url(#color-40)"/><path d="M187.47074,412.90213c0,0 17.16404,22.90111 24.25381,32.3606c5.5361,7.3865 3.85213,15.51053 -2.94,12.88908c-9.17734,-3.54207 -32.36628,-12.49204 -32.36628,-12.49204" stroke="url(#color-41)"/><path d="M177.08603,443.68065c0,0 17.16404,22.90111 24.25381,32.3606c5.5361,7.3865 3.85213,15.51053 -2.94,12.88908c-9.17734,-3.54207 -32.36628,-12.49204 -32.36628,-12.49204" stroke="url(#color-42)"/></g><path d="M142.92307,482.18397c5.93984,-8.59385 -7.31739,-48.50893 5.48249,-47.22121c4.102,0.41266 34.09207,37.01969 38.01938,38.62107c6.01343,2.45195 38.53855,7.69738 41.68376,11.77285c5.31852,6.89156 -21.65655,13.59058 -26.58525,20.72152c-2.31433,3.34843 0.52595,26.61924 -17.55964,28.84532c-6.49776,0.79978 3.26525,-4.65125 -5.46959,-10.67893c-6.75676,-4.66268 -25.37068,37.77166 -51.9585,20.37437c-25.75683,-16.85355 8.54394,-51.08701 16.38732,-62.43494z" fill="#0d0d0d" stroke="#000000" stroke-width="0" stroke-linecap="butt"/></g><path d="M306.14228,265.40891c2.30025,-11.14565 -17.41913,-38.2639 -13.4866,-42.8465c4.95672,-5.77611 34.0171,12.57616 41.21666,13.08962c8.77416,0.62578 19.06876,4.20921 30.5302,6.57464c11.98836,2.47417 23.86024,3.76315 32.9051,7.63432c5.40291,2.31242 36.49934,-0.09344 39.30706,4.86476c3.5984,6.35453 -22.11132,21.18114 -24.94074,34.89083c-4.69739,22.76075 -13.99078,73.31787 -30.58929,95.81997c-14.26006,19.33194 -35.2167,12.72741 -48.30707,10.02581c-11.00158,-2.27052 -35.29686,-11.6479 -40.19998,-30.0858c-7.72162,-29.03689 8.22329,-74.08676 13.56463,-99.96771z" fill="#dadada" stroke="#000000" stroke-width="0" stroke-linecap="butt"/><path d="M302.06115,305.82011c6.51676,-31.57634 32.81401,-52.83708 58.73655,-47.48716c25.92254,5.34992 41.65404,35.28459 35.13728,66.86094c-6.51676,31.57634 -32.81401,52.83708 -58.73655,47.48716c-25.92254,-5.34992 -41.65404,-35.28459 -35.13728,-66.86094z" fill="#ababab" stroke="url(#color-43)" stroke-width="0" stroke-linecap="butt"/><path d="M373.98459,402.25046c2.24959,-46.9834 37.43646,-147.7066 45.6414,-159.41404c13.74785,-19.61649 36.176,-13.43859 54.05128,-8.06308c10.48748,3.15383 -31.11407,82.69611 -63.95994,132.65494c-15.63426,23.77984 2.76931,87.81672 2.76931,87.81672c0,0 -40.75519,-5.93843 -38.50208,-52.99455z" fill="#801d1d" stroke="url(#color-44)" stroke-width="0" stroke-linecap="butt"/><path d="M235.81672,424.54815c0,0 42.25209,-51.51871 37.30964,-79.54519c-10.38348,-58.88054 -17.0952,-148.39377 -6.21601,-147.13792c18.54296,2.14055 41.58442,5.34668 46.4428,28.80314c2.89956,13.9992 -4.6648,120.42316 -21.19971,164.45835c-16.56047,44.10332 -56.33674,33.42162 -56.33674,33.42162z" fill="#801d1d" stroke="url(#color-45)" stroke-width="0" stroke-linecap="butt"/><g stroke="#000000" stroke-width="0" stroke-linecap="butt"><path d="M353.98897,264.60138l15.25184,-26.02792l6.16204,3.61085l-15.25184,26.02792z" fill="#2f323e"/><path d="M365.69119,234.79026c-0.23746,-6.52579 9.51626,-24.08548 9.51626,-24.08548l21.10363,12.10524c0,0 -10.70404,16.28262 -15.68225,20.05024c-3.35677,2.54047 -6.76029,-0.01163 -9.43514,-1.57907c-1.99313,-1.16795 -5.40193,-3.72792 -5.50246,-6.49093z" fill="#2f323e"/><g><path d="M443.10359,226.45709c1.64857,-6.16088 0.91727,-10.3248 2.12764,-15.05253c1.14211,-4.46111 4.25115,-9.55344 4.96322,-13.09009c1.75978,-8.74027 2.42871,-15.03991 5.20692,-19.75443c1.73475,-2.9438 7.25217,-6.19682 9.47058,-8.22962c2.42754,-2.2244 11.00152,2.36637 14.57514,7.80921c3.11125,4.73862 1.34776,9.58868 2.23156,17.94672c0.39538,3.73902 2.15109,13.09418 1.85325,17.2406c-0.494,6.87701 -3.37772,9.80202 -5.71726,15.76811c-1.96019,4.99871 -1.96857,14.06526 -4.11334,19.96293c-1.00094,2.75246 -3.91226,2.69509 -5.07907,5.06288c-1.40862,2.85845 -3.46497,13.30822 -4.8648,15.80403c-3.97504,7.08724 -7.66997,7.8344 -11.36301,11.52278c-4.38309,4.37759 -7.80001,17.22604 -11.55075,19.11158c-5.47939,2.75459 -14.33076,-1.28606 -17.55901,-2.87692c-3.16933,-1.56182 -8.86551,-0.96816 -9.97539,-6.10258c-0.85877,-3.97277 0.75921,-11.64326 3.22854,-19.57383c1.47161,-4.72631 0.11854,-5.62139 2.45058,-11.02173c1.39243,-3.2245 6.0939,-10.54563 7.96862,-14.34985c3.16345,-6.41946 12.39733,-6.16586 16.14664,-20.17724z" fill="#a3a3a3"/><path d="M465.81676,177.27637c2.8325,0.79223 3.56328,7.03146 1.63219,13.93569c-1.93107,6.90426 -5.79271,11.85901 -8.62521,11.06678c-2.8325,-0.79223 -3.56328,-7.03146 -1.63222,-13.93571c1.93107,-6.90426 5.79271,-11.85901 8.62523,-11.0668z" fill="#0d0d0d"/></g><path d="M464.76658,184.26355c1.11718,1.39689 1.06288,4.35781 0.6494,6.13472c-0.2966,1.27451 -1.16069,3.62928 -2.12623,4.36933c-5.8841,4.51021 -21.72579,-1.73211 -19.91834,-9.49926c1.69056,-7.26474 16.82761,-6.71577 21.39514,-1.00481z" fill="#2f323e"/><g><path d="M341.9521,199.67071c-2.40248,3.49497 -6.49138,11.17501 -8.62383,13.96585c-3.5714,4.67409 -5.01365,3.93115 -8.41757,7.52521c-5.71166,6.03065 -11.61254,11.19145 -15.49815,12.38408c-5.02177,1.54139 -7.28812,-3.71816 -10.19979,-5.71966c-2.96581,-2.03874 -10.81734,-7.78563 -11.0925,-13.9123c-0.18834,-4.19381 9.35048,-13.45494 11.02708,-19.41845c1.41263,-5.02464 0.25845,-8.6133 4.49835,-15.54532c1.49309,-2.44113 9.60441,-9.34285 11.40958,-11.96889c1.49533,-2.1753 0.02228,-4.68708 1.93427,-6.90567c4.09681,-4.75383 12.0024,-9.19277 15.40514,-13.34615c4.06129,-4.95721 5.20353,-8.90264 10.96161,-12.69503c3.47177,-2.28658 12.49138,-5.32761 15.94654,-6.81028c7.72355,-3.31433 11.09274,-7.22344 16.74753,-6.82537c6.49512,0.45722 14.69098,5.69325 13.93695,8.89833c-0.68904,2.92899 -0.83014,9.33247 -2.55039,12.28468c-2.75501,4.72813 -7.92386,8.39087 -14.68873,14.19826c-2.73731,2.34988 -5.66017,7.55129 -8.99386,10.72822c-3.53288,3.36678 -7.52294,4.76409 -12.09189,9.21366c-10.39093,10.11947 -5.65624,18.05118 -9.71033,23.94877z" fill="#a3a3a3"/><path d="M378.02706,144.80187c-5.07939,5.0594 -10.8797,7.47156 -12.95534,5.38767c-2.07565,-2.08389 0.35937,-7.8746 5.43875,-12.93397c5.07939,-5.0594 10.8797,-7.47156 12.95534,-5.38767c2.07565,2.08389 -0.35937,7.8746 -5.43875,12.93397z" fill="#0d0d0d"/></g><path d="M387.46463,155.35561c-5.89256,5.37334 -19.08169,-5.3958 -18.02306,-12.73365c0.17369,-1.20406 1.80562,-3.10888 2.77252,-3.9906c1.34806,-1.22924 3.90465,-2.72392 5.66936,-2.43206c7.21486,1.19324 15.09255,14.13051 9.58116,19.15628z" fill="#2f323e"/><path d="M425.97727,251.12301c-0.73511,1.25451 -28.21624,-2.89468 -50.46537,-15.93353c-22.21512,-13.01892 -39.19944,-34.92561 -38.46547,-36.17818c0.73149,-1.2483 18.29961,19.31654 40.44246,32.28483c22.32793,13.07669 49.22596,18.56814 48.48833,19.82688z" fill="#686e88"/><path d="M426.02034,250.30656c-2.03915,3.47985 -39.74984,58.69725 -79.7711,35.24558c-40.02126,-23.45167 -10.0603,-85.82035 -8.02118,-89.30023c2.03915,-3.47985 -24.61572,53.24687 15.40554,76.69855c40.02126,23.45167 74.42588,-26.12374 72.38676,-22.64387z" fill="#dadada"/><path d="M362.90062,245.2521l14.48686,-24.72245l9.28065,5.4383l-14.48686,24.72245z" fill="#24262f"/><path d="M350.58929,167.14746c15.55956,-26.55304 49.69852,-35.46494 76.25155,-19.90543c26.553,15.55953 35.46499,49.69852 19.90543,76.25155c-15.55953,26.553 -111.71649,-29.79309 -96.15696,-56.34609z" fill="#dadada"/><path d="M362.5701,168.25136c6.69254,-11.42112 21.37654,-15.25433 32.79764,-8.56182c11.42112,6.69254 15.25439,21.37653 8.56182,32.79764c-6.69254,11.42112 -21.37654,15.25433 -32.79766,8.56179c-11.42112,-6.69254 -15.25433,-21.37654 -8.56182,-32.79764z" fill="#000000"/><path d="M395.747,188.77651c6.69254,-11.42112 21.37653,-15.25439 32.79764,-8.56182c11.42112,6.69254 15.25433,21.37654 8.56182,32.79764c-6.69254,11.42112 -21.37652,15.25436 -32.79764,8.56182c-11.42112,-6.69254 -15.25436,-21.37652 -8.56182,-32.79764z" fill="#000000"/><path d="M450.28583,232.94631c-4.09793,6.78911 -30.59086,17.31642 -70.93774,-6.32608c-40.34687,-23.64246 -42.01073,-52.13762 -38.09454,-59.03317c12.13592,-21.36885 12.26624,10.61413 52.61312,34.25659c40.34687,23.64246 69.63432,9.20882 56.41918,31.10264z" fill="#ababab"/><path d="M376.03681,198.06097c10.59489,-18.08063 44.48791,-54.55943 49.95968,-51.35307c5.47177,3.20636 -5.87517,47.88155 -16.47007,65.96218c-10.59489,18.08063 -44.08451,3.47152 -33.48964,-14.60909z" fill="#ababab"/><path d="M411.89166,211.27633c-0.7835,1.33711 -17.48,12.79464 -26.89543,7.27739c-9.41544,-5.51725 -7.98444,-25.92004 -7.20092,-27.25717c0.7835,-1.33711 34.87987,18.6427 34.09635,19.97978z" fill="#1d1d1d"/><g><path d="M487.62822,127.15855c-3.52002,6.0071 -22.73995,1.28641 -42.92892,-10.54394c-20.18895,-11.83033 -33.70179,-26.29041 -30.18178,-32.29748c0.58225,-0.9936 2.7228,-3.68461 6.45132,-2.39298c14.40386,4.98969 50.34786,26.37658 63.77405,38.1614c4.10958,3.60716 3.57379,5.89807 2.88531,7.07297z" fill="#101010"/><path d="M486.72679,127.81509c-7.56646,12.91249 -21.34027,32.6954 -40.04101,33.35056c-13.2771,0.46516 -31.74323,-15.38887 -40.12447,-20.30012c-20.18625,-11.82873 -5.87387,-33.80606 7.06461,-55.88614c4.65776,-7.94868 6.26863,2.85951 19.69907,7.73947c11.24536,4.08601 22.86182,16.72097 34.15417,20.47823c12.68451,4.22047 23.62841,7.14201 19.24766,14.61797z" fill="#0d0d0d"/></g><g><path d="M473.98005,172.72635c-0.82486,1.4077 -22.18765,-9.57752 -47.71509,-24.53611c-25.52744,-14.95859 -45.55285,-28.22603 -44.72798,-29.63373c0.82486,-1.4077 22.18765,9.57752 47.71509,24.53611c25.52744,14.95859 45.55285,28.22603 44.72798,29.63373z" fill="#101010"/><path d="M473.37259,172.648c-1.77306,3.02584 -6.67346,6.68149 -25.10094,-1.39527c-13.08309,-5.73431 -38.69371,-21.92107 -49.29126,-28.13099c-25.52405,-14.9566 -21.07047,-19.46221 -18.03856,-24.63633c1.09146,-1.86263 10.31788,7.67987 25.95623,16.14299c13.09407,7.08618 28.60513,18.09394 41.5985,25.03766c14.59524,7.79974 25.90258,11.23007 24.87603,12.98196z" fill="#0d0d0d"/></g><path d="M465.7428,157.9586c-0.66896,1.14165 -1.89501,5.21431 -5.24423,4.50543c-2.83669,-0.60043 -6.52787,-2.99276 -11.25936,-5.24644c-4.85065,-2.31045 -10.7713,-4.51494 -16.06521,-7.77076c-2.6728,-1.64384 -3.96278,-4.13754 -6.68304,-5.73153c-4.10573,-2.40589 -9.43393,-4.34171 -14.00179,-7.31203c-3.96702,-2.57963 -7.20353,-6.2076 -10.52666,-8.2587c-4.12774,-2.54774 -7.12645,-3.20667 -9.1008,-5.20105c-3.32906,-3.36281 1.21234,-5.13556 2.01747,-6.50958c0.67506,-1.15204 1.77402,-6.14886 5.17437,-5.41797c3.15026,0.67715 8.5227,2.08316 13.69951,5.54896c3.77285,2.52588 7.05648,6.80343 11.19492,9.45684c3.20912,2.05755 5.90466,2.73444 9.18304,4.65551c3.28432,1.92454 5.97092,4.6752 9.70482,6.47944c4.39548,2.12394 9.58891,3.07465 13.79371,4.84544c5.90517,2.48687 10.39325,5.68208 12.64695,8.05689c2.9006,3.05648 -3.78028,6.61381 -4.53372,7.89957z" fill="#801d1d"/></g><g stroke-width="0" stroke-linecap="butt"><path d="M339.94763,152.7133c11.54866,-21.22387 38.11606,-29.06717 59.33993,-17.51851c21.22387,11.54866 29.06717,38.11606 17.51851,59.33993c-11.54866,21.22387 -38.11606,29.06717 -59.33993,17.51851c-21.22387,-11.54866 -29.06717,-38.11606 -17.51851,-59.33993z" fill="url(#color-46)" stroke="url(#color-47)"/><path d="M372.38769,170.17784c1.86689,-3.43092 6.16162,-4.69883 9.59255,-2.83194c3.43092,1.86689 4.69883,6.16162 2.83194,9.59255c-1.86689,3.43092 -6.16162,4.69883 -9.59255,2.83194c-3.43092,-1.86689 -4.69883,-6.16162 -2.83194,-9.59255zM376.12172,178.00907c2.39925,1.30552 5.40255,0.41887 6.70808,-1.98038c1.30552,-2.39925 0.41887,-5.40255 -1.98038,-6.70808c-2.39925,-1.30552 -5.40255,-0.41887 -6.70808,1.98038c-1.30552,2.39925 -0.41887,5.40255 1.98038,6.70808z" fill="#ffffff" stroke="url(#color-48)"/></g><g stroke-width="0" stroke-linecap="butt"><path d="M385.78495,179.36271c11.54866,-21.22387 38.11606,-29.06717 59.33993,-17.51851c21.22387,11.54866 29.06717,38.11606 17.51851,59.33993c-11.54866,21.22387 -38.11606,29.06717 -59.33993,17.51851c-21.22387,-11.54866 -29.06717,-38.11606 -17.51851,-59.33993z" fill="url(#color-49)" stroke="url(#color-50)"/><path d="M418.225,196.82725c1.86689,-3.43092 6.16162,-4.69883 9.59255,-2.83194c3.43092,1.86689 4.69883,6.16162 2.83194,9.59255c-1.86689,3.43092 -6.16162,4.69882 -9.59255,2.83194c-3.43092,-1.86689 -4.69883,-6.16161 -2.83194,-9.59254zM421.95903,204.65847c2.39925,1.30551 5.40255,0.41887 6.70807,-1.98038c1.30551,-2.39925 0.41887,-5.40255 -1.98037,-6.70808c-2.39925,-1.30551 -5.40256,-0.41887 -6.70808,1.98038c-1.30551,2.39925 -0.41887,5.40255 1.98038,6.70808z" fill="#ffffff" stroke="url(#color-51)"/></g></g></g></g></svg>