<svg version="1.1" xmlns="http://www.w3.org/2000/svg" xmlns:xlink="http://www.w3.org/1999/xlink" width="46.2" height="46.2" viewBox="0,0,46.2,46.2"><g transform="translate(-336.9,-156.9)"><g stroke-miterlimit="10"><g><path d="M336.9,180c0,-12.75778 10.34222,-23.1 23.1,-23.1c12.75778,0 23.1,10.34222 23.1,23.1c0,12.75778 -10.34222,23.1 -23.1,23.1c-12.75778,0 -23.1,-10.34222 -23.1,-23.1z" fill-opacity="0.21961" fill="#b5bdd4" stroke="#000000" stroke-width="0" stroke-linecap="butt"/><g fill="none" stroke-opacity="0.17647" stroke="#badbff" stroke-width="2.5" stroke-linecap="round"><path d="M357.06667,163.55668c0,0 1.89699,-1.89699 2.58014,-2.58014c0.45006,-0.45006 0.55801,-0.43481 0.9252,-0.01113c0.59855,0.69063 2.36132,2.7246 2.36132,2.7246"/><path d="M362.93334,196.30999c0,0 -1.76278,2.03398 -2.36133,2.72461c-0.36719,0.42368 -0.47513,0.43893 -0.9252,-0.01113c-0.68315,-0.68315 -2.58015,-2.58014 -2.58015,-2.58014"/></g><g fill="none" stroke-opacity="0.17647" stroke="#badbff" stroke-width="2.5" stroke-linecap="round"><path d="M343.55668,182.93334c0,0 -1.89699,-1.897 -2.58014,-2.58014c-0.45007,-0.45007 -0.43481,-0.55801 -0.01113,-0.9252c0.69063,-0.59855 2.7246,-2.36133 2.7246,-2.36133"/><path d="M376.30999,177.06667c0,0 2.03397,1.76278 2.7246,2.36132c0.42368,0.36719 0.43893,0.47513 -0.01113,0.9252c-0.68315,0.68315 -2.58014,2.58015 -2.58014,2.58015"/></g></g></g></g></svg>