<svg version="1.1" xmlns="http://www.w3.org/2000/svg" xmlns:xlink="http://www.w3.org/1999/xlink" width="134.79821" height="364.21319" viewBox="0,0,134.79821,364.21319"><defs><radialGradient cx="391.19056" cy="243.95253" r="6.79851" gradientUnits="userSpaceOnUse" id="color-1"><stop offset="0" stop-color="#bd8544"/><stop offset="1" stop-color="#a1713a"/></radialGradient><radialGradient cx="412.48802" cy="228.82248" r="7.06826" gradientUnits="userSpaceOnUse" id="color-2"><stop offset="0" stop-color="#c19461"/><stop offset="1" stop-color="#95724a"/></radialGradient><radialGradient cx="409.08795" cy="238.62248" r="13.5584" gradientUnits="userSpaceOnUse" id="color-3"><stop offset="0" stop-color="#f2aa58"/><stop offset="1" stop-color="#ba8243"/></radialGradient><radialGradient cx="416.27338" cy="222.71477" r="8.76928" gradientUnits="userSpaceOnUse" id="color-4"><stop offset="0" stop-color="#f2ba7a"/><stop offset="1" stop-color="#cb9c66"/></radialGradient><radialGradient cx="369.34719" cy="227.04631" r="6.79895" gradientUnits="userSpaceOnUse" id="color-5"><stop offset="0" stop-color="#bd8544"/><stop offset="1" stop-color="#a1713a"/></radialGradient><radialGradient cx="368.75299" cy="212.17343" r="12.25979" gradientUnits="userSpaceOnUse" id="color-6"><stop offset="0" stop-color="#f2aa58"/><stop offset="1" stop-color="#ba8243"/></radialGradient><radialGradient cx="376.68796" cy="234.42248" r="13.53177" gradientUnits="userSpaceOnUse" id="color-7"><stop offset="0" stop-color="#f2aa58"/><stop offset="1" stop-color="#ba8243"/></radialGradient><radialGradient cx="411.39068" cy="225.53315" r="8.99317" gradientUnits="userSpaceOnUse" id="color-8"><stop offset="0" stop-color="#bd8544"/><stop offset="1" stop-color="#a1713a"/></radialGradient><radialGradient cx="391.5997" cy="258.5318" r="3.61377" gradientUnits="userSpaceOnUse" id="color-9"><stop offset="0" stop-color="#bd8544"/><stop offset="1" stop-color="#a1713a"/></radialGradient><radialGradient cx="392.52359" cy="263.01731" r="4.28752" gradientUnits="userSpaceOnUse" id="color-10"><stop offset="0" stop-color="#f2aa58"/><stop offset="1" stop-color="#ba8243"/></radialGradient><radialGradient cx="391.35829" cy="248.81516" r="3.61377" gradientUnits="userSpaceOnUse" id="color-11"><stop offset="0" stop-color="#bd8544"/><stop offset="1" stop-color="#a1713a"/></radialGradient><radialGradient cx="390.94636" cy="252.3904" r="4.59875" gradientUnits="userSpaceOnUse" id="color-12"><stop offset="0" stop-color="#f2aa58"/><stop offset="1" stop-color="#ba8243"/></radialGradient><radialGradient cx="395.51172" cy="238.85191" r="3.61377" gradientUnits="userSpaceOnUse" id="color-13"><stop offset="0" stop-color="#bd8544"/><stop offset="1" stop-color="#a1713a"/></radialGradient><radialGradient cx="393.20165" cy="243.76392" r="7.12355" gradientUnits="userSpaceOnUse" id="color-14"><stop offset="0" stop-color="#f2aa58"/><stop offset="1" stop-color="#ba8243"/></radialGradient><radialGradient cx="421.91788" cy="266.17043" r="3.61377" gradientUnits="userSpaceOnUse" id="color-15"><stop offset="0" stop-color="#bd8544"/><stop offset="1" stop-color="#a1713a"/></radialGradient><radialGradient cx="422.05654" cy="270.74801" r="4.28752" gradientUnits="userSpaceOnUse" id="color-16"><stop offset="0" stop-color="#f2aa58"/><stop offset="1" stop-color="#ba8243"/></radialGradient><radialGradient cx="412.14035" cy="266.27041" r="3.61377" gradientUnits="userSpaceOnUse" id="color-17"><stop offset="0" stop-color="#bd8544"/><stop offset="1" stop-color="#a1713a"/></radialGradient><radialGradient cx="412.03403" cy="270.84798" r="4.28752" gradientUnits="userSpaceOnUse" id="color-18"><stop offset="0" stop-color="#f2aa58"/><stop offset="1" stop-color="#ba8243"/></radialGradient><radialGradient cx="401.8728" cy="266.37039" r="3.61377" gradientUnits="userSpaceOnUse" id="color-19"><stop offset="0" stop-color="#bd8544"/><stop offset="1" stop-color="#a1713a"/></radialGradient><radialGradient cx="402.01154" cy="270.94796" r="4.28752" gradientUnits="userSpaceOnUse" id="color-20"><stop offset="0" stop-color="#f2aa58"/><stop offset="1" stop-color="#ba8243"/></radialGradient><radialGradient cx="422.14035" cy="256.51542" r="3.61377" gradientUnits="userSpaceOnUse" id="color-21"><stop offset="0" stop-color="#bd8544"/><stop offset="1" stop-color="#a1713a"/></radialGradient><radialGradient cx="421.61254" cy="260.07539" r="4.59875" gradientUnits="userSpaceOnUse" id="color-22"><stop offset="0" stop-color="#f2aa58"/><stop offset="1" stop-color="#ba8243"/></radialGradient><radialGradient cx="412.11779" cy="256.6154" r="3.61377" gradientUnits="userSpaceOnUse" id="color-23"><stop offset="0" stop-color="#bd8544"/><stop offset="1" stop-color="#a1713a"/></radialGradient><radialGradient cx="411.59001" cy="260.17537" r="4.59875" gradientUnits="userSpaceOnUse" id="color-24"><stop offset="0" stop-color="#f2aa58"/><stop offset="1" stop-color="#ba8243"/></radialGradient><radialGradient cx="402.09528" cy="256.71537" r="3.61377" gradientUnits="userSpaceOnUse" id="color-25"><stop offset="0" stop-color="#bd8544"/><stop offset="1" stop-color="#a1713a"/></radialGradient><radialGradient cx="401.56747" cy="260.27534" r="4.59876" gradientUnits="userSpaceOnUse" id="color-26"><stop offset="0" stop-color="#f2aa58"/><stop offset="1" stop-color="#ba8243"/></radialGradient><radialGradient cx="421.99533" cy="246.36559" r="3.61377" gradientUnits="userSpaceOnUse" id="color-27"><stop offset="0" stop-color="#bd8544"/><stop offset="1" stop-color="#a1713a"/></radialGradient><radialGradient cx="422.1347" cy="251.78889" r="7.12356" gradientUnits="userSpaceOnUse" id="color-28"><stop offset="0" stop-color="#f2aa58"/><stop offset="1" stop-color="#ba8243"/></radialGradient><radialGradient cx="402.31778" cy="246.32534" r="3.61377" gradientUnits="userSpaceOnUse" id="color-29"><stop offset="0" stop-color="#bd8544"/><stop offset="1" stop-color="#a1713a"/></radialGradient><radialGradient cx="402.08965" cy="251.74864" r="7.12356" gradientUnits="userSpaceOnUse" id="color-30"><stop offset="0" stop-color="#f2aa58"/><stop offset="1" stop-color="#ba8243"/></radialGradient><radialGradient cx="412.09528" cy="246.46557" r="3.61377" gradientUnits="userSpaceOnUse" id="color-31"><stop offset="0" stop-color="#bd8544"/><stop offset="1" stop-color="#a1713a"/></radialGradient><radialGradient cx="412.11216" cy="251.88887" r="7.12356" gradientUnits="userSpaceOnUse" id="color-32"><stop offset="0" stop-color="#f2aa58"/><stop offset="1" stop-color="#ba8243"/></radialGradient><radialGradient cx="410.77016" cy="239.27667" r="15.53575" gradientUnits="userSpaceOnUse" id="color-33"><stop offset="0" stop-color="#f2aa58"/><stop offset="1" stop-color="#ba8243"/></radialGradient><radialGradient cx="410.76388" cy="199.69454" r="26.38224" gradientUnits="userSpaceOnUse" id="color-34"><stop offset="0" stop-color="#101010"/><stop offset="1" stop-color="#080808"/></radialGradient><radialGradient cx="410.60484" cy="137.78193" r="26.38224" gradientUnits="userSpaceOnUse" id="color-35"><stop offset="0" stop-color="#101010"/><stop offset="1" stop-color="#080808"/></radialGradient><radialGradient cx="308.65559" cy="226.31202" r="8.99317" gradientUnits="userSpaceOnUse" id="color-36"><stop offset="0" stop-color="#bd8544"/><stop offset="1" stop-color="#a1713a"/></radialGradient><radialGradient cx="328.44658" cy="259.31067" r="3.61377" gradientUnits="userSpaceOnUse" id="color-37"><stop offset="0" stop-color="#bd8544"/><stop offset="1" stop-color="#a1713a"/></radialGradient><radialGradient cx="327.52269" cy="263.79618" r="4.28752" gradientUnits="userSpaceOnUse" id="color-38"><stop offset="0" stop-color="#f2aa58"/><stop offset="1" stop-color="#ba8243"/></radialGradient><radialGradient cx="328.68799" cy="249.59403" r="3.61377" gradientUnits="userSpaceOnUse" id="color-39"><stop offset="0" stop-color="#bd8544"/><stop offset="1" stop-color="#a1713a"/></radialGradient><radialGradient cx="329.09991" cy="253.16927" r="4.59875" gradientUnits="userSpaceOnUse" id="color-40"><stop offset="0" stop-color="#f2aa58"/><stop offset="1" stop-color="#ba8243"/></radialGradient><radialGradient cx="324.53455" cy="239.63078" r="3.61377" gradientUnits="userSpaceOnUse" id="color-41"><stop offset="0" stop-color="#bd8544"/><stop offset="1" stop-color="#a1713a"/></radialGradient><radialGradient cx="326.84462" cy="244.54279" r="7.12355" gradientUnits="userSpaceOnUse" id="color-42"><stop offset="0" stop-color="#f2aa58"/><stop offset="1" stop-color="#ba8243"/></radialGradient><radialGradient cx="298.12839" cy="266.9493" r="3.61377" gradientUnits="userSpaceOnUse" id="color-43"><stop offset="0" stop-color="#bd8544"/><stop offset="1" stop-color="#a1713a"/></radialGradient><radialGradient cx="297.98974" cy="271.52688" r="4.28752" gradientUnits="userSpaceOnUse" id="color-44"><stop offset="0" stop-color="#f2aa58"/><stop offset="1" stop-color="#ba8243"/></radialGradient><radialGradient cx="307.90593" cy="267.04928" r="3.61377" gradientUnits="userSpaceOnUse" id="color-45"><stop offset="0" stop-color="#bd8544"/><stop offset="1" stop-color="#a1713a"/></radialGradient><radialGradient cx="308.01224" cy="271.62685" r="4.28752" gradientUnits="userSpaceOnUse" id="color-46"><stop offset="0" stop-color="#f2aa58"/><stop offset="1" stop-color="#ba8243"/></radialGradient><radialGradient cx="318.17348" cy="267.14926" r="3.61377" gradientUnits="userSpaceOnUse" id="color-47"><stop offset="0" stop-color="#bd8544"/><stop offset="1" stop-color="#a1713a"/></radialGradient><radialGradient cx="318.03473" cy="271.72683" r="4.28752" gradientUnits="userSpaceOnUse" id="color-48"><stop offset="0" stop-color="#f2aa58"/><stop offset="1" stop-color="#ba8243"/></radialGradient><radialGradient cx="297.90593" cy="257.29429" r="3.61377" gradientUnits="userSpaceOnUse" id="color-49"><stop offset="0" stop-color="#bd8544"/><stop offset="1" stop-color="#a1713a"/></radialGradient><radialGradient cx="298.43373" cy="260.85426" r="4.59875" gradientUnits="userSpaceOnUse" id="color-50"><stop offset="0" stop-color="#f2aa58"/><stop offset="1" stop-color="#ba8243"/></radialGradient><radialGradient cx="307.92849" cy="257.39427" r="3.61377" gradientUnits="userSpaceOnUse" id="color-51"><stop offset="0" stop-color="#bd8544"/><stop offset="1" stop-color="#a1713a"/></radialGradient><radialGradient cx="308.45627" cy="260.95424" r="4.59875" gradientUnits="userSpaceOnUse" id="color-52"><stop offset="0" stop-color="#f2aa58"/><stop offset="1" stop-color="#ba8243"/></radialGradient><radialGradient cx="317.951" cy="257.49424" r="3.61377" gradientUnits="userSpaceOnUse" id="color-53"><stop offset="0" stop-color="#bd8544"/><stop offset="1" stop-color="#a1713a"/></radialGradient><radialGradient cx="318.47881" cy="261.05421" r="4.59876" gradientUnits="userSpaceOnUse" id="color-54"><stop offset="0" stop-color="#f2aa58"/><stop offset="1" stop-color="#ba8243"/></radialGradient><radialGradient cx="298.05094" cy="247.14446" r="3.61377" gradientUnits="userSpaceOnUse" id="color-55"><stop offset="0" stop-color="#bd8544"/><stop offset="1" stop-color="#a1713a"/></radialGradient><radialGradient cx="297.91158" cy="252.56776" r="7.12356" gradientUnits="userSpaceOnUse" id="color-56"><stop offset="0" stop-color="#f2aa58"/><stop offset="1" stop-color="#ba8243"/></radialGradient><radialGradient cx="317.72849" cy="247.10421" r="3.61377" gradientUnits="userSpaceOnUse" id="color-57"><stop offset="0" stop-color="#bd8544"/><stop offset="1" stop-color="#a1713a"/></radialGradient><radialGradient cx="317.95663" cy="252.52751" r="7.12356" gradientUnits="userSpaceOnUse" id="color-58"><stop offset="0" stop-color="#f2aa58"/><stop offset="1" stop-color="#ba8243"/></radialGradient><radialGradient cx="307.951" cy="247.24444" r="3.61377" gradientUnits="userSpaceOnUse" id="color-59"><stop offset="0" stop-color="#bd8544"/><stop offset="1" stop-color="#a1713a"/></radialGradient><radialGradient cx="307.93412" cy="252.66774" r="7.12356" gradientUnits="userSpaceOnUse" id="color-60"><stop offset="0" stop-color="#f2aa58"/><stop offset="1" stop-color="#ba8243"/></radialGradient><radialGradient cx="309.27611" cy="240.05554" r="15.53575" gradientUnits="userSpaceOnUse" id="color-61"><stop offset="0" stop-color="#f2aa58"/><stop offset="1" stop-color="#ba8243"/></radialGradient><radialGradient cx="340.37189" cy="338.20661" r="8.6" gradientUnits="userSpaceOnUse" id="color-62"><stop offset="0" stop-color="#bd8544"/><stop offset="1" stop-color="#a1713a"/></radialGradient><radialGradient cx="375.37189" cy="334.60661" r="8.6" gradientUnits="userSpaceOnUse" id="color-63"><stop offset="0" stop-color="#bd8544"/><stop offset="1" stop-color="#a1713a"/></radialGradient><radialGradient cx="309.28239" cy="200.47341" r="26.38224" gradientUnits="userSpaceOnUse" id="color-64"><stop offset="0" stop-color="#101010"/><stop offset="1" stop-color="#080808"/></radialGradient><radialGradient cx="309.44143" cy="138.5608" r="26.38224" gradientUnits="userSpaceOnUse" id="color-65"><stop offset="0" stop-color="#101010"/><stop offset="1" stop-color="#080808"/></radialGradient><radialGradient cx="376.37312" cy="305.34978" r="28.3148" gradientUnits="userSpaceOnUse" id="color-66"><stop offset="0" stop-color="#111111"/><stop offset="1" stop-color="#0b0b0b"/></radialGradient><radialGradient cx="377.24812" cy="243.3498" r="28.3148" gradientUnits="userSpaceOnUse" id="color-67"><stop offset="0" stop-color="#111111"/><stop offset="1" stop-color="#0b0b0b"/></radialGradient><radialGradient cx="340.62315" cy="304.70626" r="28.3148" gradientUnits="userSpaceOnUse" id="color-68"><stop offset="0" stop-color="#111111"/><stop offset="1" stop-color="#0b0b0b"/></radialGradient><radialGradient cx="341.49815" cy="242.70627" r="28.3148" gradientUnits="userSpaceOnUse" id="color-69"><stop offset="0" stop-color="#111111"/><stop offset="1" stop-color="#0b0b0b"/></radialGradient><radialGradient cx="402.24078" cy="356.58079" r="8.11571" gradientUnits="userSpaceOnUse" id="color-70"><stop offset="0" stop-color="#c19461"/><stop offset="1" stop-color="#95724a"/></radialGradient><radialGradient cx="372.55793" cy="349.83234" r="20.37938" gradientUnits="userSpaceOnUse" id="color-71"><stop offset="0" stop-color="#f2aa58"/><stop offset="1" stop-color="#ba8243"/></radialGradient><radialGradient cx="380.10029" cy="361.5429" r="8.11571" gradientUnits="userSpaceOnUse" id="color-72"><stop offset="0" stop-color="#f2ba7a"/><stop offset="1" stop-color="#cb9c66"/></radialGradient><radialGradient cx="394.49992" cy="360.15351" r="8.11571" gradientUnits="userSpaceOnUse" id="color-73"><stop offset="0" stop-color="#f2ba7a"/><stop offset="1" stop-color="#cb9c66"/></radialGradient><radialGradient cx="312.90219" cy="356.26215" r="8.1157" gradientUnits="userSpaceOnUse" id="color-74"><stop offset="0" stop-color="#c19461"/><stop offset="1" stop-color="#95724a"/></radialGradient><radialGradient cx="342.5851" cy="349.51368" r="20.37938" gradientUnits="userSpaceOnUse" id="color-75"><stop offset="0" stop-color="#f2aa58"/><stop offset="1" stop-color="#ba8243"/></radialGradient><radialGradient cx="335.0427" cy="361.22425" r="8.11571" gradientUnits="userSpaceOnUse" id="color-76"><stop offset="0" stop-color="#f2ba7a"/><stop offset="1" stop-color="#cb9c66"/></radialGradient><radialGradient cx="320.64307" cy="359.83486" r="8.1157" gradientUnits="userSpaceOnUse" id="color-77"><stop offset="0" stop-color="#f2ba7a"/><stop offset="1" stop-color="#cb9c66"/></radialGradient><radialGradient cx="371.9576" cy="137.45646" r="50.23314" gradientUnits="userSpaceOnUse" id="color-78"><stop offset="0" stop-color="#121212"/><stop offset="1" stop-color="#0b0b0b"/></radialGradient><radialGradient cx="360.99122" cy="101.69108" r="7.43367" gradientUnits="userSpaceOnUse" id="color-79"><stop offset="0" stop-color="#ff2525"/><stop offset="1" stop-color="#dc2121"/></radialGradient><radialGradient cx="366.24815" cy="209.62318" r="39.79167" gradientUnits="userSpaceOnUse" id="color-80"><stop offset="0" stop-color="#111111"/><stop offset="1" stop-color="#0b0b0b"/></radialGradient><radialGradient cx="361.91842" cy="82.53639" r="18.61795" gradientUnits="userSpaceOnUse" id="color-81"><stop offset="0" stop-color="#be915f"/><stop offset="1" stop-color="#7f613f"/></radialGradient><radialGradient cx="361.12242" cy="79.50144" r="4.74006" gradientUnits="userSpaceOnUse" id="color-82"><stop offset="0" stop-color="#323232"/><stop offset="1" stop-color="#393939"/></radialGradient><radialGradient cx="361.08855" cy="74.16755" r="6.50065" gradientUnits="userSpaceOnUse" id="color-83"><stop offset="0" stop-color="#636363"/><stop offset="1" stop-color="#484848"/></radialGradient><radialGradient cx="346.17013" cy="72.54317" r="3.07896" gradientUnits="userSpaceOnUse" id="color-84"><stop offset="0" stop-color="#d7d7d7"/><stop offset="1" stop-color="#c6c6c6"/></radialGradient><radialGradient cx="350.20301" cy="69.85789" r="3.98925" gradientUnits="userSpaceOnUse" id="color-85"><stop offset="0" stop-color="#e4e4e4"/><stop offset="1" stop-color="#d9d9d9"/></radialGradient><radialGradient cx="375.65217" cy="72.20125" r="3.1668" gradientUnits="userSpaceOnUse" id="color-86"><stop offset="0" stop-color="#d7d7d7"/><stop offset="1" stop-color="#c6c6c6"/></radialGradient><radialGradient cx="373.32033" cy="72.84664" r="3.19583" gradientUnits="userSpaceOnUse" id="color-87"><stop offset="0" stop-color="#ffffff"/><stop offset="1" stop-color="#d9d9d9"/></radialGradient><radialGradient cx="363.35973" cy="73.41832" r="3.13591" gradientUnits="userSpaceOnUse" id="color-88"><stop offset="0" stop-color="#ffffff"/><stop offset="1" stop-color="#d9d9d9"/></radialGradient><radialGradient cx="359.17348" cy="73.18076" r="3.13591" gradientUnits="userSpaceOnUse" id="color-89"><stop offset="0" stop-color="#d7d7d7"/><stop offset="1" stop-color="#c6c6c6"/></radialGradient><radialGradient cx="368.34406" cy="73.50338" r="3.60025" gradientUnits="userSpaceOnUse" id="color-90"><stop offset="0" stop-color="#e4e4e4"/><stop offset="1" stop-color="#d9d9d9"/></radialGradient><radialGradient cx="354.41408" cy="73.50338" r="3.60025" gradientUnits="userSpaceOnUse" id="color-91"><stop offset="0" stop-color="#ffffff"/><stop offset="1" stop-color="#d9d9d9"/></radialGradient><radialGradient cx="382.69047" cy="8.20827" r="17.19965" gradientUnits="userSpaceOnUse" id="color-92"><stop offset="0" stop-color="#c28846"/><stop offset="1" stop-color="#ab783d"/></radialGradient><radialGradient cx="380.13406" cy="14.20996" r="10.00294" gradientUnits="userSpaceOnUse" id="color-93"><stop offset="0" stop-color="#dca96e"/><stop offset="1" stop-color="#bf925f"/></radialGradient><radialGradient cx="342.70249" cy="7.39568" r="17.19966" gradientUnits="userSpaceOnUse" id="color-94"><stop offset="0" stop-color="#c28846"/><stop offset="1" stop-color="#ab783d"/></radialGradient><radialGradient cx="345.25891" cy="13.39738" r="10.00294" gradientUnits="userSpaceOnUse" id="color-95"><stop offset="0" stop-color="#dca96e"/><stop offset="1" stop-color="#bf925f"/></radialGradient><radialGradient cx="363.58413" cy="49.21728" r="42.2475" gradientUnits="userSpaceOnUse" id="color-96"><stop offset="0" stop-color="#f2aa58"/><stop offset="1" stop-color="#ba8243"/></radialGradient><radialGradient cx="358.8786" cy="51.34661" r="38.19635" gradientUnits="userSpaceOnUse" id="color-97"><stop offset="0" stop-color="#f2ba7a"/><stop offset="1" stop-color="#cb9c66"/></radialGradient><radialGradient cx="333.75719" cy="60.21389" r="8.61337" gradientUnits="userSpaceOnUse" id="color-98"><stop offset="0" stop-color="#c22424"/><stop offset="1" stop-color="#ab2121"/></radialGradient><radialGradient cx="390.80043" cy="60.05137" r="8.61337" gradientUnits="userSpaceOnUse" id="color-99"><stop offset="0" stop-color="#c22424"/><stop offset="1" stop-color="#ab2121"/></radialGradient><radialGradient cx="353.01902" cy="42.96187" r="10.61758" gradientUnits="userSpaceOnUse" id="color-100"><stop offset="0" stop-color="#0e0e0e"/><stop offset="1" stop-color="#000000"/></radialGradient><radialGradient cx="371.21905" cy="43.19962" r="10.61758" gradientUnits="userSpaceOnUse" id="color-101"><stop offset="0" stop-color="#0e0e0e"/><stop offset="1" stop-color="#000000"/></radialGradient><radialGradient cx="199.66559" cy="16.37027" r="0.00125" gradientUnits="userSpaceOnUse" id="color-102"><stop offset="0" stop-color="#ffffff"/><stop offset="1" stop-color="#bababa"/></radialGradient><radialGradient cx="352.28523" cy="41.54968" r="8.31285" gradientUnits="userSpaceOnUse" id="color-103"><stop offset="0" stop-color="#ffffff"/><stop offset="1" stop-color="#bababa"/></radialGradient><radialGradient cx="371.88603" cy="41.98169" r="8.31284" gradientUnits="userSpaceOnUse" id="color-104"><stop offset="0" stop-color="#ffffff"/><stop offset="1" stop-color="#bababa"/></radialGradient><radialGradient cx="374.62619" cy="81.9893" r="2.90862" gradientUnits="userSpaceOnUse" id="color-105"><stop offset="0" stop-color="#d7d7d7"/><stop offset="1" stop-color="#c6c6c6"/></radialGradient><radialGradient cx="372.43988" cy="82.33898" r="2.9193" gradientUnits="userSpaceOnUse" id="color-106"><stop offset="0" stop-color="#ffffff"/><stop offset="1" stop-color="#d9d9d9"/></radialGradient><radialGradient cx="347.86795" cy="79.4137" r="2.90226" gradientUnits="userSpaceOnUse" id="color-107"><stop offset="0" stop-color="#d7d7d7"/><stop offset="1" stop-color="#c6c6c6"/></radialGradient><radialGradient cx="349.75865" cy="84.19682" r="3.73046" gradientUnits="userSpaceOnUse" id="color-108"><stop offset="0" stop-color="#e4e4e4"/><stop offset="1" stop-color="#d9d9d9"/></radialGradient><radialGradient cx="362.91273" cy="84.93285" r="2.90303" gradientUnits="userSpaceOnUse" id="color-109"><stop offset="0" stop-color="#ffffff"/><stop offset="1" stop-color="#d9d9d9"/></radialGradient><radialGradient cx="359.68886" cy="85.05549" r="2.90304" gradientUnits="userSpaceOnUse" id="color-110"><stop offset="0" stop-color="#d7d7d7"/><stop offset="1" stop-color="#c6c6c6"/></radialGradient><radialGradient cx="367.9635" cy="84.07431" r="3.33288" gradientUnits="userSpaceOnUse" id="color-111"><stop offset="0" stop-color="#e4e4e4"/><stop offset="1" stop-color="#d9d9d9"/></radialGradient><radialGradient cx="354.96046" cy="83.46107" r="3.3329" gradientUnits="userSpaceOnUse" id="color-112"><stop offset="0" stop-color="#ffffff"/><stop offset="1" stop-color="#d9d9d9"/></radialGradient><radialGradient cx="361.19405" cy="86.84706" r="18.71287" gradientUnits="userSpaceOnUse" id="color-113"><stop offset="0" stop-color="#d5a46b"/><stop offset="1" stop-color="#cc9c66"/></radialGradient><radialGradient cx="361.23016" cy="65.12171" r="18.08803" gradientUnits="userSpaceOnUse" id="color-114"><stop offset="0" stop-color="#f2ba7a"/><stop offset="1" stop-color="#d7a56c"/></radialGradient><radialGradient cx="362.36295" cy="55.66695" r="5.24052" gradientUnits="userSpaceOnUse" id="color-115"><stop offset="0" stop-color="#0e0e0e"/><stop offset="1" stop-color="#000000"/></radialGradient></defs><g transform="translate(-292.62403,-2.89342)"><g data-paper-data="{&quot;isPaintingLayer&quot;:true}" fill-rule="nonzero" stroke-linejoin="miter" stroke-miterlimit="10" stroke-dasharray="" stroke-dashoffset="0" style="mix-blend-mode: normal"><g stroke="none" stroke-width="0" stroke-linecap="butt"><path d="M384.50468,245.31248c-1.37314,-3.49456 0.34661,-7.44062 3.84117,-8.81377c3.49456,-1.37314 7.44062,0.34661 8.81376,3.84117c1.37314,3.49456 -0.3466,7.44062 -3.84117,8.81376c-3.49456,1.37314 -7.44062,-0.3466 -8.81376,-3.84117z" fill="url(#color-1)"/><path d="M410.26748,234.63835c-3.46681,-1.79268 -4.82394,-6.05633 -3.03127,-9.52313c1.79267,-3.4668 6.05635,-4.82396 9.52315,-3.03128c3.4668,1.79268 4.82395,6.05634 3.03127,9.52315c-1.79267,3.4668 -6.05634,4.82394 -9.52314,3.03127z" fill="url(#color-2)"/><path d="M388.29192,234.91392l19.38148,-11.15669l7.73531,13.43782l-19.38148,11.15668z" fill="url(#color-3)"/><path d="M407.19557,223.55829c0,0 2.05451,-3.7828 3.50199,-6.20237c0.88367,-1.47716 6.17759,-1.85154 9.10102,-0.53981c4.08346,1.83222 5.82137,6.14629 4.59091,8.20311c-1.51085,2.52552 -3.88799,6.49912 -3.88799,6.49912z" fill="url(#color-4)"/><path d="M365.69362,222.72392c2.84611,-2.44891 7.13856,-2.12694 9.58748,0.71919c2.44891,2.84611 2.12694,7.13857 -0.71918,9.58748c-2.84611,2.44891 -7.13857,2.12693 -9.58748,-0.71919c-2.44891,-2.84611 -2.12692,-7.13855 0.71918,-9.58747z" fill="url(#color-5)"/><path d="M371.87685,202.355l5.46381,21.6855l-15.03526,3.78825l-5.4638,-21.6855z" fill="url(#color-6)"/><path d="M375.87998,222.89446l16.94561,14.59315l-10.11793,11.74896l-16.9456,-14.59316z" fill="url(#color-7)"/></g><path d="M419.80735,221.02619c1.32873,4.78445 -1.47268,9.74017 -6.25713,11.0689c-4.78444,1.32873 -9.74017,-1.47268 -11.0689,-6.25713c-1.32873,-4.78444 1.47268,-9.74016 6.25713,-11.06889c4.78445,-1.32873 9.74018,1.47268 11.06891,6.25713z" fill="url(#color-8)" stroke="none" stroke-width="0" stroke-linecap="butt"/><g stroke="none" stroke-width="0" stroke-linecap="butt"><g><path d="M392.22122,262.09172c-1.96609,0.34324 -3.83818,-0.97235 -4.18141,-2.93844c-0.34324,-1.96609 0.97235,-3.83818 2.93844,-4.18141c1.96609,-0.34324 3.83818,0.97235 4.18141,2.93844c0.34324,1.96609 -0.97235,3.83818 -2.93844,4.18141z" fill="url(#color-9)"/><path d="M395.33209,266.31979c-0.83453,0.14569 -2.63693,0.46034 -4.11534,0.71844c-1.25362,0.21886 -2.47867,-0.77384 -2.62308,-1.601c-0.23659,-1.35518 -0.93629,-5.36316 -0.93629,-5.36316l8.44728,-1.47471c0,0 0.73847,4.23 0.97301,5.57348c0.13283,0.76089 -0.87043,1.99417 -1.74558,2.14695z" fill="url(#color-10)"/></g><g><path d="M391.47564,252.42702c-1.99478,0.06482 -3.66441,-1.49971 -3.72923,-3.49449c-0.06482,-1.99478 1.49971,-3.66441 3.49449,-3.72923c1.99478,-0.06481 3.66441,1.49972 3.72923,3.4945c0.06482,1.99477 -1.49971,3.6644 -3.49449,3.72922z" fill="url(#color-11)"/><path d="M396.1517,256.36883c0,0 -0.37791,1.46735 -1.03426,1.48868c-1.87174,0.06082 -5.62383,0.18275 -6.75931,0.21965c-0.63682,0.0207 -1.37308,-0.609 -1.40273,-1.52141c-0.0552,-1.69876 -0.13962,-4.29695 -0.17076,-5.25508c-0.02292,-0.70555 0.37427,-1.57915 1.03062,-1.60048c1.87174,-0.06082 5.62383,-0.18274 6.75931,-0.21964c0.63682,-0.0207 1.37851,0.776 1.40273,1.5214c0.03219,0.99062 0.11946,3.67628 0.1744,5.36689z" fill="url(#color-12)"/></g><g><path d="M398.84361,240.25107c-0.77273,1.84017 -2.8909,2.7055 -4.73107,1.93277c-1.84017,-0.77273 -2.7055,-2.8909 -1.93277,-4.73107c0.77273,-1.84017 2.8909,-2.70551 4.73107,-1.93278c1.84017,0.77273 2.7055,2.8909 1.93277,4.73107z" fill="url(#color-13)"/><path d="M396.27,248.33478c0,0 -1.01393,1.31592 -1.61941,1.06166c-1.72666,-0.72506 -5.18794,-2.17853 -6.23542,-2.61839c-0.58746,-0.24669 -0.9678,-1.18877 -0.57752,-2.11817c0.72663,-1.73039 1.83799,-4.37696 2.24782,-5.35294c0.30179,-0.71869 1.06175,-1.42981 1.66723,-1.17555c1.72666,0.72506 5.18795,2.17853 6.23542,2.61839c0.58746,0.24669 0.89636,1.35888 0.57752,2.11817c-0.42373,1.00908 -1.57251,3.74475 -2.29565,5.46684z" fill="url(#color-14)"/></g><g><path d="M421.91787,269.7842c-1.99583,0 -3.61377,-1.61794 -3.61377,-3.61377c0,-1.99583 1.61794,-3.61377 3.61377,-3.61377c1.99583,0 3.61376,1.61794 3.61376,3.61377c0,1.99584 -1.61793,3.61377 -3.61376,3.61377z" fill="url(#color-15)"/><path d="M424.25526,274.48427c-0.84715,0 -2.67681,0 -4.17758,0c-1.27258,0 -2.30866,-1.18859 -2.30866,-2.02826c0,-1.37568 0,-5.44428 0,-5.44428h8.57504c0,0 0,4.29397 0,5.65778c0,0.7724 -1.20042,1.81476 -2.0888,1.81476z" fill="url(#color-16)"/></g><g><path d="M412.14034,269.88418c-1.99583,0 -3.61377,-1.61794 -3.61377,-3.61377c0,-1.99583 1.61794,-3.61377 3.61377,-3.61377c1.99584,0 3.61377,1.61794 3.61377,3.61377c0,1.99584 -1.61794,3.61377 -3.61377,3.61377z" fill="url(#color-17)"/><path d="M414.23276,274.58425c-0.84715,0 -2.67681,0 -4.17758,0c-1.27258,0 -2.30866,-1.18859 -2.30866,-2.02826c0,-1.37567 0,-5.44427 0,-5.44427h8.57504c0,0 0,4.29396 0,5.65777c0,0.77239 -1.20042,1.81476 -2.0888,1.81476z" fill="url(#color-18)"/></g><g><path d="M401.8728,269.98416c-1.99583,0 -3.61377,-1.61794 -3.61377,-3.61377c0,-1.99583 1.61794,-3.61377 3.61377,-3.61377c1.99584,0 3.61377,1.61794 3.61377,3.61377c0,1.99584 -1.61794,3.61377 -3.61377,3.61377z" fill="url(#color-19)"/><path d="M404.21022,274.68422c-0.84715,0 -2.67681,0 -4.17758,0c-1.27258,0 -2.30866,-1.18859 -2.30866,-2.02826c0,-1.37568 0,-5.44428 0,-5.44428h8.57504c0,0 0,4.29397 0,5.65778c0,0.7724 -1.20042,1.81476 -2.0888,1.81476z" fill="url(#color-20)"/></g><g><path d="M422.14034,260.12918c-1.99583,0 -3.61377,-1.61793 -3.61377,-3.61376c0,-1.99583 1.61794,-3.61377 3.61377,-3.61377c1.99584,0 3.61377,1.61794 3.61377,3.61377c0,1.99583 -1.61794,3.61376 -3.61377,3.61376z" fill="url(#color-21)"/><path d="M425.60386,265.6751c-1.87272,0 -5.62679,0 -6.76288,0c-0.63716,0 -1.35257,-0.65328 -1.35257,-1.56617c0,-1.69966 0,-4.29921 0,-5.25785c0,-0.70593 0.42536,-1.56617 1.08206,-1.56617c1.87272,0 5.62679,0 6.76287,0c0.63716,0 1.35258,0.82038 1.35258,1.56617c0,0.99115 0,3.67822 0,5.36972c0,0 -0.42536,1.4543 -1.08206,1.4543z" fill="url(#color-22)"/></g><g><path d="M412.11781,260.22917c-1.99583,0 -3.61377,-1.61794 -3.61377,-3.61377c0,-1.99583 1.61794,-3.61377 3.61377,-3.61377c1.99584,0 3.61377,1.61794 3.61377,3.61377c0,1.99584 -1.61794,3.61377 -3.61377,3.61377z" fill="url(#color-23)"/><path d="M415.5813,265.77506c-1.87272,0 -5.62679,0 -6.76288,0c-0.63716,0 -1.35257,-0.65328 -1.35257,-1.56617c0,-1.69966 0,-4.29921 0,-5.25785c0,-0.70593 0.42536,-1.56617 1.08206,-1.56617c1.87272,0 5.62679,0 6.76287,0c0.63716,0 1.35258,0.82038 1.35258,1.56617c0,0.99115 0,3.67822 0,5.36972c0,0 -0.42536,1.4543 -1.08206,1.4543z" fill="url(#color-24)"/></g><g><path d="M402.09526,260.32914c-1.99583,0 -3.61377,-1.61794 -3.61377,-3.61377c0,-1.99583 1.61794,-3.61377 3.61377,-3.61377c1.99584,0 3.61377,1.61794 3.61377,3.61377c0,1.99584 -1.61794,3.61377 -3.61377,3.61377z" fill="url(#color-25)"/><path d="M406.64088,264.42075c0,0 -0.42536,1.4543 -1.08206,1.4543c-1.87272,0 -5.62679,0 -6.76288,0c-0.63716,0 -1.35257,-0.65328 -1.35257,-1.56617c0,-1.69966 0,-4.29921 0,-5.25785c0,-0.70593 0.42536,-1.56617 1.08206,-1.56617c1.87272,0 5.62679,0 6.76287,0c0.63715,0 1.35257,0.82038 1.35257,1.56617c0,0.99115 0,3.67822 0,5.36972z" fill="url(#color-26)"/></g><g><path d="M421.99531,249.97936c-1.99583,0 -3.61377,-1.61794 -3.61377,-3.61377c0,-1.99583 1.61794,-3.61377 3.61377,-3.61377c1.99584,0 3.61377,1.61794 3.61377,3.61377c0,1.99584 -1.61794,3.61377 -3.61377,3.61377z" fill="url(#color-27)"/><path d="M426.73346,254.8153c0,0 -0.42536,1.60584 -1.08206,1.60584c-1.87272,0 -5.62678,0 -6.76287,0c-0.63716,0 -1.35258,-0.72135 -1.35258,-1.72937c0,-1.87677 0,-4.74721 0,-5.80575c0,-0.77948 0.42537,-1.72937 1.08207,-1.72937c1.87272,0 5.62679,0 6.76287,0c0.63716,0 1.35258,0.90586 1.35258,1.72937c0,1.09442 0,4.06151 0,5.92927z" fill="url(#color-28)"/></g><g><path d="M402.31776,249.93911c-1.99583,0 -3.61377,-1.61794 -3.61377,-3.61377c0,-1.99583 1.61794,-3.61377 3.61377,-3.61377c1.99584,0 3.61377,1.61794 3.61377,3.61377c0,1.99584 -1.61794,3.61377 -3.61377,3.61377z" fill="url(#color-29)"/><path d="M406.68842,254.77505c0,0 -0.42536,1.60584 -1.08206,1.60584c-1.87272,0 -5.62678,0 -6.76287,0c-0.63716,0 -1.35258,-0.72136 -1.35258,-1.72938c0,-1.87677 0,-4.74721 0,-5.80575c0,-0.77949 0.42537,-1.72937 1.08207,-1.72937c1.87272,0 5.62679,0 6.76287,0c0.63715,0 1.35257,0.90586 1.35257,1.72937c0,1.09443 0,4.06152 0,5.92928z" fill="url(#color-30)"/></g><g><path d="M412.09526,250.07934c-1.99583,0 -3.61377,-1.61794 -3.61377,-3.61377c0,-1.99583 1.61794,-3.61377 3.61377,-3.61377c1.99584,0 3.61377,1.61794 3.61377,3.61377c0,1.99584 -1.61794,3.61377 -3.61377,3.61377z" fill="url(#color-31)"/><path d="M416.7109,254.91528c0,0 -0.42536,1.60584 -1.08206,1.60584c-1.87272,0 -5.62678,0 -6.76287,0c-0.63716,0 -1.35258,-0.72135 -1.35258,-1.72937c0,-1.87677 0,-4.74721 0,-5.80575c0,-0.77948 0.42537,-1.72937 1.08207,-1.72937c1.87272,0 5.62679,0 6.76287,0c0.63716,0 1.35258,0.90586 1.35258,1.72937c0,1.09442 0,4.06151 0,5.92927z" fill="url(#color-32)"/></g><path d="M411.88649,229.04864c8.58016,0 15.53575,-0.01342 15.53575,15.65133c0,2.00836 -15.53335,1.377 -15.53335,1.377c0,0 -15.53815,0.53162 -15.53815,-1.377c0,-15.66475 6.95559,-15.65133 15.53575,-15.65133z" fill="url(#color-33)"/></g><g><path d="M413.8762,179.73169c-6.38154,1.77228 -12.99152,-1.96427 -14.7638,-8.34581c-1.77228,-6.38154 1.96427,-12.99152 8.34581,-14.7638c6.38154,-1.77228 12.99152,1.96427 14.7638,8.34581c1.77228,6.38154 -1.96427,12.99152 -8.34581,14.7638z" fill="#060606" stroke="none" stroke-width="0" stroke-linecap="butt"/><path d="M427.13454,220.37653c0.00988,4.34951 -3.85547,7.38507 -6.41901,7.50284c-5.78787,0.26591 -13.93149,-0.07628 -18.0091,0.11105c-3.37536,0.15507 -7.97413,-2.4963 -7.984,-6.84114c-0.02595,-11.42306 -0.07519,-33.32869 -0.09073,-40.17122c-0.00922,-4.05803 2.87079,-8.83511 6.10917,-8.98389c6.36286,-0.29233 14.90233,-0.44948 18.69327,-0.62364c2.86017,-0.13141 7.36394,3.71225 7.37229,7.39036c0.0152,6.69146 0.30153,29.90941 0.32812,41.61562z" fill="url(#color-34)" stroke="none" stroke-width="0" stroke-linecap="butt"/><path d="M410.59064,227.71964v-55.51228" fill="none" stroke-opacity="0.11373" stroke="#000000" stroke-width="1" stroke-linecap="round"/></g><g><path d="M407.50217,120.60667c-6.62307,0 -11.99213,-5.36906 -11.99213,-11.99213c0,-6.62307 5.36906,-11.99213 11.99213,-11.99213c6.62307,0 11.99213,5.36906 11.99213,11.99213c0,6.62307 -5.36906,11.99213 -11.99213,11.99213z" fill="#060606" stroke="none" stroke-width="0" stroke-linecap="butt"/><path d="M420.55649,165.96674c-5.78787,0.26591 -13.93149,-0.07628 -18.0091,0.11105c-3.37536,0.15507 -7.97413,-2.4963 -7.984,-6.84114c-0.02595,-11.42305 -0.07519,-33.32869 -0.09073,-40.17122c-0.00922,-4.05803 2.87079,-8.8351 6.10917,-8.98388c6.36286,-0.29232 14.90232,-0.44946 18.69327,-0.62363c2.86017,-0.13141 7.36394,3.71225 7.37229,7.39036c0.01519,6.69146 0.30152,29.90941 0.32811,41.61562c0.00988,4.34951 -3.85547,7.38507 -6.41901,7.50284z" fill="url(#color-35)" stroke="none" stroke-width="0" stroke-linecap="butt"/><path d="M410.59064,110.46964v55.26228" fill="none" stroke-opacity="0.11373" stroke="#000000" stroke-width="1" stroke-linecap="round"/></g><g fill="none" stroke="none" stroke-width="1" stroke-linecap="butt" font-family="sans-serif" font-weight="normal" font-size="12" text-anchor="start"><g/><g/></g><g fill="none" stroke="none" stroke-width="1" stroke-linecap="butt" font-family="sans-serif" font-weight="normal" font-size="12" text-anchor="start"><g/><g/></g><path d="" fill="#9966ff" stroke="none" stroke-width="0.5" stroke-linecap="butt"/><g fill="none" stroke="none" stroke-width="1" stroke-linecap="butt" font-family="sans-serif" font-weight="normal" font-size="12" text-anchor="start"><g/><g/></g><g fill="none" stroke="none" stroke-width="1" stroke-linecap="butt" font-family="sans-serif" font-weight="normal" font-size="12" text-anchor="start"><g/><g/></g><path d="" fill="#9966ff" stroke="none" stroke-width="0.5" stroke-linecap="butt"/><g fill="none" stroke="none" stroke-width="1" stroke-linecap="butt" font-family="sans-serif" font-weight="normal" font-size="12" text-anchor="start"><g/><g/></g><g fill="none" stroke="none" stroke-width="1" stroke-linecap="butt" font-family="sans-serif" font-weight="normal" font-size="12" text-anchor="start"><g/><g/></g><path d="" fill="#9966ff" stroke="none" stroke-width="0.5" stroke-linecap="butt"/><path d="M300.23892,221.80507c1.32873,-4.78445 6.28446,-7.58586 11.06891,-6.25713c4.78445,1.32873 7.58586,6.28445 6.25713,11.06889c-1.32873,4.78445 -6.28446,7.58586 -11.0689,6.25713c-4.78445,-1.32873 -7.58586,-6.28445 -6.25713,-11.0689z" fill="url(#color-36)" stroke="none" stroke-width="0" stroke-linecap="butt"/><g stroke="none" stroke-width="0" stroke-linecap="butt"><g><path d="M324.88661,258.68918c0.34323,-1.96609 2.21532,-3.28168 4.18141,-2.93844c1.96609,0.34323 3.28168,2.21532 2.93844,4.18141c-0.34323,1.96609 -2.21532,3.28168 -4.18141,2.93844c-1.96609,-0.34323 -3.28168,-2.21532 -2.93844,-4.18141z" fill="url(#color-37)"/><path d="M322.96861,264.95171c0.23454,-1.34348 0.97301,-5.57348 0.97301,-5.57348l8.44728,1.47471c0,0 -0.6997,4.00798 -0.93629,5.36316c-0.14441,0.82716 -1.36946,1.81986 -2.62308,1.601c-1.47841,-0.2581 -3.28081,-0.57275 -4.11534,-0.71844c-0.87515,-0.15278 -1.87841,-1.38606 -1.74558,-2.14695z" fill="url(#color-38)"/></g><g><path d="M325.07615,249.47667c0.06482,-1.99478 1.73445,-3.55931 3.72923,-3.4945c1.99478,0.06482 3.55931,1.73445 3.49449,3.72923c-0.06482,1.99478 -1.73445,3.55931 -3.72923,3.49449c-1.99478,-0.06482 -3.55931,-1.73445 -3.49449,-3.72922z" fill="url(#color-39)"/><path d="M323.89458,257.14771c0.05494,-1.69061 0.14221,-4.37627 0.1744,-5.36689c0.02422,-0.7454 0.76591,-1.5421 1.40273,-1.5214c1.13548,0.0369 4.88757,0.15882 6.75931,0.21964c0.65635,0.02133 1.05354,0.89493 1.03062,1.60048c-0.03114,0.95813 -0.11556,3.55632 -0.17076,5.25508c-0.02965,0.91241 -0.76591,1.54211 -1.40273,1.52141c-1.13548,-0.0369 -4.88757,-0.15883 -6.75931,-0.21965c-0.65635,-0.02133 -1.03426,-1.48868 -1.03426,-1.48868z" fill="url(#color-40)"/></g><g><path d="M321.20267,241.02993c-0.77273,-1.84017 0.0926,-3.95834 1.93277,-4.73107c1.84017,-0.77273 3.95834,0.09261 4.73107,1.93278c0.77273,1.84017 -0.0926,3.95834 -1.93277,4.73107c-1.84017,0.77273 -3.95834,-0.0926 -4.73107,-1.93277z" fill="url(#color-41)"/><path d="M323.77629,249.11366c-0.72314,-1.72209 -1.87192,-4.45776 -2.29565,-5.46684c-0.31884,-0.75929 -0.00994,-1.87148 0.57752,-2.11817c1.04747,-0.43986 4.50876,-1.89333 6.23542,-2.61839c0.60548,-0.25426 1.36544,0.45686 1.66723,1.17555c0.40983,0.97598 1.52119,3.62255 2.24782,5.35294c0.39028,0.9294 0.00994,1.87148 -0.57752,2.11817c-1.04748,0.43986 -4.50876,1.89333 -6.23542,2.61839c-0.60548,0.25426 -1.61941,-1.06166 -1.61941,-1.06166z" fill="url(#color-42)"/></g><g><path d="M294.51465,266.9493c0,-1.99583 1.61793,-3.61377 3.61376,-3.61377c1.99583,0 3.61377,1.61794 3.61377,3.61377c0,1.99583 -1.61794,3.61377 -3.61377,3.61377c-1.99583,0 -3.61376,-1.61793 -3.61376,-3.61377z" fill="url(#color-43)"/><path d="M293.70222,273.44838c0,-1.36381 0,-5.65778 0,-5.65778h8.57504c0,0 0,4.0686 0,5.44428c0,0.83967 -1.03608,2.02826 -2.30866,2.02826c-1.50077,0 -3.33043,0 -4.17758,0c-0.88838,0 -2.0888,-1.04236 -2.0888,-1.81476z" fill="url(#color-44)"/></g><g><path d="M304.29216,267.04928c0,-1.99583 1.61793,-3.61377 3.61377,-3.61377c1.99583,0 3.61377,1.61794 3.61377,3.61377c0,1.99583 -1.61794,3.61377 -3.61377,3.61377c-1.99583,0 -3.61377,-1.61793 -3.61377,-3.61377z" fill="url(#color-45)"/><path d="M303.72471,273.54836c0,-1.36381 0,-5.65777 0,-5.65777h8.57504c0,0 0,4.0686 0,5.44427c0,0.83967 -1.03608,2.02826 -2.30866,2.02826c-1.50077,0 -3.33043,0 -4.17758,0c-0.88838,0 -2.0888,-1.04237 -2.0888,-1.81476z" fill="url(#color-46)"/></g><g><path d="M314.5597,267.14926c0,-1.99583 1.61793,-3.61377 3.61377,-3.61377c1.99583,0 3.61377,1.61794 3.61377,3.61377c0,1.99583 -1.61794,3.61377 -3.61377,3.61377c-1.99583,0 -3.61377,-1.61793 -3.61377,-3.61377z" fill="url(#color-47)"/><path d="M313.74726,273.64833c0,-1.36381 0,-5.65778 0,-5.65778h8.57504c0,0 0,4.0686 0,5.44428c0,0.83967 -1.03608,2.02826 -2.30866,2.02826c-1.50077,0 -3.33043,0 -4.17758,0c-0.88838,0 -2.0888,-1.04236 -2.0888,-1.81476z" fill="url(#color-48)"/></g><g><path d="M294.29216,257.29429c0,-1.99583 1.61793,-3.61377 3.61377,-3.61377c1.99583,0 3.61377,1.61794 3.61377,3.61377c0,1.99583 -1.61794,3.61376 -3.61377,3.61376c-1.99583,0 -3.61377,-1.61793 -3.61377,-3.61376z" fill="url(#color-49)"/><path d="M293.36036,264.99967c0,-1.6915 0,-4.37857 0,-5.36972c0,-0.74579 0.71542,-1.56617 1.35258,-1.56617c1.13608,0 4.89015,0 6.76287,0c0.6567,0 1.08206,0.86024 1.08206,1.56617c0,0.95864 0,3.55819 0,5.25785c0,0.91289 -0.71541,1.56617 -1.35257,1.56617c-1.13609,0 -4.89016,0 -6.76288,0c-0.6567,0 -1.08206,-1.4543 -1.08206,-1.4543z" fill="url(#color-50)"/></g><g><path d="M304.3147,257.39427c0,-1.99583 1.61793,-3.61377 3.61377,-3.61377c1.99583,0 3.61377,1.61794 3.61377,3.61377c0,1.99583 -1.61794,3.61377 -3.61377,3.61377c-1.99583,0 -3.61377,-1.61793 -3.61377,-3.61377z" fill="url(#color-51)"/><path d="M303.38292,265.09963c0,-1.6915 0,-4.37857 0,-5.36972c0,-0.74579 0.71542,-1.56617 1.35258,-1.56617c1.13608,0 4.89015,0 6.76287,0c0.6567,0 1.08206,0.86024 1.08206,1.56617c0,0.95864 0,3.55819 0,5.25785c0,0.91289 -0.71541,1.56617 -1.35257,1.56617c-1.13609,0 -4.89016,0 -6.76288,0c-0.6567,0 -1.08206,-1.4543 -1.08206,-1.4543z" fill="url(#color-52)"/></g><g><path d="M314.33725,257.49424c0,-1.99583 1.61793,-3.61377 3.61377,-3.61377c1.99583,0 3.61377,1.61794 3.61377,3.61377c0,1.99583 -1.61794,3.61377 -3.61377,3.61377c-1.99583,0 -3.61377,-1.61793 -3.61377,-3.61377z" fill="url(#color-53)"/><path d="M313.40541,265.19962c0,-1.6915 0,-4.37857 0,-5.36972c0,-0.74579 0.71542,-1.56617 1.35257,-1.56617c1.13608,0 4.89015,0 6.76287,0c0.6567,0 1.08206,0.86024 1.08206,1.56617c0,0.95864 0,3.55819 0,5.25785c0,0.91289 -0.71541,1.56617 -1.35257,1.56617c-1.13609,0 -4.89016,0 -6.76288,0c-0.6567,0 -1.08206,-1.4543 -1.08206,-1.4543z" fill="url(#color-54)"/></g><g><path d="M294.4372,247.14446c0,-1.99583 1.61793,-3.61377 3.61377,-3.61377c1.99583,0 3.61377,1.61794 3.61377,3.61377c0,1.99583 -1.61794,3.61377 -3.61377,3.61377c-1.99583,0 -3.61377,-1.61793 -3.61377,-3.61377z" fill="url(#color-55)"/><path d="M293.31281,255.59416c0,-1.86776 0,-4.83485 0,-5.92927c0,-0.82351 0.71542,-1.72937 1.35258,-1.72937c1.13608,0 4.89015,0 6.76287,0c0.6567,0 1.08207,0.94989 1.08207,1.72937c0,1.05854 0,3.92898 0,5.80575c0,1.00802 -0.71542,1.72937 -1.35258,1.72937c-1.13609,0 -4.89015,0 -6.76287,0c-0.6567,0 -1.08206,-1.60584 -1.08206,-1.60584z" fill="url(#color-56)"/></g><g><path d="M314.11475,247.10421c0,-1.99583 1.61793,-3.61377 3.61377,-3.61377c1.99583,0 3.61377,1.61794 3.61377,3.61377c0,1.99583 -1.61794,3.61377 -3.61377,3.61377c-1.99583,0 -3.61377,-1.61793 -3.61377,-3.61377z" fill="url(#color-57)"/><path d="M313.35786,255.55391c0,-1.86776 0,-4.83485 0,-5.92928c0,-0.82351 0.71542,-1.72937 1.35257,-1.72937c1.13608,0 4.89015,0 6.76287,0c0.6567,0 1.08207,0.94988 1.08207,1.72937c0,1.05854 0,3.92898 0,5.80575c0,1.00802 -0.71542,1.72938 -1.35258,1.72938c-1.13609,0 -4.89015,0 -6.76287,0c-0.6567,0 -1.08206,-1.60584 -1.08206,-1.60584z" fill="url(#color-58)"/></g><g><path d="M304.33725,247.24444c0,-1.99583 1.61793,-3.61377 3.61377,-3.61377c1.99583,0 3.61377,1.61794 3.61377,3.61377c0,1.99583 -1.61794,3.61377 -3.61377,3.61377c-1.99583,0 -3.61377,-1.61793 -3.61377,-3.61377z" fill="url(#color-59)"/><path d="M303.33537,255.69414c0,-1.86776 0,-4.83485 0,-5.92927c0,-0.82351 0.71542,-1.72937 1.35258,-1.72937c1.13608,0 4.89015,0 6.76287,0c0.6567,0 1.08207,0.94989 1.08207,1.72937c0,1.05854 0,3.92898 0,5.80575c0,1.00802 -0.71542,1.72937 -1.35258,1.72937c-1.13609,0 -4.89015,0 -6.76287,0c-0.6567,0 -1.08206,-1.60584 -1.08206,-1.60584z" fill="url(#color-60)"/></g><path d="M323.69553,245.47884c0,1.90862 -15.53815,1.377 -15.53815,1.377c0,0 -15.53335,0.63136 -15.53335,-1.377c0,-15.66475 6.95559,-15.65133 15.53575,-15.65133c8.58016,0 15.53575,-0.01342 15.53575,15.65133z" fill="url(#color-61)"/></g><path d="M331.77188,338.20661c0,-4.74965 3.85035,-8.6 8.6,-8.6c4.74965,0 8.6,3.85035 8.6,8.6c0,4.74965 -3.85035,8.6 -8.6,8.6c-4.74965,0 -8.6,-3.85035 -8.6,-8.6z" fill="url(#color-62)" stroke="none" stroke-width="0" stroke-linecap="butt"/><path d="M366.77188,334.60661c0,-4.74965 3.85035,-8.6 8.6,-8.6c4.74965,0 8.6,3.85035 8.6,8.6c0,4.74965 -3.85035,8.6 -8.6,8.6c-4.74965,0 -8.6,-3.85035 -8.6,-8.6z" fill="url(#color-63)" stroke="none" stroke-width="0" stroke-linecap="butt"/><g><path d="M297.82427,165.74676c1.77228,-6.38154 8.38226,-10.11809 14.7638,-8.34581c6.38154,1.77228 10.11809,8.38226 8.34581,14.7638c-1.77228,6.38154 -8.38226,10.11809 -14.7638,8.34581c-6.38154,-1.77228 -10.11809,-8.38226 -8.34581,-14.7638z" fill="#060606" stroke="none" stroke-width="0" stroke-linecap="butt"/><path d="M292.91173,221.15538c0.02659,-11.70621 0.31292,-34.92416 0.32812,-41.61562c0.00835,-3.67811 4.51212,-7.52177 7.37229,-7.39036c3.79094,0.17416 12.33041,0.33131 18.69327,0.62364c3.23838,0.14878 6.11839,4.92586 6.10917,8.98389c-0.01554,6.84253 -0.06478,28.74816 -0.09073,40.17122c-0.00987,4.34484 -4.60864,6.99621 -7.984,6.84114c-4.07761,-0.18733 -12.22123,0.15486 -18.0091,-0.11105c-2.56354,-0.11777 -6.42889,-3.15333 -6.41901,-7.50284z" fill="url(#color-64)" stroke="none" stroke-width="0" stroke-linecap="butt"/><path d="M309.45564,172.98623v55.51228" fill="none" stroke-opacity="0.11373" stroke="#000000" stroke-width="1" stroke-linecap="round"/></g><g><path d="M300.55198,109.39341c0,-6.62307 5.36906,-11.99213 11.99213,-11.99213c6.62307,0 11.99213,5.36906 11.99213,11.99213c0,6.62307 -5.36906,11.99213 -11.99213,11.99213c-6.62307,0 -11.99213,-5.36906 -11.99213,-11.99213z" fill="#060606" stroke="none" stroke-width="0" stroke-linecap="butt"/><path d="M293.07078,159.24277c0.02659,-11.70621 0.31292,-34.92416 0.32811,-41.61562c0.00835,-3.67811 4.51212,-7.52177 7.37229,-7.39036c3.79095,0.17417 12.33041,0.33131 18.69327,0.62363c3.23838,0.14878 6.11839,4.92585 6.10917,8.98388c-0.01554,6.84253 -0.06478,28.74817 -0.09073,40.17122c-0.00987,4.34484 -4.60864,6.99621 -7.984,6.84114c-4.07761,-0.18733 -12.22123,0.15486 -18.0091,-0.11105c-2.56354,-0.11777 -6.42889,-3.15333 -6.41901,-7.50284z" fill="url(#color-65)" stroke="none" stroke-width="0" stroke-linecap="butt"/><path d="M309.45564,111.24851v55.26228" fill="none" stroke-opacity="0.11373" stroke="#000000" stroke-width="1" stroke-linecap="round"/></g><g><path d="M390.65689,282.60451c0,2.65787 -6.15609,1.9375 -13.75,1.9375c-7.59391,0 -13.75,0.72037 -13.75,-1.9375c0,-2.65787 27.5,-2.65787 27.5,0z" fill="#0b0b0b" stroke="none" stroke-width="0" stroke-linecap="butt"/><path d="M365.30198,276.28933c0,-6.25488 5.07058,-11.32547 11.32547,-11.32547c6.25488,0 11.32546,5.07058 11.32546,11.32547c0,6.25488 -5.07058,11.32547 -11.32546,11.32547c-6.25488,0 -11.32547,-5.07058 -11.32547,-11.32547z" fill="#090909" stroke="none" stroke-width="0" stroke-linecap="butt"/><path d="M359.78673,329.86705c0.02659,-11.86125 0.31292,-34.37346 0.32812,-41.15354c0.00495,-2.20891 1.58915,-4.83272 3.47433,-6.57587c0.19574,-0.18099 6.44545,1.31063 12.97679,1.47283c6.71695,0.1668 13.72214,-1.31933 14.04109,-0.79396c1.03467,1.70433 1.68691,4.66345 1.68252,6.62365c-0.01554,6.93315 -0.06478,29.63553 -0.09073,41.20988c-0.00987,4.40239 -4.60864,7.08887 -7.984,6.93174c-4.07761,-0.18982 -12.22123,0.15691 -18.0091,-0.11252c-2.56354,-0.11933 -6.42889,-3.1951 -6.41901,-7.60221z" fill="url(#color-66)" stroke="none" stroke-width="0" stroke-linecap="butt"/><path d="M376.74812,283.85487v53.46631" fill="none" stroke-opacity="0.11373" stroke="#000000" stroke-width="1" stroke-linecap="round"/></g><g><path d="M391.53189,220.60452c0,2.65787 -6.15609,1.9375 -13.75,1.9375c-7.59391,0 -13.75,0.72037 -13.75,-1.9375c0,-2.65787 27.5,-2.65787 27.5,0z" fill="#0b0b0b" stroke="none" stroke-width="0" stroke-linecap="butt"/><path d="M366.46866,214.62267c0,-6.25488 5.07058,-11.32546 11.32547,-11.32546c6.25488,0 11.32547,5.07058 11.32547,11.32546c0,6.25488 -5.07058,11.32547 -11.32547,11.32547c-6.25488,0 -11.32547,-5.07058 -11.32547,-11.32547z" fill="#090909" stroke="none" stroke-width="0" stroke-linecap="butt"/><path d="M360.66173,267.86705c0.02659,-11.86125 0.31292,-34.37346 0.32812,-41.15354c0.00495,-2.20891 1.58915,-4.83272 3.47433,-6.57586c0.19574,-0.18098 6.44545,1.31063 12.97679,1.47283c6.71695,0.1668 13.72214,-1.31934 14.04109,-0.79396c1.03467,1.70433 1.68691,4.66345 1.68252,6.62366c-0.01554,6.93315 -0.06478,29.63553 -0.09073,41.20988c-0.00987,4.40239 -4.60864,7.08887 -7.984,6.93174c-4.07761,-0.18982 -12.22123,0.15691 -18.0091,-0.11252c-2.56354,-0.11933 -6.42889,-3.1951 -6.41901,-7.60221z" fill="url(#color-67)" stroke="none" stroke-width="0" stroke-linecap="butt"/><path d="M376.74812,222.27117v53.33298" fill="none" stroke-opacity="0.11373" stroke="#000000" stroke-width="1" stroke-linecap="round"/></g><g><path d="M354.90698,281.96098c0,2.65787 -6.15609,1.9375 -13.75,1.9375c-7.59391,0 -13.75,0.72037 -13.75,-1.9375c0,-2.65787 27.5,-2.65787 27.5,0z" fill="#0b0b0b" stroke="none" stroke-width="0" stroke-linecap="butt"/><path d="M329.55198,275.6458c0,-6.25488 5.07058,-11.32547 11.32547,-11.32547c6.25488,0 11.32546,5.07058 11.32546,11.32547c0,6.25488 -5.07058,11.32547 -11.32546,11.32547c-6.25488,0 -11.32547,-5.07058 -11.32547,-11.32547z" fill="#090909" stroke="none" stroke-width="0" stroke-linecap="butt"/><path d="M324.03673,329.22352c0.02659,-11.86125 0.31292,-34.37346 0.32812,-41.15354c0.00495,-2.20891 1.58915,-4.83272 3.47433,-6.57587c0.19574,-0.18099 6.44545,1.31063 12.97679,1.47283c6.71695,0.1668 13.72214,-1.31933 14.04109,-0.79396c1.03467,1.70433 1.68691,4.66345 1.68252,6.62365c-0.01554,6.93315 -0.06478,29.63553 -0.09073,41.20988c-0.00987,4.40239 -4.60864,7.08887 -7.984,6.93174c-4.07761,-0.18982 -12.22123,0.15691 -18.0091,-0.11252c-2.56354,-0.11933 -6.42889,-3.1951 -6.41901,-7.60221z" fill="url(#color-68)" stroke="none" stroke-width="0" stroke-linecap="butt"/><path d="M340.99815,283.21133v53.66631" fill="none" stroke-opacity="0.11373" stroke="#000000" stroke-width="1" stroke-linecap="round"/></g><g><path d="M355.78198,219.961c0,2.65787 -6.15609,1.9375 -13.75,1.9375c-7.59391,0 -13.75,0.72037 -13.75,-1.9375c0,-2.65787 27.5,-2.65787 27.5,0z" fill="#0b0b0b" stroke="none" stroke-width="0" stroke-linecap="butt"/><path d="M330.71863,213.97914c0,-6.25488 5.07058,-11.32547 11.32547,-11.32547c6.25488,0 11.32547,5.07059 11.32547,11.32547c0,6.25488 -5.07058,11.32546 -11.32547,11.32546c-6.25488,0 -11.32547,-5.07058 -11.32547,-11.32546z" fill="#090909" stroke="none" stroke-width="0" stroke-linecap="butt"/><path d="M324.91173,267.2235c0.02659,-11.86125 0.31292,-34.37346 0.32812,-41.15354c0.00495,-2.20891 1.58915,-4.83272 3.47433,-6.57586c0.19574,-0.18098 6.44545,1.31063 12.97679,1.47283c6.71695,0.1668 13.72214,-1.31933 14.04109,-0.79396c1.03467,1.70433 1.68691,4.66345 1.68252,6.62365c-0.01554,6.93315 -0.06478,29.63553 -0.09073,41.20988c-0.00987,4.40239 -4.60864,7.08887 -7.984,6.93174c-4.07761,-0.18982 -12.22123,0.15691 -18.0091,-0.11252c-2.56354,-0.11933 -6.42889,-3.1951 -6.41901,-7.60221z" fill="url(#color-69)" stroke="none" stroke-width="0" stroke-linecap="butt"/><path d="M340.99815,274.96062v-53.33298" fill="none" stroke-opacity="0.11373" stroke="#000000" stroke-width="1" stroke-linecap="round"/></g><g stroke="#000000" stroke-width="0" stroke-linecap="butt"><path d="M398.81646,352.07087c4.48218,0 7.57465,5.62887 7.57465,7.93552c0,2.30666 -3.63353,4.1766 -8.1157,4.1766c-4.48218,0 -8.11571,-1.86994 -8.11571,-4.1766c0,-2.30666 4.17458,-7.93552 8.65676,-7.93552z" fill="url(#color-70)"/><path d="M360.69103,361.14741c-0.99204,-0.72081 -0.87659,-6.66869 0.7114,-10.43492c1.35603,-3.21608 1.64037,-8.59062 4.35242,-10.65788c0.52912,-0.40333 16.88716,-0.67599 18.14128,-0.20765c5.69699,2.12753 10.62909,8.65455 13.45338,11.29566c3.2491,3.03836 3.50558,9.29341 3.4589,9.39472c-2.59182,5.62223 -13.89856,4.481 -23.03035,4.481c-6.84498,0 -13.13788,-1.00146 -17.08705,-3.87092z" fill="url(#color-71)"/><path d="M379.04738,354.9945c4.48218,0 7.57466,5.62885 7.57466,7.93551c0,2.30666 -3.63353,4.1766 -8.1157,4.1766c-4.48218,0 -8.11571,-1.86994 -8.11571,-4.1766c0,-2.30666 4.17457,-7.93551 8.65675,-7.93551z" fill="url(#color-72)"/><path d="M395.07075,353.81253c4.48218,0 7.57466,5.62887 7.57466,7.93552c0,2.30666 -3.63353,4.1766 -8.11571,4.1766c-4.48218,0 -8.1157,-1.86993 -8.1157,-4.1766c0,-2.30666 4.17457,-7.93552 8.65675,-7.93552z" fill="url(#color-73)"/></g><g stroke="#000000" stroke-width="0" stroke-linecap="butt"><path d="M316.32659,351.75222c4.48218,0 8.65676,5.62886 8.65676,7.93552c0,2.30667 -3.63354,4.1766 -8.11572,4.1766c-4.48218,0 -8.11569,-1.86994 -8.11569,-4.1766c0,-2.30665 3.09247,-7.93552 7.57465,-7.93552z" fill="url(#color-74)"/><path d="M354.45204,360.82875c-3.94917,2.86945 -10.24206,3.87092 -17.08704,3.87092c-9.13178,0 -20.43854,1.14123 -23.03036,-4.481c-0.04669,-0.1013 0.2098,-6.35636 3.4589,-9.39472c2.82429,-2.64111 7.7564,-9.16813 13.45338,-11.29566c1.25412,-0.46835 17.61216,-0.19568 18.14128,0.20765c2.71205,2.06726 2.99639,7.4418 4.35242,10.65788c1.58799,3.76622 1.70343,9.71411 0.7114,10.43492z" fill="url(#color-75)"/><path d="M336.09565,354.67586c4.48218,0 8.65675,5.62884 8.65675,7.93551c0,2.30667 -3.63354,4.1766 -8.11571,4.1766c-4.48218,0 -8.1157,-1.86994 -8.1157,-4.1766c0,-2.30667 3.09248,-7.93551 7.57466,-7.93551z" fill="url(#color-76)"/><path d="M320.0723,353.49388c4.48218,0 8.65675,5.62886 8.65675,7.93553c0,2.30667 -3.63353,4.1766 -8.1157,4.1766c-4.48218,0 -8.11571,-1.86993 -8.11571,-4.1766c0,-2.30665 3.09248,-7.93553 7.57466,-7.93553z" fill="url(#color-77)"/></g><g><path d="M347.82693,194.61967c0,-6.62307 5.36906,-11.99213 11.99213,-11.99213c6.62307,0 11.99213,5.36906 11.99213,11.99213c0,6.62307 -5.36906,11.99213 -11.99213,11.99213c-6.62307,0 -11.99213,-5.36906 -11.99213,-11.99213z" fill="#060606" stroke="none" stroke-width="0" stroke-linecap="butt"/><g><path d="M319.41187,193.83167c0,0 -3.03132,-14.48309 -5.0797,-32.60246c-2.61304,-23.11416 -3.62655,-52.14564 5.29262,-64.57765c9.22499,-12.85827 76.49154,-8.67641 83.02834,-1.40198c10.14364,11.28827 8.21737,43.36237 4.90525,67.88903c-2.32313,17.20309 -5.32806,30.69307 -5.32806,30.69307c0,0 -28.5566,1.75 -42.44836,1.75c-13.71206,0 -40.37009,-1.75 -40.37009,-1.75z" fill="url(#color-78)" stroke="none" stroke-width="NaN" stroke-linecap="butt"/><path d="M361.08151,89.50027v104.73333" fill="none" stroke-opacity="0.11373" stroke="#000000" stroke-width="1" stroke-linecap="round"/></g><path d="M351.19027,116.03357c0.06188,-10.40516 6.66409,-22.86149 6.66409,-22.86149h6.82865c0,0 6.68809,12.80671 6.59655,22.42198c-0.09153,9.61526 -11.10948,29.39744 -11.10948,29.39744c0,0 -9.04169,-18.55278 -8.9798,-28.95794z" fill="url(#color-79)" stroke="none" stroke-width="0" stroke-linecap="butt"/><path d="M355.43492,88.89094c0,0 3.80108,-0.72794 5.69535,-0.72794c1.96966,0 5.90527,0.72794 5.90527,0.72794c0,0 -0.98255,4.52769 -2.32429,4.52769c-2.27345,0 -5.57815,0 -6.88172,0c-1.05721,0 -2.39461,-4.52769 -2.39461,-4.52769z" fill="#cb1e1e" stroke="none" stroke-width="0" stroke-linecap="butt"/></g><path d="M319.58147,206.63481c0,-3.6983 0,-11.54881 0,-11.54881c0,0 27.05026,2 40.41667,2c13.15809,0 39.16667,-2 39.16667,-2c0,0 0,7.37358 0,10.98849c0,3.52154 -6.22374,10.42818 -14.89957,10.42818c-15.93318,0 -40.13668,0 -49.24888,0c-6.90357,0 -15.43488,-6.44929 -15.43488,-9.86785z" fill="url(#color-80)" stroke="none" stroke-width="0" stroke-linecap="butt"/><g stroke="none" stroke-linecap="butt"><path d="M379.21993,82.8411c0,2.9451 -7.01911,5.02786 -17.30152,5.02786c-10.28242,0 -18.33585,-2.2859 -18.33585,-5.231c0,-2.9451 7.5833,-5.73886 17.86569,-5.73886c10.28242,0 17.77167,2.9969 17.77167,5.942z" fill="url(#color-81)" stroke-width="0"/><g><path d="M365.86248,79.50144c0,1.41554 -2.17637,2.50414 -4.79424,2.50414c-2.61786,0 -4.68588,-1.0886 -4.68588,-2.50414c0,-1.41554 2.01385,-2.03278 4.63171,-2.03278c2.61786,0 4.84841,0.61724 4.84841,2.03278z" fill="url(#color-82)" stroke-width="0"/><path d="M366.17786,81.69113c-0.56585,-0.22634 -0.3395,-0.79219 -0.3395,-0.79219l0.10167,-0.22126c0.14018,-0.60783 -0.41322,-1.1812 -0.53754,-1.79248c-0.20307,-0.99856 0.82111,-1.3772 0.4938,-2.29984c-0.48014,-1.35342 -2.56888,-1.62466 -3.73173,-1.83514c0,0 -0.59961,-0.10902 -0.49059,-0.70862c0.10901,-0.5996 0.70863,-0.49059 0.70863,-0.49059c1.67282,0.3054 4.00928,0.7715 4.66495,2.63406c0.30208,0.85814 -0.63845,1.98001 -0.45421,2.44023c0.39495,0.98657 0.723,1.10643 0.5459,2.27043l-0.16919,0.4559c0,0 -0.22634,0.56585 -0.79219,0.33951z" fill="#2f2f2f" stroke-width="0.5"/><path d="M351.30369,79.50011c0,-0.60944 0.60944,-0.60944 0.60944,-0.60944h0.13542c1.49547,0.02299 0.29505,-1.93663 1.64508,-3.04448c2.21486,-1.81754 4.31198,-0.9342 6.74837,-0.39449c0,0 0.59493,0.1322 0.46272,0.72713c-0.1322,0.59493 -0.72713,0.46272 -0.72713,0.46272c-2.06508,-0.46027 -3.81092,-1.37467 -5.71122,0.14724c-1.46484,1.17316 0.5425,3.28781 -2.41784,3.32075h-0.13542c0,0 -0.60944,0 -0.60944,-0.60944z" fill="#2f2f2f" stroke-width="0.5"/><path d="M368.57274,80.45149c-0.5451,0.27255 -0.81764,-0.27255 -0.81764,-0.27255l-0.25565,-0.79836c0.69031,-3.43613 -3.63575,-2.06426 -5.684,-2.4655c0,0 -0.5976,-0.11952 -0.47808,-0.71712c0.11953,-0.59759 0.71712,-0.47809 0.71712,-0.47809c2.79759,0.57322 7.58464,-0.84237 6.64016,3.89974l0.15063,0.01422c0,0 0.27255,0.5451 -0.27254,0.81764z" fill="#404040" stroke-width="0.5"/><path d="M353.44738,80.20138c-0.56585,-0.22634 -0.33951,-0.79219 -0.33951,-0.79219l0.30466,-0.57496c0.79038,-0.67678 1.90861,-1.13629 2.53514,-1.98147c0.65664,-0.88582 0.29273,-1.71857 1.48041,-2.41514c0.89476,-0.52477 1.86382,-0.36695 2.84042,-0.54805c0,0 0.59961,-0.10902 0.70863,0.49058c0.10901,0.5996 -0.49059,0.70863 -0.49059,0.70863c-0.78089,0.13953 -1.74004,-0.01456 -2.44137,0.39996c-0.91668,0.54181 -0.53485,1.23931 -1.09277,2.05406c-0.66656,0.97341 -1.87138,1.46583 -2.74664,2.21687l0.03381,0.10219c0,0 -0.22634,0.56585 -0.79219,0.33952z" fill="#404040" stroke-width="0.5"/><path d="M359.66651,80.09263v-11.85016h2.84404v11.85016c0,0 -0.98764,0.33857 -1.45587,0.33857c-0.47951,0 -1.38817,-0.33857 -1.38817,-0.33857z" fill="url(#color-83)" stroke-width="0"/></g></g><g stroke="none" stroke-width="0" stroke-linecap="butt"><path d="M345.855,73.69397c-1.73073,0.03869 -3.18174,-1.77211 -3.24093,-4.04451c-0.03077,-1.18145 6.23912,-1.23105 6.26754,-0.1401c0.05919,2.27241 -1.29588,4.14592 -3.0266,4.18461z" fill="url(#color-84)"/><path d="M347.11879,69.33878c0.21058,-1.0737 6.39642,-0.12454 6.16839,1.03821c-0.4386,2.23646 -2.17502,3.81705 -3.87837,3.53036c-1.70335,-0.28669 -2.72862,-2.33211 -2.29002,-4.56857z" fill="url(#color-85)"/><path d="M374.48777,70.14189c-0.04682,-1.11284 6.34255,-1.43599 6.39326,-0.23084c0.09753,2.31799 -1.25459,4.24878 -3.02005,4.31252c-1.76545,0.06374 -3.27569,-1.76368 -3.37322,-4.08168z" fill="url(#color-86)"/><path d="M373.556,74.64674c-1.71497,0.39351 -3.59326,-1.11285 -4.1953,-3.36457c-0.313,-1.17069 5.92141,-2.50605 6.21043,-1.42503c0.60204,2.25172 -0.30016,4.39609 -2.01513,4.7896z" fill="url(#color-87)"/><path d="M360.02834,70.67489c0.11985,-1.08561 6.36662,-0.58473 6.23682,0.59094c-0.24965,2.26128 -1.8482,3.96211 -3.57045,3.79892c-1.72225,-0.16318 -2.91602,-2.1286 -2.66637,-4.38987z" fill="url(#color-88)"/><path d="M358.34402,75.17229c-1.72225,0.16318 -3.32079,-1.53766 -3.57045,-3.79893c-0.1298,-1.17567 6.11696,-1.67654 6.23682,-0.59093c0.24965,2.26128 -0.94412,4.22668 -2.66637,4.38987z" fill="url(#color-89)"/><path d="M364.44436,70.97886c0.13761,-1.24635 7.30932,-0.6713 7.1603,0.67844c-0.28662,2.5961 -2.12185,4.54878 -4.09911,4.36143c-1.97726,-0.18734 -3.34781,-2.44378 -3.06119,-5.03987z" fill="url(#color-90)"/><path d="M353.88141,76.01874c-1.97726,0.18734 -3.81251,-1.76533 -4.09912,-4.36143c-0.14901,-1.34974 7.02269,-1.92479 7.1603,-0.67844c0.28662,2.5961 -1.08391,4.85253 -3.06118,5.03987z" fill="url(#color-91)"/></g><g stroke="none" stroke-width="0" stroke-linecap="butt"><path d="M371.80358,10.76197c3.63902,-4.50076 7.69388,-8.60694 12.24818,-6.47713c4.20153,1.96485 4.48178,7.58041 4.16418,13.46506c-0.297,5.50277 -0.65945,10.68271 -0.65945,10.68271l-21.22051,-10.82862c0,0 2.61017,-3.30793 5.4676,-6.84201z" fill="url(#color-92)"/><path d="M374.04069,11.59518c2.80133,-3.23544 5.9378,-6.45437 9.22934,-4.91509c3.15156,1.47383 3.39008,6.22728 3.23059,10.6819c-0.16512,4.61203 -0.78609,8.90374 -0.78609,8.90374l-16.74193,-8.54325c0,0 2.41024,-3.05757 5.06808,-6.1273z" fill="url(#color-93)"/></g><g stroke="none" stroke-width="0" stroke-linecap="butt"><path d="M359.057,16.79139l-21.22051,10.82862c0,0 -0.36246,-5.17995 -0.65945,-10.68272c-0.31761,-5.88464 -0.03736,-11.50021 4.16418,-13.46505c4.55428,-2.12981 8.60915,1.97637 12.24818,6.47714c2.85743,3.53408 5.4676,6.84201 5.4676,6.84201z" fill="url(#color-94)"/><path d="M356.42041,16.90989l-16.74193,8.54325c0,0 -0.62097,-4.2917 -0.78609,-8.90374c-0.15949,-4.45462 0.07904,-9.20808 3.2306,-10.6819c3.29154,-1.53928 6.42801,1.67965 9.22934,4.91509c2.65785,3.06973 5.06808,6.1273 5.06808,6.1273z" fill="url(#color-95)"/></g><g><path d="M332.11047,45.44335c-0.23015,-17.05196 12.44956,-31.72617 29.50152,-31.95632c17.05196,-0.23015 31.06187,13.40662 31.29203,30.45858c0.05375,3.98253 13.49609,6.14542 12.1702,9.65929c-1.52512,4.04187 -10.59124,20.39918 -24.51809,26.01197c-0.55172,0.22235 0.18815,-10.70914 -5.70159,-14.90489c-7.70811,-5.49112 -23.47362,-2.20191 -25.73885,-0.81362c-6.1748,3.78438 -5.33486,15.8569 -5.85426,15.69174c-15.76452,-5.01273 -20.66299,-18.62057 -23.02529,-25.78085c-0.96296,-2.91878 11.91801,-5.12964 11.87434,-8.3659z" fill="url(#color-96)" stroke="none" stroke-width="0" stroke-linecap="butt"/><path d="M336.68145,49.17439c-0.21109,-15.63891 9.6252,-29.0729 25.04202,-29.28098c15.41683,-0.20809 27.68498,12.7128 27.89605,28.35172c0.0493,3.6525 13.24928,9.11578 13.24928,9.11578c0,0 -3.06892,7.12602 -8.27874,12.22469c-5.97829,5.85075 -14.08796,10.60971 -14.92581,10.9521c-0.49878,0.20383 -0.61909,-10.59138 -5.94481,-14.44046c-6.96996,-5.03742 -21.22315,-1.69854 -23.27092,-0.42569c-5.58204,3.46968 -5.65831,14.50785 -6.12794,14.35629c-1.94477,-0.62764 -8.4734,-2.51762 -13.33298,-7.31411c-5.97174,-5.89422 -9.5817,-15.80963 -9.5817,-15.80963c0,0 15.31561,-4.76161 15.27555,-7.72969z" fill="url(#color-97)" stroke="none" stroke-width="0" stroke-linecap="butt"/><path d="M325.14379,60.21389c0,-4.75704 3.85633,-8.61337 8.61336,-8.61337c4.75703,0 8.61337,3.85633 8.61337,8.61337c0,4.75703 -3.85634,8.61337 -8.61337,8.61337c-4.75703,0 -8.61336,-3.85634 -8.61336,-8.61337z" fill="url(#color-98)" stroke="none" stroke-width="0" stroke-linecap="butt"/><path d="M382.18706,60.05137c0,-4.75704 3.85634,-8.61337 8.61337,-8.61337c4.75703,0 8.61337,3.85633 8.61337,8.61337c0,4.75703 -3.85634,8.61337 -8.61337,8.61337c-4.75703,0 -8.61337,-3.85634 -8.61337,-8.61337z" fill="url(#color-99)" stroke="none" stroke-width="0" stroke-linecap="butt"/><path d="M342.40145,42.96187c0,-5.97149 4.75365,-10.81233 10.61758,-10.81233c5.86392,0 8.13328,4.84084 8.13328,10.81233c0,5.97149 -2.93226,9.23715 -8.7962,9.23715c-5.86392,0 -9.95466,-3.26566 -9.95466,-9.23715z" fill="url(#color-100)" stroke="none" stroke-width="0" stroke-linecap="butt"/><path d="M371.88195,52.43678c-5.86392,0 -8.7962,-2.88345 -8.7962,-8.85494c0,-5.97149 2.26934,-11.19454 8.13328,-11.19454c5.86392,0 10.61758,4.84085 10.61758,10.81234c0,5.97149 -4.09072,9.23715 -9.95466,9.23715z" fill="url(#color-101)" stroke="none" stroke-width="0" stroke-linecap="butt"/><path d="M362.15172,20.40128v42.725" fill="none" stroke-opacity="0.16863" stroke="#4d3b27" stroke-width="0.5" stroke-linecap="round"/></g><path d="M319.57911,37.87104z" fill="url(#color-102)" stroke="none" stroke-width="0" stroke-linecap="butt"/><path d="M343.97239,41.54968c0,-4.59105 3.72179,-8.31285 8.31284,-8.31285c4.59105,0 8.31285,3.72179 8.31285,8.31285c0,4.59105 -3.72179,8.31284 -8.31285,8.31284c-4.59105,0 -8.31284,-3.72178 -8.31284,-8.31283z" fill="url(#color-103)" stroke="none" stroke-width="0" stroke-linecap="butt"/><path d="M363.57318,41.98169c0,-4.59105 3.72179,-8.31284 8.31285,-8.31284c4.59105,0 8.31284,3.72179 8.31284,8.31284c0,4.59105 -3.72179,8.31284 -8.31284,8.31284c-4.59105,0 -8.31285,-3.72178 -8.31285,-8.31283z" fill="url(#color-104)" stroke="none" stroke-width="0" stroke-linecap="butt"/><g><g stroke="none" stroke-width="0" stroke-linecap="butt"><path d="M375.62306,78.98225c1.48197,-0.69643 3.38443,0.68228 4.24928,3.07944c0.44964,1.24631 -4.95145,3.67286 -5.36666,2.52201c-0.86485,-2.39716 -0.36458,-4.90502 1.11738,-5.60145z" fill="url(#color-105)"/><path d="M375.51526,84.40587c0.20247,1.22294 -5.48359,2.55426 -5.70287,1.22987c-0.42174,-2.54734 0.51299,-4.88769 2.0878,-5.22731c1.57481,-0.33962 3.19333,1.4501 3.61507,3.99744z" fill="url(#color-106)"/><path d="M348.52521,83.84273c-0.56805,1.06239 -5.56938,-2.29991 -4.9542,-3.45043c1.18322,-2.21292 3.25144,-3.23444 4.61951,-2.28164c1.36807,0.95281 1.51791,3.51915 0.33469,5.73207z" fill="url(#color-107)"/><path d="M351.14599,79.77794c1.50874,0.617 2.11069,3.09557 1.34449,5.53606c-0.39836,1.26884 -5.83149,-1.06271 -5.46364,-2.23436c0.76621,-2.44048 2.61041,-3.9187 4.11916,-3.3017z" fill="url(#color-108)"/><path d="M362.94855,82.90681c1.59436,-0.1861 3.07418,1.75369 3.30531,4.33266c0.12016,1.34083 -5.66272,1.91209 -5.77367,0.67397c-0.23111,-2.57896 0.87401,-4.82051 2.46837,-5.00662z" fill="url(#color-109)"/><path d="M361.38936,87.79076c-0.11096,1.23813 -5.89383,0.66687 -5.77367,-0.67396c0.23111,-2.57896 1.71094,-4.51876 3.3053,-4.33264c1.59436,0.1861 2.69949,2.42764 2.46837,5.00661z" fill="url(#color-110)"/><path d="M367.18727,81.20555c1.83043,-0.21367 3.52939,2.01335 3.79472,4.97418c0.13795,1.53937 -6.5012,2.19522 -6.62858,0.77376c-0.26533,-2.96083 1.00343,-5.53428 2.83386,-5.74794z" fill="url(#color-111)"/><path d="M357.30125,86.34026c-0.12738,1.42146 -6.76653,0.76563 -6.62858,-0.77375c0.26533,-2.96083 1.9643,-5.18785 3.79473,-4.97418c1.83043,0.21367 3.09919,2.7871 2.83386,5.74793z" fill="url(#color-112)"/></g><path d="M380.88594,81.18706c0,4.63735 -8.42004,8.75944 -19.3931,8.75944c-10.97306,0 -18.87891,-4.44132 -18.87891,-9.07867c0,-2.26342 6.18246,4.76798 18.75745,4.11081c10.39069,0.3718 19.51455,-6.16553 19.51455,-3.79159z" fill="url(#color-113)" stroke="none" stroke-width="0" stroke-linecap="butt"/><path d="M361.00173,85.20127v4.525" fill="none" stroke-opacity="0.16863" stroke="#4d3b27" stroke-width="0.5" stroke-linecap="round"/></g><g><g><path d="M380.20632,68.86271c0,4.33882 -7.38967,3.30968 -17.43308,4.28166c-1.8211,0.17624 -0.7516,-8.01097 -0.7516,-8.01097c0,0 0.39707,8.1933 -1.34647,8.02884c-10.30158,-0.97171 -16.64491,0.27098 -16.64491,-4.11263c0,-5.12555 2.85766,-14.58523 17.94838,-14.58523c15.09072,0 18.22767,9.27278 18.22767,14.39833z" fill="url(#color-114)" stroke="none" stroke-width="0" stroke-linecap="butt"/><path d="M361.93087,71.31051l0.27582,-14.49062" fill="none" stroke-opacity="0.16863" stroke="#4d3b27" stroke-width="0.5" stroke-linecap="round"/><path d="M367.60347,55.66695c0,0.52052 -2.12122,-0.08341 -3.28557,0.44226c-0.41281,0.18637 -1.46374,1.71393 -2.17468,1.6623c-0.84929,-0.06168 -1.37042,-1.3195 -1.88529,-1.68251c-0.58578,-0.413 -3.1355,-0.06808 -3.1355,-0.42204c0,-0.92551 2.34625,-2.39808 5.24052,-2.39808c2.89427,0 5.24052,1.47257 5.24052,2.39808z" fill="url(#color-115)" stroke="none" stroke-width="0" stroke-linecap="butt"/></g><g fill="none" stroke-opacity="0.18431" stroke="#382b1b" stroke-width="1" stroke-linecap="round"><path d="M374.21851,67.19594c0,0 6.42423,-0.21881 12.14404,-3.10221c5.38873,-2.71651 10.31545,0.50471 10.44953,0.53783"/><path d="M395.40431,53.64522c-0.07154,-0.01767 -0.9642,1.96699 -3.35494,3.1836c-1.77504,0.90329 -4.73252,0.87271 -6.90971,1.98083c-5.10314,2.59736 -10.85314,4.06313 -10.85314,4.06313"/></g><g fill="none" stroke-opacity="0.18431" stroke="#382b1b" stroke-width="1" stroke-linecap="round"><path d="M351.6349,62.04039c0,0 -6.22575,-1.59959 -12.52614,-0.44406c-5.93571,1.08865 -9.75562,-3.38987 -9.87495,-3.45941"/><path d="M327.49001,69.07496c0.06367,0.0371 1.4792,-1.61575 4.11583,-2.10969c1.95761,-0.36674 4.78672,0.49566 7.18789,0.04565c5.62812,-1.05477 11.55817,-0.84157 11.55817,-0.84157"/></g></g></g></g></svg>