<svg version="1.1" xmlns="http://www.w3.org/2000/svg" xmlns:xlink="http://www.w3.org/1999/xlink" width="76.33333" height="101" viewBox="0,0,76.33333,101"><g transform="translate(-321.83333,-129.5)"><g data-paper-data="{&quot;isPaintingLayer&quot;:true}" fill-rule="nonzero" stroke-linecap="butt" stroke-linejoin="miter" stroke-miterlimit="10" stroke-dasharray="" stroke-dashoffset="0" style="mix-blend-mode: normal"><path d="M321.83333,230.5v-101h76.33333v101z" fill="#273042" stroke="none" stroke-width="0"/><path d="M329.75471,196.83333v-61.66667h60.49068v61.66667z" fill="#0b0e13" stroke="none" stroke-width="0"/><path d="M343.08343,227.33333v-17.33333h33.83333v17.33333z" fill="#0b0e13" stroke="#000000" stroke-width="0"/><path d="M342.99991,209.125v-11.25h34.25v11.25z" fill="#273042" stroke="#000000" stroke-width="0"/><text transform="translate(347.2102,223.17375) scale(0.37559,0.37559)" font-size="40" xml:space="preserve" fill="#c74444" fill-rule="nonzero" stroke="none" stroke-width="1" stroke-linecap="butt" stroke-linejoin="miter" stroke-miterlimit="10" stroke-dasharray="" stroke-dashoffset="0" font-family="&quot;Agency FB&quot;, Sans Serif" font-weight="normal" text-anchor="start" style="mix-blend-mode: normal"><tspan x="0" dy="0">HARD</tspan></text><g stroke-width="0"><path d="M352.77409,189.41894l2.38998,-7.84243l1.85668,0.56582l-2.38998,7.84243z" fill="#2f323e" stroke="#000000"/><path d="M353.98709,180.80035c-0.4744,-1.71009 0.99634,-6.96716 0.99634,-6.96716l6.34223,1.86881c0,0 -1.8025,4.97942 -2.88082,6.28939c-0.72711,0.8833 -1.7878,0.42335 -2.59374,0.17773c-0.60055,-0.18303 -1.66313,-0.6447 -1.86398,-1.36877z" fill="#2f323e" stroke="#000000"/><g stroke="#000000"><path d="M373.92512,173.71453c0.04718,-1.7326 -0.40879,-2.78717 -0.38705,-4.11328c0.02051,-1.25132 0.52117,-2.79357 0.48631,-3.77338c-0.08612,-2.42145 -0.30666,-4.12893 0.13036,-5.55043c0.27288,-0.8876 1.5262,-2.09555 1.9844,-2.77285c0.5014,-0.74114 3.05749,-0.06841 4.34547,1.14496c1.12134,1.05639 0.96111,2.44971 1.72192,4.60338c0.34037,0.96345 1.39459,3.3257 1.57739,4.44058c0.3032,1.84906 -0.27461,2.80419 -0.51673,4.52887c-0.20286,1.44503 0.36682,3.84227 0.17188,5.53658c-0.09098,0.79074 -0.86418,0.95921 -1.02328,1.65873c-0.19205,0.84447 -0.0765,3.73653 -0.28911,4.48459c-0.60375,2.12422 -1.53334,2.5548 -2.27693,3.76275c-0.88252,1.43367 -0.97534,5.04565 -1.84789,5.78066c-1.27471,1.07379 -3.8694,0.56399 -4.82313,0.34707c-0.93631,-0.21295 -2.40463,0.30329 -3.02188,-0.98396c-0.4776,-0.99601 -0.53375,-3.12573 -0.38123,-5.3779c0.09089,-1.34221 -0.32326,-1.49347 -0.04742,-3.06812c0.16469,-0.94022 0.9457,-3.1721 1.20133,-4.29598c0.43132,-1.8965 2.88826,-2.4119 2.99556,-6.35225z" fill="#a3a3a3"/><path d="M376.82705,159.28112c0.79874,0.03076 1.38546,1.63399 1.31049,3.5809c-0.07497,1.94691 -0.78324,3.50026 -1.58197,3.46952c-0.79874,-0.03076 -1.38547,-1.63397 -1.3105,-3.58088c0.07497,-1.94691 0.78324,-3.50028 1.58198,-3.46953z" fill="#0d0d0d"/></g><path d="M376.99018,161.19439c0.38344,0.2988 0.55585,1.08493 0.55863,1.58073c0.00199,0.35562 -0.07791,1.03259 -0.28647,1.28913c-1.27094,1.56341 -5.85238,0.91253 -5.86452,-1.2547c-0.01134,-2.02704 4.0247,-2.83673 5.59233,-1.61517z" fill="#2f323e" stroke="#000000"/><g stroke="#000000"><path d="M345.49652,173.01405c-0.41463,1.07541 -1.01108,3.36353 -1.39874,4.23579c-0.64925,1.46085 -1.07737,1.35544 -1.75047,2.52022c-1.12946,1.95445 -2.36379,3.6909 -3.31572,4.25126c-1.23026,0.72423 -2.16112,-0.52316 -3.05706,-0.86858c-0.9126,-0.35187 -3.35062,-1.37577 -3.80981,-2.97798c-0.31432,-1.09673 1.62306,-4.14656 1.69009,-5.82874c0.05647,-1.41735 -0.47499,-2.29319 0.20857,-4.39309c0.24071,-0.73947 1.94955,-3.07557 2.2611,-3.88361c0.25808,-0.66935 -0.28976,-1.24042 0.07572,-1.9475c0.78312,-1.51506 2.59292,-3.18716 3.23044,-4.49972c0.7609,-1.56659 0.81398,-2.68161 2.09689,-4.04731c0.77352,-0.82344 2.96599,-2.19626 3.78582,-2.80614c1.83263,-1.3633 2.47668,-2.60919 3.99661,-2.86066c1.7458,-0.28884 4.24262,0.57833 4.24545,1.47314c0.00261,0.81773 0.36923,2.51936 0.10071,3.40828c-0.43003,1.42364 -1.56536,2.71791 -2.98732,4.67977c-0.57536,0.79385 -1.01993,2.35319 -1.70078,3.40328c-0.72154,1.11284 -1.68815,1.73388 -2.61525,3.19831c-2.10848,3.33048 -0.35658,5.12855 -1.05626,6.94326z" fill="#a3a3a3"/><path d="M351.57179,156.23418c-1.02358,1.65783 -2.40471,2.66135 -3.08485,2.24141c-0.68014,-0.41994 -0.40171,-2.10429 0.62187,-3.76211c1.02358,-1.65783 2.40472,-2.66134 3.08486,-2.24139c0.68014,0.41994 0.40171,2.10429 -0.62187,3.76211z" fill="#0d0d0d"/></g><path d="M354.73228,158.42872c-1.21874,1.79211 -5.38451,-0.22274 -5.56752,-2.22924c-0.03003,-0.32924 0.2812,-0.93571 0.48118,-1.22978c0.27882,-0.40998 0.86037,-0.96634 1.34526,-1.00051c1.98248,-0.13967 4.88097,2.78334 3.74106,4.45953z" fill="#2f323e" stroke="#000000"/><path d="M370.95371,181.31515c-0.11518,0.37799 -7.64143,1.01461 -14.34536,-1.02874c-6.69368,-2.04022 -12.56523,-6.75983 -12.45022,-7.13724c0.11463,-0.37612 6.05587,3.95195 12.72724,5.98334c6.72714,2.04838 14.18392,1.80336 14.06833,2.18264z" fill="#686e88" stroke="#000000"/><path d="M370.9136,181.0966c-0.31955,1.04851 -5.24454,12.25211 -17.30327,8.5772c-12.05872,-3.67491 -9.63342,-16.28008 -9.31389,-17.3286c0.31955,-1.04851 -1.5877,9.85671 10.47104,13.53161c12.05872,3.67491 16.46567,-5.82872 16.14613,-4.7802z" fill="#dadada" stroke="#000000"/><path d="M353.90934,183.74191l2.27012,-7.44906l2.79633,0.8522l-2.27011,7.44907z" fill="#24262f" stroke="#000000"/><path d="M345.72823,163.87185c2.4382,-8.00064 10.90057,-12.50987 18.9012,-10.07169c8.00063,2.4382 12.50988,10.90057 10.07168,18.9012c-2.4382,8.00064 -31.41107,-0.82889 -28.97287,-8.82953z" fill="#dadada" stroke="#000000"/><path d="M348.96494,163.40793c1.04873,-3.44128 4.6886,-5.38081 8.12986,-4.33208c3.44128,1.04874 5.38081,4.6886 4.33207,8.12986c-1.04873,3.44128 -4.6886,5.38081 -8.12987,4.33208c-3.44128,-1.04874 -5.38081,-4.6886 -4.33207,-8.12986z" fill="#000000" stroke="#000000"/><path d="M359.66042,166.63856c1.04873,-3.44128 4.68859,-5.38081 8.12986,-4.33207c3.44128,1.04874 5.38081,4.68859 4.33207,8.12986c-1.04873,3.44128 -4.6886,5.38081 -8.12986,4.33208c-3.44128,-1.04874 -5.38081,-4.6886 -4.33207,-8.12987z" fill="#000000" stroke="#000000"/><path d="M376.23304,174.97689c-0.65503,2.05316 -6.99429,6.50713 -19.15113,2.80231c-12.15684,-3.70481 -14.39408,-11.13244 -13.7938,-13.20227c1.86019,-6.41427 3.91204,2.03207 16.06888,5.73688c12.15684,3.70481 18.98842,-1.95806 16.87607,4.66306z" fill="#ababab" stroke="#000000"/><path d="M354.40513,170.43855c1.66024,-5.44784 8.31873,-17.22874 9.96742,-16.7263c1.64868,0.50243 1.46717,13.02787 -0.19306,18.47571c-1.66023,5.44784 -11.43459,3.69844 -9.77436,-1.7494z" fill="#ababab" stroke="#000000"/><path d="M364.71681,171.67032c-0.12278,0.40288 -3.81372,4.48481 -6.65067,3.62026c-2.83695,-0.86456 -3.74562,-6.34821 -3.62284,-6.75111c0.12277,-0.40287 10.39628,2.72797 10.2735,3.13084z" fill="#1d1d1d" stroke="#000000"/><g stroke="#000000"><path d="M379.43152,144.65686c-0.55159,1.80999 -5.93007,1.77443 -12.01317,-0.0794c-6.0831,-1.85381 -10.56727,-4.82393 -10.01568,-6.63392c0.09125,-0.29938 0.48733,-1.14576 1.55442,-1.0395c4.12234,0.41044 14.97303,3.79673 19.26555,6.0651c1.31388,0.69431 1.31675,1.33371 1.20886,1.68771z" fill="#101010"/><path d="M379.23461,144.88727c-1.18568,3.89064 -3.57885,9.98899 -8.481,11.34178c-3.48041,0.96044 -9.36189,-2.0657 -11.88722,-2.83531c-6.08228,-1.85358 -3.68514,-8.56599 -1.65767,-15.2189c0.72987,-2.39499 1.83746,0.3605 5.69556,0.80334c3.2304,0.37079 7.09814,2.97804 10.32022,3.25897c3.61933,0.31555 6.69657,0.39755 6.01011,2.65011z" fill="#0d0d0d"/></g><g stroke="#000000"><path d="M378.69798,157.56342c-0.12926,0.42415 -6.46935,-1.13225 -14.16097,-3.47628c-7.69162,-2.34403 -13.82214,-4.58806 -13.69288,-5.01221c0.12926,-0.42415 6.46935,1.13225 14.16097,3.47628c7.69162,2.34403 13.82214,4.58807 13.69288,5.0122z" fill="#101010"/><path d="M378.53247,157.58103c-0.27785,0.91171 -1.34265,2.18717 -6.72335,1.21447c-3.82016,-0.69058 -11.61124,-3.35404 -14.80438,-4.32715c-7.69061,-2.34372 -6.79753,-3.81568 -6.32243,-5.37469c0.17104,-0.56122 3.21192,1.37931 7.87968,2.63008c3.90834,1.04726 8.70298,2.97871 12.57571,3.99467c4.35019,1.1412 7.5556,1.33474 7.39476,1.86261z" fill="#0d0d0d"/></g><path d="M375.58898,154.17921c-0.10482,0.344 -0.17204,1.49792 -1.1021,1.52179c-0.78773,0.02022 -1.9144,-0.37936 -3.3073,-0.67667c-1.42798,-0.30479 -3.13215,-0.51408 -4.73694,-1.04082c-0.81024,-0.26595 -1.30853,-0.84377 -2.12816,-1.09355c-1.2371,-0.37701 -2.76769,-0.55265 -4.16253,-1.04971c-1.21139,-0.43168 -2.29578,-1.18658 -3.30362,-1.51917c-1.25185,-0.41312 -2.08611,-0.39815 -2.73383,-0.80082c-1.09215,-0.67896 -0.00346,-1.43404 0.1227,-1.84803c0.1058,-0.34712 0.0811,-1.73732 1.02607,-1.7586c0.87548,-0.0197 2.38434,0.01308 3.97142,0.60271c1.15666,0.42973 2.29449,1.35335 3.55584,1.79373c0.97811,0.34148 1.73334,0.35038 2.72116,0.65142c0.98959,0.30158 1.87328,0.85924 2.97414,1.10065c1.29589,0.2842 2.72873,0.20793 3.95195,0.4108c1.71788,0.2849 3.10583,0.84644 3.85137,1.33207c0.95956,0.625 -0.58213,1.98678 -0.70019,2.37419z" fill="#801d1d" stroke="#000000"/><path d="M351.74287,163.83333c0,-1.18128 0.95761,-2.13889 2.13889,-2.13889c1.18128,0 2.13889,0.95761 2.13889,2.13889c0,1.18128 -0.95761,2.13889 -2.13889,2.13889c-1.18128,0 -2.13889,-0.95761 -2.13889,-2.13889zM353.92563,165.47863c0.90867,0 1.6453,-0.73663 1.6453,-1.6453c0,-0.90867 -0.73663,-1.6453 -1.6453,-1.6453c-0.90867,0 -1.6453,0.73663 -1.6453,1.6453c0,0.90867 0.73663,1.6453 1.6453,1.6453z" fill="#ffffff" stroke="none"/><path d="M365.56509,167.92222c0,-1.18128 0.95761,-2.13889 2.13889,-2.13889c1.18128,0 2.13889,0.95761 2.13889,2.13889c0,1.18128 -0.95761,2.13889 -2.13889,2.13889c-1.18128,0 -2.13889,-0.95761 -2.13889,-2.13889zM367.74786,169.56752c0.90867,0 1.6453,-0.73663 1.6453,-1.6453c0,-0.90867 -0.73663,-1.6453 -1.6453,-1.6453c-0.90867,0 -1.6453,0.73663 -1.6453,1.6453c0,0.90867 0.73663,1.6453 1.6453,1.6453z" fill="#ffffff" stroke="none"/></g><text transform="translate(340.91103,207.0298) scale(0.29415,0.29415)" font-size="40" xml:space="preserve" fill="#000000" fill-rule="nonzero" stroke="none" stroke-width="1" stroke-linecap="butt" stroke-linejoin="miter" stroke-miterlimit="10" stroke-dasharray="" stroke-dashoffset="0" font-family="&quot;GovtAgentBB&quot;, Serif" font-weight="normal" text-anchor="start" style="mix-blend-mode: normal"><tspan x="0" dy="0">Clutch</tspan></text></g></g></svg>