<svg version="1.1" xmlns="http://www.w3.org/2000/svg" xmlns:xlink="http://www.w3.org/1999/xlink" width="466.07273" height="345.84223" viewBox="0,0,466.07273,345.84223"><defs><linearGradient x1="520.09476" y1="86.15595" x2="520.09476" y2="100.83099" gradientUnits="userSpaceOnUse" id="color-1"><stop offset="0" stop-color="#15131c"/><stop offset="1" stop-color="#1c1925"/></linearGradient><linearGradient x1="519.69764" y1="67.51986" x2="519.69764" y2="90.84679" gradientUnits="userSpaceOnUse" id="color-2"><stop offset="0" stop-color="#231f2e"/><stop offset="1" stop-color="#1e1b28"/></linearGradient><linearGradient x1="238.73782" y1="120.13392" x2="238.73782" y2="144.38994" gradientUnits="userSpaceOnUse" id="color-3"><stop offset="0" stop-color="#1c1925"/><stop offset="1" stop-color="#231f2e"/></linearGradient><radialGradient cx="517.63313" cy="355.39319" r="11.92162" gradientUnits="userSpaceOnUse" id="color-4"><stop offset="0" stop-color="#1b1824"/><stop offset="1" stop-color="#231f2e"/></radialGradient><radialGradient cx="503.9151" cy="356.01675" r="11.92162" gradientUnits="userSpaceOnUse" id="color-5"><stop offset="0" stop-color="#1d1a27"/><stop offset="1" stop-color="#231f2e"/></radialGradient><radialGradient cx="410.95297" cy="355.39319" r="11.92162" gradientUnits="userSpaceOnUse" id="color-6"><stop offset="0" stop-color="#1b1824"/><stop offset="1" stop-color="#231f2e"/></radialGradient><radialGradient cx="424.671" cy="356.01675" r="11.92162" gradientUnits="userSpaceOnUse" id="color-7"><stop offset="0" stop-color="#1d1a27"/><stop offset="1" stop-color="#231f2e"/></radialGradient><linearGradient x1="463.73782" y1="120.13392" x2="463.73782" y2="144.38994" gradientUnits="userSpaceOnUse" id="color-8"><stop offset="0" stop-color="#1c1925"/><stop offset="1" stop-color="#231f2e"/></linearGradient><linearGradient x1="464.52224" y1="89.11986" x2="464.52224" y2="112.44679" gradientUnits="userSpaceOnUse" id="color-9"><stop offset="0" stop-color="#231f2e"/><stop offset="1" stop-color="#1e1b28"/></linearGradient></defs><g transform="translate(-130.65411,-11.9099)"><g stroke="#000000" stroke-width="0" stroke-miterlimit="10"><path d="M503.14881,106.1807v-50h32.66667v50z" fill="#73ff7f"/><g><path d="M527.45189,94.68813c0,2.13024 -2.70964,6.14286 -7.28571,6.14286c-4.57608,0 -7.42857,-3.2269 -7.42857,-5.35714c0,-2.13024 1.16362,-9.12489 6.22619,-9.30953c7.59345,-0.27694 8.48809,6.39357 8.48809,8.52381z" fill="url(#color-1)"/><path d="M524.3683,92.58752c1.04161,2.35118 -2.45906,3.28125 -5.10698,3.28125c-2.64792,0 -4.54601,-1.40705 -3.41949,-3.71875c1.12653,-2.3117 1.87939,-2.62092 3.39436,-2.85831c3.39477,-0.53193 4.38948,1.6195 5.1321,3.29581z" fill="#14121a"/><path d="M524.02982,94.4675c0,0 -0.15652,0.40513 -0.33992,0.5165c-0.25077,0.15228 -1.02687,0.40439 -1.02687,0.40439l0.01489,-3.13183z" fill="#bca253"/><path d="M517.04408,92.52688l0.01489,3.04092c0,0 -0.57384,-0.30148 -0.80241,-0.49089c-0.18926,-0.15682 -0.47348,-0.56637 -0.47348,-0.56637z" fill="#bca253"/></g><path d="M542.01081,26.4099c0,-8.00813 6.49187,-14.5 14.5,-14.5c8.00813,0 14.5,6.49187 14.5,14.5c0,8.00813 -6.49187,14.5 -14.5,14.5c-8.00813,0 -14.5,-6.49187 -14.5,-14.5z" fill="#415166"/><g><path d="M207.98842,133.76227c2.02079,-6.82681 11.91234,-4.44531 18.53877,-1.8416c6.87407,2.70101 12.64565,5.03495 12.64565,12.15456c0,4.14772 -5.36675,6.70246 -10.6479,11.21221c-3.50235,2.99078 -15.32386,10.77311 -19.18601,3.88891c-5.26723,-9.38874 4.63192,-12.13407 4.14145,-13.98673c-0.21791,-0.82309 -7.70188,-3.96162 -5.49195,-11.42735z" fill="#729482"/><path d="M264.8653,145.18965c-0.49048,1.85265 9.40868,4.59798 4.14145,13.98673c-3.86214,6.8842 -15.68365,-0.89813 -19.186,-3.88891c-5.28115,-4.50975 -10.64791,-7.06449 -10.64791,-11.21221c0,-7.11961 5.77159,-9.45355 12.64565,-12.15456c6.62643,-2.60371 16.51798,-4.98521 18.53877,1.8416c2.20992,7.46573 -5.27405,10.60426 -5.49196,11.42735z" fill="#729482"/><path d="M227.63215,144.19805c0,-6.91619 4.62449,-7.36639 11.54069,-7.36639c6.91619,0 11.54068,0.4502 11.54068,7.36639c0,6.91619 -4.62449,7.12085 -11.54068,7.12085c-6.91619,0 -11.54069,-0.20466 -11.54069,-7.12085z" fill="#7a9f8c"/></g><g fill="#231f2e"><path d="M198.09203,342.31817c0,5.24025 -5.43313,9.71694 -11.00709,9.71694c-5.57396,0 -12.83615,2.15369 -12.83615,-3.08656c0,-5.24025 2.47699,-11.35124 8.72075,-13.14645c7.99475,-2.29866 14.14109,-0.17329 15.01028,4.39628c0.07429,0.39051 0.11221,1.70722 0.11221,2.11979z"/><path d="M236.99446,344.32074c-2.62723,1.58414 -4.50655,10.12576 -27.21805,9.48536c-20.63696,-0.58191 -24.48028,-4.61172 -23.93401,-12.46211c0.54627,-7.85039 5.57703,-14.43708 26.18486,-13.30096c20.60782,1.13612 24.9672,16.27772 24.9672,16.27772z"/></g><g fill="#231f2e"><path d="M283.26343,340.19839c0.86919,-4.56957 7.01553,-6.69494 15.01028,-4.39628c6.24375,1.79521 8.72074,7.9062 8.72074,13.14645c0,5.24025 -7.26219,3.08656 -12.83615,3.08656c-5.57396,0 -11.00709,-4.47669 -11.00709,-9.71694c0,-0.41257 0.03793,-1.72928 0.11221,-2.11979z"/><path d="M269.21599,328.043c20.60782,-1.13612 25.63859,5.45057 26.18486,13.30096c0.54627,7.85039 -3.29705,11.88021 -23.93401,12.46211c-22.7115,0.6404 -24.59082,-7.90122 -27.21805,-9.48536c0,0 4.35938,-15.14159 24.9672,-16.27771z"/></g><path d="M524.16618,88.34845l3.28571,-0.5l-1.35714,5.92857z" fill="#bca253"/><path d="M513.62723,94.04734l-1.35714,-5.92857l3.28571,0.5z" fill="#bca253"/><path d="M528.17974,87.68514c-2.39616,4.20335 -16.77743,4.57806 -17.33333,-1.09001c-0.39375,-4.01485 0.97592,-7.57994 2.33333,-12.20817c1.44444,-4.92499 2.4441,-6.86709 6.55556,-6.86709c2.06105,0 3.04105,2.05728 5.05743,6.238c2.00597,4.15912 4.94257,11.19852 3.38701,13.92727z" fill="url(#color-2)"/><g><path d="M524.90612,79.17059c0,2.23982 -2.83507,5.62865 -5.5965,5.62865c-2.76142,0 -5.25146,-3.44732 -5.25146,-5.68713c0,-2.23982 10.84796,-2.18134 10.84796,0.05848z" fill="#976581"/><path d="M517.82927,84.43861c-0.16154,0.11509 -0.96158,-0.35272 -1.63672,-0.98095c-0.65478,-0.60929 -1.18895,-1.37572 -1.10738,-1.51129c0.33303,-0.55349 1.07182,-0.2793 1.71309,0.02195c1.00834,0.47369 1.50691,2.13124 1.03101,2.4703z" fill="#643851"/><path d="M522.01587,81.95923c0.65251,-0.27605 1.40142,-0.52126 1.71265,0.04478c0.07623,0.13864 -0.48738,0.88369 -1.16539,1.46702c-0.69909,0.60147 -1.51673,1.03778 -1.67367,0.91648c-0.46233,-0.35733 0.10039,-1.99422 1.12642,-2.42828z" fill="#643851"/><path d="M518.99782,84.79537c0,-0.56557 0,-3.15595 0,-4.60715c0,-0.43061 -0.06909,-0.99248 0.36152,-0.99248c0.4029,0 0.34807,0.5182 0.35003,0.92109c0.00563,1.15678 0.01151,3.1684 -0.00541,4.64282c-0.00222,0.1934 -0.70614,0.16942 -0.70614,0.03571z" fill="#81526c"/></g><g><path d="M547.69765,52.92004c0,-4.69442 3.80558,-8.5 8.5,-8.5c4.69442,0 8.5,3.80558 8.5,8.5c0,4.69442 -3.80558,8.5 -8.5,8.5c-4.69442,0 -8.5,-3.80558 -8.5,-8.5z" fill="#729482"/><path d="M574.06017,52.0106c0,-6.25923 5.07411,-11.33333 11.33334,-11.33333c6.25923,0 11.33333,5.07411 11.33333,11.33333c0,6.25923 -5.07411,11.33333 -11.33333,11.33333c-6.25923,0 -11.33334,-5.07411 -11.33334,-11.33333z" fill="#15121b"/><path d="M564.69765,30.91496c0,-7.45864 6.04642,-13.50506 13.50506,-13.50506c7.45864,0 13.50506,6.04642 13.50506,13.50506c0,7.45864 -6.04642,13.50507 -13.50506,13.50507c-7.45864,0 -13.50506,-6.04643 -13.50506,-13.50507z" fill="#bca253"/><path d="M551.19259,47.23012c0,-7.45864 6.04642,-13.50507 13.50506,-13.50507c7.45864,0 13.50506,6.04642 13.50506,13.50507c0,7.45864 -6.04642,13.50506 -13.50506,13.50506c-7.45864,0 -13.50506,-6.04642 -13.50506,-13.50506z" fill="#7a9f8c"/><path d="M576.72944,33.72506c0,6.44155 -5.71661,11.66346 -12.76842,11.66346c-7.05181,0 -12.76843,-5.22191 -12.76843,-11.66346c0,-6.44155 5.71662,-11.66346 12.76843,-11.66346c7.05181,0 12.76842,5.22191 12.76842,11.66346z" fill="#7a3f8f"/><path d="M571.19,42.57844c0,-7.05181 5.71661,-12.76842 12.76842,-12.76842c7.05181,0 12.76842,5.71662 12.76842,12.76842c0,7.05181 -5.71661,12.76842 -12.76842,12.76842c-7.05181,0 -12.76842,-5.71662 -12.76842,-12.76842z" fill="#231f2e"/><path d="M542.01081,38.97417c0,-7.05181 5.71662,-12.76842 12.76842,-12.76842c7.05181,0 12.76842,5.71662 12.76842,12.76842c0,7.05181 -5.71661,12.76842 -12.76842,12.76842c-7.05181,0 -12.76842,-5.71661 -12.76842,-12.76842z" fill="#20395e"/><path d="M563.02333,37.97668c0,-4.51033 3.65634,-8.16667 8.16667,-8.16667c4.51033,0 8.16666,3.65634 8.16666,8.16667c0,4.51033 -3.65634,8.16667 -8.16666,8.16667c-4.51033,0 -8.16667,-3.65635 -8.16667,-8.16667z" fill="#976581"/><path d="M561.26108,41.50278c0,-2.39323 1.94009,-4.33333 4.33333,-4.33333c2.39324,0 4.33334,1.9401 4.33334,4.33333c0,2.39323 -1.9401,4.33333 -4.33334,4.33333c-2.39324,0 -4.33333,-1.9401 -4.33333,-4.33333z" fill="#643851"/><path d="M561.26108,37.16946c0,-2.48528 2.01472,-4.5 4.5,-4.5c2.48528,0 4.5,2.01472 4.5,4.5c0,2.48528 -2.01472,4.5 -4.5,4.5c-2.48528,0 -4.5,-2.01472 -4.5,-4.5z" fill="#81526c"/><path d="M562.03601,31.89671c0,-2.39324 1.9401,-4.33333 4.33333,-4.33333c2.39324,0 4.33333,1.9401 4.33333,4.33333c0,2.39324 -1.9401,4.33333 -4.33333,4.33333c-2.39324,0 -4.33333,-1.94009 -4.33333,-4.33333z" fill="#644360"/></g><path d="M287.72502,339.90296c-4.06251,0.95881 -8.24336,1.97695 -13.48364,2.21325c-5.50439,0.24821 -10.92476,-2.48974 -15.6191,-2.82237c-3.236,-0.22929 -6.38939,1.99643 -7.92232,1.8054c-2.45922,-0.30646 -6.44165,2 -6.44165,2c0,0 -0.76764,-1.04451 -0.80843,-7.38663c-0.01381,-2.14824 0.94102,-5.78958 0.84488,-9.01156c-0.06454,-2.16274 -1.1232,-7.50058 -1.17213,-10.01059c-0.0735,-3.77001 0.82739,-10.7858 0.69501,-14.97528c-0.13387,-4.23661 -1.269,-10.10168 -1.40144,-14.50287c-0.13846,-4.60098 -0.27399,-12.65154 -0.4021,-17.01743c-0.09807,-3.342 -0.68619,-10.03665 -0.76118,-13.01545c-0.14122,-5.60959 0.73172,-15.29157 0.62851,-18.53005c-0.29058,-9.11709 -1.62311,-21.05015 -1.62311,-21.05015l30.5,-1c0,0 -0.74561,12.38253 1.1547,22.39875c0.32336,1.70436 1.73485,6.27437 2.21878,8.64276c0.73336,3.58906 1.11672,10.32238 2.09969,14.97638c0.66335,3.14071 2.37698,8.94847 3.1244,12.35943c0.85539,3.90368 0.73925,8.40298 1.63089,12.4121c0.62022,2.7887 2.2542,6.57714 2.893,9.33745c0.6951,3.0036 0.88125,7.45925 1.55044,10.33458c0.65777,2.82623 2.3083,6.54742 2.94152,9.14024c0.98728,4.04255 0.37294,6.21354 1.14782,9.45367c0.59429,2.48498 2.21527,6.8084 2.81334,8.89803c0,0 -0.76701,4.44385 -4.60787,5.35035z" fill="#415166"/><path d="M186.2532,334.55259c0.59807,-2.08963 2.21906,-6.41305 2.81334,-8.89803c0.77488,-3.24012 0.16054,-5.41111 1.14782,-9.45367c0.63322,-2.59281 2.28375,-6.314 2.94152,-9.14024c0.66919,-2.87533 0.85535,-7.33098 1.55044,-10.33458c0.6388,-2.76031 2.27278,-6.54875 2.89299,-9.33745c0.89163,-4.00912 0.77549,-8.50841 1.63089,-12.4121c0.74743,-3.41096 2.46105,-9.21873 3.1244,-12.35943c0.98297,-4.65399 1.36634,-11.38732 2.0997,-14.97638c0.48394,-2.36838 1.89543,-6.93839 2.21878,-8.64276c1.90031,-10.01621 1.1547,-22.39875 1.1547,-22.39875l30.5,1c0,0 -1.33253,11.93306 -1.62311,21.05015c-0.10322,3.23847 0.76973,12.92046 0.62851,18.53005c-0.07499,2.97879 -0.66311,9.67345 -0.76118,13.01545c-0.12811,4.36588 -0.26364,12.41645 -0.4021,17.01743c-0.13245,4.40119 -1.26757,10.26626 -1.40144,14.50287c-0.13238,4.18948 0.76851,11.20526 0.69501,14.97528c-0.04894,2.51001 -1.1076,7.84785 -1.17213,10.01059c-0.09615,3.22199 0.85869,6.86332 0.84488,9.01156c-0.04079,6.34211 -0.80843,7.38663 -0.80843,7.38663c0,0 -3.98243,-2.30646 -6.44165,-2c-1.53293,0.19103 -4.68632,-2.03469 -7.92232,-1.8054c-4.69434,0.33263 -10.11472,3.07058 -15.6191,2.82237c-5.24029,-0.2363 -9.42113,-1.25444 -13.48364,-2.21325c-3.84086,-0.9065 -4.60787,-5.35035 -4.60787,-5.35035z" fill="#415166"/><g fill="#231f2e"><g><path d="M317.16274,243.82017c-4.62485,3.35933 -7.71232,4.91978 -11.52497,1.47816c-3.81265,-3.44162 -2.99959,-8.3706 0.8306,-12.6137c3.8302,-4.2431 11.18473,-4.38568 14.99737,-0.94406c3.81265,3.44162 2.73951,6.96417 -4.30301,12.0796z"/></g><path d="M327.28265,221.03471c3.40118,-2.52127 8.234,-2.6671 12.54956,-2.32328c5.37775,0.42845 9.95225,2.17008 9.95225,7.44591c0,5.13625 -4.63385,9.3 -10.35,9.3c-5.71615,0 -10.75,-5.36375 -10.75,-10.5c0,-2.09997 -2.64271,-3.00276 -1.40181,-3.92263z"/><g><path d="M344.77562,237.76374c3.3635,4.62181 4.92676,7.70788 1.48857,11.52363c-3.43818,3.81575 -8.36789,3.00715 -12.61445,-0.81921c-4.24656,-3.82636 -4.39578,-11.18076 -0.9576,-14.99651c3.43818,-3.81575 6.96169,-2.7458 12.08348,4.29209z"/></g><path d="M324.16234,246.99711c-7.45585,0 -11.7,-15.24415 -11.7,-22.7c0,-7.45585 -0.35585,-6.5 7.1,-6.5c7.45584,0 21.7,8.64415 21.7,16.1c0,7.45585 -9.64416,13.1 -17.1,13.1z"/><g><path d="M331.37377,247.63769c-0.18088,5.71329 -0.8406,9.10921 -5.89692,10.0118c-5.05632,0.9026 -8.45223,-2.76124 -9.45673,-8.38843c-1.0045,-5.62719 3.39117,-11.52529 8.4475,-12.42789c5.05632,-0.90259 7.1816,2.10458 6.90616,10.80452z"/></g></g><g fill="#231f2e"><g><path d="M158.97283,231.74057c3.81265,-3.44162 11.16718,-3.29904 14.99738,0.94406c3.8302,4.2431 4.64325,9.17208 0.8306,12.6137c-3.81265,3.44162 -6.90012,1.88117 -11.52497,-1.47816c-7.04252,-5.11543 -8.11565,-8.63798 -4.30301,-12.0796z"/></g><path d="M151.75411,224.95734c0,5.13625 -5.03385,10.5 -10.75,10.5c-5.71614,0 -10.35,-4.16375 -10.35,-9.3c0,-5.27583 4.5745,-7.01747 9.95224,-7.44592c4.31555,-0.34382 9.14838,-0.19799 12.54956,2.32328c1.2409,0.91987 -1.4018,1.82266 -1.4018,3.92263z"/><g><path d="M147.74642,233.47165c3.43818,3.81575 3.28896,11.17015 -0.9576,14.99651c-4.24656,3.82636 -9.17628,4.63496 -12.61446,0.81921c-3.43818,-3.81575 -1.87493,-6.90181 1.48857,-11.52363c5.12179,-7.03789 8.6453,-8.10784 12.08348,-4.29209z"/></g><path d="M139.17623,233.89715c0,-7.45585 14.24415,-16.1 21.7,-16.1c7.45585,0 7.1,-0.95585 7.1,6.5c0,7.45585 -4.24415,22.7 -11.7,22.7c-7.45585,0 -17.1,-5.64415 -17.1,-13.1z"/><g><path d="M155.97096,236.83316c5.05632,0.90259 9.452,6.80069 8.4475,12.42789c-1.0045,5.62719 -4.40041,9.29103 -9.45673,8.38843c-5.05632,-0.9026 -5.71604,-4.29852 -5.89692,-10.0118c-0.27544,-8.69994 1.84984,-11.70711 6.90616,-10.80452z"/></g></g><path d="M275.73506,197.44329c-2.73041,-4.23167 -8.26945,-10.12367 -10.57785,-14.23974c-2.73946,-4.88469 -5.00323,-11.19835 -6.79337,-15.47323c-6.1921,-14.7868 -6.71745,-23.45477 -1.66182,-23.77447c5.72979,-0.36234 6.72632,-0.768 11.19733,3.81751c2.07027,2.12329 4.69846,5.12968 9.2229,10.04248c2.25957,2.45353 5.90772,7.59819 9.04396,10.81704c4.86396,4.9921 10.46677,13.29246 15.07223,18.84677c3.76301,4.5383 8.69882,8.20852 11.8698,11.69356c4.28948,4.71432 4.78938,10.1465 6.82904,13.0034c4.56964,6.40061 8.65008,6.39841 5.89657,9.12733c-3.16412,3.13586 -8.76439,11.64101 -15.19421,11.28092c-3.64692,-0.20424 -2.69282,-1.05336 -8.86156,-6.39803c-2.8435,-2.46364 -8.50997,-3.79595 -11.97674,-7.8808c-5.20729,-6.1357 -9.72291,-14.13128 -14.06626,-20.86273z" fill="#763d8b"/><path d="M187.08987,217.00722c-3.46677,4.08485 -9.13324,5.41717 -11.97673,7.88081c-6.16874,5.34467 -5.21465,6.19379 -8.86157,6.39803c-6.42982,0.36009 -12.03009,-8.14506 -15.19421,-11.28092c-2.75351,-2.72893 1.32692,-2.72673 5.89657,-9.12734c2.03966,-2.8569 2.53956,-8.28907 6.82904,-13.00339c3.17098,-3.48504 8.10679,-7.15526 11.8698,-11.69356c4.60546,-5.55431 10.20827,-13.85467 15.07223,-18.84677c3.13623,-3.21885 6.78439,-8.36351 9.04396,-10.81704c4.52444,-4.9128 6.43834,-6.77634 8.50861,-8.89963c4.47101,-4.58551 6.18183,-5.3227 11.91163,-4.96036c5.05562,0.3197 4.53027,8.98766 -1.66183,23.77447c-1.79014,4.27489 -4.05391,10.58855 -6.79337,15.47324c-2.3084,4.11607 -7.84744,10.00807 -10.57785,14.23974c-4.34336,6.73145 -8.85897,14.72703 -14.06626,20.86273z" fill="#763d8b"/><path d="M252.82141,135.9946c4.21884,4.8396 -8.06294,7.875 -14,7.875c-5.93706,0 -20.49402,3.72339 -12.875,-8.75c2.80975,-4.59995 1.87659,-10.60751 1.87973,-10.72314c0.17024,-6.25927 5.1659,-3.77686 10.99527,-3.77686c5.51187,0 10.42986,-2.26411 11.0523,3.51575c0.04801,0.44587 -0.1773,8.27445 2.9477,11.85925z" fill="url(#color-3)"/><path d="M237.22224,69.78332c0,0 1.04395,-46.7629 11.31825,-44.6c12.67388,2.66804 21.28175,75.35 21.28175,75.35z" fill="#231f2e"/><path d="M208.47224,100.45833c0,0 9.85787,-72.80695 22.53175,-75.475c10.2743,-2.1629 11.31825,44.6 11.31825,44.6z" fill="#231f2e"/><path d="M271.66974,186.35241c0,13.59725 2.24138,28.17424 -4.76761,36.73138c-6.32636,7.72375 -20.10195,9.24419 -29.39835,9.24419c-9.77884,0 -22.40471,-1.55648 -28.82261,-10.00415c-6.44296,-8.48066 -3.55455,-23.01109 -3.55455,-35.97142c0,-18.46566 6.59566,-44.41111 18.81742,-44.58466c6.03904,-0.08576 22.10491,0.07529 27.71365,0.07529c19.59588,0 20.01205,18.63913 20.01205,44.50938z" fill="#231f2e"/><path d="M208.17428,99.39576c2.9494,-20.6552 11.32822,-32.06427 30.88108,-32.06427c19.55286,0 25.95051,7.84825 30.04148,28.67076c4.48919,22.84935 -11.57408,30.51413 -31.12694,30.51413c-19.55286,0 -32.63874,-7.20978 -29.79562,-27.12061z" fill="#231f2e"/><path d="M258.73821,141.13957c5.25498,2.4198 -13.08927,2.15972 -20.48445,2.15972c-7.39518,0 -25.52728,1.86169 -16.03705,-4.375c3.49981,-2.29997 2.33747,-5.30375 2.34139,-5.36157c0.21205,-3.12964 6.43462,-1.88843 13.69567,-1.88843c6.86557,0 12.9914,-1.13205 13.76671,1.75788c0.0598,0.22294 2.82525,5.915 6.71774,7.7074z" fill="#7a9f8c"/><path d="M275.26213,182.59157c0.85314,6.28108 3.22243,22.25736 3.42042,27.89403c0.25181,7.16879 3.49165,17.01284 2.9119,22.80371c-0.66769,6.66905 -0.58628,15.45458 -2.50798,19.41454c-1.03956,2.14219 -4.72393,-0.62297 -14.46668,-0.08338c-7.1149,0.39405 -13.92068,1.96344 -15.14482,2.17522c-1.82029,0.31491 -7.56834,1.82584 -14.9349,1.17913c-5.38666,-0.47289 -11.75815,-2.7728 -17.49755,-4.18521c-4.27129,-1.05113 -8.13865,-3.79021 -11.5957,-5.13806c-4.10291,-1.59967 -8.92388,-2.29356 -10.15984,-4.49419c-1.7613,-3.13601 -1.36558,-5.63052 -1.38699,-8.7098c-0.02966,-4.26843 0.10772,-9.27831 1.25701,-15.2569c0.68435,-3.55985 0.29394,-8.73972 1.07326,-13.09044c0.53884,-3.00825 1.43233,-9.47546 1.85408,-12.70735c1.17424,-8.99845 1.92992,-14.95222 4.94751,-21.23289c3.47713,-7.23712 2.90478,-16.10413 6.82236,-20.87565c8.08371,-9.84578 16.83433,-12.45203 29.56948,-12.77094c14.32178,-0.35862 28.92247,2.80789 31.29537,16.93628c0.6901,4.10882 2.66485,9.24959 3.57113,14.35884z" fill="#7a3f8f"/><g><path d="M520.44918,344.32074c-2.62723,1.58414 -4.50655,10.12576 -27.21805,9.48536c-20.63696,-0.58191 -24.48028,-4.61172 -23.93401,-12.46211c0.54627,-7.85039 5.57703,-14.43708 26.18486,-13.30096c20.60782,1.13612 24.9672,16.27772 24.9672,16.27772z" fill="#231f2e"/><path d="M503.59677,345.47705c0.86919,-4.56957 7.01553,-6.69494 15.01028,-4.39628c6.24376,1.79521 8.72074,7.9062 8.72074,13.14645c0,5.24025 -7.26219,3.08656 -12.83615,3.08656c-5.57396,0 -11.00709,-4.47669 -11.00709,-9.71694c0,-0.41257 0.03793,-1.72928 0.11221,-2.11979z" fill="url(#color-4)"/><path d="M489.87873,345.47704c0.86919,-4.56957 7.01553,-6.69494 15.01028,-4.39628c6.24376,1.79521 8.72075,7.90621 8.72075,13.14645c0,5.24025 -7.2622,3.08655 -12.83616,3.08655c-5.57396,0 -11.00708,-4.4767 -11.00708,-9.71694c0,-0.41257 0.03792,-1.72927 0.11221,-2.11978z" fill="url(#color-5)"/><path d="M472.27393,344.33387c0.86919,-4.56957 7.01553,-6.69493 15.01028,-4.39628c6.24376,1.79521 8.72074,7.9062 8.72074,13.14644c0,5.24025 -7.26219,3.08656 -12.83615,3.08656c-5.57396,0 -11.00708,-4.47669 -11.00708,-9.71693c0,-0.41257 0.03793,-1.72928 0.11221,-2.11979z" fill="#231f2e"/><path d="M512.72502,339.90296c-4.06251,0.95881 -8.24335,1.97695 -13.48364,2.21325c-5.50439,0.24821 -10.92476,-2.48974 -15.6191,-2.82237c-3.236,-0.22929 -6.38939,1.99643 -7.92232,1.8054c-2.45921,-0.30646 -6.44165,2 -6.44165,2c0,0 -0.76764,-1.04451 -0.80843,-7.38663c-0.01382,-2.14824 0.94102,-5.78958 0.84488,-9.01156c-0.06453,-2.16274 -1.1232,-7.50058 -1.17214,-10.01059c-0.0735,-3.77001 0.82739,-10.7858 0.69501,-14.97528c-0.13387,-4.23661 -1.269,-10.10168 -1.40144,-14.50287c-0.13846,-4.60098 -0.27399,-12.65154 -0.40209,-17.01743c-0.09807,-3.342 -0.68619,-10.03665 -0.76118,-13.01545c-0.14122,-5.60959 0.73173,-15.29157 0.62851,-18.53005c-0.29059,-9.11709 -1.62311,-21.05015 -1.62311,-21.05015l30.5,-1c0,0 -0.74561,12.38253 1.1547,22.39875c0.32336,1.70436 1.73485,6.27437 2.21879,8.64276c0.73336,3.58906 1.11672,10.32238 2.09969,14.97638c0.66335,3.14071 2.37697,8.94847 3.1244,12.35943c0.85539,3.90368 0.73926,8.40298 1.63089,12.4121c0.62021,2.7887 2.2542,6.57714 2.89299,9.33745c0.69509,3.0036 0.88125,7.45925 1.55044,10.33458c0.65776,2.82623 2.3083,6.54742 2.94152,9.14024c0.98728,4.04255 0.37294,6.21354 1.14782,9.45367c0.59429,2.48498 2.21527,6.8084 2.81334,8.89803c0.39864,1.39281 0.87541,1.81293 1.16397,2.82657c1.02788,3.6107 1.53417,4.53824 1.53417,4.53824c0,0 -3.46515,-2.92096 -7.30601,-2.01446z" fill="#415166"/></g><g><path d="M433.10411,328.043c20.60782,-1.13612 25.63859,5.45057 26.18486,13.30096c0.54627,7.85039 -3.29705,11.88021 -23.93401,12.46211c-22.7115,0.6404 -24.59082,-7.90122 -27.21805,-9.48536c0,0 4.35938,-15.14159 24.9672,-16.27771z" fill="#231f2e"/><path d="M425.10154,347.59681c0,5.24025 -5.43313,9.71694 -11.00709,9.71694c-5.57396,0 -12.83615,2.15369 -12.83615,-3.08656c0,-5.24025 2.47699,-11.35124 8.72074,-13.14645c7.99475,-2.29866 14.14109,-0.17329 15.01028,4.39628c0.07428,0.39051 0.11221,1.70722 0.11221,2.11979z" fill="url(#color-6)"/><path d="M438.81957,347.59681c0,5.24025 -5.43312,9.71694 -11.00708,9.71694c-5.57396,0 -12.83616,2.15369 -12.83616,-3.08655c0,-5.24025 2.47699,-11.35124 8.72075,-13.14645c7.99475,-2.29866 14.14109,-0.17329 15.01028,4.39628c0.07428,0.39051 0.11221,1.70721 0.11221,2.11978z" fill="url(#color-7)"/><path d="M456.42438,346.45366c0,5.24025 -5.43312,9.71693 -11.00708,9.71693c-5.57396,0 -12.83615,2.15369 -12.83615,-3.08656c0,-5.24025 2.47699,-11.35123 8.72074,-13.14644c7.99475,-2.29866 14.1411,-0.17329 15.01028,4.39628c0.07428,0.39051 0.11221,1.70722 0.11221,2.11979z" fill="#231f2e"/><path d="M408.55507,341.91742c0,0 0.50629,-0.92754 1.53417,-4.53824c0.28856,-1.01364 0.76533,-1.43376 1.16397,-2.82657c0.59807,-2.08963 2.21906,-6.41305 2.81334,-8.89803c0.77488,-3.24012 0.16054,-5.41111 1.14782,-9.45367c0.63322,-2.59281 2.28376,-6.314 2.94152,-9.14024c0.66919,-2.87533 0.85534,-7.33098 1.55044,-10.33458c0.6388,-2.76031 2.27278,-6.54875 2.89299,-9.33745c0.89164,-4.00912 0.7755,-8.50841 1.63089,-12.4121c0.74743,-3.41096 2.46105,-9.21873 3.1244,-12.35943c0.98298,-4.65399 1.36633,-11.38732 2.09969,-14.97638c0.48393,-2.36838 1.89543,-6.93839 2.21879,-8.64276c1.90031,-10.01621 1.1547,-22.39875 1.1547,-22.39875l30.5,1c0,0 -1.33252,11.93306 -1.62311,21.05015c-0.10322,3.23847 0.76972,12.92046 0.62851,18.53005c-0.07499,2.97879 -0.66312,9.67345 -0.76118,13.01545c-0.12811,4.36588 -0.26363,12.41645 -0.40209,17.01743c-0.13245,4.40119 -1.26757,10.26626 -1.40144,14.50287c-0.13238,4.18948 0.76851,11.20526 0.69501,14.97528c-0.04893,2.51001 -1.1076,7.84785 -1.17214,10.01059c-0.09614,3.22199 0.8587,6.86332 0.84488,9.01156c-0.04079,6.34211 -0.80843,7.38663 -0.80843,7.38663c0,0 -3.98244,-2.30646 -6.44165,-2c-1.53293,0.19103 -4.68633,-2.03469 -7.92232,-1.8054c-4.69434,0.33263 -10.11471,3.07058 -15.6191,2.82237c-5.24029,-0.2363 -9.42113,-1.25444 -13.48364,-2.21325c-3.84086,-0.9065 -7.30601,2.01446 -7.30601,2.01446z" fill="#415166"/></g><g><g><path d="M542.16274,243.82017c-4.62485,3.35933 -7.71232,4.91978 -11.52497,1.47816c-3.81265,-3.44162 -2.99959,-8.3706 0.8306,-12.6137c3.8302,-4.2431 11.18473,-4.38568 14.99737,-0.94406c3.81265,3.44162 2.73951,6.96417 -4.30301,12.0796z" fill="#231f2e"/><path d="M536.48702,244.93919c-2.9681,2.15592 -8.35622,-3.70111 -5.89811,-6.42421c1.96918,-2.18147 4.85004,-1.45585 6.8102,0.31356c1.96016,1.76941 2.70863,3.4807 -0.91208,6.11065z" fill="#15121b"/></g><path d="M552.28265,221.03471c3.40118,-2.52127 8.234,-2.6671 12.54956,-2.32328c5.37775,0.42845 9.95225,2.17008 9.95225,7.44591c0,5.13625 -4.63385,9.3 -10.35,9.3c-5.71615,0 -10.75,-5.36375 -10.75,-10.5c0,-2.09997 -2.64271,-3.00276 -1.40181,-3.92263z" fill="#231f2e"/><g><path d="M569.77562,237.76374c3.3635,4.62181 4.92676,7.70788 1.48857,11.52363c-3.43818,3.81575 -8.36789,3.00715 -12.61445,-0.81921c-4.24656,-3.82636 -4.39578,-11.18076 -0.9576,-14.99651c3.43818,-3.81575 6.96169,-2.7458 12.08348,4.29209z" fill="#231f2e"/><path d="M571.20069,243.63849c2.1586,2.96615 -3.49473,7.85902 -6.22005,5.40337c-2.18324,-1.96721 -2.15996,-4.94827 -0.39233,-6.91003c1.76764,-1.96176 3.97916,-2.11168 6.61237,1.50666z" fill="#15121b"/></g><path d="M569.1567,221.12407c2.87527,0.60772 3.55562,2.59548 3.55562,5.23614c0,2.64066 -1.08236,4.08133 -4.02115,4.08133c-2.93879,0 -5.52681,-2.75761 -5.52681,-5.39827c0,-2.64066 1.614,-4.84462 5.99233,-3.9192z" fill="#15121b"/><path d="M549.16234,246.99711c-7.45585,0 -11.7,-15.24415 -11.7,-22.7c0,-7.45585 -0.35585,-6.5 7.1,-6.5c7.45584,0 21.7,8.64415 21.7,16.1c0,7.45585 -9.64416,13.1 -17.1,13.1z" fill="#231f2e"/><g><path d="M556.37377,247.63769c-0.18088,5.71329 -0.8406,9.10921 -5.89692,10.0118c-5.05632,0.9026 -8.45223,-2.76124 -9.45673,-8.38843c-1.0045,-5.62719 3.39117,-11.52529 8.4475,-12.42789c5.05632,-0.90259 7.1816,2.10458 6.90616,10.80452z" fill="#231f2e"/><path d="M553.08668,253.53677c-0.11608,3.66662 -8.27559,3.07403 -8.92025,-0.53734c-0.51644,-2.89306 1.44388,-4.89384 4.04344,-5.35789c2.59956,-0.46404 5.01842,1.4224 4.87681,5.89523z" fill="#15121b"/></g><path d="M555.89584,238.82418c-2.3085,1.52641 -4.00068,3.60307 -6.23485,3.60307c-5.0534,0 -9.05,-6.8966 -9.05,-11.95c0,-5.0534 5.5966,-8.15 10.65,-8.15c5.0534,0 11.25,5.7966 11.25,10.85c0,2.81923 -3.70211,3.72079 -6.61516,5.64693z" fill="#15121b"/></g><g><g><path d="M383.97283,231.74057c3.81265,-3.44162 11.16718,-3.29904 14.99738,0.94406c3.8302,4.2431 4.64325,9.17208 0.8306,12.6137c-3.81265,3.44162 -6.90012,1.88117 -11.52497,-1.47816c-7.04252,-5.11543 -8.11565,-8.63798 -4.30301,-12.0796z" fill="#231f2e"/><path d="M393.03947,238.82858c1.96016,-1.76941 4.84102,-2.49503 6.8102,-0.31356c2.45811,2.7231 -2.93001,8.58013 -5.89811,6.42421c-3.62071,-2.62995 -2.87224,-4.34124 -0.91208,-6.11065z" fill="#15121b"/></g><path d="M376.75411,224.95734c0,5.13625 -5.03385,10.5 -10.75,10.5c-5.71614,0 -10.35,-4.16375 -10.35,-9.3c0,-5.27583 4.5745,-7.01747 9.95224,-7.44592c4.31555,-0.34382 9.14838,-0.19799 12.54956,2.32328c1.2409,0.91987 -1.4018,1.82266 -1.4018,3.92263z" fill="#231f2e"/><g><path d="M372.74642,233.47165c3.43818,3.81575 3.28896,11.17015 -0.9576,14.99651c-4.24656,3.82636 -9.17628,4.63496 -12.61446,0.81921c-3.43818,-3.81575 -1.87493,-6.90181 1.48857,-11.52363c5.12179,-7.03789 8.6453,-8.10784 12.08348,-4.29209z" fill="#231f2e"/><path d="M365.85025,242.13186c1.76764,1.96176 1.79092,4.94282 -0.39232,6.91003c-2.72532,2.45565 -8.37865,-2.43723 -6.22005,-5.40338c2.63322,-3.61834 4.84474,-3.46841 6.61238,-1.50665z" fill="#15121b"/></g><path d="M367.27421,225.04322c0,2.64066 -2.58802,5.39827 -5.52681,5.39827c-2.93879,0 -4.02115,-1.44067 -4.02115,-4.08132c0,-2.64066 0.68035,-4.62842 3.55562,-5.23614c4.37833,-0.92542 5.99233,1.27854 5.99233,3.9192z" fill="#15121b"/><path d="M364.17623,233.89715c0,-7.45585 14.24415,-16.1 21.7,-16.1c7.45585,0 7.1,-0.95585 7.1,6.5c0,7.45585 -4.24415,22.7 -11.7,22.7c-7.45585,0 -17.1,-5.64415 -17.1,-13.1z" fill="#231f2e"/><g><path d="M380.97096,236.83316c5.05632,0.90259 9.452,6.80069 8.4475,12.42789c-1.0045,5.62719 -4.40041,9.29103 -9.45673,8.38843c-5.05632,-0.9026 -5.71604,-4.29852 -5.89692,-10.0118c-0.27544,-8.69994 1.84984,-11.70711 6.90616,-10.80452z" fill="#231f2e"/><path d="M382.2287,247.64154c2.59956,0.46404 4.55987,2.46483 4.04344,5.35789c-0.64466,3.61137 -8.80416,4.20397 -8.92025,0.53734c-0.14161,-4.47282 2.27725,-6.35928 4.87681,-5.89523z" fill="#15121b"/></g><path d="M367.92757,233.17725c0,-5.0534 6.1966,-10.85 11.25,-10.85c5.0534,0 10.65,3.0966 10.65,8.15c0,5.0534 -3.9966,11.95 -9.05,11.95c-2.23417,0 -3.92634,-2.07665 -6.23485,-3.60306c-2.91304,-1.92614 -6.61515,-2.8277 -6.61515,-5.64694z" fill="#15121b"/></g><path d="M500.73506,197.44329c-2.73041,-4.23167 -8.26945,-10.12367 -10.57785,-14.23974c-2.73946,-4.88469 -5.00323,-11.19835 -6.79337,-15.47323c-6.1921,-14.7868 -6.71745,-23.45477 -1.66182,-23.77447c5.72979,-0.36234 5.15489,-4.33943 9.6259,0.24608c2.07027,2.12329 6.26989,8.70111 10.79433,13.61391c2.25957,2.45353 5.90772,7.59819 9.04396,10.81704c4.86396,4.9921 10.46677,13.29246 15.07223,18.84677c3.76301,4.5383 8.69882,8.20852 11.8698,11.69356c4.28948,4.71432 4.78938,10.1465 6.82904,13.0034c4.56964,6.40061 8.65008,6.39841 5.89657,9.12733c-3.16412,3.13586 -8.76439,11.64101 -15.19421,11.28092c-3.64692,-0.20424 -2.69282,-1.05336 -8.86156,-6.39803c-2.8435,-2.46364 -8.50997,-3.79595 -11.97674,-7.8808c-5.20729,-6.1357 -9.72291,-14.13128 -14.06626,-20.86273z" fill="#763d8b"/><path d="M411.58987,217.50722c-3.46677,4.08485 -9.13324,5.41717 -11.97673,7.88081c-6.16874,5.34467 -5.21465,6.19379 -8.86157,6.39803c-6.42982,0.36009 -12.03009,-8.14506 -15.19421,-11.28092c-2.75351,-2.72893 1.32692,-2.72673 5.89657,-9.12734c2.03966,-2.8569 2.53956,-8.28907 6.82904,-13.00339c3.17098,-3.48504 8.10679,-7.15526 11.8698,-11.69356c4.60546,-5.55431 10.20827,-13.85467 15.07223,-18.84677c3.13623,-3.21885 6.78439,-8.36351 9.04396,-10.81704c4.52444,-4.9128 8.72406,-11.49062 10.79433,-13.61391c4.47101,-4.58551 3.89611,-0.60842 9.62591,-0.24608c5.05562,0.3197 4.53027,8.98766 -1.66183,23.77447c-1.79014,4.27489 -4.05391,10.58855 -6.79337,15.47324c-2.3084,4.11607 -7.84744,10.00807 -10.57785,14.23974c-4.34336,6.73145 -8.85897,14.72703 -14.06626,20.86273z" fill="#763d8b"/><path d="M477.82141,135.9946c4.21884,4.8396 -8.06294,7.875 -14,7.875c-5.93706,0 -20.49402,3.72339 -12.875,-8.75c2.80975,-4.59995 1.87659,-10.60751 1.87973,-10.72314c0.17024,-6.25927 5.1659,-3.77686 10.99527,-3.77686c5.51187,0 10.42986,-2.26411 11.0523,3.51575c0.04801,0.44587 -0.1773,8.27445 2.9477,11.85925z" fill="url(#color-8)"/><g><path d="M462.72224,69.78332c0,0 1.04395,-46.7629 11.31825,-44.6c12.67388,2.66804 21.28175,75.35 21.28175,75.35z" fill="#231f2e"/><path d="M488.445,73.61755c1.31672,8.67603 -11.66361,-1.82925 -13.77447,-10.34697c-2.95046,-11.90566 -3.8251,-30.74307 1.83293,-29.31188c3.93599,0.9956 9.84953,25.87435 11.94154,39.65885z" fill="#644360"/></g><g><path d="M433.72224,100.45833c0,0 9.85787,-72.80695 22.53175,-75.475c10.2743,-2.1629 11.31825,44.6 11.31825,44.6z" fill="#231f2e"/><path d="M453.79102,33.75869c5.65803,-1.4312 4.78339,17.40623 1.83293,29.31188c-2.11086,8.51772 -15.0912,19.023 -13.77447,10.34697c2.09202,-13.7845 8.00555,-38.66325 11.94154,-39.65885z" fill="#644360"/></g><path d="M496.66974,186.35241c0,13.59725 2.24138,28.17424 -4.76761,36.73138c-6.32636,7.72375 -20.10195,9.24419 -29.39835,9.24419c-9.77884,0 -22.40472,-1.55648 -28.82262,-10.00415c-6.44296,-8.48066 -3.55455,-23.01109 -3.55455,-35.97142c0,-18.46566 6.59566,-44.41111 18.81742,-44.58466c6.03904,-0.08576 22.10491,0.07529 27.71365,0.07529c19.59588,0 20.01205,18.63913 20.01205,44.50938z" fill="#231f2e"/><path d="M454.28898,188.69777c0,2.84841 -0.27312,5.23936 -0.32574,7.81203c-0.13113,6.41195 -0.17224,12.40197 -0.57509,18.05813c-0.51235,7.19358 -1.21264,14.48561 -2.01997,20.16136c-0.92977,6.53648 -1.82967,12.94586 -3.14803,16.56393c-1.234,3.38656 -2.61948,6.42969 -4.12136,6.42969c-0.94258,0 -3.96506,0.51517 -7.6084,-1.40094c-2.66412,-1.40112 -5.66021,-4.79444 -8.41782,-7.19351c-2.05223,-1.7854 -3.7511,-5.18466 -5.36781,-7.12552c-1.91875,-2.30346 -4.27898,-3.82739 -4.70381,-6.23556c-0.60541,-3.43176 -0.1843,-5.85148 0.07936,-8.92646c0.36549,-4.26244 0.88097,-9.23557 1.99117,-15.00028c0.66106,-3.4325 0.92653,-8.66625 1.70578,-12.87118c0.5388,-2.90744 1.56403,-9.20365 2.06393,-12.35435c1.39185,-8.7724 2.30209,-14.58029 4.37784,-20.32392c2.39186,-6.6183 3.79943,-12.16618 6.19285,-16.24931c2.59706,-4.43053 4.09593,-9.01975 6.81344,-10.51402c2.95729,-1.62613 5.07868,-1.45115 8.27549,-0.51628c1.53386,0.44856 2.37145,0.87252 3.08168,2.14855c0.64799,1.1642 1.23111,3.03768 1.31735,6.2862c0.07819,2.94513 -0.44941,7.98793 -0.4771,13.05173c-0.01913,3.49774 0.43568,8.14245 0.41403,12.83331c-0.01946,4.21721 0.45219,10.11407 0.45219,15.3664z" fill="#7a3f8f"/><path d="M473.47844,173.92673c-0.02165,-4.65779 0.43316,-9.26977 0.41403,-12.74285c-0.02769,-5.02809 -0.55529,-10.03534 -0.4771,-12.95972c0.08624,-3.22565 0.66936,-5.0859 1.31735,-6.24189c0.71023,-1.26703 1.54782,-1.68801 3.08168,-2.13341c3.19681,-0.92829 5.3182,-1.10202 8.27549,0.51264c2.71751,1.48374 4.21639,6.04061 6.81345,10.43991c2.39342,4.05435 3.80098,9.56313 6.19284,16.13478c2.07576,5.70315 2.98598,11.47009 4.37784,20.18066c0.4999,3.12849 1.52514,9.3803 2.06394,12.26725c0.77925,4.17529 1.04471,9.37214 1.70577,12.78045c1.11021,5.72406 1.62569,10.66215 1.99117,14.89454c0.26367,3.05329 0.68478,5.45597 0.07937,8.86353c-0.42483,2.39119 -2.78507,3.90438 -4.70382,6.1916c-1.61671,1.92718 -3.31558,5.30248 -5.36781,7.0753c-2.75761,2.38214 -5.7537,5.75154 -8.41782,7.1428c-3.64334,1.90262 -6.66582,1.39107 -7.6084,1.39107c-1.50188,0 -2.88736,-3.02168 -4.12136,-6.38437c-1.31835,-3.59257 -2.21826,-9.95677 -3.14803,-16.44717c-0.80733,-5.63574 -1.50762,-12.87637 -2.01997,-20.01924c-0.40285,-5.61629 -0.44395,-11.56409 -0.57509,-17.93084c-0.05262,-2.55453 -0.32574,-4.92863 -0.32574,-7.75695c0,-5.21531 0.47165,-11.07061 0.45219,-15.25808z" fill="#7a3f8f"/><g><path d="M432.98842,133.76227c2.02079,-6.82681 11.91234,-4.44531 18.53877,-1.8416c6.87407,2.70101 12.64565,5.03495 12.64565,12.15456c0,4.14772 -5.36675,6.70246 -10.6479,11.21221c-3.50235,2.99078 -15.32386,10.77311 -19.18601,3.88891c-5.26723,-9.38874 4.63192,-12.13407 4.14145,-13.98673c-0.21791,-0.82309 -7.70188,-3.96162 -5.49195,-11.42735z" fill="#729482"/><path d="M489.8653,145.18965c-0.49048,1.85265 9.40868,4.59798 4.14145,13.98673c-3.86214,6.8842 -15.68365,-0.89813 -19.186,-3.88891c-5.28115,-4.50975 -10.64791,-7.06449 -10.64791,-11.21221c0,-7.11961 5.77159,-9.45355 12.64565,-12.15456c6.62643,-2.60371 16.51798,-4.98521 18.53877,1.8416c2.20992,7.46573 -5.27405,10.60426 -5.49196,11.42735z" fill="#729482"/><path d="M452.63215,144.19805c0,-6.91619 4.62449,-7.36639 11.54069,-7.36639c6.91619,0 11.54068,0.4502 11.54068,7.36639c0,6.91619 -4.62449,7.12085 -11.54068,7.12085c-6.91619,0 -11.54069,-0.20466 -11.54069,-7.12085z" fill="#7a9f8c"/></g><path d="M433.17428,99.39576c2.9494,-20.6552 11.32822,-32.06427 30.88108,-32.06427c19.55286,0 25.95051,7.84825 30.04148,28.67076c4.48919,22.84935 -11.57408,30.51413 -31.12694,30.51413c-19.55286,0 -32.63874,-7.20978 -29.79562,-27.12061z" fill="#231f2e"/><path d="M472.20507,110.50241c0,2.13024 -2.70964,6.14286 -7.28571,6.14286c-4.57608,0 -7.42857,-3.22691 -7.42857,-5.35715c0,-2.13024 2.56678,-0.64285 7.14285,-0.64285c4.57608,0 7.57143,-2.2731 7.57143,-0.14286z" fill="#1c1925"/><path d="M468.99078,109.94845l3.28572,-0.5l-1.35714,5.92857z" fill="#bca253"/><path d="M458.45183,115.64734l-1.35714,-5.92857l3.28572,0.5z" fill="#bca253"/><path d="M473.00434,109.28514c-2.39615,4.20335 -16.77743,4.57806 -17.33333,-1.09002c-0.39375,-4.01485 0.97592,-7.57993 2.33333,-12.20816c1.44445,-4.92499 2.4441,-6.8671 6.55555,-6.8671c2.06105,0 3.04105,2.05728 5.05743,6.238c2.00597,4.15912 4.94257,11.19852 3.38701,13.92728z" fill="url(#color-9)"/><path d="M458.70018,93.62762c0,2.85788 -3.47303,3.58355 -7.15815,4.38477c-2.23461,0.48585 -4.84318,0.92773 -6.65435,0.92773c-4.79798,0 -8.4375,-0.72164 -8.4375,-5.3125c0,-4.59086 5.76452,-11.6875 14.1875,-10.1875c4.72366,0.84121 8.0625,5.59664 8.0625,10.1875z" fill="#1c1925"/><path d="M478.30435,83.60478c8.42298,-1.5 14.1875,5.59664 14.1875,10.1875c0,4.59086 -3.63952,5.3125 -8.4375,5.3125c-1.81116,0 -4.41973,-0.44188 -6.65435,-0.92773c-3.68512,-0.80122 -7.15815,-1.52688 -7.15815,-4.38477c0,-4.59086 3.33884,-9.34629 8.0625,-10.1875z" fill="#1c1925"/><g><path d="M458.1778,95.912c-1.14405,1.82423 -5.41487,2.19899 -10.55929,4.34407c-5.54013,2.31007 -10.97622,-0.38355 -10.97622,-4.92489c0,-2.96828 5.08486,-2.89091 11.08732,-2.89091c6.00246,0 12.86101,-0.37561 10.44819,3.47173z" fill="#16130a"/><path d="M458.312,95.32828c-1.14405,1.82423 -5.75038,1.59506 -10.89481,3.74014c-5.54013,2.31007 -10.84201,0.08617 -10.84201,-4.45516c0,-2.96828 5.02696,-3.73563 11.02942,-3.73563c6.00246,0 13.12021,0.60331 10.7074,4.45065z" fill="#16130a"/><path d="M458.312,95.77779c-1.14405,1.82423 -5.75038,1.59506 -10.89481,3.74014c-5.54013,2.31008 -10.84202,0.08617 -10.84202,-4.45517c0,-2.96828 5.15197,-3.36063 11.15442,-3.36063c6.00245,0 12.99521,0.22832 10.5824,4.07566z" fill="#bca253"/><path d="M446.29838,94.93376c0,-1.3147 0.65754,-2.54293 1.6617,-3.23955c0.13256,-0.09196 4.316,-0.06042 4.49923,0.07605c0.9443,0.70333 1.55591,1.89554 1.55591,3.16351c0,1.1715 -0.5221,2.28816 -1.34631,2.99579c-0.14376,0.12342 -3.03986,0.86172 -3.11416,0.84598c-1.74536,-0.36964 -3.25638,-1.98631 -3.25638,-3.84177z" fill="#20395e"/><path d="M447.64044,94.93376c0,-1.38975 1.12661,-2.51636 2.51636,-2.51636c1.38975,0 2.51637,1.12661 2.51637,2.51636c0,1.38975 -1.12662,2.51636 -2.51637,2.51636c-1.38975,0 -2.51636,-1.12661 -2.51636,-2.51636z" fill="#16130a"/></g><g><path d="M481.31314,92.44027c6.00246,0 11.08732,-0.07737 11.08732,2.89091c0,4.54134 -5.43608,7.23496 -10.97621,4.92489c-5.14443,-2.14508 -9.41525,-2.51984 -10.5593,-4.34407c-2.41281,-3.84734 4.44573,-3.47173 10.44819,-3.47173z" fill="#16130a"/><path d="M481.31314,90.87762c6.00246,0 11.15442,0.76735 11.15442,3.73563c0,4.54134 -5.30188,6.76524 -10.84201,4.45516c-5.14443,-2.14508 -9.75076,-1.91591 -10.89481,-3.74014c-2.41281,-3.84734 4.57994,-4.45065 10.5824,-4.45065z" fill="#16130a"/><path d="M481.31314,91.70214c6.00245,0 11.15442,0.39235 11.15442,3.36063c0,4.54134 -5.30188,6.76525 -10.84202,4.45517c-5.14443,-2.14508 -9.75076,-1.91591 -10.8948,-3.74014c-2.41281,-3.84734 4.57994,-4.07566 10.5824,-4.07566z" fill="#bca253"/><path d="M479.48798,98.77553c-0.0743,0.01574 -2.97039,-0.72255 -3.11415,-0.84598c-0.82421,-0.70763 -1.34631,-1.82429 -1.34631,-2.99579c0,-1.26796 0.61162,-2.46017 1.55591,-3.16351c0.18323,-0.13647 4.36667,-0.16801 4.49923,-0.07605c1.00415,0.69662 1.6617,1.92485 1.6617,3.23955c0,1.85546 -1.51102,3.47213 -3.25638,3.84177z" fill="#20395e"/><path d="M478.88594,97.45012c-1.38975,0 -2.51637,-1.12661 -2.51637,-2.51636c0,-1.38975 1.12662,-2.51636 2.51637,-2.51636c1.38975,0 2.51636,1.12661 2.51636,2.51636c0,1.38975 -1.12661,2.51636 -2.51636,2.51636z" fill="#16130a"/></g><g><path d="M469.73072,100.7706c0,2.23982 -2.83507,5.62866 -5.5965,5.62866c-2.76143,0 -5.25146,-3.44732 -5.25146,-5.68714c0,-2.23982 10.84796,-2.18134 10.84796,0.05848z" fill="#976581"/><path d="M462.65387,106.03861c-0.16154,0.11509 -0.96158,-0.35272 -1.63672,-0.98095c-0.65478,-0.60929 -1.18895,-1.37572 -1.10738,-1.51129c0.33303,-0.55349 1.07182,-0.27931 1.71309,0.02194c1.00834,0.47369 1.50691,2.13124 1.03101,2.4703z" fill="#643851"/><path d="M466.84047,103.55923c0.65251,-0.27605 1.40142,-0.52126 1.71264,0.04478c0.07623,0.13864 -0.48738,0.8837 -1.16539,1.46703c-0.69908,0.60147 -1.51673,1.03777 -1.67367,0.91647c-0.46233,-0.35733 0.1004,-1.99422 1.12642,-2.42828z" fill="#643851"/><path d="M463.82242,106.39537c0,-0.56557 0,-3.15595 0,-4.60714c0,-0.43061 -0.06909,-0.99248 0.36153,-0.99248c0.4029,0 0.34806,0.5182 0.35003,0.92109c0.00564,1.15678 0.0115,3.1684 -0.00541,4.64282c-0.00222,0.1934 -0.70614,0.16942 -0.70614,0.03571z" fill="#81526c"/></g></g></g></svg>