<svg version="1.1" xmlns="http://www.w3.org/2000/svg" xmlns:xlink="http://www.w3.org/1999/xlink" width="1053.33334" height="420" viewBox="0,0,1053.33334,420"><defs><radialGradient cx="360" cy="177.81484" r="367.5075" gradientUnits="userSpaceOnUse" id="color-1"><stop offset="0" stop-color="#000000" stop-opacity="0.83922"/><stop offset="1" stop-color="#000000" stop-opacity="0"/></radialGradient><radialGradient cx="360" cy="177.81484" r="367.50751" gradientUnits="userSpaceOnUse" id="color-2"><stop offset="0" stop-color="#000000" stop-opacity="0"/><stop offset="1" stop-color="#000000"/></radialGradient><linearGradient x1="-5.24206" y1="181.05811" x2="150.659" y2="181.05811" gradientUnits="userSpaceOnUse" id="color-3"><stop offset="0" stop-color="#000000"/><stop offset="1" stop-color="#000000" stop-opacity="0"/></linearGradient><linearGradient x1="727.50752" y1="177.81486" x2="571.60646" y2="177.81486" gradientUnits="userSpaceOnUse" id="color-4"><stop offset="0" stop-color="#000000"/><stop offset="1" stop-color="#000000" stop-opacity="0"/></linearGradient><linearGradient x1="360.24743" y1="-17.14012" x2="360.24743" y2="110.48754" gradientUnits="userSpaceOnUse" id="color-5"><stop offset="0" stop-color="#000000"/><stop offset="1" stop-color="#000000" stop-opacity="0"/></linearGradient><linearGradient x1="359.27227" y1="377.38048" x2="359.27227" y2="249.75284" gradientUnits="userSpaceOnUse" id="color-6"><stop offset="0" stop-color="#000000"/><stop offset="1" stop-color="#000000" stop-opacity="0"/></linearGradient></defs><g transform="translate(16.51652,30)"><g stroke-miterlimit="10"><path d="M3.17748,115.6871v-123.3741h716.82252v123.3741z" fill="#0c0626" stroke="#000000" stroke-width="0"/><path d="M2.56455,367.68709v-123.3741h716.82252v123.3741z" fill="#0c0626" stroke="#000000" stroke-width="0"/><g stroke-width="0"><path d="M1036.81682,139.5l-41.01382,87l-1003.94704,133.5v-360z" fill="#190d4f" stroke="none"/><path d="M-16.51652,299.50004v-225l1044.96086,98.66666v15z" fill="#2b1689" stroke="#000000"/></g><g stroke="#000000" stroke-width="0"><path d="M703.89058,70.49347c-24.43076,0 -44.85019,-13.93902 -44.85019,-22.13745c0,-8.19843 19.80504,-14.84456 44.23581,-14.84456c24.43076,0 44.23581,6.64613 44.23581,14.84456c0,8.19843 -19.19066,22.13745 -43.62142,22.13745z" fill="#181818"/><path d="M703.78102,74.48864c-20.07377,0 -36.85159,-11.45314 -36.85159,-18.18945c0,-6.73631 16.273,-12.19718 36.34678,-12.19718c20.07377,0 36.34678,5.46086 36.34678,12.19718c0,6.73631 -15.76818,18.18945 -35.84196,18.18945z" fill="#404040"/></g><path d="M378.47085,309.00304v-258.006l175.22284,23.77147v210.72966z" fill="#000000" stroke="none" stroke-width="NaN"/><path d="M-15.5,30v-60h751v60z" fill="#000000" stroke-opacity="0.50196" stroke="#0d0d0d" stroke-width="0"/><path d="M-15.5,390v-60h751v60z" fill="#000000" stroke-opacity="0.50196" stroke="#0d0d0d" stroke-width="0"/><path d="M340,353.5v-19h40v19z" fill="#000000" stroke="#484c5e" stroke-width="0"/><g stroke-width="0"><g stroke="#000000"><path d="M-7.50751,364.00105v-372.37237h735.015v372.37237z" fill="url(#color-1)"/><path d="M-7.5075,364.00105v-372.37237h735.015v372.37237z" fill="url(#color-2)"/></g><g stroke="none"><path d="M-5.24206,376.2533v-390.39039h155.90105v390.39039z" fill="url(#color-3)"/><path d="M571.60646,373.01004v-390.39039h155.90105v390.39039z" fill="url(#color-4)"/><path d="M-6.53233,110.48754v-127.62762h733.55954v127.62763z" fill="url(#color-5)"/><path d="M726.05204,249.75284v127.62762h-733.55954v-127.62762z" fill="url(#color-6)"/></g></g></g></g></svg>