<svg version="1.1" xmlns="http://www.w3.org/2000/svg" xmlns:xlink="http://www.w3.org/1999/xlink" width="175.24369" height="277.5" viewBox="0,0,175.24369,277.5"><g transform="translate(-272.37815,-41.25)"><g data-paper-data="{&quot;isPaintingLayer&quot;:true}" fill-rule="nonzero" stroke="none" stroke-width="0" stroke-linecap="butt" stroke-linejoin="miter" stroke-miterlimit="10" stroke-dasharray="" stroke-dashoffset="0" style="mix-blend-mode: normal"><g><path d="M344.76993,305.25c0,-7.45585 6.04415,-13.5 13.5,-13.5c7.45585,0 13.5,6.04415 13.5,13.5c0,7.45585 -6.04415,13.5 -13.5,13.5c-7.45585,0 -13.5,-6.04415 -13.5,-13.5z" fill="#1c1c1c"/><path d="M344.26993,290.25l-32,-82h93l-36,82z" fill="#676767"/><path d="M392.76993,305.25c0,-7.45585 6.04415,-13.5 13.5,-13.5c7.45585,0 13.5,6.04415 13.5,13.5c0,7.45585 -6.04415,13.5 -13.5,13.5c-7.45585,0 -13.5,-6.04415 -13.5,-13.5z" fill="#1c1c1c"/><path d="M298.76993,305.25c0,-7.45585 6.04415,-13.5 13.5,-13.5c7.45585,0 13.5,6.04415 13.5,13.5c0,7.45585 -6.04415,13.5 -13.5,13.5c-7.45585,0 -13.5,-6.04415 -13.5,-13.5z" fill="#1c1c1c"/><path d="M309.76993,199.25v-107h25v107z" fill="#7a7a7a"/><path d="M383.76993,199.25v-107h25v107z" fill="#7a7a7a"/><path d="M290.26993,103.66667c0,-8.83924 0,-36.27507 0,-51.66666c0,-6.42406 2.90245,-10.75 7.83333,-10.75c24.73151,0 100.49152,0 117,0c6.18135,0 12.16667,4.4517 12.16667,11.08333c0,16.72767 0,47.32525 0,55.33333c0,3.77872 -4.52474,7.58334 -9.5,7.58334c-14.30734,0 -84.7147,0 -114.33333,0c-8.11383,0 -13.16667,-6.18617 -13.16667,-11.58334z" fill="#426794"/><path d="M276.76993,218.25c0,0 -9.88149,-23.72062 0,-30c11.18345,-7.10673 145.99856,-8.49169 164,0c15.41681,7.27247 0,30 0,30z" fill="#426794"/><path d="M380.31831,265.25l39.45162,30h-120l35.29032,-30z" data-paper-data="{&quot;index&quot;:null}" fill="#7a7a7a"/><path d="M293.76993,305.25v-14h130v14z" fill="#959595"/></g></g></g></svg>