<svg version="1.1" xmlns="http://www.w3.org/2000/svg" xmlns:xlink="http://www.w3.org/1999/xlink" width="735.66667" height="372.37237" viewBox="0,0,735.66667,372.37237"><defs><radialGradient cx="360.53734" cy="169.6583" r="68.5" gradientUnits="userSpaceOnUse" id="color-1"><stop offset="0" stop-color="#e3e3e3"/><stop offset="1" stop-color="#adadad"/></radialGradient><radialGradient cx="360.48106" cy="177.76429" r="322.2453" gradientUnits="userSpaceOnUse" id="color-2"><stop offset="0" stop-color="#000000" stop-opacity="0.83922"/><stop offset="1" stop-color="#000000" stop-opacity="0"/></radialGradient><linearGradient x1="702.57324" y1="180.82073" x2="556.55355" y2="180.82073" gradientUnits="userSpaceOnUse" id="color-3"><stop offset="0" stop-color="#000000"/><stop offset="1" stop-color="#000000" stop-opacity="0"/></linearGradient><linearGradient x1="16.26703" y1="177.76432" x2="162.28671" y2="177.76432" gradientUnits="userSpaceOnUse" id="color-4"><stop offset="0" stop-color="#000000"/><stop offset="1" stop-color="#000000" stop-opacity="0"/></linearGradient><linearGradient x1="360.24932" y1="-5.95977" x2="360.24932" y2="114.31555" gradientUnits="userSpaceOnUse" id="color-5"><stop offset="0" stop-color="#000000"/><stop offset="1" stop-color="#000000" stop-opacity="0"/></linearGradient><linearGradient x1="361.16268" y1="365.83345" x2="361.16268" y2="245.55813" gradientUnits="userSpaceOnUse" id="color-6"><stop offset="0" stop-color="#000000"/><stop offset="1" stop-color="#000000" stop-opacity="0"/></linearGradient></defs><g transform="translate(7.83332,6.18617)"><g stroke-miterlimit="10"><path d="M-7.83332,366.18621v-372.37237h735.66667v372.37237z" fill="#8c7b56" stroke="#000000" stroke-width="0" stroke-linecap="butt"/><g><path d="M255.49921,267.91887l1.09813,-197.68201l208.97815,1.16085l-1.09813,197.68204z" fill="#070a1d" stroke="#000000" stroke-width="0" stroke-linecap="butt"/><path d="M229.86279,283.32205l0.67836,-25.91672l259.59608,6.44111l-0.67836,25.91672z" fill="#808080" stroke="none" stroke-width="0" stroke-linecap="butt"/><path d="M292.03734,169.6583c0,-37.83151 30.66849,-68.5 68.5,-68.5c37.83151,0 68.5,30.66849 68.5,68.5c0,37.83151 -30.66849,68.5 -68.5,68.5c-37.83151,0 -68.5,-30.66849 -68.5,-68.5z" fill="url(#color-1)" stroke="#000000" stroke-width="2.5" stroke-linecap="butt"/><path d="M316.25001,221.62097c0,-24.41203 0,-87.29323 0,-105.5" fill="none" stroke="#000000" stroke-width="5" stroke-linecap="round"/><path d="M406.25001,117.75833c0,23.29427 0,77.17761 0,102.5" fill="none" stroke="#000000" stroke-width="5" stroke-linecap="round"/><path d="M360.53734,237.1583v-135" fill="none" stroke="#000000" stroke-width="5" stroke-linecap="round"/><path d="M415.00001,210.6583c-33.39676,0 -87.48448,0 -109,0" fill="none" stroke="#000000" stroke-width="5" stroke-linecap="round"/><path d="M414.50001,128.6583c-36.64778,0 -89.66724,0 -109,0" fill="none" stroke="#000000" stroke-width="5" stroke-linecap="round"/><path d="M429.00001,166.37097c-39.39788,0 -117.4696,0 -137,0" fill="none" stroke="#000000" stroke-width="5" stroke-linecap="round"/></g><g stroke-width="0" stroke-linecap="butt"><path d="M702.48073,366.18621v-372.14596h25.35263v372.14596z" fill="#000000" stroke="none"/><g><g fill="url(#color-2)" stroke="#000000"><path d="M38.23575,353.22477v-350.92091h644.49061v350.92091z"/></g><g stroke="none"><path d="M556.55355,364.7712v-367.90095h146.01968v367.90095z" fill="url(#color-3)"/><path d="M16.26704,361.71479v-367.90095h146.01968v367.90095z" fill="url(#color-4)"/><path d="M16.71689,114.31557v-120.27531h687.06482v120.2753z" fill="url(#color-5)"/><path d="M704.69509,245.55813v120.2753h-687.06482v-120.2753z" fill="url(#color-6)"/></g><path d="M-7.83331,365.97745v-372.14596h25.35263v372.14596z" fill="#000000" stroke="none"/></g></g></g></g></svg>