<svg version="1.1" xmlns="http://www.w3.org/2000/svg" xmlns:xlink="http://www.w3.org/1999/xlink" width="736.51652" height="395.13514" viewBox="0,0,736.51652,395.13514"><defs><radialGradient cx="360.48159" cy="177.62761" r="322.61756" gradientUnits="userSpaceOnUse" id="color-1"><stop offset="0" stop-color="#000000" stop-opacity="0.83922"/><stop offset="1" stop-color="#000000" stop-opacity="0"/></radialGradient><linearGradient x1="702.96895" y1="180.87088" x2="556.78058" y2="180.87088" gradientUnits="userSpaceOnUse" id="color-2"><stop offset="0" stop-color="#000000"/><stop offset="1" stop-color="#000000" stop-opacity="0"/></linearGradient><linearGradient x1="15.86993" y1="177.62763" x2="162.0583" y2="177.62763" gradientUnits="userSpaceOnUse" id="color-3"><stop offset="0" stop-color="#000000"/><stop offset="1" stop-color="#000000" stop-opacity="0"/></linearGradient><linearGradient x1="360.24958" y1="-17.32732" x2="360.24958" y2="110.30031" gradientUnits="userSpaceOnUse" id="color-4"><stop offset="0" stop-color="#000000"/><stop offset="1" stop-color="#000000" stop-opacity="0"/></linearGradient><linearGradient x1="361.16399" y1="377.19325" x2="361.16399" y2="249.56562" gradientUnits="userSpaceOnUse" id="color-5"><stop offset="0" stop-color="#000000"/><stop offset="1" stop-color="#000000" stop-opacity="0"/></linearGradient></defs><g transform="translate(8.25826,17.56757)"><g stroke-width="0" stroke-miterlimit="10"><g><path d="M0,152.99999v-153h719.43382v153z" fill="#330f00" stroke="#000000"/><path d="M0.56618,359.99999v-160.3741h719.43382v160.3741z" fill="#330f00" stroke="#000000"/><path d="M296,244v-128h128v128z" fill="#000000" stroke="#000000"/><path d="M0,359.99999v-360l295,116l1,128.5z" fill="#4f2600" stroke="none"/><path d="M720,-0.00001v360l-295,-116l-1,-128.5z" fill="#4f2600" stroke="none"/><path d="M98.85396,74.87138l89.34172,35.13098l-3.13237,177.78543l-89.72687,35.01167z" fill="#000000" stroke="none"/><path d="M618.42962,319.96403l-89.72687,-35.01166l-3.13237,-177.78542l89.34172,-35.13098z" fill="#000000" stroke="none"/><g><path d="M702.87634,377.56757v-394.89489h25.38192v394.89489z" fill="#000000" stroke="none"/><g><g fill="url(#color-1)" stroke="#000000"><path d="M37.86403,363.81382v-372.37237h645.23512v372.37237z"/></g><g stroke="none"><path d="M556.78059,376.06607v-390.39039h146.18836v390.39039z" fill="url(#color-2)"/><path d="M15.86994,372.82282v-390.39039h146.18836v390.39039z" fill="url(#color-3)"/><path d="M16.32031,110.30032v-127.62763h687.85852v127.62762z" fill="url(#color-4)"/><path d="M705.09325,249.56562v127.62762h-687.85852v-127.62762z" fill="url(#color-5)"/></g><path d="M-8.25826,377.34605v-394.89489h25.38192v394.89489z" fill="#000000" stroke="none"/></g></g></g></g></g></svg>