<svg version="1.1" xmlns="http://www.w3.org/2000/svg" xmlns:xlink="http://www.w3.org/1999/xlink" width="950.45345" height="457.71112" viewBox="0,0,950.45345,457.71112"><defs><linearGradient x1="360" y1="39.60963" x2="360" y2="414.98503" gradientUnits="userSpaceOnUse" id="color-1"><stop offset="0" stop-color="#000000"/><stop offset="1" stop-color="#000000"/></linearGradient><linearGradient x1="-3.36635" y1="120.1787" x2="-3.36635" y2="143.22475" gradientUnits="userSpaceOnUse" id="color-2"><stop offset="0" stop-color="#411a00"/><stop offset="1" stop-color="#160c02"/></linearGradient><linearGradient x1="-3.36636" y1="129.1762" x2="-3.36636" y2="152.22224" gradientUnits="userSpaceOnUse" id="color-3"><stop offset="0" stop-color="#823400"/><stop offset="1" stop-color="#68360a"/></linearGradient><linearGradient x1="-3.36635" y1="255.80933" x2="-3.36635" y2="278.85535" gradientUnits="userSpaceOnUse" id="color-4"><stop offset="0" stop-color="#411a00"/><stop offset="1" stop-color="#160c02"/></linearGradient><linearGradient x1="-3.36635" y1="264.80681" x2="-3.36635" y2="287.85285" gradientUnits="userSpaceOnUse" id="color-5"><stop offset="0" stop-color="#823400"/><stop offset="1" stop-color="#68360a"/></linearGradient><linearGradient x1="718.10811" y1="113.1667" x2="718.10811" y2="136.21274" gradientUnits="userSpaceOnUse" id="color-6"><stop offset="0" stop-color="#411a00"/><stop offset="1" stop-color="#160c02"/></linearGradient><linearGradient x1="718.10811" y1="122.16418" x2="718.10811" y2="145.21023" gradientUnits="userSpaceOnUse" id="color-7"><stop offset="0" stop-color="#823400"/><stop offset="1" stop-color="#68360a"/></linearGradient><linearGradient x1="718.10811" y1="248.79735" x2="718.10811" y2="271.84335" gradientUnits="userSpaceOnUse" id="color-8"><stop offset="0" stop-color="#411a00"/><stop offset="1" stop-color="#160c02"/></linearGradient><linearGradient x1="718.10811" y1="257.79483" x2="718.10811" y2="280.84085" gradientUnits="userSpaceOnUse" id="color-9"><stop offset="0" stop-color="#823400"/><stop offset="1" stop-color="#68360a"/></linearGradient><radialGradient cx="360" cy="227.2973" r="210.2102" gradientUnits="userSpaceOnUse" id="color-10"><stop offset="0" stop-color="#000000"/><stop offset="1" stop-color="#000000"/></radialGradient></defs><g transform="translate(109.97297,42.72608)"><g data-paper-data="{&quot;isPaintingLayer&quot;:true}" fill-rule="nonzero" stroke="#000000" stroke-width="0" stroke-linecap="butt" stroke-linejoin="miter" stroke-miterlimit="10" stroke-dasharray="" stroke-dashoffset="0" style="mix-blend-mode: normal"><g><path d="M-109.97297,414.98503v-457.71111h949.70605v457.71112z" fill="#593f2b"/><path d="M-109.22556,311.87687v-233.34972h949.70604v233.34972z" fill="#593010"/><path d="M296,244v-128h128v128z" fill="#000000"/><path d="M149.78979,414.98503c0,0 0,-213.63398 0,-282.28228c0,-39.42273 35.81118,-93.09309 84.08408,-93.09309c75.59317,0 181.74515,0 228.79279,0c45.19736,0 107.54354,55.66623 107.54354,96.02102c0,68.83188 0,279.35435 0,279.35435z" fill="url(#color-1)"/><g><path d="M-109.97297,143.22475v-23.04605h213.21321v23.04605z" fill="url(#color-2)"/><path d="M-109.97297,152.22224v-23.04605h213.21321v23.04605z" fill="url(#color-3)"/></g><g><path d="M-109.97297,278.85535v-23.04605h213.21321v23.04605z" fill="url(#color-4)"/><path d="M-109.97297,287.85285v-23.04604h213.21321v23.04604z" fill="url(#color-5)"/></g><g><path d="M595.73574,136.21274v-23.04605h244.74474v23.04605z" fill="url(#color-6)"/><path d="M595.73574,145.21023v-23.04604h244.74474v23.04604z" fill="url(#color-7)"/></g><g><path d="M595.73574,271.84335v-23.04604h244.74474v23.04604z" fill="url(#color-8)"/><path d="M595.73574,280.84085v-23.04604h244.74474v23.04604z" fill="url(#color-9)"/></g><path d="M149.78979,414.98503c0,0 0,-213.63398 0,-282.28228c0,-39.42273 35.81118,-93.09309 84.08408,-93.09309c75.59317,0 181.74515,0 228.79279,0c45.19736,0 107.54354,55.66623 107.54354,96.02102c0,68.83188 0,279.35435 0,279.35435z" fill="url(#color-10)"/></g></g></g></svg>