<svg version="1.1" xmlns="http://www.w3.org/2000/svg" xmlns:xlink="http://www.w3.org/1999/xlink" width="189.58765" height="363.40059" viewBox="0,0,189.58765,363.40059"><defs><radialGradient cx="354.463" cy="167.30646" r="44.75" gradientUnits="userSpaceOnUse" id="color-1"><stop offset="0" stop-color="#636363"/><stop offset="1" stop-color="#484848"/></radialGradient><radialGradient cx="274.463" cy="121.30646" r="16.63662" gradientUnits="userSpaceOnUse" id="color-2"><stop offset="0" stop-color="#636363"/><stop offset="1" stop-color="#484848"/></radialGradient><radialGradient cx="289.95065" cy="113.56612" r="26.38224" gradientUnits="userSpaceOnUse" id="color-3"><stop offset="0" stop-color="#101010"/><stop offset="1" stop-color="#080808"/></radialGradient><radialGradient cx="391.19055" cy="238.95253" r="6.79851" gradientUnits="userSpaceOnUse" id="color-4"><stop offset="0" stop-color="#bd8544"/><stop offset="1" stop-color="#a1713a"/></radialGradient><radialGradient cx="412.48801" cy="223.82248" r="7.06826" gradientUnits="userSpaceOnUse" id="color-5"><stop offset="0" stop-color="#c19461"/><stop offset="1" stop-color="#95724a"/></radialGradient><radialGradient cx="409.08794" cy="233.62248" r="13.5584" gradientUnits="userSpaceOnUse" id="color-6"><stop offset="0" stop-color="#f2aa58"/><stop offset="1" stop-color="#ba8243"/></radialGradient><radialGradient cx="416.27337" cy="217.71477" r="8.76928" gradientUnits="userSpaceOnUse" id="color-7"><stop offset="0" stop-color="#f2ba7a"/><stop offset="1" stop-color="#cb9c66"/></radialGradient><radialGradient cx="369.34718" cy="222.04631" r="6.79895" gradientUnits="userSpaceOnUse" id="color-8"><stop offset="0" stop-color="#bd8544"/><stop offset="1" stop-color="#a1713a"/></radialGradient><radialGradient cx="368.75298" cy="207.17343" r="12.25979" gradientUnits="userSpaceOnUse" id="color-9"><stop offset="0" stop-color="#f2aa58"/><stop offset="1" stop-color="#ba8243"/></radialGradient><radialGradient cx="376.68795" cy="229.42248" r="13.53177" gradientUnits="userSpaceOnUse" id="color-10"><stop offset="0" stop-color="#f2aa58"/><stop offset="1" stop-color="#ba8243"/></radialGradient><radialGradient cx="411.34456" cy="220.30706" r="8.99317" gradientUnits="userSpaceOnUse" id="color-11"><stop offset="0" stop-color="#bd8544"/><stop offset="1" stop-color="#a1713a"/></radialGradient><radialGradient cx="391.55363" cy="253.30571" r="3.61377" gradientUnits="userSpaceOnUse" id="color-12"><stop offset="0" stop-color="#bd8544"/><stop offset="1" stop-color="#a1713a"/></radialGradient><radialGradient cx="392.47744" cy="257.79122" r="4.28752" gradientUnits="userSpaceOnUse" id="color-13"><stop offset="0" stop-color="#f2aa58"/><stop offset="1" stop-color="#ba8243"/></radialGradient><radialGradient cx="391.31214" cy="243.58907" r="3.61377" gradientUnits="userSpaceOnUse" id="color-14"><stop offset="0" stop-color="#bd8544"/><stop offset="1" stop-color="#a1713a"/></radialGradient><radialGradient cx="390.90026" cy="247.16431" r="4.59875" gradientUnits="userSpaceOnUse" id="color-15"><stop offset="0" stop-color="#f2aa58"/><stop offset="1" stop-color="#ba8243"/></radialGradient><radialGradient cx="395.46563" cy="233.62582" r="3.61377" gradientUnits="userSpaceOnUse" id="color-16"><stop offset="0" stop-color="#bd8544"/><stop offset="1" stop-color="#a1713a"/></radialGradient><radialGradient cx="393.15553" cy="238.53783" r="7.12355" gradientUnits="userSpaceOnUse" id="color-17"><stop offset="0" stop-color="#f2aa58"/><stop offset="1" stop-color="#ba8243"/></radialGradient><radialGradient cx="421.8717" cy="260.94435" r="3.61377" gradientUnits="userSpaceOnUse" id="color-18"><stop offset="0" stop-color="#bd8544"/><stop offset="1" stop-color="#a1713a"/></radialGradient><radialGradient cx="422.01048" cy="265.52191" r="4.28752" gradientUnits="userSpaceOnUse" id="color-19"><stop offset="0" stop-color="#f2aa58"/><stop offset="1" stop-color="#ba8243"/></radialGradient><radialGradient cx="412.0942" cy="261.04433" r="3.61377" gradientUnits="userSpaceOnUse" id="color-20"><stop offset="0" stop-color="#bd8544"/><stop offset="1" stop-color="#a1713a"/></radialGradient><radialGradient cx="411.98792" cy="265.62189" r="4.28752" gradientUnits="userSpaceOnUse" id="color-21"><stop offset="0" stop-color="#f2aa58"/><stop offset="1" stop-color="#ba8243"/></radialGradient><radialGradient cx="401.82664" cy="261.1443" r="3.61377" gradientUnits="userSpaceOnUse" id="color-22"><stop offset="0" stop-color="#bd8544"/><stop offset="1" stop-color="#a1713a"/></radialGradient><radialGradient cx="401.96536" cy="265.72186" r="4.28752" gradientUnits="userSpaceOnUse" id="color-23"><stop offset="0" stop-color="#f2aa58"/><stop offset="1" stop-color="#ba8243"/></radialGradient><radialGradient cx="422.0942" cy="251.28933" r="3.61377" gradientUnits="userSpaceOnUse" id="color-24"><stop offset="0" stop-color="#bd8544"/><stop offset="1" stop-color="#a1713a"/></radialGradient><radialGradient cx="421.56645" cy="254.8493" r="4.59875" gradientUnits="userSpaceOnUse" id="color-25"><stop offset="0" stop-color="#f2aa58"/><stop offset="1" stop-color="#ba8243"/></radialGradient><radialGradient cx="412.07173" cy="251.38931" r="3.61377" gradientUnits="userSpaceOnUse" id="color-26"><stop offset="0" stop-color="#bd8544"/><stop offset="1" stop-color="#a1713a"/></radialGradient><radialGradient cx="411.54389" cy="254.94928" r="4.59875" gradientUnits="userSpaceOnUse" id="color-27"><stop offset="0" stop-color="#f2aa58"/><stop offset="1" stop-color="#ba8243"/></radialGradient><radialGradient cx="402.04916" cy="251.48928" r="3.61377" gradientUnits="userSpaceOnUse" id="color-28"><stop offset="0" stop-color="#bd8544"/><stop offset="1" stop-color="#a1713a"/></radialGradient><radialGradient cx="401.52133" cy="255.04925" r="4.59875" gradientUnits="userSpaceOnUse" id="color-29"><stop offset="0" stop-color="#f2aa58"/><stop offset="1" stop-color="#ba8243"/></radialGradient><radialGradient cx="421.94921" cy="241.1395" r="3.61377" gradientUnits="userSpaceOnUse" id="color-30"><stop offset="0" stop-color="#bd8544"/><stop offset="1" stop-color="#a1713a"/></radialGradient><radialGradient cx="422.08856" cy="246.5628" r="7.12356" gradientUnits="userSpaceOnUse" id="color-31"><stop offset="0" stop-color="#f2aa58"/><stop offset="1" stop-color="#ba8243"/></radialGradient><radialGradient cx="402.27166" cy="241.09925" r="3.61377" gradientUnits="userSpaceOnUse" id="color-32"><stop offset="0" stop-color="#bd8544"/><stop offset="1" stop-color="#a1713a"/></radialGradient><radialGradient cx="402.04353" cy="246.52255" r="7.12356" gradientUnits="userSpaceOnUse" id="color-33"><stop offset="0" stop-color="#f2aa58"/><stop offset="1" stop-color="#ba8243"/></radialGradient><radialGradient cx="412.04916" cy="241.23948" r="3.61377" gradientUnits="userSpaceOnUse" id="color-34"><stop offset="0" stop-color="#bd8544"/><stop offset="1" stop-color="#a1713a"/></radialGradient><radialGradient cx="412.06609" cy="246.66278" r="7.12356" gradientUnits="userSpaceOnUse" id="color-35"><stop offset="0" stop-color="#f2aa58"/><stop offset="1" stop-color="#ba8243"/></radialGradient><radialGradient cx="410.72405" cy="234.05058" r="15.53575" gradientUnits="userSpaceOnUse" id="color-36"><stop offset="0" stop-color="#f2aa58"/><stop offset="1" stop-color="#ba8243"/></radialGradient><radialGradient cx="340.37188" cy="333.20661" r="8.6" gradientUnits="userSpaceOnUse" id="color-37"><stop offset="0" stop-color="#bd8544"/><stop offset="1" stop-color="#a1713a"/></radialGradient><radialGradient cx="375.37188" cy="329.60661" r="8.6" gradientUnits="userSpaceOnUse" id="color-38"><stop offset="0" stop-color="#bd8544"/><stop offset="1" stop-color="#a1713a"/></radialGradient><radialGradient cx="410.76129" cy="194.47341" r="26.38224" gradientUnits="userSpaceOnUse" id="color-39"><stop offset="0" stop-color="#101010"/><stop offset="1" stop-color="#080808"/></radialGradient><radialGradient cx="410.60217" cy="132.5608" r="26.38224" gradientUnits="userSpaceOnUse" id="color-40"><stop offset="0" stop-color="#101010"/><stop offset="1" stop-color="#080808"/></radialGradient><radialGradient cx="376.37311" cy="300.34978" r="28.3148" gradientUnits="userSpaceOnUse" id="color-41"><stop offset="0" stop-color="#111111"/><stop offset="1" stop-color="#0b0b0b"/></radialGradient><radialGradient cx="377.24811" cy="238.3498" r="28.3148" gradientUnits="userSpaceOnUse" id="color-42"><stop offset="0" stop-color="#111111"/><stop offset="1" stop-color="#0b0b0b"/></radialGradient><radialGradient cx="340.62314" cy="299.70626" r="28.3148" gradientUnits="userSpaceOnUse" id="color-43"><stop offset="0" stop-color="#111111"/><stop offset="1" stop-color="#0b0b0b"/></radialGradient><radialGradient cx="341.49814" cy="237.70627" r="28.3148" gradientUnits="userSpaceOnUse" id="color-44"><stop offset="0" stop-color="#111111"/><stop offset="1" stop-color="#0b0b0b"/></radialGradient><radialGradient cx="402.24077" cy="351.58079" r="8.11571" gradientUnits="userSpaceOnUse" id="color-45"><stop offset="0" stop-color="#c19461"/><stop offset="1" stop-color="#95724a"/></radialGradient><radialGradient cx="372.55792" cy="344.83234" r="20.37938" gradientUnits="userSpaceOnUse" id="color-46"><stop offset="0" stop-color="#f2aa58"/><stop offset="1" stop-color="#ba8243"/></radialGradient><radialGradient cx="380.10028" cy="356.5429" r="8.11571" gradientUnits="userSpaceOnUse" id="color-47"><stop offset="0" stop-color="#f2ba7a"/><stop offset="1" stop-color="#cb9c66"/></radialGradient><radialGradient cx="394.49991" cy="355.15351" r="8.11571" gradientUnits="userSpaceOnUse" id="color-48"><stop offset="0" stop-color="#f2ba7a"/><stop offset="1" stop-color="#cb9c66"/></radialGradient><radialGradient cx="312.90218" cy="351.26215" r="8.1157" gradientUnits="userSpaceOnUse" id="color-49"><stop offset="0" stop-color="#c19461"/><stop offset="1" stop-color="#95724a"/></radialGradient><radialGradient cx="342.58509" cy="344.51368" r="20.37938" gradientUnits="userSpaceOnUse" id="color-50"><stop offset="0" stop-color="#f2aa58"/><stop offset="1" stop-color="#ba8243"/></radialGradient><radialGradient cx="335.04269" cy="356.22425" r="8.11571" gradientUnits="userSpaceOnUse" id="color-51"><stop offset="0" stop-color="#f2ba7a"/><stop offset="1" stop-color="#cb9c66"/></radialGradient><radialGradient cx="320.64306" cy="354.83486" r="8.1157" gradientUnits="userSpaceOnUse" id="color-52"><stop offset="0" stop-color="#f2ba7a"/><stop offset="1" stop-color="#cb9c66"/></radialGradient><radialGradient cx="371.95759" cy="132.45646" r="50.23314" gradientUnits="userSpaceOnUse" id="color-53"><stop offset="0" stop-color="#121212"/><stop offset="1" stop-color="#0b0b0b"/></radialGradient><radialGradient cx="371.95759" cy="132.45646" r="50.23314" gradientUnits="userSpaceOnUse" id="color-54"><stop offset="0" stop-color="#121212"/><stop offset="1" stop-color="#0b0b0b"/></radialGradient><radialGradient cx="360.99121" cy="96.69108" r="7.43367" gradientUnits="userSpaceOnUse" id="color-55"><stop offset="0" stop-color="#ff2525"/><stop offset="1" stop-color="#dc2121"/></radialGradient><radialGradient cx="366.24814" cy="204.62318" r="39.79167" gradientUnits="userSpaceOnUse" id="color-56"><stop offset="0" stop-color="#111111"/><stop offset="1" stop-color="#0b0b0b"/></radialGradient><radialGradient cx="361.91841" cy="77.53639" r="18.61795" gradientUnits="userSpaceOnUse" id="color-57"><stop offset="0" stop-color="#be915f"/><stop offset="1" stop-color="#7f613f"/></radialGradient><radialGradient cx="361.12241" cy="74.50144" r="4.74006" gradientUnits="userSpaceOnUse" id="color-58"><stop offset="0" stop-color="#323232"/><stop offset="1" stop-color="#393939"/></radialGradient><radialGradient cx="361.08854" cy="69.16755" r="6.50065" gradientUnits="userSpaceOnUse" id="color-59"><stop offset="0" stop-color="#636363"/><stop offset="1" stop-color="#484848"/></radialGradient><radialGradient cx="346.17012" cy="67.54317" r="3.07896" gradientUnits="userSpaceOnUse" id="color-60"><stop offset="0" stop-color="#d7d7d7"/><stop offset="1" stop-color="#c6c6c6"/></radialGradient><radialGradient cx="350.203" cy="64.85789" r="3.98925" gradientUnits="userSpaceOnUse" id="color-61"><stop offset="0" stop-color="#e4e4e4"/><stop offset="1" stop-color="#d9d9d9"/></radialGradient><radialGradient cx="375.65216" cy="67.20125" r="3.1668" gradientUnits="userSpaceOnUse" id="color-62"><stop offset="0" stop-color="#d7d7d7"/><stop offset="1" stop-color="#c6c6c6"/></radialGradient><radialGradient cx="373.32032" cy="67.84664" r="3.19583" gradientUnits="userSpaceOnUse" id="color-63"><stop offset="0" stop-color="#ffffff"/><stop offset="1" stop-color="#d9d9d9"/></radialGradient><radialGradient cx="363.35972" cy="68.41832" r="3.13591" gradientUnits="userSpaceOnUse" id="color-64"><stop offset="0" stop-color="#ffffff"/><stop offset="1" stop-color="#d9d9d9"/></radialGradient><radialGradient cx="359.17347" cy="68.18076" r="3.13591" gradientUnits="userSpaceOnUse" id="color-65"><stop offset="0" stop-color="#d7d7d7"/><stop offset="1" stop-color="#c6c6c6"/></radialGradient><radialGradient cx="368.34405" cy="68.50338" r="3.60025" gradientUnits="userSpaceOnUse" id="color-66"><stop offset="0" stop-color="#e4e4e4"/><stop offset="1" stop-color="#d9d9d9"/></radialGradient><radialGradient cx="354.41407" cy="68.50338" r="3.60025" gradientUnits="userSpaceOnUse" id="color-67"><stop offset="0" stop-color="#ffffff"/><stop offset="1" stop-color="#d9d9d9"/></radialGradient><radialGradient cx="382.69046" cy="3.20827" r="17.19965" gradientUnits="userSpaceOnUse" id="color-68"><stop offset="0" stop-color="#c28846"/><stop offset="1" stop-color="#ab783d"/></radialGradient><radialGradient cx="380.13405" cy="9.20996" r="10.00294" gradientUnits="userSpaceOnUse" id="color-69"><stop offset="0" stop-color="#dca96e"/><stop offset="1" stop-color="#bf925f"/></radialGradient><radialGradient cx="363.58412" cy="44.21728" r="42.2475" gradientUnits="userSpaceOnUse" id="color-70"><stop offset="0" stop-color="#f2aa58"/><stop offset="1" stop-color="#ba8243"/></radialGradient><radialGradient cx="358.87859" cy="46.34661" r="38.19635" gradientUnits="userSpaceOnUse" id="color-71"><stop offset="0" stop-color="#f2ba7a"/><stop offset="1" stop-color="#cb9c66"/></radialGradient><radialGradient cx="390.80042" cy="55.05137" r="8.61337" gradientUnits="userSpaceOnUse" id="color-72"><stop offset="0" stop-color="#c22424"/><stop offset="1" stop-color="#ab2121"/></radialGradient><radialGradient cx="353.01901" cy="37.96187" r="10.61758" gradientUnits="userSpaceOnUse" id="color-73"><stop offset="0" stop-color="#0e0e0e"/><stop offset="1" stop-color="#000000"/></radialGradient><radialGradient cx="371.21904" cy="38.19962" r="10.61758" gradientUnits="userSpaceOnUse" id="color-74"><stop offset="0" stop-color="#0e0e0e"/><stop offset="1" stop-color="#000000"/></radialGradient><radialGradient cx="199.66558" cy="11.37027" r="0.00125" gradientUnits="userSpaceOnUse" id="color-75"><stop offset="0" stop-color="#ffffff"/><stop offset="1" stop-color="#bababa"/></radialGradient><radialGradient cx="371.88602" cy="36.98169" r="8.31284" gradientUnits="userSpaceOnUse" id="color-76"><stop offset="0" stop-color="#ffffff"/><stop offset="1" stop-color="#bababa"/></radialGradient><radialGradient cx="361.23015" cy="60.12171" r="18.08803" gradientUnits="userSpaceOnUse" id="color-77"><stop offset="0" stop-color="#f2ba7a"/><stop offset="1" stop-color="#d7a56c"/></radialGradient><radialGradient cx="362.36294" cy="50.66695" r="5.24052" gradientUnits="userSpaceOnUse" id="color-78"><stop offset="0" stop-color="#0e0e0e"/><stop offset="1" stop-color="#000000"/></radialGradient></defs><g transform="translate(-271.837,1.29399)"><g data-paper-data="{&quot;isPaintingLayer&quot;:true}" fill-rule="nonzero" stroke-linejoin="miter" stroke-miterlimit="10" stroke-dasharray="" stroke-dashoffset="0" style="mix-blend-mode: normal"><path d="M348.85651,186.6374l-21.5,-89h68l-19,89.5z" fill="url(#color-1)" stroke="#000000" stroke-width="0" stroke-linecap="butt"/><g><path d="M282.78254,104.93963l12.70977,15.00798l-18.21831,18.26525c-0.91181,-1.29748 -0.88605,-2.27853 -1.4591,-3.6997c-0.70946,-1.75947 -3.14752,-2.79219 -3.59477,-4.70492c-0.04951,-0.2006 -0.43588,-1.1441 -0.37706,-1.30923c0.08995,-0.25255 0.84187,-0.62879 1.65471,-0.88366c0.03252,0.07184 0.0638,0.13739 0.093,0.19542c0.00488,0.27542 -0.08159,1.51695 0.16004,1.65419c0.59449,0.33764 3.52926,-1.71651 1.63686,-2.66057c-0.27412,-0.13675 -0.92129,-0.04499 -1.61891,0.16348c-0.26566,-0.69412 -0.53189,-1.6104 -0.29159,-1.98854c0.351,-0.55231 1.25284,-1.33215 1.2061,-2.2271c-0.03641,-0.69731 -0.82159,-1.18815 -1.06749,-1.76986c-0.25869,-0.61198 0.71386,-2.06944 0.95835,-2.64443c0.05027,-0.92519 0.49888,-2.796 0.15155,-3.64718c-0.2076,-0.50875 -1.04971,-1.01267 -1.96216,-1.52763z" fill="url(#color-2)" stroke="#000000" stroke-width="0" stroke-linecap="butt"/><path d="M306.4639,87.93271c5.05418,-4.28022 12.62121,-3.6528 16.90143,1.40138c4.28022,5.05418 3.6528,12.62121 -1.40138,16.90143c-5.05418,4.28022 -12.62121,3.6528 -16.90143,-1.40138c-4.28022,-5.05418 -3.6528,-12.62121 1.40138,-16.90143z" data-paper-data="{&quot;index&quot;:null}" fill="#060606" stroke="none" stroke-width="0" stroke-linecap="butt"/><path d="M295.55784,87.7952c2.81223,-2.37064 8.656,-1.41774 10.40413,0.84983c2.31703,3.0055 7.71582,9.62367 11.6048,14.66819c1.9793,2.56742 0.19506,7.85243 -2.90765,10.46793c-3.25191,2.74128 -10.95343,9.23373 -18.41405,15.52304c-0.07113,0.04686 -0.12759,0.08373 -0.16258,0.10449c-1.61412,0.9573 -3.30706,1.06771 -5.15232,1.36083c-0.70106,0.11136 -2.71338,0.89974 -3.31078,0.70272c-1.31449,-0.43351 -3.46842,-4.15245 -4.41186,-5.26641c-0.663,-0.77438 -3.54404,-2.81757 -3.32948,-3.96987c0.28537,-1.53261 1.68731,-3.04926 2.09669,-4.65288c-0.51262,-0.29258 -3.60193,-1.78054 -3.23775,-2.68082c0.4836,-1.19549 3.44863,-2.91496 4.46341,-3.8232c1.08655,-1.15762 -0.88625,-1.59173 -1.77881,-1.98844c-2.52048,-1.12027 -4.57631,-1.35044 -7.31811,-1.5243c-0.71201,-0.04515 -1.42371,-0.09193 -2.13518,-0.14034c8.98768,-7.48948 19.79869,-16.43516 23.58955,-19.63077z" data-paper-data="{&quot;index&quot;:null}" fill="url(#color-3)" stroke="none" stroke-width="0" stroke-linecap="butt"/><path d="M279.9088,122.08884l30.89351,-26.16271" fill="none" stroke-opacity="0.11373" stroke="#000000" stroke-width="1" stroke-linecap="round"/></g><g data-paper-data="{&quot;index&quot;:null}" fill="none" stroke="none" stroke-width="1" stroke-linecap="butt" font-family="sans-serif" font-weight="normal" font-size="12" text-anchor="start"><g/><g data-paper-data="{&quot;index&quot;:null}"/></g><g data-paper-data="{&quot;index&quot;:null}" fill="none" stroke="none" stroke-width="1" stroke-linecap="butt" font-family="sans-serif" font-weight="normal" font-size="12" text-anchor="start"><g/><g data-paper-data="{&quot;index&quot;:null}"/></g><path d="" data-paper-data="{&quot;index&quot;:null}" fill="#9966ff" stroke="none" stroke-width="0.5" stroke-linecap="butt"/><g data-paper-data="{&quot;index&quot;:null}" fill="none" stroke="none" stroke-width="1" stroke-linecap="butt" font-family="sans-serif" font-weight="normal" font-size="12" text-anchor="start"><g/><g data-paper-data="{&quot;index&quot;:null}"/></g><g data-paper-data="{&quot;index&quot;:null}" fill="none" stroke="none" stroke-width="1" stroke-linecap="butt" font-family="sans-serif" font-weight="normal" font-size="12" text-anchor="start"><g/><g data-paper-data="{&quot;index&quot;:null}"/></g><path d="" data-paper-data="{&quot;index&quot;:null}" fill="#9966ff" stroke="none" stroke-width="0.5" stroke-linecap="butt"/><g fill="none" stroke="none" stroke-width="1" stroke-linecap="butt" font-family="sans-serif" font-weight="normal" font-size="12" text-anchor="start"><g/><g data-paper-data="{&quot;index&quot;:null}"/></g><g fill="none" stroke="none" stroke-width="1" stroke-linecap="butt" font-family="sans-serif" font-weight="normal" font-size="12" text-anchor="start"><g/><g data-paper-data="{&quot;index&quot;:null}"/></g><path d="" fill="#9966ff" stroke="none" stroke-width="0.5" stroke-linecap="butt"/><g data-paper-data="{&quot;index&quot;:null}" stroke="none" stroke-width="0" stroke-linecap="butt"><path d="M384.50467,240.31248c-1.37314,-3.49456 0.34661,-7.44062 3.84117,-8.81377c3.49456,-1.37314 7.44062,0.34661 8.81376,3.84117c1.37314,3.49456 -0.3466,7.44062 -3.84117,8.81376c-3.49456,1.37314 -7.44062,-0.3466 -8.81376,-3.84117z" fill="url(#color-4)"/><path d="M410.26747,229.63835c-3.46681,-1.79268 -4.82394,-6.05633 -3.03127,-9.52313c1.79267,-3.4668 6.05635,-4.82396 9.52315,-3.03128c3.4668,1.79268 4.82395,6.05634 3.03127,9.52315c-1.79267,3.4668 -6.05634,4.82394 -9.52314,3.03127z" fill="url(#color-5)"/><path d="M388.29191,229.91392l19.38148,-11.15669l7.73531,13.43782l-19.38148,11.15668z" fill="url(#color-6)"/><path d="M407.19556,218.55829c0,0 2.05451,-3.7828 3.50199,-6.20237c0.88367,-1.47716 6.17759,-1.85154 9.10102,-0.53981c4.08346,1.83222 5.82137,6.14629 4.59091,8.20311c-1.51085,2.52552 -3.88799,6.49912 -3.88799,6.49912z" fill="url(#color-7)"/><path d="M365.69361,217.72392c2.84611,-2.44891 7.13856,-2.12694 9.58748,0.71919c2.44891,2.84611 2.12694,7.13857 -0.71918,9.58748c-2.84611,2.44891 -7.13857,2.12693 -9.58748,-0.71919c-2.44891,-2.84611 -2.12692,-7.13855 0.71918,-9.58747z" fill="url(#color-8)"/><path d="M371.87684,197.355l5.46381,21.6855l-15.03526,3.78825l-5.4638,-21.6855z" fill="url(#color-9)"/><path d="M375.87997,217.89446l16.94561,14.59315l-10.11793,11.74896l-16.9456,-14.59316z" fill="url(#color-10)"/></g><path d="M419.76129,215.80011c1.32873,4.78445 -1.47268,9.74016 -6.25713,11.0689c-4.78445,1.32873 -9.74017,-1.47268 -11.0689,-6.25713c-1.32873,-4.78445 1.47267,-9.74016 6.25712,-11.06889c4.78445,-1.32873 9.74017,1.47268 11.06891,6.25713z" data-paper-data="{&quot;index&quot;:null}" fill="url(#color-11)" stroke="none" stroke-width="0" stroke-linecap="butt"/><g data-paper-data="{&quot;index&quot;:null}" stroke="none" stroke-width="0" stroke-linecap="butt"><g data-paper-data="{&quot;index&quot;:null}"><path d="M392.17506,256.86563c-1.96609,0.34323 -3.83817,-0.97234 -4.18141,-2.93844c-0.34323,-1.96609 0.97234,-3.83818 2.93844,-4.18141c1.96609,-0.34323 3.83818,0.97234 4.18141,2.93844c0.34323,1.96609 -0.97235,3.83818 -2.93844,4.18141z" fill="url(#color-12)"/><path d="M395.28601,261.09368c-0.83453,0.14569 -2.63693,0.46035 -4.11534,0.71844c-1.25362,0.21886 -2.47867,-0.77384 -2.62308,-1.601c-0.23658,-1.35518 -0.93629,-5.36316 -0.93629,-5.36316l8.44728,-1.47471c0,0 0.73846,4.23 0.97301,5.57348c0.13284,0.76089 -0.87043,1.99417 -1.74558,2.14695z" fill="url(#color-13)"/></g><g data-paper-data="{&quot;index&quot;:null}"><path d="M391.42953,247.20093c-1.99478,0.06482 -3.66441,-1.49972 -3.72923,-3.49449c-0.06482,-1.99478 1.49972,-3.66441 3.49449,-3.72923c1.99478,-0.06482 3.66441,1.49972 3.72923,3.4945c0.06482,1.99478 -1.49971,3.66441 -3.49449,3.72923z" fill="url(#color-14)"/><path d="M395.07137,252.63143c-1.87173,0.06082 -5.62382,0.18275 -6.75931,0.21965c-0.63682,0.02069 -1.37307,-0.609 -1.40272,-1.52141c-0.0552,-1.69876 -0.13963,-4.29694 -0.17077,-5.25508c-0.02292,-0.70556 0.37426,-1.57915 1.03062,-1.60048c1.87173,-0.06082 5.62383,-0.18275 6.7593,-0.21965c0.63682,-0.02069 1.37851,0.77601 1.40273,1.52141c0.03219,0.99062 0.11946,3.67628 0.1744,5.36689c0,0 -0.3779,1.46734 -1.03425,1.48868z" fill="url(#color-15)"/></g><g data-paper-data="{&quot;index&quot;:null}"><path d="M394.06645,236.95774c-1.84017,-0.77273 -2.70551,-2.8909 -1.93277,-4.73107c0.77273,-1.84017 2.8909,-2.7055 4.73107,-1.93277c1.84017,0.77273 2.7055,2.8909 1.93277,4.73107c-0.77273,1.84017 -2.8909,2.70551 -4.73107,1.93278z" fill="url(#color-16)"/><path d="M394.6045,244.17036c-1.72666,-0.72507 -5.18794,-2.17853 -6.23542,-2.61839c-0.58746,-0.24669 -0.96779,-1.18878 -0.57752,-2.11818c0.72663,-1.73039 1.83799,-4.37696 2.24782,-5.35294c0.3018,-0.71869 1.06175,-1.42981 1.66724,-1.17555c1.72666,0.72507 5.18794,2.17853 6.23542,2.61839c0.58746,0.24669 0.89636,1.35888 0.57752,2.11817c-0.42373,1.00907 -1.5725,3.74475 -2.29564,5.46684c0,0 -1.01393,1.31591 -1.61941,1.06166z" fill="url(#color-17)"/></g><g data-paper-data="{&quot;index&quot;:null}"><path d="M421.8717,264.55812c-1.99583,0 -3.61377,-1.61793 -3.61377,-3.61377c0,-1.99583 1.61794,-3.61377 3.61377,-3.61377c1.99583,0 3.61377,1.61794 3.61377,3.61377c0,1.99583 -1.61793,3.61377 -3.61377,3.61377z" fill="url(#color-18)"/><path d="M424.20916,269.25819c-0.84715,0 -2.67682,0 -4.17758,0c-1.27258,0 -2.30866,-1.18859 -2.30866,-2.02826c0,-1.37568 0,-5.44428 0,-5.44428h8.57504c0,0 0,4.29397 0,5.65777c0,0.7724 -1.20041,1.81476 -2.0888,1.81476z" fill="url(#color-19)"/></g><g data-paper-data="{&quot;index&quot;:null}"><path d="M412.0942,264.65809c-1.99583,0 -3.61377,-1.61793 -3.61377,-3.61377c0,-1.99583 1.61794,-3.61377 3.61377,-3.61377c1.99583,0 3.61377,1.61794 3.61377,3.61377c0,1.99583 -1.61793,3.61377 -3.61377,3.61377z" fill="url(#color-20)"/><path d="M414.1866,269.35816c-0.84715,0 -2.67681,0 -4.17758,0c-1.27258,0 -2.30867,-1.18859 -2.30867,-2.02826c0,-1.37568 0,-5.44428 0,-5.44428h8.57504c0,0 0,4.29397 0,5.65778c0,0.7724 -1.20041,1.81476 -2.0888,1.81476z" fill="url(#color-21)"/></g><g data-paper-data="{&quot;index&quot;:null}"><path d="M401.82664,264.75807c-1.99583,0 -3.61377,-1.61793 -3.61377,-3.61377c0,-1.99583 1.61794,-3.61377 3.61377,-3.61377c1.99583,0 3.61377,1.61794 3.61377,3.61377c0,1.99583 -1.61793,3.61377 -3.61377,3.61377z" fill="url(#color-22)"/><path d="M404.16413,269.45814c-0.84715,0 -2.67682,0 -4.17758,0c-1.27258,0 -2.30866,-1.18859 -2.30866,-2.02826c0,-1.37568 0,-5.44428 0,-5.44428h8.57504c0,0 0,4.29397 0,5.65777c0,0.7724 -1.20041,1.81476 -2.0888,1.81476z" fill="url(#color-23)"/></g><g data-paper-data="{&quot;index&quot;:null}"><path d="M422.0942,254.90309c-1.99583,0 -3.61377,-1.61793 -3.61377,-3.61377c0,-1.99583 1.61794,-3.61377 3.61377,-3.61377c1.99583,0 3.61377,1.61794 3.61377,3.61377c0,1.99583 -1.61793,3.61377 -3.61377,3.61377z" fill="url(#color-24)"/><path d="M425.55776,260.44901c-1.87272,0 -5.62679,0 -6.76288,0c-0.63716,0 -1.35257,-0.65328 -1.35257,-1.56617c0,-1.69966 0,-4.29921 0,-5.25785c0,-0.70593 0.42536,-1.56616 1.08206,-1.56616c1.87272,0 5.62679,0 6.76287,0c0.63716,0 1.35258,0.82037 1.35258,1.56616c0,0.99115 0,3.67822 0,5.36972c0,0 -0.42536,1.4543 -1.08206,1.4543z" fill="url(#color-25)"/></g><g data-paper-data="{&quot;index&quot;:null}"><path d="M412.07173,255.00307c-1.99583,0 -3.61377,-1.61793 -3.61377,-3.61377c0,-1.99583 1.61794,-3.61377 3.61377,-3.61377c1.99583,0 3.61377,1.61794 3.61377,3.61377c0,1.99583 -1.61793,3.61377 -3.61377,3.61377z" fill="url(#color-26)"/><path d="M415.5352,260.54898c-1.87272,0 -5.62679,0 -6.76288,0c-0.63716,0 -1.35257,-0.65328 -1.35257,-1.56617c0,-1.69966 0,-4.29921 0,-5.25785c0,-0.70593 0.42536,-1.56616 1.08206,-1.56616c1.87272,0 5.62679,0 6.76287,0c0.63716,0 1.35258,0.82037 1.35258,1.56616c0,0.99115 0,3.67822 0,5.36972c0,0 -0.42536,1.4543 -1.08206,1.4543z" fill="url(#color-27)"/></g><g data-paper-data="{&quot;index&quot;:null}"><path d="M402.04916,255.10305c-1.99583,0 -3.61377,-1.61793 -3.61377,-3.61377c0,-1.99583 1.61794,-3.61377 3.61377,-3.61377c1.99583,0 3.61377,1.61794 3.61377,3.61377c0,1.99583 -1.61793,3.61377 -3.61377,3.61377z" fill="url(#color-28)"/><path d="M405.5127,260.64896c-1.87272,0 -5.62679,0 -6.76288,0c-0.63716,0 -1.35257,-0.65328 -1.35257,-1.56617c0,-1.69966 0,-4.29921 0,-5.25785c0,-0.70593 0.42536,-1.56616 1.08206,-1.56616c1.87272,0 5.62679,0 6.76287,0c0.63716,0 1.35258,0.82037 1.35258,1.56616c0,0.99115 0,3.67822 0,5.36972c0,0 -0.42536,1.4543 -1.08206,1.4543z" fill="url(#color-29)"/></g><g data-paper-data="{&quot;index&quot;:null}"><path d="M421.94921,244.75327c-1.99583,0 -3.61377,-1.61793 -3.61377,-3.61377c0,-1.99583 1.61794,-3.61377 3.61377,-3.61377c1.99583,0 3.61377,1.61794 3.61377,3.61377c0,1.99583 -1.61793,3.61377 -3.61377,3.61377z" fill="url(#color-30)"/><path d="M425.60531,251.19505c-1.87272,0 -5.62678,0 -6.76287,0c-0.63716,0 -1.35258,-0.72136 -1.35258,-1.72938c0,-1.87677 0,-4.74721 0,-5.80575c0,-0.77948 0.42536,-1.72937 1.08207,-1.72937c1.87272,0 5.62679,0 6.76287,0c0.63716,0 1.35258,0.90586 1.35258,1.72937c0,1.09443 0,4.06151 0,5.92927c0,0 -0.42536,1.60585 -1.08206,1.60585z" fill="url(#color-31)"/></g><g data-paper-data="{&quot;index&quot;:null}"><path d="M402.27166,244.71302c-1.99583,0 -3.61377,-1.61793 -3.61377,-3.61377c0,-1.99583 1.61794,-3.61377 3.61377,-3.61377c1.99583,0 3.61377,1.61794 3.61377,3.61377c0,1.99583 -1.61793,3.61377 -3.61377,3.61377z" fill="url(#color-32)"/><path d="M405.56019,251.1548c-1.87272,0 -5.62678,0 -6.76287,0c-0.63716,0 -1.35258,-0.72136 -1.35258,-1.72938c0,-1.87677 0,-4.74721 0,-5.80574c0,-0.77948 0.42536,-1.72937 1.08207,-1.72937c1.87272,0 5.62679,0 6.76287,0c0.63716,0 1.35258,0.90586 1.35258,1.72937c0,1.09443 0,4.06151 0,5.92927c0,0 -0.42536,1.60584 -1.08206,1.60584z" fill="url(#color-33)"/></g><g data-paper-data="{&quot;index&quot;:null}"><path d="M412.04916,244.85324c-1.99583,0 -3.61377,-1.61793 -3.61377,-3.61377c0,-1.99583 1.61794,-3.61377 3.61377,-3.61377c1.99583,0 3.61377,1.61794 3.61377,3.61377c0,1.99583 -1.61793,3.61377 -3.61377,3.61377z" fill="url(#color-34)"/><path d="M415.58275,251.29502c-1.87272,0 -5.62679,0 -6.76287,0c-0.63716,0 -1.35258,-0.72136 -1.35258,-1.72938c0,-1.87677 0,-4.74721 0,-5.80575c0,-0.77948 0.42536,-1.72937 1.08207,-1.72937c1.87272,0 5.62679,0 6.76287,0c0.63716,0 1.35258,0.90586 1.35258,1.72937c0,1.09443 0,4.06151 0,5.92927c0,0 -0.42536,1.60585 -1.08206,1.60585z" fill="url(#color-35)"/></g><path d="M396.30462,239.47388c0,-15.66475 6.95559,-15.65133 15.53575,-15.65133c8.58015,0 15.53575,-0.01342 15.53575,15.65133c0,2.00835 -15.53335,1.37699 -15.53335,1.37699c0,0 -15.53816,0.53163 -15.53816,-1.37699z" data-paper-data="{&quot;index&quot;:null}" fill="url(#color-36)"/></g><path d="M331.77187,333.20661c0,-4.74965 3.85035,-8.6 8.6,-8.6c4.74965,0 8.6,3.85035 8.6,8.6c0,4.74965 -3.85035,8.6 -8.6,8.6c-4.74965,0 -8.6,-3.85035 -8.6,-8.6z" data-paper-data="{&quot;index&quot;:null}" fill="url(#color-37)" stroke="none" stroke-width="0" stroke-linecap="butt"/><path d="M366.77187,329.60661c0,-4.74965 3.85035,-8.6 8.6,-8.6c4.74965,0 8.6,3.85035 8.6,8.6c0,4.74965 -3.85035,8.6 -8.6,8.6c-4.74965,0 -8.6,-3.85035 -8.6,-8.6z" data-paper-data="{&quot;index&quot;:null}" fill="url(#color-38)" stroke="none" stroke-width="0" stroke-linecap="butt"/><g data-paper-data="{&quot;index&quot;:null}"><path d="M413.87356,174.51057c-6.38154,1.77228 -12.99151,-1.96427 -14.7638,-8.34581c-1.77228,-6.38154 1.96427,-12.99152 8.34581,-14.7638c6.38154,-1.77228 12.99152,1.96427 14.7638,8.34581c1.77228,6.38154 -1.96427,12.99152 -8.34581,14.7638z" data-paper-data="{&quot;index&quot;:null}" fill="#060606" stroke="none" stroke-width="0" stroke-linecap="butt"/><path d="M420.71294,222.65822c-5.78787,0.26591 -13.93149,-0.07628 -18.0091,0.11105c-3.37536,0.15508 -7.97413,-2.49629 -7.984,-6.84114c-0.02596,-11.42306 -0.07519,-33.32869 -0.09073,-40.17122c-0.00922,-4.05803 2.87079,-8.83511 6.10917,-8.98389c6.36286,-0.29233 14.90233,-0.44947 18.69327,-0.62364c2.86017,-0.13141 7.36394,3.71225 7.37229,7.39036c0.0152,6.69146 0.30152,29.90941 0.32812,41.61562c0.00988,4.3495 -3.85547,7.38506 -6.41901,7.50284z" data-paper-data="{&quot;index&quot;:null}" fill="url(#color-39)" stroke="none" stroke-width="0" stroke-linecap="butt"/><path d="M410.58802,166.98621v55.51228" fill="none" stroke-opacity="0.11373" stroke="#000000" stroke-width="1" stroke-linecap="round"/></g><g data-paper-data="{&quot;index&quot;:null}"><path d="M407.49955,115.38554c-6.62307,0 -11.99213,-5.36906 -11.99213,-11.99213c0,-6.62307 5.36906,-11.99213 11.99213,-11.99213c6.62307,0 11.99213,5.36906 11.99213,11.99213c0,6.62307 -5.36906,11.99213 -11.99213,11.99213z" data-paper-data="{&quot;index&quot;:null}" fill="#060606" stroke="none" stroke-width="0" stroke-linecap="butt"/><path d="M420.5539,160.74561c-5.78787,0.26591 -13.93149,-0.07628 -18.0091,0.11105c-3.37536,0.15508 -7.97413,-2.49629 -7.984,-6.84114c-0.02596,-11.42306 -0.07519,-33.32869 -0.09073,-40.17122c-0.00922,-4.05803 2.87079,-8.83511 6.10917,-8.98389c6.36286,-0.29233 14.90232,-0.44947 18.69327,-0.62363c2.86017,-0.13141 7.36394,3.71225 7.37229,7.39036c0.0152,6.69146 0.30152,29.90941 0.32812,41.61562c0.00988,4.3495 -3.85547,7.38506 -6.41901,7.50284z" data-paper-data="{&quot;index&quot;:null}" fill="url(#color-40)" stroke="none" stroke-width="0" stroke-linecap="butt"/><path d="M410.58802,160.51079v-55.26228" fill="none" stroke-opacity="0.11373" stroke="#000000" stroke-width="1" stroke-linecap="round"/></g><g data-paper-data="{&quot;index&quot;:null}"><path d="M390.65688,277.60451c0,2.65787 -6.15609,1.9375 -13.75,1.9375c-7.59391,0 -13.75,0.72037 -13.75,-1.9375c0,-2.65787 27.5,-2.65787 27.5,0z" fill="#0b0b0b" stroke="none" stroke-width="0" stroke-linecap="butt"/><path d="M365.30197,271.28933c0,-6.25488 5.07058,-11.32547 11.32547,-11.32547c6.25488,0 11.32546,5.07058 11.32546,11.32547c0,6.25488 -5.07058,11.32547 -11.32546,11.32547c-6.25488,0 -11.32547,-5.07058 -11.32547,-11.32547z" data-paper-data="{&quot;index&quot;:null}" fill="#090909" stroke="none" stroke-width="0" stroke-linecap="butt"/><path d="M359.78672,324.86705c0.02659,-11.86125 0.31292,-34.37346 0.32812,-41.15354c0.00495,-2.20891 1.58915,-4.83272 3.47433,-6.57587c0.19574,-0.18099 6.44545,1.31063 12.97679,1.47283c6.71695,0.1668 13.72214,-1.31933 14.04109,-0.79396c1.03467,1.70433 1.68691,4.66345 1.68252,6.62365c-0.01554,6.93315 -0.06478,29.63553 -0.09073,41.20988c-0.00987,4.40239 -4.60864,7.08887 -7.984,6.93174c-4.07761,-0.18982 -12.22123,0.15691 -18.0091,-0.11252c-2.56354,-0.11933 -6.42889,-3.1951 -6.41901,-7.60221z" data-paper-data="{&quot;index&quot;:null}" fill="url(#color-41)" stroke="none" stroke-width="0" stroke-linecap="butt"/><path d="M376.74811,332.32118v-53.46631" fill="none" stroke-opacity="0.11373" stroke="#000000" stroke-width="1" stroke-linecap="round"/></g><g data-paper-data="{&quot;index&quot;:null}"><path d="M391.53188,215.60452c0,2.65787 -6.15609,1.9375 -13.75,1.9375c-7.59391,0 -13.75,0.72037 -13.75,-1.9375c0,-2.65787 27.5,-2.65787 27.5,0z" fill="#0b0b0b" stroke="none" stroke-width="0" stroke-linecap="butt"/><path d="M366.46865,209.62267c0,-6.25488 5.07058,-11.32546 11.32547,-11.32546c6.25488,0 11.32547,5.07058 11.32547,11.32546c0,6.25488 -5.07058,11.32547 -11.32547,11.32547c-6.25488,0 -11.32547,-5.07058 -11.32547,-11.32547z" data-paper-data="{&quot;index&quot;:null}" fill="#090909" stroke="none" stroke-width="0" stroke-linecap="butt"/><path d="M360.66172,262.86705c0.02659,-11.86125 0.31292,-34.37346 0.32812,-41.15354c0.00495,-2.20891 1.58915,-4.83272 3.47433,-6.57586c0.19574,-0.18098 6.44545,1.31063 12.97679,1.47283c6.71695,0.1668 13.72214,-1.31934 14.04109,-0.79396c1.03467,1.70433 1.68691,4.66345 1.68252,6.62366c-0.01554,6.93315 -0.06478,29.63553 -0.09073,41.20988c-0.00987,4.40239 -4.60864,7.08887 -7.984,6.93174c-4.07761,-0.18982 -12.22123,0.15691 -18.0091,-0.11252c-2.56354,-0.11933 -6.42889,-3.1951 -6.41901,-7.60221z" data-paper-data="{&quot;index&quot;:null}" fill="url(#color-42)" stroke="none" stroke-width="0" stroke-linecap="butt"/><path d="M376.74811,270.60415v-53.33298" fill="none" stroke-opacity="0.11373" stroke="#000000" stroke-width="1" stroke-linecap="round"/></g><g data-paper-data="{&quot;index&quot;:null}"><path d="M354.90697,276.96098c0,2.65787 -6.15609,1.9375 -13.75,1.9375c-7.59391,0 -13.75,0.72037 -13.75,-1.9375c0,-2.65787 27.5,-2.65787 27.5,0z" fill="#0b0b0b" stroke="none" stroke-width="0" stroke-linecap="butt"/><path d="M329.55197,270.6458c0,-6.25488 5.07058,-11.32547 11.32547,-11.32547c6.25488,0 11.32546,5.07058 11.32546,11.32547c0,6.25488 -5.07058,11.32547 -11.32546,11.32547c-6.25488,0 -11.32547,-5.07058 -11.32547,-11.32547z" data-paper-data="{&quot;index&quot;:null}" fill="#090909" stroke="none" stroke-width="0" stroke-linecap="butt"/><path d="M324.03672,324.22352c0.02659,-11.86125 0.31292,-34.37346 0.32812,-41.15354c0.00495,-2.20891 1.58915,-4.83272 3.47433,-6.57587c0.19574,-0.18099 6.44545,1.31063 12.97679,1.47283c6.71695,0.1668 13.72214,-1.31933 14.04109,-0.79396c1.03467,1.70433 1.68691,4.66345 1.68252,6.62365c-0.01554,6.93315 -0.06478,29.63553 -0.09073,41.20988c-0.00987,4.40239 -4.60864,7.08887 -7.984,6.93174c-4.07761,-0.18982 -12.22123,0.15691 -18.0091,-0.11252c-2.56354,-0.11933 -6.42889,-3.1951 -6.41901,-7.60221z" data-paper-data="{&quot;index&quot;:null}" fill="url(#color-43)" stroke="none" stroke-width="0" stroke-linecap="butt"/><path d="M340.99814,278.21133v53.66631" fill="none" stroke-opacity="0.11373" stroke="#000000" stroke-width="1" stroke-linecap="round"/></g><g data-paper-data="{&quot;index&quot;:null}"><path d="M355.78197,214.961c0,2.65787 -6.15609,1.9375 -13.75,1.9375c-7.59391,0 -13.75,0.72037 -13.75,-1.9375c0,-2.65787 27.5,-2.65787 27.5,0z" fill="#0b0b0b" stroke="none" stroke-width="0" stroke-linecap="butt"/><path d="M330.71862,208.97914c0,-6.25488 5.07058,-11.32547 11.32547,-11.32547c6.25488,0 11.32547,5.07059 11.32547,11.32547c0,6.25488 -5.07058,11.32546 -11.32547,11.32546c-6.25488,0 -11.32547,-5.07058 -11.32547,-11.32546z" data-paper-data="{&quot;index&quot;:null}" fill="#090909" stroke="none" stroke-width="0" stroke-linecap="butt"/><path d="M324.91172,262.2235c0.02659,-11.86125 0.31292,-34.37346 0.32812,-41.15354c0.00495,-2.20891 1.58915,-4.83272 3.47433,-6.57586c0.19574,-0.18098 6.44545,1.31063 12.97679,1.47283c6.71695,0.1668 13.72214,-1.31933 14.04109,-0.79396c1.03467,1.70433 1.68691,4.66345 1.68252,6.62365c-0.01554,6.93315 -0.06478,29.63553 -0.09073,41.20988c-0.00987,4.40239 -4.60864,7.08887 -7.984,6.93174c-4.07761,-0.18982 -12.22123,0.15691 -18.0091,-0.11252c-2.56354,-0.11933 -6.42889,-3.1951 -6.41901,-7.60221z" data-paper-data="{&quot;index&quot;:null}" fill="url(#color-44)" stroke="none" stroke-width="0" stroke-linecap="butt"/><path d="M340.99814,216.62764v53.33298" fill="none" stroke-opacity="0.11373" stroke="#000000" stroke-width="1" stroke-linecap="round"/></g><g data-paper-data="{&quot;index&quot;:null}" stroke="#000000" stroke-width="0" stroke-linecap="butt"><path d="M398.81645,347.07087c4.48218,0 7.57465,5.62887 7.57465,7.93552c0,2.30666 -3.63353,4.1766 -8.1157,4.1766c-4.48218,0 -8.11571,-1.86994 -8.11571,-4.1766c0,-2.30666 4.17458,-7.93552 8.65676,-7.93552z" fill="url(#color-45)"/><path d="M360.69102,356.14741c-0.99204,-0.72081 -0.87659,-6.66869 0.7114,-10.43492c1.35603,-3.21608 1.64037,-8.59062 4.35242,-10.65788c0.52912,-0.40333 16.88716,-0.67599 18.14128,-0.20765c5.69699,2.12753 10.62909,8.65455 13.45338,11.29566c3.2491,3.03836 3.50558,9.29341 3.4589,9.39472c-2.59182,5.62223 -13.89856,4.481 -23.03035,4.481c-6.84498,0 -13.13788,-1.00146 -17.08705,-3.87092z" fill="url(#color-46)"/><path d="M379.04737,349.9945c4.48218,0 7.57466,5.62885 7.57466,7.93551c0,2.30666 -3.63353,4.1766 -8.1157,4.1766c-4.48218,0 -8.11571,-1.86994 -8.11571,-4.1766c0,-2.30666 4.17457,-7.93551 8.65675,-7.93551z" fill="url(#color-47)"/><path d="M395.07074,348.81253c4.48218,0 7.57466,5.62887 7.57466,7.93552c0,2.30666 -3.63353,4.1766 -8.11571,4.1766c-4.48218,0 -8.1157,-1.86993 -8.1157,-4.1766c0,-2.30666 4.17457,-7.93552 8.65675,-7.93552z" fill="url(#color-48)"/></g><g data-paper-data="{&quot;index&quot;:null}" stroke="#000000" stroke-width="0" stroke-linecap="butt"><path d="M316.32658,346.75222c4.48218,0 8.65676,5.62886 8.65676,7.93552c0,2.30667 -3.63354,4.1766 -8.11572,4.1766c-4.48218,0 -8.11569,-1.86994 -8.11569,-4.1766c0,-2.30665 3.09247,-7.93552 7.57465,-7.93552z" fill="url(#color-49)"/><path d="M354.45203,355.82875c-3.94917,2.86945 -10.24206,3.87092 -17.08704,3.87092c-9.13178,0 -20.43854,1.14123 -23.03036,-4.481c-0.04669,-0.1013 0.2098,-6.35636 3.4589,-9.39472c2.82429,-2.64111 7.7564,-9.16813 13.45338,-11.29566c1.25412,-0.46835 17.61216,-0.19568 18.14128,0.20765c2.71205,2.06726 2.99639,7.4418 4.35242,10.65788c1.58799,3.76622 1.70343,9.71411 0.7114,10.43492z" fill="url(#color-50)"/><path d="M336.09564,349.67586c4.48218,0 8.65675,5.62884 8.65675,7.93551c0,2.30667 -3.63354,4.1766 -8.11571,4.1766c-4.48218,0 -8.1157,-1.86994 -8.1157,-4.1766c0,-2.30667 3.09248,-7.93551 7.57466,-7.93551z" fill="url(#color-51)"/><path d="M320.07229,348.49388c4.48218,0 8.65675,5.62886 8.65675,7.93553c0,2.30667 -3.63353,4.1766 -8.1157,4.1766c-4.48218,0 -8.11571,-1.86993 -8.11571,-4.1766c0,-2.30665 3.09248,-7.93553 7.57466,-7.93553z" fill="url(#color-52)"/></g><g data-paper-data="{&quot;index&quot;:null}"><path d="M347.82692,189.61967c0,-6.62307 5.36906,-11.99213 11.99213,-11.99213c6.62307,0 11.99213,5.36906 11.99213,11.99213c0,6.62307 -5.36906,11.99213 -11.99213,11.99213c-6.62307,0 -11.99213,-5.36906 -11.99213,-11.99213z" data-paper-data="{&quot;index&quot;:null}" fill="#060606" stroke="none" stroke-width="0" stroke-linecap="butt"/><g><path d="M319.41186,188.83167c0,0 -0.84623,-4.04315 -1.9466,-10.52955c0.46483,-0.36639 0.86596,-0.69408 1.43222,-1.01089c3.053,-1.70808 6.73542,-1.61688 10.10633,-1.84141c3.76341,-0.27316 6.35914,1.31191 8.50852,4.27214c0.64106,0.8829 1.70233,3.30727 2.66216,3.77246c1.48693,0.72065 3.58303,-3.06699 4.45109,-3.98905c2.42092,-2.57154 4.79239,-5.00864 7.51589,-7.25975c1.90055,-1.5709 3.58202,-3.40429 4.88494,-5.51333c0.78686,-0.0194 1.38842,-0.48567 1.42701,-1.71458l0.01517,-0.49855c0.0001,-0.00293 0.00015,-0.00587 0.00015,-0.00882c0,-0.13807 -0.11193,-0.25 -0.25,-0.25c-0.05817,0 -0.1117,0.01987 -0.15418,0.05319l-0.39461,0.30325l0.04502,0.05859c-0.52715,0.40945 -0.91195,0.93746 -1.23705,1.51643c-0.29424,-0.07567 -0.60741,-0.20607 -0.91445,-0.35896c-1.5729,-0.78323 -2.60083,-2.96171 -4.26607,-3.46551c-1.40777,-0.42591 -3.59376,-0.01078 -5.07236,-0.01099c-0.77867,-0.00011 -4.34056,0.49496 -4.8338,0.0559c-0.24902,-0.22166 0.12859,-0.77131 -0.12053,-0.99285c-0.61396,-0.54599 -3.78753,-0.10682 -4.6546,-0.14215c-1.56623,-0.06382 -3.32604,-0.04909 -4.6855,-0.98987c-1.86513,-1.29071 -1.46818,-3.32747 -3.95053,-3.1549c-1.59178,0.11794 -3.2916,1.04427 -4.79673,1.57967c-0.23176,0.08244 -1.55177,0.73994 -1.71158,0.6722c-0.55414,-0.2349 -1.41385,-2.2756 -1.7603,-2.83787c-1.81214,-2.94097 -2.75667,-6.37689 -3.95599,-9.61236c-0.09859,-0.60516 -0.05949,-2.49657 -1.01725,-2.43503c-0.45082,0.02897 -0.9736,0.98033 -1.401,1.56065c-1.70534,-20.87636 -1.3615,-43.74649 6.28756,-54.40815c9.22499,-12.85827 76.49154,-8.67641 83.02834,-1.40198c10.14364,11.28827 8.21737,43.36237 4.90525,67.88903c-2.32313,17.20309 -5.32806,30.69307 -5.32806,30.69307c0,0 -28.5566,1.75 -42.44836,1.75c-13.71206,0 -40.37009,-1.75 -40.37009,-1.75z" fill="url(#color-53)" stroke="none" stroke-width="NaN" stroke-linecap="butt"/><path d="M357.34293,166.20139c0.215,-0.37393 0.4182,-0.7562 0.60877,-1.14687c-0.03071,0.67646 -0.26443,1.01911 -0.60877,1.14687z" fill="url(#color-54)" stroke="none" stroke-width="NaN" stroke-linecap="butt"/><path d="M361.0815,84.50027v104.73333" fill="none" stroke-opacity="0.11373" stroke="#000000" stroke-width="1" stroke-linecap="round"/></g><path d="M351.19026,111.03357c0.06188,-10.40516 6.66409,-22.86149 6.66409,-22.86149h6.82865c0,0 5.91888,11.33378 6.5442,20.68222c-0.43779,0.02494 -0.90198,0.03499 -1.40125,0.03499c-1.96975,0 -5.01552,1.65126 -6.70217,1.19305c-0.88207,-0.23963 -2.01345,-1.39001 -2.76625,-1.92773c-1.69411,-1.19722 -2.617,0.26236 -4.18487,0.73887c-0.90179,0.27407 -0.91579,-1.37272 -1.92009,-1.11176c-1.33509,0.3469 0.27267,2.54413 0.551,3.07179c0.99549,1.95569 3.07204,0.23291 4.62171,0.91461c1.5632,0.68766 2.04667,3.62547 3.74918,3.93022c1.46414,0.20862 3.13164,-0.4319 4.36332,-0.32208c0.43477,0.03877 0.06657,0.92904 0.34853,1.26226c0.62668,0.74063 1.26156,1.18741 1.88088,1.78185c-3.03903,9.79641 -9.59711,21.57112 -9.59711,21.57112c0,0 -9.04169,-18.55278 -8.9798,-28.95794z" fill="url(#color-55)" stroke="none" stroke-width="0" stroke-linecap="butt"/><path d="M355.43491,83.89094c0,0 3.80108,-0.72794 5.69535,-0.72794c1.96966,0 5.90527,0.72794 5.90527,0.72794c0,0 -0.98255,4.52769 -2.32429,4.52769c-2.27345,0 -5.57815,0 -6.88172,0c-1.05721,0 -2.39461,-4.52769 -2.39461,-4.52769z" fill="#cb1e1e" stroke="none" stroke-width="0" stroke-linecap="butt"/></g><path d="M319.58146,201.63481c0,-3.6983 0,-11.54881 0,-11.54881c0,0 27.05026,2 40.41667,2c13.15809,0 39.16667,-2 39.16667,-2c0,0 0,7.37358 0,10.98849c0,3.52154 -6.22374,10.42818 -14.89957,10.42818c-15.93318,0 -40.13668,0 -49.24888,0c-6.90357,0 -15.43488,-6.44929 -15.43488,-9.86785z" data-paper-data="{&quot;index&quot;:null}" fill="url(#color-56)" stroke="none" stroke-width="0" stroke-linecap="butt"/><path d="M460.70042,198.49916c-0.01891,-0.31703 0.01414,-0.67475 0.08369,-1.05582c0.13342,0.369 0.35605,0.69252 0.64054,0.94209c-0.36679,0.26343 -0.70511,0.43414 -0.72423,0.11374z" fill-opacity="0.08627" fill="#00ff15" stroke="none" stroke-width="0.5" stroke-linecap="butt"/><g data-paper-data="{&quot;index&quot;:null}" stroke="none" stroke-linecap="butt"><path d="M379.21992,77.8411c0,2.9451 -7.01911,5.02786 -17.30152,5.02786c-10.28242,0 -18.33585,-2.2859 -18.33585,-5.231c0,-2.9451 7.5833,-5.73886 17.86569,-5.73886c10.28242,0 17.77167,2.9969 17.77167,5.942z" fill="url(#color-57)" stroke-width="0"/><g><path d="M365.86247,74.50144c0,1.41554 -2.17637,2.50414 -4.79424,2.50414c-2.61786,0 -4.68588,-1.0886 -4.68588,-2.50414c0,-1.41554 2.01385,-2.03278 4.63171,-2.03278c2.61786,0 4.84841,0.61724 4.84841,2.03278z" fill="url(#color-58)" stroke-width="0"/><path d="M366.17785,76.69113c-0.56585,-0.22634 -0.3395,-0.79219 -0.3395,-0.79219l0.10167,-0.22126c0.14018,-0.60783 -0.41322,-1.1812 -0.53754,-1.79248c-0.20307,-0.99856 0.82111,-1.3772 0.4938,-2.29984c-0.48014,-1.35342 -2.56888,-1.62466 -3.73173,-1.83514c0,0 -0.59961,-0.10902 -0.49059,-0.70862c0.10901,-0.5996 0.70863,-0.49059 0.70863,-0.49059c1.67282,0.3054 4.00928,0.7715 4.66495,2.63406c0.30208,0.85814 -0.63845,1.98001 -0.45421,2.44023c0.39495,0.98657 0.723,1.10643 0.5459,2.27043l-0.16919,0.4559c0,0 -0.22634,0.56585 -0.79219,0.33951z" fill="#2f2f2f" stroke-width="0.5"/><path d="M351.30368,74.50011c0,-0.60944 0.60944,-0.60944 0.60944,-0.60944h0.13542c1.49547,0.02299 0.29505,-1.93663 1.64508,-3.04448c2.21486,-1.81754 4.31198,-0.9342 6.74837,-0.39449c0,0 0.59493,0.1322 0.46272,0.72713c-0.1322,0.59493 -0.72713,0.46272 -0.72713,0.46272c-2.06508,-0.46027 -3.81092,-1.37467 -5.71122,0.14724c-1.46484,1.17316 0.5425,3.28781 -2.41784,3.32075h-0.13542c0,0 -0.60944,0 -0.60944,-0.60944z" fill="#2f2f2f" stroke-width="0.5"/><path d="M368.57273,75.45149c-0.5451,0.27255 -0.81764,-0.27255 -0.81764,-0.27255l-0.25565,-0.79836c0.69031,-3.43613 -3.63575,-2.06426 -5.684,-2.4655c0,0 -0.5976,-0.11952 -0.47808,-0.71712c0.11953,-0.59759 0.71712,-0.47809 0.71712,-0.47809c2.79759,0.57322 7.58464,-0.84237 6.64016,3.89974l0.15063,0.01422c0,0 0.27255,0.5451 -0.27254,0.81764z" fill="#404040" stroke-width="0.5"/><path d="M353.44737,75.20138c-0.56585,-0.22634 -0.33951,-0.79219 -0.33951,-0.79219l0.30466,-0.57496c0.79038,-0.67678 1.90861,-1.13629 2.53514,-1.98147c0.65664,-0.88582 0.29273,-1.71857 1.48041,-2.41514c0.89476,-0.52477 1.86382,-0.36695 2.84042,-0.54805c0,0 0.59961,-0.10902 0.70863,0.49058c0.10901,0.5996 -0.49059,0.70863 -0.49059,0.70863c-0.78089,0.13953 -1.74004,-0.01456 -2.44137,0.39996c-0.91668,0.54181 -0.53485,1.23931 -1.09277,2.05406c-0.66656,0.97341 -1.87138,1.46583 -2.74664,2.21687l0.03381,0.10219c0,0 -0.22634,0.56585 -0.79219,0.33952z" fill="#404040" stroke-width="0.5"/><path d="M359.6665,75.09263v-11.85016h2.84404v11.85016c0,0 -0.98764,0.33857 -1.45587,0.33857c-0.47951,0 -1.38817,-0.33857 -1.38817,-0.33857z" fill="url(#color-59)" stroke-width="0"/></g></g><g data-paper-data="{&quot;index&quot;:null}" stroke="none" stroke-width="0" stroke-linecap="butt"><path d="M345.85499,68.69397c-1.73073,0.03869 -3.18174,-1.77211 -3.24093,-4.04451c-0.03077,-1.18145 6.23912,-1.23105 6.26754,-0.1401c0.05919,2.27241 -1.29588,4.14592 -3.0266,4.18461z" data-paper-data="{&quot;index&quot;:null}" fill="url(#color-60)"/><path d="M347.11878,64.33878c0.21058,-1.0737 6.39642,-0.12454 6.16839,1.03821c-0.4386,2.23646 -2.17502,3.81705 -3.87837,3.53036c-1.70335,-0.28669 -2.72862,-2.33211 -2.29002,-4.56857z" data-paper-data="{&quot;index&quot;:null}" fill="url(#color-61)"/><path d="M374.48776,65.14189c-0.04682,-1.11284 6.34255,-1.43599 6.39326,-0.23084c0.09753,2.31799 -1.25459,4.24878 -3.02005,4.31252c-1.76545,0.06374 -3.27569,-1.76368 -3.37322,-4.08168z" data-paper-data="{&quot;index&quot;:null}" fill="url(#color-62)"/><path d="M373.55599,69.64674c-1.71497,0.39351 -3.59326,-1.11285 -4.1953,-3.36457c-0.313,-1.17069 5.92141,-2.50605 6.21043,-1.42503c0.60204,2.25172 -0.30016,4.39609 -2.01513,4.7896z" data-paper-data="{&quot;index&quot;:null}" fill="url(#color-63)"/><path d="M360.02833,65.67489c0.11985,-1.08561 6.36662,-0.58473 6.23682,0.59094c-0.24965,2.26128 -1.8482,3.96211 -3.57045,3.79892c-1.72225,-0.16318 -2.91602,-2.1286 -2.66637,-4.38987z" data-paper-data="{&quot;index&quot;:null}" fill="url(#color-64)"/><path d="M358.34401,70.17229c-1.72225,0.16318 -3.32079,-1.53766 -3.57045,-3.79893c-0.1298,-1.17567 6.11696,-1.67654 6.23682,-0.59093c0.24965,2.26128 -0.94412,4.22668 -2.66637,4.38987z" data-paper-data="{&quot;index&quot;:null}" fill="url(#color-65)"/><path d="M364.44435,65.97886c0.13761,-1.24635 7.30932,-0.6713 7.1603,0.67844c-0.28662,2.5961 -2.12185,4.54878 -4.09911,4.36143c-1.97726,-0.18734 -3.34781,-2.44378 -3.06119,-5.03987z" data-paper-data="{&quot;index&quot;:null}" fill="url(#color-66)"/><path d="M353.8814,71.01874c-1.97726,0.18734 -3.81251,-1.76533 -4.09912,-4.36143c-0.14901,-1.34974 7.02269,-1.92479 7.1603,-0.67844c0.28662,2.5961 -1.08391,4.85253 -3.06118,5.03987z" data-paper-data="{&quot;index&quot;:null}" fill="url(#color-67)"/></g><g data-paper-data="{&quot;index&quot;:null}" stroke="none" stroke-width="0" stroke-linecap="butt"><path d="M371.80357,5.76197c3.63902,-4.50076 7.69388,-8.60694 12.24818,-6.47713c4.20153,1.96485 4.48178,7.58041 4.16418,13.46506c-0.297,5.50277 -0.65945,10.68271 -0.65945,10.68271l-21.22051,-10.82862c0,0 2.61017,-3.30793 5.4676,-6.84201z" fill="url(#color-68)"/><path d="M374.04068,6.59518c2.80133,-3.23544 5.9378,-6.45437 9.22934,-4.91509c3.15156,1.47383 3.39008,6.22728 3.23059,10.6819c-0.16512,4.61203 -0.78609,8.90374 -0.78609,8.90374l-16.74193,-8.54325c0,0 2.41024,-3.05757 5.06808,-6.1273z" fill="url(#color-69)"/></g><g data-paper-data="{&quot;index&quot;:null}" fill="none" stroke="none" stroke-width="1" stroke-linecap="butt" font-family="sans-serif" font-weight="normal" font-size="12" text-anchor="start"/><g data-paper-data="{&quot;index&quot;:null}"><path d="M332.11046,40.44335c-0.23015,-17.05196 12.44956,-31.72617 29.50152,-31.95632c17.05196,-0.23015 31.06187,13.40662 31.29203,30.45858c0.05375,3.98253 13.49609,6.14542 12.1702,9.65929c-1.52512,4.04187 -10.59124,20.39918 -24.51809,26.01197c-0.55172,0.22235 0.18815,-10.70914 -5.70159,-14.90489c-7.70811,-5.49112 -23.47362,-2.20191 -25.73885,-0.81362c-6.1748,3.78438 -5.33486,15.8569 -5.85426,15.69174c-5.35112,-1.70152 -9.45025,-4.39337 -12.62318,-7.48723c1.49583,-1.06299 3.44594,-2.96163 4.15668,-4.20543c0.47232,-0.8558 0.05262,-1.60786 0.27171,-2.4906c0.39053,-1.57348 1.41023,-2.40595 0.79163,-4.27415c-0.22914,-0.69201 -1.88883,-2.03216 -1.66404,-2.52996c0.49559,-0.83789 1.44031,-1.90301 0.87533,-2.93609c-0.8515,-1.55697 -5.00895,-2.94599 -6.53717,-3.95357c-0.41301,-0.12649 -1.10423,0.11742 -1.2644,-0.28373c-0.04395,-0.11006 1.1339,-1.72583 1.23984,-1.98198c0.12587,-0.30434 0.26211,-0.67119 0.39164,-1.07591c1.8355,-0.90601 3.22541,-1.86135 3.21102,-2.92811z" fill="url(#color-70)" stroke="none" stroke-width="0" stroke-linecap="butt"/><path d="M336.68144,44.17439c-0.21109,-15.63891 9.6252,-29.0729 25.04202,-29.28098c15.41683,-0.20809 27.68498,12.7128 27.89605,28.35172c0.0493,3.6525 13.24928,9.11578 13.24928,9.11578c0,0 -3.06892,7.12602 -8.27874,12.22469c-5.97829,5.85075 -14.08796,10.60971 -14.92581,10.9521c-0.49878,0.20383 -0.61909,-10.59138 -5.94481,-14.44046c-6.96996,-5.03742 -21.22315,-1.69854 -23.27092,-0.42569c-5.58204,3.46968 -5.65831,14.50785 -6.12794,14.35629c-1.94477,-0.62764 -8.4734,-2.51762 -13.33298,-7.31411c-0.168,-0.16582 -0.33413,-0.33482 -0.49837,-0.5067c1.51254,-1.03895 3.57111,-3.02404 4.30571,-4.30959c0.47232,-0.8558 0.05262,-1.60786 0.27171,-2.4906c0.39053,-1.57348 1.41023,-2.40595 0.79163,-4.27415c-0.22914,-0.69201 -1.88883,-2.03216 -1.66404,-2.52996c0.49559,-0.83789 1.44031,-1.90301 0.87533,-2.93609c-0.49741,-0.90952 -2.12294,-1.76172 -3.69348,-2.51405c2.91057,-1.33496 5.32129,-2.79829 5.30537,-3.97819z" fill="url(#color-71)" stroke="none" stroke-width="0" stroke-linecap="butt"/><path d="M382.18705,55.05137c0,-4.75704 3.85634,-8.61337 8.61337,-8.61337c4.75703,0 8.61337,3.85633 8.61337,8.61337c0,4.75703 -3.85634,8.61337 -8.61337,8.61337c-4.75703,0 -8.61337,-3.85634 -8.61337,-8.61337z" fill="url(#color-72)" stroke="none" stroke-width="0" stroke-linecap="butt"/><path d="M342.40144,37.96187c0,-5.97149 4.75365,-10.81233 10.61758,-10.81233c5.86392,0 8.13328,4.84084 8.13328,10.81233c0,5.97149 -2.93226,9.23715 -8.7962,9.23715c-5.86392,0 -9.95466,-3.26566 -9.95466,-9.23715z" fill="url(#color-73)" stroke="none" stroke-width="0" stroke-linecap="butt"/><path d="M371.88194,47.43678c-5.86392,0 -8.7962,-2.88345 -8.7962,-8.85494c0,-5.97149 2.26934,-11.19454 8.13328,-11.19454c5.86392,0 10.61758,4.84085 10.61758,10.81234c0,5.97149 -4.09072,9.23715 -9.95466,9.23715z" data-paper-data="{&quot;index&quot;:null}" fill="url(#color-74)" stroke="none" stroke-width="0" stroke-linecap="butt"/><path d="M362.15171,15.40128v42.725" fill="none" stroke-opacity="0.16863" stroke="#4d3b27" stroke-width="0.5" stroke-linecap="round"/></g><path d="M319.5791,32.87104z" data-paper-data="{&quot;index&quot;:null}" fill="url(#color-75)" stroke="none" stroke-width="0" stroke-linecap="butt"/><path d="M363.57317,36.98169c0,-4.59105 3.72179,-8.31284 8.31285,-8.31284c4.59105,0 8.31284,3.72179 8.31284,8.31284c0,4.59105 -3.72179,8.31284 -8.31284,8.31284c-4.59105,0 -8.31285,-3.72178 -8.31285,-8.31283z" data-paper-data="{&quot;index&quot;:null}" fill="url(#color-76)" stroke="none" stroke-width="0" stroke-linecap="butt"/><g data-paper-data="{&quot;index&quot;:null}"><g><path d="M380.20631,63.86271c0,4.33882 -7.38967,3.30968 -17.43308,4.28166c-1.8211,0.17624 -0.7516,-8.01097 -0.7516,-8.01097c0,0 0.39707,8.1933 -1.34647,8.02884c-10.30158,-0.97171 -16.64491,0.27098 -16.64491,-4.11263c0,-5.12555 2.85766,-14.58523 17.94838,-14.58523c15.09072,0 18.22767,9.27278 18.22767,14.39833z" fill="url(#color-77)" stroke="none" stroke-width="0" stroke-linecap="butt"/><path d="M361.93086,66.31051l0.27582,-14.49062" fill="none" stroke-opacity="0.16863" stroke="#4d3b27" stroke-width="0.5" stroke-linecap="round"/><path d="M367.60346,50.66695c0,0.52052 -2.12122,-0.08341 -3.28557,0.44226c-0.41281,0.18637 -1.46374,1.71393 -2.17468,1.6623c-0.84929,-0.06168 -1.37042,-1.3195 -1.88529,-1.68251c-0.58578,-0.413 -3.1355,-0.06808 -3.1355,-0.42204c0,-0.92551 2.34625,-2.39808 5.24052,-2.39808c2.89427,0 5.24052,1.47257 5.24052,2.39808z" fill="url(#color-78)" stroke="none" stroke-width="0" stroke-linecap="butt"/></g><g fill="none" stroke-opacity="0.18431" stroke="#382b1b" stroke-width="1" stroke-linecap="round"><path d="M374.2185,62.19594c0,0 6.42423,-0.21881 12.14404,-3.10221c5.38873,-2.71651 10.31545,0.50471 10.44953,0.53783"/><path d="M395.4043,48.64522c-0.07154,-0.01767 -0.9642,1.96699 -3.35494,3.1836c-1.77504,0.90329 -4.73252,0.87271 -6.90971,1.98083c-5.10314,2.59736 -10.85314,4.06313 -10.85314,4.06313"/></g><g data-paper-data="{&quot;index&quot;:null}" fill="none" stroke-opacity="0.18431" stroke="#382b1b" stroke-width="1" stroke-linecap="round"><path d="M351.63489,57.04039c0,0 -6.22575,-1.59959 -12.52614,-0.44406c-5.93571,1.08865 -9.75562,-3.38987 -9.87495,-3.45941"/><path d="M327.49,64.07496c0.06367,0.0371 1.4792,-1.61575 4.11583,-2.10969c1.95761,-0.36674 4.78672,0.49566 7.18789,0.04565c5.62812,-1.05477 11.55817,-0.84157 11.55817,-0.84157"/></g></g><path d="M354.163,55.65646c-0.5,0 -0.5,-0.5 -0.5,-0.5v-0.8c0.07275,-1.02787 0.74524,-0.86481 0.80646,-1.68009c0.07235,-0.96356 -0.12877,-6.22733 -1.08285,-5.2727c0,0 -0.44721,0.22361 -0.67082,-0.22361c-0.22361,-0.44721 0.22361,-0.67082 0.22361,-0.67082c2.74386,-0.93663 2.84093,4.29091 2.51715,6.3273c-0.14115,0.88777 -0.90479,0.83535 -0.79354,1.51991v0.8c0,0 0,0.5 -0.5,0.5z" fill="#ff0000" stroke="none" stroke-width="0.5" stroke-linecap="butt"/><path d="M349.37638,55.15647v-0.8c0.11124,-0.68456 -0.6524,-0.63215 -0.79354,-1.51991c-0.32378,-2.03639 -0.22672,-7.26393 2.51715,-6.3273c0,0 0.44722,0.2236 0.22361,0.67082c-0.22361,0.44721 -0.67082,0.22361 -0.67082,0.22361c-0.95408,-0.95463 -1.15521,4.30913 -1.08285,5.27269c0.06122,0.81529 0.73371,0.65223 0.80645,1.68009v0.8c0,0 0,0.5 -0.5,0.5c-0.5,0 -0.5,-0.5 -0.5,-0.5z" data-paper-data="{&quot;index&quot;:null}" fill="#2c00ff" stroke="none" stroke-width="0.5" stroke-linecap="butt"/></g></g></svg>