<svg version="1.1" xmlns="http://www.w3.org/2000/svg" xmlns:xlink="http://www.w3.org/1999/xlink" width="76.33333" height="101" viewBox="0,0,76.33333,101"><g transform="translate(-321.83333,-129.5)"><g data-paper-data="{&quot;isPaintingLayer&quot;:true}" fill-rule="nonzero" stroke-linecap="butt" stroke-linejoin="miter" stroke-miterlimit="10" stroke-dasharray="" stroke-dashoffset="0" style="mix-blend-mode: normal"><path d="M321.83333,230.5v-101h76.33333v101z" fill="#273042" stroke="none" stroke-width="0"/><path d="M329.7547,196.83333v-61.66667h60.49068v61.66667z" fill="#0b0e13" stroke="none" stroke-width="0"/><path d="M343.08345,227.33333v-17.33333h33.83333v17.33333z" fill="#0b0e13" stroke="#000000" stroke-width="0"/><path d="M342.99993,209.125v-11.25h34.25v11.25z" fill="#273042" stroke="#000000" stroke-width="0"/><text transform="translate(342.07589,207.0298) scale(0.29415,0.29415)" font-size="40" xml:space="preserve" fill="#000000" fill-rule="nonzero" stroke="none" stroke-width="1" stroke-linecap="butt" stroke-linejoin="miter" stroke-miterlimit="10" stroke-dasharray="" stroke-dashoffset="0" font-family="&quot;GovtAgentBB&quot;, Serif" font-weight="normal" text-anchor="start" style="mix-blend-mode: normal"><tspan x="0" dy="0">Turnip</tspan></text><text transform="translate(351.553,223.17375) scale(0.37559,0.37559)" font-size="40" xml:space="preserve" fill="#545454" fill-rule="nonzero" stroke="none" stroke-width="1" stroke-linecap="butt" stroke-linejoin="miter" stroke-miterlimit="10" stroke-dasharray="" stroke-dashoffset="0" font-family="&quot;Agency FB&quot;, Sans Serif" font-weight="normal" text-anchor="start" style="mix-blend-mode: normal"><tspan x="0" dy="0">OFF</tspan></text><path d="M354.88562,196.83333v-54.17387h10.54656v54.17387z" fill="#ad3812" stroke="none" stroke-width="0"/><path d="M336.62657,182.67497v-33.34995h46.74694v33.34995z" fill="#ffffff" stroke="none" stroke-width="0"/><text transform="translate(340.27961,168.83333) scale(0.24558,0.24558)" font-size="40" xml:space="preserve" fill="#000000" fill-rule="nonzero" stroke="#000000" stroke-width="1" stroke-linecap="butt" stroke-linejoin="miter" stroke-miterlimit="10" stroke-dasharray="" stroke-dashoffset="0" font-family="&quot;Agency FB&quot;, Sans Serif" font-weight="normal" text-anchor="start" style="mix-blend-mode: normal"><tspan x="0" dy="0">i will be back</tspan></text><text transform="translate(362.22406,178.73507) scale(0.24558,0.24558)" font-size="40" xml:space="preserve" fill="#000000" fill-rule="nonzero" stroke="#000000" stroke-width="1" stroke-linecap="butt" stroke-linejoin="miter" stroke-miterlimit="10" stroke-dasharray="" stroke-dashoffset="0" font-family="&quot;Agency FB&quot;, Sans Serif" font-weight="normal" text-anchor="start" style="mix-blend-mode: normal"><tspan x="0" dy="0">-Tunip</tspan></text><g fill="#ababab" stroke="none" stroke-width="0.5"><path d="M345.17758,175.5974c-0.01553,-0.39345 0.37793,-0.40897 0.37793,-0.40897l0.18498,-0.00729c0.75434,-0.02976 1.26377,-0.03364 1.95517,0.30393c0.30723,-0.02084 0.88802,0.08508 1.14971,-0.06763c0.50553,-0.29502 -0.41271,-2.16171 -0.76758,-2.2683c-1.5843,-0.47591 -3.32855,0.5737 -3.93435,1.92425c0,0 -0.16208,0.35886 -0.52094,0.19678c-0.35886,-0.16207 -0.19679,-0.52093 -0.19679,-0.52093c0.74919,-1.64857 3.04089,-3.05621 4.97622,-2.31781c0.98467,0.37569 1.87007,2.82083 0.94574,3.59253c-0.40994,0.34225 -1.31239,0.22411 -1.8026,0.2341c-0.67757,-0.28913 -1.03884,-0.319 -1.77354,-0.29001l-0.18498,0.00729c0,0 -0.39345,0.01552 -0.40897,-0.37794z"/><path d="M340.85836,178.93185c-0.15674,0.36122 -0.51796,0.20448 -0.51796,0.20448l-0.34974,-0.15508c-0.98198,-0.5833 -1.63,-1.54116 -2.05066,-2.59645c-0.77502,-1.60737 -1.32289,-4.64842 1.44007,-4.66921c1.06027,-0.00798 2.52174,3.21958 3.05491,4.04523c0,0 0.21361,0.33078 -0.11718,0.54439c-0.33078,0.21361 -0.5444,-0.11718 -0.5444,-0.11718c-0.5356,-0.82941 -1.07119,-1.65879 -1.60678,-2.4882c-0.25744,-0.39866 -0.33452,-1.38321 -0.77096,-1.19687c-1.82076,0.77736 -1.54427,1.88399 -0.73421,3.56611c0.35084,0.89841 0.89402,1.74312 1.72987,2.23421l0.26256,0.11061c0,0 0.36122,0.15674 0.20448,0.51796z"/><path d="M345.38752,178.71491c0.11025,-0.03923 0.14948,0.07102 0.14948,0.07102l0.02339,0.0705c0.05637,0.32021 0.10881,0.91029 -0.3998,0.84725c-0.08495,-0.01053 -0.21688,-0.05768 -0.29878,-0.12529c-0.43285,0.65497 -1.76658,0.81446 -1.49581,-0.26403c0,0 0.02852,-0.1135 0.14202,-0.08499c0.1135,0.02851 0.08498,0.14202 0.08498,0.14202c-0.2047,0.81419 0.89536,0.52813 1.11315,0.04031l-0.02854,-0.1294c-0.01351,-0.05729 0.01797,-0.11678 0.07472,-0.13698c0.06089,-0.02167 0.12782,0.01013 0.14948,0.07102l0.02797,0.0786c0.32194,0.24912 0.49815,0.14231 0.40022,-0.39737l-0.0135,-0.03317c0,0 -0.03923,-0.11025 0.07102,-0.14948z"/><path d="M345.06237,181.30119c-0.07302,0.18451 -0.27527,0.25648 -0.27527,0.25648c-2.00204,0.70327 -4.4942,-0.67412 -4.6839,-2.94419c-0.17286,-2.06843 3.06329,-4.14302 4.89303,-3.96955c2.1285,2.07641 3.16485,4.98396 0.06614,6.65727zM343.99005,180.84424c0.01875,-0.01167 0.03069,-0.01748 0.03069,-0.01748l0.49522,-0.24075c2.72971,-1.36776 1.4869,-3.30319 0.09959,-5.14084c-1.16532,0.05085 -3.78429,1.7747 -3.62903,3.08664c0.17701,1.49575 1.62169,2.49893 3.00353,2.31243z"/><g><path d="M342.7432,179.42525c-0.37097,0.132 -0.50298,-0.23897 -0.50298,-0.23897c-0.07885,-0.22161 -0.30329,-0.85233 -0.38214,-1.07394c0,0 -0.132,-0.37098 0.23897,-0.50298c0.37097,-0.132 0.50298,0.23897 0.50298,0.23897c0.07885,0.22161 0.15771,0.44322 0.23656,0.66482l0.14558,0.40911c0,0 0.132,0.37098 -0.23897,0.50298z"/><path d="M341.59454,178.66705c-0.0729,-0.20488 0.03409,-0.43008 0.23897,-0.50298c0.20488,-0.0729 0.43007,0.03409 0.50298,0.23897c0.0729,0.20488 -0.03409,0.43007 -0.23897,0.50298c-0.20488,0.0729 -0.43007,-0.03409 -0.50298,-0.23897z"/></g><g data-paper-data="{&quot;index&quot;:null}"><path d="M344.62706,178.35825l-0.14558,-0.40912c-0.07885,-0.22161 -0.15771,-0.44321 -0.23656,-0.66482c0,0 -0.132,-0.37098 0.23897,-0.50298c0.37097,-0.132 0.50298,0.23897 0.50298,0.23897c0.07885,0.22161 0.30329,0.85233 0.38214,1.07394c0,0 0.13201,0.37098 -0.23896,0.50298c-0.37097,0.132 -0.50298,-0.23897 -0.50298,-0.23897z"/><path d="M345.30259,177.78682c-0.20488,0.0729 -0.43008,-0.03409 -0.50298,-0.23897c-0.0729,-0.20488 0.03409,-0.43007 0.23897,-0.50298c0.20488,-0.0729 0.43008,0.03409 0.50298,0.23897c0.0729,0.20488 -0.03409,0.43008 -0.23897,0.50298z"/></g></g></g></g></svg>