<svg version="1.1" xmlns="http://www.w3.org/2000/svg" xmlns:xlink="http://www.w3.org/1999/xlink" width="373.69445" height="261.51967" viewBox="0,0,373.69445,261.51967"><defs><linearGradient x1="408.29365" y1="236.9929" x2="408.29365" y2="294.95591" gradientUnits="userSpaceOnUse" id="color-1"><stop offset="0" stop-color="#650000"/><stop offset="1" stop-color="#0f0000"/></linearGradient><linearGradient x1="346.55368" y1="230.62143" x2="346.55368" y2="294.85398" gradientUnits="userSpaceOnUse" id="color-2"><stop offset="0" stop-color="#650000"/><stop offset="1" stop-color="#0f0000"/></linearGradient><radialGradient cx="353.09139" cy="269.80298" r="39.84634" gradientUnits="userSpaceOnUse" id="color-3"><stop offset="0" stop-color="#570000"/><stop offset="1" stop-color="#570000" stop-opacity="0"/></radialGradient><linearGradient x1="464.25237" y1="79.49549" x2="498.89551" y2="169.40574" gradientUnits="userSpaceOnUse" id="color-4"><stop offset="0" stop-color="#650000"/><stop offset="1" stop-color="#0f0000"/></linearGradient><radialGradient cx="479.80253" cy="130.76758" r="35.26144" gradientUnits="userSpaceOnUse" id="color-5"><stop offset="0" stop-color="#570000"/><stop offset="1" stop-color="#570000" stop-opacity="0"/></radialGradient><linearGradient x1="390.38772" y1="137.74646" x2="390.38772" y2="263.46336" gradientUnits="userSpaceOnUse" id="color-6"><stop offset="0" stop-color="#650000"/><stop offset="1" stop-color="#0f0000"/></linearGradient><radialGradient cx="370.98469" cy="210.96339" r="36.84266" gradientUnits="userSpaceOnUse" id="color-7"><stop offset="0" stop-color="#570000"/><stop offset="1" stop-color="#570000" stop-opacity="0"/></radialGradient><radialGradient cx="401.35705" cy="190.42709" r="36.84266" gradientUnits="userSpaceOnUse" id="color-8"><stop offset="0" stop-color="#570000"/><stop offset="1" stop-color="#570000" stop-opacity="0"/></radialGradient><linearGradient x1="378.86179" y1="40.80884" x2="406.20583" y2="161.09194" gradientUnits="userSpaceOnUse" id="color-9"><stop offset="0" stop-color="#650000"/><stop offset="1" stop-color="#0f0000"/></linearGradient><linearGradient x1="240.3844" y1="242.92496" x2="240.3844" y2="294.13165" gradientUnits="userSpaceOnUse" id="color-10"><stop offset="0" stop-color="#650000"/><stop offset="1" stop-color="#0f0000"/></linearGradient><radialGradient cx="234.51648" cy="267.66081" r="36.84265" gradientUnits="userSpaceOnUse" id="color-11"><stop offset="0" stop-color="#570000"/><stop offset="1" stop-color="#570000" stop-opacity="0"/></radialGradient></defs><g transform="translate(-173.15277,-49.24017)"><g data-paper-data="{&quot;isPaintingLayer&quot;:true}" fill-rule="nonzero" stroke-linejoin="miter" stroke-miterlimit="10" stroke-dasharray="" stroke-dashoffset="0" style="mix-blend-mode: normal"><g><g><g stroke-linecap="butt"><path d="M400.78196,236.9929c5.43748,0.14706 26.22074,16.9929 26.22074,16.9929c0,0 13.29662,14.51985 10.7189,21.9952c-0.22015,0.63845 -0.23494,1.32152 -0.11079,2.03332c-2.34162,3.16167 12.39767,10.42279 17.01844,12.97136c0.19493,1.34511 -0.20053,2.53127 -1.73041,3.42858c-3.65928,2.14625 -19.35231,-2.80954 -27.3069,-2.35171c-8.03057,0.4622 -21.32927,2.82707 -26.34834,2.69132c-6.69772,-0.18115 -12.64085,-1.70146 -21.44032,-2.99676c-3.77759,-0.55606 -13.96508,0.39252 -15.28129,-0.90186c-3.63432,-3.57405 10.08711,-11.67439 11.78199,-16.58948c1.11072,-3.22108 6.15839,-8.30308 11.07842,-12.6951c5.30039,-0.72478 9.13188,-2.82058 9.13188,-5.293c0,-0.62605 -0.24565,-1.22795 -0.69862,-1.78956c1.20415,-0.95702 1.94246,-1.52104 1.94246,-1.52104c0,0 10.27785,2.34338 17.02383,2.52584z" data-paper-data="{&quot;index&quot;:null}" fill="url(#color-1)" stroke="#000000" stroke-width="2"/><path d="M405.16238,293.14224c-3.01898,-0.62919 -2.95718,-5.03233 -4.821,-4.95106c-3.77684,0.16469 -3.4188,3.23594 -6.11852,2.42714c-1.69909,-0.50903 -2.22843,-3.09562 -3.15551,-3.96849c-0.3569,-0.33604 -5.72606,1.16984 -6.5596,0.26313c-0.91555,-0.99593 1.80847,-2.51103 0.40614,-2.70266c-5.27842,-0.7213 -7.43791,-0.9774 -4.61999,-1.72764c1.53289,-0.40812 1.50108,-2.50579 3.30383,-2.94077c1.29032,-0.31133 4.38267,1.04092 5.69129,0.73626c2.19556,-0.51115 4.65602,-0.02259 6.52586,-0.45073c2.47733,-0.56723 4.15185,-2.00459 5.09303,-2.26182c1.37748,-0.37647 -1.85573,-2.2708 -0.32482,-3.15228c1.18237,-0.68079 4.48544,-1.44552 5.77865,-2.25755c1.60607,-1.00849 5.92452,-0.89799 7.36661,-1.75326c2.61751,-1.55237 4.66347,-2.52896 6.58065,-2.1759c1.65076,0.304 2.493,3.77717 3.19094,6.73761c0.45294,1.9213 11.36075,4.23745 11.36075,4.23745c0,0 -8.85065,1.18519 -9.42882,2.55719c-0.61232,1.45301 0.69289,3.76954 -2.92362,5.15001c-1.8356,0.70067 -1.90836,2.41613 -3.60186,3.06567c-1.02771,0.39416 -5.25705,1.642 -6.32467,1.93378c-1.39609,0.38155 -5.20013,1.69643 -7.41936,1.23391z" data-paper-data="{&quot;index&quot;:null}" fill="#240000" stroke="none" stroke-width="0"/><path d="M388.28105,276.27707c0,0.28769 0.44919,1.16427 -0.61497,1.31095c-0.61361,0.08458 -2.49947,-0.48967 -3.28778,-0.48967c-2.15542,0 -3.90274,-0.3677 -3.90274,-0.82128c0,-0.23667 1.34352,-0.21026 2.14765,-0.59463c0.7369,-0.35225 0.88898,-1.12716 1.9197,-1.12716c0.85186,0 1.1462,1.02723 1.7879,1.1247c0.98195,0.14916 1.95023,0.32278 1.95023,0.59709z" fill="#510000" stroke="none" stroke-width="0"/></g><g><path d="M379.95039,268.64034c1.69488,6.28713 9.68725,14.98794 6.05295,19.55969c-1.54276,1.9407 0.48848,2.45821 -4.23354,3.14982c-8.69083,1.2729 -16.14926,-4.30875 -22.35208,-4.09415c-4.42586,0.15312 -2.72207,-1.58561 -9.83077,-1.96092c-1.20007,-0.06336 -12.75507,0.98466 -13.55947,0.78537c-5.18669,-1.28503 -8.87137,0.34797 -12.41732,-2.31237c-5.53621,-4.15352 31.10606,-4.60448 29.50034,-10.56089c-2.29556,-8.51548 -11.37494,-13.97291 -11.37494,-13.97291c0,0 -21.65557,-8.48849 -14.89645,-8.72234c7.68086,-0.26573 32.25588,-2.04142 32.25588,-2.04142c0,0 18.75664,12.38456 20.85545,20.17013z" fill="#0e0e0e" stroke="#0b0b0b" stroke-width="1.5" stroke-linecap="butt"/><g stroke-linecap="butt"><path d="M392.36308,289.86077c-1.54276,1.9407 -7.00334,0.79747 -11.72536,1.48907c-8.69083,1.2729 -18.79343,3.28324 -24.99625,3.49785c-4.42586,0.15312 -16.38362,-2.5346 -23.49232,-2.90992c-8.93806,-0.4719 -27.067,1.07142 -31.16291,-2.00152c-5.5362,-4.15352 17.78295,-13.14547 16.17723,-19.10187c-2.29556,-8.51548 11.10051,-26.07264 11.10051,-26.07264c0,0 7.08001,-13.90086 13.83913,-14.13471c7.68086,-0.26573 14.76666,9.01628 14.76666,9.01628c0,0 6.11205,5.99864 12.15113,12.78676c-3.6026,2.06749 -6.6183,4.68848 -7.09561,5.99372c-0.2036,0.55674 5.53923,5.5573 6.61043,6.2278c0.30438,0.19053 3.4427,0.68227 3.7163,0.73741c1.02854,0.20732 -1.5884,0.98591 -1.51282,1.57577c0.16886,1.31818 4.40757,5.57916 6.61044,6.2278c1.51391,0.44578 3.80446,0.75203 6.38708,0.88889c4.40878,5.75409 11.33387,12.3734 8.62635,15.77931z" fill="url(#color-2)" stroke="#000000" stroke-width="2"/><path d="M313.24505,269.80298c0,-11.84728 17.83982,-21.4514 39.84634,-21.4514c6.84822,0 13.29294,0.93006 18.9221,2.56835c-4.79174,2.07449 -9.48267,5.84799 -10.08821,7.50386c-0.2036,0.55674 5.53922,5.5573 6.61043,6.2278c0.30438,0.19053 3.44269,0.68227 3.71628,0.73741c1.02854,0.20732 -1.58839,0.9859 -1.51282,1.57576c0.16886,1.31818 4.40757,5.57917 6.61044,6.22781c3.08948,0.90972 9.4132,1.23833 14.85327,0.73215c-3.57,9.8753 -19.72373,17.32967 -39.1115,17.32967c-22.00654,0 -39.84635,-9.60412 -39.84635,-21.45141z" fill="url(#color-3)" stroke="none" stroke-width="0"/><path d="M329.94858,268.8138c1.48463,-0.51419 3.12005,-0.79892 4.83781,-0.79892c0.66129,0 0.76875,-5.29342 0.76875,-5.29342c0,0 4.06487,1.01602 5.85112,2.26135c1.98569,1.38435 1.73475,3.0001 2.19635,2.71998c3.30044,-2.00286 4.59121,-2.84063 4.56086,-1.23618c-0.01651,0.87278 8.02168,4.17542 8.02168,4.17542c0,0 -8.32807,0.13198 -8.40889,0.85645c-0.31521,2.8259 -0.70601,5.4901 -0.70601,6.43597c0,0.7889 0.47957,1.78772 1.18587,2.88279c0.54548,0.84575 4.09245,1.13148 4.79191,2.0883c0.86867,1.18831 -1.09996,3.05302 -0.39663,4.09631c1.27663,1.89365 1.91328,3.26216 0.5756,3.94668c-1.89926,0.97191 -16.02576,-3.09451 -18.44063,-3.09451c-2.32114,0 -6.12975,1.68448 -7.98133,0.78104c-1.50502,-0.73433 -2.50648,-2.116 -3.16115,-3.73875c-0.3222,-0.79861 -4.8279,-2.52256 -4.8279,-2.52256c0,0 3.68655,-3.10862 3.68655,-4.4393c0,-2.18854 0.87767,-4.21155 2.36429,-5.852c0.65015,-0.71743 0.23007,-3.67811 0.23007,-3.67811c0,0 3.83957,0.76 4.85165,0.40947z" data-paper-data="{&quot;index&quot;:null}" fill="#240000" stroke="none" stroke-width="0"/></g><path d="M364.15825,241.25399l7.21278,1.58852l-12.45843,5.11853" fill="none" stroke="#000000" stroke-width="1" stroke-linecap="round"/></g></g><path d="M461.58974,168.32031c0,0 -8.18474,88.90583 -11.46369,94.96983c-2.6924,4.97924 -6.73481,-15.88409 -9.09355,-9.24472c-3.00387,8.45528 2.10648,13.58814 1.89802,14.01716c-1.99418,4.1041 -9.60305,2.53858 -10.86011,-13.95213c-2.47863,-32.51589 -3.5895,-86.12426 -3.5895,-86.12426" data-paper-data="{&quot;index&quot;:null}" fill="none" stroke="#000000" stroke-width="3.5" stroke-linecap="round"/><path d="M365.17282,158.22443c0,0 -9.82449,1.51048 -17.82516,9.53925c-5.42338,5.44243 -9.10787,16.76269 -11.79685,21.53149c-3.95533,7.01463 9.27703,5.57201 5.19132,11.83999c-5.30886,8.14445 -9.00862,10.0297 -12.2534,13.51498c-4.84789,5.20722 -2.9298,20.82883 -6.24527,23.94708c-2.76891,2.60418 -4.94579,14.33558 -9.82168,19.99412c-8.82341,10.23969 -20.79855,15.37812 -20.79855,15.37812" fill="none" stroke="#000000" stroke-width="3.5" stroke-linecap="round"/><g><g><g stroke-linecap="butt"><g><path d="M459.16542,180.50197c-8.32411,-3.99337 -10.482,-17.98622 -6.62964,-35.04044c0.14852,-0.0891 0.29786,-0.18037 0.44803,-0.27379c0.64779,-0.40294 0.33208,-1.47009 1.07723,-1.87492c3.8469,-2.08999 5.85396,-0.81096 8.43436,-5.71074c2.78286,-5.28423 1.92806,-7.94321 0.24334,-12.74435c-1.08857,-3.10224 0.9699,-6.39029 1.7575,-9.16559c0.14208,-0.50066 0.24428,-1.02062 0.30929,-1.55412c1.13274,-1.14131 2.00066,-2.57727 2.47073,-4.23367c0.30902,-1.08885 0.42168,-2.18697 0.3591,-3.25652c2.33242,-5.36461 4.70722,-10.33533 7.51343,-14.2358c0.96963,-1.34774 5.37792,-18.53779 6.46662,-19.60205c0.50627,-0.4949 -2.36004,15.01399 -1.82295,14.5892c7.54621,-5.96809 19.04413,-3.94622 24.64239,-1.26057c6.25278,2.99967 17.66996,11.05693 17.03027,22.40032c-0.56628,10.04168 -12.45097,22.78506 -18.32094,35.02086c-12.50084,26.05769 -32.19081,42.59725 -43.97882,36.94212z" data-paper-data="{&quot;index&quot;:null}" fill="url(#color-4)" stroke="#000000" stroke-width="2"/><path d="M503.40864,140.04585c-4.32439,18.98816 -12.44794,29.42723 -31.43611,25.10284c-17.21454,-3.92045 -19.02814,-7.84624 -15.99447,-22.69427c2.67294,-0.97117 4.40259,-0.83674 6.51737,-4.85235c2.78286,-5.28423 1.92807,-7.9432 0.24336,-12.74434c-1.08857,-3.10224 0.9699,-6.3903 1.7575,-9.16559c0.14208,-0.50066 0.24428,-1.02061 0.30929,-1.55412c1.13274,-1.14131 2.00067,-2.57726 2.47074,-4.23367c0.29092,-1.02515 0.40782,-2.05848 0.36829,-3.06852c4.6629,-7.66479 11.01652,-12.49254 19.98791,-10.44939c18.98817,4.32438 25.798,14.12168 21.47362,33.10984z" fill="url(#color-5)" stroke="none" stroke-width="0"/></g><path d="M492.72091,147.73649c-1.8976,0.57695 -3.82742,0.64698 -5.68404,0.12009c-0.71476,-0.20286 -3.8468,10.3916 -3.8468,10.3916c0,0 -3.81456,-3.28665 -5.0357,-6.3347c-1.35744,-3.38839 -0.16566,-6.55529 -0.82419,-6.13449c-4.70835,3.00873 -6.58078,4.29478 -5.63383,1.08291c0.51512,-1.74719 -6.29112,-10.84328 -6.29112,-10.84328c0,0 9.07643,2.28947 9.57655,0.85977c1.95073,-5.57674 3.89108,-10.80572 4.42998,-12.70468c0.44948,-1.58385 0.5002,-3.73624 0.36075,-6.15141c-0.10772,-1.86531 -3.77857,-3.52689 -3.98943,-5.66241c-0.26184,-2.65216 2.92832,-5.79203 2.76256,-8.10231c-0.30089,-4.19337 -0.20933,-7.13617 1.62647,-8.10016c2.6065,-1.36871 15.55803,11.12825 18.1681,11.86895c2.50874,0.71195 7.58495,-1.50168 9.07147,0.88004c1.20828,1.93592 1.50348,5.01702 1.28651,8.47574c-0.10677,1.70217 3.78093,6.54529 3.78093,6.54529c0,0 -5.75567,5.11027 -6.51383,7.78185c-1.24691,4.39386 -3.34813,8.18616 -5.88959,11.02365c-1.11146,1.24093 -2.34427,7.31384 -2.34427,7.31384c0,0 -3.71692,-2.70356 -5.01052,-2.31024z" data-paper-data="{&quot;index&quot;:null}" fill="#210000" stroke="none" stroke-width="0"/></g><path d="M521.11124,123.18358l-2.76824,5.29253l-8.46934,-1.39047" fill="none" stroke="#000000" stroke-width="1" stroke-linecap="round"/></g><path d="M542.4971,87.41787c1.00312,-1.39636 2.3995,-0.39323 2.3995,-0.39323l1.92626,1.60732c0.09084,2.12417 -0.0227,4.49896 -1.21032,6.26247c-3.10197,2.62791 -6.6596,7.17627 -11.22551,7.08711c-1.48286,-0.02897 -3.58348,-2.39045 -5.30621,-2.38438c-0.27475,0.00097 -0.07058,0.55991 -0.20883,0.79733c-0.33061,0.56775 -2.6829,3.76164 -3.20975,3.91176c-1.81869,0.51819 -5.10491,-1.73586 -6.67928,-2.52372c-0.87529,-0.43802 -1.29576,-1.86862 -2.27445,-1.8571c-0.69434,0.00817 -1.26223,0.83094 -1.94975,0.73353c-0.84247,-0.11937 -1.45685,-0.8796 -2.18528,-1.3194c0,0 -1.39636,-1.00312 -0.39323,-2.3995c1.00312,-1.39636 2.3995,-0.39323 2.3995,-0.39323c0.57395,0.64048 1.72837,-0.15099 2.57988,-0.03034c0.84248,0.11936 1.47247,0.8547 2.18527,1.31938c0.90451,0.58965 1.95869,0.91106 2.91587,1.41068c0.86498,0.45149 1.45618,2.27327 2.30898,1.79919c1.05795,-0.58812 1.56428,-4.28323 3.3233,-4.67561c0.53986,-0.12043 4.97207,0.77507 6.12556,1.36355c0.37114,0.18936 0.49829,0.82379 0.91395,0.85274c1.2871,0.08961 2.52054,-1.58805 3.33934,-2.13323c2.02604,-1.34895 2.92723,-2.2928 4.81399,-3.89123c0.52174,-0.61977 0.66235,-1.51982 0.69359,-2.32937l-0.88915,-0.41524c0,0 -1.39636,-1.00311 -0.39321,-2.39949z" fill="#000000" stroke="none" stroke-width="0.5" stroke-linecap="butt"/><path d="M515.66012,57.69229c1.6967,-0.27806 -0.35171,2.29388 -0.35171,2.29388l0.15372,1.14448c-0.0251,0.63743 -0.05016,1.27485 -0.07525,1.91227c0.11818,0.97364 0.61994,1.97672 0.35452,2.9209c-1.21444,4.32016 -5.03714,3.07705 -7.82582,5.0498c-0.08848,0.06261 -0.8218,1.32661 -1.40584,2.02392c1.15352,-0.07594 2.45142,-0.40156 3.39248,0.23062c0.97588,0.6556 1.26515,2.04549 1.48021,3.20132c0.15755,0.84675 -0.47078,1.69198 -0.40991,2.55113c0.05328,0.75231 0.7928,1.38495 0.74208,2.13743c-0.212,3.145 -3.48348,6.37732 -5.24717,8.83237c0,0 -1.00312,1.39636 -2.39949,0.39322c-1.39636,-1.00312 -0.39322,-2.39949 -0.39322,-2.39949c1.0785,-1.50127 4.63586,-4.92756 4.60138,-6.85731c-0.01135,-0.63501 -0.67868,-1.12863 -0.72495,-1.76205c-0.06275,-0.85899 0.29871,-1.69704 0.40991,-2.55112c0.03005,-0.23082 0.24274,-0.65975 0.01318,-0.69818c-0.72031,-0.12055 -1.45042,0.49029 -2.1647,0.33809c-3.62899,-0.77328 -3.60658,-1.49252 -2.50126,-4.75577c0.08673,-0.25607 2.40683,-3.33381 2.51581,-3.41362c2.76481,-2.02446 7.12519,-0.67438 6.13112,-5.02222c0.02347,-0.75051 0.04691,-1.50099 0.07038,-2.25149l-0.11056,-0.46818c0,0 2.04841,-2.57193 3.74511,-2.84999z" fill="#000000" stroke="none" stroke-width="0.5" stroke-linecap="butt"/><path d="M487.99153,52.60465c1.00312,-1.39636 4.33741,1.6356 4.33741,1.6356l1.4077,1.01128c4.43664,3.26219 6.11063,6.84539 3.36657,12.10224c-0.62092,1.18949 -2.14493,1.86065 -2.50075,3.15442c-0.11386,0.41399 0.46296,0.72686 0.63827,1.11879c0.56541,1.26394 4.17379,-1.6654 4.50407,-0.32074c0.30247,1.23152 -2.44982,6.62426 -2.30633,7.80766c0.19809,1.63381 0.16572,3.24839 -0.31509,4.91714c0,0 -0.51008,1.64192 -2.152,1.13185c-1.64191,-0.51007 -1.13183,-2.15202 -1.13183,-2.15202c0.88544,-2.55734 -0.11787,-5.73525 -1.07841,-8.20934c-0.27146,-0.69923 -1.65646,-4.29411 -1.56762,-4.74444c0.41792,-2.11842 5.68604,-6.23422 3.96486,-8.99994c-0.57047,-0.91666 -2.46816,-2.34526 -3.428,-3.01292l-1.40769,-1.01128c0,0 -3.33427,-3.03194 -2.33115,-4.42831z" fill="#000000" stroke="none" stroke-width="0.5" stroke-linecap="butt"/><path d="M466.0338,50.98357c1.00312,-1.39636 2.39948,-0.39322 2.39948,-0.39322l1.87694,1.34838c0.58299,0.41882 4.16963,-3.07017 4.75071,-2.66589c1.14293,0.79517 -0.73834,5.48134 0.27002,6.36926c1.48102,1.30412 2.72596,2.81479 3.46771,4.84506c0.7904,2.16344 1.24754,7.16527 1.10623,9.37789c-0.08733,1.36777 -1.05678,2.63544 -0.94546,4.00146c0.44454,5.4559 5.2992,9.43466 9.392,12.37489c0,0 1.39636,1.00312 0.39322,2.39949c-1.00312,1.39636 -2.3995,0.39323 -2.3995,0.39323c-4.12741,-2.9651 -8.99975,-6.98793 -10.36617,-12.19522c-0.39089,-1.48964 -0.67016,-3.74161 -0.34536,-5.29723c0.15104,-0.7234 0.80454,-1.30906 0.85259,-2.04649c0.06355,-0.97521 -0.43184,-1.91108 -0.53135,-2.88328c-0.30474,-2.97764 -0.17195,-5.30879 -1.91246,-7.84881c-1.03536,-1.51094 -4.18415,-2.91502 -5.73844,-4.03161l-1.87693,-1.34836c0,0 -1.39634,-1.00313 -0.39321,-2.39949z" fill="#000000" stroke="none" stroke-width="0.5" stroke-linecap="butt"/></g><g stroke-linecap="butt"><path d="M422.86846,210.68774c-0.40744,1.67051 -1.81103,9.63998 -3.25133,17.5283c-0.14925,0.09409 -0.29579,0.19209 -0.43948,0.29386c-2.11576,1.37016 -3.69998,3.60821 -4.07115,6.74962c-0.05397,0.41689 -0.08179,0.84198 -0.08179,1.27357c0,1.65013 0.40681,3.20525 1.12562,4.57052c0.25051,0.50101 0.47537,0.96412 0.71026,1.40202c-0.2874,1.3056 -0.52411,2.2481 -0.68854,2.68421c-9.92307,26.31629 -28.12633,17.92233 -48.48331,12.95721c-14.87516,-3.62809 -35.18573,-17.83167 -38.38693,-36.11532c-1.1628,-6.64132 8.93704,-8.94826 12.7281,-16.35494c0.91429,-1.78627 0.20423,-4.96256 -0.53618,-8.06078c-0.01927,-0.08926 -0.04041,-0.17765 -0.06344,-0.2651c-0.63172,-2.63706 -1.25242,-5.18688 -0.8738,-6.73924c1.82551,-7.48462 4.59322,-14.38554 8.05517,-20.48953c2.71865,-1.55519 5.38564,-3.20434 7.99164,-4.94167c1.68461,-1.12307 1.63503,-4.25494 0.90991,-7.40708c1.57809,-1.72793 -1.85254,-10.82465 -1.85254,-10.82465c0,0 33.15753,2.97516 37.61939,4.06341c8.48796,2.07023 44.57769,5.58322 42.23116,8.80486c-5.79874,7.96129 -6.65639,17.18434 -6.02605,21.63647c0.17755,1.25404 0.22718,2.52548 0.17432,3.81231c-7.60388,2.66001 -8.03438,8.75974 -5.89572,15.73612c0.2757,0.89934 0.74136,1.61925 1.33297,2.2058c-0.82565,2.4763 -1.61688,4.97347 -2.22825,7.48008z" fill="url(#color-6)" stroke="#000000" stroke-width="2"/><path d="M372.27611,173.18253c20.34764,0 36.84266,16.49501 36.84266,36.84266c0,20.34764 -16.49501,36.84265 -36.84266,36.84265c-19.87585,0 -36.07567,-15.73896 -36.81621,-35.43366c2.7231,-1.24573 4.34964,-4.1591 5.10767,-7.53643c1.18864,-2.79959 1.53149,-5.76108 0.34089,-7.83511c-0.17031,-1.40822 -0.46045,-2.74193 -0.85422,-3.91557c6.28936,-11.31116 18.36184,-18.96453 32.22187,-18.96453z" fill="url(#color-7)" stroke="none" stroke-width="0"/><path d="M422.86846,210.68774c-0.42685,1.75009 -2.17104,10.05471 -3.89288,17.95677c-2.01416,1.38013 -3.50984,3.57442 -3.86908,6.61502c-0.05397,0.41689 -0.08179,0.84198 -0.08179,1.27357c0,1.64842 0.40597,3.20203 1.12339,4.56629c-0.33728,1.35878 -0.60735,2.34553 -0.77992,2.80321c-0.55492,1.47168 -0.81564,2.87815 -1.22804,4.19976c-0.63081,2.02154 -1.56119,3.84454 -2.56978,5.39865c-1.23735,1.90662 -2.79047,3.59298 -4.45323,4.82446c-0.90919,0.67335 -1.96534,1.42228 -2.75577,1.93593c-9.59042,6.23216 -22.49979,0.70143 -36.67261,-2.75536c-14.87516,-3.62809 -33.45685,-14.75816 -36.65805,-33.04182c-1.1628,-6.64132 12.88223,15.19813 16.67328,7.79146c1.72001,-3.36043 7.24272,1.03161 8.07804,-2.39322c2.8646,-11.74484 9.15794,9.21412 15.70455,1.16778c11.1537,-13.70882 9.56964,-19.85999 23.89264,-16.36658c15.46284,3.77143 17.36302,-15.73409 20.09985,3.59652c1.28621,9.08469 9.86562,-17.72483 7.38942,-7.57242z" fill="#400000" stroke="#4f0000" stroke-width="0"/><path d="M363.84085,189.98012c0,-20.34764 16.49501,-36.84265 36.84265,-36.84265c13.1755,0 24.73565,6.91606 31.24816,17.31585c-0.20061,0.6561 -0.37092,1.40534 -0.56394,2.27393c-0.78306,3.52376 -0.49855,7.91219 -0.58625,12.186c-8.67966,2.4402 -9.25706,8.78384 -7.01772,16.08863c0.29603,0.96564 0.81106,1.72444 1.46586,2.33339c-1.13842,3.20627 -1.95359,6.50208 -2.06188,9.63209c-0.08066,2.33152 -2.24736,4.89581 -1.6405,7.32325c0.00521,0.02083 0.0105,0.04164 0.01587,0.06241c-5.93074,4.08092 -13.11618,6.46975 -20.85957,6.46975c-20.34764,0 -36.84265,-16.49501 -36.84265,-36.84266z" fill="url(#color-8)" stroke="none" stroke-width="0"/><path d="M407.33087,249.26627c-0.87727,0.7353 -0.83097,3.3715 -1.86395,4.01008c-1.70223,1.05229 -4.58322,0.06608 -6.42267,1.20871c-3.6241,2.25119 -7.2098,4.69054 -9.85214,4.32648c-2.495,-0.34375 -9.88824,-3.21896 -9.88824,-3.21896c0,0 2.53264,-5.99735 -0.49794,-7.55926c-4.66967,-2.40665 -10.13948,-5.25018 -10.0395,-6.84865c0.11612,-1.85647 2.49185,-3.01048 6.03537,-4.30169c1.95226,-0.71138 3.35318,-4.47454 5.62056,-5.23261c1.82569,-0.6104 4.53206,1.78575 6.09872,1.18999c2.02849,-0.77138 3.77208,-1.60213 4.90398,-2.55086c1.35712,-1.13751 4.9267,-4.64339 8.77721,-8.28531c0.98714,-0.93367 -0.12801,-4.40653 0.86352,-5.32048c1.38532,-1.27692 4.86392,0.03239 6.1055,-1.02999c2.2824,-1.95299 1.91606,0.05156 1.17916,5.00957c-0.19577,1.31722 3.32482,-0.08794 4.64593,1.30427c1.20274,1.26747 0.18601,5.37016 0.61415,5.88097c1.11212,1.32685 1.76241,2.93251 1.98585,4.69765c0.02781,0.21966 0.0229,0.40872 -0.01058,0.57213c-0.02807,0.08218 -0.05519,0.16517 -0.08131,0.249c-0.71615,1.53069 -4.73399,0.1813 -6.19193,2.93155c-0.81921,1.54535 6.52974,4.18358 6.46873,7.15171c-0.04484,2.18184 -7.30325,4.85415 -8.45043,5.81569z" data-paper-data="{&quot;index&quot;:null}" fill="#240000" stroke="none" stroke-width="0"/></g><path d="M419.31255,207.99085h7.50186v7.50186" fill="none" stroke="#000000" stroke-width="1" stroke-linecap="round"/><path d="M438.96524,133.96417l8.28359,3.89816l-0.24364,5.84725" fill="none" stroke="#000000" stroke-width="1" stroke-linecap="round"/><path d="M440.10202,91.26907c7.55084,33.21525 -8.92425,58.7608 -35.06025,64.70232c-26.136,5.94152 -51.80412,-10.02358 -59.35496,-43.23883c-2.65033,-11.6585 -4.9832,-3.60232 -2.56002,-13.84596c1.11506,-4.71376 12.09334,-11.01184 14.12833,-15.10072c1.91588,-3.84956 10.46513,-12.13686 13.11267,-15.25613c5.83995,-6.88048 4.07753,-12.18793 12.8441,-14.18084c15.48975,-3.5213 27.44939,5.43261 38.23108,14.52306c7.41037,6.24796 15.58329,8.8672 18.65906,22.39713z" fill="#080808" stroke="#000000" stroke-width="1.5" stroke-linecap="butt"/><path d="M444.34042,106.18454c-0.02777,1.94245 -2.46045,4.3937 -2.58715,6.27821c-0.15497,2.3046 1.96145,4.02918 1.52347,6.26228c-0.20846,1.06285 3.44072,18.32393 3.14247,19.43067c-0.3501,1.29916 -4.65774,-13.55867 -5.02296,-12.37219c-1.46461,4.75802 -1.95818,21.36883 -5.53016,26.64742c-3.63712,5.37484 -10.37213,-0.58688 -13.99902,3.74319c-6.22384,7.43052 -9.85285,11.80152 -17.78832,13.6055c-4.48357,1.01925 -12.13689,-6.37862 -15.90168,-4.56601c-6.48891,3.12418 -6.55014,6.36087 -13.33581,2.05369c-13.7291,-8.71451 -28.67885,-37.04247 -33.00405,-56.06847c-0.21384,-0.94064 -0.35413,-1.84926 -0.42966,-2.72938c2.95457,0.37471 5.93725,0.83164 8.84154,0.16848c2.4611,1.30647 6.56266,-3.23121 8.68284,-4.85077c3.00577,-2.29605 5.54208,-4.0551 7.13213,-7.58642c1.40191,-3.11348 2.49784,-6.72478 2.75669,-10.1629c0.23147,-3.12191 -0.34176,-7.47765 1.13888,-10.20332c1.55235,-2.85768 3.27067,-6.45237 6.13401,-8.20578c3.29259,-2.01628 9.55556,8.24946 11.83233,5.10342c2.04899,-2.83131 3.06948,-6.34077 3.90691,-9.74085c0.88294,-3.58486 1.55521,-6.67586 1.47527,-10.37564c-0.00714,-0.33026 -0.01675,-0.65472 -0.02725,-0.9746c9.29326,0.01242 8.24603,-0.95255 15.51395,2.00202c5.5892,2.27213 12.16964,11.14093 18.47893,16.571c6.82564,5.87447 13.24876,8.57621 15.40481,18.0604v0.00002c1.37307,6.03998 1.74502,12.09317 1.66184,17.91004z" fill="url(#color-9)" stroke="#000000" stroke-width="2" stroke-linecap="butt"/><path d="M347.58306,124.7595l-3.36653,3.16947l-2.25506,-3.57441" fill="none" stroke="#000000" stroke-width="1" stroke-linecap="round"/><path d="M369.57581,132.02021c0,0 1.33781,-6.53301 12.78176,7.79667c1.66986,2.09093 11.29402,-4.87703 12.96028,-3.28205c3.51893,3.36838 7.91657,0.94127 7.91657,0.94127c0,0 5.95886,3.84285 8.02269,3.25928c3.63798,-1.02868 10.26876,-5.86908 10.26876,-5.86908c0,0 0.73798,12.25458 2.10121,7.57421c3.73205,-12.81317 4.92253,17.40068 5.67004,9.6829c0.34409,-3.55263 3.16261,16.91787 3.16261,16.91787l-3.93304,7.42153c0,0 -7.86613,-12.4539 -9.02067,-10.86061c-1.94628,2.68592 -4.04219,5.26532 -5.1037,5.56547c-5.34449,1.51122 -15.19689,-11.01685 -15.19689,-11.01685c0,0 -1.17623,6.10904 -2.92921,5.53106c-1.80171,-0.59406 -4.66726,-7.59091 -4.66726,-7.59091l-6.60604,7.77271c0,0 -0.04477,-2.09466 -1.04653,-4.00288c-1.03367,-1.96899 -3.03258,-3.76367 -3.51714,-4.44849c-1.29649,-1.83233 -12.20403,-2.79761 -12.98332,-4.45249c-1.0297,-2.18663 -11.08931,13.37397 -12.33051,10.04644c-1.10962,-2.97475 1.84132,-12.76887 0.82393,-15.72624c-2.1654,-6.29442 3.15739,-13.05603 3.15739,-13.05603z" fill="#000000" stroke="none" stroke-width="0" stroke-linecap="butt"/><path d="M384.65905,97.22381c2.74371,12.06924 2.85487,22.22303 1.75851,28.87113c-0.70177,4.25535 -1.5568,7.28937 -3.6518,7.76563c-2.41553,0.54913 -5.2988,-1.91145 -8.14978,-6.58786c-1.01367,-1.66271 1.00705,12.3308 0.02403,10.14355c-0.62545,-1.39164 -4.27044,-18.81856 -4.86861,-20.39892c-1.69363,-4.4747 -3.25465,-9.66902 -4.55165,-15.37436c-2.30164,-10.12463 11.89255,-30.14186 14.51491,-30.738c5.36801,-1.22031 0.42448,6.52429 4.92439,26.31885z" fill="#000000" stroke="none" stroke-width="0" stroke-linecap="butt"/><path d="M419.35495,90.61412c0.73891,3.25037 1.3375,6.42636 1.79819,9.47013c0.14978,0.98957 1.59179,3.32928 1.71249,4.28891c0.2862,2.27548 -0.81594,3.09712 -0.69164,5.16664c0.64393,10.72207 -0.8704,18.32477 -4.39088,19.12508c-5.36801,1.22031 -13.36755,-13.83708 -17.86746,-33.63163c-3.14598,-13.83879 -0.66767,-15.44927 1.08882,-22.12968c0.75594,-2.87503 2.86789,-3.55393 4.48302,-3.9211c5.36801,-1.22031 9.36755,1.83707 13.86746,21.63163z" fill="#000000" stroke="#000000" stroke-width="0" stroke-linecap="butt"/><g><g><g stroke-linecap="butt"><g><path d="M254.28927,245.2653c0.78332,0.01343 1.56249,0.03456 2.33714,0.06325c1.99658,0.52429 4.1274,0.96836 4.64454,0.53663l0.29668,-0.24769c25.42238,2.03923 44.84332,12.25947 44.6385,24.21396c-0.10583,6.17674 -5.43213,11.71127 -14.07029,15.77926c-0.96028,-0.22341 -1.97079,-0.30491 -3.00609,-0.22281c-2.91927,0.23152 -5.43891,1.71661 -7.07257,3.88504c-5.73047,1.58191 -12.22112,2.6615 -19.17894,3.11222c-0.6946,-0.30981 -1.34818,-0.49002 -1.87871,-0.47612c-1.42121,0.03724 -2.81693,0.31673 -4.20621,0.70565c-1.09651,0.01221 -2.20191,0.00901 -3.31515,-0.01007c-1.01941,-0.01747 -2.03749,-0.01794 -3.05278,-0.00446c-4.8853,-0.52682 -10.80956,-0.16171 -13.61181,0.27267c-0.5143,0.07972 -1.35395,0.32243 -2.226,0.67425c-3.48127,0.27792 -6.82103,0.52366 -9.94777,0.58457c-0.56936,-0.1234 -1.1438,-0.21332 -1.72688,-0.2475c-0.39038,-0.02289 -0.81089,0.06796 -1.24095,0.24335c-5.14106,-0.12896 -9.57972,-0.95452 -12.94911,-3.25943c-2.39243,-1.63659 -10.29635,0.64954 -16.9222,1.16849c-9.18134,0.71909 -17.28878,-0.1148 -17.23937,-2.99811c0.02107,-1.22971 5.65839,-3.07527 12.94459,-10.20873c3.24149,-3.17354 7.79013,-7.93025 11.56692,-10.58773c3.77228,-2.6543 4.27455,-6.2108 4.43527,-6.98954c0.30024,-1.45482 6.60508,-6.81777 7.1932,-7.96648c1.81732,-3.54966 6.01053,-5.61061 9.98101,-7.20859c5.82695,-2.34516 7.70557,-4.04097 16.89821,-2.6497c1.63724,1.63301 3.61162,2.49153 5.11723,1.3998c1.34077,0.17067 3.33035,0.15972 5.27722,0.02107c0.74919,0.07871 1.49344,0.14878 2.23119,0.20818c0.34346,0.0532 0.68709,0.07809 1.02799,0.07596c1.0343,0.06932 2.05415,0.11543 3.05515,0.13258z" fill="url(#color-10)" stroke="#000000" stroke-width="2"/><path d="M271.24381,264.748c0.82383,10.38749 -2.74451,20.10978 -9.14668,27.3401c-0.39959,-0.12293 -0.77178,-0.18759 -1.09757,-0.17906c-2.05704,0.05389 -4.06069,0.61529 -6.06869,1.28149c-0.057,-0.02303 -0.11449,-0.04532 -0.17247,-0.06689c-1.01021,-0.37566 -2.05441,-0.4841 -3.055,-0.36085c-5.08294,-0.75395 -11.8379,-0.36302 -14.88978,0.11005c-0.92115,0.14279 -2.88605,0.80842 -4.21139,1.68743c-0.98349,0.39732 -1.90982,1.19679 -2.91251,0.97707c-2.27127,-0.49769 -4.45557,-1.51711 -6.77674,-1.65319c-2.12665,-0.12468 -19.03833,-6.51014 -20.081,-19.65714c-1.34803,-16.99722 19.89068,-34.27009 23.22554,-33.02996c1.22396,0.45515 2.49785,0.51802 3.6836,0.25182c0.23257,0.12021 0.47494,0.2277 0.72654,0.32126c1.31082,0.48745 2.67891,0.52496 3.93467,0.19019c0.42985,0.29446 0.9023,0.54161 1.41276,0.73144c0.26463,0.09841 0.53161,0.17849 0.79952,0.24086c0.24357,0.12783 0.49799,0.24165 0.76262,0.34006c0.0263,0.00978 0.05262,0.01937 0.07896,0.0288c1.66077,1.71424 3.69765,2.64553 5.24159,1.526c1.48529,0.18906 3.76682,0.15525 5.90444,-0.02815c0.24743,0.03539 0.49485,0.05613 0.74115,0.06271c1.54363,0.46035 3.14119,0.31742 4.52204,-0.30491c2.10369,0.5966 6.61935,1.96438 7.40554,1.30804l1.79433,-1.49798c4.58227,5.60594 7.56274,12.61647 8.17852,20.3808z" fill="url(#color-11)" stroke="none" stroke-width="0"/></g><path d="M240.66376,246.49773c8.94322,-0.70927 16.90819,2.29124 20.63202,7.18132c1.26256,1.65798 2.03761,3.53318 2.19792,5.55466c0.06171,0.77821 4.27937,3.37068 4.31525,5.41697c0.0394,2.24765 -4.05522,3.96427 -2.81023,4.90389c4.68617,3.53674 13.87909,1.94217 10.36982,3.97075c-0.98991,0.57224 -3.73185,0.93974 -7.24192,1.18216c-1.90938,0.13185 -3.74034,4.08156 -5.94595,4.15224c-1.57863,0.05057 -3.49831,-3.76606 -5.08951,-3.73557c-6.20663,0.11896 -12.06689,0.12093 -14.13448,0.2849c-1.72449,0.13676 -3.86306,0.8743 -6.1909,1.89531c-1.79785,0.78855 -2.09139,5.01218 -4.11766,6.00118c-2.51648,1.22825 -6.77633,-0.76517 -8.99125,0.24338c-4.02024,1.83062 -6.95229,2.8171 -8.57346,1.36161c-2.30179,-2.06655 5.26869,-19.39562 5.04333,-22.23745c-0.21662,-2.73153 -4.25424,-6.9215 -2.4522,-9.25707c3.46492,-4.49078 15.11106,-6.29347 22.98925,-6.91827z" fill="#240000" stroke="none" stroke-width="0"/></g><path d="M314.34449,265.15219l-2.30981,10.93681l-9.24422,-5.62126" fill="none" stroke="#000000" stroke-width="1" stroke-linecap="round"/></g><path d="M177.53058,304.88015c0.6122,-1.60663 2.21883,-0.99444 2.21883,-0.99444l1.61969,0.61719c1.6426,0.65472 2.43445,0.64104 4.1609,0.26952c0.94683,-0.7018 2.04674,-1.21939 2.87549,-2.05737c1.84895,-1.86954 1.93362,-4.36789 2.41782,-6.69567c0.60634,-2.91501 2.21177,-7.18838 3.69346,-9.69297c2.07826,-3.51303 4.97299,-3.54904 8.0163,-5.28782c0.74783,-0.42726 1.15177,-1.32632 1.90269,-1.74813c0.8787,-0.4936 2.0774,-0.61862 2.65693,-1.4432c0,0 1.08885,-1.33059 2.41944,-0.24174c1.33059,1.08885 0.24174,2.41945 0.24174,2.41945c-0.52749,0.59563 -0.90657,1.36711 -1.58246,1.78686c-0.62302,0.38693 -1.49776,0.16371 -2.13705,0.52312c-0.75077,0.42209 -1.14923,1.33092 -1.9027,1.74815c-2.5098,1.38984 -4.96373,1.05279 -6.63927,3.96667c-2.6418,4.59426 -2.5113,10.19612 -4.9827,14.72522c-1.36175,2.49554 -3.32462,3.58058 -5.57337,5.1354c-2.70059,0.63464 -4.19469,0.76267 -6.79162,-0.19414l-1.61969,-0.61717c0,0 -1.60665,-0.61221 -0.99444,-2.21884z" fill="#000000" stroke="none" stroke-width="0.5" stroke-linecap="butt"/><path d="M203.72178,307.33348l1.07465,-0.09403c3.40111,-0.70653 2.53102,-1.38961 3.35125,-4.41926c0.54647,-2.01848 -3.78272,-8.57843 -3.89601,-10.60683c-0.16942,-3.03392 4.16716,-0.68464 4.46878,-3.78345c0.28337,-2.91131 2.36131,-6.3261 3.38927,-9.02387c0,0 0.61219,-1.60664 2.21883,-0.99444c1.60664,0.61221 0.99443,2.21885 0.99443,2.21885c-0.92085,2.41667 -3.01195,5.66617 -3.19393,8.25286c-0.20368,2.89493 0.82676,5.84088 0.91178,8.68184c0.06259,2.09177 -1.00868,4.06237 -1.55554,6.08236c-1.1138,4.11419 -1.27587,5.81808 -5.92524,6.94471l-1.4964,0.16287c0,0 -1.71081,0.17095 -1.88175,-1.53985c-0.17093,-1.7108 1.53987,-1.88175 1.53987,-1.88175z" fill="#000000" stroke="none" stroke-width="0.5" stroke-linecap="butt"/><path d="M181.04612,273.34567c1.62524,-0.56098 2.18621,1.06426 2.18621,1.06426l0.18724,2.08589c-0.20346,0.17084 -0.49981,0.27093 -0.61043,0.5125c-0.19743,0.43113 0.94654,0.12392 1.41961,0.09139c0.69275,-0.04765 1.36987,-0.27294 2.06421,-0.28031c1.21574,-0.0129 2.44165,0.13088 3.64737,-0.02548c2.05331,-0.26627 -2.15621,-10.56929 -0.09372,-11.60448c1.64576,-0.82604 3.2445,4.68096 6.51382,6.34335c1.38682,0.70519 0.84475,-3.2137 2.47244,-3.96925c1.01633,-0.47175 4.50868,2.3048 4.83057,2.01222c0,0 1.27283,-1.1558 2.42866,0.11703c1.15583,1.27285 -0.11702,2.42867 -0.11702,2.42867c-4.51567,4.09667 -11.55728,8.28853 -17.86447,8.37576c-2.74669,0.038 -7.70552,0.86878 -8.68971,-2.90211c-0.23215,-0.88945 0.6046,-1.73625 0.90689,-2.60438l-0.34595,0.54116c0,0 -0.56097,-1.62523 1.06427,-2.18622z" fill="#000000" stroke="none" stroke-width="0.5" stroke-linecap="butt"/><path d="M173.1969,262.30315c0.33544,-1.68628 2.02174,-1.35083 2.02174,-1.35083l0.56667,0.11272c1.56419,0.32114 6.08311,1.0452 7.5099,-0.20629c0.49158,-0.43118 0.35489,-1.28133 0.71662,-1.82607c1.14661,-1.72671 2.35619,-4.12894 3.50472,-5.77964c0.55765,-0.80151 1.62548,-1.16065 2.16195,-1.9765c1.4693,-2.23454 0.72321,-5.92578 5.43027,-4.53427c0.86279,0.25505 0.45971,1.76164 0.90766,2.54188c0.81578,1.42092 4.27485,4.50477 5.71864,5.22396c1.54308,0.76868 5.12226,0.95636 6.90448,1.3109c0,0 1.68628,0.33545 1.35083,2.02174c-0.33545,1.68628 -2.02174,1.35083 -2.02174,1.35083c-2.13496,-0.4247 -5.97029,-0.7088 -7.77388,-1.60907c-0.26414,-0.13184 -5.05397,-4.45489 -5.43271,-4.82433c-0.39658,-0.38687 -1.08649,-0.8329 -1.5037,-1.34093c-0.17011,0.62965 -0.38304,1.24411 -0.73171,1.78611c-0.53801,0.83633 -1.61963,1.20996 -2.19339,2.02218c-0.51594,0.73037 -0.61078,1.68388 -0.99495,2.49138c-0.59331,1.24715 -1.71793,2.16485 -2.5136,3.29372c-0.53969,0.76567 -0.57682,1.9096 -1.31852,2.48177c-2.5511,1.968 -7.53363,1.49863 -10.39175,0.94523l-0.56668,-0.11273c0,0 -1.68627,-0.33546 -1.35083,-2.02175z" fill="#000000" stroke="none" stroke-width="0.5" stroke-linecap="butt"/></g><path d="M411.76614,89.09553c0,-0.66495 0.11675,-0.55498 0.54014,-1.00284c0.45574,-0.48208 1.2441,-1.49716 1.95986,-1.49716c0.63243,0 0.63859,0.94912 1.07888,1.33635c0.52094,0.45816 1.42112,0.41537 1.42112,1.16365c0,1.38071 -1.11929,2.5 -2.5,2.5c-0.35458,0 -1.22525,7.05951 -1.53082,6.92641c-0.49904,-0.21738 -0.38001,-7.72624 -0.64628,-8.1966c-0.20556,-0.36311 -0.3229,-0.78276 -0.3229,-1.2298z" fill="#2e2e2e" stroke="none" stroke-width="0.5" stroke-linecap="butt"/><path d="M379.51614,132.35081c0,-1.38071 1.11929,-2.5 2.5,-2.5c1.38071,0 2.5,1.11929 2.5,2.5c0,0.71372 0.89062,6.57795 0.04214,7.66044c-0.41154,0.52504 -1.57154,-3.51653 -2.41062,-4.36511c-0.77761,-0.78642 -1.23927,1.63324 -1.56009,1.63324c-1.38071,0 -1.07143,-3.54786 -1.07143,-4.92857z" fill="#2e2e2e" stroke="none" stroke-width="0.5" stroke-linecap="butt"/></g></g></g></svg>