<svg version="1.1" xmlns="http://www.w3.org/2000/svg" xmlns:xlink="http://www.w3.org/1999/xlink" width="347.7296" height="414.35412" viewBox="0,0,347.7296,414.35412"><defs><linearGradient x1="241.62839" y1="216.61894" x2="243.05202" y2="223.43735" gradientUnits="userSpaceOnUse" id="color-1"><stop offset="0" stop-color="#000000" stop-opacity="0"/><stop offset="1" stop-color="#000000"/></linearGradient></defs><g transform="translate(-125.21557,-64.17992)"><g stroke-miterlimit="10"><path d="M414.03884,103.67595c4.23841,1.84244 6.18074,6.77193 4.33829,11.01036c-1.84244,4.23841 -6.77193,6.18074 -11.01036,4.33829c-4.23841,-1.84244 -6.18074,-6.77194 -4.3383,-11.01036c1.84244,-4.23841 6.77193,-6.18073 11.01036,-4.33829z" fill="#4e4e4e" stroke="#2b2b2b" stroke-width="0"/><path d="M401.50414,101.90471c-1.56349,-3.06243 1.57786,-32.5713 10.59585,-34.20602c11.57346,-2.09794 30.73468,9.0579 28.25052,17.59055c-3.10419,10.66238 -9.69055,25.84583 -19.47333,26.71262c-2.39605,0.21231 -6.66794,-2.9683 -8.81737,-3.90266c-3.21907,-1.39933 -8.83061,-2.81559 -10.55566,-6.1945z" fill="#2b2b2b" stroke="#2b2b2b" stroke-width="0"/><path d="M414.03885,103.67594c4.23841,1.84244 6.18074,6.77194 4.3383,11.01037c-1.84244,4.23841 -6.77193,6.18073 -11.01036,4.33829c-4.23841,-1.84244 -6.18073,-6.77193 -4.33828,-11.01036c1.84244,-4.23841 6.77194,-6.18074 11.01035,-4.3383z" fill="#4e4e4e" stroke="#2b2b2b" stroke-width="0"/><path d="M387.30259,179.22382c2.5032,3.88493 1.38311,9.06353 -2.50182,11.56675c-3.88493,2.50321 -9.06353,1.38312 -11.56675,-2.50182c-2.5032,-3.88493 -1.38311,-9.06351 2.50183,-11.56673c3.88493,-2.50321 9.06354,-1.38312 11.56675,2.50181z" fill="#4e4e4e" stroke="#2b2b2b" stroke-width="0"/><path d="M317.47898,224.21388c2.5032,3.88493 1.3831,9.06355 -2.50182,11.56675c-3.88493,2.50321 -9.06355,1.38311 -11.56675,-2.50182c-2.5032,-3.88493 -1.3831,-9.06355 2.50182,-11.56675c3.88493,-2.50321 9.06355,-1.3831 11.56675,2.50182z" fill="#4e4e4e" stroke="#2b2b2b" stroke-width="0"/><path d="M309.36695,229.44078c-5.91309,-9.17698 -10.16665,-16.96428 28.36214,-41.78988c38.52879,-24.82559 34.84964,-11.92694 40.76273,-2.74996c5.91309,9.17698 19.17922,11.15714 -19.34956,35.98273c-38.52879,24.82559 -43.86221,17.73409 -49.7753,8.55711z" fill="#2b2b2b" stroke="#2b2b2b" stroke-width="0"/><path d="M382.16392,177.00212c-9.27164,-4.03038 -20.30168,0.78588 -4.11639,-36.44732c16.18529,-37.2332 24.42992,-35.64179 33.70156,-31.61141c9.27164,4.03038 16.05929,8.97352 -0.126,46.20672c-16.18529,37.23318 -20.18754,25.88239 -29.45917,21.85201z" fill="#2b2b2b" stroke="#2b2b2b" stroke-width="0"/><path d="M387.30259,179.22382c2.5032,3.88493 1.38311,9.06353 -2.50182,11.56675c-3.88493,2.50321 -9.06353,1.38312 -11.56675,-2.50182c-2.5032,-3.88493 -1.38311,-9.06354 2.50182,-11.56674c3.88493,-2.50321 9.06354,-1.38312 11.56676,2.50182z" fill="#4e4e4e" stroke="#2b2b2b" stroke-width="0"/><path d="M309.36695,229.44078c-5.91307,-9.17696 -10.16665,-16.96428 28.36214,-41.78988c38.52879,-24.82559 34.84964,-11.92694 40.76273,-2.74996c5.91307,9.17696 19.17922,11.15714 -19.34956,35.98273c-38.52879,24.82559 -43.86223,17.73408 -49.7753,8.55711z" fill="#2b2b2b" stroke="#2b2b2b" stroke-width="0"/><path d="M384.56024,176.06569c-9.27164,-4.03038 -20.3017,0.78586 -4.11641,-36.44734c16.18529,-37.2332 24.42994,-35.64177 33.70157,-31.61139c9.27164,4.03038 16.05929,8.97352 -0.126,46.20672c-16.18529,37.2332 -20.18752,25.8824 -29.45916,21.85201z" fill="#2b2b2b" stroke="#2b2b2b" stroke-width="0"/><g fill="#262626" stroke="#2b2b2b" stroke-width="0"><g><path d="M277.69764,379.45564c-7.30541,1.52531 -14.74149,-1.4507 -21.33774,-1.31253c-9.15816,0.19183 -13.07596,4.75074 -18.31691,-0.6218c-3.29131,-3.37395 -8.07627,-21.0109 -8.81782,-24.56257c-2.77287,-13.28063 12.90489,-24.80546 36.72269,-29.7784c12.28039,-2.56403 23.28723,53.8664 11.74978,56.27531z"/></g><g><path d="M261.28101,324.15472c23.81781,-4.97294 42.79729,-0.68424 45.57017,12.59639c0.74156,3.55167 3.41358,21.62978 1.74729,26.03884c-2.65333,7.0208 -8.06802,4.41043 -16.53781,7.89916c-6.10044,2.51279 -11.72446,8.21562 -19.02989,9.74093c-11.53744,2.40891 -24.03016,-53.71128 -11.74977,-56.27531z"/></g></g><path d="M248.45342,226.25256l0.7293,-10.83556l57.54055,3.87293l-0.72931,10.83557z" fill="#4e4e4e" stroke="#2b2b2b" stroke-width="0"/><path d="M187.3457,254.89816l-5.0041,-9.63848l51.18361,-26.57353l5.0041,9.63848z" fill="#4e4e4e" stroke="#2b2b2b" stroke-width="0"/><g stroke="#2b2b2b" stroke-width="0"><path d="M145.12929,410.59378c0.78323,-4.55469 5.11047,-7.61208 9.66517,-6.82885c4.5547,0.78323 7.61208,5.11047 6.82884,9.66518c-0.78323,4.55469 -5.11047,7.61209 -9.66518,6.82885c-4.5547,-0.78323 -7.61207,-5.11047 -6.82882,-9.66518z" fill="#4e4e4e"/><path d="M157.47169,338.81962c0.78323,-4.55469 5.11046,-7.61208 9.66515,-6.82885c4.5547,0.78323 7.61209,5.11048 6.82885,9.66519c-0.78323,4.55469 -5.11047,7.61208 -9.66518,6.82884c-4.5547,-0.78323 -7.61207,-5.11047 -6.82882,-9.66518z" fill="#4e4e4e"/><path d="M171.54868,256.95827c0.78323,-4.5547 5.11048,-7.61209 9.66519,-6.82885c4.5547,0.78323 7.61208,5.11047 6.82884,9.66518c-0.78323,4.55469 -5.11047,7.61208 -9.66518,6.82884c-4.5547,-0.78323 -7.61209,-5.11047 -6.82885,-9.66518z" fill="#4e4e4e"/><path d="M191.61747,306.26711c-7.76771,45.17124 -14.78153,33.73805 -25.54065,31.8879c-10.75912,-1.85015 -21.18923,6.58333 -13.42151,-38.58789c7.76771,-45.17123 16.59853,-44.3044 27.35764,-42.45425c10.75912,1.85015 19.37223,3.98301 11.60452,49.15425z" fill="#2b2b2b"/><path d="M178.1622,375.88812c-6.88047,40.01167 -15.26718,40.42364 -25.2307,38.7103c-9.96352,-1.71334 -17.73085,-4.90319 -10.85038,-44.91486c6.88047,-40.01167 13.4637,-29.93598 23.42721,-28.22264c9.96352,1.71334 19.53433,-5.58445 12.65386,34.4272z" fill="#2b2b2b"/></g><g fill="#2b2b2b" stroke="#2b2b2b" stroke-width="0"><g><path d="M272.24747,366.52451c-26.48058,5.52891 -41.19637,9.89778 -50.23197,-33.37803c-2.72684,-13.06016 -21.92234,-39.61911 -21.84775,-50.86459c0.17258,-26.01725 28.51653,-31.98906 47.00558,-35.84941c6.75859,-1.41113 31.55719,118.73842 25.07414,120.09202z"/></g><g><path d="M247.77723,246.3064c18.48906,-3.86035 46.85455,-9.72895 57.42322,14.04562c4.56811,10.27611 -2.39643,42.29705 0.3304,55.3572c9.0356,43.27582 -6.19891,45.16029 -32.6795,50.6892c-6.48305,1.35361 -31.83272,-118.68089 -25.07413,-120.09202z"/></g></g><g fill="#2b2b2b" stroke="#2b2b2b" stroke-width="0"><path d="M250.63713,270.97909c5.56394,26.64836 2.57666,49.8166 -6.6723,51.7477c-9.24894,1.9311 -47.3906,-29.29118 -52.95454,-55.93956c-5.56394,-26.64836 16.96565,-41.97861 24.76743,-45.72636c8.5794,-4.12128 29.29547,23.26985 34.85941,49.91821z"/><path d="M266.39764,210.49189c8.64958,0.31284 35.43116,5.34736 40.9951,31.99574c5.56394,26.64836 -16.89792,70.52412 -26.14686,72.45521c-9.24894,1.9311 -21.25716,-18.10622 -26.8211,-44.75458c-5.56394,-26.64836 2.46117,-60.04038 11.97287,-59.69636z"/><path d="M251.11847,263.81849c-18.92201,3.95074 -41.70973,-28.52063 -42.91975,-34.31596c-1.21001,-5.79532 13.14838,-13.69607 32.07039,-17.64681c18.92201,-3.95075 35.24223,-2.45542 36.45224,3.33991c1.21001,5.79532 -6.68087,44.67212 -25.60288,48.62286z"/><path d="M296.55834,272.43575c4.99645,23.93038 -9.67559,47.23888 -32.77089,52.06098c-23.09531,4.82209 -45.86817,-10.66824 -50.86462,-34.59863c-4.99645,-23.93038 9.67559,-47.23888 32.77088,-52.06097c23.09531,-4.82209 45.86819,10.66823 50.86464,34.59862z"/></g><g fill="#323232" stroke="#2b2b2b" stroke-width="0"><g><g><path d="M271.60445,363.21587c-22.4623,4.68993 -34.91613,8.53428 -43.58753,-32.99722c-2.61693,-12.53373 -19.58111,-38.32651 -19.76821,-49.06467c-0.43285,-24.8436 23.60885,-29.91499 39.29229,-33.18955c5.73302,-1.197 29.56275,114.10326 24.06347,115.25146z"/></g><g><path d="M248.05324,247.85748c15.68344,-3.27456 39.74584,-8.24688 49.29003,14.69437c4.12529,9.91592 -1.10094,40.34184 1.51599,52.87556c8.6714,41.5315 -4.28026,42.99158 -26.74255,47.6815c-5.49928,1.1482 -29.79648,-114.05445 -24.06346,-115.25145z"/></g></g><g><path d="M251.04258,271.48458c5.33968,25.57425 3.30833,47.63417 -4.53714,49.27223c-7.84547,1.63806 -41.073,-29.03077 -46.41268,-54.60502c-5.33967,-25.57425 13.53426,-39.71291 20.10492,-43.11821c7.22556,-3.74471 25.50522,22.87672 30.8449,48.45098z"/><path d="M263.13633,214.0684c7.3843,0.49162 30.33882,5.89688 35.6785,31.47113c5.33968,25.57425 -12.84005,66.97646 -20.68553,68.61452c-7.84548,1.63806 -18.53413,-17.76604 -23.8738,-43.34029c-5.33967,-25.57425 0.76055,-57.28596 8.88083,-56.74535z"/><path d="M251.29348,264.65666c-16.05068,3.35124 -36.21054,-28.16819 -37.37178,-33.72993c-1.16124,-5.56173 10.90905,-12.78712 26.95973,-16.13836c16.05068,-3.35124 30.00371,-1.55928 31.16495,4.00245c1.16124,5.56173 -4.70221,42.5146 -20.7529,45.86584z"/><path d="M290.24178,273.89955c4.79506,22.96583 -7.19922,44.89919 -26.78993,48.98956c-19.59072,4.09037 -39.35929,-11.21121 -44.15434,-34.17702c-4.79506,-22.96583 7.19921,-44.89919 26.78992,-48.98956c19.59073,-4.09036 39.35931,11.21121 44.15436,34.17702z"/></g></g><path d="M261.4239,213.51196c0.60724,2.90837 -7.47461,8.82192 -18.48709,11.12123c-11.01248,2.29931 -20.78538,0.11365 -21.39262,-2.79471c-0.60724,-2.90837 7.82787,-7.13003 18.84035,-9.42933c11.01248,-2.29931 20.43212,-1.80555 21.03936,1.10281z" fill="#000000" stroke="#2b2b2b" stroke-width="0"/><path d="M267.44982,241.72076c-2.13708,-10.2355 0.05155,-20.04325 -1.52041,-26.03083c-1.15886,-4.41413 -7.88404,-5.91963 -7.02432,-6.09913c10.62898,-2.21923 44.99998,2.43378 49.2271,22.67945c1.59575,7.64279 0.83664,31.84823 0.56205,52.08518c-0.14729,10.85561 17.68873,43.26591 17.64485,54.12244c-0.05441,13.46046 -27.11199,21.89679 -29.05732,22.30296c-5.18268,1.08209 -11.40803,-56.64621 -16.90472,-72.37426c-5.77631,-16.5281 -10.76126,-36.31189 -12.92723,-46.6858z" fill="#770000" stroke="#2b2b2b" stroke-width="0"/><g stroke="#2b2b2b" stroke-width="0"><g><path d="M126.59,469.9778c0.20696,-1.20353 1.35041,-2.01141 2.55393,-1.80446c1.20353,0.20696 2.0114,1.35039 1.80444,2.55392c-0.20696,1.20353 -1.3504,2.01143 -2.55392,1.80447c-1.20352,-0.20696 -2.01141,-1.35041 -1.80445,-2.55394z" fill="#4e4e4e"/><path d="M128.83388,456.92911c0.20696,-1.20353 1.35039,-2.0114 2.55392,-1.80444c1.20353,0.20696 2.01141,1.35039 1.80445,2.55392c-0.20696,1.20353 -1.35039,2.01141 -2.55392,1.80446c-1.20353,-0.20696 -2.01141,-1.35041 -1.80445,-2.55393z" fill="#4e4e4e"/><path d="M136.70224,450.24039c-1.27756,7.42931 -3.28033,7.42613 -5.68057,7.01338c-2.40025,-0.41276 -4.28902,-1.07877 -3.01147,-8.50807c1.27756,-7.42931 3.3248,-7.68484 5.72505,-7.27208c2.40025,0.41276 4.24454,1.33747 2.96699,8.76677z" fill="#262626"/><path d="M128.6,471.33651c-2.40023,-0.41275 -4.24453,-1.33747 -2.96698,-8.76677c1.27756,-7.42931 2.93001,-5.38895 5.33024,-4.9762c2.40024,0.41275 4.63934,-0.9584 3.36179,6.4709c-1.27756,7.42931 -3.32482,7.68482 -5.72505,7.27207z" fill="#262626"/></g><g><path d="M135.2463,472.89206c0.20696,-1.20353 1.35039,-2.01141 2.55392,-1.80445c1.20353,0.20696 2.01141,1.3504 1.80445,2.55392c-0.20696,1.20353 -1.3504,2.01141 -2.55393,1.80445c-1.20353,-0.20696 -2.0114,-1.3504 -1.80444,-2.55392z" fill="#4e4e4e"/><path d="M137.49017,459.84337c0.20696,-1.20353 1.35039,-2.01141 2.55392,-1.80446c1.20353,0.20696 2.01141,1.35041 1.80445,2.55393c-0.20696,1.20353 -1.35039,2.0114 -2.55392,1.80444c-1.20353,-0.20696 -2.01141,-1.35039 -1.80445,-2.55392z" fill="#4e4e4e"/><path d="M145.35855,453.15465c-1.27756,7.42931 -3.28033,7.42615 -5.68057,7.0134c-2.40024,-0.41275 -4.28903,-1.07878 -3.01147,-8.50809c1.27756,-7.42931 3.32483,-7.68483 5.72506,-7.27208c2.40024,0.41275 4.24453,1.33747 2.96698,8.76677z" fill="#262626"/><path d="M137.25627,474.25077c-2.40024,-0.41275 -4.24453,-1.33747 -2.96698,-8.76677c1.27756,-7.42931 2.93001,-5.38895 5.33024,-4.9762c2.40024,0.41275 4.63934,-0.95842 3.36178,6.47089c-1.27756,7.42931 -3.32482,7.68483 -5.72505,7.27208z" fill="#262626"/></g><g><path d="M143.76862,475.94777c0.20696,-1.20353 1.35039,-2.0114 2.55392,-1.80444c1.20353,0.20696 2.0114,1.35039 1.80444,2.55392c-0.20696,1.20353 -1.35039,2.01141 -2.55392,1.80445c-1.20353,-0.20696 -2.01141,-1.35041 -1.80445,-2.55393z" fill="#4e4e4e"/><path d="M146.01249,462.89908c0.20696,-1.20353 1.3504,-2.01141 2.55392,-1.80445c1.20353,0.20696 2.01141,1.35039 1.80445,2.55392c-0.20696,1.20353 -1.35039,2.0114 -2.55392,1.80444c-1.20353,-0.20696 -2.01141,-1.35039 -1.80445,-2.55392z" fill="#4e4e4e"/><path d="M153.88082,456.21036c-1.27756,7.42931 -3.28033,7.42615 -5.68057,7.0134c-2.40024,-0.41275 -4.28901,-1.07879 -3.01146,-8.5081c1.27756,-7.42931 3.32481,-7.68483 5.72504,-7.27208c2.40024,0.41275 4.24453,1.33747 2.96698,8.76677z" fill="#262626"/><path d="M145.77856,477.30648c-2.40024,-0.41275 -4.24453,-1.33747 -2.96698,-8.76677c1.27756,-7.42931 2.93001,-5.38896 5.33024,-4.9762c2.40024,0.41275 4.63934,-0.95841 3.36179,6.47089c-1.27756,7.42931 -3.32482,7.68483 -5.72506,7.27208z" fill="#262626"/></g><g><path d="M153.15994,474.52672c0.20696,-1.20353 1.35039,-2.01141 2.55392,-1.80446c1.20353,0.20696 2.01141,1.3504 1.80445,2.55393c-0.20696,1.20353 -1.3504,2.0114 -2.55393,1.80444c-1.20353,-0.20696 -2.0114,-1.35038 -1.80444,-2.55392z" fill="#4e4e4e"/><path d="M155.40382,461.47802c0.20696,-1.20353 1.35039,-2.01141 2.55392,-1.80445c1.20353,0.20696 2.01141,1.3504 1.80445,2.55392c-0.20696,1.20353 -1.35039,2.01141 -2.55392,1.80445c-1.20353,-0.20696 -2.01141,-1.35039 -1.80445,-2.55392z" fill="#4e4e4e"/><path d="M163.27219,454.78931c-1.27756,7.42931 -3.28033,7.42615 -5.68057,7.0134c-2.40024,-0.41275 -4.28902,-1.07879 -3.01147,-8.50809c1.27756,-7.42931 3.32482,-7.68483 5.72506,-7.27208c2.40024,0.41275 4.24453,1.33747 2.96698,8.76677z" fill="#262626"/><path d="M155.16994,475.88543c-2.40024,-0.41275 -4.24454,-1.33747 -2.96698,-8.76679c1.27756,-7.42931 2.93001,-5.38895 5.33024,-4.9762c2.40024,0.41275 4.63934,-0.95842 3.36179,6.47089c-1.27756,7.42931 -3.32482,7.68484 -5.72505,7.27209z" fill="#262626"/></g><g><path d="M164.34871,430.86442c-0.75337,-1.06627 -0.4997,-2.5414 0.56658,-3.29478c1.06627,-0.75337 2.5414,-0.4997 3.29476,0.56659c0.75337,1.06627 0.4997,2.5414 -0.56658,3.29477c-1.06627,0.75337 -2.54138,0.4997 -3.29476,-0.56658z" fill="#4e4e4e"/><path d="M175.16017,446.16637c-0.75337,-1.06627 -0.4997,-2.54139 0.56658,-3.29476c1.06627,-0.75337 2.5414,-0.4997 3.29477,0.56657c0.75337,1.06627 0.4997,2.5414 -0.56658,3.29478c-1.06627,0.75337 -2.54139,0.49969 -3.29477,-0.56658z" fill="#4e4e4e"/><path d="M175.81746,434.82991c5.6804,8.03972 4.20992,9.61639 2.08341,11.11885c-2.12651,1.50246 -4.1038,2.36178 -9.7842,-5.67794c-5.6804,-8.03972 -4.4077,-9.89631 -2.28119,-11.39877c2.12651,-1.50246 4.30158,-2.08185 9.98198,5.95786z" fill="#262626"/></g><path d="M152.72846,415.47476c2.30983,0.3972 7.62627,0.07975 9.5136,1.57108c7.70575,6.08896 4.88834,22.39787 1.63786,33.01655c-2.60122,8.49769 -24.7421,7.32048 -33.27027,-0.77992c-6.64511,-6.3118 6.90821,-32.71162 9.89487,-34.41532c3.29534,-1.87978 8.76466,0.01275 12.22394,0.60762z" fill="#2b2b2b"/></g><g fill="#4e4e4e" stroke="#2b2b2b" stroke-width="0"><path d="M224.61666,220.91097l-4.17847,-20.01269l34.09197,-7.1181l4.17846,20.01269z"/><path d="M258.70859,213.79288c0.48013,2.29957 -6.46215,7.19527 -15.87638,9.16088c-9.41423,1.96561 -17.73548,0.25678 -18.2156,-2.04278c-0.48013,-2.29957 6.76241,-5.75715 16.17664,-7.72276c9.41423,-1.96561 17.43521,-1.69489 17.91534,0.60466z"/><path d="M237.84873,199.08532c-9.41423,1.96561 -17.20921,2.7773 -17.41055,1.81298c-0.20135,-0.96434 7.26719,-3.33953 16.68142,-5.30513c9.41423,-1.96561 17.20921,-2.7773 17.41056,-1.81297c0.20135,0.96434 -7.26719,3.33951 -16.68143,5.30512z"/></g><g stroke="#000000" stroke-width="0"><path d="M180.77412,76.50779c0,0 15.66732,21.09369 34.2515,33.67034c13.76023,9.31208 32.66129,20.19033 30.61768,26.31408c-4.80365,14.39431 -33.66214,42.51953 -49.61326,42.7729c-6.32568,0.10047 -21.54046,-11.46536 -25.7016,-27.03299c-6.33179,-23.68833 10.4457,-75.72432 10.4457,-75.72432z" fill="#262626"/><path d="M182.62954,81.66708c0,0 14.11986,19.01029 30.86849,30.34474c12.40115,8.39233 29.46183,19.23687 27.62009,24.75578c-4.32918,12.9726 -30.33735,38.31988 -44.71298,38.54824c-5.70091,0.09056 -19.4129,-10.33292 -23.16306,-24.36296c-5.70639,-21.34865 9.38746,-69.2858 9.38746,-69.2858z" fill="#202020"/></g><g stroke="#000000" stroke-width="0"><path d="M311.50237,158.79276c-5.58702,15.11462 -21.80886,25.21952 -28.09796,24.53282c-15.8589,-1.73165 -41.98456,-32.41209 -45.43251,-47.18985c-1.46685,-6.28688 18.36163,-15.3653 32.92619,-23.36106c19.6705,-10.79886 37.22659,-30.34861 37.22659,-30.34861c0,0 11.87914,53.36773 3.37772,76.36674z" fill="#262626"/><path d="M308.71996,157.24883c-5.03521,13.62175 -19.6548,22.7286 -25.32274,22.10972c-14.29249,-1.56062 -37.83775,-29.21074 -40.94517,-42.52893c-1.32198,-5.66592 16.67098,-14.88146 29.797,-22.08748c17.72766,-9.73226 33.54974,-27.35108 33.54974,-27.35108c0,0 10.58291,49.1304 2.92117,69.8578z" fill="#202020"/></g><g fill="#2b2b2b" stroke="#000000" stroke-width="0"><path d="M188.00893,156.02869c1.42598,-30.68472 25.53072,-51.38297 54.77676,-50.02385c29.24604,1.35912 51.94286,24.23236 50.51687,54.91708c-1.42599,30.68472 -26.29055,54.4578 -55.53659,53.09868c-24.11269,-1.12056 -54.17615,-26.70775 -52.72466,-50.77784c0.32272,-5.35193 2.71733,-1.82824 2.96762,-7.21406z"/><path d="M295.8318,168.39142c-0.78713,24.10097 -33.09403,46.78967 -57.20674,45.6691c-29.24602,-1.35913 -51.79863,-27.33578 -50.37265,-58.02049c1.42598,-30.68472 26.14633,-51.35436 55.39237,-49.99524c29.24602,1.35913 51.32724,24.20375 49.90125,54.88847c-0.25029,5.38583 2.4608,2.0994 2.28578,7.45819z"/></g><path d="M190.8928,156.59963c1.37247,-29.53317 24.61584,-48.2559 52.15524,-46.97609c27.53937,1.27981 48.94618,22.07752 47.5737,51.6107c-1.37247,29.53318 -24.61583,48.2559 -52.15524,46.97609c-27.53937,-1.27981 -48.94618,-22.07752 -47.57371,-51.6107z" fill="#323232" stroke="#000000" stroke-width="0"/><g fill="#2b2b2b" stroke="#000000" stroke-width="0"><path d="M197.599,159.502c0.58621,-12.61409 12.24339,-24.01119 23.65395,-23.48091c11.41055,0.53027 15.17281,13.2479 14.5866,25.86198c-0.58621,12.61409 -7.00708,21.8388 -18.41765,21.30853c-11.41055,-0.53027 -20.4091,-11.0755 -19.8229,-23.68959z"/><path d="M261.74064,185.25117c-11.41057,-0.53027 -16.94825,-10.31072 -16.36204,-22.92481c0.58621,-12.61409 5.51171,-24.92798 16.92228,-24.3977c11.41055,0.53027 21.96049,12.95939 21.37428,25.57348c-0.58621,12.61409 -10.52397,22.27931 -21.93452,21.74903z"/></g><path d="M197.64232,158.56984c0.56392,-12.1347 12.20007,-23.07906 23.61063,-22.54878c2.77665,0.12903 5.10171,0.95155 7.02242,2.2973c0.29246,0.20491 3.40263,-1.85505 3.40263,-1.85505c0,0 -1.3477,3.61231 -0.81531,4.24908c3.98497,4.7662 5.37922,12.51252 5.02124,20.2156c-0.56392,12.1347 -6.96803,20.99826 -18.3786,20.46799c-3.38692,-0.1574 -6.5629,-1.16333 -9.34003,-2.81752c-0.65791,-0.39188 -3.64881,1.68947 -3.64881,1.68947c0,0 0.99032,-3.56294 0.62834,-3.87777c-4.84464,-4.2134 -7.83459,-10.67471 -7.50252,-17.82033z" fill="#000000" stroke="#000000" stroke-width="0"/><path d="M261.82399,183.45559c-11.41055,-0.53027 -16.96503,-9.94959 -16.4011,-22.08427c0.56392,-12.1347 5.46732,-23.97292 16.87789,-23.44265c11.41055,0.53027 21.98153,12.50664 21.41761,24.64135c-0.56392,12.1347 -10.48385,21.41586 -21.89442,20.88559z" fill="#000000" stroke="#000000" stroke-width="0"/><g fill="#000000" stroke="#000000" stroke-width="0"><path d="M238.92212,209.68101c-14.45729,-0.67186 -29.08585,-10.18892 -37.96885,-18.08849c-6.52794,-5.80524 -6.68199,-17.65428 -6.68199,-17.65428c0,0 3.60794,9.62913 8.1849,11.61199c1.49332,0.64695 4.51364,2.42498 4.51364,2.42498c0,0 3.49249,-0.85246 5.40251,-0.76556c0.65038,0.0296 2.03358,2.10762 2.03358,2.10762c0,0 2.18656,-1.41046 3.28778,-1.40414c6.57551,0.03779 14.07365,0.7825 22.18614,1.1595c6.22412,0.28924 5.35832,20.9019 -0.95771,20.60838z"/><path d="M237.87642,209.63242c-6.31603,-0.29352 -5.2664,-20.89763 0.95772,-20.60839c8.11248,0.377 15.64736,0.33091 22.19806,0.90312c1.09708,0.09584 3.14339,1.70299 3.14339,1.70299c0,0 1.56999,-1.94079 2.22028,-1.90992c1.90983,0.0906 5.30822,1.2633 5.30822,1.2633c0,0 3.1722,-1.49025 4.71909,-1.99591c4.74115,-1.54985 9.22657,-10.80283 9.22657,-10.80283c0,0 -1.25231,11.78369 -8.29053,16.95848c-9.57736,7.04168 -25.02552,15.16101 -39.4828,14.48916z"/></g><path d="M220.84915,188.24123c0,0 -4.10359,3.39193 -5.6967,9.72698c-1.5931,6.33504 1.78116,9.86637 1.78116,9.86637c0,0 -7.79257,-5.07523 -12.07469,-11.315c-3.26588,-4.75894 -3.31543,-10.97221 -3.23981,-11.54233c0.66679,0.56547 2.03619,1.58028 2.60368,1.32168c0,0 1.07519,1.06528 2.56171,1.45135c1.14587,0.29758 4.24339,-0.86472 5.49219,-0.41115c0.67754,0.24609 1.03423,0.66646 1.55043,1.05592c0.33598,0.25348 0.25103,0.83346 0.56205,0.90062c0.35387,0.0764 2.62828,-1.33503 3.00915,-1.28392c1.69406,0.22731 3.45078,0.22947 3.45078,0.22947z" fill="#ffffff" stroke="#ff0000" stroke-width="0"/><path d="M261.31701,190.05277c0.38398,-0.01558 2.51769,1.60072 2.87712,1.55747c0.3159,-0.038 0.28512,-0.62339 0.64315,-0.84461c0.55009,-0.3399 0.94423,-0.72539 1.64168,-0.90758c1.28547,-0.33579 4.26186,1.10879 5.4304,0.91876c1.51593,-0.24653 2.68528,-1.20751 2.68528,-1.20751c0.54108,0.31012 1.99865,-0.57333 2.71504,-1.07453c0.02242,0.57466 -0.60314,6.75655 -4.29632,11.19212c-4.84236,5.81573 -13.07205,10.14638 -13.07205,10.14638c0,0 3.68723,-3.20317 2.68854,-9.65867c-0.99869,-6.45549 -4.77003,-10.21338 -4.77003,-10.21338c0,0 1.74934,0.16077 3.45719,0.09155z" fill="#ffffff" stroke="#ff0000" stroke-width="0"/><g fill="none" stroke="#2b2b2b" stroke-width="0.5"><path d="M238.88705,209.67939v-0.00002c-14.45729,-0.67186 -29.08586,-10.18893 -37.96886,-18.0885c-6.52794,-5.80524 -6.68199,-17.65428 -6.68199,-17.65428c0,0 3.60795,9.62912 8.18491,11.61198c1.49332,0.64695 4.51364,2.42498 4.51364,2.42498c0,0 3.49249,-0.85245 5.40251,-0.76555c0.65038,0.0296 2.03358,2.1076 2.03358,2.1076c0,0 2.18657,-1.41044 3.28779,-1.40412c6.57551,0.03779 14.07365,0.78249 22.18614,1.1595"/><path d="M238.79907,189.02242c8.11248,0.377 15.64736,0.33091 22.19805,0.90313c1.09708,0.09584 3.14339,1.70299 3.14339,1.70299c0,0 1.56999,-1.94079 2.22028,-1.90993c1.90983,0.0906 5.30822,1.26331 5.30822,1.26331c0,0 3.17221,-1.49025 4.71909,-1.99591c4.74115,-1.54985 9.22657,-10.80284 9.22657,-10.80284c0,0 -1.25231,11.7837 -8.29052,16.95849c-9.57736,7.04168 -25.02552,15.16101 -39.4828,14.48916l-0.00003,0.00001"/></g><path d="M215.15245,197.96822c-1.5931,6.33504 1.78116,9.86637 1.78116,9.86637c0,0 -7.79257,-5.07523 -12.07469,-11.315c-1.07786,-1.57064 -1.8054,-3.29967 -2.29371,-4.93198c3.11551,0.70508 8.23487,1.40711 9.26631,1.54757c1.62055,0.22072 3.24224,0.45419 4.86257,0.68143c-0.60069,1.19951 -1.14787,2.58562 -1.54166,4.15157z" fill="#ffffff" stroke="#ff0000" stroke-width="0"/><path d="M261.47981,195.89793c1.63441,-0.07597 3.27079,-0.15807 4.90482,-0.22753c1.04003,-0.04421 6.20244,-0.26841 9.3699,-0.6815c-0.63759,1.57998 -1.52234,3.23409 -2.74123,4.69798c-4.84236,5.81573 -13.07206,10.14638 -13.07206,10.14638c0,0 3.68723,-3.20318 2.68854,-9.65868c-0.24685,-1.59572 -0.66315,-3.0266 -1.15,-4.27666z" fill="#ffffff" stroke="#ff0000" stroke-width="0"/><g stroke-width="0"><g stroke="#000000"><path d="M272.03697,115.87283c-0.08962,1.92851 -6.44178,3.20006 -29.20475,2.14222c-22.76297,-1.05785 -29.31762,-2.92919 -29.228,-4.8577c0.08962,-1.92851 6.78962,-3.1839 29.55255,-2.12605c22.76297,1.05785 28.96982,2.91303 28.8802,4.84154z" fill="#252525"/><path d="M242.80902,111.01513c22.76297,1.05785 29.31764,2.92919 29.22802,4.8577c-0.08962,1.92851 -6.78963,3.1839 -29.55257,2.12606c-22.76297,-1.05785 -28.96982,-2.91304 -28.8802,-4.84155c0.08962,-1.92851 6.44179,-3.20005 29.20475,-2.14221z" fill="#222222"/></g><path d="M213.6034,113.17718l0.3264,-7.02344l58.43277,2.71549l-0.32639,7.02344z" fill="#222222" stroke="#000000"/><g fill="#202020" stroke="#000000"><path d="M272.36244,108.86923c-0.08962,1.92851 -6.44178,3.20006 -29.20475,2.14221c-22.76297,-1.05785 -29.31763,-2.92919 -29.22801,-4.8577c0.08962,-1.92851 6.78962,-3.1839 29.55255,-2.12605c22.76297,1.05785 28.96983,2.91303 28.8802,4.84154z"/><path d="M243.13449,104.01155c22.76296,1.05785 29.31764,2.92918 29.22802,4.85769c-0.08962,1.92851 -6.78963,3.18389 -29.55257,2.12605c-22.76297,-1.05785 -28.96983,-2.91303 -28.88021,-4.84154c0.08962,-1.92851 6.44179,-3.20004 29.20476,-2.1422z"/></g><g fill="#222222" stroke="#000000"><path d="M263.4505,107.77088c-0.05797,1.24739 -9.18131,1.83677 -20.37756,1.31646c-11.19623,-0.52031 -20.22558,-1.95331 -20.16761,-3.20068c0.05797,-1.24739 9.18129,-1.83679 20.37754,-1.31648c11.19623,0.52031 20.22561,1.95331 20.16763,3.2007z"/><path d="M222.90533,105.88666c0,0 0.9714,-12.21559 0.17015,-18.42819c-0.77951,-6.04408 -4.91415,-18.35578 -4.91415,-18.35578l26.52133,1.2325l18.76787,37.43571z"/><path d="M222.90533,105.88666l22.15892,-35.53375l26.52133,1.2325c0,0 -5.25867,11.87516 -6.59536,17.82091c-1.37396,6.11151 -1.53969,18.36456 -1.53969,18.36456z"/></g><path d="M271.58546,71.5854c-0.14269,3.07046 -12.21779,5.00382 -26.97048,4.31823c-14.75269,-0.68559 -26.59644,-3.73047 -26.45374,-6.80097c0.14269,-3.07046 12.21779,-5.0038 26.97048,-4.31821c14.75269,0.68559 26.59644,3.73046 26.45375,6.80094z" fill="#202020" stroke="#000000"/><g fill="#770000"><g><g stroke="#000000"><path d="M263.86485,108.59939c-0.03724,0.8014 -9.3461,1.01988 -20.79192,0.48797c-11.44581,-0.53191 -20.69431,-1.61277 -20.65707,-2.41419c0.03725,-0.8014 9.34611,-1.01988 20.79193,-0.48797c11.44581,0.53191 20.6943,1.61278 20.65705,2.41419z"/><path d="M222.41588,106.67316c0,0 0.77711,-7.84108 -0.15075,-11.85171c-0.90268,-3.90184 41.59976,13.77795 41.59976,13.77795z"/><path d="M222.41588,106.67316c0,0 43.95896,-13.66175 42.69831,-9.86044c-1.29582,3.9073 -1.24932,11.78667 -1.24932,11.78667z"/></g><path d="M243.3838,102.39799c-11.84346,-0.55039 -19.95973,-7.53479 -19.94045,-7.94959c0.01927,-0.4148 8.37343,1.45084 20.21689,2.00123c11.84346,0.55039 11.56702,6.49874 -0.27644,5.94835z" stroke="#2b2b2b"/></g><g><g stroke="#000000"><path d="M243.2078,106.18518c11.44582,0.53191 20.6943,1.61278 20.65705,2.41419c-0.03724,0.8014 -9.34612,1.01989 -20.79193,0.48797c-11.44582,-0.53191 -20.6943,-1.61278 -20.65705,-2.41419c0.03725,-0.8014 9.34612,-1.01989 20.79193,-0.48797z"/><path d="M222.41588,106.67316c0,0 43.95898,-13.66175 42.69831,-9.86044c-1.29582,3.9073 -1.2493,11.78665 -1.2493,11.78665z"/><path d="M222.4159,106.67317c0,0 0.7771,-7.8411 -0.15077,-11.85173c-0.90268,-3.90184 41.59976,13.77795 41.59976,13.77795z"/></g><path d="M243.66023,96.44964c11.84346,0.55039 20.33465,-0.53241 20.31537,-0.11761c-0.01927,0.4148 -8.74835,6.61637 -20.59181,6.06598c-11.84346,-0.55039 -11.56702,-6.49874 0.27644,-5.94835z" stroke="#2b2b2b"/></g></g></g><path d="M223.76788,222.87297l-0.50516,-2.41943l36.73134,-7.66917l0.50516,2.41943c0,0 -11.53306,6.99874 -17.58468,8.26226c-6.18908,1.29223 -19.14668,-0.59309 -19.14668,-0.59309z" fill="url(#color-1)" stroke="#2b2b2b" stroke-width="0"/><path d="M227.3093,250.10173c2.16598,10.37391 5.51376,30.49952 6.83356,47.9581c1.25592,16.61349 18.64998,72.00987 13.46731,73.09196c-1.94533,0.40617 -30.11808,3.50143 -35.55399,-8.8127c-4.38432,-9.93196 -1.00703,-46.77141 -5.48576,-56.66114c-8.34921,-18.43637 -18.73045,-40.31582 -20.32619,-47.9586c-4.22711,-20.24568 25.4105,-38.26311 36.03948,-40.48235c0.85972,-0.1795 -4.70119,3.89122 -3.99697,8.40028c0.95523,6.11635 6.88547,14.22895 9.02255,24.46445z" fill="#770000" stroke="#2b2b2b" stroke-width="0"/><g><g fill="#1c1c1c" stroke="#000000" stroke-width="0"><path d="M394.53762,88.05463c-2.29001,-0.76562 -2.94239,-4.98756 -1.45714,-9.43c1.48523,-4.44241 4.5457,-7.42307 6.83569,-6.65745c2.29001,0.76562 2.9424,4.98757 1.45715,9.43001c-1.48523,4.44241 -4.54569,7.42306 -6.8357,6.65744z"/><g><path d="M399.64753,71.8643l47.26705,11.64531l-5.05971,15.1338l-46.01679,-15.38488z"/><path d="M398.07056,76.58106l46.0168,15.38488l-5.05972,15.13381l-44.76653,-19.12445z"/></g></g><g><path d="M432.72886,87.52134c2.16537,0.72396 3.33387,3.06623 2.60992,5.23159c-0.72395,2.16537 -3.06622,3.33387 -5.23158,2.60992c-2.16537,-0.72396 -3.33387,-3.06622 -2.60992,-5.23158c0.72395,-2.16537 3.06622,-3.33388 5.23158,-2.60993z" fill="#1a1a1a" stroke="#2b2b2b" stroke-width="0"/><path d="M432.53363,88.10529c1.84287,0.61612 2.83733,2.60956 2.22121,4.45243c-0.61613,1.84287 -2.60955,2.83734 -4.45242,2.22121c-1.84287,-0.61612 -2.83734,-2.60956 -2.22121,-4.45243c0.61613,-1.84287 2.60956,-2.83734 4.45243,-2.22122z" fill="#cba600" stroke="#2b2b2b" stroke-width="0"/><path d="M432.47784,88.27213c1.75073,0.58532 2.69548,2.47908 2.11015,4.22981c-0.58533,1.75073 -2.47908,2.69548 -4.2298,2.11016c-1.75073,-0.58532 -2.69547,-2.47908 -2.11015,-4.22981c0.58533,-1.75073 2.47908,-2.69548 4.2298,-2.11016z" fill="#ddb400" stroke="#2b2b2b" stroke-width="0"/><text transform="translate(429.82471,88.96923) rotate(108.48573) scale(0.157,0.157)" font-size="40" xml:space="preserve" fill="#cda800" stroke="none" stroke-width="1" font-family="&quot;I KNOW A GHOST&quot;, Handwriting" font-weight="normal" text-anchor="start"><tspan x="0" dy="0">T</tspan></text></g><g stroke="#000000" stroke-width="0"><path d="M443.62607,80.38683l5.72774,1.91497l-9.10382,27.2299l-5.72775,-1.91497z" fill="#212121"/><path d="M434.52223,107.61675c-1.22578,-0.40982 -0.18154,-6.83767 2.33241,-14.35699c2.51396,-7.51934 5.54562,-13.28272 6.77141,-12.87291c1.22578,0.40982 0.18155,6.83767 -2.3324,14.35701c-2.51396,7.51934 -5.54563,13.28271 -6.77142,12.87289z" fill="#212121"/><path d="M440.24998,109.53173c-1.22579,-0.40982 -0.18154,-6.83767 2.33241,-14.35699c2.51396,-7.51934 5.54562,-13.28272 6.77141,-12.87291c1.22579,0.40982 0.18154,6.83767 -2.33242,14.35701c-2.51396,7.51934 -5.54562,13.28271 -6.77141,12.87289z" fill="#1c1c1c"/></g><g stroke="#000000" stroke-width="0"><g><path d="M462.03348,84.83719c8.36573,2.79694 12.88013,11.84606 10.0832,20.21179c-2.79694,8.36573 -11.84605,12.88013 -20.21178,10.0832c-8.36573,-2.79694 -11.23813,-11.29707 -8.44119,-19.6628c2.79694,-8.36573 10.20406,-13.42912 18.56977,-10.63219z" fill="#727272"/><path d="M461.86658,87.79353c7.14148,2.38763 10.99523,10.11249 8.60761,17.25395c-2.38763,7.14148 -10.1125,10.99523 -17.25396,8.60761c-7.14148,-2.38762 -10.99523,-10.1125 -8.6076,-17.25396c2.38763,-7.14147 10.11249,-10.99522 17.25395,-8.6076z" fill="#6c6c6c"/></g><g fill="#7e7e7e"><path d="M460.48226,83.89261l2.0224,0.67615l-10.38476,31.06124l-2.02241,-0.67615z"/><path d="M450.09749,114.95384c-0.43281,-0.1447 1.54103,-7.21529 4.40871,-15.79263c2.86768,-8.57734 5.54325,-15.41332 5.97607,-15.26862c0.43281,0.1447 -1.54101,7.2153 -4.40869,15.79264c-2.86768,8.57734 -5.54325,15.41332 -5.97608,15.26861z"/><path d="M452.11988,115.62999c-0.43281,-0.1447 1.54102,-7.2153 4.4087,-15.79264c2.86768,-8.57734 5.54325,-15.41332 5.97607,-15.26862c0.43281,0.1447 -2.18204,7.001 -5.04972,15.57833c-2.86768,8.57734 -4.90222,15.62763 -5.33505,15.48292z"/></g></g></g><path d="M261.58161,180.62057c-10.18362,-0.47325 -15.14085,-8.87975 -14.63756,-19.70963c0.50329,-10.82989 4.87945,-21.39521 15.06306,-20.92195c10.18362,0.47325 19.61793,11.16186 19.11464,21.99174c-0.50329,10.82989 -9.35654,19.11308 -19.54018,18.63983z" fill="#ffffff" stroke="#000000" stroke-width="0"/><path d="M218.00982,178.59568c-10.18364,-0.47325 -18.23052,-9.54183 -17.72723,-20.37172c0.50329,-10.82988 10.88823,-20.59743 21.07185,-20.12418c10.18362,0.47325 13.56105,11.39888 13.05776,22.22879c-0.50329,10.82988 -6.21879,18.74039 -16.40241,18.26713z" fill="#ffffff" stroke="#000000" stroke-width="0"/><g fill="#262626" stroke="#000000" stroke-width="0"><path d="M252.8096,178.8816c-0.16383,3.5253 -6.09554,6.11364 -13.24882,5.78122c-7.15329,-0.33243 -12.81937,-3.45974 -12.65555,-6.98504c0.16383,-3.5253 6.09554,-6.11365 13.24884,-5.78123c7.1533,0.33243 12.81939,3.45974 12.65556,6.98505z"/><path d="M248.92742,181.43492c-0.10818,2.32799 -4.42917,6.51463 -9.50842,6.27859c-5.07925,-0.23604 -8.99332,-4.8054 -8.88514,-7.13337c0.10818,-2.32799 4.31342,-4.02385 9.39267,-3.7878c5.07925,0.23604 9.10908,2.31459 9.00089,4.64258z"/></g><g stroke="#2b2b2b" stroke-width="0"><path d="M412.99847,64.3638c1.11995,0.48684 1.63318,1.78943 1.14634,2.90939c-0.48684,1.11995 -1.78942,1.63319 -2.90937,1.14635c-1.11995,-0.48684 -1.63319,-1.78942 -1.14635,-2.90937c0.48684,-1.11995 1.78942,-1.63321 2.90938,-1.14637z" fill="#4e4e4e"/><path d="M407.72009,76.50638c1.11995,0.48684 1.63318,1.78942 1.14634,2.90937c-0.48684,1.11995 -1.78942,1.63319 -2.90937,1.14635c-1.11995,-0.48684 -1.63318,-1.78942 -1.14634,-2.90937c0.48684,-1.11995 1.78941,-1.6332 2.90937,-1.14635z" fill="#4e4e4e"/><path d="M400.43502,93.26521c-2.23356,-0.97093 -3.80551,-2.30718 -0.80025,-9.22057c3.00527,-6.91341 4.94998,-6.43472 7.18355,-5.46379c2.23356,0.97093 3.91015,2.06645 0.90489,8.97985c-3.00527,6.91342 -5.05463,6.67544 -7.28819,5.70452z" fill="#262626"/><path d="M413.31529,74.69661c-3.00527,6.91342 -4.12593,4.53899 -6.35949,3.56807c-2.23356,-0.97092 -4.73423,-0.17073 -1.72897,-7.08412c3.00527,-6.91341 5.05464,-6.67544 7.28819,-5.70452c2.23356,0.97092 3.80552,2.30717 0.80026,9.22057z" fill="#262626"/></g><g stroke="#2b2b2b" stroke-width="0"><path d="M421.83542,66.67313c1.11995,0.48684 1.63318,1.78942 1.14634,2.90937c-0.48684,1.11995 -1.78942,1.63319 -2.90937,1.14635c-1.11995,-0.48684 -1.63319,-1.78942 -1.14635,-2.90937c0.48684,-1.11995 1.78942,-1.63321 2.90938,-1.14635z" fill="#4e4e4e"/><path d="M416.55703,78.8157c1.11995,0.48684 1.63319,1.78942 1.14635,2.90937c-0.48684,1.11995 -1.78942,1.63319 -2.90937,1.14635c-1.11995,-0.48684 -1.63319,-1.78942 -1.14635,-2.90937c0.48684,-1.11995 1.78942,-1.63319 2.90937,-1.14635z" fill="#4e4e4e"/><path d="M409.27196,95.57453c-2.23356,-0.97092 -3.8055,-2.30718 -0.80024,-9.22057c3.00527,-6.91341 4.94999,-6.43473 7.18355,-5.4638c2.23356,0.97092 3.91016,2.06644 0.9049,8.97986c-3.00527,6.91342 -5.05464,6.67545 -7.2882,5.70452z" fill="#262626"/><path d="M422.1522,77.00592c-3.00527,6.91342 -4.12592,4.53899 -6.35948,3.56807c-2.23356,-0.97092 -4.73423,-0.1707 -1.72896,-7.08412c3.00527,-6.91341 5.05463,-6.67544 7.28819,-5.70452c2.23356,0.97092 3.80552,2.30718 0.80025,9.22057z" fill="#262626"/></g><g stroke="#2b2b2b" stroke-width="0"><path d="M430.6379,68.79068c1.11995,0.48684 1.63319,1.78943 1.14635,2.90938c-0.48684,1.11995 -1.78942,1.63318 -2.90938,1.14634c-1.11995,-0.48684 -1.63318,-1.78942 -1.14634,-2.90937c0.48684,-1.11995 1.78941,-1.6332 2.90937,-1.14635z" fill="#4e4e4e"/><path d="M425.35951,80.93327c1.11995,0.48684 1.63319,1.78942 1.14635,2.90937c-0.48684,1.11995 -1.78942,1.63319 -2.90938,1.14635c-1.11995,-0.48684 -1.63318,-1.78942 -1.14634,-2.90937c0.48684,-1.11995 1.78942,-1.63319 2.90937,-1.14635z" fill="#4e4e4e"/><path d="M418.07445,97.69208c-2.23356,-0.97092 -3.80552,-2.30717 -0.80026,-9.22057c3.00527,-6.91341 4.95,-6.43473 7.18356,-5.4638c2.23356,0.97092 3.91015,2.06646 0.90489,8.97986c-3.00527,6.91342 -5.05464,6.67544 -7.28819,5.70452z" fill="#262626"/><path d="M430.95459,79.12345c-3.00527,6.91342 -4.12592,4.53899 -6.35948,3.56807c-2.23356,-0.97092 -4.73423,-0.17073 -1.72897,-7.08412c3.00527,-6.91341 5.05464,-6.67544 7.2882,-5.70452c2.23356,0.97092 3.80551,2.30718 0.80025,9.22057z" fill="#262626"/></g><g stroke="#2b2b2b" stroke-width="0"><path d="M437.71234,75.12851c1.11995,0.48684 1.6332,1.78941 1.14635,2.90937c-0.48684,1.11995 -1.78942,1.63319 -2.90937,1.14635c-1.11995,-0.48684 -1.63319,-1.78942 -1.14635,-2.90937c0.48684,-1.11995 1.78942,-1.63319 2.90937,-1.14635z" fill="#4e4e4e"/><path d="M432.43395,87.2711c1.11995,0.48684 1.63318,1.78942 1.14634,2.90937c-0.48684,1.11995 -1.78942,1.63318 -2.90937,1.14634c-1.11995,-0.48684 -1.63318,-1.78942 -1.14634,-2.90937c0.48684,-1.11995 1.78942,-1.63318 2.90937,-1.14634z" fill="#4e4e4e"/><path d="M425.14889,104.02991c-2.23356,-0.97092 -3.80551,-2.30718 -0.80025,-9.22057c3.00527,-6.91341 4.95,-6.43473 7.18355,-5.46381c2.23356,0.97092 3.91015,2.06646 0.90489,8.97986c-3.00527,6.91342 -5.05464,6.67544 -7.28819,5.70452z" fill="#262626"/><path d="M438.02912,85.46134c-3.00527,6.91342 -4.12592,4.53899 -6.35948,3.56807c-2.23356,-0.97092 -4.73423,-0.17073 -1.72897,-7.08412c3.00527,-6.91341 5.05465,-6.67546 7.28821,-5.70453c2.23356,0.97092 3.8055,2.30717 0.80024,9.22059z" fill="#262626"/></g><g stroke="#2b2b2b" stroke-width="0"><path d="M401.89841,92.95969c-0.14121,1.29791 -1.30783,2.2356 -2.60575,2.09441c-1.29791,-0.14121 -2.23562,-1.30783 -2.09441,-2.60574c0.14121,-1.29791 1.30785,-2.23561 2.60577,-2.09439c1.29791,0.14121 2.2356,1.30784 2.09439,2.60575z" fill="#4e4e4e"/><path d="M420.52452,94.98615c-0.14121,1.29791 -1.30783,2.23561 -2.60575,2.09442c-1.29791,-0.14121 -2.23561,-1.30785 -2.0944,-2.60576c0.14121,-1.29791 1.30783,-2.2356 2.60576,-2.09439c1.29791,0.14121 2.2356,1.30783 2.0944,2.60574z" fill="#4e4e4e"/><path d="M398.78361,92.62087c0.28161,-2.58847 1.28724,-4.60226 11.07346,-3.53756c9.78623,1.0647 9.99453,3.21055 9.71292,5.79903c-0.28161,2.58847 -0.94649,4.63934 -10.73272,3.57464c-9.78623,-1.0647 -10.33527,-3.24764 -10.05365,-5.83611z" fill="#262626"/></g></g></g></svg>