<svg version="1.1" xmlns="http://www.w3.org/2000/svg" xmlns:xlink="http://www.w3.org/1999/xlink" width="777.77778" height="427.74842" viewBox="0,0,777.77778,427.74842"><defs><linearGradient x1="-26.49166" y1="181.14646" x2="138.47964" y2="181.14646" gradientUnits="userSpaceOnUse" id="color-1"><stop offset="0" stop-color="#000000"/><stop offset="1" stop-color="#000000" stop-opacity="0"/></linearGradient><linearGradient x1="748.88889" y1="177.63219" x2="583.9176" y2="177.63219" gradientUnits="userSpaceOnUse" id="color-2"><stop offset="0" stop-color="#000000"/><stop offset="1" stop-color="#000000" stop-opacity="0"/></linearGradient><linearGradient x1="360.26181" y1="-33.61388" x2="360.26181" y2="104.67877" gradientUnits="userSpaceOnUse" id="color-3"><stop offset="0" stop-color="#000000"/><stop offset="1" stop-color="#000000" stop-opacity="0"/></linearGradient><linearGradient x1="359.22991" y1="393.87422" x2="359.22991" y2="255.58157" gradientUnits="userSpaceOnUse" id="color-4"><stop offset="0" stop-color="#000000"/><stop offset="1" stop-color="#000000" stop-opacity="0"/></linearGradient></defs><g transform="translate(28.88889,33.87421)"><g stroke-miterlimit="10"><g><path d="M0,153v-160.3741h720v160.3741z" fill="#0d1628" stroke="#000000" stroke-width="0" stroke-linecap="butt"/><path d="M0,360.00001v-160.3741h720v160.3741z" fill="#0d1628" stroke="#000000" stroke-width="0" stroke-linecap="butt"/><path d="M155.93393,244.00001v-128h408.13213v128z" fill="#000000" stroke="#000000" stroke-width="0" stroke-linecap="butt"/><path d="M0,360.00001v-360c0,0 103.57855,76.76523 153.74087,96.49007c48.08296,18.9072 141.25913,19.50993 141.25913,19.50993l1,128.5c0,0 -98.32945,-0.67062 -147.59512,18.55298c-49.40063,19.27626 -148.40488,96.94702 -148.40488,96.94702z" fill="#192c4f" stroke="none" stroke-width="0" stroke-linecap="butt"/><path d="M720,0.00001v360c0,0 -96.65721,-74.04362 -145.48316,-93.24297c-49.4982,-19.4637 -149.51684,-22.75703 -149.51684,-22.75703l-1,-128.5c0,0 123.66866,-12.21981 176.81394,-32.95724c43.63341,-17.02587 119.18606,-82.54276 119.18606,-82.54276z" fill="#192c4f" stroke="none" stroke-width="0" stroke-linecap="butt"/><g fill="none" stroke="#424242" stroke-width="4" stroke-linecap="round"><path d="M328.39322,243.50675c0,0 5.16393,-108.49593 8.42735,-124.89481c0.75101,-3.77386 1.38575,-3.39526 1.38575,0.72824c0,14.14184 0,95.12801 0,121.41952c0,5.18361 0.84835,3.70102 1.781,-1.29028c2.74299,-14.67975 4.03039,-87.67646 9.33519,-116.06631c1.3004,-6.95939 2.09376,-6.76772 2.09376,-1.86529c0,18.14951 -1.13228,121.41952 -1.13228,121.41952"/><path d="M350.56609,243.50676c0,0 5.16393,-108.49592 8.42735,-124.89481c0.75101,-3.77385 1.38575,-3.39526 1.38575,0.72824c0,14.14184 0,95.12801 0,121.41952c0,5.18361 0.84835,3.70102 1.781,-1.29028c2.74299,-14.67975 4.03039,-87.67645 9.33519,-116.0663c1.3004,-6.9594 2.09377,-6.76772 2.09377,-1.8653c0,18.14951 -1.13229,121.41952 -1.13229,121.41952"/><path d="M373.84762,243.50675c0,0 5.16393,-108.49592 8.42735,-124.89481c0.75101,-3.77385 1.38575,-3.39526 1.38575,0.72824c0,14.14184 0,95.12801 0,121.41952c0,5.18361 0.84835,3.70102 1.781,-1.29028c2.74299,-14.67975 4.03039,-87.67645 9.33519,-116.0663c1.3004,-6.9594 2.09377,-6.76772 2.09377,-1.8653c0,18.14951 -1.13229,121.41952 -1.13229,121.41952"/><path d="M396.0205,243.50676c0,0 5.16393,-108.49592 8.42735,-124.89481c0.75101,-3.77385 1.38575,-3.39526 1.38575,0.72824c0,14.14184 0,95.12801 0,121.41952c0,5.18361 0.84835,3.70102 1.781,-1.29028c2.74299,-14.67975 4.03039,-87.67645 9.33519,-116.0663c1.3004,-6.9594 2.09377,-6.76772 2.09377,-1.8653c0,18.14951 -1.13229,121.41952 -1.13229,121.41952"/></g><path d="M433.25,219.40647c0,0 -52.87953,-7.20046 -77.84617,-21.20202c-24.35134,-13.65649 -70.15383,-61.79798 -70.15383,-61.79798" fill="none" stroke="#b7c72b" stroke-width="10" stroke-linecap="round"/><path d="M434.91667,160.07314c0,0 -48.44831,23.68956 -73.2007,26.99361c-24.35219,3.25063 -74.13263,-7.32694 -74.13263,-7.32694" fill="none" stroke="#b7c72b" stroke-width="10" stroke-linecap="round"/></g><g><path d="M341.46068,236.27877c0,0 2.5889,-3.92048 3.94618,-4.70264c1.44655,-0.83361 4.48239,-0.15451 4.48239,-0.15451" fill="none" stroke="#0a0a0a" stroke-width="7.5" stroke-linecap="round"/><path d="M370.1249,231.27877c0,0 3.03583,-0.67911 4.48239,0.1545c1.35728,0.78216 3.94618,4.70264 3.94618,4.70264" fill="none" stroke="#0a0a0a" stroke-width="7.5" stroke-linecap="round"/><path d="M335.20018,237.00426c2.51425,-5.16937 12.18979,-2.90752 12.332,4.11807c0.05701,2.81651 0.02612,5.76205 0.02612,8.48745c0,9.52371 -15.625,9.52371 -15.625,0c0,-4.09988 1.36635,-8.69798 3.26688,-12.60552z" fill="#3c0000" stroke="none" stroke-width="0" stroke-linecap="butt"/><path d="M342.85,218.47606c0,-9.71329 7.87417,-17.58747 17.58746,-17.58747c9.71329,0 17.58746,7.87418 17.58746,17.58747c0,4.70419 -9.01776,12.50229 -17.52706,12.64996c-9.06084,0.15724 -17.64786,-7.64086 -17.64786,-12.64996z" fill="#191919" stroke="none" stroke-width="0" stroke-linecap="butt"/><path d="M388.0667,248.8627c0,9.52371 -15.625,9.52371 -15.625,0c0,-2.72539 -0.03089,-5.67094 0.02612,-8.48745c0.14222,-7.02559 9.81776,-9.28744 12.332,-4.11807c1.90053,3.90754 3.26688,8.50563 3.26688,12.60552z" fill="#3c0000" stroke="none" stroke-width="0" stroke-linecap="butt"/><path d="M345.67495,238.41448c0,-10.43818 4.86182,-18.1 15.3,-18.1c10.43818,0 14.3,8.46182 14.3,18.9c0,6.87592 -3.17572,10.89424 -7.30309,14.20121c-2.13831,1.71327 -3.43464,4.6988 -6.99691,4.6988c-3.60776,0 -5.92436,-3.98143 -8.22931,-5.86043c-4.36386,-3.55744 -7.07069,-7.00914 -7.07069,-13.83957z" fill="#4b0000" stroke="none" stroke-width="0" stroke-linecap="butt"/><path d="M342.14163,217.93948c0,-2.84471 -1.85278,-4.027 0.47984,-5.02915c0.38002,-0.16326 0.95203,-1.19414 1.6286,-1.3527c1.13541,-0.26609 3.06529,0.27623 4.37644,0.15094c1.49544,-0.1429 2.33643,-0.96624 2.90987,-1.55538c0.90357,-0.9283 2.8291,-2.49227 3.70204,-4.38311c0.53033,-1.14871 0.59341,-2.78151 0.78939,-3.8753c0.14895,-0.8313 0.42745,-1.19289 0.73922,-1.7149c1.0917,-1.82789 1.44805,-0.57373 3.70794,-0.57373c10.12522,0 18.33333,8.20811 18.33333,18.33334c0,4.90369 -9.4002,13.0325 -18.27037,13.18643c-9.4451,0.16391 -18.3963,-7.9649 -18.3963,-13.18643z" fill="#780000" stroke="none" stroke-width="0" stroke-linecap="butt"/><g stroke="none" stroke-width="0" stroke-linecap="butt"><path d="M334.6196,263.59722c-2.45738,-7.21833 -0.63457,-14.92671 4.07137,-17.21713c4.70594,-2.29043 16.49249,-0.3627 18.94987,6.85564c2.45738,7.21833 -20.56386,17.57984 -23.02124,10.36149z" fill="#3c0000"/><path d="M334.8336,263.59722c-2.93826,-7.21833 -0.75874,-14.9267 4.86808,-17.21713c5.62682,-2.29043 12.5702,1.70443 15.50846,8.92276c2.93826,7.21833 -17.43828,15.5127 -20.37654,8.29437z" fill="#780000"/></g><g stroke="none" stroke-width="0" stroke-linecap="butt"><path d="M360.95915,253.23576c2.45738,-7.21834 14.24393,-9.14606 18.94986,-6.85564c4.70594,2.29042 6.52875,9.99881 4.07137,17.21714c-2.45738,7.21834 -25.47861,-3.14317 -23.02123,-10.3615z" fill="#3c0000"/><path d="M363.38976,255.30289c2.93826,-7.21833 9.88164,-11.21319 15.50846,-8.92276c5.62682,2.29043 7.80634,9.9988 4.86808,17.21714c-2.93826,7.21834 -23.3148,-1.07604 -20.37654,-8.29438z" fill="#780000"/></g><g stroke="none" stroke-linecap="butt"><g><g><path d="M344.40973,218.53689c0,-3.45178 2.79822,-6.25 6.25,-6.25c3.45178,0 6.25,2.79822 6.25,6.25c0,3.45178 -2.79822,6.25 -6.25,6.25c-3.45178,0 -6.25,-2.79822 -6.25,-6.25z" fill="#000000" stroke-width="0"/><g fill="none" stroke-width="1" font-family="sans-serif" font-weight="normal" font-size="12" text-anchor="start"/></g><text transform="translate(346.46023,222.80925) scale(0.3703,0.3703)" font-size="40" xml:space="preserve" fill="#d2d2d2" stroke-width="1" font-family="Handwriting" font-weight="normal" text-anchor="start"><tspan x="0" dy="0">x</tspan></text></g><g><g><path d="M370.21523,225.05353c-3.45178,0 -6.25,-2.79822 -6.25,-6.25c0,-3.45178 2.79822,-6.25 6.25,-6.25c3.45178,0 6.25,2.79822 6.25,6.25c0,3.45178 -2.79822,6.25 -6.25,6.25z" fill="#000000" stroke-width="0"/><g fill="none" stroke-width="1" font-family="sans-serif" font-weight="normal" font-size="12" text-anchor="start"/></g><text transform="translate(374.41478,223.07589) rotate(-180) scale(0.3703,-0.3703)" font-size="40" xml:space="preserve" fill="#d2d2d2" stroke-width="1" font-family="Handwriting" font-weight="normal" text-anchor="start"><tspan x="0" dy="0">x</tspan></text></g></g><path d="M375.37726,223.02575c0,0.49926 -2.42649,1.82572 -5.0081,3.35769c-1.27785,0.7583 -1.26164,1.73823 -2.75511,2.38348c-0.90217,0.38978 -2.20252,0.04143 -3.57099,0.23145c-1.35264,0.18783 -2.77184,0.91627 -3.93887,0.91627c-1.04008,0 -1.68641,2.45256 -2.65731,2.28812c-1.12863,-0.19116 -0.94198,-2.18694 -1.96805,-2.65711c-1.1962,-0.54814 -2.47194,0.02526 -3.58478,-0.59472c-0.92327,-0.51437 -1.79107,-1.7497 -2.5718,-2.3664c-1.11939,-0.88422 -1.96885,-0.92495 -2.63701,-1.52931c-0.69592,-0.62946 -1.18744,-1.80867 -1.18744,-2.02946c0,-0.53514 1.36725,-0.98857 4.16701,-0.50636c1.45216,0.25011 3.3913,1.5033 5.42465,1.92901c1.68856,0.35353 3.41389,-0.08931 5.23696,-0.08931c0.66614,0 1.50464,-0.74277 2.14905,-0.7707c3.28038,-0.14218 6.20638,0.35682 8.43919,0.133c2.76144,-0.27679 4.46261,-1.22589 4.46261,-0.69564z" fill="#000000" stroke="#e2e2e2" stroke-width="0" stroke-linecap="butt"/></g><g stroke-width="0" stroke-linecap="butt"><g fill-opacity="0.67843" fill="#000000" stroke="#000000"><path d="M-16.34512,373.95896v-403.48913h743.89439v403.48913z"/></g><g stroke="none"><path d="M-26.49166,392.65285v-423.0128h164.97129v423.0128z" fill="url(#color-1)"/><path d="M583.9176,389.13859v-423.0128h164.97129v423.0128z" fill="url(#color-2)"/><path d="M-27.857,104.67877v-138.29264h776.23763v138.29265z" fill="url(#color-3)"/><path d="M747.34873,255.58157v138.29264h-776.23762v-138.29264z" fill="url(#color-4)"/></g></g></g></g></svg>