<svg version="1.1" xmlns="http://www.w3.org/2000/svg" xmlns:xlink="http://www.w3.org/1999/xlink" width="304.85644" height="197.73518" viewBox="0,0,304.85644,197.73518"><g transform="translate(-294.37252,-54.91958)"><g stroke-miterlimit="10"><path d="M473.48703,129.45798c0.02108,-0.64174 0.58622,-1.19519 0.57882,-1.83724c0,-2.77903 0.93903,-5.45262 0.93903,-8.32523c0,0 0,-0.06327 0.03183,-0.12615c-1.74895,-1.16922 -3.84544,-2.10724 -5.24354,-2.61662c-3.16859,-0.45521 -6.56588,-0.16885 -9.78711,-0.13965c-0.05457,0.69032 -0.47283,1.13379 -0.46916,1.83416c-0.91403,2.36398 -1.78351,4.92135 -2.38674,7.47107c2.4374,2.26241 4.20911,4.48379 7.60717,5.263c3.11473,1.34354 6.24407,0.39002 8.95119,-1.43094zM456.73313,126.42576c-0.24405,-0.05424 -0.18982,-0.29828 -0.18982,-0.29828c0.01898,-0.08544 0.03827,-0.17107 0.05786,-0.25687c-0.0083,-0.00816 -0.0166,-0.01632 -0.02491,-0.02448c-0.61966,-1.89618 -4.58426,-3.11148 -5.69784,-4.8053c-0.5629,1.78882 -3.07415,3.29183 -5.00363,4.22217c-0.17844,0.31899 -0.4869,0.51643 -0.98176,0.5427h-0.2151c-0.12885,0.05502 -0.24955,0.10554 -0.36057,0.15138c-2.55137,0.01852 -4.54504,1.18936 -7.05706,0.01727c-0.93528,-0.4364 -1.3582,-1.43686 -2.22331,-1.94229c-0.74138,-0.73569 -1.85139,-1.61311 -3.05588,-2.45892c-0.02368,0.07224 -0.08348,0.16344 -0.23448,0.16344c-0.25,0 -0.25,-0.25 -0.25,-0.25c0.00068,-0.07901 0.00436,-0.15947 0.01079,-0.24115c-1.3734,-0.93622 -2.82083,-1.80434 -3.95539,-2.35971c-0.5329,-0.36283 -0.78051,-0.84483 -1.33922,-1.18032l-0.03734,-0.60095c0,0 0,-0.25 0.25,-0.25c0.06988,0 0.12023,0.01954 0.1565,0.04769c0.03627,-0.02814 0.08663,-0.04769 0.15651,-0.04769c0.25,0 0.25,0.25 0.25,0.25c-0.08542,0.15892 0.89729,0.21235 1.05339,0.103c1.62791,-1.14042 2.61277,-4.05164 4.84205,-4.39423c0.43149,-0.43697 0.93065,-0.45829 1.45321,-0.50477l-0.02343,-0.21214c0,0 0,-0.25 0.25,-0.25c0.25,0 0.25,0.25 0.25,0.25l-0.00952,0.15318c0.10359,-0.01938 0.20756,-0.04463 0.3116,-0.07899c2.20331,-0.72773 5.70643,-0.95874 7.87559,0.20235c3.04548,1.65011 5.30775,4.14011 7.72177,6.5936c0.42546,0.455 1.32664,0.54691 1.85334,0.13039c2.23319,-1.76605 3.9063,-3.18142 6.94241,-3.18142c3.40582,0 7.03773,-0.349 10.40606,0.15237c2.6352,0.94499 7.11068,3.16582 8.44772,5.75419c0.36415,0.73316 1.05735,1.27381 1.05471,2.16123c-0.0067,2.24943 -3.38542,4.54766 -5.12167,5.76996c-2.88008,2.02754 -6.33661,3.16878 -9.6939,1.70334c-3.28755,-0.7389 -5.31561,-2.91387 -7.58605,-5.17529c-0.02945,0.06776 -0.10674,0.18361 -0.28264,0.14453zM444.58002,125.3057h0.00522c0.30511,-0.13 0.6091,-0.25142 0.90872,-0.37261c0.07094,-0.17982 0.09314,-0.4046 0.0881,-0.62942c0,-2.97823 0.52689,-5.58408 0.94154,-8.4866c0,0 0.01781,-0.12462 0.11658,-0.18436c-1.18407,-1.06695 -2.44432,-2.03857 -3.88696,-2.82022c-1.56763,-0.86134 -5.48953,-1.1247 -7.95802,-0.41775l-0.0188,0.30253c-0.27897,0.13948 -0.63457,0.59695 -0.69429,0.91846c-0.63015,1.22476 -0.39353,2.84046 -0.85496,4.0598c-0.33565,0.88696 -1.03254,2.18998 -1.19585,3.3267c1.30384,0.89342 2.51808,1.83393 3.31122,2.63403c0.83016,0.48614 1.2382,1.47706 2.1277,1.88429c2.41646,1.10629 4.29135,-0.07289 6.74645,-0.0532c0.05522,-0.025 0.11045,-0.04959 0.16566,-0.07386c0.07329,-0.08777 0.19771,-0.08777 0.19771,-0.08777zM426.69253,117.46296c-0.01797,-0.01649 -0.035,-0.03352 -0.05099,-0.0511l-0.00338,0.03068c0.01855,0.00641 0.03668,0.01322 0.05437,0.02042z" fill="#ffffff" stroke="none" stroke-width="0.5"/><g fill="#ffffff" stroke="none" stroke-width="0.5"><path d="M432.09689,149.2863c0,-0.25 0.25,-0.25 0.25,-0.25h0.07468c1.16974,0 2.80014,0.27341 3.86732,-0.21883c3.71094,-0.05078 5.93944,-2.54776 8.02736,-5.26208c0.35231,-0.45703 1.4719,-2.36825 2.20002,-2.02664c1.1195,0.52523 0.4948,5.63245 0.4948,6.65376c0,3.0352 -0.10636,7.10813 -2.04888,9.58221c-2.01459,2.54657 -7.15493,1.58826 -9.39686,-0.05202c-2.5163,-1.84102 -2.8653,-4.96315 -2.87096,-8.05299c0,0 0,-0.05827 0.02813,-0.11854c-0.10307,-0.00306 -0.20357,-0.00488 -0.30093,-0.00488h-0.07468c0,0 -0.25,0 -0.25,-0.25zM433.17424,149.56012c0.02013,0.05298 0.02013,0.0996 0.02013,0.0996c-0.00585,2.92852 0.29622,5.9155 2.6662,7.64946c2.0186,1.47689 6.88341,2.47985 8.70869,0.14636c1.87052,-2.37148 1.94182,-6.36249 1.94182,-9.27303c0,-2.05698 -0.27776,-4.24379 -0.25205,-6.22502c0.00392,-0.30218 -0.3736,0.47995 -0.60179,0.67809c-0.36051,0.31304 -0.63366,0.81943 -0.94467,1.22466c-2.12234,2.75904 -4.51988,5.44479 -8.3145,5.44516c-0.88049,0.40798 -2.1396,0.30908 -3.22383,0.25472z"/><path d="M457.43151,163.16304c0.02429,-0.07178 0.08448,-0.16067 0.23356,-0.16067c0.25,0 0.25,0.25 0.25,0.25l-0.15028,0.30393c-1.39908,0.52461 -1.85311,1.51445 -3.6846,1.51445c-2.66023,0 -5.32483,-1.37504 -7.9577,-1.79584c0,0 -0.2466,-0.0411 -0.2055,-0.2877c0.0411,-0.2466 0.28769,-0.2055 0.28769,-0.2055c2.59121,0.44694 5.26028,1.78904 7.8755,1.78904c1.1115,0 1.6685,-0.33293 2.2699,-0.73922c-1.31673,0.49284 -3.20581,0.34522 -4.15628,0.09165c-2.24737,-0.60297 -4.56673,-1.09879 -6.76607,-1.86203c-0.49147,-0.17055 -1.74216,-0.59225 -1.90303,-1.17595c-0.0523,-0.18978 0.69008,-0.92965 0.81378,-1.0965c1.83319,-2.74755 4.21052,-4.8466 4.66146,-8.16372c0.28783,-2.11729 0.31018,-4.25937 -0.03591,-6.36879c-0.00684,-0.04172 -0.01299,-0.09806 -0.0193,-0.16491c-0.27961,-0.19882 -0.52289,-0.42006 -0.68552,-0.67985c-0.59049,-0.22996 -0.37419,-0.57937 -0.23892,-1.11198l0.16023,-0.32381c0,0 0.1118,-0.2236 0.33541,-0.1118c0.13224,0.06612 0.14717,0.17135 0.13729,0.2463c0.6189,0.20865 0.68285,1.00432 0.75525,1.67984c0.49626,0.32502 1.06513,0.59151 1.51985,0.90204c1.85832,1.26904 3.37867,2.92988 5.33463,4.08465c0.92266,0.54567 2.86332,1.41518 3.13495,2.57093c0.40373,1.71781 -1.14899,4.50625 -1.45736,6.23138c-0.21486,1.18175 0.17389,3.26844 -0.3591,4.27797c-0.0701,0.13277 -0.15723,0.25328 -0.25884,0.36242c0.0356,-0.01889 0.07188,-0.03768 0.1089,-0.05633zM449.4991,145.44081c0.31022,2.07237 0.27871,4.17408 -0.0037,6.25152c-0.46497,3.42038 -2.87016,5.55986 -4.74788,8.38394c-0.20902,0.28187 -0.99111,0.53483 -0.72487,0.76344c1.90325,1.63422 5.91827,1.96134 8.30073,2.60055c1.08335,0.29244 4.16611,0.51348 4.82783,-0.83806c0.4683,-0.95647 0.0936,-2.99172 0.29741,-4.11267c0.30475,-1.65101 1.81937,-4.38504 1.46488,-6.01809c-0.20877,-0.96176 -2.14829,-1.81719 -2.90498,-2.26436c-1.96508,-1.16324 -3.48762,-2.83619 -5.36113,-4.10146c-0.33226,-0.22439 -0.74764,-0.43412 -1.14827,-0.66481zM448.86907,144.3741c-0.06137,-0.40972 -0.17241,-0.79869 -0.4062,-0.81584c-0.09508,0.25825 -0.2851,0.43302 0.08619,0.44575c0.09083,0.13368 0.19909,0.25617 0.32001,0.37009z"/><path d="M449.05167,161.18678c-0.02559,-0.24868 0.2231,-0.27427 0.2231,-0.27427l0.07362,-0.0037c0.04761,-0.00647 0.22188,-0.25303 0.45288,-0.61238c0.48408,-2.53262 0.14398,-5.27812 0.81039,-7.81805c0.07206,-0.26527 1.16422,-2.45219 1.58294,-2.24072c0.48865,0.24679 0.42406,1.28077 0.41654,1.71498c-0.02518,1.45446 0.13684,4.72213 -0.71561,5.84109c-0.31348,0.52384 -1.02826,1.8695 -1.64211,2.7618c-0.0337,0.17317 -0.0712,0.34552 -0.11305,0.51694c0,0 -0.06064,0.24254 -0.30317,0.1819c-0.04257,-0.01064 -0.0758,-0.02688 -0.10165,-0.04644c-0.09283,0.09149 -0.17713,0.15466 -0.24979,0.18164l-0.15981,0.02032c0,0 -0.24869,0.02559 -0.27428,-0.2231z"/><path d="M443.77366,146.42233c0.04526,0 0.08772,0.01202 0.12435,0.03306c0.00621,-0.07981 0.00844,-0.06537 0.00901,0.00544c0.05995,0.03788 0.10267,0.10053 0.11379,0.17357c0.55944,1.0025 -0.24683,5.70622 -0.7262,7.07441c-0.38485,1.08413 -1.16283,2.42453 -2.07093,3.02993l-0.28805,0.04199c0,0 -0.25,0 -0.25,-0.25c0,-0.03047 0.00371,-0.05723 0.01024,-0.08074c-0.01024,-0.03893 -0.01024,-0.06864 -0.01024,-0.06864c0,-2.94514 0.20309,-5.85829 1.73845,-8.4566c0.53264,-0.90139 0.92222,-1.34337 1.19906,-1.45207c0.04187,-0.03162 0.094,-0.05036 0.15051,-0.05036z"/><path d="M438.64156,159.79098c-0.04881,0.24519 -0.29399,0.19639 -0.29399,0.19639l-0.02095,-0.00417c-2.37074,-0.47825 -4.08916,-1.28304 -5.85775,-3.05164c0,0 -0.17678,-0.17678 0,-0.35356c0.17678,-0.17677 0.35355,0 0.35355,0c1.70702,1.70702 3.31274,2.46598 5.60181,2.91481l0.02095,0.00418c0,0 0.24519,0.0488 0.19639,0.29399z"/><path d="M443.45521,137.26779c0.25,0 0.25,0.25 0.25,0.25l-0.00014,0.32758c-0.04066,0.63132 -0.08136,1.26263 -0.12396,1.89382c-0.82317,2.91089 -4.13801,4.37743 -6.72366,5.67027c0,0 -0.22361,0.1118 -0.33541,-0.11181c-0.11181,-0.2236 0.11181,-0.33541 0.11181,-0.33541c2.41284,-1.20642 5.6736,-2.60569 6.4546,-5.30837c0.03756,-0.60831 0.07727,-1.21648 0.11689,-1.82466l-0.00013,-0.31142c0,0 0,-0.25 0.25,-0.25z"/><path d="M453.60979,145.39886c0,0.25 -0.25,0.25 -0.25,0.25l-0.2692,-0.06018c-0.79796,-0.68397 -1.44354,-1.46246 -2.13682,-2.25082c-2.0483,-2.23102 -5.29904,-3.28379 -5.29904,-6.67207c0,0 0,-0.25 0.25,-0.25c0.25,0 0.25,0.25 0.25,0.25c0,3.15499 3.24358,4.23833 5.17095,6.33788c0.67889,0.77191 1.3094,1.53603 2.09031,2.20538l-0.0562,-0.06018c0,0 0.25,0 0.25,0.25z"/></g><g stroke-width="0"><g stroke="#000000"><path d="M311.46835,170.8795v-14.47583h76.97738v14.47583z" fill="#2f2f2f"/><path d="M328.84819,170.8795v-14.47583h76.97738v14.47583z" fill="#454545"/></g><g stroke="#000000"><path d="M294.37252,186.37873v-19.36399h102.97085v19.36399z" fill="#454545"/><path d="M317.62111,186.37873v-19.36399h102.97085v19.36399z" fill="#5a5a5a"/></g><g stroke="#000000"><path d="M294.37252,160.39635v-105.47677h102.97085v105.47677z" fill="#454545"/><path d="M317.62111,160.39635v-105.47677h102.97085v105.47677z" fill="#5a5a5a"/></g><path d="M327.69283,149.84593v-84.37593h84.37593v84.37593z" fill="#000000" stroke="#000000"/><path d="M320.15909,181.33029v-2.66058h94.37223v2.66058z" fill="#000000" stroke="#000000"/><path d="M348.64296,175.32413v-4.06912h37.40458v4.06912z" fill="#000000" stroke="none"/></g><g fill="#ffffff" stroke="none" stroke-width="0.5"><path d="M492.30145,155.50347c-0.05501,-0.19091 0.1359,-0.24592 0.1359,-0.24592l0.23129,-0.06665c0.07778,-0.01735 0.15416,-0.0558 0.22072,-0.10789c-0.22229,-0.42818 -0.62645,-1.1399 -0.78943,-1.47844c-0.62734,-1.30312 -1.39513,-2.59477 -1.94026,-3.92626c-1.08791,-2.66744 -1.26154,-5.39985 -1.26623,-8.2456c-0.00503,-3.05165 1.32977,-5.13839 3.04576,-7.63128c1.53916,-2.213 4.64958,-4.10195 7.31417,-3.14564c2.29566,0.8239 5.47216,2.82045 6.63243,4.99692c1.51562,2.84304 1.17768,5.40691 -0.76976,7.907c-1.89355,2.43091 -4.11499,3.36231 -6.34153,5.31436c-1.88353,1.6462 -4.36166,3.78093 -5.32943,6.1113c-0.01935,0.04047 -0.04169,0.08003 -0.06664,0.11833c0.16858,0.34046 0.17542,0.6245 -0.34903,0.72244c0,0 -0.19868,0 -0.19868,-0.19868c0,-0.03079 0.00477,-0.05681 0.01284,-0.0788c-0.02146,0.00879 -0.04312,0.01682 -0.06491,0.02405l-0.23129,0.06665c0,0 -0.19091,0.05501 -0.24592,-0.1359z"/><path d="M511.01423,147.07458c-1.58842,-1.96315 -0.81877,-4.6495 -0.81877,-6.96197c0,0 0,-0.19868 0.19868,-0.19868c0.05096,0 0.08885,0.01307 0.11702,0.03251c0.60578,-0.82856 1.20941,-2.10004 1.65511,-2.97276c1.49641,-2.84818 5.84804,-1.07289 7.63913,0.17889c0.37468,0.75067 1.09294,1.19485 1.34352,1.99734c0.26945,0.86294 0.16078,1.86822 0.40414,2.72229c0.28563,1.00243 1.11381,1.81899 1.33933,2.88217c0.57499,2.75094 0.41833,5.53757 0.40725,8.34387c-0.01872,1.98312 -1.51878,6.9802 -3.91779,7.0243c-0.82136,-0.00013 -2.59543,0.19001 -3.2762,-0.35249c-1.33221,-1.06163 -0.50838,-3.56669 -0.9337,-5.03657c-0.18763,-0.64845 -0.42383,-1.29412 -0.68084,-1.94134c-1.25262,-1.85881 -2.01347,-3.89873 -3.47687,-5.71755z"/><path d="M497.70452,170.71714c-0.48678,-0.97315 -0.87367,-2.00864 -1.18496,-3.0144c-1.06544,-2.62801 -0.73756,-5.57082 0.16062,-8.22714c0.84112,-2.47464 2.45775,-5.22521 4.25533,-7.13966c2.8506,-1.9279 4.48277,-2.71087 7.52786,-0.79609c1.89158,1.83678 3.61043,4.60362 4.08271,7.23373c0.5316,2.96745 0.28692,5.43327 -0.4641,8.33597c-1.51408,2.31212 -3.05388,4.82909 -5.28604,6.51693c-1.22694,0.92112 -3.68586,3.18688 -5.27396,2.65781c-0.7651,-0.2549 -1.03568,-1.4449 -1.64452,-1.54968c-0.63587,-0.73981 -1.48974,-1.1037 -1.92338,-2.04045c-0.22869,-0.49402 -0.23844,-1.23656 -0.24958,-1.977zM497.3879,168.64406c0.12812,0.21105 0.20247,0.48337 0.24659,0.79021c-0.09025,-0.26375 -0.17462,-0.53115 -0.24659,-0.79021z"/><path d="M493.40975,170.56403c-0.19742,0.0223 -0.21973,-0.17512 -0.21973,-0.17512l-0.03175,-0.28106c-0.08913,-0.78898 -0.17823,-1.57774 -0.27672,-2.36561c-0.30835,-2.54209 -1.90917,-5.36835 -2.75493,-7.80328c-0.60997,-2.27211 -1.0625,-4.67917 -1.93614,-6.86328c0,0 -0.07379,-0.18447 0.11068,-0.25825c0.18447,-0.07379 0.25825,0.11068 0.25825,0.11068c0.87775,2.19438 1.3357,4.61094 1.94701,6.89408c0.85963,2.46959 2.4386,5.29225 2.76941,7.87078c0.09868,0.78943 0.18797,1.57975 0.27728,2.37029l0.03175,0.28106c0,0 0.0223,0.19742 -0.17512,0.21973z"/><path d="M510.86437,175.56621c-0.1871,-0.06682 -0.12028,-0.25392 -0.12028,-0.25392l0.04785,-0.13399c0.17399,-0.47627 0.09341,-0.71697 0.43041,-1.12639c1.58562,-2.31421 3.41054,-4.2115 5.21082,-6.37396c1.58025,-1.88461 3.31416,-3.05084 4.3404,-5.44541c0,0 0.07826,-0.18261 0.26088,-0.10435c0.18261,0.07826 0.10435,0.26088 0.10435,0.26088c-1.0441,2.43623 -2.81107,3.62201 -4.40025,5.54312c-1.79968,2.16173 -3.6125,4.05104 -5.20179,6.3627c-0.30224,0.32537 -0.22216,0.59317 -0.37061,1.01705l-0.04785,0.13399c0,0 -0.06682,0.1871 -0.25392,0.12028z"/><path d="M490.5904,154.8c-0.18695,0.06724 -0.25419,-0.11971 -0.25419,-0.11971l-0.04454,-0.12383c-0.29783,-0.84622 -0.82659,-1.6353 -1.02197,-2.41718c-0.15076,-0.88838 -1.35647,-1.38475 -1.83754,-2.24606c-0.53503,-0.95789 -0.15097,-2.9673 -0.15097,-4.05204c0,0 0,-0.19868 0.19868,-0.19868c0.19868,0 0.19868,0.19868 0.19868,0.19868c0,0.96725 -0.39448,3.01772 0.0986,3.85487c0.54831,0.93091 1.6156,1.35535 1.88012,2.35554c0.12952,0.66719 0.73157,1.62013 1.00832,2.37039l0.04454,0.12383c0,0 0.06724,0.18695 -0.11971,0.25419z"/><path d="M523.88078,157.28804c0.18929,0.06034 0.12895,0.24963 0.12895,0.24963l-0.06008,0.18849c-0.31945,0.97096 -0.96846,1.90909 -1.45149,2.7765c-0.7135,0.13824 -0.43474,0.79609 -1.06629,1.09473c-1.01471,0.47982 -5.09342,0.59444 -5.49768,-0.47688c0,0 -0.06283,-0.18848 0.12565,-0.25131c0.18848,-0.06283 0.25131,0.12565 0.25131,0.12565c0.20588,0.76887 4.21222,0.54345 4.9586,0.23975c0.53292,-0.21685 0.28265,-0.91461 0.99108,-1.05064c0.38952,-0.85533 1.02643,-1.65205 1.31023,-2.57849l0.06008,-0.18849c0,0 0.06034,-0.18929 0.24963,-0.12895z"/></g><g fill="#ffffff" stroke="none" stroke-width="0.5"><path d="M535.14259,110.69269c0.24959,0.01426 0.23534,0.26385 0.23534,0.26385l-0.00235,0.04116c-0.02032,0.35055 -0.06339,0.70033 -0.12571,1.04589c-0.05751,0.14486 -0.38954,1.02377 -0.49256,1.07958c-0.3676,0.19916 -1.71362,-0.28368 -2.12928,-0.3669c-2.43758,-0.48804 -4.84461,-1.34668 -7.23457,-2.0325c-3.36423,-0.96538 -6.72845,-1.93077 -10.09268,-2.89616c-2.88464,-0.82776 -5.61818,-1.76846 -8.39579,-2.90476c0,0 -0.23139,-0.09466 -0.13673,-0.32604c0.09466,-0.23139 0.32605,-0.13673 0.32605,-0.13673c2.76129,1.12962 5.47669,2.06402 8.34438,2.88692c3.36423,0.96538 6.72846,1.93078 10.09269,2.89616c1.77158,0.50837 8.59414,3.25991 9.23778,1.66291c0.05474,-0.30953 0.08961,-0.62305 0.10724,-0.93689l0.00235,-0.04116c0,0 0.01425,-0.2496 0.26385,-0.23534z"/><path d="M560.1991,109.04694c0.24072,0.06749 0.17323,0.30821 0.17323,0.30821l-0.29226,0.36636c-1.77076,-0.02663 -4.657,1.75195 -6.44869,2.33599c-3.37887,1.10142 -6.67405,1.99895 -10.15751,2.70457c-1.19619,0.23905 -6.03562,0.65986 -6.5583,-0.68318c-0.25227,-0.64822 -0.01491,-1.88413 -0.01491,-2.58506c0,0 0,-0.25 0.25,-0.25c0.25,0 0.25,0.25 0.25,0.25c0,0.67806 -0.21769,1.77792 -0.01491,2.41493c0.28741,0.90288 5.16546,0.53255 5.98886,0.36326c3.46518,-0.70192 6.74063,-1.59425 10.10181,-2.6899c1.90219,-0.62006 4.69946,-2.33787 6.60365,-2.36061l-0.18918,-0.00134c0,0 0.06749,-0.24071 0.30821,-0.17323z"/><path d="M532.60187,115.26571c-0.09493,0.23127 -0.3262,0.13635 -0.3262,0.13635l-0.04441,-0.01823c-1.42755,-0.58597 -3.10365,-1.429 -4.67591,-1.43632c-2.41877,-0.68824 -5.15112,-3.14733 -7.87023,-3.12292c0,0 -0.25,0 -0.25,-0.25c0,-0.25 0.25,-0.25 0.25,-0.25c2.76611,0.02074 5.49125,2.39936 7.94066,3.1279c1.57956,-0.00847 3.36149,0.88023 4.79534,1.46879l0.04441,0.01823c0,0 0.23127,0.09493 0.13634,0.32621z"/><path d="M551.72516,114.34846c0.08693,0.2344 -0.14747,0.32133 -0.14747,0.32133l-0.0912,0.03382c-0.76502,0.28096 -1.52131,0.68821 -2.30514,0.88766c-2.73352,1.20113 -5.74757,1.11644 -8.72145,1.11644c0,0 -0.25,0 -0.25,-0.25c0,-0.25 0.25,-0.25 0.25,-0.25c2.93337,0 5.86218,0.08143 8.56022,-1.08974c0.77374,-0.18973 1.53981,-0.60097 2.29251,-0.88317l0.0912,-0.03382c0,0 0.2344,-0.08693 0.32133,0.14747z"/><path d="M543.65146,112.77841c0.00234,0.24999 -0.24765,0.25234 -0.24765,0.25234l-0.1505,-0.00235c-1.67026,0.30921 -4.69804,0.85548 -4.69804,-1.35072c0,0 0,-0.25 0.25,-0.25c0.25,0 0.25,0.25 0.25,0.25c0,1.67776 2.73231,1.11357 4.10702,0.85908l0.23682,-0.00598c0,0 0.24999,-0.00235 0.25234,0.24764z"/><path d="M534.39294,109.2215c0.25,0 0.25,0.25 0.25,0.25v0.10308c0,1.84426 -0.91089,1.61769 -2.45617,1.61769c0,0 -0.25,0 -0.25,-0.25c0,-0.25 0.25,-0.25 0.25,-0.25c1.33123,0 1.95617,0.37665 1.95617,-1.11769v-0.10308c0,0 0,-0.25 0.25,-0.25z"/></g><g fill="#ffffff" stroke="none" stroke-width="0.5"><g><path d="M436.13888,174.78087c0,0 0,-0.25 0.25,-0.25c0.00629,0 0.01242,0.00015 0.01839,0.00046c0.01623,-0.03664 0.03183,-0.07277 0.04671,-0.10834l-0.00451,-0.26331c0,0 0,-0.25 0.25,-0.25c0.25,0 0.25,0.25 0.25,0.25l-0.00451,0.35787c-0.01599,0.04137 -0.03436,0.08557 -0.05471,0.13218c0.08869,-0.04178 0.20016,-0.08109 0.33625,-0.10521c0.032,-0.01108 0.06412,-0.01405 0.09186,-0.0134c0.00077,-0.00009 0.00153,-0.00017 0.0023,-0.00026h0.1553c0,0 0.14252,0 0.21234,0.1076c2.71928,0.88 5.60743,1.4542 8.36917,2.22244c0.57894,0.16105 1.15841,0.31996 1.73831,0.47716c0.06117,-0.02578 0.14279,-0.03106 0.23505,0.03814c0.01593,0.01195 0.02964,0.02421 0.04138,0.03667c2.68239,0.72455 5.37367,1.41396 8.0641,2.10976c1.93748,0.50107 3.86658,1.03408 5.79501,1.56896c0.56603,0.157 1.49232,0.10207 1.85203,0.70974c0.36998,0.62502 -0.64636,1.85089 -0.96443,2.32137c-1.78442,2.63844 -6.60217,0.29489 -9.31782,-0.50383c-2.49547,-0.73513 -5.06531,-1.20417 -7.58101,-1.86442c-0.02729,0.04349 -0.07406,0.08232 -0.15277,0.102c-0.24253,0.06063 -0.30317,-0.1819 -0.30317,-0.1819c-0.00351,-0.01495 -0.00682,-0.0299 -0.00993,-0.04485c-0.62245,-0.17013 -1.24106,-0.35377 -1.8539,-0.55792c-2.81802,-0.96226 -8.08263,-0.50051 -8.08263,-4.30618c0.02422,-0.49875 0.3688,-1.16079 0.66696,-1.76515c-0.01772,-0.06235 -0.03308,-0.13511 -0.04577,-0.21959zM452.13443,182.701c0,-0.23447 0.21991,-0.24904 0.24723,-0.24994c0.47309,-0.99056 0.83985,-1.65529 0.83985,-2.856c0,0 0,-0.23712 0.23093,-0.24949c-1.83562,-0.4749 -3.6702,-0.95295 -5.50065,-1.4473l-0.03684,0.04913c-0.6442,0.85516 -2.02245,2.15246 -2.00892,3.28785c2.06147,0.54932 4.16159,0.9624 6.22937,1.4919c-0.00063,-0.0084 -0.00096,-0.0171 -0.00096,-0.02614z"/><path d="M456.52276,186.42812c0,0.25 -0.25,0.25 -0.25,0.25h-0.27649c-1.79613,-0.00295 -2.7012,-1.75171 -4.22712,-1.70826c0,0 -0.25,0 -0.25,-0.25c0,-0.25 0.25,-0.25 0.25,-0.25c1.6561,0.03462 2.41386,1.7115 4.22712,1.70826h0.27649c0,0 0.25,0 0.25,0.25z"/><path d="M464.89671,184.4839c0.23596,0.08261 0.15335,0.31857 0.15335,0.31857l-0.05597,0.15987c-1.09147,2.93842 -2.48894,3.00486 -5.21012,2.32951c0,0 -0.24254,-0.06063 -0.1819,-0.30317c0.06063,-0.24254 0.30317,-0.1819 0.30317,-0.1819c2.41202,0.60778 3.71728,0.78496 4.61693,-2.00966l0.05597,-0.15987c0,0 0.08261,-0.23596 0.31857,-0.15335z"/></g><g><path d="M488.38898,184.28925c-0.06661,0.63342 -0.12855,1.33229 -0.31971,1.79324c-1.57209,3.46578 -4.61339,1.57921 -6.74093,1.67077c-0.46056,0.01525 -0.91621,0.01023 -1.36862,-0.00818c-0.00808,0.01274 -0.01629,0.02544 -0.02462,0.03807c0,0 -0.13741,0.20399 -0.26126,0.08123c-0.04019,-0.03984 -0.05287,-0.08823 -0.05166,-0.13543c-1.81718,-0.09927 -3.58861,-0.38776 -5.42431,-0.41322c-1.99714,-0.02886 -5.92295,0.76377 -5.92852,-2.13596c-0.00092,-0.51704 -0.11847,-1.91645 0.36685,-2.38262c0.47185,-0.45323 1.01784,-0.14525 1.43019,-0.13061c1.40486,0.0499 2.80935,0.10171 4.2058,0.18493c1.93914,0.11556 3.87615,0.23718 5.82223,0.32432c0.01235,-0.00807 0.02584,-0.01543 0.04055,-0.02187c0.08523,-0.03733 0.13316,-0.00978 0.16006,0.03073c0.42095,0.01832 0.84235,0.03497 1.2643,0.04953c2.01284,0.06945 4.02313,0.35082 6.05607,0.30667c0.08732,-0.07855 0.17481,-0.03886 0.17481,-0.03886l0.09534,0.04325c0.00044,0.0003 0.00087,0.00059 0.00131,0.00088c0.0173,0.00713 0.03579,0.01878 0.05086,0.03778c0.07359,0.05987 0.12578,0.1267 0.16297,0.18945c0.00676,-0.04812 0.01374,-0.09349 0.02101,-0.13562l0.14506,-0.32716c0,0 0.10327,-0.22767 0.25675,-0.15805c0.15348,0.06962 0.05021,0.29729 0.05021,0.29729l-0.11154,0.23854c-0.00556,0.03653 -0.01091,0.07378 -0.01608,0.11167c0.0038,0.00138 0.00762,0.00295 0.01149,0.0047c0.15348,0.06962 0.05021,0.29729 0.05021,0.29729c-0.04269,0.0734 -0.08218,0.13538 -0.11881,0.18724zM475.40469,186.88395c1.48818,0.09361 2.94813,0.30226 4.44062,0.37607c0.47732,-1.03022 0.1671,-2.59546 0.12487,-3.55364l-0.00232,-0.055c-1.32797,-0.05953 -2.65173,-0.13506 -3.97483,-0.21376c0.13666,0.07558 0.03871,0.29152 0.03871,0.29152c-0.496,1.09347 -0.54544,1.80097 -0.66419,2.8348c0.0164,0.00843 0.14539,0.08294 0.04853,0.29647c-0.00373,0.00823 -0.00753,0.01607 -0.01139,0.02354z"/><path d="M471.4391,188.87456l0.16974,0.07699c1.11186,0.5079 2.26977,-0.8082 3.30078,-0.37854c0,0 0.15348,0.06962 0.05021,0.29729c-0.10327,0.22767 -0.25675,0.15805 -0.25675,0.15805c-0.91884,-0.4645 -2.19688,0.87603 -3.30078,0.37854l-0.16974,-0.07699c0,0 -0.15348,-0.06962 -0.05021,-0.29729c0.10327,-0.22767 0.25675,-0.15805 0.25675,-0.15805z"/><path d="M466.9768,185.15846l-0.03168,0.16117c-0.60212,2.79556 0.2724,2.99769 2.00425,3.11588c0,0 0.17394,0.01233 0.11098,0.25008c-0.06296,0.23776 -0.23691,0.22544 -0.23691,0.22544c-1.94957,-0.14275 -2.78005,-0.59242 -2.23629,-3.57236l0.03168,-0.16117c0,0 0.04676,-0.23789 0.22574,-0.24741c0.17898,-0.00952 0.13223,0.22837 0.13223,0.22837z"/></g></g><g fill="#ffffff" stroke="none" stroke-width="0.5"><path d="M510.01846,76.88225l0.07204,0.02639c1.88702,-0.94306 2.6564,-1.58016 2.84878,-4.04332c0.44371,-1.90594 2.24498,-3.5197 3.33977,-4.94968c0.55971,-0.73107 0.57255,-1.49427 1.49141,-1.66322c-0.25874,-0.41221 -0.57589,-0.80001 -0.95553,-1.15414c-2.76805,-2.60551 -5.75461,-2.90411 -9.479,-2.56341c-0.35965,0.03271 -0.72208,0.10298 -1.08471,0.2053c0.15644,0.05292 0.15644,0.23582 0.15644,0.23582v0.23539c-0.05003,0.84607 -0.64191,1.30249 -1.17631,1.59601c-0.01609,0.00884 -0.10286,1.12992 -0.12619,1.19699c-0.25268,0.72653 -1.10669,1.45996 -1.60837,2.0627c-1.57807,1.89369 -3.22824,4.62872 -3.65521,7.07905c0.56325,-0.00664 1.10058,0.01961 1.57724,0.07552c2.91005,0.34131 5.87479,0.5381 8.54111,1.66835c0.03385,-0.00776 0.05853,-0.00775 0.05853,-0.00775zM499.50813,75.72569c-0.06909,-0.00863 -0.11653,-0.03411 -0.14903,-0.06638c-1.32098,0.06017 -2.72542,0.30581 -3.75585,0.77881c-0.98401,0.45168 -1.26973,1.29863 -2.49878,1.31182c0,0 -0.25,0 -0.25,-0.25c0,-0.19117 0.14617,-0.23615 0.21497,-0.24674c-0.0016,-0.00298 -0.00318,-0.00603 -0.00473,-0.00915c-0.11181,-0.2236 0.1118,-0.33541 0.1118,-0.33541l0.42206,-0.20355c0.2247,0.00121 0.4577,-0.05065 0.65555,-0.15719c0.64177,-3.15539 2.61319,-6.19799 4.53613,-8.7615c1.95146,-2.42104 5.32652,-5.46082 8.50039,-5.74947c3.86437,-0.34949 6.98933,-0.01143 9.86699,2.69727c2.74739,2.60667 2.50912,6.90139 0.3661,9.7022c-0.57241,1.07767 -2.93166,6.49725 -4.68827,5.85417c-0.13686,-0.05011 -0.97598,-1.80373 -1.51004,-2.1351c-2.98473,-1.8519 -6.52493,-2.03377 -9.96485,-2.43723c-0.49158,-0.05766 -1.0498,-0.08258 -1.63343,-0.07099c-0.04078,0.0505 -0.10827,0.09228 -0.21901,0.07843z"/><path d="M524.47439,82.24191c2.124,-0.42066 4.11863,0.10595 6.12777,0.48387c0.32909,0.0619 0.68733,0.16618 1.05103,0.30753c0.57119,-2.40111 0.44617,-5.36274 0.07661,-7.5178c-0.11723,-0.6858 -0.41815,-1.57871 -0.33071,-2.32089c0.00807,-0.06851 0.33996,-1.14103 0.33256,-1.15318c-0.24559,-0.40356 -0.47212,-0.97371 -0.2116,-1.77943l0.08153,-0.22082c0,0 0.06335,-0.17158 0.18333,-0.18369c-0.2002,-0.18298 -0.41137,-0.33584 -0.63374,-0.4528c-2.30209,-1.21308 -4.34614,-1.64943 -7.04718,0.1308c-0.36933,0.24114 -0.70973,0.52886 -1.02062,0.85349c0.53855,0.37893 0.28258,1.09798 0.39308,1.91807c0.21614,1.60411 0.82767,3.55011 0.4559,5.44454c-0.72807,2.35686 -0.44879,3.13911 0.45076,4.47648l0.05595,-0.00748c0,0 0.01603,0.00592 0.03534,0.02132zM531.55399,83.53087c-0.37522,-0.15088 -0.74659,-0.26142 -1.08598,-0.32526c-2.37496,-0.44673 -4.73834,-1.12539 -7.31918,-0.10412c-0.46179,0.18274 -1.61439,1.62654 -1.72068,1.64071c-1.36415,0.18188 -1.02017,-5.46826 -1.01888,-6.61655c-0.4225,-3.14156 0.91009,-7.22765 3.59812,-9.01391c2.808,-1.85072 4.95566,-1.4182 7.34566,-0.16331c1.96239,1.03218 3.10269,4.69348 3.53224,7.43283c0.36167,2.86616 0.58891,6.19338 -0.0869,9.30745c0.09167,0.14741 0.2251,0.25195 0.37153,0.30472l0.20376,0.29221c0,0 0.10658,0.15852 -0.04352,0.34147c-0.00209,0.00255 -0.00417,0.00503 -0.00625,0.00744c0.04104,0.02644 0.12044,0.10371 0.05424,0.28305c-0.08659,0.23453 -0.24903,0.17455 -0.24903,0.17455c-0.79405,-0.30722 -0.68639,-1.17029 -1.16935,-1.83007c-0.50575,-0.69091 -1.33326,-1.25827 -2.17079,-1.63161c-0.03229,0.02247 -0.07194,0.035 -0.11983,0.02652c-0.07676,-0.01358 -0.10614,-0.06896 -0.11515,-0.12611z"/><path d="M508.61383,79.88996c0,0.25 -0.25,0.25 -0.25,0.25l-0.43808,-0.01011c-1.81745,-1.13102 -3.48037,-1.64452 -5.81274,-1.64452c0,0 -0.25,0 -0.25,-0.25c0,-0.25 0.25,-0.25 0.25,-0.25c2.32018,0 4.16933,0.47825 5.95351,1.66474l0.29731,-0.01011c0,0 0.25,0 0.25,0.25z"/><path d="M527.55144,86.19765c-0.24072,0.06749 -0.30821,-0.17323 -0.30821,-0.17323l-0.01341,-0.23597c-1.20268,0.17504 -2.59589,0.23463 -3.79052,0.23463c0,0 -0.25,0 -0.25,-0.25c0,-0.25 0.25,-0.25 0.25,-0.25c1.37994,0 2.67522,-0.24363 4.09261,-0.13306l0.19276,0.49942c0,0 0.06749,0.24072 -0.17323,0.30821z"/><path d="M515.35164,79.82382c0.25,0.00161 0.24839,0.25161 0.24839,0.25161l-0.0111,0.43565c-0.65856,1.1705 -1.75833,2.37134 -3.18046,2.38661c0,0 -0.25,0 -0.25,-0.25c0,-0.25 0.25,-0.25 0.25,-0.25c1.17098,0.01562 2.13571,-1.07666 2.69788,-2.01744l-0.00631,-0.30804c0,0 0.00161,-0.25 0.2516,-0.24839z"/><path d="M518.63348,81.84747c0.24866,-0.02579 0.27446,0.22287 0.27446,0.22287l0.03875,0.37358c0.1526,1.75431 2.08916,2.65431 2.16875,3.88071c0,0 0,0.25 -0.25,0.25c-0.25,0 -0.25,-0.25 -0.25,-0.25c0.0662,-0.57933 -0.76488,-0.67321 -1.19174,-1.11717c-0.6526,-0.67875 -0.86924,-1.81322 -0.97434,-2.71195l-0.03876,-0.37358c0,0 -0.0258,-0.24867 0.22287,-0.27446z"/></g><g fill="#ffffff" stroke="none" stroke-width="0.5"><path d="M589.74506,169.74126v-0.66301c0,-2.00994 -0.2742,-4.26046 0.00373,-6.24881c0.15744,-1.1264 0.71474,-3.19917 0.71452,-3.19903c0,0 -0.49725,0 -0.49725,-0.49725c0,-0.00424 0.00004,-0.00844 0.00011,-0.01261c-2.73498,-1.59981 -5.6024,-2.86615 -9.48585,-3.46962c-1.66012,0.00252 -3.81029,0.17266 -5.83484,0.71598c1.53058,2.28691 0.40295,9.45328 0.40295,12.04833c0,0 0.00001,0.06495 -0.02346,0.14789c2.34031,1.67225 4.96183,2.44888 9.8028,2.44888c1.34779,0.05603 3.1921,-0.30176 5.03298,-0.93783c-0.11569,-0.14482 -0.11569,-0.33292 -0.11569,-0.33292zM566.99943,162.75927c0.08566,-0.31381 0.32056,-0.36631 0.47279,-0.36508c0.68458,-6.29566 7.98147,-7.74201 13.08394,-7.73486c7.16532,1.09207 11.35236,4.22891 16.93239,8.15005c0.15822,0.76198 1.94777,1.23356 1.16161,2.71963c-2.00504,3.79008 -10.19875,6.37313 -13.82238,6.47752c-2.14207,0 -5.03887,0.51539 -7.10565,-0.02133c-4.21246,-1.09393 -6.27389,-5.36505 -8.83956,-7.8743c-0.23087,-0.17332 -0.46174,-0.34667 -0.69261,-0.51999l-0.06499,-0.01707c-0.05641,0.02169 -0.12366,0.03462 -0.20383,0.03462c-0.21196,0 -0.33357,-0.09035 -0.40334,-0.19403l-0.1696,-0.04452c0,0 -0.4797,-0.13094 -0.34876,-0.61064z"/><path d="M544.0604,161.23273c1.62281,1.49725 3.37701,2.68236 4.80477,3.19061c5.03576,2.05233 8.11948,2.28849 11.322,1.39612c0.01368,-0.10342 0.04352,-0.17661 0.04352,-0.17661c1.19188,-2.9245 3.31032,-11.47871 5.95284,-13.40706c-1.85648,-1.4706 -4.01502,-2.5739 -5.74079,-3.28055c-4.31689,-0.9663 -7.88131,-0.75483 -11.46111,-0.11141c-0.00184,0.00472 -0.00373,0.00948 -0.00568,0.01425c-0.22838,0.56039 -0.74565,0.34957 -0.74565,0.34957c-0.00016,-0.00025 -0.37243,2.57193 -0.726,3.90807c-0.62411,2.35859 -1.94298,4.77857 -2.86612,7.04369l-0.30451,0.74718c0,0 -0.0864,0.21198 -0.27326,0.32614zM570.55807,163.22151l-0.19688,-0.02172c-0.1202,0.08726 -0.28819,0.13752 -0.50868,0.04766c-0.0834,-0.03399 -0.14742,-0.07706 -0.19614,-0.12543l-0.07545,-0.00832c-0.31976,0.09745 -0.63953,0.19492 -0.95929,0.29238c-3.82139,1.74009 -7.92744,5.6795 -12.81184,5.12643c-2.39647,-0.27135 -5.17312,-2.08026 -7.40138,-2.98839c-3.7215,-1.65388 -11.05855,-8.03857 -11.40352,-13.15984c-0.13526,-2.00803 1.9429,-1.7808 2.45745,-2.57244c7.60551,-2.05328 13.40174,-3.81326 21.35696,-2.00624c5.31108,2.15513 12.23729,6.87862 10.05789,14.26375c0.15891,0.06316 0.37917,0.22191 0.32414,0.61187c-0.08412,0.59611 -0.64326,0.5403 -0.64326,0.5403z"/></g><g fill="#ffffff" stroke="none" stroke-width="0.5"><path d="M505.26776,232.1515c-0.1171,-0.16274 -0.23037,-0.33254 -0.34033,-0.50916c-0.21708,0.25659 -0.42298,0.46044 -0.5965,0.56707c-0.27811,0.62306 -0.56856,1.226 -0.92853,1.6626c0.67027,-0.43054 1.28991,-1.02599 1.86536,-1.72051zM504.45606,230.80802c-0.02824,-0.05476 -0.05629,-0.11002 -0.08415,-0.16578c-0.02706,0.13896 -0.05362,0.27773 -0.07968,0.41619c0.05449,-0.0847 0.10914,-0.16826 0.16383,-0.25041zM509.05053,216.40248c0.61135,-0.66189 1.22331,-1.3508 1.86306,-1.95726c-0.23746,-1.60128 -0.76646,-3.74541 -1.12052,-2.85648c-0.70328,1.37935 -1.90298,4.44777 -3.14056,6.39697c0.00065,0.19617 -0.00073,0.39638 -0.0046,0.59671c0.59651,-0.37668 1.16459,-0.89227 1.72483,-1.46386c0.17008,-0.40179 0.37924,-0.84759 0.49075,-0.85055c0.07543,-0.00201 0.137,0.04679 0.18705,0.13446zM521.7076,222.50284c-0.21764,0.69778 -0.52503,1.35862 -0.96958,1.96119c-0.19136,0.72502 -0.48559,1.44662 -0.84781,2.15037c0.23212,0.77345 0.4002,1.52831 0.4372,2.19734c0.28798,-1.03754 0.57061,-2.07435 0.89316,-3.0968c0.12005,-0.38054 0.30978,-1.32146 0.62185,-1.50407c0.24214,-0.14169 1.13855,0.26181 1.42402,0.29828c0.91077,0.11637 2.91095,-0.33765 3.89286,0.11129c-1.33492,-1.23594 -2.60842,-2.53173 -3.85826,-3.91258c-0.37759,-0.27441 -0.74693,-0.58296 -1.1093,-0.90916c-0.00095,0.01046 -0.0019,0.02092 -0.00286,0.03138c0.23967,0.66366 0.47801,1.32723 0.72349,1.98023c0.15091,0.40143 0.87436,1.65646 0.1984,2.07069c-0.1689,0.1035 -0.81176,-0.70988 -0.9475,-0.84987c-0.15805,-0.16301 -0.3096,-0.34001 -0.45567,-0.5283zM513.92673,212.3041c0.59273,-0.36248 1.17638,-0.70079 1.76418,-1.01006c-0.0538,-0.49018 -0.1076,-0.98036 -0.1614,-1.47054c-0.03736,-0.34039 0.02056,-1.22966 -0.18225,-0.99003c-0.48243,0.57002 -0.89376,2.96355 -1.5561,3.30086c0.04521,0.05582 0.09052,0.11246 0.13556,0.16977zM512.97115,209.14269l0.1317,-0.47414c0.03637,-0.13093 0.13834,-0.20782 0.22776,-0.17175c0.08942,0.03608 0.13243,0.17146 0.09606,0.30239l-0.1317,0.47414c-0.02041,0.07349 -0.04067,0.14765 -0.0608,0.22244c-0.03348,0.32674 -0.1438,0.69886 -0.27,1.05897c-0.02402,0.09814 -0.04801,0.19686 -0.07201,0.29608l0.13011,0.05249l-0.04904,0.17655c0.47558,0.22539 1.11667,0.5691 1.16919,0.53685c0.45226,-0.27762 0.51938,-2.97734 1.10825,-3.23672c0.54964,-0.24211 0.73031,1.51461 0.81635,2.72052c0.00565,-0.00284 0.0113,-0.00568 0.01696,-0.00851c0.80519,-1.81119 1.853,-3.57691 2.56259,-5.07725c0.26859,-0.56791 0.53706,-1.13592 0.80611,-1.70344l0.15756,-0.44473c0.04081,-0.11843 0.13676,-0.18559 0.22144,-0.15143c0.08861,0.03575 0.13164,0.16901 0.09703,0.29883l-0.126,0.4758l-0.02929,-0.011c-0.2195,1.81376 -0.89059,3.82424 -1.48484,5.67674c0.22269,-0.07665 0.44829,-0.14875 0.6774,-0.2161c0.39815,-0.56582 0.80306,-1.11752 1.16354,-1.66427l0.01302,-0.01021l-0.00189,-0.00346l0.28411,-0.32447c0.04722,-0.05546 0.11043,-0.07951 0.16837,-0.05614c0.07542,0.03043 0.11783,0.13151 0.10743,0.24098l-0.03841,0.48639l-0.01233,0.00011c0.00784,0.25865 0.01149,0.52005 0.0115,0.78374c0.29799,-0.08858 0.58784,-0.14634 0.8403,-0.12277c0.26307,0.02455 0.49686,0.19513 0.6989,0.46269c0.07504,-0.00248 0.15059,-0.0042 0.22652,-0.0052c-0.04512,-0.56227 -0.06685,-1.11582 -0.05842,-1.65112c-0.00377,-0.02166 -0.00756,-0.04334 -0.01135,-0.06503l-0.0013,-0.00748l-0.01138,0.00509l-0.06875,-0.46411c-0.00723,-0.04526 -0.00485,-0.09551 0.00894,-0.14514c0.03637,-0.13093 0.13834,-0.20782 0.22776,-0.17175c0.05517,0.02226 0.09266,0.0823 0.10476,0.15579l0.08011,0.45885c0.02151,0.12318 0.04311,0.2469 0.06474,0.37115c0.06187,0.223 0.10189,0.4889 0.13129,0.76095c0.04273,0.25089 0.08509,0.5036 0.12657,0.75793c0.04342,0.00122 0.08686,0.00262 0.1303,0.00417c0.19817,-0.78659 0.44906,-1.60125 0.74187,-1.93138c1.17276,-1.32226 4.81483,2.58333 2.57193,2.64781c-0.75594,0.01596 -1.51066,0.03081 -2.26452,0.03648c-0.13368,0.79388 -0.40232,1.68758 -0.73184,2.60452c0.02166,0.23178 0.041,0.46407 0.05768,0.69674c0.15644,0.90011 0.3389,1.78896 0.5679,2.67587c0.0145,0.0163 0.24061,0.27043 0.25511,0.28673c0.05426,0.05778 0.07517,0.16415 0.0464,0.26773c-0.02091,0.07527 -0.06349,0.13268 -0.11292,0.16104c0.33873,1.28204 0.7938,3.00438 1.13253,4.28642c0.01404,0.05233 0.01427,0.11408 -0.00262,0.17487c-0.03637,0.13093 -0.13834,0.20782 -0.22776,0.17175c-0.00758,-0.00306 -0.01482,-0.00683 -0.02172,-0.01125l-0.30287,-0.18625l0.01062,-0.02834c-0.07352,-0.02798 -0.14671,-0.05783 -0.21958,-0.08947c0.95394,0.99532 1.92635,1.94796 2.9223,2.89147l0.01096,0.03304l0.0058,-0.00645l0.19485,0.36882c0.03291,0.06022 0.04205,0.14562 0.01883,0.22922c-0.03041,0.10949 -0.10671,0.1812 -0.18317,0.18065l-0.29785,0.00751l0.00227,-0.03214c-1.2233,0.24559 -2.63664,0.0181 -3.78757,-0.12874c-0.31501,-0.04019 -1.35861,-0.49914 -1.59928,-0.37761c-0.13057,0.06593 -0.35056,1.04645 -0.40011,1.2035c-0.3263,1.03432 -0.61127,2.08353 -0.90283,3.13316l-0.1317,0.47414c-0.03637,0.13093 -0.13834,0.20782 -0.22776,0.17175c-0.04111,-0.01659 -0.07242,-0.05417 -0.09071,-0.10266l-0.15659,-0.40955l0.02115,-0.01834c-0.24837,-0.49183 -0.4627,-1.03777 -0.65678,-1.61312c-0.15853,0.26274 -0.32486,0.52195 -0.49702,0.77684c0.15708,1.13965 0.20631,2.29243 -0.04932,3.26838l0.0655,0.02643l-0.1317,0.47414c-0.03637,0.13093 -0.13834,0.20782 -0.22776,0.17175c-0.0576,-0.02324 -0.09594,-0.08768 -0.10621,-0.16559l-0.05785,-0.40291c-0.02256,-0.15716 -0.04512,-0.31432 -0.06767,-0.47149c-0.06354,-0.52017 -0.16294,-1.10658 -0.2735,-1.73272c-0.46544,0.59973 -0.94815,1.16423 -1.41727,1.68072l0.18815,0.07591c0.08942,0.03608 0.13243,0.17146 0.09606,0.30239c-0.02629,0.09464 -0.08685,0.16105 -0.15217,0.17697l-0.26256,0.07171c-0.81204,1.23813 -1.93244,2.19143 -2.95126,3.03618c-0.2971,0.13539 -1.67472,1.00247 -1.90261,0.72744c-0.10302,-0.12432 -0.11678,-0.34844 -0.06763,-0.62889c-0.04154,-0.01682 -0.08307,-0.03367 -0.12459,-0.05055c-0.00972,0.41775 -0.05206,0.86447 -0.1271,1.30643c0.7182,-0.2911 1.43492,-0.50469 1.97148,-0.99535c0.5637,-0.51548 1.52351,-0.01893 2.05504,-0.80633c0,0 0.13131,-0.18283 0.24667,-0.01839c0.11536,0.16445 -0.01594,0.34727 -0.01594,0.34727c-0.54477,0.72634 -1.69336,0.35874 -2.10027,0.86084c-0.55048,0.67929 -1.4383,0.91294 -2.28577,1.23376c-0.14081,0.57072 -0.33932,1.10485 -0.59568,1.52342l0.0646,0.08828l-0.24558,0.35355c-0.04825,0.07219 -0.12078,0.10674 -0.18653,0.08022c-0.0874,-0.03526 -0.13046,-0.16541 -0.0984,-0.29353l0.10939,-0.44469c-0.00363,-0.16918 -0.00783,-0.35913 -0.01109,-0.56477c-0.09457,0.27997 -0.17713,0.53332 -0.23557,0.74367c-0.09611,0.34597 -0.30242,1.52317 -0.68351,1.5307c-0.29555,0.00584 -1.10269,-2.53394 -1.2751,-2.92766c-0.02615,-0.05972 -0.05177,-0.12045 -0.07691,-0.18192c-0.68479,-0.29025 -1.38805,-0.66999 -1.96865,-1.12964c-0.00594,0.01759 -0.01191,0.03537 -0.0179,0.05336l-0.03143,0.02905l0.00755,0.01075l-0.25977,0.3617c-0.04823,0.06971 -0.11943,0.10266 -0.18406,0.07658c-0.08623,-0.03479 -0.1293,-0.16192 -0.09965,-0.28835l0.10945,-0.4799l0.03189,0.0095c0.00696,-0.04833 0.01432,-0.09621 0.02207,-0.14365c-0.45683,-0.44978 -0.78507,-0.96218 -0.88208,-1.53023l0.01636,-0.33103c-0.52029,0.55805 -1.07968,1.00406 -1.83038,1.35619l-0.33937,0.15919c-0.03392,0.0166 -0.07053,0.01962 -0.10524,0.00561c-0.08942,-0.03608 -0.13243,-0.17146 -0.09606,-0.30239c0.00903,-0.03251 0.02211,-0.06169 0.03803,-0.08664l0.22818,-0.37264l0.02009,0.0234c0.30556,-0.66414 0.74431,-1.50517 1.22438,-2.3152c-0.01092,-0.42109 0.08864,-1.06446 0.23265,-1.75839c-0.21847,-0.48508 -0.42726,-1.00201 -0.63263,-1.54776c-0.36426,-0.97824 -0.55759,-2.13341 -0.746,-3.2985c-0.08255,-0.04185 -0.12099,-0.1719 -0.08601,-0.29783c0.00683,-0.02458 0.01597,-0.04726 0.0269,-0.06764c-0.03335,-0.20538 -0.06707,-0.41053 -0.1021,-0.61453c-0.04084,-0.00162 -0.07921,0.00313 -0.11484,0.01502c-0.00696,0.00232 0.01718,1.14875 0.01773,1.20061c0.00247,0.23284 0.01061,0.46591 0.01691,0.69894c0.2495,1.72764 0.14052,4.02278 1.17342,5.06028c0,0 0.13277,0.13694 0.01911,0.34119c-0.11367,0.20425 -0.24645,0.06731 -0.24645,0.06731c-0.6164,-0.64952 -0.95747,-1.92487 -1.19767,-3.17245c-0.04796,0.08101 -0.12516,0.12138 -0.19476,0.09329c-0.06001,-0.02421 -0.09912,-0.09315 -0.10736,-0.17545l-0.05318,-0.46944l0.0184,-0.00702c-0.69333,-2.64395 -0.77831,-6.08483 -1.09394,-8.87039c-0.01602,-0.05148 -0.0305,-0.10304 -0.04305,-0.15454c-0.03669,-0.09514 -0.07338,-0.19028 -0.11007,-0.28542l-0.15565,-0.4102c-0.022,-0.0572 -0.02576,-0.12989 -0.00593,-0.20124c0.03637,-0.13093 0.13834,-0.20782 0.22776,-0.17175c0.03979,0.01605 0.07039,0.05177 0.0889,0.09801l0.16404,0.40244l-0.00839,0.00764l0.00208,0.00548c0.00903,0.02413 0.01806,0.04827 0.02709,0.0724c0.28002,0.41133 0.527,0.86247 0.75901,1.33208c0.10331,-0.04145 0.21705,0.03355 0.36666,0.31201c0.10666,-0.00924 0.21227,-0.02021 0.317,-0.03283c-0.18378,-0.37311 -0.42962,-0.90884 -0.35616,-1.0871c0.23835,-0.57836 1.30739,0.00455 1.55421,0.12387c0.31337,0.1515 0.6199,0.3115 0.92167,0.47923c0.0019,-0.00062 0.0038,-0.00123 0.0057,-0.00184c-0.68236,-1.52724 1.11449,-9.29632 1.79526,-5.03898c0.07435,0.46499 0.14871,0.92998 0.22306,1.39497c0.03425,0.21419 0.07448,0.78491 0.09297,1.48563c1.13188,-1.92653 2.26205,-4.77296 2.87471,-5.97456c0.87534,-1.51034 1.50359,0.81333 1.75235,2.71754c0.48342,-1.67918 1.00622,-3.36898 1.66157,-4.77c0.01449,-0.04877 0.02789,-0.09523 0.04011,-0.13922zM506.1942,233.20659c-0.26101,-0.23886 -0.50396,-0.50492 -0.73236,-0.79648c-0.15551,0.20164 -0.30783,0.39239 -0.46105,0.57276c0.06684,0.0657 0.05973,0.20012 0.05973,0.20012l-0.02143,0.37637c0.03705,0.40742 0.34151,0.69675 0.6807,0.92406c0.12214,-0.46006 0.28355,-0.87976 0.47441,-1.27682zM505.85263,217.63214l0.00376,-0.05505l-0.0971,-0.04378l0.14071,-0.46935c0.03777,-0.12729 0.13799,-0.20131 0.22604,-0.16579c0.07459,0.03009 0.11689,0.1293 0.10775,0.23738l-0.03321,0.48618c-0.00797,0.1166 -0.01402,0.25661 -0.01887,0.41588c0.02688,-0.039 0.0538,-0.07872 0.08076,-0.11914c0.04779,-0.62881 0.05267,-1.26407 -0.05461,-1.93498c-0.06763,-0.42292 -0.41828,-2.71862 -0.52128,-2.54447c-0.55653,0.94091 -1.00716,5.86179 -0.85464,5.79044c0.28066,-0.02752 0.58521,-0.25114 0.90125,-0.60922c0.02757,-0.20008 0.05781,-0.39441 0.08924,-0.5766c0.01078,-0.13804 0.0209,-0.27525 0.03021,-0.41149zM502.68466,219.91536c0.40257,-0.06055 0.79432,-0.14548 1.18578,-0.25115c-0.13668,-0.07064 -0.27456,-0.13966 -0.41381,-0.20698c-0.10113,-0.04889 -1.06766,-0.48545 -1.10968,-0.3835c-0.13743,0.33349 0.09453,0.58478 0.33771,0.84163zM502.46029,223.7554c-0.10339,-0.5582 -0.22172,-1.10255 -0.37422,-1.6137c-0.02379,-0.07975 -0.04456,-0.19087 -0.06445,-0.32007c-0.22268,-0.42876 -0.42562,-0.86803 -0.60503,-1.30484l-0.0258,0.00135c-0.01871,0.00159 -0.03757,-0.00106 -0.05591,-0.00846c-0.00484,-0.00195 -0.00955,-0.0042 -0.01412,-0.00672c0.15354,1.26663 0.30517,2.53402 0.45959,3.80031c0.01137,0.00923 0.01782,0.01663 0.01782,0.01663l0.08205,0.09418c0.06096,0.07524 0.11611,0.15835 0.16613,0.24849c0.03289,-0.44548 0.10891,-0.78768 0.2683,-0.89619c0.03184,-0.02168 0.08155,-0.02434 0.14564,-0.01097zM510.33958,234.5975c-0.31988,0.01498 -0.62562,0.01241 -0.90822,-0.00621l-0.00334,0.01212c0,0 -0.06541,0.23724 -0.2275,0.17255c-0.09807,-0.03914 -0.11285,-0.14144 -0.10923,-0.21615c-0.18169,-0.02202 -0.35043,-0.05148 -0.50319,-0.08789c-0.57451,-0.1375 -1.08591,-0.34891 -1.54674,-0.62814c0.38188,0.36108 0.7274,1.30873 1.07366,2.173c0.58617,0.35383 1.19881,0.64929 1.91811,0.80942c0.06983,-0.26139 0.13803,-0.52562 0.20731,-0.79018c0.01451,-0.47337 0.04408,-0.96443 0.09913,-1.43853zM506.83185,233.70986c-0.16424,-0.11058 -0.32187,-0.23026 -0.47352,-0.35872c-0.03131,0.06324 -0.06076,0.12655 -0.08812,0.18987c-0.10933,0.25299 -0.15736,0.54362 -0.20107,0.83531c0.27479,-0.56852 0.5264,-0.74327 0.76271,-0.66647zM509.91107,237.28631c-0.39815,-0.07328 -0.90886,-0.21325 -1.45488,-0.41466c0.25339,0.73784 0.7411,2.33867 0.90779,2.42247c0.44554,0.22397 0.3857,-1.25641 0.54709,-2.0078zM517.70446,209.89956l0.01375,0.02389c0.04999,0.08686 0.09962,0.17395 0.14891,0.26123c0.36315,-1.30757 0.72631,-2.61514 1.08946,-3.92272c0.01267,-0.0456 0.02514,-0.09364 0.03755,-0.14365c-0.02115,0.04471 -0.04229,0.08942 -0.06343,0.13412c-0.5083,1.07475 -1.01661,2.1495 -1.52491,3.22425c0.33299,-0.03483 0.37223,0.16338 0.29867,0.42288zM523.51447,220.23147c0.39392,0.29721 1.03557,0.45344 1.414,0.86179c-0.35943,-1.3604 -0.71887,-2.72079 -1.07831,-4.08118l-0.00798,-0.00457l0.00389,-0.01092c-0.00539,-0.02041 -0.01079,-0.04082 -0.01618,-0.06123c-0.08971,-0.03447 -0.17777,-0.07428 -0.26429,-0.11899c-0.00165,0.0305 -0.00336,0.061 -0.00515,0.09149l0.01468,-0.00364l0.02052,0.47911c0.00214,0.03651 -0.0017,0.07525 -0.01236,0.1136c-0.03637,0.13093 -0.13834,0.20782 -0.22776,0.17175c-0.0156,-0.00629 -0.02979,-0.01561 -0.04239,-0.0274l-0.2762,-0.24471l0.00537,-0.01085l-0.02945,-0.01578c-0.23266,-0.48257 -0.40076,-0.94058 -0.51432,-1.38987c-0.12307,0.92242 -0.1689,1.88498 -0.23243,2.845c0.26637,0.33325 0.5283,0.65164 0.78624,0.94255c0.10379,0.11706 0.20778,0.23336 0.31196,0.34894c0.04991,0.03874 0.09996,0.07705 0.15015,0.11492zM523.10309,216.03548c0.00552,0.00502 0.01108,0.00995 0.01666,0.01477c-0.00025,-0.0049 -0.0005,-0.00981 -0.00074,-0.01473c-0.11388,-0.12847 -0.22336,-0.26003 -0.3292,-0.39447c0.00857,0.0369 0.01754,0.0739 0.02692,0.111c0.09404,0.10036 0.18943,0.1952 0.28636,0.28343zM523.91786,209.77743l0.15418,-0.34452c0.04467,-0.10398 0.13353,-0.16038 0.21259,-0.12848c0.0803,0.0324 0.12317,0.14488 0.10474,0.26231l-0.03498,0.24377c0.87776,0.07142 1.6624,0.16049 2.14546,0.15029c1.58681,-0.02299 -1.86275,-2.46059 -2.42305,-1.77175c-0.21851,0.26865 -0.41639,0.90793 -0.5811,1.56246c0.14162,0.00748 0.2826,0.01627 0.42216,0.02594zM519.67342,209.73373c0.12791,-0.04317 0.26095,-0.09171 0.39632,-0.14075c0.06199,-0.32686 0.1369,-0.62727 0.22732,-0.89304c-0.19627,0.30566 -0.40478,0.66173 -0.62364,1.03379zM523.10177,214.08584c-0.00029,-0.00669 -0.00058,-0.01338 -0.00087,-0.02006c-0.11239,0.28589 -0.22811,0.57143 -0.34497,0.85435c0.11701,0.14813 0.23372,0.29084 0.34886,0.42714c-0.00004,-0.45955 0.01206,-0.90913 -0.00303,-1.26143zM522.08856,220.72025c-0.05947,0.43299 -0.13614,0.85939 -0.23934,1.27502c0.1731,0.22335 0.35325,0.43333 0.54139,0.62738c0.1313,0.13541 0.5176,0.74932 0.64581,0.79337c0.23515,0.08079 -0.17148,-0.63016 -0.28242,-0.92526c-0.20664,-0.54967 -0.41328,-1.09934 -0.61992,-1.64902c-0.0152,-0.04045 -0.03038,-0.08094 -0.04552,-0.12148zM515.97858,231.82646c-0.11573,0.12061 -0.22959,0.23764 -0.34105,0.35086c-0.055,0.08839 -0.11406,0.17405 -0.17689,0.25703c0.17796,-0.1965 0.35212,-0.39959 0.52153,-0.61029c-0.00119,0.0008 -0.00239,0.0016 -0.00359,0.0024zM514.8541,233.06698c-0.25319,0.21275 -0.53464,0.401 -0.83536,0.56623c-0.02778,0.1 -0.05442,0.19592 -0.07829,0.28186c0.30894,-0.27139 0.61484,-0.55265 0.91365,-0.84809zM513.60033,233.84316c-0.43561,0.19937 -0.90005,0.35635 -1.36978,0.47482c-0.0307,0.08343 -0.066,0.17438 -0.10219,0.26545l0.0212,0.01282c0.066,0.03825 0.10159,0.1346 0.09042,0.23756c0.37335,-0.24337 0.91105,-0.3588 1.19632,-0.48566c0.02371,-0.01997 0.04742,-0.03998 0.07112,-0.06004c-0.00692,-0.04484 -0.00443,-0.09451 0.00919,-0.14356zM511.98609,235.05615l-0.04249,-0.01714c-0.06895,0.17032 -0.0994,0.25303 -0.02953,0.12474c0.0206,-0.03782 0.04477,-0.07364 0.07202,-0.1076zM512.27122,213.35321c0.39906,-0.25897 0.78938,-0.50978 1.17447,-0.75114c-0.24188,-0.36908 -0.47653,-0.74255 -0.71445,-1.08227c-0.14624,0.60846 -0.29636,1.22678 -0.46002,1.83341zM506.16579,218.85181c0.00087,-0.00042 0.00175,-0.00085 0.00262,-0.00127c0.00763,-0.06551 0.01516,-0.13093 0.02252,-0.1963c-0.00757,0.00994 -0.01514,0.01983 -0.02272,0.02966c-0.00083,0.05491 -0.00164,0.11091 -0.00243,0.16791zM510.60748,237.01825c-0.00759,0.00368 -0.01517,0.00738 -0.02273,0.01111c-0.0001,0.02707 -0.00018,0.05408 -0.00023,0.08103c0.00753,-0.03078 0.01519,-0.06149 0.02296,-0.09214zM510.59063,236.48992c0.06162,-0.03412 0.12372,-0.06669 0.18615,-0.09795c0.15212,-0.55036 0.29659,-1.09937 0.31864,-1.69729c-0.00316,-0.0013 -0.00632,-0.00259 -0.00948,-0.00389c-0.10489,0.54483 -0.29624,1.16977 -0.4947,1.76773c-0.00021,0.01047 -0.00042,0.02094 -0.00061,0.0314zM523.21285,210.9818c0.01349,0.09361 0.02676,0.1874 0.03979,0.28133c0.11523,-0.2572 0.23044,-0.51443 0.34562,-0.77167c-0.09223,0.00003 -0.18445,-0.00011 -0.27666,-0.00044c-0.03948,0.17639 -0.07583,0.34279 -0.10874,0.49078zM523.16589,216.56914c-0.03873,-0.02792 -0.07715,-0.05676 -0.11527,-0.08649c0.05327,0.13828 0.11234,0.27892 0.17756,0.42247c-0.02559,-0.10448 -0.04602,-0.21721 -0.06229,-0.33598zM507.60167,235.69074c-0.4146,-1.19989 -0.74019,-2.14799 -1.3247,-0.87653c0.06751,0.03876 0.13043,0.07602 0.18625,0.11237c0.39274,0.25578 0.76499,0.51743 1.13844,0.76416zM512.12659,225.1474c0.63256,-2.2773 0.00838,-5.62374 -0.20222,-7.99112c-0.25881,1.83362 -1.60145,3.87712 -1.50065,5.51595c0.05719,0.92987 0.05088,1.88201 -0.21875,2.89148c0.08546,1.37529 0.10082,2.79724 0.0083,4.22467c0.61903,-1.51082 1.42101,-2.8686 1.91331,-4.64098z"/><path d="M493.63192,232.5306c-0.33142,-0.55173 -0.50218,-1.23461 -0.64803,-1.93184c-0.19981,-0.1675 -0.40708,-0.43958 -0.60953,-0.76595c-0.2208,0.12542 -0.44356,0.24311 -0.66892,0.35263c0.53115,0.87875 1.16185,1.68046 1.92647,2.34517zM493.48153,229.52212c0.01722,-0.14128 0.03386,-0.28302 0.04988,-0.42515c-0.06019,0.04222 -0.12044,0.08389 -0.18078,0.12502c0.04425,0.09883 0.0879,0.19897 0.1309,0.30013zM492.83873,213.74786c0.15368,0.04547 0.27217,0.54823 0.35336,0.9943c0.55744,0.75636 1.14736,1.46261 1.83033,2.04802c0.07188,-0.19145 0.14719,-0.38182 0.22375,-0.5676c-0.96661,-2.32185 -1.44896,-5.69054 -1.89348,-7.26761c-0.14877,-0.97841 -1.71021,0.85244 -2.65751,2.28005c0.65439,0.81985 1.23839,1.70724 1.83197,2.56878c0.1033,-0.06399 0.20762,-0.0867 0.31158,-0.05594zM471.7637,215.07297c-0.24247,0.08082 -1.44877,0.60618 -1.64336,0.44342c-0.77881,-0.65141 0.70973,-1.56475 1.0741,-1.88769c0.5927,-0.52531 1.17957,-1.06337 1.76829,-1.60101c0.0027,-0.01029 0.00541,-0.02057 0.00813,-0.03085c-0.62897,0.17069 -1.26079,0.32198 -1.8909,0.43774c-2.26796,0.83126 -4.53595,1.57282 -6.86615,2.23412c1.53652,-0.05005 4.13864,1.1457 5.44812,1.38379c0.41043,0.07462 1.81072,0.03495 2.09228,0.26195c0.36287,0.29256 0.26343,1.2574 0.28335,1.66418c0.05352,1.09296 0.04608,2.18427 0.04579,3.27833c0.3094,-0.62027 0.83391,-1.27178 1.45451,-1.91642c-0.23152,-0.80593 -0.36175,-1.60277 -0.34783,-2.36351c-0.38485,-0.74148 -0.55678,-1.48573 -0.58986,-2.23068c-0.27544,0.12267 -0.55413,0.23254 -0.83645,0.32664zM487.59093,207.94275c-0.78956,-0.57326 -0.43755,-3.00034 -0.88756,-3.72545c-0.18918,-0.30483 -0.45173,0.5606 -0.63488,0.86909c-0.26375,0.44425 -0.5275,0.88849 -0.79125,1.33274c0.69687,0.51815 1.37679,1.06225 2.05998,1.63275c0.08464,-0.03711 0.16941,-0.07349 0.2537,-0.10913zM489.88532,205.56693c0.36961,1.57929 0.4438,3.3817 0.4674,5.15896c1.0798,-1.71055 2.84831,-3.67367 3.48121,-1.90657c0.38724,1.37384 0.85867,4.50542 1.68726,6.76534c0.29593,-0.6574 0.5719,-1.18321 0.70207,-1.37322c0.28258,-0.41249 0.56515,-0.82499 0.84773,-1.23748c2.58719,-3.77669 2.08576,4.27798 0.54928,5.46517c0.0024,0.00131 0.0048,0.00262 0.0072,0.00393c0.4837,-0.04361 0.97102,-0.07807 1.46456,-0.10184c0.38872,-0.01872 2.09789,-0.16249 2.20577,0.47714c0.03325,0.19715 -0.51471,0.61111 -0.91379,0.89462c0.14056,0.05204 0.28296,0.10284 0.42749,0.15241c0.31513,-0.20682 0.50198,-0.23443 0.62944,-0.1556c0.50326,-0.35655 1.02017,-0.68987 1.56762,-0.9728c0.02185,-0.01943 0.04369,-0.03886 0.06554,-0.05829l0.005,-0.0044l-0.00871,-0.01046l0.38298,-0.31887c0.04353,-0.03677 0.09979,-0.05893 0.16123,-0.05893c0.13807,0 0.25,0.11193 0.25,0.25c0,0.07525 -0.03325,0.14273 -0.08585,0.18857l-0.37433,0.32943c-0.08763,0.07618 -0.17527,0.15237 -0.2629,0.22855c-0.03729,0.04404 -0.07727,0.08739 -0.11937,0.13008c-1.51258,2.52073 -2.95764,5.75113 -4.94003,7.99307l0.02284,0.0137l-0.25489,0.42482c-0.04318,0.07489 -0.12407,0.12531 -0.21673,0.12531c-0.10747,0 -0.1991,-0.06781 -0.23444,-0.16298c-0.81469,1.09116 -1.78013,2.17006 -2.8865,2.55016c0,0 -0.23718,0.07906 -0.31623,-0.15811c-0.07905,-0.23717 0.15812,-0.31623 0.15812,-0.31623c1.8343,-0.58867 2.56817,-2.8068 3.58091,-4.34962c0.09861,-0.21857 0.19981,-0.43647 0.29304,-0.65632c0.02076,-0.04896 0.49643,-1.12686 0.48766,-1.13173c-0.04489,-0.0249 -0.09633,-0.04409 -0.15366,-0.05818c-0.12731,0.18005 -0.25327,0.36168 -0.37878,0.54368c0.00732,0.02351 0.01127,0.04851 0.01127,0.07444c0,0.1328 -0.10354,0.24141 -0.23429,0.24951c-0.71096,1.03275 -1.42491,2.05421 -2.30797,2.84249c-0.49562,0.43895 -0.9849,0.84927 -1.47533,1.22567c-0.06768,0.71313 -0.17758,1.36132 -0.35514,1.75645c0.35417,0.9518 0.63899,1.91718 0.80712,2.66387l0.03692,-0.0145l0.1731,0.44066c0.01249,0.02975 0.01939,0.06242 0.01939,0.09671c0,0.13807 -0.11193,0.25 -0.25,0.25c-0.0536,0 -0.10326,-0.01687 -0.14396,-0.04559l-0.40981,-0.28079c-0.90652,-0.62111 -1.51122,-1.25806 -2.01841,-1.9863l-0.10496,0.32017c-0.35378,0.50156 -1.00715,0.86188 -1.81493,1.11362c-0.00754,0.04796 -0.01578,0.09617 -0.02476,0.14466l0.04795,0.00319l-0.03311,0.49696c-0.0076,0.13124 -0.11643,0.23531 -0.24958,0.23531c-0.0998,0 -0.18594,-0.05848 -0.22603,-0.14304l-0.22118,-0.44237l0.01462,-0.00731l-0.03244,-0.03957c-0.00138,-0.01935 -0.0028,-0.0385 -0.00427,-0.05745c-0.98343,0.21376 -2.10637,0.3048 -3.16913,0.31805c-0.05861,0.04867 -0.1176,0.09646 -0.17695,0.14309c-0.39124,0.30739 -2.49148,2.40701 -2.8996,2.28841c-0.52624,-0.15294 -0.35867,-1.34817 -0.35869,-1.71302c-0.00001,-0.22183 -0.01694,-0.49366 -0.04027,-0.79533c-0.08383,0.19376 -0.16293,0.37228 -0.23321,0.53132l-0.01962,0.46354c-0.00489,0.13376 -0.11487,0.24071 -0.24983,0.24071c-0.10152,0 -0.1889,-0.06051 -0.22806,-0.14743l-0.20462,-0.42922l0.12375,-0.059c-0.19453,-0.49501 -0.26415,-1.07745 -0.23955,-1.67252c-1.05298,-0.62845 -2.19559,-1.18968 -2.69794,-2.04443c-0.37133,-0.63181 -2.10793,-0.72265 -2.5842,-1.61983c0,0 -0.1118,-0.2236 0.11181,-0.33541c0.22361,-0.11181 0.33541,0.11181 0.33541,0.11181c0.43434,0.95003 1.95854,0.84636 2.54242,1.55084c0.55578,0.67056 1.46855,1.1473 2.3535,1.69811c0.06626,-0.44781 0.17976,-0.88763 0.32738,-1.28749c-0.06416,0.00012 -0.12833,0.00021 -0.19249,0.00027c-0.03992,0.28475 -0.14546,0.49201 -0.33646,0.57049c-0.4225,0.17361 -2.0009,-1.17566 -2.36121,-1.41771c-1.08883,-1.19083 -2.27684,-2.52346 -2.92682,-4.00823l-0.3369,-0.16845c-0.08456,-0.04009 -0.14304,-0.12623 -0.14304,-0.22603c0,-0.13807 0.11193,-0.25 0.25,-0.25h0.29053c-0.45216,-0.66925 -0.9047,-1.38922 -1.31965,-2.136c-0.395,0.55146 -0.75918,1.06951 -1.04802,1.53846c-0.09194,0.1404 -0.18387,0.28081 -0.27581,0.42121l-0.23571,0.35994c-0.04432,0.06995 -0.12241,0.11639 -0.21134,0.11639c-0.13807,0 -0.25,-0.11193 -0.25,-0.25v-0.5h0.10114c0.02147,-1.02326 0.53442,-2.09759 1.19206,-3.1182c-0.14074,-0.30756 -0.27171,-0.61701 -0.39051,-0.9268c-0.49139,0.47133 -0.99954,0.90704 -1.53408,1.27841l0.0223,0.02548l-0.37538,0.32845c-0.04409,0.03899 -0.10205,0.06265 -0.16554,0.06265c-0.13807,0 -0.25,-0.11193 -0.25,-0.25v-0.5c0,-1.10688 0.00896,-2.21085 -0.04518,-3.3165c-0.00822,-0.16788 0.06448,-1.18185 -0.09139,-1.29432c-0.2873,-0.20731 -1.91333,-0.17136 -2.36622,-0.25377c-1.65469,-0.30108 -3.70484,-0.62607 -5.30867,-1.32696l-0.00924,0.03135l-0.41067,-0.12107c-0.10638,-0.02873 -0.18466,-0.12591 -0.18466,-0.24138c0,-0.08815 0.04563,-0.16565 0.11455,-0.21016l0.4128,-0.2752l0.00556,0.00834l0.02796,-0.02714c1.74676,-0.51368 3.46435,-1.04502 5.17276,-1.62391c-0.11337,0.00213 -0.22651,0.00244 -0.33939,0.00084l0.00382,0.03094l-0.49236,0.06075c-0.01127,0.00156 -0.02279,0.00236 -0.03449,0.00236c-0.13807,0 -0.25,-0.11193 -0.25,-0.25c0,-0.06411 0.02413,-0.12258 0.06381,-0.16683c0.96478,-1.08614 2.2609,-2.54529 3.22568,-3.63143c-0.05768,-0.0458 -0.09467,-0.11653 -0.09467,-0.1959c0,-0.10923 0.07005,-0.2021 0.16768,-0.23613c0.02642,-0.00991 0.43838,-0.16439 0.4648,-0.1743c0.66002,-0.75342 1.25617,-1.52649 1.82054,-2.32019c0.11289,-0.21425 0.22934,-0.42713 0.3488,-0.63864c-0.10388,-0.99558 -0.13221,-1.94583 -0.01164,-2.74979c-1.04454,-0.29379 -2.08672,-0.5966 -3.13019,-0.90095c-3.08938,-0.91923 3.47389,-3.22944 4.59229,-1.52689c0.27923,0.42508 0.3134,1.29359 0.28519,2.11531c0.06091,0.01515 0.12177,0.03045 0.18253,0.0459c0.15568,-0.22531 0.31196,-0.44875 0.46805,-0.67031c0.14574,-0.24673 0.30386,-0.48357 0.47577,-0.67136c0.07796,-0.10954 0.15567,-0.21861 0.23304,-0.32719l0.28821,-0.40447c0.04514,-0.06506 0.12037,-0.10765 0.20554,-0.10765c0.13807,0 0.25,0.11193 0.25,0.25c0,0.05233 -0.01608,0.10091 -0.04357,0.14106l-0.27445,0.4138l-0.01384,-0.00918l-0.0047,0.00659c-0.01363,0.01912 -0.02724,0.03823 -0.04083,0.05733c-0.19475,0.51084 -0.43842,1.02745 -0.71792,1.54337c0.10504,0.03 0.20927,0.06052 0.31251,0.09159c0.38371,-0.17643 0.77412,-0.24874 1.14886,-0.17138c0.35963,0.07424 0.73981,0.23991 1.1194,0.43791c0.1017,-0.25004 0.20758,-0.49653 0.31823,-0.7388l-0.01707,-0.00482l0.13425,-0.47593c0.02778,-0.10779 0.12564,-0.18742 0.2421,-0.18742c0.08947,0 0.16796,0.047 0.21214,0.11765l0.26934,0.41638l-0.00395,0.00256l0.01414,0.01466c0.28965,0.65637 0.63909,1.33445 0.97369,2.02333c0.29214,0.15151 0.57758,0.30619 0.85721,0.46407c-0.11064,-1.98403 -0.26704,-4.14727 0.12771,-5.95119l-0.04491,-0.00077l0.00855,-0.49939c0.002,-0.13634 0.11315,-0.24625 0.24997,-0.24625c0.13077,0 0.23808,0.1004 0.24907,0.22832l0.04724,0.482c0.15469,0.6411 0.30839,1.28244 0.4623,1.92373c0.40661,1.69422 1.18049,3.76947 1.59996,5.79503c0.00675,0.00485 0.01351,0.0097 0.02026,0.01456c0.58457,-1.11062 1.51295,-2.70735 2.18274,-2.26748c0.71759,0.47126 -0.23043,3.05701 0.29046,3.4933c0.06049,0.05067 1.0832,-0.03 1.83046,-0.06178v-0.18618h0.2009c0.00495,-0.10327 0.00972,-0.20606 0.01421,-0.30832c-0.03634,-0.38977 -0.046,-0.78483 0.03353,-1.10749c0.00089,-0.07862 0.00136,-0.1567 0.00136,-0.2342v-0.5c0,-0.13807 0.11193,-0.25 0.25,-0.25c0.13807,0 0.25,0.11193 0.25,0.25v0.5c0,0.04639 0.00069,0.09557 0.00199,0.14736zM490.17845,232.2238c0.55863,-0.08578 1.09296,-0.24366 1.30154,-0.61584l0.1154,-0.3651c0,0 0.04197,-0.13018 0.16012,-0.16691c-0.14319,-0.22966 -0.2811,-0.46882 -0.41927,-0.71953c-0.42957,0.18911 -0.86953,0.34845 -1.32406,0.4751c0.11186,0.44954 0.17413,0.90929 0.16628,1.39228zM496.37638,216.59507c-0.02663,0.18479 -0.05959,0.38065 -0.09848,0.58092c0.30071,0.46046 0.63733,0.78904 1.01641,0.9225c0.18425,0.12601 1.45643,-4.71275 1.04658,-5.81791c-0.07586,-0.20454 -1.44813,1.83825 -1.70514,2.21343c-0.40771,0.59516 -0.64593,1.19943 -0.82209,1.81401c0.02184,0.04864 0.0439,0.09661 0.06618,0.14387c0.05469,-0.15288 0.10028,-0.28797 0.13419,-0.40158l0.14139,-0.47374c0.02899,-0.10598 0.12598,-0.18388 0.24116,-0.18388c0.13596,0 0.24657,0.10854 0.24992,0.24369l0.01436,0.49891l-0.15171,0.00437l-0.01601,0.05365c-0.03962,0.13276 -0.07849,0.26674 -0.11676,0.40176zM500.80476,218.90153c-0.01902,-0.11275 -1.52941,-0.06855 -1.68868,-0.06087c-0.21932,0.01056 -0.43738,0.02326 -0.6544,0.03796c0.50279,0.24998 1.01397,0.48038 1.54958,0.69182c0.43672,-0.15053 0.85571,-0.30008 0.79351,-0.6689zM499.03977,223.36382c0.17946,0.16387 0.15304,0.51745 0.02689,0.95248c0.10422,-0.06633 0.21284,-0.12405 0.3265,-0.17207l0.15024,-0.05791c0,0 0.01182,-0.00456 0.03116,-0.00896c0.70279,-1.14171 1.40212,-2.28555 2.10382,-3.42791c-0.00731,0.00064 -0.01471,0.00097 -0.02219,0.00097c-0.0283,0 -0.05551,-0.0047 -0.08088,-0.01337l-0.03531,-0.01116c-0.41759,0.34558 -0.86878,0.68449 -1.34333,1.00588c-0.07745,0.11491 -0.14914,0.21234 -0.21293,0.27886c-0.40889,0.42637 -0.78314,0.89729 -1.14197,1.38707c0.09414,0.01185 0.16214,0.03339 0.198,0.06613zM483.30275,231.9666c-0.00584,0.27738 -0.01304,0.55403 -0.0169,0.82862c1.0605,0.12334 2.02511,0.07755 2.97546,-0.03372c0.81411,-0.68709 1.65935,-1.45354 2.32884,-1.64985c-0.74754,0.08848 -1.53916,0.09331 -2.38989,0.00391c-0.22614,-0.02392 -0.4718,-0.06053 -0.73257,-0.10916c-0.02379,0.07223 -0.08378,0.16358 -0.23503,0.16318c-0.25,-0.00067 -0.24933,-0.25066 -0.24933,-0.25066l0.00004,-0.01277c-0.39957,-0.09046 -0.82508,-0.205 -1.26345,-0.34158c-0.10642,0.47063 -0.25474,0.94761 -0.41717,1.40205zM489.73468,231.9886c0.05181,-0.29333 0.0972,-0.5873 0.04298,-0.86903c-0.01357,-0.07052 -0.03005,-0.14181 -0.04913,-0.21376c-0.2601,0.0638 -0.52513,0.11697 -0.79582,0.15901c0.35773,0.01758 0.63969,0.27955 0.80197,0.92379zM483.26316,235.39149c0.26377,-0.01569 1.55835,-1.34714 2.19475,-1.94987c-0.83582,-0.0179 -1.59893,-0.08056 -2.18001,-0.16339c-0.0657,0.77428 -0.71974,2.15519 -0.01473,2.11326zM483.59706,204.03969c-0.29127,-1.21362 -0.58254,-2.42725 -0.87381,-3.64087c-0.01212,-0.05049 -0.02423,-0.10097 -0.03635,-0.15146c-0.00206,0.05218 -0.00326,0.1025 -0.00327,0.15059c-0.00006,1.37888 -0.00013,2.75775 -0.00019,4.13663c0.1021,-0.06392 0.2046,-0.1275 0.30751,-0.19075l0.0283,-0.01739c-0.00205,-0.27421 0.12888,-0.44717 0.5778,-0.28674zM471.22013,211.84963c0.18924,-0.06975 0.37848,-0.14025 0.56774,-0.21154c0.47035,-0.17718 0.95683,-0.37889 1.4552,-0.593c0.28205,-0.93466 0.58965,-1.86497 0.77452,-2.78676c-0.33096,0.3826 -0.74101,0.75261 -1.25017,1.12121l-0.04698,0.0037l0.00327,0.01235l-0.47788,0.12639c-0.02204,0.00636 -0.04533,0.00976 -0.06942,0.00976c-0.13807,0 -0.25,-0.11193 -0.25,-0.25c0,-0.04045 0.0096,-0.07865 0.02666,-0.11245l0.21327,-0.44647l0.01898,0.00907c0.00928,-0.0296 0.01866,-0.05918 0.02814,-0.08873c-0.13738,0.00929 -0.275,0.01336 -0.41286,0.01172c-0.01536,0.01729 -0.03072,0.03458 -0.04608,0.05187l0.00118,0.01184l-0.01285,0.00128c-1.02375,1.15252 -2.04749,2.30504 -3.07124,3.45756c0.68294,-0.24245 1.63411,-0.14513 2.2957,-0.27626c0.08429,-0.01671 0.16856,-0.03389 0.2528,-0.05153zM473.66375,207.92037c0.02734,-0.03159 0.05407,-0.06324 0.08019,-0.09496c-0.19882,0.08699 -0.40156,0.16987 -0.60924,0.24812c-0.00223,0.00457 -0.00447,0.00913 -0.00671,0.01368c0.00962,-0.00244 0.01923,-0.00498 0.02884,-0.00763c0.16861,-0.04658 0.33765,-0.10002 0.50692,-0.15922zM475.03528,201.97043c0.02374,-0.68368 -0.00445,-1.36561 -0.20425,-1.70396c-0.51231,-0.86758 -6.24211,0.12423 -4.04771,0.75311c0.66679,0.19448 1.79061,0.4102 3.03692,0.67829l0.04544,-0.24454c0.0197,-0.1184 0.12261,-0.20867 0.2466,-0.20867c0.12207,0 0.2237,0.08748 0.24562,0.20317l0.0812,0.38569c0.19751,0.04423 0.39665,0.08982 0.59617,0.13691zM479.88212,202.197c0.02305,0.28662 0.0112,0.60014 -0.02879,0.93381c0.16904,0.0983 0.33505,0.19522 0.496,0.28509c-0.1604,-0.43654 -0.31257,-0.85397 -0.46721,-1.21891zM473.41989,207.42633c0.21244,-0.0852 0.42953,-0.17589 0.64913,-0.27159c-0.05314,-0.31299 -0.1037,-0.62804 -0.14948,-0.94214c-0.00298,0.00623 -0.00596,0.01246 -0.00894,0.0187c-0.15682,0.32831 -0.31341,0.75927 -0.49071,1.19503zM472.64863,213.00797c-0.49892,0.44219 -0.99783,0.88437 -1.49675,1.32656c-0.26785,0.23739 -1.10665,0.75601 -0.74899,0.76936c0.195,0.00728 0.96816,-0.42708 1.20269,-0.50526c0.33608,-0.11203 0.6672,-0.24222 0.99368,-0.3878c0.01699,-0.43361 0.075,-0.8673 0.15942,-1.30064c-0.03666,0.03265 -0.07334,0.06525 -0.11006,0.09778zM476.95488,225.77585c0.15395,0.26461 0.31745,0.52383 0.48876,0.77825c-0.05523,-0.10273 -0.1042,-0.20656 -0.14648,-0.31141c-0.1111,-0.15002 -0.22406,-0.30455 -0.33823,-0.4632c-0.00135,-0.00121 -0.0027,-0.00243 -0.00406,-0.00364zM478.98333,228.53982c0,-0.09063 0,-0.19178 0,-0.29723c-0.35382,-0.27174 -0.67201,-0.55794 -0.94151,-0.85654c0.30095,0.39448 0.61721,0.77823 0.94151,1.15377zM479.48333,228.91957c0,0.05172 -0.01571,0.09977 -0.04261,0.13965c0.02517,0.02809 0.05037,0.05614 0.0756,0.08415c0.34716,0.22943 1.04924,0.54461 1.47377,0.91822c0.0242,-0.1019 0.11078,-0.17965 0.21717,-0.19068l0.03439,-0.00405c-0.01512,-0.10021 -0.02906,-0.19996 -0.03952,-0.29082c-0.60653,-0.29204 -1.19085,-0.61859 -1.7188,-0.9743zM481.31536,230.49915c0.04754,0.14839 0.03716,0.05831 0.0071,-0.12958h-0.06561c0.02474,0.04263 0.04449,0.08583 0.05851,0.12958zM489.29964,207.76552c-0.46139,0.23113 -0.93122,0.49551 -1.40942,0.75296c0.44161,0.37619 0.88683,0.76336 1.34104,1.16161c0.00673,-0.63786 0.03676,-1.28163 0.06838,-1.91457zM495.6493,217.06994c-0.00672,-0.01222 -0.01342,-0.02449 -0.0201,-0.03682c-0.01499,0.0648 -0.02976,0.12972 -0.04444,0.19476c0.00105,0.00074 0.0021,0.00147 0.00315,0.00221c0.02088,-0.05435 0.04136,-0.10776 0.06138,-0.16015zM482.41065,232.85377c0.01032,-0.02558 0.02064,-0.05122 0.03094,-0.07692c-0.00907,-0.00642 -0.01816,-0.01284 -0.02728,-0.01923c-0.00104,0.03203 -0.00224,0.06409 -0.00365,0.09616zM482.65272,232.23303c-0.04493,-0.64296 -0.06961,-1.30878 -0.00511,-1.86556c-0.00489,0.00002 -0.00978,0.00004 -0.01467,0.00006c-0.19998,0.57544 -0.21113,1.15132 -0.21217,1.73141c0.07464,0.05353 0.14829,0.10816 0.22069,0.1641c0.00376,-0.01 0.00751,-0.02 0.01126,-0.03001zM474.99181,202.7383c-0.12816,-0.03497 -0.25626,-0.07012 -0.38432,-0.10543c0.06071,0.28801 0.12147,0.576 0.18227,0.86399c0.05432,-0.08409 0.10891,-0.16794 0.16375,-0.25155c0.01137,-0.15292 0.02508,-0.32463 0.03829,-0.507zM472.64774,208.85639c0.14592,-0.11118 0.28219,-0.22194 0.40948,-0.33269c-0.0644,0.01361 -0.12887,0.02626 -0.19341,0.03792c-0.0684,0.10641 -0.14025,0.20549 -0.21607,0.29477zM488.97527,232.35963c0.09153,-0.01312 0.19326,-0.02438 0.30195,-0.03531c-0.32122,-1.42931 -1.13894,-0.65481 -2.17738,0.3244c0.61369,-0.09109 1.23148,-0.1968 1.87544,-0.28909zM485.75003,226.0525c0.42207,-1.38899 0.9918,-2.73153 1.64089,-4.00298c0.01495,-1.06041 0.37341,-1.96572 0.81144,-2.82561c0.77201,-1.51549 -0.30409,-3.96696 0.04373,-5.80476c-1.20545,2.16437 -3.36276,5.09892 -3.36276,7.50043c0,1.86905 0.58987,3.46343 0.8667,5.13293z"/></g><g fill="#ffffff" stroke="none" stroke-width="0.5"><path d="M548.75739,214.0606c1.77562,-2.57144 4.34955,-3.77223 7.35247,-5.29849c3.53838,-0.12577 5.90388,-0.10499 9.39109,0.9955c2.98001,1.15256 6.75972,3.19733 7.86224,6.45604c1.11704,3.31898 1.98576,6.63725 2.61072,10.08489c0.54876,3.38959 1.30815,7.05549 -0.0773,10.30934c-1.38193,3.24497 -2.90837,5.89442 -5.37709,8.42043c-2.07121,2.11689 -5.62192,5.38673 -8.69616,5.69674c-3.83484,0.35432 -6.45999,-1.32806 -9.89702,-2.95374c-2.93496,-1.38821 -5.55744,-4.58805 -7.02462,-7.39097c-1.69794,-3.24376 -2.87615,-6.07925 -3.25506,-9.76883c-0.3688,-3.61303 0.27999,-6.90086 1.58163,-10.24249c0.88798,-2.27944 2.738,-4.2162 4.83499,-5.56325c0.00118,-0.00307 0.00191,-0.00472 0.00191,-0.00472l0.23009,-0.48886c0.01909,-0.01031 0.03817,-0.02061 0.05726,-0.03092c-0.01049,-0.07456 0.00382,-0.17821 0.13312,-0.24588c0.12461,-0.06523 0.21581,-0.02365 0.27175,0.02519zM555.49961,231.2855c0.64031,1.22326 2.15104,1.69583 3.3743,1.05552c1.22326,-0.64031 1.69583,-2.15104 1.05552,-3.3743c-0.64031,-1.22326 -2.15104,-1.69583 -3.3743,-1.05552c-1.22326,0.64031 -1.69583,2.15104 -1.05552,3.3743z"/><path d="M593.71359,212.77348c0.09187,0.04763 0.10685,0.14776 0.10341,0.22285c0.01358,0.00735 0.02716,0.01469 0.04073,0.02203l0.18193,0.44818c0,0 0.00058,0.00151 0.00154,0.00437c1.50252,1.01854 2.86552,2.65531 3.58726,4.77243c1.05798,3.10369 1.66647,6.2509 1.5948,9.86942c-0.07475,3.69552 -0.73925,6.66681 -1.73903,10.1177c-0.8639,2.9819 -2.49861,6.52624 -4.43779,8.32979c-2.27091,2.11207 -3.98336,4.15995 -6.62558,4.37775c-2.11946,0.14898 -4.71306,-2.55118 -6.23645,-4.33292c-1.81591,-2.1265 -2.99311,-4.51415 -4.1012,-7.51062c-1.11094,-3.00471 -0.77462,-6.73316 -0.56861,-10.15791c0.25524,-3.49328 0.68379,-6.895 1.28224,-10.33416c0.59153,-3.37755 3.076,-5.95371 5.05781,-7.53147c2.33153,-1.60142 3.94939,-1.97187 6.37728,-2.37125c2.13148,1.06129 3.9531,1.86501 5.29693,4.13885c0.03584,-0.05646 0.09618,-0.11096 0.18472,-0.06505zM588.8851,227.6546c-0.8692,-0.45066 -1.87947,0.23899 -2.2565,1.54036c-0.37703,1.30137 0.02197,2.72167 0.89117,3.17233c0.8692,0.45066 1.87947,-0.23899 2.2565,-1.54036c0.37703,-1.30137 -0.02197,-2.72167 -0.89117,-3.17233z"/><path d="M559.53549,251.98666c-0.01047,0.24978 -0.26025,0.23931 -0.26025,0.23931l-0.01537,-0.00064c-1.39579,-0.06195 -2.63722,-0.66018 -4.01633,-0.86669c-2.63159,-0.4651 -4.42624,-3.22985 -7.01846,-3.8542c0,0 -0.24254,-0.06063 -0.1819,-0.30317c0.06063,-0.24254 0.30317,-0.1819 0.30317,-0.1819c2.50501,0.64552 4.43925,3.56168 6.97124,3.84478c1.3599,0.20363 2.59156,0.80783 3.96323,0.86161l0.01537,0.00064c0,0 0.24978,0.01047 0.23931,0.26025z"/><path d="M570.95146,246.61142c0.07906,0.23717 -0.15811,0.31623 -0.15811,0.31623l-0.31163,0.06088c0.01394,1.04695 -1.83785,1.3847 -1.83,2.23011c-1.39465,2.41488 -4.79782,3.43612 -7.50885,3.43612c0,0 -0.25,0 -0.25,-0.25c0,-0.25 0.25,-0.25 0.25,-0.25c2.50859,0 5.68782,-0.90135 7.03026,-3.08087c0.09768,-1.00498 1.73481,-1.2928 1.9166,-2.39575l0.54551,-0.22483c0,0 0.23717,-0.07906 0.31623,0.15811z"/><path d="M583.3863,250.60449c-0.05687,0.24345 -0.30032,0.18658 -0.30032,0.18658l-0.49451,-0.11902c-0.27517,-0.18165 -0.54805,-0.45932 -0.60248,-0.78451c-2.02417,0.18536 -5.3524,-3.70676 -5.09363,-5.51812c0,0 0.03536,-0.24749 0.28284,-0.21213c0.24749,0.03536 0.21213,0.28284 0.21213,0.28284c-0.26621,1.86347 3.01985,4.92185 4.90637,5.05331c0.08735,0.27545 0.23639,0.57347 0.48713,0.7171l0.41588,0.09365c0,0 0.24345,0.05687 0.18658,0.30032z"/><path d="M594.37856,246.02979c0.23212,0.09285 0.13927,0.32497 0.13927,0.32497l-0.12949,0.31157c-0.10606,1.48827 -2.28282,2.47247 -3.19851,3.54293c-1.59202,0.42767 -5.37993,2.6837 -6.79518,1.37228c0,0 -0.17678,-0.17678 0,-0.35355c0.17678,-0.17678 0.35355,0 0.35355,0c0.97168,1.09949 4.91783,-1.16342 6.17496,-1.44168c0.68422,-0.8617 3.09937,-2.03821 2.9742,-3.21453l0.15623,-0.40271c0,0 0.09285,-0.23212 0.32497,-0.13927z"/></g></g></g></svg>