<svg version="1.1" xmlns="http://www.w3.org/2000/svg" xmlns:xlink="http://www.w3.org/1999/xlink" width="67.26581" height="220.96858" viewBox="0,0,67.26581,220.96858"><g transform="translate(-327.26584,-70.76965)"><g data-paper-data="{&quot;isPaintingLayer&quot;:true}" fill-rule="nonzero" stroke="none" stroke-width="0" stroke-linecap="butt" stroke-linejoin="miter" stroke-miterlimit="10" stroke-dasharray="" stroke-dashoffset="0" style="mix-blend-mode: normal"><path d="M367.85036,112.76178c0,3.77772 7.49287,14.78217 5.51276,18.66959c-2.57924,5.06366 -23.08556,2.58041 -25.67107,2.58041c-4.57044,0 3.60728,-12.55151 3.60728,-21.25c0,-8.69849 8.79771,-19.25 13.36814,-19.25c4.57044,0 3.18289,10.55151 3.18289,19.25z" fill="#d0d0d0"/><path d="M355.43821,122.35913c-14.08326,0 -20.7,-9.34608 -20.7,-22.17713c0,-12.83105 7.41674,-23.23268 21.5,-23.23268c14.08326,0 21.5,9.94608 21.5,22.77713c0,12.83105 -8.21674,22.63268 -22.3,22.63268z" data-paper-data="{&quot;index&quot;:null}" fill="#ffffff"/><g data-paper-data="{&quot;index&quot;:null}" fill="#ffffff"><path d="M335.90386,145.17539c1.3839,-8.29259 4.49465,-3.39139 6.99395,-3.39139c1.86366,0 5.35737,-4.04227 6.67882,0.91562c1.65245,6.19982 0.91535,22.51045 0.91535,32.88232c0,18.66609 -2.95331,22.9826 -7.14745,22.9826c-4.19413,0 -8.04088,-4.31651 -8.04088,-22.9826c0,-7.54287 -0.33824,-24.78319 0.60021,-30.40655z"/><path d="M351.23146,208.75336c-2.67551,0.81976 -8.2754,4.94211 -11.78857,2.30509c-3.27152,-2.45564 -4.55398,-11.58497 -4.68597,-13.40918c-0.43049,-5.95038 3.20529,-11.19657 8.12076,-11.71771c1.00653,-0.10671 5.2358,-1.57428 8.82699,-0.02394c3.91462,1.68998 5.27838,13.2782 4.60724,14.21105c-3.40502,4.73282 -4.00075,-7.76035 -3.7545,-4.35661c0.1568,2.16719 1.63394,12.08441 -1.32595,12.9913z"/></g><path d="M342.82585,279.25895c-1.0543,-10.63364 -7.55912,-4.95797 -6.21119,-42.58025c-0.08399,-25.52322 6.17091,-41.4911 12.79709,-45.20664c4.62214,-2.5918 19.00579,-2.41726 23.62621,0.97348c4.65729,3.41779 12.0695,24.29576 13.19414,47.95313c1.96716,24.33049 -2.7524,23.01993 -2.1435,30.42593c1.74242,21.1926 -13.7025,18.02681 -16.95613,13.22271c-4.19089,-6.188 -7.94747,-74.35724 -7.94747,-74.35724c0,0 4.79237,69.56324 1.19833,74.67126c-3.85017,5.47204 -16.54656,5.09372 -17.55748,-5.10238z" data-paper-data="{&quot;index&quot;:null}" fill="#06082a"/><path d="M331.4281,147.66691c0,-9.38884 5.88474,-17 13.14394,-17c7.2592,0 6.57197,9.61116 6.57197,19c0,9.38884 -19.71591,7.38884 -19.71591,-2z" data-paper-data="{&quot;index&quot;:null}" fill="#1b0b55"/><path d="M355.96149,125.41178c5.58595,0 13.19217,-2.57278 16.33055,-2.14074c6.7019,0.92261 8.53424,4.60335 8.53424,18.61468c0,5.52878 1.86686,56.23669 -4.78771,59.21632c-9.79723,4.38678 -18.2742,6.21759 -29.39003,4.24689c-2.67466,-0.47418 -3.27171,-1.72224 -3.51169,-4.78462c-0.24908,-3.17839 -0.74446,-33.18824 -2.3406,-37.71291c-1.75317,-4.96981 -7.42361,-7.45498 -7.46024,-14.45849c-0.0348,-6.65328 2.47406,-9.92628 8.74555,-15.14467c1.4188,-1.18055 2.31856,-7.9164 4.23075,-8.63602c3.14883,-1.18502 5.56806,0.79956 9.64919,0.79956z" fill="#2b1289"/><path d="M340.87223,205.66596l1.75,-7.375c0,0 2.20144,2.375 8.6875,2.375c7.46045,0 29.5625,-2.25 29.5625,-2.25l0.875,8.5c0,0 -22.86687,0.75 -30.3125,0.75c-6.51233,0 -10.5625,-2 -10.5625,-2z" fill="#1d1d1d"/><path d="M347.46161,100.42892c0,6.07513 -1.10845,11 -2.47577,11c-1.13317,0 -2.08852,-3.38249 -2.38251,-7.99897c-0.06075,-0.95397 -2.16118,-2.14045 -2.16118,-3.18085c0,-1.34914 2.12259,-2.46173 2.22262,-3.65608c0.35039,-4.18374 4.79685,-2.23923 4.79685,3.8359z" fill="#000000"/><path d="M333.55606,285.74374c0,-7.99265 6.47932,-14.47197 14.47197,-14.47197c3.0553,0 10.22235,6.98374 10.22235,6.98374c0,0 3.42934,-4.39682 4.51817,-2.38185c1.10447,2.04394 -0.26855,7.38379 -0.26855,9.87008c0,7.99265 -28.94394,7.99265 -28.94394,0z" fill="#111111"/><path d="M365.58771,285.74374c0,-2.48629 -1.37302,-7.82614 -0.26855,-9.87008c1.08882,-2.01497 4.51817,2.38185 4.51817,2.38185c0,0 7.16706,-6.98374 10.22235,-6.98374c7.99265,0 14.47197,6.47932 14.47197,14.47197c0,7.99265 -28.94394,7.99265 -28.94394,0z" data-paper-data="{&quot;index&quot;:null}" fill="#111111"/><path d="M357.52532,96.11833c0.10003,1.19434 2.22261,2.30693 2.22261,3.65608c0,1.0404 -2.10044,2.22688 -2.16118,3.18085c-0.29399,4.61648 -1.24935,7.99897 -2.38251,7.99897c-1.36732,0 -2.47577,-4.92487 -2.47577,-11c0,-6.07513 4.44646,-8.01963 4.79685,-3.83589z" data-paper-data="{&quot;index&quot;:null}" fill="#000000"/><path d="M369.16346,157.71581c-0.22133,1.37596 3.15458,-33.7903 1.89989,-51.10338c-0.44969,-6.20512 -5.44392,-9.86386 -13.46299,-11.25554c-12.0532,-2.0918 -9.3985,-10.88493 -11.3222,-10.88493c-10.90447,0 -12.07976,15.69772 -12.99437,11.05966c-0.36648,-1.85846 -6.25472,4.26731 -6.01056,1.41684c0.27767,-3.24163 6.8732,-15.52585 9.74872,-18.55914c4.61158,-4.86463 13.80122,-8.44089 31.5374,-7.4557c7.37054,0.40941 10.97086,3.39189 12.20078,5.94357c6.3131,13.09762 10.51226,16.91832 3.93494,50.05813c-1.22418,6.16804 -9.82834,-4.67534 -15.53162,30.78051z" fill="#290606"/><g><g fill="#ffffff"><path d="M390.56636,176.53056c0,18.66609 -3.84674,22.9826 -8.04088,22.9826c-4.19413,0 -7.14745,-4.31651 -7.14745,-22.9826c0,-10.37187 -0.7371,-26.68251 0.91535,-32.88232c1.32145,-4.95789 4.81516,-0.91562 6.67882,-0.91562c2.49931,0 5.61005,-4.90121 6.99395,3.39139c0.93845,5.62337 0.60021,22.86368 0.60021,30.40656z"/><path d="M373.3126,196.71068c0.24626,-3.40374 -0.34947,9.08943 -3.7545,4.35661c-0.67114,-0.93285 0.69263,-12.52108 4.60724,-14.21105c3.59118,-1.55034 7.82045,-0.08277 8.82699,0.02394c4.91547,0.52113 8.55126,5.76733 8.12076,11.71771c-0.13198,1.82422 -1.41445,10.95356 -4.68597,13.40918c-3.51316,2.63701 -9.11306,-1.48534 -11.78857,-2.30509c-2.9599,-0.90689 -1.48274,-10.82411 -1.32595,-12.9913z"/></g><path d="M373.02464,148.61554c0,-9.38884 -0.68723,-19 6.57198,-19c7.2592,0 13.14394,7.61116 13.14394,17c0,9.38884 -19.71591,11.38884 -19.71591,2z" fill="#3516a6"/></g></g></g></svg>