<svg version="1.1" xmlns="http://www.w3.org/2000/svg" xmlns:xlink="http://www.w3.org/1999/xlink" width="758.25828" height="396.35262" viewBox="0,0,758.25828,396.35262"><defs><radialGradient cx="360.00001" cy="78.81896" r="52.55255" gradientUnits="userSpaceOnUse" id="color-1"><stop offset="0" stop-color="#cfff66" stop-opacity="0.48627"/><stop offset="1" stop-color="#cfff66" stop-opacity="0"/></radialGradient><linearGradient x1="-16.79205" y1="181.05806" x2="144.03904" y2="181.05806" gradientUnits="userSpaceOnUse" id="color-2"><stop offset="0" stop-color="#000000"/><stop offset="1" stop-color="#000000" stop-opacity="0"/></linearGradient><linearGradient x1="739.12914" y1="177.81481" x2="578.29806" y2="177.81481" gradientUnits="userSpaceOnUse" id="color-3"><stop offset="0" stop-color="#000000"/><stop offset="1" stop-color="#000000" stop-opacity="0"/></linearGradient><linearGradient x1="360.25526" y1="-17.14014" x2="360.25526" y2="110.48749" gradientUnits="userSpaceOnUse" id="color-4"><stop offset="0" stop-color="#000000"/><stop offset="1" stop-color="#000000" stop-opacity="0"/></linearGradient><linearGradient x1="359.24926" y1="377.38043" x2="359.24926" y2="249.7528" gradientUnits="userSpaceOnUse" id="color-5"><stop offset="0" stop-color="#000000"/><stop offset="1" stop-color="#000000" stop-opacity="0"/></linearGradient><radialGradient cx="359.51665" cy="73.86374" r="246.02951" gradientUnits="userSpaceOnUse" id="color-6"><stop offset="0" stop-color="#cfff66" stop-opacity="0.48627"/><stop offset="1" stop-color="#cfff66" stop-opacity="0"/></radialGradient></defs><g transform="translate(19.12914,17.3804)"><g data-paper-data="{&quot;isPaintingLayer&quot;:true}" fill-rule="nonzero" stroke-linejoin="miter" stroke-miterlimit="10" stroke-dasharray="" stroke-dashoffset="0" style="mix-blend-mode: normal"><path d="M-12.99999,375.22223v-382.59632h746v382.59632z" fill="#301f10" stroke="#401f00" stroke-width="7.5" stroke-linecap="butt"/><path d="M-12.4129,360.00001v-160.3741h746v160.3741z" fill="#301f10" stroke="#401f00" stroke-width="7.5" stroke-linecap="butt"/><path d="M0.00001,360.00001v-360l295,116l1,128.5z" fill="#966031" stroke="none" stroke-width="7.5" stroke-linecap="butt"/><path d="M720.00001,0.00001v360l-295,-116l-1,-128.5z" fill="#966031" stroke="none" stroke-width="7.5" stroke-linecap="butt"/><path d="M296.00001,244.00001v-128h128v128z" fill="#000000" stroke="none" stroke-width="5" stroke-linecap="butt"/><path d="M45.63334,304.50001v-249l204.04167,80.23333l0.69167,88.87917z" fill="#482e18" stroke="#211000" stroke-width="7.5" stroke-linecap="butt"/><path d="M469.63335,224.61251l0.69167,-88.87916l204.04166,-80.23333v249z" data-paper-data="{&quot;index&quot;:null}" fill="#482e18" stroke="#211000" stroke-width="7.5" stroke-linecap="butt"/><g stroke="#000000" stroke-width="0" stroke-linecap="butt"><path d="M319.39322,68.01175c0,-6.97411 18.18028,-12.62776 40.60679,-12.62776c22.42651,0 40.60677,5.65364 40.60677,12.62776c0,6.97411 -18.74426,18.83157 -41.17077,18.83157c-22.42651,0 -40.04279,-11.85746 -40.04279,-18.83157z" fill="#060606"/><path d="M326.63506,74.76875c0,-5.73034 14.93801,-10.37571 33.36494,-10.37571c18.42696,0 33.36494,4.64538 33.36494,10.37572c0,5.73034 -15.4014,15.47315 -33.82836,15.47315c-18.42696,0 -32.90154,-9.74279 -32.90154,-15.47315z" fill="#cfff66"/></g><g fill="none" stroke="#424242" stroke-width="4" stroke-linecap="round"><path d="M296.39322,243.50673c0,0 6.98682,-108.49593 11.40225,-124.89481c1.01612,-3.77386 1.87493,-3.39526 1.87493,0.72824c0,14.14184 0,95.12801 0,121.41952c0,5.18361 1.14782,3.70102 2.4097,-1.29028c3.71128,-14.67975 5.45314,-87.67646 12.63056,-116.06631c1.75945,-6.95939 2.83287,-6.76772 2.83287,-1.86529c0,18.14951 -1.53198,121.41952 -1.53198,121.41952"/><path d="M326.39322,243.50674c0,0 6.98682,-108.49592 11.40225,-124.89481c1.01612,-3.77385 1.87493,-3.39526 1.87493,0.72824c0,14.14184 0,95.12801 0,121.41952c0,5.18361 1.14782,3.70102 2.4097,-1.29028c3.71128,-14.67975 5.45314,-87.67645 12.63056,-116.0663c1.75945,-6.9594 2.83288,-6.76772 2.83288,-1.8653c0,18.14951 -1.53199,121.41952 -1.53199,121.41952"/><path d="M357.89324,243.50673c0,0 6.98682,-108.49592 11.40225,-124.89481c1.01612,-3.77385 1.87493,-3.39526 1.87493,0.72824c0,14.14184 0,95.12801 0,121.41952c0,5.18361 1.14782,3.70102 2.4097,-1.29028c3.71128,-14.67975 5.45314,-87.67645 12.63056,-116.0663c1.75945,-6.9594 2.83288,-6.76772 2.83288,-1.8653c0,18.14951 -1.53199,121.41952 -1.53199,121.41952"/><path d="M387.89324,243.50674c0,0 6.98682,-108.49592 11.40225,-124.89481c1.01612,-3.77385 1.87493,-3.39526 1.87493,0.72824c0,14.14184 0,95.12801 0,121.41952c0,5.18361 1.14782,3.70102 2.4097,-1.29028c3.71128,-14.67975 5.45314,-87.67645 12.63056,-116.0663c1.75945,-6.9594 2.83288,-6.76772 2.83288,-1.8653c0,18.14951 -1.53199,121.41952 -1.53199,121.41952"/></g><path d="M307.44746,78.81896c0,-29.02397 23.52858,-52.55255 52.55255,-52.55255c29.02398,0 52.55255,23.52858 52.55255,52.55255c0,29.02398 -23.52858,52.55256 -52.55255,52.55256c-29.02398,0 -52.55255,-23.52858 -52.55255,-52.55256z" fill="url(#color-1)" stroke="none" stroke-width="0" stroke-linecap="butt"/><g stroke="none" stroke-width="0" stroke-linecap="butt"><path d="M-16.79205,376.25325v-390.39039h160.83108v390.39039z" fill="url(#color-2)"/><path d="M578.29806,373.01v-390.39039h160.83109v390.39039z" data-paper-data="{&quot;index&quot;:null}" fill="url(#color-3)"/><path d="M-18.12313,110.48749v-127.62763h756.75676v127.62763z" fill="url(#color-4)"/><path d="M737.62763,249.7528v127.62762h-756.75676v-127.62762z" data-paper-data="{&quot;index&quot;:null}" fill="url(#color-5)"/></g><path d="M113.97051,310.81538c0,0 131.48164,-204.85145 219.57717,-241.80555c8.82848,-3.70335 17.72123,-4.74059 25.50226,-4.74059c8.52859,0 20.32101,-0.03323 30.13972,4.40776c88.52792,40.04108 216.83986,244.07182 216.83986,244.07182z" fill="url(#color-6)" stroke="none" stroke-width="0" stroke-linecap="butt"/></g></g></svg>