<svg version="1.1" xmlns="http://www.w3.org/2000/svg" xmlns:xlink="http://www.w3.org/1999/xlink" width="76.33333" height="101" viewBox="0,0,76.33333,101"><defs><linearGradient x1="359.50615" y1="164.33664" x2="359.50615" y2="185.50269" gradientUnits="userSpaceOnUse" id="color-1"><stop offset="0" stop-color="#f3b46b"/><stop offset="1" stop-color="#d79d5c"/></linearGradient><linearGradient x1="368.45448" y1="149.72958" x2="368.45448" y2="153.13838" gradientUnits="userSpaceOnUse" id="color-2"><stop offset="0" stop-color="#e3a052"/><stop offset="1" stop-color="#f2aa58"/></linearGradient><linearGradient x1="350.29617" y1="149.69485" x2="350.29617" y2="153.25534" gradientUnits="userSpaceOnUse" id="color-3"><stop offset="0" stop-color="#e3a052"/><stop offset="1" stop-color="#f2aa58"/></linearGradient><radialGradient cx="375.89968" cy="174.92259" r="4.78275" gradientUnits="userSpaceOnUse" id="color-4"><stop offset="0" stop-color="#e20000"/><stop offset="1" stop-color="#b40000"/></radialGradient><radialGradient cx="344.76832" cy="174.51678" r="4.78275" gradientUnits="userSpaceOnUse" id="color-5"><stop offset="0" stop-color="#e20000"/><stop offset="1" stop-color="#b40000"/></radialGradient><radialGradient cx="348.35276" cy="180.07023" r="0.73359" gradientUnits="userSpaceOnUse" id="color-6"><stop offset="0" stop-color="#000000" stop-opacity="0.13725"/><stop offset="1" stop-color="#000000" stop-opacity="0"/></radialGradient></defs><g transform="translate(-321.83333,-129.5)"><g data-paper-data="{&quot;isPaintingLayer&quot;:true}" fill-rule="nonzero" stroke-linejoin="miter" stroke-miterlimit="10" stroke-dasharray="" stroke-dashoffset="0" style="mix-blend-mode: normal"><path d="M321.83333,230.5v-101h76.33333v101z" fill="#273042" stroke="none" stroke-width="0" stroke-linecap="butt"/><path d="M329.75471,196.83333v-61.66667h60.49068v61.66667z" fill="#0b0e13" stroke="none" stroke-width="0" stroke-linecap="butt"/><path d="M343.0835,227.33333v-17.33333h33.83333v17.33333z" fill="#0b0e13" stroke="#000000" stroke-width="0" stroke-linecap="butt"/><path d="M342.99997,209.125v-11.25h34.25v11.25z" fill="#273042" stroke="#000000" stroke-width="0" stroke-linecap="butt"/><text transform="translate(348.24459,223.17375) scale(0.37559,0.37559)" font-size="40" xml:space="preserve" fill="#43c749" fill-rule="nonzero" stroke="none" stroke-width="1" stroke-linecap="butt" stroke-linejoin="miter" stroke-miterlimit="10" stroke-dasharray="" stroke-dashoffset="0" font-family="&quot;Agency FB&quot;, Sans Serif" font-weight="normal" text-anchor="start" style="mix-blend-mode: normal"><tspan x="0" dy="0">EASY</tspan></text><path d="M381.47335,168.60757c0.035,0.0175 0.05228,0.04091 0.05982,0.06424c0.16519,-0.02566 0.32591,-0.0625 0.47807,-0.11528l0.13167,-0.04388c0.01225,-0.00441 0.02546,-0.00681 0.03923,-0.00681c0.06403,0 0.11594,0.05192 0.11594,0.11595c0,0.01377 -0.0024,0.02697 -0.0068,0.03923l-0.04388,0.13166l-0.02855,-0.00952c-0.13451,0.44633 -0.51347,0.81349 -0.58814,1.23665c0.0936,0.00278 0.21608,0.13662 0.21685,0.28412c0.00087,0.16622 -0.29888,0.51502 -0.36205,0.68474c-0.16068,0.43171 -0.54609,1.28585 -0.53059,1.71895c-0.08547,0.34754 -0.17155,0.75704 -0.32739,1.07206c-0.13353,0.26993 -0.44121,0.62414 -0.44121,0.92686l-0.03846,0.02429l0.01332,0.01332l-0.08949,0.08949v0c-0.02098,0.02098 -0.04997,0.03396 -0.08199,0.03396c-0.06403,0 -0.11595,-0.05191 -0.11595,-0.11595v-0.13423h0.01545c-0.17206,-0.98525 0.23338,-2.30306 0.5686,-3.15967c0.2052,-0.80226 0.35373,-1.58928 0.39769,-2.43608c-0.34915,0.03055 -0.30232,-0.06024 -0.64207,-0.06024c0,0 -0.11595,0 -0.11595,-0.11594c0,-0.11594 0.11595,-0.11595 0.11595,-0.11595c0.34778,0 0.72388,0.00647 1.0877,-0.02881l0.01667,-0.04133c0,0 0.05185,-0.1037 0.15555,-0.05185z" fill="#f2aa58" stroke="none" stroke-width="0.5" stroke-linecap="butt"/><path d="M362.07313,149.80732c-0.51709,0.03136 -1.03516,-0.10352 -1.54931,-0.10093c-0.41886,0 -0.8482,-0.01829 -1.27668,-0.02269c-0.60663,0.03652 -1.2084,0.10596 -1.80785,0.14046c-0.19097,0.02584 -0.38655,0.04609 -0.57935,0.04931v0.01843h-0.18551v0c-0.02223,0 -0.04348,-0.00417 -0.06304,-0.01177l-0.03847,0.00769c-0.01212,0.00268 -0.02471,0.00408 -0.03763,0.00408c-0.0464,0 -0.08855,-0.01816 -0.11973,-0.04778c-0.0688,-0.01142 -0.13641,-0.02649 -0.20243,-0.04579c-0.01601,0.0002 -0.03228,0.00047 -0.04886,0.00082h-0.03189l-0.01029,0.04118l-0.18199,-0.0455c-0.00118,-0.00026 -0.00236,-0.00055 -0.00354,-0.00084c-0.22765,0.05989 -0.45114,0.09706 -0.65348,0.09791c0,0 -0.17392,0.00001 -0.17392,-0.17392c0,-0.17392 0.17392,-0.17392 0.17392,-0.17392c0.55272,0.00278 1.29109,-0.32093 1.77143,-0.58145c0.1457,-0.07902 0.31322,-0.1109 0.46178,-0.1844c0.11243,-0.05562 0.19913,-0.24292 0.31763,-0.20178c0.46704,0.16219 0.13903,0.36526 0.07887,0.51077c-0.04312,0.10429 0.22563,-0.00692 0.33848,-0.00692c0.13435,0 0.2687,0.00013 0.40306,0.0006c1.31171,-0.21861 2.71081,-0.00053 4.04535,0.03971c0.05647,-0.44585 0.15593,-0.89452 0.15593,-1.32537l0.0122,-0.01884l-0.00831,-0.00208l0.04549,-0.18198c0.01758,-0.07745 0.08685,-0.13526 0.16961,-0.13526c0.08276,0 0.15204,0.05781 0.16961,0.13526l0.0306,0.12243c0.13604,-0.26567 0.41148,-0.55 0.53664,-0.73736c0.52588,-0.78721 1.36607,-1.89013 2.23266,-2.32343c1.21035,-0.90776 2.74368,-1.44073 4.23137,-1.73859c0.73892,-0.14778 1.4588,-0.18889 2.21389,-0.18889h0.1855v0.05753l0.16068,0.04983c-0.02648,0.04803 -0.0545,0.09596 -0.08443,0.14281l0.04672,0.04672l-0.12129,0.12128c0.26344,0.026 0.57705,0.21319 0.68623,0.33746c0.5571,0.63414 1.12223,1.69936 1.10457,2.57841c0.16039,0.30581 0.14858,0.61435 0.18887,0.94627c0.13085,1.07817 0.25736,2.21779 0.04431,3.30183c-0.14372,0.70447 -0.23962,1.41769 -0.46884,2.10642c-0.03835,0.11523 -0.29445,0.71478 -0.41098,0.98351c0.07356,-0.05067 0.19013,-0.09067 0.26047,-0.12588l0.18239,-0.09119c0.02417,-0.01272 0.0517,-0.01993 0.0809,-0.01993c0.09605,0 0.17392,0.07787 0.17392,0.17392c0,0.02921 -0.00721,0.05674 -0.01993,0.08091l-0.09119,0.18238l-0.05036,-0.02518c-0.10955,0.23342 -0.27166,0.38171 -0.47427,0.65201c-0.80545,1.07458 -1.87279,1.78822 -3.24844,1.78822c-1.7876,0 -3.50934,-1.21324 -4.99977,-2.10848c-0.9769,-0.49981 -1.5943,-1.58519 -2.15127,-2.47269c-0.22035,-0.35111 -0.47778,-0.72616 -0.59857,-1.12184c-0.13004,0.0036 -0.16426,-0.13325 -0.16426,-0.13325c-0.00826,-0.03391 -0.01552,-0.06792 -0.02187,-0.10205c-0.087,-0.03375 -0.15724,-0.07724 -0.19185,-0.13475c-0.07004,0.08451 -0.15342,0.16306 -0.26817,0.24981l-0.01654,0.00184l0.00288,0.00577l-0.18238,0.09119c-0.02417,0.01272 -0.0517,0.01992 -0.0809,0.01992c-0.09605,0 -0.17392,-0.07787 -0.17392,-0.17391c0,-0.04803 0.01947,-0.0915 0.05094,-0.12298l0.13913,-0.13913zM372.63205,143.1418c0.00205,0.00006 0.00412,0.00012 0.00617,0.0002l-0.00348,-0.00348c-0.0009,0.00109 -0.00179,0.00218 -0.00269,0.00328z" fill="#f2aa58" stroke="none" stroke-width="0.5" stroke-linecap="butt"/><path d="M354.43073,147.84372c0.02819,0.08183 0.058,0.16322 0.09028,0.2439c0.36792,1.45949 0.86849,3.10548 -0.737,3.91932c-1.49981,0.74991 -3.03915,1.38044 -4.54506,2.1334c-0.94213,0.47106 -2.00803,1.47149 -3.13167,0.83059c-0.32337,-0.18444 -0.62931,-0.61829 -0.89021,-0.88446c-0.48917,-0.9614 -1.44341,-1.61755 -1.78579,-2.64243c-0.07003,-0.20964 -0.17207,-0.91897 0.15588,-1.00986c0.03394,-0.00941 0.07617,0.00017 0.11761,0.02089c0.01912,-0.51205 0.09067,-1.01684 0.08811,-1.52552c0.00847,-1.344 0.54941,-2.5794 0.55784,-3.91702c0.16769,-0.68867 0.15224,-2.07446 0.86962,-2.49198c0.33155,-0.19296 1.26789,0.12364 1.61772,0.21111c0.92006,0.23001 1.81796,0.36748 2.70809,0.70128c0.13801,0.05175 0.49353,0.15736 0.7136,0.29902c-0.01128,-0.06354 -0.01058,-0.12252 0.03065,-0.16612c0.16312,-0.17249 0.60923,0.12523 0.75729,0.19931c0.62807,0.31428 1.26778,0.69861 1.7612,1.19203c0.84667,0.85023 1.92252,2.23302 2.22552,3.42002c0,0 0.04219,0.16872 -0.12655,0.21091c-0.16872,0.04218 -0.21091,-0.12655 -0.21091,-0.12655c-0.05462,-0.22423 -0.15206,-0.42544 -0.26623,-0.61786z" fill="#f2aa58" stroke="none" stroke-width="0.5" stroke-linecap="butt"/><g stroke="none" stroke-linecap="butt"><path d="M345.6067,143.25605c1.43024,-0.85379 6.71537,0.56754 9.28689,4.81205c2.57151,4.2445 -6.96795,10.09171 -9.53947,5.84721c-2.52067,-4.16057 -1.42681,-9.65674 0.25258,-10.65926z" fill="#f2aa58" stroke-width="0"/><path d="M347.00784,145.99937c2.12225,-1.28575 5.19123,0.56911 6.97469,3.51288c1.08123,1.78467 -5.78669,6.2237 -6.87103,4.43391c-1.78347,-2.94376 -2.22591,-6.66104 -0.10367,-7.9468z" fill="#f3b46b" stroke-width="0"/><path d="M346.22956,144.9571c1.56226,-0.94649 2.97565,-0.16281 4.35508,0.74415c1.77218,1.16519 3.27497,3.17379 2.66931,3.54072c-1.0771,0.65256 -8.10149,-3.63231 -7.02439,-4.28486z" fill="#f3b46b" stroke-width="0"/><path d="M347.42379,153.85864c-0.60566,0.36695 -1.69019,-1.89507 -1.90243,-4.00533c-0.1652,-1.6426 -0.55284,-3.90629 0.66487,-4.82478c1.00541,-0.75836 2.31466,8.17756 1.23756,8.83011z" fill="#f3b46b" stroke-width="0"/><path d="M348.57679,148.08659c0.01567,0.17321 -0.15753,0.18889 -0.15753,0.18889l-0.25994,0.02308c-0.28703,0.06669 -0.55583,0.09848 -0.83072,0.07851l0.00122,0.03514l-0.19373,0.00673c-0.08247,0.0045 -0.15885,-0.05049 -0.17852,-0.13369c-0.01325,-0.05608 0.00227,-0.11224 0.03699,-0.15296l0.12117,-0.14527c0.25035,-0.31997 0.49244,-0.62933 0.85765,-0.82885c0.01422,-0.00777 0.1067,-0.06278 0.20747,-0.10816c-0.19646,-0.01416 -0.43255,-0.04491 -0.48123,-0.05155c-0.29737,-0.0406 -0.57834,-0.03181 -0.86368,-0.05134l0.00225,0.03351l-0.23171,0.01555c-0.08445,0.00717 -0.16367,-0.04836 -0.18375,-0.13331c-0.01483,-0.06273 0.00635,-0.12557 0.05014,-0.16679l0.15911,-0.15507l0.00143,0.00147l0.00344,-0.00603c0.5892,-0.49197 1.21928,-0.66772 1.9523,-0.841c0,0 0.16926,-0.04002 0.20927,0.12923c0.04001,0.16925 -0.12924,0.20926 -0.12924,0.20926c-0.57171,0.13515 -1.07815,0.2626 -1.54959,0.57458c0.47629,-0.05618 1.25321,0.03754 1.44237,0.16741c0.10661,0.07319 0.25202,0.17337 0.24306,0.30239c-0.00731,0.10523 -0.3553,0.25446 -0.46086,0.30037c-0.34079,0.14823 -0.57075,0.36016 -0.79307,0.62309c0.19114,-0.03045 0.43369,-0.01795 0.5524,-0.04654l0.28441,-0.02617c0,0 0.17322,-0.01568 0.18889,0.15753z" fill="#dea564" stroke-width="0.5"/></g><g stroke="none" stroke-linecap="butt"><path d="M372.47182,143.43106c1.47724,0.76965 3.04008,6.01467 0.77581,10.43072c-2.26427,4.41605 -12.247,-0.63729 -9.98273,-5.05334c2.21949,-4.32874 7.47236,-6.28109 9.20692,-5.37738z" fill="#f2aa58" stroke-width="0"/><path d="M370.87147,146.06318c2.20803,1.13213 2.23909,4.71797 0.66872,7.78072c-0.95205,1.8568 -8.33434,-1.66103 -7.37957,-3.52316c1.57038,-3.06275 4.50282,-5.38969 6.71085,-4.25755z" fill="#f3b46b" stroke-width="0"/><path d="M371.35044,144.85375c1.62541,0.8334 1.69979,2.4478 1.6514,4.09798c-0.06216,2.12 -0.98367,4.45317 -1.61381,4.13007c-1.12063,-0.57459 -1.15822,-8.80264 -0.03759,-8.22805z" fill="#f3b46b" stroke-width="0"/><path d="M364.39898,150.54066c-0.63015,-0.32309 0.72654,-2.43313 2.41169,-3.72097c1.3117,-1.00242 3.03543,-2.5201 4.45624,-1.96533c1.1731,0.45804 -5.7473,6.26088 -6.86793,5.6863z" fill="#f3b46b" stroke-width="0"/><path d="M370.30071,148.11783l0.26989,0.09348c0.10841,0.05617 0.34692,0.10207 0.52523,0.17737c-0.15294,-0.30849 -0.32552,-0.56929 -0.62094,-0.79476c-0.09151,-0.06984 -0.39366,-0.29802 -0.37558,-0.40193c0.02218,-0.12741 0.18732,-0.18988 0.30836,-0.23543c0.21474,-0.08082 0.99151,0.01409 1.44053,0.18261c-0.38308,-0.41573 -0.84432,-0.66066 -1.36707,-0.9287c0,0 -0.15476,-0.07935 -0.07541,-0.23411c0.07935,-0.15476 0.23412,-0.07541 0.23412,-0.07541c0.67026,0.34367 1.23997,0.66509 1.69432,1.28375l0.00189,0.00668l0.00175,-0.00109l0.11737,0.18864c0.03266,0.0505 0.03818,0.11657 0.00878,0.17394c-0.03983,0.07767 -0.13004,0.11265 -0.21032,0.08548l-0.22125,-0.07054l0.0102,-0.03201c-0.28173,-0.04932 -0.55241,-0.12509 -0.85086,-0.15682c-0.04886,-0.0052 -0.28544,-0.03185 -0.47958,-0.06511c0.08699,0.06818 0.16361,0.14372 0.17557,0.15467c0.30686,0.2811 0.46789,0.63941 0.63439,1.01l0.08288,0.17005c0.02397,0.04786 0.0256,0.10609 -0.0007,0.15737c-0.039,0.07607 -0.12631,0.11119 -0.20531,0.08709l-0.18649,-0.05289l0.00959,-0.03383c-0.27168,-0.04639 -0.52506,-0.14158 -0.7878,-0.27501l-0.24685,-0.08462c0,0 -0.16444,-0.05666 -0.10777,-0.22109c0.05667,-0.16443 0.22109,-0.10776 0.22109,-0.10776z" fill="#dea564" stroke-width="0.5"/></g><path d="M343.08308,166.97834c0,-9.78024 6.54732,-17.5541 16.14945,-17.5541c9.60213,0 16.53593,7.92845 16.53593,17.7087c0,9.78024 -6.93381,17.7087 -16.53593,17.7087c-9.60213,0 -16.14945,-8.08305 -16.14945,-17.86329z" fill="#f2aa58" stroke="none" stroke-width="0" stroke-linecap="butt"/><path d="M381.22348,168.7562c0,4.78563 -1.11865,16.42959 -22.58539,16.8044c-17.6749,-1.04903 -20.62362,-12.32795 -20.62362,-17.11358c0,-0.30032 43.20901,0.01143 43.20901,0.30919z" fill="#f2aa58" stroke="none" stroke-width="0" stroke-linecap="butt"/><path d="M360.33398,161.7338c0,6.62761 -0.85001,16.1744 -7.33355,16.1744c-6.48354,0 -7.85531,-5.08288 -7.85531,-11.7105c0,-6.62761 3.80662,-12.69602 10.29016,-12.69602c6.48354,0 4.89869,1.60451 4.89869,8.23213z" fill="#f3b46b" stroke="none" stroke-width="0" stroke-linecap="butt"/><path d="M363.68122,153.4437c6.48354,0 10.11624,6.06841 10.11624,12.69603c0,6.62761 -1.66163,11.7105 -8.14517,11.7105c-6.48354,0 -7.21761,-9.54678 -7.21761,-16.1744c0,-6.62761 -1.237,-8.23212 5.24654,-8.23212z" fill="#f3b46b" stroke="none" stroke-width="0" stroke-linecap="butt"/><path d="M375.18539,163.10583c0,0 0.55809,3.64569 1.46076,4.62083c0.86023,0.92931 4.83895,1.09914 4.83895,1.09914c0,0 -1.44985,0 -5.52674,0c-1.5705,0 -0.77297,-5.71998 -0.77297,-5.71998z" fill="#f2aa58" stroke="none" stroke-width="0" stroke-linecap="butt"/><path d="M342.78872,168.74851c-4.07689,0 -4.83106,-0.38648 -4.83106,-0.38648c0,0 3.28304,0.21664 4.14327,-0.71266c0.90267,-0.97514 1.38345,-4.69813 1.38345,-4.69813c0,0 0.87483,5.79727 -0.69567,5.79727z" fill="#f2aa58" stroke="none" stroke-width="0" stroke-linecap="butt"/><path d="M379.92879,169.79201c0,0 2.05752,16.47182 -19.76781,15.68324c-23.64175,-0.85421 -21.04499,-16.03108 -21.04499,-16.03108c0,0 4.65201,1.30318 6.20776,-3.251c0.87741,-2.56843 27.6844,-2.25266 28.36821,-0.38812c1.79174,4.88551 6.23684,3.98696 6.23684,3.98696z" fill="url(#color-1)" stroke="none" stroke-width="0" stroke-linecap="butt"/><path d="M366.10079,150.89317c0,-0.26805 0,-0.5361 0,-0.80416v-0.18551c0,-0.09605 0.07786,-0.17392 0.17392,-0.17392c0.04161,0 0.0798,0.01461 0.10973,0.03898l0.23081,0.18464l-0.02831,0.03539c0.41494,0.30498 0.7663,0.70736 1.12894,1.06861c0.06155,0.06131 1.02781,-0.39165 1.18359,-0.43436l0.16978,-0.0849c0.02417,-0.01272 0.0517,-0.01993 0.0809,-0.01993c0.09605,0 0.17392,0.07788 0.17392,0.17392c0,0.02423 -0.00495,0.0473 -0.0139,0.06825l-0.0913,0.22823l-0.05674,-0.02269c-0.13749,0.35928 -0.28273,0.53091 0.29832,0.43407l0.01435,0.00338v-0.00397h0.27827c0.09605,0 0.17391,0.07787 0.17391,0.17391c0,0.04802 -0.01946,0.0915 -0.05093,0.12298v0l-0.15143,0.15144c-0.03544,0.05759 -0.07377,0.11568 -0.11312,0.16835c0.2888,-0.06828 0.58839,-0.06014 0.88362,-0.06014h0.18551v0c0.09605,0 0.17392,0.07787 0.17392,0.17392c0,0.07466 -0.04703,0.13832 -0.11309,0.16298l-0.21748,0.08699c-0.42628,0.3575 -0.98077,0.76112 -1.46659,0.75875c-0.33274,-0.00163 -0.6322,-0.29558 -0.90956,-0.43428c-0.49206,-0.24607 -0.95484,-0.54946 -1.40803,-0.89028c-0.2285,-0.11626 -0.38939,-0.2857 -0.56422,-0.46404c-0.01911,-0.01241 -0.03333,-0.02812 -0.04393,-0.04463c-0.00872,-0.00881 -0.01748,-0.01763 -0.02631,-0.02645l-0.05094,-0.26212c0,0 0,-0.07205 0.04638,-0.12341z" fill="url(#color-2)" stroke="none" stroke-width="0.5" stroke-linecap="butt"/><path d="M352.73274,151.07653c-0.77404,0.7722 -1.69872,1.66066 -2.68326,2.05342c-0.83041,0.20934 -1.32142,0.1636 -2.11433,-0.19031c-0.16361,-0.07303 -0.49004,-0.03075 -0.4257,-0.39262c0.02064,-0.1161 0.20235,-0.12273 0.31094,-0.16868c0.12103,-0.05122 0.46302,-0.1325 0.7608,-0.16269c-0.0539,-0.03318 -0.10445,-0.07039 -0.15378,-0.1125l-0.0199,0.02652l-0.18389,-0.13792c-0.04316,-0.03165 -0.0712,-0.08272 -0.0712,-0.14034c0,-0.08277 0.05782,-0.15203 0.13528,-0.16961l0.18198,-0.0455c0.14836,-0.03674 0.4562,-0.22379 0.62858,-0.17778c-0.04069,-0.02593 -0.08931,-0.06137 -0.10647,-0.08706l-0.13913,-0.13914c-0.03148,-0.03148 -0.05094,-0.07495 -0.05094,-0.12297c0,-0.09605 0.07786,-0.17391 0.17392,-0.17391h0.18551c0.40802,0 0.71511,0.19962 1.07811,0.23544c0.20223,0.01996 0.13201,-0.47411 0.33175,-0.51147c0.10538,-0.01972 0.16427,0.14094 0.25979,0.18958c0.05197,0.02647 0.32773,-0.46617 0.37804,-0.49389c0.12884,-0.07098 0.47314,-0.09032 0.55629,0.03221c0.27913,-0.30921 0.767,-0.91669 1.13648,-0.60676c0.2483,0.20828 0.10644,0.98277 0.18488,1.28662c0,0 0.04218,0.16873 -0.12655,0.21091c-0.16872,0.04219 -0.2109,-0.12654 -0.2109,-0.12654c-0.00607,-0.02493 -0.01149,-0.04993 -0.01634,-0.07498z" fill="url(#color-3)" stroke="none" stroke-width="0.5" stroke-linecap="butt"/><path d="M371.11692,174.92259c0,-2.64144 2.14131,-4.78275 4.78275,-4.78275c2.64144,0 4.78276,2.14131 4.78276,4.78275c0,2.64144 -2.14132,4.78275 -4.78276,4.78275c-2.64144,0 -4.78275,-2.14131 -4.78275,-4.78275z" fill="url(#color-4)" stroke="none" stroke-width="0" stroke-linecap="butt"/><path d="M339.98558,174.51678c0,-2.64144 2.14131,-4.78275 4.78275,-4.78275c2.64144,0 4.78274,2.14131 4.78274,4.78275c0,2.64144 -2.1413,4.78275 -4.78274,4.78275c-2.64144,0 -4.78275,-2.14131 -4.78275,-4.78275z" fill="url(#color-5)" stroke="none" stroke-width="0" stroke-linecap="butt"/><path d="M370.22416,180.64157c0,2.48275 -4.97378,5.72575 -10.36552,5.72575c-5.39174,0 -9.9945,-2.76978 -9.9945,-5.25254c0,-2.48275 4.60276,-3.7383 9.9945,-3.7383c5.39174,0 10.36552,0.78235 10.36552,3.2651z" fill="#000000" stroke="none" stroke-width="0" stroke-linecap="butt"/><g stroke="none" stroke-width="0.5" stroke-linecap="butt"><path d="M350.17404,179.63044c0.02612,-0.07918 0.05711,-0.13 0.05711,-0.13l0.36532,-0.51954c0.73554,-0.53535 1.51516,-0.7396 2.38877,-0.94617c1.97184,-0.46623 3.82986,-0.55176 5.84727,-0.55176c2.88464,0 5.73373,0.15912 8.59191,0.5871c0.98868,0.14805 2.61742,0.53066 2.53584,1.90273c-0.0179,0.30101 -0.29462,0.52294 -0.46234,0.77075c-0.35114,0.51883 -0.74307,1.03037 -1.16013,1.49479c-0.32596,0.31914 0.43215,1.65861 0.37618,2.2682c-0.03181,0.34648 -0.19443,-0.33971 -0.435,-0.09407c-0.18197,0.18581 -0.46075,0.23511 -0.70137,0.32731c-0.74715,0.2863 -1.59975,0.46771 -2.37817,0.64509c-1.03953,0.23688 -2.04989,0.70669 -3.10589,0.85906c-1.40037,0.20206 -3.03548,0.02338 -4.43969,-0.08628c-1.8499,-0.14634 -3.80622,-0.48297 -5.4851,-1.30833c-0.29776,-0.14639 -0.93369,0.17054 -1.12948,-0.0796c-0.79647,-1.01755 -0.06974,-2.34684 0.02303,-3.33624c0.02546,-0.27155 -0.7204,-0.9009 -0.85925,-1.05898c0,0 -0.33168,-0.37765 -0.02901,-0.74405z" fill="#e9e9e9"/><path d="M368.5519,182.08962c0,0.11594 -0.11315,0.11594 -0.11315,0.11594c-0.05822,0 -0.24743,0 -0.30566,0c-0.63135,0 -1.30836,-0.02822 -1.89259,-0.22474c-0.29783,-0.10018 -0.15744,0.71473 -0.6213,0.42466c-0.05953,-0.03723 -0.0802,-0.11695 -0.1203,-0.17543c-0.08573,-0.27824 -0.26781,-0.34186 -0.53519,-0.29444c-0.6796,0.12052 -1.4149,0.13564 -2.08239,0.31008c-1.00117,0.33166 -2.43638,0.09411 -3.48113,0.09411c-0.93234,0 -1.90323,0.07029 -2.81266,-0.09098c-0.24917,-0.04418 -0.49488,0.03976 -0.7423,-0.04475c-0.27857,0 -0.55072,-0.07665 -0.83703,-0.04475c-0.15963,0.01779 -0.30388,0.32735 -0.45478,0.3147c-0.28774,-0.02411 -0.25306,-0.51148 -0.27919,-0.69798c-0.01157,-0.08259 -0.55868,-0.06266 -0.63776,-0.06266c-0.84207,0 -1.70235,-0.05268 -2.53254,-0.04474c0,0 -0.11315,-0.00001 -0.11315,-0.11595c0,-0.11594 0.11315,-0.11594 0.11315,-0.11594c0.83328,0.00647 1.6882,0.04474 2.53254,0.04474c0.24418,0 0.71546,-0.05761 0.84683,0.20582c0.04725,0.09475 0.03723,0.31961 0.05082,0.42848c0.00528,0.04229 0.00967,0.16781 0.01931,0.12635c0.1182,-0.50856 0.99456,-0.26696 1.32806,-0.26696c0.24529,0.08378 0.49214,0.00346 0.7423,0.04475c0.90122,0.14877 1.85321,0.08799 2.77641,0.08799c1.00178,0 2.46275,0.25348 3.41787,-0.08487c0.55874,-0.14079 1.14964,-0.12632 1.71643,-0.22684c0.23903,-0.04238 0.60216,-0.18363 0.84738,-0.08216c0.15208,0.06293 0.27038,0.26722 0.32034,0.41413c0.1467,0.25103 0.18648,-0.4121 0.56834,-0.37718c0.59724,0.05463 1.2261,0.22268 1.86256,0.22268c0.05822,0 0.11644,0 0.17466,0h0.13099c0,0 0.11315,0.00001 0.11315,0.11595z" fill="#c9c9c9"/></g><path d="M338.72418,172.52224c0.05146,0.08498 0.10282,0.16575 0.15309,0.24113c0,0 0.06432,0.09647 -0.03215,0.16079c-0.09647,0.06431 -0.16079,-0.03215 -0.16079,-0.03215c-0.40348,-0.60523 -0.92208,-1.61488 -0.91286,-2.32767c-0.10944,-0.32831 -0.04623,-0.7466 -0.04623,-1.09242v-0.13424c0,-0.06403 0.05191,-0.11594 0.11594,-0.11594c0.00787,0 0.01557,0.00079 0.023,0.00229c0.00322,-0.15205 -0.29449,-0.81018 -0.09079,-0.96476c0.05893,-0.04472 0.14678,0.01929 0.22059,0.02436c0.76367,0.05241 0.37065,0.79969 0.54019,1.29011c0.16027,0.65175 0.31783,1.50844 0.31783,2.1801c0,0.28181 0.09969,0.68287 -0.12781,0.76839zM338.63924,172.31394l-0.00075,0.00106c0.00025,0.00049 0.0005,0.00012 0.00075,-0.00106z" fill="#f2aa58" stroke="none" stroke-width="0.5" stroke-linecap="butt"/><g><path d="M360.43192,175.00672c0,2.98403 4.12521,5.07841 -4.68419,4.8929c-3.89246,-0.08197 -6.26105,1.15208 -6.26105,-1.83194c0,-2.98403 2.92428,-8.13937 6.8176,-8.13937c3.89332,0 4.12765,2.09438 4.12765,5.07841z" fill="#f3b46b" stroke="none" stroke-width="0.5" stroke-linecap="butt"/><path d="M363.44651,170.06745c3.89332,0 6.81759,5.15535 6.81759,8.13938c0,2.98403 -2.368,1.87695 -6.26105,1.83194c-8.02098,-0.09276 -4.68419,-1.90887 -4.68419,-4.8929c0,-2.98403 0.23434,-5.07841 4.12766,-5.07841z" fill="#f3b46b" stroke="none" stroke-width="0.5" stroke-linecap="butt"/><path d="M365.30163,170.8095c0,0.87087 -2.42942,1.57685 -5.42624,1.57685c-2.99683,0 -5.42625,-0.70598 -5.42625,-1.57685c0,-0.87087 2.42942,-1.57686 5.42625,-1.57686c2.99683,0 5.42624,0.70598 5.42624,1.57686z" fill="#f3b46b" stroke="none" stroke-width="0.5" stroke-linecap="butt"/><path d="M359.89858,179.67932c-0.17392,0 -0.17392,-0.17392 -0.17392,-0.17392v-0.17392c0,-0.87766 0.05797,-1.77571 0.05797,-2.66675c0,-1.12922 0.05797,-2.24105 0.05797,-3.36242c0,0 0,-0.17392 0.17392,-0.17392c0.17392,0 0.17392,0.17392 0.17392,0.17392c0,1.12168 -0.05797,2.23305 -0.05797,3.36242c0,0.89057 -0.05797,1.78979 -0.05797,2.66675v0.17392c0,0 0,0.17392 -0.17392,0.17392z" fill="#eaad67" stroke="none" stroke-width="0.5" stroke-linecap="butt"/><path d="M362.75659,171.4169c0,0.39598 -0.8937,0.20949 -1.68407,0.53392c-0.89086,0.36568 -0.36015,1.30524 -1.06043,1.27007c-0.70029,-0.03517 -0.46283,-1.03684 -1.35122,-1.39119c-0.82134,-0.3276 -1.32467,0.14549 -1.32467,-0.25915c0,-0.84231 5.4204,-0.99596 5.4204,-0.15366z" fill="#0e0b07" stroke="none" stroke-width="0.5" stroke-linecap="butt"/><path d="M366.29034,171.28795c-0.33612,-0.19914 -0.67532,-0.39451 -1.0274,-0.57024c0,0 -0.15555,-0.07777 -0.07778,-0.23333c0.07777,-0.15556 0.23334,-0.07779 0.23334,-0.07779c0.87779,0.43972 1.67914,1.003 2.5503,1.43748c0.45199,0.22543 0.91358,0.40223 1.26964,0.74979c0.36314,0.72626 0.85741,1.37991 1.22786,2.12837l-0.00104,0.01982l0.00664,-0.00166l0.04543,0.18173c0.00401,0.01465 0.00614,0.03005 0.00614,0.04596c0,0.09605 -0.07787,0.17392 -0.17392,0.17392c-0.03978,0 -0.07644,-0.01336 -0.10575,-0.03584l-0.15875,-0.11906c-0.00704,-0.00286 -0.014,-0.00576 -0.02087,-0.00869c0.06762,0.17966 0.12352,0.39186 0.12571,0.39845c0.19845,0.59537 0.23692,1.18743 0.35159,1.7827c0.09307,0.00338 0.1675,0.0799 0.1675,0.17381v0.23189h-0.00624l-0.0226,0.0904c0.14164,0.84644 -0.20938,1.74782 -0.81052,2.35148l-0.13914,0.13914c-0.03148,0.03148 -0.07495,0.05094 -0.12297,0.05094c-0.09605,0 -0.17391,-0.07786 -0.17391,-0.17392v-0.06c-0.0707,0.01841 -0.15954,0.02118 -0.24769,0.04321c-0.38446,0.09612 -1.38878,0.42748 -1.75685,0.16473c-0.19372,-0.13829 -0.18989,-0.38077 -0.17464,-0.57969c0.04807,-0.62707 0.13853,-1.20169 0.13853,-1.84078c0,-0.70129 -0.14666,-1.37528 -0.23059,-2.06576c-0.09963,-0.81968 -0.03241,-1.66009 -0.23189,-2.45805c-0.00086,-0.35787 -0.05398,-1.4731 -0.41532,-1.62806l-0.15783,-0.1036c0,0 -0.12245,-0.08163 -0.06699,-0.20734z" fill="#f3b46b" stroke="none" stroke-width="0.5" stroke-linecap="butt"/><g fill="none" stroke="#000000" stroke-width="0.25" stroke-linecap="round"><path d="M380.49244,175.06118c0,0 -2.13852,-0.83028 -3.68991,-0.72512c-1.94944,0.13213 -3.51765,1.20329 -4.92343,1.17098c-1.91221,-0.04394 -5.2137,-0.7636 -5.2137,-0.7636"/><path d="M375.16365,179.50451c0,0 -3.2257,1.66022 -4.53154,0.96235c-1.48672,-0.79453 -3.82013,-4.08446 -3.82013,-4.08446"/></g><path d="M353.2206,171.36098c0.05546,0.12271 -0.06698,0.20238 -0.06698,0.20238l-0.15783,0.10113c-0.36134,0.15126 -0.41446,1.2398 -0.41532,1.58911c-0.19949,0.77887 -0.13225,1.59917 -0.23188,2.39923c-0.08392,0.67397 -0.23059,1.33184 -0.23059,2.01635c0,0.6238 0.09046,1.18466 0.13853,1.79674c0.01524,0.19417 0.01908,0.43084 -0.17465,0.56582c-0.36808,0.25646 -1.37239,-0.06697 -1.75685,-0.16079c-0.08816,-0.02151 -0.17698,-0.02421 -0.24768,-0.04218v0.05856c0,0.09375 -0.07787,0.16976 -0.17392,0.16976c-0.04802,0 -0.09151,-0.019 -0.12298,-0.04972l-0.13914,-0.13581c-0.60114,-0.58922 -0.95216,-1.46904 -0.81052,-2.29522l-0.02259,-0.08824h-0.00625v-0.22635c0,-0.09166 0.07442,-0.16634 0.1675,-0.16964c0.11469,-0.58103 0.15313,-1.15892 0.35159,-1.74004c0.0022,-0.00643 0.0581,-0.21357 0.12572,-0.38893c-0.00687,0.00285 -0.01384,0.0057 -0.02087,0.00849l-0.15874,0.1162c-0.0293,0.02195 -0.06597,0.03498 -0.10575,0.03498c-0.09605,0 -0.17392,-0.07601 -0.17392,-0.16976c0,-0.01553 0.00213,-0.03057 0.00614,-0.04487l0.04544,-0.17738l0.00665,0.00163l-0.00105,-0.01935c0.37044,-0.73054 0.86472,-1.36856 1.22786,-2.07745c0.35605,-0.33924 0.81766,-0.5118 1.26964,-0.73184c0.87116,-0.42409 1.67251,-0.97389 2.55031,-1.40309c0,0 0.15556,-0.07591 0.23334,0.07592c0.07779,0.15183 -0.07779,0.22775 -0.07779,0.22775c-0.35209,0.17153 -0.69127,0.36221 -1.0274,0.5566z" fill="#f3b46b" stroke="none" stroke-width="0.5" stroke-linecap="butt"/><g fill="none" stroke="#000000" stroke-width="0.25" stroke-linecap="round"><path d="M354.1445,174.4677c0,0 -3.07188,0.74803 -4.85528,0.80842c-1.31109,0.04439 -2.78609,-1.01322 -4.6062,-1.12856c-1.44846,-0.0918 -3.43418,0.75683 -3.43418,0.75683"/><path d="M354.02618,176.10784c0,0 -2.13992,3.30984 -3.51797,4.11711c-1.2104,0.70907 -4.23826,-0.92334 -4.23826,-0.92334"/></g></g><g stroke="none" stroke-linecap="butt"><path d="M369.11073,183.99799c0,2.39063 -4.20475,4.32863 -9.39157,4.32863c-5.18683,0 -9.39159,-1.938 -9.39159,-4.32863c0,-1.14609 4.47157,1.27186 8.96633,1.22465c4.8809,-0.05125 9.81685,-2.4692 9.81685,-1.22465z" fill="#f3b46b" stroke-width="0"/><path d="M359.37515,188.24932c-0.17392,0 -0.17392,-0.17392 -0.17392,-0.17392v-0.05797c0,-0.81265 0.05797,-1.6143 0.05797,-2.43485c0,0 0,-0.17391 0.17392,-0.17391c0.17392,0 0.17392,0.17391 0.17392,0.17391c0,0.82029 -0.05797,1.62275 -0.05797,2.43485v0.05797c0,0 0,0.17392 -0.17392,0.17392z" fill="#eaad67" stroke-width="0.5"/></g><path d="M347.71834,180.09006c0,-0.40514 0.32844,-0.73359 0.73359,-0.73359c0.40515,0 0.73359,0.32844 0.73359,0.73359c0,0.40514 -0.32844,0.73358 -0.73359,0.73358c-0.40515,0 -0.73359,-0.32843 -0.73359,-0.73358z" fill="url(#color-6)" stroke="none" stroke-width="0" stroke-linecap="butt"/><g fill="#000000" stroke="none" stroke-linecap="butt"><g><g stroke-width="0.5"><path d="M361.92585,162.85325c0,0 -0.1319,0.24857 -0.35174,0.09942c-0.21984,-0.14914 -0.08794,-0.39769 -0.08794,-0.39769c0.85602,-1.59202 2.88443,-1.64988 4.43299,-1.6487c-0.0225,0.10632 -0.02796,0.49782 -0.01556,0.57787c-1.35561,-0.01054 -3.26393,0.00182 -3.97776,1.36911z"/><path d="M365.67898,161.48416c0.01241,-0.08004 0.00694,-0.47155 -0.01556,-0.57787c1.54856,-0.00119 3.57697,0.05668 4.43299,1.6487c0,0 0.1319,0.24855 -0.08794,0.39769c-0.21984,0.14914 -0.35174,-0.09942 -0.35174,-0.09942c-0.71383,-1.36729 -2.62216,-1.37966 -3.97777,-1.3691z"/></g><path d="M363.66099,163.31682c0,-1.0873 0.88143,-1.96873 1.96873,-1.96873c1.0873,0 1.96873,0.88143 1.96873,1.96873c0,1.0873 -0.88143,1.96873 -1.96873,1.96873c-1.0873,0 -1.96873,-0.88143 -1.96873,-1.96873z" stroke-width="0"/></g><g><g stroke-width="0.5"><path d="M350.98437,162.85325c0,0 -0.1319,0.24857 -0.35174,0.09942c-0.21984,-0.14914 -0.08794,-0.39769 -0.08794,-0.39769c0.85602,-1.59202 2.88443,-1.64988 4.43299,-1.6487c-0.0225,0.10632 -0.02796,0.49782 -0.01556,0.57787c-1.35561,-0.01054 -3.26393,0.00182 -3.97776,1.36911z"/><path d="M354.7375,161.48416c0.01241,-0.08004 0.00694,-0.47155 -0.01556,-0.57787c1.54856,-0.00119 3.57697,0.05668 4.43299,1.6487c0,0 0.1319,0.24855 -0.08794,0.39769c-0.21984,0.14914 -0.35174,-0.09942 -0.35174,-0.09942c-0.71383,-1.36729 -2.62216,-1.37966 -3.97777,-1.3691z"/></g><path d="M352.7195,163.31682c0,-1.0873 0.88143,-1.96873 1.96873,-1.96873c1.08729,0 1.96873,0.88143 1.96873,1.96873c0,1.0873 -0.88143,1.96873 -1.96873,1.96873c-1.08729,0 -1.96873,-0.88143 -1.96873,-1.96873z" stroke-width="0"/></g></g><text transform="translate(329.87962,205.55262) scale(0.17105,0.17105)" font-size="40" xml:space="preserve" fill="#000000" fill-rule="nonzero" stroke="none" stroke-width="1" stroke-linecap="butt" stroke-linejoin="miter" stroke-miterlimit="10" stroke-dasharray="" stroke-dashoffset="0" font-family="&quot;GovtAgentBB&quot;, Serif" font-weight="normal" text-anchor="start" style="mix-blend-mode: normal"><tspan x="0" dy="0">Mr Fluffy Bottoms</tspan></text></g></g></svg>