<svg version="1.1" xmlns="http://www.w3.org/2000/svg" xmlns:xlink="http://www.w3.org/1999/xlink" width="897.8979" height="189.78577" viewBox="0,0,897.8979,189.78577"><g transform="translate(88.94895,-149.33334)"><g stroke-miterlimit="10"><path d="M-88.94895,206.27628v-52.55255h897.8979v52.55255z" fill-opacity="0.51765" fill="#13301a" stroke="none" stroke-width="0"/><path d="M557.33334,339.11911h-394.66667l102.2212,-61.33333h182.21507z" fill-opacity="0.51765" fill="#5ce57d" stroke-opacity="0.2" stroke="#14ff53" stroke-width="0"/><text transform="translate(438.2187,324.7793) rotate(-90) scale(1.39323,1.39323)" font-size="40" xml:space="preserve" fill-opacity="0.51765" fill="#13301a" stroke="none" stroke-width="1" font-family="&quot;VCR_OSD_MONO_1&quot;, Curly" font-weight="normal" text-anchor="start"><tspan x="0" dy="0">&lt;</tspan></text><g fill-opacity="0.51765" fill="#13301a" stroke="none" stroke-width="0"><path d="M340.96152,315.72594v-19.5386h38.36411v19.5386z"/><path d="M338.3944,298.11268v-3.85067h43.07049v3.85067z"/><path d="M338.96487,317.65128v-3.85067h43.07049v3.85067z"/><path d="M342.10246,317.65128c0,-2.75679 2.23482,-4.99161 4.99161,-4.99161c2.75679,0 4.99161,2.23482 4.99161,4.99161c0,2.75679 -2.23482,4.99161 -4.99161,4.99161c-2.75679,0 -4.99161,-2.23482 -4.99161,-4.99161z"/><path d="M367.77361,317.65128c0,-2.75679 2.23482,-4.99161 4.99161,-4.99161c2.75679,0 4.99161,2.23482 4.99161,4.99161c0,2.75679 -2.23482,4.99161 -4.99161,4.99161c-2.75679,0 -4.99161,-2.23482 -4.99161,-4.99161z"/><path d="M354.6528,317.65128c0,-2.75679 2.23482,-4.99161 4.99161,-4.99161c2.75679,0 4.99161,2.23482 4.99161,4.99161c0,2.75679 -2.23482,4.99161 -4.99161,4.99161c-2.75679,0 -4.99161,-2.23482 -4.99161,-4.99161z"/></g><text transform="translate(281.7813,324.7793) rotate(-90) scale(1.39323,-1.39322)" font-size="40" xml:space="preserve" fill-opacity="0.51765" fill="#13301a" stroke="none" stroke-width="1" font-family="&quot;VCR_OSD_MONO_1&quot;, Curly" font-weight="normal" text-anchor="start"><tspan x="0" dy="0">&lt;</tspan></text><path d="M435.61891,210.66667h-151.23781v-61.33333h151.23781z" fill-opacity="0.51765" fill="#5ce57d" stroke="none" stroke-width="0"/><text transform="translate(292.4662,170.50153) scale(0.27442,0.27442)" font-size="40" xml:space="preserve" fill-opacity="0.51765" fill="#13301a" stroke="none" stroke-width="1" font-family="&quot;VCR_OSD_MONO_1&quot;, Curly" font-weight="normal" text-anchor="start"><tspan x="0" dy="0">  RESTRICTED AREA</tspan><tspan x="0" dy="46.150000000000006px">PHONE SCAN FUNCTIONS</tspan><tspan x="0" dy="46.150000000000006px">LIMITED TO COLLECTING</tspan></text></g></g></svg>