<svg version="1.1" xmlns="http://www.w3.org/2000/svg" xmlns:xlink="http://www.w3.org/1999/xlink" width="758.91667" height="420" viewBox="0,0,758.91667,420"><defs><linearGradient x1="-12.50451" y1="188.24325" x2="148.32658" y2="188.24325" gradientUnits="userSpaceOnUse" id="color-1"><stop offset="0" stop-color="#000000"/><stop offset="1" stop-color="#000000" stop-opacity="0"/></linearGradient><linearGradient x1="743.41667" y1="185" x2="582.58559" y2="185" gradientUnits="userSpaceOnUse" id="color-2"><stop offset="0" stop-color="#000000"/><stop offset="1" stop-color="#000000" stop-opacity="0"/></linearGradient><linearGradient x1="364.5428" y1="-9.95495" x2="364.5428" y2="117.67268" gradientUnits="userSpaceOnUse" id="color-3"><stop offset="0" stop-color="#000000"/><stop offset="1" stop-color="#000000" stop-opacity="0"/></linearGradient><linearGradient x1="363.53679" y1="384.56562" x2="363.53679" y2="256.93799" gradientUnits="userSpaceOnUse" id="color-4"><stop offset="0" stop-color="#000000"/><stop offset="1" stop-color="#000000" stop-opacity="0"/></linearGradient><linearGradient x1="354.59372" y1="233.34716" x2="345.43922" y2="226.36843" gradientUnits="userSpaceOnUse" id="color-5"><stop offset="0" stop-color="#484c5e"/><stop offset="1" stop-color="#212d30"/></linearGradient><linearGradient x1="353.6032" y1="242.23206" x2="341.20407" y2="232.77984" gradientUnits="userSpaceOnUse" id="color-6"><stop offset="0" stop-color="#484c5e"/><stop offset="1" stop-color="#212d30"/></linearGradient><linearGradient x1="348.46144" y1="253.10565" x2="343.39411" y2="238.36098" gradientUnits="userSpaceOnUse" id="color-7"><stop offset="0" stop-color="#484c5e"/><stop offset="1" stop-color="#212d30"/></linearGradient><linearGradient x1="338.16317" y1="261.09729" x2="340.66248" y2="245.7078" gradientUnits="userSpaceOnUse" id="color-8"><stop offset="0" stop-color="#484c5e"/><stop offset="1" stop-color="#212d30"/></linearGradient><linearGradient x1="328.5935" y1="264.91203" x2="331.09281" y2="249.52253" gradientUnits="userSpaceOnUse" id="color-9"><stop offset="0" stop-color="#484c5e"/><stop offset="1" stop-color="#212d30"/></linearGradient><linearGradient x1="320.39094" y1="268.1818" x2="322.89024" y2="252.79231" gradientUnits="userSpaceOnUse" id="color-10"><stop offset="0" stop-color="#484c5e"/><stop offset="1" stop-color="#212d30"/></linearGradient><linearGradient x1="311.16304" y1="271.86029" x2="313.66235" y2="256.47079" gradientUnits="userSpaceOnUse" id="color-11"><stop offset="0" stop-color="#484c5e"/><stop offset="1" stop-color="#212d30"/></linearGradient><linearGradient x1="302.96047" y1="275.13006" x2="305.45977" y2="259.74057" gradientUnits="userSpaceOnUse" id="color-12"><stop offset="0" stop-color="#484c5e"/><stop offset="1" stop-color="#212d30"/></linearGradient><linearGradient x1="309.06606" y1="279.67478" x2="283.95574" y2="279.70597" gradientUnits="userSpaceOnUse" id="color-13"><stop offset="0" stop-color="#484c5e"/><stop offset="1" stop-color="#212d30"/></linearGradient><linearGradient x1="335.36282" y1="137.86508" x2="336.37539" y2="146.94849" gradientUnits="userSpaceOnUse" id="color-14"><stop offset="0" stop-color="#484c5e"/><stop offset="1" stop-color="#212d30"/></linearGradient><linearGradient x1="323.67135" y1="138.40742" x2="325.0428" y2="150.71025" gradientUnits="userSpaceOnUse" id="color-15"><stop offset="0" stop-color="#484c5e"/><stop offset="1" stop-color="#212d30"/></linearGradient><linearGradient x1="310.67982" y1="139.01007" x2="312.05129" y2="151.3129" gradientUnits="userSpaceOnUse" id="color-16"><stop offset="0" stop-color="#484c5e"/><stop offset="1" stop-color="#212d30"/></linearGradient><linearGradient x1="299.13181" y1="139.54575" x2="300.50327" y2="151.84858" gradientUnits="userSpaceOnUse" id="color-17"><stop offset="0" stop-color="#484c5e"/><stop offset="1" stop-color="#212d30"/></linearGradient><linearGradient x1="285.65912" y1="140.17072" x2="287.03059" y2="152.47355" gradientUnits="userSpaceOnUse" id="color-18"><stop offset="0" stop-color="#484c5e"/><stop offset="1" stop-color="#212d30"/></linearGradient><linearGradient x1="274.1111" y1="140.7064" x2="275.48256" y2="153.00924" gradientUnits="userSpaceOnUse" id="color-19"><stop offset="0" stop-color="#484c5e"/><stop offset="1" stop-color="#212d30"/></linearGradient><linearGradient x1="261.11958" y1="141.30904" x2="262.49105" y2="153.61188" gradientUnits="userSpaceOnUse" id="color-20"><stop offset="0" stop-color="#484c5e"/><stop offset="1" stop-color="#212d30"/></linearGradient><linearGradient x1="249.57157" y1="141.84473" x2="250.94303" y2="154.14756" gradientUnits="userSpaceOnUse" id="color-21"><stop offset="0" stop-color="#484c5e"/><stop offset="1" stop-color="#212d30"/></linearGradient><linearGradient x1="384.63718" y1="137.86508" x2="383.62461" y2="146.94849" gradientUnits="userSpaceOnUse" id="color-22"><stop offset="0" stop-color="#484c5e"/><stop offset="1" stop-color="#212d30"/></linearGradient><linearGradient x1="396.32865" y1="138.40742" x2="394.9572" y2="150.71025" gradientUnits="userSpaceOnUse" id="color-23"><stop offset="0" stop-color="#484c5e"/><stop offset="1" stop-color="#212d30"/></linearGradient><linearGradient x1="409.32018" y1="139.01007" x2="407.94871" y2="151.3129" gradientUnits="userSpaceOnUse" id="color-24"><stop offset="0" stop-color="#484c5e"/><stop offset="1" stop-color="#212d30"/></linearGradient><linearGradient x1="420.86819" y1="139.54575" x2="419.49673" y2="151.84858" gradientUnits="userSpaceOnUse" id="color-25"><stop offset="0" stop-color="#484c5e"/><stop offset="1" stop-color="#212d30"/></linearGradient><linearGradient x1="434.34088" y1="140.17072" x2="432.96941" y2="152.47355" gradientUnits="userSpaceOnUse" id="color-26"><stop offset="0" stop-color="#484c5e"/><stop offset="1" stop-color="#212d30"/></linearGradient><linearGradient x1="445.8889" y1="140.7064" x2="444.51744" y2="153.00924" gradientUnits="userSpaceOnUse" id="color-27"><stop offset="0" stop-color="#484c5e"/><stop offset="1" stop-color="#212d30"/></linearGradient><linearGradient x1="458.88042" y1="141.30904" x2="457.50895" y2="153.61188" gradientUnits="userSpaceOnUse" id="color-28"><stop offset="0" stop-color="#484c5e"/><stop offset="1" stop-color="#212d30"/></linearGradient><linearGradient x1="470.42843" y1="141.84473" x2="469.05697" y2="154.14756" gradientUnits="userSpaceOnUse" id="color-29"><stop offset="0" stop-color="#484c5e"/><stop offset="1" stop-color="#212d30"/></linearGradient><linearGradient x1="366.99489" y1="237.31056" x2="376.14939" y2="230.33183" gradientUnits="userSpaceOnUse" id="color-30"><stop offset="0" stop-color="#484c5e"/><stop offset="1" stop-color="#212d30"/></linearGradient><linearGradient x1="367.9854" y1="246.19546" x2="380.38454" y2="236.74324" gradientUnits="userSpaceOnUse" id="color-31"><stop offset="0" stop-color="#484c5e"/><stop offset="1" stop-color="#212d30"/></linearGradient><linearGradient x1="373.12717" y1="257.06904" x2="378.1945" y2="242.32438" gradientUnits="userSpaceOnUse" id="color-32"><stop offset="0" stop-color="#484c5e"/><stop offset="1" stop-color="#212d30"/></linearGradient><linearGradient x1="383.42543" y1="265.06069" x2="380.92613" y2="249.6712" gradientUnits="userSpaceOnUse" id="color-33"><stop offset="0" stop-color="#484c5e"/><stop offset="1" stop-color="#212d30"/></linearGradient><linearGradient x1="392.99511" y1="268.87542" x2="390.4958" y2="253.48593" gradientUnits="userSpaceOnUse" id="color-34"><stop offset="0" stop-color="#484c5e"/><stop offset="1" stop-color="#212d30"/></linearGradient><linearGradient x1="401.19766" y1="272.1452" x2="398.69837" y2="256.75571" gradientUnits="userSpaceOnUse" id="color-35"><stop offset="0" stop-color="#484c5e"/><stop offset="1" stop-color="#212d30"/></linearGradient><linearGradient x1="410.42556" y1="275.82369" x2="407.92626" y2="260.4342" gradientUnits="userSpaceOnUse" id="color-36"><stop offset="0" stop-color="#484c5e"/><stop offset="1" stop-color="#212d30"/></linearGradient><linearGradient x1="418.62814" y1="279.09346" x2="416.12883" y2="263.70397" gradientUnits="userSpaceOnUse" id="color-37"><stop offset="0" stop-color="#484c5e"/><stop offset="1" stop-color="#212d30"/></linearGradient><linearGradient x1="340.84118" y1="183.824" x2="381.33856" y2="183.824" gradientUnits="userSpaceOnUse" id="color-38"><stop offset="0" stop-color="#484c5e"/><stop offset="1" stop-color="#212d30"/></linearGradient><linearGradient x1="336.95343" y1="131.80312" x2="385.22631" y2="131.80312" gradientUnits="userSpaceOnUse" id="color-39"><stop offset="0" stop-color="#484c5e"/><stop offset="1" stop-color="#212d30"/></linearGradient><linearGradient x1="359.04091" y1="103.96541" x2="364.6971" y2="103.96541" gradientUnits="userSpaceOnUse" id="color-40"><stop offset="0" stop-color="#484c5e"/><stop offset="1" stop-color="#212d30"/></linearGradient><linearGradient x1="359.04091" y1="115.59338" x2="366.70183" y2="115.59338" gradientUnits="userSpaceOnUse" id="color-41"><stop offset="0" stop-color="#484c5e"/><stop offset="1" stop-color="#212d30"/></linearGradient><linearGradient x1="359.04091" y1="128.51434" x2="366.70183" y2="128.51434" gradientUnits="userSpaceOnUse" id="color-42"><stop offset="0" stop-color="#484c5e"/><stop offset="1" stop-color="#212d30"/></linearGradient><linearGradient x1="359.04091" y1="139.99963" x2="366.70183" y2="139.99963" gradientUnits="userSpaceOnUse" id="color-43"><stop offset="0" stop-color="#484c5e"/><stop offset="1" stop-color="#212d30"/></linearGradient><linearGradient x1="359.04091" y1="153.39916" x2="366.70183" y2="153.39916" gradientUnits="userSpaceOnUse" id="color-44"><stop offset="0" stop-color="#484c5e"/><stop offset="1" stop-color="#212d30"/></linearGradient><linearGradient x1="359.04091" y1="164.88445" x2="366.70183" y2="164.88445" gradientUnits="userSpaceOnUse" id="color-45"><stop offset="0" stop-color="#484c5e"/><stop offset="1" stop-color="#212d30"/></linearGradient><linearGradient x1="359.04091" y1="177.80543" x2="366.70183" y2="177.80543" gradientUnits="userSpaceOnUse" id="color-46"><stop offset="0" stop-color="#484c5e"/><stop offset="1" stop-color="#212d30"/></linearGradient><linearGradient x1="359.04091" y1="189.29071" x2="366.70183" y2="189.29071" gradientUnits="userSpaceOnUse" id="color-47"><stop offset="0" stop-color="#484c5e"/><stop offset="1" stop-color="#212d30"/></linearGradient><linearGradient x1="350.24335" y1="155.45593" x2="372.28184" y2="155.45593" gradientUnits="userSpaceOnUse" id="color-48"><stop offset="0" stop-color="#484c5e"/><stop offset="1" stop-color="#212d30"/></linearGradient><linearGradient x1="382.05264" y1="146.79171" x2="368.59402" y2="146.79171" gradientUnits="userSpaceOnUse" id="color-49"><stop offset="0" stop-color="#484c5e"/><stop offset="1" stop-color="#212d30"/></linearGradient><linearGradient x1="340.84422" y1="148.08974" x2="354.30284" y2="148.08974" gradientUnits="userSpaceOnUse" id="color-50"><stop offset="0" stop-color="#484c5e"/><stop offset="1" stop-color="#212d30"/></linearGradient><linearGradient x1="360.76441" y1="190.54925" x2="360.76441" y2="220.59581" gradientUnits="userSpaceOnUse" id="color-51"><stop offset="0" stop-color="#484c5e"/><stop offset="1" stop-color="#212d30"/></linearGradient><linearGradient x1="349.97799" y1="191.98355" x2="349.97799" y2="199.06595" gradientUnits="userSpaceOnUse" id="color-52"><stop offset="0" stop-color="#484c5e"/><stop offset="1" stop-color="#212d30"/></linearGradient><linearGradient x1="372.64168" y1="191.98355" x2="372.64168" y2="199.06595" gradientUnits="userSpaceOnUse" id="color-53"><stop offset="0" stop-color="#484c5e"/><stop offset="1" stop-color="#212d30"/></linearGradient><linearGradient x1="412.52255" y1="283.63818" x2="437.63287" y2="283.66937" gradientUnits="userSpaceOnUse" id="color-54"><stop offset="0" stop-color="#484c5e"/><stop offset="1" stop-color="#212d30"/></linearGradient><radialGradient cx="360" cy="179.99999" r="362.61261" gradientUnits="userSpaceOnUse" id="color-55"><stop offset="0" stop-color="#000000" stop-opacity="0.83922"/><stop offset="1" stop-color="#000000" stop-opacity="0"/></radialGradient><radialGradient cx="360" cy="179.99999" r="362.61262" gradientUnits="userSpaceOnUse" id="color-56"><stop offset="0" stop-color="#000000" stop-opacity="0"/><stop offset="1" stop-color="#000000"/></radialGradient></defs><g transform="translate(15.5,30)"><g stroke-miterlimit="10"><g stroke-linecap="butt"><path d="M0.04123,153v-160.3741h719.91754v160.3741z" fill="#323232" stroke="#000000" stroke-width="0"/><path d="M226.82491,244.00002v-128h248.01449v128z" fill="#3f3f3f" stroke="#000000" stroke-width="0"/><path d="M282.79705,217.81297v-89h153.44087v89z" fill="#686868" stroke="#000000" stroke-width="0"/><path d="M0.6078,360.00001v-128h719.91754v128z" fill="#323232" stroke="#000000" stroke-width="0"/><path d="M12.58671,360.00001v-360l284.68589,116l0.96504,128.5z" fill="#505050" stroke="none" stroke-width="0"/><path d="M707.41329,0.00001v360l-284.68589,-116l-0.96504,-128.5z" fill="#505050" stroke="none" stroke-width="0"/><path d="M-2.61262,295.50001v-225l300.609,83v42z" fill="#909090" stroke="#000000" stroke-width="0"/><path d="M422.00362,195.50002v-42l300.609,-83v225z" fill="#909090" stroke="#000000" stroke-width="0"/><text transform="translate(322.72372,166.34742) scale(0.80247,0.83154)" font-size="40" xml:space="preserve" fill="#000000" stroke="#000000" stroke-width="3" font-family="&quot;Agency FB&quot;, Sans Serif" font-weight="normal" text-anchor="start"><tspan x="0" dy="0">A . S . C</tspan></text><text transform="translate(325.74612,171.3863) rotate(90) scale(0.217,0.20941)" font-size="40" xml:space="preserve" fill="#000000" stroke="#000000" stroke-width="2" font-family="&quot;Agency FB&quot;, Sans Serif" font-weight="normal" text-anchor="start"><tspan x="0" dy="0">NIMATRONIC</tspan></text><text transform="translate(357.10143,172.05296) rotate(90) scale(0.217,0.20941)" font-size="40" xml:space="preserve" fill="#000000" stroke="#000000" stroke-width="2" font-family="&quot;Agency FB&quot;, Sans Serif" font-weight="normal" text-anchor="start"><tspan x="0" dy="0">ECURITY</tspan></text><text transform="translate(389.59101,172.05296) rotate(90) scale(0.217,0.20941)" font-size="40" xml:space="preserve" fill="#000000" stroke="#000000" stroke-width="2" font-family="&quot;Agency FB&quot;, Sans Serif" font-weight="normal" text-anchor="start"><tspan x="0" dy="0">ENTER</tspan></text><path d="M325.25867,70.06296c0,-6.18292 15.55422,-11.19516 34.74133,-11.19516c19.18711,0 34.74133,5.01224 34.74133,11.19516c0,6.18292 -16.03674,16.69516 -35.22385,16.69516c-19.18711,0 -34.25881,-10.51224 -34.25881,-16.69516z" fill="#181818" stroke="#000000" stroke-width="0"/><path d="M331.45445,76.05339c0,-5.08025 12.78028,-9.19861 28.54555,-9.19861c15.76528,0 28.54555,4.11836 28.54555,9.19861c0,5.08025 -13.17675,13.71774 -28.94202,13.71774c-15.76528,0 -28.14908,-8.63749 -28.14908,-13.71774z" fill="#404040" stroke="#000000" stroke-width="0"/></g><path d="M-15.5,30v-60h751v60z" fill="#000000" stroke-opacity="0.50196" stroke="#0d0d0d" stroke-width="0" stroke-linecap="butt"/><path d="M-15.5,390v-60h751v60z" fill="#000000" stroke-opacity="0.50196" stroke="#0d0d0d" stroke-width="0" stroke-linecap="butt"/><g stroke="none" stroke-width="0" stroke-linecap="butt"><path d="M-12.50451,383.43844v-390.39039h160.83109v390.39039z" fill="url(#color-1)"/><path d="M582.58559,380.19519v-390.39039h160.83108v390.39039z" fill="url(#color-2)"/><path d="M-13.83558,117.67268v-127.62762h756.75676v127.62763z" fill="url(#color-3)"/><path d="M741.91517,256.93799v127.62762h-756.75676v-127.62762z" fill="url(#color-4)"/></g><g fill="none" stroke-width="3.25" stroke-linecap="round"><path d="M354.09564,237.81493c0,0 -5.7717,-4.08719 -8.05594,-5.70476c-1.69056,-1.19715 -1.211,-3.2458 0.70466,-3.31821c1.60448,-0.06064 4.70006,-0.17766 6.65004,-0.25137c1.03156,-0.039 0.64785,-0.90037 -0.19915,-1.54607c-1.60334,-1.22227 -6.95765,-5.30401 -6.95765,-5.30401" stroke="url(#color-5)"/><path d="M353.11727,246.59082c0,0 -5.7717,-4.08718 -8.05594,-5.70476c-1.69056,-1.19717 -1.21098,-3.2458 0.70466,-3.31821c2.45328,-0.09273 8.39256,-0.31724 8.39256,-0.31724" stroke="url(#color-6)"/><path d="M345.63788,256.46162c0,0 -2.53239,-6.60337 -3.53462,-9.21677c-0.74174,-1.93417 0.79427,-3.37207 2.42793,-2.36901c2.09214,1.28456 8.42618,1.57435 8.42618,1.57435" stroke="url(#color-7)"/><path d="M334.08916,262.72129c0,0 0.88751,-7.0164 1.23877,-9.79326c0.25997,-2.05514 2.29304,-2.59685 3.25906,-0.94102c1.23713,2.12053 6.91126,4.57519 6.91126,4.57519" stroke="url(#color-8)"/><path d="M324.5195,266.53603c0,0 0.88751,-7.0164 1.23876,-9.79326c0.25997,-2.05514 2.29304,-2.59686 3.25907,-0.94103c1.23713,2.12053 4.23219,7.25426 4.23219,7.25426" stroke="url(#color-9)"/><path d="M316.31693,269.8058c0,0 0.88751,-7.0164 1.23877,-9.79326c0.25997,-2.05514 2.29305,-2.59685 3.25907,-0.94102c1.23713,2.12053 4.23218,7.25426 4.23218,7.25426" stroke="url(#color-10)"/><path d="M307.08903,273.48429c0,0 0.88751,-7.0164 1.23877,-9.79326c0.25997,-2.05514 2.29304,-2.59685 3.25907,-0.94102c1.23713,2.12053 4.23218,7.25426 4.23218,7.25426" stroke="url(#color-11)"/><path d="M298.88645,276.75407c0,0 0.88751,-7.01641 1.23876,-9.79326c0.25997,-2.05514 2.29304,-2.59685 3.25907,-0.94102c1.23713,2.12053 4.23219,7.25426 4.23219,7.25426" stroke="url(#color-12)"/></g><path d="M283.95574,279.70597c-0.00862,-6.93402 5.60554,-12.56214 12.53956,-12.57075c4.01266,-0.00498 13.64652,5.33195 13.64652,5.33195c0,0 0.85164,3.8546 0.85527,6.77598c0.00862,6.93403 -27.03273,7.39685 -27.04135,0.46283z" fill="#272727" stroke="url(#color-13)" stroke-width="0" stroke-linecap="butt"/><g><g fill="none" stroke-width="3.25" stroke-linecap="round"><path d="M342.75867,146.39788c0,0 -0.59224,-5.31272 -0.76958,-6.90361c-0.09369,-0.84043 -0.83251,-1.24715 -1.72882,-0.26131c-1.69429,1.86354 -4.384,4.82191 -5.7781,6.35526c-1.66448,1.83073 -4.56685,2.19625 -4.64171,0.52301c-0.10115,-2.26084 -0.35671,-7.97343 -0.35671,-7.97343" stroke="url(#color-14)"/><path d="M330.22632,138.10335c0,0 -5.16056,5.67601 -7.29217,8.02054c-1.66449,1.83075 -4.56686,2.19626 -4.64171,0.52302c-0.10115,-2.26084 -0.3567,-7.97343 -0.3567,-7.97343" stroke="url(#color-15)"/><path d="M317.23479,138.706c0,0 -5.16056,5.67601 -7.29216,8.02054c-1.66448,1.83074 -4.56685,2.19626 -4.6417,0.52302c-0.10115,-2.26084 -0.35671,-7.97343 -0.35671,-7.97343" stroke="url(#color-16)"/><path d="M305.68679,139.24169c0,0 -5.16056,5.67601 -7.29217,8.02054c-1.66449,1.83074 -4.56686,2.19625 -4.64171,0.52301c-0.10115,-2.26084 -0.3567,-7.97343 -0.3567,-7.97343" stroke="url(#color-17)"/><path d="M292.21409,139.86664c0,0 -5.16057,5.67601 -7.29217,8.02054c-1.66448,1.83074 -4.56684,2.19626 -4.6417,0.52302c-0.10115,-2.26084 -0.3567,-7.97342 -0.3567,-7.97342" stroke="url(#color-18)"/><path d="M280.66607,140.40232c0,0 -5.16056,5.67601 -7.29216,8.02054c-1.66449,1.83075 -4.56686,2.19626 -4.64171,0.52302c-0.10115,-2.26084 -0.3567,-7.97342 -0.3567,-7.97342" stroke="url(#color-19)"/><path d="M267.67454,141.00498c0,0 -5.16056,5.676 -7.29217,8.02053c-1.66448,1.83074 -4.56684,2.19626 -4.6417,0.52302c-0.10115,-2.26084 -0.3567,-7.97343 -0.3567,-7.97343" stroke="url(#color-20)"/><path d="M256.12654,141.54065c0,0 -5.16056,5.67601 -7.29216,8.02054c-1.66449,1.83075 -4.56686,2.19626 -4.64171,0.52302c-0.10115,-2.26084 -0.3567,-7.97343 -0.3567,-7.97343" stroke="url(#color-21)"/></g><path d="M232.14848,130.14127c4.42127,-5.52618 11.50559,3.07396 13.93115,5.11757c1.83689,1.54762 11.26277,-0.61279 10.68782,2.28862c-0.18427,0.92982 -9.21934,6.99243 -9.67182,7.85624c-0.69285,1.32266 -2.60547,8.65206 -3.60711,9.28271c-1.69376,1.06642 -2.63645,-5.25422 -4.16064,-6.5384c-0.71571,-0.603 -6.10404,-0.46238 -6.2176,-4.6505c-0.0408,-1.50469 0.99308,0.84916 2.56391,-1.01808c1.2151,-1.44439 -8.08962,-6.63369 -3.52571,-12.33815z" fill="#0d0d0d" stroke="#000000" stroke-width="0" stroke-linecap="butt"/></g><g><g fill="none" stroke-width="3.25" stroke-linecap="round"><path d="M390.51624,138.1378c0,0 -0.25556,5.71259 -0.35671,7.97343c-0.07485,1.67324 -2.97722,1.30772 -4.64171,-0.52301c-1.39411,-1.53336 -4.08381,-4.49172 -5.7781,-6.35526c-0.89631,-0.98584 -1.63513,-0.57912 -1.72882,0.26131c-0.17734,1.5909 -0.76958,6.90361 -0.76958,6.90361" stroke="url(#color-22)"/><path d="M402.06425,138.67348c0,0 -0.25555,5.71259 -0.3567,7.97343c-0.07485,1.67324 -2.97722,1.30772 -4.64171,-0.52302c-2.1316,-2.34453 -7.29217,-8.02054 -7.29217,-8.02054" stroke="url(#color-23)"/><path d="M415.05578,139.27613c0,0 -0.25556,5.71259 -0.35671,7.97343c-0.07485,1.67324 -2.97722,1.30772 -4.6417,-0.52302c-2.1316,-2.34453 -7.29216,-8.02054 -7.29216,-8.02054" stroke="url(#color-24)"/><path d="M426.60379,139.81181c0,0 -0.25555,5.71259 -0.3567,7.97343c-0.07485,1.67324 -2.97722,1.30772 -4.64171,-0.52301c-2.1316,-2.34453 -7.29217,-8.02054 -7.29217,-8.02054" stroke="url(#color-25)"/><path d="M440.07647,140.43678c0,0 -0.25555,5.71258 -0.3567,7.97342c-0.07485,1.67324 -2.97722,1.30772 -4.6417,-0.52302c-2.1316,-2.34453 -7.29217,-8.02054 -7.29217,-8.02054" stroke="url(#color-26)"/><path d="M451.62449,140.97246c0,0 -0.25555,5.71258 -0.3567,7.97342c-0.07485,1.67324 -2.97722,1.30772 -4.64171,-0.52302c-2.1316,-2.34453 -7.29216,-8.02054 -7.29216,-8.02054" stroke="url(#color-27)"/><path d="M464.61602,141.5751c0,0 -0.25555,5.71259 -0.3567,7.97343c-0.07485,1.67324 -2.97722,1.30772 -4.6417,-0.52302c-2.1316,-2.34453 -7.29217,-8.02053 -7.29217,-8.02053" stroke="url(#color-28)"/><path d="M476.16403,142.11078c0,0 -0.25555,5.71259 -0.3567,7.97343c-0.07485,1.67324 -2.97722,1.30772 -4.64171,-0.52302c-2.1316,-2.34453 -7.29216,-8.02054 -7.29216,-8.02054" stroke="url(#color-29)"/></g><path d="M487.85152,130.14128c4.56391,5.70446 -4.7408,10.89376 -3.52571,12.33815c1.57083,1.86724 2.60471,-0.48661 2.56391,1.01808c-0.11356,4.18812 -5.50189,4.0475 -6.2176,4.6505c-1.52419,1.28418 -2.46688,7.60483 -4.16064,6.5384c-1.00164,-0.63066 -2.91426,-7.96006 -3.60711,-9.28271c-0.45248,-0.86381 -9.48756,-6.92642 -9.67182,-7.85624c-0.57495,-2.90141 8.85093,-0.741 10.68782,-2.28862c2.42556,-2.04361 9.50988,-10.64375 13.93115,-5.11757z" fill="#0d0d0d" stroke="#000000" stroke-width="0" stroke-linecap="butt"/></g><g fill="none" stroke-width="3.25" stroke-linecap="round"><path d="M375.35101,225.65391c0,0 -5.35431,4.08174 -6.95765,5.30401c-0.847,0.64569 -1.23071,1.50707 -0.19915,1.54607c1.94997,0.07371 5.04556,0.19073 6.65004,0.25137c1.91566,0.0724 2.39521,2.12105 0.70466,3.3182c-2.28423,1.61758 -8.05594,5.70476 -8.05594,5.70476" stroke="url(#color-30)"/><path d="M367.43006,241.21402c0,0 5.93928,0.2245 8.39256,0.31724c1.91565,0.07241 2.39521,2.12104 0.70466,3.31821c-2.28423,1.61758 -8.05594,5.70476 -8.05594,5.70476" stroke="url(#color-31)"/><path d="M368.63124,250.41358c0,0 6.33404,-0.28978 8.42618,-1.57435c1.63366,-1.00306 3.16967,0.43485 2.42793,2.36902c-1.00223,2.6134 -3.53462,9.21677 -3.53462,9.21677" stroke="url(#color-32)"/><path d="M376.09036,260.5256c0,0 5.67413,-2.45465 6.91126,-4.57519c0.96602,-1.65583 2.99909,-1.11412 3.25906,0.94102c0.35125,2.77685 1.23876,9.79326 1.23876,9.79326" stroke="url(#color-33)"/><path d="M388.33908,267.01941c0,0 2.99505,-5.13373 4.23219,-7.25426c0.96602,-1.65583 2.9991,-1.11412 3.25907,0.94102c0.35125,2.77685 1.23876,9.79326 1.23876,9.79326" stroke="url(#color-34)"/><path d="M396.54166,270.28918c0,0 2.99505,-5.13372 4.23218,-7.25426c0.96602,-1.65583 2.9991,-1.11412 3.25907,0.94102c0.35125,2.77685 1.23876,9.79326 1.23876,9.79326" stroke="url(#color-35)"/><path d="M405.76957,273.96768c0,0 2.99505,-5.13373 4.23218,-7.25426c0.96602,-1.65583 2.9991,-1.11413 3.25907,0.94102c0.35125,2.77685 1.23877,9.79326 1.23877,9.79326" stroke="url(#color-36)"/><path d="M413.97213,277.23745c0,0 2.99505,-5.13373 4.23219,-7.25426c0.96602,-1.65583 2.9991,-1.11412 3.25907,0.94102c0.35125,2.77685 1.23876,9.79326 1.23876,9.79326" stroke="url(#color-37)"/></g><path d="M381.33855,183.824c0,0.52115 -5.90721,0.47794 -11.89912,-1.94568c-2.75129,-1.11285 -3.85857,-5.66782 -7.37763,-5.66782c-3.98849,0 -4.16448,4.42862 -7.32558,5.92377c-5.70208,2.69699 -13.08509,3.1509 -13.08509,2.66167c0,-0.76045 8.25571,-26.08031 19.43874,-26.08031c11.18304,0 20.24868,24.34793 20.24868,25.10837z" fill="#4c1212" stroke="url(#color-38)" stroke-width="0" stroke-linecap="butt"/><path d="M385.22631,131.80312c0,0.55915 -9.67232,8.94992 -23.0025,8.94992c-13.33019,0 -24.21744,-7.17585 -24.21744,-7.735c0,-0.27604 11.8324,0.90799 23.48629,0.60465c11.9523,-0.3111 23.73365,-2.10268 23.73365,-1.81958z" fill="#4c1212" stroke="url(#color-39)" stroke-width="0" stroke-linecap="butt"/><g fill="none" stroke-width="3.25" stroke-linecap="round"><path d="M387.38208,107.40257c0,0 -3.3082,0 -4.29884,0c-0.52333,0 -0.79652,0.68617 -0.21157,1.68176c1.10575,1.88198 -12.53649,-1.89858 -11.62665,-0.35004c1.08629,1.84885 5.62865,6.45298 4.58994,6.34249c-1.40348,-0.14929 -9.85665,-1.71096 -9.85665,-1.71096" stroke="url(#color-40)"/><path d="M365.97831,113.81174c0,0 3.36794,5.73219 4.7591,8.09992c1.08629,1.84885 -3.6776,1.71523 -4.71632,1.60476c-1.40348,-0.14929 -5.28813,0.65791 -5.28813,0.65791" stroke="url(#color-41)"/><path d="M360.73296,124.87146c0,0 1.67589,2.8557 3.06705,5.22343c1.08629,1.84885 1.22933,4.76091 0.19062,4.65044c-1.40348,-0.14929 -4.94972,-0.52652 -4.94972,-0.52652" stroke="url(#color-42)"/><path d="M359.04091,133.48027c0,0 3.36794,5.73219 4.7591,8.09992c1.08629,1.84885 1.22933,4.76092 0.19062,4.65044c-1.40348,-0.14929 -4.94972,-0.52653 -4.94972,-0.52653" stroke="url(#color-43)"/><path d="M359.04091,146.87978c0,0 3.36794,5.73219 4.7591,8.09992c1.08629,1.84885 1.22933,4.76091 0.19062,4.65044c-1.40348,-0.14929 -4.94972,-0.52652 -4.94972,-0.52652" stroke="url(#color-44)"/><path d="M359.04091,158.36508c0,0 3.36794,5.73218 4.7591,8.09991c1.08629,1.84885 1.22933,4.76092 0.19062,4.65044c-1.40348,-0.14929 -4.94972,-0.52652 -4.94972,-0.52652" stroke="url(#color-45)"/><path d="M359.04091,171.28604c0,0 3.36794,5.73219 4.7591,8.09992c1.08629,1.84885 1.22933,4.76092 0.19062,4.65044c-1.40348,-0.14929 -4.94972,-0.52653 -4.94972,-0.52653" stroke="url(#color-46)"/><path d="M359.04091,182.77134c0,0 3.36794,5.73219 4.7591,8.09992c1.08629,1.84885 1.22933,4.76092 0.19062,4.65044c-1.40348,-0.14929 -4.94972,-0.52653 -4.94972,-0.52653" stroke="url(#color-47)"/></g><path d="M349.28433,146.16663c0,-2.61663 -5.70058,-7.80662 -5.02803,-9.02126c0.84771,-1.53099 8.24428,1.25101 9.88931,1.03205c2.00481,-0.26684 4.48945,0.06165 7.18022,0.06165c2.81447,0 5.54763,-0.26147 7.76422,0.1899c1.32407,0.26962 8.21445,-1.71725 9.07709,-0.73125c1.10558,1.26366 -3.99461,5.79705 -3.99461,9.01563c0,5.34348 0.25684,17.15961 -2.43503,22.99792c-2.31263,5.01579 -7.33849,4.5025 -10.41168,4.5025c-2.58281,0 -8.48932,-0.98251 -10.45023,-4.90643c-3.08813,-6.17958 -1.59128,-17.06473 -1.59128,-23.14072z" fill="#dadada" stroke="#000000" stroke-width="0" stroke-linecap="butt"/><path d="M350.24335,155.45593c0,-7.41308 4.93348,-13.42259 11.01924,-13.42259c6.08576,0 11.01925,6.0095 11.01925,13.42259c0,7.41308 -4.93349,13.42259 -11.01925,13.42259c-6.08576,0 -11.01924,-6.0095 -11.01924,-13.42259z" fill="#ababab" stroke="url(#color-48)" stroke-width="0" stroke-linecap="butt"/><path d="M370.92011,173.82731c-1.67686,-10.68409 1.56557,-34.99976 2.86906,-38.01729c2.18407,-5.05605 7.52146,-4.70722 11.79635,-4.32749c2.50809,0.2228 -3.16309,20.06713 -8.23751,32.84308c-2.41536,6.08121 4.70461,19.64554 4.70461,19.64554c0,0 -9.45307,0.55678 -11.13252,-10.14384z" fill="#801d1d" stroke="url(#color-49)" stroke-width="0" stroke-linecap="butt"/><path d="M340.84422,185.26917c0,0 7.11998,-13.56433 4.70461,-19.64554c-5.07442,-12.77595 -10.7456,-32.62029 -8.2375,-32.84308c4.27491,-0.37973 9.61229,-0.72857 11.79635,4.32748c1.30348,3.01754 4.54592,27.33321 2.86906,38.0173c-1.67945,10.70061 -11.13252,10.14384 -11.13252,10.14384z" fill="#801d1d" stroke="url(#color-50)" stroke-width="0" stroke-linecap="butt"/><path d="M347.95214,191.69475c2.42106,-1.66997 24.98237,-2.93164 27.7382,0.33775c2.20344,2.61406 5.058,32.12933 1.9437,38.39913c-2.49103,5.01503 -15.38226,-0.1568 -15.38226,-0.1568c0,0 0.2657,-22.98571 -1.12299,-22.98645c-1.35955,-0.00073 -1.38821,23.05244 -1.38821,23.05244c0,0 -14.31377,-1.50404 -15.98136,-1.40725c-3.37607,0.19596 0.26433,-34.52903 4.19292,-37.23883z" fill="#0d0d0d" stroke="url(#color-51)" stroke-width="0" stroke-linecap="butt"/><path d="M346.43679,195.52475c0,-1.95575 1.58545,-3.5412 3.54121,-3.5412c1.95575,0 3.5412,1.58544 3.5412,3.5412c0,1.95575 -1.58545,3.5412 -3.5412,3.5412c-1.95575,0 -3.54121,-1.58545 -3.54121,-3.5412z" fill="#e1f194" stroke="url(#color-52)" stroke-width="0" stroke-linecap="butt"/><path d="M369.10048,195.52475c0,-1.95575 1.58545,-3.5412 3.5412,-3.5412c1.95575,0 3.54121,1.58544 3.54121,3.5412c0,1.95575 -1.58545,3.5412 -3.54121,3.5412c-1.95575,0 -3.5412,-1.58545 -3.5412,-3.5412z" fill="#e1f194" stroke="url(#color-53)" stroke-width="0" stroke-linecap="butt"/><path d="M410.59152,283.20654c0.00363,-2.92138 0.85527,-6.77598 0.85527,-6.77598c0,0 9.63386,-5.33693 13.64651,-5.33194c6.93402,0.00862 12.54817,5.63673 12.53956,12.57075c-0.00862,6.93402 -27.04996,6.47119 -27.04134,-0.46283z" fill="#272727" stroke="url(#color-54)" stroke-width="0" stroke-linecap="butt"/><g stroke="#000000" stroke-width="0" stroke-linecap="butt"><path d="M372.25269,155.32368l-2.89447,-13.83287l3.2749,-0.68524l2.89447,13.83286z" fill="#2f323e"/><path d="M366.9359,141.29436c-2.13548,-2.19046 -4.27425,-11.35418 -4.27425,-11.35418l11.13366,-2.43747c0,0 1.40713,9.01941 0.86445,11.89335c-0.36592,1.93789 -2.35022,2.12278 -3.77181,2.42023c-1.05928,0.22164 -3.04789,0.40548 -3.95205,-0.52196z" fill="#2f323e"/><g><path d="M391.18482,114.04745c-1.36601,-2.65715 -2.92985,-3.87241 -3.99709,-5.89424c-1.00705,-1.90781 -1.52995,-4.65354 -2.39543,-6.10516c-2.1389,-3.58747 -3.88861,-5.98459 -4.40749,-8.49508c-0.32399,-1.56758 0.56773,-4.43255 0.69824,-5.83608c0.14281,-1.53582 4.56322,-2.63974 7.516,-1.87477c2.57075,0.66601 3.48446,2.90431 6.42073,5.52742c1.31356,1.17346 4.86617,3.86836 6.06727,5.40133c1.99207,2.54249 1.91133,4.46502 2.97622,7.27194c0.89222,2.35179 3.7417,5.50151 4.85267,8.2234c0.5185,1.2703 -0.51009,2.16631 -0.17018,3.35528c0.41034,1.43535 2.98411,5.70951 3.28341,7.01622c0.84992,3.71062 -0.19756,5.13241 -0.31907,7.57453c-0.1442,2.89845 2.71194,8.43325 2.00323,10.26775c-1.03534,2.68 -5.37895,4.06213 -7,4.52556c-1.59146,0.45496 -3.38189,2.45307 -5.38246,1.02004c-1.54795,-1.10881 -3.3995,-4.28033 -5.03737,-7.80997c-0.97611,-2.10352 -1.72737,-1.98853 -2.61688,-4.59671c-0.53112,-1.55732 -1.20247,-5.57768 -1.74857,-7.48796c-0.92153,-3.22349 2.36342,-6.0405 -0.74322,-12.08354z" fill="#a3a3a3"/><path d="M383.59625,89.83066c1.23243,-0.61613 3.44898,1.31966 4.9508,4.32372c1.50182,3.00406 1.7202,5.9388 0.48777,6.55493c-1.23243,0.61613 -3.44899,-1.31966 -4.95081,-4.32372c-1.50182,-3.00406 -1.72021,-5.9388 -0.48778,-6.55494z" fill="#0d0d0d"/></g><path d="M385.42993,92.58636c0.82725,0.1334 1.73992,1.17824 2.15543,1.92511c0.29802,0.5357 0.7389,1.62493 0.63658,2.18556c-0.62349,3.41671 -8.08616,6.23382 -9.90237,2.96914c-1.69871,-3.05352 3.72821,-7.62517 7.11034,-7.07981z" fill="#2f323e"/><g><path d="M347.64702,136.57249c0.26562,1.96897 1.26249,5.92118 1.40032,7.56079c0.23082,2.74601 -0.50352,2.94187 -0.55434,5.2603c-0.0853,3.89022 -0.50992,7.53803 -1.48345,9.17444c-1.25817,2.11491 -3.69954,1.00227 -5.33989,1.22356c-1.67086,0.2254 -6.20421,0.70073 -8.2272,-1.33933c-1.38477,-1.39646 -0.98735,-7.61205 -2.28155,-10.20951c-1.09044,-2.18852 -2.62008,-3.07107 -3.32923,-6.81114c-0.24973,-1.31708 0.39446,-6.2646 0.19489,-7.74404c-0.16532,-1.2255 -1.46685,-1.63395 -1.50116,-3.00556c-0.07353,-2.93898 1.27405,-6.96693 1.1485,-9.47913c-0.14985,-2.9984 -0.99463,-4.72725 -0.18906,-7.85515c0.48571,-1.88594 2.65978,-5.77913 3.39264,-7.38079c1.63821,-3.5803 1.57786,-5.99717 3.66593,-7.63802c2.39836,-1.8847 6.89051,-2.64568 7.63712,-1.29595c0.68231,1.23345 2.6479,3.50056 2.97957,5.0665c0.53121,2.50792 -0.11063,5.40544 -0.63174,9.54951c-0.21086,1.67684 0.41099,4.40186 0.25331,6.5534c-0.16709,2.28011 -1.11248,4.02042 -1.29854,7.00233c-0.42315,6.78161 3.71567,8.04523 4.16387,11.36777z" fill="#a3a3a3"/><path d="M342.90693,106.17758c-0.17139,3.35417 -1.42585,6.01627 -2.80193,5.94594c-1.37608,-0.07033 -2.35266,-2.8464 -2.18127,-6.20057c0.17139,-3.35417 1.42585,-6.01627 2.80193,-5.94594c1.37608,0.07033 2.35266,2.8464 2.18127,6.20057z" fill="#0d0d0d"/></g><path d="M349.50307,106.87178c-0.35489,3.71898 -8.32098,4.13027 -10.26205,1.25019c-0.31851,-0.47259 -0.35133,-1.64719 -0.29311,-2.25743c0.08121,-0.85079 0.49839,-2.17393 1.20275,-2.62781c2.87975,-1.85565 9.68432,0.15664 9.35239,3.63504z" fill="#2f323e"/><path d="M393.00015,127.99727c0.13951,0.66672 -10.7048,7.87222 -22.5298,10.34601c-11.80691,2.47001 -24.5943,0.20935 -24.73359,-0.45634c-0.13882,-0.66343 12.42906,0.94779 24.19495,-1.51706c11.86424,-2.48545 22.92847,-9.04159 23.06843,-8.37261z" fill="#686e88"/><path d="M392.75825,127.70032c0.38696,1.84941 2.23926,22.86412 -19.03054,27.31473c-21.2698,4.45061 -28.06193,-16.60825 -28.44891,-18.45767c-0.38696,-1.84941 5.77774,16.21095 27.04754,11.76034c21.2698,-4.45061 20.04494,-22.46681 20.43193,-20.6174z" fill="#dadada"/><path d="M369.25862,145.80369l-2.74928,-13.13905l4.93232,-1.03205l2.74928,13.13905z" fill="#24262f"/><path d="M340.41307,122.56604c-2.95286,-14.11194 6.09336,-27.94567 20.20529,-30.89855c14.11193,-2.95286 27.94568,6.09334 30.89854,20.20528c2.95286,14.11193 -48.15095,24.80519 -51.10382,10.69326z" fill="#dadada"/><path d="M344.91902,119.17999c-1.2701,-6.0699 2.6209,-12.02011 8.69077,-13.29022c6.0699,-1.2701 12.02013,2.62088 13.29022,8.69077c1.2701,6.0699 -2.6209,12.02011 -8.6908,13.29022c-6.0699,1.2701 -12.02011,-2.6209 -13.29022,-8.69077z" fill="#000000"/><path d="M362.89237,115.86681c-1.2701,-6.0699 2.62088,-12.02013 8.69077,-13.29022c6.0699,-1.2701 12.02012,2.6209 13.29022,8.69078c1.2701,6.0699 -2.62088,12.02011 -8.69078,13.29021c-6.0699,1.2701 -12.02011,-2.62088 -13.29022,-8.69077z" fill="#000000"/><path d="M395.71939,114.04035c0.71346,3.6458 -5.17052,15.63477 -26.61339,20.12158c-21.44285,4.48683 -30.98513,-4.88066 -31.79516,-8.50623c-2.51026,-11.23537 7.59699,-0.17476 29.03984,-4.6616c21.44285,-4.48683 27.06789,-18.71089 29.36871,-6.95378z" fill="#ababab"/><path d="M358.97172,125.29048c-2.01068,-9.60918 -1.72252,-32.93425 1.18552,-33.54275c2.90804,-0.6085 13.02448,18.4685 15.03516,28.07768c2.01068,9.60918 -14.21001,15.07424 -16.22068,5.46508z" fill="#ababab"/><path d="M375.57491,118.59751c0.14871,0.71062 -2.04221,9.94045 -7.04615,10.98751c-5.00395,1.04706 -10.92607,-6.48514 -11.07477,-7.19577c-0.14871,-0.71062 17.97224,-4.50235 18.12093,-3.79174z" fill="#1d1d1d"/><g><path d="M375.39987,65.57227c0.66803,3.19255 -7.48855,7.60063 -18.21824,9.84578c-10.72967,2.24514 -19.96933,1.47712 -20.63736,-1.71541c-0.11049,-0.52807 -0.2141,-2.13557 1.48647,-2.86024c6.5695,-2.79957 25.77445,-6.68416 34.14239,-6.81749c2.56131,-0.04082 3.09607,0.92294 3.22672,1.54736z" fill="#101010"/><path d="M375.29351,66.08375c1.43595,6.8625 2.87875,18.06266 -3.40634,24.17344c-4.46227,4.33851 -15.8598,4.64499 -20.31413,5.57702c-10.72823,2.24485 -12.67446,-9.88646 -15.12991,-21.62119c-0.88395,-4.22441 3.07551,-0.97958 9.27261,-3.511c5.18886,-2.11956 13.19608,-1.38845 18.29782,-3.63691c5.7307,-2.52566 10.44857,-4.95456 11.27995,-0.98138z" fill="#0d0d0d"/></g><g><path d="M384.99834,85.68308c0.15655,0.74813 -10.7147,3.6559 -24.28158,6.49472c-13.56687,2.83882 -24.69189,4.53367 -24.84845,3.78554c-0.15655,-0.74813 10.7147,-3.65591 24.28157,-6.49473c13.56687,-2.83882 24.6919,-4.53366 24.84845,-3.78553z" fill="#101010"/><path d="M384.76284,85.84699c0.3365,1.60811 -0.21439,4.41873 -9.15175,7.4126c-6.34531,2.12558 -20.32745,4.56425 -25.95964,5.74277c-13.56508,2.83844 -13.43669,-0.12663 -14.0121,-2.87648c-0.20714,-0.98992 5.99757,-0.58031 14.08834,-2.56259c6.77443,-1.65979 15.62158,-2.71876 22.31624,-4.39631c7.51999,-1.88438 12.52408,-4.25104 12.71891,-3.31999z" fill="#0d0d0d"/></g><path d="M377.4931,83.14854c0.12697,0.60674 0.98268,2.40611 -0.40289,3.21374c-1.17354,0.68402 -3.20743,1.0149 -5.5588,1.72118c-2.41058,0.72406 -5.15926,1.82153 -8.02112,2.3569c-1.44492,0.27029 -2.67721,-0.18946 -4.12292,0.11306c-2.18205,0.45658 -4.64053,1.46091 -7.16056,1.86697c-2.18856,0.35263 -4.45336,0.11155 -6.25214,0.44507c-2.23431,0.41427 -3.4825,1.12896 -4.79526,1.05783c-2.21351,-0.11992 -1.19487,-2.16402 -1.34767,-2.89424c-0.12812,-0.61227 -1.31869,-2.69244 0.09155,-3.50851c1.30653,-0.75604 3.61369,-1.95821 6.50097,-2.38385c2.10425,-0.3102 4.58976,0.14153 6.86103,-0.23942c1.76124,-0.29541 2.90984,-0.90849 4.65218,-1.27307c1.74549,-0.36523 3.54341,-0.25567 5.4071,-0.80411c2.19392,-0.6456 4.29571,-1.94949 6.31233,-2.65768c2.83212,-0.99458 5.39521,-1.29747 6.92462,-1.18218c1.96841,0.14839 0.76857,3.48501 0.91156,4.16835z" fill="#801d1d"/></g><g stroke="#000000" stroke-width="0" stroke-linecap="butt"><path d="M-2.61261,366.18619v-372.37237h725.22523v372.37237z" fill="url(#color-55)"/><path d="M-2.61262,366.18619v-372.37237h725.22523v372.37237z" fill="url(#color-56)"/></g><path d="M340,353.5v-19h40v19z" fill="#000000" stroke="#484c5e" stroke-width="0" stroke-linecap="butt"/><text transform="translate(325,350) scale(0.5,0.5)" font-size="40" xml:space="preserve" fill="#ca0d0d" stroke="none" stroke-width="1" stroke-linecap="butt" font-family="&quot;MS Gothic&quot;, Sans Serif" font-weight="normal" text-anchor="start"><tspan x="0" dy="0">B A C K</tspan></text></g></g></svg>