<svg version="1.1" xmlns="http://www.w3.org/2000/svg" xmlns:xlink="http://www.w3.org/1999/xlink" width="771.77177" height="438.43844" viewBox="0,0,771.77177,438.43844"><defs><linearGradient x1="348.75582" y1="47.80271" x2="348.75582" y2="303.80271" gradientUnits="userSpaceOnUse" id="color-1"><stop offset="0" stop-color="#30201b"/><stop offset="1" stop-color="#000000"/></linearGradient><linearGradient x1="353.04356" y1="45.06372" x2="353.04356" y2="294.29057" gradientUnits="userSpaceOnUse" id="color-2"><stop offset="0" stop-color="#e7ff8f" stop-opacity="0.17647"/><stop offset="1" stop-color="#e7ff8f" stop-opacity="0"/></linearGradient><linearGradient x1="347.54356" y1="56.12592" x2="347.54356" y2="263.12592" gradientUnits="userSpaceOnUse" id="color-3"><stop offset="0" stop-color="#e7ff8f" stop-opacity="0.17647"/><stop offset="1" stop-color="#e7ff8f" stop-opacity="0"/></linearGradient><linearGradient x1="359.31203" y1="59.31058" x2="246.53042" y2="232.88854" gradientUnits="userSpaceOnUse" id="color-4"><stop offset="0" stop-color="#e7ff8f" stop-opacity="0.17647"/><stop offset="1" stop-color="#e7ff8f" stop-opacity="0"/></linearGradient><linearGradient x1="338.75266" y1="56.6005" x2="451.53427" y2="230.17846" gradientUnits="userSpaceOnUse" id="color-5"><stop offset="0" stop-color="#e7ff8f" stop-opacity="0.17647"/><stop offset="1" stop-color="#e7ff8f" stop-opacity="0"/></linearGradient><linearGradient x1="-5.24206" y1="181.05806" x2="150.659" y2="181.05806" gradientUnits="userSpaceOnUse" id="color-6"><stop offset="0" stop-color="#000000"/><stop offset="1" stop-color="#000000" stop-opacity="0"/></linearGradient><linearGradient x1="727.50752" y1="177.8148" x2="571.60646" y2="177.8148" gradientUnits="userSpaceOnUse" id="color-7"><stop offset="0" stop-color="#000000"/><stop offset="1" stop-color="#000000" stop-opacity="0"/></linearGradient><linearGradient x1="360.24743" y1="-17.14016" x2="360.24743" y2="110.48749" gradientUnits="userSpaceOnUse" id="color-8"><stop offset="0" stop-color="#000000"/><stop offset="1" stop-color="#000000" stop-opacity="0"/></linearGradient><linearGradient x1="359.27227" y1="377.38042" x2="359.27227" y2="249.75279" gradientUnits="userSpaceOnUse" id="color-9"><stop offset="0" stop-color="#000000"/><stop offset="1" stop-color="#000000" stop-opacity="0"/></linearGradient></defs><g transform="translate(25.09158,46.66002)"><g stroke-miterlimit="10"><path d="M295.75582,303.80271v-256h106v256z" fill="url(#color-1)" stroke="none" stroke-width="0" stroke-linecap="butt"/><path d="M293.54355,294.29057v-249.22686h119v249.22686z" fill="url(#color-2)" stroke="none" stroke-width="0" stroke-linecap="butt"/><path d="M359.50583,67.80043c0.00227,-0.24999 0.25226,-0.24771 0.25226,-0.24771l0.02159,0.00019c1.38629,0.01262 2.47792,1.01493 3.793,0.9998c3.5,0 7,0 10.5,0c0.21418,0 0.42835,-0.00001 0.64252,-0.00001c-0.1254,-1.96536 -0.32283,-3.91786 -1.183,-5.63819c0,0 -0.1118,-0.2236 0.11181,-0.33541c0.22361,-0.1118 0.33541,0.1118 0.33541,0.1118c0.89795,1.7959 1.09816,3.82224 1.23105,5.86178c3.12076,-0.00012 6.24152,-0.00064 9.36228,0.00026c3.5417,0.00102 7.16832,-0.17746 10.29122,1.58953c2.9792,1.68568 4.93782,5.2001 6.45215,8.22161c1.56113,3.12129 3.58103,6.06163 5.07092,9.18283c1.59719,3.35452 1.61879,6.70888 1.61886,10.34742c0.00007,3.49985 0.00562,6.99969 0.01208,10.49954c0.00195,3.38472 0.92156,7.0112 1.50871,10.34101c0.60684,3.44148 1.47668,6.9163 1.48406,10.41375c0.00738,3.49999 0.01476,6.99998 0.02214,10.49997c0.00593,3.4637 0.52945,6.99419 0.81,10.44744c0.28366,3.49145 0.16897,7.01375 0.13837,10.51577c-0.03125,3.5763 -0.64053,6.91559 -1.27211,10.43161c-0.63162,3.51623 -0.70138,6.82326 -0.6991,10.39262c0.00225,3.5 0.00448,7 0.00673,10.5c0.00225,3.52022 0.30211,6.94053 0.65727,10.44174c0.35323,3.48213 0.70645,6.96426 1.05968,10.44639c0.35323,3.48213 0.70645,6.96426 1.05967,10.44639c0.35323,3.48213 0.70645,6.96426 1.05968,10.44639c0.35217,3.47169 0.15189,7.02846 0.15141,10.5176c-0.00049,3.5 -0.00097,7 -0.00146,10.5c-0.00049,3.50084 -0.02033,7.00103 -0.04791,10.50175c-0.0253,3.21065 0.67252,7.47898 -0.23306,10.54848c-0.99494,3.315 -1.74506,6.87895 -3.1469,10.0427c-0.44674,1.00823 -1.03801,3.54637 -1.89879,4.21083c-1.13452,0.87577 -4.61686,0.7822 -6.05498,1.01357c-3.50669,0.00547 -7.01342,0.00081 -10.52011,0.00081c-3.50009,0 -7.0002,0.00273 -10.50029,-0.00135c-0.51157,-0.00059 -1.0136,-0.02833 -1.50889,-0.0742c-0.10602,0.51367 -0.04062,1.28112 -0.08795,1.72006c-0.33142,0.40796 -0.66969,0.80901 -1.00934,1.2101l-0.04823,0.05696c0,0 -0.16156,0.19078 -0.35234,0.02922c-0.19079,-0.16156 -0.02922,-0.35234 -0.02922,-0.35234l0.04823,-0.05696c0.30703,-0.36256 0.61243,-0.72537 0.92938,-1.0793c0.03848,-0.64792 0.1781,-1.14062 0.38032,-1.54412c-2.43462,-0.24599 -4.71276,-0.90806 -7.16715,-0.90806c0,0 -0.25,0 -0.25,-0.25c0,-0.25 0.25,-0.25 0.25,-0.25c2.55804,0 4.91352,0.71547 7.45716,0.93523c0.68934,-0.941 1.73359,-1.41278 2.31152,-2.82228c0.42512,-1.03679 -0.02351,-3.26133 -0.03726,-4.40204c-0.04485,-3.71749 -4.87793,-5.11689 -5.07605,-8.40657c-1.8691,-0.97433 -3.65506,-2.11136 -5.40256,-3.30192c-0.02456,-0.2264 -0.04645,-0.41614 -0.05424,-0.53359c-0.17705,-2.52825 -1.52163,-5.26222 -0.72621,-7.46882c1.16332,-0.00005 2.32666,-0.00013 3.48998,-0.0003c2.33321,-0.00034 4.66639,-0.00254 6.99959,-0.00659c0.69331,-0.00121 1.7286,-0.18637 2.45386,0.0018c-1.38668,-1.47526 -2.12831,-2.76159 -2.93338,-4.62136c-0.40704,-0.94031 -0.85156,-1.65338 -1.34703,-2.25333c0.63878,-0.3668 1.17518,-0.74787 0.64799,-1.45181c-1.30012,-1.33766 -3.98861,-4.03792 -4.52452,-5.82389c-0.22249,-0.74148 0.13861,-2.12208 0.18436,-2.90857c0.07575,-1.30209 0.37341,-1.59261 0.78886,-2.64321c0.93802,-2.37212 -1.05791,-5.26646 -2.08466,-7.24878c-0.89864,-0.99245 -2.39637,-2.12247 -3.01866,-3.29758c-0.88477,-1.67076 -0.70846,-4.02277 -1.29711,-5.79928c-1.17882,-3.5576 -1.81712,-6.376 -1.14007,-10.11002c0.31736,-1.75023 1.43915,-4.15838 1.46816,-5.82991c0.02156,-1.24235 -1.12868,-3.14085 -1.55808,-4.31726c-0.71734,-1.96528 -2.69042,-3.08954 -3.3684,-4.85127c-0.415,-1.07838 0.01619,-3.23376 0.01601,-4.41025c-0.00055,-3.68676 -0.16694,-6.89413 -1.12509,-10.46083c-1.28688,-2.27499 -2.59255,-4.53842 -3.87113,-6.8175c0.59492,-1.27083 0.8858,-3.01248 1.65401,-4.14051c1.0231,-1.50232 3.1806,-2.80005 4.55272,-4.00343c0.64049,-0.50129 0.28603,-2.32888 0.30218,-3.14662c0.05012,-2.53849 0.2944,-4.53803 1.147,-6.93103c0.53454,-0.85378 1.57394,-1.96266 1.85086,-2.92151c0.55752,-1.93041 -0.00979,-4.90537 -0.00945,-6.93091c0.00756,-3.59473 0.99964,-6.77156 0.99964,-10.34704c0,-3.5 0,-7 0,-10.5c0,-3.5 0,-7 0,-10.5c0,-3.5 0,-7 0,-10.5c0,-3.49686 -0.11028,-7.01468 0.01957,-10.50896c0.165,-1.82091 3.20782,-1.45199 4.02601,-2.74496c0.26173,-0.41361 -0.10424,-1.45531 0.07261,-1.94839c0.476,-1.32712 0.88236,-1.55019 0.87862,-3.11778c-0.0084,-3.52631 -0.97928,-6.94743 -1.00036,-10.42387c-0.01637,-3.52808 -0.18395,-6.93686 -0.56733,-10.44433c-0.09114,-0.83384 -0.13801,-1.68675 -0.18903,-2.54072c-0.22441,0.00001 -0.44882,0.00001 -0.67323,0.00001c-3.5,0 -7,0 -10.5,0c-1.35276,-0.0127 -2.40663,-0.98716 -3.79755,-0.99981l-0.02159,-0.0002c0,0 -0.24999,-0.00227 -0.24771,-0.25226z" fill="#382520" stroke="none" stroke-width="0.5" stroke-linecap="butt"/><path d="M331.5245,64.28573c0.00495,0.27872 -0.245,0.28423 -0.245,0.28423l-0.04141,0.00091c-0.50795,0.01121 -0.82576,-0.02985 -1.26535,0.20079c0.60859,1.11806 1.21718,2.23612 1.82577,3.35418c0.67038,1.23158 2.49616,3.46566 2.62928,4.88175c0.14592,1.55227 -1.36137,4.41852 -1.82943,5.90987c-1.30503,4.15822 -1.91172,6.78944 -1.48752,11.18208c0.37969,3.93171 0.5356,7.88869 0.38274,11.84644c-1.90235,1.57146 -3.93253,2.97249 -5.9006,4.44009c-1.04397,0.77849 -2.07839,0.93624 -1.63215,2.26435c1.30122,3.87278 3.09402,6.59522 5.34446,9.8693c1.85037,3.98802 2.21075,6.81172 2.2149,11.29938c0.00302,3.26362 -0.43959,8.62895 2.03851,10.72609c2.66015,2.25119 6.58848,4.5849 5.5667,9.16171c-0.45617,2.04332 -0.61273,5.33342 -1.60022,7.11275c-0.61361,1.10566 -2.20112,2.11208 -3.09296,2.96076c-0.67681,0.64406 -2.19905,1.59091 -2.60318,2.45083c-1.17735,2.50521 0.78213,4.81713 1.95482,6.7104c2.04831,3.30691 4.43482,6.28385 4.63664,10.3364c0.19166,3.84866 -0.32375,7.84449 0.66268,11.54969c1.04703,3.93283 4.07827,6.86794 2.34002,10.85402c-1.62144,3.71582 0.00476,7.6502 -1.06416,11.41918c-1.08668,3.75789 -1.75393,7.43252 -1.81228,11.37808c-0.06153,4.16015 -0.49359,7.54084 -1.47509,11.56155c-0.41829,1.7135 -1.41345,3.46487 -1.51001,5.20774c-0.1021,1.843 0.47253,4.5422 -0.3053,6.18104c-1.7149,3.49832 -3.69628,6.48784 -3.7149,10.5456c-0.01815,3.95445 0.81036,7.60231 1.55357,11.46204c0.73059,3.79418 -0.29529,7.9395 0.54283,11.63342c0.8264,3.70349 3.56381,7.18996 2.75691,11.0785c-0.76491,3.61483 -2.00183,8.61883 -6.03578,8.81534c-3.50189,0.00691 -7.00378,0.00392 -10.50567,0.00392c-3.5,0 -7,0 -10.5,0c-3.5,0 -7,0 -10.5,0c-3.5,0 -7,0 -10.5,0c-0.17345,0 -1.08374,0.01944 -1.17444,-0.07908c-0.34506,-0.3748 -0.12857,-2.43684 -0.1411,-2.97913c-0.05879,-2.54395 -0.64208,-5.17196 -0.9841,-7.68918c-0.52431,-3.85876 -1.04861,-7.71752 -1.57292,-11.57628c-0.52431,-3.85876 -1.04861,-7.71752 -1.57292,-11.57628c-0.52762,-3.88311 -1.17659,-7.63702 -2.02821,-11.44814c-0.84623,-3.78701 -1.69245,-7.57401 -2.53868,-11.36102c-0.84623,-3.78701 -1.69245,-7.57402 -2.53868,-11.36103c-0.84623,-3.78701 -1.69245,-7.57402 -2.53867,-11.36103c-0.82647,-3.6986 -2.17935,-7.66322 -2.18661,-11.47745c-0.00743,-3.90279 -0.01486,-7.80559 -0.02228,-11.70838c-0.00743,-3.90279 -0.01485,-7.80558 -0.02228,-11.70837c-0.0075,-3.94437 0.37351,-7.77387 0.76071,-11.69256c0.38331,-3.87932 0.76664,-7.75865 1.14995,-11.63797c0.37633,-3.8086 0.40375,-7.95408 1.31232,-11.64817c0.92573,-3.76381 1.85145,-7.52762 2.77718,-11.29144c0.92542,-3.76255 1.8689,-7.51209 2.65637,-11.31375c0.78746,-3.80164 1.59848,-7.59834 2.35871,-11.40685c0.73421,-3.67807 1.0552,-8.04511 2.72015,-11.32867c1.79735,-3.54468 3.26306,-6.62582 4.19241,-10.57073c1.20989,-3.64262 2.13671,-7.60054 4.13659,-10.7897c2.26778,-3.61635 3.82156,-6.03203 7.30704,-8.18635c3.06107,-1.88465 6.59767,-2.84794 9.83463,-3.9487c3.36504,-1.13305 6.71504,-2.03857 9.9885,-3.47651c3.10315,-1.36313 6.05708,-3.13466 9.03682,-4.80752c-1.11363,-2.0459 -2.22728,-4.09179 -3.34091,-6.13769c-1.5455,-2.83928 -4.32265,-4.31692 -6.78706,-6.14893c0,0 -0.20801,-0.15463 -0.06933,-0.38658c0.13867,-0.23195 0.34668,-0.07732 0.34668,-0.07732c2.5321,1.88233 5.34611,3.40064 6.93714,6.32355c1.12075,2.05897 2.24151,4.11793 3.36226,6.17689c0.53927,-0.28247 0.91588,-0.26712 1.51558,-0.28035l0.0414,-0.00091c0,0 0.24995,-0.00552 0.2549,0.2732z" fill="#382520" stroke="none" stroke-width="0.5" stroke-linecap="butt"/><path d="M381.76622,322.7188c-0.00018,-2.39425 -0.00036,-4.78849 -0.00054,-7.18274c-0.00026,-3.50038 -0.00052,-7.00065 -0.01536,-10.50101c-0.01508,-3.55664 -0.20201,-6.96161 -0.63786,-10.49185c-0.42885,-3.47363 -0.85771,-6.94725 -1.28656,-10.42088c-0.42213,-3.39204 -0.0594,-7.04511 -0.05941,-10.4656c-0.00001,-3.50002 -0.00025,-7.00004 -0.00106,-10.50006c-0.00081,-3.48609 0.30581,-7.11156 -0.54097,-10.50066c-0.84836,-3.39543 -1.69551,-6.79112 -2.53549,-10.18863c-0.84488,-3.41735 -1.3767,-6.80929 -1.87429,-10.29313c-0.49686,-3.47875 -1.04942,-6.87351 -1.0394,-10.38999c0.01043,-3.66336 0.76121,-6.67426 1.73711,-10.19821c0.90663,-3.27381 0.7168,-7.09776 0.96273,-10.48746c0.25372,-3.4972 0.65075,-6.94592 1.10994,-10.42187c0.4554,-3.44717 1.18954,-6.97855 1.17429,-10.4563c-0.01558,-3.55218 -0.47429,-6.96726 -1.21889,-10.44701c-0.72213,-3.37474 -1.77683,-6.80386 -1.76787,-10.25888c0.00908,-3.50417 0.01719,-6.97822 0.26442,-10.47427c0.2469,-3.49128 0.49379,-6.98256 0.74069,-10.47384c0.23753,-3.35889 1.66049,-6.86873 2.53872,-10.1216c0.93018,-3.44532 1.935,-6.60042 3.41326,-9.85043c1.44911,-3.18592 2.89823,-6.37183 4.34734,-9.55775c1.30481,-2.86866 -0.2835,-7.30186 -0.7769,-10.39598c-0.44453,-2.78767 -0.28591,-8.11727 -1.91753,-10.38659c-2.07912,-2.81554 -4.15823,-5.63109 -6.23734,-8.44663c-2.07912,-2.81554 -4.15822,-5.63108 -6.23734,-8.44663c-2.08258,-2.82024 -4.34992,-5.49134 -6.57801,-8.19763c-2.26381,-2.74968 -4.49715,-5.21427 -5.96809,-8.46783c-1.29624,-2.86713 -0.62201,-6.95592 -0.60531,-10.12671h296.98974v278.15016z" fill="#1b1210" stroke="#000000" stroke-width="0" stroke-linecap="butt"/><path d="M341.49121,44.56866c-0.87649,3.22543 -1.34048,6.69494 -2.42377,9.82258c-1.17635,3.40852 -2.38974,6.39397 -4.2244,9.50109c-1.95781,3.31567 -3.5582,5.75148 -3.91009,9.61769c-0.31719,3.48502 -0.63037,6.97013 -0.97547,10.4525c-0.34771,3.50869 -0.69137,6.96196 -0.71251,10.48897c-0.01131,1.88599 0.49348,4.63471 -0.02904,6.43158c-0.31835,1.09476 -1.48559,2.3517 -2.09645,3.32607c-1.86539,2.97545 -3.79079,5.8453 -5.86652,8.67817c-0.88614,1.20937 -2.467,2.69522 -2.98785,4.09369c-0.57204,1.53589 -0.32551,3.90777 -0.45826,5.54921c-0.2894,3.57846 -0.48743,6.92612 -0.16598,10.50533c0.31404,3.49662 0.6252,6.93679 0.61154,10.44858c-0.01362,3.50031 -0.82597,6.8836 -1.46292,10.32155c-0.63787,3.44287 -1.4257,6.88523 -1.71958,10.37528c-0.30241,3.59141 -1.08812,7.0364 0.30215,10.39858c1.3519,3.26939 3.15643,6.22893 4.93528,9.28391c1.79172,3.07708 3.34443,6.0236 4.64366,9.34046c1.27035,3.24312 1.35477,6.7991 2.66483,10.09993c1.28821,3.24578 2.27692,6.608 3.35377,9.9295c0.91854,2.83321 0.5353,7.3696 0.21936,10.34513c-0.3435,3.256 -0.16358,7.26613 -1.34154,10.3166c-1.15563,2.99265 -3.37862,6.71108 -3.65984,9.89615c-0.29197,3.49585 -0.59056,6.99122 -0.87475,10.48771c0.3481,3.21892 0.11484,7.49103 1.30081,10.49337c1.30921,3.27328 2.34194,6.53427 3.30891,9.92372c0.95981,3.36437 1.85108,6.74881 2.76712,10.12535c0.91567,3.37518 1.62297,6.79835 2.37718,10.21295c0.74324,3.36492 0.81742,6.97041 1.16269,10.39981c0.34749,3.41591 1.56045,6.91903 2.34819,10.26339c0.55253,2.34574 1.09317,4.69001 1.69054,7.02131h-272.0145v-278.15015z" fill="#1b1210" stroke="#000000" stroke-width="0" stroke-linecap="butt"/><path d="M674.74626,37.28122v278.15015h-296.98974c-0.0167,-3.17079 -0.69093,-7.25957 0.60531,-10.12671c1.47094,-3.25356 3.70428,-5.71814 5.96809,-8.46783c2.22809,-2.70628 4.49543,-5.37739 6.57801,-8.19763c2.07912,-2.81554 4.15822,-5.63109 6.23734,-8.44663c2.07912,-2.81554 4.15823,-5.63109 6.23734,-8.44663c1.63162,-2.26932 1.473,-7.59893 1.91753,-10.38659c0.4934,-3.09412 2.08171,-7.52731 0.7769,-10.39598c-1.44911,-3.18592 -2.89823,-6.37183 -4.34734,-9.55775c-1.47826,-3.25 -2.48308,-6.40511 -3.41326,-9.85044c-0.87822,-3.25287 -2.30118,-6.7627 -2.53872,-10.12159c-0.2469,-3.49128 -0.49379,-6.98256 -0.74069,-10.47384c-0.24723,-3.49605 -0.25534,-6.97011 -0.26442,-10.47427c-0.00896,-3.45502 1.04574,-6.88413 1.76787,-10.25887c0.7446,-3.47975 1.20331,-6.89483 1.21889,-10.44701c0.01525,-3.47775 -0.7189,-7.00914 -1.17429,-10.45631c-0.4592,-3.47595 -0.85622,-6.92467 -1.10994,-10.42187c-0.24593,-3.38969 -0.0561,-7.21365 -0.96273,-10.48745c-0.97591,-3.52394 -1.72668,-6.53484 -1.73711,-10.1982c-0.01002,-3.51648 0.54254,-6.91125 1.0394,-10.38999c0.49759,-3.48385 1.0294,-6.87578 1.87429,-10.29313c0.83998,-3.39751 1.68713,-6.7932 2.53549,-10.18863c0.84678,-3.38911 0.54016,-7.01457 0.54097,-10.50066c0.00081,-3.50002 0.00106,-7.00003 0.00106,-10.50006c0.00001,-3.42049 -0.36272,-7.07357 0.05941,-10.4656c0.42885,-3.47362 0.85771,-6.94725 1.28656,-10.42088c0.43584,-3.53025 0.62277,-6.9352 0.63786,-10.49184c0.01484,-3.50035 0.0151,-7.00062 0.01536,-10.50101c0.00018,-2.39424 0.00036,-4.7885 0.00054,-7.18274z" fill="#160f0d" stroke="#000000" stroke-width="0" stroke-linecap="butt"/><g><path d="M505.73595,105.77627h-34" fill="none" stroke="#000000" stroke-width="2.5" stroke-linecap="round"/><g><path d="M438.73595,255.77627h49" fill="none" stroke="#000000" stroke-width="2.5" stroke-linecap="round"/><path d="M458.73595,199.77627h45" fill="none" stroke="#000000" stroke-width="2.5" stroke-linecap="round"/><path d="M472.73595,153.77627h49" fill="none" stroke="#000000" stroke-width="2.5" stroke-linecap="round"/><path d="M627.73595,53.77627v251h-176c0,0 37.07447,-73.29092 45.54395,-152.76323c5.14276,-48.25636 -17.54395,-98.23676 -17.54395,-98.23676z" fill="#0d0f11" stroke="none" stroke-width="0" stroke-linecap="butt"/></g></g><path d="M45.25376,315.43137v-278.15015h272.0145c-0.59737,2.3313 -1.13801,4.67556 -1.69054,7.0213c-0.78774,3.34436 -2.0007,6.84748 -2.34819,10.26339c-0.34526,3.4294 -0.41944,7.03489 -1.16269,10.39981c-0.75421,3.4146 -1.46152,6.83777 -2.37718,10.21295c-0.91604,3.37654 -1.80731,6.76098 -2.76712,10.12535c-0.96697,3.38945 -1.9997,6.65045 -3.30891,9.92372c-1.18597,3.00235 -0.95271,7.27446 -1.30081,10.49338c0.28418,3.49649 0.58278,6.99186 0.87475,10.48771c0.28121,3.18507 2.50421,6.9035 3.65984,9.89615c1.17796,3.05048 0.99803,7.0606 1.34154,10.3166c0.31594,2.97553 0.69919,7.51192 -0.21936,10.34513c-1.07685,3.3215 -2.06556,6.68372 -3.35377,9.9295c-1.31005,3.30083 -1.39448,6.85681 -2.66483,10.09993c-1.29923,3.31686 -2.85195,6.26339 -4.64366,9.34046c-1.77886,3.05498 -3.58338,6.01453 -4.93528,9.28392c-1.39027,3.36218 -0.60456,6.80716 -0.30215,10.39857c0.29387,3.49005 1.0817,6.93241 1.71958,10.37528c0.63696,3.43795 1.4493,6.82123 1.46292,10.32154c0.01367,3.51179 -0.2975,6.95195 -0.61154,10.44858c-0.32146,3.57921 -0.12343,6.92687 0.16598,10.50533c0.13275,1.64144 -0.11377,4.01331 0.45826,5.54921c0.52085,1.39847 2.10171,2.88432 2.98785,4.09369c2.07573,2.83288 4.00113,5.70272 5.86652,8.67817c0.61086,0.97437 1.7781,2.23131 2.09645,3.32607c0.52252,1.79687 0.01773,4.54559 0.02904,6.43158c0.02115,3.52702 0.3648,6.98028 0.71251,10.48897c0.3451,3.48237 0.65828,6.9675 0.97547,10.45251c0.35189,3.86622 1.95229,6.30202 3.91009,9.61768c1.83466,3.10712 3.04805,6.09256 4.2244,9.50108c1.0833,3.12764 1.54728,6.59715 2.42377,9.82259z" fill="#160f0d" stroke="#000000" stroke-width="0" stroke-linecap="butt"/><g><path d="M188.54356,260.06372h34" fill="none" stroke="#000000" stroke-width="2.5" stroke-linecap="round"/><g><path d="M230.54356,110.06372h49" fill="none" stroke="#000000" stroke-width="2.5" stroke-linecap="round"/><path d="M259.54355,166.06372h-45" fill="none" stroke="#000000" stroke-width="2.5" stroke-linecap="round"/><path d="M245.54356,212.06372h-49" fill="none" stroke="#000000" stroke-width="2.5" stroke-linecap="round"/><path d="M90.54355,312.06372v-251h176c0,0 -37.07447,73.29092 -45.54395,152.76324c-5.14275,48.25636 -32.45604,98.23677 -32.45604,98.23677z" fill="#0d0f11" stroke="none" stroke-width="0" stroke-linecap="butt"/></g></g><g stroke="none" stroke-width="0" stroke-linecap="butt"><path d="M191.54356,263.12592l125,-207l69,1l144,206z" fill="url(#color-3)"/><path d="M162.93433,178.57231l179.76565,-130.05534l36.43035,24.86303l-35.07117,222.87747z" fill="url(#color-4)"/><path d="M354.00552,293.54739l-35.07118,-222.87747l36.43035,-24.86303l179.76564,130.05534z" fill="url(#color-5)"/></g><path d="M-13,74.92194v-82.29602h746v82.29602z" fill="#15181c" stroke="#000000" stroke-width="0" stroke-linecap="butt"/><path d="M-13,361.50152v-82.29602h746v82.29602z" fill="#15181c" stroke="#000000" stroke-width="0" stroke-linecap="butt"/><g fill="none" stroke="#b7b7b7" stroke-width="7.5" stroke-linecap="round"><path d="M644.53454,220.54056h-569.06907"/><path d="M596.51803,221.00002v62"/><path d="M542.95947,221.00002v62"/><path d="M489.40091,221.00002v62"/><path d="M436.35286,283.00002v-62"/><path d="M382.7943,283.00002v-62"/><path d="M329.23573,283.00002v-62"/><path d="M276.18769,221.00002v62"/><path d="M222.62914,283.00002v-62"/><path d="M169.07058,283.00002v-62"/><path d="M117.4895,221.49552v62"/></g><path d="M-13,360.00002v-360l115.08436,39.42343l0.39012,278.65015z" fill="#323a43" stroke="none" stroke-width="0" stroke-linecap="butt"/><path d="M617.61263,318.07358l0.39012,-278.65015l115.08436,-39.42342v360z" fill="#323a43" stroke="none" stroke-width="0" stroke-linecap="butt"/><path d="M-13,360.00002v-360l84.41038,28.91571c0.12494,1.62443 0.20232,3.25107 0.37466,4.76581c0.39774,3.49581 0.40097,6.933 0.40795,10.44978c0.00685,3.45221 0.28494,7.03523 -0.08763,10.46666c-0.3778,3.47955 -0.7556,6.9591 -1.13339,10.43865c-0.3741,3.4455 -1.63236,6.77574 -2.61221,10.0972c-0.99367,3.36829 -2.01503,6.7097 -2.77823,10.13825c-0.75836,3.40678 -1.52756,6.81137 -2.27344,10.22091c-1.35771,2.75651 -2.54983,7.06164 -4.6759,9.25832c-2.54398,2.66255 -4.58821,5.0887 -6.43759,8.27844c-1.82485,3.14742 -3.65095,5.92185 -4.42755,9.49203c-0.74444,3.42232 -1.45563,6.84865 -2.1429,10.28289c-0.68588,3.42728 -0.41982,7.0174 -0.4355,10.50896c-0.01683,3.74831 0.08186,6.80757 1.21961,10.38907c1.05499,3.32085 2.0567,6.7331 3.33974,9.97223c1.2883,3.25057 2.62737,6.47848 3.73398,9.79571c1.17497,3.52214 2.11508,6.52758 4.34776,9.51407c2.10796,2.81966 3.91571,5.73779 5.72793,8.7548c1.79718,2.99199 3.27135,6.17439 4.83892,9.29225c1.55857,3.09995 4.44781,5.49635 5.61808,8.76131c1.1807,3.29406 2.28698,6.61039 3.39431,9.92976c1.02461,3.07138 2.23924,6.88909 2.26607,10.14704c0.03696,3.49923 0.0447,6.99772 0.04482,10.49714c0.00012,3.5 0.00009,6.99999 0.00009,10.49999c0,3.5 0,7 0,10.5c0,3.5 0,7 0,10.5c0,3.41526 0.43579,7.06733 -0.58517,10.33439c-1.02181,3.2698 -0.09173,7.21973 -1.55757,10.1701c-1.80249,3.62796 -2.27168,6.04038 -2.32972,10.08488c-0.04119,2.87042 -0.99228,8.05904 0.54163,10.48202c1.88464,2.97701 3.5064,5.99445 5.08712,9.14265c0.66788,1.27032 2.4893,1.1792 3.29067,2.21995c0.0818,0.10623 0.15397,0.22013 0.21795,0.34056z" fill="#190d4f" stroke="none" stroke-width="0" stroke-linecap="butt"/><path d="M635.70224,324.64153c0.06398,-0.12043 0.13615,-0.23433 0.21795,-0.34056c0.80137,-1.04075 2.62279,-0.94963 3.29067,-2.21995c1.58072,-3.1482 3.20248,-6.16564 5.08712,-9.14265c1.53391,-2.42298 0.58282,-7.6116 0.54163,-10.48202c-0.05804,-4.0445 -0.52723,-6.45692 -2.32972,-10.08488c-1.46584,-2.95037 -0.53576,-6.9003 -1.55757,-10.1701c-1.02096,-3.26706 -0.58517,-6.91913 -0.58517,-10.33439c0,-3.5 0,-7 0,-10.5c0,-3.5 0,-7 0,-10.5c0,-3.5 -0.00003,-6.99999 0.00009,-10.49999c0.00012,-3.49942 0.00786,-6.99791 0.04482,-10.49714c0.02683,-3.25795 1.24146,-7.07566 2.26607,-10.14704c1.10733,-3.31937 2.21361,-6.6357 3.39431,-9.92976c1.17027,-3.26496 4.05951,-5.66136 5.61808,-8.76131c1.56757,-3.11786 3.04174,-6.30026 4.83892,-9.29225c1.81222,-3.01701 3.61997,-5.93514 5.72793,-8.7548c2.23268,-2.98649 3.17279,-5.99193 4.34776,-9.51407c1.10661,-3.31723 2.44568,-6.54514 3.73398,-9.79571c1.28304,-3.23913 2.28475,-6.65138 3.33974,-9.97223c1.13775,-3.5815 1.23644,-6.64076 1.21961,-10.38907c-0.01568,-3.49156 0.25038,-7.08168 -0.4355,-10.50896c-0.68727,-3.43424 -1.39846,-6.86057 -2.1429,-10.28289c-0.7766,-3.57018 -2.6027,-6.34461 -4.42755,-9.49203c-1.84938,-3.18974 -3.89361,-5.61589 -6.43759,-8.27844c-2.12607,-2.19668 -3.31819,-6.50181 -4.6759,-9.25832c-0.74588,-3.40954 -1.51508,-6.81413 -2.27344,-10.22091c-0.7632,-3.42855 -1.78456,-6.76996 -2.77823,-10.13825c-0.97985,-3.32146 -2.23811,-6.6517 -2.61221,-10.0972c-0.37779,-3.47955 -0.75559,-6.9591 -1.13339,-10.43865c-0.37257,-3.43143 -0.09448,-7.01445 -0.08763,-10.46666c0.00698,-3.51678 0.01021,-6.95397 0.40795,-10.44978c0.17234,-1.51474 0.24972,-3.14138 0.37466,-4.76581l84.41038,-28.91571v360z" fill="#190d4f" stroke="none" stroke-width="0" stroke-linecap="butt"/><path d="M636.00486,-3.55086c-1.34854,3.05448 -1.69472,6.16768 -5.93062,8.41013c-4.18583,2.21594 -8.48662,4.36049 -12.21146,6.79655c-1.87755,1.22792 -4.70096,4.07213 -7.28817,4.79514c-1.25444,0.35056 -4.27211,0.16752 -5.72399,0.23059c-5.8868,0.25573 -11.77361,0.51145 -17.66041,0.76718c-6.03121,0.262 -11.40335,-0.50205 -17.3055,-1.16274c-5.77818,-0.64681 -11.55636,-1.29363 -17.33454,-1.94044c-5.82131,-0.65164 -11.63966,-1.015 -17.54702,-1.38514c-1.75009,-0.10966 -4.25978,-0.52492 -5.9878,-0.36575c-3.41367,0.31444 -7.56431,1.99119 -10.67505,2.81765c-5.27596,1.40173 -10.55193,2.80346 -15.82789,4.20518c-5.35681,1.42321 -10.41777,2.88123 -15.41897,4.62984c-5.12758,1.7928 -9.70397,3.1882 -15.4871,4.30243c-5.38037,1.03663 -10.96108,2.58294 -16.70562,2.58243c-5.90612,-0.00052 -11.81199,-0.00105 -17.71805,-0.01641c-5.90664,-0.01537 -11.81328,-0.03074 -17.71992,-0.0461c-5.57895,-0.01451 -11.726,-1.33044 -17.14501,-2.04275c-5.73674,-0.75408 -11.50858,-1.41841 -17.27999,-2.09442c-5.7831,-0.67737 -11.54906,-1.31203 -17.38412,-1.85191c-5.81799,-0.5383 -11.63598,-1.07661 -17.45397,-1.61491c-5.77323,-0.53416 -11.85466,0.43 -17.61644,0.93688c-5.75598,0.50637 -11.89905,0.76653 -17.48048,1.66296c-5.65086,0.90758 -11.30173,1.81517 -16.95259,2.72275c-5.80571,0.93245 -10.97132,2.12784 -16.41131,3.54324c-4.92605,1.29232 -11.75198,1.55007 -17.15626,1.85761c-5.7575,0.32764 -11.78763,0.97183 -17.5751,0.95088c-5.67446,-0.01806 -12.05525,0.38845 -17.63817,-0.12633c-5.73825,-0.52356 -11.77412,-0.78876 -17.17509,-1.94733c-5.73364,-1.22993 -10.40991,-2.42516 -15.38142,-4.37668c-4.81849,-1.89146 -10.07852,-3.19076 -15.43947,-4.60966c-5.27547,-1.39627 -10.08275,-3.1883 -15.01288,-4.89771c-5.09831,-1.76772 -10.57037,-2.58598 -16.34254,-3.59755c-5.60577,-0.98241 -11.21153,-1.96481 -16.8173,-2.94722c-5.58625,-0.97899 -11.47524,-1.58421 -17.18604,-2.33777c-5.73021,-0.75613 -11.46118,-1.51066 -17.19006,-2.26958c-5.74468,-0.76102 -11.15864,-2.2694 -16.99466,-2.44254c-1.20914,-0.01028 -2.11284,-0.77632 -2.95326,-1.2203c-3.20929,-1.69541 -4.81483,-3.84555 -6.84133,-5.98107c-1.35786,-1.43092 -2.68132,-2.85702 -4.08632,-4.25885h569.06907c-0.33338,0.77404 -0.67149,1.54781 -1.01317,2.32172z" fill="#0c0626" stroke="#000000" stroke-width="0" stroke-linecap="butt"/><path d="M45.85125,358.70545c1.48274,-1.82843 1.86338,-3.69202 6.52084,-5.03436c4.60241,-1.32648 9.33122,-2.61022 13.42677,-4.06846c2.0644,-0.73504 5.16882,-2.43761 8.01351,-2.87041c1.37928,-0.20985 4.69728,-0.10028 6.29365,-0.13803c6.47267,-0.15308 12.94535,-0.30616 19.41802,-0.45924c6.63146,-0.15684 12.53823,0.30053 19.02779,0.69602c6.35324,0.38719 12.70648,0.77438 19.05972,1.16156c6.40066,0.39008 12.79807,0.60759 19.29335,0.82915c1.92426,0.06564 4.68372,0.31422 6.58371,0.21894c3.75341,-0.18823 8.31713,-1.19194 11.73746,-1.68667c5.80104,-0.83909 11.60208,-1.67817 17.40313,-2.51725c5.88993,-0.85194 11.45457,-1.72472 16.95351,-2.77146c5.63788,-1.07318 10.66973,-1.90848 17.02841,-2.57546c5.91584,-0.62053 12.05195,-1.54617 18.3682,-1.54586c6.49392,0.00031 12.98755,0.00063 19.48139,0.00983c6.49448,0.0092 12.98896,0.0184 19.48344,0.0276c6.13418,0.00869 12.89299,0.79641 18.85132,1.2228c6.30768,0.45139 12.65394,0.84907 18.99974,1.25373c6.35864,0.40548 12.69845,0.78539 19.11423,1.10857c6.39701,0.32223 12.79402,0.64446 19.19103,0.96669c6.34779,0.31975 13.03446,-0.2574 19.36967,-0.56082c6.32883,-0.30312 13.08327,-0.45885 19.22018,-0.99546c6.21325,-0.54329 12.4265,-1.08657 18.63975,-1.62986c6.38351,-0.55817 12.06321,-1.27374 18.0446,-2.12101c5.4163,-0.77359 12.92157,-0.92788 18.8637,-1.11198c6.33051,-0.19613 12.96076,-0.58174 19.32421,-0.5692c6.2392,0.01081 13.25502,-0.23253 19.39356,0.07563c6.30933,0.31341 12.9459,0.47215 18.8844,1.16569c6.30426,0.73625 11.44592,1.45172 16.91221,2.61991c5.29803,1.13224 11.08156,1.91001 16.97604,2.75938c5.8005,0.83582 11.08621,1.90854 16.507,2.9318c5.60571,1.05817 11.62236,1.54799 17.96899,2.15352c6.16366,0.58807 12.32733,1.17615 18.491,1.76423c6.1422,0.58603 12.61728,0.94832 18.89643,1.39941c6.30049,0.45262 12.60182,0.90429 18.90086,1.35859c6.31641,0.45555 12.26917,1.35848 18.68602,1.46212c1.32948,0.00616 2.32311,0.46471 3.24718,0.73048c3.52869,1.01488 5.29402,2.30198 7.52219,3.58031c1.493,0.85656 2.94817,1.71024 4.49299,2.54938h-625.7042c0.36656,-0.46334 0.73832,-0.92653 1.11401,-1.3898z" fill="#0c0626" stroke="#000000" stroke-width="0" stroke-linecap="butt"/><g stroke="none" stroke-linecap="butt"><g fill="none" stroke-width="1" font-family="sans-serif" font-weight="normal" font-size="12" text-anchor="start"/><g stroke-width="0"><path d="M-5.24206,376.25325v-390.39039h155.90105v390.39039z" fill="url(#color-6)"/><path d="M571.60646,373.00998v-390.39039h155.90105v390.39039z" fill="url(#color-7)"/><path d="M-6.53233,110.48749v-127.62762h733.55954v127.62763z" fill="url(#color-8)"/><path d="M726.05204,249.75279v127.62762h-733.55954v-127.62762z" fill="url(#color-9)"/></g></g><path d="M-25.09158,391.77842v-420.42042h19.51952v420.42042z" fill="#000000" stroke="none" stroke-width="0" stroke-linecap="butt"/><path d="M725.65918,385.77242v-432.43244h21.02102v432.43244z" fill="#000000" stroke="none" stroke-width="0" stroke-linecap="butt"/></g></g></svg>