<svg version="1.1" xmlns="http://www.w3.org/2000/svg" xmlns:xlink="http://www.w3.org/1999/xlink" width="76.33333" height="101" viewBox="0,0,76.33333,101"><g transform="translate(-321.83333,-129.5)"><g data-paper-data="{&quot;isPaintingLayer&quot;:true}" fill-rule="nonzero" stroke-linecap="butt" stroke-linejoin="miter" stroke-miterlimit="10" stroke-dasharray="" stroke-dashoffset="0" style="mix-blend-mode: normal"><path d="M321.83333,230.5v-101h76.33333v101z" fill="#273042" stroke="none" stroke-width="0"/><path d="M329.75469,196.83333v-61.66667h60.49068v61.66667z" fill="#0b0e13" stroke="none" stroke-width="0"/><path d="M343.08343,227.33333v-17.33333h33.83333v17.33333z" fill="#0b0e13" stroke="#000000" stroke-width="0"/><path d="M342.99991,209.125v-11.25h34.25v11.25z" fill="#273042" stroke="#000000" stroke-width="0"/><text transform="translate(340.9228,207.0298) scale(0.29415,0.29415)" font-size="40" xml:space="preserve" fill="#000000" fill-rule="nonzero" stroke="none" stroke-width="1" stroke-linecap="butt" stroke-linejoin="miter" stroke-miterlimit="10" stroke-dasharray="" stroke-dashoffset="0" font-family="&quot;GovtAgentBB&quot;, Serif" font-weight="normal" text-anchor="start" style="mix-blend-mode: normal"><tspan x="0" dy="0">Toothy</tspan></text><text transform="translate(351.55298,223.17375) scale(0.37559,0.37559)" font-size="40" xml:space="preserve" fill="#545454" fill-rule="nonzero" stroke="none" stroke-width="1" stroke-linecap="butt" stroke-linejoin="miter" stroke-miterlimit="10" stroke-dasharray="" stroke-dashoffset="0" font-family="&quot;Agency FB&quot;, Sans Serif" font-weight="normal" text-anchor="start" style="mix-blend-mode: normal"><tspan x="0" dy="0">OFF</tspan></text><g><g stroke="#000000" stroke-width="0"><path d="M342.60269,142.04412c0,0 4.11874,7.8547 9.65646,13.02228c4.10027,3.82622 9.83266,8.44408 8.83029,10.37892c-2.35613,4.54798 -13.45285,12.41383 -18.78497,11.66236c-2.11454,-0.29801 -6.58171,-4.95196 -7.15337,-10.361c-0.86986,-8.23062 7.4516,-24.70256 7.4516,-24.70256z" data-paper-data="{&quot;index&quot;:null}" fill="#262626"/><path d="M342.95099,143.8617c0,0 3.71193,7.07889 8.70269,11.73608c3.69529,3.4483 8.81579,7.95848 7.91243,9.70222c-2.12341,4.09878 -12.12412,11.18771 -16.92959,10.51047c-1.90569,-0.26858 -5.93163,-4.46286 -6.44683,-9.33765c-0.78394,-7.41768 6.7613,-22.61111 6.7613,-22.61111z" data-paper-data="{&quot;index&quot;:null}" fill="#202020"/></g><g data-paper-data="{&quot;index&quot;:null}" stroke="#000000" stroke-width="0"><path d="M381.88119,176.33286c-2.65509,4.74711 -8.59378,7.2664 -10.65487,6.70783c-5.19733,-1.40854 -12.30096,-13.008 -12.6762,-18.11628c-0.15964,-2.17321 6.92787,-4.16121 12.2034,-6.06408c7.125,-2.56995 14.00356,-8.16868 14.00356,-8.16868c0,0 1.16419,18.41782 -2.8759,25.64121z" data-paper-data="{&quot;index&quot;:null}" fill="#262626"/><path d="M381.03432,175.67223c-2.39285,4.27824 -7.74497,6.54871 -9.60249,6.0453c-4.68399,-1.26941 -11.086,-11.7232 -11.42418,-16.32694c-0.14387,-1.95857 6.33877,-4.08849 11.09325,-5.8034c6.42126,-2.31613 12.62043,-7.36186 12.62043,-7.36186c0,0 0.95404,16.93697 -2.68702,23.44691z" data-paper-data="{&quot;index&quot;:null}" fill="#202020"/></g><g fill="#2b2b2b" stroke="#000000" stroke-width="0"><path d="M340.84762,168.93922c2.0836,-10.15697 11.20597,-15.79546 20.88673,-13.80955c9.68075,1.98591 16.05019,10.80239 13.96659,20.95936c-2.0836,10.15697 -11.62048,16.78093 -21.30123,14.79502c-7.98157,-1.63734 -16.66515,-11.74483 -14.9197,-19.69484c0.38809,-1.76767 1.0019,-0.46721 1.36761,-2.24998z"/><path d="M376.15286,178.71225c-1.52553,7.99512 -13.48721,13.86746 -21.46877,12.23012c-9.68075,-1.9859 -15.83945,-11.82965 -13.75586,-21.98662c2.0836,-10.15697 11.40975,-15.75366 21.0905,-13.76775c9.68075,1.9859 15.84641,10.76058 13.76282,20.91755c-0.36572,1.78277 0.71052,0.829 0.37132,2.6067z" data-paper-data="{&quot;index&quot;:null}"/></g><path d="M341.77932,169.28074c2.0054,-9.77579 10.73703,-14.80069 19.85286,-12.93067c9.11583,1.87002 15.16389,9.92681 13.15849,19.70261c-2.0054,9.77579 -10.73703,14.80069 -19.85286,12.93067c-9.11583,-1.87002 -15.16389,-9.92681 -13.15849,-19.70261z" fill="#323232" stroke="#000000" stroke-width="0"/><g fill="#2b2b2b" stroke="#000000" stroke-width="0"><path d="M343.86337,170.59997c0.85654,-4.1754 5.34088,-7.3648 9.11789,-6.58998c3.77702,0.77482 4.36502,5.21263 3.50848,9.38803c-0.85654,4.1754 -3.481,6.91484 -7.25803,6.14002c-3.77702,-0.77482 -6.2249,-4.76267 -5.36836,-8.93807z"/><path d="M363.90171,182.54744c-3.77702,-0.77482 -5.11097,-4.32628 -4.25443,-8.50168c0.85654,-4.1754 3.14427,-8.02328 6.92129,-7.24847c3.77702,0.77482 6.64347,5.47215 5.78693,9.64755c-0.85654,4.1754 -4.67677,6.87742 -8.45379,6.1026z" data-paper-data="{&quot;index&quot;:null}"/></g><path d="M343.92666,170.29142c0.82399,-4.01672 5.27758,-7.05625 9.0546,-6.28143c0.9191,0.18854 1.65128,0.58467 2.22121,1.13405c0.08678,0.08365 1.23181,-0.44024 1.23181,-0.44024c0,0 -0.6387,1.13388 -0.49455,1.37411c1.07899,1.79811 1.13793,4.45416 0.61486,7.00397c-0.82399,4.01672 -3.42393,6.63661 -7.20095,5.8618c-1.12111,-0.22998 -2.12742,-0.73185 -2.96674,-1.42898c-0.19884,-0.16515 -1.30522,0.37212 -1.30522,0.37212c0,0 0.51695,-1.13615 0.41274,-1.2601c-1.39462,-1.65884 -2.05298,-3.97003 -1.56777,-6.33531z" fill="#000000" stroke="#000000" stroke-width="0"/><path d="M364.02361,181.95307c-3.77702,-0.77482 -5.13549,-4.20675 -4.31151,-8.22346c0.82399,-4.01672 3.07942,-7.70715 6.85644,-6.93234c3.77702,0.77482 6.67422,5.32229 5.85023,9.339c-0.82399,4.01672 -4.61814,6.59161 -8.39517,5.81679z" data-paper-data="{&quot;index&quot;:null}" fill="#000000" stroke="#000000" stroke-width="0"/><g data-paper-data="{&quot;index&quot;:null}" fill="none" stroke="none" stroke-width="1" font-family="sans-serif" font-weight="normal" font-size="12" text-anchor="start"/><g fill="#262626" stroke="#000000" stroke-width="0"><path d="M361.2575,179.95547c-0.23938,1.16692 -2.35293,1.71913 -4.72075,1.23339c-2.36782,-0.48573 -4.09326,-1.82547 -3.85387,-2.99239c0.23938,-1.16692 2.35293,-1.71913 4.72075,-1.23339c2.36782,0.48573 4.09326,1.82547 3.85388,2.99239z"/><path d="M359.82919,180.60341c-0.15808,0.77059 -1.81831,1.94016 -3.4996,1.59526c-1.68128,-0.3449 -2.74696,-2.07366 -2.58888,-2.84425c0.15808,-0.77059 1.64917,-1.11568 3.33046,-0.77078c1.68128,0.3449 2.91609,1.24918 2.75801,2.01977z"/></g><g data-paper-data="{&quot;index&quot;:null}" fill="none" stroke="none" stroke-width="1" font-family="sans-serif" font-weight="normal" font-size="12" text-anchor="start"/><g fill="#000000" stroke="#000000" stroke-width="0"><path d="M355.01265,189.49761c-4.78552,-0.9817 -9.16459,-4.92178 -11.7126,-8.0214c-1.87248,-2.27785 -1.30287,-6.23694 -1.30287,-6.23694c0,0 0.69842,3.39987 2.12068,4.30093c0.46404,0.29398 1.37797,1.04515 1.37797,1.04515c0,0 1.20924,-0.10121 1.84157,0.02786c0.21531,0.04395 0.56763,0.80936 0.56763,0.80936c0,0 0.80302,-0.35572 1.16989,-0.2959c2.1906,0.35721 4.65179,0.99849 7.33712,1.54935c2.06025,0.42264 0.6913,7.25047 -1.39938,6.82159z"/><path d="M354.66652,189.42661c-2.09068,-0.42888 -0.66087,-7.24423 1.39938,-6.82159c2.68532,0.55086 5.20021,0.93038 7.35453,1.46449c0.3608,0.08945 0.9589,0.73259 0.9589,0.73259c0,0 0.62522,-0.56486 0.84044,-0.5205c0.63208,0.1303 1.7038,0.69943 1.7038,0.69943c0,0 1.13586,-0.33067 1.67816,-0.41821c1.66214,-0.26832 3.64272,-3.11862 3.64272,-3.11862c0,0 -1.03513,3.8636 -3.6532,5.22026c-3.56257,1.84609 -9.13922,3.74386 -13.92473,2.76217z" data-paper-data="{&quot;index&quot;:null}"/></g><path d="M350.10989,181.40144c0,0 -1.54609,0.91597 -2.40931,2.94487c-0.86321,2.02891 0.07685,3.38325 0.07685,3.38325c0,0 -2.33243,-2.10071 -3.43327,-4.40574c-0.83959,-1.75801 -0.53049,-3.8324 -0.47539,-4.01854c0.19271,0.2235 0.59614,0.63365 0.79892,0.57716c0,0 0.30269,0.41156 0.77813,0.6182c0.36649,0.15928 1.46026,-0.06595 1.8529,0.15073c0.21302,0.11756 0.30993,0.27643 0.46165,0.43335c0.09875,0.10213 0.04002,0.29107 0.14021,0.32976c0.11399,0.04402 0.94636,-0.30742 1.07068,-0.27041c0.55297,0.16458 1.13862,0.25736 1.13862,0.25736z" fill="#ffffff" stroke="#ff0000" stroke-width="0"/><path d="M363.50882,184.12631c0.12885,0.01493 0.75563,0.6657 0.87774,0.67011c0.10732,0.00388 0.12774,-0.19292 0.25872,-0.24792c0.20124,-0.08451 0.35287,-0.19239 0.59498,-0.21659c0.44624,-0.0446 1.36299,0.59307 1.76259,0.59095c0.51841,-0.00276 0.95868,-0.26191 0.95868,-0.26191c0.16417,0.13176 0.69649,-0.08643 0.96163,-0.21601c-0.02264,0.19279 -0.55521,2.22134 -2.01914,3.50681c-1.91946,1.68546 -4.89057,2.6982 -4.89057,2.6982c0,0 1.39736,-0.87485 1.40267,-3.07975c0.00531,-2.2049 -1.05529,-3.6556 -1.05529,-3.6556c0,0 0.57488,0.14529 1.14799,0.21171z" data-paper-data="{&quot;index&quot;:null}" fill="#ffffff" stroke="#ff0000" stroke-width="0"/><g fill="none" stroke="#2b2b2b" stroke-width="0.5"><path d="M355.00104,189.49523l0,-0.00001c-4.78552,-0.9817 -9.16459,-4.92178 -11.7126,-8.0214c-1.87248,-2.27785 -1.30287,-6.23694 -1.30287,-6.23694c0,0 0.69842,3.39988 2.12068,4.30093c0.46404,0.29398 1.37797,1.04515 1.37797,1.04515c0,0 1.20924,-0.10121 1.84157,0.02786c0.21531,0.04395 0.56763,0.80935 0.56763,0.80935c0,0 0.80302,-0.35571 1.16988,-0.2959c2.1906,0.35721 4.65179,0.99849 7.33712,1.54935"/><path d="M356.05429,182.60263c2.68532,0.55086 5.20021,0.93038 7.35453,1.46449c0.3608,0.08945 0.9589,0.73259 0.9589,0.73259c0,0 0.62522,-0.56486 0.84044,-0.5205c0.63208,0.1303 1.7038,0.69943 1.7038,0.69943c0,0 1.13586,-0.33067 1.67816,-0.41821c1.66214,-0.26832 3.64272,-3.11862 3.64272,-3.11862c0,0 -1.03513,3.8636 -3.6532,5.22026c-3.56257,1.84609 -9.13922,3.74386 -13.92473,2.76217l-0.00001,0" data-paper-data="{&quot;index&quot;:null}"/></g><path d="M347.70058,184.34632c-0.86321,2.02891 0.07685,3.38325 0.07685,3.38325c0,0 -2.33242,-2.10071 -3.43327,-4.40574c-0.27709,-0.58021 -0.42907,-1.19488 -0.50635,-1.76476c1.0019,0.39838 2.67215,0.90077 3.00872,1.00166c0.5288,0.15852 1.05731,0.32137 1.58569,0.48206c-0.26316,0.36849 -0.51826,0.80201 -0.73164,1.30353z" fill="#ffffff" stroke="#ff0000" stroke-width="0"/><path d="M363.25677,186.08389c0.54897,0.06032 1.09891,0.11871 1.64741,0.18118c0.34911,0.03976 2.08225,0.23555 3.16008,0.2638c-0.29541,0.49343 -0.67711,0.99862 -1.16026,1.42286c-1.91946,1.68546 -4.89057,2.6982 -4.89057,2.6982c0,0 1.39736,-0.87485 1.40267,-3.07975c0.00131,-0.54503 -0.06251,-1.04397 -0.15934,-1.48631z" data-paper-data="{&quot;index&quot;:null}" fill="#ffffff" stroke="#ff0000" stroke-width="0"/><g stroke-width="0"><g stroke="#000000"><path d="M370.97093,159.9531c-0.13095,0.63836 -2.3157,0.72945 -9.85048,-0.81623c-7.53478,-1.54568 -9.62234,-2.51319 -9.49139,-3.15155c0.13095,-0.63836 2.43083,-0.70583 9.96561,0.83985c7.53478,1.54568 9.50721,2.48957 9.37626,3.12793z" fill="#252525"/><path d="M361.47955,156.80155c7.53478,1.54568 9.62235,2.51319 9.49139,3.15155c-0.13095,0.63836 -2.43084,0.70583 -9.96561,-0.83985c-7.53478,-1.54568 -9.50721,-2.48957 -9.37626,-3.12793c0.13095,-0.63836 2.3157,-0.72945 9.85048,0.81623z" data-paper-data="{&quot;index&quot;:null}" fill="#222222"/></g><path d="M351.62774,155.99189l0.47692,-2.32483l19.34187,3.96778l-0.47692,2.32483z" fill="#222222" stroke="#000000"/><g fill="#202020" stroke="#000000"><path d="M371.4465,157.63483c-0.13095,0.63836 -2.3157,0.72945 -9.85048,-0.81623c-7.53478,-1.54568 -9.62234,-2.51319 -9.49139,-3.15155c0.13095,-0.63836 2.43083,-0.70583 9.96561,0.83985c7.53478,1.54568 9.50721,2.48957 9.37626,3.12793z"/><path d="M361.95512,154.48329c7.53478,1.54568 9.62235,2.51319 9.49139,3.15155c-0.13095,0.63836 -2.43084,0.70583 -9.96561,-0.83985c-7.53478,-1.54568 -9.50721,-2.48958 -9.37626,-3.12793c0.13095,-0.63836 2.3157,-0.72944 9.85048,0.81624z" data-paper-data="{&quot;index&quot;:null}"/></g><g fill="#222222" stroke="#000000"><path d="M368.5324,156.80153c-0.0847,0.4129 -3.15774,0.1313 -6.86381,-0.62896c-3.70608,-0.76026 -6.64178,-1.71129 -6.55707,-2.12419c0.0847,-0.4129 3.15773,-0.1313 6.86381,0.62897c3.70608,0.76026 6.64178,1.71129 6.55708,2.12419z"/><path d="M355.11151,154.04837c0,0 0.96409,-4.02233 1.02252,-6.13589c0.05683,-2.05623 -0.67663,-6.37821 -0.67663,-6.37821l8.77885,1.80089l4.29616,13.46637z"/><path d="M355.11151,154.04837l9.25104,-10.6873l8.77885,1.80089c0,0 -2.37583,3.68414 -3.13315,5.59667c-0.77843,1.96585 -1.47584,6.0429 -1.47584,6.0429z" data-paper-data="{&quot;index&quot;:null}"/></g><path d="M373.14137,145.16195c-0.2085,1.01636 -4.33621,1.0282 -9.21951,0.02644c-4.8833,-1.00176 -8.67298,-2.63776 -8.46448,-3.65413c0.2085,-1.01636 4.33621,-1.0282 9.21951,-0.02644c4.8833,1.00176 8.67298,2.63776 8.46448,3.65412z" fill="#202020" stroke="#000000"/><g fill="#770000"><g><g stroke="#000000"><path d="M368.62714,157.09951c-0.05442,0.26527 -3.16987,-0.14973 -6.95856,-0.92694c-3.78869,-0.77721 -6.81591,-1.62231 -6.76149,-1.88759c0.05442,-0.26527 3.16987,0.14973 6.95856,0.92694c3.78869,0.77721 6.81591,1.62231 6.76149,1.88759z"/><path d="M354.90709,154.28498c0,0 0.67005,-2.57385 0.57084,-3.95981c-0.09651,-1.34836 13.14921,6.77434 13.14921,6.77434z"/><path d="M354.90709,154.28498c0,0 15.37393,-2.25168 14.75435,-1.05022c-0.63686,1.23497 -1.03429,3.86475 -1.03429,3.86475z" data-paper-data="{&quot;index&quot;:null}"/></g><path d="M362.12281,153.95832c-3.92031,-0.80421 -6.26062,-3.55849 -6.23245,-3.69579c0.02817,-0.1373 2.71605,0.92261 6.63637,1.72682c3.92031,0.80421 3.5164,2.77318 -0.40391,1.96897z" stroke="#2b2b2b"/></g><g data-paper-data="{&quot;index&quot;:null}"><g stroke="#000000"><path d="M361.86565,155.21192c3.78869,0.77721 6.81591,1.62231 6.76149,1.88759c-0.05442,0.26527 -3.16987,-0.14973 -6.95856,-0.92694c-3.78869,-0.77721 -6.81591,-1.62231 -6.76149,-1.88759c0.05442,-0.26527 3.16988,0.14973 6.95856,0.92694z"/><path d="M354.90709,154.28498c0,0 15.37393,-2.25168 14.75435,-1.05022c-0.63686,1.23497 -1.03428,3.86474 -1.03428,3.86474z"/><path d="M354.9071,154.28499c0,0 0.67005,-2.57386 0.57085,-3.95981c-0.09651,-1.34836 13.14921,6.77435 13.14921,6.77435z" data-paper-data="{&quot;index&quot;:null}"/></g><path d="M362.52672,151.98935c3.92031,0.80421 6.80842,0.88815 6.78025,1.02546c-0.02817,0.1373 -3.26385,1.74772 -7.18416,0.94351c-3.92031,-0.80421 -3.5164,-2.77318 0.40391,-1.96897z" stroke="#2b2b2b"/></g></g></g></g></g></g></svg>