<svg version="1.1" xmlns="http://www.w3.org/2000/svg" xmlns:xlink="http://www.w3.org/1999/xlink" width="1252.74775" height="892.38739" viewBox="0,0,1252.74775,892.38739"><defs><radialGradient cx="512.59334" cy="240.40965" r="234.23424" gradientUnits="userSpaceOnUse" id="color-1"><stop offset="0" stop-color="#ff0000" stop-opacity="0.26667"/><stop offset="1" stop-color="#ff0000" stop-opacity="0"/></radialGradient><radialGradient cx="221.23424" cy="235.40965" r="234.23424" gradientUnits="userSpaceOnUse" id="color-2"><stop offset="0" stop-color="#ff0000" stop-opacity="0.26667"/><stop offset="1" stop-color="#ff0000" stop-opacity="0"/></radialGradient><radialGradient cx="44.68469" cy="-62.87864" r="234.23424" gradientUnits="userSpaceOnUse" id="color-3"><stop offset="0" stop-color="#ff0000" stop-opacity="0.26667"/><stop offset="1" stop-color="#ff0000" stop-opacity="0"/></radialGradient><radialGradient cx="-13" cy="309.79567" r="234.23424" gradientUnits="userSpaceOnUse" id="color-4"><stop offset="0" stop-color="#ff0000" stop-opacity="0.26667"/><stop offset="1" stop-color="#ff0000" stop-opacity="0"/></radialGradient><radialGradient cx="771.27928" cy="-62.87864" r="234.23424" gradientUnits="userSpaceOnUse" id="color-5"><stop offset="0" stop-color="#ff0000" stop-opacity="0.26667"/><stop offset="1" stop-color="#ff0000" stop-opacity="0"/></radialGradient><radialGradient cx="746.82758" cy="361.04028" r="234.23424" gradientUnits="userSpaceOnUse" id="color-6"><stop offset="0" stop-color="#ff0000" stop-opacity="0.26667"/><stop offset="1" stop-color="#ff0000" stop-opacity="0"/></radialGradient><radialGradient cx="360" cy="0" r="234.23424" gradientUnits="userSpaceOnUse" id="color-7"><stop offset="0" stop-color="#ff3e3e" stop-opacity="0.61961"/><stop offset="1" stop-color="#ff3e3e" stop-opacity="0"/></radialGradient></defs><g transform="translate(247.23424,297.11288)"><g stroke-miterlimit="10"><path d="M-26.82757,371.26126v-382.52252h773.65515v382.52252z" fill="#0f0202" stroke="#000000" stroke-width="0" stroke-linecap="butt"/><path d="M278.35911,474.64388v-468.46847h468.46847v468.46847z" fill="url(#color-1)" stroke="#b82c2c" stroke-width="0" stroke-linecap="butt"/><path d="M-13,469.64388v-468.46847h468.46847v468.46847z" fill="url(#color-2)" stroke="#b82c2c" stroke-width="0" stroke-linecap="butt"/><path d="M149.72939,295.69982c0,0 9.78993,-145.46093 19.72606,-206.00868c7.83435,-47.74012 35.09804,-128.07273 35.09804,-128.07273h18.75562c0,0 -32.38346,114.21983 -41.37934,170.35965c-8.79329,54.87549 -12.00202,162.77268 -12.00202,162.77268z" fill="#200404" stroke="#b82c2c" stroke-width="0" stroke-linecap="butt"/><path d="M550.07226,294.75072c0,0 -3.20873,-107.89719 -12.00202,-162.77267c-8.99589,-56.13982 -41.37934,-170.35965 -41.37934,-170.35965h18.75561c0,0 27.26369,80.33261 35.09804,128.07274c9.93613,60.54775 19.72606,206.00869 19.72606,206.00869z" fill="#200404" stroke="#b82c2c" stroke-width="0" stroke-linecap="butt"/><path d="M54.77344,315.1199c0,0 13.57131,-153.26279 27.34528,-217.05804c10.86038,-50.30068 48.65472,-134.94196 48.65472,-134.94196h26c0,0 -44.89162,120.34605 -57.36218,179.49695c-12.18971,57.81876 -16.63782,171.50305 -16.63782,171.50305z" fill="#200404" stroke="#b82c2c" stroke-width="0" stroke-linecap="butt"/><path d="M609.74941,314.1199c0,0 -4.44811,-113.68429 -16.63782,-171.50305c-12.47056,-59.1509 -57.36218,-179.49695 -57.36218,-179.49695h26c0,0 37.79434,84.64128 48.65472,134.94196c13.77397,63.79525 27.34528,217.05804 27.34528,217.05804z" fill="#200404" stroke="#b82c2c" stroke-width="0" stroke-linecap="butt"/><path d="M-13,361.50151v-82.29602h746v82.29602z" fill="#330a0a" stroke="#000000" stroke-width="0" stroke-linecap="butt"/><g fill="none" stroke="#b82c2c" stroke-width="7.5" stroke-linecap="round"><g><path d="M377.77027,220.54055h-569.06907"/><path d="M329.75376,221.00001v62"/><path d="M276.1952,221.00001v62"/><path d="M222.63664,283.00001v-62"/><path d="M169.58859,283.00001v-62"/><path d="M116.03003,221.00001v62"/><path d="M62.47147,283.00001v-62"/><path d="M9.42343,283.00001v-62"/><path d="M-44.13513,283.00001v-62"/><path d="M-97.69369,221.00001v62"/><path d="M-149.27477,221.49551v62"/></g><g><path d="M911.2988,220.54055h-569.06907"/><path d="M863.28229,221.00001v62"/><path d="M809.72373,221.00001v62"/><path d="M756.16517,283.00001v-62"/><path d="M703.11712,283.00001v-62"/><path d="M649.55856,221.00001v62"/><path d="M596,283.00001v-62"/><path d="M542.95196,283.00001v-62"/><path d="M489.3934,283.00001v-62"/><path d="M435.83484,221.00001v62"/><path d="M384.25376,221.49551v62"/></g></g><path d="M-189.54955,171.35559v-468.46847h468.46847v468.46847z" fill="url(#color-3)" stroke="#b82c2c" stroke-width="0" stroke-linecap="butt"/><path d="M-247.23423,544.02991v-468.46847h468.46847v468.46847z" fill="url(#color-4)" stroke="#b82c2c" stroke-width="0" stroke-linecap="butt"/><path d="M537.04504,171.35559v-468.46847h468.46847v468.46847z" fill="url(#color-5)" stroke="#b82c2c" stroke-width="0" stroke-linecap="butt"/><path d="M512.59334,595.27451v-468.46847h468.46847v468.46847z" fill="url(#color-6)" stroke="#b82c2c" stroke-width="0" stroke-linecap="butt"/><path d="M125.76577,234.23424v-468.46847h468.46847v468.46847z" fill="url(#color-7)" stroke="#b82c2c" stroke-width="0" stroke-linecap="butt"/></g></g></svg>