<svg version="1.1" xmlns="http://www.w3.org/2000/svg" xmlns:xlink="http://www.w3.org/1999/xlink" width="758.91667" height="420" viewBox="0,0,758.91667,420"><defs><linearGradient x1="-12.50451" y1="188.24325" x2="148.32658" y2="188.24325" gradientUnits="userSpaceOnUse" id="color-1"><stop offset="0" stop-color="#000000"/><stop offset="1" stop-color="#000000" stop-opacity="0"/></linearGradient><linearGradient x1="743.41667" y1="185" x2="582.58559" y2="185" gradientUnits="userSpaceOnUse" id="color-2"><stop offset="0" stop-color="#000000"/><stop offset="1" stop-color="#000000" stop-opacity="0"/></linearGradient><linearGradient x1="364.5428" y1="-9.95495" x2="364.5428" y2="117.67268" gradientUnits="userSpaceOnUse" id="color-3"><stop offset="0" stop-color="#000000"/><stop offset="1" stop-color="#000000" stop-opacity="0"/></linearGradient><linearGradient x1="363.53679" y1="384.56562" x2="363.53679" y2="256.93799" gradientUnits="userSpaceOnUse" id="color-4"><stop offset="0" stop-color="#000000"/><stop offset="1" stop-color="#000000" stop-opacity="0"/></linearGradient><linearGradient x1="354.59372" y1="233.34716" x2="345.43922" y2="226.36843" gradientUnits="userSpaceOnUse" id="color-5"><stop offset="0" stop-color="#484c5e"/><stop offset="1" stop-color="#212d30"/></linearGradient><linearGradient x1="353.6032" y1="242.23206" x2="341.20407" y2="232.77984" gradientUnits="userSpaceOnUse" id="color-6"><stop offset="0" stop-color="#484c5e"/><stop offset="1" stop-color="#212d30"/></linearGradient><linearGradient x1="348.46144" y1="253.10565" x2="343.39411" y2="238.36098" gradientUnits="userSpaceOnUse" id="color-7"><stop offset="0" stop-color="#484c5e"/><stop offset="1" stop-color="#212d30"/></linearGradient><linearGradient x1="338.16317" y1="261.09729" x2="340.66248" y2="245.7078" gradientUnits="userSpaceOnUse" id="color-8"><stop offset="0" stop-color="#484c5e"/><stop offset="1" stop-color="#212d30"/></linearGradient><linearGradient x1="328.5935" y1="264.91203" x2="331.09281" y2="249.52253" gradientUnits="userSpaceOnUse" id="color-9"><stop offset="0" stop-color="#484c5e"/><stop offset="1" stop-color="#212d30"/></linearGradient><linearGradient x1="320.39094" y1="268.1818" x2="322.89024" y2="252.79231" gradientUnits="userSpaceOnUse" id="color-10"><stop offset="0" stop-color="#484c5e"/><stop offset="1" stop-color="#212d30"/></linearGradient><linearGradient x1="311.16304" y1="271.86029" x2="313.66235" y2="256.47079" gradientUnits="userSpaceOnUse" id="color-11"><stop offset="0" stop-color="#484c5e"/><stop offset="1" stop-color="#212d30"/></linearGradient><linearGradient x1="302.96047" y1="275.13006" x2="305.45977" y2="259.74057" gradientUnits="userSpaceOnUse" id="color-12"><stop offset="0" stop-color="#484c5e"/><stop offset="1" stop-color="#212d30"/></linearGradient><linearGradient x1="309.06606" y1="279.67478" x2="283.95574" y2="279.70597" gradientUnits="userSpaceOnUse" id="color-13"><stop offset="0" stop-color="#484c5e"/><stop offset="1" stop-color="#212d30"/></linearGradient><linearGradient x1="335.36282" y1="137.86508" x2="336.37539" y2="146.94849" gradientUnits="userSpaceOnUse" id="color-14"><stop offset="0" stop-color="#484c5e"/><stop offset="1" stop-color="#212d30"/></linearGradient><linearGradient x1="323.67135" y1="138.40742" x2="325.0428" y2="150.71025" gradientUnits="userSpaceOnUse" id="color-15"><stop offset="0" stop-color="#484c5e"/><stop offset="1" stop-color="#212d30"/></linearGradient><linearGradient x1="310.67982" y1="139.01007" x2="312.05129" y2="151.3129" gradientUnits="userSpaceOnUse" id="color-16"><stop offset="0" stop-color="#484c5e"/><stop offset="1" stop-color="#212d30"/></linearGradient><linearGradient x1="299.13181" y1="139.54575" x2="300.50327" y2="151.84858" gradientUnits="userSpaceOnUse" id="color-17"><stop offset="0" stop-color="#484c5e"/><stop offset="1" stop-color="#212d30"/></linearGradient><linearGradient x1="285.65912" y1="140.17072" x2="287.03059" y2="152.47355" gradientUnits="userSpaceOnUse" id="color-18"><stop offset="0" stop-color="#484c5e"/><stop offset="1" stop-color="#212d30"/></linearGradient><linearGradient x1="274.1111" y1="140.7064" x2="275.48256" y2="153.00924" gradientUnits="userSpaceOnUse" id="color-19"><stop offset="0" stop-color="#484c5e"/><stop offset="1" stop-color="#212d30"/></linearGradient><linearGradient x1="261.11958" y1="141.30904" x2="262.49105" y2="153.61188" gradientUnits="userSpaceOnUse" id="color-20"><stop offset="0" stop-color="#484c5e"/><stop offset="1" stop-color="#212d30"/></linearGradient><linearGradient x1="249.57157" y1="141.84473" x2="250.94303" y2="154.14756" gradientUnits="userSpaceOnUse" id="color-21"><stop offset="0" stop-color="#484c5e"/><stop offset="1" stop-color="#212d30"/></linearGradient><linearGradient x1="384.63718" y1="137.86508" x2="383.62461" y2="146.94849" gradientUnits="userSpaceOnUse" id="color-22"><stop offset="0" stop-color="#484c5e"/><stop offset="1" stop-color="#212d30"/></linearGradient><linearGradient x1="396.32865" y1="138.40742" x2="394.9572" y2="150.71025" gradientUnits="userSpaceOnUse" id="color-23"><stop offset="0" stop-color="#484c5e"/><stop offset="1" stop-color="#212d30"/></linearGradient><linearGradient x1="409.32018" y1="139.01007" x2="407.94871" y2="151.3129" gradientUnits="userSpaceOnUse" id="color-24"><stop offset="0" stop-color="#484c5e"/><stop offset="1" stop-color="#212d30"/></linearGradient><linearGradient x1="420.86819" y1="139.54575" x2="419.49673" y2="151.84858" gradientUnits="userSpaceOnUse" id="color-25"><stop offset="0" stop-color="#484c5e"/><stop offset="1" stop-color="#212d30"/></linearGradient><linearGradient x1="434.34088" y1="140.17072" x2="432.96941" y2="152.47355" gradientUnits="userSpaceOnUse" id="color-26"><stop offset="0" stop-color="#484c5e"/><stop offset="1" stop-color="#212d30"/></linearGradient><linearGradient x1="445.8889" y1="140.7064" x2="444.51744" y2="153.00924" gradientUnits="userSpaceOnUse" id="color-27"><stop offset="0" stop-color="#484c5e"/><stop offset="1" stop-color="#212d30"/></linearGradient><linearGradient x1="458.88042" y1="141.30904" x2="457.50895" y2="153.61188" gradientUnits="userSpaceOnUse" id="color-28"><stop offset="0" stop-color="#484c5e"/><stop offset="1" stop-color="#212d30"/></linearGradient><linearGradient x1="470.42843" y1="141.84473" x2="469.05697" y2="154.14756" gradientUnits="userSpaceOnUse" id="color-29"><stop offset="0" stop-color="#484c5e"/><stop offset="1" stop-color="#212d30"/></linearGradient><linearGradient x1="366.99489" y1="237.31056" x2="376.14939" y2="230.33183" gradientUnits="userSpaceOnUse" id="color-30"><stop offset="0" stop-color="#484c5e"/><stop offset="1" stop-color="#212d30"/></linearGradient><linearGradient x1="367.9854" y1="246.19546" x2="380.38454" y2="236.74324" gradientUnits="userSpaceOnUse" id="color-31"><stop offset="0" stop-color="#484c5e"/><stop offset="1" stop-color="#212d30"/></linearGradient><linearGradient x1="373.12717" y1="257.06904" x2="378.1945" y2="242.32438" gradientUnits="userSpaceOnUse" id="color-32"><stop offset="0" stop-color="#484c5e"/><stop offset="1" stop-color="#212d30"/></linearGradient><linearGradient x1="383.42543" y1="265.06069" x2="380.92613" y2="249.6712" gradientUnits="userSpaceOnUse" id="color-33"><stop offset="0" stop-color="#484c5e"/><stop offset="1" stop-color="#212d30"/></linearGradient><linearGradient x1="392.99511" y1="268.87542" x2="390.4958" y2="253.48593" gradientUnits="userSpaceOnUse" id="color-34"><stop offset="0" stop-color="#484c5e"/><stop offset="1" stop-color="#212d30"/></linearGradient><linearGradient x1="401.19766" y1="272.1452" x2="398.69837" y2="256.75571" gradientUnits="userSpaceOnUse" id="color-35"><stop offset="0" stop-color="#484c5e"/><stop offset="1" stop-color="#212d30"/></linearGradient><linearGradient x1="410.42556" y1="275.82369" x2="407.92626" y2="260.4342" gradientUnits="userSpaceOnUse" id="color-36"><stop offset="0" stop-color="#484c5e"/><stop offset="1" stop-color="#212d30"/></linearGradient><linearGradient x1="418.62814" y1="279.09346" x2="416.12883" y2="263.70397" gradientUnits="userSpaceOnUse" id="color-37"><stop offset="0" stop-color="#484c5e"/><stop offset="1" stop-color="#212d30"/></linearGradient><linearGradient x1="340.84118" y1="183.824" x2="381.33856" y2="183.824" gradientUnits="userSpaceOnUse" id="color-38"><stop offset="0" stop-color="#484c5e"/><stop offset="1" stop-color="#212d30"/></linearGradient><linearGradient x1="336.95343" y1="131.80312" x2="385.22631" y2="131.80312" gradientUnits="userSpaceOnUse" id="color-39"><stop offset="0" stop-color="#484c5e"/><stop offset="1" stop-color="#212d30"/></linearGradient><linearGradient x1="359.04091" y1="103.96541" x2="364.6971" y2="103.96541" gradientUnits="userSpaceOnUse" id="color-40"><stop offset="0" stop-color="#484c5e"/><stop offset="1" stop-color="#212d30"/></linearGradient><linearGradient x1="359.04091" y1="115.59338" x2="366.70183" y2="115.59338" gradientUnits="userSpaceOnUse" id="color-41"><stop offset="0" stop-color="#484c5e"/><stop offset="1" stop-color="#212d30"/></linearGradient><linearGradient x1="359.04091" y1="128.51434" x2="366.70183" y2="128.51434" gradientUnits="userSpaceOnUse" id="color-42"><stop offset="0" stop-color="#484c5e"/><stop offset="1" stop-color="#212d30"/></linearGradient><linearGradient x1="359.04091" y1="139.99963" x2="366.70183" y2="139.99963" gradientUnits="userSpaceOnUse" id="color-43"><stop offset="0" stop-color="#484c5e"/><stop offset="1" stop-color="#212d30"/></linearGradient><linearGradient x1="359.04091" y1="153.39916" x2="366.70183" y2="153.39916" gradientUnits="userSpaceOnUse" id="color-44"><stop offset="0" stop-color="#484c5e"/><stop offset="1" stop-color="#212d30"/></linearGradient><linearGradient x1="359.04091" y1="164.88445" x2="366.70183" y2="164.88445" gradientUnits="userSpaceOnUse" id="color-45"><stop offset="0" stop-color="#484c5e"/><stop offset="1" stop-color="#212d30"/></linearGradient><linearGradient x1="359.04091" y1="177.80543" x2="366.70183" y2="177.80543" gradientUnits="userSpaceOnUse" id="color-46"><stop offset="0" stop-color="#484c5e"/><stop offset="1" stop-color="#212d30"/></linearGradient><linearGradient x1="359.04091" y1="189.29071" x2="366.70183" y2="189.29071" gradientUnits="userSpaceOnUse" id="color-47"><stop offset="0" stop-color="#484c5e"/><stop offset="1" stop-color="#212d30"/></linearGradient><linearGradient x1="350.24335" y1="155.45593" x2="372.28184" y2="155.45593" gradientUnits="userSpaceOnUse" id="color-48"><stop offset="0" stop-color="#484c5e"/><stop offset="1" stop-color="#212d30"/></linearGradient><linearGradient x1="382.05264" y1="146.79171" x2="368.59402" y2="146.79171" gradientUnits="userSpaceOnUse" id="color-49"><stop offset="0" stop-color="#484c5e"/><stop offset="1" stop-color="#212d30"/></linearGradient><linearGradient x1="340.84422" y1="148.08974" x2="354.30284" y2="148.08974" gradientUnits="userSpaceOnUse" id="color-50"><stop offset="0" stop-color="#484c5e"/><stop offset="1" stop-color="#212d30"/></linearGradient><linearGradient x1="360.76441" y1="190.54925" x2="360.76441" y2="220.59581" gradientUnits="userSpaceOnUse" id="color-51"><stop offset="0" stop-color="#484c5e"/><stop offset="1" stop-color="#212d30"/></linearGradient><linearGradient x1="349.97799" y1="191.98355" x2="349.97799" y2="199.06595" gradientUnits="userSpaceOnUse" id="color-52"><stop offset="0" stop-color="#484c5e"/><stop offset="1" stop-color="#212d30"/></linearGradient><linearGradient x1="372.64168" y1="191.98355" x2="372.64168" y2="199.06595" gradientUnits="userSpaceOnUse" id="color-53"><stop offset="0" stop-color="#484c5e"/><stop offset="1" stop-color="#212d30"/></linearGradient><linearGradient x1="412.52255" y1="283.63818" x2="437.63287" y2="283.66937" gradientUnits="userSpaceOnUse" id="color-54"><stop offset="0" stop-color="#484c5e"/><stop offset="1" stop-color="#212d30"/></linearGradient><radialGradient cx="360" cy="179.99999" r="362.61261" gradientUnits="userSpaceOnUse" id="color-55"><stop offset="0" stop-color="#000000" stop-opacity="0.83922"/><stop offset="1" stop-color="#000000" stop-opacity="0"/></radialGradient><radialGradient cx="360" cy="179.99999" r="362.61262" gradientUnits="userSpaceOnUse" id="color-56"><stop offset="0" stop-color="#000000" stop-opacity="0"/><stop offset="1" stop-color="#000000"/></radialGradient><linearGradient x1="350.55692" y1="103.09839" x2="358.36337" y2="107.01567" gradientUnits="userSpaceOnUse" id="color-57"><stop offset="0" stop-color="#484c5e"/><stop offset="1" stop-color="#212d30"/></linearGradient><linearGradient x1="374.91266" y1="109.78947" x2="382.7191" y2="113.70675" gradientUnits="userSpaceOnUse" id="color-58"><stop offset="0" stop-color="#484c5e"/><stop offset="1" stop-color="#212d30"/></linearGradient><radialGradient cx="354.46014" cy="105.05703" r="16.21429" gradientUnits="userSpaceOnUse" id="color-59"><stop offset="0" stop-color="#ffffff" stop-opacity="0.38039"/><stop offset="1" stop-color="#ffffff" stop-opacity="0"/></radialGradient><linearGradient x1="339.9681" y1="97.78492" x2="368.95219" y2="112.32915" gradientUnits="userSpaceOnUse" id="color-60"><stop offset="0" stop-color="#484c5e"/><stop offset="1" stop-color="#212d30"/></linearGradient><radialGradient cx="378.81588" cy="111.74811" r="16.21428" gradientUnits="userSpaceOnUse" id="color-61"><stop offset="0" stop-color="#ffffff" stop-opacity="0.38039"/><stop offset="1" stop-color="#ffffff" stop-opacity="0"/></radialGradient><linearGradient x1="364.32384" y1="104.476" x2="393.30793" y2="119.02022" gradientUnits="userSpaceOnUse" id="color-62"><stop offset="0" stop-color="#484c5e"/><stop offset="1" stop-color="#212d30"/></linearGradient></defs><g transform="translate(15.5,30)"><g stroke-miterlimit="10"><g stroke-linecap="butt"><path d="M0.04123,153v-160.3741h719.91754v160.3741z" fill="#323232" stroke="#000000" stroke-width="0"/><path d="M226.82491,244.00002v-128h248.01449v128z" fill="#3f3f3f" stroke="#000000" stroke-width="0"/><path d="M282.79705,217.81297v-89h153.44087v89z" fill="#686868" stroke="#000000" stroke-width="0"/><path d="M0.6078,360.00001v-128h719.91754v128z" fill="#323232" stroke="#000000" stroke-width="0"/><path d="M12.58671,360.00001v-360l284.68589,116l0.96504,128.5z" fill="#505050" stroke="none" stroke-width="0"/><path d="M707.41329,0.00001v360l-284.68589,-116l-0.96504,-128.5z" fill="#505050" stroke="none" stroke-width="0"/><path d="M-2.61262,295.50001v-225l300.609,83v42z" fill="#909090" stroke="#000000" stroke-width="0"/><path d="M422.00362,195.50002v-42l300.609,-83v225z" fill="#909090" stroke="#000000" stroke-width="0"/><text transform="translate(322.72372,166.34742) scale(0.80247,0.83154)" font-size="40" xml:space="preserve" fill="#000000" stroke="#000000" stroke-width="3" font-family="&quot;Agency FB&quot;, Sans Serif" font-weight="normal" text-anchor="start"><tspan x="0" dy="0">A . S . C</tspan></text><text transform="translate(325.74612,171.3863) rotate(90) scale(0.217,0.20941)" font-size="40" xml:space="preserve" fill="#000000" stroke="#000000" stroke-width="2" font-family="&quot;Agency FB&quot;, Sans Serif" font-weight="normal" text-anchor="start"><tspan x="0" dy="0">NIMATRONIC</tspan></text><text transform="translate(357.10143,172.05296) rotate(90) scale(0.217,0.20941)" font-size="40" xml:space="preserve" fill="#000000" stroke="#000000" stroke-width="2" font-family="&quot;Agency FB&quot;, Sans Serif" font-weight="normal" text-anchor="start"><tspan x="0" dy="0">ECURITY</tspan></text><text transform="translate(389.59101,172.05296) rotate(90) scale(0.217,0.20941)" font-size="40" xml:space="preserve" fill="#000000" stroke="#000000" stroke-width="2" font-family="&quot;Agency FB&quot;, Sans Serif" font-weight="normal" text-anchor="start"><tspan x="0" dy="0">ENTER</tspan></text><path d="M325.25867,70.06296c0,-6.18292 15.55422,-11.19516 34.74133,-11.19516c19.18711,0 34.74133,5.01224 34.74133,11.19516c0,6.18292 -16.03674,16.69516 -35.22385,16.69516c-19.18711,0 -34.25881,-10.51224 -34.25881,-16.69516z" fill="#181818" stroke="#000000" stroke-width="0"/><path d="M331.45445,76.05339c0,-5.08025 12.78028,-9.19861 28.54555,-9.19861c15.76528,0 28.54555,4.11836 28.54555,9.19861c0,5.08025 -13.17675,13.71774 -28.94202,13.71774c-15.76528,0 -28.14908,-8.63749 -28.14908,-13.71774z" fill="#404040" stroke="#000000" stroke-width="0"/></g><path d="M-15.5,30v-60h751v60z" fill="#000000" stroke-opacity="0.50196" stroke="#0d0d0d" stroke-width="0" stroke-linecap="butt"/><path d="M-15.5,390v-60h751v60z" fill="#000000" stroke-opacity="0.50196" stroke="#0d0d0d" stroke-width="0" stroke-linecap="butt"/><g stroke="none" stroke-width="0" stroke-linecap="butt"><path d="M-12.50451,383.43844v-390.39039h160.83109v390.39039z" fill="url(#color-1)"/><path d="M582.58559,380.19519v-390.39039h160.83108v390.39039z" fill="url(#color-2)"/><path d="M-13.83558,117.67268v-127.62762h756.75676v127.62763z" fill="url(#color-3)"/><path d="M741.91517,256.93799v127.62762h-756.75676v-127.62762z" fill="url(#color-4)"/></g><g fill="none" stroke-width="3.25" stroke-linecap="round"><path d="M354.09564,237.81493c0,0 -5.7717,-4.08719 -8.05594,-5.70476c-1.69056,-1.19715 -1.211,-3.2458 0.70466,-3.31821c1.60448,-0.06064 4.70006,-0.17766 6.65004,-0.25137c1.03156,-0.039 0.64785,-0.90037 -0.19915,-1.54607c-1.60334,-1.22227 -6.95765,-5.30401 -6.95765,-5.30401" stroke="url(#color-5)"/><path d="M353.11727,246.59082c0,0 -5.7717,-4.08718 -8.05594,-5.70476c-1.69056,-1.19717 -1.21098,-3.2458 0.70466,-3.31821c2.45328,-0.09273 8.39256,-0.31724 8.39256,-0.31724" stroke="url(#color-6)"/><path d="M345.63788,256.46162c0,0 -2.53239,-6.60337 -3.53462,-9.21677c-0.74174,-1.93417 0.79427,-3.37207 2.42793,-2.36901c2.09214,1.28456 8.42618,1.57435 8.42618,1.57435" stroke="url(#color-7)"/><path d="M334.08916,262.72129c0,0 0.88751,-7.0164 1.23877,-9.79326c0.25997,-2.05514 2.29304,-2.59685 3.25906,-0.94102c1.23713,2.12053 6.91126,4.57519 6.91126,4.57519" stroke="url(#color-8)"/><path d="M324.5195,266.53603c0,0 0.88751,-7.0164 1.23876,-9.79326c0.25997,-2.05514 2.29304,-2.59686 3.25907,-0.94103c1.23713,2.12053 4.23219,7.25426 4.23219,7.25426" stroke="url(#color-9)"/><path d="M316.31693,269.8058c0,0 0.88751,-7.0164 1.23877,-9.79326c0.25997,-2.05514 2.29305,-2.59685 3.25907,-0.94102c1.23713,2.12053 4.23218,7.25426 4.23218,7.25426" stroke="url(#color-10)"/><path d="M307.08903,273.48429c0,0 0.88751,-7.0164 1.23877,-9.79326c0.25997,-2.05514 2.29304,-2.59685 3.25907,-0.94102c1.23713,2.12053 4.23218,7.25426 4.23218,7.25426" stroke="url(#color-11)"/><path d="M298.88645,276.75407c0,0 0.88751,-7.01641 1.23876,-9.79326c0.25997,-2.05514 2.29304,-2.59685 3.25907,-0.94102c1.23713,2.12053 4.23219,7.25426 4.23219,7.25426" stroke="url(#color-12)"/></g><path d="M283.95574,279.70597c-0.00862,-6.93402 5.60554,-12.56214 12.53956,-12.57075c4.01266,-0.00498 13.64652,5.33195 13.64652,5.33195c0,0 0.85164,3.8546 0.85527,6.77598c0.00862,6.93403 -27.03273,7.39685 -27.04135,0.46283z" fill="#272727" stroke="url(#color-13)" stroke-width="0" stroke-linecap="butt"/><g><g fill="none" stroke-width="3.25" stroke-linecap="round"><path d="M342.75867,146.39788c0,0 -0.59224,-5.31272 -0.76958,-6.90361c-0.09369,-0.84043 -0.83251,-1.24715 -1.72882,-0.26131c-1.69429,1.86354 -4.384,4.82191 -5.7781,6.35526c-1.66448,1.83073 -4.56685,2.19625 -4.64171,0.52301c-0.10115,-2.26084 -0.35671,-7.97343 -0.35671,-7.97343" stroke="url(#color-14)"/><path d="M330.22632,138.10335c0,0 -5.16056,5.67601 -7.29217,8.02054c-1.66449,1.83075 -4.56686,2.19626 -4.64171,0.52302c-0.10115,-2.26084 -0.3567,-7.97343 -0.3567,-7.97343" stroke="url(#color-15)"/><path d="M317.23479,138.706c0,0 -5.16056,5.67601 -7.29216,8.02054c-1.66448,1.83074 -4.56685,2.19626 -4.6417,0.52302c-0.10115,-2.26084 -0.35671,-7.97343 -0.35671,-7.97343" stroke="url(#color-16)"/><path d="M305.68679,139.24169c0,0 -5.16056,5.67601 -7.29217,8.02054c-1.66449,1.83074 -4.56686,2.19625 -4.64171,0.52301c-0.10115,-2.26084 -0.3567,-7.97343 -0.3567,-7.97343" stroke="url(#color-17)"/><path d="M292.21409,139.86664c0,0 -5.16057,5.67601 -7.29217,8.02054c-1.66448,1.83074 -4.56684,2.19626 -4.6417,0.52302c-0.10115,-2.26084 -0.3567,-7.97342 -0.3567,-7.97342" stroke="url(#color-18)"/><path d="M280.66607,140.40232c0,0 -5.16056,5.67601 -7.29216,8.02054c-1.66449,1.83075 -4.56686,2.19626 -4.64171,0.52302c-0.10115,-2.26084 -0.3567,-7.97342 -0.3567,-7.97342" stroke="url(#color-19)"/><path d="M267.67454,141.00498c0,0 -5.16056,5.676 -7.29217,8.02053c-1.66448,1.83074 -4.56684,2.19626 -4.6417,0.52302c-0.10115,-2.26084 -0.3567,-7.97343 -0.3567,-7.97343" stroke="url(#color-20)"/><path d="M256.12654,141.54065c0,0 -5.16056,5.67601 -7.29216,8.02054c-1.66449,1.83075 -4.56686,2.19626 -4.64171,0.52302c-0.10115,-2.26084 -0.3567,-7.97343 -0.3567,-7.97343" stroke="url(#color-21)"/></g><path d="M232.14848,130.14127c4.42127,-5.52618 11.50559,3.07396 13.93115,5.11757c1.83689,1.54762 11.26277,-0.61279 10.68782,2.28862c-0.18427,0.92982 -9.21934,6.99243 -9.67182,7.85624c-0.69285,1.32266 -2.60547,8.65206 -3.60711,9.28271c-1.69376,1.06642 -2.63645,-5.25422 -4.16064,-6.5384c-0.71571,-0.603 -6.10404,-0.46238 -6.2176,-4.6505c-0.0408,-1.50469 0.99308,0.84916 2.56391,-1.01808c1.2151,-1.44439 -8.08962,-6.63369 -3.52571,-12.33815z" fill="#0d0d0d" stroke="#000000" stroke-width="0" stroke-linecap="butt"/></g><g><g fill="none" stroke-width="3.25" stroke-linecap="round"><path d="M390.51624,138.1378c0,0 -0.25556,5.71259 -0.35671,7.97343c-0.07485,1.67324 -2.97722,1.30772 -4.64171,-0.52301c-1.39411,-1.53336 -4.08381,-4.49172 -5.7781,-6.35526c-0.89631,-0.98584 -1.63513,-0.57912 -1.72882,0.26131c-0.17734,1.5909 -0.76958,6.90361 -0.76958,6.90361" stroke="url(#color-22)"/><path d="M402.06425,138.67348c0,0 -0.25555,5.71259 -0.3567,7.97343c-0.07485,1.67324 -2.97722,1.30772 -4.64171,-0.52302c-2.1316,-2.34453 -7.29217,-8.02054 -7.29217,-8.02054" stroke="url(#color-23)"/><path d="M415.05578,139.27613c0,0 -0.25556,5.71259 -0.35671,7.97343c-0.07485,1.67324 -2.97722,1.30772 -4.6417,-0.52302c-2.1316,-2.34453 -7.29216,-8.02054 -7.29216,-8.02054" stroke="url(#color-24)"/><path d="M426.60379,139.81181c0,0 -0.25555,5.71259 -0.3567,7.97343c-0.07485,1.67324 -2.97722,1.30772 -4.64171,-0.52301c-2.1316,-2.34453 -7.29217,-8.02054 -7.29217,-8.02054" stroke="url(#color-25)"/><path d="M440.07647,140.43678c0,0 -0.25555,5.71258 -0.3567,7.97342c-0.07485,1.67324 -2.97722,1.30772 -4.6417,-0.52302c-2.1316,-2.34453 -7.29217,-8.02054 -7.29217,-8.02054" stroke="url(#color-26)"/><path d="M451.62449,140.97246c0,0 -0.25555,5.71258 -0.3567,7.97342c-0.07485,1.67324 -2.97722,1.30772 -4.64171,-0.52302c-2.1316,-2.34453 -7.29216,-8.02054 -7.29216,-8.02054" stroke="url(#color-27)"/><path d="M464.61602,141.5751c0,0 -0.25555,5.71259 -0.3567,7.97343c-0.07485,1.67324 -2.97722,1.30772 -4.6417,-0.52302c-2.1316,-2.34453 -7.29217,-8.02053 -7.29217,-8.02053" stroke="url(#color-28)"/><path d="M476.16403,142.11078c0,0 -0.25555,5.71259 -0.3567,7.97343c-0.07485,1.67324 -2.97722,1.30772 -4.64171,-0.52302c-2.1316,-2.34453 -7.29216,-8.02054 -7.29216,-8.02054" stroke="url(#color-29)"/></g><path d="M487.85152,130.14128c4.56391,5.70446 -4.7408,10.89376 -3.52571,12.33815c1.57083,1.86724 2.60471,-0.48661 2.56391,1.01808c-0.11356,4.18812 -5.50189,4.0475 -6.2176,4.6505c-1.52419,1.28418 -2.46688,7.60483 -4.16064,6.5384c-1.00164,-0.63066 -2.91426,-7.96006 -3.60711,-9.28271c-0.45248,-0.86381 -9.48756,-6.92642 -9.67182,-7.85624c-0.57495,-2.90141 8.85093,-0.741 10.68782,-2.28862c2.42556,-2.04361 9.50988,-10.64375 13.93115,-5.11757z" fill="#0d0d0d" stroke="#000000" stroke-width="0" stroke-linecap="butt"/></g><g fill="none" stroke-width="3.25" stroke-linecap="round"><path d="M375.35101,225.65391c0,0 -5.35431,4.08174 -6.95765,5.30401c-0.847,0.64569 -1.23071,1.50707 -0.19915,1.54607c1.94997,0.07371 5.04556,0.19073 6.65004,0.25137c1.91566,0.0724 2.39521,2.12105 0.70466,3.3182c-2.28423,1.61758 -8.05594,5.70476 -8.05594,5.70476" stroke="url(#color-30)"/><path d="M367.43006,241.21402c0,0 5.93928,0.2245 8.39256,0.31724c1.91565,0.07241 2.39521,2.12104 0.70466,3.31821c-2.28423,1.61758 -8.05594,5.70476 -8.05594,5.70476" stroke="url(#color-31)"/><path d="M368.63124,250.41358c0,0 6.33404,-0.28978 8.42618,-1.57435c1.63366,-1.00306 3.16967,0.43485 2.42793,2.36902c-1.00223,2.6134 -3.53462,9.21677 -3.53462,9.21677" stroke="url(#color-32)"/><path d="M376.09036,260.5256c0,0 5.67413,-2.45465 6.91126,-4.57519c0.96602,-1.65583 2.99909,-1.11412 3.25906,0.94102c0.35125,2.77685 1.23876,9.79326 1.23876,9.79326" stroke="url(#color-33)"/><path d="M388.33908,267.01941c0,0 2.99505,-5.13373 4.23219,-7.25426c0.96602,-1.65583 2.9991,-1.11412 3.25907,0.94102c0.35125,2.77685 1.23876,9.79326 1.23876,9.79326" stroke="url(#color-34)"/><path d="M396.54166,270.28918c0,0 2.99505,-5.13372 4.23218,-7.25426c0.96602,-1.65583 2.9991,-1.11412 3.25907,0.94102c0.35125,2.77685 1.23876,9.79326 1.23876,9.79326" stroke="url(#color-35)"/><path d="M405.76957,273.96768c0,0 2.99505,-5.13373 4.23218,-7.25426c0.96602,-1.65583 2.9991,-1.11413 3.25907,0.94102c0.35125,2.77685 1.23877,9.79326 1.23877,9.79326" stroke="url(#color-36)"/><path d="M413.97213,277.23745c0,0 2.99505,-5.13373 4.23219,-7.25426c0.96602,-1.65583 2.9991,-1.11412 3.25907,0.94102c0.35125,2.77685 1.23876,9.79326 1.23876,9.79326" stroke="url(#color-37)"/></g><path d="M381.33855,183.824c0,0.52115 -5.90721,0.47794 -11.89912,-1.94568c-2.75129,-1.11285 -3.85857,-5.66782 -7.37763,-5.66782c-3.98849,0 -4.16448,4.42862 -7.32558,5.92377c-5.70208,2.69699 -13.08509,3.1509 -13.08509,2.66167c0,-0.76045 8.25571,-26.08031 19.43874,-26.08031c11.18304,0 20.24868,24.34793 20.24868,25.10837z" fill="#4c1212" stroke="url(#color-38)" stroke-width="0" stroke-linecap="butt"/><path d="M385.22631,131.80312c0,0.55915 -9.67232,8.94992 -23.0025,8.94992c-13.33019,0 -24.21744,-7.17585 -24.21744,-7.735c0,-0.27604 11.8324,0.90799 23.48629,0.60465c11.9523,-0.3111 23.73365,-2.10268 23.73365,-1.81958z" fill="#4c1212" stroke="url(#color-39)" stroke-width="0" stroke-linecap="butt"/><g fill="none" stroke-width="3.25" stroke-linecap="round"><path d="M387.38208,107.40257c0,0 -3.3082,0 -4.29884,0c-0.52333,0 -0.79652,0.68617 -0.21157,1.68176c1.10575,1.88198 -12.53649,-1.89858 -11.62665,-0.35004c1.08629,1.84885 5.62865,6.45298 4.58994,6.34249c-1.40348,-0.14929 -9.85665,-1.71096 -9.85665,-1.71096" stroke="url(#color-40)"/><path d="M365.97831,113.81174c0,0 3.36794,5.73219 4.7591,8.09992c1.08629,1.84885 -3.6776,1.71523 -4.71632,1.60476c-1.40348,-0.14929 -5.28813,0.65791 -5.28813,0.65791" stroke="url(#color-41)"/><path d="M360.73296,124.87146c0,0 1.67589,2.8557 3.06705,5.22343c1.08629,1.84885 1.22933,4.76091 0.19062,4.65044c-1.40348,-0.14929 -4.94972,-0.52652 -4.94972,-0.52652" stroke="url(#color-42)"/><path d="M359.04091,133.48027c0,0 3.36794,5.73219 4.7591,8.09992c1.08629,1.84885 1.22933,4.76092 0.19062,4.65044c-1.40348,-0.14929 -4.94972,-0.52653 -4.94972,-0.52653" stroke="url(#color-43)"/><path d="M359.04091,146.87978c0,0 3.36794,5.73219 4.7591,8.09992c1.08629,1.84885 1.22933,4.76091 0.19062,4.65044c-1.40348,-0.14929 -4.94972,-0.52652 -4.94972,-0.52652" stroke="url(#color-44)"/><path d="M359.04091,158.36508c0,0 3.36794,5.73218 4.7591,8.09991c1.08629,1.84885 1.22933,4.76092 0.19062,4.65044c-1.40348,-0.14929 -4.94972,-0.52652 -4.94972,-0.52652" stroke="url(#color-45)"/><path d="M359.04091,171.28604c0,0 3.36794,5.73219 4.7591,8.09992c1.08629,1.84885 1.22933,4.76092 0.19062,4.65044c-1.40348,-0.14929 -4.94972,-0.52653 -4.94972,-0.52653" stroke="url(#color-46)"/><path d="M359.04091,182.77134c0,0 3.36794,5.73219 4.7591,8.09992c1.08629,1.84885 1.22933,4.76092 0.19062,4.65044c-1.40348,-0.14929 -4.94972,-0.52653 -4.94972,-0.52653" stroke="url(#color-47)"/></g><path d="M349.28433,146.16663c0,-2.61663 -5.70058,-7.80662 -5.02803,-9.02126c0.84771,-1.53099 8.24428,1.25101 9.88931,1.03205c2.00481,-0.26684 4.48945,0.06165 7.18022,0.06165c2.81447,0 5.54763,-0.26147 7.76422,0.1899c1.32407,0.26962 8.21445,-1.71725 9.07709,-0.73125c1.10558,1.26366 -3.99461,5.79705 -3.99461,9.01563c0,5.34348 0.25684,17.15961 -2.43503,22.99792c-2.31263,5.01579 -7.33849,4.5025 -10.41168,4.5025c-2.58281,0 -8.48932,-0.98251 -10.45023,-4.90643c-3.08813,-6.17958 -1.59128,-17.06473 -1.59128,-23.14072z" fill="#dadada" stroke="#000000" stroke-width="0" stroke-linecap="butt"/><path d="M350.24335,155.45593c0,-7.41308 4.93348,-13.42259 11.01924,-13.42259c6.08576,0 11.01925,6.0095 11.01925,13.42259c0,7.41308 -4.93349,13.42259 -11.01925,13.42259c-6.08576,0 -11.01924,-6.0095 -11.01924,-13.42259z" fill="#ababab" stroke="url(#color-48)" stroke-width="0" stroke-linecap="butt"/><path d="M370.92011,173.82731c-1.67686,-10.68409 1.56557,-34.99976 2.86906,-38.01729c2.18407,-5.05605 7.52146,-4.70722 11.79635,-4.32749c2.50809,0.2228 -3.16309,20.06713 -8.23751,32.84308c-2.41536,6.08121 4.70461,19.64554 4.70461,19.64554c0,0 -9.45307,0.55678 -11.13252,-10.14384z" fill="#801d1d" stroke="url(#color-49)" stroke-width="0" stroke-linecap="butt"/><path d="M340.84422,185.26917c0,0 7.11998,-13.56433 4.70461,-19.64554c-5.07442,-12.77595 -10.7456,-32.62029 -8.2375,-32.84308c4.27491,-0.37973 9.61229,-0.72857 11.79635,4.32748c1.30348,3.01754 4.54592,27.33321 2.86906,38.0173c-1.67945,10.70061 -11.13252,10.14384 -11.13252,10.14384z" fill="#801d1d" stroke="url(#color-50)" stroke-width="0" stroke-linecap="butt"/><path d="M347.95214,191.69475c2.42106,-1.66997 24.98237,-2.93164 27.7382,0.33775c2.20344,2.61406 5.058,32.12933 1.9437,38.39913c-2.49103,5.01503 -15.38226,-0.1568 -15.38226,-0.1568c0,0 0.2657,-22.98571 -1.12299,-22.98645c-1.35955,-0.00073 -1.38821,23.05244 -1.38821,23.05244c0,0 -14.31377,-1.50404 -15.98136,-1.40725c-3.37607,0.19596 0.26433,-34.52903 4.19292,-37.23883z" fill="#0d0d0d" stroke="url(#color-51)" stroke-width="0" stroke-linecap="butt"/><path d="M346.43679,195.52475c0,-1.95575 1.58545,-3.5412 3.54121,-3.5412c1.95575,0 3.5412,1.58544 3.5412,3.5412c0,1.95575 -1.58545,3.5412 -3.5412,3.5412c-1.95575,0 -3.54121,-1.58545 -3.54121,-3.5412z" fill="#e1f194" stroke="url(#color-52)" stroke-width="0" stroke-linecap="butt"/><path d="M369.10048,195.52475c0,-1.95575 1.58545,-3.5412 3.5412,-3.5412c1.95575,0 3.54121,1.58544 3.54121,3.5412c0,1.95575 -1.58545,3.5412 -3.54121,3.5412c-1.95575,0 -3.5412,-1.58545 -3.5412,-3.5412z" fill="#e1f194" stroke="url(#color-53)" stroke-width="0" stroke-linecap="butt"/><path d="M410.59152,283.20654c0.00363,-2.92138 0.85527,-6.77598 0.85527,-6.77598c0,0 9.63386,-5.33693 13.64651,-5.33194c6.93402,0.00862 12.54817,5.63673 12.53956,12.57075c-0.00862,6.93402 -27.04996,6.47119 -27.04134,-0.46283z" fill="#272727" stroke="url(#color-54)" stroke-width="0" stroke-linecap="butt"/><g stroke="#000000" stroke-width="0" stroke-linecap="butt"><path d="M352.59834,151.65332l3.61702,-13.66175l3.23438,0.85634l-3.61702,13.66174z" fill="#2f323e"/><path d="M354.13844,136.72957c-0.92623,-2.91556 1.2721,-12.06517 1.2721,-12.06517l11.04428,2.81488c0,0 -2.78754,8.69249 -4.56154,11.01778c-1.1962,1.56794 -3.05265,0.84323 -4.45665,0.4715c-1.04617,-0.27699 -2.90601,-1.00457 -3.29817,-2.23901z" fill="#2f323e"/><g><path d="M388.03195,123.25241c-0.02918,-2.98757 -0.88187,-4.77513 -0.92896,-7.06087c-0.04443,-2.15683 0.71967,-4.84544 0.59717,-6.53104c-0.30273,-4.16572 -0.79148,-7.09297 -0.12929,-9.56952c0.41348,-1.54639 2.49543,-3.70711 3.24156,-4.90303c0.81646,-1.30864 5.26245,-0.31275 7.55851,1.69529c1.99899,1.74825 1.81177,4.1586 3.25969,7.82001c0.64774,1.63795 2.61434,5.63995 3.00032,7.54879c0.64017,3.16588 -0.29425,4.84799 -0.60137,7.83437c-0.25733,2.50215 0.87684,6.59531 0.64903,9.52636c-0.1063,1.36792 -1.4275,1.70743 -1.65695,2.92257c-0.277,1.46693 0.10643,6.44144 -0.21212,7.74359c-0.90457,3.69768 -2.47846,4.49865 -3.68236,6.62688c-1.42884,2.52591 -1.35843,8.7538 -2.81464,10.07559c-2.12735,1.93099 -6.62948,1.2182 -8.28619,0.90536c-1.62647,-0.30714 -4.12288,0.67573 -5.26824,-1.50234c-0.88623,-1.68529 -1.11868,-5.35036 -0.99954,-9.23968c0.071,-2.31788 -0.65204,-2.55204 -0.2773,-5.28213c0.22375,-1.63011 1.42684,-5.52454 1.79551,-7.47684c0.62209,-3.29441 4.82155,-4.3389 4.7552,-11.13339z" fill="#a3a3a3"/><path d="M392.11066,98.20439c1.37786,0.00206 2.49077,2.72636 2.48575,6.0849c-0.00502,3.35854 -1.12607,6.07951 -2.50393,6.07745c-1.37786,-0.00206 -2.49078,-2.72636 -2.48576,-6.08491c0.00502,-3.35854 1.12606,-6.07951 2.50392,-6.07746z" fill="#0d0d0d"/></g><path d="M392.51364,101.48979c0.67955,0.49025 1.02667,1.83345 1.06307,2.68734c0.0261,0.61246 -0.06837,1.78373 -0.41126,2.23892c-2.08966,2.77416 -10.02314,1.94503 -10.18223,-1.78745c-0.14877,-3.49106 6.7521,-5.14314 9.5304,-3.13882z" fill="#2f323e"/><g><path d="M339.01613,123.85818c-0.64568,1.87896 -1.52726,5.85848 -2.13944,7.38575c-1.02528,2.55786 -1.76947,2.40356 -2.85471,4.45294c-1.821,3.43875 -3.83657,6.50866 -5.44062,7.53463c-2.07307,1.32598 -3.7561,-0.76343 -5.32147,-1.30135c-1.59448,-0.54792 -5.85949,-2.15629 -6.75264,-4.88697c-0.61137,-1.8692 2.53153,-7.24634 2.53976,-10.14836c0.00694,-2.44512 -0.96441,-3.91998 0.07919,-7.58084c0.36751,-1.28919 3.16224,-5.42228 3.64739,-6.83408c0.40188,-1.16948 -0.57822,-2.11828 0.00628,-3.35959c1.25241,-2.65979 4.26339,-5.65551 5.2779,-7.95718c1.21085,-2.74713 1.23119,-4.67123 3.35406,-7.10559c1.27996,-1.46778 4.96921,-3.97237 6.34257,-5.07522c3.06997,-2.46527 4.1,-4.6525 6.7022,-5.18256c2.9889,-0.60885 7.34521,0.72573 7.40716,2.26695c0.05663,1.40845 0.79664,4.31632 0.39076,5.86469c-0.65002,2.47978 -2.52322,4.78167 -4.8476,8.25185c-0.94053,1.40416 -1.6069,4.11864 -2.7128,5.97092c-1.17197,1.96298 -2.79748,3.09443 -4.30116,5.67617c-3.41976,5.8715 -0.28729,8.85717 -1.37685,12.02781z" fill="#a3a3a3"/><path d="M348.41165,94.5658c-1.65753,2.92103 -3.9727,4.73774 -5.17107,4.05771c-1.19837,-0.68003 -0.82616,-3.59923 0.83138,-6.52026c1.65753,-2.92103 3.9727,-4.73774 5.17107,-4.05771c1.19837,0.68003 0.82616,3.59923 -0.83138,6.52026z" fill="#0d0d0d"/></g><path d="M353.99582,98.14464c-1.98516,3.16479 -9.28958,-0.0404 -9.73275,-3.48514c-0.07272,-0.56524 0.42475,-1.6298 0.75048,-2.14911c0.45416,-0.724 1.42046,-1.71949 2.25357,-1.80926c3.40613,-0.36698 8.58542,4.48342 6.72869,7.44349z" fill="#2f323e"/><path d="M383.39796,136.53469c-0.17433,0.65847 -13.09846,2.23495 -24.77693,-0.85754c-11.66061,-3.08775 -22.07585,-10.84344 -21.90178,-11.50089c0.17347,-0.65522 10.68379,6.42156 22.30543,9.49552c11.71878,3.09966 24.54822,2.20221 24.37328,2.86291z" fill="#686e88"/><path d="M383.31494,136.16079c-0.4836,1.82652 -8.25316,21.43986 -29.25983,15.87823c-21.00668,-5.56164 -17.63246,-27.42995 -17.14887,-29.25649c0.4836,-1.82652 -2.10657,17.08038 18.9001,22.64202c21.00668,5.56164 27.99219,-11.09028 27.50862,-9.26375z" fill="#dadada"/><path d="M354.19201,141.80167l3.43561,-12.97651l4.8713,1.28972l-3.43561,12.97651z" fill="#24262f"/><path d="M338.83245,108.09503c3.69,-13.93737 17.97978,-22.24448 31.91715,-18.55451c13.93736,3.68999 22.2445,17.97977 18.5545,31.91714c-3.68999,13.93736 -54.16162,0.57473 -50.47164,-13.36263z" fill="#dadada"/><path d="M344.37844,107.08955c1.58716,-5.99481 7.73354,-9.56789 13.72833,-7.98075c5.99481,1.58716 9.56792,7.73353 7.98075,13.72833c-1.58716,5.99481 -7.73354,9.56789 -13.72835,7.98074c-5.99481,-1.58716 -9.56789,-7.73354 -7.98075,-13.72833z" fill="#000000"/><path d="M361.92867,112.18935c1.58716,-5.99481 7.73353,-9.56792 13.72833,-7.98075c5.99481,1.58716 9.5679,7.73354 7.98075,13.72834c-1.58716,5.99481 -7.73352,9.5679 -13.72833,7.98074c-5.99481,-1.58716 -9.5679,-7.73352 -7.98075,-13.72833z" fill="#000000"/><path d="M392.08806,125.27982c-0.99746,3.57854 -11.63352,11.65511 -32.81112,6.0482c-21.17759,-5.60688 -25.50499,-18.25909 -24.60291,-21.86286c2.79544,-11.16783 6.86844,3.25106 28.04603,8.85792c21.17759,5.60688 32.58465,-4.58351 29.36802,6.95671z" fill="#ababab"/><path d="M354.19794,118.85365c2.51261,-9.49031 13.23147,-30.20861 16.10353,-29.44822c2.87207,0.76039 3.35792,22.34831 0.84531,31.83862c-2.51261,9.49031 -19.46146,7.0999 -16.94885,-2.39039z" fill="#ababab"/><path d="M372.03938,120.31812c-0.1858,0.70184 -6.28359,7.96867 -11.22563,6.66024c-4.94205,-1.30843 -6.85694,-10.69665 -6.67113,-11.39849c0.1858,-0.70184 18.08258,4.03643 17.89677,4.73825z" fill="#1d1d1d"/><g><path d="M395.66477,72.84658c-0.83479,3.15306 -10.10202,3.43469 -20.69898,0.6291c-10.59694,-2.80559 -18.51073,-7.63603 -17.67595,-10.78907c0.13809,-0.52153 0.76645,-2.00476 2.6114,-1.88975c7.12731,0.44422 26.0346,5.58566 33.57352,9.21952c2.30756,1.11226 2.35327,2.2135 2.18999,2.83019z" fill="#101010"/><path d="M395.34031,73.25603c-1.79441,6.77761 -5.52813,17.43521 -13.88632,20.07806c-5.93412,1.87636 -16.25849,-2.96152 -20.65771,-4.12625c-10.59552,-2.80521 -6.89413,-14.52085 -3.82574,-26.11041c1.10459,-4.17216 3.18818,0.50384 9.86238,1.0207c5.58834,0.43278 12.41715,4.67747 17.98543,4.95597c6.25476,0.31283 11.56087,0.25789 10.52197,4.18192z" fill="#0d0d0d"/></g><g><path d="M395.22401,95.12619c-0.19561,0.73888 -11.21629,-1.53797 -24.61534,-5.08543c-13.39904,-3.54746 -24.10254,-7.02221 -23.90693,-7.76109c0.19561,-0.73888 11.21629,1.53796 24.61533,5.08542c13.39904,3.54746 24.10254,7.02222 23.90692,7.7611z" fill="#101010"/><path d="M394.94001,95.16707c-0.42048,1.58822 -2.17342,3.85323 -11.50423,2.52069c-6.62465,-0.94607 -20.21539,-5.03742 -25.77791,-6.51012c-13.39727,-3.547 -11.95269,-6.13954 -11.23367,-8.85538c0.25884,-0.97768 5.62079,2.17124 13.74124,4.02823c6.79928,1.55484 15.18166,4.5763 21.91761,6.0795c7.56638,1.68849 13.1004,1.81755 12.85696,2.73709z" fill="#0d0d0d"/></g><path d="M389.6527,89.49476c-0.15864,0.59924 -0.20084,2.59127 -1.80146,2.69169c-1.35567,0.08503 -3.32193,-0.53143 -5.74031,-0.95476c-2.47928,-0.43399 -5.42821,-0.68588 -8.22621,-1.49092c-1.41267,-0.40647 -2.30787,-1.37007 -3.7357,-1.74808c-2.15505,-0.57057 -4.80284,-0.77554 -7.23732,-1.54285c-2.11425,-0.6664 -4.03037,-1.89763 -5.78767,-2.40629c-2.18279,-0.63182 -3.61894,-0.55286 -4.76036,-1.20521c-1.92461,-1.09994 -0.09739,-2.47006 0.09354,-3.19125c0.16009,-0.6047 0.02894,-2.99789 1.65539,-3.09479c1.50684,-0.08976 4.10811,-0.12947 6.87961,0.78504c2.01987,0.66651 4.03877,2.18501 6.23965,2.86319c1.70666,0.52588 3.00822,0.49307 4.72901,0.94866c1.72389,0.45642 3.28171,1.36071 5.19342,1.70639c2.25044,0.40695 4.71378,0.18421 6.83382,0.45569c2.97737,0.38127 5.40406,1.2601 6.71931,2.04908c1.69278,1.01546 -0.87609,3.45955 -1.05477,4.13443z" fill="#801d1d"/></g><path d="M340,353.5v-19h40v19z" fill="#000000" stroke="#484c5e" stroke-width="0" stroke-linecap="butt"/><g stroke="#000000" stroke-width="0" stroke-linecap="butt"><path d="M-2.61261,366.18619v-372.37237h725.22523v372.37237z" fill="url(#color-55)"/><path d="M-2.61262,366.18619v-372.37237h725.22523v372.37237z" fill="url(#color-56)"/></g><text transform="translate(150,350) scale(0.5,0.5)" font-size="40" xml:space="preserve" fill="#ca0d0d" stroke="none" stroke-width="1" stroke-linecap="butt" font-family="&quot;MS Gothic&quot;, Sans Serif" font-weight="normal" text-anchor="start"><tspan x="0" dy="0">CLUTCH : NO WORRIES! I AM MADE TO NOT HURT</tspan></text><g stroke-width="0" stroke-linecap="butt"><path d="M350.55692,103.09839c1.08172,-2.15569 3.70617,-3.02631 5.86186,-1.94458c2.15569,1.08172 3.02631,3.70617 1.94458,5.86186c-1.08172,2.15569 -3.70617,3.02631 -5.86186,1.94458c-2.15569,-1.08172 -3.02631,-3.70617 -1.94458,-5.86186zM353.15293,107.5922c1.36149,0.6832 3.01904,0.13333 3.70223,-1.22816c0.6832,-1.36149 0.13333,-3.01904 -1.22816,-3.70223c-1.36149,-0.6832 -3.01904,-0.13333 -3.70223,1.22816c-0.6832,1.36149 -0.13333,3.01904 1.22816,3.70223z" fill="#ffffff" stroke="url(#color-57)"/><path d="M374.91266,109.78947c1.08172,-2.15569 3.70617,-3.02631 5.86186,-1.94458c2.15569,1.08172 3.02631,3.70617 1.94458,5.86186c-1.08172,2.15569 -3.70617,3.02631 -5.86186,1.94458c-2.15569,-1.08172 -3.02631,-3.70617 -1.94458,-5.86186zM377.50867,114.28328c1.36149,0.6832 3.01904,0.13333 3.70223,-1.22816c0.6832,-1.36149 0.13333,-3.01904 -1.22816,-3.70223c-1.36149,-0.6832 -3.01904,-0.13333 -3.70223,1.22816c-0.6832,1.36149 -0.13333,3.01904 1.22816,3.70223z" fill="#ffffff" stroke="url(#color-58)"/><path d="M339.9681,97.78492c4.01628,-8.00373 13.76042,-11.23622 21.76417,-7.21994c8.00373,4.01628 11.23622,13.76042 7.21994,21.76417c-4.01628,8.00373 -13.76042,11.23622 -21.76417,7.21994c-8.00373,-4.01628 -11.23622,-13.76042 -7.21994,-21.76417z" fill="url(#color-59)" stroke="url(#color-60)"/><path d="M364.32384,104.476c4.01628,-8.00373 13.76042,-11.23621 21.76416,-7.21993c8.00373,4.01628 11.23621,13.76042 7.21993,21.76415c-4.01628,8.00374 -13.76042,11.23621 -21.76415,7.21993c-8.00373,-4.01628 -11.23622,-13.76042 -7.21994,-21.76416z" fill="url(#color-61)" stroke="url(#color-62)"/></g></g></g></svg>