<svg version="1.1" xmlns="http://www.w3.org/2000/svg" xmlns:xlink="http://www.w3.org/1999/xlink" width="858.40171" height="592.34234" viewBox="0,0,858.40171,592.34234"><defs><radialGradient cx="641.82513" cy="376.69673" r="198.94895" gradientUnits="userSpaceOnUse" id="color-1"><stop offset="0" stop-color="#ffb856" stop-opacity="0.53333"/><stop offset="1" stop-color="#ffb856" stop-opacity="0"/></radialGradient><radialGradient cx="641.82513" cy="376.69673" r="101.97448" gradientUnits="userSpaceOnUse" id="color-2"><stop offset="0" stop-color="#ff5757" stop-opacity="0.53333"/><stop offset="1" stop-color="#ff5757" stop-opacity="0"/></radialGradient></defs><g transform="translate(17.62763,16.69666)"><g stroke-width="0" stroke-miterlimit="10"><g><path d="M-17.62763,376.69674v-393.39339h755.25526v393.39339z" fill-opacity="0.07059" fill="#ffffff" stroke="none"/><path d="M442.87618,376.69673c0,-109.87647 89.07248,-198.94895 198.94895,-198.94895c109.87647,0 198.94895,89.07248 198.94895,198.94895c0,109.87647 -89.07248,198.94895 -198.94895,198.94895c-109.87647,0 -198.94895,-89.07248 -198.94895,-198.94895z" fill="url(#color-1)" stroke="#dcdcdc"/><path d="M539.85065,376.69673c0,-56.31895 45.65553,-101.97448 101.97447,-101.97448c56.31895,0 101.97448,45.65553 101.97448,101.97448c0,56.31895 -45.65553,101.97448 -101.97448,101.97448c-56.31895,0 -101.97447,-45.65553 -101.97447,-101.97448z" fill="url(#color-2)" stroke="#dcdcdc"/></g></g></g></svg>