<svg version="1.1" xmlns="http://www.w3.org/2000/svg" xmlns:xlink="http://www.w3.org/1999/xlink" width="734" height="382" viewBox="0,0,734,382"><g transform="translate(7,11)"><g stroke-miterlimit="10"><path d="M-7,371v-382h734v382z" fill="#000000" stroke="#424242" stroke-width="0" stroke-linecap="butt"/><text transform="translate(158.22656,41.93303) scale(0.5,0.5)" font-size="40" xml:space="preserve" fill="#ffffff" stroke="none" stroke-width="1" stroke-linecap="butt" font-family="&quot;Century Gothic&quot;, Sans Serif" font-weight="normal" text-anchor="start"><tspan x="0" dy="0">ASC TRANSPORTER NAVIGATION SYSTEM</tspan></text><g fill="none" stroke-width="2.5"><g stroke="#cdcdcd" stroke-linecap="round"><path d="M84,231v-111h552v118"/><path d="M351,240v-118"/></g><g stroke="#424242" stroke-linecap="butt"><path d="M61.25,147.5v-49h49v49z"/><path d="M327.75,147.5v-49h49v49z"/><path d="M611.75,147.5v-49h49v49z"/><path d="M327.75,258.5v-49h49v49z"/><path d="M61.25,255.5v-49h49v49z"/><path d="M610.75,262.5v-49h49v49z"/></g></g><g fill="#ffffff" stroke="none" stroke-width="1" stroke-linecap="butt" font-family="&quot;Century Gothic&quot;, Sans Serif" font-weight="normal" font-size="40" text-anchor="start"><g><text transform="translate(248.12891,329.5) scale(0.5,0.5)" font-size="40" xml:space="preserve" fill="#ffffff"><tspan x="0" dy="0">-                - 2023/05/03 -</tspan></text><text transform="translate(265.03418,313.175) scale(0.30498,0.30498)" font-size="40" xml:space="preserve" fill="#ffffff"><tspan x="0" dy="0">Containers :</tspan><tspan x="0" dy="46.150000000000006px">- Empty</tspan><tspan x="0" dy="46.150000000000006px">- Cage 2301</tspan></text></g><text transform="translate(309.24219,292.5) scale(0.5,0.5)" font-size="40" xml:space="preserve" fill="#ffffff"><tspan x="0" dy="0">TD_25330</tspan></text></g><path d="M223,273.01875v78" fill="none" stroke="#cdcdcd" stroke-width="0.5" stroke-linecap="round"/><path d="M500,273.01875v78" fill="none" stroke="#cdcdcd" stroke-width="0.5" stroke-linecap="round"/><path d="M343.25,129.25v-15.5h15.5v15.5z" fill="#ffffff" stroke="#cdcdcd" stroke-width="0" stroke-linecap="butt"/><text transform="translate(15,83.5) scale(0.5,0.5)" font-size="40" xml:space="preserve" fill="#ffffff" stroke="none" stroke-width="1" stroke-linecap="butt" font-family="&quot;Century Gothic&quot;, Sans Serif" font-weight="normal" text-anchor="start"><tspan x="0" dy="0">MILITARY SUPPLY                      MAIN SECTOR                         POWER SUPPLY</tspan></text></g></g></svg>