<svg version="1.1" xmlns="http://www.w3.org/2000/svg" xmlns:xlink="http://www.w3.org/1999/xlink" width="412.23265" height="418.04745" viewBox="0,0,412.23265,418.04745"><defs><linearGradient x1="226.54523" y1="221.30051" x2="228.29547" y2="228.04248" gradientUnits="userSpaceOnUse" id="color-1"><stop offset="0" stop-color="#000000" stop-opacity="0"/><stop offset="1" stop-color="#000000"/></linearGradient></defs><g transform="translate(-120.48422,-69.47323)"><g stroke-miterlimit="10"><path d="M303.69096,227.93138c0.99405,4.51338 -1.85893,8.97805 -6.37229,9.9721c-4.51338,0.99406 -8.97805,-1.85892 -9.9721,-6.37229c-0.99405,-4.51338 1.85893,-8.97805 6.37229,-9.9721c4.51338,-0.99406 8.97805,1.85893 9.9721,6.37229z" fill="#4e4e4e" stroke="#2b2b2b" stroke-width="0"/><path d="M294.26668,230.00705c-2.34817,-10.66151 -3.62445,-19.4425 41.13699,-29.30108c44.76144,-9.85856 36.82177,0.95222 39.16994,11.61372c2.34817,10.66151 14.09494,17.13642 -30.66648,26.99498c-44.76144,9.85856 -47.29227,1.35388 -49.64043,-9.30763z" fill="#2b2b2b" stroke="#2b2b2b" stroke-width="0"/><path d="M384.80966,210.06524c0.99405,4.51338 -1.85891,8.97803 -6.37229,9.9721c-4.51338,0.99406 -8.97803,-1.8589 -9.9721,-6.37229c-0.99405,-4.51338 1.85891,-8.97804 6.37229,-9.97209c4.51338,-0.99406 8.97804,1.8589 9.97211,6.3723z" fill="#4e4e4e" stroke="#2b2b2b" stroke-width="0"/><path d="M294.26668,230.00705c-2.34816,-10.66148 -3.62445,-19.4425 41.13699,-29.30108c44.76144,-9.85856 36.82177,0.95222 39.16994,11.61372c2.34816,10.66148 14.09494,17.13642 -30.66648,26.99498c-44.76144,9.85856 -47.29228,1.35386 -49.64043,-9.30763z" fill="#2b2b2b" stroke="#2b2b2b" stroke-width="0"/><g fill="#262626" stroke="#2b2b2b" stroke-width="0"><g><path d="M270.41206,382.21193c-7.22351,1.87524 -14.79424,-0.73932 -21.37619,-0.28375c-9.13831,0.63251 -12.83208,5.37474 -18.32561,0.26075c-3.44992,-3.21159 -9.07843,-20.59772 -9.9901,-24.10957c-3.40902,-13.13174 11.69572,-25.39797 35.2465,-31.5118c12.14271,-3.15227 25.8535,52.68283 14.4454,55.64439z"/></g><g><path d="M251.35213,327.76547c23.55078,-6.11383 42.71472,-2.74382 46.12375,10.38791c0.91169,3.51185 4.45094,21.44036 2.99884,25.92453c-2.31225,7.1404 -7.84633,4.79373 -16.13835,8.68618c-5.97239,2.80357 -11.31534,8.77054 -18.53887,10.64579c-11.40809,2.96156 -26.5881,-52.49212 -14.44539,-55.64439z"/></g></g><path d="M233.82614,230.59439l0.2068,-10.85811l57.66028,1.09828l-0.20681,10.85812z" fill="#4e4e4e" stroke="#2b2b2b" stroke-width="0"/><path d="M174.16835,262.14866l-5.46232,-9.38639l49.84494,-29.00684l5.46232,9.38639z" fill="#4e4e4e" stroke="#2b2b2b" stroke-width="0"/><g stroke="#2b2b2b" stroke-width="0"><path d="M124.86789,415.55359c1.20419,-4.4619 5.79747,-7.10282 10.25938,-5.89863c4.46191,1.20419 7.10282,5.79747 5.89862,10.25939c-1.20419,4.4619 -5.79747,7.10283 -10.25939,5.89863c-4.46191,-1.20419 -7.10281,-5.79746 -5.8986,-10.25939z" fill="#4e4e4e"/><path d="M143.84387,345.24159c1.20419,-4.4619 5.79746,-7.10282 10.25936,-5.89863c4.46191,1.20419 7.10283,5.79748 5.89863,10.2594c-1.20419,4.4619 -5.79747,7.10282 -10.25939,5.89862c-4.46191,-1.20419 -7.10281,-5.79746 -5.8986,-10.25939z" fill="#4e4e4e"/><path d="M165.48674,265.0479c1.20419,-4.46191 5.79748,-7.10283 10.2594,-5.89863c4.46191,1.20419 7.10282,5.79747 5.89862,10.25939c-1.20419,4.4619 -5.79747,7.10282 -10.25939,5.89862c-4.46191,-1.20419 -7.10283,-5.79747 -5.89863,-10.25939z" fill="#4e4e4e"/><path d="M180.87408,316.01208c-11.94257,44.25102 -17.86064,32.21408 -28.40058,29.36954c-10.53994,-2.84454 -21.71044,4.58047 -9.76785,-39.67053c11.94257,-44.25101 20.65422,-42.56518 31.19415,-39.72064c10.53994,2.84454 18.91686,5.77062 6.97429,50.02164z" fill="#2b2b2b"/><path d="M160.99067,384.07661c-10.57847,39.19656 -18.96708,38.82534 -28.72763,36.19114c-9.76055,-2.6342 -17.19689,-6.53386 -6.61842,-45.73043c10.57847,-39.19656 16.1943,-28.55133 25.95484,-25.91714c9.76055,2.6342 19.96967,-3.74012 9.3912,35.45642z" fill="#2b2b2b"/></g><g fill="#2b2b2b" stroke="#2b2b2b" stroke-width="0"><g><path d="M264.34567,369.55818c-26.1837,6.79735 -40.6721,11.86961 -51.78063,-30.92102c-3.35243,-12.91374 -23.80429,-38.51777 -24.27118,-49.7538c-1.08016,-25.99539 26.94342,-33.32483 45.22519,-38.07082c6.68282,-1.73487 37.23699,117.08149 30.82662,118.74563z"/></g><g><path d="M234.11618,250.65753c18.28177,-4.74599 46.33184,-11.97337 58.03283,11.26482c5.05753,10.04427 -0.35736,42.36338 2.99506,55.27711c11.10854,42.79064 -4.01758,45.40636 -30.20129,52.2037c-6.41037,1.66415 -37.50943,-117.01076 -30.82661,-118.74563z"/></g></g><g fill="#2b2b2b" stroke="#2b2b2b" stroke-width="0"><path d="M238.16057,275.16392c6.84041,26.3496 4.97198,49.63479 -4.17329,52.00892c-9.14525,2.37413 -48.74581,-26.9757 -55.58622,-53.32532c-6.84041,-26.3496 14.92501,-42.74671 22.53732,-46.86571c8.37104,-4.52954 30.38178,21.8325 37.22219,48.1821z"/><path d="M250.99079,213.98811c8.65461,-0.10394 35.64751,3.63541 42.48793,29.98502c6.84041,26.3496 -13.4831,71.25586 -22.62835,73.62998c-9.14525,2.37413 -22.10419,-17.06185 -28.94461,-43.41144c-6.84041,-26.3496 -0.43219,-60.08925 9.08504,-60.20355z"/><path d="M238.29662,267.98845c-18.70987,4.85712 -43.03443,-26.47954 -44.52205,-32.2099c-1.48761,-5.73035 12.47377,-14.31319 31.18364,-19.1703c18.70987,-4.85713 35.08315,-4.14923 36.57076,1.58113c1.48761,5.73035 -4.52249,44.94196 -23.23236,49.79907z"/><path d="M284.09866,274.40812c6.14273,23.66209 -7.39016,47.64991 -30.22653,53.57829c-22.83638,5.92837 -46.32858,-8.44765 -52.47131,-32.10975c-6.14273,-23.66209 7.39016,-47.64991 30.22652,-53.57828c22.83638,-5.92837 46.3286,8.44764 52.47133,32.10974z"/></g><g fill="#323232" stroke="#2b2b2b" stroke-width="0"><g><g><path d="M263.54411,366.28433c-22.21047,5.76589 -34.46478,10.20534 -45.12557,-30.86054c-3.2173,-12.39321 -21.40355,-37.33938 -22.1074,-48.05608c-1.62839,-24.79395 22.14129,-31.0169 37.64889,-35.0427c5.66875,-1.47162 35.02171,112.54772 29.58409,113.95934z"/></g><g><path d="M234.46654,252.19352c15.50761,-4.02581 39.30273,-10.15079 49.9403,12.30437c4.59789,9.70582 0.8425,40.34806 4.05981,52.74127c10.66078,41.06588 -2.20556,43.14779 -24.41602,48.91367c-5.43763,1.41162 -35.25282,-112.48772 -29.58408,-113.95933z"/></g></g><g><path d="M238.58989,275.64931c6.5647,25.28753 5.59773,47.41966 -2.15978,49.43353c-7.75751,2.01386 -42.42299,-27.01974 -48.9877,-52.30727c-6.56469,-25.28753 11.60668,-40.31844 18.00578,-44.03612c7.0369,-4.08823 26.57699,21.6223 33.1417,46.90984z"/><path d="M247.90544,217.71748c7.39941,0.13555 30.58753,4.42945 37.15224,29.71698c6.5647,25.28753 -9.60073,67.51695 -17.35825,69.53082c-7.75752,2.01386 -19.36794,-16.85316 -25.93264,-42.14069c-6.56469,-25.28753 -1.99823,-57.25615 6.13866,-57.1071z"/><path d="M238.51178,268.81723c-15.87073,4.12008 -37.52465,-26.39225 -38.9523,-31.89164c-1.42765,-5.49938 10.28079,-13.29748 26.15152,-17.41756c15.87073,-4.12008 29.89385,-3.00193 31.3215,2.49744c1.42765,5.49938 -2.64999,42.69168 -18.52073,46.81176z"/><path d="M277.8599,276.17432c5.89514,22.70835 -5.0293,45.19372 -24.40038,50.2225c-19.37108,5.02878 -39.85339,-9.30335 -45.74852,-32.01168c-5.89514,-22.70835 5.02929,-45.19372 24.40037,-50.22249c19.37109,-5.02877 39.85341,9.30335 45.74854,32.01168z"/></g></g><path d="M246.16821,217.24413c0.74655,2.87576 -7.04123,9.17154 -17.93025,11.99835c-10.88902,2.82681 -20.75581,1.11418 -21.50236,-1.76157c-0.74655,-2.87576 7.47553,-7.49862 18.36455,-10.32542c10.88902,-2.82681 20.3215,-2.78711 21.06806,0.08864z" fill="#000000" stroke="#2b2b2b" stroke-width="0"/><path d="M253.54519,245.13011c-2.62737,-10.12075 -0.91345,-20.02249 -2.77184,-25.92745c-1.37002,-4.35322 -8.15989,-5.53321 -7.3098,-5.75389c10.50982,-2.72836 45.06497,0.26454 50.26187,20.28323c1.96184,7.5571 2.36893,31.77102 3.06892,51.99773c0.3755,10.85011 19.75116,42.36416 20.22999,53.21021c0.59368,13.44747 -26.02638,23.17665 -27.9499,23.676c-5.12458,1.33034 -14.12191,-56.03131 -20.36941,-71.4765c-6.56532,-16.23085 -12.49694,-35.75171 -15.15982,-46.00931z" fill="#770000" stroke="#2b2b2b" stroke-width="0"/><g stroke="#2b2b2b" stroke-width="0"><g><path d="M123.83762,479.90386c0.14878,-1.2121 1.25201,-2.07409 2.4641,-1.92532c1.2121,0.14878 2.07408,1.25199 1.9253,2.46409c-0.14878,1.2121 -1.252,2.07411 -2.46409,1.92533c-1.21209,-0.14878 -2.07409,-1.25201 -1.92531,-2.46411z" fill="#4e4e4e"/><path d="M125.4507,466.76227c0.14878,-1.2121 1.25199,-2.07408 2.46409,-1.9253c1.2121,0.14878 2.07409,1.25199 1.92531,2.46409c-0.14878,1.2121 -1.25199,2.07409 -2.46409,1.92532c-1.2121,-0.14878 -2.07409,-1.25201 -1.92531,-2.4641z" fill="#4e4e4e"/><path d="M132.98792,459.7025c-0.91841,7.4822 -2.91901,7.57544 -5.33634,7.27873c-2.41734,-0.29673 -4.33598,-0.87103 -3.41758,-8.35322c0.91841,-7.4822 2.95098,-7.83599 5.36831,-7.53927c2.41734,0.29673 4.30401,1.13158 3.38561,8.61377z" fill="#262626"/><path d="M125.9107,481.16422c-2.41732,-0.29672 -4.304,-1.13158 -3.3856,-8.61377c0.91841,-7.4822 2.66717,-5.52376 5.08449,-5.22704c2.41733,0.29672 4.58782,-1.18064 3.66942,6.30155c-0.91841,7.4822 -2.951,7.83598 -5.36831,7.53926z" fill="#262626"/></g><g><path d="M132.62418,482.398c0.14878,-1.2121 1.25199,-2.07409 2.46409,-1.92531c1.2121,0.14878 2.07409,1.252 1.92531,2.46409c-0.14878,1.2121 -1.252,2.07409 -2.4641,1.92531c-1.2121,-0.14878 -2.07408,-1.252 -1.9253,-2.46409z" fill="#4e4e4e"/><path d="M134.23725,469.25641c0.14878,-1.2121 1.25199,-2.07409 2.46409,-1.92532c1.2121,0.14878 2.07409,1.25201 1.92531,2.4641c-0.14878,1.2121 -1.25199,2.07408 -2.46409,1.9253c-1.2121,-0.14878 -2.07409,-1.25199 -1.92531,-2.46409z" fill="#4e4e4e"/><path d="M141.77449,462.19664c-0.91841,7.4822 -2.91901,7.57546 -5.33634,7.27875c-2.41733,-0.29672 -4.33599,-0.87104 -3.41758,-8.35324c0.91841,-7.4822 2.95101,-7.83599 5.36832,-7.53927c2.41733,0.29672 4.304,1.13158 3.3856,8.61377z" fill="#262626"/><path d="M134.69723,483.65837c-2.41733,-0.29672 -4.304,-1.13158 -3.3856,-8.61377c0.91841,-7.4822 2.66717,-5.52376 5.08449,-5.22704c2.41733,0.29672 4.58782,-1.18066 3.66941,6.30154c-0.91841,7.4822 -2.951,7.83599 -5.36831,7.53927z" fill="#262626"/></g><g><path d="M141.28373,485.03988c0.14878,-1.2121 1.25199,-2.07408 2.46409,-1.9253c1.2121,0.14878 2.07408,1.25199 1.9253,2.46409c-0.14878,1.2121 -1.25199,2.07409 -2.46409,1.92531c-1.2121,-0.14878 -2.07409,-1.25201 -1.92531,-2.4641z" fill="#4e4e4e"/><path d="M142.8968,471.89829c0.14878,-1.2121 1.252,-2.07409 2.46409,-1.92531c1.2121,0.14878 2.07409,1.25199 1.92531,2.46409c-0.14878,1.2121 -1.25199,2.07408 -2.46409,1.9253c-1.2121,-0.14878 -2.07409,-1.25199 -1.92531,-2.46409z" fill="#4e4e4e"/><path d="M150.43399,464.83853c-0.91841,7.4822 -2.91901,7.57546 -5.33634,7.27875c-2.41733,-0.29672 -4.33597,-0.87105 -3.41757,-8.35325c0.91841,-7.4822 2.95099,-7.83598 5.3683,-7.53927c2.41733,0.29672 4.304,1.13158 3.3856,8.61377z" fill="#262626"/><path d="M143.35675,486.30025c-2.41733,-0.29672 -4.304,-1.13158 -3.3856,-8.61377c0.91841,-7.4822 2.66717,-5.52377 5.08449,-5.22704c2.41733,0.29672 4.58782,-1.18065 3.66942,6.30154c-0.91841,7.4822 -2.951,7.83599 -5.36832,7.53927z" fill="#262626"/></g><g><path d="M150.59575,483.16835c0.14878,-1.2121 1.25199,-2.07409 2.46409,-1.92532c1.2121,0.14878 2.07409,1.252 1.92531,2.4641c-0.14878,1.2121 -1.252,2.07408 -2.4641,1.9253c-1.2121,-0.14878 -2.07408,-1.25198 -1.9253,-2.46409z" fill="#4e4e4e"/><path d="M152.20882,470.02676c0.14878,-1.2121 1.25199,-2.07409 2.46409,-1.92531c1.2121,0.14878 2.07409,1.252 1.92531,2.46409c-0.14878,1.2121 -1.25199,2.07409 -2.46409,1.92531c-1.2121,-0.14878 -2.07409,-1.25199 -1.92531,-2.46409z" fill="#4e4e4e"/><path d="M159.74606,462.967c-0.91841,7.4822 -2.91901,7.57546 -5.33634,7.27875c-2.41733,-0.29672 -4.33598,-0.87105 -3.41758,-8.35324c0.91841,-7.4822 2.951,-7.83599 5.36832,-7.53927c2.41733,0.29672 4.304,1.13158 3.3856,8.61377z" fill="#262626"/><path d="M152.66883,484.42872c-2.41733,-0.29672 -4.30401,-1.13158 -3.3856,-8.61379c0.91841,-7.4822 2.66717,-5.52376 5.08449,-5.22704c2.41733,0.29672 4.58782,-1.18066 3.66942,6.30154c-0.91841,7.4822 -2.951,7.836 -5.36831,7.53928z" fill="#262626"/></g><g><path d="M159.66952,439.01802c-0.80383,-1.02876 -0.62147,-2.5144 0.4073,-3.31824c1.02876,-0.80383 2.5144,-0.62147 3.31822,0.40731c0.80383,1.02876 0.62147,2.5144 -0.4073,3.31823c-1.02876,0.80383 -2.51438,0.62147 -3.31822,-0.4073z" fill="#4e4e4e"/><path d="M171.20512,453.78174c-0.80383,-1.02876 -0.62147,-2.51439 0.4073,-3.31822c1.02876,-0.80383 2.5144,-0.62147 3.31823,0.40729c0.80383,1.02876 0.62147,2.5144 -0.4073,3.31824c-1.02876,0.80383 -2.51439,0.62146 -3.31823,-0.4073z" fill="#4e4e4e"/><path d="M171.31588,442.42678c6.06087,7.75693 4.668,9.40256 2.61629,11.00566c-2.05171,1.60309 -3.98534,2.55661 -10.04621,-5.20032c-6.06087,-7.75693 -4.87902,-9.67264 -2.82731,-11.27573c2.05171,-1.60309 4.19637,-2.28653 10.25723,5.47039z" fill="#262626"/></g><path d="M147.32184,424.20564c2.32627,0.28554 7.62127,-0.28749 9.5782,1.11125c7.98995,5.71092 5.96097,22.13656 3.22547,32.89942c-2.1891,8.61307 -24.36098,8.50314 -33.26924,0.82271c-6.94127,-5.98457 5.32537,-33.00627 8.22655,-34.85178c3.20102,-2.03625 8.75511,-0.40922 12.23902,0.01842z" fill="#2b2b2b"/></g><g fill="#4e4e4e" stroke="#2b2b2b" stroke-width="0"><path d="M209.75986,226.40656l-5.13709,-19.78832l33.70975,-8.75113l5.13708,19.78832z"/><path d="M243.46957,217.65544c0.59028,2.27379 -6.10826,7.49803 -15.41694,9.91459c-9.30868,2.41656 -17.70255,1.11032 -18.29282,-1.16346c-0.59028,-2.27379 6.4774,-6.07604 15.78609,-8.49259c9.30868,-2.41656 17.3334,-2.5323 17.92368,-0.25853z"/><path d="M221.92584,203.96919c-9.30868,2.41656 -17.05555,3.60258 -17.30308,2.64907c-0.24754,-0.95353 7.09799,-3.68552 16.40667,-6.10207c9.30868,-2.41656 17.05555,-3.60258 17.30309,-2.64906c0.24754,0.95353 -7.09799,3.6855 -16.40668,6.10206z"/></g><g stroke="#000000" stroke-width="0"><path d="M159.01619,84.28152c0,0 16.66466,20.31496 35.83277,31.98234c14.19258,8.63883 33.59544,18.59451 31.84901,24.80955c-4.1051,14.60888 -31.5761,44.09081 -47.49653,45.11182c-6.31351,0.40489 -22.06746,-10.41505 -26.97324,-25.7643c-7.46487,-23.35603 6.78801,-76.1394 6.78801,-76.1394z" fill="#262626"/><path d="M161.11784,89.3455c0,0 15.01869,18.30848 32.29358,28.82346c12.7908,7.78557 30.35378,17.79619 28.77987,23.39737c-3.69962,13.16598 -28.45735,39.73597 -42.80532,40.65615c-5.68994,0.36491 -19.88785,-9.38635 -24.3091,-23.21958c-6.72756,-21.04917 6.04097,-69.6574 6.04097,-69.6574z" fill="#202020"/></g><g stroke="#000000" stroke-width="0"><path d="M293.55428,160.17746c-4.85288,15.36607 -20.56944,26.24022 -26.8843,25.85709c-15.92388,-0.96615 -43.49628,-30.35326 -47.65168,-44.94789c-1.76782,-6.20897 17.60061,-16.23146 31.76335,-24.91913c19.1278,-11.73333 35.72236,-32.10561 35.72236,-32.10561c0,0 14.43463,52.73395 7.05031,76.11558z" fill="#262626"/><path d="M290.70077,158.76927c-4.37358,13.84836 -18.53779,23.64848 -24.22896,23.30319c-14.35105,-0.87073 -39.20016,-27.35526 -42.94515,-40.5084c-1.59322,-5.59571 15.93522,-15.66679 28.6991,-23.49638c17.23857,-10.57443 32.19408,-28.93454 32.19408,-28.93454c0,0 12.93591,48.56394 6.28093,69.63616z" fill="#202020"/></g><g fill="#2b2b2b" stroke="#000000" stroke-width="0"><path d="M170.07096,163.36191c-0.05292,-30.71779 23.0274,-52.55251 52.30496,-52.60295c29.27756,-0.05044 53.04924,21.70359 53.10215,52.42138c0.05291,30.71779 -23.63832,55.66035 -52.91588,55.71079c-24.13868,0.04159 -55.39911,-24.06859 -55.10811,-48.18065c0.06469,-5.36126 2.62616,-1.95694 2.61687,-7.34856z"/><path d="M278.36398,170.51941c0.37407,24.11092 -30.80307,48.32865 -54.94177,48.37023c-29.27754,0.05043 -53.05459,-24.81036 -53.10751,-55.52814c-0.05292,-30.71779 23.64367,-52.55357 52.92123,-52.60401c29.27754,-0.05043 52.43296,21.70465 52.48587,52.42244c0.00929,5.39163 2.55902,1.9785 2.64219,7.3395z"/></g><path d="M172.97898,163.79335c-0.05093,-29.565 22.26413,-49.38502 49.83321,-49.43252c27.56905,-0.04749 49.9523,19.69552 50.00322,49.26053c0.05093,29.56501 -22.26412,49.38502 -49.83321,49.43252c-27.56905,0.04749 -49.9523,-19.69552 -50.00323,-49.26053z" fill="#323232" stroke="#000000" stroke-width="0"/><g fill="#2b2b2b" stroke="#000000" stroke-width="0"><path d="M179.81713,166.3695c-0.02175,-12.62769 11.07323,-24.57278 22.49609,-24.59245c11.42285,-0.01968 15.79301,12.50208 15.81475,25.12975c0.02175,12.62769 -5.94758,22.15082 -17.37044,22.1705c-11.42285,0.01968 -20.91864,-10.08011 -20.9404,-22.70779z"/><path d="M245.12403,189.00086c-11.42287,0.01968 -17.42498,-9.48283 -17.44673,-22.11051c-0.02175,-12.62769 4.30522,-25.16442 15.72809,-25.18409c11.42285,-0.01968 22.55893,11.88713 22.58067,24.51481c0.02175,12.62769 -9.43918,22.76013 -20.86203,22.7798z"/></g><path d="M179.81552,165.43633c-0.02093,-12.14778 11.07483,-23.63964 22.49769,-23.65931c2.77964,-0.0048 5.1416,0.70484 7.12488,1.95656c0.30199,0.19059 3.30938,-2.01671 3.30938,-2.01671c0,0 -1.17223,3.673 -0.6098,4.2834c4.20981,4.56883 5.97537,12.23904 5.98865,19.95042c0.02093,12.14778 -5.94904,21.30937 -17.3719,21.32905c-3.39057,0.00584 -6.6113,-0.84603 -9.46484,-2.3646c-0.67601,-0.35975 -3.56324,1.86317 -3.56324,1.86317c0,0 0.81764,-3.60649 0.44092,-3.90352c-5.04187,-3.97528 -8.33942,-10.28515 -8.35174,-17.43847z" fill="#000000" stroke="#000000" stroke-width="0"/><path d="M245.12084,187.20335c-11.42285,0.01968 -17.42436,-9.12131 -17.44528,-21.26907c-0.02093,-12.14778 4.30686,-24.20833 15.72973,-24.22802c11.42285,-0.01968 22.55815,11.43389 22.57908,23.58168c0.02093,12.14778 -9.44068,21.89575 -20.86354,21.91543z" fill="#000000" stroke="#000000" stroke-width="0"/><g fill="#000000" stroke="#000000" stroke-width="0"><path d="M223.50809,214.50091c-14.47287,0.02493 -29.54265,-8.77683 -38.79565,-16.23959c-6.79985,-5.48424 -7.52417,-17.31212 -7.52417,-17.31212c0,0 4.06733,9.44427 8.73444,11.20448c1.52273,0.57431 4.62515,2.20487 4.62515,2.20487c0,0 3.4474,-1.01961 5.35939,-1.02476c0.65105,-0.00175 2.13269,2.00727 2.13269,2.00727c0,0 2.11612,-1.51409 3.21637,-1.56079c6.5697,-0.27882 14.095,0.10405 22.21624,0.09005c6.23083,-0.01074 6.35838,20.6197 0.03554,20.63059z"/><path d="M222.46126,214.50272c-6.32284,0.01089 -6.26636,-20.61986 -0.03553,-20.6306c8.12122,-0.01399 15.64515,-0.42278 22.2158,-0.1666c1.10042,0.04291 3.22173,1.54968 3.22173,1.54968c0,0 1.47473,-2.01412 2.12576,-2.0146c1.91198,-0.00145 5.36288,1.00628 5.36288,1.00628c0,0 3.09678,-1.64124 4.61753,-2.22079c4.66104,-1.7763 8.69579,-11.2345 8.69579,-11.2345c0,0 -0.68356,11.83032 -7.46449,17.33794c-9.22725,7.4946 -24.26661,16.34823 -38.73947,16.37317z"/></g><path d="M204.4239,193.95608c0,0 -3.93553,3.58555 -5.22181,9.98996c-1.28627,6.40439 2.25409,9.76918 2.25409,9.76918c0,0 -8.02787,-4.69419 -12.60542,-10.72057c-3.4912,-4.59619 -3.83982,-10.79987 -3.79173,-11.37297c0.69324,0.53271 2.10991,1.48042 2.66429,1.1948c0,0 1.12523,1.01228 2.62861,1.32634c1.15887,0.24207 4.19684,-1.06801 5.46603,-0.67508c0.6886,0.21319 1.06512,0.6159 1.59947,0.98005c0.34779,0.23701 0.29086,0.82041 0.60476,0.87252c0.35714,0.05928 2.56096,-1.46001 2.94385,-1.4273c1.70304,0.14549 3.45783,0.06307 3.45783,0.06307z" fill="#ffffff" stroke="#ff0000" stroke-width="0"/><path d="M244.93205,193.81728c0.38278,-0.03405 2.59183,1.47766 2.94876,1.41715c0.3137,-0.05316 0.25478,-0.63639 0.60174,-0.87459c0.53309,-0.36599 0.90821,-0.77001 1.59608,-0.98556c1.26781,-0.39729 4.3103,0.90233 5.46833,0.65626c1.5023,-0.31923 2.62403,-1.33539 2.62403,-1.33539c0.55538,0.28371 1.96873,-0.66889 2.66016,-1.20399c0.05006,0.57291 -0.27716,6.77775 -3.75252,11.38598c-4.55676,6.04211 -12.56842,10.76394 -12.56842,10.76394c0,0 3.52875,-3.37697 2.22043,-9.7769c-1.30832,-6.39992 -5.2562,-9.97189 -5.2562,-9.97189c0,0 1.75505,0.07637 3.45759,-0.07499z" fill="#ffffff" stroke="#ff0000" stroke-width="0"/><g fill="none" stroke="#2b2b2b" stroke-width="0.5"><path d="M223.47298,214.50098l0,-0.00002c-14.47287,0.02493 -29.54266,-8.77684 -38.79566,-16.2396c-6.79985,-5.48424 -7.52417,-17.31212 -7.52417,-17.31212c0,0 4.06734,9.44426 8.73445,11.20447c1.52273,0.57431 4.62515,2.20487 4.62515,2.20487c0,0 3.4474,-1.0196 5.35939,-1.02475c0.65105,-0.00175 2.13269,2.00725 2.13269,2.00725c0,0 2.11613,-1.51407 3.21638,-1.56078c6.5697,-0.27882 14.095,0.10404 22.21624,0.09005"/><path d="M222.39062,193.8722c8.12122,-0.01399 15.64515,-0.42278 22.21579,-0.16659c1.10042,0.04291 3.22173,1.54968 3.22173,1.54968c0,0 1.47473,-2.01412 2.12576,-2.01461c1.91198,-0.00145 5.36288,1.00629 5.36288,1.00629c0,0 3.09679,-1.64124 4.61753,-2.22079c4.66104,-1.7763 8.69579,-11.23451 8.69579,-11.23451c0,0 -0.68356,11.83033 -7.46448,17.33795c-9.22725,7.4946 -24.26661,16.34823 -38.73947,16.37317l-0.00003,0.00001"/></g><path d="M199.20209,203.94604c-1.28627,6.40439 2.25409,9.76918 2.25409,9.76918c0,0 -8.02787,-4.69419 -12.60542,-10.72057c-1.15223,-1.51693 -1.96216,-3.20893 -2.52849,-4.81584c3.14584,0.55427 8.29306,1.00903 9.33007,1.09967c1.6293,0.14245 3.26035,0.29757 4.88974,0.44654c-0.54225,1.22704 -1.02206,2.63788 -1.34,4.22098z" fill="#ffffff" stroke="#ff0000" stroke-width="0"/><path d="M245.37607,199.64783c1.62886,-0.15457 3.25939,-0.31535 4.88818,-0.4634c1.0367,-0.09423 6.18233,-0.5667 9.32623,-1.1318c-0.56079,1.60884 -1.36488,3.30363 -2.51188,4.8245c-4.55676,6.04211 -12.56843,10.76394 -12.56843,10.76394c0,0 3.52874,-3.37698 2.22043,-9.77691c-0.32339,-1.58199 -0.80809,-2.99116 -1.35456,-4.21634z" fill="#ffffff" stroke="#ff0000" stroke-width="0"/><g stroke-width="0"><g stroke="#000000"><path d="M252.06836,119.20727c0.00333,1.93059 -6.28025,3.50647 -29.06775,3.54573c-22.7875,0.03925 -29.42464,-1.51436 -29.42797,-3.44495c-0.00333,-1.93059 6.62847,-3.50708 29.41593,-3.54633c22.7875,-0.03925 29.07647,1.51497 29.0798,3.44555z" fill="#252525"/><path d="M222.64044,115.76232c22.7875,-0.03925 29.42466,1.51436 29.42799,3.44495c0.00333,1.93059 -6.62848,3.50708 -29.41595,3.54634c-22.7875,0.03925 -29.07647,-1.51498 -29.0798,-3.44556c-0.00333,-1.93059 6.28026,-3.50646 29.06775,-3.54572z" fill="#222222"/></g><path d="M193.57277,119.3279l-0.01211,-7.03101l58.49575,-0.10077l0.01212,7.03101z" fill="#222222" stroke="#000000"/><g fill="#202020" stroke="#000000"><path d="M252.05628,112.19612c0.00333,1.93059 -6.28025,3.50647 -29.06775,3.54572c-22.7875,0.03925 -29.42465,-1.51436 -29.42798,-3.44495c-0.00333,-1.93059 6.62847,-3.50708 29.41593,-3.54633c22.7875,-0.03925 29.07648,1.51497 29.0798,3.44555z"/><path d="M222.62836,108.75119c22.78749,-0.03925 29.42466,1.51435 29.42799,3.44494c0.00333,1.93059 -6.62848,3.50707 -29.41595,3.54633c-22.7875,0.03925 -29.07648,-1.51497 -29.07981,-3.44555c-0.00333,-1.93059 6.28026,-3.50645 29.06776,-3.54571z"/></g><g fill="#222222" stroke="#000000"><path d="M243.10179,111.52809c0.00215,1.24873 -9.08224,2.27665 -20.29055,2.29596c-11.2083,0.01931 -20.29617,-0.97733 -20.29831,-2.22604c-0.00215,-1.24873 9.08222,-2.27667 20.29053,-2.29598c11.2083,-0.01931 20.2962,0.97733 20.29834,2.22606z"/><path d="M202.51293,111.59801c0,0 0.38218,-12.24819 -0.71723,-18.41501c-1.06958,-5.99954 -5.79215,-18.09792 -5.79215,-18.09792l26.54991,-0.04574l20.54837,36.48877z"/><path d="M202.51293,111.59801l20.42253,-36.55934l26.54991,-0.04574c0,0 -4.68087,12.11456 -5.72977,18.11776c-1.07814,6.17057 -0.65378,18.41739 -0.65378,18.41739z"/></g><path d="M249.48525,74.99293c0.0053,3.07377 -11.96273,5.58622 -26.73132,5.61166c-14.76859,0.02544 -26.7452,-2.44572 -26.75048,-5.51953c-0.0053,-3.07377 11.96273,-5.5862 26.73132,-5.61164c14.76859,-0.02544 26.7452,2.44571 26.75049,5.5195z" fill="#202020" stroke="#000000"/><g fill="#770000"><g><g stroke="#000000"><path d="M243.55555,112.33569c0.00138,0.80226 -9.28616,1.46864 -20.74432,1.48838c-11.45815,0.01974 -20.74796,-0.61462 -20.74934,-1.4169c-0.00137,-0.80226 9.28617,-1.46864 20.74433,-1.48838c11.45815,-0.01974 20.74795,0.61463 20.74932,1.4169z"/><path d="M202.06191,112.40716c0,0 0.39872,-7.8694 -0.72115,-11.83071c-1.08948,-3.85386 42.21483,11.75925 42.21483,11.75925z"/><path d="M202.06191,112.40716c0,0 43.25027,-15.76221 42.17409,-11.90462c-1.10621,3.96515 -0.68043,11.83315 -0.68043,11.83315z"/></g><path d="M222.7997,107.1275c-11.85622,0.02042 -20.29933,-6.56514 -20.30004,-6.98038c-0.00072,-0.41525 8.43357,1.04604 20.28979,1.02561c11.85622,-0.02042 11.86647,5.93434 0.01025,5.95476z" stroke="#2b2b2b"/></g><g><g stroke="#000000"><path d="M222.80623,110.91877c11.45816,-0.01974 20.74795,0.61463 20.74932,1.4169c0.00138,0.80226 -9.28618,1.46866 -20.74433,1.48838c-11.45816,0.01974 -20.74795,-0.61463 -20.74932,-1.4169c-0.00137,-0.80226 9.28618,-1.46866 20.74433,-1.48838z"/><path d="M202.06191,112.40716c0,0 43.25029,-15.76221 42.17409,-11.90462c-1.10621,3.96515 -0.68041,11.83313 -0.68041,11.83313z"/><path d="M202.06193,112.40717c0,0 0.39871,-7.86942 -0.72117,-11.83073c-1.08948,-3.85386 42.21483,11.75925 42.21483,11.75925z"/></g><path d="M222.78944,101.17273c11.85622,-0.02042 20.28544,-1.51076 20.28615,-1.09551c0.00072,0.41525 -8.41968,7.02987 -20.2759,7.05029c-11.85622,0.02042 -11.86647,-5.93434 -0.01025,-5.95476z" stroke="#2b2b2b"/></g></g></g><path d="M209.00652,228.40714l-0.62105,-2.3923l36.31953,-9.42862l0.62105,2.3923c0,0 -11.18275,7.54586 -17.16652,9.09925c-6.11969,1.58869 -19.15303,0.32937 -19.15303,0.32937z" fill="url(#color-1)" stroke="#2b2b2b" stroke-width="0"/><path d="M213.8547,255.43384c2.6629,10.2576 6.9757,30.19871 9.13447,47.5735c2.05428,16.53376 22.09511,71.02851 16.97054,72.35885c-1.92352,0.49935 -29.91459,4.94734 -35.93703,-7.09082c-4.85739,-9.70937 -3.25757,-46.6687 -8.20722,-56.33134c-9.22711,-18.01304 -20.64965,-39.36734 -22.61148,-46.92443c-5.19689,-20.0187 23.53895,-39.44207 34.04876,-42.17045c0.85008,-0.22068 -4.5084,4.11304 -3.58792,8.58296c1.24858,6.06327 7.56251,13.88097 10.18987,24.00171z" fill="#770000" stroke="#2b2b2b" stroke-width="0"/><path d="M244.74225,184.38328c-10.1946,0.01757 -15.55079,-8.14053 -15.56946,-18.98208c-0.01867,-10.84156 3.84377,-21.60531 14.03835,-21.62287c10.1946,-0.01757 20.13254,10.20446 20.15122,21.04601c0.01867,10.84156 -8.42553,19.54137 -18.62015,19.55893z" fill="#ffffff" stroke="#000000" stroke-width="0"/><path d="M201.1235,184.4584c-10.19462,0.01757 -18.66875,-8.6531 -18.68742,-19.49466c-0.01867,-10.84155 9.88399,-21.09774 20.07858,-21.1153c10.1946,-0.01757 14.0941,10.7328 14.11277,21.57438c0.01867,10.84155 -5.30937,19.01805 -15.50396,19.03561z" fill="#ffffff" stroke="#000000" stroke-width="0"/><g fill="#262626" stroke="#000000" stroke-width="0"><path d="M235.8967,183.06864c0.00608,3.5291 -5.79414,6.40001 -12.95513,6.41235c-7.161,0.01233 -12.97107,-2.83857 -12.97715,-6.36767c-0.00608,-3.5291 5.79414,-6.40002 12.95515,-6.41236c7.16101,-0.01233 12.97109,2.83857 12.97716,6.36768z"/><path d="M232.14194,185.80589c0.00402,2.3305 -4.1104,6.72031 -9.19513,6.72907c-5.08472,0.00876 -9.21424,-4.36687 -9.21826,-6.69734c-0.00402,-2.3305 4.1147,-4.22684 9.19942,-4.2356c5.08472,-0.00876 9.20995,1.87337 9.21396,4.20387z"/></g><path d="M459.08625,150.18749c3.38366,4.84956 2.19534,11.5239 -2.65424,14.90757c-4.84956,3.38366 -11.5239,2.19534 -14.90757,-2.65424c-3.38366,-4.84956 -2.19533,-11.52391 2.65423,-14.90758c4.84956,-3.38366 11.52389,-2.19533 14.90757,2.65424z" fill="#4e4e4e" stroke="#2b2b2b" stroke-width="0"/><path d="M446.6137,139.85317c0.34938,-4.38565 23.55738,-34.43777 34.48106,-30.17303c14.01916,5.47328 27.42116,30.47762 18.99313,38.11082c-10.53163,9.53844 -27.88928,21.6692 -39.13154,16.05482c-2.75352,-1.37509 -5.27647,-7.70541 -6.99243,-10.16478c-2.56989,-3.68323 -7.7357,-8.98898 -7.3502,-13.82784z" fill="#2b2b2b" stroke="#2b2b2b" stroke-width="0"/><path d="M459.08627,150.18749c3.38366,4.84956 2.19533,11.52391 -2.65424,14.90759c-4.84956,3.38366 -11.52389,2.19533 -14.90757,-2.65424c-3.38366,-4.84956 -2.19533,-11.52389 2.65425,-14.90756c4.84956,-3.38366 11.52391,-2.19533 14.90757,2.65423z" fill="#4e4e4e" stroke="#2b2b2b" stroke-width="0"/><path d="M375.187,208.72618c-7.40186,-10.60853 -22.65134,-12.75509 19.95061,-42.47957c42.60195,-29.72449 50.51983,-22.46247 57.92169,-11.85394c7.40186,10.60853 11.48473,20.54635 -31.11721,50.27084c-42.60193,29.72446 -39.35323,14.6712 -46.75508,4.06267z" fill="#2b2b2b" stroke="#2b2b2b" stroke-width="0"/><path d="M378.42631,209.31232c-7.40186,-10.60853 -22.65135,-12.75512 19.9506,-42.47961c42.60195,-29.72449 50.51984,-22.46244 57.92168,-11.85391c7.40186,10.60853 11.48473,20.54635 -31.11721,50.27084c-42.60195,29.72449 -39.35322,14.67122 -46.75507,4.06268z" fill="#2b2b2b" stroke="#2b2b2b" stroke-width="0"/><g><g fill="#1c1c1c" stroke="#000000" stroke-width="0"><path d="M443.81674,127.30593c-2.35508,-1.99967 -1.11954,-7.32433 2.75967,-11.893c3.87917,-4.56865 8.93309,-6.65124 11.28815,-4.65158c2.35508,1.99967 1.11954,7.32435 -2.75967,11.89302c-3.87917,4.56865 -8.93308,6.65123 -11.28816,4.65156z"/><g><path d="M457.59452,110.51125l50.58984,36.33679l-13.21508,15.56384l-47.32438,-40.18262z"/><path d="M453.47576,115.36203l47.3244,40.18262l-13.2151,15.56384l-44.05893,-44.02845z"/></g></g><g><path d="M489.42701,144.85773c2.2269,1.89085 2.49932,5.22895 0.6085,7.45583c-1.89083,2.2269 -5.22893,2.49933 -7.45582,0.6085c-2.2269,-1.89085 -2.49933,-5.22893 -0.6085,-7.45582c1.89083,-2.2269 5.22894,-2.49934 7.45583,-0.60851z" fill="#1a1a1a" stroke="#2b2b2b" stroke-width="0"/><path d="M488.9171,145.45828c1.89524,1.60921 2.12708,4.45017 0.51786,6.34541c-1.60922,1.89524 -4.45016,2.12709 -6.3454,0.51787c-1.89524,-1.60921 -2.12709,-4.45017 -0.51786,-6.34541c1.60922,-1.89524 4.45017,-2.12709 6.34541,-0.51788z" fill="#cba600" stroke="#2b2b2b" stroke-width="0"/><path d="M488.7714,145.62985c1.80048,1.52876 2.02074,4.22766 0.49197,6.02814c-1.52877,1.80048 -4.22766,2.02074 -6.02813,0.49199c-1.80048,-1.52876 -2.02073,-4.22766 -0.49197,-6.02814c1.52877,-1.80048 4.22766,-2.02074 6.02813,-0.49199z" fill="#ddb400" stroke="#2b2b2b" stroke-width="0"/><text transform="translate(485.28859,145.19442) rotate(130.33353) scale(0.20088,0.20088)" font-size="40" xml:space="preserve" fill="#cda800" stroke="none" stroke-width="1" font-family="&quot;I KNOW A GHOST&quot;, Handwriting" font-weight="normal" text-anchor="start"><tspan x="0" dy="0">T</tspan></text></g><g stroke="#000000" stroke-width="0"><path d="M505.76583,141.57353l5.8905,5.00156l-23.77759,28.00366l-5.89051,-5.00157z" fill="#212121"/><path d="M481.98821,169.5772c-1.26061,-1.07037 3.04023,-8.20694 9.60622,-15.93992c6.56602,-7.733 12.91074,-13.1341 14.17137,-12.06374c1.26061,1.07037 -3.04022,8.20694 -9.60622,15.93995c-6.56602,7.733 -12.91075,13.13409 -14.17137,12.06371z" fill="#212121"/><path d="M487.87871,174.57878c-1.26062,-1.07038 3.04023,-8.20694 9.60622,-15.93992c6.56602,-7.733 12.91074,-13.1341 14.17137,-12.06374c1.26062,1.07038 -3.04023,8.20694 -9.60624,15.93994c-6.56602,7.733 -12.91074,13.13409 -14.17136,12.06371z" fill="#1c1c1c"/></g><g stroke="#000000" stroke-width="0"><g><path d="M525.50759,155.6237c8.60344,7.3051 9.65596,20.20152 2.35087,28.80497c-7.3051,8.60344 -20.20151,9.65597 -28.80495,2.35088c-8.60344,-7.3051 -7.96731,-18.76768 -0.66221,-27.37112c7.3051,-8.60344 18.51287,-11.08981 27.11629,-3.78472z" fill="#727272"/><path d="M523.90169,159.05521c7.34441,6.23606 8.24289,17.2452 2.00685,24.58958c-6.23606,7.34441 -17.24521,8.24289 -24.5896,2.00684c-7.34441,-6.23605 -8.24289,-17.24521 -2.00683,-24.58959c6.23606,-7.34439 17.24519,-8.24288 24.58958,-2.00684z" fill="#6c6c6c"/></g><g fill="#7e7e7e"><path d="M524.11512,153.76328l2.07987,1.76599l-27.12318,31.94386l-2.07988,-1.76599z"/><path d="M496.99193,185.70713c-0.44511,-0.37793 5.26578,-7.83518 12.75565,-16.65625c7.48988,-8.82107 13.92243,-15.66556 14.36756,-15.28762c0.44511,0.37793 -5.26576,7.8352 -12.75564,16.65627c-7.48988,8.82107 -13.92243,15.66556 -14.36756,15.2876z"/><path d="M499.07178,187.47311c-0.44511,-0.37793 5.26577,-7.8352 12.75565,-16.65627c7.48988,-8.82107 13.92243,-15.66556 14.36756,-15.28762c0.44511,0.37793 -5.92501,7.27546 -13.41488,16.09652c-7.48988,8.82107 -13.26319,16.22531 -13.70831,15.84735z"/></g></g></g><g stroke="#2b2b2b" stroke-width="0"><path d="M483.4571,105.50401c1.34211,0.80015 1.78144,2.53682 0.98129,3.87894c-0.80015,1.34211 -2.53681,1.78145 -3.87891,0.98131c-1.34211,-0.80015 -1.78145,-2.53681 -0.98131,-3.87891c0.80015,-1.34211 2.53681,-1.78148 3.87893,-0.98133z" fill="#4e4e4e"/><path d="M474.78183,120.05522c1.34211,0.80015 1.78144,2.53681 0.98129,3.87891c-0.80015,1.34211 -2.53681,1.78145 -3.87891,0.98131c-1.34211,-0.80015 -1.78144,-2.53681 -0.98129,-3.87891c0.80015,-1.34211 2.5368,-1.78147 3.87891,-0.98131z" fill="#4e4e4e"/><path d="M462.80848,140.13837c-2.67661,-1.59577 -4.45411,-3.54748 0.48518,-11.83223c4.9393,-8.28477 7.32945,-7.36072 10.00608,-5.76495c2.67661,1.59577 4.62609,3.259 -0.3132,11.54376c-4.9393,8.28478 -7.50144,7.64919 -10.17806,6.05344z" fill="#262626"/><path d="M482.17736,118.66911c-4.9393,8.28478 -5.97507,5.08895 -8.65169,3.49319c-2.67662,-1.59576 -5.9805,-0.98724 -1.04122,-9.27199c4.9393,-8.28477 7.50146,-7.64919 10.17806,-6.05344c2.67662,1.59576 4.45412,3.54747 -0.48517,11.83223z" fill="#262626"/></g><g stroke="#2b2b2b" stroke-width="0"><path d="M494.29634,109.87317c1.34211,0.80015 1.78144,2.53681 0.98129,3.87891c-0.80015,1.34211 -2.53681,1.78145 -3.87891,0.98131c-1.34211,-0.80015 -1.78145,-2.53681 -0.98131,-3.87891c0.80015,-1.34211 2.53681,-1.78148 3.87893,-0.98131z" fill="#4e4e4e"/><path d="M485.62106,124.42436c1.34211,0.80015 1.78145,2.53681 0.98131,3.87891c-0.80015,1.34211 -2.53681,1.78145 -3.87891,0.98131c-1.34211,-0.80015 -1.78145,-2.53681 -0.98131,-3.87891c0.80015,-1.34211 2.53681,-1.78145 3.87891,-0.98131z" fill="#4e4e4e"/><path d="M473.64771,144.50751c-2.67662,-1.59576 -4.45409,-3.54748 0.48519,-11.83223c4.9393,-8.28477 7.32946,-7.36073 10.00608,-5.76497c2.67662,1.59576 4.6261,3.25899 -0.31319,11.54377c-4.9393,8.28478 -7.50146,7.6492 -10.17807,6.05343z" fill="#262626"/><path d="M493.01655,123.03824c-4.9393,8.28478 -5.97506,5.08895 -8.65168,3.49319c-2.67662,-1.59576 -5.9805,-0.98721 -1.0412,-9.27199c4.9393,-8.28477 7.50144,-7.64919 10.17806,-6.05344c2.67662,1.59576 4.45412,3.54749 -0.48518,11.83223z" fill="#262626"/></g><g stroke="#2b2b2b" stroke-width="0"><path d="M497.81431,121.74378c1.39127,0.71123 1.94255,2.41568 1.23133,3.80695c-0.71123,1.39127 -2.41567,1.94254 -3.80695,1.23131c-1.39127,-0.71123 -1.94254,-2.41567 -1.23131,-3.80694c0.71123,-1.39127 2.41566,-1.94257 3.80694,-1.23133z" fill="#4e4e4e"/><path d="M490.10306,136.82805c1.39127,0.71123 1.94256,2.41567 1.23133,3.80694c-0.71123,1.39127 -2.41567,1.94256 -3.80695,1.23133c-1.39127,-0.71123 -1.94254,-2.41567 -1.23131,-3.80694c0.71123,-1.39127 2.41567,-1.94256 3.80694,-1.23133z" fill="#4e4e4e"/><path d="M479.46025,157.64688c-2.77467,-1.41843 -4.67526,-3.2505 -0.28485,-11.83875c4.39042,-8.58826 6.8356,-7.82152 9.61027,-6.40308c2.77467,1.41843 4.82811,2.95147 0.4377,11.53972c-4.39043,8.58827 -6.98847,8.12054 -9.76312,6.70212z" fill="#262626"/><path d="M497.39272,134.96417c-4.39043,8.58827 -5.6317,5.46651 -8.40636,4.04809c-2.77467,-1.41843 -6.03202,-0.59648 -1.64161,-9.18472c4.39042,-8.58826 6.98847,-8.12054 9.76314,-6.70212c2.77467,1.41843 4.67524,3.25051 0.28483,11.83875z" fill="#262626"/></g><g stroke="#2b2b2b" stroke-width="0"><path d="M506.3418,130.4028c1.39127,0.71123 1.94257,2.41566 1.23133,3.80694c-0.71123,1.39127 -2.41567,1.94256 -3.80694,1.23133c-1.39127,-0.71123 -1.94256,-2.41567 -1.23133,-3.80694c0.71123,-1.39127 2.41567,-1.94256 3.80694,-1.23133z" fill="#4e4e4e"/><path d="M498.63056,145.48707c1.39127,0.71123 1.94254,2.41567 1.23131,3.80694c-0.71123,1.39127 -2.41567,1.94254 -3.80694,1.23131c-1.39127,-0.71123 -1.94254,-2.41567 -1.23131,-3.80694c0.71123,-1.39127 2.41567,-1.94254 3.80694,-1.23131z" fill="#4e4e4e"/><path d="M487.98775,166.30589c-2.77467,-1.41843 -4.67524,-3.25051 -0.28483,-11.83875c4.39042,-8.58826 6.8356,-7.82152 9.61025,-6.40309c2.77467,1.41843 4.82811,2.95147 0.4377,11.53972c-4.39043,8.58827 -6.98847,8.12054 -9.76312,6.70212z" fill="#262626"/><path d="M505.92033,143.62326c-4.39043,8.58827 -5.6317,5.46651 -8.40636,4.04809c-2.77467,-1.41843 -6.03202,-0.59648 -1.64161,-9.18472c4.39042,-8.58826 6.98848,-8.12057 9.76315,-6.70213c2.77467,1.41843 4.67523,3.2505 0.28482,11.83877z" fill="#262626"/></g><g stroke="#2b2b2b" stroke-width="0"><path d="M450.73107,133.55004c-1.50311,0.72883 -3.31245,0.10117 -4.04131,-1.40193c-0.72883,-1.50311 -0.10119,-3.31247 1.40192,-4.0413c1.50311,-0.72883 3.31247,-0.10116 4.0413,1.40197c0.72883,1.50311 0.10116,3.31245 -1.40195,4.04128z" fill="#4e4e4e"/><path d="M461.19046,155.12093c-1.50311,0.72883 -3.31246,0.10118 -4.04132,-1.40193c-0.72883,-1.50311 -0.10116,-3.31247 1.40195,-4.0413c1.50311,-0.72883 3.31245,-0.10117 4.04129,1.40196c0.72883,1.50311 0.10117,3.31245 -1.40193,4.04129z" fill="#4e4e4e"/><path d="M448.98191,129.94283c2.9977,-1.45355 5.86432,-1.73164 11.35973,9.60177c5.49541,11.33342 3.31048,13.01736 0.31277,14.47091c-2.9977,1.45355 -5.67298,2.12627 -11.1684,-9.20716c-5.49541,-11.33342 -3.5018,-13.41198 -0.50409,-14.86552z" fill="#262626"/></g></g></g></svg>