<svg version="1.1" xmlns="http://www.w3.org/2000/svg" xmlns:xlink="http://www.w3.org/1999/xlink" width="794.29429" height="444.44444" viewBox="0,0,794.29429,444.44444"><defs><radialGradient cx="360" cy="180" r="362.61261" gradientUnits="userSpaceOnUse" id="color-1"><stop offset="0" stop-color="#000000" stop-opacity="0.83922"/><stop offset="1" stop-color="#000000" stop-opacity="0"/></radialGradient><radialGradient cx="360" cy="180" r="362.61262" gradientUnits="userSpaceOnUse" id="color-2"><stop offset="0" stop-color="#000000" stop-opacity="0"/><stop offset="1" stop-color="#000000"/></radialGradient><linearGradient x1="-6.28154" y1="181.05806" x2="47.14781" y2="181.05806" gradientUnits="userSpaceOnUse" id="color-3"><stop offset="0" stop-color="#000000"/><stop offset="1" stop-color="#000000" stop-opacity="0"/></linearGradient><linearGradient x1="727.11712" y1="177.81481" x2="673.56662" y2="177.81481" gradientUnits="userSpaceOnUse" id="color-4"><stop offset="0" stop-color="#000000"/><stop offset="1" stop-color="#000000" stop-opacity="0"/></linearGradient><linearGradient x1="360.25526" y1="-17.14014" x2="360.25526" y2="43.74453" gradientUnits="userSpaceOnUse" id="color-5"><stop offset="0" stop-color="#000000"/><stop offset="1" stop-color="#000000" stop-opacity="0"/></linearGradient><linearGradient x1="359.24925" y1="377.38043" x2="359.24925" y2="262.28689" gradientUnits="userSpaceOnUse" id="color-6"><stop offset="0" stop-color="#000000"/><stop offset="1" stop-color="#000000" stop-opacity="0"/></linearGradient></defs><g transform="translate(35.53716,46.45296)"><g stroke-miterlimit="10"><path d="M-17.28754,145.81481v-160.3741h746v160.3741z" fill="#323232" stroke="#000000" stroke-width="0"/><path d="M-16.70045,352.81482v-160.3741h746v160.3741z" fill="#323232" stroke="#000000" stroke-width="0"/><path d="M242.21246,236.81482v-128h227v128z" fill="#383838" stroke="#000000" stroke-width="0"/><path d="M-4.28754,352.81482v-360l295,116l1,128.5z" fill="#505050" stroke="none" stroke-width="0"/><path d="M715.71246,-7.18518v360l-295,-116l-1,-128.5z" fill="#505050" stroke="none" stroke-width="0"/><path d="M316.54579,236.81482v-115.09353h78.33333v115.09353z" fill="#000000" stroke="#808080" stroke-width="1.875"/><text transform="translate(340.16956,118.81359) scale(0.24554,0.24554)" font-size="40" xml:space="preserve" fill="#000000" stroke="#000000" stroke-width="2" font-family="&quot;Agency FB&quot;, Sans Serif" font-weight="normal" text-anchor="start"><tspan x="0" dy="0">AOE Room</tspan></text><path d="M595.85639,307.55394l-97.03387,-38.15569l2.46128,-193.39409l97.20197,-37.92847z" fill="#000000" stroke="#808080" stroke-width="7.5"/><path d="M109.82252,38.07567l97.20197,37.92847l2.46128,193.39409l-97.03387,38.15569z" fill="#000000" stroke="#808080" stroke-width="7.5"/><text transform="translate(29.23293,65.04354) rotate(17.60703) scale(0.45116,0.80888) skewX(26.88793)" font-size="40" xml:space="preserve" fill="#000000" stroke="#000000" stroke-width="2" font-family="&quot;Agency FB&quot;, Sans Serif" font-weight="normal" text-anchor="start"><tspan x="0" dy="0">PowerRoom</tspan></text><text transform="translate(609.42485,78.35181) rotate(-27.96801) scale(0.62697,0.6459) skewX(-35.62602)" font-size="40" xml:space="preserve" fill="#000000" stroke="#000000" stroke-width="2" font-family="&quot;Agency FB&quot;, Sans Serif" font-weight="normal" text-anchor="start"><tspan x="0" dy="0">Supervision</tspan><tspan x="0" dy="46.15px">Room</tspan></text><g><path d="M328.93721,236.81482v-115.09353h53.5505v115.09353z" fill="#090c13" stroke="#808080" stroke-width="1.875"/><path d="M363.92391,188.43472v-18.33333h18.33333v18.33333z" fill="#505050" stroke="#808080" stroke-width="1.875"/><g fill="#000000" stroke="none" stroke-width="0"><path d="M371.21558,177.46805c0,-2.07107 0.83947,-3.75 1.875,-3.75c1.03553,0 1.875,1.67893 1.875,3.75c0,2.07107 -0.83947,3.75 -1.875,3.75c-1.03553,0 -1.875,-1.67893 -1.875,-3.75z"/><path d="M371.21558,184.81805l1.875,-7.5l1.875,7.5z"/></g></g><g><path d="M135.23525,46.16057l49.21444,21.03483l4.2149,210.39015l-51.88482,20.40216z" fill="#090c13" stroke="#808080" stroke-width="7.5"/><path d="M161.94992,160.51482l23.29419,2.50532l0.57132,25.0582l-23.13445,2.42997z" fill="#505050" stroke="#808080" stroke-width="7.5"/><g fill="#000000" stroke="none" stroke-width="0"><path d="M172.00768,173.71156c0,-2.07107 0.83946,-3.75 1.875,-3.75c1.03554,0 1.875,1.67893 1.875,3.75c0,2.07107 -0.83946,3.75 -1.875,3.75c-1.03554,0 -1.875,-1.67893 -1.875,-3.75z"/><path d="M172.00768,181.06156l1.875,-7.5l1.875,7.5z"/></g></g><g><path d="M573.82429,298.72838l-51.88481,-20.40216l4.2149,-210.39015l49.21444,-21.03483z" fill="#090c13" stroke="#808080" stroke-width="7.5"/><path d="M547.92309,191.24898l-23.13445,-2.42996l0.57132,-25.0582l23.29418,-2.50532z" fill="#505050" stroke="#808080" stroke-width="7.5"/><g fill="#000000" stroke="none" stroke-width="0"><path d="M536.7214,178.20224c-1.03553,0 -1.875,-1.67893 -1.875,-3.75c0,-2.07107 0.83947,-3.75 1.875,-3.75c1.03553,0 1.875,1.67893 1.875,3.75c0,2.07107 -0.83947,3.75 -1.875,3.75z"/><path d="M534.8464,181.80224l1.875,-7.5l1.875,7.5z"/></g></g><g stroke="#000000" stroke-width="0"><path d="M-2.61261,366.1862v-372.37237h725.22523v372.37237z" fill="url(#color-1)"/><path d="M-2.61262,366.1862v-372.37237h725.22523v372.37237z" fill="url(#color-2)"/></g><path d="M-6.28154,376.25325v-390.39039h53.42935v390.39039z" fill="url(#color-3)" stroke="none" stroke-width="0"/><path d="M673.56662,373.01v-390.39039h53.5505v390.39039z" fill="url(#color-4)" stroke="none" stroke-width="0"/><path d="M-18.12312,43.74453v-60.88467h756.75676v60.88467z" fill="url(#color-5)" stroke="none" stroke-width="0"/><path d="M737.62763,262.28689v115.09353h-756.75676v-115.09353z" fill="url(#color-6)" stroke="none" stroke-width="0"/><path d="M725.7241,391.98548v-438.43844h33.03303v438.43844z" fill="#000000" stroke="none" stroke-width="0"/><path d="M-35.53716,397.99148v-436.93694h33.03303v436.93694z" fill="#000000" stroke="none" stroke-width="0"/></g></g></svg>