<svg version="1.1" xmlns="http://www.w3.org/2000/svg" xmlns:xlink="http://www.w3.org/1999/xlink" width="758.25827" height="394.76081" viewBox="0,0,758.25827,394.76081"><defs><radialGradient cx="360" cy="211.66417" r="177" gradientUnits="userSpaceOnUse" id="color-1"><stop offset="0" stop-color="#475656" stop-opacity="0.21176"/><stop offset="1" stop-color="#5b6f6f" stop-opacity="0.18824"/></radialGradient><radialGradient cx="360" cy="211.66417" r="178.5" gradientUnits="userSpaceOnUse" id="color-2"><stop offset="0" stop-color="#e6e6e6"/><stop offset="1" stop-color="#808080"/></radialGradient><radialGradient cx="283.5" cy="150.41601" r="110.5" gradientUnits="userSpaceOnUse" id="color-3"><stop offset="0" stop-color="#ffffff" stop-opacity="0.04314"/><stop offset="1" stop-color="#ffffff" stop-opacity="0"/></radialGradient><radialGradient cx="436.5" cy="275.22334" r="110.5" gradientUnits="userSpaceOnUse" id="color-4"><stop offset="0" stop-color="#000000" stop-opacity="0.24314"/><stop offset="1" stop-color="#000000" stop-opacity="0"/></radialGradient><linearGradient x1="-16.79206" y1="181.05809" x2="144.03904" y2="181.05809" gradientUnits="userSpaceOnUse" id="color-5"><stop offset="0" stop-color="#000000"/><stop offset="1" stop-color="#000000" stop-opacity="0"/></linearGradient><linearGradient x1="739.12915" y1="177.81484" x2="578.29806" y2="177.81484" gradientUnits="userSpaceOnUse" id="color-6"><stop offset="0" stop-color="#000000"/><stop offset="1" stop-color="#000000" stop-opacity="0"/></linearGradient><linearGradient x1="360.25527" y1="-17.14013" x2="360.25527" y2="110.48752" gradientUnits="userSpaceOnUse" id="color-7"><stop offset="0" stop-color="#000000"/><stop offset="1" stop-color="#000000" stop-opacity="0"/></linearGradient><linearGradient x1="359.24927" y1="377.38046" x2="359.24927" y2="249.75283" gradientUnits="userSpaceOnUse" id="color-8"><stop offset="0" stop-color="#000000"/><stop offset="1" stop-color="#000000" stop-opacity="0"/></linearGradient></defs><g transform="translate(19.12912,17.38037)"><g stroke-miterlimit="10"><g><path d="M-14.5,364.20665v-365.17696h749v365.17696z" fill="#303030" stroke="#000000" stroke-width="0" stroke-linecap="butt"/><path d="M95.00666,111.58711c-0.24991,0.00616 -0.25657,-0.22488 -0.25657,-0.22488l-0.008,-0.27734c-0.05376,-1.86433 -0.16959,-2.58555 -1.55535,-3.94986c-1.9144,-1.88477 -1.33664,-3.639 -1.45238,-6.11858c-0.03382,-0.72451 0.10723,-2.47551 -0.54609,-2.85437c-0.7569,-0.49872 -1.88323,-0.99788 -2.48745,-1.64716c-0.30788,-0.33085 -0.47549,-1.39254 -0.8459,-1.60287c-0.6874,-0.39034 -2.23695,0.38526 -2.994,-0.01873c-0.51762,-0.27622 -1.02879,-1.53948 -1.32802,-2.02469c-1.38777,-0.73851 -3.07744,-2.16192 -4.60777,-2.55324c-1.39081,-0.35565 -3.47913,0.00837 -4.93335,0.00837c-1.66564,0 -4.35802,-0.48823 -5.92088,-0.0062c-1.16331,0.3588 -2.53919,1.76964 -3.53356,2.45691c-0.81647,0.53877 -4.66727,0.7124 -5.65559,0.2873c-1.16929,-0.50295 -2.4762,-2.66532 -3.32001,-3.58475c-2.32005,-2.52796 -4.1977,-5.10418 -6.07292,-7.92809c-1.88547,-2.83934 -3.01716,-5.75484 -4.24826,-8.88023c-1.19782,-3.04093 -2.46516,-6.04793 -3.76502,-9.05276c-0.20019,-0.46277 -0.47192,-1.74681 -0.85978,-2.05702c-2.2739,-1.81866 -5.09958,-0.56367 -6.17531,1.42655c-1.56426,2.89406 -3.13157,5.78652 -4.67398,8.69059c-1.53816,2.89608 -3.06587,5.79717 -4.61623,8.68769c-0.52004,2.25113 -1.05729,4.49897 -1.58682,6.74821c-0.21238,0.90209 -0.23045,2.07896 -1.01679,2.67561c-1.70933,1.23088 -3.41868,2.46175 -5.12801,3.69262c-0.32843,0.2365 -1.33479,1.20541 -1.74514,1.18462c-0.56151,-0.02843 -0.93074,-0.65112 -1.71146,-0.67604c-0.14395,-0.00459 -1.05724,-0.02406 -1.13358,-0.07317c-0.56155,-0.36127 -0.96415,-2.07475 -1.2274,-2.66783c-0.85326,-1.9223 -1.96114,-3.39504 -3.29331,-5.06483c-2.01463,-2.52522 -3.19116,-5.90186 -4.62192,-8.74887c-1.51118,-3.00705 -2.94264,-5.82759 -3.82217,-9.04701c-0.85707,-3.13723 -1.71414,-6.27446 -2.57121,-9.41168c-0.72501,-2.65385 -1.69257,-5.32699 -4.40426,-6.58046c0,0 -0.22361,-0.10336 -0.1118,-0.31009c0.11181,-0.20672 0.33541,-0.10336 0.33541,-0.10336c2.85529,1.31985 3.90406,4.09385 4.66542,6.88071c0.85707,3.13723 1.71415,6.27446 2.57122,9.41169c0.87182,3.19119 2.29259,5.98409 3.79085,8.96543c1.4158,2.81727 2.57765,6.1709 4.57086,8.66926c1.46616,1.83774 2.60426,3.47577 3.54332,5.59137c0.47672,1.07399 0.4551,1.98631 1.72584,2.02686c0.70192,0.0224 1.36583,0.65845 1.72155,0.67646c0.26418,0.01338 1.53148,-1.17483 1.80502,-1.3718c1.57785,-1.13619 3.15569,-2.27238 4.73354,-3.40857c0.65352,-0.4366 0.66541,-1.68683 0.83548,-2.40923c0.53381,-2.26743 1.06096,-4.53632 1.60323,-6.80204c1.53616,-2.91772 3.09251,-5.82649 4.63956,-8.73929c1.54292,-2.90504 3.11074,-5.79846 4.67553,-8.69349c1.20652,-2.23218 4.46305,-3.55834 6.9497,-1.56951c0.47875,0.38291 0.75941,1.68597 0.9969,2.23496c1.30179,3.00928 2.57099,6.02079 3.77059,9.06623c1.21986,3.09688 2.33679,5.9839 4.20455,8.79657c1.86251,2.80476 3.72393,5.36026 6.02807,7.87089c0.78279,0.85294 2.08295,3.00587 3.14968,3.4647c0.61889,0.2662 2.18963,-0.0136 2.89546,-0.01115c0.72601,0.00251 1.67348,0.19685 2.24982,-0.22726c1.04541,-0.72254 2.44398,-2.14558 3.67472,-2.52517c1.63177,-0.50329 4.34854,-0.01756 6.07911,-0.01756c1.50601,0 3.62159,-0.36116 5.06664,0.00837c1.59269,0.40727 3.41754,1.86677 4.82876,2.67259c0.2698,0.40757 0.80302,1.72604 1.22369,1.95053c0.7268,0.38785 2.25135,-0.40318 3.00573,0.02519c0.50575,0.28719 0.58382,1.28756 0.96324,1.69527c0.57378,0.61658 1.6776,1.09714 2.39861,1.57221c0.82066,0.58599 0.63291,1.81629 0.71425,2.74134c0.21771,2.47612 -0.53946,4.423 1.35853,6.29162c1.45854,1.43597 1.63444,2.30357 1.69069,4.25397l0.00799,0.27735c0,0 0.00666,0.23104 -0.24325,0.2372z" fill="#000000" stroke="none" stroke-width="0.5" stroke-linecap="butt"/><path d="M75,308.04314c0.25,0 0.25,0.23112 0.25,0.23112v0.01785c0,2.6049 0.88648,6.66978 -1.16429,8.53272c-1.2037,1.09347 -4.13571,2.57097 -4.88914,3.84c-0.71086,1.19734 0.23683,2.31803 -0.97122,3.48016c-1.27102,1.22271 -3.16737,2.52249 -4.12486,3.9605c-0.79644,1.19613 -0.95501,2.56588 -1.87803,3.75735c-2.27645,2.93854 -2.97245,5.15546 -2.97245,8.76887c0,3.23575 0,6.47149 0,9.70724c0,3.23575 0,6.47149 0,9.70724c0,2.7735 0,5.54699 0,8.32049c0,0 0,0.23112 -0.25,0.23112c-0.25,0 -0.25,-0.23112 -0.25,-0.23112c0,-2.7735 0,-5.54699 0,-8.32049c0,-3.23575 0,-6.47149 0,-9.70724c0,-3.23575 0,-6.47149 0,-9.70724c0,-3.69803 0.73632,-6.03085 3.06596,-9.03802c0.91519,-1.18135 1.06488,-2.53826 1.85874,-3.73052c0.97933,-1.47079 2.89184,-2.78952 4.19014,-4.03847c1.10675,-1.06468 0.20238,-2.21835 0.89342,-3.38229c0.79488,-1.33884 3.7258,-2.81068 4.97701,-3.94729c1.89809,-1.72425 1.01474,-5.76115 1.01474,-8.20301v-0.01785c0,0 0,-0.23112 0.25,-0.23112z" fill="#000000" stroke="none" stroke-width="0.5" stroke-linecap="butt"/><path d="M48.99967,320.06164c0.25,-0.00031 0.25033,0.23081 0.25033,0.23081l0.00027,0.18836c0.00183,1.26902 -0.53379,4.32007 0.29413,5.39044c0.61612,0.79655 2.62914,1.65109 3.51105,2.46641c0.52698,0.48718 1.36856,1.65384 2.04021,1.91105c1.3897,0.53217 4.36962,-0.01759 5.90433,-0.01759c0,0 0.25,0 0.25,0.23112c0,0.23112 -0.25,0.23112 -0.25,0.23112c-1.61879,0 -4.61496,0.54943 -6.09567,-0.01759c-0.75659,-0.28973 -1.61888,-1.47177 -2.20243,-2.01127c-0.90807,-0.83951 -2.90921,-1.67759 -3.56421,-2.52439c-0.92328,-1.19365 -0.38539,-4.25862 -0.38742,-5.6587l-0.00027,-0.18835c0,0 -0.00033,-0.23112 0.24967,-0.23144z" fill="#000000" stroke="none" stroke-width="0.5" stroke-linecap="butt"/><path d="M85.11023,337.14119c-0.22439,0.10191 -0.33461,-0.10555 -0.33461,-0.10555l-0.1551,-0.2919c-0.27853,-0.52421 -0.72554,-2.13809 -1.1358,-2.46324c-0.85223,-0.67545 -2.656,-0.30373 -2.73531,-1.82091c-0.0019,-2.48869 0.02218,-4.40732 -0.98024,-6.55576c-0.51758,-1.10932 0.54669,-1.57745 -0.88527,-1.99929c-1.06609,-0.31405 -2.38458,-0.48309 -3.3875,-0.90529c-1.64976,-0.6945 -2.59835,-2.47536 -4.4964,-2.47536c0,0 -0.25,0 -0.25,-0.23112c0,-0.23112 0.25,-0.23112 0.25,-0.23112c2.06768,0 2.94526,1.77671 4.7036,2.51693c0.98159,0.41322 2.28595,0.57736 3.3321,0.88554c1.75199,0.51612 0.64334,1.07949 1.19257,2.25664c1.03423,2.21661 1.01918,4.18377 1.02113,6.7385c-0.09187,1.1144 1.95594,0.99096 2.56073,1.47029c0.50155,0.39751 0.94349,2.01629 1.25915,2.61037l0.1551,0.2919c0,0 0.11022,0.20745 -0.11416,0.30936z" fill="#000000" stroke="none" stroke-width="0.5" stroke-linecap="butt"/><path d="M578.99986,101.87996c0.25,-0.00014 0.25014,0.23099 0.25014,0.23099l0.00018,0.29453c0.00116,1.83334 -0.96561,6.87047 1.74982,6.87047c3.5,0 7,0 10.5,0c0.72574,0.07259 1.42871,3.39738 0.67678,4.09255c-0.53974,0.49899 -2.58164,-0.38677 -3,0c-0.18833,0.17411 0.07322,2.25533 0.07322,2.61006c0,2.69645 0,5.39291 0,8.08936c2.23087,0 4.46174,0 6.69261,0c3.52219,0 6.97694,0.57365 9.95528,-1.22754c1.46298,-0.88475 0.84909,-3.82297 0.85134,-5.39423c0.00041,-0.28583 -0.13567,-1.33864 0.06643,-1.54257c0.37869,-0.38213 2.15572,-0.15594 2.68048,-0.15599c2.16668,-0.00023 4.33335,-0.00016 6.50003,-0.00016h0.00384c0,0 0.25,0 0.25,0.23112c0,0.23112 -0.25,0.23112 -0.25,0.23112h-0.00384c-2.16665,0 -4.33332,-0.00007 -6.49997,0.00016c-0.33303,0.00003 -2.12043,-0.18718 -2.31187,0.00601c-0.10856,0.10954 0.06456,1.4713 0.06424,1.69317c-0.00244,1.70804 0.5684,4.32315 -1.07696,5.3182c-3.08224,1.86403 -6.59827,1.30295 -10.22899,1.30295c-2.3139,0 -4.6278,0.00001 -6.9417,0c-0.0003,0 -0.0006,0 -0.0009,0c-0.00031,0 -0.0006,0 -0.0009,0c-1.18549,0 -2.37099,-0.00001 -3.55649,-0.00001c-3.51621,-0.00001 -7.06713,0.1295 -10.57819,-0.04805c-2.92135,-1.79822 -5.16868,-4.58863 -8.67413,-4.57017c-1.69112,0.0089 -5.89683,-0.58806 -7.00225,1.00499c-0.36529,0.52643 -0.21695,2.11304 -0.32572,2.76093c-2.83578,1.59661 -4.79665,4.71458 -6.29706,7.48884c-0.31628,0.58481 -0.83994,2.23461 -1.43381,2.57393c-1.13753,0.64995 -4.76611,0.03452 -6.13144,0.03452c0,0 -0.25,0 -0.25,-0.23112c0,-0.23112 0.25,-0.23112 0.25,-0.23112c1.23445,0 4.87739,0.60084 5.86856,0.03451c0.45799,-0.26169 0.98871,-1.90531 1.24947,-2.38744c1.37953,-2.55076 3.48188,-6.34042 6.32849,-7.53886c0.02454,-0.6615 -0.0645,-2.19872 0.32066,-2.75378c1.25374,-1.8068 5.49461,-1.2075 7.42025,-1.21764c3.54957,-0.01868 5.9697,2.66963 8.83476,4.59378c3.47266,0.04433 6.94711,0.02443 10.42042,0.02443c1.10247,0.00001 2.20493,0.00001 3.30739,0.00001c0,-2.69645 0,-5.39291 0,-8.08936c0,-0.52263 -0.32081,-2.57265 0.07322,-2.93693c0.53974,-0.49899 2.58164,0.38677 3,0c0.37653,-0.3481 -0.15309,-3.33908 -0.32322,-3.30344c-3.5,0 -7,0 -10.5,0c-3.27897,0 -2.24845,-5.1799 -2.24982,-7.33244l-0.00018,-0.29454c0,0 -0.00014,-0.23112 0.24986,-0.23126z" fill="#000000" stroke="none" stroke-width="0.5" stroke-linecap="butt"/><path d="M620.15433,150.36684c-0.19669,0.14268 -0.35101,-0.03916 -0.35101,-0.03916l-0.10032,-0.11821c-1.18249,-1.39327 -0.52069,-2.47664 -1.21237,-3.90256c-0.68957,-1.42155 -1.74056,-1.33672 -1.74086,-3.15969c-0.00018,-1.14218 0.34189,-3.01275 -0.07148,-4.08137c-0.15775,-0.40781 -0.7599,-0.67857 -0.91913,-1.09743c-0.52912,-1.39177 -0.02735,-2.54269 -0.89351,-3.93075c-0.40223,-0.75255 -1.50046,-0.14363 -2.16103,-0.59228c-0.83402,-0.56645 -0.68453,-1.96132 -1.03423,-2.68013c-0.59392,-1.22076 -2.11401,-2.56179 -2.91569,-3.76645c-0.08335,-1.29467 -0.78148,-2.33408 -1.00145,-3.58725c-0.25743,-1.46657 -0.00323,-3.17133 -0.00323,-4.65952c0,0 0,-0.23112 0.25,-0.23112c0.25,0 0.25,0.23112 0.25,0.23112c0,1.46194 -0.25596,3.14567 -0.00323,4.58547c0.21651,1.23348 0.95003,2.23772 0.98477,3.52227c0.81897,1.14066 2.31394,2.52189 2.89483,3.71587c0.30884,0.6348 0.15315,2.00746 0.87426,2.49722c0.78233,0.53135 1.63805,-0.22978 2.2981,0.73382c0.88783,1.42278 0.39849,2.60478 0.93213,4.00845c0.15453,0.40646 0.7573,0.67904 0.91822,1.09504c0.4381,1.13256 0.10049,3.03359 0.10068,4.23697c0.00028,1.73812 1.01099,1.55623 1.69707,2.9706c0.68601,1.41421 0.00958,2.46322 1.14952,3.80636l0.10033,0.11821c0,0 0.15432,0.18184 -0.04236,0.32451z" fill="#000000" stroke="none" stroke-width="0.5" stroke-linecap="butt"/><path d="M628.25,266.67179c0.00004,0.23112 -0.24996,0.23116 -0.24996,0.23116c-0.66666,0.00009 -1.3734,0.00019 -2.04007,0.00029c-0.49515,0.00006 -2.42598,-0.23309 -2.75833,0.17978c-0.14552,0.18078 0.05199,1.43488 0.0567,1.70731c0.03089,1.78645 0.24567,3.20887 0.82885,4.90938c0.93344,2.77431 0.18361,6.84986 0.15092,9.76533c-0.04231,0.51833 0.0685,1.4714 -0.1761,1.93511c-0.5184,0.98279 -2.36075,1.09441 -2.84319,1.87929c-0.58764,0.95603 0.18167,3.38967 1.00479,3.86977c2.97902,1.73756 6.35575,2.54183 8.85854,4.85572c2.67806,2.47594 4.99456,4.35384 6.20424,7.71839c0.38515,1.13227 1.63497,1.54211 3.05405,1.5695c0.29136,-0.13587 0.566,-0.2479 0.80825,-0.33064c1.89591,-0.64753 4.31626,-1.53713 6.34906,-1.54107c0.91817,-0.00178 3.06603,0.36041 3.67711,-0.25953c0.40962,-0.37827 0.96493,-1.12326 1.48418,-1.35187c0.34893,-0.15362 1.70177,0.06376 1.9161,-0.14319c0.07425,-0.07169 0.01262,-1.09711 0.02189,-1.23836c0.10101,-1.5389 0.15289,-3.06248 0.15293,-4.60425c0.00001,-0.60858 -0.37811,-2.968 0.07038,-3.39647c0.23181,-0.22146 0.76765,0.19108 0.99948,-0.03037c0.04141,-0.03955 -0.07011,-1.11233 -0.07009,-1.22604c0.00027,-1.38673 0.00027,-2.77347 0.00027,-4.1602c0,-3.1049 -0.57624,-6.75979 0.48717,-9.70917c0.15811,-0.43853 0.31622,-0.87706 0.47433,-1.31558l0.05133,-0.14234c0,0 0.07906,-0.21926 0.31623,-0.14618c0.23717,0.07308 0.15811,0.29234 0.15811,0.29234c-0.15811,0.43853 -0.36755,1.01941 -0.52566,1.45793c-1.04391,2.89532 -0.46151,6.51326 -0.46151,9.56299c0,0.99128 0.64323,5.02559 -0.0709,5.70773c-0.23182,0.22143 -0.76765,-0.19111 -0.99944,0.03034c-0.2494,0.23826 0.07032,2.63327 0.07031,3.07502c-0.00003,1.15732 0.56025,5.31848 -0.31367,6.16229c-0.4026,0.38873 -1.56796,0.02321 -2.06227,0.24084c-0.45773,0.20152 -0.9812,0.92487 -1.3458,1.26157c-1.02659,0.88942 -3.15406,0.23401 -4.49872,0.39295c-1.67079,0.19749 -3.46188,0.75573 -5.08417,1.30245c1.15287,-0.16589 2.2505,-0.49442 2.94286,-0.81446c0,0 0.22361,-0.10337 0.33541,0.10336c0.11181,0.20673 -0.1118,0.31009 -0.1118,0.31009c-1.08265,0.50045 -2.93617,0.97192 -4.63199,0.9615c-1.24738,0.59188 -2.80196,1.62634 -3.24902,2.61891c-0.17164,0.38107 0.36065,0.58255 -0.05137,0.99289c-0.2269,0.22598 -0.76984,-0.15272 -0.99744,0.07265c-0.21586,0.21373 0.04251,2.23317 0.03853,2.61786c-0.03292,3.17747 -3.8942,5.74734 -3.998,8.86159c-0.07889,1.7524 -1.32318,4.42959 -3.32559,5.14688c-1.03113,0.36936 -2.97605,0.0156 -4.09033,0.01559c-3.5002,-0.00003 -7.00035,-0.00659 -10.50054,-0.01384c-3.60678,-0.00747 -6.49599,-2.26198 -9.57178,-3.89495c-0.44098,-0.67826 -1.0456,-2.26754 -1.9027,-2.57868c-1.6815,-0.61039 -5.07143,0.01598 -6.90863,0.01598c-3.50001,0 -7.00002,0.00008 -10.50003,-0.00025c-3.5013,-0.00033 -7.00131,-0.01567 -10.5024,-0.051c-3.49788,-0.0353 -5.9793,-3.46993 -7.47462,-6.23337c-0.73359,-1.35571 -2.88626,-3.38497 -4.52831,-3.897c-0.51551,-0.16075 -1.64561,0.28788 -2.0824,-0.05698c-0.34877,-0.27537 -0.55096,-0.86076 -1.00959,-0.86427c-0.82579,-0.04342 -2.35585,0.1486 -3.09547,-0.18069c-1.13494,-0.50529 -1.21318,-1.99467 -2.0187,-2.69799c-0.80105,-0.69942 -2.56398,-1.05216 -3.59403,-1.35829c-0.66346,-0.19718 -1.9316,-0.34063 -2.46343,-0.7497c-0.88726,-0.68246 -0.81512,-1.96969 -2.06011,-2.45509c-1.13111,-0.441 -1.79142,-0.03227 -2.77062,-0.93753c0,0 -0.17678,-0.16343 0,-0.32686c0.17678,-0.16343 0.35355,0 0.35355,0c0.90164,0.83356 1.52352,0.41435 2.61136,0.83847c1.32052,0.51484 1.27504,1.82527 2.18561,2.52567c0.46618,0.35858 1.70535,0.48924 2.29666,0.66498c1.10693,0.32897 2.91899,0.70675 3.78432,1.46229c0.75271,0.65722 0.8618,2.15877 1.89234,2.61758c0.65475,0.2915 2.15101,0.09583 2.8948,0.13516c0.16592,0.00123 1.06766,-0.0056 1.15425,0.06282c0.25338,0.20019 -0.08969,0.71184 0.16377,0.91195c0.23284,0.18384 1.55715,-0.14188 1.91749,-0.02952c1.76189,0.54941 4.03345,2.68259 4.81568,4.1282c1.40958,2.60499 3.7514,5.94484 7.03291,5.97796c3.49929,0.03531 6.9975,0.05063 10.497,0.05097c3.49999,0.00033 6.99999,0.00025 10.49998,0.00025c1.91654,0 5.32425,-0.62549 7.09137,0.01598c0.97938,0.35553 1.59889,1.88971 2.06997,2.67885c3.06666,1.49175 5.68721,3.75549 9.22289,3.7628c3.49982,0.00725 6.9996,0.01381 10.49942,0.01384c1.03825,0.00001 2.95979,0.35589 3.90967,0.01563c1.81742,-0.65101 2.93553,-3.15481 3.00667,-4.73506c0.17106,-3.13205 3.96495,-5.69585 3.9976,-8.8468c0.00564,-0.54426 -0.29971,-2.53708 0.09599,-2.92889c0.22736,-0.22513 0.7698,0.15406 0.99646,-0.07168c0.21024,-0.20937 -0.16255,-0.59236 -0.04377,-0.85609c0.41039,-0.91112 1.63042,-1.84314 2.80163,-2.49806c-1.29391,-0.16251 -2.37551,-0.69108 -2.76018,-1.82209c-1.182,-3.28719 -3.46026,-5.10985 -6.08206,-7.53378c-2.47172,-2.28517 -5.82124,-3.07068 -8.77177,-4.79162c-1.01882,-0.59424 -1.89674,-3.31119 -1.17272,-4.4891c0.51145,-0.83209 2.32255,-0.89433 2.8285,-1.85352c0.20871,-0.39568 0.08901,-1.30282 0.12597,-1.75231c0.03008,-2.8279 0.81068,-6.92806 -0.12799,-9.60582c-0.47577,-1.38727 -1.88802,-5.69318 -0.81006,-7.03237c0.50266,-0.62447 2.44263,-0.36596 3.15937,-0.36606c0.66666,-0.00009 1.33334,-0.00018 2,-0.00028h0.04007c0,0 0.25,-0.00004 0.25004,0.23109z" fill="#000000" stroke="none" stroke-width="0.5" stroke-linecap="butt"/><path d="M38.0558,264.12657c-2.71302,0.00747 -5.36221,0.1554 -8.00243,-0.44653c-0.90317,-0.20591 -1.90082,-0.18517 -2.29494,-1.01544c-1.19194,-2.86186 -4.86342,-5.36907 -4.95993,-8.35564c-0.11813,-3.65591 -0.00888,-6.14411 1.72316,-9.44328c0.46272,-0.8677 2.17213,-2.74019 3.14996,-3.1557c0.8679,-0.3688 2.12885,0.12416 3.00427,-0.19918c0.7589,-0.28031 1.62875,-1.22053 2.29866,-1.68589c2.64318,-1.83608 5.12066,-5.00049 8.16644,-6.04437c1.4813,-0.50769 2.27513,-1.83575 3.62695,-2.33825c1.00102,-0.3721 3.10988,0.44152 3.9506,-0.08842c0.26044,-0.16416 0.55978,-1.30216 0.69756,-1.59993c1.43782,-3.1075 1.31739,-6.02881 1.32534,-9.39045c0.00766,-3.23558 0.00853,-6.47114 0.00854,-9.70672c0.00001,-2.87924 -0.31172,-7.42696 2.8598,-9.06381c3.21397,-1.65876 6.29932,-1.81036 9.51579,-3.52571c1.84813,-0.98561 3.7403,-1.07351 5.63681,-1.83718c1.42079,-0.57211 2.39834,-1.62915 3.93718,-2.01196c3.49791,-0.87014 6.85029,-0.80565 10.46037,-0.81144c3.50012,-0.00562 7.0003,-0.00134 10.50043,-0.00134c3.51994,0 6.94865,0.00404 10.44535,-0.38359c3.61444,-0.40068 6.63361,-1.22839 10.05246,-2.37558c3.38589,-1.13613 6.85175,-0.9268 10.43264,-0.93219c3.59402,-0.00541 7.15278,-0.41997 10.47391,0.93668c1.85665,2.8007 3.84174,5.56191 4.72128,8.74781c0.86816,3.14465 1.82231,6.21899 2.92305,9.30088c1.0979,3.07396 2.28118,6.1063 3.50514,9.1392c1.25301,3.10486 0.95197,6.34029 1.00214,9.63824c0.04924,3.23642 0.03328,6.47356 0.03359,9.71028c0.0003,3.0227 0.66533,6.85225 -0.30991,9.7341c-1.16217,3.43424 -2.36402,5.73 -4.76453,8.56708c-2.13593,2.52439 -3.78858,5.54577 -6.23407,7.83351c-0.97295,0.90805 -2.34209,2.8173 -3.59473,3.33256c-1.55869,0.64115 -3.83984,-0.12011 -5.49918,0.36468c-3.40386,0.97953 -6.90567,0.7563 -10.4586,0.80335c-3.573,0.00344 -6.94553,-0.23627 -10.48576,-0.67916c-3.40632,-0.42614 -6.49541,-2.44138 -9.87318,-3.22661c-3.2362,-0.75233 -6.65056,-2.48268 -9.90918,-2.54061c-1.22382,-0.02175 -1.24255,-0.6141 -2.20479,-0.95525c-1.95914,-0.69459 -5.78168,0.01078 -7.91047,0.01078c-1.33518,0 -2.67035,0 -4.00553,0c-2.5,-1.15562 -5,-1.15562 -5,-1.15562c-3.59197,0 -7.01582,-0.40159 -9.91031,1.14245c-0.4796,0.18583 -0.75096,0.47718 -1.18896,0.68566c-1.26709,-0.25219 -2.60138,0.02088 -3.90073,0.02088h-3c0,0 -4.46005,0 -7.42299,2.7537c-1.17164,0.13892 -2.34464,0.24478 -3.52121,0.24802z" fill-opacity="0.18431" fill="#000000" stroke="none" stroke-width="0.5" stroke-linecap="butt"/><path d="M585.25,-3.28176c0,0 0,0.23112 -0.25,0.23112c-0.25,0 -0.25,-0.23112 -0.25,-0.23112v0c0,-0.46225 0,-0.9245 0,-1.38675c0.20019,-1.71054 2.15513,-0.00505 2.99644,-0.56841c-0.02415,-0.44137 -0.15752,-1.50903 0.02968,-1.84432c-0.01434,-0.17043 -0.02445,-0.30288 -0.02437,-0.36458c0.00147,-1.16793 0.66801,-3.04756 1.60856,-3.8011c2.89251,-2.17674 6.44268,-1.51095 10.09668,-1.51096c3.5,-0.00002 6.99999,-0.00013 10.49999,-0.00031c3.49756,-0.00019 6.99839,0.03391 10.4954,-0.02359c3.64926,-0.06001 6.73786,-0.49319 10.27611,-1.31692c3.36748,-0.78397 6.69389,-2.1841 10.13603,-2.5653c3.52293,-0.39014 6.93381,-0.71636 10.4836,-0.71636c3.5,0 7,0 10.5,0c3.5,0 7,0.00003 10.5,0.00005c3.50002,0.00002 7.00003,0.00063 10.50005,0.00134c3.50087,0.00071 7.00116,0.00521 10.50191,0.03248c3.65092,0.02843 6.90842,0.02325 10.43873,0.92041c3.37975,0.85891 6.77079,1.67295 10.10038,2.68651c1.24311,0.37841 4.47298,0.63607 5.38283,1.32565c0.97513,0.73905 1.37293,2.95816 2.40869,3.97821c2.44023,2.40323 3.7409,5.41672 5.33006,8.35512c0.69341,1.28214 1.88532,2.80164 2.23287,4.19656c0.44556,1.7883 -0.29752,3.15119 0.76052,4.83193c0.72996,1.15959 1.75953,2.37888 2.28069,3.62877c0.71591,1.71696 0.45013,3.68183 1.55881,5.25332c2.01176,2.85159 1.40634,6.10184 1.40634,9.45813c0,3.23575 0,6.47149 0,9.70724c0,3.23575 0,6.47149 0,9.70724c0,3.23575 0,6.47149 0,9.70724c0,3.23575 0,6.47149 0,9.70724c0,3.23575 0,6.47149 0,9.70724c0,3.23575 0,6.47149 0,9.70724c0,3.23577 0.00078,6.47156 -0.00063,9.70733c-0.00061,1.40356 0.50896,3.88021 -0.0825,5.17377c-0.54245,1.18635 -2.40576,2.43504 -3.23375,3.56216c-0.99099,1.349 -3.17237,4.18444 -4.84899,4.82157c-0.88159,0.335 -2.63425,0.01735 -3.59505,0.01735c-3.5,0 -7,0 -10.5,0c-3.5,0 -7,0 -10.5,0c-3.5,0 -7,0 -10.5,0c-3.5,0 -7,0 -10.5,0c-3.5,0 -7,0 -10.5,0c-3.5,0 -7,0 -10.5,0c-3.50053,0 -7.00355,0.03482 -10.50367,-0.01417c-0.15,-0.0021 -1.06196,-0.00411 -1.14219,-0.05753c-0.66161,-0.44046 -0.91808,-2.44894 -1.2434,-3.1493c-0.78465,-1.68918 -2.08132,-3.11198 -3.2471,-4.5839c-1.85497,-2.34212 -2.1589,-6.53003 -2.91463,-9.3523c-0.84721,-3.16388 -1.264,-6.35629 -1.79204,-9.57637c-0.57377,-3.49908 -1.02236,-5.97787 -3.04519,-8.99854c-1.82652,-2.72753 -4.74777,-4.65033 -7.3416,-6.75582c-2.64376,-2.14601 -5.00392,-4.45975 -7.94113,-6.25305c-2.9183,-1.78175 -5.70243,-3.70731 -8.94946,-4.92015c-3.24719,-1.21291 -6.55523,-2.32976 -9.68792,-3.7786c-3.13066,-1.44789 -6.255,-2.90681 -9.37716,-4.37029c-1.4766,-0.72871 -1.51161,-2.85684 -2.57787,-3.96066c-0.69084,-0.71517 -2.45353,-0.98883 -2.94613,-1.83976c-0.23628,-0.40817 -0.02958,-1.48939 -0.02958,-1.95806c0,-3.23575 0,-6.47149 0,-9.70724c0,-3.23575 0,-6.47149 0,-9.70724c0,-3.23575 0,-6.47149 0,-9.70724c0,-3.23575 0,-6.47149 0,-9.70724c0,-1.7499 0,-3.4998 0,-5.24971c-0.89649,0.07379 -2.64418,-0.42345 -2.5,0.16497c0,0.46225 0,0.9245 0,1.38675z" fill-opacity="0.18431" fill="#000000" stroke="none" stroke-width="0.5" stroke-linecap="butt"/><g><g><path d="M181.5,366.97973v-306.00905h357v306.00905z" fill="#0a0a0a" stroke="#141414" stroke-width="10" stroke-linecap="butt"/><g><path d="M183,363.7442v-304.16005h354v304.16005z" fill="url(#color-1)" stroke="none" stroke-width="0" stroke-linecap="butt"/><path d="M360,360.04599v-299.53756" fill="none" stroke="#e6e6e6" stroke-width="10" stroke-linecap="round"/><path d="M345.4991,197.56535v-24.49921" fill="none" stroke="#e6e6e6" stroke-width="10" stroke-linecap="round"/><path d="M373.9991,197.56536v-24.49921" fill="none" stroke="#e6e6e6" stroke-width="10" stroke-linecap="round"/><path d="M181.5,364.6687v-306.00905h357v306.00905z" fill="none" stroke="url(#color-2)" stroke-width="10" stroke-linecap="butt"/></g></g><g stroke="#e6e6e6" stroke-width="0" stroke-linecap="butt"><path d="M173,252.57313v-204.3142h221v204.3142z" fill="url(#color-3)"/><path d="M326,377.38045v-204.3142h221v204.3142z" fill="url(#color-4)"/></g></g><path d="M-11,366.5177v-383.89806h743v383.89806z" fill-opacity="0.67843" fill="#000000" stroke="#e6e6e6" stroke-width="0" stroke-linecap="butt"/></g><g stroke="none" stroke-width="0" stroke-linecap="butt"><path d="M-16.79206,376.25328v-390.39039h160.83108v390.39039z" fill="url(#color-5)"/><path d="M578.29806,373.01003v-390.39039h160.83109v390.39039z" fill="url(#color-6)"/><path d="M-18.12314,110.48752v-127.62763h756.75676v127.62763z" fill="url(#color-7)"/><path d="M737.62764,249.75283v127.62762h-756.75676v-127.62762z" fill="url(#color-8)"/></g></g></g></svg>