<svg version="1.1" xmlns="http://www.w3.org/2000/svg" xmlns:xlink="http://www.w3.org/1999/xlink" width="829.84234" height="590.0318" viewBox="0,0,829.84234,590.0318"><defs><linearGradient x1="0" y1="180" x2="296" y2="180" gradientUnits="userSpaceOnUse" id="color-1"><stop offset="0" stop-color="#0d0f11"/><stop offset="1" stop-color="#050506"/></linearGradient><linearGradient x1="-43.34483" y1="43.75942" x2="367.61402" y2="151.59529" gradientUnits="userSpaceOnUse" id="color-2"><stop offset="0" stop-color="#e7ff8f" stop-opacity="0.17647"/><stop offset="1" stop-color="#e7ff8f" stop-opacity="0"/></linearGradient><linearGradient x1="-59.07099" y1="67.35962" x2="280.2184" y2="323.09087" gradientUnits="userSpaceOnUse" id="color-3"><stop offset="0" stop-color="#e7ff8f" stop-opacity="0.17647"/><stop offset="1" stop-color="#e7ff8f" stop-opacity="0"/></linearGradient><linearGradient x1="-83.83531" y1="111.71929" x2="207.81194" y2="420.68149" gradientUnits="userSpaceOnUse" id="color-4"><stop offset="0" stop-color="#e7ff8f" stop-opacity="0.17647"/><stop offset="1" stop-color="#e7ff8f" stop-opacity="0"/></linearGradient><linearGradient x1="363.003" y1="238.65039" x2="363.003" y2="244" gradientUnits="userSpaceOnUse" id="color-5"><stop offset="0" stop-color="#000000"/><stop offset="1" stop-color="#000000" stop-opacity="0"/></linearGradient><linearGradient x1="-5.24207" y1="181.05805" x2="36.54486" y2="181.05805" gradientUnits="userSpaceOnUse" id="color-6"><stop offset="0" stop-color="#000000"/><stop offset="1" stop-color="#000000" stop-opacity="0"/></linearGradient><linearGradient x1="727.50752" y1="177.8148" x2="571.60646" y2="177.8148" gradientUnits="userSpaceOnUse" id="color-7"><stop offset="0" stop-color="#000000"/><stop offset="1" stop-color="#000000" stop-opacity="0"/></linearGradient><linearGradient x1="360.24743" y1="-17.14016" x2="360.24743" y2="110.48749" gradientUnits="userSpaceOnUse" id="color-8"><stop offset="0" stop-color="#000000"/><stop offset="1" stop-color="#000000" stop-opacity="0"/></linearGradient><linearGradient x1="359.27226" y1="377.38042" x2="359.27226" y2="249.75279" gradientUnits="userSpaceOnUse" id="color-9"><stop offset="0" stop-color="#000000"/><stop offset="1" stop-color="#000000" stop-opacity="0"/></linearGradient></defs><g transform="translate(100.24121,40.44696)"><g stroke-miterlimit="10"><path d="M0,153v-160.3741h719.43382v160.3741z" fill="#15181c" stroke="#000000" stroke-width="0" stroke-linecap="butt"/><path d="M0.56619,361.5015v-160.3741h719.43382v160.3741z" fill="#15181c" stroke="#000000" stroke-width="0" stroke-linecap="butt"/><path d="M279.81681,244.33333v-128h167.03904v128z" fill="#3f3f3f" stroke="#000000" stroke-width="0" stroke-linecap="butt"/><path d="M0,360v-360l295,116l1,128.5z" fill="url(#color-1)" stroke="none" stroke-width="0" stroke-linecap="butt"/><path d="M729.60113,1.5015v360l-304.56869,-116l-1.03244,-128.5z" fill="#323a43" stroke="none" stroke-width="0" stroke-linecap="butt"/><g fill="none" stroke="#b7b7b7" stroke-width="7.5" stroke-linecap="round"><path d="M-21.59309,318.70034l321.32132,-114.11411"/><g><path d="M282.54355,213.06371v43"/><path d="M241.54355,270.0637v-43"/><path d="M201.54355,243.14328v43"/></g><path d="M159.54355,258.0637v43"/><path d="M118.54355,272.0637v43"/><path d="M78.54355,288.14328v43"/><path d="M36.45646,303.20635v43"/></g><path d="M118.54355,272.06371v43" fill="none" stroke="#b7b7b7" stroke-width="7.5" stroke-linecap="round"/><g stroke="none" stroke-width="0" stroke-linecap="butt"><path d="M397.36628,284.95583l-432.5138,-212.83094l-13.26502,-51.08072l390.52461,16.2421z" fill="url(#color-2)"/><path d="M257.13323,457.76568l-319.38513,-361.05171l7.11299,-52.29346l355.14458,163.23481z" fill="url(#color-3)"/><path d="M162.48917,549.58484l-254.37857,-409.45908l15.77388,-50.36254l322.77553,220.42966z" fill="url(#color-4)"/></g><path d="M313.98348,244v-128h98.03904v128z" fill="#000000" stroke="#000000" stroke-width="0" stroke-linecap="butt"/><path d="M313.98348,244v-5.34961h98.03904v5.34962z" fill="url(#color-5)" stroke="#000000" stroke-width="0" stroke-linecap="butt"/><g stroke="none" stroke-linecap="butt"><g fill="none" stroke-width="1" font-family="sans-serif" font-weight="normal" font-size="12" text-anchor="start"/><g stroke-width="0"><path d="M-5.24207,376.25325v-390.39039h41.78694v390.39039z" fill="url(#color-6)"/><path d="M571.60646,373.00998v-390.39039h155.90105v390.39039z" fill="url(#color-7)"/><path d="M-6.53233,110.48749v-127.62762h733.55954v127.62763z" fill="url(#color-8)"/><path d="M726.05204,249.75279v127.62762h-733.55954v-127.62762z" fill="url(#color-9)"/></g></g><path d="M-14.65563,504.59808v-129.12913h735.73574v129.12913z" fill="#000000" stroke="none" stroke-width="0" stroke-linecap="butt"/><path d="M-100.24121,462.55604v-503.003h98.03904v503.003z" fill="#000000" stroke="none" stroke-width="0" stroke-linecap="butt"/><path d="M325.67719,238.6259v-26h73.33333v26z" fill="#000000" stroke="none" stroke-width="0" stroke-linecap="butt"/></g></g></svg>