<svg version="1.1" xmlns="http://www.w3.org/2000/svg" xmlns:xlink="http://www.w3.org/1999/xlink" width="680.20605" height="676.17056" viewBox="0,0,680.20605,676.17056"><defs><linearGradient x1="55.33277" y1="410.51028" x2="106.15899" y2="411.15117" gradientUnits="userSpaceOnUse" id="color-1"><stop offset="0" stop-color="#484c5e"/><stop offset="1" stop-color="#212d30"/></linearGradient><linearGradient x1="55.82103" y1="364.52009" x2="124.66159" y2="365.38809" gradientUnits="userSpaceOnUse" id="color-2"><stop offset="0" stop-color="#484c5e"/><stop offset="1" stop-color="#212d30"/></linearGradient><linearGradient x1="56.36359" y1="313.41593" x2="125.20415" y2="314.28392" gradientUnits="userSpaceOnUse" id="color-3"><stop offset="0" stop-color="#484c5e"/><stop offset="1" stop-color="#212d30"/></linearGradient><linearGradient x1="56.84585" y1="267.98998" x2="125.68641" y2="268.85798" gradientUnits="userSpaceOnUse" id="color-4"><stop offset="0" stop-color="#484c5e"/><stop offset="1" stop-color="#212d30"/></linearGradient><linearGradient x1="57.40852" y1="214.99301" x2="126.24907" y2="215.86109" gradientUnits="userSpaceOnUse" id="color-5"><stop offset="0" stop-color="#484c5e"/><stop offset="1" stop-color="#212d30"/></linearGradient><linearGradient x1="57.89077" y1="169.56714" x2="126.73133" y2="170.43515" gradientUnits="userSpaceOnUse" id="color-6"><stop offset="0" stop-color="#484c5e"/><stop offset="1" stop-color="#212d30"/></linearGradient><linearGradient x1="58.43334" y1="118.46291" x2="127.27389" y2="119.331" gradientUnits="userSpaceOnUse" id="color-7"><stop offset="0" stop-color="#484c5e"/><stop offset="1" stop-color="#212d30"/></linearGradient><linearGradient x1="58.91559" y1="73.03705" x2="127.75615" y2="73.90497" gradientUnits="userSpaceOnUse" id="color-8"><stop offset="0" stop-color="#484c5e"/><stop offset="1" stop-color="#212d30"/></linearGradient><linearGradient x1="666.21182" y1="408.90771" x2="615.38561" y2="409.58835" gradientUnits="userSpaceOnUse" id="color-9"><stop offset="0" stop-color="#484c5e"/><stop offset="1" stop-color="#212d30"/></linearGradient><linearGradient x1="665.72356" y1="360.06556" x2="596.883" y2="360.98739" gradientUnits="userSpaceOnUse" id="color-10"><stop offset="0" stop-color="#484c5e"/><stop offset="1" stop-color="#212d30"/></linearGradient><linearGradient x1="665.181" y1="305.79232" x2="596.34044" y2="306.71413" gradientUnits="userSpaceOnUse" id="color-11"><stop offset="0" stop-color="#484c5e"/><stop offset="1" stop-color="#212d30"/></linearGradient><linearGradient x1="664.69875" y1="257.5494" x2="595.85818" y2="258.47123" gradientUnits="userSpaceOnUse" id="color-12"><stop offset="0" stop-color="#484c5e"/><stop offset="1" stop-color="#212d30"/></linearGradient><linearGradient x1="664.13608" y1="201.26597" x2="595.29552" y2="202.18785" gradientUnits="userSpaceOnUse" id="color-13"><stop offset="0" stop-color="#484c5e"/><stop offset="1" stop-color="#212d30"/></linearGradient><linearGradient x1="663.65382" y1="153.02311" x2="594.81326" y2="153.94495" gradientUnits="userSpaceOnUse" id="color-14"><stop offset="0" stop-color="#484c5e"/><stop offset="1" stop-color="#212d30"/></linearGradient><linearGradient x1="663.11126" y1="98.7498" x2="594.2707" y2="99.67171" gradientUnits="userSpaceOnUse" id="color-15"><stop offset="0" stop-color="#484c5e"/><stop offset="1" stop-color="#212d30"/></linearGradient><linearGradient x1="662.62901" y1="50.50698" x2="593.78844" y2="51.42872" gradientUnits="userSpaceOnUse" id="color-16"><stop offset="0" stop-color="#484c5e"/><stop offset="1" stop-color="#212d30"/></linearGradient><linearGradient x1="240.12168" y1="416.31638" x2="412.35631" y2="453.18064" gradientUnits="userSpaceOnUse" id="color-17"><stop offset="0" stop-color="#484c5e"/><stop offset="1" stop-color="#212d30"/></linearGradient><linearGradient x1="270.94111" y1="191.53355" x2="476.24479" y2="235.47575" gradientUnits="userSpaceOnUse" id="color-18"><stop offset="0" stop-color="#484c5e"/><stop offset="1" stop-color="#212d30"/></linearGradient><linearGradient x1="367.69206" y1="198.49553" x2="391.7477" y2="203.64429" gradientUnits="userSpaceOnUse" id="color-19"><stop offset="0" stop-color="#484c5e"/><stop offset="1" stop-color="#212d30"/></linearGradient><linearGradient x1="359.96818" y1="234.58248" x2="392.54991" y2="241.55611" gradientUnits="userSpaceOnUse" id="color-20"><stop offset="0" stop-color="#484c5e"/><stop offset="1" stop-color="#212d30"/></linearGradient><linearGradient x1="351.38544" y1="274.68219" x2="383.96716" y2="281.65582" gradientUnits="userSpaceOnUse" id="color-21"><stop offset="0" stop-color="#484c5e"/><stop offset="1" stop-color="#212d30"/></linearGradient><linearGradient x1="343.75633" y1="310.32638" x2="376.33805" y2="317.30001" gradientUnits="userSpaceOnUse" id="color-22"><stop offset="0" stop-color="#484c5e"/><stop offset="1" stop-color="#212d30"/></linearGradient><linearGradient x1="334.8557" y1="351.91129" x2="367.43742" y2="358.88492" gradientUnits="userSpaceOnUse" id="color-23"><stop offset="0" stop-color="#484c5e"/><stop offset="1" stop-color="#212d30"/></linearGradient><linearGradient x1="327.22659" y1="387.55544" x2="359.80832" y2="394.52908" gradientUnits="userSpaceOnUse" id="color-24"><stop offset="0" stop-color="#484c5e"/><stop offset="1" stop-color="#212d30"/></linearGradient><linearGradient x1="318.64384" y1="427.65519" x2="351.22556" y2="434.62883" gradientUnits="userSpaceOnUse" id="color-25"><stop offset="0" stop-color="#484c5e"/><stop offset="1" stop-color="#212d30"/></linearGradient><linearGradient x1="311.01474" y1="463.29935" x2="343.59647" y2="470.27298" gradientUnits="userSpaceOnUse" id="color-26"><stop offset="0" stop-color="#484c5e"/><stop offset="1" stop-color="#212d30"/></linearGradient><linearGradient x1="473.7468" y1="277.81043" x2="434.29494" y2="274.29111" gradientUnits="userSpaceOnUse" id="color-27"><stop offset="0" stop-color="#484c5e"/><stop offset="1" stop-color="#212d30"/></linearGradient><linearGradient x1="470.82475" y1="310.56706" x2="417.38995" y2="305.80043" gradientUnits="userSpaceOnUse" id="color-28"><stop offset="0" stop-color="#484c5e"/><stop offset="1" stop-color="#212d30"/></linearGradient><linearGradient x1="467.57776" y1="346.96615" x2="414.14297" y2="342.19948" gradientUnits="userSpaceOnUse" id="color-29"><stop offset="0" stop-color="#484c5e"/><stop offset="1" stop-color="#212d30"/></linearGradient><linearGradient x1="464.69157" y1="379.32086" x2="411.25677" y2="374.55422" gradientUnits="userSpaceOnUse" id="color-30"><stop offset="0" stop-color="#484c5e"/><stop offset="1" stop-color="#212d30"/></linearGradient><linearGradient x1="461.32432" y1="417.06806" x2="407.88953" y2="412.30139" gradientUnits="userSpaceOnUse" id="color-31"><stop offset="0" stop-color="#484c5e"/><stop offset="1" stop-color="#212d30"/></linearGradient><linearGradient x1="458.43813" y1="449.42277" x2="405.00333" y2="444.65614" gradientUnits="userSpaceOnUse" id="color-32"><stop offset="0" stop-color="#484c5e"/><stop offset="1" stop-color="#212d30"/></linearGradient><linearGradient x1="455.19114" y1="485.82186" x2="401.75635" y2="481.05519" gradientUnits="userSpaceOnUse" id="color-33"><stop offset="0" stop-color="#484c5e"/><stop offset="1" stop-color="#212d30"/></linearGradient><linearGradient x1="452.30492" y1="518.17656" x2="398.87016" y2="513.40994" gradientUnits="userSpaceOnUse" id="color-34"><stop offset="0" stop-color="#484c5e"/><stop offset="1" stop-color="#212d30"/></linearGradient><linearGradient x1="252.75024" y1="230.5094" x2="290.1863" y2="243.4468" gradientUnits="userSpaceOnUse" id="color-35"><stop offset="0" stop-color="#484c5e"/><stop offset="1" stop-color="#212d30"/></linearGradient><linearGradient x1="242.00839" y1="261.59232" x2="292.71291" y2="279.11516" gradientUnits="userSpaceOnUse" id="color-36"><stop offset="0" stop-color="#484c5e"/><stop offset="1" stop-color="#212d30"/></linearGradient><linearGradient x1="230.07208" y1="296.13155" x2="280.7766" y2="313.65439" gradientUnits="userSpaceOnUse" id="color-37"><stop offset="0" stop-color="#484c5e"/><stop offset="1" stop-color="#212d30"/></linearGradient><linearGradient x1="219.46201" y1="326.83312" x2="270.16653" y2="344.35596" gradientUnits="userSpaceOnUse" id="color-38"><stop offset="0" stop-color="#484c5e"/><stop offset="1" stop-color="#212d30"/></linearGradient><linearGradient x1="207.08362" y1="362.65162" x2="257.78815" y2="380.17443" gradientUnits="userSpaceOnUse" id="color-39"><stop offset="0" stop-color="#484c5e"/><stop offset="1" stop-color="#212d30"/></linearGradient><linearGradient x1="196.47356" y1="393.35315" x2="247.17808" y2="410.87599" gradientUnits="userSpaceOnUse" id="color-40"><stop offset="0" stop-color="#484c5e"/><stop offset="1" stop-color="#212d30"/></linearGradient><linearGradient x1="184.53725" y1="427.89242" x2="235.24178" y2="445.41522" gradientUnits="userSpaceOnUse" id="color-41"><stop offset="0" stop-color="#484c5e"/><stop offset="1" stop-color="#212d30"/></linearGradient><linearGradient x1="173.92719" y1="458.59395" x2="224.63171" y2="476.11679" gradientUnits="userSpaceOnUse" id="color-42"><stop offset="0" stop-color="#484c5e"/><stop offset="1" stop-color="#212d30"/></linearGradient><linearGradient x1="305.93206" y1="304.22615" x2="399.66136" y2="324.28752" gradientUnits="userSpaceOnUse" id="color-43"><stop offset="0" stop-color="#484c5e"/><stop offset="1" stop-color="#212d30"/></linearGradient><linearGradient x1="449.1033" y1="296.33298" x2="391.86404" y2="284.08176" gradientUnits="userSpaceOnUse" id="color-44"><stop offset="0" stop-color="#484c5e"/><stop offset="1" stop-color="#212d30"/></linearGradient><linearGradient x1="272.66309" y1="264.34197" x2="329.90235" y2="276.59318" gradientUnits="userSpaceOnUse" id="color-45"><stop offset="0" stop-color="#484c5e"/><stop offset="1" stop-color="#212d30"/></linearGradient><radialGradient cx="358.78512" cy="95.8873" r="43.75" gradientUnits="userSpaceOnUse" id="color-46"><stop offset="0" stop-color="#ffffff" stop-opacity="0.43529"/><stop offset="1" stop-color="#ffffff" stop-opacity="0"/></radialGradient><linearGradient x1="315.03512" y1="95.8873" x2="402.53512" y2="95.8873" gradientUnits="userSpaceOnUse" id="color-47"><stop offset="0" stop-color="#484c5e"/><stop offset="1" stop-color="#212d30"/></linearGradient><linearGradient x1="351.87723" y1="95.72283" x2="366.02197" y2="95.72283" gradientUnits="userSpaceOnUse" id="color-48"><stop offset="0" stop-color="#484c5e"/><stop offset="1" stop-color="#212d30"/></linearGradient><radialGradient cx="411.78512" cy="97.3873" r="43.75" gradientUnits="userSpaceOnUse" id="color-49"><stop offset="0" stop-color="#ffffff" stop-opacity="0.43529"/><stop offset="1" stop-color="#ffffff" stop-opacity="0"/></radialGradient><linearGradient x1="368.03512" y1="97.3873" x2="455.53512" y2="97.3873" gradientUnits="userSpaceOnUse" id="color-50"><stop offset="0" stop-color="#484c5e"/><stop offset="1" stop-color="#212d30"/></linearGradient><linearGradient x1="404.87723" y1="97.22283" x2="419.02197" y2="97.22283" gradientUnits="userSpaceOnUse" id="color-51"><stop offset="0" stop-color="#484c5e"/><stop offset="1" stop-color="#212d30"/></linearGradient></defs><g transform="translate(-20.66928,63.20096)"><g stroke-miterlimit="10"><g fill="none" stroke-width="3.25" stroke-linecap="round"><path d="M55.5783,387.38417c0,0 31.88218,-1.0902 44.50005,-1.52158c9.33843,-0.31933 7.93086,11.1821 -1.90819,18.37152c-8.2408,6.02151 -24.14006,17.63921 -34.15535,24.95737c-5.29823,3.87143 -2.87213,6.61629 1.83047,6.67554c8.90188,0.11228 38.62921,0.48711 38.62921,0.48711" stroke="url(#color-1)"/><path d="M56.06061,341.95815c0,0 31.88223,-1.0902 44.50004,-1.52167c9.33843,-0.31927 7.93086,11.18217 -1.90818,18.37152c-12.60031,9.20701 -43.10516,31.49703 -43.10516,31.49703" stroke="url(#color-2)"/><path d="M56.60312,290.85399c0,0 31.88223,-1.0902 44.50005,-1.52158c9.33843,-0.31927 7.93085,11.18217 -1.90819,18.37152c-12.60031,9.20701 -43.10516,31.49703 -43.10516,31.49703" stroke="url(#color-3)"/><path d="M57.08543,245.42807c0,0 31.88223,-1.0902 44.50005,-1.52158c9.33843,-0.31927 7.93085,11.18217 -1.90819,18.37152c-12.60031,9.20701 -43.10516,31.49703 -43.10516,31.49703" stroke="url(#color-4)"/><path d="M57.64804,192.43116c0,0 31.88223,-1.0902 44.50004,-1.52167c9.33843,-0.31927 7.93086,11.18225 -1.90818,18.3716c-12.60031,9.20701 -43.10516,31.49703 -43.10516,31.49703" stroke="url(#color-5)"/><path d="M58.13035,147.00522c0,0 31.88223,-1.0902 44.50005,-1.52167c9.33843,-0.31927 7.93086,11.18217 -1.90818,18.37152c-12.60031,9.20701 -43.10517,31.49703 -43.10517,31.49703" stroke="url(#color-6)"/><path d="M58.67286,95.90106c0,0 31.88223,-1.0902 44.50005,-1.52158c9.33843,-0.31927 7.93085,11.18217 -1.90819,18.37152c-12.60031,9.20701 -43.10516,31.49709 -43.10516,31.49709" stroke="url(#color-7)"/><path d="M59.15517,50.47512c0,0 31.88223,-1.0902 44.50005,-1.52158c9.33843,-0.31927 7.93085,11.18217 -1.90819,18.37152c-12.60031,9.20701 -43.10516,31.49703 -43.10516,31.49703" stroke="url(#color-8)"/></g><path d="M38.49488,36.97774c-4.68434,-17.07174 -31.70144,-73.08674 6.64436,-82.56975c39.58293,-9.78893 44.12161,49.50232 54.2833,46.72217c13.13656,-3.59403 3.62524,-14.33841 11.15548,-10.61275c20.95938,10.36986 7.64552,37.34858 9.02771,42.38593c2.94357,10.72772 32.77133,30.28672 23.40582,36.3766c-5.53849,3.60136 -47.15613,-3.84634 -55.47953,-3.42824c-5.43594,0.27308 -57.29021,31.88384 -62.43334,30.64313c-16.04865,-3.87147 16.9437,-46.58851 13.39621,-59.51705z" fill="#0d0d0d" stroke="#000000" stroke-width="0" stroke-linecap="butt"/><g fill="none" stroke-width="3.25" stroke-linecap="round"><path d="M617.07011,436.35412c0,0 29.72733,-0.39807 38.6292,-0.51732c4.7026,-0.06299 7.12869,-2.97801 1.83047,-7.08951c-10.01528,-7.77199 -25.91455,-20.11011 -34.15535,-26.50505c-9.83905,-7.63526 -11.24662,-19.84993 -1.90819,-19.51078c12.61786,0.45816 44.50005,1.61594 44.50005,1.61594" stroke="url(#color-9)"/><path d="M665.99729,387.44957c0,0 -30.50486,-23.67226 -43.10517,-33.45023c-9.83904,-7.63518 -11.24661,-19.84985 -1.90818,-19.51078c12.61782,0.45816 44.50005,1.61603 44.50005,1.61603" stroke="url(#color-10)"/><path d="M665.45477,333.17633c0,0 -30.50486,-23.67218 -43.10516,-33.45023c-9.83904,-7.63518 -11.24661,-19.84985 -1.90819,-19.51078c12.61782,0.45816 44.50005,1.61594 44.50005,1.61594" stroke="url(#color-11)"/><path d="M664.97247,284.93343c0,0 -30.50486,-23.67218 -43.10516,-33.45023c-9.83904,-7.63518 -11.24661,-19.84985 -1.90819,-19.51078c12.61782,0.45816 44.50005,1.61594 44.50005,1.61594" stroke="url(#color-12)"/><path d="M664.40985,228.65005c0,0 -30.50485,-23.67218 -43.10516,-33.45023c-9.83904,-7.63518 -11.24661,-19.84993 -1.90819,-19.51086c12.61782,0.45816 44.50005,1.61603 44.50005,1.61603" stroke="url(#color-13)"/><path d="M663.92755,180.40705c0,0 -30.50486,-23.67226 -43.10517,-33.45023c-9.83904,-7.63518 -11.2466,-19.84985 -1.90818,-19.51078c12.61782,0.45816 44.50005,1.61603 44.50005,1.61603" stroke="url(#color-14)"/><path d="M663.38503,126.13389c0,0 -30.50486,-23.67226 -43.10516,-33.4503c-9.83904,-7.63518 -11.24661,-19.84985 -1.90819,-19.51078c12.61782,0.45816 44.50005,1.61594 44.50005,1.61594" stroke="url(#color-15)"/><path d="M662.90273,77.89091c0,0 -30.50486,-23.67218 -43.10516,-33.45023c-9.83904,-7.63518 -11.24661,-19.84985 -1.90819,-19.51078c12.61782,0.45816 44.50005,1.61594 44.50005,1.61594" stroke="url(#color-16)"/></g><path d="M683.04971,20.46128c-3.54749,12.92854 29.44486,55.64558 13.39621,59.51705c-5.14314,1.24072 -56.99741,-30.37005 -62.43335,-30.64312c-8.3234,-0.41809 -49.94104,7.0296 -55.47953,3.42824c-9.36551,-6.08987 20.46224,-25.64888 23.40582,-36.3766c1.38219,-5.03735 -11.93166,-32.01607 9.02771,-42.38593c7.53025,-3.72566 -1.98108,7.01872 11.15548,10.61275c10.16169,2.78015 14.70037,-56.51111 54.2833,-46.72217c38.34579,9.48301 11.3287,65.49801 6.64436,82.56975z" fill="#0d0d0d" stroke="#000000" stroke-width="0" stroke-linecap="butt"/><g><g><path d="M412.35627,453.18063c-0.4744,2.21645 -25.55831,-3.34457 -48.8356,-19.10658c-10.68819,-7.23741 -11.25108,-27.61753 -26.21758,-30.82088c-16.96299,-3.63067 -21.74275,15.04393 -36.5479,18.52527c-26.70588,6.2797 -58.51888,1.48954 -58.07354,-0.59114c0.69223,-3.23417 58.85193,-103.40402 106.41317,-93.22424c47.56129,10.17978 63.95368,121.9834 63.26146,125.21758z" fill="#4c1212" stroke="url(#color-17)" stroke-width="0" stroke-linecap="butt"/><path d="M476.24479,235.47575c-0.50899,2.37807 -49.28323,29.25926 -105.97626,17.12496c-56.69303,-12.1343 -96.46421,-52.56356 -95.95522,-54.94163c0.25128,-1.174 49.49646,14.63253 99.33636,23.95086c51.1161,9.55692 102.85279,12.66177 102.59509,13.86581z" fill="#4c1212" stroke="url(#color-18)" stroke-width="0" stroke-linecap="butt"/><g fill="none" stroke-width="3.25" stroke-linecap="round"><path d="M395.31292,183.71088c0,0 -14.0697,-3.01141 -18.28289,-3.91318c-2.22573,-0.47638 -3.84339,1.40445 -2.01689,5.02671c3.45264,6.84721 8.93375,17.71712 11.77466,23.35117c3.39189,6.7267 2.06588,15.89441 -2.27837,14.60598c-5.8698,-1.7409 -20.70132,-6.13972 -20.70132,-6.13972" stroke="url(#color-19)"/><path d="M364.29867,214.34987c0,0 10.51619,20.85541 14.86001,29.46993c3.39189,6.7267 2.06588,15.89438 -2.27836,14.60598c-5.8698,-1.7409 -20.70132,-6.13972 -20.70132,-6.13972" stroke="url(#color-20)"/><path d="M355.71593,254.44958c0,0 10.5162,20.85542 14.86001,29.46993c3.39189,6.7267 2.06588,15.89438 -2.27836,14.60598c-5.8698,-1.7409 -20.70132,-6.13972 -20.70132,-6.13972" stroke="url(#color-21)"/><path d="M348.08681,290.09378c0,0 10.5162,20.85541 14.86001,29.46993c3.39189,6.72669 2.06589,15.89438 -2.27836,14.60598c-5.8698,-1.7409 -20.70133,-6.13972 -20.70133,-6.13972" stroke="url(#color-22)"/><path d="M339.18619,331.67865c0,0 10.51619,20.85542 14.86001,29.46993c3.39189,6.7267 2.06588,15.89438 -2.27836,14.60598c-5.8698,-1.7409 -20.70132,-6.13972 -20.70132,-6.13972" stroke="url(#color-23)"/><path d="M331.55708,367.32284c0,0 10.5162,20.85542 14.86001,29.46993c3.39189,6.7267 2.06588,15.89438 -2.27837,14.60598c-5.8698,-1.7409 -20.70132,-6.13972 -20.70132,-6.13972" stroke="url(#color-24)"/><path d="M322.97434,407.42255c0,0 10.51619,20.85542 14.86001,29.46994c3.39189,6.7267 2.06589,15.89437 -2.27836,14.60598c-5.8698,-1.7409 -20.70132,-6.13972 -20.70132,-6.13972" stroke="url(#color-25)"/><path d="M315.34523,443.06674c0,0 10.51619,20.85542 14.86001,29.46994c3.39189,6.7267 2.06588,15.89438 -2.27836,14.60598c-5.8698,-1.7409 -20.70132,-6.13972 -20.70132,-6.13972" stroke="url(#color-26)"/></g><g><g fill="none" stroke-width="3.25" stroke-linecap="round"><path d="M472.27744,294.2821c0,0 -24.82979,-1.14382 -34.65657,-1.5965c-7.27276,-0.33502 -5.54332,-8.4495 2.49817,-12.98192c6.73526,-3.79619 19.72986,-11.12034 27.91546,-15.73395c4.33028,-2.44067 2.59719,-4.54363 -1.05302,-4.86925c-6.90973,-0.61638 -29.98442,-2.67474 -29.98442,-2.67474" stroke="url(#color-27)"/><path d="M469.39125,326.63681c0,0 -24.82981,-1.14378 -34.65658,-1.59647c-7.27276,-0.33502 -5.54331,-8.4495 2.49822,-12.98194c10.29832,-5.80443 35.23017,-19.85676 35.23017,-19.85676" stroke="url(#color-28)"/><path d="M466.14426,363.0359c0,0 -24.8298,-1.14382 -34.65658,-1.59651c-7.27276,-0.33502 -5.54331,-8.44949 2.49821,-12.98191c10.29832,-5.80442 35.23017,-19.85676 35.23017,-19.85676" stroke="url(#color-29)"/><path d="M463.25807,395.39061c0,0 -24.82981,-1.14378 -34.65658,-1.59647c-7.27276,-0.33502 -5.54331,-8.4495 2.49818,-12.98196c10.29832,-5.80442 35.23017,-19.85676 35.23017,-19.85676" stroke="url(#color-30)"/><path d="M459.89083,433.13778c0,0 -24.82981,-1.14378 -34.65658,-1.59647c-7.27276,-0.33502 -5.54331,-8.4495 2.49821,-12.98191c10.29832,-5.80442 35.23017,-19.85677 35.23017,-19.85677" stroke="url(#color-31)"/><path d="M457.00463,465.49253c0,0 -24.82981,-1.14378 -34.65658,-1.59647c-7.27276,-0.33502 -5.54331,-8.4495 2.49822,-12.98194c10.29832,-5.80442 35.23017,-19.85677 35.23017,-19.85677" stroke="url(#color-32)"/><path d="M453.75765,501.89162c0,0 -24.82981,-1.14378 -34.65658,-1.59647c-7.27276,-0.33502 -5.54331,-8.44949 2.49821,-12.98191c10.29832,-5.80443 35.23017,-19.85677 35.23017,-19.85677" stroke="url(#color-33)"/><path d="M450.87146,534.24633c0,0 -24.82981,-1.14378 -34.65658,-1.59647c-7.27276,-0.33502 -5.54331,-8.4495 2.49822,-12.98195c10.29832,-5.80442 35.23017,-19.85676 35.23017,-19.85676" stroke="url(#color-34)"/></g><path d="M459.57555,612.55926c-31.34211,5.22011 -31.29577,-41.11721 -39.35798,-39.56957c-10.42246,2.00075 -3.68044,10.92118 -9.30623,7.57297c-15.65868,-9.31933 -3.6895,-29.47707 -4.45982,-33.47391c-1.64051,-8.51178 -23.63548,-25.50455 -15.99237,-29.67151c4.51993,-2.4642 36.40422,5.82955 42.89592,6.00624c4.23964,0.11541 46.43032,-21.31886 50.35132,-20.04509c12.23505,3.97478 -15.97077,35.17412 -13.99371,45.43211c2.61068,13.54542 20.22544,58.69183 -10.13709,63.74877z" fill="#0d0d0d" stroke="#000000" stroke-width="0" stroke-linecap="butt"/></g><g><g fill="none" stroke-width="3.25" stroke-linecap="round"><path d="M295.03357,226.04049c0,0 -21.89567,-7.56687 -28.45234,-9.83278c-3.46371,-1.19701 -5.90573,0.01232 -2.95385,4.01164c5.57999,7.55995 14.43824,19.56135 19.02958,25.78184c5.4818,7.42692 3.73832,15.53839 -3.03441,12.86718c-9.15117,-3.60921 -32.27384,-12.72895 -32.27384,-12.72895" stroke="url(#color-35)"/><path d="M248.03097,244.16528c0,0 16.99571,23.02631 24.01595,32.53752c5.48181,7.42688 3.73833,15.53836 -3.03441,12.86718c-9.15112,-3.60924 -32.27384,-12.72895 -32.27384,-12.72895" stroke="url(#color-36)"/><path d="M236.09463,278.70451c0,0 16.99572,23.02631 24.01595,32.53751c5.48181,7.42688 3.73833,15.53836 -3.03441,12.86718c-9.15112,-3.60924 -32.27384,-12.72895 -32.27384,-12.72895" stroke="url(#color-37)"/><path d="M225.48459,309.40608c0,0 16.99571,23.02631 24.01595,32.53752c5.48181,7.42688 3.73834,15.53835 -3.0344,12.86718c-9.15112,-3.60924 -32.27384,-12.72895 -32.27384,-12.72895" stroke="url(#color-38)"/><path d="M213.10617,345.22454c0,0 16.99571,23.02631 24.01595,32.53751c5.48181,7.42688 3.73833,15.53836 -3.03441,12.86718c-9.15112,-3.60924 -32.27383,-12.72895 -32.27383,-12.72895" stroke="url(#color-39)"/><path d="M202.49614,375.92611c0,0 16.99571,23.02631 24.01595,32.53751c5.48181,7.42688 3.73834,15.53836 -3.0344,12.86719c-9.15113,-3.60924 -32.27384,-12.72895 -32.27384,-12.72895" stroke="url(#color-40)"/><path d="M190.5598,410.46534c0,0 16.99572,23.02631 24.01595,32.53752c5.48181,7.42688 3.73834,15.53836 -3.0344,12.86718c-9.15113,-3.60924 -32.27384,-12.72895 -32.27384,-12.72895" stroke="url(#color-41)"/><path d="M179.94977,441.16691c0,0 16.99571,23.02631 24.01594,32.53752c5.48181,7.42688 3.73834,15.53836 -3.0344,12.86719c-9.15113,-3.60924 -32.27384,-12.72896 -32.27384,-12.72896" stroke="url(#color-42)"/></g><path d="M145.50548,479.41878c6.00269,-8.55008 -6.96161,-48.56127 5.82849,-47.17976c4.09887,0.44272 33.8198,37.2686 37.73527,38.89872c5.99529,2.49597 38.48109,7.97967 41.59634,12.07807c5.26785,6.93036 -21.75559,13.43147 -26.73642,20.52608c-2.33882,3.33138 0.33081,26.62238 -17.77061,28.71582c-6.50344,0.75213 3.29925,-4.6272 -5.39117,-10.71873c-6.72241,-4.71208 -25.64687,37.58466 -52.10645,19.99296c-25.6326,-17.0419 8.91818,-51.02301 16.84454,-62.31313z" fill="#0d0d0d" stroke="#000000" stroke-width="0" stroke-linecap="butt"/></g><path d="M310.3093,263.84596c2.38189,-11.12849 -17.13818,-38.39056 -13.17217,-42.9442c4.99892,-5.73962 33.92399,12.82517 41.11961,13.3914c8.76934,0.69007 19.03739,4.34888 30.48119,6.79825c11.96991,2.56198 23.83201,3.93795 32.84826,7.87532c5.38581,2.35197 36.49905,0.1741 39.27034,5.15276c3.55173,6.38073 -22.26598,21.01849 -25.19583,34.70708c-4.8641,22.72571 -14.52783,73.21334 -31.29084,95.59318c-14.40139,19.22689 -35.30905,12.46893 -48.37927,9.67145c-10.98464,-2.3511 -35.21053,-11.90632 -39.97836,-30.37966c-7.50857,-29.09271 8.76614,-74.0245 14.29704,-99.8656z" fill="#dadada" stroke="#000000" stroke-width="0" stroke-linecap="butt"/><path d="M305.93206,304.22615c6.74804,-31.52772 33.20044,-52.59512 59.08307,-47.05533c25.88263,5.53979 41.39427,35.58898 34.64623,67.1167c-6.74804,31.52773 -33.20043,52.59513 -59.08306,47.05534c-25.88263,-5.53979 -41.39428,-35.58898 -34.64624,-67.1167z" fill="#ababab" stroke="url(#color-43)" stroke-width="0" stroke-linecap="butt"/><path d="M377.14672,401.18112c2.59393,-46.96564 38.51817,-147.42822 46.8087,-159.0752c13.89127,-19.51519 36.27353,-13.17306 54.10893,-7.66665c10.46408,3.23062 -31.7194,82.46582 -64.93059,132.18254c-15.80815,23.6646 2.12553,87.83466 2.12553,87.83466c0,0 -40.71057,-6.23701 -38.11259,-53.27535z" fill="#801d1d" stroke="url(#color-44)" stroke-width="0" stroke-linecap="butt"/><path d="M238.81912,422.46543c0,0 42.62859,-51.20762 37.89171,-79.26957c-9.9516,-58.95508 -16.00699,-148.51509 -5.1373,-147.17953c18.52676,2.27641 41.54411,5.65136 46.23041,29.14279c2.79688,14.02008 -5.54739,120.38574 -22.40465,164.29853c-16.88331,43.98075 -56.58021,33.00777 -56.58021,33.00777z" fill="#801d1d" stroke="url(#color-45)" stroke-width="0" stroke-linecap="butt"/><g stroke="#000000" stroke-width="0" stroke-linecap="butt"><path d="M380.84671,187.4566l0.95667,-30.15221l7.13846,0.2265l-0.95666,30.15221z" fill="#2f323e"/><path d="M376.87724,155.67786c-3.32764,-5.61864 -3.15295,-25.70463 -3.15295,-25.70463l24.32286,0.54635c0,0 -1.61981,19.41846 -4.19181,25.10725c-1.73428,3.8359 -5.94369,3.22092 -9.04239,3.12259c-2.30896,-0.07328 -6.52675,-0.69265 -7.93566,-3.07158z" fill="#2f323e"/><g><path d="M440.89198,111.3582c-1.49658,-6.19956 -4.12911,-9.50753 -5.32561,-14.2388c-1.12902,-4.46444 -0.83202,-10.42345 -1.89692,-13.87032c-2.63173,-8.5184 -5.05512,-14.37161 -4.86816,-19.84064c0.11676,-3.41491 3.40835,-8.90942 4.38537,-11.7553c1.06914,-3.11414 10.79457,-3.17969 16.53503,-0.10685c4.99774,2.67527 5.76684,7.77835 10.53795,14.69748c2.13439,3.0953 8.14796,10.47356 9.86816,14.25805c2.853,6.27675 1.71804,10.22433 2.51458,16.58304c0.66738,5.32767 4.99346,13.29556 5.92838,19.50108c0.43635,2.89612 -2.14831,4.23722 -2.04152,6.87473c0.12892,3.18408 3.31722,13.34582 3.28053,16.20715c-0.10419,8.12521 -2.99263,10.54753 -4.47365,15.55245c-1.75772,5.94013 1.38195,18.85913 -1.01141,22.30805c-3.49642,5.0385 -13.20256,5.71986 -16.79856,5.86545c-3.53037,0.14293 -8.25004,3.38693 -11.67899,-0.59257c-2.65314,-3.07915 -4.89813,-10.5901 -6.5196,-18.73641c-0.96636,-4.85487 -2.58267,-4.99439 -3.11539,-10.85256c-0.3181,-3.49787 0.31239,-12.17572 0.14085,-16.41333c-0.28952,-7.15074 7.94256,-11.3414 4.53902,-25.44076z" fill="#a3a3a3"/><path d="M437.33646,57.30278c2.86667,-0.65793 6.49068,4.4732 8.09438,11.46074c1.60374,6.98754 0.57991,13.18542 -2.28676,13.84336c-2.86667,0.65793 -6.49067,-4.4732 -8.09441,-11.46075c-1.60374,-6.98754 -0.5799,-13.18542 2.28677,-13.84339z" fill="#0d0d0d"/></g><path d="M439.75359,63.94212c1.64897,0.69303 3.01646,3.31981 3.50257,5.07824c0.34864,1.26127 0.71511,3.74265 0.22072,4.85419c-3.01279,6.77405 -19.91142,8.86258 -22.03617,1.17616c-1.9873,-7.18922 11.5712,-13.94193 18.31285,-11.1086z" fill="#2f323e"/><g><path d="M339.23954,136.1758c-0.43985,4.21821 -0.36072,12.91854 -0.89991,16.3892c-0.90303,5.81262 -2.52498,5.84937 -3.7971,10.63326c-2.13461,8.02715 -4.85119,15.38069 -7.69421,18.28543c-3.67431,3.75414 -8.1789,0.21746 -11.69308,-0.14896c-3.57954,-0.37326 -13.22297,-1.66852 -16.39297,-6.91855c-2.16991,-3.59375 1.78239,-16.28773 0.40476,-22.32731c-1.16074,-5.08873 -3.88979,-7.6893 -3.47875,-15.80475c0.14474,-2.85788 3.97083,-12.7971 4.30132,-15.96657c0.27377,-2.62545 -2.22066,-4.1277 -1.60161,-6.99033c1.32643,-6.13378 6.14892,-13.81141 7.15269,-19.08605c1.19802,-6.29546 0.31559,-10.307 3.56078,-16.39029c1.95664,-3.66786 8.42582,-10.65005 10.75212,-13.60382c5.20011,-6.60278 6.29116,-11.64681 11.44849,-13.99992c5.92374,-2.70279 15.62543,-2.02083 16.495,1.15484c0.79469,2.90211 3.73136,8.59425 3.63136,12.00963c-0.1601,5.46989 -2.94967,11.15768 -6.11612,19.49211c-1.28125,3.37241 -1.36259,9.33826 -2.7724,13.72218c-1.49403,4.6459 -4.33098,7.78035 -6.21755,13.87255c-4.29051,13.8552 3.65938,18.55929 2.91715,25.6773z" fill="#a3a3a3"/><path d="M344.70207,70.73763c-2.04346,6.87183 -5.98543,11.76293 -8.80465,10.92456c-2.81922,-0.83837 -3.44807,-7.08867 -1.40462,-13.96047c2.04346,-6.87183 5.98544,-11.76293 8.80466,-10.92456c2.81922,0.83837 3.44807,7.08868 1.40462,13.96047z" fill="#0d0d0d"/></g><path d="M358.03613,75.49707c-2.60769,7.53624 -19.33998,4.38069 -21.9173,-2.57072c-0.42292,-1.14065 0.1001,-3.59379 0.52799,-4.83043c0.59659,-1.72406 2.12786,-4.25891 3.81744,-4.84599c6.90773,-2.40028 20.01083,5.19836 17.57183,12.24713z" fill="#2f323e"/><path d="M437.63783,141.20998c-0.04611,1.45328 -26.16818,10.94357 -51.94346,10.12465c-25.73588,-0.81767 -51.12509,-11.94231 -51.07906,-13.39335c0.04588,-1.4461 25.30657,8.22084 50.95475,9.02858c25.86258,0.81449 52.11401,-7.21806 52.06772,-5.75985z" fill="#686e88"/><path d="M437.28544,140.47224c-0.12793,4.03127 -6.86067,70.55741 -53.22357,69.0864c-46.36289,-1.47101 -49.8554,-70.57465 -49.72751,-74.60593c0.12793,-4.03127 3.82782,58.53641 50.19072,60.00742c46.36289,1.47101 52.88829,-58.51916 52.7604,-54.48788z" fill="#dadada"/><path d="M379.42638,166.20114l0.90868,-28.63988l10.75125,0.34113l-0.90868,28.63987z" fill="#24262f"/><path d="M331.28151,103.47974c0.97598,-30.76054 26.7035,-54.90563 57.46401,-53.9297c30.76051,0.97597 54.90567,26.70347 53.9297,57.46401c-0.97597,30.7605 -112.36965,27.2262 -111.39368,-3.53431z" fill="#dadada"/><path d="M342.33285,98.72304c0.41978,-13.23087 11.48582,-23.61625 24.71666,-23.19648c13.23087,0.41978 23.61629,11.4858 23.19648,24.71666c-0.41978,13.23087 -11.48583,23.61625 -24.7167,23.19647c-13.23087,-0.41978 -23.61624,-11.48582 -23.19647,-24.71666z" fill="#000000"/><path d="M381.28504,100.89476c0.41978,-13.23087 11.48579,-23.61629 24.71666,-23.19648c13.23087,0.41978 23.61625,11.48583 23.19648,24.71666c-0.41978,13.23087 -11.48579,23.61625 -24.71666,23.19647c-13.23087,-0.41978 -23.61626,-11.48579 -23.19648,-24.71666z" fill="#000000"/><path d="M450.30232,113.6254c-0.35463,7.92207 -18.59393,29.83162 -65.33406,28.34861c-46.7401,-1.48296 -61.82112,-25.71735 -61.677,-33.64606c0.44654,-24.57049 15.84758,3.4605 62.58767,4.94346c46.7401,1.48296 65.56697,-25.1935 64.42339,0.35394z" fill="#ababab"/><path d="M368.40954,118.47073c0.66456,-20.94563 13.00022,-69.18743 19.33903,-68.9863c6.33882,0.20113 17.72477,44.8664 17.0602,65.81203c-0.66456,20.94563 -37.0638,24.1199 -36.39924,3.17431z" fill="#ababab"/><path d="M406.22021,112.94172c-0.04913,1.54897 -9.2388,19.59331 -20.14617,19.24725c-10.90737,-0.34607 -19.40211,-18.95147 -19.35298,-20.50047c0.04913,-1.54897 39.5483,-0.29574 39.49915,1.25322z" fill="#1d1d1d"/><g><path d="M432.54099,2.85519c-0.22078,6.95896 -19.35951,11.99872 -42.74757,11.25666c-23.38803,-0.74206 -42.16878,-6.98495 -41.94801,-13.94387c0.03654,-1.15105 0.63056,-4.53787 4.52297,-5.18541c15.03696,-2.50159 56.83158,-0.8955 74.25758,3.03891c5.33385,1.20425 5.95818,3.47264 5.91499,4.83371z" fill="#101010"/><path d="M432.06299,3.86273c-0.4746,14.95856 -3.11785,38.91883 -19.23111,48.43251c-11.44004,6.75449 -35.23793,1.65466 -44.94725,1.34659c-23.38489,-0.74195 -21.31741,-26.88717 -20.50586,-52.46598c0.29215,-9.20819 6.87297,-0.4844 21.00246,-2.61714c11.83067,-1.78574 28.07336,3.76039 39.78817,1.66342c13.15906,-2.3555 24.16835,-5.02 23.89359,3.64057z" fill="#0d0d0d"/></g><g><path d="M442.33222,49.4044c-0.05172,1.63075 -24.06691,2.19206 -53.63934,1.25378c-29.57244,-0.93828 -53.50369,-3.02084 -53.45197,-4.65158c0.05172,-1.63075 24.06691,-2.19206 53.63934,-1.25378c29.57244,0.93828 53.50369,3.02084 53.45197,4.65158z" fill="#101010"/><path d="M441.76119,49.62592c-0.11119,3.50529 -2.66837,9.05854 -22.71511,10.77163c-14.23271,1.21627 -44.46525,-0.76106 -56.74203,-1.15055c-29.56851,-0.93816 -27.81007,-7.02443 -27.61991,-13.01842c0.06846,-2.15778 12.7337,1.81433 30.51518,1.7737c14.8885,-0.03405 33.77439,2.22131 48.50635,2.11025c16.54816,-0.12477 28.11987,-2.51608 28.0555,-0.48661z" fill="#0d0d0d"/></g><path d="M428.03839,40.36974c-0.04194,1.32254 0.82768,5.48589 -2.45303,6.46401c-2.77868,0.82842 -7.16438,0.49126 -12.3976,0.77313c-5.36502,0.28896 -11.61928,1.18241 -17.82549,0.85282c-3.13343,-0.16643 -5.45841,-1.7403 -8.60971,-1.84026c-4.75633,-0.15092 -10.36176,0.69535 -15.79377,0.26954c-4.71753,-0.36983 -9.29443,-2.00966 -13.19374,-2.22299c-4.84344,-0.26499 -7.7924,0.58948 -10.47987,-0.2187c-4.53147,-1.36267 -1.38969,-5.09043 -1.3392,-6.68216c0.04233,-1.33458 -1.38064,-6.24895 1.9555,-7.23218c3.09078,-0.91089 8.48186,-2.24368 14.68558,-1.6737c4.52127,0.41542 9.45005,2.6033 14.3534,2.95601c3.80226,0.27349 6.49349,-0.42029 10.29136,-0.2998c3.80474,0.12072 7.4793,1.25276 11.62144,1.05292c4.87608,-0.23523 9.89229,-1.88239 14.43207,-2.33669c6.37561,-0.638 11.84505,0.02348 14.95972,1.0323c4.00871,1.29839 -0.1594,7.61628 -0.20667,9.10577z" fill="#801d1d"/></g></g><g stroke-width="0" stroke-linecap="butt"><path d="M315.03512,95.8873c0,-24.16246 19.58754,-43.75 43.75,-43.75c24.16246,0 43.75,19.58754 43.75,43.75c0,24.16246 -19.58754,43.75 -43.75,43.75c-24.16246,0 -43.75,-19.58754 -43.75,-43.75z" fill="url(#color-46)" stroke="url(#color-47)"/><path d="M351.87723,95.72283c0,-3.90596 3.1664,-7.07237 7.07236,-7.07237c3.90596,0 7.07237,3.16641 7.07237,7.07237c0,3.90596 -3.16641,7.07237 -7.07237,7.07237c-3.90596,0 -7.07236,-3.16641 -7.07236,-7.07237zM358.90014,100.81691c2.73144,0 4.94571,-2.21427 4.94571,-4.94571c0,-2.73144 -2.21427,-4.94572 -4.94571,-4.94572c-2.73144,0 -4.94572,2.21428 -4.94572,4.94572c0,2.73144 2.21427,4.94571 4.94572,4.94571z" fill="#ffffff" stroke="url(#color-48)"/></g><g stroke-width="0" stroke-linecap="butt"><path d="M368.03512,97.3873c0,-24.16246 19.58754,-43.75 43.75,-43.75c24.16246,0 43.75,19.58754 43.75,43.75c0,24.16246 -19.58754,43.75 -43.75,43.75c-24.16246,0 -43.75,-19.58754 -43.75,-43.75z" fill="url(#color-49)" stroke="url(#color-50)"/><path d="M404.87723,97.22283c0,-3.90596 3.1664,-7.07237 7.07236,-7.07237c3.90596,0 7.07237,3.16641 7.07237,7.07237c0,3.90596 -3.16641,7.07237 -7.07237,7.07237c-3.90596,0 -7.07236,-3.16641 -7.07236,-7.07237zM411.90014,102.31691c2.73144,0 4.94571,-2.21427 4.94571,-4.94571c0,-2.73144 -2.21427,-4.94572 -4.94571,-4.94572c-2.73144,0 -4.94572,2.21428 -4.94572,4.94572c0,2.73144 2.21427,4.94571 4.94572,4.94571z" fill="#ffffff" stroke="url(#color-51)"/></g></g></g></g></svg>