<svg version="1.1" xmlns="http://www.w3.org/2000/svg" xmlns:xlink="http://www.w3.org/1999/xlink" width="76.33333" height="101" viewBox="0,0,76.33333,101"><g transform="translate(-321.83333,-129.5)"><g data-paper-data="{&quot;isPaintingLayer&quot;:true}" fill-rule="nonzero" stroke-linecap="butt" stroke-linejoin="miter" stroke-miterlimit="10" stroke-dasharray="" stroke-dashoffset="0" style="mix-blend-mode: normal"><path d="M321.83333,230.5v-101h76.33333v101z" fill="#273042" stroke="none" stroke-width="0"/><path d="M329.75471,196.83333v-61.66667h60.49068v61.66667z" fill="#0b0e13" stroke="none" stroke-width="0"/><path d="M343.08343,227.33333v-17.33333h33.83333v17.33333z" fill="#0b0e13" stroke="#000000" stroke-width="0"/><path d="M342.99991,209.125v-11.25h34.25v11.25z" fill="#273042" stroke="#000000" stroke-width="0"/><text transform="translate(340.9228,207.0298) scale(0.29415,0.29415)" font-size="40" xml:space="preserve" fill="#000000" fill-rule="nonzero" stroke="none" stroke-width="1" stroke-linecap="butt" stroke-linejoin="miter" stroke-miterlimit="10" stroke-dasharray="" stroke-dashoffset="0" font-family="&quot;GovtAgentBB&quot;, Serif" font-weight="normal" text-anchor="start" style="mix-blend-mode: normal"><tspan x="0" dy="0">Toothy</tspan></text><text transform="translate(345.44336,222.26211) scale(0.29962,0.29962)" font-size="40" xml:space="preserve" fill="#c79e44" fill-rule="nonzero" stroke="none" stroke-width="1" stroke-linecap="butt" stroke-linejoin="miter" stroke-miterlimit="10" stroke-dasharray="" stroke-dashoffset="0" font-family="&quot;Agency FB&quot;, Sans Serif" font-weight="normal" text-anchor="start" style="mix-blend-mode: normal"><tspan x="0" dy="0">MEDIUM</tspan></text><g><g stroke="#000000" stroke-width="0"><path d="M334.87683,151.81793c0,0 7.10653,5.30637 14.3327,7.57634c5.35045,1.68074 12.51483,3.37082 12.44615,5.54881c-0.16144,5.11951 -6.77413,17.0057 -11.90805,18.6302c-2.03594,0.64422 -8.07472,-1.6247 -10.92587,-6.25671c-4.33842,-7.04825 -3.94492,-25.49863 -3.94492,-25.49863z" data-paper-data="{&quot;index&quot;:null}" fill="#262626"/><path d="M335.97578,153.30697c0,0 6.40462,4.78227 12.91706,6.82803c4.82198,1.51474 11.38797,3.37189 11.32607,5.33476c-0.14549,4.61386 -6.10505,15.32604 -10.7319,16.7901c-1.83486,0.58059 -7.27718,-1.46423 -9.84673,-5.63874c-3.90991,-6.35209 -3.6645,-23.31413 -3.6645,-23.31413z" data-paper-data="{&quot;index&quot;:null}" fill="#202020"/></g><g data-paper-data="{&quot;index&quot;:null}" stroke="#000000" stroke-width="0"><path d="M385.11043,165.78592c-0.34512,5.42821 -4.6139,10.26477 -6.71414,10.65089c-5.29606,0.97364 -16.71181,-6.42161 -19.25593,-10.86715c-1.08234,-1.89126 4.45205,-6.74464 8.38885,-10.73887c5.31693,-5.39448 9.10383,-13.41445 9.10383,-13.41445c0,0 9.00254,16.1098 8.47739,24.36958z" data-paper-data="{&quot;index&quot;:null}" fill="#262626"/><path d="M384.06131,165.5557c-0.31104,4.89207 -4.15818,9.25092 -6.05099,9.5989c-4.77297,0.87747 -15.06119,-5.78734 -17.35403,-9.7938c-0.97544,-1.70446 3.95211,-6.42469 7.50007,-10.0244c4.79178,-4.86167 8.20464,-12.0895 8.20464,-12.0895c0,0 8.17359,14.86484 7.7003,22.30881z" data-paper-data="{&quot;index&quot;:null}" fill="#202020"/></g><g fill="#2b2b2b" stroke="#000000" stroke-width="0"><path d="M344.9066,176.83454c-2.50623,-10.06103 3.28736,-19.08569 12.87667,-21.47442c9.58931,-2.38872 19.14119,2.81334 21.64742,12.87437c2.50623,10.06103 -3.23574,20.15354 -12.82503,22.54227c-7.90617,1.96945 -20.1028,-3.39789 -21.96111,-11.32227c-0.41319,-1.76197 0.70196,-0.85402 0.26206,-2.61994z"/><path d="M380.97097,170.40546c2.07615,7.87012 -6.17747,18.33167 -14.08363,20.30112c-9.5893,2.38872 -19.39467,-3.83091 -21.9009,-13.89193c-2.50623,-10.06103 3.48922,-19.13598 13.07851,-21.5247c9.5893,-2.38872 18.93934,2.86362 21.44557,12.92465c0.4399,1.76593 0.99883,0.44096 1.46045,2.19086z" data-paper-data="{&quot;index&quot;:null}"/></g><path d="M345.89443,176.74029c-2.41218,-9.68345 3.29391,-17.98595 12.32363,-20.23528c9.02972,-2.24933 17.96371,2.40628 20.37589,12.08973c2.41218,9.68345 -3.29391,17.98595 -12.32363,20.23528c-9.02972,2.24933 -17.96371,-2.40629 -20.37589,-12.08974z" fill="#323232" stroke="#000000" stroke-width="0"/><g fill="#2b2b2b" stroke="#000000" stroke-width="0"><path d="M348.34382,177.03036c-1.03028,-4.13596 1.63738,-8.94897 5.37871,-9.88095c3.74134,-0.93198 6.18787,2.81694 7.21815,6.9529c1.03028,4.13596 -0.15409,7.74006 -3.89544,8.67204c-3.74134,0.93198 -7.67115,-1.60803 -8.70143,-5.74399z"/><path d="M371.57665,179.15453c-3.74134,0.93198 -6.47799,-1.69539 -7.50827,-5.83135c-1.03028,-4.13596 -0.62824,-8.59447 3.1131,-9.52645c3.74134,-0.93198 8.35504,2.06723 9.38532,6.20319c1.03028,4.13596 -1.24881,8.22262 -4.99015,9.1546z" data-paper-data="{&quot;index&quot;:null}"/></g><path d="M348.26768,176.72472c-0.99112,-3.97877 1.71351,-8.64335 5.45485,-9.57533c0.91042,-0.22679 1.74186,-0.18563 2.49314,0.06382c0.11439,0.03798 0.92099,-0.92896 0.92099,-0.92896c0,0 -0.0865,1.29852 0.14724,1.45295c1.74962,1.15597 2.94962,3.52622 3.57878,6.05194c0.99112,3.97877 -0.22274,7.46446 -3.96409,8.39644c-1.11052,0.27663 -2.23488,0.25847 -3.29294,-0.00792c-0.25066,-0.06311 -1.01661,0.89922 -1.01661,0.89922c0,0 -0.02429,-1.24798 -0.1718,-1.3148c-1.97417,-0.89407 -3.56593,-2.69444 -4.14956,-5.03738z" fill="#000000" stroke="#000000" stroke-width="0"/><path d="M371.42997,178.5658c-3.74134,0.93198 -6.4485,-1.57699 -7.43962,-5.55575c-0.99112,-3.97877 -0.55024,-8.28132 3.1911,-9.2133c3.74134,-0.93198 8.31806,1.91879 9.30919,5.89756c0.99112,3.97877 -1.31933,7.93951 -5.06068,8.8715z" data-paper-data="{&quot;index&quot;:null}" fill="#000000" stroke="#000000" stroke-width="0"/><g data-paper-data="{&quot;index&quot;:null}" stroke="#000000" stroke-width="0"><path d="M357.03686,177.09074c-1.11975,0.27893 -2.15259,0.00281 -2.56162,-1.63919c-0.40903,-1.642 0.36462,-2.4064 1.48437,-2.68533c1.11975,-0.27893 2.16157,0.03323 2.5706,1.67523c0.40903,1.642 -0.37359,2.37036 -1.49334,2.6493z" data-paper-data="{&quot;index&quot;:null}" fill="#ffffff"/><path d="M356.98222,176.87141c-1.00617,0.25064 -1.93425,0.00253 -2.30179,-1.47292c-0.36754,-1.47545 0.32764,-2.16231 1.33381,-2.41295c1.00617,-0.25064 1.94231,0.02986 2.30985,1.5053c0.36754,1.47545 -0.3357,2.12993 -1.34187,2.38057z" data-paper-data="{&quot;index&quot;:null}" fill="#000000"/></g><g fill="#262626" stroke="#000000" stroke-width="0"><path d="M368.07248,177.95836c0.28794,1.15589 -1.38001,2.56657 -3.72546,3.15083c-2.34545,0.58426 -4.48023,0.12085 -4.76817,-1.03504c-0.28794,-1.15589 1.38001,-2.56657 3.72546,-3.15083c2.34545,-0.58426 4.48024,-0.12086 4.76818,1.03504z"/><path d="M367.06394,179.15951c0.19014,0.76331 -0.80235,2.53509 -2.46776,2.94995c-1.6654,0.41486 -3.37306,-0.68431 -3.5632,-1.44762c-0.19014,-0.76331 1.00579,-1.7184 2.6712,-2.13325c1.6654,-0.41486 3.16962,-0.13238 3.35976,0.63092z"/></g><g data-paper-data="{&quot;index&quot;:null}" stroke="#000000" stroke-width="0"><path d="M366.35065,172.21074c-0.40903,-1.642 0.36462,-2.4064 1.48437,-2.68533c1.11975,-0.27893 2.16157,0.03323 2.5706,1.67523c0.40903,1.642 -0.3736,2.37036 -1.49335,2.6493c-1.11975,0.27893 -2.15259,0.00281 -2.56162,-1.63919z" data-paper-data="{&quot;index&quot;:null}" fill="#ffffff"/><path d="M366.55587,172.15768c-0.36754,-1.47545 0.32764,-2.16231 1.3338,-2.41295c1.00617,-0.25064 1.94232,0.02985 2.30986,1.5053c0.36754,1.47545 -0.3357,2.12993 -1.34187,2.38057c-1.00617,0.25064 -1.93424,0.00253 -2.30178,-1.47292z" data-paper-data="{&quot;index&quot;:null}" fill="#000000"/></g><g fill="#000000" stroke="#000000" stroke-width="0"><path d="M366.55987,189.26157c-4.74031,1.18083 -10.39139,-0.48224 -14.028,-2.17784c-2.67247,-1.24607 -3.86816,-5.06303 -3.86816,-5.06303c0,0 2.09797,2.76505 3.76987,2.96367c0.54548,0.0648 1.69417,0.34772 1.69417,0.34772c0,0 1.047,-0.61342 1.67308,-0.77003c0.21319,-0.05332 0.86146,0.48493 0.86146,0.48493c0,0 0.57071,-0.66758 0.92745,-0.77203c2.13011,-0.62367 4.62695,-1.10794 7.2869,-1.77054c2.04079,-0.50837 3.75416,6.24128 1.68323,6.75715z"/><path d="M366.21701,189.34698c-2.07093,0.51587 -3.72402,-6.24879 -1.68323,-6.75715c2.65995,-0.6626 5.0922,-1.40618 7.26597,-1.85462c0.36405,-0.0751 1.18123,0.24675 1.18123,0.24675c0,0 0.32003,-0.77946 0.53331,-0.83237c0.62638,-0.15539 1.8388,-0.10479 1.8388,-0.10479c0,0 0.88174,-0.7887 1.33309,-1.10182c1.38336,-0.95969 1.93909,-4.38579 1.93909,-4.38579c0,0 0.73456,3.93183 -1.04109,6.28594c-2.41625,3.20339 -6.62685,7.32303 -11.36716,8.50385z" data-paper-data="{&quot;index&quot;:null}"/></g><path d="M358.64192,184.07592c0,0 -0.99904,1.49375 -0.90161,3.69651c0.09744,2.20275 1.53014,3.01844 1.53014,3.01844c0,0 -3.01084,-0.8877 -4.99905,-2.49147c-1.51637,-1.22316 -2.13324,-3.22768 -2.16392,-3.41936c0.27032,0.11838 0.8113,0.31414 0.96981,0.17563c0,0 0.45072,0.24052 0.96879,0.22162c0.39934,-0.01458 1.28865,-0.69 1.73636,-0.66409c0.24291,0.01406 0.39891,0.11551 0.60351,0.19154c0.13316,0.04948 0.16178,0.24525 0.26885,0.23689c0.12183,-0.00951 0.72086,-0.68591 0.84897,-0.70621c0.56983,-0.09031 1.13814,-0.2595 1.13814,-0.2595z" fill="#ffffff" stroke="#ff0000" stroke-width="0"/><path d="M371.904,180.74829c0.12267,-0.04217 0.969,0.27418 1.08105,0.22543c0.09848,-0.04284 0.03192,-0.22917 0.12631,-0.33533c0.14503,-0.16312 0.23521,-0.3259 0.44313,-0.45226c0.38324,-0.23291 1.48547,-0.05358 1.84498,-0.22803c0.4664,-0.22633 0.75162,-0.65018 0.75162,-0.65018c0.20497,0.04796 0.5909,-0.37868 0.77411,-0.61005c0.06282,0.18367 0.45834,2.24333 -0.30705,4.03489c-1.00356,2.34903 -3.24616,4.54537 -3.24616,4.54537c0,0 0.88265,-1.39245 -0.0646,-3.38351c-0.94725,-1.99106 -2.53026,-2.84162 -2.53026,-2.84162c0,0 0.58126,-0.11718 1.12687,-0.30472z" data-paper-data="{&quot;index&quot;:null}" fill="#ffffff" stroke="#ff0000" stroke-width="0"/><g fill="none" stroke="#2b2b2b" stroke-width="0.5"><path d="M366.54837,189.26444v0c-4.74031,1.18083 -10.39139,-0.48224 -14.028,-2.17784c-2.67247,-1.24607 -3.86816,-5.06303 -3.86816,-5.06303c0,0 2.09796,2.76505 3.76986,2.96367c0.54548,0.0648 1.69418,0.34772 1.69418,0.34772c0,0 1.047,-0.61342 1.67308,-0.77002c0.21319,-0.05332 0.86146,0.48493 0.86146,0.48493c0,0 0.57071,-0.66758 0.92745,-0.77203c2.13011,-0.62367 4.62695,-1.10795 7.2869,-1.77055"/><path d="M364.52228,182.59269c2.65995,-0.6626 5.0922,-1.40618 7.26597,-1.85462c0.36405,-0.0751 1.18123,0.24675 1.18123,0.24675c0,0 0.32004,-0.77946 0.53332,-0.83237c0.62638,-0.15539 1.83879,-0.10479 1.83879,-0.10479c0,0 0.88175,-0.7887 1.33309,-1.10182c1.38336,-0.95969 1.93909,-4.38579 1.93909,-4.38579c0,0 0.73456,3.93183 -1.0411,6.28594c-2.41625,3.20339 -6.62685,7.32303 -11.36716,8.50385v0.00001" data-paper-data="{&quot;index&quot;:null}"/></g><path d="M357.74032,187.77243c0.09744,2.20275 1.53014,3.01844 1.53014,3.01844c0,0 -3.01084,-0.8877 -4.99905,-2.49147c-0.50045,-0.40369 -0.90294,-0.89249 -1.21871,-1.37314c1.07571,-0.07327 2.79915,-0.34131 3.1463,-0.39563c0.54541,-0.08534 1.09243,-0.16666 1.6384,-0.24987c-0.07825,0.446 -0.12117,0.94716 -0.09708,1.49166z" fill="#ffffff" stroke="#ff0000" stroke-width="0"/><path d="M372.52191,182.62281c0.52121,-0.18263 1.04245,-0.36742 1.56416,-0.5479c0.33206,-0.11488 1.97985,-0.68662 2.96423,-1.12652c-0.0534,0.57261 -0.17956,1.1931 -0.43217,1.78437c-1.00356,2.34903 -3.24615,4.54537 -3.24615,4.54537c0,0 0.88265,-1.39245 -0.0646,-3.38351c-0.23415,-0.49217 -0.50715,-0.91464 -0.78548,-1.27182z" data-paper-data="{&quot;index&quot;:null}" fill="#ffffff" stroke="#ff0000" stroke-width="0"/><g stroke-width="0"><g stroke="#000000"><path d="M368.19713,155.72257c0.15751,0.63233 -1.77375,1.65782 -9.23736,3.51703c-7.46361,1.85921 -9.76429,1.8879 -9.9218,1.25557c-0.15751,-0.63233 1.88779,-1.68623 9.35139,-3.54544c7.46361,-1.85921 9.65025,-1.8595 9.80777,-1.22717z" fill="#252525"/><path d="M358.27534,156.97814c7.46361,-1.85921 9.76429,-1.88791 9.92181,-1.25557c0.15751,0.63233 -1.88779,1.68623 -9.3514,3.54544c-7.46361,1.85921 -9.65025,1.8595 -9.80777,1.22717c-0.15751,-0.63233 1.77375,-1.65782 9.23736,-3.51703z" data-paper-data="{&quot;index&quot;:null}" fill="#222222"/></g><path d="M349.03961,160.50167l-0.57365,-2.30287l19.15917,-4.7726l0.57365,2.30287z" fill="#222222" stroke="#000000"/><g fill="#202020" stroke="#000000"><path d="M367.6251,153.4262c0.15751,0.63233 -1.77375,1.65782 -9.23736,3.51703c-7.46361,1.85921 -9.76429,1.8879 -9.9218,1.25557c-0.15751,-0.63233 1.88779,-1.68623 9.35139,-3.54544c7.46361,-1.85921 9.65025,-1.8595 9.80777,-1.22717z"/><path d="M357.70331,154.68178c7.46361,-1.85921 9.76429,-1.88791 9.92181,-1.25558c0.15751,0.63233 -1.88779,1.68623 -9.3514,3.54544c-7.46361,1.85921 -9.65025,1.85949 -9.80777,1.22717c-0.15751,-0.63233 1.77375,-1.65782 9.23736,-3.51702z" data-paper-data="{&quot;index&quot;:null}"/></g><g fill="#222222" stroke="#000000"><path d="M364.63683,153.93284c0.10188,0.409 -2.79152,1.48188 -6.46259,2.39636c-3.67107,0.91447 -6.72964,1.32425 -6.83153,0.91525c-0.10188,-0.409 2.79151,-1.48188 6.46258,-2.39635c3.67107,-0.91447 6.72965,-1.32425 6.83153,-0.91525z"/><path d="M351.34273,157.24444c0,0 -0.86718,-4.04434 -1.72708,-5.97595c-0.83658,-1.87921 -3.36429,-5.46085 -3.36429,-5.46085l8.69592,-2.16618l9.68957,10.29138z"/><path d="M351.34273,157.24444l3.72966,-13.63414l8.69592,-2.16618c0,0 -0.55221,4.34885 -0.40949,6.40091c0.14669,2.10927 1.27803,6.08781 1.27803,6.08781z" data-paper-data="{&quot;index&quot;:null}"/></g><path d="M363.76827,141.44412c0.25079,1.00675 -3.46721,2.79971 -8.30438,4.00466c-4.83717,1.20495 -8.96177,1.36563 -9.21256,0.35886c-0.25079,-1.00675 3.46721,-2.79971 8.30438,-4.00466c4.83717,-1.20495 8.96178,-1.36562 9.21256,-0.35886z" fill="#202020" stroke="#000000"/><g fill="#770000"><g><g stroke="#000000"><path d="M364.85096,154.1607c0.06546,0.26277 -2.92381,1.23364 -6.67671,2.1685c-3.7529,0.93486 -6.84829,1.4797 -6.91374,1.21692c-0.06546,-0.26277 2.9238,-1.23364 6.6767,-2.1685c3.7529,-0.93486 6.84829,-1.4797 6.91375,-1.21692z"/><path d="M351.26051,157.54612c0,0 -0.50697,-2.61088 -1.19488,-3.81814c-0.66925,-1.17452 14.78534,0.43272 14.78534,0.43272z"/><path d="M351.26051,157.54612c0,0 12.89472,-8.66915 12.85464,-7.31793c-0.0412,1.38889 0.73582,3.93251 0.73582,3.93251z" data-paper-data="{&quot;index&quot;:null}"/></g><path d="M357.62787,154.13587c-3.88328,0.96734 -7.18343,-0.50646 -7.21731,-0.64247c-0.03388,-0.136 2.84819,-0.34057 6.73147,-1.3079c3.88328,-0.96734 4.36912,0.98304 0.48584,1.95037z" stroke="#2b2b2b"/></g><g data-paper-data="{&quot;index&quot;:null}"><g stroke="#000000"><path d="M357.93721,155.37762c3.7529,-0.93486 6.84829,-1.4797 6.91375,-1.21692c0.06546,0.26277 -2.92381,1.23364 -6.67671,2.1685c-3.7529,0.93486 -6.84829,1.4797 -6.91374,1.21692c-0.06546,-0.26277 2.92381,-1.23364 6.6767,-2.1685z"/><path d="M351.26051,157.54612c0,0 12.89472,-8.66915 12.85464,-7.31793c-0.0412,1.38889 0.73582,3.9325 0.73582,3.9325z"/><path d="M351.26052,157.54612c0,0 -0.50698,-2.61089 -1.19489,-3.81815c-0.66925,-1.17452 14.78534,0.43273 14.78534,0.43273z" data-paper-data="{&quot;index&quot;:null}"/></g><path d="M357.14204,152.1855c3.88328,-0.96734 6.52453,-2.13865 6.55842,-2.00264c0.03388,0.136 -2.18929,2.98568 -6.07257,3.95301c-3.88328,0.96734 -4.36912,-0.98304 -0.48584,-1.95037z" stroke="#2b2b2b"/></g></g></g></g></g></g></svg>