<svg version="1.1" xmlns="http://www.w3.org/2000/svg" xmlns:xlink="http://www.w3.org/1999/xlink" width="76.33333" height="101" viewBox="0,0,76.33333,101"><g transform="translate(-321.83333,-129.5)"><g data-paper-data="{&quot;isPaintingLayer&quot;:true}" fill-rule="nonzero" stroke-linecap="butt" stroke-linejoin="miter" stroke-miterlimit="10" stroke-dasharray="" stroke-dashoffset="0" style="mix-blend-mode: normal"><path d="M321.83333,230.5v-101h76.33333v101z" fill="#273042" stroke="none" stroke-width="0"/><path d="M329.75471,196.83333v-61.66667h60.49068v61.66667z" fill="#0b0e13" stroke="none" stroke-width="0"/><path d="M343.08348,227.33333v-17.33333h33.83333v17.33333z" fill="#0b0e13" stroke="#000000" stroke-width="0"/><path d="M342.99992,209.125v-11.25h34.25v11.25z" fill="#273042" stroke="#000000" stroke-width="0"/><text transform="translate(340.92285,207.0298) scale(0.29415,0.29415)" font-size="40" xml:space="preserve" fill="#000000" fill-rule="nonzero" stroke="none" stroke-width="1" stroke-linecap="butt" stroke-linejoin="miter" stroke-miterlimit="10" stroke-dasharray="" stroke-dashoffset="0" font-family="&quot;GovtAgentBB&quot;, Serif" font-weight="normal" text-anchor="start" style="mix-blend-mode: normal"><tspan x="0" dy="0">Toothy</tspan></text><text transform="translate(347.21025,223.17375) scale(0.37559,0.37559)" font-size="40" xml:space="preserve" fill="#c74444" fill-rule="nonzero" stroke="none" stroke-width="1" stroke-linecap="butt" stroke-linejoin="miter" stroke-miterlimit="10" stroke-dasharray="" stroke-dashoffset="0" font-family="&quot;Agency FB&quot;, Sans Serif" font-weight="normal" text-anchor="start" style="mix-blend-mode: normal"><tspan x="0" dy="0">HARD</tspan></text><g><g stroke="#000000" stroke-width="0"><path d="M334.90434,151.38402c0,0 7.05344,5.42473 14.27025,7.80509c5.34352,1.76247 12.50664,3.56021 12.40665,5.74416c-0.23503,5.13354 -7.03848,16.96323 -12.21197,18.51963c-2.05163,0.61721 -8.07728,-1.74514 -10.87141,-6.43262c-4.25165,-7.13266 -3.59352,-25.63627 -3.59352,-25.63627z" data-paper-data="{&quot;index&quot;:null}" fill="#262626"/><path d="M335.98555,152.89349c0,0 6.35678,4.88895 12.86078,7.03419c4.81575,1.5884 11.37616,3.5452 11.28604,5.51344c-0.21182,4.62651 -6.34329,15.28778 -11.00579,16.69045c-1.849,0.55625 -7.27949,-1.57278 -9.79764,-5.79728c-3.83171,-6.42817 -3.3434,-23.4408 -3.3434,-23.4408z" data-paper-data="{&quot;index&quot;:null}" fill="#202020"/></g><g data-paper-data="{&quot;index&quot;:null}" stroke="#000000" stroke-width="0"><path d="M385.09876,166.11361c-0.42371,5.4406 -4.77514,10.23164 -6.88759,10.58902c-5.32685,0.90115 -16.67343,-6.68063 -19.16221,-11.17667c-1.05879,-1.91274 4.56253,-6.70261 8.5689,-10.65337c5.41089,-5.33579 9.32434,-13.32728 9.32434,-13.32728c0,0 8.8013,16.28967 8.15658,24.56831z" data-paper-data="{&quot;index&quot;:null}" fill="#262626"/><path d="M384.04958,165.86769c-0.38186,4.90322 -4.3035,9.22106 -6.20731,9.54315c-4.80071,0.81215 -15.0266,-6.02078 -17.26958,-10.07276c-0.95422,-1.72382 4.05642,-6.38877 7.66707,-9.94931c4.87646,-4.80877 8.40338,-12.01093 8.40338,-12.01093c0,0 7.98746,15.02893 7.40642,22.48987z" data-paper-data="{&quot;index&quot;:null}" fill="#202020"/></g><g fill="#2b2b2b" stroke="#000000" stroke-width="0"><path d="M344.609,176.62358c-2.37061,-10.12888 3.57027,-19.09963 13.22427,-21.35909c9.65398,-2.25946 19.16207,3.09554 21.53269,13.22443c2.37061,10.12888 -3.53373,20.17162 -13.18772,22.43108c-7.95949,1.86287 -20.11841,-3.69567 -21.86953,-11.67187c-0.38936,-1.77349 0.71638,-0.84671 0.3003,-2.62455z"/><path d="M380.88015,170.68879c1.97042,7.92486 -6.45884,18.30196 -14.41833,20.16484c-9.65398,2.25946 -19.40184,-4.11996 -21.77245,-14.24885c-2.37061,-10.12888 3.77349,-19.14719 13.42748,-21.40665c9.65398,-2.25946 18.95887,3.1431 21.32948,13.27199c0.41609,1.77784 0.99571,0.45661 1.43383,2.2187z" data-paper-data="{&quot;index&quot;:null}"/></g><path d="M345.60133,176.54313c-2.28165,-9.74877 3.56114,-17.99629 12.65178,-20.12391c9.09063,-2.12761 17.98665,2.67037 20.26829,12.41915c2.28165,9.74877 -3.56114,17.99629 -12.65178,20.12391c-9.09063,2.12761 -17.98665,-2.67037 -20.26829,-12.41915z" fill="#323232" stroke="#000000" stroke-width="0"/><g fill="#2b2b2b" stroke="#000000" stroke-width="0"><path d="M348.05438,176.86909c-0.97453,-4.16386 1.77034,-8.95414 5.53691,-9.83569c3.76658,-0.88155 6.16739,2.91426 7.14192,7.07811c0.97453,4.16386 -0.26507,7.76255 -4.03163,8.6441c-3.76658,0.88155 -7.67267,-1.72266 -8.6472,-5.88651z"/><path d="M371.331,179.33166c-3.76658,0.88155 -6.47445,-1.79327 -7.44898,-5.95713c-0.97453,-4.16386 -0.50756,-8.63084 3.25901,-9.51239c3.76658,-0.88155 8.35218,2.19309 9.32671,6.35695c0.97453,4.16386 -1.37017,8.23103 -5.13674,9.11257z" data-paper-data="{&quot;index&quot;:null}"/></g><path d="M347.98237,176.56138c-0.93749,-4.00561 1.84234,-8.64645 5.60892,-9.528c0.91656,-0.21452 1.75007,-0.16136 2.50018,0.09961c0.11422,0.03973 0.93718,-0.91877 0.93718,-0.91877c0,0 -0.10532,1.30143 0.12697,1.45969c1.73869,1.18464 2.90869,3.57957 3.5038,6.12232c0.93749,4.00561 -0.33,7.4851 -4.09658,8.36664c-1.11801,0.26166 -2.24569,0.22738 -3.30333,-0.05496c-0.25056,-0.06689 -1.03269,0.88758 -1.03269,0.88758c0,0 -0.00655,-1.25231 -0.15358,-1.32144c-1.9677,-0.9251 -3.53884,-2.75394 -4.0909,-5.11268z" fill="#000000" stroke="#000000" stroke-width="0"/><path d="M371.19225,178.73896c-3.76658,0.88155 -6.44655,-1.67407 -7.38404,-5.67966c-0.93749,-4.00561 -0.43378,-8.31558 3.33279,-9.19712c3.76658,-0.88155 8.3172,2.04364 9.2547,6.04925c0.93749,4.00561 -1.43687,7.94601 -5.20346,8.82756z" data-paper-data="{&quot;index&quot;:null}" fill="#000000" stroke="#000000" stroke-width="0"/><g fill="#000000" stroke="#000000" stroke-width="0"><path d="M366.15396,189.39933c-4.77229,1.11692 -10.41765,-0.6321 -14.04165,-2.38503c-2.66321,-1.28818 -3.80822,-5.13439 -3.80822,-5.13439c0,0 2.06518,2.80381 3.73957,3.02693c0.5463,0.07279 1.69461,0.37301 1.69461,0.37301c0,0 1.05909,-0.60043 1.68941,-0.7486c0.21463,-0.05045 0.85729,0.49877 0.85729,0.49877c0,0 0.58206,-0.66156 0.94142,-0.76125c2.1458,-0.59525 4.65751,-1.04544 7.33542,-1.67218c2.05455,-0.48085 3.67704,6.31478 1.59214,6.80274z"/><path d="M365.80877,189.48012c-2.0849,0.48796 -3.64669,-6.32188 -1.59214,-6.80274c2.6779,-0.62675 5.12851,-1.33797 7.31561,-1.75681c0.36629,-0.07014 1.18147,0.26439 1.18147,0.26439c0,0 0.33218,-0.77737 0.5469,-0.8274c0.63059,-0.14695 1.84615,-0.07889 1.84615,-0.07889c0,0 0.89582,-0.77863 1.35307,-1.0863c1.40147,-0.94301 2.00788,-4.3721 2.00788,-4.3721c0,0 0.68078,3.95486 -1.13414,6.29112c-2.46969,3.17911 -6.75251,7.25179 -11.5248,8.36871z" data-paper-data="{&quot;index&quot;:null}"/></g><path d="M358.28475,184.08412c0,0 -1.02355,1.48426 -0.95724,3.69542c0.06631,2.21116 1.49194,3.04991 1.49194,3.04991c0,0 -3.00777,-0.93351 -4.97943,-2.57077c-1.50375,-1.24871 -2.09398,-3.26843 -2.12202,-3.46116c0.26948,0.12262 0.80941,0.32672 0.9704,0.19003c0,0 0.44872,0.24773 0.96871,0.23616c0.40082,-0.00892 1.3026,-0.67381 1.75137,-0.64142c0.24348,0.01757 0.39853,0.12158 0.6027,0.20077c0.13289,0.05153 0.1588,0.24834 0.26634,0.24149c0.12235,-0.0078 0.73294,-0.6778 0.86176,-0.69635c0.57293,-0.08247 1.14547,-0.24408 1.14547,-0.24408z" fill="#ffffff" stroke="#ff0000" stroke-width="0"/><path d="M371.63663,180.93517c0.12366,-0.04055 0.96818,0.28889 1.08128,0.24159c0.0994,-0.04157 0.0353,-0.22945 0.1315,-0.3346c0.14782,-0.16157 0.24061,-0.32358 0.451,-0.44738c0.38778,-0.22818 1.49097,-0.03255 1.85413,-0.20242c0.47112,-0.22039 0.7633,-0.64153 0.7633,-0.64153c0.20495,0.05105 0.59819,-0.37146 0.78528,-0.60095c0.06041,0.18515 0.42778,2.25702 -0.36563,4.04338c-1.04029,2.34219 -3.3214,4.51353 -3.3214,4.51353c0,0 0.90533,-1.38429 -0.01651,-3.39522c-0.92184,-2.01092 -2.49777,-2.88679 -2.49777,-2.88679c0,0 0.58479,-0.10925 1.13482,-0.2896z" data-paper-data="{&quot;index&quot;:null}" fill="#ffffff" stroke="#ff0000" stroke-width="0"/><g fill="none" stroke="#2b2b2b" stroke-width="0.5"><path d="M366.14238,189.40203v-0.00001c-4.77229,1.11692 -10.41765,-0.6321 -14.04165,-2.38503c-2.66321,-1.28818 -3.80822,-5.13439 -3.80822,-5.13439c0,0 2.06518,2.80381 3.73957,3.02693c0.5463,0.07279 1.69461,0.37301 1.69461,0.37301c0,0 1.05909,-0.60043 1.68941,-0.7486c0.21463,-0.05045 0.85728,0.49876 0.85728,0.49876c0,0 0.58206,-0.66156 0.94142,-0.76125c2.1458,-0.59525 4.65751,-1.04544 7.33542,-1.67218"/><path d="M364.20506,182.68009c2.6779,-0.62675 5.12851,-1.33797 7.31561,-1.75681c0.36629,-0.07014 1.18147,0.26439 1.18147,0.26439c0,0 0.33218,-0.77737 0.5469,-0.8274c0.63059,-0.14695 1.84615,-0.07889 1.84615,-0.07889c0,0 0.89582,-0.77863 1.35307,-1.0863c1.40147,-0.94301 2.00788,-4.3721 2.00788,-4.3721c0,0 0.68078,3.95486 -1.13414,6.29112c-2.46969,3.17911 -6.75251,7.25179 -11.5248,8.36871h-0.00001" data-paper-data="{&quot;index&quot;:null}"/></g><path d="M357.32752,187.77955c0.06631,2.21116 1.49194,3.04991 1.49194,3.04991c0,0 -3.00777,-0.93351 -4.97943,-2.57077c-0.4963,-0.41213 -0.89308,-0.90822 -1.203,-1.39492c1.08019,-0.05815 2.81294,-0.30244 3.16198,-0.35198c0.54836,-0.07783 1.09829,-0.15159 1.6472,-0.22727c-0.08487,0.44631 -0.13508,0.94846 -0.11868,1.49504z" fill="#ffffff" stroke="#ff0000" stroke-width="0"/><path d="M372.22975,182.82449c0.52547,-0.17577 1.05102,-0.35371 1.57697,-0.52732c0.33476,-0.1105 1.99597,-0.66054 2.98975,-1.08779c-0.06174,0.57368 -0.19716,1.19434 -0.45901,1.78389c-1.04029,2.34219 -3.3214,4.51353 -3.3214,4.51353c0,0 0.90533,-1.38429 -0.01651,-3.39522c-0.22786,-0.49708 -0.49571,-0.9248 -0.76983,-1.28708z" data-paper-data="{&quot;index&quot;:null}" fill="#ffffff" stroke="#ff0000" stroke-width="0"/><g stroke-width="0"><g stroke="#000000"><path d="M368.27515,155.77674c0.14899,0.63659 -1.80306,1.63779 -9.31702,3.39639c-7.51395,1.7586 -9.82237,1.75455 -9.97137,1.11795c-0.14899,-0.63659 1.91788,-1.66466 9.43183,-3.42326c7.51395,-1.7586 9.70758,-1.72767 9.85656,-1.09109z" fill="#252525"/><path d="M358.30381,156.89469c7.51395,-1.7586 9.82238,-1.75455 9.97137,-1.11794c0.14899,0.63659 -1.91788,1.66466 -9.43183,3.42326c-7.51395,1.7586 -9.70758,1.72767 -9.85656,1.09109c-0.14899,-0.63659 1.80306,-1.63779 9.31702,-3.39639z" data-paper-data="{&quot;index&quot;:null}" fill="#222222"/></g><path d="M348.98834,160.29762l-0.5426,-2.3184l19.28839,-4.51434l0.5426,2.3184z" fill="#222222" stroke="#000000"/><g fill="#202020" stroke="#000000"><path d="M367.73408,153.46489c0.14899,0.63659 -1.80306,1.63779 -9.31702,3.39639c-7.51395,1.7586 -9.82237,1.75455 -9.97137,1.11795c-0.14899,-0.63659 1.91788,-1.66466 9.43183,-3.42326c7.51395,-1.7586 9.70758,-1.72767 9.85656,-1.09109z"/><path d="M357.76273,154.58284c7.51395,-1.7586 9.82238,-1.75455 9.97137,-1.11796c0.14899,0.63659 -1.91788,1.66466 -9.43183,3.42326c-7.51395,1.7586 -9.70758,1.72767 -9.85656,1.09109c-0.14899,-0.63659 1.80307,-1.63779 9.31703,-3.39638z" data-paper-data="{&quot;index&quot;:null}"/></g><g fill="#222222" stroke="#000000"><path d="M364.72908,153.93047c0.09637,0.41176 -2.82157,1.44676 -6.5174,2.31175c-3.69583,0.86499 -6.77001,1.23241 -6.86638,0.82066c-0.09637,-0.41176 2.82157,-1.44676 6.51739,-2.31174c3.69583,-0.86499 6.77001,-1.23241 6.86638,-0.82066z"/><path d="M351.3453,157.06288c0,0 -0.81222,-4.06962 -1.64728,-6.01965c-0.81242,-1.89715 -3.29707,-5.52628 -3.29707,-5.52628l8.75458,-2.04896l9.57358,10.46251z"/><path d="M351.3453,157.06288l3.93617,-13.62439l8.75458,-2.04896c0,0 -0.61605,4.35484 -0.50217,6.41548c0.11705,2.1181 1.1952,6.12547 1.1952,6.12547z" data-paper-data="{&quot;index&quot;:null}"/></g><path d="M364.03601,141.38954c0.23721,1.01354 -3.51823,2.75914 -8.38803,3.8989c-4.86979,1.13975 -9.00985,1.24205 -9.24707,0.2285c-0.23721,-1.01354 3.51823,-2.75914 8.38804,-3.89889c4.86979,-1.13975 9.00985,-1.24205 9.24707,-0.22851z" fill="#202020" stroke="#000000"/><g fill="#770000"><g><g stroke="#000000"><path d="M364.94062,154.16212c0.06192,0.26454 -2.95074,1.19584 -6.72895,2.0801c-3.77821,0.88427 -6.89126,1.38665 -6.95316,1.12211c-0.06192,-0.26454 2.95074,-1.19584 6.72895,-2.0801c3.77821,-0.88427 6.89126,-1.38665 6.95316,-1.12211z"/><path d="M351.2585,157.36435c0,0 -0.47132,-2.62644 -1.14418,-3.84738c-0.65462,-1.18782 14.82631,0.64515 14.82631,0.64515z"/><path d="M351.2585,157.36435c0,0 13.05958,-8.51273 13.00009,-7.15777c-0.06115,1.39274 0.68203,3.95555 0.68203,3.95555z" data-paper-data="{&quot;index&quot;:null}"/></g><path d="M357.69487,154.0341c-3.90947,0.915 -7.19911,-0.61061 -7.23116,-0.74754c-0.03205,-0.13693 2.86213,-0.301 6.77161,-1.21599c3.90947,-0.915 4.36902,1.04854 0.45956,1.96352z" stroke="#2b2b2b"/></g><g data-paper-data="{&quot;index&quot;:null}"><g stroke="#000000"><path d="M357.98746,155.28424c3.77821,-0.88427 6.89126,-1.38665 6.95316,-1.12211c0.06192,0.26454 -2.95074,1.19584 -6.72895,2.0801c-3.77821,0.88427 -6.89126,1.38665 -6.95316,1.12211c-0.06192,-0.26454 2.95074,-1.19584 6.72895,-2.0801z"/><path d="M351.2585,157.36435c0,0 13.05958,-8.51273 13.00009,-7.15777c-0.06115,1.39274 0.68203,3.95553 0.68203,3.95553z"/><path d="M351.25851,157.36434c0,0 -0.47132,-2.62645 -1.14419,-3.84739c-0.65462,-1.18782 14.82631,0.64515 14.82631,0.64515z" data-paper-data="{&quot;index&quot;:null}"/></g><path d="M357.23532,152.07058c3.90947,-0.915 6.57586,-2.05233 6.60791,-1.91541c0.03205,0.13693 -2.23889,2.96395 -6.14837,3.87894c-3.90947,0.915 -4.36902,-1.04854 -0.45956,-1.96352z" stroke="#2b2b2b"/></g></g></g><path d="M370.85133,177.83771c-3.36156,0.78676 -5.75338,-1.49406 -6.59006,-5.06895c-0.83669,-3.57489 -0.38714,-7.42144 2.97443,-8.20819c3.36156,-0.78676 7.42288,1.82389 8.25957,5.39879c0.83669,3.57489 -1.28237,7.09159 -4.64395,7.87836z" data-paper-data="{&quot;index&quot;:null}" fill="#ffffff" stroke="#000000" stroke-width="0"/><path d="M356.46849,181.20393c-3.36156,0.78676 -6.82118,-1.42428 -7.65786,-4.99918c-0.83668,-3.57489 1.64425,-7.71673 5.00581,-8.50348c3.36156,-0.78676 5.47144,2.46076 6.30812,6.03566c0.83668,3.57489 -0.29453,6.68025 -3.65609,7.467z" data-paper-data="{&quot;index&quot;:null}" fill="#ffffff" stroke="#000000" stroke-width="0"/><g fill="#262626" stroke="#000000" stroke-width="0"><path d="M367.83272,178.08166c0.27235,1.16369 -1.42105,2.55505 -3.78232,3.10769c-2.36127,0.55264 -4.49624,0.05729 -4.76861,-1.10639c-0.27235,-1.16369 1.42105,-2.55505 3.78232,-3.1077c2.36127,-0.55264 4.49625,-0.05729 4.76861,1.1064z"/><path d="M366.80381,179.27225c0.17986,0.76846 -0.8411,2.53172 -2.51772,2.92413c-1.67664,0.3924 -3.37405,-0.73464 -3.5539,-1.5031c-0.17986,-0.76846 1.03353,-1.70952 2.71016,-2.10192c1.67664,-0.3924 3.18162,-0.08756 3.36147,0.68089z"/></g></g></g></g></svg>